<?xml version="1.0" encoding="UTF-8" standalone="no"?>
<!DOCTYPE svg PUBLIC "-//W3C//DTD SVG 20010904//EN"
"http://www.w3.org/TR/2001/REC-SVG-20010904/DTD/svg10.dtd">
<!-- Created with Inkscape (http://www.inkscape.org/) --><svg height="60.0000000" id="svg1" inkscape:version="0.38.1" sodipodi:docbase="/home/danny/flat/scalable/apps" sodipodi:docname="kfax.svg" sodipodi:version="0.32" version="1.0" width="60.0000000" x="0" xmlns="http://www.w3.org/2000/svg" xmlns:inkscape="http://www.inkscape.org/namespaces/inkscape" xmlns:sodipodi="http://sodipodi.sourceforge.net/DTD/sodipodi-0.dtd" xmlns:xlink="http://www.w3.org/1999/xlink" y="0">
  <metadata>
    <rdf:RDF xmlns:cc="http://web.resource.org/cc/" xmlns:dc="http://purl.org/dc/elements/1.1/" xmlns:rdf="http://www.w3.org/1999/02/22-rdf-syntax-ns#">
      <cc:Work rdf:about="">
        <dc:title>Part of the Flat Icon Collection (Wed Aug 25 23:23:49 2004)</dc:title>
        <dc:description></dc:description>
        <dc:subject>
          <rdf:Bag>
            <rdf:li>hash</rdf:li>
            <rdf:li></rdf:li>
            <rdf:li>application</rdf:li>
            <rdf:li>computer</rdf:li>
            <rdf:li>icons</rdf:li>
            <rdf:li>theme</rdf:li>
          </rdf:Bag>
        </dc:subject>
        <dc:publisher>
          <cc:Agent rdf:about="http://www.openclipart.org">
            <dc:title>Danny Allen</dc:title>
          </cc:Agent>
        </dc:publisher>
        <dc:creator>
          <cc:Agent>
            <dc:title>Danny Allen</dc:title>
          </cc:Agent>
        </dc:creator>
        <dc:rights>
          <cc:Agent>
            <dc:title>Danny Allen</dc:title>
          </cc:Agent>
        </dc:rights>
        <dc:date></dc:date>
        <dc:format>image/svg+xml</dc:format>
        <dc:type rdf:resource="http://purl.org/dc/dcmitype/StillImage"/>
        <cc:license rdf:resource="http://web.resource.org/cc/PublicDomain"/>
        <dc:language>en</dc:language>
      </cc:Work>
      <cc:License rdf:about="http://web.resource.org/cc/PublicDomain">
        <cc:permits rdf:resource="http://web.resource.org/cc/Reproduction"/>
        <cc:permits rdf:resource="http://web.resource.org/cc/Distribution"/>
        <cc:permits rdf:resource="http://web.resource.org/cc/DerivativeWorks"/>
      </cc:License>
    </rdf:RDF>
  </metadata>
  <sodipodi:namedview bordercolor="#666666" borderopacity="1.0" id="base" inkscape:cx="28.344505" inkscape:cy="17.237439" inkscape:pageopacity="0.0" inkscape:pageshadow="2" inkscape:window-height="685" inkscape:window-width="1016" inkscape:window-x="0" inkscape:window-y="0" inkscape:zoom="6.9465337" pagecolor="#ffffff"/>
  <defs id="defs3">
    <linearGradient id="linearGradient772">
      <stop id="stop773" offset="0" style="stop-color:#000;stop-opacity:1;"/>
      <stop id="stop774" offset="1" style="stop-color:#fff;stop-opacity:1;"/>
    </linearGradient>
    <linearGradient id="linearGradient775" xlink:href="#linearGradient772"/>
  </defs>
  <path d="M 9.2672119,48.933330 C 6.9279157,57.120866 11.336589,57.480758 14.395669,54.961516 C 19.524126,51.182653 20.963693,47.943627 20.963693,47.943627" id="path852" sodipodi:nodetypes="ccc" sodipodi:stroke-cmyk="(0.0000000 0.0000000 0.0000000 0.80000001)" style="fill:none;fill-rule:evenodd;stroke:#333333;stroke-opacity:1.0000000;stroke-width:2.5000000;stroke-linejoin:round;stroke-linecap:round;fill-opacity:0.75;stroke-dasharray:2.5000000,2.5000000;stroke-dashoffset:0.0000000;" transform="translate(0.000000,-0.179946)"/>
  <path d="M 17.687500 10.156250 L 23.218750 24.812500 C 23.421758 25.351555 24.048986 25.812500 24.625000 25.812500 L 47.156250 25.812500 C 47.732262 25.812500 48.015509 25.351556 47.812500 24.812500 L 42.281250 10.156250 L 17.687500 10.156250 z " id="path850" sodipodi:stroke-cmyk="(0.0000000 0.0000000 0.0000000 0.80000001)" style="fill:#b3b3b3;fill-rule:evenodd;stroke:#333333;stroke-width:2.5192064;stroke-dasharray:none;stroke-linejoin:round;stroke-linecap:round;stroke-opacity:1.0000000;" transform="matrix(0.992376,0.000000,0.000000,0.992376,-0.466192,-5.817176)"/>
  <rect height="42.243992" id="rect835" rx="1.1614833" sodipodi:stroke-cmyk="(0.0000000 0.0000000 0.0000000 0.80000001)" style="fill:#b3b3b3;fill-opacity:1.0000000;fill-rule:evenodd;stroke:#333333;stroke-width:6.8791309;stroke-dasharray:none;stroke-linejoin:round;stroke-linecap:round;stroke-opacity:1.0000000;" transform="matrix(0.363418,0.000000,0.000000,0.363418,39.22253,6.652910)" width="27.484043" x="-82.257736" y="56.437252"/>
  <rect height="33.193164" id="rect836" rx="2.7746546" sodipodi:stroke-cmyk="(0.0000000 0.0000000 0.0000000 0.80000001)" style="fill:#b3b3b3;fill-rule:evenodd;stroke:#333333;stroke-width:7.1129388;stroke-dasharray:none;stroke-linejoin:round;stroke-linecap:round;stroke-opacity:1.0000000;" transform="matrix(0.363418,0.000000,0.128562,0.339919,39.22253,6.652910)" width="65.656326" x="-83.041342" y="113.66568"/>
  <rect height="78.889381" id="rect834" rx="4.3232989" sodipodi:stroke-cmyk="(0.0000000 0.0000000 0.0000000 0.80000001)" style="fill:#7f7f7f;fill-opacity:1.0000000;fill-rule:evenodd;stroke:#333333;stroke-width:8.5989136;stroke-dasharray:none;stroke-linejoin:round;stroke-linecap:round;stroke-opacity:1.0000000;" transform="matrix(0.363418,0.000000,0.000000,0.363418,39.22253,6.652910)" width="102.30171" x="-56.809549" y="33.533886"/>
  <rect height="3.1229404" id="rect838" rx="0.22545957" sodipodi:stroke-cmyk="(0.0000000 0.0000000 0.0000000 0.80000001)" style="fill:#4c4c4c;fill-rule:evenodd;stroke:#333333;stroke-width:1.2500000;stroke-linecap:round;stroke-linejoin:round;stroke-dasharray:none;fill-opacity:1.0000000;stroke-opacity:1.0000000;" transform="translate(-2.429269,-1.259621)" width="5.3350229" x="24.504241" y="31.380469"/>
  <rect height="3.1229404" id="rect839" rx="0.22545957" sodipodi:stroke-cmyk="(0.0000000 0.0000000 0.0000000 0.80000001)" style="fill:#4c4c4c;fill-rule:evenodd;stroke:#333333;stroke-width:1.2500000;stroke-linecap:round;stroke-linejoin:round;stroke-dasharray:none;fill-opacity:1.0000000;stroke-opacity:1.0000000;" transform="translate(-0.899729,-1.259621)" width="5.3350229" x="30.845455" y="31.380469"/>
  <rect height="3.1229404" id="rect840" rx="0.22545957" sodipodi:stroke-cmyk="(0.0000000 0.0000000 0.0000000 0.80000001)" style="fill:#4c4c4c;fill-rule:evenodd;stroke:#333333;stroke-width:1.2500000;stroke-linecap:round;stroke-linejoin:round;stroke-dasharray:none;fill-opacity:1.0000000;stroke-opacity:1.0000000;" transform="translate(0.629811,-1.259621)" width="5.3350229" x="37.186670" y="31.380469"/>
  <rect height="3.1229404" id="rect841" rx="0.22545957" sodipodi:stroke-cmyk="(0.0000000 0.0000000 0.0000000 0.80000001)" style="fill:#4c4c4c;fill-rule:evenodd;stroke:#333333;stroke-width:1.2500000;stroke-linecap:round;stroke-linejoin:round;stroke-dasharray:none;fill-opacity:1.0000000;stroke-opacity:1.0000000;" transform="translate(-2.429269,-8.997258e-2)" width="5.3350229" x="24.504241" y="35.649659"/>
  <rect height="3.1229404" id="rect842" rx="0.22545957" sodipodi:stroke-cmyk="(0.0000000 0.0000000 0.0000000 0.80000001)" style="fill:#4c4c4c;fill-rule:evenodd;stroke:#333333;stroke-width:1.2500000;stroke-linecap:round;stroke-linejoin:round;stroke-dasharray:none;fill-opacity:1.0000000;stroke-opacity:1.0000000;" transform="translate(-0.899729,-8.997258e-2)" width="5.3350229" x="30.845455" y="35.649659"/>
  <rect height="3.1229404" id="rect843" rx="0.22545957" sodipodi:stroke-cmyk="(0.0000000 0.0000000 0.0000000 0.80000001)" style="fill:#4c4c4c;fill-rule:evenodd;stroke:#333333;stroke-width:1.2500000;stroke-linecap:round;stroke-linejoin:round;stroke-dasharray:none;fill-opacity:1.0000000;stroke-opacity:1.0000000;" transform="translate(0.629811,-8.997258e-2)" width="5.3350229" x="37.186670" y="35.649659"/>
  <rect height="3.1229404" id="rect844" rx="0.22545957" sodipodi:stroke-cmyk="(0.0000000 0.0000000 0.0000000 0.80000001)" style="fill:#4c4c4c;fill-rule:evenodd;stroke:#333333;stroke-width:1.2500000;stroke-linecap:round;stroke-linejoin:round;stroke-dasharray:none;fill-opacity:1.0000000;stroke-opacity:1.0000000;" transform="translate(-2.429269,0.899729)" width="5.3350229" x="24.504241" y="39.918856"/>
  <rect height="3.1229404" id="rect845" rx="0.22545957" sodipodi:stroke-cmyk="(0.0000000 0.0000000 0.0000000 0.80000001)" style="fill:#4c4c4c;fill-rule:evenodd;stroke:#333333;stroke-width:1.2500000;stroke-linecap:round;stroke-linejoin:round;stroke-dasharray:none;fill-opacity:1.0000000;stroke-opacity:1.0000000;" transform="translate(-0.899729,0.899729)" width="5.3350229" x="30.845455" y="39.918856"/>
  <rect height="3.1229404" id="rect846" rx="0.22545957" sodipodi:stroke-cmyk="(0.0000000 0.0000000 0.0000000 0.80000001)" style="fill:#4c4c4c;fill-rule:evenodd;stroke:#333333;stroke-width:1.2500000;stroke-linecap:round;stroke-linejoin:round;stroke-dasharray:none;fill-opacity:1.0000000;stroke-opacity:1.0000000;" transform="translate(0.629811,0.899729)" width="5.3350229" x="37.186670" y="39.918856"/>
  <rect height="4.3820742" id="rect847" rx="0.65083766" sodipodi:stroke-cmyk="(0.0000000 0.0000000 0.0000000 0.80000001)" style="fill:#b3b3b3;fill-rule:evenodd;stroke:#333333;stroke-width:1.8750000;stroke-linecap:round;stroke-linejoin:round;stroke-dasharray:none;stroke-opacity:1.0000000;" transform="translate(0.000000,0.179946)" width="28.322111" x="22.977916" y="22.410344"/>
  <path d="M 77.871455 93.337128 A 10.433757 10.433757 0 1 0 57.003942,93.337128 A 10.433757 10.433757 0 1 0 77.871455 93.337128 z" id="path848" sodipodi:cx="67.437698" sodipodi:cy="93.337128" sodipodi:rx="10.433757" sodipodi:ry="10.433757" sodipodi:stroke-cmyk="(0.0000000 0.0000000 0.0000000 0.80000001)" sodipodi:type="arc" style="fill:#b3b3b3;fill-opacity:1.0000000;fill-rule:evenodd;stroke:#333333;stroke-width:4.2994627;stroke-dasharray:none;stroke-linejoin:round;stroke-linecap:round;stroke-opacity:1.0000000;" transform="matrix(0.290734,0.000000,0.000000,0.290734,29.55499,13.79447)"/>
  <path d="M 4.7685654,24.460692 C 5.3084029,21.221667 11.426562,20.681830 12.056373,24.550665 C 11.336589,34.447688 11.246616,37.056903 11.426563,47.403790 C 11.426562,50.462869 5.0384841,51.362599 4.5886195,47.313817 C 3.7788631,42.725197 3.7788631,31.928446 4.7685654,24.460692 z " id="path851" sodipodi:nodetypes="ccccc" sodipodi:stroke-cmyk="(0.0000000 0.0000000 0.0000000 0.80000001)" style="fill:#7f7f7f;fill-rule:evenodd;stroke:#333333;stroke-opacity:1.0000000;stroke-width:2.2522687;stroke-linejoin:round;stroke-linecap:butt;fill-opacity:1.0000000;stroke-dasharray:none;" transform="matrix(1.232082,0.000000,0.000000,1.000000,-1.053684,-1.349594)"/>
  <path d="M -6.8225527,5.8193731 L -6.8225527,-8.1728144 C -6.8225527,-8.6884394 -6.6545839,-9.1181269 -6.3186464,-9.4618769 C -5.9827089,-9.8056269 -5.5491152,-9.9775019 -5.0178652,-9.9775019 C -4.4866152,-9.9775019 -4.0569277,-9.8173456 -3.7288027,-9.4970331 C -3.3928652,-9.1767206 -3.2248964,-8.7353144 -3.2248964,-8.1728144 L -3.2248964,-2.9462519 L 2.6813536,-9.2978144 C 3.0954161,-9.7509394 3.5602598,-9.9775019 4.0758848,-9.9775019 C 4.5524473,-9.9775019 4.9665098,-9.8134394 5.3180723,-9.4853144 C 5.6774473,-9.1650019 5.8571348,-8.7431269 5.8571348,-8.2196894 C 5.8571348,-7.9228144 5.7633848,-7.6298456 5.5758848,-7.3407831 C 5.3883848,-7.0595331 5.0876036,-6.7118769 4.6735411,-6.2978144 L 0.13838482,-1.7860956 L 5.6813536,4.0615606 C 6.0016661,4.3662481 6.2477598,4.6631231 6.4196348,4.9521856 C 6.5993223,5.2334356 6.6891661,5.5459356 6.6891661,5.8896856 C 6.6891661,6.4365606 6.5094786,6.8545294 6.1501036,7.1435919 C 5.7907286,7.4248419 5.3454161,7.5654669 4.8141661,7.5654669 C 4.5016661,7.5654669 4.2165098,7.4795294 3.9586973,7.3076544 C 3.7086973,7.1357794 3.3883848,6.8467169 2.9977598,6.4404669 L -3.2248964,-0.35640812 L -3.2248964,5.8193731 C -3.2248964,6.3115606 -3.3928652,6.7256231 -3.7288027,7.0615606 C -4.0647402,7.3974981 -4.4944277,7.5654669 -5.0178652,7.5654669 C -5.5413027,7.5654669 -5.9748964,7.4053106 -6.3186464,7.0849981 C -6.6545839,6.7646856 -6.8225527,6.3428106 -6.8225527,5.8193731 z " id="path853" style="font-size:24.000000;fill:#333333;stroke-width:1.0000000pt;font-family:VAG Rounded Black SSi;" transform="matrix(0.341351,0.000000,0.114145,0.341351,33.24795,10.13650)"/>
  <path d="M 37.139197,181.14740 L 52.946277,197.70716 L 78.538546,180.39460 L 98.861908,189.42735 L 105.63634,219.09510 L 127.46505,218.89461 L 133.48682,188.45399 L 153.81015,180.39460 L 179.40244,196.95450 L 191.44592,180.39460 L 162.40179,152.98512 C 87.958944,221.26415 23.628859,116.02943 87.571178,72.003552 L 87.571095,56.196470 L 80.043997,59.960043 L 56.709788,45.126111 L 40.590920,58.363176 L 55.204367,83.294200 L 46.924507,103.61753 L 18.409265,108.35437 L 18.321270,129.96261 L 47.677259,137.48978 L 55.768940,157.24868 L 37.139197,181.14740 z " id="path705" sodipodi:nodetypes="ccccccccccccccccccccccc" sodipodi:stroke-cmyk="(0 0 0 0.8)" style="font-size:12;fill:#333333;fill-rule:evenodd;stroke:#333333;stroke-width:1.29297;stroke-linecap:round;stroke-linejoin:round;" transform="matrix(4.978015e-2,0.000000,1.664611e-2,4.978015e-2,24.48747,5.432255)"/>
</svg>
