<?xml version="1.0" encoding="UTF-8" standalone="no"?>
<!DOCTYPE svg PUBLIC "-//W3C//DTD SVG 20010904//EN"
"http://www.w3.org/TR/2001/REC-SVG-20010904/DTD/svg10.dtd">
<!-- Created with Inkscape (http://www.inkscape.org/) --><svg height="60.0000000" id="svg1" inkscape:version="0.38.1" sodipodi:docbase="/home/danny/flat/scalable/apps" sodipodi:docname="kmenuedit.svg" sodipodi:version="0.32" version="1.0" width="60.0000000" x="0" xmlns="http://www.w3.org/2000/svg" xmlns:inkscape="http://www.inkscape.org/namespaces/inkscape" xmlns:sodipodi="http://sodipodi.sourceforge.net/DTD/sodipodi-0.dtd" xmlns:xlink="http://www.w3.org/1999/xlink" xmlns:xml="http://www.w3.org/XML/1998/namespace" y="0">
  <metadata>
    <rdf:RDF xmlns:cc="http://web.resource.org/cc/" xmlns:dc="http://purl.org/dc/elements/1.1/" xmlns:rdf="http://www.w3.org/1999/02/22-rdf-syntax-ns#">
      <cc:Work rdf:about="">
        <dc:title>Part of the Flat Icon Collection (Wed Aug 25 23:23:49 2004)</dc:title>
        <dc:description></dc:description>
        <dc:subject>
          <rdf:Bag>
            <rdf:li>hash</rdf:li>
            <rdf:li></rdf:li>
            <rdf:li>application</rdf:li>
            <rdf:li>computer</rdf:li>
            <rdf:li>icons</rdf:li>
            <rdf:li>theme</rdf:li>
          </rdf:Bag>
        </dc:subject>
        <dc:publisher>
          <cc:Agent rdf:about="http://www.openclipart.org">
            <dc:title>Danny Allen</dc:title>
          </cc:Agent>
        </dc:publisher>
        <dc:creator>
          <cc:Agent>
            <dc:title>Danny Allen</dc:title>
          </cc:Agent>
        </dc:creator>
        <dc:rights>
          <cc:Agent>
            <dc:title>Danny Allen</dc:title>
          </cc:Agent>
        </dc:rights>
        <dc:date></dc:date>
        <dc:format>image/svg+xml</dc:format>
        <dc:type rdf:resource="http://purl.org/dc/dcmitype/StillImage"/>
        <cc:license rdf:resource="http://web.resource.org/cc/PublicDomain"/>
        <dc:language>en</dc:language>
      </cc:Work>
      <cc:License rdf:about="http://web.resource.org/cc/PublicDomain">
        <cc:permits rdf:resource="http://web.resource.org/cc/Reproduction"/>
        <cc:permits rdf:resource="http://web.resource.org/cc/Distribution"/>
        <cc:permits rdf:resource="http://web.resource.org/cc/DerivativeWorks"/>
      </cc:License>
    </rdf:RDF>
  </metadata>
  <sodipodi:namedview bordercolor="#666666" borderopacity="1.0" id="base" inkscape:cx="18.859853" inkscape:cy="19.254356" inkscape:pageopacity="0.0" inkscape:pageshadow="2" inkscape:window-height="685" inkscape:window-width="1016" inkscape:window-x="0" inkscape:window-y="0" inkscape:zoom="4.9119411" pagecolor="#ffffff"/>
  <defs id="defs3">
    <linearGradient id="linearGradient1160">
      <stop id="stop1161" offset="0" style="stop-color:#000;stop-opacity:1;"/>
      <stop id="stop1162" offset="1" style="stop-color:#fff;stop-opacity:1;"/>
    </linearGradient>
    <linearGradient id="linearGradient1163" xlink:href="#linearGradient1160"/>
  </defs>
  <rect height="36.390907" id="rect838" style="fill:#b3b3b3;fill-opacity:1.0000000;fill-rule:evenodd;stroke:none;stroke-width:1.0000000pt;" transform="matrix(0.990694,0.000000,0.000000,1.000000,0.771839,-0.254482)" width="53.441196" x="1.5268912" y="1.9781317"/>
  <rect height="27.4840431" id="rect887" style="font-size:12;fill:#b3b3b3;fill-opacity:1;fill-rule:evenodd;stroke:none;stroke-width:1pt;" transform="matrix(1.013033,0.000000,0.000000,0.714468,-0.259430,25.59057)" width="55.2225685" x="2.79930067" y="18.0104904"/>
  <path d="M 117.90414,14.956708 L 3.0537825,14.956708 L 3.0537825,45.494533 L 117.63111,45.494533" id="path888" sodipodi:nodetypes="cccc" sodipodi:stroke-cmyk="(0 0 0 0.8)" style="fill:none;fill-rule:evenodd;stroke:#333333;stroke-opacity:1;stroke-width:3.3664940;stroke-linejoin:round;stroke-linecap:round;fill-opacity:0.75;stroke-dasharray:none;" transform="matrix(0.482416,0.000000,0.000000,0.643021,1.015849,28.84102)"/>
  <path d="M 12.21513 15.21119 L 12.21513 46.003497 " id="path889" sodipodi:stroke-cmyk="(0 0 0 0.8)" style="fill:none;fill-rule:evenodd;stroke:#333333;stroke-opacity:1;stroke-width:2.9159234;stroke-linejoin:miter;stroke-linecap:butt;fill-opacity:0.75;stroke-dasharray:none;" transform="matrix(0.643021,0.000000,0.000000,0.643021,4.049088,28.84102)"/>
  <path d="M -6.8225527,5.8193731 L -6.8225527,-8.1728144 C -6.8225527,-8.6884394 -6.6545839,-9.1181269 -6.3186464,-9.4618769 C -5.9827089,-9.8056269 -5.5491152,-9.9775019 -5.0178652,-9.9775019 C -4.4866152,-9.9775019 -4.0569277,-9.8173456 -3.7288027,-9.4970331 C -3.3928652,-9.1767206 -3.2248964,-8.7353144 -3.2248964,-8.1728144 L -3.2248964,-2.9462519 L 2.6813536,-9.2978144 C 3.0954161,-9.7509394 3.5602598,-9.9775019 4.0758848,-9.9775019 C 4.5524473,-9.9775019 4.9665098,-9.8134394 5.3180723,-9.4853144 C 5.6774473,-9.1650019 5.8571348,-8.7431269 5.8571348,-8.2196894 C 5.8571348,-7.9228144 5.7633848,-7.6298456 5.5758848,-7.3407831 C 5.3883848,-7.0595331 5.0876036,-6.7118769 4.6735411,-6.2978144 L 0.13838482,-1.7860956 L 5.6813536,4.0615606 C 6.0016661,4.3662481 6.2477598,4.6631231 6.4196348,4.9521856 C 6.5993223,5.2334356 6.6891661,5.5459356 6.6891661,5.8896856 C 6.6891661,6.4365606 6.5094786,6.8545294 6.1501036,7.1435919 C 5.7907286,7.4248419 5.3454161,7.5654669 4.8141661,7.5654669 C 4.5016661,7.5654669 4.2165098,7.4795294 3.9586973,7.3076544 C 3.7086973,7.1357794 3.3883848,6.8467169 2.9977598,6.4404669 L -3.2248964,-0.35640812 L -3.2248964,5.8193731 C -3.2248964,6.3115606 -3.3928652,6.7256231 -3.7288027,7.0615606 C -4.0647402,7.3974981 -4.4944277,7.5654669 -5.0178652,7.5654669 C -5.5413027,7.5654669 -5.9748964,7.4053106 -6.3186464,7.0849981 C -6.6545839,6.7646856 -6.8225527,6.3428106 -6.8225527,5.8193731 z " id="path848" style="font-size:24.000000;fill:#333333;stroke-width:1.0000000pt;font-family:VAG Rounded Black SSi;" transform="matrix(0.546407,0.000000,0.000000,0.546407,24.27207,46.15091)"/>
  <path d="M 37.139197,181.14740 L 52.946277,197.70716 L 78.538546,180.39460 L 98.861908,189.42735 L 105.63634,219.09510 L 127.46505,218.89461 L 133.48682,188.45399 L 153.81015,180.39460 L 179.40244,196.95450 L 191.44592,180.39460 L 162.40179,152.98512 C 87.958944,221.26415 23.628859,116.02943 87.571178,72.003552 L 87.571095,56.196470 L 80.043997,59.960043 L 56.709788,45.126111 L 40.590920,58.363176 L 55.204367,83.294200 L 46.924507,103.61753 L 18.409265,108.35437 L 18.321270,129.96261 L 47.677259,137.48978 L 55.768940,157.24868 L 37.139197,181.14740 z " id="path705" sodipodi:nodetypes="ccccccccccccccccccccccc" sodipodi:stroke-cmyk="(0 0 0 0.8)" style="font-size:12.000000;fill:#333333;fill-rule:evenodd;stroke:#333333;stroke-width:1.2929699;stroke-linecap:round;stroke-linejoin:round;" transform="matrix(7.968402e-2,0.000000,0.000000,7.968402e-2,12.76704,38.62073)"/>
  <path d="M 16.140158 23.736337 L 16.012917 37.096636 L 9.3963881 30.480107 L 16.140158 23.736337 z " id="path594" sodipodi:nodetypes="cccc" sodipodi:stroke-cmyk="(0 0 0 0.8)" style="fill:#4c4c4c;fill-rule:evenodd;stroke:#333333;stroke-opacity:1;stroke-width:1.9439490;stroke-linejoin:round;stroke-linecap:round;fill-opacity:1;stroke-dasharray:none;" transform="matrix(0.643021,0.000000,0.000000,0.643021,-1.069598,28.84102)"/>
  <path d="M 2.0358550,2.2326135 L 2.0358550,39.895932" id="path839" sodipodi:nodetypes="cc" sodipodi:stroke-cmyk="(0.0000000 0.0000000 0.0000000 0.80000001)" style="fill:none;fill-rule:evenodd;stroke:#333333;stroke-opacity:1.0000000;stroke-width:1.8750000;stroke-linejoin:round;stroke-linecap:round;fill-opacity:0.75;stroke-dasharray:none;" transform="translate(0.445344,6.362012e-2)"/>
  <rect height="10.179276" id="rect840" rx="2" sodipodi:stroke-cmyk="(0.0000000 0.0000000 0.0000000 0.80000001)" style="fill:#7f7f7f;fill-opacity:1.0000000;fill-rule:evenodd;stroke:#333333;stroke-width:0.99329881;stroke-linejoin:round;stroke-linecap:round;stroke-dasharray:0.99329881,0.99329881;stroke-dashoffset:0.0000000;stroke-opacity:1.0000000;" transform="matrix(1.258433,0.000000,0.000000,1.258433,-2.311853,-10.88938)" width="10.179276" x="6.6165290" y="26.408392"/>
  <rect height="10.179276" id="rect841" rx="2.0000000" sodipodi:stroke-cmyk="(0.0000000 0.0000000 0.0000000 0.80000001)" style="fill:#7f7f7f;fill-opacity:1.0000000;fill-rule:evenodd;stroke:#333333;stroke-width:0.99329881;stroke-linejoin:round;stroke-linecap:round;stroke-dasharray:0.99329881,0.99329881;stroke-dashoffset:0.0000000;stroke-opacity:1.0000000;" transform="matrix(1.258433,0.000000,0.000000,1.258433,-0.710612,-9.608391)" width="10.179276" x="5.3441200" y="11.217234"/>
  <path d="M 23.412333,10.884997 L 48.606039,10.884997" id="path843" sodipodi:stroke-cmyk="(0.0000000 0.0000000 0.0000000 0.80000001)" style="fill:none;fill-rule:evenodd;stroke:#333333;stroke-opacity:1.0000000;stroke-width:3.1250000;stroke-linejoin:round;stroke-linecap:round;fill-opacity:0.75;stroke-dasharray:none;" transform="translate(1.272410,-0.254482)"/>
  <path d="M 24.430261,28.601532 L 49.623967,28.601532" id="path844" sodipodi:stroke-cmyk="(0.0000000 0.0000000 0.0000000 0.80000001)" style="fill:none;fill-rule:evenodd;stroke:#333333;stroke-opacity:1.0000000;stroke-width:3.1250000;stroke-linejoin:round;stroke-linecap:round;fill-opacity:0.75;stroke-dasharray:none;" transform="translate(0.254482,-0.254482)"/>
</svg>
