<?xml version="1.0" encoding="UTF-8" standalone="no"?>
<!DOCTYPE svg PUBLIC "-//W3C//DTD SVG 20010904//EN"
"http://www.w3.org/TR/2001/REC-SVG-20010904/DTD/svg10.dtd">
<!-- Created with Inkscape (http://www.inkscape.org/) --><svg height="60.0000000" id="svg1" inkscape:version="0.38.1" sodipodi:docbase="/home/danny/flat/scalable/apps" sodipodi:docname="laptop_pcmcia.svg" sodipodi:version="0.32" version="1.0" width="60.0000000" x="0" xmlns="http://www.w3.org/2000/svg" xmlns:inkscape="http://www.inkscape.org/namespaces/inkscape" xmlns:sodipodi="http://sodipodi.sourceforge.net/DTD/sodipodi-0.dtd" xmlns:xlink="http://www.w3.org/1999/xlink" xmlns:xml="http://www.w3.org/XML/1998/namespace" y="0">
  <metadata>
    <rdf:RDF xmlns:cc="http://web.resource.org/cc/" xmlns:dc="http://purl.org/dc/elements/1.1/" xmlns:rdf="http://www.w3.org/1999/02/22-rdf-syntax-ns#">
      <cc:Work rdf:about="">
        <dc:title>Part of the Flat Icon Collection (Wed Aug 25 23:23:49 2004)</dc:title>
        <dc:description></dc:description>
        <dc:subject>
          <rdf:Bag>
            <rdf:li>hash</rdf:li>
            <rdf:li></rdf:li>
            <rdf:li>application</rdf:li>
            <rdf:li>computer</rdf:li>
            <rdf:li>icons</rdf:li>
            <rdf:li>theme</rdf:li>
          </rdf:Bag>
        </dc:subject>
        <dc:publisher>
          <cc:Agent rdf:about="http://www.openclipart.org">
            <dc:title>Danny Allen</dc:title>
          </cc:Agent>
        </dc:publisher>
        <dc:creator>
          <cc:Agent>
            <dc:title>Danny Allen</dc:title>
          </cc:Agent>
        </dc:creator>
        <dc:rights>
          <cc:Agent>
            <dc:title>Danny Allen</dc:title>
          </cc:Agent>
        </dc:rights>
        <dc:date></dc:date>
        <dc:format>image/svg+xml</dc:format>
        <dc:type rdf:resource="http://purl.org/dc/dcmitype/StillImage"/>
        <cc:license rdf:resource="http://web.resource.org/cc/PublicDomain"/>
        <dc:language>en</dc:language>
      </cc:Work>
      <cc:License rdf:about="http://web.resource.org/cc/PublicDomain">
        <cc:permits rdf:resource="http://web.resource.org/cc/Reproduction"/>
        <cc:permits rdf:resource="http://web.resource.org/cc/Distribution"/>
        <cc:permits rdf:resource="http://web.resource.org/cc/DerivativeWorks"/>
      </cc:License>
    </rdf:RDF>
  </metadata>
  <sodipodi:namedview bordercolor="#666666" borderopacity="1.0" id="base" inkscape:cx="36.611934" inkscape:cy="22.078198" inkscape:pageopacity="0.0" inkscape:pageshadow="2" inkscape:window-height="693" inkscape:window-width="1016" inkscape:window-x="0" inkscape:window-y="0" inkscape:zoom="4.9119411" pagecolor="#ffffff"/>
  <defs id="defs3"/>
  <rect height="25.702669" id="rect848" rx="2.1263351" sodipodi:fill-cmyk="(0.0000000 0.0000000 0.0000000 0.50000000)" sodipodi:stroke-cmyk="(0.0000000 0.0000000 0.0000000 0.80000001)" style="fill:#7f7f7f;fill-opacity:1.0000000;fill-rule:evenodd;stroke:#333333;stroke-width:2.9492382;stroke-dasharray:none;stroke-opacity:1.0000000;" transform="matrix(1.000000,0.000000,0.000000,1.122743,0.000000,6.679202)" width="53.950157" x="3.3082645" y="18.773935"/>
  <rect height="22.903370" id="rect849" rx="1.5446019" sodipodi:fill-cmyk="(0.0000000 0.0000000 0.0000000 0.30000001)" sodipodi:stroke-cmyk="(0.0000000 0.0000000 0.0000000 0.80000001)" style="fill:#b3b3b3;fill-opacity:1.0000000;fill-rule:evenodd;stroke:#333333;stroke-width:1.8750000;stroke-dasharray:none;stroke-opacity:1.0000000;" transform="matrix(1.000000,0.000000,0.000000,0.897400,-1.526892,15.29015)" width="39.190208" x="15.014431" y="18.519453"/>
  <path d="M 21.949360,13.115459 L 21.949360,-0.87672806 C 21.949360,-1.3923531 22.117329,-1.8220406 22.453266,-2.1657906 C 22.789204,-2.5095406 23.222797,-2.6814156 23.754047,-2.6814156 C 24.285297,-2.6814156 24.714985,-2.5212593 25.043110,-2.2009468 C 25.379047,-1.8806343 25.547016,-1.4392281 25.547016,-0.87672806 L 25.547016,4.3498344 L 31.453266,-2.0017281 C 31.867329,-2.4548531 32.332172,-2.6814156 32.847797,-2.6814156 C 33.324360,-2.6814156 33.738422,-2.5173531 34.089985,-2.1892281 C 34.449360,-1.8689156 34.629047,-1.4470406 34.629047,-0.92360306 C 34.629047,-0.62672806 34.535297,-0.33375931 34.347797,-0.044696808 C 34.160297,0.23655319 33.859516,0.58420944 33.445454,0.99827194 L 28.910297,5.5099907 L 34.453266,11.357647 C 34.773579,11.662334 35.019672,11.959209 35.191547,12.248272 C 35.371235,12.529522 35.461079,12.842022 35.461079,13.185772 C 35.461079,13.732647 35.281391,14.150616 34.922016,14.439678 C 34.562641,14.720928 34.117329,14.861553 33.586079,14.861553 C 33.273579,14.861553 32.988422,14.775616 32.730610,14.603741 C 32.480610,14.431866 32.160297,14.142803 31.769672,13.736553 L 25.547016,6.9396782 L 25.547016,13.115459 C 25.547016,13.607647 25.379047,14.021709 25.043110,14.357647 C 24.707172,14.693584 24.277485,14.861553 23.754047,14.861553 C 23.230610,14.861553 22.797016,14.701397 22.453266,14.381084 C 22.117329,14.060772 21.949360,13.638897 21.949360,13.115459 z " id="path833" style="font-size:24.000000;fill:#333333;stroke-width:1.0000000pt;font-family:VAG Rounded Black SSi;" transform="matrix(0.598234,0.000000,0.000000,0.598234,18.89278,35.55376)"/>
  <path d="M 26.117077,39.640408 L 30.701589,44.443219 L 38.124089,39.422075 L 44.018453,42.041834 L 45.983235,50.646342 L 52.314194,50.588194 L 54.060682,41.759531 L 59.955037,39.422075 L 67.377543,44.224926 L 70.870502,39.422075 L 62.446862,31.472530 C 40.856278,51.275429 22.198687,20.754309 40.743814,7.9855273 L 40.743790,3.4010151 L 38.560713,4.4925604 L 31.793116,0.19028993 L 27.118177,4.0294227 L 31.356500,11.260143 L 28.955101,17.154498 L 20.684854,18.528319 L 20.659333,24.795335 L 29.173421,26.978432 L 31.520243,32.709086 L 26.117077,39.640408 z " id="path705" sodipodi:nodetypes="ccccccccccccccccccccccc" sodipodi:stroke-cmyk="(0 0 0 0.8)" style="font-size:12.000000;fill:#333333;fill-rule:evenodd;stroke:#333333;stroke-width:0.37499878;stroke-linecap:round;stroke-linejoin:round;" transform="matrix(0.300805,0.000000,0.000000,0.300805,18.89278,35.55376)"/>
  <path d="M 26.368538,3.6660700 L 17.212288,12.947320 L 26.149788,23.259820 L 26.368538,3.6660700 z " id="path877" sodipodi:nodetypes="cccc" style="fill:#b3b3b3;fill-rule:evenodd;stroke:#333333;stroke-opacity:1;stroke-width:2.6308190;stroke-linejoin:round;stroke-linecap:round;fill-opacity:1;stroke-dasharray:none;" transform="matrix(1.410971,0.000000,0.000000,1.000000,-19.66467,0.000000)"/>
  <path d="M 23.765399,3.6660700 L 14.609149,12.947320 L 23.546649,23.259820 L 23.765399,3.6660700 z " id="path869" sodipodi:nodetypes="cccc" style="fill:#b3b3b3;fill-rule:evenodd;stroke:#333333;stroke-opacity:1;stroke-width:2.6308190;stroke-linejoin:round;stroke-linecap:round;fill-opacity:1;stroke-dasharray:none;" transform="matrix(1.410971,0.000000,0.000000,1.000000,-0.993205,0.000000)"/>
</svg>
