<?xml version="1.0" encoding="UTF-8" standalone="no"?>
<!-- Created with Inkscape (http://www.inkscape.org/) --><svg height="1052.3622" id="svg1403" inkscape:version="0.41+cvs" sodipodi:docbase="/mnt/remedia/art" sodipodi:docname="bulletholes1.svg" sodipodi:version="0.32" version="1.0" width="744.09448" x="0.0000000" xmlns="http://www.w3.org/2000/svg" xmlns:cc="http://web.resource.org/cc/" xmlns:dc="http://purl.org/dc/elements/1.1/" xmlns:inkscape="http://www.inkscape.org/namespaces/inkscape" xmlns:rdf="http://www.w3.org/1999/02/22-rdf-syntax-ns#" xmlns:sodipodi="http://inkscape.sourceforge.net/DTD/sodipodi-0.dtd" xmlns:svg="http://www.w3.org/2000/svg" y="0.0000000">
  <metadata>
    <rdf:RDF xmlns:cc="http://web.resource.org/cc/" xmlns:dc="http://purl.org/dc/elements/1.1/" xmlns:rdf="http://www.w3.org/1999/02/22-rdf-syntax-ns#">
      <cc:Work rdf:about="">
        <dc:title>Bullet Hole</dc:title>
        <dc:description>This is a vectorized bullet hole.</dc:description>
        <dc:subject>
          <rdf:Bag>
            <rdf:li>symbol</rdf:li>
            <rdf:li>bullet</rdf:li>
            <rdf:li>explode</rdf:li>
            <rdf:li>gun</rdf:li>
            <rdf:li>hole</rdf:li>
            <rdf:li>weapon</rdf:li>
            <rdf:li>city</rdf:li>
            <rdf:li>bullethole</rdf:li>
            <rdf:li>destroy</rdf:li>
            <rdf:li>gunshot</rdf:li>
            <rdf:li>shot</rdf:li>
          </rdf:Bag>
        </dc:subject>
        <dc:publisher>
          <cc:Agent rdf:about="http://www.openclipart.org/">
            <dc:title>Open Clip Art Library</dc:title>
          </cc:Agent>
        </dc:publisher>
        <dc:creator>
          <cc:Agent>
            <dc:title>Linda Kim</dc:title>
          </cc:Agent>
        </dc:creator>
        <dc:rights>
          <cc:Agent>
            <dc:title>Linda Kim</dc:title>
          </cc:Agent>
        </dc:rights>
        <dc:date>2005-06-21</dc:date>
        <dc:format>image/svg+xml</dc:format>
        <dc:type rdf:resource="http://purl.org/dc/dcmitype/StillImage"/>
        <cc:license rdf:resource="http://web.resource.org/cc/PublicDomain"/>
        <dc:language>EN</dc:language>
      </cc:Work>
      <cc:License rdf:about="http://web.resource.org/cc/PublicDomain">
        <cc:permits rdf:resource="http://web.resource.org/cc/Reproduction"/>
        <cc:permits rdf:resource="http://web.resource.org/cc/Distribution"/>
        <cc:permits rdf:resource="http://web.resource.org/cc/DerivativeWorks"/>
      </cc:License>
    </rdf:RDF>
  </metadata>
  <sodipodi:namedview bordercolor="#666666" borderopacity="1.0" id="base" inkscape:current-layer="svg1403" inkscape:cx="396.44983" inkscape:cy="562.78499" inkscape:pageopacity="0.0" inkscape:pageshadow="2" inkscape:window-height="510" inkscape:window-width="710" inkscape:window-x="155" inkscape:window-y="224" inkscape:zoom="0.32783390" pagecolor="#ffffff"/>
  <defs id="defs1406"/>
  <path d="M 48.257417,123.52939 C 48.257417,122.92228 49.193127,120.59141 50.336777,118.34968 C 51.798217,115.48502 52.195227,113.49096 51.672747,111.63951 C 50.816957,108.60699 50.816817,108.69957 51.681657,105.84335 C 52.224837,104.04945 51.844647,103.57349 49.448077,103.04711 C 46.633157,102.42886 46.571987,102.28074 47.036767,97.208999 C 47.299047,94.346929 47.916877,91.226969 48.409727,90.275759 C 49.692737,87.799529 48.396167,83.684049 46.103827,82.956489 C 44.237587,82.364169 44.269147,82.178639 46.800707,78.859589 C 51.330497,72.920729 51.695297,69.620099 48.659927,62.037869 C 47.202597,58.397539 46.292167,55.137159 46.636737,54.792579 C 47.406947,54.022369 56.906737,58.377769 58.411637,60.191059 C 59.894577,61.977899 64.185997,61.854919 64.895787,60.005239 C 65.242887,59.100729 66.752417,58.505239 68.698187,58.505239 C 71.483637,58.505239 72.443087,57.752969 75.712977,53.005239 C 77.796377,49.980239 79.921107,47.505239 80.434617,47.505239 C 80.948117,47.505239 82.303317,49.755239 83.446157,52.505239 C 85.731857,58.005239 85.655527,57.959619 90.024857,56.436469 C 92.434987,55.596289 93.736447,55.701599 96.109607,56.928799 C 98.883807,58.363399 99.614437,58.338659 105.12504,56.623569 C 108.42315,55.597089 112.34586,53.794229 113.84218,52.617229 C 118.23282,49.163549 117.82753,50.939909 112.56724,58.205199 C 109.85935,61.945219 107.31810,65.547039 106.92002,66.209249 C 105.61378,68.382159 107.43608,72.546269 110.35344,74.054889 C 113.03679,75.442509 113.17632,75.817789 112.59251,80.077139 C 112.01005,84.326629 112.18875,84.813029 115.36366,87.619749 C 117.23023,89.269849 118.30742,90.820919 117.75742,91.066559 C 117.20742,91.312199 115.30203,92.400449 113.52322,93.484899 C 110.49406,95.331619 110.32559,95.727619 110.86582,99.730929 C 111.40108,103.69747 111.22432,104.13273 108.41087,105.77583 C 103.87639,108.42404 103.65135,110.70249 107.29523,117.07132 C 109.04250,120.12524 110.20870,122.88729 109.88679,123.20921 C 109.56487,123.53112 105.99254,122.35178 101.94827,120.58845 C 96.746747,118.32055 93.821447,117.57656 91.951327,118.04593 C 89.741067,118.60067 89.108207,118.27187 88.091597,116.04064 C 87.126497,113.92248 86.450747,113.52732 84.816507,114.12545 C 83.684007,114.53995 80.066437,114.80991 76.777467,114.72538 C 71.553067,114.59110 70.446687,114.90779 68.020867,117.23186 C 66.003827,119.16432 64.943727,119.59155 64.145757,118.79358 C 62.954457,117.60228 58.973767,118.85415 52.007417,122.61093 C 49.826987,123.78678 48.257417,124.17120 48.257417,123.52939 z " id="path3412" style="fill:#d0d0d0;fill-opacity:1.0000000"/>
  <path d="M 48.257417,123.14771 C 48.257417,122.83338 49.327317,120.64774 50.634977,118.29072 C 52.447687,115.02335 52.799477,113.43766 52.115747,111.61617 C 51.622527,110.30217 51.502707,107.71467 51.849487,105.86617 C 52.447917,102.67627 52.331717,102.50524 49.566017,102.50524 L 46.652027,102.50524 L 47.526287,96.755239 C 48.932247,87.508209 48.784147,84.610879 46.832547,83.183839 C 45.157337,81.958889 45.196677,81.683559 47.540457,78.229809 C 51.462777,72.449949 51.737707,68.586089 48.734377,61.450489 C 47.307927,58.061399 46.322887,55.106439 46.545407,54.883919 C 47.257237,54.172079 58.257417,59.439909 58.257417,60.492629 C 58.257417,62.042189 63.853907,61.696359 65.209447,60.063039 C 65.867747,59.269839 67.794787,58.482339 69.491757,58.313039 C 71.914327,58.071359 73.312857,56.931109 76.001847,53.005239 C 77.885427,50.255239 79.775917,47.876099 80.202927,47.718259 C 80.629937,47.560419 81.954397,49.697919 83.146157,52.468259 C 85.529257,58.007909 85.360637,57.909619 90.132797,56.540979 C 92.682507,55.809729 94.206767,55.944809 96.440587,57.099959 C 99.101547,58.475999 99.887327,58.460639 104.57181,56.941109 C 107.42390,56.015969 111.16054,54.414429 112.87545,53.382129 C 114.59037,52.349839 116.25555,51.505239 116.57585,51.505239 C 116.89615,51.505239 114.70553,54.765539 111.70781,58.750359 C 108.71010,62.735169 106.25742,67.030629 106.25742,68.295809 C 106.25742,70.534199 110.26198,75.505239 112.06517,75.505239 C 112.55944,75.505239 112.75264,77.703139 112.49452,80.389459 C 112.05754,84.937229 112.23987,85.432389 115.14132,87.577519 C 116.85517,88.844629 118.25742,90.178469 118.25742,90.541609 C 118.25742,90.904749 116.45742,91.908919 114.25742,92.773109 C 110.32692,94.317049 110.25742,94.432009 110.25742,99.389609 C 110.25742,103.60399 109.88688,104.63001 108.00742,105.61976 C 103.32375,108.08626 103.16714,110.56811 107.25742,117.50524 C 108.90742,120.30365 110.25742,122.82877 110.25742,123.11663 C 110.25742,123.93361 106.27560,122.51376 100.21180,119.53452 C 96.273067,117.59937 94.041127,117.04111 92.509007,117.60787 C 90.814877,118.23457 89.945097,117.84750 88.456967,115.80462 C 86.733287,113.43839 86.276337,113.30299 83.399257,114.30595 C 81.659687,114.91236 78.020477,115.14608 75.312117,114.82531 C 70.793727,114.29018 70.185827,114.47695 67.937157,117.09117 C 66.000607,119.34255 65.194517,119.69793 64.094737,118.78519 C 62.782497,117.69613 60.292747,118.44476 49.507417,123.17141 C 48.819917,123.47270 48.257417,123.46204 48.257417,123.14771 z " id="path3428" style="fill:#b9b9b9;fill-opacity:1.0000000"/>
  <path d="M 79.444917,96.822129 C 78.723047,96.533249 77.860547,96.568779 77.528247,96.901069 C 77.195957,97.233359 77.786587,97.469709 78.840747,97.426289 C 80.005697,97.378309 80.242647,97.141349 79.444917,96.822129 z " id="path3426" style="fill:#b9b9b9;fill-opacity:1.0000000"/>
  <path d="M 82.988387,94.812249 C 82.015417,94.558709 80.665417,94.575379 79.988387,94.849299 C 79.311357,95.123229 80.107417,95.330669 81.757417,95.310289 C 83.407417,95.289909 83.961357,95.065789 82.988387,94.812249 z " id="path3424" style="fill:#b9b9b9;fill-opacity:1.0000000"/>
  <path d="M 50.712097,118.59467 C 52.769827,114.53394 53.087127,113.05557 52.240497,111.47363 C 51.650927,110.37200 51.465157,107.91481 51.826027,105.99123 C 52.437287,102.73293 52.309437,102.50524 49.868707,102.50524 C 47.470227,102.50524 47.257417,102.16467 47.257417,98.326239 C 47.257417,96.027789 47.773247,92.720719 48.403717,90.977199 C 49.760457,87.225199 48.832647,82.505239 46.738367,82.505239 C 44.722257,82.505239 44.858837,81.894369 47.710977,78.155009 C 51.573377,73.091139 51.910457,68.038899 48.847937,61.113999 C 47.423147,57.892309 46.257417,55.103359 46.257417,54.916349 C 46.257417,54.178749 55.614297,58.640799 57.995757,60.514059 C 61.205517,63.038849 63.466857,63.036279 65.757417,60.505239 C 66.752907,59.405239 68.735147,58.502919 70.162407,58.500079 C 72.213157,58.495999 73.491477,57.343559 76.257417,53.005239 C 78.182417,49.985919 79.982417,47.520919 80.257417,47.527469 C 80.532417,47.534019 81.800577,49.950169 83.075547,52.896689 L 85.393677,58.253999 L 89.517597,57.036359 C 92.977987,56.014619 94.073137,56.066419 96.324057,57.358269 C 98.770667,58.762429 99.554817,58.731849 105.24000,57.010509 C 108.66837,55.972489 112.62240,54.219389 114.02673,53.114739 C 117.02969,50.752609 116.58054,51.596849 109.96654,60.746329 C 105.21510,67.319229 105.18759,67.402359 106.62525,70.843159 C 107.42253,72.751299 109.03790,74.618179 110.21497,74.991769 C 112.11880,75.596019 112.28242,76.155709 111.69684,80.060619 C 111.08916,84.112969 111.27748,84.651239 114.14800,87.066619 C 115.85818,88.505649 117.25742,90.009679 117.25742,90.408919 C 117.25742,90.808159 115.68242,91.885879 113.75742,92.803849 C 110.48220,94.365689 110.25701,94.778979 110.25110,99.239059 C 110.24547,103.48356 109.91710,104.19169 107.25110,105.70873 C 103.31784,107.94687 103.33560,111.28590 107.31518,117.75354 C 108.99696,120.48677 110.16802,122.92797 109.91755,123.17844 C 109.66709,123.42891 106.24716,122.04494 102.31771,120.10295 C 97.064447,117.50673 94.398887,116.72695 92.247887,117.15715 C 89.792407,117.64824 89.134177,117.32886 88.149987,115.16880 C 87.016767,112.68165 86.863647,112.64293 83.582997,114.01367 C 81.069067,115.06406 78.965317,115.20072 75.472977,114.54050 C 71.214697,113.73548 70.513067,113.88124 68.237587,116.04371 C 66.605157,117.59506 64.997047,118.24991 63.671237,117.90320 C 62.001517,117.46656 57.056657,119.28162 48.936337,123.31179 C 48.484737,123.53591 49.283837,121.41321 50.712097,118.59467 z " id="path3468" style="fill:#a3a3a3;fill-opacity:1.0000000"/>
  <path d="M 67.257417,113.94622 C 67.257417,113.70368 66.807417,113.50524 66.257417,113.50524 C 65.707417,113.50524 65.257417,113.98180 65.257417,114.56426 C 65.257417,115.14672 65.707417,115.34516 66.257417,115.00524 C 66.807417,114.66532 67.257417,114.18876 67.257417,113.94622 z " id="path3466" style="fill:#a3a3a3;fill-opacity:1.0000000"/>
  <path d="M 91.257417,114.12768 C 91.257417,113.92003 90.469917,113.13253 89.507417,112.37768 C 87.921357,111.13381 87.885987,111.16918 89.129857,112.75524 C 90.436227,114.42099 91.257417,114.95072 91.257417,114.12768 z " id="path3464" style="fill:#a3a3a3;fill-opacity:1.0000000"/>
  <path d="M 75.444917,111.82213 C 74.723047,111.53325 73.860547,111.56878 73.528247,111.90107 C 73.195957,112.23336 73.786587,112.46971 74.840747,112.42629 C 76.005697,112.37831 76.242647,112.14135 75.444917,111.82213 z " id="path3462" style="fill:#a3a3a3;fill-opacity:1.0000000"/>
  <path d="M 106.25742,101.50524 C 107.08242,100.97208 107.30742,100.53587 106.75742,100.53587 C 106.20742,100.53587 105.08242,100.97208 104.25742,101.50524 C 103.43242,102.03840 103.20742,102.47461 103.75742,102.47461 C 104.30742,102.47461 105.43242,102.03840 106.25742,101.50524 z " id="path3460" style="fill:#a3a3a3;fill-opacity:1.0000000"/>
  <path d="M 76.444917,99.822129 C 75.723047,99.533249 74.860547,99.568779 74.528247,99.901069 C 74.195957,100.23336 74.786587,100.46971 75.840747,100.42629 C 77.005697,100.37831 77.242647,100.14135 76.444917,99.822129 z " id="path3458" style="fill:#a3a3a3;fill-opacity:1.0000000"/>
  <path d="M 84.385597,98.297839 C 84.742117,97.720979 85.486967,97.529079 86.040827,97.871379 C 87.091907,98.520989 88.257417,96.409689 88.257417,93.856059 C 88.257417,92.769369 87.653257,92.563259 86.007417,93.088459 C 83.718277,93.818949 80.126387,93.811049 72.507417,93.058749 C 68.400147,92.653199 66.675267,93.960879 69.757417,95.143609 C 70.582417,95.460199 71.257417,96.346069 71.257417,97.112229 C 71.257417,97.987139 72.351247,98.505239 74.198397,98.505239 C 75.815937,98.505239 77.440037,98.991699 77.807497,99.586269 C 78.577887,100.83279 83.403007,99.887709 84.385597,98.297839 z " id="path3456" style="fill:#c1c1c1;fill-opacity:1.0000000"/>
  <path d="M 51.381507,79.238569 C 50.393887,78.258309 50.279027,78.373169 50.821707,79.798369 C 51.197237,80.784589 51.756407,81.339589 52.064287,81.031699 C 52.372177,80.723809 52.064927,79.916909 51.381507,79.238569 z " id="path3454" style="fill:#a3a3a3;fill-opacity:1.0000000"/>
  <path d="M 105.06429,62.978779 C 104.75640,62.670889 104.19724,63.225889 103.82171,64.212109 C 103.27903,65.637309 103.39389,65.752169 104.38151,64.771909 C 105.06493,64.093569 105.37218,63.286669 105.06429,62.978779 z " id="path3452" style="fill:#a3a3a3;fill-opacity:1.0000000"/>
  <path d="M 77.257417,57.446219 C 77.257417,56.863759 76.807417,56.665319 76.257417,57.005239 C 75.707417,57.345159 75.257417,57.821719 75.257417,58.064259 C 75.257417,58.306799 75.707417,58.505239 76.257417,58.505239 C 76.807417,58.505239 77.257417,58.028679 77.257417,57.446219 z " id="path3450" style="fill:#a3a3a3;fill-opacity:1.0000000"/>
  <path d="M 104.75742,120.98338 C 99.664297,118.58411 99.048207,117.71480 103.69232,119.48049 C 106.69773,120.62314 106.75687,120.43041 104.69723,116.20558 L 103.13703,113.00524 L 105.09028,115.43918 C 107.10634,117.95140 110.60658,123.56934 110.06396,123.42201 C 109.89536,123.37623 107.50742,122.27885 104.75742,120.98338 z " id="path3660" style="fill:#8c8c8c;fill-opacity:1.0000000"/>
  <path d="M 51.371747,118.28114 C 53.160777,114.77434 53.341467,113.56627 52.435817,111.16691 C 51.627317,109.02497 51.657187,107.51162 52.551167,105.32117 C 53.650137,102.62841 53.757417,103.02490 53.757417,109.77936 C 53.757417,114.89396 53.292227,117.75752 52.257417,119.01292 C 50.849337,120.72116 50.900547,120.75640 53.093067,119.58794 C 54.377667,118.90333 55.656987,118.57148 55.935997,118.85048 C 56.407857,119.32234 51.052537,122.50524 49.786757,122.50524 C 49.473267,122.50524 50.186507,120.60440 51.371747,118.28114 z " id="path3658" style="fill:#8c8c8c;fill-opacity:1.0000000"/>
  <path d="M 65.762967,116.49911 C 66.761507,115.39574 67.795377,114.70986 68.060457,114.97494 C 68.732387,115.64688 66.238237,118.50524 64.979987,118.50524 C 64.412087,118.50524 64.764427,117.60248 65.762967,116.49911 z " id="path3652" style="fill:#8c8c8c;fill-opacity:1.0000000"/>
  <path d="M 88.781297,115.70688 C 88.467267,114.88854 88.435337,113.99398 88.710337,113.71898 C 88.985337,113.44398 89.492847,113.95519 89.838137,114.85500 C 90.273047,115.98834 91.179767,116.31185 92.789237,115.90790 C 94.067057,115.58718 95.787777,115.70289 96.613067,116.16501 C 97.615457,116.72631 96.659337,117.03670 93.732927,117.10001 C 90.711457,117.16537 89.175107,116.73312 88.781297,115.70688 z " id="path3650" style="fill:#8c8c8c;fill-opacity:1.0000000"/>
  <path d="M 71.698547,113.04527 C 69.950587,111.73060 70.149627,111.69077 73.698657,112.64508 C 75.866337,113.22796 79.138927,113.46160 80.971067,113.16428 C 82.931617,112.84613 84.063007,113.01079 83.720807,113.56447 C 82.804117,115.04772 73.846607,114.66088 71.698547,113.04527 z " id="path3648" style="fill:#8c8c8c;fill-opacity:1.0000000"/>
  <path d="M 107.35026,103.89337 C 108.08601,103.00684 108.55664,100.75684 108.39609,98.893369 C 108.22950,96.959779 108.56638,95.505239 109.18080,95.505239 C 110.65101,95.505239 110.54854,102.81412 109.05742,104.30524 C 107.26034,106.10232 105.80783,105.75189 107.35026,103.89337 z " id="path3646" style="fill:#8c8c8c;fill-opacity:1.0000000"/>
  <path d="M 47.800907,97.523859 C 47.952407,94.711519 48.817407,91.419329 49.723117,90.207879 C 51.190807,88.244729 51.290887,88.222699 50.643537,90.005239 C 50.244067,91.105239 49.725137,94.030239 49.490367,96.505239 C 48.888517,102.85008 47.467827,103.70665 47.800907,97.523859 z " id="path3642" style="fill:#8c8c8c;fill-opacity:1.0000000"/>
  <path d="M 73.546377,91.629319 C 72.562447,90.597559 70.793317,89.457599 69.614967,89.096059 C 68.436617,88.734529 66.912937,87.087799 66.229017,85.436669 C 65.181537,82.907829 65.256207,81.834319 66.702727,78.626519 C 69.702827,71.973489 79.411817,69.502709 87.114157,73.432149 C 92.526837,76.193499 93.607347,77.859619 92.986637,82.487399 C 92.491877,86.176099 90.113907,90.028399 89.011927,88.926409 C 88.745947,88.660439 87.782007,89.581869 86.869827,90.974029 C 85.465917,93.116659 84.453267,93.505239 80.273317,93.505239 C 76.746627,93.505239 74.824037,92.969089 73.546377,91.629319 z " id="path3636" style="fill:#8c8c8c;fill-opacity:1.0000000"/>
  <path d="M 112.88359,87.859419 C 110.38175,85.539579 110.09027,84.680509 110.51788,80.886839 C 110.92480,77.276589 110.69340,76.460999 109.12052,75.961789 C 107.14582,75.335049 103.69597,69.733349 104.67917,68.750149 C 104.99225,68.437079 105.73004,69.562539 106.31870,71.251189 C 106.98524,73.163219 108.28919,74.547379 109.77526,74.920359 C 111.98581,75.475169 112.11943,75.874719 111.58985,80.346159 C 111.04794,84.921779 111.19359,85.311259 114.38780,87.828059 C 116.24109,89.288309 117.30282,90.488049 116.74720,90.494149 C 116.19158,90.500249 114.45295,89.314619 112.88359,87.859419 z " id="path3634" style="fill:#8c8c8c;fill-opacity:1.0000000"/>
  <path d="M 47.439327,79.293849 C 51.458947,73.725239 52.239667,68.788409 50.014867,63.007739 C 48.957007,60.259109 47.623717,57.446609 47.052007,56.757739 C 45.459647,54.839059 47.550077,55.187579 52.730667,57.704509 C 56.950267,59.754539 58.574757,61.505239 56.257417,61.505239 C 55.707417,61.505239 55.257417,61.153899 55.257417,60.724479 C 55.257417,60.295059 53.937777,59.445599 52.324877,58.836799 C 49.054647,57.602429 49.031377,57.194749 52.725497,65.855049 C 54.298857,69.543549 54.277107,69.878739 52.206437,73.855049 C 51.017757,76.137649 49.530457,79.014229 48.901307,80.247439 C 48.272167,81.480649 47.164277,82.493149 46.439327,82.497439 C 45.558247,82.502649 45.889807,81.440489 47.439327,79.293849 z " id="path3632" style="fill:#8c8c8c;fill-opacity:1.0000000"/>
  <path d="M 59.757417,63.505239 C 58.060537,62.776069 58.231427,62.635159 60.884977,62.575519 C 62.605127,62.536869 64.572727,61.830239 65.257417,61.005239 C 65.942107,60.180239 67.009707,59.512129 67.629857,59.520549 C 68.417347,59.531249 68.433817,59.757449 67.684477,60.270549 C 67.094357,60.674629 66.320977,61.792739 65.965857,62.755239 C 65.276017,64.624949 63.002307,64.899619 59.757417,63.505239 z " id="path3620" style="fill:#8c8c8c;fill-opacity:1.0000000"/>
  <path d="M 108.84156,60.224029 C 110.96112,56.729239 110.24604,55.953019 106.60035,57.791159 C 101.75441,60.234469 98.637787,60.562119 94.939837,59.017009 C 91.876227,57.736959 91.051977,57.730429 88.667767,58.967369 C 86.099067,60.300029 85.754997,60.218549 83.308807,57.698349 C 81.871087,56.217139 80.852057,54.488259 81.044277,53.856389 C 81.911057,51.007099 79.216967,51.874949 76.671537,55.264979 C 75.126917,57.322119 73.389357,59.335849 72.810277,59.739929 C 71.286527,60.803199 69.257417,60.669159 69.257417,59.505239 C 69.257417,58.955239 70.110507,58.505239 71.153167,58.505239 C 72.333607,58.505239 74.259567,56.618619 76.257417,53.505239 C 78.022087,50.755239 79.759127,48.505239 80.117517,48.505239 C 80.475897,48.505239 81.816767,50.788889 83.097217,53.580009 C 84.765247,57.215969 85.853137,58.490619 86.934267,58.075749 C 91.019817,56.507979 93.423477,56.441599 96.186987,57.820219 C 98.974547,59.210839 99.717587,59.151229 105.71376,57.056009 C 109.29063,55.806149 112.97490,54.158419 113.90101,53.394389 C 115.41677,52.143909 115.47565,52.204889 114.49083,54.005239 C 113.88911,55.105239 111.99235,57.580239 110.27579,59.505239 C 107.72792,62.362509 107.46454,62.494499 108.84156,60.224029 z " id="path3618" style="fill:#8c8c8c;fill-opacity:1.0000000"/>
  <path d="M 107.25742,121.50524 C 106.35613,120.92278 106.23279,120.52975 106.94840,120.52055 C 107.60344,120.51213 108.41750,120.95524 108.75742,121.50524 C 109.52472,122.74676 109.17854,122.74676 107.25742,121.50524 z " id="path3808" style="fill:#767676;fill-opacity:1.0000000"/>
  <path d="M 75.082427,92.467119 C 74.161177,91.929599 72.887407,89.914139 72.251827,87.988319 C 71.616257,86.062489 70.695697,84.734369 70.206147,85.036929 C 69.095227,85.723509 67.829337,81.006899 68.732377,79.545759 C 69.097157,78.955529 69.872897,78.767589 70.456247,79.128119 C 71.066777,79.505449 71.317697,79.194089 71.047517,78.394439 C 70.191567,75.861069 76.709657,73.717339 82.490087,74.631099 C 88.322337,75.553059 88.850747,75.932559 89.832497,79.904389 C 90.320437,81.878419 90.204637,82.590659 89.469627,82.136399 C 88.789187,81.715859 88.419697,82.508129 88.470067,84.279659 C 88.553777,87.223739 86.733177,91.487649 84.857717,92.739929 C 83.281337,93.792499 77.056227,93.618769 75.082427,92.467119 z " id="path3800" style="fill:#767676;fill-opacity:1.0000000"/>
  <path d="M 51.272727,71.814259 C 51.281147,71.369299 51.724257,70.330239 52.257417,69.505239 C 53.092817,68.212549 53.228907,68.238949 53.242107,69.696219 C 53.250527,70.626259 52.807417,71.665319 52.257417,72.005239 C 51.707417,72.345159 51.264307,72.259219 51.272727,71.814259 z " id="path3796" style="fill:#767676;fill-opacity:1.0000000"/>
  <path d="M 95.257417,58.505239 C 94.356127,57.922779 94.232787,57.529749 94.948397,57.520549 C 95.603437,57.512129 96.417497,57.955239 96.757417,58.505239 C 97.524717,59.746759 97.178537,59.746759 95.257417,58.505239 z " id="path3794" style="fill:#767676;fill-opacity:1.0000000"/>
  <path d="M 111.25742,56.127689 C 111.25742,55.920029 112.04492,55.132529 113.00742,54.377679 C 114.59348,53.133809 114.62885,53.169179 113.38498,54.755239 C 112.07861,56.420989 111.25742,56.950719 111.25742,56.127689 z " id="path3792" style="fill:#767676;fill-opacity:1.0000000"/>
  <path d="M 78.475397,50.527809 C 79.733877,48.512659 81.257417,47.820929 81.257417,49.264689 C 81.257417,49.682389 80.347257,50.592549 79.234847,51.287259 C 77.358857,52.458839 77.303817,52.403799 78.475397,50.527809 z " id="path3790" style="fill:#767676;fill-opacity:1.0000000"/>
  <path d="M 75.371217,91.755239 C 74.211937,90.792739 72.998597,88.631539 72.674897,86.952559 C 72.200187,84.490329 72.654197,83.291989 75.022197,80.757039 C 78.398237,77.142979 80.083507,77.251419 85.154837,81.409049 C 87.995487,83.737899 88.441987,84.633699 87.879407,86.875229 C 86.361837,92.921689 79.840537,95.465939 75.371217,91.755239 z " id="path3870" style="fill:#606060;fill-opacity:1.0000000"/>
  <path d="M 77.649107,92.818069 C 74.049017,92.109769 72.034197,86.457069 74.070527,82.778159 C 76.252007,78.837029 78.903877,78.123619 82.685217,80.460609 C 88.038567,83.769169 88.623767,84.896119 86.809897,88.403759 C 85.314437,91.295659 82.339687,93.663969 80.573157,93.369059 C 80.124497,93.294159 78.808677,93.046219 77.649107,92.818069 z " id="path3408" style="fill:#494949;fill-opacity:1.0000000"/>
  <path d="M 82.945587,90.556469 C 83.863307,89.484639 85.010837,88.852839 85.495637,89.152469 C 85.980437,89.452089 85.562667,90.314729 84.567257,91.069439 C 81.914137,93.080999 81.024867,92.799699 82.945587,90.556469 z " id="path3902" style="fill:#333333;fill-opacity:1.0000000"/>
  <path d="M 85.257417,86.505239 C 85.257417,85.955239 85.707417,85.505239 86.257417,85.505239 C 86.807417,85.505239 87.257417,85.955239 87.257417,86.505239 C 87.257417,87.055239 86.807417,87.505239 86.257417,87.505239 C 85.707417,87.505239 85.257417,87.055239 85.257417,86.505239 z " id="path3900" style="fill:#333333;fill-opacity:1.0000000"/>
  <path d="M 79.757417,84.505239 C 78.438677,83.938559 78.268357,83.627079 79.257417,83.590839 C 80.082417,83.560599 81.432417,83.972079 82.257417,84.505239 C 84.085387,85.686559 82.506507,85.686559 79.757417,84.505239 z " id="path3898" style="fill:#333333;fill-opacity:1.0000000"/>
  <path d="M 75.757417,81.505239 C 76.097337,80.955239 76.825447,80.505239 77.375447,80.505239 C 77.925447,80.505239 78.097337,80.955239 77.757417,81.505239 C 77.417497,82.055239 76.689387,82.505239 76.139387,82.505239 C 75.589387,82.505239 75.417497,82.055239 75.757417,81.505239 z " id="path3896" style="fill:#333333;fill-opacity:1.0000000"/>
  <path d="M 81.007417,81.815909 C 80.044917,81.564389 79.257417,80.925749 79.257417,80.396729 C 79.257417,79.817089 80.052157,79.860209 81.257417,80.505239 C 82.357417,81.093939 83.257417,81.784769 83.257417,82.040419 C 83.257417,82.296069 83.144917,82.453039 83.007417,82.389239 C 82.869917,82.325439 81.969917,82.067439 81.007417,81.815909 z " id="path3894" style="fill:#333333;fill-opacity:1.0000000"/>
</svg>
