<?xml version="1.0" standalone="no"?>
<!DOCTYPE svg PUBLIC "-//W3C//DTD SVG 1.0//EN"
"http://www.w3.org/TR/2001/REC-SVG-20010904/DTD/svg10.dtd">
<svg fill="none" fill-rule="evenodd" height="199.258" stroke-linecap="round" stroke-linejoin="round" stroke-width="2.78533" version="1.0" viewBox="0 0 2089 555" width="750" xmlns="http://www.w3.org/2000/svg">
  <metadata>
    <rdf:RDF xmlns:cc="http://web.resource.org/cc/" xmlns:dc="http://purl.org/dc/elements/1.1/" xmlns:rdf="http://www.w3.org/1999/02/22-rdf-syntax-ns#">
      <cc:Work rdf:about="">
        <dc:title>M16</dc:title>
        <dc:description></dc:description>
        <dc:subject>
          <rdf:Bag>
            <rdf:li>weapon</rdf:li>
            <rdf:li>gun</rdf:li>
          </rdf:Bag>
        </dc:subject>
        <dc:publisher>
          <cc:Agent rdf:about="http://www.openclipart.org">
            <dc:title>U.S. Army (public domain clipart)</dc:title>
          </cc:Agent>
        </dc:publisher>
        <dc:creator>
          <cc:Agent>
            <dc:title>U.S. Army (public domain clipart)</dc:title>
          </cc:Agent>
        </dc:creator>
        <dc:rights>
          <cc:Agent>
            <dc:title>U.S. Army (public domain clipart)</dc:title>
          </cc:Agent>
        </dc:rights>
        <dc:date></dc:date>
        <dc:format>image/svg+xml</dc:format>
        <dc:type rdf:resource="http://purl.org/dc/dcmitype/StillImage"/>
        <cc:license rdf:resource="http://web.resource.org/cc/PublicDomain"/>
        <dc:language>en</dc:language>
      </cc:Work>
      <cc:License rdf:about="http://web.resource.org/cc/PublicDomain">
        <cc:permits rdf:resource="http://web.resource.org/cc/Reproduction"/>
        <cc:permits rdf:resource="http://web.resource.org/cc/Distribution"/>
        <cc:permits rdf:resource="http://web.resource.org/cc/DerivativeWorks"/>
      </cc:License>
    </rdf:RDF>
  </metadata>
  <path d="M968 115l 8 0 0-13 32 10 0 3 9 0 0 94-9 0 0 3-32 10 0-12-9 1 1-96z" fill="#666"/>
  <path d="M968 115l 8 0 0-13 32 10 0 3 9 0 0 94-9 0 0 3-32 10 0-12-9 1 1-96" stroke="#000"/>
  <path d="M1008 115l 0 94 9 0 0-37-9 0 0-57z" fill="#0d0d0d"/>
  <path d="M1008 115l 0 94 9 0 0-37-9 0" stroke="#000"/>
  <path d="M976 115l 0 95-9 1 0-38 8 0 1-58z" fill="#0d0d0d"/>
  <path d="M976 115l 0 95-9 1 0-38 8 0" stroke="#000"/>
  <path d="M976 170l 32 0 0 42-32 10 0-52z" fill="#0d0d0d"/>
  <path d="M528 115l-500 0-1-1-4-1-4 0-5 1-2 2-3 2-2 2-2 4-2 5-1 6-1 7-1 8 1 21 0 26 1 29 1 30 1 28 1 25 1 18 1 10 1 6 1 7 3 6 5 5 3 2 3 2 5 2 5 1 5 0 7-1 8-1 8-2 28-8 45-15 56-18 59-21 57-19 49-17 33-12 13-4 2-1 7-1 11-3 12-3 14-3 14-2 13-2 10-2 9-1 9-1 8-1 7-2 5-1 4-1 3-1 1 0-2-110z" fill="#0d0d0d"/>
  <path d="M28 116l 494 0 1 5 0 12 0 17 1 20 0 19 0 17 0 13 0 4-1 0-3 1-4 1-5 1-7 2-8 1-8 1-9 1-10 2-13 2-13 2-14 3-12 3-10 2-7 2-3 0-13 5-35 11-48 17-56 19-59 19-54 18-44 14-28 9-8 2-8 1-6 0-6 0-5-1-4-2-3-2-3-2-5-5-2-6-2-6-1-6-1-10-1-17-1-24-1-27-1-29 0-28-1-26 0-20 0-8 1-7 2-6 1-4 2-4 3-3 2-2 2-1 5-1 5 0 3 1 1 0z" fill="#141414"/>
  <path d="M28 118l 488 0 1 5 0 11 1 17 0 19 0 19 0 16 0 12 0 4-1 1-2 0-5 1-5 2-6 1-8 1-8 1-9 1-10 1-12 2-13 3-14 3-12 2-9 3-7 1-3 1-15 4-35 12-48 15-56 19-58 19-53 17-43 14-27 8-8 1-7 2-6 0-6 0-5-1-4-2-3-2-3-2-4-5-3-6-2-5-1-6 0-9-1-17-1-23-1-26-1-28-1-27 0-25 0-20 0-8 1-7 1-5 2-5 2-3 2-3 2-2 3-1 5-1 4 0 3 1 1 0z" fill="#1c1c1c"/>
  <path d="M28 120l 482 0 1 5 1 11 0 16 1 18 0 18 0 16-1 12 0 4-1 0-2 1-4 1-6 1-6 1-7 1-8 1-9 1-10 1-12 2-13 3-12 3-12 2-10 2-7 2-3 1-16 4-35 11-48 15-55 18-57 18-53 17-42 13-26 8-8 2-7 1-6 0-5 0-5-1-4-2-3-1-3-3-4-5-3-5-1-6-1-5-1-9-1-17-1-21-1-26 0-26-1-27-1-24 0-19 1-8 0-6 2-6 1-4 2-4 2-2 3-2 2-1 5-1 4 0 3 1 1 0z" fill="#242424"/>
  <path d="M28 122l 476 0 1 4 1 11 1 15 0 18 0 18 0 15-1 11 0 4-1 0-2 1-4 1-5 1-7 1-7 1-8 1-8 1-10 1-11 2-13 3-12 2-12 3-9 2-7 1-4 1-17 5-35 10-48 15-55 17-56 18-52 16-41 13-25 7-8 2-6 1-6 0-5 0-5-1-4-2-3-1-3-2-4-5-2-6-2-5-1-5 0-9-1-16-1-21-1-24-1-26-1-25 0-23 0-19 0-8 1-6 1-5 2-5 2-3 2-2 2-2 3-2 4-1 4 1 3 0 1 1z" fill="#2b2b2b"/>
  <path d="M28 124l 470 0 2 4 1 10 0 15 1 17-1 17 0 15 0 10-1 4-1 0-2 1-4 1-5 1-6 1-7 1-8 2-8 0-10 2-11 1-12 3-12 2-11 2-10 2-7 2-3 1-18 4-36 10-48 15-54 17-56 17-50 15-41 12-24 7-8 2-6 1-6 0-5-1-4 0-4-2-3-1-3-2-4-5-2-5-2-6 0-4-1-9-1-15-1-20-1-23 0-25-1-24 0-23-1-18 1-7 1-7 1-5 1-4 2-3 2-3 3-1 2-2 4-1 4 0 3 1 1 1z" fill="#333"/>
  <path d="M29 126l 463 0 2 3 1 11 1 14 0 16 0 16-1 15 0 10-1 3-1 1-2 0-4 1-5 1-6 1-7 1-7 2-8 0-10 1-11 2-11 2-12 3-11 2-9 2-7 2-4 0-19 5-36 10-48 14-54 16-54 16-50 15-40 12-24 7-6 1-7 1-5 0-5-1-4 0-4-2-3-1-2-2-4-5-3-5-1-5-1-4-1-8-1-15 0-19-1-22-1-24 0-24-1-21 0-18 0-7 1-6 1-5 2-4 2-3 2-3 2-2 2-1 5-1 4 1 3 0 1 1z" fill="#3b3b3b"/>
  <path d="M29 127l 457 1 2 1 1 2 0 5 1 5 0 14 1 15-1 16 0 13-1 10-1 4-1 0-2 0-4 1-5 1-6 1-6 1-7 1-8 1-9 1-11 2-11 2-12 2-11 3-9 2-7 1-3 1-21 4-36 10-48 13-53 16-54 16-49 14-38 11-23 7-7 1-6 1-5 0-5-1-4-1-4-1-3-1-2-2-4-5-3-5-1-5-1-4 0-7-1-14-1-18-1-22 0-22-1-23 0-21 0-17 0-7 1-6 1-5 1-4 2-3 2-2 3-2 2-1 4-1 4 0 3 1 1 0z" fill="#424242"/>
  <path d="M29 129l 452 1 1 0 1 3 1 4 0 5 1 13 0 15 0 15-1 13-1 9-1 4-1 0-2 1-4 0-4 1-6 1-7 2-7 1-7 0-9 1-11 2-11 2-11 2-10 2-9 2-7 2-4 0-21 5-37 9-48 13-53 15-52 15-48 14-38 11-23 6-6 1-6 1-5 0-4-1-8-2-5-3-4-5-2-4-2-5-1-4 0-7-1-13-1-18 0-20-1-22 0-21-1-20 0-17 1-7 0-5 1-5 2-4 2-3 2-2 2-2 2-1 4-1 4 0 3 1 1 0z" fill="#4a4a4a"/>
  <path d="M29 131l 446 0 1 1 1 3 1 4 1 5 0 12 1 14-1 15-1 12-1 9-1 3-1 1-2 0-4 1-4 1-6 1-6 1-7 1-8 0-8 1-10 2-11 2-11 2-10 2-9 2-6 1-5 1-22 4-37 10-48 12-52 14-52 15-47 13-37 10-22 6-11 2-10-1-7-2-5-3-4-4-2-5-1-4-1-4-1-7 0-12-1-17-1-19 0-21-1-21 0-19 0-16 0-7 1-5 1-5 2-4 1-2 2-3 2-1 3-1 4-1 4 0 2 1 1 0z" fill="#525252"/>
  <path d="M29 133l 440 0 1 1 2 2 1 4 0 5 1 12 0 13-1 14-1 12-1 8-1 4-1 0-2 0-3 1-5 1-5 1-6 1-7 0-8 1-8 1-10 2-10 2-11 2-9 2-9 1-7 2-4 0-24 5-37 9-48 12-51 14-52 13-46 13-36 10-21 5-11 2-9-1-7-2-5-3-3-4-3-4-1-5-1-3 0-7-1-11-1-16 0-18-1-20 0-20 0-18-1-16 1-7 0-5 2-4 1-4 2-3 2-2 2-1 2-2 4 0 4 0 2 0 1 1z" fill="#595959"/>
  <path d="M30 135l 433 0 1 1 2 2 1 4 1 4 1 12 0 12-1 13-1 12-2 8-1 3-1 0-2 0-3 1-5 1-5 1-6 1-7 1-7 0-8 1-9 2-10 1-10 2-10 2-8 2-7 1-4 1-25 4-38 9-48 12-51 13-50 13-46 12-35 9-20 5-11 2-8-1-7-2-5-3-3-4-3-4-1-4-1-3 0-6-1-11 0-15-1-18 0-19-1-18 0-18 0-15 0-6 1-5 1-5 2-3 1-3 2-2 2-2 2-1 4-1 4 1 3 0 1 1z" fill="#616161"/>
  <path d="M30 136l 427 1 2 1 1 2 1 3 1 4 1 11 0 12-1 13-1 10-1 8-2 3-1 0-2 1-3 0-4 1-5 1-6 1-7 1-7 0-8 1-9 2-9 1-10 2-9 2-9 2-6 1-5 0-26 5-38 8-47 11-51 13-50 13-44 11-35 9-19 5-10 1-8-1-7-2-4-3-4-3-2-4-1-4-1-4-1-5 0-11-1-14 0-16-1-18 0-18 0-17 0-14 0-6 1-5 1-4 1-4 4-4 4-3 4-1 3 1 3 0 1 0z" fill="#696969"/>
  <path d="M30 138l 421 1 2 1 2 2 1 3 1 4 1 10 0 11-1 12-2 10-1 7-2 3-1 0-2 1-3 0-4 1-5 1-6 1-6 1-7 0-8 1-8 1-10 2-9 2-9 2-8 1-7 1-5 1-26 4-40 9-46 10-51 12-49 12-43 11-33 8-19 5-10 1-8-1-6-2-4-3-4-3-2-4-1-4-1-3 0-5-1-10 0-13-1-15 0-17 0-17-1-16 0-14 0-6 1-5 1-4 2-3 3-5 4-2 4-1 3 0 3 1 1 0z" fill="#707070"/>
  <path d="M30 140l 415 1 2 0 2 2 1 3 1 4 1 10 0 10-1 11-1 10-2 7-2 2-1 0-2 1-3 0-4 1-5 1-5 1-6 1-7 0-7 1-9 1-9 2-9 2-9 1-8 2-6 1-5 1-28 4-40 8-46 10-50 11-48 12-43 10-32 8-18 4-9 1-8-1-6-2-4-3-3-3-3-4-1-3 0-3-1-5 0-9-1-12 0-15-1-15 0-16 0-16 0-13 0-6 1-4 1-4 1-4 4-4 3-2 4-1 4 0 2 1 1 0z" fill="#787878"/>
  <path d="M30 142l 409 1 3 0 1 2 2 3 1 3 1 9 0 11-1 10-2 9-2 6-2 3-1 0-2 0-3 1-4 1-4 0-6 1-6 1-6 0-7 1-8 1-9 2-9 1-8 2-8 1-7 1-5 1-29 4-40 8-46 10-49 11-48 10-41 10-32 7-17 4-9 1-7-1-6-2-4-3-3-3-2-3-2-3 0-3-1-4 0-9 0-11-1-14 0-15 0-15 0-14-1-13 1-6 0-4 1-4 2-3 3-4 4-2 4-1 3 0 2 1 1 0z" fill="#7f7f7f"/>
  <path d="M30 144l 403 1 3 0 2 2 1 2 1 4 1 8 0 10-1 9-2 9-2 6-2 2-1 0-2 0-3 1-3 1-5 0-5 1-6 1-6 0-7 1-8 1-8 2-9 1-8 2-8 1-6 1-5 1-31 4-40 7-46 10-49 10-47 10-40 9-31 6-16 4-9 1-6-1-6-2-4-2-3-4-2-3-1-3-1-2 0-4-1-8 0-11 0-12-1-14 0-14 0-14 0-12 0-5 1-5 1-4 1-3 3-4 4-2 4 0 3 0 3 1 0 0z" fill="#878787"/>
  <path d="M30 146l 397 0 3 1 2 1 2 3 1 3 1 8 0 9-2 9-2 8-2 5-2 2-1 0-2 1-2 0-4 1-4 0-5 1-6 1-6 0-7 1-7 1-8 1-9 2-8 1-7 1-7 1-5 1-31 5-41 7-46 8-48 10-46 9-40 9-30 6-16 3-7 1-7-1-5-2-4-2-3-3-2-3-1-3-1-2 0-4 0-7 0-10-1-11 0-13 0-13-1-13 0-12 1-9 2-7 4-4 3-2 4 0 3 0 3 0 0 1z" fill="#8f8f8f"/>
  <path d="M31 148l 390 0 3 1 2 1 2 2 1 3 1 7 0 9-1 8-2 7-3 5-2 2-1 1-2 0-2 0-4 1-4 0-5 1-5 1-6 0-7 1-7 1-7 1-8 2-8 1-7 1-7 1-6 1-32 4-41 7-46 8-48 9-45 9-39 8-28 5-15 3-8 1-6-1-5-2-3-2-3-3-2-3-2-3 0-2 0-3-1-6 0-9 0-11-1-11 0-13 0-12 0-11 1-9 2-6 3-4 4-2 3-1 4 1 2 0 1 1z" fill="#969696"/>
  <path d="M31 149l 385 1 3 1 2 1 2 2 1 3 1 6 0 8-2 8-2 6-3 5-2 2-1 0-2 0-2 0-4 1-4 0-4 1-6 1-5 1-6 0-7 1-8 1-7 1-8 1-7 2-7 1-5 0-34 5-41 6-46 8-47 8-44 9-38 7-28 5-15 3-6 0-6-1-5-2-3-2-3-3-2-2-1-3-1-2 0-3 0-5-1-8 0-10 0-11 0-11 0-11 0-11 0-9 3-6 3-3 3-2 4-1 3 1 2 0 1 0z" fill="#9e9e9e"/>
  <path d="M31 151l 379 1 3 0 2 2 2 2 1 2 2 6-1 7-1 7-3 6-2 4-3 2-1 0-2 0-2 1-3 0-4 1-5 0-5 1-5 0-6 1-7 1-7 1-7 1-7 1-7 1-7 1-6 1-34 4-42 6-46 8-47 8-43 7-37 7-27 4-14 3-6 0-5-1-5-2-3-2-3-3-2-2-1-2-1-2 0-2 0-5 0-8 0-8-1-10 0-10 0-11 0-10 1-8 2-6 3-4 4-1 3-1 3 0 2 1 1 0z" fill="#a6a6a6"/>
  <path d="M31 153l 373 1 3 0 2 1 2 2 2 2 1 6 0 6-2 6-2 6-3 4-3 1-1 0-1 1-3 0-3 0-4 1-4 0-5 1-6 0-5 1-6 1-7 1-7 1-7 1-7 1-6 1-6 0-36 5-42 6-46 7-46 7-43 7-36 6-26 4-13 2-5 0-5-1-5-2-3-2-3-2-1-3-2-2 0-1 0-2 0-5-1-6 0-7 0-9 0-10 0-9 0-10 1-8 2-6 3-3 3-2 3 0 3 0 2 1 1 0z" fill="#adadad"/>
  <path d="M31 155l 367 1 3 0 3 1 2 1 1 2 2 5-1 6-2 6-2 5-3 3-3 2-1 0-1 0-3 0-3 0-3 1-5 0-4 1-6 1-5 0-6 1-6 1-7 0-7 1-6 1-7 1-6 1-37 4-42 6-46 6-45 7-42 6-35 6-26 4-12 1-5 0-5-1-4-2-3-2-2-2-2-2-1-2-1-1 0-2 0-4 0-5 0-7 0-8-1-8 0-9 0-9 1-8 2-5 3-3 3-2 4 0 3 0 2 0 0 1z" fill="#b5b5b5"/>
  <path d="M31 157l 361 1 3 0 3 1 2 1 2 2 1 4 0 5-2 5-3 5-3 3-3 1-1 0-1 0-3 0-2 1-4 0-4 0-5 1-5 0-5 1-5 1-6 0-7 1-6 1-7 1-6 1-7 0-37 5-44 5-45 6-45 6-41 6-34 5-24 3-12 1-5 0-4-1-4-2-3-2-2-2-2-2-1-1 0-1-1-2 0-3 0-4 0-6 0-7 0-7 0-9 0-8 1-7 2-5 2-3 4-2 3 0 3 0 2 0 0 1z" fill="#bdbdbd"/>
  <path d="M32 159l 354 1 4 0 3 1 2 1 1 1 2 4-1 4-2 5-3 3-3 3-3 1-1 0-1 0-3 0-2 1-4 0-3 0-5 1-5 0-5 1-5 1-6 0-6 1-6 1-6 0-7 1-6 1-39 4-44 5-45 6-44 5-41 5-33 5-23 2-11 2-4-1-4-1-4-2-3-2-2-2-2-1-1-2 0 0 0-1 0-3 0-3 0-5 0-6 0-7 0-7 0-8 0-7 2-5 3-3 3-1 3 0 3 0 2 0 1 1z" fill="#c4c4c4"/>
  <path d="M380 161l-348-1-1 0-2 0-2 0-3 0-4 1-2 3-2 4-1 7 0 7 0 7 0 6 0 4 0 4 0 3 0 2 0 0 1 1 1 1 1 1 3 2 2 2 4 2 3 1 4 1 10-1 23-3 32-3 39-4 44-5 45-5 44-5 40-5 7 0 6-1 7-1 6 0 5-1 6 0 4-1 5 0 5-1 4 0 4-1 3 0 3-1 2 0 1 0 1 0 3-1 4-2 3-3 2-4 0-2 0-1 0-2-1-2-2-1-2-1-3 0-4-1z" fill="#ccc"/>
  <path d="M528 115l-500 0-1-1-4-1-4 0-5 1-2 2-3 2-2 2-2 4-2 5-1 6-1 7-1 8 1 21 0 26 1 29 1 30 1 28 1 25 1 18 1 10 1 6 1 7 3 6 5 5 3 2 3 2 5 2 5 1 5 0 7-1 8-1 8-2 28-8 45-15 56-18 59-21 57-19 49-17 33-12 13-4 2-1 7-1 11-3 12-3 14-3 14-2 13-2 10-2 9-1 9-1 8-1 7-2 5-1 4-1 3-1 1 0-2-110" stroke="#000"/>
  <path d="M669 329l-2-67-1 0 0-1-1-2-1-1-1-2-3-1-2-1-4-1-6 0-8 0-9 0-10 0-10 0-8 0-6 0-2 0 0 21 0 0-1 2-1 3-1 3-1 4-1 4-2 3-2 3-5 7-13 14-17 20-19 22-19 22-16 18-12 14-4 4 0 1-1 1 0 1 0 2 0 2 1 2 3 3 4 2 8 3 12 4 14 5 15 5 14 5 12 4 9 2 3 1 5 2 5 0 5-1 5-2 2-1 1-2 1-3 0-3 0-3-1-4-2-5-2-5 6-10 6-11 49-82 14-1z" fill="#0d0d0d"/>
  <path d="M595 253l 2 0 6 0 8 0 9 0 10 0 9 0 8 0 6 0 3 1 3 1 2 1 1 2 2 2 0 2 1 1 0 0 0 3 0 7 0 11 1 11 0 12 0 10 0 8 1 2-17 6-47 80-6 10-7 10 3 5 2 4 1 4 0 4-1 2-1 3-1 2-2 1-4 2-5 1-6-1-4-1-3-1-8-3-12-3-14-5-14-5-14-4-11-4-7-3-4-3-2-2-1-3 0-3 1-3 1-2 1-2 1 0 4-5 11-13 16-18 18-21 18-21 17-19 12-14 5-7 2-3 1-3 1-4 2-3 1-3 0-3 1-2 0 0 0-21z" fill="#141414"/>
  <path d="M595 253l 2 0 6 0 8 0 9 0 9 0 9 0 8 0 5 0 4 1 2 1 2 2 2 1 1 2 0 2 1 1 0 1 0 2 0 7 0 10 1 12 0 11 0 10 0 7 0 3-20 10-45 77-5 10-7 10 2 5 2 4 1 4 0 3 0 2-1 3-2 1-1 2-5 2-5 0-5 0-4-1-3-1-8-3-11-3-14-5-13-4-13-5-11-4-7-2-2-2-2-1-1-2 0-1 0-4 1-4 2-4 1-3 2-2 0 0 4-5 11-12 15-18 18-20 17-20 16-19 12-13 5-7 1-2 2-4 1-3 1-4 1-3 1-2 0-2 0-1 0-20z" fill="#1c1c1c"/>
  <path d="M596 254l 2 0 5 0 8 0 8 0 10 0 8 0 8 0 5 0 3 0 2 1 2 2 2 2 1 2 0 1 1 2 0 0 0 3 0 7 0 10 0 11 1 11 0 9 0 7 0 2-23 15-44 74-4 10-7 10 2 5 2 4 1 3 0 3-1 3-1 2-1 1-2 2-4 1-5 1-5 0-5-2-2 0-8-3-11-3-12-5-14-4-12-4-10-4-7-3-2-1-1-1-1-2 0-2 1-5 2-5 2-4 3-4 1-3 1-1 4-4 10-12 15-17 16-19 17-20 15-17 11-13 6-7 1-2 1-3 1-4 2-3 1-3 0-3 1-1 0-1 0-19z" fill="#242424"/>
  <path d="M596 254l 2 0 5 0 7 0 9 0 9 0 8 0 8 0 4 0 3 0 3 2 1 1 2 2 1 2 1 2 0 1 0 1 0 3 0 6 0 10 0 10 1 11 0 9 0 7 0 2-27 19-41 71-4 10-7 10 2 4 1 4 1 3 0 3 0 3-1 2-2 1-2 1-4 2-5 1-4-1-5-1-2-1-7-2-11-3-12-4-13-5-12-4-9-3-7-3-2-1-1-2 0-2 0-2 1-6 3-5 3-5 3-5 3-3 1-1 3-5 10-11 14-16 16-19 16-19 15-17 11-13 4-6 2-2 1-3 1-3 1-3 1-3 1-3 0-2 0 0 0-19z" fill="#2b2b2b"/>
  <path d="M597 254l 1 0 5 0 7 0 9 0 8 0 8 0 7 0 5 0 3 1 2 1 2 2 1 2 1 2 1 1 0 2 0 0 0 3 0 7 0 9 0 10 1 10 0 9 0 6 0 3-30 24-40 68-2 9-9 10 2 4 2 4 0 3 0 2 0 3-1 2-2 1-1 1-4 2-5 0-5 0-4-1-2-1-7-2-10-4-12-3-12-5-11-3-9-4-7-2-1-1-1-2 0-3 0-2 2-6 4-7 4-6 4-5 2-4 1-1 4-5 9-10 14-16 15-18 15-18 14-17 10-12 5-5 1-3 1-3 2-3 1-3 0-3 1-2 0-2 1-1 0-18z" fill="#333"/>
  <path d="M597 254l 2 0 5 0 6 0 8 0 9 1 7 0 7 0 4 0 3 0 2 1 2 2 1 2 1 2 1 2 0 1 0 1 0 3 0 6 0 9 0 9 0 10 1 9 0 6 0 2-34 29-37 65-2 9-9 10 2 4 1 3 1 3 0 3-1 2-1 2-1 1-2 1-4 1-5 1-4 0-4-1-2-1-7-2-9-3-11-4-12-4-11-4-8-3-6-3-2-1 0-2 0-2 0-3 3-7 4-7 5-7 4-7 4-4 1-2 3-3 9-11 13-15 15-17 15-18 13-15 9-12 5-5 1-2 1-3 1-3 1-3 1-3 1-3 0-1 0-1 0-18z" fill="#3b3b3b"/>
  <path d="M598 255l 1 0 5 0 6 0 8 0 8 0 7 0 7 0 4 0 2 0 2 2 2 1 1 2 1 3 1 2 0 1 0 1 0 2 0 6 0 9 0 9 0 9 1 9 0 5 0 3-37 33-36 62-1 10-9 8 2 4 1 4 0 2 0 3 0 2-1 2-2 1-2 1-4 1-4 1-4-1-4-1-2 0-6-2-9-3-11-4-11-4-10-3-9-4-5-2-2-1 0-2 0-3 1-3 4-8 5-8 6-8 5-7 3-4 2-2 3-4 8-10 13-14 14-17 14-17 12-15 9-11 5-5 1-2 1-3 1-3 1-3 0-3 1-2 0-2 1 0 0-17z" fill="#424242"/>
  <path d="M598 255l 2 0 4 0 6 0 8 0 7 0 8 0 6 0 4 0 2 0 2 2 1 2 2 2 0 2 1 2 0 2 0 1 0 2 0 6 0 8 0 9 0 9 0 7 0 6 0 2-40 38-34 59 0 10-9 8 1 4 1 3 1 3 0 2-2 3-3 3-4 1-5 0-4 0-3-1-2-1-6-2-9-3-10-3-10-4-10-3-8-3-5-2-1-1 0-3 0-2 2-4 4-8 6-9 6-9 6-8 4-5 2-2 3-4 8-10 11-13 13-16 14-16 12-14 8-11 4-5 1-2 1-2 1-3 1-3 1-3 1-2 0-2 0-1 0-16z" fill="#4a4a4a"/>
  <path d="M598 255l 2 0 4 0 6 0 7 0 8 0 7 0 5 0 4 0 2 1 2 1 2 2 1 2 1 2 0 2 0 2 0 1 0 3 0 5 0 8 0 8 0 9 0 7 0 6 0 2-43 42-32 56 0 10-9 8 2 7 0 4-2 3-3 3-4 1-4 0-4 0-3-1-2-1-6-2-8-3-9-3-10-3-9-4-8-2-5-2-1-2 0-2 1-3 2-4 5-9 6-10 7-10 7-8 4-6 2-3 3-3 8-9 10-13 13-15 13-15 11-14 8-10 4-5 1-2 1-2 1-3 1-3 0-3 1-2 0-1 0-1 0-16z" fill="#525252"/>
  <path d="M599 255l 1 0 4 0 6 0 7 0 7 0 7 0 5 1 4 0 2 0 2 1 1 2 1 2 1 3 0 2 0 2 0 1 0 2 0 5 0 8 0 8 0 8 0 7 0 5 0 2-47 47-30 54 1 9-10 8 3 6 0 5-2 3-3 1-4 1-4 1-4-1-4-1-1 0-6-2-7-3-9-3-9-3-9-3-7-3-5-2-1-1 1-2 1-4 2-4 6-10 7-10 8-11 7-9 5-7 2-2 3-4 7-8 10-13 12-14 12-15 10-12 8-10 4-5 1-1 1-3 0-2 1-3 1-3 0-2 1-2 0 0 0-16z" fill="#595959"/>
  <path d="M599 255l 2 0 4 0 5 0 7 1 6 0 7 0 5 0 3 0 2 0 2 2 1 2 1 2 1 2 0 2 1 2 0 1-1 3 0 5 0 7 0 8 0 7 0 7 0 5 0 2-50 51-28 51 1 9-10 8 2 6 0 4-2 2-3 2-4 1-4 0-4 0-3-1-1-1-5-1-7-3-9-3-8-3-8-3-7-2-4-2-1-1 0-3 2-3 2-5 7-10 8-12 8-12 8-10 5-7 2-2 3-4 7-8 9-12 12-13 11-14 10-12 7-9 4-4 0-2 1-2 1-3 1-3 0-3 1-2 0-1 0-1 0-15z" fill="#616161"/>
  <path d="M600 256l 1 0 4 0 5 0 6 0 6 0 6 0 5 0 4 0 1 1 2 1 1 2 1 2 1 3 0 2 1 2-1 1 0 2 0 5 0 7 0 7 0 8 0 6 0 4 0 2-54 57-26 47 2 10-10 7 2 5-1 4-1 2-4 2-3 1-4 0-4-1-3 0-1-1-5-1-6-3-8-3-8-2-8-3-6-3-4-1-1-2 1-2 2-4 2-5 7-11 9-13 10-12 8-11 6-8 2-3 3-2 6-8 9-11 11-13 10-13 9-12 7-8 3-4 1-2 1-2 1-3 0-2 1-3 0-2 1-2 0 0 0-14z" fill="#696969"/>
  <path d="M600 256l 2 0 3 0 5 0 6 0 6 0 6 0 4 0 3 0 2 1 1 1 2 2 0 3 1 2 1 2 0 2 0 2-1 2 0 4 0 7 0 7 0 7 0 6-1 4 0 2-56 61-25 45 3 9-11 7 2 5 0 3-2 2-3 2-4 0-4 1-3-1-3 0-1-1-5-2-6-2-7-2-7-3-8-3-5-2-4-2-1-1 1-3 2-4 3-5 8-12 10-13 10-13 9-12 6-8 3-3 2-3 6-7 8-11 10-12 10-12 9-11 6-8 3-4 1-2 1-2 0-2 1-3 0-2 1-2 0-2 0 0 0-14z" fill="#707070"/>
  <path d="M601 256l 1 0 3 0 5 0 5 0 6 0 5 0 5 0 3 0 1 1 2 1 1 2 1 3 0 2 1 3 0 2 0 1 0 2-1 5 0 6 0 6 0 7-1 6 0 4 0 1-60 66-22 42 3 9-11 7 2 4-1 3-2 2-3 2-3 0-4 0-3 0-3-1-1 0-4-2-6-2-7-2-6-3-7-2-5-2-4-2 0-1 1-3 2-4 3-5 9-13 11-15 10-14 10-12 7-9 2-3 3-3 5-7 8-10 9-11 9-12 8-10 6-7 3-4 1-1 0-2 1-3 0-2 1-3 0-2 0-1 1-1 0-13z" fill="#787878"/>
  <path d="M601 256l 1 0 3 0 5 0 5 0 6 1 5 0 4 0 2 0 2 0 1 2 1 2 1 2 0 3 1 2 0 2 0 2 0 2-1 4 0 6 0 6 0 6-1 5 0 4 0 2-63 70-21 39 4 9-11 7 1 4 0 2-2 2-3 1-4 1-3 0-4-1-2 0-1-1-4-1-5-2-6-2-7-3-5-2-5-2-3-1-1-2 2-3 2-4 4-5 9-14 11-15 12-15 10-14 7-9 3-4 2-2 5-6 7-10 9-10 8-11 8-9 5-8 3-3 0-1 1-2 0-2 1-3 0-2 1-2 0-1 0-1 0-13z" fill="#7f7f7f"/>
  <path d="M601 256l 2 0 2 1 5 0 5 0 5 0 5 0 3 0 3 0 1 1 1 1 1 2 1 3 1 2 0 3 0 2 0 1 0 2-1 5 0 5 0 6 0 5-1 5 0 4 0 1-67 75-18 36 4 9-11 7 1 3-1 3-2 1-3 1-3 1-4 0-3-1-2 0-1-1-4-1-4-2-6-2-6-2-5-3-5-1-2-2 1-4 7-10 10-15 12-16 12-16 11-14 8-10 3-3 2-3 4-6 7-8 8-10 7-10 7-9 5-7 2-2 1-2 1-2 0-2 0-2 1-3 0-1 0-2 0 0 0-13z" fill="#878787"/>
  <path d="M602 257l 1 0 3 0 4 0 4 0 5 0 5 0 3 0 2 0 2 1 1 1 0 3 1 2 1 3 0 2 0 2 0 2 0 2-1 4 0 5 0 5-1 6 0 4 0 3 0 2-71 79-16 34 5 9-12 6 1 3 0 2-3 1-2 1-4 0-3 0-3 0-2-1-1 0-3-1-4-2-5-2-6-2-5-2-4-2-2-1 2-4 7-11 11-15 13-17 13-17 11-15 8-10 3-4 2-3 4-5 6-8 7-9 7-9 6-9 5-6 2-2 1-2 0-1 1-2 0-3 0-2 1-2 0-1 0-1 0-11z" fill="#8f8f8f"/>
  <path d="M602 257l 1 0 3 0 4 0 4 0 4 0 5 0 3 1 2 0 1 0 1 2 1 2 0 2 1 3 0 3 0 2 0 2 0 2-1 3 0 5 0 5-1 5 0 4 0 3 0 1-74 84-14 31 5 9-12 6 1 2-1 2-2 1-3 1-3 0-4 0-3-1-1 0-1 0-3-1-4-2-4-2-5-2-4-2-4-1-2-1 2-5 8-11 12-16 13-18 14-18 12-15 9-11 3-5 2-1 3-6 6-7 6-8 6-9 6-7 4-6 2-2 0-1 1-2 0-2 1-2 0-2 0-2 0-1 0-1 0-11z" fill="#969696"/>
  <path d="M603 257l 1 0 2 0 3 0 5 0 4 1 4 0 3 0 1 0 1 0 1 2 1 2 0 3 1 3 0 2 0 3 0 1 0 2-1 4 0 4 0 5-1 4 0 4 0 3 0 1-77 89-13 27 6 9-12 6 0 2-1 1-2 1-3 1-3 0-3 0-3-1-1 0-1-1-3-1-3-1-4-2-4-2-4-1-3-2-2 0 3-5 8-12 13-17 14-18 15-19 12-16 9-12 4-4 1-2 4-5 4-6 6-8 5-8 5-7 4-5 2-2 0-1 0-2 1-2 0-2 0-2 0-2 1-1 0 0 0-11z" fill="#9e9e9e"/>
  <path d="M603 257l 1 0 2 0 3 1 4 0 4 0 4 0 2 0 2 0 1 1 0 1 1 2 1 3 0 3 0 3 0 2 0 2 0 2-1 3 0 4 0 4-1 4 0 4 0 2-1 1-80 94-11 24 8 9-14 6 1 1-1 2-2 0-3 0-4 0-3 0-2 0-2 0 0-1-2-1-3-1-4-2-3-1-3-2-3-1-2-1 3-5 9-12 13-17 15-20 16-20 13-17 10-12 3-4 2-2 3-4 4-6 5-7 4-7 5-6 3-5 1-2 1-1 0-1 0-2 1-2 0-2 0-2 0-1 0 0 0-11z" fill="#a6a6a6"/>
  <path d="M604 257l 0 0 2 0 3 1 4 0 3 0 4 0 2 0 1 0 1 1 1 1 0 3 1 3 0 3 1 2 0 3-1 2 0 1-1 3 0 4-1 4 0 3-1 4 0 2 0 1-83 98-9 21 8 9-14 6 1 1-2 1-2 0-3 0-3 0-3 0-2-1-2 0 0 0-2-1-2-1-3-2-3-1-3-1-2-1-1-1 3-5 9-13 14-18 16-21 16-20 14-18 10-13 4-4 1-2 3-4 3-5 4-6 5-6 3-6 3-4 1-2 0-1 1-1 0-2 0-2 0-2 0-1 0-1 1-1 0-10z" fill="#adadad"/>
  <path d="M604 258l 1 0 1 0 3 0 3 0 4 0 3 0 2 0 1 1 1 0 0 2 1 2 0 3 0 3 1 3 0 2 0 2-1 2 0 3-1 3-1 3 0 4-1 2 0 2 0 1-87 103-7 19 9 8-14 5 0 1-1 1-3 0-3 0-3 0-3 0-2-1-1 0-1 0-1-1-2-1-2-1-2-2-2-1-2-1-1 0 3-6 10-13 15-19 17-21 17-21 14-19 11-13 4-5 1-2 2-3 3-5 3-5 4-6 3-4 2-4 1-2 0 0 0-1 0-2 0-2 1-2 0-2 0-1 0 0 0-9z" fill="#b5b5b5"/>
  <path d="M604 258l 1 0 2 0 2 0 3 0 3 1 3 0 2 0 1 0 0 0 0 2 1 2 0 3 0 3 1 3 0 3-1 2 0 2-1 2 0 3-1 3 0 3-1 2 0 2 0 1-91 107-4 16 9 8-14 5 0 1-2 0-2 0-3 0-3 0-3-1-2 0-1 0 0-1-1 0-2-1-2-1-1-1-2-1-1-1-1-1 4-5 11-14 15-19 17-23 18-22 15-19 11-14 5-5 0-1 2-3 2-4 3-5 3-5 2-4 2-3 1-1 0-1 0-1 0-2 0-2 0-1 0-2 0-1 0 0 0-9z" fill="#bdbdbd"/>
  <path d="M605 258l 0 0 2 0 2 0 3 1 2 0 3 0 1 0 1 0 0 1 1 1 0 3 0 3 1 3 0 3 0 3 0 1-1 2 0 2-1 3-1 3 0 2-1 2 0 1 0 1-94 112-3 13 10 9-14 4-1 1-2 0-2-1-3 0-3-1-2 0-2-1-1 0 0 0-1-1-1 0-1-1-1-1-1-1-1-1-1 0 4-5 12-15 16-20 18-23 18-24 16-20 12-14 4-5 0-1 2-3 2-3 2-4 2-4 2-4 1-2 0-1 0-1 0-1 1-1 0-2 0-2 0-1 0-1 0-1 0-8z" fill="#c4c4c4"/>
  <path d="M605 258l 0 17-7 18-104 131 3 4 15 3 15-4-11-8 2-11 97-116 0-1 0-1 1-2 0-2 1-2 1-2 0-2 1-2 0-2 0-3 0-3 0-3-1-3 0-2 0-2 0-1-13-1z" fill="#ccc"/>
  <path d="M669 329l-2-67-1 0 0-1-1-2-1-1-1-2-3-1-2-1-4-1-6 0-8 0-9 0-10 0-10 0-8 0-6 0-2 0 0 21-1 2-1 3-1 3-1 4-1 4-2 3-2 3-5 7-13 14-17 20-19 22-19 22-16 18-12 14-4 4 0 1-1 1 0 1 0 2 0 2 1 2 3 3 4 2 8 3 12 4 14 5 15 5 14 5 12 4 9 2 3 1 5 2 5 0 5-1 5-2 2-1 1-2 1-3 0-3 0-3-1-4-2-5-2-5 6-10 6-11 49-82 14-1" stroke="#000"/>
  <path d="M633 337l 2-4 1-4-1-3-2-3-3-3-3-3-4-2-5-1-9-2-10-1-4 1-4 1-3 2-3 2-6 7-9 11-10 13-12 14-11 13-9 12-7 8-2 3-1 0-2 3-2 3-1 4 0 5 2 5 2 2 2 2 4 3 4 2 9 4 8 3 6 2 6 2 4 1 2 1 2 0 1 1 0-1 2-1 2-1 3-3 4-3 4-3 4-5 3-5 5-8 7-12 7-13 8-14 7-13 6-11 5-8 1-3" stroke="#000"/>
  <path d="M528 115l 31 0 6-25 1 0 2 0 3 0 4 0 3 0 4 0 3 0 1 0 2-1 1-1 2-2 3-3 2-4 4-7 4-8 4-10 14-34 0-1 0-2 2-3 2-4 4-3 6-3 8-2 10-1 3 0 4 0 3 0 4 0 3-1 2 0 2 1 2 0 12 2 30 4 42 5 47 6 48 6 41 5 30 4 11 1 1 1 3 1 5 3 5 3 5 5 5 7 2 3 1 4 1 5 1 5 0 14 0 19 0 23 0 24 0 23 0 19 0 13 0 5 0 1 0 1 0 1-1 2 0 2-2 1-2 1-2 1-4 0-3 0-4 0-3 1-3 1-2 2-2 2 0 3 0 9 0 10 0 10 0 9 0 9 0 6 0 5 0 1-1 1 0 0 0 2 0 1 1 2 1 1 1 2 2 1 2 1 1 2 1 1 0 1-1 0-1 1-1 1-1 0-7 2-16 2-22 4-26 5-26 4-24 4-17 2-9 1-6 0-8-4-85 0 0 0 0 1-1 2-1 1-1 2-2 1-3 1-4 0-3 0-4 1-2 0-3 0-2 0-1 0-1 0 0 0 0-67 0-1 0-2 0-2-1-2-3-3-3-2-6-1-8-1-9 0-9 0-9 0-9 0-7-1-5 0-4 0-1 0-1-1-2-3-3-5-5-5-7-5-10-5-5-1-7-2-7 0-8 0-13 0-7 1-2-1 1 0 3 0 3-1 4 0 1 0-2-110z" fill="#666"/>
  <path d="M528 115l 31 0 6-25 1 0 2 0 3 0 4 0 3 0 4 0 3 0 1 0 2-1 1-1 2-2 3-3 2-4 4-7 4-8 4-10 14-34 0-1 0-2 2-3 2-4 4-3 6-3 8-2 10-1 3 0 4 0 3 0 4 0 3-1 2 0 2 1 2 0 12 2 30 4 42 5 47 6 48 6 41 5 30 4 11 1 1 1 3 1 5 3 5 3 5 5 5 7 2 3 1 4 1 5 1 5 0 14 0 19 0 23 0 24 0 23 0 19 0 13 0 5 0 1 0 1 0 1-1 2 0 2-2 1-2 1-2 1-4 0-3 0-4 0-3 1-3 1-2 2-2 2 0 3 0 9 0 10 0 10 0 9 0 9 0 6 0 5 0 1-1 1 0 2 0 1 1 2 1 1 1 2 2 1 2 1 1 2 1 1 0 1-1 0-1 1-1 1-1 0-7 2-16 2-22 4-26 5-26 4-24 4-17 2-9 1-6 0-8-4-85 0 0 1-1 2-1 1-1 2-2 1-3 1-4 0-3 0-4 1-2 0-3 0-2 0-1 0-1 0 0-67 0-1 0-2 0-2-1-2-3-3-3-2-6-1-8-1-9 0-9 0-9 0-9 0-7-1-5 0-4 0-1 0-1-1-2-3-3-5-5-5-7-5-10-5-5-1-7-2-7 0-8 0-13 0-7 1-2-1 1 0 3 0 3-1 4 0 1 0-2-110" stroke="#000"/>
  <path d="M763 265l 7 0 6 2 5 2 4 4 2 4 2 5 1 4 0 6 0 5-2 4-2 5-2 4-4 4-3 2-5 2-4 1-10 0-8 0-8 0-8 0-8 0-7 0-8 0-8 0-4-1-3-2-4-3-3-3-2-5-2-4-2-5 0-6-1-5 1-5 1-5 2-4 3-3 4-3 5-2 6-1 1 0 1 0 1 0 1 0 1 0 0 0 0 0 0 0 0 1-1 2-2 2-2 3-1 4-2 4-1 4 0 3 0 4 1 3 1 2 1 3 1 3 2 3 3 3 3 3 3-2-1-2-1-5-2-7 0-8 0-4 1-4 1-4 2-3 2-3 4-2 5-1 5-1 10 0 8 0 5 1 4 0 3 0 1 0 1 0 0 1z" fill="#fff"/>
  <path d="M763 265l 7 0 6 2 5 2 4 4 2 4 2 5 1 4 0 6 0 5-2 4-2 5-2 4-4 4-3 2-5 2-4 1-10 0-8 0-8 0-8 0-8 0-7 0-8 0-8 0-4-1-3-2-4-3-3-3-2-5-2-4-2-5 0-6-1-5 1-5 1-5 2-4 3-3 4-3 5-2 6-1 1 0 1 0 1 0 1 0 1 0 0 1-1 2-2 2-2 3-1 4-2 4-1 4 0 3 0 4 1 3 1 2 1 3 1 3 2 3 3 3 3 3 3-2-1-2-1-5-2-7 0-8 0-4 1-4 1-4 2-3 2-3 4-2 5-1 5-1 10 0 8 0 5 1 4 0 3 0 1 0 1 0 0 1" stroke="#000"/>
  <path d="M798 330l 0 6 0 15 1 24 3 30 2 17 2 18 3 19 4 19 5 19 6 19 6 19 8 19 130-31 0 0 1-1 1-1 0-1 1-2 0-1 0-2-1-3-3-7-5-15-6-23-6-27-7-32-5-33-2-17-2-17-1-17 0-16-135 22z" fill="#e5e5e5"/>
  <path d="M798 330l 0 6 0 15 1 24 3 30 2 17 2 18 3 19 4 19 5 19 6 19 6 19 8 19 130-31 1-1 1-1 0-1 1-2 0-1 0-2-1-3-3-7-5-15-6-23-6-27-7-32-5-33-2-17-2-17-1-17 0-16-135 22" stroke="#000"/>
  <path d="M928 42l 7 1 5 2 5 3 3 3 3 5 2 4 2 5 0 5 0 6-2 5-2 4-2 4-4 4-4 2-6 2-6 1-17 0-28-1-35 0-38 0-37-1-31 0-21 0-9 0 0 0-3-1-3-1-3-1-4-3-3-3-2-4 0-6 0-4 1-2 0-3 1-2 1-1 1-1 1-1 1-2 2-1 1-2 2-3 2-2 2-3 2-2 1-1 0 0 1-1 1-1 2-1 4-2 4-2 6-1 7-1 8-1 15 1 23 0 30 1 32 1 31 1 26 0 18 1 7 0z" fill="#fff"/>
  <path d="M928 42l 7 1 5 2 5 3 3 3 3 5 2 4 2 5 0 5 0 6-2 5-2 4-2 4-4 4-4 2-6 2-6 1-17 0-28-1-35 0-38 0-37-1-31 0-21 0-9 0-3-1-3-1-3-1-4-3-3-3-2-4 0-6 0-4 1-2 0-3 1-2 1-1 1-1 1-1 1-2 2-1 1-2 2-3 2-2 2-3 2-2 1-1 1-1 1-1 2-1 4-2 4-2 6-1 7-1 8-1 15 1 23 0 30 1 32 1 31 1 26 0 18 1 7 0" stroke="#000"/>
  <path d="M655 58l 5 0 5-2 4-2 4-4 4-3 2-5 2-5 0-5 0-6-2-5-2-4-4-4-4-3-4-3-5-1-5-1-6 1-5 1-4 3-4 3-3 4-3 4-1 5-1 6 1 5 1 5 3 5 3 3 4 4 4 2 5 2 6 0z" fill="#666"/>
  <path d="M655 58l 5 0 5-2 4-2 4-4 4-3 2-5 2-5 0-5 0-6-2-5-2-4-4-4-4-3-4-3-5-1-5-1-6 1-5 1-4 3-4 3-3 4-3 4-1 5-1 6 1 5 1 5 3 5 3 3 4 4 4 2 5 2 6 0" stroke="#000"/>
  <path d="M655 41l 2 0 1 0 2-1 2-1 1-2 1-1 0-2 0-2 0-2 0-2-1-2-1-1-2-1-2-1-1-1-2 0-2 0-2 1-2 1-1 1-1 1-1 2-1 2 0 2 0 2 1 2 1 1 1 2 1 1 2 1 2 0 2 0z" fill="#b2b2b2"/>
  <path d="M655 41l 2 0 1 0 2-1 2-1 1-2 1-1 0-2 0-2 0-2 0-2-1-2-1-1-2-1-2-1-1-1-2 0-2 0-2 1-2 1-1 1-1 1-1 2-1 2 0 2 0 2 1 2 1 1 1 2 1 1 2 1 2 0 2 0" stroke="#000"/>
  <path d="M646 22l 1 0 1 0 0-1 1 0 0-1 0 0 1-1 0-1 0-1-1 0 0-1 0 0-1-1 0 0-1-1-1 0-1 0 0 1-1 0-1 1 0 0 0 1-1 0 0 1 0 1 1 1 0 0 0 1 1 0 1 1 0 0 1 0z" fill="#666"/>
  <path d="M646 22l 1 0 1 0 0-1 1 0 0-1 1-1 0-1 0-1-1 0 0-1-1-1-1-1-1 0-1 0 0 1-1 0-1 1 0 1-1 0 0 1 0 1 1 1 0 1 1 0 1 1 1 0" stroke="#000"/>
  <path d="M665 49l 1 0 1 0 0 0 1-1 0 0 1-1 0-1 0 0 0-1 0-1-1-1 0 0-1-1 0 0-1 0-1 0-1 0 0 0-1 0-1 1 0 0-1 1 0 1 0 1 0 0 0 1 1 1 0 0 1 1 1 0 0 0 1 0z" fill="#666"/>
  <path d="M665 49l 1 0 1 0 1-1 1-1 0-1 0-1 0-1-1-1-1-1-1 0-1 0-1 0-1 0-1 1-1 1 0 1 0 1 0 1 1 1 1 1 1 0 1 0" stroke="#000"/>
  <path d="M661 21l 1 0 1-1 1 0 0 0 1-1 0-1 0 0 0-1 0-1 0 0 0-1-1-1 0 0-1-1-1 0-1 0 0 0-1 0-1 1 0 0-1 1 0 1 0 0 0 1 0 1 0 0 0 1 1 1 0 0 1 0 1 1 0 0z" fill="#666"/>
  <path d="M661 21l 1 0 1-1 1 0 1-1 0-1 0-1 0-1 0-1-1-1-1-1-1 0-1 0-1 0-1 1-1 1 0 1 0 1 0 1 0 1 1 1 1 0 1 1" stroke="#000"/>
  <path d="M670 34l 1 0 1 0 0 0 1-1 0 0 1-1 0-1 0 0 0-1 0-1-1-1 0 0-1 0 0-1-1 0-1 0-1 0 0 0-1 1 0 0-1 0 0 1 0 1 0 1 0 0 0 1 0 1 1 0 0 1 1 0 0 0 1 0z" fill="#666"/>
  <path d="M670 34l 1 0 1 0 1-1 1-1 0-1 0-1 0-1-1-1-1 0 0-1-1 0-1 0-1 0-1 1-1 0 0 1 0 1 0 1 0 1 0 1 1 0 0 1 1 0 1 0" stroke="#000"/>
  <path d="M639 36l 0 0 1 0 1 0 0-1 1 0 0-1 0-1 1-1-1 0 0-1 0-1-1 0 0-1-1 0-1 0 0-1-1 1-1 0 0 0-1 1 0 0-1 1 0 1 0 0 0 1 0 1 1 1 0 0 1 1 0 0 1 0 1 0z" fill="#666"/>
  <path d="M639 36l 1 0 1 0 0-1 1 0 0-1 0-1 1-1-1 0 0-1 0-1-1 0 0-1-1 0-1 0 0-1-1 1-1 0-1 1-1 1 0 1 0 1 0 1 1 1 1 1 1 0 1 0" stroke="#000"/>
  <path d="M647 50l 1 0 0-1 1 0 0 0 1-1 0 0 0-1 0-1 0-1 0 0 0-1-1-1 0 0-1 0 0-1-1 0-1 0-1 1 0 0-1 0 0 1-1 1 0 0 0 1 0 1 0 1 1 0 0 1 1 0 0 0 1 1 1 0z" fill="#666"/>
  <path d="M647 50l 1 0 0-1 1 0 1-1 0-1 0-1 0-1 0-1-1-1-1 0 0-1-1 0-1 0-1 1-1 0 0 1-1 1 0 1 0 1 0 1 1 0 0 1 1 0 1 1 1 0" stroke="#000"/>
  <path d="M653 144l-75 0 1 0 1 0 2 1 1 1 1 3 1 4 0 6 0 4 0 3-1 2 0 1-1 2-1 0-2 1-1 0 74 0" stroke="#000"/>
  <path d="M577 148l-21 0-2-1-2-1-2 0-2 1-2 1-1 1 0 2-1 2 0 3 0 4 0 5 0 5 0 4 0 5 0 3 0 3 1 5 2 3 3 2 4 1 3-1 3-2 3-3 1-5 0-5 0-4 0-2 1-3 0-1 0-1 0-1 0 0 13 0 1-3 1-3 0-3 0-2-1-3 0-2-1-2-1-2z" fill="#b2b2b2"/>
  <path d="M577 148l-21 0-2-1-2-1-2 0-2 1-2 1-1 1 0 2-1 2 0 3 0 4 0 5 0 5 0 4 0 5 0 3 0 3 1 5 2 3 3 2 4 1 3-1 3-2 3-3 1-5 0-5 0-4 0-2 1-3 0-1 0-1 0-1 13 0 1-3 1-3 0-3 0-2-1-3 0-2-1-2-1-2" stroke="#000"/>
  <path d="M544 153l 1-3 1-2 3-2 2 0 2 0 3 2 1 2 1 3 0 6 0 4 0 5-1 3 0 4 0 4 0 3 0 4 0 4-2 3-2 2-2 0-2 0-2-2-2-3-1-5 0-6 0-6 0-5 0-5 0-4 0-3 0-2 0-1z" fill="#e5e5e5"/>
  <path d="M544 153l 1-3 1-2 3-2 2 0 2 0 3 2 1 2 1 3 0 6 0 4 0 5-1 3 0 4 0 4 0 3 0 4 0 4-2 3-2 2-2 0-2 0-2-2-2-3-1-5 0-6 0-6 0-5 0-5 0-4 0-3 0-2 0-1" stroke="#000"/>
  <path d="M564 173l 0-3 1-3 0-3 0-3 0-3 0-2 0-2-1-1" stroke="#000"/>
  <path d="M578 144l-1 0-1 0-1 1-2 1 0 1-1 1" stroke="#000"/>
  <path d="M577 173l-4-1-1-3 0 1 1 1 1 1 1 0 1 0 1 0 1 0" stroke="#000"/>
  <path d="M567 117l 32 0 0-21-27 0 0 21 2 0 0 2-4 0 0 2 18 0 0-2-4 0 0-2-10 0" stroke="#000"/>
  <path d="M586 96l 0 21" stroke="#000"/>
  <path d="M573 96l 0-4 12 0 0 4-12 0" stroke="#000"/>
  <path d="M764 135l 0 47 202 0 0-5-197 0 0-42-5 0" stroke="#000"/>
  <path d="M769 183l 0 29 0 1 0 1 1 1 1 2 1 2 2 1 3 2 3 0 9 0 18 0 24 0 26 0 26 0 22 0 15 0 6 0 1 0 1-1 1-1 2-1 2-2 2-2 1-3 0-4 0-4 0-4 0-4 0-4 0-3 0-3 0-2 0-1-10 0 0 23 0 0 0 1 0 1 0 2-1 1-1 2-1 1-2 0-3 1-5 0-7 0-6 0-7 0-5 0-4-1-2 0 0 0-1 0-1-1-1-1-1-1-1-1-1-2 0-3 0-2 0-4 0-3 0-4 0-4 0-3 0-2 0-1-47 0 0 22 0 1 0 1-1 1 0 2-1 2-1 1-2 1-1 1-3 0-4 0-6 0-6 0-6 0-6 0-3 0-1 0-1-1-1 0-1-1-2-1-2-1-1-1-1-2-1-2 0-2 0-3 0-4 0-4 0-3 0-3 0-2 0-1-9 0z" fill="#b2b2b2"/>
  <path d="M769 183l 0 29 0 1 0 1 1 1 1 2 1 2 2 1 3 2 3 0 9 0 18 0 24 0 26 0 26 0 22 0 15 0 6 0 1 0 1-1 1-1 2-1 2-2 2-2 1-3 0-4 0-4 0-4 0-4 0-4 0-3 0-3 0-2 0-1-10 0 0 23 0 1 0 1 0 2-1 1-1 2-1 1-2 0-3 1-5 0-7 0-6 0-7 0-5 0-4-1-2 0-1 0-1-1-1-1-1-1-1-1-1-2 0-3 0-2 0-4 0-3 0-4 0-4 0-3 0-2 0-1-47 0 0 22 0 1 0 1-1 1 0 2-1 2-1 1-2 1-1 1-3 0-4 0-6 0-6 0-6 0-6 0-3 0-1 0-1-1-1 0-1-1-2-1-2-1-1-1-1-2-1-2 0-2 0-3 0-4 0-4 0-3 0-3 0-2 0-1-9 0" stroke="#000"/>
  <path d="M847 197l 1-3 1-2 3-1 2-1 3 1 2 1 2 2 0 3 0 3 0 2 0 2 0 2 0 2 0 1 0 2 0 3 0 3-2 2-2 2-3 0-2 0-3-2-1-3-1-4 0-2 0-2 0-3 0-2 0-3 0-2 0-1 0 0z" fill="#b2b2b2"/>
  <path d="M847 197l 1-3 1-2 3-1 2-1 3 1 2 1 2 2 0 3 0 3 0 2 0 2 0 2 0 2 0 1 0 2 0 3 0 3-2 2-2 2-3 0-2 0-3-2-1-3-1-4 0-2 0-2 0-3 0-2 0-3 0-2 0-1" stroke="#000"/>
  <path d="M743 38l-2 0-5 0-6 0-8 0-8 0-7 0-5 0-2 0-3 0-3 0-3 1-2 0-3 1-2 2-2 1-1 2-1 0-1 2-1 2-3 3-3 3-4 2-6 2-6 0-4 0-3 0-4 0-3 0-3 0-3 0-3 0-3 0-3 0-4 1-2 0-3 1-2 1-2 1-1 1-2 0-1 1-1 2-1 2-1 2-1 3-1 2-1 3-1 2 0 1 1 0 1-1 3-2 3-2 3-3 4-2 4-2 4-1 5-1 6-1 6 0 6 0 4 1 4 0 1 0 1 0 3-1 4 0 4-1 6-1 4-2 5-3 3-3 1-2 1-1 2-2 1-1 2-1 1-1 3-1 2 0 3-1 3 0 2 0 2 0 1 0 1 0 0 0 0 0 4-3 5-3 4-1 5-1 5-1 3 0 3 0 1 0z" fill="#0d0d0d"/>
  <path d="M741 97l-131 0-1-1-2-1-2-1-1-2-2-3 0-4 1-4 1-2 1-3 1-2 1-3 1-2 1-2 1-2 1-1 2 0 1-1 2-1 2-1 3-1 2 0 4-1 3 0 3 0 3 0 3 0 3 0 3 0 4 0 3 0 4 0 6 0 6-2 4-2 3-3 3-3 1-2 1-2 1 0 1-2 2-1 2-2 3-1 2 0 3-1 3 0 3 0 2 0 4 0 7 0 8 0 8 0 7 0 5 0 2 0" stroke="#000"/>
  <path d="M773 136l 154 0 0 0 1 0 1 0 2 0 1 1 1 1 1 1 1 2 0 2 0 2 0 3 0 2 0 3 0 2 0 1 0 0-1 0 0-1-1-1-1-1-1-1-1-2-1-1 0-1-1-1-1-1-2 0-1-1-1 0-1 0-1 0 0 0-140 0-2 0-2 0-1 0-1 1 0 0-1 1-1 1 0 0-1 1-1 2 0 1-1 1 0 1-1 1 0 0 0 1 0-1 0-1 0-2 0-3 0-3 0-2 0-3 0-2 0-1 0-1 0-1 0 0 1 0 1 0 1 0 1 0z" fill="#0d0d0d"/>
  <path d="M874 148l 0 23 1 1 1 1 1 0 1 1 1 0 3 0 7 0 9 0 10 0 10 0 8 0 6 0 2 0" stroke="#000"/>
  <path d="M836 149l 0 20-1 1 0 1-1 1-1 1-1 0-1 0-4 0-7 0-10 0-11 0-11 0-10 0-6 0-3 0" stroke="#000"/>
  <path d="M935 156l 0 21" stroke="#000"/>
  <path d="M817 222l 0 37 0 1 0 1-1 1-1 1-1 0-2 0-4 0-8 0-11 0-12 0-12 0-10 0-7 0-3 0" stroke="#000"/>
  <path d="M810 222l 0 31 0 1 0 2 0 1-1 1-1 1-1 1-2 0-3 0-4 0-5 0-5 0-5 0-5 0-3 0-1 0-1 0-1 0-1-1-1 0-1-2 0-1 0-3 0-2 0-5 0-6 0-7 0-7 0-6 0-4 0-2" stroke="#000"/>
  <path d="M773 232l 0-4 2-3 2-1 2-1 3 1 2 2 1 2 1 4 0 4 0 2 0 2 0 2 0 1 0 1-1 2 0 2 0 3-2 2-2 1-2 0-2 0-2-2-2-1 0-3-1-2 0-3 0-3 0-2 0-3 0-1 1-1 0-1" stroke="#000"/>
  <path d="M798 318l 141-22-141 22" stroke="#000"/>
  <path d="M798 318l-16 8" stroke="#000"/>
  <path d="M955 219l 2-1 1 0 1-1 2-1 0-1 1-1 0-1 1-2-1-1 0-2-1-1 0-1-2-1-1 0-1-1-2 0-1 0-2 1-1 0-1 1-1 1-1 1 0 2 0 1 0 2 0 1 1 1 1 1 1 1 1 1 2 0 1 1" stroke="#000"/>
  <path d="M950 206l-12 0" stroke="#000"/>
  <path d="M951 217l-16 0" stroke="#000"/>
  <path d="M768 194l-208 0" stroke="#000"/>
  <path d="M547 194l-17 0" stroke="#000"/>
  <path d="M609 215l 2 0 1-1 1-1 2 0 0-2 1-1 1-1 0-2 0-1-1-2-1-1 0-1-2-1-1-1-1 0-2 0-1 0-2 0-1 1-1 1-1 1 0 1-1 2 0 1 0 2 1 1 0 1 1 2 1 0 1 1 2 1 1 0" stroke="#000"/>
  <path d="M609 200l-50 0 0 14 50 1" stroke="#000"/>
  <path d="M669 268l 19 0 11-5 52 0" stroke="#000"/>
  <path d="M697 326l 0-7" stroke="#000"/>
  <path d="M791 292l 0 30" stroke="#000"/>
  <path d="M764 135l-235 0" stroke="#000"/>
  <path d="M764 167l-106 0-3 6-80 0-3-1 0-3-7-1 0 14 199 0" stroke="#000"/>
  <path d="M592 171l-7 0 0 0 0-1 1-1 0-1 0-2 1-2 0-2 0-3 72-1 1 2 0 3 0 2 0 2-1 2 0 1-1 1-1 0-65 0z" fill="#191919"/>
  <path d="M544 182l-14 0 0-12 14 0 0 12z" fill="#191919"/>
  <path d="M942 529l-7-16-5-16-5-16-5-17-6-32-5-31-3-29-2-25-1-20 0-14 26-5 0 16 1 17 1 17 2 17 6 33 6 32 7 27 6 23 5 15 3 7 1 3 0 2 0 1-1 2 0 1-1 1-1 1 0 0-22 6z" fill="#b2b2b2"/>
  <path d="M929 532l-29 8-7-19-7-19-5-19-5-19-4-19-3-18-3-17-2-17-2-29-1-23-1-15 0-6 30-4 0 15 1 20 2 25 3 29 5 31 7 32 4 16 5 16 6 16 6 16z" fill="#b2b2b2"/>
  <path d="M888 542l-28 6-8-19-6-19-6-19-5-19-3-19-4-18-2-18-2-16-3-30-1-24 0-15 0-5 28-5 0 12 1 20 1 25 4 29 4 32 7 34 5 17 5 17 6 17 7 17z" fill="#b2b2b2"/>
  <path d="M805 328l 0 6 0 15 1 24 3 31 2 17 3 18 3 18 4 20 4 19 6 19 7 20 7 19 8-4-8-18-6-19-5-19-5-19-4-19-3-19-3-17-2-17-2-30-1-24 0-15 0-6z" fill="#b2b2b2" fill-rule="nonzero"/>
  <path d="M798 330l 0 6 0 15 1 24 3 30 2 17 2 18 3 19 4 19 5 19 6 20 6 19 8 19 130-32 1 0 1-1 0-2 1-1 0-2 0-2-1-3-3-7-5-15-6-23-6-27-7-32-5-33-2-17-2-17-1-17 0-16-135 22" stroke="#000"/>
  <path d="M860 548l-8-19-6-19-6-19-5-19-4-19-3-18-2-18-2-17-3-29-1-24 0-15 0-5" stroke="#000"/>
  <path d="M900 538l-7-18-7-19-5-19-5-19-4-19-3-18-3-17-2-16-2-29-1-23-1-15 0-6" stroke="#000"/>
  <path d="M942 529l-8-19-6-18-6-19-4-19-4-18-3-18-3-18-2-16-2-28-1-23 0-15 0-5" stroke="#000"/>
  <path d="M845 552l-8-19-6-19-6-19-4-19-4-19-3-19-3-18-2-17-2-30-2-24 0-15 0-6" stroke="#000"/>
  <path d="M968 115l 8 0 0-13 32 10 0 3 9 0 0 94-9 0 0 3-32 10 0-12-9 1 1-96" stroke="#000"/>
  <path d="M1651 135l 0-4-2-3-2-3-3-2-4-2-3-1-4 0-4-1-29-2-69-3-95-5-108-5-108-4-94-4-66-3-25-1-1 0-2 0-3 0-4 2-3 3-3 4-2 6 0 8 0 11 0 13 1 13 0 14 0 13-1 12 0 10 0 8 0 6 1 6 2 4 2 3 4 3 4 2 4 1 5 0 28 0 69 0 96 0 110 0 109 0 96 0 67 0 25 0 1 0 1-1 2-1 2-1 2-3 2-5 2-5 0-8 1-8 0-11 0-13 0-12 0-12 0-10 0-6-1-3z" fill="#0d0d0d"/>
  <path d="M1035 93l 25 1 66 3 94 4 108 5 108 4 95 5 69 3 29 2 4 1 4 1 3 1 4 1 3 2 2 3 2 3 0 4 0 2 0 7 0 9 0 11 0 12 0 12 0 11 0 8-1 8-1 5-2 4-2 3-3 2-2 1-1 0 0 0-26 0-67 0-95 0-109 0-110 0-96 0-69 0-29 0-4 0-4-1-4-2-3-3-3-3-2-4-1-5 0-6 1-8 0-10 0-12 0-13 0-13 0-12 0-12-1-11 1-8 2-6 2-4 4-3 3-1 3-1 2 0 1 0z" fill="#141414"/>
  <path d="M1035 94l 25 1 66 3 94 4 108 5 108 5 96 4 68 3 29 2 4 1 4 1 3 1 4 1 2 2 3 3 1 3 1 4 0 2 0 6 0 9 0 11 0 11 0 12 0 10 0 8-1 7-2 6-2 4-2 2-2 2-2 1-1 0-1 1-25-1-67 0-95 0-110 0-109 0-96 0-70-1-28 0-4 0-4-1-4-2-3-2-2-3-2-4-1-5 0-6 0-8 0-10 0-11 0-12 0-12 0-13 0-11 0-10 0-8 2-6 3-4 3-3 3-1 3-1 2 0 1 0z" fill="#1c1c1c"/>
  <path d="M1035 96l 25 1 66 3 94 4 108 4 108 5 96 4 68 4 29 1 4 1 3 1 4 1 3 1 3 2 2 3 1 3 1 4 0 2 0 6 0 8 0 10 0 12 0 11 0 9 0 9-1 6-1 5-2 4-2 3-2 1-2 1-2 1 0 0-25 0-68-1-95 0-109 0-109-1-97 0-69 0-28 0-4-1-4-1-4-1-3-2-2-4-2-4-1-4 0-6 0-8 1-9 0-11 0-11 0-12 0-12 0-11-1-9 1-8 2-6 2-4 3-2 3-1 3-1 2 0 1 0z" fill="#242424"/>
  <path d="M1035 97l 25 1 66 3 94 4 108 5 108 4 96 5 68 3 29 2 4 0 3 1 4 1 3 1 3 2 2 3 1 3 0 4 0 2 0 5 0 8 0 10 1 11 0 10-1 10 0 7 0 7-2 5-1 4-3 2-2 2-2 1-1 0 0 0-26 0-67 0-95-1-109 0-110-1-96 0-69-1-28 0-4 0-4-1-3-2-3-2-3-3-1-4-1-4 0-6 0-7 0-9 0-10 0-11 0-12 0-11 0-10 0-10 0-7 2-6 2-3 3-3 3-1 3-1 2 0 1 0z" fill="#2b2b2b"/>
  <path d="M1035 99l 25 1 66 3 94 4 108 4 108 5 96 4 68 3 29 2 4 0 3 1 4 1 3 2 2 1 2 3 1 3 1 3 0 2 0 6 0 7 0 10 0 10 0 10 0 9 0 8-1 6-1 5-2 3-2 2-2 2-2 1-1 0-1 0-25 0-67 0-95-1-110 0-109-1-96-1-69 0-28 0-4 0-4-1-3-2-3-2-2-3-2-4-1-4 0-6 0-7 1-8 0-10 0-11 0-10 0-11-1-10 0-9 1-7 1-5 3-4 3-2 3-2 2 0 2 0 1 0z" fill="#333"/>
  <path d="M1035 100l 25 1 66 3 94 4 108 4 108 5 96 4 68 3 29 2 4 1 3 1 4 0 3 2 2 1 2 3 1 3 0 3 0 2 1 5 0 7 0 9 0 10 0 9 0 9-1 8 0 5-2 5-1 3-3 3-2 1-1 1-2 1 0 0-26 0-67-1-95-1-109-1-109 0-96-1-69-1-28 0-4 0-4-1-3-1-3-2-2-3-2-4 0-4 0-5 0-7 0-9 0-9 0-10 0-10 0-10 0-10 0-8 0-7 2-5 2-4 3-2 3-1 2-1 2 0 1 0z" fill="#3b3b3b"/>
  <path d="M1035 102l 25 1 66 3 94 3 108 5 108 4 96 4 68 3 29 2 4 1 3 1 4 1 2 1 3 2 1 2 1 3 1 3 0 2 0 5 0 6 0 9 0 9 0 9 0 9 0 7-1 5-1 5-2 3-2 2-2 2-2 1-1 0-1 0-25 0-67-1-95-1-109-1-109-1-97-1-69 0-28 0-3-1-3 0-4-2-2-2-2-3-2-3-1-4 0-5 0-7 1-8 0-9 0-9 0-10 0-9-1-9 0-8 1-7 1-5 3-3 2-3 3-1 2 0 2 0 1 0z" fill="#424242"/>
  <path d="M1035 103l 25 1 66 3 94 4 108 4 108 4 96 5 68 3 29 1 4 1 3 1 3 1 3 1 2 2 2 2 1 3 0 3 0 2 0 4 0 7 0 7 0 9 0 9 0 8 0 7 0 5-2 4-1 3-2 3-2 1-2 1-1 0-1 0-25 0-67-1-95-1-109-1-110-1-96-1-69-1-28 0-3 0-3-1-3-1-3-2-2-3-2-3 0-4-1-5 1-6 0-8 0-8 0-9 0-9 0-9 0-9 0-8 0-6 2-5 2-3 3-2 2-1 2-1 2 0 1 0z" fill="#4a4a4a"/>
  <path d="M1035 105l 25 1 66 2 94 4 108 4 108 5 96 4 68 3 29 2 4 0 3 1 3 1 3 1 2 2 1 2 1 2 1 4 0 1 0 4 0 6 0 8 0 8 0 8 0 8 0 7-1 5-1 4-2 3-2 2-2 1-2 1-1 1 0 0-26-1-67 0-95-2-109-1-109-1-96-1-69-1-28 0-3-1-3 0-3-1-3-2-2-3-1-3-1-4 0-5 0-6 1-7 0-8 0-8 0-9 0-8-1-9 0-7 1-6 1-5 2-3 3-2 2-1 2 0 2 0 1 0z" fill="#525252"/>
  <path d="M1035 106l 25 1 66 3 94 3 108 5 108 4 96 4 68 3 29 2 4 0 3 1 3 1 2 1 2 2 2 2 1 2 0 4 0 1 0 4 0 5 0 7 0 8 0 8 0 7 0 7 0 5-2 3-1 3-2 2-2 2-2 0-1 1-1 0-25 0-67-1-95-2-109-1-109-1-96-2-69-1-28 0-3 0-3-1-3-1-2-2-2-2-2-3-1-4 0-5 1-6 0-7 0-7 0-8 0-8 0-8 0-7 0-7 0-6 2-5 2-3 2-2 3-1 2 0 1 0 1 0z" fill="#595959"/>
  <path d="M1035 108l 25 1 66 2 94 4 108 4 108 4 96 4 69 3 28 2 4 1 3 0 3 1 2 1 2 2 2 2 0 2 1 4 0 1 0 3 0 6 0 6 0 7 0 8 0 7 0 6-1 5-1 3-2 3-2 2-2 1-1 1-2 0 0 0-25 0-67-1-95-2-109-1-110-2-96-1-68-1-29 0-2-1-3 0-3-1-2-2-2-2-1-3-1-4 0-5 0-5 0-7 1-7 0-7 0-7-1-8 0-7 0-7 1-6 1-4 2-2 2-2 3-1 2 0 1 0 1 0z" fill="#616161"/>
  <path d="M1035 109l 25 1 66 3 94 3 108 4 108 5 96 3 69 3 28 2 4 1 3 1 3 0 2 2 2 1 1 2 1 2 0 3 0 2 0 3 0 5 0 6 0 6 0 7 0 7 0 6 0 4-2 4-1 2-2 2-2 1-2 1-1 0 0 1-26-1-67-1-95-2-108-1-110-2-96-2-69-1-28 0-2 0-3-1-2-1-3-1-1-2-2-3-1-4 0-4 1-6 0-6 0-6 0-7 0-7 0-7 0-7 0-6 0-5 2-4 2-3 2-2 2-1 2 0 1 0 1 0z" fill="#696969"/>
  <path d="M1035 111l 25 1 66 2 94 4 108 4 108 4 96 4 69 3 28 1 4 1 3 1 3 1 2 1 1 1 2 2 0 2 1 3 0 1 0 3 0 5 0 5 0 6 0 7 0 6 0 6-1 4-1 3-2 3-2 2-2 1-1 0-1 1-1 0-25-1-67-1-95-1-109-2-109-2-96-2-69-1-28 0-2-1-3 0-2-1-2-2-2-2-1-2-1-4 0-4 0-6 0-5 1-6-1-6 0-7 0-6 0-6 0-6 1-6 1-3 2-3 2-1 2-1 2 0 1 0 1 0z" fill="#707070"/>
  <path d="M1035 112l 25 1 66 2 94 4 108 4 108 4 96 4 69 3 28 2 4 0 3 1 3 1 2 1 1 1 1 2 1 2 0 3 0 1 0 3 0 4 0 5 0 5 0 6 0 6 0 6-1 4-1 3-1 2-2 2-2 1-2 1-1 0 0 0-26 0-66-2-95-1-109-2-109-2-96-2-69-2-28 0-2 0-3-1-2-1-2-1-2-2-1-3-1-3 0-4 1-5 0-5 0-6 0-6 0-5 0-6 0-6 0-6 0-5 2-3 1-3 2-1 2-1 2 0 1 0 1 0z" fill="#787878"/>
  <path d="M1035 113l 25 1 66 3 94 3 108 4 108 4 96 4 69 3 28 2 4 0 3 1 2 1 2 1 2 1 1 2 0 2 0 3 0 1 0 2 0 4 0 4 1 6-1 5 0 6 0 5 0 4-1 3-2 2-2 1-1 2-2 0-1 1-1 0-25-1-67-1-95-2-108-2-110-3-96-2-68-1-29-1-2 0-2 0-2-1-2-1-1-2-2-3 0-3 0-4 0-5 0-5 0-5 0-5 0-5 0-5 0-6 0-5 1-5 1-3 2-2 2-2 1 0 2-1 1 0 1 0z" fill="#7f7f7f"/>
  <path d="M1035 115l 25 1 66 2 94 4 108 4 109 4 95 3 69 3 28 2 4 1 3 0 2 1 2 1 1 1 1 2 1 2 0 3 0 0 0 3 0 3 0 4 0 5 0 5 0 5 0 5 0 3-2 3-1 2-2 2-2 1-1 1-1 0-1 0-25-1-67-1-95-2-109-3-109-2-96-2-68-2-29 0-1 0-2-1-2 0-2-2-2-1-1-3-1-3 0-4 0-4 1-5 0-4 0-5 0-5 0-4 0-5 0-5 0-5 1-3 2-2 2-1 2-1 1 0 1 0 1 0z" fill="#878787"/>
  <path d="M1035 116l 25 1 66 3 94 3 108 4 109 4 95 4 69 3 28 1 4 1 3 1 2 0 2 1 1 1 1 2 0 2 0 3 0 0 0 2 0 3 0 4 0 4 0 4 0 5 0 5 0 3-1 3-2 2-2 1-1 1-2 1-1 0 0 0-26 0-67-2-94-2-109-3-109-2-96-2-69-2-28 0-2-1-1 0-2-1-2-1-2-2-1-2 0-3 0-3 0-5 0-4 0-4 0-4 0-4 0-5 0-4 0-4 1-5 1-3 1-2 2-1 2-1 1 0 1 0 1 0z" fill="#8f8f8f"/>
  <path d="M1035 118l 25 1 66 2 94 3 108 4 109 4 95 4 69 3 29 1 3 1 3 1 2 0 2 1 1 1 0 2 1 2 0 2 0 1 0 1 0 3 0 3 0 4 0 4 0 4 0 5-1 3-1 2-1 2-2 2-2 1-1 0-1 1-1 0-25-1-67-2-95-2-108-3-109-2-96-3-69-1-28-1-2 0-1-1-2 0-2-1-1-2-1-2-1-3 0-3 0-5 1-3 0-4 0-4 0-3 0-4 0-4 0-4 0-4 2-3 1-2 1-1 2 0 1 0 1 0 1 0z" fill="#969696"/>
  <path d="M1035 119l 25 1 66 3 94 3 108 4 109 4 95 3 69 3 29 2 3 0 3 1 2 1 1 1 1 1 1 1 0 2 0 2 0 1 0 1 0 2 0 3 0 3 0 4 0 4 0 4 0 3-1 2-2 2-1 1-2 1-2 0-1 1 0 0-25-1-67-2-95-2-109-3-109-3-95-2-69-2-28-1-2 0-1 0-2-1-1-1-2-1-1-2 0-3 0-3 0-4 0-4 0-3 0-3 0-3 0-3 0-3 0-4 1-4 1-3 1-1 2-1 1-1 1 0 1 0 1 0z" fill="#9e9e9e"/>
  <path d="M1035 121l 25 1 66 2 94 3 108 4 109 4 95 3 69 3 29 2 3 0 3 1 2 1 1 1 1 1 0 1 1 2 0 2 0 0 0 1 0 2 0 2 0 3 0 3 0 4 0 4-1 3-1 2-1 1-2 1-1 1-2 1-1 0 0 0-26 0-66-2-95-3-109-3-109-3-96-3-68-2-28 0-2 0-1-1-2 0-1-1-1-1-2-2 0-3 0-3 0-4 0-3 1-2 0-3 0-2 0-3 0-3 0-3 0-4 1-2 2-2 1-1 1 0 1 0 1 0 1 0z" fill="#a6a6a6"/>
  <path d="M1035 122l 25 1 66 2 94 4 108 3 109 4 95 4 69 2 29 2 3 1 3 0 2 1 1 1 1 1 0 1 0 2 0 2 0 0 0 1 0 1 0 2 0 2 0 3 0 3 0 4 0 2-1 2-2 2-1 1-2 1-2 0-1 0 0 1-25-1-67-2-95-3-108-3-109-3-96-3-69-2-28-1-1 0-1 0-1 0-2-1-1-1-1-2-1-3 0-3 1-3 0-3 0-2 0-2 0-2 0-2 0-3 0-3 1-3 1-2 1-2 1 0 2-1 1 0 0 0 1 0z" fill="#adadad"/>
  <path d="M1035 124l 25 0 66 3 94 3 108 4 109 3 95 4 69 3 29 1 3 1 3 0 1 1 2 1 0 1 1 1 0 2 0 2 0 0 0 0 0 1 0 1 0 2 0 2 0 4 0 3-1 2-1 2-1 1-2 1-1 1-2 0-1 1 0 0-26-1-66-2-95-3-108-3-109-3-96-3-69-2-28-1-1 0-1 0-1-1-2 0-1-2-1-1 0-2 0-3 0-4 0-2 1-2 0-2 0-1 0-1 0-2 0-3 0-3 1-2 1-1 2-1 1-1 1 0 0 0 1 1z" fill="#b5b5b5"/>
  <path d="M1035 125l 25 1 66 2 94 3 108 4 109 4 95 3 69 3 29 1 3 1 2 1 2 0 1 1 1 1 0 1 0 2 0 1 0 0 0 1 0 0 0 1 0 1 0 2 0 3 0 4 0 1-1 1-2 2-1 1-2 0-1 1-1 0-1 0-25-1-67-2-94-3-109-3-109-4-95-3-69-2-28-1-1 0-1 0-1 0-1-1-1-1-1-1-1-2 0-3 1-3 0-2 0-2 0-1 0 0 0-1 0-2 0-2 1-3 1-2 1-1 1-1 1 0 1 0 0 0 1 0z" fill="#bdbdbd"/>
  <path d="M1035 127l 25 0 66 3 94 3 108 3 109 4 95 3 69 3 29 2 3 0 2 1 2 0 1 1 0 1 1 1 0 2 0 1 0 0 0 0 0 0 0 0 0 1 0 2 0 2 0 3-1 2-1 1-1 1-2 1-1 1-2 0 0 0-1 0-25 0-67-3-94-3-109-3-109-4-96-3-68-2-28-1-1 0-1 0-1 0-1-1-1-1-1-1 0-2 0-3 0-3 0-2 0-1 1 0 0 0 0-1 0-1 0-1 0-3 1-2 1-1 1-1 1 0 1 0 0 0 1 1z" fill="#c4c4c4"/>
  <path d="M1638 156l 0-2 0-1 0-1 0-1-1 0-2-1-2 0-3-1-29-1-69-3-95-4-109-3-108-4-94-3-66-2-25-1-1 0 0 0-1 0-1 0 0 0-1 1-1 2-1 2 0 2 0 0 0 0 0 0 0 0 0 0 0 1-1 3 0 3 1 2 1 1 1 1 1 0 0 0 1 0 0 0 28 1 69 3 96 3 109 4 108 3 95 4 66 2 26 1 0 0 1-1 1 0 2-1 1 0 2-1 1-1 0-1 0-4 0-2 0-1 0 0 0 0 0 1 0 0 0 0z" fill="#ccc"/>
  <path d="M1651 135l 0-4-2-3-2-3-3-2-4-2-3-1-4 0-4-1-29-2-69-3-95-5-108-5-108-4-94-4-66-3-25-1-1 0-2 0-3 0-4 2-3 3-3 4-2 6 0 8 0 11 0 13 1 13 0 14 0 13-1 12 0 10 0 8 0 6 1 6 2 4 2 3 4 3 4 2 4 1 5 0 28 0 69 0 96 0 110 0 109 0 96 0 67 0 25 0 1 0 1-1 2-1 2-1 2-3 2-5 2-5 0-8 1-8 0-11 0-13 0-12 0-12 0-10 0-6-1-3" stroke="#000"/>
  <path d="M1019 175l 632 15 0-20-632-12" stroke="#000"/>
  <path d="M1051 94l 0 140" stroke="#000"/>
  <path d="M1055 94l 0 140" stroke="#000"/>
  <path d="M1091 95l 0 138" stroke="#000"/>
  <path d="M1095 95l 0 138" stroke="#000"/>
  <path d="M1130 96l 0 137" stroke="#000"/>
  <path d="M1135 96l 0 137" stroke="#000"/>
  <path d="M1170 100l 0 134" stroke="#000"/>
  <path d="M1174 100l 0 134" stroke="#000"/>
  <path d="M1210 100l 0 134" stroke="#000"/>
  <path d="M1214 100l 0 134" stroke="#000"/>
  <path d="M1249 102l 0 131" stroke="#000"/>
  <path d="M1253 102l 0 131" stroke="#000"/>
  <path d="M1289 103l 0 131" stroke="#000"/>
  <path d="M1293 103l 0 131" stroke="#000"/>
  <path d="M1328 106l 0 128" stroke="#000"/>
  <path d="M1333 106l 0 128" stroke="#000"/>
  <path d="M1368 107l 0 127" stroke="#000"/>
  <path d="M1372 107l 0 127" stroke="#000"/>
  <path d="M1408 110l 0 123" stroke="#000"/>
  <path d="M1412 110l 0 123" stroke="#000"/>
  <path d="M1447 112l 0 121" stroke="#000"/>
  <path d="M1452 112l 0 121" stroke="#000"/>
  <path d="M1487 113l 0 121" stroke="#000"/>
  <path d="M1491 113l 0 121" stroke="#000"/>
  <path d="M1527 115l 0 118" stroke="#000"/>
  <path d="M1531 115l 0 118" stroke="#000"/>
  <path d="M1566 116l 0 117" stroke="#000"/>
  <path d="M1570 116l 0 117" stroke="#000"/>
  <path d="M1606 119l 0 114" stroke="#000"/>
  <path d="M1610 119l 0 114" stroke="#000"/>
  <path d="M1653 220l-2-85 1 0 0-2 0-2 1-3 1-3 2-4 2-4 3-4 5-5 7-8 8-10 9-11 9-10 7-8 5-6 2-2 1-1 4-2 5-2 5-2 3 0 3 0 3 1 2 1 2 2 1 4 1 4 0 5 0 18-1 25 0 28 0 29-1 27 0 23 0 15 0 6-18 0-2-7 0-27 10-1 0-116-3-5-15 0-1 0-1 0-1 0-1 0-2 1-2 0-1 1-2 2-2 2-4 5-5 6-6 6-5 6-5 5-3 3-2 2 0 0-1 1-1 1-1 2-1 3-1 3-1 4 0 4 0 7 0 11 0 12 0 13 0 13 0 11 0 8 0 2-5 8-6 0z" fill="#666"/>
  <path d="M1653 220l-2-85 1 0 0-2 0-2 1-3 1-3 2-4 2-4 3-4 5-5 7-8 8-10 9-11 9-10 7-8 5-6 2-2 1-1 4-2 5-2 5-2 3 0 3 0 3 1 2 1 2 2 1 4 1 4 0 5 0 18-1 25 0 28 0 29-1 27 0 23 0 15 0 6-18 0-2-7 0-27 10-1 0-116-3-5-15 0-1 0-1 0-1 0-1 0-2 1-2 0-1 1-2 2-2 2-4 5-5 6-6 6-5 6-5 5-3 3-2 2-1 1-1 1-1 2-1 3-1 3-1 4 0 4 0 7 0 11 0 12 0 13 0 13 0 11 0 8 0 2-5 8-6 0" stroke="#000"/>
  <path d="M1731 106l-12 0 0-18 0 0-1-2 0-2-2-2-2-1-3-1-4 0-5 2 0 0 1-1 1 0 1-1 1-1 3-1 2 0 3 0 12 0 0 0 1 0 1 0 1 1 1 1 1 2 0 2 0 3 0 3 0 4 0 3 0 3 0 2 0 2 0 1 0 1z" fill="#666"/>
  <path d="M1731 106l-12 0 0-18-1-2 0-2-2-2-2-1-3-1-4 0-5 2 1-1 1 0 1-1 1-1 3-1 2 0 3 0 12 0 1 0 1 0 1 1 1 1 1 2 0 2 0 3 0 3 0 4 0 3 0 3 0 2 0 2 0 1 0 1" stroke="#000"/>
  <path d="M1665 133l 0 2 1 2 0 1 2 0 1 1 1 0 1 0 1 0 3 0 6 0 8 1 9 0 9 0 8 0 6 0 3 0 1 0 2-1 1-1 1-2 1-1 1-2 0-1 0-1 0 37-13 0 0-4 0-3-1-2-1-1-2-1-1-1-1 0-2 0-2 0-4 0-5 0-5 0-6 0-4 0-3 0-2 0-2 0-2 1-2 1-1 1 0 2-1 1 0 2 0 1 0 0 0 1 0 0 0 1 0 0 0 0 0 0 0 1 0 0-1 0-1 0-1 0-2 0-1 0-1 0 0 0 1-35z" fill="#666"/>
  <path d="M1665 133l 0 2 1 2 0 1 2 0 1 1 1 0 1 0 1 0 3 0 6 0 8 1 9 0 9 0 8 0 6 0 3 0 1 0 2-1 1-1 1-2 1-1 1-2 0-1 0-1 0 37-13 0 0-4 0-3-1-2-1-1-2-1-1-1-1 0-2 0-2 0-4 0-5 0-5 0-6 0-4 0-3 0-2 0-2 0-2 1-2 1-1 1 0 2-1 1 0 2 0 1 0 1 0 1 0 1-1 0-1 0-1 0-2 0-1 0-1 0 1-35" stroke="#000"/>
  <path d="M1742 207l 12 0 0 0 1 0 0 0 1 1 1 0 1 1 1 1 1 1 0 12-6 5-12-1 0-20z" fill="#666"/>
  <path d="M1742 207l 12 0 1 0 1 1 1 0 1 1 1 1 1 1 0 12-6 5-12-1 0-20" stroke="#000"/>
  <path d="M1664 166l 66-1 0 37-56-1 0 0-1 0-2 0-1 0-2 1-1 1-1 1-1 2-1-40z" fill="#666"/>
  <path d="M1664 166l 66-1 0 37-56-1-1 0-2 0-1 0-2 1-1 1-1 1-1 2-1-40" stroke="#000"/>
  <path d="M1742 156l 0 4 1 3 1 2 2 2 1 1 2 1 2 1 3 0 12 0 26 0 38 0 42 1 42 0 37 1 26 0 11 0 2 0 1-1 1-1 1-1 1-1 1-2 1-1 0-1 5 0 0 49-5 0 0 0 0-1-1-2-1-1-1-2-1-1-2-1-2-1-12 0-28 0-37 0-43-1-42 0-37-1-26 0-10 0-1 0-1 0-2 1-2 0-2 1-1 2-2 1 0 3 0-54z" fill="#666"/>
  <path d="M1742 156l 0 4 1 3 1 2 2 2 1 1 2 1 2 1 3 0 12 0 26 0 38 0 42 1 42 0 37 1 26 0 11 0 2 0 1-1 1-1 1-1 1-1 1-2 1-1 0-1 5 0 0 49-5 0 0-1-1-2-1-1-1-2-1-1-2-1-2-1-12 0-28 0-37 0-43-1-42 0-37-1-26 0-10 0-1 0-1 0-2 1-2 0-2 1-1 2-2 1 0 3 0-54" stroke="#000"/>
  <path d="M2010 164l 7 0 0 49-8 0 1-49z" fill="#666"/>
  <path d="M2010 164l 7 0 0 49-8 0 1-49" stroke="#000"/>
  <path d="M2026 164l 0 49 6 0 0-49-6 0z" fill="#666"/>
  <path d="M2026 164l 0 49 6 0 0-49-6 0" stroke="#000"/>
  <path d="M2032 164l 1 2 0 1 1 1 1 0 1 0 1 0 1 1 0 0 48 0 3 2-1 37-2 2-2 0-5 0-7-1-9 0-9 0-8 0-6 0-3 0-1 0-1 0-1 1-1 0 0 1-1 1 0 0 0 1 0-49z" fill="#666"/>
  <path d="M2032 164l 1 2 0 1 1 1 1 0 1 0 1 0 1 1 48 0 3 2-1 37-2 2-2 0-5 0-7-1-9 0-9 0-8 0-6 0-3 0-1 0-1 0-1 1-1 0 0 1-1 1 0 1 0-49" stroke="#000"/>
  <path d="M2001 164l 1 2 1 1 1 1 2 1 1-1 2 0 1-2 0-2-1 49 0-3-1-1-1-1-2-1-1 1-1 1-1 2-1 2 0-49z" fill="#666"/>
  <path d="M2001 164l 1 2 1 1 1 1 2 1 1-1 2 0 1-2 0-2-1 49 0-3-1-1-1-1-2-1-1 1-1 1-1 2-1 2 0-49" stroke="#000"/>
  <path d="M2017 164l 1 2 1 2 1 1 2 0 1 0 2-1 1-2 0-2 0 49 0-3-1-1-2-2-2 0-1 0-2 2-1 1 0 3 0-49z" fill="#666"/>
  <path d="M2017 164l 1 2 1 2 1 1 2 0 1 0 2-1 1-2 0-2 0 49 0-3-1-1-2-2-2 0-1 0-2 2-1 1 0 3 0-49" stroke="#000"/>
  <path d="M2083 169l-1 40 1-40z" fill="#666"/>
  <path d="M2083 169l-1 40" stroke="#000"/>
  <path d="M2037 192l-1 1 0 0 0 1-1 1 0 0 1 1 0 0 1 0 0 1 2 0 1 1 1 0 1 0 1 1 0 0 1 0 2 0 3 0 4 0 4 1 5 0 3 0 3-1 2 0 1 0 1 0 1 0 1-1 1 0 1 0 1 0 1-1 0 0 0-1 1 0 0-1 0-1-1 0 0-1-1 0 0 0-1-1-1 0-1 0-1-1-1 0-1 0-1 0-2 0-3-1-3 0-4 0-4 0-4 0-4 0-2 0-1 1-1 0-1 0-1 0-1 0-1 0-1 1 0 0z" fill="#ccc"/>
  <path d="M2037 192l-1 1 0 1-1 1 1 1 1 0 0 1 2 0 1 1 1 0 1 0 1 1 1 0 2 0 3 0 4 0 4 1 5 0 3 0 3-1 2 0 1 0 1 0 1 0 1-1 1 0 1 0 1 0 1-1 0-1 1 0 0-1 0-1-1 0 0-1-1 0-1-1-1 0-1 0-1-1-1 0-1 0-1 0-2 0-3-1-3 0-4 0-4 0-4 0-4 0-2 0-1 1-1 0-1 0-1 0-1 0-1 0-1 1" stroke="#000"/>
  <path d="M2039 191l 0 1 0 0-1 0 0 1 0 0 0 0 1 1 0 0 1 0 1 1 1 0 1 0 1 0 1 0 0 0 1 1 1 0 3 0 4 0 4 0 4 0 3 0 3 0 1 0 1 0 1 0 1-1 1 0 1 0 1 0 1 0 0 0 0-1 1 0 0 0 0-1 0 0 0-1-1 0 0 0-1 0-1 0-1-1-1 0-1 0-1 0 0 0-1 0-2 0-2 0-3-1-4 0-4 0-3 0-3 0-2 0-1 1-1 0-1 0-1 0-1 0 0 0-1 0-1 0z" fill="#000"/>
  <path d="M2039 191l 0 1-1 0 0 1 1 1 1 0 1 1 1 0 1 0 1 0 1 0 1 1 1 0 3 0 4 0 4 0 4 0 3 0 3 0 1 0 1 0 1 0 1-1 1 0 1 0 1 0 1 0 0-1 1 0 0-1 0-1-1 0-1 0-1 0-1-1-1 0-1 0-1 0-1 0-2 0-2 0-3-1-4 0-4 0-3 0-3 0-2 0-1 1-1 0-1 0-1 0-1 0-1 0-1 0" stroke="#000"/>
  <path d="M2037 172l 0 0-1 0 0 1 0 0 0 0 0 1 1 0 0 0 1 0 1 0 1 1 1 0 1 0 1 0 1 0 0 0 2 1 3 0 4 0 5 0 4 0 4 0 3 0 2 0 0 0 1-1 1 0 1 0 2 0 1 0 1 0 0 0 1-1 0 0 0 0 0-1 0 0 0 0-1 0 0-1-1 0-1 0-1 0-1 0-1 0-1 0-1 0-1 0-2-1-2 0-4 0-4 0-4 0-4 0-3 0-3 0-1 0 0 0-1 0-1 0-1 0-1 0-1 1-1 0z" fill="#000"/>
  <path d="M2037 172l-1 0 0 1 0 1 1 0 1 0 1 0 1 1 1 0 1 0 1 0 1 0 2 1 3 0 4 0 5 0 4 0 4 0 3 0 2 0 1-1 1 0 1 0 2 0 1 0 1 0 1-1 0-1-1 0 0-1-1 0-1 0-1 0-1 0-1 0-1 0-1 0-1 0-2-1-2 0-4 0-4 0-4 0-4 0-3 0-3 0-1 0-1 0-1 0-1 0-1 0-1 1-1 0" stroke="#000"/>
  <path d="M1996 164l 0 49 0-49z" fill="#000"/>
  <path d="M1996 164l 0 49" stroke="#000"/>
</svg>
