<?xml version="1.0" encoding="UTF-8" standalone="no"?>
<!-- Created with Inkscape (http://www.inkscape.org/) --><svg height="300.00000pt" id="svg2" inkscape:export-filename="/datas/Projs/Cliparts Stocker/flamand.png" inkscape:export-xdpi="90.000000" inkscape:export-ydpi="90.000000" inkscape:version="0.42" sodipodi:docbase="/home/doudoune/Desktop/Datas/Projs/Cliparts Stocker" sodipodi:docname="flamand.svg" sodipodi:version="0.32" width="200.00000pt" xmlns="http://www.w3.org/2000/svg" xmlns:cc="http://web.resource.org/cc/" xmlns:dc="http://purl.org/dc/elements/1.1/" xmlns:inkscape="http://www.inkscape.org/namespaces/inkscape" xmlns:rdf="http://www.w3.org/1999/02/22-rdf-syntax-ns#" xmlns:sodipodi="http://inkscape.sourceforge.net/DTD/sodipodi-0.dtd" xmlns:svg="http://www.w3.org/2000/svg">
  <metadata>
    <rdf:RDF xmlns:cc="http://web.resource.org/cc/" xmlns:dc="http://purl.org/dc/elements/1.1/" xmlns:rdf="http://www.w3.org/1999/02/22-rdf-syntax-ns#">
      <cc:Work rdf:about="">
        <dc:title>flamand</dc:title>
        <dc:description>jean.victor.balin@gmail.com</dc:description>
        <dc:subject>
          <rdf:Bag>
            <rdf:li>animal</rdf:li>
            <rdf:li>bird</rdf:li>
          </rdf:Bag>
        </dc:subject>
        <dc:publisher>
          <cc:Agent rdf:about="http://www.openclipart.org/">
            <dc:title>Open Clip Art Library</dc:title>
          </cc:Agent>
        </dc:publisher>
        <dc:creator>
          <cc:Agent>
            <dc:title>Jean-Victor Balin</dc:title>
          </cc:Agent>
        </dc:creator>
        <dc:rights>
          <cc:Agent>
            <dc:title>Jean-Victor Balin</dc:title>
          </cc:Agent>
        </dc:rights>
        <dc:date>2005-07-30</dc:date>
        <dc:format>image/svg+xml</dc:format>
        <dc:type rdf:resource="http://purl.org/dc/dcmitype/StillImage"/>
        <cc:license rdf:resource="http://web.resource.org/cc/PublicDomain"/>
        <dc:language>en</dc:language>
      </cc:Work>
      <cc:License rdf:about="http://web.resource.org/cc/PublicDomain">
        <cc:permits rdf:resource="http://web.resource.org/cc/Reproduction"/>
        <cc:permits rdf:resource="http://web.resource.org/cc/Distribution"/>
        <cc:permits rdf:resource="http://web.resource.org/cc/DerivativeWorks"/>
      </cc:License>
    </rdf:RDF>
  </metadata>
  <defs id="defs4"/>
  <sodipodi:namedview bordercolor="#666666" borderopacity="1.0" id="base" inkscape:current-layer="layer1" inkscape:cx="125.00000" inkscape:cy="187.50000" inkscape:document-units="px" inkscape:pageopacity="0.0" inkscape:pageshadow="2" inkscape:window-height="693" inkscape:window-width="1024" inkscape:window-x="0" inkscape:window-y="25" inkscape:zoom="1.3973333" pagecolor="#ffffff"/>
  <g id="layer1" inkscape:groupmode="layer" inkscape:label="Calque 1">
    <g id="g2790">
      <g id="g9375" style="fill:#e53949;fill-opacity:1.0000000">
        <path d="M 130.68750,87.562500 C 130.50200,87.568335 130.36760,87.611092 130.25000,87.656250 C 129.78063,87.836504 129.41252,88.159577 128.96875,88.593750 C 128.52498,89.027923 128.02831,89.563667 127.53125,90.187500 C 126.53714,91.435166 125.52748,92.989430 124.78125,94.437500 C 124.40328,95.170957 123.98486,95.896799 123.62500,96.500000 C 123.26514,97.103201 122.89989,97.626284 122.84375,97.687500 C 122.59597,97.957707 122.28109,98.380008 121.84375,99.000000 C 121.40641,99.619992 120.86982,100.40407 120.37500,101.15625 C 119.88018,101.90843 119.42097,102.64459 119.06250,103.25000 C 118.88327,103.55271 118.73875,103.80567 118.62500,104.03125 C 118.56813,104.14404 118.50907,104.27265 118.46875,104.37500 C 118.42843,104.47735 118.38405,104.53913 118.37500,104.75000 C 118.36178,105.05793 118.19226,105.82411 118.03125,106.21875 C 117.41578,107.72740 118.37640,109.56250 120.00000,109.56250 C 119.97799,109.56250 120.24004,109.66474 120.34375,109.93750 C 120.67622,110.81195 121.43095,111.44022 122.34375,111.87500 C 123.25655,112.30978 124.36080,112.56940 125.56250,112.68750 C 127.96589,112.92371 130.75375,112.58152 133.06250,111.50000 C 133.56972,111.26239 133.93404,111.17446 134.34375,111.06250 C 134.75346,110.95054 135.23057,110.78316 135.65625,110.40625 C 136.48584,109.67171 136.79725,108.61458 136.81250,107.53125 C 136.82775,106.44792 136.58283,105.30218 136.21875,104.21875 C 135.88809,103.23478 135.12902,102.03941 134.31250,100.96875 C 133.90424,100.43342 133.46266,99.932413 133.06250,99.531250 C 132.66234,99.130087 132.33980,98.832967 131.87500,98.656250 C 131.62941,98.562876 131.49220,98.462910 131.43750,98.406250 C 131.38280,98.349590 131.36398,98.320351 131.34375,98.156250 C 131.30328,97.828048 131.44594,97.027526 131.84375,95.687500 C 132.49054,93.508781 132.58684,92.585144 132.28125,90.687500 C 132.18186,90.070360 132.04679,89.487125 131.90625,89.000000 C 131.83598,88.756438 131.76423,88.531372 131.68750,88.343750 C 131.61077,88.156128 131.56231,88.029192 131.34375,87.812500 C 131.14179,87.612281 130.87300,87.556665 130.68750,87.562500 z " id="path4997" inkscape:original="M 130.50000 88.312500 C 129.47442 88.706358 126.83947 91.968799 125.40625 94.750000 C 124.63578 96.245112 123.71776 97.782470 123.37500 98.156250 C 122.68730 98.906192 119.11806 104.21488 119.09375 104.78125 C 119.07380 105.24598 118.88793 106.00873 118.68750 106.50000 C 118.24586 107.58255 118.94907 108.84375 120.00000 108.84375 C 120.39717 108.84375 120.81185 109.19264 121.00000 109.68750 C 121.96739 112.23192 128.43319 112.86593 132.75000 110.84375 C 133.89804 110.30595 134.56469 110.42646 135.18750 109.87500 C 136.46064 108.74772 136.22507 106.50218 135.53125 104.43750 C 134.98099 102.80006 132.60239 99.684101 131.62500 99.312500 C 130.43501 98.860072 130.34755 98.192868 131.15625 95.468750 C 131.79572 93.314686 131.86133 92.668141 131.56250 90.812500 C 131.37286 89.634926 131.04692 88.513935 130.84375 88.312500 C 130.77211 88.241476 130.64651 88.256239 130.50000 88.312500 z " inkscape:radius="0.71578723" sodipodi:type="inkscape:offset" style="opacity:1.0000000;fill:#e53949;fill-opacity:1.0000000;stroke:none;stroke-width:2.1300001;stroke-linecap:round;stroke-linejoin:round;stroke-miterlimit:4.0000000;stroke-dasharray:none;stroke-opacity:1.0000000"/>
        <path d="M 96.937500,99.687500 C 95.567992,99.860871 94.285547,100.63421 93.062500,101.93750 C 91.947365,103.12579 91.229055,104.07381 91.187500,105.34375 C 91.145945,106.61369 91.705527,107.95576 92.687500,110.25000 C 93.427934,111.97991 93.729626,112.98636 93.718750,113.43750 C 93.713312,113.66307 93.680767,113.75765 93.562500,113.90625 C 93.444233,114.05485 93.217875,114.23002 92.843750,114.46875 C 91.057516,115.60855 89.962134,116.85812 89.250000,118.56250 C 89.052297,119.03567 88.900684,119.44290 88.875000,119.87500 C 88.849316,120.30710 88.969246,120.79093 89.281250,121.12500 C 89.905257,121.79315 90.818082,121.88018 92.093750,121.93750 C 92.813486,121.96983 93.215523,122.02598 93.468750,122.12500 C 93.721977,122.22402 93.882406,122.36407 94.187500,122.71875 C 94.507348,123.09059 94.615455,123.26218 94.656250,123.43750 C 94.697045,123.61282 94.687749,123.90090 94.593750,124.46875 C 94.476546,125.17673 94.158128,126.15878 94.093750,126.28125 C 93.769770,126.89756 93.763973,127.62334 93.968750,128.31250 C 94.173527,129.00166 94.581120,129.69149 95.156250,130.37500 C 95.777234,131.11299 96.555085,131.57139 97.406250,131.62500 C 98.257415,131.67861 99.088527,131.32980 99.875000,130.71875 C 101.19676,129.69180 102.08559,128.71811 102.81250,127.37500 C 103.02172,126.98842 104.06518,125.61669 104.96875,124.62500 C 106.18616,123.28885 106.94287,122.35188 107.34375,121.06250 C 107.74463,119.77312 107.78126,118.24347 107.78125,115.65625 C 107.78125,113.48757 107.79499,112.38757 107.65625,111.56250 C 107.51751,110.73743 107.15780,110.21151 106.68750,109.65625 C 105.78673,108.59273 105.37060,107.88624 103.96875,104.65625 C 103.03774,102.51111 101.96636,101.25601 100.18750,100.34375 C 99.553840,100.01879 98.922727,99.820934 98.312500,99.718750 C 97.855265,99.642192 97.396917,99.629340 96.937500,99.687500 z " id="path4995" inkscape:original="M 97.031250 100.40625 C 95.871953 100.55301 94.743630 101.21218 93.593750 102.43750 C 91.407283 104.76740 91.390010 105.40412 93.343750 109.96875 C 94.837283 113.45816 94.823990 114.06944 93.218750 115.09375 C 91.512833 116.18230 90.568910 117.25778 89.906250 118.84375 C 89.180583 120.58053 89.673100 121.10858 92.125000 121.21875 C 93.613963 121.28564 94.069610 121.45902 94.750000 122.25000 C 95.443393 123.05611 95.508520 123.40959 95.312500 124.59375 C 95.185093 125.36336 94.931070 126.28054 94.750000 126.62500 C 94.304603 127.47228 94.660310 128.64836 95.718750 129.90625 C 96.788923 131.17807 98.041150 131.24115 99.437500 130.15625 C 100.71093 129.16685 101.50591 128.29062 102.18750 127.03125 C 102.49094 126.47059 103.50095 125.15289 104.43750 124.12500 C 106.84574 121.48188 107.06251 120.81037 107.06250 115.65625 C 107.06250 111.31993 107.05322 111.22091 106.12500 110.12500 C 105.18451 109.01459 104.71947 108.17929 103.31250 104.93750 C 102.41806 102.87662 101.50881 101.85390 99.843750 101.00000 C 99.270893 100.70622 98.721980 100.52700 98.187500 100.43750 C 97.786633 100.37038 97.417680 100.35733 97.031250 100.40625 z " inkscape:radius="0.72505498" sodipodi:type="inkscape:offset" style="opacity:1.0000000;fill:#e53949;fill-opacity:1.0000000;stroke:none;stroke-width:2.1300001;stroke-linecap:round;stroke-linejoin:round;stroke-miterlimit:4.0000000;stroke-dasharray:none;stroke-opacity:1.0000000"/>
        <path d="M 116.15625,107.46875 C 115.67248,107.27372 115.21448,107.36969 114.87500,107.50000 C 114.53552,107.63031 114.24315,107.81404 113.87500,108.03125 C 113.29924,108.37096 111.89782,108.96846 111.03125,109.25000 C 110.18295,109.52560 109.62041,109.65299 109.09375,110.21875 C 108.83042,110.50163 108.66224,110.83964 108.59375,111.15625 C 108.52526,111.47286 108.52640,111.79641 108.50000,112.15625 C 108.41883,113.26270 108.29630,113.98657 108.78125,114.78125 C 109.02372,115.17859 109.52218,115.46524 109.93750,115.53125 C 110.35282,115.59726 110.68509,115.54423 111.06250,115.46875 C 111.84679,115.31189 112.94635,114.91908 113.81250,114.46875 C 114.97029,113.86677 115.91601,113.13234 116.56250,112.31250 C 117.20899,111.49266 117.58540,110.50155 117.37500,109.50000 C 117.28940,109.09251 117.20662,108.74556 117.06250,108.40625 C 116.91838,108.06694 116.64582,107.66612 116.15625,107.46875 z " id="path4999" inkscape:original="M 115.78125 108.40625 C 115.49441 108.29061 115.08405 108.48790 114.37500 108.90625 C 113.66366 109.32595 112.29517 109.90964 111.34375 110.21875 C 109.65315 110.76801 109.60398 110.80146 109.50000 112.21875 C 109.34356 114.35113 109.57237 114.72927 110.87500 114.46875 C 111.47698 114.34835 112.59366 113.95249 113.34375 113.56250 C 115.46404 112.46007 116.63806 110.97097 116.37500 109.71875 C 116.21337 108.94937 116.06809 108.52189 115.78125 108.40625 z " inkscape:radius="1.0120803" sodipodi:type="inkscape:offset" style="opacity:1.0000000;fill:#e53949;fill-opacity:1.0000000;stroke:none;stroke-width:2.1300001;stroke-linecap:round;stroke-linejoin:round;stroke-miterlimit:4.0000000;stroke-dasharray:none;stroke-opacity:1.0000000"/>
        <path d="M 46.812500,110.34375 C 46.417885,110.50683 46.147373,110.71048 45.906250,110.93750 C 45.424004,111.39153 45.025722,111.97270 44.718750,112.65625 C 43.994870,114.26815 43.651276,115.67114 43.750000,116.96875 C 43.774681,117.29315 43.814583,117.61072 44.062500,118.06250 C 44.310417,118.51428 45.081200,119.13812 45.843750,119.09375 C 46.606300,119.04938 47.001641,118.67900 47.281250,118.40625 C 47.560859,118.13350 47.758043,117.86864 47.968750,117.53125 C 48.441493,116.77426 48.719865,115.94786 49.031250,115.00000 C 49.186943,114.52607 49.329406,114.05269 49.437500,113.62500 C 49.545594,113.19731 49.620372,112.87848 49.625000,112.34375 C 49.630422,111.71720 49.337270,110.82886 48.500000,110.40625 C 47.832091,110.06907 47.207115,110.18067 46.812500,110.34375 z " id="path4993" inkscape:original="M 47.750000 111.90625 C 47.424979 111.74217 46.732080 112.33986 46.281250 113.34375 C 45.019359 116.15366 45.215190 118.73234 46.531250 116.62500 C 47.009989 115.85841 47.931350 113.05436 47.937500 112.34375 C 47.939609 112.10006 47.858350 111.96094 47.750000 111.90625 z " inkscape:radius="1.6973102" sodipodi:type="inkscape:offset" style="opacity:1.0000000;fill:#e53949;fill-opacity:1.0000000;stroke:none;stroke-width:2.1300001;stroke-linecap:round;stroke-linejoin:round;stroke-miterlimit:4.0000000;stroke-dasharray:none;stroke-opacity:1.0000000"/>
      </g>
      <path d="M 51.843750,126.25000 C 50.821750,126.37610 49.783237,126.72077 48.937500,127.50000 C 48.061043,128.30754 47.579664,129.28385 47.531250,130.28125 C 47.482836,131.27865 47.792919,132.22898 48.250000,133.18750 C 48.583554,133.88697 48.947238,134.53021 49.718750,134.75000 C 50.490262,134.96979 51.091697,134.64419 51.781250,134.25000 C 52.336560,133.93256 52.742289,133.85034 53.125000,133.90625 C 53.507711,133.96216 53.923376,134.17599 54.437500,134.65625 C 54.896459,135.08498 55.062853,135.29696 55.093750,135.37500 C 55.124647,135.45304 55.152454,135.58300 55.062500,136.06250 C 54.956714,136.62639 54.913055,137.11887 55.000000,137.59375 C 55.086945,138.06863 55.376322,138.57837 55.875000,138.81250 C 56.373678,139.04663 56.876105,138.98411 57.343750,138.84375 C 57.811395,138.70339 58.303315,138.45451 58.843750,138.12500 C 60.663905,137.01524 61.748248,135.10129 61.750000,132.90625 C 61.751102,131.50430 61.385468,130.55094 60.468750,129.50000 C 59.452701,128.33519 58.238653,127.66798 57.187500,127.25000 C 56.136347,126.83202 55.173813,126.64226 54.843750,126.53125 C 53.909466,126.21700 52.868544,126.12356 51.843750,126.25000 z " id="path4989" inkscape:original="M 51.968750 127.12500 C 51.076179 127.23513 50.198370 127.54159 49.531250 128.15625 C 48.042629 129.52782 48.212450 131.02990 49.062500 132.81250 C 49.674039 134.09491 50.064830 134.19986 51.343750 133.46875 C 52.698029 132.69458 53.859500 132.87624 55.062500 134.00000 C 56.021709 134.89603 56.134030 135.17114 55.937500 136.21875 C 55.561049 138.22544 56.373750 138.59517 58.375000 137.37500 C 59.948049 136.41590 60.842220 134.82355 60.843750 132.90625 C 60.844779 131.59678 60.642130 131.08068 59.781250 130.09375 C 57.986199 128.03589 55.490970 127.68728 54.562500 127.37500 C 53.762889 127.10605 52.861330 127.01487 51.968750 127.12500 z " inkscape:radius="0.89456105" sodipodi:type="inkscape:offset" style="opacity:1.0000000;fill:#e7eef3;fill-opacity:1.0000000;stroke:none;stroke-width:2.1300001;stroke-linecap:round;stroke-linejoin:round;stroke-miterlimit:4.0000000;stroke-dasharray:none;stroke-opacity:1.0000000"/>
      <g id="g7919" style="fill:#efdfa3;fill-opacity:1.0000000">
        <path d="M 68.406250,148.25000 C 68.026757,148.15052 67.537731,148.24010 67.218750,148.50000 C 66.899769,148.75990 66.729986,149.09603 66.593750,149.43750 C 66.499822,149.67293 66.407352,149.96236 66.250000,150.50000 C 66.092648,151.03764 65.888170,151.76868 65.656250,152.59375 C 65.192410,154.24388 64.610785,156.33538 64.031250,158.43750 C 63.451715,160.53962 62.884796,162.64109 62.437500,164.25000 C 62.213852,165.05446 62.018429,165.74837 61.875000,166.25000 C 61.731571,166.75163 61.600035,167.15755 61.625000,167.09375 C 60.554072,169.83038 59.987567,173.53256 59.968750,177.65625 C 59.952702,181.17335 60.094105,182.40435 60.906250,185.18750 C 61.165512,186.07598 61.424342,186.91970 61.625000,187.56250 C 61.725329,187.88390 61.805710,188.16889 61.875000,188.37500 C 61.909645,188.47806 61.941441,188.55140 61.968750,188.62500 C 61.996059,188.69860 62.008811,188.72856 62.093750,188.87500 C 62.174379,189.01402 62.262448,189.15185 62.468750,189.28125 C 62.675052,189.41065 63.035198,189.47617 63.281250,189.40625 C 63.773354,189.26640 63.902832,188.98612 64.062500,188.71875 C 64.381835,188.18402 64.661620,187.40449 65.000000,186.28125 C 65.816409,183.57122 67.362359,177.48968 67.781250,175.37500 C 67.843821,175.05912 68.469560,172.13461 69.093750,169.25000 C 69.717940,166.36539 70.341671,163.51520 70.437500,163.03125 C 71.562120,157.35166 71.832822,155.74493 71.843750,153.84375 C 71.849260,152.88522 71.817251,152.25252 71.593750,151.62500 C 71.370249,150.99748 70.970990,150.50352 70.406250,149.84375 C 69.689072,149.00589 69.176260,148.45185 68.406250,148.25000 z " id="path4987" inkscape:original="M 68.218750 149.03125 C 67.820103 148.92675 67.567450 149.15805 67.343750 149.71875 C 66.949763 150.70629 62.647250 166.67927 62.375000 167.37500 C 61.360129 169.96838 60.799740 173.60414 60.781250 177.65625 C 60.765289 181.15437 60.884910 182.21834 61.687500 184.96875 C 62.203599 186.73740 62.698180 188.32553 62.781250 188.46875 C 63.102319 189.02235 63.556410 188.26111 64.218750 186.06250 C 65.020503 183.40112 66.598770 177.24427 67.000000 175.21875 C 67.152503 174.44886 69.489720 163.71600 69.656250 162.87500 C 70.779803 157.20080 71.020710 155.67740 71.031250 153.84375 C 71.042073 151.96113 70.922200 151.67144 69.812500 150.37500 C 69.129003 149.57649 68.617400 149.13575 68.218750 149.03125 z " inkscape:radius="0.80011970" sodipodi:type="inkscape:offset" style="opacity:1.0000000;fill:#efdfa3;fill-opacity:1.0000000;stroke:none;stroke-width:2.1300001;stroke-linecap:round;stroke-linejoin:round;stroke-miterlimit:4.0000000;stroke-dasharray:none;stroke-opacity:1.0000000"/>
        <path d="M 64.375000,148.37500 C 64.127501,148.43417 63.952914,148.52005 63.781250,148.62500 C 63.437922,148.83491 63.072918,149.14230 62.562500,149.56250 C 61.541665,150.40290 60.019300,151.72184 57.812500,153.59375 C 55.660214,155.41943 53.676292,156.62409 52.656250,159.96875 C 52.362071,160.93336 51.541620,163.31597 50.781250,165.71875 C 50.020880,168.12153 49.318551,170.48055 49.125000,171.75000 C 48.762708,174.12618 49.551367,177.56423 50.968750,180.56250 C 51.166551,180.98092 51.983952,182.94866 52.812500,184.93750 C 53.641048,186.92634 54.498089,188.97206 54.906250,189.84375 C 55.331370,190.75164 56.252584,192.31843 57.125000,193.71875 C 57.561208,194.41891 57.962532,195.06931 58.312500,195.56250 C 58.487484,195.80909 58.665262,196.01631 58.812500,196.18750 C 58.886119,196.27309 58.935023,196.35382 59.031250,196.43750 C 59.127477,196.52118 59.183988,196.70134 59.687500,196.71875 C 60.435222,196.74465 60.762498,196.38931 61.093750,195.96875 C 62.031674,194.77796 62.107981,193.06200 61.531250,191.40625 C 61.344077,190.86891 59.954916,185.48877 59.875000,184.84375 C 59.745533,183.79871 59.513038,182.11510 59.312500,181.03125 C 59.104135,179.90523 59.106947,177.37550 59.312500,174.90625 C 59.518053,172.43700 59.936587,169.93120 60.343750,168.78125 C 60.490837,168.36582 60.716410,167.49035 61.062500,166.18750 C 61.408590,164.88465 61.846654,163.22633 62.312500,161.46875 C 63.244191,157.95359 64.293561,154.05247 64.937500,152.12500 C 65.182859,151.39058 65.395077,150.78904 65.531250,150.31250 C 65.599337,150.07423 65.662051,149.88277 65.687500,149.65625 C 65.712949,149.42973 65.791903,149.10005 65.437500,148.68750 C 65.145699,148.34784 64.622499,148.31583 64.375000,148.37500 z " id="path4983" inkscape:original="M 64.750000 149.28125 C 64.470433 148.95583 62.830700 150.52822 58.406250 154.28125 C 56.191599 156.15983 54.445400 157.11884 53.500000 160.21875 C 52.889789 162.21962 50.329470 169.71409 50.000000 171.87500 C 49.692589 173.89123 50.428500 177.32595 51.781250 180.18750 C 52.266669 181.21434 54.954940 187.83752 55.718750 189.46875 C 56.482569 191.09997 59.363090 195.80020 59.718750 195.81250 C 59.929469 195.81980 60.222250 195.63986 60.406250 195.40625 C 61.071459 194.56170 61.189280 193.12807 60.687500 191.68750 C 60.408209 190.88571 59.127350 185.99663 59.000000 184.96875 C 58.872659 183.94087 58.630570 182.23099 58.437500 181.18750 C 57.943209 178.51631 58.553320 171.14247 59.500000 168.46875 C 59.897019 167.34742 62.763900 155.82433 64.093750 151.84375 C 64.588273 150.36351 64.917740 149.47651 64.750000 149.28125 z " inkscape:radius="0.89456105" sodipodi:type="inkscape:offset" style="opacity:1.0000000;fill:#efdfa3;fill-opacity:1.0000000;stroke:none;stroke-width:2.1300001;stroke-linecap:round;stroke-linejoin:round;stroke-miterlimit:4.0000000;stroke-dasharray:none;stroke-opacity:1.0000000"/>
      </g>
      <path d="M 169.87500,179.96875 C 169.49195,179.96875 168.95718,180.14173 168.65625,180.53125 C 168.35532,180.92077 168.30352,181.35557 168.28125,181.81250 C 168.23671,182.72635 168.41125,183.96514 168.75000,185.96875 C 168.92753,187.01879 169.11299,189.05853 169.18750,190.37500 C 169.27059,191.84311 169.86922,197.86111 170.06250,200.93750 C 170.79786,212.64124 171.27567,223.63340 171.43750,232.18750 C 171.51842,236.46455 171.51185,240.13922 171.43750,242.96875 C 171.36315,245.79828 171.19338,247.83069 171.00000,248.62500 C 170.62398,250.16952 170.34531,253.37533 170.21875,257.12500 C 169.81315,269.14277 169.58371,272.51856 168.34375,285.62500 C 168.16591,287.50481 167.85488,291.18818 167.65625,293.81250 C 166.96216,302.98324 166.54190,305.12182 166.03125,305.81250 C 165.65165,306.32593 164.82907,307.05573 164.00000,307.59375 C 163.17093,308.13177 162.21277,308.43706 162.12500,308.43750 C 161.18954,308.44219 159.99885,308.79202 158.65625,309.25000 C 157.31365,309.70798 155.89640,310.29453 154.81250,310.90625 C 153.63294,311.57195 152.47194,312.48632 151.59375,313.34375 C 151.15465,313.77246 150.76526,314.18817 150.50000,314.59375 C 150.36737,314.79654 150.26182,314.99651 150.18750,315.25000 C 150.11318,315.50349 150.08012,315.87400 150.31250,316.25000 C 150.54543,316.62689 150.89089,316.79698 151.18750,316.87500 C 151.48411,316.95302 151.78564,316.94754 152.09375,316.93750 C 152.70996,316.91743 153.39276,316.79896 154.15625,316.59375 C 155.68323,316.18333 157.42869,315.46058 158.84375,314.56250 C 159.16957,314.35571 159.42313,314.33070 159.71875,314.25000 C 159.30302,314.65994 158.77294,315.16582 158.15625,315.65625 C 156.74592,316.77783 155.07342,318.37051 153.65625,319.84375 C 152.94766,320.58037 152.28210,321.26802 151.78125,321.87500 C 151.28040,322.48198 150.92957,322.90663 150.71875,323.43750 C 150.58230,323.78112 150.52841,324.19372 150.62500,324.59375 C 150.72159,324.99378 150.96627,325.33986 151.25000,325.56250 C 151.71301,325.92584 152.44099,326.07898 153.06250,325.90625 C 153.68401,325.73352 154.25948,325.36254 155.00000,324.81250 C 155.47446,324.46010 156.91023,323.54671 158.06250,322.87500 C 159.35843,322.11957 161.28597,320.63364 162.53125,319.46875 C 163.32145,318.72955 163.75301,318.45780 164.15625,318.18750 C 163.97284,318.62405 163.69570,319.15603 163.34375,319.62500 C 162.84771,320.28596 162.53893,320.86550 162.53125,321.53125 C 162.52357,322.19700 163.07777,322.89194 163.68750,323.06250 C 164.29723,323.23306 164.89306,323.11995 165.53125,322.87500 C 166.16944,322.63005 166.84148,322.23112 167.53125,321.65625 C 170.12405,319.49537 172.36931,317.00117 172.84375,314.71875 C 173.04983,313.72742 172.61995,312.97455 172.21875,312.00000 C 171.81755,311.02545 171.31956,309.91135 170.96875,308.81250 C 170.73578,308.08279 170.61055,305.47550 170.78125,301.81250 C 170.95195,298.14950 171.34507,293.31201 172.00000,287.68750 C 172.27942,285.28785 172.60406,280.54487 172.71875,277.06250 C 172.77527,275.34654 172.86649,273.62087 172.96875,272.21875 C 173.07101,270.81663 173.19457,269.65818 173.25000,269.40625 C 173.47338,268.39105 173.67076,266.31328 173.75000,264.50000 C 174.02487,258.21077 174.23777,254.11368 174.46875,251.43750 C 174.69973,248.76132 174.98592,247.47973 175.18750,247.06250 C 175.32021,246.78782 175.45728,246.60474 175.71875,246.31250 C 175.98022,246.02026 176.34833,245.65765 176.71875,245.09375 C 177.35971,244.11803 177.96876,243.17520 177.96875,241.12500 C 177.96875,239.85740 177.57667,238.71064 176.81250,237.37500 C 175.88343,235.75115 175.43476,234.82517 175.15625,233.37500 C 174.87774,231.92483 174.79512,229.87578 174.71875,226.21875 C 174.64061,222.47685 174.50661,217.28726 174.40625,214.65625 C 174.30665,212.04450 174.13432,206.98414 174.03125,203.43750 C 173.90921,199.23799 173.58214,195.56794 173.12500,192.96875 C 172.75122,190.84339 172.32000,187.93301 172.15625,186.56250 C 171.82185,183.76380 171.65234,182.34162 171.43750,181.46875 C 171.33008,181.03231 171.24749,180.66586 170.90625,180.34375 C 170.56501,180.02164 170.08535,179.96875 169.87500,179.96875 z " id="path5003" inkscape:original="M 169.87500 180.87500 C 168.98976 180.87500 168.95235 181.83400 169.62500 185.81250 C 169.81458 186.93383 170.01706 188.95745 170.09375 190.31250 C 170.17044 191.66755 170.77284 197.75676 170.96875 200.87500 C 172.44091 224.30537 172.83202 244.91286 171.87500 248.84375 C 171.54800 250.18693 171.25054 253.43668 171.12500 257.15625 C 170.71921 269.17963 170.49037 272.60802 169.25000 285.71875 C 169.07319 287.58764 168.76053 291.25856 168.56250 293.87500 C 167.86764 303.05592 167.54203 305.27248 166.75000 306.34375 C 165.76258 307.67931 163.20816 309.33834 162.12500 309.34375 C 160.77851 309.35050 157.26446 310.55060 155.25000 311.68750 C 153.06496 312.92066 150.71145 315.21324 151.06250 315.78125 C 151.56694 316.59746 155.75562 315.47491 158.37500 313.81250 C 159.71829 312.95997 161.25000 312.94085 161.25000 313.78125 C 161.25000 314.08090 160.12041 315.22906 158.71875 316.34375 C 156.00105 318.50503 152.00899 322.65695 151.56250 323.78125 C 151.38001 324.24080 151.46661 324.57233 151.81250 324.84375 C 152.40829 325.31129 153.05614 325.14299 154.46875 324.09375 C 155.02942 323.67732 156.44963 322.77892 157.62500 322.09375 C 158.80036 321.40860 160.72170 319.92058 161.90625 318.81250 C 164.02534 316.83019 164.96062 316.38076 165.25000 317.21875 C 165.42734 317.73227 164.89058 319.05286 164.06250 320.15625 C 162.33529 322.45772 164.46633 323.05430 166.96875 320.96875 C 169.47553 318.87956 171.59817 316.31401 171.96875 314.53125 C 172.16139 313.60456 170.86880 311.42358 170.12500 309.09375 C 169.43431 306.93031 169.81175 298.87188 171.12500 287.59375 C 171.39702 285.25766 171.69863 280.48869 171.81250 277.03125 C 171.92637 273.57383 172.18995 270.05974 172.37500 269.21875 C 172.56005 268.37776 172.76616 266.24417 172.84375 264.46875 C 173.39384 251.88235 173.73047 248.02153 174.37500 246.68750 C 174.75078 245.90974 175.30845 245.59893 175.96875 244.59375 C 176.62630 243.59277 177.06251 243.03911 177.06250 241.12500 C 177.06250 240.02491 176.75393 239.07562 176.03125 237.81250 C 174.14884 234.52239 173.96552 233.57738 173.81250 226.25000 C 173.73445 222.51223 173.59980 217.30393 173.50000 214.68750 C 173.40022 212.07106 173.22819 207.01963 173.12500 203.46875 C 173.00381 199.29839 172.69394 195.64916 172.25000 193.12500 C 171.87202 190.97579 171.44872 188.05791 171.28125 186.65625 C 170.61296 181.06308 170.54999 180.87501 169.87500 180.87500 z " inkscape:radius="0.89577794" sodipodi:type="inkscape:offset" style="opacity:1.0000000;fill:#efdfa3;fill-opacity:1.0000000;stroke:none;stroke-width:2.1300001;stroke-linecap:round;stroke-linejoin:round;stroke-miterlimit:4.0000000;stroke-dasharray:none;stroke-opacity:1.0000000"/>
      <path d="M 146.46875,182.15625 C 146.22853,182.19987 146.05602,182.41218 146.06250,182.65625 L 146.21875,188.18750 C 146.31118,196.37104 146.28184,221.96974 146.18750,224.84375 C 146.13801,226.35095 146.04805,230.78812 146.03125,232.62500 C 146.02346,233.47690 145.84948,234.71148 145.65625,235.81250 C 145.46302,236.91352 145.24974,237.84869 145.18750,238.21875 C 144.74702,240.83772 143.93336,245.11345 142.93750,249.78125 C 141.95026,254.40864 141.63049,256.06727 140.90625,260.68750 C 140.74882,261.69190 140.27521,264.19727 139.87500,266.25000 C 138.80252,271.75080 138.54498,273.22726 138.31250,275.12500 C 138.20100,276.03509 137.90214,277.86042 137.65625,279.15625 C 137.40678,280.47095 136.95377,283.00036 136.65625,284.78125 C 136.35995,286.55487 135.86711,289.44385 135.56250,291.21875 C 135.25572,293.00626 134.81506,295.99882 134.56250,297.87500 C 134.04316,301.73286 133.79676,303.61022 133.56250,304.50000 C 133.44537,304.94489 133.35268,305.11857 133.28125,305.18750 C 133.20982,305.25643 133.07046,305.29523 132.78125,305.40625 C 132.64227,305.45960 132.05501,305.59379 131.34375,305.68750 C 130.63249,305.78121 129.76620,305.85701 128.93750,305.90625 C 125.46141,306.11284 122.61315,306.90754 118.65625,308.65625 C 117.34384,309.23627 116.63069,309.55553 116.15625,309.87500 C 115.68181,310.19447 115.46151,310.51530 115.18750,310.90625 C 114.98027,311.20192 114.90394,311.61062 115.09375,311.96875 C 115.28356,312.32688 115.69587,312.56714 116.18750,312.65625 C 117.17077,312.83446 118.69109,312.55263 121.18750,311.40625 C 122.91270,310.61402 124.01854,310.45853 124.62500,310.50000 C 124.92823,310.52074 125.08088,310.57595 125.15625,310.62500 C 125.15204,310.71967 125.11731,310.81488 124.87500,311.00000 C 124.61004,311.20242 124.16812,311.41986 123.65625,311.65625 C 122.63252,312.12903 121.34223,312.66210 120.34375,313.53125 C 119.80786,313.99774 117.96597,315.52744 116.21875,317.06250 C 115.34514,317.83003 114.48965,318.60507 113.81250,319.25000 C 113.47393,319.57247 113.20077,319.87595 112.96875,320.12500 C 112.73673,320.37405 112.55562,320.56055 112.43750,320.78125 C 112.12470,321.36573 111.97915,321.92623 112.12500,322.43750 C 112.27085,322.94877 112.83731,323.30518 113.40625,323.28125 C 114.94702,323.21645 116.70785,322.25504 118.50000,321.03125 C 120.29215,319.80746 122.09417,318.29861 123.56250,316.96875 C 124.86387,315.79011 126.86387,314.36670 127.81250,313.93750 C 128.69476,313.53834 129.17445,313.37216 129.37500,313.34375 C 129.47527,313.32954 129.47281,313.33121 129.50000,313.34375 C 129.52719,313.35629 129.60958,313.39082 129.71875,313.50000 C 129.95258,313.73384 129.96270,313.89970 129.90625,314.06250 C 129.84980,314.22530 129.63687,314.43227 129.21875,314.59375 C 128.53274,314.85871 127.91470,315.39480 127.43750,315.96875 C 127.19890,316.25573 127.01245,316.54077 126.87500,316.84375 C 126.73755,317.14673 126.61716,317.46649 126.68750,317.81250 C 126.76622,318.19980 127.07857,318.48504 127.40625,318.62500 C 127.73393,318.76496 128.12238,318.81919 128.53125,318.81250 C 129.34898,318.79912 130.32721,318.54647 131.28125,318.09375 C 132.44041,317.54370 134.35442,316.28700 136.15625,314.71875 C 137.95808,313.15050 139.63122,311.30639 140.15625,309.46875 C 140.41130,308.57607 140.24663,307.74059 139.84375,307.09375 C 139.44087,306.44691 138.82372,305.98525 138.18750,305.65625 L 137.43750,305.25000 L 137.56250,302.78125 C 137.65972,301.29360 138.01600,298.80667 138.31250,297.34375 C 138.61887,295.83210 139.00975,293.48804 139.18750,292.06250 C 139.35534,290.71647 140.31262,284.98409 140.53125,283.06250 C 140.63300,282.16815 140.90212,280.82748 141.15625,279.65625 C 141.41038,278.48502 141.64904,277.50601 141.71875,277.12500 C 141.84346,276.44337 142.73570,271.23549 142.90625,269.96875 C 143.21143,267.70199 143.64203,264.99700 144.03125,262.75000 C 144.22586,261.62650 144.40599,260.62026 144.56250,259.84375 C 144.71901,259.06724 144.86323,258.48816 144.90625,258.37500 C 144.98701,258.16258 145.01837,257.89622 145.09375,257.53125 C 145.16913,257.16628 145.25326,256.71382 145.34375,256.25000 C 145.52474,255.32237 145.74431,254.31941 145.90625,253.81250 C 146.02543,253.43942 146.09424,252.92369 146.18750,252.21875 C 146.28076,251.51381 146.39746,250.62744 146.53125,249.68750 C 146.79882,247.80762 147.18741,245.61211 147.84375,243.81250 C 148.27926,242.61838 148.95349,241.65325 152.00000,239.59375 C 152.76584,239.07603 153.32403,238.34739 153.53125,237.43750 C 153.73847,236.52761 153.58167,235.45216 153.06250,234.31250 C 152.45945,232.98872 151.36760,232.30401 150.37500,231.81250 C 149.08161,231.17206 148.87216,230.37069 148.65625,229.43750 C 148.28905,227.85037 148.26232,223.36203 148.34375,221.53125 C 148.42796,219.63752 148.44938,215.99590 148.65625,213.03125 C 148.86746,210.00434 149.08592,202.04903 149.12500,195.31250 L 149.18750,183.09375 C 149.19398,182.84968 149.02147,182.63737 148.78125,182.59375 L 146.65625,182.15625 C 146.59432,182.14430 146.53068,182.14430 146.46875,182.15625 z " id="path5005" inkscape:original="M 146.56250 182.65625 L 146.71875 188.18750 C 146.81132 196.38371 146.78480 221.91084 146.68750 224.87500 C 146.63841 226.37010 146.54797 230.79713 146.53125 232.62500 C 146.51453 234.45288 145.79751 237.65841 145.68750 238.31250 C 145.24448 240.94655 144.40305 245.20280 143.40625 249.87500 C 142.41985 254.49847 142.13013 256.13209 141.40625 260.75000 C 141.24514 261.77789 140.77580 264.28798 140.37500 266.34375 C 139.30280 271.84312 139.04329 273.30356 138.81250 275.18750 C 138.69802 276.12195 138.40449 277.94179 138.15625 279.25000 C 137.90801 280.55822 137.45286 283.09956 137.15625 284.87500 C 136.85965 286.65044 136.36720 289.53707 136.06250 291.31250 C 135.75779 293.08794 135.31408 296.06862 135.06250 297.93750 C 134.02399 305.65197 134.08170 305.44778 132.96875 305.87500 C 132.45243 306.07321 130.65074 306.30631 128.96875 306.40625 C 125.54869 306.60951 122.76986 307.35865 118.84375 309.09375 C 116.22996 310.24891 116.14527 310.40061 115.59375 311.18750 C 115.12502 311.85627 116.06662 313.21987 120.96875 310.96875 C 124.51251 309.34141 125.66392 310.14910 125.68750 310.56250 C 125.75975 311.82900 122.46846 312.32876 120.65625 313.90625 C 119.55771 314.86253 113.40393 320.01168 112.87500 321.00000 C 112.32715 322.02369 112.56119 322.81548 113.37500 322.78125 C 116.05752 322.66843 120.30103 319.23632 123.21875 316.59375 C 124.55871 315.38016 126.52661 313.98282 127.59375 313.50000 C 129.36630 312.69805 129.56950 312.66324 130.06250 313.15625 C 130.72946 313.82324 130.43249 314.66615 129.40625 315.06250 C 128.27616 315.49898 127.04080 316.99715 127.18750 317.71875 C 127.35388 318.53728 129.27393 318.50498 131.06250 317.65625 C 133.22555 316.62983 138.74917 312.62793 139.68750 309.34375 C 140.12507 307.81227 139.12001 306.68908 137.96875 306.09375 L 136.90625 305.53125 L 137.06250 302.75000 C 137.16232 301.22260 137.50948 298.74511 137.81250 297.25000 C 138.11551 295.75490 138.51273 293.40167 138.68750 292.00000 C 138.86228 290.59834 139.81862 284.86888 140.03125 283.00000 C 140.24388 281.13112 141.09908 277.68537 141.21875 277.03125 C 141.33842 276.37715 142.24270 271.12102 142.40625 269.90625 C 143.01890 265.35565 144.11001 259.04884 144.43750 258.18750 C 144.62408 257.69675 145.07527 254.79011 145.43750 253.65625 C 145.79972 252.52239 146.01787 247.37736 147.37500 243.65625 C 147.84114 242.37815 148.63758 241.27043 151.71875 239.18750 C 153.07748 238.26898 153.59699 236.66490 152.62500 234.53125 C 152.08815 233.35280 151.11256 232.72354 150.15625 232.25000 C 148.71987 231.53876 148.40895 230.51963 148.18750 229.56250 C 147.77999 227.80113 147.76063 223.36888 147.84375 221.50000 C 147.92686 219.63111 147.94760 215.99020 148.15625 213.00000 C 148.36490 210.00978 148.58597 202.04046 148.62500 195.31250 L 148.68750 183.09375 L 146.56250 182.65625 z " inkscape:radius="0.49478632" sodipodi:type="inkscape:offset" style="opacity:1.0000000;fill:#efdfa3;fill-opacity:1.0000000;stroke:none;stroke-width:2.1300001;stroke-linecap:round;stroke-linejoin:round;stroke-miterlimit:4.0000000;stroke-dasharray:none;stroke-opacity:1.0000000"/>
      <path d="M 94.968750,49.531250 C 93.057444,49.673706 90.866149,50.539133 89.000000,51.437500 C 87.133851,52.335867 85.631567,53.271776 85.093750,53.687500 C 84.539477,54.115944 83.448336,55.241531 82.375000,56.375000 C 81.301664,57.508469 80.266227,58.644866 79.968750,58.937500 C 78.425812,60.455355 76.487745,63.682412 74.656250,67.468750 C 72.824755,71.255088 71.128272,75.575046 70.156250,79.187500 C 69.729662,80.772902 68.986929,83.447252 68.500000,85.125000 C 68.010013,86.813305 67.484483,88.788887 67.312500,89.562500 C 67.145710,90.312773 66.799341,91.942737 66.531250,93.156250 C 66.258174,94.392344 65.906094,96.383472 65.781250,97.656250 C 65.641725,99.078595 65.412507,100.22275 65.093750,101.00000 C 64.774993,101.77725 64.381106,102.14642 64.062500,102.21875 C 63.655525,102.31115 62.683533,102.51579 61.875000,102.68750 C 60.977787,102.87804 59.732988,103.45404 58.937500,103.96875 C 57.050490,105.18970 55.161195,106.99942 53.625000,108.68750 C 52.088805,110.37558 50.917675,111.93803 50.468750,112.78125 C 49.477626,114.64287 48.692763,116.25407 48.218750,118.84375 C 48.073115,119.63940 48.037062,121.07744 48.093750,122.43750 C 48.122094,123.11753 48.170245,123.78630 48.250000,124.31250 C 48.289877,124.57560 48.316923,124.80363 48.375000,125.00000 C 48.433077,125.19637 48.502548,125.34630 48.656250,125.50000 C 48.886850,125.73060 49.184917,125.76920 49.500000,125.75000 C 49.815083,125.73080 50.181423,125.63608 50.593750,125.50000 C 51.135353,125.32126 52.263970,125.27076 53.343750,125.34375 C 54.423530,125.41674 55.480411,125.62400 55.875000,125.84375 C 56.010439,125.91918 56.084091,125.92692 56.218750,125.96875 C 56.353409,126.01058 56.513312,126.05138 56.718750,126.12500 C 57.129627,126.27223 57.685123,126.51996 58.281250,126.87500 C 59.473504,127.58509 60.898230,128.79664 61.937500,130.96875 C 62.628110,132.41216 62.552144,135.09709 62.031250,136.34375 C 61.807918,136.87825 60.979638,137.95644 60.250000,138.56250 C 59.689298,139.02825 59.295506,139.40830 59.031250,139.81250 C 58.766994,140.21670 58.624717,140.63747 58.593750,141.12500 C 58.578136,141.37076 58.449982,142.02469 58.250000,142.78125 C 58.050018,143.53781 57.790867,144.42384 57.500000,145.25000 C 56.930232,146.86829 56.316482,148.77078 55.906250,150.28125 C 55.701134,151.03649 55.536233,151.69646 55.468750,152.18750 C 55.435008,152.43302 55.413949,152.62488 55.437500,152.81250 C 55.449276,152.90631 55.492776,153.01765 55.562500,153.12500 C 55.632224,153.23235 55.786485,153.34375 55.937500,153.34375 C 56.098056,153.34375 56.181374,153.27097 56.281250,153.21875 C 56.381126,153.16653 56.491039,153.10854 56.593750,153.03125 C 56.799173,152.87667 57.023914,152.68825 57.218750,152.46875 C 57.226900,152.45957 57.341712,152.32652 57.500000,152.18750 C 57.658288,152.04848 57.850381,151.86212 58.093750,151.65625 C 58.580488,151.24451 59.226029,150.73268 59.843750,150.21875 C 60.461471,149.70482 61.052953,149.21625 61.531250,148.81250 C 61.770398,148.61062 61.969646,148.41735 62.125000,148.28125 C 62.280354,148.14515 62.380937,148.07456 62.468750,147.96875 C 62.543532,147.87864 62.802764,147.65451 63.125000,147.43750 C 63.447236,147.22049 63.830600,146.99458 64.187500,146.81250 C 64.751789,146.52462 65.123294,146.39925 65.625000,146.34375 C 66.126706,146.28825 66.788604,146.33569 67.875000,146.43750 L 70.437500,146.68750 C 70.557450,146.69725 70.674407,146.64677 70.749587,146.55279 C 70.824767,146.45882 70.848344,146.33363 70.812500,146.21875 L 70.593750,145.40625 C 70.264938,144.20513 70.124819,143.44045 70.156250,142.87500 C 70.187681,142.30955 70.361966,141.91603 70.781250,141.34375 C 71.281058,140.66157 71.983503,139.49367 72.375000,138.71875 C 72.746065,137.98431 73.366576,136.90861 73.718750,136.37500 C 74.096947,135.80194 74.587230,135.01859 74.812500,134.50000 C 75.012537,134.03948 75.380248,133.14415 75.656250,132.56250 C 76.156731,131.50783 76.407534,130.69092 77.843750,125.40625 C 78.547715,122.81601 78.814485,117.69601 78.375000,115.06250 C 78.242711,114.26982 77.916327,113.06769 77.593750,112.28125 C 76.594363,109.84477 73.364895,104.19792 71.937500,102.37500 C 71.217901,101.45600 70.870100,100.78793 70.843750,100.50000 C 70.830575,100.35603 70.871327,100.33665 70.937500,100.28125 C 71.003673,100.22585 71.149707,100.15855 71.437500,100.12500 C 71.719289,100.09215 71.909945,100.09037 72.125000,100.21875 C 72.340055,100.34713 72.598710,100.61831 72.937500,101.06250 C 73.200168,101.40688 73.475561,101.73049 73.718750,101.96875 C 73.840344,102.08788 73.953156,102.17086 74.062500,102.25000 C 74.171844,102.32914 74.240171,102.43750 74.468750,102.43750 C 74.681757,102.43750 74.824934,102.28124 74.875000,102.18750 C 74.925066,102.09376 74.917433,102.00321 74.937500,101.90625 C 74.977633,101.71234 75.019742,101.46713 75.031250,101.15625 C 75.054265,100.53448 75.038246,99.637770 74.968750,98.531250 C 74.891385,97.299538 75.113553,95.238099 75.375000,93.375000 C 75.636447,91.511901 75.901222,89.880657 75.968750,89.375000 C 75.986307,89.243544 76.205382,88.476391 76.500000,87.500000 C 76.794618,86.523609 77.198462,85.268221 77.625000,83.968750 C 78.478077,81.369807 79.464260,78.553384 80.031250,77.250000 C 80.769145,75.553750 82.960915,72.582793 85.343750,69.906250 C 87.726585,67.229707 90.325915,64.784693 91.750000,64.031250 C 94.562003,62.543505 97.392165,62.563987 100.15625,64.125000 C 102.39414,65.388838 103.82230,67.293530 105.03125,70.718750 C 106.52260,74.944091 107.04426,79.177226 107.37500,89.812500 C 107.53501,94.958041 107.85651,100.37674 108.06250,101.93750 C 108.25917,103.42746 108.45288,105.34814 108.56250,106.25000 C 108.62034,106.72580 108.74341,107.20083 108.87500,107.56250 C 108.94079,107.74333 109.00966,107.89548 109.09375,108.03125 C 109.17784,108.16702 109.26657,108.29743 109.46875,108.37500 C 109.69360,108.46129 109.81135,108.40779 110.00000,108.37500 C 110.18865,108.34221 110.40568,108.29478 110.65625,108.21875 C 111.15738,108.06668 111.78640,107.84356 112.40625,107.56250 C 114.12947,106.78117 114.96917,106.13197 115.81250,104.90625 L 116.87500,103.34375 C 116.92314,103.25812 116.93441,103.15661 116.90625,103.06250 C 116.90625,103.06250 115.86197,95.623075 115.75000,94.718750 C 115.63526,93.792173 115.09338,88.900890 114.90625,85.593750 C 114.81077,83.906213 114.52411,81.773226 114.25000,79.875000 C 113.97589,77.976774 113.71398,76.308046 113.65625,75.625000 C 113.52649,74.090097 112.73598,71.321389 112.50000,70.031250 C 112.19425,68.359729 110.79546,63.347117 109.00000,59.750000 C 107.07981,55.902977 103.08225,51.716847 99.906250,50.281250 C 98.981056,49.863049 98.391535,49.637058 97.687500,49.531250 C 96.985224,49.425706 96.210124,49.438728 94.968750,49.531250 z " id="path4991" inkscape:original="M 97.625000 49.875000 C 96.975743 49.777424 96.237810 49.813994 95.000000 49.906250 C 91.352273 50.178128 86.279600 53.221196 85.312500 53.968750 C 84.345403 54.716301 80.869070 58.547768 80.218750 59.187500 C 77.290193 62.068448 72.426410 72.121875 70.500000 79.281250 C 70.072563 80.869806 69.331910 83.536760 68.843750 85.218750 C 68.355593 86.900750 67.822440 88.908696 67.656250 89.656250 C 67.490063 90.403810 67.143370 92.003976 66.875000 93.218750 C 66.606633 94.433530 66.278640 96.439742 66.156250 97.687500 C 65.872773 100.57732 65.152090 102.33641 64.156250 102.56250 C 63.736903 102.65771 62.743620 102.86005 61.937500 103.03125 C 61.131369 103.20245 59.878920 103.79344 59.125000 104.28125 C 55.437959 106.66687 51.603680 111.39273 50.781250 112.93750 C 49.793429 114.79292 49.028620 116.35969 48.562500 118.90625 C 48.297599 120.35348 48.401300 124.74505 48.906250 125.25000 C 49.107919 125.45167 49.684610 125.41504 50.468750 125.15625 C 51.760259 124.73002 55.025740 124.95386 56.062500 125.53125 C 56.359459 125.69663 60.106320 126.33213 62.250000 130.81250 C 63.011659 132.40441 62.956340 135.07742 62.375000 136.46875 C 62.102589 137.12071 61.249860 138.19494 60.468750 138.84375 C 59.369579 139.75679 59.025350 140.26517 58.968750 141.15625 C 58.928519 141.78948 58.433050 143.70119 57.843750 145.37500 C 56.708539 148.59930 55.365690 152.96874 55.937500 152.96875 C 56.121159 152.96875 56.581480 152.61983 56.937500 152.21875 C 57.293519 151.81765 61.927770 148.06295 62.187500 147.75000 C 62.447229 147.43704 63.287860 146.87925 64.031250 146.50000 C 65.192263 145.90770 65.722600 145.85787 67.906250 146.06250 L 70.468750 146.31250 L 70.250000 145.50000 C 69.586483 143.07624 69.621480 142.32408 70.500000 141.12500 C 70.979243 140.47089 71.684820 139.31007 72.062500 138.56250 C 72.440183 137.81496 73.036230 136.74815 73.406250 136.18750 C 73.776263 135.62684 74.267020 134.80815 74.468750 134.34375 C 74.670483 133.87933 75.064060 132.99567 75.343750 132.40625 C 75.832873 131.37552 76.064000 130.59637 77.500000 125.31250 C 78.177283 122.82044 78.453340 117.65428 78.031250 115.12500 C 77.906493 114.37745 77.556630 113.15381 77.250000 112.40625 C 76.281143 110.04420 73.019590 104.33487 71.656250 102.59375 C 70.189663 100.72077 70.104460 99.901760 71.406250 99.750000 C 72.076423 99.671883 72.516200 99.922636 73.218750 100.84375 C 73.724963 101.50743 74.285480 102.06250 74.468750 102.06250 C 74.679083 102.06250 74.731820 100.76086 74.593750 98.562500 C 74.430723 95.966989 75.500210 90.246940 75.625000 89.312500 C 75.749803 88.378067 78.524120 79.768103 79.687500 77.093750 C 81.247193 73.508377 88.512140 65.349143 91.593750 63.718750 C 94.497473 62.182479 97.486439 62.198838 100.34375 63.812500 C 102.66145 65.121413 104.14995 67.122926 105.37500 70.593750 C 106.88278 74.865635 107.41898 79.168114 107.75000 89.812500 C 107.90982 94.951930 108.20892 100.37989 108.40625 101.87500 C 108.60360 103.37011 108.82827 105.32014 108.93750 106.21875 C 109.04674 107.11734 109.34816 107.93702 109.59375 108.03125 C 109.83934 108.12550 111.03834 107.76815 112.25000 107.21875 C 113.94733 106.44916 114.68332 105.87449 115.50000 104.68750 L 116.56250 103.12500 C 116.56250 103.12500 115.52195 95.684440 115.40625 94.750000 C 115.29054 93.815567 114.71959 88.953490 114.53125 85.625000 C 114.34292 82.296511 113.40369 77.104838 113.28125 75.656250 C 113.15879 74.207667 112.40011 71.426982 112.15625 70.093750 C 111.86322 68.491773 110.45593 63.449218 108.68750 59.906250 C 106.81219 56.149148 102.78571 51.997183 99.750000 50.625000 C 98.827703 50.208109 98.274260 49.972576 97.625000 49.875000 z " inkscape:radius="0.36205858" sodipodi:type="inkscape:offset" style="opacity:1.0000000;fill:#f8b1ee;fill-opacity:1.0000000;stroke:none;stroke-width:2.1300001;stroke-linecap:round;stroke-linejoin:round;stroke-miterlimit:4.0000000;stroke-dasharray:none;stroke-opacity:1.0000000"/>
      <path d="M 171.31250,106.34375 C 164.19667,106.66718 161.47246,107.15754 154.12500,109.46875 C 144.15897,112.60365 139.12690,114.81688 133.56250,118.59375 C 130.24739,120.84390 126.76987,124.13112 123.96875,127.40625 C 121.16763,130.68138 119.03477,133.88376 118.53125,136.25000 C 118.34868,137.10797 118.01603,137.81788 117.65625,138.25000 C 117.29647,138.68212 116.96448,138.81333 116.68750,138.78125 C 116.51018,138.76071 116.40795,138.73242 116.37500,138.71875 C 116.36119,138.69653 116.26479,138.39085 116.21875,137.75000 C 116.17088,137.08375 116.36378,135.66941 116.62500,134.90625 C 117.10994,133.48941 117.22501,131.06998 117.37500,123.87500 C 117.47588,119.03587 117.54364,116.57858 117.37500,115.31250 C 117.33284,114.99598 117.27518,114.76980 117.15625,114.53125 C 117.03732,114.29270 116.73263,114.01816 116.40625,114.00000 C 116.07987,113.98184 115.89584,114.09957 115.71875,114.21875 C 115.54166,114.33793 115.36332,114.50081 115.18750,114.65625 C 115.16036,114.68024 114.90560,114.84555 114.56250,115.00000 C 114.21940,115.15445 113.78044,115.31413 113.34375,115.46875 C 112.47037,115.77799 111.48187,116.04075 111.25000,116.06250 C 110.81223,116.10356 110.44733,116.08258 110.09375,116.09375 C 109.74017,116.10492 109.32413,116.16055 109.00000,116.50000 C 108.67587,116.83945 108.58102,117.29278 108.53125,117.87500 C 108.48148,118.45722 108.48681,119.22010 108.53125,120.31250 C 108.56768,121.20816 108.66895,123.71975 108.87500,126.37500 C 109.02210,128.27064 109.56743,133.68326 109.65625,135.03125 C 109.90107,138.74684 112.07469,148.07282 113.59375,151.96875 C 113.92766,152.82513 114.61145,153.44523 115.43750,153.53125 C 116.26355,153.61727 117.12132,153.26452 118.03125,152.62500 C 119.86457,151.33650 123.45859,147.51151 124.81250,142.68750 C 125.01931,141.95062 125.38413,141.24132 125.75000,140.84375 C 125.93293,140.64497 126.11634,140.53677 126.21875,140.50000 C 126.32116,140.46323 126.31984,140.46543 126.37500,140.50000 C 126.65576,140.67597 126.73449,140.84716 126.75000,141.21875 C 126.76551,141.59034 126.64535,142.17540 126.28125,142.96875 C 124.64063,146.54361 124.31690,153.11151 125.53125,157.43750 C 125.89706,158.74067 126.35141,160.42735 126.53125,161.15625 C 127.45239,164.88992 131.20130,171.12480 134.25000,174.09375 C 137.09056,176.85999 143.10663,179.95828 146.87500,180.62500 C 151.87386,181.50942 160.43248,181.11964 165.50000,179.75000 C 166.22872,179.55304 167.71585,179.18200 168.78125,178.93750 C 169.90983,178.67850 172.72774,177.85508 175.12500,177.09375 C 180.27023,175.45971 181.70621,175.20020 185.71875,175.28125 C 188.83722,175.34423 193.06318,176.27192 196.43750,178.18750 C 198.46740,179.33986 200.29538,181.25564 201.90625,182.81250 C 206.18014,186.94301 207.17143,189.08991 209.53125,196.18750 C 210.76139,199.88738 213.39549,204.76268 215.46875,207.06250 C 216.31627,208.00261 218.39938,209.50712 219.62500,210.06250 C 220.13398,210.29314 220.70216,210.36683 221.21875,210.34375 C 221.47704,210.33221 221.73520,210.30042 221.96875,210.21875 C 222.20230,210.13708 222.42150,209.99746 222.59375,209.71875 C 222.81996,209.35278 222.75882,209.05570 222.68750,208.78125 C 222.61618,208.50680 222.48386,208.23028 222.31250,207.96875 C 222.24324,207.86305 222.05995,207.46283 221.87500,206.96875 C 221.69005,206.47467 221.46752,205.88504 221.31250,205.34375 C 220.98740,204.20861 220.34472,202.14990 219.90625,200.75000 C 218.86360,197.42109 217.85767,192.45258 217.18750,187.28125 C 216.88545,184.95037 216.53974,182.01023 216.37500,180.78125 C 216.06929,178.50055 215.52649,171.29205 215.21875,164.87500 C 214.54981,150.92627 213.59475,144.06141 211.37500,137.25000 C 210.66412,135.06863 209.83895,132.79877 209.06250,130.90625 C 208.28605,129.01373 207.61708,127.54744 207.09375,126.81250 C 207.04230,126.74024 206.78337,126.35004 206.46875,125.84375 C 206.15413,125.33746 205.74110,124.69819 205.28125,123.96875 C 204.36155,122.50987 203.26376,120.76632 202.25000,119.37500 C 201.46830,118.30216 199.40538,116.29627 197.00000,114.28125 C 194.59462,112.26623 191.90057,110.29126 189.84375,109.46875 C 184.85000,107.47178 175.25404,106.16460 171.31250,106.34375 z " id="path5001" inkscape:original="M 171.34375 106.93750 C 164.24745 107.26004 161.64317 107.72532 154.31250 110.03125 C 144.36866 113.15917 139.42265 115.34946 133.90625 119.09375 C 127.40228 123.50836 120.02789 132.13196 119.12500 136.37500 C 118.72686 138.24599 117.68667 139.49798 116.62500 139.37500 C 115.82787 139.28268 115.71915 139.09178 115.62500 137.78125 C 115.56667 136.96946 115.76464 135.58896 116.06250 134.71875 C 116.48298 133.49024 116.63137 131.06453 116.78125 123.87500 C 116.98299 114.19798 116.95933 113.88648 115.59375 115.09375 C 115.02022 115.60080 112.12195 116.58033 111.31250 116.65625 C 109.37181 116.83829 108.94869 115.94733 109.12500 120.28125 C 109.16144 121.17708 109.26379 123.70258 109.46875 126.34375 C 109.61377 128.21263 110.15764 133.59834 110.25000 135.00000 C 110.48310 138.53765 112.68675 147.98118 114.15625 151.75000 C 114.71496 153.18293 116.00188 153.30969 117.68750 152.12500 C 119.35120 150.95571 122.91909 147.16197 124.21875 142.53125 C 124.67932 140.89019 125.84510 139.47202 126.68750 140.00000 C 127.53156 140.52903 127.58308 141.53972 126.81250 143.21875 C 125.28401 146.54928 124.96332 153.14289 126.12500 157.28125 C 126.49223 158.58947 126.94056 160.25245 127.12500 161.00000 C 127.98948 164.50400 131.74201 170.81825 134.65625 173.65625 C 137.34394 176.27362 143.42201 179.40374 146.96875 180.03125 C 151.81586 180.88882 160.41697 180.48785 165.34375 179.15625 C 166.09130 178.95420 167.58331 178.58998 168.65625 178.34375 C 169.72918 178.09752 172.55301 177.28852 174.93750 176.53125 C 180.09713 174.89264 181.67466 174.60581 185.71875 174.68750 C 188.94118 174.75258 193.23025 175.67585 196.71875 177.65625 C 198.86026 178.87197 200.71718 180.83317 202.31250 182.37500 C 206.63046 186.54810 207.72880 188.88697 210.09375 196.00000 C 211.29114 199.60139 213.95211 204.48857 215.90625 206.65625 C 216.60490 207.43123 218.81741 209.02076 219.87500 209.50000 C 220.66434 209.85769 221.85082 209.79932 222.09375 209.40625 C 222.21434 209.21115 222.08654 208.73075 221.81250 208.31250 C 221.53845 207.89426 221.06944 206.61538 220.75000 205.50000 C 220.43056 204.38464 219.78277 202.33917 219.34375 200.93750 C 218.28329 197.55171 217.26749 192.54264 216.59375 187.34375 C 216.29102 185.00765 215.94409 182.08978 215.78125 180.87500 C 215.46596 178.52285 214.93330 171.33497 214.62500 164.90625 C 213.95691 150.97529 213.01117 144.18422 210.81250 137.43750 C 209.40108 133.10648 207.45897 128.37133 206.59375 127.15625 C 206.23549 126.65310 203.74560 122.45759 201.75000 119.71875 C 200.38006 117.83858 193.44417 111.55851 189.62500 110.03125 C 184.80048 108.10195 175.09624 106.76694 171.34375 106.93750 z " inkscape:radius="0.60098606" sodipodi:type="inkscape:offset" style="opacity:1.0000000;fill:#f8b1ee;fill-opacity:1.0000000;stroke:none;stroke-width:2.1300001;stroke-linecap:round;stroke-linejoin:round;stroke-miterlimit:4.0000000;stroke-dasharray:none;stroke-opacity:1.0000000"/>
      <g id="g9385" style="fill:#f09de6;fill-opacity:1.0000000">
        <path d="M 165.25000,123.75000 C 161.44776,123.74314 159.86740,123.84335 155.46875,124.81250 C 150.78697,125.84403 147.01471,128.78947 144.34375,131.31250 C 141.70065,133.80920 140.86608,135.37142 139.71875,138.50000 C 139.04644,140.33326 138.78213,142.48626 138.78125,144.50000 C 138.78037,146.51374 138.99457,148.31388 139.53125,149.65625 C 140.56271,152.23614 143.59992,156.63484 145.78125,158.62500 C 147.87984,160.53966 151.35810,162.38639 155.06250,164.03125 C 158.76690,165.67611 162.62860,167.05714 165.34375,167.71875 C 170.78935,169.04568 173.36986,168.54223 178.90625,168.53125 C 181.77211,168.52556 184.29179,168.37584 186.15625,168.18750 C 187.08848,168.09333 187.85858,167.99191 188.43750,167.90625 C 189.01642,167.82059 189.28895,167.76217 189.65625,167.65625 C 189.84939,167.60056 190.03251,167.55241 190.21875,167.46875 C 190.40499,167.38509 190.60015,167.33633 190.90625,166.96875 C 191.05930,166.78496 191.23443,166.45322 191.25000,166.03125 C 191.26557,165.60928 191.09353,165.21789 190.90625,165.00000 C 190.53169,164.56422 190.26440,164.53322 190.06250,164.46875 C 185.35932,162.96693 183.72248,162.44394 181.31250,161.56250 C 179.84810,161.02690 178.19177,160.35002 176.87500,159.81250 C 176.21661,159.54374 175.64254,159.30088 175.21875,159.12500 C 174.79496,158.94912 174.69761,158.88512 174.40625,158.78125 C 173.24020,158.36553 170.66461,157.15355 167.90625,155.31250 C 166.60083,154.44120 165.88852,153.93561 165.21875,153.62500 C 164.88386,153.46969 164.51484,153.31317 163.96875,153.37500 C 163.56196,153.42106 163.29858,153.65399 163.06250,153.84375 C 163.55907,152.79248 163.97760,151.62829 164.28125,150.18750 C 164.75968,147.91741 165.29889,145.88219 165.09375,141.34375 C 165.08837,141.22474 165.06850,141.15092 165.06250,141.03125 C 165.12355,141.13366 165.19702,141.22812 165.28125,141.31250 L 167.03125,143.00000 C 174.12009,149.81965 186.49651,155.28172 195.68750,155.56250 C 196.41530,155.58474 197.07577,155.58900 197.65625,155.53125 C 197.94649,155.50237 198.20357,155.43963 198.46875,155.37500 C 198.73393,155.31037 199.01617,155.35643 199.50000,154.87500 C 199.98443,154.39296 200.01252,153.88923 200.03125,153.53125 C 200.04998,153.17327 199.99852,152.85207 199.93750,152.46875 C 199.81546,151.70211 199.60014,150.74159 199.21875,149.37500 C 197.67925,143.85859 195.99292,140.59774 194.31250,138.21875 C 193.78265,137.46864 192.62321,136.18532 191.09375,134.59375 C 189.56429,133.00218 187.78127,131.27786 186.28125,130.09375 C 183.49613,127.89517 179.16254,125.88224 174.87500,124.71875 C 172.89497,124.18144 170.98232,123.76033 165.25000,123.75000 z M 164.62500,137.09375 C 164.63504,137.22955 164.68025,137.26409 164.68750,137.40625 L 164.71875,137.78125 C 164.69248,137.54044 164.65373,137.32047 164.62500,137.09375 z " id="path5007" inkscape:original="M 165.25000 125.18750 C 161.46844 125.18068 160.13556 125.25937 155.78125 126.21875 C 151.51783 127.15810 147.92647 129.93533 145.34375 132.37500 C 142.78254 134.79435 142.19296 135.91743 141.06250 139.00000 C 139.90425 142.15834 140.08511 147.14931 140.87500 149.12500 C 141.70458 151.19996 144.94828 155.91868 146.75000 157.56250 C 150.40576 160.89785 160.54818 165.06019 165.68750 166.31250 C 170.95527 167.59610 173.28637 167.10490 178.90625 167.09375 C 184.52615 167.08260 188.76013 166.42251 189.25000 166.28125 C 189.85206 166.10765 189.96953 165.95377 189.62500 165.84375 C 184.91995 164.34133 183.24455 163.79576 180.81250 162.90625 C 177.82327 161.81295 174.12869 160.23555 173.90625 160.15625 C 172.53886 159.66875 169.94278 158.40157 167.09375 156.50000 C 164.49149 154.76314 164.18726 154.60035 163.81250 155.00000 C 163.38775 155.45297 163.04313 156.12231 162.09375 157.18750 C 160.32814 159.16847 158.92684 159.73733 158.50000 158.62500 C 158.28554 158.06614 158.52566 157.63303 160.53125 155.25000 C 161.63070 153.94365 162.35093 152.36163 162.87500 149.87500 C 163.36380 147.55573 163.85577 145.82046 163.65625 141.40625 C 163.54053 138.84604 163.21373 135.87305 162.93750 134.81250 C 162.37882 132.66756 162.68193 131.84740 163.93750 132.03125 C 165.16625 132.21118 165.96118 134.13234 166.12500 137.34375 L 166.28125 140.28125 L 168.03125 141.96875 C 174.77538 148.45678 187.08886 153.86136 195.71875 154.12500 C 197.06993 154.16628 198.25545 154.05599 198.46875 153.84375 C 198.73906 153.57477 198.56268 152.43802 197.81250 149.75000 C 196.30614 144.35234 194.71377 141.31174 193.12500 139.06250 C 192.43949 138.09202 188.15777 133.41546 185.37500 131.21875 C 182.84015 129.21774 178.61271 127.24105 174.50000 126.12500 C 172.54006 125.59314 170.91551 125.19771 165.25000 125.18750 z " inkscape:radius="1.4464824" sodipodi:type="inkscape:offset" style="opacity:1.0000000;fill:#f09de6;fill-opacity:1.0000000;stroke:none;stroke-width:2.1300001;stroke-linecap:round;stroke-linejoin:round;stroke-miterlimit:4.0000000;stroke-dasharray:none;stroke-opacity:1.0000000"/>
        <path d="M 166.18120,144.27217 C 166.05694,144.27218 166.14361,145.23529 166.02495,146.11592 C 165.86448,147.30703 165.89327,148.27513 165.52495,149.58467 L 165.14995,151.39717 C 165.14996,151.39717 167.12484,153.75781 169.74370,155.05342 C 171.38104,155.86344 172.93167,157.02354 184.27495,161.17842 C 186.95348,162.15953 190.09234,163.03327 191.58745,163.24092 C 193.02684,163.44083 195.84042,163.80067 197.55620,163.77217 L 200.68120,163.70967 L 200.55620,162.02217 C 200.49873,161.08773 200.23793,159.60115 199.96245,158.74092 L 199.46245,157.17842 L 195.64995,156.99092 C 193.55334,156.88649 191.18689,156.40697 190.30620,156.27217 C 186.00656,155.61399 176.96038,151.80459 173.30620,149.45967 C 172.27831,148.80007 170.98912,147.97304 170.43120,147.64717 C 169.87329,147.32130 168.81301,146.50425 168.08745,145.80342 C 167.36188,145.10259 166.30547,144.27216 166.18120,144.27217 z " id="path1321" style="opacity:1.0000000;fill:#f09de6;fill-opacity:1.0000000;stroke:none;stroke-width:2.1300001;stroke-linecap:round;stroke-linejoin:round;stroke-miterlimit:4.0000000;stroke-dasharray:none;stroke-opacity:1.0000000"/>
      </g>
      <path d="M 97.414925,47.256333 C 97.002905,47.233703 96.560265,47.247810 96.055735,47.288189 C 95.383035,47.342028 94.592595,47.448230 93.602835,47.596130 C 88.817645,48.311173 85.018113,51.383508 83.854918,52.268331 C 81.922075,53.738617 80.397047,55.515444 76.400633,60.954379 C 73.640181,64.711220 70.536901,71.614447 68.808305,77.838017 C 68.444947,79.146233 67.916825,80.828229 67.640255,81.575778 C 67.108708,83.012533 66.264633,86.221170 65.675806,89.051301 C 65.481388,89.985741 64.959784,92.244273 64.518375,94.073918 C 64.076959,95.903562 63.810670,97.698598 63.721977,98.024052 C 63.119752,100.23386 61.572414,100.40667 59.903174,101.37674 C 57.642698,102.69040 56.186425,103.44096 54.037777,105.71194 C 51.974692,107.89249 50.944932,108.84902 50.682286,108.63207 C 50.470913,108.45748 49.717258,108.20248 49.004541,108.06928 C 47.512237,107.79039 45.499373,108.65838 45.160593,109.72579 C 45.006876,110.21010 44.754628,110.31233 44.066873,110.16115 C 36.873185,108.57996 33.230907,109.25426 28.202625,113.09190 C 25.716225,114.98954 24.793219,115.98726 24.528575,117.07389 C 24.064468,118.97955 25.910283,119.37437 27.098286,117.62606 C 28.060678,116.20977 30.795402,113.89588 32.630598,112.93262 C 33.751692,112.34418 34.622807,112.21249 37.621359,112.18931 C 40.109580,112.17009 41.386652,112.29149 41.677679,112.58220 C 42.017887,112.92204 41.652706,113.00695 39.840655,113.00695 C 35.742002,113.00695 32.953092,114.44064 28.956548,118.58174 C 27.541751,120.04770 26.256196,121.78970 25.643533,123.07342 C 24.500277,125.46890 24.410105,126.19699 25.208168,126.50324 C 25.940396,126.78422 27.217939,125.31143 27.671693,123.66806 C 27.908256,122.81130 28.834524,121.64206 30.708624,119.83474 C 33.758087,116.89393 36.546894,115.28224 38.290333,115.44924 L 39.426528,115.55542 L 37.101045,117.30750 C 35.821467,118.27189 34.392562,119.60984 33.936691,120.28072 C 33.480816,120.95159 32.321927,122.03121 31.972242,122.68053 C 31.452044,123.64648 31.418480,123.95538 31.770488,124.37951 C 32.579591,125.35442 33.316219,124.90238 35.253402,122.22393 C 37.124087,119.63742 39.430266,117.76410 40.753858,117.76410 C 41.618701,117.76410 41.394785,118.17727 39.437146,120.11082 C 37.859855,121.66870 33.084236,128.43371 32.758022,128.80749 C 32.183093,129.46624 30.190250,134.71439 29.848514,136.47414 C 29.638483,137.55568 30.550058,138.45204 31.345742,137.95014 C 31.635786,137.76718 32.269455,136.31381 32.758022,134.72207 C 33.246584,133.13033 33.917577,131.42849 34.244631,130.93121 C 34.571685,130.43395 39.158391,123.19724 41.486544,121.28949 C 42.839845,120.18056 43.063272,120.10749 43.589035,120.54618 C 43.912348,120.81596 44.604177,121.20851 45.118119,121.42753 C 45.773495,121.70682 46.052559,122.07764 46.052559,122.65929 C 46.052559,123.11543 46.294318,124.44107 46.594110,125.61128 C 47.024883,127.29275 47.060511,128.00898 46.764008,128.99862 C 46.021492,131.47692 46.208974,132.36472 48.197525,135.85826 C 49.489346,138.12777 52.125653,139.96023 54.653658,140.33933 C 56.753012,140.65414 57.011033,141.06129 56.257072,142.91966 C 55.359653,145.13164 47.693668,171.08552 47.571025,172.48195 C 47.319222,175.34904 47.980041,177.89291 50.225685,182.66523 C 50.885243,184.06689 51.995960,186.58988 52.689209,188.27187 C 53.382462,189.95386 54.610059,192.73277 55.428819,194.44130 C 56.247579,196.14983 57.847157,199.50971 58.964826,199.93114 C 59.953188,200.30381 60.767392,199.55381 61.343401,199.21969 C 62.192892,198.72693 68.025302,181.46745 68.277373,180.62645 C 68.529444,179.78545 72.497999,162.13303 72.800914,160.91825 C 73.522669,158.02383 73.610139,148.41806 72.938956,145.39380 L 72.471736,143.28069 L 73.703498,141.57109 C 74.381318,140.62762 76.390008,136.55090 76.931565,135.36981 C 78.380930,132.20891 79.915050,127.14360 80.467572,123.68930 C 81.371343,118.03903 80.656941,112.72094 78.460649,108.79135 C 77.720379,107.46686 77.545458,106.62706 77.377548,103.56698 C 77.101358,98.533465 77.106020,95.073997 77.388167,93.468655 C 77.850677,90.837098 79.994198,84.190155 80.393242,82.903108 C 82.036647,77.602626 83.986573,74.517706 88.866915,69.502384 C 91.591925,66.702007 92.374485,66.091881 93.900155,65.605343 C 97.037725,64.604765 100.12622,65.708039 101.83227,68.440520 C 104.10118,72.074504 105.51853,80.972313 105.67622,92.619164 C 105.73821,97.197922 105.89284,101.67050 106.02663,102.55821 C 106.29933,104.36750 105.84306,104.74298 105.19838,103.23780 C 104.47653,101.55245 102.64363,99.831426 100.62175,98.937255 C 96.468325,97.100414 93.366085,98.218932 90.427855,102.61130 C 88.974335,104.78417 89.258455,107.10891 91.521575,111.58405 C 92.069145,112.66683 92.067535,112.73248 91.415395,113.18747 C 89.089025,114.81052 87.885215,116.72641 87.359065,119.64360 C 87.045465,121.38238 89.246465,123.87708 91.096835,123.88044 C 91.481605,123.88114 92.062185,124.08503 92.392305,124.32642 C 92.961205,124.74241 92.684605,124.75863 92.413545,126.20592 C 91.964905,128.60132 92.613875,131.57675 94.760265,132.69391 C 96.160275,133.42259 98.532435,133.62302 100.19700,132.92752 C 101.41605,132.41817 104.10775,129.54318 105.25147,127.53325 C 106.06993,126.09492 106.78489,125.88851 107.01417,127.02355 C 107.29861,128.43175 108.32026,134.76431 108.32026,136.38920 C 108.32026,137.27285 109.39762,143.84295 109.57326,144.41689 C 109.74890,144.99082 110.30320,146.83369 110.80502,148.51568 C 111.95152,152.35848 112.67230,153.79662 114.04371,154.95058 C 115.63752,156.29168 117.25993,155.93213 120.17066,153.59139 C 121.41047,152.59437 122.51906,151.87285 122.63419,151.98798 C 122.74931,152.10310 122.84640,152.75181 122.84656,153.42149 C 122.84686,154.71935 123.64911,158.94810 124.26946,160.91825 C 124.93111,163.01959 128.65217,170.44820 130.02476,172.40762 C 131.23916,174.14124 134.70131,177.56829 135.23851,177.56828 C 135.36178,177.56828 136.10010,177.98878 136.88440,178.50272 C 139.30098,180.08626 139.61363,180.26595 141.39732,181.12553 C 143.58274,182.17869 144.06516,182.77044 144.14755,184.50225 C 144.18391,185.26650 144.37150,188.64565 144.56168,192.00963 C 144.75187,195.37362 144.83894,201.33705 144.75282,205.26170 C 144.66669,209.18635 144.50925,216.37303 144.41302,221.23213 C 144.31679,226.09122 144.16779,230.90783 144.07322,231.93572 C 143.65452,236.48680 143.49128,237.64404 143.07507,239.24134 C 142.83158,240.17579 142.29112,242.85168 141.87516,245.18778 C 141.45921,247.52388 140.90684,250.50559 140.64340,251.81381 C 140.37997,253.12203 139.93324,255.41565 139.65587,256.91076 C 139.37850,258.40587 138.85147,261.23467 138.47720,263.19700 C 138.10292,265.15932 137.48775,269.02999 137.11801,271.79810 C 136.74828,274.56620 136.29900,277.39500 136.10924,278.08433 C 135.91949,278.77366 135.52001,281.15732 135.22790,283.38303 C 134.93579,285.60875 134.25065,289.72969 133.69881,292.53630 C 133.14696,295.34292 132.58772,298.70277 132.46705,300.00120 C 132.16527,303.24828 131.58163,303.86108 128.45320,304.15309 C 124.50003,304.52209 121.45994,305.44378 116.34795,307.82714 C 111.20035,310.22712 110.00000,313.04210 113.58711,313.82667 C 117.45390,314.67242 114.44877,316.12263 113.41721,317.07598 C 110.51816,319.75521 110.24303,321.29360 110.37467,322.73962 C 110.53347,324.48417 112.01765,325.43947 113.06679,325.46470 C 115.02255,325.51174 117.18376,324.66045 119.51231,322.88437 C 120.16277,322.38824 121.69653,321.26826 122.34358,320.71520 C 123.73174,319.52866 124.31475,319.71438 125.46936,320.62260 C 126.78571,321.65804 129.17304,321.42491 132.53076,319.93239 C 134.39274,319.10473 140.37108,314.04448 141.38671,312.43563 C 142.80235,310.19311 142.34071,306.87288 140.36732,305.02382 C 139.34037,304.06158 139.31247,303.47606 140.01690,299.55522 C 140.61250,296.24017 140.96464,294.03706 141.72650,289.02153 C 142.74354,282.32607 144.46308,272.91654 144.68910,271.42644 C 144.91512,269.93635 145.21272,267.95415 145.35808,267.01971 C 145.50343,266.08527 145.85645,263.85110 146.23942,261.32812 C 146.62240,258.80513 148.17799,252.07929 148.29944,250.21040 C 148.62955,245.13026 149.27975,243.51893 150.49750,242.80921 C 153.64986,240.97195 154.21651,240.50678 154.81929,239.26258 C 156.14139,236.53359 155.32640,232.57633 153.09907,230.89509 C 150.15102,228.66985 149.95545,228.36101 150.13647,226.24413 C 150.22812,225.17228 150.38926,221.61440 150.49750,218.34386 C 150.60574,215.07332 150.75984,210.94479 150.84791,209.16936 C 150.93600,207.39392 151.09905,201.04822 151.20895,195.06780 C 151.31884,189.08738 151.47874,184.00318 151.55936,183.76957 C 151.65677,183.48732 152.45419,183.34483 153.94856,183.34482 C 155.18542,183.34482 158.13367,183.10024 160.50026,182.79265 C 166.59639,182.00034 166.39787,181.98067 166.73340,183.17492 C 167.37080,185.44359 168.40172,195.14974 168.71909,201.86373 C 168.90460,205.78838 169.22577,211.67535 169.43054,214.94590 C 169.94426,223.15103 170.15796,245.69243 169.73848,247.39646 C 169.11010,249.94902 168.69287,254.82715 168.54919,261.30688 C 168.47021,264.86830 168.23482,269.61914 168.02887,271.86181 C 167.82293,274.10446 167.51798,277.77426 167.34928,280.01692 C 166.82468,286.99103 166.37081,293.16904 166.19185,295.64756 C 165.94145,299.11557 164.97661,304.37151 164.42916,305.24681 C 163.77227,306.29706 162.36792,306.94376 159.48087,307.55106 C 155.33659,308.42284 150.25589,311.43705 149.21264,313.63554 C 148.57139,314.98688 148.49194,317.59764 149.07460,318.18032 C 149.29887,318.40458 149.98696,318.58382 150.60369,318.58382 C 151.22042,318.58382 151.72926,318.74884 151.72926,318.94486 C 151.72926,319.14088 151.09056,320.19464 150.31698,321.29158 C 149.03786,323.10537 148.92422,323.43107 149.08522,324.85944 C 149.18259,325.72329 149.53960,326.73379 149.87100,327.09997 C 150.86076,328.19365 152.48989,327.93469 155.75373,326.18677 C 157.36758,325.32249 158.49390,324.57613 158.88623,324.23294 C 160.93574,322.44017 161.69275,321.20537 162.31605,324.36036 C 162.71150,326.36209 164.74103,325.63002 166.26618,324.70016 C 167.82277,323.75113 173.05884,318.26167 173.86913,316.79989 C 175.02836,314.70858 174.35409,312.97658 173.30634,310.42871 C 172.45877,308.36762 172.45680,307.55318 172.64798,306.01135 C 172.77544,304.98347 173.42524,288.34490 173.65675,287.97028 C 173.86801,287.62847 174.32368,281.45552 174.64429,274.58018 C 174.70529,273.27196 174.92506,270.90188 175.12213,269.31333 C 175.31919,267.72479 175.58047,264.20788 175.70615,261.49801 C 175.83183,258.78814 175.98731,256.47804 176.05657,256.35859 C 176.12583,256.23914 176.26748,254.71242 176.36451,252.97125 C 176.57482,249.19734 176.99629,247.81583 178.45638,246.14346 C 180.75510,243.51051 180.76108,239.78762 178.46700,236.27874 C 177.82367,235.29475 177.13126,233.71964 176.92730,232.78521 C 176.60755,231.32025 176.38479,226.16034 176.03533,211.54793 C 175.81100,202.16771 175.01466,193.12736 174.15583,190.31065 C 173.98488,189.74999 172.69506,180.29496 173.22139,180.12737 C 173.45500,180.05299 174.79295,179.66377 176.19461,179.25665 C 177.59627,178.84952 179.31271,178.30630 180.01732,178.04612 C 182.07602,177.28594 188.19208,177.41338 190.99699,178.27973 C 192.26612,178.67172 193.77976,179.25391 194.35248,179.56459 C 197.98590,181.53559 202.92523,186.44522 204.91803,190.06642 C 206.05838,192.13861 210.86107,204.17677 212.35108,206.24923 C 213.17030,207.38869 214.49757,208.96929 215.29244,209.76400 C 216.92956,211.40077 220.53019,213.24691 222.08837,213.24691 C 223.37088,213.24691 224.02531,212.55019 224.44571,212.05763 C 225.29520,211.06231 226.00242,209.40324 225.17840,208.20306 C 224.18091,206.75021 223.54492,205.15688 222.41755,201.26909 C 220.01690,192.99030 218.52607,182.76211 217.97896,170.94225 C 217.12904,152.58014 216.76208,148.29252 215.94018,144.83101 C 215.55327,143.20150 214.37439,137.84508 213.71027,135.82641 C 213.00524,133.68340 211.17111,129.49324 210.14240,127.27840 C 209.37395,125.62393 206.75120,121.56081 204.77999,118.91091 C 203.34148,116.97715 198.26622,111.97384 193.35433,109.05682 C 189.98932,107.05844 180.66764,103.00901 165.79896,104.67132 C 154.01790,105.98843 143.13241,111.41982 142.38486,111.65838 C 140.87731,112.13949 135.72514,114.81746 134.39964,115.81027 C 133.93242,116.16022 132.90650,116.85735 132.12725,117.36059 C 128.94088,119.41837 122.29526,125.94852 120.71221,128.57388 C 119.43648,130.68960 119.28312,129.92296 119.17251,121.09835 C 119.05501,111.72318 119.05460,111.72034 121.43428,112.98571 C 125.53697,115.16727 130.30376,114.90470 135.98182,112.17870 C 138.83570,110.80857 139.13371,110.57397 139.32669,109.54527 C 139.46358,108.81560 139.35104,108.05796 139.00813,107.40031 C 138.71662,106.84123 138.47835,106.14312 138.47720,105.84999 C 138.47140,104.37431 137.29690,101.60379 136.13048,100.31768 C 134.36708,98.373339 134.24871,98.011768 134.17665,94.148248 C 134.06200,88.000956 133.46713,84.609226 132.81746,83.784455 C 131.61499,82.257899 127.29258,88.060764 126.08525,89.699038 C 124.87790,91.337312 122.60518,95.371485 121.60418,96.866620 C 120.60318,98.361752 119.63599,100.82430 119.45921,100.93356 C 118.70958,101.39686 117.61215,95.042131 116.91074,86.216124 C 116.62344,82.600951 115.92831,78.015367 115.74269,76.627492 C 115.01929,71.218683 114.06410,67.429395 113.65082,65.945140 C 113.59015,65.727266 112.11293,61.204980 111.10234,59.149210 C 109.55592,56.003418 108.81003,54.941184 106.38767,52.427611 C 104.16732,50.123655 103.01691,49.222124 101.36505,48.477477 C 99.633835,47.697053 98.650955,47.324225 97.414925,47.256333 z M 97.775955,49.953468 C 98.425215,50.051044 98.988005,50.279881 99.910305,50.696772 C 102.94602,52.068956 106.95465,56.241599 108.82996,59.998701 C 110.59839,63.541671 112.01984,68.569378 112.31287,70.171359 C 112.55673,71.504588 113.31599,74.297558 113.43845,75.746145 C 113.56089,77.194735 114.50311,82.388555 114.69144,85.717048 C 114.87978,89.045538 115.42523,93.893404 115.54094,94.827841 C 115.65664,95.762282 116.71961,103.21657 116.71961,103.21657 L 115.65774,104.75627 C 114.84107,105.94326 114.09515,106.52452 112.39782,107.29412 C 111.18615,107.84352 109.98875,108.21662 109.74316,108.12237 C 109.49757,108.02814 109.20466,107.21581 109.09542,106.31721 C 108.98618,105.41860 108.74060,103.45868 108.54325,101.96357 C 108.34591,100.46846 108.05534,95.040218 107.89552,89.900792 C 107.56450,79.256409 107.03534,74.952934 105.52756,70.681053 C 104.30251,67.210229 102.82264,65.215274 100.50494,63.906361 C 97.647625,62.292698 94.658905,62.253285 91.755185,63.789556 C 88.673575,65.419947 81.400762,73.583666 79.841072,77.169043 C 78.677691,79.843397 75.898934,88.456661 75.774133,89.391098 C 75.649329,90.325538 74.570482,96.055037 74.733507,98.650552 C 74.871583,100.84891 74.827029,102.13347 74.616701,102.13347 C 74.433425,102.13347 73.869914,101.59724 73.363702,100.93356 C 72.661139,100.01245 72.239315,99.751095 71.569152,99.829221 C 70.267361,99.980981 70.336166,100.79142 71.802762,102.66440 C 73.166107,104.40551 76.419305,110.13520 77.388167,112.49725 C 77.694796,113.24481 78.049193,114.46808 78.173946,115.21563 C 78.596041,117.74491 78.330905,122.89622 77.653633,125.38828 C 76.217629,130.67215 75.976550,131.47204 75.487430,132.50277 C 75.207737,133.09219 74.807813,133.96033 74.606083,134.42475 C 74.404349,134.88916 73.935474,135.72235 73.565456,136.28301 C 73.195438,136.84367 72.583954,137.91404 72.206270,138.66158 C 71.828590,139.40914 71.135191,140.55595 70.655949,141.21006 C 69.777432,142.40914 69.726959,143.15056 70.390483,145.57432 L 70.613474,146.38134 L 68.065000,146.13711 C 65.881353,145.93248 65.339585,146.00141 64.178578,146.59371 C 63.435175,146.97297 62.611902,147.53375 62.352172,147.84671 C 62.092442,148.15966 57.441348,151.91606 57.085326,152.31716 C 56.729308,152.71825 56.281446,153.04984 56.097793,153.04984 C 55.525977,153.04984 56.852698,148.67120 57.987911,145.44690 C 58.577223,143.77309 59.083880,141.88576 59.124105,141.25253 C 59.180719,140.36145 59.522163,139.82947 60.621334,138.91643 C 61.402427,138.26761 62.260284,137.21105 62.532689,136.55909 C 63.114026,135.16776 63.166926,132.48065 62.405265,130.88874 C 60.261594,126.40838 56.511563,125.76604 56.214598,125.60066 C 55.177835,125.02327 51.920695,124.81339 50.629193,125.23962 C 49.845055,125.49841 49.269922,125.53686 49.068253,125.33519 C 48.563302,124.83024 48.452939,120.43247 48.717838,118.98524 C 49.183957,116.43868 49.938703,114.87299 50.926515,113.01757 C 51.748942,111.47280 55.585733,106.74900 59.272766,104.36338 C 60.026690,103.87557 61.280580,103.29220 62.086706,103.12100 C 62.892836,102.94980 63.886645,102.72775 64.306002,102.63254 C 65.301843,102.40645 66.018834,100.66963 66.302306,97.779823 C 66.424704,96.532063 66.745387,94.513533 67.013755,93.298757 C 67.282130,92.083985 67.643959,90.478450 67.810153,89.730894 C 67.976341,88.983342 68.511279,86.995536 68.999441,85.313540 C 69.487603,83.631547 70.228508,80.955653 70.655949,79.367101 C 72.582357,72.207728 77.443438,62.157582 80.372004,59.276634 C 81.022310,58.636902 84.480616,54.799814 85.447715,54.052263 C 86.414816,53.304711 91.505425,50.246583 95.153155,49.974705 C 96.390955,49.882448 97.126695,49.855892 97.775955,49.953468 z M 130.65126,88.382327 C 130.79777,88.326063 130.91942,88.332536 130.99106,88.403564 C 131.19423,88.604999 131.51287,89.731985 131.70251,90.909563 C 132.00135,92.765202 131.94909,93.385222 131.30962,95.539290 C 130.50092,98.263408 130.57623,98.930802 131.76622,99.383238 C 132.74361,99.754839 135.13424,102.89584 135.68450,104.53328 C 136.37832,106.59796 136.61784,108.82150 135.34470,109.94878 C 134.72189,110.50024 134.06107,110.38790 132.91303,110.92570 C 128.59622,112.94788 122.10435,112.31268 121.13696,109.76826 C 120.94881,109.27340 120.54660,108.92939 120.14943,108.92939 C 119.09850,108.92939 118.40169,107.67585 118.84333,106.59329 C 119.04375,106.10202 119.21627,105.32719 119.23622,104.86246 C 119.26053,104.29609 122.82783,98.975744 123.51553,98.225806 C 123.85829,97.852030 124.77323,96.322949 125.54370,94.827841 C 126.97692,92.046641 129.62568,88.776181 130.65126,88.382327 z M 128.16650,99.574374 C 127.78421,99.511066 127.45199,99.755794 126.69051,100.48758 C 125.25796,101.86425 123.72769,104.35978 124.02523,104.84122 C 124.48305,105.58199 125.44670,105.12023 127.33825,103.24842 C 129.43621,101.17235 129.72391,100.34552 128.58063,99.733653 C 128.42686,99.651361 128.29393,99.595475 128.16650,99.574374 z M 97.170695,100.47696 C 97.557125,100.42804 97.948495,100.44169 98.349365,100.50881 C 98.883845,100.59831 99.433005,100.78844 100.00587,101.08222 C 101.67094,101.93612 102.57310,102.96086 103.46754,105.02174 C 104.87452,108.26354 105.33037,109.10384 106.27086,110.21425 C 107.19908,111.31016 107.21592,111.41024 107.21592,115.74656 C 107.21592,120.90068 107.00136,121.57711 104.59312,124.22023 C 103.65658,125.24812 102.64541,126.54784 102.34197,127.10850 C 101.66038,128.36787 100.87580,129.26222 99.602365,130.25162 C 98.206015,131.33652 96.934775,131.24736 95.864605,129.97554 C 94.806165,128.71765 94.463525,127.56289 94.908925,126.71561 C 95.090005,126.37115 95.344305,125.45706 95.471715,124.68745 C 95.667745,123.50329 95.581075,123.14684 94.887685,122.34073 C 94.207305,121.54975 93.764465,121.37762 92.275505,121.31073 C 89.823605,121.20056 89.319915,120.65831 90.045585,118.92153 C 90.708245,117.33556 91.663305,116.26170 93.369225,115.17315 C 94.974465,114.14884 94.990175,113.53376 93.496645,110.04435 C 91.542895,105.47971 91.565025,104.85625 93.751495,102.52636 C 94.901375,101.30104 96.011395,100.62372 97.170695,100.47696 z M 131.06539,103.56698 C 130.53690,103.46955 129.77213,103.61625 128.76114,104.00235 C 127.34949,104.54146 126.64234,105.48019 127.09402,106.21102 C 127.40955,106.72157 129.38684,106.62537 130.81054,106.03050 C 131.87220,105.58692 132.04743,105.36731 131.95735,104.58637 C 131.88989,104.00145 131.59388,103.66441 131.06539,103.56698 z M 171.47993,107.00742 C 175.23241,106.83686 184.96195,108.18938 189.78647,110.11868 C 193.60563,111.64594 200.52178,117.92271 201.89172,119.80288 C 203.88732,122.54172 206.38618,126.73278 206.74444,127.23593 C 207.60965,128.45101 209.55924,133.20499 210.97066,137.53601 C 213.16932,144.28273 214.11466,151.06485 214.78275,164.99581 C 215.09105,171.42454 215.60365,178.61410 215.91894,180.96625 C 216.08177,182.18102 216.45508,185.08628 216.75781,187.42238 C 217.43155,192.62127 218.44758,197.62845 219.50804,201.01424 C 219.94705,202.41590 220.56903,204.47551 220.88847,205.59087 C 221.20791,206.70624 221.68690,207.96534 221.96095,208.38358 C 222.23499,208.80182 222.36824,209.30343 222.24765,209.49853 C 222.00472,209.89160 220.81770,209.93055 220.02836,209.57286 C 218.97076,209.09362 216.76625,207.52329 216.06760,206.74831 C 214.11346,204.58062 211.43536,199.67796 210.23797,196.07657 C 207.87301,188.96354 206.79370,186.63658 202.47574,182.46348 C 200.88041,180.92165 199.02123,178.96452 196.87972,177.74880 C 193.39122,175.76841 189.10124,174.84066 185.87881,174.77558 C 181.83471,174.69390 180.23928,174.96338 175.07965,176.60199 C 172.69516,177.35926 169.86635,178.18216 168.79342,178.42839 C 167.72048,178.67462 166.23857,179.03336 165.49102,179.23541 C 160.56423,180.56701 151.95726,180.98494 147.11015,180.12737 C 143.56341,179.49987 137.49084,176.34170 134.80315,173.72433 C 131.88891,170.88633 128.13901,164.59215 127.27453,161.08815 C 127.09010,160.34060 126.63299,158.65861 126.26576,157.35039 C 125.10408,153.21202 125.42748,146.63246 126.95597,143.30193 C 127.72654,141.62289 127.69385,140.60289 126.84979,140.07386 C 126.00739,139.54588 124.82560,140.97066 124.36503,142.61172 C 123.06538,147.24244 119.50888,151.04168 117.84518,152.21097 C 116.15957,153.39566 114.85727,153.25101 114.29856,151.81808 C 112.82905,148.04926 110.63461,138.63137 110.40151,135.09372 C 110.30915,133.69206 109.75014,128.29779 109.60512,126.42891 C 109.40016,123.78774 109.31238,121.26150 109.27594,120.36567 C 109.09963,116.03175 109.51207,116.92675 111.45276,116.74471 C 112.26221,116.66879 115.15854,115.69082 115.73207,115.18377 C 117.09765,113.97650 117.14434,114.28837 116.94260,123.96539 C 116.79272,131.15492 116.63039,133.57851 116.20991,134.80702 C 115.91206,135.67723 115.71622,137.05340 115.77455,137.86519 C 115.86870,139.17572 115.97557,139.35504 116.77270,139.44736 C 117.83438,139.57033 118.88056,138.32390 119.27870,136.45291 C 120.18159,132.20987 127.55587,123.59099 134.05984,119.17638 C 139.57624,115.43209 144.50379,113.24660 154.44763,110.11868 C 161.77830,107.81275 164.38363,107.32996 171.47993,107.00742 z M 126.66927,107.63392 C 125.53135,107.76483 125.11984,109.15562 126.12772,109.47094 C 126.46788,109.57737 127.13169,109.86748 127.59309,110.11868 C 128.52701,110.62715 129.64249,110.26154 129.64249,109.44970 C 129.64249,108.69100 127.71350,107.51378 126.66927,107.63392 z M 115.93383,108.49403 C 116.22066,108.60967 116.36684,109.02012 116.52847,109.78950 C 116.79153,111.04172 115.61183,112.54164 113.49154,113.64407 C 112.74146,114.03406 111.64061,114.44749 111.03863,114.56789 C 109.73601,114.82841 109.50177,114.44912 109.65821,112.31674 C 109.76218,110.89945 109.80463,110.84846 111.49523,110.29920 C 112.44664,109.99009 113.79959,109.40218 114.51093,108.98248 C 115.21998,108.56413 115.64699,108.37839 115.93383,108.49403 z M 98.041425,110.35229 C 97.678505,110.33359 97.460865,110.40191 97.319355,110.54342 C 96.752375,111.11040 97.265115,112.65612 98.136985,113.00695 C 99.468455,113.54271 101.77470,113.41505 102.01279,112.79458 C 102.37527,111.84998 101.62742,111.18216 99.623595,110.66023 C 98.911485,110.47475 98.404335,110.37098 98.041425,110.35229 z M 47.910821,111.97694 C 48.019162,112.03163 48.082830,112.16862 48.080719,112.41231 C 48.074566,113.12292 47.157798,115.93565 46.679059,116.70224 C 45.362999,118.80958 45.162316,116.24161 46.424212,113.43170 C 46.875043,112.42781 47.585799,111.81286 47.910821,111.97694 z M 99.612985,115.75718 C 99.138765,115.77331 98.578325,115.95958 97.924615,116.31997 C 96.007955,117.37661 95.647195,117.78232 96.023885,118.48617 C 96.486325,119.35025 97.315775,119.29316 99.177615,118.25256 C 101.03564,117.21409 101.29714,116.88467 100.74917,116.22440 C 100.47625,115.89554 100.08719,115.74104 99.612985,115.75718 z M 103.31888,118.93215 C 102.97688,118.84509 102.53796,119.22935 101.30134,120.45062 C 98.985225,122.73797 98.456495,123.66415 99.050195,124.37951 C 99.738555,125.20895 100.22336,125.01099 101.90660,123.21146 C 103.87229,121.10998 104.39486,119.90195 103.65868,119.16576 C 103.54067,119.04775 103.43288,118.96117 103.31888,118.93215 z M 164.53534,122.66991 C 160.18998,122.73146 155.38621,123.39951 151.95225,124.86797 C 148.49364,126.34698 146.32595,127.91707 143.47858,130.63389 C 140.63121,133.35072 139.21039,135.63929 137.86132,140.91274 C 136.52682,146.12921 138.59835,151.49216 141.33361,155.29037 C 143.09274,157.73312 146.06152,160.94129 149.55244,162.78713 C 153.18930,164.71015 157.27035,166.18826 158.02612,166.47180 C 159.38496,166.98161 164.29932,168.91862 168.03949,169.24327 C 173.64007,170.23497 189.29060,169.49845 192.95082,168.56368 C 194.04052,168.28538 198.47727,166.90374 201.01037,167.60800 C 202.90183,168.13387 203.10060,168.12998 203.61194,167.61862 C 204.10783,167.12272 204.12828,166.67615 203.76060,163.28621 C 203.23854,158.47282 201.59955,151.15564 200.22459,147.49629 C 199.87349,146.56185 198.35666,142.56329 197.47436,140.84902 C 195.69711,137.39593 191.82036,133.34499 190.10503,131.67452 C 186.45868,128.12351 182.19537,125.48116 178.23339,124.46446 C 174.42645,123.48755 172.27150,122.56033 164.53534,122.66991 z M 165.40607,125.28210 C 171.07157,125.29231 172.70558,125.67406 174.66552,126.20592 C 178.77823,127.32197 182.99354,129.30186 185.52839,131.30287 C 188.31116,133.49958 192.58387,138.17956 193.26938,139.15004 C 194.85815,141.39928 196.44584,144.44535 197.95220,149.84301 C 198.70237,152.53103 198.88087,153.65159 198.61056,153.92057 C 198.39725,154.13282 197.23275,154.25917 195.88157,154.21789 C 187.25168,153.95425 174.93228,148.54758 168.18815,142.05955 L 166.42546,140.36057 L 166.27680,137.44044 C 166.11298,134.22903 165.30749,132.28981 164.07874,132.10988 C 162.82316,131.92603 162.53252,132.75765 163.09121,134.90259 C 163.36744,135.96313 163.68694,138.92593 163.80266,141.48614 C 164.00217,145.90035 163.50568,147.62993 163.01688,149.94920 C 162.49280,152.43583 161.79084,154.03712 160.69139,155.34347 C 158.68580,157.72650 158.42754,158.15072 158.64200,158.70958 C 159.06884,159.82191 160.46549,159.26765 162.23110,157.28668 C 163.18049,156.22149 163.53719,155.53097 163.96194,155.07800 C 164.33669,154.67835 164.64084,154.83837 167.24310,156.57523 C 170.09212,158.47679 172.70349,159.75116 174.07088,160.23866 C 174.29331,160.31796 177.96253,161.88497 180.95176,162.97827 C 183.38381,163.86778 185.08142,164.43845 189.78647,165.94087 C 190.13099,166.05089 190.00626,166.18140 189.40420,166.35500 C 188.91432,166.49625 184.67092,167.15086 179.05102,167.16201 C 173.43113,167.17316 171.10920,167.69169 165.84143,166.40809 C 160.70210,165.15578 150.54292,160.99368 146.88716,157.65833 C 145.08544,156.01452 141.86587,151.27024 141.03629,149.19528 C 140.24640,147.21959 140.05856,142.25529 141.21681,139.09695 C 142.34727,136.01438 142.94553,134.87965 145.50674,132.46030 C 148.08946,130.02062 151.66020,127.24084 155.92362,126.30149 C 160.27793,125.34211 161.62450,125.27528 165.40607,125.28210 z M 52.105184,127.19345 C 52.997755,127.08332 53.928376,127.20059 54.727988,127.46954 C 55.656445,127.78182 58.146694,128.11943 59.941741,130.17729 C 60.802622,131.16422 61.004644,131.67114 61.003605,132.98061 C 61.002086,134.89790 60.113131,136.51320 58.540080,137.47230 C 56.538842,138.69247 55.721339,138.30032 56.097793,136.29363 C 56.294324,135.24603 56.186272,134.97036 55.227064,134.07433 C 54.024069,132.95056 52.843579,132.79047 51.489303,133.56464 C 50.210377,134.29574 49.828449,134.18869 49.216914,132.90628 C 48.366852,131.12368 48.195506,129.62689 49.684134,128.25532 C 50.351250,127.64066 51.212614,127.30358 52.105184,127.19345 z M 166.35113,144.36379 C 166.47539,144.36379 167.52630,145.18143 168.25187,145.88226 C 168.97743,146.58309 170.03006,147.42527 170.58797,147.75114 C 171.14588,148.07701 172.44835,148.88609 173.47624,149.54569 C 177.13042,151.89062 186.16642,155.71530 190.46606,156.37348 C 191.34674,156.50829 193.71063,156.99111 195.80724,157.09554 L 199.61933,157.28668 L 200.11841,158.84762 C 200.39388,159.70785 200.66620,161.17310 200.72367,162.10754 L 200.82985,163.80652 L 197.70797,163.85962 C 195.99219,163.88812 193.19031,163.53921 191.75092,163.33930 C 190.25580,163.13166 187.12382,162.23916 184.44529,161.25805 C 173.10201,157.10317 171.54571,155.94112 169.90837,155.13110 C 167.28951,153.83549 165.31051,151.49952 165.31050,151.49952 L 165.67154,149.66250 C 166.03986,148.35296 166.01014,147.41317 166.17061,146.22206 C 166.28926,145.34143 166.22687,144.36380 166.35113,144.36379 z M 68.383560,149.09971 C 68.782209,149.20421 69.292855,149.64976 69.976356,150.44827 C 71.086056,151.74471 71.197703,152.04857 71.186881,153.93119 C 71.176344,155.76485 70.940630,157.28283 69.817076,162.95703 C 69.650549,163.79803 67.293683,174.54724 67.141179,175.31713 C 66.739947,177.34266 65.160845,183.48676 64.359095,186.14814 C 63.696757,188.34675 63.257271,189.09094 62.936197,188.53734 C 62.853134,188.39412 62.358577,186.82307 61.842477,185.05442 C 61.039892,182.30402 60.913307,181.24692 60.929274,177.74880 C 60.947766,173.69670 61.517815,170.04210 62.532689,167.44872 C 62.804944,166.75300 67.086991,150.77746 67.480975,149.78992 C 67.704670,149.22921 67.984910,148.99521 68.383560,149.09971 z M 64.890027,149.36517 C 65.057768,149.56043 64.747428,150.43341 64.252909,151.91365 C 62.923067,155.89423 60.041437,167.44235 59.644419,168.56368 C 58.697749,171.23741 58.077654,178.61362 58.571936,181.28481 C 58.765022,182.32829 59.018000,184.01592 59.145343,185.04380 C 59.272692,186.07169 60.554421,190.97423 60.833706,191.77602 C 61.335487,193.21658 61.233450,194.64800 60.568240,195.49255 C 60.384237,195.72616 60.067513,195.91397 59.856792,195.90667 C 59.501140,195.89437 56.638620,191.17733 55.874801,189.54611 C 55.110990,187.91488 52.420706,181.31349 51.935286,180.28665 C 50.582536,177.42510 49.833329,173.97787 50.140736,171.96164 C 50.470199,169.80073 53.045296,162.31386 53.655506,160.31299 C 54.600898,157.21308 56.346667,156.23451 58.561317,154.35593 C 62.985777,150.60289 64.610459,149.03975 64.890027,149.36517 z M 170.03580,180.96625 C 170.71078,180.96625 170.74793,181.14962 171.41622,186.74279 C 171.58369,188.14445 172.03639,191.04971 172.41437,193.19892 C 172.85830,195.72309 173.16391,199.39235 173.28510,203.56271 C 173.38829,207.11359 173.55697,212.15956 173.65675,214.77600 C 173.75654,217.39243 173.89726,222.59131 173.97531,226.32908 C 174.12833,233.65646 174.31220,234.59205 176.19461,237.88216 C 176.91729,239.14527 177.21400,240.11632 177.21400,241.21641 C 177.21400,243.13052 176.76721,243.68773 176.10966,244.68871 C 175.44935,245.69388 174.89264,245.98158 174.51686,246.75934 C 173.87233,248.09337 173.53787,251.96977 172.98778,264.55618 C 172.91018,266.33162 172.69499,268.47233 172.50994,269.31333 C 172.32489,270.15433 172.08226,273.67122 171.96839,277.12865 C 171.85452,280.58608 171.53958,285.32624 171.26756,287.66234 C 169.95431,298.94047 169.57872,307.01226 170.26941,309.17571 C 171.01321,311.50553 172.30969,313.67513 172.11705,314.60183 C 171.74647,316.38458 169.62245,318.95815 167.11567,321.04735 C 164.61325,323.13290 162.50018,322.55241 164.22740,320.25095 C 165.05548,319.14757 165.58341,317.82310 165.40607,317.30959 C 165.11668,316.47159 164.18030,316.92006 162.06120,318.90238 C 160.87665,320.01047 158.94663,321.47715 157.77127,322.16231 C 156.59590,322.84747 155.17820,323.75279 154.61753,324.16923 C 153.20492,325.21847 152.55866,325.40130 151.96287,324.93377 C 151.61698,324.66234 151.53615,324.31021 151.71864,323.85067 C 152.16513,322.72636 156.14729,318.60013 158.86499,316.43886 C 160.26665,315.32417 161.41346,314.16879 161.41346,313.86915 C 161.41346,313.02875 159.86848,313.03785 158.52519,313.89039 C 155.90581,315.55280 151.72401,316.68165 151.21957,315.86545 C 150.86852,315.29745 153.21827,312.98919 155.40331,311.75604 C 157.41777,310.61915 160.93770,309.42668 162.28419,309.41994 C 163.36735,309.41452 165.92650,307.75041 166.91392,306.41486 C 167.70594,305.34360 168.02423,303.12949 168.71909,293.94858 C 168.91711,291.33215 169.23249,287.66234 169.40930,285.79346 C 170.64967,272.68274 170.87239,269.27393 171.27818,257.25056 C 171.40371,253.53099 171.69448,250.26872 172.02148,248.92554 C 172.97849,244.99464 172.59106,224.38090 171.11890,200.95053 C 170.92298,197.83229 170.32486,191.75065 170.24817,190.39560 C 170.17148,189.04055 169.95991,187.01463 169.77033,185.89330 C 169.09768,181.91479 169.15056,180.96625 170.03580,180.96625 z M 146.71726,182.75018 L 148.84099,183.17492 L 148.76666,195.40760 C 148.72763,202.13557 148.52933,210.08680 148.32068,213.07702 C 148.11203,216.06722 148.06212,219.71163 147.97901,221.58052 C 147.89589,223.44940 147.94330,227.87277 148.35081,229.63414 C 148.57226,230.59127 148.86811,231.60956 150.30449,232.32080 C 151.26080,232.79434 152.23116,233.43894 152.76801,234.61739 C 153.74000,236.75103 153.23962,238.35780 151.88089,239.27632 C 148.79972,241.35925 148.00104,242.47617 147.53490,243.75427 C 146.17777,247.47538 145.95391,252.61255 145.59169,253.74641 C 145.22946,254.88027 144.78012,257.77919 144.59354,258.26995 C 144.26605,259.13130 143.16741,265.44232 142.55476,269.99293 C 142.39121,271.20770 141.47452,276.47454 141.35485,277.12865 C 141.23518,277.78276 140.38881,281.20620 140.17618,283.07509 C 139.96355,284.94397 139.00239,290.67803 138.82761,292.07970 C 138.65284,293.48136 138.25990,295.85143 137.95689,297.34654 C 137.65387,298.84165 137.32402,301.31959 137.22420,302.84700 L 137.04368,305.61846 L 138.11617,306.17063 C 139.26743,306.76597 140.27395,307.90969 139.83638,309.44118 C 138.89805,312.72535 133.38772,316.70790 131.22467,317.73433 C 129.43610,318.58306 127.49401,318.60595 127.32763,317.78743 C 127.18094,317.06583 128.43807,315.59047 129.56816,315.15400 C 130.59440,314.75765 130.88286,313.89901 130.21590,313.23203 C 129.72290,312.73903 129.50368,312.76987 127.73113,313.57183 C 126.66399,314.05464 124.69622,315.44825 123.35626,316.66185 C 120.43854,319.30442 116.21653,322.76093 113.53401,322.87376 C 112.72020,322.90799 112.46585,322.11350 113.01370,321.08982 C 113.54263,320.10151 119.71986,314.94222 120.81840,313.98595 C 122.63062,312.40845 125.90265,311.91819 125.83040,310.65170 C 125.80682,310.23832 124.64886,309.42786 121.10510,311.05521 C 116.20297,313.30634 115.27396,311.93634 115.74269,311.26758 C 116.29421,310.48070 116.38882,310.32024 119.00261,309.16509 C 122.92872,307.42998 125.71274,306.69244 129.13280,306.48919 C 130.81479,306.38924 132.60908,306.14584 133.12540,305.94764 C 134.23835,305.52042 134.17877,305.74060 135.21728,298.02614 C 135.46886,296.15726 135.92134,293.17554 136.22605,291.40011 C 136.53075,289.62467 137.02317,286.71940 137.31977,284.94397 C 137.61638,283.16854 138.06968,280.64554 138.31792,279.33733 C 138.56616,278.02911 138.86180,276.19421 138.97628,275.25977 C 139.20707,273.37584 139.46502,271.92442 140.53722,266.42506 C 140.93802,264.36929 141.39549,261.84630 141.55660,260.81842 C 142.28048,256.20052 142.57713,254.56840 143.56353,249.94493 C 144.56033,245.27273 145.40352,241.02590 145.84654,238.39185 C 145.95655,237.73775 146.65807,234.53876 146.67479,232.71088 C 146.69151,230.88300 146.79560,226.46499 146.84469,224.96989 C 146.94199,222.00573 146.94788,196.46808 146.85531,188.27187 L 146.71726,182.75018 z M 148.92594,233.76213 C 148.58192,233.81327 148.29782,234.02406 148.20387,234.38863 C 148.14258,234.62647 147.85396,235.52983 147.56675,236.38493 C 147.21805,237.42315 147.15236,238.12869 147.36500,238.50866 C 147.76472,239.22291 148.14586,239.22036 149.35069,238.50866 C 151.06081,237.49846 151.38332,235.36686 150.00904,234.12316 C 149.67630,233.82203 149.26996,233.71098 148.92594,233.76213 z M 174.12397,238.08391 C 173.75762,238.20191 173.55786,238.57280 173.74170,239.13516 C 173.99969,239.92432 174.24622,241.56767 173.58242,242.72426 C 172.87251,243.96121 173.68020,244.84798 174.31511,244.84799 C 174.95002,244.84799 175.73458,243.72659 176.02471,243.03220 C 176.84550,241.06778 176.68059,239.68861 175.50440,238.56175 C 175.02327,238.10080 174.49033,237.96592 174.12397,238.08391 z " id="path1369" sodipodi:nodetypes="cssssssssssssssssssssssssssscccsssssssssssssssssssssssssssscccsssssssssssssssssssssssssssssssssssssssssssssssssssssssssssssssssssssssssssssssssssssssssssssssssssssssssssssssssssssssssssssssssssssssssssssssssssssssssssccssssssccssssssssssssssssssssssscccsssssssssssssssssssssssssccsssssssssssssccssssccsssssssssssssssssccssssccsssssssssssssssssssssssssssssssssssssssssccsssccssssssccssssccsssccssssccssssccsssssscssssssssccsssssscccssssssssssssssssssssccsssssssssccssssccccccsssccsccssssssssssccssssssssssssccssssssszsssssssssssssssssssssssssssssccccsssssssssssssscccssssssssssssssssssssssssssscccsssssccsszssc" style="fill:#000000"/>
    </g>
  </g>
</svg>
