<?xml version="1.0" encoding="iso-8859-1"?>
<!DOCTYPE svg PUBLIC "-//W3C//DTD SVG 1.0//EN" "http://www.w3.org/TR/2001/REC-SVG-20010904/DTD/svg10.dtd">
<!-- Creator: CorelDRAW --><svg height="11.6929in" space="preserve" style="shape-rendering:geometricPrecision; text-rendering:geometricPrecision; image-rendering:optimizeQuality; fill-rule:evenodd" viewBox="0 0 8268 11692" width="8.26772in" xmlns="http://www.w3.org/2000/svg" xmlns:odm="http://product.corel.com/CGS/11/cddns/">
  <metadata>
    <rdf:RDF xmlns:cc="http://web.resource.org/cc/" xmlns:dc="http://purl.org/dc/elements/1.1/" xmlns:rdf="http://www.w3.org/1999/02/22-rdf-syntax-ns#">
      <cc:Work rdf:about="">
        <dc:title>Rooster</dc:title>
        <dc:description></dc:description>
        <dc:subject>
          <rdf:Bag>
            <rdf:li></rdf:li>
            <rdf:li>chicken</rdf:li>
            <rdf:li>rooster</rdf:li>
            <rdf:li>animal</rdf:li>
            <rdf:li>farm</rdf:li>
            <rdf:li>silhouette</rdf:li>
            <rdf:li>bird</rdf:li>
          </rdf:Bag>
        </dc:subject>
        <dc:publisher>
          <cc:Agent rdf:about="http://www.openclipart.org">
            <dc:title>Tlarson</dc:title>
          </cc:Agent>
        </dc:publisher>
        <dc:creator>
          <cc:Agent>
            <dc:title>Tlarson</dc:title>
          </cc:Agent>
        </dc:creator>
        <dc:rights>
          <cc:Agent>
            <dc:title>Tlarson</dc:title>
          </cc:Agent>
        </dc:rights>
        <dc:date></dc:date>
        <dc:format>image/svg+xml</dc:format>
        <dc:type rdf:resource="http://purl.org/dc/dcmitype/StillImage"/>
        <cc:license rdf:resource="http://web.resource.org/cc/PublicDomain"/>
        <dc:language>en</dc:language>
      </cc:Work>
      <cc:License rdf:about="http://web.resource.org/cc/PublicDomain">
        <cc:permits rdf:resource="http://web.resource.org/cc/Reproduction"/>
        <cc:permits rdf:resource="http://web.resource.org/cc/Distribution"/>
        <cc:permits rdf:resource="http://web.resource.org/cc/DerivativeWorks"/>
      </cc:License>
    </rdf:RDF>
  </metadata>
  <defs>
    <style type="text/css"><![CDATA[
    .fil3 {fill:#00713D}
    .fil2 {fill:#085D37}
    .fil4 {fill:#393D3F}
    .fil0 {fill:#7E5F3F}
    .fil1 {fill:#E0903C}
    .fil5 {fill:#FFFFFF}
   ]]></style>
  </defs>
  <g id="Layer 1">
    <g>
      <g>
        <path class="fil0" d="M2366 7031l95 278 -68 23 -95 -278 68 -23zm95 278l-65 29 31 -18 34 -11zm-65 29c0,0 -2,-5 -19,31l-66 -31c75,-163 147,-36 148,-36l-63 36zm-85 1l0 -1 33 15 -33 -14zm67 28c-1,1 -1,1 -1,3l-65 -32c1,-2 -1,2 -1,1l67 28zm-67 -29l1 0 32 16 -33 -16zm66 31c-18,39 -44,72 -65,99l-57 -44c19,-24 41,-53 56,-86l66 31zm-65 99c-16,20 -28,36 -29,41l-72 -12c5,-24 22,-46 44,-73l57 44zm-29 41c-2,9 3,-13 5,-13l-12 71c-55,-10 -71,-34 -65,-70l72 12zm5 -13c74,13 165,-66 165,-66l48 55c-1,0 -117,102 -225,82l12 -71zm165 -66l55 45 -31 -18 -24 -27zm55 45c0,1 -60,103 -16,129l-38 62c-105,-64 -9,-227 -8,-227l62 36zm-16 129c21,14 28,-124 28,-124l72 4c0,1 -10,260 -138,182l38 -62zm35 -144l65 24 -36 -2 -29 -22zm57 44c0,0 -39,48 66,85l-23 68c-202,-71 -100,-197 -100,-197l57 44zm66 85c24,8 43,9 59,4l19 70c-29,8 -63,7 -101,-6l23 -68zm59 4c17,-5 31,-17 42,-33l60 40c-19,30 -47,53 -83,63l-19 -70zm42 -33c12,-17 19,-40 22,-62l72 9c-4,32 -15,65 -34,93l-60 -40zm22 -62c3,-28 1,-53 -8,-68l62 -37c18,29 24,72 18,114l-72 -9zm-8 -68c-34,-58 -177,-95 -177,-95l18 -70c1,0 172,45 221,128l-62 37zm-177 -95l-17 -5 -7 -17 33 -13 -9 35zm-24 -22l-129 -315 67 -27 129 315 -67 27zm-109 -362l33 -14 14 34 -33 14 -14 -34zm28 67l-137 58 -28 -67 137 -58 28 67zm-185 36l-11 -32 31 -13 14 34 -34 11z"/>
        <path class="fil1" d="M2332 7043l95 277c0,0 -37,-66 -83,33 -45,100 -153,162 -62,179 91,16 195,-75 195,-75 0,0 -79,133 -4,178 74,46 83,-153 83,-153 0,0 -71,87 83,141 153,54 199,-141 157,-212 -41,-70 -199,-111 -199,-111l-128 -315 -137 58z"/>
      </g>
      <g>
        <path class="fil0" d="M2587 7063l-179 195 -53 -49 178 -195 54 49zm-179 195l-10 12 -17 -1 1 -36 26 25zm-27 11l-381 -4 1 -72 381 4 -1 72zm-381 -4c-10,0 -16,2 -17,6l-63 -37c14,-24 40,-41 81,-41l-1 72zm-17 6c-1,1 -2,3 -2,5l-72 -1c0,-14 4,-28 11,-41l63 37zm-2 5c0,3 1,7 2,11l-66 27c-6,-13 -8,-26 -8,-39l72 1zm2 11c4,9 13,16 25,18l-7 72c-42,-5 -71,-32 -84,-63l66 -27zm25 18c73,8 135,12 135,12l-4 73c0,0 -70,-5 -138,-13l7 -72zm135 12l4 72 -6 -36 2 -36zm4 72c0,0 -244,41 -207,98l-61 39c-96,-150 255,-208 256,-208l12 71zm-207 98c44,70 236,-83 237,-83l45 57c-1,0 -255,203 -343,65l61 -39zm237 -83l53 48 -31 -20 -22 -28zm53 48c0,0 -75,121 -52,118l9 72c-175,22 -19,-228 -19,-229l62 39zm-52 118l1 0 9 72 -1 0 -9 -72zm1 0c12,-1 25,-4 38,-8l21 69c-18,5 -35,9 -50,11l-9 -72zm38 -8c13,-5 27,-10 43,-17l30 66c-16,7 -33,14 -52,20l-21 -69zm43 -17c72,-34 141,-88 144,-127l72 4c-4,67 -94,146 -186,189l-30 -66zm144 -127c5,-89 291,-375 292,-376l51 51c-1,1 -268,268 -271,329l-72 -4zm349 -369l14 24 -20 20 -25 -26 31 -18zm-63 37l-45 -79 62 -36 46 78 -63 37zm-28 -131l29 -12 16 28 -31 18 -14 -34zm28 67l-116 50 -28 -67 116 -50 28 67zm-157 -8l13 -9 14 33 -27 -24z"/>
        <path class="fil1" d="M2560 7038l-178 195 -382 -4c-81,-1 -66,104 5,112 70,8 136,12 136,12 0,0 -298,50 -232,154 67,103 290,-75 290,-75 0,0 -116,187 -16,174 99,-12 253,-112 257,-186 4,-75 282,-353 282,-353l-46 -78 -116 49z"/>
      </g>
      <g>
        <path class="fil2" d="M1675 5209c1,38 3,115 -3,190l-72 -5c5,-71 4,-146 3,-183l72 -2zm-3 190c-6,81 -21,159 -55,193l-51 -51c19,-19 29,-81 34,-147l72 5zm-55 193c-61,61 -136,129 -137,129l-48 -54c0,0 72,-64 134,-126l51 51zm-192 120l-15 -25 22 -20 24 27 -31 18zm62 -36c1,0 102,174 151,189l-22 69c-76,-24 -191,-221 -191,-222l62 -36zm151 189l0 0 -11 35 11 -35zm0 0c1,1 -5,-1 -3,-1l-16 71c-2,0 -3,-1 -3,-1l22 -69zm-3 -1l3 1 -11 35 8 -36zm3 1c148,47 164,414 175,680l-72 3c-11,-245 -25,-583 -125,-614l22 -69zm175 680c4,110 8,202 19,236l-69 21c-14,-44 -18,-139 -22,-254l72 -3zm19 236c3,11 6,21 8,30l-69 19c-3,-11 -6,-21 -8,-28l69 -21zm8 30l0 0 -34 9 34 -9zm0 0c24,90 56,208 419,251l-8 72c-412,-49 -451,-195 -480,-304l69 -19zm419 251c307,37 241,-18 240,-18l47 -55c1,1 251,210 -295,145l8 -72zm240 -18l32 -62 -8 35 -24 27zm32 -62c1,0 197,48 255,34l16 71c-74,17 -287,-35 -288,-35l17 -70zm255 34c53,-12 246,-287 246,-288l59 42c0,1 -209,298 -289,317l-16 -71zm312 -265l-7 19 -29 -21 36 2zm-72 -4c0,0 8,-147 8,-180l72 0c0,36 -8,183 -8,184l-72 -4zm8 -180l0 0 72 0 0 0 -72 0zm0 0c0,-7 -4,-35 -11,-74l71 -12c7,43 12,75 12,86l-72 0zm-11 -74c-4,-21 -8,-43 -13,-65l71 -14c5,25 9,48 13,67l-71 12zm-13 -65c-24,-115 -61,-262 -94,-280l35 -63c56,31 103,199 130,329l-71 14zm-59 -343l0 0 -17 32 17 -32zm-34 64l0 0 34 -64 0 0 -34 64zm0 0l-1 -1 18 -31 -17 32zm-1 -1c-8,-4 -19,-9 -34,-15l24 -68c19,7 34,14 45,20l-35 63zm-34 -15c-15,-6 -34,-11 -55,-16l17 -70c23,5 45,12 62,18l-24 68zm-55 -16c-108,-26 -280,-33 -448,69l-38 -61c189,-115 382,-107 503,-78l-17 70zm-448 69c-43,26 -75,46 -100,61l-37 -61c24,-15 57,-35 99,-61l38 61zm-100 61c-12,7 -30,19 -52,32l-37 -62c0,0 14,-9 52,-31l37 61zm-52 32l-42 26 -12 -48 35 -9 19 31zm-54 -22c0,-1 0,-1 0,-1l71 -16c0,0 -1,-1 -1,-1l-70 18zm0 -1l0 -1 35 -7 -35 8zm0 -1c-1,-3 -4,-20 -10,-47l71 -15c5,27 9,44 10,48l-71 14zm-10 -47c-5,-27 -13,-63 -22,-106l70 -15c9,43 17,79 23,106l-71 15zm-22 -106c-46,-220 -125,-603 -128,-654l73 -4c2,48 80,425 125,643l-70 15zm-128 -654l0 -1 73 -3 0 0 -73 4zm73 -5l0 1 -36 1 36 -2zm-72 5c0,-1 -1,-2 -1,-3l72 -9c0,2 0,5 1,7l-72 5zm-1 -3c0,-1 0,-2 0,-4l71 -12c0,2 1,4 1,7l-72 9zm0 -4c-2,-9 -4,-19 -8,-31l69 -20c5,15 8,29 10,39l-71 12zm27 -77l27 0 7 26 -34 10 0 -36zm0 72c-10,0 -15,0 -15,0l0 -72c0,0 6,0 15,0l0 72zm-15 0l-23 -9 23 -27 0 36zm-23 -9c-24,-21 -96,-80 -170,-128l39 -61c78,50 152,113 178,134l-47 55zm-170 -128c-66,-42 -132,-76 -156,-59l-41 -60c55,-38 149,2 236,58l-39 61zm-156 -59l-20 6 0 -36 20 30zm-20 6c-4,0 -7,0 -10,0l0 -72c3,0 7,0 10,0l0 72zm-10 0l-1 0 1 -36 0 36zm-1 0c-2,0 -5,0 -6,0l1 -72c3,0 5,0 7,0l-2 72zm-42 -35l-1 -38 38 1 -1 36 -36 1z"/>
        <path class="fil3" d="M1639 5210c2,75 5,304 -47,356 -62,62 -136,128 -136,128 0,0 109,186 171,206 179,56 131,763 170,892 31,101 31,256 458,306 427,51 268,-81 268,-81 0,0 205,50 271,35 66,-16 268,-303 268,-303 0,0 8,-147 8,-182 0,-35 -66,-411 -136,-450 -70,-39 -326,-113 -574,39 -85,51 -130,79 -152,92 -4,-23 -155,-733 -158,-802 -1,-11 -5,-27 -10,-46 -9,0 -15,0 -15,0 -49,-42 -291,-245 -369,-190 -6,0 -11,0 -17,0z"/>
      </g>
      <g>
        <path class="fil0" d="M2959 6344c17,17 -68,17 -51,0l51 51c-17,17 -34,17 -51,0l51 -51zm-51 0c5,-5 -2,-4 2,-17l69 21c-7,24 -12,39 -20,47l-51 -51zm2 -17c34,-110 141,-456 353,-536l25 67c-179,68 -278,389 -309,490l-69 -21zm353 -536l0 0 12 34 -12 -34zm0 0l0 0 25 67 0 0 -25 -67zm25 67l0 0 -13 -33 13 33zm-25 -67c58,-22 119,-51 179,-78l30 66c-58,27 -119,55 -184,79l-25 -67zm179 -78c176,-81 332,-153 439,-69l-45 57c-71,-56 -209,7 -364,78l-30 -66zm439 -69c14,11 -9,-7 4,3l-45 57c-17,-13 7,6 -4,-3l45 -57zm-41 60l0 0 22 -28 -22 28zm45 -57c63,51 100,96 118,132l-65 32c-14,-28 -45,-64 -98,-107l45 -57zm118 132c23,47 19,86 -2,112l-57 -45c4,-5 3,-16 -6,-35l65 -32zm-2 112l0 0 -57 -45 0 0 57 45zm-58 -44l1 -1 28 23 -29 -22zm58 44l0 0 -58 -44 0 0 58 44zm0 0l0 1 -29 -23 29 22zm0 1c-17,21 -150,98 -288,177l-36 -62c131,-76 258,-150 267,-161l57 46zm-288 177c-132,77 -269,157 -301,183l-45 -56c37,-31 176,-112 310,-189l36 62zm-301 183c-19,15 -12,32 6,72l-67 28c-32,-74 -46,-106 16,-156l45 56zm6 72c18,42 44,102 64,196l-71 15c-18,-87 -42,-143 -60,-183l67 -28zm64 196c45,220 45,356 45,356l-72 0c0,0 0,-130 -44,-341l71 -15zm45 356l-69 15 33 -15 36 0zm-69 15c-1,-2 -230,-518 -264,-511l-14 -72c92,-18 343,552 344,553l-66 30zm-264 -511c-9,1 -17,5 -23,8l-40 -60c14,-9 30,-16 49,-20l14 72zm-23 8l0 0 -20 -30 20 30zm0 0c-6,5 -11,10 -13,16l-67 -28c7,-18 21,-35 40,-48l40 60zm-13 16c-3,6 -3,12 -2,18l-72 13c-3,-19 -1,-40 7,-59l67 28zm-2 18c0,3 2,6 4,10l-60 40c-8,-11 -13,-24 -16,-37l72 -13zm4 10l0 0 -30 20 30 -20zm0 0c12,18 -3,-5 7,10l-60 40c-4,-5 8,13 -7,-10l60 -40zm7 10c50,75 281,416 243,499l-66 -29c21,-47 -191,-361 -237,-430l60 -40zm243 499c-45,100 -114,77 -114,77l22 -69c0,0 8,3 26,-37l66 29zm-114 77l-17 -5 -6 -17 34 -12 -11 34zm-23 -22c0,-1 -111,-315 -196,-305l-8 -73c143,-16 272,353 272,354l-68 24zm-196 -305c-106,11 -270,114 -270,115l-39 -62c1,0 178,-112 301,-126l8 73zm-270 115l-54 -42 35 11 19 31zm-54 -42l57 -190 69 21 -57 190 -69 -21zm57 -190l1 -2 34 13 -35 -11zm1 -2c0,0 103,-273 148,-228l-51 51c-33,-32 -29,202 -29,202l-68 -25z"/>
        <path class="fil0" d="M2933 6369c7,7 108,-456 342,-544 235,-89 463,-247 583,-152 121,95 140,164 114,196 -25,32 -513,298 -583,355 -69,57 13,88 57,304 45,215 45,348 45,348 0,0 -241,-545 -304,-532 -64,13 -83,70 -57,108 25,38 278,405 247,475 -32,69 -70,57 -70,57 0,0 -120,-342 -234,-330 -114,13 -285,121 -285,121l57 -190c0,0 82,-222 88,-216z"/>
      </g>
      <g>
        <path class="fil0" d="M1653 5246c-275,-20 -369,-99 -362,-193l72 5c-4,53 73,99 295,116l-5 72zm-362 -193c7,-92 126,-194 261,-261l32 66c-115,56 -216,136 -221,200l-72 -5zm261 -261c135,-66 289,-98 364,-52l-39 62c-52,-32 -177,-1 -293,56l-32 -66zm364 -52c67,42 78,132 -20,290l-62 -39c70,-113 74,-170 43,-189l39 -62zm-32 301l-50 -50 31 19 19 31zm-37 -62c1,0 377,-230 485,-170l-35 63c-71,-40 -412,169 -413,169l-37 -62zm485 -170c107,59 113,131 73,203l-63 -35c20,-36 14,-72 -45,-105l35 -63zm73 203c-44,81 -154,155 -230,206l-41 -60c70,-47 172,-116 208,-181l63 35zm-230 206c-31,22 -56,38 -62,45l-56 -46c13,-15 41,-34 77,-59l41 60zm-67 50l-51 -51 28 23 23 28zm-46 -56c1,-1 331,-272 369,54l-72 8c-23,-193 -251,-6 -251,-6l-46 -56zm369 54c18,162 -36,213 -102,220l-8 -72c28,-3 50,-34 38,-140l72 -8zm-102 220c-47,6 -96,-15 -127,-28l29 -67c23,10 62,27 90,23l8 72zm-127 -28c-9,-4 -5,-2 -11,-5l27 -67c13,5 12,5 13,5l-29 67zm-11 -5c-43,-17 -166,-17 -166,-17l0 -72c0,0 137,0 193,22l-27 67zm-166 -17l-23 -9 23 -27 0 36zm-23 -9l-1 0 47 -55 1 0 -47 55zm-1 0c-7,-6 -16,-13 -27,-21l41 -59c15,11 27,19 33,25l-47 55zm-27 -21c-11,-8 -26,-18 -45,-30l39 -60c16,10 32,21 47,31l-41 59zm-45 -30c-85,-54 -214,-125 -276,-130l5 -72c76,5 218,82 310,142l-39 60z"/>
        <path class="fil0" d="M1656 5210c-991,-73 610,-847 209,-200 0,0 360,-219 450,-170 246,137 -187,349 -230,400 0,0 280,-230 310,30 30,260 -140,170 -190,150 -50,-20 -180,-20 -180,-20 -49,-42 -274,-183 -369,-190z"/>
      </g>
      <path class="fil0" d="M1180 5836c60,28 222,-88 222,-88 0,0 -131,113 -64,181 67,67 196,46 201,-11 5,-57 -31,-227 -31,-227 0,0 -8,-11 -19,-27 0,0 0,1 -1,1 -12,-4 -26,-8 -42,-11 -61,-12 -93,-113 -99,-134 -98,18 -215,292 -167,316zm176 -318c0,0 1,0 1,0 0,0 0,0 1,0 -1,0 -1,0 -1,0 0,0 -1,0 -1,0zm3 0c0,0 1,-1 1,-1 0,0 -1,1 -1,1zm2 -1c0,0 1,0 2,0"/>
      <g>
        <path class="fil0" d="M1382 5510l0 0 -69 20 -1 0 70 -20zm0 0c2,7 3,9 4,12l-69 22c-4,-13 -4,-13 -4,-14l69 -20zm4 12c0,1 2,6 6,17l-67 27c-1,-3 -4,-12 -8,-22l69 -22zm6 17c12,30 34,74 61,79l-14 72c-61,-12 -96,-79 -114,-124l67 -27zm61 79l0 0 -14 72 0 0 14 -72zm0 0l0 0 -7 36 7 -36zm0 0c16,3 -13,-2 7,2l-15 71c-16,-4 14,3 -6,-1l14 -72zm7 2c10,2 3,1 7,2l-16 70c-9,-2 0,0 -6,-1l15 -71zm7 2c11,2 22,5 32,8l-21 69c-8,-2 -17,-5 -27,-7l16 -70zm46 69l-15 14 -20 -6 10 -34 25 26zm-49 -53c16,-15 34,-32 48,-45l50 53c-23,21 -38,35 -49,45l-49 -53zm48 -45c15,-14 33,-31 54,-53l52 52c-15,14 -35,34 -56,54l-50 -53zm54 -53l52 52 -26 -26 -26 -26zm52 52c-23,23 -43,22 -60,6l52 -52c15,16 -57,8 -44,-6l52 52zm-60 6c-21,-22 -6,-46 9,-71l62 38c0,0 -38,-37 -19,-19l-52 52zm9 -71c1,-1 36,35 19,16l53 -49c20,21 5,46 -10,71l-62 -38zm19 16c-15,-16 61,-9 46,6l-50 -53c22,-21 41,-20 57,-2l-53 49zm46 6l-20 18 -23 -14 18 -31 25 27zm-43 4c-54,-31 -131,-17 -215,-1l-14 -72c98,-18 189,-35 265,11l-36 62zm-215 -1c-7,1 -13,2 -20,3l-13 -71c6,-1 13,-2 19,-4l14 72zm-62 -22l-10 -39 39 -7 6 36 -35 10zm341 -7l0 0 -70 -20 0 0 70 20zm0 0l0 0 -70 -19 0 -1 70 20zm0 0c-3,11 3,-11 -2,3l-69 -20c4,-13 -3,10 1,-2l70 19zm-2 3l-69 -20 35 10 34 10zm-69 -20l0 0 70 20 0 0 -70 -20zm0 0l0 0 35 10 -35 -10zm0 0c4,-13 -3,10 1,-2l70 19c-3,11 3,-11 -2,3l-69 -20zm1 -2l0 -1 70 20 0 0 -70 -19zm0 -1l70 20 -35 -10 -35 -10zm68 27c-3,8 0,-2 0,0l-70 -20c0,-2 -2,6 0,-2l70 22zm0 0l-1 0 -34 -10 35 10zm-1 0c0,1 1,-3 0,2l-69 -22c2,-5 0,1 0,-1l69 21zm0 2l-69 -22 35 11 34 11zm-69 -22l0 -1 70 20 -1 2 -69 -21zm0 -2l70 21 -35 -10 -35 -11zm62 43l-1 3 -67 -28 1 -3 67 28zm-1 3l-67 -28 33 14 34 14zm-67 -28l1 -3 67 28 -1 3 -67 -28zm1 -3l67 28 -33 -14 -34 -14zm50 59l0 0 -58 -43 0 0 58 43zm-58 -43l0 0 29 21 -29 -21zm58 43c-1,0 -1,1 -2,2l-55 -46c0,0 -2,1 -1,1l58 43zm-2 2l0 0 -28 -23 28 23zm0 0c0,1 1,-1 1,-1l-57 -44c0,0 0,0 1,-1l55 46zm1 0l-57 -45 28 22 29 23zm-57 -45l0 -1 57 45 0 1 -57 -45zm0 -1l58 44 -29 -22 -29 -22z"/>
        <path class="fil1" d="M1347 5520c6,20 38,122 99,134 16,3 30,7 42,11 28,-25 68,-63 104,-99 -31,31 41,-68 15,-44 -70,-41 -161,-20 -260,-2zm271 -7c0,1 -1,2 -1,3 0,-1 1,-2 1,-3zm-2 6c0,1 0,1 0,2 0,-1 0,-1 0,-2zm-6 18c-1,1 -1,2 -2,3 1,-1 1,-2 2,-3zm-13 23c0,1 -1,1 -1,1 0,0 1,0 1,-1z"/>
      </g>
      <g>
        <path class="fil0" d="M1622 5388l0 0 32 -65 0 0 -32 65zm32 -65l0 0 -16 32 16 -32zm-32 65c-4,-2 -7,-3 -10,-5l24 -68c7,3 13,5 18,8l-32 65zm-10 -5c-4,-1 -8,-2 -13,-3l18 -71c6,2 13,4 19,6l-24 68zm-13 -3c-24,-7 -57,-8 -101,0l-13 -71c55,-11 99,-8 132,0l-18 71zm-101 0c-166,31 -338,178 -338,179l-47 -55c0,-1 187,-161 372,-195l13 71zm-368 187l-76 -13 59 -50 23 27 -6 36zm12 -71l1 0 -13 71 0 0 12 -71zm1 0c70,12 146,-2 217,-16l14 72c-78,14 -160,30 -244,15l13 -71zm217 -16c98,-18 189,-35 265,11l-36 62c-54,-31 -131,-17 -215,-1l-14 -72zm261 75l-17 7 -15 -9 18 -31 14 33zm-28 -66c8,-4 7,-4 8,-4l26 68c-5,2 -3,1 -6,2l-28 -66zm8 -4l0 0 13 34 -13 -34zm0 0c17,-6 -22,9 2,-1l27 68c-23,9 15,-6 -3,1l-26 -68zm50 44l-5 17 -16 6 -14 -34 35 11zm-69 -21c5,-18 10,-43 13,-70l72 9c-3,29 -9,57 -16,82l-69 -21zm13 -70c4,-29 6,-58 7,-84l72 3c-1,32 -3,63 -7,90l-72 -9zm59 -115l21 11 -1 23 -36 -2 16 -32z"/>
        <path class="fil1" d="M1638 5355c-31,-15 -78,-23 -146,-11 -176,33 -356,187 -356,187 171,30 353,-79 471,-9 3,-1 6,-2 9,-4 13,-43 20,-104 22,-163z"/>
      </g>
      <g>
        <path class="fil4" d="M1722 5271l0 0 -41 -59 0 0 41 59zm0 0l-1 0 -20 -30 21 30zm-1 0c-35,24 -59,57 -69,91l-70 -21c15,-49 49,-96 99,-130l40 60zm-69 91c-10,31 -8,62 8,87l-59 40c-30,-44 -35,-97 -19,-148l70 21zm8 87l1 0 -30 20 29 -20zm1 0c0,0 -1,0 0,0l-60 40c-1,0 -1,0 -1,-1l61 -39zm-60 41l0 -1 30 -20 -30 21zm59 -41c1,0 1,1 1,1l-61 38c0,0 1,2 1,2l59 -41zm-59 41l-1 -2 31 -19 -30 21zm60 -41c4,6 9,12 16,17l-47 56c-10,-9 -20,-20 -29,-32l60 -41zm16 17c6,6 13,10 20,13l-30 66c-14,-6 -26,-14 -37,-23l47 -56zm20 13c42,20 101,13 151,-21l41 60c-72,49 -158,57 -222,27l30 -66zm192 39l0 0 -21 -30 21 30zm-41 -60l0 0 41 60 0 0 -41 -60zm0 0l0 0 20 30 -20 -30zm0 0c10,-6 19,-14 27,-22l51 51c-10,11 -23,21 -37,31l-41 -60zm27 -22c9,-9 16,-17 22,-26l59 42c-9,12 -19,24 -30,35l-51 -51zm22 -26c30,-43 36,-93 12,-129l60 -41c42,62 34,145 -13,212l-59 -42zm72 -170l0 0 -30 20 30 -20zm-60 41c0,-1 -1,-1 -1,-2l61 -38c0,0 -1,-2 0,-1l-60 41zm60 -41l0 1 -30 19 30 -20zm-60 40c-17,-24 -45,-38 -77,-40l5 -72c54,4 102,28 132,72l-60 40zm-77 -40c-35,-3 -75,7 -110,31l-41 -60c50,-33 106,-47 156,-43l-5 72zm-110 31l-1 0 -40 -60 0 0 41 60zm-41 -59l0 -1 20 30 -20 -29z"/>
        <path class="fil5" d="M1701 5241c-85,58 -116,160 -70,228 46,68 152,77 237,19 85,-57 117,-160 71,-228 -46,-68 -153,-76 -238,-19z"/>
      </g>
      <path class="fil4" d="M1703 5401c-24,36 -13,86 25,111 37,25 87,16 111,-20 24,-36 13,-86 -24,-111 -38,-25 -88,-16 -112,20z"/>
      <g>
        <path class="fil2" d="M2458 6460l0 0 0 47 0 0 0 -47zm2 47l-2 0 0 -24 2 24zm-4 -47c4,0 7,-5 25,-14l20 43c-22,11 -35,17 -41,18l-4 -47zm25 -14c57,-27 180,-87 301,-136l18 43c-115,46 -240,108 -299,136l-20 -43zm301 -136c141,-57 276,-92 300,-32l-44 18c-10,-26 -120,10 -238,57l-18 -43zm300 -32c61,153 -61,304 -175,446l-37 -30c106,-131 219,-272 168,-398l44 -18zm-175 446c-66,82 -129,160 -147,228l-46 -12c21,-78 87,-160 156,-246l37 30zm-147 228l-9 34 -28 -22 14 -18 23 6zm-37 12c-1,0 -246,-187 -274,-249l43 -19c23,51 259,231 259,231l-28 37zm-274 -249c-15,-35 -20,-103 -20,-157l47 0c0,49 4,109 16,138l-43 19zm-20 -157c0,-22 1,-40 2,-54l47 3c-1,14 -2,32 -2,51l-47 0zm2 -54c2,-22 8,-38 18,-42l19 43c-7,3 10,-2 10,2l-47 -3zm18 -42l0 0 9 21 -9 -21zm0 0c3,-2 6,-2 9,-2l0 47c-3,0 12,-3 9,-2l-18 -43z"/>
        <path class="fil3" d="M2458 6483c7,0 564,-291 602,-196 90,225 -272,468 -323,659 0,0 -241,-184 -266,-241 -25,-57 -19,-222 -13,-222z"/>
      </g>
    </g>
  </g>
</svg>
