<?xml version="1.0" encoding="UTF-8" standalone="no"?>
<!-- Created with Inkscape (http://www.inkscape.org/) --><svg height="64.000000" id="svg1291" inkscape:version="0.41" sodipodi:docbase="/home/mjk/projekti/ikonit" sodipodi:docname="bb_dvd_.svg" sodipodi:version="0.32" version="1.0" width="64.000000" x="0.0000000" xmlns="http://www.w3.org/2000/svg" xmlns:cc="http://web.resource.org/cc/" xmlns:dc="http://purl.org/dc/elements/1.1/" xmlns:inkscape="http://www.inkscape.org/namespaces/inkscape" xmlns:rdf="http://www.w3.org/1999/02/22-rdf-syntax-ns#" xmlns:sodipodi="http://inkscape.sourceforge.net/DTD/sodipodi-0.dtd" xmlns:svg="http://www.w3.org/2000/svg" xmlns:xlink="http://www.w3.org/1999/xlink" y="0.0000000">
  <metadata>
    <rdf:RDF xmlns:cc="http://web.resource.org/cc/" xmlns:dc="http://purl.org/dc/elements/1.1/" xmlns:rdf="http://www.w3.org/1999/02/22-rdf-syntax-ns#">
      <cc:Work rdf:about="">
        <dc:title>blueberry - iconset</dc:title>
        <dc:description></dc:description>
        <dc:subject>
          <rdf:Bag>
            <rdf:li>icon</rdf:li>
            <rdf:li>desktop</rdf:li>
            <rdf:li>computer</rdf:li>
          </rdf:Bag>
        </dc:subject>
        <dc:publisher>
          <cc:Agent rdf:about="http://www.openclipart.org/">
            <dc:title>Open Clip Art Library</dc:title>
          </cc:Agent>
        </dc:publisher>
        <dc:creator>
          <cc:Agent>
            <dc:title>Marko J. Kolehmainen</dc:title>
          </cc:Agent>
        </dc:creator>
        <dc:rights>
          <cc:Agent>
            <dc:title>Marko J. Kolehmainen</dc:title>
          </cc:Agent>
        </dc:rights>
        <dc:date></dc:date>
        <dc:format>image/svg+xml</dc:format>
        <dc:type rdf:resource="http://purl.org/dc/dcmitype/StillImage"/>
        <cc:license rdf:resource="http://web.resource.org/cc/PublicDomain"/>
        <dc:language>en</dc:language>
      </cc:Work>
      <cc:License rdf:about="http://web.resource.org/cc/PublicDomain">
        <cc:permits rdf:resource="http://web.resource.org/cc/Reproduction"/>
        <cc:permits rdf:resource="http://web.resource.org/cc/Distribution"/>
        <cc:permits rdf:resource="http://web.resource.org/cc/DerivativeWorks"/>
      </cc:License>
    </rdf:RDF>
  </metadata>
  <sodipodi:namedview bordercolor="#666666" borderopacity="1.0" id="base" inkscape:current-layer="svg1291" inkscape:cx="32.000000" inkscape:cy="32.000000" inkscape:pageopacity="0.0" inkscape:pageshadow="2" inkscape:window-height="965" inkscape:window-width="1270" inkscape:window-x="0" inkscape:window-y="26" inkscape:zoom="6.4218750" pagecolor="#ffffff"/>
  <defs id="defs3">
    <linearGradient id="linearGradient2201">
      <stop id="stop2203" offset="0.0000000" style="stop-color:#abb5bd;stop-opacity:1.0000000;"/>
      <stop id="stop2205" offset="1.0000000" style="stop-color:#c7d4ef;stop-opacity:1.0000000;"/>
    </linearGradient>
    <linearGradient id="linearGradient2193">
      <stop id="stop2195" offset="0.0000000" style="stop-color:#d6eafa;stop-opacity:1.0000000;"/>
      <stop id="stop2197" offset="1.0000000" style="stop-color:#e2e2c3;stop-opacity:1.0000000;"/>
    </linearGradient>
    <linearGradient id="linearGradient2185">
      <stop id="stop2187" offset="0.0000000" style="stop-color:#dfbacf;stop-opacity:1.0000000;"/>
      <stop id="stop2189" offset="1.0000000" style="stop-color:#bae7ba;stop-opacity:1.0000000;"/>
    </linearGradient>
    <linearGradient id="linearGradient2177">
      <stop id="stop2179" offset="0.0000000" style="stop-color:#e5faff;stop-opacity:1.0000000;"/>
      <stop id="stop2181" offset="1.0000000" style="stop-color:#fffee5;stop-opacity:1.0000000;"/>
    </linearGradient>
    <linearGradient id="linearGradient2169">
      <stop id="stop2171" offset="0.0000000" style="stop-color:#e1f7d3;stop-opacity:1.0000000;"/>
      <stop id="stop2173" offset="1.0000000" style="stop-color:#d7e5f2;stop-opacity:1.0000000;"/>
    </linearGradient>
    <linearGradient id="linearGradient2161">
      <stop id="stop2163" offset="0.0000000" style="stop-color:#b0bfc7;stop-opacity:1.0000000;"/>
      <stop id="stop2165" offset="1.0000000" style="stop-color:#dbeff7;stop-opacity:1.0000000;"/>
    </linearGradient>
    <linearGradient gradientUnits="userSpaceOnUse" id="linearGradient2167" x1="61.546753" x2="5.7659883" xlink:href="#linearGradient2161" y1="57.822754" y2="6.7167969"/>
    <linearGradient gradientTransform="scale(1.301702,0.768225)" gradientUnits="userSpaceOnUse" id="linearGradient2175" x1="9.6783218" x2="27.935955" xlink:href="#linearGradient2169" y1="5.4360852" y2="31.573669"/>
    <linearGradient gradientTransform="scale(0.770234,1.298306)" gradientUnits="userSpaceOnUse" id="linearGradient2183" x1="43.104752" x2="29.017365" xlink:href="#linearGradient2177" y1="17.221308" y2="4.2194395"/>
    <linearGradient gradientTransform="scale(1.333398,0.749964)" gradientUnits="userSpaceOnUse" id="linearGradient2191" x1="10.502192" x2="26.309233" xlink:href="#linearGradient2185" y1="54.404156" y2="79.766159"/>
    <linearGradient gradientTransform="scale(1.075595,0.929718)" gradientUnits="userSpaceOnUse" id="linearGradient2199" x1="29.482651" x2="43.527679" xlink:href="#linearGradient2193" y1="47.991489" y2="62.510647"/>
    <linearGradient gradientUnits="userSpaceOnUse" id="linearGradient2207" x1="6.3030663" x2="60.306602" xlink:href="#linearGradient2201" y1="7.8242927" y2="59.165684"/>
    <linearGradient gradientTransform="scale(1.075595,0.929718)" gradientUnits="userSpaceOnUse" id="linearGradient1416" inkscape:collect="always" x1="29.482651" x2="43.527679" xlink:href="#linearGradient2193" y1="47.991489" y2="62.510647"/>
    <linearGradient gradientTransform="scale(0.770234,1.298306)" gradientUnits="userSpaceOnUse" id="linearGradient1419" inkscape:collect="always" x1="43.104752" x2="29.017365" xlink:href="#linearGradient2177" y1="17.221308" y2="4.2194395"/>
    <linearGradient gradientTransform="scale(1.333398,0.749964)" gradientUnits="userSpaceOnUse" id="linearGradient1422" inkscape:collect="always" x1="10.502192" x2="26.309233" xlink:href="#linearGradient2185" y1="54.404156" y2="79.766159"/>
    <linearGradient gradientTransform="scale(1.301702,0.768225)" gradientUnits="userSpaceOnUse" id="linearGradient1425" inkscape:collect="always" x1="9.6783218" x2="27.935955" xlink:href="#linearGradient2169" y1="5.4360852" y2="31.573669"/>
    <linearGradient gradientUnits="userSpaceOnUse" id="linearGradient1428" inkscape:collect="always" x1="61.546753" x2="5.7659883" xlink:href="#linearGradient2161" y1="57.822754" y2="6.7167969"/>
    <linearGradient gradientUnits="userSpaceOnUse" id="linearGradient1430" inkscape:collect="always" x1="6.3030663" x2="60.306602" xlink:href="#linearGradient2201" y1="7.8242927" y2="59.165684"/>
  </defs>
  <path d="M 32.718750,3.0000000 C 16.309296,3.0000000 3.0000001,16.309296 3.0000000,32.718750 C 3.0000000,49.128204 16.309296,62.468750 32.718750,62.468750 C 49.128204,62.468750 62.468750,49.128204 62.468750,32.718750 C 62.468750,16.309296 49.128204,2.9999999 32.718750,3.0000000 z M 32.718750,27.218750 C 35.754752,27.218750 38.218750,29.682748 38.218750,32.718750 C 38.218750,35.754751 35.754752,38.218750 32.718750,38.218750 C 29.682749,38.218749 27.218750,35.754752 27.218750,32.718750 C 27.218749,29.682748 29.682748,27.218750 32.718750,27.218750 z " id="path1301" style="fill:url(#linearGradient1428);fill-opacity:1.0000000;stroke:url(#linearGradient1430);stroke-opacity:1.0000000"/>
  <path d="M 32.000000,26.545455 C 32.769452,25.220450 28.624441,24.000000 32.000000,24.000000 C 33.805698,24.000000 28.743123,23.231024 31.000000,22.000000 C 33.640724,20.559605 26.219439,22.718437 31.000000,20.545455 C 33.847276,19.251238 25.155987,18.545455 28.000000,18.545455 C 30.702237,18.545455 27.844218,16.000000 27.000000,16.000000 C 25.132053,16.000000 30.468583,16.255849 27.454545,15.000000 C 25.562198,14.211522 19.586957,16.413043 22.000000,14.000000 C 23.054580,12.945420 30.531651,12.000000 21.000000,12.000000 C 15.159851,12.000000 17.382241,11.822218 21.000000,11.000000 C 23.697623,10.386904 19.578829,10.421171 17.454545,12.545455 C 14.906046,15.093954 17.000000,11.461330 17.000000,11.000000 C 17.000000,10.785725 17.303030,10.696970 17.454545,10.545455 C 17.535568,10.464432 9.8632371,13.165507 13.000000,11.454545 C 13.965610,10.927849 18.000000,9.1323095 18.000000,8.0000000 C 18.000000,6.9459074 20.563813,7.9596105 21.000000,7.0000000 C 21.436187,6.0403895 23.074617,6.5047545 24.000000,6.0000000 C 24.841941,5.5407594 29.687776,4.0000000 30.545455,4.0000000 C 32.848485,4.0000000 35.151515,4.0000000 37.454545,4.0000000 C 37.902828,4.0000000 38.782841,5.0000000 40.000000,5.0000000 C 41.220046,5.0000000 44.381905,6.9182252 45.454545,7.4545455 C 46.450084,7.9523147 49.557260,10.188310 50.000000,11.000000 C 51.703063,14.122283 48.000000,8.4876148 48.000000,13.000000 C 48.000000,15.062781 46.000000,9.8164882 46.000000,13.000000 C 46.000000,15.750175 42.201485,12.000000 38.000000,12.000000 C 36.617224,12.000000 33.901473,10.074334 38.000000,14.545455 C 40.601656,17.383625 39.279781,15.279781 38.000000,14.000000 C 37.915966,13.915966 41.000000,16.113177 41.000000,18.000000 C 41.000000,19.333333 38.333333,18.000000 37.000000,18.000000 C 29.789858,18.000000 35.558440,19.809521 36.545455,21.454545 C 38.742661,25.116556 40.020982,21.172281 35.000000,23.454545 C 34.857378,23.519374 37.836797,23.710547 35.000000,25.000000 C 33.816738,25.537846 33.576336,25.685635 32.000000,26.545455 z " id="path2149" style="fill:url(#linearGradient1425);fill-opacity:1.0000000;fill-rule:evenodd;stroke:none;stroke-width:1.0000000px;stroke-linecap:butt;stroke-linejoin:miter;stroke-opacity:1.0000000"/>
  <path d="M 32.000000,39.454545 C 29.369912,40.650040 31.378485,39.167334 30.545455,41.000000 C 29.441590,43.428501 33.657887,41.791870 30.000000,43.454545 C 29.818022,43.537263 33.225610,44.391907 30.545455,46.000000 C 28.957322,46.952880 32.282366,47.000000 28.545455,47.000000 C 28.430967,47.000000 32.380936,49.000000 30.000000,49.000000 C 19.218780,49.000000 31.735899,51.000000 24.545455,51.000000 C 22.660277,51.000000 18.736892,48.191437 20.545455,50.000000 C 20.863997,50.318542 21.151515,50.666667 21.454545,51.000000 C 22.911687,52.602856 25.834024,52.000000 20.000000,52.000000 C 18.920940,52.000000 18.472089,50.359133 17.454545,50.000000 C 15.532229,49.321535 19.205461,52.000000 21.454545,52.000000 C 21.809265,52.000000 18.377609,52.692283 17.454545,51.000000 C 16.867503,49.923755 15.552273,50.966116 17.000000,52.545455 C 19.992526,55.810029 14.268200,51.000000 13.000000,51.000000 C 12.983486,51.000000 15.643153,54.383252 17.000000,55.000000 C 19.008197,55.912817 19.244048,58.000000 21.454545,58.000000 C 21.578596,58.000000 24.787644,60.000000 27.000000,60.000000 C 30.169856,60.000000 31.823869,61.000000 35.454545,61.000000 C 37.707615,61.000000 39.944701,59.300377 41.454545,58.545455 C 43.751365,57.397045 45.910045,56.000000 48.000000,56.000000 C 48.588378,56.000000 48.464360,54.788927 49.000000,54.545455 C 49.982340,54.098936 50.236989,52.763011 51.000000,52.000000 C 52.818737,50.181263 46.039900,54.072773 44.000000,55.000000 C 43.233006,55.348634 45.404254,54.050291 46.000000,53.454545 C 46.484848,52.969697 46.969697,52.484848 47.454545,52.000000 C 48.888438,50.566107 38.828889,54.406852 42.545455,51.000000 C 46.789419,47.109699 39.485325,48.000000 36.000000,48.000000 C 34.945907,48.000000 37.945907,47.000000 39.000000,47.000000 C 39.247770,47.000000 41.020611,44.897849 39.000000,46.000000 C 34.714728,48.337421 31.650190,50.154165 34.000000,45.454545 C 34.656011,44.142524 29.649573,45.827505 34.000000,43.454545 C 34.673565,43.087147 32.732402,42.722143 34.000000,41.454545 C 35.198663,40.255883 32.452556,39.701394 32.000000,39.454545 z " id="path2153" style="fill:url(#linearGradient1422);fill-opacity:1.0000000;fill-rule:evenodd;stroke:none;stroke-width:1.0000000px;stroke-linecap:butt;stroke-linejoin:miter;stroke-opacity:1.0000000"/>
  <path d="M 27.000000,6.0000000 C 25.207266,5.5528222 21.697657,9.0000000 24.000000,9.0000000 C 29.232665,9.0000000 20.447697,10.000000 28.000000,10.000000 C 32.725558,10.000000 23.241583,12.000000 28.000000,12.000000 C 31.892110,12.000000 30.298480,11.452786 29.454545,13.000000 C 27.737190,16.148485 31.000000,13.016007 31.000000,18.000000 C 31.000000,20.621178 34.439838,20.105617 32.000000,22.545455 C 31.630577,22.914878 33.000000,24.683546 33.000000,23.000000 C 33.000000,21.216472 34.868087,20.868087 33.454545,19.454545 C 30.894518,16.894518 34.873191,15.873191 33.000000,14.000000 C 32.892863,13.892863 32.696970,14.000000 32.545455,14.000000 C 32.331834,14.000000 35.432515,13.000000 33.000000,13.000000 C 32.803804,13.000000 29.272020,11.000000 32.000000,11.000000 C 33.101563,11.000000 37.452324,8.0000000 32.000000,8.0000000 C 31.515152,8.0000000 31.558610,6.7460863 32.000000,6.5454545 C 35.106280,5.1335092 32.508642,6.9325108 31.454545,5.0000000 C 30.725827,3.6640154 28.076078,4.9239224 27.000000,6.0000000 z " id="path2157" style="fill:url(#linearGradient1419);fill-opacity:1.0000000;fill-rule:evenodd;stroke:none;stroke-width:1.0000000px;stroke-linecap:butt;stroke-linejoin:miter;stroke-opacity:1.0000000"/>
  <path d="M 32.000000,44.000000 C 31.664969,43.385777 32.901298,47.508383 31.000000,48.545455 C 29.308625,49.468023 35.277452,49.389606 34.545455,51.000000 C 33.317729,53.700997 37.424878,50.387724 36.000000,53.000000 C 34.964004,54.899325 39.579047,53.138702 37.000000,54.545455 C 31.352642,57.625832 41.663510,56.243859 39.000000,57.454545 C 35.852668,58.885151 41.304676,58.695324 42.545455,57.454545 C 43.380034,56.619966 46.061198,54.000000 47.000000,54.000000 C 47.366153,54.000000 47.303030,53.333333 47.454545,53.000000 C 47.798868,52.242491 45.832093,53.454545 45.000000,53.454545 C 44.411622,53.454545 44.588378,52.000000 44.000000,52.000000 C 40.764863,52.000000 42.293237,50.000000 37.000000,50.000000 C 30.610061,50.000000 37.945067,49.399613 36.000000,47.454545 C 34.581608,46.036154 32.000000,46.171476 32.000000,44.000000 z " id="path2159" style="fill:url(#linearGradient1416);fill-opacity:1.0000000;fill-rule:evenodd;stroke:none;stroke-width:1.0000000px;stroke-linecap:butt;stroke-linejoin:miter;stroke-opacity:1.0000000"/>
  <path d="M 29.832593,5.4545455 C 29.499260,5.6060607 29.165926,5.7575758 28.832593,5.9090910 C 26.490817,6.9735346 29.832593,5.6935233 29.832593,9.4545455 C 29.832593,9.8304505 30.832593,10.816890 30.832593,12.363635 C 30.832593,14.868887 31.832593,17.207392 31.832593,13.454545 C 31.832593,10.746490 30.832593,8.6903876 30.832593,6.3636365 C 30.832593,5.5429381 30.970527,5.9717884 29.832593,5.4545455 z " id="path2213" style="fill:#ffffff;fill-opacity:1.0000000;fill-rule:evenodd;stroke:none;stroke-width:1.0000000px;stroke-linecap:butt;stroke-linejoin:miter;stroke-opacity:1.0000000"/>
  <path d="M 40.000000,53.000000 C 40.000000,51.772073 39.922008,55.957459 41.000000,56.545455 C 45.014727,58.735306 43.000000,54.641843 43.000000,54.000000 C 43.000000,53.666667 42.333333,54.000000 42.000000,54.000000 C 44.434290,56.232525 42.019917,54.554508 42.000000,54.545455 C 37.463948,52.483613 40.000000,50.904828 40.000000,54.000000" id="path2215" style="fill:#f6f6f6;fill-opacity:1.0000000;fill-rule:evenodd;stroke:none;stroke-width:1.0000000px;stroke-linecap:butt;stroke-linejoin:miter;stroke-opacity:1.0000000"/>
  <path d="M 41.160601,26.870339 L 44.202633,26.870339 C 44.888632,26.870348 45.411569,26.922829 45.771444,27.027783 C 46.255015,27.170240 46.669241,27.423274 47.014123,27.786885 C 47.358992,28.150512 47.621398,28.596601 47.801340,29.125154 C 47.981268,29.649971 48.071236,30.298488 48.071243,31.070706 C 48.071236,31.749215 47.986891,32.334005 47.818209,32.825075 C 47.612026,33.424862 47.317757,33.910312 46.935401,34.281427 C 46.646749,34.562577 46.256889,34.781873 45.765821,34.939316 C 45.398448,35.055524 44.907375,35.113628 44.292601,35.113628 L 41.160601,35.113628 L 41.160601,26.870339 M 42.825003,28.264839 L 42.825003,33.724752 L 44.067681,33.724752 C 44.532510,33.724754 44.868014,33.698513 45.074195,33.646031 C 45.344093,33.578556 45.567138,33.464223 45.743330,33.303029 C 45.923259,33.141839 46.069457,32.877559 46.181922,32.510189 C 46.294376,32.139075 46.350605,31.634881 46.350611,30.997607 C 46.350605,30.360341 46.294376,29.871142 46.181922,29.530009 C 46.069457,29.188888 45.912013,28.922733 45.709592,28.731546 C 45.507159,28.540371 45.250377,28.411043 44.939243,28.343560 C 44.706823,28.291086 44.251362,28.264845 43.572859,28.264839 L 42.825003,28.264839 M 51.591229,35.113628 L 48.644787,26.870339 L 50.449764,26.870339 L 52.535890,32.971273 L 54.554540,26.870339 L 56.320155,26.870339 L 53.368091,35.113628 L 51.591229,35.113628 M 57.174848,26.870339 L 60.216881,26.870339 C 60.902880,26.870348 61.425816,26.922829 61.785692,27.027783 C 62.269262,27.170240 62.683488,27.423274 63.028371,27.786885 C 63.373240,28.150512 63.635645,28.596601 63.815588,29.125154 C 63.995516,29.649971 64.085483,30.298488 64.085491,31.070706 C 64.085483,31.749215 64.001139,32.334005 63.832457,32.825075 C 63.626274,33.424862 63.332005,33.910312 62.949649,34.281427 C 62.660996,34.562577 62.271137,34.781873 61.780069,34.939316 C 61.412696,35.055524 60.921623,35.113628 60.306848,35.113628 L 57.174848,35.113628 L 57.174848,26.870339 M 58.839250,28.264839 L 58.839250,33.724752 L 60.081929,33.724752 C 60.546758,33.724754 60.882262,33.698513 61.088443,33.646031 C 61.358341,33.578556 61.581385,33.464223 61.757577,33.303029 C 61.937507,33.141839 62.083704,32.877559 62.196170,32.510189 C 62.308623,32.139075 62.364853,31.634881 62.364859,30.997607 C 62.364853,30.360341 62.308623,29.871142 62.196170,29.530009 C 62.083704,29.188888 61.926261,28.922733 61.723839,28.731546 C 61.521407,28.540371 61.264624,28.411043 60.953491,28.343560 C 60.721070,28.291086 60.265609,28.264845 59.587107,28.264839 L 58.839250,28.264839" id="text2425" style="font-size:11.515863;font-style:normal;font-variant:normal;font-weight:bold;font-stretch:normal;fill:#4b748e;fill-opacity:1.0000000;stroke:none;stroke-width:1.0000000px;stroke-linecap:butt;stroke-linejoin:miter;stroke-opacity:1.0000000;font-family:Arial;text-anchor:start;writing-mode:lr-tb" transform="scale(0.959655,1.042041)"/>
</svg>
