<?xml version="1.0" encoding="UTF-8" standalone="no"?>
<!DOCTYPE svg PUBLIC "-//W3C//DTD SVG 20010904//EN"
"http://www.w3.org/TR/2001/REC-SVG-20010904/DTD/svg10.dtd">
<!-- Created with Inkscape (http://www.inkscape.org/) --><svg height="250.00000pt" id="svg4217" inkscape:export-filename="p:\red_flower.png" inkscape:export-xdpi="72.000000" inkscape:export-ydpi="72.000000" inkscape:version="0.39cvs" sodipodi:docbase="P:\tmp\Cliparts Stocker" sodipodi:docname="red_flower.svg" sodipodi:version="0.32" width="250.00000pt" xmlns="http://www.w3.org/2000/svg" xmlns:cc="http://web.resource.org/cc/" xmlns:dc="http://purl.org/dc/elements/1.1/" xmlns:inkscape="http://www.inkscape.org/namespaces/inkscape" xmlns:rdf="http://www.w3.org/1999/02/22-rdf-syntax-ns#" xmlns:sodipodi="http://sodipodi.sourceforge.net/DTD/sodipodi-0.dtd" xmlns:xlink="http://www.w3.org/1999/xlink">
  <metadata>
    <rdf:RDF xmlns:cc="http://web.resource.org/cc/" xmlns:dc="http://purl.org/dc/elements/1.1/" xmlns:rdf="http://www.w3.org/1999/02/22-rdf-syntax-ns#">
      <cc:Work rdf:about="">
        <dc:title>red_flower</dc:title>
        <dc:description></dc:description>
        <dc:subject>
          <rdf:Bag>
            <rdf:li></rdf:li>
            <rdf:li>plant</rdf:li>
            <rdf:li>flower</rdf:li>
          </rdf:Bag>
        </dc:subject>
        <dc:publisher>
          <cc:Agent rdf:about="http://www.openclipart.org">
            <dc:title>Jean-Victor Balin (balin_j@epita.fr)</dc:title>
          </cc:Agent>
        </dc:publisher>
        <dc:creator>
          <cc:Agent>
            <dc:title>Jean-Victor Balin (balin_j@epita.fr)</dc:title>
          </cc:Agent>
        </dc:creator>
        <dc:rights>
          <cc:Agent>
            <dc:title>Jean-Victor Balin (balin_j@epita.fr)</dc:title>
          </cc:Agent>
        </dc:rights>
        <dc:date></dc:date>
        <dc:format>image/svg+xml</dc:format>
        <dc:type rdf:resource="http://purl.org/dc/dcmitype/StillImage"/>
        <cc:license rdf:resource="http://web.resource.org/cc/PublicDomain"/>
        <dc:language>en</dc:language>
      </cc:Work>
      <cc:License rdf:about="http://web.resource.org/cc/PublicDomain">
        <cc:permits rdf:resource="http://web.resource.org/cc/Reproduction"/>
        <cc:permits rdf:resource="http://web.resource.org/cc/Distribution"/>
        <cc:permits rdf:resource="http://web.resource.org/cc/DerivativeWorks"/>
      </cc:License>
    </rdf:RDF>
  </metadata>
  <defs id="defs4219">
    <linearGradient id="linearGradient19932">
      <stop id="stop19933" offset="0.00000000" style="stop-color:#12761e;stop-opacity:1.0000000;"/>
      <stop id="stop19934" offset="1.0000000" style="stop-color:#2f5712;stop-opacity:1.0000000;"/>
    </linearGradient>
    <linearGradient id="linearGradient9173">
      <stop id="stop9174" offset="0.00000000" style="stop-color:#5c0a00;stop-opacity:1.0000000;"/>
      <stop id="stop9175" offset="1.0000000" style="stop-color:#914412;stop-opacity:0.00000000;"/>
    </linearGradient>
    <radialGradient cx="0.52884614" cy="-0.029411765" fx="0.52884614" fy="-0.029411765" id="radialGradient15564" inkscape:collect="always" r="1.1884449" xlink:href="#linearGradient9173"/>
    <linearGradient id="linearGradient23052" inkscape:collect="always" x1="0.58823532" x2="0.58823532" xlink:href="#linearGradient19932" y1="0.090322584" y2="0.71612900"/>
  </defs>
  <sodipodi:namedview bordercolor="#666666" borderopacity="1.0" gridcolor="#3f3fff" gridhicolor="0.18431373" gridoriginx="0.00000000pt" gridoriginy="0.00000000pt" gridspacingx="1.0000000pt" gridspacingy="1.0000000pt" gridtolerance="1.0000000px" id="base" inkscape:cx="152.04940" inkscape:cy="78.553527" inkscape:grid-bbox="true" inkscape:grid-points="true" inkscape:guide-bbox="true" inkscape:guide-points="true" inkscape:pageopacity="0.0" inkscape:pageshadow="2" inkscape:window-height="721" inkscape:window-width="1024" inkscape:window-x="-4" inkscape:window-y="-4" inkscape:zoom="3.1621815" pagecolor="#ffffff" showgrid="true"/>
  <path d="M 160.00000,289.83134 C 153.04970,271.71295 143.51980,254.60056 131.83121,239.11243 C 128.21134,234.05885 125.27877,228.50474 121.25283,223.75000 C 120.17453,222.63095 121.30202,225.78091 121.28481,226.59555 C 124.67337,244.52149 133.92233,260.81811 145.31639,274.85971 C 149.68382,280.34260 154.52049,285.44314 160.00000,289.83134 z " id="path4165" style="fill:#256115;fill-opacity:1.0000000;fill-rule:evenodd;stroke:#000000;stroke-width:0.62500000;stroke-linecap:round;stroke-linejoin:round;stroke-miterlimit:4.0000000;stroke-opacity:1.0000000;"/>
  <path d="M 335.18750,267.84448 C 360.20501,293.78995 371.54386,330.23369 372.58446,365.69312 C 373.21642,389.44490 370.52816,413.79237 360.47823,435.57158 C 356.25498,445.11794 351.05617,454.21760 345.18750,462.84448" id="path9159" style="fill:none;fill-opacity:0.75000000;fill-rule:evenodd;stroke:url(#linearGradient23052);stroke-width:5.3750000;stroke-linecap:round;stroke-linejoin:miter;stroke-miterlimit:4.0000000;stroke-opacity:1.0000000;" transform="translate(-192.5785,-173.4070)"/>
  <path d="M 162.07154,296.25000 C 152.72564,284.75466 145.95495,271.44564 139.64829,258.11724 C 129.16895,234.50974 122.60766,208.33385 126.25000,182.50000 C 126.25000,181.25000 127.50000,182.50000 128.75000,186.25000 C 132.50000,196.25000 139.50591,211.95231 144.50143,224.71502 C 148.06747,233.39793 150.95391,242.34478 154.13341,251.16760 C 158.47534,265.79936 162.97125,280.80715 162.07154,296.25000 z " id="path2891" sodipodi:nodetypes="ccccccc" style="fill:#1c6a19;fill-opacity:1.0000000;fill-rule:evenodd;stroke:#000000;stroke-width:0.62500000;stroke-linecap:round;stroke-linejoin:round;stroke-miterlimit:4.0000000;stroke-opacity:1.0000000;"/>
  <path d="M 154.99347,287.18750 C 170.75295,265.61591 183.87350,241.33477 188.34968,214.73053 C 191.80217,198.67993 193.37062,182.26627 193.68143,165.86520 C 199.10914,182.79278 200.09429,200.87197 198.75000,218.50196 C 196.51160,239.13516 188.95863,259.98456 173.90936,274.75093 C 168.47184,280.03768 162.14643,284.54899 154.99347,287.18750 z " id="path987" style="fill:#206617;fill-opacity:1.0000000;fill-rule:evenodd;stroke:#000000;stroke-width:0.62500000;stroke-linecap:round;stroke-linejoin:round;stroke-miterlimit:4.0000000;stroke-opacity:1.0000000;"/>
  <path d="M 267.50000,455.96948 A 103.12500,16.875000 0 0 1 473.75000,455.96948 L 370.62500,455.96948 z" id="path9172" sodipodi:cx="370.62500" sodipodi:cy="455.96948" sodipodi:end="6.2831853" sodipodi:rx="103.12500" sodipodi:ry="16.875000" sodipodi:start="3.1415927" sodipodi:type="arc" style="fill:#81390b;fill-opacity:1.0000000;fill-rule:evenodd;stroke:none;stroke-width:0.72024304;stroke-linecap:round;stroke-linejoin:round;stroke-miterlimit:4.0000000;stroke-opacity:1.0000000;" transform="matrix(0.753012,0.000000,0.000000,1.000000,-120.9669,-155.2820)"/>
  <path d="M 323.75000 205.34448 A 13.125000 37.500000 0 1 0 297.50000,205.34448 A 13.125000 37.500000 0 1 0 323.75000 205.34448 z" id="path9147" sodipodi:cx="310.62500" sodipodi:cy="205.34448" sodipodi:rx="13.125000" sodipodi:ry="37.500000" sodipodi:type="arc" style="fill:#cb0000;fill-opacity:1.0000000;fill-rule:evenodd;stroke:#000000;stroke-width:1.0000000pt;stroke-linecap:butt;stroke-linejoin:miter;stroke-opacity:1.0000000;" transform="matrix(0.589896,0.588202,-0.591545,0.586562,113.1557,-242.3846)"/>
  <path d="M 323.75000 205.34448 A 13.125000 37.500000 0 1 0 297.50000,205.34448 A 13.125000 37.500000 0 1 0 323.75000 205.34448 z" id="path9148" sodipodi:cx="310.62500" sodipodi:cy="205.34448" sodipodi:rx="13.125000" sodipodi:ry="37.500000" sodipodi:type="arc" style="fill:#cb0000;fill-opacity:1.0000000;fill-rule:evenodd;stroke:#000000;stroke-width:1.0000000pt;stroke-linecap:butt;stroke-linejoin:miter;stroke-opacity:1.0000000;" transform="matrix(0.899563,1.224904e-3,-1.255509e-3,0.877635,-133.8824,-129.9104)"/>
  <path d="M 323.75000 205.34448 A 13.125000 37.500000 0 1 0 297.50000,205.34448 A 13.125000 37.500000 0 1 0 323.75000 205.34448 z" id="path9144" sodipodi:cx="310.62500" sodipodi:cy="205.34448" sodipodi:rx="13.125000" sodipodi:ry="37.500000" sodipodi:type="arc" style="fill:#cb0000;fill-opacity:1.0000000;fill-rule:evenodd;stroke:#000000;stroke-width:1.0000000pt;stroke-linecap:butt;stroke-linejoin:miter;stroke-opacity:1.0000000;" transform="matrix(0.578495,-0.586552,0.576882,0.588192,-181.9830,122.2393)"/>
  <path d="M 323.75000 205.34448 A 13.125000 37.500000 0 1 0 297.50000,205.34448 A 13.125000 37.500000 0 1 0 323.75000 205.34448 z" id="path9150" sodipodi:cx="310.62500" sodipodi:cy="205.34448" sodipodi:rx="13.125000" sodipodi:ry="37.500000" sodipodi:type="arc" style="fill:#cb0000;fill-opacity:1.0000000;fill-rule:evenodd;stroke:#000000;stroke-width:1.0000000pt;stroke-linecap:butt;stroke-linejoin:miter;stroke-opacity:1.0000000;" transform="matrix(1.226105e-3,-0.899563,0.878495,1.255509e-3,-74.60350,369.5006)"/>
  <path d="M 323.75000 205.34448 A 13.125000 37.500000 0 1 0 297.50000,205.34448 A 13.125000 37.500000 0 1 0 323.75000 205.34448 z" id="path9145" sodipodi:cx="310.62500" sodipodi:cy="205.34448" sodipodi:rx="13.125000" sodipodi:ry="37.500000" sodipodi:type="arc" style="fill:#cb0000;fill-opacity:1.0000000;fill-rule:evenodd;stroke:#000000;stroke-width:1.0000000pt;stroke-linecap:butt;stroke-linejoin:miter;stroke-opacity:1.0000000;" transform="matrix(-0.578509,-0.610854,0.580127,-0.609150,177.8037,434.5161)"/>
  <path d="M 323.75000 205.34448 A 13.125000 37.500000 0 1 0 297.50000,205.34448 A 13.125000 37.500000 0 1 0 323.75000 205.34448 z" id="path9151" sodipodi:cx="310.62500" sodipodi:cy="205.34448" sodipodi:rx="13.125000" sodipodi:ry="37.500000" sodipodi:type="arc" style="fill:#cb0000;fill-opacity:1.0000000;fill-rule:evenodd;stroke:#000000;stroke-width:1.0000000pt;stroke-linecap:butt;stroke-linejoin:miter;stroke-opacity:1.0000000;" transform="matrix(1.255509e-3,-0.899563,0.899563,1.255509e-3,0.656500,369.5006)"/>
  <path d="M 323.75000 205.34448 A 13.125000 37.500000 0 1 0 297.50000,205.34448 A 13.125000 37.500000 0 1 0 323.75000 205.34448 z" id="path9146" sodipodi:cx="310.62500" sodipodi:cy="205.34448" sodipodi:rx="13.125000" sodipodi:ry="37.500000" sodipodi:type="arc" style="fill:#cb0000;fill-opacity:1.0000000;fill-rule:evenodd;stroke:#000000;stroke-width:1.0000000pt;stroke-linecap:butt;stroke-linejoin:miter;stroke-opacity:1.0000000;" transform="matrix(0.604756,-0.604503,0.603070,0.606193,-136.2745,182.7328)"/>
  <path d="M 323.75000 205.34448 A 13.125000 37.500000 0 1 0 297.50000,205.34448 A 13.125000 37.500000 0 1 0 323.75000 205.34448 z" id="path9149" sodipodi:cx="310.62500" sodipodi:cy="205.34448" sodipodi:rx="13.125000" sodipodi:ry="37.500000" sodipodi:type="arc" style="fill:#cb0000;fill-opacity:1.0000000;fill-rule:evenodd;stroke:#000000;stroke-width:1.0000000pt;stroke-linecap:butt;stroke-linejoin:miter;stroke-opacity:1.0000000;" transform="matrix(0.899563,1.240936e-3,-1.255509e-3,0.889122,-132.7581,-53.67200)"/>
  <path d="M 362.50000 262.21948 A 23.125000 20.625000 0 1 0 316.25000,262.21948 A 23.125000 20.625000 0 1 0 362.50000 262.21948 z" id="path9143" sodipodi:cx="339.37500" sodipodi:cy="262.21948" sodipodi:rx="23.125000" sodipodi:ry="20.625000" sodipodi:type="arc" style="fill:#ffcc00;fill-opacity:1.0000000;fill-rule:evenodd;stroke:#000000;stroke-width:1.0000000pt;stroke-linecap:butt;stroke-linejoin:miter;stroke-opacity:1.0000000;" transform="translate(-192.5785,-173.4070)"/>
  <path d="M 327.06250,249.09448 C 323.16285,252.30513 320.62500,257.01219 320.62500,262.34448 C 320.62500,272.00448 328.74500,279.84448 338.75000,279.84448 C 344.53244,279.84448 349.61806,277.16990 352.93750,273.09448 C 349.77253,275.70026 345.73227,277.34448 341.25000,277.34448 C 331.24500,277.34448 323.12500,269.50448 323.12500,259.84448 C 323.12500,255.76752 324.63852,252.07052 327.06250,249.09448 z " id="path12452" style="fill:#ffa700;fill-opacity:1.0000000;fill-rule:evenodd;stroke:none;stroke-width:1.0000000pt;stroke-linecap:butt;stroke-linejoin:miter;stroke-opacity:1.0000000;" transform="translate(-192.5785,-173.4070)"/>
  <path d="M 342.18750,245.03198 C 339.71200,245.03198 337.40337,245.62551 335.31250,246.59448 C 336.42512,246.38716 337.57461,246.28198 338.75000,246.28198 C 348.66964,246.28198 356.71875,254.03261 356.71875,263.56323 C 356.71875,264.93759 356.50379,266.25011 356.18750,267.53198 C 357.38690,265.38127 358.12500,262.95360 358.12500,260.34448 C 358.12500,251.89198 350.98501,245.03198 342.18750,245.03198 z " id="path14318" style="fill:#ffa700;fill-opacity:1.0000000;fill-rule:evenodd;stroke:none;stroke-width:1.0000000pt;stroke-linecap:butt;stroke-linejoin:miter;stroke-opacity:1.0000000;" transform="translate(-192.5785,-173.4070)"/>
  <path d="M 267.50000,455.96948 A 103.12500,16.875000 0 0 1 473.75000,455.96948 L 370.62500,455.96948 z" id="path14942" sodipodi:cx="370.62500" sodipodi:cy="455.96948" sodipodi:end="6.2831853" sodipodi:rx="103.12500" sodipodi:ry="16.875000" sodipodi:start="3.1415927" sodipodi:type="arc" style="fill:url(#radialGradient15564);fill-opacity:1;fill-rule:evenodd;stroke:#000000;stroke-width:0.72024304;stroke-linecap:round;stroke-linejoin:round;stroke-miterlimit:4.0000000;stroke-opacity:1.0000000;" transform="matrix(0.753012,0.000000,0.000000,1.000000,-120.5679,-155.2820)"/>
  <path d="M 367.50000,278.62573 C 369.89479,280.79324 372.35481,283.24846 374.75000,286.09448 C 384.90452,298.16028 390.30843,311.25210 387.18750,315.90698 C 387.89535,315.71032 388.49480,315.38033 388.96875,314.87573 C 392.76033,310.83895 387.08416,298.16038 376.28125,286.59448 C 373.36223,283.46929 370.39173,280.86175 367.50000,278.62573 z " id="path20557" style="fill:#cb6100;fill-opacity:1.0000000;fill-rule:evenodd;stroke:none;stroke-width:1.0000000pt;stroke-linecap:butt;stroke-linejoin:miter;stroke-opacity:1.0000000;" transform="translate(-192.5785,-173.4070)"/>
  <path d="M 368.75000,254.31725 C 371.96846,254.04405 375.44181,253.91937 379.15677,254.10861 C 394.90651,254.91092 408.16671,259.88734 409.44260,265.34448 C 409.78153,264.69266 409.94902,264.02919 409.90321,263.33844 C 409.53674,257.81237 396.39309,253.31690 380.56675,253.32973 C 376.29037,253.33318 372.35746,253.72734 368.75000,254.31725 z " id="path22424" style="fill:#cb6100;fill-opacity:1.0000000;fill-rule:evenodd;stroke:none;stroke-width:1.0000000pt;stroke-linecap:butt;stroke-linejoin:miter;stroke-opacity:1.0000000;" transform="translate(-192.5785,-173.4070)"/>
  <path d="M 327.55934,233.65947 C 327.39863,230.43343 327.39524,226.95784 327.71402,223.25175 C 329.06550,207.53960 334.50167,194.46116 340.00000,193.37649 C 339.36041,193.01502 338.70319,192.82448 338.01126,192.84615 C 332.47577,193.01954 327.52433,205.99830 326.98482,221.81544 C 326.83903,226.08934 327.09569,230.03361 327.55934,233.65947 z " id="path22425" style="fill:#cb6100;fill-opacity:1.0000000;fill-rule:evenodd;stroke:none;stroke-width:1.0000000pt;stroke-linecap:butt;stroke-linejoin:miter;stroke-opacity:1.0000000;" transform="translate(-192.5785,-173.4070)"/>
  <path d="M 308.75000,273.11567 C 305.53154,273.38887 302.05819,273.51355 298.34323,273.32431 C 282.59349,272.52200 269.33329,267.54558 268.05740,262.08844 C 267.71847,262.74026 267.55098,263.40373 267.59679,264.09448 C 267.96326,269.62055 281.10691,274.11602 296.93325,274.10319 C 301.20963,274.09974 305.14254,273.70558 308.75000,273.11567 z " id="path22426" style="fill:#cb6100;fill-opacity:1.0000000;fill-rule:evenodd;stroke:none;stroke-width:1.0000000pt;stroke-linecap:butt;stroke-linejoin:miter;stroke-opacity:1.0000000;" transform="translate(-192.5785,-173.4070)"/>
  <path d="M 348.90468,293.81150 C 349.06539,297.03754 349.06878,300.51313 348.75000,304.21922 C 347.39852,319.93137 341.96235,333.00981 336.46402,334.09448 C 337.10361,334.45595 337.76083,334.64649 338.45276,334.62482 C 343.98825,334.45143 348.93969,321.47267 349.47920,305.65553 C 349.62499,301.38163 349.36833,297.43736 348.90468,293.81150 z " id="path22427" style="fill:#cb6100;fill-opacity:1.0000000;fill-rule:evenodd;stroke:none;stroke-width:1.0000000pt;stroke-linecap:butt;stroke-linejoin:miter;stroke-opacity:1.0000000;" transform="translate(-192.5785,-173.4070)"/>
  <path d="M 323.82673,291.23276 C 321.78754,293.73774 319.46442,296.32286 316.74767,298.86373 C 305.22983,309.63584 292.43875,315.71750 287.62694,312.84448 C 287.86040,313.54105 288.22130,314.12241 288.75000,314.56928 C 292.97970,318.14443 305.34383,311.81252 316.32849,300.41906 C 319.29663,297.34052 321.74511,294.23759 323.82673,291.23276 z " id="path22428" style="fill:#cb6100;fill-opacity:1.0000000;fill-rule:evenodd;stroke:none;stroke-width:1.0000000pt;stroke-linecap:butt;stroke-linejoin:miter;stroke-opacity:1.0000000;" transform="translate(-192.5785,-173.4070)"/>
  <path d="M 353.06805,235.51342 C 355.19344,233.08114 357.60534,230.57869 360.40911,228.13418 C 372.29588,217.77063 385.29137,212.13905 390.00000,215.17826 C 389.79106,214.47396 389.45063,213.88036 388.93787,213.41532 C 384.83548,209.69476 372.25793,215.59133 360.88234,226.59448 C 357.80856,229.56756 355.25326,232.58313 353.06805,235.51342 z " id="path22429" style="fill:#cb6100;fill-opacity:1.0000000;fill-rule:evenodd;stroke:none;stroke-width:1.0000000pt;stroke-linecap:butt;stroke-linejoin:miter;stroke-opacity:1.0000000;" transform="translate(-192.5785,-173.4070)"/>
  <path d="M 311.25000,248.67360 C 308.74504,246.63435 306.15989,244.31126 303.61908,241.59448 C 292.84701,230.07666 286.76532,217.28566 289.63834,212.47379 C 288.94175,212.70724 288.36036,213.06815 287.91349,213.59688 C 284.33840,217.82656 290.67031,230.19065 302.06370,241.17535 C 305.14231,244.14346 308.24522,246.59197 311.25000,248.67360 z " id="path22430" style="fill:#cb6100;fill-opacity:1.0000000;fill-rule:evenodd;stroke:none;stroke-width:1.0000000pt;stroke-linecap:butt;stroke-linejoin:miter;stroke-opacity:1.0000000;" transform="translate(-192.5785,-173.4070)"/>
</svg>
