<?xml version="1.0" encoding="UTF-8" standalone="no"?>
<!DOCTYPE svg PUBLIC "-//W3C//DTD SVG 20010904//EN"
"http://www.w3.org/TR/2001/REC-SVG-20010904/DTD/svg10.dtd">
<!-- Author ("riccio at inmail sk") --><!-- Created with Sodipodi ("http://www.sodipodi.com/") --><svg height="900pt" id="svg1" inkscape:version="0.40" sodipodi:docbase="/root/img/download/openclipart-0.10-reorg/flags" sodipodi:docname="citt_di_torino_01.svg" sodipodi:version="0.32" width="210mm" xmlns="http://www.w3.org/2000/svg" xmlns:cc="http://web.resource.org/cc/" xmlns:dc="http://purl.org/dc/elements/1.1/" xmlns:inkscape="http://www.inkscape.org/namespaces/inkscape" xmlns:rdf="http://www.w3.org/1999/02/22-rdf-syntax-ns#" xmlns:sodipodi="http://sodipodi.sourceforge.net/DTD/sodipodi-0.dtd" xmlns:xlink="http://www.w3.org/1999/xlink">
  <metadata>
    <rdf:RDF xmlns:cc="http://web.resource.org/cc/" xmlns:dc="http://purl.org/dc/elements/1.1/" xmlns:rdf="http://www.w3.org/1999/02/22-rdf-syntax-ns#">
      <cc:Work rdf:about="">
        <dc:title></dc:title>
        <dc:description></dc:description>
        <dc:subject>
          <rdf:Bag>
            <rdf:li></rdf:li>
            <rdf:li>italy</rdf:li>
            <rdf:li>europe</rdf:li>
            <rdf:li>flag</rdf:li>
            <rdf:li>sign</rdf:li>
          </rdf:Bag>
        </dc:subject>
        <dc:publisher>
          <cc:Agent rdf:about="http://www.openclipart.org">
            <dc:title></dc:title>
          </cc:Agent>
        </dc:publisher>
        <dc:creator>
          <cc:Agent>
            <dc:title></dc:title>
          </cc:Agent>
        </dc:creator>
        <dc:rights>
          <cc:Agent>
            <dc:title></dc:title>
          </cc:Agent>
        </dc:rights>
        <dc:date></dc:date>
        <dc:format>image/svg+xml</dc:format>
        <dc:type rdf:resource="http://purl.org/dc/dcmitype/StillImage"/>
        <cc:license rdf:resource=""/>
        <dc:language>en</dc:language>
      </cc:Work>
    </rdf:RDF>
  </metadata>
  <defs id="defs3">
    <linearGradient id="linearGradient927">
      <stop id="stop928" offset="0.0000000" style="stop-color:#000000;stop-opacity:1.0000000;"/>
      <stop id="stop929" offset="1.0000000" style="stop-color:#ffda00;stop-opacity:1.0000000;"/>
    </linearGradient>
    <linearGradient id="linearGradient930" x1="0.98769230" x2="-0.18769231" xlink:href="#linearGradient927" y1="0.51249999" y2="0.71249998"/>
    <radialGradient id="radialGradient976" xlink:href="#linearGradient927"/>
  </defs>
  <sodipodi:namedview bordercolor="#666666" borderopacity="1.0" id="base" inkscape:current-layer="svg1" inkscape:cx="29.207598" inkscape:cy="603.50698" inkscape:pageopacity="0.0" inkscape:pageshadow="2" inkscape:window-height="686" inkscape:window-width="948" inkscape:window-x="63" inkscape:window-y="25" inkscape:zoom="0.60447013" pagecolor="#ffffff" showguides="true" snaptoguides="true"/>
  <path d="M -811.15625,51.781250 C -808.03123,64.906249 -804.28125,98.656250 -825.53125,96.156250 C -846.15623,93.656249 -849.90625,64.906250 -849.90625,64.906250 C -849.90623,64.906249 -856.15625,88.656250 -848.65625,97.406250 C -841.15623,106.15624 -851.78125,108.03125 -853.03125,122.40625 C -853.65623,137.40625 -836.15625,144.90625 -836.15625,144.90625 L -837.40625,199.90625 L -841.15625,193.65625 L -843.65625,227.40625 L -869.90625,223.65625 L -888.65625,151.15625 C -888.65623,151.15625 -877.40625,139.90625 -877.40625,132.40625 C -877.40623,124.90625 -887.40625,106.15624 -896.78125,107.40625 C -885.53123,100.53124 -882.40625,87.406250 -882.40625,87.406250 C -882.40623,87.406249 -888.03125,66.781250 -904.90625,59.906250 C -894.28123,79.906249 -899.90625,93.031250 -913.65625,96.781250 C -927.40623,100.53124 -942.40625,81.156250 -939.90625,71.156250 C -959.90623,91.156249 -929.90625,109.90625 -929.90625,109.90625 C -933.65623,115.53125 -936.78125,133.03125 -931.78125,136.78125 C -926.78123,140.53125 -924.90625,143.03125 -914.28125,151.15625 C -907.40623,166.15625 -890.33074,224.78839 -890.33074,224.78839 L -918.03125,198.03125 L -921.15625,219.28125 L -953.65625,159.90625 C -953.65623,159.90625 -943.03125,151.15625 -953.65625,134.90625 C -959.90623,128.03125 -969.90625,124.90625 -969.90625,124.90625 C -969.90623,124.90625 -960.53125,107.40626 -963.03125,98.656250 C -965.53123,89.906249 -977.40625,74.906250 -977.40625,74.906250 C -977.40623,74.906249 -970.24691,102.33137 -987.40625,109.90625 C -1007.2197,117.64905 -1019.2812,86.781250 -1019.2812,86.781250 C -1019.2813,86.781249 -1022.6494,101.62304 -1017.6250,107.84375 C -1016.9072,108.73242 -1016.0000,109.43750 -1014.9062,109.90625 C -1006.1564,113.65625 -1018.6562,129.28125 -996.15625,133.65625 C -1000.7396,151.05208 -986.57292,159.07292 -976.78125,161.46875 L -941.15625,219.28125 L -961.15625,206.15625 L -953.65625,226.15625 L -1003.6562,172.40625 C -1003.6563,172.40625 -1001.1562,172.40625 -1006.1562,162.40625 C -1011.1563,152.40625 -1018.6562,142.40625 -1018.6562,142.40625 L -1013.0312,120.53125 C -1010.7389,116.40496 -1013.5285,111.27413 -1017.6250,107.84375 C -1019.1129,106.59779 -1020.7410,105.57235 -1022.4062,104.90625 C -1020.5313,108.65626 -1018.6562,125.21875 -1037.4062,134.28125 C -1047.6570,139.40663 -1066.7812,122.40625 -1071.1562,111.78125 C -1074.9062,123.03125 -1073.0312,129.90625 -1068.0312,131.15625 C -1065.6204,136.32233 -1060.7428,140.61302 -1055.5938,144.15625 C -1053.1693,144.90825 -1048.8776,146.55879 -1046.8750,149.43750 C -1045.7955,150.00908 -1044.6028,150.68297 -1043.6562,151.15625 C -1036.1562,154.90625 -1022.4062,178.65625 -1016.1562,179.90625 C -1009.9064,181.15625 -963.65625,233.65625 -963.65625,233.65625 L -983.65625,237.40625 L -1032.4062,187.40625 C -1032.4062,187.40625 -1038.6562,174.90625 -1043.6562,169.90625 C -1048.6562,164.90625 -1048.6562,161.78125 -1046.1562,154.28125 C -1045.5312,152.40625 -1045.9375,150.78516 -1046.8750,149.43750 C -1049.6354,147.97585 -1052.5780,146.23148 -1055.5938,144.15625 C -1056.5743,143.85211 -1057.4062,143.65625 -1057.4062,143.65625 C -1057.4062,143.65625 -1058.6562,149.90625 -1064.9062,153.65625 C -1079.2812,168.65625 -1098.0312,153.65625 -1101.1562,134.90625 C -1105.5312,154.28125 -1104.2812,161.15625 -1093.0312,167.40625 C -1081.7812,173.65625 -1073.6562,172.40625 -1064.9062,172.40625 C -1056.1562,172.40625 -1046.1562,191.15625 -1039.9062,192.40625 C -1033.6562,193.65625 -989.90625,239.90625 -989.90625,239.90625 C -989.90623,239.90625 -1008.6562,246.15625 -1003.6562,253.65625 C -998.65623,261.15625 -987.40625,276.15625 -987.40625,276.15625 L -991.15625,303.28125 C -991.15623,303.28125 -1004.9062,311.15625 -1004.9062,319.90625 C -1004.9063,328.65626 -976.78125,344.90625 -955.53125,346.15625 C -934.28123,347.40626 -886.15625,343.65625 -886.15625,343.65625 C -886.15623,343.65626 -950.53125,338.03125 -959.28125,331.78125 C -968.03123,325.53126 -902.40625,324.90625 -866.15625,322.40625 L -714.78125,324.93750 C -678.65793,328.86395 -613.10427,332.06838 -622.09375,337.96875 C -631.08320,343.86910 -695.62500,346.93750 -695.62500,346.93750 C -695.62503,346.93751 -647.68900,352.59920 -626.40625,352.18750 C -605.12351,351.77579 -576.37603,336.64946 -576.03125,327.90625 C -575.68646,319.16304 -589.12500,310.78125 -589.12500,310.78125 L -591.81250,283.50000 C -591.81247,283.49999 -579.97915,268.95341 -574.68750,261.65625 C -569.39584,254.35908 -587.87500,247.37500 -587.87500,247.37500 C -587.87500,247.37500 -542.32565,202.87776 -536.03125,201.87500 C -529.73683,200.87224 -519.02446,182.53022 -510.28125,182.87500 C -501.53805,183.21978 -493.45628,184.80186 -481.96875,179.00000 C -470.48121,173.19814 -468.95434,166.37610 -472.56250,146.84375 C -476.42390,165.45605 -495.75846,179.71103 -509.53125,164.15625 C -515.62862,160.16289 -516.62500,153.84375 -516.62500,153.84375 C -516.62500,153.84375 -517.46802,154.04427 -518.46875,154.31250 C -521.56016,156.26462 -524.56201,157.89943 -527.37500,159.25000 C -525.25945,156.46933 -520.91967,154.96942 -518.46875,154.31250 C -513.18266,150.97452 -508.14443,146.84959 -505.53125,141.78125 C -500.48589,140.72924 -498.32120,133.95152 -501.62500,122.56250 C -506.41525,133.00685 -526.20916,149.21282 -536.25000,143.68750 C -554.62835,133.89321 -552.08380,117.42321 -550.06250,113.75000 C -556.40616,116.00179 -562.96342,123.25623 -560.06250,129.00000 L -555.31250,151.09375 C -555.31250,151.09376 -563.20360,160.76728 -568.59375,170.56250 C -573.98387,180.35772 -571.46875,180.46875 -571.46875,180.46875 L -623.56250,232.21875 L -615.28125,212.50000 L -635.78125,224.84375 L -597.90625,168.46875 C -588.02776,166.46061 -573.54319,159.00042 -577.43750,141.43750 C -554.78256,137.95249 -566.67222,121.87106 -557.78125,118.46875 C -548.89025,115.06645 -552.50000,95.531250 -552.50000,95.531250 C -552.50000,95.531252 -565.75709,125.89250 -585.25000,117.37500 C -602.09752,109.12987 -592.84375,87.687500 -592.84375,87.687500 C -592.84376,87.687501 -608.61445,91.416934 -609.15625,105.15625 C -611.99907,113.80096 -603.31250,131.68750 -603.31250,131.68750 C -603.31248,131.68750 -613.45270,134.40786 -619.96875,141.03125 C -631.22580,156.84997 -620.93750,166.00000 -620.93750,166.00000 L -655.75000,224.06250 L -658.03125,202.68750 L -687.71288,226.76365 C -687.71287,226.76366 -667.39822,170.43621 -659.93750,155.71875 C -649.00058,148.01872 -647.01888,145.58132 -641.87500,142.03125 C -636.73113,138.48117 -639.19331,120.86215 -642.71875,115.09375 C -642.71875,115.09375 -614.30360,92.460040 -633.50000,71.687500 C -631.39598,81.778253 -644.84594,105.63263 -658.43750,101.34375 C -672.02906,97.054863 -679.34232,92.409550 -667.93750,72.843750 C -685.07027,79.048473 -689.28125,90.750000 -689.28125,90.750000 C -689.28125,90.749999 -686.68911,103.99954 -675.71875,111.31250 C -685.03719,109.69406 -695.76697,128.03707 -696.06250,135.53125 C -696.35801,143.02543 -685.53125,154.68750 -685.53125,154.68750 L -707.12500,226.40625 L -740.66513,224.08058 L -728.37500,141.37500 C -715.24999,135.75000 -706.84154,135.20048 -706.87500,120.18750 C -707.55758,105.77441 -718.12020,103.47894 -710.28125,95.031250 C -692.60668,75.087198 -714.93750,54.812500 -714.93750,54.812500 C -714.93752,54.812501 -712.63626,91.189640 -733.34375,92.875000 C -754.67577,94.535738 -754.38974,72.022920 -750.75000,59.031250 C -782.31164,82.180591 -754.23870,99.566290 -756.68750,98.218750 C -759.13630,96.871213 -770.39100,112.67532 -769.43750,120.21875 C -768.48403,127.76218 -751.90625,135.93750 -751.90625,135.93750 L -769.31250,224.78125 L -788.00000,224.93750 L -787.28125,209.15625 L -813.03125,224.28125 L -808.65625,139.90625 C -808.65623,139.90625 -791.78125,132.40625 -790.53125,124.90625 C -789.28123,117.40625 -799.90625,101.15625 -802.40625,102.40625 C -804.90623,103.65625 -780.53125,76.156250 -811.15625,51.781250 z M -527.40625,159.25000 C -528.39612,160.55967 -528.83188,162.13308 -528.28125,164.03125 C -526.07873,171.62394 -526.21312,174.73215 -531.40625,179.53125 C -536.59936,184.33036 -543.34375,196.59375 -543.34375,196.59375 L -594.03125,244.62500 L -613.84375,240.09375 C -613.84375,240.09375 -565.57565,189.44026 -559.28125,188.43750 C -552.98683,187.43476 -538.29819,164.26406 -530.65625,160.81250 C -529.69726,160.37936 -528.50050,159.77506 -527.40625,159.25000 z M -789.93750,260.40625 L -762.46875,276.25000 L -788.87500,288.93750 L -816.37500,275.18750 L -789.93750,260.40625 z M -738.18750,261.21875 C -737.00327,261.21919 -735.78248,261.32262 -734.56250,261.53125 C -724.80267,263.20027 -718.01505,271.15007 -719.40625,279.28125 C -720.79747,287.41244 -729.83393,292.63777 -739.59375,290.96875 C -749.35358,289.29973 -756.17245,281.34994 -754.78125,273.21875 C -753.56397,266.10396 -746.47708,261.21566 -738.18750,261.21875 z M -845.96875,262.37500 C -836.06721,262.37500 -828.03125,269.06322 -828.03125,277.31250 C -828.03127,285.56180 -836.06720,292.25000 -845.96875,292.25000 C -855.87032,292.25000 -863.90625,285.56178 -863.90625,277.31250 C -863.90626,269.06324 -855.87031,262.37500 -845.96875,262.37500 z M -948.25000,268.03125 C -938.34837,268.03126 -930.31250,274.71947 -930.31250,282.96875 C -930.31250,291.21803 -938.34837,297.90625 -948.25000,297.90625 C -958.15155,297.90626 -966.18750,291.21803 -966.18750,282.96875 C -966.18748,274.71947 -958.15155,268.03125 -948.25000,268.03125 z M -637.40625,271.65625 C -635.13432,271.53213 -632.75092,271.77424 -630.37500,272.46875 C -620.87136,275.24681 -615.02815,283.92598 -617.34375,291.84375 C -619.65936,299.76152 -629.24634,303.93430 -638.75000,301.15625 C -648.25362,298.37818 -654.09688,289.69903 -651.78125,281.78125 C -650.04454,275.84293 -644.22203,272.02860 -637.40625,271.65625 z M -697.65625,273.50000 L -672.43750,275.25000 C -667.57957,275.58651 -663.85729,277.99074 -664.09375,280.65625 L -664.78125,288.53125 C -665.01774,291.19676 -669.11081,293.08650 -673.96875,292.75000 L -699.21875,291.00000 C -704.07669,290.66349 -707.79899,288.22799 -707.56250,285.56250 L -706.87500,277.71875 C -706.63852,275.05325 -702.51421,273.16349 -697.65625,273.50000 z M -885.09375,273.59375 C -880.22488,273.51119 -876.30626,275.60528 -876.31250,278.28125 L -876.31250,286.18750 C -876.31877,288.86346 -880.25609,291.07369 -885.12500,291.15625 L -910.40625,291.59375 C -915.27512,291.67630 -919.19379,289.58220 -919.18750,286.90625 L -919.18750,279.00000 C -919.18125,276.32404 -915.24388,274.11380 -910.37500,274.03125 L -885.09375,273.59375 z " id="path955" sodipodi:nodetypes="ccccccccccccccccccccccccccccccccccccccccccccccccccccccccccccccccccccccccccccccccccccccccccccccccccccccccccccccccccccccccccccccccccccccccccccccccccccccccccccccccccccccccccccccccccccccccccccccccccccc" style="fill-rule:evenodd;stroke:#000000;stroke-width:6.2500000;fill:#000000;fill-opacity:1.0000000;" transform="translate(1174.252,-30.76642)"/>
  <g id="g966" transform="translate(1156.305,-28.20255)">
    <path d="M -784.98035,1148.0139 C -1129.6076,918.71558 -1133.6787,526.96217 -1074.4236,332.68416 C -980.37993,347.19305 -961.57734,352.37562 -923.36040,347.34700 C -779.57098,327.49277 -779.57098,327.49277 -634.21191,348.37729 C -596.02127,353.60190 -577.19238,348.51587 -483.07545,334.48966 C -424.81784,529.06912 -442.30860,920.76726 -784.98035,1148.0139 z " id="path903" sodipodi:nodetypes="cccccc" style="fill:#00007f;fill-rule:evenodd;stroke:#000000;stroke-width:6.2500000;stroke-dasharray:none;"/>
    <g id="g935">
      <path d="M -418.85517,444.04939 C -430.01181,446.92853 -448.00640,453.40657 -448.72618,459.88462 L -457.00369,456.28571 C -457.00369,456.28571 -465.64109,458.80496 -474.63838,461.68409 C -483.63567,459.52474 -491.19340,451.60711 -491.91318,443.68949 C -489.03405,433.61253 -473.55870,404.10142 -473.55870,396.90358 L -472.83892,387.90628 C -479.31697,377.46941 -469.24000,373.15072 -469.24000,364.51332 C -469.24000,355.87592 -468.52022,352.27700 -468.52022,345.43906 C -481.83622,330.32361 -481.47632,316.64772 -481.47632,316.64772 C -481.47632,316.64772 -467.08065,329.24393 -458.44325,342.55992 C -454.12455,342.55992 -470.67957,315.20815 -465.28120,311.24934 C -461.32239,313.76859 -449.80585,329.60382 -432.53105,332.48296 C -413.45679,334.64231 -359.11313,351.55722 -337.51963,380.34855 C -311.60743,419.93664 -259.42313,494.79412 -271.29956,528.26405 C -275.61826,561.37409 -279.93696,598.80283 -284.25566,614.63807 C -296.13209,645.58875 -301.17057,693.45435 -292.53317,732.32266 C -279.93696,776.22945 -244.30768,790.62511 -238.18952,752.83649 C -233.87082,709.64948 -238.18952,709.64948 -243.94779,662.14377 C -257.26378,607.44024 -230.99168,553.81636 -195.00251,557.77518 C -162.25237,560.65430 -142.45832,583.68738 -135.98027,593.40445 C -135.98027,603.48142 -114.38677,607.44023 -115.82633,614.63807 C -113.30709,624.71503 -118.70547,629.03374 -118.70547,629.03374 L -125.90330,617.51720 C -125.90330,617.51720 -133.10114,629.03374 -135.98027,623.27547 C -142.09843,612.11882 -149.29626,596.28359 -149.29626,596.28359 C -149.29626,596.28359 -158.11361,608.07004 -141.96347,620.21639 C -131.16107,628.63460 -144.07783,647.74810 -135.98027,659.26464 C -141.73854,659.26464 -160.09302,652.42669 -153.61497,638.39092 C -133.46102,623.99526 -152.53529,621.47601 -155.41442,630.11341 C -160.09301,647.74811 -166.93096,662.86355 -172.68922,664.30312 C -178.44749,665.74269 -167.65075,645.94864 -167.65075,640.19038 C -167.65075,634.43211 -188.16457,636.59146 -182.40630,626.51450 C -178.44749,613.91829 -171.96944,595.92370 -180.60684,590.16543 C -189.24424,584.40717 -197.88165,580.08846 -197.88165,580.08846 L -189.60413,574.69008 C -189.60413,574.69008 -219.11526,565.33290 -226.31309,595.56380 C -248.62637,635.51179 -216.23613,709.64948 -217.31579,725.12483 C -217.67569,744.91887 -217.67569,780.18826 -252.94508,798.18285 C -271.65945,794.22404 -276.69793,811.49884 -293.97274,835.97148 C -307.64862,851.44682 -310.01315,850.84688 -360.73266,879.33843 C -355.80367,922.16870 -350.47573,912.98831 -385.74512,940.34008 C -414.53646,969.13138 -408.05841,978.12868 -434.33051,976.32928 C -446.20693,977.76878 -455.56412,1019.1562 -455.56412,1019.1562 L -481.47632,1023.4750 C -481.47632,1023.4750 -466.72077,988.20568 -457.00369,980.28808 C -416.69582,955.45553 -389.34405,921.62570 -393.66275,905.79047 C -397.98145,889.95523 -404.45949,882.03762 -417.41559,864.76281 C -421.22614,837.26873 -421.47489,827.18761 -445.93218,819.26197 C -460.19839,813.44396 -442.51012,792.38697 -432.49088,778.97619 C -414.34521,754.23702 -432.01722,731.28147 -379.26707,741.31995 C -354.79444,741.31995 -366.67087,727.64406 -391.14350,724.76493 C -406.61884,723.32537 -416.33592,731.24299 -416.33592,731.24299 C -416.33592,731.24299 -459.88282,665.74269 -453.76466,634.43211 C -446.92672,618.59687 -426.41289,630.47331 -413.45679,621.83590 C -419.21506,611.39904 -465.28119,617.15730 -480.75654,580.44835 C -487.59448,563.53344 -513.50669,517.46730 -545.89694,499.47271 C -574.32839,481.11824 -590.52352,487.59629 -599.16092,491.91499 C -607.79832,496.23369 -604.55929,491.55510 -606.35875,502.35185 C -613.55658,496.59358 -622.55388,506.67055 -630.11161,514.22827 L -648.46608,508.11012 C -638.38911,496.59358 -622.19398,486.15672 -616.79561,483.63748 C -609.95767,476.07976 -586.92460,474.64019 -580.08665,475.00008 C -560.29261,478.95889 -540.49857,487.95618 -539.05900,489.39575 C -526.82267,477.51932 -477.51751,519.26676 -495.87199,510.98925 C -473.19881,534.38221 -446.20693,555.61583 -440.44867,545.53886 C -434.69040,535.46189 -444.04758,531.14319 -444.04758,515.30795 C -440.80856,492.99467 -430.37170,489.39575 -369.90989,464.56322 C -357.31368,455.20603 -363.43184,458.08516 -391.86328,466.00278 C -416.33592,474.64019 -433.28252,486.12504 -446.23862,502.32016 C -447.67819,492.96298 -430.37169,474.64019 -406.25895,465.64289 C -377.82751,454.84614 -391.86329,454.12636 -412.37711,460.60441 C -426.41289,464.20333 -429.65191,466.00279 -441.52834,477.87921 C -433.61072,449.80766 -398.70123,434.33231 -418.85517,444.04939 z M -662.14197,780.18826 C -662.14197,780.18826 -654.03478,787.95479 -644.86716,785.94653 C -635.07455,777.68826 -624.42888,773.36956 -624.42888,773.36956 C -624.42888,773.36956 -623.65280,765.04466 -621.30388,765.85922 C -616.76746,769.17379 -599.64374,773.58727 -593.32711,769.77064 C -590.44797,766.89151 -578.64709,763.82281 -565.69099,769.39151 C -552.73488,773.71021 -499.33764,797.77556 -487.30122,793.42871 C -481.82731,789.70686 -481.81697,774.12783 -477.97219,768.39771 C -463.99416,732.19582 -429.95255,745.04504 -430.04138,733.87625 C -425.04138,698.56375 -470.53882,683.43511 -485.79502,695.97360 C -490.73872,699.76208 -505.94896,724.04515 -505.94896,728.36385 C -510.01146,735.18255 -511.35624,762.15519 -521.24365,764.06867 C -530.81855,768.16966 -531.86116,772.99042 -553.45467,765.07281 C -574.73567,755.59269 -602.24886,749.42714 -611.03734,754.27605 C -616.07583,757.87497 -636.22976,767.95194 -640.54846,767.95194 C -645.17966,769.51444 -664.51903,775.65184 -662.14197,780.18826 z M -567.85034,618.95676 L -548.77607,604.92099 C -550.93542,598.80283 -552.01511,588.00607 -550.57554,577.56922 C -553.45467,574.69008 -545.53705,567.13236 -542.65792,562.81366 C -536.17986,550.93723 -551.29532,549.13777 -551.29532,549.13777 C -551.29532,549.13777 -548.41618,535.10199 -544.09748,531.50308 C -539.77878,527.90416 -533.30073,517.46730 -536.89965,515.30795 C -540.49857,513.14860 -549.49586,507.39033 -550.93543,510.26947 C -552.37499,513.14860 -563.89153,541.93994 -567.13055,548.41799 C -570.00969,550.57734 -572.52893,562.09387 -567.85033,567.85214 C -558.85305,566.77248 -573.24871,571.81095 -567.85034,618.95676 z M -534.02052,482.91770 C -530.06171,475.71986 -516.74571,481.11824 -497.31156,494.43423 C -477.87741,507.75022 -471.75925,508.82990 -471.75925,508.82990 C -471.75925,508.82990 -478.95708,519.26676 -499.11102,501.27217 C -511.70723,489.39575 -519.26495,483.99737 -534.02052,482.91770 z " id="path878" sodipodi:nodetypes="ccccccccccccccccccccccccccccccccccccccccccccccccsccccccccccccccccccccccccccccccccccccccccccccccccccccccccc" style="fill-rule:evenodd;stroke:#000000;stroke-width:17.500000;stroke-linecap:round;" transform="matrix(0.964952,-0.262427,0.262427,0.964952,-555.2527,-45.52088)"/>
      <path d="M -398.00785,409.77210 C -403.40623,402.93416 -399.08752,433.16506 -419.24146,442.88214 C -430.39810,445.76128 -448.39269,452.23932 -449.11247,458.71737 L -457.38998,455.11846 C -457.38998,455.11846 -466.02738,457.63771 -475.02467,460.51684 C -484.02196,458.35749 -491.57969,450.43986 -492.29947,442.52224 C -489.42034,432.44528 -473.94499,402.93417 -473.94499,395.73633 L -473.22521,386.73903 C -479.70326,376.30216 -469.62629,371.98347 -469.62629,363.34607 C -469.62629,354.70867 -468.90651,351.10975 -468.90651,344.27181 C -482.22251,329.15636 -481.86261,315.48047 -481.86261,315.48047 C -481.86261,315.48047 -467.46694,328.07668 -458.82954,341.39267 C -454.51084,341.39267 -471.06586,314.04090 -465.66749,310.08209 C -461.70868,312.60134 -450.19214,328.43657 -432.91734,331.31571 C -413.84308,333.47506 -359.49942,350.38997 -337.90592,379.18130 C -311.99372,418.76939 -259.80942,493.62687 -271.68585,527.09680 C -276.00455,560.20684 -280.32325,597.63558 -284.64195,613.47082 C -296.51838,644.42150 -301.55686,692.28710 -292.91946,731.15541 C -280.32325,775.06220 -244.69397,789.45786 -238.57581,751.66924 C -234.25711,708.48223 -238.57581,708.48223 -244.33408,660.97652 C -257.65007,606.27299 -231.37797,552.64911 -195.38880,556.60793 C -162.63866,559.48705 -142.84461,582.52013 -136.36656,592.23720 C -136.36656,602.31417 -114.77306,606.27298 -116.21262,613.47082 C -113.69338,623.54778 -119.09176,627.86649 -119.09176,627.86649 L -126.28959,616.34995 C -126.28959,616.34995 -133.48743,627.86649 -136.36656,622.10822 C -142.48472,610.95157 -149.68255,595.11634 -149.68255,595.11634 C -149.68255,595.11634 -158.49990,606.90279 -142.34976,619.04914 C -131.54736,627.46735 -144.46412,646.58085 -136.36656,658.09739 C -142.12483,658.09739 -160.47931,651.25944 -154.00126,637.22367 C -133.84731,622.82801 -152.92158,620.30876 -155.80071,628.94616 C -160.47930,646.58086 -167.31725,661.69630 -173.07551,663.13587 C -178.83378,664.57544 -168.03704,644.78139 -168.03704,639.02313 C -168.03704,633.26486 -188.55086,635.42421 -182.79259,625.34725 C -178.83378,612.75104 -172.35573,594.75645 -180.99313,588.99818 C -189.63053,583.23992 -198.26794,578.92121 -198.26794,578.92121 L -189.99042,573.52283 C -189.99042,573.52283 -219.50155,564.16565 -226.69938,594.39655 C -249.01266,634.34454 -216.62242,708.48223 -217.70208,723.95758 C -218.06198,743.75162 -218.06198,779.02101 -253.33137,797.01560 C -272.04574,793.05679 -277.08422,810.33159 -294.35903,834.80423 C -308.03491,850.27960 -310.39944,849.67960 -361.11895,878.17120 C -356.18996,921.00140 -350.86202,911.82110 -386.13141,939.17280 C -414.92275,967.96410 -408.44470,976.96140 -434.71680,975.16200 C -446.59322,976.60150 -455.95041,1017.9890 -455.95041,1017.9890 L -481.86261,1022.3078 C -481.86261,1022.3078 -467.10706,987.03840 -457.38998,979.12080 C -417.08211,954.28830 -389.73034,920.45840 -394.04904,904.62320 C -398.36774,888.78800 -404.84578,880.87040 -417.80188,863.59560 C -428.95852,842.00206 -427.87886,814.29040 -422.84037,786.21884 C -408.44470,750.22967 -412.40351,735.11422 -379.65336,740.15270 C -355.18073,740.15270 -367.05716,726.47681 -391.52979,723.59768 C -407.00513,722.15812 -416.72221,730.07574 -416.72221,730.07574 C -416.72221,730.07574 -460.26911,664.57544 -454.15095,633.26486 C -447.31301,617.42962 -426.79918,629.30606 -413.84308,620.66865 C -419.60135,610.23179 -465.66748,615.99005 -481.14283,579.28110 C -487.98077,562.36619 -513.89298,516.30005 -546.28323,498.30546 C -574.71468,479.95099 -590.90981,486.42904 -599.54721,490.74774 C -608.18461,495.06644 -604.94558,490.38785 -606.74504,501.18460 C -613.94287,495.42633 -622.94017,505.50330 -630.49790,513.06102 L -648.85237,506.94287 C -638.77540,495.42633 -622.58027,484.98947 -617.18190,482.47023 C -610.34396,474.91251 -587.31089,473.47294 -580.47294,473.83283 C -560.67890,477.79164 -540.88486,486.78893 -539.44529,488.22850 C -527.20896,476.35207 -477.90380,518.09951 -496.25828,509.82200 C -473.58510,533.21496 -446.59322,554.44858 -440.83496,544.37161 C -435.07669,534.29464 -444.43387,529.97594 -444.43387,514.14070 C -441.19485,491.82742 -430.75799,488.22850 -370.29618,463.39597 C -357.69997,454.03878 -339.70539,432.08539 -338.26582,427.40679 C -351.58181,437.48377 -363.81813,456.91791 -392.24957,464.83553 C -416.72221,473.47294 -433.66881,484.95779 -446.62491,501.15291 C -448.06448,491.79573 -430.75798,473.47294 -406.64524,464.47564 C -378.21380,453.67889 -360.57910,412.65123 -364.89780,421.64852 C -377.85391,435.32441 -392.24958,452.95911 -412.76340,459.43716 C -426.79918,463.03608 -430.03820,464.83554 -441.91463,476.71196 C -433.99701,448.64041 -402.32655,455.47835 -398.00785,409.77210 z M -662.52826,779.02101 C -662.52826,779.02101 -654.42107,786.78754 -645.25345,784.77928 C -635.46084,776.52101 -624.81517,772.20231 -624.81517,772.20231 C -624.81517,772.20231 -624.03909,763.87741 -621.69017,764.69197 C -617.15375,768.00654 -600.03003,772.42002 -593.71340,768.60339 C -590.83426,765.72426 -579.03338,762.65556 -566.07728,768.22426 C -553.12117,772.54296 -499.72393,796.60831 -487.68751,792.26146 C -482.21360,788.53961 -482.20326,772.96058 -478.35848,767.23046 C -464.38045,731.02857 -440.33884,746.37779 -440.42767,735.20900 C -435.42767,699.89650 -470.92511,682.26786 -486.18131,694.80635 C -491.12501,698.59483 -506.33525,722.87790 -506.33525,727.19660 C -510.39775,734.01530 -511.74253,760.98794 -521.62994,762.90142 C -531.20484,767.00241 -532.24745,771.82317 -553.84096,763.90556 C -575.12196,754.42544 -602.63515,748.25989 -611.42363,753.10880 C -616.46212,756.70772 -636.61605,766.78469 -640.93475,766.78469 C -645.56595,768.34719 -664.90532,774.48459 -662.52826,779.02101 z M -568.23663,617.78951 L -549.16236,603.75374 C -551.32171,597.63558 -552.40140,586.83882 -550.96183,576.40197 C -553.84096,573.52283 -545.92334,565.96511 -543.04421,561.64641 C -536.56615,549.76998 -551.68161,547.97052 -551.68161,547.97052 C -551.68161,547.97052 -548.80247,533.93474 -544.48377,530.33583 C -540.16507,526.73691 -533.68702,516.30005 -537.28594,514.14070 C -540.88486,511.98135 -549.88215,506.22308 -551.32172,509.10222 C -552.76128,511.98135 -564.27782,540.77269 -567.51684,547.25074 C -570.39598,549.41009 -572.91522,560.92662 -568.23662,566.68489 C -559.23934,565.60523 -573.63500,570.64370 -568.23663,617.78951 z M -534.40681,481.75045 C -530.44800,474.55261 -517.13200,479.95099 -497.69785,493.26698 C -478.26370,506.58297 -472.14554,507.66265 -472.14554,507.66265 C -472.14554,507.66265 -479.34337,518.09951 -499.49731,500.10492 C -512.09352,488.22850 -519.65124,482.83012 -534.40681,481.75045 z " id="path838" sodipodi:nodetypes="cccccccccccccccccccccccccccccccccccccccccccccccccccccccccccccccccccccccccccccccccccccccccccccccccccccccccccc" style="fill:#ffda00;fill-rule:evenodd;stroke:#000000;stroke-width:1.2500000;stroke-linecap:round;" transform="matrix(0.964952,-0.262427,0.262427,0.964952,-555.2527,-45.52088)"/>
      <path d="M -380.14169,374.50058 C -396.22624,378.50946 -395.02256,403.48834 -398.79707,403.47685 C -400.54033,403.85598 -397.39312,388.96860 -409.10458,390.07346 C -413.08205,389.63152 -412.19817,386.31695 -415.29176,384.54918 C -418.38535,382.78141 -426.34030,381.45559 -429.43390,376.15229 C -432.52749,370.84899 -431.42264,372.61676 -430.31778,370.18608 C -417.50147,371.06997 -417.05953,378.80394 -412.64011,378.36200 C -408.22069,377.92006 -396.28827,374.38453 -391.42691,373.50064 C -386.56555,372.61676 -381.70419,370.84899 -379.49448,369.08122 C -377.28477,365.98763 -371.98147,359.35851 -375.51700,358.47462 C -379.05254,357.59074 -393.19467,358.03268 -389.65914,359.35851 C -386.12361,360.68433 -378.16866,359.46899 -378.83157,362.01016 C -379.49448,364.55132 -397.34187,371.30375 -399.16088,370.84900 C -402.69642,370.18608 -413.96594,366.42957 -421.92089,366.42957 C -429.87584,366.42957 -429.87584,360.24239 -429.87584,360.24239 C -429.87584,360.24239 -418.38535,367.75540 -409.10458,362.45210 C -399.82380,357.14880 -375.95895,349.19385 -373.30730,354.93909 C -365.79429,359.57948 -377.96339,372.99169 -380.14169,374.50058 z M -448.06548,378.08121 C -456.86796,379.62801 -461.51408,387.97160 -461.51408,394.44035 C -461.51408,400.90910 -455.98408,406.15910 -449.17033,406.15910 C -442.35658,406.15910 -435.27978,399.36230 -435.27978,392.89355 C -435.05881,383.11024 -441.25173,378.08121 -448.06548,378.08121 z M -438.73965,392.59676 C -438.73965,397.34596 -445.03392,404.28410 -449.79533,404.28410 C -445.71789,393.12506 -454.22188,391.04830 -458.86227,394.36452 C -459.30422,384.86444 -440.28644,371.93764 -438.73965,392.59676 z M -449.32127,404.21559 C -449.32127,404.21559 -444.90186,399.79617 -445.78574,394.49287 C -446.66962,389.18957 -450.64710,386.75889 -455.06652,387.64278 C -454.95603,386.64841 -455.28749,385.21210 -454.18263,385.21210 C -452.41487,384.99113 -446.66963,384.77015 -444.68089,387.20083 C -442.69215,389.63151 -442.25021,393.82996 -442.91312,397.58647 C -443.57603,401.34297 -449.32127,404.21559 -449.32127,404.21559 z M -480.47817,444.87423 C -480.47817,444.87423 -484.45564,438.90802 -480.03622,437.36122 C -475.61681,435.81443 -472.52322,433.16278 -473.62807,430.73210 C -474.73292,428.30142 -474.29098,426.31268 -473.18613,425.64977 C -472.08127,424.98685 -467.66186,427.85948 -469.20865,433.16278 C -470.75545,438.46608 -471.41836,443.54841 -473.62807,444.65326 C -475.83778,445.75812 -480.47817,444.87423 -480.47817,444.87423 z M -490.20088,450.84045 C -490.20088,450.84045 -477.60555,454.59695 -466.55700,454.37598 C -455.50846,454.15501 -474.73292,457.46957 -476.05875,457.46957 C -477.38457,457.46957 -484.01370,457.02763 -484.01370,457.02763 C -484.01370,457.02763 -488.87506,454.59695 -490.20088,450.84045 z M -476.67855,386.34298 C -475.79466,383.24939 -464.74612,385.01715 -457.67506,377.06220 C -450.60399,369.10725 -442.64904,369.10725 -442.64904,369.10725 C -445.30069,370.43308 -460.32670,380.15579 -461.65253,385.90103 C -462.53641,388.55268 -474.91078,387.66880 -476.67855,386.34298 z " id="path877" sodipodi:nodetypes="ccccccccccccccccccccccccccccccccccccccccccccccccccc" style="fill-rule:evenodd;stroke-width:1.0000000pt;" transform="matrix(0.964952,-0.262427,0.262427,0.964952,-555.2527,-45.52088)"/>
      <path d="M -372.86612,619.71053 C -372.86612,619.71053 -322.15990,594.21878 -288.75000,561.11218 C -305.00000,608.61218 -372.86612,619.71053 -372.86612,619.71053 z M -385.00000,656.47830 L -307.50000,606.11218 C -307.50000,606.11218 -322.19670,648.09441 -385.00000,656.47830 z M -385.00000,682.36218 C -353.11738,675.29111 -322.86612,676.11218 -307.86612,631.69276 C -317.86612,649.19276 -385.00000,682.36218 -385.00000,682.36218 z M -392.63380,504.41725 C -388.21438,499.11394 -391.74991,492.04287 -352.85904,473.48132 C -321.03923,455.80365 -318.38759,454.03589 -318.38759,454.03589 C -318.38759,454.03589 -331.64584,473.48133 -346.67185,479.66851 C -361.69787,485.85570 -392.63380,504.41725 -392.63380,504.41725 z M -175.19846,617.55433 C -158.40467,596.34113 -173.43069,577.77957 -173.43069,577.77957 C -173.43069,577.77957 -158.40468,590.15395 -158.40468,595.45725 C -158.40468,600.76055 -163.26604,616.22851 -175.19846,617.55433 z " id="path893" sodipodi:nodetypes="cccccccccccccccccc" style="fill-rule:evenodd;stroke-width:1.0000000pt;" transform="matrix(0.964952,-0.262427,0.262427,0.964952,-555.2527,-45.52088)"/>
    </g>
  </g>
  <path d="M 167.42705,221.07586 C 285.86891,196.21768 445.98475,187.44422 595.86488,230.58045 L 581.24243,248.85851 C 424.78220,214.49574 320.23168,216.68910 179.85615,242.27839 L 167.42705,221.07586 z M 170.35156,279.34049 C 323.88730,258.86905 424.05108,260.33131 594.40264,287.38284 L 579.78019,305.66090 C 421.85771,274.22262 316.02235,272.45753 175.64682,299.50907 C 167.67795,295.88810 163.84494,288.13128 170.35156,279.34049 z " id="path980" style="fill:url(#linearGradient930);fill-opacity:1;fill-rule:evenodd;stroke-width:1.0000000pt;"/>
</svg>
