<?xml version="1.0" encoding="UTF-8" standalone="no"?>
<!DOCTYPE svg PUBLIC "-//W3C//DTD SVG 20010904//EN"
"http://www.w3.org/TR/2001/REC-SVG-20010904/DTD/svg10.dtd">
<!-- Created with Sodipodi ("http://www.sodipodi.com/") --><svg height="437.5" id="svg1" sodipodi:docbase="/usr/share/icons/Lemon/scalable/apps/" sodipodi:docname="/usr/share/icons/Lemon/scalable/apps/mozilla_firebird.svg" sodipodi:version="0.34" version="1.0" width="437.5" x="0" xmlns="http://www.w3.org/2000/svg" xmlns:sodipodi="http://sodipodi.sourceforge.net/DTD/sodipodi-0.dtd" xmlns:xlink="http://www.w3.org/1999/xlink" y="0">
  <metadata>
    <rdf:RDF xmlns:cc="http://web.resource.org/cc/" xmlns:dc="http://purl.org/dc/elements/1.1/" xmlns:rdf="http://www.w3.org/1999/02/22-rdf-syntax-ns#">
      <cc:Work rdf:about="">
        <dc:title>Lemon SVG theme</dc:title>
        <dc:description></dc:description>
        <dc:subject>
          <rdf:Bag>
            <rdf:li>icon</rdf:li>
            <rdf:li></rdf:li>
            <rdf:li>application</rdf:li>
            <rdf:li>lemon_theme_icon</rdf:li>
            <rdf:li>icons</rdf:li>
            <rdf:li>hash</rdf:li>
            <rdf:li>computer</rdf:li>
            <rdf:li>theme</rdf:li>
          </rdf:Bag>
        </dc:subject>
        <dc:publisher>
          <cc:Agent rdf:about="http://www.openclipart.org">
            <dc:title>Jose Hevia</dc:title>
          </cc:Agent>
        </dc:publisher>
        <dc:creator>
          <cc:Agent>
            <dc:title>Jose Hevia</dc:title>
          </cc:Agent>
        </dc:creator>
        <dc:rights>
          <cc:Agent>
            <dc:title>Jose Hevia</dc:title>
          </cc:Agent>
        </dc:rights>
        <dc:date></dc:date>
        <dc:format>image/svg+xml</dc:format>
        <dc:type rdf:resource="http://purl.org/dc/dcmitype/StillImage"/>
        <cc:license rdf:resource="http://web.resource.org/cc/PublicDomain"/>
        <dc:language>en</dc:language>
      </cc:Work>
      <cc:License rdf:about="http://web.resource.org/cc/PublicDomain">
        <cc:permits rdf:resource="http://web.resource.org/cc/Reproduction"/>
        <cc:permits rdf:resource="http://web.resource.org/cc/Distribution"/>
        <cc:permits rdf:resource="http://web.resource.org/cc/DerivativeWorks"/>
      </cc:License>
    </rdf:RDF>
  </metadata>
  <sodipodi:namedview id="base"/>
  <defs id="defs3">
    <linearGradient id="linearGradient573">
      <stop id="stop574" offset="0" style="stop-color:#ffff00;stop-opacity:1;"/>
      <stop id="stop575" offset="1" style="stop-color:#85b200;stop-opacity:1;"/>
    </linearGradient>
    <linearGradient id="linearGradient51">
      <stop id="stop52" offset="0" style="stop-color:#000000;stop-opacity:0.5608;"/>
      <stop id="stop53" offset="1" style="stop-color:#000000;stop-opacity:0.1451;"/>
    </linearGradient>
    <linearGradient id="linearGradient54" x1="0.84246582" x2="-2.05479842e-2" xlink:href="#linearGradient573" y1="0.59374988" y2="0.3125"/>
    <linearGradient id="linearGradient55" x1="0.37854901" x2="0.70977902" xlink:href="#linearGradient51" y1="-3.12471297e-2" y2="0.76562601"/>
    <radialGradient id="radialGradient717" xlink:href="#linearGradient51"/>
    <radialGradient cx="0.5" cy="0.5" fx="0.5" fy="0.5" id="radialGradient718" r="0.5" xlink:href="#linearGradient51"/>
  </defs>
  <path d="M 131.5692 336.4452 C 121.7629 338.1754 30.84536 321.3519 11.0805 322.1569 C 24.73834 335.2005 56.67267 350.6067 51.64714 353.2655 C 48.87473 354.4288 25.43461 355.3218 14.60896 355.2129 C 26.80007 364.4925 56.04598 366.6022 63.0115 366.3511 C 67.80555 367.2828 34.5216 373.6607 18.18491 374.5909 C 56.4111 392.3613 152.5894 355.9937 159.529 352.3222 C 170.5398 344.873 139.9532 337.1702 131.5692 336.4452 z " id="path579" style="font-size:12;fill:#ff0000;fill-opacity:1;fill-rule:evenodd;stroke:#006f00;stroke-width:6.02779;"/>
  <path d="M 284.705 280.7976 C 299.5926 263.2523 320.8259 211.9137 324.1436 197.7088 C 316.2254 205.5672 304.6982 219.2553 292.5195 226.1582 C 293.9362 214.307 314.9708 181.504 314.6598 171.5964 C 308.6205 176.3707 297.8272 184.7377 292.9887 190.6664 C 287.648 163.7838 233.8581 101.9141 211.922 89.14337 C 213.1596 96.96236 229.5635 187.2587 229.6261 215.5513 C 224.6759 236.0954 212.8429 250.6289 206.1443 254.2836 C 82.98775 187.7013 62.78817 123.5723 38.54343 95.31654 C 34.20084 148.2412 71.14049 202.4966 75.0657 207.7424 C 66.12245 205.3424 14.46111 155.3185 7.400396 150.5517 C 7.369706 168.847 56.44979 288.1357 114.8764 305.918 C 83.58965 304.3614 26.20794 259.3813 14.37453 253.369 C 41.88439 317.9252 136.9495 372.6875 204.4717 334.7475 C 211.4456 330.829 253.883 309.6766 284.705 280.7976 z " id="path577" style="font-size:12;fill:#ff0000;fill-opacity:1;fill-rule:evenodd;stroke:#007200;stroke-width:6.027792;"/>
  <path d="M 212.7977 326.6526 C 201.704 332.3511 183.7902 336.9277 163.7461 341.2586 C 150.6625 344.0855 124.0773 340.1345 108.1967 329.6479 C 97.78719 323.1404 86.59648 313.3263 71.67561 301.3896 C 91.57013 312.3316 128.5084 326.5844 139.7693 322.5017 C 151.0302 318.4192 168.8552 318.0733 159.9723 308.1134 C 151.0892 298.1536 125.3517 299.3491 115.8496 294.7102 C 106.3475 290.0712 65.90508 236.3717 58.86161 216.8173 C 69.7231 224.1205 121.0967 286.7938 131.8371 280.7912 C 142.5777 274.7883 174.1724 286.2353 185.8549 291.3139 C 197.5373 296.3926 189.2003 278.0119 153.1745 274.3776 C 117.1489 270.7434 96.8589 198.4342 81.40641 188.6884 C 104.2506 189.8846 115.1226 232.1064 139.7079 242.9636 C 164.2933 253.8209 228.6206 274.7573 229.9217 279.5577 C 230.228 264.4638 241.6071 236.9911 235.5983 222.9651 C 238.0445 213.4155 242.972 152.1475 229.0458 129.2689 C 260.877 136.2319 257.6404 170.1708 260.6586 180.4495 C 249.2533 204.6544 261.3851 254.4259 261.3851 253.4312 C 265.8614 240.4997 277.436 203.6547 277.7658 190.676 C 287.048 202.5655 285.4359 232.2702 279.137 243.2529 C 272.8381 254.2355 279.8166 254.427 283.3968 252.4261 C 286.9769 250.4253 294.7857 248.0312 299.453 238.2571 C 295.1678 249.3723 275.8665 274.624 268.0077 287.9709 C 261.5923 298.8664 220.6971 322.5949 212.7977 326.6526 z " id="path586" style="font-size:12;fill:#ffff00;fill-opacity:1;fill-rule:evenodd;"/>
  <path d="M 187.3546 241.5064 C 180.6365 181.3752 220.5724 165.545 243.8525 135.0549 C 247.8043 122.1595 262.9167 117.1686 279.4448 111.3695 C 293.6188 107.9931 320.2597 113.1584 332.383 121.6567 C 346.2463 131.3748 336.1223 153.645 330.7283 156.7192 C 317.8273 164.072 294.9884 171.543 282.936 171.9424 C 276.6869 191.9366 208.6731 194.6891 220.9715 264.2641 C 215.2455 263.158 197.7034 246.2751 187.3546 241.5064 z " id="path576" style="font-size:12;fill:#ff0000;fill-opacity:1;fill-rule:evenodd;stroke:#006800;stroke-width:6.027792;"/>
  <path d="M 388.8648 145.4277 C 375.9131 140.5055 375.8945 128.5987 358.9308 127.5202 C 341.9673 126.4417 333.073 117.71 330.0098 126.4398 C 326.9465 135.1693 322.6773 150.4651 331.986 155.4317 C 341.2944 160.3982 354.3934 153.8228 369.7311 149.2042 L 388.8648 145.4277 z " id="path580" style="font-size:12;fill:#ffb200;fill-opacity:1;fill-rule:evenodd;stroke:#003000;stroke-width:6.249999;"/>
  <path d="M 424.6222 132.3676 C 386.1147 108.2325 363.894 106.6704 348.9291 114.7315 C 333.9643 122.7924 321.7969 120.0897 323.8169 129.118 C 325.8369 138.1462 325.5875 150.614 329.2937 154.9733 C 339.8203 154.262 355.9597 146.5863 369.0142 135.4167 L 424.6222 132.3676 z " id="path578" style="font-size:12;fill:#ffb200;fill-opacity:1;fill-rule:evenodd;stroke:#007400;stroke-width:6.249999;"/>
  <path d="M 285.6113 133.6566 C 281.6583 137.9011 279.5521 143.1662 276.7493 142.4209 C 273.9466 141.6756 270.1232 142.7771 274.4326 145.1588 C 278.7418 147.5404 292.6097 147.1682 296.4979 144.4953 L 300.7263 141.2067 C 303.9989 138.1934 307.2716 135.1802 300.6295 128.2946 C 296.4499 122.7702 287.6527 129.963 285.6113 133.6566 z " id="path581" style="font-size:12;fill-opacity:1;fill-rule:evenodd;stroke:#000000;"/>
  <path d="M 298.0697 129.291 C 300.6197 130.7003 301.392 134.1855 299.7949 137.0754 C 298.1977 139.9653 294.8358 141.1657 292.2858 139.7564 C 289.7358 138.3471 288.9635 134.8619 290.5607 131.972 C 292.1579 129.0821 295.5198 127.8817 298.0697 129.291 z " id="path584" style="font-size:12;fill:#ffffff;fill-opacity:1;fill-rule:evenodd;"/>
</svg>
