<?xml version="1.0" encoding="UTF-8" standalone="no"?>
<!DOCTYPE svg PUBLIC "-//W3C//DTD SVG 20010904//EN"
"http://www.w3.org/TR/2001/REC-SVG-20010904/DTD/svg10.dtd">
<!-- Created with Sodipodi ("http://www.sodipodi.com/") --><svg height="437.5" id="svg1" sodipodi:docbase="/usr/share/icons/Lemon/scalable/apps/" sodipodi:docname="/usr/share/icons/Lemon/scalable/apps/sodipodi.svg" sodipodi:version="0.34" version="1.0" width="437.5" x="0" xmlns="http://www.w3.org/2000/svg" xmlns:sodipodi="http://sodipodi.sourceforge.net/DTD/sodipodi-0.dtd" xmlns:xlink="http://www.w3.org/1999/xlink" y="0">
  <metadata>
    <rdf:RDF xmlns:cc="http://web.resource.org/cc/" xmlns:dc="http://purl.org/dc/elements/1.1/" xmlns:rdf="http://www.w3.org/1999/02/22-rdf-syntax-ns#">
      <cc:Work rdf:about="">
        <dc:title>Lemon SVG theme</dc:title>
        <dc:description></dc:description>
        <dc:subject>
          <rdf:Bag>
            <rdf:li>icon</rdf:li>
            <rdf:li></rdf:li>
            <rdf:li>application</rdf:li>
            <rdf:li>lemon_theme_icon</rdf:li>
            <rdf:li>icons</rdf:li>
            <rdf:li>hash</rdf:li>
            <rdf:li>computer</rdf:li>
            <rdf:li>theme</rdf:li>
          </rdf:Bag>
        </dc:subject>
        <dc:publisher>
          <cc:Agent rdf:about="http://www.openclipart.org">
            <dc:title>Jose Hevia</dc:title>
          </cc:Agent>
        </dc:publisher>
        <dc:creator>
          <cc:Agent>
            <dc:title>Jose Hevia</dc:title>
          </cc:Agent>
        </dc:creator>
        <dc:rights>
          <cc:Agent>
            <dc:title>Jose Hevia</dc:title>
          </cc:Agent>
        </dc:rights>
        <dc:date></dc:date>
        <dc:format>image/svg+xml</dc:format>
        <dc:type rdf:resource="http://purl.org/dc/dcmitype/StillImage"/>
        <cc:license rdf:resource="http://web.resource.org/cc/PublicDomain"/>
        <dc:language>en</dc:language>
      </cc:Work>
      <cc:License rdf:about="http://web.resource.org/cc/PublicDomain">
        <cc:permits rdf:resource="http://web.resource.org/cc/Reproduction"/>
        <cc:permits rdf:resource="http://web.resource.org/cc/Distribution"/>
        <cc:permits rdf:resource="http://web.resource.org/cc/DerivativeWorks"/>
      </cc:License>
    </rdf:RDF>
  </metadata>
  <sodipodi:namedview id="base"/>
  <defs id="defs3">
    <linearGradient id="linearGradient53">
      <stop id="stop54" offset="0" style="stop-color:#002a00;stop-opacity:0.8353;"/>
      <stop id="stop55" offset="1" style="stop-color:#002200;stop-opacity:0.2078;"/>
    </linearGradient>
    <linearGradient id="linearGradient48">
      <stop id="stop49" offset="0" style="stop-color:#e85d00;stop-opacity:1;"/>
      <stop id="stop50" offset="1" style="stop-color:#fff200;stop-opacity:1;"/>
    </linearGradient>
    <linearGradient id="linearGradient51" x1="9.79021192e-2" x2="0.46153799" xlink:href="#linearGradient48" y1="3.90625e-2" y2="0.36718801"/>
    <linearGradient id="linearGradient52" x1="0" x2="1" xlink:href="#linearGradient53" y1="0" y2="1"/>
    <radialGradient cx="0.49795899" cy="0.265625" fx="0.49795899" fy="0.265625" id="radialGradient750" r="0.57545298" xlink:href="#linearGradient53"/>
    <radialGradient cx="0.45543599" cy="0.43754399" fx="0.45543599" fy="0.43754399" id="radialGradient752" r="0.32943299" xlink:href="#linearGradient53"/>
    <radialGradient cx="0.27374399" cy="0.29687601" fx="0.27374399" fy="0.29687601" id="radialGradient602" r="0.489099" xlink:href="#linearGradient53"/>
  </defs>
  <path d="M 232.0597 291.1331 C 228.5989 304.921 100.0944 368.3915 89.90091 384.4457 C 82.94441 405.5215 169.3146 429.6856 187.0399 420.499 C 202.0255 341.1745 270.5701 345.7316 287.5879 319.553 C 295.3606 298.3938 239.9467 269.2307 232.0597 291.1331 z " id="path751" style="font-size:12;fill:url(#radialGradient752);fill-opacity:1;fill-rule:evenodd;stroke-width:1;"/>
  <path d="M 45.52741 399.9532 C 44.59661 416.6183 74.00831 430.8824 123.0586 433.7448 C 196.3197 388.7192 184.0543 343.7335 190.7517 338.4327 C 217.8745 331.4024 184.0098 343.2334 156.7114 332.4052 C 125.6547 349.1237 62.57621 366.3423 45.52741 399.9532 z " id="path603" style="font-size:12;fill:url(#radialGradient750);fill-opacity:1;fill-rule:evenodd;stroke-width:1.053121;"/>
  <path d="M 308.6367 235.5011 C 299.7987 240.2676 229.273 365.3146 248.2583 375.0782 C 268.5151 382.1533 292.5076 368.3621 304.1927 368.1708 C 316.4096 370.1801 341.0928 428.2035 351.1867 429.3337 C 343.2431 383.0819 380.7111 429.8007 369.9395 393.6784 C 369.5653 384.5112 358.1713 378.4221 378.863 380.3363 C 384.8537 364.916 379.1451 374.205 381.735 366.9022 C 384.7294 364.5145 372.8939 359.821 387.6326 353.5142 C 388.6388 346.7735 382.9245 343.6364 375.6491 331.685 C 384.2498 333.898 385.9449 349.7051 392.402 337.6584 C 400.464 318.5632 369.8721 311.9339 362.7422 301.2651 C 374.9521 304.691 378.4403 314.3419 385.41 311.4127 C 391.5573 291.8277 354.6683 279.1311 348.6388 270.4184 C 390.229 293.4749 367.6172 272.2701 341.3735 252.3371 C 342.071 243.8049 349.018 260.1653 355.9382 251.3338 C 346.3235 240.6766 335.5441 242.0022 321.304 236.9195 C 311.0325 233.7111 320.6534 230.5965 308.6367 235.5011 z " id="path601" style="font-size:12;fill:url(#radialGradient602);fill-opacity:1;fill-rule:evenodd;stroke-width:1;"/>
  <path d="M 162.28 142.8118 C 160.32 140.8388 152.493 141.9908 149.765 144.7618 C 146.414 148.1688 147.012 156.6798 144.046 161.3498 C 140.655 166.6928 114.403 197.4908 104.772 206.4868 C 99.33301 211.5648 58.96001 220.6898 47.56901 225.9578 C 20.87641 234.8558 21.87621 246.3528 17.65581 260.8698 C 19.56021 294.6178 48.35701 307.1458 57.21901 308.7768 C 84.88601 322.0538 117.808 297.0898 134.223 299.8428 C 126.703 315.0238 174.208 328.9608 184.021 336.2588 C 186.216 337.8918 178.496 344.2308 174.493 343.6888 C 159.9 341.7138 147.511 329.2178 133.517 325.0138 C 126.788 322.9928 89.10201 328.7778 80.53201 334.7578 C 76.56601 337.5238 74.15501 343.2758 77.70501 345.3128 C 82.57201 348.1038 101.645 340.5228 102.697 343.4898 C 103.683 346.2718 87.98001 351.5328 84.77101 356.6798 C 83.43801 358.8218 85.99401 365.3838 88.30301 365.6118 C 94.23501 366.1958 109.915 355.9218 110.852 358.4008 C 111.767 360.8208 95.54501 368.6408 93.24901 373.7308 C 92.24901 375.9478 97.04001 381.4078 99.60701 381.0398 C 106.461 380.0558 117.93 367.5498 121.508 369.6718 C 123.674 370.9568 111.371 381.3318 110.911 385.9098 C 111.837 396.5788 134.406 381.2578 149.06 371.2958 C 166.722 367.0968 199.563 369.6648 212.643 352.6198 C 218.808 341.0648 203.313 326.8038 204.87 325.0138 C 228.429 325.7218 254.908 315.4228 257.15 289.2878 C 259.383 280.7778 261.64 248.9868 264.921 243.8198 C 267.998 238.9718 272.358 234.5298 276.93 231.6408 C 264.184 259.0718 271.162 278.1898 272.692 291.7238 C 275.167 309.4988 322.559 309.3158 329.897 303.2118 C 331.827 300.2538 328.55 290.2808 330.624 289.8098 C 335.587 286.5498 341.988 300.9968 347.311 298.6828 C 352.111 298.4418 348.59 285.2138 353.23 282.7928 C 358.749 280.2298 365.085 295.5188 369.965 293.1188 C 372.609 290.7428 367.098 275.8948 371.582 275.1488 C 375.824 274.2928 380.699 286.8088 384.777 287.1208 C 398.071 276.9158 392.88 257.4498 385.472 255.1968 C 349.444 246.6738 397.133 186.8068 396.611 178.5868 C 404.665 162.0498 412.629 120.8218 407.044 115.4068 C 398.846 106.5178 389.737 164.6448 388.943 162.6148 C 387.654 159.3238 390.978 80.25579 379.138 80.87879 C 369.911 81.45579 379.936 117.4218 375.102 127.8808 C 374.312 129.5898 355.778 56.84679 347.627 59.53979 C 341.254 59.03779 351.925 93.60679 351.104 99.24679 C 350.382 102.6918 324.153 27.80479 312.146 37.45679 C 307.379 39.28879 326.003 86.52779 322.983 82.62979 C 309.999 67.91379 288.517 30.15179 275.439 35.94379 C 261.508 38.98679 280.591 73.87479 276.907 71.75579 C 262.134 57.55179 227.926 39.26179 223.39 45.68679 C 213.072 47.06579 248.896 81.25979 246.124 79.40779 C 239.077 72.12379 185.38 45.47979 178.556 53.06579 C 167.221 62.47379 194.115 70.38779 207.388 85.49679 C 208.886 90.19079 151.39 61.75079 144.221 71.39179 C 135.91 81.39379 172.079 88.43279 166.133 95.93479 C 156.811 105.6878 87.98901 84.56279 85.85601 98.09879 C 81.62201 108.2688 134.949 108.3508 132.358 112.9938 C 133.284 118.8098 75.08501 126.5728 75.73301 139.9198 C 69.46501 155.3678 149.58 125.3998 172.413 119.3018 C 273.834 85.05379 324.198 93.94779 365.753 148.1308 C 372.039 157.8048 382.94 183.9108 374.818 190.5388 C 367.366 191.8578 341.02 83.25579 228.39 123.7358 C 192.764 136.3038 177.737 153.9758 163.15 190.3028 C 147.907 205.3198 164.088 144.6298 162.28 142.8118 z " id="path44" style="font-size:12;fill:url(#linearGradient51);fill-opacity:1;fill-rule:evenodd;stroke:#e67d00;stroke-width:10;stroke-opacity:1;"/>
  <path d="M 295.8452 181.095 C 307.8962 198.278 287.8102 192.359 274.4312 204.434 C 269.1502 209.2 255.9612 209.436 247.2512 230.65 C 239.3952 249.777 244.5452 266.648 229.2772 292.507 C 225.7282 298.517 195.3572 300.093 187.4032 292.192 C 185.5732 286.775 210.2952 281.447 222.4672 259.678 C 236.8272 241.06 222.2852 190.948 265.0452 184.035 C 273.9032 180.519 287.0372 176.376 295.8452 181.095 z " id="path37" style="font-size:12;fill:#c5a400;fill-opacity:1;fill-rule:evenodd;stroke-width:4;"/>
  <path d="M 345.8074 240.2039 C 335.8544 257.9009 326.6004 255.6089 320.2374 258.8959 C 313.8714 262.1819 302.1194 274.7719 298.7964 270.4109 C 297.5514 268.4199 297.7014 266.3319 303.8144 262.6239 C 310.6184 258.4939 320.0824 248.9899 328.5424 241.9909 C 337.0024 234.9919 334.8684 221.4669 341.2324 218.1799 C 347.5954 214.8939 349.7604 233.1779 345.8074 240.2039 z " id="path38" style="font-size:12;fill:#d79e31;fill-opacity:1;fill-rule:evenodd;stroke-width:4;"/>
  <path d="M 352.438 187.5425 C 350.037 190.7975 337.433 174.1405 325.771 167.2065 C 288.005 140.7225 234.52 149.8175 198.437 205.3815 C 183.987 223.3345 184.251 229.4445 174.993 223.4475 C 170.281 220.3975 180.896 203.9905 191.635 189.1845 C 230.664 138.5585 278.015 119.6025 326.189 153.3765 C 338.697 161.1655 356.136 184.9785 352.438 187.5425 z " id="path39" style="font-size:12;fill:#d3a700;fill-opacity:1;fill-rule:evenodd;stroke-width:4;"/>
  <path d="M 80.83185 291.2158 C 82.19685 292.9788 79.91485 303.5508 66.55585 294.0198 C 53.19185 295.1838 38.93385 296.3498 40.55885 292.5438 C 41.60485 290.0848 78.62485 272.3068 80.83185 291.2158 z " id="path40" style="font-size:12;fill:#ffdc00;fill-opacity:1;fill-rule:evenodd;stroke:#b45a00;stroke-width:6.6;"/>
  <path d="M 43.59302 262.6328 C 38.15002 261.0358 30.74972 260.8238 30.60602 257.3898 C 30.39642 252.3438 36.33902 251.3108 40.16102 251.1118 C 46.45702 250.7858 50.18202 264.5678 43.59302 262.6328 z " id="path41" style="font-size:12;fill:none;fill-opacity:1;fill-rule:evenodd;stroke:#c95800;stroke-width:4;"/>
  <path d="M 138.0171 260.9793 C 136.8451 285.9673 60.51212 282.2923 61.83612 262.4273 C 60.81512 246.1353 130.9801 217.2253 138.0171 260.9793 z " id="path43" style="font-size:12;fill:#ffffff;fill-opacity:1;fill-rule:evenodd;stroke-width:4;"/>
  <path d="M 121.2889 258.0133 C 118.0779 280.4223 88.28692 271.5913 92.09992 259.9433 C 93.59292 252.8593 117.9579 242.6743 121.2889 258.0133 z " id="path42" style="font-size:12;fill:#0000df;fill-opacity:1;fill-rule:evenodd;stroke:#000000;stroke-width:4;"/>
</svg>
