<?xml version="1.0" encoding="UTF-8" standalone="no"?>
<!-- Created with Inkscape (http://www.inkscape.org/) --><svg height="1052.3622047" id="svg2" inkscape:version="0.42+devel" sodipodi:docbase="C:\Documents and Settings\Lumen 2\Desktop" sodipodi:docname="plane.svg" sodipodi:version="0.32" width="744.09448819" xmlns="http://www.w3.org/2000/svg" xmlns:cc="http://web.resource.org/cc/" xmlns:dc="http://purl.org/dc/elements/1.1/" xmlns:inkscape="http://www.inkscape.org/namespaces/inkscape" xmlns:rdf="http://www.w3.org/1999/02/22-rdf-syntax-ns#" xmlns:sodipodi="http://inkscape.sourceforge.net/DTD/sodipodi-0.dtd" xmlns:svg="http://www.w3.org/2000/svg">
  <metadata>
    <rdf:RDF xmlns:cc="http://web.resource.org/cc/" xmlns:dc="http://purl.org/dc/elements/1.1/" xmlns:rdf="http://www.w3.org/1999/02/22-rdf-syntax-ns#">
      <cc:Work rdf:about="">
        <dc:title>Plane silhouet</dc:title>
        <dc:description></dc:description>
        <dc:subject>
          <rdf:Bag>
            <rdf:li>boeing</rdf:li>
            <rdf:li>window</rdf:li>
            <rdf:li>wings</rdf:li>
            <rdf:li>wing</rdf:li>
            <rdf:li>skies</rdf:li>
            <rdf:li>noze</rdf:li>
            <rdf:li>landing</rdf:li>
            <rdf:li>passenger</rdf:li>
            <rdf:li>cloud</rdf:li>
            <rdf:li>737</rdf:li>
            <rdf:li>320</rdf:li>
            <rdf:li>pilot</rdf:li>
            <rdf:li>tail</rdf:li>
            <rdf:li>salon</rdf:li>
            <rdf:li>380</rdf:li>
            <rdf:li>airbus</rdf:li>
            <rdf:li>reactors</rdf:li>
            <rdf:li>traffic</rdf:li>
            <rdf:li>sky</rdf:li>
            <rdf:li>747</rdf:li>
            <rdf:li>plane</rdf:li>
            <rdf:li>concorde</rdf:li>
            <rdf:li>stewardess</rdf:li>
            <rdf:li>take off</rdf:li>
            <rdf:li>cabin</rdf:li>
            <rdf:li>planes</rdf:li>
            <rdf:li>steward</rdf:li>
            <rdf:li>clouds</rdf:li>
            <rdf:li>airlines</rdf:li>
            <rdf:li>crash</rdf:li>
          </rdf:Bag>
        </dc:subject>
        <dc:publisher>
          <cc:Agent rdf:about="http://www.openclipart.org/">
            <dc:title>Open Clip Art Library</dc:title>
          </cc:Agent>
        </dc:publisher>
        <dc:creator>
          <cc:Agent>
            <dc:title>mo</dc:title>
          </cc:Agent>
        </dc:creator>
        <dc:rights>
          <cc:Agent>
            <dc:title>mo</dc:title>
          </cc:Agent>
        </dc:rights>
        <dc:date>20 09 2005</dc:date>
        <dc:format>image/svg+xml</dc:format>
        <dc:type rdf:resource="http://purl.org/dc/dcmitype/StillImage"/>
        <cc:license rdf:resource="http://web.resource.org/cc/PublicDomain"/>
        <dc:language>en</dc:language>
      </cc:Work>
      <cc:License rdf:about="http://web.resource.org/cc/PublicDomain">
        <cc:permits rdf:resource="http://web.resource.org/cc/Reproduction"/>
        <cc:permits rdf:resource="http://web.resource.org/cc/Distribution"/>
        <cc:permits rdf:resource="http://web.resource.org/cc/DerivativeWorks"/>
      </cc:License>
    </rdf:RDF>
  </metadata>
  <defs id="defs4"/>
  <sodipodi:namedview bordercolor="#666666" borderopacity="1.0" id="base" inkscape:current-layer="layer1" inkscape:cx="453.20171" inkscape:cy="610.9946" inkscape:document-units="px" inkscape:pageopacity="0.0" inkscape:pageshadow="2" inkscape:window-height="537" inkscape:window-width="805" inkscape:window-x="328" inkscape:window-y="173" inkscape:zoom="1.2732944" pagecolor="#ffffff"/>
  <g id="layer1" inkscape:groupmode="layer" inkscape:label="Layer 1">
    <path d="M 267.13223,700.01589 C 266.66748,698.80478 264.27896,698.52163 254.52744,698.52163 C 247.91018,698.52163 242.49606,698.29019 242.49606,698.00731 C 242.49606,697.72443 245.73904,693.33693 249.70269,688.25731 C 262.68628,671.61813 276.49606,652.1893 276.49606,650.562 C 276.49606,649.68456 278.74606,645.84139 281.49606,642.02163 C 286.88458,634.53695 287.30265,633.52163 284.99606,633.52163 C 282.44253,633.52163 283.33666,631.96807 286.85613,630.28975 C 289.48348,629.03685 292.4274,625.18922 300.35613,612.64557 C 305.93307,603.82254 310.49607,596.36023 310.49607,596.06266 C 310.49607,595.76509 309.56947,595.52163 308.43707,595.52163 C 305.60307,595.52163 306.83777,593.91134 310.22527,593.18959 C 312.39467,592.72736 314.50507,590.28931 319.94847,581.95697 C 326.74537,571.55255 331.04197,567.08186 334.92497,566.37351 C 338.04707,565.80395 337.27047,564.04808 333.74607,563.70827 C 330.25607,563.37178 329.77357,562.64416 331.73767,560.67999 C 332.72657,559.69113 332.67667,559.25127 331.49257,558.51947 C 330.22407,557.73552 330.29877,557.37922 332.00097,556.09292 C 333.40787,555.02971 333.57287,554.57586 332.56047,554.55343 C 331.77097,554.53594 330.13827,555.44857 328.93237,556.5815 L 326.73967,558.64138 L 329.04177,545.8315 C 333.99217,518.28496 334.51727,516.45393 338.79917,511.80865 C 341.50017,508.87835 342.30047,507.41509 341.36147,507.12364 C 340.61047,506.89053 335.49607,505.70352 329.99607,504.48583 C 324.49607,503.26814 315.94607,500.81847 310.99607,499.04212 C 306.04607,497.26577 299.97106,495.09077 297.49606,494.2088 C 294.92138,493.29131 280.37451,491.32201 263.49606,489.60602 C 228.4118,486.0391 216.80059,483.62527 169.09455,469.98107 L 136.19304,460.57106 L 99.965155,489.54634 C 59.082635,522.24444 63.433395,519.97739 47.803925,516.72589 L 39.611795,515.02163 L 60.048415,478.56613 C 71.288565,458.5156 80.150025,441.79927 79.740555,441.41873 C 79.331075,441.03819 73.350235,438.41933 66.449795,435.59904 L 53.903545,430.47125 L 54.295725,427.11191 L 54.687915,423.75257 L 68.096425,423.03442 C 75.471105,422.63944 81.744705,421.92832 82.037755,421.45416 C 82.330795,420.98 75.766105,399.1639 67.449545,372.97394 C 59.132985,346.78398 52.519925,325.16443 52.753855,324.9305 C 52.987785,324.69657 57.412985,324.95108 62.587615,325.49607 C 67.762255,326.04107 72.933505,326.49477 74.079265,326.5043 C 75.675675,326.51758 81.144195,333.70729 97.481025,357.27163 C 109.20622,374.18413 119.86235,389.46207 121.16131,391.2226 C 122.46027,392.98314 131.20678,399.88727 140.59799,406.56511 L 157.67293,418.70664 L 183.3345,419.62879 C 211.94799,420.65702 227.69991,421.96621 273.01757,427.08264 C 302.48416,430.40945 342.73387,434.41042 343.22397,434.06141 C 343.34937,433.97214 343.87887,426.36254 344.40067,417.15118 C 344.95437,407.37712 345.82967,399.82459 346.50277,399.01359 C 347.61967,397.66778 351.05677,396.35202 356.74607,395.09239 C 360.18187,394.33168 360.35787,392.52163 356.99607,392.52163 C 354.50317,392.52163 354.49607,392.49454 354.49607,382.92801 C 354.49607,374.34513 354.29597,373.28207 352.59687,372.83774 C 351.11517,372.45027 350.11497,369.99773 348.04727,361.68136 C 343.24377,342.36216 343.87567,343.81543 339.95927,343.0807 C 336.04237,342.34588 336.18797,340.52163 340.16347,340.52163 C 342.29697,340.52163 342.62677,340.15455 342.18527,338.27163 C 341.89507,337.03413 339.03847,324.57967 335.83727,310.59505 L 330.01687,285.16846 L 326.26667,283.59505 C 321.73607,281.69425 321.44207,280.52163 325.49607,280.52163 C 327.14607,280.52163 328.49607,280.2402 328.49607,279.89624 C 328.49607,279.55227 326.62837,271.38321 324.34567,261.74277 C 320.54327,245.68389 320.33367,244.11353 321.84567,243.00791 C 323.69107,241.65855 324.03217,238.97097 322.47977,238.01155 C 321.92077,237.66609 321.69657,237.00625 321.98147,236.54526 C 322.48177,235.73566 315.33107,211.69342 303.87652,175.67316 C 300.84225,166.1315 298.50286,158.19735 298.67786,158.04172 C 299.35257,157.44173 322.98797,166.4972 323.31597,167.48139 C 323.50667,168.05352 324.21057,168.52163 324.88017,168.52163 C 325.54967,168.52163 327.05627,170.49501 328.22807,172.90693 C 330.85957,178.32335 368.44627,247.32127 412.18227,327.02163 C 430.29117,360.02163 445.40587,387.80913 445.77047,388.77163 C 446.64007,391.06765 452.73617,391.14219 454.61377,388.87977 C 455.79947,387.45117 457.60687,387.32042 468.52827,387.87317 C 486.79617,388.79774 497.10857,390.33094 504.76137,393.26014 C 509.83537,395.20224 511.40787,396.24615 511.05147,397.43563 C 510.79007,398.30793 509.64017,404.64663 508.49607,411.52163 C 507.35197,418.39663 506.17867,424.80913 505.88857,425.77163 C 504.98407,428.77341 491.07387,428.03465 470.58847,423.89689 C 467.41197,423.25527 467.22097,423.36179 467.77177,425.46806 C 468.90947,429.81848 481.00977,449.79761 482.99337,450.60073 C 484.09487,451.04669 505.92107,453.7074 531.49607,456.5134 C 610.54877,465.1868 624.75317,467.49488 651.51197,476.01483 C 674.51187,483.33794 700.75681,497.62479 709.08691,507.35669 C 711.98241,510.73938 712.21991,511.44935 711.17511,513.59761 C 708.63621,518.81756 691.08377,525.31369 670.49607,528.65283 C 660.70147,530.24142 610.41917,530.22837 596.49607,528.63363 C 590.72107,527.97216 567.32107,525.1586 544.49607,522.38127 C 500.66147,517.0475 487.92817,516.5422 477.81247,519.73506 C 472.47097,521.421 472.07497,521.87242 473.67677,524.44891 C 474.86407,526.35866 474.69597,526.80676 471.99607,528.9281 C 463.72157,535.42953 433.89277,560.98035 433.19637,562.1633 C 432.54097,563.27656 434.58436,564.32462 444.33937,563.52163 C 454.30614,562.70121 474.2003,565.67454 477.27847,566.55859 C 485.75024,568.99168 486.47827,568.37767 484.94177,580.04406 C 484.21897,585.53172 483.12397,592.3222 482.50847,595.134 C 481.50293,599.60027 477.94168,600.45124 472.75247,600.78521 C 464.29617,601.31278 448.20427,599.66582 441.99607,597.63738 C 440.34607,597.09827 436.39067,595.93391 433.20627,595.04991 C 428.81867,593.83188 427.19617,592.86297 426.50647,591.04906 C 425.84327,589.30467 424.09107,588.18096 420.04627,586.90593 C 416.99367,585.94368 414.49607,584.61867 414.49607,583.96145 C 414.49607,583.30424 413.85147,582.23155 413.06357,581.57769 C 411.89327,580.6064 409.19427,582.56241 398.31357,592.26716 C 380.15467,608.46363 273.04471,698.26989 268.85084,700.81512 C 268.22098,701.19738 267.4476,700.83773 267.13223,700.01589 z " id="path1368" sodipodi:nodetypes="csssssssssssssssssscccssssssccccccscccccssssssscccsssssssssssscccssssssssssssssssssssssssssssssssssssccssssssssc" style="fill:#000000"/>
  </g>
</svg>
