<?xml version="1.0" encoding="UTF-8" standalone="no"?>
<!DOCTYPE svg PUBLIC "-//W3C//DTD SVG 20010904//EN"
"http://www.w3.org/TR/2001/REC-SVG-20010904/DTD/svg10.dtd">
<!-- Created with Sodipodi ("http://www.sodipodi.com/") --><svg height="297mm" id="svg559" sodipodi:docbase="/home/kaj/pic/" sodipodi:docname="/home/kaj/pic/trafik-kaj.svg" sodipodi:version="0.33" width="210mm" xmlns="http://www.w3.org/2000/svg" xmlns:sodipodi="http://sodipodi.sourceforge.net/DTD/sodipodi-0.dtd" xmlns:xlink="http://www.w3.org/1999/xlink">
  <metadata>
    <rdf:RDF xmlns:cc="http://web.resource.org/cc/" xmlns:dc="http://purl.org/dc/elements/1.1/" xmlns:rdf="http://www.w3.org/1999/02/22-rdf-syntax-ns#">
      <cc:Work rdf:about="">
        <dc:title>quay sign</dc:title>
        <dc:description></dc:description>
        <dc:subject>
          <rdf:Bag>
            <rdf:li></rdf:li>
            <rdf:li>symbol</rdf:li>
            <rdf:li>transport</rdf:li>
            <rdf:li>vehicle</rdf:li>
            <rdf:li>transportation</rdf:li>
          </rdf:Bag>
        </dc:subject>
        <dc:publisher>
          <cc:Agent rdf:about="http://www.openclipart.org">
            <dc:title>rasmus@kaj.se</dc:title>
          </cc:Agent>
        </dc:publisher>
        <dc:creator>
          <cc:Agent>
            <dc:title>rasmus@kaj.se</dc:title>
          </cc:Agent>
        </dc:creator>
        <dc:rights>
          <cc:Agent>
            <dc:title>rasmus@kaj.se</dc:title>
          </cc:Agent>
        </dc:rights>
        <dc:date></dc:date>
        <dc:format>image/svg+xml</dc:format>
        <dc:type rdf:resource="http://purl.org/dc/dcmitype/StillImage"/>
        <cc:license rdf:resource="http://web.resource.org/cc/PublicDomain"/>
        <dc:language>en</dc:language>
      </cc:Work>
      <cc:License rdf:about="http://web.resource.org/cc/PublicDomain">
        <cc:permits rdf:resource="http://web.resource.org/cc/Reproduction"/>
        <cc:permits rdf:resource="http://web.resource.org/cc/Distribution"/>
        <cc:permits rdf:resource="http://web.resource.org/cc/DerivativeWorks"/>
      </cc:License>
    </rdf:RDF>
  </metadata>
  <defs id="defs561"/>
  <sodipodi:namedview id="base"/>
  <path d="M 366.1711 234.6597 L 148.3831 604.8196 L 585.5548 605.6173 L 366.1711 234.6597 z " id="path569" sodipodi:nodetypes="cccc" style="fill:#ffff00;fill-rule:evenodd;stroke:none;stroke-opacity:1;stroke-width:1pt;stroke-linejoin:miter;stroke-linecap:butt;fill-opacity:1.0000;"/>
  <path d="M 452.3291 447.6612 C 454.9883 455.9047 451.2655 467.3393 445.9471 477.1783 L 430.7896 469.2009 C 423.4103 487.1505 394.4915 476.3808 407.8540 456.0379 L 349.0193 422.1331 C 344.5652 437.1576 312.9872 429.8448 325.2861 408.1723 L 307.0373 396.8042 L 322.2944 376.6608 L 342.6372 379.4530 L 366.9690 364.6945 L 418.8232 396.6048 L 420.4189 426.9198 L 452.3291 447.6612 z M 380.5309 383.0430 L 367.7668 375.0655 L 348.6205 385.4363 L 374.9466 400.5936 L 380.5309 383.0430 z M 389.3063 388.6272 L 410.8456 400.5933 L 410.8456 422.9307 L 383.7218 406.1778 L 389.3063 388.6272 z " id="path563" sodipodi:nodetypes="cccccccccccccccccccc" style="fill:#000000;fill-rule:evenodd;stroke:none;stroke-opacity:1;stroke-width:1pt;stroke-linejoin:miter;stroke-linecap:butt;fill-opacity:1.0000;"/>
  <path d="M 332.6653 510.6841 C 353.7842 525.8414 364.4630 524.6927 386.9129 512.2796 C 406.9605 526.7975 418.5467 526.0281 439.5650 513.0774 C 457.8930 527.1779 472.1118 527.4053 493.0148 512.2796 C 515.0862 526.6393 528.3821 525.0437 544.0714 513.0774 " id="path566" sodipodi:nodetypes="ccccc" style="fill:none;fill-rule:evenodd;stroke:black;stroke-opacity:1;stroke-width:17;stroke-linejoin:miter;stroke-linecap:round;fill-opacity:1;stroke-dasharray:none;"/>
  <path d="M 332.6653 547.3810 C 353.7842 562.5383 364.4630 561.3896 386.9129 548.9765 C 406.9605 563.4944 418.5467 562.7250 439.5650 549.7743 C 457.8930 563.8748 472.1118 564.1022 493.0148 548.9765 C 515.0862 563.3362 528.3821 561.7406 544.0714 549.7743 " id="path567" sodipodi:nodetypes="ccccc" style="fill:none;fill-rule:evenodd;stroke:black;stroke-opacity:1;stroke-width:17;stroke-linejoin:miter;stroke-linecap:round;fill-opacity:1;stroke-dasharray:none;"/>
  <path d="M 171.5181 593.6510 L 253.6872 430.1105 L 334.2609 430.1105 L 333.4630 596.8420 L 171.5181 593.6510 z " id="path568" sodipodi:nodetypes="ccccc" style="fill:#000000;fill-rule:evenodd;stroke:black;stroke-opacity:1;stroke-width:1pt;stroke-linejoin:miter;stroke-linecap:butt;fill-opacity:1.0000;"/>
  <path d="M 566.4086 628.7524 L 170.7203 629.5501 C 137.8994 629.6163 127.0490 595.3473 140.4055 572.1115 L 333.4630 236.2551 C 348.4380 210.2036 385.8448 210.6829 400.4748 236.2551 L 593.5323 573.7070 C 607.6294 598.3479 595.5482 628.6937 566.4086 628.7524 z M 367.7667 264.9745 L 556.0377 588.0668 L 188.2710 585.6733 L 367.7667 264.9745 z " id="path570" sodipodi:nodetypes="csssssscccc" style="fill:#ff0003;fill-rule:evenodd;stroke:none;stroke-opacity:1;stroke-width:1pt;stroke-linejoin:miter;stroke-linecap:butt;fill-opacity:1.0000;"/>
</svg>
