<?xml version="1.0" encoding="UTF-8" standalone="no"?>
<!DOCTYPE svg PUBLIC "-//W3C//DTD SVG 1.0//EN"
"http://www.w3.org/TR/2001/REC-SVG-20010904/DTD/svg10.dtd">
<!-- Created with Sodipodi ("http://www.sodipodi.com/") --><svg height="437.5" id="svg399" version="1.0" width="437.5" x="0" xmlns="http://www.w3.org/2000/svg" xmlns:xlink="http://www.w3.org/1999/xlink" y="0">
  <metadata>
    <rdf:RDF xmlns:cc="http://web.resource.org/cc/" xmlns:dc="http://purl.org/dc/elements/1.1/" xmlns:rdf="http://www.w3.org/1999/02/22-rdf-syntax-ns#">
      <cc:Work rdf:about="">
        <dc:title>Lemon SVG theme</dc:title>
        <dc:description></dc:description>
        <dc:subject>
          <rdf:Bag>
            <rdf:li>icon</rdf:li>
            <rdf:li></rdf:li>
            <rdf:li>lemon_theme_icon</rdf:li>
            <rdf:li>icons</rdf:li>
            <rdf:li>hash</rdf:li>
            <rdf:li>filesystem</rdf:li>
            <rdf:li>computer</rdf:li>
            <rdf:li>theme</rdf:li>
          </rdf:Bag>
        </dc:subject>
        <dc:publisher>
          <cc:Agent rdf:about="http://www.openclipart.org">
            <dc:title>Jose Hevia</dc:title>
          </cc:Agent>
        </dc:publisher>
        <dc:creator>
          <cc:Agent>
            <dc:title>Jose Hevia</dc:title>
          </cc:Agent>
        </dc:creator>
        <dc:rights>
          <cc:Agent>
            <dc:title>Jose Hevia</dc:title>
          </cc:Agent>
        </dc:rights>
        <dc:date></dc:date>
        <dc:format>image/svg+xml</dc:format>
        <dc:type rdf:resource="http://purl.org/dc/dcmitype/StillImage"/>
        <cc:license rdf:resource="http://web.resource.org/cc/PublicDomain"/>
        <dc:language>en</dc:language>
      </cc:Work>
      <cc:License rdf:about="http://web.resource.org/cc/PublicDomain">
        <cc:permits rdf:resource="http://web.resource.org/cc/Reproduction"/>
        <cc:permits rdf:resource="http://web.resource.org/cc/Distribution"/>
        <cc:permits rdf:resource="http://web.resource.org/cc/DerivativeWorks"/>
      </cc:License>
    </rdf:RDF>
  </metadata>
  <defs id="defs401">
    <linearGradient id="linearGradient229">
      <stop id="stop230" offset="0" style="stop-color:#8f6200;stop-opacity:1;"/>
      <stop id="stop231" offset="1" style="stop-color:#ffffff;stop-opacity:1;"/>
    </linearGradient>
    <linearGradient id="linearGradient219">
      <stop id="stop220" offset="0" style="stop-color:#b78500;stop-opacity:1;"/>
      <stop id="stop221" offset="1" style="stop-color:#ffffff;stop-opacity:1;"/>
    </linearGradient>
    <linearGradient id="linearGradient222" x1="0.33546299" x2="0.65495199" xlink:href="#linearGradient219" y1="0.81367999" y2="0.870713"/>
    <linearGradient id="linearGradient228" x1="0.46964899" x2="0.313099" xlink:href="#linearGradient229" y1="0.44214401" y2="0.98213202"/>
    <linearGradient id="linearGradient232" x1="0.36992201" x2="0.57511598" xlink:href="#linearGradient229" y1="0.55252898" y2="0.96108902"/>
  </defs>
  <path d="M 42.42881 299.4338 C 45.12621 315.0158 13.11485 313.6628 11.00205 320.1598 C 25.93452 331.1848 2.602094 351.5038 9.829623 356.4428 C 14.96104 361.0458 91.25376 392.5667 103.7925 393.7927 C 180.5736 408.9747 339.9086 398.1237 369.0628 383.9638 C 403.9996 363.8038 421.6665 361.6178 427.2277 351.8558 C 423.9355 343.7608 417.0808 314.5818 423.7716 308.2938 C 418.1967 301.1508 370.1397 315.9658 375.4531 300.7448 C 358.6124 295.8118 372.1638 300.7128 360.1127 291.5708 C 355.6099 290.4168 354.4364 280.4308 349.8848 280.4308 C 308.8288 252.1788 108.4914 261.4288 66.07953 285.0188 C 60.0296 297.3518 49.49734 297.0188 42.42881 299.4338 z " id="path19" style="font-size:12;fill:#eeaa44;fill-opacity:1;fill-rule:evenodd;"/>
  <path d="M 13.71488 317.8437 C 19.67859 330.5887 68.09308 383.0357 79.28362 388.5936 C 207.3688 375.3057 244.5766 366.5857 316.7614 391.5416 C 324.8794 385.4936 393.571 329.8067 418.0803 313.1357 C 392.2845 309.2037 149.8697 299.3157 13.71488 317.8437 z " id="path20" style="font-size:12;fill-opacity:0.226601;fill-rule:evenodd;"/>
  <path d="M 12.53006 259.009 C 12.53006 273.671 53.7206 297.13 15.96258 322.349 C 103.5257 311.859 144.8929 327.841 316.314 368.094 C 299.089 332.969 285.4674 317.07 311.1654 299.476 C 239.0452 181.594 21.11146 275.118 12.53006 259.009 z " id="path226" style="font-size:12;fill:url(#linearGradient228);fill-opacity:1;fill-rule:evenodd;stroke:#000000;stroke-width:10;stroke-linejoin:round;"/>
  <path d="M 429.5888 308.273 C 417.5367 292.398 412.594 260.768 426.157 220.301 " id="path223" style="font-size:12;fill:none;fill-opacity:1;fill-rule:evenodd;stroke:#803f49;stroke-width:11.25;"/>
  <path d="M 15.96268 331.146 C 15.96268 283.449 25.80007 265.215 6.920808 238.708 " id="path224" style="font-size:12;fill:none;fill-opacity:1;fill-rule:evenodd;stroke:#804a49;stroke-width:10;"/>
  <path d="M 316.314 364.575 C 326.4942 354.14 389.5941 310.032 424.4412 308.273 C 418.2986 295.681 390.6905 281.292 412.4272 250.212 C 276.2033 214.067 317.27 292.439 311.1654 292.439 C 276.8393 332.905 310.2387 364.575 316.314 364.575 z " id="path227" style="font-size:12;fill:url(#linearGradient232);fill-opacity:1;fill-rule:evenodd;stroke:#000000;stroke-width:10;stroke-linejoin:round;"/>
  <path d="M 9.097441 260.768 C 148.9041 225.579 230.4991 171.072 268.258 86.5843 C 288.9089 186.815 382.4155 237.896 421.0085 250.212 C 373.8615 252.905 318.0309 253.281 316.314 299.476 C 262.5231 274.844 232.7875 232.617 9.097441 260.768 z " id="path218" style="font-size:12;fill:url(#linearGradient222);fill-opacity:1;fill-rule:evenodd;stroke:#000000;stroke-width:10;stroke-linejoin:round;"/>
  <path d="M 323.1795 371.613 C 304.3 322.44 314.5982 298.196 328.3281 280.123 " id="path225" style="font-size:12;fill:none;fill-opacity:1;fill-rule:evenodd;stroke:#814a2e;stroke-width:12.5;"/>
</svg>
