<?xml version="1.0" encoding="UTF-8" standalone="no"?>
<!DOCTYPE svg PUBLIC "-//W3C//DTD SVG 20010904//EN"
"http://www.w3.org/TR/2001/REC-SVG-20010904/DTD/svg10.dtd">
<!-- Created with Sodipodi ("http://www.sodipodi.com/") --><svg height="6.100000cm" id="svg1350" sodipodi:docbase="E:\sodipodi\travail_drapeau" sodipodi:docname="E:\sodipodi\travail_drapeau\dauphiné.svg" sodipodi:version="0.34" width="10.15000cm" xmlns="http://www.w3.org/2000/svg" xmlns:sodipodi="http://sodipodi.sourceforge.net/DTD/sodipodi-0.dtd" xmlns:xlink="http://www.w3.org/1999/xlink">
  <metadata>
    <rdf:RDF xmlns:cc="http://web.resource.org/cc/" xmlns:dc="http://purl.org/dc/elements/1.1/" xmlns:rdf="http://www.w3.org/1999/02/22-rdf-syntax-ns#">
      <cc:Work rdf:about="">
        <dc:title>France - Dauphine</dc:title>
        <dc:description></dc:description>
        <dc:subject>
          <rdf:Bag>
            <rdf:li></rdf:li>
            <rdf:li>europe</rdf:li>
            <rdf:li>france</rdf:li>
            <rdf:li>flag</rdf:li>
            <rdf:li>sign</rdf:li>
            <rdf:li>subnational</rdf:li>
          </rdf:Bag>
        </dc:subject>
        <dc:publisher>
          <cc:Agent rdf:about="http://www.openclipart.org">
            <dc:title>Patricia Fidi</dc:title>
          </cc:Agent>
        </dc:publisher>
        <dc:creator>
          <cc:Agent>
            <dc:title>Patricia Fidi</dc:title>
          </cc:Agent>
        </dc:creator>
        <dc:rights>
          <cc:Agent>
            <dc:title>Patricia Fidi</dc:title>
          </cc:Agent>
        </dc:rights>
        <dc:date></dc:date>
        <dc:format>image/svg+xml</dc:format>
        <dc:type rdf:resource="http://purl.org/dc/dcmitype/StillImage"/>
        <cc:license rdf:resource="http://web.resource.org/cc/PublicDomain"/>
        <dc:language>en</dc:language>
      </cc:Work>
      <cc:License rdf:about="http://web.resource.org/cc/PublicDomain">
        <cc:permits rdf:resource="http://web.resource.org/cc/Reproduction"/>
        <cc:permits rdf:resource="http://web.resource.org/cc/Distribution"/>
        <cc:permits rdf:resource="http://web.resource.org/cc/DerivativeWorks"/>
      </cc:License>
    </rdf:RDF>
  </metadata>
  <defs id="defs1352">
    <defs id="defs5117"/>
    <sodipodi:namedview id="namedview5116"/>
  </defs>
  <sodipodi:namedview bordercolor="#000000" borderlayer="top" borderopacity="1" id="base" showgrid="false"/>
  <rect height="215.826766" id="rect2081" style="font-size:12;fill:#ffd700;fill-rule:evenodd;stroke-width:1;fill-opacity:1;" width="359.492871" x="0.10920435" y="0.23884907"/>
  <g id="g916" transform="matrix(0.5,0,0,0.5,179.4424,108.1286)">
    <rect height="215.712328" id="rect625" style="font-size:12;fill:#000099;fill-rule:evenodd;" width="361.289804" x="0.34703196" y="0.61842296"/>
    <g id="g897" transform="translate(-14.62068,-1.896616)">
      <path d="M 128.2868 96.94299 C 139.4844 92.51098 144.9969 85.80253 145.5888 76.3319 C 145.9684 70.63846 140.2856 63.96057 134.2019 63.80629 C 115.1965 63.29227 108.8425 94.27844 108.9571 101.8416 C 109.7595 101.8393 113.713 101.7604 114.6938 101.7984 C 115.56 97.02196 114.8161 91.17058 120.8891 86.23625 C 126.9621 81.30192 129.6471 85.06187 130.4063 88.09839 C 131.1655 91.13488 127.6032 97.25173 128.2868 96.94301 L 128.2868 96.94301 L 128.2868 96.94301 L 128.2868 96.943 L 128.2868 96.943 L 128.2868 96.94299 z " id="path628" sodipodi:nodetypes="cssccssccccc" style="font-size:12;fill:#ffd700;fill-rule:evenodd;stroke:#000000;stroke-width:1.2875;" transform="translate(-1.875,-6.09e-6)"/>
      <path d="M 77.52559 96.94296 C 66.32799 92.51095 60.81549 85.8025 60.22359 76.33187 C 59.84399 70.63843 65.52679 63.96054 71.61049 63.80626 C 90.61581 63.29224 96.96988 94.27841 96.85525 101.8416 C 96.05286 101.8392 92.09933 101.7603 91.11855 101.7983 C 90.25238 97.02193 90.99626 91.17055 84.92327 86.23622 C 78.85029 81.30189 76.16529 85.06184 75.40609 88.09836 C 74.64689 91.13485 78.20919 97.2517 77.52559 96.94298 L 77.52559 96.94298 L 77.52559 96.94298 L 77.52559 96.94297 L 77.52559 96.94297 L 77.52559 96.94296 z " id="path629" sodipodi:nodetypes="cssccssccccc" style="font-size:12;fill:#ffd700;fill-rule:evenodd;stroke:#000000;stroke-width:1.2875;" transform="translate(-1.875,-6.09e-6)"/>
      <path d="M 103.0642 27.66385 C 115.9783 41.09221 119.4461 54.74973 110.8358 76.62764 C 107.8822 83.93504 106.6322 92.70333 106.7535 101.8173 C 105.5035 101.8462 100.1819 101.7855 98.92131 101.696 C 99.03205 92.69272 97.53937 83.21757 94.59638 75.78884 C 84.62527 53.44678 91.81132 38.29173 102.7214 27.66385 L 102.8928 27.66385 L 103.0642 27.66385 L 103.0642 27.66385 z " id="path630" sodipodi:nodetypes="cccccccc" style="font-size:12;fill:#ffd700;fill-rule:evenodd;stroke:#000000;stroke-width:1.2875;" transform="translate(-1.875,-6.09e-6)"/>
      <path d="M 109.8489 106.9771 C 112.4929 114.0339 117.1596 116.701 120.9742 118.5699 C 115.1601 121.3226 108.4402 118.333 107.1756 116.9097 C 107.3294 118.8995 107.4869 124.2765 106.7606 127.9081 C 106.2687 130.8365 105.0236 132.5235 102.9215 134.8599 C 100.7426 132.5772 99.39499 130.7377 98.66868 128.1437 C 97.78612 124.3779 98.71995 119.0362 98.64183 117.0416 C 97.63356 118.2818 89.59169 121.2664 84.30002 118.6724 C 89.22669 116.5252 94.00079 114.0252 95.55471 106.8452 C 96.1309 106.8807 108.3963 106.8733 109.8489 106.8733 L 109.8489 106.9771 L 109.8489 106.9771 L 109.8489 106.9771 L 109.8489 106.9771 L 109.8489 106.9771 z " id="path631" sodipodi:nodetypes="cccccccccccccc" style="font-size:12;fill:#ffd700;fill-rule:evenodd;stroke:#000000;stroke-width:1.2875;" transform="translate(-1.875,-6.09e-6)"/>
      <rect height="4.55176899" id="rect639" style="font-size:12;fill:#ffd700;fill-rule:evenodd;stroke:#000000;stroke-width:1.178551;" transform="translate(-1.875,-6.09e-6)" width="30.5996743" x="87.4434413" y="102.028568"/>
    </g>
    <g id="g903" transform="translate(14.12933,-1.629359)">
      <path d="M 289.3221 96.94298 C 300.5197 92.51097 306.0322 85.80252 306.6241 76.33189 C 307.0037 70.63845 301.3209 63.96056 295.2372 63.80628 C 276.2318 63.29226 269.8778 94.27843 269.9924 101.8416 C 270.7948 101.8393 274.7483 101.7604 275.7291 101.7984 C 276.5953 97.02195 275.8514 91.17057 281.9244 86.23624 C 287.9974 81.30191 290.6824 85.06186 291.4416 88.09838 C 292.2008 91.13487 288.6385 97.25172 289.3221 96.943 L 289.3221 96.943 L 289.3221 96.943 L 289.3221 96.94299 L 289.3221 96.94299 L 289.3221 96.94298 z " id="path614" sodipodi:nodetypes="cssccssccccc" style="font-size:12;fill:#ffd700;fill-rule:evenodd;stroke:#000000;stroke-width:1.2875;" transform="translate(-1.875,-6.09e-6)"/>
      <path d="M 238.5609 96.94295 C 227.3633 92.51094 221.8508 85.80249 221.2589 76.33186 C 220.8793 70.63842 226.5621 63.96053 232.6458 63.80625 C 251.6512 63.29223 258.0052 94.2784 257.8906 101.8416 C 257.0882 101.8392 253.1347 101.7603 252.1539 101.7983 C 251.2877 97.02192 252.0316 91.17054 245.9586 86.23621 C 239.8856 81.30188 237.2006 85.06183 236.4414 88.09835 C 235.6822 91.13484 239.2445 97.25169 238.5609 96.94297 L 238.5609 96.94297 L 238.5609 96.94297 L 238.5609 96.94296 L 238.5609 96.94296 L 238.5609 96.94295 z " id="path615" sodipodi:nodetypes="cssccssccccc" style="font-size:12;fill:#ffd700;fill-rule:evenodd;stroke:#000000;stroke-width:1.2875;" transform="translate(-1.875,-6.09e-6)"/>
      <path d="M 264.0995 27.66384 C 277.0136 41.0922 280.4814 54.74972 271.8711 76.62763 C 268.9175 83.93503 267.6675 92.70332 267.7888 101.8173 C 266.5388 101.8462 261.2172 101.7855 259.9567 101.696 C 260.0674 92.69271 258.5747 83.21756 255.6317 75.78883 C 245.6606 53.44677 252.8467 38.29172 263.7567 27.66384 L 263.9281 27.66384 L 264.0995 27.66384 L 264.0995 27.66384 z " id="path616" sodipodi:nodetypes="cccccccc" style="font-size:12;fill:#ffd700;fill-rule:evenodd;stroke:#000000;stroke-width:1.2875;" transform="translate(-1.875,-6.09e-6)"/>
      <path d="M 270.8842 106.9771 C 273.5282 114.0339 278.1949 116.701 282.0095 118.5699 C 276.1954 121.3226 269.4755 118.333 268.2109 116.9097 C 268.3647 118.8995 268.5222 124.2765 267.7959 127.9081 C 267.304 130.8365 266.0589 132.5235 263.9568 134.8599 C 261.7779 132.5772 260.4303 130.7377 259.704 128.1437 C 258.8215 124.3779 259.7553 119.0362 259.6772 117.0416 C 258.6689 118.2818 250.627 121.2664 245.3354 118.6724 C 250.262 116.5252 255.0361 114.0252 256.5901 106.8452 C 257.1662 106.8807 269.4316 106.8733 270.8842 106.8733 L 270.8842 106.9771 L 270.8842 106.9771 L 270.8842 106.9771 L 270.8842 106.9771 L 270.8842 106.9771 z " id="path617" sodipodi:nodetypes="cccccccccccccc" style="font-size:12;fill:#ffd700;fill-rule:evenodd;stroke:#000000;stroke-width:1.2875;" transform="translate(-1.875,-6.09e-6)"/>
      <rect height="4.55176851" id="rect618" style="font-size:12;fill:#ffd700;fill-rule:evenodd;stroke:#000000;stroke-width:1.178551;" transform="translate(-1.875,-6.09e-6)" width="30.5996724" x="248.478793" y="102.028552"/>
    </g>
    <g id="g909" transform="translate(0,13.74999)">
      <path d="M 208.8044 151.695 C 220.002 147.263 225.5145 140.5545 226.1064 131.0839 C 226.486 125.3905 220.8032 118.7126 214.7195 118.5583 C 195.7141 118.0443 189.3601 149.0304 189.4747 156.5936 C 190.2771 156.5913 194.2306 156.5124 195.2114 156.5504 C 196.0776 151.774 195.3337 145.9226 201.4067 140.9882 C 207.4797 136.0539 210.1647 139.8139 210.9239 142.8504 C 211.6831 145.8869 208.1208 152.0037 208.8044 151.695 L 208.8044 151.695 L 208.8044 151.695 L 208.8044 151.695 L 208.8044 151.695 L 208.8044 151.695 z " id="path619" sodipodi:nodetypes="cssccssccccc" style="font-size:12;fill:#ffd700;fill-rule:evenodd;stroke:#000000;stroke-width:1.2875;" transform="translate(-1.875,-6.09e-6)"/>
      <path d="M 158.0432 151.695 C 146.8456 147.2629 141.3331 140.5545 140.7412 131.0839 C 140.3616 125.3904 146.0444 118.7125 152.1281 118.5583 C 171.1335 118.0442 177.4875 149.0304 177.3729 156.5936 C 176.5705 156.5912 172.617 156.5123 171.6362 156.5503 C 170.77 151.7739 171.5139 145.9225 165.4409 140.9882 C 159.3679 136.0539 156.6829 139.8138 155.9237 142.8504 C 155.1645 145.8868 158.7268 152.0037 158.0432 151.695 L 158.0432 151.695 L 158.0432 151.695 L 158.0432 151.695 L 158.0432 151.695 L 158.0432 151.695 z " id="path620" sodipodi:nodetypes="cssccssccccc" style="font-size:12;fill:#ffd700;fill-rule:evenodd;stroke:#000000;stroke-width:1.2875;" transform="translate(-1.875,-6.09e-6)"/>
      <path d="M 183.5818 82.41585 C 196.4959 95.84421 199.9637 109.5017 191.3534 131.3796 C 188.3998 138.687 187.1498 147.4553 187.2711 156.5693 C 186.0211 156.5982 180.6995 156.5375 179.439 156.448 C 179.5497 147.4447 178.057 137.9696 175.114 130.5408 C 165.1429 108.1988 172.329 93.04373 183.239 82.41585 L 183.4104 82.41585 L 183.5818 82.41585 L 183.5818 82.41585 z " id="path621" sodipodi:nodetypes="cccccccc" style="font-size:12;fill:#ffd700;fill-rule:evenodd;stroke:#000000;stroke-width:1.2875;" transform="translate(-1.875,-6.09e-6)"/>
      <path d="M 190.3665 161.7291 C 193.0105 168.7859 197.6772 171.453 201.4918 173.3219 C 195.6777 176.0746 188.9578 173.085 187.6932 171.6617 C 187.847 173.6515 188.0045 179.0285 187.2782 182.6601 C 186.7863 185.5885 185.5412 187.2755 183.4391 189.6119 C 181.2602 187.3292 179.9126 185.4897 179.1863 182.8957 C 178.3038 179.1299 179.2376 173.7882 179.1595 171.7936 C 178.1512 173.0338 170.1093 176.0184 164.8177 173.4244 C 169.7443 171.2772 174.5184 168.7772 176.0724 161.5972 C 176.6485 161.6327 188.9139 161.6253 190.3665 161.6253 L 190.3665 161.7291 L 190.3665 161.7291 L 190.3665 161.7291 L 190.3665 161.7291 L 190.3665 161.7291 z " id="path622" sodipodi:nodetypes="cccccccccccccc" style="font-size:12;fill:#ffd700;fill-rule:evenodd;stroke:#000000;stroke-width:1.2875;" transform="translate(-1.875,-6.09e-6)"/>
      <rect height="4.55176803" id="rect623" style="font-size:12;fill:#ffd700;fill-rule:evenodd;stroke:#000000;stroke-width:1.178551;" transform="translate(-1.875,-6.09e-6)" width="30.5996705" x="167.961091" y="156.780557"/>
    </g>
  </g>
  <g id="g5486" transform="matrix(0.5,0,0,0.5,-0.109298,0.373529)">
    <rect height="215.712328" id="rect5487" style="font-size:12;fill:#000099;fill-rule:evenodd;" width="361.289804" x="0.34703196" y="0.61842296"/>
    <g id="g5488" transform="translate(-14.62068,-1.896616)">
      <path d="M 128.2868 96.94299 C 139.4844 92.51098 144.9969 85.80253 145.5888 76.3319 C 145.9684 70.63846 140.2856 63.96057 134.2019 63.80629 C 115.1965 63.29227 108.8425 94.27844 108.9571 101.8416 C 109.7595 101.8393 113.713 101.7604 114.6938 101.7984 C 115.56 97.02196 114.8161 91.17058 120.8891 86.23625 C 126.9621 81.30192 129.6471 85.06187 130.4063 88.09839 C 131.1655 91.13488 127.6032 97.25173 128.2868 96.94301 L 128.2868 96.94301 L 128.2868 96.94301 L 128.2868 96.943 L 128.2868 96.943 L 128.2868 96.94299 z " id="path5489" sodipodi:nodetypes="cssccssccccc" style="font-size:12;fill:#ffd700;fill-rule:evenodd;stroke:#000000;stroke-width:1.2875;" transform="translate(-1.875,-6.09e-6)"/>
      <path d="M 77.52559 96.94296 C 66.32799 92.51095 60.81549 85.8025 60.22359 76.33187 C 59.84399 70.63843 65.52679 63.96054 71.61049 63.80626 C 90.61581 63.29224 96.96988 94.27841 96.85525 101.8416 C 96.05286 101.8392 92.09933 101.7603 91.11855 101.7983 C 90.25238 97.02193 90.99626 91.17055 84.92327 86.23622 C 78.85029 81.30189 76.16529 85.06184 75.40609 88.09836 C 74.64689 91.13485 78.20919 97.2517 77.52559 96.94298 L 77.52559 96.94298 L 77.52559 96.94298 L 77.52559 96.94297 L 77.52559 96.94297 L 77.52559 96.94296 z " id="path5490" sodipodi:nodetypes="cssccssccccc" style="font-size:12;fill:#ffd700;fill-rule:evenodd;stroke:#000000;stroke-width:1.2875;" transform="translate(-1.875,-6.09e-6)"/>
      <path d="M 103.0642 27.66385 C 115.9783 41.09221 119.4461 54.74973 110.8358 76.62764 C 107.8822 83.93504 106.6322 92.70333 106.7535 101.8173 C 105.5035 101.8462 100.1819 101.7855 98.92131 101.696 C 99.03205 92.69272 97.53937 83.21757 94.59638 75.78884 C 84.62527 53.44678 91.81132 38.29173 102.7214 27.66385 L 102.8928 27.66385 L 103.0642 27.66385 L 103.0642 27.66385 z " id="path5491" sodipodi:nodetypes="cccccccc" style="font-size:12;fill:#ffd700;fill-rule:evenodd;stroke:#000000;stroke-width:1.2875;" transform="translate(-1.875,-6.09e-6)"/>
      <path d="M 109.8489 106.9771 C 112.4929 114.0339 117.1596 116.701 120.9742 118.5699 C 115.1601 121.3226 108.4402 118.333 107.1756 116.9097 C 107.3294 118.8995 107.4869 124.2765 106.7606 127.9081 C 106.2687 130.8365 105.0236 132.5235 102.9215 134.8599 C 100.7426 132.5772 99.39499 130.7377 98.66868 128.1437 C 97.78612 124.3779 98.71995 119.0362 98.64183 117.0416 C 97.63356 118.2818 89.59169 121.2664 84.30002 118.6724 C 89.22669 116.5252 94.00079 114.0252 95.55471 106.8452 C 96.1309 106.8807 108.3963 106.8733 109.8489 106.8733 L 109.8489 106.9771 L 109.8489 106.9771 L 109.8489 106.9771 L 109.8489 106.9771 L 109.8489 106.9771 z " id="path5492" sodipodi:nodetypes="cccccccccccccc" style="font-size:12;fill:#ffd700;fill-rule:evenodd;stroke:#000000;stroke-width:1.2875;" transform="translate(-1.875,-6.09e-6)"/>
      <rect height="4.55176899" id="rect5493" style="font-size:12;fill:#ffd700;fill-rule:evenodd;stroke:#000000;stroke-width:1.178551;" transform="translate(-1.875,-6.09e-6)" width="30.5996743" x="87.4434413" y="102.028568"/>
    </g>
    <g id="g5494" transform="translate(14.12933,-1.629359)">
      <path d="M 289.3221 96.94298 C 300.5197 92.51097 306.0322 85.80252 306.6241 76.33189 C 307.0037 70.63845 301.3209 63.96056 295.2372 63.80628 C 276.2318 63.29226 269.8778 94.27843 269.9924 101.8416 C 270.7948 101.8393 274.7483 101.7604 275.7291 101.7984 C 276.5953 97.02195 275.8514 91.17057 281.9244 86.23624 C 287.9974 81.30191 290.6824 85.06186 291.4416 88.09838 C 292.2008 91.13487 288.6385 97.25172 289.3221 96.943 L 289.3221 96.943 L 289.3221 96.943 L 289.3221 96.94299 L 289.3221 96.94299 L 289.3221 96.94298 z " id="path5495" sodipodi:nodetypes="cssccssccccc" style="font-size:12;fill:#ffd700;fill-rule:evenodd;stroke:#000000;stroke-width:1.2875;" transform="translate(-1.875,-6.09e-6)"/>
      <path d="M 238.5609 96.94295 C 227.3633 92.51094 221.8508 85.80249 221.2589 76.33186 C 220.8793 70.63842 226.5621 63.96053 232.6458 63.80625 C 251.6512 63.29223 258.0052 94.2784 257.8906 101.8416 C 257.0882 101.8392 253.1347 101.7603 252.1539 101.7983 C 251.2877 97.02192 252.0316 91.17054 245.9586 86.23621 C 239.8856 81.30188 237.2006 85.06183 236.4414 88.09835 C 235.6822 91.13484 239.2445 97.25169 238.5609 96.94297 L 238.5609 96.94297 L 238.5609 96.94297 L 238.5609 96.94296 L 238.5609 96.94296 L 238.5609 96.94295 z " id="path5496" sodipodi:nodetypes="cssccssccccc" style="font-size:12;fill:#ffd700;fill-rule:evenodd;stroke:#000000;stroke-width:1.2875;" transform="translate(-1.875,-6.09e-6)"/>
      <path d="M 264.0995 27.66384 C 277.0136 41.0922 280.4814 54.74972 271.8711 76.62763 C 268.9175 83.93503 267.6675 92.70332 267.7888 101.8173 C 266.5388 101.8462 261.2172 101.7855 259.9567 101.696 C 260.0674 92.69271 258.5747 83.21756 255.6317 75.78883 C 245.6606 53.44677 252.8467 38.29172 263.7567 27.66384 L 263.9281 27.66384 L 264.0995 27.66384 L 264.0995 27.66384 z " id="path5497" sodipodi:nodetypes="cccccccc" style="font-size:12;fill:#ffd700;fill-rule:evenodd;stroke:#000000;stroke-width:1.2875;" transform="translate(-1.875,-6.09e-6)"/>
      <path d="M 270.8842 106.9771 C 273.5282 114.0339 278.1949 116.701 282.0095 118.5699 C 276.1954 121.3226 269.4755 118.333 268.2109 116.9097 C 268.3647 118.8995 268.5222 124.2765 267.7959 127.9081 C 267.304 130.8365 266.0589 132.5235 263.9568 134.8599 C 261.7779 132.5772 260.4303 130.7377 259.704 128.1437 C 258.8215 124.3779 259.7553 119.0362 259.6772 117.0416 C 258.6689 118.2818 250.627 121.2664 245.3354 118.6724 C 250.262 116.5252 255.0361 114.0252 256.5901 106.8452 C 257.1662 106.8807 269.4316 106.8733 270.8842 106.8733 L 270.8842 106.9771 L 270.8842 106.9771 L 270.8842 106.9771 L 270.8842 106.9771 L 270.8842 106.9771 z " id="path5498" sodipodi:nodetypes="cccccccccccccc" style="font-size:12;fill:#ffd700;fill-rule:evenodd;stroke:#000000;stroke-width:1.2875;" transform="translate(-1.875,-6.09e-6)"/>
      <rect height="4.55176851" id="rect5499" style="font-size:12;fill:#ffd700;fill-rule:evenodd;stroke:#000000;stroke-width:1.178551;" transform="translate(-1.875,-6.09e-6)" width="30.5996724" x="248.478793" y="102.028552"/>
    </g>
    <g id="g5500" transform="translate(0,13.74999)">
      <path d="M 208.8044 151.695 C 220.002 147.263 225.5145 140.5545 226.1064 131.0839 C 226.486 125.3905 220.8032 118.7126 214.7195 118.5583 C 195.7141 118.0443 189.3601 149.0304 189.4747 156.5936 C 190.2771 156.5913 194.2306 156.5124 195.2114 156.5504 C 196.0776 151.774 195.3337 145.9226 201.4067 140.9882 C 207.4797 136.0539 210.1647 139.8139 210.9239 142.8504 C 211.6831 145.8869 208.1208 152.0037 208.8044 151.695 L 208.8044 151.695 L 208.8044 151.695 L 208.8044 151.695 L 208.8044 151.695 L 208.8044 151.695 z " id="path5501" sodipodi:nodetypes="cssccssccccc" style="font-size:12;fill:#ffd700;fill-rule:evenodd;stroke:#000000;stroke-width:1.2875;" transform="translate(-1.875,-6.09e-6)"/>
      <path d="M 158.0432 151.695 C 146.8456 147.2629 141.3331 140.5545 140.7412 131.0839 C 140.3616 125.3904 146.0444 118.7125 152.1281 118.5583 C 171.1335 118.0442 177.4875 149.0304 177.3729 156.5936 C 176.5705 156.5912 172.617 156.5123 171.6362 156.5503 C 170.77 151.7739 171.5139 145.9225 165.4409 140.9882 C 159.3679 136.0539 156.6829 139.8138 155.9237 142.8504 C 155.1645 145.8868 158.7268 152.0037 158.0432 151.695 L 158.0432 151.695 L 158.0432 151.695 L 158.0432 151.695 L 158.0432 151.695 L 158.0432 151.695 z " id="path5502" sodipodi:nodetypes="cssccssccccc" style="font-size:12;fill:#ffd700;fill-rule:evenodd;stroke:#000000;stroke-width:1.2875;" transform="translate(-1.875,-6.09e-6)"/>
      <path d="M 183.5818 82.41585 C 196.4959 95.84421 199.9637 109.5017 191.3534 131.3796 C 188.3998 138.687 187.1498 147.4553 187.2711 156.5693 C 186.0211 156.5982 180.6995 156.5375 179.439 156.448 C 179.5497 147.4447 178.057 137.9696 175.114 130.5408 C 165.1429 108.1988 172.329 93.04373 183.239 82.41585 L 183.4104 82.41585 L 183.5818 82.41585 L 183.5818 82.41585 z " id="path5503" sodipodi:nodetypes="cccccccc" style="font-size:12;fill:#ffd700;fill-rule:evenodd;stroke:#000000;stroke-width:1.2875;" transform="translate(-1.875,-6.09e-6)"/>
      <path d="M 190.3665 161.7291 C 193.0105 168.7859 197.6772 171.453 201.4918 173.3219 C 195.6777 176.0746 188.9578 173.085 187.6932 171.6617 C 187.847 173.6515 188.0045 179.0285 187.2782 182.6601 C 186.7863 185.5885 185.5412 187.2755 183.4391 189.6119 C 181.2602 187.3292 179.9126 185.4897 179.1863 182.8957 C 178.3038 179.1299 179.2376 173.7882 179.1595 171.7936 C 178.1512 173.0338 170.1093 176.0184 164.8177 173.4244 C 169.7443 171.2772 174.5184 168.7772 176.0724 161.5972 C 176.6485 161.6327 188.9139 161.6253 190.3665 161.6253 L 190.3665 161.7291 L 190.3665 161.7291 L 190.3665 161.7291 L 190.3665 161.7291 L 190.3665 161.7291 z " id="path5504" sodipodi:nodetypes="cccccccccccccc" style="font-size:12;fill:#ffd700;fill-rule:evenodd;stroke:#000000;stroke-width:1.2875;" transform="translate(-1.875,-6.09e-6)"/>
      <rect height="4.55176803" id="rect5505" style="font-size:12;fill:#ffd700;fill-rule:evenodd;stroke:#000000;stroke-width:1.178551;" transform="translate(-1.875,-6.09e-6)" width="30.5996705" x="167.961091" y="156.780557"/>
    </g>
  </g>
  <g id="g2039" transform="translate(7.499999,237.5)">
    <path d="M 67.39613 -95.8692 C 70.48972 -93.43851 76.00992 -91.52208 72.25341 -87.10266 C 75.56797 -86.66071 76.89787 -89.90299 76.89787 -92.33366 C 76.89787 -94.76433 67.6171 -95.64821 67.39613 -95.86919 L 67.39613 -95.86919 L 67.39613 -95.86919 L 67.39613 -95.8692 z " id="path2032" sodipodi:nodetypes="cccccc" style="fill:#d70000;fill-rule:evenodd;stroke:#000000;stroke-opacity:1;stroke-width:0.625;stroke-linejoin:miter;stroke-linecap:butt;fill-opacity:1;stroke-dasharray:none;"/>
    <path d="M 71.21591 -44.39194 C 108.1204 -56.81036 95.03902 -99.64127 63.35935 -95.58628 C 60.90977 -95.34691 59.03422 -94.93099 57.27685 -93.81223 C 54.48904 -92.51428 50.05475 -92.104 49.42029 -93.55878 C 49.87951 -94.50677 52.32714 -95.40708 52.2081 -96.85349 C 50.11779 -97.85184 46.72209 -99.07426 47.3928 -102.936 C 53.43312 -101.848 55.24936 -106.484 54.99592 -109.0185 C 54.74248 -110.7183 53.22185 -115.101 64.62654 -119.156 C 84.90154 -123.7178 111.259 -116.3681 115.314 -81.64722 C 116.8347 -57.82412 98.08028 -49.46068 93.01153 -45.65912 C 87.94278 -41.85757 82.11372 -39.06975 79.3259 -30.95974 C 78.31215 -38.05599 74.51059 -41.85753 71.21591 -44.39194 L 71.21591 -44.39194 L 71.21591 -44.39194 L 71.21591 -44.39194 L 71.21591 -44.39194 z " id="path2018" sodipodi:nodetypes="ccccccccccccccc" style="fill:#0000d7;fill-rule:evenodd;stroke:#000000;stroke-opacity:1;stroke-width:0.625;stroke-linejoin:miter;stroke-linecap:butt;fill-opacity:1;stroke-dasharray:none;"/>
    <path d="M 54.80078 -106.4758 C 56.56855 -104.929 59.44118 -103.6072 62.09282 -108.2435 C 64.74447 -112.0001 68.51321 -108.4645 68.51321 -108.4645 " id="path2019" sodipodi:nodetypes="ccc" style="fill:none;fill-rule:evenodd;stroke:#000000;stroke-opacity:1;stroke-width:0.625;stroke-linejoin:miter;stroke-linecap:butt;fill-opacity:1;stroke-dasharray:none;"/>
    <path d="M 64.74562 -104.5395 C 68.28117 -98.34768 76.27173 -98.37914 84.93325 -99.23737 " id="path2020" sodipodi:nodetypes="cc" style="fill:none;fill-rule:evenodd;stroke:#000000;stroke-opacity:1;stroke-width:0.625;stroke-linejoin:miter;stroke-linecap:butt;fill-opacity:1;stroke-dasharray:none;"/>
    <path d="M 86.62465 -102.1969 C 112.574 -95.12584 109.3303 -63.96892 92.64862 -51.81554 " id="path2021" sodipodi:nodetypes="cc" style="font-size:12;fill:none;fill-rule:evenodd;stroke:#000000;stroke-width:1.91994;"/>
    <path d="M 84.63186 -45.48782 C 73.80429 -42.83619 62.9767 -44.60396 54.80078 -58.96706 C 51.92816 -64.27034 45.26223 -63.87917 44.88094 -60.3705 C 49.28996 -64.17774 51.42503 -57.29338 50.92524 -54.69549 C 45.67568 -54.61905 44.41094 -52.946 41.92474 -51.04195 C 43.72776 -51.01974 46.92145 -52.47713 51.04428 -47.03463 C 55.86821 -41.00975 62.53477 -40.57716 64.74447 -40.57716 C 67.39613 -40.3562 68.42525 -39.87701 71.66675 -41.17907 C 69.80039 -38.52743 62.68344 -37.38823 59.2202 -39.88716 C 58.27217 -36.20703 61.49641 -37.1011 67.61709 -33.99733 C 71.91633 -31.49113 74.98717 -27.12626 79.54952 -25.1585 C 84.10612 -23.28402 87.41006 -23.59062 92.05043 -27.56809 C 81.88577 -25.35839 75.35108 -30.24084 84.63186 -45.48782 L 84.63186 -45.48782 L 84.63186 -45.48782 L 84.63186 -45.48782 L 84.63186 -45.48782 L 84.63186 -45.48782 L 84.63186 -45.48782 L 84.63186 -45.48782 L 84.63186 -45.48782 L 84.63186 -45.48782 L 84.63186 -45.48782 L 84.63186 -45.48782 z " id="path2022" sodipodi:nodetypes="cccccscccsscccccccccccc" style="fill:#d70000;fill-rule:evenodd;stroke:#000000;stroke-opacity:1;stroke-width:0.625;stroke-linejoin:miter;stroke-linecap:butt;fill-opacity:1;stroke-dasharray:none;"/>
    <path d="M 108.7177 -58.96706 C 106.066 -52.11695 102.7171 -44.52351 107.5784 -39.44117 C 101.1703 -39.22018 96.56021 -45.77703 96.56021 -48.2077 C 98.9909 -49.75449 106.066 -54.98957 108.7177 -58.96706 L 108.7177 -58.96706 L 108.7177 -58.96706 L 108.7177 -58.96706 L 108.7177 -58.96706 z " id="path2023" sodipodi:nodetypes="ccccccc" style="fill:#d70000;fill-rule:evenodd;stroke:#000000;stroke-opacity:1;stroke-width:0.625;stroke-linejoin:miter;stroke-linecap:butt;fill-opacity:1;stroke-dasharray:none;"/>
    <path d="M 93.69167 -68.68978 C 90.59808 -60.51386 87.27535 -58.74607 80.64621 -58.74607 C 84.18176 -56.97832 85.95767 -56.53637 84.85282 -52.11695 C 89.27225 -55.87345 93.69167 -62.94455 93.69167 -68.68978 L 93.69167 -68.68978 L 93.69167 -68.68978 L 93.69167 -68.68978 z " id="path2024" sodipodi:nodetypes="cccccc" style="fill:#d70000;fill-rule:evenodd;stroke:#000000;stroke-opacity:1;stroke-width:0.625;stroke-linejoin:miter;stroke-linecap:butt;fill-opacity:1;stroke-dasharray:none;"/>
    <path d="M 89.71418 -111.5581 C 91.26098 -110.4532 91.70293 -108.9065 91.48195 -106.0338 C 93.91263 -110.0113 96.78525 -110.2323 98.99496 -107.8016 C 99.2159 -110.4532 102.0886 -110.6742 104.0773 -109.1274 " id="path2025" sodipodi:nodetypes="cccc" style="fill:none;fill-rule:evenodd;stroke:#000000;stroke-opacity:1;stroke-width:0.625;stroke-linejoin:miter;stroke-linecap:butt;fill-opacity:1;stroke-dasharray:none;"/>
    <path d="M 79.99146 -95.20628 C 87.06254 -94.3224 91.9239 -88.79812 93.24972 -85.9255 " id="path2026" sodipodi:nodetypes="cc" style="fill:none;fill-rule:evenodd;stroke:#000000;stroke-opacity:1;stroke-width:0.625;stroke-linejoin:miter;stroke-linecap:butt;fill-opacity:1;stroke-dasharray:none;"/>
    <path d="M 92.14487 -117.5244 C 96.56429 -117.9663 101.9481 -118.2678 106.066 -121.7227 C 105.1822 -118.4082 101.723 -117.0101 100.6182 -115.0213 C 101.944 -114.8004 105.1821 -114.6517 106.066 -115.0937 C 108.2757 -115.5356 111.1484 -117.0824 114.021 -118.1872 C 116.8936 -119.2921 119.3284 -120.2483 121.538 -118.4805 C 116.8977 -118.0386 112.4019 -114.278 115.1259 -110.0113 C 111.5903 -110.6741 107.7655 -108.3841 107.9865 -103.5226 C 105.9977 -107.9421 95.23846 -116.8615 92.36584 -117.3034 L 92.14487 -117.5244 L 92.14487 -117.5244 L 92.14487 -117.5244 L 92.14487 -117.5244 z " id="path2028" sodipodi:nodetypes="cccccccccccc" style="fill:#d70000;fill-rule:evenodd;stroke:#000000;stroke-opacity:1;stroke-width:0.625;stroke-linejoin:miter;stroke-linecap:butt;fill-opacity:1;stroke-dasharray:none;"/>
    <path d="M 112.9161 -92.77559 C 116.0097 -88.35619 121.0921 -82.61091 122.8598 -81.94801 C 118.2194 -81.06413 116.8977 -78.03875 120.2082 -71.78335 C 117.7775 -73.99307 116.6726 -74.87694 115.1258 -73.33015 C 116.4516 -76.86569 112.6952 -92.99656 112.9161 -92.77559 L 112.9161 -92.77559 L 112.9161 -92.77559 L 112.9161 -92.77559 z " id="path2029" sodipodi:nodetypes="ccccccc" style="fill:#d70000;fill-rule:evenodd;stroke:#000000;stroke-opacity:1;stroke-width:0.625;stroke-linejoin:miter;stroke-linecap:butt;fill-opacity:1;stroke-dasharray:none;"/>
    <path d="M 52.51296 -97.29879 C 62.07943 -102.5898 64.56257 -96.60795 52.47389 -96.14263 C 52.26517 -96.46736 52.39577 -96.88251 52.39577 -97.10348 L 52.51296 -97.29879 L 52.51296 -97.29879 L 52.51296 -97.29879 L 52.51296 -97.29879 z " id="path2030" sodipodi:nodetypes="cccccc" style="fill:#d70000;fill-rule:evenodd;stroke:#000000;stroke-opacity:1;stroke-width:0.625;stroke-linejoin:miter;stroke-linecap:butt;fill-opacity:1;stroke-dasharray:none;"/>
    <path d="M 67.6171 -100.7305 C 71.59457 -97.85793 77.33981 -98.29984 80.4334 -98.52083 C 83.527 -98.74181 79.77049 -97.19501 79.77049 -95.20628 C 79.77049 -93.21754 80.34309 -92.27365 81.09632 -90.56589 C 81.96628 -88.59352 81.61465 -85.62408 78.8143 -84.00497 C 80.21242 -88.34802 75.57204 -92.33366 73.80428 -93.65948 C 71.70928 -94.96885 67.6171 -100.9515 67.6171 -100.7305 L 67.6171 -100.7305 L 67.6171 -100.7305 L 67.6171 -100.7305 L 67.6171 -100.7305 L 67.6171 -100.7305 z " id="path2031" sodipodi:nodetypes="cccscsccccc" style="fill:#d70000;fill-rule:evenodd;stroke:#000000;stroke-opacity:1;stroke-width:0.625;stroke-linejoin:miter;stroke-linecap:butt;fill-opacity:1;stroke-dasharray:none;"/>
    <path d="M 66.51224 -105.2604 A 1.988735 1.878242 0 1 0 62.53476 -105.2604 A 1.988735 1.878242 0 1 0  66.51224 -105.2604 z" id="path2033" sodipodi:cx="64.5234985" sodipodi:cy="-105.260445" sodipodi:rx="1.9887352" sodipodi:ry="1.87824249" sodipodi:type="arc" style="fill-rule:evenodd;stroke:none;fill:#ffffff;fill-opacity:1;stroke-opacity:1;stroke-width:0.625;stroke-linejoin:miter;stroke-linecap:butt;stroke-dasharray:none;" transform="matrix(0.81,0,0,0.81,11.59655,-20.66243)"/>
    <path d="M 51.01642 -55.78085 C 51.44611 -54.45244 52.19373 -53.96976 53.17119 -52.57202 C 51.87633 -52.86764 50.46481 -54.16033 49.75548 -54.37923 " id="path2034" sodipodi:nodetypes="ccc" style="font-size:12;fill:none;fill-rule:evenodd;stroke:#000000;stroke-width:0.625;stroke-dasharray:none;"/>
    <path d="M 70.71555 -31.7862 C 72.73941 -32.21121 72.68945 -32.62421 73.16765 -32.93406 C 73.07459 -32.23587 71.80165 -31.88978 72.38275 -30.28971 " id="path2035" sodipodi:nodetypes="ccc" style="font-size:12;fill:none;fill-rule:evenodd;stroke:#000000;stroke-width:0.625;"/>
    <path d="M 59.2202 -99.45604 C 60.80262 -99.9761 62.38436 -98.76245 63.20993 -97.93606 C 64.26682 -96.92812 66.34029 -96.1572 67.82581 -95.81674 " id="path2036" sodipodi:nodetypes="csc" style="fill:none;fill-rule:evenodd;stroke:#000000;stroke-opacity:1;stroke-width:0.625;stroke-linejoin:miter;stroke-linecap:butt;fill-opacity:1;stroke-dasharray:none;"/>
    <path d="M 77.35738 -120.1216 C 80.89296 -121.8894 82.79128 -123.3592 83.4542 -124.685 C 84.11712 -123.1382 83.01229 -121.5914 83.01225 -120.2656 C 85.66392 -120.2655 89.86234 -122.2543 90.74625 -123.1382 C 92.735 -121.5914 91.53861 -118.2132 91.03194 -117.1976 " id="path2037" sodipodi:nodetypes="ccccc" style="font-size:12;fill:#0000d7;fill-rule:evenodd;stroke:#000000;stroke-width:0.625;"/>
    <path d="M 99.97184 -112.2371 C 103.4093 -110.9871 104.3751 -111.671 106.8751 -112.6085 C 105.3126 -110.1085 103.7501 -109.796 101.5626 -110.421 " id="path2038" sodipodi:nodetypes="ccc" style="fill:none;fill-rule:evenodd;stroke:#000000;stroke-opacity:1;stroke-width:0.75;stroke-linejoin:miter;stroke-linecap:butt;fill-opacity:1;stroke-dasharray:none;"/>
  </g>
  <g id="g2060" transform="translate(191.25,128.75)">
    <path d="M 67.39613 -95.8692 C 70.48972 -93.43851 76.00992 -91.52208 72.25341 -87.10266 C 75.56797 -86.66071 76.89787 -89.90299 76.89787 -92.33366 C 76.89787 -94.76433 67.6171 -95.64821 67.39613 -95.86919 L 67.39613 -95.86919 L 67.39613 -95.86919 L 67.39613 -95.8692 z " id="path2061" sodipodi:nodetypes="cccccc" style="fill:#d70000;fill-rule:evenodd;stroke:#000000;stroke-opacity:1;stroke-width:0.625;stroke-linejoin:miter;stroke-linecap:butt;fill-opacity:1;stroke-dasharray:none;"/>
    <path d="M 71.21591 -44.39194 C 108.1204 -56.81036 95.03902 -99.64127 63.35935 -95.58628 C 60.90977 -95.34691 59.03422 -94.93099 57.27685 -93.81223 C 54.48904 -92.51428 50.05475 -92.104 49.42029 -93.55878 C 49.87951 -94.50677 52.32714 -95.40708 52.2081 -96.85349 C 50.11779 -97.85184 46.72209 -99.07426 47.3928 -102.936 C 53.43312 -101.848 55.24936 -106.484 54.99592 -109.0185 C 54.74248 -110.7183 53.22185 -115.101 64.62654 -119.156 C 84.90154 -123.7178 111.259 -116.3681 115.314 -81.64722 C 116.8347 -57.82412 98.08028 -49.46068 93.01153 -45.65912 C 87.94278 -41.85757 82.11372 -39.06975 79.3259 -30.95974 C 78.31215 -38.05599 74.51059 -41.85753 71.21591 -44.39194 L 71.21591 -44.39194 L 71.21591 -44.39194 L 71.21591 -44.39194 L 71.21591 -44.39194 z " id="path2062" sodipodi:nodetypes="ccccccccccccccc" style="fill:#0000d7;fill-rule:evenodd;stroke:#000000;stroke-opacity:1;stroke-width:0.625;stroke-linejoin:miter;stroke-linecap:butt;fill-opacity:1;stroke-dasharray:none;"/>
    <path d="M 54.80078 -106.4758 C 56.56855 -104.929 59.44118 -103.6072 62.09282 -108.2435 C 64.74447 -112.0001 68.51321 -108.4645 68.51321 -108.4645 " id="path2063" sodipodi:nodetypes="ccc" style="fill:none;fill-rule:evenodd;stroke:#000000;stroke-opacity:1;stroke-width:0.625;stroke-linejoin:miter;stroke-linecap:butt;fill-opacity:1;stroke-dasharray:none;"/>
    <path d="M 64.74562 -104.5395 C 68.28117 -98.34768 76.27173 -98.37914 84.93325 -99.23737 " id="path2064" sodipodi:nodetypes="cc" style="fill:none;fill-rule:evenodd;stroke:#000000;stroke-opacity:1;stroke-width:0.625;stroke-linejoin:miter;stroke-linecap:butt;fill-opacity:1;stroke-dasharray:none;"/>
    <path d="M 86.62465 -102.1969 C 112.574 -95.12584 109.3303 -63.96892 92.64862 -51.81554 " id="path2065" sodipodi:nodetypes="cc" style="font-size:12;fill:none;fill-rule:evenodd;stroke:#000000;stroke-width:1.91994;"/>
    <path d="M 84.63186 -45.48782 C 73.80429 -42.83619 62.9767 -44.60396 54.80078 -58.96706 C 51.92816 -64.27034 45.26223 -63.87917 44.88094 -60.3705 C 49.28996 -64.17774 51.42503 -57.29338 50.92524 -54.69549 C 45.67568 -54.61905 44.41094 -52.946 41.92474 -51.04195 C 43.72776 -51.01974 46.92145 -52.47713 51.04428 -47.03463 C 55.86821 -41.00975 62.53477 -40.57716 64.74447 -40.57716 C 67.39613 -40.3562 68.42525 -39.87701 71.66675 -41.17907 C 69.80039 -38.52743 62.68344 -37.38823 59.2202 -39.88716 C 58.27217 -36.20703 61.49641 -37.1011 67.61709 -33.99733 C 71.91633 -31.49113 74.98717 -27.12626 79.54952 -25.1585 C 84.10612 -23.28402 87.41006 -23.59062 92.05043 -27.56809 C 81.88577 -25.35839 75.35108 -30.24084 84.63186 -45.48782 L 84.63186 -45.48782 L 84.63186 -45.48782 L 84.63186 -45.48782 L 84.63186 -45.48782 L 84.63186 -45.48782 L 84.63186 -45.48782 L 84.63186 -45.48782 L 84.63186 -45.48782 L 84.63186 -45.48782 L 84.63186 -45.48782 L 84.63186 -45.48782 z " id="path2066" sodipodi:nodetypes="cccccscccsscccccccccccc" style="fill:#d70000;fill-rule:evenodd;stroke:#000000;stroke-opacity:1;stroke-width:0.625;stroke-linejoin:miter;stroke-linecap:butt;fill-opacity:1;stroke-dasharray:none;"/>
    <path d="M 108.7177 -58.96706 C 106.066 -52.11695 102.7171 -44.52351 107.5784 -39.44117 C 101.1703 -39.22018 96.56021 -45.77703 96.56021 -48.2077 C 98.9909 -49.75449 106.066 -54.98957 108.7177 -58.96706 L 108.7177 -58.96706 L 108.7177 -58.96706 L 108.7177 -58.96706 L 108.7177 -58.96706 z " id="path2067" sodipodi:nodetypes="ccccccc" style="fill:#d70000;fill-rule:evenodd;stroke:#000000;stroke-opacity:1;stroke-width:0.625;stroke-linejoin:miter;stroke-linecap:butt;fill-opacity:1;stroke-dasharray:none;"/>
    <path d="M 93.69167 -68.68978 C 90.59808 -60.51386 87.27535 -58.74607 80.64621 -58.74607 C 84.18176 -56.97832 85.95767 -56.53637 84.85282 -52.11695 C 89.27225 -55.87345 93.69167 -62.94455 93.69167 -68.68978 L 93.69167 -68.68978 L 93.69167 -68.68978 L 93.69167 -68.68978 z " id="path2068" sodipodi:nodetypes="cccccc" style="fill:#d70000;fill-rule:evenodd;stroke:#000000;stroke-opacity:1;stroke-width:0.625;stroke-linejoin:miter;stroke-linecap:butt;fill-opacity:1;stroke-dasharray:none;"/>
    <path d="M 89.71418 -111.5581 C 91.26098 -110.4532 91.70293 -108.9065 91.48195 -106.0338 C 93.91263 -110.0113 96.78525 -110.2323 98.99496 -107.8016 C 99.2159 -110.4532 102.0886 -110.6742 104.0773 -109.1274 " id="path2069" sodipodi:nodetypes="cccc" style="fill:none;fill-rule:evenodd;stroke:#000000;stroke-opacity:1;stroke-width:0.625;stroke-linejoin:miter;stroke-linecap:butt;fill-opacity:1;stroke-dasharray:none;"/>
    <path d="M 79.99146 -95.20628 C 87.06254 -94.3224 91.9239 -88.79812 93.24972 -85.9255 " id="path2070" sodipodi:nodetypes="cc" style="fill:none;fill-rule:evenodd;stroke:#000000;stroke-opacity:1;stroke-width:0.625;stroke-linejoin:miter;stroke-linecap:butt;fill-opacity:1;stroke-dasharray:none;"/>
    <path d="M 92.14487 -117.5244 C 96.56429 -117.9663 101.9481 -118.2678 106.066 -121.7227 C 105.1822 -118.4082 101.723 -117.0101 100.6182 -115.0213 C 101.944 -114.8004 105.1821 -114.6517 106.066 -115.0937 C 108.2757 -115.5356 111.1484 -117.0824 114.021 -118.1872 C 116.8936 -119.2921 119.3284 -120.2483 121.538 -118.4805 C 116.8977 -118.0386 112.4019 -114.278 115.1259 -110.0113 C 111.5903 -110.6741 107.7655 -108.3841 107.9865 -103.5226 C 105.9977 -107.9421 95.23846 -116.8615 92.36584 -117.3034 L 92.14487 -117.5244 L 92.14487 -117.5244 L 92.14487 -117.5244 L 92.14487 -117.5244 z " id="path2071" sodipodi:nodetypes="cccccccccccc" style="fill:#d70000;fill-rule:evenodd;stroke:#000000;stroke-opacity:1;stroke-width:0.625;stroke-linejoin:miter;stroke-linecap:butt;fill-opacity:1;stroke-dasharray:none;"/>
    <path d="M 112.9161 -92.77559 C 116.0097 -88.35619 121.0921 -82.61091 122.8598 -81.94801 C 118.2194 -81.06413 116.8977 -78.03875 120.2082 -71.78335 C 117.7775 -73.99307 116.6726 -74.87694 115.1258 -73.33015 C 116.4516 -76.86569 112.6952 -92.99656 112.9161 -92.77559 L 112.9161 -92.77559 L 112.9161 -92.77559 L 112.9161 -92.77559 z " id="path2072" sodipodi:nodetypes="ccccccc" style="fill:#d70000;fill-rule:evenodd;stroke:#000000;stroke-opacity:1;stroke-width:0.625;stroke-linejoin:miter;stroke-linecap:butt;fill-opacity:1;stroke-dasharray:none;"/>
    <path d="M 52.51296 -97.29879 C 62.07943 -102.5898 64.56257 -96.60795 52.47389 -96.14263 C 52.26517 -96.46736 52.39577 -96.88251 52.39577 -97.10348 L 52.51296 -97.29879 L 52.51296 -97.29879 L 52.51296 -97.29879 L 52.51296 -97.29879 z " id="path2073" sodipodi:nodetypes="cccccc" style="fill:#d70000;fill-rule:evenodd;stroke:#000000;stroke-opacity:1;stroke-width:0.625;stroke-linejoin:miter;stroke-linecap:butt;fill-opacity:1;stroke-dasharray:none;"/>
    <path d="M 67.6171 -100.7305 C 71.59457 -97.85793 77.33981 -98.29984 80.4334 -98.52083 C 83.527 -98.74181 79.77049 -97.19501 79.77049 -95.20628 C 79.77049 -93.21754 80.34309 -92.27365 81.09632 -90.56589 C 81.96628 -88.59352 81.61465 -85.62408 78.8143 -84.00497 C 80.21242 -88.34802 75.57204 -92.33366 73.80428 -93.65948 C 71.70928 -94.96885 67.6171 -100.9515 67.6171 -100.7305 L 67.6171 -100.7305 L 67.6171 -100.7305 L 67.6171 -100.7305 L 67.6171 -100.7305 L 67.6171 -100.7305 z " id="path2074" sodipodi:nodetypes="cccscsccccc" style="fill:#d70000;fill-rule:evenodd;stroke:#000000;stroke-opacity:1;stroke-width:0.625;stroke-linejoin:miter;stroke-linecap:butt;fill-opacity:1;stroke-dasharray:none;"/>
    <path d="M 66.51224 -105.2604 A 1.988735 1.878242 0 1 0 62.53476 -105.2604 A 1.988735 1.878242 0 1 0  66.51224 -105.2604 z" id="path2075" sodipodi:cx="64.5234985" sodipodi:cy="-105.260445" sodipodi:rx="1.9887352" sodipodi:ry="1.87824249" sodipodi:type="arc" style="fill-rule:evenodd;stroke:none;fill:#ffffff;fill-opacity:1;stroke-opacity:1;stroke-width:0.625;stroke-linejoin:miter;stroke-linecap:butt;stroke-dasharray:none;" transform="matrix(0.81,0,0,0.81,11.59655,-20.66243)"/>
    <path d="M 51.01642 -55.78085 C 51.44611 -54.45244 52.19373 -53.96976 53.17119 -52.57202 C 51.87633 -52.86764 50.46481 -54.16033 49.75548 -54.37923 " id="path2076" sodipodi:nodetypes="ccc" style="font-size:12;fill:none;fill-rule:evenodd;stroke:#000000;stroke-width:0.625;stroke-dasharray:none;"/>
    <path d="M 70.71555 -31.7862 C 72.73941 -32.21121 72.68945 -32.62421 73.16765 -32.93406 C 73.07459 -32.23587 71.80165 -31.88978 72.38275 -30.28971 " id="path2077" sodipodi:nodetypes="ccc" style="font-size:12;fill:none;fill-rule:evenodd;stroke:#000000;stroke-width:0.625;"/>
    <path d="M 59.2202 -99.45604 C 60.80262 -99.9761 62.38436 -98.76245 63.20993 -97.93606 C 64.26682 -96.92812 66.34029 -96.1572 67.82581 -95.81674 " id="path2078" sodipodi:nodetypes="csc" style="fill:none;fill-rule:evenodd;stroke:#000000;stroke-opacity:1;stroke-width:0.625;stroke-linejoin:miter;stroke-linecap:butt;fill-opacity:1;stroke-dasharray:none;"/>
    <path d="M 77.35738 -120.1216 C 80.89296 -121.8894 82.79128 -123.3592 83.4542 -124.685 C 84.11712 -123.1382 83.01229 -121.5914 83.01225 -120.2656 C 85.66392 -120.2655 89.86234 -122.2543 90.74625 -123.1382 C 92.735 -121.5914 91.53861 -118.2132 91.03194 -117.1976 " id="path2079" sodipodi:nodetypes="ccccc" style="font-size:12;fill:#0000d7;fill-rule:evenodd;stroke:#000000;stroke-width:0.625;"/>
    <path d="M 99.97184 -112.2371 C 103.4093 -110.9871 104.3751 -111.671 106.8751 -112.6085 C 105.3126 -110.1085 103.7501 -109.796 101.5626 -110.421 " id="path2080" sodipodi:nodetypes="ccc" style="fill:none;fill-rule:evenodd;stroke:#000000;stroke-opacity:1;stroke-width:0.75;stroke-linejoin:miter;stroke-linecap:butt;fill-opacity:1;stroke-dasharray:none;"/>
  </g>
</svg>
