<?xml version="1.0" encoding="UTF-8" standalone="no"?>
<!-- Generator: Adobe Illustrator 12.0.0, SVG Export Plug-In . SVG Version: 6.00 Build 51448)  --><svg height="358.956" id="Layer_1" inkscape:version="0.40+cvs" sodipodi:docbase="F:\openclip\svg2" sodipodi:docname="Zucca.svg" sodipodi:version="0.32" style="overflow:visible;enable-background:new 0 0 344.584 358.956;" version="1.0" viewBox="0 0 344.584 358.956" width="344.584" xml:space="preserve" xmlns="http://www.w3.org/2000/svg" xmlns:cc="http://web.resource.org/cc/" xmlns:dc="http://purl.org/dc/elements/1.1/" xmlns:inkscape="http://www.inkscape.org/namespaces/inkscape" xmlns:rdf="http://www.w3.org/1999/02/22-rdf-syntax-ns#" xmlns:sodipodi="http://inkscape.sourceforge.net/DTD/sodipodi-0.dtd" xmlns:svg="http://www.w3.org/2000/svg" xmlns:xml="http://www.w3.org/XML/1998/namespace"><metadata><rdf:RDF xmlns:cc="http://web.resource.org/cc/" xmlns:dc="http://purl.org/dc/elements/1.1/" xmlns:rdf="http://www.w3.org/1999/02/22-rdf-syntax-ns#"><cc:Work rdf:about=""><dc:title>Zucca</dc:title><dc:description></dc:description><dc:subject><rdf:Bag><rdf:li>food</rdf:li></rdf:Bag></dc:subject><dc:publisher><cc:Agent rdf:about="http://www.openclipart.org"><dc:title>Architetto Francesco Rollandin</dc:title></cc:Agent></dc:publisher><dc:creator><cc:Agent><dc:title>Architetto Francesco Rollandin</dc:title></cc:Agent></dc:creator><dc:rights><cc:Agent><dc:title>Architetto Francesco Rollandin</dc:title></cc:Agent></dc:rights><dc:date></dc:date><dc:format>image/svg+xml</dc:format><dc:type rdf:resource="http://purl.org/dc/dcmitype/StillImage"/><cc:license rdf:resource="http://web.resource.org/cc/PublicDomain"/><dc:language>en</dc:language></cc:Work><cc:License rdf:about="http://web.resource.org/cc/PublicDomain"><cc:permits rdf:resource="http://web.resource.org/cc/Reproduction"/><cc:permits rdf:resource="http://web.resource.org/cc/Distribution"/><cc:permits rdf:resource="http://web.resource.org/cc/DerivativeWorks"/></cc:License></rdf:RDF></metadata>
<defs id="defs292"></defs>
<sodipodi:namedview bordercolor="#666666" borderopacity="1.0" id="base" inkscape:current-layer="Layer_1" inkscape:cx="172.29201" inkscape:cy="179.47800" inkscape:pageopacity="0.0" inkscape:pageshadow="2" inkscape:window-height="540" inkscape:window-width="640" inkscape:window-x="44" inkscape:window-y="44" inkscape:zoom="1.0530539" pagecolor="#ffffff"></sodipodi:namedview>

<path d="M342.741,229.306c1.461-1.248-1.854-14.658-2.461-16.989  c-0.697-2.691-0.035-5.417-0.873-8.143c-1.305-4.241-3.639-8.066-5.089-12.252c-4.864-14.04-12.337-26.924-21.356-38.637  c-4.908-6.373-10.561-12.14-16.37-17.687c-6.019-5.745-11.888-10.196-18.708-14.882c-6.188-4.252-12.238-8.273-19.004-11.592  c-7.738-3.796-16.207-4.289-24.751-5.035c-2.324-0.203-6.583-0.699-8.565,0.952c-2.419,2.015-3.189-0.932-2.096-2.749  c2.441-4.062,3.864-9.054,6.83-12.573c1.084-1.282,13.21-12.613,14.053-8.405c1.289,6.402-1.478,15.752,4.765,20.292  c2.351,1.71,4.383,3.565,7.362,3.995c2.313,0.327,4.274-0.536,6.519-0.491c7.142,0.143,12.508-6.198,12.732-13.311  c0.226-7.129-3.919-12.088-8.275-17.222c-1.294-1.524-5.843,4.489-6.66,5.559c-2.418,3.164,0.418,3.506,2.857,6.642  c1.908,2.454,2.039,10.591-2.697,9.134c-4.025-1.238-6.629-5.584-6.629-9.531c0-0.874-0.199-4.753,0.836-5.136  c1.225-0.452,3.625,1.437,4.234,0.772c2.61-2.846,4.474-5.473,7.611-7.939c-1.449-1.754-4.868-1.613-5.621-3.948  c-0.727-2.254,1.878-4.619,3.468-5.824c6.713-5.085,14.88-0.445,19.311,5.252c4.232,5.442,7.921,11.686,12.523,16.786  c4.888,5.416,11.396,5.418,17.984,5.438c7.018,0.021,13.691-2.859,19.204-7.064c5.304-4.045,8.5-13.678,7.841-20.259  c-0.743-7.426-4.673-14.167-9.268-19.86c-1.125-1.396-2.468-3.436-3.163-5.063c-1.195-2.795-3.28-1.02-2.475,1.414  c1.086,3.261,3.731,5.159,5.65,7.876c1.743,2.469,2.253,6.116,3.194,8.967c2.485,7.521,1.751,13.393-3.576,19.485  c-4.375,5.002-10.272,5.965-16.604,5.812c-6.963-0.168-10.536-3.853-13.662-9.778c-7.332-13.899-20.445-23.238-36.559-19.165  c-6.34,1.603-10.546,4.604-13.949,10.151c-1.863,3.035-1.316,4.674-4.842,4.366c-3.54-0.31-8.079,0.501-10.984,2.587  c-4.812,3.456-11.24,6.342-14.242,11.823c-3.306,6.021-4.805,12.842-8.199,18.884c-0.883,1.572-3.276,4.418-3.276,6.267  c0,1.037-0.865,1.944-1.873,1.506c-0.563-0.245,0.756-3.32,0.858-3.805c1.35-6.385,0.456-13.329-3.783-18.398  c-4.603-5.505-7.654-11.984-8.762-19.045c-0.883-5.626,0.863-10.946,1.553-16.504c1.51-12.175-2.41-28.503-10.113-38.369  C179.28,2.903,161.917-2.994,148.874,1.543C136.529,5.837,124.294,15.279,119,27.406c-3.141,7.195-4.526,14.358-4.566,22.179  c-0.039,7.715,0.287,17.261,5.838,23.32c4.134,4.509,7.432,6.988,13.758,7.904c2.332,0.338,4.386,0.589,6.544,0.19  c3.287-0.607,3.602,2.443,4.999-1.748c-8.58-0.534-13.668-11.69-16.27-18.495c-2.697-7.052-2.641-16.729,0.728-23.544  c3.438-6.958,9.853-15.768,18.09-17.327c7.692-1.456,19.548,4.279,24.55,9.808c5.549,6.133,6.824,16.483,6.271,24.491  c-0.53,7.674-1.501,18.688-7.727,24.133c-2.418,2.112-5.615,4.25-8.498,5.707c-2.102,1.062-4.348,1.782-6.586,2.495  c-1.293,0.412-4.262,0.504-5.033,1.659c-2.123-2.126-8.107,2.906-9.391,4.432c-3.422,4.067-2.264,8.229-3.361,12.997  c-5.628-3.096-13.42-5.142-19.78-5.416c-7.04-0.303-14.169,1.287-20.721,1.63c-7.124,0.375-13.18,3.128-20.175,4.032  c-8.021,1.033-13.309,7.127-20.544,9.54c-11.89,3.965-20.891,17.177-28.6,26.048c-8.525,9.81-16.063,22.853-20.578,35.209  c-2.012,5.509-4.471,10.688-5.455,16.362c-1.514,8.738-2.99,17.106-2.333,26.005c1.188,16.1,3.67,33.853,11.32,48.278  c2.763,5.209,4.861,10.566,7.909,15.807c3.02,5.192,6.581,12.096,11.602,15.558c2.689,1.855,3.525,5.481,6.15,7.347  c3,2.131,5.383,4.911,8.004,7.469c4.216,4.115,8.708,6.746,13.859,9.263c6.927,3.384,13.435,6.983,20.613,9.765  c6.68,2.589,9.728,9.908,16.628,12.42c6.555,2.387,11.995,6.11,19.108,6.461c7.379,0.362,15.424,0.859,22.282-2.466  c0.943-0.458,7.295-4.376,6.443-5.532c-1.42-1.926,2.085-0.132,2.672,0.521c4.444,4.937,11.379,10.916,18.106,12.317  c4.402,0.916,8.883,2.732,13.068,2.732c6.822,0,13.932-1.136,20.522-2.824c7.346-1.882,12.018-5.39,17.769-10.035  c0.912-0.735,1.553-1.49,1.925-2.605c0.172-0.512,1.847-1.041,2.177-1.537c2.29-3.443,4.049-2.751,8.085-2.214  c6.839,0.909,13.527,0.092,20.442-0.503c6.012-0.518,13.854-0.98,18.865-4.493c2.604-1.823,5.571-3.74,8.465-1.734  c2.548,1.766,4.925,3.881,8.035,4.572c7.279,1.617,16.961-0.465,22.823-4.926c2.071-1.577,5.007-1.965,7.21-3.764  c2.835-2.316,5.158-5.147,7.578-7.873c4.394-4.945,9.324-12.113,11.103-18.556c0.669-2.424,2.733-4.383,3.623-6.789  c1.138-3.072,1.814-6.282,2.593-9.457c1.56-6.368,3.361-12.124,3.978-18.721c0.648-6.933,1.721-13.472,1.412-20.494  c-0.154-3.526-0.647-7.013-1.014-10.52C343.387,235.25,343.682,230.271,342.741,229.306" id="path3" style="fill-rule:evenodd;clip-rule:evenodd;"></path>

<path d="M159.601,5.712c1.549-0.106,1.754,1.119,2.058-0.981c0.377-2.607,3.335,1.473,3.542,1.37  c2.009-1.004,3.044-2.105,3.044,0.441c0,2.921,3.26,1.436,3.26-0.829c6.392,2.436,16.49,8.849,17.002,16.578  c-0.797-0.444-0.959,1.069-0.864,1.356c0.58,1.759,2.387,0.617,3.132,2.318c0.131,0.298-1.1,7.471,1.559,4.828  c0.425,1.842,0.851,3.684,1.275,5.526c-0.845-1.672-2.551-0.891-2.551,0.64c0,1.189,1.21,0.402,2.198,1.203  c1.961,1.589,0.938,7.075,0.842,9.075c-0.278,5.834-0.183,10.828-1.915,16.549c-1.858,6.135-3.85,11.604-6.752,17.33  c-2.436,4.804-6.145,9.73-7.003,15.187c-0.441,2.804,0.849,5.062,0.338,7.813c-0.573,3.088,2.7,3.009-0.275,5.982  c-1.92,1.922-4.448,1.316-6.93,1.658c-2.632,0.363-3.675,2.262-5.865,3.043c-0.435,0.155-4.189,0.563-4.431,0.088  c-1.057-2.101-3.364-2.843-3.364,0.073c-0.449-0.452-1.227-2.551-0.284-2.551c1.821,0-0.073-2.438-0.142-2.976  c3.927,0-0.471-3.483,2.792-4.335c2.44-0.637-0.248-5.153,1.99-5.903c0.854-0.284,2.854,5.381,3.67,2.148  c0.336-1.334-0.581-2.696-0.765-3.99c-0.197-1.393,3.155-3.04,3.363-4.924c1.49,1.488-0.587,1.542,0.78,2.905  c2.269,2.26,1.907-1.788,2.127-2.551c0.159-0.552,2.554-1.274,1.345-2.479c3.444,0,0.697,1.195-0.28,2.507  c-0.926,1.243,2,2.942,2.587,0.803c0.698-2.542,6.06-5.861,0.67-5.861c0.473-0.3,0.756-0.726,0.85-1.275  c0.836,0.398,1.855,1.825,2.48-0.07c-0.085-0.912,0.012-1.799,0.288-2.66c0.922-1.522,0.857,0.4,2.092-0.524  c0.651-0.507,0.903-1.196,0.756-2.067c-0.099-2.426,0.443-1.146,2.232-1.935c1.57-0.692-0.904-2.084,0.229-3.371  c0,3.046,3.579,0.803,3.486-0.637c-0.096-1.477-2.16-2.846-3.063-1.063c-0.023-1.075,0.402-1.925,1.276-2.551  c0.76,3.424,3.104-3.917,2.976-3.825c-2.128-0.8-1.306-3.521-0.851-5.102c0.785,0.911,1.365-0.328,2.126-0.425  c-0.292-1.015-1.815-1.15-1.894-2.062c-0.091-1.063,2.05-1.212,2.742-2.614c-1.968-0.439-2.642-2.591-1.7-4.251  c0.692,1.733,3.106-1.307,1.273-2.05c-0.135-0.054-1.666,0.072-1.725-0.202c-0.415-1.941-0.832-3.883-1.247-5.824  c1.419,3.647,3.966-6.107,0-2.125c-0.284-1.7-0.567-3.401-0.852-5.101c4.483,2.942,1.067-4.929-0.426-1.7  c-0.554-0.76-0.836-1.611-0.849-2.551c1.244,0.442,2.945-1.728,1.771-2.692c-0.625-0.512-3.013-1.176-2.623,0.567  c-0.879-1.767-1.987-3.314-0.424-5.102c-2.072-1.868-2.217,0.915-3.621-2.117c-1.212-2.606-3.577-4.502-5.278-6.773  c-0.197-0.266,2.462-2.835-0.018-3.011c-0.869-0.062-2.889,0.522-1.711,1.7c-5.562-2.551-10.889-5.046-17.003-5.951  c3-3.004-4.108-3.27-1.699,0c-0.814,0.342-1.662,0.481-2.545,0.417c-0.927-0.156-1.448-2.117-1.883-2.117  c-1.049,0-2.655,1.417-1.524,2.55c-5.636,0.939-9.353,4.323-13.584,7.905c-2.006,1.699-3.48,2.572-5.911,3.18  c-1.601,0.4,0.548,2.513-0.483,3.367c-4.016-5.967-1.73,2.794-3.007,3.927c-4.819,4.271-4.876,11.636-6.77,17.328  c-3.055-2.655-3.46,5.886,0,1.275c-2.304,2.304,1.411,11.744,2.125,14.453c-2.422,0-2.764,3.143-1.52,4.87  c1.301,1.806,3.239-0.6,1.945-1.895c0.814,1.629,1.9,3.33-0.782,3.33c-2.278,0-3.44-5.913-3.894-7.581  c0.753,1.762,1.525-0.257,2.55-0.425c-0.299-2.298-2.083-1.934-3.4-1.275c0-1.134,0-2.267,0-3.401  c0.648,1.63,3.038-1.593,0.986-2.411c-2.975-1.191-1.412-8.301-1.412-11.192c0.865,0.395,4.238-0.063,2.408-1.271  c-2.311-1.524-1.383-2.541-0.282-5.104c-0.283,0.973,0.649,2.612,1.574,1.685c0.797-0.174,1.271-0.651,1.422-1.432  c-0.315-1.001-1.609-2.063-2.57-1.103c-0.255-2.013,0.931-4.438,2.158-5.016c1.746-0.822,0.589-2.431,0.907-3.701  c0.034-0.137,1.19-2.335,1.381-2.548c2.17-2.426,3.99-4.979,6.439-7.182C134.287,12.875,154.625-2.583,159.601,5.712" id="path5" style="fill:#409F40;"></path>

<path d="M163.853,8.262c0,0.789-0.174,2.115-1.43,1.119C160.526,7.876,163.235,6.513,163.853,8.262" id="path7"></path>

<path d="M145.998,9.962C143.975,11.308,143.896,9.26,145.998,9.962" id="path9"></path>

<path d="M171.505,12.017c0,2.992-2.785-0.136-1.57-1.22C170.675,10.136,171.429,12.054,171.505,12.017" id="path11"></path>

<path d="M139.198,13.363c-0.801,1.301-1.354,0.582-0.425-1.275C138.633,12.61,138.774,13.036,139.198,13.363" id="path13"></path>

<path d="M178.659,26.47c3.474,3.01,3.101,7.897,5.867,11.354c1.76,2.199,1.736,8.191,2.001,10.866  c1.068,10.792-1.059,20.249-6.782,29.449c-1.637,2.631-4.254,6.693-7.237,7.432c-1.786,0.446-2.888,2.718-4.789,3.471  c-1.893,0.749-3.027,2.539-5.089,2.951c-0.917,0.185-2.495,2.653-3.27,3.243c-1.745,1.33-3.682,2.41-5.285,3.923  c-3.132,2.956-3.4,7.52-3.4,11.548c0-2.64-2.551-0.634-2.551,1.275c-2.368-1.014-5.594-4.665-6.077-7.284  c-0.191-1.042,2.425-2.255,1.523-3.037c-0.911-0.79-2.79-0.679-3.522-0.731c0.425-0.85,0.85-1.7,1.274-2.55  c0.701,1.958,4.732,0.48,2.977-1.275c1.048-0.521,1.044,0.121,2.133-1.13c0.585-0.013,1.167-0.058,1.749-0.135  c1.812-0.61,0.235-2.011-0.056-2.986c-1.411,1.411-3.476,1.721-4.676,3.401c-1.005-1.004,2.803-3.542,3.613-3.968  c2.808-1.478,1.589,0.115,3.896,0.45c2.411,0.35,2.799-3.284,5.317-3.284c0.689-0.035,1.22,0.204,1.591,0.716  c0.168,0.226,3.244-2.272,3.437-2.416c0,3.126,4.527,0.167,1.7-1.275c1.599-1,3.366,0.61,4.784-0.49  c1.383-1.072-0.415-1.671,0.958-3.002c0.701-0.679,6.794,1.144,3.185-2.458c3.105-1.814,4.063-5.244,5.951-8.077  c-0.558,1.003,1.813,0.988,2.232,0.708c1.714-1.146-0.983-2.807-1.808-1.984c-0.077-0.503,0.425-1.157,0.425-1.7  c0.766,0.759,2.21,2.33,2.905,0.354c0.761-2.166-2.039-1.762-2.054-1.842c0-0.974,0.989-2.947,0.85-3.613  c2.338,3.546,1.32,1.121,2.341-1.031c1.051-2.216-3.749-3.8-1.535-6.566c0.492-0.615,0.044-1.979,0.044-2.683  c0-1.612,0.62-0.535,1.027-1.339c0.475-0.95-1.744-8.611-2.302-10.061c0.974,1.818,2.749-0.154,1.948-1.767  c-0.832-1.679-1.711-1.994-2.8-3.334c0.739,1.21,2.776-0.453,0.64-1.523c-3.12-1.557-0.933-2.163,0.212-3.577  c-1.344-1.093-1.323-1.656-2.55-0.425c-0.446-0.696-0.872-1.405-1.277-2.126c2.185,0,1.135-2.125-0.424-2.125  c4.682,0.553-4.237-5.545-0.852-0.425c-2.327-0.932-3.471-3.387-5.738-4.327c-1.704-0.706-1.113-2.066-2.689-2.456  c-1.255-0.311-1.24,1.032-2.282,0.641c-1.445-0.543-2.201-4.511-2.761-5.783c-0.43-0.977-1.424-0.542-1.946,0.057  c-0.754,0.864,0.572,1.517,0.916,2.253c1.096,2.354-3.292,1.175-3.988,0.972c-1.74-0.506-3.498-0.994-5.314-1.134  c0.323-0.913-0.896-2.196-1.768-2.196c-2.455,0-0.067,3.577-2.458,2.449c-1.721-0.812-6.512-0.892-3,1.447  c-1.264,0.044-1.935,2.242-2.977,0.425c-1.351,2.031-2.064-0.429-2.975,0.851c1.386-1.387,2.593-3.15,4.435-3.987  c2.213-1.005,2.628,0.311,4.529,0.25c1.478-0.048,0.127-2.367,1.289-2.652c2.944-0.722,5.625-1.345,8.678-1.185  c5.278,0.277,10.005,2.221,14.285,5.251C174.249,20.47,175.879,24.363,178.659,26.47" id="path15" style="fill:#409F40;"></path>

<path d="M156.2,16.268c0.19,1.086-1.541,1.272-1.69,0.382C154.324,15.543,155.823,16.074,156.2,16.268" id="path17"></path>

<path d="M131.9,16.764c-0.114,1.65-0.486,2.29-1.63,0C130.813,16.764,131.356,16.764,131.9,16.764" id="path19"></path>

<path d="M135.3,17.614c-0.332,0.961-1.701,2.198-1.7,0.213C133.602,16.575,135.063,16.558,135.3,17.614" id="path21"></path>

<path d="M186.806,19.314C186.806,21.829,183.42,19.782,186.806,19.314" id="path23"></path>

<path d="M181.706,19.668c0,1.395-0.357,2.334-1.7,0.992C178.177,18.831,181.488,19.733,181.706,19.668" id="path25"></path>

<path d="M169.308,22.715c-1.054-0.372-0.896-1.736-0.277-2.347C169.805,19.605,171.325,21.865,169.308,22.715" id="path27"></path>

<path d="M128.996,21.369C128.996,24.736,125.772,19.681,128.996,21.369" id="path29"></path>

<path d="M136.15,22.715c0.307,0.284,0.614,0.567,0.921,0.851c-0.85,0.85-1.7,1.7-2.55,2.55  c-1.485-2.227,0.96-3.967,2.55-5.101C136.637,21.514,136.33,22.081,136.15,22.715" id="path31" style="fill:#409F40;"></path>

<path d="M173.204,22.715c-1.498-0.206-1.699,0.481-1.699-1.7C172.355,21.298,172.922,21.864,173.204,22.715" id="path33"></path>

<path d="M184.257,23.069c-0.142-0.26-0.284-0.52-0.426-0.779C184.152,22.611,184.257,22.867,184.257,23.069" id="path35"></path>

<path d="M125.098,26.966c0,0.393,0.247,2.793-0.779,1.771C121.611,26.039,125.074,27.232,125.098,26.966" id="path37"></path>

<path d="M133.601,26.47c-0.05,0.595-1.872,3.199-2.48,3.046C131.188,29.105,133.216,24.727,133.601,26.47" id="path39" style="fill:#409F40;"></path>

<path d="M186.806,26.966c0.117,1.261-2.124,3.503-2.124,1.769C184.682,27.918,185.922,24.883,186.806,26.966" id="path41"></path>

<path d="M224.214,29.871c-0.466,1.62,1.131,1.715,1.275,3.046c3.221-1.61,4.695-5.371,8.38-1.358  c3.676,4.003-0.072,7.743-2.854,11.135c8.788,2.21-0.433,9.777-5.589,9.777c-2.64,0-4.118-1.338-5.463-3.4  c-3.111,1.777-5.279,1.45-7.762-1.871c-2.307-3.086,2.304-6.631,4.925-6.631c0.898,0-1.69-5.236-1.801-6.437  c-0.272-2.963,0.07-4.779,2.736-6.215C220.693,26.499,223.242,30.264,224.214,29.871" id="path43"></path>

<path d="M283.727,31.217c-0.69-0.763-3.435-2.645-1.346-3.543C284.322,26.835,283.727,30.082,283.727,31.217" id="path45"></path>

<path d="M223.363,34.121c0.232,2.767-0.512,4.663-2.55,6.447c-1.696-2.072-4.728-7.057-2.624-9.758  C221.1,27.073,222.137,33.911,223.363,34.121" id="path47" style="fill:#FFFFFF;"></path>

<path d="M128.5,33.767c0.073-0.571-0.187-0.854-0.779-0.85c0.983-0.671,1.215-1.935,2.55-2.125  C130.184,31.727,129.009,33.134,128.5,33.767" id="path49" style="fill:#409F40;"></path>

<path d="M273.524,32.421c0.238,1.371-1.699,1.018-2.196,0.354C270.335,31.448,273.524,30.535,273.524,32.421" id="path51"></path>

<path d="M233.071,34.618c0,2.05-1.403,3.669-2.765,5.03c-1.71,1.709-2.54-0.997-4.817-0.354  c1.384-1.902,1.213-5.752,3.717-6.666C229.696,32.449,233.892,33.201,233.071,34.618" id="path53" style="fill:#FFFFFF;"></path>

<path d="M294.778,36.318c0,0.812,0.179,2.184-0.851,2.55c-0.067-0.706-1.718-2.739-0.461-3.301  C293.85,35.906,294.286,36.157,294.778,36.318" id="path55"></path>

<path d="M127.649,36.318c-2.618,7.049-4.121,14.618-2.219,22.044c1.645,6.42,3.991,10.972,7.39,16.639  c-6.536-6.332-8.878-14.409-9.463-23.365c-0.256-3.913,0.206-5.897,1.226-9.477c0.514-1.807,0.584-3.716,1.132-5.519  C125.95,35.867,127.558,35.86,127.649,36.318" id="path57" style="fill:#409F40;"></path>

<path d="M266.226,42.623c-0.313,1.634-2.32,0.964-2.124-0.638C264.424,39.352,265.782,42.267,266.226,42.623" id="path59"></path>

<path d="M241.218,43.969c0,1.316-1.642,3.114-2.622,1.134C237.811,43.518,240.623,42.28,241.218,43.969" id="path61"></path>

<path d="M223.363,49.07c-2.43,0.289-2.262-3.542-1.148-4.66C224.291,42.327,223.35,48.96,223.363,49.07" id="path63" style="fill:#FFFFFF;"></path>

<path d="M229.315,44.323c0.21,0.847,0.139,4.627-0.709,4.747c-1.765,0.248,0.687-3.847-0.141-4.676  C228.757,44.446,229.04,44.422,229.315,44.323" id="path65" style="fill:#FFFFFF;"></path>

<path d="M183.405,47.37c-0.425,0.283-0.851,0.566-1.275,0.85C181.493,45.036,182.292,45.802,183.405,47.37" id="path67"></path>

<path d="M256.023,46.024c0.072,0.961-1.532,3.911-2.407,1.983C252.954,46.548,255.599,45.067,256.023,46.024" id="path69"></path>

<path d="M192.262,46.874C192.509,52.347,189.28,43.901,192.262,46.874" id="path71"></path>

<path d="M248.869,48.574c-1.344,0.673-2.27,6.742-3.572,1.997C243.929,45.576,248.991,48.466,248.869,48.574" id="path73"></path>

<path d="M299.029,49.424c-0.426,0.449-0.851,0.897-1.276,1.346c-0.068-0.095-1.315-3.618,0.157-2.846  C298.192,48.073,298.973,49.42,299.029,49.424" id="path75"></path>

<path d="M240.367,51.621C238.238,56.038,236.341,50.816,240.367,51.621" id="path77"></path>

<path d="M270.478,58.776c-1.89,0.813-1.218-1.677-2.055-2.479C268.821,56.695,269.979,58.424,270.478,58.776" id="path79" style="fill:#409F40;"></path>

<path d="M273.027,58.776c-0.543-0.826-1.086-1.653-1.629-2.479C274.453,56.297,271.799,58.046,273.027,58.776  " id="path81" style="fill:#409F40;"></path>

<path d="M276.429,56.226c-0.93,1.226,1.273,2.262,0.071,3.472c-0.35-0.518-1.271-0.212-1.31-0.658  c-0.079-0.89-0.013-1.635-0.392-2.743C274.479,56.297,276.491,56.322,276.429,56.226" id="path83" style="fill:#409F40;"></path>

<path d="M183.759,57.926c-0.475,2.406-1.818-0.028-1.993-0.907C181.466,55.516,184.548,57.916,183.759,57.926" id="path85"></path>

<path d="M279.829,59.272c0.023,0.567,0.048,1.133,0.071,1.7c-0.355-0.35-0.781-0.491-1.276-0.425  c1.222-1.71-0.888-2.358-1.273-3.826C278.185,56.514,280.325,58.542,279.829,59.272" id="path87" style="fill:#409F40;"></path>

<path d="M267.077,57.572c0.347,1.219-1.33,3.087-2.409,1.842C262.57,56.99,267.084,57.566,267.077,57.572" id="path89" style="fill:#409F40;"></path>

<path d="M246.672,58.776c0.629,1.769-0.872,2.197-2.054,2.197c0.393-0.961-0.271-1.811,0.441-2.761  C245.335,57.845,246.685,58.89,246.672,58.776" id="path91"></path>

<path d="M283.229,62.177c-2.806-0.104-0.715-1.815-2.055-4.18C282.87,58.419,284.253,62.402,283.229,62.177" id="path93" style="fill:#409F40;"></path>

<path d="M263.321,61.327c-1.493,2.545-3.206-1.159-2.333-2.342C262.451,57.001,262.825,61.273,263.321,61.327  " id="path95" style="fill:#409F40;"></path>

<path d="M238.667,60.973c-1.05-0.073-2.744,1.044-2.145-1.344C236.992,57.769,238.962,59.641,238.667,60.973" id="path97"></path>

<path d="M259.921,62.673c-1.835-0.55-2.301-1.016-1.274-2.55C259.071,60.973,259.496,61.823,259.921,62.673" id="path99" style="fill:#409F40;"></path>

<path d="M285.779,64.728c-0.214,0.271-0.331,0.577-0.354,0.92c-2.933-1.712,1.159-2.97,0-5.526  C286.26,60.719,286.382,64.941,285.779,64.728" id="path101" style="fill:#409F40;"></path>

<path d="M300.233,61.327c0.023,0.307,0.047,0.614,0.07,0.921c-0.751-0.335-3.124,0.613-2.502-1.28  C298.574,58.61,300.339,61.35,300.233,61.327" id="path103"></path>

<path d="M290.031,62.673c-0.785,2.082-1.448,5.304-3.329,4.676c1.157-1.737,1.944-3.945,1.275-5.952  C287.94,61.386,289.827,62.461,290.031,62.673" id="path105" style="fill:#409F40;"></path>

<path d="M259.425,65.223c-0.26,0.284-0.519,0.567-0.778,0.851c-0.851-1.134-1.7-2.267-2.551-3.401  C256.446,62.744,260.121,64.286,259.425,65.223" id="path107" style="fill:#409F40;"></path>

<path d="M256.875,66.924c-0.299-1.603-2.72-0.626-2.48-2.55C254.727,64.705,256.947,66.852,256.875,66.924" id="path109" style="fill:#409F40;"></path>

<path d="M293.078,65.578c-0.91,0.78,0.368,8.591-2.77,6.43c-2.948-2.031,1.851-4.884,1.069-7.634  C292.092,64.269,292.554,65.747,293.078,65.578" id="path111" style="fill:#409F40;"></path>

<path d="M255.175,68.979c-0.968-0.118-1.937-0.236-2.904-0.354C253.699,65.764,253.676,67.827,255.175,68.979  " id="path113" style="fill:#409F40;"></path>

<path d="M295.628,72.875c-0.351,0.429-1.923,3.995-2.888,2.165c-0.629-1.193,2.459-4.293,2.038-6.416  C295.772,69.808,296.449,71.378,295.628,72.875" id="path115" style="fill:#409F40;"></path>

<path d="M193.112,72.875c-0.917,0-1.052-0.959-0.131-1.263C193.407,71.471,193.227,72.787,193.112,72.875" id="path117" style="fill:#409F40;"></path>

<path d="M338.49,71.529c0.073,0.18,0.069,1.63-0.46,1.275C337.171,72.228,338.499,71.952,338.49,71.529" id="path119" style="fill:#409F40;"></path>

<path d="M248.373,72.025c-0.237,0.547-0.179,4.15-0.539,4.256c-0.712,0.21-1.026-3.348-1.94-4.256  c0.992,0,1.983,0,2.976,0C248.704,72.025,248.538,72.025,248.373,72.025" id="path121" style="fill:#409F40;"></path>

<path d="M252.271,72.379c-0.567,1.157-1.134,2.314-1.701,3.472c0.519-0.773-0.462-2.43-0.746-3.138  C249.533,71.985,252.021,72.693,252.271,72.379" id="path123" style="fill:#409F40;"></path>

<path d="M241.218,77.126c-0.225-1.539-0.678-3.04-1.701-4.25C241.855,72.093,241.218,75.767,241.218,77.126" id="path125" style="fill:#409F40;"></path>

<path d="M244.122,72.379c0.202,1.411,0.808,2.939,0.071,4.322c-0.426-1.417-0.851-2.833-1.276-4.25  C243.325,72.507,243.727,72.483,244.122,72.379" id="path127" style="fill:#409F40;"></path>

<path d="M255.175,72.379c0.19,1.531-0.066,4.322-2.056,4.322C253.126,76.681,254.552,71.031,255.175,72.379" id="path129" style="fill:#409F40;"></path>

<path d="M262.473,75.425c-0.42,1.285-1.648,2.072-2.552,2.976c-0.847-1.442,1.463-2.905-0.373-4.213  c-0.929-0.662-2.365,2.64-3.027,2.938c0.432-1.388,1.063-2.75,0.85-4.25C258.949,73.998,261.06,74.019,262.473,75.425" id="path131" style="fill:#409F40;"></path>

<path d="M296.833,78.826c-4.511,0,0.92-3.403,0.92-5.526C298.536,74.553,298.509,78.078,296.833,78.826" id="path133" style="fill:#409F40;"></path>

<path d="M238.171,78.826c-0.245-1.732-0.725-3.422-1.204-5.101C237.531,74.398,239.979,78.019,238.171,78.826  " id="path135" style="fill:#409F40;"></path>

<path d="M127.649,75.78c-1.642-0.118-2.044-0.661-1.205-1.629C126.038,73.719,127.949,75.886,127.649,75.78" id="path137" style="fill:#409F40;"></path>

<path d="M336.437,77.48c-1.303-0.078-0.51-2.724,0.425-2.48C336.915,74.676,336.596,77.382,336.437,77.48" id="path139" style="fill:#409F40;"></path>

<path d="M235.621,77.976c-0.401-0.85-0.804-1.7-1.205-2.55C234.494,75.503,236.603,77.222,235.621,77.976" id="path141" style="fill:#409F40;"></path>

<path d="M134.946,76.63c0.487,1.696-0.941,0.808-1.7,1.771C132.591,75.313,134.284,76.891,134.946,76.63" id="path143" style="fill:#409F40;"></path>

<path d="M178.659,77.126c-0.004,0.575-0.264,1-0.779,1.275c-0.167-0.634-1.573-1.689-0.635-2.393  C178.039,75.415,178.845,76.278,178.659,77.126" id="path145"></path>

<path d="M194.458,75.78c-2.288,0.98,0.953,4.425,1.699,5.171c-0.519,0.127-0.942-0.014-1.273-0.424  c-1.139,0.571-0.426,4.245,1.872,1.953c1.313-1.312,1.005,3.475,1.103,3.572c-2.181-1.896-3.537,2.302-1.273,2.976  c-0.764,0.591,0.24,2.265,0.869,2.516c1.073,0.43,0.9-1.028,1.502-1.028c0.013,0-1.587,3.926,2.304,2.763  c-0.35,2.159,3.701,1.178,2.806-0.838c-0.908-2.045-2.613-0.246-3.657-1.288c1.2,0.17,1.275-1.466,1.275-2.125  c2.543,4.058,5.658,7.597,4.677,12.752c-1.348-1.619-2.52,1.635-3.385,1.735c0.289-0.034-1.23,1.894-1.292,2.09  c-0.384,1.235,1.832,0.985,2.055,1.762c0.269,0.937,0.49,3.715-0.179,4.517c-1.78,2.135-2.419,0.621-4.213,0.026  c-1.787-0.593-1.13-1.687-2.907-0.208c-1.237,1.03-1.861,1.674-0.707,2.829c-5.855-1.252-9.559-3.882-11.901-9.352  c1.268,1.27,3.628,0.229,2.126-1.276c0.992,0.125,1.723,1.134,2.67,1.134c1.225,0,0.653-1.491,2.006-0.815  c2.66,1.33,2.453-4.907-0.778-2.499c-0.551,0.412-2.407-0.103-2.78-0.261c-2.523-1.069-0.532-1.671-1.117-3.297  c-0.107-0.3-1.543-1.63-1.863-1.63c-1.701,0-0.897,3.018-1.538,3.968c-1.065-5.867,0.923-11.884,4.676-16.579  c-0.459,1.404,2.454,1.422,3.107,0.792c0.815-0.787,1.013-1.437,0.145-2.303c-1.511-1.505-1.599-0.921-0.702-3.165  c2.959,2.914,3.31-1.794,1.7-3.401C191.964,76.429,193.908,76.034,194.458,75.78" id="path147" style="fill:#409F40;"></path>

<path d="M233.92,78.826c-0.276,0.992,1.102,2.125,0.071,2.976c-0.716-1.44-2.556-2.585-2.578-4.342  C231.398,76.341,234.212,77.772,233.92,78.826" id="path149" style="fill:#409F40;"></path>

<path d="M297.684,82.227c-0.788-0.944,1.972-3.418,2.62-4.251C300.108,79.35,299.138,81.698,297.684,82.227" id="path151" style="fill:#409F40;"></path>

<path d="M231.37,82.581c0.023,0.449,0.048,0.897,0.071,1.346c-0.903-1.577-1.372-3.604-2.976-4.676  C231.524,78.567,230.136,81.841,231.37,82.581" id="path153" style="fill:#409F40;"></path>

<path d="M267.077,80.03c-1.465-0.42-1.938,1.139-2.905,1.771c0.222-0.535-0.638-2.55,0.493-2.55  C268.643,79.251,266.012,79.761,267.077,80.03" id="path155" style="fill:#409F40;"></path>

<path d="M334.736,79.676c0.069,0.739-0.214,1.306-0.852,1.7c0-0.387-0.361-2,0.143-2.196  C334.33,79.249,334.566,79.414,334.736,79.676" id="path157" style="fill:#409F40;"></path>

<path d="M331.689,81.731c-0.26-0.26-0.52-0.52-0.779-0.78c0.246-0.329,0.551-0.592,0.912-0.787  C332.587,80.007,331.844,81.697,331.689,81.731" id="path159" style="fill:#409F40;"></path>

<path d="M174.903,82.227c-0.679,0.679-0.763,0-1.699,0C174.489,80.513,175.756,80.594,174.903,82.227" id="path161"></path>

<path d="M301.935,83.927c-0.141,0.332-1.347,1.548-1.701,0.648c-0.461-1.169,0.995-3.029,1.346-4.049  C302.717,80.922,302.964,83.29,301.935,83.927" id="path163" style="fill:#409F40;"></path>

<path d="M228.466,83.077c-0.914,0.05-1.136-1.2-2.126-0.85C227.531,80.438,227.832,81.326,228.466,83.077" id="path165" style="fill:#409F40;"></path>

<path d="M251.419,83.077c-1.285,0.271-2.698-0.303-3.824-0.85c1.437-0.294,2.728-1.067,4.25-0.851  C251.703,81.943,251.561,82.51,251.419,83.077" id="path167" style="fill:#409F40;"></path>

<path d="M270.478,83.077C264.028,86.758,267.201,79.235,270.478,83.077" id="path169" style="fill:#409F40;"></path>

<path d="M329.989,82.227c0.23-0.101-1.2,5.409-2.091,2.727C327.057,82.412,330.09,82.696,329.989,82.227" id="path171" style="fill:#409F40;"></path>

<path d="M227.969,85.982c0.023,0.307,0.047,0.614,0.07,0.921c-1.133-1.133-2.267-2.267-3.399-3.4  C226.214,84.173,226.79,85.07,227.969,85.982" id="path173" style="fill:#409F40;"></path>

<path d="M306.68,84.281c0.17,1.313-3.258,4.314-3.258,2.218c0-0.863,0.919-1.462,1.046-2.324  C304.725,82.419,305.887,84.454,306.68,84.281" id="path175" style="fill:#409F40;"></path>

<path d="M248.869,85.131c0.662-0.553,0.816,0.071,1.7,0.071c-1.947,0.278-2.747,1.105-3.401-0.851  C246.954,84.255,248.851,85.133,248.869,85.131" id="path177" style="fill:#409F40;"></path>

<path d="M325.738,84.281c0.377,0.91-0.253,2.095-0.779,2.622C323.578,85.664,325.425,83.736,325.738,84.281" id="path179" style="fill:#409F40;"></path>

<path d="M310.081,85.628c0,2.061-0.435,2.55-2.55,2.55C308.001,85.814,308.486,85.849,310.081,85.628" id="path181" style="fill:#409F40;"></path>

<path d="M226.269,88.532c-0.955-0.415-5.239-1.368-2.939-2.905C224.792,84.649,225.648,87.976,226.269,88.532  " id="path183" style="fill:#409F40;"></path>

<path d="M271.824,86.478c-1.12-0.328-3.568,2.511-4.122,0.473C267.117,84.8,271.021,86.371,271.824,86.478" id="path185" style="fill:#409F40;"></path>

<path d="M313.837,85.982c-0.235,1.14-2.2,4.204-1.665,1.51C312.224,87.229,313.215,84.921,313.837,85.982" id="path187" style="fill:#409F40;"></path>

<path d="M317.733,86.832c-0.283,0.449-0.567,0.897-0.851,1.346C313.827,86.362,318.17,86.497,317.733,86.832" id="path189" style="fill:#409F40;"></path>

<path d="M322.338,85.982c-0.359,0.709-1.523,3.976-2.424,1.17C319.386,85.504,322.146,85.663,322.338,85.982" id="path191" style="fill:#409F40;"></path>

<path d="M189.357,88.532c-0.248,0.534-0.601,0.622-1.06,0.265c-1.162-0.12-1.234-0.894-0.215-2.32  C188.05,86.326,189.667,88.79,189.357,88.532" id="path193"></path>

<path d="M201.26,87.683c-1.284-1.161-1.802,0.788-2.976,0.92c0-0.222-0.208-1.771,0.143-1.771  C198.539,86.832,201.438,87.615,201.26,87.683" id="path195" style="fill:#409F40;"></path>

<path d="M251.419,87.328c0.406,3.224,0.994,4.25-2.976,4.25c0.666-0.046,4.837-0.516,3.188-2.338  c-1.078-1.192-3.727,0.1-5.313-1.488C248.064,87.505,249.679,87.982,251.419,87.328" id="path197" style="fill:#409F40;"></path>

<path d="M225.419,90.728c0.24,0.773,0.122,1.482-0.354,2.126c-0.239-2.415-3.275-2.061-3.827-4.251  C221.726,88.772,225.845,89.536,225.419,90.728" id="path199" style="fill:#409F40;"></path>

<path d="M272.177,89.028c0,1.83-2.911,2.777-3.754,0.85C269.504,89.741,271.136,89.338,272.177,89.028" id="path201" style="fill:#409F40;"></path>

<path d="M186.806,90.728c0.268,0.787,0.022,1.34-0.736,1.662c-1.205,0.19-1.385,0.841-0.539,1.952  c0.043,0.807-0.159,1.417-1.148,1.437c-1.48,0.029-1.251-2.142-0.454-2.75c1.756-1.342,0.905-1.93,1.256-3.564  C185.403,88.438,186.854,90.776,186.806,90.728" id="path203"></path>

<path d="M222.868,93.633c-0.889-0.556-1.857-0.816-2.904-0.779C221.013,90.31,222.47,93.44,222.868,93.633" id="path205" style="fill:#409F40;"></path>

<path d="M155.704,92.429C155.704,95.483,152.294,92.429,155.704,92.429" id="path207"></path>

<path d="M271.824,94.483c-1.095-0.177-1.789-1.323-2.976-1.204C269.69,89.534,273.112,94.805,271.824,94.483" id="path209" style="fill:#409F40;"></path>

<path d="M248.373,93.633c0.156-0.111,2.372-0.514,2.524-0.396c-0.382-0.296-3.303,4.324-3.303,0.042  C247.796,93.571,248.056,93.688,248.373,93.633" id="path211" style="fill:#409F40;"></path>

<path d="M253.474,94.483c-0.405,1.117,0.187-0.961,0.071-1.204C253.602,93.687,253.578,94.088,253.474,94.483  " id="path213" style="fill:#409F40;"></path>

<path d="M222.515,97.53c0.218,1.583-3.455-0.964-4.252-0.85C219.061,93.742,222.008,95.266,222.515,97.53" id="path215" style="fill:#409F40;"></path>

<path d="M270.974,96.184c-0.143,0.874-0.284,1.748-0.427,2.621c-0.85-1.133-1.7-2.267-2.55-3.4  C269.173,95.066,269.88,96.366,270.974,96.184" id="path217" style="fill:#409F40;"></path>

<path d="M204.164,97.884c-1.78-0.062,0.195,1.284-0.567,1.91c-0.879,0.722-3.031,1.943-2.357-0.763  c0.26-1.042,1.36-3.254,2.727-3.275C204.768,95.743,204.056,97.848,204.164,97.884" id="path219"></path>

<path d="M255.175,96.184c-0.771,1.232-1.864,3.897-3.672,3.897c-0.839,0-0.819-0.921-0.011-0.921  C253.292,99.159,254.366,95.366,255.175,96.184" id="path221" style="fill:#409F40;"></path>

<path d="M172.708,98.38c-0.336,1.671-5.325,1.994-1.203-2.125C171.719,96.686,173.558,97.707,172.708,98.38" id="path223"></path>

<path d="M250.569,96.68c0.189-0.34,0.473-0.481,0.85-0.425c-0.371,0.248-1.999,2.493-2.479,1.275  C248.505,96.427,250.332,96.135,250.569,96.68" id="path225" style="fill:#409F40;"></path>

<path d="M258.222,102.631c-0.284,0.283-0.567,0.567-0.852,0.85c0.502-1.996,1.034-4.624-0.424-6.376  C259.308,97.893,258.67,100.837,258.222,102.631" id="path227" style="fill:#409F40;"></path>

<path d="M220.813,100.081c0,0.567,0,1.133,0,1.7c-0.493-1.74-2.382-1.7-3.826-1.7  C217.127,97.569,220.08,99.592,220.813,100.081" id="path229" style="fill:#409F40;"></path>

<path d="M267.573,98.734c0.283,0.449,0.566,0.897,0.85,1.346C268.144,99.661,267.729,99.203,267.573,98.734" id="path231" style="fill:#409F40;"></path>

<path d="M159.601,100.081c-1.695-0.259-1.008,1.917-0.849,2.55c-0.705-1.674-3.612-0.695-3.403,0.975  c0.17,0.445,0.442,0.805,0.816,1.081c1.04,0.639-0.69,1.261,0.885,2.195c-3.331,0.667-1.581,3.191-1.701,5.101  c-2.805-1.567,0-5.521,0-7.616c0-1.749,0.226-2.748,1.56-3.861C157.611,99.92,159.601,97.916,159.601,100.081" id="path233" style="fill:#409F40;"></path>

<path d="M262.827,100.435c-0.116,1.141-0.781,2.751-2.056,3.046c0.048-0.481,0.008-4.234,0.719-4.334  C262.455,99.009,262.228,100.243,262.827,100.435" id="path235" style="fill:#409F40;"></path>

<path d="M266.226,101.781c-0.456,0.242-0.914,0.479-1.375,0.71c-0.1-0.046-0.373-3.053-0.252-3.261  C265.22,99.546,266.453,100.977,266.226,101.781" id="path237" style="fill:#409F40;"></path>

<path d="M146.849,100.435c-0.592,0.963-1.235,2.225-1.731,0.618C144.327,98.49,146.141,100.53,146.849,100.435" id="path239"></path>

<path d="M255.669,100.081c-1.925,0.823,1.207,1.7-1.698,1.7C254.218,100.808,255.441,100.91,255.669,100.081" id="path241" style="fill:#409F40;"></path>

<path d="M173.559,102.631c-0.476,0.535-1.043,0.658-1.703,0.37c-0.925-0.69,0.307-1.433,0.498-2.071  C172.618,101.242,174.428,101.938,173.559,102.631" id="path243"></path>

<path d="M184.257,103.481c-0.284,0.283-0.567,0.567-0.852,0.85c-0.283-0.992-0.566-1.984-0.85-2.976  C183.271,101.943,183.839,102.652,184.257,103.481" id="path245" style="fill:#409F40;"></path>

<path d="M219.468,103.835c-1.461-0.213-2.69-1.162-4.182-0.354c0-1.086,2.355-2.125,3.198-1.479  C219.133,102.5,219.024,103.269,219.468,103.835" id="path247" style="fill:#409F40;"></path>

<path d="M118.793,108.583c3.425,1.363-0.706-5.943-0.85-6.377c4.235,0,2.489,2.024,4.321,4.783  c0.588,0.885,1.34,1.193,2.035,0.242c1.153-1.578-0.177-2.759-0.83-4.174c3.458,0.289,3.312,5.951,6.161,5.951  c4.394,0-2.845-4.251,0.043-4.251c1.598,0,2.258,2.485,2.937,3.5c1.396,2.087,2.719,0.037,3.788,0.894  c0.653,0.522,2.15,3.18,3.312,2.254c0.836-0.667,0.339-3.047-0.938-2.821c0.82-2.118,3.221,2.687,3.4,2.975  c-2.198-0.11-4.273,0.428-6.251,1.357c-2.233,1.05-5.398,1.318-7.358,2.687c-2.164,1.512-4.81,2.066-6.884,3.529  c-2.208,1.558-4.277,3.309-6.502,4.841c-4.914,3.386-9.926,5.401-14.099,9.983c-4.083,4.484-8.193,9.153-11.937,13.925  c-7.485,9.542-15.037,19.176-19.582,30.54c-2.438,6.099-4.239,12.205-6.125,18.479c-0.937,3.116-1.813,6.252-2.276,9.479  c-0.39,2.725,0.212,5.625-0.379,8.281c-1.37,6.151-1.792,12.423-1.886,18.712c-0.082,5.478-0.794,12.357-0.021,17.548  c1.831,12.3,1.715,24.939,4.5,37.074c2.264,9.865,4.297,20.378,8.546,29.731c0.844,1.858,2.911,3.678,3.515,5.523  c0.369,1.127-2.035,4.026-2.818,2.421c-0.315-0.646-0.476-6.083-2.708-2.775c-1.298,1.922-2.284,0.489-4.251-0.496  c0.81-0.454,0.03-4.28-2.976-1.274c-0.707-0.781-1.557-1.348-2.55-1.7c0.966-0.788-0.574-2.337-1.021-1.98  c-1.917,1.526-2.833,0.258-4.505-0.996c1.659-0.091,2.06-3.688-0.284-3.4c-2.057,0.253-1.695,3.12-4.392,0.426  c0.726-0.402,3.15-3.206,1.205-3.827c-2.231-0.709-1.423,1.49-2.572,1.72c-1.807,0.359-2.246-1.059-2.246-2.358  c0-3.216-2.862-0.7-4.038-2.761c0.793-0.291,1.819-1.269,2.027-2.104c0.439-1.764-3.832-0.553-4.426-0.606  c-4.276-0.383,0.041-4.125-1.002-6.217c-3.71,2.317-3.311,2.244-5.952-1.273c1.328,0.28,2.579-2.018,1.992-3.18  c-0.65-1.285-3.637,2.422-4.934,0.258c-1.212-2.022,1.783-3.866,0.019-5.119c-1.926-1.383-2.101,2.786-4.302-0.887  c1.835,0.513,2.746-3.639,0.916-3.342c-1.38,0.225-2.812,1.459-3.714-0.166c-0.32-0.575,1.422-2.103,1.477-2.871  c0.063-0.889-8.29-1.531-2.669-3.549c0.873-0.313,3.459-1.957,1.562-2.721c-1.615-0.649-2.828,1.348-3.59,1.125  c-2.514-0.736-4.169-4.066-0.873-4.646c4.037-0.71,0.952-3.991-2.049-1.587c-1.022,0.817-2.192-0.928-1.61-1.779  c0.772-1.129,3.076,0.393,3.354-1.656c0.44-3.236-4.382,0.932-5.455-1.657c-0.01-0.024,4.262-0.402,3.603-3.009  c-0.63-2.497-3.504,1.539-4.466-0.128c-0.819-1.419-1.109-1.954,0.68-2.403c2.367-0.597,2.873-3.902,0.296-3.139  c-1.723,0.511-2.288,2.531-3.591,0.11c-0.264-0.492-0.057-4.144,0.474-3.334c0.644,0.979,2.126-1.062,1.299-2.169  c-0.74-0.991-2.512-0.28-3.511-0.88c-0.396-0.237-0.857-2.138,0.016-2.158c0.953-0.021,3.419,1.614,4.024-0.487  c0.53-1.844-4.704-2.954-5.299-1.638c0-3.277,0.669-0.58,2.83-1.663c1.323-0.663,2.144-2.145,0.448-3.101  c-1.212-0.685-3.267,1.09-4.102,0.256c-0.449-0.449-1.058-3.177-0.067-3.305c1.594-0.206,6.796,1.606,4.382-1.868  c-0.717-1.032-2.742-0.515-3.828-0.44c-1.652,0.112-1.822-2.728-2.215-3.907c1.355,0,5.778,0.832,5.526-1.417  c-0.311-2.778-3.905-0.902-5.526-1.133c0.443-0.751-1.112-2.66,0.115-2.898c0.829-0.16,2.764,0.539,3.453,0.204  c4.687-2.279-2.007-3.976-3.993-1.981c-0.524-1.545-0.425-3.648-0.425-5.103c1.17,1.721,4.952-0.27,3.826-2.125  c-0.837-1.38-3.149,0.113-3.979-1.318c-1.022-1.761,1.557-3.1,2.278-1.657c0.195-1.515,1.887-3.364-1.098-2.94  c-2.287,0.325-1.027-2.188-1.027-3.436c3.362,1.677,4.778,1.098,3.826-2.126c-3.518,2.192-2.976-2.173-2.976-3.826  c1.328,0.501,2.714,1.724,4.204,1.061c0.757-0.337,0.165-1.155,0.897-1.484c-1.136-1.592-3.216-0.846-4.13-2.71  c-0.35-0.712-0.077-1.194-0.154-2.405c-0.066-1.032,7.083,0.638,4.659-1.749c-1.127-1.11-1.604-1.604-3.184-1.277  c-1.094,0.226-0.058-2.527-0.166-2.911c1.021,2.549,5.784-2.904,1.099-2.904c-0.102,0,0.604-2.19,0.602-2.197  c1.026-0.291,1.935,0.609,2.953,0.377c2.604-0.594-0.473-2.927-1.678-2.927c0.579-1.34-0.094-5.259,2.569-3.923  c0.876,0.439,2.957,3.108,4.035,1.725c1.286-1.65-0.166-2.003-1.502-2.62c-0.376-0.174-3.079-1.433-2.875-2.112  c0.182-0.61,0.88-1.654,1.529-1.358c3.652,1.669,3.976-2.764,0.921-2.764c1.038-3.633,0.392-2.076,3.614-2.196  c2.589-0.097-1.185-3.646-0.459-5.048c1.969-3.808,2.968,2.873,5.347,1.293c2.944-1.956-3.119-4.041-2.72-5.504  c0.7-2.571,1.452-0.272,3.286-0.523c0.338-0.046,1.489-0.914,0.933-1.36c-2.363-1.893-1.962-1.436-0.901-4.266  c0.95-2.539,3.907,3.08,5.233,0.278c0.6-1.267-1.978-3.274-2.855-3.078c0.995-0.632,1.759-5.031,3.862-2.506  c1.176,1.409,5.166,1.977,3.404-0.37c-1.102-1.467-4.599-2.02-2.59-4.351c0.998-1.157,1.059-0.64,1.984,0.284  c1.624,1.621,3.392,0.554,2.621-1.771c-0.38-1.146-3.057-0.596-1.201-2.574c1.549-1.651,3.274,0.915,4.814-0.048  c2.576-1.61-2.132-2.652-1.815-3.159c2.428-3.891,4.25,2.156,6.881,1.281c2.044-0.677-3.317-4.347-2.657-5.49  c2.422-4.19,3.506,2.368,5.823-0.278c1.002-1.147-1.781-2.677-1.938-3.614c-0.139-0.839,2.37-2.382,2.492-2.484  c0.569,0.779,0.874,2.787,2.302,1.842c1.57-1.04,0.252-2.264-0.602-3.118c1.354-1.354,1.826-2.841,3.253-0.832  c0.516,0.725,2.653,2.583,3.478,0.903c1.191-2.42-5.486-3.237-0.28-4.606c3.096-0.814,2.892,4.076,5.217,3.639  c2.683-0.504-1.346-5.055-2.316-5.055c2.59-5.687,4.563,0.321,7.084,1.842c1.334,0.806,2.121-1.182,1.383-2.215  c-0.914-1.282-1.924-2.547-3.367-3.027c2.697-2.158,4.676-2.699,7.458-0.631c1.753,1.303,1.821-2.924-0.656-2.77  c3.058-2.441,3.628-1.782,5.67,0.565c1.651,1.897,2.73-1.517,1.132-3.116c3.605-0.901,4.428,0.177,6.675,2.424  c1.194,1.194,2.035,0.347,2.449-0.889c0.487-1.455-1.962-2.181-2.748-2.811c1.02-0.872,2.241-1.573,3.543-1.912  c1.677-0.437,1.086,0.546,1.733,1.841c0.929,1.855,3.896,4.926,5.775,3.046c-2.004-1.5-2.468-3.976-4.251-5.526  c1.72,0,4.642-0.995,5.888,0.779c0.942,1.341,0.673,2.875,2.585,3.517c1.729,0.58,1.626-1.041,0.906-1.941  c-1.373-1.719-1.144-2.063-3.428-3.205c5.014-1.439,5.342-0.841,8.231,3.192c0.55,0.769,2.798,3.096,3.228,0.938  c0.433-2.162-2.171-2.813-2.498-4.768c-0.101-0.61,2.853-1.126,3.364-0.771c0.748,0.521,0.996,3.323,1.931,4.258  c3.214,3.214,2.041-3.206-0.654-4.55C114.99,101.047,116.33,104.146,118.793,108.583" id="path249" style="fill:#FFA300;"></path>

<path d="M171.007,103.481c0,0.816,0.1,2.435-1.253,1.625C167.221,103.59,170.995,102.443,171.007,103.481" id="path251"></path>

<path d="M205.511,107.732c-1.429,0.197-0.256-3.509,0.85-3.826  C206.652,105.308,205.679,106.406,205.511,107.732" id="path253" style="fill:#409F40;"></path>

<path d="M218.617,106.032c-1.703,0.485-3.518,0.69-5.029,1.7  C213.535,104.976,218.838,104.927,218.617,106.032" id="path255" style="fill:#409F40;"></path>

<path d="M135.3,107.732c-0.543-0.708-1.086-1.417-1.629-2.125C133.971,105.906,135.801,107.356,135.3,107.732  " id="path257" style="fill:#FF8000;"></path>

<path d="M148.053,105.535c0.583,1.368-2.517,3.646-3.011,2.162C144.487,106.041,147.627,104.699,148.053,105.535" id="path259"></path>

<path d="M190.208,106.386c0.142,0.732,0.283,1.464,0.425,2.197c-1.241-0.351-3.188,0.72-3.188-1.495  C187.444,104.414,190.133,106.463,190.208,106.386" id="path261"></path>

<path d="M173.204,107.236c-0.729,3.539-2.098-1.75-1.699-1.205C172.779,105.576,172.362,107.245,173.204,107.236" id="path263"></path>

<path d="M169.804,108.583c-0.545,0.554-1.159,0.648-1.843,0.283c-0.754-0.755,0.453-1.293,0.565-1.983  C168.91,107.332,170.497,107.638,169.804,108.583" id="path265"></path>

<path d="M227.12,110.283c1.625,1.539,2.528,1.344,2.57-1.141c0.036-2.136,3.026-2.076,3.026-1.729  c0,0.861-1.648,1.222-0.701,2.169c1.427,1.422,1.819,0.868,2.703-0.943c2.129-4.364,2.418,2.486,4.187,0.969  c0.502-0.431,1.32-1.956,2.015-1.908c1.695,0.117,0.52,3.007,2.192,3.007c1.322,0,1.371-1.385,2.354-1.876  c1.159-0.58,0.788,0.34,1.702,0.176c-0.52,1.038-0.893,4.832,0.991,2.692c1.451-1.645,1.856-3.889,4.111-1.842  c-0.68,0.509-2.88,4.943-0.707,3.86c2.242-1.115,1.763-2.852,4.532-2.16c-2.75,0.754-1.044,4.868,1.699,2.125  c-0.902,2.28,3.802,2.149,3.401,0c1.871,0.235,0.637,2.407,1.817,3.012c0.085,0.043,4.136-2.465,3.271,0.138  c-0.363,1.092-3.763,1.774-2.431,3.321c1.862,2.161,7.535-5.34,4.358,0.652c-0.838,1.579,1.618,1.811,2.556,1.194  c0.412-0.271,1.905-3.362,1.905-0.239c-0.673-0.379-1.866,3.626,1.029,1.7c1.189-0.789,1.256-1.25,2.798,0  c-0.77,0.77-2.391,2.426-0.605,3.192c1.531,0.658,1.752-2.207,3.581-1.066c-0.298,0.501-3.376,2.785-1.206,3.401  c1.749,0.496,2.358-1.027,2.905-2.126c3.943,1.986,1.345,1.657,0.179,4.585c-1.277,3.192,4.135-1.101,4.204-1.127  c0.786-0.299,2.138,0.903,1.49,1.646c-0.459,0.525-3.977,2.458-1.444,3.39c1.637,0.603,1.401-0.293,2.182-1.122  c1.715-1.821,1.604-0.644,3.167,0.281c-0.993,1.501-2.226,1.179-1.203,3.046c0.819,1.495,2.571-1.113,2.904-1.771  c0.12,0.144,0.438,7.482,1.95,4.238c2.053-4.398,1.412,4.976,3.926,2.501c1.053-1.036,0.333,2.825,2.629,2.825  c1.773,0,2.546,1.099,2.546,2.763c-1.438-0.486-2.923,1.824-2.639,2.695c0.742,2.274,2.575-0.026,3.206-0.782  c1.431-1.714,2.138,0.547,2.834,1.488c-0.8,0.458-1.503,3.401-0.213,3.401c1.275,0,1.718-2.081,3.039-0.975  c0.311,0.26-0.354,2.799-0.134,3.455c0.504,1.512,2.255-0.183,3.125,0.439c1.081,0.772-0.007,1.781-0.262,2.61  c-0.635,2.066,2.041,0.589,2.783,0.977c0.196,0.103-6.598,4.996-0.025,3.442c2.22-0.525,2.472,0.938,1.534,2.238  c-1.764,2.447,2.843,1.416,3.33,1.842c-0.395,0.474-2.377,2.312-1.896,2.789c1.419,1.407,1.819,1.114,3.171-0.238  c2.214,3.822-0.24,1.52-0.851,3.825c-0.883,3.321,2.671,0.235,3.223,1.344c1.72,3.465,0.162,1.529-1.593,3.899  c-1.225,1.658,4.119,0.804,4.738,1.525c2.355,2.748-2.71,2.176-2.064,3.558c1.867,3.996,1.831-0.47,3.422,0.338  c4.012,2.006-0.703,3.232-1.245,4.468c-0.381,0.868,5.27,0.143,4.996,3.146c-1.118-0.429-3.82,2.15-2.236,2.906  c1.12,0.534,1.96-0.476,2.942-0.711c0.571-0.137,1.371,3.232,1.42,3.331c-2.041,0.193-3.988,1.537-2.393,3.133  c0.851,0.851,3.249-0.984,3.293-0.808c0.366,1.48,2.176,3.727-0.137,4.391c-1.11,0.318-2.848-1.133-3.665,0.421  c-1.101,2.092,2.78,1.953,3.744,1.785c4.102-0.715,0.748,1.225,1.629,1.622c-0.712-0.321-2.832,1.317-1.581,2.291  c1.271,0.988,3.558-1.098,2.511,1.618c-0.74-0.74-1.442,0.343-1.621,1.133c-0.403,1.781,1.047,1.433-0.08,3.117  c1.675,0.329-0.632,2.191-0.303,2.705c0.657,1.028,3.493,1.082,3.279-0.579c0.745,0.866-0.093,2.23,0.85,2.977  c-0.992,0.668-3.187-0.019-3.77,1.249c-0.756,1.646,2.22,1.271,2.409,1.261c1.859-0.089,1.424,0.44,1.431,1.991  c0.01,2.104-1.259,1.189-2.409,2.105c-1.124,0.894,0.488,1.979,1.411,1.709c1.749-0.516,1.891,0.438,1.813,1.98  c-0.042,0.852-3.944,3.731,0.391,3.731c-0.135,0.371,0.349,2.854-0.688,2.418c-0.807-0.34-4.482,0.201-2.678,1.408  c1.66,1.104,1.679,0.078,3.293,0.477c1.573,0.393,0.571,2.11,0.923,3.349c-7.146-2.036-2.308,3.902-0.12,2.219  c-0.743,0.571,2.029,2.884-1.155,3.413c-2.415,0.399,0.176,2.964,1.7,2.445c-1.174,0.477,0.2,1.332,0,2.054  c-0.243,0.879-2.398-0.205-3.161,0.58c-2.459,2.53,3.498,1.297,3.106,2.851c-0.224,0.888-1.473,0.811-2.068,1.278  c-1.807,1.418,1.58,2.173,1.436,3.297c-0.171,1.333-5.327,1.836-2.533,3.724c0.965,0.652,1.436-0.218,1.627,1.13  c0.262,1.83-1.503,2.586-2.94,2.586c-2.497,0-0.829,2.239,0.807,2.128c1.787-0.121,1.698,2.748-1.65,1.791  c-0.769-0.221-2.301-0.191-2.313,1.023c-0.021,1.938,3.129,1.788,4.291,1.788c-0.143,0.991-0.284,1.983-0.427,2.975  c-1.776-0.897-1.494-2.329-3.273-0.55c-1.311,1.311,1.847,2.072,2.85,1.4c0.835,2.406-1.638,2.721-3.005,3.172  c-2.516,0.831,0.626,2.326,1.199,2.709c0.894,0.597-0.455,2.465-0.745,3.047c-1.929-3.845-3.684,3.663-1.275,1.274  c0.914,1.334-0.232,2.521-0.426,3.825c-0.836-0.245-2.888-1.754-3.772-0.922c-1.765,1.659,1.545,2.596,2.498,2.764  c2.773,0.49-3.061,3.377-2.158,5.055c1.542,2.866-1.971,1.255-3.364,1.661c-2.14,0.624,4.584,4.195-0.291,4.195  c-2.353,0-3.747,2.507-0.794,2.492c1.57-0.008,0.211,1.463-0.188,1.827c-1.325,1.207-1.9,0.837-3.535,0.478  c-0.846-0.188-1.376-0.152-1.856,0.637c-0.797,1.308,3.188,0.648,2.552,2.62c-0.582,1.804-2.187,0.151-3.237,1.056  c-0.742,0.639,0.019,2.145,0.971,1.943c-2.109,2.289-1.3,1.758-3.932,0.886c-2.172-0.722-2.055,3.595,0.106,3.363  c-0.436,3.959-3.312,1.063-4.806,0.802c-1.072-0.187-1.197,0.646-1.146,1.467c0.101,1.566,1.185,0.857,2.124,1.559  c-0.657,0.416-2.551,2.247-3.393,2.007c-1.108-0.316-2.495-2.488-3.833-1.652c-1.279,0.799,1.025,2.23,1.4,2.798  c1.475,2.224-4.003-0.597-3.809-0.53c-1.732-0.594-1.995,1.11-0.613,1.871c1.335,0.735,0.989,1.618-0.297,1.904  c-2.053,0.457-2.94-2.37-4.603-2.021c-2.34,0.491,0.782,2.678-0.156,3.7c-1.801-1.817-4.251-3.426-4.251,0  c-2.033-1.35-2.975-2.705-2.975,0.85c-1.719-0.382-2.167-2.309-3.363-3.338c-2.395-2.061-1.593,2.213-1.313,2.913  c-3.012,0.854-2.055-1.493-2.792-2.382c-0.88-1.062-1.885-0.658-1.885,0.682c-1.202-1.686-1.404-3.585-3.824-3.825  c8.994-6.629,16.777-16.924,20.861-27.258c4.431-11.207,8.436-23.009,8.965-35.23c0.471-10.916-2.426-23.155-4.103-34.027  c-0.891-5.777-1.83-11.563-3.841-17.069c-0.851-2.328-0.227-3.347-1.144-4.975c-1.34-2.379-1.633-5.464-2.698-7.999  c-2.268-5.394-4.032-10.992-6.295-16.389c-1.177-2.808-2.566-5.531-4.188-8.108c-0.744-1.185-4.333-4.925-4.117-6.193  c0.224-1.319-2.089-2.555-2.661-3.739c-1.178-2.437-3.033-4.204-4.756-6.244c-3.844-4.552-7.47-9.107-11.681-13.354  c-8.219-8.29-18.586-14.287-28.823-19.725c-9.071-4.819-18.699-8.931-27.359-14.359c1.622-1.081,3.209-2.492,5.251-2.649  c2.65-0.205,3.068,1.101,4.524-2.026c3.363,3.338,1.539-0.392,3.686-0.921c1.451-0.358,0.592,2.332,1.842,2.196  c0.99-0.108,1.572-2.429,2.125-2.975c1.671,4.517,2.592-0.997,5.101-1.276C227.921,107.547,227.318,110.012,227.12,110.283" id="path267" style="fill:#FF8000;"></path>

<path d="M194.458,112.337c-4.9,1.686-5.243-4.022,0-4.605C194.458,109.267,194.458,110.802,194.458,112.337" id="path269"></path>

<path d="M203.81,110.636c0.177,1.016-1.701,1.7-2.219,0.821c-0.522-0.887-0.349-1.969-0.756-2.875  C201.644,108.447,204.54,109.158,203.81,110.636" id="path271"></path>

<path d="M161.302,112.337C157.924,112.479,161.302,108.527,161.302,112.337" id="path273"></path>

<path d="M151.454,113.683c-0.731-1.473-2.281,1.188-0.354-1.7  C151.377,112.518,151.495,113.084,151.454,113.683" id="path275" style="fill:#409F40;"></path>

<path d="M185.105,114.888c-1.496,0.438-0.791,1.742-1.7,2.621c1.807,1.291,4.488-1.315,5.527,1.275  c-1.41,0.175-3.907,2.993-1.255,2.98c2.503-0.013,5.304-1.465,6.354,1.695c-2.965-0.83-3.404,3.405-1.633,2.812  c2.195-0.735,5.386-1.151,5.885,1.864c-0.895,0.224-1.855-0.255-2.731,0.135c-1.045,0.466-0.964,2.458,0.188,2.743  c1.307,0.323,2.824-1.225,4.134-1.126c0.931,0.07,2.933,3.478,3.51,4.199c-1.226,0.507-2.95-1.054-3.962-0.381  c-1.566,1.041-0.2,2.789,1.199,2.86c1.344,0.068,2.156-0.766,3.188-1.421c0.723-0.459,1.927,2.628,2.551,3.193  c-3.648-1.279-1.466,5.713,1.275,2.551c1.519,3.038-1.689,1.308-0.97,3.467c0.699,2.106,5.23,0.15,4.451,2.835  c-0.392,1.348-0.937,2.674,1.053,2.482c1.923-0.186,2.329,2.352,3.116,3.542c-1.417,0.425-2.833,0.851-4.25,1.276  c0.666,2.219,4.011,2.37,5.525,0.85c0.905,0.824,0.288,2.575,1.701,2.976c-1.077,1.027-2.572-0.05-3.718,0.686  c-1.284,0.824-0.287,2.629,0.931,2.811c1.766,0.263,5.338-2.165,5.338,1.436c0-1.657-6.498,2.865-2.975,3.569  c0.571,0.114,1.988-1.091,2.377-1.298c2.447-1.299,1.976,0.969,3.147,2.148c-0.527,0-4.714-0.049-3.725,1.735  c1.021,1.843,2.452,0.745,4.13,0.745c0.898,0,1.821,2.421,0.44,2.638c-1.063,0.167-4.066-1.292-3.396,1.401  c0.323,1.305,3.553,0.597,4.464,0.638c1.593,0.07,2.521,3.045,1.82,3.045c-0.932,0-5.228,1.128-2.317,2.835  c0.834,0.489,1.729-0.872,2.662-0.651c1.244,0.293,0.853,1.709,1.447,2.493c-0.862,0.139-3.22-1.637-2.568,1.608  c0.127,0.628,3.201,0.942,3.843,0.942c-0.202,1.627-4.817,1.417-2.649,3.298c0.735,0.638,1.483,0.259,2.308,0.091  c1.773-0.361,1.961,2.15,2.468,3.412c-1.41,0.529-4.236-1.5-4.645,0.605c-0.31,1.598,3.059,1.791,4.205,1.988  c2.063,0.353,1.183,1.978-0.501,1.64c-2.321-0.466-3.472,2.958-0.045,1.979c1.852-0.526,2.687-0.991,2.687,1.271  c0,2.44,0.276,2.095-1.8,2.296c-1.815,0.176-1.251,2.391,0.044,2.856c0.662,0.237,1.52-0.843,2.181-0.309  c0.729,0.588,0.851,3.192,0.851,3.827c-2.489-1.834-4.999,1.992-2.409,2.763c2.946,0.879,3.258-1.9,3.258,3.188  c-1.808-0.323-2.991-1.039-4.131,0.636c-0.548,0.805,4.144,1.326,4.545,2.027c1.186,2.07-0.862,2.188-2.21,1.99  c-1.711-0.251-3.604,1.499-1.429,2.436c1.74,0.747,4.815-1.554,4.52,1.525c-0.237,2.464-0.662,1.517-2.888,1.517  c-1.006,0-1.813,1.124-1.027,1.983c1.005,1.099,3.106,0.431,4.354,1.092c1.138,0.604,1.054,3.671-0.605,3.433  c-1.062-0.153-4.386,0.681-2.188,2.048c1.61,1.002,4.769-0.183,3.951,2.458c-0.487,1.577-3.813-0.766-3.807,1.617  c0.003,1.425,2.973,1.514,3.866,1.998c3.753,2.029-3.027,3.027-3.621,2.963c-1.436-0.153-1.113,3.036,1.864,2.287  c3.506-0.881,2.195,2.373,2.634,4.422c-1.957,0.427-2.809-1.246-4.402,0.503c-0.89,0.976,4.443,2.297,4.827,3.322  c-0.448,0.176-5.736,1.623-1.983,2.622c2.624,0.695,1.382-0.41,2.407,2.054c-0.968-1.235-2.91-0.106-3.291,1.064  c-0.824,2.535,2.3,0.624,3.083,0.979c0.721,0.326,0.56,3.059-0.574,3.059c-2.27,0-3.813,2.196-0.639,2.196  c1.317,0,2.451,2.282,1.068,2.593c-1.862,0.417-3.402-1.505-5.358-0.719c-2.809,1.13,2.989,2.351,3.383,2.405  c2.938,0.402,1.904,1.966,1.904,4.151c-2.338-2.041-5.7,1.52-3.116,1.948c3.377,0.56,2.837,1.779,1.842,5.277  c-1.022-0.291-1.725-1.662-2.955-1.17c-1.178,0.473-1.19,2.241,0.138,2.489c3.034,0.568,2.259,0.911,1.541,3.783  c0.239-2.065-4.207-0.209-4.676,0c1.616,1.971,1.54,2.125,4.252,2.125c-0.298,1.381,0.855,4.923-1.63,3.896  c-0.996-0.409-1.847-0.526-2.764-0.708c-1.783-0.356-1.87,1.455-0.721,2.436c1.186,1.01,5.111,0.078,4.334,2.242  c-0.577,1.608,0.34,3.25-2.027,2.607c-0.763-0.207-7.517-1.377-5.301,1.576c1.355,1.809,4.039,0.934,5.93,1.124  c0.008,0.001-1.422,5.288-1.223,5.956c-1.509-1.082-4.851-1.53-6.333-0.044c-0.566,0.567,4.149,1.77,5.059,1.318  c0.285,1.299-0.743,2.179-0.852,3.401c-0.849-1.484-4.186-2.176-5.029-0.354c-0.991,2.141,3.612,2.651,4.605,1.629  c-0.766,0.798,0.185,4.016-1.736,3.471c-1.036-0.294-1.82-0.919-3.15-0.919c-1.249,0-1.882,1.167-0.723,1.963  c1.14,0.783,2.633,0.647,3.908,1.012c-1.242,1.6-1.577,3.551-2.142,5.438c-0.626,2.071-1.707,1.258-3.587,0.747  c-1.646-0.447-3.073-0.208-3.971,1.334c-0.931,1.6,3.313,1.226,3.692,1.253c4.682,0.333,1.082,3.202-1.652,3.202  c-0.922,0-3.889-0.679-3.422,1.228c0.555,2.259,3.348,0.989,5.13,0.826c-0.972,1.188-1.775,2.507-2.552,3.826  c-1.628-1.632-4.328-0.98-5.71,0.587c-1.722,1.953,4.032,1.281,4.014,0.905c0.143,2.851-2.729,2.073-4.397,2.409  c-1.614,0.325-1.385,3.501,0.143,3.325c-0.979,0.979-2.995,0.151-4.906,1.245c-1.444,0.823-1.493,2.155,0.656,2.155  c-0.875,2.04-3.724,4.055-5.872,2.936c-2.221-1.158-3.266,0.578-4.99-1.06c-3.249-3.084-3.341,4.738,0.234,4.5  c-1.559,0.284-3.116,0.568-4.675,0.853c0.851-0.284,1.7-0.568,2.551-0.853c-1.316-1.75-4.747-2.963-6.885-2.889  c-1.242,0.043-0.515,3.998-0.343,4.59c-2.923,0.581-1.916-5.61-3.302-5.023c-2.012,0.852-1.225,4.324-0.098,5.448  c-2.713,4.018-6.382-7.044-5.102,0.851c-2.006-0.202-1.487-2.353-2.136-3.669c-1.935-3.925-1.778,2.948-1.831,3.526  c-0.256,2.78-2.967-1.643-3.106-2.483c-0.523-3.16-1.854,1.061-1.854,2.2c-0.633-1.241-1.7,0.47-1.7-1.348  c0-3.923-3.147,1.519-4.214-0.415c-0.025-0.046,0.614-6.065-1.747-3.468c-0.556,0.612-1.076,1.833-0.84,2.68  c-0.128,0-2.392,0.317-2.015-0.665c1.751-4.554-2.739-1.026-4.246-2.178c-1.816-1.388,1.772-3.014,0.025-3.888  c-3.212-1.604-1.398,3.348-4.392,0.354c0.842-0.35,2.561-4.185,0.776-3.735c-1.13,0.285-2.779,2.902-3.481,1.952  c-0.753-1.019,3.959-4.022,1.448-4.398c-2.057-0.309-4.128,3.198-5.119,0.23c1.34,0,3.451-1.444,1.268-2.486  c-1.308-0.625-2.544,0.805-3.818,0.22c-0.237-0.108-1.896-3.535-1.938-3.476c0.597-0.862,2.385-0.233,3.637-1.483  c-1.038-0.892-5.264-1.065-5.363-1.262c-1.213-2.405,1.003-1.274,2.607-1.736c2.151-0.619,0.527-2.025-0.749-2.313  c-2.54-0.573-4.77-0.878-4.571-4.041c1.179,0.249,6.827-1.189,3.684-2.479c-2.175-0.895-4.535,0.983-4.535-1.771  c2.427,1.036,6.557-1.962,4.526-2.299c-1.848-0.308-3.662-0.41-5.518-0.605c-1.316-0.138-0.075-1.568-1.134-1.771  c0.878,0,3.918,0.09,4.201-1.271c0.293-1.41-4.309-1.329-4.868-2.305c-0.876-1.533,0.918-1.036,1.758-1.068  c2.727-0.105,1.114-2.492-0.374-2.581c-0.523-0.031-3.194-0.854-2.261-1.789c-0.452,0.451,3.854-2.465,1.507-2.465  c-2.994,0-1.893-2.464-3.365-4.249c0.059-0.022,7.166,0.644,4.321-1.774c-1.073-0.912-7.236-0.613-5.104-3.695  c0.241-0.349,7.465,2.164,6.612,0.079c-1.203-2.937-6.679-1.069-6.679-4.388c1.047,0.224,3.784-0.371,3.472-2.006  c-0.166-0.871-1.838-0.19-2.197-0.969c3.135,0,2.164-3.343,0.142-2.951c-1.528,0.296-3.904-2.435-2.054-2.929  c0.917-0.245,2.971,0.497,3.495-0.771c0.46-1.114-1.857-1.989-2.482-2.115c-2.18-0.438-2.076,0.123-2.076-3.137  c1.689,0.245,2.846,0.979,4.252-0.425c-2.636-2.632-4.676-1.508-4.676-5.101c3.14,1.574,6.333,2.012,9.776,1.276  c-2.755-3.98-10.626-2.054-10.626-7.652c1.227,1.137,4.118,0.738,4.64-0.815c0.529-1.576-3.392-1.988-4.215-1.311  c0.051-1.168-0.97-3.042-0.142-4.072c0.527-0.66,2.258,0.381,3.042-0.636c0.97-1.256-1.094-2.063-1.783-2.616  c-0.747-0.599-0.691,0.645-1.542,0.523c2.225-3.029-1.583-3.522,2.621-4.216c3.539-0.585-0.265-3.011-2.196-3.011  c0.252-0.687,0.394-1.395,0.425-2.125c0.593,0.108,4.657,1.194,4.251-0.85c-0.577-2.909-3.827,0.533-3.827-2.977  c0.811,0.493,6.096,1.09,4.855-0.977c-0.414-0.689-4.064-3.298-4.855-1.573c0-1.059-0.362-2.495,0.425-3.401  c0.388,0.88,1.962-0.229,1.575-1.173c-0.562-1.371-2.396-4.283-0.337-5.431c0.689-0.384,4.757-1.751,1.177-2.162  c-2.665-0.307-1.564-2.361-1.564-4.412c2.049,0.767,3.903,1.961,5.952,0.426c-2.568-2.313-7.078-1.763-5.647-6.478  c0.367-1.207,1.823-0.367,2.496-1.335c0.946-1.359-0.686-2.338-1.52-3.092c-0.605-0.547-0.529-5.101,1.086-4.945  c2.72,0.262-1.213-3.339-0.666-4.979c1.261,2.063,4.526-1.985,2.398-2.179c-2.346-0.218-3.217-5.236-1.462-4.96  c0.567,0.089,5.236,0.57,5.209,0.531c0.874,1.278,2.864-2.799-0.863-2.756c-1.111,0.013-4.74-0.128-4.461-1.725  c0.396-2.262,3.131-2.569,4.705-3.791c-2.017-2.201-4.548-1.225-3.243-5.147c0.506-1.521,3.01-1.312,2.818-2.646  c-0.45-3.118-3.177,0.54-0.85-4.109c1.531,1.157,5.999-0.427,3.638-1.875c-1.454-0.893-4.132-0.519-3.607-3.134  c0.437-2.175,4.747-0.615,4.971-2.064c0.263-1.698-1.436-2.278-2.629-2.278c-2.267,0-0.197-2.835,1.245-3.081  c6.205-1.054-1.148-2.821-0.57-4.988c0.499-1.865,2.178-1.869,3.687-2.38c2.924-0.99-1.116-2.013-0.724-2.926  c0.393-0.915,0.953-3.843,1.64-4.478c0.026-0.024,6.088-1.171,1.911-2.215c-1.006-0.25-0.609-2.645,0.316-2.881  c2.748-0.703,5.726,2.462,7.948-0.395c0.681-0.876-9.777-1.15-5.549-4.413c2.652-2.047,8.026-1.299,2.177-4.125  c0.944-0.539,4.145-1.515,4.6-2.64c0.362-0.895-1.903-0.94-1.2-2.036c0.664-1.036,2.933-0.094,3.913-0.877  c1.271-1.016-0.71-2.554-1.787-2.099c-0.201-2.021,1.375-2.704,3.011-2.16c1.772,0.589,1.523-2.516-0.461-2.516  c2.028-1.733,4.929-1.542,7.226-2.73c2.351-1.216,4.813-2.323,7.486-2.501c0.965,0.186,1.911,0.123,2.841-0.189  c1.221-0.877,2.247-2.373,3.927-2.373C182.29,112.691,184.074,115.831,185.105,114.888" id="path277" style="fill:#FF9100;"></path>

<path d="M143.803,115.383c0,1.959,2.565,5.181,4.321,2.551c-0.338,3.798,3.667-0.455,4.157-0.751  c0.542-0.328,2.392,0.556,1.445,1.039c-0.339,0.173-1.998-0.187-2.064-0.056c-0.925,1.846,4.032,4.434,3.688,1.894  c0.326,3.262-3.333,8.507-5.029,11.194c-2.278,3.611-4.364,7.362-6.352,11.139c-5.033,9.568-7.657,20.437-9.578,30.966  c-0.98,5.376-2.367,10.552-2.785,16.02c-0.182,2.389-3.886,12.296-2.141,14.041c1.911,1.911-0.061,9.923-0.48,12.242  c-0.902,4.994-0.065,10.274-0.869,15.094c-1.335,8.003-2.383,17.646-1.955,25.401c0.262,4.768,0.3,9.55,0.617,14.314  c0.271,4.071,1.593,8.774,1.216,12.688c-0.472,4.832,1.437,9.684,2.109,14.402c0.656,4.609,0.958,9.214,1.86,13.846  c0.981,5.043,2.794,9.926,4.397,14.794c1.525,4.636,2.834,11.068,6.664,14.477c-0.628,0-5.042-2.715-3.294,0.779  c1.769,3.537-3.297,0.846-3.059,3.543c0.35,3.944-3.163-1.479-4.291,0.108c-0.749,1.052-0.26,3.628-2.183,3.035  c-1.354-0.42-1.029-3.49-2.476-3.215c-0.052,0.01-2.059,6.894-3.055,2.289c-0.924-4.272-4.188,4.806-5.434-0.448  c-0.712-3-1.79,0.299-2.422,0.921c-0.296,0.291-2.048,0.833-1.735-0.106c0.251-0.752,0.789-3.273-1.366-1.985  c-2.22,1.326-2.315,2.452-5.117,1.029c0.574-0.146,1.312-2.09,0.825-2.574c-1.492-1.494-2.11,0.898-3.936,1.419  c-2.258,0.646-3.416-1.619-3.096-2.967c0.257-1.081-1.054-3.391-2.19-1.51c-1.169,1.939-0.994,2.065-3.215,0.584  c-3.368-2.245-1.001-0.747-1.001-3.098c0-1.688-1.867-1.129-2.521-0.504c-1.857,1.777-2.005-1.193-3.073-1.992  c-1.061-0.796-2.312-0.701-3.403-2.323c-0.794-1.181,1.55-1.196,0.354-2.338c-1.104-1.054-2.844-0.16-4.094-1.401  c-1.507-1.5,0.229-1.431,0.798-2.563c2.045-4.06-1.856-0.535-3.144-1.143c-1.474-0.697-1.893-4.68-2.063-5.944  c-1.065,1.745-1.748-0.974-2.55-0.851c0.04-0.04,4.939-2.977,1.136-2.977c0.924,0-1.99,0.105-1.635,0.37  c-0.376-0.281-2.219-2.753-0.989-2.955c1.178-0.194,2.263,0.541,3.294-0.395c0.63-0.572-0.422-2.116-0.956-2.121  c-1.418-0.021-4.178,1.91-4.721-0.635c-0.559-2.616,3.445-0.31,3.445-2.977c0-2.992-3.135,0.022-3.861-0.675  c-1.576-1.513,2.266-4.021,0.451-4.204c-1.17-0.117-1.904,1.044-2.392-0.415c-0.521-1.565-0.913-2.122,1.113-2.22  c1.162-0.056,1.393-0.908,1.341-1.964c-0.081-1.63-2.22-0.465-3.17-0.621c-1.245-0.206-1.132-1.412-1.132-2.345  c0-1.598,1.734-0.797,2.91-1.51c2.608-1.58-3.802-1.952-3.76-1.777c-0.749-3.079,3.252-1.014,2.501-3.865  c-0.611-2.322-4.065,1.493-3.823-3.324c0.109-2.158,0.917-0.334,2.228-1.65c0.752-0.755,0.501-2.732-0.42-3.295  c-0.627-0.382-1.951,1.008-2.163,0.052c-0.298-1.339-0.162-2.942,1.592-2.622c2.054,0.376,1.432-1.415,0.383-2.048  c-1.136-0.685-3.746,0.536-2.885-2.057c0.503-0.207,0.94-0.102,1.311,0.318c0.031-0.873,2.436-2.121,1.537-3.058  c-0.796-0.831-4.128,0.543-3.938-1.188c0.236-2.14,4.071-2.347,2.075-4.57c-0.223-0.248-4.086,0.867-2.748-1.262  c0.359-0.571,3.565-1.727,2.583-2.741c-0.939-0.97-2.377-0.28-2.75-1.772c-0.348-1.387,1.856-1.692,2.728-2.29  c2.87-1.971-2.398-1.904-2.889-1.823c0-1.943,0.815-4.709,2.976-2.551c0.336-0.447,1.97-1.783,0.777-2.373  c0.333,0.165-2.596-0.484-2.548-0.531c-1.828,1.82-1.245-3.085-1.042-3.787c0.169-0.586,4.479-0.437,2.585-2.32  c-0.761-0.76-2.65,0.245-2.753-0.745c-0.088-0.854,0.005-1.715,0.005-2.57c2.196,3.058,3.241-6.219-0.424-2.551  c0-2.59-0.548-2.979,1.998-2.965c3.295,0.018-0.125-2.222-1.077-2.632c-2.962-1.277,2.302-1.848,2.621-2.125  c2.16-1.887-1.804-1.95-2.692-1.63c-0.142-1.275-0.284-2.55-0.425-3.825c1.319,0.659,2.541,1.626,3.404,0.506  c0.672-0.873,0.6-2.031-0.838-2.207c-0.345-0.042-2.242,0.239-2.566-0.424c-0.614-1.258,1.439-2.188,2.294-2.225  c0.967-0.042,3.048,1.676,2.863-0.927c-0.263-3.696-4.306,0.872-4.306-3.65c1.235,0.309,2.896,1.012,4.074,0.071  c0.986-0.788,1.16-2.197-0.536-2.197c-4.608,0-3.226-2.086-2.263-5.95c1.671,1.136,4.784-1.104,2.833-2.692  c-0.65-0.528-1.276,0.403-2.089-0.121c-0.592-0.591-0.619-1.291-0.083-2.102c0.076-1.544,0.653-1.88,1.732-1.006  c1.173,0.063,2.988-0.156,3.132-1.731c0.154-1.682-7.416-0.983-2.585-4.204c0.891-0.595,3.686-0.417,3.881-1.61  c0.369-2.256-1.552-1.837-2.995-1.837c0.287-1.115,0.428-2.249,0.424-3.4c1.657,0.997,4.274,2.369,5.101-0.426  c-1.352-0.445-2.774-1.163-4.25-0.85c0.279-3.074,6.272-2.824,5.688-3.873c-0.826-1.487-4.044-1.823-3.208-4.133  c0.727-2.012,3.518,0.587,5.127-1.295c0.874-1.027-2.889-1.744-2.932-1.751c0.3-0.996,1.641-6.802,3.068-6.802  c1.426,0,2.142,2.442,3.681,0.903c0.589-0.589,1.223-1.148,0.38-1.917c-0.99-0.903-4.044-0.225-2.92-2.108  c0.587-0.985,1.788-1.312,2.864-1.043c1.772,0.445,1.711,0.226,3.554-0.086c-1.04-3.648-5.089-0.441-1.699-4.676  c0.411,0.879,2.698,1.978,3.578,1.098c1.933-1.933-1.573-2.57-2.569-3.181c-0.68-0.417,1.587-2.177,2.119-2.273  c1.779-0.323,2.501,1.875,4.086,1.875c1.588,0,2.152-1.557,1.5-2.833c-0.536-1.05-3.551-0.637-4.463-0.637  c1.062-0.428,1.038-1.583,1.471-2.446c1.023-2.042,3.169-0.002,4.374,0.533c1.321,0.587,3.125-1.037,2.231-2.409  c-0.782-1.2-2.822-0.001-3.826-1.204c1.269-0.889,1.938-2.292,3.011-3.366c1.712-1.713,2.308,1.439,3.79,0.708  c2.198-1.084-0.07-2.147-1.084-2.552c-1.406-0.561,1.148-2.326,1.083-3.293c0.992,0.425,1.984,0.85,2.976,1.275  c0.46-1.275,1.098-2.975-0.85-2.975c2.228-2.729,0.8-3.691,4.181-2.022c2.507,1.238,3.189-2.208,1.04-2.201  c-1.37,0.003-0.123-1.829,1.015-1.515c0.882,0.244,3.105,0.647,3.896-0.142c1.734-1.731-1.523-1.518-2.054-2.196  c1.996-0.883,2.351-2.225,4.608-1.792c2.434,0.466,5.133,0.056,2.618-2.459c1.23-1.052,2.889-0.2,4.244-0.005  c1.584,0.228,1.101-2.138,0.681-2.067c-1.055,0.178,1.035-1.688,1.1-1.737c1.008-0.753,2.882,1.239,3.221,1.578  c1.117,1.117-0.639-5.488,1.833-4.027c0.875,0.517,1.896,2.942,3.186,2.113c2.024-1.302-0.236-2.213-1.086-3.506  c2.059,0.515,3.657-2.404,5.078-0.039c0.859,1.43,1.261,1.145,2.029,1.624c0.512,0.32,2.17-1.753,0.524-2.424  c-1.067-0.436-2.4-1.065-1.185-2.278c1.627-1.617,4.199,7.428,6.247,3.604c0.315-0.59-2.359-3.067-2.706-3.766  C138.401,113.471,143.486,115.482,143.803,115.383" id="path279" style="fill:#FF9600;"></path>

<path d="M147.203,115.383c0.281,0.344,0.388,0.727,0.318,1.149  C147.038,117.005,144.603,115.383,147.203,115.383" id="path281" style="fill:#FF8000;"></path>

<path d="M201.613,116.588c0.719,0.719-0.298,2.267,0.921,3.047c0.585,0.376,3.178-1.897,3.363-0.347  c0.176,1.476-0.796,2.472,1.665,2.472c0.053,0,1.099-1.253,1.437-1.333c1.207-0.286,1.67,1.874,2.037,2.608  c0.355-0.355,2.991-1.157,3.401-0.425c0.479,0.853-1.147,2.035-0.115,2.761c1.405,0.988,2.392-0.015,3.09-1.061  c0.501,0.428,1.965,1.068,1.594,2.005c-0.3,0.751-1.862,1.403-0.528,2.07c2.401,1.208,3.006-2.853,5.369-1.113  c0.198,0.146-2.796,5.195,0.727,4.081c1.021-0.323,1.393-1.734,2.534-1.877c0.804-0.101,2.344,1.274,3.057,1.637  c-4.07,2.069-2.123,3.466,1.245,1.866c4.93-2.343,0.477,3.732,0.389,3.646c2.618,2.535,4.869-3.684,7.902-0.653  c1.361,1.36-1.025,0.928-0.551,2.064c0.97,2.316,3.771,0.091,5.469,1.153c-4.774,4.771,2.107,1.779,5.101,2.976  c-0.428,0.716-5.593,3.826-1.272,3.826c3.119,0,2.033-3.218,5.524-0.425c-5.355,1.569-2.285,6.023,1.274,1.275  c1.134,0.992,2.268,1.983,3.401,2.975c-0.961,0.469-2.123,0.58-2.729,1.594c-0.695,1.165,0.744,2.079,1.737,1.736  c3.266-1.129,2.356-2.387,5.243,0.496c-0.921,0.283-1.771,0.708-2.551,1.275c-0.634,0.712-0.421,2.588,0.933,2.288  c2.501-0.555,3.792-2.645,5.018,0.688c-1.378-0.395-2.625,1.499-1.956,2.617c1.278,2.14,3.013-1.219,4.421,0.644  c1.326,1.754,2.368,1.159,0.638,3.179c-2.337,2.729-0.125,3.018,2.354,1.848c2.029-0.958,2.127,0.804,2.195,2.338  c-0.948-0.113-3.567,1.807-2.736,2.85c0.992,1.245,3.044,0.595,4.014-0.299c1.666-1.533,3.072,2.273,3.824,3.401  c-2.997-1.332-3.517,5.551-0.781,3.653c2.013-1.396,1.933-1.853,3.548,0.785c1.785,2.914-1.294,2.028-0.539,3.797  c0.996,2.336,4.514,0.968,4.999,4.092c-4.624-0.358-2.336,3.61-1.807,3.26c2.755-1.828,3.278,1.291,4.782,3.541  c-4.399-1.544-0.688,6.398,1.275,2.552c-0.246,0.674-0.104,1.24,0.425,1.7c-0.51,0.624-1.792,1.211-1.761,2.174  c0.055,1.624,4.578,0.922,3.707,2.376c-0.649,1.085-4.259,0.854-2.458,3.063c0.744,0.913,4.65-0.401,3.817,1.821  c-0.332,0.887-2.234-0.092-2.773,0.98c-1.395,2.772,2.646,1.621,3.719,2.338c-1.283,0.969-3.557-0.505-4.32,0.465  c-0.577,0.734-1.402,2.928,0.169,3.192c2.606,0.439,5.852-2.505,5.852,1.869c-1.098-1.057-5.063,0.463-3.385,2.141  c2.051,2.065,3.465-1.339,4.234,2.535c-2.394,0.92-3.789,0.099-1.645,2.978c0.547,0.732,1.331-0.031,1.995-0.073  c1.247-0.079,1.025,2.775,1.351,3.471c-0.558,0.169-5.938-1.675-5.472,0.49c0.46,2.142,4.625,2.482,5.896,1.211  c0.929,0.905,0.128,2.336,0.425,3.401c-0.661-0.073-8.036-1.466-5.341,1.528c1.666,1.849,6.294-0.932,6.535,2.697  c0.25,3.814-5.421-0.274-4.598,3.553c0.38,1.765,2.982,0.723,4.162,0.723c1.026,0,0.892,2.462,0.942,2.976  c-0.92-0.132-4.144-1.126-4.651,0.133c-0.842,2.082,4.203,2.217,5.075,2.844c-0.339,0.189-0.48,0.472-0.424,0.849  c-3.171-1.862-7.017,1.618-2.976,2.551c0.925,0.214,3.464-0.528,3.989,0.69c0.348,0.805-0.225,3.177,0.686,3.562  c-0.472,0.058-8.89-2.434-6.675,0.936c0.995,1.515,3.71,1.613,5.276,1.613c2.288,0,1.599,1.799,1.824,3.827  c-0.615-0.077-7.792-0.98-5.366,1.326c3.096,2.943,5.366-1.438,5.366,4.625c-0.138-0.02-5.892-0.949-5.063,0.044  c1.899,2.285,5.063,1.181,5.063,3.781c-0.812-0.61-3.685-0.115-3.826,1.135c-0.151,1.339,2.499,2.744,3.4,1.841  c0,3.169-2.291-0.334-3.083,1.277c-1.535,3.126,1.283,1.624,2.451,3.018c2.962,3.538-3.26,2.407-3.708,2.886  c-0.604,0.646,0.471,1.818,1.059,1.979c2.009,0.55,0.655,2.711,0.731,4.018c-1.097-0.935-2.519-1.206-3.825-1.699  c-0.325,1.095-1.487,1.795-0.185,2.78c0.686,0.52,6.045,1.754,2.673,4.203c-0.358,0.261-7.105-4.023-6.213-1.322  c1.193,3.614,6.324,1.906,3.725,6.24c-0.779-1.013-4.559-2.129-3.756,0.304c1.18,3.571,3.878,0.668,1.63,5.224  c-0.6-0.601-3.554-2.486-3.757-0.308c-0.02,0.209,4.897,5.23,0.919,4.568c-0.409-0.067-6.163-0.864-3.748,1.551  c0.453,0.453,1.98,0.706,1.98,1.554c0,0.907-1.527,1.001-1.346,1.985c-0.11-0.062-7.53-5.475-6.261-2.379  c0.757,1.847,2.742,2.395,3.922,3.847c1.152,1.419,0.139,3.393-1.558,2.217c-0.96-0.665-4.128-5.07-5.021-2.182  c-0.483,1.565,2.832,3.777,3.916,4.518c0.021,0.014-1.995,5.178-4.21,1.844c-2.103-3.159-5.26-1.429-2.595,0.995  c-0.055-0.05,2.691,1.951,2.418,2.228c-0.645,0.654-1.555,2.095-2.275,1.186c-3.1-3.89-4.772-0.652-1.939,2.181  c-1.411,1.36-3.805-0.828-4.676-1.701c-1.518,2.026-0.668,2.456,0.425,4.676c-0.933,0.241-1.29,1.445-2.338,0.567  c-3.847-3.223-5.154,1.575-1.912,1.983c-2.102,1.792-2.495-0.102-4.015-1.598c-3.189-3.142-2.924,2.874,0.188,2.874  c-1.22,0.351-2.389,1.948-3.782,1.656c-1.365-0.285-2.501-4.344-4.04-5.249c-1.091-0.642-2.297-1.346-2.431,0.637  c-0.129,1.895,2.971,3.571,3.878,5.081c-2.075,0.231-4.072,1.082-6.193,0.869c-0.759-0.077-1.919-3.172-2.33-3.715  c-3.483-4.6-0.897,4.106-1.26,4.284c-3.163,1.555-2.94-2.654-3.862-4.229c-3.313-5.662-3.532,4.61-0.809,4.064  c-0.589,3.573-4.533-4.948-4.038-4.641c-2.894-1.794-1.781,4.482-0.638,5.067c-1.559,0-3.117,0-4.676,0  c1.478-1.85-0.085-2.302-0.643-3.519c-0.544-1.185-2.157,0.213-1.767,1.322c-0.166-0.47,1.129,2.222,1.134,2.196  c-1.792-0.435-2.479-0.204-2.125-1.985c0.414-2.078-2.201-2.559-1.59-4.89c0.992-3.783,3.051-7.421,4.588-11.069  c1.9-4.513,2.651-9.129,4.733-13.592c0.859-1.844,0.291-3.956,1.222-5.636c1.167-2.107,0.128-4.831,1.019-6.499  c0.935-1.75,0.62-3.55,0.793-5.44c0.287-3.136,1.097-6.335,1.677-9.435c0.505-2.696,1.59-5.103,1.534-7.854  c-0.067-3.403,0.12-6.805,0.079-10.207c-0.07-5.719-1.587-11.114-1.587-16.866c0-5.06-0.834-9.825-1.418-14.904  c-0.593-5.159-0.287-10.734-1.349-15.843c-0.338-1.623-3.607-10.57-2.229-11.61c1.028-0.776-3.473-12.962-3.943-14.439  c-2.012-6.303-4.359-12.512-7.162-18.508c-4.344-9.293-9.566-18.043-14.941-26.713c-5.451-8.798-11.885-17.588-19.684-24.705  C191.643,116.708,202.104,118.312,201.613,116.588" id="path283" style="fill:#FF8A00;"></path>

<path d="M227.614,321.125c-1.727,0-4.549,0.083-5.951-0.85C223.344,319.07,227.614,318.368,227.614,321.125" id="path285"></path>

<path d="M77.985,328.28c-1.435-0.399-1.678-1.71-2.126-2.905C75.966,326.782,77.985,326.762,77.985,328.28" id="path287" style="fill:#FF8000;"></path>

<path d="M227.969,336.427c-0.952,0.232-1.07-0.051-0.354-0.85  C227.645,335.899,227.763,336.183,227.969,336.427" id="path289" style="fill:#FF8000;"></path>


  
</svg>
