<?xml version="1.0" encoding="utf-8"?>
<!-- Generator: Adobe Illustrator 10.0.3, SVG Export Plug-In . SVG Version: 3.0.0 Build 77)  --><svg enable-background="new 0 0 303.196 413.122" height="413.122" i:pageBounds="43 718.8887 553.2363 123.6133" i:rulerOrigin="-43 -123.6133" i:viewOrigin="148.1714 630.9072" overflow="visible" space="preserve" viewBox="0 0 303.196 413.122" width="303.196" xmlns="http://www.w3.org/2000/svg" xmlns:a="http://ns.adobe.com/AdobeSVGViewerExtensions/3.0/" xmlns:graph="http://ns.adobe.com/Graphs/1.0/" xmlns:i="http://ns.adobe.com/AdobeIllustrator/10.0/" xmlns:x="http://ns.adobe.com/Extensibility/1.0/" xmlns:xlink="http://www.w3.org/1999/xlink">
  <metadata>
    <rdf:RDF xmlns:cc="http://web.resource.org/cc/" xmlns:dc="http://purl.org/dc/elements/1.1/" xmlns:rdf="http://www.w3.org/1999/02/22-rdf-syntax-ns#">
      <cc:Work rdf:about="">
        <dc:title>Cute skull</dc:title>
        <dc:description></dc:description>
        <dc:subject>
          <rdf:Bag>
            <rdf:li>skull</rdf:li>
            <rdf:li>piracy</rdf:li>
          </rdf:Bag>
        </dc:subject>
        <dc:publisher>
          <cc:Agent rdf:about="http://www.openclipart.org">
            <dc:title>Fredrik Holmqvist</dc:title>
          </cc:Agent>
        </dc:publisher>
        <dc:creator>
          <cc:Agent>
            <dc:title>Fredrik Holmqvist</dc:title>
          </cc:Agent>
        </dc:creator>
        <dc:rights>
          <cc:Agent>
            <dc:title>Fredrik Holmqvist</dc:title>
          </cc:Agent>
        </dc:rights>
        <dc:date></dc:date>
        <dc:format>image/svg+xml</dc:format>
        <dc:type rdf:resource="http://purl.org/dc/dcmitype/StillImage"/>
        <cc:license rdf:resource="http://web.resource.org/cc/PublicDomain"/>
        <dc:language>en</dc:language>
      </cc:Work>
      <cc:License rdf:about="http://web.resource.org/cc/PublicDomain">
        <cc:permits rdf:resource="http://web.resource.org/cc/Reproduction"/>
        <cc:permits rdf:resource="http://web.resource.org/cc/Distribution"/>
        <cc:permits rdf:resource="http://web.resource.org/cc/DerivativeWorks"/>
      </cc:License>
    </rdf:RDF>
  </metadata>
  <g i:dimmedPercent="50" i:layer="yes" i:rgbTrio="#4F008000FFFF" id="Layer_1">
    <g>
      <path d="M215.84,242.184c-0.028-0.269-0.031-0.535-0.052-0.804     c-0.204,0.309-0.423,0.617-0.649,0.925C215.371,242.266,215.61,242.221,215.84,242.184z" fill="none" i:knockout="Off"/>
      <path d="M263.418,311.188c-3.609-1.66-6.87-4.097-9.477-7.229     c-6.189,4.576-13.189,9.272-20.863,14.001c0.971,0.696,1.928,1.39,2.863,2.081C242.53,312.126,253.237,308.554,263.418,311.188z" fill="none" i:knockout="Off"/>
      <path d="M21.777,312.812c3.61,1.66,6.871,4.097,9.478,7.229     c6.189-4.576,13.188-9.271,20.862-14.001c-0.97-0.696-1.927-1.39-2.862-2.081C42.667,311.874,31.96,315.446,21.777,312.812z" fill="none" i:knockout="Off"/>
      <path d="M21.777,312.812c-1.506-0.692-3.066-1.262-4.676-1.669     c0.302,0.141,0.603,0.281,0.912,0.412C19.253,312.078,20.512,312.484,21.777,312.812z" fill="#EEEEE1" i:knockout="Off"/>
      <path d="M263.418,311.188c1.506,0.692,3.065,1.262,4.674,1.669     c-0.301-0.141-0.602-0.282-0.91-0.412C265.942,311.922,264.684,311.516,263.418,311.188z" fill="#EEEEE1" i:knockout="Off"/>
      <path d="M151.599,262.5h-0.003H151.599z" fill="#EEEEE1" i:knockout="Off"/>
      <path d="M241.516,25.967c22.449,21.285,36.082,50.852,36.082,87.411     c0,20.736-4.676,42.822-18.117,59.185c-8.236,10.026-18.723,17.207-30.586,22.225c-9.082,3.84-18.936,5.461-23.766,14.997     c-4.809,9.491-3.758,16.239-13.086,23.548c-15.846,12.416-38.945,15.047-58.446,15.047c-15.153,0-32.478-1.592-46.885-8.126     c1.402,2.419,3.35,4.778,6.44,7.2c13.691,10.728,32.796,14.147,50.317,14.881c2.757,0.115,5.477,0.166,8.128,0.166     c19.5,0,42.6-2.631,58.445-15.047c2.211-1.733,3.835-3.435,5.096-5.148c0.227-0.308,0.445-0.616,0.649-0.925     c3.452-5.225,3.876-10.638,7.341-17.475c2.741-5.413,7.104-8.274,12.021-10.439c3.748-1.65,7.816-2.897,11.744-4.558     c11.863-5.018,22.35-12.198,30.586-22.225c13.441-16.362,18.117-38.448,18.117-59.185     C295.598,81.99,274.48,47.313,241.516,25.967z" fill="#DBDBBC" i:knockout="Off"/>
      <path d="M133.599,248.379h-0.001h-0.001H133.599z" fill="#EEEEE1" i:knockout="Off"/>
      <path d="M241.516,25.967C216.875,10.01,185.618,1.5,151.598,1.5     c-79.529,0-144,46.471-144,125.999c0,20.736,4.675,42.822,18.117,59.185c0.943,1.148,1.92,2.255,2.921,3.33     c7.739,8.308,17.161,14.451,27.666,18.893c2.165,0.916,4.374,1.705,6.548,2.506c6.946,2.558,13.539,5.229,17.218,12.492     c3.215,6.347,3.814,11.467,6.645,16.348c14.407,6.534,31.732,8.126,46.885,8.126c19.5,0,42.6-2.631,58.446-15.047     c9.328-7.309,8.277-14.057,13.086-23.548c4.83-9.536,14.684-11.157,23.766-14.997c11.863-5.018,22.35-12.198,30.586-22.225     c13.441-16.362,18.117-38.448,18.117-59.185C277.598,76.818,263.965,47.251,241.516,25.967z" fill="#F2F2E4" i:knockout="Off"/>
    </g>
    <path d="    M285.182,326.566c-11.22-4.732-23.835-1.303-31.241,7.596c-9.399-6.95-16.929-11.618-22.651-15.102    c8.383-5.1,15.982-10.17,22.651-15.102c7.406,8.898,20.021,12.328,31.241,7.596c13.74-5.795,20.18-21.631,14.384-35.371    c-2.688-6.373-7.537-11.172-13.334-13.912c2.083-6.062,2.031-12.885-0.657-19.258c-5.795-13.74-21.631-20.18-35.371-14.385    c-11.22,4.732-17.567,16.16-16.364,27.676c-22.87,3.729-51.575,11.898-82.241,23.9c-30.667-12.002-59.371-20.172-82.242-23.9    c1.203-11.516-5.145-22.943-16.364-27.676c-13.74-5.795-29.576,0.645-35.371,14.385c-2.688,6.373-2.74,13.195-0.657,19.258    c-5.797,2.74-10.646,7.539-13.334,13.912c-5.796,13.74,0.644,29.576,14.384,35.371c11.221,4.732,23.835,1.303,31.241-7.596    c6.669,4.932,14.269,10.002,22.651,15.102c-8.382,5.102-15.982,10.17-22.651,15.102c-7.406-8.898-20.021-12.328-31.241-7.596    c-13.739,5.797-20.18,21.633-14.384,35.371c2.688,6.375,7.537,11.172,13.335,13.912c-2.084,6.064-2.032,12.885,0.656,19.26    c5.795,13.738,21.631,20.178,35.371,14.383c11.22-4.732,17.567-16.16,16.364-27.676c22.871-3.727,51.575-11.896,82.242-23.9    c30.666,12.004,59.371,20.174,82.241,23.9c-1.203,11.516,5.145,22.943,16.364,27.676c13.74,5.795,29.576-0.645,35.371-14.383    c2.688-6.375,2.74-13.195,0.656-19.26c5.798-2.74,10.647-7.537,13.335-13.912C305.362,348.199,298.921,332.363,285.182,326.566z" fill="#DBDBBC" i:knockout="Off" stroke="#000000" stroke-linecap="round" stroke-linejoin="round" stroke-width="3"/>
    <path d="    M151.596,262.5c19.502,0,42.602-2.631,58.447-15.047c9.327-7.309,8.277-14.057,13.085-23.548    c4.831-9.536,14.685-11.157,23.767-14.997c11.863-5.018,22.35-12.198,30.586-22.225c13.441-16.362,18.117-38.448,18.117-59.185    c0-79.528-64.472-125.999-144-125.999c-79.529,0-144,46.471-144,125.999c0,20.736,4.675,42.822,18.117,59.185    c8.236,10.026,18.723,17.207,30.587,22.225c9.082,3.84,18.935,5.461,23.766,14.997c4.808,9.491,3.758,16.239,13.085,23.548    c15.846,12.416,38.946,15.047,58.447,15.047H151.596z" fill="none" i:knockout="Off" stroke="#000000" stroke-linecap="round" stroke-linejoin="round" stroke-width="3"/>
    <g>
      <linearGradient gradientTransform="matrix(1 0 0 1 338.6709 0.5928)" gradientUnits="userSpaceOnUse" id="XMLID_1_" x1="-251.3721" x2="-251.3721" y1="205.2646" y2="111.5499">
        <stop offset="0.0337" style="stop-color:#4F4F4F"/>
        <stop offset="0.2216" style="stop-color:#494949"/>
        <stop offset="0.483" style="stop-color:#373737"/>
        <stop offset="0.7859" style="stop-color:#191919"/>
        <stop offset="1" style="stop-color:#000000"/>
        <a:midPointStop offset="0.0337" style="stop-color:#4F4F4F"/>
        <a:midPointStop offset="0.6364" style="stop-color:#4F4F4F"/>
        <a:midPointStop offset="1" style="stop-color:#000000"/>
      </linearGradient>
      <path d="M120.887,175.541     c-6.8,18.684-27.458,28.316-46.142,21.517c-18.683-6.8-28.316-27.458-21.516-46.142s30.537-36.773,49.22-29.974     C121.133,127.742,127.688,156.858,120.887,175.541z" fill="url(#XMLID_1_)" i:knockout="Off" stroke="#000000" stroke-width="3"/>
      <linearGradient gradientTransform="matrix(1 0 0 1 338.6709 0.5928)" gradientUnits="userSpaceOnUse" id="XMLID_2_" x1="-122.7744" x2="-122.7744" y1="205.2646" y2="111.5499">
        <stop offset="0.0337" style="stop-color:#4F4F4F"/>
        <stop offset="0.2216" style="stop-color:#494949"/>
        <stop offset="0.483" style="stop-color:#373737"/>
        <stop offset="0.7859" style="stop-color:#191919"/>
        <stop offset="1" style="stop-color:#000000"/>
        <a:midPointStop offset="0.0337" style="stop-color:#4F4F4F"/>
        <a:midPointStop offset="0.6364" style="stop-color:#4F4F4F"/>
        <a:midPointStop offset="1" style="stop-color:#000000"/>
      </linearGradient>
      <path d="M249.965,150.916     c6.801,18.684-2.832,39.342-21.516,46.142s-39.342-2.833-46.143-21.517c-6.799-18.683-0.246-47.799,18.439-54.599     C219.43,114.143,243.165,132.232,249.965,150.916z" fill="url(#XMLID_2_)" i:knockout="Off" stroke="#000000" stroke-width="3"/>
    </g>
    <g>
      <linearGradient gradientTransform="matrix(1 0 0 1 338.6714 0.5928)" gradientUnits="userSpaceOnUse" id="XMLID_3_" x1="-203.645" x2="-188.5649" y1="193.5273" y2="193.5273">
        <stop offset="0.0337" style="stop-color:#4F4F4F"/>
        <stop offset="0.2216" style="stop-color:#494949"/>
        <stop offset="0.483" style="stop-color:#373737"/>
        <stop offset="0.7859" style="stop-color:#191919"/>
        <stop offset="1" style="stop-color:#000000"/>
        <a:midPointStop offset="0.0337" style="stop-color:#4F4F4F"/>
        <a:midPointStop offset="0.6364" style="stop-color:#4F4F4F"/>
        <a:midPointStop offset="1" style="stop-color:#000000"/>
      </linearGradient>
      <path d="M146.392,199.925     c-2.647,6.97-5.079,7.698-7.402,6.815c-2.323-0.882-3.659-3.041-1.011-10.011c2.647-6.971,10.598-15.229,10.598-15.229     S149.039,192.954,146.392,199.925z" fill="url(#XMLID_3_)" i:knockout="Off" stroke="#000000" stroke-linejoin="round" stroke-width="3"/>
      <linearGradient gradientTransform="matrix(1 0 0 1 338.6714 0.5928)" gradientUnits="userSpaceOnUse" id="XMLID_4_" x1="-185.5815" x2="-170.5024" y1="193.5273" y2="193.5273">
        <stop offset="0.0337" style="stop-color:#4F4F4F"/>
        <stop offset="0.2216" style="stop-color:#494949"/>
        <stop offset="0.483" style="stop-color:#373737"/>
        <stop offset="0.7859" style="stop-color:#191919"/>
        <stop offset="1" style="stop-color:#000000"/>
        <a:midPointStop offset="0.0337" style="stop-color:#4F4F4F"/>
        <a:midPointStop offset="0.6364" style="stop-color:#4F4F4F"/>
        <a:midPointStop offset="1" style="stop-color:#000000"/>
      </linearGradient>
      <path d="M156.804,199.925     c2.647,6.97,5.078,7.698,7.402,6.815c2.322-0.882,3.658-3.041,1.012-10.011c-2.648-6.971-10.598-15.229-10.598-15.229     S154.157,192.954,156.804,199.925z" fill="url(#XMLID_4_)" i:knockout="Off" stroke="#000000" stroke-linejoin="round" stroke-width="3"/>
    </g>
    <path d="M180.098,231.611" fill="none" i:knockout="Off" stroke="#000000" stroke-dasharray="6 6" stroke-width="10"/>
    <path d="M180.098,235.611" fill="none" i:knockout="Off" stroke="#000000" stroke-dasharray="6 6" stroke-width="10"/>
    <path d="M123.098,235.611" fill="none" i:knockout="Off" stroke="#000000" stroke-dasharray="6 6" stroke-width="10"/>
    <path d="M123.098,231.611" fill="none" i:knockout="Off" stroke="#000000" stroke-dasharray="6 6" stroke-width="10"/>
    <path d="M160.927,278.09c26.663-10.436,41.232-16.569,64.754-20.404l8.158-1.381l1.958-6.24    c-0.875-8.373,3.752-16.199,11.516-19.474c4.676-1.972,9.842-2.005,14.543-0.094s8.375,5.54,10.348,10.216    c1.527,3.621,1.352,8.053-0.537,13.55l-2.326,6.772l6.473,3.06c4.891,2.312,8.771,5.972,10.383,9.789    c1.973,4.677,2.006,9.841,0.094,14.542s-5.539,8.377-10.215,10.349c-7.766,3.274-16.6,1.128-21.984-5.343l-4.832-5.805    l-6.074,4.49c-5.473,4.048-12.355,8.217-19.643,12.631l-14.779,8.966l11.369,6.771l4.08,2.434    c5.299,3.133,11.895,7.032,18.975,12.267l7.829,4.5l4.666-5c5.385-6.471,12.628-9.432,20.392-6.157    c7.25,3.059,11.617,10.118,11.617,17.532c0,2.458-0.48,4.955-1.494,7.358c-1.414,3.353-4.615,6.062-10.383,8.789l-6.475,3.06    l2.328,6.772c1.039,3.025,1.564,6.045,1.564,8.757c0,2.183-0.34,4.167-1.027,5.795c-4.07,9.651-15.236,14.191-24.891,10.12    c-7.764-3.274-12.391-11.101-11.516-19.474l0.783-7.512l-7.455-1.215c-23.525-3.834-53.951-15.019-80.612-25.454l-2.916-1.142    l-2.916,1.142c-26.66,10.436-57.086,21.62-80.611,25.454l-7.454,1.215l0.784,7.512c0.875,8.373-3.753,16.199-11.518,19.474    c-9.653,4.071-20.819-0.469-24.891-10.121c-1.738-4.122-1.045-10.943,0.538-15.551l2.327-6.771l-6.474-3.061    c-5.496-2.599-8.938-4.364-10.381-7.787c-4.073-9.654,0.467-20.819,10.121-24.893c7.763-3.274,20.164-6.535,25.55-0.064    l5.674,3.222l2.907,2.477c5.456-4.035,17.76-9.811,17.76-9.811l15.323-10.706l-11.273-6.829l-3.408-2.067    c-7.287-4.414-14.17-8.583-19.644-12.632l-6.073-4.491l-4.832,5.806c-5.386,6.471-14.221,8.617-21.984,5.343    c-4.677-1.972-8.305-5.647-10.217-10.349c-1.911-4.701-1.878-9.865,0.096-14.541c1.414-3.354,6.033-7.091,11.799-9.816    l5.097-3.059l-2.368-5.748c-1.876-5.459-2.077-10.897-0.538-14.549c1.973-4.676,5.647-8.305,10.349-10.216    s9.866-1.878,14.543,0.094c7.764,3.274,13.392,9.101,12.517,17.474l-0.784,7.512l7.454,1.215    c35.944,4.228,81.99,27.79,81.99,27.79L160.927,278.09z" fill="#F2F2E4" i:knockout="Off"/>
    <path d="    M285.182,326.566c-11.22-4.732-23.835-1.303-31.241,7.596c-9.399-6.95-16.929-11.618-22.651-15.102    c8.383-5.1,15.982-10.17,22.651-15.102c7.406,8.898,20.021,12.328,31.241,7.596c13.74-5.795,20.18-21.631,14.384-35.371    c-2.688-6.373-7.537-11.172-13.334-13.912c2.083-6.062,2.031-12.885-0.657-19.258c-5.795-13.74-21.631-20.18-35.371-14.385    c-11.22,4.732-17.567,16.16-16.364,27.676c-22.87,3.729-51.575,11.898-82.241,23.9c-30.667-12.002-59.371-20.172-82.242-23.9    c1.203-11.516-5.145-22.943-16.364-27.676c-13.74-5.795-29.576,0.645-35.371,14.385c-2.688,6.373-2.74,13.195-0.657,19.258    c-5.797,2.74-10.646,7.539-13.334,13.912c-5.796,13.74,0.644,29.576,14.384,35.371c11.221,4.732,23.835,1.303,31.241-7.596    c6.669,4.932,14.269,10.002,22.651,15.102c-8.382,5.102-15.982,10.17-22.651,15.102c-7.406-8.898-20.021-12.328-31.241-7.596    c-13.739,5.797-20.18,21.633-14.384,35.371c2.688,6.375,7.537,11.172,13.335,13.912c-2.084,6.064-2.032,12.885,0.656,19.26    c5.795,13.738,21.631,20.178,35.371,14.383c11.22-4.732,17.567-16.16,16.364-27.676c22.871-3.727,51.575-11.896,82.242-23.9    c30.666,12.004,59.371,20.174,82.241,23.9c-1.203,11.516,5.145,22.943,16.364,27.676c13.74,5.795,29.576-0.645,35.371-14.383    c2.688-6.375,2.74-13.195,0.656-19.26c5.798-2.74,10.647-7.537,13.335-13.912C305.362,348.199,298.921,332.363,285.182,326.566z" fill="none" i:knockout="Off" stroke="#000000" stroke-linecap="round" stroke-linejoin="round" stroke-width="3"/>
    <g>
      <path d="M123.098,237.611v-8" fill="none" i:knockout="Off" stroke="#000000" stroke-linecap="round" stroke-width="3"/>
      <path d="M137.348,229.611v8" fill="none" i:knockout="Off" stroke="#000000" stroke-linecap="round" stroke-width="3"/>
      <path d="M151.598,229.611v8" fill="none" i:knockout="Off" stroke="#000000" stroke-linecap="round" stroke-width="3"/>
      <path d="M165.848,229.611v8" fill="none" i:knockout="Off" stroke="#000000" stroke-linecap="round" stroke-width="3"/>
      <path d="M180.098,229.611v8" fill="none" i:knockout="Off" stroke="#000000" stroke-linecap="round" stroke-width="3"/>
    </g>
  </g>
</svg>
