<?xml version="1.0" encoding="UTF-8" standalone="no"?>
<!-- Created with Inkscape (http://www.inkscape.org/) --><svg height="64.000000" id="svg1291" version="1.0" width="64.000000" x="0.0000000" xmlns="http://www.w3.org/2000/svg" xmlns:svg="http://www.w3.org/2000/svg" xmlns:xlink="http://www.w3.org/1999/xlink" y="0.0000000">
  <metadata>
    <rdf:RDF xmlns:cc="http://web.resource.org/cc/" xmlns:dc="http://purl.org/dc/elements/1.1/" xmlns:rdf="http://www.w3.org/1999/02/22-rdf-syntax-ns#">
      <cc:Work rdf:about="">
        <dc:title>blueberry - iconset</dc:title>
        <dc:description></dc:description>
        <dc:subject>
          <rdf:Bag>
            <rdf:li>icon</rdf:li>
            <rdf:li>desktop</rdf:li>
            <rdf:li>computer</rdf:li>
          </rdf:Bag>
        </dc:subject>
        <dc:publisher>
          <cc:Agent rdf:about="http://www.openclipart.org/">
            <dc:title>Open Clip Art Library</dc:title>
          </cc:Agent>
        </dc:publisher>
        <dc:creator>
          <cc:Agent>
            <dc:title>Marko J. Kolehmainen</dc:title>
          </cc:Agent>
        </dc:creator>
        <dc:rights>
          <cc:Agent>
            <dc:title>Marko J. Kolehmainen</dc:title>
          </cc:Agent>
        </dc:rights>
        <dc:date></dc:date>
        <dc:format>image/svg+xml</dc:format>
        <dc:type rdf:resource="http://purl.org/dc/dcmitype/StillImage"/>
        <cc:license rdf:resource="http://web.resource.org/cc/PublicDomain"/>
        <dc:language>en</dc:language>
      </cc:Work>
      <cc:License rdf:about="http://web.resource.org/cc/PublicDomain">
        <cc:permits rdf:resource="http://web.resource.org/cc/Reproduction"/>
        <cc:permits rdf:resource="http://web.resource.org/cc/Distribution"/>
        <cc:permits rdf:resource="http://web.resource.org/cc/DerivativeWorks"/>
      </cc:License>
    </rdf:RDF>
  </metadata>
  <defs id="defs3">
    <linearGradient id="linearGradient2138">
      <stop id="stop2140" offset="0.0000000" style="stop-color:#adc7d4;stop-opacity:1.0000000;"/>
      <stop id="stop2142" offset="1.0000000" style="stop-color:#afa5ba;stop-opacity:1.0000000;"/>
    </linearGradient>
    <linearGradient id="linearGradient2088">
      <stop id="stop2090" offset="0.0000000" style="stop-color:#87a8b7;stop-opacity:1.0000000;"/>
      <stop id="stop2092" offset="1.0000000" style="stop-color:#7f718e;stop-opacity:1.0000000;"/>
    </linearGradient>
    <linearGradient id="linearGradient2076">
      <stop id="stop2078" offset="0.0000000" style="stop-color:#afd9ed;stop-opacity:1.0000000;"/>
      <stop id="stop2080" offset="1.0000000" style="stop-color:#cfc3db;stop-opacity:1.0000000;"/>
    </linearGradient>
    <linearGradient gradientTransform="matrix(1.186331,2.959599e-16,-1.945944e-16,0.780016,3.107303,2.418567)" gradientUnits="userSpaceOnUse" id="linearGradient2082" x1="12.615197" x2="48.374069" xlink:href="#linearGradient2076" y1="25.909756" y2="62.720371"/>
    <linearGradient gradientTransform="matrix(1.186331,2.959599e-16,-1.945944e-16,0.780016,4.607300,2.418567)" gradientUnits="userSpaceOnUse" id="linearGradient2086" x1="12.615197" x2="48.374069" xlink:href="#linearGradient2088" y1="25.909756" y2="62.720371"/>
    <linearGradient gradientTransform="matrix(1.186331,2.959599e-16,-1.945944e-16,0.780016,1.169800,-8.916673)" gradientUnits="userSpaceOnUse" id="linearGradient2134" x1="12.615197" x2="48.374069" xlink:href="#linearGradient2088" y1="25.909756" y2="62.720371"/>
    <linearGradient gradientTransform="matrix(1.186331,2.959599e-16,-1.945944e-16,0.780016,-0.392697,-8.916673)" gradientUnits="userSpaceOnUse" id="linearGradient2136" x1="12.615197" x2="48.374069" xlink:href="#linearGradient2138" y1="25.909756" y2="62.720371"/>
    <linearGradient gradientTransform="matrix(1.186331,2.959599e-16,-1.945944e-16,0.780016,-63.89270,-38.20439)" gradientUnits="userSpaceOnUse" id="linearGradient2198" x1="12.615197" x2="48.374069" xlink:href="#linearGradient2088" y1="25.909756" y2="62.720371"/>
  </defs>
  <g id="layer1">
    <path d="M 35.751374,17.449824 C 35.006471,16.985063 21.574881,26.266313 20.829978,26.731074 C 20.085075,27.195835 5.9375000,35.082802 5.9375000,36.012324 C 5.9375000,36.941846 20.085075,44.860063 20.829978,45.324824 C 21.574881,45.789585 35.006472,55.070836 35.751374,54.606074 C 36.201271,54.325374 36.098454,48.729562 35.953796,43.512324 L 62.037321,43.512324 C 62.293645,43.512324 62.500000,43.289324 62.500000,43.012324 L 62.500000,29.012324 C 62.500000,28.735324 62.293645,28.512324 62.037321,28.512324 L 35.953796,28.512324 C 36.098455,23.295087 36.201270,17.730524 35.751374,17.449824 z " id="path2084" style="fill:url(#linearGradient2086);fill-opacity:1.0000000;stroke:none;stroke-width:0.37500000;stroke-miterlimit:4.0000000;stroke-opacity:1.0000000"/>
    <path d="M 34.251374,17.449824 C 33.506471,16.985063 20.074881,26.266313 19.329978,26.731074 C 18.585075,27.195835 4.4375000,35.082802 4.4375000,36.012324 C 4.4375000,36.941846 18.585075,44.860063 19.329978,45.324824 C 20.074881,45.789585 33.506472,55.070836 34.251374,54.606074 C 34.701271,54.325374 34.598454,48.729562 34.453796,43.512324 L 60.537321,43.512324 C 60.793645,43.512324 61.000000,43.289324 61.000000,43.012324 L 61.000000,29.012324 C 61.000000,28.735324 60.793645,28.512324 60.537321,28.512324 L 34.453796,28.512324 C 34.598455,23.295087 34.701270,17.730524 34.251374,17.449824 z " id="rect1303" style="fill:url(#linearGradient2082);fill-opacity:1.0000000;stroke:none;stroke-width:0.37500000;stroke-miterlimit:4.0000000;stroke-opacity:1.0000000"/>
    <path d="M 8.1939750,35.857794 C 8.1939750,35.857794 16.360642,29.191126 17.860642,29.191126 C 19.360642,29.191126 31.076347,21.085465 32.076347,22.085464 C 33.076347,23.085464 20.860642,29.191126 20.860642,29.191126 C 20.860642,29.191126 13.527309,35.024459 8.1939750,35.857794 z " id="path2096" style="fill:#d0f1fc;fill-opacity:1.0000000;fill-rule:evenodd;stroke:none;stroke-width:1.0000000px;stroke-linecap:butt;stroke-linejoin:miter;stroke-opacity:1.0000000"/>
    <rect height="1.0000000" id="rect2098" rx="0.50000000" ry="0.50000000" style="fill:#d0f1fc;fill-opacity:1.0000000;stroke:none;stroke-width:0.37500000;stroke-miterlimit:4.0000000;stroke-opacity:1.0000000" width="23.000000" x="37.000000" y="30.000000"/>
    <path d="M 32.313874,6.1145826 C 31.568971,5.6498216 18.137381,14.931072 17.392478,15.395833 C 16.647575,15.860594 2.5000000,23.747561 2.5000000,24.677083 C 2.5000000,25.606605 16.647575,33.524822 17.392478,33.989583 C 18.137381,34.454344 31.568972,43.735595 32.313874,43.270833 C 32.763771,42.990133 32.660954,37.394321 32.516296,32.177083 L 58.599821,32.177083 C 58.856145,32.177083 59.062500,31.954083 59.062500,31.677083 L 59.062500,17.677083 C 59.062500,17.400083 58.856145,17.177083 58.599821,17.177083 L 32.516296,17.177083 C 32.660955,11.959846 32.763770,6.3952826 32.313874,6.1145826 z " id="path2126" style="fill:url(#linearGradient2134);fill-opacity:1.0000000;stroke:none;stroke-width:0.37500000;stroke-miterlimit:4.0000000;stroke-opacity:1.0000000"/>
    <path d="M 30.751374,6.1145826 C 30.006471,5.6498216 16.574881,14.931072 15.829978,15.395833 C 15.085075,15.860594 0.93750000,23.747561 0.93750000,24.677083 C 0.93750000,25.606605 15.085075,33.524822 15.829978,33.989583 C 16.574881,34.454344 30.006472,43.735595 30.751374,43.270833 C 31.201271,42.990133 31.098454,37.394321 30.953796,32.177083 L 57.037321,32.177083 C 57.293645,32.177083 57.500000,31.954083 57.500000,31.677083 L 57.500000,17.677083 C 57.500000,17.400083 57.293645,17.177083 57.037321,17.177083 L 30.953796,17.177083 C 31.098455,11.959846 31.201270,6.3952826 30.751374,6.1145826 z " id="path2128" style="fill:url(#linearGradient2136);fill-opacity:1.0000000;stroke:none;stroke-width:0.37500000;stroke-miterlimit:4.0000000;stroke-opacity:1.0000000"/>
    <path d="M 4.5594194,24.857793 C 4.5594194,24.857793 12.726087,18.191126 14.226087,18.191125 C 15.726087,18.191126 27.441792,10.085464 28.441791,11.085464 C 29.441792,12.085463 17.226086,18.191125 17.226086,18.191125 C 17.226086,18.191125 9.8927540,24.024458 4.5594194,24.857793 z " id="path2130" style="fill:#cad8f4;fill-opacity:1.0000000;fill-rule:evenodd;stroke:none;stroke-width:1.0000000px;stroke-linecap:butt;stroke-linejoin:miter;stroke-opacity:1.0000000"/>
    <rect height="1.0000000" id="rect2132" rx="0.50000000" ry="0.50000000" style="fill:#cad8f4;fill-opacity:1.0000000;stroke:none;stroke-width:0.37500000;stroke-miterlimit:4.0000000;stroke-opacity:1.0000000" width="23.000000" x="33.500000" y="18.000000"/>
  </g>
</svg>
