<?xml version="1.0" encoding="UTF-8" standalone="no"?>
<!DOCTYPE svg PUBLIC "-//W3C//DTD SVG 1.0//EN"
"http://www.w3.org/TR/2001/REC-SVG-20010904/DTD/svg10.dtd">
<!-- Created with Inkscape (http://www.inkscape.org/) --><svg height="320.00000" id="svg2866" version="1.0" width="320.00000" x="0.0000000" xmlns="http://www.w3.org/2000/svg" xmlns:xlink="http://www.w3.org/1999/xlink" y="0.0000000">
  <metadata>
    <rdf:RDF xmlns:cc="http://web.resource.org/cc/" xmlns:dc="http://purl.org/dc/elements/1.1/" xmlns:rdf="http://www.w3.org/1999/02/22-rdf-syntax-ns#">
      <cc:Work rdf:about="">
        <dc:title>Etiquette Scanner</dc:title>
        <dc:description></dc:description>
        <dc:subject>
          <rdf:Bag>
            <rdf:li>hardware</rdf:li>
            <rdf:li>computer</rdf:li>
            <rdf:li>icons</rdf:li>
            <rdf:li>scanner</rdf:li>
          </rdf:Bag>
        </dc:subject>
        <dc:publisher>
          <cc:Agent rdf:about="http://www.openclipart.org">
            <dc:title>Andrew Fitzsimon</dc:title>
          </cc:Agent>
        </dc:publisher>
        <dc:creator>
          <cc:Agent>
            <dc:title>Andrew Fitzsimon</dc:title>
          </cc:Agent>
        </dc:creator>
        <dc:rights>
          <cc:Agent>
            <dc:title>Andrew Fitzsimon</dc:title>
          </cc:Agent>
        </dc:rights>
        <dc:date></dc:date>
        <dc:format>image/svg+xml</dc:format>
        <dc:type rdf:resource="http://purl.org/dc/dcmitype/StillImage"/>
        <cc:license rdf:resource="http://web.resource.org/cc/PublicDomain"/>
        <dc:language>en</dc:language>
      </cc:Work>
      <cc:License rdf:about="http://web.resource.org/cc/PublicDomain">
        <cc:permits rdf:resource="http://web.resource.org/cc/Reproduction"/>
        <cc:permits rdf:resource="http://web.resource.org/cc/Distribution"/>
        <cc:permits rdf:resource="http://web.resource.org/cc/DerivativeWorks"/>
      </cc:License>
    </rdf:RDF>
  </metadata>
  <defs id="defs2868">
    <linearGradient id="linearGradient8471" x1="0.53342986" x2="0.55294120" xlink:href="#linearGradient8481" y1="1.6065037" y2="0.35245901"/>
    <linearGradient id="linearGradient1718" x1="0.60000002" x2="0.63921571" xlink:href="#linearGradient8468" y1="1.9516129" y2="0.67741936"/>
    <linearGradient id="linearGradient1726" x1="-0.19607843" x2="0.078431375" xlink:href="#linearGradient8474" y1="-0.37096775" y2="1.5403225"/>
    <linearGradient id="linearGradient8478" x1="0.54509807" x2="0.54509807" xlink:href="#linearGradient8468" y1="1.5694509" y2="0.36111110"/>
    <linearGradient id="linearGradient1727" x1="0.59215689" x2="0.60000002" xlink:href="#linearGradient1806" y1="0.15107913" y2="0.76978415"/>
    <linearGradient id="linearGradient8487" x1="0.60337555" x2="0.74261606" xlink:href="#linearGradient8474" y1="0.11718750" y2="1.0546875"/>
    <linearGradient id="linearGradient1723" x1="0.64705884" x2="0.65490198" xlink:href="#linearGradient1806" y1="0.51219511" y2="0.97560978"/>
    <linearGradient id="linearGradient1720" x1="-5.5944832e-17" x2="1.0000000" xlink:href="#linearGradient8474" y1="0.50000000" y2="0.50000000"/>
    <linearGradient id="linearGradient1721" x1="0.76923078" x2="0.58041960" xlink:href="#linearGradient8474" y1="0.64062500" y2="-0.91406250"/>
    <linearGradient id="linearGradient1649" x1="0.64539009" x2="0.63829786" xlink:href="#linearGradient1806" y1="0.43750000" y2="0.86718750"/>
    <linearGradient id="linearGradient8485" x1="-0.46178386" x2="0.71345031" xlink:href="#linearGradient8481" y1="-1.2765725" y2="0.78125000"/>
    <linearGradient id="linearGradient8472" x1="0.46274510" x2="0.45098040" xlink:href="#linearGradient8468" y1="0.085937500" y2="2.0234375"/>
    <linearGradient id="linearGradient8481">
      <stop id="stop8482" offset="0.0000000" style="stop-color:#ffffff;stop-opacity:1.0000000;"/>
      <stop id="stop8483" offset="1.0000000" style="stop-color:#ffffff;stop-opacity:0.0039215689;"/>
    </linearGradient>
    <linearGradient id="linearGradient8480" x1="0.63436121" x2="0.62555069" xlink:href="#linearGradient8481" y1="1.0546875" y2="0.54687500"/>
    <linearGradient id="linearGradient8474">
      <stop id="stop8475" offset="0.0000000" style="stop-color:#ffffff;stop-opacity:1.0000000;"/>
      <stop id="stop8476" offset="1.0000000" style="stop-color:#a2a2a2;stop-opacity:1.0000000;"/>
    </linearGradient>
    <linearGradient id="linearGradient8473" x1="0.20095694" x2="0.59330142" xlink:href="#linearGradient8474" y1="-0.32031250" y2="1.0546875"/>
    <linearGradient id="linearGradient1806">
      <stop id="stop1807" offset="0.0000000" style="stop-color:#000000;stop-opacity:0.53103447;"/>
      <stop id="stop3276" offset="0.64777780" style="stop-color:#000000;stop-opacity:0.073446326;"/>
      <stop id="stop1808" offset="1.0000000" style="stop-color:#000000;stop-opacity:0.0000000;"/>
    </linearGradient>
    <radialGradient cx="0.49032259" cy="0.50649351" fx="0.50977784" fy="0.15800871" id="radialGradient1505" r="0.46014288" xlink:href="#linearGradient1806"/>
    <linearGradient id="linearGradient8468">
      <stop id="stop8469" offset="0.0000000" style="stop-color:#000000;stop-opacity:0.58620691;"/>
      <stop id="stop8470" offset="1.0000000" style="stop-color:#000000;stop-opacity:0.0068965517;"/>
    </linearGradient>
    <radialGradient cx="0.49032259" cy="0.50649351" fx="0.50977784" fy="0.15800871" id="radialGradient1719" r="0.46014288" xlink:href="#linearGradient8468"/>
    <linearGradient id="linearGradient1851">
      <stop id="stop1852" offset="0.0000000" style="stop-color:#000000;stop-opacity:0.37241378;"/>
      <stop id="stop1854" offset="0.50000000" style="stop-color:#000000;stop-opacity:0.11034483;"/>
      <stop id="stop1853" offset="1.0000000" style="stop-color:#adadad;stop-opacity:0.0000000;"/>
    </linearGradient>
    <radialGradient cx="0.50000000" cy="0.50000000" fx="0.51372552" fy="0.31578946" id="radialGradient1875" r="0.50000000" xlink:href="#linearGradient1851"/>
  </defs>
  <g id="g1875" transform="matrix(2.678142,0.000000,0.000000,2.678142,-79.85841,-63.37287)">
    <path d="M 82.055313 175.83524 A 56.143108 56.143108 0 1 0 -30.230904,175.83524 A 56.143108 56.143108 0 1 0 82.055313 175.83524 z" id="path8567" style="fill:url(#radialGradient1719);fill-opacity:1;fill-rule:evenodd;stroke-width:1.0000000pt;" transform="matrix(1.037697,0.000000,0.000000,0.973579,62.07941,-85.78565)"/>
    <path d="M 82.055313 175.83524 A 56.143108 56.143108 0 1 0 -30.230904,175.83524 A 56.143108 56.143108 0 1 0 82.055313 175.83524 z" id="path9968" style="fill:url(#radialGradient1505);fill-opacity:1;fill-rule:evenodd;stroke-width:1.0000000pt;" transform="matrix(1.095878,0.000000,0.000000,0.276872,62.61122,65.61453)"/>
    <path d="M 266.32168,261.71102 L 248.57527,463.42278 C 246.18949,490.54031 260.99197,498.75914 278.62586,498.75914 L 501.52085,498.75914 C 519.24482,498.75914 534.28607,490.71882 532.04469,463.42278 L 515.48137,261.71102 C 513.79373,241.15862 495.22664,227.84700 481.88148,227.84700 L 300.15818,227.84700 C 286.74676,227.84700 268.13618,241.08683 266.32168,261.71102 z " id="rect8459" style="fill:url(#linearGradient8473);fill-opacity:1;fill-rule:evenodd;stroke:none;stroke-width:1.0000000pt;stroke-linecap:butt;stroke-linejoin:miter;stroke-opacity:1.0000000;" transform="matrix(0.348844,0.000000,0.000000,0.348844,-46.78943,-45.35393)"/>
    <path d="M 270.40645,251.95672 L 253.24477,456.02853 C 251.02336,482.44360 265.25236,482.56331 282.30520,482.56331 L 497.85576,482.56331 C 514.99572,482.56331 529.46045,482.61312 527.37383,456.02853 L 511.35627,251.95672 C 509.78516,231.94000 491.76895,219.01290 478.86351,219.01290 L 303.12802,219.01290 C 290.15851,219.01290 272.09594,231.86678 270.40645,251.95672 z " id="path8479" style="fill:url(#linearGradient8480);fill-opacity:1;fill-rule:evenodd;stroke:none;stroke-width:1.0000000pt;stroke-linecap:butt;stroke-linejoin:miter;stroke-opacity:1.0000000;" transform="matrix(0.348844,0.000000,0.000000,0.348844,-46.78943,-45.35393)"/>
    <path d="M 290.47202,255.32675 L 276.18281,412.66793 C 274.38455,432.46887 286.18060,437.08956 300.37920,437.08956 L 479.85170,437.08956 C 494.12283,437.08956 506.11836,432.59686 504.42914,412.66793 L 491.09255,255.32675 C 489.82066,240.32138 474.78368,239.45673 464.03830,239.45673 L 317.71678,239.45673 C 306.91806,239.45673 291.83968,240.26718 290.47202,255.32675 z " id="path8461" style="fill:url(#linearGradient8472);fill-opacity:1.0000000;fill-rule:evenodd;stroke:none;stroke-width:0.80658455pt;stroke-linecap:butt;stroke-linejoin:miter;stroke-opacity:1.0000000;" transform="matrix(0.348844,0.000000,0.000000,0.348844,-46.78943,-45.35393)"/>
    <path d="M 276.18281,387.68135 C 273.89799,407.43206 286.18060,437.08956 300.37920,437.08956 L 479.85170,437.08956 C 494.12283,437.08956 506.57612,407.56617 504.42914,387.68135 L 491.09255,264.16084 C 431.50264,384.45852 311.67939,286.12360 276.18281,387.68135 z " id="path8484" style="fill:url(#linearGradient8485);fill-opacity:1.0000000;fill-rule:evenodd;stroke:none;stroke-width:0.80658455pt;stroke-linecap:butt;stroke-linejoin:miter;stroke-opacity:1.0000000;" transform="matrix(0.348844,0.000000,0.000000,0.348844,-46.78943,-45.35393)"/>
    <path d="M 270.40645,261.97738 L 253.24477,457.18156 C 251.02336,482.44880 265.25236,482.56331 282.30520,482.56331 L 497.85576,482.56331 C 514.99572,482.56331 529.46045,482.61096 527.37383,457.18156 L 511.35627,261.97738 C 509.78516,242.83046 491.76895,230.46508 478.86351,230.46508 L 303.12802,230.46508 C 290.15851,230.46508 272.09594,242.76042 270.40645,261.97738 z " id="path9973" style="fill:url(#linearGradient1649);fill-opacity:1;fill-rule:evenodd;stroke:none;stroke-width:1.0000000pt;stroke-linecap:butt;stroke-linejoin:miter;stroke-opacity:1.0000000;" transform="matrix(0.348844,0.000000,0.000000,0.348844,-46.78943,-45.35393)"/>
    <path d="M 270.40645,251.95672 L 253.24477,456.02853 C 251.02336,482.44360 265.25236,482.56331 282.30520,482.56331 L 497.85576,482.56331 C 514.99572,482.56331 529.46045,482.61312 527.37383,456.02853 L 511.35627,251.95672 C 509.78516,231.94000 491.76895,219.01290 478.86351,219.01290 L 303.12802,219.01290 C 290.15851,219.01290 272.09594,231.86678 270.40645,251.95672 z " id="path9974" style="fill:url(#linearGradient8480);fill-opacity:1;fill-rule:evenodd;stroke:none;stroke-width:1.0000000pt;stroke-linecap:butt;stroke-linejoin:miter;stroke-opacity:1.0000000;" transform="matrix(0.348844,0.000000,0.000000,0.348844,-46.78943,-45.35393)"/>
    <g id="g1708" transform="matrix(0.397731,0.000000,0.000000,0.380891,-198.1203,-81.33286)">
      <path d="M 645.84028,478.28435 L 657.61907,335.46654 L 790.13044,335.46654 L 803.98592,476.89114 L 645.84028,478.28435 z " id="path1719" style="fill:url(#linearGradient1721);fill-opacity:1.0000000;fill-rule:evenodd;stroke:url(#linearGradient1720);stroke-width:1.0000000pt;stroke-linecap:butt;stroke-linejoin:miter;stroke-opacity:0.22012575;"/>
      <path d="M 649.76787,411.66525 C 725.76873,432.14037 749.45653,395.46085 803.59413,422.18261 L 802.81069,463.57265 L 645.60344,464.61376 L 649.76787,411.66525 z " id="path1722" style="fill:url(#linearGradient1723);fill-opacity:1;fill-rule:evenodd;stroke:none;stroke-width:1.0000000pt;stroke-linecap:butt;stroke-linejoin:miter;stroke-opacity:1.0000000;"/>
    </g>
    <g id="g1866" transform="matrix(1.054342,0.000000,0.000000,1.054342,-4.352670,-1.775336)">
      <path d="M 283.00991,207.77390 L 266.73497,119.37540 C 264.13262,105.24064 278.12213,84.015994 294.29387,84.015994 L 498.70718,84.015994 C 514.96154,84.015994 529.14542,105.14466 526.70009,119.37540 L 511.51014,207.77390 C 509.66893,218.48885 492.93486,225.45360 480.69624,225.45360 L 314.04080,225.45360 C 301.74141,225.45360 284.98910,218.52409 283.00991,207.77390 z " id="path8486" style="fill:url(#linearGradient8487);fill-opacity:1;fill-rule:evenodd;stroke:url(#linearGradient1727);stroke-width:0.67866912pt;stroke-linecap:butt;stroke-linejoin:miter;stroke-opacity:0.32704404;" transform="matrix(0.348844,0.000000,0.000000,-0.348844,-49.69490,111.9102)"/>
      <path d="M 288.37582,207.64760 L 272.86903,133.34104 C 270.38951,121.45955 283.71874,103.61842 299.12720,103.61842 L 493.89256,103.61842 C 509.37974,103.61842 522.89416,121.37888 520.56425,133.34104 L 506.09124,207.64760 C 504.33693,216.65443 488.39268,222.50890 476.73170,222.50890 L 317.94211,222.50890 C 306.22323,222.50890 290.26160,216.68405 288.37582,207.64760 z " id="path8477" style="fill:url(#linearGradient8478);fill-opacity:1;fill-rule:evenodd;stroke:none;stroke-width:0.67866912pt;stroke-linecap:butt;stroke-linejoin:miter;stroke-opacity:1.0000000;" transform="matrix(0.348844,0.000000,0.000000,-0.348844,-49.69490,111.9102)"/>
      <path d="M 285.69287,208.75186 L 269.80200,132.60486 C 267.26106,120.42910 280.92043,102.14607 296.71054,102.14607 L 496.29987,102.14607 C 512.17064,102.14607 526.01979,120.34642 523.63217,132.60486 L 508.80069,208.75186 C 507.00293,217.98178 490.66377,223.98125 478.71397,223.98125 L 315.99145,223.98125 C 303.98232,223.98125 287.62535,218.01213 285.69287,208.75186 z " id="path8463" style="fill:url(#linearGradient1726);fill-opacity:1.0000000;fill-rule:evenodd;stroke:none;stroke-width:0.67866912pt;stroke-linecap:butt;stroke-linejoin:miter;stroke-opacity:1.0000000;" transform="matrix(0.348844,0.000000,0.000000,-0.348844,-49.69490,111.9102)"/>
      <path d="M 51.432222,37.935972 L 46.017312,64.268142 C 45.151472,68.478608 49.805985,74.801006 55.186562,74.801006 L 123.19787,74.801006 C 128.60593,74.801006 133.32513,68.507197 132.51153,64.268142 L 127.45761,37.935972 C 126.84502,34.744205 121.27734,32.669544 117.20537,32.669544 L 61.756656,32.669544 C 57.664471,32.669544 52.090726,34.733708 51.432222,37.935972 z " id="path1717" style="fill:url(#linearGradient1718);fill-opacity:1;fill-rule:evenodd;stroke:none;stroke-width:0.55278249pt;stroke-linecap:butt;stroke-linejoin:miter;stroke-opacity:1.0000000;"/>
      <path d="M 294.44987,205.52684 L 279.57989,134.70596 C 277.20219,123.38183 289.98403,106.37762 304.75973,106.37762 L 491.52680,106.37762 C 506.37797,106.37762 519.33743,123.30494 517.10319,134.70596 L 503.22454,205.52684 C 501.54229,214.11116 486.25280,219.69100 475.07068,219.69100 L 322.80198,219.69100 C 311.56436,219.69100 296.25820,214.13939 294.44987,205.52684 z " id="path8462" style="fill:url(#linearGradient8471);fill-opacity:1;fill-rule:evenodd;stroke:none;stroke-width:0.55278249pt;stroke-linecap:butt;stroke-linejoin:miter;stroke-opacity:1.0000000;" transform="matrix(0.348844,0.000000,0.000000,-0.348844,-49.69490,111.9102)"/>
    </g>
  </g>
  <path d="M -163.88631 598.36652 A 125.20509 125.20509 0 1 0 -414.29649,598.36652 A 125.20509 125.20509 0 1 0 -163.88631 598.36652 z" id="path10011" style="fill:url(#radialGradient1875);fill-opacity:1;fill-rule:evenodd;stroke:none;stroke-width:1.0000000pt;stroke-linecap:butt;stroke-linejoin:miter;stroke-opacity:1.0000000;" transform="matrix(-1.260740,0.000000,0.000000,0.148353,-205.8041,210.5542)"/>
</svg>
