<?xml version="1.0" encoding="UTF-8" standalone="no"?>
<!-- Created with Inkscape (http://www.inkscape.org/) --><svg height="297mm" id="svg2" inkscape:version="0.40+cvs" sodipodi:docbase="D:\" sodipodi:docname="mousepointer2_ink.svg" sodipodi:version="0.32" width="210mm" xmlns="http://www.w3.org/2000/svg" xmlns:cc="http://web.resource.org/cc/" xmlns:dc="http://purl.org/dc/elements/1.1/" xmlns:inkscape="http://www.inkscape.org/namespaces/inkscape" xmlns:rdf="http://www.w3.org/1999/02/22-rdf-syntax-ns#" xmlns:sodipodi="http://inkscape.sourceforge.net/DTD/sodipodi-0.dtd" xmlns:svg="http://www.w3.org/2000/svg" xmlns:xlink="http://www.w3.org/1999/xlink">
  <metadata>
    <rdf:RDF xmlns:cc="http://web.resource.org/cc/" xmlns:dc="http://purl.org/dc/elements/1.1/" xmlns:rdf="http://www.w3.org/1999/02/22-rdf-syntax-ns#">
      <cc:Work rdf:about="">
        <dc:title></dc:title>
        <dc:description></dc:description>
        <dc:subject>
          <rdf:Bag>
            <rdf:li></rdf:li>
            <rdf:li>11</rdf:li>
            <rdf:li>computer</rdf:li>
          </rdf:Bag>
        </dc:subject>
        <dc:publisher>
          <cc:Agent rdf:about="http://www.openclipart.org">
            <dc:title></dc:title>
          </cc:Agent>
        </dc:publisher>
        <dc:creator>
          <cc:Agent>
            <dc:title></dc:title>
          </cc:Agent>
        </dc:creator>
        <dc:rights>
          <cc:Agent>
            <dc:title></dc:title>
          </cc:Agent>
        </dc:rights>
        <dc:date></dc:date>
        <dc:format>image/svg+xml</dc:format>
        <dc:type rdf:resource="http://purl.org/dc/dcmitype/StillImage"/>
        <cc:license rdf:resource=""/>
        <dc:language>en</dc:language>
      </cc:Work>
    </rdf:RDF>
  </metadata>
  <defs id="defs3">
    <linearGradient id="linearGradient12411">
      <stop id="stop12413" offset="0.00000000" style="stop-color:#ff0000;stop-opacity:1.0000000;"/>
      <stop id="stop12415" offset="1.0000000" style="stop-color:#0000ff;stop-opacity:1.0000000;"/>
    </linearGradient>
    <linearGradient id="linearGradient11643">
      <stop id="stop11645" offset="0" style="stop-color:#ffffff;stop-opacity:1;"/>
      <stop id="stop11651" offset="0.49044585" style="stop-color:#ffffff;stop-opacity:0.49803922;"/>
      <stop id="stop11647" offset="1" style="stop-color:#ffffff;stop-opacity:0;"/>
    </linearGradient>
    <linearGradient id="linearGradient7601" inkscape:collect="always">
      <stop id="stop7603" offset="0" style="stop-color:#000000;stop-opacity:1;"/>
      <stop id="stop7605" offset="1" style="stop-color:#000000;stop-opacity:0;"/>
    </linearGradient>
    <linearGradient gradientTransform="matrix(0.755921,0.000000,0.000000,1.322890,-36.00000,0.000000)" gradientUnits="userSpaceOnUse" id="linearGradient7607" inkscape:collect="always" spreadMethod="reflect" x1="-526.86133" x2="1370.5586" xlink:href="#linearGradient7601" y1="45.132561" y2="471.38400"/>
    <linearGradient gradientTransform="matrix(0.323979,0.000000,0.000000,0.566975,399.6324,14.15086)" gradientUnits="userSpaceOnUse" id="linearGradient10869" inkscape:collect="always" spreadMethod="reflect" x1="-526.86133" x2="1370.5586" xlink:href="#linearGradient7601" y1="45.132561" y2="471.38400"/>
    <linearGradient gradientTransform="matrix(8.892150e-2,0.000000,0.000000,0.155616,635.7169,9.380527)" gradientUnits="userSpaceOnUse" id="linearGradient10877" inkscape:collect="always" spreadMethod="reflect" x1="-526.86133" x2="1370.5586" xlink:href="#linearGradient7601" y1="45.132561" y2="471.38400"/>
    <linearGradient gradientTransform="matrix(0.707072,0.000000,0.000000,1.414283,61.00295,450.5300)" gradientUnits="userSpaceOnUse" id="linearGradient11649" inkscape:collect="always" x1="668.63202" x2="695.39447" xlink:href="#linearGradient12411" y1="40.503628" y2="233.78807"/>
    <linearGradient gradientTransform="matrix(0.707072,0.000000,0.000000,1.414283,-369.5014,617.5561)" gradientUnits="userSpaceOnUse" id="linearGradient13181" inkscape:collect="always" x1="668.63202" x2="695.39447" xlink:href="#linearGradient12411" y1="40.503628" y2="233.78807"/>
    <linearGradient gradientTransform="matrix(0.323979,0.000000,0.000000,0.566975,465.6922,459.6107)" gradientUnits="userSpaceOnUse" id="linearGradient13183" inkscape:collect="always" spreadMethod="reflect" x1="-526.86133" x2="1370.5586" xlink:href="#linearGradient7601" y1="45.132561" y2="471.38400"/>
    <linearGradient gradientTransform="matrix(0.323979,0.000000,0.000000,0.566975,460.6354,464.6808)" gradientUnits="userSpaceOnUse" id="linearGradient13188" inkscape:collect="always" spreadMethod="reflect" x1="-526.86133" x2="1370.5586" xlink:href="#linearGradient7601" y1="45.132561" y2="471.38400"/>
    <linearGradient gradientTransform="matrix(8.892150e-2,0.000000,0.000000,0.155616,510.5904,159.4464)" gradientUnits="userSpaceOnUse" id="linearGradient13190" inkscape:collect="always" spreadMethod="reflect" x1="-526.86133" x2="1370.5586" xlink:href="#linearGradient7601" y1="45.132561" y2="471.38400"/>
  </defs>
  <sodipodi:namedview bordercolor="#666666" borderopacity="1.0" gridoriginx="0.00000000mm" gridoriginy="0.00000000mm" gridspacingx="10.000000mm" gridspacingy="10.000000mm" gridtolerance="5.0000000mm" id="base" inkscape:current-layer="layer1" inkscape:cx="372.04724" inkscape:cy="492.76511" inkscape:document-units="px" inkscape:grid-bbox="true" inkscape:grid-points="true" inkscape:guide-bbox="true" inkscape:guide-points="true" inkscape:pageopacity="0.0" inkscape:pageshadow="2" inkscape:window-height="841" inkscape:window-width="992" inkscape:window-x="22" inkscape:window-y="29" inkscape:zoom="0.62906099" pagecolor="#ffffff" showgrid="true" showguides="true"/>
  <g id="layer1" inkscape:groupmode="layer" inkscape:label="Layer 1" style="display:inline">
    <g id="g1329">
      <path d="M 70.290350,24.826010 L 70.290350,627.16976 L 105.72785,627.16976 L 105.72785,591.73226 L 141.16535,591.73226 L 141.16535,556.32601 L 176.57160,556.32601 L 176.57160,520.88851 L 212.00910,520.88851 L 247.44660,520.88851 L 247.44660,591.73226 L 282.88410,591.73226 L 282.88410,662.60726 L 318.32160,662.60726 L 318.32160,733.48226 L 353.75910,733.48226 L 353.75910,768.91976 L 424.60285,768.91976 L 424.60285,733.48226 L 460.04035,733.48226 L 460.04035,662.60726 L 424.60285,662.60726 L 424.60285,591.73226 L 389.19660,591.73226 L 389.19660,520.88851 L 353.75910,520.88851 L 353.75910,450.01351 L 495.47785,450.01351 L 495.47785,414.57601 L 460.04035,414.57601 L 460.04035,379.13851 L 424.60285,379.13851 L 424.60285,343.70101 L 389.19660,343.70101 L 389.19660,308.29476 L 353.75910,308.29476 L 353.75910,272.85726 L 318.32160,272.85726 L 318.32160,237.41976 L 282.88410,237.41976 L 282.88410,201.98226 L 247.44660,201.98226 L 247.44660,166.54476 L 212.00910,166.54476 L 212.00910,131.10726 L 176.57160,131.10726 L 176.57160,95.669761 L 141.16535,95.669761 L 141.16535,60.263510 L 105.72785,60.263510 L 105.72785,24.826010 L 70.290350,24.826010 z " id="path6080" style="fill:url(#linearGradient7607);fill-opacity:1.0000000;fill-rule:nonzero;stroke:none;stroke-width:1.0000000px;stroke-linecap:butt;stroke-linejoin:miter;stroke-opacity:1.0000000;display:inline"/>
      <path d="M 35.437500,24.812500 L 35.437500,627.15625 L 70.875000,627.15625 L 70.875000,591.71875 L 106.31250,591.71875 L 106.31250,556.31250 L 70.875000,556.31250 L 70.875000,95.656250 L 106.31250,95.656250 L 106.31250,60.250000 L 70.875000,60.250000 L 70.875000,24.812500 L 35.437500,24.812500 z M 106.31250,95.656250 L 106.31250,131.09375 L 141.71875,131.09375 L 141.71875,95.656250 L 106.31250,95.656250 z M 141.71875,131.09375 L 141.71875,166.53125 L 177.15625,166.53125 L 177.15625,131.09375 L 141.71875,131.09375 z M 177.15625,166.53125 L 177.15625,201.96875 L 212.59375,201.96875 L 212.59375,166.53125 L 177.15625,166.53125 z M 212.59375,201.96875 L 212.59375,237.40625 L 248.03125,237.40625 L 248.03125,201.96875 L 212.59375,201.96875 z M 248.03125,237.40625 L 248.03125,272.84375 L 283.46875,272.84375 L 283.46875,237.40625 L 248.03125,237.40625 z M 283.46875,272.84375 L 283.46875,308.28125 L 318.90625,308.28125 L 318.90625,272.84375 L 283.46875,272.84375 z M 318.90625,308.28125 L 318.90625,343.68750 L 354.34375,343.68750 L 354.34375,308.28125 L 318.90625,308.28125 z M 354.34375,343.68750 L 354.34375,379.12500 L 389.75000,379.12500 L 389.75000,343.68750 L 354.34375,343.68750 z M 389.75000,379.12500 L 389.75000,414.56250 L 283.46875,414.56250 L 283.46875,450.00000 L 283.46875,520.87500 L 318.90625,520.87500 L 318.90625,450.00000 L 460.62500,450.00000 L 460.62500,414.56250 L 425.18750,414.56250 L 425.18750,379.12500 L 389.75000,379.12500 z M 318.90625,520.87500 L 318.90625,591.71875 L 354.34375,591.71875 L 354.34375,520.87500 L 318.90625,520.87500 z M 354.34375,591.71875 L 354.34375,662.59375 L 389.75000,662.59375 L 389.75000,591.71875 L 354.34375,591.71875 z M 389.75000,662.59375 L 389.75000,733.46875 L 425.18750,733.46875 L 425.18750,662.59375 L 389.75000,662.59375 z M 389.75000,733.46875 L 318.90625,733.46875 L 318.90625,768.90625 L 389.75000,768.90625 L 389.75000,733.46875 z M 318.90625,733.46875 L 318.90625,662.59375 L 283.46875,662.59375 L 283.46875,733.46875 L 318.90625,733.46875 z M 283.46875,662.59375 L 283.46875,591.71875 L 248.03125,591.71875 L 248.03125,662.59375 L 283.46875,662.59375 z M 248.03125,591.71875 L 248.03125,520.87500 L 212.59375,520.87500 L 212.59375,591.71875 L 248.03125,591.71875 z M 212.59375,520.87500 L 212.59375,450.00000 L 177.15625,450.00000 L 177.15625,485.43750 L 141.71875,485.43750 L 141.71875,520.87500 L 177.15625,520.87500 L 212.59375,520.87500 z M 141.71875,520.87500 L 106.31250,520.87500 L 106.31250,556.31250 L 141.71875,556.31250 L 141.71875,520.87500 z " id="rect1430" style="fill:#000000;fill-opacity:1.0000000;fill-rule:evenodd;stroke:none;stroke-width:1.0000000px;stroke-linecap:butt;stroke-linejoin:miter;stroke-opacity:1.0000000"/>
      <path d="M 70.875000,95.656250 L 70.875000,556.31250 L 106.31250,556.31250 L 106.31250,520.87500 L 141.71875,520.87500 L 141.71875,485.43750 L 177.15625,485.43750 L 177.15625,450.00000 L 212.59375,450.00000 L 212.59375,520.87500 L 248.03125,520.87500 L 248.03125,591.71875 L 283.46875,591.71875 L 283.46875,662.59375 L 318.90625,662.59375 L 318.90625,733.46875 L 354.34375,733.46875 L 389.75000,733.46875 L 389.75000,662.59375 L 354.34375,662.59375 L 354.34375,591.71875 L 318.90625,591.71875 L 318.90625,520.87500 L 283.46875,520.87500 L 283.46875,414.56250 L 318.90625,414.56250 L 354.34375,414.56250 L 389.75000,414.56250 L 389.75000,379.12500 L 354.34375,379.12500 L 354.34375,343.68750 L 318.90625,343.68750 L 318.90625,308.28125 L 283.46875,308.28125 L 283.46875,272.84375 L 248.03125,272.84375 L 248.03125,237.40625 L 212.59375,237.40625 L 212.59375,201.96875 L 177.15625,201.96875 L 177.15625,166.53125 L 141.71875,166.53125 L 141.71875,131.09375 L 106.31250,131.09375 L 106.31250,95.656250 L 70.875000,95.656250 z " id="rect3779" style="fill:#ffffff;fill-opacity:1.0000000;stroke:none"/>
    </g>
    <g id="g1319">
      <path d="M 506.19015,475.32102 L 506.19015,733.47844 L 521.37824,733.47844 L 521.37824,718.29035 L 536.56634,718.29035 L 536.56634,703.11567 L 551.74104,703.11567 L 551.74104,687.92757 L 566.92913,687.92757 L 582.11723,687.92757 L 582.11723,718.29035 L 597.30532,718.29035 L 597.30532,748.66657 L 612.49341,748.66657 L 612.49341,779.04267 L 627.68151,779.04267 L 627.68151,794.23077 L 658.04430,794.23077 L 658.04430,779.04267 L 673.23240,779.04267 L 673.23240,748.66657 L 658.04430,748.66657 L 658.04430,718.29035 L 642.86960,718.29035 L 642.86960,687.92757 L 627.68151,687.92757 L 627.68151,657.55137 L 688.42049,657.55137 L 688.42049,642.36328 L 673.23240,642.36328 L 673.23240,627.17518 L 658.04430,627.17518 L 658.04430,611.98709 L 642.86960,611.98709 L 642.86960,596.81239 L 627.68151,596.81239 L 627.68151,581.62429 L 612.49341,581.62429 L 612.49341,566.43620 L 597.30532,566.43620 L 597.30532,551.24811 L 582.11723,551.24811 L 582.11723,536.06000 L 566.92913,536.06000 L 566.92913,520.87191 L 551.74104,520.87191 L 551.74104,505.68381 L 536.56634,505.68381 L 536.56634,490.50911 L 521.37824,490.50911 L 521.37824,475.32102 L 506.19015,475.32102 z " id="path10863" style="fill:url(#linearGradient13188);fill-opacity:1.0000000;fill-rule:nonzero;stroke:none;stroke-width:1.0000000px;stroke-linecap:butt;stroke-linejoin:miter;stroke-opacity:1.0000000;display:inline"/>
      <path d="M 491.25263,475.31523 L 491.25263,733.47265 L 506.44072,733.47265 L 506.44072,718.28456 L 521.62882,718.28456 L 521.62882,703.10988 L 506.44072,703.10988 L 506.44072,505.67802 L 521.62882,505.67802 L 521.62882,490.50332 L 506.44072,490.50332 L 506.44072,475.31523 L 491.25263,475.31523 z M 521.62882,505.67802 L 521.62882,520.86612 L 536.80352,520.86612 L 536.80352,505.67802 L 521.62882,505.67802 z M 536.80352,520.86612 L 536.80352,536.05421 L 551.99161,536.05421 L 551.99161,520.86612 L 536.80352,520.86612 z M 551.99161,536.05421 L 551.99161,551.24232 L 567.17971,551.24232 L 567.17971,536.05421 L 551.99161,536.05421 z M 567.17971,551.24232 L 567.17971,566.43041 L 582.36780,566.43041 L 582.36780,551.24232 L 567.17971,551.24232 z M 582.36780,566.43041 L 582.36780,581.61850 L 597.55589,581.61850 L 597.55589,566.43041 L 582.36780,566.43041 z M 597.55589,581.61850 L 597.55589,596.80660 L 612.74399,596.80660 L 612.74399,581.61850 L 597.55589,581.61850 z M 612.74399,596.80660 L 612.74399,611.98130 L 627.93208,611.98130 L 627.93208,596.80660 L 612.74399,596.80660 z M 627.93208,611.98130 L 627.93208,627.16939 L 643.10678,627.16939 L 643.10678,611.98130 L 627.93208,611.98130 z M 643.10678,627.16939 L 643.10678,642.35749 L 597.55589,642.35749 L 597.55589,657.54558 L 597.55589,687.92179 L 612.74399,687.92179 L 612.74399,657.54558 L 673.48297,657.54558 L 673.48297,642.35749 L 658.29488,642.35749 L 658.29488,627.16939 L 643.10678,627.16939 z M 612.74399,687.92179 L 612.74399,718.28456 L 627.93208,718.28456 L 627.93208,687.92179 L 612.74399,687.92179 z M 627.93208,718.28456 L 627.93208,748.66077 L 643.10678,748.66077 L 643.10678,718.28456 L 627.93208,718.28456 z M 643.10678,748.66077 L 643.10678,779.03697 L 658.29488,779.03697 L 658.29488,748.66077 L 643.10678,748.66077 z M 643.10678,779.03697 L 612.74399,779.03697 L 612.74399,794.22507 L 643.10678,794.22507 L 643.10678,779.03697 z M 612.74399,779.03697 L 612.74399,748.66077 L 597.55589,748.66077 L 597.55589,779.03697 L 612.74399,779.03697 z M 597.55589,748.66077 L 597.55589,718.28456 L 582.36780,718.28456 L 582.36780,748.66077 L 597.55589,748.66077 z M 582.36780,718.28456 L 582.36780,687.92179 L 567.17971,687.92179 L 567.17971,718.28456 L 582.36780,718.28456 z M 567.17971,687.92179 L 567.17971,657.54558 L 551.99161,657.54558 L 551.99161,672.73369 L 536.80352,672.73369 L 536.80352,687.92179 L 551.99161,687.92179 L 567.17971,687.92179 z M 536.80352,687.92179 L 521.62882,687.92179 L 521.62882,703.10988 L 536.80352,703.10988 L 536.80352,687.92179 z " id="path10865" style="fill:#000000;fill-opacity:1.0000000;fill-rule:evenodd;stroke:none;stroke-width:1.0000000px;stroke-linecap:butt;stroke-linejoin:miter;stroke-opacity:1.0000000;display:inline"/>
      <path d="M 506.44072,505.67802 L 506.44072,703.10988 L 521.62882,703.10988 L 521.62882,687.92179 L 536.80352,687.92179 L 536.80352,672.73369 L 551.99161,672.73369 L 551.99161,657.54558 L 567.17971,657.54558 L 567.17971,687.92179 L 582.36780,687.92179 L 582.36780,718.28456 L 597.55589,718.28456 L 597.55589,748.66077 L 612.74399,748.66077 L 612.74399,779.03697 L 627.93208,779.03697 L 643.10678,779.03697 L 643.10678,748.66077 L 627.93208,748.66077 L 627.93208,718.28456 L 612.74399,718.28456 L 612.74399,687.92179 L 597.55589,687.92179 L 597.55589,642.35749 L 612.74399,642.35749 L 627.93208,642.35749 L 643.10678,642.35749 L 643.10678,627.16939 L 627.93208,627.16939 L 627.93208,611.98130 L 612.74399,611.98130 L 612.74399,596.80660 L 597.55589,596.80660 L 597.55589,581.61850 L 582.36780,581.61850 L 582.36780,566.43041 L 567.17971,566.43041 L 567.17971,551.24232 L 551.99161,551.24232 L 551.99161,536.05421 L 536.80352,536.05421 L 536.80352,520.86612 L 521.62882,520.86612 L 521.62882,505.67802 L 506.44072,505.67802 z " id="path10867" style="fill:url(#linearGradient11649);fill-opacity:1.0000000;stroke:none;display:inline"/>
    </g>
    <g id="g1324">
      <path d="M 523.09370,162.36678 L 523.09370,233.22250 L 527.26233,233.22250 L 527.26233,229.05380 L 531.43096,229.05380 L 531.43096,224.88890 L 535.59591,224.88890 L 535.59591,220.72030 L 539.76454,220.72030 L 543.93317,220.72030 L 543.93317,229.05380 L 548.10181,229.05380 L 548.10181,237.39110 L 552.27044,237.39110 L 552.27044,245.72840 L 556.43907,245.72840 L 556.43907,249.89700 L 564.77265,249.89700 L 564.77265,245.72840 L 568.94129,245.72840 L 568.94129,237.39110 L 564.77265,237.39110 L 564.77265,229.05380 L 560.60770,229.05380 L 560.60770,220.72030 L 556.43907,220.72030 L 556.43907,212.38300 L 573.10992,212.38300 L 573.10992,208.21440 L 568.94129,208.21440 L 568.94129,204.04570 L 564.77265,204.04570 L 564.77265,199.87710 L 560.60770,199.87710 L 560.60770,195.71215 L 556.43907,195.71215 L 556.43907,191.54352 L 552.27044,191.54352 L 552.27044,187.37489 L 548.10181,187.37489 L 548.10181,183.20626 L 543.93317,183.20626 L 543.93317,179.03763 L 539.76454,179.03763 L 539.76454,174.86900 L 535.59591,174.86900 L 535.59591,170.70037 L 531.43096,170.70037 L 531.43096,166.53541 L 527.26233,166.53541 L 527.26233,162.36678 L 523.09370,162.36678 z " id="path10871" style="fill:url(#linearGradient13190);fill-opacity:1.0000000;fill-rule:nonzero;stroke:none;stroke-width:1.0000000px;stroke-linecap:butt;stroke-linejoin:miter;stroke-opacity:1.0000000;display:inline"/>
      <path d="M 518.99384,162.36519 L 518.99384,233.22090 L 523.16247,233.22090 L 523.16247,229.05230 L 527.33110,229.05230 L 527.33110,224.88730 L 523.16247,224.88730 L 523.16247,170.69878 L 527.33110,170.69878 L 527.33110,166.53382 L 523.16247,166.53382 L 523.16247,162.36519 L 518.99384,162.36519 z M 527.33110,170.69878 L 527.33110,174.86741 L 531.49606,174.86741 L 531.49606,170.69878 L 527.33110,170.69878 z M 531.49606,174.86741 L 531.49606,179.03604 L 535.66469,179.03604 L 535.66469,174.86741 L 531.49606,174.86741 z M 535.66469,179.03604 L 535.66469,183.20467 L 539.83332,183.20467 L 539.83332,179.03604 L 535.66469,179.03604 z M 539.83332,183.20467 L 539.83332,187.37330 L 544.00195,187.37330 L 544.00195,183.20467 L 539.83332,183.20467 z M 544.00195,187.37330 L 544.00195,191.54193 L 548.17058,191.54193 L 548.17058,187.37330 L 544.00195,187.37330 z M 548.17058,191.54193 L 548.17058,195.71056 L 552.33921,195.71056 L 552.33921,191.54193 L 548.17058,191.54193 z M 552.33921,195.71056 L 552.33921,199.87550 L 556.50784,199.87550 L 556.50784,195.71056 L 552.33921,195.71056 z M 556.50784,199.87550 L 556.50784,204.04410 L 560.67280,204.04410 L 560.67280,199.87550 L 556.50784,199.87550 z M 560.67280,204.04410 L 560.67280,208.21280 L 548.17058,208.21280 L 548.17058,212.38140 L 548.17058,220.71870 L 552.33921,220.71870 L 552.33921,212.38140 L 569.01005,212.38140 L 569.01005,208.21280 L 564.84143,208.21280 L 564.84143,204.04410 L 560.67280,204.04410 z M 552.33921,220.71870 L 552.33921,229.05230 L 556.50784,229.05230 L 556.50784,220.71870 L 552.33921,220.71870 z M 556.50784,229.05230 L 556.50784,237.38950 L 560.67280,237.38950 L 560.67280,229.05230 L 556.50784,229.05230 z M 560.67280,237.38950 L 560.67280,245.72680 L 564.84143,245.72680 L 564.84143,237.38950 L 560.67280,237.38950 z M 560.67280,245.72680 L 552.33921,245.72680 L 552.33921,249.89540 L 560.67280,249.89540 L 560.67280,245.72680 z M 552.33921,245.72680 L 552.33921,237.38950 L 548.17058,237.38950 L 548.17058,245.72680 L 552.33921,245.72680 z M 548.17058,237.38950 L 548.17058,229.05230 L 544.00195,229.05230 L 544.00195,237.38950 L 548.17058,237.38950 z M 544.00195,229.05230 L 544.00195,220.71870 L 539.83332,220.71870 L 539.83332,229.05230 L 544.00195,229.05230 z M 539.83332,220.71870 L 539.83332,212.38140 L 535.66469,212.38140 L 535.66469,216.55000 L 531.49606,216.55000 L 531.49606,220.71870 L 535.66469,220.71870 L 539.83332,220.71870 z M 531.49606,220.71870 L 527.33110,220.71870 L 527.33110,224.88730 L 531.49606,224.88730 L 531.49606,220.71870 z " id="path10873" style="fill:#000000;fill-opacity:1.0000000;fill-rule:evenodd;stroke:none;stroke-width:1.0000000px;stroke-linecap:butt;stroke-linejoin:miter;stroke-opacity:1.0000000;display:inline"/>
      <path d="M 523.16247,170.69878 L 523.16247,224.88730 L 527.33110,224.88730 L 527.33110,220.71870 L 531.49606,220.71870 L 531.49606,216.55000 L 535.66469,216.55000 L 535.66469,212.38140 L 539.83332,212.38140 L 539.83332,220.71870 L 544.00195,220.71870 L 544.00195,229.05230 L 548.17058,229.05230 L 548.17058,237.38950 L 552.33921,237.38950 L 552.33921,245.72680 L 556.50784,245.72680 L 560.67280,245.72680 L 560.67280,237.38950 L 556.50784,237.38950 L 556.50784,229.05230 L 552.33921,229.05230 L 552.33921,220.71870 L 548.17058,220.71870 L 548.17058,208.21280 L 552.33921,208.21280 L 556.50784,208.21280 L 560.67280,208.21280 L 560.67280,204.04410 L 556.50784,204.04410 L 556.50784,199.87550 L 552.33921,199.87550 L 552.33921,195.71056 L 548.17058,195.71056 L 548.17058,191.54193 L 544.00195,191.54193 L 544.00195,187.37330 L 539.83332,187.37330 L 539.83332,183.20467 L 535.66469,183.20467 L 535.66469,179.03604 L 531.49606,179.03604 L 531.49606,174.86741 L 527.33110,174.86741 L 527.33110,170.69878 L 523.16247,170.69878 z " id="path10875" style="fill:#ffffff;fill-opacity:1.0000000;stroke:none;display:inline"/>
    </g>
    <g id="g1334">
      <path d="M 60.748323,642.34122 L 60.748323,900.49864 L 75.936413,900.49864 L 75.936413,885.31055 L 91.124513,885.31055 L 91.124513,870.13587 L 75.936413,870.13587 L 75.936413,672.70402 L 91.124513,672.70402 L 91.124513,657.52931 L 75.936413,657.52931 L 75.936413,642.34122 L 60.748323,642.34122 z M 91.124513,672.70402 L 91.124513,687.89211 L 106.29921,687.89211 L 106.29921,672.70402 L 91.124513,672.70402 z M 106.29921,687.89211 L 106.29921,703.08020 L 121.48731,703.08020 L 121.48731,687.89211 L 106.29921,687.89211 z M 121.48731,703.08020 L 121.48731,718.26831 L 136.67541,718.26831 L 136.67541,703.08020 L 121.48731,703.08020 z M 136.67541,718.26831 L 136.67541,733.45640 L 151.86350,733.45640 L 151.86350,718.26831 L 136.67541,718.26831 z M 151.86350,733.45640 L 151.86350,748.64449 L 167.05159,748.64449 L 167.05159,733.45640 L 151.86350,733.45640 z M 167.05159,748.64449 L 167.05159,763.83259 L 182.23969,763.83259 L 182.23969,748.64449 L 167.05159,748.64449 z M 182.23969,763.83259 L 182.23969,779.00729 L 197.42778,779.00729 L 197.42778,763.83259 L 182.23969,763.83259 z M 197.42778,779.00729 L 197.42778,794.19538 L 212.60248,794.19538 L 212.60248,779.00729 L 197.42778,779.00729 z M 212.60248,794.19538 L 212.60248,809.38348 L 167.05159,809.38348 L 167.05159,824.57157 L 167.05159,854.94778 L 182.23969,854.94778 L 182.23969,824.57157 L 242.97867,824.57157 L 242.97867,809.38348 L 227.79058,809.38348 L 227.79058,794.19538 L 212.60248,794.19538 z M 182.23969,854.94778 L 182.23969,885.31055 L 197.42778,885.31055 L 197.42778,854.94778 L 182.23969,854.94778 z M 197.42778,885.31055 L 197.42778,915.68677 L 212.60248,915.68677 L 212.60248,885.31055 L 197.42778,885.31055 z M 212.60248,915.68677 L 212.60248,946.06297 L 227.79058,946.06297 L 227.79058,915.68677 L 212.60248,915.68677 z M 212.60248,946.06297 L 182.23969,946.06297 L 182.23969,961.25097 L 212.60248,961.25097 L 212.60248,946.06297 z M 182.23969,946.06297 L 182.23969,915.68677 L 167.05159,915.68677 L 167.05159,946.06297 L 182.23969,946.06297 z M 167.05159,915.68677 L 167.05159,885.31055 L 151.86350,885.31055 L 151.86350,915.68677 L 167.05159,915.68677 z M 151.86350,885.31055 L 151.86350,854.94778 L 136.67541,854.94778 L 136.67541,885.31055 L 151.86350,885.31055 z M 136.67541,854.94778 L 136.67541,824.57157 L 121.48731,824.57157 L 121.48731,839.75968 L 106.29921,839.75968 L 106.29921,854.94778 L 121.48731,854.94778 L 136.67541,854.94778 z M 106.29921,854.94778 L 91.124513,854.94778 L 91.124513,870.13587 L 106.29921,870.13587 L 106.29921,854.94778 z " id="path13177" style="fill:#000000;fill-opacity:1.0000000;fill-rule:evenodd;stroke:none;stroke-width:1.0000000px;stroke-linecap:butt;stroke-linejoin:miter;stroke-opacity:1.0000000;display:inline"/>
      <path d="M 75.936413,672.70402 L 75.936413,870.13587 L 91.124513,870.13587 L 91.124513,854.94778 L 106.29921,854.94778 L 106.29921,839.75968 L 121.48731,839.75968 L 121.48731,824.57157 L 136.67541,824.57157 L 136.67541,854.94778 L 151.86350,854.94778 L 151.86350,885.31055 L 167.05159,885.31055 L 167.05159,915.68677 L 182.23969,915.68677 L 182.23969,946.06297 L 197.42778,946.06297 L 212.60248,946.06297 L 212.60248,915.68677 L 197.42778,915.68677 L 197.42778,885.31055 L 182.23969,885.31055 L 182.23969,854.94778 L 167.05159,854.94778 L 167.05159,809.38348 L 182.23969,809.38348 L 197.42778,809.38348 L 212.60248,809.38348 L 212.60248,794.19538 L 197.42778,794.19538 L 197.42778,779.00729 L 182.23969,779.00729 L 182.23969,763.83259 L 167.05159,763.83259 L 167.05159,748.64449 L 151.86350,748.64449 L 151.86350,733.45640 L 136.67541,733.45640 L 136.67541,718.26831 L 121.48731,718.26831 L 121.48731,703.08020 L 106.29921,703.08020 L 106.29921,687.89211 L 91.124513,687.89211 L 91.124513,672.70402 L 75.936413,672.70402 z " id="path13179" style="fill:url(#linearGradient13181);fill-opacity:1.0000000;stroke:none;display:inline"/>
    </g>
  </g>
</svg>
