<?xml version="1.0" encoding="UTF-8" standalone="no"?>
<!-- Created with Inkscape (http://www.inkscape.org/) --><svg height="743.75000" id="svg1" version="1.0" width="1052.5000" x="0.0000000" xmlns="http://www.w3.org/2000/svg" xmlns:svg="http://www.w3.org/2000/svg" xmlns:xlink="http://www.w3.org/1999/xlink" y="0.0000000">
  <metadata>
    <rdf:RDF xmlns:cc="http://web.resource.org/cc/" xmlns:dc="http://purl.org/dc/elements/1.1/" xmlns:rdf="http://www.w3.org/1999/02/22-rdf-syntax-ns#">
      <cc:Work rdf:about="">
        <dc:title>Thin client</dc:title>
        <dc:description></dc:description>
        <dc:subject>
          <rdf:Bag>
            <rdf:li>computer</rdf:li>
          </rdf:Bag>
        </dc:subject>
        <dc:publisher>
          <cc:Agent rdf:about="http://www.openclipart.org/">
            <dc:title>Open Clip Art Library</dc:title>
          </cc:Agent>
        </dc:publisher>
        <dc:creator>
          <cc:Agent>
            <dc:title>Risto Pekkala</dc:title>
          </cc:Agent>
        </dc:creator>
        <dc:rights>
          <cc:Agent>
            <dc:title>Risto Pekkala</dc:title>
          </cc:Agent>
        </dc:rights>
        <dc:date></dc:date>
        <dc:format>image/svg+xml</dc:format>
        <dc:type rdf:resource="http://purl.org/dc/dcmitype/StillImage"/>
        <cc:license rdf:resource="http://web.resource.org/cc/PublicDomain"/>
        <dc:language>en</dc:language>
      </cc:Work>
      <cc:License rdf:about="http://web.resource.org/cc/PublicDomain">
        <cc:permits rdf:resource="http://web.resource.org/cc/Reproduction"/>
        <cc:permits rdf:resource="http://web.resource.org/cc/Distribution"/>
        <cc:permits rdf:resource="http://web.resource.org/cc/DerivativeWorks"/>
      </cc:License>
    </rdf:RDF>
  </metadata>
  <defs id="defs3">
    <linearGradient id="linearGradient902">
      <stop id="stop903" offset="0.0000000" style="stop-color:#d22235;stop-opacity:1.0000000;"/>
      <stop id="stop904" offset="1.0000000" style="stop-color:#f1f1f1;stop-opacity:1.0000000;"/>
    </linearGradient>
    <linearGradient id="linearGradient1959">
      <stop id="stop1960" offset="0.0000000" style="stop-color:#7c7c7c;stop-opacity:1.0000000;"/>
      <stop id="stop1961" offset="1.0000000" style="stop-color:#d8d8d8;stop-opacity:1.0000000;"/>
    </linearGradient>
    <linearGradient id="linearGradient2006">
      <stop id="stop2007" offset="0.0000000" style="stop-color:#dddddd;stop-opacity:1.0000000;"/>
      <stop id="stop2008" offset="1.0000000" style="stop-color:#ffffff;stop-opacity:1.0000000;"/>
    </linearGradient>
    <linearGradient id="linearGradient2002">
      <stop id="stop2003" offset="0.0000000" style="stop-color:#000000;stop-opacity:0.34901962;"/>
      <stop id="stop2004" offset="0.64999998" style="stop-color:#000000;stop-opacity:0.13402061;"/>
      <stop id="stop2005" offset="1.0000000" style="stop-color:#000000;stop-opacity:0.0000000;"/>
    </linearGradient>
    <linearGradient id="linearGradient1806">
      <stop id="stop1807" offset="0.0000000" style="stop-color:#000000;stop-opacity:0.35051546;"/>
      <stop id="stop3276" offset="0.64999998" style="stop-color:#000000;stop-opacity:0.13402061;"/>
      <stop id="stop1808" offset="1.0000000" style="stop-color:#000000;stop-opacity:0.0000000;"/>
    </linearGradient>
    <linearGradient id="linearGradient1133">
      <stop id="stop1134" offset="0.0000000" style="stop-color:#8bb7df;stop-opacity:1.0000000;"/>
      <stop id="stop1136" offset="0.76209301" style="stop-color:#2a6092;stop-opacity:1.0000000;"/>
      <stop id="stop1135" offset="1.0000000" style="stop-color:#375e82;stop-opacity:1.0000000;"/>
    </linearGradient>
    <linearGradient id="linearGradient1098">
      <stop id="stop1099" offset="0.0000000" style="stop-color:#ffffff;stop-opacity:1.0000000;"/>
      <stop id="stop1101" offset="0.50000000" style="stop-color:#ffffff;stop-opacity:0.22314049;"/>
      <stop id="stop1102" offset="0.59930235" style="stop-color:#ffffff;stop-opacity:0.0000000;"/>
      <stop id="stop1100" offset="1.0000000" style="stop-color:#ffffff;stop-opacity:0.60330576;"/>
    </linearGradient>
    <linearGradient id="linearGradient892">
      <stop id="stop893" offset="0.0000000" style="stop-color:#ffffff;stop-opacity:0.0000000;"/>
      <stop id="stop894" offset="1.0000000" style="stop-color:#ffffff;stop-opacity:1.0000000;"/>
    </linearGradient>
    <linearGradient id="linearGradient888">
      <stop id="stop889" offset="0.0000000" style="stop-color:#626262;stop-opacity:1.0000000;"/>
      <stop id="stop890" offset="1.0000000" style="stop-color:#ffffff;stop-opacity:1.0000000;"/>
    </linearGradient>
    <linearGradient id="linearGradient1955">
      <stop id="stop1956" offset="0.0000000" style="stop-color:#30b74b;stop-opacity:1.0000000;"/>
      <stop id="stop1957" offset="1.0000000" style="stop-color:#f2f2f2;stop-opacity:1.0000000;"/>
    </linearGradient>
    <linearGradient id="linearGradient1951">
      <stop id="stop1952" offset="0.0000000" style="stop-color:#305cb7;stop-opacity:1.0000000;"/>
      <stop id="stop1953" offset="1.0000000" style="stop-color:#f2f2f2;stop-opacity:1.0000000;"/>
    </linearGradient>
    <linearGradient id="linearGradient1948">
      <stop id="stop1949" offset="0.0000000" style="stop-color:#30b74b;stop-opacity:1.0000000;"/>
      <stop id="stop1950" offset="1.0000000" style="stop-color:#f2f2f2;stop-opacity:1.0000000;"/>
    </linearGradient>
    <linearGradient id="linearGradient1945">
      <stop id="stop1946" offset="0.0000000" style="stop-color:#9fa4af;stop-opacity:1.0000000;"/>
      <stop id="stop1947" offset="1.0000000" style="stop-color:#f2f2f2;stop-opacity:1.0000000;"/>
    </linearGradient>
    <linearGradient id="linearGradient1906">
      <stop id="stop1907" offset="0.0000000" style="stop-color:#305cb7;stop-opacity:1.0000000;"/>
      <stop id="stop1908" offset="1.0000000" style="stop-color:#f2f2f2;stop-opacity:1.0000000;"/>
    </linearGradient>
    <linearGradient id="linearGradient893">
      <stop id="stop895" offset="0.0000000" style="stop-color:#c3c3c3;stop-opacity:1.0000000;"/>
      <stop id="stop896" offset="1.0000000" style="stop-color:#f2f2f2;stop-opacity:1.0000000;"/>
    </linearGradient>
    <linearGradient id="linearGradient2164">
      <stop id="stop2165" offset="0.0000000" style="stop-color:#ff8a00;stop-opacity:1.0000000;"/>
      <stop id="stop2166" offset="1.0000000" style="stop-color:#0014ff;stop-opacity:1.0000000;"/>
    </linearGradient>
    <linearGradient id="linearGradient2158">
      <stop id="stop2159" offset="0.0000000" style="stop-color:#000000;stop-opacity:1.0000000;"/>
      <stop id="stop2160" offset="1.0000000" style="stop-color:#ffffff;stop-opacity:1.0000000;"/>
    </linearGradient>
    <linearGradient id="linearGradient4284" x1="0.054054055" x2="0.93243241" xlink:href="#linearGradient893" y1="0.031250000" y2="0.95312500"/>
    <linearGradient id="linearGradient4283" x1="0.054054055" x2="0.93243241" xlink:href="#linearGradient1959" y1="0.031250000" y2="0.95312500"/>
    <linearGradient id="linearGradient2740" x1="0.96153843" x2="0.030769231" xlink:href="#linearGradient1945" y1="0.96093750" y2="0.031250000"/>
    <linearGradient id="linearGradient1506" x1="0.96153843" x2="0.030769231" xlink:href="#linearGradient1948" y1="0.96093750" y2="0.031250000"/>
    <linearGradient id="linearGradient1404" x1="0.054054055" x2="0.93243241" xlink:href="#linearGradient1959" y1="0.031250000" y2="0.95312500"/>
    <radialGradient cx="0.47887325" cy="0.53333336" fx="0.47535211" fy="0.26666668" id="radialGradient1315" r="0.41197181" xlink:href="#linearGradient1317"/>
    <linearGradient id="linearGradient1171" xlink:href="#linearGradient893"/>
    <linearGradient id="linearGradient1169" x1="5.4426949e-17" x2="1.0000000" xlink:href="#linearGradient893" y1="0.50000000" y2="0.50000000"/>
    <linearGradient id="linearGradient1167" x1="0.0035460992" x2="0.98581558" xlink:href="#linearGradient893" y1="0.022727273" y2="0.96590906"/>
    <linearGradient id="linearGradient1166" x1="0.85858583" x2="0.50480771" xlink:href="#linearGradient1317" y1="-0.52941179" y2="0.86503065"/>
    <linearGradient id="linearGradient1157" x1="1.5528169" x2="-1.2077465" xlink:href="#linearGradient888" y1="3.3265307" y2="-0.48979592"/>
    <linearGradient id="linearGradient1156" x1="0.48260871" x2="0.48260871" xlink:href="#linearGradient888" y1="-0.40000001" y2="1.8750000"/>
    <linearGradient id="linearGradient1150" x1="0.25221238" x2="-0.57522124" xlink:href="#linearGradient892" y1="0.57812500" y2="1.4765625"/>
    <linearGradient id="linearGradient1148" x1="0.23245615" x2="1.0789474" xlink:href="#linearGradient892" y1="0.15625000" y2="-0.64843750"/>
    <linearGradient id="linearGradient1146" x1="0.51351351" x2="-0.076576576" xlink:href="#linearGradient892" y1="0.55468750" y2="1.1875000"/>
    <linearGradient id="linearGradient1144" x1="0.52941179" x2="0.53333336" xlink:href="#linearGradient892" y1="0.26634732" y2="1.3833333"/>
    <linearGradient id="linearGradient1140" x1="0.73913044" x2="0.66666669" xlink:href="#linearGradient888" y1="-1.0735294" y2="1.3000000"/>
    <radialGradient cx="0.68556702" cy="0.38281250" fx="0.93298972" fy="0.031250000" id="radialGradient1132" r="1.4021490" xlink:href="#linearGradient1133"/>
    <linearGradient id="linearGradient905" x1="-1.5389611" x2="1.0909091" xlink:href="#linearGradient888" y1="2.7890625" y2="-0.19531250"/>
    <linearGradient id="linearGradient891" x1="1.3485916" x2="0.024647888" xlink:href="#linearGradient888" y1="-0.85185188" y2="1.0899471"/>
    <linearGradient id="linearGradient1317">
      <stop id="stop1318" offset="0.0000000" style="stop-color:#000000;stop-opacity:0.52892560;"/>
      <stop id="stop1320" offset="0.50000000" style="stop-color:#000000;stop-opacity:0.17355372;"/>
      <stop id="stop1319" offset="1.0000000" style="stop-color:#000000;stop-opacity:0.0000000;"/>
    </linearGradient>
    <radialGradient cx="0.50522649" cy="0.54545456" fx="0.51611376" fy="0.56148684" id="radialGradient1977" r="0.46065515" xlink:href="#linearGradient1806"/>
    <linearGradient id="linearGradient1505" x1="0.41156462" x2="0.59523809" xlink:href="#linearGradient2006" y1="0.081081077" y2="0.91891891"/>
    <linearGradient id="linearGradient1170" x1="0.96153843" x2="0.030769231" xlink:href="#linearGradient902" y1="0.96093750" y2="0.031250000"/>
    <radialGradient id="radialGradient1316" xlink:href="#linearGradient1955"/>
    <linearGradient id="linearGradient1141" x1="0.030120483" x2="0.96987951" xlink:href="#linearGradient893" y1="0.039062500" y2="0.96875000"/>
    <linearGradient id="linearGradient1138" x1="0.030120483" x2="0.96987951" xlink:href="#linearGradient1133" y1="0.039062500" y2="0.96875000"/>
    <linearGradient id="linearGradient901" x1="0.39115646" x2="0.68707484" xlink:href="#linearGradient893" y1="0.043478262" y2="0.92391306"/>
    <linearGradient gradientTransform="matrix(1.517084,0.000000,0.000000,1.150151,-173.4688,-141.6642)" gradientUnits="userSpaceOnUse" id="linearGradient1463" x1="304.53323" x2="677.39642" xlink:href="#linearGradient1133" y1="106.10597" y2="474.97314"/>
    <linearGradient gradientTransform="scale(1.160922,0.861384)" gradientUnits="userSpaceOnUse" id="linearGradient1466" spreadMethod="pad" x1="199.17290" x2="814.02869" xlink:href="#linearGradient893" y1="-572.32593" y2="791.99225"/>
    <linearGradient gradientTransform="matrix(1.357253,0.000000,0.000000,1.285595,-173.4688,-141.6642)" gradientUnits="userSpaceOnUse" id="linearGradient1469" x1="495.77832" x2="601.78418" xlink:href="#linearGradient893" y1="475.92059" y2="475.92059"/>
  </defs>
  <g id="g1800" transform="matrix(1.320938,0.000000,0.000000,1.320938,-184.8783,-122.3649)">
    <rect height="337.86145" id="rect1203" rx="3.2188993" ry="3.2189002" style="fill:url(#linearGradient4284);fill-opacity:1;fill-rule:evenodd;stroke:#c4c4c4;stroke-width:10.625000;stroke-linecap:butt;stroke-linejoin:miter;stroke-miterlimit:4.0000000;stroke-opacity:1.0000000" transform="translate(-80.58918,-80.06894)" width="74.435349" x="332.02765" y="256.08771"/>
    <g id="g1921" transform="translate(-34.95634,41.16927)">
      <path d="M 185.35463,146.88480 C 185.35463,121.13171 164.47763,100.25471 138.72454,100.25471 C 112.97144,100.25471 92.094440,121.13171 92.094440,146.88480 C 92.094440,172.63789 112.97144,193.51489 138.72454,193.51489 C 164.47763,193.51489 185.35463,172.63789 185.35463,146.88480 z " id="path1738" style="fill:#9c9c9c;fill-opacity:1.0000000;fill-rule:evenodd;stroke:#000000;stroke-width:0.0000000;stroke-linecap:butt;stroke-linejoin:miter;stroke-miterlimit:4.0000000;stroke-opacity:1.0000000" transform="matrix(7.023362e-2,0.000000,0.000000,7.023362e-2,289.5442,438.9485)"/>
      <path d="M 185.35463,146.88480 C 185.35463,121.13171 164.47763,100.25471 138.72454,100.25471 C 112.97144,100.25471 92.094440,121.13171 92.094440,146.88480 C 92.094440,172.63789 112.97144,193.51489 138.72454,193.51489 C 164.47763,193.51489 185.35463,172.63789 185.35463,146.88480 z " id="path1739" style="fill:#9c9c9c;fill-opacity:1.0000000;fill-rule:evenodd;stroke:#000000;stroke-width:0.0000000;stroke-linecap:butt;stroke-linejoin:miter;stroke-miterlimit:4.0000000;stroke-opacity:1.0000000" transform="matrix(7.023362e-2,0.000000,0.000000,7.023362e-2,289.5442,427.6142)"/>
      <path d="M 185.35463,146.88480 C 185.35463,121.13171 164.47763,100.25471 138.72454,100.25471 C 112.97144,100.25471 92.094440,121.13171 92.094440,146.88480 C 92.094440,172.63789 112.97144,193.51489 138.72454,193.51489 C 164.47763,193.51489 185.35463,172.63789 185.35463,146.88480 z " id="path1740" style="fill:#9c9c9c;fill-opacity:1.0000000;fill-rule:evenodd;stroke:#000000;stroke-width:0.0000000;stroke-linecap:butt;stroke-linejoin:miter;stroke-miterlimit:4.0000000;stroke-opacity:1.0000000" transform="matrix(7.023362e-2,0.000000,0.000000,7.023362e-2,289.5442,450.2827)"/>
      <path d="M 185.35463,146.88480 C 185.35463,121.13171 164.47763,100.25471 138.72454,100.25471 C 112.97144,100.25471 92.094440,121.13171 92.094440,146.88480 C 92.094440,172.63789 112.97144,193.51489 138.72454,193.51489 C 164.47763,193.51489 185.35463,172.63789 185.35463,146.88480 z " id="path1742" style="fill:#9c9c9c;fill-opacity:1.0000000;fill-rule:evenodd;stroke:#000000;stroke-width:0.0000000;stroke-linecap:butt;stroke-linejoin:miter;stroke-miterlimit:4.0000000;stroke-opacity:1.0000000" transform="matrix(7.023362e-2,0.000000,0.000000,7.023362e-2,299.4922,433.2813)"/>
      <path d="M 185.35463,146.88480 C 185.35463,121.13171 164.47763,100.25471 138.72454,100.25471 C 112.97144,100.25471 92.094440,121.13171 92.094440,146.88480 C 92.094440,172.63789 112.97144,193.51489 138.72454,193.51489 C 164.47763,193.51489 185.35463,172.63789 185.35463,146.88480 z " id="path1743" style="fill:#9c9c9c;fill-opacity:1.0000000;fill-rule:evenodd;stroke:#000000;stroke-width:0.0000000;stroke-linecap:butt;stroke-linejoin:miter;stroke-miterlimit:4.0000000;stroke-opacity:1.0000000" transform="matrix(7.023362e-2,0.000000,0.000000,7.023362e-2,299.4922,421.9471)"/>
      <path d="M 185.35463,146.88480 C 185.35463,121.13171 164.47763,100.25471 138.72454,100.25471 C 112.97144,100.25471 92.094440,121.13171 92.094440,146.88480 C 92.094440,172.63789 112.97144,193.51489 138.72454,193.51489 C 164.47763,193.51489 185.35463,172.63789 185.35463,146.88480 z " id="path1744" style="fill:#9c9c9c;fill-opacity:1.0000000;fill-rule:evenodd;stroke:#000000;stroke-width:0.0000000;stroke-linecap:butt;stroke-linejoin:miter;stroke-miterlimit:4.0000000;stroke-opacity:1.0000000" transform="matrix(7.023362e-2,0.000000,0.000000,7.023362e-2,299.4922,444.6156)"/>
      <path d="M 185.35463,146.88480 C 185.35463,121.13171 164.47763,100.25471 138.72454,100.25471 C 112.97144,100.25471 92.094440,121.13171 92.094440,146.88480 C 92.094440,172.63789 112.97144,193.51489 138.72454,193.51489 C 164.47763,193.51489 185.35463,172.63789 185.35463,146.88480 z " id="path1752" style="fill:#9c9c9c;fill-opacity:1.0000000;fill-rule:evenodd;stroke:#000000;stroke-width:0.0000000;stroke-linecap:butt;stroke-linejoin:miter;stroke-miterlimit:4.0000000;stroke-opacity:1.0000000" transform="matrix(7.023362e-2,0.000000,0.000000,7.023362e-2,289.5442,416.2962)"/>
      <path d="M 185.35463,146.88480 C 185.35463,121.13171 164.47763,100.25471 138.72454,100.25471 C 112.97144,100.25471 92.094440,121.13171 92.094440,146.88480 C 92.094440,172.63789 112.97144,193.51489 138.72454,193.51489 C 164.47763,193.51489 185.35463,172.63789 185.35463,146.88480 z " id="path1753" style="fill:#9c9c9c;fill-opacity:1.0000000;fill-rule:evenodd;stroke:#000000;stroke-width:0.0000000;stroke-linecap:butt;stroke-linejoin:miter;stroke-miterlimit:4.0000000;stroke-opacity:1.0000000" transform="matrix(7.023362e-2,0.000000,0.000000,7.023362e-2,289.5442,404.9619)"/>
      <path d="M 185.35463,146.88480 C 185.35463,121.13171 164.47763,100.25471 138.72454,100.25471 C 112.97144,100.25471 92.094440,121.13171 92.094440,146.88480 C 92.094440,172.63789 112.97144,193.51489 138.72454,193.51489 C 164.47763,193.51489 185.35463,172.63789 185.35463,146.88480 z " id="path1755" style="fill:#9c9c9c;fill-opacity:1.0000000;fill-rule:evenodd;stroke:#000000;stroke-width:0.0000000;stroke-linecap:butt;stroke-linejoin:miter;stroke-miterlimit:4.0000000;stroke-opacity:1.0000000" transform="matrix(7.023362e-2,0.000000,0.000000,7.023362e-2,299.4922,410.6290)"/>
      <path d="M 185.35463,146.88480 C 185.35463,121.13171 164.47763,100.25471 138.72454,100.25471 C 112.97144,100.25471 92.094440,121.13171 92.094440,146.88480 C 92.094440,172.63789 112.97144,193.51489 138.72454,193.51489 C 164.47763,193.51489 185.35463,172.63789 185.35463,146.88480 z " id="path1756" style="fill:#9c9c9c;fill-opacity:1.0000000;fill-rule:evenodd;stroke:#000000;stroke-width:0.0000000;stroke-linecap:butt;stroke-linejoin:miter;stroke-miterlimit:4.0000000;stroke-opacity:1.0000000" transform="matrix(7.023362e-2,0.000000,0.000000,7.023362e-2,299.4922,399.2948)"/>
      <path d="M 185.35463,146.88480 C 185.35463,121.13171 164.47763,100.25471 138.72454,100.25471 C 112.97144,100.25471 92.094440,121.13171 92.094440,146.88480 C 92.094440,172.63789 112.97144,193.51489 138.72454,193.51489 C 164.47763,193.51489 185.35463,172.63789 185.35463,146.88480 z " id="path1796" style="fill:#9c9c9c;fill-opacity:1.0000000;fill-rule:evenodd;stroke:#000000;stroke-width:0.0000000;stroke-linecap:butt;stroke-linejoin:miter;stroke-miterlimit:4.0000000;stroke-opacity:1.0000000" transform="matrix(7.023362e-2,0.000000,0.000000,7.023362e-2,289.5442,393.6290)"/>
      <path d="M 185.35463,146.88480 C 185.35463,121.13171 164.47763,100.25471 138.72454,100.25471 C 112.97144,100.25471 92.094440,121.13171 92.094440,146.88480 C 92.094440,172.63789 112.97144,193.51489 138.72454,193.51489 C 164.47763,193.51489 185.35463,172.63789 185.35463,146.88480 z " id="path1797" style="fill:#9c9c9c;fill-opacity:1.0000000;fill-rule:evenodd;stroke:#000000;stroke-width:0.0000000;stroke-linecap:butt;stroke-linejoin:miter;stroke-miterlimit:4.0000000;stroke-opacity:1.0000000" transform="matrix(7.023362e-2,0.000000,0.000000,7.023362e-2,289.5442,382.2947)"/>
      <path d="M 185.35463,146.88480 C 185.35463,121.13171 164.47763,100.25471 138.72454,100.25471 C 112.97144,100.25471 92.094440,121.13171 92.094440,146.88480 C 92.094440,172.63789 112.97144,193.51489 138.72454,193.51489 C 164.47763,193.51489 185.35463,172.63789 185.35463,146.88480 z " id="path1799" style="fill:#9c9c9c;fill-opacity:1.0000000;fill-rule:evenodd;stroke:#000000;stroke-width:0.0000000;stroke-linecap:butt;stroke-linejoin:miter;stroke-miterlimit:4.0000000;stroke-opacity:1.0000000" transform="matrix(7.023362e-2,0.000000,0.000000,7.023362e-2,299.4922,387.9618)"/>
      <path d="M 185.35463,146.88480 C 185.35463,121.13171 164.47763,100.25471 138.72454,100.25471 C 112.97144,100.25471 92.094440,121.13171 92.094440,146.88480 C 92.094440,172.63789 112.97144,193.51489 138.72454,193.51489 C 164.47763,193.51489 185.35463,172.63789 185.35463,146.88480 z " id="path1800" style="fill:#9c9c9c;fill-opacity:1.0000000;fill-rule:evenodd;stroke:#000000;stroke-width:0.0000000;stroke-linecap:butt;stroke-linejoin:miter;stroke-miterlimit:4.0000000;stroke-opacity:1.0000000" transform="matrix(7.023362e-2,0.000000,0.000000,7.023362e-2,299.4922,376.6276)"/>
      <path d="M 185.35463,146.88480 C 185.35463,121.13171 164.47763,100.25471 138.72454,100.25471 C 112.97144,100.25471 92.094440,121.13171 92.094440,146.88480 C 92.094440,172.63789 112.97144,193.51489 138.72454,193.51489 C 164.47763,193.51489 185.35463,172.63789 185.35463,146.88480 z " id="path1802" style="fill:#9c9c9c;fill-opacity:1.0000000;fill-rule:evenodd;stroke:#000000;stroke-width:0.0000000;stroke-linecap:butt;stroke-linejoin:miter;stroke-miterlimit:4.0000000;stroke-opacity:1.0000000" transform="matrix(7.023362e-2,0.000000,0.000000,7.023362e-2,289.5442,370.9767)"/>
      <path d="M 185.35463,146.88480 C 185.35463,121.13171 164.47763,100.25471 138.72454,100.25471 C 112.97144,100.25471 92.094440,121.13171 92.094440,146.88480 C 92.094440,172.63789 112.97144,193.51489 138.72454,193.51489 C 164.47763,193.51489 185.35463,172.63789 185.35463,146.88480 z " id="path1803" style="fill:#9c9c9c;fill-opacity:1.0000000;fill-rule:evenodd;stroke:#000000;stroke-width:0.0000000;stroke-linecap:butt;stroke-linejoin:miter;stroke-miterlimit:4.0000000;stroke-opacity:1.0000000" transform="matrix(7.023362e-2,0.000000,0.000000,7.023362e-2,289.5442,359.6424)"/>
      <path d="M 185.35463,146.88480 C 185.35463,121.13171 164.47763,100.25471 138.72454,100.25471 C 112.97144,100.25471 92.094440,121.13171 92.094440,146.88480 C 92.094440,172.63789 112.97144,193.51489 138.72454,193.51489 C 164.47763,193.51489 185.35463,172.63789 185.35463,146.88480 z " id="path1804" style="fill:#9c9c9c;fill-opacity:1.0000000;fill-rule:evenodd;stroke:#000000;stroke-width:0.0000000;stroke-linecap:butt;stroke-linejoin:miter;stroke-miterlimit:4.0000000;stroke-opacity:1.0000000" transform="matrix(7.023362e-2,0.000000,0.000000,7.023362e-2,299.4922,365.3095)"/>
      <path d="M 185.35463,146.88480 C 185.35463,121.13171 164.47763,100.25471 138.72454,100.25471 C 112.97144,100.25471 92.094440,121.13171 92.094440,146.88480 C 92.094440,172.63789 112.97144,193.51489 138.72454,193.51489 C 164.47763,193.51489 185.35463,172.63789 185.35463,146.88480 z " id="path1805" style="fill:#9c9c9c;fill-opacity:1.0000000;fill-rule:evenodd;stroke:#000000;stroke-width:0.0000000;stroke-linecap:butt;stroke-linejoin:miter;stroke-miterlimit:4.0000000;stroke-opacity:1.0000000" transform="matrix(7.023362e-2,0.000000,0.000000,7.023362e-2,299.4922,353.9753)"/>
      <path d="M 185.35463,146.88480 C 185.35463,121.13171 164.47763,100.25471 138.72454,100.25471 C 112.97144,100.25471 92.094440,121.13171 92.094440,146.88480 C 92.094440,172.63789 112.97144,193.51489 138.72454,193.51489 C 164.47763,193.51489 185.35463,172.63789 185.35463,146.88480 z " id="path1867" style="fill:#9c9c9c;fill-opacity:1.0000000;fill-rule:evenodd;stroke:#000000;stroke-width:0.0000000;stroke-linecap:butt;stroke-linejoin:miter;stroke-miterlimit:4.0000000;stroke-opacity:1.0000000" transform="matrix(7.023362e-2,0.000000,0.000000,7.023362e-2,289.5442,348.3162)"/>
      <path d="M 185.35463,146.88480 C 185.35463,121.13171 164.47763,100.25471 138.72454,100.25471 C 112.97144,100.25471 92.094440,121.13171 92.094440,146.88480 C 92.094440,172.63789 112.97144,193.51489 138.72454,193.51489 C 164.47763,193.51489 185.35463,172.63789 185.35463,146.88480 z " id="path1868" style="fill:#9c9c9c;fill-opacity:1.0000000;fill-rule:evenodd;stroke:#000000;stroke-width:0.0000000;stroke-linecap:butt;stroke-linejoin:miter;stroke-miterlimit:4.0000000;stroke-opacity:1.0000000" transform="matrix(7.023362e-2,0.000000,0.000000,7.023362e-2,289.5442,336.9819)"/>
      <path d="M 185.35463,146.88480 C 185.35463,121.13171 164.47763,100.25471 138.72454,100.25471 C 112.97144,100.25471 92.094440,121.13171 92.094440,146.88480 C 92.094440,172.63789 112.97144,193.51489 138.72454,193.51489 C 164.47763,193.51489 185.35463,172.63789 185.35463,146.88480 z " id="path1870" style="fill:#9c9c9c;fill-opacity:1.0000000;fill-rule:evenodd;stroke:#000000;stroke-width:0.0000000;stroke-linecap:butt;stroke-linejoin:miter;stroke-miterlimit:4.0000000;stroke-opacity:1.0000000" transform="matrix(7.023362e-2,0.000000,0.000000,7.023362e-2,299.4922,342.6490)"/>
      <path d="M 185.35463,146.88480 C 185.35463,121.13171 164.47763,100.25471 138.72454,100.25471 C 112.97144,100.25471 92.094440,121.13171 92.094440,146.88480 C 92.094440,172.63789 112.97144,193.51489 138.72454,193.51489 C 164.47763,193.51489 185.35463,172.63789 185.35463,146.88480 z " id="path1871" style="fill:#9c9c9c;fill-opacity:1.0000000;fill-rule:evenodd;stroke:#000000;stroke-width:0.0000000;stroke-linecap:butt;stroke-linejoin:miter;stroke-miterlimit:4.0000000;stroke-opacity:1.0000000" transform="matrix(7.023362e-2,0.000000,0.000000,7.023362e-2,299.4922,331.3148)"/>
      <path d="M 185.35463,146.88480 C 185.35463,121.13171 164.47763,100.25471 138.72454,100.25471 C 112.97144,100.25471 92.094440,121.13171 92.094440,146.88480 C 92.094440,172.63789 112.97144,193.51489 138.72454,193.51489 C 164.47763,193.51489 185.35463,172.63789 185.35463,146.88480 z " id="path1873" style="fill:#9c9c9c;fill-opacity:1.0000000;fill-rule:evenodd;stroke:#000000;stroke-width:0.0000000;stroke-linecap:butt;stroke-linejoin:miter;stroke-miterlimit:4.0000000;stroke-opacity:1.0000000" transform="matrix(7.023362e-2,0.000000,0.000000,7.023362e-2,289.5442,325.6639)"/>
      <path d="M 185.35463,146.88480 C 185.35463,121.13171 164.47763,100.25471 138.72454,100.25471 C 112.97144,100.25471 92.094440,121.13171 92.094440,146.88480 C 92.094440,172.63789 112.97144,193.51489 138.72454,193.51489 C 164.47763,193.51489 185.35463,172.63789 185.35463,146.88480 z " id="path1874" style="fill:#9c9c9c;fill-opacity:1.0000000;fill-rule:evenodd;stroke:#000000;stroke-width:0.0000000;stroke-linecap:butt;stroke-linejoin:miter;stroke-miterlimit:4.0000000;stroke-opacity:1.0000000" transform="matrix(7.023362e-2,0.000000,0.000000,7.023362e-2,289.5442,314.3296)"/>
      <path d="M 185.35463,146.88480 C 185.35463,121.13171 164.47763,100.25471 138.72454,100.25471 C 112.97144,100.25471 92.094440,121.13171 92.094440,146.88480 C 92.094440,172.63789 112.97144,193.51489 138.72454,193.51489 C 164.47763,193.51489 185.35463,172.63789 185.35463,146.88480 z " id="path1875" style="fill:#9c9c9c;fill-opacity:1.0000000;fill-rule:evenodd;stroke:#000000;stroke-width:0.0000000;stroke-linecap:butt;stroke-linejoin:miter;stroke-miterlimit:4.0000000;stroke-opacity:1.0000000" transform="matrix(7.023362e-2,0.000000,0.000000,7.023362e-2,299.4922,319.9967)"/>
      <path d="M 185.35463,146.88480 C 185.35463,121.13171 164.47763,100.25471 138.72454,100.25471 C 112.97144,100.25471 92.094440,121.13171 92.094440,146.88480 C 92.094440,172.63789 112.97144,193.51489 138.72454,193.51489 C 164.47763,193.51489 185.35463,172.63789 185.35463,146.88480 z " id="path1876" style="fill:#9c9c9c;fill-opacity:1.0000000;fill-rule:evenodd;stroke:#000000;stroke-width:0.0000000;stroke-linecap:butt;stroke-linejoin:miter;stroke-miterlimit:4.0000000;stroke-opacity:1.0000000" transform="matrix(7.023362e-2,0.000000,0.000000,7.023362e-2,299.4922,308.6625)"/>
      <path d="M 185.35463,146.88480 C 185.35463,121.13171 164.47763,100.25471 138.72454,100.25471 C 112.97144,100.25471 92.094440,121.13171 92.094440,146.88480 C 92.094440,172.63789 112.97144,193.51489 138.72454,193.51489 C 164.47763,193.51489 185.35463,172.63789 185.35463,146.88480 z " id="path1877" style="fill:#9c9c9c;fill-opacity:1.0000000;fill-rule:evenodd;stroke:#000000;stroke-width:0.0000000;stroke-linecap:butt;stroke-linejoin:miter;stroke-miterlimit:4.0000000;stroke-opacity:1.0000000" transform="matrix(7.023362e-2,0.000000,0.000000,7.023362e-2,289.5442,302.9967)"/>
      <path d="M 185.35463,146.88480 C 185.35463,121.13171 164.47763,100.25471 138.72454,100.25471 C 112.97144,100.25471 92.094440,121.13171 92.094440,146.88480 C 92.094440,172.63789 112.97144,193.51489 138.72454,193.51489 C 164.47763,193.51489 185.35463,172.63789 185.35463,146.88480 z " id="path1878" style="fill:#9c9c9c;fill-opacity:1.0000000;fill-rule:evenodd;stroke:#000000;stroke-width:0.0000000;stroke-linecap:butt;stroke-linejoin:miter;stroke-miterlimit:4.0000000;stroke-opacity:1.0000000" transform="matrix(7.023362e-2,0.000000,0.000000,7.023362e-2,289.5442,291.6624)"/>
      <path d="M 185.35463,146.88480 C 185.35463,121.13171 164.47763,100.25471 138.72454,100.25471 C 112.97144,100.25471 92.094440,121.13171 92.094440,146.88480 C 92.094440,172.63789 112.97144,193.51489 138.72454,193.51489 C 164.47763,193.51489 185.35463,172.63789 185.35463,146.88480 z " id="path1879" style="fill:#9c9c9c;fill-opacity:1.0000000;fill-rule:evenodd;stroke:#000000;stroke-width:0.0000000;stroke-linecap:butt;stroke-linejoin:miter;stroke-miterlimit:4.0000000;stroke-opacity:1.0000000" transform="matrix(7.023362e-2,0.000000,0.000000,7.023362e-2,299.4922,297.3295)"/>
      <path d="M 185.35463,146.88480 C 185.35463,121.13171 164.47763,100.25471 138.72454,100.25471 C 112.97144,100.25471 92.094440,121.13171 92.094440,146.88480 C 92.094440,172.63789 112.97144,193.51489 138.72454,193.51489 C 164.47763,193.51489 185.35463,172.63789 185.35463,146.88480 z " id="path1880" style="fill:#9c9c9c;fill-opacity:1.0000000;fill-rule:evenodd;stroke:#000000;stroke-width:0.0000000;stroke-linecap:butt;stroke-linejoin:miter;stroke-miterlimit:4.0000000;stroke-opacity:1.0000000" transform="matrix(7.023362e-2,0.000000,0.000000,7.023362e-2,299.4922,285.9953)"/>
      <path d="M 185.35463,146.88480 C 185.35463,121.13171 164.47763,100.25471 138.72454,100.25471 C 112.97144,100.25471 92.094440,121.13171 92.094440,146.88480 C 92.094440,172.63789 112.97144,193.51489 138.72454,193.51489 C 164.47763,193.51489 185.35463,172.63789 185.35463,146.88480 z " id="path1881" style="fill:#9c9c9c;fill-opacity:1.0000000;fill-rule:evenodd;stroke:#000000;stroke-width:0.0000000;stroke-linecap:butt;stroke-linejoin:miter;stroke-miterlimit:4.0000000;stroke-opacity:1.0000000" transform="matrix(7.023362e-2,0.000000,0.000000,7.023362e-2,289.5442,280.3444)"/>
      <path d="M 185.35463,146.88480 C 185.35463,121.13171 164.47763,100.25471 138.72454,100.25471 C 112.97144,100.25471 92.094440,121.13171 92.094440,146.88480 C 92.094440,172.63789 112.97144,193.51489 138.72454,193.51489 C 164.47763,193.51489 185.35463,172.63789 185.35463,146.88480 z " id="path1882" style="fill:#9c9c9c;fill-opacity:1.0000000;fill-rule:evenodd;stroke:#000000;stroke-width:0.0000000;stroke-linecap:butt;stroke-linejoin:miter;stroke-miterlimit:4.0000000;stroke-opacity:1.0000000" transform="matrix(7.023362e-2,0.000000,0.000000,7.023362e-2,289.5442,269.0101)"/>
      <path d="M 185.35463,146.88480 C 185.35463,121.13171 164.47763,100.25471 138.72454,100.25471 C 112.97144,100.25471 92.094440,121.13171 92.094440,146.88480 C 92.094440,172.63789 112.97144,193.51489 138.72454,193.51489 C 164.47763,193.51489 185.35463,172.63789 185.35463,146.88480 z " id="path1883" style="fill:#9c9c9c;fill-opacity:1.0000000;fill-rule:evenodd;stroke:#000000;stroke-width:0.0000000;stroke-linecap:butt;stroke-linejoin:miter;stroke-miterlimit:4.0000000;stroke-opacity:1.0000000" transform="matrix(7.023362e-2,0.000000,0.000000,7.023362e-2,299.4922,274.6772)"/>
      <path d="M 185.35463,146.88480 C 185.35463,121.13171 164.47763,100.25471 138.72454,100.25471 C 112.97144,100.25471 92.094440,121.13171 92.094440,146.88480 C 92.094440,172.63789 112.97144,193.51489 138.72454,193.51489 C 164.47763,193.51489 185.35463,172.63789 185.35463,146.88480 z " id="path1884" style="fill:#9c9c9c;fill-opacity:1.0000000;fill-rule:evenodd;stroke:#000000;stroke-width:0.0000000;stroke-linecap:butt;stroke-linejoin:miter;stroke-miterlimit:4.0000000;stroke-opacity:1.0000000" transform="matrix(7.023362e-2,0.000000,0.000000,7.023362e-2,299.4922,263.3430)"/>
    </g>
    <rect height="10.561125" id="rect1957" rx="3.2188993" ry="3.2189002" style="fill:url(#linearGradient1404);fill-opacity:1;fill-rule:evenodd;stroke:#c1c1c1;stroke-width:3.2500000;stroke-linecap:butt;stroke-linejoin:miter;stroke-miterlimit:4.0000000;stroke-opacity:1.0000000" transform="translate(-80.58918,-80.06894)" width="24.494505" x="368.50409" y="572.92603"/>
    <rect height="10.561125" id="rect1958" rx="3.2188993" ry="3.2189002" style="fill:url(#linearGradient4283);fill-opacity:1;fill-rule:evenodd;stroke:#c1c1c1;stroke-width:3.2500000;stroke-linecap:butt;stroke-linejoin:miter;stroke-miterlimit:4.0000000;stroke-opacity:1.0000000" transform="translate(-80.58918,-80.06894)" width="24.494505" x="368.50409" y="553.64532"/>
    <g id="g2001" transform="translate(-79.00713,-80.06894)">
      <path d="M 549.06935,389.36130 C 549.06935,383.56685 544.37202,378.86953 538.57757,378.86953 C 532.78313,378.86953 528.08580,383.56685 528.08580,389.36130 C 528.08580,395.15575 532.78313,399.85308 538.57757,399.85308 C 544.37202,399.85308 549.06935,395.15575 549.06935,389.36130 z " id="path1940" style="fill:url(#linearGradient2740);fill-opacity:1;fill-rule:evenodd;stroke:#9c9c9c;stroke-width:3.6648426;stroke-linecap:butt;stroke-linejoin:miter;stroke-miterlimit:4.0000000;stroke-opacity:1.0000000" transform="matrix(0.895802,0.000000,0.000000,0.877898,-114.7956,-30.08890)"/>
      <path d="M 549.06935,389.36130 C 549.06935,383.56685 544.37202,378.86953 538.57757,378.86953 C 532.78313,378.86953 528.08580,383.56685 528.08580,389.36130 C 528.08580,395.15575 532.78313,399.85308 538.57757,399.85308 C 544.37202,399.85308 549.06935,395.15575 549.06935,389.36130 z " id="path1942" style="fill:url(#linearGradient1506);fill-opacity:1;fill-rule:evenodd;stroke:#9c9c9c;stroke-width:3.6680114;stroke-linecap:butt;stroke-linejoin:miter;stroke-miterlimit:4.0000000;stroke-opacity:1.0000000" transform="matrix(0.627124,0.000000,0.000000,0.613406,29.90835,46.80820)"/>
    </g>
  </g>
  <g id="g1755" style="fill:url(#linearGradient1167)" transform="matrix(1.225986,0.000000,0.000000,1.225986,-120.4676,-94.94978)">
    <path d="M 558.18597,457.58426 C 486.68294,457.58426 427.33234,481.42917 416.13596,512.62955 L 416.13596,529.77940 C 416.13595,530.85983 417.00576,531.72963 418.08619,531.72963 L 435.60170,531.72963 C 465.06309,522.81248 508.76522,517.13946 557.62528,517.13946 C 606.48425,517.13946 650.18748,522.81282 679.64885,531.72963 L 698.29795,531.72963 C 699.37838,531.72963 700.24818,530.85983 700.24818,529.77940 L 700.24818,512.62955 C 689.05180,481.42917 629.68901,457.58426 558.18597,457.58426 z " id="rect1099" style="fill-opacity:0.75000000;fill-rule:evenodd;stroke:#9c9c9c;stroke-width:10.625000;stroke-linecap:butt;stroke-linejoin:miter;stroke-miterlimit:4.0000000;stroke-opacity:1.0000000"/>
    <path d="M 558.18597,452.23387 C 486.68294,452.23387 427.33234,476.07878 416.13596,507.27916 L 416.13596,524.42901 C 416.13595,525.50944 417.00576,526.37924 418.08619,526.37924 L 435.60170,526.37924 C 465.06309,517.46209 508.76522,511.78907 557.62528,511.78907 C 606.48425,511.78907 650.18748,517.46243 679.64885,526.37924 L 698.29795,526.37924 C 699.37838,526.37924 700.24818,525.50944 700.24818,524.42901 L 700.24818,507.27916 C 689.05180,476.07878 629.68901,452.23387 558.18597,452.23387 z " id="path1754" style="fill-opacity:0.75000000;fill-rule:evenodd;stroke:#c4c4c4;stroke-width:10.625000;stroke-linecap:butt;stroke-linejoin:miter;stroke-miterlimit:4.0000000;stroke-opacity:1.0000000"/>
  </g>
  <rect height="89.134552" id="rect2215" rx="20.678812" ry="7.0743303" style="fill:url(#linearGradient1469);fill-opacity:1;fill-rule:evenodd;stroke:#c4c4c4;stroke-width:14.034966;stroke-linecap:butt;stroke-linejoin:miter;stroke-miterlimit:4.0000000;stroke-opacity:1.0000000" width="94.885162" x="516.42566" y="418.61948"/>
  <rect height="400.36139" id="rect1979" rx="4.2519679" ry="4.2519679" style="fill:url(#linearGradient1466);fill-opacity:1.0000000;fill-rule:nonzero;stroke:#c4c4c4;stroke-width:14.034967;stroke-linecap:butt;stroke-linejoin:miter;stroke-miterlimit:4.0000000;stroke-opacity:1.0000000" width="532.56842" x="299.33273" y="51.445179"/>
  <rect height="333.76016" id="rect1980" rx="4.2519674" ry="4.2519684" style="fill:url(#linearGradient1463);fill-opacity:1;fill-rule:evenodd;stroke:#c4c4c4;stroke-width:11.706176;stroke-linecap:butt;stroke-linejoin:miter;stroke-miterlimit:4.0000000;stroke-opacity:1.0000000" width="443.97412" x="341.88116" y="84.745674"/>
  <g id="g1792" transform="matrix(1.320938,0.000000,0.000000,1.320938,-163.1593,-111.2390)">
    <path d="M 369.37658,533.96240 C 361.56734,534.13935 355.21714,538.14525 351.75155,541.47841 L 308.33241,603.05366 C 301.52299,612.11110 311.81136,614.55500 333.73738,614.90893 L 760.95471,614.33035 C 778.94124,614.33035 802.17902,612.82418 792.06504,603.05366 L 750.20294,543.32644 C 745.44364,540.04423 736.04614,533.96240 722.54645,533.96240 L 369.37658,533.96240 z " id="path2196" style="fill:url(#linearGradient1141);fill-opacity:1;fill-rule:evenodd;stroke:#9c9c9c;stroke-width:10.625000;stroke-linecap:butt;stroke-linejoin:miter;stroke-miterlimit:4.0000000;stroke-opacity:1.0000000"/>
    <g id="g1786" transform="translate(1.701430,0.000000)">
      <path d="M 367.67515,529.26817 C 359.86591,529.44512 353.51571,533.45102 350.05012,536.78418 L 306.63098,598.35943 C 299.82156,607.41687 310.10993,609.86077 332.03595,610.21470 L 759.25328,609.63612 C 777.23981,609.63612 800.47759,608.12995 790.36361,598.35943 L 748.50151,538.63221 C 743.74221,535.35000 734.34471,529.26817 720.84502,529.26817 L 367.67515,529.26817 z " id="rect1986" style="fill:url(#linearGradient1141);fill-opacity:1;fill-rule:evenodd;stroke:#c4c4c4;stroke-width:10.625000;stroke-linecap:butt;stroke-linejoin:miter;stroke-miterlimit:4.0000000;stroke-opacity:1.0000000"/>
      <rect height="7.8769360" id="rect2100" rx="0.53648382" ry="0.53648347" style="fill:#bdbdbd;fill-opacity:1.0000000;fill-rule:evenodd;stroke:none;stroke-width:0.87500000;stroke-linecap:round;stroke-linejoin:miter;stroke-miterlimit:4.0000000;stroke-opacity:1.0000000" transform="translate(-147.5737,-78.98059)" width="373.21240" x="508.25470" y="620.30499"/>
      <rect height="7.8769360" id="rect2102" rx="0.53648382" ry="0.53648347" style="fill:#bdbdbd;fill-opacity:1.0000000;fill-rule:evenodd;stroke:none;stroke-width:0.87500000;stroke-linecap:round;stroke-linejoin:miter;stroke-miterlimit:4.0000000;stroke-opacity:1.0000000" transform="translate(-147.5737,-78.98059)" width="392.21948" x="498.75116" y="636.90240"/>
      <rect height="7.8769360" id="rect2104" rx="0.53648382" ry="0.53648347" style="fill:#bdbdbd;fill-opacity:1.0000000;fill-rule:evenodd;stroke:none;stroke-width:0.87500000;stroke-linecap:round;stroke-linejoin:miter;stroke-miterlimit:4.0000000;stroke-opacity:1.0000000" transform="translate(-147.5737,-78.98059)" width="412.17691" x="488.77240" y="653.49976"/>
      <rect height="7.8769360" id="rect2111" rx="0.53648371" ry="0.53648347" style="fill:#bdbdbd;fill-opacity:1.0000000;fill-rule:evenodd;stroke:none;stroke-width:0.87500000;stroke-linecap:round;stroke-linejoin:miter;stroke-miterlimit:4.0000000;stroke-opacity:1.0000000" transform="translate(-147.5737,-78.98059)" width="430.70880" x="480.21933" y="670.09717"/>
    </g>
  </g>
</svg>
