<?xml version="1.0" encoding="UTF-8" standalone="no"?>
<!DOCTYPE svg PUBLIC "-//W3C//DTD SVG 20010904//EN"
"http://www.w3.org/TR/2001/REC-SVG-20010904/DTD/svg10.dtd">
<!-- Created with Inkscape (http://www.inkscape.org/) --><svg height="437.5" id="svg1" inkscape:version="0.37" sodipodi:docbase="/usr/share/icons/Lemon/scalable/apps" sodipodi:docname="midi.svg" sodipodi:version="0.32" version="1.0" width="437.5" x="0" xmlns="http://www.w3.org/2000/svg" xmlns:inkscape="http://www.inkscape.org/namespaces/inkscape" xmlns:sodipodi="http://sodipodi.sourceforge.net/DTD/sodipodi-0.dtd" xmlns:xlink="http://www.w3.org/1999/xlink" y="0">
  <metadata>
    <rdf:RDF xmlns:cc="http://web.resource.org/cc/" xmlns:dc="http://purl.org/dc/elements/1.1/" xmlns:rdf="http://www.w3.org/1999/02/22-rdf-syntax-ns#">
      <cc:Work rdf:about="">
        <dc:title>Lemon SVG theme</dc:title>
        <dc:description></dc:description>
        <dc:subject>
          <rdf:Bag>
            <rdf:li>icon</rdf:li>
            <rdf:li></rdf:li>
            <rdf:li>application</rdf:li>
            <rdf:li>lemon_theme_icon</rdf:li>
            <rdf:li>icons</rdf:li>
            <rdf:li>hash</rdf:li>
            <rdf:li>computer</rdf:li>
            <rdf:li>theme</rdf:li>
          </rdf:Bag>
        </dc:subject>
        <dc:publisher>
          <cc:Agent rdf:about="http://www.openclipart.org">
            <dc:title>Jose Hevia</dc:title>
          </cc:Agent>
        </dc:publisher>
        <dc:creator>
          <cc:Agent>
            <dc:title>Jose Hevia</dc:title>
          </cc:Agent>
        </dc:creator>
        <dc:rights>
          <cc:Agent>
            <dc:title>Jose Hevia</dc:title>
          </cc:Agent>
        </dc:rights>
        <dc:date></dc:date>
        <dc:format>image/svg+xml</dc:format>
        <dc:type rdf:resource="http://purl.org/dc/dcmitype/StillImage"/>
        <cc:license rdf:resource="http://web.resource.org/cc/PublicDomain"/>
        <dc:language>en</dc:language>
      </cc:Work>
      <cc:License rdf:about="http://web.resource.org/cc/PublicDomain">
        <cc:permits rdf:resource="http://web.resource.org/cc/Reproduction"/>
        <cc:permits rdf:resource="http://web.resource.org/cc/Distribution"/>
        <cc:permits rdf:resource="http://web.resource.org/cc/DerivativeWorks"/>
      </cc:License>
    </rdf:RDF>
  </metadata>
  <sodipodi:namedview bordercolor="#666666" borderopacity="1.0" id="base" inkscape:cx="305.259524" inkscape:cy="222.407369" inkscape:pageopacity="0.0" inkscape:pageshadow="2" inkscape:window-height="549" inkscape:window-width="640" inkscape:window-x="0" inkscape:window-y="0" inkscape:zoom="0.61399264" pagecolor="#ffffff"/>
  <defs id="defs3">
    <linearGradient id="linearGradient629">
      <stop id="stop630" offset="0" style="stop-color:#ffff0d;stop-opacity:1;"/>
      <stop id="stop631" offset="1" style="stop-color:#005707;stop-opacity:1;"/>
    </linearGradient>
    <linearGradient id="linearGradient619">
      <stop id="stop620" offset="0" style="stop-color:#ffff0d;stop-opacity:1;"/>
      <stop id="stop621" offset="1" style="stop-color:#ffffff;stop-opacity:0;"/>
    </linearGradient>
    <linearGradient id="linearGradient1248">
      <stop id="stop1249" offset="0" style="stop-color:#d1cdbd;stop-opacity:1;"/>
      <stop id="stop1250" offset="1" style="stop-color:#ffffff;stop-opacity:1;"/>
    </linearGradient>
    <linearGradient id="linearGradient70">
      <stop id="stop71" offset="0" style="stop-color:#ffff00;stop-opacity:1;"/>
      <stop id="stop72" offset="1" style="stop-color:#00af00;stop-opacity:1;"/>
    </linearGradient>
    <linearGradient id="linearGradient73" xlink:href="#linearGradient619"/>
    <linearGradient id="linearGradient1242" x1="0.268047" x2="0.762887" xlink:href="#linearGradient1248" y1="0.49218801" y2="0.52343702"/>
    <linearGradient id="linearGradient1243" x1="0.35294101" x2="-9.41176787e-2" xlink:href="#linearGradient1248" y1="0.328125" y2="0.27343801"/>
    <linearGradient id="linearGradient1246" x1="0.25771999" x2="1.01227105" xlink:href="#linearGradient70" y1="0.179726" y2="0.55468798"/>
    <linearGradient id="linearGradient1247" x1="0.268047" x2="0.762887" xlink:href="#linearGradient1248" y1="0.49218801" y2="0.52343702"/>
    <linearGradient id="linearGradient1251" x1="0.35294101" x2="-9.41176414e-2" xlink:href="#linearGradient1248" y1="0.328125" y2="0.27343801"/>
    <radialGradient cx="0.41600099" cy="0.257817" fx="0.41600099" fy="0.257817" id="radialGradient617" r="0.65141499" xlink:href="#linearGradient619"/>
    <radialGradient cx="0.36551699" cy="0.39843801" fx="0.36551699" fy="0.39843801" id="radialGradient618" r="0.682028" xlink:href="#linearGradient619"/>
    <radialGradient cx="0.71098298" cy="0.242183" fx="0.71098298" fy="0.242183" id="radialGradient624" r="0.97095197" xlink:href="#linearGradient629"/>
  </defs>
  <path d="M 45.01608 8.440568 L 45.01608 433.2797 L 403.7379 433.2797 L 403.7379 8.440568 L 45.01608 8.440568 z " id="path593" style="font-size:12;fill:#ffffff;fill-opacity:1;fill-rule:evenodd;stroke:#004f00;stroke-width:13.74564;stroke-opacity:0.359375;"/>
  <rect height="48.5978317" id="rect594" style="font-size:12;fill:#004c00;fill-opacity:1;fill-rule:evenodd;" width="209.112793" x="51.1362686" y="102.500801"/>
  <path d="M 258.7002 115.0424 C 258.5937 130.7191 90.65625 119.6411 82.11599 119.7451 C 71.27183 125.7179 56.35665 131.2562 54.23428 146.3956 C 46.97071 145.2648 51.33319 120.4333 52.68529 111.9068 C 67.60651 104.4452 255.3495 102.8155 258.7002 115.0424 z " id="path595" style="font-size:12;fill:#ffffff;fill-opacity:0.5918;fill-rule:evenodd;stroke-width:1;"/>
  <rect height="48.5978317" id="rect596" style="font-size:12;fill:#004c00;fill-opacity:1;fill-rule:evenodd;" width="207.593399" x="51.1291084" y="166.775406"/>
  <path d="M 257.185 179.3168 C 257.0792 194.9936 90.36196 183.9156 81.88375 184.0197 C 71.11838 189.9924 56.31157 195.5307 54.20461 210.6701 C 46.99381 209.5392 51.32459 184.7078 52.66687 176.1812 C 67.47968 168.7197 253.8586 167.09 257.185 179.3168 z " id="path597" style="font-size:12;fill:#ffffff;fill-opacity:0.5918;fill-rule:evenodd;stroke-width:1;"/>
  <rect height="48.5978317" id="rect598" style="font-size:12;fill:#004c00;fill-opacity:1;fill-rule:evenodd;" width="207.016693" x="51.1263809" y="279.647797"/>
  <path d="M 256.6098 292.1893 C 256.5043 307.866 90.25021 296.788 81.79556 296.892 C 71.06011 302.8648 56.29442 308.4031 54.19333 323.5425 C 47.00257 322.4117 51.32132 297.5802 52.65986 289.0537 C 67.43151 281.5921 253.2926 279.9624 256.6098 292.1893 z " id="path599" style="font-size:12;fill:#ffffff;fill-opacity:0.5918;fill-rule:evenodd;stroke-width:1;"/>
  <rect height="48.5978317" id="rect600" style="font-size:12;fill:#004c00;fill-opacity:1;fill-rule:evenodd;" width="209.112793" x="51.1362686" y="36.65868"/>
  <path d="M 258.7002 49.20017 C 258.5937 64.87686 90.65624 53.79893 82.11599 53.90302 C 71.27183 59.8757 56.35665 65.414 54.23428 80.55344 C 46.97071 79.42255 51.33319 54.59114 52.68529 46.06461 C 67.60651 38.60298 255.3495 36.97326 258.7002 49.20017 z " id="path601" style="font-size:12;fill:#ffffff;fill-opacity:0.5918;fill-rule:evenodd;stroke-width:1;"/>
  <rect height="48.5978317" id="rect602" style="font-size:12;fill:#004c00;fill-opacity:1;fill-rule:evenodd;" width="209.112793" x="51.1362686" y="348.625397"/>
  <path d="M 258.7002 361.1669 C 258.5937 376.8437 90.65624 365.7657 82.11599 365.8698 C 71.27183 371.8425 56.35665 377.3808 54.23428 392.5202 C 46.97071 391.3893 51.33319 366.5579 52.68529 358.0313 C 67.60651 350.5698 255.3495 348.9399 258.7002 361.1669 z " id="path603" style="font-size:12;fill:#ffffff;fill-opacity:0.5918;fill-rule:evenodd;stroke-width:1;"/>
  <path d="M 58.75437 17.8465 L 58.75437 62.52519 L 398.0024 62.52519 L 398.0024 17.8465 L 58.75437 17.8465 z " id="path607" style="font-size:12;fill-opacity:0.0765;fill-rule:evenodd;"/>
  <path d="M 55.70141 72.71506 L 55.70141 126.0158 L 398.1875 126.0158 L 398.1875 72.71506 L 55.70141 72.71506 z " id="path608" style="font-size:12;fill-opacity:0.0765;fill-rule:evenodd;"/>
  <path d="M 53.41168 133.8543 L 53.41168 189.5065 L 398.0567 189.5065 L 398.0567 133.8543 L 53.41168 133.8543 z " id="path609" style="font-size:12;fill-opacity:0.0765;fill-rule:evenodd;"/>
  <path d="M 52.64843 198.1287 L 52.64843 247.5104 L 394.0552 247.5104 L 394.0552 198.1287 L 52.64843 198.1287 z " id="path610" style="font-size:12;fill-opacity:0.0765;fill-rule:evenodd;"/>
  <path d="M 51.12641 254.565 L 51.12641 306.2981 L 395.1346 306.2981 L 395.1346 254.565 L 51.12641 254.565 z " id="path611" style="font-size:12;fill-opacity:0.0765;fill-rule:evenodd;"/>
  <path d="M 52.64844 314.1366 L 52.64844 365.8697 L 395.1346 365.8697 L 395.1346 314.1366 L 52.64844 314.1366 z " id="path612" style="font-size:12;fill-opacity:0.0765;fill-rule:evenodd;"/>
  <path d="M 52.64844 372.1404 L 52.64844 423.8735 L 398.3727 423.8735 L 398.3727 372.1404 L 52.64844 372.1404 z " id="path613" style="font-size:12;fill-opacity:0.0765;fill-rule:evenodd;"/>
</svg>
