<?xml version="1.0" encoding="UTF-8" standalone="no"?>
<!-- Generator: Adobe Illustrator 12.0.0, SVG Export Plug-In . SVG Version: 6.00 Build 51448)  --><svg height="137.155" id="Layer_1" inkscape:version="0.42" sodipodi:docbase="F:\openclip\svg da inviare" sodipodi:docname="lucchetto01.svg" sodipodi:version="0.32" space="preserve" style="overflow:visible;enable-background:new 0 0 106.33 137.155;" version="1.1" viewBox="0 0 106.33 137.155" width="106.33" xmlns="http://www.w3.org/2000/svg" xmlns:cc="http://web.resource.org/cc/" xmlns:dc="http://purl.org/dc/elements/1.1/" xmlns:inkscape="http://www.inkscape.org/namespaces/inkscape" xmlns:rdf="http://www.w3.org/1999/02/22-rdf-syntax-ns#" xmlns:sodipodi="http://inkscape.sourceforge.net/DTD/sodipodi-0.dtd" xmlns:svg="http://www.w3.org/2000/svg">
  <metadata>
    <rdf:RDF xmlns:cc="http://web.resource.org/cc/" xmlns:dc="http://purl.org/dc/elements/1.1/" xmlns:rdf="http://www.w3.org/1999/02/22-rdf-syntax-ns#">
      <cc:Work rdf:about="">
        <dc:title>Lucchetto grigio</dc:title>
        <dc:description></dc:description>
        <dc:subject>
          <rdf:Bag>
            <rdf:li>animal</rdf:li>
          </rdf:Bag>
        </dc:subject>
        <dc:publisher>
          <cc:Agent rdf:about="http://www.openclipart.org/">
            <dc:title>Open Clip Art Library</dc:title>
          </cc:Agent>
        </dc:publisher>
        <dc:creator>
          <cc:Agent>
            <dc:title>Architetto Francesco Rollandin</dc:title>
          </cc:Agent>
        </dc:creator>
        <dc:rights>
          <cc:Agent>
            <dc:title>Architetto Francesco Rollandin</dc:title>
          </cc:Agent>
        </dc:rights>
        <dc:date></dc:date>
        <dc:format>image/svg+xml</dc:format>
        <dc:type rdf:resource="http://purl.org/dc/dcmitype/StillImage"/>
        <cc:license rdf:resource="http://web.resource.org/cc/PublicDomain"/>
        <dc:language>en</dc:language>
      </cc:Work>
      <cc:License rdf:about="http://web.resource.org/cc/PublicDomain">
        <cc:permits rdf:resource="http://web.resource.org/cc/Reproduction"/>
        <cc:permits rdf:resource="http://web.resource.org/cc/Distribution"/>
        <cc:permits rdf:resource="http://web.resource.org/cc/DerivativeWorks"/>
      </cc:License>
    </rdf:RDF>
  </metadata>
  <defs id="defs61"/>
  <sodipodi:namedview bordercolor="#666666" borderopacity="1.0" id="base" inkscape:current-layer="Layer_1" inkscape:cx="53.165001" inkscape:cy="68.577499" inkscape:pageopacity="0.0" inkscape:pageshadow="2" inkscape:window-height="510" inkscape:window-width="787" inkscape:window-x="88" inkscape:window-y="116" inkscape:zoom="2.6247676" pagecolor="#ffffff"/>
  <g id="g3">
    <path d="M54.226,60.589c0-1.053-1.431-1.005-2.129-0.782c-0.098,1.206,1.23,0.945-0.016,2.736   C53.171,62.253,53.886,61.601,54.226,60.589" id="path5" style="fill:#E0C200;"/>
    <path d="M33.138,37.153c0-7.191,1.513-16.145,8.805-19.506c4.812-2.221,12.889-2.043,18.06-1.019   c14.688,2.908,12.351,21.808,12.351,33.048c0,5.052-1.43,6.342,3.678,6.342c1.207,0,13.948,0.145,13.948-0.137   c0-10.072,1.508-21.463-0.748-31.356c-7.454-32.7-65.471-32.7-72.925,0c-2.255,9.893-0.748,21.284-0.748,31.356   c0,0.282,11.502,0.137,12.555,0.137c6.132,0,5.024-0.204,5.024-6.342C33.138,45.502,33.138,41.327,33.138,37.153" id="path7" style="fill:#C6C1C4;"/>
    <path d="M71.004,19.749c-4.309-6.366-8.998-6.342-16.148-5.766c-7.033,0.565-15.649,0.722-19.598,7.632   c-3.023,5.289-3.723,11.251-4.255,17.166c-0.286,3.165-0.549,6.359-1.099,9.491c-0.698,3.965-3.422,3.595-5.905,5.755   c3.23,0.022,6.462,0.045,9.692,0.068c0-7.449-0.46-15.036,0.082-22.467c1.001-13.749,13.188-17.053,25.012-15.347   c13.6,1.961,13.826,14.454,13.826,25.391c0,4.086,0,8.173,0,12.263c0,0.649,8.126,4.51,8.126-0.419   c-6.238,0.09-6.381-9.803-6.364-14.02C74.404,31.929,75.384,26.709,71.004,19.749" id="path9" style="fill:#A7A2A5;"/>
    <linearGradient gradientTransform="matrix(76.1966 76.1971 76.1971 -76.1966 -14386.6035 54725)" gradientUnits="userSpaceOnUse" id="XMLID_4_" x1="-265.1792" x2="-263.246" y1="453.6128" y2="453.6128">
      <stop id="stop12" offset="0" style="stop-color:#FFFFFF"/>
      <stop id="stop14" offset="1" style="stop-color:#000000"/>
    </linearGradient>
    <path d="M46.957,0.296c-17.221,0-31.408,14.061-31.408,31.267c0,3.92-1.706,24.669,1.515,24.669   c5.384,0,10.768,0,16.153,0c1.538,0,0.702-11.032,0.702-12.752c0-12.626,0.763-26.979,16.741-26.979   c5.863,0,12.176-0.556,16.637,4.054c4.821,4.98,5.051,12.383,5.051,18.896c0,5.373,0,10.749,0,16.125   c0,1.437,11.431,0.656,13.148,0.656c5,0,5.262,0.977,5.262-3.93c0-6.138,0-12.275,0-18.411c0-15.622-8.779-29.545-24.818-32.913   C59.819-0.309,53.176,0.296,46.957,0.296 M16.335,31.067c0-35.103,57.063-41.588,70.787-12.669   c4.96,10.452,2.85,24.469,2.85,35.707c0,2.994-8.284,1.441-10.809,1.441c-7.057,0-6.03-0.088-6.03-7.105   c0-11.897,1.698-31.026-14.49-32.541c-5.049-0.472-11.801-0.839-16.463,1.305c-7.506,3.453-9.051,12.604-9.051,19.999   c0,5.163,0,10.325,0,15.487c0,5.119-6.366,2.855-10.775,2.855c-5.779,0-6.018,0.969-6.018-4.75c0-6.174,0-12.345,0-18.518   C16.335,31.876,16.335,31.471,16.335,31.067" id="path16" style="fill:url(#XMLID_4_);"/>
    <path d="M73.629,8.222c2.229,7.62-11.211-0.583-14.771-1c-5.671-0.664-11.692,0.851-17.076,2.505   c-2.756,0.845-7.145,3.322-10.131,2.677c-2.06-0.446-0.339-3.588,0.494-4.388C35.41,4.893,40.63,3.671,44.95,3.105   C49.96,2.449,71.5,0.936,73.629,8.222" id="path18" style="fill:#A7A2A5;"/>
    <path d="M19.602,29.365c-0.799,5.019-0.494,10.472-0.185,15.522c0.078,1.272,1.99,8.833,3.224,3.85   c1.185-4.778,0.082-10.411-0.303-15.236c-0.136-1.717,1.444-14.826,2.407-14.368C22.133,17.891,19.792,28.175,19.602,29.365" id="path20" style="fill:#E0DBDE;"/>
    <path d="M70.444,16.572c1.735,1.637,3.72,3.768,4.501,6.083c0.896,2.647-1.406,3.516-2.826,1.314   c-1.628-2.522-2.642-5.784-5.052-7.711c-0.604-0.483-5.793-2.996-5.659-3.751C61.829,10.129,69.952,16.109,70.444,16.572" id="path22" style="fill:#E0DBDE;"/>
    <path d="M57.427,3.357c-0.66,1.433-3.438,1.011-4.64,1.095c-4.514,0.313-8.973,1.442-12.909,3.712   c-1.633,0.943-10.63,9.526-12.407,8.114c-5.617-4.462,6.968-10.945,9.337-11.77C38.169,4.036,58.507,1.018,57.427,3.357" id="path24" style="fill:#E0DBDE;"/>
    <path d="M83.812,15.14c1.838,3.156,8.382,17.824,3.283,20.544c-2.158,1.152-3.802-12.386-4.39-13.997   c-1.42-3.888-3.267-6.62-6.901-8.701c-1.828-1.048-6.296-2.032-7.284-4.078c-1.542-3.186,5.436-2.744,6.706-2.127   C78.727,8.477,81.87,11.801,83.812,15.14" id="path26" style="fill:#E0DBDE;"/>
    <linearGradient gradientUnits="userSpaceOnUse" id="XMLID_5_" x1="0.7236" x2="105.4087" y1="94.8999" y2="94.8999">
      <stop id="stop29" offset="0" style="stop-color:#E3E3E3"/>
      <stop id="stop31" offset="0.2719" style="stop-color:#E0E0E0"/>
      <stop id="stop33" offset="0.482" style="stop-color:#D6D6D6"/>
      <stop id="stop35" offset="0.6715" style="stop-color:#C6C6C6"/>
      <stop id="stop37" offset="0.8477" style="stop-color:#AFAFAF"/>
      <stop id="stop39" offset="1" style="stop-color:#949494"/>
    </linearGradient>
    <path d="M105.409,118.385c0,15.413-16.64,17.285-28.548,17.285c-11.855,0-23.713,0-35.568,0   c-10.034,0-22.021,1.399-31.291-2.961c-11.309-5.317-9.104-18.157-9.104-28.483c0-10.355-0.411-20.803,0.091-31.147   c0.65-13.355,6.859-19.163,19.813-19.163c21.951,0,43.899,0,65.849,0c16.465,0,18.758,11.972,18.758,26.112   C105.409,92.813,105.409,105.601,105.409,118.385" id="path41" style="fill:url(#XMLID_5_);"/>
    <path d="M93.315,105.943c3.936,0.198,1.277,5.294,0.11,6.925c-4.313,6.031-11.52,9.919-18.354,12.342   c-12.056,4.278-25.356,4.493-37.895,2.585c-6.986-1.062-23.845-3.47-26.46-11.912c-3.07-9.903,15.146-4.348,18.325-3.311   c12.506,4.095,24.118,6.495,37.355,5.065c6.829-0.738,13.892-2.391,19.311-6.844C87.942,108.958,90.092,105.778,93.315,105.943" id="path43" style="fill:#F0EAED;"/>
    <path d="M99.287,87.777c0,3.845,0.869,12.984-2.857,15.828c-2.16,1.648-3.891-1.244-4.437-2.982   c-4.168-13.252,3.166-27.704-10.369-37.32c-1.664-1.183-5.361-2.269-6.439-4.051c-1.072-1.77,5.768-2.223,6.468-2.157   C95.802,58.422,99.287,76.498,99.287,87.777" id="path45" style="fill:#A39FA2;"/>
    <path d="M11.411,71.828c-1.618,7.799-2.135,16.846,0.975,24.362c2.217,5.357,9.761,11.619,15.551,6.964   c8.229-6.619,1.343-26.763,13.71-29.568c6.748-1.529,14.391-0.925,20.197-5.429c3.697-2.871,1.776-6.125-1.864-7.799   C47.527,54.625,15.087,54.126,11.411,71.828" id="path47" style="fill:#F0EAED;"/>
    <path d="M8.944,125.77c0-12.504,0-25.009,0-37.512c0-13.287-0.835-31.652,17.049-31.652   c24.266,0,48.531,0,72.797,0c-4.624-3.315-10.738-2.69-16.143-2.69c-7.71,0-15.418,0-23.125,0c-13.978,0-27.953,0-41.929,0   c-19.096,0-16.697,20.827-16.697,34.501c0,12.661-4.989,37.841,9.31,44.387C9.312,130.575,8.944,128.167,8.944,125.77" id="path49" style="fill:#CBC6C9;"/>
    <linearGradient gradientTransform="matrix(71.3323 210.6647 210.6647 -71.3323 -78139.8438 86876.625)" gradientUnits="userSpaceOnUse" id="XMLID_6_" x1="-257.272" x2="-255.3261" y1="458.1323" y2="458.1323">
      <stop id="stop52" offset="0" style="stop-color:#FFFFFF"/>
      <stop id="stop54" offset="1" style="stop-color:#000000"/>
    </linearGradient>
    <path d="M88.9,53.916c-20.378,0-40.756,0-61.133,0c-8.208,0-19.399-1.683-24.037,6.841   c-4.793,8.811-2.833,22.456-2.833,32.245c0,9.338-2.261,22.104,0.914,31.144c4.241,12.072,19.888,11.524,30.436,11.524   c12.333,0,24.664,0,36.996,0c10.271,0,23.348,1.55,31.484-5.854c8.686-7.904,4.682-29.598,4.682-39.911   C105.409,76.322,108.218,53.916,88.9,53.916 M102.203,109.667c0,27.738-41.021,20.824-59.226,20.824   c-9.389,0-20.903,1.438-29.651-2.486C1.25,122.583,3.113,108.301,3.113,97.347c0-10.047-1.796-22.746,1.3-32.5   c3.621-11.405,15.835-10.13,25.449-10.13c12.657,0,25.316,0,37.975,0c8.737,0,21.497-1.843,28.666,3.878   c6.712,5.359,5.235,15.841,5.336,23.53C101.961,91.306,102.082,100.486,102.203,109.667" id="path56" style="fill:url(#XMLID_6_);"/>
    <path d="M17.163,53.019C0.91,53.019,0,68.341,0,80.947c0,11.563,0,23.124,0,34.688   c0,26.506,33.945,20.934,52.337,20.934c17.739,0,53.969,5.964,53.969-20.131c0-11.486,0-22.975,0-34.462   c0-10.793,0.519-26.083-13.001-28.582c-12.257-2.263-26.271-0.374-38.644-0.374C42.162,53.019,29.662,53.019,17.163,53.019    M1.793,118.385c0-9.988,0-19.978,0-29.968c0-9.304-2.417-24.493,5.697-30.864c5.762-4.521,17.227-2.741,24.085-2.741   c12.909,0,25.817,0,38.726,0c7.469,0,16.938-1.429,24.254,0.729c11.724,3.453,9.957,19.077,9.957,28.776   c0,11.113,0,22.225,0,33.341c0,14.301-14.04,17.115-25.705,17.115c-13.916,0-27.83,0-41.745,0   C24.322,134.774,1.793,136.441,1.793,118.385" id="path58" style="fill:#6A6568;"/>
  </g>
</svg>
