<?xml version="1.0" encoding="UTF-8" standalone="no"?>
<!DOCTYPE svg PUBLIC "-//W3C//DTD SVG 20010904//EN"
"http://www.w3.org/TR/2001/REC-SVG-20010904/DTD/svg10.dtd">
<!-- Created with Inkscape (http://www.inkscape.org/) --><svg height="128.00000pt" id="svg1" inkscape:version="0.38cvs-040410.1009" sodipodi:docbase="C:\Documents and Settings\Emily\Desktop\andy\SVG\svgart" sodipodi:docname="coffee.svg" sodipodi:version="0.32" width="128.00000pt" xmlns="http://www.w3.org/2000/svg" xmlns:inkscape="http://www.inkscape.org/namespaces/inkscape" xmlns:sodipodi="http://sodipodi.sourceforge.net/DTD/sodipodi-0.dtd" xmlns:xlink="http://www.w3.org/1999/xlink" xmlns:xml="http://www.w3.org/XML/1998/namespace">
  <metadata>
    <rdf:RDF xmlns:cc="http://web.resource.org/cc/" xmlns:dc="http://purl.org/dc/elements/1.1/" xmlns:rdf="http://www.w3.org/1999/02/22-rdf-syntax-ns#">
      <cc:Work rdf:about="">
        <dc:title>Etiquette Icons</dc:title>
        <dc:description></dc:description>
        <dc:subject>
          <rdf:Bag>
            <rdf:li>hash</rdf:li>
            <rdf:li></rdf:li>
            <rdf:li>computer</rdf:li>
            <rdf:li>icons</rdf:li>
            <rdf:li>stock</rdf:li>
            <rdf:li>theme</rdf:li>
          </rdf:Bag>
        </dc:subject>
        <dc:publisher>
          <cc:Agent rdf:about="http://www.openclipart.org">
            <dc:title>Andy Fitzsimon</dc:title>
          </cc:Agent>
        </dc:publisher>
        <dc:creator>
          <cc:Agent>
            <dc:title>Andy Fitzsimon</dc:title>
          </cc:Agent>
        </dc:creator>
        <dc:rights>
          <cc:Agent>
            <dc:title>Andy Fitzsimon</dc:title>
          </cc:Agent>
        </dc:rights>
        <dc:date></dc:date>
        <dc:format>image/svg+xml</dc:format>
        <dc:type rdf:resource="http://purl.org/dc/dcmitype/StillImage"/>
        <cc:license rdf:resource="http://web.resource.org/cc/PublicDomain"/>
        <dc:language>en</dc:language>
      </cc:Work>
      <cc:License rdf:about="http://web.resource.org/cc/PublicDomain">
        <cc:permits rdf:resource="http://web.resource.org/cc/Reproduction"/>
        <cc:permits rdf:resource="http://web.resource.org/cc/Distribution"/>
        <cc:permits rdf:resource="http://web.resource.org/cc/DerivativeWorks"/>
      </cc:License>
    </rdf:RDF>
  </metadata>
  <defs id="defs3">
    <linearGradient id="linearGradient1290">
      <stop id="stop1291" offset="0.00000000" style="stop-color:#bfae71;stop-opacity:1.0000000;"/>
      <stop id="stop1292" offset="1.0000000" style="stop-color:#7f6a1d;stop-opacity:1.0000000;"/>
    </linearGradient>
    <linearGradient id="linearGradient853">
      <stop id="stop854" offset="0.00000000" style="stop-color:#000000;stop-opacity:0.29752067;"/>
      <stop id="stop855" offset="1.0000000" style="stop-color:#000000;stop-opacity:0.00000000;"/>
    </linearGradient>
    <linearGradient id="linearGradient846">
      <stop id="stop847" offset="0.00000000" style="stop-color:#e7e7e7;stop-opacity:1.0000000;"/>
      <stop id="stop848" offset="1.0000000" style="stop-color:#a5a5a5;stop-opacity:1.0000000;"/>
    </linearGradient>
    <linearGradient id="linearGradient841">
      <stop id="stop842" offset="0.00000000" style="stop-color:#ffffff;stop-opacity:1.0000000;"/>
      <stop id="stop843" offset="1.0000000" style="stop-color:#ffffff;stop-opacity:0.00000000;"/>
    </linearGradient>
    <linearGradient id="linearGradient837">
      <stop id="stop838" offset="0" style="stop-color:#000;stop-opacity:1;"/>
      <stop id="stop839" offset="1" style="stop-color:#fff;stop-opacity:1;"/>
    </linearGradient>
    <linearGradient id="linearGradient840" x1="-0.22348484" x2="0.59469700" xlink:href="#linearGradient853" y1="0.38235295" y2="0.46568626"/>
    <linearGradient id="linearGradient844" xlink:href="#linearGradient841"/>
    <linearGradient id="linearGradient845" x1="1.3833333" x2="0.10833333" xlink:href="#linearGradient841" y1="0.49019608" y2="0.50490195"/>
    <linearGradient id="linearGradient849" x1="0.010563380" x2="1.2288733" xlink:href="#linearGradient846" y1="0.43229166" y2="0.46354166"/>
    <linearGradient id="linearGradient850" xlink:href="#linearGradient846"/>
    <linearGradient id="linearGradient851" x1="0.39788732" x2="0.80985916" xlink:href="#linearGradient846" y1="0.32222223" y2="0.35555556"/>
    <linearGradient id="linearGradient852" x1="0.56179774" x2="0.63483149" xlink:href="#linearGradient841" y1="-1.0294118" y2="0.50735295"/>
    <radialGradient cx="0.50000000" cy="0.89285713" fx="0.51056343" fy="0.67857134" id="radialGradient856" r="0.54606670" xlink:href="#linearGradient841"/>
    <linearGradient id="linearGradient858" x1="0.64285713" x2="0.57142860" xlink:href="#linearGradient846" y1="1.2647059" y2="0.049019609"/>
    <linearGradient id="linearGradient859" x1="1.4647887" x2="0.26408452" xlink:href="#linearGradient853" y1="-1.1486486" y2="1.2905406"/>
    <linearGradient id="linearGradient860" x1="0.47535211" x2="0.50000000" xlink:href="#linearGradient1290" y1="0.81081080" y2="-0.74324322"/>
    <radialGradient cx="0.50000000" cy="0.50000000" fx="0.50704223" fy="0.29885057" id="radialGradient861" r="0.50000000" xlink:href="#linearGradient853"/>
    <radialGradient cx="0.50000000" cy="0.50000000" fx="0.50000000" fy="0.14942528" id="radialGradient864" r="0.50000000" xlink:href="#linearGradient853"/>
  </defs>
  <sodipodi:namedview bordercolor="#666666" borderopacity="1.0" id="base" inkscape:cx="92.667917" inkscape:cy="65.209040" inkscape:pageopacity="0.0" inkscape:pageshadow="2" inkscape:window-height="500" inkscape:window-width="640" inkscape:window-x="475" inkscape:window-y="110" inkscape:zoom="1.7366335" pagecolor="#ffffff" showborder="false"/>
  <g id="g1285" style="fill:#000000;fill-opacity:0.039999999;" transform="matrix(1.000000,0.000000,0.000000,1.005339,-187.2114,-96.89191)">
    <path d="M 262.65959,133.59795 C 235.88637,133.63503 222.55684,142.53903 222.40959,146.94170 C 222.40992,147.08594 222.46105,147.28491 222.47209,147.44170 C 222.46655,147.35337 222.41200,147.28098 222.40959,147.19170 C 221.68184,155.73606 222.67406,163.66268 224.84709,170.62920 C 213.86383,175.77094 206.99508,182.78575 206.90959,189.50420 C 206.90814,189.61833 206.87594,189.73405 206.87834,189.84795 C 206.76368,190.51665 206.67686,191.18506 206.69084,191.84795 C 206.95305,203.96203 214.41879,224.10547 263.34709,223.00420 C 308.84237,222.27276 316.91232,202.75885 317.87834,191.78545 C 317.88120,191.75294 317.90685,191.72406 317.90959,191.69170 C 318.04799,190.83463 318.04071,190.12168 318.09709,189.34795 C 318.14594,188.67754 318.25030,187.91011 318.25334,187.31670 C 318.26913,184.33166 315.52674,180.91763 311.15959,177.59795 C 316.43943,173.79245 320.59709,169.18172 320.59709,163.84795 C 320.59710,148.74468 307.37834,152.22295 307.37834,152.22295 L 301.81584,154.31670 C 301.95736,152.26829 302.09467,150.22392 302.06584,148.09795 C 301.94186,148.41750 301.62192,148.69547 301.44084,149.00420 C 301.56693,148.51159 301.64712,148.03712 301.59709,147.62920 C 301.11502,143.69850 289.21032,133.56086 262.65959,133.59795 z M 223.19084,150.03545 C 223.29561,150.27543 223.36805,150.50667 223.50334,150.75420 C 223.36670,150.52438 223.30183,150.27390 223.19084,150.03545 z M 311.56584,155.19170 C 313.30626,155.35394 314.93224,156.45466 316.19084,159.12920 C 318.75553,164.57916 312.76662,170.15213 306.25334,174.34795 C 304.00947,173.05538 301.54623,171.82000 298.81584,170.66045 C 299.69732,167.89882 300.34196,164.95157 300.87834,161.91045 C 302.21637,160.28658 307.05243,154.77096 311.56584,155.19170 z " id="path1258" style="fill:#000000;fill-rule:evenodd;stroke:none;stroke-opacity:1;stroke-width:1pt;stroke-linejoin:miter;stroke-linecap:butt;fill-opacity:0.039999999;"/>
    <path d="M 253.46875 135.62500 C 243.34953 137.08434 232.09613 138.37367 224.50000 145.96875 C 223.42930 150.94106 224.28333 156.05349 224.46875 161.40625 C 224.81143 165.95255 229.43985 172.39964 222.63209 173.73441 C 214.59617 177.83734 206.00306 185.83851 208.87038 195.81604 C 211.29725 210.91387 227.54825 218.84979 241.50320 219.85438 C 259.09113 222.40955 277.47408 221.65639 294.50000 216.37500 C 306.96931 212.28664 317.76908 200.51206 316.31250 186.75000 C 316.38046 181.97853 309.12855 181.37587 309.87500 176.87500 C 314.62760 172.72944 320.48212 167.59021 318.59375 160.46875 C 319.78728 157.05159 310.15996 152.03712 314.59375 154.75000 C 320.51577 158.78053 318.56317 167.90764 312.86116 171.22159 C 310.20636 174.59636 305.79880 177.19708 301.84481 174.21675 C 295.94059 172.56057 297.27049 165.61120 299.74827 161.56901 C 301.80101 157.15823 306.61886 154.14618 311.43750 153.68750 C 307.60824 151.88329 303.09076 158.12839 300.18750 154.62500 C 300.37462 149.69185 299.32439 143.96119 293.87452 142.27392 C 281.83705 134.98828 267.06557 135.13850 253.46875 135.62500 z " id="path1262" style="fill:#000000;fill-rule:evenodd;stroke:none;stroke-opacity:1;stroke-width:1pt;stroke-linejoin:miter;stroke-linecap:butt;fill-opacity:0.039999999;"/>
    <path d="M 253.18750 132.37500 C 242.05978 134.04426 229.07197 135.35288 221.53125 144.68750 C 219.31077 152.94439 221.46881 161.56482 222.71875 169.65625 C 216.49650 173.73849 208.79507 177.75990 206.40622 185.49726 C 201.84217 197.71040 210.15719 211.19661 220.93523 216.98333 C 235.48371 224.79392 252.74477 224.76539 268.85666 224.23090 C 284.99168 223.09445 303.57049 220.22760 313.89139 206.35768 C 318.47883 199.72382 321.84515 190.16262 318.18047 182.44269 C 316.22979 179.62381 311.46883 177.37591 316.82374 174.89244 C 324.38683 168.95976 324.16584 154.22421 314.29915 150.88427 C 310.64848 149.17022 307.15580 150.76995 303.59375 151.75000 C 304.56807 147.98820 303.14905 144.93433 300.18750 142.62500 C 287.03283 132.03223 269.27162 131.69853 253.18750 132.37500 z M 313.12500 157.59375 C 318.30191 162.99258 310.90111 170.17608 305.78462 171.99820 C 301.28909 172.36045 299.61961 167.40417 302.23660 164.27176 C 303.61649 160.21704 308.64122 155.87524 313.12500 157.59375 z " id="path1265" style="fill:#000000;fill-rule:evenodd;stroke:none;stroke-opacity:1;stroke-width:1pt;stroke-linejoin:miter;stroke-linecap:butt;fill-opacity:0.039999999;"/>
    <path d="M 244.21875 132.12500 C 235.26010 133.83351 225.37137 136.57158 219.90625 144.43750 C 218.07314 152.55048 219.71381 160.78102 220.93750 168.84375 C 211.90075 174.03920 201.99797 182.64624 203.83723 194.24881 C 204.83306 210.40951 220.47097 221.51653 235.45771 223.74515 C 254.29797 227.46672 274.05715 226.44662 292.68750 222.09375 C 307.55530 217.93851 321.89355 205.04110 321.10782 188.55949 C 321.11216 184.61743 319.53301 180.48285 316.46875 177.90625 C 319.81722 173.96788 323.87764 169.87819 323.68993 164.19201 C 324.78218 155.07106 315.80542 145.97349 306.56244 149.16594 C 304.26472 148.72218 304.83462 143.46940 301.69975 142.05950 C 288.29653 130.32213 269.09421 130.32554 252.25783 130.87511 C 249.57814 131.29174 246.89844 131.70837 244.21875 132.12500 z M 312.09375 159.06250 C 315.44556 163.96281 308.26967 170.79261 303.65625 169.46875 C 301.25762 165.11452 307.48970 158.25921 312.09375 159.06250 z " id="path1272" style="fill:#000000;fill-rule:evenodd;stroke:none;stroke-opacity:1;stroke-width:1pt;stroke-linejoin:miter;stroke-linecap:butt;fill-opacity:0.039999999;"/>
  </g>
  <path d="M 3.5553890,107.88655 C 3.2027590,94.595334 33.811129,79.789948 74.645809,79.285221 C 115.90364,78.780494 153.42359,94.595334 153.35307,105.19465 C 153.28253,116.13046 145.52465,140.35745 79.723689,141.19867 C 13.922739,142.37637 3.9080190,120.84126 3.5553890,107.88655 z " id="path834" sodipodi:nodetypes="czzzz" style="fill:url(#radialGradient861);fill-opacity:1;fill-rule:evenodd;stroke:none;stroke-width:1.1265265pt;"/>
  <path d="M 21.999159,96.171440 C 21.736949,83.742700 44.496739,69.898040 74.860609,69.426060 C 105.53913,68.954080 133.43823,83.742700 133.38579,93.654220 C 133.33335,103.88040 127.56474,126.53531 78.636429,127.32194 C 29.708119,128.42321 22.261369,108.28552 21.999159,96.171440 z " id="path832" sodipodi:nodetypes="czzzz" style="fill:#ffffff;fill-rule:evenodd;stroke:none;stroke-opacity:1.0000000;stroke-width:1pt;stroke-linejoin:miter;stroke-linecap:butt;fill-opacity:1.0000000;"/>
  <path d="M 22.179222,94.160811 C 21.917012,81.732071 44.676802,67.887407 75.040670,67.415427 C 105.71919,66.943447 133.61829,81.732071 133.56585,91.643591 C 133.51341,101.86977 127.74480,124.52468 78.816490,125.31131 C 29.888182,126.41258 22.441432,106.27489 22.179222,94.160811 z " id="path866" sodipodi:nodetypes="czzzz" style="fill:url(#linearGradient859);fill-rule:evenodd;stroke:none;stroke-opacity:1.0000000;stroke-width:1pt;stroke-linejoin:miter;stroke-linecap:butt;fill-opacity:1.0000000;"/>
  <path d="M 37.698609,51.263530 C 37.845849,46.860858 51.196479,37.951080 77.969699,37.913998 C 104.52044,37.876916 116.42377,48.000312 116.90584,51.931010 C 117.38790,55.861700 110.75022,64.353490 76.634749,65.280540 C 42.296779,66.207590 37.708699,55.666200 37.698609,51.263530 z " id="path828" sodipodi:nodetypes="czzzz" style="fill:url(#linearGradient850);fill-opacity:1;fill-rule:evenodd;stroke:none;stroke-width:1.0000000pt;"/>
  <path d="M 115.45066,67.066170 C 115.45066,67.066170 126.46346,52.749530 131.49788,63.447680 C 136.53231,74.145830 108.52832,85.473280 108.52832,85.473280 L 103.17924,93.024920 C 103.17924,93.024920 135.90300,83.270730 135.90300,68.167450 C 135.90300,53.064180 122.68764,56.525350 122.68764,56.525350 L 116.07996,59.042560 L 115.45066,67.066170 z " id="path826" sodipodi:nodetypes="cccccccc" style="fill:url(#linearGradient858);fill-rule:evenodd;stroke:none;stroke-opacity:1;stroke-width:1pt;stroke-linejoin:miter;stroke-linecap:butt;fill-opacity:1;"/>
  <path d="M 39.262509,52.412400 C 38.780449,48.481707 53.205359,39.544936 76.641209,39.285362 C 100.29954,39.025788 113.98281,46.924261 114.46488,50.854957 C 114.94695,54.785650 108.53176,61.942490 79.533609,62.869540 C 50.757949,63.796590 39.744579,56.343100 39.262509,52.412400 z " id="path827" sodipodi:nodetypes="czzzz" style="fill:url(#linearGradient851);fill-rule:evenodd;stroke:none;stroke-opacity:1;stroke-width:1pt;stroke-linejoin:miter;stroke-linecap:butt;fill-opacity:1;"/>
  <path d="M 43.044879,56.862250 C 42.525729,53.969850 53.519479,45.848882 74.861269,45.737636 C 96.360379,45.469064 110.16337,53.302370 110.68251,56.194770 C 111.20166,59.087170 90.665029,62.823460 77.976159,63.092030 C 65.287289,63.203270 43.564029,59.754650 43.044879,56.862250 z " id="path829" sodipodi:nodetypes="czzzz" style="fill:url(#linearGradient860);fill-rule:evenodd;stroke:none;stroke-opacity:1;stroke-width:1pt;stroke-linejoin:miter;stroke-linecap:butt;fill-opacity:1.0000000;"/>
  <path d="M 51.104419,58.727910 C 63.113619,54.008130 84.765769,50.758279 101.65207,58.309920 C 104.31234,60.101030 110.19874,57.776050 107.74169,55.896040 C 102.23529,51.176270 86.109399,47.374232 76.119219,47.400453 C 66.129029,47.426674 53.306979,50.179874 47.800579,56.053370 C 46.231949,57.834850 48.779429,60.061320 51.104419,58.727910 z " id="path830" sodipodi:nodetypes="ccczcc" style="fill:url(#radialGradient856);fill-rule:evenodd;stroke:none;stroke-opacity:1;stroke-width:1pt;stroke-linejoin:miter;stroke-linecap:butt;fill-opacity:1;"/>
  <path d="M 40.714059,107.54384 C 40.542919,100.74529 55.397739,93.172230 75.215579,92.914050 C 95.238779,92.655880 113.44792,100.74529 113.41369,106.16692 C 113.37946,111.76066 109.61441,124.15295 77.679969,124.58324 C 45.745529,125.18564 40.885199,114.17028 40.714059,107.54384 z " id="path862" sodipodi:nodetypes="czzzz" style="fill:url(#radialGradient864);fill-opacity:1;fill-rule:evenodd;stroke:none;stroke-width:1.1265265pt;"/>
  <path d="M 37.705069,51.522430 C 35.702639,75.032440 46.641839,93.944280 59.731799,100.69321 C 72.821749,107.44214 85.170069,106.29260 96.887999,99.358260 C 108.60592,92.423920 117.65394,74.290800 117.35728,52.412400 C 111.40616,67.750740 38.224219,70.730930 37.705069,51.522430 z " id="path831" sodipodi:nodetypes="czzcc" style="fill:url(#linearGradient849);fill-rule:evenodd;stroke:none;stroke-opacity:1;stroke-width:1pt;stroke-linejoin:miter;stroke-linecap:butt;fill-opacity:1;"/>
  <path d="M 41.822199,110.01610 C 31.543589,109.43924 21.736949,103.72308 24.516369,92.395620 C 27.295789,80.753510 45.702899,74.827580 53.149649,75.089790 C 60.596409,75.351990 71.032349,88.305150 69.196879,93.968870 C 67.361409,99.632600 52.415469,110.90762 41.822199,110.01610 z " id="path833" sodipodi:nodetypes="czzzz" style="fill:url(#linearGradient840);fill-rule:evenodd;stroke:none;stroke-opacity:1;stroke-width:1pt;stroke-linejoin:miter;stroke-linecap:butt;fill-opacity:1;"/>
  <path d="M 91.548179,77.999000 C 94.663079,76.886540 108.68008,75.996580 111.79497,62.202060 C 113.35242,74.661620 109.27947,80.540300 107.79012,84.006300 C 106.30077,87.694780 94.102549,100.47735 93.773109,97.578320 L 91.548179,77.999000 z " id="path835" sodipodi:nodetypes="cczzc" style="fill:url(#linearGradient845);fill-rule:evenodd;stroke:none;stroke-opacity:1;stroke-width:1pt;stroke-linejoin:miter;stroke-linecap:butt;fill-opacity:1;"/>
  <path d="M 42.377409,77.776520 C 40.226649,75.477430 37.482579,57.307230 38.595039,59.977140 C 39.485009,62.647040 47.939709,67.282300 51.054599,66.429410 C 53.946999,65.576520 58.026029,82.115110 52.389559,84.006300 C 46.530589,85.897480 44.528159,79.853110 42.377409,77.776520 z " id="path836" sodipodi:nodetypes="czzzz" style="fill:url(#linearGradient844);fill-rule:evenodd;stroke:none;stroke-opacity:1;stroke-width:1pt;stroke-linejoin:miter;stroke-linecap:butt;fill-opacity:1;"/>
  <path d="M 117.30830,58.950400 L 116.98574,62.096910 C 116.51376,65.086100 127.27708,51.851650 132.46883,63.808410 C 132.97898,66.632370 132.44183,70.212690 132.44183,70.212690 C 132.44183,70.212690 135.40403,66.819960 134.80172,63.605010 C 131.26421,51.932630 119.53322,57.949180 117.30830,58.950400 z " id="path857" sodipodi:nodetypes="cccccc" style="fill:url(#linearGradient852);fill-rule:evenodd;stroke:none;stroke-opacity:1;stroke-width:1pt;stroke-linejoin:miter;stroke-linecap:butt;fill-opacity:1;"/><text id="text1232" style="fill:black;fill-opacity:1;stroke:none;font-family:helvetica;font-style:normal;font-weight:normal;font-size:12px;stroke-opacity:1;stroke-width:1pt;stroke-linejoin:miter;stroke-linecap:butt;" x="-28.738708" xml:space="preserve" y="-16.913011"><tspan id="tspan1233">Coffee</tspan></text><text id="text1235" style="fill:black;fill-opacity:1;stroke:none;font-family:helvetica;font-style:normal;font-weight:normal;font-size:12px;stroke-opacity:1;stroke-width:1pt;stroke-linejoin:miter;stroke-linecap:butt;" transform="scale(0.246729,0.246729)" x="-97.670814" xml:space="preserve" y="-46.996554"><tspan id="tspan1236">Created by Andrew Fitzsimon</tspan></text>
</svg>
