<?xml version="1.0" encoding="UTF-8" standalone="no"?>
<!DOCTYPE svg PUBLIC "-//W3C//DTD SVG 20010904//EN"
"http://www.w3.org/TR/2001/REC-SVG-20010904/DTD/svg10.dtd">
<svg height="128.00000pt" id="svg733" inkscape:version="0.39cvs" sodipodi:docbase="/home/andy/andy/SVG/svgart" sodipodi:docname="folder2.svg" sodipodi:version="0.32" width="128.00000pt" xmlns="http://www.w3.org/2000/svg" xmlns:inkscape="http://www.inkscape.org/namespaces/inkscape" xmlns:sodipodi="http://sodipodi.sourceforge.net/DTD/sodipodi-0.dtd" xmlns:xlink="http://www.w3.org/1999/xlink">
  <metadata>
    <rdf:RDF xmlns:cc="http://web.resource.org/cc/" xmlns:dc="http://purl.org/dc/elements/1.1/" xmlns:rdf="http://www.w3.org/1999/02/22-rdf-syntax-ns#">
      <cc:Work rdf:about="">
        <dc:title>Etiquette Icons</dc:title>
        <dc:description></dc:description>
        <dc:subject>
          <rdf:Bag>
            <rdf:li>hash</rdf:li>
            <rdf:li></rdf:li>
            <rdf:li>computer</rdf:li>
            <rdf:li>icons</rdf:li>
            <rdf:li>stock</rdf:li>
            <rdf:li>theme</rdf:li>
          </rdf:Bag>
        </dc:subject>
        <dc:publisher>
          <cc:Agent rdf:about="http://www.openclipart.org">
            <dc:title>Andy Fitzsimon</dc:title>
          </cc:Agent>
        </dc:publisher>
        <dc:creator>
          <cc:Agent>
            <dc:title>Andy Fitzsimon</dc:title>
          </cc:Agent>
        </dc:creator>
        <dc:rights>
          <cc:Agent>
            <dc:title>Andy Fitzsimon</dc:title>
          </cc:Agent>
        </dc:rights>
        <dc:date></dc:date>
        <dc:format>image/svg+xml</dc:format>
        <dc:type rdf:resource="http://purl.org/dc/dcmitype/StillImage"/>
        <cc:license rdf:resource="http://web.resource.org/cc/PublicDomain"/>
        <dc:language>en</dc:language>
      </cc:Work>
      <cc:License rdf:about="http://web.resource.org/cc/PublicDomain">
        <cc:permits rdf:resource="http://web.resource.org/cc/Reproduction"/>
        <cc:permits rdf:resource="http://web.resource.org/cc/Distribution"/>
        <cc:permits rdf:resource="http://web.resource.org/cc/DerivativeWorks"/>
      </cc:License>
    </rdf:RDF>
  </metadata>
  <defs id="defs735">
    <linearGradient id="linearGradient4033" x1="0.25179857" x2="0.53237408" xlink:href="#linearGradient4215" y1="-0.039062500" y2="0.52343750"/>
    <linearGradient id="linearGradient3983" x1="0.092198581" x2="0.48226950" xlink:href="#linearGradient4215" y1="-0.21093750" y2="0.49218750"/>
    <linearGradient id="linearGradient3978" x1="0.016528925" x2="0.51239669" xlink:href="#linearGradient4215" y1="-0.49218750" y2="0.50000000"/>
    <linearGradient id="linearGradient3969" x1="0.055118110" x2="0.53543305" xlink:href="#linearGradient4215" y1="-0.30468750" y2="0.56250000"/>
    <linearGradient gradientTransform="scale(0.999075,1.000926)" id="linearGradient4018" x1="1.2125034" x2="0.58590770" xlink:href="#linearGradient4215" y1="0.78833276" y2="0.44490069"/>
    <linearGradient id="linearGradient4215">
      <stop id="stop4216" offset="0.0000000" style="stop-color:#ffffff;stop-opacity:1.0000000;"/>
      <stop id="stop4217" offset="1.0000000" style="stop-color:#ffffff;stop-opacity:0.0000000;"/>
    </linearGradient>
    <linearGradient gradientTransform="scale(1.003618,0.996395)" id="linearGradient4019" x1="1.1610887" x2="0.47761098" xlink:href="#linearGradient4215" y1="0.61942029" y2="0.32147130"/>
    <linearGradient id="linearGradient4017" x1="1.8455285" x2="0.47967479" xlink:href="#linearGradient4021" y1="1.3437500" y2="0.56250000"/>
    <linearGradient id="linearGradient4021">
      <stop id="stop4022" offset="0.0000000" style="stop-color:#000000;stop-opacity:1.0000000;"/>
      <stop id="stop4023" offset="1.0000000" style="stop-color:#000000;stop-opacity:0.0000000;"/>
    </linearGradient>
    <linearGradient gradientTransform="scale(0.990884,1.009200)" id="linearGradient4020" x1="1.7519705" x2="0.54093099" xlink:href="#linearGradient4021" y1="1.0528145" y2="0.37158158"/>
    <linearGradient id="linearGradient1806">
      <stop id="stop1807" offset="0.0000000" style="stop-color:#000000;stop-opacity:0.29378530;"/>
      <stop id="stop3276" offset="0.64777780" style="stop-color:#000000;stop-opacity:0.062146891;"/>
      <stop id="stop1808" offset="1.0000000" style="stop-color:#000000;stop-opacity:0.0000000;"/>
    </linearGradient>
    <radialGradient cx="0.49032259" cy="0.50649351" fx="0.63414633" fy="0.37777779" id="radialGradient4069" r="0.38170236" xlink:href="#linearGradient1806"/>
    <linearGradient id="linearGradient1519">
      <stop id="stop1520" offset="0.0000000" style="stop-color:#327fd4;stop-opacity:1.0000000;"/>
      <stop id="stop1521" offset="0.50000000" style="stop-color:#94b8ed;stop-opacity:1.0000000;"/>
      <stop id="stop1522" offset="1.0000000" style="stop-color:#002c70;stop-opacity:1.0000000;"/>
    </linearGradient>
    <linearGradient id="linearGradient1455">
      <stop id="stop1456" offset="0.00000000" style="stop-color:#7093bd;stop-opacity:0.57254905;"/>
      <stop id="stop1457" offset="1.0000000" style="stop-color:#cacaca;stop-opacity:0.00000000;"/>
    </linearGradient>
    <linearGradient id="linearGradient899">
      <stop id="stop900" offset="0.00000000" style="stop-color:#000000;stop-opacity:0.12396694;"/>
      <stop id="stop901" offset="1.0000000" style="stop-color:#000000;stop-opacity:0.00000000;"/>
    </linearGradient>
    <linearGradient id="linearGradient844">
      <stop id="stop845" offset="0.00000000" style="stop-color:#ffffff;stop-opacity:1.0000000;"/>
      <stop id="stop846" offset="1.0000000" style="stop-color:#ffffff;stop-opacity:0.00000000;"/>
    </linearGradient>
    <linearGradient id="linearGradient740">
      <stop id="stop741" offset="0.0000000" style="stop-color:#97c9ff;stop-opacity:1.0000000;"/>
      <stop id="stop1450" offset="0.50000000" style="stop-color:#578bd6;stop-opacity:1.0000000;"/>
      <stop id="stop742" offset="1.0000000" style="stop-color:#395c97;stop-opacity:1.0000000;"/>
    </linearGradient>
    <linearGradient id="linearGradient743" x1="0.87937742" x2="0.44357976" xlink:href="#linearGradient844" y1="-0.27631578" y2="0.50657892"/>
    <linearGradient id="linearGradient744" xlink:href="#linearGradient899"/>
    <linearGradient gradientTransform="scale(0.985855,1.014348)" gradientUnits="objectBoundingBox" id="linearGradient843" x1="0.33548474" x2="0.52888185" xlink:href="#linearGradient844" y1="0.98106927" y2="0.59821296"/>
    <linearGradient id="linearGradient851" x1="0.68093383" x2="0.59533072" xlink:href="#linearGradient899" y1="1.3662791" y2="0.59883720"/>
    <linearGradient gradientUnits="objectBoundingBox" id="linearGradient856" x1="0.77821010" x2="0.40077820" xlink:href="#linearGradient1519" y1="-0.086956523" y2="1.1347826"/>
    <linearGradient id="linearGradient857" x1="0.58754861" x2="0.90661478" xlink:href="#linearGradient740" y1="1.0550458" y2="0.20183486"/>
    <linearGradient gradientUnits="userSpaceOnUse" id="linearGradient894" x1="103.15775" x2="113.96166" xlink:href="#linearGradient899" y1="51.338280" y2="11.751064"/>
    <linearGradient gradientUnits="userSpaceOnUse" id="linearGradient895" x1="103.15775" x2="113.96166" xlink:href="#linearGradient899" y1="51.338280" y2="11.751064"/>
    <linearGradient gradientUnits="userSpaceOnUse" id="linearGradient896" x1="103.15775" x2="113.96166" xlink:href="#linearGradient899" y1="51.338280" y2="11.751064"/>
    <linearGradient gradientUnits="userSpaceOnUse" id="linearGradient897" x1="103.15775" x2="113.96166" xlink:href="#linearGradient899" y1="51.338280" y2="11.751064"/>
    <linearGradient gradientUnits="userSpaceOnUse" id="linearGradient898" x1="103.15775" x2="113.96166" xlink:href="#linearGradient899" y1="51.338280" y2="11.751064"/>
    <radialGradient cx="0.48591548" cy="0.48591548" fx="0.52112675" fy="0.28873238" id="radialGradient1454" r="0.43311292" xlink:href="#linearGradient1455"/>
    <radialGradient cx="49.807121" cy="95.939728" fx="49.807121" fy="95.939728" gradientUnits="userSpaceOnUse" id="radialGradient2112" r="10.919779" xlink:href="#linearGradient1455"/>
  </defs>
  <sodipodi:namedview bordercolor="#666666" borderopacity="1.0" id="base" inkscape:cx="-1.2487999" inkscape:cy="137.76075" inkscape:pageopacity="0.0" inkscape:pageshadow="2" inkscape:window-height="663" inkscape:window-width="477" inkscape:window-x="17" inkscape:window-y="127" inkscape:zoom="1.3371480" pagecolor="#ffffff" showborder="false" showguides="true" snaptoguides="true"/>
  <path d="M 32.390255 64.318703 A 16.914911 16.914911 0 1 0 -1.4395676,64.318703 A 16.914911 16.914911 0 1 0 32.390255 64.318703 z" id="path1453" sodipodi:cx="15.475344" sodipodi:cy="64.318703" sodipodi:rx="16.914911" sodipodi:ry="16.914911" sodipodi:type="arc" style="fill:url(#radialGradient1454);fill-opacity:1;fill-rule:evenodd;stroke-width:1.0000000pt;" transform="matrix(5.075893,1.406828,-0.490019,1.768007,17.49792,-28.71919)"/>
  <path d="M 19.794045,13.753914 L 21.953395,9.5701724 C 22.509757,8.4922223 24.399638,8.6523742 25.552313,9.0303349 L 31.963201,11.132458 C 33.953359,11.785028 34.465438,12.498323 34.999471,14.248765 L 37.428740,22.211370 L 54.703543,28.149583 L 43.007062,45.964223 L 12.776156,32.468284 L 19.794045,13.753914 z " id="path739" sodipodi:nodetypes="czzzzccccc" style="font-size:12.000000;fill:url(#linearGradient856);fill-opacity:1;fill-rule:evenodd;stroke-width:0.75000000;stroke-linecap:round;stroke-linejoin:round;" transform="matrix(2.781578,0.000000,0.000000,2.781578,-9.671253,-9.568611)"/>
  <g id="g1580" style="fill:url(#linearGradient851);" transform="matrix(1.000000,0.000000,0.000000,0.761070,8.652379,-55.49256)">
    <path d="M 46.420040,125.74312 C 41.441231,125.80110 40.756721,131.42004 38.543793,134.76377 C 37.466360,136.98968 36.119022,139.09632 35.357540,141.46187 C 32.833130,139.74164 31.225855,140.18252 30.759406,143.31161 C 24.886139,158.04757 18.806211,172.70736 13.063968,187.49158 C 11.301819,191.96957 13.235964,197.18746 18.218031,197.93922 C 45.389275,208.56842 72.508700,219.35087 99.712300,229.88438 C 98.782520,228.95866 102.44043,228.30424 103.12623,225.37455 C 113.13042,210.13282 123.13460,194.89110 133.13879,179.64937 C 126.79504,177.47229 120.45129,175.29520 114.10754,173.11812 C 115.78462,168.11812 117.46171,163.11812 119.13879,158.11812 C 106.11796,154.33687 93.097120,150.55562 80.076290,146.77437 C 78.742960,142.38895 77.409620,138.00354 76.076290,133.61812 C 67.152900,131.08421 58.346340,128.07681 49.340369,125.87720 C 48.851954,125.83047 46.905070,125.74108 46.420040,125.74312 z " id="path1558" style="fill-opacity:0.16770186;fill-rule:evenodd;stroke-width:0.75000000;stroke-linecap:round;stroke-linejoin:round;"/>
    <path d="M 44.656250,124.78125 C 39.397742,127.78344 37.947152,134.00286 35.144971,138.90782 C 33.605867,140.02440 30.353847,139.06785 30.045798,142.00893 C 23.940500,157.66976 17.185512,173.12796 11.622436,188.96826 C 10.585049,193.29145 13.402521,197.74518 17.601892,198.98478 C 44.817928,209.65651 72.033964,220.32826 99.250000,231.00000 C 104.08480,228.27039 106.05742,222.47231 109.30910,218.17624 C 117.59148,205.55499 125.87387,192.93375 134.15625,180.31250 C 132.57232,176.78430 127.78060,176.99450 124.64793,175.49989 C 121.62987,174.45826 118.61181,173.41663 115.59375,172.37500 C 117.11222,167.43224 118.89139,162.53030 120.25000,157.56250 C 107.26576,153.43851 94.066817,149.74115 81.000000,145.78125 C 79.620108,141.32212 78.388238,136.70414 76.437500,132.50000 C 66.941211,129.62030 57.421204,126.66666 47.718093,124.67091 C 46.697480,124.70769 45.676864,124.74447 44.656250,124.78125 z " id="path1568" style="fill-opacity:0.16770186;fill-rule:evenodd;stroke-width:0.75000000;stroke-linecap:round;stroke-linejoin:round;"/>
    <path d="M 45.093750,123.56250 C 39.678539,126.86306 37.296779,132.94247 34.468750,138.31250 C 30.265684,138.20609 28.608366,142.54663 27.598685,145.89352 C 22.053751,160.24408 16.438504,174.57414 10.937500,188.93750 C 10.311010,193.75099 13.286163,198.52732 17.847750,200.14882 C 44.992250,210.80755 72.136750,221.46627 99.281250,232.12500 C 105.96987,228.76126 108.92324,221.29334 113.08132,215.45100 C 120.62713,203.95691 128.17294,192.46283 135.71875,180.96875 C 134.60533,176.79020 129.87685,175.58780 126.18415,174.52974 C 123.30555,173.63878 120.47899,172.59039 117.62500,171.62500 C 119.05208,166.85417 120.47917,162.08333 121.90625,157.31250 C 120.06026,155.75342 116.96867,155.66781 114.64681,154.67166 C 103.92079,151.39569 93.194771,148.11972 82.468750,144.84375 C 81.077471,140.22744 79.605655,135.55249 77.343750,131.31250 C 67.298786,128.38440 57.188581,125.48374 46.936932,123.48570 C 46.322538,123.51130 45.708144,123.53690 45.093750,123.56250 z " id="path1575" style="fill-opacity:0.16770186;fill-rule:evenodd;stroke-width:0.75000000;stroke-linecap:round;stroke-linejoin:round;"/>
    <path d="M 45.656250,127.21875 C 41.161821,130.99737 39.913767,136.98088 36.843750,141.75000 C 35.392972,143.08094 32.687069,140.96561 32.289520,143.62933 C 26.478798,158.82812 20.265304,173.92030 14.547078,189.12324 C 13.557388,192.64857 16.105318,196.17218 19.570482,196.92268 C 46.265738,207.40679 72.960994,217.89089 99.656250,228.37500 C 106.12950,220.42791 111.04897,211.35274 116.89810,202.94953 C 121.85915,195.40385 126.82020,187.85818 131.78125,180.31250 C 125.93750,178.29167 120.09375,176.27083 114.25000,174.25000 C 113.34866,170.05407 116.12640,165.99149 117.13628,161.93492 C 119.05766,159.16049 116.67654,158.14201 114.21701,157.85890 C 102.88426,154.57260 91.551502,151.28630 80.218750,148.00000 C 78.433290,143.68349 77.220924,139.03728 75.656250,134.59375 C 66.475875,131.86999 57.248807,129.11314 47.905779,127.11289 C 47.155938,127.14818 46.406093,127.18346 45.656250,127.21875 z " id="path1579" style="fill-opacity:0.16770186;fill-rule:evenodd;stroke-width:0.75000000;stroke-linecap:round;stroke-linejoin:round;"/>
  </g>
  <path d="M 12.236319,34.267742 C 11.052022,33.802482 11.221709,31.669394 11.696481,30.488879 L 18.354478,13.933860 L 30.410851,18.792398 L 32.210310,16.812994 C 32.946596,16.003079 34.398401,15.967188 35.449335,16.273156 L 47.888093,19.894567 C 49.360503,20.323243 49.375010,21.275150 48.720342,23.223565 L 42.107332,42.905144 C 41.309446,45.279804 43.478317,46.541384 42.467224,46.144169 L 12.236319,34.267742 z " id="path738" sodipodi:nodetypes="czccsszzzzz" style="font-size:12.000000;fill:url(#linearGradient857);fill-rule:evenodd;stroke-width:0.75000000;stroke-linecap:round;stroke-linejoin:round;" transform="matrix(2.781578,0.000000,0.000000,2.781578,-9.671253,-9.568611)"/>
  <path d="M 25.123233,74.777138 C 20.950774,85.170777 28.094901,85.387087 32.189556,87.285269 C 54.364073,96.000498 85.124671,108.44236 107.29918,117.15759 C 103.90636,114.22551 104.93853,112.20225 107.18096,106.09395 C 109.42338,99.985657 112.87606,89.792318 119.41389,72.046964 C 121.32171,66.378022 121.43007,59.269507 123.33788,53.600562 C 111.40028,50.297439 99.462669,46.994315 87.525067,43.691191 C 75.794680,38.716708 78.695694,36.390389 73.617177,50.210514 C 63.707806,46.385844 50.795234,41.560107 40.885862,37.735437 C 35.438606,52.048973 30.570489,60.463602 25.123233,74.777138 z " id="path849" sodipodi:nodetypes="cccscccccc" style="font-size:12.000000;fill:url(#linearGradient843);fill-rule:evenodd;stroke-width:0.75000000;stroke-linecap:round;stroke-linejoin:round;"/>
  <path d="M 34.189713,50.952810 L 42.107331,31.158765 L 75.217369,44.294813 L 80.075907,39.256329 C 82.741887,36.491609 87.514792,36.886703 94.651522,39.076382 L 122.36318,47.578824 C 124.26159,48.161291 125.90904,49.993588 124.88242,52.977200 L 114.80546,82.263389 L 34.189713,50.952810 z " id="path1557" sodipodi:nodetypes="ccczzzzcc" style="fill:url(#linearGradient743);fill-rule:evenodd;stroke:none;stroke-opacity:1;stroke-width:1pt;stroke-linejoin:miter;stroke-linecap:butt;fill-opacity:1;"/>
</svg>
