<?xml version="1.0" encoding="UTF-8" standalone="no"?>
<!DOCTYPE svg PUBLIC "-//W3C//DTD SVG 20010904//EN"
"http://www.w3.org/TR/2001/REC-SVG-20010904/DTD/svg10.dtd">
<!-- Created with Inkscape (http://www.inkscape.org/) --><svg height="128.00000pt" id="svg1108" inkscape:version="0.38cvs-040410.1009" sodipodi:docbase="C:\Documents and Settings\Emily\Desktop\andy\SVG\svgart" sodipodi:docname="scissors.svg" sodipodi:version="0.32" width="128.00000pt" xmlns="http://www.w3.org/2000/svg" xmlns:inkscape="http://www.inkscape.org/namespaces/inkscape" xmlns:sodipodi="http://sodipodi.sourceforge.net/DTD/sodipodi-0.dtd" xmlns:xlink="http://www.w3.org/1999/xlink" xmlns:xml="http://www.w3.org/XML/1998/namespace">
  <metadata>
    <rdf:RDF xmlns:cc="http://web.resource.org/cc/" xmlns:dc="http://purl.org/dc/elements/1.1/" xmlns:rdf="http://www.w3.org/1999/02/22-rdf-syntax-ns#">
      <cc:Work rdf:about="">
        <dc:title>Etiquette Icons</dc:title>
        <dc:description></dc:description>
        <dc:subject>
          <rdf:Bag>
            <rdf:li>hash</rdf:li>
            <rdf:li></rdf:li>
            <rdf:li>computer</rdf:li>
            <rdf:li>icons</rdf:li>
            <rdf:li>stock</rdf:li>
            <rdf:li>theme</rdf:li>
          </rdf:Bag>
        </dc:subject>
        <dc:publisher>
          <cc:Agent rdf:about="http://www.openclipart.org">
            <dc:title>Andy Fitzsimon</dc:title>
          </cc:Agent>
        </dc:publisher>
        <dc:creator>
          <cc:Agent>
            <dc:title>Andy Fitzsimon</dc:title>
          </cc:Agent>
        </dc:creator>
        <dc:rights>
          <cc:Agent>
            <dc:title>Andy Fitzsimon</dc:title>
          </cc:Agent>
        </dc:rights>
        <dc:date></dc:date>
        <dc:format>image/svg+xml</dc:format>
        <dc:type rdf:resource="http://purl.org/dc/dcmitype/StillImage"/>
        <cc:license rdf:resource="http://web.resource.org/cc/PublicDomain"/>
        <dc:language>en</dc:language>
      </cc:Work>
      <cc:License rdf:about="http://web.resource.org/cc/PublicDomain">
        <cc:permits rdf:resource="http://web.resource.org/cc/Reproduction"/>
        <cc:permits rdf:resource="http://web.resource.org/cc/Distribution"/>
        <cc:permits rdf:resource="http://web.resource.org/cc/DerivativeWorks"/>
      </cc:License>
    </rdf:RDF>
  </metadata>
  <defs id="defs1110">
    <linearGradient id="linearGradient1243">
      <stop id="stop1244" offset="0.00000000" style="stop-color:#000000;stop-opacity:0.19791667;"/>
      <stop id="stop1245" offset="1.0000000" style="stop-color:#000000;stop-opacity:0.00000000;"/>
    </linearGradient>
    <linearGradient id="linearGradient1152">
      <stop id="stop1153" offset="0.00000000" style="stop-color:#ffffff;stop-opacity:0.00000000;"/>
      <stop id="stop1155" offset="0.44302326" style="stop-color:#ffffff;stop-opacity:0.46274510;"/>
      <stop id="stop1154" offset="1.0000000" style="stop-color:#ffffff;stop-opacity:0.00000000;"/>
    </linearGradient>
    <linearGradient id="linearGradient1136">
      <stop id="stop1137" offset="0.00000000" style="stop-color:#000000;stop-opacity:1.0000000;"/>
      <stop id="stop1138" offset="1.0000000" style="stop-color:#454545;stop-opacity:1.0000000;"/>
    </linearGradient>
    <linearGradient id="linearGradient1129">
      <stop id="stop1130" offset="0.00000000" style="stop-color:#ffffff;stop-opacity:0.00000000;"/>
      <stop id="stop1131" offset="1.0000000" style="stop-color:#ffffff;stop-opacity:0.64583331;"/>
    </linearGradient>
    <linearGradient id="linearGradient1125">
      <stop id="stop1126" offset="0.00000000" style="stop-color:#979797;stop-opacity:1.0000000;"/>
      <stop id="stop1163" offset="0.35050300" style="stop-color:#fafafa;stop-opacity:1.0000000;"/>
      <stop id="stop1164" offset="0.36050299" style="stop-color:#9f9f9f;stop-opacity:1.0000000;"/>
      <stop id="stop1127" offset="1.0000000" style="stop-color:#ffffff;stop-opacity:1.0000000;"/>
    </linearGradient>
    <linearGradient id="linearGradient1128" x1="0.48591548" x2="0.74647886" xlink:href="#linearGradient1129" y1="0.37735850" y2="1.4213836"/>
    <linearGradient id="linearGradient1133" x1="0.84154928" x2="0.84154928" xlink:href="#linearGradient1125" y1="0.68387097" y2="-0.89827693"/>
    <linearGradient id="linearGradient1134" x1="0.66901410" x2="-0.20070423" xlink:href="#linearGradient1125" y1="0.30864197" y2="-0.77777779"/>
    <linearGradient id="linearGradient1135" x1="0.00000000" x2="1.0000000" xlink:href="#linearGradient1136" y1="0.50000000" y2="0.50000000"/>
    <linearGradient id="linearGradient1145" x1="0.24647887" x2="1.2007042" xlink:href="#linearGradient1136" y1="0.10638298" y2="1.0851064"/>
    <linearGradient id="linearGradient1146" x1="0.40845069" x2="0.46126762" xlink:href="#linearGradient1129" y1="1.0571429" y2="0.0095238099"/>
    <linearGradient id="linearGradient1147" x1="0.86665756" x2="-0.27232969" xlink:href="#linearGradient1129" y1="0.56581354" y2="0.26062277"/>
    <linearGradient id="linearGradient1149" x1="0.50704229" x2="0.49647889" xlink:href="#linearGradient1243" y1="1.5294118" y2="-0.080536909"/>
    <linearGradient id="linearGradient1150" x1="0.0070422534" x2="1.1443661" xlink:href="#linearGradient1152" y1="0.93167704" y2="0.94409937"/>
    <linearGradient id="linearGradient1151" x1="1.0671285" x2="0.12657717" xlink:href="#linearGradient1152" y1="0.74597573" y2="0.72440946"/>
    <radialGradient cx="0.50387597" cy="0.18343195" fx="0.36821705" fy="0.92899406" id="radialGradient1157" r="1.1214312" xlink:href="#linearGradient1125"/>
    <linearGradient id="linearGradient1242" x1="0.36267605" x2="0.24647887" xlink:href="#linearGradient1243" y1="0.21126761" y2="0.39436620"/>
  </defs>
  <sodipodi:namedview bordercolor="#666666" borderopacity="1.0" id="base" inkscape:cx="67.805518" inkscape:cy="81.666253" inkscape:pageopacity="0.0" inkscape:pageshadow="2" inkscape:window-height="500" inkscape:window-width="640" inkscape:window-x="-10" inkscape:window-y="62" inkscape:zoom="1.7366334" pagecolor="#ffffff" showborder="false"/>
  <g id="g1184" style="fill:url(#linearGradient1149);" transform="matrix(0.403521,0.000000,0.000000,0.356563,-192.3720,14.09961)">
    <path d="M 826.49596,101.10492 C 825.07964,101.09066 823.80572,101.26380 822.99596,101.69867 C 820.69346,103.08976 727.11909,142.74038 683.05846,162.16742 L 662.77721,157.01117 C 664.27314,155.16981 659.18327,152.24021 657.05846,150.82367 C 654.76813,149.29678 643.81369,145.98900 632.87096,143.69867 C 621.92823,141.40833 625.23737,132.26615 620.40221,124.88617 C 615.56706,117.50619 606.92101,115.44419 593.43346,115.69867 C 579.94592,115.95315 558.81778,124.37248 552.96471,128.69867 C 547.11163,133.02486 547.12071,143.43933 550.68346,149.29242 C 554.24621,155.14550 576.11175,158.98440 580.18346,158.72992 C 584.25517,158.47543 636.68343,169.41742 636.68346,169.41742 C 636.68346,169.41742 648.66550,172.95775 649.68346,170.66742 C 650.70139,168.37708 654.74597,168.38617 654.74596,168.38617 C 654.74596,168.38617 655.37925,167.34028 655.55846,167.01117 C 656.44147,167.64356 657.23520,168.49104 657.77721,169.72992 C 658.31833,170.96677 658.45124,172.24246 658.40221,173.51117 C 648.93121,179.35300 654.16671,183.97720 653.12096,190.94867 C 652.04129,198.14650 642.68345,196.69866 642.68346,196.69867 L 643.62096,197.57367 C 642.23854,196.70189 641.10745,196.10399 640.49596,196.13617 C 638.88424,196.22100 633.70607,195.15181 630.83971,196.63617 L 516.83971,255.66742 C 509.56335,259.43553 491.88815,273.98790 501.55846,287.72992 C 511.22878,301.47195 549.41940,300.97581 559.08971,295.88617 C 568.76003,290.79653 599.80336,280.61586 608.96471,251.60492 C 618.12604,222.59399 656.80846,212.41742 656.80846,212.41742 C 656.80844,212.41742 660.58726,209.61020 653.52721,204.54242 L 684.46471,187.32367 L 863.62096,216.51117 C 870.18377,217.59195 862.39077,207.48991 848.15221,203.91742 L 715.12096,170.26117 L 833.77721,104.19867 C 836.19920,102.85100 830.74491,101.14769 826.49596,101.10492 z M 593.65221,122.79242 C 600.86915,122.36298 609.28255,123.66841 612.52721,125.38617 C 616.85340,127.67651 615.55412,130.71150 614.02721,138.85492 C 612.50032,146.99834 599.29535,148.52911 594.71471,147.51117 C 561.88655,145.22084 562.37095,143.19904 562.37096,137.85492 C 562.37096,132.51080 579.42397,126.39975 587.05846,123.85492 C 588.96707,123.28234 591.24656,122.93557 593.65221,122.79242 z M 578.90221,240.79242 C 580.47980,240.63337 581.85079,240.66294 582.99596,240.91742 C 592.15729,242.95328 592.67935,252.37236 587.58971,258.47992 C 582.50010,264.58749 563.13987,282.15372 547.87096,286.47992 C 532.34758,290.80612 516.57651,290.54739 513.77721,283.16742 C 510.97790,275.78744 515.82515,271.94941 532.62096,261.26117 C 547.31728,252.35431 567.85908,241.90578 578.90221,240.79242 z " id="path1169" style="fill:url(#linearGradient1149);fill-rule:evenodd;stroke:none;stroke-opacity:1;stroke-width:1pt;stroke-linejoin:miter;stroke-linecap:butt;fill-opacity:1;"/>
    <path d="M 823.75000 103.87500 C 776.73367 124.14646 729.68156 144.85163 682.50000 164.40625 C 675.00101 162.48571 667.49451 160.59395 660.00000 158.65625 C 660.50399 152.11550 651.28518 151.88108 646.72905 149.63270 C 637.75854 146.70133 624.25389 146.96428 621.84375 135.40625 C 620.19024 128.04242 616.11052 119.84658 607.50302 119.46684 C 588.98701 115.25298 569.37676 121.71306 553.70638 131.36431 C 546.70926 138.84178 552.15828 152.78498 562.68903 152.86508 C 581.41014 157.68735 600.84943 158.85259 619.60761 163.65436 C 629.23391 165.17100 639.24997 168.77886 648.73532 168.44086 C 651.85808 165.72031 657.58150 162.69233 659.56250 168.31250 C 662.24096 172.65260 659.11307 176.67744 655.83328 179.14643 C 653.89032 185.30142 658.18762 194.95654 650.12500 198.09375 C 643.48019 202.36767 635.69371 195.20393 629.03469 200.17557 C 590.59773 220.12055 551.80800 239.73198 513.78072 260.52655 C 505.41694 265.74608 496.74461 277.83871 504.24887 287.06897 C 515.97582 297.72704 533.34705 297.03952 548.16974 296.18738 C 563.83500 293.28931 577.91136 284.46959 590.43365 275.01652 C 600.17516 266.81646 605.39589 254.99604 610.02282 243.50008 C 619.25797 226.61331 637.00557 216.65254 654.68750 210.68750 C 652.94717 207.48344 649.63414 202.18308 655.00000 200.50000 C 665.32981 196.29700 674.59587 189.28349 684.84375 185.06250 C 743.76018 194.72409 802.69610 204.26507 861.65625 213.65625 C 851.65722 204.22734 836.69332 204.53499 824.27765 200.24272 C 785.83153 190.51364 747.38068 180.80316 708.93750 171.06250 C 749.14842 148.68173 789.35374 126.29090 829.56250 103.90625 C 827.68119 103.17113 825.69281 103.86138 823.75000 103.87500 z M 593.68750 120.46875 C 601.60747 120.77959 611.92948 119.93774 617.09375 126.96875 C 619.37391 136.45680 614.25803 149.27294 603.11539 149.20340 C 591.06109 150.80283 578.73360 148.35617 566.95233 146.36441 C 560.59264 145.56104 557.32510 137.10943 562.90625 133.06250 C 570.99714 126.41080 581.51267 122.80008 591.68498 120.76991 C 592.35224 120.69781 593.02212 120.53814 593.68750 120.46875 z M 582.15625 238.31250 C 591.76699 239.04923 596.91848 252.00007 589.66657 258.76160 C 581.91738 269.13115 570.85312 276.72828 559.98649 283.56962 C 547.10020 290.42770 531.11070 294.06196 516.94832 289.49681 C 508.65506 285.55218 509.21906 272.83136 517.60994 269.26118 C 534.99896 255.77734 554.91030 245.12366 576.04703 238.98104 C 578.06802 238.50572 580.08148 238.32525 582.15625 238.31250 z " id="path1173" style="fill:url(#linearGradient1149);fill-rule:evenodd;stroke:none;stroke-opacity:1;stroke-width:1pt;stroke-linejoin:miter;stroke-linecap:butt;fill-opacity:1;"/>
    <path d="M 825.96875 98.875000 C 807.22134 104.75487 789.84111 114.15833 771.56661 121.39268 C 742.00272 134.16803 712.43887 146.94339 682.87500 159.71875 C 676.61411 157.39887 668.61267 157.71688 663.59687 153.34934 C 654.74251 143.20669 639.14032 145.72886 628.50000 138.75000 C 624.34974 133.46613 625.71924 125.22441 619.79955 120.77875 C 610.17342 111.36734 595.03822 113.04730 582.83674 114.81261 C 571.45967 117.12855 560.27924 121.62171 550.63106 127.88477 C 541.57105 136.60955 546.25094 155.08841 559.34042 156.72946 C 577.80795 162.18495 597.20877 162.72222 615.86078 167.56093 C 626.74106 169.39971 637.76594 172.74274 648.61625 173.40750 C 651.70707 172.04810 658.55552 167.83000 653.91089 174.33708 C 646.62316 178.89904 653.73498 187.85629 649.00000 193.46875 C 641.48846 196.11486 632.01428 190.85291 625.25000 196.93750 C 587.54902 216.57892 549.47390 235.65800 512.24128 256.10295 C 502.16849 262.21289 492.29538 275.36840 498.71165 287.24734 C 507.43400 300.33530 525.09234 300.87865 539.28074 301.35917 C 558.26257 301.56867 575.55808 291.62398 590.53125 280.87500 C 601.30224 272.45938 608.96050 260.72753 613.13364 247.81527 C 621.47038 229.59284 640.78703 220.47321 658.53125 213.93750 C 663.39590 211.30749 656.23810 206.22973 658.59375 204.34375 C 667.98629 199.66002 676.82716 192.71398 686.86190 190.00506 C 746.22986 199.65911 805.68910 209.59129 865.06250 218.68750 C 871.51937 216.85701 865.86716 209.57843 862.21875 207.78125 C 845.92402 198.44310 826.64012 197.18436 808.96224 191.60572 C 779.74564 184.21632 750.52908 176.82691 721.31250 169.43750 C 759.62346 148.15300 797.88373 126.77763 836.09375 105.31250 C 838.49678 99.582813 829.63892 98.908603 825.96875 98.875000 z M 599.00000 125.09375 C 604.21895 125.74799 614.28041 125.08793 612.85868 133.03012 C 613.25077 141.29650 604.78318 146.69807 597.15666 145.00516 C 586.42793 144.59680 574.97658 144.44830 565.12500 140.21875 C 564.25169 133.70751 573.79835 132.43127 578.06250 129.62500 C 584.70930 126.73612 591.69825 124.82456 599.00000 125.09375 z M 583.96875 243.53125 C 590.60076 246.73725 588.96190 255.71620 583.34671 259.07267 C 569.88630 273.32704 552.53655 285.82681 532.29069 286.84476 C 526.26343 287.57425 515.41647 286.68474 515.62500 278.71875 C 520.23838 269.48036 531.33053 265.96227 539.28125 260.12500 C 552.63544 252.74251 566.46636 244.88010 581.81250 242.90625 C 582.53125 243.11458 583.25000 243.32292 583.96875 243.53125 z " id="path1176" style="fill:url(#linearGradient1149);fill-rule:evenodd;stroke:none;stroke-opacity:1;stroke-width:1pt;stroke-linejoin:miter;stroke-linecap:butt;fill-opacity:1;"/>
    <path d="M 825.18750 96.718750 C 777.00518 115.20861 730.28568 137.27629 682.71875 157.28125 C 674.75738 155.39338 666.00698 153.90590 660.26495 147.58355 C 651.05619 141.09215 637.38511 143.48408 629.47435 135.32073 C 626.49088 127.20745 623.64395 117.41054 614.33751 114.56832 C 600.24160 108.37601 583.93394 111.62025 569.86282 116.22353 C 559.57192 120.25399 545.14458 124.45999 543.78125 137.43750 C 542.52662 148.20290 550.63765 159.11213 561.76762 159.60883 C 587.07736 165.17161 612.79901 168.59726 638.06250 174.40625 C 640.59322 176.63257 651.64995 173.12272 648.87500 176.96875 C 646.30069 181.48334 651.09686 188.69658 646.06250 191.87500 C 637.31732 191.47440 627.71675 190.80965 620.50531 196.76356 C 582.69121 216.32721 544.81235 235.80390 507.67485 256.56642 C 497.12784 263.66993 489.25573 280.21171 499.02950 290.98528 C 510.77675 304.13916 530.27174 303.90453 546.47724 303.06864 C 566.62624 300.60529 584.60775 289.08793 599.41755 275.75543 C 609.41140 265.90597 612.77556 251.85378 620.40156 240.52265 C 630.52390 226.99546 647.08598 221.62231 661.62500 214.62500 C 664.39277 210.79070 657.61037 204.74715 664.68645 203.59286 C 674.52119 198.19463 684.97037 189.65124 696.89557 193.94464 C 753.22820 203.10474 809.74784 212.54326 866.09375 220.71875 C 873.80664 217.90981 868.69224 208.04805 863.25000 205.71875 C 841.84579 195.10732 817.68918 192.51467 794.99343 185.66653 C 772.49560 179.98602 749.99781 174.30551 727.50000 168.62500 C 764.37420 148.01942 801.25479 127.42514 838.12500 106.81250 C 841.20106 98.677452 832.66320 96.405092 825.18750 96.718750 z M 598.87500 127.40625 C 603.53325 127.61639 612.72696 127.86105 610.26759 134.92296 C 608.69564 144.19684 597.34053 143.29219 590.32183 142.22691 C 582.75770 141.74464 575.02163 141.48484 567.87500 138.68750 C 572.75590 132.67650 581.50925 131.21608 588.57906 128.60094 C 591.88417 127.57868 595.44422 127.54552 598.87500 127.40625 z M 584.68750 246.90625 C 588.95765 254.64963 578.42906 259.31035 574.46875 264.46875 C 560.22881 277.46587 540.35447 288.02410 520.71585 283.20865 C 514.80939 279.33484 521.70869 274.13804 525.43977 272.04478 C 541.40074 260.63844 559.11088 250.83398 578.18750 245.81250 C 580.41114 246.05562 583.05203 244.86698 584.68750 246.90625 z " id="path1183" style="fill:url(#linearGradient1149);fill-rule:evenodd;stroke:none;stroke-opacity:1;stroke-width:1pt;stroke-linejoin:miter;stroke-linecap:butt;fill-opacity:1;"/>
  </g>
  <path d="M 70.985787,64.255926 L 67.064740,68.322197 C 67.064740,68.322197 70.114447,67.596077 71.131017,69.919661 C 72.147577,72.243244 69.678767,75.002503 72.147577,75.438168 L 154.19306,88.806071 C 156.84131,89.242201 153.69399,85.164811 147.94844,83.723235 L 70.985787,64.255926 z " id="path1118" sodipodi:nodetypes="ccccccc" style="fill:url(#linearGradient1134);fill-rule:evenodd;stroke:none;stroke-opacity:1;stroke-width:1pt;stroke-linejoin:miter;stroke-linecap:butt;fill-opacity:1;"/>
  <path d="M 69.907907,69.384737 C 69.907907,69.384737 68.264880,69.384737 67.854123,70.308937 C 67.443367,71.233136 62.616993,69.795492 62.616993,69.795492 C 62.616993,69.795492 41.463090,65.379872 39.820064,65.482560 C 38.177045,65.585249 29.345803,64.044917 27.908159,61.683073 C 26.470514,59.321230 26.470514,55.110987 28.832363,53.365276 C 31.194204,51.619566 39.717380,48.230833 45.159885,48.128144 C 50.602397,48.025455 54.093817,48.846966 56.044902,51.824942 C 57.995994,54.802919 56.661040,58.499719 61.076665,59.423918 C 65.492282,60.348117 69.907907,61.683073 70.832107,62.299206 C 71.756297,62.915339 74.118137,64.250294 72.988557,64.969116 C 71.858987,65.687938 69.907907,69.384737 69.907907,69.384737 z M 45.673332,60.964251 C 47.521733,61.375006 52.861555,60.758873 53.477686,57.472830 C 54.093817,54.186787 54.607265,52.954521 52.861555,52.030321 C 51.115837,51.106121 45.673332,50.489988 42.592669,51.414187 C 39.511998,52.441076 32.631849,54.905609 32.631849,57.062074 C 32.631849,59.218541 32.426467,60.040051 45.673332,60.964251 z " id="path1144" style="fill:url(#linearGradient1145);fill-opacity:1;fill-rule:evenodd;stroke:none;stroke-width:1.0000000pt;"/>
  <path d="M 65.031600,80.811457 C 65.031600,80.811457 68.807427,81.392355 69.243097,78.487878 C 69.678767,75.583394 67.355186,73.695481 71.711907,71.226677 C 76.068617,68.757869 136.62701,43.174246 137.78880,42.472330 C 139.09582,41.770414 143.44862,42.763807 142.14552,43.488898 L 68.807427,84.296831 L 65.031600,80.811457 z " id="path1117" sodipodi:nodetypes="ccczzcc" style="fill:url(#linearGradient1133);fill-rule:evenodd;stroke:none;stroke-opacity:1.0000000;stroke-width:1pt;stroke-linejoin:miter;stroke-linecap:butt;fill-opacity:1;"/>
  <g id="g1188" style="fill:#000000;fill-opacity:0.074380167;" transform="translate(-28.50197,-37.40884)">
    <path d="M 108.50683,107.40347 C 111.71586,107.09541 112.15228,110.38145 108.50682,110.74086 C 104.91271,111.10027 105.24646,107.71154 108.50683,107.40347 z " id="path1166" sodipodi:nodetypes="czz" style="fill:#000000;fill-rule:evenodd;stroke:none;stroke-opacity:1;stroke-width:1pt;stroke-linejoin:miter;stroke-linecap:butt;fill-opacity:0.074380167;"/>
    <path d="M 106.81250 108.31250 C 106.20327 109.00751 106.45395 110.13820 107.42599 110.22725 C 108.51846 110.56924 109.65029 110.09682 110.50000 109.40625 C 110.73113 108.44825 109.84702 107.78660 108.95605 107.84825 C 108.18465 107.67342 107.52122 108.08066 106.81250 108.31250 z " id="path1171" style="fill:#000000;fill-rule:evenodd;stroke:none;stroke-opacity:1;stroke-width:1pt;stroke-linejoin:miter;stroke-linecap:butt;fill-opacity:0.074380167;"/>
    <path d="M 106.71875 108.21875 C 106.08045 108.85305 105.95612 109.99299 106.90834 110.30109 C 107.83048 110.50568 108.75474 110.73485 109.61251 110.19729 C 110.41283 110.13353 111.25685 109.01562 110.58684 108.36463 C 110.17141 107.60103 108.95791 107.62138 108.19917 107.66359 C 107.70569 107.84864 107.21222 108.03370 106.71875 108.21875 z " id="path1174" style="fill:#000000;fill-rule:evenodd;stroke:none;stroke-opacity:1;stroke-width:1pt;stroke-linejoin:miter;stroke-linecap:butt;fill-opacity:0.074380167;"/>
    <path d="M 107.53022,107.31113 C 106.72312,107.53704 105.84889,108.02552 105.61492,109.31854 C 105.64388,110.02400 106.10246,110.75631 106.87069,110.90862 C 108.03950,111.44989 109.31901,110.74825 110.44626,110.36045 C 111.06628,110.13765 111.52106,109.27419 111.35564,108.61390 C 111.46704,107.72473 110.26075,107.39048 109.73395,107.15871 C 109.20715,106.92693 108.33732,107.08522 107.53022,107.31113 z " id="path1180" sodipodi:nodetypes="ccccczz" style="fill:#000000;fill-rule:evenodd;stroke:none;stroke-opacity:1;stroke-width:1pt;stroke-linejoin:miter;stroke-linecap:butt;fill-opacity:0.074380167;"/>
  </g>
  <path d="M 71.131017,80.230566 C 70.309497,74.685362 70.049707,73.207471 82.505497,68.074803 C 94.550537,62.942131 138.07925,44.650690 138.07925,44.650690 L 69.533547,82.699370 L 71.131017,80.230566 z " id="path1124" sodipodi:nodetypes="czccc" style="fill:url(#linearGradient1128);fill-rule:evenodd;stroke:none;stroke-opacity:1;stroke-width:1pt;stroke-linejoin:miter;stroke-linecap:butt;fill-opacity:1;"/>
  <path d="M 14.250542,104.60702 C 11.314373,106.12753 4.1870352,112.00062 8.0892110,117.54581 C 11.991388,123.09101 27.394718,122.88563 31.296895,120.83186 C 35.199072,118.77807 47.727108,114.67052 51.423910,102.96399 C 55.120705,91.257467 70.729417,87.149908 70.729417,87.149908 C 70.729417,87.149908 72.269747,86.020329 69.394457,83.966553 C 66.519170,81.912778 64.807690,80.543587 64.157328,80.577817 C 63.506959,80.612055 61.411789,80.184230 60.255152,80.783199 L 14.250542,104.60702 z M 13.018276,115.69742 C 11.888699,112.71944 13.839786,111.17910 20.617253,106.86618 C 27.394718,102.75863 37.252848,97.829549 40.949642,98.651065 C 44.646445,99.472575 44.851819,103.27207 42.798044,105.73659 C 40.744268,108.20112 32.939914,115.28665 26.778580,117.03237 C 20.514562,118.77808 14.147853,118.67539 13.018276,115.69742 z " id="path1141" style="fill:url(#linearGradient1135);fill-opacity:1;fill-rule:evenodd;stroke:none;stroke-width:1.0000000pt;"/>
  <path d="M 15.534153,118.82942 C 16.766419,119.08615 23.472785,119.56738 27.472487,118.14949 C 31.472196,116.65899 39.299321,111.49234 40.846959,109.53608 C 42.321972,107.43461 42.419505,109.32857 41.257708,110.56297 C 40.168528,111.79737 32.879759,117.82167 27.782689,119.29668 C 22.758236,120.69909 16.509697,121.03724 15.585497,120.31841 C 14.661297,119.59959 14.199198,118.62405 15.534153,118.82942 z " id="path1114" sodipodi:nodetypes="czzzzzz" style="fill:url(#linearGradient1151);fill-rule:evenodd;stroke:none;stroke-opacity:1;stroke-width:1pt;stroke-linejoin:miter;stroke-linecap:butt;fill-opacity:1;"/>
  <path d="M 38.019945,96.350423 C 38.019945,96.350423 40.779203,95.624298 41.360094,96.640868 C 41.940992,97.657438 46.152484,94.680345 43.974125,93.663776 C 41.795766,92.647213 35.333298,95.696915 35.333298,95.696915 C 35.333298,95.696915 15.365005,104.84603 13.549706,106.08043 C 11.807018,107.31484 9.2655990,109.05753 9.1929860,112.25245 C 9.1203750,115.37477 10.282166,111.74417 10.282166,111.74417 C 10.282166,111.74417 11.807018,108.04095 15.001945,106.66133 C 18.269485,104.99126 34.316735,96.858704 36.059422,96.713478 C 37.802110,96.568259 38.019945,96.350423 38.019945,96.350423 z " id="path1115" sodipodi:nodetypes="czzzzzzzzz" style="fill:url(#linearGradient1150);fill-rule:evenodd;stroke:none;stroke-opacity:1;stroke-width:1pt;stroke-linejoin:miter;stroke-linecap:butt;fill-opacity:1;"/>
  <path d="M 45.789429,103.53901 C 44.954387,104.51927 43.320617,105.78998 44.337187,107.38745 C 45.353757,108.98491 47.023828,108.98491 47.749953,108.40401 C 48.621296,107.75051 50.581812,98.383555 56.245554,93.663776 C 61.981897,88.871386 63.651975,89.125530 65.757725,87.709597 C 67.863467,86.293663 68.226530,83.425488 66.629069,84.078995 C 65.031600,84.732503 54.067194,91.267581 52.469733,93.518557 C 50.872265,95.769524 46.551855,102.63136 45.789429,103.53901 z " id="path1116" sodipodi:nodetypes="cczzzccz" style="fill:#ffffff;fill-rule:evenodd;stroke:none;stroke-opacity:1;stroke-width:1pt;stroke-linejoin:miter;stroke-linecap:butt;fill-opacity:0.083333336;"/>
  <path d="M 43.054767,48.486594 C 38.433768,48.743316 30.783448,52.595109 30.167316,53.570653 C 29.499836,54.546198 29.653869,55.162331 31.348237,53.673342 C 32.991256,52.184354 40.962360,49.860658 42.810761,49.757970 C 44.710504,49.655280 47.624417,48.229871 43.054767,48.486594 z " id="path1121" sodipodi:nodetypes="czzzz" style="fill:url(#linearGradient1146);fill-opacity:1;fill-rule:evenodd;stroke:#000000;stroke-width:0.40352130pt;"/>
  <path d="M 29.524344,60.770551 L 64.523319,67.378241 C 64.930428,67.455102 65.249436,67.596077 65.757725,67.233017 C 66.266006,66.869957 67.511566,64.293425 67.573022,65.199882 L 67.863467,69.483988 C 67.898737,70.004165 66.923612,70.161294 66.411233,70.064884 L 32.065759,63.602418 C 30.819291,63.367881 28.278015,60.535248 29.524344,60.770551 z " id="path1122" sodipodi:nodetypes="czzzzzzz" style="fill:url(#linearGradient1147);fill-rule:evenodd;stroke:none;stroke-opacity:1;stroke-width:1pt;stroke-linejoin:miter;stroke-linecap:butt;fill-opacity:1;"/>
  <path d="M 80.074097,69.744148 C 83.283127,69.436082 83.719547,72.722124 80.074087,73.081536 C 76.479977,73.440944 76.813727,70.052214 80.074097,69.744148 z " id="path1123" sodipodi:nodetypes="czz" style="fill:url(#radialGradient1157);fill-rule:evenodd;stroke:none;stroke-opacity:1;stroke-width:1pt;stroke-linejoin:miter;stroke-linecap:butt;fill-opacity:1;"/><text id="text1232" style="fill:black;fill-opacity:1;stroke:none;font-family:helvetica;font-style:normal;font-weight:normal;font-size:12px;stroke-opacity:1;stroke-width:1pt;stroke-linejoin:miter;stroke-linecap:butt;" x="-17.222168" xml:space="preserve" y="-11.874531"><tspan id="tspan1233">Scissors</tspan></text><text id="text1235" style="fill:black;fill-opacity:1;stroke:none;font-family:helvetica;font-style:normal;font-weight:normal;font-size:12px;stroke-opacity:1;stroke-width:1pt;stroke-linejoin:miter;stroke-linecap:butt;" transform="scale(0.246729,0.246729)" x="-10.151710" xml:space="preserve" y="-23.658155"><tspan id="tspan1236">Created by Andrew Fitzsimon</tspan></text>
</svg>
