<?xml version="1.0" encoding="UTF-8" standalone="no"?>
<!DOCTYPE svg PUBLIC "-//W3C//DTD SVG 20010904//EN"
"http://www.w3.org/TR/2001/REC-SVG-20010904/DTD/svg10.dtd">
<!-- Created with Sodipodi ("http://www.sodipodi.com/") -->
<svg
   width="21cm"
   height="14cm"
   xmlns="http://www.w3.org/2000/svg"
   xmlns:sodipodi="http://sodipodi.sourceforge.net/DTD/sodipodi-0.dtd"
   xmlns:xlink="http://www.w3.org/1999/xlink"
   id="svg548"
   sodipodi:version="0.33pre"
   sodipodi:docname="/home/pedro/svg/spanish_flag_project/murcia/spain_murcia.svg"
   sodipodi:docbase="/home/pedro/svg/spanish_flag_project/murcia">
  <sodipodi:namedview
     id="base" />
  <defs
     id="defs549">
    <linearGradient
       id="linearGradient1600">
      <stop
         style="stop-color:#000;stop-opacity:1;"
         offset="0"
         id="stop1601" />
      <stop
         style="stop-color:#fff;stop-opacity:1;"
         offset="1"
         id="stop1602" />
    </linearGradient>
    <marker
       id="ArrowEnd"
       viewBox="0 0 10 10"
       refX="0"
       refY="5"
       markerUnits="strokeWidth"
       markerWidth="4"
       markerHeight="3"
       orient="auto">
      <path
         d="M 0 0 L 10 5 L 0 10 z"
         id="path551" />
    </marker>
    <marker
       id="ArrowStart"
       viewBox="0 0 10 10"
       refX="10"
       refY="5"
       markerUnits="strokeWidth"
       markerWidth="4"
       markerHeight="3"
       orient="auto">
      <path
         d="M 10 0 L 0 5 L 10 10 z"
         id="path553" />
    </marker>
    <linearGradient
       xlink:href="#linearGradient1600"
       id="linearGradient1603" />
    <linearGradient
       xlink:href="#linearGradient1600"
       id="linearGradient1604" />
    <linearGradient
       xlink:href="#linearGradient1600"
       id="linearGradient1605" />
    <linearGradient
       xlink:href="#linearGradient1600"
       id="linearGradient1606" />
    <linearGradient
       xlink:href="#linearGradient1600"
       id="linearGradient1607" />
    <linearGradient
       xlink:href="#linearGradient1600"
       id="linearGradient1608" />
    <linearGradient
       xlink:href="#linearGradient1600"
       id="linearGradient1609" />
    <linearGradient
       xlink:href="#linearGradient1600"
       id="linearGradient1610" />
    <linearGradient
       xlink:href="#linearGradient1600"
       id="linearGradient1611" />
    <linearGradient
       xlink:href="#linearGradient1600"
       id="linearGradient1612" />
    <linearGradient
       xlink:href="#linearGradient1600"
       id="linearGradient1613" />
    <linearGradient
       xlink:href="#linearGradient1600"
       id="linearGradient1614" />
    <linearGradient
       xlink:href="#linearGradient1600"
       id="linearGradient1615" />
    <linearGradient
       xlink:href="#linearGradient1600"
       id="linearGradient1616" />
  </defs>
  <rect
     style="font-size:12;fill:#99011a;fill-rule:evenodd;stroke-width:1pt;fill-opacity:1;"
     id="rect999"
     width="744.094499"
     height="496.063019"
     x="0.000000"
     y="0.000365" />
  <path
     style="font-size:12;fill:#ffcc00;stroke:#000000;stroke-width:0.692822;stroke-linejoin:round;"
     d="M 226.9 579.1L 226.9 578.7L 226.8 578.2L 226.8 577.8L 226.7 577.3L 226.4 576.4L 226.1 575.4L 225.7 574.4L 225.3 573.5L 224.8 572.6L 224.3 571.7L 223.4 570.2L 222.6 569L 222 568.2L 221.8 567.9L 222 568L 222.8 568.2L 223.9 568.6L 225.3 569L 226.1 569.3L 226.8 569.7L 227.5 570L 228.2 570.4L 228.9 570.8L 229.5 571.3L 230.1 571.7L 230.6 572.3L 231 572.7L 231.2 573.2L 231.2 573.6L 231.2 574L 231.2 574.3L 231 574.6L 230.8 574.9L 230.5 575.1L 230.3 575.3L 230 575.5L 229.7 575.7L 229.5 575.8L 229 575.9L 228.8 576L 228.8 576.1L 228.9 576.5L 229 577L 229.3 577.5L 229.4 577.8L 229.6 578.2L 229.9 578.4L 230.2 578.6L 230.5 578.8L 231 579L 231.4 579.1L 232 579.1L 232.6 579.1L 233.2 579L 233.7 578.8L 234.2 578.6L 234.6 578.3L 235 578.1L 235.3 577.8L 235.6 577.5L 236.1 576.8L 236.5 576.3L 236.7 575.9L 236.7 575.8L 236.8 575.9L 237 576.3L 237.3 576.9L 237.9 577.5L 238.2 577.9L 238.5 578.2L 238.9 578.5L 239.4 578.8L 239.9 579L 240.4 579.1L 241 579.3L 241.6 579.3L 242.3 579.3L 242.8 579.3L 243.3 579.2L 243.7 579.1L 244 579L 244.3 578.9L 244.6 578.8L 244.7 578.6L 244.9 578.4L 245 578.3L 245.1 578.1L 245.1 577.9L 245.2 577.5L 245.2 577.2L 245.2 576.7L 245.1 576.3L 245 576.1L 245 575.9L 244.8 575.8L 244.7 575.7L 244.5 575.6L 244.3 575.5L 244 575.4L 243.7 575.4L 243.3 575.5L 242.9 575.5L 242.4 575.6L 241.9 575.8L 241.9 575.7L 242.1 575.3L 242.2 574.7L 242.6 574.1L 242.8 573.8L 243 573.5L 243.2 573.3L 243.5 573.1L 243.8 572.9L 244.1 572.7L 244.5 572.6L 244.8 572.6L 244.8 572.5L 245 572.1L 245.3 571.6L 245.6 571L 246 570.5L 246.4 570L 246.7 569.8L 246.9 569.6L 247.2 569.5L 247.3 569.5L 247.6 569.5L 247.9 569.6L 248.1 569.8L 248.4 570L 248.9 570.5L 249.3 571L 249.6 571.6L 249.9 572.1L 250.1 572.5L 250.1 572.6L 250.5 572.6L 250.8 572.7L 251.1 572.9L 251.4 573.1L 251.7 573.3L 251.9 573.5L 252.2 573.8L 252.3 574.1L 252.7 574.7L 252.9 575.3L 253.1 575.7L 253.1 575.8L 252.5 575.6L 252 575.5L 251.6 575.5L 251.2 575.4L 250.9 575.4L 250.6 575.5L 250.4 575.6L 250.2 575.7L 250.1 575.8L 249.9 575.9L 249.8 576.1L 249.8 576.3L 249.7 576.7L 249.7 577.2L 249.7 577.5L 249.8 577.9L 249.8 578.1L 249.9 578.3L 250 578.4L 250.2 578.6L 250.4 578.8L 250.6 578.9L 250.9 579L 251.2 579.1L 251.6 579.2L 252.1 579.3L 252.6 579.3L 253.3 579.3L 253.9 579.3L 254.5 579.1L 255 579L 255.6 578.8L 256 578.5L 256.4 578.2L 256.7 577.9L 257.1 577.5L 257.6 576.9L 257.9 576.3L 258.2 575.9L 258.2 575.8L 258.2 575.9L 258.5 576.3L 258.8 576.8L 259.3 577.5L 259.6 577.8L 259.9 578.1L 260.3 578.3L 260.7 578.6L 261.2 578.8L 261.7 579L 262.3 579.1L 262.9 579.1L 263.5 579.1L 264 579L 264.4 578.8L 264.8 578.6L 265 578.4L 265.3 578.2L 265.5 577.8L 265.7 577.5L 265.9 577L 266 576.5L 266.1 576.1L 266.1 576L 265.9 575.9L 265.5 575.8L 265.2 575.7L 264.9 575.5L 264.7 575.3L 264.4 575.1L 264.1 574.9L 263.9 574.6L 263.7 574.3L 263.7 574L 263.7 573.6L 263.8 573.2L 264 572.7L 264.3 572.3L 264.8 571.7L 265.4 571.3L 266 570.8L 266.7 570.4L 267.4 570L 268.2 569.7L 268.9 569.3L 269.6 569L 271 568.6L 272.1 568.2L 272.9 568L 273.2 567.9L 272.9 568.2L 272.4 569L 271.6 570.2L 270.6 571.7L 270.1 572.6L 269.7 573.5L 269.2 574.4L 268.8 575.4L 268.5 576.4L 268.3 577.3L 268.2 577.8L 268.1 578.2L 268.1 578.7L 268.1 579.1L 268.1 590L 226.9 590L 226.9 579.1"
     id="path623"
     transform="matrix(1.082529,0.000000,0.000000,1.082528,358.9059,-260.5078)" />
  <path
     style="font-size:12;fill:#ffcc00;stroke:#000000;stroke-width:0.692822;stroke-linejoin:round;"
     d="M 226.9 608.3L 226.9 607.8L 226.8 607.3L 226.8 606.9L 226.7 606.4L 226.4 605.4L 226.1 604.4L 225.7 603.5L 225.3 602.5L 224.8 601.6L 224.3 600.7L 223.4 599.2L 222.6 597.9L 222 597.1L 221.8 596.8L 222 596.9L 222.8 597.2L 223.9 597.6L 225.3 598.1L 226.1 598.4L 226.8 598.7L 227.5 599.1L 228.2 599.5L 228.9 599.9L 229.5 600.4L 230.1 600.9L 230.6 601.4L 231 601.9L 231.2 602.3L 231.2 602.7L 231.2 603.1L 231.2 603.5L 231 603.8L 230.8 604L 230.5 604.3L 230.3 604.5L 230 604.7L 229.7 604.8L 229.5 604.9L 229 605.1L 228.8 605.1L 228.8 605.3L 228.9 605.6L 229 606.1L 229.3 606.7L 229.4 607L 229.6 607.3L 229.9 607.6L 230.2 607.8L 230.5 608L 231 608.1L 231.4 608.2L 232 608.3L 232.6 608.2L 233.2 608.1L 233.7 607.9L 234.2 607.7L 234.6 607.5L 235 607.1L 235.3 606.8L 235.6 606.5L 236.1 605.9L 236.5 605.3L 236.7 604.9L 236.7 604.7L 236.8 604.9L 237 605.3L 237.3 605.9L 237.9 606.5L 238.2 606.8L 238.5 607.1L 238.9 607.5L 239.4 607.7L 239.9 607.9L 240.4 608.1L 241 608.2L 241.6 608.3L 242.3 608.3L 242.8 608.2L 243.3 608.2L 243.7 608.1L 244 608L 244.3 607.8L 244.6 607.7L 244.7 607.6L 244.9 607.4L 245 607.2L 245.1 607L 245.1 606.9L 245.2 606.5L 245.2 606.1L 245.2 605.7L 245.1 605.3L 245 605.2L 245 605L 244.8 604.9L 244.7 604.7L 244.5 604.6L 244.3 604.5L 244 604.5L 243.7 604.4L 243.3 604.5L 242.9 604.5L 242.4 604.6L 241.9 604.7L 241.9 604.6L 242.1 604.3L 242.2 603.7L 242.6 603.2L 242.8 602.9L 243 602.6L 243.2 602.4L 243.5 602.1L 243.8 602L 244.1 601.9L 244.5 601.8L 244.8 601.8L 244.8 601.6L 245 601.2L 245.3 600.7L 245.6 600.1L 246 599.5L 246.4 598.9L 246.7 598.7L 246.9 598.5L 247.2 598.5L 247.3 598.4L 247.6 598.5L 247.9 598.5L 248.1 598.7L 248.4 598.9L 248.9 599.5L 249.3 600.1L 249.6 600.7L 249.9 601.2L 250.1 601.6L 250.1 601.8L 250.5 601.8L 250.8 601.9L 251.1 602L 251.4 602.1L 251.7 602.4L 251.9 602.6L 252.2 602.9L 252.3 603.2L 252.7 603.7L 252.9 604.3L 253.1 604.6L 253.1 604.7L 252.5 604.6L 252 604.5L 251.6 604.5L 251.2 604.4L 250.9 604.5L 250.6 604.5L 250.4 604.6L 250.2 604.7L 250.1 604.9L 249.9 605L 249.8 605.2L 249.8 605.3L 249.7 605.7L 249.7 606.1L 249.7 606.5L 249.8 606.9L 249.8 607L 249.9 607.2L 250 607.4L 250.2 607.6L 250.4 607.7L 250.6 607.8L 250.9 608L 251.2 608.1L 251.6 608.2L 252.1 608.2L 252.6 608.3L 253.3 608.3L 253.9 608.2L 254.5 608.1L 255 607.9L 255.6 607.7L 256 607.5L 256.4 607.1L 256.7 606.8L 257.1 606.5L 257.6 605.9L 257.9 605.3L 258.2 604.9L 258.2 604.7L 258.2 604.9L 258.5 605.3L 258.8 605.9L 259.3 606.5L 259.6 606.8L 259.9 607.1L 260.3 607.5L 260.7 607.7L 261.2 607.9L 261.7 608.1L 262.3 608.2L 262.9 608.3L 263.5 608.2L 264 608.1L 264.4 608L 264.8 607.8L 265 607.6L 265.3 607.3L 265.5 607L 265.7 606.7L 265.9 606.1L 266 605.6L 266.1 605.3L 266.1 605.1L 265.9 605.1L 265.5 604.9L 265.2 604.8L 264.9 604.7L 264.7 604.5L 264.4 604.3L 264.1 604L 263.9 603.8L 263.7 603.5L 263.7 603.1L 263.7 602.7L 263.8 602.3L 264 601.9L 264.3 601.4L 264.8 600.9L 265.4 600.4L 266 599.9L 266.7 599.5L 267.4 599.1L 268.2 598.7L 268.9 598.4L 269.6 598.1L 271 597.6L 272.1 597.2L 272.9 596.9L 273.2 596.8L 272.9 597.1L 272.4 597.9L 271.6 599.2L 270.6 600.7L 270.1 601.6L 269.7 602.5L 269.2 603.5L 268.8 604.4L 268.5 605.4L 268.3 606.4L 268.2 606.9L 268.1 607.3L 268.1 607.8L 268.1 608.3L 268.1 618.9L 226.9 618.9L 226.9 608.3"
     id="path625"
     transform="matrix(1.082529,0.000000,0.000000,1.082528,358.9059,-260.5078)" />
  <path
     style="font-size:12;fill:#ffcc00;stroke:#000000;stroke-width:0.692822;stroke-linejoin:round;"
     d="M 258 637.2L 258 636.8L 258 636.3L 257.9 635.8L 257.8 635.4L 257.5 634.4L 257.2 633.5L 256.8 632.5L 256.4 631.6L 255.9 630.7L 255.5 629.8L 254.5 628.3L 253.7 627.1L 253.1 626.3L 252.9 626L 253.1 626.1L 254 626.3L 255 626.7L 256.4 627.2L 257.2 627.5L 257.9 627.8L 258.6 628.2L 259.3 628.6L 260 629L 260.7 629.4L 261.3 629.8L 261.7 630.3L 262.1 630.8L 262.3 631.3L 262.4 631.7L 262.4 632.1L 262.3 632.5L 262.1 632.8L 261.9 633.1L 261.6 633.3L 261.4 633.6L 261.1 633.8L 260.8 633.9L 260.6 634L 260.1 634.2L 260 634.3L 260 634.4L 260 634.7L 260.1 635.2L 260.4 635.7L 260.5 636L 260.7 636.3L 261 636.5L 261.3 636.8L 261.6 637L 262.1 637.1L 262.5 637.2L 263.1 637.2L 263.7 637.2L 264.3 637.1L 264.8 636.9L 265.3 636.7L 265.7 636.4L 266.1 636.2L 266.4 635.9L 266.7 635.6L 267.2 634.9L 267.6 634.4L 267.8 634L 267.8 633.9L 267.9 634L 268.1 634.4L 268.4 635L 269 635.6L 269.3 636L 269.7 636.3L 270 636.6L 270.5 636.9L 271 637.1L 271.6 637.2L 272.1 637.4L 272.8 637.4L 273.4 637.4L 273.9 637.3L 274.4 637.3L 274.8 637.2L 275.1 637.1L 275.4 637L 275.7 636.8L 275.9 636.7L 276 636.5L 276.1 636.4L 276.2 636.2L 276.2 636L 276.3 635.6L 276.3 635.2L 276.3 634.8L 276.2 634.5L 276.2 634.3L 276.1 634.1L 275.9 633.9L 275.8 633.8L 275.6 633.7L 275.4 633.6L 275.1 633.6L 274.8 633.5L 274.4 633.6L 274 633.6L 273.5 633.7L 273 633.9L 273 633.7L 273.2 633.3L 273.4 632.8L 273.7 632.2L 273.9 631.9L 274.1 631.6L 274.3 631.4L 274.6 631.1L 274.9 630.9L 275.2 630.8L 275.6 630.7L 275.9 630.7L 276 630.6L 276.1 630.2L 276.4 629.7L 276.7 629.1L 277.1 628.6L 277.6 628L 277.8 627.9L 278 627.7L 278.3 627.6L 278.5 627.6L 278.7 627.6L 279 627.7L 279.3 627.9L 279.5 628L 280 628.6L 280.4 629.1L 280.7 629.7L 281 630.2L 281.2 630.6L 281.2 630.7L 281.6 630.7L 281.9 630.8L 282.2 630.9L 282.5 631.1L 282.8 631.4L 283 631.6L 283.3 631.9L 283.5 632.2L 283.8 632.8L 284 633.3L 284.2 633.7L 284.2 633.9L 283.6 633.7L 283.1 633.6L 282.7 633.6L 282.3 633.5L 282 633.6L 281.8 633.6L 281.5 633.7L 281.3 633.8L 281.2 633.9L 281.1 634.1L 281 634.3L 280.9 634.5L 280.9 634.8L 280.9 635.2L 280.9 635.6L 280.9 636L 281 636.2L 281 636.4L 281.1 636.5L 281.3 636.7L 281.5 636.8L 281.7 637L 282 637.1L 282.3 637.2L 282.7 637.3L 283.2 637.3L 283.8 637.4L 284.4 637.4L 285 637.4L 285.6 637.2L 286.1 637.1L 286.7 636.9L 287.1 636.6L 287.5 636.3L 287.8 636L 288.2 635.6L 288.7 635L 289 634.4L 289.3 634L 289.3 633.9L 289.4 634L 289.6 634.4L 289.9 634.9L 290.4 635.6L 290.7 635.9L 291.1 636.2L 291.4 636.4L 291.9 636.7L 292.3 636.9L 292.8 637.1L 293.4 637.2L 294 637.2L 294.6 637.2L 295.1 637.1L 295.5 637L 295.9 636.8L 296.1 636.5L 296.4 636.3L 296.6 636L 296.8 635.7L 297 635.2L 297.1 634.7L 297.2 634.4L 297.2 634.3L 297 634.2L 296.6 634L 296.3 633.9L 296.1 633.8L 295.8 633.6L 295.5 633.3L 295.2 633.1L 295 632.8L 294.9 632.5L 294.8 632.1L 294.8 631.7L 294.9 631.3L 295 631.1L 295.1 630.8L 295.2 630.6L 295.4 630.3L 295.9 629.8L 296.5 629.4L 297.1 629L 297.8 628.6L 298.5 628.2L 299.3 627.8L 300 627.5L 300.7 627.2L 302.1 626.7L 303.2 626.3L 304 626.1L 304.3 626L 304 626.3L 303.5 627.1L 302.7 628.3L 301.7 629.8L 301.2 630.7L 300.8 631.6L 300.4 632.5L 300 633.5L 299.6 634.4L 299.4 635.4L 299.3 635.8L 299.2 636.3L 299.2 636.8L 299.2 637.2L 299.2 648.1L 258 648.1L 258 637.2"
     id="path627"
     transform="matrix(1.082529,0.000000,0.000000,1.082528,358.9059,-260.5078)" />
  <path
     style="font-size:12;fill:#ffcc00;stroke:#000000;stroke-width:0.692822;stroke-linejoin:round;"
     d="M 226.9 666.4L 226.9 665.9L 226.8 665.4L 226.8 665L 226.7 664.4L 226.4 663.5L 226.1 662.5L 225.7 661.5L 225.3 660.6L 224.8 659.7L 224.3 658.8L 223.4 657.3L 222.6 656L 222 655.2L 221.8 654.9L 222 655L 222.8 655.3L 223.9 655.7L 225.3 656.2L 226.1 656.5L 226.8 656.8L 227.5 657.2L 228.2 657.6L 228.9 658L 229.5 658.5L 230.1 659L 230.6 659.5L 231 660L 231.2 660.4L 231.2 660.8L 231.2 661.2L 231.2 661.6L 231 661.8L 230.8 662.1L 230.5 662.4L 230.3 662.6L 230 662.7L 229.7 662.9L 229.5 663L 229 663.2L 228.8 663.2L 228.8 663.4L 228.9 663.7L 229 664.2L 229.3 664.8L 229.4 665.1L 229.6 665.4L 229.9 665.6L 230.2 665.9L 230.5 666.1L 231 666.2L 231.4 666.3L 232 666.4L 232.6 666.3L 233.2 666.2L 233.7 666L 234.2 665.8L 234.6 665.5L 235 665.2L 235.3 664.9L 235.6 664.6L 236.1 663.9L 236.5 663.4L 236.7 663L 236.7 662.8L 236.8 663L 237 663.4L 237.3 664L 237.9 664.7L 238.2 665L 238.5 665.4L 238.9 665.7L 239.4 665.9L 239.9 666.2L 240.4 666.4L 241 666.5L 241.6 666.6L 242.3 666.6L 242.8 666.5L 243.3 666.4L 243.7 666.4L 244 666.2L 244.3 666.1L 244.6 666L 244.7 665.8L 244.9 665.7L 245 665.5L 245.1 665.3L 245.1 665L 245.2 664.6L 245.2 664.2L 245.2 663.8L 245.1 663.4L 245 663.3L 245 663.1L 244.8 663L 244.7 662.8L 244.5 662.7L 244.3 662.6L 244 662.6L 243.7 662.5L 243.3 662.5L 242.9 662.6L 242.4 662.7L 241.9 662.8L 241.9 662.7L 242.1 662.3L 242.2 661.8L 242.6 661.3L 242.8 661L 243 660.7L 243.2 660.5L 243.5 660.2L 243.8 660L 244.1 659.9L 244.5 659.9L 244.8 659.9L 244.8 659.7L 245 659.3L 245.3 658.8L 245.6 658.2L 246 657.5L 246.4 657L 246.7 656.8L 246.9 656.6L 247.2 656.6L 247.3 656.5L 247.6 656.6L 247.9 656.6L 248.1 656.8L 248.4 657L 248.9 657.5L 249.3 658.2L 249.6 658.8L 249.9 659.3L 250.1 659.7L 250.1 659.9L 250.5 659.9L 250.8 659.9L 251.1 660L 251.4 660.2L 251.7 660.5L 251.9 660.7L 252.2 661L 252.3 661.3L 252.7 661.8L 252.9 662.3L 253.1 662.7L 253.1 662.8L 252.5 662.7L 252 662.6L 251.6 662.5L 251.2 662.5L 250.9 662.6L 250.6 662.6L 250.4 662.7L 250.2 662.8L 250.1 663L 249.9 663.1L 249.8 663.3L 249.8 663.4L 249.7 663.8L 249.7 664.2L 249.7 664.6L 249.8 665L 249.8 665.3L 249.9 665.5L 250 665.7L 250.2 665.8L 250.4 666L 250.6 666.1L 250.9 666.2L 251.2 666.4L 251.6 666.4L 252.1 666.5L 252.6 666.6L 253.3 666.6L 253.9 666.5L 254.5 666.4L 255 666.2L 255.6 665.9L 256 665.7L 256.4 665.4L 256.7 665L 257.1 664.7L 257.6 664L 257.9 663.4L 258.2 663L 258.2 662.8L 258.2 663L 258.5 663.4L 258.8 663.9L 259.3 664.6L 259.6 664.9L 259.9 665.2L 260.3 665.5L 260.7 665.8L 261.2 666L 261.7 666.2L 262.3 666.3L 262.9 666.4L 263.5 666.3L 264 666.2L 264.4 666.1L 264.8 665.9L 265 665.6L 265.3 665.4L 265.5 665.1L 265.7 664.8L 265.9 664.2L 266 663.7L 266.1 663.4L 266.1 663.2L 265.9 663.2L 265.5 663L 265.2 662.9L 264.9 662.7L 264.7 662.6L 264.4 662.4L 264.1 662.1L 263.9 661.8L 263.7 661.6L 263.7 661.2L 263.7 660.8L 263.8 660.4L 264 660L 264.3 659.5L 264.8 659L 265.4 658.5L 266 658L 266.7 657.6L 267.4 657.2L 268.2 656.8L 268.9 656.5L 269.6 656.2L 271 655.7L 272.1 655.3L 272.9 655L 273.2 654.9L 272.9 655.2L 272.4 656L 271.6 657.3L 270.6 658.8L 270.1 659.7L 269.7 660.6L 269.2 661.5L 268.8 662.5L 268.5 663.5L 268.3 664.4L 268.2 665L 268.1 665.4L 268.1 665.9L 268.1 666.4L 268.1 677L 226.9 677L 226.9 666.4"
     id="path629"
     transform="matrix(1.082529,0.000000,0.000000,1.082528,358.9059,-260.5078)" />
  <path
     style="font-size:12;fill:#ffcc00;stroke:#1f1a16;stroke-width:0.692822;"
     d="M 283.8 608.3L 283.8 607.8L 283.7 607.3L 283.6 606.9L 283.5 606.4L 283.3 605.4L 283 604.4L 282.6 603.5L 282.1 602.5L 281.6 601.6L 281.1 600.7L 280.1 599.2L 279.3 597.9L 278.7 597.1L 278.5 596.8L 278.8 596.9L 279.5 597.2L 280.7 597.6L 282 598.1L 282.7 598.4L 283.5 598.7L 284.3 599.1L 285 599.5L 285.6 599.9L 286.3 600.4L 286.9 600.9L 287.3 601.4L 287.7 601.9L 287.9 602.3L 288 602.7L 288 603.1L 287.9 603.5L 287.7 603.8L 287.5 604L 287.3 604.3L 287 604.5L 286.7 604.7L 286.4 604.8L 286.1 604.9L 285.7 605.1L 285.6 605.1L 285.6 605.3L 285.6 605.6L 285.7 606.1L 286 606.7L 286.1 607L 286.4 607.3L 286.7 607.6L 287 607.8L 287.4 608L 287.8 608.1L 288.3 608.2L 288.9 608.3L 289.5 608.2L 290 608.1L 290.5 607.9L 291 607.7L 291.3 607.5L 291.7 607.1L 292 606.8L 292.4 606.5L 292.8 605.9L 293.2 605.3L 293.4 604.9L 293.5 604.7L 293.5 604.9L 293.7 605.3L 294.1 605.9L 294.6 606.5L 294.9 606.8L 295.3 607.1L 295.6 607.5L 296.1 607.7L 296.6 607.9L 297.1 608.1L 297.8 608.2L 298.4 608.3L 299 608.3L 299.5 608.2L 300 608.2L 300.4 608.1L 300.8 608L 301.1 607.8L 301.3 607.7L 301.5 607.6L 301.6 607.4L 301.7 607.2L 301.8 607L 301.9 606.9L 301.9 606.5L 301.9 606.1L 301.9 605.7L 301.9 605.3L 301.8 605.2L 301.7 605L 301.6 604.9L 301.5 604.7L 301.3 604.6L 301.1 604.5L 300.8 604.5L 300.5 604.4L 300.1 604.5L 299.6 604.5L 299.2 604.6L 298.6 604.7L 298.6 604.6L 298.7 604.3L 299 603.7L 299.3 603.2L 299.5 602.9L 299.7 602.6L 300 602.4L 300.2 602.1L 300.5 602L 300.8 601.9L 301.2 601.8L 301.5 601.8L 301.6 601.6L 301.8 601.2L 302 600.7L 302.4 600.1L 302.8 599.5L 303.3 598.9L 303.5 598.7L 303.7 598.5L 304 598.5L 304.3 598.4L 304.6 598.5L 304.8 598.5L 305 598.7L 305.3 598.9L 305.7 599.5L 306.2 600.1L 306.5 600.7L 306.8 601.2L 307 601.6L 307.1 601.8L 307.3 601.8L 307.7 601.9L 308 602L 308.2 602.1L 308.5 602.4L 308.7 602.6L 308.9 602.9L 309.1 603.2L 309.4 603.7L 309.6 604.3L 309.7 604.6L 309.8 604.7L 309.2 604.6L 308.8 604.5L 308.3 604.5L 308 604.4L 307.6 604.5L 307.3 604.5L 307.1 604.6L 306.9 604.7L 306.8 604.9L 306.7 605L 306.6 605.2L 306.5 605.3L 306.4 605.7L 306.4 606.1L 306.4 606.5L 306.5 606.9L 306.5 607L 306.6 607.2L 306.7 607.4L 306.9 607.6L 307.1 607.7L 307.3 607.8L 307.6 608L 308 608.1L 308.3 608.2L 308.8 608.2L 309.4 608.3L 310 608.3L 310.6 608.2L 311.2 608.1L 311.8 607.9L 312.2 607.7L 312.7 607.5L 313.1 607.1L 313.5 606.8L 313.8 606.5L 314.3 605.9L 314.7 605.3L 314.8 604.9L 314.9 604.7L 315 604.9L 315.2 605.3L 315.5 605.9L 316 606.5L 316.3 606.8L 316.7 607.1L 317.1 607.5L 317.5 607.7L 318 607.9L 318.5 608.1L 319 608.2L 319.7 608.3L 320.2 608.2L 320.7 608.1L 321.1 608L 321.5 607.8L 321.8 607.6L 322 607.3L 322.2 607L 322.4 606.7L 322.6 606.1L 322.7 605.6L 322.8 605.3L 322.8 605.1L 322.6 605.1L 322.2 604.9L 321.9 604.8L 321.7 604.7L 321.4 604.5L 321.1 604.3L 320.9 604L 320.6 603.8L 320.5 603.5L 320.5 603.1L 320.5 602.7L 320.6 602.3L 320.8 601.9L 321.2 601.4L 321.6 600.9L 322.2 600.4L 322.8 599.9L 323.5 599.5L 324.2 599.1L 324.9 598.7L 325.7 598.4L 326.4 598.1L 327.7 597.6L 328.8 597.2L 329.6 596.9L 329.9 596.8L 329.7 597.1L 329.1 597.9L 328.2 599.2L 327.3 600.7L 326.8 601.6L 326.4 602.5L 325.9 603.5L 325.6 604.4L 325.2 605.4L 325 606.4L 324.9 606.9L 324.8 607.3L 324.8 607.8L 324.8 608.3L 324.8 618.9L 283.8 618.9L 283.8 608.3"
     id="path632"
     transform="matrix(1.082529,0.000000,0.000000,1.082528,358.9059,-260.5078)" />
  <path
     style="font-size:12;fill:#ffcc00;stroke:#000000;stroke-width:0.692822;stroke-linejoin:round;"
     d="M 170.2 608.3L 170.2 607.8L 170.1 607.3L 170 606.9L 169.9 606.4L 169.7 605.4L 169.4 604.4L 169 603.5L 168.6 602.5L 168.1 601.6L 167.6 600.7L 166.7 599.2L 165.8 597.9L 165.3 597.1L 165.1 596.8L 165.3 596.9L 166.1 597.2L 167.2 597.6L 168.6 598.1L 169.3 598.4L 170 598.7L 170.7 599.1L 171.4 599.5L 172.1 599.9L 172.7 600.4L 173.2 600.9L 173.7 601.4L 174.1 601.9L 174.3 602.3L 174.5 602.7L 174.5 603.1L 174.4 603.5L 174.3 603.8L 174 604L 173.8 604.3L 173.5 604.5L 173.2 604.7L 173 604.8L 172.7 604.9L 172.3 605.1L 172.1 605.1L 172.1 605.3L 172.2 605.6L 172.3 606.1L 172.5 606.7L 172.7 607L 172.9 607.3L 173.1 607.6L 173.5 607.8L 173.8 608L 174.3 608.1L 174.7 608.2L 175.3 608.3L 175.9 608.2L 176.4 608.1L 177 607.9L 177.4 607.7L 177.9 607.5L 178.2 607.1L 178.6 606.8L 178.9 606.5L 179.4 605.9L 179.7 605.3L 179.9 604.9L 180 604.7L 180.1 604.9L 180.3 605.3L 180.6 605.9L 181.2 606.5L 181.4 606.8L 181.8 607.1L 182.2 607.5L 182.7 607.7L 183.1 607.9L 183.7 608.1L 184.3 608.2L 184.9 608.3L 185.6 608.3L 186.1 608.2L 186.6 608.2L 187 608.1L 187.3 608L 187.6 607.8L 187.9 607.7L 188.1 607.6L 188.2 607.4L 188.3 607.2L 188.4 607L 188.4 606.9L 188.5 606.5L 188.5 606.1L 188.5 605.7L 188.4 605.3L 188.3 605.2L 188.2 605L 188.1 604.9L 188 604.7L 187.8 604.6L 187.6 604.5L 187.3 604.5L 187 604.4L 186.6 604.5L 186.2 604.5L 185.7 604.6L 185.1 604.7L 185.2 604.6L 185.3 604.3L 185.6 603.7L 185.8 603.2L 186 602.9L 186.3 602.6L 186.4 602.4L 186.7 602.1L 187 602L 187.3 601.9L 187.6 601.8L 187.9 601.8L 188 601.6L 188.1 601.2L 188.4 600.7L 188.8 600.1L 189.2 599.5L 189.7 598.9L 189.9 598.7L 190.1 598.5L 190.4 598.5L 190.7 598.4L 190.9 598.5L 191.2 598.5L 191.4 598.7L 191.6 598.9L 192.1 599.5L 192.5 600.1L 192.9 600.7L 193.2 601.2L 193.3 601.6L 193.4 601.8L 193.8 601.8L 194.1 601.9L 194.4 602L 194.7 602.1L 194.9 602.4L 195.2 602.6L 195.4 602.9L 195.6 603.2L 195.9 603.7L 196.2 604.3L 196.3 604.6L 196.4 604.7L 195.7 604.6L 195.2 604.5L 194.8 604.5L 194.4 604.4L 194.1 604.5L 193.8 604.5L 193.6 604.6L 193.4 604.7L 193.3 604.9L 193.2 605L 193.1 605.2L 193.1 605.3L 193 605.7L 193 606.1L 193 606.5L 193.1 606.9L 193.1 607L 193.2 607.2L 193.3 607.4L 193.4 607.6L 193.6 607.7L 193.9 607.8L 194.1 608L 194.5 608.1L 194.9 608.2L 195.4 608.2L 195.9 608.3L 196.6 608.3L 197.2 608.2L 197.8 608.1L 198.3 607.9L 198.8 607.7L 199.2 607.5L 199.7 607.1L 200 606.8L 200.3 606.5L 200.8 605.9L 201.2 605.3L 201.4 604.9L 201.5 604.7L 201.6 604.9L 201.7 605.3L 202.1 605.9L 202.5 606.5L 202.9 606.8L 203.2 607.1L 203.5 607.5L 204 607.7L 204.4 607.9L 204.9 608.1L 205.4 608.2L 206 608.3L 206.6 608.2L 207.1 608.1L 207.5 608L 207.9 607.8L 208.3 607.6L 208.5 607.3L 208.8 607L 208.9 606.7L 209.2 606.1L 209.3 605.6L 209.3 605.3L 209.3 605.1L 209.2 605.1L 208.8 604.9L 208.5 604.8L 208.2 604.7L 207.9 604.5L 207.6 604.3L 207.4 604L 207.2 603.8L 207 603.5L 206.9 603.1L 206.9 602.7L 207 602.3L 207.3 601.9L 207.6 601.4L 208.1 600.9L 208.6 600.4L 209.2 599.9L 209.9 599.5L 210.6 599.1L 211.4 598.7L 212.1 598.4L 212.8 598.1L 214.1 597.6L 215.2 597.2L 216 596.9L 216.2 596.8L 216 597.1L 215.4 597.9L 214.6 599.2L 213.7 600.7L 213.2 601.6L 212.7 602.5L 212.3 603.5L 211.9 604.4L 211.6 605.4L 211.3 606.4L 211.2 606.9L 211.2 607.3L 211.1 607.8L 211.1 608.3L 211.1 618.9L 170.2 618.9L 170.2 608.3"
     id="path633"
     transform="matrix(1.082529,0.000000,0.000000,1.082528,358.9059,-260.5078)" />
  <path
     style="font-size:12;fill:#ffcc00;stroke:#000000;stroke-width:0.692822;stroke-linejoin:round;"
     d="M 236.9 637.2L 237 636.8L 237 636.3L 237.1 635.8L 237.1 635.4L 237.4 634.4L 237.7 633.5L 238.1 632.5L 238.6 631.6L 239 630.7L 239.5 629.8L 240.5 628.3L 241.3 627.1L 241.8 626.3L 242.1 626L 241.8 626.1L 241 626.3L 239.9 626.7L 238.5 627.2L 237.8 627.5L 237 627.8L 236.3 628.2L 235.6 628.6L 234.9 629L 234.2 629.4L 233.7 629.8L 233.2 630.3L 233 630.6L 232.9 630.8L 232.7 631.1L 232.6 631.3L 232.5 631.7L 232.6 632.1L 232.6 632.5L 232.8 632.8L 233 633.1L 233.3 633.3L 233.5 633.6L 233.8 633.8L 234.1 633.9L 234.4 634L 234.8 634.2L 235 634.3L 235 634.4L 234.9 634.7L 234.8 635.2L 234.5 635.7L 234.4 636L 234.2 636.3L 233.9 636.5L 233.6 636.8L 233.3 637L 232.9 637.1L 232.3 637.2L 231.8 637.2L 231.2 637.2L 230.6 637.1L 230.1 636.9L 229.6 636.7L 229.2 636.4L 228.8 636.2L 228.5 635.9L 228.2 635.6L 227.7 634.9L 227.3 634.4L 227.1 634L 227.1 633.9L 227 634L 226.8 634.4L 226.4 635L 226 635.6L 225.6 636L 225.3 636.3L 224.9 636.6L 224.4 636.9L 223.9 637.1L 223.4 637.2L 222.8 637.4L 222.1 637.4L 221.5 637.4L 221 637.3L 220.5 637.3L 220.1 637.2L 219.8 637.1L 219.5 637L 219.3 636.8L 219.1 636.7L 218.9 636.5L 218.8 636.4L 218.7 636.2L 218.7 636L 218.6 635.6L 218.6 635.2L 218.6 634.8L 218.7 634.5L 218.7 634.3L 218.8 634.1L 219 633.9L 219.1 633.8L 219.3 633.7L 219.5 633.6L 219.8 633.6L 220.1 633.5L 220.5 633.6L 220.9 633.6L 221.4 633.7L 221.9 633.9L 221.9 633.7L 221.8 633.3L 221.5 632.8L 221.2 632.2L 221 631.9L 220.8 631.6L 220.6 631.4L 220.3 631.1L 220 630.9L 219.7 630.8L 219.4 630.7L 219 630.7L 218.9 630.6L 218.8 630.2L 218.5 629.7L 218.1 629.1L 217.7 628.6L 217.3 628L 217 627.9L 216.8 627.7L 216.5 627.6L 216.2 627.6L 216 627.6L 215.8 627.7L 215.6 627.9L 215.3 628L 214.9 628.6L 214.5 629.1L 214.2 629.7L 213.9 630.2L 213.7 630.6L 213.7 630.7L 213.3 630.7L 213 630.8L 212.7 630.9L 212.4 631.1L 212.1 631.4L 211.9 631.6L 211.7 631.9L 211.5 632.2L 211.1 632.8L 210.9 633.3L 210.8 633.7L 210.7 633.9L 211.3 633.7L 211.8 633.6L 212.2 633.6L 212.6 633.5L 212.9 633.6L 213.2 633.6L 213.4 633.7L 213.6 633.8L 213.7 633.9L 213.8 634.1L 213.9 634.3L 214 634.5L 214.1 634.8L 214.1 635.2L 214.1 635.6L 214 636L 214 636.2L 213.9 636.4L 213.8 636.5L 213.6 636.7L 213.4 636.8L 213.2 637L 212.9 637.1L 212.6 637.2L 212.2 637.3L 211.7 637.3L 211.1 637.4L 210.5 637.4L 209.9 637.4L 209.3 637.2L 208.8 637.1L 208.3 636.9L 207.8 636.6L 207.4 636.3L 207.1 636L 206.7 635.6L 206.2 635L 205.9 634.4L 205.7 634L 205.6 633.9L 205.6 634L 205.3 634.4L 205 634.9L 204.5 635.6L 204.2 635.9L 203.9 636.2L 203.4 636.4L 203 636.7L 202.5 636.9L 202 637.1L 201.5 637.2L 200.9 637.2L 200.3 637.2L 199.9 637.1L 199.4 637L 199.1 636.8L 198.8 636.5L 198.5 636.3L 198.3 636L 198.1 635.7L 197.9 635.2L 197.8 634.7L 197.7 634.4L 197.7 634.3L 197.9 634.2L 198.3 634L 198.6 633.9L 198.9 633.8L 199.1 633.6L 199.4 633.3L 199.7 633.1L 199.9 632.8L 200 632.5L 200.1 632.1L 200.1 631.7L 200 631.3L 199.9 630.8L 199.5 630.3L 199 629.8L 198.4 629.4L 197.8 629L 197.1 628.6L 196.4 628.2L 195.7 627.8L 194.9 627.5L 194.2 627.2L 192.8 626.7L 191.7 626.3L 190.9 626.1L 190.7 626L 190.9 626.3L 191.5 627.1L 192.3 628.3L 193.2 629.8L 193.7 630.7L 194.1 631.6L 194.6 632.5L 194.9 633.5L 195.3 634.4L 195.6 635.4L 195.7 635.8L 195.7 636.3L 195.7 636.8L 195.7 637.2L 195.7 648.1L 236.9 648.1L 236.9 637.2"
     id="path635"
     transform="matrix(1.082529,0.000000,0.000000,1.082528,358.9059,-260.5078)" />
  <g
     id="g1934">
    <path
       style="font-size:12;fill:#ffcc00;stroke:#000000;stroke-width:0.690386;stroke-dasharray:none;stroke-opacity:1;"
       d="M 118.9 361.8L 133 315.1L 161.5 315.1L 175.7 361.8L 157 361.8L 157 341.7L 156.9 340.7L 156.8 339.7L 156.5 338.8L 156.2 337.9L 155.8 337.1L 155.3 336.3L 154.8 335.6L 154.2 334.9L 153.5 334.2L 152.7 333.7L 151.9 333.2L 151.1 332.8L 150.2 332.4L 149.3 332.2L 148.3 332.1L 147.3 332L 146.8 332L 146.3 332.1L 145.9 332.1L 145.4 332.2L 144.4 332.4L 143.6 332.8L 142.7 333.2L 141.9 333.7L 141.2 334.2L 140.5 334.9L 139.9 335.6L 139.3 336.3L 138.8 337.1L 138.4 337.9L 138.1 338.8L 137.9 339.7L 137.8 340.2L 137.7 340.7L 137.7 341.2L 137.7 341.7L 137.7 361.8L 118.9 361.8"
       id="path565"
       transform="matrix(1.086348,0.000000,0.000000,1.086348,-19.75103,-279.6924)" />
    <path
       style="font-size:12;fill:#ffcc00;stroke:#000000;stroke-width:0.690386;stroke-dasharray:none;stroke-opacity:1;"
       d="M 135.3 296.6L 135.3 305.5L 139.1 305.5L 139.1 288.7L 129.6 288.7L 129.6 296.6L 135.3 296.6"
       id="path567"
       transform="matrix(1.086348,0.000000,0.000000,1.086348,-19.75103,-279.6924)" />
    <path
       style="font-size:12;fill:#ffcc00;stroke:#000000;stroke-width:0.690386;stroke-dasharray:none;stroke-opacity:1;"
       d="M 143.4 305.5L 143.4 296.6L 151.3 296.6L 151.3 305.5L 152 305.5L 152 283L 142.4 283L 142.4 305.5L 143.4 305.5"
       id="path569"
       transform="matrix(1.086348,0.000000,0.000000,1.086348,-19.75103,-279.6924)" />
    <path
       style="font-size:12;fill:#ffcc00;stroke:#000000;stroke-width:0.690386;stroke-dasharray:none;stroke-opacity:1;"
       d="M 159.4 305.5L 159.4 296.6L 165.1 296.6L 165.1 288.7L 155.4 288.7L 155.4 305.5L 159.4 305.5"
       id="path571"
       transform="matrix(1.086348,0.000000,0.000000,1.086348,-19.75103,-279.6924)" />
    <path
       style="font-size:12;fill:#ffcc00;stroke:#000000;stroke-width:0.690386;stroke-dasharray:none;stroke-opacity:1;"
       d="M 135.3 296.6L 135.3 305.5L 143.4 305.5L 143.4 296.6L 151.3 296.6L 151.3 305.5L 159.4 305.5L 159.4 296.6L 167.2 296.6L 167.2 312L 127.4 312L 127.4 296.6L 135.3 296.6"
       id="path573"
       transform="matrix(1.086348,0.000000,0.000000,1.086348,-19.75103,-279.6924)" />
    <path
       style="font-size:12;fill:#ffcc00;stroke:#000000;stroke-width:0.690386;stroke-dasharray:none;stroke-opacity:1;"
       d="M 52.6 361.8L 66.6 315.1L 95.3 315.1L 109.3 361.8L 90.6 361.8L 90.6 341.7L 90.5 340.7L 90.4 339.7L 90.2 338.8L 89.8 337.9L 89.4 337.1L 88.9 336.3L 88.4 335.6L 87.8 334.9L 87.1 334.2L 86.3 333.7L 85.5 333.2L 84.7 332.8L 83.8 332.4L 82.9 332.2L 81.9 332.1L 81 332L 80.4 332L 80 332.1L 79.5 332.1L 79 332.2L 78.1 332.4L 77.2 332.8L 76.4 333.2L 75.6 333.7L 74.8 334.2L 74.2 334.9L 73.5 335.6L 73 336.3L 72.5 337.1L 72.1 337.9L 71.7 338.8L 71.5 339.7L 71.4 340.2L 71.4 340.7L 71.3 341.2L 71.3 341.7L 71.3 361.8L 52.6 361.8"
       id="path581"
       transform="matrix(1.086348,0.000000,0.000000,1.086348,-19.75103,-279.6924)" />
    <path
       style="font-size:12;fill:#ffcc00;stroke:#000000;stroke-width:0.690386;stroke-dasharray:none;stroke-opacity:1;"
       d="M 69 296.6L 69 305.5L 72.7 305.5L 72.7 288.7L 63.2 288.7L 63.2 296.6L 69 296.6"
       id="path583"
       transform="matrix(1.086348,0.000000,0.000000,1.086348,-19.75103,-279.6924)" />
    <path
       style="font-size:12;fill:#ffcc00;stroke:#000000;stroke-width:0.690386;stroke-dasharray:none;stroke-opacity:1;"
       d="M 77 305.5L 77 296.6L 84.9 296.6L 84.9 305.5L 85.7 305.5L 85.7 283L 76.2 283L 76.2 305.5L 77 305.5"
       id="path585"
       transform="matrix(1.086348,0.000000,0.000000,1.086348,-19.75103,-279.6924)" />
    <path
       style="font-size:12;fill:#ffcc00;stroke:#000000;stroke-width:0.690386;stroke-dasharray:none;stroke-opacity:1;"
       d="M 93 305.5L 93 296.6L 98.7 296.6L 98.7 288.7L 89.2 288.7L 89.2 305.5L 93 305.5"
       id="path587"
       transform="matrix(1.086348,0.000000,0.000000,1.086348,-19.75103,-279.6924)" />
    <path
       style="font-size:12;fill:#ffcc00;stroke:#000000;stroke-width:0.690386;stroke-dasharray:none;stroke-opacity:1;"
       d="M 69 296.6L 69 305.5L 77 305.5L 77 296.6L 84.9 296.6L 84.9 305.5L 93 305.5L 93 296.6L 100.9 296.6L 100.9 312L 61.1 312L 61.1 296.6L 69 296.6"
       id="path589"
       transform="matrix(1.086348,0.000000,0.000000,1.086348,-19.75103,-279.6924)" />
    <path
       style="font-size:12;fill:#ffcc00;stroke:#000000;stroke-width:0.690386;stroke-dasharray:none;stroke-opacity:1;"
       d="M 127.3 384.6L 141.4 384.6L 141.4 379.3L 127.3 379.3L 127.3 384.6z"
       id="path591"
       transform="matrix(1.086348,0.000000,0.000000,1.086348,-19.75103,-279.6924)" />
    <path
       style="font-size:12;fill:#ffcc00;stroke:#000000;stroke-width:0.690386;stroke-dasharray:none;stroke-opacity:1;"
       d="M 140.2 378.9L 154.4 378.9L 154.4 373.4L 140.2 373.4L 140.2 378.9z"
       id="path593"
       transform="matrix(1.086348,0.000000,0.000000,1.086348,-19.75103,-279.6924)" />
    <path
       style="font-size:12;fill:#ffcc00;stroke:#000000;stroke-width:0.690386;stroke-dasharray:none;stroke-opacity:1;"
       d="M 153.2 384.6L 167.4 384.6L 167.4 379.3L 153.2 379.3L 153.2 384.6z"
       id="path595"
       transform="matrix(1.086348,0.000000,0.000000,1.086348,-19.75103,-279.6924)" />
    <path
       style="font-size:12;fill:#ffcc00;stroke:#000000;stroke-width:0.690386;stroke-dasharray:none;stroke-opacity:1;"
       d="M 118.9 458.8L 133 412.2L 161.5 412.2L 175.7 458.8L 157 458.8L 157 438.7L 156.9 437.7L 156.8 436.8L 156.5 435.9L 156.2 435L 155.8 434.2L 155.3 433.4L 154.8 432.6L 154.2 431.9L 153.5 431.3L 152.7 430.8L 151.9 430.3L 151.1 429.9L 150.2 429.5L 149.3 429.3L 148.3 429.2L 147.3 429.1L 146.8 429.1L 146.3 429.2L 145.9 429.2L 145.4 429.3L 144.4 429.5L 143.6 429.9L 142.7 430.3L 141.9 430.8L 141.2 431.3L 140.5 431.9L 139.9 432.6L 139.3 433.4L 138.8 434.2L 138.4 435L 138.1 435.9L 137.9 436.8L 137.8 437.3L 137.7 437.7L 137.7 438.3L 137.7 438.7L 137.7 458.8L 118.9 458.8"
       id="path597"
       transform="matrix(1.086348,0.000000,0.000000,1.086348,-19.75103,-279.6924)" />
    <path
       style="font-size:12;fill:#ffcc00;stroke:#000000;stroke-width:0.690386;stroke-dasharray:none;stroke-opacity:1;"
       d="M 135.3 393.7L 135.3 402.5L 139.1 402.5L 139.1 385.8L 129.6 385.8L 129.6 393.7L 135.3 393.7"
       id="path599"
       transform="matrix(1.086348,0.000000,0.000000,1.086348,-19.75103,-279.6924)" />
    <path
       style="font-size:12;fill:#ffcc00;stroke:#000000;stroke-width:0.690386;stroke-dasharray:none;stroke-opacity:1;"
       d="M 143.4 402.5L 143.4 393.7L 151.3 393.7L 151.3 402.5L 152 402.5L 152 380.1L 142.4 380.1L 142.4 402.5L 143.4 402.5"
       id="path601"
       transform="matrix(1.086348,0.000000,0.000000,1.086348,-19.75103,-279.6924)" />
    <path
       style="font-size:12;fill:#ffcc00;stroke:#000000;stroke-width:0.690386;stroke-dasharray:none;stroke-opacity:1;"
       d="M 159.4 402.5L 159.4 393.7L 165.1 393.7L 165.1 385.8L 155.4 385.8L 155.4 402.5L 159.4 402.5"
       id="path603"
       transform="matrix(1.086348,0.000000,0.000000,1.086348,-19.75103,-279.6924)" />
    <path
       style="font-size:12;fill:#ffcc00;stroke:#000000;stroke-width:0.690386;stroke-dasharray:none;stroke-opacity:1;"
       d="M 135.3 393.7L 135.3 402.5L 143.4 402.5L 143.4 393.7L 151.3 393.7L 151.3 402.5L 159.4 402.5L 159.4 393.7L 167.2 393.7L 167.2 409L 127.4 409L 127.4 393.7L 135.3 393.7"
       id="path605"
       transform="matrix(1.086348,0.000000,0.000000,1.086348,-19.75103,-279.6924)" />
    <path
       style="font-size:12;fill:#ffcc00;stroke:#000000;stroke-width:0.690386;stroke-dasharray:none;stroke-opacity:1;"
       d="M 60.9 384.6L 75 384.6L 75 379.3L 60.9 379.3L 60.9 384.6z"
       id="path607"
       transform="matrix(1.086348,0.000000,0.000000,1.086348,-19.75103,-279.6924)" />
    <path
       style="font-size:12;fill:#ffcc00;stroke:#000000;stroke-width:0.690386;stroke-dasharray:none;stroke-opacity:1;"
       d="M 73.9 378.9L 88 378.9L 88 373.4L 73.9 373.4L 73.9 378.9z"
       id="path609"
       transform="matrix(1.086348,0.000000,0.000000,1.086348,-19.75103,-279.6924)" />
    <path
       style="font-size:12;fill:#ffcc00;stroke:#000000;stroke-width:0.690386;stroke-dasharray:none;stroke-opacity:1;"
       d="M 86.9 384.6L 101.1 384.6L 101.1 379.3L 86.9 379.3L 86.9 384.6z"
       id="path611"
       transform="matrix(1.086348,0.000000,0.000000,1.086348,-19.75103,-279.6924)" />
    <path
       style="font-size:12;fill:#ffcc00;stroke:#000000;stroke-width:0.690386;stroke-dasharray:none;stroke-opacity:1;"
       d="M 52.6 458.8L 66.6 412.2L 95.3 412.2L 109.3 458.8L 90.6 458.8L 90.6 438.7L 90.5 437.7L 90.4 436.8L 90.2 435.9L 89.8 435L 89.4 434.2L 88.9 433.4L 88.4 432.6L 87.8 431.9L 87.1 431.3L 86.3 430.8L 85.5 430.3L 84.7 429.9L 83.8 429.5L 82.9 429.3L 81.9 429.2L 81 429.1L 80.4 429.1L 80 429.2L 79.5 429.2L 79 429.3L 78.1 429.5L 77.2 429.9L 76.4 430.3L 75.6 430.8L 74.8 431.3L 74.2 431.9L 73.5 432.6L 73 433.4L 72.5 434.2L 72.1 435L 71.7 435.9L 71.5 436.8L 71.4 437.3L 71.4 437.7L 71.3 438.3L 71.3 438.7L 71.3 458.8L 52.6 458.8"
       id="path613"
       transform="matrix(1.086348,0.000000,0.000000,1.086348,-19.75103,-279.6924)" />
    <path
       style="font-size:12;fill:#ffcc00;stroke:#000000;stroke-width:0.690386;stroke-dasharray:none;stroke-opacity:1;"
       d="M 69 393.7L 69 402.5L 72.7 402.5L 72.7 385.8L 63.2 385.8L 63.2 393.7L 69 393.7"
       id="path615"
       transform="matrix(1.086348,0.000000,0.000000,1.086348,-19.75103,-279.6924)" />
    <path
       style="font-size:12;fill:#ffcc00;stroke:#000000;stroke-width:0.690386;stroke-dasharray:none;stroke-opacity:1;"
       d="M 77 402.5L 77 393.7L 84.9 393.7L 84.9 402.5L 85.7 402.5L 85.7 380.1L 76.2 380.1L 76.2 402.5L 77 402.5"
       id="path617"
       transform="matrix(1.086348,0.000000,0.000000,1.086348,-19.75103,-279.6924)" />
    <path
       style="font-size:12;fill:#ffcc00;stroke:#000000;stroke-width:0.690386;stroke-dasharray:none;stroke-opacity:1;"
       d="M 93 402.5L 93 393.7L 98.7 393.7L 98.7 385.8L 89.2 385.8L 89.2 402.5L 93 402.5"
       id="path619"
       transform="matrix(1.086348,0.000000,0.000000,1.086348,-19.75103,-279.6924)" />
    <path
       style="font-size:12;fill:#ffcc00;stroke:#000000;stroke-width:0.690386;stroke-dasharray:none;stroke-opacity:1;"
       d="M 69 393.7L 69 402.5L 77 402.5L 77 393.7L 84.9 393.7L 84.9 402.5L 93 402.5L 93 393.7L 100.9 393.7L 100.9 409L 61.1 409L 61.1 393.7L 69 393.7"
       id="path621"
       transform="matrix(1.086348,0.000000,0.000000,1.086348,-19.75103,-279.6924)" />
    <path
       style="font-size:12;fill:#ffcc00;stroke:#000000;stroke-width:0.75;stroke-dasharray:none;stroke-opacity:1;"
       d="M 118.541 32.9753 L 133.859 32.9753 L 133.859 27.2177 L 118.541 27.2177 L 118.541 32.9753 z "
       id="path1558" />
    <path
       style="font-size:12;fill:#ffcc00;stroke:#000000;stroke-width:0.75;stroke-dasharray:none;stroke-opacity:1;"
       d="M 132.555 26.7831 L 147.981 26.7831 L 147.981 20.8082 L 132.555 20.8082 L 132.555 26.7831 z "
       id="path1560" />
    <path
       style="font-size:12;fill:#ffcc00;stroke:#000000;stroke-width:0.75;stroke-dasharray:none;stroke-opacity:1;"
       d="M 146.677 32.9753 L 162.104 32.9753 L 162.104 27.2177 L 146.677 27.2177 L 146.677 32.9753 z "
       id="path1562" />
    <path
       style="font-size:12;fill:#ffcc00;stroke:#000000;stroke-width:0.75;stroke-dasharray:none;stroke-opacity:1;"
       d="M 46.4076 32.9753 L 61.7251 32.9753 L 61.7251 27.2177 L 46.4076 27.2177 L 46.4076 32.9753 z "
       id="path1564" />
    <path
       style="font-size:12;fill:#ffcc00;stroke:#000000;stroke-width:0.75;stroke-dasharray:none;stroke-opacity:1;"
       d="M 60.5301 26.7831 L 75.8476 26.7831 L 75.8476 20.8082 L 60.5301 20.8082 L 60.5301 26.7831 z "
       id="path1566" />
    <path
       style="font-size:12;fill:#ffcc00;stroke:#000000;stroke-width:0.75;stroke-dasharray:none;stroke-opacity:1;"
       d="M 74.6526 32.9753 L 90.0788 32.9753 L 90.0788 27.2177 L 74.6526 27.2177 L 74.6526 32.9753 z "
       id="path1568" />
  </g>
</svg>
