<?xml version="1.0" encoding="utf-8"?>
<!-- Generator: Adobe Illustrator 10.0, SVG Export Plug-In . SVG Version: 3.0.0 Build 77)  --><svg enable-background="new 0 0 191.235 87.881" height="87.881" i:pageBounds="0 792 612 0" i:rulerOrigin="0 0" i:viewOrigin="210 439" overflow="visible" space="preserve" viewBox="0 0 191.235 87.881" width="191.235" xmlns="http://www.w3.org/2000/svg" xmlns:a="http://ns.adobe.com/AdobeSVGViewerExtensions/3.0/" xmlns:graph="http://ns.adobe.com/Graphs/1.0/" xmlns:i="http://ns.adobe.com/AdobeIllustrator/10.0/" xmlns:x="http://ns.adobe.com/Extensibility/1.0/" xmlns:xlink="http://www.w3.org/1999/xlink">
  <metadata>
    <rdf:RDF xmlns:cc="http://web.resource.org/cc/" xmlns:dc="http://purl.org/dc/elements/1.1/" xmlns:rdf="http://www.w3.org/1999/02/22-rdf-syntax-ns#">
      <cc:Work rdf:about="">
        <dc:title>Bacon (B and W)</dc:title>
        <dc:description>Bacon</dc:description>
        <dc:subject>
          <rdf:Bag>
            <rdf:li>protein</rdf:li>
            <rdf:li>food</rdf:li>
            <rdf:li>bacon</rdf:li>
            <rdf:li>menu</rdf:li>
          </rdf:Bag>
        </dc:subject>
        <dc:publisher>
          <cc:Agent rdf:about="http://www.openclipart.org/">
            <dc:title>Open Clip Art Project</dc:title>
          </cc:Agent>
        </dc:publisher>
        <dc:creator>
          <cc:Agent rdf:about="http://web.resource.org/cc/PublicDomain">
            <dc:title>Gerald G.</dc:title>
          </cc:Agent>
        </dc:creator>
        <dc:rights>
          <cc:Agent rdf:about="http://web.resource.org/cc/PublicDomain">
            <dc:title>Public Domain</dc:title>
          </cc:Agent>
        </dc:rights>
        <dc:date>2005/05/30</dc:date>
        <dc:format>image/svg+xml</dc:format>
        <dc:type rdf:resource="http://purl.org/dc/dcmitype/StillImage"/>
        <cc:license rdf:resource="http://web.resource.org/cc/PublicDomain"/>
        <dc:language>en</dc:language>
      </cc:Work>
      <cc:License rdf:about="http://web.resource.org/cc/PublicDomain">
        <cc:permits rdf:resource="http://web.resource.org/cc/Reproduction"/>
        <cc:permits rdf:resource="http://web.resource.org/cc/Distribution"/>
        <cc:permits rdf:resource="http://web.resource.org/cc/DerivativeWorks"/>
      </cc:License>
    </rdf:RDF>
  </metadata>
  <g i:dimmedPercent="50" i:layer="yes" i:rgbTrio="#4F008000FFFF" id="Layer_1">
    <g>
      <path clip-rule="evenodd" d="     M26.696,68.745c3.672-3.852,9.936-7.812,19.368-12.023c9.36-4.356,22.464-9.036,36.54-13.212     c14.004-4.176,33.912-6.624,47.088-11.52c13.141-5.148,23.832-13.968,31.104-18.144c7.02-4.104,10.655-6.228,11.052-6.372     c1.836,1.98,4.176,3.888,6.876,5.868s7.092,3.96,9.288,5.652c2.124,1.512,3.096,2.736,3.204,3.672     c-6.084,4.284-13.393,8.532-22.068,12.744c-8.82,4.14-19.116,8.028-29.916,12.492c-10.908,4.464-22.572,9.396-34.56,13.968     c-12.06,4.429-26.82,8.101-36.792,12.528c-9.972,4.355-17.352,8.748-22.536,13.464c-5.148-1.26-9.108-3.42-12.276-6.624     C29.936,77.961,27.812,73.93,26.696,68.745z" fill-rule="evenodd" i:knockout="Off" stroke="#000000" stroke-miterlimit="10" stroke-width="0.036"/>
      <path clip-rule="evenodd" d="     M27.919,69.249c3.672-3.852,9.936-7.812,19.368-12.023c9.36-4.393,22.464-9,36.54-13.248c14.04-4.176,33.804-6.624,47.088-11.52     c13.176-5.04,24.155-14.328,31.14-18.144c6.768-3.816,9.9-5.544,9.54-4.896c3.204,2.52,6.228,4.68,9.072,6.624     c2.808,1.98,6.443,3.564,7.848,4.896c1.26,1.188,1.26,1.872,0,2.196c-4.464,3.24-10.656,6.84-18.864,10.8     c-8.28,3.96-19.439,8.208-30.168,12.744c-10.836,4.428-22.428,9.071-34.092,13.5c-11.808,4.248-25.272,7.596-35.532,11.987     c-10.224,4.393-18.504,8.929-25.236,14.004c-4.176-0.54-7.488-2.052-10.332-4.932C31.483,78.394,29.359,74.397,27.919,69.249z" fill="#FFFFFF" fill-rule="evenodd" i:knockout="Off" stroke="#000000" stroke-miterlimit="10" stroke-width="0.036"/>
      <path clip-rule="evenodd" d="     M29.647,71.697c1.656-1.872,5.292-3.996,11.052-6.372c5.796-2.52,17.388-5.688,23.256-8.1c5.688-2.521,6.444-4.824,11.304-6.372     c4.86-1.512,12.348-1.296,17.892-2.7c5.4-1.512,9.685-4.752,14.94-6.12c5.22-1.476,10.872-0.252,16.668-2.448     c5.724-2.268,12.24-7.668,17.892-10.8c5.473-3.168,10.513-5.364,15.696-8.1c5.22-2.808,10.224-5.616,15.444-8.568l5.399,3.924     c-11.016,3.528-20.52,7.272-28.908,11.772c-8.46,4.356-14.147,11.628-21.096,14.472c-7.056,2.7-14.436,0.144-20.592,2.196     c-6.264,1.908-11.232,8.136-16.416,9.792c-5.292,1.692-9.36-1.692-14.976,0.252c-5.76,1.908-11.628,6.948-19.116,10.8     c-7.596,3.78-16.164,7.488-25.992,11.521c-0.144-0.792-0.288-1.656-0.72-2.448C30.943,73.533,30.368,72.634,29.647,71.697z" fill-rule="evenodd" i:knockout="Off" stroke="#000000" stroke-miterlimit="10" stroke-width="0.036"/>
      <path clip-rule="evenodd" d="     M31.627,71.949c2.232-1.943,5.616-3.96,10.296-5.904c4.716-2.016,12.672-4.247,17.64-6.119c4.752-2.017,8.64-4.32,11.268-5.652     c2.556-1.368,1.26-2.088,4.176-2.7c2.844-0.792,9.396-1.08,12.996-1.691c3.492-0.612,4.896-0.9,8.1-1.98     c3.096-1.224,7.524-3.924,10.512-4.896c2.736-0.936,3.744-0.792,6.624-0.972c2.952-0.396,6.517,0.396,10.548-0.972     c3.889-1.548,8.101-4.788,12.492-7.38c4.284-2.592,6.984-4.428,13.248-7.848c6.265-3.456,14.185-7.704,24.048-12.744l4.141,2.7     c-2.557,0.792-5.688,1.836-9.54,3.42c-3.996,1.548-9.288,3.528-13.5,5.652c-4.176,1.98-7.92,4.14-11.521,6.624     c-3.744,2.448-7.164,6.12-10.548,8.1c-3.527,1.836-6.228,2.52-10.044,3.168c-3.96,0.576-8.855-0.504-12.744,0.504     c-3.96,1.008-7.38,3.457-10.548,5.4c-3.24,1.765-5.724,4.572-8.568,5.364c-2.952,0.684-5.688-1.26-8.604-0.972     c-2.988,0.288-5.688,1.008-9.072,2.699c-3.42,1.513-4.896,3.528-11.52,6.876c-6.804,3.385-16.164,7.668-28.656,13.248     C32.456,74.577,32.06,73.281,31.627,71.949z" fill="#FFFFFF" fill-rule="evenodd" i:knockout="Off" stroke="#000000" stroke-miterlimit="10" stroke-width="0.036"/>
      <path clip-rule="evenodd" d="     M33.824,79.041c0.288,0.721,0.972,1.404,2.196,2.196c1.188,0.756,2.772,1.62,4.896,2.448c4.716-3.492,9.648-6.336,15.228-8.82     c5.436-2.448,13.536-4.212,17.64-5.868c3.996-1.836,2.772-3.348,6.876-4.68c4.14-1.296,11.088-1.152,17.388-3.168     c6.12-2.196,12.815-7.056,19.116-9.324c6.155-2.196,11.268-1.188,17.676-3.924c6.264-2.987,10.836-8.568,19.836-12.996     c8.964-4.464,19.979-8.568,33.588-12.996c-0.937-0.468-1.872-0.936-2.952-1.692c-1.152-0.756-2.844-2.304-3.42-2.7     c-0.684-0.468,2.088-0.792,0,0c-2.232,0.72-9.72,2.484-12.744,4.176c-3.132,1.512-2.483,3.996-5.399,5.364     c-2.988,1.296-7.597,0.612-12.024,2.952c-4.5,2.34-9.684,8.46-14.437,11.268c-4.716,2.736-8.928,3.852-13.752,5.148     c-5.004,1.151-11.376,0.504-15.911,2.231c-4.608,1.62-6.876,6.084-11.521,7.849c-4.824,1.619-12.276,1.512-16.668,2.447     c-4.32,0.937-6.408,1.62-9.324,3.168c-3.06,1.44-2.808,2.772-8.82,5.652C55.208,70.581,46.1,74.289,33.824,79.041z" fill-rule="evenodd" i:knockout="Off" stroke="#000000" stroke-miterlimit="10" stroke-width="0.036"/>
      <path clip-rule="evenodd" d="     M40.7,82.461c-0.504,0.108-1.116,0-1.98-0.468c-0.9-0.468-1.908-1.151-3.168-2.195c4.248-1.944,8.028-3.456,11.484-4.933     c3.384-1.476,5.58-2.052,9.108-3.672c3.492-1.836,8.136-4.644,11.988-6.624c3.672-1.979,5.76-3.708,10.548-4.896     c4.716-1.152,12.996-0.9,17.892-2.448c4.751-1.836,6.912-6.265,11.052-7.849c4.176-1.619,9.54-1.079,13.716-1.728     c3.96-0.756,6.84-1.332,10.296-2.7c3.312-1.476,6.84-3.708,10.044-5.868c3.168-2.304,6.516-5.724,9.072-7.344     c2.447-1.62,3.491-1.476,5.903-2.196c2.376-0.864,6.12-1.368,8.316-2.484c2.016-1.26,1.368-2.952,4.176-4.392     c2.809-1.404,6.84-2.844,12.492-4.176l4.176,3.204c-3.492,1.44-7.164,2.952-11.016,4.392c-3.96,1.368-8.244,2.484-12.276,4.176     c-4.067,1.62-9,4.176-12.023,5.868c-3.133,1.584-4.429,2.7-6.372,4.176c-1.944,1.44-3.672,2.916-5.616,4.428     c-2.16,1.296-3.204,2.52-6.876,3.672c-3.888,0.937-10.008,0.864-15.444,2.7c-5.544,1.872-12.708,6.768-16.92,8.568     c-4.248,1.691-4.824,1.115-7.848,1.728c-3.06,0.432-7.2,0.468-10.044,1.476c-2.844,1.08-4.716,2.916-7.128,4.393     c-2.556,1.188-4.788,2.16-8.064,3.456c-3.384,1.224-7.812,2.412-12.024,4.392C49.916,77.062,45.379,79.51,40.7,82.461z" fill="#FFFFFF" fill-rule="evenodd" i:knockout="Off" stroke="#000000" stroke-miterlimit="10" stroke-width="0.036"/>
      <path clip-rule="evenodd" d="     M12.439,67.485c3.672-3.816,9.936-7.812,19.368-11.988c9.396-4.392,22.356-9,36.504-13.248     c14.04-4.176,33.804-6.624,47.088-11.52c13.104-5.148,23.94-13.968,31.141-18.144c6.983-4.104,10.655-6.228,11.016-6.372     c1.836,2.052,4.176,3.924,6.876,5.904c2.771,1.836,7.128,4.032,9.324,5.616c2.016,1.512,3.168,2.736,3.168,3.672     c-6.192,4.32-13.32,8.424-22.068,12.744c-8.855,4.248-19.008,7.956-29.88,12.528c-10.836,4.464-22.644,9.396-34.596,13.968     c-12.096,4.355-26.748,8.1-36.756,12.492c-9.972,4.319-17.352,8.819-22.572,13.5c-5.112-1.261-9.144-3.42-12.24-6.624     C15.68,76.773,13.556,72.598,12.439,67.485z" fill-rule="evenodd" i:knockout="Off" stroke="#000000" stroke-miterlimit="10" stroke-width="0.036"/>
      <path clip-rule="evenodd" d="     M13.664,67.989c3.672-3.852,9.936-7.812,19.368-12.023c9.396-4.356,22.356-9.036,36.504-13.212     c14.04-4.176,33.804-6.624,47.088-11.52c13.176-5.04,24.155-14.328,31.14-18.144c6.768-3.816,9.9-5.544,9.54-4.896     c3.204,2.52,6.228,4.68,9.072,6.624c2.808,1.98,6.443,3.564,7.848,4.896c1.26,1.188,1.26,1.872,0,2.196     c-4.464,3.24-10.656,6.84-18.864,10.8c-8.279,3.888-19.439,8.316-30.168,12.744c-10.872,4.429-22.355,9.108-34.056,13.464     c-11.772,4.248-25.344,7.561-35.568,12.024c-10.224,4.428-18.504,8.856-25.236,13.968c-4.14-0.396-7.524-2.16-10.296-4.896     C17.228,77.062,15.104,73.281,13.664,67.989z" fill="#FFFFFF" fill-rule="evenodd" i:knockout="Off" stroke="#000000" stroke-miterlimit="10" stroke-width="0.036"/>
      <path clip-rule="evenodd" d="     M15.355,70.438c1.656-1.872,5.292-3.996,11.052-6.372c5.796-2.556,17.352-5.616,23.292-8.064     c5.724-2.592,6.372-4.823,11.268-6.407c4.86-1.549,12.348-1.188,17.892-2.664c5.508-1.548,9.576-4.716,14.976-6.156     c5.22-1.44,10.873-0.36,16.668-2.448c5.724-2.304,12.239-7.56,17.892-10.764c5.472-3.168,10.512-5.364,15.696-8.1     c5.22-2.808,10.224-5.616,15.443-8.568l5.4,3.924c-11.088,3.42-20.556,7.38-28.944,11.736     c-8.46,4.356-14.147,11.628-21.096,14.472c-7.056,2.7-14.436,0.144-20.592,2.196c-6.264,2.016-11.232,8.028-16.416,9.829     c-5.328,1.691-9.288-1.692-14.94,0.252c-5.868,1.836-11.556,6.947-19.152,10.764c-7.596,3.78-16.164,7.488-25.992,11.52     c-0.144-0.792-0.288-1.655-0.72-2.447C16.651,72.273,16.076,71.373,15.355,70.438z" fill-rule="evenodd" i:knockout="Off" stroke="#000000" stroke-miterlimit="10" stroke-width="0.036"/>
      <path clip-rule="evenodd" d="     M17.335,70.689c2.232-1.98,5.616-3.888,10.296-5.868c4.716-2.124,12.672-4.176,17.64-6.156c4.752-2.052,8.64-4.248,11.268-5.615     c2.556-1.368,1.26-2.089,4.176-2.7c2.844-0.756,9.396-1.188,12.996-1.729c3.492-0.684,4.896-0.828,8.1-1.943     c3.06-1.225,7.596-3.924,10.548-4.896c2.772-0.9,3.816-0.864,6.624-1.008c2.88-0.396,6.517,0.396,10.512-0.972     c3.816-1.512,8.173-4.752,12.528-7.344c4.212-2.592,6.948-4.428,13.212-7.848c6.336-3.456,14.076-7.704,24.048-12.744l4.177,2.7     c-2.628,0.792-5.688,1.836-9.576,3.42c-3.996,1.548-9.288,3.528-13.5,5.652c-4.212,2.016-7.849,4.032-11.484,6.588     c-3.744,2.34-7.164,6.192-10.548,8.1c-3.492,1.8-6.3,2.592-10.08,3.204c-3.96,0.504-8.855-0.504-12.744,0.468     c-3.888,1.008-7.344,3.456-10.512,5.4c-3.204,1.728-5.796,4.644-8.604,5.4c-2.988,0.684-5.616-1.261-8.568-0.973     c-2.988,0.288-5.688,1.008-9.072,2.7c-3.42,1.548-4.896,3.456-11.52,6.84c-6.768,3.384-16.236,7.668-28.692,13.248     C18.164,73.317,17.768,72.021,17.335,70.689z" fill="#FFFFFF" fill-rule="evenodd" i:knockout="Off" stroke="#000000" stroke-miterlimit="10" stroke-width="0.036"/>
      <path clip-rule="evenodd" d="     M19.532,77.817c0.288,0.72,0.972,1.404,2.196,2.196c1.152,0.756,2.844,1.62,4.932,2.447c4.68-3.491,9.612-6.336,15.192-8.819     c5.436-2.592,13.536-4.104,17.64-5.904c3.996-1.908,2.772-3.276,6.876-4.644c4.14-1.296,11.088-1.152,17.388-3.168     c6.084-2.196,12.924-7.057,19.152-9.324c6.12-2.196,11.305-1.188,17.641-3.924c6.155-2.988,10.872-8.568,19.836-12.996     c8.964-4.464,19.979-8.568,33.624-12.996c-0.937-0.432-1.872-1.008-2.952-1.728c-1.224-0.756-2.88-2.304-3.456-2.7     c-0.684-0.468,2.088-0.792,0,0c-2.232,0.792-9.72,2.376-12.744,4.176c-3.096,1.62-2.52,3.888-5.364,5.4     c-2.987,1.296-7.596,0.612-12.023,2.952c-4.572,2.34-9.72,8.46-14.473,11.268c-4.752,2.736-8.855,3.852-13.716,5.148     c-5.111,1.152-11.304,0.54-15.948,2.196c-4.608,1.62-6.876,6.084-11.52,7.848c-4.824,1.62-12.276,1.513-16.668,2.448     c-4.32,0.9-6.408,1.692-9.324,3.204c-3.06,1.476-2.808,2.7-8.82,5.616C40.916,69.285,31.808,73.102,19.532,77.817z" fill-rule="evenodd" i:knockout="Off" stroke="#000000" stroke-miterlimit="10" stroke-width="0.036"/>
      <path clip-rule="evenodd" d="     M26.408,81.237c-0.504,0.145-1.116-0.072-1.98-0.504c-0.9-0.468-1.908-1.152-3.168-2.196c4.212-1.872,8.1-3.456,11.52-4.896     c3.42-1.477,5.472-2.052,9.072-3.672c3.456-1.836,8.208-4.645,12.024-6.624c3.636-1.98,5.796-3.708,10.512-4.896     c4.752-1.151,12.996-0.899,17.928-2.448c4.788-1.836,6.84-6.264,11.016-7.848c4.176-1.62,9.54-1.08,13.716-1.728     c3.96-0.757,6.84-1.332,10.296-2.7c3.456-1.476,6.768-3.708,10.08-5.868c3.168-2.268,6.516-5.796,9.071-7.38     c2.484-1.62,3.421-1.476,5.868-2.196c2.34-0.828,6.192-1.368,8.353-2.448c1.908-1.224,1.439-3.024,4.14-4.428     c2.736-1.44,6.912-2.772,12.528-4.14l4.14,3.168c-3.492,1.512-7.164,2.988-11.016,4.428c-3.96,1.296-8.244,2.484-12.276,4.14     c-4.14,1.584-8.928,4.248-11.988,5.904c-3.023,1.548-4.5,2.808-6.372,4.176c-2.016,1.44-3.672,2.952-5.651,4.392     c-2.16,1.296-3.204,2.52-6.876,3.672c-3.888,0.936-10.008,0.864-15.444,2.7c-5.544,1.943-12.744,6.804-16.884,8.604     c-4.248,1.584-4.824,1.225-7.848,1.692c-3.096,0.432-7.236,0.468-10.08,1.476c-2.88,1.008-4.644,2.988-7.092,4.428     c-2.52,1.225-4.896,2.089-8.1,3.421c-3.384,1.188-7.812,2.483-12.024,4.428C35.624,75.838,31.087,78.285,26.408,81.237z" fill="#FFFFFF" fill-rule="evenodd" i:knockout="Off" stroke="#000000" stroke-miterlimit="10" stroke-width="0.036"/>
      <path clip-rule="evenodd" d="     M0.02,61.293c3.672-3.852,9.936-7.812,19.368-12.023c9.396-4.355,22.356-9.036,36.504-13.212     c14.04-4.176,33.804-6.624,47.088-11.52c13.104-5.148,23.94-13.968,31.14-18.144c6.984-4.104,10.656-6.228,11.017-6.372     c1.836,1.98,4.176,3.888,6.876,5.868c2.771,1.98,7.128,3.96,9.324,5.652c2.016,1.512,3.168,2.736,3.168,3.672     c-6.192,4.284-13.32,8.532-22.068,12.744c-8.855,4.14-19.008,8.028-29.88,12.492c-10.836,4.465-22.644,9.396-34.596,13.968     c-12.096,4.429-26.748,8.101-36.756,12.528c-9.972,4.356-17.352,8.748-22.572,13.464c-5.112-1.26-9.144-3.42-12.24-6.624     C3.26,70.51,1.136,66.478,0.02,61.293z" fill-rule="evenodd" i:knockout="Off" stroke="#000000" stroke-miterlimit="10" stroke-width="0.036"/>
      <path clip-rule="evenodd" d="     M1.244,61.798c3.672-3.853,9.936-7.813,19.368-12.024c9.396-4.392,22.356-9,36.504-13.248c14.04-4.176,33.804-6.624,47.087-11.52     c13.177-5.04,24.156-14.328,31.141-18.144c6.768-3.816,9.899-5.544,9.54-4.896c3.204,2.52,6.228,4.68,9.072,6.624     c2.808,1.98,6.443,3.564,7.848,4.896c1.26,1.188,1.26,1.872,0,2.196c-4.464,3.24-10.656,6.84-18.864,10.8     c-8.28,3.96-19.439,8.208-30.168,12.744c-10.872,4.428-22.356,9.072-34.056,13.5c-11.772,4.248-25.344,7.596-35.568,11.988     c-10.224,4.392-18.504,8.928-25.236,14.004c-4.14-0.54-7.524-2.053-10.296-4.933C4.808,70.941,2.684,66.945,1.244,61.798z" fill="#FFFFFF" fill-rule="evenodd" i:knockout="Off" stroke="#000000" stroke-miterlimit="10" stroke-width="0.036"/>
      <path clip-rule="evenodd" d="     M2.936,64.245c1.656-1.872,5.292-3.996,11.052-6.372c5.796-2.52,17.352-5.688,23.292-8.1c5.724-2.521,6.372-4.824,11.268-6.372     c4.86-1.512,12.348-1.296,17.892-2.7c5.508-1.512,9.576-4.752,14.976-6.12c5.22-1.476,10.872-0.252,16.668-2.448     c5.724-2.268,12.239-7.668,17.892-10.8c5.472-3.168,10.512-5.364,15.696-8.1c5.22-2.808,10.224-5.616,15.443-8.568l5.4,3.924     c-11.088,3.528-20.556,7.272-28.944,11.772c-8.46,4.356-14.147,11.628-21.096,14.472c-7.056,2.7-14.436,0.144-20.592,2.196     c-6.264,1.908-11.232,8.136-16.416,9.792c-5.292,1.692-9.36-1.692-14.976,0.252c-5.76,1.908-11.628,6.948-19.116,10.8     c-7.596,3.78-16.164,7.488-25.992,11.521c-0.144-0.792-0.288-1.656-0.72-2.448C4.231,66.081,3.656,65.182,2.936,64.245z" fill-rule="evenodd" i:knockout="Off" stroke="#000000" stroke-miterlimit="10" stroke-width="0.036"/>
      <path clip-rule="evenodd" d="     M4.916,64.497c2.232-1.943,5.616-3.96,10.296-5.903c4.716-2.017,12.672-4.248,17.64-6.12c4.752-2.017,8.64-4.32,11.268-5.652     c2.556-1.368,1.26-2.088,4.176-2.7c2.844-0.792,9.396-1.08,12.996-1.692c3.492-0.612,4.896-0.9,8.1-1.98     c3.06-1.224,7.596-3.924,10.548-4.896c2.772-0.936,3.816-0.792,6.624-0.972c2.88-0.396,6.516,0.396,10.512-0.972     c3.816-1.548,8.173-4.788,12.528-7.38c4.212-2.592,6.948-4.428,13.212-7.848c6.336-3.456,14.076-7.704,24.048-12.744l4.177,2.7     c-2.629,0.792-5.688,1.836-9.576,3.42c-3.996,1.548-9.288,3.528-13.5,5.652c-4.212,1.98-7.849,4.14-11.484,6.624     c-3.744,2.448-7.164,6.12-10.548,8.1c-3.492,1.836-6.3,2.52-10.08,3.168c-3.96,0.576-8.856-0.504-12.744,0.504     c-3.96,1.008-7.38,3.456-10.548,5.4c-3.204,1.764-5.832,4.572-8.568,5.364c-2.88,0.684-5.688-1.26-8.568-0.972     c-2.988,0.288-5.688,1.008-9.072,2.7c-3.42,1.512-4.896,3.527-11.52,6.876c-6.768,3.384-16.236,7.668-28.692,13.248     C5.744,67.125,5.348,65.829,4.916,64.497z" fill="#FFFFFF" fill-rule="evenodd" i:knockout="Off" stroke="#000000" stroke-miterlimit="10" stroke-width="0.036"/>
      <path clip-rule="evenodd" d="     M7.112,71.59c0.288,0.72,0.972,1.403,2.196,2.195c1.152,0.756,2.844,1.62,4.932,2.448c4.68-3.492,9.612-6.336,15.192-8.82     c5.436-2.447,13.536-4.212,17.64-5.868c3.996-1.836,2.772-3.348,6.876-4.68c4.14-1.296,11.088-1.151,17.388-3.168     c6.084-2.196,12.924-7.056,19.152-9.324c6.12-2.196,11.304-1.188,17.64-3.924c6.155-2.988,10.872-8.568,19.836-12.996     c8.964-4.464,19.979-8.568,33.624-12.996c-0.937-0.468-1.872-0.936-2.952-1.692c-1.225-0.756-2.88-2.304-3.456-2.7     c-0.685-0.468,2.088-0.792,0,0c-2.232,0.72-9.72,2.484-12.744,4.176c-3.06,1.512-2.592,3.996-5.4,5.364     c-3.06,1.296-7.523,0.612-11.987,2.952c-4.572,2.34-9.721,8.46-14.473,11.268c-4.752,2.736-8.855,3.852-13.716,5.148     c-5.112,1.152-11.304,0.504-15.948,2.232c-4.608,1.62-6.876,6.083-11.52,7.848c-4.824,1.62-12.276,1.512-16.668,2.447     c-4.32,0.937-6.408,1.62-9.324,3.168c-3.06,1.44-2.808,2.772-8.82,5.652C28.496,63.129,19.388,66.838,7.112,71.59z" fill-rule="evenodd" i:knockout="Off" stroke="#000000" stroke-miterlimit="10" stroke-width="0.036"/>
      <path clip-rule="evenodd" d="     M13.988,75.01c-0.504,0.107-1.116,0-1.98-0.469c-0.9-0.468-1.908-1.151-3.168-2.195c4.212-1.944,8.1-3.456,11.52-4.933     c3.42-1.476,5.472-2.052,9.072-3.672c3.456-1.836,8.208-4.644,12.024-6.624c3.636-1.979,5.796-3.708,10.512-4.896     c4.752-1.152,12.996-0.9,17.928-2.448c4.788-1.836,6.84-6.264,11.016-7.848c4.176-1.62,9.54-1.08,13.716-1.728     c3.96-0.756,6.84-1.332,10.296-2.7c3.456-1.476,6.768-3.708,10.08-5.868c3.204-2.304,6.443-5.724,9.036-7.344     c2.447-1.62,3.491-1.476,5.903-2.196c2.34-0.864,6.192-1.368,8.353-2.484c1.907-1.26,1.439-2.952,4.14-4.392     c2.736-1.404,6.912-2.844,12.528-4.176l4.14,3.204c-3.492,1.44-7.164,2.952-11.016,4.392c-3.96,1.368-8.244,2.484-12.276,4.176     c-4.14,1.62-8.928,4.176-11.988,5.868c-3.023,1.584-4.5,2.7-6.372,4.176c-2.016,1.44-3.672,2.916-5.651,4.428     c-2.16,1.296-3.204,2.52-6.876,3.672c-3.889,0.936-10.008,0.864-15.444,2.7c-5.544,1.872-12.708,6.769-16.92,8.568     c-4.14,1.691-4.896,1.116-7.812,1.728c-3.096,0.433-7.236,0.468-10.08,1.477c-2.88,1.08-4.644,2.916-7.092,4.392     c-2.52,1.188-4.896,2.16-8.1,3.456c-3.384,1.224-7.812,2.412-12.024,4.392C23.204,69.609,18.667,72.058,13.988,75.01z" fill="#FFFFFF" fill-rule="evenodd" i:knockout="Off" stroke="#000000" stroke-miterlimit="10" stroke-width="0.036"/>
    </g>
  </g>
</svg>
