<?xml version="1.0" encoding="UTF-8" standalone="no"?>
<!DOCTYPE svg PUBLIC "-//W3C//DTD SVG 1.0//EN"
"http://www.w3.org/TR/2001/REC-SVG-20010904/DTD/svg10.dtd">
<!-- Created with Inkscape (http://www.inkscape.org/) --><svg height="300.00000pt" id="svg1" inkscape:version="0.39" sodipodi:docbase="/home/Krug/Kunden/bianca-jeans-fashion.de/Aktuell/svg" sodipodi:docname="girl3.svg" sodipodi:version="0.32" width="300.00000pt" xmlns="http://www.w3.org/2000/svg" xmlns:cc="http://web.resource.org/cc/" xmlns:dc="http://purl.org/dc/elements/1.1/" xmlns:inkscape="http://www.inkscape.org/namespaces/inkscape" xmlns:rdf="http://www.w3.org/1999/02/22-rdf-syntax-ns#" xmlns:sodipodi="http://sodipodi.sourceforge.net/DTD/sodipodi-0.dtd" xmlns:xlink="http://www.w3.org/1999/xlink">
  <metadata>
    <rdf:RDF xmlns:cc="http://web.resource.org/cc/" xmlns:dc="http://purl.org/dc/elements/1.1/" xmlns:rdf="http://www.w3.org/1999/02/22-rdf-syntax-ns#">
      <cc:Work rdf:about="">
        <dc:title>breakdance</dc:title>
        <dc:description></dc:description>
        <dc:subject>
          <rdf:Bag>
            <rdf:li>people</rdf:li>
          </rdf:Bag>
        </dc:subject>
        <dc:publisher>
          <cc:Agent rdf:about="http://www.openclipart.org/">
            <dc:title>Open Clip Art Library</dc:title>
          </cc:Agent>
        </dc:publisher>
        <dc:creator>
          <cc:Agent>
            <dc:title>Juliane Krug</dc:title>
          </cc:Agent>
        </dc:creator>
        <dc:rights>
          <cc:Agent>
            <dc:title>Juliane Krug</dc:title>
          </cc:Agent>
        </dc:rights>
        <dc:date></dc:date>
        <dc:format>image/svg+xml</dc:format>
        <dc:type rdf:resource="http://purl.org/dc/dcmitype/StillImage"/>
        <cc:license rdf:resource="http://web.resource.org/cc/PublicDomain"/>
        <dc:language>en</dc:language>
      </cc:Work>
      <cc:License rdf:about="http://web.resource.org/cc/PublicDomain">
        <cc:permits rdf:resource="http://web.resource.org/cc/Reproduction"/>
        <cc:permits rdf:resource="http://web.resource.org/cc/Distribution"/>
        <cc:permits rdf:resource="http://web.resource.org/cc/DerivativeWorks"/>
      </cc:License>
    </rdf:RDF>
  </metadata>
  <defs id="defs3">
    <linearGradient id="linearGradient68977">
      <stop id="stop68978" offset="0" style="stop-color:#000;stop-opacity:1;"/>
      <stop id="stop68979" offset="1" style="stop-color:#fff;stop-opacity:1;"/>
    </linearGradient>
  </defs>
  <sodipodi:namedview bordercolor="#666666" borderopacity="1.0" id="base" inkscape:cx="228.32830" inkscape:cy="151.23309" inkscape:pageopacity="0.0" inkscape:pageshadow="2" inkscape:window-height="937" inkscape:window-width="1272" inkscape:window-x="0" inkscape:window-y="0" inkscape:zoom="2.0000000" pagecolor="#ffffff"/>
  <path d="M 230.45452,166.20499 L 231.41586,152.56868 L 221.49273,163.08864 L 212.06626,161.08853 L 198.56210,153.97195 L 199.44598,158.41413 L 197.88781,160.49169 L 206.92705,166.85652 L 212.43075,163.08864 L 221.77978,165.16620 L 230.45452,166.20499 z " id="path981" sodipodi:nodetypes="ccccccccccc" style="fill:#9ba09b;fill-opacity:1.0000000;fill-rule:evenodd;stroke:none;stroke-width:1.0000000pt;stroke-linecap:butt;stroke-linejoin:miter;stroke-opacity:1.0000000;"/>
  <path d="M 142.31302,91.102949 C 147.24766,94.241981 151.56909,96.901441 157.49947,98.137425 C 162.70550,99.744664 167.81793,101.88036 173.17340,102.86677 C 179.56924,103.09613 186.04830,103.79891 192.36298,102.38898 C 198.50447,101.77034 204.21055,99.263133 209.86560,97.002383 C 214.21857,94.609154 217.49528,90.745604 221.02708,87.345552 C 223.58322,84.033756 224.73291,79.896825 226.35447,76.118016 C 227.30535,71.143650 227.88837,66.109472 228.46823,61.081297 C 227.02557,56.605058 225.82011,52.052700 224.23118,47.623838 C 221.08759,43.853756 216.65785,40.659699 215.94345,35.437907 C 214.35142,31.077188 214.15458,25.967808 211.17633,22.250972 C 206.84241,17.844749 200.02360,18.283027 194.94784,15.140533 C 191.50023,13.124730 187.72066,11.781342 183.74200,11.355848 C 178.83759,10.473149 173.46057,10.295485 169.28141,13.399672 C 165.20523,15.253376 162.48295,18.936198 159.71469,22.298438 C 156.69276,26.450301 154.57377,31.154718 152.40318,35.782915 C 148.89655,39.657658 143.74117,41.754530 140.83234,46.233135 C 137.84964,49.997770 134.17518,53.410418 132.51219,58.013000 C 129.73788,61.904007 129.66239,66.691915 130.73298,71.173630 C 131.56127,74.973941 133.69855,78.321989 135.75900,81.565792 C 137.74342,84.319349 140.13925,88.504618 142.31302,91.102949 z " id="path963" sodipodi:nodetypes="ccccccccccccccccccccc" style="fill:#d0b58a;fill-opacity:1.0000000;fill-rule:evenodd;stroke:none;stroke-width:1.0000000pt;stroke-linecap:butt;stroke-linejoin:miter;stroke-opacity:1.0000000;"/>
  <path d="M 130.36704,60.768698 L 125.69252,67.001385 L 121.53740,78.427978 L 118.94044,90.893352 L 117.38227,99.722992 L 116.34349,111.66897 L 116.86288,121.01801 L 115.82410,127.25069 L 117.38227,134.52216 L 117.90166,136.59972 L 116.34349,140.75485 L 115.82410,148.02632 L 117.90166,163.60803 L 122.57618,177.11219 L 130.88643,199.96537 L 145.42936,222.81856 L 152.70083,227.49307 L 159.45291,232.16759 L 167.24377,238.91967 L 174.51524,234.76454 L 184.38366,224.37673 L 185.94183,220.22161 L 187.50000,211.91136 L 177.11219,202.04294 L 172.43767,189.05817 L 173.47645,180.74792 L 170.36011,173.99584 L 169.32133,166.72438 L 166.20499,163.08864 L 164.12742,157.89474 L 161.53047,153.73961 L 158.93352,154.25900 L 159.97230,151.14266 L 158.41413,149.06510 L 161.53047,148.54571 L 164.64681,142.31302 L 161.53047,150.10388 L 158.41413,150.62327 L 161.01108,151.66205 L 159.45291,154.25900 L 161.53047,152.70083 L 163.08864,155.29778 L 169.32133,153.73961 L 178.59291,156.18166 L 188.53878,161.01108 L 196.77158,164.04997 L 199.96537,159.45291 L 197.88781,153.73961 L 194.77147,145.94875 L 191.13573,136.08033 L 189.05817,132.96399 L 183.86427,126.21191 L 180.22853,127.77008 L 176.59280,122.05679 L 167.24377,126.21191 L 163.08864,128.28947 L 162.04986,121.01801 L 161.53047,116.86288 L 157.37535,111.14958 L 150.10388,99.722992 L 149.06510,94.529086 L 141.27424,89.335180 L 134.52216,79.986149 L 130.36704,71.675900 L 130.36704,60.768698 z " id="path964" sodipodi:nodetypes="ccccccccccccccccccccccccccccccccccccccccccccccccccccccccccccccccc" style="fill:#9ba09b;fill-opacity:1.0000000;fill-rule:evenodd;stroke:none;stroke-width:1.0000000pt;stroke-linecap:butt;stroke-linejoin:miter;stroke-opacity:1.0000000;"/>
  <path d="M 115.82410,106.99446 L 113.22715,110.63019 L 110.11080,116.86288 L 109.07202,127.25069 L 108.03324,133.48338 L 103.87812,139.71607 L 98.684211,146.46814 L 95.048477,160.49169 L 96.087258,174.51524 L 98.684211,190.61634 L 100.24238,204.63989 L 104.91690,197.36842 L 107.51385,193.73269 L 112.18837,189.57756 L 114.78532,181.78670 L 106.99446,177.11219 L 101.28116,173.47645 L 97.126039,166.20499 L 97.126039,158.41413 L 98.684211,150.10388 L 101.28116,143.87119 L 109.07202,134.52216 L 111.66898,127.25069 L 115.82410,121.53740 L 115.82410,111.14958 L 115.82410,106.99446 z " id="path965" style="fill:#9ba09b;fill-opacity:1.0000000;fill-rule:evenodd;stroke:none;stroke-width:1.0000000pt;stroke-linecap:butt;stroke-linejoin:miter;stroke-opacity:1.0000000;"/>
  <path d="M 116.78543,119.32769 L 111.14958,127.84753 L 109.14947,133.11889 L 102.31994,142.31302 L 97.645429,151.14266 L 96.164706,164.18212 L 100.31983,173.16666 L 108.55263,178.15097 L 114.26593,181.78670 L 116.86288,182.82548 L 119.97922,182.30609 L 125.61507,184.38366 L 120.78566,169.16643 L 117.38227,159.45291 L 116.63054,146.91008 L 118.03381,140.15801 L 119.15004,136.08033 L 117.22737,126.88620 L 116.78543,119.32769 z " id="path966" sodipodi:nodetypes="ccccccccccccccccccc" style="fill:#9ba09b;fill-opacity:1.0000000;fill-rule:evenodd;stroke:none;stroke-width:1.0000000pt;stroke-linecap:butt;stroke-linejoin:miter;stroke-opacity:1.0000000;"/>
  <path d="M 159.97230,151.14266 L 167.76316,152.18144 L 177.63158,155.81717 L 189.57756,161.53047 L 195.81025,162.72415 L 198.92659,159.97230 L 206.19806,164.64681 L 214.87280,162.28220 L 227.49307,165.39855 L 238.91967,168.43745 L 249.67630,172.85307 L 240.47784,188.53878 L 234.76454,204.63989 L 229.05125,221.77978 L 223.85734,229.57064 L 212.95014,223.85734 L 187.83255,212.14371 L 182.30609,205.67867 L 176.22831,202.48488 L 173.99584,192.69391 L 172.43767,189.05817 L 172.22807,179.78659 L 169.55367,174.87972 L 167.99550,166.64693 L 164.72427,162.85630 L 163.08864,156.85596 L 159.97230,151.14266 z " id="path967" sodipodi:nodetypes="ccccccccccccccccccccccccccc" style="fill:#9ba09b;fill-opacity:1.0000000;fill-rule:evenodd;stroke:none;stroke-width:1.0000000pt;stroke-linecap:butt;stroke-linejoin:miter;stroke-opacity:1.0000000;"/>
  <path d="M 187.57745,210.43064 L 184.61600,220.53140 L 182.30609,226.45429 L 176.07341,245.67175 L 170.87950,261.25346 L 161.01108,286.18421 L 155.81717,290.33934 L 150.10388,296.57202 L 146.46814,303.32410 L 145.42936,313.71191 L 144.39058,320.46399 L 145.42936,325.13850 L 154.25900,331.89058 L 165.68560,328.77424 L 179.70914,326.17729 L 181.78670,327.21607 L 181.26731,319.94460 L 181.26731,312.67313 L 180.74792,309.55679 L 191.65512,308.51801 L 192.69391,302.80471 L 201.00416,290.33934 L 211.91136,266.96676 L 223.33795,240.47784 L 229.57064,221.77978 L 223.33795,228.53186 L 197.36842,215.02770 L 187.57745,210.43064 z " id="path968" sodipodi:nodetypes="cccccccccccccccccccccccccccc" style="fill:#9ba09b;fill-opacity:1.0000000;fill-rule:evenodd;stroke:none;stroke-width:1.0000000pt;stroke-linecap:butt;stroke-linejoin:miter;stroke-opacity:1.0000000;"/>
  <path d="M 144.90997,324.09972 L 143.87119,326.69668 L 143.87119,329.81302 L 143.87119,331.89058 L 150.62327,337.60388 L 153.22022,337.60388 L 156.33657,341.75900 L 156.85596,344.87535 L 161.53047,350.58864 L 169.84072,353.70499 L 178.15097,354.74377 L 187.50000,353.18560 L 191.13573,352.14681 L 191.13573,346.43352 L 190.09695,341.23961 L 186.98061,336.56510 L 181.78670,329.29363 L 180.22853,325.65789 L 166.72438,328.25485 L 154.77839,331.37119 L 144.90997,324.09972 z " id="path969" style="fill:#570000;fill-opacity:1.0000000;fill-rule:evenodd;stroke:none;stroke-width:1.0000000pt;stroke-linecap:butt;stroke-linejoin:miter;stroke-opacity:1.0000000;"/>
  <path d="M 248.26870,175.03463 L 251.38504,174.51524 L 257.09834,172.43767 L 261.25346,173.47645 L 261.77285,171.39889 L 264.88920,171.39889 L 266.44737,170.87950 L 269.04432,171.91828 L 271.12188,170.36011 L 272.16066,172.43767 L 272.68006,191.13573 L 272.16066,194.77147 L 272.68006,205.67867 L 272.68006,220.74100 L 271.12188,228.53186 L 267.48615,232.68698 L 260.73407,229.57064 L 257.09834,228.01247 L 253.46260,224.37673 L 252.94321,216.58587 L 249.82687,213.46953 L 244.11357,207.23684 L 237.88089,204.12050 L 235.28393,202.04294 L 237.88089,192.17452 L 241.51662,185.42244 L 247.22992,180.22853 L 248.26870,178.67036 L 248.26870,175.03463 z " id="path970" style="fill:#570000;fill-opacity:1.0000000;fill-rule:evenodd;stroke:none;stroke-width:1.0000000pt;stroke-linecap:butt;stroke-linejoin:miter;stroke-opacity:1.0000000;"/>
  <path d="M 209.83380,19.736842 L 213.98892,20.775623 L 220.74100,26.488919 L 228.01247,32.202216 L 232.16759,32.721606 L 240.99723,34.799169 L 252.42382,38.954293 L 258.65651,43.109418 L 265.92798,44.667590 L 270.60249,46.745152 L 273.19945,48.822715 L 274.23823,52.977839 L 278.91274,59.210526 L 280.47091,64.404432 L 277.35457,72.714681 L 276.31579,79.466759 L 274.75762,89.335180 L 271.64127,97.645429 L 270.08310,112.18837 L 266.44737,127.25069 L 266.96676,134.00277 L 258.13712,137.11911 L 249.82687,138.67729 L 240.99723,138.15789 L 234.76454,131.40582 L 238.40028,112.70776 L 241.51662,90.893352 L 243.07479,84.141274 L 243.59418,79.466759 L 238.40028,69.078947 L 228.01247,65.962604 L 227.49308,60.249307 L 223.85734,47.783933 L 216.58587,39.473684 L 213.98892,28.047091 L 211.39197,23.372576 L 209.83380,19.736842 z " id="path971" sodipodi:nodetypes="ccccccccccccccccccccccccccccccccccccc" style="fill:#9ba09b;fill-opacity:1.0000000;fill-rule:evenodd;stroke:none;stroke-width:1.0000000pt;stroke-linecap:butt;stroke-linejoin:miter;stroke-opacity:1.0000000;"/>
  <path d="M 224.37673,80.505540 L 233.72576,89.854570 L 240.99723,95.567867 L 238.91967,110.63019 L 236.84211,126.73130 L 235.28393,132.44460 L 237.88089,135.04155 L 233.72576,140.23546 L 230.60942,131.92521 L 230.09003,121.53740 L 229.05125,117.90166 L 225.41551,120.49861 L 223.33795,120.49861 L 214.50831,114.26593 L 218.66344,117.38227 L 206.71745,121.01801 L 208.79501,111.66897 L 208.27562,109.59141 L 210.87258,105.43629 L 210.35319,98.684210 L 213.46953,98.684210 L 217.62465,94.009695 L 216.06648,91.932133 L 221.26039,87.257618 L 224.37673,80.505540 z " id="path972" style="fill:#9ba09b;fill-opacity:1.0000000;fill-rule:evenodd;stroke:none;stroke-width:1.0000000pt;stroke-linecap:butt;stroke-linejoin:miter;stroke-opacity:1.0000000;"/>
  <path d="M 148.77805,94.683984 L 150.98776,102.81658 L 161.53047,117.38227 L 165.16621,118.42105 L 170.36011,118.42105 L 177.11219,116.34349 L 181.26731,113.74654 L 189.05817,108.55263 L 194.77147,101.80055 L 183.34488,102.83934 L 174.51524,102.83934 L 163.60803,99.722992 L 148.77805,94.683984 z " id="path973" sodipodi:nodetypes="ccccccccccccc" style="fill:#dfa38f;fill-opacity:1.0000000;fill-rule:evenodd;stroke:none;stroke-width:1.0000000pt;stroke-linecap:butt;stroke-linejoin:miter;stroke-opacity:1.0000000;"/>
  <path d="M 212.43075,98.684210 L 209.83380,98.684210 L 210.87258,105.95568 L 207.75623,109.59141 L 208.79501,111.66897 L 206.19806,119.97922 L 217.62465,116.34349 L 224.89612,120.49861 L 229.57064,117.90166 L 229.57064,124.65374 L 230.09003,131.40582 L 233.72576,140.75485 L 233.20637,142.83241 L 230.60942,147.50693 L 230.09003,155.81717 L 222.81856,164.12742 L 213.46953,162.56925 L 198.92659,156.33656 L 191.13573,135.56094 L 184.38366,126.21191 L 180.22853,126.73130 L 177.11219,121.53740 L 163.08864,128.28947 L 161.53047,117.90166 L 168.80194,117.90166 L 175.55402,116.86288 L 179.70914,113.74654 L 186.46122,119.45983 L 196.32964,122.05679 L 199.96537,116.34349 L 201.00416,114.78532 L 197.88781,110.11080 L 197.36842,102.31994 L 202.56233,99.722992 L 206.71745,97.126039 L 212.43075,95.048476 L 215.54709,91.412742 L 216.58587,91.412742 L 217.62465,94.009695 L 212.43075,98.684210 z " id="path978" style="fill:#ffffff;fill-opacity:1.0000000;fill-rule:evenodd;stroke:none;stroke-width:1.0000000pt;stroke-linecap:butt;stroke-linejoin:miter;stroke-opacity:1.0000000;"/>
  <path d="M 193.21330,102.31994 L 190.61634,105.43629 L 184.38366,111.14958 L 179.70914,113.74654 L 185.42244,119.45983 L 196.32964,122.57618 L 201.00416,114.26593 L 197.88781,108.55263 L 199.96537,100.76177 L 193.21330,102.31994 z " id="path979" style="fill:#440000;fill-opacity:1.0000000;fill-rule:evenodd;stroke:none;stroke-width:1.0000000pt;stroke-linecap:butt;stroke-linejoin:miter;stroke-opacity:1.0000000;"/>
  <path d="M 253.46260,137.63850 L 253.35699,150.73753 L 249.92382,162.89041 L 249.51437,173.99584 L 247.74931,172.43334 L 246.19114,171.81267 L 246.19114,168.28255 L 246.71053,163.60803 L 244.83985,161.83864 L 244.21485,170.46139 L 238.91967,168.80194 L 234.76454,167.24377 L 230.09003,166.20499 L 230.60942,159.45291 L 230.09003,147.50693 L 232.58137,141.48113 L 235.17832,136.59539 L 238.40028,135.04155 L 250.13937,138.15357 L 253.46260,137.63850 z " id="path980" sodipodi:nodetypes="cccccccccccccccccccc" style="fill:#dfa38f;fill-opacity:1.0000000;fill-rule:evenodd;stroke:none;stroke-width:1.0000000pt;stroke-linecap:butt;stroke-linejoin:miter;stroke-opacity:1.0000000;"/>
  <path d="M 219.18283,71.156513 C 203.81885,86.902632 162.75112,80.740385 153.38881,73.482007 C 169.54395,88.059048 204.86412,86.460542 219.18283,71.156513 z " id="path4093" style="fill:#000000;fill-opacity:0.25312498;fill-rule:evenodd;stroke:none;stroke-width:1.0000000pt;stroke-linecap:butt;stroke-linejoin:miter;stroke-opacity:1.0000000;"/>
  <path d="M 219.18282,59.673496 C 208.50032,74.666990 187.05571,79.813080 169.80797,74.001500 C 161.62690,71.221595 154.22230,65.721438 150.10291,58.161526 C 154.38557,55.989817 152.44725,61.194016 154.73619,63.574664 C 157.18493,68.462520 166.38646,70.535754 171.03064,72.164226 C 184.49275,76.410786 199.27461,72.468668 210.99210,65.399679 C 213.85440,63.681668 216.59020,61.762383 219.18282,59.673496 z " id="path4718" sodipodi:nodetypes="ccccccc" style="fill:#000000;fill-opacity:0.17812498;fill-rule:evenodd;stroke:none;stroke-width:1.0000000pt;stroke-linecap:butt;stroke-linejoin:miter;stroke-opacity:1.0000000;"/>
  <path d="M 217.10526,39.473682 C 217.79263,46.359464 217.30742,53.468228 219.39597,60.113590 C 219.38495,64.381318 218.74604,69.132012 215.92377,72.507776 C 212.25051,77.193315 206.47182,78.922436 201.09468,80.812562 C 194.78676,82.393500 200.22095,89.657821 197.74760,93.724341 C 196.57661,96.182688 195.72572,101.49040 200.11092,98.798647 C 205.87818,97.807391 211.11920,95.039140 215.94106,91.885277 C 220.48163,87.621199 223.42274,81.783953 225.41709,75.950558 C 226.55283,70.681401 229.42706,65.546559 228.09483,60.023087 C 228.21550,54.169064 225.56602,48.836295 221.66831,44.582001 C 220.29698,42.751680 218.60271,41.200412 217.10526,39.473682 z " id="path5340" style="fill:#000000;fill-opacity:0.090624996;fill-rule:evenodd;stroke:none;stroke-width:1.0000000pt;stroke-linecap:butt;stroke-linejoin:miter;stroke-opacity:1.0000000;"/>
  <path d="M 218.14404,56.613573 L 213.46953,63.885041 L 214.50831,67.520775 L 215.02770,73.234071 L 217.62465,68.040166 L 217.10526,64.923822 L 218.14404,56.613573 z " id="path5966" style="fill:#000000;fill-opacity:0.41874996;fill-rule:evenodd;stroke:none;stroke-width:1.0000000pt;stroke-linecap:butt;stroke-linejoin:miter;stroke-opacity:1.0000000;"/>
  <path d="M 211.39197,22.853185 C 206.21028,28.227827 200.82240,33.438666 194.73443,37.787364 C 190.30696,41.724425 186.61762,46.422064 182.98198,51.080981 C 179.62118,55.825889 176.46905,60.801732 174.81522,66.429989 C 173.88903,69.058687 172.86798,71.652542 171.91827,74.272856" id="path7210" style="fill:none;fill-opacity:0.75000000;fill-rule:evenodd;stroke:#000000;stroke-width:1.0000000pt;stroke-linecap:butt;stroke-linejoin:miter;stroke-opacity:0.14062496;"/>
  <path d="M 171.91827,13.504154 C 166.73855,18.803576 161.56639,24.668465 160.55243,32.309917 C 158.10863,42.022736 156.20886,51.900388 154.77840,61.807480" id="path7837" style="fill:none;fill-opacity:0.75000000;fill-rule:evenodd;stroke:#000000;stroke-width:1.0000000pt;stroke-linecap:butt;stroke-linejoin:miter;stroke-opacity:0.10312498;"/>
  <path d="M 152.18144,37.396122 L 149.06510,45.706371 L 145.94875,54.536011 L 146.46814,62.326870 L 149.06510,67.520775 L 143.87119,61.807479 L 142.83241,56.613573 L 139.71607,59.729917 L 134.00277,67.001385 L 132.44460,74.272853 L 130.88643,66.481994 L 133.48338,57.652354 L 138.67729,49.861496 L 144.90997,42.590028 L 152.18144,37.396122 z " id="path9717" style="fill:#000000;fill-opacity:0.10312500;fill-rule:evenodd;stroke:none;stroke-width:1.0000000pt;stroke-linecap:butt;stroke-linejoin:miter;stroke-opacity:1.0000000;"/>
  <path d="M 151.14265,36.357342 C 142.71557,42.613840 134.05317,49.961239 131.41927,60.615286 C 128.92914,69.721722 131.64843,80.766964 139.84079,86.131827 C 142.58052,88.424603 145.64847,91.099397 142.02576,86.486452 C 135.53206,78.935060 131.01363,67.788457 135.80711,58.211177 C 139.29029,49.709650 148.21473,45.098815 151.14265,36.357342 z " id="path10339" style="fill:#000000;fill-opacity:0.11562497;fill-rule:evenodd;stroke:none;stroke-width:1.0000000pt;stroke-linecap:butt;stroke-linejoin:miter;stroke-opacity:1.0000000;"/>
  <path d="M 218.66344,39.993075 C 223.11784,45.729738 227.80595,51.912150 227.60169,59.562388 C 228.75851,71.383947 225.41526,84.660975 215.56331,92.112372 C 213.26660,94.049911 209.61310,97.082073 213.51830,92.819568 C 221.67537,82.557395 228.80424,69.038933 225.17774,55.615946 C 224.16465,49.168308 215.78362,47.168080 218.66344,39.993075 z " id="path10968" style="fill:#000000;fill-opacity:0.16875000;fill-rule:evenodd;stroke:none;stroke-width:1.0000000pt;stroke-linecap:butt;stroke-linejoin:miter;stroke-opacity:1.0000000;"/>
  <path d="M 218.14404,39.993075 L 218.66343,57.132964 L 220.74099,63.885042 L 219.18282,71.675901 L 217.10526,73.753463 L 217.62465,75.831025 L 222.29917,66.481995 L 223.33795,58.691136 L 222.81856,46.745153 L 218.14404,39.993075 z " id="path6588" sodipodi:nodetypes="cccccccccc" style="fill:#000000;fill-opacity:0.24374999;fill-rule:evenodd;stroke:none;stroke-width:1.0000000pt;stroke-linecap:butt;stroke-linejoin:miter;stroke-opacity:1.0000000;"/>
  <path d="M 173.47645,14.542937 L 179.18975,17.659280 L 185.42243,20.256233 L 191.13573,21.295014 L 197.88781,22.333795 L 196.84903,24.411358 L 190.61634,27.008311 L 185.94182,26.488920 L 186.46121,30.124654 L 191.65512,30.124654 L 192.17451,32.202217 L 185.94182,34.799169 L 182.82548,37.396122 L 177.63157,37.915513 L 173.99584,38.434904 L 176.07340,41.551247 L 181.26731,41.551247 L 186.98060,38.434904 L 190.61634,35.837951 L 195.29085,33.760388 L 198.40720,32.202217 L 200.48476,29.085873 L 202.04293,28.047092 L 203.08171,29.605264 L 201.00415,34.279779 L 200.48476,36.357341 L 202.56232,38.434904 L 205.15927,39.473685 L 204.12049,42.070638 L 198.92659,42.590028 L 193.73268,43.109419 L 193.73268,45.186981 L 199.44598,46.745153 L 205.15927,46.745153 L 203.60110,51.939059 L 196.84903,49.342106 L 191.13573,48.822715 L 188.01939,51.419668 L 194.25207,52.977840 L 198.92659,53.497230 L 197.36842,55.574793 L 188.01939,57.132964 L 183.34487,59.729917 C 183.34487,59.729917 188.01939,60.768699 190.61634,60.768699 C 193.21329,60.768699 184.90304,62.326870 184.90304,62.326870 L 180.74792,65.962604 C 180.74792,65.962604 181.26731,67.520776 183.86426,67.520776 C 186.46121,67.520776 193.73268,69.598338 193.73268,69.598338 L 188.53878,70.637120 L 181.78670,71.675901 C 181.78670,71.675901 170.87950,73.234073 179.18975,73.234073 C 187.49999,73.234073 191.65512,72.714682 191.65512,72.714682 C 191.65512,72.714682 197.88781,71.156510 199.96537,71.156510 C 202.04293,71.156510 206.19806,71.675901 206.19806,71.675901 L 212.43074,69.078948 L 218.66343,60.249308 L 217.62465,45.186981 L 215.02770,31.682826 L 211.39196,21.814405 L 206.19806,19.736843 L 198.92659,20.256233 L 191.13573,17.139890 L 185.94182,13.504155 L 181.26731,11.945983 L 173.47645,14.542937 z " id="path12891" style="fill:#000000;fill-opacity:0.090624996;fill-rule:evenodd;stroke:none;stroke-width:1.0000000pt;stroke-linecap:butt;stroke-linejoin:miter;stroke-opacity:1.0000000;"/>
  <path d="M 213.46953,67.001385 L 206.71745,71.675900 L 194.77147,74.792244 L 183.34488,75.831025 L 191.65512,77.389197 L 195.29086,78.427978 L 193.21330,79.466759 L 198.92659,80.505540 L 207.75623,78.427978 L 213.46953,75.311634 L 215.02770,73.753462 L 213.46953,67.001385 z " id="path13513" style="fill:#000000;fill-opacity:0.093750000;fill-rule:evenodd;stroke:none;stroke-width:1.0000000pt;stroke-linecap:butt;stroke-linejoin:miter;stroke-opacity:1.0000000;"/>
  <path d="M 271.12188,101.18421 L 258.65651,125.07618 L 264.88919,119.36288 L 269.56371,111.05263 L 271.12188,101.18421 z " id="path15378" style="fill:#000000;fill-opacity:0.30312499;fill-rule:evenodd;stroke:none;stroke-width:1.0000000pt;stroke-linecap:butt;stroke-linejoin:miter;stroke-opacity:1.0000000;"/>
  <path d="M 230.60942,60.768698 L 233.72576,58.171745 L 236.84210,53.497230 L 237.88088,49.342105 L 237.36149,55.574792 L 234.76454,60.249308 L 239.43906,57.132964 L 241.51662,52.458449 L 240.99723,57.652355 L 235.80332,61.807479 L 242.03601,58.691136 L 244.63296,49.861496 L 240.99723,40.512466 L 246.19113,50.900277 L 244.63296,58.171745 L 237.88088,62.846261 L 231.12881,64.404432 L 238.91967,65.443214 L 246.71052,66.481995 L 253.46260,62.326870 L 246.19113,68.040166 L 238.91967,68.559557 L 229.05124,65.443214 L 230.60942,60.768698 z " id="path16626" style="fill:#000000;fill-opacity:0.37187496;fill-rule:evenodd;stroke:none;stroke-width:1.0000000pt;stroke-linecap:butt;stroke-linejoin:miter;stroke-opacity:1.0000000;"/>
  <path d="M 239.12927,70.040275 C 243.50842,71.180477 249.84140,71.097978 254.75513,69.173662 C 259.14489,67.922739 263.57313,66.800356 268.04631,65.888461 C 264.55217,68.123229 263.72018,68.111163 261.99594,69.041892 C 256.66466,70.657938 251.94916,72.601290 246.26602,72.658995 C 243.42698,72.113919 239.47518,72.025963 239.12927,70.040275 z " id="path17248" sodipodi:nodetypes="cccccc" style="fill:#000000;fill-opacity:0.37812498;fill-rule:evenodd;stroke:none;stroke-width:1.0000000pt;stroke-linecap:butt;stroke-linejoin:miter;stroke-opacity:1.0000000;"/>
  <path d="M 276.83517,60.768700 C 274.49451,62.882401 273.63581,63.918870 269.59901,68.157809 C 268.27424,68.834055 266.56149,68.935933 264.28638,69.870715 C 263.23568,70.397827 260.48779,70.676329 260.51650,71.361563 C 262.67172,71.449699 266.94081,70.774392 269.16579,70.841522 C 269.85319,70.860040 271.48891,69.091077 272.84670,67.174112 C 274.24460,65.082406 275.54617,62.928557 276.83517,60.768700 z " id="path17876" sodipodi:nodetypes="ccccccc" style="fill:#000000;fill-opacity:0.28749999;fill-rule:evenodd;stroke:none;stroke-width:1.0000000pt;stroke-linecap:butt;stroke-linejoin:miter;stroke-opacity:1.0000000;"/>
  <path d="M 254.19158,72.714684 C 257.22266,73.125421 260.29697,73.409252 263.29698,73.912490 C 264.76323,74.205739 266.22949,74.498992 267.69575,74.792243 C 266.13757,75.138503 264.57940,75.484767 263.02122,75.831026 C 261.11679,75.484765 259.21236,75.138505 257.30793,74.792243 C 256.26915,74.099723 255.23036,73.407201 254.19158,72.714684 z " id="path18509" style="fill:#000000;fill-opacity:0.19062497;fill-rule:evenodd;stroke:none;stroke-width:1.0000000pt;stroke-linecap:butt;stroke-linejoin:miter;stroke-opacity:1.0000000;"/>
  <path d="M 255.88427,85.970104 L 258.97786,88.179813 L 266.93281,83.318454 L 270.02640,81.108745 L 268.25864,87.295929 L 262.07145,94.366997 L 256.76815,96.576706 L 258.97786,97.902529 L 251.90679,106.29943 L 261.18757,99.228363 L 267.81669,93.925055 L 266.49087,100.11224 L 260.30369,113.81243 L 255.00038,125.30292 L 259.86174,119.11574 L 267.81669,106.29943 L 270.02640,105.41554 L 261.62951,121.32544 L 256.76815,127.07069 L 254.55844,129.72234 L 252.34873,136.79341 L 258.53592,134.58370 L 265.16504,134.14175 L 266.93281,133.25787 L 266.93281,122.20933 L 268.25864,116.46409 L 270.46835,99.670303 L 273.56194,85.970104 L 275.77165,73.153794 L 270.46835,78.457095 L 262.07145,83.318454 L 255.88427,85.970104 z " id="path22278" style="fill:#000000;fill-opacity:0.090624996;fill-rule:evenodd;stroke:none;stroke-width:1.0000000pt;stroke-linecap:butt;stroke-linejoin:miter;stroke-opacity:1.0000000;"/>
  <path d="M 274.44583,68.292435 C 272.38490,71.735973 269.91175,75.104128 266.40711,77.193707 C 261.90882,80.415490 256.75040,82.566634 251.52087,84.289463 C 252.63587,85.330542 254.36058,84.520775 255.69588,84.480614 C 259.76057,83.661617 263.41517,81.511736 266.58996,78.908648 C 269.07376,77.165103 272.07893,75.931806 273.82559,73.324627 C 274.53197,71.734881 274.12689,69.955628 274.44583,68.292435 z " id="path19135" style="fill:#000000;fill-opacity:0.18749996;fill-rule:evenodd;stroke:none;stroke-width:1.0000000pt;stroke-linecap:butt;stroke-linejoin:miter;stroke-opacity:1.0000000;"/>
  <path d="M 243.95184,78.015152 L 246.16155,77.573210 L 246.16155,76.247385 L 252.34873,79.340977 L 250.13902,81.992627 L 244.83572,82.876511 L 243.06796,83.760394 L 243.95184,78.015152 z " id="path19766" style="fill:#000000;fill-opacity:0.49999997;fill-rule:evenodd;stroke:none;stroke-width:1.0000000pt;stroke-linecap:butt;stroke-linejoin:miter;stroke-opacity:1.0000000;"/>
  <path d="M 234.22914,32.943307 C 242.77944,34.926112 252.24383,38.090987 257.41146,46.585113 C 261.79660,55.585383 255.33612,64.251061 249.46267,69.589630 C 254.90733,66.289551 259.67860,64.046775 260.50687,57.063603 C 262.52163,50.269649 259.70666,41.691895 253.00994,38.842880 C 246.76771,34.714799 241.50428,32.493132 234.22914,32.943307 z " id="path20388" sodipodi:nodetypes="cccccc" style="fill:#000000;fill-opacity:0.10625000;fill-rule:evenodd;stroke:none;stroke-width:1.0000000pt;stroke-linecap:butt;stroke-linejoin:miter;stroke-opacity:1.0000000;"/>
  <path d="M 213.89981,25.866027 L 220.90774,34.209025 L 228.38287,48.577522 L 229.31726,63.873017 L 230.25165,46.260022 L 223.71091,34.672526 L 217.63737,27.720027 L 213.89981,25.866027 z " id="path22900" style="fill:#000000;fill-opacity:0.17499997;fill-rule:evenodd;stroke:none;stroke-width:1.0000000pt;stroke-linecap:butt;stroke-linejoin:miter;stroke-opacity:1.0000000;"/>
  <path d="M 229.36776,36.030687 L 230.69359,42.217871 L 231.57747,51.940589 L 230.69359,59.453599 L 232.90330,47.079230 L 231.57747,37.356512 L 229.36776,36.030687 z " id="path23522" style="fill:#000000;fill-opacity:0.12812497;fill-rule:evenodd;stroke:none;stroke-width:1.0000000pt;stroke-linecap:butt;stroke-linejoin:miter;stroke-opacity:1.0000000;"/>
  <path d="M 241.30019,72.711851 L 243.06796,77.131268 L 245.71961,77.131268 L 246.16155,75.363501 L 251.02291,78.899035 L 247.04543,73.153793 L 241.30019,72.711851 z " id="path24765" style="fill:#000000;fill-opacity:0.15937500;fill-rule:evenodd;stroke:none;stroke-width:1.0000000pt;stroke-linecap:butt;stroke-linejoin:miter;stroke-opacity:1.0000000;"/>
  <path d="M 252.79067,79.340977 L 250.13902,82.434569 L 248.37126,83.318453 L 251.90679,84.202336 L 256.32621,82.434569 L 252.79067,79.340977 z " id="path25387" style="fill:#000000;fill-opacity:0.10937500;fill-rule:evenodd;stroke:none;stroke-width:1.0000000pt;stroke-linecap:butt;stroke-linejoin:miter;stroke-opacity:1.0000000;"/>
  <path d="M 233.34524,64.314958 L 237.32271,63.873016 L 246.60349,59.011657 L 252.79067,59.011657 L 257.21009,59.011657 L 253.23262,62.989133 L 249.69708,66.524666 L 244.83572,66.524666 L 233.34524,64.314958 z " id="path26009" style="fill:#000000;fill-opacity:0.093749948;fill-rule:evenodd;stroke:none;stroke-width:1.0000000pt;stroke-linecap:butt;stroke-linejoin:miter;stroke-opacity:1.0000000;"/>
  <path d="M 252.79067,73.595734 L 257.65203,77.573210 L 263.83922,77.131268 L 252.79067,73.595734 z " id="path26631" style="fill:#000000;fill-opacity:0.062499944;fill-rule:evenodd;stroke:none;stroke-width:1.0000000pt;stroke-linecap:butt;stroke-linejoin:miter;stroke-opacity:1.0000000;"/>
  <path d="M 240.85825,92.599228 C 239.15395,104.75155 237.44016,116.90692 235.25319,128.98376 C 235.47921,131.48407 234.18727,136.07621 238.10829,136.04231 C 239.92874,136.29570 243.72063,138.00709 244.32629,137.01277 C 241.62330,134.97670 241.53976,131.61519 243.12623,128.88824 C 244.05135,125.06919 241.58630,121.43261 242.43954,117.59723 C 242.69211,114.26579 243.57076,110.94323 243.32849,107.59680 C 242.21053,104.13976 241.23778,100.37126 242.59351,96.821090 C 243.16821,95.081403 243.04782,92.986344 240.85825,92.599228 z " id="path26632" style="fill:#000000;fill-opacity:0.11874998;fill-rule:evenodd;stroke:none;stroke-width:1.0000000pt;stroke-linecap:butt;stroke-linejoin:miter;stroke-opacity:1.0000000;"/>
  <path d="M 116.23068,117.34796 C 130.29671,114.85075 144.92121,119.44320 156.31066,127.73460 C 159.71453,130.29406 163.25174,132.95026 165.28621,136.79340" id="path27879" style="fill:none;fill-opacity:1.0000000;fill-rule:evenodd;stroke:#000000;stroke-width:1.0000000pt;stroke-linecap:butt;stroke-linejoin:miter;stroke-opacity:0.11562497;"/>
  <path d="M 154.67961,108.06719 C 152.36749,110.73911 149.56455,113.06130 147.93755,116.25833 C 146.94399,117.94736 145.95044,119.63640 144.95689,121.32544" id="path28512" style="fill:none;fill-opacity:0.75000000;fill-rule:evenodd;stroke:#000000;stroke-width:1.0000000pt;stroke-linecap:butt;stroke-linejoin:miter;stroke-opacity:0.084374972;"/>
  <path d="M 116.23068,123.09321 C 125.09727,129.70239 133.89020,136.47183 143.45497,142.06050 C 149.67422,144.33257 158.25435,139.72800 163.09561,144.74819 C 162.41819,148.35728 158.00872,142.76352 155.14427,143.92958 C 152.34742,143.55133 149.52517,143.74757 153.82445,144.49171 C 157.49612,144.82545 157.14273,148.14411 153.50320,146.29026 C 148.27884,145.16138 142.74775,144.96094 138.46101,141.30948 C 132.48130,138.85557 127.85898,134.86755 123.39262,130.44955 C 120.60439,128.42739 119.14660,126.42472 116.23068,123.09321 z " id="path29142" sodipodi:nodetypes="ccccccccc" style="fill:#000000;fill-opacity:0.29374996;fill-rule:evenodd;stroke:none;stroke-width:1.0000000pt;stroke-linecap:butt;stroke-linejoin:miter;stroke-opacity:1.0000000;"/>
  <path d="M 137.44388,86.853986 L 139.21165,96.576704 L 145.39884,105.41554 L 148.93437,109.83496 L 153.79573,114.25437 L 157.33126,121.32544 L 158.65709,124.41903 L 157.33126,125.74486 L 154.67961,125.74486 L 163.96039,134.14175 L 162.63456,127.07068 L 160.42485,118.67379 L 160.86680,116.46408 L 157.33126,112.04467 L 155.12155,108.06719 L 150.70214,100.11224 L 148.49243,94.808937 L 141.86330,89.505636 L 137.44388,86.853986 z " id="path30391" style="fill:#000000;fill-opacity:0.10937495;fill-rule:evenodd;stroke:none;stroke-width:1.0000000pt;stroke-linecap:butt;stroke-linejoin:miter;stroke-opacity:1.0000000;"/>
  <path d="M 142.30525,91.273404 L 144.90667,97.069362 L 150.10953,105.03880 L 155.68402,111.19701 L 158.65708,113.37049 L 152.71096,104.67655 L 150.48117,99.967334 L 149.36626,95.982620 L 149.73790,94.533630 L 142.30525,91.273404 z " id="path31013" sodipodi:nodetypes="cccccccccc" style="fill:#000000;fill-opacity:0.28437498;fill-rule:evenodd;stroke:none;stroke-width:1.0000000pt;stroke-linecap:butt;stroke-linejoin:miter;stroke-opacity:1.0000000;"/>
  <path d="M 130.37281,74.921559 L 125.95339,82.876511 L 124.62757,93.041171 L 121.97592,104.53165 L 119.76621,116.90602 L 119.76621,121.32544 L 123.30174,131.04816 L 125.95339,141.65476 L 127.72116,146.07418 L 122.41786,137.23534 L 119.76621,130.16427 L 118.88232,125.74486 L 117.11456,119.55767 L 117.11456,111.16078 C 117.11456,111.16078 118.44038,96.134763 118.88232,93.925054 C 119.32427,91.715345 121.53397,78.899035 121.53397,78.899035 L 124.62757,69.618258 L 129.04698,62.989132 L 131.69863,59.895540 L 129.93087,66.524666 L 130.37281,74.921559 z " id="path31635" style="fill:#ffffff;fill-opacity:0.25312498;fill-rule:evenodd;stroke:none;stroke-width:1.0000000pt;stroke-linecap:butt;stroke-linejoin:miter;stroke-opacity:1.0000000;"/>
  <path d="M 118.44039,127.51262 L 123.74369,139.88699 L 129.93088,149.16777 L 137.00194,155.79690 L 146.28272,158.89049 L 152.91185,158.89049 L 142.30524,159.33243 L 133.90835,156.23884 L 126.83728,148.72583 L 121.53398,140.32893 L 118.44039,131.93204 L 117.55651,129.72233 L 118.44039,127.51262 z " id="path32257" style="fill:#000000;fill-opacity:0.15937497;fill-rule:evenodd;stroke:none;stroke-width:1.0000000pt;stroke-linecap:butt;stroke-linejoin:miter;stroke-opacity:1.0000000;"/>
  <path d="M 159.09902,155.79690 L 155.56349,158.89049 L 150.26019,160.65826 L 145.39883,161.54214 L 141.86330,161.10020 L 150.70213,159.77437 L 152.91184,158.00661 L 147.60854,158.00661 L 144.07301,155.79690 L 139.21165,153.14525 L 148.49242,156.68078 L 154.23767,156.68078 L 149.81825,154.91301 L 145.84077,152.70330 L 145.39883,151.81942 L 149.81825,154.02913 L 154.67961,154.47107 L 156.88932,154.02913 L 155.56349,150.49360 L 149.81825,147.40000 L 155.56349,149.60971 L 157.77320,149.16777 L 159.54097,147.84195 L 158.21514,146.95806 L 152.91184,146.51612 L 150.26019,144.74835 L 155.56349,145.63224 L 157.77320,145.63224 L 156.44737,142.53864 L 159.54097,143.42253 L 161.75067,146.07418 L 160.42485,149.16777 L 158.21514,152.70330 L 159.09902,155.79690 z " id="path32879" style="fill:#000000;fill-opacity:0.15624996;fill-rule:evenodd;stroke:none;stroke-width:1.0000000pt;stroke-linecap:butt;stroke-linejoin:miter;stroke-opacity:1.0000000;"/>
  <path d="M 117.11456,157.12273 C 119.76621,160.21632 122.41786,163.30991 125.06951,166.40350 C 128.51526,167.65860 131.88626,169.11921 135.38179,170.23641 C 137.92878,170.67905 140.99446,167.80603 142.46162,167.74786 C 141.45244,169.33388 139.20855,171.14511 140.35317,172.94396 C 137.11760,172.49025 133.62786,172.54860 130.79598,170.66283 C 127.82521,169.35953 124.86367,167.95561 122.38537,165.82676 C 120.09208,163.99425 117.45321,161.73039 117.10869,158.65021 C 117.08729,158.14110 117.11010,157.63185 117.11456,157.12273 z " id="path33501" style="fill:#000000;fill-opacity:0.14999999;fill-rule:evenodd;stroke:none;stroke-width:1.0000000pt;stroke-linecap:butt;stroke-linejoin:miter;stroke-opacity:1.0000000;"/>
  <path d="M 144.07301,166.40350 L 146.72466,162.86797 L 148.49243,159.77437 L 151.14408,160.65826 L 153.79573,159.77437 L 156.44738,158.00661 L 156.00544,161.54214 L 156.88932,164.19379 L 152.91184,168.17127 L 147.60854,171.26486 L 142.74718,174.35845 L 137.88583,172.14874 L 142.74718,168.61321 L 144.07301,166.40350 z " id="path34128" style="fill:#000000;fill-opacity:0.068749972;fill-rule:evenodd;stroke:none;stroke-width:1.0000000pt;stroke-linecap:butt;stroke-linejoin:miter;stroke-opacity:1.0000000;"/>
  <path d="M 160.86679,155.35497 C 157.52467,159.45748 160.99076,165.43310 157.49821,169.62293 C 154.69070,174.55807 149.08887,177.44271 143.45186,177.04012 C 139.30208,176.37070 132.34947,179.90771 140.11644,179.58451 C 143.77062,179.14456 147.76798,180.63676 151.17816,178.94427 C 155.48024,174.76630 160.37909,170.32761 161.83306,164.29267 C 162.04744,161.31450 162.87310,157.94082 160.86679,155.35497 z " id="path34750" style="fill:#000000;fill-opacity:0.26874998;fill-rule:evenodd;stroke:none;stroke-width:1.0000000pt;stroke-linecap:butt;stroke-linejoin:miter;stroke-opacity:1.0000000;"/>
  <path d="M 148.93437,180.10370 C 146.66624,181.90362 144.07830,183.25558 141.17447,183.48570 C 138.56310,183.80111 136.36132,182.06137 134.01885,181.22288 C 131.58196,180.69592 130.66343,176.17385 133.99443,176.67719 C 136.79312,177.27355 139.66927,177.32581 142.50144,177.78480 C 144.05275,178.18275 140.26787,178.23988 139.49545,178.39627 C 137.64781,178.20622 136.21447,179.72678 138.78705,179.84073 C 141.16556,179.55649 143.49690,180.08720 145.87025,180.07056 C 147.68995,179.46607 146.91967,176.40557 149.47162,176.26726 C 150.93767,176.14961 153.75199,173.82867 154.26385,174.42047 C 152.43559,176.26297 150.71800,178.21685 148.93437,180.10370 z " id="path35375" style="fill:#000000;fill-opacity:0.099999972;fill-rule:evenodd;stroke:none;stroke-width:1.0000000pt;stroke-linecap:butt;stroke-linejoin:miter;stroke-opacity:1.0000000;"/>
  <path d="M 163.96039,158.89049 L 163.07651,167.28738 L 161.75068,171.70680 L 163.96039,179.21981 L 167.49593,186.73282 L 165.72816,196.89748 L 166.61204,201.75883 L 169.26369,193.80388 L 171.03146,191.59418 L 171.47340,179.66175 L 168.37981,170.82291 L 167.49593,164.63573 L 163.96039,158.89049 z " id="path36003" style="fill:#000000;fill-opacity:0.11562497;fill-rule:evenodd;stroke:none;stroke-width:1.0000000pt;stroke-linecap:butt;stroke-linejoin:miter;stroke-opacity:1.0000000;"/>
  <path d="M 167.49592,165.51962 L 166.61204,172.14874 L 165.72815,177.45204 L 168.37980,172.14874 L 167.49592,165.51962 z " id="path36625" style="fill:#000000;fill-opacity:0.28125000;fill-rule:evenodd;stroke:none;stroke-width:1.0000000pt;stroke-linecap:butt;stroke-linejoin:miter;stroke-opacity:1.0000000;"/>
  <path d="M 171.47340,178.77787 L 168.82175,185.40700 L 167.93786,193.36195 L 168.37981,198.66525 L 171.03146,189.82641 L 172.35728,187.61670 L 171.47340,178.77787 z " id="path37247" style="fill:#000000;fill-opacity:0.13437499;fill-rule:evenodd;stroke:none;stroke-width:1.0000000pt;stroke-linecap:butt;stroke-linejoin:miter;stroke-opacity:1.0000000;"/>
  <path d="M 175.89282,200.87495 L 172.79922,204.85243 L 172.79922,210.15573 L 172.35728,212.80738 L 177.66058,207.94602 L 179.42835,204.85243 L 186.05748,212.80738 L 187.38330,209.27185 L 175.89282,200.87495 z " id="path37869" style="fill:#000000;fill-opacity:0.36562499;fill-rule:evenodd;stroke:none;stroke-width:1.0000000pt;stroke-linecap:butt;stroke-linejoin:miter;stroke-opacity:1.0000000;"/>
  <path d="M 172.79922,206.17825 C 171.80706,208.84562 167.38236,211.42736 168.80244,214.27148 C 170.06630,214.15793 171.93674,210.73870 170.66505,213.69738 C 170.03095,217.66538 166.67246,219.73168 162.86322,219.38362 C 161.09897,219.81759 156.50551,219.98234 156.54253,220.48114 C 159.89690,222.13968 163.62052,222.97166 167.19989,221.47207 C 171.16689,220.21140 174.93005,217.96080 177.17638,214.36127 C 178.18335,212.65535 180.57810,209.93937 179.94479,213.74191 C 179.68186,217.10773 177.16576,219.90922 174.70728,222.01857 C 171.48247,224.14456 168.23254,226.55715 164.53501,227.69878 C 161.15744,227.76571 157.73114,227.59497 154.39612,227.14225 C 153.02762,226.56709 149.10795,225.76361 152.26732,227.48412 C 157.08141,230.74401 161.82458,234.15542 166.04883,238.16626 C 170.01085,238.52024 172.41669,234.34064 175.50097,232.50215 C 178.79391,229.30387 181.76174,225.79606 184.87348,222.42635 C 185.16067,218.73384 187.38580,213.77476 184.48052,210.84109 C 182.29502,209.11704 179.78016,204.23050 176.64171,206.16817 C 175.08009,208.11054 173.17950,210.59040 172.79922,206.17825 z " id="path38491" style="fill:#000000;fill-opacity:0.13437499;fill-rule:evenodd;stroke:none;stroke-width:1.0000000pt;stroke-linecap:butt;stroke-linejoin:miter;stroke-opacity:1.0000000;"/>
  <path d="M 178.10252,211.48155 L 174.12504,218.11068 L 171.03145,221.20427 L 166.61203,222.53010 L 160.86679,222.08815 L 164.84427,219.43650 L 171.03145,217.22680 L 178.10252,211.48155 z " id="path39117" style="fill:#000000;fill-opacity:0.13124998;fill-rule:evenodd;stroke:none;stroke-width:1.0000000pt;stroke-linecap:butt;stroke-linejoin:miter;stroke-opacity:1.0000000;"/>
  <path d="M 164.84427,230.48506 L 161.75068,230.48506 L 159.98291,231.36894 L 161.75068,232.69476 L 163.07650,234.46253 L 164.84427,234.90447 L 165.28621,236.67224 L 167.49592,236.23030 L 169.26369,233.13671 L 167.49592,232.25282 L 166.17009,232.69476 L 167.05398,231.36894 L 164.84427,230.48506 z " id="path39739" style="fill:#000000;fill-opacity:0.28437498;fill-rule:evenodd;stroke:none;stroke-width:1.0000000pt;stroke-linecap:butt;stroke-linejoin:miter;stroke-opacity:1.0000000;"/>
  <path d="M 118.44039,135.90952 L 119.32427,142.53865 L 123.74369,151.81942 L 133.46641,158.00661 L 144.51495,161.54214 L 155.12155,160.21631 L 144.51495,159.33243 L 134.79223,155.79690 L 126.39534,148.72583 L 121.09204,138.56117 L 118.44039,131.49010 L 118.44039,135.90952 z " id="path40361" style="fill:#ffffff;fill-opacity:0.20937499;fill-rule:evenodd;stroke:none;stroke-width:1.0000000pt;stroke-linecap:butt;stroke-linejoin:miter;stroke-opacity:1.0000000;"/>
  <path d="M 116.67262,142.53865 L 120.20815,150.05166 L 121.09204,156.23884 L 117.55650,151.81942 L 116.23068,146.51612 L 116.67262,142.53865 z " id="path40983" style="fill:#000000;fill-opacity:0.24374999;fill-rule:evenodd;stroke:none;stroke-width:1.0000000pt;stroke-linecap:butt;stroke-linejoin:miter;stroke-opacity:1.0000000;"/>
  <path d="M 166.61204,127.07068 L 167.49592,132.81593 L 166.17010,137.23534 L 164.84427,139.44505 L 164.40233,142.98059 L 162.19262,147.40000 L 158.21514,150.49359 L 159.54097,151.37748 L 158.21514,154.47107 L 160.86679,153.58719 L 162.19262,156.23884 L 160.86679,158.00660 L 162.19262,161.54214 L 163.51844,158.44855 L 164.40233,160.65825 L 168.82175,157.56466 L 173.68310,156.23884 L 177.66058,156.23884 L 173.24116,154.02913 L 167.49592,152.70330 L 169.70563,151.81942 L 176.33476,152.70330 L 183.40582,155.79690 L 187.82524,156.23884 L 194.01242,156.23884 L 196.66407,154.91301 L 192.68660,150.05165 L 183.84776,140.77088 L 180.31223,136.79340 L 175.45087,128.83845 L 172.35728,124.41903 L 171.03145,124.41903 L 176.77670,134.58369 L 180.31223,143.86447 L 184.28971,148.72583 L 187.38330,151.37748 L 181.63806,152.26136 L 177.21864,150.93554 L 170.14757,148.72583 L 171.91534,142.53864 L 172.35728,135.46758 L 171.03145,129.72233 L 168.82175,126.62874 L 166.61204,127.07068 z " id="path41606" sodipodi:nodetypes="cccccccccccccccccccccccccccccccccccccccccccc" style="fill:#000000;fill-opacity:0.43437496;fill-rule:evenodd;stroke:none;stroke-width:1.0000000pt;stroke-linecap:butt;stroke-linejoin:miter;stroke-opacity:1.0000000;"/>
  <path d="M 169.70563,127.51262 L 171.91533,133.69981 L 172.35728,142.53864 L 170.14757,148.28389 L 178.98640,151.81942 L 184.28970,151.81942 L 179.87029,149.16777 L 177.21864,144.30641 L 175.00893,138.11923 L 172.35728,131.04816 L 169.70563,127.51262 z " id="path42228" style="fill:#000000;fill-opacity:0.21249999;fill-rule:evenodd;stroke:none;stroke-width:1.0000000pt;stroke-linecap:butt;stroke-linejoin:miter;stroke-opacity:1.0000000;"/>
  <path d="M 163.51844,128.39651 L 163.51844,133.69981 L 165.72815,137.67729 L 168.82174,131.93204 L 166.61204,126.62874 L 163.51844,128.39651 z " id="path42850" style="fill:#000000;fill-opacity:0.21562500;fill-rule:evenodd;stroke:none;stroke-width:1.0000000pt;stroke-linecap:butt;stroke-linejoin:miter;stroke-opacity:1.0000000;"/>
  <path d="M 185.17359,156.23884 L 189.59301,158.44855 L 192.24466,160.21631 L 195.78019,161.10020 L 197.54796,158.89049 L 196.66408,156.23884 L 195.78019,154.02913 L 185.17359,156.23884 z " id="path43472" style="fill:#000000;fill-opacity:0.30312499;fill-rule:evenodd;stroke:none;stroke-width:1.0000000pt;stroke-linecap:butt;stroke-linejoin:miter;stroke-opacity:1.0000000;"/>
  <path d="M 167.93786,152.42001 L 173.31802,152.42001 L 182.28496,155.59292 L 187.66512,158.76584 L 192.14859,161.93876 L 195.73536,161.93876 L 197.08040,158.31256 L 194.83867,152.42001 L 185.42338,136.10216 L 180.93991,129.75634 L 181.83661,128.39651 L 186.32007,133.38252 L 193.04528,144.71436 L 198.42544,156.04620 L 198.87378,161.93876 L 195.28701,163.75185 L 189.90685,161.93876 L 183.18165,158.31256 L 174.66306,155.13965 L 167.93786,152.42001 z " id="path44716" style="fill:#ffffff;fill-opacity:0.40937498;fill-rule:evenodd;stroke:none;stroke-width:1.0000000pt;stroke-linecap:butt;stroke-linejoin:miter;stroke-opacity:1.0000000;"/>
  <path d="M 174.56699,123.97709 L 180.75417,129.72234 L 179.42835,131.04816 L 174.12505,126.62874 L 174.56699,123.97709 z " id="path45338" style="fill:#000000;fill-opacity:0.18749996;fill-rule:evenodd;stroke:none;stroke-width:1.0000000pt;stroke-linecap:butt;stroke-linejoin:miter;stroke-opacity:1.0000000;"/>
  <path d="M 182.08000,127.51263 L 190.47689,137.23534 L 191.36077,135.02564 L 184.73165,126.18680 L 182.08000,127.51263 z " id="path45960" style="fill:#000000;fill-opacity:0.20000000;fill-rule:evenodd;stroke:none;stroke-width:1.0000000pt;stroke-linecap:butt;stroke-linejoin:miter;stroke-opacity:1.0000000;"/>
  <path d="M 233.34524,89.947578 L 229.80971,105.41554 L 225.39029,120.88350 L 228.48389,119.99961 L 234.22913,111.60272 L 236.88078,108.95107 L 233.34524,110.27690 L 232.01942,104.08971 L 234.22913,94.366996 L 235.99689,90.831462 L 224.94835,81.108744 L 223.62253,85.086219 L 233.34524,89.947578 z " id="path46582" sodipodi:nodetypes="ccccccccccccc" style="fill:#000000;fill-opacity:0.29374996;fill-rule:evenodd;stroke:none;stroke-width:1.0000000pt;stroke-linecap:butt;stroke-linejoin:miter;stroke-opacity:1.0000000;"/>
  <path d="M 228.92582,117.78990 L 230.25164,113.81243 L 233.78718,110.71883 L 236.43883,108.95107 L 239.53242,106.74136 L 239.53242,112.04466 L 236.43883,117.78990 L 230.25164,126.62874 L 228.92582,117.78990 z " id="path47825" sodipodi:nodetypes="ccccccccc" style="fill:#000000;fill-opacity:0.44374999;fill-rule:evenodd;stroke:none;stroke-width:1.0000000pt;stroke-linecap:butt;stroke-linejoin:miter;stroke-opacity:1.0000000;"/>
  <path d="M 237.76466,114.69632 L 232.46135,122.20933 L 230.69359,125.74486 L 232.46135,127.51263 L 235.55495,127.51263 L 236.43883,120.44156 L 237.76466,114.69632 z " id="path48447" style="fill:#ffffff;fill-opacity:0.35624999;fill-rule:evenodd;stroke:none;stroke-width:1.0000000pt;stroke-linecap:butt;stroke-linejoin:miter;stroke-opacity:1.0000000;"/>
  <path d="M 231.13553,125.74486 L 231.13553,125.74486" id="path49069" style="fill:none;fill-opacity:0.75000000;fill-rule:evenodd;stroke:#000000;stroke-width:1.0000000pt;stroke-linecap:butt;stroke-linejoin:miter;stroke-opacity:1.0000000;"/>
  <path d="M 235.55495,127.51263 L 234.67106,133.25787 L 237.76466,135.02564 L 233.78718,139.44505 L 230.69359,133.25787 L 230.69359,128.83845 L 230.69359,125.74486 L 235.55495,127.51263 z " id="path49070" style="fill:#000000;fill-opacity:0.093749948;fill-rule:evenodd;stroke:none;stroke-width:1.0000000pt;stroke-linecap:butt;stroke-linejoin:miter;stroke-opacity:1.0000000;"/>
  <path d="M 235.99689,92.157287 L 233.34524,99.228355 L 232.90330,104.08971 L 233.78718,109.39302 L 237.76466,108.06719 L 236.43883,104.08971 L 236.43883,97.018646 L 235.99689,92.157287 z " id="path49692" style="fill:#000000;fill-opacity:0.10312500;fill-rule:evenodd;stroke:none;stroke-width:1.0000000pt;stroke-linecap:butt;stroke-linejoin:miter;stroke-opacity:1.0000000;"/>
  <path d="M 222.29670,85.970103 L 216.99340,91.715346 L 217.43534,94.366996 L 213.45786,98.786414 L 209.92233,99.228355 L 210.80621,105.41554 L 208.15456,109.83496 L 208.15456,113.81243 L 207.27068,118.67379 L 218.31922,116.90602 L 224.50640,119.99962 L 232.90330,92.599229 L 233.78718,91.715346 L 227.15806,87.295928 L 222.29670,85.970103 z " id="path50314" style="fill:#000000;fill-opacity:0.074999996;fill-rule:evenodd;stroke:none;stroke-width:1.0000000pt;stroke-linecap:butt;stroke-linejoin:miter;stroke-opacity:1.0000000;"/>
  <path d="M 207.27067,121.32544 L 213.45786,118.67379 L 220.08698,118.23185 L 213.89980,122.20933 L 210.80621,126.62874 L 216.55145,124.41903 L 221.85475,121.76738 L 225.39028,121.76738 L 226.27417,122.65127 L 229.80970,121.76738 L 230.25164,125.74486 L 225.39028,125.74486 L 220.97087,126.62874 L 225.39028,128.39651 L 229.36776,127.51263 L 229.36776,131.04816 L 230.25164,137.23534 L 232.46135,143.42253 L 230.69359,146.51612 L 230.69359,152.26136 L 224.50640,158.44855 L 219.64504,161.54214 L 211.69009,157.12272 L 208.59650,158.00661 L 203.73514,156.68078 L 201.52543,154.47107 L 194.89630,144.30641 L 201.08349,139.00311 L 203.73514,135.90952 L 205.06096,132.37399 L 205.50291,127.95457 L 207.27067,121.32544 z " id="path50936" style="fill:#000000;fill-opacity:0.096874960;fill-rule:evenodd;stroke:none;stroke-width:1.0000000pt;stroke-linecap:butt;stroke-linejoin:miter;stroke-opacity:1.0000000;"/>
  <path d="M 197.54796,146.95806 L 205.06097,150.93553 L 216.99340,154.91301 L 222.73864,160.21631" id="path51558" sodipodi:nodetypes="cccc" style="fill:none;fill-opacity:0.75000000;fill-rule:evenodd;stroke:#000000;stroke-width:1.0000000pt;stroke-linecap:butt;stroke-linejoin:miter;stroke-opacity:0.13124998;"/>
  <path d="M 217.43533,115.58020 L 210.36427,118.67380 L 208.15456,119.55768 L 206.82873,121.32545 L 205.50291,125.30292 L 205.06096,131.93205 L 208.59650,124.86098 L 212.57397,120.44156 L 217.43533,115.58020 z " id="path52180" style="fill:#000000;fill-opacity:0.47812501;fill-rule:evenodd;stroke:none;stroke-width:1.0000000pt;stroke-linecap:butt;stroke-linejoin:miter;stroke-opacity:1.0000000;"/>
  <path d="M 226.27417,121.76739 C 224.50640,121.76739 219.20310,123.97710 219.20310,123.97710 L 214.34174,127.51263 L 213.01592,129.28040 L 216.99339,130.16428 L 210.80621,133.25788 L 204.17708,135.46758 L 201.52543,139.88700 L 198.87378,142.98059 L 205.94485,138.56118 L 214.78368,134.58370 L 218.31922,130.60622 L 217.43534,128.83846 L 224.50640,127.07069 L 226.27417,124.86098 L 226.27417,121.76739 z " id="path53423" style="fill:#000000;fill-opacity:0.17499997;fill-rule:evenodd;stroke:none;stroke-width:1.0000000pt;stroke-linecap:butt;stroke-linejoin:miter;stroke-opacity:1.0000000;"/>
  <path d="M 200.19961,139.00311 L 200.64155,135.02563 L 197.98990,133.69981 L 194.01243,131.93204 L 192.68660,130.60621 L 193.12854,127.95456 L 196.22214,122.65126 L 189.59301,122.20932 L 188.26719,122.20932 L 192.68660,123.97709 L 186.94136,126.62874 L 191.36078,131.04816 L 195.33825,135.90952 L 200.19961,139.00311 z " id="path54045" style="fill:#000000;fill-opacity:0.30312499;fill-rule:evenodd;stroke:none;stroke-width:1.0000000pt;stroke-linecap:butt;stroke-linejoin:miter;stroke-opacity:1.0000000;"/>
  <path d="M 163.07650,117.34797 L 166.17010,123.09321 L 167.93786,124.41904 L 175.00893,119.99962 L 179.42835,123.97709 L 187.82524,123.09321 L 193.57048,121.76739 L 195.33825,121.32544 L 187.82524,119.99962 L 181.19612,115.13826 L 179.42835,112.92855 L 175.45087,116.46408 L 169.70563,118.23185 L 165.28621,117.78991 L 163.07650,117.34797 z " id="path54667" style="fill:#000000;fill-opacity:0.11874998;fill-rule:evenodd;stroke:none;stroke-width:1.0000000pt;stroke-linecap:butt;stroke-linejoin:miter;stroke-opacity:1.0000000;"/>
  <path d="M 209.39199,97.018646 L 209.92232,103.63439 L 206.74033,109.23232 L 203.55835,112.79464 L 201.96737,113.81244 L 201.96737,105.16110 L 203.02803,101.59878 L 203.02803,99.563158 L 209.39199,97.018646 z " id="path55289" style="fill:#000000;fill-opacity:0.15937497;fill-rule:evenodd;stroke:none;stroke-width:1.0000000pt;stroke-linecap:butt;stroke-linejoin:miter;stroke-opacity:1.0000000;"/>
  <path d="M 202.18835,108.39865 L 202.18835,113.37049 L 202.61019,113.86768 L 200.07908,117.34797 L 197.96981,112.37611 L 197.54796,110.38738 L 197.54796,106.40990 L 197.54796,100.44369 L 203.03205,99.449324 L 206.82873,97.460587 L 203.03205,102.43243 L 202.18835,108.39865 z " id="path55911" style="fill:#000000;fill-opacity:0.50937498;fill-rule:evenodd;stroke:none;stroke-width:1.0000000pt;stroke-linecap:butt;stroke-linejoin:miter;stroke-opacity:1.0000000;"/>
  <path d="M 207.27067,114.69632 L 205.94485,120.88350 L 202.40931,121.76739 L 201.08349,122.20933 L 204.61902,123.09321 L 205.50290,126.18680 L 204.17708,129.72234 L 207.27067,120.88350 L 207.27067,114.69632 z " id="path56533" style="fill:#000000;fill-opacity:0.34374997;fill-rule:evenodd;stroke:none;stroke-width:1.0000000pt;stroke-linecap:butt;stroke-linejoin:miter;stroke-opacity:1.0000000;"/>
  <path d="M 205.06097,111.60272 L 200.19961,120.44156 L 197.10602,122.65127 L 193.12854,129.28039 L 197.10602,132.37399 L 201.96738,133.25787 L 201.96738,134.14175 L 204.17709,123.97709 L 204.17709,121.76738 L 200.64155,122.20933 L 204.61903,119.99962 L 204.61903,114.25437 L 205.06097,111.60272 z " id="path57155" style="fill:#000000;fill-opacity:0.11562497;fill-rule:evenodd;stroke:none;stroke-width:1.0000000pt;stroke-linecap:butt;stroke-linejoin:miter;stroke-opacity:1.0000000;"/>
  <path d="M 197.98990,119.55767 C 196.00453,122.64013 194.01228,125.73340 192.41936,129.04249 C 193.04206,131.80470 195.80641,133.13703 198.07078,134.29123 C 200.41594,133.83757 203.19505,135.02243 201.36982,137.77711 C 200.07071,140.79790 196.81222,141.99153 194.27867,143.74301 C 193.90453,143.94889 193.52162,144.13928 193.12854,144.30641" id="path57777" style="fill:none;fill-opacity:0.75000000;fill-rule:evenodd;stroke:#000000;stroke-width:1.0000000pt;stroke-linecap:butt;stroke-linejoin:miter;stroke-opacity:0.35624996;"/>
  <path d="M 171.03146,178.33592 L 181.19612,174.80039 L 190.47689,172.59068 L 194.89631,170.82292 L 203.29320,167.72932 L 208.15456,166.40350 L 208.15456,165.07767 L 202.40932,165.51961 L 194.89631,169.05515 L 186.49942,171.70680 L 175.00893,174.80039 L 171.03146,176.12622 L 171.03146,178.33592 z " id="path59026" style="fill:#000000;fill-opacity:0.20624997;fill-rule:evenodd;stroke:none;stroke-width:1.0000000pt;stroke-linecap:butt;stroke-linejoin:miter;stroke-opacity:1.0000000;"/>
  <path d="M 172.79922,180.98758 L 177.66058,180.54564 L 189.15107,177.45204 L 194.45437,175.24233 L 184.73165,180.54564 L 180.31223,182.31340 L 179.42835,185.84894 L 176.33476,183.63923 L 174.12505,184.08117 L 173.24116,187.17476 L 171.47340,183.63923 L 172.79922,180.98758 z " id="path59648" style="fill:#000000;fill-opacity:0.14062496;fill-rule:evenodd;stroke:none;stroke-width:1.0000000pt;stroke-linecap:butt;stroke-linejoin:miter;stroke-opacity:1.0000000;"/>
  <path d="M 171.91534,179.21981 L 184.73165,176.12622 L 195.78019,173.03263 L 199.75767,172.14874 L 189.59301,177.45204 L 181.63805,179.66175 L 175.89281,180.98758 L 171.91534,181.87146 L 171.91534,179.21981 z " id="path60270" style="fill:#ffffff;fill-opacity:0.24062499;fill-rule:evenodd;stroke:none;stroke-width:1.0000000pt;stroke-linecap:butt;stroke-linejoin:miter;stroke-opacity:1.0000000;"/>
  <path d="M 173.24116,189.38447 L 178.10252,190.71030 L 184.28971,193.80389 L 176.33476,192.47806 L 173.24116,191.59418 L 173.24116,189.38447 z " id="path60892" style="fill:#000000;fill-opacity:0.37499997;fill-rule:evenodd;stroke:none;stroke-width:1.0000000pt;stroke-linecap:butt;stroke-linejoin:miter;stroke-opacity:1.0000000;"/>
  <path d="M 177.66058,200.43301 L 196.22213,213.24932 L 209.92232,221.64622 L 220.08698,226.06563 L 223.62252,228.27534 L 216.10951,226.50758 L 198.43184,217.22680 L 186.49941,209.27185 L 178.98640,203.96855 L 177.66058,200.43301 z " id="path61514" style="fill:#000000;fill-opacity:0.24374999;fill-rule:evenodd;stroke:none;stroke-width:1.0000000pt;stroke-linecap:butt;stroke-linejoin:miter;stroke-opacity:1.0000000;"/>
  <path d="M 174.56699,185.40699 L 181.19612,186.73282 L 186.05748,188.50058 L 188.70913,190.71029 L 183.40583,190.26835 L 175.45088,189.38447 L 173.68311,188.50058 L 174.56699,185.40699 z " id="path62136" style="fill:#ffffff;fill-opacity:0.18125001;fill-rule:evenodd;stroke:none;stroke-width:1.0000000pt;stroke-linecap:butt;stroke-linejoin:miter;stroke-opacity:1.0000000;"/>
  <path d="M 178.10252,197.33943 L 184.28970,198.22331 L 191.36077,203.52661 L 188.70912,204.41049 L 182.96388,203.52661 L 177.66058,199.54913 L 178.10252,197.33943 z " id="path62758" style="fill:#ffffff;fill-opacity:0.12500000;fill-rule:evenodd;stroke:none;stroke-width:1.0000000pt;stroke-linecap:butt;stroke-linejoin:miter;stroke-opacity:1.0000000;"/>
  <path d="M 240.85826,168.61321 L 228.48389,164.63574 L 236.43884,171.26487 L 226.27418,167.72933 L 236.43884,175.24234 L 224.06447,174.35846 L 232.46136,179.21982 L 214.34175,180.54564 L 230.25166,181.87147 L 224.06447,186.29088 L 204.61903,187.61671 L 215.22564,189.38448 L 228.48389,187.17477 L 239.53243,184.96506 L 220.08700,192.03613 L 209.03845,196.01360 L 220.52894,196.45554 L 231.13554,192.03613 L 239.09049,188.05865 L 243.50991,180.54564 L 248.86683,171.70681 L 240.85826,168.61321 z " id="path63380" sodipodi:nodetypes="cccccccccccccccccccccc" style="fill:#000000;fill-opacity:0.043749992;fill-rule:evenodd;stroke:none;stroke-width:1.0000000pt;stroke-linecap:butt;stroke-linejoin:miter;stroke-opacity:1.0000000;"/>
  <path d="M 196.22213,203.52660 L 205.06097,208.82990 L 199.75767,209.71379 L 227.60000,219.87845 L 228.92582,218.55262 L 207.71262,210.15573 L 205.06097,206.17825 L 196.22213,203.52660 z " id="path64002" style="fill:#000000;fill-opacity:0.081249960;fill-rule:evenodd;stroke:none;stroke-width:1.0000000pt;stroke-linecap:butt;stroke-linejoin:miter;stroke-opacity:1.0000000;"/>
  <path d="M 235.11300,201.31689 L 224.94834,228.27534 L 233.34524,211.48155 L 235.11300,207.06214 L 237.76466,204.41049 L 235.11300,201.31689 z " id="path64624" style="fill:#000000;fill-opacity:0.57499999;fill-rule:evenodd;stroke:none;stroke-width:1.0000000pt;stroke-linecap:butt;stroke-linejoin:miter;stroke-opacity:1.0000000;"/>
  <path d="M 165.72815,162.86797 L 174.12505,161.10020 L 179.42835,159.33243 L 182.96388,158.89049 L 175.00893,155.35496 L 169.26369,156.23884 L 164.40233,161.10020 L 165.72815,162.86797 z " id="path65246" style="fill:#000000;fill-opacity:0.090624996;fill-rule:evenodd;stroke:none;stroke-width:1.0000000pt;stroke-linecap:butt;stroke-linejoin:miter;stroke-opacity:1.0000000;"/>
  <path d="M 224.06447,229.15923 L 215.66758,246.83690 L 206.82874,260.53709 L 196.66408,273.79534 L 168.82175,307.38292 L 182.08000,298.98602 L 189.59301,291.03107 L 202.85127,278.21476 L 205.94486,273.35340 L 186.05748,292.35690 L 181.63806,293.68272 L 205.06097,266.28233 L 211.24816,260.09515 L 217.87729,246.83690 L 222.73864,234.02059 L 224.06447,229.15923 z " id="path65868" style="fill:#000000;fill-opacity:0.13750000;fill-rule:evenodd;stroke:none;stroke-width:1.0000000pt;stroke-linecap:butt;stroke-linejoin:miter;stroke-opacity:1.0000000;"/>
  <path d="M 223.62252,228.71729 L 213.89980,249.93049 L 199.75767,269.37593 L 213.01592,246.39496 L 220.97087,228.27534 L 223.62252,228.71729 z " id="path67111" style="fill:#ffffff;fill-opacity:0.19687499;fill-rule:evenodd;stroke:none;stroke-width:1.0000000pt;stroke-linecap:butt;stroke-linejoin:miter;stroke-opacity:1.0000000;"/>
  <path d="M 199.31572,263.63068 L 186.49941,271.58563 L 175.00893,279.09864 L 166.17009,283.96000 L 162.19262,285.72777 L 165.72815,275.12117 L 167.49592,268.93398 L 173.24116,253.02408 L 171.47339,267.16622 L 176.77669,266.72427 L 182.52194,257.88544 L 185.17359,261.42097 L 188.26718,259.65321 L 189.15106,264.95651 L 199.31572,263.63068 z " id="path67733" style="fill:#000000;fill-opacity:0.053124968;fill-rule:evenodd;stroke:none;stroke-width:1.0000000pt;stroke-linecap:butt;stroke-linejoin:miter;stroke-opacity:1.0000000;"/>
  <path d="M 197.10601,264.07262 L 163.07650,285.28583 L 155.12155,290.58913 L 169.70563,283.07612 L 183.40582,275.12117 L 197.10601,264.07262 z " id="path68355" style="fill:#ffffff;fill-opacity:0.29062501;fill-rule:evenodd;stroke:none;stroke-width:1.0000000pt;stroke-linecap:butt;stroke-linejoin:miter;stroke-opacity:1.0000000;"/>
  <path d="M 195.33825,215.45904 L 196.22213,218.99457 L 189.59300,229.15923 L 186.49941,230.92700 L 188.26718,226.06564 L 187.82524,222.97204 L 189.59300,221.20428 L 184.28970,221.64622 L 186.05747,214.57515 L 186.05747,211.48156 L 187.38329,209.71379 L 195.33825,215.45904 z " id="path68981" style="fill:#000000;fill-opacity:0.062499944;fill-rule:evenodd;stroke:none;stroke-width:1.0000000pt;stroke-linecap:butt;stroke-linejoin:miter;stroke-opacity:1.0000000;"/>
  <path d="M 191.80271,221.64621 L 188.70912,222.97204 L 186.05747,223.41398 L 185.17359,223.85592 L 184.28970,227.83340 L 181.19611,231.81087 L 182.96388,225.18175 L 184.73164,222.08815 L 187.38330,210.59767 L 187.82524,217.66874 L 186.94135,220.76233 L 191.80271,221.64621 z " id="path70224" style="fill:#000000;fill-opacity:0.25312498;fill-rule:evenodd;stroke:none;stroke-width:1.0000000pt;stroke-linecap:butt;stroke-linejoin:miter;stroke-opacity:1.0000000;"/>
  <path d="M 192.24466,222.97204 L 188.70913,223.41399 L 186.05748,224.73981 L 184.28971,230.48505 L 182.08000,231.36894 L 175.89282,247.27884 L 174.12505,253.90797 L 169.26369,266.72428 L 176.77670,250.81437 L 181.19612,239.32389 L 186.94136,233.57865 L 190.47689,226.94952 L 186.05748,230.48505 L 188.26719,225.18175 L 190.47689,222.53010 L 192.24466,222.97204 z " id="path70846" style="fill:#ffffff;fill-opacity:0.25624999;fill-rule:evenodd;stroke:none;stroke-width:1.0000000pt;stroke-linecap:butt;stroke-linejoin:miter;stroke-opacity:1.0000000;"/>
  <path d="M 200.19961,218.55263 L 197.98990,223.85593 L 193.12854,228.27534 L 191.36078,234.90447 L 187.82524,240.64971 L 195.33825,236.67224 L 197.54796,231.36894 L 202.40932,228.71729 L 203.29320,224.29787 L 204.61903,221.20428 L 200.19961,218.55263 z " id="path71468" style="fill:#000000;fill-opacity:0.068749972;fill-rule:evenodd;stroke:none;stroke-width:1.0000000pt;stroke-linecap:butt;stroke-linejoin:miter;stroke-opacity:1.0000000;"/>
  <path d="M 176.33475,310.47651 L 177.66058,312.68622 L 170.14757,314.01204 L 163.51844,313.57010 L 161.30873,310.91845 L 153.79572,308.70874 L 152.02795,308.70874 L 152.02795,311.80234 L 148.05048,316.22175 L 149.37630,310.47651 L 150.26019,306.94098 L 156.44737,307.82486 L 162.19261,310.03457 L 166.61203,310.03457 L 172.79922,310.47651 L 176.33475,310.47651 z " id="path72090" style="fill:#000000;fill-opacity:0.40312496;fill-rule:evenodd;stroke:none;stroke-width:1.0000000pt;stroke-linecap:butt;stroke-linejoin:miter;stroke-opacity:1.0000000;"/>
  <path d="M 179.87029,293.24078 L 166.17010,309.15068 L 162.19262,309.59262 L 153.79573,306.49903 L 150.70214,306.49903 L 150.26020,310.47651 L 147.16660,311.80233 L 144.07301,316.66369 L 145.84078,325.06058 L 143.18913,322.40893 L 142.74719,314.45398 L 151.58602,303.40544 L 152.91185,302.96350 L 156.88932,304.73126 L 162.19262,306.05709 L 163.96039,306.49903 L 168.37981,303.40544 L 176.77670,295.45049 L 179.87029,293.24078 z " id="path72712" style="fill:#ffffff;fill-opacity:0.27500001;fill-rule:evenodd;stroke:none;stroke-width:1.0000000pt;stroke-linecap:butt;stroke-linejoin:miter;stroke-opacity:1.0000000;"/>
  <path d="M 146.28272,314.89592 L 149.37631,318.43146 L 153.79572,319.31534 L 159.98291,317.98951 L 160.86679,319.31534 L 157.33126,321.52505 L 152.02796,321.52505 L 150.26019,321.96699 L 151.14407,325.50252 L 148.49242,325.50252 L 146.28272,322.40893 L 145.39883,318.43146 L 146.28272,314.89592 z " id="path73334" style="fill:#000000;fill-opacity:0.14062496;fill-rule:evenodd;stroke:none;stroke-width:1.0000000pt;stroke-linecap:butt;stroke-linejoin:miter;stroke-opacity:1.0000000;"/>
  <path d="M 155.56349,310.03456 L 159.09903,317.54757 L 160.42485,318.87340 L 166.17010,319.75728 L 173.24116,318.87340 L 177.21864,316.66369 L 177.66058,314.45398 L 172.35728,314.89592 L 166.17010,316.22174 L 164.40233,313.57009 L 160.86679,311.80233 L 155.56349,310.03456 z " id="path73956" style="fill:#000000;fill-opacity:0.11874998;fill-rule:evenodd;stroke:none;stroke-width:1.0000000pt;stroke-linecap:butt;stroke-linejoin:miter;stroke-opacity:1.0000000;"/>
  <path d="M 157.77320,322.85087 L 165.72815,321.52505 L 169.70563,320.19922 L 175.00893,318.43146 L 179.42835,316.22175 L 179.42835,312.24427 L 180.75417,311.80233 L 181.19611,322.85087 L 180.75417,326.82835 L 170.58951,327.27029 L 160.86679,330.36388 L 156.88932,330.36388 L 159.54097,326.38641 L 157.77320,322.85087 z " id="path74578" style="fill:#000000;fill-opacity:0.074999996;fill-rule:evenodd;stroke:none;stroke-width:1.0000000pt;stroke-linecap:butt;stroke-linejoin:miter;stroke-opacity:1.0000000;"/>
  <path d="M 199.10585,156.44871 L 199.65503,160.92174 L 197.23545,163.41714 L 202.40931,162.42603 L 205.06096,163.30991 L 209.48038,163.30991 L 213.01591,162.42603 L 208.12775,160.11368 L 204.17708,158.44855 L 199.10585,156.44871 z " id="path75821" sodipodi:nodetypes="cccccccccc" style="fill:#000000;fill-opacity:0.54687500;fill-rule:evenodd;stroke:none;stroke-width:1.0000000pt;stroke-linecap:butt;stroke-linejoin:miter;stroke-opacity:1.0000000;"/>
  <path d="M 229.80971,156.23884 L 224.94835,161.10020 L 222.29670,166.84544 L 227.15806,161.54214 L 229.36776,161.10020 L 229.80971,167.28739 L 229.80971,156.23884 z " id="path76443" style="fill:#000000;fill-opacity:0.36249998;fill-rule:evenodd;stroke:none;stroke-width:1.0000000pt;stroke-linecap:butt;stroke-linejoin:miter;stroke-opacity:1.0000000;"/>
  <path d="M 228.48388,161.54214 L 225.83223,162.42602 L 224.06446,164.63573 L 229.36776,165.96156 L 228.48388,161.54214 z " id="path77065" style="fill:#000000;fill-opacity:0.22812501;fill-rule:evenodd;stroke:none;stroke-width:1.0000000pt;stroke-linecap:butt;stroke-linejoin:miter;stroke-opacity:1.0000000;"/>
  <path d="M 116.87500,138.43750 L 110.31250,139.68750 L 105.00000,141.87500 L 102.18750,145.00000 L 100.31250,148.43750 L 100.93750,152.18750 L 101.56250,155.00000 L 100.31250,158.43750 L 100.31250,163.75000 L 105.00000,170.62500 L 109.37500,175.93750 L 114.37500,178.12500 L 118.75000,180.31250 L 124.06250,182.50000 L 121.56250,173.12500 L 120.00000,162.18750 L 118.43750,156.25000 L 116.56250,148.75000 L 115.93750,142.18750 L 116.87500,138.43750 z " id="path78308" style="fill:#000000;fill-opacity:0.062499944;fill-rule:evenodd;stroke:none;stroke-width:1.0000000pt;stroke-linecap:butt;stroke-linejoin:miter;stroke-opacity:1.0000000;"/>
  <path d="M 114.06250,140.31250 L 113.43750,145.31250 L 111.87500,146.25000 L 112.18750,149.06250 L 113.75000,152.50000 L 116.25000,154.68750 L 117.18750,155.93750 L 116.25000,145.93750 L 116.56250,141.87500 L 117.18750,139.37500 L 114.06250,140.31250 z " id="path78930" style="fill:#000000;fill-opacity:0.10625000;fill-rule:evenodd;stroke:none;stroke-width:1.0000000pt;stroke-linecap:butt;stroke-linejoin:miter;stroke-opacity:1.0000000;"/>
  <path d="M 115.31250,139.37500 L 111.56250,139.68750 L 107.50000,140.31250 L 103.75000,142.81250 L 100.31250,145.31250 L 98.125000,151.87500 L 96.250000,157.81250 L 95.625000,159.68750 L 95.312500,156.56250 L 97.812500,148.12500 L 100.00000,145.62500 L 102.18750,142.18750 L 110.00000,138.43750 L 116.87500,137.18750 L 115.31250,139.37500 z " id="path79552" sodipodi:nodetypes="ccccccccccccccc" style="fill:#000000;fill-opacity:0.28437501;fill-rule:evenodd;stroke:none;stroke-width:1.0000000pt;stroke-linecap:butt;stroke-linejoin:miter;stroke-opacity:1.0000000;"/>
  <path d="M 116.56250,134.68750 L 111.56250,135.62500 L 105.93750,138.75000 L 101.56250,142.18750 L 100.31250,143.75000 L 106.56250,139.68750 L 112.81250,137.81250 L 116.25000,137.18750 L 116.56250,134.68750 z " id="path80795" style="fill:#ffffff;fill-opacity:0.23125000;fill-rule:evenodd;stroke:none;stroke-width:1.0000000pt;stroke-linecap:butt;stroke-linejoin:miter;stroke-opacity:1.0000000;"/>
  <path d="M 101.25000,146.56250 L 101.25000,152.18750 L 102.18750,155.31250 L 101.25000,160.31250 L 101.25000,165.93750 L 104.06250,170.93750 L 107.50000,175.31250 L 101.25000,169.37500 L 96.562500,163.12500 L 97.187500,160.31250 L 97.187500,157.81250 L 98.750000,151.87500 L 101.25000,146.56250 z " id="path80796" style="fill:#ffffff;fill-opacity:0.23125000;fill-rule:evenodd;stroke:none;stroke-width:1.0000000pt;stroke-linecap:butt;stroke-linejoin:miter;stroke-opacity:1.0000000;"/>
  <path d="M 116.15625,121.87500 L 112.56250,124.44853 L 110.76562,127.02206 L 109.68750,130.33088 L 109.68750,134.37500 L 111.48437,134.37500 L 115.43750,133.63971 L 116.87500,133.27206 L 116.87500,127.75735 L 116.51562,124.44853 L 116.15625,121.87500 z " id="path82039" style="fill:#000000;fill-opacity:0.14374997;fill-rule:evenodd;stroke:none;stroke-width:1.0000000pt;stroke-linecap:butt;stroke-linejoin:miter;stroke-opacity:1.0000000;"/>
  <path d="M 115.62500,134.06250 L 112.50000,134.06250 L 108.75000,134.37500 L 107.81250,135.62500 L 106.56250,138.12500 L 109.06250,137.18750 L 112.18750,136.25000 L 115.62500,134.06250 z " id="path82040" style="fill:#000000;fill-opacity:0.31874999;fill-rule:evenodd;stroke:none;stroke-width:1.0000000pt;stroke-linecap:butt;stroke-linejoin:miter;stroke-opacity:1.0000000;"/>
  <path d="M 109.68750,125.31250 L 113.75000,123.12500 L 116.56250,120.00000 L 116.25000,115.93750 L 113.75000,113.75000 L 111.25000,115.62500 L 110.93750,119.06250 L 110.00000,123.12500 L 109.68750,125.31250 z " id="path83283" style="fill:#000000;fill-opacity:0.084374972;fill-rule:evenodd;stroke:none;stroke-width:1.0000000pt;stroke-linecap:butt;stroke-linejoin:miter;stroke-opacity:1.0000000;"/>
  <path d="M 109.37500,125.00000 L 110.93750,123.43750 L 115.00000,121.25000 L 111.87500,125.31250 L 108.75000,130.31250 L 109.37500,125.00000 z " id="path83905" style="fill:#ffffff;fill-opacity:0.29687500;fill-rule:evenodd;stroke:none;stroke-width:1.0000000pt;stroke-linecap:butt;stroke-linejoin:miter;stroke-opacity:1.0000000;"/>
  <path d="M 110.62500,117.18750 L 114.68750,119.37500 L 115.93750,121.56250 L 113.43750,120.62500 L 110.31250,119.37500 L 110.62500,117.18750 z " id="path84528" style="fill:#000000;fill-opacity:0.19062497;fill-rule:evenodd;stroke:none;stroke-width:1.0000000pt;stroke-linecap:butt;stroke-linejoin:miter;stroke-opacity:1.0000000;"/>
  <path d="M 116.56250,173.43750 L 123.12500,180.93750 L 121.87500,177.81250 L 116.56250,173.43750 z " id="path85150" style="fill:#000000;fill-opacity:0.17812499;fill-rule:evenodd;stroke:none;stroke-width:1.0000000pt;stroke-linecap:butt;stroke-linejoin:miter;stroke-opacity:1.0000000;"/>
  <path d="M 106.87500,173.75000 L 115.00000,178.43750 L 119.06250,180.31250 L 121.25000,181.87500 L 117.50000,182.18750 L 114.06250,182.18750 L 109.06250,177.50000 L 104.06250,173.12500 L 99.375000,169.37500 L 97.187500,165.62500 L 95.312500,162.81250 L 95.312500,160.93750 L 97.187500,164.37500 L 103.43750,171.25000 L 106.87500,173.75000 z " id="path85772" style="fill:#000000;fill-opacity:0.14687499;fill-rule:evenodd;stroke:none;stroke-width:1.0000000pt;stroke-linecap:butt;stroke-linejoin:miter;stroke-opacity:1.0000000;"/>
  <path d="M 96.875000,165.62500 L 98.437500,172.50000 L 99.062500,174.37500 L 99.062500,178.12500 L 101.87500,176.25000 L 104.06250,172.50000 L 100.93750,170.31250 L 96.875000,165.62500 z " id="path86394" style="fill:#000000;fill-opacity:0.24999996;fill-rule:evenodd;stroke:none;stroke-width:1.0000000pt;stroke-linecap:butt;stroke-linejoin:miter;stroke-opacity:1.0000000;"/>
  <path d="M 99.687500,183.12500 L 101.56250,189.68750 L 103.12500,197.50000 L 103.12500,198.43750 L 104.68750,195.00000 L 103.75000,190.00000 L 99.687500,183.12500 z " id="path86395" style="fill:#000000;fill-opacity:0.24999996;fill-rule:evenodd;stroke:none;stroke-width:1.0000000pt;stroke-linecap:butt;stroke-linejoin:miter;stroke-opacity:1.0000000;"/>
  <path d="M 105.93750,177.50000 L 104.37500,182.18750 L 106.25000,186.25000 L 108.12500,186.25000 L 110.00000,189.06250 L 112.18750,186.56250 L 111.56250,183.12500 L 110.31250,181.87500 L 108.75000,184.06250 L 106.56250,182.50000 L 106.56250,180.31250 L 107.81250,178.43750 L 105.93750,177.50000 z " id="path86396" style="fill:#000000;fill-opacity:0.11562497;fill-rule:evenodd;stroke:none;stroke-width:1.0000000pt;stroke-linecap:butt;stroke-linejoin:miter;stroke-opacity:1.0000000;"/>
  <path d="M 100.31250,202.18750 L 98.750000,185.93750 L 98.750000,182.50000 L 101.25000,190.62500 L 102.81250,196.87500 L 104.37500,195.31250 L 104.06250,187.50000 L 103.12500,180.93750 L 105.31250,185.93750 L 106.56250,191.56250 L 107.81250,189.37500 L 110.00000,188.75000 L 110.31250,190.93750 L 106.87500,195.00000 L 102.50000,200.93750 L 100.31250,202.18750 z " id="path87018" style="fill:#ffffff;fill-opacity:0.31562498;fill-rule:evenodd;stroke:none;stroke-width:1.0000000pt;stroke-linecap:butt;stroke-linejoin:miter;stroke-opacity:1.0000000;"/>
  <path d="M 160.62500,100.62500 L 160.93750,102.81250 L 159.68750,105.31250 L 158.75000,104.68750 L 159.37500,102.81250 L 158.43750,102.18750 L 157.50000,102.50000 L 158.43750,107.81250 L 162.50000,111.25000 L 163.12500,112.81250 L 159.68750,111.25000 L 157.81250,110.62500 L 158.43750,113.75000 L 162.50000,116.56250 L 155.93750,111.56250 L 154.68750,108.12500 L 151.87500,104.06250 L 150.00000,98.437500 L 149.06250,94.687500 L 153.75000,97.500000 L 158.75000,99.687500 L 160.62500,100.62500 z " id="path88261" style="fill:#000000;fill-opacity:0.24062498;fill-rule:evenodd;stroke:none;stroke-width:1.0000000pt;stroke-linecap:butt;stroke-linejoin:miter;stroke-opacity:1.0000000;"/>
  <path d="M 171.25000,101.87500 L 169.37500,106.56250 L 169.68750,107.81250 L 171.25000,106.87500 L 173.12500,106.56250 L 171.56250,109.37500 L 169.37500,110.62500 L 165.62500,111.56250 L 170.31250,113.12500 L 174.37500,112.81250 L 170.93750,114.68750 L 167.81250,116.87500 L 164.37500,116.56250 L 168.43750,117.81250 L 173.12500,117.18750 L 177.18750,114.06250 L 182.81250,110.93750 L 186.56250,108.43750 L 189.06250,106.87500 L 192.18750,103.12500 L 185.62500,108.12500 L 182.50000,108.75000 L 179.68750,108.43750 L 177.50000,105.93750 L 175.62500,103.43750 L 173.12500,102.18750 L 171.25000,101.87500 z " id="path88883" style="fill:#000000;fill-opacity:0.10937495;fill-rule:evenodd;stroke:none;stroke-width:1.0000000pt;stroke-linecap:butt;stroke-linejoin:miter;stroke-opacity:1.0000000;"/>
  <path d="M 157.81250,110.00000 C 159.13231,110.74277 160.78387,111.02427 161.83995,112.15062 C 162.67277,113.67403 164.32704,113.44284 165.75739,113.19310 C 167.69314,113.09334 169.59585,113.56955 171.51604,113.74852 C 172.10314,113.87720 173.56047,113.92140 173.58573,114.12364 C 171.36891,114.98116 169.21172,116.06540 166.83463,116.41490 C 165.35307,116.97568 163.92282,116.78591 162.47137,116.23972 C 160.94992,115.80405 160.12203,114.31660 158.96851,113.34351 C 158.01093,112.57117 158.20664,111.09061 157.81250,110.00000 z " id="path90126" style="fill:#8b4f5d;fill-opacity:1.0000000;fill-rule:evenodd;stroke:none;stroke-width:1.0000000pt;stroke-linecap:butt;stroke-linejoin:miter;stroke-opacity:1.0000000;"/>
  <path d="M 170.00000,105.00000 L 169.37500,107.50000 L 169.37500,109.37500 L 165.93750,110.31250 L 161.56250,108.75000 L 160.93750,105.93750 L 161.87500,102.18750 L 163.75000,104.06250 L 167.18750,103.12500 L 169.37500,102.18750 L 172.18750,103.12500 L 170.00000,105.00000 z " id="path90752" style="fill:#000000;fill-opacity:0.046874944;fill-rule:evenodd;stroke:none;stroke-width:1.0000000pt;stroke-linecap:butt;stroke-linejoin:miter;stroke-opacity:1.0000000;"/>
  <path d="M 178.43750,103.12500 L 179.68750,105.93750 L 182.50000,107.18750 L 184.68750,107.81250 L 188.43750,106.87500 L 191.56250,102.81250 L 185.31250,102.81250 L 178.43750,103.12500 z " id="path91374" style="fill:#000000;fill-opacity:0.068749972;fill-rule:evenodd;stroke:none;stroke-width:1.0000000pt;stroke-linecap:butt;stroke-linejoin:miter;stroke-opacity:1.0000000;"/>
  <path d="M 236.25000,134.37500 L 234.06250,141.87500 L 230.93750,145.62500 L 230.62500,149.37500 L 230.62500,152.81250 L 229.68750,160.62500 L 230.00000,166.25000 L 231.25000,166.25000 L 231.25000,162.18750 L 232.50000,160.31250 L 234.06250,160.93750 L 234.06250,166.56250 L 235.31250,167.81250 L 236.56250,161.87500 L 238.75000,160.93750 L 238.43750,168.43750 L 239.68750,169.68750 L 240.62500,162.81250 L 242.18750,160.62500 L 244.37500,162.81250 L 246.25000,162.50000 L 246.87500,157.81250 L 244.68750,156.87500 L 243.12500,154.37500 L 243.12500,150.62500 L 245.31250,145.62500 L 244.37500,139.37500 L 243.75000,136.56250 L 236.25000,134.37500 z " id="path92617" style="fill:#000000;fill-opacity:0.12812497;fill-rule:evenodd;stroke:none;stroke-width:1.0000000pt;stroke-linecap:butt;stroke-linejoin:miter;stroke-opacity:1.0000000;"/>
  <path d="M 230.31250,148.43750 L 230.00000,153.12500 L 229.68750,159.06250 L 229.68750,165.93750 L 230.62500,166.56250 L 231.25000,157.50000 L 231.87500,146.87500 L 234.68750,141.87500 L 235.00000,143.43750 L 236.25000,140.00000 L 238.75000,135.62500 L 236.56250,135.31250 L 233.43750,140.00000 L 230.93750,145.00000 L 230.31250,148.43750 z " id="path93239" style="fill:#000000;fill-opacity:0.29374996;fill-rule:evenodd;stroke:none;stroke-width:1.0000000pt;stroke-linecap:butt;stroke-linejoin:miter;stroke-opacity:1.0000000;"/>
  <path d="M 232.50000,158.43750 L 233.75000,160.93750 L 233.75000,166.87500 L 234.37500,166.56250 L 235.31250,161.56250 L 235.31250,159.37500 L 232.50000,158.43750 z " id="path93861" style="fill:#000000;fill-opacity:0.24687500;fill-rule:evenodd;stroke:none;stroke-width:1.0000000pt;stroke-linecap:butt;stroke-linejoin:miter;stroke-opacity:1.0000000;"/>
  <path d="M 238.43750,161.25000 L 238.12500,165.62500 L 238.12500,168.75000 L 239.37500,169.37500 L 239.68750,164.37500 L 240.00000,161.56250 L 238.43750,161.25000 z " id="path94483" style="fill:#000000;fill-opacity:0.24374999;fill-rule:evenodd;stroke:none;stroke-width:1.0000000pt;stroke-linecap:butt;stroke-linejoin:miter;stroke-opacity:1.0000000;"/>
  <path d="M 245.00000,163.12500 L 245.00000,163.12500" id="path95105" style="fill:none;fill-opacity:0.75000000;fill-rule:evenodd;stroke:#000000;stroke-width:1.0000000pt;stroke-linecap:butt;stroke-linejoin:miter;stroke-opacity:1.0000000;"/>
  <path d="M 244.06250,163.12500 L 246.56250,163.12500 L 247.18750,159.06250 L 245.31250,159.06250 L 244.06250,163.12500 z " id="path95106" style="fill:#000000;fill-opacity:0.21874996;fill-rule:evenodd;stroke:none;stroke-width:1.0000000pt;stroke-linecap:butt;stroke-linejoin:miter;stroke-opacity:1.0000000;"/>
  <path d="M 247.18750,173.43750 L 243.75000,181.56250 L 241.87500,185.31250 L 245.93750,182.50000 L 249.06250,178.43750 L 248.75000,174.06250 L 247.18750,173.43750 z " id="path95728" sodipodi:nodetypes="ccccccc" style="fill:#e6e5e6;fill-opacity:1.0000000;fill-rule:evenodd;stroke:none;stroke-width:1.0000000pt;stroke-linecap:butt;stroke-linejoin:miter;stroke-opacity:1.0000000;"/>
  <path d="M 270.93750,169.68750 L 268.75000,171.87500 L 266.56250,170.93750 L 264.37500,170.93750 L 264.68750,172.81250 L 262.18750,171.25000 L 261.56250,177.81250 L 261.87500,186.87500 L 264.68750,193.43750 L 263.75000,202.18750 L 260.93750,214.37500 L 260.31250,219.06250 L 260.31250,228.12500 L 260.62500,230.31250 L 263.75000,231.87500 L 266.56250,233.12500 L 270.00000,230.62500 L 271.87500,221.56250 L 271.87500,218.12500 L 272.18750,216.56250 L 271.87500,201.56250 L 272.50000,195.62500 L 272.18750,189.06250 L 272.18750,177.18750 L 270.93750,169.68750 z " id="path96971" sodipodi:nodetypes="ccccccccccccccccccccccccc" style="fill:#000000;fill-opacity:1.0000000;fill-rule:evenodd;stroke:none;stroke-width:1.0000000pt;stroke-linecap:butt;stroke-linejoin:miter;stroke-opacity:1.0000000;"/>
  <path d="M 251.25000,174.68750 C 252.98602,176.78849 253.88506,179.46347 252.06300,181.80980 C 251.02037,184.58561 247.80179,185.64963 246.72465,188.34091 C 246.13972,190.72523 244.39802,191.25474 242.18750,190.62500" id="path97593" style="fill:none;fill-opacity:0.75000000;fill-rule:evenodd;stroke:#000000;stroke-width:1.0000000pt;stroke-linecap:butt;stroke-linejoin:miter;stroke-opacity:0.40000001;"/>
  <path d="M 253.43750,174.68750 L 256.56250,178.12500 L 255.31250,184.06250 L 253.12500,188.43750 L 252.81250,192.81250" id="path98219" sodipodi:nodetypes="ccccc" style="fill:none;fill-opacity:0.75000000;fill-rule:evenodd;stroke:#000000;stroke-width:1.0000000pt;stroke-linecap:butt;stroke-linejoin:miter;stroke-opacity:1.0000000;"/>
  <path d="M 253.12500,193.75000 L 255.00000,199.37500 L 256.87500,205.93750 L 255.62500,215.93750 L 255.31250,225.93750" id="path98220" sodipodi:nodetypes="ccccc" style="fill:none;fill-opacity:0.75000000;fill-rule:evenodd;stroke:#000000;stroke-width:1.0000000pt;stroke-linecap:butt;stroke-linejoin:miter;stroke-opacity:1.0000000;"/>
  <path d="M 253.12500,175.00000 L 253.75000,179.06250 L 250.31250,185.00000 L 246.56250,189.37500 L 244.68750,193.12500 L 240.93750,195.93750 L 237.18750,195.93750 L 236.25000,201.25000 L 238.75000,203.43750 L 242.50000,205.00000 L 244.68750,199.68750 L 246.25000,196.56250 L 248.75000,192.81250 L 251.25000,191.25000 L 252.18750,188.43750 L 254.37500,183.12500 L 255.31250,178.43750 L 255.00000,176.25000 L 253.12500,175.00000 z " id="path98221" style="fill:#000000;fill-opacity:0.28124997;fill-rule:evenodd;stroke:none;stroke-width:1.0000000pt;stroke-linecap:butt;stroke-linejoin:miter;stroke-opacity:1.0000000;"/>
  <path d="M 253.57955,199.37500 L 251.87500,203.75000 L 251.87500,210.00000 L 253.15341,214.68750 L 256.13636,217.18750 L 256.56250,209.68750 L 256.13636,205.62500 L 254.85795,201.56250 L 253.57955,199.37500 z " id="path98843" style="fill:#000000;fill-opacity:0.37187496;fill-rule:evenodd;stroke:none;stroke-width:1.0000000pt;stroke-linecap:butt;stroke-linejoin:miter;stroke-opacity:1.0000000;"/>
  <path d="M 250.31250,190.62500 L 246.81250,194.28125 L 242.81250,197.53125 L 242.81250,206.87500 L 249.81250,210.93750 L 249.31250,199.56250 L 251.81250,194.28125 L 252.81250,193.06250 L 250.31250,190.62500 z " id="path99465" style="fill:#000000;fill-opacity:0.32499996;fill-rule:evenodd;stroke:none;stroke-width:1.0000000pt;stroke-linecap:butt;stroke-linejoin:miter;stroke-opacity:1.0000000;"/>
  <path d="M 250.00000,175.31250 L 250.62500,180.93750 L 249.68750,185.00000 L 252.81250,179.06250 L 253.12500,176.25000 L 250.00000,175.31250 z " id="path100087" style="fill:#ffffff;fill-opacity:0.22812501;fill-rule:evenodd;stroke:none;stroke-width:1.0000000pt;stroke-linecap:butt;stroke-linejoin:miter;stroke-opacity:1.0000000;"/>
  <path d="M 250.93750,192.18750 L 249.06250,194.37500 L 250.62500,196.87500 L 250.62500,198.12500 L 253.43750,205.62500 L 253.75000,215.31250 L 253.43750,222.50000 L 255.00000,209.37500 L 255.62500,204.37500 L 252.50000,195.00000 L 250.93750,192.18750 z " id="path100709" style="fill:#ffffff;fill-opacity:0.20625000;fill-rule:evenodd;stroke:none;stroke-width:1.0000000pt;stroke-linecap:butt;stroke-linejoin:miter;stroke-opacity:1.0000000;"/>
  <path d="M 255.31250,198.12500 L 259.37500,197.50000 L 263.75000,198.43750 L 263.43750,200.62500 L 258.12500,200.00000 L 256.25000,200.62500 L 255.31250,198.12500 z " id="path101331" style="fill:#ffffff;fill-opacity:0.19374999;fill-rule:evenodd;stroke:none;stroke-width:1.0000000pt;stroke-linecap:butt;stroke-linejoin:miter;stroke-opacity:1.0000000;"/>
  <path d="M 256.56250,215.93750 L 259.06250,217.18750 L 260.31250,219.68750 L 260.00000,225.00000 L 255.93750,223.43750 L 256.56250,215.93750 z " id="path101953" style="fill:#ffffff;fill-opacity:0.15625000;fill-rule:evenodd;stroke:none;stroke-width:1.0000000pt;stroke-linecap:butt;stroke-linejoin:miter;stroke-opacity:1.0000000;"/>
  <path d="M 272.50000,178.43750 L 270.93750,183.12500 L 270.00000,188.12500 L 270.62500,191.87500 L 270.93750,199.06250 L 269.68750,207.18750 L 268.12500,212.81250 L 266.87500,217.18750 L 266.25000,223.12500 L 266.56250,228.12500 L 267.50000,230.31250 L 271.56250,228.43750 L 272.18750,223.12500 L 272.81250,217.18750 L 272.50000,203.12500 L 272.50000,194.68750 L 272.18750,190.62500 L 273.12500,186.87500 L 272.50000,178.43750 z " id="path102575" style="fill:#ffffff;fill-opacity:0.25312498;fill-rule:evenodd;stroke:none;stroke-width:1.0000000pt;stroke-linecap:butt;stroke-linejoin:miter;stroke-opacity:1.0000000;"/>
  <path d="M 145.31250,323.43750 C 144.01995,325.10593 144.53675,327.33461 144.21160,329.08878 C 142.99800,330.75610 144.21038,332.53004 145.68963,333.40704 C 147.68852,335.53539 150.25231,337.15375 153.09162,337.86003 C 155.26055,338.87048 155.85740,341.43325 156.47739,343.52315 C 156.75567,345.10353 156.92355,347.10509 158.61111,347.84520 C 160.84872,350.21340 163.89954,351.50205 166.65255,353.14215 C 170.65415,354.01662 174.71717,354.61168 178.80556,354.83863 C 182.02058,355.15247 185.25490,354.53555 188.38758,353.92731 C 189.86627,353.26884 191.67500,352.11757 191.38456,350.24262 C 190.89605,349.04078 192.15967,345.79201 189.87984,346.41237 C 187.90698,347.00651 185.82487,347.31342 183.80095,347.75439 C 180.29968,348.41415 176.70698,348.15243 173.17974,347.86682 C 171.24575,347.68085 169.32894,347.35713 167.52084,346.63027 C 165.74014,346.11104 163.98698,345.35502 162.66997,344.01153 C 160.92377,342.63954 159.15194,341.25609 157.75453,339.51358 C 156.97377,337.03682 156.18956,334.50582 154.70183,332.35286 C 153.97108,330.42321 152.02670,329.44021 150.28336,328.59742 C 148.31133,327.28002 145.79943,325.99786 145.31250,323.43750 z " id="path104439" style="fill:#000000;fill-opacity:1.0000000;fill-rule:evenodd;stroke:none;stroke-width:1.0000000pt;stroke-linecap:butt;stroke-linejoin:miter;stroke-opacity:1.0000000;"/>
  <path d="M 159.68750,330.31250 L 162.81250,334.37500 L 166.25000,338.43750 L 171.56250,342.18750 L 180.00000,343.75000 L 185.00000,342.18750 L 187.81250,338.12500" id="path105064" sodipodi:nodetypes="ccccccc" style="fill:none;fill-opacity:0.75000000;fill-rule:evenodd;stroke:#000000;stroke-width:1.0000000pt;stroke-linecap:butt;stroke-linejoin:miter;stroke-opacity:0.54374999;"/>
  <path d="M 175.62500,327.18750 L 178.12500,327.50000 L 180.62500,329.06250 L 182.50000,334.68750 L 184.68750,337.18750 L 185.00000,338.75000" id="path105065" sodipodi:nodetypes="cccccc" style="fill:none;fill-opacity:0.75000000;fill-rule:evenodd;stroke:#000000;stroke-width:1.0000000pt;stroke-linecap:butt;stroke-linejoin:miter;stroke-opacity:0.61250001;"/>
  <path d="M 162.18750,331.25000 L 165.31250,335.00000 L 169.06250,339.68750 L 175.00000,341.87500 L 178.75000,341.87500 L 181.87500,341.56250 L 184.37500,340.93750 L 186.25000,339.37500 L 187.18750,337.18750" id="path105066" sodipodi:nodetypes="ccccccccc" style="fill:none;fill-opacity:1.0000000;fill-rule:evenodd;stroke:#fffffd;stroke-width:1.0000000pt;stroke-linecap:butt;stroke-linejoin:miter;stroke-opacity:0.22187500;"/>
  <path d="M 162.18750,330.31250 L 165.00000,334.06250 L 168.75000,338.12500 L 172.18750,339.68750 L 178.12500,340.62500 L 183.12500,340.00000 L 179.37500,339.06250 L 180.31250,336.87500 L 177.81250,335.62500 L 175.62500,333.75000 L 175.93750,332.50000 L 174.68750,331.25000 L 174.68750,329.06250 L 170.62500,328.43750 L 165.62500,329.37500 L 162.18750,330.31250 z " id="path106309" style="fill:#000000;fill-opacity:0.20312496;fill-rule:evenodd;stroke:none;stroke-width:1.0000000pt;stroke-linecap:butt;stroke-linejoin:miter;stroke-opacity:1.0000000;"/>
  <path d="M 179.68750,329.06250 L 175.31250,328.12500 L 174.37500,328.75000 L 177.18750,331.25000 L 179.68750,332.50000 L 174.06250,332.50000 L 176.56250,334.06250 L 179.68750,335.00000 L 177.81250,336.25000 L 175.93750,336.25000 L 177.81250,337.50000 L 179.37500,338.43750 L 181.25000,338.75000 L 183.43750,338.12500 L 184.06250,336.25000 L 182.18750,332.81250 L 179.68750,329.06250 z " id="path106931" style="fill:#ffffff;fill-opacity:0.096874997;fill-rule:evenodd;stroke:none;stroke-width:1.0000000pt;stroke-linecap:butt;stroke-linejoin:miter;stroke-opacity:1.0000000;"/>
  <path d="M 155.62500,333.12500 L 157.50000,337.18750 L 160.62500,341.87500 L 165.62500,345.31250 L 170.31250,346.56250 L 173.75000,347.81250 L 177.50000,347.81250 L 174.68750,345.00000 L 174.68750,343.43750 L 165.62500,339.06250 L 160.93750,333.75000 L 158.43750,330.93750 L 155.31250,331.56250 L 155.62500,333.12500 z " id="path107553" style="fill:#000000;fill-opacity:0.23125000;fill-rule:evenodd;stroke:none;stroke-width:1.0000000pt;stroke-linecap:butt;stroke-linejoin:miter;stroke-opacity:1.0000000;"/>
  <path d="M 180.00000,344.37500 L 181.25000,345.93750 L 185.93750,346.87500 L 189.37500,346.25000 L 190.00000,343.75000 L 187.81250,339.68750 L 185.00000,343.12500 L 180.00000,344.37500 z " id="path107554" style="fill:#000000;fill-opacity:0.23125000;fill-rule:evenodd;stroke:none;stroke-width:1.0000000pt;stroke-linecap:butt;stroke-linejoin:miter;stroke-opacity:1.0000000;"/>
  <path d="M 179.37500,344.06250 L 174.37500,343.75000 L 175.31250,345.93750 C 175.31250,345.93750 175.00000,347.81250 176.25000,347.81250 C 177.50000,347.81250 181.56250,347.50000 181.56250,347.50000 L 186.25000,346.87500 L 180.31250,346.25000 L 179.37500,344.06250 z " id="path108176" style="fill:#ffffff;fill-opacity:0.17812499;fill-rule:evenodd;stroke:none;stroke-width:1.0000000pt;stroke-linecap:butt;stroke-linejoin:miter;stroke-opacity:1.0000000;"/>
</svg>
