<?xml version="1.0" encoding="UTF-8" standalone="no"?>
<!-- Created with Inkscape (http://www.inkscape.org/) --><svg height="1052.3622047" id="svg59707" inkscape:version="0.42" sodipodi:docbase="/home/usuario/Desktop/inkscape" sodipodi:docname="man.svg" sodipodi:version="0.32" width="744.09448819" xmlns="http://www.w3.org/2000/svg" xmlns:cc="http://web.resource.org/cc/" xmlns:dc="http://purl.org/dc/elements/1.1/" xmlns:inkscape="http://www.inkscape.org/namespaces/inkscape" xmlns:rdf="http://www.w3.org/1999/02/22-rdf-syntax-ns#" xmlns:sodipodi="http://inkscape.sourceforge.net/DTD/sodipodi-0.dtd" xmlns:svg="http://www.w3.org/2000/svg" xmlns:xlink="&amp;#38;#38;#38;#38;#38;#38;#38;#38;#38;#38;#38;#38;#38;#38;#38;ns_xlink;">
  <metadata>
    <rdf:RDF xmlns:cc="http://web.resource.org/cc/" xmlns:dc="http://purl.org/dc/elements/1.1/" xmlns:rdf="http://www.w3.org/1999/02/22-rdf-syntax-ns#">
      <cc:Work rdf:about="">
        <dc:title>man crystal</dc:title>
        <dc:description></dc:description>
        <dc:subject>
          <rdf:Bag>
            <rdf:li>people</rdf:li>
            <rdf:li>man</rdf:li>
            <rdf:li>crystal</rdf:li>
            <rdf:li>homem</rdf:li>
          </rdf:Bag>
        </dc:subject>
        <dc:publisher>
          <cc:Agent rdf:about="http://www.openclipart.org/">
            <dc:title>Open Clip Art Library</dc:title>
          </cc:Agent>
        </dc:publisher>
        <dc:creator>
          <cc:Agent>
            <dc:title>Felipe Maciel</dc:title>
          </cc:Agent>
        </dc:creator>
        <dc:rights>
          <cc:Agent>
            <dc:title>Felipe Maciel</dc:title>
          </cc:Agent>
        </dc:rights>
        <dc:date></dc:date>
        <dc:format>image/svg+xml</dc:format>
        <dc:type rdf:resource="http://purl.org/dc/dcmitype/StillImage"/>
        <cc:license rdf:resource="http://web.resource.org/cc/PublicDomain"/>
        <dc:language>en</dc:language>
      </cc:Work>
      <cc:License rdf:about="http://web.resource.org/cc/PublicDomain">
        <cc:permits rdf:resource="http://web.resource.org/cc/Reproduction"/>
        <cc:permits rdf:resource="http://web.resource.org/cc/Distribution"/>
        <cc:permits rdf:resource="http://web.resource.org/cc/DerivativeWorks"/>
      </cc:License>
    </rdf:RDF>
  </metadata>
  <defs id="defs59709">
    <linearGradient id="linearGradient60532" inkscape:collect="always">
      <stop id="stop60534" offset="0" style="stop-color:#ffffff;stop-opacity:1;"/>
      <stop id="stop60536" offset="1" style="stop-color:#ffffff;stop-opacity:0;"/>
    </linearGradient>
    <linearGradient id="linearGradient60510" inkscape:collect="always">
      <stop id="stop60512" offset="0" style="stop-color:#ffffff;stop-opacity:1;"/>
      <stop id="stop60514" offset="1" style="stop-color:#ffffff;stop-opacity:0;"/>
    </linearGradient>
    <linearGradient id="linearGradient60490" inkscape:collect="always">
      <stop id="stop60492" offset="0" style="stop-color:#ffffff;stop-opacity:1;"/>
      <stop id="stop60494" offset="1" style="stop-color:#ffffff;stop-opacity:0;"/>
    </linearGradient>
    <linearGradient id="linearGradient60471" inkscape:collect="always">
      <stop id="stop60473" offset="0" style="stop-color:#ffffff;stop-opacity:1;"/>
      <stop id="stop60475" offset="1" style="stop-color:#ffffff;stop-opacity:0;"/>
    </linearGradient>
    <linearGradient id="linearGradient60459" inkscape:collect="always">
      <stop id="stop60461" offset="0" style="stop-color:#ffffff;stop-opacity:1;"/>
      <stop id="stop60463" offset="1" style="stop-color:#ffffff;stop-opacity:0;"/>
    </linearGradient>
    <linearGradient id="linearGradient60449" inkscape:collect="always">
      <stop id="stop60451" offset="0" style="stop-color:#ffffff;stop-opacity:1;"/>
      <stop id="stop60453" offset="1" style="stop-color:#ffffff;stop-opacity:0;"/>
    </linearGradient>
    <linearGradient gradientUnits="userSpaceOnUse" id="linearGradient60455" inkscape:collect="always" x1="-140.00000" x2="-140.00000" xlink:href="#linearGradient60449" y1="209.00163" y2="325.46686"/>
    <linearGradient gradientUnits="userSpaceOnUse" id="linearGradient60465" inkscape:collect="always" x1="342.85715" x2="342.85715" xlink:href="#linearGradient60459" y1="308.43784" y2="220.43781"/>
    <linearGradient gradientUnits="userSpaceOnUse" id="linearGradient60477" inkscape:collect="always" x1="51.428570" x2="51.428570" xlink:href="#linearGradient60471" y1="949.50507" y2="869.50507"/>
    <linearGradient gradientUnits="userSpaceOnUse" id="linearGradient60486" inkscape:collect="always" x1="51.428570" x2="51.428570" xlink:href="#linearGradient60471" y1="949.50507" y2="869.50507"/>
    <linearGradient gradientUnits="userSpaceOnUse" id="linearGradient60496" inkscape:collect="always" x1="101.01525" x2="101.01525" xlink:href="#linearGradient60490" y1="488.00482" y2="662.94836"/>
    <linearGradient gradientUnits="userSpaceOnUse" id="linearGradient60500" inkscape:collect="always" x1="101.01525" x2="101.01525" xlink:href="#linearGradient60490" y1="488.00482" y2="662.94836"/>
    <linearGradient gradientUnits="userSpaceOnUse" id="linearGradient60506" inkscape:collect="always" x1="101.01525" x2="101.01525" xlink:href="#linearGradient60490" y1="488.00482" y2="662.94836"/>
    <linearGradient gradientTransform="matrix(0.823529,0.000000,0.000000,1.000000,374.9448,-6.060915)" gradientUnits="userSpaceOnUse" id="linearGradient60516" inkscape:collect="always" x1="-222.23355" x2="-187.88836" xlink:href="#linearGradient60510" y1="490.71736" y2="490.71736"/>
    <linearGradient gradientUnits="userSpaceOnUse" id="linearGradient60520" inkscape:collect="always" x1="101.01525" x2="101.01525" xlink:href="#linearGradient60490" y1="488.00482" y2="662.94836"/>
    <linearGradient gradientTransform="matrix(0.987126,0.000000,0.000000,1.000000,6.450408,0.000000)" gradientUnits="userSpaceOnUse" id="linearGradient60540" inkscape:collect="always" x1="187.19022" x2="501.05997" xlink:href="#linearGradient60532" y1="480.92255" y2="480.92255"/>
    <linearGradient gradientUnits="userSpaceOnUse" id="linearGradient60544" inkscape:collect="always" x1="51.428570" x2="51.428570" xlink:href="#linearGradient60471" y1="949.50507" y2="869.50507"/>
    <linearGradient gradientTransform="matrix(-0.551629,0.000000,0.000000,0.834702,508.6459,-107.0307)" gradientUnits="userSpaceOnUse" id="linearGradient60551" inkscape:collect="always" x1="51.428570" x2="51.428570" xlink:href="#linearGradient60471" y1="949.50507" y2="869.50507"/>
    <linearGradient gradientTransform="matrix(0.551629,0.000000,0.000000,0.834702,35.72413,30.35004)" gradientUnits="userSpaceOnUse" id="linearGradient60553" inkscape:collect="always" x1="51.428570" x2="51.428570" xlink:href="#linearGradient60471" y1="949.50507" y2="869.50507"/>
    <linearGradient gradientUnits="userSpaceOnUse" id="linearGradient60557" inkscape:collect="always" x1="33.265003" x2="51.428570" xlink:href="#linearGradient60471" y1="996.38110" y2="869.50507"/>
    <linearGradient gradientUnits="userSpaceOnUse" id="linearGradient60561" inkscape:collect="always" x1="33.265003" x2="51.428570" xlink:href="#linearGradient60471" y1="996.38110" y2="869.50507"/>
    <linearGradient gradientUnits="userSpaceOnUse" id="linearGradient60580" inkscape:collect="always" x1="-140.00000" x2="-140.00000" xlink:href="#linearGradient60449" y1="209.00163" y2="325.46686"/>
    <linearGradient gradientUnits="userSpaceOnUse" id="linearGradient60582" inkscape:collect="always" x1="342.85715" x2="342.85715" xlink:href="#linearGradient60459" y1="308.43784" y2="220.43781"/>
    <linearGradient gradientUnits="userSpaceOnUse" id="linearGradient60584" inkscape:collect="always" x1="51.428570" x2="51.428570" xlink:href="#linearGradient60471" y1="949.50507" y2="869.50507"/>
    <linearGradient gradientUnits="userSpaceOnUse" id="linearGradient60586" inkscape:collect="always" x1="51.428570" x2="51.428570" xlink:href="#linearGradient60471" y1="949.50507" y2="869.50507"/>
    <linearGradient gradientUnits="userSpaceOnUse" id="linearGradient60588" inkscape:collect="always" x1="101.01525" x2="101.01525" xlink:href="#linearGradient60490" y1="488.00482" y2="662.94836"/>
    <linearGradient gradientUnits="userSpaceOnUse" id="linearGradient60590" inkscape:collect="always" x1="101.01525" x2="101.01525" xlink:href="#linearGradient60490" y1="488.00482" y2="662.94836"/>
    <linearGradient gradientUnits="userSpaceOnUse" id="linearGradient60592" inkscape:collect="always" x1="51.428570" x2="51.428570" xlink:href="#linearGradient60471" y1="949.50507" y2="869.50507"/>
    <linearGradient gradientTransform="matrix(-0.551629,0.000000,0.000000,0.834702,508.6459,-107.0307)" gradientUnits="userSpaceOnUse" id="linearGradient60594" inkscape:collect="always" x1="51.428570" x2="51.428570" xlink:href="#linearGradient60471" y1="949.50507" y2="869.50507"/>
    <linearGradient gradientUnits="userSpaceOnUse" id="linearGradient60596" inkscape:collect="always" x1="33.265003" x2="51.428570" xlink:href="#linearGradient60471" y1="996.38110" y2="869.50507"/>
    <linearGradient gradientUnits="userSpaceOnUse" id="linearGradient60598" inkscape:collect="always" x1="33.265003" x2="51.428570" xlink:href="#linearGradient60471" y1="996.38110" y2="869.50507"/>
  </defs>
  <sodipodi:namedview bordercolor="#666666" borderopacity="1.0" fill="#ffffff" id="base" inkscape:current-layer="layer1" inkscape:cx="375.00000" inkscape:cy="305.29375" inkscape:document-units="px" inkscape:pageopacity="0.0" inkscape:pageshadow="2" inkscape:window-height="965" inkscape:window-width="1273" inkscape:window-x="0" inkscape:window-y="0" inkscape:zoom="0.49497475" pagecolor="#ffffff"/>
  <g id="layer1" inkscape:groupmode="layer" inkscape:label="Layer 1"><g id="g60563" transform="translate(42.42637,-50.50762)"><path d="M 226.64070,277.38410 C 204.77802,277.38410 187.19022,294.97204 187.19022,316.83458 L 187.19022,645.01055 C 187.19022,666.87312 204.77802,684.46099 226.64070,684.46102 L 233.79381,684.46102 L 233.79381,367.66501 L 253.41049,367.66501 L 253.41049,684.46102 L 439.82485,684.46102 L 439.82485,367.66501 L 459.44188,367.66501 L 459.44188,684.46102 L 461.60949,684.46102 C 483.47216,684.46102 501.05997,666.87315 501.05997,645.01055 L 501.05997,316.83458 C 501.05997,294.97201 483.47216,277.38410 461.60949,277.38410 L 226.64070,277.38410 z " id="path12233" style="opacity:1.0000000;fill:#000000;fill-opacity:1.0000000;fill-rule:evenodd;stroke:none;stroke-width:6.2500000;stroke-linecap:butt;stroke-linejoin:miter;stroke-miterlimit:4.0000000;stroke-dasharray:none;stroke-dashoffset:0.0000000;stroke-opacity:1.0000000"/><path d="M 253.41049,655.08993 L 253.41049,924.84883 L 337.18875,924.84883 L 337.18875,659.53352 L 356.80578,659.53352 L 356.80578,924.84883 L 439.82485,924.84883 L 439.82485,655.08993 L 253.41049,655.08993 z " id="path12235" style="opacity:1.0000000;fill:#000000;fill-opacity:1.0000000;fill-rule:evenodd;stroke:none;stroke-width:6.2500000;stroke-linecap:butt;stroke-linejoin:miter;stroke-miterlimit:4.0000000;stroke-dasharray:none;stroke-dashoffset:0.0000000;stroke-opacity:1.0000000"/><polygon id="polygon12237" points="9140.0000,10547.000 8547.0000,10557.000 7983.0000,10466.000 7463.0000,10281.000 6998.0000,10013.000 6600.0000,9670.0000 6285.0000,9260.0000 6063.0000,8795.0000 5948.0000,8282.0000 5951.0000,7755.0000 6068.0000,7253.0000 6290.0000,6786.0000 6604.0000,6366.0000 7002.0000,6004.0000 7471.0000,5713.0000 8002.0000,5504.0000 8584.0000,5389.0000 9176.0000,5378.0000 9740.0000,5469.0000 10260.000,5654.0000 10726.000,5922.0000 11123.000,6265.0000 11438.000,6675.0000 11660.000,7140.0000 11776.000,7654.0000 11772.000,8180.0000 11655.000,8682.0000 11433.000,9149.0000 11119.000,9569.0000 10721.000,9931.0000 10252.000,10222.000 9721.0000,10431.000 9140.0000,10547.000 " style="fill:#000000;fill-opacity:1.0000000;stroke:none" transform="matrix(3.135175e-2,1.090078e-2,-9.079648e-3,3.815879e-2,142.0981,-234.3252)"/><path d="M 1077.2772,502.65817 A 13.788582,13.965359 0 1 1 1049.7001,502.65817" id="path12239" sodipodi:cx="1063.4886" sodipodi:cy="502.65817" sodipodi:end="3.1415927" sodipodi:open="true" sodipodi:rx="13.788582" sodipodi:ry="13.965359" sodipodi:start="0.0000000" sodipodi:type="arc" style="opacity:1.0000000;fill:#000000;fill-opacity:1.0000000;fill-rule:evenodd;stroke:none;stroke-width:6.2500000;stroke-linecap:butt;stroke-linejoin:miter;stroke-miterlimit:4.0000000;stroke-dasharray:none;stroke-dashoffset:0.0000000;stroke-opacity:1.0000000" transform="matrix(3.033560,0.000000,0.000000,3.468174,-2930.824,-819.2302)"/><path d="M 1077.2772,502.65817 A 13.788582,13.965359 0 1 1 1049.7001,502.65817" id="path12241" sodipodi:cx="1063.4886" sodipodi:cy="502.65817" sodipodi:end="3.1415927" sodipodi:open="true" sodipodi:rx="13.788582" sodipodi:ry="13.965359" sodipodi:start="0.0000000" sodipodi:type="arc" style="opacity:1.0000000;fill:#000000;fill-opacity:1.0000000;fill-rule:evenodd;stroke:none;stroke-width:6.2500000;stroke-linecap:butt;stroke-linejoin:miter;stroke-miterlimit:4.0000000;stroke-dasharray:none;stroke-dashoffset:0.0000000;stroke-opacity:1.0000000" transform="matrix(3.005769,0.000000,0.000000,3.468174,-2798.348,-818.7834)"/><path d="M -51.428574 375.93362 A 88.571426 133.57143 0 1 1  -228.57143,375.93362 A 88.571426 133.57143 0 1 1  -51.428574 375.93362 z" id="path59721" sodipodi:cx="-140.00000" sodipodi:cy="375.93362" sodipodi:rx="88.571426" sodipodi:ry="133.57143" sodipodi:type="arc" style="opacity:1.0000000;fill:url(#linearGradient60580);fill-opacity:1.0000000;fill-rule:nonzero;stroke:none;stroke-width:0.31399468;stroke-linecap:square;stroke-linejoin:miter;stroke-miterlimit:4.0000000;stroke-dasharray:none;stroke-dashoffset:0.0000000;stroke-opacity:1.0000000" transform="matrix(1.000000,0.000000,0.000000,1.069519,487.1429,-193.9916)"/><path d="M 428.57143 208.79076 A 85.714287 55.000000 0 1 1  257.14286,208.79076 A 85.714287 55.000000 0 1 1  428.57143 208.79076 z" id="path60457" sodipodi:cx="342.85715" sodipodi:cy="208.79076" sodipodi:rx="85.714287" sodipodi:ry="55.000000" sodipodi:type="arc" style="opacity:1.0000000;fill:url(#linearGradient60582);fill-opacity:1.0000000;fill-rule:nonzero;stroke:none;stroke-width:0.31399468;stroke-linecap:square;stroke-linejoin:miter;stroke-miterlimit:4.0000000;stroke-dasharray:none;stroke-dashoffset:0.0000000;stroke-opacity:1.0000000" transform="matrix(0.933333,0.000000,0.000000,1.103896,30.00000,-27.40683)"/><path d="M 95.714283 877.36218 A 44.285713 55.000000 0 1 1  7.1428566,877.36218 A 44.285713 55.000000 0 1 1  95.714283 877.36218 z" id="path60469" sodipodi:cx="51.428570" sodipodi:cy="877.36218" sodipodi:rx="44.285713" sodipodi:ry="55.000000" sodipodi:type="arc" style="opacity:1.0000000;fill:url(#linearGradient60584);fill-opacity:1.0000000;fill-rule:nonzero;stroke:none;stroke-width:0.31399468;stroke-linecap:square;stroke-linejoin:miter;stroke-miterlimit:4.0000000;stroke-dasharray:none;stroke-dashoffset:0.0000000;stroke-opacity:1.0000000" transform="matrix(0.870968,0.000000,0.000000,1.000000,251.6360,37.85714)"/><path d="M 95.714283 877.36218 A 44.285713 55.000000 0 1 1  7.1428566,877.36218 A 44.285713 55.000000 0 1 1  95.714283 877.36218 z" id="path60484" sodipodi:cx="51.428570" sodipodi:cy="877.36218" sodipodi:rx="44.285713" sodipodi:ry="55.000000" sodipodi:type="arc" style="opacity:1.0000000;fill:url(#linearGradient60586);fill-opacity:1.0000000;fill-rule:nonzero;stroke:none;stroke-width:0.31399468;stroke-linecap:square;stroke-linejoin:miter;stroke-miterlimit:4.0000000;stroke-dasharray:none;stroke-dashoffset:0.0000000;stroke-opacity:1.0000000" transform="matrix(0.870968,0.000000,0.000000,1.000000,353.7789,37.85714)"/><path d="M 151.52288,578.60065 A 50.507626,168.69548 0 1 1 50.507626,578.60064 L 101.01525,578.60065 z" id="path60488" sodipodi:cx="101.01525" sodipodi:cy="578.60065" sodipodi:end="3.1415927" sodipodi:rx="50.507626" sodipodi:ry="168.69548" sodipodi:start="0.0000000" sodipodi:type="arc" style="opacity:1.0000000;fill:url(#linearGradient60588);fill-opacity:1.0000000;fill-rule:nonzero;stroke:none;stroke-width:0.31399468;stroke-linecap:square;stroke-linejoin:miter;stroke-miterlimit:4.0000000;stroke-dasharray:none;stroke-dashoffset:0.0000000;stroke-opacity:1.0000000" transform="matrix(0.000000,-3.640000,0.425149,0.000000,13.11215,915.4862)"/><path d="M 151.52288,578.60065 A 50.507626,168.69548 0 1 1 50.507626,578.60064 L 101.01525,578.60065 z" id="path60518" sodipodi:cx="101.01525" sodipodi:cy="578.60065" sodipodi:end="3.1415927" sodipodi:rx="50.507626" sodipodi:ry="168.69548" sodipodi:start="0.0000000" sodipodi:type="arc" style="opacity:1.0000000;fill:url(#linearGradient60590);fill-opacity:1.0000000;fill-rule:nonzero;stroke:none;stroke-width:0.31399468;stroke-linecap:square;stroke-linejoin:miter;stroke-miterlimit:4.0000000;stroke-dasharray:none;stroke-dashoffset:0.0000000;stroke-opacity:1.0000000" transform="matrix(0.000000,-3.640000,-0.425149,0.000000,679.8514,915.4862)"/><path d="M 86.558197,928.19039 C 86.558197,958.55039 14.467726,929.50570 14.467726,899.14570 C 14.467726,868.78570 26.982856,822.36218 51.428570,822.36218 C 75.874283,822.36218 86.558197,897.83039 86.558197,928.19039 z " id="path60542" sodipodi:nodetypes="cssc" style="fill:url(#linearGradient60592);fill-opacity:1.0000000;fill-rule:nonzero;stroke:none;stroke-width:0.31399468;stroke-linecap:square;stroke-linejoin:miter;stroke-miterlimit:4.0000000;stroke-dashoffset:0.0000000;stroke-opacity:1.0000000" transform="matrix(0.551629,0.000000,0.000000,0.834702,183.2064,-105.0104)"/><path d="M 460.89795,667.73166 C 460.89795,693.07322 500.66514,668.82956 500.66514,643.48800 C 500.66514,618.14645 493.76143,579.39665 480.27647,579.39665 C 466.79150,579.39665 460.89795,642.39011 460.89795,667.73166 z " id="path60549" sodipodi:nodetypes="cssc" style="fill:url(#linearGradient60594);fill-opacity:1.0000000;fill-rule:nonzero;stroke:none;stroke-width:0.31399468;stroke-linecap:square;stroke-linejoin:miter;stroke-miterlimit:4.0000000;stroke-dashoffset:0.0000000;stroke-opacity:1.0000000"/><path d="M 95.714283 877.36218 A 44.285713 55.000000 0 1 1  7.1428566,877.36218 A 44.285713 55.000000 0 1 1  95.714283 877.36218 z" id="path60555" sodipodi:cx="51.428570" sodipodi:cy="877.36218" sodipodi:rx="44.285713" sodipodi:ry="55.000000" sodipodi:type="arc" style="opacity:1.0000000;fill:url(#linearGradient60596);fill-opacity:1.0000000;fill-rule:nonzero;stroke:none;stroke-width:0.31399468;stroke-linecap:square;stroke-linejoin:miter;stroke-miterlimit:4.0000000;stroke-dasharray:none;stroke-dashoffset:0.0000000;stroke-opacity:1.0000000" transform="matrix(-0.620100,0.505108,-0.671266,-0.364566,861.7044,607.0477)"/><path d="M 95.714283 877.36218 A 44.285713 55.000000 0 1 1  7.1428566,877.36218 A 44.285713 55.000000 0 1 1  95.714283 877.36218 z" id="path60559" sodipodi:cx="51.428570" sodipodi:cy="877.36218" sodipodi:rx="44.285713" sodipodi:ry="55.000000" sodipodi:type="arc" style="opacity:1.0000000;fill:url(#linearGradient60598);fill-opacity:1.0000000;fill-rule:nonzero;stroke:none;stroke-width:0.31399468;stroke-linecap:square;stroke-linejoin:miter;stroke-miterlimit:4.0000000;stroke-dasharray:none;stroke-dashoffset:0.0000000;stroke-opacity:1.0000000" transform="matrix(0.620100,0.505108,0.671266,-0.364566,-177.9337,605.0274)"/></g><flowRoot id="flowRoot60600" space="preserve" transform="matrix(3.823224,0.000000,0.000000,3.823224,1177.670,-3343.397)"><flowRegion id="flowRegion60602"><rect height="329.30972" id="rect60604" width="654.57886" x="-305.06607" y="1117.0120"/></flowRegion><flowPara id="flowPara60606">Felipe Maciel</flowPara><flowPara id="flowPara60608">ffmaciel@gmail.com</flowPara></flowRoot>  </g>
</svg>
