<?xml version="1.0" encoding="UTF-8" standalone="no"?>
<!DOCTYPE svg PUBLIC "-//W3C//DTD SVG 1.0//EN"
"http://www.w3.org/TR/2001/REC-SVG-20010904/DTD/svg10.dtd">
<!-- Created with Inkscape (http://www.inkscape.org/) --><svg height="100.00000pt" id="svg43967" inkscape:export-filename="/home/Krug/Projekte/Icon-Sets/set2/png/01.png" inkscape:export-xdpi="72.000000" inkscape:export-ydpi="72.000000" inkscape:version="0.39" sodipodi:docbase="/home/Krug/Projekte/Icon-Sets/set2/svg" sodipodi:docname="01.svg" sodipodi:version="0.32" width="100.00000pt" xmlns="http://www.w3.org/2000/svg" xmlns:cc="http://web.resource.org/cc/" xmlns:dc="http://purl.org/dc/elements/1.1/" xmlns:inkscape="http://www.inkscape.org/namespaces/inkscape" xmlns:rdf="http://www.w3.org/1999/02/22-rdf-syntax-ns#" xmlns:sodipodi="http://sodipodi.sourceforge.net/DTD/sodipodi-0.dtd" xmlns:xlink="http://www.w3.org/1999/xlink">
  <metadata>
    <rdf:RDF xmlns:cc="http://web.resource.org/cc/" xmlns:dc="http://purl.org/dc/elements/1.1/" xmlns:rdf="http://www.w3.org/1999/02/22-rdf-syntax-ns#">
      <cc:Work rdf:about="">
        <dc:title>people</dc:title>
        <dc:description></dc:description>
        <dc:subject>
          <rdf:Bag>
            <rdf:li>icon</rdf:li>
            <rdf:li>people</rdf:li>
          </rdf:Bag>
        </dc:subject>
        <dc:publisher>
          <cc:Agent rdf:about="http://www.openclipart.org/">
            <dc:title>Open Clip Art Library</dc:title>
          </cc:Agent>
        </dc:publisher>
        <dc:creator>
          <cc:Agent>
            <dc:title>Juliane Krug</dc:title>
          </cc:Agent>
        </dc:creator>
        <dc:rights>
          <cc:Agent>
            <dc:title>Juliane Krug</dc:title>
          </cc:Agent>
        </dc:rights>
        <dc:date></dc:date>
        <dc:format>image/svg+xml</dc:format>
        <dc:type rdf:resource="http://purl.org/dc/dcmitype/StillImage"/>
        <cc:license rdf:resource="http://web.resource.org/cc/PublicDomain"/>
        <dc:language>en</dc:language>
      </cc:Work>
      <cc:License rdf:about="http://web.resource.org/cc/PublicDomain">
        <cc:permits rdf:resource="http://web.resource.org/cc/Reproduction"/>
        <cc:permits rdf:resource="http://web.resource.org/cc/Distribution"/>
        <cc:permits rdf:resource="http://web.resource.org/cc/DerivativeWorks"/>
      </cc:License>
    </rdf:RDF>
  </metadata>
  <defs id="defs43969">
    <linearGradient id="linearGradient44688">
      <stop id="stop44689" offset="0.0000000" style="stop-color:#ffffff;stop-opacity:0.60317463;"/>
      <stop id="stop44690" offset="1.0000000" style="stop-color:#ffffff;stop-opacity:0.0000000;"/>
    </linearGradient>
    <linearGradient id="linearGradient44679">
      <stop id="stop44680" offset="0.0000000" style="stop-color:#ffffff;stop-opacity:1.0000000;"/>
      <stop id="stop44681" offset="1.0000000" style="stop-color:#ffffff;stop-opacity:0.0000000;"/>
    </linearGradient>
    <linearGradient id="linearGradient7971">
      <stop id="stop7972" offset="0.0000000" style="stop-color:#ffffff;stop-opacity:1.0000000;"/>
      <stop id="stop7973" offset="1.0000000" style="stop-color:#000000;stop-opacity:1.0000000;"/>
    </linearGradient>
    <linearGradient id="linearGradient972">
      <stop id="stop973" offset="0.0000000" style="stop-color:#ffffff;stop-opacity:0.77513230;"/>
      <stop id="stop974" offset="1.0000000" style="stop-color:#ffffff;stop-opacity:0.0000000;"/>
    </linearGradient>
    <linearGradient id="linearGradient975">
      <stop id="stop976" offset="0.0000000" style="stop-color:#000000;stop-opacity:0.52645504;"/>
      <stop id="stop977" offset="1.0000000" style="stop-color:#000000;stop-opacity:0.0000000;"/>
    </linearGradient>
    <linearGradient id="linearGradient978">
      <stop id="stop979" offset="0.0000000" style="stop-color:#ffffff;stop-opacity:0.66666669;"/>
      <stop id="stop980" offset="1.0000000" style="stop-color:#ffffff;stop-opacity:0.0000000;"/>
    </linearGradient>
    <linearGradient id="linearGradient981">
      <stop id="stop982" offset="0" style="stop-color:#000;stop-opacity:1;"/>
      <stop id="stop983" offset="1" style="stop-color:#fff;stop-opacity:1;"/>
    </linearGradient>
    <linearGradient id="linearGradient4384">
      <stop id="stop4385" offset="0.0000000" style="stop-color:#ffffff;stop-opacity:0.77513230;"/>
      <stop id="stop4386" offset="1.0000000" style="stop-color:#ffffff;stop-opacity:0.0000000;"/>
    </linearGradient>
    <linearGradient id="linearGradient4376">
      <stop id="stop4377" offset="0.0000000" style="stop-color:#000000;stop-opacity:0.52645504;"/>
      <stop id="stop4378" offset="1.0000000" style="stop-color:#000000;stop-opacity:0.0000000;"/>
    </linearGradient>
    <linearGradient id="linearGradient4362">
      <stop id="stop4363" offset="0.0000000" style="stop-color:#ffffff;stop-opacity:0.66666669;"/>
      <stop id="stop4364" offset="1.0000000" style="stop-color:#ffffff;stop-opacity:0.0000000;"/>
    </linearGradient>
    <linearGradient id="linearGradient4358">
      <stop id="stop4359" offset="0" style="stop-color:#000;stop-opacity:1;"/>
      <stop id="stop4360" offset="1" style="stop-color:#fff;stop-opacity:1;"/>
    </linearGradient>
    <radialGradient cx="0.24666667" cy="0.30468750" fx="0.24666667" fy="0.29687500" id="radialGradient44678" inkscape:collect="always" r="0.50666666" xlink:href="#linearGradient44679"/>
    <radialGradient cx="0.41176471" cy="0.17187500" fx="0.41176471" fy="0.16406250" id="radialGradient44701" inkscape:collect="always" r="0.29422137" xlink:href="#linearGradient44688"/>
    <radialGradient cx="0.50000000" cy="0.50000000" fx="0.50000000" fy="0.50000000" id="radialGradient44705" inkscape:collect="always" r="0.77882761" xlink:href="#linearGradient44688"/>
    <linearGradient id="linearGradient44706" inkscape:collect="always" x1="0.93750000" x2="-0.41249999" xlink:href="#linearGradient7971" y1="0.085937500" y2="0.89843750"/>
    <linearGradient id="linearGradient44719" inkscape:collect="always" x1="0.40860215" x2="0.40860215" xlink:href="#linearGradient975" y1="0.085937500" y2="0.35937500"/>
  </defs>
  <sodipodi:namedview bordercolor="#666666" borderopacity="1.0" id="base" inkscape:cx="102.18954" inkscape:cy="46.648426" inkscape:pageopacity="0.0" inkscape:pageshadow="2" inkscape:window-height="937" inkscape:window-width="1272" inkscape:window-x="0" inkscape:window-y="0" inkscape:zoom="3.6100000" pagecolor="#ffffff"/>
  <path d="M 65.305390,72.630083 C 70.054791,77.813645 73.077138,87.100859 79.769477,87.100860 C 86.245934,85.301011 87.109462,69.894314 87.972989,66.582595 C 80.633005,71.622168 73.077139,74.501924 65.305390,72.630083 z " id="path9383" sodipodi:nodetypes="cccc" style="fill:#ffffff;fill-opacity:1.0000000;fill-rule:evenodd;stroke:#000000;stroke-width:3.7500000;stroke-linecap:round;stroke-linejoin:round;stroke-miterlimit:4.0000000;stroke-opacity:1.0000000;" transform="translate(-8.625689,2.159428)"/>
  <path d="M 211.21884 70.290855 A 60.941830 57.825485 0 1 0 89.335178,70.290855 A 60.941830 57.825485 0 1 0 211.21884 70.290855 z" id="path3713" sodipodi:cx="150.27701" sodipodi:cy="70.290855" sodipodi:rx="60.941830" sodipodi:ry="57.825485" sodipodi:type="arc" style="fill:#cf997b;fill-opacity:1.0000000;fill-rule:evenodd;stroke:#000000;stroke-width:8.5041637;stroke-linecap:round;stroke-linejoin:round;stroke-miterlimit:4.0000000;stroke-opacity:1.0000000;" transform="matrix(0.440859,0.000000,0.000000,0.441062,-5.377535,18.36754)"/>
  <path d="M 36.307019,99.436753 C 35.916378,124.63301 100.54578,127.51437 100.38948,99.436753 C 101.93426,77.108006 90.829033,64.412306 88.069362,66.570776 C 86.668121,67.666753 86.147486,92.006539 76.679554,86.407897 C 72.076674,83.686098 66.928216,73.231034 64.675609,72.884169 C 61.276534,72.360765 54.767786,69.608667 48.790072,64.457958 C 47.221779,63.106638 36.836468,76.996947 36.307019,99.436753 z " id="path4369" sodipodi:nodetypes="ccssssc" style="fill:#9e9e97;fill-opacity:1.0000000;fill-rule:evenodd;stroke:#000000;stroke-width:3.7500000;stroke-linecap:round;stroke-linejoin:round;stroke-miterlimit:4.0000000;stroke-opacity:1.0000000;" transform="translate(-8.625689,2.159428)"/>
  <path d="M 40.630399,36.454003 C 40.671242,43.358445 72.701162,46.350670 87.631815,38.716260 C 84.175003,67.866596 103.22655,71.732499 88.938976,98.761899 C 84.351957,107.43968 141.79803,74.254464 99.920327,19.497998 C 98.218784,-1.8801738 44.417557,-8.3972644 40.630399,36.454003 z " id="path3720" sodipodi:nodetypes="ccscc" style="fill:#c50000;fill-opacity:1.0000000;fill-rule:evenodd;stroke:#000000;stroke-width:3.7500000;stroke-linecap:round;stroke-linejoin:round;stroke-miterlimit:4.0000000;stroke-opacity:1.0000000;" transform="translate(-8.625689,2.159428)"/>
  <path d="M 36.187500,79.500000 C 33.110223,88.184717 29.968311,98.442808 33.082955,107.27518 C 41.453246,119.11095 58.333914,119.27391 71.322450,117.29455 C 80.416664,115.82485 89.388090,108.23005 87.471702,98.250887 C 87.562669,90.588773 85.982273,82.708662 81.781250,76.218750 C 80.695860,83.142133 78.475118,94.487309 69.376325,93.871842 C 59.567038,91.896705 57.797167,78.434027 47.504470,77.183224 C 42.710062,73.590227 38.315760,71.170912 36.516428,78.905718 L 36.187500,79.500000 z " id="path44676" style="fill:url(#radialGradient44678);fill-opacity:1.0000000;fill-rule:evenodd;stroke:none;stroke-width:3.7500000;stroke-linecap:round;stroke-linejoin:round;stroke-miterlimit:4.0000000;stroke-opacity:1.0000000;"/>
  <path d="M 55.768698,10.156250 C 43.924803,13.712822 35.296456,25.343297 34.831198,37.625000 C 45.948463,43.094932 59.256997,41.747538 70.813691,38.860504 C 76.390628,33.995130 84.035054,40.679693 81.470779,47.106887 C 80.315123,62.778941 92.665629,77.747832 86.237448,93.375000 C 103.03089,79.122179 105.21286,52.820614 93.489228,34.724063 C 89.689296,28.744661 86.148765,22.545620 83.029219,16.299325 C 76.521785,8.8225744 64.819720,8.3846436 55.768698,10.156250 z " id="path44699" style="fill:url(#radialGradient44701);fill-opacity:1.0000000;fill-rule:evenodd;stroke:none;stroke-width:3.7500000;stroke-linecap:round;stroke-linejoin:round;stroke-miterlimit:4.0000000;stroke-opacity:1.0000000;"/>
  <path d="M 69.869914,5.2666466 C 73.390864,5.5980406 78.337764,6.5936836 80.879344,8.3941355 C 86.394974,18.542011 87.665824,25.964227 87.573674,40.864447 C 95.062124,48.373843 86.013714,56.425744 80.014824,56.146589 C 75.522794,65.023494 54.965674,72.230524 53.700984,63.495321 C 52.949814,52.630652 69.048744,65.567619 75.366214,52.488332 C 72.936434,48.234021 72.380854,41.850073 80.684344,39.477741 C 82.218584,29.084074 78.578464,17.502287 69.869914,5.2666466 z " id="path7968" sodipodi:nodetypes="cccccccc" style="fill:url(#linearGradient44706);fill-opacity:1.0000000;fill-rule:evenodd;stroke:#000000;stroke-width:3.1689336;stroke-linecap:round;stroke-linejoin:round;stroke-miterlimit:4.0000000;stroke-opacity:1.0000000;"/>
  <path d="M 68.465130,5.2649935 C 71.986080,5.5963876 76.932980,6.5920306 79.474560,8.3924826 C 84.990190,18.540357 86.261040,25.962573 86.168890,40.862793 C 93.657339,48.372189 84.608930,56.424090 78.610040,56.144935 C 74.118010,65.021840 53.560890,72.228870 52.296200,63.493667 C 51.545030,52.628998 67.643960,65.565965 73.961430,52.486678 C 71.531650,48.232367 70.976070,41.848419 79.279560,39.476087 C 80.813800,29.082420 77.173680,17.500633 68.465130,5.2649935 z " id="path44704" sodipodi:nodetypes="cccccccc" style="fill:url(#radialGradient44705);fill-opacity:1.0000000;fill-rule:evenodd;stroke:none;stroke-width:3.1689336;stroke-linecap:round;stroke-linejoin:round;stroke-miterlimit:4.0000000;stroke-opacity:1.0000000;"/>
  <path d="M 34.606475,42.333535 C 33.849545,44.689022 33.325225,47.118967 33.325225,49.708535 C 33.325225,63.787085 45.338525,75.208535 60.168975,75.208535 C 68.642265,75.208535 76.118615,71.406925 81.043975,65.583535 C 80.204445,62.983505 79.363225,60.275865 78.793975,57.177285 C 73.600755,65.714815 54.243085,72.331625 53.012725,63.833535 C 52.261555,52.968865 68.351505,65.912825 74.668975,52.833535 C 72.869605,49.683004 72.138425,45.388276 75.231475,42.396035 C 62.577695,47.171514 42.306925,46.213549 34.606475,42.333535 z " id="path44709" style="fill:url(#linearGradient44719);fill-opacity:1.0000000;fill-rule:evenodd;stroke:none;stroke-width:8.5041637;stroke-linecap:round;stroke-linejoin:round;stroke-miterlimit:4.0000000;stroke-opacity:1.0000000;"/>
</svg>
