<?xml version="1.0" encoding="UTF-8" standalone="no"?>
<!DOCTYPE svg PUBLIC "-//W3C//DTD SVG 20010904//EN"
"http://www.w3.org/TR/2001/REC-SVG-20010904/DTD/svg10.dtd">
<!-- Created with Inkscape (http://www.inkscape.org/) --><svg height="80.000000pt" id="svg1" inkscape:version="0.38.1" sodipodi:docbase="/var/www/html/svg_gallery/svg/people" sodipodi:docname="ppl2.svg" sodipodi:version="0.32" width="80.000000pt" xmlns="http://www.w3.org/2000/svg" xmlns:inkscape="http://www.inkscape.org/namespaces/inkscape" xmlns:sodipodi="http://sodipodi.sourceforge.net/DTD/sodipodi-0.dtd" xmlns:xlink="http://www.w3.org/1999/xlink">
  <metadata>
    <rdf:RDF xmlns:cc="http://web.resource.org/cc/" xmlns:dc="http://purl.org/dc/elements/1.1/" xmlns:rdf="http://www.w3.org/1999/02/22-rdf-syntax-ns#">
      <cc:Work rdf:about="">
        <dc:title>Clipart by Nicu Buculei - head1</dc:title>
        <dc:description></dc:description>
        <dc:subject>
          <rdf:Bag>
            <rdf:li></rdf:li>
            <rdf:li>people</rdf:li>
          </rdf:Bag>
        </dc:subject>
        <dc:publisher>
          <cc:Agent rdf:about="http://www.openclipart.org">
            <dc:title>Nicu Buculei</dc:title>
          </cc:Agent>
        </dc:publisher>
        <dc:creator>
          <cc:Agent>
            <dc:title>Nicu Buculei</dc:title>
          </cc:Agent>
        </dc:creator>
        <dc:rights>
          <cc:Agent>
            <dc:title>Nicu Buculei</dc:title>
          </cc:Agent>
        </dc:rights>
        <dc:date></dc:date>
        <dc:format>image/svg+xml</dc:format>
        <dc:type rdf:resource="http://purl.org/dc/dcmitype/StillImage"/>
        <cc:license rdf:resource="http://web.resource.org/cc/PublicDomain"/>
        <dc:language>en</dc:language>
      </cc:Work>
      <cc:License rdf:about="http://web.resource.org/cc/PublicDomain">
        <cc:permits rdf:resource="http://web.resource.org/cc/Reproduction"/>
        <cc:permits rdf:resource="http://web.resource.org/cc/Distribution"/>
        <cc:permits rdf:resource="http://web.resource.org/cc/DerivativeWorks"/>
      </cc:License>
    </rdf:RDF>
  </metadata>
  <defs id="defs3"/>
  <sodipodi:namedview bordercolor="#666666" borderopacity="1.0" id="base" inkscape:cx="65.662471" inkscape:cy="34.676203" inkscape:pageopacity="0.0" inkscape:pageshadow="2" inkscape:window-height="662" inkscape:window-width="950" inkscape:window-x="168" inkscape:window-y="39" inkscape:zoom="6.0628663" pagecolor="#ffffff"/>
  <g id="g846">
    <path d="M 54.705624,11.308271 C 44.467824,11.308271 36.143124,17.956248 36.143124,26.152021 C 36.143124,31.753063 40.074484,36.592302 45.799374,39.120771 C 38.222594,40.575579 31.363755,43.082438 27.299374,46.933271 C 18.669332,58.387823 21.893526,67.396748 21.736874,69.027021 C 22.509618,69.893077 27.410961,73.187633 31.080624,72.933271 C 30.921358,69.719941 31.269792,66.061039 31.674374,62.808271 C 32.212317,58.483306 32.861874,54.995771 32.861874,54.995771 C 32.626900,55.183877 32.092936,58.794113 31.674374,62.808271 C 31.255812,66.822429 30.964125,71.217768 31.236874,72.964521 C 31.187414,72.969332 31.130561,72.929810 31.080624,72.933271 C 31.082576,72.972653 31.078531,73.019057 31.080624,73.058271 C 31.480619,79.548133 34.733264,94.460459 36.143124,95.714521 C 49.962284,97.697880 63.166114,97.429621 77.611874,96.027021 C 77.611874,96.027021 78.012574,92.201030 78.111874,91.277021 C 79.309514,87.230997 80.535574,81.221256 79.611874,76.902021 C 79.707034,75.962136 79.703474,76.017945 79.799374,75.058271 C 79.010544,64.015647 76.885654,56.550961 76.955624,56.714521 C 78.592104,61.518096 79.799364,75.058271 79.799374,75.058271 C 84.581054,74.243876 87.923944,73.441250 92.705624,70.745771 C 94.272144,69.115490 95.047034,59.784742 87.955624,47.120771 C 84.971814,41.792228 75.993314,38.867180 65.705624,38.027021 C 70.245704,35.319789 73.236874,31.029052 73.236874,26.152021 C 73.236874,26.108222 73.206094,26.070731 73.205624,26.027021 C 73.324654,25.450286 73.550994,24.662568 73.611874,24.277021 C 73.343974,24.100770 73.192114,24.141027 72.955624,24.027021 C 71.647454,16.854153 64.026724,11.308271 54.705624,11.308271 z " id="path852" style="fill-opacity:0.49999997;fill-rule:evenodd;stroke-width:1.2500000;stroke-linejoin:round;"/>
    <g id="g833" style="">
      <path d="M 18.815381,66.311465 C 18.972030,64.681190 15.769036,55.671840 24.399078,44.217288 C 37.415368,31.884895 77.966373,31.743657 85.057780,44.407630 C 92.149187,57.071603 91.377080,66.401160 89.810561,68.031441 C 85.028880,70.726921 81.657068,71.541315 76.875385,72.355710 C 76.875385,72.355710 75.697710,58.800506 74.061235,53.996931 C 73.991268,53.833370 76.086553,61.317549 76.875385,72.360173 C 75.784402,83.277395 74.693413,93.316769 74.693413,93.316769 C 60.247656,94.719369 47.055114,94.993311 33.235956,93.009952 C 31.826092,91.755891 28.569868,76.850028 28.169873,70.360166 C 27.769878,62.867061 29.963002,52.268028 29.963002,52.268028 C 29.493050,52.644242 27.781030,66.766013 28.326527,70.259520 C 24.642420,70.617881 19.598640,67.189306 18.815381,66.311465 z " id="path828" sodipodi:nodetypes="ccccccccccccc" style="fill:#008400;fill-rule:evenodd;stroke:#000000;stroke-width:1.2500000;stroke-linejoin:round;stroke-dasharray:none;fill-opacity:1.0000000;"/>
      <path d="M 70.329470,23.446570 C 70.329470,31.642344 62.020523,38.293988 51.782713,38.293988 C 41.544909,38.293988 33.235956,31.642344 33.235956,23.446570 C 33.235956,15.250797 41.544909,8.5991520 51.782713,8.5991520 C 62.020523,8.5991520 70.329470,15.250797 70.329470,23.446570 z " id="path827" style="fill:#008400;fill-rule:evenodd;stroke:#000000;stroke-width:1.2500000;stroke-dasharray:none;stroke-linejoin:round;fill-opacity:1.0000000;"/>
      <path d="M 51.511942,9.7194887 C 43.435157,7.0272269 24.409841,21.026988 39.486506,33.590876 C 48.640196,31.796035 31.050752,17.257821 51.511942,9.7194887 z " id="path830" sodipodi:nodetypes="ccc" style="fill:#ffffff;fill-rule:evenodd;stroke:none;stroke-opacity:1;stroke-width:1pt;stroke-linejoin:miter;stroke-linecap:butt;fill-opacity:0.25000000;"/>
      <path d="M 42.178768,37.180559 C 41.281348,37.001075 29.255912,39.154884 24.948292,45.077860 C 21.358610,47.231669 17.948412,57.462265 19.384285,65.718533 C 21.179126,67.154406 24.589324,69.487700 25.486745,68.949248 C 30.512300,58.359684 13.640793,47.411153 42.178768,37.180559 z " id="path831" sodipodi:nodetypes="ccccc" style="fill:#ffffff;fill-rule:evenodd;stroke:none;stroke-opacity:1;stroke-width:1pt;stroke-linejoin:miter;stroke-linecap:butt;fill-opacity:0.25000000;"/>
      <path d="M 30.153332,55.128970 C 26.563649,66.077501 29.973848,85.641271 33.922499,92.102698 C 37.871149,93.359087 43.435157,93.897540 44.691545,93.538572 C 45.768450,84.384881 29.794364,85.641270 30.153332,55.128970 z " id="path832" sodipodi:nodetypes="cccc" style="fill:#ffffff;fill-rule:evenodd;stroke:none;stroke-opacity:1;stroke-width:1pt;stroke-linejoin:miter;stroke-linecap:butt;fill-opacity:0.25000000;"/>
      <path d="M 52.588846,37.539527 C 67.844996,33.411393 63.896346,17.078338 70.716742,21.565440 C 70.178290,24.975638 68.024480,37.001075 52.588846,37.539527 z " id="path833" sodipodi:nodetypes="ccc" style="fill:#000000;fill-rule:evenodd;stroke:none;stroke-opacity:1;stroke-width:1pt;stroke-linejoin:miter;stroke-linecap:butt;fill-opacity:0.25000000;"/>
      <path d="M 81.306305,70.564605 C 81.306305,70.564605 89.562574,68.949248 89.921543,67.333891 C 91.895869,61.051946 86.511345,46.154765 83.998567,43.641987 C 71.793647,39.334368 97.280392,68.590279 81.306305,70.564605 z " id="path834" sodipodi:nodetypes="cccc" style="fill:#000000;fill-rule:evenodd;stroke:none;stroke-opacity:1;stroke-width:1pt;stroke-linejoin:miter;stroke-linecap:butt;fill-opacity:0.25000000;"/>
      <path d="M 64.973251,93.538572 C 64.973251,93.538572 72.870552,94.077024 73.767972,92.641151 C 74.665393,91.205278 78.793528,78.641390 76.280750,72.538930 C 68.024480,65.718534 79.331980,93.359088 64.973251,93.538572 z " id="path835" sodipodi:nodetypes="cccc" style="fill:#000000;fill-rule:evenodd;stroke:none;stroke-opacity:1;stroke-width:1pt;stroke-linejoin:miter;stroke-linecap:butt;fill-opacity:0.23999999;"/>
    </g>
  </g>
</svg>
