<?xml version="1.0" encoding="UTF-8" standalone="no"?>
<!-- Created with Inkscape (http://www.inkscape.org/) --><svg height="90.000000pt" id="svg2" inkscape:export-filename="/datas/Projs/Cliparts Stocker/double_croche.png" inkscape:export-xdpi="90.000000" inkscape:export-ydpi="90.000000" inkscape:version="0.42" sodipodi:docbase="/datas/Projs/Cliparts Stocker" sodipodi:docname="double_croche.svg" sodipodi:version="0.32" width="70.000000pt" xmlns="http://www.w3.org/2000/svg" xmlns:cc="http://web.resource.org/cc/" xmlns:dc="http://purl.org/dc/elements/1.1/" xmlns:inkscape="http://www.inkscape.org/namespaces/inkscape" xmlns:rdf="http://www.w3.org/1999/02/22-rdf-syntax-ns#" xmlns:sodipodi="http://inkscape.sourceforge.net/DTD/sodipodi-0.dtd" xmlns:svg="http://www.w3.org/2000/svg" xmlns:xlink="http://www.w3.org/1999/xlink">
  <metadata>
    <rdf:RDF xmlns:cc="http://web.resource.org/cc/" xmlns:dc="http://purl.org/dc/elements/1.1/" xmlns:rdf="http://www.w3.org/1999/02/22-rdf-syntax-ns#">
      <cc:Work rdf:about="">
        <dc:title>double_croche</dc:title>
        <dc:description>jean.victor.balin@gmail.com</dc:description>
        <dc:subject>
          <rdf:Bag>
            <rdf:li>musicsym</rdf:li>
            <rdf:li>music</rdf:li>
          </rdf:Bag>
        </dc:subject>
        <dc:publisher>
          <cc:Agent rdf:about="http://www.openclipart.org/">
            <dc:title>Open Clip Art Library</dc:title>
          </cc:Agent>
        </dc:publisher>
        <dc:creator>
          <cc:Agent>
            <dc:title>Jean-Victor Balin</dc:title>
          </cc:Agent>
        </dc:creator>
        <dc:rights>
          <cc:Agent>
            <dc:title>Jean-Victor Balin</dc:title>
          </cc:Agent>
        </dc:rights>
        <dc:date>2005-08-15</dc:date>
        <dc:format>image/svg+xml</dc:format>
        <dc:type rdf:resource="http://purl.org/dc/dcmitype/StillImage"/>
        <cc:license rdf:resource="http://web.resource.org/cc/PublicDomain"/>
        <dc:language>en</dc:language>
      </cc:Work>
      <cc:License rdf:about="http://web.resource.org/cc/PublicDomain">
        <cc:permits rdf:resource="http://web.resource.org/cc/Reproduction"/>
        <cc:permits rdf:resource="http://web.resource.org/cc/Distribution"/>
        <cc:permits rdf:resource="http://web.resource.org/cc/DerivativeWorks"/>
      </cc:License>
    </rdf:RDF>
  </metadata>
  <defs id="defs4">
    <linearGradient id="linearGradient3016" inkscape:collect="always">
      <stop id="stop3018" offset="0" style="stop-color:#949494;stop-opacity:1;"/>
      <stop id="stop3020" offset="1" style="stop-color:#949494;stop-opacity:0;"/>
    </linearGradient>
    <linearGradient gradientUnits="userSpaceOnUse" id="linearGradient10820" inkscape:collect="always" x1="91.111488" x2="89.799461" xlink:href="#linearGradient10023" y1="12.215436" y2="129.93967"/>
    <linearGradient gradientUnits="userSpaceOnUse" id="linearGradient10818" inkscape:collect="always" x1="46.517174" x2="46.517174" xlink:href="#linearGradient10794" y1="14.790077" y2="138.12024"/>
    <linearGradient gradientUnits="userSpaceOnUse" id="linearGradient10816" inkscape:collect="always" x1="78.296486" x2="76.947044" xlink:href="#linearGradient10023" y1="9.1397552" y2="32.225971"/>
    <radialGradient cx="16.886499" cy="97.809586" fx="16.886499" fy="97.809586" gradientTransform="matrix(2.458955,1.526647,-1.158802,2.208712,89.00299,-144.3754)" gradientUnits="userSpaceOnUse" id="radialGradient10814" inkscape:collect="always" r="7.3950380" xlink:href="#linearGradient10782"/>
    <radialGradient cx="16.073729" cy="98.385017" fx="16.073729" fy="98.385017" gradientTransform="matrix(2.756185,-0.499238,0.651402,2.589041,-91.83184,-148.8130)" gradientUnits="userSpaceOnUse" id="radialGradient10812" inkscape:collect="always" r="7.3950380" xlink:href="#linearGradient10765"/>
    <linearGradient gradientUnits="userSpaceOnUse" id="linearGradient10802" inkscape:collect="always" x1="91.111488" x2="89.799461" xlink:href="#linearGradient10023" y1="12.215436" y2="129.93967"/>
    <linearGradient gradientUnits="userSpaceOnUse" id="linearGradient10800" inkscape:collect="always" x1="46.517174" x2="46.517174" xlink:href="#linearGradient10794" y1="14.790077" y2="138.12024"/>
    <linearGradient gradientUnits="userSpaceOnUse" id="linearGradient10792" inkscape:collect="always" x1="78.296486" x2="76.947044" xlink:href="#linearGradient10023" y1="9.1397552" y2="32.225971"/>
    <radialGradient cx="16.886499" cy="97.809586" fx="16.886499" fy="97.809586" gradientTransform="matrix(2.458955,1.526647,-1.158802,2.208712,89.00299,-144.3754)" gradientUnits="userSpaceOnUse" id="radialGradient10788" inkscape:collect="always" r="7.3950380" xlink:href="#linearGradient10782"/>
    <radialGradient cx="16.073729" cy="98.385017" fx="16.073729" fy="98.385017" gradientTransform="matrix(2.756185,-0.499238,0.651402,2.589041,-91.83184,-148.8130)" gradientUnits="userSpaceOnUse" id="radialGradient10771" inkscape:collect="always" r="7.3950380" xlink:href="#linearGradient10765"/>
    <linearGradient id="linearGradient10023" inkscape:collect="always">
      <stop id="stop10025" offset="0" style="stop-color:#bdbdbd;stop-opacity:1;"/>
      <stop id="stop10027" offset="1" style="stop-color:#bdbdbd;stop-opacity:0;"/>
    </linearGradient>
    <linearGradient id="linearGradient10765" inkscape:collect="always">
      <stop id="stop10767" offset="0" style="stop-color:#989898;stop-opacity:1;"/>
      <stop id="stop10769" offset="1" style="stop-color:#989898;stop-opacity:0;"/>
    </linearGradient>
    <linearGradient id="linearGradient10782" inkscape:collect="always">
      <stop id="stop10784" offset="0" style="stop-color:#989898;stop-opacity:1;"/>
      <stop id="stop10786" offset="1" style="stop-color:#989898;stop-opacity:0;"/>
    </linearGradient>
    <linearGradient id="linearGradient10794" inkscape:collect="always">
      <stop id="stop10796" offset="0" style="stop-color:#989898;stop-opacity:1;"/>
      <stop id="stop10798" offset="1" style="stop-color:#989898;stop-opacity:0;"/>
    </linearGradient>
    <radialGradient cx="16.073729" cy="98.385017" fx="16.073729" fy="98.385017" gradientTransform="matrix(2.277654,1.814482,-1.554691,2.313904,142.4194,-168.8005)" gradientUnits="userSpaceOnUse" id="radialGradient1486" inkscape:collect="always" r="7.3950380" xlink:href="#linearGradient10765"/>
    <radialGradient cx="16.886499" cy="97.809586" fx="16.886499" fy="97.809586" gradientTransform="matrix(0.507302,2.992059,-2.503033,0.629017,307.6498,-19.14050)" gradientUnits="userSpaceOnUse" id="radialGradient1484" inkscape:collect="always" r="7.3950380" xlink:href="#linearGradient10782"/>
    <linearGradient gradientTransform="translate(9.233222,-0.911224)" gradientUnits="userSpaceOnUse" id="linearGradient1482" inkscape:collect="always" x1="78.296486" x2="76.947044" xlink:href="#linearGradient10023" y1="9.1397552" y2="32.225971"/>
    <linearGradient gradientTransform="translate(8.756123,-0.911224)" gradientUnits="userSpaceOnUse" id="linearGradient1480" inkscape:collect="always" x1="46.517174" x2="46.517174" xlink:href="#linearGradient10794" y1="14.790077" y2="138.12024"/>
    <linearGradient gradientTransform="translate(9.009143,-1.079904)" gradientUnits="userSpaceOnUse" id="linearGradient1478" inkscape:collect="always" x1="91.111488" x2="89.799461" xlink:href="#linearGradient10023" y1="12.215436" y2="129.93967"/>
    <linearGradient gradientUnits="userSpaceOnUse" id="linearGradient1476" inkscape:collect="always" x1="91.111488" x2="89.799461" xlink:href="#linearGradient10023" y1="12.215436" y2="129.93967"/>
    <linearGradient gradientUnits="userSpaceOnUse" id="linearGradient1474" inkscape:collect="always" x1="46.517174" x2="46.517174" xlink:href="#linearGradient10794" y1="14.790077" y2="138.12024"/>
    <linearGradient gradientUnits="userSpaceOnUse" id="linearGradient1472" inkscape:collect="always" x1="78.296486" x2="76.947044" xlink:href="#linearGradient10023" y1="9.1397552" y2="32.225971"/>
    <radialGradient cx="16.886499" cy="97.809586" fx="16.886499" fy="97.809586" gradientTransform="matrix(2.458955,1.526647,-1.158802,2.208712,89.00299,-144.3754)" gradientUnits="userSpaceOnUse" id="radialGradient1470" inkscape:collect="always" r="7.3950380" xlink:href="#linearGradient10782"/>
    <radialGradient cx="16.073729" cy="98.385017" fx="16.073729" fy="98.385017" gradientTransform="matrix(2.756185,-0.499238,0.651402,2.589041,-91.83184,-148.8130)" gradientUnits="userSpaceOnUse" id="radialGradient1468" inkscape:collect="always" r="7.3950380" xlink:href="#linearGradient10765"/>
    <linearGradient gradientUnits="userSpaceOnUse" id="linearGradient1466" inkscape:collect="always" x1="91.111488" x2="89.799461" xlink:href="#linearGradient10023" y1="12.215436" y2="129.93967"/>
    <linearGradient gradientUnits="userSpaceOnUse" id="linearGradient1464" inkscape:collect="always" x1="46.517174" x2="46.517174" xlink:href="#linearGradient10794" y1="14.790077" y2="138.12024"/>
    <linearGradient gradientUnits="userSpaceOnUse" id="linearGradient1462" inkscape:collect="always" x1="78.296486" x2="76.947044" xlink:href="#linearGradient10023" y1="9.1397552" y2="32.225971"/>
    <radialGradient cx="16.886499" cy="97.809586" fx="16.886499" fy="97.809586" gradientTransform="matrix(2.458955,1.526647,-1.158802,2.208712,89.00299,-144.3754)" gradientUnits="userSpaceOnUse" id="radialGradient1460" inkscape:collect="always" r="7.3950380" xlink:href="#linearGradient10782"/>
    <radialGradient cx="16.073729" cy="98.385017" fx="16.073729" fy="98.385017" gradientTransform="matrix(2.756185,-0.499238,0.651402,2.589041,-91.83184,-148.8130)" gradientUnits="userSpaceOnUse" id="radialGradient1458" inkscape:collect="always" r="7.3950380" xlink:href="#linearGradient10765"/>
    <linearGradient gradientTransform="translate(11.97038,11.80815)" gradientUnits="userSpaceOnUse" id="linearGradient1540" inkscape:collect="always" x1="46.517174" x2="46.517174" xlink:href="#linearGradient10794" y1="14.790077" y2="138.12024"/>
    <radialGradient cx="16.073729" cy="98.385017" fx="16.073729" fy="98.385017" gradientTransform="matrix(2.277654,1.814482,-1.554691,2.313904,145.6337,-156.0811)" gradientUnits="userSpaceOnUse" id="radialGradient1549" inkscape:collect="always" r="7.3950380" xlink:href="#linearGradient10765"/>
    <linearGradient gradientUnits="userSpaceOnUse" id="linearGradient3022" inkscape:collect="always" x1="57.073624" x2="103.28809" xlink:href="#linearGradient3016" y1="27.309885" y2="104.58656"/>
    <radialGradient cx="16.073729" cy="98.385017" fx="16.073729" fy="98.385017" gradientTransform="matrix(2.277654,1.814482,-1.554691,2.313904,145.6337,-156.0811)" gradientUnits="userSpaceOnUse" id="radialGradient3031" inkscape:collect="always" r="7.3950380" xlink:href="#linearGradient10765"/>
    <linearGradient gradientTransform="translate(11.97038,11.80815)" gradientUnits="userSpaceOnUse" id="linearGradient3033" inkscape:collect="always" x1="46.517174" x2="46.517174" xlink:href="#linearGradient10794" y1="14.790077" y2="138.12024"/>
    <linearGradient gradientUnits="userSpaceOnUse" id="linearGradient3035" inkscape:collect="always" x1="57.073624" x2="103.28809" xlink:href="#linearGradient3016" y1="27.309885" y2="104.58656"/>
    <radialGradient cx="16.073729" cy="98.385017" fx="16.073729" fy="98.385017" gradientTransform="matrix(2.277654,1.814482,-1.554691,2.313904,145.6337,-156.0811)" gradientUnits="userSpaceOnUse" id="radialGradient1365" inkscape:collect="always" r="7.3950380" xlink:href="#linearGradient10765"/>
    <linearGradient gradientTransform="translate(11.97038,11.80815)" gradientUnits="userSpaceOnUse" id="linearGradient1367" inkscape:collect="always" x1="46.517174" x2="46.517174" xlink:href="#linearGradient10794" y1="14.790077" y2="138.12024"/>
    <linearGradient gradientUnits="userSpaceOnUse" id="linearGradient1369" inkscape:collect="always" x1="57.073624" x2="103.28809" xlink:href="#linearGradient3016" y1="27.309885" y2="104.58656"/>
    <linearGradient gradientTransform="translate(68.82872,-24.47025)" gradientUnits="userSpaceOnUse" id="linearGradient1372" inkscape:collect="always" x1="57.073624" x2="103.28809" xlink:href="#linearGradient3016" y1="27.309885" y2="104.58656"/>
    <linearGradient gradientTransform="translate(80.79910,-12.66210)" gradientUnits="userSpaceOnUse" id="linearGradient1375" inkscape:collect="always" x1="46.517174" x2="46.517174" xlink:href="#linearGradient10794" y1="14.790077" y2="138.12024"/>
    <radialGradient cx="16.073729" cy="98.385017" fx="16.073729" fy="98.385017" gradientTransform="matrix(2.277654,1.814482,-1.554691,2.313904,214.4624,-180.5513)" gradientUnits="userSpaceOnUse" id="radialGradient1378" inkscape:collect="always" r="7.3950380" xlink:href="#linearGradient10765"/>
    <linearGradient gradientTransform="translate(68.82872,-24.47025)" gradientUnits="userSpaceOnUse" id="linearGradient1385" inkscape:collect="always" x1="57.073624" x2="103.28809" xlink:href="#linearGradient3016" y1="27.309885" y2="104.58656"/>
    <linearGradient gradientTransform="matrix(0.998424,5.612358e-2,-5.612358e-2,0.998424,-11.40010,-7.493561)" gradientUnits="userSpaceOnUse" id="linearGradient1388" inkscape:collect="always" x1="57.073624" x2="103.28809" xlink:href="#linearGradient3016" y1="27.309885" y2="104.58656"/>
    <linearGradient gradientTransform="translate(-13.32707,-18.22025)" gradientUnits="userSpaceOnUse" id="linearGradient1392" inkscape:collect="always" x1="57.073624" x2="103.28809" xlink:href="#linearGradient3016" y1="27.309885" y2="104.58656"/>
    <linearGradient gradientTransform="translate(-1.356690,-6.412100)" gradientUnits="userSpaceOnUse" id="linearGradient1395" inkscape:collect="always" x1="46.517174" x2="46.517174" xlink:href="#linearGradient10794" y1="14.790077" y2="138.12024"/>
    <radialGradient cx="16.073729" cy="98.385017" fx="16.073729" fy="98.385017" gradientTransform="matrix(2.277654,1.814482,-1.554691,2.313904,132.3066,-174.3013)" gradientUnits="userSpaceOnUse" id="radialGradient1398" inkscape:collect="always" r="7.3950380" xlink:href="#linearGradient10765"/>
    <linearGradient gradientTransform="translate(-13.32707,-18.22025)" gradientUnits="userSpaceOnUse" id="linearGradient1417" inkscape:collect="always" x1="57.073624" x2="103.28809" xlink:href="#linearGradient3016" y1="27.309885" y2="104.58656"/>
    <linearGradient gradientTransform="matrix(0.998424,5.612358e-2,-5.612358e-2,0.998424,-11.40010,-7.493561)" gradientUnits="userSpaceOnUse" id="linearGradient1419" inkscape:collect="always" x1="57.073624" x2="103.28809" xlink:href="#linearGradient3016" y1="27.309885" y2="104.58656"/>
    <radialGradient cx="16.073729" cy="98.385017" fx="16.073729" fy="98.385017" gradientTransform="matrix(2.277654,1.814482,-1.554691,2.313904,132.3066,-174.3013)" gradientUnits="userSpaceOnUse" id="radialGradient1421" inkscape:collect="always" r="7.3950380" xlink:href="#linearGradient10765"/>
    <linearGradient gradientTransform="translate(-1.356690,-6.412100)" gradientUnits="userSpaceOnUse" id="linearGradient1423" inkscape:collect="always" x1="46.517174" x2="46.517174" xlink:href="#linearGradient10794" y1="14.790077" y2="138.12024"/>
  </defs>
  <sodipodi:namedview bordercolor="#666666" borderopacity="1.0" id="base" inkscape:current-layer="layer1" inkscape:cx="43.750000" inkscape:cy="56.250000" inkscape:document-units="px" inkscape:pageopacity="0.0" inkscape:pageshadow="2" inkscape:window-height="693" inkscape:window-width="1024" inkscape:window-x="0" inkscape:window-y="25" inkscape:zoom="4.6577778" pagecolor="#ffffff"/>
  <g id="layer1" inkscape:groupmode="layer" inkscape:label="Calque 1">
    <path d="" id="path1316" style="fill:#000000"/>
    <g id="g1408">
      <path d="M 44.235430,9.8735000 C 43.837100,9.9137970 43.496668,10.065304 43.235430,10.342250 C 46.173108,17.103151 47.295169,26.565776 47.141680,31.811000 C 46.854333,41.546232 45.859581,48.644767 44.422930,56.873500 C 43.021235,64.902020 40.232462,72.168282 37.672930,79.686000 C 35.829595,85.679620 31.943526,79.694049 29.172930,78.467250 C 25.179758,76.699105 21.664878,76.577526 17.797930,78.467250 C 13.930981,80.356980 11.767245,83.143830 10.797930,87.529750 C 9.8504130,91.817030 12.041932,97.128080 15.610430,100.02975 C 19.076432,102.84808 24.203048,103.22656 28.360430,101.90475 C 32.463528,100.48377 36.163630,96.611990 37.704180,92.592250 C 38.492919,90.722800 38.957681,89.895520 39.891680,86.936000 C 40.825677,83.976480 42.072042,79.639407 43.110430,75.936000 C 45.021455,69.120338 47.673305,62.909871 49.329180,47.561000 C 49.709158,44.469730 50.479479,36.316494 50.579180,29.029750 C 50.590152,28.227875 50.804264,28.207877 50.922930,28.186000 C 51.621655,28.057186 53.232120,29.257964 55.547930,30.779750 C 57.863758,32.301537 61.053620,34.335823 62.610430,35.279750 C 70.254828,39.914763 74.310180,45.931227 74.672930,53.154750 C 74.926318,58.200428 74.005880,62.113720 71.204180,68.154750 C 70.146548,70.435253 70.021910,70.951980 70.391680,71.186000 C 71.095378,71.631303 71.208640,71.561390 72.172930,70.154750 C 75.183448,65.763263 76.939950,59.197032 76.922930,52.436000 C 76.912338,48.226138 76.315628,45.655620 75.172930,42.998500 C 73.587908,39.312843 69.828560,34.351456 64.954180,29.217250 C 62.354038,26.478490 59.821890,23.801822 59.329180,23.279750 C 55.865108,19.609297 51.046285,14.630670 50.152625,11.368424 C 49.977919,10.730666 45.430421,9.7526100 44.235430,9.8735000 z " id="path1318" sodipodi:nodetypes="cccscssssccsscsssssssssssssc" style="fill:#000000"/>
      <path d="M 52.287777,16.184731 C 53.241671,25.480702 58.792503,31.833238 61.079180,33.311000 C 61.749626,33.738572 62.575062,34.299883 62.954180,34.529750 C 70.747787,39.255232 75.015601,45.540802 75.391680,53.029750 C 75.650750,58.188511 74.657169,62.275785 71.829180,68.373500 C 71.418599,69.258811 71.278319,69.676407 71.141680,70.061000 C 71.273467,69.898295 71.268553,69.939865 71.485430,69.623500 C 74.372666,65.411848 76.095861,58.968812 76.079180,52.342250 C 76.068737,48.190396 75.625225,45.741249 74.422930,43.248500 C 74.286912,42.966497 73.604675,41.683726 72.954180,40.467250 C 72.303685,39.250774 71.653670,38.066976 71.516680,37.811000 C 71.095191,37.023447 69.198147,34.783254 64.329180,29.654750 C 61.728428,26.915345 59.199037,24.241597 58.704180,23.717250 C 56.513977,21.396558 53.663583,18.662865 52.287777,16.184731 z " id="path3014" sodipodi:nodetypes="ccssscsssssssc" style="fill:url(#linearGradient1417);fill-opacity:1.0000000"/>
      <g id="g1404">
        <path d="M 49.753599,43.268621 C 49.809555,42.468625 50.024450,42.460675 50.144161,42.445493 C 50.849019,42.356097 52.389549,43.645368 54.616302,45.294727 C 56.843074,46.944088 59.913735,49.154195 61.415115,50.184008 C 68.787334,55.240747 72.498627,61.475330 72.455395,68.707827 C 72.425205,73.759774 71.286587,77.615241 68.150258,83.489509 C 66.966305,85.707060 66.812861,86.215977 67.168914,86.470381 C 67.846513,86.954476 67.963519,86.891030 69.005235,85.540726 C 72.257476,81.325122 74.379728,74.867820 74.742188,68.116488 C 74.967887,63.912667 74.516385,61.312710 73.524613,58.595645 C 72.148943,54.826840 68.673968,49.662284 64.095420,44.262602 C 61.653087,41.382229 59.275152,38.567666 58.812519,38.018764 C 55.559907,34.159680 51.028100,28.918450 50.318928,25.611189 C 50.180296,24.964631 49.245098,50.538285 49.753599,43.268621 z " id="path1357" sodipodi:nodetypes="csssssssssssss" style="fill:#000000"/>
        <path d="M 52.180414,30.539738 C 52.611078,39.874595 57.796633,46.528651 59.996771,48.132421 C 60.642168,48.596947 61.434794,49.203700 61.800416,49.454482 C 69.316532,54.609922 73.224847,61.125111 73.180028,68.623363 C 73.149162,73.788534 71.927755,77.813603 68.761996,83.742991 C 68.302377,84.603864 68.138881,85.012929 67.980871,85.389247 C 68.121585,85.234195 68.114340,85.275423 68.348634,84.971729 C 71.467696,80.928756 73.549777,74.592586 73.905030,67.975532 C 74.127623,63.829635 73.822267,61.359456 72.761764,58.803159 C 72.641785,58.513966 72.032624,57.194928 71.451422,55.943860 C 70.870220,54.692793 70.287674,53.474380 70.165266,53.211119 C 69.788640,52.401152 68.020318,50.058021 63.446851,44.664335 C 61.003945,41.783284 58.628602,38.971791 58.163950,38.420497 C 56.107447,35.980541 53.414964,33.091182 52.180414,30.539738 z " id="path1363" sodipodi:nodetypes="ccssscsssssssc" style="fill:url(#linearGradient1419);fill-opacity:1.0000000"/>
      </g>
      <path d="M 25.387558,92.791450 C 21.213325,96.550990 15.551740,97.003300 12.750091,93.801070 C 9.9484410,90.598830 11.062423,84.948700 15.236656,81.189156 C 19.410888,77.429615 25.072473,76.977308 27.874122,80.179542 C 30.666150,83.370780 29.573052,88.990840 25.428276,92.754630" id="path2279" style="fill:url(#radialGradient1421);fill-opacity:1.0000000;stroke:none;stroke-width:2.5000000;stroke-linecap:round;stroke-linejoin:round;stroke-miterlimit:4.0000000;stroke-opacity:1.0000000"/>
      <path d="M 45.143309,10.306646 C 44.848364,10.286018 44.576728,10.300372 44.205809,10.337896 C 43.956665,10.363101 43.826630,10.455456 43.674559,10.556646 C 46.546647,17.382378 47.640196,26.604687 47.487059,31.837896 C 47.199059,41.595299 46.206325,48.726343 44.768309,56.962896 C 43.360104,65.028707 40.665957,72.182432 38.112059,79.681646 C 38.477718,79.331346 39.430515,77.634391 39.921696,76.125110 C 42.464475,68.311756 44.252329,65.051098 46.643309,50.087896 C 46.642915,50.077483 46.642915,50.067059 46.643309,50.056646 L 46.705809,49.806646 C 46.707450,49.796238 46.704171,49.785802 46.705809,49.775396 C 49.010294,35.139321 49.041154,22.350786 45.987059,10.494146 C 45.668228,10.412324 45.378286,10.323080 45.143309,10.306646 z " id="path7829" sodipodi:nodetypes="csccscscccscc" style="fill:url(#linearGradient1423);fill-opacity:1.0000000"/>
    </g>
  </g>
</svg>
