<?xml version="1.0" encoding="utf-8"?>
<!-- Generator: Adobe Illustrator 10.0, SVG Export Plug-In . SVG Version: 3.0.0 Build 77)  --><svg enable-background="new 0 0 395.588 435.493" height="435.493" i:pageBounds="0 792 612 0" i:rulerOrigin="0 0" i:viewOrigin="104.2637 613.1807" overflow="visible" space="preserve" viewBox="0 0 395.588 435.493" width="395.588" xmlns="http://www.w3.org/2000/svg" xmlns:a="http://ns.adobe.com/AdobeSVGViewerExtensions/3.0/" xmlns:graph="http://ns.adobe.com/Graphs/1.0/" xmlns:i="http://ns.adobe.com/AdobeIllustrator/10.0/" xmlns:x="http://ns.adobe.com/Extensibility/1.0/" xmlns:xlink="http://www.w3.org/1999/xlink">
  <metadata>
    <rdf:RDF xmlns:cc="http://web.resource.org/cc/" xmlns:dc="http://purl.org/dc/elements/1.1/" xmlns:rdf="http://www.w3.org/1999/02/22-rdf-syntax-ns#">
      <cc:Work rdf:about="">
        <dc:title>Tenor Trombone</dc:title>
        <dc:description>Tenor Trombone.</dc:description>
        <dc:subject>
          <rdf:Bag>
            <rdf:li>music</rdf:li>
            <rdf:li>equipment</rdf:li>
            <rdf:li>trombone</rdf:li>
          </rdf:Bag>
        </dc:subject>
        <dc:publisher>
          <cc:Agent rdf:about="http://www.openclipart.org/">
            <dc:title>Open Clip Art Project</dc:title>
          </cc:Agent>
        </dc:publisher>
        <dc:creator>
          <cc:Agent rdf:about="http://web.resource.org/cc/PublicDomain">
            <dc:title>Gerald G.</dc:title>
          </cc:Agent>
        </dc:creator>
        <dc:rights>
          <cc:Agent rdf:about="http://web.resource.org/cc/PublicDomain">
            <dc:title>Public Domain</dc:title>
          </cc:Agent>
        </dc:rights>
        <dc:date>2005-04-22</dc:date>
        <dc:format>image/svg+xml</dc:format>
        <dc:type rdf:resource="http://purl.org/dc/dcmitype/StillImage"/>
        <cc:license rdf:resource="http://web.resource.org/cc/PublicDomain"/>
        <dc:language>en</dc:language>
      </cc:Work>
      <cc:License rdf:about="http://web.resource.org/cc/PublicDomain">
        <cc:permits rdf:resource="http://web.resource.org/cc/Reproduction"/>
        <cc:permits rdf:resource="http://web.resource.org/cc/Distribution"/>
        <cc:permits rdf:resource="http://web.resource.org/cc/DerivativeWorks"/>
      </cc:License>
    </rdf:RDF>
  </metadata>
  <g i:dimmedPercent="50" i:layer="yes" i:rgbTrio="#4F008000FFFF" id="Layer_1">
    <g>
      <path clip-rule="evenodd" d="     M271.406,163.016c2.608-1.762,5.027-3.455,7.383-5.018c2.321-1.737,4.336-3.419,6.738-4.564c2.415-1.177,5.347-2.353,7.281-2.245     c1.739,0.017,2.661,0.684,3.451,2.483c0.77,1.669,1.697,4.366,1.037,7.911c-0.695,3.45-2.277,6.843-5.559,12.859     c-3.447,5.94-9.743,15.954-14.508,22.589c-4.703,6.426-8.162,10.692-13.534,16.251c-5.503,5.497-13.155,12.535-18.857,16.589     c-5.741,3.877-11.54,6.178-14.905,6.832c-3.432,0.546-4.841-0.35-5.049-3.228c-0.133-3.12,2.81-10.964,4.03-14.605     c1.091-3.702,1.985-4.516,2.689-7.047c0.635-2.723,2.252-4.829,1.443-8.542c-0.861-3.778-1.675-7.653-6.145-13.828     c-4.604-6.397-12.313-14.996-20.631-23.563c-8.271-8.584-16.943-17.076-28.796-27.688     c-12.054-10.864-27.432-23.715-42.418-36.383c-15.039-12.812-30.981-25.728-46.859-39.209     c-16.011-13.623-37.056-32.294-47.93-41.258c-10.81-8.933-12.102-10.251-16.339-12.067c-4.193-1.996-6.348-0.697-8.616,0.589     c-2.318,1.223-3.675,4.046-5.099,6.759c-1.586,2.637-3.188,5.305-3.524,8.922c-0.26,3.454-0.22,7.286,1.98,11.768     c2.18,4.353,5.29,8.504,11.2,14.398c6.02,5.747,13.562,11.21,24.105,20.456c10.431,9.233,27.162,24.463,38.153,34.712     c10.873,10.075,18.758,18.122,26.99,25.853c8.2,7.716,8.591,6.707,21.983,19.982c13.456,13.226,39.39,39.896,57.953,58.523     c18.507,18.322,34.58,34.198,52.252,51.496c17.608,17.267,35.421,34.947,52.447,51.507     c16.939,16.398,35.719,34.649,48.157,46.646c12.257,11.793,18.536,17.58,25.349,24.095c6.789,6.224,11.383,10.432,15.189,14.192     c3.693,3.748,6.004,5.183,7.37,8.641c1.303,3.428,1.072,8.604,0.635,12.014c-0.444,3.249-1.469,5.789-3.245,7.98     c-1.907,2.13-4.143,4.623-7.705,5.026c-3.65,0.244-6.949,1.526-13.549-3.061c-6.607-4.829-12.926-12.741-25.469-24.945     c-12.639-12.248-27.451-26.227-49.38-47.772c-22.063-21.768-55.83-55.667-81.489-81.138     c-25.745-25.629-52.275-51.703-71.299-70.704c-18.961-19.05-32.415-32.792-41.372-42.291c0.363-1.46,1.176-2.352,2.202-3.104     c1.011-0.72,2.371-1.08,4.078-1.077c13.347,13.969,27.464,28.417,43.003,44.243c15.472,15.715,22.257,22.375,49.362,49.433     c27.219,27.15,87.695,87.248,112.097,111.497c24.163,23.739,22.695,21.863,32.257,31.089c9.51,9.161,18.26,18.763,24.438,23.828     c5.979,4.894,8.867,5.685,11.819,5.829c3.093,0.013,5.694-2.668,5.985-5.51c0.095-3.015,0.176-5.997-5.087-12.343     c-5.428-6.504-11.626-11.698-26.402-26.095c-14.868-14.798-46.144-45.43-61.353-60.347c-15.045-14.842-5.924-5.186-28.797-27.689     c-23.219-22.783-82.498-81.527-108.414-106.958c-25.706-25.373-29.117-28.791-45.143-44.168     c-16.145-15.552-36.328-35.132-50.371-48.036C42.61,80.557,32.111,71.808,23.856,64.383c-8.306-7.488-12.367-9.938-16.407-15.754     c-4.001-6.156-7.022-12.966-7.431-19.671c-0.476-6.816,1.859-15.062,4.594-19.903c2.828-4.957,6.94-7.727,11.715-8.599     c4.663-0.884,8.706-0.866,16.254,3.647c7.5,4.53,15.667,12.827,28.543,23.121c12.937,10.164,32.878,25.58,48.262,37.48     c15.294,11.581,24.892,19.79,42.915,32.762c18.073,13.035,49.011,34.85,64.217,44.919c14.987,9.77,17.966,10.88,25.258,14.32     c7.178,3.347,12.833,5.189,17.855,6.26C264.54,164.025,268.485,163.997,271.406,163.016z" fill="#8E935D" fill-rule="evenodd" i:knockout="Off" stroke="#8E935D" stroke-miterlimit="10" stroke-width="0.036"/>
      <path clip-rule="evenodd" d="M229.049,218.497     c1.379-3.21,3.337-6.984,5.938-11.452c2.596-4.628,5.314-9.438,9.616-15.257c4.315-5.932,10.701-14.514,15.828-19.63     c4.961-5.273,9.507-8.04,13.93-11.22c4.353-3.373,9.96-6.875,11.99-7.994c1.951-1.116,1.954-0.36,0.005,1.353     c-2.003,1.568-7.861,5.271-11.544,8.4c-3.78,3.083-7.171,6.348-10.612,10.067c1.771,1.144,2.893,2.739,3.507,5.17     c0.613,2.352,1.437,4.841-0.015,8.891c-1.629,4.007-5.705,11.044-8.909,14.674c-3.192,3.357-6.857,6.017-9.871,5.923     c-3.064-0.158-5.8-2.467-8.271-6.796c-2.343,3.833-4.493,7.08-6.258,10.269c-1.804,3.013-3.822,6.917-4.605,8.26     C228.906,220.337,228.565,220.218,229.049,218.497z" fill="#4D513C" fill-rule="evenodd" i:knockout="Off"/>
      <path clip-rule="evenodd" d="M251.297,184.502     c1.531-2.345,3.191-4.629,5.174-6.922c1.994-2.487,4.195-4.995,6.364-7.002c2.167-2.008,5.706-5.165,5.896-4.639     c0.062,0.465-1.806,2.852-5.532,7.351c1.044,0.487,2.033,1.346,2.778,2.646c0.841,1.266,1.652,3.272,1.904,4.859     c0.15,1.381-0.378,3.796-0.688,3.692c-0.269-0.363-0.472-3.676-1.102-4.963c-0.794-1.283-1.774-3.012-3.129-2.492     c-1.277,0.437-2.947,3.511-4.611,5.119c-1.829,1.451-4.364,3.565-5.623,4.051C251.547,186.605,251.048,185.975,251.297,184.502z" fill="#8E935D" fill-rule="evenodd" i:knockout="Off"/>
      <path clip-rule="evenodd" d="M253.883,182.451     c0.581-1.08,1.996-2.922,2.972-3.818c0.986-1.01,2.782-2.476,2.785-1.799c-0.11,0.663-2.034,3.937-3.106,5.383     c-1.139,1.336-2.988,2.063-3.434,2.252C252.711,184.368,253.152,183.421,253.883,182.451z" fill="#E5E1AB" fill-rule="evenodd" i:knockout="Off"/>
      <path clip-rule="evenodd" d="M260.58,173.539     c0.556-0.933,3.677-3.966,3.857-3.842c0.017,0.047-2.611,4.065-3.238,4.727C260.492,175.006,260.086,174.261,260.58,173.539z" fill="#E5E1AB" fill-rule="evenodd" i:knockout="Off"/>
      <path clip-rule="evenodd" d="M243.903,199.763     c1.566,1.327,3.008,2.237,4.623,2.434c1.539,0.281,3.021-0.259,4.543-1.139c-1.112-0.082-1.706-0.597-1.948-1.187     c-0.279-0.765-0.087-2.027,0.712-2.806c0.88-0.861,3.033-2.161,4.222-1.725c1.057,0.374,2.448,2.413,2.268,3.997     c-0.14,1.405-1.794,3.334-3.192,4.628c-1.528,1.234-3.834,2.343-5.632,2.538c-1.791-0.16-3.981-1.341-5.122-2.389     c-1.188-1.031-1.803-2.35-1.908-3.83C242.945,200.111,243.425,199.938,243.903,199.763z" fill="#8E935D" fill-rule="evenodd" i:knockout="Off"/>
      <path clip-rule="evenodd" d="M248.378,192.039     c0.283-0.861,1.515-3.503,2.422-3.915c0.792-0.505,1.917-0.02,2.553,0.912c0.681,0.754,1.208,2.946,1.061,4.029     c-0.293,1.055-2.029,2.311-2.516,2.243c-0.523-0.324,0.11-3.046-0.318-3.406c-0.428-0.358-1.986,0.941-2.451,1.082     C248.483,192.922,248.157,192.77,248.378,192.039z" fill="#E5E1AB" fill-rule="evenodd" i:knockout="Off"/>
      <path clip-rule="evenodd" d="M241.325,198.562     c0.563-1.207,3.358-5.584,4.159-6.362c0.747-0.923,1.056,0.374,0.477,1.533c-0.694,1.146-3.266,4.276-4.077,5.249     C241.017,199.649,240.793,199.703,241.325,198.562z" fill="#E5E1AB" fill-rule="evenodd" i:knockout="Off"/>
      <path clip-rule="evenodd" d="M249.729,180.196     c-1.281-0.319-2.521-0.301-3.648,0.245c-1.229,0.419-1.829,0.855-3.243,2.778c-1.319,1.808-3.015,4.592-4.895,8.284     c-1.543-2.229-2.488-3.266-2.709-3.051c-0.285,0.185,1.464,4.019,1.131,4.221c-0.466,0.061-3.226-3.649-3.545-3.559     c-0.226-0.026,2.072,3.31,1.726,3.625c-0.495,0.127-4.358-2.748-4.31-2.168c0.094,0.561,3.224,4.839,4.662,5.59     c1.319,0.576,2.161,0.134,3.388-1.558c1.126-1.818,3.089-7.219,4.032-8.646c1.004-1.558,1.659-0.577,2.055-0.233     c0.313,0.266-0.283,2.053-0.074,2.031c0.237-0.167,1.044-1.896,1.247-2.675c0.12-0.937-1.143-1.805-0.423-2.581     C245.808,181.625,247.366,180.921,249.729,180.196z" fill="#4D513C" fill-rule="evenodd" i:knockout="Off"/>
      <path clip-rule="evenodd" d="M8.386,5.73     c1.317-1.888,3.072-3.096,5.386-3.884c2.359-0.886,5.708-0.913,8.225-0.772c2.366-0.048,3.219-0.087,6.273,1.456     c3.137,1.622,7.52,4.658,11.946,8.113c4.26,3.217,7.54,6.574,13.749,11.574c6.207,4.92,14.246,10.933,23.187,18.082     c8.923,7.1,21.11,16.914,30.133,24.14c9.019,7.066,15.086,11.603,23.676,18.31c8.619,6.561,13.392,10.892,27.461,21.266     c14.12,10.437,43.813,31.433,56.395,40.398c12.495,8.726,12.549,8.354,18.17,11.889c5.505,3.441,11.979,6.34,14.874,8.564     c2.888,1.982,2.34,1.965,2.359,3.801c-0.086,1.629-1.715,6.231-2.667,6.74c-1.003,0.446-2.143-3.581-3.003-3.783     c-0.828-0.267-1.248,0.888-1.989,2.051c-0.861,0.909-2.501,3.918-2.65,3.809c-0.021-0.208,1.363-3.177,1.839-4.624     c0.311-1.603,2.746-2.056,0.26-4.646c-2.589-2.796-7.631-6.378-15.481-11.35c0.289,0.572-4.377-2.796-14.32-10.093     c-10.028-7.457-29.848-22.538-44.876-33.836c-15.099-11.49-32.691-24.618-44.621-33.875c-11.851-9.34-16.05-13.284-26.209-21.398     c-10.248-8.433-25.926-20.47-34.509-27.531C53.345,23.12,50.331,20.046,45.49,16.2c-4.893-3.989-8.808-7.007-12.139-9.235     c-3.365-2.324-4.735-3.559-7.557-4.239c-2.936-0.773-6.808-0.989-9.371-0.517c-2.551,0.36-4.445,1.781-5.778,2.509     C9.275,5.271,8.543,5.565,8.386,5.73z" fill="#4D513C" fill-rule="evenodd" i:knockout="Off"/>
      <path clip-rule="evenodd" d="M5.885,19.698     c0.259-1.15,0.064-4.736,0.896-6.692c0.811-2.164,2.437-3.948,4.076-5.249c1.557-1.379,3.431-2.333,5.717-2.379     c2.331-0.144,4.382,0.058,8.063,2.131c3.519,2.078,7.043,4.913,13.439,10.279c6.539,5.313,16.681,13.975,25.202,21.086     c8.434,6.872,12.734,10.427,24.832,20.517c12.032,10.06,31.669,26.128,47.121,39.331c15.384,13.092,34.092,28.768,44.955,38.44     c10.757,9.385,13.992,12.84,19.794,18.287c5.846,5.268,11.029,9.909,15.002,13.827c3.794,3.875,5.867,6.669,8.243,9.326     c2.359,2.609,4.396,4.711,6.368,6.107c2.014,1.217,4.423,1.586,5.447,1.349c0.889-0.459-0.42-2.421,0.162-3.5     c0.599-1.111,2.659-2.295,3.271-2.924c0.478-0.771,0.558-1.368,0.143-1.245c-0.402,0.012-1.485,1.055-2.227,1.624     c-0.73,0.374-1.628,0.592-2.13,1.072c-0.519,0.434-0.29,1.136-1.076,1.286c-0.854-0.041-1.252,0.727-3.988-1.582     c-2.789-2.452-6.068-6.921-12.645-13.006c-6.73-6.436-15.571-14.054-27.123-24.207c-11.682-10.214-29.681-25.876-41.966-36.331     c-12.254-10.521-14.619-12.775-31.047-26.354C99.8,66.947,62.804,36.825,49.175,25.505C35.742,14.276,39.544,17.28,35.87,14.256     c-3.774-3.15-6.444-5.348-9.21-6.996c-2.913-1.676-5.338-2.608-7.728-2.849c-2.426-0.336-4.752-0.032-6.599,0.776     c-1.818,0.662-3.34,2.137-4.346,3.614c-1.17,1.401-1.722,3.011-2.267,4.862c-0.563,1.803-0.76,4.611-0.745,5.77     C5.065,20.349,5.446,20.725,5.885,19.698z" fill="#4D513C" fill-rule="evenodd" i:knockout="Off"/>
      <path clip-rule="evenodd" d="M51.025,25.455     C66.109,37.573,77.87,47.108,87.056,54.411c9.136,7.239,10.942,8.479,18.269,14.318c7.259,5.729,14.701,11.661,24.977,19.949     s26.045,20.725,36.276,29.11c10.111,8.131,16.815,13.601,24.446,19.979c7.727,6.344,16.133,13.362,21.406,17.728     c5.138,4.144,7.211,5.746,9.393,7.2c2.097,1.295,2.435,1.254,3.295,0.94c0.938-0.476,1.25-2.595,1.888-2.854     c0.572-0.29,1.272,0.593,1.439,1.426c0.066,0.626-0.407,2.153-1.019,2.782c-0.725,0.616-1.783,0.758-3.168,0.747     c0.904,1.295,2.151,2.711,3.679,4.377c1.542,1.633,4.51,4.725,5.379,5.329c0.784,0.366,0.045-1.29-0.746-2.573     c-0.955-1.359-4.413-5.275-4.233-5.231c0.209-0.022,4.426,3.454,5.616,5.161c1.156,1.612,1.553,3.743,1.199,4.412     c-0.388,0.495-1.537,0.316-3.462-1.177c-1.932-1.735-2.754-3.549-7.991-8.334c-5.384-4.894-10.071-9.066-23.533-20.149     c-13.611-11.272-36.816-29.998-56.779-46.218c-19.916-16.238-46.375-37.95-61.641-50.273     C66.462,38.69,57.985,31.997,52.764,27.774C47.669,23.453,47.006,22.746,51.025,25.455z" fill="#4D513C" fill-rule="evenodd" i:knockout="Off"/>
      <path clip-rule="evenodd" d="M91.632,56.862     c-3.711-3.2-4.027-4.142-4.148-4.477c-0.205-0.413-0.416-1.068,3.402,1.904c3.898,2.97,11.123,8.603,19.45,15.107     c8.21,6.331,20.189,15.055,29.73,22.364c9.469,7.037,18.123,13.694,26.771,20.19c8.454,6.404,16.938,12.744,24.212,18.44     c7.302,5.55,14.39,10.881,19.621,14.909c5.097,3.807,8.628,6.287,11.184,8.472c2.486,1.994,3.368,3.001,4.177,4.332     c0.855,1.232,1.258,2.414,1.077,3.481c-0.182,0.987-0.118,2.725-1.928,2.517c-1.845-0.303-1.522,0.879-8.739-4.512     c-7.34-5.727-21.846-18.488-34.58-28.915c-12.883-10.535-29.035-23.43-41.289-33.354c-12.158-9.959-22.911-19.184-31.099-25.902     C101.25,64.604,95.341,59.982,91.632,56.862z" fill="#E5E1AB" fill-rule="evenodd" i:knockout="Off"/>
      <path clip-rule="evenodd" d="M138.693,97.516     c1.706,1.709,15.65,13.971,23.436,20.7c7.618,6.492,14.233,11.642,22.609,18.725c8.39,7.051,21.105,18.541,27.229,23.382     c5.988,4.62,7.943,4.856,8.67,4.917c0.707-0.068,0.394-0.333-4.653-4.672c-5.277-4.527-15.321-13.143-26.026-21.789     c-10.744-8.902-28.856-23.386-37.47-30.382C143.84,101.386,137.135,95.916,138.693,97.516z" fill="#E5E1AB" fill-rule="evenodd" i:knockout="Off"/>
      <path clip-rule="evenodd" d="M1.619,23.31     c-0.213,0.457-0.816,3.71-0.411,6.759c0.451,2.951,2.637,9.849,3.118,10.947c0.283,0.927-0.297-2.601-0.73-4.908     c-0.393-2.566-1.201-6.796-1.503-9.043C1.759,24.884,1.765,22.742,1.619,23.31z" fill="#4D513C" fill-rule="evenodd" i:knockout="Off"/>
      <path clip-rule="evenodd" d="M4.22,23.609     c-0.159-0.511-0.409,5.052,0.05,7.729c0.458,2.597,1.835,7.052,2.175,7.687c0.237,0.429-0.593-2.222-0.92-4.758     C5.097,31.525,4.429,24.183,4.22,23.609z" fill="#4D513C" fill-rule="evenodd" i:knockout="Off"/>
      <path clip-rule="evenodd" d="M1.92,26.072     c-0.156,1.357,0.367,3.984,0.576,5.75c0.237,1.62,0.507,2.659,0.949,4.097c0.407,1.342,0.771,3.458,1.224,4.106     c0.576,0.467,1.222-0.066,1.396-0.779c-0.039-0.853-0.979-2.245-1.413-3.956c-0.436-1.792-0.819-4.632-1.031-6.479     c-0.185-2.072-0.334-4.564-0.508-5.043C2.746,23.278,2.074,24.634,1.92,26.072z" fill="#E5E1AB" fill-rule="evenodd" i:knockout="Off"/>
      <path clip-rule="evenodd" d="M11.991,51.582     c-0.276-0.089,7.05,6.346,12.824,11.342c5.675,4.951,13.761,11.462,21.092,18.058c7.279,6.453,15.061,13.617,22.301,20.409     c7.17,6.601,12.807,11.89,20.484,19.363c7.659,7.425,23.893,23.893,25.161,24.921c1.035,0.761-11.922-13.702-18.116-19.927     c-6.163-6.29-11.164-10.727-18.55-17.547c-7.457-7.093-17.155-16.023-25.626-23.668c-8.391-7.646-18.153-16.013-24.712-21.454     C20.106,57.432,12.428,51.666,11.991,51.582z" fill="#4D513C" fill-rule="evenodd" i:knockout="Off"/>
      <path clip-rule="evenodd" d="M37.883,69.653     c2.878,2.176,6.223,4.968,13.159,11.22c6.902,6.238,21.217,19.666,28.209,26.223c6.859,6.416,8.288,7.44,13.187,12.267     c4.913,4.713,15.04,14.6,16.075,15.957c0.949,1.117-5.119-4.016-10.372-8.849c-5.437-5.037-12.694-12.474-21.187-20.326     c-8.45-8.032-21.707-19.894-29.02-26.442c-7.314-6.548-12.57-10.866-14.304-12.429C31.973,65.546,34.873,67.336,37.883,69.653z" fill="#4D513C" fill-rule="evenodd" i:knockout="Off"/>
      <path clip-rule="evenodd" d="M52.885,85.269     c-0.766-0.913-1.366-1.67-1.051-1.92c0.296-0.379,1.255-0.646,3.025,0.497c1.723,1.161,4.146,3.204,7.531,6.252     c3.365,2.92,9.124,7.949,12.644,11.219c3.45,3.079,5.591,5.388,7.825,7.581c2.136,2.148,4.66,4.318,5.188,5.399     c0.444,0.922-0.717,1.453-2.155,0.703c-1.442-0.911-2.837-2.436-6.305-5.562c-3.439-3.272-10.735-9.773-14.536-13.293     c-3.898-3.565-6.807-6.272-8.786-7.99C54.121,86.282,53.694,86.003,52.885,85.269z" fill="#E5E1AB" fill-rule="evenodd" i:knockout="Off"/>
      <path clip-rule="evenodd" d="M141.376,176.264     c0.013-0.709,0.421-1.67,1.058-2.525c0.666-1,1.833-2.481,2.863-3.074c0.948-0.67,2.018-1.005,3.149-0.875     c0.38-0.22,0.387-0.574,0.28-0.942c-0.157-0.431,0.483-0.013-1.204-1.594c-1.74-1.804-5.14-4.82-8.96-8.468     c-3.888-3.759-8.422-8.177-13.899-13.552c-1.159-0.58-2.386-0.675-3.549-0.225c-1.294,0.39-2.649,1.505-3.583,2.659     c-0.889,1.055-1.329,2.082-1.5,3.472c1.027,1.035,3.002,3.187,6.249,6.448c3.246,3.261,9.489,9.549,12.785,12.874     C138.241,173.531,140.388,175.486,141.376,176.264z" fill="#485663" fill-rule="evenodd" i:knockout="Off"/>
      <path clip-rule="evenodd" d="M122.638,146.513     c1.729,1.402,10.535,9.521,14.377,13.378c3.805,3.681,7.977,7.851,8.482,8.643c0.402,0.584-2.967-1.9-6.054-4.651     c-3.254-2.987-10.25-9.109-13.037-12.077C123.649,148.772,120.813,145.146,122.638,146.513z" fill="#081531" fill-rule="evenodd" i:knockout="Off"/>
      <path clip-rule="evenodd" d="M122.339,153.286     c2.277,2.016,7.407,6.434,10.575,9.777c3.196,3.198,7.653,7.779,8.708,9.264c0.92,1.264,1.358,1.944-2.584-1.443     c-4.029-3.626-17.706-16.717-20.589-19.65C115.663,148.266,119.898,151.195,122.339,153.286z" fill="#081531" fill-rule="evenodd" i:knockout="Off"/>
      <path clip-rule="evenodd" d="M123.259,152.166     c2.338,1.885,7.377,6.499,10.59,9.745c3.211,3.166,7.623,7.844,8.693,9.297c0.92,1.263,1.342,1.977-2.569-1.476     c-4.029-3.626-17.706-16.717-20.588-19.65C116.613,147.081,120.788,150.14,123.259,152.166z" fill="#97ACCD" fill-rule="evenodd" i:knockout="Off"/>
      <path clip-rule="evenodd" d="M120.126,187.249     c-0.157-0.431,0.03-1.256,0.654-1.999c0.587-0.918,2.006-2.6,2.911-3.092c0.87-0.587,1.676-0.528,2.351-0.016     c0.429-0.237,0.517-0.513,0.258-1.15c-0.29-0.572-0.085-0.754-1.741-2.4c-1.723-1.757-4.649-4.512-8.256-8.021     c-3.611-3.67-7.988-8.253-13.262-13.811c-1.16-0.58-2.386-0.675-3.55-0.225c-1.293,0.39-2.648,1.506-3.583,2.659     c-0.889,1.055-1.328,2.082-1.5,3.472c1.012,1.067,3.033,3.122,6.264,6.416c3.246,3.261,9.429,9.679,12.785,12.874     C116.716,185.022,118.872,186.703,120.126,187.249z" fill="#485663" fill-rule="evenodd" i:knockout="Off"/>
      <path clip-rule="evenodd" d="M101.017,158.04     c1.775,1.305,10.505,9.586,14.393,13.345c3.82,3.648,7.947,7.916,8.467,8.675c0.403,0.585-2.967-1.9-6.054-4.65     c-3.255-2.987-10.25-9.109-13.038-12.078C102.028,160.299,99.191,156.672,101.017,158.04z" fill="#081531" fill-rule="evenodd" i:knockout="Off"/>
      <path clip-rule="evenodd" d="M100.718,164.812     c2.338,1.885,7.376,6.499,10.59,9.745c3.211,3.166,7.623,7.845,8.693,9.298c0.92,1.263,1.343,1.976-2.569-1.476     c-4.029-3.626-17.706-16.718-20.588-19.65C94.072,159.728,98.247,162.786,100.718,164.812z" fill="#081531" fill-rule="evenodd" i:knockout="Off"/>
      <path clip-rule="evenodd" d="M101.638,163.692     c2.339,1.884,7.376,6.498,10.59,9.744c3.196,3.198,7.654,7.779,8.709,9.264c0.92,1.264,1.357,1.944-2.584-1.443     c-4.029-3.626-17.706-16.717-20.588-19.65C94.993,158.607,99.167,161.666,101.638,163.692z" fill="#97ACCD" fill-rule="evenodd" i:knockout="Off"/>
      <path clip-rule="evenodd" d="M150.664,174.319     c3.665,3.298,7.897,7.854,20.402,20.477c12.581,12.46,38.14,37.805,54.186,53.908c15.978,15.911,18.912,19.583,40.943,41.335     c22.228,21.845,71.358,69.898,90.19,88.372c18.372,18.101,15.79,15.546,20.337,20.446c4.464,4.823,6.847,8.317,6.904,8.702     c-0.007,0.274,4.419,3.729-6.504-7.006c-11.129-11.146-40.791-40.47-58.779-58.114c-17.989-17.643-27.739-26.717-48.047-46.713     c-20.38-20.27-56.85-57.057-72.908-72.965c-15.926-15.848-15.521-15.183-22.237-21.65c-6.753-6.645-13.633-13.27-17.921-17.533     c-4.354-4.294-6.542-6.586-7.692-8.036C148.382,173.931,147.097,171.066,150.664,174.319z" fill="#4D513C" fill-rule="evenodd" i:knockout="Off"/>
      <path clip-rule="evenodd" d="M150.84,181.353     c2.206,1.744,11.189,11.017,21.083,20.635c9.796,9.572,22.508,22.094,37.235,36.508c14.807,14.332,38.192,37.353,50.221,49.039     c11.748,11.437,14.701,14.045,20.362,19.624c5.702,5.319,3.001,3.107,13.354,13.02c10.356,10.072,35.246,33.874,47.893,46.364     c12.461,12.206,21.008,20.879,26.821,26.728c5.678,5.626,8.519,8.223,7.58,7.507c-0.989-0.858-0.312,0.331-13.313-12.166     c-13.153-12.767-47.719-46.482-64.431-62.775c-16.775-16.243-16.599-16.28-34.992-33.993c-18.5-18.08-56.836-55.38-74.292-72.379     c-17.389-16.887-22.668-22.089-29.041-28.358C153.088,184.625,148.68,179.511,150.84,181.353z" fill="#4D513C" fill-rule="evenodd" i:knockout="Off"/>
      <path clip-rule="evenodd" d="M154.512,183.7     c-1.53-1.746-2.117-2.616-1.465-2.312c0.796,0.252,2.558,1.669,5.408,3.992c2.626,2.376,6.353,5.544,10.49,9.618     c4.148,3.881,9.235,8.477,14.317,13.508c5.012,4.84,10.261,10.108,15.809,15.674c5.483,5.536,12.201,12.084,17.171,17.182     c4.899,4.828,7.067,6.991,12.453,12.481c5.481,5.534,12.866,12.951,20.125,20.387c7.22,7.26,14.804,14.848,22.882,22.825     c8.073,7.815,18.82,17.991,24.793,23.835c5.839,5.622,6.862,6.497,10.141,9.773c3.242,3.18,8.876,8.31,9.268,9.088     c0.354,0.603,0.924,2.02-7.007-5.332c-8.101-7.671-25.97-24.98-40.793-39.36c-14.843-14.509-34.346-33.334-47.488-46.295     c-13.154-12.847-20.965-21.057-30.806-30.532c-9.929-9.714-21.833-20.985-27.837-26.764     C156.094,185.59,155.926,185.353,154.512,183.7z" fill="#E5E1AB" fill-rule="evenodd" i:knockout="Off"/>
      <path clip-rule="evenodd" d="M127.915,194.058     c3.252,3.503,8.121,7.799,20.7,20.179c12.644,12.41,38.233,37.689,54.469,53.642c16.069,15.715,19.773,18.674,41.741,40.478     c22.114,21.83,70.673,70.77,89.329,89.281c18.374,18.181,15.661,15.564,20.65,20.115c4.888,4.424,8.478,6.693,8.787,6.798     c0.32-0.009,3.821,4.325-7.102-6.409c-11.255-11.048-40.789-40.391-58.717-58.165c-17.797-17.712-26.974-27.592-47.216-47.557     c-20.36-20.141-57.637-56.391-73.723-72.153c-16.085-15.763-15.191-15.465-21.861-22.031     c-6.644-6.792-13.477-13.435-17.717-17.716c-4.255-4.248-6.672-6.646-8.131-7.605     C127.642,191.747,124.547,190.461,127.915,194.058z" fill="#4D513C" fill-rule="evenodd" i:knockout="Off"/>
      <path clip-rule="evenodd" d="M134.939,194.156     c1.847,2.173,11.174,11.049,20.863,20.851c9.7,9.608,22.383,22.275,36.906,36.873c14.557,14.613,37.8,37.686,49.562,49.685     c11.624,11.617,14.232,14.542,19.83,20.17c5.482,5.536,3.094,2.992,13.148,13.202c10.169,10.223,34.341,34.882,46.876,47.439     c12.353,12.354,21.149,20.745,26.993,26.529c5.806,5.606,8.218,8.359,7.581,7.507c-0.753-1.025,0.263-0.394-12.278-13.192     c-12.854-13.065-47.047-47.242-63.492-63.768c-16.349-16.562-16.414-16.592-34.317-34.672     c-18.171-18.363-55.994-56.339-73.165-73.521c-17.078-17.298-22.244-22.488-28.664-28.739     C138.248,196.176,133.112,192.112,134.939,194.156z" fill="#4D513C" fill-rule="evenodd" i:knockout="Off"/>
      <path clip-rule="evenodd" d="M137.326,197.812     c-1.764-1.498-2.588-2.2-2.31-1.435c0.244,0.669,1.682,2.611,4.044,5.381c2.28,2.691,5.852,6.104,9.738,10.38     c3.831,4.05,8.752,9.086,13.658,14.154c4.854,4.925,10.279,10.156,15.824,15.642c5.53,5.518,12.357,11.919,17.375,16.999     c5.042,4.774,6.953,6.897,12.61,12.315c5.607,5.436,13.165,12.653,20.58,19.924c7.233,7.146,15.137,14.646,23.053,22.626     c7.863,7.839,18.388,18.665,24.104,24.548c5.694,5.674,6.611,6.776,9.872,10.005c3.084,3.186,8.55,8.754,9.174,9.203     c0.653,0.305,2.038,0.912-5.39-6.922c-7.681-8.149-25.266-25.724-39.791-40.401c-14.705-14.722-33.657-34.046-46.799-47.006     c-13.016-13.062-21.2-20.81-30.838-30.467c-9.835-9.83-21.146-21.778-27.054-27.591     C139.395,199.253,138.96,199.248,137.326,197.812z" fill="#E5E1AB" fill-rule="evenodd" i:knockout="Off"/>
      <path clip-rule="evenodd" d="M378.589,407.632     c-0.485-0.067-0.943,0.235-1.339,0.487c-0.527,0.191-1.146,0.579-1.271,1.274c-0.093,0.712-0.048,1.726,0.455,3.032     c-0.775,0.552-2.004,0.377-3.328-0.36c-1.327-0.817-2.546-2.379-5.077-4.273c-2.683-2.085-8.724-6.85-10.354-7.609     c-1.539-0.876-1.45,0.555,0.77,2.861c2.107,2.215,9.119,8.384,12.062,10.51c3.033,2.011,4.738,2.528,5.665,1.649     c0.194,1.203,0.771,2.266,1.861,3.251c1.136,0.887,2.62,1.619,4.718,2.319c0.312-2.715,0.261-5.162-0.475-7.332     C381.536,411.191,380.375,409.338,378.589,407.632z" fill="#8E935D" fill-rule="evenodd" i:knockout="Off"/>
      <path clip-rule="evenodd" d="M378.195,410.348     c-0.458-0.293-0.913,0.766-0.662,1.678c0.181,0.719,1.392,2.039,1.804,2.945c0.345,0.877-0.058,1.999,0.262,2.506     c0.313,0.267,1.361,0.317,1.522-0.282c0.142-0.729-0.438-2.469-0.838-3.568C379.829,412.381,378.604,410.578,378.195,410.348z" fill="#4D513C" fill-rule="evenodd" i:knockout="Off"/>
      <path clip-rule="evenodd" d="M374.138,413.938     c0.618,0.209-0.657,0.051-3.045-1.817c-2.487-2.073-10.796-9.045-11.418-9.415c-0.62-0.289,5.178,5.592,7.664,7.585     C369.806,412.155,373.401,413.475,374.138,413.938z" fill="#4D513C" fill-rule="evenodd" i:knockout="Off"/>
      <path clip-rule="evenodd" d="M388.272,425.454l3.35,3.548     c-0.587,0.918-1.192,1.708-1.698,2.108c-0.521,0.352-1.062,0.576-1.502,0.411l-2.608-2.924     C386.621,427.544,387.431,426.492,388.272,425.454z" fill="#8E935D" fill-rule="evenodd" i:knockout="Off"/>
      <path clip-rule="evenodd" d="     M391.688,427.325l-1.176,0.563c0.1,0.127-0.023,0.308-0.172,0.794c-0.246,0.361-0.534,1.063-0.939,1.588     c-0.423,0.398-1.158,0.612-1.394,0.859c-0.239,0.087-0.239,0.087,0,0l-0.533,0.546l3.632,3.799     c0.546-0.063,1.088-0.287,1.755-0.611c0.714-0.423,1.388-1.101,1.971-1.584c0.418-0.56,0.706-1.26,0.737-1.841     C394.294,430.09,392.983,428.723,391.688,427.325z" fill-rule="evenodd" i:knockout="Off" stroke="#000000" stroke-miterlimit="10" stroke-width="0.036"/>
      <path clip-rule="evenodd" d="M382.365,427.387     c-1.014,0.044-2.563,0.473-4.6,0.238c-2.122-0.473-4.718-1.127-7.494-2.581c-2.83-1.598-8.673-6.705-9.024-6.631     c-0.374-0.135,4.886,4.94,6.914,6.641c2.023,1.539,5.297,3.463,5.058,3.55c-0.322,0.008-5.979-3.026-6.666-2.91     c-0.74,0.053,1.29,2.429,2.575,3.504c1.397,1.01,3.002,1.996,5.045,2.473c1.973,0.284,5.611-0.283,6.234-0.509     c0.427-0.318-3.159-1.235-3.242-1.394c-0.013-0.402,1.995-0.022,3.081-0.391c1.099-0.48,2.819-1.703,3.296-1.958     C383.807,427.105,383.375,427.182,382.365,427.387z" fill="#4D513C" fill-rule="evenodd" i:knockout="Off"/>
      <path clip-rule="evenodd" d="M107.895,162.201     c1.611-0.56,3.915-1.154,6.9-2.105c3.034-0.969,6.513-2.126,10.891-3.422c0.872,0.089,1.588,0.343,2.208,0.632     c0.522,0.244,1.012,0.472,1.24,1.174c0.259,0.637,0.376,1.407,0.423,2.5l-16.905,6.1     C111.06,165.464,109.47,163.849,107.895,162.201z" fill="#485663" fill-rule="evenodd" i:knockout="Off"/>
      <path clip-rule="evenodd" d="M112.106,166.031     c1.518-0.444,3.212-0.925,5.143-1.574c1.866-0.679,4.093-1.706,6.139-2.261c2.009-0.731,3.816-1.199,5.719-1.703     c0.295-0.378,0.202-0.859,0.078-1.274c-0.161-0.591-1.34-1.3-1.216-1.48c0.011-0.193,1.003,0.15,1.414,0.46     c0.378,0.296,0.579,0.548,0.74,1.14c0.093,0.48,0.046,1.094-0.143,1.84l-17.049,6.151     C112.646,166.918,112.375,166.475,112.106,166.031z" fill="#081531" fill-rule="evenodd" i:knockout="Off"/>
      <path clip-rule="evenodd" d="M107.625,161.757     c2.764-0.816,5.396-1.774,8.192-2.575c2.664-0.942,6.476-2.303,8.172-2.704c1.644-0.544,1.281-0.276,1.914-0.101     c0.663,0.111,1.642,0.567,1.664,0.776c-0.128,0.02-1.442-0.315-2.37-0.112c-0.997,0.092-0.99,0.333-3.767,1.262     c-2.842,0.899-7.234,2.227-13.239,4.114C108.008,162.213,107.825,162.009,107.625,161.757z" fill="#081531" fill-rule="evenodd" i:knockout="Off"/>
      <path clip-rule="evenodd" d="M110.766,162.943     c1.348-0.762,7.672-2.143,10.229-2.856c2.538-0.842,4.19-1.661,4.678-1.513c0.487,0.148,0.057,1.496-1.961,2.502     c-2.138,0.751-8.277,2.417-10.443,2.717C111.068,163.998,109.446,163.559,110.766,162.943z" fill="#97ACCD" fill-rule="evenodd" i:knockout="Off"/>
      <path clip-rule="evenodd" d="M126.158,182.236     c1.959-0.794,4.556-1.848,7.622-2.801c3.049-1.001,6.735-2.262,10.891-3.422c0.856,0.121,1.633,0.245,2.208,0.632     c0.537,0.211,0.965,0.57,1.225,1.207c0.29,0.572,0.392,1.375,0.438,2.469l-18.258,6.103     C128.908,185.028,127.533,183.632,126.158,182.236z" fill="#8E935D" fill-rule="evenodd" i:knockout="Off"/>
      <path clip-rule="evenodd" d="M129.804,186.002     c2.17-0.736,4.291-1.535,6.431-2.205c2.055-0.83,4.16-1.596,6.124-2.229c2.027-0.684,3.797-1.328,5.702-1.75     c0.181-0.472,0.185-0.907,0.073-1.435c-0.208-0.574-1.024-1.55-0.914-1.618c0.109-0.148,1.022,0.278,1.468,0.685     c0.331,0.313,0.292,0.652,0.405,1.261c0.061,0.465-0.002,1.111-0.128,1.808l-18.282,6.41     C130.385,186.63,130.087,186.332,129.804,186.002z" fill="#4D513C" fill-rule="evenodd" i:knockout="Off"/>
      <path clip-rule="evenodd" d="M125.464,181.595     c3.303-1.121,6.353-2.122,9.338-3.074c2.951-1.047,6.38-2.268,8.125-2.686c1.662-0.497,1.344-0.327,1.962-0.118     c0.565,0.065,1.74,0.613,1.631,0.761c-0.161,0.005-1.361-0.317-2.353-0.064c-1.062,0.062-0.798,0.264-3.784,1.215     c-3.016,1.016-7.729,2.434-14.189,4.704C125.945,182.097,125.697,181.862,125.464,181.595z" fill="#4D513C" fill-rule="evenodd" i:knockout="Off"/>
      <path clip-rule="evenodd" d="M128.772,182.422     c1.363-0.794,7.626-2.044,10.214-2.824c2.49-0.825,4.286-1.696,4.726-1.53c0.52,0.163-0.008,1.465-1.994,2.486     c-2.137,0.751-8.276,2.417-10.442,2.717C129.06,183.51,127.498,182.94,128.772,182.422z" fill="#E5E1AB" fill-rule="evenodd" i:knockout="Off"/>
      <path clip-rule="evenodd" d="M100.446,156.622l-2.938-2.641     c-0.37,0.026-0.903-0.024-1.347-0.35c-0.494-0.389-1.118-0.839-1.751-1.611c0.416-0.72,0.533-1.142,0.283-1.458     c-0.283-0.33-0.835-0.508-1.718-0.404l-1.966-2.426c0.706-1.259,0.862-2.617,0.337-4.133c-0.479-1.613-1.541-3.34-3.185-5.179     l0.228-0.489c0.885-0.62,1.074-1.366,0.697-2.177s-1.449-1.749-3.087-2.75c-2.327-0.291-4.226-0.223-6.124,0.441     c-1.901,0.583-3.445,1.254-4.843,3.144c-1.417,1.763-2.591,4.194-3.582,7.426l2.163,3.114l1.329-0.294     c0.436,1.196,1.541,2.148,3.446,2.917c1.918,0.657,4.507,1.069,7.895,1.298l2.176,2.405c-0.143,0.648-0.185,0.907,0.068,1.303     c0.23,0.187,0.592,0.435,1.25,0.384c0.672,0.433,1.166,0.822,1.551,1.359c0.366,0.409,0.54,0.888,0.522,1.436l3.131,3.764     c1.023-1.429,2.006-2.6,2.887-3.38c0.861-0.91,1.653-1.415,2.305-1.707L100.446,156.622z" fill="#485663" fill-rule="evenodd" i:knockout="Off"/>
      <path clip-rule="evenodd" d="M80.047,137.417     c1.842-0.373,3.008-0.743,3.558-1.24c0.515-0.594,0.334-1.91-0.422-1.905c-0.842-0.154-2.893,0.24-4.362,1.263     c-1.618,0.914-3.939,3.167-4.531,4.521c-0.402,1.203-0.034,2.288,1.663,3.079l1.449-0.039l0,0     c0.044,0.418,0.49,0.825,1.347,1.542c0.853,0.557,2.5,1.88,3.72,2.33c1.283,0.4,2.39,0.241,3.354,0.134     c0.761-0.44,1.6-0.962,1.585-1.525c-0.002-0.676-0.777-1.315-1.573-1.567c-0.909-0.265-2.614,0.41-3.637,0.131     c-1.087-0.308-1.851-1.141-2.588-2.2l-1.923-0.817c-0.924-0.232-1.288-0.561-0.838-1.185     C77.214,139.234,78.24,138.482,80.047,137.417z" fill="#97ACCD" fill-rule="evenodd" i:knockout="Off"/>
      <path clip-rule="evenodd" d="M87.527,147.698     c0.252,0.396,0.623,0.965,1.17,1.579c0.516,0.598,1.149,1.37,1.96,2.185c-0.346,0.315-0.439,0.431-0.187,0.827     c0.202,0.333,0.788,0.526,1.588,0.939c0.329,0.232,0.661,0.626,0.868,1.12c0.22,0.38,0.335,1.07,0.514,1.709     c1.173,1.063,1.787,1.707,1.911,2.122c0.006,0.242-0.783,0.231-1.305-0.013c-0.524-0.324-1.005-0.826-1.573-1.567     c-0.183-0.8-0.376-1.407-0.772-1.75c-0.446-0.407-1.194-0.08-1.59-0.424c-0.365-0.409-0.672-1.028-0.729-1.929     c-0.985-0.698-1.747-1.45-2.214-2.065c-0.424-0.794-0.864-1.555-0.699-1.994C86.518,147.903,86.851,147.7,87.527,147.698z" fill="#97ACCD" fill-rule="evenodd" i:knockout="Off"/>
      <path clip-rule="evenodd" d="M86.411,137.485     c-0.07-0.191-2.59,0.103-3.897,0.605c-1.311,0.342-2.983,1.628-3.155,1.826c-0.176,0.037,1.356-0.439,2.505-0.857     C82.977,138.545,86.302,137.633,86.411,137.485z" fill="#081531" fill-rule="evenodd" i:knockout="Off"/>
      <path clip-rule="evenodd" d="M76.321,144.3     c-0.711,1.099-1.093,1.834-1.087,2.075c-0.026,0.226,0.224-0.055,0.881-0.781c0.115,0.689,0.603,1.433,1.523,2.101     c0.983,0.617,2.591,1.685,3.872,2.004c1.247,0.224,3.219-0.088,3.036-0.292c-0.346-0.28-3.565-0.789-4.92-1.46     C78.201,147.083,77.12,145.824,76.321,144.3z" fill="#081531" fill-rule="evenodd" i:knockout="Off"/>
      <path clip-rule="evenodd" d="M73.398,142.222l-1.067,1.607l1.39,1.959     c0.293-0.459,0.682-0.953,0.915-1.281c0.229-0.49,0.431-0.753,0.598-1.112C74.612,143.026,74.004,142.624,73.398,142.222z" fill="#081531" fill-rule="evenodd" i:knockout="Off"/>
      <path clip-rule="evenodd" d="M86.636,140.41     c0.987,0.779,1.64,1.679,2.088,2.762c0.461,0.97,0.718,2.123,0.64,3.397l2.489,3.861c0.805-0.021,1.264,0.272,1.544,0.522     c0.183,0.205,0.259,0.637-0.13,1.13c0.039,0.257,0.407,0.747,1.033,1.277c0.594,0.515,1.432,1.104,2.643,1.828     c-1.164-0.146-2.095-0.62-2.83-1.001c-0.786-0.446-1.273-1.189-1.629-1.873c0.13-0.535,0.073-0.839-0.109-1.043     c-0.218-0.3-0.557-0.339-1.088-0.309l-2.957-3.881c0.198-1.02,0.217-2.083-0.064-2.929c-0.315-0.942-1.425-2.055-1.697-2.579     C86.294,140.887,86.316,140.5,86.636,140.41z" fill="#081531" fill-rule="evenodd" i:knockout="Off"/>
      <path clip-rule="evenodd" d="M130.802,96.975     c-1.584,3.313-2.695,5.694-3.454,7.406c-0.809,1.649-1.159,2.399-1.11,2.382l0.244,1.266l-8.581,17.21l-2.301,1.271l-4.356,8.574     l4.205,3.589l4.269-8.813l-0.459-1.485l9.229-18.854l1.774-1.079l4.132-8.52C133.208,98.97,132.005,97.973,130.802,96.975z" fill="#8E935D" fill-rule="evenodd" i:knockout="Off"/>
      <path clip-rule="evenodd" d="M132.606,99.921l0.973,0.811     c-0.732,1.485-1.409,2.68-2.196,3.941c-0.884,1.216-2.193,2.83-2.493,3.048c-0.274-0.009,0.347-1.427,0.974-2.685     C130.469,103.651,131.343,102.033,132.606,99.921z" fill="#4D513C" fill-rule="evenodd" i:knockout="Off"/>
      <path clip-rule="evenodd" d="M112.421,135.116     c1.047-2.332,1.869-4.094,2.656-5.355c0.8-1.375,1.741-2.882,1.835-2.402c-0.052,0.453-1.324,3.434-1.988,5.031     c-0.589,1.434-1.135,2.688-1.637,3.765C113.004,135.825,112.721,135.494,112.421,135.116z" fill="#4D513C" fill-rule="evenodd" i:knockout="Off"/>
      <path clip-rule="evenodd" d="M131.451,98.906     c-0.472,0.415-1.775,2.787-2.61,4.661c-0.883,1.893-2.297,6.715-2.257,6.971c0.05,0.063,1.769-4.22,2.575-5.949     c0.754-1.873,1.819-3.56,2.165-4.472C131.697,99.06,131.854,98.299,131.451,98.906z" fill="#E5E1AB" fill-rule="evenodd" i:knockout="Off"/>
      <path clip-rule="evenodd" d="M125.633,112.319     c-0.602,0.951-5.197,10.208-5.49,11.263c-0.284,0.781,2.402-4.043,3.463-5.893C124.422,115.767,126.2,111.273,125.633,112.319z" fill="#E5E1AB" fill-rule="evenodd" i:knockout="Off"/>
      <path clip-rule="evenodd" d="M117.362,129.118     c-0.424,0.398-1.604,3.185-1.495,3.632c0.07,0.191,1.91-1.453,2.183-2.041C118.191,129.981,117.739,128.737,117.362,129.118z" fill="#E5E1AB" fill-rule="evenodd" i:knockout="Off"/>
      <path clip-rule="evenodd" d="M53.772,32.257     c-1.584,3.313-2.695,5.694-3.454,7.406c-0.778,1.583-1.143,2.366-1.095,2.349l0.229,1.299l-8.566,17.177l-2.3,1.271l-2.361,4.977     l3.746,3.296l2.732-4.922l-0.507-1.468l9.262-18.839l1.742-1.094l4.165-8.505C56.178,34.252,54.975,33.254,53.772,32.257z" fill="#8E935D" fill-rule="evenodd" i:knockout="Off"/>
      <path clip-rule="evenodd" d="M55.697,34.346l1.118,0.839     c-0.852,1.827-1.647,3.362-2.447,4.737c-0.852,1.231-2.32,2.93-2.542,3.065c-0.244-0.074,0.287-1.296,0.989-2.717     C53.498,38.723,54.382,36.911,55.697,34.346z" fill="#4D513C" fill-rule="evenodd" i:knockout="Off"/>
      <path clip-rule="evenodd" d="M37.358,66.35     c0.009-0.274,0.302-0.733,0.689-1.308c0.48-0.689,1.619-2.621,1.834-2.401c0.085,0.159-0.958,2.651-1.258,3.465     c-0.319,0.685-0.507,0.916-0.561,0.691C37.849,66.659,37.604,66.504,37.358,66.35z" fill="#4D513C" fill-rule="evenodd" i:knockout="Off"/>
      <path clip-rule="evenodd" d="M54.421,34.188     c-0.455,0.463-1.828,2.643-2.628,4.613c-0.882,1.893-2.297,6.714-2.258,6.971c-0.028,0.146,1.865-4.254,2.593-5.901     c0.754-1.873,1.819-3.561,2.165-4.472C54.667,34.342,54.823,33.581,54.421,34.188z" fill="#E5E1AB" fill-rule="evenodd" i:knockout="Off"/>
      <path clip-rule="evenodd" d="M48.603,47.602     c-0.602,0.951-5.18,10.256-5.508,11.215c-0.3,0.813,2.402-4.044,3.448-5.86C47.425,51.064,49.17,46.555,48.603,47.602z" fill="#E5E1AB" fill-rule="evenodd" i:knockout="Off"/>
      <path clip-rule="evenodd" d="M40.348,64.368     c-0.457,0.383-1.571,3.2-1.528,3.618c0.135,0.221,1.909-1.454,2.216-2.026C41.209,65.246,40.789,64.018,40.348,64.368z" fill="#E5E1AB" fill-rule="evenodd" i:knockout="Off"/>
      <path clip-rule="evenodd" d="M35.808,16.69     c-1.267,2.547-2.217,4.329-2.886,5.764c-0.704,1.34-1.054,2.091-1.111,2.382l0.211,1.25l-8.566,17.178l-2.301,1.271l-4.371,8.607     l4.205,3.59l4.269-8.814l-0.459-1.486l9.229-18.854l1.775-1.079l3.432-7.019C38.113,18.56,36.961,17.625,35.808,16.69z" fill="#8E935D" fill-rule="evenodd" i:knockout="Off"/>
      <path clip-rule="evenodd" d="M37.577,18.945l1.083,0.744     c-0.522,0.948-0.976,2.008-1.722,3.011c-0.793,1.02-2.224,2.895-2.509,3.08c-0.244-0.074,0.423-1.589,0.989-2.716     C35.996,21.823,36.64,20.613,37.577,18.945z" fill="#4D513C" fill-rule="evenodd" i:knockout="Off"/>
      <path clip-rule="evenodd" d="M19.061,50.39     c0.489-0.963,0.952-1.701,1.557-2.571c0.491-0.883,1.854-2.869,1.835-2.401c-0.118,0.421-1.602,3.86-1.989,5.031     c-0.439,1.026-0.524,1.463-0.384,1.25C19.761,51.272,19.411,50.831,19.061,50.39z" fill="#4D513C" fill-rule="evenodd" i:knockout="Off"/>
      <path clip-rule="evenodd" d="M36.991,16.964     c-0.487,0.448-1.73,2.688-2.596,4.629c-0.882,1.892-2.297,6.714-2.258,6.971c0.005,0.161,1.8-4.285,2.561-5.916     c0.754-1.873,1.819-3.561,2.165-4.473C37.237,17.118,37.393,16.356,36.991,16.964z" fill="#E5E1AB" fill-rule="evenodd" i:knockout="Off"/>
      <path clip-rule="evenodd" d="M31.173,30.378     c-0.602,0.95-5.212,10.241-5.475,11.23c-0.3,0.813,2.402-4.043,3.448-5.86C29.962,33.825,31.74,29.332,31.173,30.378z" fill="#E5E1AB" fill-rule="evenodd" i:knockout="Off"/>
      <path clip-rule="evenodd" d="M22.903,47.176     c-0.424,0.398-1.604,3.185-1.496,3.633c0.055,0.224,1.955-1.552,2.198-2.073C23.762,47.974,23.264,46.829,22.903,47.176z" fill="#E5E1AB" fill-rule="evenodd" i:knockout="Off"/>
    </g>
  </g>
</svg>
