<?xml version="1.0" encoding="UTF-8" standalone="no"?>
<!DOCTYPE svg PUBLIC "-//W3C//DTD SVG 20010904//EN"
"http://www.w3.org/TR/2001/REC-SVG-20010904/DTD/svg10.dtd">
<svg height="297mm" id="svg908" inkscape:version="0.39" sodipodi:docbase="/home/tapio/Desktop/kuvat" sodipodi:docname="teapot.svg" sodipodi:version="0.32" viewBox="0 0 90.0 106.0" width="210mm" xmlns="http://www.w3.org/2000/svg" xmlns:cc="http://web.resource.org/cc/" xmlns:dc="http://purl.org/dc/elements/1.1/" xmlns:inkscape="http://www.inkscape.org/namespaces/inkscape" xmlns:rdf="http://www.w3.org/1999/02/22-rdf-syntax-ns#" xmlns:sodipodi="http://sodipodi.sourceforge.net/DTD/sodipodi-0.dtd" xmlns:xlink="http://www.w3.org/1999/xlink">
  <metadata>
    <rdf:RDF xmlns:cc="http://web.resource.org/cc/" xmlns:dc="http://purl.org/dc/elements/1.1/" xmlns:rdf="http://www.w3.org/1999/02/22-rdf-syntax-ns#">
      <cc:Work rdf:about="">
        <dc:title>A teapot</dc:title>
        <dc:description></dc:description>
        <dc:subject>
          <rdf:Bag>
            <rdf:li>hash</rdf:li>
            <rdf:li></rdf:li>
            <rdf:li>food</rdf:li>
            <rdf:li>beverage</rdf:li>
          </rdf:Bag>
        </dc:subject>
        <dc:publisher>
          <cc:Agent rdf:about="http://www.openclipart.org">
            <dc:title>Tapio Kautto</dc:title>
          </cc:Agent>
        </dc:publisher>
        <dc:creator>
          <cc:Agent>
            <dc:title>Tapio Kautto</dc:title>
          </cc:Agent>
        </dc:creator>
        <dc:rights>
          <cc:Agent>
            <dc:title>Tapio Kautto</dc:title>
          </cc:Agent>
        </dc:rights>
        <dc:date></dc:date>
        <dc:format>image/svg+xml</dc:format>
        <dc:type rdf:resource="http://purl.org/dc/dcmitype/StillImage"/>
        <cc:license rdf:resource="http://web.resource.org/cc/PublicDomain"/>
        <dc:language>en</dc:language>
      </cc:Work>
      <cc:License rdf:about="http://web.resource.org/cc/PublicDomain">
        <cc:permits rdf:resource="http://web.resource.org/cc/Reproduction"/>
        <cc:permits rdf:resource="http://web.resource.org/cc/Distribution"/>
        <cc:permits rdf:resource="http://web.resource.org/cc/DerivativeWorks"/>
      </cc:License>
    </rdf:RDF>
  </metadata>
  <defs id="defs966"/>
  <sodipodi:namedview bordercolor="#666666" borderopacity="1.0" id="base" inkscape:cx="449.89435" inkscape:cy="494.20898" inkscape:pageopacity="0.0" inkscape:pageshadow="2" inkscape:window-height="948" inkscape:window-width="1273" inkscape:window-x="0" inkscape:window-y="0" inkscape:zoom="0.50000000" pagecolor="#ffffff"/>
  <path d="M 33.315216,2.0000000 L 27.136600,13.251796 L 52.282894,15.924341 L 51.229134,7.8018086 L 45.960334,8.9621703 C 45.029127,2.7963330 42.045406,3.7238102 37.530255,5.4810852 L 33.315216,2.0000000 z " fill="#bfedfc" id="path910" stroke="none" style="fill:#bfedfc;stroke:none;"/>
  <path d="M 11.509872,25.320723 L 18.351972,25.786184 C 30.848172,27.365484 72.616117,28.597848 74.445717,23.031248 L 71.187491,19.723688 C 65.037016,16.096852 51.046922,15.178489 45.930922,15.117389 C 34.068522,14.975489 25.462691,16.164214 11.509872,25.320723 z " fill="#4bc309" id="path920" sodipodi:nodetypes="cccccc" stroke="none"/>
  <path d="M 77.748355,40.534539 L 76.358553,51.207234 L 77.358553,50.993419 L 77.748355,40.534539 z " fill="#ebf2bc" id="path939" sodipodi:nodetypes="cccc" stroke="none"/>
  <path d="M16 24L16 25C25.2495 24.7009 53.7924 7.50079 59 24L64 23L58 18L58 17C77.7436 17.1765 83.2802 35.7792 82 52C89.7537 39.0562 79.5048 20.0832 66 16.1443C61.8361 14.9298 58.1783 16.7541 54.0394 16.7006C47.3855 16.6147 41.121 13.738 34.1698 15.2778C28.3194 16.5737 21.4426 21.2594 16 24z" fill="#3d8d12" id="path915" stroke="none"/>
  <path d="M50 15L50 17L62 16z" fill="#386415" id="path916" stroke="none"/>
  <path d="M 25.711920,12.654093 L 25.797079,16.967156 L 64.476715,15.780274 L 25.711920,12.654093 z " fill="#5eb394" id="path912" stroke="none" style="fill:#5eb394;stroke:none;"/>
  <path d="M20 16L21 17z" fill="#a4ab99" id="path917" stroke="none"/>
  <path d="M13 25L32 17C24.7489 13.9573 15.1654 17.0694 13 25z" fill="#1b6005" id="path918" stroke="none"/>
  <path d="M58 17L58 18L72 22C68.8216 17.1524 63.345 17.0153 58 17z" fill="#4db611" id="path919" stroke="none"/>
  <path d="M14 21L15 22z" fill="#a0b191" id="path922" stroke="none"/>
  <path d="M7 26L12 24z" fill="#ffffcc" id="path923" stroke="none"/>
  <path d="M 12.562144,25.245033 L 8.2363506,27.087514 L 14.384726,48.973289 L 17.816538,69.689373 L 18.964135,85.289046 L 21.301118,96.248498 L 33.874249,99.731187 L 71.386411,95.850541 C 74.995958,95.327467 74.447767,92.196357 74.088564,91.106319 C 71.902047,89.038187 68.588324,86.152248 70.009624,81.769048 C 68.763986,66.985905 89.196410,51.621162 81.594810,35.604762 C 77.815205,26.291148 74.097524,26.055786 68.622024,25.639286 L 71.419048,28.604762 C 76.553614,28.640533 81.389700,47.754300 74.567100,54.681300 C 68.966500,60.367600 65.509581,53.308690 66.021481,48.151190 C 66.352281,44.819190 65.984600,41.344500 66.000800,38.000000 C 66.020300,33.944300 73.096669,27.567820 73.414469,23.541120 L 12.562144,25.245033 z " id="path928" sodipodi:nodetypes="cccccccccccccccccc" style="fill:#ecf506;stroke:none;"/>
  <path d="M 17.697619,26.697619 C 17.697619,44.031219 27.325219,68.397719 21.697619,84.697619 L 21.697619,85.697619 L 25.697619,87.697619 L 25.697619,59.697619 L 21.697619,52.697619 L 23.697619,51.697619 C 22.226919,46.138819 18.417019,35.196519 22.555619,30.131219 C 27.189419,24.459919 48.661519,26.697619 55.697619,26.697619 C 45.718819,22.510319 28.594419,26.697619 17.697619,26.697619 z " fill="#c0d605" id="path927" stroke="none" style="fill:#c0d605;stroke:none;"/>
  <path d="M76 29L81 49L82 49C82 41.9027 82.6121 33.3808 76 29z" fill="#bdfa21" id="path932" stroke="none"/>
  <path d="M 61.000000,18.000000 L 67.814286,24.226786 L 77.035714,28.814286 L 82.779762,39.373810 C 82.567249,37.324879 78.789895,29.111869 75.326261,24.579273 C 73.784442,22.561610 70.619379,20.374386 61.000000,18.000000 z " fill="#71d115" id="path921" sodipodi:nodetypes="ccccsc" stroke="none"/>
  <path d="M 36.185713,31.721429 L 35.185713,33.721429 C 35.185713,33.721429 35.370413,44.471129 36.698813,48.667429 C 38.495613,54.343329 46.602809,59.804029 38.185713,64.721429 L 39.185713,92.721429 L 41.185713,93.721429 L 46.185709,93.721429 L 46.185709,90.721429 L 52.185709,90.721429 L 54.185709,82.721429 L 51.185709,61.721429 L 54.185709,58.721429 L 50.185709,50.721429 L 56.185709,31.721429 L 52.185709,29.432029 L 36.185713,31.721429 z " fill="#f0f807" id="path925" sodipodi:nodetypes="cccccccccccccccc" stroke="none" style="fill:#f0f807;stroke:none;"/>
  <path d="M 66.037798,33.817560 C 65.811012,40.252555 63.305100,48.177600 65.618100,53.851900 C 68.334000,60.514700 75.491600,55.293000 77.000000,51.000000 L 76.000000,51.000000 C 70.023400,58.226100 68.073550,54.287175 67.342775,47.886188 C 66.977387,44.685694 66.368678,37.944016 67.150138,34.691209 C 67.588103,32.868190 72.989934,28.745547 71.787303,28.238297 C 69.512469,27.278810 67.068825,33.565955 66.037798,33.817560 z " fill="#aebd1a" id="path933" sodipodi:nodetypes="ccccsssc" stroke="none"/>
  <path d="M81 49L71.3048 66.0147L69 86L70 86C70.1247 79.9599 70.4156 72.4646 73.4028 67.0895C76.4521 61.6025 84.5956 55.8459 81 49z" fill="#81b81f" id="path941" stroke="none"/>
  <path d="M 14.547701,50.611856 C 19.786184,86.780042 12.753423,92.468647 20.320723,96.641447 L 18.320723,85.641447 L 23.320723,88.641447 L 14.547701,50.611856 z " fill="#688200" id="path947" sodipodi:nodetypes="ccccc" stroke="none" style="fill:#688200;stroke:none;"/>
  <path d="M68 72L68 87L69 87z" fill="#a7e224" id="path948" stroke="none"/>
  <path d="M70 79L67 87L67 88C72.2507 87.1211 72.0375 83.2487 70 79z" fill="#547d00" id="path949" stroke="none"/>
  <path d="M71 80L75 88z" fill="#9fac42" id="path951" stroke="none"/>
  <path d="M 17.554100,84.358553 C 15.200723,89.556753 17.934260,97.580558 21.283448,97.855262 L 21.503476,90.893092 L 24.490682,89.786184 L 56.223662,89.037830 L 56.009847,88.037830 L 25.723229,87.786184 L 17.554100,84.358553 z " fill="#9fc10b" id="path952" sodipodi:nodetypes="cccccccc" stroke="none" style="fill:#9fc10b;stroke:none;"/>
  <path d="M56 88L56 89C62.109 89 69.29 87.5534 74 92L76 88z" fill="#b3c200" id="path953" stroke="none"/>
  <path d="M75 90L72 95L72 96C75.0937 95.095 76.1567 93.0476 75 90z" fill="#b9bc3b" id="path955" stroke="none"/>
  <path d="M75.3333 93.6667L75.6667 94.3333L75.3333 93.6667z" fill="#cfd3a0" id="path956" stroke="none"/>
  <path d="M40 98L45 94z" fill="#fffd63" id="path957" stroke="none"/>
  <path d="M21 95L21 98L34 100L34 99z" fill="#c9d739" id="path958" stroke="none"/>
  <path d="M 34.233559,99.106908 C 34.233559,99.440241 34.340467,99.880482 34.340467,100.21382 C 39.007134,99.880482 72.325094,96.660638 71.967094,95.792766 C 67.300427,95.792766 38.900226,99.106908 34.233559,99.106908 z " fill="#dde254" id="path962" sodipodi:nodetypes="cccc" stroke="none"/>
</svg>
