<?xml version="1.0" encoding="utf-8"?>
<!-- Generator: Adobe Illustrator 10.0, SVG Export Plug-In . SVG Version: 3.0.0 Build 77)  --><svg enable-background="new 0 0 134.1 164.772" height="164.772" i:pageBounds="0 792 612 0" i:rulerOrigin="0 0" i:viewOrigin="238 478" overflow="visible" space="preserve" viewBox="0 0 134.1 164.772" width="134.1" xmlns="http://www.w3.org/2000/svg" xmlns:a="http://ns.adobe.com/AdobeSVGViewerExtensions/3.0/" xmlns:graph="http://ns.adobe.com/Graphs/1.0/" xmlns:i="http://ns.adobe.com/AdobeIllustrator/10.0/" xmlns:x="http://ns.adobe.com/Extensibility/1.0/" xmlns:xlink="http://www.w3.org/1999/xlink">
  <metadata>
    <rdf:RDF xmlns:cc="http://web.resource.org/cc/" xmlns:dc="http://purl.org/dc/elements/1.1/" xmlns:rdf="http://www.w3.org/1999/02/22-rdf-syntax-ns#">
      <cc:Work rdf:about="">
        <dc:title>Milk</dc:title>
        <dc:description>Milk</dc:description>
        <dc:subject>
          <rdf:Bag>
            <rdf:li>food</rdf:li>
            <rdf:li>menu</rdf:li>
            <rdf:li>beverage</rdf:li>
            <rdf:li>milk</rdf:li>
          </rdf:Bag>
        </dc:subject>
        <dc:publisher>
          <cc:Agent rdf:about="http://www.openclipart.org/">
            <dc:title>Open Clip Art Project</dc:title>
          </cc:Agent>
        </dc:publisher>
        <dc:creator>
          <cc:Agent rdf:about="http://web.resource.org/cc/PublicDomain">
            <dc:title>Gerald G.</dc:title>
          </cc:Agent>
        </dc:creator>
        <dc:rights>
          <cc:Agent rdf:about="http://web.resource.org/cc/PublicDomain">
            <dc:title>Public Domain</dc:title>
          </cc:Agent>
        </dc:rights>
        <dc:date>2005/05/30</dc:date>
        <dc:format>image/svg+xml</dc:format>
        <dc:type rdf:resource="http://purl.org/dc/dcmitype/StillImage"/>
        <cc:license rdf:resource="http://web.resource.org/cc/PublicDomain"/>
        <dc:language>en</dc:language>
      </cc:Work>
      <cc:License rdf:about="http://web.resource.org/cc/PublicDomain">
        <cc:permits rdf:resource="http://web.resource.org/cc/Reproduction"/>
        <cc:permits rdf:resource="http://web.resource.org/cc/Distribution"/>
        <cc:permits rdf:resource="http://web.resource.org/cc/DerivativeWorks"/>
      </cc:License>
    </rdf:RDF>
  </metadata>
  <g i:dimmedPercent="50" i:layer="yes" i:rgbTrio="#4F008000FFFF" id="Layer_1">
    <g>
      <path clip-rule="evenodd" d="     M24.03,2.682C37.818,1.026,50.958,0.09,63.99,0.018c12.996-0.108,25.344,0.504,37.619,1.98l-0.215,14.76     c6.732,2.34,12.564,5.256,17.496,8.748c4.932,3.492,8.82,7.344,11.951,11.952c2.412,32.58,3.492,56.304,3.24,72.72     c-0.252,16.201-1.836,24.084-4.752,24.193c-4.535,7.883-11.592,14.146-21.168,19.332c-9.648,5.074-21.672,8.711-36.359,11.051     c-16.957-5.939-31.176-12.492-43.236-20.232c-12.024-7.74-21.492-16.234-28.548-25.775c0.036-2.268,0.288-9.035,0.612-20.988     C0.918,85.77,1.422,69.318,1.998,47.574c0.972-2.844,3.42-6.372,7.344-10.584c3.888-4.284,9.216-9.144,16.128-14.724     c-1.332-2.664-2.052-5.436-2.304-8.748C22.878,10.206,23.167,6.642,24.03,2.682z" fill-rule="evenodd" i:knockout="Off" stroke="#000000" stroke-miterlimit="10" stroke-width="0.036"/>
      <path clip-rule="evenodd" d="     M26.37,5.238c9.18-1.116,17.496-1.98,25.776-2.304c8.064-0.396,15.084-0.252,23.004,0C82.998,3.114,90.99,3.33,99.27,3.87     l-1.115,13.788c-11.988,1.116-23.652,2.088-35.424,2.772c-11.88,0.648-23.256,1.152-34.956,1.368     c-1.26-2.844-2.16-5.472-2.304-8.28C25.146,10.674,25.578,8.046,26.37,5.238z" fill="#80C2FF" fill-rule="evenodd" i:knockout="Off" stroke="#000000" stroke-miterlimit="10" stroke-width="0.036"/>
      <path clip-rule="evenodd" d="     M27.306,25.038c5.616-0.576,13.824-1.188,25.308-1.836c11.448-0.72,25.487-1.44,42.804-2.304     c-7.164,8.028-12.707,15.336-17.027,22.068c-4.393,6.66-7.164,12.6-8.748,17.964c-11.556,1.908-22.572,2.196-33.588,0.468     c-11.088-1.728-21.6-5.256-32.22-10.584c3.132-5.256,6.66-9.972,10.584-14.292C18.306,32.202,22.554,28.422,27.306,25.038z" fill="#80C2FF" fill-rule="evenodd" i:knockout="Off" stroke="#000000" stroke-miterlimit="10" stroke-width="0.036"/>
      <path clip-rule="evenodd" d="     M72.414,61.83c0.432-3.6,2.881-8.712,7.344-15.624c4.428-6.984,10.873-15.48,19.332-25.776c5.725,1.944,11.088,4.356,16.092,7.38     c4.969,2.952,9.576,6.48,13.824,10.584c-13.752,5.328-24.984,9.828-34.523,13.788C85.014,56.07,77.707,59.238,72.414,61.83z" fill="#80C2FF" fill-rule="evenodd" i:knockout="Off" stroke="#000000" stroke-miterlimit="10" stroke-width="0.036"/>
      <path clip-rule="evenodd" d="     M73.314,65.07c-0.541,27.145-0.648,48.348-0.469,64.439c0.18,15.984,0.721,26.244,1.621,31.213     c9.576-1.764,18.504-4.932,27.611-9.648c9-4.787,17.604-10.729,26.209-18.396c2.123-2.592,3.131-11.34,3.023-26.639     c-0.107-15.445-1.332-36.757-3.672-64.909c-10.008,4.608-19.477,8.856-28.549,12.888C89.875,58.014,81.559,61.65,73.314,65.07z" fill="#80C2FF" fill-rule="evenodd" i:knockout="Off" stroke="#000000" stroke-miterlimit="10" stroke-width="0.036"/>
      <path clip-rule="evenodd" d="     M3.366,53.55c3.96,5.4,11.196,9.036,22.104,11.052c10.908,1.98,24.948,2.34,42.804,0.936c-0.036,24.659,0.36,44.532,0.9,60.731     c0.541,16.164,1.369,27.686,2.484,35.389c-11.736-3.564-23.148-8.748-34.524-16.092c-11.448-7.453-22.464-16.381-33.588-27.611     c-0.54-11.809-0.648-22.717-0.72-33.553C2.754,73.494,2.934,63.486,3.366,53.55z" fill="#80C2FF" fill-rule="evenodd" i:knockout="Off" stroke="#000000" stroke-miterlimit="10" stroke-width="0.036"/>
      <path clip-rule="evenodd" d="M24.138,115.471l-0.072-0.037l-0.036-0.035l-0.072-0.037     v-0.035l-0.072-0.035l-0.036-0.072l-0.072-0.072v-0.037l-0.036-0.035v-0.072l-0.072-0.072l-0.072-0.072v-0.035l-0.036-0.072     v-0.035l-0.072-0.145v-0.037l-0.072-0.07v-0.072l-0.036-0.072v-0.107l-0.072-0.072v-0.072l-0.072-0.107v-0.109l-0.036-0.107     v-0.035l-0.072-0.145v-0.109v-0.07l-0.036-0.145l-0.036-0.072v-0.072l-0.036-0.18v-0.072l-0.072-0.107v-0.145v-0.107     l-0.072-0.145v-0.107v-0.145l-0.036-0.145v-0.143l-0.036-0.109l-0.036-0.18v-0.107v-0.145l-0.072-0.18v-0.145v-0.107     l-0.072-0.217v-0.18v-0.107l-0.072-0.217v-0.143v-0.182v-0.18l-0.036-0.18v-0.18l-0.036-0.217l-0.036-0.18v-0.143v-0.182v-0.107     l-0.036-0.145l-0.036-0.18v-0.145v-0.107v-0.18l-0.072-0.145v-0.143v-0.182v-0.107v-0.145l-0.072-0.18v-0.145v-0.107v-0.18     l-0.072-0.145v-0.143v-0.145v-0.145l-0.072-0.145v-0.18v-0.143v-0.109v-0.18l-0.036-0.145v-0.143l-0.036-0.145v-0.145     l-0.036-0.145v-0.18l-0.036-0.252l-0.036-0.324v-0.287l-0.072-0.359l-0.072-0.361v-0.395l-0.072-0.396v-0.432l-0.072-0.434     l-0.072-0.504v-0.467l-0.072-0.469l-0.036-0.539l-0.072-0.576l-0.036-0.541l-0.036-0.576l-0.072-0.611l-0.072-0.684l-0.072-0.613     l-0.072-0.684l-0.072-0.648v-0.719l-0.072-0.684l-0.072-0.793l-0.072-0.721l-0.072-0.791l-0.072-0.828l-0.072-0.791l-0.072-0.828     l-0.072-0.865l-0.072-0.9l-0.072-0.898l-0.108,0.467l-0.036,0.469l-0.036,0.432l-0.072,0.504l-0.108,0.432l-0.036,0.432     l-0.072,0.506L19.71,88.83l-0.036,0.432l-0.108,0.432l-0.072,0.506l-0.036,0.432l-0.036,0.467l-0.108,0.434l-0.072,0.432     l-0.036,0.467l-0.036,0.504l-0.108,0.396l-0.072,0.469l-0.036,0.467l-0.072,0.469l-0.108,0.396l-0.036,0.467l-0.036,0.469     l-0.072,0.432l-0.072,0.469l-0.072,0.467l-0.036,0.434l-0.072,0.432l-0.108,0.467l-0.036,0.434l-0.036,0.432v0.18l-0.072,0.107     v0.145l-0.036,0.145v0.18v0.107l-0.036,0.145v0.145v0.143l-0.072,0.145v0.145v0.143l-0.036,0.109v0.18l-0.072,0.107v0.145v0.18     l-0.036,0.072v0.18v0.145l-0.036,0.107v0.18v0.145l-0.072,0.107v0.145l-0.036,0.145v0.107v0.18l-0.072,0.145l0.036,0.145v0.143     l-0.072,0.109v0.18l-0.036,0.18v0.145l-0.072,0.143v0.182l-0.036,0.107v0.18v0.145l-0.072,0.143l0.036,0.182l-0.072,0.107v0.18     l-0.036,0.145v0.107l-0.072,0.145v0.145l-0.036,0.107v0.145l-0.072,0.107v0.107l0.036,0.18l-0.072,0.072v0.145l-0.072,0.107     l0.036,0.145l-0.072,0.072v0.143l-0.072,0.072l0.036,0.145l-0.072,0.037v0.107l-0.036,0.107v0.107l-0.072,0.109v0.107     l-0.036,0.107l-0.072,0.037v0.107l-0.036,0.072v0.072l-0.072,0.072l-0.036,0.07v0.072l-0.072,0.072l-0.036,0.037v0.035     l-0.072,0.037l-0.072,0.035l0.036,0.072h-0.072h-0.072l0.036,0.072l-0.072,0.035h-0.072l-0.036-0.035v0.035H15.93l-0.036,0.037     l-0.072-0.037l-0.072-0.035h-0.036l-0.072-0.037l-0.036-0.035l-0.072-0.037h-0.036l-0.072-0.035l-0.072-0.072l-0.036-0.072     l-0.072-0.035v-0.037l-0.036-0.107h-0.072v-0.072l-0.072-0.035l-0.036-0.072v-0.072l-0.072-0.107v-0.037l-0.072-0.072v-0.07     l-0.036-0.072l-0.072-0.109v-0.07l-0.072-0.072v-0.109l-0.036-0.107v-0.072l-0.072-0.107v-0.107v-0.109l-0.072-0.107v-0.107     l-0.036-0.109v-0.107v-0.072l-0.072-0.072v-0.07v-0.072v-0.072l-0.072-0.107v-0.072v-0.072v-0.072l-0.072-0.107v-0.072v-0.109     v-0.07v-0.072l-0.036-0.109v-0.07v-0.072l-0.036-0.109l-0.036-0.107v-0.107v-0.072v-0.072l-0.072-0.145v-0.072v-0.107v-0.072     l-0.072-0.107v-0.145v-0.072v-0.107v-0.072l-0.072-0.107v-0.145v-0.072v-0.07v-0.072v-0.109l-0.072-0.107v-0.107v-0.072v-0.072     v-0.107l-0.036-0.109v-0.107v-0.072l-0.036-0.072v-0.107v-0.072l-0.036-0.107v-0.107v-0.072v-0.107v-0.072v-0.072l-0.072-0.109     v-0.107v-0.107v-0.072v-0.072l-0.072-0.107v-0.107v-0.109v-0.072l-0.072-0.574l-0.108-0.576l-0.072-0.576l-0.072-0.576     l-0.072-0.613l-0.072-0.574l-0.144-0.613l-0.036-0.576l-0.072-0.576l-0.072-0.611l-0.072-0.576l-0.072-0.611l-0.144-0.613     l-0.072-0.611l-0.072-0.611l-0.036-0.576l-0.072-0.613l-0.072-0.611L12.15,90.27l-0.072-0.611l-0.072-0.613l-0.072-0.611     l-0.072-0.611l-0.072-0.613l-0.072-0.611l-0.072-0.611l-0.072-0.648l-0.072-0.611l-0.072-0.613l-0.072-0.648l-0.072-0.611     l-0.072-0.648l-0.036,0.144v0.108v0.144v0.108v0.18l-0.036,0.072v0.18v0.108v0.145l-0.072,0.107l0.036,0.145v0.143v0.145     l-0.072,0.107v0.145v0.107v0.18v0.109l-0.036,0.072v0.18v0.145v0.107l-0.036,0.107v0.145v0.107v0.18l-0.072,0.072v0.18     l0.036,0.109v0.143v0.145l-0.072,0.107v0.396l-0.036,0.359l-0.036,0.396L10.71,87.93l-0.036,0.359v0.396l-0.036,0.359     l-0.072,0.396l-0.036,0.359l-0.036,0.361v0.395l-0.036,0.361l-0.072,0.396l-0.036,0.395l-0.036,0.361v0.359l-0.072,0.396     l-0.036,0.359l-0.036,0.359l-0.072,0.361l0.036,0.395l-0.072,0.396l-0.036,0.359L9.99,95.418l-0.072,0.359l0.036,0.432     L9.882,96.57L9.846,96.93L9.81,97.289L9.738,97.65v0.432l-0.036,0.359v0.107v0.145l-0.036,0.145v0.145v0.143v0.18v0.182v0.143     L9.63,99.773v0.18v0.18v0.217l-0.072,0.145l0.036,0.215v0.18l-0.072,0.182l0.036,0.18v0.215v0.217l-0.072,0.18v0.252l-0.036,0.18     v0.252v0.217l-0.036,0.18v0.289l-0.072,0.215l0.036,0.252v0.252l-0.072,0.217l0.036,0.287l-0.072,0.217v0.107l-0.036,0.107v0.109     l-0.072,0.035v0.107v0.145l-0.036,0.037v0.07l-0.072,0.072v0.072l-0.036,0.072l-0.072,0.037v0.07H8.91v0.072l-0.072,0.072H8.802     v0.072H8.73v0.035H8.694H8.622H8.586v0.072H8.514l-0.036-0.035H8.406H8.334l-0.036-0.037l-0.072-0.035l-0.036-0.035H8.118     l-0.072-0.037l-0.036-0.035v-0.037l-0.072-0.035l-0.036-0.072l-0.072-0.035v-0.037l-0.072-0.072l-0.036-0.072l-0.072-0.072     v-0.035l-0.072-0.072l-0.036-0.072v-0.035l-0.072-0.072v-0.035v-0.037l-0.036-0.072v-0.035l-0.072-0.072v-0.072v-0.035     l-0.072-0.072v-0.037v-0.072l-0.036-0.07v-0.037v-0.035l-0.072-0.109v-0.07v-0.109v-0.035l-0.072-0.072v-0.072v-0.035v-0.072     v-0.037l-0.072-0.107v-0.035v-0.037v-0.072v-0.035v-0.072v-0.072l-0.036-0.072l-0.036-0.072v-0.035v-0.072v-0.072v-0.072v-0.07     v-0.037v-0.072v-0.072v-0.035v-0.252v-0.289v-0.215v-0.252l-0.036-0.289v-0.252l0.036-0.252v-0.252v-0.252v-0.324l0.036-0.215     v-0.289V99.27l0.036-0.252v-0.324v-0.289l0.036-0.287V97.83l0.072-0.289L7.11,97.254l0.072-0.324v-0.289l0.036-0.324l0.036-0.287     v-0.324l0.036-0.324l0.072-0.287v-0.361l0.036-0.322l0.036-0.289l0.072-0.359l0.036-0.324v-0.289l0.036-0.287l0.072-0.252v-0.287     l0.036-0.289l0.036-0.287v-0.289l0.072-0.252l0.036-0.287v-0.289l0.036-0.287l0.072-0.252l-0.036-0.289l0.072-0.252l0.036-0.287     v-0.324l0.036-0.287l0.072-0.217v-0.324l0.036-0.287l0.036-0.289v-0.287l0.072-0.289l0.036-0.252v-0.287l0.036-0.289l0.072-0.287     l0.036-0.289v-0.252l0.036-0.287l0.072-0.289l-0.036-0.287l0.072-0.217v-0.252v-0.215l0.036-0.217v-0.215v-0.217l0.036-0.216     v-0.252l0.072-0.18v-0.252L8.694,81.99l0.072-0.216v-0.216L8.73,81.27l0.072-0.216v-0.216v-0.216l0.036-0.216v-0.252l0.036-0.18     v-0.252v-0.216l0.072-0.216L8.91,79.038v-0.216l0.072-0.216v-0.216l0.036-0.216v-0.252v-0.216l0.036-0.252v-0.216l0.072-0.288     L9.09,76.625l0.072-0.288l-0.036-0.324l0.072-0.288v-0.288l0.036-0.252v-0.288l0.072-0.252l-0.036-0.252l0.072-0.252l0.036-0.216     v-0.288l0.072-0.216l-0.036-0.216l0.072-0.18V72.81l0.036-0.18l0.072-0.18v-0.216l0.036-0.144v-0.216l0.072-0.144l-0.036-0.18     l0.072-0.144l0.036-0.108v-0.144l0.072-0.144v-0.108l0.036-0.108l0.072-0.108v-0.108l0.036-0.072v-0.072l0.072-0.036V70.29     l0.036-0.036v-0.072l0.072-0.072v-0.036l0.036-0.072l0.072-0.072v-0.036h0.072l-0.036-0.108h0.072V69.75l0.072-0.036l0.036-0.036     v-0.036h0.072l0.036-0.036v-0.036l0.072-0.036h0.072l0.036-0.036l0.072,0.036l0.036-0.036h0.072l0.072,0.036h0.036l0.072,0.036     h0.036l0.072,0.072h0.072l0.036,0.072l0.072,0.036l0.036,0.036l0.036,0.036l0.036,0.036l0.072,0.072v0.036l0.036,0.108v0.036     l0.072,0.036l0.072,0.108v0.036l0.036,0.108l0.036,0.072l0.036,0.036v0.108l0.072,0.072v0.108l0.072,0.108v0.072l0.036,0.108     v0.108l0.072,0.108v0.108l0.072,0.144v0.072l0.036,0.18l0.036,0.144l0.036,0.18v0.18v0.18l0.072,0.18v0.18l0.072,0.216v0.252     l0.072,0.216v0.252l0.072,0.252v0.216l0.072,0.288v0.252l0.036,0.288l0.036,0.288l0.036,0.324l0.072,0.324v0.288l0.072,0.36v0.36     l0.072,0.324v0.36l0.072,0.36v0.36l0.072,0.396v0.396l0.072,0.396l0.072,0.432v0.432l0.072,0.432v0.504l0.072,0.54l0.072,0.54     l0.072,0.54v0.504l0.072,0.541l0.072,0.576l0.072,0.504l0.072,0.539v0.576l0.072,0.539l0.072,0.541l0.072,0.576l0.072,0.576     l0.072,0.576l0.072,0.576l0.072,0.576l0.036,0.574l0.072,0.541l0.072,0.611l0.144,0.613l0.072,0.611l0.072,0.576l0.036,0.611     l0.072,0.576l0.144,0.648l0.072,0.611l0.072,0.576l0.072,0.648l0.108,0.648l0.072,0.611l0.108,0.648l0.072-0.576l0.108-0.576     l0.108-0.539l0.072-0.541l0.108-0.576l0.036-0.576l0.108-0.539l0.108-0.576l0.072-0.613l0.072-0.539l0.108-0.576l0.072-0.576     l0.072-0.611l0.108-0.576l0.072-0.611l0.108-0.576l0.036-0.613l0.108-0.576l0.072-0.611l0.072-0.576l0.108-0.611l0.036-0.648     l0.108-0.611l0.036-0.576l0.108-0.613l0.036-0.646l0.072-0.613l0.072-0.647l0.072-0.612l0.108-0.648l0.036-0.612l0.036-0.648     v-0.072l0.072-0.108v-0.144v-0.108l-0.036-0.108v-0.144l0.072-0.108v-0.072v-0.108v-0.144v-0.108v-0.144l0.036-0.108v-0.108     v-0.072v-0.144V78.39l0.072-0.108l-0.036-0.144v-0.108v-0.072v-0.144l0.072-0.108v-0.108v-0.144v-0.108v-0.144l0.036-0.036     v-0.144v-0.108V76.77v-0.108l0,0v-0.144l0.036-0.072v-0.18v-0.108v-0.144l0.072-0.108v-0.108v-0.144V75.51l0.036-0.108v-0.144     v-0.072v-0.108l0.036-0.108v-0.144v-0.108v-0.144l0.072-0.072v-0.108v-0.108l0.036-0.072V74.07v-0.072l0.072-0.108v-0.072V73.71     l0.036-0.108V73.53v-0.072l0.072-0.072v-0.072l0.036-0.072v-0.144l0.072-0.108v-0.072l0.036-0.108v-0.072l0.072-0.108v-0.108     l0.036-0.036v-0.108l0.072-0.072v-0.072l0.036-0.072l0.072-0.072v-0.072l0.036-0.036l0.072-0.036v-0.072l0.072-0.036h0.036     v-0.072l0.072-0.036l0.036-0.036l0.072,0.036v-0.072h0.036h0.072l0.072-0.036h0.036h0.072l0.036,0.036h0.072h0.072l0.036,0.036     l0.072,0.036l0.072,0.072l0.036,0.072l0.072,0.036l0.036,0.072l0.072,0.072l0.072,0.072l0.036,0.108v0.072l0.072,0.108     l0.072,0.144l0.036,0.144l0.072,0.144l0.072,0.144v0.144l0.072,0.108l0.036,0.216l0.072,0.18l0.072,0.18v0.18l0.036,0.216     l0.072,0.216v0.216l0.072,0.216l0.072,0.252v0.252l0.036,0.216v0.252l0.072,0.288l0.072,0.288v0.108v0.072v0.144v0.072     l0.072,0.144v0.108v0.144v0.18v0.108l0.072,0.18v0.18v0.144v0.144l0.072,0.252v0.144v0.216v0.18v0.216l0.072,0.216v0.216v0.216     l0.072,0.288v0.18v0.288v0.252l0.036,0.252l0.036,0.252v0.252v0.252l0.072,0.324v0.288v0.252l0.072,0.792l0.072,0.756     l0.072,0.719v0.721l0.072,0.756l0.072,0.721l0.072,0.719l0.072,0.721v0.684l0.072,0.686l0.072,0.719l0.072,0.684l0.072,0.686     l0.036,0.684l0.072,0.684l0.036,0.611l0.036,0.686l0.072,0.611l0.072,0.648l0.072,0.646l0.072,0.613l0.072,0.684l0.072,0.576     l0.072,0.611l0.036,0.613l0.072,0.574l0.072,0.613l0.072,0.576l0.072,0.576l0.036,0.576l0.072,0.611l0.144,0.539v0.145v0.18     v0.109l0.072,0.18v0.18v0.107l0.036,0.18v0.145v0.145v0.107l0.072,0.217v0.107v0.145l0.072,0.215v0.109v0.143v0.18l0.072,0.145     v0.145v0.145l0.036,0.18v0.107l0.036,0.18l0.036,0.18v0.109v0.18v0.107l0.072,0.18v0.18v0.109l0.072,0.18v0.145v0.215     l0.072,0.252v0.217l0.036,0.252l0.036,0.217l0.036,0.252v0.18v0.143l0.072,0.252v0.182v0.18l0.072,0.18v0.18v0.145v0.18     l0.072,0.145v0.143v0.182v0.107v0.072l0.072,0.18v0.145v0.072v0.143v0.072v0.072v0.107v0.072v0.072l0.072,0.107v0.072v0.037     v0.107v0.072h-0.072v0.107v0.072v0.035v0.109v0.072v0.035v0.107v0.037v0.072l-0.036,0.035v0.072v0.035v0.037v0.107v0.035h-0.072     v0.109v0.035v0.037l-0.036,0.07v0.037v0.035l-0.072,0.037v0.072v0.035h-0.036v0.037l-0.072,0.07v0.037v0.035l-0.036,0.037v0.035     v0.037h-0.072v0.035l-0.036,0.035H24.75v0.037v0.035l-0.036-0.035v0.072h-0.072H24.57l-0.036,0.035v0.037l-0.072-0.037v0.037     l-0.036-0.037h-0.072l-0.072-0.035h-0.036l-0.072-0.037L24.138,115.471z M36.594,84.475h-0.036l-0.072-0.037l-0.072-0.035h-0.036     l-0.072-0.072h-0.072l-0.036-0.035l-0.072-0.037H36.09l-0.072-0.035v-0.037h-0.072L35.91,84.15h-0.072l-0.036-0.072l-0.072-0.035     h-0.072l-0.036-0.072H35.55l-0.108-0.072l-0.072-0.037l-0.036-0.035l-0.072-0.072h-0.036l-0.072-0.035l-0.072-0.037l-0.036-0.035     l-0.072-0.072l-0.108-0.037l-0.072-0.07h-0.036l-0.072-0.072l-0.072-0.037h-0.036l-0.072-0.071h-0.072l-0.036-0.072l-0.072-0.036     h-0.036l-0.072-0.072l-0.072-0.035H34.11l-0.072-0.072h-0.036l-0.072-0.072l-0.036-0.036h-0.072l-0.072-0.072l-0.036-0.036     l-0.072-0.036L33.57,82.71h-0.036l-0.072-0.072l-0.036-0.036l-0.072-0.036l-0.072-0.036h-0.036l-0.072-0.072l-0.072-0.036     l-0.036-0.036l-0.072-0.036h-0.036l-0.072-0.072v0.504l-0.036,0.503v0.504v0.504v0.504l-0.036,0.469v0.504v0.504v0.504v0.504     l-0.036,0.469v0.504v0.504l0.036,0.504v0.504v0.432v0.504l-0.072,0.504l0.036,0.504v0.434v0.504v0.467v0.469v0.504l0.036,0.469     v0.504v0.467v0.432v0.504l-0.036,0.434v0.504v0.467v0.109v0.107v0.145v0.107v0.145v0.107l0.072,0.145v0.143v0.145v0.145v0.107     v0.145v0.18v0.145v0.143v0.145v0.18v0.109l0.036,0.18v0.143v0.182v0.143v0.18v0.145v0.18v0.182v0.18v0.18v0.145v0.18v0.18v0.18     v0.18v0.18v0.182v0.18v0.18l0.072,0.215v0.182v0.143v0.18v0.182v0.143v0.182v0.143l0.036,0.18v0.145v0.107v0.182v0.143v0.145     v0.145v0.107v0.18v0.145v0.145v0.107v0.107v0.145v0.145v0.143v0.145v0.072v0.145v0.18v0.145l0.036,0.18v0.145v0.18v0.18v0.107     v0.217v0.107v0.18v0.145v0.145v0.18v0.145v0.18v0.143v0.109v0.18v0.145v0.143l-0.036,0.109v0.18v0.143v0.145v0.107v0.145v0.145     v0.145v0.143v0.109v0.143l-0.036,0.109l0.108,0.072l0.108,0.035l0.108,0.072l0.144,0.072l0.108,0.035l0.108,0.072l0.108,0.072     l0.108,0.035l0.108,0.072l0.144,0.072h0.108l0.108,0.072l0.108,0.035l0.108,0.072l0.108,0.072l0.144,0.037l0.108,0.07     l0.108,0.072l0.108,0.037l0.108,0.072l0.144,0.07l0.108,0.037h0.108l0.108,0.072l0.108,0.072l0.108,0.035l0.072,0.037l0.108,0.07     l0.108,0.072l0.144,0.037l0.108,0.072l0.108,0.035l0.036,0.035l0.072,0.037l0.072,0.035l0.036,0.072l0.072,0.037v0.035     l0.072,0.035v0.037l0.036,0.035v0.037l0.072,0.035v0.072l0.036,0.072v0.035l0.072,0.072v0.037l0.072,0.107l0.036,0.072v0.035     v0.037l0.072,0.072v0.07v0.037l0.036,0.107v0.072v0.037l0.072,0.07v0.037v0.072l0.072,0.072v0.07v0.072v0.037l0.036,0.072v0.107     v0.035v0.037l0.072,0.107v0.072v0.035v0.109v0.035l0.072,0.072v0.107v0.037v0.107v0.035v0.109v0.035v0.107l0.072,0.072v0.109     v0.07v0.037v0.107v0.037v0.107v0.107v0.072v0.035v0.109v0.107v0.037l-0.072,0.07v0.072v0.072v0.072v0.035v0.109v0.035v0.107     h-0.036v0.109v0.035v0.107v0.037l-0.072,0.035v0.072v0.037v0.07l-0.036,0.072v0.037v0.035v0.072h-0.072v0.037v0.107h-0.036v0.072     v0.035H37.35v0.072v0.035h-0.036v0.037v0.072h-0.072v0.072h-0.036v0.035l-0.072-0.035v0.07v0.037l-0.072-0.037v0.037     l-0.036,0.035h-0.072v0.072l-0.036-0.035h-0.072l-0.072-0.037l-0.036-0.035v0.072l-0.072-0.037l-0.036-0.035l-0.072-0.037     l-0.036-0.035l-0.072-0.035l-0.072-0.037l-0.036-0.035H36.27l-0.036-0.037l-0.072-0.035l-0.072-0.037l-0.036-0.035l-0.072-0.035     l-0.036-0.037l-0.072-0.035l-0.072-0.037h-0.036l-0.072-0.035l-0.036-0.037l-0.072-0.035l-0.036-0.035l-0.072-0.037l-0.108-0.072     l-0.072-0.035h-0.036l-0.072-0.037l-0.108-0.035l-0.072-0.037l-0.036-0.035l-0.144-0.035l-0.036-0.037l-0.072-0.035l-0.108-0.072     l-0.072-0.037l-0.036-0.035l-0.108-0.035h-0.072l-0.036-0.037l-0.072-0.035l-0.108-0.037l-0.072-0.035l-0.036-0.037l-0.072-0.035     l-0.036-0.035l-0.072-0.037l-0.108-0.072l-0.072-0.035H33.57l-0.036-0.037l-0.072-0.035l-0.036-0.037l-0.072-0.035l-0.036-0.035     l-0.072-0.037l-0.072-0.035h-0.036l-0.072-0.037l-0.036-0.035l-0.072-0.037l-0.072-0.035l-0.036-0.035l-0.072-0.037l-0.036-0.035     l-0.072-0.037h-0.072h-0.036l-0.072-0.035l-0.036-0.037l-0.072-0.035l-0.036-0.035l-0.072,0.035l-0.072-0.035l-0.036-0.037     h-0.072l-0.036-0.035l-0.144-0.037h-0.036l-0.072-0.035h-0.036l-0.108-0.037H31.59l-0.072-0.035H31.41l-0.036-0.037h-0.072     l-0.108-0.07l-0.072,0.035l-0.108-0.035l-0.036-0.037h-0.144h-0.036l-0.108-0.072l-0.072,0.037l-0.108-0.037l-0.108-0.072     l-0.072,0.037l-0.108-0.037l-0.072-0.035h-0.108l-0.036-0.035l-0.108-0.037l-0.072-0.035h-0.108l-0.072-0.037H29.61l-0.144-0.035     H29.43l-0.072-0.037l-0.108-0.035l-0.036-0.035h-0.072l-0.072-0.037h-0.036l-0.072-0.035l-0.108-0.072l-0.072-0.037l-0.036,0.037     l-0.072-0.037l-0.036-0.035l-0.072-0.037l-0.036-0.035l-0.072-0.035l-0.072-0.037l-0.036-0.035h-0.072l-0.036-0.037l-0.072-0.035     l-0.072-0.072l-0.036-0.035v-0.037l-0.072-0.035v-0.072h-0.036v-0.072h-0.072v-0.072l-0.072-0.035v-0.037v-0.035l-0.036-0.037     v-0.035l-0.072-0.072v-0.035v-0.072l-0.072-0.072l-0.036-0.072v-0.035v-0.037l-0.072-0.072v-0.072v-0.072l-0.036-0.07v-0.037     l-0.036-0.107l-0.036-0.072v-0.035v-0.109v-0.035l-0.072-0.072v-0.072v-0.072v-0.072l-0.036-0.07v-0.037v-0.107v-0.037     l-0.036-0.072l-0.036-0.107v-0.072v-0.035v-0.107v-0.037v-0.072v-0.072v-0.07v-0.072l-0.072-0.072v-0.107v-0.037v-0.072v-0.107     v-0.035v-0.072v-0.109v-0.035v-0.107v-0.037l0.036-0.035v-0.072v-0.072v-0.035v-0.109v-0.035v-0.072v-0.072v-0.072h0.072v-0.035     v-0.107v-0.037v-0.035l0.036-0.072v-0.037v-0.035v-0.107h0.072v-0.037v-0.072v-0.072h0.036v-0.07v-0.037h0.072v-0.107v-0.037     h0.036v-0.035v-0.072h0.072v-0.035l0.036-0.037v-0.035v-0.037h0.072l0.036-0.035v-0.037v-0.035h0.072v-0.035l0.072,0.035v-0.035     l0.036,0.035v-0.035h0.072v-0.037l0.036,0.037v-0.037l0.072,0.037h0.036l0.072,0.035v-0.035l0.072,0.035l0.036,0.035l0.072,0.037     h0.036l0.072,0.035l0.072,0.037l0.036,0.035l0.072,0.037h0.108l0.036,0.035l0.072,0.037l0.072,0.035l0.036-0.035l0.108,0.07     l0.072,0.037l0.072-0.037l0.036,0.037l0.108,0.072h0.072l0.108,0.035h0.072l0.108,0.072l0.036-0.035l0.144,0.035h0.036     l0.108,0.035h0.144l0.036,0.037h0.108l0.144,0.035l0.108,0.072l0.036-0.035l0.072-0.109v-0.18v-0.143v-0.109v-0.143v-0.145v-0.18     l-0.036-0.109v-0.143l0.072-0.145v-0.145v-0.18v-0.145v-0.18v-0.107v-0.18l-0.036-0.18v-0.145v-0.18v-0.18v-0.145v-0.18v-0.182     v-0.18v-0.107v-0.217v-0.143v-0.18v-0.182v-0.18v-0.145v-0.18v-0.143v-0.145v-0.107l-0.036-0.145v-0.072v-0.145v-0.143v-0.145     v-0.107v-0.145v-0.145v-0.145v-0.18v-0.107v-0.145v-0.145v-0.18v-0.107v-0.145v-0.18v-0.145v-0.143v-0.18l-0.036-0.182v-0.107     v-0.18v-0.145l-0.036-0.215V102.4l-0.036-0.18v-0.18v-0.107v-0.18v-0.182v-0.18v-0.143v-0.182v-0.18v-0.143v-0.182v-0.143v-0.145     l-0.072-0.18v-0.18v-0.145v-0.18v-0.109v-0.143v-0.18v-0.145V98.91v-0.145v-0.145v-0.145v-0.107v-0.145v-0.143v-0.145     l-0.036-0.107v-0.145v-0.107v-0.109v-0.143v-0.072v-0.432v-0.434v-0.395v-0.434l-0.036-0.432v-0.396v-0.467v-0.432V93.4     l0.036-0.467v-0.469v-0.504v-0.432v-0.504l-0.036-0.469v-0.504l0.072-0.467v-0.541l-0.036-0.504v-0.539v-0.541l0.072-0.504     l-0.036-0.539v-0.541v-0.539l0.036-0.541v-0.539v-0.576l0.036-0.576v-0.576v-0.612l0.036-0.576l-0.036-0.036H30.51l-0.072-0.036     l-0.036-0.036v0.072l-0.072-0.036h-0.036l-0.072-0.036H30.15l-0.036-0.036h-0.072l-0.036-0.036h-0.072l-0.072-0.036l-0.036,0.036     l-0.072-0.036h-0.036l-0.072-0.036h-0.072l-0.036-0.036h-0.072l-0.036-0.036h-0.072l-0.072-0.036H29.25h-0.072h-0.036     l-0.072-0.036h-0.072l-0.036-0.036H28.89l-0.036-0.036h-0.072l-0.072-0.036h-0.036l-0.072-0.036h-0.036l-0.072-0.036h-0.072     l-0.036-0.036h-0.072l-0.072-0.036h-0.036l-0.072-0.036v0.036h-0.036l-0.072-0.036h-0.072l-0.036-0.036h-0.072l-0.036-0.036     h-0.072l-0.072-0.036H27.63l-0.072-0.036h-0.036l-0.072-0.036v-0.036h-0.072l-0.036-0.036v-0.036l-0.072-0.036l-0.036-0.036     l-0.072-0.072v-0.036l-0.072-0.036v-0.036l-0.036-0.072l-0.072-0.072v-0.036v-0.036l-0.072-0.072v-0.036h-0.036v-0.072v-0.036     l-0.072-0.108v-0.036v-0.036l-0.072-0.072v-0.036v-0.036l-0.036-0.072v-0.036v-0.108l-0.072-0.036v-0.072v-0.036v-0.072     l-0.072-0.072v-0.036v-0.108v-0.036v-0.036l-0.036-0.108v-0.036v-0.108v-0.036v-0.072v-0.072l-0.072-0.072v-0.072v-0.072v-0.072     v-0.072v-0.072v-0.036v-0.108v-0.072v-0.108v-0.036v0.001l-0.036-0.18V77.13v-0.18v-0.144v-0.144l0.072-0.108v-0.108v-0.144     v-0.144l0.036-0.036v-0.144V75.87l0.072-0.108V75.69l0.036-0.072V75.51l0.072-0.036l0.036-0.072v-0.108l0.072-0.036l0.072-0.072     h0.036v-0.072l0.072-0.072h0.036l0.072-0.036l0.072-0.036l0.036-0.036l0.072,0.036l0.036-0.036l0.072,0.036l0.108-0.036     l0.072,0.036l0.036-0.036h0.072l0.072,0.036h0.036l0.072-0.036l0.108,0.036l0.036,0.036l0.144,0.036l0.036-0.036l0.108,0.036     h0.072l0.108,0.036l0.144,0.036h0.108l0.108,0.036h0.072l0.108,0.036l0.108,0.036l0.108,0.036l0.18,0.036l0.108,0.036h0.144     l0.108,0.036l0.18,0.036l0.108,0.036l0.108,0.036l0.18,0.036l0.18,0.036l0.108,0.036l0.18,0.072l0.108,0.036l0.18,0.036     l0.18,0.036l0.108,0.036l0.18,0.108l0.108,0.036l0.18,0.036l0.144,0.036l0.18,0.108l0.144,0.036l0.144,0.108l0.18,0.036     l0.18,0.108l0.18,0.036l0.18,0.108l0.18,0.072l0.144,0.108l0.18,0.108l0.18,0.036l0.252,0.108l0.144,0.108l0.18,0.108l0.18,0.108     l0.252,0.108l0.144,0.108l0.18,0.108l0.252,0.144l0.18,0.108l0.216,0.108l0.252,0.144l0.144,0.108l0.252,0.144l0.18,0.144     l0.036,0.036l0.108,0.072l0.072,0.072h0.072v0.036l0.036,0.072l0.072,0.108l0.072,0.072l0.036,0.072l0.072,0.108v0.036     l0.072,0.108l0.036,0.108l0.072,0.072v0.108l0.072,0.108v0.144l0.036,0.108v0.072l0.072,0.18v0.072v0.144l0.036,0.18l0.036,0.144     v0.072l0.036,0.18v0.18v0.144v0.144v0.18v0.144l0.036,0.18v0.108v0.036v0.072v0.108v0.108v0.036v0.108v0.036v0.108v0.072     l-0.072,0.036v0.072v0.072v0.072v0.072l-0.036,0.071v0.037v0.035v0.108l-0.072,0.036v0.035v0.109v0.035l-0.072,0.035l0.036,0.072     v0.072l-0.072,0.037v0.035v0.037l-0.072,0.035v0.035l-0.036,0.072v0.072h-0.072v0.072v0.035l-0.036,0.037H37.17v0.072v0.035     h-0.036v0.037l-0.072-0.037v0.072H36.99l-0.036,0.035l-0.072,0.037H36.81l0.036,0.035l-0.072-0.035h-0.072v0.035h-0.036     L36.594,84.475z M50.346,126.559l-0.072,0.072l-0.108,0.035l-0.072,0.072l-0.108,0.035l-0.108,0.037l-0.036,0.072l-0.144,0.035     l-0.108,0.037l-0.108,0.035l-0.036,0.072l-0.144,0.035l-0.108,0.037l-0.108,0.035l-0.108-0.035h-0.18l-0.108,0.035l-0.108,0.037     l-0.108,0.035l-0.18,0.037h-0.108h-0.108h-0.18l-0.108,0.035h-0.18h-0.18h-0.108h-0.18h-0.144h-0.18l-0.18-0.035l-0.108,0.035     h-0.18l-0.18-0.035h-0.144l-0.18-0.072h-0.108h-0.18l-0.108-0.037l-0.18-0.035l-0.18-0.037l-0.108-0.035h-0.108l-0.18-0.072     h-0.108l-0.18-0.072h-0.108H44.19l-0.18-0.072l-0.108-0.072h-0.108h-0.108l-0.108-0.07l-0.144-0.037l-0.108-0.072l-0.18-0.035     l-0.108-0.072H42.93l-0.036-0.035l-0.144-0.072l-0.108-0.072l-0.108-0.072h-0.108l-0.108-0.072l-0.072-0.035l-0.108-0.072     l-0.072-0.037l-0.036-0.072l-0.072-0.035l-0.036-0.035l-0.144-0.072h-0.036l-0.072-0.109l-0.036-0.035l-0.072-0.035l-0.072-0.072     l-0.036-0.037l-0.072-0.072l-0.036-0.035l-0.072-0.072l-0.072-0.035v-0.037l-0.036-0.035l-0.072-0.109l-0.036-0.07l-0.072-0.072     l-0.072-0.037v-0.035l-0.036-0.072l-0.072-0.107l-0.036-0.072v-0.037l-0.072-0.107v-0.035l-0.072-0.072l-0.036-0.072v-0.072     l-0.072-0.107l-0.036-0.145l-0.036-0.072l-0.036-0.145l-0.072-0.107v-0.107l-0.036-0.145v-0.072l-0.072-0.18v-0.107l-0.072-0.18     v-0.145l-0.036-0.107v-0.145l-0.072-0.18v-0.145v-0.145l-0.072-0.18v-0.145v-0.18l-0.036-0.18v-0.18v-0.145v-0.18v-0.18     l-0.072-0.18v-0.217v-0.18v-0.18v-0.18v-0.217v-0.217v-0.287l-0.036-0.287v-0.324v-0.289l0.072-0.324v-0.287v-0.324v-0.287     l-0.036-0.289v-0.324v-0.287v-0.324l0.072-0.252v-0.289v-0.322v-0.289v-0.324l-0.036-0.287v-0.361l0.072-0.252v-0.287v-0.324     v-0.287v-0.324l-0.036-0.289v-0.287v-0.324l0.072-0.252v-0.324v-0.287v-0.361v-0.287l-0.036-0.828l0.072-0.828l-0.036-0.863     v-0.865v-0.863l0.036-0.828v-0.9v-0.863v-0.9l0.036-0.863v-0.9v-0.9l-0.036-0.9v-0.971l0.072-0.865l-0.036-0.973v-0.898v-0.938     v-0.971l-0.036-0.936v-0.973v-0.973v-0.971l0.036-0.973v-0.973v-0.971l-0.036-1.01v-1.008v-1.007v-1.044l-0.036-1.008V79.83     v-0.036v-0.108v-0.072v-0.072V79.47v-0.036v-0.108v-0.108v-0.036v-0.108l0.072-0.036l-0.036-0.072v-0.072v-0.036V78.75v-0.036     l0.072-0.072v-0.036v-0.072v-0.072V78.39l0.036-0.036v-0.036V78.21v-0.036l0.072-0.036v-0.036v-0.108l0.072-0.036v-0.036v-0.036     l0.036-0.036v-0.036v-0.072l0.072-0.036V77.67v-0.036l0.036-0.036v-0.072h0.072v-0.072v-0.036l0.072-0.036v-0.036h0.036V77.31     v-0.036h0.072v-0.036h0.036v-0.036h0.072v-0.036h0.072V77.13h0.036h0.072h0.036h0.072l0.072,0.036h0.036l0.072,0.036v0.036h0.036     l0.072,0.036v0.036l0.072,0.036v0.036h0.036v0.072h0.072v0.072h0.036l0.036,0.036v0.072h0.036v0.036l0.072,0.072v0.072     l0.036,0.036v0.072v0.036l0.072,0.072v0.036v0.036l0.072,0.072v0.036l0.036,0.072v0.072v0.036l0.072,0.072v0.036v0.108v0.036     l0.072,0.072v0.036v0.108v0.036l0.036,0.072v0.036v0.108v0.036l0.072,0.072v0.108v0.036v0.108v0.036v0.072v0.072l0.072,0.072     v0.108v0.036v0.108v0.072v0.072v0.108v0.036v0.108v0.072v0.072v1.044v1.08l0.036,1.008v1.043v1.01v1.043v1.008l0.036,1.008v1.008     v1.008v0.973l-0.036,0.973v0.971v0.973l0.036,0.973v0.971v0.973v0.936l-0.036,0.9v0.973v0.9v0.936l0.036,0.9l-0.072,0.898     l0.036,0.938v0.898l-0.072,0.865l0.036,0.9v0.863v0.863l-0.036,0.9v0.865v0.107v0.145v0.143v0.145v0.145l-0.072,0.107v0.145     v0.143v0.145v0.145l0.036,0.145v0.143v0.145v0.145v0.107v0.145v0.145v0.143l-0.072,0.109v0.143v0.145v0.145v0.143v0.145v0.145     v0.145l0.036,0.143v0.145v0.145v0.107v0.145v0.145l-0.072,0.143v0.145v0.145v0.143v0.145v0.145v0.145v0.143v0.145v0.145v0.145     l-0.036,0.143v0.145v0.145v0.143v0.145v0.145v0.145v0.07v0.145v0.145v0.145v0.107v0.145v0.143v0.109v0.143v0.072v0.145v0.145     v0.107v0.145l0.252,0.107l0.18,0.107l0.144,0.037l0.252,0.143l0.18,0.037l0.216,0.072l0.18,0.107l0.216,0.072h0.216l0.18,0.072     h0.216l0.252,0.072l0.216,0.035l0.216,0.037h0.252l0.216,0.035l0.216-0.035l0.252-0.037l0.216,0.037h0.288l0.216-0.037     l0.252-0.072h0.288l0.216-0.035l0.288-0.037l0.216-0.07l0.288-0.072l0.288-0.037l0.288-0.107l0.216-0.072l0.288-0.107     l0.288-0.072v-0.037l0.072,0.037l0.036,0.035v-0.072l0.072,0.037l0.072,0.035v-0.035h0.036l0.072,0.035l0.036,0.037l0.072,0.035     l0.036,0.037v0.035l0.072,0.035l0.072,0.072l0.036,0.037v0.035l0.072,0.037v0.035l0.036,0.107v0.037l0.072,0.035v0.037     l0.072,0.072v0.07v0.037l0.036,0.035v0.072l0.072,0.072v0.035l0.036,0.072v0.109v0.072l0.072,0.07v0.037v0.072l0.072,0.107v0.072     v0.035l0.036,0.072v0.072v0.107l0.072,0.072v0.037v0.07v0.109v0.035l0.072,0.072v0.072v0.072v0.072v0.035l0.036,0.145v0.035     v0.072v0.107v0.037v0.107v0.037v0.07v0.072v0.072l0.072,0.145v0.035v0.109v0.035v0.107v0.037v0.107v0.107v0.145v0.107v0.109     l-0.072,0.107v0.107l0.036,0.109v0.107v0.072v0.107l-0.072,0.072v0.107v0.107l-0.036,0.072v0.109v0.072l-0.072,0.07v0.109     l-0.072,0.035v0.107l-0.036,0.072v0.037l-0.072,0.072v0.035l-0.036,0.072l-0.072,0.035v0.109h-0.036l-0.072,0.035v0.107h-0.072     L50.346,126.559z M64.53,137.178l-0.108-0.072l-0.108-0.107l-0.144-0.107l-0.108-0.145l-0.108-0.107l-0.108-0.18l-0.108-0.182     l-0.18-0.252l-0.108-0.18l-0.108-0.215l-0.18-0.324l-0.108-0.252l-0.18-0.324l-0.108-0.289l-0.18-0.359l-0.108-0.324l-0.18-0.396     l-0.18-0.395l-0.18-0.432l-0.144-0.396l-0.144-0.432l-0.144-0.504l-0.18-0.469l-0.18-0.504l-0.216-0.541l-0.18-0.539l-0.18-0.504     l-0.18-0.576l-0.18-0.648l-0.216-0.576l-0.18-0.646l-0.216-0.648l-0.108-0.361l-0.072-0.359l-0.108-0.359l-0.144-0.324     l-0.108-0.396l-0.108-0.359l-0.108-0.396l-0.108-0.359l-0.072-0.289l-0.108-0.395l-0.108-0.361l-0.144-0.396l-0.108-0.359     l-0.108-0.359l-0.072-0.324l-0.108-0.359l-0.108-0.361l-0.108-0.395l-0.108-0.361l-0.144-0.359l-0.108-0.324l-0.072-0.359     l-0.108-0.361l-0.108-0.359l-0.108-0.359l-0.108-0.324l-0.144-0.359l-0.108-0.396l-0.072-0.324l-0.108-0.359l-0.108-0.396     l-0.108-0.289v0.037v0.072v0.035v0.072v0.035v0.037v0.072v0.035v0.576v0.541v0.504v0.539v0.504v0.541v0.576v0.504v0.539     l0.036,0.504v0.541v0.574v0.541v0.504v0.539v0.506v0.539v0.576v0.504v0.539v0.504v0.541v0.504v0.576v0.539v0.504v0.541v0.504     v0.576l0.036,0.539v0.504v0.541v0.215v0.182v0.18v0.145v0.215l-0.072,0.145v0.145v0.143v0.18l-0.036,0.072v0.145v0.107     l-0.072,0.109v0.107l-0.036,0.072v0.107l-0.072,0.072v0.072l-0.072,0.035l-0.036,0.037v0.107l-0.072,0.035h-0.036l-0.072,0.037     h-0.036v0.072h-0.072l-0.072-0.037l-0.036-0.035l-0.072,0.035l-0.036-0.035l-0.072-0.037l-0.072-0.035l-0.036-0.035l-0.072-0.037     l-0.036-0.072l-0.072-0.035l-0.036-0.107l-0.072-0.072v-0.037l-0.072-0.035l-0.036-0.107v-0.037l-0.072-0.072v-0.072     l-0.036-0.072v-0.07l-0.072-0.072l-0.072-0.072v-0.072l-0.036-0.072v-0.107l-0.072-0.072v-0.107l-0.072-0.072v-0.109v-0.07     l-0.036-0.145v-0.072l-0.072-0.107v-0.109l-0.036-0.107v-0.107v-0.072v-0.107l-0.072-0.109v-0.07v-0.109l-0.072-0.143v-0.037     v-0.107v-0.107l-0.036-0.109v-0.072v-0.107v-0.107v-0.072l-0.072-0.107v-0.109v-0.107v-0.072v-0.072v-0.107v-0.107v-0.109     l-0.072-0.107v-0.107v-0.107v-0.109v-0.107v-0.107v-0.072v-0.107v-0.469v-0.469v-0.504v-0.539v-0.504v-0.576v-0.576v-0.541     v-0.574v-0.613v-0.648v-0.611l0.036-0.611v-0.686v-0.684v-0.646v-0.758v-0.719l-0.036-0.721v-0.719v-0.758v-0.791l0.072-0.793     v-0.756v-0.828l-0.036-0.898v-0.828v-0.865v-0.898l0.072-0.828v-0.938l-0.036-0.936v-0.936v-0.863v-0.938l0.072-0.863     l-0.036-0.863v-0.828v-0.828v-0.828v-0.828v-0.756v-0.793v-0.756l0.036-0.756v-0.756v-0.721v-0.719v-0.648v-0.684v-0.684v-0.648     v-0.648v-0.611l-0.036-0.613v-0.576v-0.574v-0.541v-0.576v-0.539v-0.504v-0.504v-0.469v-0.469V84.15v-0.107v-0.037v-0.107     l0.072-0.035v-0.109l-0.036-0.107v-0.035v-0.109V83.43v-0.107v-0.035v-0.109l0.072-0.035v-0.107v-0.037v-0.072v-0.072v-0.072     l0.036-0.036v-0.108v-0.036V82.53l0.072-0.036v-0.108v-0.036v-0.036l0.072-0.036v-0.072V82.17l0.036-0.108v-0.036V81.99     l0.072-0.036v-0.072l0.072-0.036v-0.036v-0.072l0.036-0.036v-0.036v-0.072l0.072-0.036v-0.036h0.036v-0.036l0.072-0.036v-0.072     l0.036-0.036l0.072-0.036l0.072,0.036v-0.036h0.036v-0.072l0.072,0.036h0.072l0.036-0.036l0.072,0.036h0.036l0.072,0.036v0.036     h0.072l0.036,0.036l0.072,0.072l0.036,0.072h0.072v0.072h0.072v0.072l0.036,0.036v0.072l0.072,0.072l0.072,0.072v0.036v0.072     l0.036,0.036v0.072l0.072,0.072v0.036v0.072l0.036,0.072v0.036v0.072l0.072,0.036v0.108v0.072l0.036,0.072v0.036v0.072     l0.072,0.036v0.109v0.071v0.036l0.072,0.072v0.107v0.072v0.035v0.109l0.036,0.072v0.035v0.107v0.072v0.072l0.036,0.072     l0.036,0.107v0.072v0.107v0.037v0.107v0.107v0.037v0.107v0.072v0.107v0.109v0.215v0.18v0.217v0.217v0.215v0.252v0.217v0.252     v0.252v0.287v0.252l0.036,0.252v0.324v0.252v0.324v0.324l-0.072,0.287v0.324v0.289v0.324v0.359v0.324v0.359v0.361v0.359v0.396     v0.359l0.036,0.359l-0.072,0.396v0.432v0.359v0.396v0.432v0.361v0.432v0.359l-0.036,0.361v0.359v0.359v0.361v0.322v0.361v0.324     v0.359v0.324v0.287v0.324l-0.072,0.289v0.324v0.322l0.036,0.252v0.324v0.252v0.324v0.252v0.252v0.289v0.18v0.287v0.252v0.182     v0.287v0.217v0.18l0.108-0.217l0.072-0.215l0.108-0.217l0.108-0.217l0.036-0.287l0.144-0.217l0.108-0.215l0.108-0.289     l0.072-0.215l0.108-0.289l0.108-0.252l0.108-0.252l0.108-0.252l0.072-0.287l0.108-0.289l0.108-0.324l0.108-0.287l0.144-0.252     l0.108-0.289l0.108-0.322l0.108-0.252l0.108-0.361l0.108-0.324l0.144-0.324l0.108-0.322l0.108-0.324l0.108-0.324l0.108-0.361     l0.144-0.322l0.108-0.324l0.108-0.396l0.108-0.324l0.072-0.287l0.108-0.361l0.108-0.252l0.108-0.359l0.108-0.289l0.072-0.287     l0.108-0.324l0.108-0.287l0.144-0.324l0.036-0.324l0.108-0.324l0.108-0.287l0.144-0.289l0.036-0.359l0.108-0.289l0.144-0.324     l0.108-0.287l0.108-0.287l0.072-0.361l0.108-0.287l0.108-0.361l0.108-0.287l0.072-0.287l0.108-0.361l0.108-0.287l0.108-0.324     l0.144-0.289L62.37,86.6l0.108-0.361l0.144-0.287l0.108-0.324l0.036-0.324l0.072-0.072v-0.072l0.036-0.107v-0.035l0.072-0.037     v-0.107v-0.072l0.072-0.035v-0.037l0.036-0.035v-0.072l0.072-0.037v-0.035l0.072-0.035v-0.072l0.036-0.037V84.33l0.072,0.037     v-0.072l0.036-0.037l0.072-0.035l0.072,0.035v-0.07l0.036,0.035h0.072h0.072l0.036,0.035h0.072l0.036,0.037l0.072,0.072h0.036     l0.072,0.072l0.072,0.072v0.07h0.036v0.072l0.072,0.072l0.036,0.072v0.035l0.072,0.072v0.072l0.072,0.072v0.035l0.036,0.072     v0.072v0.037l0.072,0.072v0.07l0.072,0.109v0.072v0.035l0.036,0.072v0.072v0.035l0.072,0.072v0.107v0.072v0.037l0.036,0.07v0.109     v0.072l0.072,0.072v0.107v0.035v0.072v0.107v0.072l0.072,0.109v0.035v0.107v0.072v0.107v0.072v0.109v0.035v0.107l0.036,0.072     v0.107v0.109v0.072v0.107v0.145l-0.036,0.18v0.145v0.215l-0.072,0.145v0.215l-0.036,0.289l-0.072,0.18v0.289l-0.072,0.252     l-0.036,0.287l-0.108,0.252l-0.072,0.324l-0.072,0.287l-0.108,0.361l-0.036,0.324L63.99,92.25l-0.108,0.361l-0.036,0.396     l-0.144,0.395l-0.108,0.432l-0.108,0.396l-0.18,0.361l-0.108,0.467l-0.18,0.432l-0.108,0.469l-0.18,0.432l-0.108,0.504     l-0.18,0.504l-0.144,0.504l-0.18,0.504l-0.18,0.541l-0.18,0.359l-0.108,0.324l-0.108,0.396l-0.108,0.324l-0.18,0.395     l-0.108,0.324l-0.108,0.324l-0.144,0.396l-0.108,0.324l-0.18,0.359l-0.108,0.324l-0.108,0.396l-0.108,0.324l-0.18,0.359     l-0.108,0.324l-0.108,0.324l-0.18,0.359l-0.108,0.324l-0.108,0.396l-0.144,0.324l-0.144,0.322l-0.108,0.361l-0.144,0.324     l-0.108,0.324l-0.18,0.287l-0.108,0.396l-0.108,0.324l-0.18,0.287l-0.108,0.324l-0.108,0.324l-0.18,0.359l-0.108,0.324     l0.108,0.289l0.072,0.287l0.108,0.324l0.072,0.287l0.108,0.361l0.108,0.324l0.108,0.359l0.144,0.359l0.036,0.361l0.108,0.359     l0.18,0.396l0.144,0.432l0.108,0.359l0.108,0.432l0.108,0.432l0.108,0.434l0.18,0.432l0.108,0.432l0.18,0.469l0.108,0.467     l0.18,0.504l0.144,0.432l0.144,0.506l0.18,0.504l0.108,0.504l0.18,0.576l0.18,0.504l0.18,0.576l0.18,0.504l0.144,0.574     l0.18,0.576l0.18,0.541l0.072,0.145l0.036,0.143v0.072l0.072,0.107v0.109l0.036,0.107l0.072,0.145v0.072l0.072,0.107l0.036,0.145     v0.072l0.072,0.143l0.036,0.109v0.107l0.072,0.107l0.072,0.107v0.109l0.036,0.143v0.109l0.072,0.072l0.036,0.143v0.109     l0.072,0.07l0.072,0.145v0.107l0.036,0.072l0.072,0.145v0.107l0.036,0.145l0.072,0.072v0.107l0.072,0.145l0.036,0.107v0.109     l0.072,0.107l0.036,0.107v0.107l0.072,0.072l0.072,0.145l0.036,0.072v0.107l0.072,0.107l0.036,0.109l0.072,0.107v0.035     l0.072,0.145l0.036,0.109l0.072,0.07l0.036,0.145v0.037l0.072,0.107l0.072,0.072l0.036,0.072v0.07l0.072,0.145l0.036,0.072     l0.072,0.072v0.072l0.072,0.072l0.036,0.107l0.072,0.072l0.036,0.035v0.037l0.072,0.107l0.036,0.072l0.072,0.072l0.072,0.143     l0.036,0.109l0.072,0.072l0.072,0.143v0.037l0.036,0.107l0.072,0.145l0.036,0.143v0.037l0.072,0.145v0.107l0.036,0.072     l0.072,0.145v0.107l0.072,0.145v0.107v0.107l0.036,0.145v0.107v0.18l0.072,0.145v0.107v0.145v0.145l0.072,0.18v0.107v0.18v0.145     v0.107v0.182v0.107v0.072v0.035v0.072v0.107v0.037v0.072v0.107v0.035v0.072v0.037l-0.072,0.072v0.07v0.072v0.037v0.107v0.072     v0.035v0.072l-0.072,0.072v0.072v0.035v0.037v0.143v0.037l-0.036,0.035v0.037v0.107v0.072l-0.072,0.035v0.109v0.035v0.072     l-0.036,0.072v0.035v0.109l-0.072,0.035v0.035l-0.072,0.037v0.107v0.072h-0.036v0.072l-0.072,0.035v0.037l-0.036,0.035v0.037     l-0.072,0.035v0.037l-0.036,0.035l-0.072,0.035l-0.072-0.035v0.035l-0.036-0.035l-0.072,0.035l-0.036-0.035l-0.072-0.035V137.178     h0.036H64.53z" fill-rule="evenodd" i:knockout="Off"/>
    </g>
  </g>
</svg>
