<?xml version="1.0" encoding="UTF-8" standalone="no"?>
<!-- Generator: Adobe Illustrator 12.0.0, SVG Export Plug-In . SVG Version: 6.00 Build 51448)  --><svg height="187.933" id="Layer_1" inkscape:version="0.40+cvs" sodipodi:docbase="F:\openclip\svg temporanei" sodipodi:docname="Fuoco al campeggio.svg" sodipodi:version="0.32" style="overflow:visible;enable-background:new 0 0 271.938 187.933;" version="1.0" viewBox="0 0 271.938 187.933" width="271.938" xml:space="preserve" xmlns="http://www.w3.org/2000/svg" xmlns:cc="http://web.resource.org/cc/" xmlns:dc="http://purl.org/dc/elements/1.1/" xmlns:inkscape="http://www.inkscape.org/namespaces/inkscape" xmlns:rdf="http://www.w3.org/1999/02/22-rdf-syntax-ns#" xmlns:sodipodi="http://inkscape.sourceforge.net/DTD/sodipodi-0.dtd" xmlns:svg="http://www.w3.org/2000/svg" xmlns:xml="http://www.w3.org/XML/1998/namespace"><metadata><rdf:RDF xmlns:cc="http://web.resource.org/cc/" xmlns:dc="http://purl.org/dc/elements/1.1/" xmlns:rdf="http://www.w3.org/1999/02/22-rdf-syntax-ns#"><cc:Work rdf:about=""><dc:title>Fuoco da campeggio</dc:title><dc:description></dc:description><dc:subject><rdf:Bag><rdf:li>protein</rdf:li><rdf:li>food</rdf:li></rdf:Bag></dc:subject><dc:publisher><cc:Agent rdf:about="http://www.openclipart.org"><dc:title>Architetto Francesco Rollandin</dc:title></cc:Agent></dc:publisher><dc:creator><cc:Agent><dc:title>Architetto Francesco Rollandin</dc:title></cc:Agent></dc:creator><dc:rights><cc:Agent><dc:title>Architetto Francesco Rollandin</dc:title></cc:Agent></dc:rights><dc:date></dc:date><dc:format>image/svg+xml</dc:format><dc:type rdf:resource="http://purl.org/dc/dcmitype/StillImage"/><cc:license rdf:resource="http://web.resource.org/cc/PublicDomain"/><dc:language>en</dc:language></cc:Work><cc:License rdf:about="http://web.resource.org/cc/PublicDomain"><cc:permits rdf:resource="http://web.resource.org/cc/Reproduction"/><cc:permits rdf:resource="http://web.resource.org/cc/Distribution"/><cc:permits rdf:resource="http://web.resource.org/cc/DerivativeWorks"/></cc:License></rdf:RDF></metadata>
<defs id="defs110"></defs>
<sodipodi:namedview bordercolor="#666666" borderopacity="1.0" id="base" inkscape:current-layer="Layer_1" inkscape:cx="135.96899" inkscape:cy="93.966499" inkscape:pageopacity="0.0" inkscape:pageshadow="2" inkscape:window-height="540" inkscape:window-width="640" inkscape:window-x="110" inkscape:window-y="110" inkscape:zoom="2.0113551" pagecolor="#ffffff"></sodipodi:namedview>

<path d="M46.153,14.676c-0.471,3.89,4.528,5.23,3.669,9.103c-4.656-2.101-10.534-6.728-11.143-12.093  c-0.243-2.141,1.019-4.623,0.067-6.522C37.79,3.253,35.769,2.343,36.504,0C41.271,3.43,47.97,7.91,46.153,14.676" id="path3"></path>

<path d="M43.299,15.627c-3.798-1.683-1.732-6.373-2.174-9.512C43.954,8.387,43.663,12.35,43.299,15.627" id="path5" style="fill:#FF7F00;"></path>

<path d="M109.746,30.982C107.97,34.554,108.44,26.409,109.746,30.982" id="path7"></path>

<path d="M267.371,65.497c-3.171,4.21-7.843,14.191-14.268,7.201c-3.485,5.239-10.645,7.04-14.134,0.272  c-2.989,4.932-8.005-0.349-9.782-2.853c-2.651,3.62-10.093-1.167-7.745-5.3c-9.895,2.156-20.168,4.015-29.446,8.234  c-4.354,1.979-6.07,10.353-7.876,14.771c-2.121,5.187-5.067,9.803-8.063,14.499c3.214,1.959,6.427,4.703,8.832,7.61  c11.526-10.782,21.559,6.721,26.361,16.306c1.956,3.905,3.309,6.256,1.862,10.891c-0.621,1.991-2.568,8.996-4.512,9.831  c-4.568,1.962-2.826,5.011-8.901,4.96c-5.987-0.05-7.095,1.263-11.481,5.027c-1.772,1.521-4.135,2.073-5.979,3.126  c-2.068,1.181-4.685-0.253-6.591,1.088c-2.119,1.49-1.672,4.617-4.756,6.115c-2.191,1.064-6.688,0.591-8.085,2.919  c-0.864,1.441-0.735,3.181-1.767,4.553c-1.62,2.155-6.201,1.696-8.628,2.174c-4.902,0.964-10.037,2.244-14.132-1.493  c-4.961,8.558-17.608,9.742-26.362,11.413c-8.347,1.594-13.118,1.422-18.955-4.416c-2.252-2.252-4.097,1.977-5.64,3.262  c-3.291,2.74-5.84,1.179-9.783,1.835c-4.863,0.81-8.008,0.841-10.328-3.806c-1.674-3.354-5.058-5.619-6.251-9.24  c-0.997,2.765-2.829,5.041-4.891,7.067c-3.486,3.424-5.485,3.531-10.297,3.531c-7.081,0-15.326-0.132-21.364-4.348  c-1.546-1.079-9.686-8.047-8.833-10.599c2.541-7.6-13.575-6.941-14.645-13.714c-0.737-4.666-1.781-6.086,0.241-11.152  c1.108-2.777,2.552-5.459,4.213-7.95c1.374-2.062,3.733-2.784,4.28-4.959c1.114-4.432,10.753-11.251,15.558-11.007  c2.461,0.125,3.952,1.394,6,2.687c2.201,1.39,1.042-0.253,2.97-0.377c1.858-0.119,4.504-0.616,6.386-1.087  c0.58-0.145,0.976-0.391,1.495-0.679c-5.988-3.203-10.429-9.083-13.739-14.872c-1.858-3.251-3.937-6.372-6.05-9.462  c-1.435-2.098,0.432-2.67,0.493-4.474c0.113-3.318-3.6-7.493-2.378-11.55c1.575-5.229,2.508-4.813,8.367-5.737  c5.446-0.859,11.002-0.77,16.487-1.092c3.154-0.186,6.805-2.951,9.457-4.721c2.648-1.768-1.137-14.579-1.89-17.27  c-1.599-5.711-4.644-11.233-7.894-16.157c2.765-1.303,5.846,4.343,7.589,6.195c5.372,5.708,11.437,10.721,16.312,16.896  c2.929,3.71,2.812,4.731,7.489,3.542c2.468-0.627,5.78-0.81,6.793-3.6c1.536-4.229,0.597-12.069-0.95-16.238  c5.547-0.464,6.85,16.607,16.221,15.187c7.744-1.174,15.495-2.149,23.277-3.038c7.28-0.831,14.493-0.871,21.785-0.871  c1.721,0,3.662,0.232,5.367,0.476c3.639,0.52,3.991-3.748,4.446-6.938c0.529-3.708,1.81-21.187,8.938-16.91  c5.201,3.121,4.598,10.153,9.241,13.181c4.487,2.925,24.642,1.414,23.37,8.425c-0.661,3.648-16.779,6.827-20.383,7.474  c4.855,2.946,13.175,0.942,18.956,0.543c8.537-0.589,17.055-2.352,25.478-3.806c-2.997-6.018,20.61-15.235,24.324-16.713  c7.423-2.955,15.397-4.307,21.454,1.751c3.36,3.361,6.299,6.712,7.213,11.505C272.551,57.289,268.812,62.191,267.371,65.497" id="path9"></path>

<path d="M264.653,59.925c-2.08-0.313-4.323,0.436-5.708,2.038c-0.646-2.078-4.54-3.171-6.521-2.038  c-0.116-5.648,4.357-2.153,7.201-2.582c-4.399-4.4-13.026-8.421-19.635-6.387c-6.018,1.853-12.679,5.46-19.227,4.077  c5.153-2.322,8.496-7.762,14.131-9.172c5.698-1.426,11.044-4.696,16.84-5.609c6.281-0.989,10.926,1.152,14.686,6.221  C269.899,51.164,271.011,57.158,264.653,59.925" id="path11" style="fill:#FFB8A6;"></path>

<path d="M165.458,39.814c1.089,4.429,3.112,7.228,7.202,8.289c3.817,0.99,16.246,0.464,18.072,4.756  c-8.913,3.878-26.449,2.932-31.933,11.414c-3.383,5.233-8.005,10.712-10.803,16.306c-2.97,5.936-9.35,9.904-14.336,14.267  c0.781-1.743,8.367-8.065,2.99-9.104c-1.677-0.324-6.959,4.881-8.153,5.707c-4.355,3.008-9.327,7.281-14.675,8.018  c-2.618,0.36-5.342-0.577-8.017-0.272c-2.88,0.327-4.703,1.243-7.971,0.881c-5.865-0.651-10.818-1.359-16.624,0.207  c-2.303,0.621-2.959,0.974-5.163,0.951c-1.24-0.013-2.035-0.954-3.397-0.612c-4.098,1.029-12.34-1.442-13.928-5.571  c-1.715-4.46-2.89-9.347-5.232-13.52c-3.729,2.383-3.675,6.717-7.745,8.289c-4.429,1.71-19.526-7.189-19.024,1.087  c-2.444-1.881-4.356-5.028-3.806-8.153c0.911-5.169,7.432-5.105,11.812-5.335c12.899-0.678,24.876,1.901,37.577,3.769  c7.881,1.159,15.95,1.543,23.888,2.203c5.627,0.468,6.41-0.614,11.379-1.859c3.79-0.95,7.656,0.029,11.551-0.952  c5.948-1.499,11.978-4.164,17.584-6.804c7.162-3.372,13.316-7.612,17.813-13.918c0.857-1.201,6.896-6.899,6.591-8.085  c-0.711-2.761-7.007,4.832-7.475,5.299c2.652-6.404,1.208-13.46,3.474-19.894C159.673,29.896,163.408,35.781,165.458,39.814" id="path13" style="fill:#87AB80;"></path>

<path d="M181.629,36.825C180.101,40.265,178.992,35.399,181.629,36.825" id="path15"></path>

<path d="M120.889,42.668C118.193,46.96,117.997,37.769,120.889,42.668" id="path17"></path>

<path d="M138.961,45.929c-2.019,0.916-2.492-0.956-1.087-2.582C138.79,44.054,138.887,44.807,138.961,45.929" id="path19"></path>

<path d="M68.167,65.224c-3.488,1.178-6.976,2.356-10.463,3.534c-1.413-7.843-2.73-15.492-5.163-23.101  C58.41,51.709,65.936,56.598,68.167,65.224" id="path21" style="fill:#FF0000;"></path>

<path d="M70.884,47.56C66.623,50.134,69.585,43.19,70.884,47.56" id="path23"></path>

<path d="M91.537,58.974c-1.229,0.274-5.677,2.494-6.794,1.359c-0.647-0.657,1.168-8.026,0.952-9.512  C86.425,54.338,90.378,56.128,91.537,58.974" id="path25" style="fill:#FF0000;"></path>

<path d="M111.512,52.451C107.186,56.174,108.728,47.733,111.512,52.451" id="path27"></path>

<path d="M253.238,55.033c-2.17,1.397-3.826-0.192-6.115,0c-3.154,0.265-5.566,3.566-8.016,2.31  c-4.147-2.127,0.394-4.213,3.193-4.213C245.879,53.13,250.24,54.197,253.238,55.033" id="path29" style="fill:#BFBFBF;"></path>

<path d="M26.042,57.343C22.984,59.092,23.861,54.503,26.042,57.343" id="path31"></path>

<path d="M140.185,57.343c3.113-1.098,5.983,0.67,9.104,0.68c-1.999,8.78-14.436,14.22-22.012,17.393  c-4.846,2.03-9.758,1.926-14.838,2.688c-4.521,0.677-8.735,2.082-13.156,2.205c-14.877,0.416-33.451-1.004-47.831-5.979  c17.35-7.146,35.162-11.797,53.673-14.54C116.409,58.117,128.915,55.47,140.185,57.343" id="path33" style="fill:#808080;"></path>

<path d="M250.386,58.294c-3.076,5.963-7.904,10.489-13.792,13.656c-3.399,1.828-4.551-2.17-3.466-4.417  C235.051,63.552,246.132,55.279,250.386,58.294" id="path35" style="fill:#FFB8A6;"></path>

<path d="M237.748,59.381c-0.826,2.387-11.715,12.603-13.995,8.153  C221.673,63.475,234.565,55.17,237.748,59.381" id="path37" style="fill:#FFB8A6;"></path>

<path d="M224.295,61.556c-8.068,1.656-16.134,3.605-23.982,6.115c-5.343,1.708-12.514,2.263-14.472,8.017  c1.454-4.755,0.257-8.574-3.533-11.822c9.911-0.468,20.633-1.251,30.03-3.6c4.53-1.133,11.763-2.249,16.307-1.971  C227.194,59.381,225.745,60.469,224.295,61.556" id="path39" style="fill:#BFBFBF;"></path>

<path d="M11.366,59.925C10.806,65.378,7.356,57.619,11.366,59.925" id="path41"></path>

<path d="M256.5,61.963c-0.893,3.936-10.196,19.155-14.879,11.346C240.814,71.962,254.088,57.896,256.5,61.963  " id="path43" style="fill:#FFB8A6;"></path>

<path d="M183.803,69.438c1.763,11.869-14.724,19.36-23.235,23.371c-11.25,5.301-23.26,8.694-35.33,11.55  c2.327-4.126,9.355-7.04,12.994-9.898c7.945-6.241,12.665-13.889,18.65-21.877c4.554-6.077,7.244-12.08,15.643-10.347  C176.757,63.108,181.513,65.599,183.803,69.438" id="path45" style="fill:#808080;"></path>

<path d="M265.604,63.594c-0.74,3.363-4.537,10.969-9.239,8.832C251.396,70.167,263.678,59.026,265.604,63.594  " id="path47" style="fill:#FFB8A6;"></path>

<path d="M37.863,66.175c-1.171,1.199-2.423,1.173-1.359-1.359C37.201,65.117,37.478,65.567,37.863,66.175" id="path49"></path>

<path d="M27.672,69.708C22.518,72.141,28.393,65.063,27.672,69.708" id="path51"></path>

<path d="M106.484,69.438c-0.716,1.888-3.618,1.504-2.718-0.137C104.804,67.409,106.151,67.955,106.484,69.438" id="path53"></path>

<path d="M117.764,70.117C116,74.565,114.016,65.625,117.764,70.117" id="path55"></path>

<path d="M163.964,75.28C163.193,78.444,160.656,74.05,163.964,75.28" id="path57"></path>

<path d="M89.499,75.959C88.379,82.398,84.801,73.035,89.499,75.959" id="path59"></path>

<path d="M177.415,96.205c-5.438,6.541-9.895,10.372-17.257,13.045c-7.65,2.778-13.932,8.373-21.615,10.795  c-3.358,1.059-6.745,2.011-10.091,3.125c-2.593,0.863-8.065,3.908-10.688,3.609c-3.879-0.441-2.681-2.447-2.854-5.707  c-0.157-2.95-0.88-6.398-2.989-2.174c-1.682,3.369-3.517,8.664-7.337,10.055c-1.667,0.607-6.614,0.496-9.044,0.846  c-4.011,0.577-7.959,0.974-12.018,0.921c-6.987-0.09-9.627,0.333-10.939-6.184c-0.303-1.504-2.713-8.865-4.483-4.145  c-0.958,2.554-0.68,6.652-4.146,6.998c-5.484,0.548-9.429-8.022-12.229-11.481c-1.327-1.64-5.26-6.729-7.202-3.329  c-1.603,2.806,4.553,6.649,4.349,9.987c-8.262-3.956-16.177-10.374-19.568-19.159c22.276,7.753,48.504,7.622,72.018,6.386  c16.821-0.885,33.812-4.856,49.735-10.326c7.612-2.615,15.039-6.069,21.876-10.327c4.015-2.5,11.194-7.918,12.23-12.909  C183.754,83.302,180.072,89.572,177.415,96.205" id="path61" style="fill:#BFBFBF;"></path>

<path d="M44.93,80.851c0.278,3.821-6.278,2.995-7.201,0.544C35.422,75.272,43.604,80.318,44.93,80.851" id="path63"></path>

<path d="M167.225,87.102c-0.894,1.292-12.518-4.29-13.044-5.571C159.126,81.52,164.706,82.287,167.225,87.102" id="path65"></path>

<path d="M62.322,102.32c6.733-0.146,13.898,3.712,20.452,1.087c3.177-1.272,8.245-1.989,11.549-0.882  c5.446,1.823,9.089-0.477,14.54-0.477c3.093,0,5.203,1.063,8.289-0.34c2.853-1.295,5.434-3.129,8.356-4.28  c-1.109,2.601-3.33,2.127-5.163,3.669c-2.271,1.909-2.063,3.534-5.559,4.654c-7.276,2.33-14.901,1.546-22.433,1.256  c-7.95-0.305-15.774,1.197-23.78,0.477c-3.424-0.309-7.159-0.33-10.463-1.358c-3.574-1.112-3.761-1.795-5.232-5.231  c-0.874-2.04-1.589-9.603-5.163-4.824c-2.166,2.896-7.295,4.249-10.803,2.582c-2.259-1.073-2.504-2.994-3.941-4.755  c-1.53-1.875-5.24-5.275,0.408-3.398c6.333,2.104,11.203,4.555,16.577-0.408c1.145-1.057,2.21-2.122,3.125-3.397  C53.236,92.764,56.835,99.474,62.322,102.32" id="path67" style="fill:#FFFF80;"></path>

<path d="M153.636,89.684C151.144,91.466,150.952,86.922,153.636,89.684" id="path69"></path>

<path d="M107.164,91.314C103.502,91.621,107.178,87.575,107.164,91.314" id="path71"></path>

<path d="M89.499,92.537c0.045,0.453,0.091,0.906,0.137,1.359C85.929,94.093,87.881,89.704,89.499,92.537" id="path73"></path>

<path d="M46.968,100.69c0.504-0.587,1.414-0.906,1.903-1.63c0.677,1.755,1.469,3.405,1.631,5.298  c-3.122-0.801-6.327-0.028-9.241-0.95c-2.492-0.788-19.333-5.062-15.49-9.241C31.986,99.175,38.68,104.445,46.968,100.69" id="path75" style="fill:#FFC458;"></path>

<path d="M182.988,111.832c-3.785,3.535-4.943,8.023-6.863,12.638c-1.901,4.568-2.651,3.975-6.726,2.989  c-3.753-0.908-8.158-2.549-9.648-6.795c-2.611-7.439,2.612-8.3,7.746-11.413c2.969-1.801,5.392-4.938,8.968-3.601  C179.375,106.74,181.874,108.887,182.988,111.832" id="path77" style="fill:#808080;"></path>

<path d="M208.941,125.149c0.555,2.541,2.826,4.462,3.193,6.998c0.39,2.695-1.21,6.012-2.38,8.357  c-3.829,7.678-6.776,9.104-15.354,9.104c3.034-5.588,0.099-14.671-4.076-19.024c-1.701-1.774-4.236-3.018-6.522-3.872  c-2.95-1.104-4.312,1.528-4.621-2.787c-0.405-5.65,9.539-17.379,14.968-14.664C200.771,112.572,206.348,118.5,208.941,125.149" id="path79" style="fill:#BFBFBF;"></path>

<path d="M157.17,114.821c-0.426,3.122,0.466,6.504,1.63,9.377c-1.695-2.716-5.936,0.318-7.271-2.786  c-0.238-0.555-5.543-0.254-6.726-0.476C148.567,118.475,152.491,115.145,157.17,114.821" id="path81" style="fill:#808080;"></path>

<path d="M55.121,125.149c4.838,4.129,9.755,7.287,14.675,1.087c1.697,7.456,1.104,14.871,5.572,21.469  c-8.512-1.467-16.902-6.679-21.062-14.402c-2.398-4.453-1.113-9.207-3.125-13.317C52.906,121.362,53.804,123.397,55.121,125.149" id="path83" style="fill:#FF0000;"></path>

<path d="M151.598,123.518c0.497,2.622,1.526,1.14,2.718,1.631c1.927,0.794,3.902,1.354,6.048,2.581  c2.731,1.564,7.403,0.591,9.852,3.397c-4.349,3.25-8.266-0.826-13.045-1.222c-6.01-0.498-12.845,0.946-17.802,3.939  c-2.843,1.717-4.34,3.706-5.503,6.795c-1.267,3.365-0.795,6.255-4.416,4.619c-3.08-1.392-3.361-4.483-7.474-4.483  c-3.005,0-6.017,0.797-8.833,1.766c-0.263-3.729,1.331-7.205,1.699-10.87c0.331-3.301,10.014-4.128,13.384-5.3  c4.473-1.555,9.536-4.093,13.587-3.669C144.86,123.021,148.462,123.064,151.598,123.518" id="path85" style="fill:#221D1B;"></path>

<path d="M33.787,130.449c2.393,1.499,4.757,0.866,6.795,2.648c1.967,1.721,7.1,8.58,3.668,10.804  c-1.85,1.198-4.499-1.225-6.387-1.359c-2.224-0.158-4.327,0.744-6.25,1.902c-3.74-8.382-10.89-11.686-19.567-11.686  c3.319-4.165,9.1-10.916,15.355-8.833C29.765,124.712,33.282,128.382,33.787,130.449" id="path87" style="fill:#BFBFBF;"></path>

<path d="M48.734,125.149c1.143,3.158,1.413,5.571-1.495,7.609c-3.167,2.22-2.546,0.991-4.688-1.155  c-1.507-1.51-2.826-1.378-4.417-2.242c-1.62-0.88-4.801-1.936-2.173-3.94c2.051-1.564,2.588,0.49,3.94,0.409  c1.562-0.094,3.04-1.427,4.348-1.496C46.235,124.228,47.656,125.178,48.734,125.149" id="path89" style="fill:#808080;"></path>

<path d="M110.153,142.542c-1.327,1.771-3.445,2.465-5.435,3.261c-1.917-3.4-4.113-3.711-2.038-8.561  c2.029-4.741,5.47-8.52,9.512-11.685C111.8,131.333,111.158,136.841,110.153,142.542" id="path91" style="fill:#FF0000;"></path>

<path d="M187.88,131.4c4.909,7.353,7.561,16.614-0.137,23.031c-1.652,1.378-5.47,2.647-7.61,3.33  c-3.491,1.113-4.229,0.517-3.669-3.397c0.566-3.958,1.083-5.423-0.746-9.443c-1.506-3.312-7.521-8.513-5.028-11.008  C175.605,128.989,181.751,127.419,187.88,131.4" id="path93" style="fill:#BFBFBF;"></path>

<path d="M102,132.351c-1.824,2.957-4.957,12.32-0.272,13.996c-4.665,0.534-6.2,5.641-8.22,9.104  c-3.053,5.23-7.737,0.674-13.249,1.358c-4.061,0.505-9.494,1.11-12.501,3.669c-2.013,1.712-3.531,4.838-4.891,7.066  c0.918-4.246,0.325-9.038-1.495-12.977c-2.808-6.075-6.121-6.195-12.093-7.473c-5.986-1.281-2.349-11.309,1.224-14.337  c3.003,5.173,6.914,9.377,12.103,12.386c4.127,2.393,9.703,3.295,13.375,6.23c2.597,2.075,4.994,3.215,4.28-0.68  c-1.147-6.258-6.36-10.659-6.522-17.665C83.261,134.464,92.648,131.216,102,132.351" id="path95" style="fill:#221D1B;"></path>

<path d="M162.062,133.709c4.095,3.068,8.197,6.49,10.666,11.075c2.372,4.405,1.86,7.04,0.884,11.753  c-1.406,6.785-2.709,9.649-9.92,10.056c0.06-8.126-3.224-13.446-10.327-16.85c-4.521-2.166-11.105-0.134-15.49,2.583  c-0.409-2.147-3.463-2.56-3.601-3.942c-0.284-2.845,1.547-6.15,2.921-8.56C141.782,131.785,153.788,132.296,162.062,133.709" id="path97" style="fill:#808080;"></path>

<path d="M28.488,144.444c-0.651,1.932-5.111,2.749-6.591,5.708c-2.419,4.838-3.572,10.013-4.959,15.218  c-1.718-1.573-3.416-3.382-5.572-4.348c-2.108-0.944-4.561-0.506-6.25-2.174c-3.899-3.849-3.112-9.812-1.358-14.2  C8.957,131.637,23.985,132.738,28.488,144.444" id="path99" style="fill:#BFBFBF;"></path>

<path d="M134.885,151.917c1.53,6.694,2.488,15.103,0.814,21.605c-1.438,5.585-8.441,7.242-13.737,8.935  c-6.935,2.218-28.213,8.041-27.842-4.723c0.061-2.079,1.556-3.974,1.631-6.114c0.085-2.449-1.22-4.534-1.903-6.794  c-1.736-5.747,1.58-11.931,6.727-15.355c2.498-1.662,5.7-1.195,8.492-2.31c2.453-0.978,4.902-2.087,7.406-2.922  C125.888,141.099,127.37,150.485,134.885,151.917" id="path101" style="fill:#BFBFBF;"></path>

<path d="M48.463,149.609c14.389-0.759,14.194,19.375,8.289,27.855c-2.87,4.121-6.077,6.964-11.346,5.91  c-0.596-0.118-1.276-0.831-1.699-0.883c-1.039-0.126-2.516,0.156-3.941,0.136c-3.802-0.056-7.619-0.477-11.142-2.038  c-4.296-1.904-7.053-5.445-9.987-8.969c-2.382-2.859,2.979-14.914,4.279-18.072C27.039,143.534,40.783,144.985,48.463,149.609" id="path103" style="fill:#BFBFBF;"></path>

<path d="M160.022,160.478c1.506,2.421,1.231,5.599,0.68,8.29c-0.997,4.866-3.61,5.545-8.696,5.91  c-3.606,0.26-10.493,1.986-12.772-1.29c-2.152-3.095,0.579-7.75-0.679-11.212C133.067,147.085,161.776,150.303,160.022,160.478" id="path105" style="fill:#BFBFBF;"></path>

<path d="M91.537,164.011c3.651,9.768-1.416,21.191-11.957,21.469c-2.999,0.079-6.168,1.402-8.833-0.271  c-1.905-1.196-4.474-5.718-5.571-7.475C56.769,164.259,84.49,151.79,91.537,164.011" id="path107" style="fill:#808080;"></path>


  
</svg>
