<?xml version="1.0" encoding="UTF-8" standalone="no"?>
<!DOCTYPE svg PUBLIC "-//W3C//DTD SVG 1.0//EN"
"http://www.w3.org/TR/2001/REC-SVG-20010904/DTD/svg10.dtd">
<!-- Created with Inkscape (http://www.inkscape.org/) --><svg height="180.89000pt" id="svg1" inkscape:version="0.39cvs" sodipodi:docbase="/home/aki/Myndvinnsla" sodipodi:docname="steak.svg" sodipodi:version="0.32" width="163.28000pt" xmlns="http://www.w3.org/2000/svg" xmlns:inkscape="http://www.inkscape.org/namespaces/inkscape" xmlns:sodipodi="http://sodipodi.sourceforge.net/DTD/sodipodi-0.dtd" xmlns:xlink="http://www.w3.org/1999/xlink">
  <metadata>
    <rdf:RDF xmlns:cc="http://web.resource.org/cc/" xmlns:dc="http://purl.org/dc/elements/1.1/" xmlns:rdf="http://www.w3.org/1999/02/22-rdf-syntax-ns#">
      <cc:Work rdf:about="">
        <dc:title></dc:title>
        <dc:description></dc:description>
        <dc:subject>
          <rdf:Bag>
            <rdf:li>protein</rdf:li>
            <rdf:li>hash</rdf:li>
            <rdf:li></rdf:li>
            <rdf:li>food</rdf:li>
          </rdf:Bag>
        </dc:subject>
        <dc:publisher>
          <cc:Agent rdf:about="http://www.openclipart.org">
            <dc:title></dc:title>
          </cc:Agent>
        </dc:publisher>
        <dc:creator>
          <cc:Agent>
            <dc:title></dc:title>
          </cc:Agent>
        </dc:creator>
        <dc:rights>
          <cc:Agent>
            <dc:title></dc:title>
          </cc:Agent>
        </dc:rights>
        <dc:date></dc:date>
        <dc:format>image/svg+xml</dc:format>
        <dc:type rdf:resource="http://purl.org/dc/dcmitype/StillImage"/>
        <cc:license rdf:resource=""/>
        <dc:language>en</dc:language>
      </cc:Work>
    </rdf:RDF>
  </metadata>
  <defs id="defs3">
    <linearGradient id="linearGradient1512">
      <stop id="stop1513" offset="0.0000000" style="stop-color:#b50000;stop-opacity:1.0000000;"/>
      <stop id="stop1514" offset="1.0000000" style="stop-color:#ff0000;stop-opacity:0.45614034;"/>
    </linearGradient>
    <linearGradient id="linearGradient1508">
      <stop id="stop1509" offset="0" style="stop-color:#000;stop-opacity:1;"/>
      <stop id="stop1510" offset="1" style="stop-color:#fff;stop-opacity:1;"/>
    </linearGradient>
    <linearGradient id="linearGradient1511" x1="-4.1069578e-16" x2="1.0000000" xlink:href="#linearGradient1512" y1="0.50000000" y2="0.50000000"/>
    <linearGradient id="linearGradient1516" x1="0.81960785" x2="0.37647060" xlink:href="#linearGradient1512" y1="0.56164384" y2="0.36643836"/>
  </defs>
  <sodipodi:namedview bordercolor="#666666" borderopacity="1.0" id="base" inkscape:cx="297.63779" inkscape:cy="420.94487" inkscape:pageopacity="0.0" inkscape:pageshadow="2" inkscape:window-height="493" inkscape:window-width="640" inkscape:window-x="444" inkscape:window-y="137" inkscape:zoom="0.42998504" pagecolor="#ffffff" showguides="true" snaptoguides="true"/>
  <g id="g2122" transform="translate(-17.44246,-165.7034)">
    <path d="M 171.62041,178.57707 C 95.025403,196.24272 36.442491,273.52011 37.568888,296.70629 C 38.695285,319.89248 75.867269,358.54067 76.993670,364.06120 C 78.115881,369.56120 118.35908,370.67529 117.54453,365.22433 C 120.30536,365.35157 123.92351,364.91078 128.05457,364.08494 C 137.57382,363.56839 150.56871,360.26517 154.88667,356.07357 C 159.55795,354.36012 164.27816,352.49331 168.93236,350.55461 C 168.95214,350.60516 168.94396,350.65898 168.96868,350.70891 C 176.69136,350.28556 188.16379,346.85008 186.13832,343.10106 C 186.10500,343.03938 186.03447,343.00273 185.99302,342.94677 C 200.35439,336.02996 211.03308,329.44897 211.03308,326.52048 C 211.03308,326.19283 210.94730,325.84343 210.81513,325.48790 L 213.85433,321.00153 C 185.69440,304.99203 173.86238,293.95127 167.10400,257.51583 C 160.34562,221.08040 178.37399,202.31635 188.51156,195.69173 L 186.57422,192.36850 C 186.84991,192.18794 187.10381,192.00067 187.38548,191.82254 L 181.75510,185.19980 C 180.62871,179.67928 180.63159,184.09759 171.62041,178.57707 z M 176.35477,200.91397 C 171.41119,206.82935 167.59974,213.99294 165.06979,221.80289 C 167.05130,214.34094 170.54431,207.21004 176.35477,200.91397 z " id="path2114" style="fill:#8d8f8f;fill-rule:evenodd;stroke:#646566;stroke-width:2.0619235;"/>
    <path d="M 184.21712,191.58026 L 186.41442,195.37919 C 176.52657,201.89163 158.94817,220.34354 165.54007,256.16196 C 172.13197,291.98038 183.66779,302.83445 211.13404,318.57285 L 207.83809,323.45718 C 197.40092,317.48744 161.69480,299.03553 161.14547,255.61926 C 156.75087,230.65490 166.08940,204.06244 184.21712,191.58026 z " id="path1506" sodipodi:nodetypes="ccccccc" style="fill:#c28c6f;fill-rule:evenodd;stroke:#6e3d00;stroke-width:2.0190530;"/>
    <path d="M 179.82252,185.06782 L 185.31577,191.58026 C 151.25762,213.28840 162.24412,253.44845 166.63872,277.32739 C 171.03332,301.20634 208.38742,316.40204 208.38742,323.99988 C 208.38742,331.59773 135.87652,364.15993 116.10083,361.98912 C 96.325131,359.81831 47.984536,307.71878 52.379135,294.69390 C 56.773734,281.66902 78.746731,238.25275 91.930528,227.39869 C 105.11433,216.54462 155.65222,183.98242 179.82252,185.06782 z " id="path903" sodipodi:nodetypes="cccccccc" style="fill:url(#linearGradient1516);fill-opacity:1;fill-rule:evenodd;stroke-width:1.0000000pt;"/>
    <path d="M 169.93467,178.55538 C 178.72387,183.98242 178.72387,179.64079 179.82252,185.06782 C 154.55357,190.49486 108.41028,214.37380 107.31163,223.05706 C 106.21298,231.74031 116.10083,233.91113 117.19948,241.50897 C 110.60758,240.42356 101.81838,233.91112 90.831881,236.08194 C 79.845382,238.25275 50.181835,286.01065 65.562931,308.80419 C 80.944029,331.59773 116.10082,356.56209 117.19947,361.98912 C 118.29813,367.41615 78.746731,366.33075 77.648081,360.90371 C 76.549430,355.47668 40.293987,317.48744 39.195337,294.69390 C 38.096687,271.90036 95.226476,195.92189 169.93467,178.55538 z " id="path902" sodipodi:nodetypes="cccccccccc" style="fill:#f7f3e9;fill-rule:evenodd;stroke-width:1.0000000pt;"/>
    <path d="M 127.44976,360.92445 C 139.70537,360.25417 157.90311,354.82809 154.68877,348.89241 C 151.47442,342.95673 123.97929,353.93327 127.44976,360.92445 z " id="path1502" style="fill:#fef7f5;fill-rule:evenodd;stroke-width:1.2530968pt;"/>
    <path d="M 167.35508,347.77287 C 174.88752,347.35669 186.07207,343.98757 184.09650,340.30204 C 182.12092,336.61651 165.22209,343.43197 167.35508,347.77287 z " id="path1503" style="fill:#fef7f5;fill-rule:evenodd;stroke-width:0.77410488pt;"/>
    <path d="M 165.45996,282.28388 C 153.88087,275.61971 116.38194,300.31398 143.82568,323.72062 C 171.26942,347.12725 184.65858,337.01466 183.61380,328.71507 C 182.56902,320.41548 170.59069,287.57223 165.45996,282.28388 z " id="path1515" style="fill:#fdede7;fill-rule:evenodd;stroke-width:1.0000000pt;"/>
    <path d="M 158.83807,284.11207 C 145.90081,283.11895 124.04625,322.50688 158.00579,331.86849 C 191.96532,341.23010 199.20753,325.97387 194.70598,318.79684 C 190.20442,311.61980 165.58212,286.70225 158.83807,284.11207 z " id="path1507" style="fill:url(#linearGradient1511);fill-opacity:1;fill-rule:evenodd;stroke-width:1.0000000pt;"/>
  </g>
</svg>
