<?xml version="1.0" encoding="UTF-8" standalone="no"?>
<!-- Creator: CorelDRAW --><svg height="297mm" id="svg2" inkscape:version="0.42+devel" sodipodi:docbase="C:\Documents and Settings\Lumen 2\Desktop" sodipodi:docname="plane_in_clouds.svg" sodipodi:version="0.32" space="preserve" style="shape-rendering:geometricPrecision; text-rendering:geometricPrecision; image-rendering:optimizeQuality; fill-rule:evenodd; clip-rule:evenodd" viewBox="0 0 210 297" width="210mm" xmlns="http://www.w3.org/2000/svg" xmlns:cc="http://web.resource.org/cc/" xmlns:dc="http://purl.org/dc/elements/1.1/" xmlns:inkscape="http://www.inkscape.org/namespaces/inkscape" xmlns:rdf="http://www.w3.org/1999/02/22-rdf-syntax-ns#" xmlns:sodipodi="http://inkscape.sourceforge.net/DTD/sodipodi-0.dtd" xmlns:svg="http://www.w3.org/2000/svg" xmlns:xlink="http://www.w3.org/1999/xlink">
  <metadata>
    <rdf:RDF xmlns:cc="http://web.resource.org/cc/" xmlns:dc="http://purl.org/dc/elements/1.1/" xmlns:rdf="http://www.w3.org/1999/02/22-rdf-syntax-ns#">
      <cc:Work rdf:about="">
        <dc:title>plane in the sky</dc:title>
        <dc:description></dc:description>
        <dc:subject>
          <rdf:Bag>
            <rdf:li>747</rdf:li>
            <rdf:li>plane</rdf:li>
            <rdf:li>cloud</rdf:li>
            <rdf:li>737</rdf:li>
            <rdf:li>airlines</rdf:li>
            <rdf:li>airbus</rdf:li>
            <rdf:li>transportation</rdf:li>
          </rdf:Bag>
        </dc:subject>
        <dc:publisher>
          <cc:Agent rdf:about="http://www.openclipart.org/">
            <dc:title>Open Clip Art Library</dc:title>
          </cc:Agent>
        </dc:publisher>
        <dc:creator>
          <cc:Agent>
            <dc:title>mo</dc:title>
          </cc:Agent>
        </dc:creator>
        <dc:rights>
          <cc:Agent>
            <dc:title>mo</dc:title>
          </cc:Agent>
        </dc:rights>
        <dc:date>14 09 2005</dc:date>
        <dc:format>image/svg+xml</dc:format>
        <dc:type rdf:resource="http://purl.org/dc/dcmitype/StillImage"/>
        <cc:license rdf:resource="http://web.resource.org/cc/PublicDomain"/>
        <dc:language>en</dc:language>
      </cc:Work>
      <cc:License rdf:about="http://web.resource.org/cc/PublicDomain">
        <cc:permits rdf:resource="http://web.resource.org/cc/Reproduction"/>
        <cc:permits rdf:resource="http://web.resource.org/cc/Distribution"/>
        <cc:permits rdf:resource="http://web.resource.org/cc/DerivativeWorks"/>
      </cc:License>
    </rdf:RDF>
  </metadata>
  <sodipodi:namedview bordercolor="#666666" borderopacity="1.0" id="namedview15" inkscape:current-layer="svg2" inkscape:cx="362.20281" inkscape:cy="599.46737" inkscape:pageopacity="0.0" inkscape:pageshadow="2" inkscape:window-height="915" inkscape:window-width="1267" inkscape:window-x="110" inkscape:window-y="145" inkscape:zoom="0.91422301" pagecolor="#ffffff"/>
  <defs id="defs4">
    <linearGradient id="linearGradient2245">
      <stop id="stop2247" offset="0" style="stop-color:#0dadff;stop-opacity:1;"/>
      <stop id="stop2249" offset="1" style="stop-color:#006ba3;stop-opacity:1;"/>
    </linearGradient>
    <style id="style6" type="text/css">
   
    .fil0 {fill:#EF7900}
    .fil1 {fill:white}
   
  </style>
    <sodipodi:namedview bordercolor="#666666" borderopacity="1.0" id="base" inkscape:current-layer="layer1" inkscape:cx="453.20171" inkscape:cy="610.9946" inkscape:document-units="px" inkscape:pageopacity="0.0" inkscape:pageshadow="2" inkscape:zoom="1.2732944" pagecolor="#ffffff"/>
    <linearGradient gradientUnits="userSpaceOnUse" id="linearGradient2251" inkscape:collect="always" x1="162.99451" x2="1.8522106" xlink:href="#linearGradient2245" y1="139.56212" y2="111.16156"/>
  </defs>
  <path class="fil0" d="M 57.1067,83.3441 C 58.0994,83.7928 59.032,84.3175 59.9006,84.9073 C 60.9697,79.2255 64.5223,74.6698 69.1291,72.2901 C 69.1384,71.2421 69.2362,70.1796 69.4297,69.1111 C 71.16,59.5881 79.8538,53.1889 88.8423,54.8229 C 97.8323,56.4556 103.7195,65.5028 101.9891,75.0263 C 101.8367,75.8593 101.6328,76.6674 101.3791,77.4495 C 103.6542,80.2862 105.04,83.8937 105.2058,87.7621 C 105.6312,87.9183 106.0547,88.091 106.4747,88.2809 C 111.4107,90.5121 114.8669,94.6226 116.2948,99.2692 C 116.9439,99.2816 117.5968,99.3288 118.2504,99.4128 C 122.0194,91.098 132.2174,87.5868 141.0323,91.5721 C 146.3454,93.9737 149.9445,98.5529 151.1444,103.6342 C 152.1589,103.8969 153.1661,104.2495 154.1559,104.6967 C 158.6644,106.7351 161.9385,110.3412 163.5603,114.4914 C 168.671,116.9356 172.132,121.4191 173.3042,126.3818 C 174.318,126.644 175.3256,126.9965 176.315,127.444 C 185.1349,131.432 189.2353,141.4172 185.4711,149.7422 C 181.7075,158.0673 171.5023,161.5853 162.6824,157.5975 C 161.9112,157.2489 161.1763,156.8536 160.4789,156.4189 C 156.0253,158.4668 150.6036,158.609 145.6237,156.3575 C 144.7893,155.98 143.9973,155.5484 143.2497,155.0702 C 142.7291,155.1802 142.2011,155.2664 141.6684,155.3291 C 141.6888,157.5635 141.2426,159.8187 140.2728,161.9635 C 136.5093,170.2892 126.3044,173.8069 117.4847,169.8193 C 116.7137,169.47 115.9786,169.0755 115.2815,168.6403 C 112.7428,169.8078 109.8895,170.3552 106.9833,170.1939 C 103.8325,174.592 98.5002,177.4839 92.4533,177.4839 C 90.8097,177.4839 89.2194,177.2696 87.7104,176.8704 C 86.1498,184.4983 79.0377,190.2618 70.5016,190.2618 C 60.8221,190.2618 52.9724,182.8524 52.9724,173.7161 C 52.9724,166.3448 58.0825,160.0986 65.1403,157.9597 C 62.5115,156.1609 60.432,153.6896 59.1854,150.8142 C 57.2138,150.6299 55.2274,150.1179 53.3063,149.2493 C 52.5353,148.9 51.8002,148.5055 51.1031,148.0703 C 46.6488,150.1187 41.2276,150.2604 36.2477,148.009 C 35.4131,147.6316 34.6209,147.2002 33.8735,146.7222 C 30.2742,147.4816 26.3448,147.1272 22.6574,145.4604 C 13.8376,141.4729 9.7377,131.4875 13.5017,123.1617 C 14.6702,120.5775 16.4602,118.4569 18.6361,116.88 C 15.2366,112.1543 14.3273,105.9886 16.7929,100.5347 C 19.8233,93.8331 27.0285,90.2472 34.3248,91.1848 C 38.0938,82.87 48.2918,79.3588 57.1067,83.3441 L 57.1067,83.3441 z " id="path10" style="fill:url(#linearGradient2251);fill-opacity:1.0"/>
  <path class="fil1" d="M 72.8279,178.33 C 72.729,178.0722 72.2205,178.0118 70.1445,178.0118 C 68.7357,178.0118 67.5831,177.9626 67.5831,177.9024 C 67.5831,177.8421 68.2736,176.908 69.1174,175.8267 C 71.8814,172.2843 74.8214,168.1482 74.8214,167.8017 C 74.8214,167.6149 75.3004,166.7967 75.8859,165.9836 C 77.033,164.3902 77.122,164.174 76.631,164.174 C 76.0874,164.174 76.2777,163.8433 77.027,163.4859 C 77.5863,163.2192 78.213,162.4001 79.901,159.7297 C 81.0883,157.8513 82.0597,156.2626 82.0597,156.1993 C 82.0597,156.136 81.8624,156.0842 81.6213,156.0842 C 81.018,156.0842 81.2809,155.7413 82.002,155.5876 C 82.4639,155.4892 82.9132,154.9703 84.072,153.1964 C 85.519,150.9813 86.4337,150.0296 87.2604,149.8787 C 87.925,149.7575 87.7597,149.3837 87.0093,149.3114 C 86.2664,149.2397 86.1637,149.0848 86.5819,148.6667 C 86.7923,148.4562 86.7817,148.3625 86.5296,148.2067 C 86.2596,148.0399 86.2755,147.964 86.6379,147.6902 C 86.9374,147.4638 86.9725,147.3672 86.757,147.3624 C 86.5889,147.3587 86.2413,147.553 85.9846,147.7941 L 85.5178,148.2327 L 86.0079,145.5056 C 87.0618,139.6412 87.1736,139.2514 88.0851,138.2624 C 88.6602,137.6386 88.8305,137.3271 88.6307,137.265 C 88.4708,137.2154 87.382,136.9627 86.2111,136.7035 C 85.0402,136.4442 83.22,135.9228 82.1661,135.5446 C 81.1123,135.1664 79.819,134.7033 79.2921,134.5156 C 78.744,134.3203 75.6471,133.9011 72.0539,133.5357 C 64.5848,132.7763 62.1128,132.2624 51.9566,129.3577 L 44.9522,127.3545 L 37.2396,133.523 C 28.5362,140.4841 29.4624,140.0015 26.135,139.3093 L 24.391,138.9465 L 28.7417,131.1854 C 31.1347,126.9168 33.0212,123.3581 32.934,123.2771 C 32.8469,123.1961 31.5736,122.6385 30.1045,122.0381 L 27.4336,120.9465 L 27.517,120.2313 L 27.6005,119.5161 L 30.4551,119.3632 C 32.0251,119.2792 33.3607,119.1278 33.4231,119.0268 C 33.4855,118.9258 32.0879,114.2815 30.3174,108.7058 C 28.5469,103.1302 27.139,98.5276 27.1888,98.4778 C 27.2386,98.4281 28.1807,98.4822 29.2823,98.5983 C 30.384,98.7143 31.4849,98.8108 31.7288,98.8129 C 32.0686,98.8158 33.2328,100.3463 36.7108,105.363 C 39.2069,108.9634 41.4756,112.216 41.7521,112.5908 C 42.0286,112.9656 43.8907,114.4355 45.89,115.8571 L 49.5251,118.4419 L 54.9882,118.6382 C 61.0797,118.8571 64.4332,119.1358 74.0809,120.2251 C 80.354,120.9333 88.9228,121.7851 89.0271,121.7108 C 89.0538,121.6917 89.1665,120.0718 89.2777,118.1108 C 89.3955,116.0299 89.5819,114.4221 89.7252,114.2494 C 89.963,113.9629 90.6947,113.6828 91.9059,113.4146 C 92.6373,113.2527 92.6748,112.8673 91.9591,112.8673 C 91.4284,112.8673 91.4269,112.8616 91.4269,110.825 C 91.4269,108.9977 91.3843,108.7715 91.0226,108.6768 C 90.7071,108.5944 90.4942,108.0722 90.054,106.3017 C 89.0314,102.1889 89.1659,102.4983 88.3322,102.3419 C 87.4982,102.1854 87.5292,101.7971 88.3756,101.7971 C 88.8298,101.7971 88.9,101.7189 88.806,101.3181 C 88.7442,101.0546 88.1361,98.4031 87.4545,95.4259 L 86.2155,90.0129 L 85.4171,89.6779 C 84.4526,89.2733 84.39,89.0236 85.253,89.0236 C 85.6043,89.0236 85.8917,88.9637 85.8917,88.8905 C 85.8917,88.8172 85.4941,87.0781 85.0082,85.0258 C 84.1986,81.607 84.1541,81.2727 84.4759,81.0373 C 84.8688,80.7501 84.9414,80.1779 84.6109,79.9736 C 84.4919,79.9001 84.4442,79.7596 84.5048,79.6615 C 84.6113,79.4891 83.089,74.3707 80.6505,66.7023 C 80.0044,64.6711 79.5065,62.9819 79.5437,62.9488 C 79.6873,62.8211 84.7191,64.7489 84.7889,64.9584 C 84.8295,65.0802 84.9794,65.1799 85.1219,65.1799 C 85.2644,65.1799 85.5852,65.6 85.8347,66.1134 C 86.3949,67.2665 94.3967,81.9555 103.7077,98.923 C 107.5629,105.9484 110.7807,111.8641 110.8583,112.069 C 111.0434,112.5578 112.3412,112.5737 112.741,112.0921 C 112.9934,111.7879 113.3782,111.7601 115.7033,111.8777 C 119.5923,112.0746 121.7877,112.401 123.4169,113.0246 C 124.4971,113.4381 124.8319,113.6603 124.756,113.9135 C 124.7003,114.0992 124.4556,115.4487 124.212,116.9123 C 123.9685,118.3759 123.7186,119.7411 123.6569,119.9459 C 123.4644,120.5851 120.503,120.4278 116.1419,119.5469 C 115.4656,119.4102 115.4249,119.4329 115.5422,119.8813 C 115.7844,120.8075 118.3605,125.0609 118.7827,125.2319 C 119.0172,125.3268 123.6638,125.8933 129.1085,126.4906 C 145.938,128.3371 148.9621,128.8284 154.6587,130.6422 C 159.5552,132.2013 165.1425,135.2428 166.9159,137.3147 C 167.5323,138.0348 167.5829,138.1859 167.3605,138.6433 C 166.8199,139.7545 163.0832,141.1375 158.7003,141.8484 C 156.6151,142.1866 145.9104,142.1838 142.9464,141.8443 C 141.717,141.7035 136.7353,141.1045 131.8761,140.5132 C 122.5441,139.3777 119.8333,139.2702 117.6797,139.9499 C 116.5426,140.3088 116.4583,140.4049 116.7993,140.9534 C 117.0521,141.36 117.0163,141.4554 116.4415,141.907 C 114.6799,143.2911 108.3297,148.7306 108.1814,148.9825 C 108.0419,149.2194 108.4769,149.4426 110.5537,149.2717 C 112.6755,149.097 116.9108,149.73 117.5661,149.9182 C 119.3696,150.4362 119.5246,150.3054 119.1975,152.7891 C 119.0437,153.9574 118.8106,155.403 118.6795,156.0016 C 118.4655,156.9524 117.7073,157.1336 116.6025,157.2047 C 114.8022,157.317 111.3765,156.9664 110.0548,156.5345 C 109.7035,156.4198 108.8615,156.1719 108.1836,155.9837 C 107.2495,155.7244 106.904,155.5181 106.7572,155.132 C 106.616,154.7606 106.243,154.5214 105.3818,154.25 C 104.732,154.0451 104.2003,153.763 104.2003,153.6231 C 104.2003,153.4831 104.0631,153.2548 103.8953,153.1156 C 103.6462,152.9088 103.0716,153.3253 100.7552,155.3913 C 96.8893,158.8394 74.0867,177.9582 73.1938,178.5002 C 73.0597,178.5815 72.8951,178.5049 72.8279,178.33 L 72.8279,178.33 z " id="path1368" sodipodi:nodetypes="csssssssssssssssssscccssssssccccccscccccssssssscccsssssssssssscccssssssssssssssssssssssssssssssssssssccssssssssc" style="fill:#ffffff"/>
</svg>
