<?xml version="1.0" encoding="UTF-8" standalone="no"?>
<!DOCTYPE svg PUBLIC "-//W3C//DTD SVG 1.0//EN"
"http://www.w3.org/TR/2001/REC-SVG-20010904/DTD/svg10.dtd">
<!-- Created with Sodipodi ("http://www.sodipodi.com/") --><svg height="140mm" id="svg0" version="1.0" viewBox="0 0 480 320" width="210mm" x="0" xmlns="http://www.w3.org/2000/svg" xmlns:xlink="http://www.w3.org/1999/xlink" y="0">
  <metadata>
    <rdf:RDF xmlns:cc="http://web.resource.org/cc/" xmlns:dc="http://purl.org/dc/elements/1.1/" xmlns:rdf="http://www.w3.org/1999/02/22-rdf-syntax-ns#">
      <cc:Work rdf:about="">
        <dc:title>National flag of Republic of China (Taiwan) in SVG format</dc:title>
        <dc:description>Flag created following the precise description of the National Emblem and National Flag Law of the Republic of China</dc:description>
        <dc:subject>
          <rdf:Bag>
            <rdf:li>asia</rdf:li>
            <rdf:li>flag</rdf:li>
          </rdf:Bag>
        </dc:subject>
        <dc:publisher>
          <cc:Agent rdf:about="http://www.openclipart.org">
            <dc:title>Chun-Chung Chen</dc:title>
          </cc:Agent>
        </dc:publisher>
        <dc:creator>
          <cc:Agent>
            <dc:title>Chun-Chung Chen</dc:title>
          </cc:Agent>
        </dc:creator>
        <dc:rights>
          <cc:Agent>
            <dc:title>Chun-Chung Chen</dc:title>
          </cc:Agent>
        </dc:rights>
        <dc:date></dc:date>
        <dc:format>image/svg+xml</dc:format>
        <dc:type rdf:resource="http://purl.org/dc/dcmitype/StillImage"/>
        <cc:license rdf:resource="http://web.resource.org/cc/PublicDomain"/>
        <dc:language>en</dc:language>
      </cc:Work>
      <cc:License rdf:about="http://web.resource.org/cc/PublicDomain">
        <cc:permits rdf:resource="http://web.resource.org/cc/Reproduction"/>
        <cc:permits rdf:resource="http://web.resource.org/cc/Distribution"/>
        <cc:permits rdf:resource="http://web.resource.org/cc/DerivativeWorks"/>
      </cc:License>
    </rdf:RDF>
  </metadata>
  <rect height="320" id="rect1" style="fill:red;" width="480" x="0" y="0"/>
  <rect height="160" id="rect2" style="fill:#0000aa;" width="240" x="0" y="0"/>
  <polygon id="polygon1" points="180,80 149.0674,87.42212 171.9615,110 141.4620,100.9614 150,131.9615 128.1059,108.8841 120,140 112.5779,109.0674 90,131.9615 99.03857,101.4620 68.03848,110 91.11586,88.10594 60,80 90.93262,72.57788 68.03848,50 98.53798,59.03857 90,28.03848 111.8941,51.11586 120,20 127.4221,50.93263 150,28.03848 140.9614,58.53798 171.9615,50 148.8841,71.89406 180,80 " style="fill:white;"/>
  <ellipse cx="120" cy="80" id="path1" rx="34" ry="34" style="fill:#0000aa;"/>
  <ellipse cx="120" cy="80" id="path2" rx="30" ry="30" style="fill:white;"/>
</svg>
