<?xml version="1.0" encoding="UTF-8" standalone="no"?>
<!-- Created with Sodipodi ("http://www.sodipodi.com/") --><svg height="128.00000px" id="svg1777" inkscape:version="0.42" sodipodi:docbase="/home/nicu/Desktop/bryce_map_symbols" sodipodi:docname="azalea_0_symbol_1m_bwh.svg" sodipodi:version="0.32" width="128.00000px" xmlns="http://www.w3.org/2000/svg" xmlns:cc="http://web.resource.org/cc/" xmlns:dc="http://purl.org/dc/elements/1.1/" xmlns:inkscape="http://www.inkscape.org/namespaces/inkscape" xmlns:rdf="http://www.w3.org/1999/02/22-rdf-syntax-ns#" xmlns:sodipodi="http://inkscape.sourceforge.net/DTD/sodipodi-0.dtd" xmlns:svg="http://www.w3.org/2000/svg">
  <metadata>
    <rdf:RDF xmlns:cc="http://web.resource.org/cc/" xmlns:dc="http://purl.org/dc/elements/1.1/" xmlns:rdf="http://www.w3.org/1999/02/22-rdf-syntax-ns#">
      <cc:Work rdf:about="">
        <dc:title>Map Symbols</dc:title>
        <dc:description></dc:description>
        <dc:subject>
          <rdf:Bag>
            <rdf:li></rdf:li>
            <rdf:li>map_symbol</rdf:li>
            <rdf:li>signs_and_symbols</rdf:li>
            <rdf:li>sign</rdf:li>
          </rdf:Bag>
        </dc:subject>
        <dc:publisher>
          <cc:Agent rdf:about="http://www.openclipart.org">
            <dc:title>Bryce W. Harrington</dc:title>
          </cc:Agent>
        </dc:publisher>
        <dc:creator>
          <cc:Agent>
            <dc:title>Bryce W. Harrington</dc:title>
          </cc:Agent>
        </dc:creator>
        <dc:rights>
          <cc:Agent>
            <dc:title>Bryce W. Harrington</dc:title>
          </cc:Agent>
        </dc:rights>
        <dc:date></dc:date>
        <dc:format>image/svg+xml</dc:format>
        <dc:type rdf:resource="http://purl.org/dc/dcmitype/StillImage"/>
        <cc:license rdf:resource="http://web.resource.org/cc/PublicDomain"/>
        <dc:language>en</dc:language>
      </cc:Work>
      <cc:License rdf:about="http://web.resource.org/cc/PublicDomain">
        <cc:permits rdf:resource="http://web.resource.org/cc/Reproduction"/>
        <cc:permits rdf:resource="http://web.resource.org/cc/Distribution"/>
        <cc:permits rdf:resource="http://web.resource.org/cc/DerivativeWorks"/>
      </cc:License>
    </rdf:RDF>
  </metadata>
  <defs id="defs1779"/>
  <sodipodi:namedview id="base" inkscape:current-layer="svg1777" inkscape:cx="208.37177" inkscape:cy="38.755989" inkscape:window-height="512" inkscape:window-width="712" inkscape:window-x="0" inkscape:window-y="24" inkscape:zoom="1.0000000"/>
  <g id="g1308" style="fill:#000000;fill-opacity:0.49999997;stroke:none" transform="matrix(-0.610358,3.239280e-17,-3.239280e-17,-0.610358,495.9422,396.5260)">
    <path d="M 79.540700,796.53500 C 73.871400,802.20500 71.036800,802.20500 76.086100,814.18400 C 77.675800,817.95500 82.125600,828.88400 70.833900,826.93400 C 63.049800,825.59000 55.988500,821.22900 53.534000,831.65700 C 52.027600,838.05700 48.189000,836.72600 43.937000,831.05700 C 39.685000,825.38700 32.636700,828.17000 24.340000,830.82400 C 17.342500,832.81200 14.173200,836.22000 12.873500,828.60100 C 11.741700,821.96600 18.838500,812.71000 10.954500,813.35100 C 3.7926300,813.93300 -2.8346500,802.20500 0.0000000,796.53500 C 5.6692900,790.86600 10.941000,783.72000 7.6211900,778.88700 C 4.1666400,773.85800 10.669300,760.02000 17.873500,761.97000 C 24.872900,762.56800 26.016800,759.79400 26.840000,754.74700 C 28.346500,745.51200 39.685000,745.51200 43.937000,751.18100 C 51.023600,756.85000 47.207400,763.55300 57.700700,759.74700 C 67.532900,756.18100 76.220300,756.83700 75.000500,764.47000 C 73.700800,773.85800 70.367500,770.02600 81.086100,772.22000 C 86.832000,773.39600 85.210000,789.52600 79.540700,796.53500 z " id="path1309" sodipodi:nodetypes="ccccccccccccccccc" style="font-size:12.000000px;fill:#1c6a38;fill-opacity:0.50196099;fill-rule:evenodd" transform="matrix(0.623386,0.000000,0.000000,0.623386,681.5030,51.72250)"/>
    <ellipse cx="100.62994" cy="752.59839" id="ellipse1310" rx="4.2519689" ry="4.2519689" sodipodi:cx="100.62994" sodipodi:cy="752.59839" sodipodi:rx="4.2519689" sodipodi:ry="4.2519689" style="font-size:12.000000px;fill:#ffffff;fill-opacity:1.0000000;fill-rule:evenodd;stroke:#000000" transform="matrix(0.804013,0.000000,0.000000,0.804013,638.0870,-71.98690)"/>
    <ellipse cx="100.62994" cy="752.59839" id="ellipse1311" rx="4.2519689" ry="4.2519689" sodipodi:cx="100.62994" sodipodi:cy="752.59839" sodipodi:rx="4.2519689" sodipodi:ry="4.2519689" style="font-size:12.000000px;fill:#ffffff;fill-opacity:1.0000000;fill-rule:evenodd;stroke:#000000" transform="matrix(0.804013,0.000000,0.000000,0.804013,629.7540,-51.98690)"/>
    <ellipse cx="100.62994" cy="752.59839" id="ellipse1312" rx="4.2519689" ry="4.2519689" sodipodi:cx="100.62994" sodipodi:cy="752.59839" sodipodi:rx="4.2519689" sodipodi:ry="4.2519689" style="font-size:12.000000px;fill:#ffffff;fill-opacity:1.0000000;fill-rule:evenodd;stroke:#000000" transform="matrix(0.804013,0.000000,0.000000,0.804013,621.4200,-84.48670)"/>
    <ellipse cx="100.62994" cy="752.59839" id="ellipse1313" rx="4.2519689" ry="4.2519689" sodipodi:cx="100.62994" sodipodi:cy="752.59839" sodipodi:rx="4.2519689" sodipodi:ry="4.2519689" style="font-size:12.000000px;fill:#ffffff;fill-opacity:1.0000000;fill-rule:evenodd;stroke:#000000" transform="matrix(0.804013,0.000000,0.000000,0.804013,607.2540,-53.65400)"/>
    <ellipse cx="100.62994" cy="752.59839" id="ellipse1314" rx="4.2519689" ry="4.2519689" sodipodi:cx="100.62994" sodipodi:cy="752.59839" sodipodi:rx="4.2519689" sodipodi:ry="4.2519689" style="font-size:12.000000px;fill:#ffffff;fill-opacity:1.0000000;fill-rule:evenodd;stroke:#000000" transform="matrix(0.804013,0.000000,0.000000,0.804013,642.2530,-46.15350)"/>
    <ellipse cx="100.62994" cy="752.59839" id="ellipse1315" rx="4.2519689" ry="4.2519689" sodipodi:cx="100.62994" sodipodi:cy="752.59839" sodipodi:rx="4.2519689" sodipodi:ry="4.2519689" style="font-size:12.000000px;fill:#ffffff;fill-opacity:1.0000000;fill-rule:evenodd;stroke:#000000" transform="matrix(0.804013,0.000000,0.000000,0.804013,620.5870,-42.82020)"/>
    <ellipse cx="100.62994" cy="752.59839" id="ellipse1316" rx="4.2519689" ry="4.2519689" sodipodi:cx="100.62994" sodipodi:cy="752.59839" sodipodi:rx="4.2519689" sodipodi:ry="4.2519689" style="font-size:12.000000px;fill:#ffffff;fill-opacity:1.0000000;fill-rule:evenodd;stroke:#000000" transform="matrix(0.804013,0.000000,0.000000,0.804013,626.4200,-62.82100)"/>
    <ellipse cx="100.62994" cy="752.59839" id="ellipse1317" rx="4.2519689" ry="4.2519689" sodipodi:cx="100.62994" sodipodi:cy="752.59839" sodipodi:rx="4.2519689" sodipodi:ry="4.2519689" style="font-size:12.000000px;fill:#ffffff;fill-opacity:1.0000000;fill-rule:evenodd;stroke:#000000" transform="matrix(0.804013,0.000000,0.000000,0.804013,628.0870,-37.82100)"/>
    <ellipse cx="100.62994" cy="752.59839" id="ellipse1318" rx="4.2519689" ry="4.2519689" sodipodi:cx="100.62994" sodipodi:cy="752.59839" sodipodi:rx="4.2519689" sodipodi:ry="4.2519689" style="font-size:12.000000px;fill:#ffffff;fill-opacity:1.0000000;fill-rule:evenodd;stroke:#000000" transform="matrix(0.804013,0.000000,0.000000,0.804013,646.4200,-61.15300)"/>
    <ellipse cx="100.62994" cy="752.59839" id="ellipse1319" rx="4.2519689" ry="4.2519689" sodipodi:cx="100.62994" sodipodi:cy="752.59839" sodipodi:rx="4.2519689" sodipodi:ry="4.2519689" style="font-size:12.000000px;fill:#ffffff;fill-opacity:1.0000000;fill-rule:evenodd;stroke:#000000" transform="matrix(0.804013,0.000000,0.000000,0.804013,625.5870,-74.48700)"/>
    <ellipse cx="100.62994" cy="752.59839" id="ellipse1320" rx="4.2519689" ry="4.2519689" sodipodi:cx="100.62994" sodipodi:cy="752.59839" sodipodi:rx="4.2519689" sodipodi:ry="4.2519689" style="font-size:12.000000px;fill:#ffffff;fill-opacity:1.0000000;fill-rule:evenodd;stroke:#000000" transform="matrix(0.804013,0.000000,0.000000,0.804013,615.5860,-70.32070)"/>
    <ellipse cx="100.62994" cy="752.59839" id="ellipse1321" rx="4.2519689" ry="4.2519689" sodipodi:cx="100.62994" sodipodi:cy="752.59839" sodipodi:rx="4.2519689" sodipodi:ry="4.2519689" style="font-size:12.000000px;fill:#ffffff;fill-opacity:1.0000000;fill-rule:evenodd;stroke:#000000" transform="matrix(0.804013,0.000000,0.000000,0.804013,617.2540,-59.48640)"/>
  </g>
</svg>
