<?xml version="1.0" encoding="UTF-8" standalone="no"?>
<!DOCTYPE svg PUBLIC "-//W3C//DTD SVG 20010904//EN"
"http://www.w3.org/TR/2001/REC-SVG-20010904/DTD/svg10.dtd">
<svg height="144.407" id="svg1363" inkscape:version="0.40" sodipodi:docbase="/mnt/donnees/09-Mes_images/Travaux/Travaux vectoriel/pictogrammes/sécu SVG/Avertissement" sodipodi:docname="ChargesSuspendues.svg" sodipodi:version="0.32" width="156.262" xmlns="http://www.w3.org/2000/svg" xmlns:cc="http://web.resource.org/cc/" xmlns:dc="http://purl.org/dc/elements/1.1/" xmlns:inkscape="http://www.inkscape.org/namespaces/inkscape" xmlns:rdf="http://www.w3.org/1999/02/22-rdf-syntax-ns#" xmlns:sodipodi="http://sodipodi.sourceforge.net/DTD/sodipodi-0.dtd" xmlns:xlink="http://www.w3.org/1999/xlink">
  <metadata>
    <rdf:RDF xmlns:cc="http://web.resource.org/cc/" xmlns:dc="http://purl.org/dc/elements/1.1/" xmlns:rdf="http://www.w3.org/1999/02/22-rdf-syntax-ns#">
      <cc:Work rdf:about="">
        <dc:title>advertising</dc:title>
        <dc:description></dc:description>
        <dc:subject>
          <rdf:Bag>
            <rdf:li></rdf:li>
            <rdf:li>caution</rdf:li>
            <rdf:li>security</rdf:li>
            <rdf:li>warning</rdf:li>
            <rdf:li>signs_and_symbols</rdf:li>
            <rdf:li>sign</rdf:li>
          </rdf:Bag>
        </dc:subject>
        <dc:publisher>
          <cc:Agent rdf:about="http://www.openclipart.org">
            <dc:title>yves GUILLOU</dc:title>
          </cc:Agent>
        </dc:publisher>
        <dc:creator>
          <cc:Agent>
            <dc:title>yves GUILLOU</dc:title>
          </cc:Agent>
        </dc:creator>
        <dc:rights>
          <cc:Agent>
            <dc:title>yves GUILLOU</dc:title>
          </cc:Agent>
        </dc:rights>
        <dc:date></dc:date>
        <dc:format>image/svg+xml</dc:format>
        <dc:type rdf:resource="http://purl.org/dc/dcmitype/StillImage"/>
        <cc:license rdf:resource="http://web.resource.org/cc/PublicDomain"/>
        <dc:language>en</dc:language>
      </cc:Work>
      <cc:License rdf:about="http://web.resource.org/cc/PublicDomain">
        <cc:permits rdf:resource="http://web.resource.org/cc/Reproduction"/>
        <cc:permits rdf:resource="http://web.resource.org/cc/Distribution"/>
        <cc:permits rdf:resource="http://web.resource.org/cc/DerivativeWorks"/>
      </cc:License>
    </rdf:RDF>
  </metadata>
  <sodipodi:namedview bordercolor="#666666" borderopacity="1.0" id="base" inkscape:current-layer="svg1363" inkscape:cx="59.047320" inkscape:cy="61.602943" inkscape:pageopacity="0.0" inkscape:pageshadow="2" inkscape:window-height="827" inkscape:window-width="959" inkscape:window-x="176" inkscape:window-y="161" inkscape:zoom="4.9119411" pagecolor="#ffffff"/>
  <defs id="defs1364">
    <marker id="ArrowEnd" markerHeight="3" markerUnits="strokeWidth" markerWidth="4" orient="auto" refX="0" refY="5" viewBox="0 0 10 10">
      <path d="M 0 0 L 10 5 L 0 10 z" id="path1366"/>
    </marker>
    <marker id="ArrowStart" markerHeight="3" markerUnits="strokeWidth" markerWidth="4" orient="auto" refX="10" refY="5" viewBox="0 0 10 10">
      <path d="M 10 0 L 0 5 L 10 10 z" id="path1368"/>
    </marker>
  </defs>
  <g id="g1369">
    <path d="M 12.473000,121.08200 C 11.431792,123.09777 10.481800,124.49000 10.481700,126.42300 L 10.490728,127.19907 C 10.490728,131.37107 13.756600,133.92500 17.511300,133.92500 L 138.83100,133.92500 C 142.58600,133.92500 145.81986,130.79848 145.81986,126.62648 L 145.78000,125.81500 C 145.78000,123.88200 144.86152,122.33072 143.78900,120.47400 L 83.705600,12.693800 C 81.051000,9.7442300 76.747300,9.7442300 74.092300,12.694200 L 12.473000,121.08200 z " id="path1370" sodipodi:nodetypes="ccccccccccc" style="stroke:#000000; stroke-width:2; fill:#ffffff"/>
    <path d="M 78.703 16.2915L 15.2797 128.128L 76.4667 128.128L 79.3188 128.128L 139.826 128.128L 79.5155 16.2915L 78.703 16.2915z" id="path1371" style="stroke:#000000; stroke-width:4.8516000000000004; stroke-linejoin:round; stroke-linecap:round; fill:#ffcc00"/>
  </g>
  <g id="g1372">
    <path d="M 81.4234 50.0984C 82.3954 50.5844 82.1523 51.5563 82.1523 52.4473L 80.2084 50.9084C 79.5604 53.9053 81.3424 56.8213 81.8284 59.8182C 80.5324 59.4942 81.0994 57.7933 79.8844 57.0643C 79.5604 57.9553 78.7504 58.6843 79.0744 59.8182C 80.2084 60.9522 82.3143 60.6282 82.9623 62.1672C 83.1243 63.7062 82.8004 65.0832 81.4234 66.0552L 82.1523 66.4601C 85.7163 70.6721 88.4703 75.937 92.2772 80.392L 91.5482 80.068L 91.5482 82.0119C 91.0622 81.5259 91.0622 80.797 90.3332 80.392C 89.6853 80.7159 90.0903 81.5259 89.9283 82.0119C 89.1183 76.504 85.0683 71.4821 81.4234 66.7841C 81.1804 74.884 81.5854 83.6319 82.5573 91.7318L 91.8722 97.5637C 93.7352 97.6447 94.9502 96.1057 93.8162 94.4048C 92.7632 91.9748 93.1682 88.5729 89.9283 87.4389L 91.8722 88.5729C 92.6012 87.9249 92.1962 86.7099 92.2772 85.8999C 92.3582 86.3859 92.0342 87.1149 92.6822 87.4389L 94.2212 85.4949C 92.8442 91.4078 94.4642 98.7787 98.9191 102.586L 99.3241 114.25L 85.3113 118.947C 82.3143 115.546 76.6444 119.595 75.5914 113.845C 71.6225 112.63 68.4635 108.337 63.9276 109.552C 60.5256 109.066 61.4976 104.854 58.5007 104.125C 62.6316 102.505 67.0056 101.29 70.8935 99.1027L 70.1645 98.2927L 57.2857 103.396L 56.8807 91.7318C 68.7875 88.6538 70.8125 74.722 78.2644 66.4601C 78.5884 64.7592 76.6444 62.6532 77.9404 60.6282C 82.1523 57.3073 75.9964 52.2043 80.2084 49.2884C 80.0464 47.1824 80.8564 44.6714 79.0744 43.1325C 79.3984 43.3754 80.0464 43.8614 80.6134 44.2664L 82.1523 42.7275C 81.3424 44.9144 80.5324 47.6684 81.4234 50.0984z" id="path1373" style="stroke:none; fill:#000000"/>
    <path d="M 79.4794 63.7062C 79.4794 64.8402 78.0214 62.1672 79.0744 61.3572C 79.5604 61.9242 79.4794 62.8962 79.4794 63.7062z" id="path1374" style="stroke:none; fill:#ffcc00"/>
    <path d="M 80.6134 87.4389C 77.4544 90.2738 75.3484 85.5759 72.4325 85.4949L 72.4325 97.5637C 71.3795 93.6758 73.1615 88.4919 70.8935 85.0899L 67.0056 87.0339L 67.0056 85.8999L 77.9404 69.5381L 77.1304 86.6289L 78.2644 87.8438L 79.0744 86.6289L 79.8844 67.5941L 80.6134 87.4389z" id="path1375" style="stroke:none; fill:#ffcc00"/>
    <path d="M 81.0184 102.991C 75.5914 104.854 70.3265 107.122 64.6566 108.418C 64.0896 107.122 62.0646 107.851 62.3886 106.069L 78.2644 100.237C 80.1274 96.9157 78.0214 93.4328 78.6694 89.7878L 80.2084 88.9778C 81.0994 93.4328 81.9093 98.2927 81.0184 102.991z" id="path1376" style="stroke:none; fill:#ffcc00"/>
    <path d="M 95.0312 110.767L 79.8844 116.194C 78.9124 116.194 78.1024 115.789 77.5354 115.06L 91.8722 109.957C 95.1122 106.96 92.3582 102.505 92.6822 98.6977L 94.2212 97.8877C 95.1122 101.533 95.9222 106.474 95.0312 110.767z" id="path1377" style="stroke:none; fill:#ffcc00"/>
    <path d="M 74.7814 99.8317C 74.7005 100.642 73.1615 99.9937 73.2425 99.1027C 73.8095 99.2647 74.3764 99.3457 74.7814 99.8317z" id="path1378" style="stroke:none; fill:#ffcc00"/>
    <path d="M 90.7382 109.228C 87.3363 108.499 84.7443 105.907 81.8284 104.125C 84.9063 105.421 87.7413 107.527 90.7382 109.228z" id="path1379" style="stroke:none; fill:#ffcc00"/>
    <path d="M 95.7602 112.306L 96.9752 112.711L 95.7602 112.306z" id="path1380" style="stroke:none; fill:#ffcc00"/>
  </g>
</svg>
