<?xml version="1.0" encoding="UTF-8" standalone="no"?>
<!-- Created with Inkscape (http://www.inkscape.org/) --><svg height="1052.3622047" id="svg4956" inkscape:version="0.42+devel" sodipodi:docbase="/home/rejon/Documents/projects/create-project/logo" sodipodi:docname="cloud.svg" sodipodi:version="0.32" width="744.09448819" xmlns="http://www.w3.org/2000/svg" xmlns:cc="http://web.resource.org/cc/" xmlns:dc="http://purl.org/dc/elements/1.1/" xmlns:inkscape="http://www.inkscape.org/namespaces/inkscape" xmlns:rdf="http://www.w3.org/1999/02/22-rdf-syntax-ns#" xmlns:sodipodi="http://inkscape.sourceforge.net/DTD/sodipodi-0.dtd" xmlns:svg="http://www.w3.org/2000/svg">
  <metadata>
    <rdf:RDF xmlns:cc="http://web.resource.org/cc/" xmlns:dc="http://purl.org/dc/elements/1.1/" xmlns:rdf="http://www.w3.org/1999/02/22-rdf-syntax-ns#">
      <cc:Work rdf:about="">
        <dc:title>Cloud</dc:title>
        <dc:description>This is a standard cloud shape.</dc:description>
        <dc:subject>
          <rdf:Bag>
            <rdf:li>thought</rdf:li>
            <rdf:li>cloud</rdf:li>
            <rdf:li>bubble</rdf:li>
            <rdf:li>cartoon</rdf:li>
            <rdf:li>comic</rdf:li>
          </rdf:Bag>
        </dc:subject>
        <dc:publisher>
          <cc:Agent rdf:about="http://www.openclipart.org/">
            <dc:title>Open Clip Art Library</dc:title>
          </cc:Agent>
        </dc:publisher>
        <dc:creator>
          <cc:Agent>
            <dc:title>Jon Phillips</dc:title>
          </cc:Agent>
        </dc:creator>
        <dc:rights>
          <cc:Agent>
            <dc:title>Jon Phillips</dc:title>
          </cc:Agent>
        </dc:rights>
        <dc:date>2005-08-08</dc:date>
        <dc:format>image/svg+xml</dc:format>
        <dc:type rdf:resource="http://purl.org/dc/dcmitype/StillImage"/>
        <cc:license rdf:resource="http://web.resource.org/cc/PublicDomain"/>
        <dc:language>EN</dc:language>
      </cc:Work>
      <cc:License rdf:about="http://web.resource.org/cc/PublicDomain">
        <cc:permits rdf:resource="http://web.resource.org/cc/Reproduction"/>
        <cc:permits rdf:resource="http://web.resource.org/cc/Distribution"/>
        <cc:permits rdf:resource="http://web.resource.org/cc/DerivativeWorks"/>
      </cc:License>
    </rdf:RDF>
  </metadata>
  <defs id="defs4958"/>
  <sodipodi:namedview bordercolor="#666666" borderopacity="1.0" id="base" inkscape:current-layer="layer1" inkscape:cx="375" inkscape:cy="520" inkscape:document-units="px" inkscape:pageopacity="0.0" inkscape:pageshadow="2" inkscape:window-height="510" inkscape:window-width="754" inkscape:window-x="0" inkscape:window-y="438" inkscape:zoom="0.35" pagecolor="#ffffff"/>
  <g id="layer1" inkscape:groupmode="layer" inkscape:label="Layer 1">
    <path d="M 410.67959,194.3815 C 392.37515,189.47681 373.85117,195.08975 361.06312,207.28351 C 354.38189,199.25271 345.33513,193.05458 334.48394,190.1472 C 306.55725,182.66441 277.78779,199.27435 270.3048,227.20111 C 269.75493,229.25318 269.61017,231.31674 269.31528,233.36915 C 244.16592,230.75487 220.10196,246.49902 213.35064,271.69554 C 206.66103,296.6615 219.28468,322.19 241.97368,332.68633 C 240.74035,335.36078 239.59041,338.11603 238.80258,341.05587 C 231.31972,368.98263 247.94629,397.69032 275.87305,405.17311 C 289.55164,408.83877 303.37499,406.6863 314.85002,400.29682 C 321.17421,413.82629 332.96537,424.71545 348.50905,428.8801 C 370.68656,434.82265 393.19111,425.40916 405.34082,407.36649 C 410.26235,410.85061 415.73285,413.73264 421.89508,415.3841 C 449.82177,422.86689 478.52936,406.24005 486.01235,378.31329 C 489.77522,364.2703 487.44688,350.05895 480.65432,338.41184 C 487.37673,332.00174 492.63872,323.88203 495.21692,314.25995 C 502.69988,286.33286 486.07327,257.62517 458.14659,250.14238 C 455.20678,249.35502 452.26201,248.91147 449.32995,248.64237 C 451.06775,224.11827 435.30606,200.98024 410.67959,194.3815 z " id="path4952" style="opacity:1;fill:#ffffff;fill-opacity:1;stroke:#000000;stroke-width:14.790461;stroke-linecap:butt;stroke-linejoin:round;stroke-miterlimit:4;stroke-dasharray:none;stroke-dashoffset:0;stroke-opacity:1"/>
  </g>
</svg>
