<?xml version="1.0" encoding="UTF-8" standalone="no"?>
<!-- Created with Inkscape (http://www.inkscape.org/) --><svg height="841.88976pt" id="svg1" inkscape:version="0.40+cvs" sodipodi:docbase="C:\Documents and Settings\Jon Phillips\My Documents\projects\clipart-project\submissions" sodipodi:docname="heart-cluster.svg" sodipodi:version="0.32" width="595.27559pt" xmlns="http://www.w3.org/2000/svg" xmlns:cc="http://web.resource.org/cc/" xmlns:dc="http://purl.org/dc/elements/1.1/" xmlns:inkscape="http://www.inkscape.org/namespaces/inkscape" xmlns:rdf="http://www.w3.org/1999/02/22-rdf-syntax-ns#" xmlns:sodipodi="http://inkscape.sourceforge.net/DTD/sodipodi-0.dtd" xmlns:svg="http://www.w3.org/2000/svg" xmlns:xlink="http://www.w3.org/1999/xlink">
  <metadata>
    <rdf:RDF xmlns:cc="http://web.resource.org/cc/" xmlns:dc="http://purl.org/dc/elements/1.1/" xmlns:rdf="http://www.w3.org/1999/02/22-rdf-syntax-ns#">
      <cc:Work rdf:about="">
        <dc:title>Heart Cluster</dc:title>
        <dc:description>This is a normal valentines day heart.</dc:description>
        <dc:subject>
          <rdf:Bag>
            <rdf:li>holiday</rdf:li>
            <rdf:li>valentines</rdf:li>
            <rdf:li></rdf:li>
            <rdf:li>hash(0x8a0a39c)</rdf:li>
            <rdf:li>valentine</rdf:li>
            <rdf:li>hash(0x8a0a3f0)</rdf:li>
            <rdf:li>signs_and_symbols</rdf:li>
            <rdf:li>hash(0x8a0a420)</rdf:li>
            <rdf:li>day</rdf:li>
          </rdf:Bag>
        </dc:subject>
        <dc:publisher>
          <cc:Agent rdf:about="http://www.openclipart.org">
            <dc:title>Jon Phillips</dc:title>
          </cc:Agent>
        </dc:publisher>
        <dc:creator>
          <cc:Agent>
            <dc:title>Jon Phillips</dc:title>
          </cc:Agent>
        </dc:creator>
        <dc:rights>
          <cc:Agent>
            <dc:title>Jon Phillips</dc:title>
          </cc:Agent>
        </dc:rights>
        <dc:date></dc:date>
        <dc:format>image/svg+xml</dc:format>
        <dc:type rdf:resource="http://purl.org/dc/dcmitype/StillImage"/>
        <cc:license rdf:resource="http://web.resource.org/cc/PublicDomain"/>
        <dc:language>en</dc:language>
      </cc:Work>
      <cc:License rdf:about="http://web.resource.org/cc/PublicDomain">
        <cc:permits rdf:resource="http://web.resource.org/cc/Reproduction"/>
        <cc:permits rdf:resource="http://web.resource.org/cc/Distribution"/>
        <cc:permits rdf:resource="http://web.resource.org/cc/DerivativeWorks"/>
      </cc:License>
    </rdf:RDF>
  </metadata>
  <defs id="defs3">
    <linearGradient id="linearGradient224" inkscape:collect="always">
      <stop id="stop225" offset="0" style="stop-color:#e6e6e6;stop-opacity:1;"/>
      <stop id="stop226" offset="1" style="stop-color:#e6e6e6;stop-opacity:0;"/>
    </linearGradient>
    <linearGradient gradientTransform="matrix(-0.735147,0.000000,0.000000,1.360273,744.1826,0.000000)" gradientUnits="userSpaceOnUse" id="linearGradient229" inkscape:collect="always" x1="205.97354" x2="598.86774" xlink:href="#linearGradient224" y1="186.42870" y2="507.66101"/>
    <linearGradient gradientTransform="scale(0.735147,1.360273)" gradientUnits="userSpaceOnUse" id="linearGradient235" inkscape:collect="always" x1="205.97354" x2="598.86774" xlink:href="#linearGradient224" y1="186.42870" y2="507.66101"/>
    <linearGradient gradientTransform="matrix(-0.735147,0.000000,0.000000,1.360273,744.1826,0.000000)" gradientUnits="userSpaceOnUse" id="linearGradient236" inkscape:collect="always" x1="205.97354" x2="598.86774" xlink:href="#linearGradient224" y1="186.42870" y2="507.66101"/>
    <linearGradient gradientTransform="scale(0.735147,1.360273)" gradientUnits="userSpaceOnUse" id="linearGradient237" inkscape:collect="always" x1="205.97354" x2="598.86774" xlink:href="#linearGradient224" y1="186.42870" y2="507.66101"/>
    <linearGradient gradientTransform="matrix(-0.735147,0.000000,0.000000,1.360273,744.1826,7.825963e-13)" gradientUnits="userSpaceOnUse" id="linearGradient238" inkscape:collect="always" x1="205.97354" x2="598.86774" xlink:href="#linearGradient224" y1="186.42870" y2="507.66101"/>
    <linearGradient gradientTransform="scale(0.735147,1.360273)" gradientUnits="userSpaceOnUse" id="linearGradient243" inkscape:collect="always" x1="205.97354" x2="598.86774" xlink:href="#linearGradient224" y1="186.42870" y2="507.66101"/>
    <linearGradient gradientTransform="matrix(-0.735147,0.000000,0.000000,1.360273,744.1826,-4.157784e-14)" gradientUnits="userSpaceOnUse" id="linearGradient244" inkscape:collect="always" x1="205.97354" x2="598.86774" xlink:href="#linearGradient224" y1="186.42870" y2="507.66101"/>
    <linearGradient gradientTransform="scale(0.735147,1.360273)" gradientUnits="userSpaceOnUse" id="linearGradient249" inkscape:collect="always" x1="205.97354" x2="598.86774" xlink:href="#linearGradient224" y1="186.42870" y2="507.66101"/>
    <linearGradient gradientTransform="matrix(-0.735147,0.000000,0.000000,1.360273,744.1826,-6.229459e-13)" gradientUnits="userSpaceOnUse" id="linearGradient250" inkscape:collect="always" x1="205.97354" x2="598.86774" xlink:href="#linearGradient224" y1="186.42870" y2="507.66101"/>
  </defs>
  <sodipodi:namedview bordercolor="#666666" borderopacity="1.0" id="base" inkscape:current-layer="layer1" inkscape:cx="750.03789" inkscape:cy="442.80441" inkscape:document-units="px" inkscape:guide-bbox="true" inkscape:pageopacity="0.0" inkscape:pageshadow="2" inkscape:window-height="615" inkscape:window-width="866" inkscape:window-x="88" inkscape:window-y="116" inkscape:zoom="0.24748737" pagecolor="#ffffff" showguides="true"/>
  <g id="layer1" inkscape:groupmode="layer" inkscape:label="Layer 1">
    <g id="g239" transform="matrix(0.541825,0.000000,0.000000,0.541825,-45.80231,455.2305)">
      <path d="M 265.00000,253.59375 C 207.04033,253.59375 160.00000,300.63407 160.00000,358.59375 C 160.00000,476.50415 278.91857,507.43251 359.96875,624.00000 C 366.52868,614.08205 220.00000,478.47309 220.00000,378.59375 C 220.00000,320.63407 267.04033,273.59375 325.00000,273.59375 C 325.50453,273.59375 325.99718,273.64912 326.50000,273.65625 C 309.22436,261.07286 288.00557,253.59374 265.00000,253.59375 z " id="path240" sodipodi:nodetypes="ccccccc" style="fill:url(#linearGradient243);fill-opacity:1.0000000;stroke:none;stroke-width:18.700001;stroke-miterlimit:4.0000000;stroke-opacity:1.0000000"/>
      <path d="M 263.41570,235.14588 C 197.17570,235.14588 143.41575,288.90587 143.41575,355.14588 C 143.41575,489.90139 279.34890,525.23318 371.97820,658.45392 C 459.55244,526.05056 600.54070,485.59932 600.54070,355.14588 C 600.54070,288.90588 546.78080,235.14587 480.54070,235.14588 C 432.49280,235.14588 391.13910,263.51631 371.97820,304.33338 C 352.81740,263.51630 311.46370,235.14587 263.41570,235.14588 z " id="path241" sodipodi:nodetypes="ccccccc" style="fill:#e60000;fill-opacity:1.0000000;stroke:none;stroke-width:18.700001;stroke-miterlimit:4.0000000;stroke-opacity:1.0000000"/>
      <path d="M 479.18262,253.59375 C 537.14229,253.59375 584.18262,300.63407 584.18262,358.59375 C 584.18262,476.50415 465.26405,507.43251 384.21387,624.00000 C 377.65394,614.08205 524.18262,478.47309 524.18262,378.59375 C 524.18262,320.63407 477.14229,273.59375 419.18262,273.59375 C 418.67809,273.59375 418.18544,273.64912 417.68262,273.65625 C 434.95826,261.07286 456.17705,253.59374 479.18262,253.59375 z " id="path242" sodipodi:nodetypes="ccccccc" style="fill:url(#linearGradient244);fill-opacity:1.0000000;stroke:none;stroke-width:18.700001;stroke-miterlimit:4.0000000;stroke-opacity:1.0000000"/>
    </g>
    <g id="g245" transform="matrix(-0.418077,0.000000,0.000000,0.418077,731.4839,453.9527)">
      <path d="M 265.00000,253.59375 C 207.04033,253.59375 160.00000,300.63407 160.00000,358.59375 C 160.00000,476.50415 278.91857,507.43251 359.96875,624.00000 C 366.52868,614.08205 220.00000,478.47309 220.00000,378.59375 C 220.00000,320.63407 267.04033,273.59375 325.00000,273.59375 C 325.50453,273.59375 325.99718,273.64912 326.50000,273.65625 C 309.22436,261.07286 288.00557,253.59374 265.00000,253.59375 z " id="path246" sodipodi:nodetypes="ccccccc" style="fill:url(#linearGradient249);fill-opacity:1.0000000;stroke:none;stroke-width:18.700001;stroke-miterlimit:4.0000000;stroke-opacity:1.0000000"/>
      <path d="M 263.41570,235.14588 C 197.17570,235.14588 143.41575,288.90587 143.41575,355.14588 C 143.41575,489.90139 279.34890,525.23318 371.97820,658.45392 C 459.55244,526.05056 600.54070,485.59932 600.54070,355.14588 C 600.54070,288.90588 546.78080,235.14587 480.54070,235.14588 C 432.49280,235.14588 391.13910,263.51631 371.97820,304.33338 C 352.81740,263.51630 311.46370,235.14587 263.41570,235.14588 z " id="path247" sodipodi:nodetypes="ccccccc" style="fill:#e60000;fill-opacity:1.0000000;stroke:none;stroke-width:18.700001;stroke-miterlimit:4.0000000;stroke-opacity:1.0000000"/>
      <path d="M 479.18262,253.59375 C 537.14229,253.59375 584.18262,300.63407 584.18262,358.59375 C 584.18262,476.50415 465.26405,507.43251 384.21387,624.00000 C 377.65394,614.08205 524.18262,478.47309 524.18262,378.59375 C 524.18262,320.63407 477.14229,273.59375 419.18262,273.59375 C 418.67809,273.59375 418.18544,273.64912 417.68262,273.65625 C 434.95826,261.07286 456.17705,253.59374 479.18262,253.59375 z " id="path248" sodipodi:nodetypes="ccccccc" style="fill:url(#linearGradient250);fill-opacity:1.0000000;stroke:none;stroke-width:18.700001;stroke-miterlimit:4.0000000;stroke-opacity:1.0000000"/>
    </g>
    <g id="g231" transform="translate(1.959390,-84.85281)">
      <path d="M 265.00000,253.59375 C 207.04033,253.59375 160.00000,300.63407 160.00000,358.59375 C 160.00000,476.50415 278.91857,507.43251 359.96875,624.00000 C 366.52868,614.08205 220.00000,478.47309 220.00000,378.59375 C 220.00000,320.63407 267.04033,273.59375 325.00000,273.59375 C 325.50453,273.59375 325.99718,273.64912 326.50000,273.65625 C 309.22436,261.07286 288.00557,253.59374 265.00000,253.59375 z " id="path232" sodipodi:nodetypes="ccccccc" style="fill:url(#linearGradient235);fill-opacity:1.0000000;stroke:none;stroke-width:18.700001;stroke-miterlimit:4.0000000;stroke-opacity:1.0000000"/>
      <path d="M 263.41570,235.14588 C 197.17570,235.14588 143.41575,288.90587 143.41575,355.14588 C 143.41575,489.90139 279.34890,525.23318 371.97820,658.45392 C 459.55244,526.05056 600.54070,485.59932 600.54070,355.14588 C 600.54070,288.90588 546.78080,235.14587 480.54070,235.14588 C 432.49280,235.14588 391.13910,263.51631 371.97820,304.33338 C 352.81740,263.51630 311.46370,235.14587 263.41570,235.14588 z " id="path233" sodipodi:nodetypes="ccccccc" style="fill:#e60000;fill-opacity:1.0000000;stroke:none;stroke-width:18.700001;stroke-miterlimit:4.0000000;stroke-opacity:1.0000000"/>
      <path d="M 479.18262,253.59375 C 537.14229,253.59375 584.18262,300.63407 584.18262,358.59375 C 584.18262,476.50415 465.26405,507.43251 384.21387,624.00000 C 377.65394,614.08205 524.18262,478.47309 524.18262,378.59375 C 524.18262,320.63407 477.14229,273.59375 419.18262,273.59375 C 418.67809,273.59375 418.18544,273.64912 417.68262,273.65625 C 434.95826,261.07286 456.17705,253.59374 479.18262,253.59375 z " id="path234" sodipodi:nodetypes="ccccccc" style="fill:url(#linearGradient236);fill-opacity:1.0000000;stroke:none;stroke-width:18.700001;stroke-miterlimit:4.0000000;stroke-opacity:1.0000000"/>
    </g>
    <g id="g230" transform="matrix(-0.294329,0.000000,0.000000,0.294329,487.4625,723.3957)">
      <path d="M 265.00000,253.59375 C 207.04033,253.59375 160.00000,300.63407 160.00000,358.59375 C 160.00000,476.50415 278.91857,507.43251 359.96875,624.00000 C 366.52868,614.08205 220.00000,478.47309 220.00000,378.59375 C 220.00000,320.63407 267.04033,273.59375 325.00000,273.59375 C 325.50453,273.59375 325.99718,273.64912 326.50000,273.65625 C 309.22436,261.07286 288.00557,253.59374 265.00000,253.59375 z " id="path220" sodipodi:nodetypes="ccccccc" style="fill:url(#linearGradient237);fill-opacity:1.0000000;stroke:none;stroke-width:18.700001;stroke-miterlimit:4.0000000;stroke-opacity:1.0000000"/>
      <path d="M 263.41570,235.14588 C 197.17570,235.14588 143.41575,288.90587 143.41575,355.14588 C 143.41575,489.90139 279.34890,525.23318 371.97820,658.45392 C 459.55244,526.05056 600.54070,485.59932 600.54070,355.14588 C 600.54070,288.90588 546.78080,235.14587 480.54070,235.14588 C 432.49280,235.14588 391.13910,263.51631 371.97820,304.33338 C 352.81740,263.51630 311.46370,235.14587 263.41570,235.14588 z " id="path7" sodipodi:nodetypes="ccccccc" style="fill:#e60000;fill-opacity:1.0000000;stroke:none;stroke-width:18.700001;stroke-miterlimit:4.0000000;stroke-opacity:1.0000000"/>
      <path d="M 479.18262,253.59375 C 537.14229,253.59375 584.18262,300.63407 584.18262,358.59375 C 584.18262,476.50415 465.26405,507.43251 384.21387,624.00000 C 377.65394,614.08205 524.18262,478.47309 524.18262,378.59375 C 524.18262,320.63407 477.14229,273.59375 419.18262,273.59375 C 418.67809,273.59375 418.18544,273.64912 417.68262,273.65625 C 434.95826,261.07286 456.17705,253.59374 479.18262,253.59375 z " id="path228" sodipodi:nodetypes="ccccccc" style="fill:url(#linearGradient238);fill-opacity:1.0000000;stroke:none;stroke-width:18.700001;stroke-miterlimit:4.0000000;stroke-opacity:1.0000000"/>
    </g>
  </g>
</svg>
