<?xml version="1.0" encoding="UTF-8" standalone="no"?>
<!DOCTYPE svg PUBLIC "-//W3C//DTD SVG 20010904//EN"
"http://www.w3.org/TR/2001/REC-SVG-20010904/DTD/svg10.dtd">
<svg height="144.407" id="svg1755" inkscape:version="0.40" sodipodi:docbase="/mnt/donnees/09-Mes_images/Travaux/Travaux vectoriel/pictogrammes/sécu SVG/Avertissement" sodipodi:docname="MatieresCorrosives.svg" sodipodi:version="0.32" width="156.261" xmlns="http://www.w3.org/2000/svg" xmlns:cc="http://web.resource.org/cc/" xmlns:dc="http://purl.org/dc/elements/1.1/" xmlns:inkscape="http://www.inkscape.org/namespaces/inkscape" xmlns:rdf="http://www.w3.org/1999/02/22-rdf-syntax-ns#" xmlns:sodipodi="http://sodipodi.sourceforge.net/DTD/sodipodi-0.dtd" xmlns:xlink="http://www.w3.org/1999/xlink">
  <metadata>
    <rdf:RDF xmlns:cc="http://web.resource.org/cc/" xmlns:dc="http://purl.org/dc/elements/1.1/" xmlns:rdf="http://www.w3.org/1999/02/22-rdf-syntax-ns#">
      <cc:Work rdf:about="">
        <dc:title>advertising</dc:title>
        <dc:description></dc:description>
        <dc:subject>
          <rdf:Bag>
            <rdf:li></rdf:li>
            <rdf:li>caution</rdf:li>
            <rdf:li>security</rdf:li>
            <rdf:li>warning</rdf:li>
            <rdf:li>signs_and_symbols</rdf:li>
            <rdf:li>sign</rdf:li>
          </rdf:Bag>
        </dc:subject>
        <dc:publisher>
          <cc:Agent rdf:about="http://www.openclipart.org">
            <dc:title>yves GUILLOU</dc:title>
          </cc:Agent>
        </dc:publisher>
        <dc:creator>
          <cc:Agent>
            <dc:title>yves GUILLOU</dc:title>
          </cc:Agent>
        </dc:creator>
        <dc:rights>
          <cc:Agent>
            <dc:title>yves GUILLOU</dc:title>
          </cc:Agent>
        </dc:rights>
        <dc:date></dc:date>
        <dc:format>image/svg+xml</dc:format>
        <dc:type rdf:resource="http://purl.org/dc/dcmitype/StillImage"/>
        <cc:license rdf:resource="http://web.resource.org/cc/PublicDomain"/>
        <dc:language>en</dc:language>
      </cc:Work>
      <cc:License rdf:about="http://web.resource.org/cc/PublicDomain">
        <cc:permits rdf:resource="http://web.resource.org/cc/Reproduction"/>
        <cc:permits rdf:resource="http://web.resource.org/cc/Distribution"/>
        <cc:permits rdf:resource="http://web.resource.org/cc/DerivativeWorks"/>
      </cc:License>
    </rdf:RDF>
  </metadata>
  <sodipodi:namedview bordercolor="#666666" borderopacity="1.0" id="base" inkscape:current-layer="svg1755" inkscape:cx="62.504401" inkscape:cy="57.762799" inkscape:pageopacity="0.0" inkscape:pageshadow="2" inkscape:window-height="1121" inkscape:window-width="1590" inkscape:window-x="0" inkscape:window-y="0" inkscape:zoom="8.1626931" pagecolor="#ffffff"/>
  <defs id="defs1756">
    <marker id="ArrowEnd" markerHeight="3" markerUnits="strokeWidth" markerWidth="4" orient="auto" refX="0" refY="5" viewBox="0 0 10 10">
      <path d="M 0 0 L 10 5 L 0 10 z" id="path1758"/>
    </marker>
    <marker id="ArrowStart" markerHeight="3" markerUnits="strokeWidth" markerWidth="4" orient="auto" refX="10" refY="5" viewBox="0 0 10 10">
      <path d="M 10 0 L 0 5 L 10 10 z" id="path1760"/>
    </marker>
  </defs>
  <g id="g1761">
    <path d="M 12.472900,121.08300 C 11.604607,122.90156 10.481700,124.49000 10.481700,126.42300 L 10.445112,127.13768 C 10.445112,131.30968 13.756600,133.92500 17.511000,133.92500 L 138.83100,133.92500 C 142.58600,133.92500 145.78214,130.81199 145.78214,126.63999 L 145.77900,125.81500 C 145.77900,123.88200 144.80973,122.17870 143.78800,120.47400 L 83.705300,12.694000 C 81.051000,9.7442600 76.747300,9.7442600 74.092000,12.694000 L 12.472900,121.08300 z " id="path1762" sodipodi:nodetypes="ccccccccccc" style="stroke:#000000; stroke-width:2; fill:#ffffff"/>
    <path d="M 78.7029 16.2916L 15.2795 128.128L 76.4665 128.128L 79.3186 128.128L 139.826 128.128L 79.5154 16.2916L 78.7029 16.2916z" id="path1763" style="stroke:#000000; stroke-width:4.8516000000000004; stroke-linejoin:round; stroke-linecap:round; fill:#ffcc00"/>
    <g id="g1764">
      <path d="M 84.9045 65.4738C 78.3435 66.5265 71.7019 69.8473 65.0598 68.6325C 63.845 67.4176 64.2497 64.9874 64.7361 63.5299L 66.2751 62.3956C 72.0256 61.0997 77.9387 60.3707 83.3655 58.5075C 84.2566 60.6139 84.4997 63.1246 84.9045 65.4738z" id="path1765" style="stroke:none; fill:#000000"/>
      <path d="M 83.7707 63.5299L 83.7707 64.3395L 65.8699 64.3395C 70.6487 61.6666 77.0476 61.5045 82.5554 60.0465L 83.7707 63.5299z" id="path1766" style="stroke:none; fill:#ffcc00"/>
      <path d="M 86.1199 75.1935C 85.3904 75.5177 84.9856 76.2467 84.1755 76.0035C 81.0979 74.0597 84.8235 72.0343 84.4997 69.7667C 84.9856 71.2247 86.7678 72.8444 86.1199 75.1935z" id="path1767" style="stroke:none; fill:#000000"/>
      <path d="M 72.1067 75.1935C 73.97 76.4083 74.5369 78.5143 73.6457 80.2965C 72.5119 82.4025 70.0818 82.4835 68.219 81.8356C 63.5207 80.7824 58.6609 79.1622 54.2058 78.6764C 53.8821 76.6515 54.6111 73.3307 55.3401 70.9005C 60.5242 73.3307 66.4368 73.8165 72.1067 75.1935z" id="path1768" style="stroke:none; fill:#000000"/>
      <path d="M 72.1067 76.7325L 55.0159 76.7325L 56.1501 72.5206C 61.6579 73.3307 66.761 75.2745 72.1067 76.7325z" id="path1769" style="stroke:none; fill:#ffcc00"/>
      <path d="M 86.4436 89.6115C 85.8767 90.2594 84.9045 89.8541 84.1755 90.0162C 82.0696 87.7482 85.4714 85.8854 84.9045 83.3746C 86.6057 84.9943 86.6057 87.7482 86.4436 89.6115z" id="path1770" style="stroke:none; fill:#000000"/>
      <path d="M 55.0159 90.0162C 54.0442 89.7731 52.7478 90.5021 52.2619 89.2062L 53.3962 84.1842C 54.53 85.8854 56.2312 87.8292 55.0159 90.0162z" id="path1771" style="stroke:none; fill:#000000"/>
      <path d="M 113.335 97.3873C 115.036 98.0353 117.223 97.63 119.167 97.7921L 119.167 112.939C 110.743 114.559 102.401 117.475 93.8952 114.073C 88.6306 113.02 82.3127 114.802 77.5339 112.534C 76.8323 110.916 77.9504 110.844 78.8572 110.504C 79.383 110.426 79.8396 110.277 80.2878 110.185C 90.7746 110.176 93.113 110.597 93.2751 110.354C 93.0334 110.264 93.5217 109.134 93.0793 109.082C 89.2678 108.635 77.7151 110.066 73.6433 108.463C 73.0344 108.224 72.9636 108.022 72.6614 107.67C 72.467 107.444 72.552 106.982 72.5119 106.702L 72.8503 106.348L 73.6931 106.267L 92.9914 105.599C 92.7961 105.509 93.1101 104.535 92.8835 104.483C 91.258 104.111 71.0329 105.432 69.9553 104.331C 69.5642 103.932 69.468 103.414 69.4875 102.494C 69.7898 102.154 69.9983 101.944 70.3503 101.782C 72.8132 100.651 89.7561 101.913 92.4319 101.289C 93.0329 101.387 92.0022 101.139 92.4587 100.87C 91.8186 100.687 78.9494 100.196 78.2458 100.125C 76.4568 99.9435 74.634 99.8585 73.6457 98.5211C 73.0788 96.82 75.0227 96.5773 75.9949 96.172C 78.0198 95.6862 79.3967 97.063 81.4216 96.5773C 81.3406 97.3873 81.5027 98.0353 82.2317 98.5211C 84.9045 100.222 87.6584 97.3063 90.3313 96.5773C 91.1413 96.4962 92.1135 96.901 92.6804 96.172C 91.3035 95.2003 89.2785 93.9044 89.6023 91.9601C 97.8645 93.0133 106.693 92.4464 113.335 97.3873z" id="path1772" style="stroke:none; fill:#000000"/>
      <path d="M 55.7449 99.736C 55.0969 100.546 53.8821 101.356 53.072 100.465C 51.7761 98.9264 53.1531 96.4152 53.801 94.6334C 55.5022 95.9293 55.178 97.9542 55.7449 99.736z" id="path1773" style="stroke:none; fill:#000000"/>
      <path d="M 50.3181 103.624C 51.8572 106.702 55.5827 105.811 58.094 105.568C 58.904 101.923 62.7917 104.272 65.0598 103.624L 65.0598 109.051L 37.844 109.051L 37.844 103.624L 50.3181 103.624z" id="path1774" style="stroke:none; fill:#000000"/>
    </g>
  </g>
</svg>
