<?xml version="1.0" encoding="UTF-8" standalone="no"?>
<!DOCTYPE svg PUBLIC "-//W3C//DTD SVG 20010904//EN"
"http://www.w3.org/TR/2001/REC-SVG-20010904/DTD/svg10.dtd">
<svg height="164.675" id="svg1" inkscape:version="0.40" sodipodi:docbase="/mnt/donnees/09-Mes_images/Travaux/Travaux vectoriel/pictogrammes/sécu SVG/Obligation" sodipodi:docname="ObligationGenerale.svg" sodipodi:version="0.32" width="164.675" xmlns="http://www.w3.org/2000/svg" xmlns:cc="http://web.resource.org/cc/" xmlns:dc="http://purl.org/dc/elements/1.1/" xmlns:inkscape="http://www.inkscape.org/namespaces/inkscape" xmlns:rdf="http://www.w3.org/1999/02/22-rdf-syntax-ns#" xmlns:sodipodi="http://sodipodi.sourceforge.net/DTD/sodipodi-0.dtd" xmlns:xlink="http://www.w3.org/1999/xlink">
  <metadata>
    <rdf:RDF xmlns:cc="http://web.resource.org/cc/" xmlns:dc="http://purl.org/dc/elements/1.1/" xmlns:rdf="http://www.w3.org/1999/02/22-rdf-syntax-ns#">
      <cc:Work rdf:about="">
        <dc:title>obligation generale</dc:title>
        <dc:description>obligation</dc:description>
        <dc:subject>
          <rdf:Bag>
            <rdf:li></rdf:li>
            <rdf:li>symbol</rdf:li>
            <rdf:li>signs_and_symbols</rdf:li>
          </rdf:Bag>
        </dc:subject>
        <dc:publisher>
          <cc:Agent rdf:about="http://www.openclipart.org">
            <dc:title>yves GUILLOU</dc:title>
          </cc:Agent>
        </dc:publisher>
        <dc:creator>
          <cc:Agent>
            <dc:title>yves GUILLOU</dc:title>
          </cc:Agent>
        </dc:creator>
        <dc:rights>
          <cc:Agent>
            <dc:title>yves GUILLOU</dc:title>
          </cc:Agent>
        </dc:rights>
        <dc:date></dc:date>
        <dc:format>image/svg+xml</dc:format>
        <dc:type rdf:resource="http://purl.org/dc/dcmitype/StillImage"/>
        <cc:license rdf:resource="http://web.resource.org/cc/PublicDomain"/>
        <dc:language>en</dc:language>
      </cc:Work>
      <cc:License rdf:about="http://web.resource.org/cc/PublicDomain">
        <cc:permits rdf:resource="http://web.resource.org/cc/Reproduction"/>
        <cc:permits rdf:resource="http://web.resource.org/cc/Distribution"/>
        <cc:permits rdf:resource="http://web.resource.org/cc/DerivativeWorks"/>
      </cc:License>
    </rdf:RDF>
  </metadata>
  <sodipodi:namedview bordercolor="#666666" borderopacity="1.0" id="base" inkscape:current-layer="svg1" inkscape:cx="65.870001" inkscape:cy="65.870001" inkscape:pageopacity="0.0" inkscape:pageshadow="2" inkscape:window-height="1121" inkscape:window-width="1590" inkscape:window-x="0" inkscape:window-y="0" inkscape:zoom="7.1580384" pagecolor="#ffffff"/>
  <defs id="defs2">
    <marker id="ArrowEnd" markerHeight="3" markerUnits="strokeWidth" markerWidth="4" orient="auto" refX="0" refY="5" viewBox="0 0 10 10">
      <path d="M 0 0 L 10 5 L 0 10 z" id="path4"/>
    </marker>
    <marker id="ArrowStart" markerHeight="3" markerUnits="strokeWidth" markerWidth="4" orient="auto" refX="10" refY="5" viewBox="0 0 10 10">
      <path d="M 10 0 L 0 5 L 10 10 z" id="path6"/>
    </marker>
  </defs>
  <g id="g7">
    <path d="M 84.4626 153.222C 123.584 152.076 154.369 119.431 153.222 80.3101C 152.076 41.1891 119.431 10.4038 80.3103 11.5504C 41.1893 12.697 10.4039 45.3414 11.5506 84.4624C 12.6972 123.583 45.3416 154.369 84.4626 153.222z" id="path8" style="stroke:none; fill:#000000"/>
    <path d="M 84.2891 148.923C 121.063 147.846 150.001 117.16 148.923 80.386C 147.846 43.6122 117.16 14.6739 80.386 15.7517C 43.6121 16.8296 14.6738 47.5154 15.7517 84.2892C 16.8295 121.063 47.5153 150.001 84.2891 148.923z" id="path9" style="stroke:#ffffff; stroke-width:3; fill:#004cff"/>
  </g>
  <g id="g10">
    <path d="M 89.015700,45.666000 C 92.055110,48.505337 90.231233,54.092473 90.213900,58.112000 C 90.163333,69.838073 89.215334,80.885119 88.292000,92.639500 C 88.169834,94.194719 86.657336,95.784094 84.960200,96.489100 C 82.276836,97.603794 79.808374,96.430699 77.656600,95.311300 C 75.745874,94.317299 75.082868,89.703543 74.770213,87.742398 C 72.886368,75.925843 74.252252,67.348435 71.666400,55.338700 C 70.936152,51.947135 71.101959,47.839437 73.134400,45.106700 C 75.671859,41.694937 81.863303,38.984418 84.930700,41.849900 L 89.015700,45.666000 z " id="path11" sodipodi:nodetypes="csssssssss" style="stroke:none; fill:#ffffff"/>
    <path d="M 91.822000,108.22600 C 93.819224,112.18961 92.734473,116.09174 90.525700,119.44800 C 88.577873,122.40774 84.442649,122.95041 80.824000,122.55400 C 77.267549,122.16441 74.540979,118.72380 73.424100,115.86900 C 72.328579,113.06880 72.533425,110.22337 73.732000,107.62500 C 75.308025,104.20837 79.804902,101.92947 84.194800,102.56000 C 87.707002,103.06447 90.309124,105.22361 91.822000,108.22600 z " id="path12" sodipodi:nodetypes="cssssss" style="stroke:none; fill:#ffffff"/>
  </g>
</svg>
