<?xml version="1.0" encoding="UTF-8" standalone="no"?>
<!DOCTYPE svg PUBLIC "-//W3C//DTD SVG 20010904//EN"
"http://www.w3.org/TR/2001/REC-SVG-20010904/DTD/svg10.dtd">
<svg height="144.407" id="svg1183" inkscape:version="0.40" sodipodi:docbase="/mnt/donnees/09-Mes_images/Travaux/Travaux vectoriel/pictogrammes/sécu SVG/Avertissement" sodipodi:docname="RadiationsIonisantes.svg" sodipodi:version="0.32" width="156.262" xmlns="http://www.w3.org/2000/svg" xmlns:cc="http://web.resource.org/cc/" xmlns:dc="http://purl.org/dc/elements/1.1/" xmlns:inkscape="http://www.inkscape.org/namespaces/inkscape" xmlns:rdf="http://www.w3.org/1999/02/22-rdf-syntax-ns#" xmlns:sodipodi="http://sodipodi.sourceforge.net/DTD/sodipodi-0.dtd" xmlns:xlink="http://www.w3.org/1999/xlink">
  <metadata>
    <rdf:RDF xmlns:cc="http://web.resource.org/cc/" xmlns:dc="http://purl.org/dc/elements/1.1/" xmlns:rdf="http://www.w3.org/1999/02/22-rdf-syntax-ns#">
      <cc:Work rdf:about="">
        <dc:title>advertising</dc:title>
        <dc:description></dc:description>
        <dc:subject>
          <rdf:Bag>
            <rdf:li></rdf:li>
            <rdf:li>caution</rdf:li>
            <rdf:li>security</rdf:li>
            <rdf:li>warning</rdf:li>
            <rdf:li>signs_and_symbols</rdf:li>
            <rdf:li>sign</rdf:li>
          </rdf:Bag>
        </dc:subject>
        <dc:publisher>
          <cc:Agent rdf:about="http://www.openclipart.org">
            <dc:title>yves GUILLOU</dc:title>
          </cc:Agent>
        </dc:publisher>
        <dc:creator>
          <cc:Agent>
            <dc:title>yves GUILLOU</dc:title>
          </cc:Agent>
        </dc:creator>
        <dc:rights>
          <cc:Agent>
            <dc:title>yves GUILLOU</dc:title>
          </cc:Agent>
        </dc:rights>
        <dc:date></dc:date>
        <dc:format>image/svg+xml</dc:format>
        <dc:type rdf:resource="http://purl.org/dc/dcmitype/StillImage"/>
        <cc:license rdf:resource="http://web.resource.org/cc/PublicDomain"/>
        <dc:language>en</dc:language>
      </cc:Work>
      <cc:License rdf:about="http://web.resource.org/cc/PublicDomain">
        <cc:permits rdf:resource="http://web.resource.org/cc/Reproduction"/>
        <cc:permits rdf:resource="http://web.resource.org/cc/Distribution"/>
        <cc:permits rdf:resource="http://web.resource.org/cc/DerivativeWorks"/>
      </cc:License>
    </rdf:RDF>
  </metadata>
  <sodipodi:namedview bordercolor="#666666" borderopacity="1.0" id="base" inkscape:current-layer="svg1183" inkscape:cx="62.504797" inkscape:cy="57.762799" inkscape:pageopacity="0.0" inkscape:pageshadow="2" inkscape:window-height="1121" inkscape:window-width="1590" inkscape:window-x="0" inkscape:window-y="0" inkscape:zoom="8.1626931" pagecolor="#ffffff"/>
  <defs id="defs1184">
    <marker id="ArrowEnd" markerHeight="3" markerUnits="strokeWidth" markerWidth="4" orient="auto" refX="0" refY="5" viewBox="0 0 10 10">
      <path d="M 0 0 L 10 5 L 0 10 z" id="path1186"/>
    </marker>
    <marker id="ArrowStart" markerHeight="3" markerUnits="strokeWidth" markerWidth="4" orient="auto" refX="10" refY="5" viewBox="0 0 10 10">
      <path d="M 10 0 L 0 5 L 10 10 z" id="path1188"/>
    </marker>
  </defs>
  <g id="g1189">
    <path d="M 12.473000,121.08200 C 11.492258,122.80712 10.584805,124.49275 10.481700,126.42300 L 10.456227,126.89988 C 10.213224,131.44917 13.756600,133.92500 17.511300,133.92500 L 138.83100,133.92500 C 142.58600,133.92500 145.77789,130.50339 145.77789,126.33139 L 145.78000,125.81500 C 145.78000,123.88200 144.75508,122.20699 143.78900,120.47400 L 83.705600,12.693800 C 81.051000,9.7442300 76.747300,9.7442300 74.092300,12.694200 L 12.473000,121.08200 z " id="path1190" sodipodi:nodetypes="cssccccsccs" style="stroke:#000000; stroke-width:2; fill:#ffffff"/>
    <path d="M 78.703 16.2915L 15.2797 128.128L 76.4667 128.128L 79.3188 128.128L 139.826 128.128L 79.5155 16.2915L 78.703 16.2915z" id="path1191" style="stroke:#000000; stroke-width:4.8516000000000004; stroke-linejoin:round; stroke-linecap:round; fill:#ffcc00"/>
  </g>
  <g id="g1192">
    <path d="M 70.4551 90.4441C 70.4551 87.5135 72.0133 84.9467 74.3464 83.5271L 64.7705 65.8975C 56.1958 70.7202 50.4032 79.9058 50.4032 90.4441L 70.4551 90.4441z" id="path1193" style="stroke:none; fill:#000000"/>
    <path d="M 82.995 97.6768C 80.4565 99.1426 77.4542 99.0767 75.0577 97.7658L 64.5774 114.876C 73.0428 119.891 83.8956 120.315 93.0231 115.044L 82.995 97.6768z" id="path1194" style="stroke:none; fill:#000000"/>
    <path d="M 82.9038 82.5685C 85.4427 84.0341 86.8872 86.6676 86.9502 89.3986L 107.011 89.9187C 107.121 80.0788 102.06 70.4674 92.931 65.1977L 82.9038 82.5685z" id="path1195" style="stroke:none; fill:#000000"/>
    <path d="M 78.795 96.0728C 81.9035 96.0728 84.4236 93.5527 84.4236 90.4441C 84.4236 87.3356 81.9035 84.8155 78.795 84.8155C 75.6865 84.8155 73.1664 87.3356 73.1664 90.4441C 73.1664 93.5527 75.6865 96.0728 78.795 96.0728z" id="path1196" style="stroke:none; fill:#000000"/>
  </g>
</svg>
