<?xml version="1.0" encoding="UTF-8" standalone="no"?>
<!-- Created with Sodipodi ("http://www.sodipodi.com/") --><svg height="128.00000px" id="svg1777" inkscape:version="0.42" sodipodi:docbase="/home/nicu/Desktop/bryce_map_symbols" sodipodi:docname="trillium_0_symbol_1m_bwh.svg" sodipodi:version="0.32" width="128.00000px" xmlns="http://www.w3.org/2000/svg" xmlns:cc="http://web.resource.org/cc/" xmlns:dc="http://purl.org/dc/elements/1.1/" xmlns:inkscape="http://www.inkscape.org/namespaces/inkscape" xmlns:rdf="http://www.w3.org/1999/02/22-rdf-syntax-ns#" xmlns:sodipodi="http://inkscape.sourceforge.net/DTD/sodipodi-0.dtd" xmlns:svg="http://www.w3.org/2000/svg">
  <metadata>
    <rdf:RDF xmlns:cc="http://web.resource.org/cc/" xmlns:dc="http://purl.org/dc/elements/1.1/" xmlns:rdf="http://www.w3.org/1999/02/22-rdf-syntax-ns#">
      <cc:Work rdf:about="">
        <dc:title>Map Symbols</dc:title>
        <dc:description></dc:description>
        <dc:subject>
          <rdf:Bag>
            <rdf:li></rdf:li>
            <rdf:li>map_symbol</rdf:li>
            <rdf:li>signs_and_symbols</rdf:li>
            <rdf:li>sign</rdf:li>
          </rdf:Bag>
        </dc:subject>
        <dc:publisher>
          <cc:Agent rdf:about="http://www.openclipart.org">
            <dc:title>Bryce W. Harrington</dc:title>
          </cc:Agent>
        </dc:publisher>
        <dc:creator>
          <cc:Agent>
            <dc:title>Bryce W. Harrington</dc:title>
          </cc:Agent>
        </dc:creator>
        <dc:rights>
          <cc:Agent>
            <dc:title>Bryce W. Harrington</dc:title>
          </cc:Agent>
        </dc:rights>
        <dc:date></dc:date>
        <dc:format>image/svg+xml</dc:format>
        <dc:type rdf:resource="http://purl.org/dc/dcmitype/StillImage"/>
        <cc:license rdf:resource="http://web.resource.org/cc/PublicDomain"/>
        <dc:language>en</dc:language>
      </cc:Work>
      <cc:License rdf:about="http://web.resource.org/cc/PublicDomain">
        <cc:permits rdf:resource="http://web.resource.org/cc/Reproduction"/>
        <cc:permits rdf:resource="http://web.resource.org/cc/Distribution"/>
        <cc:permits rdf:resource="http://web.resource.org/cc/DerivativeWorks"/>
      </cc:License>
    </rdf:RDF>
  </metadata>
  <defs id="defs1779"/>
  <sodipodi:namedview id="base" inkscape:current-layer="svg1777" inkscape:cx="372.04724" inkscape:cy="327.69888" inkscape:window-height="512" inkscape:window-width="712" inkscape:window-x="0" inkscape:window-y="24" inkscape:zoom="0.34303779"/>
  <g id="g1086" style="fill:#000000;fill-opacity:0.49999997;stroke:none" transform="matrix(8.670890e-2,9.101550e-2,-9.101550e-2,8.670890e-2,26.56434,-15.95534)">
    <path d="M 660.63500,355.36600 C 654.11100,356.21700 643.16400,376.70500 643.96900,387.86700 C 645.38700,407.53900 665.50000,449.89800 667.30200,447.86700 C 669.08900,446.49000 683.75900,403.08700 682.30200,382.86600 C 681.53700,372.25400 666.88900,354.55000 660.63500,355.36600 z " id="path1087" sodipodi:nodetypes="cssss" style="font-size:12.000000px;fill:#2f7d31;fill-opacity:1.0000000;fill-rule:evenodd;stroke-width:1.0000000pt" transform="translate(2.500000,-111.6660)"/>
    <path d="M 660.63500,355.36600 C 654.11100,356.21700 643.16400,376.70500 643.96900,387.86700 C 645.38700,407.53900 665.50000,449.89800 667.30200,447.86700 C 669.08900,446.49000 683.75900,403.08700 682.30200,382.86600 C 681.53700,372.25400 666.88900,354.55000 660.63500,355.36600 z " id="path1088" sodipodi:nodetypes="cssss" style="font-size:12.000000px;fill:#2f7d31;fill-opacity:1.0000000;fill-rule:evenodd;stroke-width:1.0000000pt" transform="matrix(-0.500000,-0.866025,0.866025,-0.500000,688.5600,988.3900)"/>
    <path d="M 660.63500,355.36600 C 654.11100,356.21700 643.16400,376.70500 643.96900,387.86700 C 645.38700,407.53900 665.50000,449.89800 667.30200,447.86700 C 669.08900,446.49000 683.75900,403.08700 682.30200,382.86600 C 681.53700,372.25400 666.88900,354.55000 660.63500,355.36600 z " id="path1089" sodipodi:nodetypes="cssss" style="font-size:12.000000px;fill:#2f7d31;fill-opacity:1.0000000;fill-rule:evenodd;stroke-width:1.0000000pt" transform="matrix(-0.500000,0.866025,-0.866025,-0.500000,1299.170,-155.2010)"/>
    <path d="M 660.63500,355.36600 C 654.11100,356.21700 643.04800,376.71400 643.96900,387.86700 C 646.22000,405.03900 659.58800,406.94100 664.80200,406.20000 C 672.37100,405.27200 681.25900,402.25400 682.30200,382.86600 C 682.41700,372.22700 666.88900,354.55000 660.63500,355.36600 z " id="path1090" sodipodi:nodetypes="cssss" style="font-size:12.000000px;fill:#fbfff7;fill-opacity:1.0000000;fill-rule:evenodd;stroke:#005500;stroke-width:1.8333000;stroke-dasharray:none;stroke-opacity:1.0000000" transform="matrix(0.681829,0.000000,0.000000,0.681829,213.3720,-38.39770)"/>
    <path d="M 660.63500,355.36600 C 654.11100,356.21700 643.04800,376.71400 643.96900,387.86700 C 646.22000,405.03900 659.58800,406.94100 664.80200,406.20000 C 672.37100,405.27200 681.25900,402.25400 682.30200,382.86600 C 682.41700,372.22700 666.88900,354.55000 660.63500,355.36600 z " id="path1091" sodipodi:nodetypes="cssss" style="font-size:12.000000px;fill:#fbfff7;fill-opacity:1.0000000;fill-rule:evenodd;stroke:#005500;stroke-width:1.8333000;stroke-dasharray:none;stroke-opacity:1.0000000" transform="matrix(-0.340915,-0.590481,0.590481,-0.340915,649.1300,772.1600)"/>
    <path d="M 660.63500,355.36600 C 654.11100,356.21700 643.04800,376.71400 643.96900,387.86700 C 646.22000,405.03900 659.58800,406.94100 664.80200,406.20000 C 672.37100,405.27200 681.25900,402.25400 682.30200,382.86600 C 682.41700,372.22700 666.88900,354.55000 660.63500,355.36600 z " id="path1092" sodipodi:nodetypes="cssss" style="font-size:12.000000px;fill:#fbfff7;fill-opacity:1.0000000;fill-rule:evenodd;stroke:#005500;stroke-width:1.8333000;stroke-dasharray:none;stroke-opacity:1.0000000" transform="matrix(-0.340915,0.590481,-0.590481,-0.340915,1134.050,-10.97770)"/>
    <ellipse cx="49.606297" cy="132.94489" id="ellipse1093" rx="42.519684" ry="42.519684" sodipodi:cx="49.606297" sodipodi:cy="132.94489" sodipodi:rx="42.519684" sodipodi:ry="42.519684" style="font-size:12.000000px;fill:#ebd92c;fill-opacity:1.0000000;fill-rule:evenodd" transform="matrix(0.157252,0.000000,0.000000,0.157252,656.0240,219.5500)"/>
  </g>
</svg>
