<?xml version="1.0" encoding="UTF-8" standalone="no"?>
<!DOCTYPE svg PUBLIC "-//W3C//DTD SVG 1.0//EN"
"http://www.w3.org/TR/2001/REC-SVG-20010904/DTD/svg10.dtd">
<!-- Created with Inkscape (http://www.inkscape.org/) --><svg height="441.89000pt" id="svg1243" inkscape:version="0.39" sodipodi:docbase="/home/sergio/Documentos/Imagens/inkscape" sodipodi:docname="yang.svg" sodipodi:version="0.32" width="210mm" xmlns="http://www.w3.org/2000/svg" xmlns:cc="http://web.resource.org/cc/" xmlns:dc="http://purl.org/dc/elements/1.1/" xmlns:inkscape="http://www.inkscape.org/namespaces/inkscape" xmlns:rdf="http://www.w3.org/1999/02/22-rdf-syntax-ns#" xmlns:sodipodi="http://sodipodi.sourceforge.net/DTD/sodipodi-0.dtd" xmlns:xlink="http://www.w3.org/1999/xlink">
  <metadata>
    <rdf:RDF xmlns:cc="http://web.resource.org/cc/" xmlns:dc="http://purl.org/dc/elements/1.1/" xmlns:rdf="http://www.w3.org/1999/02/22-rdf-syntax-ns#">
      <cc:Work rdf:about="">
        <dc:title>yang</dc:title>
        <dc:description></dc:description>
        <dc:subject>
          <rdf:Bag>
            <rdf:li>yang</rdf:li>
            <rdf:li>yin-yang</rdf:li>
          </rdf:Bag>
        </dc:subject>
        <dc:publisher>
          <cc:Agent rdf:about="http://www.openclipart.org">
            <dc:title>Open Clip Art Library</dc:title>
          </cc:Agent>
        </dc:publisher>
        <dc:creator>
          <cc:Agent>
            <dc:title>Sérgio Luiz Araújo Silva</dc:title>
          </cc:Agent>
        </dc:creator>
        <dc:rights>
          <cc:Agent>
            <dc:title>Sérgio Luiz Araújo Silva</dc:title>
          </cc:Agent>
        </dc:rights>
        <dc:date></dc:date>
        <dc:format>image/svg+xml</dc:format>
        <dc:type rdf:resource="http://purl.org/dc/dcmitype/StillImage"/>
        <cc:license rdf:resource="http://web.resource.org/cc/PublicDomain"/>
        <dc:language>en</dc:language>
      </cc:Work>
      <cc:License rdf:about="http://web.resource.org/cc/PublicDomain">
        <cc:permits rdf:resource="http://web.resource.org/cc/Reproduction"/>
        <cc:permits rdf:resource="http://web.resource.org/cc/Distribution"/>
        <cc:permits rdf:resource="http://web.resource.org/cc/DerivativeWorks"/>
      </cc:License>
    </rdf:RDF>
  </metadata>
  <defs id="defs1245">
    <linearGradient gradientUnits="userSpaceOnUse" id="XMLID_6_" x1="128.9995" x2="128.9995" y1="11" y2="245.0005">
      <stop id="stop5111" offset="0.0000000" style="stop-color:#ffffff;stop-opacity:0.0000000;"/>
      <stop id="stop5112" offset="1.0000000" style="stop-color:#ffffff;stop-opacity:1.0000000;"/>
    </linearGradient>
    <linearGradient id="linearGradient5012" inkscape:collect="always" x1="0.38793105" x2="0.40517241" xlink:href="#XMLID_6_" y1="0.84375000" y2="0.093750000"/>
  </defs>
  <sodipodi:namedview bordercolor="#666666" borderopacity="1.0" id="base" inkscape:cx="305.25953" inkscape:cy="233.58491" inkscape:pageopacity="0.0" inkscape:pageshadow="2" inkscape:window-height="697" inkscape:window-width="1018" inkscape:window-x="0" inkscape:window-y="0" inkscape:zoom="0.43415836" pagecolor="#ffffff"/>
  <g id="g10113" transform="matrix(8.103386,0.000000,0.000000,8.103386,-716.6105,-60.70193)">
    <path d="M 128.28807,23.268836 L 128.42062,23.519713 C 119.20041,26.577249 114.19999,36.502183 117.25751,45.722392 C 120.31504,54.942598 130.28116,59.943056 139.50138,56.885519 C 144.37654,55.268855 147.89952,52.095930 150.00545,47.411279 L 150.10055,47.511629 C 147.90576,52.393927 144.87058,56.024494 139.78971,57.709366 C 130.12529,60.914209 119.63848,55.675155 116.43366,46.010738 C 113.22884,36.346318 118.62366,26.473680 128.28807,23.268836 z " id="path5641" sodipodi:nodetypes="ccccccccc" style="fill:#c0bebd;fill-opacity:1.0000000;fill-rule:evenodd;stroke:none;stroke-width:0.22803362;stroke-linecap:round;stroke-linejoin:round;stroke-miterlimit:4.0000000;stroke-opacity:1.0000000;"/>
    <path d="M 134.20716,22.637043 C 124.51475,22.637043 116.64870,30.503094 116.64870,40.195514 C 116.64870,49.278521 123.58880,56.678479 132.43423,57.583098 C 128.42320,56.769630 125.40657,53.248851 125.40657,48.996109 C 125.40657,48.835162 125.44075,48.685009 125.44929,48.526173 L 125.44929,48.483452 L 125.44929,48.462091 C 125.71428,44.121945 129.11155,40.671414 133.41682,40.280957 L 133.43819,40.259596 L 133.69450,40.238235 C 133.86744,40.228095 134.03172,40.195514 134.20716,40.195514 C 139.06745,40.195512 143.00776,36.233836 143.00776,31.373557 C 143.00776,26.513276 139.06745,22.637041 134.20716,22.637043 z M 125.40657,48.996109 L 125.49201,49.081551 L 125.49201,48.910666 L 125.40657,48.996109 z " id="path28665" style="fill:#00d6d7;fill-opacity:1.0000000;fill-rule:evenodd;stroke:#000000;stroke-width:0.38558561;stroke-linecap:butt;stroke-linejoin:miter;stroke-miterlimit:4.0000000;stroke-opacity:1.0000000;"/>
    <path d="M 134.12779,57.735351 C 143.82020,57.735351 151.68626,49.869298 151.68626,40.176883 C 151.68626,31.093874 144.74615,23.693916 135.90072,22.789297 C 139.91174,23.602765 142.92839,27.123544 142.92839,31.376287 C 142.92839,31.537234 142.89420,31.687387 142.88566,31.846222 L 142.88566,31.888943 L 142.88566,31.910304 C 142.62067,36.250450 139.22340,39.700981 134.91813,40.091440 L 134.89678,40.112801 L 134.64044,40.134161 C 134.46751,40.144298 134.30323,40.176883 134.12779,40.176883 C 129.26749,40.176883 125.32719,44.138556 125.32719,48.998836 C 125.32719,53.859117 129.26749,57.735351 134.12779,57.735351 z " id="path29912" sodipodi:nodetypes="ccccccccccccc" style="fill:#000000;fill-opacity:1.0000000;fill-rule:evenodd;stroke:#000000;stroke-width:0.54190403;stroke-linecap:butt;stroke-linejoin:miter;stroke-miterlimit:4.0000000;stroke-opacity:1.0000000;"/>
    <g id="g31162" style="stroke-width:0.017210083;stroke-miterlimit:4.0000000;" transform="matrix(1.211061,0.000000,0.000000,1.211061,-78.61143,-30.79166)">
      <path d="M 177.24175 38.828281 A 2.8373814 2.8373814 0 1 0 171.56699,38.828281 A 2.8373814 2.8373814 0 1 0 177.24175 38.828281 z" id="path29915" sodipodi:cx="174.40437" sodipodi:cy="38.828281" sodipodi:rx="2.8373814" sodipodi:ry="2.8373814" sodipodi:type="arc" style="fill:#000000;fill-opacity:1.0000000;fill-rule:evenodd;stroke:#000000;stroke-linecap:butt;stroke-linejoin:miter;stroke-opacity:1.0000000;" transform="translate(1.986167,12.29532)"/>
      <path d="M 177.24175 38.828281 A 2.8373814 2.8373814 0 1 0 171.56699,38.828281 A 2.8373814 2.8373814 0 1 0 177.24175 38.828281 z" id="path31158" sodipodi:cx="174.40437" sodipodi:cy="38.828281" sodipodi:rx="2.8373814" sodipodi:ry="2.8373814" sodipodi:type="arc" style="fill:#00d6d7;fill-opacity:1.0000000;fill-rule:evenodd;stroke:#000000;stroke-linecap:butt;stroke-linejoin:miter;stroke-opacity:1.0000000;" transform="translate(1.986167,26.86054)"/>
    </g>
    <path d="M 157.04265 45.966156 A 8.1636400 4.5114856 0 1 0 140.71537,45.966156 A 8.1636400 4.5114856 0 1 0 157.04265 45.966156 z" id="path3769" sodipodi:cx="148.87901" sodipodi:cy="45.966156" sodipodi:rx="8.1636400" sodipodi:ry="4.5114856" sodipodi:type="arc" style="fill:url(#linearGradient5012);fill-opacity:1.0000000;fill-rule:evenodd;stroke:none;stroke-width:1.0000000pt;stroke-linecap:butt;stroke-linejoin:miter;stroke-opacity:1.0000000;" transform="matrix(1.560147,4.764311e-2,-1.943625e-2,1.882647,-96.93137,-62.10998)"/>
  </g>
</svg>
