<?xml version="1.0" encoding="UTF-8" standalone="no"?>
<!-- Created with Inkscape (http://www.inkscape.org/) --><svg height="160.00000px" id="svg19658" inkscape:version="0.42" sodipodi:docbase="/home/gigaclon/Desktop" sodipodi:docname="greedy_caterpillar_David_Wilson.svg" sodipodi:version="0.32" width="125.00000px" xmlns="http://www.w3.org/2000/svg" xmlns:cc="http://web.resource.org/cc/" xmlns:dc="http://purl.org/dc/elements/1.1/" xmlns:inkscape="http://www.inkscape.org/namespaces/inkscape" xmlns:rdf="http://www.w3.org/1999/02/22-rdf-syntax-ns#" xmlns:sodipodi="http://inkscape.sourceforge.net/DTD/sodipodi-0.dtd" xmlns:svg="http://www.w3.org/2000/svg" xmlns:xlink="http://www.w3.org/1999/xlink">
  <metadata>
    <rdf:RDF xmlns:cc="http://web.resource.org/cc/" xmlns:dc="http://purl.org/dc/elements/1.1/" xmlns:rdf="http://www.w3.org/1999/02/22-rdf-syntax-ns#">
      <cc:Work rdf:about="">
        <dc:title>caterpillar</dc:title>
        <dc:description></dc:description>
        <dc:subject>
          <rdf:Bag>
            <rdf:li>caterpillar greed hungry</rdf:li>
            <rdf:li>insect</rdf:li>
          </rdf:Bag>
        </dc:subject>
        <dc:publisher>
          <cc:Agent rdf:about="http://www.openclipart.org/">
            <dc:title>Open Clip Art Library</dc:title>
          </cc:Agent>
        </dc:publisher>
        <dc:creator>
          <cc:Agent>
            <dc:title>David Wislon</dc:title>
          </cc:Agent>
        </dc:creator>
        <dc:rights>
          <cc:Agent>
            <dc:title>David Wislon</dc:title>
          </cc:Agent>
        </dc:rights>
        <dc:date>07-28-05</dc:date>
        <dc:format>image/svg+xml</dc:format>
        <dc:type rdf:resource="http://purl.org/dc/dcmitype/StillImage"/>
        <cc:license rdf:resource="http://web.resource.org/cc/PublicDomain"/>
        <dc:language>en</dc:language>
      </cc:Work>
      <cc:License rdf:about="http://web.resource.org/cc/PublicDomain">
        <cc:permits rdf:resource="http://web.resource.org/cc/Reproduction"/>
        <cc:permits rdf:resource="http://web.resource.org/cc/Distribution"/>
        <cc:permits rdf:resource="http://web.resource.org/cc/DerivativeWorks"/>
      </cc:License>
    </rdf:RDF>
  </metadata>
  <defs id="defs19660">
    <linearGradient gradientUnits="userSpaceOnUse" id="linearGradient10363" inkscape:collect="always" x1="290.64609" x2="306.71954" xlink:href="#linearGradient7360" y1="241.63512" y2="230.14464"/>
    <linearGradient id="linearGradient7360">
      <stop id="stop7362" offset="0" style="stop-color:#ffffff;stop-opacity:1;"/>
      <stop id="stop7364" offset="1.0000000" style="stop-color:#a8a8a8;stop-opacity:1.0000000;"/>
    </linearGradient>
    <linearGradient gradientUnits="userSpaceOnUse" id="linearGradient10361" inkscape:collect="always" x1="283.25943" x2="275.12772" xlink:href="#linearGradient7360" y1="241.34196" y2="225.27669"/>
    <linearGradient id="linearGradient4376">
      <stop id="stop4378" offset="0" style="stop-color:#000000;stop-opacity:1;"/>
      <stop id="stop4380" offset="1.0000000" style="stop-color:#ff0000;stop-opacity:1.0000000;"/>
    </linearGradient>
    <linearGradient gradientUnits="userSpaceOnUse" id="linearGradient10359" inkscape:collect="always" x1="274.03421" x2="304.82425" xlink:href="#linearGradient4376" y1="262.48395" y2="262.48395"/>
    <linearGradient gradientUnits="userSpaceOnUse" id="linearGradient10357" inkscape:collect="always" x1="249.96223" x2="232.49167" xlink:href="#linearGradient2127" y1="224.19424" y2="219.24451"/>
    <linearGradient gradientUnits="userSpaceOnUse" id="linearGradient10355" inkscape:collect="always" x1="347.26254" x2="337.24997" xlink:href="#linearGradient2127" y1="231.35156" y2="228.52312"/>
    <linearGradient id="linearGradient2127">
      <stop id="stop2129" offset="0" style="stop-color:#000000;stop-opacity:1;"/>
      <stop id="stop2131" offset="1.0000000" style="stop-color:#d3d3d3;stop-opacity:1.0000000;"/>
    </linearGradient>
    <linearGradient gradientUnits="userSpaceOnUse" id="linearGradient10353" inkscape:collect="always" x1="341.50824" x2="333.56128" xlink:href="#linearGradient2127" y1="264.37149" y2="262.07339"/>
    <linearGradient gradientUnits="userSpaceOnUse" id="linearGradient10351" inkscape:collect="always" x1="259.63812" x2="323.68542" xlink:href="#linearGradient2104" y1="237.51523" y2="255.90001"/>
    <linearGradient gradientUnits="userSpaceOnUse" id="linearGradient10349" inkscape:collect="always" x1="228.50262" x2="240.92722" xlink:href="#linearGradient2104" y1="238.93217" y2="238.93217"/>
    <linearGradient gradientUnits="userSpaceOnUse" id="linearGradient10347" inkscape:collect="always" x1="346.67142" x2="332.51181" xlink:href="#linearGradient2104" y1="270.24658" y2="270.24658"/>
    <radialGradient cx="276.95752" cy="293.55002" fx="276.95752" fy="293.55002" gradientTransform="matrix(1.054104,-0.562252,0.329986,0.618654,-111.8517,261.4639)" gradientUnits="userSpaceOnUse" id="radialGradient10345" inkscape:collect="always" r="49.551838" xlink:href="#linearGradient2104"/>
    <linearGradient gradientTransform="translate(0.000000,1.414214)" gradientUnits="userSpaceOnUse" id="linearGradient10343" inkscape:collect="always" x1="333.25266" x2="348.80426" xlink:href="#linearGradient2104" y1="312.13528" y2="312.13528"/>
    <linearGradient gradientUnits="userSpaceOnUse" id="linearGradient10341" inkscape:collect="always" x1="328.63284" x2="338.30286" xlink:href="#linearGradient2104" y1="315.28717" y2="315.28717"/>
    <linearGradient gradientUnits="userSpaceOnUse" id="linearGradient10339" inkscape:collect="always" x1="323.00134" x2="334.29147" xlink:href="#linearGradient2104" y1="319.72192" y2="319.72192"/>
    <linearGradient gradientUnits="userSpaceOnUse" id="linearGradient10337" inkscape:collect="always" x1="314.11377" x2="327.91568" xlink:href="#linearGradient2104" y1="324.59583" y2="324.59583"/>
    <linearGradient gradientUnits="userSpaceOnUse" id="linearGradient10335" inkscape:collect="always" x1="302.29324" x2="320.33954" xlink:href="#linearGradient2104" y1="327.63245" y2="327.63245"/>
    <linearGradient gradientUnits="userSpaceOnUse" id="linearGradient10333" inkscape:collect="always" x1="289.31516" x2="312.38718" xlink:href="#linearGradient2104" y1="329.93753" y2="329.93753"/>
    <linearGradient gradientUnits="userSpaceOnUse" id="linearGradient10331" inkscape:collect="always" x1="270.87234" x2="305.94702" xlink:href="#linearGradient2104" y1="331.63373" y2="331.63373"/>
    <linearGradient gradientUnits="userSpaceOnUse" id="linearGradient10329" inkscape:collect="always" x1="253.55338" x2="303.04095" xlink:href="#linearGradient2104" y1="327.46893" y2="327.46893"/>
    <linearGradient gradientUnits="userSpaceOnUse" id="linearGradient10327" inkscape:collect="always" x1="243.78221" x2="302.28333" xlink:href="#linearGradient2104" y1="320.77078" y2="320.77078"/>
    <linearGradient id="linearGradient2104">
      <stop id="stop2106" offset="0.0000000" style="stop-color:#00ff00;stop-opacity:1.0000000;"/>
      <stop id="stop2108" offset="1.0000000" style="stop-color:#000000;stop-opacity:1.0000000;"/>
    </linearGradient>
    <linearGradient gradientUnits="userSpaceOnUse" id="linearGradient10325" inkscape:collect="always" x1="241.14619" x2="303.83005" xlink:href="#linearGradient2104" y1="311.81519" y2="311.81519"/>
  </defs>
  <sodipodi:namedview bordercolor="#666666" borderopacity="1.0" id="base" inkscape:current-layer="layer1" inkscape:cx="375.00000" inkscape:cy="177.14286" inkscape:document-units="px" inkscape:pageopacity="0.0" inkscape:pageshadow="2" inkscape:window-height="513" inkscape:window-width="753" inkscape:window-x="5" inkscape:window-y="50" inkscape:zoom="0.35000000" pagecolor="#ffffff"/>
  <g id="layer1" inkscape:groupmode="layer" inkscape:label="Layer 1">
    <g id="g10292" transform="translate(-225.1855,-189.6282)">
      <path d="M 249.76022,298.86975 C 265.10796,297.01728 281.97325,297.83093 297.49600,298.73098 C 302.65198,299.02994 301.35630,307.82092 297.35701,311.19680 C 283.93700,322.52491 264.49436,329.01667 248.10692,322.28106 C 240.39750,319.11232 243.41817,309.08838 247.34108,301.72894 C 248.37347,299.79217 248.55115,299.01569 249.76022,298.86975 z " id="path1324" sodipodi:nodetypes="csssss" style="fill:url(#linearGradient10325);fill-opacity:1.0000000;fill-rule:evenodd;stroke:#000000;stroke-width:1.0000000px;stroke-linecap:butt;stroke-linejoin:miter;stroke-opacity:1.0000000"/>
      <path d="M 246.22469,318.56772 C 239.76577,321.49152 248.24519,335.19632 256.55751,335.42822 C 270.15564,335.80759 283.18370,330.15664 293.97425,322.34483 C 298.97401,318.72526 294.60433,310.75524 289.41795,314.69545 C 284.04467,318.77765 277.20647,320.84792 270.35916,321.20200 C 262.21617,321.62309 252.42515,315.76092 246.22469,318.56772 z " id="path1326" sodipodi:nodetypes="csssss" style="fill:url(#linearGradient10327);fill-opacity:1.0000000;fill-rule:evenodd;stroke:#000000;stroke-width:1.0000000px;stroke-linecap:butt;stroke-linejoin:miter;stroke-opacity:1.0000000"/>
      <path d="M 254.81097,333.46747 C 250.42694,335.03991 259.18287,343.23627 264.74511,343.55469 C 277.98680,344.31272 290.38802,336.67643 298.35126,326.58235 C 301.93912,322.03444 298.09268,314.80734 293.07640,318.30615 C 281.82249,326.15565 265.84114,329.51124 254.81097,333.46747 z " id="path1328" sodipodi:nodetypes="cssss" style="fill:url(#linearGradient10329);fill-opacity:1.0000000;fill-rule:evenodd;stroke:#000000;stroke-width:1.0000000px;stroke-linecap:butt;stroke-linejoin:miter;stroke-opacity:1.0000000"/>
      <path d="M 271.60477,340.66479 C 268.15540,343.22574 277.28551,349.55457 282.48829,348.21044 C 293.56395,345.34907 305.99210,335.57420 304.58776,324.84108 C 303.94113,319.89897 294.63239,323.47108 293.12141,328.46895 C 290.56572,336.92241 276.90115,336.73254 271.60477,340.66479 z " id="path1330" sodipodi:nodetypes="cssss" style="fill:url(#linearGradient10331);fill-opacity:1.0000000;fill-rule:evenodd;stroke:#000000;stroke-width:1.0000000px;stroke-linecap:butt;stroke-linejoin:miter;stroke-opacity:1.0000000"/>
      <path d="M 289.91379,344.70541 C 289.63753,348.83621 303.30256,344.91829 306.08815,338.82935 C 309.04169,332.37329 314.21858,324.55261 311.67838,318.35414 C 309.77861,313.71841 301.07004,318.85707 301.25545,324.20116 C 301.53388,332.22642 290.23826,339.85389 289.91379,344.70541 z " id="path1332" sodipodi:nodetypes="cssss" style="fill:url(#linearGradient10333);fill-opacity:1.0000000;fill-rule:evenodd;stroke:#000000;stroke-width:1.0000000px;stroke-linecap:butt;stroke-linejoin:miter;stroke-opacity:1.0000000"/>
      <path d="M 302.79324,341.80124 C 306.18636,346.17795 318.87647,335.97654 319.67953,327.56652 C 320.15228,322.61569 320.00519,315.65859 315.19949,314.34040 C 310.19869,312.96869 306.52742,320.18650 307.73778,325.29659 C 309.08131,330.96888 300.54874,338.90610 302.79324,341.80124 z " id="path1336" sodipodi:nodetypes="cssss" style="fill:url(#linearGradient10335);fill-opacity:1.0000000;fill-rule:evenodd;stroke:#000000;stroke-width:1.0000000px;stroke-linecap:butt;stroke-linejoin:miter;stroke-opacity:1.0000000"/>
      <path d="M 314.66251,338.77078 C 316.08732,340.43833 325.64928,333.37887 327.28084,328.23722 C 328.80442,323.43587 327.09751,317.15726 324.66417,313.06260 C 321.96309,308.51742 313.43774,316.03366 316.44564,320.86514 C 319.90777,326.42624 313.13181,336.97929 314.66251,338.77078 z " id="path1338" sodipodi:nodetypes="cssss" style="fill:url(#linearGradient10337);fill-opacity:1.0000000;fill-rule:evenodd;stroke:#000000;stroke-width:1.0000000px;stroke-linecap:butt;stroke-linejoin:miter;stroke-opacity:1.0000000"/>
      <path d="M 325.14285,332.20477 C 327.73831,334.53643 332.66592,324.13572 333.36433,318.75410 C 334.02082,313.69551 326.91371,309.44525 324.97756,314.54076 C 322.80293,320.26391 322.54192,329.86820 325.14285,332.20477 z " id="path1344" sodipodi:nodetypes="csss" style="fill:url(#linearGradient10339);fill-opacity:1.0000000;fill-rule:evenodd;stroke:#000000;stroke-width:1.0000000px;stroke-linecap:butt;stroke-linejoin:miter;stroke-opacity:1.0000000"/>
      <path d="M 331.83511,325.63879 C 335.00046,325.03225 341.65064,314.83534 338.78851,310.02703 C 336.10929,305.52601 327.88471,313.97098 331.67489,318.15898 C 333.53567,320.21507 330.53657,325.88762 331.83511,325.63879 z " id="path1346" sodipodi:nodetypes="csss" style="fill:url(#linearGradient10341);fill-opacity:1.0000000;fill-rule:evenodd;stroke:#000000;stroke-width:1.0000000px;stroke-linecap:butt;stroke-linejoin:miter;stroke-opacity:1.0000000"/>
      <path d="M 337.01215,317.33029 C 340.44363,321.85753 348.83051,319.63061 348.18506,313.82210 C 347.57793,308.35845 340.82448,303.91885 336.21710,306.86749 C 332.76638,309.07588 334.68462,314.25952 337.01215,317.33029 z " id="path1348" sodipodi:nodetypes="csss" style="fill:url(#linearGradient10343);fill-opacity:1.0000000;fill-rule:evenodd;stroke:#000000;stroke-width:1.0000000px;stroke-linecap:butt;stroke-linejoin:miter;stroke-opacity:1.0000000"/>
      <path d="M 294.15643,303.21341 C 301.99744,299.67952 307.45236,291.68651 315.47673,287.74498 C 322.35163,284.36806 329.22159,279.60644 333.03480,272.91884 C 335.63928,268.35112 337.23022,259.94188 332.70375,257.12756 C 327.50583,253.89576 328.97846,263.66220 328.44801,267.04868 C 327.50325,273.08017 319.60986,274.62979 316.62842,279.75881 C 314.14907,284.02409 307.80948,288.25162 304.90119,281.72685 C 303.11813,277.72653 298.07029,281.37914 294.50669,281.01414 C 290.75518,280.62990 286.61607,281.69721 283.08713,280.42415 C 277.20741,278.30305 270.68009,276.18493 266.71545,270.87639 C 263.21276,266.18639 253.99987,270.19245 257.12769,276.04602 C 258.63691,278.87047 255.90477,286.02243 253.40677,280.87707 C 250.84320,275.59666 246.40919,271.47283 244.16437,265.93229 C 242.11977,260.88592 241.15219,255.16171 243.90034,250.19953 C 246.47883,245.54371 250.18980,239.77405 248.43260,234.81703 C 246.45955,229.25107 239.77246,236.33591 238.12451,240.05503 C 235.50071,245.97649 237.89806,252.12642 238.46109,258.05547 C 239.36336,267.55688 243.08658,276.55261 245.01250,285.88929 C 246.07807,291.05511 248.49444,295.91767 253.28360,298.99576 C 258.85830,302.57873 265.46295,302.40377 271.45071,304.47720 C 276.41194,306.19516 281.86387,306.04384 286.89204,304.37423 C 289.21637,303.60244 291.96247,304.20221 294.15643,303.21341 z " id="path13448" sodipodi:nodetypes="csssssssssssssssssssss" style="fill:url(#radialGradient10345);fill-opacity:1.0000000;fill-rule:evenodd;stroke:#000000;stroke-width:1.0000000px;stroke-linecap:butt;stroke-linejoin:miter;stroke-opacity:1.0000000"/>
      <path d="M 339.05771,264.67609 C 336.76359,264.61599 334.43504,265.09608 332.41065,266.11683 C 329.59682,267.53563 329.47079,272.08743 331.94349,274.05207 C 335.03979,276.51218 339.74016,276.36427 342.79582,273.92987 C 344.03596,272.94186 345.41032,271.91461 346.03022,270.47128 C 346.60791,269.12625 345.28306,267.77220 344.17831,266.97268 C 342.65612,265.87105 340.99505,264.72685 339.05771,264.67609 z " id="path13456" sodipodi:nodetypes="cssssss" style="fill:url(#linearGradient10347);fill-opacity:1.0000000;fill-rule:evenodd;stroke:#000000;stroke-width:1.0000000px;stroke-linecap:butt;stroke-linejoin:miter;stroke-opacity:1.0000000"/>
      <path d="M 234.40590,231.79562 C 232.28441,230.80661 229.68093,232.49715 229.20351,234.73304 C 228.71089,237.04011 229.42151,239.33913 230.13302,241.49726 C 230.63986,243.03461 231.83845,244.24684 233.24594,245.05092 C 234.46097,245.74505 235.76792,246.45780 237.21428,246.29996 C 238.08897,246.20450 239.17685,246.49996 239.84533,245.77451 C 240.55671,245.00251 240.42405,243.85493 240.14245,242.89333 C 239.64992,241.21144 239.86133,239.36973 239.71090,237.62693 C 239.54813,235.74124 237.98298,234.23766 236.60116,232.99765 C 235.97901,232.43935 235.16129,232.14777 234.40590,231.79562 z " id="path13458" sodipodi:nodetypes="csssssssss" style="fill:url(#linearGradient10349);fill-opacity:1.0000000;fill-rule:evenodd;stroke:#000000;stroke-width:1.0000000px;stroke-linecap:butt;stroke-linejoin:miter;stroke-opacity:1.0000000"/>
      <path d="M 266.22571,271.74716 C 266.36267,264.67790 260.63853,259.44173 260.28464,252.43637 C 259.89520,244.72728 260.19769,236.83999 262.22720,229.48503 C 264.13403,222.57463 269.41522,217.04693 274.17262,211.78703 C 277.27933,208.35217 282.79517,207.53737 286.66294,210.17925 C 289.83931,212.34887 293.48520,213.24176 297.17966,211.38337 C 301.65440,209.13249 306.38957,212.40640 310.35696,214.65275 C 314.14026,216.79487 318.76132,216.44169 322.24419,219.23980 C 326.18612,222.40671 327.85231,227.50342 327.33690,232.54924 C 326.62791,239.49028 326.59580,246.84442 322.68754,253.02697 C 317.16857,261.75753 313.77889,272.32830 305.26507,278.84324 C 300.66242,282.36528 295.12583,284.56820 289.28959,284.44189 C 282.94674,284.30462 276.15861,283.44705 270.89881,279.76341 C 268.31788,277.95589 266.16337,274.96476 266.22571,271.74716 z " id="path16464" sodipodi:nodetypes="csssssssssssss" style="fill:url(#linearGradient10351);fill-opacity:1.0000000;fill-rule:evenodd;stroke:#000000;stroke-width:1.0000000px;stroke-linecap:butt;stroke-linejoin:miter;stroke-opacity:1.0000000"/>
      <path d="M 288.85312,211.64308 C 289.78478,212.42303 290.95157,212.97040 291.62381,214.02303 C 292.19184,214.95377 292.83047,215.87255 293.09576,216.94638" id="path17209" style="fill:none;fill-opacity:0.75000000;fill-rule:evenodd;stroke:#000000;stroke-width:1.0000000px;stroke-linecap:butt;stroke-linejoin:miter;stroke-opacity:1.0000000"/>
      <path d="M 312.18765,215.53217 C 312.33811,215.88602 309.85718,216.95093 309.17917,217.64708 C 308.42552,218.31448 306.45789,219.49438 306.35401,219.59803" id="path17211" sodipodi:nodetypes="ccc" style="fill:none;fill-opacity:0.75000000;fill-rule:evenodd;stroke:#000000;stroke-width:1.0000000px;stroke-linecap:butt;stroke-linejoin:miter;stroke-opacity:1.0000000"/>
      <path d="M 310.24310,223.48712 C 310.71567,223.84946 313.72485,223.42596 315.10711,224.23130 C 316.19901,224.86747 317.26205,227.97109 317.33377,228.86365" id="path17213" sodipodi:nodetypes="css" style="fill:none;fill-opacity:0.75000000;fill-rule:evenodd;stroke:#000000;stroke-width:1.0000000px;stroke-linecap:butt;stroke-linejoin:miter;stroke-opacity:1.0000000"/>
      <path d="M 276.47876,218.18382 C 276.91771,218.57547 281.04701,215.45976 282.95585,215.58838 C 284.25298,215.67579 286.83559,218.08953 287.26212,218.18382" id="path17215" sodipodi:nodetypes="csc" style="fill:none;fill-opacity:0.75000000;fill-rule:evenodd;stroke:#000000;stroke-width:1.0000000px;stroke-linecap:butt;stroke-linejoin:miter;stroke-opacity:1.0000000"/>
      <path d="M 337.99998,247.46950 L 344.37498,247.59450 L 334.99999,288.34450 L 328.74999,286.09450 L 337.99998,247.46950 z " id="path1383" style="fill:url(#linearGradient10353);fill-opacity:1.0000000;fill-rule:evenodd;stroke:#000000;stroke-width:1.0000000px;stroke-linecap:butt;stroke-linejoin:miter;stroke-opacity:1.0000000"/>
      <path d="M 337.74998,247.46950 L 343.37498,211.34451 C 343.54165,211.46951 347.49449,215.69754 347.62498,216.21951 C 347.74291,216.69121 347.62498,217.35513 347.62498,217.84451 L 344.99998,219.71951 L 347.99998,222.71951 L 345.24998,224.96951 L 347.37498,227.59451 L 344.62498,229.59451 L 347.12498,232.09451 L 344.37498,234.59451 L 346.62498,236.84451 L 343.87498,239.09450 L 345.74998,241.34450 L 343.12498,244.09450 L 344.49998,247.46950" id="path1387" sodipodi:nodetypes="ccsccccccccccccc" style="fill:url(#linearGradient10355);fill-opacity:1.0000000;fill-rule:evenodd;stroke:#000000;stroke-width:1.0000000px;stroke-linecap:butt;stroke-linejoin:miter;stroke-opacity:1.0000000"/>
      <path d="M 227.86514,257.60504 C 230.17172,260.70461 235.54218,261.80375 235.51572,256.44627 C 235.86206,251.93192 241.97753,225.36979 244.23388,221.84573 C 247.97787,221.79397 251.76616,218.15511 253.15608,215.38880 C 254.61777,209.01995 256.03150,202.62628 257.56363,196.26353 C 255.08876,200.91866 252.61388,205.57378 250.13901,210.22890 C 245.13373,211.94514 248.31916,205.95554 248.77356,203.54040 C 249.68991,200.34578 250.66060,197.16687 251.55322,193.96542 C 248.84264,198.97410 246.13207,203.98278 243.42149,208.99146 C 238.76454,211.06812 241.80093,204.79565 241.64363,202.43668 C 242.06707,199.20143 242.44271,195.95998 242.89117,192.72800 C 240.74335,198.23970 238.02314,203.57503 236.25302,209.20462 C 236.13015,212.78807 236.81069,216.46322 238.47055,219.63372 C 236.72543,222.97126 228.14645,256.40254 227.86514,257.60504 z " id="path1391" sodipodi:nodetypes="cccccccccccccc" style="fill:url(#linearGradient10357);fill-opacity:1.0000000;fill-rule:evenodd;stroke:#000000;stroke-width:1.0000000px;stroke-linecap:butt;stroke-linejoin:miter;stroke-opacity:1.0000000"/>
      <path d="M 280.03646,260.54293 C 278.50654,259.08928 277.11330,257.50849 275.93564,255.74623 M 276.30196,255.13017 L 272.41288,261.67090 L 281.95882,260.25669" id="path3627" style="fill:#ffffff;fill-opacity:1.0000000;fill-rule:evenodd;stroke:#000000;stroke-width:1.0000000px;stroke-linecap:butt;stroke-linejoin:miter;stroke-opacity:1.0000000"/>
      <path d="M 286.04687,265.31590 C 284.51695,263.86225 283.12371,262.28146 281.94605,260.51920 M 282.31237,259.90314 L 278.42329,266.44387 L 287.96923,265.02966" id="path3646" style="fill:#ffffff;fill-opacity:1.0000000;fill-rule:evenodd;stroke:#000000;stroke-width:1.0000000px;stroke-linecap:butt;stroke-linejoin:miter;stroke-opacity:1.0000000"/>
      <path d="M 303.59524,255.54240 C 303.31146,257.63363 302.84460,259.68839 302.10445,261.67450 M 301.39051,261.73786 L 308.97031,261.06507 L 302.23839,254.15087" id="path3648" style="fill:#ffffff;fill-opacity:1.0000000;fill-rule:evenodd;stroke:#000000;stroke-width:1.0000000px;stroke-linecap:butt;stroke-linejoin:miter;stroke-opacity:1.0000000"/>
      <path d="M 303.06491,262.25991 C 302.78113,264.35114 302.31427,266.40590 301.57412,268.39201 M 300.86018,268.45537 L 308.43998,267.78258 L 301.70806,260.86838" id="path5852" style="fill:#ffffff;fill-opacity:1.0000000;fill-rule:evenodd;stroke:#000000;stroke-width:1.0000000px;stroke-linecap:butt;stroke-linejoin:miter;stroke-opacity:1.0000000"/>
      <path d="M 291.70372,269.38176 C 290.17380,267.92811 288.78056,266.34732 287.60290,264.58506 M 287.96922,263.96900 L 284.08014,270.50973 L 293.62608,269.09552" id="path5854" style="fill:#ffffff;fill-opacity:1.0000000;fill-rule:evenodd;stroke:#000000;stroke-width:1.0000000px;stroke-linecap:butt;stroke-linejoin:miter;stroke-opacity:1.0000000"/>
      <path d="M 274.53421,252.47852 C 282.60905,261.78502 295.77516,254.59636 304.32426,253.88537 C 300.42844,260.18275 308.11656,272.27446 296.49118,272.48937 C 289.64362,267.31991 280.59536,263.05124 275.66574,255.33317 L 275.03575,253.95537 L 274.53421,252.47852 L 274.53421,252.47852 z " id="path3611" style="fill:url(#linearGradient10359);fill-opacity:1.0000000;fill-rule:evenodd;stroke:#000000;stroke-width:1.0000000px;stroke-linecap:butt;stroke-linejoin:miter;stroke-opacity:1.0000000"/>
      <path d="M 285.67114,245.23067 C 282.49585,245.14862 279.08951,244.31216 276.86396,241.89901 C 275.44344,240.20665 275.31036,237.71260 276.14208,235.72370 C 277.10214,232.27599 278.51316,228.87531 280.83478,226.11154 C 281.67660,225.27522 283.14578,226.13744 283.09381,227.24792 C 283.65315,229.68966 284.37469,232.09166 285.00500,234.51593 C 285.64020,236.95963 286.34997,239.39430 286.76625,241.88669 C 286.89629,242.93115 286.89897,244.07403 286.31899,244.99539 C 286.15260,245.16237 285.91047,245.27375 285.67114,245.23067 z " id="path5862" style="fill:url(#linearGradient10361);fill-opacity:1.0000000;fill-rule:evenodd;stroke:#000000;stroke-width:1.0000000px;stroke-linecap:butt;stroke-linejoin:miter;stroke-opacity:1.0000000"/>
      <path d="M 286.90857,245.58421 C 289.64135,246.29333 292.58454,245.93356 295.16162,244.82714 C 297.61602,244.64630 299.76124,243.26857 301.71306,241.88018 C 303.02481,240.71788 304.03803,239.17666 304.53291,237.49437 C 304.88730,235.94289 305.02775,234.34726 305.15698,232.76510 C 305.19479,231.29857 304.67083,229.72397 303.39859,228.88634 C 302.34871,228.01461 301.00683,228.70063 300.19777,229.53552 C 295.77037,232.81434 291.33992,236.08908 286.89697,239.34682 C 286.09922,240.51590 286.44812,241.64471 285.77751,242.86818 C 285.38539,243.58356 285.67780,245.52676 286.90857,245.58421 z " id="path5860" sodipodi:nodetypes="ccccccccsc" style="fill:url(#linearGradient10363);fill-opacity:1.0000000;fill-rule:evenodd;stroke:#000000;stroke-width:1.0000000px;stroke-linecap:butt;stroke-linejoin:miter;stroke-opacity:1.0000000"/>
      <path d="M 286.37824 243.46291 A 2.6516504 2.6516504 0 1 1  281.07494,243.46291 A 2.6516504 2.6516504 0 1 1  286.37824 243.46291 z" id="path8828" sodipodi:cx="283.72659" sodipodi:cy="243.46291" sodipodi:rx="2.6516504" sodipodi:ry="2.6516504" sodipodi:type="arc" style="fill:#000000;fill-opacity:1.0000000;stroke:#000000;stroke-opacity:1.0000000" transform="translate(-1.590990,-2.828427)"/>
      <path d="M 286.37824 243.46291 A 2.6516504 2.6516504 0 1 1  281.07494,243.46291 A 2.6516504 2.6516504 0 1 1  286.37824 243.46291 z" id="path9556" sodipodi:cx="283.72659" sodipodi:cy="243.46291" sodipodi:rx="2.6516504" sodipodi:ry="2.6516504" sodipodi:type="arc" style="fill:#000000;fill-opacity:1.0000000;stroke:#000000;stroke-opacity:1.0000000" transform="translate(6.894291,-1.590990)"/>
    </g>
  </g>
</svg>
