<?xml version="1.0" encoding="UTF-8" standalone="no"?>
<!-- Generator: Adobe Illustrator 12.0.0, SVG Export Plug-In . SVG Version: 6.00 Build 51448)  --><svg height="237.307" id="Layer_1" inkscape:version="0.40+cvs" sodipodi:docbase="F:\openclip\svg da inviare" sodipodi:docname="libellula.svg" sodipodi:version="0.32" style="overflow:visible;enable-background:new 0 0 273.552 237.307;" version="1.1" viewBox="0 0 273.552 237.307" width="273.552" xml:space="preserve" xmlns="http://www.w3.org/2000/svg" xmlns:cc="http://web.resource.org/cc/" xmlns:dc="http://purl.org/dc/elements/1.1/" xmlns:inkscape="http://www.inkscape.org/namespaces/inkscape" xmlns:rdf="http://www.w3.org/1999/02/22-rdf-syntax-ns#" xmlns:sodipodi="http://inkscape.sourceforge.net/DTD/sodipodi-0.dtd" xmlns:svg="http://www.w3.org/2000/svg" xmlns:xml="http://www.w3.org/XML/1998/namespace"><metadata><rdf:RDF xmlns:cc="http://web.resource.org/cc/" xmlns:dc="http://purl.org/dc/elements/1.1/" xmlns:rdf="http://www.w3.org/1999/02/22-rdf-syntax-ns#"><cc:Work rdf:about=""><dc:title>libellula</dc:title><dc:description></dc:description><dc:subject><rdf:Bag><rdf:li>architetto francesco rollandin</rdf:li><rdf:li>insect</rdf:li></rdf:Bag></dc:subject><dc:publisher><cc:Agent rdf:about="http://www.openclipart.org/"><dc:title>Open Clip Art Library</dc:title></cc:Agent></dc:publisher><dc:creator><cc:Agent><dc:title>Architetto Francesco Rollandin</dc:title></cc:Agent></dc:creator><dc:rights><cc:Agent><dc:title>Architetto Francesco Rollandin</dc:title></cc:Agent></dc:rights><dc:date></dc:date><dc:format>image/svg+xml</dc:format><dc:type rdf:resource="http://purl.org/dc/dcmitype/StillImage"/><cc:license rdf:resource="http://web.resource.org/cc/PublicDomain"/><dc:language>en</dc:language></cc:Work><cc:License rdf:about="http://web.resource.org/cc/PublicDomain"><cc:permits rdf:resource="http://web.resource.org/cc/Reproduction"/><cc:permits rdf:resource="http://web.resource.org/cc/Distribution"/><cc:permits rdf:resource="http://web.resource.org/cc/DerivativeWorks"/></cc:License></rdf:RDF></metadata>
<defs id="defs38"></defs>
<sodipodi:namedview bordercolor="#666666" borderopacity="1.0" id="base" inkscape:current-layer="Layer_1" inkscape:cx="136.77600" inkscape:cy="118.65350" inkscape:pageopacity="0.0" inkscape:pageshadow="2" inkscape:window-height="540" inkscape:window-width="640" inkscape:window-x="44" inkscape:window-y="58" inkscape:zoom="1.5928733" pagecolor="#ffffff"></sodipodi:namedview>

<path d="M212.687,237.307c10.168-3.603,9.181-11.19,3.561-21.252  c-7.911-14.161-18.015-28.477-26.685-42.503c11.869,4.543,50.765,46.041,64.043,26.565c-7.115-4.225-11.182-15.6-16.014-23.022  c-2.957-4.543-5.814-9.585-8.894-14.168c-3.706-5.516-10.422-8.36-13.341-14.169c-2.347-4.671-15.459-12.563-20.46-15.052  c-8.093-4.028-15.316-10.39-23.126-15.053c9.943-1.65,19.539-3.978,29.328-6.413c5.498-1.368,8.711,1.101,14.258,1.101  c10.025,0,18.978,7.677,29.353,10.624c6.118,1.737,22.827,6.35,26.686,4.43c8.285-4.124-9.66-17.749-14.233-20.367  c-11.888-6.805-22.123-8.855-34.69-8.855c-12.312,0-23.39-5.313-36.468-5.313c-4.661,0-9.593-0.422-14.232,0  c-5.049,0.459-12.451,3.985-17.064,3.411c-14.903-1.855-11.947-2.728-17.626-14.037c-3.299-6.572-8.464-14.627-13.341-19.481  c-11.818-11.761-20.035-27.027-32.022-38.96C82.333,15.45,68.356,0,54.36,0C28.286,0,72.442,54.174,77.486,60.212  c-21.004-9.914-36.344-27.039-60.484-30.106c-21.487-2.73-21.154,9.695-7.115,24.793c17.62,18.948,39.402,24.378,60.09,38.108  c6.869,4.559,14.973,6.643,21.741,9.707c4.907,2.221,8.895,4.525,14.232,5.313c-6.446,3.464-8.352,14.167-17.394,14.167  c-11.008,0-22.991,14.775-16.407,24.793c12.59,19.155,36.025-14.167,43.991-14.167c11.414,0,11.053-0.172,16.494,8.855  c3.2,5.309,6.956,10.314,9.784,15.938c3.181,6.325,13.682,26.734,18.68,29.221c3.446,1.716,7.599,10.222,11.069,13.678  c4.05,4.033,8.409,9.655,12.058,13.771C193.345,224.569,199.657,232.11,212.687,237.307" id="path3" style="fill-rule:evenodd;clip-rule:evenodd;"></path>

<path d="M214.468,231.995c0.346-2.867,0-5.964,0-8.855  c-1.392,0.949-2.351,1.097-3.558,1.771c0.87-1.287,1.066-3.883,1.776-5.314c-5.057,0.046-4.028-3.599-1.776-7.084  c-1.442,1.496-3.731,2.209-5.338,3.543c-1.11-1.629-0.461-0.573-1.778-1.771c2.034-3.199,1.182-3.99,3.557-5.311  c0-0.591,0-1.182,0-1.772c-2.354,1.041-4.824,1.095-7.115,1.772c1.106-1.228,1.658-3.518,3.559-5.314  c-7.754,4.865-8.564-3.078-1.78-5.311c-4.374,0.871-8.13,2.836-10.674,0c0-0.591,0-1.181,0-1.771  c3.232-0.706,3.752-2.341,5.337-3.543c-2.128,1.057-4.864,0.976-7.114,1.771c0.935-4.003,1.159-5.429,3.556-7.085  c-3.335,0.665-6.462,0.104-8.893-1.771c2.562-0.715,1.717-1.734,5.337-1.771c0-0.591,0-1.182,0-1.772  c-2.931,0.287-5.977-0.379-8.896,0c0-0.59,0-1.181,0-1.771c2.559-0.713,1.818-1.388,5.337-1.771c0-0.59,0-1.18,0-1.77  c-1.771,1.552-5.055,2.385-8.896,1.77c0.788-1.483,0.601-3.612,1.78-5.313c-1.717,0.279-3.636-0.357-5.337,0  c1.556-2.66,1.559-3.812,5.337-5.312c-2.017,1.117-4.892,1.099-7.117,1.77c0.803-3.762,0.554-4.082,3.56-5.311  c-2.299,0.379-4.791-0.205-7.115,0c1.486-1.976,3.849-5.111,5.336-7.085c-3.104,1.845-6.221,2.178-8.896,0  c1.187-1.181,2.373-2.362,3.56-3.543c-1.736,0.283-3.597-0.25-5.339,0c1.181-1.571,1.426-3.646,3.558-5.313  c-3.443,0.509-4.494-1.074-7.115-1.771c1.186-1.181,2.372-2.36,3.558-3.541c-4.56-0.755-5.263-4.256-8.895-8.854  c-5.82-7.369-14.603-14.729-23.127-19.48c-0.893,0.977-0.781,0.878-1.777,1.771c1.333,6.107,9.707,8.62,1.777,12.397  c4.562-0.691,8.419-0.002,10.673,1.77c-1.32,0.995-2.214,2.58-3.558,3.543c2.32-0.34,4.8,0.357,7.117,0c0,0.59,0,1.181,0,1.771  c-3.104,1.1-5.277,2.186-7.117,3.542c3.559,0,7.117,0,10.676,0c0,0.591,0,1.181,0,1.771c-2.234,1.171-4.935,2.521-8.896,3.542  c4.339-0.72,9.128-3.04,12.451,0c-3.059,2.76-6.816,3.775-10.674,5.311c4.744,0,9.489,0,14.233,0  c-0.852,2.679-3.766,4.594-7.115,5.314c3.558,0,7.115,0,10.673,0c-1.128,1.348-1.475,3.686-3.558,5.313  c5.417-1.553,8.914,0.536,5.336,3.543c1.743,0.744,1.464,1.635,3.559,1.771c0,0.59,0,1.181,0,1.771  c-1.973,1.138-1.346,1.575-3.559,3.542c2.316-0.348,4.811,0.395,7.118,0c-1.113,3.416-5.188,3.836-8.896,5.313  c4.15-0.591,8.302-1.181,12.452-1.771c-1.141,3.931-0.026,3.252-3.556,5.312c3.018,0.367,5.856,1.503,8.893,1.771  c-1.789,3.373-6.328,3.872-10.674,5.314c5.337,0,10.674,0,16.011,0c-2.976,2.334-3.212,3.521-7.114,3.542  c9.638-2.929,9.093,8.153,0,7.086c3.558-0.591,7.115-1.181,10.673-1.771c3.26,3.355-0.112,8.015-5.337,8.853  c4.744,0,9.488,0,14.232,0c0,0.591,0,1.181,0,1.771c-2.008,0.565-3.289,1.313-5.337,1.772c8.253-1.414,12.037,3.432,5.337,5.311  c2.873-0.34,5.999,0,8.895,0c-0.596,3.651-3.223,5.71-7.117,5.313c3.854-0.606,7.856-0.692,10.674,1.771  c-4.944,1.969-4.044,10.084,3.56,5.314C209.704,231.338,211.224,231.174,214.468,231.995" id="path5" style="fill-rule:evenodd;clip-rule:evenodd;fill:#B2D1F0;"></path>

<path d="M241.151,200.117c7.663,0.071-1.1-14.604-5.337-10.628  c0.198-1.887-0.074-1.744-1.778-1.77c0.593-1.181,1.186-2.361,1.778-3.542c-2.257,0.506-4.863-0.521-7.116,0  c1.602-1.729,0.859-2.343,3.558-3.543c0-0.59,0-1.181,0-1.771c-2.924,0.346-5.971-0.346-8.895,0c0.788-1.483,0.6-3.612,1.779-5.313  c-1.691,0.102-3.671-0.351-5.336,0c0-0.59,0-1.18,0-1.77c1.997-0.575,3.293-1.315,5.336-1.772c0-0.59,0-1.18,0-1.77  c-3.558,0-7.115,0-10.673,0c2.141-3.344,4.168-4.094,7.114-5.313c-4.15,0-8.301,0-12.451,0c0-0.59,0-1.181,0-1.771  c1.963-0.396,3.378-1.166,5.337-1.771c-4.151,0-8.303,0-12.454,0c1.172-0.714,2.341-2.604,5.337-3.542  c-3.515-0.826-7.082-1.589-10.674-1.771c0-0.591,0-1.181,0-1.771c2.012-0.561,3.287-1.313,5.337-1.771c-2.834,0.43-6.024,0-8.896,0  c1.189-3.736,5.929-3.345,7.117-7.082c-4.151,0.591-8.303,1.181-12.454,1.771c1.896-2.955-0.227-2.827,3.559-5.313  c-10.248,1.555-9.966-1.913-5.336-7.084c-3.053,2.767-7.62,2.768-10.673,0c1.823-0.985,1.556-1.068,3.558-1.771  c0-0.59,0-1.18,0-1.77c-2.117,1.356-4.785,0.896-7.117,1.77c1.651-2.638,1.079-4.041,3.56-5.312c-2.52-1.274-5.514-1.123-8.896,0  c0.688-1.032,0.77-2.236,1.781-3.543c-6.294-3.759-11.972-4.826-16.902-9.739c-3.518-3.505-9.785-7.337-9.785,0  c0,3.724,16.002,16.096,21.349,15.054c-3.113,5.341,1.295,6.325,3.558,3.54c1.24,1.61,1.641,1.516,1.781,3.543  c-1.094,0.299-2.482-0.349-3.56,0c1.208,4.717,5.827,4.302,10.675,3.54c-2.502,1.431-2.808,1.619-7.115,1.772  c0,0.591,0,1.181,0,1.771c3.586-0.408,7.087-1.364,10.673-1.771c-0.849,3.759-0.102,4.49-5.337,5.313  c2.878-0.437,5.982,0.16,8.894,0c-1.43,1.281-2.281,3.986-5.337,5.311c3.558,0,7.115,0,10.673,0  c-1.544,2.364-2.184,4.002-5.336,5.314c5.943,0,17.95,3.021,5.336,5.313c3.854-0.606,7.856-0.692,10.676,1.771  c-1.186,0.591-2.372,1.182-3.558,1.772c7.236-1.776,9.313,3.699,3.558,5.311c0,0.591,0,1.182,0,1.772  c4.146-1.376,8.175-2.988,12.453-3.542c-0.665,1.74-0.7,3.458-1.779,5.312c3.343-1.524,4.962-1.886,7.116,0  c-2.372,2.361-4.744,4.722-7.116,7.083c3.558-1.18,7.116-2.36,10.674-3.54c-0.585,3.574-2.242,5.532-5.337,7.083  c4.15-0.689,8.267-1.507,12.451-1.772c-1.324,0.994-2.273,2.495-3.558,3.544c5.295-1.608,9.28,0.711,5.337,3.54  c0,0.591,0,1.182,0,1.772c2.916-0.377,5.977,0.371,8.894,0c-2.192,2.688-2.226,3.55-5.336,5.314  c2.135-1.031,2.314-0.885,3.559-1.771C237.261,197.816,238.87,197.898,241.151,200.117" id="path7" style="fill-rule:evenodd;clip-rule:evenodd;fill:#B2D1F0;"></path>

<path d="M84.603,138.132c3.818-1.9,9.632-3.204,10.673-7.083  c-5.387,0.654-8.08,3.643-12.454,5.313C82.223,138.824,83.499,137.389,84.603,138.132" id="path9" style="fill-rule:evenodd;clip-rule:evenodd;fill:#FF7F00;"></path>

<path d="M116.624,125.737c-0.345-2.868,0-5.964,0-8.855  c2.704,2.186,3.552,2.216,5.336,5.313c-0.906-9.382-11.454-10.337-17.789-3.541c1.937,1.007,4.323,3.382,5.337,5.312  c0.593-0.59,1.186-1.181,1.778-1.771c-1.406-1.696-1.089-0.324-1.778-3.541c2.756,0.609,4.615,4.014,7.115,5.312  c-0.593,0-1.186,0-1.778,0C114.237,126.458,115.558,124.96,116.624,125.737" id="path11" style="fill-rule:evenodd;clip-rule:evenodd;fill:#FF7F00;"></path>

<path d="M253.605,120.425c1.295-0.84,2.459-2.45,3.557-3.543  c-6.684-4.54-14.701-6.956-21.348-10.626c-0.262,1.38-0.291,3.941,0,5.314c3.688-2.288,5.731,1.455,8.896,3.542  c2.41-3.521,4.1-1.196,3.559,3.542c1.609-2.131,3.879-2.362,5.337-3.542C253.605,116.811,253.868,118.749,253.605,120.425" id="path13" style="fill-rule:evenodd;clip-rule:evenodd;fill:#FF7F00;"></path>

<path d="M169.993,115.111c0.941-5.625,2.719-16.314,7.115-7.084  c0.594,0,1.187,0,1.78,0c-0.165-2.932,0.965-3.001,1.778-5.313c1.267,2.153,2.069,3.239,1.778,7.083  c0.463-3.765,0.907-3.423,1.78-7.083c1.26,1.273,0.721-0.131,1.778,1.772c0.771-0.891,4.582-2.649,5.336-3.543  c-0.112,2.318,0.322,4.789,0,7.084c0.301-4.04,1.476-5.533,3.56-7.084c0.676,2.58,1.512,1.739,1.777,5.313  c1.238-1.785,1.516-3.324,1.78-5.313c-12.134,0-19.948,0-32.022,0C169.308,104.899,170.883,109.493,169.993,115.111" id="path15" style="fill-rule:evenodd;clip-rule:evenodd;fill:#FF7F00;"></path>

<path d="M125.519,115.111c3.058-3.214,2.159-5.968-1.778-7.084  c1.343-1.759-0.717-0.889,1.778-1.771c-5.654-1.121-3.941-5.313-9.29-5.313c-4.433,0-4.11-4.697-8.501-5.313  c0.593-0.59,1.187-1.181,1.78-1.771c-1.706,0.305-3.599-0.065-5.337,0c0.806-1.442,0.558-3.644,1.778-5.313  c-4.767,0.95-10.431,0.374-7.115-5.314c-7.418,2.1-4.691-2.423-7.117-3.541c-4.629-2.131-4.577,2.161-5.337-3.543  c-2.055,1.154-5.059,0.618-7.114,1.771c1.723-3.158-0.944-2.919,3.555-5.313c-2.805,0.986-6.005,1.041-8.892,1.771  c-0.171-3.608-2.748-0.881,0-5.313c-2.923,0.35-5.973-0.35-8.896,0c1.299-1.028,2.226-2.562,3.559-3.542  c-2.822,0.992-6.024,0.923-8.896,1.771c0.936-2.461-0.068-2.941,1.778-5.313c-2.149,1.044-4.874,0.92-7.115,1.772  c-1.018-1.103-0.538-0.772-1.78-1.772c1.808-0.987,3.405-2.866,5.336-3.542c-3.515,0.827-7.082,1.589-10.674,1.771  c1.137-3.391,0.14-4.355,3.559-5.313c-2.66,1.261-6.004,1.516-8.896,1.771c1.042-3.878,6.856-5.183,10.674-7.084  c-5.337,1.181-10.674,2.362-16.011,3.542c-0.289-3.828,1.505-5.607,5.336-5.313c-3.558,0.59-7.116,1.18-10.673,1.77  c1.013-3.119,3.843-5.26,7.115-7.084c-4.15,1.771-8.301,3.542-12.451,5.314c1.226-1.635,2.381-5.386,3.559-7.084  c-2.329,0.959-5.163,2.991-8.895,3.542c1.36-1.625,2.198-3.688,3.559-5.313c-2.141,1.373-4.636,1.06-7.117,1.771  c1.585-2.284,2.172-4.021,5.337-5.313c-2.821,0.992-6.023,0.923-8.894,1.772c0.364-8.305-4.99-2.356-7.117,0  c1.715-0.271,3.657,0.41,5.337,0c-0.609,3.302-3.361,5.074-7.115,5.312c3.558-0.59,7.116-1.18,10.673-1.77  c-1.208,3.558,0.088,2.967-3.558,5.313c2.195-0.988,4.862-0.915,7.117-1.771c-0.766,4.149-5.226,4.42-7.117,7.083  c2.262-5.16,6.913-3.542,12.454-3.542c-2.044,2.827-1.077,3.273-5.337,3.542c5.662-0.971,11.319-0.327,7.115,3.542  c2.833-0.43,6.023,0,8.895,0c-1.66,1.976-3.032,3.091-7.117,3.542c3.558-0.59,7.116-1.181,10.673-1.771  c4.654,4.744-3.317,6.209-8.893,7.085c5.337-0.591,10.673-1.181,16.01-1.772c-0.852,2.679-3.767,4.593-7.118,5.313  c4.744-0.59,9.489-1.181,14.233-1.771c0.611,5.834-5.905,4.522-10.674,5.314c5.93-0.591,11.861-1.181,17.791-1.772  c0.523,5.76-5.923,5.507-10.673,7.084c5.93-1.181,11.859-2.361,17.789-3.542c-1.111,3.419-5.187,3.836-8.896,5.313  c5.33-0.664,10.657-1.494,16.013-1.771c-1.042,3.879-6.855,5.183-10.674,7.083c6.482-1.29,13-2.985,19.566-3.541  c-1.043,3.877-6.855,5.183-10.673,7.083c5.336-1.181,10.673-2.362,16.01-3.543c-1.11,3.418-5.184,3.837-8.892,5.314  c4.922,0,14.295-1.051,8.892,3.542c1.646-0.747,3.839-0.784,5.339-1.771c0.558,2.526-0.096,0.697,1.778,1.771  c-0.593,1.181-1.185,2.361-1.778,3.542c2.059-1.156,4.958-0.784,7.115-1.771c-2.055,3.907,0.995,1.961-3.558,3.542  c0,0.59,0,1.18,0,1.77c5.109-1.794,20.89-0.83,10.673,5.314c3.198-1.411,6.318-1.659,8.896,0c-1.93,0.765-1.789,0.769-3.559,1.77  c0,0.59,0,1.181,0,1.771C119.034,108.111,118.055,113.506,125.519,115.111" id="path17" style="fill-rule:evenodd;clip-rule:evenodd;fill:#B2D1F0;"></path>

<path d="M161.098,111.57c-1.622-5.546-6.056-5.922-14.232-7.083  c5.32,5.472,6.661,0.668,8.896,1.77C157.594,107.159,159.748,110.226,161.098,111.57" id="path19" style="fill-rule:evenodd;clip-rule:evenodd;fill:#FF7F00;"></path>

<path d="M166.435,111.57  C166.435,109.624,166.435,109.624,166.435,111.57" id="path21" style="fill-rule:evenodd;clip-rule:evenodd;fill:#FF7F00;"></path>

<path d="M216.247,109.798c1.193-0.958,2.575-3.313,3.558-5.312  c-2.124-0.375-3.672-1.411-5.337-1.772C216.168,104.225,216.225,109.906,216.247,109.798" id="path23" style="fill-rule:evenodd;clip-rule:evenodd;fill:#FF7F00;"></path>

<path d="M223.361,108.027c0.593-1.18,1.187-2.361,1.779-3.541  C224.548,105.667,223.954,106.847,223.361,108.027" id="path25" style="fill-rule:evenodd;clip-rule:evenodd;fill:#FF7F00;"></path>

<path d="M230.478,108.027c-0.894-0.889,0.831-2.411-1.779-1.771  C228.063,108.862,229.58,107.135,230.478,108.027" id="path27" style="fill-rule:evenodd;clip-rule:evenodd;fill:#FF7F00;"></path>

<path d="M137.971,108.027c0.607-5.106,1.149-10.445-5.336-8.855  c0-0.59,0-1.18,0-1.77c2.171-0.772,1.426-0.926,3.558-1.771c-2.951-2.36-5.317-2.005-7.114,0c-0.138-3.839,1.84-5.943,5.336-7.083  c-3.558,0-7.116,0-10.673,0c0-0.59,0-1.181,0-1.771c3.254-0.894,4.272-2.25,5.337-5.313c-4.151,0-8.303,0-12.454,0  c0-0.59,0-1.18,0-1.77c2.12-1.562,5.562-3.273,8.895-5.313c-3.558,0.59-7.116,1.18-10.673,1.771  c-2.848-2.903-1.383-5.001,3.558-5.312c0-0.591,0-1.181,0-1.772c-4.841,0-8.399-0.472-10.675-1.771  c-1.618-0.923,4.328-3.493,5.336-3.541c-2.833,0.43-6.022,0-8.893,0c1.604-2.865,1.751-4.278,5.337-5.314  c-5.338-0.25-12.979-2.428-5.337-5.313c-3.708-1.477-7.783-1.896-8.896-5.313c3.354-1.935,5.826-1.599,8.896,0  c-2.782-4.208-7.811-4.092-12.454-3.542c2.412-2.182,0.378-3.117,5.337-3.542c-6.171-1.024-16.284-3.725-5.337-5.313  c0-0.59,0-1.181,0-1.771c-3.558,0-7.116,0-10.673,0c1.542-1.663,1.128-2.265,3.559-3.541c0-0.59,0-1.181,0-1.771  c-2.315,0.362-4.796-0.322-7.117,0c1.402-2.034,2.093-3.85,5.336-5.312c-3.558,0-7.115,0-10.673,0  c1.909-2.403,1.535-4.395,5.337-5.314c-2.509-3.409-10.673-4.068-10.673-7.083c0-1.985-2.63-2.62-4.447-4.427  c-2.449-2.436-7.771-3.412-11.564-2.657c0,0.59,0,1.181,0,1.771c3.152-2.076,1.624-0.803,5.337,0  c-1.899,1.053-3.059,2.771-5.337,3.542c3.14-1.325,3.838-0.723,7.115-1.771c-1.376,2.375-2.341,5.165-5.336,7.083  c2.825-0.993,6.038-0.867,8.895-1.771c0,0.59,0,1.181,0,1.771c-2.149,0.983-2.514,2.051-5.337,3.542c3.161-1.848,6.43-2.128,8.895,0  c-2.965,2.361-5.93,4.723-8.895,7.084c3.558-1.181,7.116-2.361,10.674-3.542c0.438,5.822-5.45,5.361-8.896,7.083  c4.151-0.689,8.268-1.506,12.454-1.771c-1.696,2.097-2.149,4.014-5.337,5.314c2.92-0.377,5.965,0.307,8.896,0  c-2.364,1.793-4.397,3.909-7.117,5.313c3.515-0.827,7.082-1.589,10.673-1.772c-0.095,5.428-4.22,3.84-8.893,7.083  c4.15-0.688,8.266-1.504,12.451-1.77c-2.625,2.815-5.394,4.657-8.895,5.313c0,0.59,0,1.181,0,1.771  c3.555-1.416,6.917-3.138,10.673-3.542c-1.184,3.376-0.107,4.345-3.555,5.312c5.297-1.609,9.275,0.713,5.336,3.542  c3.006-0.238,3.211,1.301,5.337,1.771c-1.494,3.355-4.589,5.034-8.896,5.313c4.151-0.59,8.303-1.181,12.454-1.771  c-1.174,1.563-1.513,3.6-3.559,5.314c2.311-0.38,4.795,0.33,7.115,0c-1.404,2.039-2.103,3.833-5.337,5.312  c2.902-0.423,5.966,0.236,8.896,0c0,0.591,0,1.181,0,1.772c-2.819,1.142-1.938,1.793-3.558,3.542c2.267-0.5,4.844,0.473,7.117,0  c-0.748,1.25-0.574,2.103-1.78,3.542c5.496,1.092,11.544,9.946,17.463,14.365C125.581,96.562,131.896,106.576,137.971,108.027" id="path29" style="fill-rule:evenodd;clip-rule:evenodd;fill:#B2D1F0;"></path>

<path d="M210.91,106.256c0-1.181,0-2.361,0-3.542  C210.91,103.895,210.91,105.075,210.91,106.256" id="path31" style="fill-rule:evenodd;clip-rule:evenodd;fill:#FF7F00;"></path>

<path d="M202.014,104.486  C202.014,102.541,202.014,102.541,202.014,104.486" id="path33" style="fill-rule:evenodd;clip-rule:evenodd;fill:#FF7F00;"></path>

<path d="M89.94,97.402C89.94,95.457,89.94,95.457,89.94,97.402" id="path35" style="fill-rule:evenodd;clip-rule:evenodd;fill:#FFFFFF;"></path>

</svg>
