<?xml version="1.0" encoding="UTF-8" standalone="no"?>
<!-- Created with Inkscape (http://www.inkscape.org/) --><svg height="1052.3622047" id="svg1620" inkscape:version="0.40+cvs" sodipodi:docbase="C:\Documents and Settings\Tanguy JACQ\Mes documents\Mes images\SVG" sodipodi:docname="libellule.svg" sodipodi:version="0.32" width="744.09448819" xmlns="http://www.w3.org/2000/svg" xmlns:cc="http://web.resource.org/cc/" xmlns:dc="http://purl.org/dc/elements/1.1/" xmlns:inkscape="http://www.inkscape.org/namespaces/inkscape" xmlns:rdf="http://www.w3.org/1999/02/22-rdf-syntax-ns#" xmlns:sodipodi="http://inkscape.sourceforge.net/DTD/sodipodi-0.dtd" xmlns:svg="http://www.w3.org/2000/svg" xmlns:xlink="http://www.w3.org/1999/xlink">
  <metadata>
    <rdf:RDF xmlns:cc="http://web.resource.org/cc/" xmlns:dc="http://purl.org/dc/elements/1.1/" xmlns:rdf="http://www.w3.org/1999/02/22-rdf-syntax-ns#">
      <cc:Work rdf:about="">
        <dc:title>Libellule</dc:title>
        <dc:description></dc:description>
        <dc:subject>
          <rdf:Bag>
            <rdf:li>insect</rdf:li>
            <rdf:li>animal</rdf:li>
          </rdf:Bag>
        </dc:subject>
        <dc:publisher>
          <cc:Agent rdf:about="http://www.openclipart.org/">
            <dc:title>Open Clip Art Library</dc:title>
          </cc:Agent>
        </dc:publisher>
        <dc:creator>
          <cc:Agent>
            <dc:title>Tanguy JACQ</dc:title>
          </cc:Agent>
        </dc:creator>
        <dc:rights>
          <cc:Agent>
            <dc:title>Tanguy JACQ</dc:title>
          </cc:Agent>
        </dc:rights>
        <dc:date></dc:date>
        <dc:format>image/svg+xml</dc:format>
        <dc:type rdf:resource="http://purl.org/dc/dcmitype/StillImage"/>
        <cc:license rdf:resource="http://web.resource.org/cc/PublicDomain"/>
        <dc:language>en</dc:language>
      </cc:Work>
      <cc:License rdf:about="http://web.resource.org/cc/PublicDomain">
        <cc:permits rdf:resource="http://web.resource.org/cc/Reproduction"/>
        <cc:permits rdf:resource="http://web.resource.org/cc/Distribution"/>
        <cc:permits rdf:resource="http://web.resource.org/cc/DerivativeWorks"/>
      </cc:License>
    </rdf:RDF>
  </metadata>
  <defs id="defs3">
    <linearGradient gradientTransform="matrix(-0.810915,0.876810,-0.469485,-0.233458,900.7989,562.6597)" gradientUnits="userSpaceOnUse" id="linearGradient1779" inkscape:collect="always" x1="205.89905" x2="245.18265" xlink:href="#linearGradient3628" y1="1045.7043" y2="1036.7552"/>
    <linearGradient gradientTransform="matrix(0.272324,-1.683457,0.578868,9.364055e-2,6.475932e-13,3.113565e-12)" gradientUnits="userSpaceOnUse" id="linearGradient1777" inkscape:collect="always" x1="-289.92477" x2="-250.64116" xlink:href="#linearGradient3628" y1="511.03561" y2="502.08652"/>
    <linearGradient gradientTransform="scale(1.705341,0.586393)" gradientUnits="userSpaceOnUse" id="linearGradient1775" inkscape:collect="always" x1="120.00883" x2="159.29243" xlink:href="#linearGradient3628" y1="1045.7043" y2="1036.7552"/>
    <linearGradient gradientTransform="matrix(1.705341,-4.714803e-18,2.575498e-16,0.586393,79.54951,-104.8033)" gradientUnits="userSpaceOnUse" id="linearGradient1773" inkscape:collect="always" x1="205.89905" x2="245.18265" xlink:href="#linearGradient3628" y1="1045.7043" y2="1036.7552"/>
    <linearGradient gradientTransform="matrix(0.272324,-1.683457,0.578868,9.364055e-2,2.811637e-14,5.712098e-13)" gradientUnits="userSpaceOnUse" id="linearGradient1771" inkscape:collect="always" x1="-289.92477" x2="-250.64116" xlink:href="#linearGradient3628" y1="511.03561" y2="502.08652"/>
    <linearGradient gradientTransform="scale(1.705341,0.586393)" gradientUnits="userSpaceOnUse" id="linearGradient1769" inkscape:collect="always" x1="120.00883" x2="159.29243" xlink:href="#linearGradient3628" y1="1045.7043" y2="1036.7552"/>
    <linearGradient id="linearGradient5926">
      <stop id="stop5928" offset="0" style="stop-color:#ffffff;stop-opacity:1;"/>
      <stop id="stop5930" offset="0.50000000" style="stop-color:#e5e5e5;stop-opacity:0.82352942;"/>
      <stop id="stop5932" offset="1.0000000" style="stop-color:none"/>
    </linearGradient>
    <radialGradient cx="181.42857" cy="473.79074" fx="181.42857" fy="473.79074" gradientTransform="matrix(1.618443,0.146831,-7.382800e-2,0.813773,-77.22431,61.59342)" gradientUnits="userSpaceOnUse" id="radialGradient1767" inkscape:collect="always" r="33.794643" xlink:href="#linearGradient5926"/>
    <radialGradient cx="267.85715" cy="491.64789" fx="267.85715" fy="491.64789" gradientTransform="matrix(1.538886,4.860736e-2,-3.434212e-3,0.865523,-142.6562,53.09519)" gradientUnits="userSpaceOnUse" id="radialGradient1765" inkscape:collect="always" r="30.143880" xlink:href="#linearGradient5154"/>
    <radialGradient cx="222.56653" cy="513.04376" fx="222.56653" fy="513.04376" gradientTransform="matrix(1.231503,0.319323,-0.380105,1.452957,141.4026,-413.0363)" gradientUnits="userSpaceOnUse" id="radialGradient1763" inkscape:collect="always" r="58.185040" xlink:href="#linearGradient3628"/>
    <linearGradient gradientTransform="matrix(-0.885883,-0.396112,0.389578,-0.900741,405.3253,723.2984)" gradientUnits="userSpaceOnUse" id="linearGradient1761" inkscape:collect="always" x1="423.54980" x2="423.27429" xlink:href="#linearGradient5154" y1="288.36914" y2="381.10678"/>
    <linearGradient gradientTransform="matrix(0.891174,0.383643,-0.377315,0.906121,151.0732,-154.9606)" gradientUnits="userSpaceOnUse" id="linearGradient1759" inkscape:collect="always" x1="153.84309" x2="188.99008" xlink:href="#linearGradient5154" y1="293.05511" y2="215.37378"/>
    <linearGradient gradientTransform="matrix(0.713392,0.664902,-0.653934,0.725357,381.5598,-39.75538)" gradientUnits="userSpaceOnUse" id="linearGradient1757" inkscape:collect="always" x1="424.68649" x2="427.29352" xlink:href="#linearGradient5154" y1="371.50662" y2="234.42375"/>
    <linearGradient id="linearGradient5154">
      <stop id="stop5156" offset="0" style="stop-color:#ffffff;stop-opacity:1;"/>
      <stop id="stop5166" offset="0.50000000" style="stop-color:#e5e5e5;stop-opacity:0.82352942;"/>
      <stop id="stop5158" offset="1.0000000" style="stop-color:#000000;stop-opacity:0.65060240;"/>
    </linearGradient>
    <linearGradient gradientTransform="matrix(0.942576,0.223013,-0.219335,0.958385,212.4949,-23.30380)" gradientUnits="userSpaceOnUse" id="linearGradient1755" inkscape:collect="always" x1="427.08704" x2="430.20828" xlink:href="#linearGradient5154" y1="335.10938" y2="274.58063"/>
    <linearGradient gradientTransform="matrix(1.007675,-0.389555,0.151543,1.255879,55.24043,98.77068)" gradientUnits="userSpaceOnUse" id="linearGradient1753" inkscape:collect="always" x1="338.49213" x2="337.82513" xlink:href="#linearGradient3628" y1="252.32762" y2="293.46600"/>
    <radialGradient cx="156.80769" cy="735.64777" fx="156.80769" fy="735.64777" gradientTransform="matrix(1.275688,-0.482693,-4.385928e-2,0.800486,-7.142857,-28.57143)" gradientUnits="userSpaceOnUse" id="radialGradient1751" inkscape:collect="always" r="33.071270" xlink:href="#linearGradient3628"/>
    <radialGradient cx="115.88864" cy="707.87531" fx="115.88864" fy="707.87531" gradientTransform="matrix(1.048370,-0.506886,0.223629,0.644910,-110.5400,83.03437)" gradientUnits="userSpaceOnUse" id="radialGradient1749" inkscape:collect="always" r="52.401173" xlink:href="#linearGradient3628"/>
    <linearGradient gradientTransform="matrix(1.705341,0.000000,0.000000,0.586393,79.54951,-104.8033)" gradientUnits="userSpaceOnUse" id="linearGradient1747" inkscape:collect="always" x1="205.89905" x2="245.18265" xlink:href="#linearGradient3628" y1="1045.7043" y2="1036.7552"/>
    <linearGradient gradientTransform="matrix(0.272324,-1.683457,0.578868,9.364055e-2,2.251532e-13,2.770006e-14)" gradientUnits="userSpaceOnUse" id="linearGradient1745" inkscape:collect="always" x1="-289.92477" x2="-250.64116" xlink:href="#linearGradient3628" y1="511.03561" y2="502.08652"/>
    <linearGradient gradientTransform="scale(1.705341,0.586393)" gradientUnits="userSpaceOnUse" id="linearGradient1743" inkscape:collect="always" x1="120.00883" x2="159.29243" xlink:href="#linearGradient3628" y1="1045.7043" y2="1036.7552"/>
    <linearGradient gradientTransform="matrix(-0.810915,0.876810,-0.469485,-0.233458,900.8914,728.9910)" gradientUnits="userSpaceOnUse" id="linearGradient1741" inkscape:collect="always" x1="205.89905" x2="245.18265" xlink:href="#linearGradient3628" y1="1045.7043" y2="1036.7552"/>
    <linearGradient gradientTransform="matrix(0.272324,-1.683457,0.578868,9.364055e-2,4.107270e-13,6.659670e-13)" gradientUnits="userSpaceOnUse" id="linearGradient1739" inkscape:collect="always" x1="-289.92477" x2="-250.64116" xlink:href="#linearGradient3628" y1="511.03561" y2="502.08652"/>
    <linearGradient id="linearGradient3628">
      <stop id="stop3630" offset="0.00000000" style="stop-color:#7add53;stop-opacity:1.0000000;"/>
      <stop id="stop3632" offset="0.00000000" style="stop-color:#e2ff1a;stop-opacity:1.0000000;"/>
      <stop id="stop3636" offset="1.0000000" style="stop-color:#4c7436;stop-opacity:1.0000000;"/>
    </linearGradient>
    <linearGradient gradientTransform="scale(1.705341,0.586393)" gradientUnits="userSpaceOnUse" id="linearGradient1737" inkscape:collect="always" x1="120.00883" x2="159.29243" xlink:href="#linearGradient3628" y1="1045.7043" y2="1036.7552"/>
  </defs>
  <sodipodi:namedview bordercolor="#666666" borderopacity="1.0" id="base" inkscape:current-layer="layer1" inkscape:cx="375.00000" inkscape:cy="520.00000" inkscape:document-units="px" inkscape:pageopacity="0.0" inkscape:pageshadow="2" inkscape:window-height="515" inkscape:window-width="822" inkscape:window-x="88" inkscape:window-y="116" inkscape:zoom="0.35000000" pagecolor="#ffffff"/>
  <g id="layer1" inkscape:groupmode="layer" inkscape:label="Layer 1">
    <g id="g2542" style="fill:#979797;fill-opacity:1.0000000;stroke:none" transform="matrix(0.548128,0.000000,0.000000,0.141854,164.7853,449.6041)">
      <g id="g2544" style="fill:#979797;fill-opacity:1.0000000;stroke:none" transform="matrix(0.000000,-0.983990,-0.967759,0.000000,836.9121,709.2848)">
        <path d="M 209.60666 512.56189 A 42.931484 6.9447985 0 1 1  123.74369,512.56189 A 42.931484 6.9447985 0 1 1  209.60666 512.56189 z" id="path2546" sodipodi:cx="166.67517" sodipodi:cy="512.56189" sodipodi:rx="42.931484" sodipodi:ry="6.9447985" sodipodi:type="arc" style="fill:#979797;fill-opacity:1.0000000;stroke:none" transform="matrix(-0.303071,0.631362,-0.882359,-0.144771,822.5555,574.9660)"/>
        <path d="M 209.60666 512.56189 A 42.931484 6.9447985 0 1 1  123.74369,512.56189 A 42.931484 6.9447985 0 1 1  209.60666 512.56189 z" id="path2548" sodipodi:cx="166.67517" sodipodi:cy="512.56189" sodipodi:rx="42.931484" sodipodi:ry="6.9447985" sodipodi:type="arc" style="fill:#979797;fill-opacity:1.0000000;stroke:none" transform="matrix(-0.822676,0.412712,-0.177880,-0.641261,497.5118,913.8172)"/>
        <path d="M 212.79617,696.75340 C 208.33182,694.53344 214.94365,691.23981 220.08091,685.68509 C 225.21818,680.13037 226.94509,674.40765 231.40945,676.62762 C 235.87381,678.84759 235.32768,685.15747 230.19042,690.71219 C 225.05315,696.26690 217.26054,698.97337 212.79617,696.75340 z " id="path2550" sodipodi:nodetypes="ccccc" style="fill:#979797;fill-opacity:1.0000000;stroke:none"/>
      </g>
      <g id="g2552" style="fill:#979797;fill-opacity:1.0000000;stroke:none" transform="matrix(0.967759,0.000000,0.000000,0.983990,-6.777806,-6.912654)">
        <path d="M 209.60666 512.56189 A 42.931484 6.9447985 0 1 1  123.74369,512.56189 A 42.931484 6.9447985 0 1 1  209.60666 512.56189 z" id="path2554" sodipodi:cx="166.67517" sodipodi:cy="512.56189" sodipodi:rx="42.931484" sodipodi:ry="6.9447985" sodipodi:type="arc" style="fill:#979797;fill-opacity:1.0000000;stroke:none" transform="translate(226.0216,-104.8033)"/>
        <path d="M 209.60666 512.56189 A 42.931484 6.9447985 0 1 1  123.74369,512.56189 A 42.931484 6.9447985 0 1 1  209.60666 512.56189 z" id="path2556" sodipodi:cx="166.67517" sodipodi:cy="512.56189" sodipodi:rx="42.931484" sodipodi:ry="6.9447985" sodipodi:type="arc" style="fill:#979797;fill-opacity:1.0000000;stroke:none" transform="matrix(0.159689,0.987167,-0.987167,0.159689,925.0980,208.7228)"/>
        <path d="M 492.44937,509.40517 C 492.44937,514.98121 483.68124,511.93055 472.87766,511.93055 C 462.07408,511.93055 453.30596,514.98121 453.30596,509.40517 C 453.30596,503.82912 462.07408,499.30364 472.87766,499.30364 C 483.68124,499.30364 492.44937,503.82912 492.44937,509.40517 z " id="path2558" sodipodi:nodetypes="ccccc" style="fill:#979797;fill-opacity:1.0000000;stroke:none"/>
      </g>
      <g id="g2560" style="fill:#979797;fill-opacity:1.0000000;stroke:none;stroke-width:0.75000000;stroke-miterlimit:4.0000000;stroke-opacity:0.45644596" transform="matrix(0.927522,-0.276153,0.280785,0.943078,-69.94351,-5.511534)">
        <path d="M 207.04271,461.98716 C 209.94407,470.35421 204.56511,490.98989 182.93469,501.44817 C 161.30429,511.90646 142.28731,516.28225 133.13594,499.87949 C 124.87743,488.83387 134.72067,469.09104 156.35108,458.63276 C 177.98149,448.17447 204.14134,453.62010 207.04271,461.98716 z " id="path2562" sodipodi:nodetypes="ccccc" style="fill:#979797;fill-opacity:1.0000000;fill-rule:evenodd;stroke:none;stroke-linecap:butt;stroke-linejoin:miter"/>
        <path d="M 195.31918,469.19389 C 194.97890,475.40470 186.53902,489.82549 170.79864,495.78130 C 155.05826,501.73712 152.23423,498.76945 144.53880,490.77293 C 137.73625,485.45498 149.68267,469.11568 165.42306,463.15987 C 181.16345,457.20405 195.65950,462.98308 195.31918,469.19389 z " id="path2564" sodipodi:nodetypes="ccccc" style="fill:#979797;fill-opacity:1.0000000;fill-rule:evenodd;stroke:none;stroke-linecap:butt;stroke-linejoin:miter"/>
      </g>
      <path d="M 616.13850,211.63861 C 616.91527,218.07587 575.91712,287.17873 463.47779,330.64638 C 351.03845,374.11403 307.32161,432.39795 272.92985,373.10366 C 206.04968,322.87047 342.74969,331.12600 455.18904,287.65834 C 567.62838,244.19068 615.36172,205.20133 616.13850,211.63861 z " id="path2566" sodipodi:nodetypes="ccccc" style="fill:#979797;fill-opacity:1.0000000;fill-rule:evenodd;stroke:none;stroke-width:1.8750006;stroke-linejoin:miter;stroke-miterlimit:4.0000000;stroke-opacity:1.0000000"/>
      <path d="M 726.65687,421.85787 C 724.49485,431.30480 605.90326,409.33115 505.93094,385.67771 C 405.95862,362.02426 362.27630,345.60391 364.43832,336.15697 C 366.60032,326.71004 404.98863,310.02568 504.96096,333.67914 C 604.93328,357.33257 728.81888,412.41093 726.65687,421.85787 z " id="path2568" sodipodi:nodetypes="ccccc" style="fill:#979797;fill-opacity:1.0000000;fill-rule:evenodd;stroke:none;stroke-width:1.8297015;stroke-linejoin:miter;stroke-miterlimit:4.0000000;stroke-opacity:1.0000000"/>
      <path d="M 614.46032,604.75714 C 603.50727,618.70287 547.79311,578.91598 472.12873,508.39457 C 396.46434,437.87313 333.86806,356.39469 340.31398,349.24476 C 346.75990,342.09480 392.33256,347.67881 467.99695,418.20023 C 543.66134,488.72164 626.08067,588.94284 614.46032,604.75714 z " id="path2570" sodipodi:nodetypes="ccccc" style="fill:#979797;fill-opacity:1.0000000;fill-rule:evenodd;stroke:none;stroke-width:1.8297023;stroke-linejoin:miter;stroke-miterlimit:4.0000000;stroke-opacity:1.0000000"/>
      <path d="M 120.12223,35.080752 C 127.51120,28.946161 221.56469,120.59693 286.48422,201.43572 C 351.40374,282.27450 362.72688,321.84032 355.33790,327.97492 C 347.94892,334.10952 297.35841,305.02913 232.43888,224.19032 C 167.51936,143.35154 112.73325,41.215363 120.12223,35.080752 z " id="path2572" sodipodi:nodetypes="ccccc" style="fill:#979797;fill-opacity:1.0000000;fill-rule:evenodd;stroke:none;stroke-width:1.8297017;stroke-linejoin:miter;stroke-miterlimit:4.0000000;stroke-opacity:1.0000000"/>
      <path d="M -19.171328,189.27433 C -15.331198,180.39561 102.44517,208.17847 196.40441,250.19128 C 290.36363,292.20409 325.10082,332.61595 321.26069,341.49466 C 317.42055,350.37339 175.98868,311.56113 82.029436,269.54831 C -11.929798,227.53550 -23.011457,198.15305 -19.171328,189.27433 z " id="path2574" sodipodi:nodetypes="ccccc" style="fill:#979797;fill-opacity:1.0000000;fill-rule:evenodd;stroke:none;stroke-width:1.8297031;stroke-linejoin:miter;stroke-miterlimit:4.0000000;stroke-opacity:1.0000000"/>
      <g id="g2576" style="fill:#979797;fill-opacity:1.0000000;stroke:none" transform="matrix(0.967758,-1.158451e-3,1.177880e-3,0.983989,-1.116686,0.811593)">
        <path d="M 299.01413,394.81625 C 294.43144,410.74405 232.14800,429.68209 202.36975,421.11441 C 172.59150,412.54672 186.53925,379.70171 191.12194,363.77391 C 195.70463,347.84611 223.59177,341.87266 253.37001,350.44034 C 283.14826,359.00803 303.59682,378.88844 299.01413,394.81625 z " id="path2578" sodipodi:nodetypes="ccccc" style="fill:#979797;fill-opacity:1.0000000;fill-rule:evenodd;stroke:none;stroke-width:1.8750000;stroke-linejoin:miter;stroke-miterlimit:4.0000000;stroke-opacity:1.0000000"/>
        <g id="g2580" style="fill:#979797;fill-opacity:1.0000000;stroke:none" transform="matrix(0.964976,-0.262338,0.262338,0.964976,-100.9011,69.59388)">
          <path d="M 297.14286 491.64789 A 29.285715 16.428572 0 1 1  238.57143,491.64789 A 29.285715 16.428572 0 1 1  297.14286 491.64789 z" id="path2582" sodipodi:cx="267.85715" sodipodi:cy="491.64789" sodipodi:rx="29.285715" sodipodi:ry="16.428572" sodipodi:type="arc" style="fill:#979797;fill-opacity:1.0000000;fill-rule:evenodd;stroke:none;stroke-width:1.7163296;stroke-linejoin:miter;stroke-miterlimit:4.0000000;stroke-opacity:1.0000000" transform="matrix(0.873692,0.631016,-0.628951,0.911721,333.3059,-202.9990)"/>
          <path d="M 256.95756 494.82111 A 9.9752560 7.6392784 0 1 1  237.00704,494.82111 A 9.9752560 7.6392784 0 1 1  256.95756 494.82111 z" id="path2584" sodipodi:cx="246.98230" sodipodi:cy="494.82111" sodipodi:rx="9.9752560" sodipodi:ry="7.6392784" sodipodi:type="arc" style="fill:#979797;fill-opacity:1.0000000;fill-rule:evenodd;stroke:none;stroke-width:1.8750000;stroke-linejoin:miter;stroke-miterlimit:4.0000000;stroke-opacity:1.0000000" transform="matrix(0.842775,0.538266,-0.538266,0.842775,305.3255,-139.7669)"/>
        </g>
        <g id="g2586" style="fill:#979797;fill-opacity:1.0000000;stroke:none">
          <path d="M 214.28572 473.79074 A 32.857143 18.571428 0 1 1  148.57143,473.79074 A 32.857143 18.571428 0 1 1  214.28572 473.79074 z" id="path2588" sodipodi:cx="181.42857" sodipodi:cy="473.79074" sodipodi:rx="32.857143" sodipodi:ry="18.571428" sodipodi:type="arc" style="fill:#979797;fill-opacity:1.0000000;fill-rule:evenodd;stroke:none;stroke-width:1.8750000;stroke-linejoin:miter;stroke-miterlimit:4.0000000;stroke-opacity:1.0000000" transform="matrix(0.824223,0.566265,-0.566265,0.824223,312.7895,-130.1156)"/>
          <path d="M 256.95756 494.82111 A 9.9752560 7.6392784 0 1 1  237.00704,494.82111 A 9.9752560 7.6392784 0 1 1  256.95756 494.82111 z" id="path2590" sodipodi:cx="246.98230" sodipodi:cy="494.82111" sodipodi:rx="9.9752560" sodipodi:ry="7.6392784" sodipodi:type="arc" style="fill:#979797;fill-opacity:1.0000000;fill-rule:evenodd;stroke:none;stroke-width:1.8750000;stroke-linejoin:miter;stroke-miterlimit:4.0000000;stroke-opacity:1.0000000" transform="matrix(0.773767,0.633470,-0.633470,0.773767,317.3680,-170.5603)"/>
        </g>
      </g>
      <g id="g2592" style="fill:#979797;fill-opacity:1.0000000;stroke:none" transform="matrix(0.759661,0.319716,-0.357601,0.878417,207.5421,-74.47409)">
        <path d="M 209.60666 512.56189 A 42.931484 6.9447985 0 1 1  123.74369,512.56189 A 42.931484 6.9447985 0 1 1  209.60666 512.56189 z" id="path2594" sodipodi:cx="166.67517" sodipodi:cy="512.56189" sodipodi:rx="42.931484" sodipodi:ry="6.9447985" sodipodi:type="arc" style="fill:#979797;fill-opacity:1.0000000;stroke:none" transform="translate(226.0216,-104.8033)"/>
        <path d="M 209.60666 512.56189 A 42.931484 6.9447985 0 1 1  123.74369,512.56189 A 42.931484 6.9447985 0 1 1  209.60666 512.56189 z" id="path2596" sodipodi:cx="166.67517" sodipodi:cy="512.56189" sodipodi:rx="42.931484" sodipodi:ry="6.9447985" sodipodi:type="arc" style="fill:#979797;fill-opacity:1.0000000;stroke:none" transform="matrix(0.159689,0.987167,-0.987167,0.159689,925.0980,208.7228)"/>
        <path d="M 492.44937,509.40517 C 492.44937,514.98121 483.68124,511.93055 472.87766,511.93055 C 462.07408,511.93055 453.30596,514.98121 453.30596,509.40517 C 453.30596,503.82912 462.07408,499.30364 472.87766,499.30364 C 483.68124,499.30364 492.44937,503.82912 492.44937,509.40517 z " id="path2598" sodipodi:nodetypes="ccccc" style="fill:#979797;fill-opacity:1.0000000;stroke:none"/>
      </g>
      <g id="g2600" style="fill:#979797;fill-opacity:1.0000000;stroke:none" transform="matrix(1.042350,3.999620e-2,-4.249869e-2,1.052453,-13.88406,-43.31167)">
        <path d="M 209.60666 512.56189 A 42.931484 6.9447985 0 1 1  123.74369,512.56189 A 42.931484 6.9447985 0 1 1  209.60666 512.56189 z" id="path2602" sodipodi:cx="166.67517" sodipodi:cy="512.56189" sodipodi:rx="42.931484" sodipodi:ry="6.9447985" sodipodi:type="arc" style="fill:#979797;fill-opacity:1.0000000;stroke:none" transform="matrix(-0.303071,0.631362,-0.882359,-0.144771,822.4630,408.6347)"/>
        <path d="M 209.60666 512.56189 A 42.931484 6.9447985 0 1 1  123.74369,512.56189 A 42.931484 6.9447985 0 1 1  209.60666 512.56189 z" id="path2604" sodipodi:cx="166.67517" sodipodi:cy="512.56189" sodipodi:rx="42.931484" sodipodi:ry="6.9447985" sodipodi:type="arc" style="fill:#979797;fill-opacity:1.0000000;stroke:none" transform="matrix(-0.822676,0.412712,-0.177880,-0.641261,497.4193,747.4859)"/>
        <path d="M 212.70364,530.42214 C 208.23929,528.20218 214.85112,524.90855 219.98838,519.35383 C 225.12565,513.79911 226.85256,508.07639 231.31692,510.29636 C 235.78128,512.51633 235.23515,518.82621 230.09789,524.38093 C 224.96062,529.93564 217.16801,532.64211 212.70364,530.42214 z " id="path2606" sodipodi:nodetypes="ccccc" style="fill:#979797;fill-opacity:1.0000000;stroke:none"/>
      </g>
    </g>
    <g id="g1703" transform="matrix(0.776863,0.000000,0.000000,0.702338,113.9985,132.5161)">
      <g id="g2508" transform="matrix(0.000000,-0.983990,-0.967759,0.000000,836.9121,709.2848)">
        <path d="M 209.60666 512.56189 A 42.931484 6.9447985 0 1 1  123.74369,512.56189 A 42.931484 6.9447985 0 1 1  209.60666 512.56189 z" id="path2502" sodipodi:cx="166.67517" sodipodi:cy="512.56189" sodipodi:rx="42.931484" sodipodi:ry="6.9447985" sodipodi:type="arc" style="fill:url(#linearGradient1737);fill-opacity:1.0000000;stroke:none" transform="matrix(-0.303071,0.631362,-0.882359,-0.144771,822.5555,574.9660)"/>
        <path d="M 209.60666 512.56189 A 42.931484 6.9447985 0 1 1  123.74369,512.56189 A 42.931484 6.9447985 0 1 1  209.60666 512.56189 z" id="path2503" sodipodi:cx="166.67517" sodipodi:cy="512.56189" sodipodi:rx="42.931484" sodipodi:ry="6.9447985" sodipodi:type="arc" style="fill:url(#linearGradient1739);fill-opacity:1.0000000;stroke:none" transform="matrix(-0.822676,0.412712,-0.177880,-0.641261,497.5118,913.8172)"/>
        <path d="M 212.79617,696.75340 C 208.33182,694.53344 214.94365,691.23981 220.08091,685.68509 C 225.21818,680.13037 226.94509,674.40765 231.40945,676.62762 C 235.87381,678.84759 235.32768,685.15747 230.19042,690.71219 C 225.05315,696.26690 217.26054,698.97337 212.79617,696.75340 z " id="path2504" sodipodi:nodetypes="ccccc" style="fill:url(#linearGradient1741);fill-opacity:1.0000000;stroke:none"/>
      </g>
      <g id="g2475" transform="matrix(0.967759,0.000000,0.000000,0.983990,-6.777806,-6.912654)">
        <path d="M 209.60666 512.56189 A 42.931484 6.9447985 0 1 1  123.74369,512.56189 A 42.931484 6.9447985 0 1 1  209.60666 512.56189 z" id="path1835" sodipodi:cx="166.67517" sodipodi:cy="512.56189" sodipodi:rx="42.931484" sodipodi:ry="6.9447985" sodipodi:type="arc" style="fill:url(#linearGradient1743);fill-opacity:1.0000000;stroke:none" transform="translate(226.0216,-104.8033)"/>
        <path d="M 209.60666 512.56189 A 42.931484 6.9447985 0 1 1  123.74369,512.56189 A 42.931484 6.9447985 0 1 1  209.60666 512.56189 z" id="path1836" sodipodi:cx="166.67517" sodipodi:cy="512.56189" sodipodi:rx="42.931484" sodipodi:ry="6.9447985" sodipodi:type="arc" style="fill:url(#linearGradient1745);fill-opacity:1.0000000;stroke:none" transform="matrix(0.159689,0.987167,-0.987167,0.159689,925.0980,208.7228)"/>
        <path d="M 492.44937,509.40517 C 492.44937,514.98121 483.68124,511.93055 472.87766,511.93055 C 462.07408,511.93055 453.30596,514.98121 453.30596,509.40517 C 453.30596,503.82912 462.07408,499.30364 472.87766,499.30364 C 483.68124,499.30364 492.44937,503.82912 492.44937,509.40517 z " id="path1837" sodipodi:nodetypes="ccccc" style="fill:url(#linearGradient1747);fill-opacity:1.0000000;stroke:none"/>
      </g>
      <g id="g1819" style="stroke:#676766;stroke-width:0.75000000;stroke-miterlimit:4.0000000;stroke-opacity:0.45644596" transform="matrix(0.927522,-0.276153,0.280785,0.943078,-69.94351,-5.511534)">
        <path d="M 207.04271,461.98716 C 209.94407,470.35421 204.56511,490.98989 182.93469,501.44817 C 161.30429,511.90646 142.28731,516.28225 133.13594,499.87949 C 124.87743,488.83387 134.72067,469.09104 156.35108,458.63276 C 177.98149,448.17447 204.14134,453.62010 207.04271,461.98716 z " id="path1190" sodipodi:nodetypes="ccccc" style="fill:url(#radialGradient1749);fill-opacity:1.0000000;fill-rule:evenodd;stroke-linecap:butt;stroke-linejoin:miter"/>
        <path d="M 195.31918,469.19389 C 194.97890,475.40470 186.53902,489.82549 170.79864,495.78130 C 155.05826,501.73712 152.23423,498.76945 144.53880,490.77293 C 137.73625,485.45498 149.68267,469.11568 165.42306,463.15987 C 181.16345,457.20405 195.65950,462.98308 195.31918,469.19389 z " id="path1817" sodipodi:nodetypes="ccccc" style="fill:url(#radialGradient1751);fill-opacity:1.0000000;fill-rule:evenodd;stroke-linecap:butt;stroke-linejoin:miter"/>
      </g>
      <path d="M 616.13850,211.63861 C 616.91527,218.07587 575.91712,287.17873 463.47779,330.64638 C 351.03845,374.11403 307.32161,432.39795 272.92985,373.10366 C 206.04968,322.87047 342.74969,331.12600 455.18904,287.65834 C 567.62838,244.19068 615.36172,205.20133 616.13850,211.63861 z " id="path1292" sodipodi:nodetypes="ccccc" style="fill:url(#linearGradient1753);fill-opacity:1.0000000;fill-rule:evenodd;stroke:none;stroke-width:1.8750006;stroke-linejoin:miter;stroke-miterlimit:4.0000000;stroke-opacity:1.0000000"/>
      <path d="M 726.65687,421.85787 C 724.49485,431.30480 605.90326,409.33115 505.93094,385.67771 C 405.95862,362.02426 362.27630,345.60391 364.43832,336.15697 C 366.60032,326.71004 404.98863,310.02568 504.96096,333.67914 C 604.93328,357.33257 728.81888,412.41093 726.65687,421.85787 z " id="path1294" sodipodi:nodetypes="ccccc" style="fill:url(#linearGradient1755);fill-opacity:1.0000000;fill-rule:evenodd;stroke:#000000;stroke-width:1.8297015;stroke-linejoin:miter;stroke-miterlimit:4.0000000;stroke-opacity:1.0000000"/>
      <path d="M 614.46032,604.75714 C 603.50727,618.70287 547.79311,578.91598 472.12873,508.39457 C 396.46434,437.87313 333.86806,356.39469 340.31398,349.24476 C 346.75990,342.09480 392.33256,347.67881 467.99695,418.20023 C 543.66134,488.72164 626.08067,588.94284 614.46032,604.75714 z " id="path1296" sodipodi:nodetypes="ccccc" style="fill:url(#linearGradient1757);fill-opacity:1.0000000;fill-rule:evenodd;stroke:#000000;stroke-width:1.8297023;stroke-linejoin:miter;stroke-miterlimit:4.0000000;stroke-opacity:1.0000000"/>
      <path d="M 120.12223,35.080752 C 127.51120,28.946161 221.56469,120.59693 286.48422,201.43572 C 351.40374,282.27450 362.72688,321.84032 355.33790,327.97492 C 347.94892,334.10952 297.35841,305.02913 232.43888,224.19032 C 167.51936,143.35154 112.73325,41.215363 120.12223,35.080752 z " id="path1300" sodipodi:nodetypes="ccccc" style="fill:url(#linearGradient1759);fill-opacity:1.0000000;fill-rule:evenodd;stroke:#000000;stroke-width:1.8297017;stroke-linejoin:miter;stroke-miterlimit:4.0000000;stroke-opacity:1.0000000"/>
      <path d="M -19.171328,189.27433 C -15.331198,180.39561 102.44517,208.17847 196.40441,250.19128 C 290.36363,292.20409 325.10082,332.61595 321.26069,341.49466 C 317.42055,350.37339 175.98868,311.56113 82.029436,269.54831 C -11.929798,227.53550 -23.011457,198.15305 -19.171328,189.27433 z " id="path1298" sodipodi:nodetypes="ccccc" style="fill:url(#linearGradient1761);fill-opacity:1.0000000;fill-rule:evenodd;stroke:#000000;stroke-width:1.8297031;stroke-linejoin:miter;stroke-miterlimit:4.0000000;stroke-opacity:1.0000000"/>
      <g id="g1849" transform="matrix(0.967758,-1.158451e-3,1.177880e-3,0.983989,-1.116686,0.811593)">
        <path d="M 299.01413,394.81625 C 294.43144,410.74405 232.14800,429.68209 202.36975,421.11441 C 172.59150,412.54672 186.53925,379.70171 191.12194,363.77391 C 195.70463,347.84611 223.59177,341.87266 253.37001,350.44034 C 283.14826,359.00803 303.59682,378.88844 299.01413,394.81625 z " id="path1302" sodipodi:nodetypes="ccccc" style="fill:url(#radialGradient1763);fill-opacity:1.0000000;fill-rule:evenodd;stroke:none;stroke-width:1.8750000;stroke-linejoin:miter;stroke-miterlimit:4.0000000;stroke-opacity:1.0000000"/>
        <g id="g1824" transform="matrix(0.964976,-0.262338,0.262338,0.964976,-100.9011,69.59388)">
          <path d="M 297.14286 491.64789 A 29.285715 16.428572 0 1 1  238.57143,491.64789 A 29.285715 16.428572 0 1 1  297.14286 491.64789 z" id="path1308" sodipodi:cx="267.85715" sodipodi:cy="491.64789" sodipodi:rx="29.285715" sodipodi:ry="16.428572" sodipodi:type="arc" style="fill:url(#radialGradient1765);fill-opacity:1.0000000;fill-rule:evenodd;stroke:none;stroke-width:1.7163296;stroke-linejoin:miter;stroke-miterlimit:4.0000000;stroke-opacity:1.0000000" transform="matrix(0.873692,0.631016,-0.628951,0.911721,333.3059,-202.9990)"/>
          <path d="M 256.95756 494.82111 A 9.9752560 7.6392784 0 1 1  237.00704,494.82111 A 9.9752560 7.6392784 0 1 1  256.95756 494.82111 z" id="path7458" sodipodi:cx="246.98230" sodipodi:cy="494.82111" sodipodi:rx="9.9752560" sodipodi:ry="7.6392784" sodipodi:type="arc" style="fill:#000000;fill-opacity:1.0000000;fill-rule:evenodd;stroke:none;stroke-width:1.8750000;stroke-linejoin:miter;stroke-miterlimit:4.0000000;stroke-opacity:1.0000000" transform="matrix(0.842775,0.538266,-0.538266,0.842775,305.3255,-139.7669)"/>
        </g>
        <g id="g1827">
          <path d="M 214.28572 473.79074 A 32.857143 18.571428 0 1 1  148.57143,473.79074 A 32.857143 18.571428 0 1 1  214.28572 473.79074 z" id="path1310" sodipodi:cx="181.42857" sodipodi:cy="473.79074" sodipodi:rx="32.857143" sodipodi:ry="18.571428" sodipodi:type="arc" style="fill:url(#radialGradient1767);fill-opacity:1.0000000;fill-rule:evenodd;stroke:none;stroke-width:1.8750000;stroke-linejoin:miter;stroke-miterlimit:4.0000000;stroke-opacity:1.0000000" transform="matrix(0.824223,0.566265,-0.566265,0.824223,312.7895,-130.1156)"/>
          <path d="M 256.95756 494.82111 A 9.9752560 7.6392784 0 1 1  237.00704,494.82111 A 9.9752560 7.6392784 0 1 1  256.95756 494.82111 z" id="path7460" sodipodi:cx="246.98230" sodipodi:cy="494.82111" sodipodi:rx="9.9752560" sodipodi:ry="7.6392784" sodipodi:type="arc" style="fill:#000000;fill-opacity:1.0000000;fill-rule:evenodd;stroke:none;stroke-width:1.8750000;stroke-linejoin:miter;stroke-miterlimit:4.0000000;stroke-opacity:1.0000000" transform="matrix(0.773767,0.633470,-0.633470,0.773767,317.3680,-170.5603)"/>
        </g>
      </g>
      <g id="g2479" transform="matrix(0.759661,0.319716,-0.357601,0.878417,207.5421,-74.47409)">
        <path d="M 209.60666 512.56189 A 42.931484 6.9447985 0 1 1  123.74369,512.56189 A 42.931484 6.9447985 0 1 1  209.60666 512.56189 z" id="path2480" sodipodi:cx="166.67517" sodipodi:cy="512.56189" sodipodi:rx="42.931484" sodipodi:ry="6.9447985" sodipodi:type="arc" style="fill:url(#linearGradient1769);fill-opacity:1.0000000;stroke:none" transform="translate(226.0216,-104.8033)"/>
        <path d="M 209.60666 512.56189 A 42.931484 6.9447985 0 1 1  123.74369,512.56189 A 42.931484 6.9447985 0 1 1  209.60666 512.56189 z" id="path2481" sodipodi:cx="166.67517" sodipodi:cy="512.56189" sodipodi:rx="42.931484" sodipodi:ry="6.9447985" sodipodi:type="arc" style="fill:url(#linearGradient1771);fill-opacity:1.0000000;stroke:none" transform="matrix(0.159689,0.987167,-0.987167,0.159689,925.0980,208.7228)"/>
        <path d="M 492.44937,509.40517 C 492.44937,514.98121 483.68124,511.93055 472.87766,511.93055 C 462.07408,511.93055 453.30596,514.98121 453.30596,509.40517 C 453.30596,503.82912 462.07408,499.30364 472.87766,499.30364 C 483.68124,499.30364 492.44937,503.82912 492.44937,509.40517 z " id="path2482" sodipodi:nodetypes="ccccc" style="fill:url(#linearGradient1773);fill-opacity:1.0000000;stroke:none"/>
      </g>
      <g id="g2778" transform="matrix(1.042350,3.999620e-2,-4.249869e-2,1.052453,-13.88406,-43.31167)">
        <path d="M 209.60666 512.56189 A 42.931484 6.9447985 0 1 1  123.74369,512.56189 A 42.931484 6.9447985 0 1 1  209.60666 512.56189 z" id="path2490" sodipodi:cx="166.67517" sodipodi:cy="512.56189" sodipodi:rx="42.931484" sodipodi:ry="6.9447985" sodipodi:type="arc" style="fill:url(#linearGradient1775);fill-opacity:1.0000000;stroke:none" transform="matrix(-0.303071,0.631362,-0.882359,-0.144771,822.4630,408.6347)"/>
        <path d="M 209.60666 512.56189 A 42.931484 6.9447985 0 1 1  123.74369,512.56189 A 42.931484 6.9447985 0 1 1  209.60666 512.56189 z" id="path2491" sodipodi:cx="166.67517" sodipodi:cy="512.56189" sodipodi:rx="42.931484" sodipodi:ry="6.9447985" sodipodi:type="arc" style="fill:url(#linearGradient1777);fill-opacity:1.0000000;stroke:none" transform="matrix(-0.822676,0.412712,-0.177880,-0.641261,497.4193,747.4859)"/>
        <path d="M 212.70364,530.42214 C 208.23929,528.20218 214.85112,524.90855 219.98838,519.35383 C 225.12565,513.79911 226.85256,508.07639 231.31692,510.29636 C 235.78128,512.51633 235.23515,518.82621 230.09789,524.38093 C 224.96062,529.93564 217.16801,532.64211 212.70364,530.42214 z " id="path2492" sodipodi:nodetypes="ccccc" style="fill:url(#linearGradient1779);fill-opacity:1.0000000;stroke:none"/>
      </g>
    </g>
  </g>
</svg>
