<?xml version="1.0" encoding="UTF-8" standalone="no"?>
<!-- Generator: Adobe Illustrator 12.0.0, SVG Export Plug-In . SVG Version: 6.00 Build 51448)  --><svg height="269.624" id="Layer_1" inkscape:version="0.40+cvs" sodipodi:docbase="F:\openclip\svg da inviare" sodipodi:docname="zanzara cretina.svg" sodipodi:version="0.32" style="overflow:visible;enable-background:new 0 0 104.85 269.624;" version="1.1" viewBox="0 0 104.85 269.624" width="104.85" xml:space="preserve" xmlns="http://www.w3.org/2000/svg" xmlns:cc="http://web.resource.org/cc/" xmlns:dc="http://purl.org/dc/elements/1.1/" xmlns:inkscape="http://www.inkscape.org/namespaces/inkscape" xmlns:rdf="http://www.w3.org/1999/02/22-rdf-syntax-ns#" xmlns:sodipodi="http://inkscape.sourceforge.net/DTD/sodipodi-0.dtd" xmlns:svg="http://www.w3.org/2000/svg" xmlns:xml="http://www.w3.org/XML/1998/namespace"><metadata><rdf:RDF xmlns:cc="http://web.resource.org/cc/" xmlns:dc="http://purl.org/dc/elements/1.1/" xmlns:rdf="http://www.w3.org/1999/02/22-rdf-syntax-ns#"><cc:Work rdf:about=""><dc:title>Zanzara cretina</dc:title><dc:description></dc:description><dc:subject><rdf:Bag><rdf:li>insect</rdf:li></rdf:Bag></dc:subject><dc:publisher><cc:Agent rdf:about="http://www.openclipart.org/"><dc:title>Open Clip Art Library</dc:title></cc:Agent></dc:publisher><dc:creator><cc:Agent><dc:title>Architetto Francesco Rollandin</dc:title></cc:Agent></dc:creator><dc:rights><cc:Agent><dc:title>Architetto Francesco Rollandin</dc:title></cc:Agent></dc:rights><dc:date></dc:date><dc:format>image/svg+xml</dc:format><dc:type rdf:resource="http://purl.org/dc/dcmitype/StillImage"/><cc:license rdf:resource="http://web.resource.org/cc/PublicDomain"/><dc:language>en</dc:language></cc:Work><cc:License rdf:about="http://web.resource.org/cc/PublicDomain"><cc:permits rdf:resource="http://web.resource.org/cc/Reproduction"/><cc:permits rdf:resource="http://web.resource.org/cc/Distribution"/><cc:permits rdf:resource="http://web.resource.org/cc/DerivativeWorks"/></cc:License></rdf:RDF></metadata>
<defs id="defs678"></defs>
<sodipodi:namedview bordercolor="#666666" borderopacity="1.0" id="base" inkscape:current-layer="Layer_1" inkscape:cx="52.425005" inkscape:cy="134.81200" inkscape:pageopacity="0.0" inkscape:pageshadow="2" inkscape:window-height="540" inkscape:window-width="640" inkscape:window-x="66" inkscape:window-y="87" inkscape:zoom="1.4019524" pagecolor="#ffffff"></sodipodi:namedview>

<path d="  M44.288,98.467c0.084,4.142-2.786,8.638-3.909,12.574c-1.329,4.657-2.631,9.441-4.43,13.942c-0.918,2.298-1.763,4.587-2.544,6.933  c-0.789,2.369-2.408,4.172-3.378,6.389c-1.82,4.154-3.037,8.745-5.255,12.778c-1.01,1.836-2.369,3.558-3.531,5.304  c-1.369,2.055-1.699,4.344-2.179,6.746c-0.401,2.008-1.046,3.912-1.046,5.966c0,1.679,0.205,5.815,1.667,6.913  c4.043,3.035,7.888,5.088,12.971,3.634c4.009-1.146,8.751-4,10.688-7.878c0.594-1.188,2.022-2.219,2.963-3.161  c0.887-0.89,1.33-3.184,1.93-4.384c0.614-1.231,0.933-2.621,1.501-3.759c0.576-1.154,0.979-3.79,1.682-4.495  c1.934-1.938,1.7-6.48,2.038-9.172c0.393-3.151,0.678-6.23,0.865-9.399c0.194-3.309,0.291-6.63,0.702-9.919  c0.459-3.674,0.384-4.515-1.099-7.783C50.712,112.619,47.5,105.543,44.288,98.467" id="path3" style="fill-rule:evenodd;clip-rule:evenodd;fill:#E5E5E5;stroke:#000000;stroke-width:0;stroke-linecap:square;stroke-miterlimit:10;"></path>

<path d="M42.787,111.997  c-0.051,4.303-3.38,9.4-4.739,13.482c-1.644,4.938-3.69,9.499-5.609,14.304c-1.933,4.838-3.03,9.563-5.618,14.098  c-1.897,3.325-3.955,9.857-3.551,13.738" id="path5" style="fill:none;stroke:#666666;stroke-width:0;stroke-linecap:square;stroke-miterlimit:10;"></path>

<path d="M44.288,113.5  c0.317,3.036-1.393,6.761-2.21,9.624c-1.001,3.509-1.261,7.523-2.06,11.117c-1.47,6.627-3.095,13.272-4.736,19.849" id="path7" style="fill:none;stroke:#666666;stroke-width:0;stroke-linecap:square;stroke-miterlimit:10;"></path>

<path d="M33.78,144.318  c1.26,6.308,0.578,12.426,0,18.79" id="path9" style="fill:none;stroke:#666666;stroke-width:0;stroke-linecap:square;stroke-miterlimit:10;"></path>

<line id="line11" style="fill:none;stroke:#666666;stroke-width:0;stroke-linecap:square;stroke-miterlimit:10;" x1="32.278" x2="30.776" y1="166.116" y2="169.123"></line>

<line id="line13" style="fill:none;stroke:#666666;stroke-width:0;stroke-linecap:square;stroke-miterlimit:10;" x1="30.776" x2="29.276" y1="171.378" y2="174.384"></line>

<path d="M49.542,118.009  c-1.661,8.314-4.206,16.399-5.255,24.805" id="path15" style="fill:none;stroke:#666666;stroke-width:0;stroke-linecap:square;stroke-miterlimit:10;"></path>

<path d="M33.78,174.384  c1.244-1.036,1.974-2.729,3.168-3.926c1.2-1.202,2.158-2.783,2.835-4.342" id="path17" style="fill:none;stroke:#666666;stroke-width:0;stroke-linecap:square;stroke-miterlimit:10;"></path>

<path d="  M61.552,96.964c0.102,3.144,4.714,8.582,6.534,11.316c1.205,1.811,2.653,3.485,3.976,5.22c1.479,1.938,2.371,3.878,4.129,5.637  c0.763,0.764,3.378,3.474,3.378,3.772c0,2.294,3.183,3.339,4.504,4.872c2.935,3.406,4.796,7.811,8.022,11.039  c3.367,3.372,5.334,6.714,7.741,10.759c1.354,2.274,2.309,3.298,2.853,6.021c0.442,2.215,0.766,4.454,1.137,6.682  c0.822,4.942,1.856,9.491-0.077,14.334c-1.862,4.661-5.152,7.54-10.293,7.54c-1.602,0-4.146-0.98-5.631-1.503  c-1.92-0.677-3.792-1.899-5.615-2.813c-3.693-1.848-6.257-4.566-9.162-7.476c-6.259-6.27-9.619-14.534-10.496-23.31  c-0.871-8.715-2.85-17.314-3.936-26.011C57.565,114.639,58.904,104.917,61.552,96.964" id="path19" style="fill-rule:evenodd;clip-rule:evenodd;fill:#E5E5E5;stroke:#000000;stroke-width:0;stroke-linecap:square;stroke-miterlimit:10;"></path>

<path d="M83.32,161.606  c0,4.259,0,8.519,0,12.777" id="path21" style="fill:none;stroke:#666666;stroke-width:0;stroke-linecap:square;stroke-miterlimit:10;"></path>

<path d="M60.051,98.467  c1.307,1.118,0.811,2.66,2.613,3.563c0.406,0.203,2.504,3.677,2.836,4.343c1.605,3.213,3.611,5.702,5.589,8.672  c1.953,2.932,4.428,5.372,6.033,8.588c1.369,2.741,3.787,6.323,6.561,7.711c1.188,0.594,1.632,2.942,2.642,3.953  c1.018,1.02,2.563,2.88,3.197,4.147c1.572,3.15,4.387,5.781,6.005,9.021c1.51,3.021,3.541,6.303,4.365,9.604  c0.92,3.685,1.008,7.476,2.195,11.053" id="path23" style="fill:none;stroke:#666666;stroke-width:0;stroke-linecap:square;stroke-miterlimit:10;"></path>

<path d="M87.824,139.808  c1.138,7.973,3.17,14.613,6.757,21.799" id="path25" style="fill:none;stroke:#666666;stroke-width:0;stroke-linecap:square;stroke-miterlimit:10;"></path>

<line id="line27" style="fill:none;stroke:#666666;stroke-width:0;stroke-linecap:square;stroke-miterlimit:10;" x1="96.082" x2="97.584" y1="163.108" y2="166.116"></line>

<line id="line29" style="fill:none;stroke:#666666;stroke-width:0;stroke-linecap:square;stroke-miterlimit:10;" x1="99.085" x2="100.587" y1="167.619" y2="169.123"></line>

<path d="M89.326,155.593  c-1.404-1.203-1.99-4.28-3.002-6.014c-1.274-2.182-2.198-4.429-3.599-6.529c-0.517-0.778-0.418-2.001-1.072-2.657  c-1.073-1.075-1.982-1.781-2.46-3.215c-0.808-2.426-2.719-4.408-3.495-6.742c-0.783-2.352-2.303-4.494-3.441-6.774  c-0.416-0.834-1.696-1.352-1.696-2.284c0-1.462-1.501-1.808-1.501-2.992c0-1.037-0.81-1.938-1.502-2.631  c-0.981-0.983-0.919-2.132-1.657-3.241c-1.513-2.271-3.118-4.067-4.349-6.53" id="path31" style="fill:none;stroke:#666666;stroke-width:0;stroke-linecap:square;stroke-miterlimit:10;"></path>

<path d="M61.552,108.99  c-0.422,1.944,2.178,5.449,2.921,7.308c0.986,2.469,1.491,5.192,2.335,7.726c0.785,2.362,1.097,5.59,2.349,7.678  c0.654,1.092,1.793,2.381,2.155,3.597c0.564,1.899-0.199,2.709,0.973,4.468c1.277,1.92,1.713,4.67,2.78,6.808  c1.282,2.567,2.836,4.926,4.115,7.488c1.313,2.631,2.245,4.143,4.375,6.277c0.928,0.927,1.381,2.133,2.253,3.005  c1.082,1.084,2.567,1.628,3.519,2.772" id="path33" style="fill:none;stroke:#666666;stroke-width:0;stroke-linecap:square;stroke-miterlimit:10;"></path>

<path d="M74.313,146.573  c0,8.277,1.502,16.477,1.502,24.805" id="path35" style="fill:none;stroke:#666666;stroke-width:0;stroke-linecap:square;stroke-miterlimit:10;"></path>

<path d="  M67.558,265.334c2.172,2.938-0.046,3.008-2.46,3.008c-2.354,0-4.881-0.24-7.212,0.094c-2.665,0.382-5.329,0.749-8.001,1.084  c-2.971,0.373-5.142-0.313-8.076-1.048c-0.699-0.175-2.206-0.522-1.831-1.271c0.341-0.684,0.756-1.866,1.657-1.866  c2.794,0,5.59,0,8.385,0C55.866,265.334,61.712,265.334,67.558,265.334" id="path37" style="fill-rule:evenodd;clip-rule:evenodd;fill:#7F7F7F;stroke:#000000;stroke-width:0;stroke-linecap:square;stroke-miterlimit:10;"></path>

<path d="  M61.552,254.811c2.487-3.634,4.504-0.179,4.504,2.618c0,1.739,1.176,0.584,1.558,2.115c0.419,1.678,0.695,3.008,0.695,4.732  c0,3.307-4.876,2.561-7.131,2.561c-3.277,0-6.354,0.279-9.61,0.688c-1.904,0.238-6.616,0.915-8.191-0.032  c-0.589-0.354-3.688-1.775-3.537-2.381c0.368-1.477,0.632-2.678,1.408-3.973c1.46-2.438,3.998-4.823,7.169-4.823  c1.363,0,7.163,1.196,7.882,2.254c1.138-0.871-0.988-2.677,0.353-3.124C58.404,254.859,59.691,254.811,61.552,254.811" id="path39" style="fill-rule:evenodd;clip-rule:evenodd;fill:#E5E5E5;stroke:#000000;stroke-width:0;stroke-linecap:square;stroke-miterlimit:10;"></path>

<path d="M58.55,256.315c0-0.251,0-0.502,0-0.752  c1.147,1.755,4.473-1.112,5.254-1.504C62.119,256.145,61.629,256.315,58.55,256.315" id="path41" style="fill-rule:evenodd;clip-rule:evenodd;fill:#B2B2B2;"></path>

<path d="  M39.784,265.334c-0.017,0.973,1.043,1.964,0.375,2.631c-0.876,0.878-2.731,0.849-3.919,1.086c-2.313,0.464-5.226,0.183-7.576-0.153  c-2.767-0.396-5.617-1.078-8.396-1.309c-1.292-0.105-2.608-0.668-3.754-0.752c-0.472-0.034-1.035,0.812-1.5,0.752  c-0.741-0.093-1.541-0.514-2.251-0.752c0.961-3.797,9.31-2.254,12.19-2.254C29.948,264.583,34.793,265.334,39.784,265.334" id="path43" style="fill-rule:evenodd;clip-rule:evenodd;fill:#7F7F7F;stroke:#000000;stroke-width:0;stroke-linecap:square;stroke-miterlimit:10;"></path>

<path d="  M19.517,253.308c-2.702-1.35-4.504-1.847-4.504,1.893c0,2.627-2.251,4.688-2.251,7.434c0,2.166,0.121,2.08,2.251,2.7  c1.108,0.323,2.258,0.505,3.354,0.87c2.954,0.984,6.377,0.844,9.496,1.291c2.617,0.375,5.402,0.094,8.044,0.094  c0.931,0,2.498-1.425,3.292-1.902c1.14-0.685,0.112-2.724-0.123-3.902c-1.257-6.292-8.365-6.187-12.803-3.966  c0.108-0.478-0.104-1.025,0-1.503c-0.852,0.283-1.946,1.055-2.627,0.375c-0.437-0.437,0.375-1.345,0.375-2.241  C24.021,253.455,20.474,253.208,19.517,253.308" id="path45" style="fill-rule:evenodd;clip-rule:evenodd;fill:#E5E5E5;stroke:#000000;stroke-width:0;stroke-linecap:square;stroke-miterlimit:10;"></path>

<path d="M23.27,254.811c-1.919,0-4.754-0.79-6.005-2.254  C19.143,255.491,19.575,255.551,23.27,254.811" id="path47" style="fill-rule:evenodd;clip-rule:evenodd;fill:#B2B2B2;"></path>

<path d="  M38.282,220.986c-2.743,6.307-7.487,11.974-9.64,18.439c-0.476,1.427-1.633,2.646-2.209,4.086c-0.699,1.748-1.021,3.538-1.662,5.287  c-1.049,2.864-2.887,7.062-5.254,9.02c-3.458-2.373,0.753-7.896,2.475-10.481c2.318-3.482,3.334-7.64,5.626-11.083  c1.966-2.951,3.908-7.747,5.036-11.134c0.572-1.718,2.627-3.462,2.627-5.274c0-0.982,0.657-2.286,1.89-1.671  C38.626,218.903,38.282,219.372,38.282,220.986" id="path49" style="fill-rule:evenodd;clip-rule:evenodd;fill:#E4BC96;stroke:#000000;stroke-width:0;stroke-linecap:square;stroke-miterlimit:10;"></path>

<path d="M36.781,220.986  c-2.851,5.722-5.63,11.429-8.257,17.288c-1.336,2.981-2.933,5.874-4.393,8.798c-1.406,2.818-3.641,4.815-4.615,7.738" id="path51" style="fill:none;stroke:#FFE07A;stroke-width:0;stroke-linecap:square;stroke-miterlimit:10;"></path>

<path d="  M42.787,172.881c-1.55,9.312-2.122,18.442-3.003,27.812c-0.452,4.815-1.502,9.496-1.502,14.343c0,1.354,0.623,5.329-0.234,6.187  c-1.9,1.902-3.904,1.334-3.4-1.691c1.522-9.142,1.454-18.806,2.381-28.084c0.464-4.643,1.253-9.33,1.253-13.995  c0-1.956-0.54-4.78,0.985-6.309C41.536,168.871,42.787,169.972,42.787,172.881" id="path53" style="fill-rule:evenodd;clip-rule:evenodd;fill:#E4BC96;stroke:#000000;stroke-width:0;stroke-linecap:square;stroke-miterlimit:10;"></path>

<path d="M38.282,189.418  c-0.976,9.776-1.5,19.488-1.5,29.313" id="path55" style="fill:none;stroke:#FFE07A;stroke-width:0;stroke-linecap:square;stroke-miterlimit:10;"></path>

<path d="  M60.051,127.782c0.717,2.059,2.635,3.772,3.643,5.79c1.015,2.032,1.032,4.245,2.362,6.236c1.408,2.105,2.166,3.409,2.809,5.986  c0.528,2.117-0.556,4.552-0.556,6.768c0,1.378,0.625,5.202-0.125,6.204c-1.174,1.567-3.628,4.158-3.628,6.236  c0,4.347-2.523,8.898-5.631,12.013c-2.922,2.928-5.862,6.883-9.771,8.84c-2.53,1.266-3.432,2.059-6.367,2.059  c-2.725,0-4.072-1.173-5.095-3.733c-1.857-4.648-0.659-10.056-0.172-14.93c0.415-4.155,0.792-8.541,1.609-12.634  c0.712-3.563,1.386-6.978,2.532-10.419c1.048-3.147,2.65-5.683,4.128-8.645c1.361-2.726,2.161-6.265,4.504-8.268  C53.229,126.775,56.543,126.609,60.051,127.782" id="path57" style="fill-rule:evenodd;clip-rule:evenodd;fill:#E4BC96;stroke:#000000;stroke-width:0;stroke-linecap:square;stroke-miterlimit:10;"></path>

<path d="M55.548,130.788c2.748,1.577,3.643,1.284,5.143,4.288  c1.178,2.356,1.806,4.195,2.321,6.779c0.83,4.155,1.372,8.924,0.767,13.167c-1.343,9.415-4.126,19.683-11.819,25.846  c-2.444,1.958-3.998,2.814-6.967,3.805c-3.157,1.055-3.074-0.752-4.264-3.133c-0.765-1.533-0.945-5.067-0.945-6.848  c0-2.532,0.751-4.942,0.751-7.511c0-8.738,2.528-18.154,6.395-25.897C49.266,136.604,50.228,132.563,55.548,130.788" id="path59" style="fill-rule:evenodd;clip-rule:evenodd;fill:#E4BC96;"></path>

<path d="M55.548,133.795c8.744,2.919,8.727,17.143,6.599,24.601  c-1.448,5.075-2.53,9.5-5.47,13.916c-2.959,4.448-6.424,7.029-11.254,9.102c-5.496,2.357-4.138-6.323-4.138-9.492  c0-4.914,0.39-9.261,1.353-14.08c0.9-4.506,2.999-8.4,4.097-12.799c0.968-3.88,3.592-9.504,7.688-10.872  C54.798,134.045,55.173,133.919,55.548,133.795" id="path61" style="fill-rule:evenodd;clip-rule:evenodd;fill:#DDB650;"></path>

<path d="M55.548,135.298c7.912,2.701,7.671,16.711,5.849,23.098  c-2.169,7.6-5.568,20.264-14.857,22.002c-7.713,1.443-3.1-19.058-2.293-23.094C45.666,150.196,47.779,137.892,55.548,135.298" id="path63" style="fill-rule:evenodd;clip-rule:evenodd;fill:#D4AE48;"></path>

<path d="M55.548,136.801c4.087,1.396,4.568,5.588,5.296,9.229  c0.773,3.877,0.585,8.626-0.042,12.57c-1.22,7.662-6.504,16.412-13.484,19.905c-4.5,2.252-3.781-6.172-3.781-8.631  c0-2.122,0.041-3.965,0.455-6.037c0.336-1.681-0.22-3.946,0.378-5.445C47.01,151.784,47.877,139.362,55.548,136.801" id="path65" style="fill-rule:evenodd;clip-rule:evenodd;fill:#CCA53F;"></path>

<path d="M55.548,138.305c3.523,0.955,3.854,6.132,4.503,9.02  c0.856,3.81-0.052,6.702-0.751,10.523c-0.744,4.068-1.786,7.34-3.641,11.053c-0.54,1.081-1.524,3.562-2.585,4.092  c-1.217,0.609-3.764,2.686-5.033,2.895c-5.825,0.964-2.717-15.708-2.103-18.783c0.729-3.653,2.413-6.819,3.149-10.506  C49.734,143.362,52.224,139.463,55.548,138.305" id="path67" style="fill-rule:evenodd;clip-rule:evenodd;fill:#C39D37;"></path>

<path d="M55.548,139.808c2.772,2.776,3.752,4.238,3.752,8.269  c0,3.562-0.01,6.818-0.708,10.315c-0.559,2.793-1.968,6.539-3.658,8.796c-2.175,2.903-2.799,5.832-6.54,7.079  c-3.558,1.186-2.882-5.258-2.604-7.399c0.424-3.27,0.719-6.57,1.264-9.847c0.294-1.771,0.988-3.307,1.656-4.978  c0.524-1.313,0.313-2.926,0.944-4.189C51.087,144.982,52.219,140.97,55.548,139.808" id="path69" style="fill-rule:evenodd;clip-rule:evenodd;fill:#BB942E;"></path>

<path d="M55.548,142.814c3.747,3.123,4.314,11.648,2.252,15.785  c-1.187,2.378-1.982,5.041-3.002,7.517c-0.682,1.651-2.973,6.765-5.255,6.765c-3.15,0-2.252-5.678-2.252-7.523  c0-1.309,0.594-2.467,0.75-3.751c0.182-1.482-0.181-3.028,0-4.511c0.326-2.671,1.807-4.978,2.447-7.545  C51.173,146.806,52.65,143.822,55.548,142.814" id="path71" style="fill-rule:evenodd;clip-rule:evenodd;fill:#B28C26;"></path>

<path d="M58.55,127.782c1.849,1.668,2.614,3.928,3.976,5.971  c1.418,2.131,3.198,4.215,1.278,6.807c-1.837-1.534-1.646-4.05-2.642-6.042C60.418,133.026,57.275,128.737,58.55,127.782" id="path73" style="fill-rule:evenodd;clip-rule:evenodd;fill:#D59758;"></path>

<path d="M67.558,142.814c0.297,1.485,1.13,2.629-0.376,4.134  c-1.257,1.258-3.041,2.076-4.128,3.383C63.105,148.711,66.382,143.06,67.558,142.814" id="path75" style="fill-rule:evenodd;clip-rule:evenodd;fill:#D59758;"></path>

<path d="M67.558,155.593c0,1.414,0.572,4.08-0.596,4.957  c-1.335,1.002-3.96,3.278-5.41,1.057C64.366,162.325,66.57,157.569,67.558,155.593" id="path77" style="fill-rule:evenodd;clip-rule:evenodd;fill:#D59758;"></path>

<path d="M64.556,167.619c0.044,2.509-5.774,8.079-7.506,5.262  c1.37-1.017,3.318-0.274,4.502-1.503C62.715,170.171,62.138,167.6,64.556,167.619" id="path79" style="fill-rule:evenodd;clip-rule:evenodd;fill:#D59758;"></path>

<path d="  M42.787,104.48c-2.058,3.594-2.964,8.152-4.27,12.074c-0.566,1.701-0.925,3.475-1.361,5.214c-0.371,1.487-3.376,3.851-3.376,1.128  c0-3.907,2.623-7.881,3.557-11.623c0.871-3.49,2.157-8.174,3.948-11.303C41.672,101.522,41.927,103.101,42.787,104.48" id="path81" style="fill-rule:evenodd;clip-rule:evenodd;fill:#E4BC96;stroke:#000000;stroke-width:0;stroke-linecap:square;stroke-miterlimit:10;"></path>

<path d="M41.285,102.977  c-2.737,4.391-1.728,10.769-4.504,15.033" id="path83" style="fill:none;stroke:#FFE07A;stroke-width:0;stroke-linecap:square;stroke-miterlimit:10;"></path>

<path d="M38.282,107.487c1.001,0,2.002,0,3.003,0  c-0.863,1.729-2.028,6.712-4.504,6.013C37.282,111.495,37.781,109.491,38.282,107.487" id="path85" style="fill-rule:evenodd;clip-rule:evenodd;fill:#511900;"></path>

<path d="  M46.54,118.009c-2.128,1.751-2.805,4.964-4.348,7.283c-1.403,2.106-2.133,4.946-3.27,7.222c-1.292,2.587-2.56,5.126-3.836,7.683  c-0.645,1.293-4.31,7.734-4.31,3.007c0-2.209,1.986-5.385,3.52-6.92c0.787-0.788,0.861-2.303,1.513-3.284  c0.796-1.197,1.846-2.43,2.473-3.715c1.236-2.535,2.383-5.081,3.977-7.475c1.513-2.273,2.155-4.986,4.281-6.807  C46.54,116.005,46.54,117.007,46.54,118.009" id="path87" style="fill-rule:evenodd;clip-rule:evenodd;fill:#E4BC96;stroke:#000000;stroke-width:0;stroke-linecap:square;stroke-miterlimit:10;"></path>

<path d="M46.54,118.009  c-1.75,1.439-1.955,3.357-3.002,5.262c-1.069,1.944-2.67,3.512-3.378,5.639c-0.659,1.98-2.067,3.668-3.222,5.402  c-0.543,0.816-0.443,2.027-1.139,2.725c-0.864,0.864-1.604,1.579-2.018,2.771" id="path89" style="fill:none;stroke:#FFE07A;stroke-width:0;stroke-linecap:square;stroke-miterlimit:10;"></path>

<path d="M41.285,123.271c3.658-0.376-0.932,5.159-1.501,6.014  c0-0.25,0-0.501,0-0.752c-0.45,0.312-1.083,0.403-1.502,0.752C39.283,127.28,40.284,125.276,41.285,123.271" id="path91" style="fill-rule:evenodd;clip-rule:evenodd;fill:#511900;"></path>

<path d="  M54.047,87.192c1.604,1.858,3.549,1.869,5.487,3.163c2.625,1.752,2.018,3.275,2.018,6.302c0,4.647,0.752,9.169,0.752,13.836  c0,4.594-0.188,9.02-1.308,13.502c-0.678,2.714-0.613,3.619-3.168,4.899c-1.935,0.97-4.469,0.411-6.433-0.244  c-2.713-0.906-5.222-8.86-6.357-11.392c-1.762-3.932-3.411-8.398-4.448-12.556c-0.962-3.849-0.629-8.757,1.667-12.207  c0.844-1.269,3.6-1.614,5.032-3.048C49.121,87.614,51.558,87.192,54.047,87.192" id="path93" style="fill-rule:evenodd;clip-rule:evenodd;fill:#E4BC96;stroke:#000000;stroke-width:0;stroke-linecap:square;stroke-miterlimit:10;"></path>

<path d="M57.05,93.206c0,0.729-0.278,1.976,0.234,2.49  c0.761,0.762,2.744,1.937,1.266,2.771C55.245,100.333,56.71,94.228,57.05,93.206" id="path95" style="fill-rule:evenodd;clip-rule:evenodd;fill:#BA932D;"></path>

<path d="M52.545,88.695c1.336,0,8.146,1.008,5.256,3.007  c0.249,0,0.499,0,0.749,0c-0.25,0.751-0.5,1.503-0.749,2.254c-0.855-0.561-0.535-2.254-1.127-2.254c-1.113,0-2.272-0.101-3.377,0  c-1.482,0.135-2.252,1.276-2.252-1.114C51.044,89.281,50.75,88.188,52.545,88.695" id="path97" style="fill-rule:evenodd;clip-rule:evenodd;fill:#D59758;"></path>

<path d="M49.542,87.192  c0,1.503,0,3.006,0,4.51" id="path99" style="fill:none;stroke:#000000;stroke-width:1.8618;stroke-linecap:square;stroke-miterlimit:10;"></path>

<path d="M49.542,87.192  c0,1.503,0,3.006,0,4.51" id="path101" style="fill:none;stroke:#4C3200;stroke-width:1.8618;stroke-linecap:square;stroke-miterlimit:10;"></path>

<path d="M16.513,42.093  c-0.762,1.2-2.023,0.732-3,0" id="path103" style="fill:none;stroke:#4C0C00;stroke-width:0;stroke-linecap:square;stroke-miterlimit:10;"></path>

<path d="M18.015,42.093  c0.049,1.391-1.82,1.694-3.002,1.503" id="path105" style="fill:none;stroke:#4C0C00;stroke-width:0;stroke-linecap:square;stroke-miterlimit:10;"></path>

<path d="M21.018,43.596  c-0.748,0.897-1.837,1.523-3.003,1.503" id="path107" style="fill:none;stroke:#4C0C00;stroke-width:0;stroke-linecap:square;stroke-miterlimit:10;"></path>

<path d="M23.27,45.099  c-0.985,1.293-2.768,0.962-3.753,2.255" id="path109" style="fill:none;stroke:#4C0C00;stroke-width:0;stroke-linecap:square;stroke-miterlimit:10;"></path>

<path d="M24.771,45.099  c-0.929,1.117-2.48,1.618-3.753,2.255" id="path111" style="fill:none;stroke:#4C0C00;stroke-width:0;stroke-linecap:square;stroke-miterlimit:10;"></path>

<path d="M26.272,47.354  c-1.166-0.021-2.256,0.606-3.002,1.503" id="path113" style="fill:none;stroke:#4C0C00;stroke-width:0;stroke-linecap:square;stroke-miterlimit:10;"></path>

<path d="M27.774,48.858  c-1.166-0.021-2.256,0.606-3.003,1.503" id="path115" style="fill:none;stroke:#4C0C00;stroke-width:0;stroke-linecap:square;stroke-miterlimit:10;"></path>

<path d="M29.276,50.361  c-1.182-0.19-3.052,0.112-3.003,1.503" id="path117" style="fill:none;stroke:#4C0C00;stroke-width:0;stroke-linecap:square;stroke-miterlimit:10;"></path>

<path d="M30.776,51.864  c-1.166-0.021-2.255,0.606-3.002,1.503" id="path119" style="fill:none;stroke:#4C0C00;stroke-width:0;stroke-linecap:square;stroke-miterlimit:10;"></path>

<path d="M32.278,53.367  c-1.318-0.327-2.262,0.492-3.002,1.503" id="path121" style="fill:none;stroke:#4C0C00;stroke-width:0;stroke-linecap:square;stroke-miterlimit:10;"></path>

<path d="M33.78,54.871  c-1.319-0.327-2.262,0.493-3.003,1.503" id="path123" style="fill:none;stroke:#4C0C00;stroke-width:0;stroke-linecap:square;stroke-miterlimit:10;"></path>

<path d="M35.281,56.374  c-1.167-0.021-2.256,0.606-3.003,1.503" id="path125" style="fill:none;stroke:#4C0C00;stroke-width:0;stroke-linecap:square;stroke-miterlimit:10;"></path>

<path d="M35.281,57.877  c-0.501,0.501-1.001,1.002-1.501,1.503" id="path127" style="fill:none;stroke:#4C0C00;stroke-width:0;stroke-linecap:square;stroke-miterlimit:10;"></path>

<path d="  M36.781,59.381c-2.413-4.847-6.862-8.375-10.676-12.194c-4.619-4.626-9.261-5.094-15.596-5.094  c11.809,0,19.312,10.825,26.271,18.791C36.781,60.396,36.86,59.86,36.781,59.381" id="path129" style="fill-rule:evenodd;clip-rule:evenodd;fill:#E4BC96;stroke:#000000;stroke-width:0;stroke-linecap:square;stroke-miterlimit:10;"></path>

<path d="M36.781,57.877  c0.021-1.229-1.335-2.169,0-3.007" id="path131" style="fill:none;stroke:#4C0C00;stroke-width:0;stroke-linecap:square;stroke-miterlimit:10;"></path>

<path d="M35.281,56.374  c0-2.062,0.336-2.761,1.5-4.51" id="path133" style="fill:none;stroke:#4C0C00;stroke-width:0;stroke-linecap:square;stroke-miterlimit:10;"></path>

<path d="M33.78,54.871  c-1.765-1.089,0.409-3.651,1.501-4.51" id="path135" style="fill:none;stroke:#4C0C00;stroke-width:0;stroke-linecap:square;stroke-miterlimit:10;"></path>

<path d="M32.278,53.367  c-1.882-1.341,0.592-4.646,1.501-6.013" id="path137" style="fill:none;stroke:#4C0C00;stroke-width:0;stroke-linecap:square;stroke-miterlimit:10;"></path>

<path d="M30.776,51.864  c-1.834-1.307,0.753-5.266,1.502-6.765" id="path139" style="fill:none;stroke:#4C0C00;stroke-width:0;stroke-linecap:square;stroke-miterlimit:10;"></path>

<path d="M29.276,50.361  c-1.949-2.631-0.081-4.652,1.5-6.765" id="path141" style="fill:none;stroke:#4C0C00;stroke-width:0;stroke-linecap:square;stroke-miterlimit:10;"></path>

<path d="M27.774,48.858  c-1.486-1.992-0.704-4.65,0-6.765" id="path143" style="fill:none;stroke:#4C0C00;stroke-width:0;stroke-linecap:square;stroke-miterlimit:10;"></path>

<path d="M26.272,47.354  c-1.292-1.749-0.615-3.412,0-5.262" id="path145" style="fill:none;stroke:#4C0C00;stroke-width:0;stroke-linecap:square;stroke-miterlimit:10;"></path>

<path d="M24.771,45.099  c-1.501-1.253-1.501-2.707-1.501-4.51" id="path147" style="fill:none;stroke:#4C0C00;stroke-width:0;stroke-linecap:square;stroke-miterlimit:10;"></path>

<path d="M23.27,43.596  c-1.447-1.451-2.615-2.801-3.753-4.51" id="path149" style="fill:none;stroke:#4C0C00;stroke-width:0;stroke-linecap:square;stroke-miterlimit:10;"></path>

<path d="M21.018,43.596  c-1.273-1.063-2.08-3.123-3.003-4.51" id="path151" style="fill:none;stroke:#4C0C00;stroke-width:0;stroke-linecap:square;stroke-miterlimit:10;"></path>

<path d="M18.015,42.093  c-1-1.002-2.002-2.005-3.002-3.007" id="path153" style="fill:none;stroke:#4C0C00;stroke-width:0;stroke-linecap:square;stroke-miterlimit:10;"></path>

<path d="M16.513,42.093  c-1.163-0.038-1.844-1.086-3-1.503" id="path155" style="fill:none;stroke:#4C0C00;stroke-width:0;stroke-linecap:square;stroke-miterlimit:10;"></path>

<path d="M35.281,33.073  c-1.167,0.021-2.256-0.606-3.003-1.504" id="path157" style="fill:none;stroke:#4C0C00;stroke-width:0;stroke-linecap:square;stroke-miterlimit:10;"></path>

<path d="M36.781,34.576  c-1.004,1.612-2.688-0.264-3.001-1.503" id="path159" style="fill:none;stroke:#4C0C00;stroke-width:0;stroke-linecap:square;stroke-miterlimit:10;"></path>

<path d="M36.781,36.079  c-0.763,1.202-2.024,0.732-3.001,0" id="path161" style="fill:none;stroke:#4C0C00;stroke-width:0;stroke-linecap:square;stroke-miterlimit:10;"></path>

<path d="M38.282,37.583  c-0.712,1.091-2.288,1.091-3,0" id="path163" style="fill:none;stroke:#4C0C00;stroke-width:0;stroke-linecap:square;stroke-miterlimit:10;"></path>

<path d="M39.784,40.589  c-1.547-0.019-3.165-0.734-4.502-1.503" id="path165" style="fill:none;stroke:#4C0C00;stroke-width:0;stroke-linecap:square;stroke-miterlimit:10;"></path>

<path d="M39.784,42.093  c-1.501,0-3.001,0-4.502,0" id="path167" style="fill:none;stroke:#4C0C00;stroke-width:0;stroke-linecap:square;stroke-miterlimit:10;"></path>

<path d="M39.784,45.099  c-1.165-0.038-1.846-1.086-3.002-1.503" id="path169" style="fill:none;stroke:#4C0C00;stroke-width:0;stroke-linecap:square;stroke-miterlimit:10;"></path>

<path d="M39.784,47.354  c-0.849-1.021-2.154-1.236-3.002-2.255" id="path171" style="fill:none;stroke:#4C0C00;stroke-width:0;stroke-linecap:square;stroke-miterlimit:10;"></path>

<path d="M41.285,48.858  c-1.987,0.035-2.328-0.727-4.504,0" id="path173" style="fill:none;stroke:#4C0C00;stroke-width:0;stroke-linecap:square;stroke-miterlimit:10;"></path>

<path d="M41.285,51.864  c-1.25-1.501-2.701-1.503-4.504-1.503" id="path175" style="fill:none;stroke:#4C0C00;stroke-width:0;stroke-linecap:square;stroke-miterlimit:10;"></path>

<path d="M41.285,53.367  c-1.147-0.319-1.822-1.087-3.003,0" id="path177" style="fill:none;stroke:#4C0C00;stroke-width:0;stroke-linecap:square;stroke-miterlimit:10;"></path>

<path d="M41.285,54.871  c-1.147-0.319-1.822-1.088-3.003,0" id="path179" style="fill:none;stroke:#4C0C00;stroke-width:0;stroke-linecap:square;stroke-miterlimit:10;"></path>

<path d="M41.285,57.877  c0.1-0.968-0.533-1.603-1.501-1.503" id="path181" style="fill:none;stroke:#4C0C00;stroke-width:0;stroke-linecap:square;stroke-miterlimit:10;"></path>

<path d="  M41.285,59.381c0-6.21-0.875-11.729-1.957-17.863c-0.842-4.779-6.928-9.345-10.053-12.955c1.941,2.077,4.004,3.342,5.745,5.667  c2.038,2.72,2.997,4.69,4.163,7.9C41.205,47.699,40.957,53.476,41.285,59.381" id="path183" style="fill-rule:evenodd;clip-rule:evenodd;fill:#E4BC96;stroke:#000000;stroke-width:0;stroke-linecap:square;stroke-miterlimit:10;"></path>

<path d="M41.285,57.877  c1.239-1.033,1.234-2.557,3.002-3.007" id="path185" style="fill:none;stroke:#4C0C00;stroke-width:0;stroke-linecap:square;stroke-miterlimit:10;"></path>

<path d="M41.285,54.871  c1.83-1.831,2.722-2.373,5.254-3.007" id="path187" style="fill:none;stroke:#4C0C00;stroke-width:0;stroke-linecap:square;stroke-miterlimit:10;"></path>

<path d="M41.285,53.367  c1.83-1.831,2.722-2.372,5.254-3.006" id="path189" style="fill:none;stroke:#4C0C00;stroke-width:0;stroke-linecap:square;stroke-miterlimit:10;"></path>

<path d="M41.285,51.864  c2.048-1.919,2.603-3.181,5.254-4.509" id="path191" style="fill:none;stroke:#4C0C00;stroke-width:0;stroke-linecap:square;stroke-miterlimit:10;"></path>

<path d="M41.285,48.858  c1.924-1.805,3.062-3.615,5.254-5.262" id="path193" style="fill:none;stroke:#4C0C00;stroke-width:0;stroke-linecap:square;stroke-miterlimit:10;"></path>

<path d="M41.285,45.099  c-0.04-1.146,2.184-2.014,3.002-3.006" id="path195" style="fill:none;stroke:#4C0C00;stroke-width:0;stroke-linecap:square;stroke-miterlimit:10;"></path>

<path d="M41.285,45.099  c-0.046-2.053,1.901-4.358,3.002-6.013" id="path197" style="fill:none;stroke:#4C0C00;stroke-width:0;stroke-linecap:square;stroke-miterlimit:10;"></path>

<path d="M39.784,42.093  c1.273-1.063,2.08-3.123,3.003-4.51" id="path199" style="fill:none;stroke:#4C0C00;stroke-width:0;stroke-linecap:square;stroke-miterlimit:10;"></path>

<path d="M39.784,40.589  c0.019-1.551,0.733-3.168,1.501-4.51" id="path201" style="fill:none;stroke:#4C0C00;stroke-width:0;stroke-linecap:square;stroke-miterlimit:10;"></path>

<path d="M38.282,37.583  c-0.025-1.417,1.046-3.14,1.502-4.509" id="path203" style="fill:none;stroke:#4C0C00;stroke-width:0;stroke-linecap:square;stroke-miterlimit:10;"></path>

<path d="M38.282,36.079  c0-1.503,0-3.006,0-4.51" id="path205" style="fill:none;stroke:#4C0C00;stroke-width:0;stroke-linecap:square;stroke-miterlimit:10;"></path>

<path d="M36.781,34.576  c-0.019-1.551-0.732-3.169-1.5-4.51" id="path207" style="fill:none;stroke:#4C0C00;stroke-width:0;stroke-linecap:square;stroke-miterlimit:10;"></path>

<path d="M35.281,33.073  c0.021-1.167-0.605-2.259-1.501-3.007" id="path209" style="fill:none;stroke:#4C0C00;stroke-width:0;stroke-linecap:square;stroke-miterlimit:10;"></path>

<path d="  M42.787,59.381c2.122,0.255,3.687-1.503,5.567-1.503c2.644,0,4.477,0.596,7.002,1.439c0.812,0.271,3.337,4.146,3.078,4.927  c-0.821,2.47-1.662,3.824-3.042,5.896c-2.688,4.038-2.789,7.686-3.564,12.35c-0.788,4.733-4.521,6.954-8.689,8.345  c-3.882,1.295-4.228-7.062-5.731-9.069c-1.551-2.072-2.451-3.003-4.739-4.149c-2.694-1.348-2.569-2.739-1.947-5.233  c0.433-1.732,0.056-4.075,0.056-5.875c0-2.671,2.266-2.245,3.754-3.369c1.583-1.195,1.238-3.758,3.377-3.758  c1.006,0,1.253-1.503,2.266-1.503C41.379,57.877,42.046,58.369,42.787,59.381" id="path211" style="fill-rule:evenodd;clip-rule:evenodd;fill:#E4BC96;stroke:#000000;stroke-width:0;stroke-linecap:square;stroke-miterlimit:10;"></path>

<path d="  M60.051,91.702c0.799,0.524,0.751,0.997,0.751,1.865c0,0.902,1.158,0.509,1.502,1.142c0.82,1.518,1.266,2.355,2.252,3.758  c1.693,2.411,3.462,4.824,5.099,7.282c1.476,2.215,3.533,4.339,5.41,6.248c0.648,0.659,2.093,1.407,2.252,3.006  c0.12,1.193-0.437,2.894-1.501,3.006c-1.941,0.205-3.673-5.18-5.021-6.529c-2.099-2.102-2.822-5.081-4.739-7  c-2.109-2.113-3.324-4.544-5.254-6.765C60.426,97.283,56.001,90.531,60.051,91.702" id="path213" style="fill-rule:evenodd;clip-rule:evenodd;fill:#E4BC96;stroke:#000000;stroke-width:0;stroke-linecap:square;stroke-miterlimit:10;"></path>

<path d="M60.051,93.206  c-0.015,0.885,1.733,3.607,2.253,4.509c0.949,1.656,2.494,3.372,3.597,5.027c0.859,1.292,2.304,3.138,3.393,4.229  c1.573,1.574,1.771,3.587,3.52,5.027" id="path215" style="fill:none;stroke:#FFDB75;stroke-width:0;stroke-linecap:square;stroke-miterlimit:10;"></path>

<path d="M63.054,96.964c-3.657-0.377,0.932,5.158,1.502,6.013  c-0.101-0.968,0.533-1.603,1.5-1.503C65.056,99.97,64.054,98.467,63.054,96.964" id="path217" style="fill-rule:evenodd;clip-rule:evenodd;fill:#511900;"></path>

<path d="  M61.552,84.186c-0.462,2.872,2.527,7.253,3.754,9.771c1.447,2.971,3.142,6.903,5.422,9.187c1.106,1.108,1.801,2.79,2.68,4.108  c0.44,0.661,0.747,1.417,1.102,2.128c0.464,0.929,1.163,0.826,1.417,1.336c0.898,1.796,1.625,3.487,2.259,5.392  c0.43,1.288,0.983,1.668-0.159,2.431c-1.177,0.786-1.207,1.228-2.21,0.223c-2.206-2.209-3.847-6.201-5.255-9.02  c-1.619-3.242-2.935-6.552-4.505-9.771c-1.503-3.085-3.292-6.133-4.386-9.419C61.117,88.891,55.222,83.164,61.552,84.186" id="path219" style="fill-rule:evenodd;clip-rule:evenodd;fill:#E4BC96;stroke:#000000;stroke-width:0;stroke-linecap:square;stroke-miterlimit:10;"></path>

<path d="  M35.281,118.009c1.613-1.344,3.953-5.867,4.62-7.868c1.099-3.301,3.465-6.069,5.026-9.196c1.342-2.688,3.29-5.259,4.24-8.116  c1.098-3.298,3.378-5.938,3.378-9.396c0.624,1.088,0.991,2.223,1.384,3.406c0.392,1.178-1.18,1.997-1.501,2.959  c-0.848,2.55-2.622,4.61-3.261,7.165c-0.645,2.583-2.08,4.917-3.267,7.293c-0.979,1.961-1.715,4.513-2.891,6.278  c-2.791,4.192-4.058,9.56-5.93,14.246c-0.951,2.38-4.677,1.751-4.8-0.758C32.148,121.382,35.329,120.712,35.281,118.009" id="path221" style="fill-rule:evenodd;clip-rule:evenodd;fill:#E4BC96;stroke:#000000;stroke-width:0;stroke-linecap:square;stroke-miterlimit:10;"></path>

<path d="  M61.552,118.009c0.8,0.802,1.941,1.632,2.447,2.646c0.68,1.36,1.765,1.571,2.809,2.617c1.749,1.751,4.175,2.719,6.005,4.51  c3.549,3.472,8.878,5.625,10.508,10.523c-3.352,0-4.188-1.189-6.52-3.523c-2.052-2.054-3.896-3.682-6.282-5.275  c-2.303-1.537-3.761-4.381-6.353-5.678c-2.43-1.216-5.416-3.793-3.364-6.57C61.052,117.509,61.303,117.76,61.552,118.009" id="path223" style="fill-rule:evenodd;clip-rule:evenodd;fill:#E4BC96;stroke:#000000;stroke-width:0;stroke-linecap:square;stroke-miterlimit:10;"></path>

<path d="M61.552,119.513  c0.873,1.895,5.204,6.247,7.883,7.141c1.864,0.623,3.127,2.379,4.504,3.758c1.35,1.352,3.394,2.429,4.88,3.383" id="path225" style="fill:none;stroke:#FFE07A;stroke-width:0;stroke-linecap:square;stroke-miterlimit:10;"></path>

<path d="M64.556,121.768c-1.556,1.011,2.068,3.575,3.002,4.511  c0.509-0.41,1.094-0.993,1.502-1.503C67.558,123.772,66.056,122.771,64.556,121.768" id="path227" style="fill-rule:evenodd;clip-rule:evenodd;fill:#511900;"></path>

<path d="  M60.051,108.99c0.799,0.524,0.751,0.997,0.751,1.865c0,0.792,1.011,1.312,1.502,1.893c1.112,1.32,2.029,2.785,3.236,3.994  c2.533,2.536,4.257,6.147,7.634,7.838c1.323,0.662,2.317,2.935,3.393,3.953c1.316,1.246,2.479,1.404,3.752,2.254  c1.87,1.25,2.111,2.682,3.002,4.51c1.097,2.249,2.229,2.278,0.234,4.275c-1.268,1.27-3.396-0.917-3.827-1.996  c-0.881-2.209-1.969-2.146-2.966-4.144c-1.389-2.779-4.514-6.217-6.718-8.423c-0.591-0.592-1.546-0.607-1.93-1.376  c-0.51-1.02-1.013-1.57-1.823-2.382c-1.047-1.048-2.369-3.008-3.043-4.355c-1.438-2.88-3.976-5.095-5.447-7.155  C58.688,109.961,59.547,109.761,60.051,108.99" id="path229" style="fill-rule:evenodd;clip-rule:evenodd;fill:#E4BC96;stroke:#000000;stroke-width:0;stroke-linecap:square;stroke-miterlimit:10;"></path>

<path d="  M33.78,139.808c1.618-1.796,3.53-4.818,4.697-7.155c0.783-1.569,2.092-2.65,3.325-3.885c1.006-1.009,1.391-2.794,2.486-3.993  c2.087-2.284,4.443-5.14,5.811-7.878c1.497-2.997,3.655-5.523,4.7-8.658c1.158,3.479,0.125,3.838-1.501,6.765  c-1.283,2.306-2.441,4.578-3.754,6.764c-1.115,1.859-3.94,3.568-4.621,5.614c-0.859,2.58-2.957,4.3-4.193,6.774  c-0.431,0.863-3.329,5.651-3.573,5.651c-0.112,0-3.829,6.203-4.408,6.929c-1.62,2.027-5.251,1.634-4.224-1.667  C29.332,142.48,32.244,141.655,33.78,139.808" id="path231" style="fill-rule:evenodd;clip-rule:evenodd;fill:#E4BC96;stroke:#000000;stroke-width:0;stroke-linecap:square;stroke-miterlimit:10;"></path>

<path d="  M41.285,218.731c0.623,0.844,0.75,1.624,0.75,2.617c0,0.633,0.987,1.616,1.307,2.255c0.797,1.597,2.383,3.302,3.42,4.857  c0.941,1.415,2.371,3.324,2.898,4.905c0.724,2.175,2.209,3.518,3.479,5.427c0.491,0.738,0.476,1.727,0.907,2.488  c0.41,0.724,1.345,1.035,1.619,1.856c0.724,2.175,2.209,3.518,3.479,5.427c0.709,1.066,6.318,9.254,3.52,9.254  c-2.511,0-2.071-0.924-3.364-3.008c-1.046-1.684-2.351-3.174-3.376-4.885c-2.303-3.844-3.363-7.871-6.003-11.573  c-2.163-3.032-3.821-6.375-5.882-9.472c-2.526-3.794-5.813-6.969-4.255-11.652C40.264,217.708,40.898,218.177,41.285,218.731" id="path233" style="fill-rule:evenodd;clip-rule:evenodd;fill:#E4BC96;stroke:#000000;stroke-width:0;stroke-linecap:square;stroke-miterlimit:10;"></path>

<path d="M41.285,220.986  c1.898,2.108,3.689,5.886,5.061,8.632c1.518,3.04,3.426,6.371,5.293,9.175c1.954,2.935,2.935,6.25,4.66,9.254  c0.802,1.396,2.364,3.119,3.518,4.275c0.598,0.599-0.047,1.457,0.609,2.113c0.653,0.654,1.143,0.934,1.126,1.88" id="path235" style="fill:none;stroke:#FFE07A;stroke-width:0;stroke-linecap:square;stroke-miterlimit:10;"></path>

<path d="  M57.05,174.384c-2.883,2.408-4.307,9.733-5.199,13.308c-1.092,4.373-3.212,8.51-4.105,12.977c-0.433,2.166-1.685,3.929-2.105,6.031  c-0.481,2.408-0.951,4.813-1.728,7.146c-0.704,2.113-1.275,3.979-1.821,6.168c-0.107,0.428-1.884,1.743-2.308,1.725  c-1.699-0.072-1.502-1.436-1.502-2.617c0-1.889,0.992-4.63,1.863-6.375c1.024-2.049,1.296-4.566,1.741-6.799  c0.785-3.927,2.501-9.214,4.292-12.8c2.057-4.118,2.041-8.776,3.481-13.104c0.782-2.35,1.584-4.558,2.69-6.773  c0.843-1.687,4.7-2.984,4.7,0C57.05,173.642,57.05,174.013,57.05,174.384" id="path237" style="fill-rule:evenodd;clip-rule:evenodd;fill:#E4BC96;stroke:#000000;stroke-width:0;stroke-linecap:square;stroke-miterlimit:10;"></path>

<path d="M54.047,174.384  c-1.777,1.365-3.01,8.21-3.754,10.524c-1.195,3.722-1.855,7.585-3.002,11.273c-0.507,1.631-1.959,3.041-2.294,4.72  c-0.471,2.36-1.021,4.329-1.913,6.563c-1.41,3.53-2.083,7.61-3.3,11.268" id="path239" style="fill:none;stroke:#FFE07A;stroke-width:0;stroke-linecap:square;stroke-miterlimit:10;"></path>

<path d="M60.051,85.688  c-0.041,2.312,2.296,4.952,3.531,6.807c1.576,2.367,2.484,5.072,3.976,7.475c1.279,2.06,3.689,3.973,4.587,6.221  c1.304,3.263,2.216,5.335,5.172,7.309" id="path241" style="fill:none;stroke:#FFE07A;stroke-width:0;stroke-linecap:square;stroke-miterlimit:10;"></path>

<path d="M58.55,110.493  c0.196,0.951,1.403,1.31,2.057,2.617c0.364,0.728,1.215,0.582,1.697,1.142c0.616,0.716,0.799,1.552,1.5,2.255  c1.001,1.002,2.003,2.004,3.004,3.006c0.702,0.703,0.807,0.922,1.126,1.879c0.493,1.483,0.868,0.881,1.876,1.879  c1.003,0.994,2.039,1.975,3.003,3.007c1.161,1.243,2.238,2.242,3.52,3.523c2.178,2.181,4.727,3.231,6.988,5.496" id="path243" style="fill:none;stroke:#FFE07A;stroke-width:0;stroke-linecap:square;stroke-miterlimit:10;"></path>

<path d="M52.545,85.688  c-3.289,5.747-4.305,12.479-8.035,18.082c-3.769,5.66-6.179,11.892-9.229,17.997" id="path245" style="fill:none;stroke:#FFE07A;stroke-width:0;stroke-linecap:square;stroke-miterlimit:10;"></path>

<path d="M54.047,111.997  c-2.019,1.685-3.896,5.927-5.254,8.268c-1.828,3.149-3.788,5.296-6.381,7.892c-2.294,2.296-3.326,5.935-5.102,8.603  c-1.817,2.729-4.208,5.23-6.533,7.559" id="path247" style="fill:none;stroke:#FFE07A;stroke-width:0;stroke-linecap:square;stroke-miterlimit:10;"></path>

<path d="  M63.054,108.99c1.908,1.252,0.617,5.328-1.14,6.208c-1.574,0.788-1.96-0.291-3.131-1.463c-0.866-0.868-2.357,0.471-1.733-1.738  c-0.48,1.38-1.435,1.896-2.252,3.006c-0.377,0.511-1.191,2.81-1.501,3.006c-1.871,1.18-7.263-0.685-3.754-3.006  c-1.67-0.063-1.501-2.81-1.501-4.157c0-0.942,0.122-1.348,0.557-2.218c0.421-0.845-0.937-1.192-1.307-1.894  c-0.45-0.851-1.257-4.011,1.14-2.812c1.908,0.955,0.157,3.149,2.614,3.563c-0.101-0.968,0.533-1.603,1.5-1.503  c-1.762,0.181-1.448-1.932-2.252-3.007c0.251,0,0.501,0,0.751,0c-1.638-1.044,0.025-2.36,0-3.758c1.694,2.25,1.152-0.752,1.89-0.752  c1.853,0,2.909,0.131,4.115-1.503c1.466,1.076,0.915,2.421,1.875,3.382c1.189,1.19,1.126,1.754,1.126,3.383  c0.432-0.865,0.919-1.074,1.501-2.255c0.155-0.313-1.502-0.952,0-1.503c1.186-0.435,1.271,0.035,1.502,0.752  c0.453,1.41-1.368,2.521-0.556,4.148C63.188,106.255,63.054,107.451,63.054,108.99" id="path249" style="fill-rule:evenodd;clip-rule:evenodd;fill:#F2F2F2;stroke:#000000;stroke-width:0;stroke-linecap:square;stroke-miterlimit:10;"></path>

<path d="M63.054,108.99c-1.04,1.404-0.086,3.59-1.502,4.51  c-1.152,0.75-2.729-0.206-3.002-0.752c-1.129-2.256,0.922-7.45,1.501-9.771c0.039,1.89-0.793,3.885-1.384,5.661  c-0.478,1.432-2.507,3.081-1.617,4.862c0.111,0.222,1.283-0.186,1.5,0c0.157,0.135,0.07,0.823,0.375,1.128  c0.922,0.922,1.546-0.046,2.253-0.752C62.948,112.101,63.054,111.432,63.054,108.99" id="path251" style="fill-rule:evenodd;clip-rule:evenodd;fill:#BFBFBF;"></path>

<path d="M54.047,116.507c-1.494,0.179-3.561-0.265-4.504-1.503  C49.492,116.43,53.038,118.093,54.047,116.507" id="path253" style="fill-rule:evenodd;clip-rule:evenodd;fill:#BFBFBF;"></path>

<path d="M54.047,98.467c0.233,1.596-0.747,2.99-1.126,4.51  c-0.237,0.947-0.376,1.647-0.376,2.617c0,0.947-1.472,0.164-1.5-0.361c-0.081-1.459,2.228-0.074,1.5-2.255  c-0.166-0.498-1.5,0.649-1.5-0.376c0-1.169-1.293-1.224,0-2.63c-0.053,1.512,1.998,1.072,1.5,3.006c0-1.503,0-3.006,0-4.51  c0.185,0.885,0.605,0.858,1.502,1.503C53.127,99.276,52.921,98.605,54.047,98.467" id="path255" style="fill-rule:evenodd;clip-rule:evenodd;fill:#BFBFBF;"></path>

<path d="M55.548,98.467c-0.882,0.553,0,3.967,0,5.268  c0,1.556-3.157,2.609-1.501,3.752c2.465-1.581-0.469-2.537,1.126-4.134c1.186-1.187,0.142-3.438,1.877-4.886  C56.563,98.467,56.026,98.388,55.548,98.467" id="path257" style="fill-rule:evenodd;clip-rule:evenodd;fill:#BFBFBF;"></path>

<path d="M58.55,99.97c0.392,1.804-1.054,2.244-1.5,3.758  c-0.328,1.111,0.871,3.913-0.751,3.758c0.25,0,0.501,0,0.751,0C55.401,106.226,58.871,102.167,58.55,99.97" id="path259" style="fill-rule:evenodd;clip-rule:evenodd;fill:#BFBFBF;"></path>

<path d="M39.784,59.381c0.562,0.858,2.138,1.053,3.003,1.503  c1.02,0.531,2.024,1.276,2.835,2.088c1.28,1.28,1.854,1.732,3.569,2.304c0.685,0.229,0.351,2.018,0.351,2.749  c0,1.097-1.297,1.811-1.557,2.853c-0.343,1.374-0.62,2.633-1.251,3.898c-1.012,2.027-6.05-1.562-6.951-2.617  c0.319,1.29-0.306,1.81-1.126,2.631c-1.39,1.392-1.92,1.084-3.143-0.141c-0.513-0.515-2.361-0.893-2.486-1.738  c-0.028-0.185,2.083-2.431,2.252-3.007c0.579-1.968-0.539-4.395,0.118-6.366c0.542-1.628,0.671-3.009,2.494-2.097  c0.978,0.489,1.726,0.905,1.891,1.698C39.784,61.887,39.784,60.633,39.784,59.381" id="path261" style="fill-rule:evenodd;clip-rule:evenodd;fill:#BA932D;"></path>

<path d="M49.542,73.662c-0.25-0.25-0.5-0.501-0.75-0.751  c1.525,0.027,4.099-1.04,4.621-2.608c0.329-0.99,1.575-5.043-0.117-4.909c0.75,0,1.501,0,2.251,0  c-0.908,2.732-1.123,4.438-3.003,6.765c-0.304,0.377-1.261,0.341-1.5,0.752c-0.218,0.373,0.161,1.099,0,1.503  c-0.841,2.105,0,2.25,0,4.111c0,6.52-3.199,10.17-9.759,10.17c1.533-0.188-1.211-4.074-2.03-5.304  c-1.04-1.563-2.645-5.236-4.725-5.219c0.957,0.015,1.676-0.723,2.251-1.503c-0.688,4.687,4.505,3.507,7.313,3.039  C46.544,79.299,49.005,73.62,49.542,73.662" id="path263" style="fill-rule:evenodd;clip-rule:evenodd;fill:#BA932D;"></path>

<path d="M58.55,119.513c1.276,0.02,0.614,2.561,1.501,3.758  C58.537,122.138,58.55,121.305,58.55,119.513" id="path265" style="fill-rule:evenodd;clip-rule:evenodd;fill:#BA932D;"></path>

<path d="M44.288,59.381c0.972,1.167,4.479,2.78,3.753,0  C46.966,60.177,45.146,60.692,44.288,59.381" id="path267" style="fill-rule:evenodd;clip-rule:evenodd;fill:#BA932D;"></path>

<path d="M35.281,62.388c0.149,1.442-1.405,1.49-2.252,2.254  C33.78,63.891,34.53,63.139,35.281,62.388" id="path269" style="fill-rule:evenodd;clip-rule:evenodd;fill:#BA932D;"></path>

<path d="  M41.285,59.381c0.789,0.658,0.883,1.514,1.501,2.255c0.331,0.396,1.123,0.393,1.501,0.752c0.359,0.34,0.343,1.242,0.751,1.503  c1.049,0.673,2.034,0.648,3.002,1.503c0.57,0.502,0.028,1.655,1.501,1.503c-1.06,2.122-1.1,4.86-2.627,6.389  c-2.263,2.265-5.061,0.255-7.131-1.127c-1.105,1.48-0.351,3.007-2.613,3.007c-1.201,0-3.732-1.984-3.274-3.359  c1.111-3.339,2.842-6.635,2.884-10.171c1.424,0.362,2.958,2.395,3.002,3.758C39.784,63.539,38.914,59.798,41.285,59.381" id="path271" style="fill-rule:evenodd;clip-rule:evenodd;fill:#EDEDED;stroke:#000000;stroke-width:0;stroke-linecap:square;stroke-miterlimit:10;"></path>

<path d="  M51.044,73.662c-0.381,1.145-1.397,3.11-0.375,4.134c0.749,0.75-0.507,3.025-0.85,4.057c-0.585,1.756-0.567,2.854-2.194,3.668  c-1.375,0.688-3.074,1.214-4.087,2.422c-2.465-2.47-3.701-5.157-5.255-8.269c2.401,2.885,5.126,1.089,7.549-0.529  c0.978-0.652,3.064-1.554,3.711-2.478C50.198,75.733,49.025,73.593,51.044,73.662" id="path273" style="fill-rule:evenodd;clip-rule:evenodd;fill:#F7F7F7;stroke:#000000;stroke-width:0;stroke-linecap:square;stroke-miterlimit:10;"></path>

<path d="M49.542,76.669c0,2.516-0.095,4.558-2.613,5.818  c-3.298,1.65-3.691,1.925-7.146,0.195c1.338,0.989,1.099,2.255,2.613,2.255c1.381,0,3.462-1.539,4.671-2.144  c3.029-1.517,2.915-4.439,3.977-7.628C50.546,75.664,50.011,76.142,49.542,76.669" id="path275" style="fill-rule:evenodd;clip-rule:evenodd;fill:#CCCCCC;"></path>

<path d="M49.542,79.675  c-0.748,2.772-7.53,6.18-9.759,4.51" id="path277" style="fill:none;stroke:#000000;stroke-width:0;stroke-linecap:square;stroke-miterlimit:10;"></path>

<path d="M42.787,78.172c-0.138-1.322,1.112-1.758,2.252-1.503  c-1.155,0.193-1.079,2.027-2.252,3.006C42.787,79.195,42.713,78.646,42.787,78.172" id="path279" style="fill-rule:evenodd;clip-rule:evenodd;fill:#BA932D;"></path>

<path d="  M42.787,78.172C36.987,101.397,17.368,117.385,0,132.291c1.028-1.434,0.973-1.239,2.614-2.06c0.728-0.365,0.585-1.207,1.14-1.698  c0.723-0.642,1.51-0.926,2.252-1.504c2.259-1.758,4.216-4.22,6.24-6.248c1.072-1.072,1.729-2.482,2.768-3.523  c1.153-1.155,2.661-1.704,3.753-3.006c1.875-2.237,3.787-4.561,5.411-7c1.725-2.592,3.936-4.784,5.627-7.324  c0.777-1.169,1.916-2.441,2.474-3.717c0.764-1.744,0.495-2.749,1.877-4.134c2.041-2.043,3.371-5.614,4.071-8.421  C38.534,82.427,40.578,74.632,42.787,78.172" id="path281" style="fill-rule:evenodd;clip-rule:evenodd;fill:#E4BC96;stroke:#000000;stroke-width:0;stroke-linecap:square;stroke-miterlimit:10;"></path>

<path d="M42.787,76.669c0.266,1.19-1.667,4.12-3.003,3.006  C38.271,78.416,41.943,76.654,42.787,76.669" id="path283" style="fill-rule:evenodd;clip-rule:evenodd;fill:#E4BC96;"></path>

<path d="M41.285,60.884c2.281,1.523,4.066,3.164,6.534,4.399  c1.234,0.618-0.321,6.771-1.307,7.266c-3.679,1.842-4.488-0.433-5.45-3.799C40.28,66.006,40.386,63.584,41.285,60.884" id="path285" style="fill-rule:evenodd;clip-rule:evenodd;fill:#EDEDED;"></path>

<path d="M36.781,62.388c0-0.251,0-0.501,0-0.752  c1.98,1.815,3.002,3.292,3.002,5.952c0,0.885-0.253,7.139-1.724,6.771c-3.626-0.909-3.498-1.545-2.404-4.831  C36.414,67.252,36.485,64.763,36.781,62.388" id="path287" style="fill-rule:evenodd;clip-rule:evenodd;fill:#EDEDED;"></path>

<path d="M35.281,73.662c-1.662-1.775,0.521-2.895,0.776-4.69  c0.307-2.155,0.86-4.394,0.724-6.584c3.235,0.877,3.002,4.196,3.002,6.812c0,1.309-0.724,2.514-1.205,3.718  C38.064,74.207,36.571,73.662,35.281,73.662" id="path289" style="fill-rule:evenodd;clip-rule:evenodd;fill:#F0F0F0;"></path>

<path d="M36.781,72.159c-2.537-1.559,0.179-6.888,0-9.771  c2.737,2.09,2.215,7.666,1.5,10.523C37.817,72.678,37.163,72.505,36.781,72.159" id="path291" style="fill-rule:evenodd;clip-rule:evenodd;fill:#F4F4F4;"></path>

<path d="M36.781,72.159c-1.052-1.423-0.669-9.518,0.75-9.02  C39.062,63.677,40.224,73.252,36.781,72.159" id="path293" style="fill-rule:evenodd;clip-rule:evenodd;fill:#F8F8F8;"></path>

<path d="M36.781,65.394c0-3.823,1.5-1.665,1.5,0.745  c0,2.279,0.604,4.574-1.5,6.02C35.514,70.69,36.781,67.312,36.781,65.394" id="path295" style="fill-rule:evenodd;clip-rule:evenodd;fill:#FCFCFC;"></path>

<path d="M48.041,65.394c-0.557,1.674-1.018,3.327-1.445,5.039  c-0.632,2.528-3.148,1.166-4.326,0.379c-2.717-1.814-1.803-7.475-0.985-9.928C43.195,62.974,45.545,64.144,48.041,65.394" id="path297" style="fill-rule:evenodd;clip-rule:evenodd;fill:#F0F0F0;"></path>

<path d="M46.54,65.394c0,0.889,0.439,4.071-0.167,4.677  c-1.972,1.976-1.763,2.304-4.102,0.741c-2.717-1.814-1.803-7.475-0.985-9.928C42.981,62.583,44.539,64.058,46.54,65.394" id="path299" style="fill-rule:evenodd;clip-rule:evenodd;fill:#F4F4F4;"></path>

<path d="M46.54,65.394c0,1.216,0.224,2.785-0.75,3.758  c-0.515,0.515-3.588,1.415-3.81,0.529c-0.773-3.1-1.721-5.716-0.694-8.797C42.981,62.583,44.539,64.058,46.54,65.394" id="path301" style="fill-rule:evenodd;clip-rule:evenodd;fill:#F8F8F8;"></path>

<path d="M41.285,62.388c2.171,1.086,8.071,3.508,4.504,6.765  C41.654,72.926,41.285,64.583,41.285,62.388" id="path303" style="fill-rule:evenodd;clip-rule:evenodd;fill:#FCFCFC;"></path>

<path d="M42.787,60.884c-0.186,1.556,1.887,5.586-1.501,4.51  c-2.21-0.702-1.501-4.304-1.501-6.013C40.524,60.392,41.468,61.211,42.787,60.884" id="path305" style="fill-rule:evenodd;clip-rule:evenodd;"></path>

<path d="M38.282,62.388c1.446,1.956,0.72,2.723-0.75,3.758  c-1.11-1.486-1.937-3.67-0.75-5.262C36.965,61.769,37.386,61.743,38.282,62.388" id="path307" style="fill-rule:evenodd;clip-rule:evenodd;"></path>

<path d="M41.285,60.884C43.15,62.293,40.693,63.115,41.285,60.884" id="path309" style="fill-rule:evenodd;clip-rule:evenodd;fill:#F9F9F9;"></path>

<path d="M38.282,62.388c0,0.25,0,0.501,0,0.751  C38.282,62.889,38.282,62.638,38.282,62.388c-0.25,0.25-0.5,0.501-0.75,0.751C37.286,62.136,37.775,62.658,38.282,62.388" id="path311" style="fill-rule:evenodd;clip-rule:evenodd;fill:#F9F9F9;"></path>

<path d="M48.041,59.381c2.311-1.717,9.009,0.018,9.009,3.396  c0,1.191-0.167,1.377-1.502,1.114c-1.199-0.237-0.572-1.005-1.501-1.503c-0.75-0.403-1.451,0.034-2.294-0.529  c-1.046-0.699-1.857-1.171-2.21-2.478c-0.86,0.638-1.946,0.922-3.003,0.751C47.035,59.884,47.524,59.576,48.041,59.381" id="path313" style="fill-rule:evenodd;clip-rule:evenodd;fill:#D59758;"></path>

<path d="M46.54,60.884c-1.141-0.381-2.98-1.503-4.143-1.503  c-1.095,0-2.613-1.925-2.613-1.128c0,1.651,1.129,1.128,2.613,1.128c0.785,0,3.074,1.898,4.143,2.255  C46.54,61.385,46.54,61.135,46.54,60.884" id="path315" style="fill-rule:evenodd;clip-rule:evenodd;fill:#D59758;"></path>

<path d="M38.282,60.884c-0.883-0.185-0.857-0.606-1.5-1.503  C34.749,60.917,37.046,60.884,38.282,60.884" id="path317" style="fill-rule:evenodd;clip-rule:evenodd;fill:#D59758;"></path>

<path d="M52.545,65.394c-0.1,0.968,0.533,1.603,1.502,1.503  c-0.271,0.376-3.002,3.329-3.002,1.879c0-0.662-1.525-0.353-0.375-1.503c0.646-0.646,0.375-1.74,0.375-2.631  C51.519,64.88,52.141,65.056,52.545,65.394" id="path319" style="fill-rule:evenodd;clip-rule:evenodd;fill:#D59758;"></path>

<path d="M32.278,69.904c0,1.123,0,2.246,0,3.369  c0,0.387,1.779,1.086,0,1.893c-3.257,1.477-1.241-4.541-0.75-6.013C31.777,69.402,32.028,69.653,32.278,69.904" id="path321" style="fill-rule:evenodd;clip-rule:evenodd;fill:#D59758;"></path>

<path d="M39.784,73.662c-0.172,1.431,0.751,2.441,0.751,3.758  c0,1.054-0.855,2.675-1.126,3.758c-0.311,1.244-0.621,2.487-0.932,3.731c-0.292,1.173-1.454,1.556-1.812,2.635  c-1.726,5.192-4.827,10.302-7.278,15.209c-2.118,4.241-6.569,7.843-9.424,11.653c-3.062,4.088-7.436,6.847-10.955,10.368  c0.434-2.009,1.716-1.276,3.003-2.255c0.998-0.759,1.813-2.567,2.767-3.523c2.035-2.039,3.313-3.905,5.489-5.497  c2.277-1.666,4.145-3.039,5.45-5.651c1.313-2.631,4.02-4.292,5.254-6.765c1.311-2.623,3.051-4.541,4.31-7.127  c1.336-2.742,2.445-5.372,3.592-8.244c1.03-2.578,3.914-5.08,3.914-7.917C42.787,75.966,42.06,73.058,39.784,73.662" id="path323" style="fill-rule:evenodd;clip-rule:evenodd;fill:#D59758;"></path>

<path d="M51.044,76.669c-0.633,1.82-2.371,2.69-3.003,4.51  C48.918,79.422,49.556,77.98,51.044,76.669" id="path325" style="fill-rule:evenodd;clip-rule:evenodd;"></path>

<path d="M33.78,63.891c-1.001,1.001-2.002,2.004-3.003,3.006  C30.339,65.133,32.049,63.504,33.78,63.891" id="path327" style="fill-rule:evenodd;clip-rule:evenodd;fill:#D59758;"></path>

<path d="M61.552,116.507c-1.869-0.479-1.688,1.909-3.002,1.502  C57.916,117.813,60.197,114.336,61.552,116.507" id="path329" style="fill-rule:evenodd;clip-rule:evenodd;fill:#D59758;"></path>

<path d="  M57.05,84.186c-0.537,1.614-0.869,2.671-2.252,3.758c-1.42-2.309-6.692,2.469-4.505-3.007c0.924-2.311,0.751-4.814,0.751-7.541  c0-1.156-0.428-3.306,0.375-4.11c1.191-1.192,2.628-0.681,2.628-2.241c0-1.41,1.657-1.142,2.627-1.142c1,0,2.662-2.291,3.377-3.007  c-0.88,2.977,3.003,0.094,3.003,2.617c0,1.608,1.4,4.759,0,5.651c2.795-0.288,0.741,3.025,0.194,4.12  c-0.343,0.688-0.194,1.508-0.194,2.269c0,1.158-1.366,1.776-1.502,2.631c-0.109,0.699,0.905,1.861,0.752,2.255  c-0.292,0.747-2.332,1.6-3.004,1.503C57.57,87.694,55.613,85.27,57.05,84.186c-0.25,0.25-0.501,0.501-0.751,0.751  C56.549,84.687,56.8,84.436,57.05,84.186" id="path331" style="fill-rule:evenodd;clip-rule:evenodd;fill:#F2F2F2;stroke:#000000;stroke-width:0;stroke-linecap:square;stroke-miterlimit:10;"></path>

<path d="M60.051,69.904c-0.724,0.604-0.862,1.726-1.501,2.255  c-0.711,0.588-1.516-0.373-2.251,0.752C57.413,71.719,58.937,71.095,60.051,69.904" id="path333" style="fill-rule:evenodd;clip-rule:evenodd;fill:#BFBFBF;"></path>

<path d="M57.05,69.904c-0.921,0.922-2.737,3.793-3.753,3.758  c1.223-0.255,1.768-2.307,2.251-3.758C55.687,71.03,56.355,70.825,57.05,69.904" id="path335" style="fill-rule:evenodd;clip-rule:evenodd;fill:#BFBFBF;"></path>

<path d="M63.054,75.166c-0.472,0-1.872-0.247-2.252,0  c-1.161,0.754-0.296,1.348-0.751,2.254c-0.478,0.953-3.197,4.608,0,3.759c-0.694,0.92-1.363,1.126-1.501,0  c0.124,1.538-1.5,0.067-1.5,1.127c0,0.987,0.123,1.791,0.751,2.631c0.249-0.25,0.499-0.501,0.749-0.751  c0.713,1.09,2.289,1.09,3.002,0c0,0.25,0,0.501,0,0.751c0-0.25,0-0.501,0-0.751c-0.689,3.947-3.921-1.037-5.253,0.751  c-0.753-0.514-0.947-1.375-0.751-2.255c-0.536,0.179-2.4,1.179-3.003,0.751c-1.014-0.721,1.624-0.751,1.892-0.751  c2.719,0,3.684-0.282,4.113-3.007c0.283-1.799-0.255-4.255,1.126-5.637c0.391-0.392,0.891-0.141,1.126-0.376  c0.234-0.236-0.015-0.737,0.376-1.127c1.135-1.137,1.456,0.311,0.374,1.127c0.48,0,1.028,0.073,1.502,0  C60.993,73.114,60.993,75.713,63.054,75.166" id="path337" style="fill-rule:evenodd;clip-rule:evenodd;fill:#BFBFBF;"></path>

<path d="M61.552,76.669c0.47,2.1-2.493,2.614-0.75,4.51  c-0.25,0-0.501,0-0.751,0c2.672,0.092-0.508-3.791,3.003-3.006c-0.25-0.251-0.501-0.501-0.75-0.752  c-0.251,0.251-0.502,0.501-0.752,0.752C61.552,77.692,61.479,77.143,61.552,76.669" id="path339" style="fill-rule:evenodd;clip-rule:evenodd;fill:#BFBFBF;"></path>

<path d="M61.552,96.964c-0.35-0.701-1.507-3.758-1.876-3.758  C58.654,93.206,60.964,96.473,61.552,96.964" id="path341" style="fill-rule:evenodd;clip-rule:evenodd;fill:#D59758;"></path>

<path d="M63.054,75.166  c-1.496,0.334-2.139-1.499-2.252-1.503c-1.013-0.04-1.102,2.648-1.502,3.758c-0.443,1.234-0.75,1.861-0.75,3.383  c0,0.885-1.264,0.501-1.5,1.127c-0.214,0.567,0,1.62,0,2.255c-1.807-0.305-0.972-1.503-2.613-1.503  c-1.068,0-2.438,1.025-3.392,1.503" id="path343" style="fill:none;stroke:#000000;stroke-width:0;stroke-linecap:square;stroke-miterlimit:10;"></path>

<path d="M55.548,82.682  c-0.101,0.968,0.533,1.603,1.502,1.503" id="path345" style="fill:none;stroke:#000000;stroke-width:0;stroke-linecap:square;stroke-miterlimit:10;"></path>

<path d="M58.55,81.179  c1.998,0,1.923,0.001,3.002-1.503" id="path347" style="fill:none;stroke:#000000;stroke-width:0;stroke-linecap:square;stroke-miterlimit:10;"></path>

<path d="M61.552,76.669  c0,1.467,0.613,3.559-1.501,3.006" id="path349" style="fill:none;stroke:#000000;stroke-width:0;stroke-linecap:square;stroke-miterlimit:10;"></path>

<path d="M61.552,78.172" id="path351" style="fill:none;stroke:#000000;stroke-width:0;stroke-linecap:square;stroke-miterlimit:10;"></path>

<path d="M61.552,84.186  c0.074,2.084-4.576,2.085-4.502,0" id="path353" style="fill:none;stroke:#000000;stroke-width:0;stroke-linecap:square;stroke-miterlimit:10;"></path>

<path d="M61.552,73.662  c-0.5,0-1,0-1.501,0" id="path355" style="fill:none;stroke:#000000;stroke-width:0;stroke-linecap:square;stroke-miterlimit:10;"></path>

<path d="M61.552,73.662" id="path357" style="fill:none;stroke:#000000;stroke-width:0;stroke-linecap:square;stroke-miterlimit:10;"></path>

<path d="M60.051,69.904  c-0.779,0.577-1.517,1.297-1.501,2.255" id="path359" style="fill:none;stroke:#000000;stroke-width:0;stroke-linecap:square;stroke-miterlimit:10;"></path>

<path d="M57.05,69.904  c-0.885,0.885-1.711,2.265-3.003,2.255" id="path361" style="fill:none;stroke:#000000;stroke-width:0;stroke-linecap:square;stroke-miterlimit:10;"></path>

<path d="M55.548,84.186c-1.211-0.337-1.354-0.825-2.613-0.195  c-0.89,0.445-1.634,0.964-2.642,0.946c0.251-0.25,0.501-0.501,0.751-0.751c1.252,1.972,2.914-0.898,4.503,1.503  C55.548,85.201,55.628,84.665,55.548,84.186" id="path363" style="fill-rule:evenodd;clip-rule:evenodd;fill:#FFFFFF;"></path>

<path d="M61.552,68.4c0.361,2.237-1.453,4.55-3.751,4.51  c0.622-0.625,2.25-1.75,2.25-2.631C60.051,69.627,61.698,69.811,61.552,68.4" id="path365" style="fill-rule:evenodd;clip-rule:evenodd;fill:#FFFFFF;"></path>

<path d="M58.55,68.4c0.472-0.074,1.022,0,1.501,0  c-1.591,1.74-3.648,2.785-5.253,4.51C56.21,71.732,57.184,69.771,58.55,68.4c0,0.251,0,0.501,0,0.752  C58.55,68.901,58.55,68.651,58.55,68.4" id="path367" style="fill-rule:evenodd;clip-rule:evenodd;fill:#FFFFFF;"></path>

<path d="M55.548,69.904c-0.785,0.655-0.872,1.536-1.501,2.255  c-0.499,0.571-1.654,0.029-1.502,1.503c0.3-0.833,1.502-1.876,1.502-2.645C54.047,69.908,54.326,69.584,55.548,69.904" id="path369" style="fill-rule:evenodd;clip-rule:evenodd;fill:#FFFFFF;"></path>

<path d="M64.556,78.172c0.029-1.699-1.171-3.417-3.004-3.007  c0.949,0.682,1.012,0.915,1.502,1.503C63.796,77.558,63.605,77.974,64.556,78.172" id="path371" style="fill-rule:evenodd;clip-rule:evenodd;fill:#FFFFFF;"></path>

<path d="M61.552,85.688c0.283,2.736-4.57,0.846-4.502,0  C59.162,87.273,59.513,85.183,61.552,85.688" id="path373" style="fill-rule:evenodd;clip-rule:evenodd;fill:#FFFFFF;"></path>

<path d="M48.041,104.48c1.02,0.754,1.796,1.691,1.501,3.007  C48.632,106.575,46.671,105.506,48.041,104.48" id="path375" style="fill-rule:evenodd;clip-rule:evenodd;fill:#FFFFFF;"></path>

<path d="M57.05,98.467c3.38,0.572-0.466,2.687,0,4.51  c0-1.166,0.576-4.615-0.751-4.51C56.549,98.467,56.8,98.467,57.05,98.467" id="path377" style="fill-rule:evenodd;clip-rule:evenodd;fill:#FFFFFF;"></path>

<path d="M58.55,99.97c1.021,1.383,1.021,3.127,0,4.51  C58.55,102.977,58.55,101.474,58.55,99.97" id="path379" style="fill-rule:evenodd;clip-rule:evenodd;fill:#FFFFFF;"></path>

<path d="M55.548,99.97c-0.249,0-0.5,0-0.75,0  c1.311,1.469-0.028,2.218,0,3.758C56.174,102.675,53.575,101.266,55.548,99.97c-0.487,0-1.022-0.079-1.501,0  C54.547,99.97,55.048,99.97,55.548,99.97" id="path381" style="fill-rule:evenodd;clip-rule:evenodd;fill:#FFFFFF;"></path>

<path d="M55.548,98.467c-1.001,0-2.002,0-3.003,0  c0.501,0,1.001,0,1.502,0c-0.25,0-0.501,0-0.75,0C54.047,98.467,54.798,98.467,55.548,98.467" id="path383" style="fill-rule:evenodd;clip-rule:evenodd;fill:#FFFFFF;"></path>

<path d="M52.545,99.97c-0.662-0.2-1.039,0.017-1.5-0.751  c-0.474,0.701-0.185,0.24-0.751,0.751C51.044,99.97,51.795,99.97,52.545,99.97" id="path385" style="fill-rule:evenodd;clip-rule:evenodd;fill:#FFFFFF;"></path>

<path d="M63.054,99.97c-1.02,0.754-1.795,1.691-1.502,3.006  C61.552,101.516,60.953,99.413,63.054,99.97" id="path387" style="fill-rule:evenodd;clip-rule:evenodd;fill:#FFFFFF;"></path>

<path d="M52.545,116.507c-1.08,1.701-4.692-0.235-3.002-1.503  c-0.345,0.414-0.475,1.036-0.75,1.503C49.851,116.542,53.394,119.701,52.545,116.507" id="path389" style="fill-rule:evenodd;clip-rule:evenodd;fill:#FFFFFF;"></path>

<path d="M63.054,110.493c0,1.274,0.427,2.951-0.75,3.759  C60.974,113.293,63.082,112.048,63.054,110.493" id="path391" style="fill-rule:evenodd;clip-rule:evenodd;fill:#FFFFFF;"></path>

<path d="M63.054,108.99  c-1.045,3.139-1.293,3.706-4.504,4.51" id="path393" style="fill:none;stroke:#000000;stroke-width:0;stroke-linecap:square;stroke-miterlimit:10;"></path>

<path d="M49.542,115.003  c1.25,1.502,2.702,1.503,4.504,1.503" id="path395" style="fill:none;stroke:#000000;stroke-width:0;stroke-linecap:square;stroke-miterlimit:10;"></path>

<path d="M58.55,99.97  c0.336,1.834-3.266,7.3-1.5,7.517" id="path397" style="fill:none;stroke:#000000;stroke-width:0;stroke-linecap:square;stroke-miterlimit:10;"></path>

<path d="M54.047,107.487  c-0.321-1.228,0.178-1.895,1.501-1.503c-0.646-1.942-0.686-2.515-0.194-4.482c0.234-0.938,0.673-4.265-0.932-2.659  c-1.984,1.987-1.877,3.725-1.877,7.141" id="path399" style="fill:none;stroke:#000000;stroke-width:0;stroke-linecap:square;stroke-miterlimit:10;"></path>

<line id="line401" style="fill:none;stroke:#000000;stroke-width:0;stroke-linecap:square;stroke-miterlimit:10;" x1="55.548" x2="55.548" y1="98.467" y2="98.467"></line>

<path d="M52.545,99.97  c0.501,0,1.001,0,1.502,0" id="path403" style="fill:none;stroke:#000000;stroke-width:0;stroke-linecap:square;stroke-miterlimit:10;"></path>

<path d="M51.044,102.977  c0.5,0,1,0,1.5,0" id="path405" style="fill:none;stroke:#000000;stroke-width:0;stroke-linecap:square;stroke-miterlimit:10;"></path>

<path d="M60.051,102.977  c0.046,2.604-2.149,6.462-3.001,9.021" id="path407" style="fill:none;stroke:#000000;stroke-width:0;stroke-linecap:square;stroke-miterlimit:10;"></path>

<path d="M52.545,90.198c-0.404,0.338-1.026,0.514-1.5,0.752  c0-0.25,0-0.501,0-0.752c-0.972,2.191-3.049,5.097-3.003,7.517C50.671,97.147,51.599,92.33,52.545,90.198" id="path409" style="fill-rule:evenodd;clip-rule:evenodd;fill:#511900;"></path>

<path d="M44.288,108.99c-1.318,0.327-2.262-0.493-3.002-1.503  c-0.67,1.343-5.539,9.254-4.114,9.966C39.926,118.833,43.079,111.009,44.288,108.99" id="path411" style="fill-rule:evenodd;clip-rule:evenodd;fill:#511900;"></path>

<path d="M63.054,88.695c-0.25,0.25-0.501,0.501-0.75,0.751  c-0.251-0.25-0.502-0.501-0.752-0.751c0.49,1.349,2.295,8.701,3.754,8.269C67.877,96.201,63.489,89.566,63.054,88.695" id="path413" style="fill-rule:evenodd;clip-rule:evenodd;fill:#511900;"></path>

<path d="M71.312,104.48c0.133,1.308-1.088,1.792-2.252,1.503  c1.736,1.502,2.403,3.463,3.119,5.614c1.117,3.354,2.812,1.374,3.637-1.104C74.541,110.625,71.289,105.931,71.312,104.48" id="path415" style="fill-rule:evenodd;clip-rule:evenodd;fill:#511900;"></path>

<path d="M48.041,119.513c0.138,1.127,0.808,0.921,1.501,0  c-1.17,1.694-5.276,9.772-7.131,9.772c-2.84,0,0.789-3.847,1.144-4.282C45.051,123.172,46.546,121.343,48.041,119.513" id="path417" style="fill-rule:evenodd;clip-rule:evenodd;fill:#511900;"></path>

<path d="M36.781,135.298c-0.015,0.813,0.25,1.585,0.75,2.255  c0.25-0.25,0.5-0.5,0.75-0.752c-1.064,2.133-2.066,3.575-3.751,5.262c-1.565-1.027-0.584-2.423,0.375-3.383  C35.758,137.827,35.635,136.259,36.781,135.298" id="path419" style="fill-rule:evenodd;clip-rule:evenodd;fill:#511900;"></path>

<path d="M80.318,132.291c0.046,2.563-2.009,3.746-3.53,1.462  c-0.698-1.049-1.349-1.838-2.239-2.729c-0.485-0.485,0.956-2.62,1.267-3.242C77.316,129.284,78.818,130.788,80.318,132.291" id="path421" style="fill-rule:evenodd;clip-rule:evenodd;fill:#511900;"></path>

<path d="M64.556,115.003c-0.645,0.896-0.619,1.319-1.502,1.503  c0.841,1.262,4.085,7.935,5.63,6.389C70.136,121.442,65.48,116.393,64.556,115.003" id="path423" style="fill-rule:evenodd;clip-rule:evenodd;fill:#511900;"></path>

<line id="line425" style="fill:none;stroke:#773F0C;stroke-width:0;stroke-linecap:square;stroke-miterlimit:10;" x1="61.552" x2="66.056" y1="88.695" y2="94.709"></line>

<path d="M71.312,104.48  c0.742,2.23,1.986,5.296,4.504,6.013" id="path427" style="fill:none;stroke:#773F0C;stroke-width:0;stroke-linecap:square;stroke-miterlimit:10;"></path>

<path d="M63.054,116.507  c2.126,2.129,3.859,4.753,6.006,6.764" id="path429" style="fill:none;stroke:#773F0C;stroke-width:0;stroke-linecap:square;stroke-miterlimit:10;"></path>

<path d="M49.542,119.513  c-1.428,3.527-4.647,6.605-6.756,9.772" id="path431" style="fill:none;stroke:#773F0C;stroke-width:0;stroke-linecap:square;stroke-miterlimit:10;"></path>

<path d="M36.781,136.801  c-0.63,1.821-2.37,2.691-3.001,4.511" id="path433" style="fill:none;stroke:#773F0C;stroke-width:0;stroke-linecap:square;stroke-miterlimit:10;"></path>

<path d="M42.787,124.775  c-1.291,1.21-2.298,2.89-3.003,4.51" id="path435" style="fill:none;stroke:#773F0C;stroke-width:0;stroke-linecap:square;stroke-miterlimit:10;"></path>

<line id="line437" style="fill:none;stroke:#773F0C;stroke-width:0;stroke-linecap:square;stroke-miterlimit:10;" x1="64.556" x2="67.558" y1="121.768" y2="124.775"></line>

<path d="M42.787,108.99  c-0.957,2.202-2.743,5.949-4.505,7.517" id="path439" style="fill:none;stroke:#773F0C;stroke-width:0;stroke-linecap:square;stroke-miterlimit:10;"></path>

<line id="line441" style="fill:none;stroke:#773F0C;stroke-width:0;stroke-linecap:square;stroke-miterlimit:10;" x1="39.784" x2="38.282" y1="107.487" y2="113.5"></line>

<path d="M51.044,90.198  c-0.946,2.842-2.274,5.35-3.003,8.269" id="path443" style="fill:none;stroke:#773F0C;stroke-width:0;stroke-linecap:square;stroke-miterlimit:10;"></path>

<line id="line445" style="fill:none;stroke:#773F0C;stroke-width:0;stroke-linecap:square;stroke-miterlimit:10;" x1="61.552" x2="64.556" y1="96.964" y2="101.473"></line>

<path d="M75.815,129.285  c1.208,1.291,2.886,2.3,4.503,3.006" id="path447" style="fill:none;stroke:#773F0C;stroke-width:0;stroke-linecap:square;stroke-miterlimit:10;"></path>

<path d="M36.781,197.686c1.923,0,3.002,0.636,3.002-1.479  c0-2.134,0-4.267,0-6.398c0-1.935-3.002-1.384-3.002,0.586C36.781,192.823,36.781,195.255,36.781,197.686" id="path449" style="fill-rule:evenodd;clip-rule:evenodd;fill:#511900;"></path>

<path d="M49.542,186.41c0.339,1.644,1.587,0.949,1.188,3.542  c-0.155,1.007-0.381,7.293-1.188,7.733c-0.742,0.403-2.158-0.657-2.627-1.128c-0.653-0.653-0.005-1.579,0.251-2.414  C47.958,191.566,48.75,188.988,49.542,186.41" id="path451" style="fill-rule:evenodd;clip-rule:evenodd;fill:#511900;"></path>

<path d="M42.787,206.705c0.909-1.432,2.51-0.414,3.753,0  c-0.716,1.721-2.759,9.771-4.894,9.771C37.887,216.477,42.056,208.899,42.787,206.705" id="path453" style="fill-rule:evenodd;clip-rule:evenodd;fill:#511900;"></path>

<path d="M35.281,206.705c2.056,0,3-0.64,3,1.582  c0,1.518,0.85,6.212,0,7.438c-1.376,1.99-3,0.04-3-1.582C35.281,211.663,35.281,209.185,35.281,206.705" id="path455" style="fill-rule:evenodd;clip-rule:evenodd;fill:#511900;"></path>

<path d="M42.787,225.497c0.694,0.92,1.363,1.125,1.501,0  c1.198,1.713,2.396,3.426,3.592,5.139c0.534,0.765,1.069,1.528,1.604,2.294c-0.18-0.258-0.873,1.652-0.691,1.587  C47.289,235.064,43.589,226.876,42.787,225.497" id="path457" style="fill-rule:evenodd;clip-rule:evenodd;fill:#511900;"></path>

<path d="M33.78,225.497c-0.25,0.25-0.5,0.5-0.75,0.751  c3.396-0.844,1.463,2.068,0.666,3.397c-1.102,1.84-2.051,4.165-3.668,5.624C28.222,234.072,32.912,227.235,33.78,225.497" id="path459" style="fill-rule:evenodd;clip-rule:evenodd;fill:#511900;"></path>

<path d="M54.047,243.537c0.138,1.127,0.807,0.92,1.501,0  c0.898,1.648,5.522,7.822,3.752,9.02C56.879,250.432,55.57,246.336,54.047,243.537" id="path461" style="fill-rule:evenodd;clip-rule:evenodd;fill:#511900;"></path>

<path d="M24.771,243.537c0.139,1.127,0.808,0.92,1.501,0  c-0.786,2.165-2.725,11.877-6.756,8.268C21.268,249.049,23.021,246.292,24.771,243.537" id="path463" style="fill-rule:evenodd;clip-rule:evenodd;fill:#511900;"></path>

<line id="line465" style="fill:none;stroke:#773F0C;stroke-width:0;stroke-linecap:square;stroke-miterlimit:10;" x1="49.542" x2="46.54" y1="186.41" y2="196.182"></line>

<line id="line467" style="fill:none;stroke:#773F0C;stroke-width:0;stroke-linecap:square;stroke-miterlimit:10;" x1="38.282" x2="38.282" y1="189.418" y2="197.686"></line>

<line id="line469" style="fill:none;stroke:#773F0C;stroke-width:0;stroke-linecap:square;stroke-miterlimit:10;" x1="38.282" x2="36.781" y1="206.705" y2="215.726"></line>

<line id="line471" style="fill:none;stroke:#773F0C;stroke-width:0;stroke-linecap:square;stroke-miterlimit:10;" x1="44.288" x2="41.285" y1="206.705" y2="215.726"></line>

<line id="line473" style="fill:none;stroke:#773F0C;stroke-width:0;stroke-linecap:square;stroke-miterlimit:10;" x1="44.288" x2="49.542" y1="227" y2="233.014"></line>

<line id="line475" style="fill:none;stroke:#773F0C;stroke-width:0;stroke-linecap:square;stroke-miterlimit:10;" x1="33.78" x2="30.776" y1="227" y2="234.517"></line>

<line id="line477" style="fill:none;stroke:#773F0C;stroke-width:0;stroke-linecap:square;stroke-miterlimit:10;" x1="55.548" x2="60.051" y1="243.537" y2="251.805"></line>

<line id="line479" style="fill:none;stroke:#773F0C;stroke-width:0;stroke-linecap:square;stroke-miterlimit:10;" x1="26.272" x2="21.018" y1="243.537" y2="251.805"></line>

<path d="M67.558,148.076c0.039,2.181-3.6,6.148-5.254,7.517  c2.058,0,4.124,0.388,4.878-1.879C67.784,151.906,67.558,149.974,67.558,148.076" id="path481" style="fill-rule:evenodd;clip-rule:evenodd;fill:#511900;"></path>

<path d="M66.056,161.606c-1.155,1.157-7.853,4.763-6.005,6.013  C63.278,169.803,65.491,163.306,66.056,161.606" id="path483" style="fill-rule:evenodd;clip-rule:evenodd;fill:#511900;"></path>

<path d="M57.05,169.123c-1.568-0.389-4.382,3.87-4.505,1.502  C52.483,169.44,58.102,165.399,57.05,169.123" id="path485" style="fill-rule:evenodd;clip-rule:evenodd;fill:#D59758;"></path>

<path d="M54.047,136.801c-2.397,3.601-4.036,8.581-5.254,12.778  c-0.487,1.673-0.146,4.801-0.829,6.168c-0.393,0.787-3.676,7.106-3.676,3.297c0-5.039,1.954-8.919,3.68-13.527  c0.856-2.286,1.934-4.53,2.702-6.837C51.121,137.323,55.035,133.461,54.047,136.801" id="path487" style="fill-rule:evenodd;clip-rule:evenodd;fill:#EAC45E;"></path>

<path d="M44.288,163.108c0.628,1.885,1.333,5.492-1.501,6.015  C42.583,167.175,43.258,164.761,44.288,163.108" id="path489" style="fill-rule:evenodd;clip-rule:evenodd;fill:#EAC45E;"></path>

<path d="M64.556,253.308c-0.747,0.746-2.044,2.596-3.004,3.008  c-1.621,0.695-3.19-0.756-4.502,0.75c2.033,1.021,3.421,2.046,5.614,0.947C63.975,257.357,66.39,254.441,64.556,253.308" id="path491" style="fill-rule:evenodd;clip-rule:evenodd;fill:#E5E5E5;"></path>

<path d="M16.513,253.308c1.578,0.791,2.709,1.503,4.48,1.503  c0.625,0,4.019,0.343,2.042,1.66c-3.128,2.089-5.984,0.546-7.272-3.163C16.013,253.308,16.264,253.308,16.513,253.308" id="path493" style="fill-rule:evenodd;clip-rule:evenodd;fill:#E5E5E5;"></path>

<path d="M49.542,256.315c2.356-0.02,5.307,3.862,6.201,5.65  c2.159,4.323-3.28,4.871-6.201,4.871c-1.913,0-3.383-0.095-5.227-0.556c-1.037-0.259-3.275-2.71-2.835-3.591  c0.568-1.141,1.324-3.753,2.447-4.316C45.712,257.48,47.649,256.945,49.542,256.315" id="path495" style="fill-rule:evenodd;clip-rule:evenodd;fill:#E5E5E5;"></path>

<path d="M49.542,257.818c1.238,0.917,2.549,0.731,3.754,1.503  c1.428,0.914,2.283,2.161,2.251,3.758c-0.069,3.602-4.371,3.758-7.062,3.758c-3.585,0-6.45-0.983-6.45-4.871  C42.036,258.669,47.334,258.555,49.542,257.818" id="path497" style="fill-rule:evenodd;clip-rule:evenodd;fill:#E8E8E8;"></path>

<path d="M49.542,257.818c1.935,1.434,5.255,0.756,5.255,4.147  c0,3.711-2.499,3.368-5.567,3.368c-2.872,0-6.444-0.026-6.444-3.396C42.787,258.336,47.038,258.654,49.542,257.818" id="path499" style="fill-rule:evenodd;clip-rule:evenodd;fill:#EBEBEB;"></path>

<path d="M49.542,257.818c1.258,0.629,6.044,2.179,5.061,4.147  c-1.586,3.173-2.642,3.368-6.118,3.368c-2.357,0-6.628-1.145-5.144-4.119C44.846,258.202,46.595,258.802,49.542,257.818" id="path501" style="fill-rule:evenodd;clip-rule:evenodd;fill:#EEEEEE;"></path>

<path d="M49.542,257.818c1.494,0.747,4.594,1.743,4.504,3.758  c-0.122,2.701-3.821,2.256-5.561,2.256c-2.599,0-4.949-0.301-4.949-3.369C43.537,259.204,48.448,258.184,49.542,257.818" id="path503" style="fill-rule:evenodd;clip-rule:evenodd;fill:#F1F1F1;"></path>

<path d="M49.542,257.818c2.065,1.032,3.754,1.527,3.754,4.12  c0,2.337-3.332,1.894-4.811,1.894c-1.06,0-5.593-0.966-4.754-2.646C44.906,258.834,47.186,258.604,49.542,257.818" id="path505" style="fill-rule:evenodd;clip-rule:evenodd;fill:#F4F4F4;"></path>

<path d="M49.542,257.818c2.02,0.674,3.002,1.062,3.002,3.368  c0,1.784-3.208,1.142-4.427,1.142c-1.541,0-4.969,0.208-3.302-2.298C46.085,258.124,47.29,258.27,49.542,257.818" id="path507" style="fill-rule:evenodd;clip-rule:evenodd;fill:#F7F7F7;"></path>

<path d="M32.278,256.315c3.479-0.563,6.003,3.426,6.003,6.375  c0,3.87-4.274,4.146-7.505,4.146c-3.082,0-7.96-0.92-6.756-5.261C24.869,258.52,29.447,256.315,32.278,256.315" id="path509" style="fill-rule:evenodd;clip-rule:evenodd;fill:#E5E5E5;"></path>

<path d="M32.278,256.315c2.436-0.624,6.003,3.347,6.003,5.623  c0,3.885-4.404,3.396-7.153,3.396c-1.563,0-2.996,0.121-4.481-0.375c-0.799-0.267-1.356-0.422-1.877-1.127  c-1.039-1.408-0.303-1.161,0-2.256C25.695,258.241,29.033,256.315,32.278,256.315" id="path511" style="fill-rule:evenodd;clip-rule:evenodd;fill:#E8E8E8;"></path>

<path d="M32.278,256.315c1.797-0.46,6.003,3.087,6.003,4.899  c0,3.744-3.296,4.119-6.316,4.119c-3.221,0-6.444-0.344-6.444-4.119C25.522,258.515,30.127,256.315,32.278,256.315" id="path513" style="fill-rule:evenodd;clip-rule:evenodd;fill:#EBEBEB;"></path>

<path d="M32.278,256.315c2.173,0.725,5.072,1.684,5.253,4.51  c0.208,3.247-3.042,3.007-5.461,3.007c-2.317,0-5.958,0.396-5.798-3.007C26.422,257.673,29.958,257.089,32.278,256.315" id="path515" style="fill-rule:evenodd;clip-rule:evenodd;fill:#EEEEEE;"></path>

<path d="M32.278,256.315c1.894,0.946,4.503,1.744,4.503,4.147  c0,3.151-2.192,3.369-4.815,3.369c-1.917,0-6.22-0.609-5.693-3.759C26.608,258.067,30.766,256.818,32.278,256.315" id="path517" style="fill-rule:evenodd;clip-rule:evenodd;fill:#F1F1F1;"></path>

<path d="M32.278,256.315c1.478,0.492,4.555,1.636,4.503,3.758  c-0.066,2.641-3.018,2.255-4.711,2.255c-0.803,0-5.947,0.3-4.852-1.893C28.349,258.169,30.09,257.41,32.278,256.315" id="path519" style="fill-rule:evenodd;clip-rule:evenodd;fill:#F4F4F4;"></path>

<path d="M32.278,257.818c1.886,0.629,3.888,0.156,3.753,2.255  c-0.128,2.016-1.988,2.473-3.753,2.255c-0.761-0.093-4.791-0.928-4.31-1.893C28.989,258.393,30.142,258.353,32.278,257.818" id="path521" style="fill-rule:evenodd;clip-rule:evenodd;fill:#F7F7F7;"></path>

<path d="M26.272,257.818c-0.639,0.769-1.604,0.855-2.252,1.503  c-0.647,0.647-0.732,1.613-1.501,2.255c0.842-0.934,1.787-2.466,2.252-3.758c0.25,0.25,0.501,0.5,0.751,0.751  C25.772,258.318,26.023,258.068,26.272,257.818" id="path523" style="fill-rule:evenodd;clip-rule:evenodd;fill:#B2B2B2;"></path>

<path d="M24.771,257.818c-1.849-0.033-3.383,2.255-4.879,2.255  c-0.973,0-0.076-1.233,0.375-1.504c1.069-0.639,2.118,0.605,3.003-0.751c-1.159,0-2.629,0.25-3.753,0  c-0.712-0.159-1.329,0.344-1.696-0.39c-0.432-0.864-0.365-1.146-1.307-1.113c1.925,2.521,4.713,1.363,6.757,0  C22.903,257.616,23.471,258.186,24.771,257.818" id="path525" style="fill-rule:evenodd;clip-rule:evenodd;fill:#B2B2B2;"></path>

<path d="M54.047,257.818c1.501,1.503,3.002,3.007,4.503,4.51  C59.269,259.783,53.771,260.481,54.047,257.818" id="path527" style="fill-rule:evenodd;clip-rule:evenodd;fill:#B2B2B2;"></path>

<path d="M57.05,257.818c-0.031,0.389,2.871,1.899,3.752,2.255  c0.813,0.328,1.149-0.752,0.36-0.752c-1.206,0-1.871-0.491-2.612-1.503c1.064,1.674,1.741,0,3.002,0c1.263,0,1.939,1.674,3.004,0  c-1.306,2.001-3.067-0.1-4.505,0C59.172,257.878,56.921,259.414,57.05,257.818" id="path529" style="fill-rule:evenodd;clip-rule:evenodd;fill:#B2B2B2;"></path>

<path d="M64.556,253.308c-0.705,0.942-0.477,2.399-1.502,3.008  c-0.527,0.313-2.326,0-3.003,0c0.925,0.685,2.324,1.09,3.393,0.556C65.015,256.086,64.556,254.968,64.556,253.308" id="path531" style="fill-rule:evenodd;clip-rule:evenodd;fill:#F7F7F7;"></path>

<path d="M66.056,257.818c-0.031,1.823,1.955,2.686,1.502,4.51  c0.505-1.706-2.333-2.584-3.002-4.51c0.249,0.25,0.5,0.5,0.75,0.751C65.039,257.48,65.654,258.183,66.056,257.818" id="path533" style="fill-rule:evenodd;clip-rule:evenodd;fill:#F7F7F7;"></path>

<path d="M16.513,251.805c1.145,0.752,0.184,1.447,0.751,2.255  c0.759,1.079,1.261,0.345,1.501,1.504C17.105,254.063,16.513,254.395,16.513,251.805" id="path535" style="fill-rule:evenodd;clip-rule:evenodd;fill:#F7F7F7;"></path>

<path d="M26.272,257.818  c-0.896,0.644-1.317,0.618-1.501,1.503" id="path537" style="fill:none;stroke:#000000;stroke-width:0;stroke-linecap:square;stroke-miterlimit:10;"></path>

<path d="M23.27,256.315  c-1.933,2.402-4.604,1.076-6.757,0" id="path539" style="fill:none;stroke:#000000;stroke-width:0;stroke-linecap:square;stroke-miterlimit:10;"></path>

<path d="M24.771,256.315  c-1.63-0.014-1.845,1.991-3.753,1.503" id="path541" style="fill:none;stroke:#000000;stroke-width:0;stroke-linecap:square;stroke-miterlimit:10;"></path>

<path d="M54.047,257.818  c0.447,1.769,1.971,1.767,3.003,3.007" id="path543" style="fill:none;stroke:#000000;stroke-width:0;stroke-linecap:square;stroke-miterlimit:10;"></path>

<path d="M58.55,257.818  c1.072,1.452,3.053,0.362,4.504,0" id="path545" style="fill:none;stroke:#000000;stroke-width:0;stroke-linecap:square;stroke-miterlimit:10;"></path>

<path d="M57.05,257.818  c0.021,1.584,2.086,0.101,3.001,1.503" id="path547" style="fill:none;stroke:#000000;stroke-width:0;stroke-linecap:square;stroke-miterlimit:10;"></path>

<path d="M90.828,138.305  c0.835,1.921,2.051,3.558,3.519,5.026c0.998,0.998,1.408,3.878,2.33,5.263c2.365,3.551,4.063,7.454,5.41,11.509" id="path549" style="fill:none;stroke:#FFFFFF;stroke-width:0;stroke-linecap:square;stroke-miterlimit:10;"></path>

<path d="M90.828,149.579  c1.165,3.502,1.505,6.019,3.753,9.021" id="path551" style="fill:none;stroke:#FFFFFF;stroke-width:0;stroke-linecap:square;stroke-miterlimit:10;"></path>

<path d="M72.813,135.298  c-0.374,2.041,1.347,4.043,1.977,5.938c0.823,2.472,1.767,4.811,2.792,7.208c1.724,4.027,5.039,7.801,7.241,11.659" id="path553" style="fill:none;stroke:#FFFFFF;stroke-width:0;stroke-linecap:square;stroke-miterlimit:10;"></path>

<path d="M90.828,166.116  c-0.017,1.024,0.882,1.842,1.735,2.411c1.54,1.028,1.813,1.896,3.002,3.085c1.892,1.894,3.958,4.853,6.521,5.779" id="path555" style="fill:none;stroke:#F9F9F9;stroke-width:0;stroke-linecap:square;stroke-miterlimit:10;"></path>

<path d="M84.822,167.619  c0,3.759,0,7.517,0,11.275" id="path557" style="fill:none;stroke:#FFFFFF;stroke-width:0;stroke-linecap:square;stroke-miterlimit:10;"></path>

<path d="M75.815,152.586  c0,3.109,0.751,6.013,1.501,9.021" id="path559" style="fill:none;stroke:#FFFFFF;stroke-width:0;stroke-linecap:square;stroke-miterlimit:10;"></path>

<path d="M33.78,151.083  c-1.392,4.182-0.87,9.104-1.501,13.529" id="path561" style="fill:none;stroke:#FFFFFF;stroke-width:0;stroke-linecap:square;stroke-miterlimit:10;"></path>

<path d="M27.774,149.579  c-2.773,2.317-2.829,5.956-4.051,9.014c-1.479,3.701-2.705,6.521-2.705,10.53" id="path563" style="fill:none;stroke:#FFFFFF;stroke-width:0;stroke-linecap:square;stroke-miterlimit:10;"></path>

<path d="M35.281,171.378  c-2.002,2.005-4.004,4.009-6.005,6.014" id="path565" style="fill:none;stroke:#FFFFFF;stroke-width:0;stroke-linecap:square;stroke-miterlimit:10;"></path>

<path d="M54.047,59.381  c-0.321-1.228,0.178-1.895,1.501-1.503" id="path567" style="fill:none;stroke:#4C2600;stroke-width:0;stroke-linecap:square;stroke-miterlimit:10;"></path>

<path d="M52.545,57.877  c-1.126-0.138-0.919-0.809,0-1.503" id="path569" style="fill:none;stroke:#4C2600;stroke-width:0;stroke-linecap:square;stroke-miterlimit:10;"></path>

<path d="M54.047,56.374  c-1.011,0.742-1.829,1.688-1.502,3.007" id="path571" style="fill:none;stroke:#4C2600;stroke-width:0;stroke-linecap:square;stroke-miterlimit:10;"></path>

<path d="M51.044,57.877  c-0.824-0.501-0.824-1.002,0-1.503" id="path573" style="fill:none;stroke:#4C2600;stroke-width:0;stroke-linecap:square;stroke-miterlimit:10;"></path>

<path d="M49.542,56.374  c-1.199,0.765-0.73,2.028,0,3.007" id="path575" style="fill:none;stroke:#4C2600;stroke-width:0;stroke-linecap:square;stroke-miterlimit:10;"></path>

<line id="line577" style="fill:none;stroke:#4C2600;stroke-width:0;stroke-linecap:square;stroke-miterlimit:10;" x1="48.041" x2="48.041" y1="59.381" y2="56.374"></line>

<line id="line579" style="fill:none;stroke:#4C2600;stroke-width:0;stroke-linecap:square;stroke-miterlimit:10;" x1="46.54" x2="46.54" y1="59.381" y2="57.877"></line>

<path d="M55.548,59.381  c0.501,0,1.001,0,1.502,0" id="path581" style="fill:none;stroke:#4C2600;stroke-width:0;stroke-linecap:square;stroke-miterlimit:10;"></path>

<line id="line583" style="fill:none;stroke:#4C2600;stroke-width:0;stroke-linecap:square;stroke-miterlimit:10;" x1="54.047" x2="55.548" y1="60.884" y2="60.884"></line>

<line id="line585" style="fill:none;stroke:#4C2600;stroke-width:0;stroke-linecap:square;stroke-miterlimit:10;" x1="57.05" x2="57.05" y1="60.884" y2="60.884"></line>

<line id="line587" style="fill:none;stroke:#4C2600;stroke-width:0;stroke-linecap:square;stroke-miterlimit:10;" x1="44.288" x2="44.288" y1="59.381" y2="57.877"></line>

<line id="line589" style="fill:none;stroke:#4C2600;stroke-width:0;stroke-linecap:square;stroke-miterlimit:10;" x1="33.78" x2="33.78" y1="63.891" y2="62.388"></line>

<path d="M33.78,63.891  c-0.5,0-1.001,0-1.501,0" id="path591" style="fill:none;stroke:#4C2600;stroke-width:0;stroke-linecap:square;stroke-miterlimit:10;"></path>

<path d="M32.278,65.394  c-0.969,0.1-1.602-0.535-1.502-1.503" id="path593" style="fill:none;stroke:#4C2600;stroke-width:0;stroke-linecap:square;stroke-miterlimit:10;"></path>

<path d="M30.776,65.394  c-0.693,0.921-1.363,1.126-1.5,0" id="path595" style="fill:none;stroke:#4C2600;stroke-width:0;stroke-linecap:square;stroke-miterlimit:10;"></path>

<path d="M32.278,66.897  c-0.713,1.091-2.29,1.091-3.002,0" id="path597" style="fill:none;stroke:#4C2600;stroke-width:0;stroke-linecap:square;stroke-miterlimit:10;"></path>

<line id="line599" style="fill:none;stroke:#4C2600;stroke-width:0;stroke-linecap:square;stroke-miterlimit:10;" x1="30.776" x2="29.276" y1="68.4" y2="69.904"></line>

<line id="line601" style="fill:none;stroke:#4C2600;stroke-width:0;stroke-linecap:square;stroke-miterlimit:10;" x1="32.278" x2="30.776" y1="65.394" y2="65.394"></line>

<line id="line603" style="fill:none;stroke:#4C2600;stroke-width:0;stroke-linecap:square;stroke-miterlimit:10;" x1="52.545" x2="54.047" y1="60.884" y2="60.884"></line>

<line id="line605" style="fill:none;stroke:#4C2600;stroke-width:0;stroke-linecap:square;stroke-miterlimit:10;" x1="57.05" x2="58.55" y1="62.388" y2="62.388"></line>

<line id="line607" style="fill:none;stroke:#4C2600;stroke-width:0;stroke-linecap:square;stroke-miterlimit:10;" x1="51.044" x2="49.542" y1="59.381" y2="60.884"></line>

<line id="line609" style="fill:none;stroke:#4C2600;stroke-width:0;stroke-linecap:square;stroke-miterlimit:10;" x1="33.78" x2="32.278" y1="66.897" y2="66.897"></line>

<line id="line611" style="fill:none;stroke:#4C2600;stroke-width:0;stroke-linecap:square;stroke-miterlimit:10;" x1="52.545" x2="54.047" y1="62.388" y2="62.388"></line>

<line id="line613" style="fill:none;stroke:#4C2600;stroke-width:0;stroke-linecap:square;stroke-miterlimit:10;" x1="66.056" x2="67.558" y1="139.808" y2="138.305"></line>

<line id="line615" style="fill:none;stroke:#4C2600;stroke-width:0;stroke-linecap:square;stroke-miterlimit:10;" x1="64.556" x2="66.056" y1="138.305" y2="136.801"></line>

<line id="line617" style="fill:none;stroke:#4C2600;stroke-width:0;stroke-linecap:square;stroke-miterlimit:10;" x1="64.556" x2="66.056" y1="141.312" y2="141.312"></line>

<line id="line619" style="fill:none;stroke:#4C2600;stroke-width:0;stroke-linecap:square;stroke-miterlimit:10;" x1="67.558" x2="69.06" y1="148.076" y2="148.076"></line>

<line id="line621" style="fill:none;stroke:#4C2600;stroke-width:0;stroke-linecap:square;stroke-miterlimit:10;" x1="67.558" x2="69.06" y1="149.579" y2="149.579"></line>

<line id="line623" style="fill:none;stroke:#4C2600;stroke-width:0;stroke-linecap:square;stroke-miterlimit:10;" x1="67.558" x2="69.06" y1="151.083" y2="151.083"></line>

<line id="line625" style="fill:none;stroke:#4C2600;stroke-width:0;stroke-linecap:square;stroke-miterlimit:10;" x1="67.558" x2="69.06" y1="152.586" y2="152.586"></line>

<line id="line627" style="fill:none;stroke:#4C2600;stroke-width:0;stroke-linecap:square;stroke-miterlimit:10;" x1="66.056" x2="67.558" y1="154.09" y2="154.09"></line>

<line id="line629" style="fill:none;stroke:#4C2600;stroke-width:0;stroke-linecap:square;stroke-miterlimit:10;" x1="66.056" x2="66.056" y1="151.083" y2="151.083"></line>

<line id="line631" style="fill:none;stroke:#4C2600;stroke-width:0;stroke-linecap:square;stroke-miterlimit:10;" x1="64.556" x2="66.056" y1="164.612" y2="164.612"></line>

<line id="line633" style="fill:none;stroke:#4C2600;stroke-width:0;stroke-linecap:square;stroke-miterlimit:10;" x1="64.556" x2="64.556" y1="166.116" y2="166.116"></line>

<line id="line635" style="fill:none;stroke:#4C2600;stroke-width:0;stroke-linecap:square;stroke-miterlimit:10;" x1="63.054" x2="64.556" y1="164.612" y2="164.612"></line>

<line id="line637" style="fill:none;stroke:#4C2600;stroke-width:0;stroke-linecap:square;stroke-miterlimit:10;" x1="61.552" x2="63.054" y1="164.612" y2="166.116"></line>

<line id="line639" style="fill:none;stroke:#4C2600;stroke-width:0;stroke-linecap:square;stroke-miterlimit:10;" x1="64.556" x2="66.056" y1="142.814" y2="142.814"></line>

<line id="line641" style="fill:none;stroke:#4C2600;stroke-width:0;stroke-linecap:square;stroke-miterlimit:10;" x1="60.051" x2="60.051" y1="174.384" y2="174.384"></line>

<line id="line643" style="fill:none;stroke:#4C2600;stroke-width:0;stroke-linecap:square;stroke-miterlimit:10;" x1="57.05" x2="58.55" y1="175.887" y2="175.887"></line>

<line id="line645" style="fill:none;stroke:#4C2600;stroke-width:0;stroke-linecap:square;stroke-miterlimit:10;" x1="58.55" x2="58.55" y1="177.392" y2="177.392"></line>

<path d="M39.784,78.172  c0-1.002,0-2.004,0-3.007" id="path647" style="fill:none;stroke:#000000;stroke-width:0;stroke-linecap:square;stroke-miterlimit:10;"></path>

<path d="  M55.548,45.099c-1.091-3.278-2.509-5.015-5.616-6.57c-1.395-0.698-1.916-1.795-2.266-3.202c-0.328-1.312-1.687-2.597-1.877-3.758  c-0.549-3.335,2.482-5.319,5.033-5.958c3.441-0.862,5.337,3.728,6.228,5.958c1.156-3.473,2.78-4.51,6.394-4.51  c2.622,0,4.822,3.885,3.997,6.366c-0.862,2.593-2.619,5.742-5.137,7.164c-1.05,0.593-2.639,0.507-3.796,1.28  C57.088,42.819,56.505,43.663,55.548,45.099" id="path649" style="fill-rule:evenodd;clip-rule:evenodd;fill:#FF0000;stroke:#000000;stroke-width:0;stroke-linecap:square;stroke-miterlimit:10;"></path>

<path d="  M60.051,28.563c1.745-0.437,3.586-1.215,5.255,0c1.319,0.96,2.867,3.104,1.502,4.51c-1.688-1.445-0.782-2.767-3.402-3.642  C63.287,29.393,57.239,30.857,60.051,28.563" id="path651" style="fill-rule:evenodd;clip-rule:evenodd;fill:#FF7F00;stroke:#FF19B2;stroke-width:0;stroke-linecap:square;stroke-miterlimit:10;"></path>

<path d="  M51.044,27.06c2.062,0,2.755,0.336,4.503,1.503c-0.949,1.521-4.317-1.024-6.005-0.752C50.038,27.563,50.527,27.255,51.044,27.06" id="path653" style="fill-rule:evenodd;clip-rule:evenodd;fill:#FF7F00;stroke:#FF19B2;stroke-width:0;stroke-linecap:square;stroke-miterlimit:10;"></path>

<path d="  M72.813,65.394c-2.272-4.547-6.718-6.206-5.551-12.051c0.484-2.422,2.624-4.071,5.189-2.788c2.334,1.168,2.776,3.462,3.364,5.818  c0.677-1.947,2.309-3.616,4.503-3.007c2.8,0.778,3.002,3.218,3.002,5.638C83.32,64.467,75.122,62.619,72.813,65.394" id="path655" style="fill-rule:evenodd;clip-rule:evenodd;fill:#FF0000;stroke:#000000;stroke-width:0;stroke-linecap:square;stroke-miterlimit:10;"></path>

<path d="  M78.818,54.871c2.212-2.113,5.876,2.447,3.752,3.758c0.063-3.521-2.384-3.758-5.254-3.758  C77.817,54.871,78.317,54.871,78.818,54.871" id="path657" style="fill-rule:evenodd;clip-rule:evenodd;fill:#FF7F00;stroke:#FF19B2;stroke-width:0;stroke-linecap:square;stroke-miterlimit:10;"></path>

<path d="  M71.312,50.361c1.001,1.002,2.002,2.004,3.002,3.006c-1.481,0.153-0.931-1.111-1.501-1.503  C72.203,51.444,69.353,51.958,71.312,50.361" id="path659" style="fill-rule:evenodd;clip-rule:evenodd;fill:#FF7F00;stroke:#FF19B2;stroke-width:0;stroke-linecap:square;stroke-miterlimit:10;"></path>

<path d="  M36.781,25.556c-3.075-3.732-9.186-2.702-11.099-7.493c-1.079-2.696-1.364-4.533,2.091-5.285c2.737-0.596,4.278,1.276,6.006,3.006  c-1.592-1.84,0.358-5.054,2.252-6.013c1.69-0.855,4.933,0.219,5.448,2.283C42.873,17.632,36.781,20.093,36.781,25.556" id="path661" style="fill-rule:evenodd;clip-rule:evenodd;fill:#FF0000;stroke:#000000;stroke-width:0;stroke-linecap:square;stroke-miterlimit:10;"></path>

<path d="  M35.281,11.274c1.311-2.011,4.759-0.453,5.253,1.504c-0.977-1.39-0.792-1.504-2.642-1.504c-1.512,0-3.022-0.444-3.363,1.504  C34.78,12.277,35.031,11.776,35.281,11.274" id="path663" style="fill-rule:evenodd;clip-rule:evenodd;fill:#FF7F00;stroke:#FF19B2;stroke-width:0;stroke-linecap:square;stroke-miterlimit:10;"></path>

<path d="  M27.774,12.778c-0.125,1.57,2.226,0.575,3.002,0c0.702,2.371-2.96,1.503-4.504,1.503C26.76,13.793,27.226,13.196,27.774,12.778" id="path665" style="fill-rule:evenodd;clip-rule:evenodd;fill:#FF7F00;stroke:#FF19B2;stroke-width:0;stroke-linecap:square;stroke-miterlimit:10;"></path>

<path d="  M61.552,12.778c-0.776-0.649-0.859-1.576-1.501-2.255C59.479,9.918,58.446,9.668,57.8,9.02c-1.144-1.146-3.514-2.975-2.885-4.862  C55.725,1.724,56.244,0,58.948,0c2.621,0,3.101,1.747,4.105,3.758c0.837-2.517,1.483-3.007,4.144-3.007  c1.819,0,4.325,2.372,3.738,4.134C69.636,8.793,64.264,10.063,61.552,12.778" id="path667" style="fill-rule:evenodd;clip-rule:evenodd;fill:#FF0000;stroke:#000000;stroke-width:0;stroke-linecap:square;stroke-miterlimit:10;"></path>

<path d="  M64.556,2.255c3.006-1.004,4.968-0.865,4.504,3.007C69.554,1.896,67.017,2.255,64.556,2.255" id="path669" style="fill-rule:evenodd;clip-rule:evenodd;fill:#FF7F00;stroke:#FF19B2;stroke-width:0;stroke-linecap:square;stroke-miterlimit:10;"></path>

<path d="  M58.55,0.751c0.487,0,1.018-0.058,1.501,0c0.371,0,0.741,0,1.111,0c0.761,0,0.198,0.742,0.39,0.752  c-1.462-0.071-2.725-0.752-4.502-0.752C57.55,0.751,58.049,0.751,58.55,0.751" id="path671" style="fill-rule:evenodd;clip-rule:evenodd;fill:#FF7F00;stroke:#FF19B2;stroke-width:0;stroke-linecap:square;stroke-miterlimit:10;"></path>

<path d="M63.054,253.308  c0.053,3.014-2.231,3.008-4.504,3.008" id="path673" style="fill:none;stroke:#000000;stroke-width:0;stroke-linecap:square;stroke-miterlimit:10;"></path>

<path d="M16.513,253.308  c1.209,0.039,1.779,1.164,3.003,1.503c1.064,0.297,2.646,0,3.753,0" id="path675" style="fill:none;stroke:#000000;stroke-width:0;stroke-linecap:square;stroke-miterlimit:10;"></path>

</svg>
