<?xml version="1.0" encoding="UTF-8"?>
<!DOCTYPE svg PUBLIC "-//W3C//DTD SVG 1.0//EN" "http://www.w3.org/TR/2001/REC-SVG-20010904/DTD/svg10.dtd">
<svg height="283mm" viewBox="0 0 20300 28300" width="203mm">
  <metadata>
    <rdf:RDF xmlns:cc="http://web.resource.org/cc/" xmlns:dc="http://purl.org/dc/elements/1.1/" xmlns:rdf="http://www.w3.org/1999/02/22-rdf-syntax-ns#">
      <cc:Work rdf:about="">
        <dc:title>BlueMan#209</dc:title>
        <dc:description></dc:description>
        <dc:subject>
          <rdf:Bag>
            <rdf:li></rdf:li>
            <rdf:li>people</rdf:li>
            <rdf:li>stickmen</rdf:li>
          </rdf:Bag>
        </dc:subject>
        <dc:publisher>
          <cc:Agent rdf:about="http://www.openclipart.org">
            <dc:title>Yutaka Kachi</dc:title>
          </cc:Agent>
        </dc:publisher>
        <dc:creator>
          <cc:Agent>
            <dc:title>Yutaka Kachi</dc:title>
          </cc:Agent>
        </dc:creator>
        <dc:rights>
          <cc:Agent>
            <dc:title>Yutaka Kachi</dc:title>
          </cc:Agent>
        </dc:rights>
        <dc:date></dc:date>
        <dc:format>image/svg+xml</dc:format>
        <dc:type rdf:resource="http://purl.org/dc/dcmitype/StillImage"/>
        <cc:license rdf:resource="http://web.resource.org/cc/PublicDomain"/>
        <dc:language>en</dc:language>
      </cc:Work>
      <cc:License rdf:about="http://web.resource.org/cc/PublicDomain">
        <cc:permits rdf:resource="http://web.resource.org/cc/Reproduction"/>
        <cc:permits rdf:resource="http://web.resource.org/cc/Distribution"/>
        <cc:permits rdf:resource="http://web.resource.org/cc/DerivativeWorks"/>
      </cc:License>
    </rdf:RDF>
  </metadata>
  <g style="stroke:none;fill:rgb(0,0,128)">
    <polygon points="8965,8531 8165,7959 8193,7917 8220,7874 9024,8450 8965,8531"/>
    <polygon points="8193,7917 8165,7959 7430,7485 7455,7442 7479,7398 8220,7874 8193,7917"/>
    <polygon points="7455,7442 7430,7485 6757,7103 6779,7058 6800,7012 7479,7398 7455,7442"/>
    <polygon points="6779,7058 6757,7103 6142,6805 6161,6759 6179,6712 6800,7012 6779,7058"/>
    <polygon points="6161,6759 6142,6805 5585,6585 5600,6538 5614,6490 6179,6712 6161,6759"/>
    <polygon points="5600,6538 5585,6585 5083,6438 5092,6389 5100,6339 5614,6490 5600,6538"/>
    <polygon points="5092,6389 5083,6438 4630,6355 4634,6306 4637,6256 5100,6339 5092,6389"/>
    <polygon points="4634,6306 4630,6355 4228,6330 4225,6281 4221,6231 4637,6256 4634,6306"/>
    <polygon points="4225,6281 4228,6330 3872,6356 3861,6308 3849,6259 4221,6231 4225,6281"/>
    <polygon points="3861,6308 3872,6356 3558,6427 3540,6381 3521,6334 3849,6259 3861,6308"/>
    <polygon points="3540,6381 3558,6427 3285,6534 3260,6492 3234,6449 3521,6334 3540,6381"/>
    <polygon points="3260,6492 3285,6534 3047,6675 3016,6637 2984,6598 3234,6449 3260,6492"/>
    <polygon points="3016,6637 3047,6675 2844,6841 2808,6807 2771,6772 2984,6598 3016,6637"/>
    <polygon points="2808,6807 2844,6841 2671,7026 2631,6997 2590,6967 2771,6772 2808,6807"/>
    <polygon points="2631,6997 2671,7026 2527,7224 2484,7200 2440,7175 2590,6967 2631,6997"/>
    <polygon points="2484,7200 2527,7224 2409,7429 2364,7409 2318,7388 2440,7175 2484,7200"/>
    <polygon points="2364,7409 2409,7429 2314,7636 2268,7619 2221,7601 2318,7388 2364,7409"/>
    <polygon points="2268,7619 2314,7636 2240,7835 2193,7821 2145,7806 2221,7601 2268,7619"/>
    <polygon points="2193,7821 2240,7835 2185,8021 2137,8010 2088,7998 2145,7806 2193,7821"/>
    <polygon points="2137,8010 2185,8021 2146,8188 2097,8180 2047,8171 2088,7998 2137,8010"/>
    <polygon points="2097,8180 2146,8188 2120,8329 2071,8323 2021,8316 2047,8171 2097,8180"/>
    <polygon points="2071,8323 2120,8329 2105,8438 2056,8433 2006,8427 2021,8316 2071,8323"/>
    <polygon points="2056,8433 2105,8438 2097,8505 2048,8504 1998,8502 2006,8427 2056,8433"/>
    <polygon points="2048,8504 2097,8505 2096,8531 1997,8528 1998,8502 2048,8504"/>
  </g>
  <g style="stroke:none;fill:rgb(0,102,204)">
    <polygon points="2276,7596 2506,7686 2692,7849 2823,8068 2890,8327 2882,8609 2796,8876 2649,9094 2454,9251 2227,9335 1982,9334 1751,9243 1565,9080 1434,8861 1367,8602 1376,8320 1460,8053 1607,7835 1802,7678 2030,7594 2276,7596"/>
    <polygon points="6862,17243 6655,17093 6481,16855 6339,16535 6230,16142 6154,15683 6113,15168 6108,14603 6137,13998 6204,13360 6307,12697 6448,12018 6620,11353 6816,10732 7032,10163 7263,9649 7505,9199 7755,8816 8009,8509 8263,8282 8512,8141 8753,8093 8983,8144 9189,8292 9363,8531 9505,8851 9615,9244 9690,9702 9731,10217 9737,10782 9707,11387 9641,12026 9538,12689 9398,13369 9225,14033 9029,14654 8813,15223 8582,15736 8339,16187 8089,16569 7835,16877 7582,17104 7332,17245 7091,17293 6862,17243"/>
  </g>
  <g style="stroke:none;fill:rgb(0,0,128)">
    <polygon points="8747,8750 7957,8543 7967,8494 7976,8444 8772,8653 8747,8750"/>
    <polygon points="7967,8494 7957,8543 7229,8404 7235,8355 7240,8305 7976,8444 7967,8494"/>
    <polygon points="7235,8355 7229,8404 6559,8328 6561,8279 6562,8229 7240,8305 7235,8355"/>
    <polygon points="6561,8279 6559,8328 5946,8309 5943,8260 5939,8210 6562,8229 6561,8279"/>
    <polygon points="5943,8260 5946,8309 5386,8343 5379,8294 5371,8244 5939,8210 5943,8260"/>
    <polygon points="5379,8294 5386,8343 4878,8422 4866,8374 4853,8325 5371,8244 5379,8294"/>
    <polygon points="4866,8374 4878,8422 4419,8540 4402,8494 4384,8447 4853,8325 4866,8374"/>
    <polygon points="4402,8494 4419,8540 4007,8693 3985,8649 3962,8604 4384,8447 4402,8494"/>
    <polygon points="3985,8649 4007,8693 3638,8875 3612,8833 3585,8790 3962,8604 3985,8649"/>
    <polygon points="3612,8833 3638,8875 3312,9080 3282,9041 3251,9001 3585,8790 3612,8833"/>
    <polygon points="3282,9041 3312,9080 3025,9303 2991,9267 2956,9230 3251,9001 3282,9041"/>
    <polygon points="2991,9267 3025,9303 2774,9538 2737,9505 2699,9471 2956,9230 2991,9267"/>
    <polygon points="2737,9505 2774,9538 2558,9780 2519,9750 2479,9719 2699,9471 2737,9505"/>
    <polygon points="2519,9750 2558,9780 2375,10022 2333,9995 2290,9967 2479,9719 2519,9750"/>
    <polygon points="2333,9995 2375,10022 2221,10260 2178,10236 2134,10211 2290,9967 2333,9995"/>
    <polygon points="2178,10236 2221,10260 2096,10487 2051,10466 2005,10444 2134,10211 2178,10236"/>
    <polygon points="2051,10466 2096,10487 1996,10698 1950,10680 1903,10661 2005,10444 2051,10466"/>
    <polygon points="1950,10680 1996,10698 1920,10889 1873,10873 1825,10856 1903,10661 1950,10680"/>
    <polygon points="1873,10873 1920,10889 1865,11051 1817,11038 1768,11024 1825,10856 1873,10873"/>
    <polygon points="1817,11038 1865,11051 1828,11181 1780,11170 1731,11158 1768,11024 1817,11038"/>
    <polygon points="1780,11170 1828,11181 1808,11269 1759,11263 1709,11256 1731,11158 1780,11170"/>
    <polygon points="1759,11263 1808,11269 1802,11318 1703,11305 1709,11256 1759,11263"/>
  </g>
  <g style="stroke:none;fill:rgb(0,102,204)">
    <polygon points="2607,11332 2606,11283 2603,11233 2598,11184 2591,11135 2581,11087 2570,11040 2557,10993 2542,10947 2525,10902 2506,10858 2485,10815 2463,10774 2439,10734 2413,10696 2386,10659 2357,10624 2327,10591 2296,10559 2263,10530 2229,10503 2194,10478 2158,10455 2121,10434 2083,10416 2044,10400 2005,10386 1966,10375 1926,10366 1885,10360 1845,10356 1804,10355 1804,10355 1763,10356 1723,10360 1682,10366 1642,10375 1603,10386 1564,10400 1525,10416 1487,10434 1450,10455 1414,10478 1379,10503 1345,10530 1312,10559 1281,10591 1251,10624 1222,10659 1195,10696 1169,10734 1145,10774 1123,10815 1102,10858 1083,10902 1066,10947 1051,10993 1038,11040 1027,11087 1017,11135 1010,11184 1005,11233 1002,11283 1001,11332 1001,11332 1002,11381 1005,11431 1010,11480 1017,11529 1027,11577 1038,11624 1051,11671 1066,11717 1083,11762 1102,11806 1123,11849 1145,11890 1169,11930 1195,11968 1222,12005 1251,12040 1281,12073 1312,12105 1345,12134 1379,12161 1414,12186 1450,12209 1487,12230 1525,12248 1564,12264 1603,12278 1642,12289 1682,12298 1723,12304 1763,12308 1804,12309 1804,12309 1845,12308 1885,12304 1926,12298 1966,12289 2005,12278 2044,12264 2083,12248 2121,12230 2158,12209 2194,12186 2229,12161 2263,12134 2296,12105 2327,12073 2357,12040 2386,12005 2413,11968 2439,11930 2463,11890 2485,11849 2506,11806 2525,11762 2542,11717 2557,11671 2570,11624 2581,11577 2591,11529 2598,11480 2603,11431 2606,11381 2607,11332"/>
  </g>
  <g style="stroke:none;fill:rgb(0,0,128)">
    <polygon points="7348,16692 13457,20607 13404,20692 7295,16777 7348,16692"/>
  </g>
  <g style="stroke:none;fill:rgb(0,102,204)">
    <polygon points="13990,20740 13660,20930 13348,21061 13067,21131 12831,21138 12654,21079 12549,20953 12530,20770 12596,20550 12738,20308 12946,20056 13211,19808 13524,19576 13853,19385 14164,19254 14445,19184 14682,19177 14859,19235 14965,19362 14983,19545 14917,19764 14775,20007 14567,20259 14302,20507 13990,20740"/>
  </g>
  <g style="stroke:none;fill:rgb(0,0,128)">
    <polygon points="8107,16431 13941,19635 13892,19722 8058,16518 8107,16431"/>
  </g>
  <g style="stroke:none;fill:rgb(0,102,204)">
    <polygon points="14430,19700 14093,19956 13775,20126 13497,20204 13281,20183 13147,20059 13116,19841 13190,19565 13355,19252 13599,18928 13909,18616 14245,18359 14563,18188 14841,18111 15058,18131 15193,18257 15222,18474 15148,18750 14983,19063 14739,19387 14430,19700"/>
  </g>
  <g style="stroke:rgb(128,128,0);fill:none">
    <polyline points="16174,18030 17788,17377" style="fill:none"/>
    <polyline points="16346,18810 17965,18678" style="fill:none"/>
    <polyline points="18176,16416 18645,16382 18943,16432 19095,16546 19126,16702 19060,16881 18923,17061 18739,17222 18534,17343 18867,17391 19115,17517 19262,17694 19295,17896 19200,18095 18965,18265 18574,18378 18945,18524 19157,18700 19222,18880 19156,19036 18970,19142 18680,19170 18299,19095" style="fill:none"/>
  </g>
  <g style="stroke:none;fill:rgb(0,102,204)">
    <polygon points="15009,6177 15005,6044 14994,5912 14976,5780 14951,5650 14919,5520 14879,5393 14833,5267 14780,5144 14720,5023 14654,4906 14581,4791 14502,4680 14417,4573 14327,4470 14231,4372 14129,4278 14023,4189 13912,4105 13797,4027 13677,3954 13553,3886 13426,3825 13296,3769 13163,3720 13028,3677 12890,3641 12750,3611 12609,3587 12467,3570 12324,3560 12181,3557 12181,3557 12038,3560 11895,3570 11753,3587 11612,3611 11472,3641 11334,3677 11199,3720 11066,3769 10936,3825 10809,3886 10685,3954 10565,4027 10450,4105 10339,4189 10233,4278 10131,4372 10035,4470 9945,4573 9860,4680 9781,4791 9708,4906 9642,5023 9582,5144 9529,5267 9483,5393 9443,5520 9411,5650 9386,5780 9368,5912 9357,6044 9353,6177 9353,6177 9357,6310 9368,6442 9386,6574 9411,6704 9443,6834 9483,6961 9529,7087 9582,7210 9642,7331 9708,7448 9781,7563 9860,7674 9945,7781 10035,7884 10131,7982 10233,8076 10339,8165 10450,8249 10565,8327 10685,8400 10809,8468 10936,8529 11066,8585 11199,8634 11334,8677 11472,8713 11612,8743 11753,8767 11895,8784 12038,8794 12181,8797 12181,8797 12324,8794 12467,8784 12609,8767 12750,8743 12890,8713 13028,8677 13163,8634 13296,8585 13426,8529 13553,8468 13677,8400 13797,8327 13912,8249 14023,8165 14129,8076 14231,7982 14327,7884 14417,7781 14502,7674 14581,7563 14654,7448 14720,7331 14780,7210 14833,7087 14879,6961 14919,6834 14951,6704 14976,6574 14994,6442 15005,6310 15009,6177"/>
  </g>
</svg>
