<?xml version="1.0" encoding="UTF-8" standalone="no"?>
<!DOCTYPE svg PUBLIC "-//W3C//DTD SVG 20010904//EN"
"http://www.w3.org/TR/2001/REC-SVG-20010904/DTD/svg10.dtd">
<!-- Created with Inkscape (http://www.inkscape.org/) --><svg height="80.000000pt" id="svg1" inkscape:version="0.38.1" sodipodi:docbase="/home/nicu/Desktop/stick_man" sodipodi:docname="sm_013.svg" sodipodi:version="0.32" width="80.000000pt" xmlns="http://www.w3.org/2000/svg" xmlns:inkscape="http://www.inkscape.org/namespaces/inkscape" xmlns:sodipodi="http://sodipodi.sourceforge.net/DTD/sodipodi-0.dtd" xmlns:xlink="http://www.w3.org/1999/xlink">
  <metadata>
    <rdf:RDF xmlns:cc="http://web.resource.org/cc/" xmlns:dc="http://purl.org/dc/elements/1.1/" xmlns:rdf="http://www.w3.org/1999/02/22-rdf-syntax-ns#">
      <cc:Work rdf:about="">
        <dc:title>stick man</dc:title>
        <dc:description></dc:description>
        <dc:subject>
          <rdf:Bag>
            <rdf:li></rdf:li>
            <rdf:li>people</rdf:li>
            <rdf:li>stickmen</rdf:li>
          </rdf:Bag>
        </dc:subject>
        <dc:publisher>
          <cc:Agent rdf:about="http://www.openclipart.org">
            <dc:title>Nicu Buculei</dc:title>
          </cc:Agent>
        </dc:publisher>
        <dc:creator>
          <cc:Agent>
            <dc:title>Nicu Buculei</dc:title>
          </cc:Agent>
        </dc:creator>
        <dc:rights>
          <cc:Agent>
            <dc:title>Nicu Buculei</dc:title>
          </cc:Agent>
        </dc:rights>
        <dc:date></dc:date>
        <dc:format>image/svg+xml</dc:format>
        <dc:type rdf:resource="http://purl.org/dc/dcmitype/StillImage"/>
        <cc:license rdf:resource="http://web.resource.org/cc/PublicDomain"/>
        <dc:language>en</dc:language>
      </cc:Work>
      <cc:License rdf:about="http://web.resource.org/cc/PublicDomain">
        <cc:permits rdf:resource="http://web.resource.org/cc/Reproduction"/>
        <cc:permits rdf:resource="http://web.resource.org/cc/Distribution"/>
        <cc:permits rdf:resource="http://web.resource.org/cc/DerivativeWorks"/>
      </cc:License>
    </rdf:RDF>
  </metadata>
  <defs id="defs3">
    <linearGradient id="linearGradient827">
      <stop id="stop828" offset="0.0000000" style="stop-color:#02e2ff;stop-opacity:1.0000000;"/>
      <stop id="stop829" offset="1.0000000" style="stop-color:#0079a8;stop-opacity:1.0000000;"/>
    </linearGradient>
    <radialGradient cx="0.18840580" cy="0.27544910" fx="0.18840580" fy="0.27544910" id="radialGradient830" r="0.39135015" xlink:href="#linearGradient827"/>
    <linearGradient id="linearGradient833" x1="-0.11764706" x2="0.47058824" xlink:href="#linearGradient827" y1="0.041420117" y2="0.76923078"/>
    <radialGradient cx="0.30000001" cy="0.20710059" fx="0.30000001" fy="0.20710059" id="radialGradient844" r="0.50003499" xlink:href="#linearGradient827"/>
    <radialGradient cx="0.20588236" cy="0.19526628" fx="0.20588236" fy="0.19526628" id="radialGradient845" r="0.53611112" xlink:href="#linearGradient827"/>
    <radialGradient cx="0.17647059" cy="0.10650887" fx="0.17647059" fy="0.10650887" id="radialGradient846" r="0.62578475" xlink:href="#linearGradient827"/>
    <radialGradient cx="0.21014492" cy="0.11377245" fx="0.21014492" fy="0.11377245" id="radialGradient847" r="0.58443874" xlink:href="#linearGradient827"/>
  </defs>
  <sodipodi:namedview bordercolor="#666666" borderopacity="1.0" id="base" inkscape:cx="43.526925" inkscape:cy="42.216995" inkscape:pageopacity="0.0" inkscape:pageshadow="2" inkscape:window-height="684" inkscape:window-width="713" inkscape:window-x="495" inkscape:window-y="37" inkscape:zoom="6.0628663" pagecolor="#ffffff"/>
  <path d="M 64.710462,16.750172 C 64.710462,23.358922 59.348352,28.722544 52.741467,28.722544 C 46.134582,28.722544 40.772472,23.358922 40.772472,16.750172 C 40.772472,10.141423 46.134582,4.7777999 52.741467,4.7777999 C 59.348352,4.7777999 64.710462,10.141423 64.710462,16.750172 z " id="path826" style="fill:url(#radialGradient844);fill-opacity:1;fill-rule:evenodd;stroke:none;stroke-width:1.2500000;stroke-dasharray:none;"/>
  <path d="M 20.607794,23.992293 C 23.336203,31.574551 28.047588,39.124704 32.117128,43.375709 C 37.629879,44.740291 43.531652,31.466204 51.527261,31.212375 C 66.249336,30.958546 76.387947,40.032174 76.895605,52.469789" id="path837" sodipodi:nodetypes="cccc" style="fill:none;fill-rule:evenodd;stroke:#00007f;stroke-opacity:1.0000000;stroke-width:2.5000000;stroke-linejoin:miter;stroke-linecap:butt;fill-opacity:1.0000000;stroke-dasharray:none;"/>
  <path d="M 39.991084,94.780455 C 44.209858,87.927075 46.400011,73.696103 52.590233,68.795604 C 57.226381,73.728209 63.541002,87.623580 64.350145,93.716478" id="path842" sodipodi:nodetypes="ccc" style="fill:none;fill-rule:evenodd;stroke:#00007f;stroke-opacity:1.0000000;stroke-width:2.5000000;stroke-linejoin:miter;stroke-linecap:butt;fill-opacity:0.75;stroke-dasharray:none;"/>
  <path d="M 64.472533,51.137615 C 64.472533,62.328676 62.484545,71.411277 52.669491,71.411277 C 43.869752,71.195599 40.866449,62.328676 40.866449,51.137615 C 40.866449,39.946554 42.600608,31.079630 52.669491,30.863953 C 62.484545,30.648276 64.472533,39.946554 64.472533,51.137615 z " id="path832" sodipodi:nodetypes="ccccc" style="fill:url(#linearGradient833);fill-opacity:1;fill-rule:evenodd;stroke:none;stroke-width:1.2500000;stroke-dasharray:none;"/>
  <path d="M 41.998564,95.034283 C 41.998564,97.104285 39.198564,98.784284 35.748564,98.784284 C 32.298564,98.784284 29.498564,97.104285 29.498564,95.034283 C 29.498564,92.964284 32.298564,91.284284 35.748564,91.284284 C 39.198564,91.284284 41.998564,92.964284 41.998564,95.034283 z " id="path836" style="fill:url(#radialGradient847);fill-opacity:1;fill-rule:evenodd;stroke:none;stroke-width:1.2500000;stroke-dasharray:none;"/>
  <path d="M 74.080954,94.020979 C 74.080954,96.090981 71.280954,97.770980 67.830954,97.770980 C 64.380954,97.770980 61.580954,96.090981 61.580954,94.020979 C 61.580954,91.950980 64.380954,90.270980 67.830954,90.270980 C 71.280954,90.270980 74.080954,91.950980 74.080954,94.020979 z " id="path848" style="fill:url(#radialGradient847);fill-opacity:1;fill-rule:evenodd;stroke:none;stroke-width:1.2500000;stroke-dasharray:none;"/>
  <path d="M 81.271092,54.229566 C 81.271092,56.299568 79.591092,57.979567 77.521092,57.979567 C 75.451092,57.979567 73.771092,56.299568 73.771092,54.229566 C 73.771092,52.159567 75.451092,50.479567 77.521092,50.479567 C 79.591092,50.479567 81.271092,52.159567 81.271092,54.229566 z " id="path849" style="fill:url(#radialGradient845);fill-opacity:1;fill-rule:evenodd;stroke:none;stroke-width:1.2500000;stroke-dasharray:none;"/>
  <path d="M 23.336445,22.272739 C 23.336445,24.342741 21.656445,26.022740 19.586445,26.022740 C 17.516445,26.022740 15.836445,24.342741 15.836445,22.272739 C 15.836445,20.202740 17.516445,18.522740 19.586445,18.522740 C 21.656445,18.522740 23.336445,20.202740 23.336445,22.272739 z " id="path845" style="fill:url(#radialGradient845);fill-opacity:1;fill-rule:evenodd;stroke:none;stroke-width:1.2500000;stroke-dasharray:none;"/>
</svg>
