<?xml version="1.0" encoding="UTF-8" standalone="no"?>
<!-- Created with Inkscape (http://www.inkscape.org/) --><svg height="297.63780pt" id="svg2" inkscape:version="0.42.2" sodipodi:docbase="/home/peppe/Desktop" sodipodi:docname="stickyman001.svg" sodipodi:version="0.32" width="209.76378pt" xmlns="http://www.w3.org/2000/svg" xmlns:cc="http://web.resource.org/cc/" xmlns:dc="http://purl.org/dc/elements/1.1/" xmlns:inkscape="http://www.inkscape.org/namespaces/inkscape" xmlns:rdf="http://www.w3.org/1999/02/22-rdf-syntax-ns#" xmlns:sodipodi="http://inkscape.sourceforge.net/DTD/sodipodi-0.dtd" xmlns:svg="http://www.w3.org/2000/svg">
  <metadata>
    <rdf:RDF xmlns:cc="http://web.resource.org/cc/" xmlns:dc="http://purl.org/dc/elements/1.1/" xmlns:rdf="http://www.w3.org/1999/02/22-rdf-syntax-ns#">
      <cc:Work rdf:about="">
        <dc:title>Stickyman 001</dc:title>
        <dc:description>Made with inkscape</dc:description>
        <dc:subject>
          <rdf:Bag>
            <rdf:li>stickmen</rdf:li>
          </rdf:Bag>
        </dc:subject>
        <dc:publisher>
          <cc:Agent rdf:about="http://www.openclipart.org/">
            <dc:title>Open Clip Art Library</dc:title>
          </cc:Agent>
        </dc:publisher>
        <dc:creator>
          <cc:Agent>
            <dc:title>Giuseppe Mascolo</dc:title>
          </cc:Agent>
        </dc:creator>
        <dc:rights>
          <cc:Agent>
            <dc:title>Giuseppe Mascolo</dc:title>
          </cc:Agent>
        </dc:rights>
        <dc:date></dc:date>
        <dc:format>image/svg+xml</dc:format>
        <dc:type rdf:resource="http://purl.org/dc/dcmitype/StillImage"/>
        <cc:license rdf:resource="http://web.resource.org/cc/PublicDomain"/>
        <dc:language>en</dc:language>
      </cc:Work>
      <cc:License rdf:about="http://web.resource.org/cc/PublicDomain">
        <cc:permits rdf:resource="http://web.resource.org/cc/Reproduction"/>
        <cc:permits rdf:resource="http://web.resource.org/cc/Distribution"/>
        <cc:permits rdf:resource="http://web.resource.org/cc/DerivativeWorks"/>
      </cc:License>
    </rdf:RDF>
  </metadata>
  <defs id="defs4"/>
  <sodipodi:namedview bordercolor="#666666" borderopacity="1.0" id="base" inkscape:current-layer="layer1" inkscape:cx="273.89311" inkscape:cy="240.17257" inkscape:document-units="px" inkscape:pageopacity="0.0" inkscape:pageshadow="2" inkscape:window-height="508" inkscape:window-width="755" inkscape:window-x="139" inkscape:window-y="151" inkscape:zoom="0.70000000" pagecolor="#ffffff"/>
  <g id="layer1" inkscape:groupmode="layer" inkscape:label="Livello 1">
    <path d="M 140.17664,165.36878 C 136.31630,180.47714 135.06820,196.04513 134.64849,211.62143 C 133.56904,231.31404 133.34630,251.04402 127.42677,269.93577 C 126.92451,271.66508 126.17981,273.30409 125.55633,274.98825 L 116.08171,276.11482 C 116.72656,274.44153 117.60686,272.86008 118.01626,271.09496 C 124.00276,252.32073 124.50445,232.69752 125.39038,213.07613 C 125.70898,197.35257 127.15992,181.79118 130.56840,166.43693 L 140.17664,165.36878 z " id="path1308" style="fill:#000000;fill-opacity:1.0000000;fill-rule:nonzero;stroke:none;stroke-width:1.0000000px;stroke-linecap:butt;stroke-linejoin:miter;stroke-opacity:1.0000000"/>
    <path d="M 137.93293,184.92623 C 145.01216,212.13261 152.93001,238.78392 168.30139,262.51224 C 174.16510,272.04937 181.92430,280.08126 189.85812,287.85857 L 180.72872,290.09156 C 172.89115,282.16783 165.18630,274.04182 159.30937,264.48579 C 144.06395,240.63352 136.36093,213.88053 128.46488,186.87948 L 137.93293,184.92623 z " id="path1310" style="fill:#000000;fill-opacity:1.0000000;fill-rule:nonzero;stroke:none;stroke-width:1.0000000px;stroke-linecap:butt;stroke-linejoin:miter;stroke-opacity:1.0000000"/>
    <path d="M 120.50518,124.80229 C 121.43907,139.26668 128.27229,152.55026 132.65613,166.24500 C 133.59512,171.24704 135.65678,175.89577 137.23393,180.66882 L 127.91043,182.53855 C 126.38919,177.70983 124.48146,172.98245 123.44359,167.98866 C 118.91429,154.22636 112.24490,140.85687 110.92339,126.31990 L 120.50518,124.80229 z " id="path1312" style="fill:#000000;fill-opacity:1.0000000;fill-rule:nonzero;stroke:none;stroke-width:1.0000000px;stroke-linecap:butt;stroke-linejoin:miter;stroke-opacity:1.0000000"/>
    <path d="M 126.38354,126.57755 C 141.01595,125.97546 155.45969,128.21699 170.02072,129.18108 C 179.66517,139.54246 162.04621,147.43927 151.38622,156.81899 C 148.13607,159.76250 145.34982,163.16260 142.43159,166.42098 L 132.97661,167.24543 C 135.90444,163.95067 138.72332,160.53872 141.95703,157.53033 C 151.50363,148.98196 169.55301,140.66988 161.06582,132.04326 C 146.42336,131.01498 131.87879,128.81258 117.15712,129.57539 L 126.38354,126.57755 z " id="path1314" style="fill:#000000;fill-opacity:1.0000000;fill-rule:nonzero;stroke:none;stroke-width:1.0000000px;stroke-linecap:butt;stroke-linejoin:miter;stroke-opacity:1.0000000"/>
    <path d="M 163.85516,135.15320 C 182.33018,137.72346 197.71203,149.06857 212.61696,159.51356 C 211.40814,177.34127 181.77051,181.90588 165.33663,188.22467 C 163.01992,189.32800 160.74493,190.51495 158.44907,191.66009 L 149.02816,192.09943 C 151.33764,190.93049 153.66468,189.79627 155.95659,188.59261 C 172.45948,182.21994 199.42142,177.62552 203.44059,161.78431 C 188.56978,151.39458 173.20774,140.01863 154.65475,138.14260 L 163.85516,135.15320 z " id="path1316" style="fill:#000000;fill-opacity:1.0000000;fill-rule:nonzero;stroke:none;stroke-width:1.0000000px;stroke-linecap:butt;stroke-linejoin:miter;stroke-opacity:1.0000000"/>
    <path d="M 139.33074,89.575390 C 145.03849,80.167278 135.63492,99.372578 134.68010,109.58821 C 142.15015,127.55409 152.25499,120.96767 153.19896,120.95512 C 161.96480,111.95518 159.77193,99.122038 158.82892,87.425576 C 155.75628,84.683398 153.03327,81.487296 149.60372,79.207198 L 140.04823,79.825415 C 153.74351,75.895952 160.31006,73.487590 168.21272,85.746098 C 169.16894,97.805005 171.25972,110.83739 162.72204,120.44189 C 146.66122,125.38132 131.51234,130.53632 125.29057,111.04287 C 126.75262,94.247276 129.39136,87.237290 148.55716,86.577545 L 139.33074,89.575390 z " id="path1320" style="fill:#000000;fill-opacity:1.0000000;fill-rule:nonzero;stroke:none;stroke-width:1.0000000px;stroke-linecap:butt;stroke-linejoin:miter;stroke-opacity:1.0000000"/>
    <path d="M 115.10127,130.91443 C 109.55041,134.04907 103.75350,136.68088 98.226261,139.84872 C 90.464831,144.82350 80.803821,146.91313 88.701211,155.87293 C 95.333361,162.47024 103.03707,167.77158 110.27648,173.65804 C 112.22368,175.66356 114.27943,177.55089 116.29095,179.48720 L 111.67021,180.62587 C 109.67299,178.68808 107.64827,176.77954 105.67660,174.81493 C 98.472531,168.87238 90.739261,163.59641 84.122951,156.97017 C 76.041391,147.64438 85.298431,145.20216 93.497721,140.09859 C 98.951991,136.92149 104.71332,134.21587 110.27125,131.29456 L 115.10127,130.91443 z " id="path1332" style="fill:#000000;fill-opacity:1.0000000;fill-rule:nonzero;stroke:none;stroke-width:1.0000000px;stroke-linecap:butt;stroke-linejoin:miter;stroke-opacity:1.0000000"/>
    <path d="M 149.62034,190.18415 C 154.01894,190.91936 157.17757,193.45100 160.52819,196.22184 L 155.90790,197.35450 C 152.55875,194.67118 149.43953,192.16856 145.00713,191.68307 L 149.62034,190.18415 z " id="path1334" style="fill:#000000;fill-opacity:1.0000000;fill-rule:nonzero;stroke:none;stroke-width:1.0000000px;stroke-linecap:butt;stroke-linejoin:miter;stroke-opacity:1.0000000"/>
    <path d="M 116.68116,180.72509 C 115.87312,184.72008 114.49692,188.61727 113.32420,192.52981 L 108.59842,193.13466 C 109.76563,189.28038 111.12621,185.42360 111.89026,181.48390 L 116.68116,180.72509 z " id="path1336" style="fill:#000000;fill-opacity:1.0000000;fill-rule:nonzero;stroke:none;stroke-width:1.0000000px;stroke-linecap:butt;stroke-linejoin:miter;stroke-opacity:1.0000000"/>
  </g>
</svg>
