<?xml version="1.0" encoding="UTF-8" standalone="no"?>
<!-- Created with Inkscape (http://www.inkscape.org/) --><svg height="768px" id="svg8806" inkscape:version="0.42" sodipodi:docbase="/mnt/linux/amrum2004/entwuerfe" sodipodi:docname="amrum-outline.svg" sodipodi:version="0.32" width="1024px" xmlns="http://www.w3.org/2000/svg" xmlns:cc="http://web.resource.org/cc/" xmlns:dc="http://purl.org/dc/elements/1.1/" xmlns:inkscape="http://www.inkscape.org/namespaces/inkscape" xmlns:rdf="http://www.w3.org/1999/02/22-rdf-syntax-ns#" xmlns:sodipodi="http://inkscape.sourceforge.net/DTD/sodipodi-0.dtd" xmlns:svg="http://www.w3.org/2000/svg">
  <metadata>
    <rdf:RDF xmlns:cc="http://web.resource.org/cc/" xmlns:dc="http://purl.org/dc/elements/1.1/" xmlns:rdf="http://www.w3.org/1999/02/22-rdf-syntax-ns#">
      <cc:Work rdf:about="">
        <dc:title>Amrum Outline</dc:title>
        <dc:description></dc:description>
        <dc:subject>
          <rdf:Bag>
            <rdf:li>geography</rdf:li>
            <rdf:li>europe</rdf:li>
          </rdf:Bag>
        </dc:subject>
        <dc:publisher>
          <cc:Agent rdf:about="http://www.openclipart.org/">
            <dc:title>Open Clip Art Library</dc:title>
          </cc:Agent>
        </dc:publisher>
        <dc:creator>
          <cc:Agent>
            <dc:title>T. Eitel</dc:title>
          </cc:Agent>
        </dc:creator>
        <dc:rights>
          <cc:Agent>
            <dc:title>T. Eitel</dc:title>
          </cc:Agent>
        </dc:rights>
        <dc:date></dc:date>
        <dc:format>image/svg+xml</dc:format>
        <dc:type rdf:resource="http://purl.org/dc/dcmitype/StillImage"/>
        <cc:license rdf:resource="http://web.resource.org/cc/PublicDomain"/>
        <dc:language>en</dc:language>
      </cc:Work>
      <cc:License rdf:about="http://web.resource.org/cc/PublicDomain">
        <cc:permits rdf:resource="http://web.resource.org/cc/Reproduction"/>
        <cc:permits rdf:resource="http://web.resource.org/cc/Distribution"/>
        <cc:permits rdf:resource="http://web.resource.org/cc/DerivativeWorks"/>
      </cc:License>
    </rdf:RDF>
  </metadata>
  <defs id="defs8808"/>
  <sodipodi:namedview bordercolor="#666666" borderopacity="1.0" id="base" inkscape:current-layer="layer1" inkscape:cx="372.00000" inkscape:cy="412.00000" inkscape:document-units="px" inkscape:pageopacity="0.0" inkscape:pageshadow="2" inkscape:window-height="511" inkscape:window-width="753" inkscape:window-x="345" inkscape:window-y="232" inkscape:zoom="0.50000000" pagecolor="#ffffff"/>
  <g id="layer1" inkscape:groupmode="layer" inkscape:label="Layer 1">
    <path d="M 231.21735,19.619314 L 209.66619,38.122828 L 191.38036,54.884839 L 170.48227,71.211469 L 154.37333,87.973480 L 127.37996,120.62674 L 111.48872,142.83096 L 97.774330,161.76985 L 85.366100,177.87880 L 80.141580,188.11015 L 74.917060,197.68844 L 70.127910,202.25990 L 58.155040,209.87900 L 52.495140,213.36201 L 45.529120,218.80422 L 42.481480,222.28724 L 37.039260,231.43015 L 34.862390,236.87236 L 34.862390,243.83839 L 34.862390,246.66835 L 36.603890,253.85205 L 40.086910,262.34190 L 42.046100,265.17185 L 44.440670,268.00181 L 47.270620,274.53245 L 53.583580,286.28763 L 55.542790,290.42371 L 62.073430,303.70270 L 68.386400,311.97486 L 76.440880,321.98853 L 82.971530,332.21989 L 89.284490,340.70973 L 94.509010,347.89345 L 98.427400,352.68260 L 101.47504,357.25406 L 114.10097,375.32220 L 124.55002,389.68963 L 130.86298,397.09103 L 134.56368,402.09787 L 136.08750,404.05707 L 138.91745,407.54008 L 140.22358,411.45848 L 141.31203,413.85304 L 146.97192,421.90752 L 150.45494,427.56742 L 156.33252,437.58109 L 163.08087,447.59475 L 166.56388,451.51314 L 169.17615,455.43153 L 171.35302,459.13223 L 174.61836,462.17988 L 180.49593,468.92822 L 183.97896,472.41123 L 187.24428,476.11193 L 190.94498,480.03032 L 194.86338,484.60178 L 201.17633,489.17324 L 206.18318,495.05083 L 209.66619,500.05766 L 211.84307,501.36379 L 215.54378,505.93525 L 221.63905,513.98973 L 224.90438,518.34350 L 228.60508,520.30269 L 232.74116,520.73806 L 237.96568,520.30269 L 242.10176,520.73806 L 256.90458,524.00339 L 269.53051,525.96258 L 281.72106,526.61565 L 291.51704,525.74489 L 302.83684,524.43877 L 311.10899,523.35033 L 317.85734,520.08500 L 326.78256,513.98973 L 333.74859,507.24138 L 337.66698,500.05766 L 338.10237,493.30932 L 338.53774,482.64259 L 338.32005,470.45204 L 336.57854,469.58128 L 334.40166,470.23435 L 332.22477,477.85345 L 330.48326,483.07797 L 327.21794,489.39094 L 325.25874,492.22088 L 322.86417,494.61546 L 319.81653,496.57465 L 318.07503,498.09847 L 315.89814,498.53385 L 312.41512,497.88078 L 309.36749,496.13927 L 306.10216,492.00319 L 304.57834,485.90792 L 304.36065,481.98953 L 299.78919,481.33646 L 298.04769,480.46570 L 298.91844,478.28883 L 301.53071,477.41807 L 303.27221,475.45887 L 303.70758,471.97585 L 301.31302,468.92822 L 296.52377,465.90430 L 293.91913,463.03919 L 293.91913,460.69501 L 295.48191,458.87175 L 299.64935,458.87175 L 301.47260,459.39268 L 306.42143,459.91361 L 310.06793,459.91361 L 313.19350,458.87175 L 316.57954,455.74618 L 319.96558,453.66246 L 321.52837,452.09968 L 326.99812,451.31829 L 333.24927,450.79735 L 338.71903,449.49504 L 345.23064,447.15085 L 348.87714,445.58806 L 348.87714,442.46249 L 349.13761,439.07645 L 344.97017,436.73226 L 341.32368,436.21134 L 338.45857,435.42995 L 338.19810,428.91833 L 337.93763,425.27183 L 334.55160,424.75091 L 332.20742,425.01136 L 331.42603,428.91833 L 331.16555,432.04391 L 330.38417,434.38809 L 325.43533,434.64855 L 318.66326,435.16948 L 312.15164,435.42995 L 306.94235,434.64855 L 304.07724,434.12762 L 301.47260,432.82530 L 299.38888,429.43927 L 294.17959,423.18812 L 290.53309,420.32300 L 289.49123,420.06254 L 289.23076,415.63464 L 290.27262,413.03000 L 287.92844,411.98814 L 286.88658,410.16488 L 286.36565,406.77885 L 286.10519,394.53702 L 286.88658,389.84866 L 288.44936,386.72308 L 290.01215,383.33703 L 294.96099,384.63937 L 297.04470,380.47193 L 293.91913,378.64867 L 288.44936,372.13706 L 281.41683,364.58359 L 279.85404,360.93709 L 276.72846,359.63476 L 273.60289,354.68594 L 271.51917,350.77898 L 267.61221,346.87200 L 259.01688,343.74643 L 252.50526,342.18364 L 247.29597,340.62085 L 240.78436,334.89064 L 237.13785,331.50459 L 233.49135,322.90926 L 233.23088,316.91859 L 233.49135,313.27208 L 232.97042,308.84418 L 230.88670,304.67674 L 229.32392,303.37442 L 231.14717,302.33256 L 231.40763,295.56049 L 231.66810,289.30934 L 230.88670,284.10004 L 229.58438,280.71401 L 224.89602,277.32797 L 221.50998,273.16053 L 220.98906,268.99311 L 220.46813,257.53266 L 220.46813,252.84430 L 218.64487,249.19780 L 217.86348,242.94665 L 216.56116,238.51875 L 211.87279,224.71413 L 209.52862,219.76530 L 207.70537,210.64904 L 205.88211,201.79325 L 200.93329,193.71884 L 194.16120,187.20724 L 188.95192,180.17470 L 183.74262,171.31890 L 180.09612,162.98404 L 175.14729,150.74220 L 173.58450,142.40733 L 171.76125,135.37480 L 172.54265,131.46782 L 174.10544,129.64457 L 174.36589,124.17482 L 174.62637,111.41205 L 177.75194,107.24462 L 181.13798,99.951620 L 182.70077,95.263250 L 185.82634,90.574890 L 191.29609,82.240020 L 198.06817,75.988870 L 202.49608,72.863290 L 206.66351,70.519119 L 210.04954,68.174939 L 212.13326,66.612149 L 214.47743,60.621469 L 221.50998,49.942419 L 229.06346,41.607551 L 234.79367,39.263374 L 237.13785,35.877327 L 237.91925,31.188973 L 238.17971,24.416898 L 237.91925,20.509925 L 236.35646,17.905276 L 233.49135,17.384349 L 231.21735,19.619314 z " id="path2322" style="fill:none;fill-opacity:0.75000000;fill-rule:evenodd;stroke:#000000;stroke-width:1.7607403;stroke-linecap:butt;stroke-linejoin:miter;stroke-miterlimit:4.0000000;stroke-opacity:1.0000000"/>
  </g>
</svg>
