<?xml version="1.0" encoding="UTF-8" standalone="no"?>
<!DOCTYPE svg PUBLIC "-//W3C//DTD SVG 1.0//EN"
"http://www.w3.org/TR/2001/REC-SVG-20010904/DTD/svg10.dtd">
<!-- Created with Sodipodi ("http://www.sodipodi.com/") --><svg height="297mm" id="svg602" sodipodi:docbase="/home/pfaes" sodipodi:docname="/home/pfaes/shiken.svg" sodipodi:version="0.34" space="preserve" width="210mm" xmlns="http://www.w3.org/2000/svg" xmlns:sodipodi="http://sodipodi.sourceforge.net/DTD/sodipodi-0.dtd" xmlns:xlink="http://www.w3.org/1999/xlink">
  <metadata>
    <rdf:RDF xmlns:cc="http://web.resource.org/cc/" xmlns:dc="http://purl.org/dc/elements/1.1/" xmlns:rdf="http://www.w3.org/1999/02/22-rdf-syntax-ns#">
      <cc:Work rdf:about="">
        <dc:title>shi ken</dc:title>
        <dc:description>japanese sword</dc:description>
        <dc:subject>
          <rdf:Bag>
            <rdf:li>hash</rdf:li>
            <rdf:li></rdf:li>
            <rdf:li>sports</rdf:li>
            <rdf:li>geography</rdf:li>
            <rdf:li>asia</rdf:li>
          </rdf:Bag>
        </dc:subject>
        <dc:publisher>
          <cc:Agent rdf:about="http://www.openclipart.org">
            <dc:title>Philippe Faes</dc:title>
          </cc:Agent>
        </dc:publisher>
        <dc:creator>
          <cc:Agent>
            <dc:title>Philippe Faes</dc:title>
          </cc:Agent>
        </dc:creator>
        <dc:rights>
          <cc:Agent>
            <dc:title>Philippe Faes</dc:title>
          </cc:Agent>
        </dc:rights>
        <dc:date></dc:date>
        <dc:format>image/svg+xml</dc:format>
        <dc:type rdf:resource="http://purl.org/dc/dcmitype/StillImage"/>
        <cc:license rdf:resource="http://web.resource.org/cc/PublicDomain"/>
        <dc:language>en</dc:language>
      </cc:Work>
      <cc:License rdf:about="http://web.resource.org/cc/PublicDomain">
        <cc:permits rdf:resource="http://web.resource.org/cc/Reproduction"/>
        <cc:permits rdf:resource="http://web.resource.org/cc/Distribution"/>
        <cc:permits rdf:resource="http://web.resource.org/cc/DerivativeWorks"/>
      </cc:License>
    </rdf:RDF>
  </metadata>
  <defs id="defs604">
    <linearGradient id="linearGradient610">
      <stop id="stop611" offset="0" style="stop-color:#000;stop-opacity:1;"/>
      <stop id="stop612" offset="1" style="stop-color:#fff;stop-opacity:1;"/>
    </linearGradient>
    <radialGradient id="radialGradient613" xlink:href="#linearGradient610"/>
    <linearGradient id="linearGradient614" spreadMethod="reflect" x1="0.21140943" x2="0.28187925" xlink:href="#linearGradient610" y1="0.48000807" y2="0.48000076"/>
  </defs>
  <sodipodi:namedview id="base"/>
  <path d="M 200.1296 333.1872 C 150.3606 334.0874 106.8004 332.9855 69.02468 333.7015 C 58.88081 333.8938 54.27492 333.8578 54.69021 345.8716 C 55.14777 358.2084 63.65462 355.2383 73.1315 356.4491 C 109.5414 357.6428 158.3941 355.7561 198.1122 356.2178 L 200.1296 333.1872 z " id="path609" sodipodi:nodetypes="csssc" style="font-size:12;fill:#000000;fill-rule:evenodd;stroke:#000000;stroke-width:1.120987;fill-opacity:1;"/>
  <g id="g722" transform="matrix(0.639999,0,0,1,149.5454,-122.0298)">
    <path d="M 351.7777 413.3064 A 31.82547 31.8255 0 1 0 288.1268 413.3064 A 31.82547 31.8255 0 1 0  351.7777 413.3064 z" id="path723" sodipodi:cx="319.95224" sodipodi:cy="413.306396" sodipodi:rx="31.82547" sodipodi:ry="31.8255005" sodipodi:type="arc" style="font-size:12;fill:#808080;fill-rule:evenodd;stroke-width:1;" transform="matrix(0.42,0,0,0.7,-59.4839,177.4588)"/>
    <path d="M 106.7214 466.7732 C 106.7214 484.3499 92.4727 498.5987 74.8959 498.5987 C 57.3192 498.5987 43.0705 484.3499 43.0705 466.7732 C 43.0705 449.1965 57.3192 434.9477 74.8959 434.9477 C 92.4727 434.9477 106.7214 449.1965 106.7214 466.7732 z M 69.1673 452.77 C 69.1673 457.3399 65.4626 461.0446 60.8927 461.0446 C 56.3227 461.0446 52.6181 457.3399 52.6181 452.77 C 52.6181 448.2 56.3227 444.4954 60.8927 444.4954 C 65.3417 444.4954 68.9754 447.981 69.1602 452.4262 M 69.1673 480.3525 C 69.1673 484.9224 65.4626 488.6271 60.8927 488.6271 C 56.3227 488.6271 52.6181 484.9224 52.6181 480.3525 C 52.6181 475.7825 56.3227 472.0779 60.8927 472.0779 C 65.3417 472.0779 68.9754 475.5635 69.1602 480.0087 M 96.74941 452.7699 C 96.74941 457.3398 93.04471 461.0445 88.47481 461.0445 C 83.90481 461.0445 80.20021 457.3398 80.20021 452.7699 C 80.20021 448.1999 83.90481 444.4953 88.47481 444.4953 C 92.92381 444.4953 96.55751 447.9809 96.74231 452.4261 M 96.74941 480.3525 C 96.74941 484.9224 93.04471 488.6271 88.47481 488.6271 C 83.90481 488.6271 80.20021 484.9224 80.20021 480.3525 C 80.20021 475.7825 83.90481 472.0779 88.47481 472.0779 C 92.92381 472.0779 96.55751 475.5635 96.74231 480.0087 " id="path724" style="font-size:12;fill:#808080;fill-rule:evenodd;"/>
  </g>
  <path d="M 205.3432 355.2935 C 424.4513 352.6426 475.7712 353.4546 611.3164 351.6654 C 651.6425 351.1376 638.6468 349.4338 660.1287 333.9503 C 615.7926 331.7771 245.8558 334.0165 206.2863 334.0338 L 205.3432 355.2935 z " id="path605" sodipodi:nodetypes="csccc" style="font-size:12;fill:#cbcbdd;fill-rule:evenodd;stroke-width:1;fill-opacity:1;"/>
  <path d="M 205.3432 349.8924 C 421.8493 347.8838 468.3581 348.4991 602.2936 347.1434 C 642.1409 346.7434 633.501 345.4525 654.7277 333.7205 C 610.9182 332.0737 245.3746 333.7705 206.2751 333.7838 L 205.3432 349.8924 z " id="path608" sodipodi:nodetypes="csccc" style="font-size:12;fill:#c1c1d7;fill-rule:evenodd;stroke-width:1;"/>
  <path d="M 213.7173 340.3887 L 640.3933 338.5883 " id="path607" sodipodi:nodetypes="cc" style="font-size:12;fill:none;fill-rule:evenodd;stroke:#9696bc;stroke-width:3.125;stroke-linecap:round;"/>
  <rect height="22.9143543" id="rect621" ry="0.63653564" style="font-size:12;fill:#807a04;fill-rule:evenodd;" width="13.3667277" x="196.469287" y="333.106171"/>
</svg>
