<?xml version="1.0" encoding="UTF-8" standalone="no"?>
<!DOCTYPE svg PUBLIC "-//W3C//DTD SVG 20010904//EN"
"http://www.w3.org/TR/2001/REC-SVG-20010904/DTD/svg10.dtd">
<!-- Created with Inkscape (http://www.inkscape.org/) --><svg height="120.00000pt" id="svg1" inkscape:version="0.39" sodipodi:docbase="/home/nicu/Desktop/brochure" sodipodi:docname="wire_globe.svg" sodipodi:version="0.32" width="120.00000pt" xmlns="http://www.w3.org/2000/svg" xmlns:cc="http://web.resource.org/cc/" xmlns:dc="http://purl.org/dc/elements/1.1/" xmlns:inkscape="http://www.inkscape.org/namespaces/inkscape" xmlns:rdf="http://www.w3.org/1999/02/22-rdf-syntax-ns#" xmlns:sodipodi="http://sodipodi.sourceforge.net/DTD/sodipodi-0.dtd" xmlns:xlink="http://www.w3.org/1999/xlink">
  <metadata>
    <rdf:RDF xmlns:cc="http://web.resource.org/cc/" xmlns:dc="http://purl.org/dc/elements/1.1/" xmlns:rdf="http://www.w3.org/1999/02/22-rdf-syntax-ns#">
      <cc:Work rdf:about="">
        <dc:title>Wire Globe</dc:title>
        <dc:description></dc:description>
        <dc:subject>
          <rdf:Bag>
            <rdf:li>hash</rdf:li>
            <rdf:li></rdf:li>
            <rdf:li>geography</rdf:li>
          </rdf:Bag>
        </dc:subject>
        <dc:publisher>
          <cc:Agent rdf:about="http://www.openclipart.org">
            <dc:title>Nicu Buculei</dc:title>
          </cc:Agent>
        </dc:publisher>
        <dc:creator>
          <cc:Agent>
            <dc:title>Nicu Buculei</dc:title>
          </cc:Agent>
        </dc:creator>
        <dc:rights>
          <cc:Agent>
            <dc:title>Nicu Buculei</dc:title>
          </cc:Agent>
        </dc:rights>
        <dc:date></dc:date>
        <dc:format>image/svg+xml</dc:format>
        <dc:type rdf:resource="http://purl.org/dc/dcmitype/StillImage"/>
        <cc:license rdf:resource="http://web.resource.org/cc/PublicDomain"/>
        <dc:language>en</dc:language>
      </cc:Work>
      <cc:License rdf:about="http://web.resource.org/cc/PublicDomain">
        <cc:permits rdf:resource="http://web.resource.org/cc/Reproduction"/>
        <cc:permits rdf:resource="http://web.resource.org/cc/Distribution"/>
        <cc:permits rdf:resource="http://web.resource.org/cc/DerivativeWorks"/>
      </cc:License>
    </rdf:RDF>
  </metadata>
  <defs id="defs3"/>
  <sodipodi:namedview bordercolor="#666666" borderopacity="1.0" id="base" inkscape:cx="60.000000" inkscape:cy="60.000000" inkscape:pageopacity="0.0" inkscape:pageshadow="2" inkscape:window-height="727" inkscape:window-width="953" inkscape:window-x="96" inkscape:window-y="64" inkscape:zoom="1.0000000" pagecolor="#ffffff"/>
  <path d="M 77.282935,7.4252500 C 74.796784,7.4252500 72.341714,7.5654860 69.923740,7.8204810 C 63.581822,8.3330050 57.845575,9.5067600 53.972234,11.258984 L 53.956425,11.266891 L 53.948519,11.266891 C 53.778618,11.378204 53.663267,11.480414 53.497957,11.590981 C 51.389890,12.193152 49.448179,13.017608 47.672257,14.049314 C 24.811794,24.876100 8.9791140,47.846190 8.7736590,74.472170 C 8.7673930,74.496520 8.7561290,74.518920 8.7499470,74.543310 L 8.7499470,74.567020 L 8.7499470,74.582830 C 8.7493280,74.665940 8.7650170,74.745150 8.7657560,74.827880 C 8.7656190,74.883520 8.7578500,74.938200 8.7578500,74.993870 C 8.7578500,88.107350 12.566235,100.34266 19.128702,110.70691 C 19.719785,112.12828 20.666914,113.48989 21.926935,114.79360 C 31.031285,127.08140 44.238059,136.22185 59.552891,140.26226 C 65.210902,141.75497 71.150242,142.56250 77.282935,142.56250 C 79.367088,142.56250 81.427294,142.45788 83.464344,142.27793 C 83.532647,142.27133 83.602442,142.27439 83.669862,142.26213 C 85.939296,142.05490 88.172824,141.74187 90.372973,141.32148 C 95.353508,140.54386 99.939878,139.27180 103.50253,137.42450 C 111.93659,133.97394 119.52341,128.91404 125.86468,122.62707 C 125.88386,122.60929 125.90086,122.58955 125.92001,122.57173 C 129.29089,119.43662 132.19534,115.87508 134.60718,111.99536 C 141.68350,101.36390 145.80802,88.654320 145.80802,74.993870 C 145.80802,60.342643 141.06169,46.787708 133.01835,35.715855 C 132.92397,35.586296 132.82982,35.457332 132.73379,35.328530 C 125.23216,25.154646 114.93086,17.124794 102.94131,12.341917 C 102.93359,12.338840 102.92531,12.337091 102.91759,12.334014 C 98.394904,10.004155 92.240393,8.6017400 85.717155,7.9548580 C 82.950949,7.6192990 80.140445,7.4252500 77.282935,7.4252500 z M 75.899627,7.8441930 C 77.128858,7.8277530 78.369701,7.8337770 79.606890,7.8679090 C 81.405405,7.9175230 83.193110,8.0393440 84.966219,8.1999020 C 85.270720,8.2335980 85.571971,8.2808320 85.875249,8.3184700 C 83.655408,8.5589130 81.126779,9.8830270 78.310536,12.278679 C 78.292027,12.281929 78.273725,12.283323 78.255202,12.286586 C 78.014770,12.218536 77.785691,12.140243 77.543787,12.073161 L 77.504266,12.057352 L 77.464741,12.065255 C 77.233887,12.113662 77.014510,12.166106 76.784945,12.215442 C 75.803838,10.945441 74.861648,9.8874840 73.994618,9.2433090 C 73.085701,8.5680160 72.224684,8.2189220 71.425619,8.1919950 C 71.159261,8.1830220 70.895979,8.2096320 70.643061,8.2710420 C 69.631392,8.5166810 68.760891,9.3096620 68.010824,10.539667 C 67.961879,10.619932 67.924417,10.740183 67.876447,10.824232 C 65.886364,10.560436 63.962560,10.394679 62.153509,10.397383 C 60.241762,10.400237 58.461109,10.590337 56.746752,10.871660 C 61.079694,9.5239990 65.589679,8.5913060 70.247830,8.1208550 C 70.266487,8.1189720 70.284501,8.1148180 70.303161,8.1129490 C 72.134833,7.9720720 73.998642,7.8696200 75.899627,7.8441930 z M 71.417713,8.5081790 C 72.137910,8.5319090 72.930593,8.8466740 73.804906,9.4962560 C 74.613025,10.096663 75.515317,11.096374 76.452952,12.294489 C 76.207658,12.347842 75.969539,12.406073 75.725728,12.460485 C 73.089524,11.727358 70.583139,11.195194 68.208440,10.863754 C 68.234926,10.818631 68.252830,10.749533 68.279584,10.705663 C 69.004340,9.5171620 69.821833,8.7979120 70.722108,8.5793230 C 70.947174,8.5246750 71.177647,8.5002730 71.417713,8.5081790 z M 86.776376,8.5793230 C 87.154217,8.5853500 87.518230,8.6287540 87.875115,8.6978920 C 89.401945,8.9936760 90.754922,9.8716920 91.945993,11.235272 C 91.628249,11.223585 91.335637,11.185957 91.013247,11.179941 C 87.300475,11.110652 83.261254,11.448239 78.919192,12.175920 C 81.915973,9.7208710 84.543820,8.5437020 86.776376,8.5793230 z M 89.274231,8.8243670 C 93.991526,9.6500720 98.540804,10.944768 102.87017,12.673910 C 103.20113,12.846204 103.48295,13.045112 103.79501,13.227234 C 100.39623,12.107096 96.572188,11.456695 92.372839,11.266891 C 91.448070,10.149907 90.417613,9.3190860 89.274231,8.8243670 z M 58.809858,9.9310120 C 58.543912,10.004373 58.276120,10.075901 58.011490,10.152339 C 58.274138,10.076710 58.538501,10.003183 58.809858,9.9310120 z M 62.161412,10.705663 C 63.922870,10.704565 65.797390,10.870157 67.734162,11.124606 C 67.376239,11.795510 67.042141,12.569085 66.738183,13.448562 C 58.934091,14.405851 52.106163,16.057695 46.162478,18.278283 C 47.709519,16.345414 50.168243,14.227927 53.545385,11.954593 C 53.784518,11.867062 54.024320,11.778694 54.264706,11.693740 C 56.682620,11.070367 59.292500,10.707452 62.161412,10.705663 z M 68.058252,11.164132 C 70.273961,11.470536 72.610438,11.951650 75.061738,12.610673 C 74.840460,12.661216 74.617805,12.709447 74.397752,12.760863 C 71.879641,12.913515 69.429288,13.121022 67.085985,13.401134 C 67.386916,12.547812 67.709285,11.803019 68.058252,11.164132 z M 91.005341,11.488218 C 91.423787,11.495833 91.804272,11.550048 92.214748,11.567265 C 92.824752,12.320950 93.369050,13.264591 93.890527,14.278548 C 89.540783,13.519199 84.854456,13.001978 79.820315,12.745054 C 79.525555,12.657890 79.232024,12.569894 78.935001,12.484201 C 83.273114,11.754848 87.306449,11.420911 91.005341,11.488218 z M 92.641598,11.590981 C 97.355707,11.828913 101.54037,12.699164 105.22574,14.112552 C 107.06836,15.650485 108.43049,17.097892 109.39937,18.460089 C 104.89456,16.728345 99.862891,15.339283 94.277851,14.341786 C 93.770160,13.327075 93.239879,12.367044 92.641598,11.590981 z M 77.504266,12.389345 C 77.520543,12.393865 77.535423,12.400631 77.551694,12.405154 C 77.425779,12.428465 77.306622,12.444387 77.180175,12.468392 C 77.290380,12.444986 77.393766,12.412536 77.504266,12.389345 z M 52.335977,12.428867 C 49.279863,14.590480 47.015381,16.618271 45.617060,18.491707 C 43.887017,19.154430 42.214791,19.852545 40.637152,20.610141 C 42.546256,18.170518 44.814032,16.126871 47.443023,14.531495 C 49.037706,13.765404 50.674716,13.073105 52.335977,12.428867 z M 76.666376,12.579057 C 76.678817,12.595412 76.693436,12.610018 76.705898,12.626482 C 76.606279,12.630840 76.512785,12.645643 76.413427,12.650198 C 76.407777,12.648561 76.403271,12.643925 76.397617,12.642291 C 76.488239,12.622497 76.575551,12.598704 76.666376,12.579057 z M 78.365867,12.642291 C 78.408716,12.654489 78.449543,12.669591 78.492342,12.681817 C 78.436476,12.679511 78.382296,12.676152 78.326346,12.673910 C 78.339332,12.662688 78.352895,12.653465 78.365867,12.642291 z M 77.425219,12.950572 C 77.454803,12.951568 77.482606,12.957465 77.512169,12.958479 C 77.501893,12.967821 77.490833,12.972817 77.480550,12.982191 C 77.462410,12.970940 77.443369,12.961816 77.425219,12.950572 z M 77.970637,12.974288 C 78.576926,12.997060 79.168618,13.030999 79.764984,13.061238 C 85.533248,14.768699 90.868231,16.748442 95.779727,18.973888 C 95.975494,19.618488 96.141705,20.334898 96.317242,21.029088 C 93.480621,20.666975 90.594280,20.403021 87.677499,20.238626 C 84.582584,17.732787 81.277480,15.368124 77.749309,13.163997 C 77.825374,13.094997 77.895047,13.041609 77.970637,12.974288 z M 76.026102,12.982191 C 72.360097,14.782984 68.912046,16.770641 65.671059,18.918553 C 65.888040,17.717432 66.133519,16.599955 66.398283,15.582809 C 66.434753,15.442707 66.479484,15.339793 66.516855,15.203387 C 69.084365,14.426944 71.748168,13.720958 74.508417,13.077047 C 75.013888,13.046787 75.513433,13.007164 76.026102,12.982191 z M 76.618948,13.029619 C 76.785712,13.078698 76.941194,13.113281 77.109035,13.163997 C 77.128879,13.191571 77.144473,13.215206 77.164366,13.243044 C 77.117297,13.287015 77.077219,13.317025 77.029988,13.361612 L 77.022082,13.361612 L 77.014179,13.369519 C 75.238514,15.369138 73.587384,17.692836 72.034274,20.238626 C 69.804721,20.359103 67.592835,20.534931 65.402304,20.752426 C 65.473747,20.282161 65.530134,19.784872 65.607822,19.337500 C 69.040940,17.046821 72.703858,14.926532 76.618948,13.029619 z M 81.100863,13.124475 C 85.723337,13.404964 90.036830,13.913983 94.064427,14.626351 C 94.270195,15.045414 94.497162,15.408849 94.688891,15.867374 C 95.033902,16.692471 95.338455,17.618489 95.637446,18.562848 C 91.143165,16.540150 86.303288,14.717807 81.100863,13.124475 z M 72.571786,13.187713 C 70.534236,13.693774 68.565346,14.251654 66.635424,14.831869 C 66.746325,14.447058 66.864703,14.085703 66.983226,13.733131 C 68.796143,13.514299 70.653122,13.330458 72.571786,13.187713 z M 77.361981,13.495990 C 77.471200,13.652341 77.567457,13.750686 77.678165,13.914937 C 77.681823,13.920365 77.682411,13.925307 77.686072,13.930746 C 78.369423,15.889822 79.018332,17.938862 79.646415,20.025202 C 79.111034,20.026244 78.577057,20.018200 78.041777,20.025202 C 76.417482,20.046439 74.789719,20.092614 73.172538,20.167483 C 72.926351,20.178881 72.683303,20.202298 72.437408,20.214911 C 73.943631,17.767015 75.532872,15.518857 77.243413,13.590846 C 77.283586,13.552923 77.321939,13.533456 77.361981,13.495990 z M 77.804640,13.559228 C 81.108354,15.634866 84.211661,17.864032 87.132081,20.207008 C 84.755762,20.082941 82.364363,20.025959 79.970502,20.025202 C 79.331119,17.897306 78.675377,15.809079 77.978540,13.812174 L 77.970637,13.796365 L 77.962734,13.772652 C 77.906917,13.689592 77.860073,13.640306 77.804640,13.559228 z M 105.00441,13.575037 C 105.70761,13.883934 106.40871,14.192172 107.09913,14.523592 C 106.55352,14.278929 105.97650,14.071126 105.40755,13.851699 C 105.36263,13.814265 105.32651,13.778559 105.28107,13.741033 L 105.27317,13.733131 C 105.19074,13.676215 105.08850,13.631107 105.00441,13.575037 z M 66.627517,13.780559 C 66.502957,14.158547 66.379566,14.530389 66.263905,14.942535 C 57.832715,17.506739 50.425339,20.761666 43.996613,24.546638 C 43.838392,23.664785 43.884715,22.732750 44.202134,21.732596 C 44.500506,20.792454 45.053798,19.793211 45.830481,18.744654 C 51.811012,16.464919 58.713316,14.761236 66.627517,13.780559 z M 106.08734,14.452448 C 110.39630,16.241736 114.00654,18.781486 116.95618,21.930211 C 114.77520,20.741689 112.43340,19.643925 109.92898,18.657704 C 109.04509,17.327999 107.76779,15.927996 106.08734,14.452448 z M 94.451754,14.689588 C 100.10653,15.712667 105.18242,17.140793 109.71556,18.918553 C 110.82684,20.618041 111.31223,22.176543 111.24115,23.590180 C 111.23291,23.754121 111.19251,23.911771 111.17001,24.072361 C 111.02217,24.028562 110.88379,23.973122 110.73525,23.930080 C 108.13064,23.175331 105.41390,22.545322 102.62512,22.017164 C 100.52031,20.879098 98.325411,19.783872 96.040580,18.744654 C 95.713212,17.683409 95.365765,16.668111 94.981363,15.748805 C 94.818777,15.359978 94.624971,15.051792 94.451754,14.689588 z M 66.145337,15.321956 C 66.127729,15.387985 66.107403,15.436930 66.090006,15.503762 C 65.802628,16.607774 65.554434,17.841830 65.323257,19.155694 C 64.397566,19.775371 63.487329,20.407467 62.596164,21.052800 C 56.334406,21.797333 50.338953,22.926616 44.889833,24.380642 C 51.067060,20.827780 58.147674,17.768757 66.145337,15.321956 z M 108.75910,15.361481 C 109.44559,15.714254 110.12593,16.077451 110.79849,16.452317 C 116.91048,19.858962 122.43824,24.159962 127.19266,29.186646 C 124.49106,26.696670 121.36284,24.433487 117.81779,22.420298 C 115.79511,20.129717 113.48398,18.101743 110.79849,16.452317 C 110.15218,16.055351 109.44502,15.717341 108.75910,15.361481 z M 45.316682,15.606521 C 43.385236,17.049440 41.651300,18.730935 40.162875,20.681285 C 40.099081,20.764877 40.044071,20.857691 39.981069,20.942134 C 33.287477,24.256324 27.968570,28.402782 23.910995,33.154762 C 29.731165,25.955882 37.008588,19.960394 45.316682,15.606521 z M 45.285064,18.950172 C 44.646215,19.878823 44.174251,20.779148 43.901756,21.637743 C 43.558238,22.720144 43.505431,23.746648 43.696238,24.712635 C 41.679402,25.277196 39.716636,25.871228 37.878445,26.522791 C 37.512530,26.652494 37.177351,26.792959 36.819224,26.925928 C 37.780948,24.846837 38.904244,22.925676 40.194494,21.187178 C 41.808894,20.390479 43.505709,19.645499 45.285064,18.950172 z M 110.22145,19.108266 C 112.88383,20.176603 115.33885,21.374813 117.62808,22.673244 C 117.96106,23.051993 118.31659,23.409092 118.63196,23.803605 C 119.71083,25.153206 120.67178,26.604820 121.54876,28.127429 C 118.45274,26.572500 115.07809,25.250428 111.47829,24.167217 C 111.50601,23.981141 111.54774,23.796762 111.55733,23.605990 C 111.62732,22.214016 111.20023,20.716023 110.22145,19.108266 z M 96.182864,19.163597 C 98.069832,20.027733 99.913924,20.918975 101.67657,21.851168 C 100.02652,21.555081 98.352570,21.298171 96.657141,21.076516 C 96.497302,20.438861 96.359731,19.761072 96.182864,19.163597 z M 65.260019,19.574637 C 65.194504,19.961894 65.139138,20.380428 65.078213,20.784044 C 64.469368,20.845856 63.856767,20.896794 63.252248,20.965850 C 63.912355,20.494354 64.581146,20.032175 65.260019,19.574637 z M 78.041777,20.341386 C 78.608517,20.333993 79.174451,20.342100 79.741272,20.341386 C 81.143426,25.032659 82.407559,29.998968 83.535484,35.170437 C 80.820568,35.331804 78.055041,35.396879 75.306782,35.344340 C 71.981541,35.280768 68.705004,35.041378 65.568300,34.664544 C 67.501989,29.435407 69.725857,24.669427 72.223983,20.546904 C 72.546292,20.529862 72.865535,20.498613 73.188348,20.483670 C 74.802072,20.408956 76.421013,20.362532 78.041777,20.341386 z M 80.065358,20.341386 C 82.570933,20.343910 85.074509,20.408971 87.558931,20.546904 C 91.351823,23.624745 94.796265,26.919398 97.953495,30.364432 C 98.051558,31.230092 98.150868,32.094845 98.230157,32.996668 C 93.976196,34.099902 89.041765,34.837905 83.859574,35.162534 C 82.733719,29.995923 81.465151,25.033458 80.065358,20.341386 z M 71.820850,20.570620 C 69.346482,24.688461 67.149614,29.435967 65.236307,34.625019 C 64.901927,34.583515 64.570772,34.535704 64.240324,34.490641 C 64.425319,29.439547 64.782957,24.905776 65.346973,21.076516 C 67.486063,20.862651 69.644050,20.691709 71.820850,20.570620 z M 88.104349,20.586429 C 90.906926,20.753770 93.678768,21.010314 96.404192,21.361081 C 97.028385,23.903023 97.521714,26.745974 97.890258,29.850633 C 94.896655,26.613141 91.660653,23.498918 88.104349,20.586429 z M 65.022882,21.108131 C 64.463331,24.931481 64.099652,29.439082 63.916237,34.451119 C 59.054116,33.768317 54.680034,32.691827 51.253048,31.241846 C 54.688876,27.709032 58.515426,24.402879 62.706830,21.361081 C 63.475698,21.269977 64.246794,21.187470 65.022882,21.108131 z M 96.744091,21.408509 C 98.700813,21.666408 100.63664,21.959841 102.53027,22.317539 C 105.16692,23.744402 107.65814,25.240553 110.01594,26.807356 C 109.05598,28.113965 107.57725,29.284604 105.65259,30.301198 C 104.10222,31.120096 102.25063,31.830577 100.22212,32.451251 C 99.579125,31.703687 98.924992,30.963730 98.253873,30.230054 C 97.885115,27.005746 97.386949,24.049007 96.744091,21.408509 z M 62.042843,21.448031 C 57.990876,24.429242 54.291942,27.665163 50.952674,31.107469 C 49.493439,30.469300 48.163157,29.784692 47.118936,29.004840 C 45.788542,28.011269 44.831443,26.909140 44.320703,25.700711 C 44.215004,25.450630 44.142618,25.193256 44.075660,24.933966 C 49.573489,23.413278 55.662393,22.234349 62.042843,21.448031 z M 39.593745,21.487552 C 38.376125,23.199065 37.313613,25.074363 36.400281,27.091925 C 31.040910,29.119012 26.573171,31.499929 23.476239,34.190267 C 23.674323,33.946188 23.856678,33.696181 24.061182,33.455136 C 27.992860,28.821003 33.139166,24.762791 39.593745,21.487552 z M 103.51834,22.515154 C 105.96121,23.002988 108.34536,23.565412 110.64040,24.230454 C 110.80532,24.278245 110.95854,24.339821 111.12258,24.388548 C 110.96938,25.153963 110.66058,25.875058 110.19774,26.562316 C 108.08350,25.156166 105.85533,23.809470 103.51834,22.515154 z M 118.48968,23.179140 C 123.45848,26.116655 127.55870,29.567708 130.82087,33.423518 C 131.43513,34.149559 132.01847,34.891655 132.57570,35.644714 C 133.07859,36.324341 133.54920,37.015458 134.00643,37.715723 C 130.96068,33.945815 126.86952,30.851710 122.04675,28.364566 C 121.10497,26.683335 120.05944,25.085153 118.87701,23.605990 C 118.75674,23.455545 118.61249,23.327328 118.48968,23.179140 z M 111.43086,24.483401 C 115.15553,25.607224 118.64717,26.972617 121.81752,28.601703 C 123.78388,32.135384 125.22670,36.091499 126.18877,40.347960 C 121.85564,35.459849 116.63198,30.872493 110.45859,26.736216 C 110.93613,26.027287 111.26686,25.280283 111.43086,24.483401 z M 43.775285,25.044628 C 43.844634,25.309367 43.920632,25.572603 44.028232,25.827186 C 44.567214,27.102436 45.567196,28.240591 46.929224,29.257787 C 47.972413,30.036871 49.283126,30.724383 50.715533,31.360415 C 44.406790,37.915497 39.411203,45.196732 35.570298,52.781915 C 35.266365,52.877775 34.945932,52.960081 34.645456,53.058574 C 33.851622,53.318789 33.113964,53.617664 32.345216,53.896463 C 32.072285,45.454304 32.964960,37.537325 35.238302,30.862425 C 37.860354,28.812330 40.707511,26.870361 43.775285,25.044628 z M 42.700255,25.321290 C 40.125740,26.897925 37.705112,28.554596 35.451726,30.293291 C 35.814272,29.275937 36.209143,28.292535 36.637418,27.336968 C 37.088983,27.166987 37.516695,26.987817 37.981204,26.823166 C 39.484389,26.290350 41.073946,25.796430 42.700255,25.321290 z M 110.27679,26.981259 C 116.60697,31.219095 121.93530,35.933563 126.32315,40.956615 C 127.33610,45.694011 127.72898,50.798412 127.61951,56.086041 C 127.11421,55.872965 126.64718,55.643607 126.12553,55.437864 C 122.17776,53.880798 117.73725,52.562717 113.01178,51.438130 C 109.65907,44.929096 105.48200,38.620758 100.43554,32.712103 C 102.42997,32.094035 104.26185,31.391766 105.80278,30.577857 C 107.75693,29.545682 109.27992,28.342685 110.27679,26.981259 z M 36.218475,27.495058 C 35.766727,28.524417 35.346355,29.574903 34.969546,30.672713 C 28.485108,35.759220 23.338630,41.481640 19.444886,47.556964 C 18.691320,45.291708 18.645378,42.836828 19.452793,40.166154 C 19.505733,40.013763 19.604645,39.866959 19.666217,39.715589 C 20.383232,38.475425 21.167702,37.260388 22.021792,36.079466 C 24.972947,32.819851 29.939816,29.903267 36.218475,27.495058 z M 122.31551,28.838844 C 128.18649,31.937297 132.91730,35.955681 135.93516,41.004040 C 136.76108,44.734582 135.98871,48.033244 133.96691,50.948043 C 131.90165,47.480754 129.46346,44.099490 126.63143,40.845950 C 125.69893,36.504932 124.27550,32.459836 122.31551,28.838844 z M 98.317107,30.743857 C 98.858924,31.341501 99.382731,31.947202 99.905936,32.554010 C 99.466717,32.684674 98.995551,32.796071 98.538438,32.917625 C 98.472994,32.176387 98.395309,31.461101 98.317107,30.743857 z M 34.795643,31.218131 C 32.605967,37.872490 31.748114,45.689340 32.029029,54.015035 C 30.216552,54.681549 28.474889,55.392608 26.819890,56.165088 C 24.742294,54.784741 23.011139,53.278053 21.705608,51.643651 C 20.769564,50.471815 20.061751,49.229053 19.579268,47.928482 C 23.394668,41.922191 28.437860,36.266102 34.795643,31.218131 z M 51.015908,31.494793 C 54.506937,32.994820 58.962291,34.086761 63.908331,34.775206 C 63.862135,36.097483 63.820008,37.445180 63.797665,38.830275 C 62.833181,41.779361 61.951177,44.838137 61.149623,47.983813 C 52.160525,48.774060 43.563177,50.308237 35.989241,52.655440 C 39.814280,45.165075 44.768688,37.969592 51.015908,31.494793 z M 100.11936,32.814862 C 105.12194,38.657949 109.26294,44.899061 112.60074,51.335371 C 108.29889,50.327429 103.76195,49.485485 99.044335,48.853321 C 99.133527,43.292769 98.972342,38.040645 98.562151,33.241712 C 99.086672,33.102617 99.617738,32.966039 100.11936,32.814862 z M 98.253873,33.320759 C 98.659200,38.082475 98.814499,43.296370 98.728147,48.813800 C 94.664077,48.277334 90.488842,47.897110 86.262573,47.651820 C 85.561829,43.518113 84.789789,39.438078 83.930715,35.470815 C 89.086856,35.146724 93.999214,34.421285 98.253873,33.320759 z M 64.224515,34.814731 C 64.520869,34.854806 64.818272,34.896087 65.117739,34.933300 C 64.772735,35.877690 64.464376,36.870530 64.137565,37.842198 C 64.158852,36.806817 64.189594,35.813457 64.224515,34.814731 z M 65.449732,34.972821 C 68.621757,35.354323 71.934353,35.596202 75.298879,35.660524 C 78.074149,35.713581 80.865701,35.650118 83.606625,35.486621 C 84.464516,39.445488 85.238231,43.509559 85.938487,47.636011 C 84.447224,47.552183 82.956533,47.461266 81.456572,47.414683 C 79.390561,47.350520 77.321157,47.320133 75.251450,47.327730 C 71.535257,47.341374 67.829311,47.479061 64.169184,47.730867 C 64.121189,44.700707 64.076172,41.687768 64.121756,38.869797 C 64.553396,37.553223 64.985371,36.240271 65.449732,34.972821 z M 19.595077,39.122743 C 19.535022,39.251752 19.467395,39.380135 19.413267,39.510071 C 15.819416,45.705476 13.912411,52.588985 13.429477,59.753782 C 12.291956,62.919710 11.436842,66.121214 10.868384,69.342076 C 10.133627,70.630288 9.5453860,71.985669 9.0977500,73.397141 C 9.3970610,60.815491 13.198687,49.086442 19.595077,39.122743 z M 63.789762,39.849967 C 63.759668,42.376346 63.809881,45.064945 63.853000,47.754579 C 63.061155,47.810618 62.276147,47.884761 61.489519,47.952194 C 62.197677,45.182486 62.954989,42.468020 63.789762,39.849967 z M 18.891565,41.130515 C 18.348422,43.550516 18.478206,45.812861 19.223559,47.904770 C 17.017246,51.397848 15.225454,55.005259 13.824708,58.678756 C 14.369446,52.508555 16.013902,46.574576 18.891565,41.130515 z M 126.76581,41.454605 C 129.46996,44.607716 131.79987,47.882406 133.78510,51.232611 C 133.48150,51.650030 133.15202,52.056427 132.79703,52.457825 C 131.56455,53.851397 129.97135,55.128108 128.17283,56.323181 C 128.09362,56.288937 128.01532,56.254481 127.93569,56.220419 C 128.05084,51.076549 127.70745,46.095163 126.76581,41.454605 z M 136.40153,41.889357 C 139.95984,48.950941 141.50212,56.810459 141.36563,64.907589 C 141.06618,64.581327 140.76915,64.253097 140.44079,63.935322 C 140.21002,63.711992 139.91868,63.506319 139.67404,63.287145 C 138.29858,59.210138 136.46089,55.176927 134.14872,51.248421 C 136.09591,48.491719 136.92899,45.362468 136.40153,41.889357 z M 137.29475,42.988099 C 142.27930,52.038002 145.19878,62.347532 145.47603,73.294382 C 145.16611,70.386012 143.83882,67.692083 141.67391,65.231680 C 141.84665,57.451082 140.49014,49.866318 137.29475,42.988099 z M 75.251450,47.651820 C 77.317500,47.644160 79.386295,47.666816 81.448665,47.730867 C 82.969001,47.778080 84.482539,47.866628 85.993818,47.952194 C 87.029674,54.095557 87.845971,60.361540 88.539104,66.607080 C 84.623961,66.859594 80.643518,66.969270 76.666376,66.939074 C 72.715992,66.909081 68.772480,66.733027 64.904314,66.425275 C 64.632327,62.276265 64.420187,58.167016 64.279849,54.165222 C 64.206019,52.059979 64.203513,50.090820 64.169184,48.054957 C 67.827906,47.803521 71.536193,47.665595 75.251450,47.651820 z M 86.310001,47.968004 C 90.520643,48.213927 94.672494,48.602582 98.720244,49.137886 C 98.692104,50.768194 98.654229,52.413023 98.585866,54.086176 C 98.430997,57.876350 98.169374,61.771020 97.819118,65.698051 C 94.891893,66.072730 91.901462,66.372802 88.855288,66.575462 C 88.163841,60.342956 87.342971,54.100584 86.310001,47.968004 z M 63.853000,48.078669 C 63.887667,50.112417 63.889917,52.078122 63.963666,54.181032 C 64.103581,58.170709 64.309930,62.266514 64.580224,66.401562 C 62.319460,66.216919 60.101048,65.969447 57.908731,65.690144 C 58.629112,60.986388 59.486151,56.325522 60.525158,51.809648 C 60.799356,50.617891 61.105916,49.454908 61.402569,48.284191 C 62.218721,48.213818 63.031149,48.136771 63.853000,48.078669 z M 19.373746,48.260475 C 19.865600,49.513650 20.551788,50.713462 21.452658,51.841267 C 22.749522,53.464816 24.450904,54.957841 26.479994,56.323181 C 21.230859,58.813531 16.821457,61.833764 13.658711,65.453007 C 13.591732,63.547484 13.619858,61.659509 13.745661,59.785401 C 15.162709,55.853487 17.035537,51.993063 19.373746,48.260475 z M 61.070576,48.315806 C 60.782984,49.454535 60.483394,50.580126 60.216878,51.738504 C 59.175899,56.262947 58.314093,60.931919 57.592548,65.642720 C 48.825052,64.505262 40.710525,62.635311 34.218606,59.990919 C 33.747701,59.799102 33.336330,59.582012 32.882727,59.382264 C 33.757540,57.248267 34.734398,55.138211 35.791626,53.042764 C 43.377305,50.663724 52.023525,49.115213 61.070576,48.315806 z M 99.036428,49.177411 C 103.83097,49.821083 108.43983,50.675383 112.79836,51.706885 C 114.45169,54.928631 115.89046,58.192728 117.14590,61.476989 C 111.54841,63.357226 105.07653,64.753727 98.135301,65.658526 C 98.483005,61.747846 98.747783,57.869556 98.902050,54.094078 C 98.969984,52.431483 99.007851,50.797637 99.036428,49.177411 z M 133.95110,51.517176 C 136.13326,55.241646 137.89568,59.056596 139.23138,62.915627 C 136.42386,60.505155 132.79479,58.353486 128.51273,56.473369 C 130.25520,55.298304 131.81064,54.045763 133.02626,52.671250 C 133.35818,52.295944 133.66255,51.907732 133.95110,51.517176 z M 113.20940,51.809648 C 117.81843,52.917525 122.15204,54.209887 126.00697,55.730335 C 126.56778,55.951526 127.07001,56.196358 127.61160,56.425941 C 127.60915,56.523902 127.61442,56.620321 127.61160,56.718412 C 125.30856,58.175799 122.63536,59.485674 119.62794,60.631193 C 118.93509,60.895098 118.17901,61.126937 117.45417,61.374226 C 116.22566,58.159504 114.81774,54.965047 113.20940,51.809648 z M 35.364777,53.169239 C 34.389640,55.118554 33.487500,57.083580 32.669303,59.066080 C 32.529426,57.439236 32.410463,55.822266 32.353119,54.228456 C 33.148984,53.938586 33.916704,53.628925 34.740312,53.358952 C 34.943338,53.292402 35.160145,53.234582 35.364777,53.169239 z M 32.036935,54.347028 C 32.095864,55.924152 32.214027,57.528668 32.353119,59.137224 C 30.463444,58.278628 28.694844,57.368831 27.151883,56.370609 C 28.709850,55.650046 30.337257,54.974777 32.036935,54.347028 z M 26.788271,56.528700 C 28.433625,57.607394 30.342742,58.577676 32.376835,59.492929 C 32.383048,59.562000 32.386283,59.629331 32.392644,59.698451 C 27.832425,70.992893 25.797942,82.676840 26.068954,93.506470 C 23.603249,92.442710 21.384615,91.257750 19.381652,89.988920 C 17.253126,84.972510 15.628391,79.823840 14.670500,74.661880 C 14.128229,71.739636 13.799549,68.815266 13.674520,65.919378 C 16.851157,62.187488 21.369774,59.078647 26.788271,56.528700 z M 128.20445,56.686793 C 132.74323,58.663351 136.56139,60.933687 139.42109,63.484757 C 140.10370,65.520624 140.66391,67.562669 141.12058,69.610832 C 140.93933,71.527183 140.66935,73.450931 140.31431,75.373290 C 139.52569,79.643410 138.27892,83.897400 136.70191,88.076010 C 134.08982,89.979380 131.01903,91.711780 127.46932,93.221910 C 126.28886,92.477070 125.03014,91.765840 123.65930,91.103470 C 123.56802,88.689300 123.37098,86.240950 123.06645,83.760090 C 125.16132,77.271750 126.66843,70.659562 127.42189,64.188269 C 127.70906,61.721849 127.85381,59.292698 127.92779,56.884409 C 128.02603,56.821435 128.10763,56.750355 128.20445,56.686793 z M 127.60370,57.113643 C 127.52556,59.435039 127.38239,61.780282 127.10571,64.156650 C 126.38050,70.385276 124.96443,76.752950 122.98740,83.009150 C 122.06741,76.001580 120.26501,68.800492 117.56484,61.666698 C 118.29153,61.418655 119.05146,61.188411 119.74651,60.923665 C 122.68641,59.803861 125.32482,58.534342 127.60370,57.113643 z M 32.756256,59.666832 C 33.213031,59.867869 33.626239,60.090394 34.100038,60.283391 C 40.626634,62.941909 48.759720,64.819249 57.545119,65.958904 C 56.609128,72.133177 55.950429,78.373960 55.553157,84.503120 C 49.601908,85.351710 43.996356,86.546870 39.024611,88.107630 C 35.841631,78.980510 33.656506,69.467875 32.756256,60.346628 C 32.736789,60.149396 32.735018,59.958529 32.716731,59.761685 C 32.729513,59.730091 32.743432,59.698419 32.756256,59.666832 z M 32.440069,60.386150 C 33.343072,69.528310 35.528510,79.058470 38.716334,88.202480 C 37.011809,88.745340 35.363210,89.314270 33.823376,89.941500 C 31.088943,91.055330 28.638284,92.307950 26.527419,93.688280 C 26.481216,93.668780 26.431200,93.652520 26.385138,93.632950 C 26.099503,82.992410 28.038141,71.509941 32.440069,60.386150 z M 13.350430,60.892046 C 13.275463,62.518362 13.275118,64.161075 13.342527,65.808716 C 12.586557,66.705788 11.921480,67.639167 11.318946,68.606949 C 11.811927,66.020458 12.488153,63.443739 13.350430,60.892046 z M 117.26447,61.769457 C 120.04312,69.109322 121.85988,76.519190 122.75026,83.712660 C 122.09045,85.752350 121.36540,87.770630 120.58440,89.775500 C 120.20198,89.620500 119.85495,89.450920 119.46195,89.301220 C 112.80115,86.764130 104.62577,85.017350 95.858774,84.005130 C 96.810272,78.043870 97.571293,71.973661 98.111589,65.982616 C 105.10071,65.074804 111.61969,63.667376 117.26447,61.769457 z M 139.85585,63.848373 C 139.96854,63.953392 140.11001,64.050723 140.21946,64.156650 C 140.62297,64.547156 140.99939,64.947741 141.35772,65.350248 C 141.33199,66.406396 141.28149,67.465496 141.19963,68.527903 C 140.82248,66.964916 140.36410,65.403625 139.85585,63.848373 z M 141.66600,65.713860 C 144.08564,68.566481 145.37342,71.709735 145.23098,75.128250 C 145.02715,77.537180 144.20221,79.778230 142.86750,81.862980 C 142.82167,77.807290 142.34119,73.698005 141.42886,69.595026 C 141.55042,68.297912 141.62691,67.003047 141.66600,65.713860 z M 57.861303,66.006332 C 60.076170,66.288475 62.320044,66.532124 64.603936,66.717746 C 64.971262,72.275007 65.485413,77.859430 66.058387,83.388570 C 62.585822,83.632540 59.183774,83.991060 55.869341,84.455700 C 56.266645,78.356360 56.930202,72.149134 57.861303,66.006332 z M 97.787499,66.022141 C 97.247805,71.987788 96.490268,78.030310 95.542590,83.965610 C 93.838688,83.772760 92.115485,83.611420 90.372973,83.475520 C 90.026786,78.047080 89.502029,72.481448 88.886907,66.891646 C 91.910727,66.690380 94.879339,66.392874 97.787499,66.022141 z M 13.358337,66.290897 C 13.495605,69.084846 13.831868,71.901782 14.354316,74.717210 C 15.290110,79.760100 16.867273,84.789600 18.915278,89.696450 C 17.355315,88.676110 15.898322,87.619610 14.678406,86.471370 C 12.735699,84.642810 11.268374,82.647480 10.315060,80.495480 C 10.242980,76.830630 10.522476,73.130966 11.168759,69.444835 C 11.799039,68.347125 12.531247,67.300834 13.358337,66.290897 z M 64.928026,66.749365 C 68.788476,67.054977 72.724993,67.225335 76.666376,67.255257 C 80.653572,67.285531 84.645181,67.176584 88.570723,66.923264 C 89.183986,72.494209 89.702851,78.040930 90.048883,83.451810 C 85.558861,83.111140 80.976785,82.934800 76.389714,82.969630 C 73.030018,82.995130 69.682995,83.146900 66.374571,83.372760 C 65.802505,77.859080 65.295482,72.291457 64.928026,66.749365 z M 10.710291,70.314343 C 10.211389,73.452349 9.9722390,76.598210 9.9909700,79.720830 C 9.3839410,78.109250 9.0575730,76.413430 9.0661310,74.622360 C 9.0661840,74.611660 9.0660570,74.601440 9.0661310,74.590740 C 9.0661480,74.588070 9.0661130,74.585500 9.0661310,74.582830 C 9.0667570,74.580380 9.0655040,74.577380 9.0661310,74.574930 C 9.4469640,73.087097 10.012017,71.671090 10.710291,70.314343 z M 141.31029,70.504056 C 142.12869,74.455010 142.55340,78.414210 142.56713,82.313550 C 141.50627,83.863440 140.16788,85.329470 138.55158,86.700600 C 138.13785,87.051580 137.63929,87.373510 137.19199,87.712400 C 138.68520,83.673130 139.86107,79.559900 140.62259,75.436530 C 140.92656,73.790680 141.13256,72.147297 141.31029,70.504056 z M 145.50764,75.444440 C 145.43407,86.404620 142.67900,96.738400 137.87969,105.86139 C 140.44863,100.20383 142.07689,94.064970 142.64617,87.696590 C 142.80245,85.948340 142.87896,84.184750 142.87541,82.408400 C 144.32806,80.262810 145.24311,77.940900 145.50764,75.444440 z M 9.1372750,78.013440 C 9.3412050,78.885650 9.6386930,79.734450 9.9988760,80.558720 C 10.034600,82.296360 10.139696,84.027570 10.330870,85.744150 C 10.697597,89.037050 11.362970,92.276320 12.283310,95.435200 C 10.491709,89.903830 9.4094420,84.061540 9.1372750,78.013440 z M 10.346679,81.317560 C 11.316880,83.248680 12.697776,85.044670 14.457079,86.700600 C 15.787734,87.953080 17.390535,89.105500 19.112893,90.202350 C 20.096629,92.515060 21.172578,94.795210 22.377497,97.031930 C 21.949342,97.469430 21.542135,97.917350 21.175999,98.375720 C 18.714082,101.45780 17.723880,105.02837 18.599094,109.02323 C 14.284137,101.95617 11.568686,93.988000 10.647053,85.712530 C 10.484936,84.256840 10.396779,82.789130 10.346679,81.317560 z M 142.55132,82.898490 C 142.54080,84.498320 142.47880,86.088730 142.33789,87.664970 C 141.66364,95.207590 139.50259,102.42880 136.03792,108.89676 C 136.86563,104.60229 135.61489,100.81886 132.78913,97.601070 C 134.39358,94.563290 135.77041,91.432350 136.97066,88.257810 C 137.56840,87.818830 138.20694,87.397760 138.74920,86.937750 C 140.24166,85.671660 141.51751,84.325430 142.55132,82.898490 z M 76.389714,83.285810 C 80.988722,83.250900 85.579694,83.424780 90.080502,83.767990 C 90.462788,89.829120 90.627975,95.609800 90.681254,101.16604 C 85.815687,101.55368 80.868084,101.77470 75.915437,101.77470 C 73.489049,101.77470 71.068872,101.71775 68.659005,101.62451 C 67.801427,95.921470 67.059879,89.869920 66.414093,83.688950 C 69.710210,83.464030 73.042427,83.311230 76.389714,83.285810 z M 66.090006,83.704760 C 66.733775,89.873980 67.479414,95.912220 68.334915,101.60870 C 63.953925,101.43148 59.634216,101.09142 55.426682,100.60482 C 55.424549,100.44948 55.412619,100.30213 55.410873,100.14635 C 55.355566,95.207530 55.518986,90.036000 55.853531,84.779790 C 59.181838,84.311560 62.600110,83.950020 66.090006,83.704760 z M 90.396685,83.799610 C 92.117625,83.934410 93.820218,84.091430 95.503068,84.281790 C 94.574667,90.051230 93.450019,95.686480 92.183130,101.03957 C 91.788797,101.07437 91.393130,101.11010 90.997438,101.14233 C 90.943951,95.603610 90.776353,89.838180 90.396685,83.799610 z M 95.811346,84.321320 C 104.56330,85.330760 112.72312,87.069030 119.35128,89.593690 C 119.74275,89.742800 120.08512,89.913540 120.46583,90.067970 C 119.59294,92.289900 118.65026,94.473610 117.63598,96.628800 C 110.08471,98.756820 101.48368,100.20741 92.515123,101.01586 C 93.775391,95.679660 94.887052,90.067080 95.811346,84.321320 z M 122.82931,84.471510 C 123.08112,86.659090 123.25036,88.819030 123.33521,90.953290 C 122.55653,90.584370 121.70978,90.245140 120.87687,89.901970 C 121.57681,88.105350 122.22618,86.296830 122.82931,84.471510 z M 55.529441,84.827210 C 55.197634,90.067010 55.039530,95.220550 55.094689,100.14635 C 55.096283,100.28869 55.100680,100.42333 55.102592,100.56530 C 51.008952,100.08333 47.047525,99.452940 43.261486,98.676090 C 41.739591,95.338650 40.358867,91.911100 39.127370,88.408000 C 44.056861,86.861820 49.621438,85.672930 55.529441,84.827210 z M 38.819093,88.494950 C 40.027737,91.934860 41.385667,95.307030 42.874158,98.589140 C 38.168367,97.607550 33.724278,96.426860 29.744598,94.984640 C 28.752765,94.625200 27.835108,94.226670 26.898937,93.838470 C 28.946882,92.517610 31.299679,91.310260 33.941948,90.233970 C 35.476558,89.608870 37.117902,89.036270 38.819093,88.494950 z M 136.48058,88.629330 C 135.33815,91.589270 134.04795,94.508670 132.55198,97.348120 C 131.25689,95.928170 129.62315,94.631670 127.76179,93.427430 C 131.06754,92.007620 133.97733,90.399060 136.48058,88.629330 z M 120.75830,90.194440 C 121.63764,90.557120 122.53371,90.909690 123.35101,91.301090 C 123.39266,92.470080 123.41402,93.630570 123.40635,94.779120 C 123.16497,94.865120 122.94712,94.963440 122.70284,95.047880 C 121.21035,95.563750 119.64880,96.045480 118.05493,96.502320 C 119.02307,94.430280 119.92034,92.327310 120.75830,90.194440 z M 19.579268,90.486910 C 21.541611,91.698140 23.697535,92.819520 26.076857,93.838470 C 26.078318,93.888100 26.075301,93.939060 26.076857,93.988660 C 24.774853,94.873340 23.619136,95.809720 22.614638,96.802700 C 21.502937,94.734640 20.501484,92.620490 19.579268,90.486910 z M 123.67510,91.474990 C 124.89888,92.073630 126.05470,92.700240 127.12151,93.364190 C 126.03415,93.819530 124.88211,94.241730 123.72253,94.660550 C 123.72803,93.606970 123.71086,92.545590 123.67510,91.474990 z M 127.42979,93.577620 C 129.38490,94.826820 131.07643,96.183540 132.40180,97.656400 C 129.29376,103.49768 125.43989,108.98544 121.05868,113.92409 C 122.45208,109.25459 123.32849,104.14161 123.63558,98.731430 C 123.70503,97.507990 123.70279,96.251740 123.71463,95.000450 C 124.98575,94.543480 126.24421,94.078790 127.42979,93.577620 z M 26.566944,94.036090 C 27.574501,94.457690 28.570748,94.888950 29.641839,95.277110 C 33.701051,96.748160 38.231573,97.951720 43.032252,98.944850 C 44.327691,101.77661 45.694692,104.55305 47.182173,107.20517 C 49.378067,111.12037 51.794122,114.77741 54.367465,118.15306 C 50.859004,119.22472 47.924239,120.54125 45.925338,122.11327 C 45.510559,122.43947 45.152009,122.78449 44.818693,123.13296 C 38.199782,118.04226 32.360209,111.75709 27.555020,104.79426 C 26.931911,101.53122 26.533477,98.131580 26.393041,94.628930 C 26.386993,94.478030 26.398180,94.321720 26.393041,94.170460 C 26.456187,94.127970 26.503133,94.078330 26.566944,94.036090 z M 26.076857,94.407600 C 26.079744,94.485740 26.073727,94.566700 26.076857,94.644740 C 26.208331,97.923830 26.582306,101.10287 27.136074,104.17770 C 25.574333,101.87188 24.100243,99.519170 22.780634,97.087270 C 23.727316,96.143580 24.851517,95.256820 26.076857,94.407600 z M 123.39844,95.119020 C 123.38526,96.324590 123.38634,97.536280 123.31940,98.715620 C 122.99833,104.37191 122.03804,109.68434 120.52907,114.50903 C 119.78384,115.33276 119.06016,116.17833 118.28416,116.96737 C 115.85122,119.44116 113.24398,121.69809 110.53764,123.78114 C 109.52653,121.86091 107.49969,120.28174 104.79098,119.01466 C 104.51608,118.88607 104.19466,118.78125 103.90567,118.65895 C 106.24853,115.96176 108.46967,113.08222 110.52183,110.01131 C 113.26804,105.90179 115.70247,101.47773 117.86521,96.897550 C 119.56549,96.415620 121.21804,95.896980 122.80560,95.348250 C 123.01183,95.276970 123.19425,95.191430 123.39844,95.119020 z M 117.46208,97.000320 C 115.33231,101.48132 112.94251,105.81285 110.25307,109.83741 C 108.18844,112.92699 105.95474,115.82513 103.59739,118.53248 C 100.10534,117.10484 95.676971,116.11252 90.776110,115.53663 C 90.914269,112.77294 91.011832,109.89536 91.044866,106.84946 C 91.416346,105.47283 91.786178,104.09441 92.135702,102.66792 C 92.242118,102.23361 92.339674,101.77843 92.443982,101.33995 C 101.36439,100.54169 109.92038,99.104880 117.46208,97.000320 z M 22.543497,97.316500 C 23.966136,99.932880 25.553796,102.47579 27.254646,104.94445 C 28.448885,111.14949 30.534112,116.81225 33.396530,121.70223 C 29.408409,119.98048 26.062343,118.03822 23.578998,115.92396 C 21.943695,113.98628 20.459984,111.94600 19.112893,109.82160 C 17.895167,105.55271 18.835995,101.81946 21.428946,98.573330 C 21.770968,98.145150 22.145119,97.727230 22.543497,97.316500 z M 132.62312,97.909350 C 135.42563,101.14488 136.62059,104.89028 135.66640,109.21294 C 131.82330,115.64432 125.16780,120.36946 116.94828,123.68629 C 118.48025,120.94724 119.77475,117.94332 120.79783,114.69084 C 125.37981,109.61988 129.39703,103.95653 132.62312,97.909350 z M 43.427483,99.031800 C 47.167146,99.792550 51.076734,100.40715 55.110498,100.88148 C 55.201866,106.89172 55.594530,112.53114 56.256668,117.62345 C 55.728320,117.76360 55.205090,117.90755 54.699458,118.05820 C 52.105634,114.66818 49.671027,110.99134 47.458832,107.04708 C 46.016047,104.47464 44.689504,101.77521 43.427483,99.031800 z M 55.434588,100.92100 C 59.652123,101.40816 63.984389,101.74835 68.374436,101.92489 C 68.438733,102.35038 68.490903,102.81562 68.556242,103.23705 C 69.218796,107.51046 69.932974,111.53069 70.690489,115.27578 C 65.623656,115.68837 60.775306,116.44781 56.572852,117.53650 C 55.916596,112.48471 55.526854,106.88236 55.434588,100.92100 z M 92.111989,101.37157 C 92.015626,101.77574 91.925575,102.19619 91.827421,102.59678 C 91.576266,103.62179 91.307616,104.60088 91.044866,105.60053 C 91.053047,104.26757 91.009192,102.84279 90.997438,101.46642 C 91.369541,101.43620 91.741069,101.40405 92.111989,101.37157 z M 90.681254,101.49013 C 90.695599,103.18358 90.752493,104.95415 90.736585,106.58070 C 90.735853,106.65570 90.729481,106.71928 90.728682,106.79413 C 89.925925,109.76415 89.074785,112.59389 88.175492,115.27578 C 84.933259,114.99662 81.557388,114.86693 78.152443,114.91217 C 76.691648,114.93157 75.228435,114.97741 73.773287,115.05445 C 72.846649,115.10350 71.931607,115.18018 71.014579,115.25207 C 70.254466,111.50200 69.536145,107.47055 68.872430,103.18963 C 68.810252,102.78859 68.759764,102.34545 68.698527,101.94070 C 71.096213,102.03288 73.501363,102.09089 75.915437,102.09089 C 80.867183,102.09089 85.815926,101.87661 90.681254,101.49013 z M 27.728920,105.63215 C 32.460454,112.35812 38.164478,118.42022 44.597365,123.37010 C 44.086671,123.94534 43.691933,124.54643 43.427483,125.18026 C 41.444145,124.62343 39.512375,124.04252 37.704542,123.40172 C 36.371482,122.92921 35.101424,122.43104 33.878710,121.91565 C 31.041392,117.17548 28.967190,111.66949 27.728920,105.63215 z M 90.689157,108.21696 C 90.647284,110.73441 90.575996,113.18124 90.459923,115.49711 C 89.812369,115.42364 89.161165,115.35890 88.499579,115.29949 C 89.257644,113.03126 89.999582,110.69239 90.689157,108.21696 z M 135.04984,110.66739 C 134.83947,111.02637 134.62040,111.38077 134.40166,111.73451 C 131.82936,115.60767 128.87736,119.21331 125.57221,122.47688 C 125.55629,122.49260 125.54072,122.50860 125.52478,122.52431 C 121.28335,126.42932 116.30452,129.64833 110.68783,131.99403 C 112.99310,129.78522 114.97708,127.11348 116.69533,124.12895 C 124.56120,121.01698 131.00968,116.60298 135.04984,110.66739 z M 78.160349,115.22835 C 81.524900,115.18465 84.861116,115.31746 88.064827,115.59196 C 86.176039,121.17495 84.092931,126.06061 81.851803,129.86769 C 79.480443,129.90512 77.106268,129.87671 74.737651,129.79655 C 73.450140,125.98650 72.216584,121.14156 71.077813,115.56825 C 71.980165,115.49746 72.877624,115.41889 73.789096,115.37063 C 75.240055,115.29382 76.703483,115.24728 78.160349,115.22835 z M 120.26822,115.27578 C 119.24416,118.38507 117.97152,121.25873 116.47400,123.87600 C 114.76737,124.54834 113.00745,125.17303 111.17791,125.72568 C 111.08941,125.15742 110.90431,124.61738 110.66411,124.09733 C 113.40928,121.99063 116.04913,119.70225 118.51339,117.19660 C 119.12002,116.57979 119.68029,115.91382 120.26822,115.27578 z M 70.761629,115.59196 C 71.891698,121.13397 73.117077,125.96464 74.405658,129.78865 C 73.907922,129.77067 73.408454,129.76422 72.911685,129.74122 C 70.336589,129.62200 67.786466,129.41346 65.260019,129.16418 C 62.384947,126.83003 59.648920,124.08718 57.062939,121.03034 C 56.895330,120.01329 56.754852,118.93230 56.612374,117.86059 C 60.813194,116.76957 65.678114,116.00611 70.761629,115.59196 z M 88.396820,115.61568 C 89.090637,115.67774 89.773914,115.75162 90.452020,115.82910 C 90.182550,121.03198 89.728454,125.67818 89.092425,129.55151 C 86.812550,129.71104 84.521551,129.82528 82.215414,129.86769 C 84.453304,126.03821 86.524109,121.17003 88.396820,115.61568 z M 90.768204,115.86862 C 95.595070,116.43970 99.952336,117.39841 103.38397,118.78543 C 99.807774,122.85799 95.922641,126.44084 91.772090,129.35389 C 90.993918,129.42510 90.208008,129.47091 89.424418,129.52780 C 90.056701,125.65900 90.501353,121.03411 90.768204,115.86862 z M 23.405099,116.20062 C 23.420317,116.21353 23.437246,116.22724 23.452527,116.24014 C 27.603656,121.12797 32.645094,125.37102 38.502909,128.69781 C 38.968527,129.19717 39.443174,129.68410 39.933641,130.15226 C 41.852224,131.98354 43.965783,133.55733 46.257331,134.86341 C 37.313144,130.35092 29.522042,123.95508 23.405099,116.20062 z M 24.764690,117.26774 C 27.178391,119.05326 30.182420,120.68884 33.665286,122.16069 C 34.914352,124.23579 36.280234,126.18800 37.823110,127.93897 C 32.841766,124.99685 28.471559,121.38328 24.764690,117.26774 z M 56.296190,117.94754 C 56.411713,118.81567 56.527642,119.69151 56.659802,120.52444 C 56.069575,119.81443 55.494130,119.07737 54.920786,118.33486 C 55.368866,118.20291 55.829970,118.07150 56.296190,117.94754 z M 54.588793,118.42181 C 55.304044,119.35171 56.012924,120.28529 56.754658,121.16472 C 57.183486,123.75450 57.711405,126.13042 58.303962,128.31839 C 55.478285,127.89902 52.717807,127.40350 50.059450,126.83232 C 48.347888,125.74386 46.681593,124.57028 45.055830,123.33058 C 45.372876,122.99926 45.716099,122.67206 46.115050,122.35831 C 48.088640,120.80620 51.043939,119.49171 54.588793,118.42181 z M 103.69225,118.91190 C 104.00943,119.04466 104.35686,119.16691 104.65661,119.30713 C 107.35810,120.57084 109.31957,122.13209 110.27679,123.99457 C 108.81650,125.10755 107.33192,126.17393 105.80278,127.15641 C 101.52538,128.13854 97.026586,128.85186 92.412364,129.29856 C 96.443808,126.41091 100.21193,122.88500 103.69225,118.91190 z M 57.189410,121.69432 C 59.562466,124.45554 62.066123,126.94446 64.682983,129.10885 C 62.648211,128.89995 60.630449,128.67009 58.651764,128.38163 C 58.092568,126.33602 57.605576,124.10543 57.189410,121.69432 z M 34.139563,122.37412 C 35.250545,122.83296 36.404548,123.27772 37.601782,123.70210 C 39.403997,124.34091 41.326773,124.92539 43.301008,125.48063 C 42.884272,126.68408 42.933788,127.98517 43.538145,129.35389 C 43.841522,130.04097 44.288063,130.74174 44.874024,131.46442 C 42.732754,130.56915 40.670295,129.57174 38.708427,128.46067 C 37.011710,126.63724 35.498334,124.58191 34.139563,122.37412 z M 44.842405,123.56772 C 46.267163,124.65450 47.730415,125.67859 49.221561,126.65052 C 47.330625,126.22997 45.511474,125.75964 43.735760,125.26721 C 43.985344,124.67938 44.359176,124.11318 44.842405,123.56772 z M 110.41117,124.30284 C 110.62920,124.79051 110.79148,125.29224 110.86963,125.82053 C 110.69753,125.87171 110.53681,125.93638 110.36374,125.98653 C 109.19590,126.32494 107.99164,126.62708 106.78295,126.91927 C 108.02060,126.09917 109.21974,125.20854 110.41117,124.30284 z M 116.22106,124.31075 C 114.45727,127.30603 112.42650,129.98065 110.06336,132.16003 C 109.98608,132.23130 109.90413,132.29524 109.82622,132.36555 C 109.48669,132.50021 109.13485,132.61675 108.79072,132.74497 C 110.66465,130.24719 111.41351,128.01723 111.20953,126.04186 C 112.93543,125.52216 114.60119,124.93656 116.22106,124.31075 z M 43.601382,125.56758 C 45.636499,126.13312 47.733995,126.65427 49.917169,127.12479 C 52.993881,129.07805 56.199278,130.77585 59.513366,132.17584 C 59.986059,133.46739 60.483278,134.67661 61.031051,135.73291 C 55.466513,135.02509 50.296302,133.65846 45.545916,131.74109 C 44.767121,130.86952 44.184586,130.02907 43.830616,129.22742 C 43.250936,127.91458 43.205567,126.70046 43.601382,125.56758 z M 110.89335,126.14462 C 111.07250,128.10323 110.29261,130.35994 108.25321,132.94259 C 102.14444,135.14360 95.328965,136.32170 87.890924,136.24672 C 88.004254,135.88672 88.123509,135.55269 88.230824,135.16378 C 94.457813,133.66315 100.41401,130.99647 105.94506,127.44888 C 107.47513,127.09609 108.98303,126.71219 110.45069,126.28690 C 110.60167,126.24315 110.74309,126.18915 110.89335,126.14462 z M 121.01916,126.57147 C 116.42671,130.35733 111.31838,133.55515 105.81859,136.05700 L 105.82649,136.04119 C 106.10889,135.77268 106.35014,135.51393 106.60905,135.25073 C 107.80903,134.46513 108.94995,133.57878 110.03175,132.60269 C 114.02129,131.00966 117.68924,128.97128 121.01916,126.57147 z M 50.794580,127.30660 C 53.255438,127.81828 55.784774,128.27538 58.383009,128.65829 C 58.688491,129.75966 59.023473,130.78242 59.371085,131.76480 C 56.422813,130.50164 53.555516,129.01373 50.794580,127.30660 z M 105.05974,127.63859 C 99.805997,130.91506 94.183351,133.38143 88.317773,134.81598 C 88.587001,133.80470 88.838736,132.69187 89.068713,131.50395 C 90.021805,130.92270 90.963003,130.30309 91.890658,129.65427 C 96.420818,129.23581 100.83718,128.56833 105.05974,127.63859 z M 58.738714,128.71362 C 60.838149,129.01745 62.980394,129.25813 65.141451,129.47246 C 68.635873,132.29756 72.330037,134.53156 76.184196,136.04119 C 76.062942,136.05097 75.941560,136.06361 75.820581,136.07281 C 70.283121,135.51792 64.903022,134.08506 59.774219,131.93079 C 59.409002,130.92015 59.058897,129.85765 58.738714,128.71362 z M 39.435651,129.19580 C 41.323499,130.22232 43.292897,131.15517 45.340398,131.98613 C 46.779578,133.59019 49.032080,135.29608 52.011891,137.07670 C 47.492327,135.58236 43.521240,133.14367 40.147066,129.92303 C 39.902272,129.68937 39.674246,129.43745 39.435651,129.19580 z M 65.726394,129.53570 C 68.095585,129.76111 70.484974,129.94579 72.895876,130.05740 C 73.432310,130.08224 73.970864,130.08585 74.508417,130.10483 C 75.325034,132.48712 76.162392,134.47468 77.022082,135.95425 C 76.977473,135.95830 76.932281,135.96607 76.887704,135.97005 C 72.998611,134.52863 69.263010,132.33944 65.726394,129.53570 z M 91.266194,129.70170 C 90.564558,130.18261 89.855777,130.64283 89.139853,131.08500 C 89.215693,130.67900 89.297708,130.27664 89.369087,129.85188 C 90.002078,129.80624 90.636582,129.75665 91.266194,129.70170 z M 89.037094,129.87560 C 88.953640,130.36988 88.857752,130.84615 88.768338,131.31424 C 85.695527,133.17630 82.495002,134.67000 79.187947,135.74082 C 78.710262,135.79691 78.238741,135.83572 77.765118,135.88310 C 77.775200,135.87124 77.786648,135.86338 77.796734,135.85149 C 77.800578,135.84695 77.800796,135.84021 77.804640,135.83568 C 79.274844,134.38059 80.691879,132.46591 82.049418,130.18388 C 84.392527,130.14352 86.720042,130.03660 89.037094,129.87560 z M 74.840410,130.11274 C 77.116301,130.18793 79.399147,130.21708 81.677900,130.18388 C 80.357745,132.38600 78.990839,134.22387 77.575406,135.62225 L 77.567503,135.63015 L 77.559597,135.63015 C 77.481148,135.72280 77.408389,135.77701 77.330363,135.86729 C 76.486672,134.43022 75.651141,132.47097 74.840410,130.11274 z M 88.697195,131.73318 C 88.472392,132.86858 88.230633,133.92989 87.969971,134.89502 C 86.008581,135.36032 84.018545,135.70609 82.009893,135.93053 C 81.398668,135.87198 80.786731,135.81596 80.168117,135.74082 C 83.103221,134.71835 85.951395,133.37609 88.697195,131.73318 z M 46.028097,132.27069 C 50.705230,134.10054 55.783088,135.39813 61.228666,136.07281 C 61.774609,137.08094 62.354116,137.97794 62.975589,138.73667 C 59.555729,138.76594 56.357477,138.34425 53.387291,137.51145 C 50.116766,135.66606 47.633988,133.90505 46.028097,132.27069 z M 59.908597,132.34183 C 64.418068,134.20977 69.114055,135.52020 73.947190,136.17557 C 69.582668,136.40344 65.399928,136.26328 61.418379,135.78034 C 61.398225,135.74237 61.375203,135.71591 61.355141,135.67758 C 60.836062,134.68592 60.361397,133.55301 59.908597,132.34183 z M 109.17805,132.92678 C 108.68430,133.34662 108.17775,133.74656 107.66036,134.12828 C 107.93909,133.81269 108.22225,133.49523 108.46663,133.18763 C 108.70465,133.10119 108.94217,133.01627 109.17805,132.92678 z M 107.85007,133.41686 C 107.42281,133.92832 106.94480,134.45376 106.41933,134.98988 C 101.04193,138.51121 94.494842,140.02184 86.894944,138.84733 C 87.050359,138.51573 87.214666,138.22728 87.361315,137.85135 C 87.512971,137.46259 87.645694,136.98986 87.788165,136.55499 C 95.093412,136.63831 101.81166,135.52548 107.85007,133.41686 z M 87.890924,135.24283 C 87.788777,135.60759 87.666361,135.90099 87.558931,136.23881 C 86.237661,136.21886 84.903045,136.16565 83.543387,136.06491 C 85.007304,135.85598 86.453183,135.57904 87.890924,135.24283 z M 79.670128,136.00958 C 79.683322,136.01126 79.696463,136.00790 79.709653,136.00958 C 79.981746,136.04421 80.245225,136.06510 80.515923,136.09653 C 79.969700,136.14042 79.420786,136.15043 78.871764,136.17557 C 78.994335,136.13733 79.113100,136.08850 79.235375,136.04910 C 79.381398,136.03194 79.523728,136.02756 79.670128,136.00958 z M 61.631803,136.12814 C 66.115619,136.65617 70.844746,136.76313 75.804771,136.38900 C 76.091248,136.41756 76.379069,136.44418 76.666376,136.46804 C 76.412124,136.53248 76.162937,136.61423 75.907534,136.67356 L 75.899627,136.67356 C 71.443403,138.00645 67.269509,138.65594 63.370820,138.72876 C 62.754575,138.00473 62.181277,137.11572 61.631803,136.12814 z M 77.614928,136.21510 C 77.598868,136.21959 77.583566,136.22643 77.567503,136.23091 C 77.559678,136.22820 77.551609,136.22571 77.543787,136.22300 C 77.567493,136.22071 77.591215,136.21741 77.614928,136.21510 z M 82.025702,136.24672 C 83.869593,136.42199 85.680457,136.52588 87.456172,136.55499 C 87.326264,136.94676 87.206182,137.38073 87.068844,137.73278 C 86.912127,138.13452 86.737108,138.44414 86.570854,138.79200 C 83.945186,138.36164 81.194674,137.61273 78.326346,136.51547 C 79.566337,136.47337 80.800411,136.38288 82.025702,136.24672 z M 77.385694,136.59452 C 78.376572,138.36221 79.319590,139.73871 80.215546,140.66539 C 80.713975,141.18091 81.203277,141.57101 81.677900,141.84318 C 81.163608,141.86636 80.651371,141.90802 80.136502,141.92223 C 76.663254,142.01804 73.200693,141.90338 69.907931,141.61395 C 72.078626,141.13485 74.453776,139.53803 77.037891,136.68937 C 77.154027,136.65901 77.269808,136.62593 77.385694,136.59452 z M 77.788831,136.64985 C 80.800210,137.83298 83.680842,138.62762 86.436476,139.08447 C 86.039873,139.86649 85.628182,140.54950 85.187547,141.01320 C 84.897733,141.31817 84.605920,141.53883 84.302230,141.70090 C 83.656330,141.74988 83.007506,141.77720 82.357695,141.81156 C 81.761744,141.59095 81.124843,141.15535 80.444780,140.45197 C 79.615437,139.59418 78.723023,138.28817 77.788831,136.64985 z M 104.11119,136.69728 C 103.87912,136.82901 103.67357,136.97395 103.43139,137.10041 C 103.02900,137.26525 102.62032,137.41727 102.21408,137.57469 C 102.85969,137.30966 103.49216,137.01184 104.11119,136.69728 z M 76.366002,136.87118 C 73.374047,140.02845 70.696297,141.50730 68.374436,141.45585 C 67.976932,141.41320 67.587471,141.36955 67.196651,141.32148 C 65.906778,141.00947 64.712856,140.22512 63.623766,139.02914 C 67.479568,138.93488 71.596991,138.29098 75.978674,136.98184 C 75.984314,136.98016 75.988844,136.97563 75.994484,136.97394 C 76.119448,136.94485 76.241315,136.90148 76.366002,136.87118 z M 51.482282,137.23479 C 52.066412,137.43723 52.650155,137.63403 53.252914,137.80392 C 53.460755,137.92096 53.630835,138.03393 53.845759,138.15173 C 53.046874,137.86359 52.266879,137.55122 51.482282,137.23479 z M 101.51848,137.84344 C 97.768391,139.24973 93.860200,140.32867 89.827555,141.06853 C 88.237523,141.30570 86.615329,141.49920 84.966219,141.63766 C 85.119617,141.51571 85.270885,141.38806 85.416781,141.23452 C 85.903158,140.72270 86.342771,139.98128 86.760567,139.13980 C 92.220979,139.99457 97.160697,139.48725 101.51848,137.84344 z M 54.335846,138.07268 C 57.110881,138.75242 60.075449,139.08969 63.220629,139.04495 C 64.045641,139.99009 64.939851,140.70044 65.892391,141.16338 C 63.710607,140.85537 61.656170,140.46022 59.790028,139.98560 C 59.542975,139.92113 59.300850,139.84720 59.054898,139.78008 C 57.415959,139.33136 55.913509,138.82802 54.644127,138.25448 C 54.640617,138.25262 54.639727,138.24845 54.636221,138.24658 C 54.523658,138.18660 54.446547,138.13246 54.335846,138.07268 z " id="path1194" style="fill:#000000;fill-opacity:1.0000000;fill-rule:evenodd;stroke:none;stroke-width:0.93906116pt;stroke-linecap:butt;stroke-linejoin:miter;stroke-opacity:1.0000000;"/>
</svg>
