<?xml version="1.0" encoding="utf-8"?>
<!-- Generator: Adobe Illustrator 10.0, SVG Export Plug-In . SVG Version: 3.0.0 Build 77)  --><svg enable-background="new 0 0 135.566 198.125" height="198.125" i:pageBounds="0 792 612 0" i:rulerOrigin="0 0" i:viewOrigin="238 495" overflow="visible" space="preserve" viewBox="0 0 135.566 198.125" width="135.566" xmlns="http://www.w3.org/2000/svg" xmlns:a="http://ns.adobe.com/AdobeSVGViewerExtensions/3.0/" xmlns:graph="http://ns.adobe.com/Graphs/1.0/" xmlns:i="http://ns.adobe.com/AdobeIllustrator/10.0/" xmlns:x="http://ns.adobe.com/Extensibility/1.0/" xmlns:xlink="http://www.w3.org/1999/xlink">
  <metadata>
    <rdf:RDF xmlns:cc="http://web.resource.org/cc/" xmlns:dc="http://purl.org/dc/elements/1.1/" xmlns:rdf="http://www.w3.org/1999/02/22-rdf-syntax-ns#">
      <cc:Work rdf:about="">
        <dc:title>Apple Juice Box (B and W)</dc:title>
        <dc:description>Apple Juice Box</dc:description>
        <dc:subject>
          <rdf:Bag>
            <rdf:li>food</rdf:li>
            <rdf:li>juice</rdf:li>
            <rdf:li>apple</rdf:li>
            <rdf:li>fruit</rdf:li>
            <rdf:li>menu</rdf:li>
            <rdf:li>beverage</rdf:li>
          </rdf:Bag>
        </dc:subject>
        <dc:publisher>
          <cc:Agent rdf:about="http://www.openclipart.org/">
            <dc:title>Open Clip Art Project</dc:title>
          </cc:Agent>
        </dc:publisher>
        <dc:creator>
          <cc:Agent rdf:about="http://web.resource.org/cc/PublicDomain">
            <dc:title>Gerald G.</dc:title>
          </cc:Agent>
        </dc:creator>
        <dc:rights>
          <cc:Agent rdf:about="http://web.resource.org/cc/PublicDomain">
            <dc:title>Public Domain</dc:title>
          </cc:Agent>
        </dc:rights>
        <dc:date>2005/05/30</dc:date>
        <dc:format>image/svg+xml</dc:format>
        <dc:type rdf:resource="http://purl.org/dc/dcmitype/StillImage"/>
        <cc:license rdf:resource="http://web.resource.org/cc/PublicDomain"/>
        <dc:language>en</dc:language>
      </cc:Work>
      <cc:License rdf:about="http://web.resource.org/cc/PublicDomain">
        <cc:permits rdf:resource="http://web.resource.org/cc/Reproduction"/>
        <cc:permits rdf:resource="http://web.resource.org/cc/Distribution"/>
        <cc:permits rdf:resource="http://web.resource.org/cc/DerivativeWorks"/>
      </cc:License>
    </rdf:RDF>
  </metadata>
  <g i:dimmedPercent="50" i:layer="yes" i:rgbTrio="#4F008000FFFF" id="Layer_1">
    <g>
      <path clip-rule="evenodd" d="     M0.523,171.105c1.404-11.196,2.016-25.561,1.98-44.208c-0.108-18.756-0.936-40.536-2.484-66.744     c6.768-2.376,16.452-5.976,29.484-10.8c13.104-4.896,28.764-10.908,48.096-18.18l5.4,3.924     c1.908-9.576,3.996-16.992,6.408-22.788c2.376-5.868,4.752-10.188,7.812-11.7c2.916-1.584,3.672,0.252,9.9,2.592     c6.228,2.268,15.191,6.048,27.288,11.196c1.151,1.692,1.548,3.204,1.044,4.68c-0.505,1.44-1.801,2.7-3.889,3.924     c-6.768-2.124-12.563-4.248-17.676-6.516c-5.148-2.376-9.36-4.536-12.78-7.02c-3.023,4.536-5.399,9-7.271,13.788     c-1.98,4.788-3.097,9.504-3.889,14.544l24.948,13.536c1.225,12.456,1.836,28.044,1.98,47.592     c0.071,19.548-0.468,42.084-1.477,68.724c-15.516,7.704-29.268,14.04-42.228,19.152c-12.924,5.111-24.444,8.747-34.848,11.304     c-6.192-3.42-12.276-7.309-18.648-11.809C13.339,181.797,7.003,176.686,0.523,171.105z" fill-rule="evenodd" i:knockout="Off" stroke="#000000" stroke-miterlimit="10" stroke-width="0.036"/>
      <path clip-rule="evenodd" d="     M2.827,64.797c1.476,2.016,3.456,5.796,5.796,11.628c2.268,5.796,5.04,13.32,8.172,23.004c-0.144-3.996,0-7.992,0.288-12.528     c0.288-4.572,0.72-9.144,1.44-14.256c-2.268-2.268-4.644-3.888-7.272-5.256C8.515,66.057,5.887,65.193,2.827,64.797z" fill="#FFFFFF" fill-rule="evenodd" i:knockout="Off" stroke="#000000" stroke-miterlimit="10" stroke-width="0.036"/>
      <path clip-rule="evenodd" d="     M22.591,74.085c3.06,1.548,5.544,2.916,7.596,4.392c2.016,1.44,3.564,2.7,4.644,4.068c-2.376,3.564-4.752,6.624-7.272,9.324     c-2.592,2.628-5.076,4.86-7.848,6.696c0.396-8.856,1.008-15.12,1.44-19.224C21.547,75.201,22.159,73.545,22.591,74.085z" fill="#FFFFFF" fill-rule="evenodd" i:knockout="Off" stroke="#000000" stroke-miterlimit="10" stroke-width="0.036"/>
      <path clip-rule="evenodd" d="     M7.759,61.593c1.188-0.144,5.184-1.476,12.528-4.392c7.344-2.952,21.096-8.892,30.852-12.816     c9.576-3.996,18.36-7.56,26.496-10.836l4.824,2.808c-0.576,2.88-1.08,4.968-1.368,6.264c-0.324,1.188-0.432,1.08-0.468,1.476     c-0.072,0.36-0.072,0.72,0,0.936c-2.593-0.144-3.924-0.036-3.853,0.468c0,0.396,2.053,1.872,4.068,2.34     c1.944,0.504,6.264,0.792,7.56,0.576c1.188-0.36,0.9-1.044-0.575-2.34l1.728-6.696l22.428,12.528     c-3.996,2.088-12.096,5.436-24.443,10.188c-12.528,4.752-28.656,10.584-49.5,18.036c-3.024-2.736-5.544-4.824-7.56-6.408     c-2.052-1.584-3.564-2.556-4.68-2.916c9.9-4.104,14.472-6.336,13.716-6.696c-0.792-0.432-6.912,1.08-18.36,4.392     c-2.52-2.16-4.716-3.816-6.984-4.968C11.899,62.385,9.811,61.737,7.759,61.593z" fill="#FFFFFF" fill-rule="evenodd" i:knockout="Off" stroke="#000000" stroke-miterlimit="10" stroke-width="0.036"/>
      <path clip-rule="evenodd" d="     M133.831,14.865c-0.973,0.36-1.656,1.116-2.053,2.412c-0.396,1.224-0.647,2.988-0.468,5.148c1.62-0.792,2.7-1.872,3.097-3.096     C134.803,18.033,134.659,16.593,133.831,14.865z" fill="#FFFFFF" fill-rule="evenodd" i:knockout="Off" stroke="#000000" stroke-miterlimit="10" stroke-width="0.036"/>
      <path clip-rule="evenodd" d="     M132.139,14.325c-3.924-1.656-7.74-3.348-11.988-4.932c-4.283-1.656-9.684-3.528-13.14-4.788     c-3.456-1.332-5.508-2.916-7.416-2.952c-2.016-0.144-2.448-0.828-4.356,2.268c-2.088,3.024-5.039,9.18-7.308,15.984     c-2.231,6.732-4.212,14.652-5.939,24.192c0.071,1.044,0.287,1.728,1.044,2.196c0.575,0.396,1.691,0.54,2.951,0.432     c0.54-2.196,1.332-5.328,2.521-9.252c1.116-4.032,2.196-9.972,4.212-14.616c1.872-4.68,4.356-9.216,7.308-13.464     c-1.512-0.324-2.483-0.828-3.06-1.116c-0.576-0.468-0.792-1.224-0.252-1.152c0.432,0.108,1.512,0.468,3.096,1.476     c-0.216-1.44-0.288-2.34-0.216-2.844c0-0.576,0.324-0.396,0.576,0c0.144,0.396,0.324,1.188,0.54,2.376     c2.016-1.584,3.168-2.34,3.312-2.268c0.145,0.036-0.611,0.864-2.268,2.628c-0.072,0.864,2.34,2.34,7.092,4.572     c4.824,2.196,11.844,5.004,21.456,8.568c-0.18-2.124-0.108-3.852,0.216-5.04C130.807,15.333,131.347,14.577,132.139,14.325z" fill="#FFFFFF" fill-rule="evenodd" i:knockout="Off" stroke="#000000" stroke-miterlimit="10" stroke-width="0.036"/>
      <path clip-rule="evenodd" d="     M39.295,84.201c-0.972,1.296,4.716-0.504,17.208-5.4c12.527-4.968,31.392-12.852,57.42-24.048     c0.144,25.956,0.144,47.627,0,66.276c-0.18,18.54-0.504,32.94-0.972,44.172c-18.036,8.676-32.725,15.192-45.181,20.124     c-12.42,4.86-21.636,7.704-28.476,8.82c1.008-28.656,1.404-51.732,1.476-70.2C40.699,105.441,40.303,92.517,39.295,84.201z" fill="#FFFFFF" fill-rule="evenodd" i:knockout="Off" stroke="#000000" stroke-miterlimit="10" stroke-width="0.036"/>
      <path clip-rule="evenodd" d="     M35.875,87.153c-1.008,1.332-3.132,3.456-6.372,6.372c-3.384,2.916-7.632,6.372-13.284,10.8c-1.656-3.528-3.312-7.812-5.4-13.248     s-4.32-11.772-6.84-19.152c1.368,12.672,2.016,26.964,1.944,43.704c-0.072,16.74-0.936,35.064-2.448,55.944     c7.704,5.437,14.148,9.972,19.62,13.752c5.436,3.78,9.648,6.624,12.78,8.82c1.26-12.744,1.908-27.685,1.944-45.648     C37.783,130.39,37.135,110.445,35.875,87.153z" fill="#FFFFFF" fill-rule="evenodd" i:knockout="Off" stroke="#000000" stroke-miterlimit="10" stroke-width="0.036"/>
      <path clip-rule="evenodd" d="     M74.287,100.833l-0.181-0.036l-0.18-0.035h-0.216h-0.216l-0.217-0.036l-0.18-0.036l-0.18-0.036h-0.252l-0.181,0.072h-0.252     l-0.18-0.036l-0.252,0.072l-0.18-0.036l-0.252,0.107h-0.252l-0.181,0.072l-0.216,0.072h-0.252l-0.252,0.071l-0.252,0.108     l-0.252,0.072l-0.252,0.107l-0.252,0.072l-0.252,0.108l-0.216,0.071l-0.252,0.108l-0.252,0.072l-0.324,0.107l-0.252,0.181     l-0.216,0.107l-0.324,0.108l-0.252,0.18l-0.324,0.108l-0.252,0.18l-0.288,0.108l-0.324,0.216l-0.288,0.107l-0.324,0.217     l-0.288,0.216l-0.324,0.107l-0.324,0.217l-0.36,0.216l-0.324,0.107l-0.288,0.217l-0.36,0.252l-0.324,0.216l-0.36,0.216     l-0.324,0.216l-0.36,0.216l-0.324,0.217l-0.36,0.323l-0.324,0.216l-0.324,0.324l-0.36,0.216l-0.324,0.324l-0.288,0.324     l-0.324,0.288l-0.36,0.359l-0.324,0.288l-0.324,0.324l-0.216,0.396l-0.324,0.288l-0.324,0.432l-0.288,0.396l-0.252,0.396     l-0.324,0.396l-0.252,0.396l-0.324,0.54l-0.252,0.36l-0.288,0.54l-0.324,0.504l-0.252,0.396l-0.324,0.504l-0.252,0.504     l-0.324,0.54l-0.252,0.469l-0.252,0.611l-0.288,0.504l-0.252,0.612l-0.288,0.504l-0.252,0.576l-0.252,0.612l-0.252,0.504     l-0.252,0.576l-0.252,0.72l-0.18,0.576l-0.252,0.576l-0.216,0.611l-0.18,0.648l-0.18,0.684l-0.216,0.576l-0.18,0.684l-0.18,0.685     l-0.144,0.647l-0.144,0.685l-0.108,0.647l-0.144,0.756l-0.144,0.648l-0.108,0.756l-0.144,0.756l-0.072,0.756l-0.144,0.757     l-0.072,0.72l-0.072,0.864l-0.072,0.72l-0.072,0.828l-0.072,0.863l-0.072,0.721l-0.072,0.828v0.827l-0.072,0.828v0.828     l-0.036,0.9v0.828v0.792v0.828l0.036,0.863v0.828l0.036,0.792l0.072,0.864l0.036,0.792l0.036,0.792l0.072,0.9l0.108,0.72     l0.108,0.756l0.108,0.756l0.144,0.756l0.108,0.864l0.18,0.72l0.18,0.721l0.108,0.863l0.252,0.685l0.144,0.828l0.18,0.827     l0.252,0.792l0.252,0.792l0.216,0.792l0.252,0.792l0.288,0.757l0.252,0.792l0.324,0.756l0.288,0.756l0.288,0.756l0.324,0.756     l0.288,0.756l0.324,0.648l0.36,0.72l0.324,0.612l0.36,0.72l0.36,0.612l0.324,0.647l0.36,0.612l0.36,0.504l0.432,0.576     l0.396,0.504l0.36,0.433l0.36,0.504l0.432,0.359l0.396,0.396l0.36,0.432l0.432,0.252l0.432,0.288l0.396,0.288l0.504,0.216     l0.432,0.181l0.432,0.18l0.432,0.144l0.504,0.145l0.504,0.036l0.432,0.18h0.504l0.504,0.036l0.504,0.036l0.504-0.072l0.504,0.036     l0.504-0.072l0.576-0.108l0.504,0.036l0.504-0.144l0.576-0.108l0.504-0.071l0.504-0.072l0.576-0.216l0.504-0.145l0.54-0.107     l0.504-0.181l0.54-0.18l0.54-0.18l0.504-0.181l0.504-0.18l0.504-0.18l0.54-0.145l0.504-0.288l0.504-0.144l0.54-0.324l0.504-0.144     l0.54-0.288l0.54-0.288l0.504-0.288l0.504-0.252l0.576-0.396l0.504-0.252l0.576-0.323l0.504-0.36l0.504-0.36l0.576-0.396     l0.504-0.36l0.576-0.359l0.504-0.36l0.504-0.36l0.504-0.359l0.576-0.505l0.504-0.359l0.504-0.433l0.504-0.468l0.505-0.432     l0.468-0.324l0.504-0.54l0.504-0.468l0.432-0.396l0.504-0.468l0.433-0.396l0.468-0.504l0.432-0.433l0.433-0.504l0.468-0.504     l0.432-0.504l0.36-0.468l0.468-0.504l0.433-0.504l0.359-0.469l0.396-0.468l0.432-0.576l0.396-0.468l0.359-0.576l0.396-0.468     l0.432-0.576l0.396-0.54l0.288-0.54l0.396-0.54l0.36-0.576l0.396-0.54l0.288-0.611l0.396-0.54l0.323-0.612l0.288-0.54     l0.324-0.612l0.324-0.611l0.324-0.576l0.288-0.612l0.323-0.611l0.252-0.576l0.324-0.612l0.252-0.576l0.288-0.684l0.252-0.576     l0.252-0.648l0.252-0.575l0.252-0.648l0.181-0.647l0.252-0.648l0.252-0.756l0.18-0.612l0.216-0.612l0.216-0.756l0.217-0.611     l0.18-0.721l0.18-0.72l0.181-0.72l0.18-0.685l0.144-0.611l0.181-0.792l0.107-0.685l0.181-0.684l0.144-0.685l0.108-0.684     l0.107-0.684l0.145-0.757l0.071-0.647l0.108-0.685l0.072-0.72l0.107-0.684l0.072-0.648l0.036-0.756v-0.612l0.072-0.72     l0.035-0.647v-0.612v-0.72v-0.612v-0.72l-0.071-0.685v-0.684l-0.072-0.685l-0.072-0.684l-0.036-0.684l-0.071-0.685l-0.072-0.684     l-0.144-0.721l-0.072-0.684l-0.108-0.648l-0.144-0.756l-0.108-0.647l-0.144-0.685l-0.108-0.647l-0.144-0.648l-0.108-0.647     l-0.216-0.648l-0.108-0.647l-0.216-0.648l-0.18-0.612l-0.181-0.54l-0.144-0.684l-0.18-0.54l-0.181-0.54l-0.252-0.54l-0.18-0.468     l-0.216-0.54l-0.18-0.468l-0.253-0.433l-0.18-0.468l-0.252-0.324l-0.18-0.468l-0.252-0.359l-0.252-0.433l-0.252-0.359     l-0.252-0.36l-0.253-0.252l-0.323-0.324l-0.252-0.36l-0.216-0.252l-0.324-0.252l-0.324-0.324l-0.252-0.288l-0.288-0.216     l-0.324-0.252l-0.324-0.144l-0.288-0.252l-0.323-0.252l-0.288-0.144l-0.324-0.252l-0.36-0.144l-0.323-0.144l-0.324-0.18     l-0.36-0.108l-0.324-0.18l-0.287-0.144l-0.36-0.144l-0.324-0.144l-0.36-0.072l-0.323-0.144l-0.36-0.036l-0.324-0.18l-0.359-0.036     l-0.396-0.036l-0.288-0.072l-0.359-0.072l-0.396-0.036l-0.288-0.072l-0.396-0.036l-0.36-0.072l-0.36,0.036l-0.396-0.036     l-0.36,0.036l-0.359,0.036l-0.36-0.036l-0.396,0.036l-0.359,0.036l-0.433,0.072l-0.359,0.144l-0.396,0.036l-0.432,0.072     l-0.36,0.108l-0.359,0.036l-0.433,0.18l-0.396,0.108l-0.433,0.072l-0.432,0.144l-0.36,0.144l-0.432,0.18l-0.432,0.216     l-0.433,0.18l-0.432,0.144l-0.432,0.252v0v-0.18v-0.108l-0.072-0.072v-0.072v-0.216l-0.036-0.072v-0.072v-0.216v-0.072     l-0.072-0.072v-0.18v-0.108v-0.108v-0.18v-0.108v-0.072v-0.18v-0.108v-0.108v-0.18v-0.072v-0.216v-0.072v-0.18v-0.108v-0.18     v-0.108v-0.18v-0.108l0.072-0.216v-0.072v-0.18v-0.108v-0.18l0.072-0.144v-0.18v-0.072l0.036-0.216v-0.108v-0.18l0.071-0.216     v-0.072l0.072-0.216v-0.216l0.072-0.108v-0.18v-0.108l0.036-0.18l0.071-0.216v-0.108l0.072-0.216v-0.18l0.072-0.108l0.036-0.216     v-0.18l0.071-0.216l0.072-0.108v-0.18l0.036-0.216l0.072-0.216l0.071-0.108v-0.18l0.072-0.216l0.036-0.216v-0.108l0.072-0.108     v-0.072v-0.108v-0.108v-0.072v-0.108v-0.072v-0.108v-0.108v-0.072v-0.108v-0.072v-0.108l-0.036-0.072v-0.108l-0.072-0.072v-0.072     v-0.108l-0.072-0.072v-0.108l-0.071-0.072l-0.036,0.036v-0.108l-0.072-0.072l-0.072-0.072l-0.035-0.072l-0.072-0.072     l-0.072-0.072l-0.036,0.036l-0.072-0.072l-0.071-0.072l-0.072-0.072l-0.036-0.072l-0.144,0.036l-0.036-0.072l-0.145-0.072     l-0.035-0.072l-0.145-0.036H80.19l-0.107-0.036l-0.108-0.072l-0.072-0.072l-0.144,0.036l-0.108-0.036l-0.107-0.072l-0.145,0.036     l-0.071-0.072l-0.108-0.036l-0.108,0.036l-0.144-0.072l-0.108,0.072l-0.071-0.072l-0.108,0.036h-0.072l-0.107-0.036h-0.072     l-0.144,0.036l-0.036,0.036l-0.145,0.036l-0.036,0.036h-0.071l-0.072,0.036h-0.036l-0.072,0.036l-0.071,0.108l-0.072,0.036     l-0.036,0.108h-0.072l-0.071,0.036l-0.072,0.108l-0.036,0.108l-0.072,0.144l-0.071,0.108v0.072l-0.036,0.036v0.108l-0.072,0.108     v0.072l-0.072,0.144v0.072v0.108l-0.072,0.108v0.108v0.072v0.216l-0.035,0.108v0.108v0.072v0.18v0.108v0.18l0.035,0.18v0.18     l0.072,0.18v0.18l0.072,0.18v0.18l0.036,0.072v0.216v0.18l0.072,0.18v0.18l0.071,0.18v0.18v0.18l0.036,0.18v0.18l0.072,0.18v0.18     v0.18l0.036,0.18v0.108v0.18l0.071,0.144v0.216v0.18l0.072,0.18v0.18v0.18l0.072,0.18l-0.036,0.18v0.216l0.072,0.144v0.18v0.216     v0.18l0.071,0.18v0.18v0.18l0.036,0.18v0.18v0.18v0.216l0.072,0.144v0.18v0.216v0.18l0.072,0.18v0.18v0.18v0.216v0.18     l0.036,0.144v0.216v0.18v0.18v0.18l0.071,0.18v0.18v0.216v0.18v0.18v0.18l0.036,0.18l-0.18-0.396l-0.108-0.54l-0.107-0.504     l-0.181-0.504l-0.144-0.432l-0.18-0.504l-0.181-0.432l-0.18-0.396l-0.108-0.54l-0.216-0.396l-0.216-0.396l-0.18-0.396     l-0.216-0.432l-0.217-0.396l-0.18-0.396l-0.252-0.396l-0.18-0.324l-0.252-0.396l-0.252-0.396l-0.252-0.288l-0.217-0.396     l-0.323-0.288l-0.253-0.288l-0.216-0.396l-0.323-0.288l-0.253-0.288l-0.287-0.288l-0.324-0.288l-0.288-0.288l-0.324-0.252     l-0.288-0.288l-0.324-0.18l-0.359-0.288l-0.288-0.288l-0.396-0.18l-0.359-0.252l-0.36-0.252l-0.36-0.18l-0.36-0.18l-0.432-0.252     l-0.36-0.18l-0.432-0.144l-0.36-0.18l-0.432-0.252l-0.432-0.144l-0.432-0.144l-0.432-0.072l-0.432-0.144l-0.432-0.18     l-0.468-0.036l-0.432-0.144l-0.432-0.072l-0.504-0.144l-0.432-0.072l-0.396-0.036l-0.504-0.036l-0.432-0.072l-0.432-0.072     l-0.468-0.036l-0.432,0.036l-0.432-0.072l-0.432,0.036l-0.504,0.036l-0.432-0.036h-0.432l-0.396,0.144l-0.432,0.036l-0.432,0.036     l-0.432,0.036l-0.504,0.144l-0.432,0.144l-0.432,0.036l-0.432,0.108l-0.396,0.144l-0.432,0.144l-0.504,0.144l-0.432,0.144     l-0.432,0.216l-0.432,0.144l-0.504,0.252l-0.432,0.144l-0.396,0.216l-0.432,0.252l-0.504,0.252l-0.432,0.216l-0.432,0.252     l-0.504,0.252l-0.432,0.216l-0.468,0.36l-0.432,0.252l-0.432,0.324l-0.504,0.252l-0.432,0.324l-0.504,0.36l-0.432,0.36     l-0.504,0.36l0.252,0.432l0.288,0.396l0.252,0.468l0.252,0.432l0.288,0.288l0.252,0.432l0.288,0.432l0.252,0.324l0.288,0.396     l0.252,0.36l0.288,0.288l0.288,0.396l0.324,0.324l0.288,0.288l0.252,0.36l0.288,0.288l0.324,0.324l0.288,0.288l0.324,0.216     l0.36,0.252l0.288,0.324l0.324,0.18l0.288,0.324l0.36,0.18l0.324,0.18l0.36,0.288l0.288,0.216l0.36,0.18l0.324,0.18l0.36,0.18     l0.36,0.18l0.36,0.18l0.396,0.18l0.36,0.144l0.36,0.18l0.36,0.072l0.36,0.18l0.432,0.072l0.36,0.072l0.432,0.036l0.396,0.072     l0.432,0.036l0.432,0.072l0.396,0.036l0.432,0.036l0.396,0.072l0.432,0.072l0.396-0.072l0.432,0.072l0.432,0.036l0.432-0.072     l0.432,0.072l0.432-0.072l0.432-0.036l0.396,0.072l0.432-0.072l0.396,0.036l0.432-0.036l0.396-0.036l0.432,0.036l0.36-0.036     l0.36-0.036l0.432,0.072l0.36-0.036l0.396-0.036l0.36,0.036h0.36l0.396-0.036l0.36-0.036l0.288-0.036l0.396-0.036l0.36,0.072     l0.36-0.036h0.324l0.36-0.036l0.323-0.036l0.36-0.108l0.36-0.036l0.323-0.036h0.288l0.396-0.036l0.288-0.036l0.359-0.108     l0.324-0.036h0.324h0.288l0.36-0.144l0.323-0.036l0.324-0.108h0.288l0.324-0.108l0.288-0.036l0.323-0.108h0.324l0.288-0.108     l0.324-0.036l-0.072,0.036l-0.072,0.036l-0.071,0.108l-0.108,0.036l-0.072,0.108l-0.035,0.036l-0.072,0.108l-0.072,0.036     l-0.072,0.108l-0.035,0.036l-0.145,0.144h-0.036l-0.072,0.144h-0.071l-0.072,0.108l-0.036,0.036l-0.072,0.108l-0.144,0.072     l-0.036,0.108H75.15l-0.071,0.144h-0.036l-0.072,0.145l-0.144,0.035l-0.036,0.108l-0.072,0.036l-0.072,0.107l-0.036,0.036     l-0.071,0.108h-0.072l-0.108,0.144L74.287,100.833z" fill-rule="evenodd" i:knockout="Off" stroke="#000000" stroke-miterlimit="10" stroke-width="0.036"/>
      <path clip-rule="evenodd" d="     M77.311,102.886l-0.071-0.108l-0.108-0.144l-0.072-0.072l-0.144-0.145l-0.108-0.036l-0.107-0.035l-0.145-0.145l-0.108-0.072     l-0.144-0.035l-0.108-0.036l-0.107-0.072l-0.145-0.145l-0.18-0.035l-0.108-0.036l-0.216-0.036l-0.107-0.036l-0.181-0.036     l-0.18-0.036l-0.144,0.072l-0.181-0.036l-0.18-0.036l-0.18-0.036h-0.181l-0.18,0.036h-0.252l-0.216-0.036l-0.181,0.072h-0.252     l-0.18,0.072h-0.216l-0.216,0.072h-0.252l-0.217,0.071h-0.252l-0.252,0.072H71.19l-0.323,0.108H70.65l-0.323,0.107h-0.252     l-0.288,0.108l-0.324,0.036l-0.324,0.107l-0.288,0.108h-0.324l-0.288,0.107l-0.324,0.108l-0.288,0.144h-0.324l-0.36,0.145     l-0.324,0.108l-0.324,0.216l-0.36,0.107l-0.288,0.108l-0.324,0.216l-0.324,0.108l-0.36,0.252l-0.324,0.216l-0.288,0.18     l-0.324,0.216l-0.288,0.217l-0.324,0.216l-0.324,0.324l-0.288,0.287l-0.324,0.324l-0.324,0.288l-0.288,0.324l-0.324,0.288     l-0.36,0.359l-0.324,0.396l-0.288,0.324l-0.324,0.396l-0.396,0.433l-0.288,0.432l-0.324,0.396l-0.36,0.433l-0.324,0.396     l-0.324,0.433l-0.288,0.504l-0.324,0.432l-0.36,0.54l-0.324,0.396l-0.324,0.504l-0.324,0.54l-0.288,0.504l-0.252,0.504     l-0.324,0.504l-0.324,0.504l-0.252,0.504l-0.252,0.612l-0.324,0.504l-0.252,0.612l-0.252,0.468l-0.252,0.612l-0.18,0.575     l-0.252,0.504l-0.18,0.576l-0.252,0.576l-0.216,0.576l-0.18,0.684l-0.18,0.576l-0.216,0.685l-0.18,0.575l-0.216,0.685     l-0.18,0.684l-0.18,0.648l-0.144,0.684l-0.18,0.685l-0.144,0.647l-0.18,0.685l-0.144,0.647l-0.144,0.756l-0.108,0.648     l-0.144,0.647l-0.144,0.792l-0.108,0.648l-0.072,0.72l-0.144,0.648l-0.072,0.756l-0.144,0.647l-0.072,0.757l-0.072,0.611     l-0.072,0.756v0.576l-0.072,0.756v0.612l-0.072,0.72v0.612v0.72l-0.036,0.612l0.072,0.685v0.611l-0.036,0.685l0.072,0.575     l0.036,0.685l0.072,0.576v0.72l0.108,0.54l0.072,0.684l0.036,0.685l0.108,0.576l0.072,0.647l0.108,0.648l0.108,0.575l0.072,0.685     l0.108,0.647l0.18,0.504l0.108,0.648l0.144,0.54l0.18,0.648l0.108,0.647l0.18,0.504l0.18,0.612l0.18,0.54l0.18,0.612l0.18,0.611     l0.252,0.468l0.18,0.648l0.18,0.504l0.216,0.576l0.252,0.468l0.252,0.612l0.18,0.504l0.252,0.576l0.252,0.576l0.216,0.575     l0.252,0.576l0.252,0.576l0.288,0.576l0.252,0.576l0.252,0.576l0.324,0.54l0.288,0.539l0.252,0.576l0.288,0.54l0.324,0.54     l0.36,0.504l0.324,0.433l0.36,0.504l0.396,0.432l0.288,0.504l0.432,0.396l0.396,0.288l0.432,0.396l0.36,0.396l0.432,0.252     l0.504,0.252l0.432,0.252l0.504,0.144l0.504,0.145l0.504,0.107l0.576,0.108h0.576h0.54l0.648-0.036l0.684-0.072l0.684-0.144     l0.72-0.072l0.684-0.18l0.756-0.181l0.756-0.216l0.756-0.18l0.828-0.252l0.756-0.288l0.828-0.324l0.792-0.359l0.828-0.324     l0.827-0.324l0.828-0.432l0.828-0.324l0.828-0.432l0.792-0.433l0.828-0.432l0.828-0.504l0.828-0.433l0.756-0.504l0.828-0.504     l0.756-0.504l0.684-0.54l0.756-0.504l0.721-0.54l0.684-0.54l0.648-0.504l0.611-0.612l0.648-0.54l0.576-0.54l0.611-0.72     l0.576-0.576l0.576-0.647l0.54-0.648l0.576-0.684l0.576-0.721l0.575-0.684l0.505-0.72l0.575-0.72l0.504-0.721l0.505-0.792     l0.504-0.828l0.504-0.684l0.504-0.828l0.432-0.756l0.504-0.792l0.433-0.864l0.432-0.756l0.468-0.864l0.36-0.72l0.432-0.828     l0.396-0.756l0.359-0.792l0.396-0.828l0.36-0.792l0.323-0.72l0.36-0.792l0.324-0.792l0.288-0.756l0.252-0.756l0.324-0.793     l0.252-0.72l0.18-0.72l0.252-0.756l0.18-0.792l0.252-0.828l0.181-0.828l0.144-0.756l0.18-0.792l0.108-0.756l0.144-0.792     l0.108-0.864l0.108-0.756l0.071-0.756l0.108-0.828l0.072-0.756l0.071-0.828l0.036-0.721l0.072-0.827l0.072-0.757l-0.036-0.792     l0.072-0.72v-0.72v-0.72v-0.721v-0.684v-0.72l-0.036-0.721v-0.684v-0.648l-0.036-0.575l-0.036-0.612l-0.036-0.612v-0.611     l-0.072-0.612l-0.071-0.576l-0.145-0.576l-0.071-0.612l-0.036-0.504l-0.145-0.54l-0.107-0.504l-0.072-0.576l-0.145-0.504     l-0.18-0.54l-0.108-0.468l-0.144-0.504l-0.144-0.468l-0.181-0.54l-0.18-0.396l-0.144-0.468l-0.181-0.468l-0.18-0.468l-0.18-0.468     l-0.181-0.36l-0.216-0.468l-0.18-0.36l-0.181-0.36l-0.252-0.468l-0.18-0.359l-0.216-0.36l-0.216-0.36l-0.217-0.396l-0.252-0.252     l-0.18-0.36l-0.252-0.288l-0.252-0.324l-0.252-0.288l-0.252-0.252l-0.216-0.252l-0.252-0.288l-0.252-0.251l-0.324-0.252     l-0.252-0.18l-0.252-0.252l-0.288-0.18l-0.324-0.216l-0.324-0.18l-0.216-0.18l-0.324-0.144l-0.323-0.144l-0.288-0.18     l-0.324-0.144l-0.324-0.144l-0.288-0.18l-0.324-0.072l-0.287-0.144l-0.324-0.072l-0.324-0.144l-0.288-0.072l-0.324-0.072     l-0.288-0.072l-0.323-0.144l-0.324-0.072l-0.288-0.072h-0.324l-0.288-0.072l-0.324-0.072l-0.323-0.072l-0.288,0.036l-0.252-0.108     l-0.324,0.036l-0.288-0.072h-0.324l-0.288,0.036l-0.323,0.036l-0.253-0.036l-0.287,0.036l-0.324,0.036h-0.324l-0.288,0.036     h-0.324l-0.288,0.108l-0.323,0.036l-0.252,0.072l-0.288,0.108l-0.324,0.036l-0.324,0.108l-0.288,0.108l-0.324,0.108l-0.287,0.108     l-0.324,0.144l-0.288,0.108l-0.324,0.18l-0.324,0.108l-0.288,0.144l-0.323,0.18l-0.288,0.108l-0.324,0.216v0l-0.072,0.108v0.108     v0.108l-0.072,0.108v0.072v0.108l-0.035,0.108v0.216v0.072l-0.072,0.108v0.108v0.108v0.072l-0.072,0.108v0.216v0.071v0.108     l-0.072,0.108v0.107v0.072v0.216v0.072v0.107l-0.035,0.108v0.18v0.108v0.107v0.072v0.181v0.107v0.108l-0.072,0.18v0.108v0.107     v0.18v0.108v0.072v0.18v0.108v0.107v0.181v0.071v0.217v0.071v0.108v0.18v0.108v0.18l0.072,0.072l-0.036,0.18v0.108v0.18v0.108     v0.18v0.108v0.18l0.071,0.072v0.18v0.107v0.181v0.072v0.216l0.072,0.144v0.108l0.18-0.18l0.181-0.145l0.18-0.18l0.18-0.145     l0.217-0.18l0.18-0.18l0.108-0.145l0.18-0.036l0.144-0.144l0.181-0.18l0.107-0.145l0.145-0.036l0.107-0.144l0.145-0.145     l0.107-0.035l0.145-0.145l0.107-0.072l0.145-0.107l0.036-0.036l0.144-0.036l0.036-0.144l0.144-0.036h0.072l0.036-0.036     l0.072-0.036l0.071-0.108l0.072-0.035h0.036l0.072-0.036l0.072-0.036v0.107l0.035-0.035h0.072v0.071l-0.072,0.036v0.072     l-0.035,0.144l-0.072,0.108v0.108h-0.072l-0.072,0.107l-0.036,0.145l-0.071,0.107l-0.072,0.108l-0.036,0.107l-0.144,0.145     l-0.072,0.144l-0.036,0.108l-0.072,0.107l-0.144,0.145l-0.036,0.107l-0.072,0.108l-0.071,0.144l-0.108,0.036l-0.072,0.108     l-0.071,0.144l-0.036,0.108l-0.072,0.107l-0.072,0.108l-0.072,0.036l-0.035,0.107l-0.072,0.108l-0.072,0.036l-0.072,0.144v0.072     l-0.035,0.036l-0.072,0.108v0.107l-0.072,0.108l-0.036,0.036v0.071l-0.071,0.108l-0.072,0.144l-0.072,0.108l-0.036,0.108     l-0.071,0.107l-0.072,0.036v0.108h-0.036l-0.072,0.144h-0.072l-0.071,0.144h-0.036l-0.072,0.036l-0.072,0.108l-0.071,0.036     l-0.036,0.036h-0.072l-0.072,0.036l-0.107,0.035l-0.072-0.071l-0.108,0.071h-0.071l-0.145-0.035l-0.107,0.035l-0.108-0.035     l-0.216-0.036l-0.108-0.036l-0.107-0.036l-0.217-0.036l-0.107-0.036l-0.18-0.036h-0.181l-0.144-0.071h-0.18l-0.108-0.072     l-0.18-0.108l-0.217-0.036l-0.107-0.036l-0.181-0.035l-0.144-0.108l-0.108-0.072l-0.18-0.036l-0.144-0.035l-0.108-0.036     l-0.144-0.036l-0.108-0.145l-0.072-0.071l-0.107,0.036l-0.072-0.072l-0.072-0.072l-0.036-0.072v-0.107l-0.071,0.036v-0.108     l-0.072,0.036v-0.108v-0.071v-0.108l0.072-0.036v-0.072l0.071-0.036l0.072-0.035l0.036-0.108h0.072l0.071-0.036l0.036-0.036     l0.145-0.036l0.072-0.107l0.035-0.036l0.145-0.036l0.036-0.036l0.144-0.036l0.108-0.071l0.144-0.036l0.108-0.036l0.144-0.036     l0.108-0.072l0.18,0.036l0.145-0.036l0.107-0.071v-0.072l-0.072-0.18l-0.035-0.072v-0.107l-0.072-0.072l-0.072-0.036v-0.108     l-0.036-0.18l-0.071-0.072v-0.071l-0.072-0.072l-0.036-0.072l-0.072-0.072v-0.18l-0.072-0.107l-0.071-0.036v-0.108l-0.036-0.072     l-0.072-0.18v-0.072l-0.072-0.072l-0.035-0.071v-0.108l-0.072-0.072l-0.072-0.18v-0.072l-0.036-0.071l-0.071-0.072l-0.072-0.072     v-0.107l-0.072-0.181L77.311,102.886z" fill="#FFFFFF" fill-rule="evenodd" i:knockout="Off" stroke="#000000" stroke-miterlimit="10" stroke-width="0.036"/>
      <path clip-rule="evenodd" d="     M78.858,104.001v-0.18v-0.108v-0.18v-0.18v-0.108v-0.18v-0.216v-0.072v-0.216v-0.181v-0.18v-0.107v-0.181v-0.18v-0.18v-0.217     v-0.18l-0.071-0.144v-0.217v-0.18v-0.18v-0.181v-0.216v-0.18v-0.18v-0.288l-0.036-0.18v-0.18v-0.18v-0.18v-0.288l-0.072-0.18     v-0.18v-0.288v-0.18V97.27l-0.072-0.288v-0.18v-0.288l-0.036-0.252v-0.288v-0.288v-0.288l-0.071-0.252v-0.288v-0.288     l-0.036-0.144v-0.288V93.85l-0.072-0.252V93.31v-0.288l-0.072-0.252v-0.288v-0.216l-0.035-0.252v-0.288v-0.18l-0.072-0.252     v-0.216v-0.252l-0.072-0.18v-0.18V90.25l-0.036-0.144V89.89v-0.18l-0.072-0.18v-0.18l-0.071-0.144v-0.216l-0.036-0.144v-0.108     l-0.072-0.18v-0.072l-0.072-0.18v-0.18l-0.035-0.072v-0.108v-0.18l-0.072-0.072v-0.216l-0.072-0.072v-0.072v-0.108l-0.036-0.072     v-0.108v-0.18v-0.072l-0.071-0.108v-0.072v-0.108v-0.072l0.071-0.144v-0.072v-0.108l0.036-0.108l0.072-0.108l0.072-0.036V85.75     h0.071l0.036-0.036h0.072v-0.108h0.072l0.035-0.036l0.072-0.036h0.072l0.072-0.036h0.036l0.071-0.036l0.072,0.072h0.036     l0.072-0.036h0.071l0.072-0.036l0.036-0.036l0.072,0.072h0.071l0.036-0.036l0.072,0.072h0.072l0.071-0.036l0.036,0.072h0.072     l0.072-0.036l0.036,0.072h0.071l0.072-0.036l0.036,0.072h0.072l0.144,0.036h0.036l0.072,0.072l0.071-0.036l0.036,0.072     l0.072-0.036l0.072,0.108l0.071-0.036l0.036,0.072l0.072,0.072h0.072l0.036,0.072l0.071,0.072l0.072-0.036l0.036,0.072     l0.072,0.072l0.071,0.072v0.108l0.072,0.072l0.036,0.072v0.072v0.108l0.072,0.072v0.108v0.072v0.108v0.18v0.108v0.072v0.216     v0.072v0.108v0.18l-0.072,0.108v0.108v0.18l-0.072,0.108v0.216l-0.036,0.18v0.108l-0.071,0.216v0.072l-0.072,0.216v0.18     l-0.072,0.216v0.108l-0.036,0.216v0.18l-0.071,0.216v0.18v0.18l-0.072,0.216v0.18l-0.072,0.216v0.18v0.216l-0.036,0.18v0.216     v0.252l-0.071,0.216v0.288v0.18l-0.072,0.216v0.288l-0.072,0.288v0.216v0.288l-0.036,0.18v0.288l-0.071,0.324v0.18v0.288     l-0.072,0.288v0.288v0.18l-0.072,0.324v0.288v0.18l-0.072,0.288v0.288v0.288v0.18v0.288l-0.036,0.216v0.288v0.18v0.288v0.18     l-0.035,0.288v0.18v0.288v0.216v0.18v0.288v0.181l0.071,0.144v0.288v0.216v0.181v0.287v0.181v0.18l0.072,0.18v0.288v0.181v0.18     l0.036,0.252v0.216v0.18l0.072,0.145v0.216v0.288l0.071,0.144v0.181l0.036,0.18v0.18l0.072,0.252v0.217l0.072,0.144l-0.072-0.072     l-0.072-0.071v-0.072l-0.071-0.072l-0.036-0.072v-0.107l-0.072-0.072v-0.108l-0.072-0.035l-0.036-0.072v-0.108l-0.071-0.071     v-0.108l-0.072-0.072l-0.036-0.072v-0.071l-0.072-0.072l-0.071-0.072l-0.072-0.071v-0.108l-0.036-0.072l-0.072-0.072v-0.071     l-0.071-0.072v-0.108l-0.036-0.071l-0.072-0.072v-0.108l-0.072-0.071l-0.036-0.036V104.001z" fill="#FFFFFF" fill-rule="evenodd" i:knockout="Off" stroke="#000000" stroke-miterlimit="10" stroke-width="0.036"/>
      <path clip-rule="evenodd" d="     M76.591,97.27l-0.072-0.36l-0.072-0.288l-0.035-0.36l-0.072-0.36l-0.072-0.36l-0.107-0.216l-0.072-0.36l-0.108-0.36l-0.071-0.252     l-0.108-0.324l-0.108-0.252l-0.144-0.36l-0.108-0.324l-0.144-0.252l-0.18-0.216l-0.108-0.324l-0.18-0.216l-0.181-0.324     l-0.144-0.252l-0.18-0.324l-0.181-0.216l-0.18-0.216l-0.252-0.324l-0.181-0.216l-0.18-0.216l-0.252-0.216l-0.216-0.288     l-0.252-0.216l-0.18-0.216l-0.324-0.18l-0.252-0.216l-0.216-0.216l-0.252-0.288l-0.324-0.216l-0.288-0.18l-0.324-0.18     l-0.288-0.288l-0.324-0.18l-0.288-0.18l-0.323-0.288l-0.36-0.18l-0.36-0.18l-0.324-0.18l-0.36-0.252l-0.36-0.18l-0.36-0.18     l-0.36-0.18l-0.432-0.144l-0.36-0.18l-0.396-0.18l-0.396-0.144l-0.396-0.18l-0.432-0.144l-0.396-0.072l-0.396-0.18l-0.432-0.036     l-0.396-0.072l-0.432-0.18l-0.36-0.072l-0.432-0.072l-0.432,0.036l-0.432-0.036l-0.432-0.072l-0.432,0.036l-0.432,0.036     l-0.432,0.036l-0.432,0.036l-0.432,0.036l-0.432,0.036l-0.396,0.036l-0.432,0.036l-0.504,0.144l-0.432,0.036l-0.432,0.144     l-0.468,0.036l-0.432,0.144l-0.504,0.144l-0.432,0.144l-0.504,0.144l-0.432,0.144l-0.468,0.252l-0.504,0.144l-0.432,0.144     l-0.468,0.252l-0.504,0.144l-0.504,0.252l-0.468,0.252l-0.504,0.252l-0.504,0.252l-0.468,0.252l-0.504,0.288l-0.576,0.36     l-0.468,0.252l-0.504,0.252l-0.54,0.396l-0.504,0.36l0.36-0.036l0.432-0.036l0.432-0.036h0.36l0.432-0.036l0.432-0.036h0.36     l0.432-0.036l0.36-0.036l0.432,0.072l0.432-0.036h0.36l0.432-0.036l0.36,0.072l0.432-0.036l0.36,0.108l0.432-0.036l0.432,0.036     h0.36l0.432,0.072l0.396-0.036l0.396,0.072l0.396,0.072l0.396-0.036l0.432,0.072l0.396,0.072l0.396,0.072l0.396-0.036     l0.432,0.072l0.36,0.072l0.432,0.072l0.432,0.036l0.36,0.108l0.432,0.036l0.432,0.072l0.396,0.144l0.432,0.072l0.432,0.036     l0.432,0.18l0.432,0.036l0.432,0.144l0.432,0.072l0.432,0.144l0.432,0.072l0.432,0.144l0.396,0.036l0.432,0.18l0.432,0.144     l0.432,0.036l0.432,0.144l0.36,0.18l0.432,0.036l0.432,0.18l0.36,0.144l0.396,0.072l0.432,0.144l0.36,0.18l0.36,0.072l0.36,0.144     l0.324,0.108l0.36,0.144l0.324,0.108l0.288,0.072l0.323,0.18l0.288,0.108l0.324,0.072l0.288,0.18l0.252,0.108l0.252,0.108     l0.288,0.108l0.252,0.18l0.252,0.108l0.252,0.108l0.252,0.108l0.18,0.144l0.252,0.108l0.181,0.108l0.252,0.108l0.18,0.216     l0.181,0.144l0.18,0.108l0.18,0.144l0.18,0.108l0.181,0.144l0.18,0.108l0.145,0.144l0.18,0.144l0.107,0.144l0.145,0.144     l0.108,0.144l0.107,0.144l0.145,0.144l0.107,0.144l0.145,0.072l0.107,0.144L76.591,97.27z" fill="#FFFFFF" fill-rule="evenodd" i:knockout="Off" stroke="#000000" stroke-miterlimit="10" stroke-width="0.036"/>
      <path clip-rule="evenodd" d="     M75.835,97.701l-0.181-0.108l-0.107-0.072l-0.18-0.108L75.15,97.27l-0.107-0.144l-0.181-0.108l-0.18-0.144l-0.18-0.108     l-0.18-0.144l-0.217-0.108l-0.18-0.144l-0.18-0.108l-0.181-0.144h-0.252l-0.18-0.144l-0.18-0.108l-0.252-0.108l-0.181-0.144     l-0.18-0.108l-0.252-0.108l-0.252-0.108l-0.18-0.108l-0.252-0.108l-0.217-0.108l-0.252-0.108l-0.252-0.108l-0.252-0.108     l-0.252-0.108l-0.252-0.108l-0.216-0.108l-0.252-0.108l-0.252-0.108l-0.324-0.108l-0.216-0.108l-0.252-0.108l-0.324-0.072     l-0.252-0.108l-0.288-0.108l-0.252-0.108l-0.288-0.072l-0.324-0.108l-0.252-0.108l-0.288-0.108l-0.324-0.072l-0.288-0.108     l-0.324-0.072l-0.288-0.108l-0.324-0.072l-0.288-0.108l-0.324-0.072l-0.36-0.072l-0.324-0.108l-0.288-0.072l-0.36-0.108     l-0.324-0.072l-0.36-0.072l-0.288-0.108l-0.396-0.072l-0.36-0.072l-0.36-0.072l-0.36-0.072l-0.396-0.072l-0.36-0.072l-0.36-0.072     l-0.36-0.108l-0.36-0.072l-0.432,0.072l-0.396-0.108l-0.36-0.072l-0.432-0.036l-0.36-0.108l-0.432-0.036l-0.432,0.036     l-0.36-0.072l-0.432-0.072l-0.432-0.072l-0.432,0.036l-0.396-0.036l-0.432-0.072l-0.432-0.072l-0.432,0.036l-0.432-0.036     l-0.504-0.072l-0.432,0.036l-0.432-0.036l-0.468-0.072l-0.432,0.072l-0.504-0.072l-0.432-0.072l-0.468,0.072l-0.504-0.036     l-0.468-0.072l-0.504,0.072l-0.468-0.036l-0.504-0.072l-0.504,0.072l0.324,0.216l0.288,0.288l0.252,0.252l0.288,0.288     l0.324,0.216l0.288,0.288l0.288,0.216l0.252,0.216l0.324,0.324l0.288,0.216l0.288,0.18l0.252,0.252l0.324,0.18l0.288,0.216     l0.324,0.216l0.216,0.216l0.324,0.18l0.288,0.216l0.324,0.108l0.216,0.216l0.324,0.18l0.288,0.108l0.252,0.216l0.288,0.216     l0.324,0.108l0.288,0.18l0.252,0.108l0.324,0.216l0.288,0.108l0.324,0.072l0.216,0.216l0.324,0.108l0.288,0.108l0.324,0.072     l0.252,0.144l0.288,0.072l0.252,0.108l0.288,0.108l0.252,0.108h0.324l0.252,0.108l0.288,0.108h0.252l0.252,0.144l0.288-0.036     l0.252,0.144l0.324-0.036l0.216,0.036l0.324,0.072l0.252,0.036l0.288,0.072l0.252,0.036l0.324-0.036l0.216,0.036l0.324,0.072     h0.324h0.288l0.324,0.072h0.288h0.324h0.288l0.324,0.072h0.288l0.36,0.072l0.324-0.036h0.36l0.396,0.072l0.288-0.036l0.36-0.036     l0.396,0.072h0.288l0.36-0.036l0.396,0.072l0.36-0.036l0.36-0.036l0.396,0.072l0.36-0.036l0.36-0.036l0.36-0.036l0.396,0.072     l0.36-0.036l0.432-0.072l0.36-0.036l0.36,0.072l0.432-0.072l0.396-0.036l0.432-0.036l0.36-0.036l0.432-0.072l0.432,0.036     l0.36-0.036l0.432-0.036l0.433-0.072l0.432-0.072l0.432-0.036L75.835,97.701z" fill="#FFFFFF" fill-rule="evenodd" i:knockout="Off" stroke="#000000" stroke-miterlimit="10" stroke-width="0.036"/>
    </g>
  </g>
</svg>
