<?xml version="1.0" encoding="UTF-8" standalone="no"?>
<!-- Generator: Adobe Illustrator 12.0.0, SVG Export Plug-In . SVG Version: 6.00 Build 51448)  --><svg height="172.001" id="Layer_1" inkscape:version="0.40+cvs" sodipodi:docbase="F:\openclip\svg3" sodipodi:docname="La prugna.svg" sodipodi:version="0.32" style="overflow:visible;enable-background:new 0 0 166.168 172.001;" version="1.0" viewBox="0 0 166.168 172.001" width="166.168" xml:space="preserve" xmlns="http://www.w3.org/2000/svg" xmlns:cc="http://web.resource.org/cc/" xmlns:dc="http://purl.org/dc/elements/1.1/" xmlns:inkscape="http://www.inkscape.org/namespaces/inkscape" xmlns:rdf="http://www.w3.org/1999/02/22-rdf-syntax-ns#" xmlns:sodipodi="http://inkscape.sourceforge.net/DTD/sodipodi-0.dtd" xmlns:svg="http://www.w3.org/2000/svg" xmlns:xml="http://www.w3.org/XML/1998/namespace"><metadata><rdf:RDF xmlns:cc="http://web.resource.org/cc/" xmlns:dc="http://purl.org/dc/elements/1.1/" xmlns:rdf="http://www.w3.org/1999/02/22-rdf-syntax-ns#"><cc:Work rdf:about=""><dc:title>La prugna</dc:title><dc:description></dc:description><dc:subject><rdf:Bag><rdf:li>food</rdf:li><rdf:li>fruit</rdf:li></rdf:Bag></dc:subject><dc:publisher><cc:Agent rdf:about="http://www.openclipart.org"><dc:title>Architetto Francesco Rollandin</dc:title></cc:Agent></dc:publisher><dc:creator><cc:Agent><dc:title>Architetto Francesco Rollandin</dc:title></cc:Agent></dc:creator><dc:rights><cc:Agent><dc:title>Architetto Francesco Rollandin</dc:title></cc:Agent></dc:rights><dc:date></dc:date><dc:format>image/svg+xml</dc:format><dc:type rdf:resource="http://purl.org/dc/dcmitype/StillImage"/><cc:license rdf:resource="http://web.resource.org/cc/PublicDomain"/><dc:language>en</dc:language></cc:Work><cc:License rdf:about="http://web.resource.org/cc/PublicDomain"><cc:permits rdf:resource="http://web.resource.org/cc/Reproduction"/><cc:permits rdf:resource="http://web.resource.org/cc/Distribution"/><cc:permits rdf:resource="http://web.resource.org/cc/DerivativeWorks"/></cc:License></rdf:RDF></metadata>
<defs id="defs236"></defs>
<sodipodi:namedview bordercolor="#666666" borderopacity="1.0" id="base" inkscape:current-layer="Layer_1" inkscape:cx="83.084001" inkscape:cy="86.000504" inkscape:pageopacity="0.0" inkscape:pageshadow="2" inkscape:window-height="540" inkscape:window-width="640" inkscape:window-x="110" inkscape:window-y="110" inkscape:zoom="2.1976616" pagecolor="#ffffff"></sodipodi:namedview>

<g id="g3">
	<path d="M166.167,9.102c-5.043-3.74-10.967,1.966-16.398,1.15   c-5.311-0.797-9.039-4.607-14.9-4.824c-4.736-0.175-10.178,0.749-14.75-0.776c-2.607-0.87-4.369-3.02-6.701-4.351   c-0.545-0.312-4.014,1.139-5.25,1.051c-2.188-0.157-4.273-1.406-6.5-1.351c-3.543,0.088-6.408,2.506-9.898,3.4   c-7.781,1.993-17.965,1.767-25.601-0.8c1.172,5.517,0.105,7.721,5.7,7.9c4.205,0.134,8.513,0.119,12.7-0.3   c5.015-0.502,9.784-0.905,14.599-1.6c3.57-0.515,6.564,0.676,9.602,2.4c3.801,2.158,5.322,2.571,9.898,2   c2.006-0.25,7.646-0.807,8.801,1.5c0.9,1.797-0.656,3.957-2.4,4.6c-4.031,1.487-11.016-1.926-14.645-3.308   c-2.996-1.141-5.98-2.339-9.051-3.274c-4.613-1.404-8.496-0.323-13.253,0.382c-13.136,1.946-25.423,8.593-34.436,18.733   c-4.306,4.845-6.014,11.741-8.315,17.667c-0.568-9.558-2.072-25.081,8.5-28.25c5.723-1.716,7.273-11.002,14-10.45   c-1.811-8.522-1.046-9.535-8.552-6.833C52.97,6.053,46.047,1.917,39.694,4.361C33.042,6.92,28.066,3.542,21.568,2.602   c-7.08-1.024-10.809,4.069-17.05,4.55c-0.973,0.075-3.816-0.403-4.45,0.85c-0.557,1.103,2.446,1.571,3.5,2.45   c4.01,3.344,4.014,3.261,8.45,0.6c2.595-1.556,5.672-1.928,8.649-1.85c4.13,0.108,6.156,2.319,9.9,3.3   c7.05,1.846,14.296-3.566,21.1,0.3c-3.378,3.218-7.452,5.992-9.799,10.1c-2.738,4.792-1.074,8.114-7,3.1   c-3.315,4.91-7.146,8.572-9.4,14.95c-2.51,7.106,0.678,12.487-0.05,19c-0.065,0.586,3.188,10.333,3.6,10.45   c2.411,0.688,3.986,5.37,2.15,7.1c0.4,0.1,0.8,0.2,1.2,0.3c-8.525,3.191-18.803,12.239-21.8,21c0.1-0.033,0.133,0,0.1,0.1   c-0.125,0.07-0.132-0.305-0.199-0.299c-6.136,11.615-5.121,28.91-1.601,41.199c2.108,7.359,5.865,15.324,10.7,21.301   c3.06,3.781,7.448,4.688,11.55,7.148c13.047,7.832,34.486,2.047,46.351-5.049c6.261-3.744,12.905-8.107,17.499-13.85   c5.125-6.406,5.949-13.264,7.303-21.047c1.4-8.041,7.559-6.004,14.447-8.654c7.428-2.857,13.508-7.207,19.117-12.816   c11.672-11.674,16.428-25.028,17.008-41.307c0.281-7.926-1.154-14.875-4.375-22.126c-3.258-7.335-9.477-10.737-14.6-16.3   c-1.955-2.123-3.59-4.176-0.201-6.55c6.094-4.266,10.428-3.28,17.4-3.15c5.369,0.1,8.113-2.399,12.5-3.4   c-0.262-0.28-0.5-0.538-0.799-0.8C164.601,12.288,165.868,11.085,166.167,9.102" id="path5" style="fill-rule:evenodd;clip-rule:evenodd;fill:#0A192E;"></path>

	<path d="M114.368,3.102c1.418,1.787,3.469,2.759,5.5,3.7c-1.736,3.263-5.904,4.616-9.4,3.6   c-3.068-0.892-4.488-3.715-8.301-3.574c-3.596,0.133-6.955,0.973-10.5,1.474c-9.516,1.345-23.576-3.075-31.299,3.2   c-2.134,1.734-3.611,4.447-5.7,5.6c-1.277,0.705-3.276,0.68-4.699,1.4c-5.032,2.544-6.732,8.525-7.451,13.8   c-0.591,4.338-1.493,9.732-0.55,13.5c0.614,2.455,0.747,6.686,0.6,9c-3.486-10.22-3.436-23.115,2.711-32.13   c1.638-2.403,3.762-4.509,5.989-6.37c1.308-1.093,6.299-3.291,6.899-4.6c1.27-2.77-1.125-3.514-4.1-3.6   c-3.702-0.107-6.842,1.297-10.7,1.1c-3.373-0.172-6.621,1.028-9.899,0.9c-3.524-0.138-7.386-1.9-10.801-2.9   c-1.78-0.521-4.171-1.835-5.88-0.938C14.42,7.506,7.761,13.02,6.269,9.402c2.061-0.445,4.655-1.327,6.05-3   c3.022-3.627,11.371-0.641,14.95,0.3c8.281,2.177,15.395-0.26,23.7,0.4c3.202,0.254,6.465,0.434,9.6-0.35   c4.272-1.068,4.365-2.333,8.85-0.75c5.693,2.01,10.904,0.569,16.649,0.4c2.398-0.07,4.662,0.228,7.05-0.25   c2.885-0.578,4.555-2.773,7.15-3.7C105.093,0.729,109.837,7.105,114.368,3.102" id="path7" style="fill:#A73417;"></path>

	<path d="M160.067,11.102c1.053-0.775,2.367-1.157,3.701-1.2c-1.268,2.409-2.932,2.584-5.801,3.8   c-2.936,1.244-4.334,2.021-7.801,1.8c-3.869-0.248-8.035-1.883-11.6,0.4c-0.979-2.098-7.914-2.319-9.6-2.7   c1.672-1.185,1.416-2.55,2-4.3c0.926-2.778,5.787-1.993,8.199-1.5c3.955,0.808,6.648,3.725,10.5,4.55   C153.056,12.678,157.149,12.17,160.067,11.102" id="path9" style="fill:#A73417;"></path>

	<path d="M126.067,8.102c-1.383,2.289-4.117,3.138-6.699,2.7C121.71,6.676,122.356,7.27,126.067,8.102" id="path11" style="fill:#A73417;"></path>

	<path d="M129.167,7.702c-0.189,1.813-0.832,3.502-2.6,3.8C128.062,10.719,128.263,8.85,129.167,7.702" id="path13" style="fill:#A73417;"></path>

	<path d="M107.368,17.102c-7.531-0.886-20.585,0.601-26.2,6.2c2.476,0.224,16.604-2.849,16.8-4.1   c8.609,1.566,17.141,0.945,25.5,4.4c12.258,5.065,24.971,18.01,27.4,31.5c1.17,6.497-0.027,15.971-0.879,22.609   c-0.965,7.522-4.02,13.195-8.271,19.341c-8.236,11.904-18.049,18.172-32,21.4c-21.395,4.951-44.991-6.775-54.449-25.75   c5.946,2.813,12.578,4.699,19.177,4.699c2.375,0,9.045-1.527,10.123-4c-15.63-1.331-27.232-12.401-33.4-26.45   c-1.737-3.956,2.599-10.527,4.4-14.8c2.459-5.835,4.485-9.835,8.85-14.2c1.999-1.999,3.396-4.284,5.75-6.25   c2.746-2.294,7.294-4.198,9.601-6.7c4.399-4.774-5.044,1.096-6.9,2.6c-10.115,8.193-19.371,18.349-21.899,31.5   c-2.124-1.53-1.579,2.245-1.7,4.1c-7.332-10.266,4.196-26.831,11.384-33.553C72.502,18.566,91.571,8.246,107.368,17.102" id="path15" style="fill:#4040FF;"></path>

	<path d="M129.868,15.402c2.338,0.683,4.828-0.019,7,1.2c-2.117,2.384-4.756-0.865-7.4-0.4   C129.444,15.003,129.808,15.44,129.868,15.402" id="path17" style="fill:#A73417;"></path>

	<path d="M131.167,20.902c-0.566-0.233-1.133-0.467-1.699-0.7c1.379-0.021,3.049-0.336,3.1-1.7   C132.581,19.67,131.829,20.021,131.167,20.902" id="path19" style="fill:#A73417;"></path>

	<path d="M38.769,31.702c-3.202,10.417,0.141,25.106,5.3,34.3c5.979,10.656,18.458,26.863,32.4,28.101   c-8.982,1.293-19.335-3.082-25.9-7.201c-2.479-1.555-8.105-3.663-9.75-6.25c-1.123-1.766-1.5-3.937-2.7-5.65   c-1.202-1.717-3.63-1.743-4.25-3.6c-0.913-2.737-2.44-4.266-3.2-7.3c-0.335-1.341-2.02-2.618-1.95-3.65   c0.193-2.88-0.871-5.427-1.15-8.25c-0.543-5.508,0.72-12.691,3.1-17.75C32.975,29.548,34.735,28.163,38.769,31.702" id="path21" style="fill:#33FF00;"></path>

	<path d="M47.868,67.502c-2.628-1.309-4.15-7.279-4.6-10.3C44.014,60.896,45.352,64.627,47.868,67.502" id="path23" style="fill:#A73417;"></path>

	<path d="M140.667,69.602c-0.043,2.212-1.957,3.466-2.199,0.5C138.229,67.169,140.177,66.657,140.667,69.602" id="path25" style="fill:#0A192E;"></path>

	<path d="M39.168,82.302c0.449,1.551-3.563,4.794-5.05,5.95c-2.547,1.979-3.964,4.478-5.649,6.25   c-2.24,2.357-5.888,5.078-7.9,9.35c-2.388,5.07-4.928,11.586-5.704,17.203c-2.074,15.025-1.336,32.949,12.104,42.248   c-15.004-9.988-18.109-26.043-17.801-42.801c0.188-10.193,2.517-20.912,8.9-29.099C21.255,87.315,35.347,75.571,39.168,82.302" id="path27" style="fill:#B066FF;"></path>

	<path d="M47.568,87.702c2.683,5.528,5.966,12.942,10.05,17.399c2.194,2.396,4.853,4.684,7.9,5.9   c2.937,1.174,1.44,2.393,3.25,4.701c1.665,2.123,6.083,2.678,8.5,3.4c2.778,0.83,4.851,2.428,6.899,3.199   c3.525,1.326,7.845,0.602,11.399,1.4c10.799,2.424-1.127,20.402-4.188,25.754c-5.65,9.877-18.63,11.207-27.511,16.395   c-11.578,6.764-32.435,3.848-39.7-8.248c-2.853-4.75-6.75-6.678-7.5-12.602c-1.091-8.602-0.916-17.24,0.859-25.727   c1.269-6.066,4.016-12.094,6.741-17.473c0.691-1.363,1.532-3.684,2.6-4.699c1.08-1.027,2.859-0.873,3.8-2.051   c2.135-2.674,2.87-4.004,5.6-6.05c1.521-1.14,3.02-2.44,4.85-3.05c2.743-0.914,2.691,1.458,5.15,1.85   C46.702,87.871,47.149,87.788,47.568,87.702" id="path29" style="fill:#9F40FF;"></path>

	<path d="M102.567,100.802c-0.494,2.527-3.426,1.064-5-0.199C99.206,100.044,101.11,99.75,102.567,100.802" id="path31" style="fill:#0A192E;"></path>

	<path d="M114.067,103.501c-4.764,2.775-5.834-0.982-0.699-2.699   C114.294,101.707,114.331,102.486,114.067,103.501" id="path33" style="fill:#0A192E;"></path>

	<path d="M78.469,121.902c0.022,1.631-0.985,2.633-2.7,2.701C75.451,121.998,77.309,118.861,78.469,121.902" id="path35" style="fill:#0A192E;"></path>

	<path d="M82.868,131.001C83.714,137.962,76.598,135.273,82.868,131.001" id="path37" style="fill:#0A192E;"></path>

	<path d="M82.168,140.103C81.93,144.83,77.655,140.65,82.168,140.103" id="path39" style="fill:#0A192E;"></path>

	<path d="M125.868,28.802c-14.01-9.657-28.902-8.223-44.185-2.203c-7.545,2.973-12.28,8.473-16.815,15.003   c-4.065,5.852-10.808,14.174-9.55,21.7c1.188,7.107,6.984,13.541,14.65,12.4c8.525-1.269,11.094-9.705,14.399-16.4   c3.725-7.544,7.682-10.614,15.922-12.33c7.482-1.559,13.953-2.142,21.578-1.67c3.953,0.245,8.383,0.329,9-4.6   C131.36,36.769,129.862,30.556,125.868,28.802" id="path41" style="fill:#4040FF;"></path>

	<path d="M125.468,28.802c-14.008-9.755-28.482-7.752-43.784-2.188c-7.442,2.706-12.277,8.573-16.715,14.887   c-4.036,5.742-10.679,14.229-9.451,21.6c1.198,7.189,6.921,13.236,14.55,12.2c8.566-1.163,11.354-10.044,14.585-16.796   c6.375-13.322,24.273-14.991,37.664-13.204C132.597,46.674,133.298,32.192,125.468,28.802" id="path43" style="fill:#4140FF;"></path>

	<path d="M125.167,28.802c-13.957-9.264-28.322-8.076-43.483-2.103c-7.696,3.032-12.282,8.643-16.859,15.303   c-4.124,6-10.568,14.001-8.956,21.7c1.433,6.844,7.528,12.839,14.87,11.17c8.529-1.938,11.071-10.622,14.445-17.674   c3.664-7.656,9.396-9.398,17.207-11.025c3.744-0.78,7.506-1.419,11.328-1.621c3.494-0.184,7.082,1.164,10.551,0.75   C132.655,44.302,131.698,32.206,125.167,28.802" id="path45" style="fill:#4240FF;"></path>

	<path d="M124.769,28.802c-14.061-9.345-27.793-7.647-43.085-2.087c-7.468,2.715-12.496,8.718-16.743,15.188   c-3.995,6.084-10.543,13.867-8.872,21.6c1.594,7.378,7.739,12.331,15.25,10.9c8.447-1.609,10.701-11.485,14.15-18   c3.814-7.203,9.275-8.695,16.796-10.33c3.695-0.803,7.424-1.412,11.203-1.621c3.479-0.192,7.047,1.162,10.5,0.75   C132.313,44.206,131.249,32.111,124.769,28.802" id="path47" style="fill:#4340FF;"></path>

	<path d="M124.468,28.902c-13.26-10.039-28.182-7.395-42.784-2.088c-7.547,2.743-12.148,8.573-16.559,14.988   c-4.038,5.872-10.435,13.857-8.856,21.4c1.487,7.107,7.752,12.611,15.15,10.85c8.493-2.021,10.412-11.132,14.05-17.85   c4.142-7.65,10.316-8.941,18.3-10.6c3.594-0.747,7.52-1.48,11.199-1.25c3.066,0.191,6.967,1.418,10,0.649   C132.007,43.219,130.241,31.355,124.468,28.902" id="path49" style="fill:#4440FF;"></path>

	<path d="M124.167,28.902c-13.689-9.394-27.574-7.507-42.483-2.088c-7.419,2.697-12.15,8.633-16.443,14.972   c-3.946,5.826-10.382,13.749-8.771,21.215c1.518,7.035,7.732,12.493,15.05,10.75c8.266-1.968,10.458-11.023,13.95-17.65   c4.046-7.676,10.199-9,18.199-10.6c3.932-0.786,7.891-1.363,11.9-1.2c3.162,0.129,6.559,1.236,9.699,0.45   C132.077,43.048,129.038,31.244,124.167,28.902" id="path51" style="fill:#4540FF;"></path>

	<path d="M123.769,28.902c-13.365-9.367-27.494-7.463-42.101-1.988c-7.287,2.732-12.171,8.354-16.313,14.772   c-3.868,5.996-10.194,13.448-8.587,21.016c1.494,7.034,7.479,12.405,14.85,10.65c8.231-1.96,10.336-10.877,13.85-17.45   c4.177-7.813,10.904-9.208,19.099-10.7c3.771-0.687,7.664-1.38,11.5-0.9c2.682,0.335,6.826,1.375,9.4,0.2   C131.333,41.824,128.716,31.381,123.769,28.902" id="path53" style="fill:#4640FF;"></path>

	<path d="M123.468,29.002c-12.838-9.611-28.943-7.843-42.951-1.563c-10.334,4.633-27.2,24.584-23.048,36.663   c2.269,6.601,8.735,11.514,15.844,8.467c7.42-3.18,9.291-11.842,12.87-18.348c3.847-6.99,12.052-8.071,19.285-9.318   c6.029-1.04,14.857,1.699,20.25-0.75C131.19,41.666,127.706,31.033,123.468,29.002" id="path55" style="fill:#4740FF;"></path>

	<path d="M123.167,29.002c-12.891-9.513-28.652-7.736-42.65-1.463c-10.055,4.506-28.045,25.232-22.499,37.113   c3.119,6.681,9.492,11.008,16.85,6.95c6.815-3.759,8.189-12.826,12.151-18.95c4.011-6.203,13.619-7.287,20.449-8.25   c5.16-0.728,14.617,2.341,18.85-0.95C130.417,40.264,127.124,30.944,123.167,29.002" id="path57" style="fill:#4840FF;"></path>

	<path d="M122.769,29.002c-13.008-8.908-28.178-7.985-42.226-1.463c-9.892,4.593-27.847,24.983-22.324,36.813   c3.168,6.787,8.76,10.273,16.206,7.083c6.982-2.991,8.951-12.969,12.595-18.934c3.781-6.192,13.589-7.29,20.25-8.2   c5.109-0.698,14.455,2.314,18.648-0.95C130.003,40.171,126.776,30.923,122.769,29.002" id="path59" style="fill:#4940FF;"></path>

	<path d="M122.468,29.002c-13.227-8.463-27.715-8.061-41.925-1.463c-10.015,4.65-27.314,24.704-22.124,36.563   c2.98,6.81,8.886,10.127,16.105,7.033c7.185-3.08,8.351-12.984,12.444-18.784c4.339-6.148,13.966-7.504,21.05-8.25   c4.617-0.486,14.473,2.475,17.949-1.2C129.29,39.393,126.351,30.999,122.468,29.002" id="path61" style="fill:#4A40FF;"></path>

	<path d="M122.167,29.102c-12.313-9.241-28.209-7.691-41.625-1.463   c-10.476,4.864-27.246,24.824-21.574,36.963c2.928,6.266,10.256,10.09,16.618,5.637c6.846-4.792,7.117-13.805,12.532-19.637   c4.542-4.892,14.251-6.059,20.65-6.7c4.045-0.405,14.666,2.719,17.199-1.5C128.282,38.549,126.255,31.053,122.167,29.102" id="path63" style="fill:#4B40FF;"></path>

	<path d="M121.769,29.102c-12.896-9.142-29.535-7.8-43.2-0.5c-10,5.342-24.799,24.906-19.05,36.4   c3.37,6.737,10.871,8.646,17.131,4.263c6.465-4.525,6.398-14.326,12.018-19.563c4.762-4.437,15.477-5.823,21.701-6.1   c4.154-0.185,13.953,3.152,15.799-2.4C127.442,37.373,125.542,30.889,121.769,29.102" id="path65" style="fill:#4C40FF;"></path>

	<path d="M121.468,29.102c-13.152-9.423-28.088-6.847-42.173-0.811   c-10.493,4.496-25.167,25.229-19.576,36.411c3.383,6.767,10.692,8.526,16.957,4.237c6.429-4.4,6.472-14.114,11.992-19.337   c4.871-4.608,15.908-6.1,22.35-6.1c4.787,0,12.904,3.018,14.951-3C127.173,36.962,124.753,30.635,121.468,29.102" id="path67" style="fill:#4D40FF;"></path>

	<path d="M121.167,29.202c-13.113-8.747-28.688-7.878-42.499-0.5c-10.004,5.344-25.788,25.718-17.95,37.05   c3.863,5.585,11.808,7.557,17.017,2.058c5.221-5.512,5.903-15.033,12.232-19.507c5.557-3.926,16.547-5.186,23.199-4.9   c4.738,0.204,13.066,2.641,12.551-5.05C125.491,34.977,124.458,30.844,121.167,29.202" id="path69" style="fill:#4E40FF;"></path>

	<path d="M120.769,29.202c-12.309-9.334-29.688-7.516-42.697-0.163C67.925,34.774,53.108,54.82,61.368,66.102   c4.479,6.117,12.074,5.628,17.233,0.467c5.267-5.268,5.263-15.033,12.167-18.917c6.439-3.623,16.344-4.651,23.6-4.15   c5.398,0.373,12.439,1.201,10.85-6.75C124.655,33.938,123.616,30.425,120.769,29.202" id="path71" style="fill:#4F40FF;"></path>

	<path d="M120.468,29.202c-13.629-8.788-29.441-7.485-43.503,0.463c-6.51,3.68-10.997,12.321-14.755,18.511   c-3.774,6.216-5.18,12.875,0.159,18.726c4.76,5.217,13.21,4.136,17.115-1.722c4.463-6.695,5.757-15.706,13.985-18.778   c7.305-2.727,15.15-3.297,22.801-2.75c6.643,0.475,10.389-1.976,8-9.25C123.558,32.239,122.499,30.212,120.468,29.202" id="path73" style="fill:#5040FF;"></path>

	<path d="M120.167,29.202c-13.883-8.419-28.867-7.482-43.102,0.563C70.686,33.37,65.92,41.884,62.383,48.076   c-3.583,6.274-5.191,12.632,0.185,18.526c4.719,5.174,13.135,4.095,17.015-1.722c4.456-6.681,5.542-15.478,13.785-18.578   c7.24-2.723,15.01-3.293,22.6-2.75c6.49,0.464,10.359-1.953,8-9.149C123.284,32.318,122.11,30.15,120.167,29.202" id="path75" style="fill:#5140FF;"></path>

	<path d="M119.769,29.302c-12.486-9.317-29.693-7.18-42.63,0.463c-6.423,3.794-10.859,11.902-14.556,18.137   c-3.614,6.095-5.129,12.677,0.186,18.4c13.951,15.021,21.162-16.734,30.5-20.2c7.162-2.658,14.908-3.183,22.398-2.65   c6.387,0.455,10.277-1.959,7.9-9.05C122.866,32.311,121.843,30.235,119.769,29.302" id="path77" style="fill:#5240FF;"></path>

	<path d="M119.468,29.302c-12.773-9.052-29.084-7.009-42.303,0.463c-6.479,3.662-11.344,12.432-14.796,18.737   c-3.547,6.478-4.18,12.119,1,17.95c5.426,6.108,13.824,1.76,17.4-3.95c4.499-7.183,5.256-14.476,14.398-17   c7.416-2.047,14.012-2.589,21.602-2.05c6.631,0.472,8.957-4.653,5.898-10.55C121.874,31.374,121.058,30.08,119.468,29.302" id="path79" style="fill:#5340FF;"></path>

	<path d="M119.167,29.302c-13.441-8.442-28.051-7.078-41.929,0.489c-6.417,3.499-11.264,12.351-14.67,18.511   c-3.559,6.438-4.155,12.057,1,17.85c5.059,5.685,13.291,2.145,16.812-3.254c4.161-6.38,5.227-15.131,13.688-17.246   c7.572-1.893,13.982-2.682,21.701-2.35c6.41,0.275,9.639-3.07,6.799-9.7C121.808,31.826,120.843,30.172,119.167,29.302" id="path81" style="fill:#5440FF;"></path>

	<path d="M118.769,29.402c-12.244-9.438-28.73-6.59-41.53,0.389c-6.471,3.528-11.436,12.81-14.807,19.033   c-3.189,5.889-3.949,12.597,1.736,17.478c5.912,5.075,13.733,1.215,16.938-4.948c3.943-7.583,5.847-14.148,14.862-16.402   c7.344-1.836,13.445-1.55,20.801-1.65c6.807-0.092,7.602-5.391,4.799-11C120.901,30.969,120.161,29.96,118.769,29.402" id="path83" style="fill:#5540FF;"></path>

	<path d="M118.468,29.402c-12.131-8.905-28.592-6.943-41.129,0.463c-9.408,5.558-24.303,26.549-12.971,36.137   c5.789,4.898,13.693,1.313,16.811-4.922c3.782-7.563,5.789-14.003,14.689-16.228c7.285-1.821,13.32-1.479,20.6-1.65   c6.42-0.151,7.953-5.411,4.75-10.9C120.476,31.031,119.819,30.062,118.468,29.402" id="path85" style="fill:#5640FF;"></path>

	<path d="M118.167,29.402c-12.063-8.127-29.107-7.615-41.299,0.8c-8.668,5.982-24.543,27.209-11.6,36.2   c7.028,4.882,13.673-1.421,16.8-7.4c4.3-8.223,6.272-12.282,15.649-14.75c6.865-1.807,12.982-0.27,19.65-1.15   c6.418-0.848,5.822-7.28,2.85-11.95C119.716,30.363,118.933,29.762,118.167,29.402" id="path87" style="fill:#5740FF;"></path>

	<path d="M117.769,29.402c-12.125-7.813-28.691-7.625-40.9,0.8c-8.643,5.963-24.152,26.936-11.399,35.8   c6.969,4.844,13.453-1.239,16.6-7.2c4.292-8.13,6.25-12.203,15.55-14.65c6.801-1.79,12.85-0.271,19.449-1.15   c6.271-0.836,5.881-7.322,2.75-11.8C119.255,30.396,118.622,29.854,117.769,29.402" id="path89" style="fill:#5840FF;"></path>

	<path d="M117.468,29.502c-11.111-8.739-29.121-7.078-40.499,0.7c-9.829,6.718-22.115,24.786-11.75,35.15   c5.84,5.84,13.753-0.813,16.539-6.154c4.016-7.696,5.744-12.628,14.71-14.896c6.953-1.758,12.721-1.4,19.699-1.4   c6.23,0,6.855-6.779,3.701-11.2C119.144,30.687,118.595,30.038,117.468,29.502" id="path91" style="fill:#5940FF;"></path>

	<path d="M117.167,29.502c-12.279-7.51-27.836-7.611-40.198,0.8c-8.582,5.838-23.625,26.353-11.2,35.1   c6.82,4.801,13.236-1.339,16.3-7.1c4.468-8.404,6.538-12.337,16.2-14.6c6.563-1.537,12.295-0.362,18.75-0.95   c5.938-0.54,4.898-8.712,1.75-12.05C118.313,30.22,117.743,29.826,117.167,29.502" id="path93" style="fill:#5A40FF;"></path>

	<path d="M116.769,29.502c-11.557-8.03-28.037-7.181-39.7,0.8c-7.986,5.464-24.416,27.397-10.65,35.05   c6.962,3.871,13.204-1.649,16.009-7.82c3.978-8.749,7.181-12.029,16.64-14.129c3.232-0.718,6.666-1.489,10-1.25   c2.449,0.175,5.688,1.164,8.1,0.45c5.205-1.54,4.617-9,0.9-12.25C117.679,30.012,117.224,29.732,116.769,29.502" id="path95" style="fill:#5B40FF;"></path>

	<path d="M116.468,29.602c-11.461-8.546-28.699-6.785-40.149,1.3c-8.172,5.77-22.893,26.91-9.35,34.4   c7.433,4.111,13.15-3.197,15.94-9.056c4.097-8.605,7.588-11.249,16.959-13.145c5.908-1.196,11.813,0.436,17.5-0.7   c5.367-1.072,3.143-10.098-0.1-12.4C117.001,29.869,116.735,29.735,116.468,29.602" id="path97" style="fill:#5C40FF;"></path>

	<path d="M116.167,29.602c-11.482-7.987-29.667-7.233-40.599,2c-7.293,6.161-22.452,27.016-7.85,33.65   c7.582,3.444,12.644-4.023,15.45-9.75c4.275-8.725,8.063-10.626,17.399-12.7c4.75-1.055,12.936,1.505,17-0.6   c4.104-2.124,2.973-10.416-1-12.4C116.435,29.735,116.302,29.669,116.167,29.602" id="path99" style="fill:#5D40FF;"></path>

	<path d="M115.769,29.602c-11.133-7.891-30.771-7.33-40.851,2.75c-6.53,6.53-21.936,26.939-6.449,32.75   c8.477,3.181,12.557-5.837,15.6-11.8c4.044-7.926,9.595-9.459,18.05-10.95c4.076-0.719,12.623,1.838,15.949-0.65   C121.724,38.967,119.282,31.468,115.769,29.602" id="path101" style="fill:#5E40FF;"></path>

	<path d="M115.468,29.602c-12.191-7.239-30.53-7.504-41.199,3.5c-5.674,5.852-21.419,28.075-5.05,31.85   c8.458,1.951,11.703-5.726,14.85-11.85c4.025-7.832,9.474-9.371,17.849-10.85c3.996-0.705,12.477,1.821,15.75-0.55   C121.425,38.981,118.804,31.447,115.468,29.602" id="path103" style="fill:#5F40FF;"></path>

	<path d="M115.167,29.702c-10.846-7.658-30.191-7.305-40.099,2.6c-6.329,6.327-21.499,26.577-6.3,32.2   c7.675,2.84,12.187-5.03,14.85-10.649c3.801-8.021,8.715-10.019,17.25-11.55c5.029-0.902,11.338,1.2,16-0.55   C121.474,40.023,118.333,31.337,115.167,29.702" id="path105" style="fill:#6040FF;"></path>

	<path d="M114.769,29.702c-10.869-7.417-29.714-7.289-39.6,2.6c-6.349,6.352-21.188,26.067-6.3,31.8   c8.168,3.146,12.279-5.687,15.2-11.4c3.921-7.67,9.249-9.204,17.448-10.65c3.873-0.683,12.307,1.796,15.451-0.55   C120.505,38.864,118.192,31.39,114.769,29.702" id="path107" style="fill:#6140FF;"></path>

	<path d="M114.468,29.702c-11.594-7.398-29.667-7.008-39.899,3.3c-6.133,6.178-19.964,25.438-5.5,30.8   c8.049,2.984,12.072-5.718,15-11.3c4.019-7.661,9.081-9.01,17.3-10.55c3.861-0.724,12.053,1.782,15.199-0.55   C120.167,38.735,117.804,31.493,114.468,29.702" id="path109" style="fill:#6240FF;"></path>

	<path d="M114.167,29.802c-11.357-7.628-29.382-6.831-39.499,3.2c-6.091,6.039-19.758,25.213-5.5,30.5   c7.951,2.948,12.005-5.678,14.9-11.2c3.964-7.559,8.979-8.929,17.099-10.45c4.701-0.88,10.301,1.25,14.701-0.4   C120.294,39.793,117.165,31.381,114.167,29.802" id="path111" style="fill:#6340FF;"></path>

	<path d="M113.769,29.802c-10.768-7.808-30.223-6.673-39.415,3.667c-5.266,5.923-19.772,25.934-4.385,29.783   c8.278,2.071,11.377-6.192,14.45-12c3.677-6.948,9.836-8.663,17.35-9.65c3.557-0.467,11.137,1.783,14.1-0.4   C119.366,38.624,117.083,31.527,113.769,29.802" id="path113" style="fill:#6440FF;"></path>

	<path d="M113.468,29.802c-10.832-7.547-29.107-6.556-38.699,3.2c-5.883,5.984-19.266,24.644-5.3,29.8   c8.302,3.065,11.872-6.224,14.95-11.7c3.841-6.833,9.543-8.578,17.149-9.601c3.5-0.471,11.117,1.79,14-0.4   C118.942,38.539,116.655,31.394,113.468,29.802" id="path115" style="fill:#6540FF;"></path>

	<path d="M113.167,29.802c-11.201-6.918-28.414-6.741-38.299,3.2c-5.54,5.571-19.61,25.895-4.6,29.65   c8.481,2.122,11.233-6.958,14.501-12.55c3.662-6.27,9.683-7.769,16.599-8.7c3.506-0.472,10.875,1.753,13.799-0.4   C118.696,38.402,116.185,31.738,113.167,29.802" id="path117" style="fill:#6640FF;"></path>

	<path d="M112.769,29.902c-10.377-7.664-28.574-6.253-37.8,3.1c-5.435,5.51-19.428,25.54-4.6,29.25   c8.461,2.117,11.123-6.716,14.4-12.35c3.607-6.203,9.55-7.667,16.398-8.6c3.42-0.466,10.885,1.757,13.701-0.4   C118.151,38.386,115.983,31.496,112.769,29.902" id="path119" style="fill:#6740FF;"></path>

	<path d="M112.468,29.902c-10.279-6.585-27.412-6.888-36.75,2.45c-5.808,5.808-19.646,24.358-5.75,29.45   c8.365,3.065,11.659-6.729,14.8-12.1c3.56-6.09,9.468-7.595,16.199-8.5c3.426-0.46,10.664,1.725,13.5-0.4   C117.808,38.301,115.562,31.654,112.468,29.902" id="path121" style="fill:#6840FF;"></path>

	<path d="M112.167,29.902c-10.785-6.835-27.48-6.431-36.999,3.1c-4.244,4.25-9.998,11.997-11,18   c-0.638,3.821,2.344,9.907,6.5,10.6c8.637,1.441,11.021-6.71,14.5-12.8c3.315-5.802,10.114-6.917,16.299-7.8   c3.758-0.536,9.709,1.764,12.949-0.55C117.61,38.173,114.782,31.398,112.167,29.902" id="path123" style="fill:#6940FF;"></path>

	<path d="M111.769,30.002c-9.848-8-28.858-5.731-37.2,3.8c-5.037,5.755-17.999,24.476-3.2,27.601   c7.779,1.642,10.963-7.429,13.8-12.75c3.091-5.796,10.092-6.894,16.1-7.75c3.465-0.494,9.936,1.838,12.799-0.55   C117.032,37.88,114.657,31.508,111.769,30.002" id="path125" style="fill:#6A40FF;"></path>

	<path d="M111.468,30.002c-10.549-7.029-27.997-6.265-36.799,3.8c-4.783,5.469-17.675,23.66-3.7,27.15   c7.923,1.979,10.626-6.451,13.699-11.75c3.43-5.912,9.169-7.421,15.701-8.3c3.295-0.443,10.258,1.663,13-0.4   C116.558,38.102,114.55,31.646,111.468,30.002" id="path127" style="fill:#6B40FF;"></path>

	<path d="M111.167,30.002c-10.35-7.092-27.801-6.023-36.398,3.8c-4.908,5.608-17.585,23.957-3.101,26.9   c7.76,1.577,10.442-7.229,13.4-12.4c3.109-5.435,9.857-7.125,15.8-7.55c3.201-0.229,9.877,1.588,12.5-0.6   C116.235,37.761,113.792,31.505,111.167,30.002" id="path129" style="fill:#6C40FF;"></path>

	<path d="M110.769,30.002c-10.236-6.951-27.399-5.914-35.9,3.8c-4.852,5.544-17.383,23.594-3.1,26.601   c7.753,1.632,10.228-7.263,13.299-12.25c3.273-5.315,9.541-7.067,15.599-7.5c3.189-0.229,9.697,1.568,12.301-0.6   C115.864,37.641,113.542,31.565,110.769,30.002" id="path131" style="fill:#6D40FF;"></path>

	<path d="M110.468,30.102c-10.33-7.069-26.766-5.711-35.5,3.65c-4.813,5.16-16.938,22.868-3.6,26.2   c7.664,1.915,10.279-6.255,13.299-11.35c3.357-5.663,8.785-7.181,15.101-8c3.215-0.417,9.939,1.599,12.6-0.4   C115.415,37.913,113.374,31.7,110.468,30.102" id="path133" style="fill:#6E40FF;"></path>

	<path d="M110.167,30.102c-10.557-6.535-26.199-5.882-35.099,3.65c-4.316,4.624-17.052,23.392-3.55,25.85   c7.647,1.392,10.016-5.755,13.149-11.1c3.287-5.607,8.607-7.184,14.9-8c3.119-0.404,9.875,1.58,12.4-0.4   C114.952,37.764,112.989,31.849,110.167,30.102" id="path135" style="fill:#6F40FF;"></path>

	<path d="M109.769,30.102c-10.537-6.985-26.838-5.465-35.3,4.4c-4.612,5.376-15.604,22.086-2.301,24.9   c7.353,1.555,9.875-6.994,12.8-11.75c3.18-5.17,9.183-6.848,15.048-7.3c3.424-0.264,8.928,1.399,11.852-0.551   C114.968,37.735,112.22,31.54,109.769,30.102" id="path137" style="fill:#7040FF;"></path>

	<path d="M109.468,30.202c-9.213-6.769-26.67-5.828-34.25,3.5c-4.314,5.309-16.656,22.641-2.85,25.3   c7.319,1.41,9.656-6.765,12.6-11.55c3.109-5.052,9.132-6.76,14.849-7.2c2.85-0.219,9.115,1.472,11.451-0.35   C114.157,37.649,112.372,31.708,109.468,30.202" id="path139" style="fill:#7140FF;"></path>

	<path d="M109.167,30.202c-9.48-6.518-25.906-5.709-33.849,3.45c-4.168,4.806-16.657,23.897-2.25,25.1   c7.508,0.627,8.873-7.401,12.3-12.15c3.21-4.452,8.849-6.034,14.25-6.45c2.748-0.212,8.984,1.455,11.25-0.25   C113.872,37.641,111.858,31.881,109.167,30.202" id="path141" style="fill:#7240FF;"></path>

	<path d="M108.769,30.202c-10.559-7.248-26.463-4.833-34.6,5.05c-4.141,5.029-14.312,22.675-0.4,23.25   c6.979,0.288,8.833-8,11.9-12.6c2.891-4.337,9.417-5.455,14.299-5.9c2.654-0.242,8.814,1.586,10.85-0.45   C113.235,37.135,111.507,31.703,108.769,30.202" id="path143" style="fill:#7340FF;"></path>

	<path d="M108.468,30.202c-10.658-6.786-25.964-4.945-34.199,5.05c-3.298,4.004-8.636,10.539-7.601,16.05   c0.716,3.812,3.879,7.056,7.85,6.75c7.123-0.548,7.75-8.403,11.55-12.85c3.357-3.928,9.333-4.936,14.3-5.35   c2.715-0.227,8.334,1.671,10.4-0.65C112.974,36.724,110.763,31.706,108.468,30.202" id="path145" style="fill:#7440FF;"></path>

	<path d="M108.167,30.302c-10.371-6.935-25.781-4.905-33.749,4.9c-3.231,3.977-8.622,10.438-7.55,15.9   c0.723,3.684,3.884,6.948,7.75,6.65c6.393-0.492,8.103-7.648,11-12.2c2.707-4.253,9.285-5.365,13.949-5.75   c2.574-0.212,8.568,1.533,10.551-0.45C112.499,36.97,110.71,31.831,108.167,30.302" id="path147" style="fill:#7540FF;"></path>

	<path d="M107.769,30.302c-10.631-7.25-26.07-4.401-33.9,5.7c-2.97,3.832-8.219,10.067-6.65,15.3   c1.097,3.658,4.065,6.72,8.15,6.1c6.421-0.975,7.07-8.388,10.6-12.5c3.304-3.85,9.119-4.843,14-5.25   c2.736-0.229,7.91,1.603,10-0.65C112.161,36.638,110.136,31.742,107.769,30.302" id="path149" style="fill:#7640FF;"></path>

	<path d="M107.468,30.302c-10.781-6.603-25.538-4.726-33.499,5.6c-2.982,3.867-8.014,9.984-6.451,15.2   c1.103,3.68,3.917,6.465,7.951,5.9c6.386-0.895,6.976-8.232,10.5-12.3c3.279-3.785,8.939-4.713,13.75-5.15   c2.648-0.241,7.869,1.614,9.949-0.55C111.892,36.688,109.651,31.66,107.468,30.302" id="path151" style="fill:#7740FF;"></path>

	<path d="M107.167,30.402c-9.648-7.131-25.019-4.447-32.449,4.7c-3.122,3.842-8.606,10.342-7,15.7   c1.078,3.596,3.862,6.49,7.85,5.9c6.23-0.921,6.889-8.108,10.3-12.1c3.185-3.728,8.886-4.759,13.599-5.15   c2.689-0.223,7.289,1.458,9.551-0.35C111.55,37.078,109.456,31.733,107.167,30.402" id="path153" style="fill:#7840FF;"></path>

	<path d="M106.769,30.402c-10.186-6.912-24.984-4.312-32.5,5.4c-3.127,4.041-7.899,9.779-6.2,15.2   c1.149,3.666,4.318,6.122,8.2,5.15c5.851-1.464,6.478-8.235,10-12.2c3.018-3.397,9.215-4.473,13.6-4.65   c2.418-0.098,7.182,1.556,9.1-0.5C110.989,36.636,109.024,31.562,106.769,30.402" id="path155" style="fill:#7940FF;"></path>

	<path d="M106.468,30.402c-9.996-6.894-24.786-4.121-32.1,5.4c-3.072,4-7.786,9.636-6.1,15   c1.14,3.626,4.292,6.001,8.1,5.05c5.542-1.384,6.729-8.086,9.899-12.05c2.729-3.413,9.143-4.415,13.299-4.6   c2.441-0.109,7.084,1.548,9-0.5C110.657,36.47,108.505,31.673,106.468,30.402" id="path157" style="fill:#7A40FF;"></path>

	<path d="M106.067,30.402c-9.957-6.565-24.22-4.153-31.599,5.3c-3.022,3.872-7.613,9.601-6,14.8   c1.082,3.487,4.295,5.976,8,5.05c5.646-1.411,6.325-8.103,9.7-11.9c2.956-3.327,8.917-4.393,13.2-4.55   c2.393-0.088,6.918,1.519,8.799-0.5C110.251,36.365,108.259,31.778,106.067,30.402" id="path159" style="fill:#7B40FF;"></path>

	<path d="M105.769,30.502c-9.406-6.975-24.298-3.914-31.2,5.2c-2.904,3.834-7.535,9.456-5.9,14.6   c1.108,3.487,4.257,5.762,7.9,4.85c5.388-1.35,6.521-7.801,9.6-11.65c2.653-3.316,8.866-4.339,12.899-4.5   c2.336-0.093,6.996,1.533,8.801-0.5C109.81,36.313,107.864,31.765,105.769,30.502" id="path161" style="fill:#7C40FF;"></path>

	<path d="M105.468,30.502c-9.072-6.245-23.266-4.363-30.149,4.4c-3.044,3.876-7.721,9.389-6.55,14.649   c0.758,3.408,3.809,5.941,7.3,5.45c5.882-0.827,6.355-7.499,9.599-11.2c3.025-3.45,8.246-4.451,12.65-4.85   c2.568-0.232,6.729,1.387,8.9-0.35C109.634,36.67,107.542,31.827,105.468,30.502" id="path163" style="fill:#7D40FF;"></path>

	<path d="M105.067,30.502c-8.564-6.07-23.237-4.389-29.649,4.35c-2.899,3.951-7.618,9.153-6.45,14.4   c0.763,3.428,3.678,5.84,7.2,5.35c5.752-0.8,6.3-7.235,9.5-10.9c2.996-3.43,8.056-4.45,12.451-4.85   c2.285-0.208,6.953,1.443,8.75-0.351C109.034,36.338,107.343,31.865,105.067,30.502" id="path165" style="fill:#7E40FF;"></path>

	<path d="M104.769,30.602c-9.072-6.567-23.06-3.814-29.8,4.9c-2.876,3.719-7.156,9.061-5.601,14   c1.034,3.283,3.936,5.61,7.45,4.65c5.154-1.408,6.26-7.322,9.2-11.101c2.456-3.156,8.553-4.181,12.35-4.35   c2.303-0.102,6.596,1.484,8.4-0.5C108.644,36.141,106.794,31.75,104.769,30.602" id="path167" style="fill:#7F40FF;"></path>

	<path d="M104.468,30.602c-8.902-6.192-21.857-3.897-28.799,4.2c-2.742,3.198-7.774,9.376-6.25,13.95   c1.072,3.217,3.3,5.733,6.95,5.25c5.538-0.733,6.166-7.106,9.2-10.6c2.949-3.394,7.769-4.317,12.099-4.75   c2.721-0.272,5.996,1.172,8.451-0.3C108.698,36.804,106.3,31.754,104.468,30.602" id="path169" style="fill:#8040FF;"></path>

	<path d="M104.067,30.602c-8.939-6.225-22.277-3.671-28.799,4.9c-2.778,3.651-6.991,8.561-5.5,13.4   c0.951,3.089,3.405,5.145,6.7,4.7c5.506-0.743,6.019-6.904,9.099-10.4c2.742-3.11,7.351-4.284,11.4-4.6   c2.18-0.17,6.803,1.268,8.6-0.2C107.913,36.487,106.325,31.921,104.067,30.602" id="path171" style="fill:#8040FF;"></path>

	<path d="M103.769,30.702c-8.627-6.475-22.02-3.512-28.4,4.7c-2.731,3.515-6.901,8.57-5.399,13.3   c0.993,3.127,3.828,5.357,7.149,4.45c4.827-1.318,6.046-6.96,8.8-10.5c2.401-3.086,7.663-3.797,11.299-4.2   c2.67-0.296,5.785,1.15,8.199-0.3C107.874,36.677,105.53,31.696,103.769,30.702" id="path173" style="fill:#8140FF;"></path>

	<path d="M103.468,30.702c-8.207-5.791-21.212-3.942-27.449,4c-2.742,3.492-7.137,8.531-5.95,13.3   c0.792,3.181,3.288,5.365,6.6,4.9c5.319-0.747,5.825-6.632,8.8-10c2.654-3.003,7.068-4.173,11-4.5c2.154-0.179,6.627,1.257,8.4-0.2   C107.106,36.361,105.669,32.028,103.468,30.702" id="path175" style="fill:#8240FF;"></path>

	<path d="M103.067,30.702c-8.344-6.073-21.344-3.408-27.499,4.6c-2.618,3.406-6.619,8.346-5.2,12.9   c0.919,2.949,3.762,5.191,6.9,4.25c4.759-1.427,5.783-6.539,8.549-10.1c2.324-2.99,7.412-3.746,10.951-4.101   c2.166-0.217,6.539,1.422,8.199-0.45C106.702,35.848,104.962,31.794,103.067,30.702" id="path177" style="fill:#8340FF;"></path>

	<path d="M102.769,30.702c-8.709-5.445-20.604-3.678-27,4.6c-2.819,3.648-10.229,18.471,1.1,17   c5.05-0.656,5.808-6.514,8.6-9.7c2.58-2.943,6.769-4.08,10.599-4.4c2.033-0.17,6.727,1.271,8.301-0.3   C106.321,35.951,104.685,31.872,102.769,30.702" id="path179" style="fill:#8440FF;"></path>

	<path d="M102.468,30.802c-8.027-5.988-20.715-3.377-26.6,4.4c-2.831,3.741-9.985,18.037,1.101,16.7   c4.979-0.601,5.625-6.283,8.4-9.4c2.604-2.926,6.666-4.082,10.5-4.4c2.006-0.167,6.547,1.254,8.1-0.3   C105.854,35.914,104.45,32.073,102.468,30.802" id="path181" style="fill:#8540FF;"></path>

	<path d="M102.067,30.802c-7.658-5.262-19.82-3.76-25.599,3.75c-2.668,3.468-10.807,18.486,0.6,17.05   c4.872-0.613,5.577-6.263,8.3-9.3c2.564-2.86,6.513-3.976,10.298-4.3c1.992-0.171,6.459,1.246,8-0.3   C105.522,35.843,103.997,31.957,102.067,30.802" id="path183" style="fill:#8640FF;"></path>

	<path d="M101.769,30.802c-7.693-5.273-19.221-3.473-25.2,3.7c-2.592,3.11-10.482,17.934,0.15,16.75   c4.732-0.526,5.89-5.368,8.35-8.65c2.287-3.049,6.142-4.239,9.849-4.65c2.031-0.225,6.813,1.188,8.352-0.35   C105.13,35.743,103.61,31.96,101.769,30.802" id="path185" style="fill:#8740FF;"></path>

	<path d="M101.468,30.902c-7.352-5.077-19.219-3.777-24.75,3.6c-2.542,3.39-10.495,17.722,0.55,16.4   c4.419-0.529,5.454-5.508,7.7-8.5c2.232-2.975,6.16-4.15,9.75-4.55c1.945-0.217,6.375,1.146,7.949-0.15   C104.759,35.979,103.44,32.105,101.468,30.902" id="path187" style="fill:#8840FF;"></path>

	<path d="M101.067,30.902c-6.912-5.211-19.031-3.453-24.249,3.5c-2.762,3.679-10.181,16.2,0.1,16.2   c4.416,0,5.599-5.098,7.749-7.9c2.352-3.064,5.562-4.376,9.4-4.9c1.963-0.268,6.75,1.109,8.301-0.2   C104.401,35.886,102.96,32.09,101.067,30.902" id="path189" style="fill:#8940FF;"></path>

	<path d="M100.769,30.902c-7.018-4.862-18.556-3.562-23.85,3.5c-2.151,2.87-10.159,16.99,0.1,15.85   c4.455-0.495,5.327-4.737,7.649-7.75c2.311-2.997,5.462-4.307,9.201-4.8c1.938-0.255,6.588,1.069,8.1-0.2   C104.007,35.79,102.562,32.112,100.769,30.902" id="path191" style="fill:#8A40FF;"></path>

	<path d="M100.468,30.902c-7.338-4.516-17.776-3.481-23.449,3.45c-2.245,2.742-9.813,16.84,0.15,15.6   c4.338-0.541,5.125-4.598,7.4-7.55c2.291-2.973,5.368-4.317,9.099-4.8c1.873-0.243,6.535,1.042,8-0.2   C103.704,35.677,102.134,32.151,100.468,30.902" id="path193" style="fill:#8B40FF;"></path>

	<path d="M100.067,31.002c-6.537-5.005-16.999-3.066-22.399,2.8c-3.039,3.301-10.297,15.8-0.4,15.8   c4.082,0,5.295-4.815,7.3-7.4c2.23-2.875,5.28-4.24,8.899-4.7c1.766-0.224,5.953,0.974,7.4,0   C103.167,35.955,102.175,32.319,100.067,31.002" id="path195" style="fill:#8C40FF;"></path>

	<path d="M99.769,31.002c-6.602-4.659-16.583-3.19-22,2.7c-2.766,3.008-10.132,15.215-0.8,15.6   c3.902,0.161,5.663-4.201,7.35-6.9c1.843-2.949,4.694-4.212,8.05-4.8c1.996-0.351,5.932,0.724,7.6-0.1   C102.573,36.214,102.206,32.616,99.769,31.002" id="path197" style="fill:#8D40FF;"></path>

	<path d="M99.468,31.002c-6.787-4.153-16.045-3.347-21.6,2.7c-2.794,3.042-9.854,14.769-0.8,15.2   c3.776,0.18,5.567-3.909,7.25-6.6c1.818-2.909,4.515-4.208,7.849-4.8c1.883-0.334,5.967,0.719,7.5-0.1   C102.259,36.019,101.737,32.649,99.468,31.002" id="path199" style="fill:#8E40FF;"></path>

	<path d="M99.067,31.102c-5.814-4.272-15.786-3.378-20.699,2.15c-2.558,2.878-10.48,14.875-1.201,15.35   c3.731,0.191,5.431-3.908,7.051-6.5c1.79-2.863,4.606-4.128,7.849-4.7c1.797-0.316,5.865,0.691,7.301-0.1   C101.833,35.942,101.415,32.543,99.067,31.102" id="path201" style="fill:#8F40FF;"></path>

	<path d="M98.769,31.102c-5.842-4.117-15.465-3.29-20.3,2.15c-2.513,2.828-10.282,14.558-1.1,15.05   c3.554,0.19,4.917-3.727,6.601-6c2.089-2.82,3.953-4.124,7.448-4.9c1.969-0.437,5.973,0.623,7.551-0.2   C101.442,35.911,101.03,32.702,98.769,31.102" id="path203" style="fill:#9040FF;"></path>

	<path d="M98.468,31.102c-5.74-3.829-15.086-3.358-19.899,2.05c-2.548,2.864-10.008,14.278-1.1,14.75   c3.579,0.189,4.766-3.489,6.5-5.8c2.097-2.796,3.892-3.947,7.298-4.8c1.951-0.488,5.824,0.644,7.4-0.2   C101.118,35.789,100.53,32.651,98.468,31.102" id="path205" style="fill:#9140FF;"></path>

	<path d="M98.067,31.102c-5.469-3.406-15.06-3.59-19.449,2.05c-2.164,2.781-9.922,13.971-1.05,14.45   c5.143,0.278,7.582-8.934,13.099-10.3c2.092-0.518,5.299,0.418,7.102-0.3C100.437,35.938,100.761,33.005,98.067,31.102" id="path207" style="fill:#9240FF;"></path>

	<path d="M97.769,31.202c-5.551-3.686-13.687-3.132-18.7,1.5c-2.763,2.553-9.965,14.09-1.4,14.6   c5.041,0.3,7.398-8.783,12.8-10.1C93.12,36.556,105.108,36.478,97.769,31.202" id="path209" style="fill:#9340FF;"></path>

	<path d="M97.468,31.202c-5.305-3.543-13.019-3.026-17.95,1.2c-2.833,2.428-10.233,14.026-1.75,14.5   c5.049,0.282,7.008-8.4,12.199-9.7c1.99-0.498,5.572,0.341,7.199-0.4C99.575,35.705,99.909,33.02,97.468,31.202" id="path211" style="fill:#9440FF;"></path>

	<path d="M97.067,31.202c-5.318-3.52-13.035-2.878-17.799,1.5c-2.598,2.387-9.502,13.407-1.4,13.9   c2.745,0.167,4.642-2.82,5.8-4.85c1.548-2.711,3.44-3.538,6.149-4.7c2.154-0.924,5.213,0.514,7.051-0.35   C99.298,35.559,99.386,32.954,97.067,31.202" id="path213" style="fill:#9540FF;"></path>

	<path d="M96.769,31.302c-4.627-3.387-12.884-3.113-17.1,1.1c-1.928,1.926-9.979,13.8-1.9,13.8   c4.918,0,6.73-7.154,11.148-9.05C91.181,36.182,104.118,36.641,96.769,31.302" id="path215" style="fill:#9640FF;"></path>

	<path d="M96.468,31.302c-4.861-3.118-11.705-2.899-16.399,0.8c-2.832,2.231-9.592,12.324-2.5,13.8   c4.952,1.031,6.363-7.403,10.55-8.6C90.837,36.524,103.263,36.458,96.468,31.302" id="path217" style="fill:#9740FF;"></path>

	<path d="M96.067,31.302c-4.607-3.148-11.499-2.743-15.899,0.8c-2.708,2.181-9.73,13.056-1.899,13.5   c4.122,0.234,6.404-6.925,10-8.5C90.62,36.071,103.042,36.449,96.067,31.302" id="path219" style="fill:#9840FF;"></path>

	<path d="M95.769,31.302c-4.281-2.692-11.039-2.92-15.2,0.55c-2.634,2.196-10.05,12.792-2.2,13.35   c4.157,0.295,6.16-6.75,9.799-8.3C90.606,35.864,102.429,36.604,95.769,31.302" id="path221" style="fill:#9940FF;"></path>

	<path d="M95.468,31.402c-4.23-2.917-10.326-2.722-14.6,0.3c-2.708,1.915-9.818,11.852-2.899,13.2   c4.132,0.805,6.283-6.187,9.4-7.8C89.638,35.926,102.089,36.487,95.468,31.402" id="path223" style="fill:#9A40FF;"></path>

	<path d="M95.067,31.402c-4.076-2.845-9.986-2.56-14.099,0.3c-2.759,1.918-9.455,11.364-2.9,12.8   c4.129,0.905,6.202-6.216,9.55-7.65C89.751,35.938,101.661,36.148,95.067,31.402" id="path225" style="fill:#9B40FF;"></path>

	<path d="M94.769,31.402c-4.074-2.671-9.113-2.32-13.35,0.1c-2.891,1.651-9.426,10.753-3.55,12.6   c3.985,1.252,6.556-5.828,9.6-7.35C89.741,35.615,100.845,36.451,94.769,31.402" id="path227" style="fill:#9C40FF;"></path>

	<path d="M94.468,31.502c-3.77-2.673-9.54-2.492-13.399,0.2c-2.532,1.766-8.686,10.289-3.1,12.1   c3.943,1.278,6.246-5.553,9.099-7.1C89.091,35.605,100.544,36.254,94.468,31.502" id="path229" style="fill:#9D40FF;"></path>

	<path d="M94.067,31.502c-3.779-2.605-9.083-2.344-12.899,0.3c-2.458,1.703-8.509,9.765-3.1,11.6   c3.836,1.302,6.145-5.298,8.9-6.8C88.722,35.646,100.233,35.907,94.067,31.502" id="path231" style="fill:#9E40FF;"></path>

	<path d="M93.769,31.502c-3.654-2.452-8.941-2.293-12.601,0.3c-2.377,1.685-7.952,9.122-3.199,11.2   c3.768,1.647,6.22-5.032,8.9-6.5C88.765,35.462,99.532,36,93.769,31.502" id="path233" style="fill:#9F40FF;"></path>

</g>


  
</svg>
