<?xml version="1.0" encoding="utf-8"?>
<!-- Generator: Adobe Illustrator 10.0, SVG Export Plug-In . SVG Version: 3.0.0 Build 77)  --><svg enable-background="new 0 0 367.848 411.553" height="411.553" i:pageBounds="0 792 612 0" i:rulerOrigin="0 0" i:viewOrigin="122 601" overflow="visible" space="preserve" viewBox="0 0 367.848 411.553" width="367.848" xmlns="http://www.w3.org/2000/svg" xmlns:a="http://ns.adobe.com/AdobeSVGViewerExtensions/3.0/" xmlns:graph="http://ns.adobe.com/Graphs/1.0/" xmlns:i="http://ns.adobe.com/AdobeIllustrator/10.0/" xmlns:x="http://ns.adobe.com/Extensibility/1.0/" xmlns:xlink="http://www.w3.org/1999/xlink">
  <metadata>
    <rdf:RDF xmlns:cc="http://web.resource.org/cc/" xmlns:dc="http://purl.org/dc/elements/1.1/" xmlns:rdf="http://www.w3.org/1999/02/22-rdf-syntax-ns#">
      <cc:Work rdf:about="">
        <dc:title>Lemon (Half)</dc:title>
        <dc:description>Lemon (Half)</dc:description>
        <dc:subject>
          <rdf:Bag>
            <rdf:li>food</rdf:li>
            <rdf:li>lemon</rdf:li>
            <rdf:li>fruit</rdf:li>
          </rdf:Bag>
        </dc:subject>
        <dc:publisher>
          <cc:Agent rdf:about="http://www.openclipart.org/">
            <dc:title>Open Clip Art Project</dc:title>
          </cc:Agent>
        </dc:publisher>
        <dc:creator>
          <cc:Agent rdf:about="http://web.resource.org/cc/PublicDomain">
            <dc:title>Gerald G.</dc:title>
          </cc:Agent>
        </dc:creator>
        <dc:rights>
          <cc:Agent rdf:about="http://web.resource.org/cc/PublicDomain">
            <dc:title>Public Domain</dc:title>
          </cc:Agent>
        </dc:rights>
        <dc:date>2005/05/13</dc:date>
        <dc:format>image/svg+xml</dc:format>
        <dc:type rdf:resource="http://purl.org/dc/dcmitype/StillImage"/>
        <cc:license rdf:resource="http://web.resource.org/cc/PublicDomain"/>
        <dc:language>en</dc:language>
      </cc:Work>
      <cc:License rdf:about="http://web.resource.org/cc/PublicDomain">
        <cc:permits rdf:resource="http://web.resource.org/cc/Reproduction"/>
        <cc:permits rdf:resource="http://web.resource.org/cc/Distribution"/>
        <cc:permits rdf:resource="http://web.resource.org/cc/DerivativeWorks"/>
      </cc:License>
    </rdf:RDF>
  </metadata>
  <g i:dimmedPercent="50" i:layer="yes" i:rgbTrio="#4F008000FFFF" id="Layer_1">
    <g>
      <path clip-rule="evenodd" d="M192.132,0.72L178.308,0l-13.5,0.9     l-13.5,2.412l-15.876,4.932l-15.624,7.344L104.22,25.02L88.2,38.232l-18.9,19.08L51.192,78.444L33.48,102.42l-11.592,18.792     l-7.596,15.696l-6.804,18L2.592,175.32L0,194.94v7.092l1.08,11.412l3.6,15.588l8.532,31.932l2.088,12.385l2.7,36.504l1.98,16.488     l3.132,12.6L27,347.76l4.968,7.668l9,9.611l10.8,8.102l12.6,6.73l17.424,7.092l30.708,9.865l30.708,7.92l24.624,4.535     l16.488,1.801l16.2,0.469l15.301-1.189l18.287-3.6l18.145-5.4l17.82-7.199l17.567-9l17.388-10.691l20.412-15.301l13.032-11.699     l10.62-13.645l7.38-13.465l4.896-12.814l3.491-14.076l1.908-12.709l1.08-19.656l-0.468-17.855l-2.088-21.133l-3.024-17.675     l-4.607-18l-8.712-24.804l-14.257-32.652L311.328,82.62l-9.469-14.508l-7.308-8.712l-10.979-10.188l-15.732-11.7l-20.988-12.6     l-24.012-11.88L192.132,0.72z" fill="#F7F619" fill-rule="evenodd" i:knockout="Off"/>
      <path clip-rule="evenodd" d="M36.792,124.308V118.8l1.296-7.668l3.204-7.2     l6.876-8.712l12.024-13.788l15.588-16.92l10.44-9.468l4.212-2.232l1.08,0.72V54.9l-5.4,11.412l-20.232,36l-6.48,14.22     l-2.412,7.668l-0.9,4.5l0.324,5.832l1.656,5.4l5.4,8.208l13.5,13.104l8.064,7.92l3.456,5.076l1.044,5.112l-1.224,6.156     l-4.5,10.224l-5.328,8.1l-6.012,6.408l-4.968,3.203l-3.312,0.865l-2.988-1.08l-3.42-4.465l-5.688-13.536l-7.524-25.776l-5.688-27     l-2.088-16.128V124.308z" fill="#F9F980" fill-rule="evenodd" i:knockout="Off"/>
      <path clip-rule="evenodd" d="M38.988,348.84l0.504,3.707l2.376,4.537     l6.12,6.156l9.324,6.299l13.068,6.408l23.652,9.324l32.976,10.691l24.3,6.121l21.744,3.889l18.288,1.979l15.3,0.289l16.092-1.369     l12.889-2.699l13.428-4.5l10.8-5.508l-24.84-7.992l-23.58-9.611l-17.1-8.209l-11.376-7.523l-27.144-21.275l-7.776-4.393     l-5.4-1.477l-3.6,0.756l-3.744,4.033l-3.888,8.566l-7.092,24.588l-2.088,3.926l-1.8,0.611l-1.908-2.016l-2.592-5.689     l-5.508-21.887l-7.524-34.201l-4.968-14.688l-8.388-19.225l-6.624-11.016l-5.04-5.291l-3.6-1.621h-2.7l-5.076,2.377l-6.804,6.119     l-8.496,11.232l-6.3,10.98l-3.6,8.711l-3.024,11.701L37.08,322.74l0.108,11.699L38.988,348.84z" fill="#E8E800" fill-rule="evenodd" i:knockout="Off"/>
      <path clip-rule="evenodd" d="M100.332,220.32l-2.844-17.101l-2.268-25.776     l-1.188-32.004l0.468-24.516l1.512-19.8l2.7-18l4.5-17.28l4.896-12.924l4.824-8.388l7.38-9.288l8.496-7.2l9.504-5.832     l13.896-6.192l14.22-4.176l11.88-1.656l10.62-0.288l9.18,1.332l11.124,3.168l21.996,9.72l18,9.9l14.112,9.504l11.52,9.396     L286.74,65.7l12.42,17.712l14.399,24.408l17.101,34.488l12.42,30.312l7.199,22.32l4.681,19.08l2.52,20.232l0.288,17.389     l-0.72,16.523l-2.376,25.309l-3.024,18.467l-3.456,11.809l-5.832,11.736l-7.38,8.568l-10.439,8.494l-11.988,6.805l-10.979,4.32     l-12.744,3.492l-11.7,1.799l-10.656,0.396l-12.744-1.475l-11.195-3.133l-12.024-5.725l-14.868-9.467l-23.508-17.676     l-39.744-32.258l-16.668-15.479l-12.312-13.896l-10.008-14.4l-5.868-11.088l-4.932-14.543L100.332,220.32z" fill="#FFFFC7" fill-rule="evenodd" i:knockout="Off"/>
      <path clip-rule="evenodd" d="M210.24,174.24l-49.32-39.42l-35.1-29.808     l-5.4-6.3l-4.5-9.468l-2.232-8.532l-0.288-7.668l1.188-6.444l2.124-5.076l6.408-9.216l10.08-10.296l7.02-5.58l6.912-3.6     l3.888-0.9l3.492,0.468l4.176,2.7l4.824,6.624l5.328,11.52l8.388,22.968l16.2,45.72l8.28,28.512l0.899,3.708L210.24,174.24z" fill="#F7F619" fill-rule="evenodd" i:knockout="Off"/>
      <path clip-rule="evenodd" d="M203.328,133.452l-7.2-27.252l-7.021-21.276     l-17.1-38.016l-2.376-9l-0.18-4.464l1.368-3.744l3.312-3.6l6.588-3.6l8.388-1.98h6.444l5.4,1.188l7.487,4.536l6.588,6.768     l4.393,5.976l-1.98-0.288l3.168,0.144l7.92-0.612l3.313,0.612l2.268,1.476l3.313,6.3l1.512,7.704V66.42L236.952,90l-4.933,38.124     l-6.479,40.716l-3.601-1.62l-2.52,0.288l-2.988,2.124L203.328,133.452z" fill="#F7F619" fill-rule="evenodd" i:knockout="Off"/>
      <path clip-rule="evenodd" d="M235.62,166.428l0.899-10.584l6.732-33.624     l5.796-26.82l4.5-24.876l2.412-6.48l1.8-1.944l1.98-0.792l3.42,1.512l6.479,6.768l10.8,13.212l12.889,15.012l5.544,8.82     l3.456,10.476l1.044,7.812l-0.612,5.868l-2.412,5.652l-3.42,4.788l-9,7.416l-15.876,9.864l-18.792,9.612l-14.22,6.12l-1.8-0.288     l-1.188-2.124L235.62,166.428z" fill="#F7F619" fill-rule="evenodd" i:knockout="Off"/>
      <path clip-rule="evenodd" d="M243.252,183.42l3.096-2.376l23.004-8.424     l33.3-18.468l7.2-2.7l3.889-0.612l2.088,1.512l11.231,21.492l8.101,19.476l4.607,16.811l0.181,5.113l-1.188,2.988l-2.412,1.475     h-3.888l-9.72-2.555l-25.488-8.533L257.04,197.82l-8.712-3.78l-5.4-4.32l-1.008-2.988l0.72-2.7L243.252,183.42z" fill="#F7F619" fill-rule="evenodd" i:knockout="Off"/>
      <path clip-rule="evenodd" d="M241.74,197.244l2.88,0.396l16.308,7.092     l23.22,10.62l12.78,3.781l22.645,4.5l8.676,2.986l5.111,3.602l3.421,4.822l2.411,6.408l2.557,10.98l0.432,9.9l-0.432,7.92     l-2.7,14.221l-2.7,5.074l-2.268,1.225h-1.8l-5.221-1.943l-10.512-7.057l-14.4-12.527l-11.699-13.213l-14.221-17.279l-12.6-11.232     l-9.9-9l-11.088-14.292l-2.412-4.788v-1.62L241.74,197.244z" fill="#F7F619" fill-rule="evenodd" i:knockout="Off"/>
      <path clip-rule="evenodd" d="M198.72,178.02l-9.792-8.856l-42.84-32.256     L119.52,113.22l-6.12-3.708l-2.988-0.792l-2.88,1.404l-1.8,3.384l-1.332,9l-0.18,27.324l1.512,10.008l2.88,6.804l3.888,3.996     l6.408,2.988l10.404,2.304l17.676,2.988l30.42,7.02l11.232,1.368l8.101-0.864l3.312-1.512l0.9-1.8l-0.612-2.592L198.72,178.02z" fill="#F7F619" fill-rule="evenodd" i:knockout="Off"/>
      <path clip-rule="evenodd" d="M211.752,202.644l-2.521-0.504l-2.592-0.468     l-2.52-0.432l-2.593-0.396l-2.628-0.432l-2.628-0.432l-2.664-0.36l-2.699-0.36l-2.736-0.288l-2.772-0.288l-2.808-0.324     l-2.88-0.252l-2.88-0.216l-2.952-0.252l-2.952-0.252l-2.988-0.144l-3.132-0.252l-3.24-0.36l-3.42-0.468l-3.42-0.576l-3.528-0.504     l-3.528-0.612l-3.6-0.468l-3.564-0.432l-3.528-0.36l-3.42-0.144h-3.348l-3.24,0.252l-3.06,0.54l-2.952,0.792l-2.7,1.152     l-2.448,1.44l-2.16,1.8l-1.62,1.908l-1.152,2.052l-0.648,2.16l-0.36,2.268v2.34l0.216,2.377l0.504,2.412l0.72,2.52l0.756,2.484     l0.972,2.375l0.972,2.449l0.9,2.375l0.9,2.305l0.828,2.16l0.648,2.123l0.54,2.053l0.612,1.908l0.612,1.799l0.72,1.729     l0.648,1.764l0.792,1.656l0.828,1.619l0.9,1.693l0.972,1.619l1.08,1.693l1.116,1.727l1.26,1.801l1.332,1.871l1.512,1.945     l1.548,2.051l1.728,2.16l1.872,2.484l2.16,2.629l2.268,2.879l2.52,2.988l2.664,3.168l2.7,3.203l2.808,3.24l2.808,3.168     l2.88,3.061l2.772,3.023l2.772,2.809l2.628,2.592l2.52,2.268l2.34,1.98l2.16,1.621l1.98,1.188l1.692,0.863l1.476,0.576     l1.404,0.359l1.26,0.072l1.116-0.143l1.08-0.289l0.972-0.539l0.9-0.721l0.9-0.973l0.828-1.08l0.792-1.223l0.828-1.404     l0.864-1.549l0.899-1.729l0.937-1.799l1.044-2.016l1.008-2.088l1.008-2.521l1.044-2.699l1.08-2.988l1.008-3.168l1.08-3.383     l1.008-3.457l1.044-3.6l1.009-3.6l0.972-3.672l0.936-3.602l0.9-3.6l0.864-3.492l0.828-3.348l0.792-3.168l0.72-3.023l0.576-2.736     l0.684-2.771l0.54-2.701l0.54-2.699l0.54-2.592l0.468-2.557l0.433-2.52l0.359-2.484l0.36-2.412l0.36-2.305l0.216-2.375     l0.324-2.268l0.216-2.197l0.18-2.23l0.145-2.089L211.752,202.644z" fill="#F7F619" fill-rule="evenodd" i:knockout="Off"/>
      <path clip-rule="evenodd" d="M217.151,232.631l-18,72.396l-1.224,9     l0.324,7.201l1.8,5.111l5.868,5.545l12.888,9.143l14.22,7.633l10.225,3.779l8.676,1.188l9.9-0.287l8.244-1.656l4.355-2.123     l2.7-2.809v-3.492l-5.688-16.309l-25.092-54.898l-5.616-15.408l-4.68-16.992l-5.724-23.689l-2.521-5.398l-1.656-1.225     l-1.331,0.611l-4.393,7.668L217.151,232.631z" fill="#F7F619" fill-rule="evenodd" i:knockout="Off"/>
      <path clip-rule="evenodd" d="M240.12,221.832l7.308,27.287l13.5,36.541     l11.124,26.1l7.021,12.779l7.955,10.332l4.933,4.213l4.392,1.656l3.708,0.145l4.968-2.412l8.425-8.102l7.92-11.088l3.275-6.119     l0.792-4.68l-1.367-3.457l-18.145-20.988l-25.776-27.719l-4.212-6.156l-2.699-6.336l-10.692-11.52l-19.728-19.656l-5.293-6.301     l-0.72,0.288l0.145,2.987L240.12,221.832z" fill="#F7F619" fill-rule="evenodd" i:knockout="Off"/>
      <path clip-rule="evenodd" d="M259.452,255.564l-0.324,0.287l1.512,6.588     l6.12,16.201l7.092,13.318l11.7,17.605l1.476,1.295v-1.295l-4.5-14.113l-6.588-14.904l-9-15.119l-7.38-9.863H259.452z" fill="#FFFFC7" fill-rule="evenodd" i:knockout="Off"/>
      <path clip-rule="evenodd" d="M283.859,273.959l5.58,5.725l13.933,18.289     l3.888,6.912l-0.288,2.375l-1.944,1.512l-2.556,0.289l-3.6-1.621l-3.42-5.076l-7.813-16.811l-3.6-9.793l-0.288-1.801H283.859z" fill="#FFFFC7" fill-rule="evenodd" i:knockout="Off"/>
      <path clip-rule="evenodd" d="M269.352,221.039h-0.18l11.556,9     l11.124,13.393l4.32,5.221l-2.232-6.012l-5.688-9.396l-6.48-5.617l-12.023-6.406L269.352,221.039z" fill="#FFFFC7" fill-rule="evenodd" i:knockout="Off"/>
      <path clip-rule="evenodd" d="M291.672,224.82l20.88,8.711l11.088,5.508     l-0.288,0.324l-3.6-0.143l-9-2.27l-10.08-5.398l-9-6.301l-0.324-0.611L291.672,224.82z" fill="#FFFFC7" fill-rule="evenodd" i:knockout="Off"/>
      <path clip-rule="evenodd" d="M270.828,177.228l1.332-0.576l0.18,0.18     l4.32-0.612l38.268-11.988l0.72,0.108l-7.02,4.392l-15.769,7.2l-20.808,6.408l-5.724,1.08l-0.756-0.9l3.455-4.068     L270.828,177.228z" fill="#FFFFC7" fill-rule="evenodd" i:knockout="Off"/>
      <path clip-rule="evenodd" d="M293.147,195.732l9.181,1.908l27.54,3.6     l0.899-0.108l-16.128-4.5l-15.191-3.312h-4.177l-2.52,1.188v0.936L293.147,195.732z" fill="#FFFFC7" fill-rule="evenodd" i:knockout="Off"/>
      <path clip-rule="evenodd" d="M248.651,155.844l5.076-2.592l17.101-11.412     l22.031-19.116l3.313-3.816h-0.72l-12.313,6.912l-16.992,11.232l-11.52,11.088l-5.977,7.092V155.844z" fill="#FFFFC7" fill-rule="evenodd" i:knockout="Off"/>
      <path clip-rule="evenodd" d="M269.352,118.188l10.296-10.368l1.801-2.808     l-2.521,0.72l-9.576,5.58l-1.691,2.088l-0.433,2.844l1.044,1.944H269.352z" fill="#FFFFC7" fill-rule="evenodd" i:knockout="Off"/>
      <path clip-rule="evenodd" d="M225.54,63.612l0.611,14.832v22.68     l-1.044,18.72l-0.288,1.368l-1.079-6.3l-1.332-22.788l1.332-18.612l1.691-10.08L225.54,63.612z" fill="#FFFFC7" fill-rule="evenodd" i:knockout="Off"/>
      <path clip-rule="evenodd" d="M194.832,42.12l5.076,23.868l3.42,20.736     l-0.576,0.396l-3.601-7.02l-4.319-12.78l-1.08-11.412V44.82l0.756-3.096L194.832,42.12z" fill="#FFFFC7" fill-rule="evenodd" i:knockout="Off"/>
      <path clip-rule="evenodd" d="M203.328,99l-0.108,0.108l4.608,22.824     l6.804,28.296l0.108,0.216l-4.032-27.72l-3.168-13.392l-4.032-10.224L203.328,99z" fill="#FFFFC7" fill-rule="evenodd" i:knockout="Off"/>
      <path clip-rule="evenodd" d="M170.208,84.312l8.712,24.3l9.612,31.752     l0.575,4.464l-7.956-17.028l-9.324-24.3l-2.376-10.656L169.02,84.6l0.432-1.08L170.208,84.312z" fill="#FFFFC7" fill-rule="evenodd" i:knockout="Off"/>
      <path clip-rule="evenodd" d="M134.208,88.2l13.5,15.732l5.112,4.968     l-0.108-0.9l-5.112-9.18l-3.78-4.788l-7.632-5.724l-2.088-0.72L134.208,88.2z" fill="#FFFFC7" fill-rule="evenodd" i:knockout="Off"/>
      <path clip-rule="evenodd" d="M137.988,59.724l6.444,10.584l2.088,2.016     l0.612-0.936l-0.324-2.556l-6.12-7.02l-2.7-2.304V59.724z" fill="#FFFFC7" fill-rule="evenodd" i:knockout="Off"/>
      <path clip-rule="evenodd" d="M144.9,55.908l9.9,14.4l3.6,4.212V72.9     l-2.88-6.912l-4.932-5.688l-5.688-4.68V55.908z" fill="#FFFFC7" fill-rule="evenodd" i:knockout="Off"/>
      <path clip-rule="evenodd" d="M167.94,163.44L144,151.452l-2.988-0.432     l-1.512,1.512l0.612,2.376l3.42,2.844l13.68,4.68l23.796,6.408h0.144L167.94,163.44z" fill="#FFFFC7" fill-rule="evenodd" i:knockout="Off"/>
      <path clip-rule="evenodd" d="M119.52,164.232l24.012,5.508l11.556,1.98     l-7.776-3.78l-13.824-4.5l-6.588-0.72l-6.912,0.324l-1.188,0.72L119.52,164.232z" fill="#FFFFC7" fill-rule="evenodd" i:knockout="Off"/>
      <path clip-rule="evenodd" d="M125.712,204.12l9.288,0.108l36.828,2.735     l2.88,0.758l-1.476,1.043l-8.1,1.367h-7.2l-19.62-3.023l-12.6-2.879l-0.18-0.108H125.712z" fill="#FFFFC7" fill-rule="evenodd" i:knockout="Off"/>
      <path clip-rule="evenodd" d="M179.532,214.164h-1.404l-25.596,9.756     l-18.72,6.588l-0.18,0.611l8.568-0.18l11.412-1.619l5.796-1.693l9.324-5.074l10.296-7.92L179.532,214.164z" fill="#FFFFC7" fill-rule="evenodd" i:knockout="Off"/>
      <path clip-rule="evenodd" d="M199.439,222.553l-0.611,10.691l-3.42,26.207     l-2.089,10.189l-3.491,7.92l-2.809,3.924l-1.368,0.287l-0.323-4.32l1.979-16.02l5.4-21.203l5.544-16.309l1.08-1.477     L199.439,222.553z" fill="#FFFFC7" fill-rule="evenodd" i:knockout="Off"/>
      <path clip-rule="evenodd" d="M219.42,268.633l-3.313,19.33l-2.987,24.266     l0.611,1.043l2.088-3.924l1.62-7.92l1.98-28.801v-4.176V268.633z" fill="#FFFFC7" fill-rule="evenodd" i:knockout="Off"/>
      <path clip-rule="evenodd" d="M227.952,254.053l0.18,4.967l2.376,16.453     l2.7,10.08l5.22,11.088l8.1,12.42l1.332,1.08l-4.319-12.781l-9.612-25.596l-5.796-17.711l-0.18-0.145V254.053z" fill="#FFFFC7" fill-rule="evenodd" i:knockout="Off"/>
      <path clip-rule="evenodd" d="M31.392,264.852H28.8l-5.508,3.168     l-0.18,0.721l4.68,1.691l0.9,2.34l0.576,4.5l1.332,0.289l4.068-2.088L36,273.672l-0.9-3.564l-2.52-4.355L31.392,264.852z" fill="#F9F980" fill-rule="evenodd" i:knockout="Off"/>
      <path clip-rule="evenodd" d="M33.588,263.232l-1.908-0.18l-5.4,2.592     l-0.9,1.295l4.608,1.801l0.9,2.412l0.792,4.5l1.512,0.287l4.32-2.375l0.9-2.018l-1.512-4.428l-2.988-3.779L33.588,263.232z" fill="#DBDB00" fill-rule="evenodd" i:knockout="Off"/>
      <path clip-rule="evenodd" d="M31.968,164.34h-2.376l-5.112,2.88l-0.18,0.72     l4.5,1.8l0.9,3.6l0.468,2.412l1.332,0.468l3.6-1.8l1.188-2.268l-1.8-4.788l-2.376-3.024H31.968z" fill="#F9F980" fill-rule="evenodd" i:knockout="Off"/>
      <path clip-rule="evenodd" d="M34.2,162.72h-2.088l-5.544,2.988l-0.18,0.72     l4.392,1.512l0.9,2.412l0.612,3.888l1.296,0.324l3.6-1.8l1.404-2.232l-1.512-4.5l-2.7-3.312H34.2z" fill="#DBDB00" fill-rule="evenodd" i:knockout="Off"/>
      <path clip-rule="evenodd" d="M55.08,331.271l-1.8-0.324l-5.58,2.125     l-3.888,2.988l0.468,0.611l5.688,1.98l1.332,2.699l0.792,6.121l1.188,1.08l2.412-0.469l4.32-2.52l1.476-2.592l-1.296-4.934     l-3.78-5.867L55.08,331.271z" fill="#F9F980" fill-rule="evenodd" i:knockout="Off"/>
      <path clip-rule="evenodd" d="M58.212,329.039l-1.8-0.287l-6.444,2.52     l-3.168,2.701l1.08,0.791l4.788,1.297l1.512,1.799l1.188,7.488l1.332,0.793l2.988-0.9l3.78-2.557l1.044-2.412L63,335.16     l-3.42-5.221L58.212,329.039z" fill="#DBDB00" fill-rule="evenodd" i:knockout="Off"/>
      <path clip-rule="evenodd" d="M72.18,181.44h-1.692l-3.708,2.268     l-0.18,0.324l3.312,1.188l0.756,3.6l0.432,0.9l2.88-1.08l1.188-1.62l-1.8-4.5L72.18,181.44z" fill="#F9F980" fill-rule="evenodd" i:knockout="Off"/>
      <path clip-rule="evenodd" d="M73.692,180.432H72l-3.708,2.196l-0.18,0.324     l3.276,1.188l0.792,3.6l0.432,0.9l3.168-1.332l0.9-1.476l-1.692-4.212L73.692,180.432z" fill="#DBDB00" fill-rule="evenodd" i:knockout="Off"/>
      <path clip-rule="evenodd" d="M62.892,228.42l-0.18,0.145l4.068,4.787     l1.908,1.08l2.304-1.801l0.576-1.799l-2.556-1.512l-5.544-1.08L62.892,228.42z" fill="#F9F980" fill-rule="evenodd" i:knockout="Off"/>
      <path clip-rule="evenodd" d="M64.188,227.627l-0.108,0.217l4.032,4.789     l1.98,1.008l2.196-1.801l0.612-1.801l-2.52-1.475l-5.58-1.045L64.188,227.627z" fill="#DBDB00" fill-rule="evenodd" i:knockout="Off"/>
      <path clip-rule="evenodd" d="M112.608,330.084l-0.108,0.145l3.888,4.824     l1.944,1.008l2.376-1.801l0.612-1.801l-2.52-1.512l-5.58-1.008L112.608,330.084z" fill="#F9F980" fill-rule="evenodd" i:knockout="Off"/>
      <path clip-rule="evenodd" d="M114.012,329.363l-0.18,0.109l4.068,4.787     l1.908,1.08l2.304-1.801l0.576-1.799l-2.556-1.512l-5.544-1.08L114.012,329.363z" fill="#DBDB00" fill-rule="evenodd" i:knockout="Off"/>
      <path clip-rule="evenodd" d="M148.932,350.027l-0.144,0.145l3.024,4.5     l5.4,4.969l1.476,0.432l3.132-2.125l1.692-3.6l-1.404-1.477l-9.288-2.844l-3.888-0.143V350.027z" fill="#F9F980" fill-rule="evenodd" i:knockout="Off"/>
      <path clip-rule="evenodd" d="M151.2,348.84l-0.18,0.107l2.7,4.213     l5.868,5.291l1.512,0.434l2.808-1.945l1.944-3.455l-0.72-1.656l-8.244-2.664l-5.58-0.611L151.2,348.84z" fill="#DBDB00" fill-rule="evenodd" i:knockout="Off"/>
      <path clip-rule="evenodd" d="M67.5,296.641l-0.108,0.107l2.196,3.816     l6.192,5.688l1.512,0.432l2.808-1.943l1.908-3.781L81,299.484l-8.532-2.736l-4.788-0.396L67.5,296.641z" fill="#F9F980" fill-rule="evenodd" i:knockout="Off"/>
      <path clip-rule="evenodd" d="M69.768,295.271l-0.18,0.18l3.492,5.113     l5.688,4.787h1.512l2.952-2.699l1.188-3.025l-1.332-1.475l-7.02-2.412l-6.156-0.793L69.768,295.271z" fill="#DBDB00" fill-rule="evenodd" i:knockout="Off"/>
      <path clip-rule="evenodd" d="M138.708,328.752l-0.108,0.107l3.888,4.824     l1.944,1.08l2.376-1.801l0.612-1.799l-2.52-1.512l-5.58-1.08L138.708,328.752z" fill="#F9F980" fill-rule="evenodd" i:knockout="Off"/>
      <path clip-rule="evenodd" d="M140.112,327.959l-0.18,0.182l4.068,4.932     l1.908,1.08l1.98-1.693l0.9-2.088l-1.656-1.008l-6.444-1.691L140.112,327.959z" fill="#DBDB00" fill-rule="evenodd" i:knockout="Off"/>
      <path clip-rule="evenodd" d="M96.012,274.859l-0.144,0.18l-0.036,0.182     l-0.072,0.143v0.145v0.217v0.143v0.217l0.072,0.145l0.036,0.215l0.144,0.145l0.036,0.217l0.144,0.143l0.18,0.217l0.108,0.145     l0.18,0.143l0.252,0.109l0.18,0.18l0.18,0.145l0.216,0.035l0.18,0.107l0.252,0.072l0.18,0.072h0.252h0.18h0.216h0.18l0.18-0.072     l0.18-0.072l0.18-0.107l0.144-0.035l0.108-0.145l0.18-0.18l0.072-0.109l0.036-0.143v-0.145l0.072-0.217v-0.143l-0.072-0.217     v-0.217l-0.036-0.18l-0.072-0.18l-0.072-0.252l-0.108-0.18l-0.108-0.18l-0.144-0.18l-0.18-0.182l-0.108-0.107l-0.18-0.18     l-0.252-0.107l-0.18-0.145l-0.216-0.072l-0.18-0.035l-0.252-0.072l-0.252-0.037h-0.18h-0.18l-0.216,0.037h-0.18l-0.18,0.072     l-0.18,0.035l-0.18,0.145l-0.144,0.072l-0.108,0.107L96.012,274.859z" fill="#F9F980" fill-rule="evenodd" i:knockout="Off"/>
      <path clip-rule="evenodd" d="M96.408,274.141l-0.108,0.18l-0.108,0.107     l-0.072,0.217v0.143l-0.072,0.217v0.145l0.072,0.215l0.072,0.145l0.036,0.217l0.072,0.143l0.072,0.217l0.108,0.145l0.18,0.215     l0.108,0.109l0.18,0.18l0.252,0.107l0.18,0.18l0.18,0.072l0.252,0.107l0.18,0.072l0.216,0.037l0.18,0.07h0.252h0.18h0.252h0.18     l0.18-0.07l0.18-0.037l0.18-0.072l0.108-0.107l0.108-0.072l0.18-0.18l0.072-0.107l0.072-0.18v-0.182l0.036-0.18v-0.18     l-0.036-0.18v-0.18l-0.072-0.252l-0.072-0.18l-0.036-0.182l-0.144-0.18l-0.108-0.18l-0.108-0.18l-0.18-0.18l-0.144-0.18     l-0.18-0.182l-0.216-0.107l-0.18-0.072l-0.252-0.107l-0.18-0.072l-0.252-0.035h-0.18h-0.216h-0.18h-0.18L97.2,273.6l-0.108,0.072     l-0.18,0.035l-0.18,0.072l-0.144,0.145l-0.108,0.107L96.408,274.141z" fill="#DBDB00" fill-rule="evenodd" i:knockout="Off"/>
      <path clip-rule="evenodd" d="M68.112,122.724l-0.144,0.144l-0.036,0.144     v0.18v0.18l-0.072,0.18l0.072,0.18v0.18l0.036,0.18l0.072,0.18l0.072,0.18l0.108,0.18l0.108,0.18l0.144,0.18l0.18,0.108     l0.108,0.18l0.252,0.108l0.18,0.216l0.18,0.036l0.216,0.108l0.18,0.072l0.252,0.072l0.18,0.072h0.252h0.18h0.18h0.216     l0.144-0.072l0.18-0.072l0.18-0.072l0.108-0.108l0.108-0.036l0.144-0.216l0.036-0.108l0.144-0.18l0.036-0.108v-0.18l0.072-0.18     v-0.18l-0.072-0.18v-0.18L72,123.912l-0.072-0.18l-0.036-0.18l-0.144-0.18l-0.18-0.18l-0.108-0.18l-0.18-0.144l-0.18-0.144     l-0.252-0.144l-0.18-0.108l-0.216-0.072l-0.18-0.108l-0.252-0.072l-0.18-0.072h-0.252h-0.18h-0.216h-0.18l-0.18,0.072     l-0.18,0.072l-0.18,0.108l-0.144,0.072l-0.108,0.108L68.112,122.724z" fill="#F9F980" fill-rule="evenodd" i:knockout="Off"/>
      <path clip-rule="evenodd" d="M68.58,121.932l-0.108,0.18l-0.144,0.18     l-0.036,0.108v0.18l-0.072,0.18v0.18l0.072,0.18v0.18l0.036,0.18l0.144,0.18l0.036,0.18l0.144,0.18l0.108,0.18l0.18,0.18     l0.108,0.144l0.252,0.108l0.18,0.18l0.18,0.108l0.252,0.072l0.216,0.108l0.18,0.072l0.252,0.072h0.18h0.252h0.18h0.18l0.18-0.072     l0.18-0.072l0.18-0.108L72,124.92l0.108-0.108l0.18-0.18l0.072-0.108l0.072-0.144l0.036-0.18v-0.18v-0.18v-0.18v-0.18     l-0.036-0.18l-0.072-0.18l-0.108-0.18l-0.072-0.18l-0.108-0.18l-0.18-0.18l-0.144-0.108l-0.18-0.18l-0.18-0.18l-0.216-0.144     l-0.18-0.036l-0.252-0.108l-0.18-0.072l-0.252-0.072l-0.18-0.072h-0.18l-0.216-0.036l-0.18,0.036h-0.18l-0.18,0.072l-0.18,0.072     l-0.144,0.072l-0.108,0.108l-0.108,0.036L68.58,121.932z" fill="#DBDB00" fill-rule="evenodd" i:knockout="Off"/>
      <path clip-rule="evenodd" d="M212.651,361.152l-0.144,0.18l-0.036,0.107     v0.18v0.182l-0.072,0.18l0.072,0.18v0.18l0.036,0.18l0.072,0.18l0.071,0.18l0.108,0.182l0.108,0.18l0.144,0.18l0.18,0.145     l0.108,0.143l0.252,0.145l0.18,0.18l0.181,0.037l0.216,0.143l0.18,0.072l0.252,0.037l0.181,0.072h0.252h0.18h0.18h0.216     l0.145-0.072l0.18-0.037l0.181-0.072l0.107-0.143l0.108-0.037l0.144-0.18l0.036-0.145l0.144-0.143l0.036-0.145v-0.18l0.072-0.18     v-0.182l-0.072-0.18v-0.18l-0.107-0.18l-0.072-0.18l-0.036-0.18l-0.144-0.18l-0.181-0.182l-0.107-0.18l-0.18-0.107l-0.181-0.18     l-0.252-0.109l-0.18-0.143l-0.216-0.072l-0.181-0.107l-0.252-0.037l-0.18-0.072h-0.252h-0.18h-0.217h-0.18l-0.18,0.072     l-0.181,0.037l-0.18,0.107l-0.144,0.072l-0.108,0.143L212.651,361.152z" fill="#F9F980" fill-rule="evenodd" i:knockout="Off"/>
      <path clip-rule="evenodd" d="M213.12,360.359l-0.108,0.18l-0.144,0.182     l-0.036,0.107v0.215l-0.072,0.145v0.217l0.072,0.143v0.217l0.036,0.145l0.144,0.215l0.036,0.145l0.144,0.217l0.108,0.143     l0.18,0.217l0.108,0.107l0.252,0.109l0.18,0.18l0.181,0.107l0.252,0.072l0.216,0.145l0.18,0.035l0.252,0.072h0.181h0.252h0.18     h0.18l0.181-0.072l0.18-0.035l0.18-0.145l0.108-0.072l0.107-0.107l0.181-0.18l0.071-0.109l0.072-0.107l0.036-0.217v-0.143v-0.217     v-0.145v-0.215l-0.036-0.145l-0.072-0.217l-0.107-0.143l-0.072-0.217l-0.108-0.145l-0.18-0.215l-0.144-0.107l-0.181-0.182     l-0.18-0.18l-0.216-0.107l-0.18-0.072l-0.252-0.107L215.1,360l-0.252-0.037l-0.18-0.07h-0.18l-0.217-0.072l-0.18,0.072h-0.18     l-0.181,0.07l-0.18,0.037l-0.144,0.072l-0.108,0.107l-0.108,0.072L213.12,360.359z" fill="#DBDB00" fill-rule="evenodd" i:knockout="Off"/>
      <path clip-rule="evenodd" d="M66.168,73.188l-0.216,0.324l-0.144,0.252     l-0.036,0.288L65.7,74.34l-0.072,0.288l0.072,0.324l0.072,0.36l0.036,0.288l0.144,0.36l0.18,0.324l0.18,0.288l0.18,0.288     l0.288,0.288l0.252,0.324l0.288,0.288l0.36,0.252l0.288,0.216l0.36,0.252l0.36,0.108l0.36,0.216l0.36,0.036l0.36,0.072     l0.36,0.036h0.36l0.324-0.036l0.36-0.072l0.288-0.036l0.288-0.144l0.324-0.18l0.216-0.18l0.252-0.18l0.252-0.288L72.9,77.58     l0.108-0.216l0.072-0.324l0.072-0.288v-0.324V76.14l-0.072-0.36l-0.072-0.288l-0.108-0.36l-0.108-0.288l-0.18-0.324l-0.252-0.288     l-0.252-0.324l-0.216-0.288l-0.324-0.288l-0.288-0.288l-0.432-0.216l-0.36-0.216l-0.36-0.18l-0.396-0.108l-0.36-0.144     l-0.36-0.072h-0.36l-0.36-0.036l-0.324,0.036l-0.36,0.072l-0.288,0.072l-0.288,0.108l-0.252,0.18l-0.252,0.18l-0.18,0.252     L66.168,73.188z" fill="#F9F980" fill-rule="evenodd" i:knockout="Off"/>
      <path clip-rule="evenodd" d="M66.6,71.82l-0.18,0.288l-0.108,0.324     L66.24,72.72l-0.072,0.324v0.288l0.072,0.288l0.072,0.288l0.108,0.36l0.108,0.324l0.18,0.36l0.18,0.288l0.18,0.324l0.252,0.288     l0.288,0.288l0.324,0.252l0.36,0.252l0.288,0.288l0.36,0.18l0.36,0.18l0.36,0.108l0.36,0.108l0.36,0.144h0.36l0.36,0.072     l0.288-0.072h0.36l0.324-0.144L72.36,77.4l0.288-0.108l0.252-0.18l0.252-0.18l0.216-0.288l0.144-0.252l0.108-0.324l0.072-0.288     l0.036-0.36v-0.288v-0.36l-0.036-0.288l-0.072-0.36L73.44,73.8l-0.108-0.288l-0.18-0.36L72.9,72.828l-0.252-0.288l-0.288-0.288     L72,72l-0.288-0.288l-0.36-0.252l-0.36-0.18l-0.36-0.18l-0.36-0.108l-0.36-0.108l-0.36-0.072h-0.36h-0.324h-0.36l-0.36,0.072     l-0.288,0.108L67.572,71.1l-0.324,0.144l-0.216,0.144L66.78,71.64L66.6,71.82z" fill="#DBDB00" fill-rule="evenodd" i:knockout="Off"/>
      <path clip-rule="evenodd" d="M90.9,242.027l-0.18,0.324l-0.108,0.289     l-0.072,0.322l-0.072,0.289v0.287v0.289l0.072,0.324l0.072,0.359l0.108,0.289l0.18,0.359l0.18,0.324l0.252,0.287l0.216,0.289     l0.324,0.287l0.288,0.252l0.36,0.252l0.288,0.289l0.36,0.18l0.36,0.18l0.36,0.145l0.36,0.107l0.36,0.035h0.36h0.36h0.36     l0.324-0.035l0.288-0.107l0.288-0.145l0.324-0.107l0.216-0.182l0.252-0.252l0.252-0.252l0.108-0.215l0.108-0.289l0.072-0.324     l0.072-0.287v-0.324v-0.287l-0.072-0.289l-0.072-0.359l-0.108-0.289l-0.18-0.359l-0.18-0.324l-0.252-0.287l-0.216-0.324     l-0.324-0.289l-0.288-0.215l-0.288-0.324l-0.36-0.252l-0.36-0.145l-0.36-0.215l-0.36-0.109l-0.36-0.107l-0.36-0.145h-0.36     l-0.36-0.035l-0.36,0.035l-0.324,0.072l-0.288,0.072l-0.288,0.107l-0.324,0.18l-0.216,0.182l-0.252,0.252L90.9,242.027z" fill="#F9F980" fill-rule="evenodd" i:knockout="Off"/>
      <path clip-rule="evenodd" d="M91.512,240.732l-0.18,0.287l-0.144,0.252     l-0.036,0.289l-0.072,0.324v0.287v0.287l0.072,0.361l0.036,0.287l0.144,0.361l0.108,0.322l0.18,0.289l0.252,0.324l0.216,0.287     l0.252,0.289l0.288,0.287l0.36,0.252l0.36,0.252l0.36,0.217l0.36,0.215l0.36,0.109l0.36,0.107l0.432,0.072l0.36,0.072h0.288h0.36     l0.324-0.072l0.36-0.072l0.216-0.107l0.324-0.109l0.216-0.215l0.18-0.217l0.252-0.252l0.108-0.252l0.18-0.287l0.072-0.289     l0.072-0.359v-0.289v-0.359l-0.072-0.324L98.388,243l-0.108-0.289l-0.18-0.359l-0.18-0.324l-0.252-0.287l-0.216-0.289     l-0.252-0.287l-0.288-0.324l-0.324-0.287l-0.36-0.182l-0.36-0.252l-0.36-0.107l-0.36-0.18l-0.36-0.072l-0.36-0.035l-0.36-0.072     h-0.36l-0.36,0.072l-0.288,0.035l-0.288,0.072l-0.324,0.107l-0.288,0.18l-0.252,0.182l-0.216,0.18L91.512,240.732z" fill="#DBDB00" fill-rule="evenodd" i:knockout="Off"/>
      <path clip-rule="evenodd" d="M27.792,222.119l-0.252,0.324l-0.108,0.217     l-0.072,0.287l-0.072,0.324l-0.036,0.289l0.036,0.324l0.072,0.359l0.072,0.287l0.108,0.361l0.18,0.287l0.18,0.289l0.18,0.322     l0.288,0.289l0.252,0.324l0.288,0.287l0.36,0.217l0.324,0.252l0.36,0.252l0.36,0.18l0.36,0.107l0.36,0.145l0.396,0.035     l0.36,0.072h0.36h0.324l0.36-0.072l0.288-0.035l0.288-0.145l0.324-0.107l0.216-0.18l0.18-0.252l0.252-0.252l0.108-0.217     l0.18-0.287l0.072-0.324l0.072-0.289v-0.322v-0.361l-0.072-0.287l-0.072-0.361L34.56,224.1l-0.18-0.287l-0.18-0.361l-0.252-0.287     l-0.216-0.324l-0.252-0.287l-0.288-0.324l-0.324-0.289l-0.36-0.18l-0.36-0.18l-0.36-0.18l-0.36-0.109l-0.36-0.07l-0.396-0.072     l-0.36-0.037h-0.36h-0.324l-0.36,0.037l-0.288,0.143l-0.288,0.109l-0.324,0.107l-0.216,0.217l-0.18,0.143L27.792,222.119z" fill="#F9F980" fill-rule="evenodd" i:knockout="Off"/>
      <path clip-rule="evenodd" d="M28.368,220.752l-0.216,0.287l-0.144,0.324     l-0.036,0.289l-0.072,0.287l-0.072,0.289l0.072,0.359l0.072,0.324l0.036,0.359l0.144,0.289l0.18,0.324l0.18,0.359l0.18,0.287     l0.288,0.289l0.252,0.252l0.288,0.287l0.36,0.18l0.288,0.289l0.36,0.215l0.36,0.145l0.36,0.145l0.36,0.107l0.36,0.107h0.36     l0.36,0.072l0.324-0.072h0.36l0.288-0.107l0.288-0.107l0.324-0.145l0.216-0.145l0.252-0.215l0.252-0.289l0.108-0.215l0.108-0.252     l0.072-0.324l0.072-0.289V224.1v-0.287l-0.072-0.361l-0.072-0.287l-0.18-0.359l-0.108-0.324l-0.18-0.361l-0.252-0.287     l-0.216-0.324l-0.324-0.217l-0.36-0.287l-0.288-0.252l-0.36-0.18l-0.36-0.252l-0.36-0.18l-0.36-0.109l-0.36-0.107l-0.36-0.072     l-0.288-0.072h-0.36h-0.36l-0.324,0.072l-0.288,0.072l-0.288,0.107l-0.252,0.109l-0.252,0.18l-0.18,0.252L28.368,220.752z" fill="#DBDB00" fill-rule="evenodd" i:knockout="Off"/>
      <path clip-rule="evenodd" d="M99,361.26l-0.252,0.287l-0.108,0.324     l-0.072,0.289l-0.036,0.324l-0.072,0.287l0.072,0.359l0.036,0.289l0.072,0.359l0.108,0.289l0.18,0.324l0.18,0.359l0.18,0.287     l0.324,0.324l0.216,0.217l0.324,0.287l0.36,0.217l0.288,0.287l0.36,0.18l0.36,0.182l0.36,0.107l0.36,0.107l0.36,0.145h0.36     l0.36,0.072l0.288-0.072h0.36l0.324-0.145l0.288-0.107l0.288-0.107l0.252-0.182l0.252-0.18l0.216-0.287l0.144-0.252l0.108-0.252     l0.072-0.289l0.036-0.359v-0.287v-0.324l-0.036-0.361l-0.072-0.359l-0.18-0.287l-0.108-0.361l-0.18-0.324l-0.252-0.359     l-0.252-0.287l-0.288-0.289l-0.36-0.252l-0.288-0.287l-0.36-0.18l-0.36-0.182l-0.36-0.18l-0.36-0.143l-0.36-0.037l-0.36-0.072     l-0.324-0.035h-0.36h-0.36l-0.288,0.035l-0.288,0.072l-0.324,0.107l-0.216,0.145l-0.252,0.145l-0.18,0.252L99,361.26z" fill="#F9F980" fill-rule="evenodd" i:knockout="Off"/>
      <path clip-rule="evenodd" d="M99.432,359.963l-0.18,0.289l-0.144,0.217     l-0.036,0.322L99,361.08v0.359v0.324l0.072,0.359l0.108,0.289l0.108,0.359l0.144,0.359l0.18,0.289l0.216,0.287l0.252,0.361     l0.288,0.324l0.36,0.252l0.36,0.215l0.324,0.252l0.36,0.18l0.36,0.182l0.36,0.107l0.36,0.072l0.36,0.072l0.36,0.035h0.36h0.288     l0.36-0.035l0.288-0.072l0.324-0.145l0.288-0.107l0.252-0.18l0.216-0.217l0.252-0.252l0.108-0.252l0.144-0.289l0.036-0.287     l0.072-0.324v-0.287l-0.072-0.324l-0.036-0.289l-0.144-0.359l-0.108-0.287l-0.18-0.361l-0.18-0.287l-0.18-0.324l-0.252-0.289     l-0.288-0.322l-0.288-0.217l-0.324-0.287l-0.36-0.254l-0.36-0.18l-0.36-0.18l-0.36-0.107l-0.36-0.145l-0.36-0.107h-0.36     l-0.288-0.072l-0.36,0.072h-0.36l-0.288,0.107l-0.324,0.145l-0.288,0.107l-0.252,0.18l-0.216,0.18L99.432,359.963z" fill="#DBDB00" fill-rule="evenodd" i:knockout="Off"/>
      <path clip-rule="evenodd" d="M128.232,309.672l-0.144,0.18l-0.036,0.18     l-0.072,0.109l-0.072,0.18v0.18v0.18l0.072,0.18l0.072,0.18l0.036,0.182l0.144,0.18l0.036,0.18l0.18,0.18l0.144,0.18l0.18,0.18     l0.108,0.109l0.252,0.143l0.18,0.182l0.18,0.107l0.216,0.072l0.18,0.107l0.252,0.072l0.18,0.035h0.18h0.252h0.18h0.18l0.18-0.035     l0.108-0.072l0.18-0.107l0.108-0.072l0.18-0.107l0.144-0.182l0.036-0.143l0.072-0.109l0.072-0.18l0.036-0.18v-0.18v-0.18     l-0.036-0.18l-0.072-0.182l-0.072-0.18l-0.108-0.18l-0.072-0.18l-0.18-0.18l-0.108-0.18l-0.18-0.109l-0.108-0.18l-0.18-0.18     l-0.252-0.107l-0.18-0.072l-0.252-0.145l-0.18-0.035l-0.216-0.072l-0.18-0.037h-0.18l-0.18-0.072l-0.252,0.072h-0.18l-0.18,0.037     l-0.108,0.072l-0.18,0.035l-0.144,0.145l-0.18,0.072L128.232,309.672z" fill="#F9F980" fill-rule="evenodd" i:knockout="Off"/>
      <path clip-rule="evenodd" d="M128.52,308.951l-0.108,0.182l-0.072,0.107     v0.18v0.18l-0.072,0.18l0.072,0.18v0.182l0.072,0.18l0.036,0.18l0.072,0.18l0.108,0.18l0.144,0.18l0.108,0.182l0.18,0.143     l0.108,0.145l0.252,0.145l0.18,0.18l0.18,0.035l0.252,0.145l0.18,0.072l0.216,0.035l0.18,0.072h0.252h0.18h0.18h0.252     l0.108-0.072l0.18-0.035l0.18-0.072l0.108-0.145l0.144-0.035l0.108-0.18l0.072-0.145l0.036-0.145l0.072-0.143l0.072-0.182v-0.18     v-0.18l-0.072-0.18l-0.072-0.18l-0.036-0.18l-0.144-0.182l-0.036-0.18l-0.18-0.18l-0.144-0.18l-0.18-0.18l-0.108-0.107     l-0.18-0.182l-0.18-0.107l-0.18-0.145l-0.252-0.072l-0.18-0.107l-0.18-0.035l-0.216-0.072h-0.18h-0.18H129.6h-0.18l-0.18,0.072     l-0.18,0.035l-0.18,0.107l-0.108,0.072l-0.144,0.145L128.52,308.951z" fill="#DBDB00" fill-rule="evenodd" i:knockout="Off"/>
      <path clip-rule="evenodd" d="M99.108,49.32L99,49.5l-0.108,0.18     l-0.072,0.108v0.216l-0.072,0.144v0.216l0.072,0.144l0.072,0.216l0.036,0.144L99,51.084l0.072,0.144l0.108,0.216l0.18,0.144     l0.108,0.216l0.18,0.108L99.9,52.02l0.18,0.18l0.18,0.108l0.252,0.072l0.18,0.144l0.216,0.036l0.18,0.072h0.252h0.18h0.252h0.18     l0.18-0.072l0.18-0.036l0.18-0.144l0.108-0.072l0.108-0.108l0.18-0.18l0.072-0.108l0.072-0.108v-0.216l0.036-0.144v-0.216     l-0.036-0.144v-0.216l-0.072-0.144l-0.072-0.216l-0.036-0.144l-0.144-0.216l-0.108-0.144l-0.108-0.216l-0.18-0.108l-0.144-0.18     l-0.18-0.18l-0.216-0.108l-0.18-0.072l-0.252-0.108l-0.18-0.072l-0.252-0.036l-0.18-0.072h-0.216l-0.18-0.072l-0.18,0.072H99.9     l-0.108,0.072l-0.18,0.036l-0.18,0.072l-0.144,0.108l-0.108,0.072L99.108,49.32z" fill="#F9F980" fill-rule="evenodd" i:knockout="Off"/>
      <path clip-rule="evenodd" d="M99.432,48.6l-0.144,0.18l-0.036,0.144     l-0.072,0.144l-0.072,0.216v0.144v0.216l0.072,0.144l0.072,0.216l0.036,0.144l0.072,0.216l0.108,0.144l0.144,0.216l0.108,0.144     l0.108,0.144l0.18,0.18l0.18,0.108l0.18,0.18l0.18,0.072l0.252,0.108l0.18,0.072l0.252,0.072l0.18,0.036h0.216h0.18h0.252h0.18     l0.18-0.036l0.18-0.072l0.18-0.072l0.108-0.108l0.144-0.072l0.18-0.18l0.036-0.108l0.072-0.18v-0.144l0.072-0.144v-0.216     l-0.072-0.144v-0.216l-0.072-0.144l-0.036-0.216l-0.072-0.144l-0.108-0.216l-0.144-0.144l-0.108-0.216l-0.18-0.144l-0.108-0.144     l-0.18-0.18l-0.252-0.108l-0.18-0.144l-0.252-0.036l-0.18-0.108l-0.216-0.072l-0.18-0.072H100.8h-0.18h-0.18h-0.252l-0.108,0.072     l-0.18,0.072l-0.18,0.108l-0.108,0.036l-0.144,0.144L99.432,48.6z" fill="#DBDB00" fill-rule="evenodd" i:knockout="Off"/>
    </g>
  </g>
</svg>
