<?xml version="1.0" encoding="UTF-8" standalone="no"?>
<!DOCTYPE svg PUBLIC "-//W3C//DTD SVG 20010904//EN"
"http://www.w3.org/TR/2001/REC-SVG-20010904/DTD/svg10.dtd">
<!-- Created with Sodipodi ("http://www.sodipodi.com/") --><svg height="600" id="svg602" sodipodi:docname="pear.svg" sodipodi:version="0.34" width="800" xmlns="http://www.w3.org/2000/svg" xmlns:sodipodi="http://sodipodi.sourceforge.net/DTD/sodipodi-0.dtd" xmlns:xlink="http://www.w3.org/1999/xlink">
  <metadata>
    <rdf:RDF xmlns:cc="http://web.resource.org/cc/" xmlns:dc="http://purl.org/dc/elements/1.1/" xmlns:rdf="http://www.w3.org/1999/02/22-rdf-syntax-ns#">
      <cc:Work rdf:about="">
        <dc:title>Pear</dc:title>
        <dc:description></dc:description>
        <dc:subject>
          <rdf:Bag>
            <rdf:li>hash</rdf:li>
            <rdf:li></rdf:li>
            <rdf:li>food</rdf:li>
            <rdf:li>fruits</rdf:li>
            <rdf:li>fruit</rdf:li>
            <rdf:li>pear</rdf:li>
          </rdf:Bag>
        </dc:subject>
        <dc:publisher>
          <cc:Agent rdf:about="http://www.openclipart.org">
            <dc:title>Jean-Victor Balin</dc:title>
          </cc:Agent>
        </dc:publisher>
        <dc:creator>
          <cc:Agent>
            <dc:title>Jean-Victor Balin</dc:title>
          </cc:Agent>
        </dc:creator>
        <dc:rights>
          <cc:Agent>
            <dc:title>Jean-Victor Balin</dc:title>
          </cc:Agent>
        </dc:rights>
        <dc:date></dc:date>
        <dc:format>image/svg+xml</dc:format>
        <dc:type rdf:resource="http://purl.org/dc/dcmitype/StillImage"/>
        <cc:license rdf:resource="http://web.resource.org/cc/PublicDomain"/>
        <dc:language>en</dc:language>
      </cc:Work>
      <cc:License rdf:about="http://web.resource.org/cc/PublicDomain">
        <cc:permits rdf:resource="http://web.resource.org/cc/Reproduction"/>
        <cc:permits rdf:resource="http://web.resource.org/cc/Distribution"/>
        <cc:permits rdf:resource="http://web.resource.org/cc/DerivativeWorks"/>
      </cc:License>
    </rdf:RDF>
  </metadata>
  <defs id="defs2632">
    <linearGradient id="linearGradient2633">
      <stop id="stop2634" offset="0" style="stop-color:#eeefb9;stop-opacity:1;"/>
      <stop id="stop2635" offset="1" style="stop-color:#e9cb35;stop-opacity:1;"/>
    </linearGradient>
    <radialGradient cx="0.28282821" cy="0.47656474" fx="0.28282821" fy="0.47656474" id="radialGradient2636" r="0.61097246" xlink:href="#linearGradient2633"/>
  </defs>
  <sodipodi:namedview id="base"/>
  <g id="pear" transform="translate(11.94028,-21.49262)">
    <path d="M 467.1886 127.3444 C 460.2116 129.8914 464.9896 136.5634 463.8396 141.5824 C 462.1736 148.8544 451.7326 167.8334 445.1146 171.4034 C 439.6646 174.3434 430.2026 172.5824 424.1696 172.5824 C 412.6787 172.5824 401.5057 173.7714 391.1697 179.3814 C 365.5457 193.2914 365.5057 224.3024 348.8917 244.5674 C 338.2447 257.5554 317.7137 262.2394 304.1707 271.6374 C 286.3436 284.0074 273.9446 308.0584 268.4586 328.5824 C 263.6406 346.6094 259.4896 369.4133 265.0736 387.5823 C 279.6616 435.0433 329.7687 466.2383 377.1697 470.7523 C 392.6007 472.2213 410.2827 473.1273 425.1696 467.8833 C 477.0936 449.5933 502.7706 401.5183 496.9956 347.5824 C 495.1986 330.7914 484.7446 316.3974 485.1846 299.5824 C 485.4016 291.2834 490.0376 284.9824 493.0766 277.5824 C 498.6266 264.0724 503.9766 246.3964 500.7796 231.5824 C 497.7786 217.6844 487.3516 201.8204 477.7596 191.7524 C 473.9186 187.7214 462.6056 181.5314 462.4996 175.5824 C 462.4056 170.2684 470.1506 157.2944 475.2596 155.5654 C 480.1956 153.8954 487.9626 158.2074 490.5616 151.5274 C 493.0326 145.1764 477.0156 133.5534 472.9996 128.9014 C 471.4466 127.1024 469.4766 126.5084 467.1886 127.3444 z " id="path638" style="fill:#776430;stroke:none;fill-opacity:1;"/>
    <path d="M 420.1697 181.1394 C 392.3447 185.8114 377.8297 202.6944 366.5567 227.5824 C 362.6067 236.3044 361.2527 246.7384 355.2307 254.4894 C 347.5457 264.3804 333.3167 266.6514 323.1697 272.9554 C 303.8207 284.9744 289.4076 302.5034 280.6876 323.5824 C 277.7246 330.7434 277.1976 338.1254 275.7946 345.5824 C 273.5016 357.7764 272.1716 373.3813 275.5836 385.5823 C 285.1596 419.8243 321.4437 443.8843 353.1697 454.5163 C 366.8247 459.0933 384.6127 464.5133 399.1697 462.1143 C 414.8287 459.5343 430.6576 455.8403 444.1696 447.0623 C 475.5656 426.6663 488.7906 387.4513 487.0256 351.5824 C 486.2196 335.1914 475.2506 319.8194 475.5636 303.5824 C 475.9306 284.4794 488.4996 267.8104 490.0766 248.5824 C 493.0516 212.2844 458.7846 174.6564 420.1697 181.1394 z " id="path1032" style="fill:url(#radialGradient2636);stroke:none;"/>
  </g>
</svg>
