<?xml version="1.0" encoding="UTF-8" standalone="no"?>
<!DOCTYPE svg PUBLIC "-//W3C//DTD SVG 20010904//EN"
"http://www.w3.org/TR/2001/REC-SVG-20010904/DTD/svg10.dtd">
<!-- Created with Sodipodi ("http://www.sodipodi.com/") --><svg height="400pt" id="svg548" inkscape:version="0.38.1" sodipodi:docbase="/var/www/html/svg_gallery/svg/office" sodipodi:docname="mobile.svg" sodipodi:version="0.32" width="400pt" xmlns="http://www.w3.org/2000/svg" xmlns:inkscape="http://www.inkscape.org/namespaces/inkscape" xmlns:sodipodi="http://sodipodi.sourceforge.net/DTD/sodipodi-0.dtd" xmlns:xlink="http://www.w3.org/1999/xlink">
  <metadata>
    <rdf:RDF xmlns:cc="http://web.resource.org/cc/" xmlns:dc="http://purl.org/dc/elements/1.1/" xmlns:rdf="http://www.w3.org/1999/02/22-rdf-syntax-ns#">
      <cc:Work rdf:about="">
        <dc:title>Clipart by Nicu Buculei - book_01</dc:title>
        <dc:description></dc:description>
        <dc:subject>
          <rdf:Bag>
            <rdf:li>office</rdf:li>
            <rdf:li></rdf:li>
            <rdf:li>telephone</rdf:li>
          </rdf:Bag>
        </dc:subject>
        <dc:publisher>
          <cc:Agent rdf:about="http://www.openclipart.org">
            <dc:title>Nicu Buculei</dc:title>
          </cc:Agent>
        </dc:publisher>
        <dc:creator>
          <cc:Agent>
            <dc:title>Nicu Buculei</dc:title>
          </cc:Agent>
        </dc:creator>
        <dc:rights>
          <cc:Agent>
            <dc:title>Nicu Buculei</dc:title>
          </cc:Agent>
        </dc:rights>
        <dc:date></dc:date>
        <dc:format>image/svg+xml</dc:format>
        <dc:type rdf:resource="http://purl.org/dc/dcmitype/StillImage"/>
        <cc:license rdf:resource="http://web.resource.org/cc/PublicDomain"/>
        <dc:language>en</dc:language>
      </cc:Work>
      <cc:License rdf:about="http://web.resource.org/cc/PublicDomain">
        <cc:permits rdf:resource="http://web.resource.org/cc/Reproduction"/>
        <cc:permits rdf:resource="http://web.resource.org/cc/Distribution"/>
        <cc:permits rdf:resource="http://web.resource.org/cc/DerivativeWorks"/>
      </cc:License>
    </rdf:RDF>
  </metadata>
  <defs id="defs550"/>
  <sodipodi:namedview id="base" inkscape:cx="200.00000" inkscape:cy="182.70343" inkscape:window-height="591" inkscape:window-width="723" inkscape:window-x="0" inkscape:window-y="24" inkscape:zoom="0.97263441" showgrid="true"/>
  <g id="g922">
    <path d="M 159.81 75.9493 C 168.512 73.5759 181.171 73.576 204.905 72.7848 C 228.639 71.2025 324.367 70.4113 333.07 75.1582 C 343.355 78.3227 341.772 366.297 339.399 397.944 C 337.025 429.589 335.443 444.62 334.652 446.994 C 275.58 450.949 218.091 451.74 157.436 446.993 C 152.689 420.886 141.614 120.253 159.81 75.9493 z " id="path551" sodipodi:nodetypes="ccccccc" style="fill:#4b537b;fill-rule:evenodd;stroke:#000000;stroke-width:9.6415654;stroke-linejoin:round;stroke-dasharray:none;" transform="matrix(1.000000,0.000000,0.000000,1.075734,0.000000,7.034819)"/>
    <path d="M 174.177 107.595 C 189.209 106.804 287.184 107.595 310.918 107.595 C 317.247 122.627 326.741 212.817 322.785 226.266 C 309.732 227.189 292.658 237.747 283.735 228.293 C 269.952 212.899 221.099 211.844 204.843 227.898 C 195.291 236.867 179.391 226.53 166.139 225.475 C 166.139 182.226 167.848 146.888 174.177 107.595 z " id="path552" sodipodi:nodetypes="cccsscc" style="fill:#807f7f;fill-rule:evenodd;stroke:#000000;stroke-width:9.6415654;stroke-linejoin:round;stroke-dasharray:none;" transform="matrix(1.000000,0.000000,0.000000,1.075734,0.000000,7.034819)"/>
    <path d="M 184.335 124.209 C 180.379 128.165 181.17 205.697 184.335 208.07 C 188.818 210.707 296.15 212.553 302.215 208.861 C 307.489 205.96 306.435 132.648 302.215 125.791 C 296.413 121.836 191.719 122.627 184.335 124.209 z " id="path553" sodipodi:nodetypes="ccccc" style="fill:#80a47f;fill-rule:evenodd;stroke:#000000;stroke-width:9.6415654;stroke-linejoin:round;stroke-dasharray:none;" transform="matrix(1.000000,0.000000,0.000000,1.075734,0.000000,7.034819)"/>
    <path d="M 174.051 271.36 C 178.007 267.405 214.399 268.197 217.563 270.57 C 221.519 276.108 219.936 301.424 217.563 303.006 C 214.926 306.171 177.479 306.171 174.05 303.006 C 171.677 297.204 172.469 274.789 174.051 271.36 z " id="path554" sodipodi:nodetypes="ccccc" style="fill:#807f7f;fill-rule:evenodd;stroke:#000000;stroke-width:6.8256502;" transform="matrix(1.000000,0.000000,0.000000,0.838440,-8.702545,87.65814)"/>
    <path d="M 174.051 271.36 C 178.007 267.405 214.399 268.197 217.563 270.57 C 221.519 276.108 219.936 301.424 217.563 303.006 C 214.926 306.171 177.479 306.171 174.05 303.006 C 171.677 297.204 172.469 274.789 174.051 271.36 z " id="path555" sodipodi:nodetypes="ccccc" style="fill:#807f7f;fill-rule:evenodd;stroke:#000000;stroke-width:6.8256502;" transform="matrix(1.000000,0.000000,0.000000,0.838440,48.25948,87.65814)"/>
    <path d="M 174.051 271.36 C 178.007 267.405 214.399 268.197 217.563 270.57 C 221.519 276.108 219.936 301.424 217.563 303.006 C 214.926 306.171 177.479 306.171 174.05 303.006 C 171.677 297.204 172.469 274.789 174.051 271.36 z " id="path556" sodipodi:nodetypes="ccccc" style="fill:#807f7f;fill-rule:evenodd;stroke:#000000;stroke-width:6.8256502;" transform="matrix(1.000000,0.000000,0.000000,0.838440,105.2215,88.32140)"/>
    <path d="M 174.051 271.36 C 178.007 267.405 214.399 268.197 217.563 270.57 C 221.519 276.108 219.936 301.424 217.563 303.006 C 214.926 306.171 177.479 306.171 174.05 303.006 C 171.677 297.204 172.469 274.789 174.051 271.36 z " id="path557" sodipodi:nodetypes="ccccc" style="fill:#807f7f;fill-rule:evenodd;stroke:#000000;stroke-width:6.8256502;" transform="matrix(1.000000,0.000000,0.000000,0.838440,-7.911396,133.4273)"/>
    <path d="M 174.051 271.36 C 178.007 267.405 214.399 268.197 217.563 270.57 C 221.519 276.108 219.936 301.424 217.563 303.006 C 214.926 306.171 177.479 306.171 174.05 303.006 C 171.677 297.204 172.469 274.789 174.051 271.36 z " id="path558" sodipodi:nodetypes="ccccc" style="fill:#807f7f;fill-rule:evenodd;stroke:#000000;stroke-width:6.8256502;" transform="matrix(1.000000,0.000000,0.000000,0.838440,49.05063,133.4273)"/>
    <path d="M 174.051 271.36 C 178.007 267.405 214.399 268.197 217.563 270.57 C 221.519 276.108 219.936 301.424 217.563 303.006 C 214.926 306.171 177.479 306.171 174.05 303.006 C 171.677 297.204 172.469 274.789 174.051 271.36 z " id="path559" sodipodi:nodetypes="ccccc" style="fill:#807f7f;fill-rule:evenodd;stroke:#000000;stroke-width:6.8256502;" transform="matrix(1.000000,0.000000,0.000000,0.838440,106.0126,134.0906)"/>
    <path d="M 174.051 271.36 C 178.007 267.405 214.399 268.197 217.563 270.57 C 221.519 276.108 219.936 301.424 217.563 303.006 C 214.926 306.171 177.479 306.171 174.05 303.006 C 171.677 297.204 172.469 274.789 174.051 271.36 z " id="path560" sodipodi:nodetypes="ccccc" style="fill:#807f7f;fill-rule:evenodd;stroke:#000000;stroke-width:6.8256502;" transform="matrix(1.000000,0.000000,0.000000,0.838440,-8.702545,178.5333)"/>
    <path d="M 174.051 271.36 C 178.007 267.405 214.399 268.197 217.563 270.57 C 221.519 276.108 219.936 301.424 217.563 303.006 C 214.926 306.171 177.479 306.171 174.05 303.006 C 171.677 297.204 172.469 274.789 174.051 271.36 z " id="path561" sodipodi:nodetypes="ccccc" style="fill:#807f7f;fill-rule:evenodd;stroke:#000000;stroke-width:6.8256502;" transform="matrix(1.000000,0.000000,0.000000,0.838440,48.25948,178.5333)"/>
    <path d="M 174.051 271.36 C 178.007 267.405 214.399 268.197 217.563 270.57 C 221.519 276.108 219.936 301.424 217.563 303.006 C 214.926 306.171 177.479 306.171 174.05 303.006 C 171.677 297.204 172.469 274.789 174.051 271.36 z " id="path562" sodipodi:nodetypes="ccccc" style="fill:#807f7f;fill-rule:evenodd;stroke:#000000;stroke-width:6.8256502;" transform="matrix(1.000000,0.000000,0.000000,0.838440,105.2215,179.1966)"/>
    <path d="M 206.092 234.572 C 212.817 222.31 231.013 219.146 242.879 219.937 C 257.911 219.937 270.57 220.728 277.294 229.43 C 282.041 257.911 277.294 270.965 268.196 272.943 C 260.285 276.899 225.474 278.086 220.332 274.92 C 209.652 272.547 204.114 261.471 206.092 234.572 z " id="path563" sodipodi:nodetypes="cccccc" style="fill:#807f7f;fill-rule:evenodd;stroke:#000000;stroke-width:6.0259786;stroke-linejoin:round;" transform="matrix(1.000000,0.000000,0.000000,1.075734,0.000000,7.034819)"/>
    <path d="M 285.206 265.427 C 284.415 258.702 289.557 252.373 297.469 245.253 C 305.38 238.133 313.291 232.199 319.62 231.804 C 325.95 231.408 336.235 239.715 336.235 244.857 C 336.235 251.582 332.674 255.142 325.553 263.845 C 313.291 277.69 306.566 280.064 301.819 279.272 C 295.886 278.085 285.602 271.361 285.206 265.427 z " id="path564" sodipodi:nodetypes="ccccccc" style="fill:#807f7f;fill-rule:evenodd;stroke:#000000;stroke-width:6.0259786;" transform="matrix(1.000000,0.000000,0.000000,1.075734,0.000000,7.034819)"/>
    <path d="M 285.206 265.427 C 284.415 258.702 289.557 252.373 297.469 245.253 C 305.38 238.133 313.291 232.199 319.62 231.804 C 325.95 231.408 336.235 239.715 336.235 244.857 C 336.235 251.582 332.674 255.142 325.553 263.845 C 313.291 277.69 306.566 280.064 301.819 279.272 C 295.886 278.085 285.602 271.361 285.206 265.427 z " id="path565" sodipodi:nodetypes="ccccccc" style="fill:#807f7f;fill-rule:evenodd;stroke:#000000;stroke-width:6.0259786;stroke-linejoin:round;" transform="matrix(-1.836909e-16,-1.075734,1.000000,-1.976025e-16,-75.06083,615.3497)"/>
    <path d="M 288.611 69.956 L 322.354 71.3919 C 322.354 71.3919 321.635 42.6744 320.918 26.1618 C 321.636 10.3672 317.328 4.62376 316.61 4.62376 C 315.892 4.62376 294.354 4.62376 294.354 4.62376 C 294.354 4.62376 290.764 11.8032 290.764 22.5721 C 289.329 45.5462 288.611 69.956 288.611 69.956 z " id="path566" sodipodi:nodetypes="ccccccc" style="fill:#4b537b;fill-rule:evenodd;stroke:#000000;stroke-width:9.6415654;stroke-linejoin:round;stroke-dasharray:none;" transform="matrix(1.000000,0.000000,0.000000,1.075734,0.000000,7.034819)"/>
    <path d="M 274.97 70.6739 C 274.97 70.6739 329.533 72.8278 329.533 74.2636 C 329.533 75.6995 334.559 71.3919 329.533 64.2125 C 322.354 59.1869 292.919 56.3152 280.714 60.6228 C 274.252 68.5201 274.97 72.1098 274.97 70.6739 z " id="path567" sodipodi:nodetypes="ccccc" style="fill:#626a7b;fill-rule:evenodd;stroke:#000000;stroke-width:9.6415654;stroke-linejoin:round;stroke-dasharray:none;" transform="matrix(1.000000,0.000000,0.000000,1.075734,0.000000,7.034819)"/>
    <path d="M 197.5 147.5 L 273.75 147.5 " id="path568" style="fill:none;fill-rule:evenodd;stroke:#000000;stroke-width:3.7500000;" transform="translate(0.000000,7.385008)"/>
    <path d="M 201.25 215 L 238.75 215 L 201.25 215 z " id="path569" style="fill:none;fill-rule:evenodd;stroke:#000000;stroke-width:3.7500000;" transform="translate(0.000000,7.385008)"/>
    <path d="M 261.25 213.75 L 285 213.75 " id="path570" style="fill:none;fill-rule:evenodd;stroke:#000000;stroke-width:3.7500000;" transform="translate(0.000000,7.385008)"/>
    <path d="M 223.75 262.5 C 223.75 262.5 256.064 262.5 257.314 262.5 C 258.564 262.5 258.218 273.75 257.5 273.75 L 223.936 273.75 L 223.75 262.5 z " id="path571" sodipodi:nodetypes="ccccc" style="fill:#00ff00;fill-rule:evenodd;stroke-width:1.0000000pt;" transform="translate(0.000000,7.385008)"/>
    <path d="M 324.507 258.055 C 324.507 258.055 310.867 261.645 310.867 262.363 C 310.867 263.081 322.354 271.696 322.354 271.696 L 324.507 258.055 z " id="path572" style="fill:none;fill-rule:evenodd;stroke:#000000;stroke-width:3.7500000;" transform="translate(0.000000,7.385008)"/>
    <path d="M 297.226 289.645 C 297.226 288.927 297.226 277.44 297.226 277.44 L 311.585 287.491 L 297.226 289.645 z " id="path573" style="fill:none;fill-rule:evenodd;stroke:#000000;stroke-width:3.7500000;" transform="translate(0.000000,7.385008)"/>
    <path d="M 178.048 262.363 L 170.869 270.26 L 182.356 280.311 L 188.817 272.414 L 188.817 272.414 " id="path574" style="fill:none;fill-rule:evenodd;stroke:#000000;stroke-width:3.7500000;" transform="translate(0.000000,7.385008)"/>
    <path d="M 179.484 320.516 L 187.381 315.49 L 187.381 333.439 " id="path575" style="fill:none;fill-rule:evenodd;stroke:#000000;stroke-width:4.2476401;" transform="matrix(1.000000,0.000000,0.000000,0.779412,0.000000,75.32793)"/>
    <path d="M 233.329 316.208 L 235.483 311.901 C 235.483 311.901 251.278 311.901 250.56 311.901 C 249.842 311.901 235.483 331.285 235.483 331.285 L 251.278 330.567 " id="path576" style="fill:none;fill-rule:evenodd;stroke:#000000;stroke-width:4.2476401;" transform="matrix(1.000000,0.000000,0.000000,0.779412,0.000000,75.32793)"/>
    <path d="M 293.636 314.772 L 310.149 314.772 L 302.251 321.952 L 310.867 324.823 L 310.867 335.592 C 310.867 335.592 305.841 338.464 305.123 338.464 C 304.405 338.464 292.2 337.746 292.2 337.746 " id="path577" style="fill:none;fill-rule:evenodd;stroke:#000000;stroke-width:4.2476401;" transform="matrix(1.000000,0.000000,0.000000,0.779412,0.000000,75.32793)"/>
    <path d="M 189.535 372.925 C 189.535 372.925 178.766 386.566 178.048 386.566 C 177.33 386.566 190.253 386.566 190.253 386.566 C 190.253 386.566 190.971 394.463 190.253 394.463 C 189.535 394.463 189.535 372.925 189.535 372.925 z " id="path578" style="fill:none;fill-rule:evenodd;stroke:#000000;stroke-width:4.2476401;" transform="matrix(1.000000,0.000000,0.000000,0.779412,0.000000,75.32793)"/>
    <path d="M 252.714 372.925 L 239.073 373.643 C 239.073 373.643 238.355 380.823 239.073 380.823 C 239.791 380.823 254.15 382.258 254.15 382.258 C 254.15 382.258 254.867 392.31 254.15 392.31 C 253.432 392.31 240.509 393.027 240.509 393.027 " id="path579" style="fill:none;fill-rule:evenodd;stroke:#000000;stroke-width:4.2476401;" transform="matrix(1.000000,0.000000,0.000000,0.779412,0.000000,75.32793)"/>
    <path d="M 308.713 375.079 L 296.508 375.079 L 296.508 390.874 L 311.585 390.874 L 311.585 382.976 L 296.508 382.258 " id="path580" style="fill:none;fill-rule:evenodd;stroke:#000000;stroke-width:4.2476401;" transform="matrix(1.000000,0.000000,0.000000,0.779412,0.000000,75.32793)"/>
    <path d="M 174.051 271.36 C 178.007 267.405 214.399 268.197 217.563 270.57 C 221.519 276.108 219.936 301.424 217.563 303.006 C 214.926 306.171 177.479 306.171 174.05 303.006 C 171.677 297.204 172.469 274.789 174.051 271.36 z " id="path581" sodipodi:nodetypes="ccccc" style="fill:#807f7f;fill-rule:evenodd;stroke:#000000;stroke-width:6.8256502;" transform="matrix(1.000000,0.000000,0.000000,0.838440,-8.702545,222.6576)"/>
    <path d="M 174.051 271.36 C 178.007 267.405 214.399 268.197 217.563 270.57 C 221.519 276.108 219.936 301.424 217.563 303.006 C 214.926 306.171 177.479 306.171 174.05 303.006 C 171.677 297.204 172.469 274.789 174.051 271.36 z " id="path582" sodipodi:nodetypes="ccccc" style="fill:#807f7f;fill-rule:evenodd;stroke:#000000;stroke-width:6.8256502;" transform="matrix(1.000000,0.000000,0.000000,0.838440,48.25948,222.6576)"/>
    <path d="M 174.051 271.36 C 178.007 267.405 214.399 268.197 217.563 270.57 C 221.519 276.108 219.936 301.424 217.563 303.006 C 214.926 306.171 177.479 306.171 174.05 303.006 C 171.677 297.204 172.469 274.789 174.051 271.36 z " id="path583" sodipodi:nodetypes="ccccc" style="fill:#807f7f;fill-rule:evenodd;stroke:#000000;stroke-width:6.8256502;" transform="matrix(1.000000,0.000000,0.000000,0.838440,105.2215,223.3209)"/>
    <path d="M 178.048 403.796 L 191.689 403.796 L 190.971 421.745 " id="path584" style="fill:none;fill-rule:evenodd;stroke:#000000;stroke-width:3.7500000;" transform="translate(0.000000,7.385008)"/>
    <path d="M 233.329 403.796 L 249.842 404.514 L 249.842 413.848 L 234.047 413.13 L 233.329 403.796 z " id="path585" sodipodi:nodetypes="ccccc" style="fill:none;fill-rule:evenodd;stroke:#000000;stroke-width:3.7500000;" transform="translate(0.000000,7.385008)"/>
    <path d="M 234.047 413.13 L 234.047 421.745 L 250.56 421.745 L 249.842 413.848 " id="path586" sodipodi:nodetypes="cccc" style="fill:none;fill-rule:evenodd;stroke:#000000;stroke-width:3.7500000;" transform="translate(0.000000,7.385008)"/>
    <path d="M 307.995 421.027 C 307.995 420.309 307.995 404.514 307.995 404.514 L 289.328 404.514 C 289.328 404.514 288.611 413.13 289.328 413.13 C 290.046 413.13 307.995 413.848 307.995 413.848 " id="path587" style="fill:none;fill-rule:evenodd;stroke:#000000;stroke-width:3.7500000;" transform="translate(0.000000,7.385008)"/>
    <path d="M 308.713 421.745 L 293.636 421.745 " id="path588" style="fill:none;fill-rule:evenodd;stroke:#000000;stroke-width:3.7500000;" transform="translate(0.000000,7.385008)"/>
    <path d="M 236.201 445.437 L 252.714 446.155 L 252.714 463.385 L 235.483 464.103 L 236.201 445.437 z " id="path589" sodipodi:nodetypes="ccccc" style="fill:none;fill-rule:evenodd;stroke:#000000;stroke-width:3.7500000;" transform="translate(0.000000,7.385008)"/>
    <path d="M 295.072 449.026 L 295.072 465.539 L 295.79 465.539 " id="path590" style="fill:none;fill-rule:evenodd;stroke:#000000;stroke-width:3.7500000;" transform="translate(0.000000,7.385008)"/>
    <path d="M 306.559 449.744 L 306.559 466.257 " id="path591" style="fill:none;fill-rule:evenodd;stroke:#000000;stroke-width:3.7500000;" transform="translate(0.000000,7.385008)"/>
    <path d="M 290.0460 453.3340 C 290.7640 453.3340 311.6502 455.8139 311.6502 455.8139 " id="path592" sodipodi:nodetypes="cc" style="fill:none;fill-rule:evenodd;stroke:#000000;stroke-width:3.7500000;" transform="translate(0.000000,7.385008)"/>
    <path d="M 288.611 461.231 L 310.867 462.667 " id="path593" style="fill:none;fill-rule:evenodd;stroke:#000000;stroke-width:3.7500000;" transform="translate(0.000000,7.385008)"/>
    <path d="M 175.894 451.898 L 194.561 462.667 C 194.561 462.667 194.561 463.385 193.843 463.385 " id="path594" style="fill:none;fill-rule:evenodd;stroke:#000000;stroke-width:3.7500000;" transform="translate(0.000000,7.385008)"/>
    <path d="M 177.33 463.385 L 193.125 451.18 " id="path595" style="fill:none;fill-rule:evenodd;stroke:#000000;stroke-width:3.7500000;" transform="translate(0.000000,7.385008)"/>
    <path d="M 176.612 456.924 L 193.843 456.924 " id="path596" style="fill:none;fill-rule:evenodd;stroke:#000000;stroke-width:3.7500000;" transform="translate(0.000000,7.385008)"/>
    <path d="M 191.04592,203.90901 C 189.46362,195.99761 186.29912,165.93431 192.62822,142.20021 C 203.70422,140.61791 270.15992,142.20021 282.81812,143.78241 C 270.15992,143.78241 192.62822,156.44081 191.04592,203.90901 z " id="path658" sodipodi:nodetypes="cccc" style="fill:#ffffff;fill-opacity:0.49999997;fill-rule:evenodd;stroke-width:1.0000000pt;" transform="translate(0.000000,3.635008)"/>
    <path d="M 156.58706,186.30362 C 156.58706,175.86452 158.67486,91.307413 167.02626,89.219553 C 171.20196,88.175623 249.49546,86.087763 277.68116,87.131693 C 162.85056,96.526953 162.85056,73.560833 156.58706,186.30362 z " id="path659" sodipodi:nodetypes="cccc" style="fill:#ffffff;fill-opacity:0.49999997;fill-rule:evenodd;stroke-width:1.0000000pt;" transform="translate(0.000000,3.635008)"/>
  </g>
</svg>
