<?xml version="1.0" encoding="UTF-8" standalone="no"?>
<!-- Generator: Adobe Illustrator 12.0.0, SVG Export Plug-In . SVG Version: 6.00 Build 51448)  --><svg height="405.146" id="Layer_1" inkscape:version="0.42" sodipodi:docbase="F:\openclip\svg da inviare" sodipodi:docname="giardinaggio.svg" sodipodi:version="0.32" space="preserve" style="overflow:visible;enable-background:new 0 0 392.275 405.146;" version="1.1" viewBox="0 0 392.275 405.146" width="392.275" xmlns="http://www.w3.org/2000/svg" xmlns:cc="http://web.resource.org/cc/" xmlns:dc="http://purl.org/dc/elements/1.1/" xmlns:inkscape="http://www.inkscape.org/namespaces/inkscape" xmlns:rdf="http://www.w3.org/1999/02/22-rdf-syntax-ns#" xmlns:sodipodi="http://inkscape.sourceforge.net/DTD/sodipodi-0.dtd" xmlns:svg="http://www.w3.org/2000/svg">
  <metadata>
    <rdf:RDF xmlns:cc="http://web.resource.org/cc/" xmlns:dc="http://purl.org/dc/elements/1.1/" xmlns:rdf="http://www.w3.org/1999/02/22-rdf-syntax-ns#">
      <cc:Work rdf:about="">
        <dc:title>Various Cliparts</dc:title>
        <dc:description></dc:description>
        <dc:subject>
          <rdf:Bag>
            <rdf:li></rdf:li>
          </rdf:Bag>
        </dc:subject>
        <dc:publisher>
          <cc:Agent rdf:about="http://www.openclipart.org/">
            <dc:title></dc:title>
          </cc:Agent>
        </dc:publisher>
        <dc:creator>
          <cc:Agent>
            <dc:title>Architetto Francesco Rollandin</dc:title>
          </cc:Agent>
        </dc:creator>
        <dc:rights>
          <cc:Agent>
            <dc:title>Architetto Francesco Rollandin</dc:title>
          </cc:Agent>
        </dc:rights>
        <dc:date></dc:date>
        <dc:format>image/svg+xml</dc:format>
        <dc:type rdf:resource="http://purl.org/dc/dcmitype/StillImage"/>
        <cc:license rdf:resource="http://web.resource.org/cc/PublicDomain"/>
        <dc:language>en</dc:language>
      </cc:Work>
      <cc:License rdf:about="http://web.resource.org/cc/PublicDomain">
        <cc:permits rdf:resource="http://web.resource.org/cc/Reproduction"/>
        <cc:permits rdf:resource="http://web.resource.org/cc/Distribution"/>
        <cc:permits rdf:resource="http://web.resource.org/cc/DerivativeWorks"/>
      </cc:License>
    </rdf:RDF>
  </metadata>
  <defs id="defs116"/>
  <sodipodi:namedview bordercolor="#666666" borderopacity="1.0" id="base" inkscape:current-layer="Layer_1" inkscape:cx="196.13750" inkscape:cy="202.57300" inkscape:pageopacity="0.0" inkscape:pageshadow="2" inkscape:window-height="510" inkscape:window-width="787" inkscape:window-x="66" inkscape:window-y="87" inkscape:zoom="0.88856857" pagecolor="#ffffff"/>
  <path d="M112.559,136.058c1.311-2.681,2.839-6.709,2.839-9.814c0-9.964,0.319-8.959,6.814-15.736  c2.974-3.103,14.996-3.835,12.437-11.511c-0.796-2.389-19.299-26.526-22.906-26.526c-16.427,0-30.261,14.62-29.847,31.229  C82.207,116.148,101.264,152.564,112.559,136.058" id="path3"/>
  <path d="M111.422,84.957c7.192,0.371,19.711,6.276,18.17,15.332c-1.028,6.036-15.032,6.878-18.736,13.624  c-2.425,4.418,3.712,19.869-4.541,22.146c-6.334,1.748-14.483-16.753-15.902-20.438c-2.57-6.673-3.491-12.898-2.268-18.741  c2.078-9.925,19.474-30.245,27.252-14.76C114.073,83.064,112.748,84.011,111.422,84.957" id="path5" style="fill:#B6F261;"/>
  <path d="M172.742,59.973c-12.902,19.419-25.516-6.038-27.463-17.743c-1.515-9.104,3.305-18.11,1.789-27.721  c-1.024-6.49-5.818-16.591,6.478-14.129c16.885,3.38,35.682,19.318,43.294,34.542c2.24,4.48,0.726,19.533-3.654,23.354  C185.288,65.166,181.112,57.433,172.742,59.973" id="path7"/>
  <path d="M177.289,50.89c3.362,3.565,8.467,6.49,12.487,3.976c17.753-11.106-13.514-39.114-21.509-43.908  c-25.67-15.391-14.584,7.143-16.866,24.289c-1.214,9.122-0.847,19.095,7.716,24.449C166.66,64.412,171.534,51.358,177.289,50.89" id="path9" style="fill:#B6F261;"/>
  <path d="M203.97,113.912c-19.265,9.723-3.856,19.683,3.976,23.854c7.08,3.771,11.722,0.938,13.754,10.425  c0.742,3.465,4.346,8.054,7.821,8.305c14.354,1.039,13.418-24.636,11.072-34.062C235.95,103.769,204.728,84.243,203.97,113.912" id="path11"/>
  <path d="M210.219,109.942c-0.765,6.176-14.373,15.125-6.528,20.727c6.138,4.383,15.485,2.94,21.289,9.365  c0.951,1.053,0.142,7.386,1.137,7.945c9.588,5.392,15.402-6.641,11.871-19.251c-2.036-7.27-5.111-20.047-13.008-23.898  C218.725,101.779,209.509,101.479,210.219,109.942" id="path13" style="fill:#B6F261;"/>
  <path d="M114.261,84.392c15.204,1.14,34.375-0.263,39.471,18.085c5.399,19.439,8.104,30.633,5.765,50.391  c-2.577,21.772-4.747,33.796-15.05,52.936c-2.646,4.916-13.253,8.389-18.378,11.039c-11.435,5.914-11.258,7.698-14.646,20.284  c10.185-2.037,15.905-8.614,24.605-9.823c19.22-2.671,15.59,0.749,18.549,19.472c6.539-10.46,10.091-17.406,20.554-23.684  c9.957-5.974,19.147,7.019,28.839,11.196c13.759,5.932,21.491,8.165,15.628-7.667c-3.526-9.521-17.166-11.499-24.824-18.909  c-17.495-16.927-16.715-41.683-14.8-65.125c2.234-27.353,31.193-34.629,48.416-14.481c-15.686-20.633-30.152-23.635-53.375-12.487  c8.134-37.631,8.047-66.855-11.921-100.499c11.529,31.044,9.344,51.672,3.405,83.466c-12.475-17.064-21.76-22.27-42.971-19.859  c-18.266,2.077-33.192,12.665-25.163,32.917C96.641,99.984,101.737,84.965,114.261,84.392" id="path15"/>
  <path d="M104.042,248.484c-5.201,11.192-9.743,15.728-22.711,17.882c-13.77,2.286-10.932,9.883-12.324,23.104  c-0.823,7.816-29.732,21.643-38.126,24.517c-13.46,4.607-28.623,14.661-28.474,32.152c0.19,22.304,28.422,18.562,42.372,19.697  c15.524,1.264,26.346-0.962,41.757-4.386c4.843-1.076,15.416-5.698,20.346-4.521c6.212,1.482,9.212,10.887,16.084,11.616  c18.805,1.996,37.609,3.991,56.414,5.987c15.031,1.596,32.346-6.872,46.712-10.819c15.429-4.239,22.285,4.859,37.495,7.976  c17.338,3.552,38.976,0,56.669,0c15.984,0,22.673-6.064,36.487-14.884c8.243-5.262-2.259-28.563-7.659-35.901  c-11.573-15.726-13.951-21.973-32.23-26.092c-20.524-4.624-33.656-4.007-46.052-20.908c-6.941-9.466-20.5-24.225-31.057-29.4  c-1.347-0.66-6.211,4.117-7.386,3.41c-1.915-1.152-2.521-5.343-4.541-6.249c-8.476-3.803-22.986-12.046-33.458-17.404  c-20.947-10.718-28.227-0.92-38.652,18.547c-1.081-6.907-1.804-13.93-1.703-21.015c-12.448,2.029-19.101,5.152-28.389,9.658  c-3.876,1.881-10.458-0.772-12.866,3.292C110.046,239.306,107.016,244.636,104.042,248.484" id="path17"/>
  <path d="M104.608,351.25c1.744-18.732,4.917-30.442,12.492-47.696c-1.325,6.247-2.65,12.494-3.976,18.741  c3.029-4.166,6.059-8.332,9.088-12.498c-1.71,6.38-7.657,15.443-7.951,21.581c-0.453,9.438,6.244,22.625,8.776,31.801  c1.039,3.765,27.037,3.604,30.971,3.968c19.835,1.837,31.288,2.125,49.964-2.557c24.289-6.088,25.323-5.525,28.958-30.939  c4.444,14.067,4.151,23.11,19.872,26.682c0.304-9.374,2.84-17.244,5.678-26.115c0.315,12.337-0.541,20.337,5.838,30.763  c2.938,4.802,24.192,1.403,29.39,1.36c5.375-0.045,64.298,2.979,59.813-15.374c-5.108-20.903-11.907-45.995-35.534-50.724  c-11.613-2.324-25.514-7.602-37.366-7.479c-11.478,0.119-21.038,4.458-32.931,3.41c8.812-3.196,17.693-5.894,26.688-8.517  c-10.608-13.139-29.913-45.2-47.125-30.657c-3.099-11.063-2.156-13.541-12.692-17.324c-9.706-3.484-17.294-7.12-26.167-12.397  c-17.821-10.601-27.516,15.128-35.525,28.579c-1.323-9.463-2.646-18.926-3.97-28.389c-24.797,4.274-34.04,11.862-46.845,33.219  c-3.68,6.137-7.509,5.248-13.909,8.233c-13.523,6.308-12.258,2.368-14.177,20.104c-2.248,20.77-76.794,31.373-63.771,58.588  c8.429,17.613,26.565,12.419,45.225,13.646c14.552,0.957-0.949-31.593-5.32-36.696c18.602,4.448,16.291,21.455,15.897,36.335  C78.869,357.682,91.738,354.466,104.608,351.25" id="path19" style="fill:#D59758;"/>
  <path d="M82.467,89.504c-2.827,5.943-3.914,12.391-2.273,18.73C73.56,101.048,77.526,96.309,82.467,89.504" id="path21"/>
  <path d="M118.237,127.541c-1.179,3.507-1.897,7.21-2.839,10.79c5.084-5.397,7.945-11.867,2.839-18.17  C118.367,120.872,118.268,127.98,118.237,127.541" id="path23"/>
  <path d="M143.787,12.853c2.121,6.041,1.808,12.785-0.565,18.73C143.41,25.34,143.599,19.097,143.787,12.853" id="path25"/>
  <path d="M198.292,54.294c-1.382,4.579-3.335,7.374-8.517,8.517C196.008,63.735,198.995,60.516,198.292,54.294" id="path27"/>
  <path d="M155.143,121.863c4.595,9.927,2.127,18.564,1.137,28.955c0,0.762,0,0.762,0,0  C155.384,141.317,156.548,130.994,155.143,121.863" id="path29"/>
  <path d="M364.086,367.718c5.47-0.905,20.121-2.885,23.849-6.82c10.028-10.59-9.347-43.367-20.905-46.409  c-29.423-7.743-36.188,5.511-42.76,32.892C318.411,371.79,351.807,370.317,364.086,367.718" id="path31"/>
  <path d="M335.132,363.171c-7.565-12.336-5.701-43.477,12.492-48.262c16.643-4.377,22.149,16.114,32.08,22.712  c6.022,4.001,9.152,9.833,4.826,17.033C377.16,366.922,346.808,363.171,335.132,363.171" id="path33" style="fill:#D59758;"/>
  <path d="M314.122,383.61c-3.697-1.328-12.218-3.634-14.76-6.81c-7.405-9.249,5.399-34.632,16.413-34.632  c24.088,0,26.684,4.334,32.634,27.067C353.337,388.063,321.897,384.857,314.122,383.61" id="path35"/>
  <path d="M338.536,379.074c20.063-22.084-18.283-45.988-32.365-18.741  C296.041,379.933,321.656,379.074,338.536,379.074" id="path37" style="fill:#D59758;"/>
  <path d="M198.292,103.127c1.325-0.19,2.65-0.381,3.976-0.571c0.19,1.137,0.381,2.273,0.571,3.41  c-2.797-0.352-5.604-0.815-8.517-1.137C193.583,105.067,201.008,102.431,198.292,103.127" id="path39"/>
  <path d="M226.116,238.259c-14.321-5.874-27.938-12.047-41.72-19.099  c-13.367-6.84-23.565,14.081-28.688,23.646c-1.081-6.907-1.804-13.93-1.703-21.015c-6.524,1.063-13.049,2.128-19.574,3.191  c-7.215,1.177-7.774,7.089-15.63,6.467c2.481-13.338,24.569-12.067,30.43-24.043c8.955-18.296,11.824-29.519,14.145-49.774  c3.906-34.099,2.331-74.517-40.028-76.08c21.365-0.788,34.494,5.751,44.286,25.55c3.667-16.827,13.148-38.44,7.945-55.647  c3.448,15.8-10.233,68.136,1.708,72.681c-2.047-10.413,19.261-14.15,27.818-11.921c-15.308,1.246-28.403,15.379-29.853,30.165  c-1.315,13.421-5.333,47.9,4.775,57.706c7.382,7.161,13.919,15.416,23.294,19.765C213.603,224.621,215.653,236.221,226.116,238.259" id="path41" style="fill:#6BB336;"/>
  <path d="M109.72,226.337c0.191,6.824-2.664,13.284-7.952,17.6C104.394,238.512,108.28,230.713,109.72,226.337" id="path43"/>
  <path d="M249.393,252.454c3.098,1.896,6.599,3.871,9.903,5.522c8.24,4.118,13.858,5.778,22.994,7.186  c6.611,1.019,12.55-9.693,15.364,0.355c2.398,8.564-33.154,43.242-40.447,51.564c-28.18,32.16-59.673,80.78-105.754,86.688  c-20.18,2.588-38.815,3.931-39.46-19.019c-0.618-21.991,3.564-40.931,15.897-59.617c18.469-27.985,43.072-53.381,64.118-79.465  c8.158-10.11,21.107-35.578,34.673-37.502C226.996,222.248,235.997,249.904,249.393,252.454" id="path45" style="fill:#7A9999;"/>
  <path d="M233.496,260.405c-16.854,0.588-7.779,15.038,1.137,9.082c-2.081-0.946-4.162-1.893-6.243-2.839  c2.047,0.363,4.15,0.098,6.243,0.565c0.701-3.556,1.388-5.63,1.702-9.082C236.505,257.62,232.857,261.049,233.496,260.405" id="path47" style="fill:#7A9999;"/>
  <path d="M242.013,247.341c-1.653,2.979-3.307,6.584-3.976,9.088c-0.567-0.188-0.756,0.002-0.565,0.571  c2.895-2.825,4.985-7.167,5.678-11.927C242.862,245.96,241.296,247.894,242.013,247.341" id="path49" style="fill:#7A9999;"/>
  <path d="M230.657,262.678c-2.222,1.017-3.909,1.016-5.678,2.839  C227.673,265.564,228.394,263.795,230.657,262.678" id="path51" style="fill:#B8CCCC;"/>
  <path d="M337.971,84.957c-10.83,18.672-23.102,42.768-37.477,58.209c-12.877,13.831-18.582,14.047-24.414,31.505  c6.556,1.31,12.956,4.661,16.509,10.429c5.23,8.495,8.529,2.298,16.403-2.526c7.963-4.878,8.76-20.708,18.99-28.381  c16.621-12.466,31.451-24.264,46.042-38.859c7.202-7.204,19.654-35.886,10.146-43.352C364.636,56.643,354.297,77.982,337.971,84.957  " id="path53"/>
  <path d="M349.892,132.088c10.869-9.357,19.514-18.811,26.121-31.228c2.486-4.672,8.738-13.494,7.358-18.676  c-3.413-12.819-13.107-13.279-22.689-6.88c-14.31,9.556-21.075,16.091-30.662,30.663c-7.413,11.267-13.978,23.188-20.952,34.738  c-7.048,11.671-25.851,17.602-27.31,31.128c6.831,1.264,12.129,12.607,16.468,13.053c9.522,0.978,9.087-12.656,11.836-16.064  C322.155,153.828,334.542,143.844,349.892,132.088" id="path55" style="fill:#CC6600;"/>
  <path d="M376.013,78.714c-3.747-1.064-10.979,7.235-5.965,8.234C374.864,87.907,376.646,82.813,376.013,78.714" id="path57"/>
  <path d="M295.952,155.365c5.356,3.909,9.44,9.542,11.355,15.897c-5.154-5.041-10.825-9.337-17.599-11.927  C289.725,159.33,297.853,154.599,295.952,155.365" id="path59"/>
  <path d="M307.308,127.541c-3.086,8.499-8.818,13.646-15.331,19.307C297.081,141.073,304.106,132.731,307.308,127.541" id="path61"/>
  <path d="M383.959,67.924c4.714,3.064,7.146,7.933,7.951,13.629C393.111,74.602,391.569,68.26,383.959,67.924" id="path63"/>
  <path d="M261.319,195.675c4.905-5.654,8.812-12.611,13.059-19.019c3.133-4.729,15.121,5.739,17.074,9.159  c5.815,10.184-7.518,15.783-15.372,22.923C275.133,201.266,268.952,195.89,261.319,195.675" id="path65"/>
  <path d="M278.354,201.353c19.489-11.128-0.881-26.295-6.815-12.487  C268.824,195.182,271.794,195.777,278.354,201.353" id="path67" style="fill:#E6B800;"/>
  <path d="M307.879,187.724c-7.148,2.666-13.568,8.173-17.033,13.629C296.527,196.827,302.462,192.581,307.879,187.724" id="path69"/>
  <path d="M280.056,182.617c-2.722,4.277-5.637,8.704-7.951,13.058c3.728-1.309,7.718-6.807,11.927-10.79  C282.825,182.824,281.621,183.431,280.056,182.617" id="path71" style="fill:#FFF2CC;"/>
  <path d="M286.87,188.295c-3.418,3.818-7.299,7.792-9.653,11.927c0.565-0.188,0.754,0,0.565,0.565  C281.541,196.407,287.114,193.443,286.87,188.295" id="path73" style="fill:#804000;"/>
  <path d="M276.65,181.48c-2.65,3.974-5.301,7.948-7.951,11.921c0.568-0.189,0.757,0.001,0.566,0.571  c0.862-0.522,0.942,0.302,1.137,0.571C273.464,189.775,277.297,184.212,276.65,181.48" id="path75" style="fill:#804000;"/>
  <path d="M261.319,196.241c-3.272,6.14,5.453,20.604,13.059,14.766C280.75,206.115,264.689,196.747,261.319,196.241" id="path77"/>
  <path d="M264.158,200.222c1.21,4.315,2.249,7.301,7.38,6.243  C270.091,202.587,267.562,201.861,264.158,200.222" id="path79" style="fill:#804000;"/>
  <path d="M242.584,259.268c-2.959,7.326-1.397,18.56-13.063,17.033c-23.096-3.021,10.79-25.526,10.79-37.241  c0-7.513,19.605-45.572,28.389-35.999c3.942,4.297-13.82,18.963-16.747,23.56C245.278,237.102,251.381,250.037,242.584,259.268" id="path81"/>
  <path d="M260.748,208.167c-4.5,6.202-9.563,11.98-14.76,17.604  C250.04,219.758,256.849,211.125,260.748,208.167" id="path83" style="fill:#7A9999;"/>
  <path d="M240.311,246.21c-6.436-13.316-13.262-21.611-13.629-38.043c-12.579,1.784-23.732,23.941-31.327,33.354  c-22.425,27.793-44.851,55.586-67.275,83.378c-13.672,16.945-16.086,37.915-16.086,58.716c0,23.663,18.59,22.831,39.46,20.154  c47.127-6.042,79.908-57.191,108.637-89.979c7.739-8.832,40.97-42.142,36.146-50.83c-1.701-3.063-13.205,2.314-19.02,1.419  c-7.73-1.19-12.565-5.249-19.872-7.38c-6.188-1.805-7.197-7.609-12.492-1.708c13.324,7.028,32.915,21.58,47.696,10.79  c-25.782,33.144-52.032,67.885-82.328,97.052c-12.465,12-31.539,32.811-49.777,34.838c-8.583,0.955-24.622,5.174-33.124,2.105  c-12.698-4.582-9.647-11.582-9.647-23.598c0-18.435,5.334-38.086,17.113-52.698c29.261-36.3,56.886-75.11,88.493-109.365  c-1.506,13.574,7.604,25.234,14.76,35.764C238.795,248.857,239.553,247.534,240.311,246.21" id="path85"/>
  <path d="M218.165,271.195c2.232,1.846,1.153,4.477,5.112,5.678c-32.648,39.124-66.77,79.185-102.767,115.254  c-3.734-17.988,28.07-41.442,39.026-53.662C178.798,316.983,202.511,295.216,218.165,271.195" id="path87" style="fill:#B8CCCC;"/>
  <path d="M221.004,224.63c-19.679,24.241-39.358,48.483-59.037,72.725  c-16.157,19.903-34.077,38.393-40.326,64.114c22.216-26.114,44.432-52.229,66.647-78.342c7.081-8.324,14.188-16.623,21.299-24.921  C222.527,243.107,227.782,242.59,221.004,224.63" id="path89" style="fill:#598080;"/>
  <path d="M262.456,268.356c6.789,1.759,13.448,3.855,20.438,4.536  c-41.035,47.114-77.134,109.366-140.81,124.347c20.692-20.668,40.137-42.841,60.183-64.158  C221.26,312.883,248.264,290.637,262.456,268.356" id="path91" style="fill:#598080;"/>
  <path d="M227.253,241.664c-18.959,22.305-37.918,44.609-56.878,66.914  c-12.688,14.927-48.922,43.478-50.436,64.247c20.781-24.243,41.562-48.486,62.343-72.729  C191.718,289.087,230.875,252.943,227.253,241.664" id="path93" style="fill:#598080;"/>
  <path d="M252.231,263.244c-39.366,44.477-78.732,88.953-118.098,133.43  c10.199-3.135,18.746-16.497,26.108-24.146c14.646-15.215,29.292-30.43,43.938-45.645c18.825-19.557,37.009-39.74,55.438-59.67  C257.547,266.31,254.274,263.8,252.231,263.244" id="path95" style="fill:#598080;"/>
  <path d="M226.116,277.438c1.921,0.217,2.629,1.656,5.112,0.566c-18.79,18.596-35.5,39.563-53.375,59.052  c-12.582,13.717-39.047,53.836-55.642,57.909C155.658,354.804,192.662,317.624,226.116,277.438" id="path97" style="fill:#B8CCCC;"/>
  <path d="M286.299,271.76c-17.274,7.321-33.403,35.574-45.557,49.528  c-11.993,13.771-24.005,32.432-38.475,43.302c-20.594,15.473-33.015,26.257-60.183,32.648c23.354-3.404,40.083-10.177,58.48-27.252  C230.473,342.226,265.366,304.671,286.299,271.76" id="path99" style="fill:#B8CCCC;"/>
  <path d="M119.374,362.606c10.028-31.346,29.438-52.702,50.17-77.578c8.708-10.45,17.148-21.12,25.67-31.723  c8.003-9.958,27.19-25.818,28.063-38.889c-30.392,32.938-56.966,70.254-85.1,105.156  C128.607,331.445,119.182,346.98,119.374,362.606" id="path101" style="fill:#B8CCCC;"/>
  <path d="M291.977,282.55c-1.02,0.992-1.655,2.438-2.839,2.839c4.796,1.018,9.953,2.344,14.766,3.405  C299.988,287.114,295.747,284.705,291.977,282.55" id="path103"/>
  <path d="M351.028,371.688c-0.394,1.39-0.588,2.67-1.137,3.976c4.221-1.131,9.056-2.419,13.058-3.976  C359.269,371.754,353.313,371.599,351.028,371.688" id="path105"/>
  <path d="M235.77,364.879c-5.489,1.512-10.979,3.024-16.468,4.536c7.382-0.756,14.764-1.513,22.146-2.269  C239.555,366.391,237.662,365.635,235.77,364.879" id="path107"/>
  <path d="M104.608,359.767c-6.849,2.479-14.406,3.836-21.575,5.678c8.609-1.142,17.434-1.976,26.121-2.839  C107.881,362.184,105.256,360.092,104.608,359.767" id="path109"/>
  <path d="M66,285.956c-1.831,6.514-8.535,8.818-14.76,11.921C56.103,294.285,61.682,290.028,66,285.956" id="path111"/>
  <path d="M0.139,348.412c2.407,3.92,4.185,8.369,6.244,12.486C1.245,358.386-0.542,353.573,0.139,348.412" id="path113"/>
</svg>
