<?xml version="1.0" encoding="UTF-8" standalone="no"?>
<!-- Generator: Adobe Illustrator 12.0.0, SVG Export Plug-In . SVG Version: 6.00 Build 51448)  --><svg height="419.281" id="Layer_1" inkscape:version="0.42" sodipodi:docbase="F:\openclip\svg da inviare" sodipodi:docname="Marchio gallina.svg" sodipodi:version="0.32" space="preserve" style="overflow:visible;enable-background:new 0 0 423.253 419.281;" version="1.1" viewBox="0 0 423.253 419.281" width="423.253" xmlns="http://www.w3.org/2000/svg" xmlns:cc="http://web.resource.org/cc/" xmlns:dc="http://purl.org/dc/elements/1.1/" xmlns:inkscape="http://www.inkscape.org/namespaces/inkscape" xmlns:rdf="http://www.w3.org/1999/02/22-rdf-syntax-ns#" xmlns:sodipodi="http://inkscape.sourceforge.net/DTD/sodipodi-0.dtd" xmlns:svg="http://www.w3.org/2000/svg">
  <metadata>
    <rdf:RDF xmlns:cc="http://web.resource.org/cc/" xmlns:dc="http://purl.org/dc/elements/1.1/" xmlns:rdf="http://www.w3.org/1999/02/22-rdf-syntax-ns#">
      <cc:Work rdf:about="">
        <dc:title>Marchio gallina</dc:title>
        <dc:description></dc:description>
        <dc:subject>
          <rdf:Bag>
            <rdf:li>unsorted</rdf:li>
          </rdf:Bag>
        </dc:subject>
        <dc:publisher>
          <cc:Agent rdf:about="http://www.openclipart.org/">
            <dc:title>Open Clip Art Library</dc:title>
          </cc:Agent>
        </dc:publisher>
        <dc:creator>
          <cc:Agent>
            <dc:title>Architetto Francesco Rollandin</dc:title>
          </cc:Agent>
        </dc:creator>
        <dc:rights>
          <cc:Agent>
            <dc:title>Architetto Francesco Rollandin</dc:title>
          </cc:Agent>
        </dc:rights>
        <dc:date></dc:date>
        <dc:format>image/svg+xml</dc:format>
        <dc:type rdf:resource="http://purl.org/dc/dcmitype/StillImage"/>
        <cc:license rdf:resource="http://web.resource.org/cc/PublicDomain"/>
        <dc:language>en</dc:language>
      </cc:Work>
      <cc:License rdf:about="http://web.resource.org/cc/PublicDomain">
        <cc:permits rdf:resource="http://web.resource.org/cc/Reproduction"/>
        <cc:permits rdf:resource="http://web.resource.org/cc/Distribution"/>
        <cc:permits rdf:resource="http://web.resource.org/cc/DerivativeWorks"/>
      </cc:License>
    </rdf:RDF>
  </metadata>
  <defs id="defs16"/>
  <sodipodi:namedview bordercolor="#666666" borderopacity="1.0" id="base" inkscape:current-layer="Layer_1" inkscape:cx="211.62650" inkscape:cy="209.64050" inkscape:pageopacity="0.0" inkscape:pageshadow="2" inkscape:window-height="510" inkscape:window-width="787" inkscape:window-x="22" inkscape:window-y="29" inkscape:zoom="0.85861271" pagecolor="#ffffff"/>
  <ellipse cx="211.627" cy="209.64" id="ellipse3" rx="206" ry="204.014" style="fill:#FFBF00;stroke:#000000;stroke-width:11.2542;stroke-linecap:square;stroke-miterlimit:10;"/>
  <path d="M239.191,410.107c-7.08,0-13.749,1.574-20.635,1.947  c-7.576,0.41-15.2-0.231-22.428-0.974c-14.386-1.478-28.882-1.812-42.164-6.814c-7.543-2.842-15.169-4.34-22.427-8.278  c-6.6-3.582-13.889-6.113-20.633-10.224c-6.086-3.709-13.453-6.821-18.375-12.152c-0.612-0.663-2.983-1.385-4.054-1.966  c-1.481-0.803-2.429-2.206-3.588-3.409c-2.673-2.771-6.724-4.374-9.42-7.302c-4.803-5.217-9.134-8.941-13.905-14.119  c-2.063-2.239-4.412-4.413-6.279-6.816c-1.1-1.417-6.279-6.639-6.279-8.275c0-1.864-4.416-6.253-5.815-7.771  c-2.782-3.018-3.518-6.983-5.847-10.244c-1.723-2.413-5.383-4.595-5.383-8.761c0-1.894-4.097-7.254-5.383-9.738  c-3.504-6.772-6.093-13.988-8.307-21.205c-1.157-3.771-3.456-7.305-4.252-10.927c-0.408-1.858,0.311-3.962,0-5.842  c-0.287-1.735-1.795-3.766-1.795-5.843c0-3.501-1.245-7.305-1.795-10.711c-0.691-4.283-1.794-8.152-1.794-12.657  c0-7.145-0.896-15.657-0.896-23.369c0-8.305,0.585-16.297,1.794-24.342c1.061-7.061,4.486-14.336,4.486-21.908  c0-3.615,1.713-7.134,3.139-10.224c1.726-3.74,2.581-8.07,4.037-11.684c2.978-7.391,6.936-14.074,10.317-21.422  c2.639-5.734,6.214-14.04,10.765-18.987c2.456-2.67,4.702-5.534,6.729-8.276c0.94-1.273,1.193-3.382,2.691-4.869  c1.065-1.058,3.367-3.773,4.485-4.38c1.271-0.69,2.501-2.996,3.14-4.383c0.668-1.451,2.464-2.188,3.605-3.426  c2.46-2.669,4.751-5.799,7.609-8.258c5.451-4.69,11.47-8.82,17.044-13.632c5.345-4.614,12.344-9.622,18.839-13.144  c6.495-3.521,13.826-7.021,20.634-10.711c6.846-3.71,14.57-5.309,21.53-8.276c3.933-1.677,6.641-2.198,10.766-2.921  c0.898-0.157,4.456-0.941,4.934-1.461c1.208-1.312,4.175-0.075,5.832-0.974c4.873-2.645,14.732-3.408,20.633-3.408  c7.084,0,15.293-2.326,22.428-1.948c7.354,0.39,15.139,1.228,22.427,1.948c6.635,0.656,13.92,3.894,20.435,3.894  c3.767,0,6.271,1.948,10.066,1.948c3.709,0,8.175,2.696,11.663,3.895c2.847,0.979,6.961,3.894,9.869,3.894  c1.693,0,2.534,1.948,4.484,1.948c1.18,0,5.127,0.697,5.831,1.461c5.119,5.551,14.421,6.929,20.185,11.197  c5.66,4.191,11.79,6.96,16.613,12.189c2.469,2.677,5.639,3.193,8.059,5.824c1.191,1.295,6.246,7.303,8.073,7.303  c1.651,0,5.115,5.063,6.297,6.347c1.186,1.288,2.004,3.221,3.123,4.364c1.023,1.046,1.327-1.01,2.241,0.974  c0.684,1.483,2.008,1.438,2.692,2.92c0.966,2.093,4.744,7.201,6.728,8.277c2.329,1.263,5.571,6.73,6.729,9.25  c2.981,6.488,8.613,11.891,11.663,18.5c1.154,2.501,2.642,6.274,4.485,8.276c1.727,1.874,1.463,6.456,3.59,8.764  c3.403,3.693,6.729,12.15,6.729,17.04c0,2.586,2.134,5.974,2.923,8.546c0.951,3.104,1.741,5.871,2.458,8.98  c1.365,5.922,2.692,11.16,2.692,17.526c0,6.211,1.793,12.171,1.793,18.5c0,6.167,0,12.333,0,18.5c0,6.444-1.19,12.197-1.793,18.499  c-0.33,3.452-0.174,6.423-0.897,9.738c-0.657,3.012-2.293,6.543-1.795,9.735c-7.106-13.353-19.898-23.628-27.811-36.513  c-1.258-2.048-3.229-1.846-4.486-3.895c-1.449-2.36-2.656-3.373-4.483-5.356c-2.796-3.034-5.596-6.07-8.508-9.231  c-4.902-5.322-10.936-11.764-16.611-14.137c8.077,0,19.705-0.425,26.015,4.869c-1.356-2.765-7.244-8.463-10.066-9.484  c-4.975-1.8-8.988-4.406-14.155-6.095c-7.403-2.42-21.942-5.942-29.605-1.948c3.483-5.039,8.641-6.503,12.56-10.709  c-9.783,0-17.768,4.2-26.912,5.842c0.799-1.819,1.098-3.869,0.897-5.842c-3.254,3.511-8.787,4.375-11.662,7.789  c0.743-1.614,1.654-3.111,1.794-4.868c-2.233,2.412-4.899,2.195-7.177,3.895c-1.843,1.375-4.742,4.895-6.28,6.816  c1.4-2.283,2.648-4.862,4.487-6.816c-4.78,0.817-8.159,6.806-12.561,8.763c0.744-1.614,1.655-3.111,1.794-4.869  c-2.498,1.425-5.865,3.031-8.074,4.869c-2.542,2.116-3.906,5.432-6.28,7.789c0.694-2.26,1.052-5.078,2.692-6.815  c-3.983,2.005-4.955,6.794-8.073,9.737c-0.179-2.1,0.347-4.308,1.793-5.842c-4.571,2.178-7.106,7.042-8.074,11.684  c-0.265-2.379,0.128-5.051,1.795-6.815c-7.513-1.941-14.147,18.502-16.147,23.369c-1.93,4.695-3.164,8.308-6.713,12.152  c-0.844,0.915-2.335,0.69-3.156,1.479c-0.938,0.9-0.375,2.547-1.594,3.426c-2.289,1.654-4.018,3.905-6.479,5.338  c-3.701,2.154-9.174,3.01-13.458,4.869c-1.57,0.682-5.382,1.342-5.382,2.92c0,1.816-1.443,6.365-2.691,7.791  c-1.286,1.469-5.126,3.199-6.746,1.441c-2.628-2.852-2.93-2.275-1.329-5.336c1.04-1.986,4.305-1.64,1.794-3.896  c-1.515-1.361-4.399,0.522-6.279-1.948c5.143-2.788,13.456-3.887,13.456-10.926c0-3.307-3.151-6.35-3.588-9.521  c-0.394-2.859,2.882-7.306-1.795-8.764c2.109-2.372,3.001-6.738,0-8.762c5.975,0.842,2.936-7.436,4.486-8.277  c2.668-1.447,6.57-7.479,4.485-10.224c4.66,0,8.528-0.234,8.971-5.843c1.961,1.021,5.392,1.806,7.178,0  c2.01-2.031-0.078-6.221,0-8.763c6.592,2.052,2.535,12.426,0.28,16.096c-2.787,4.537-8.354,8.628-8.354,14.305  c0,3.244,1.814,5.308,4.686,6.347c4.094,1.482,3.389-3.394,3.389-5.806c0-4.67-0.082-2.08,2.691-3.679  c3.146-1.814,6.17-3.77,3.589-7.789c3.787,0.651,7.613-3.029,5.382-6.816c2.148,1.126,3.427,0.835,5.383,0  c0.43-0.184,0.897-1.982,0.897-2.435c0-1.292,1.116,0.048,1.794-0.487c1.928-1.522,8.338-4.334,5.383-7.79c0.299,0,0.598,0,0.897,0  c0.575,1.432,2.877,1.263,4.484,0c1.019-0.8,1.794-1.666,1.794-2.921c0-2.088,1.359-0.269,2.692-0.974  c2.531-1.338,4.486-1.058,4.486-4.111c0-0.516,5.128-1.964,6.478-2.452c1.252-0.453,0.672-1.659,1.596-2.2  c0.205-0.12,1.213-0.614,1.793-0.974c2.119-1.314,3.756-1.153,5.833-3.408c0.86-0.935-0.254-2.434,1.146-2.434  c1.072,0,2.746,0.272,3.788,0c1.853-0.484,4.342-1.969,4.486-3.896c2.663,2.036,9.063,1.892,9.866-1.946  c3.471,2.648,5.078,0.125,7.177-1.947c1.364-1.347-0.854-1.947,2.242-1.947c0.909,0,2.321,0.285,3.142,0  c7.388-2.563,4.71-9.493,6.512-15.363c1.861-6.066,2.563-12.843,4.253-18.717c1.647-5.722,5.72-11.448,8.074-16.552  c-1.938,2.104-3.876,4.207-5.815,6.31c-1.993,2.162-4.374,2.803-6.279,4.869c-1.415,1.535-4.723,2.134-6.744,1.479  c-3.084-1-3.07-3.279-2.692-6.816c0.62-5.795,2.479-11.971,4.253-17.742c0.844-2.741-0.528-5.92,0.682-8.548  c0.938-2.034,1.668-6.465,1.346-8.763c-4.008,8.701-8.191,16.746-13.176,24.86c-1.889,3.075-5.811,6.852-8.354,9.22  c-1.677,1.562-5.479,3.894-7.625,3.894c-0.587,0-4.264-8.475-4.935-9.736c-2.274-4.275-4.129-8.576-5.615-13.416  c-1.357-4.419-3.971-8.755-6.048-12.875c-1.761-3.492-1.104-10.122-3.588-12.657c-0.497,12.146,1.794,24.614,1.794,36.784  c0,5.265-0.245,22.611-7.625,22.611c-4.369,0-7.168-8.905-8.521-12.659c-2.261-6.271-3.773-12.411-7.178-18.5  c-1.555-2.779-1.605-5.183-2.691-7.789c-1.08-2.593-3.682-5.072-4.934-7.79c-1.207-2.618-3.48-5.177-4.935-7.789  c-1.106-1.986-2.215-4.366-4.485-4.869c-0.278,2.294,0.897,4.425,0.897,6.816c0,2.782-0.155,5.333,0.665,8.005  c1.438,4.677-0.312,10.504,0.233,15.363c1.055,9.403,1.315,19.507,0.895,29.211c-0.149,3.444,0.206,9.348-2.69,11.685  c-3.86,3.113-8.557-0.56-10.766-3.896c-5.831-8.806-9.867-18.731-9.867-29.211c0.135,4.15-0.897,8.401-0.897,12.658  c0,4.757,0.722,8.945,0.897,13.632c0.277,7.407,2.191,15.705,4.484,22.395c1.754,5.119,4.923,13.164,0.449,18.013  c-3.647,3.953-15.943-10.166-20.184-10.224c1.5,1.941,3.43,2.178,4.766,4.352c0.895,1.457,1.604,2.917,2.411,4.412  c0.69,1.278,2.253,2.961,2.691,3.896c1.373,2.93,1.387,6.808,0,9.737c-0.594,1.253-1.541,1.284-2.691,2.921  c-3.259,4.635-5.422,11.295-8.074,16.553c-2.889,5.729-4.804,12.098-5.383,18.5c-0.451,4.988-0.26,14.323,3.157,18.031  c1.965,2.133,5.225,4.025,2.675,6.798c-2.035,2.211-2.551,4.715-4.503,6.834c-1.192,1.295-1.935,2.44-2.459,4.147  c-0.703,2.291-2.024,2.195-2.906,4.11c-1.039,2.254-1.35,7.797-2.691,9.251c-3.038,3.292-5.42,14.626-4.934,18.987  c13.453-7.676,26.208-15.412,41.267-19.474c6.76-1.823,13.036-3.895,20.634-3.895c8.192,0,13.477,2.729,20.633,5.842  c1.301-2.051,1.301-4.765,0-6.815c1.162,1.683,2.625,4.754,4.486,5.841c1.787,1.043,4.979,0.614,7.176,1.948  c-1.832-2.76-3.102-5.765-4.484-8.763c2.4,3.001,5.898,5.329,9.867,4.868c-3.032-1.412-2.521-3.755-4.485-5.843  c6.491,1.592,8.274,1.55,14.554-0.722c2.641-0.955,7.412-5.654,6.977-9.015c-4.092,4.676-19.346,6.973-24.222,2.92  c-1.393-1.157-3.588-3.4-3.588-5.354c0-0.988-4.144-0.115-4.935-0.975c-3.725-4.039-2.377-8.968,0.448-13.144  c-0.969,2.874-3.133,3.399-4.95,5.373c-1.941,2.108-2.465,4.62-4.485,6.815c-2.433,2.643-13.422,7.605-14.786,1.442  c4.426,0.618,9.01-3.155,6.279-7.789c1.795,0,3.59,0,5.385,0c-0.269-1.772-1.816-3.563-3.59-3.896  c2.217-0.962,7.084-4.052,8.972-1.946c0.622-2.493-0.845-4.354-2.692-5.843c6.133,4.797,14.168-5.21,17.942-8.763  c5.506-5.183,11.023-7.79,18.392-7.79c6.424,0,14.491,3.046,19.287,7.79c2.395,2.368,5.15,5.464,6.896,8.306  c1.439,2.345,6.908,1.432,9.252,1.432c-5.748,3.404-7.902,12.102-9.869,18.499c2.156-0.789,4.58-1.698,6.281,0  c-3.756,2.266-5.236,5.741-8.077,8.765c2.292,0,4.601,0.528,6.282-0.975c-2.838,3.075-6.855,7.741-10.766,8.763  c1.494,0,2.988,0,4.483,0c-1.934,2.099-4.423,3.794-6.277,5.843c-1.911,2.112-2.628,4.752-4.485,6.814  c1.668-1.627,10.445-3.543,7.607-0.467c-2.143,2.323-5.697,5.087-7.158,8.256c-4.254,9.225,0.214,14.355,6.278,20.936  c4.849,5.261,14.456-9.035,16.595-12.171c0.916-1.343,2.088-3.235,3.158-4.398c1.604-1.741,2.566-0.462,4.021-1.442  c2.194-1.48,6.279-7.691,6.279-10.496c0-2.838-0.679-10.436-3.14-5.085c-1.896,4.121-3.153,6.831-6.252,10.194  c-3.001,3.257-4.208,6.234-5.859,10.254c-1.945,4.736-4.086,5.265-8.971,6.814c-12.549,3.982-7.131-13.934,1.097-10.961  c3.985,1.439,4.278-7.512,4.952-9.702c0.459-1.493,3.47-1.929,4.916-2.451c1.502-0.542,2.749-2.479,3.82-3.643  c2.541-2.76-1.051-4.4-3.323-4.4c-3.472,0-5.396,1.054-8.571,2.2c-1.97,0.711-8.49,2.901-5.151-0.721  c1.041-1.131,3.032-0.535,4.056-1.479c0.879-0.811,0.801-2.841,1.794-3.895c-1.196-0.648-2.393-1.298-3.589-1.946  c4.213-4.48,15.997,1.151,21.082-4.383c2.365-2.574,5.176-7.746,3.588-11.197c-1.523-3.31-5.375-9.02-4.934-12.657  c0.945,0.209,2.477,0.739,3.14,1.46c1.433,1.557,2.834,1.497,4.037,2.434c3.192,2.484,4.868,6.669,6.729,10.711  c4.101,8.906-7.854,16.063-3.589,25.316c2.288,4.965,2.359,7.531,0,12.658c-0.891,1.934-3.41,2.51-4.935,3.894  c-1.608,1.46-2.332,3.253-3.588,4.87c-2.595,3.342-5.18,6.611-7.177,10.709c-1.01,2.072-1.281,3.756-2.242,5.843  c-0.936,2.028-1.07,4.177-2.242,5.844c0.411-3.557-0.148-14.705-4.486-8.765c-1.268,1.736-0.867,4.038-1.794,5.843  c-0.751,1.463-2.405,2.942-3.309,4.411c-1.616,2.629-3.739,5.434-6.56,6.298c-0.382-2.729,2.779-7.589,1.794-9.734  c-1.364-2.97-4.011,1.661-5.103,3.437c-1.926,3.133-9.382,14.729-12.84,14.09c1.963-4.771,4.167-10.33,5.383-15.579  c-4.934-0.6-8.535,9.264-11.23,12.188c-2.449,2.66-6.863,11.179-10.749,11.179c-3.159,0,2.941-11.253,4.037-13.632  c1.78-3.863,6.971-14.91,3.59-18.5c-2.333,2.531-4.56,4.951-6.745,7.322c-2.792,3.028-2.924,7.438-4.918,10.691  c-3.694,6.023-5.537,15.047-8.972,19.961c-8.497,12.159-23.106,1.944-30.501-8.765c1.875,0.664,3.62,0.976,5.582,0.976  c2.262,0,2.617-2.922,3.949-2.922c1.939,0,3.605-0.973,5.271-0.973c1.274,0,0.445-1.538,1.346-1.947  c0.93-0.423,2.334,0.129,3.389-0.253c1.535-0.557,2.87-3.643,3.34-3.643c1.61,0,3.607-1.142,5.133-1.694  c3.502-1.27,4.286-6.871,4.286-9.991c0-7.099-1.081-16.753-5.849-21.925c-7.864-8.532,6.002-6.854,10.335-1.442  c0.956-7.851-4.677-17.342-11.664-20.448c-6.76-3.006-14.722-2.923-22.426-2.923c-6.892,0-14.473,4.871-21.73,4.871  c-1.343,0-9.068,2.267-10.118,3.407c-2.609,2.833-9.189,2.804-10.317,7.303c15.824,0,30.934-4.868,46.65-4.868  c-3.059-1.105-8.071-1.946-10.318-4.384c-1.031-1.119,7.841-2.266,9.42-2.433c5.551-0.587,17.084,0.039,21.1,4.399  c2.207,2.398,5.589,8.26,0.232,8.26c-3.488,0-7.87-1.971-9.004,1.73c-1.705,5.559-10.07,15.627-15.219,17.49  c-1.436,0.52-2.33,2.093-3.389,3.173c-0.627,0.64-1.601,0.765-2.242,1.461c-0.771,0.837,0.079,1.687-0.449,2.434  c-2.573,3.64-4.693,6.304-6.729,10.711c-3.425,7.417-2.838,16.069,1.347,22.883c3.146,5.12,9.206,13.229,15.05,15.345  c3.788,1.371,7.128,2.112,10.967,3.154c4.414,1.199,7.406-1.46,11.66-1.46c2.24,0,2.743-2.978,4.021-4.363  c1.49-1.617,4.666-3.053,6.744-3.424c-1.517,5.357-5.127,12.105-7.625,17.523c-1.967,4.269-6.904,6.353-9.419,10.713  C238.447,383.732,232.962,397.991,239.191,410.107 M223.043,279.631c0.374,4.38-1.269,10.411-2.692,14.604  c4.772-5.178,10.361-10.187,13.455-16.551C230.103,277.466,226.887,280.037,223.043,279.631" id="path5" style="fill-rule:evenodd;clip-rule:evenodd;fill:#4210D2;"/>
  <ellipse cx="211.627" cy="209.641" id="ellipse7" rx="206" ry="204.013" style="fill:none;stroke:#000000;stroke-width:11.2542;stroke-linecap:square;stroke-miterlimit:10;"/>
  <polygon id="polygon9" points="266.744,215.026 265.846,216 264.052,217.947   263.156,218.92 261.361,220.867 259.568,223.79 257.773,226.708 255.979,229.63 255.979,229.63 257.773,231.576 260.465,233.526   262.258,235.472 264.052,236.446 265.846,237.419 267.64,238.393 270.332,238.393 270.332,238.393 273.025,238.393 273.92,237.419   276.613,236.446 278.407,236.446 280.201,234.499 281.098,232.551 281.996,230.604 281.996,227.683 281.996,227.683   281.996,224.761 281.996,221.84 281.098,218.92 280.201,217.947 278.407,216 276.613,215.026 275.716,214.049 275.716,214.049   273.025,214.049 268.539,215.026 266.744,215.026 266.744,215.026 " style="fill-rule:evenodd;clip-rule:evenodd;fill:#FFBF00;"/>
  <path d="M270.332,217.947c5.819,0,7.045,2.493,8.74,8.005  c1.409,4.585-4.847,9.536-8.74,9.521c-4.729-0.02-7.865-4.122-8.073-8.764c-0.037-0.817,1.407-6.278,1.794-6.816  C265.812,217.446,267.572,217.947,270.332,217.947" id="path11" style="fill-rule:evenodd;clip-rule:evenodd;fill:#4210D2;"/>
  <path d="M267.64,223.79c1.382,0.747,3.588,1.25,3.589,2.919  c0,1.112-2.321,2.996-3.589,2.922C262.732,229.343,264.757,225.109,267.64,223.79" id="path13" style="fill-rule:evenodd;clip-rule:evenodd;fill:#FFBF00;"/>
</svg>
