<?xml version="1.0" encoding="UTF-8" standalone="no"?>
<!-- Generator: Adobe Illustrator 12.0.0, SVG Export Plug-In . SVG Version: 6.00 Build 51448)  --><svg height="414.169" id="Layer_1" inkscape:version="0.42" sodipodi:docbase="F:\openclip\svg da inviare" sodipodi:docname="principessa.svg" sodipodi:version="0.32" space="preserve" style="overflow:visible;enable-background:new 0 0 401.565 414.169;" version="1.1" viewBox="0 0 401.565 414.169" width="401.565" xmlns="http://www.w3.org/2000/svg" xmlns:cc="http://web.resource.org/cc/" xmlns:dc="http://purl.org/dc/elements/1.1/" xmlns:inkscape="http://www.inkscape.org/namespaces/inkscape" xmlns:rdf="http://www.w3.org/1999/02/22-rdf-syntax-ns#" xmlns:sodipodi="http://inkscape.sourceforge.net/DTD/sodipodi-0.dtd" xmlns:svg="http://www.w3.org/2000/svg">
  <metadata>
    <rdf:RDF xmlns:cc="http://web.resource.org/cc/" xmlns:dc="http://purl.org/dc/elements/1.1/" xmlns:rdf="http://www.w3.org/1999/02/22-rdf-syntax-ns#">
      <cc:Work rdf:about="">
        <dc:title>Various Cliparts</dc:title>
        <dc:description></dc:description>
        <dc:subject>
          <rdf:Bag>
            <rdf:li></rdf:li>
          </rdf:Bag>
        </dc:subject>
        <dc:publisher>
          <cc:Agent rdf:about="http://www.openclipart.org/">
            <dc:title></dc:title>
          </cc:Agent>
        </dc:publisher>
        <dc:creator>
          <cc:Agent>
            <dc:title>Architetto Francesco Rollandin</dc:title>
          </cc:Agent>
        </dc:creator>
        <dc:rights>
          <cc:Agent>
            <dc:title>Architetto Francesco Rollandin</dc:title>
          </cc:Agent>
        </dc:rights>
        <dc:date></dc:date>
        <dc:format>image/svg+xml</dc:format>
        <dc:type rdf:resource="http://purl.org/dc/dcmitype/StillImage"/>
        <cc:license rdf:resource="http://web.resource.org/cc/PublicDomain"/>
        <dc:language>en</dc:language>
      </cc:Work>
      <cc:License rdf:about="http://web.resource.org/cc/PublicDomain">
        <cc:permits rdf:resource="http://web.resource.org/cc/Reproduction"/>
        <cc:permits rdf:resource="http://web.resource.org/cc/Distribution"/>
        <cc:permits rdf:resource="http://web.resource.org/cc/DerivativeWorks"/>
      </cc:License>
    </rdf:RDF>
  </metadata>
  <defs id="defs528"/>
  <sodipodi:namedview bordercolor="#666666" borderopacity="1.0" id="base" inkscape:current-layer="Layer_1" inkscape:cx="200.78250" inkscape:cy="207.08450" inkscape:pageopacity="0.0" inkscape:pageshadow="2" inkscape:window-height="510" inkscape:window-width="787" inkscape:window-x="88" inkscape:window-y="116" inkscape:zoom="0.86921038" pagecolor="#ffffff"/>
  <path d="M253.171,92.802c7.571-1.404,20.469-0.625,26.404,4.951c3.664,3.442,4.127,8.824,4.952,13.532  c0.88,5.018,2.207,7.895,4.128,12.377c3.527,8.233,8.085,16.409,8.085,25.583c0,8.766-1.583,16.868-0.989,25.746  c1.321,19.802-1.64,38.315-6.602,57.43c-2.46,9.477-5.732,18.668-10.233,27.395c-2.248,4.357-4.72,8.823-7.921,12.546  c-3.181,3.699-7.652,5.235-10.892,8.581c-2.627,2.712-3.334,6.389-6.272,8.91c-3.588,3.08-8.274,3.996-12.874,4.294  c-10.412,0.672-19.896-1.202-29.179-5.845c-17.915-8.961-35-20.375-49.19-34.572c-7.057-7.059-6.675-17.627-7.692-26.807  c-1.087-9.82-2.324-19.982-3.142-29.855c-0.787-9.49,3.929-16.521,4.707-25.709c0.796-9.405-1.114-18.714,3.629-27.395  c2.672-4.893,6.885-8.588,9.573-13.532c2.792-5.137,4.423-10.628,8.252-15.185c6.421-7.644,18.564-18.094,28.825-19.229  c11.586-1.282,18.519-8.268,30.256-2.391C243.413,96.839,247.97,97.002,253.171,92.802" id="path3" style="fill:#FFA366;"/>
  <path d="M156.46,164.426c-6.357,3.153-9.366,2.87-14.193-1.651c-4.41-4.129-11.308-7.668-14.194,0.991  c-5.423,16.274,2.084,32.253,9.242,46.542c2.318,4.63,7.308,8.91,12.708,8.91c7.693,0,2.561-10.404,1.815-15.186  C149.708,190.387,156.145,178.085,156.46,164.426" id="path5" style="fill:#FFA366;"/>
  <path d="M159.101,249.257c0.45,17.419-4.134,29.466-20.464,37.626c-13.317,6.654-31.583,7.493-46.211,8.252  c27.529,28.619,59.905,52.349,86.666,81.767c5.97,6.563,11.394,17.268,19.618,21.216c6.587,3.162,18.06,1.309,25.741,2.212  c4.506,0.529,9.285,1.427,13.538,3.067c4.273,1.647,8.06,5.19,12.871,4.953c4.104-0.203,7.738-3.471,11.224-5.282  c4.234-2.199,9.646-2.958,13.367-5.941c5.821-4.663,1.81-22.191,1.088-28.674c-1.117-10.029-1.968-20.622-6.564-29.812  c-4.651-9.298-11.415-16.736-21.423-20.07c-4.053-1.349-10.804,1.585-9.078-5.282c1.424-5.664,3.135-10.394,3.135-16.339  c0-3.459-0.497-2.803-3.96-2.803c-5.49,0-10.839,0.144-16.174-1.323c-17.447-4.798-36.496-18.093-49.509-30.363  C168.473,258.227,162.697,253.977,159.101,249.257" id="path7" style="fill:#FFA366;"/>
  <path d="M114.078,117.323c-14.513-12.084-42.782-3.123-46.869-25.582  c-4.04-22.204,12.585-43.188,36.638-36.803c-16.421-41.825,54.735-33.349,72.45-48.521c14.2-12.162,30.523-3.746,46.704-1.318  c15.356,2.304,31.617-6.796,46.045,0c12.049,5.675,24.526,16.168,29.872,28.713c4.723,11.084,0.196,24.879,6.933,34.989  c7.388,11.088,23.033,16.789,28.714,30.697c3.358,8.222,4.033,33.096-9.899,27.891c-14.768-5.516-19.361-6.849-21.03-19.438  c-1.931-14.545,5.744-35.519-12.488-43.804c-24.004-10.907-45.289-27.317-70.785-18.45c-29.654,10.313-56.289,7.778-75.751,38.948  c-1.907,3.054-1.842,10.396-4.126,12.545c-4.054,3.815-6.52-0.145-11.881,2.637C120.599,103.979,115.047,107.691,114.078,117.323" id="path9" style="fill:#3D1200;"/>
  <path d="M291.789,217.236c13.724,5.285,33.218-23.307,42.248-5.607c-1.861-9.423,1.48-37.646,19.806-29.049  c1.877,0.881,7.975,13.237,9.9,15.518c7.986,9.453,18.353,13.944,19.31,28.216c1.327,19.762-57.825,54.842-35.812,69.813  c5.978,4.065,22.113,3.798,26.077-3.136c3.264-5.71-2.857-15.252-4.29-20.629c31.43,11.364,20.721,49.625-0.496,65.187  c-11.433,8.384-46.79,0.678-29.212,18.318c16.211,16.268,35.893-0.334,52.479,7.923c15.923,7.925,9.627,20.323,0.495,30.859  c-14.635,16.887-33.896,25.383-54.723,14.971c-10.152-5.074-25.242-19.262-37.367-15.959c-8.624,2.351-16.586,5.157-25.579,5.448  c8.645-16.122,2.883-53.406-7.592-67.667c-11.033-15.021-31.313-7.136-25.085-28.054c4.032-13.537,1.857-3.845,11.222-12.544  c5.496-5.104,8.997-10.687,15.019-15.842C282.648,262.623,290.498,235.624,291.789,217.236" id="path11" style="fill:#260600;"/>
  <path d="M60.079,172.348c2.567,0.185,5.488,2.059,7.923,2.972c-13.299,4.415,2.293,18.628,9.241,21.454  c-3.78,1.555-6.759,5.113-10.563,6.603c5.892,2.724,7.207,9.037,2.311,13.859c7.146,2.557,12.989,8.081,19.638,11.885  c9.494,5.432,21.553,0.443,31.523,5.611c7.16,3.712,10.715,16.575,17.273,7.103c10.192-14.72,6.008-12.021,4.181-25.917  c4.667,3.213,7.887,4.214,12.542,1.651c3.294,31.37,13.4,56.901-23.104,71.298c-10.201,4.023-63.646,1.57-60.073,15.841  c3.269,13.051,26.105,20.595,24.425,2.313c32.26,12.507-17.163,49.614-42.909,33.333c-21.963-13.887-31.538-35.672-30.367-59.411  c1.144-23.197-19.779-34.209-21.786-57.268c-2.146-24.662,5.518-75.5,36.971-73.11c14.978,1.138,20.198,9.688,34.986,8.252  C66.261,161.508,57.823,166.734,60.079,172.348" id="path13" style="fill:#260600;"/>
  <path d="M155.471,168.365c-5.297,2.955-24.252-5.776-25.745-8.584c-5.975-11.241,4.801-19.353-4.293-31.357  c-6.612-8.727-17.15-11.9-6.434-24.751c4.444-5.331,8.231-4.069,12.377-6.605c1.307-0.8,4.131,1.767,6.602,0  c3.166-2.265,3.309-8.543,5.279-11.552c14.144-21.599,32.335-35.644,58.423-35.644c14.275,0,24.211-13.102,38.619-11.885  c13.602,1.15,23.922,14.248,37.13,18.649c12.744,4.245,23.953,3.868,28.885,18.648c2.793,8.375-2.139,14.292-1.65,21.455  c0.427,6.297,3.855,10.997,3.957,18.154c0.213,14.925-7.125,24.395-11.881,36.969c-0.695-10.414-6.678-18.055-9.902-27.396  c-2.537-7.35-1.488-18.981-8.418-23.93c-8.003-5.715-18.308-3.826-26.568-3.468c-8.598,0.372-11.548,0.146-21.292-2.639  c-16.184-4.625-44.006,13.638-53.306,25.251C165.511,134.344,159.77,152.464,155.471,168.365" id="path15" style="fill:#260600;"/>
  <path d="M174.614,160.467c9.203-5.945,15.379-11.713,26.735-10.896c4.786,0.346,26.539,6.116,29.049,10.234  c6.886,11.294-15.443,1.396-19.475,0c-9.184-3.181-16.91-5.497-26.406-2.64C185.617,157.717,178.707,160.272,174.614,160.467" id="path17" style="fill:#260600;"/>
  <path d="M257.461,169.048c5.112-5.279,29.713-7.879,36.64-4.951c-3.671-18.652-33.407-4.497-38.786,6.271  C253.907,173.188,256.842,169.175,257.461,169.048" id="path19" style="fill:#260600;"/>
  <path d="M256.804,183.243c5.056-4.024,8.774-8.296,15.843-8.252c5.68,0.035,12.521,3.562,16.172,7.588  c-3.025-2.361-3.845,0.463-6.271,1.65c-3.658,1.79-6.732,2.05-10.891,1.65c-3.744-0.36-7.276-0.782-10.896-0.658  C258.463,185.301,254.405,186.866,256.804,183.243" id="path21" style="fill:#FFFFFF;"/>
  <path d="M266.317,177.386c-0.575,3.16-0.716,5.923,2.307,7.594c2.043,1.128,7.225,0.72,8.419-1.651  C281.501,174.467,270.681,175.482,266.317,177.386" id="path23" style="fill:#260600;"/>
  <path d="M222.804,180.929c-5.64-5.633-9.696-10.825-18.153-10.23c-6.606,0.464-12.392,4.509-18.483,6.601  c7.152,1.163,13.717,6.461,21.454,5.612c3.626-0.396,6.892-1.982,10.397-1.982C219.971,180.929,223.414,184.414,222.804,180.929" id="path25" style="fill:#FFFFFF;"/>
  <path d="M200.691,171.027c-6.557,5.235,2.3,14.825,8.58,9.901c2.975-2.332,2.78-5.368,1.156-8.581  C208.782,169.094,203.217,171.239,200.691,171.027" id="path27" style="fill:#260600;"/>
  <path d="M225.775,223.509c2.65-1.415,10.178-4.78,11.224-0.658  C234.122,222.662,224.004,227.434,225.775,223.509" id="path29" style="fill:#260600;"/>
  <path d="M253.831,221.858c4.604,0.314,6.358,1.54,1.322,2.645c-1.464,0.32-2.089,2.451-2.973,0.329  C251.585,223.4,253.14,222.118,253.831,221.858" id="path31" style="fill:#260600;"/>
  <path d="M237.657,226.483c-3.357,3.83,5.66,5.657,7.922,3.628  C247.893,228.034,239.619,227.156,237.657,226.483" id="path33" style="fill:#260600;"/>
  <path d="M211.251,244.635c3.208-5.865,27.649,0.976,34.658,0.329c2.687-0.249,7.875-2.089,9.408,0.99  c1.929,3.87,6.985,2.332,10.066,1.652c-2.185-2.441-12.607-4.023-16.176-3.964c-9.488,0.157-18.643-1.651-28.22-1.651  c-5.856,0-10.798-0.411-15.017-0.986" id="path35" style="fill:#260600;"/>
  <path d="M211.582,244.306c8.647,4.643,18.651,9.236,28.881,9.236c4.273,0,9.423,0.965,12.71-2.305  c1.646-1.638,2.286-2.809,3.96-3.303c1.63-0.481,2.147,1.888,3.961,0.658c-0.513,12.741-18.498,14.453-27.728,12.216  c-9.278-2.246-20.123-8.713-25.417-16.836C209.178,244.086,210.409,243.976,211.582,244.306" id="path37" style="fill:#FF0F4A;"/>
  <path d="M233.699,255.859c6.637,0.884,15.272,2.322,21.121-1.65c-3.677,8.007-16.159,5.383-22.115,1.979  C232.735,256.182,234.691,255.504,233.699,255.859" id="path39" style="fill:#FFFFFF;"/>
  <path d="M161.74,256.845c2.137,10.085,10.142,26.927,20.466,30.369c3.684,1.229,9.35,0.57,9.24-2.972  c-0.07-2.312-4.866-8.403-6.269-10.562c9.521,4.547,18.148,10.965,27.725,15.514c4.655,2.212,9.192,4.38,14.358,5.115  c4.86,0.692,10.415-0.703,15.019,0.494c-3.91,3.265-16.972,1.474-22.444,1.816c-8.064,0.506-19.964,1.164-25.745,7.756  c-12.82,14.622,10.991,25.593,12.21,38.62c-7.44-5.182-12.078-13.913-20-18.67c-3.793-2.278-23.044-6.311-23.239-0.146  c-0.203,6.44,17.87,15.264,22.639,17.174c7.504,3.006,15.766,7.063,21.259,13.194c-6.729-3.177-13.711-6.178-20.682-8.79  c-6.252-2.344-16.677-4.293-21.675-8.729c-6.03-5.351-10.422-12.03-15.239-18.459c-5.5-7.341-12.395-10.14-19.638-15.183  c-2.601-1.812-6.978-6.563-5.943-10.235c1.016-3.604,9.999-5.647,13.997-7.246c14.767-5.904,24.017-17.231,21.321-33.681  C159.791,253.52,161.512,256.577,161.74,256.845" id="path41" style="fill:#F08C54;"/>
  <path d="M206.96,240.343c2.893,3.089,9.92,1.648,13.863,1.648c6.969,0,13.716,2.314,20.631,2.314  c8.165,0,14.909-0.458,22.606,2.636c-2.348-13.386-14.252-4.441-21.782-5.28c-6.283-0.698-9.953-3.954-16.834-2.805  C219.235,239.894,213.272,240.343,206.96,240.343" id="path43" style="fill:#FF4A52;"/>
  <path d="M206.631,244.306c7.191,11.104,19.095,19.806,32.678,19.806c9.771,0,22.064-3.508,21.453-15.519  c0.438,14.931-21.576,13.328-30.672,11.064c-5.852-1.457-11.22-4.64-15.537-8.749C212.588,249.041,208.437,242.978,206.631,244.306" id="path45" style="fill:#FF4A52;"/>
  <path d="M254.491,186.212c-0.704,0.293-0.768-7.165,0.329-9.571c0.544-1.191,1.308-1.933,2.313-2.643  c1.844-1.305,1.641,0.647,2.971,0c6.069-2.951,9.564-7.416,17.494-5.444c2.293,0.57,15.526,6.895,12.87,11.056  c-0.339,0.529-11.581-5.646-13.203-6.934c3.329-0.124,6.54,1.589,9.245,2.972c-2.072-8.146-16.641-8.228-22.116-3.629  c-1.052,0.883-1.463,2.875-2.639,3.629c-1.674,1.076-3.646,0.335-3.634,0.329C254.413,178.094,254.244,183.372,254.491,186.212" id="path47" style="fill:#F08C54;"/>
  <path d="M186.828,172.02c6.43-2.728,15.888-7.692,23.105-5.282c4.308,1.439,7.885,4.463,11.389,7.262  c1.055,0.843,1.912,1.862,3.134,2.476c1.34,0.672,0.826-1.156,0.992-1.156c0.504,0,0.349-2.338,2.969-0.993  c1.423,0.731,2.787,4.543,3.136,5.942c1.021,4.092,1.507,8.793-4.126,9.243c0.371-1.738,2.311-3.628,2.311-5.446  c0-5.172-1.281-2.015-2.972-3.138c-4.662-3.097-8.373-10.178-13.863-12.539c-8.022-3.447-19.912,2.522-27.064,6.105  c-2.338,1.17-7.461,2.984-4.292,0.164C182.822,173.523,185.347,173.292,186.828,172.02" id="path49" style="fill:#F08C54;"/>
  <path d="M190.128,183.572c4.246,6.047,15.269,4.951,21.95,4.951c3.688,0,9.507-5.593,12.047-0.993  c-5.961-0.143-12.266,3.301-19.144,3.301c-3.966,0-9.934-1.212-13.203-3.63C190.257,186.076,187.152,183.418,190.128,183.572" id="path51" style="fill:#F08C54;"/>
  <path d="M211.912,223.509c0.055-0.93,3.269-4.48,4.289-6.603c0.834-1.733,0.732-7.402,3.304-6.105  c3.23,1.63,8.903-5.736,9.735-8.25c1.222-3.682,6.107-9.22,6.107-2.312c0,4.029,5.483,6.032,3.467,10.066  c-2.478,4.949-5.679,3.079-1.155,7.594c4.404,4.397,4.771,2.942,10.231,4.621c4.943,1.519,1.365,4.896-2.972,5.609  c-5.599,0.922-5.803-3.012-7.755-6.932c-1.313-2.634-6.722-3.489-9.409-2.641c-4.383,1.386-2.124,5.595-3.63,6.273  c-4.232,1.902-1.795-5.37-3.961-6.273C218.535,217.88,213.318,222.678,211.912,223.509" id="path53" style="fill:#F08C54;"/>
  <path d="M252.51,194.796c-0.068,3.01-5.438,10.074-2.97,12.541c3.193,3.193,4.864,6.324,7.264,9.57  c1.512,2.046,3.354,3.921,4.951,6.603c1.183,1.985,3.785,5.577,5.939,6.602c0.486-2.653,1.018-8.521-0.66-11.056  c-2.241-3.386-7.894-5.011-8.913-9.078c-1.266-5.058,5.274-5.167,4.623-9.244c-0.495-3.097-7.658-5.5-8.913-8.581  C253.565,192.979,252.41,195.086,252.51,194.796" id="path55" style="fill:#F08C54;"/>
  <path d="M145.897,166.407c3.382,7.864,0.284,19.694,5.284,25.417c2.918-8.622,4.54-18.165,5.607-27.067  C153.306,166.677,148.687,165.626,145.897,166.407" id="path57" style="fill:#3D1200;"/>
  <path d="M136.985,164.426c-1.42-4.067-4.988,0.219-6.271,2.147c-2.751,4.131-1.239,11.531-0.495,16.009  c1.222,7.36,2.613,12.875,5.942,19.473c1.447,2.87,5.528-0.93,4.785-2.972c-1.265-3.475-7.92-3.097-7.92-8.58  C133.026,182.209,137.888,171.859,136.985,164.426" id="path59" style="fill:#F08C54;"/>
  <path d="M140.286,167.726c1.757,2.478,4.089,5.442,5.283,8.251c2.105,4.954-0.583,5.818-2.639,9.902  c-2.273,4.514-1.263,4.589,1.979,7.594c1.126,1.043,7.492,6.854,1.979,6.272c-1.302-0.137-6.026-4.662-7.589-5.449  c-3.954-1.989-4.705-6.014-2.642-9.735c1.878-3.388,5.467-2.382,7.262-4.951C145.987,176.65,141.8,170.205,140.286,167.726" id="path61" style="fill:#F08C54;"/>
  <path d="M146.229,228.788c-3.961,5.833-7.922,11.663-11.884,17.496c-4.167-3.354-8.066-7.189-12.762-9.8  c-5.907-3.286-11.078-3.217-17.605-4.063c-13.41-1.736-23.103-8.528-34.986-15.186c7.015-4.461,10.855-12.07,13.131-19.667  c2.855-9.526,8.303-17.688,13.575-25.974c2.19-3.443,5.101-4.986,7.786-7.663c2.949-2.94,4.75-7.313,8.418-9.41  c4.517-2.583,12.993-1.025,16.174,3.633c2.85,4.173-2.52,8.4-2.643,14.192c-0.178,8.424,3.328,17.912,5.613,25.911  c1.654,5.791,5.124,10.932,8.25,15.677c1.931,2.932,3.056,5.557,4.456,9.739C144.242,225.137,146.025,228.359,146.229,228.788" id="path63" style="fill:#CCEBFF;"/>
  <path d="M108.271,157.496c-14.489,6.477-28.98,12.954-43.471,19.431c-3.473,1.552,0.153,10.347,1.552,12.092  c2.463,3.078,7.248,6.248,10.891,7.755c-3.461,2.164-7.74,4.305-10.563,6.931c5.525,0.688,5.283,6.142,5.283,10.563  c3.092-3.493,6.338-7.084,8.252-11.554c2.806-6.553,3.868-13.736,7.92-19.804c4.215-6.312,7.81-12.123,13.204-17.492  C103.823,162.946,106.975,160.697,108.271,157.496" id="path65" style="fill:#A9C3D4;"/>
  <path d="M129.726,160.467c2.64-3.126-0.613-7.226-0.661-10.896c-0.06-4.565,2.947-8.06,3.301-12.538  c1.101-13.916-14.523-13.384-24.095-11.553c1.372,5.715,2.926,13.217-3.742,16.183c-7.681,3.415-15.066,8.358-22.358,12.582  c-4.922,2.851-30.046,12.973-19.78,19.753c3.929,2.595,7.347,0.555,11.079-1.095c11.538-5.1,23.077-10.2,34.615-15.299  C116.632,153.825,122.661,152.58,129.726,160.467" id="path67" style="fill:#CCEBFF;"/>
  <path d="M108.271,125.481c2.763,11.051-1.657,15.186-11.75,20.232c-7.07,3.535-13.899,7.538-20.762,11.452  c-4.076,2.325-7.515,0.355-11.719,2.475c-4.43,2.236-5.222-0.305-7.923-2.473c-5.603-4.499-14.813-5.285-22.279-7.113  c-1.881-0.461-10.213-1.169-11.385-2.789c-3.321-4.587,2.948-5.294,5.766-6.335c10.07-3.72,20.139-7.44,30.21-11.161  c-0.989,1.65-1.979,3.301-2.969,4.951c8.02-3.427,16.04-6.854,24.059-10.281c3.063-1.309,15.451-9.064,18.519-6.551  c2.915,2.387-1.439,4.476-2.97,6.768c-1.825,2.732-1.648,5.941-1.648,9.079c4.754-0.941,9.433-4.675,10.23-9.574  C105.166,124.593,106.808,124.893,108.271,125.481" id="path69" style="fill:#A9C3D4;"/>
  <path d="M55.459,134.391c13.643-5.72,27.285-11.441,40.927-17.162c-10.028-2.389-19.895-1.284-30.204-0.993  c-11.716,0.331-23.432,0.662-35.149,0.993c0.606,0.92,0.396,2.371,0.989,3.301c-2.75,0.66-5.501,1.319-8.251,1.979  c2.98,7.347,5.176,11.083,3.633,18.812c10.342-3.851,20.683-7.702,31.024-11.553C57.64,131.083,55.766,134.066,55.459,134.391" id="path71" style="fill:#CCEBFF;"/>
  <path d="M97.048,106.663c-9.101-3.233-18.201-6.466-27.301-9.7c-5.967-2.12-10.694-5.979-15.937-2.181  c-3.645,2.64-4.589,6.588-3.3,10.895c0.975,3.263-0.957,2.863,3.533,3.362c4.763,0.53,9.526,1.06,14.289,1.589  c-4.375,0.086-14.978-1.645-17.821,1.318c-0.962,1.003-1.977,4.662-0.167,4.604c14.384-0.46,32.448-4.425,46.045,0.68  c-1.559-2.996-4.015-5.671-6.269-7.923C92.798,109.426,96.098,109.266,97.048,106.663" id="path73" style="fill:#A9C3D4;"/>
  <path d="M245.579,48.901C250.58,44.368,241.198,43.751,245.579,48.901" id="path75" style="fill:#FFFFFF;"/>
  <path d="M246.24,52.865C251.701,47.704,240.631,48.664,246.24,52.865" id="path77" style="fill:#FFFFFF;"/>
  <path d="M242.94,56.166C247.892,51.499,238.492,50.945,242.94,56.166" id="path79" style="fill:#FFFFFF;"/>
  <path d="M247.559,46.264C252.34,41.135,243.103,41.056,247.559,46.264" id="path81" style="fill:#FFFFFF;"/>
  <path d="M252.51,46.264C257.985,41.676,247.066,41.787,252.51,46.264" id="path83" style="fill:#FFFFFF;"/>
  <path d="M257.793,45.931C262.282,41.197,254.079,40.52,257.793,45.931" id="path85" style="fill:#FFFFFF;"/>
  <path d="M263.072,44.614C268.461,39.414,257.399,40.45,263.072,44.614" id="path87" style="fill:#FFFFFF;"/>
  <path d="M267.362,41.313C272.434,36.29,262.607,36.885,267.362,41.313" id="path89" style="fill:#FFFFFF;"/>
  <path d="M270.664,37.348C276.295,32.826,265.314,32.941,270.664,37.348" id="path91" style="fill:#FFFFFF;"/>
  <path d="M272.314,33.061C277.384,28.037,267.556,28.634,272.314,33.061" id="path93" style="fill:#FFFFFF;"/>
  <path d="M272.314,28.768C277.22,24.141,267.848,23.61,272.314,28.768" id="path95" style="fill:#FFFFFF;"/>
  <path d="M270.006,24.809C275.904,20.436,264.767,20.442,270.006,24.809" id="path97" style="fill:#FFFFFF;"/>
  <path d="M266.704,21.509C271.845,17.013,262.12,16.856,266.704,21.509" id="path99" style="fill:#FFFFFF;"/>
  <path d="M262.083,18.866C266.985,14.239,257.617,13.71,262.083,18.866" id="path101" style="fill:#FFFFFF;"/>
  <path d="M257.461,16.558C262.531,11.533,252.703,12.13,257.461,16.558" id="path103" style="fill:#FFFFFF;"/>
  <path d="M252.181,17.543C257.226,13.021,247.025,13.197,252.181,17.543" id="path105" style="fill:#FFFFFF;"/>
  <path d="M247.891,19.526C252.249,14.487,243.602,14.469,247.891,19.526" id="path107" style="fill:#FFFFFF;"/>
  <path d="M244.919,23.159C250.47,18.453,240.201,18.378,244.919,23.159" id="path109" style="fill:#FFFFFF;"/>
  <path d="M243.601,27.446C248.641,22.921,238.445,23.102,243.601,27.446" id="path111" style="fill:#FFFFFF;"/>
  <path d="M244.919,32.068C249.208,27.011,240.562,27.027,244.919,32.068" id="path113" style="fill:#FFFFFF;"/>
  <path d="M247.559,35.698C253.625,30.912,242.01,31.647,247.559,35.698" id="path115" style="fill:#FFFFFF;"/>
  <path d="M252.842,37.68C257.341,32.96,249.119,32.277,252.842,37.68" id="path117" style="fill:#FFFFFF;"/>
  <path d="M257.793,38.012C262.658,32.885,253.313,32.786,257.793,38.012" id="path119" style="fill:#FFFFFF;"/>
  <path d="M262.083,35.04C267.997,30.18,256.624,30.968,262.083,35.04" id="path121" style="fill:#FFFFFF;"/>
  <path d="M238.317,19.858C243.706,14.659,232.645,15.695,238.317,19.858" id="path123" style="fill:#FFFFFF;"/>
  <path d="M242.607,17.543C248.236,13.021,237.259,13.137,242.607,17.543" id="path125" style="fill:#FFFFFF;"/>
  <path d="M246.569,14.907C251.611,10.042,241.457,10.076,246.569,14.907" id="path127" style="fill:#FFFFFF;"/>
  <path d="M250.859,12.593C256.487,8.069,245.51,8.186,250.859,12.593" id="path129" style="fill:#FFFFFF;"/>
  <path d="M255.81,12.264C260.673,7.596,251.391,7.066,255.81,12.264" id="path131" style="fill:#FFFFFF;"/>
  <path d="M260.762,13.257C265.833,8.233,256.005,8.829,260.762,13.257" id="path133" style="fill:#FFFFFF;"/>
  <path d="M264.723,15.565C269.012,10.507,260.367,10.523,264.723,15.565" id="path135" style="fill:#FFFFFF;"/>
  <path d="M268.355,18.208C274.24,13.336,263.006,14.028,268.355,18.208" id="path137" style="fill:#FFFFFF;"/>
  <path d="M271.657,20.516C277.231,15.414,266.416,16.277,271.657,20.516" id="path139" style="fill:#FFFFFF;"/>
  <path d="M274.957,23.817C280.531,18.714,269.718,19.578,274.957,23.817" id="path141" style="fill:#FFFFFF;"/>
  <path d="M278.916,26.459C283.984,21.436,274.157,22.032,278.916,26.459" id="path143" style="fill:#FFFFFF;"/>
  <path d="M282.216,29.76C287.285,24.736,277.459,25.333,282.216,29.76" id="path145" style="fill:#FFFFFF;"/>
  <path d="M285.518,32.397C291.146,27.874,280.166,27.991,285.518,32.397" id="path147" style="fill:#FFFFFF;"/>
  <path d="M288.161,35.698C294.151,31.122,282.71,31.7,288.161,35.698" id="path149" style="fill:#FFFFFF;"/>
  <path d="M291.459,38.998C297.454,34.423,286.012,35,291.459,38.998" id="path151" style="fill:#FFFFFF;"/>
  <path d="M293.769,43.621C298.632,38.952,289.346,38.423,293.769,43.621" id="path153" style="fill:#FFFFFF;"/>
  <path d="M280.897,35.04C285.219,30.02,276.502,30.041,280.897,35.04" id="path155" style="fill:#FFFFFF;"/>
  <path d="M280.565,39.991C286.777,35.275,275.31,35.104,280.565,39.991" id="path157" style="fill:#FFFFFF;"/>
  <path d="M280.236,44.614C286.139,40.24,275.002,40.245,280.236,44.614" id="path159" style="fill:#FFFFFF;"/>
  <path d="M279.908,49.233C284.749,44.505,275.507,43.798,279.908,49.233" id="path161" style="fill:#FFFFFF;"/>
  <path d="M279.575,53.851C285,49.236,274.046,49.42,279.575,53.851" id="path163" style="fill:#FFFFFF;"/>
  <path d="M279.575,58.474C284.509,53.407,274.555,53.435,279.575,58.474" id="path165" style="fill:#FFFFFF;"/>
  <path d="M279.575,62.436C284.505,57.366,274.559,57.395,279.575,62.436" id="path167" style="fill:#FFFFFF;"/>
  <path d="M292.778,49.233C298.749,44.429,287.265,45.207,292.778,49.233" id="path169" style="fill:#FFFFFF;"/>
  <path d="M292.778,54.184C298.355,49.558,287.907,49.557,292.778,54.184" id="path171" style="fill:#FFFFFF;"/>
  <path d="M292.449,59.134C297.224,53.983,287.712,54.169,292.449,59.134" id="path173" style="fill:#FFFFFF;"/>
  <path d="M292.117,63.425C296.448,58.41,287.724,58.426,292.117,63.425" id="path175" style="fill:#FFFFFF;"/>
  <path d="M291.459,68.376C296.229,63.072,287.041,63.917,291.459,68.376" id="path177" style="fill:#FFFFFF;"/>
  <path d="M291.459,72.67C297.026,68.038,286.592,68.035,291.459,72.67" id="path179" style="fill:#FFFFFF;"/>
  <path d="M291.459,76.628C297.031,72,286.584,71.999,291.459,76.628" id="path181" style="fill:#FFFFFF;"/>
  <path d="M290.801,80.922C297.257,76.583,284.985,76.589,290.801,80.922" id="path183" style="fill:#FFFFFF;"/>
  <path d="M286.51,77.621C292.396,72.75,281.16,73.44,286.51,77.621" id="path185" style="fill:#FFFFFF;"/>
  <path d="M283.866,73.656C289.495,69.133,278.518,69.249,283.866,73.656" id="path187" style="fill:#FFFFFF;"/>
  <path d="M280.565,70.355C286.194,65.833,275.218,65.948,280.565,70.355" id="path189" style="fill:#FFFFFF;"/>
  <path d="M277.265,66.726C282.128,62.057,272.843,61.528,277.265,66.726" id="path191" style="fill:#FFFFFF;"/>
  <path d="M273.307,63.754C279.3,59.179,267.859,59.755,273.307,63.754" id="path193" style="fill:#FFFFFF;"/>
  <path d="M269.675,61.117C275.063,55.919,264.002,56.953,269.675,61.117" id="path195" style="fill:#FFFFFF;"/>
  <path d="M265.712,58.802C271.341,54.279,260.361,54.396,265.712,58.802" id="path197" style="fill:#FFFFFF;"/>
  <path d="M261.423,57.816C266.811,52.619,255.751,53.652,261.423,57.816" id="path199" style="fill:#FFFFFF;"/>
  <path d="M256.804,57.152C262.795,52.576,251.354,53.155,256.804,57.152" id="path201" style="fill:#FFFFFF;"/>
  <path d="M253.171,57.816C258.559,52.618,247.499,53.653,253.171,57.816" id="path203" style="fill:#FFFFFF;"/>
  <path d="M248.552,58.474C254.129,53.373,243.312,54.234,248.552,58.474" id="path205" style="fill:#FFFFFF;"/>
  <path d="M244.919,60.124C249.208,55.066,240.562,55.083,244.919,60.124" id="path207" style="fill:#FFFFFF;"/>
  <path d="M137.978,58.145C142.257,53.082,133.622,53.104,137.978,58.145" id="path209" style="fill:#FFFFFF;"/>
  <path d="M140.618,53.522C146.258,48.992,135.504,48.881,140.618,53.522" id="path211" style="fill:#FFFFFF;"/>
  <path d="M144.247,50.223C148.536,45.164,139.891,45.182,144.247,50.223" id="path213" style="fill:#FFFFFF;"/>
  <path d="M147.547,46.921C151.837,41.863,143.191,41.88,147.547,46.921" id="path215" style="fill:#FFFFFF;"/>
  <path d="M151.181,43.95C157.172,39.375,145.732,39.951,151.181,43.95" id="path217" style="fill:#FFFFFF;"/>
  <path d="M155.139,41.313C160.209,36.289,150.381,36.885,155.139,41.313" id="path219" style="fill:#FFFFFF;"/>
  <path d="M158.439,38.67C163.303,34.001,154.019,33.472,158.439,38.67" id="path221" style="fill:#FFFFFF;"/>
  <path d="M162.401,35.698C167.448,31.174,157.247,31.351,162.401,35.698" id="path223" style="fill:#FFFFFF;"/>
  <path d="M166.691,33.061C171.762,28.037,161.934,28.633,166.691,33.061" id="path225" style="fill:#FFFFFF;"/>
  <path d="M170.985,30.746C176.977,26.172,165.537,26.748,170.985,30.746" id="path227" style="fill:#FFFFFF;"/>
  <path d="M174.943,28.11C180.014,23.087,170.186,23.683,174.943,28.11" id="path229" style="fill:#FFFFFF;"/>
  <path d="M178.905,25.467C183.759,20.475,173.955,20.501,178.905,25.467" id="path231" style="fill:#FFFFFF;"/>
  <path d="M182.538,22.167C188.114,17.064,177.298,17.927,182.538,22.167" id="path233" style="fill:#FFFFFF;"/>
  <path d="M187.157,19.858C192.545,14.66,181.484,15.695,187.157,19.858" id="path235" style="fill:#FFFFFF;"/>
  <path d="M191.446,17.543C197.077,13.021,186.097,13.137,191.446,17.543" id="path237" style="fill:#FFFFFF;"/>
  <path d="M196.397,15.565C201.26,10.896,191.977,10.367,196.397,15.565" id="path239" style="fill:#FFFFFF;"/>
  <path d="M200.691,13.257C206.578,8.386,195.342,9.077,200.691,13.257" id="path241" style="fill:#FFFFFF;"/>
  <path d="M212.243,34.711C218.13,29.841,206.895,30.531,212.243,34.711" id="path243" style="fill:#FFFFFF;"/>
  <path d="M216.534,37.348C221.381,32.624,212.128,31.916,216.534,37.348" id="path245" style="fill:#FFFFFF;"/>
  <path d="M221.484,37.348C226.608,32.523,216.431,32.491,221.484,37.348" id="path247" style="fill:#FFFFFF;"/>
  <path d="M225.447,35.698C231.438,31.122,219.997,31.7,225.447,35.698" id="path249" style="fill:#FFFFFF;"/>
  <path d="M229.405,33.719C234.268,29.049,224.983,28.521,229.405,33.719" id="path251" style="fill:#FFFFFF;"/>
  <path d="M231.716,29.429C236.671,24.769,227.272,24.207,231.716,29.429" id="path253" style="fill:#FFFFFF;"/>
  <path d="M231.716,25.138C236.592,20.006,226.95,20.157,231.716,25.138" id="path255" style="fill:#FFFFFF;"/>
  <path d="M230.065,19.858C235.453,14.66,224.396,15.694,230.065,19.858" id="path257" style="fill:#FFFFFF;"/>
  <path d="M226.765,17.215C231.055,12.157,222.409,12.173,226.765,17.215" id="path259" style="fill:#FFFFFF;"/>
  <path d="M221.814,15.565C226.959,10.48,217.104,11.218,221.814,15.565" id="path261" style="fill:#FFFFFF;"/>
  <path d="M217.853,15.565C223.519,10.918,212.745,11.104,217.853,15.565" id="path263" style="fill:#FFFFFF;"/>
  <path d="M212.901,15.565C217.763,10.896,208.48,10.367,212.901,15.565" id="path265" style="fill:#FFFFFF;"/>
  <path d="M208.61,17.215C212.9,12.156,204.255,12.174,208.61,17.215" id="path267" style="fill:#FFFFFF;"/>
  <path d="M204.981,20.516C210.364,15.507,200.444,15.714,204.981,20.516" id="path269" style="fill:#FFFFFF;"/>
  <path d="M203,24.477C209.04,19.534,197.741,20.382,203,24.477" id="path271" style="fill:#FFFFFF;"/>
  <path d="M202.342,29.097C208.366,24.337,196.895,25.03,202.342,29.097" id="path273" style="fill:#FFFFFF;"/>
  <path d="M202.671,33.39C207.969,29.191,197.985,28.472,202.671,33.39" id="path275" style="fill:#FFFFFF;"/>
  <path d="M203.331,38.341C208.436,33.84,198.262,33.958,203.331,38.341" id="path277" style="fill:#FFFFFF;"/>
  <path d="M205.643,42.631C210.786,37.771,200.617,38.089,205.643,42.631" id="path279" style="fill:#FFFFFF;"/>
  <path d="M209.933,45.931C215.4,40.773,204.314,41.738,209.933,45.931" id="path281" style="fill:#FFFFFF;"/>
  <path d="M214.553,46.593C220.342,41.625,209.626,42.115,214.553,46.593" id="path283" style="fill:#FFFFFF;"/>
  <path d="M219.503,46.921C224.886,41.914,214.969,42.124,219.503,46.921" id="path285" style="fill:#FFFFFF;"/>
  <path d="M224.453,46.593C229.616,42.177,220.291,40.813,224.453,46.593" id="path287" style="fill:#FFFFFF;"/>
  <path d="M228.748,44.942C234.534,40.103,223.828,39.958,228.748,44.942" id="path289" style="fill:#FFFFFF;"/>
  <path d="M233.038,43.95C238.892,39.433,228.028,39.931,233.038,43.95" id="path291" style="fill:#FFFFFF;"/>
  <path d="M237.657,43.621C242.779,39.123,232.575,39.243,237.657,43.621" id="path293" style="fill:#FFFFFF;"/>
  <path d="M242.278,44.942C248.319,40.576,237.062,40.615,242.278,44.942" id="path295" style="fill:#FFFFFF;"/>
  <path d="M238.648,57.816C244.104,52.533,233.622,53.969,238.648,57.816" id="path297" style="fill:#FFFFFF;"/>
  <path d="M235.017,56.166C240.163,51.304,229.999,51.618,235.017,56.166" id="path299" style="fill:#FFFFFF;"/>
  <path d="M231.716,53.522C236.674,48.863,227.267,48.305,231.716,53.522" id="path301" style="fill:#FFFFFF;"/>
  <path d="M234.027,49.565C238.924,44.932,229.566,44.405,234.027,49.565" id="path303" style="fill:#FFFFFF;"/>
  <path d="M237.657,48.243C243.276,43.714,232.315,43.83,237.657,48.243" id="path305" style="fill:#FFFFFF;"/>
  <path d="M241.29,47.915C246.681,43.046,236.875,42.994,241.29,47.915" id="path307" style="fill:#FFFFFF;"/>
  <path d="M205.31,10.942C210.358,6.419,200.156,6.595,205.31,10.942" id="path309" style="fill:#FFFFFF;"/>
  <path d="M209.601,10.614C214.462,5.944,205.18,5.416,209.601,10.614" id="path311" style="fill:#FFFFFF;"/>
  <path d="M213.895,10.614C219.47,5.512,208.654,6.375,213.895,10.614" id="path313" style="fill:#FFFFFF;"/>
  <path d="M218.514,10.614C222.802,5.556,214.155,5.573,218.514,10.614" id="path315" style="fill:#FFFFFF;"/>
  <path d="M223.464,10.942C228.512,6.419,218.31,6.595,223.464,10.942" id="path317" style="fill:#FFFFFF;"/>
  <path d="M227.097,13.257C232.984,8.387,221.749,9.076,227.097,13.257" id="path319" style="fill:#FFFFFF;"/>
  <path d="M230.397,15.894C236.389,11.318,224.952,11.895,230.397,15.894" id="path321" style="fill:#FFFFFF;"/>
  <path d="M234.355,18.208C239.425,13.184,229.598,13.781,234.355,18.208" id="path323" style="fill:#FFFFFF;"/>
  <path d="M137.978,63.096C142.85,58.03,133.024,58.06,137.978,63.096" id="path325" style="fill:#FFFFFF;"/>
  <path d="M137.317,67.718C143.774,63.379,131.502,63.386,137.317,67.718" id="path327" style="fill:#FFFFFF;"/>
  <path d="M136.985,72.006C142.708,67.493,131.605,67.573,136.985,72.006" id="path329" style="fill:#FFFFFF;"/>
  <path d="M136.656,76.957C142.036,71.995,130.908,72.834,136.656,76.957" id="path331" style="fill:#FFFFFF;"/>
  <path d="M136.656,81.579C141.005,76.266,131.955,76.801,136.656,81.579" id="path333" style="fill:#FFFFFF;"/>
  <path d="M136.656,85.541C141,80.224,131.958,80.765,136.656,85.541" id="path335" style="fill:#FFFFFF;"/>
  <path d="M148.538,50.223C154.093,45.52,143.814,45.445,148.538,50.223" id="path337" style="fill:#FFFFFF;"/>
  <path d="M148.538,55.173C153.806,50.341,144.055,50.304,148.538,55.173" id="path339" style="fill:#FFFFFF;"/>
  <path d="M148.208,59.795C153.844,55.262,143.105,55.15,148.208,59.795" id="path341" style="fill:#FFFFFF;"/>
  <path d="M147.879,64.418C152.813,59.313,142.941,59.316,147.879,64.418" id="path343" style="fill:#FFFFFF;"/>
  <path d="M147.219,69.037C153.187,64.23,141.703,65.008,147.219,69.037" id="path345" style="fill:#FFFFFF;"/>
  <path d="M147.219,73.656C152.49,68.826,142.729,68.785,147.219,73.656" id="path347" style="fill:#FFFFFF;"/>
  <path d="M147.219,77.621C152.481,72.784,142.739,72.743,147.219,77.621" id="path349" style="fill:#FFFFFF;"/>
  <path d="M162.072,40.981C167.142,35.956,157.306,36.563,162.072,40.981" id="path351" style="fill:#FFFFFF;"/>
  <path d="M162.072,45.931C166.42,40.903,157.926,40.881,162.072,45.931" id="path353" style="fill:#FFFFFF;"/>
  <path d="M161.411,50.883C166.989,45.8,156.81,46.204,161.411,50.883" id="path355" style="fill:#FFFFFF;"/>
  <path d="M161.082,55.173C166.658,50.072,155.844,50.934,161.082,55.173" id="path357" style="fill:#FFFFFF;"/>
  <path d="M160.75,60.124C165.277,55.294,156.456,54.781,160.75,60.124" id="path359" style="fill:#FFFFFF;"/>
  <path d="M160.75,64.418C165.131,59.358,156.564,59.497,160.75,64.418" id="path361" style="fill:#FFFFFF;"/>
  <path d="M160.75,68.376C165.137,63.321,156.558,63.459,160.75,68.376" id="path363" style="fill:#FFFFFF;"/>
  <path d="M176.925,32.397C181.652,27.248,172.101,27.283,176.925,32.397" id="path365" style="fill:#FFFFFF;"/>
  <path d="M176.594,37.02C182.894,32.396,171.126,32.951,176.594,37.02" id="path367" style="fill:#FFFFFF;"/>
  <path d="M176.265,41.971C181.839,37.344,171.393,37.341,176.265,41.971" id="path369" style="fill:#FFFFFF;"/>
  <path d="M175.936,46.264C181.565,41.728,170.83,41.617,175.936,46.264" id="path371" style="fill:#FFFFFF;"/>
  <path d="M175.604,51.215C179.957,46.23,171.181,46.25,175.604,51.215" id="path373" style="fill:#FFFFFF;"/>
  <path d="M175.604,55.502C181.027,50.887,170.073,51.071,175.604,55.502" id="path375" style="fill:#FFFFFF;"/>
  <path d="M175.604,59.467C181.012,54.841,170.088,55.025,175.604,59.467" id="path377" style="fill:#FFFFFF;"/>
  <path d="M191.779,22.827C196.463,18.27,187.801,17.624,191.779,22.827" id="path379" style="fill:#FFFFFF;"/>
  <path d="M191.779,27.778C196.633,23.107,187.357,22.579,191.779,27.778" id="path381" style="fill:#FFFFFF;"/>
  <path d="M191.118,32.397C196.973,27.88,186.114,28.379,191.118,32.397" id="path383" style="fill:#FFFFFF;"/>
  <path d="M190.789,37.02C196.1,32.13,186.247,32.086,190.789,37.02" id="path385" style="fill:#FFFFFF;"/>
  <path d="M190.457,41.642C196.079,37.113,185.115,37.229,190.457,41.642" id="path387" style="fill:#FFFFFF;"/>
  <path d="M190.457,46.264C195.312,41.589,186.042,41.063,190.457,46.264" id="path389" style="fill:#FFFFFF;"/>
  <path d="M190.457,50.223C195.317,45.553,186.036,45.024,190.457,50.223" id="path391" style="fill:#FFFFFF;"/>
  <path d="M190.457,53.851C195.505,49.329,185.302,49.506,190.457,53.851" id="path393" style="fill:#FFFFFF;"/>
  <path d="M135.996,89.831C140.284,84.772,131.638,84.791,135.996,89.831" id="path395" style="fill:#FFFFFF;"/>
  <path d="M134.677,94.124C140.563,89.254,129.329,89.943,134.677,94.124" id="path397" style="fill:#FFFFFF;"/>
  <path d="M132.034,98.411C137.664,93.889,126.684,94.004,132.034,98.411" id="path399" style="fill:#FFFFFF;"/>
  <path d="M131.045,103.362C136.092,98.838,125.889,99.015,131.045,103.362" id="path401" style="fill:#FFFFFF;"/>
  <path d="M131.045,107.985C135.333,102.926,126.687,102.945,131.045,107.985" id="path403" style="fill:#FFFFFF;"/>
  <path d="M132.034,112.278C137.105,107.255,127.277,107.851,132.034,112.278" id="path405" style="fill:#FFFFFF;"/>
  <path d="M135.996,112.936C140.284,107.877,131.639,107.896,135.996,112.936" id="path407" style="fill:#FFFFFF;"/>
  <path d="M139.627,109.963C145.62,105.389,134.181,105.965,139.627,109.963" id="path409" style="fill:#FFFFFF;"/>
  <path d="M142.597,106.334C146.885,101.276,138.24,101.293,142.597,106.334" id="path411" style="fill:#FFFFFF;"/>
  <path d="M145.236,101.711C150.866,97.188,139.888,97.304,145.236,101.711" id="path413" style="fill:#FFFFFF;"/>
  <path d="M147.879,96.761C153.872,92.186,142.431,92.763,147.879,96.761" id="path415" style="fill:#FFFFFF;"/>
  <path d="M150.849,92.474C156.238,87.276,145.177,88.309,150.849,92.474" id="path417" style="fill:#FFFFFF;"/>
  <path d="M152.499,88.18C156.788,83.122,148.142,83.14,152.499,88.18" id="path419" style="fill:#FFFFFF;"/>
  <path d="M152.499,83.89C157.225,78.739,147.681,78.771,152.499,83.89" id="path421" style="fill:#FFFFFF;"/>
  <path d="M139.627,90.823C145.515,85.953,134.28,86.643,139.627,90.823" id="path423" style="fill:#FFFFFF;"/>
  <path d="M143.586,88.18C148.448,83.51,139.165,82.982,143.586,88.18" id="path425" style="fill:#FFFFFF;"/>
  <path d="M146.887,84.879C151.747,79.989,142.596,79.686,146.887,84.879" id="path427" style="fill:#FFFFFF;"/>
  <path d="M150.188,81.579C154.877,77.026,146.213,76.374,150.188,81.579" id="path429" style="fill:#FFFFFF;"/>
  <path d="M154.149,78.607C159.197,74.084,148.995,74.259,154.149,78.607" id="path431" style="fill:#FFFFFF;"/>
  <path d="M157.782,75.97C163.669,71.1,152.433,71.791,157.782,75.97" id="path433" style="fill:#FFFFFF;"/>
  <path d="M161.74,72.67C166.811,67.645,156.983,68.242,161.74,72.67" id="path435" style="fill:#FFFFFF;"/>
  <path d="M165.702,70.026C170.556,65.034,160.751,65.062,165.702,70.026" id="path437" style="fill:#FFFFFF;"/>
  <path d="M169.992,67.054C175.622,62.531,164.643,62.648,169.992,67.054" id="path439" style="fill:#FFFFFF;"/>
  <path d="M173.953,65.076C178.243,60.018,169.597,60.035,173.953,65.076" id="path441" style="fill:#FFFFFF;"/>
  <path d="M178.244,62.103C183.874,57.58,172.895,57.696,178.244,62.103" id="path443" style="fill:#FFFFFF;"/>
  <path d="M182.205,60.124C187.06,55.132,177.255,55.16,182.205,60.124" id="path445" style="fill:#FFFFFF;"/>
  <path d="M187.157,58.802C192.203,54.279,182.002,54.456,187.157,58.802" id="path447" style="fill:#FFFFFF;"/>
  <path d="M191.446,57.816C196.134,53.257,187.473,52.609,191.446,57.816" id="path449" style="fill:#FFFFFF;"/>
  <path d="M196.397,56.823C201.261,52.154,191.976,51.625,196.397,56.823" id="path451" style="fill:#FFFFFF;"/>
  <path d="M200.691,56.166C206.578,51.296,195.342,51.986,200.691,56.166" id="path453" style="fill:#FFFFFF;"/>
  <path d="M205.31,55.502C210.359,50.979,200.155,51.155,205.31,55.502" id="path455" style="fill:#FFFFFF;"/>
  <path d="M210.593,56.166C216.48,51.296,205.244,51.986,210.593,56.166" id="path457" style="fill:#FFFFFF;"/>
  <path d="M240.957,62.103C246.586,57.58,235.605,57.697,240.957,62.103" id="path459" style="fill:#FFFFFF;"/>
  <path d="M238.317,64.418C243.706,59.219,232.646,60.253,238.317,64.418" id="path461" style="fill:#FFFFFF;"/>
  <path d="M235.017,61.117C240.405,55.919,229.344,56.953,235.017,61.117" id="path463" style="fill:#FFFFFF;"/>
  <path d="M231.055,58.474C235.918,53.805,226.634,53.276,231.055,58.474" id="path465" style="fill:#FFFFFF;"/>
  <path d="M226.765,57.152C231.813,52.629,221.612,52.805,226.765,57.152" id="path467" style="fill:#FFFFFF;"/>
  <path d="M221.814,56.823C226.103,51.766,217.456,51.783,221.814,56.823" id="path469" style="fill:#FFFFFF;"/>
  <path d="M216.863,56.823C221.151,51.766,212.506,51.783,216.863,56.823" id="path471" style="fill:#FFFFFF;"/>
  <path d="M292.778,85.208C297.827,80.686,287.623,80.862,292.778,85.208" id="path473" style="fill:#FFFFFF;"/>
  <path d="M292.778,89.173C298.169,83.976,287.108,85.008,292.778,89.173" id="path475" style="fill:#FFFFFF;"/>
  <path d="M294.429,93.46C299.477,88.937,289.273,89.114,294.429,93.46" id="path477" style="fill:#FFFFFF;"/>
  <path d="M296.079,98.083C300.369,93.024,291.724,93.042,296.079,98.083" id="path479" style="fill:#FFFFFF;"/>
  <path d="M298.72,101.383C303.582,96.715,294.3,96.185,298.72,101.383" id="path481" style="fill:#FFFFFF;"/>
  <path d="M301.032,104.684C305.319,99.625,296.672,99.644,301.032,104.684" id="path483" style="fill:#FFFFFF;"/>
  <path d="M303.014,107.985C308.587,102.883,297.774,103.746,303.014,107.985" id="path485" style="fill:#FFFFFF;"/>
  <path d="M307.632,114.257c8.587,4.067,17.174,8.135,25.762,12.203c3.651,1.73,5.408,1.584,6.094,5.502  c0.956,5.454,3.34,9.103-1.045,12.689c-4.402,3.602-3.797,4.104-7.945,0.687c-4.78-3.937-9.56-7.873-14.339-11.809  c-3.355-2.762-6.709-5.524-10.063-8.287C305.109,124.43,307.395,115.824,307.632,114.257" id="path487" style="fill:#A9C3D4;"/>
  <path d="M305.981,124.817c9.703,8.491,19.405,16.981,29.109,25.472c2.999,2.624,5.878,5.758,9.364,7.728  c6.075,3.433,6.142,3.687,7.579,10.151c3.05,13.71-7.694,14.875-16.181,21.673c-6.188,4.957-2.806,16.246-2.806,23.438  c-11.552-23.326-23.105-46.651-34.657-69.976C304.16,138.638,305.981,132.271,305.981,124.817" id="path489" style="fill:#CCEBFF;"/>
  <path d="M298.391,142.971c10.232,21.015,20.465,42.03,30.696,63.045c-9.211-1.766-15.208,3.105-20.795,9.571  c-4.798,5.556-10.235,5.233-16.503,1.981c6.512-11.532,3.962-31.996,3.962-45.054c0-5.35-1.132-9.908-0.333-15.348  C296.121,152.389,297.476,147.563,298.391,142.971" id="path491" style="fill:#A9C3D4;"/>
  <path d="M273.575,177.714c2.733-1.307,2.707,2.229,1.983,4.293c-0.551-0.22-1.101-0.44-1.651-0.66  C274.817,180.212,274.684,178.897,273.575,177.714" id="path493" style="fill:#FFFFFF;"/>
  <path d="M207.292,174.327c0.553-0.569,1.616-1.091,2.309-1.317c1.469,2.532,0.679,8.501-2.97,4.29  C209.114,176.982,208.892,175.442,207.292,174.327" id="path495" style="fill:#FFFFFF;"/>
  <path d="M146.887,208.658c-11.019,3.865,0.024,25.762,3.961,23.433c2.39-1.413-0.463-12.913-0.329-15.512  C150.677,213.536,152.403,207.783,146.887,208.658" id="path497" style="fill:#FFFFFF;"/>
  <path d="M149.198,237.373c-2.195,1.082-4.499,9.939-5.28,12.872c-1.259,4.718-1.408,12.815,5.612,12.544  c7.359-0.283,6.476-9.634,4.619-14.524C153.143,245.614,151.373,238.191,149.198,237.373" id="path499" style="fill:#FFFFFF;"/>
  <path d="M149.53,237.706c3.939,0.086,4.212-5.65,0.329-5.615C145.35,232.13,147.017,237.808,149.53,237.706" id="path501" style="fill:#FFFFFF;"/>
  <path d="M211.582,243.313c9.129-1.888,19.031,1.518,28.057,1.979c4.45,0.229,19.405-3.516,14.522,4.294  c-4.062,6.493-17.039,3.452-23.599,2.144C224.151,250.455,216.197,247.631,211.582,243.313" id="path503" style="fill:#FFFFFF;"/>
  <path d="M97.048,106.663c-0.798,2.903-4.385,2.315-7.263,2.315  c3.588,2.636,5.488,8.444,9.902,9.237c-2.948,5.782-6.512,7.945-6.269,15.518c4.981-1.502,8.956-4.382,10.23-9.574  c5.215,1.687,6.383,2.175,11.058,5.28c2.98,1.979,2.48,6.463,3.795,9.573c4.454,10.528,6.187-3.907,4.457-9.077  c-0.723-2.159-5.731-6.661-0.99-8.253c2.634-0.885,7.78-2.788,8.747-5.774c1.417-4.378-3.248-4.3-6.602-3.466  c-3.558,0.886-5.599,3.987-7.591,6.766c-5.405-7.049,8.905-16.354,0.989-23.104c-5.846-4.986-3.356,13.898-3.961,16.503  c-1.69-7.61-8.191-12.895-15.182-15.182c0.861,2.96,1.887,6.133,3.63,8.745c1.572,2.358,4.425,3.706,5.28,6.108  C105.553,110.731,99.892,105.964,97.048,106.663" id="path505" style="fill:#FFFFFF;stroke:#8C8C8C;stroke-miterlimit:10;"/>
  <path d="M106.289,118.879c2.117-0.529,2.387-3.422-0.329-3.3  C103.749,115.678,104.548,118.545,106.289,118.879" id="path507" style="fill:#FFFFFF;stroke:#8C8C8C;stroke-miterlimit:10;"/>
  <path d="M113.551,126.139c3.044-0.2,3.139-4.674,0-4.623  C110.458,121.566,110.942,125.585,113.551,126.139" id="path509" style="fill:#FFFFFF;stroke:#8C8C8C;stroke-miterlimit:10;"/>
  <path d="M113.222,120.198c1.614-0.491,2.615-3.209,0.329-3.301  C110.75,116.784,111.207,119.458,113.222,120.198" id="path511" style="fill:#FFFFFF;stroke:#8C8C8C;stroke-miterlimit:10;"/>
  <path d="M117.841,117.558c2.766-0.511,3.204-4.622,0-4.622  S115.079,117.043,117.841,117.558" id="path513" style="fill:#FFFFFF;stroke:#8C8C8C;stroke-miterlimit:10;"/>
  <path d="M111.24,116.565c2.609-0.316,3.109-4.021,0.332-3.958  C107.952,112.689,109.837,116.473,111.24,116.565" id="path515" style="fill:#FFFFFF;stroke:#8C8C8C;stroke-miterlimit:10;"/>
  <path d="M119.491,126.139c2.77-0.511,3.201-4.622,0-4.623  C116.29,121.516,116.727,125.625,119.491,126.139" id="path517" style="fill:#FFFFFF;stroke:#8C8C8C;stroke-miterlimit:10;"/>
  <path d="M70.313,246.614c-11.146,18.775-55.08,19.494-43.57,48.854c8.245,21.033,27.194,15.04,43.239,14.521  c-39.778-16.995,4.996-43.36,10.234-64.365c3.882-15.565-7.515-18.643-17.825-27.229c-6.425-5.353-1.576-13.016-0.329-20.298  C35.714,218.768,70.764,226.5,70.313,246.614" id="path519" style="fill:#3D1200;"/>
  <path d="M35.656,150.236c16.858,4.596,16.51,11.489,6.93,27.063c-7.224,11.745-20.869,18.009-27.066,30.7  c-11.418,23.383,3.388,39,11.885,58.418c-15.272-14.006-27.891-36.726-25.748-59.083c2.215-23.114,20.56-38.43,28.056-59.081  C28.596,147.795,38.102,151.817,35.656,150.236" id="path521" style="fill:#3D1200;"/>
  <path d="M345.922,192.152c11.281,23.738,38.707,29.609,13.531,57.927  c-9.774,10.994-51.52,28.546-32.017,47.694c-12.811-4.424-26.864-14.124-21.122-29.376c5.943-15.786,29.141-20.992,39.278-33.664  c13.901-17.377-17.746-40.727,2.309-49.512C347.646,186.68,346.301,191.175,345.922,192.152" id="path523" style="fill:#3D1200;"/>
  <path d="M294.429,284.9c-11.591,12.217-21.808,32.694-11.717,48.854c8.262,13.23,22.265,18.752,25.911,35.15  c4.41,19.83,16.545,37.137,39.939,37.137c16.117,0,31.626-8.417,26.734-26.077c3.772,15.395-17.821,13.128-26.241,9.242  c-18.513-8.545-13.56-27.91-25.579-41.427c-10.414-11.711-28.908-16.586-33.665-32.841  C286.74,304.455,291.792,294.785,294.429,284.9" id="path525" style="fill:#3D1200;"/>
</svg>
