<?xml version="1.0" encoding="UTF-8" standalone="no"?>
<!-- Generator: Adobe Illustrator 12.0.0, SVG Export Plug-In . SVG Version: 6.00 Build 51448)  --><svg height="190.112" id="Layer_1" inkscape:version="0.42" sodipodi:docbase="F:\openclip\svg da inviare" sodipodi:docname="Dinosauro04.svg" sodipodi:version="0.32" space="preserve" style="overflow:visible;enable-background:new 0 0 277.695 190.112;" version="1.1" viewBox="0 0 277.695 190.112" width="277.695" xmlns="http://www.w3.org/2000/svg" xmlns:cc="http://web.resource.org/cc/" xmlns:dc="http://purl.org/dc/elements/1.1/" xmlns:inkscape="http://www.inkscape.org/namespaces/inkscape" xmlns:rdf="http://www.w3.org/1999/02/22-rdf-syntax-ns#" xmlns:sodipodi="http://inkscape.sourceforge.net/DTD/sodipodi-0.dtd" xmlns:svg="http://www.w3.org/2000/svg">
  <metadata>
    <rdf:RDF xmlns:cc="http://web.resource.org/cc/" xmlns:dc="http://purl.org/dc/elements/1.1/" xmlns:rdf="http://www.w3.org/1999/02/22-rdf-syntax-ns#">
      <cc:Work rdf:about="">
        <dc:title>Dino</dc:title>
        <dc:description></dc:description>
        <dc:subject>
          <rdf:Bag>
            <rdf:li>dinosaur</rdf:li>
          </rdf:Bag>
        </dc:subject>
        <dc:publisher>
          <cc:Agent rdf:about="http://www.openclipart.org/">
            <dc:title>Open Clip Art Library</dc:title>
          </cc:Agent>
        </dc:publisher>
        <dc:creator>
          <cc:Agent>
            <dc:title>Architetto Francesco Rollandin</dc:title>
          </cc:Agent>
        </dc:creator>
        <dc:rights>
          <cc:Agent>
            <dc:title>Architetto Francesco Rollandin</dc:title>
          </cc:Agent>
        </dc:rights>
        <dc:date></dc:date>
        <dc:format>image/svg+xml</dc:format>
        <dc:type rdf:resource="http://purl.org/dc/dcmitype/StillImage"/>
        <cc:license rdf:resource="http://web.resource.org/cc/PublicDomain"/>
        <dc:language>en</dc:language>
      </cc:Work>
      <cc:License rdf:about="http://web.resource.org/cc/PublicDomain">
        <cc:permits rdf:resource="http://web.resource.org/cc/Reproduction"/>
        <cc:permits rdf:resource="http://web.resource.org/cc/Distribution"/>
        <cc:permits rdf:resource="http://web.resource.org/cc/DerivativeWorks"/>
      </cc:License>
    </rdf:RDF>
  </metadata>
  <defs id="defs66"/>
  <sodipodi:namedview bordercolor="#666666" borderopacity="1.0" id="base" inkscape:current-layer="Layer_1" inkscape:cx="138.84750" inkscape:cy="95.056000" inkscape:pageopacity="0.0" inkscape:pageshadow="2" inkscape:window-height="510" inkscape:window-width="787" inkscape:window-x="88" inkscape:window-y="116" inkscape:zoom="1.8936206" pagecolor="#ffffff"/>
  <path d="M153.363,190.112c2.887-0.065,2.91-2.449,5.157-3.258  c2.273-0.817,6.731,0.385,9.176,0.525c2.563,0.146,2.02-7.117,1.955-9.211c-0.128-4.153-2.935-8.063,0.814-9.501  c1.004-0.386,4.127,0.23,5.429,0.271c3.532,0.109,9.003-1.475,12.216,0.135c1.876,0.94,4.509,6.057,5.429,8.009  c-4.892,0.118-4.463,7.294-1.9,9.771c1.299,1.255,1.712,0.39,3.258,1.086c0.559,0.252,1.177-0.491,1.899-0.271  c0.807,0.244,1.213,2.189,2.715,2.172c2.036-0.023,6.38-2.398,8.552-3.123c3.157-1.052,8.222,1.311,9.366-1.763  c0.595-1.599-3.005-9.643-3.534-11.545c-1.327-4.762-2.729-5.156,1.091-6.371c3.45-1.1,9.108,0,12.758,0  c7.84,0,15.855-2.843,23.21-5.294c14.146-4.716,23.468-16.892,26.332-31.218c2.813-14.07-9.38-27.319-19.952-33.798  c-6.269-3.84-13.515-4.915-20.089-7.058c0.802-1.667,5.248-6.485,3.258-8.415c-0.941-0.914-5.114,1.106-5.972,1.357  c-2.532,0.742-5.025,1.459-7.602,1.9c-2.243,0.383-5.417-0.51-7.329,0c-4.282,1.141-1.062,4.036,1.086,7.058  c2.246,3.163,4.51,6.299,6.244,9.771c0.822,1.651,1.916,5.804,3.393,6.787c2.722,1.815,2.854-9.232,3.122-10.587  c7.501,0.869,14.024,5.248,20.63,8.551c2.374,1.188,1.215,2.931,2.444,4.208c0.508,0.526,3.132,1.357,3.258,1.629  c1.117,2.429-3.345,8.104,2.715,7.059c-1.321,3.003,0.663,4.626,1.9,7.058c-4.517,1.326-3.067,3.559-2.037,6.649  c0.467,1.398-4.166,0.577-5.021,1.766c-0.843,1.171,0.556,2.602,0,3.801c-1.676,3.621-0.444-0.373-3.53,0.814  c-1.443,0.556-2.191,3.152-2.715,3.257c-3.121,0.623-3.539-5.247-7.329-0.543c-1.277-6.078-6.382,0.263-7.041-1.492  c-1.518-4.048-3.656-5.265-7.074-2.308c-1.093-5.246-1.738-10.079-7.601-5.158c-1.247-4.518-2.087-11.434-7.601-7.058  c-0.858-2.301-0.416-6.182-2.716-7.329c-2.314-1.157-4.358,2.234-6.243,1.9c-3.526-0.626-0.892-5.438-3.257-7.33  c-1.115-0.893-3.168,0.241-3.802-0.271c-1.501-1.214-1.551-4.691,0.543-6.787c2.529-2.528,4.955-1.057,3.259-5.293  c-1.563-3.906,0.111-6.873,1.763-10.18c3.237-6.472-6.742-3.085-10.45-1.629c-1.933-2.845,2.836-7.609,1.357-9.501  c-1.864-2.388-8.435,2.094-10.18,3.258c-6.252,4.168-13.896,9.814-18.324,15.473c-0.654-4.928-5.135-2.192-7.872-0.543  c1-5.427,4.743-10.012,6.108-15.473c0.467-1.866-10.274,1.327-11.809,1.628c1.743-5.709,7.054-9.431,7.601-15.745  c-4.665-0.206-9.576,2.306-13.845,1.629c2.027-3.578,5.047-6.563,6.923-10.315c3.394-6.788-6.313-4.291-10.724-3.801  c0.091-0.271,0-0.362-0.271-0.271c1.509-1.778,5.516-7.243,5.159-9.772c-0.532-3.766-6.147-1.986-9.501-2.714  c2.791-3.16,7.927-4.762,10.587-8.144c-2.423-1.73-12.339-6.332-10.316-9.366c2.047-3.071,3.865-6.575,5.022-10.043  c2.013-6.043-10.325,0.36-12.895,1.493c-1.018-4.051,1.742-9.495,0.543-13.031c-1.163-3.429-1.794-2.051-4.072,0  c-2.079,1.872-5.961,9.784-7.872,9.23c-2.229-0.646-3.889-8.093-5.701-9.773c-5.992-5.558-3.267,8.096-4.343,12.216  c-3.103-4.688-8.104-8.221-13.302-4.344c-2.643,1.972-2.54,5.194-5.158,6.244c-2.568,1.029-7.987-0.128-10.452-0.95  c-5.17-1.724-8.881-6.32-14.794-7.194C61.44,8.461,59.46,8.372,56.18,6.604c-3.4-1.832-6.776-2.628-9.5,0.543  c-4.008,4.666-0.317,9.495,0,14.388c0.427,6.591-1.341,11.708,1.899,18.188c1.711,3.423,3.891,6.333,6.516,8.958  c3.23,3.23,11.116-0.448,14.659-1.628c12.403-4.135,29.385-6.096,41.126,0.95c1.474,0.883,2.756,0.783,3.665,2.036  c1.75,2.415,2.207,8.396,2.986,11.401c2.211,8.534,3.868,17.258,6.183,25.749c3.893,14.273,6.457,28.891,10.043,43.232  c2.587,10.346,4.319,19.229,10.104,27.93c2.121,3.189,3.829,7.168,4.751,10.86c0.478,1.905,2.979,6.229,2.308,7.872  c-1.213,2.967-5.221-1.107-6.108,2.442c-0.859,3.438-1.099,9.014,2.58,9.772C150.403,189.918,150.873,187.305,153.363,190.112" id="path3" style="fill-rule:evenodd;clip-rule:evenodd;fill:#0E0D0D;"/>
  <path d="M149.021,186.041c0.361,0,0.723,0,1.085,0  C148.981,176.493,146.599,183.664,149.021,186.041" id="path5" style="fill-rule:evenodd;clip-rule:evenodd;fill:#5FC46A;"/>
  <path d="M154.721,185.769c2.901-4.117,3.825-1.456,7.515-1.262  c4.747,0.25,4.017-3.261,3.545-7.516c-0.171-1.527-2.901-10.611-2.373-11.311c1.098-1.457,17.5-0.235,20.359-0.271  c7.646-0.103,8.389,3.995,12.486,9.501c0.716,0.96,1.458,1.828,2.036,2.986c0.962,1.921,5.729,1.284,6.108,3.528  c0.519,3.072-6.54-1.889-4.072,4.344c3.85-2.58,8.446-1.22,12.759-1.9c-0.233-4.005-1.989-9.956-3.8-13.572  c-0.424-0.849-1.909-4.601-1.494-5.43c1.122-2.244,1.875-0.805,3.665-0.814c5.444-0.031,15.658,1.672,20.903-0.951  c5.473-2.736,13.023-2.582,19.001-5.294c9.537-4.324,18.57-12.08,21.719-22.53c4.648-15.427-5.773-30.948-19.275-37.462  c-4.777-2.305-10.272-3.631-15.201-4.615c-6.329-1.263-5.881-2.117-2.172-7.6c-4.371,0.76-8.504,2.903-13.029,2.714  c1.246,4.576,4.704,8.892,7.058,12.758c0.739-4.623-0.631-8.896,5.294-6.921c3.665,1.221,7.238,2.318,10.722,3.936  c5.877,2.729,11.719,5.771,15.475,10.315c7.87,9.528,9.099,24.833-0.271,34.204c-10.814,10.813-25.846,8.099-36.647-0.543  c-6.272-5.018-12.55-10.104-19.546-14.115c-3.678-2.109-7.515-4.225-11.536-5.565c-1.436-0.479-2.845-1.241-4.242-1.823  c-1.615-0.674-0.58,1.322-1.053,1.417c-0.702,0.139-2.952,0.372-3.8,0.814c-1.458,0.761-2.754,3.621-3.801,4.071  c-2.335,1.005-5.146-0.559-2.714-2.986c3.308-3.302,6.027-4.674,8.958-8.143c1.259-1.49,3.216-3.335,5.022-3.938  c1.521-0.506,2.893-6.345,4.206-8.279c1.813-2.668,1.479-0.938,1.629-4.343c0.146-3.283-0.311-6.088,1.629-8.958  c-5.743,0.71-10.947,3.528-16.151,6.651c-3.796,2.278-12.364,5.898-13.979,10.45c-0.979,2.759,3.714,9.888,4.478,13.71  c1.182,5.903-1.731,8.521-3.663,2.308c-1.624-5.227,0.123-6.56-4.888-9.229c-1.077-0.575-1.827-0.729-3.257-1.63  c-1.522-0.96-2.955-2.241-4.48-3.259c-3.737-2.491-4.78-5.446-6.378-9.5c-3.788-9.605-6.956-19.62-10.315-29.317  c-2.817-8.134-9.332-19.581-8.958-28.232c0.136-3.137,2.275-5.825,1.899-9.23c-0.374-3.389-2.542-5.834-4.479-8.415  c-4.307-5.74-12.589-7.061-18.867-5.429c1.093,1.503,1.749,5.906-1.899,4.615c-1.021-0.361-2.172-5.228-2.715-6.244  c-1.944-3.638-6.062-8.205-9.772-3.801c2.549,1.156,11.988,7.266,10.858,10.859c-0.944,3.003-13.924,4.646-15.744,2.443  c-1.477-1.787,1.346-5.566-0.815-7.058c-0.981-0.678-3.783,0.271-4.886,0.271c-2.917,0-6.311-0.226-8.823-1.9  c-4.164-2.776-8.846-5.71-13.98-6.244c1.066,1.103,2.241,3.494,0.543,4.344c-1.975,0.988-3.36-2.004-4.615-3.258  c-2.207-2.204-6.803-7.053-9.773-4.344c-4.112,3.751,0.503,10.363,3.258,12.759c1.363,1.184,3.793,0.954,2.444,2.715  c-1.235,1.609-3.92,0.683-5.159-0.271c-0.789,6.481,0.973,18.956,7.873,22.26c4.273,2.046,14.105-2.885,19.002-3.801  c6.356-1.188,13.875-2.575,20.359-2.171c4.849,0.302,16.994,2.432,20.36,6.244c2.87,3.248,2.85,13.167,4.343,17.645  c1.115,3.345,1.308,7.502,2.851,10.587c4.757,9.513,4.783,22.92,7.736,33.253c2.959,10.352,4.725,20.897,7.194,31.354  c1.36,5.765,2.757,9.043,5.158,13.844c1.688,3.379,3.839,6.597,5.564,10.044c2.073,4.144,2.916,13.97,6.415,16.157  c6.135,3.835,0.182,3.993-2.614,1.76C153.455,182.815,154.144,185.069,154.721,185.769" id="path7" style="fill-rule:evenodd;clip-rule:evenodd;fill:#00A33D;"/>
  <path d="M194.625,185.498c3.506-0.723,1.776-4.56-1.086-5.158  C193.348,182.199,193.6,184.062,194.625,185.498" id="path9" style="fill-rule:evenodd;clip-rule:evenodd;fill:#5FC46A;"/>
  <path d="M245.659,146.135c1.063-0.028,2.222-0.555,3.258-0.814  C247.17,142.504,245.671,143.856,245.659,146.135" id="path11" style="fill-rule:evenodd;clip-rule:evenodd;fill:#86F22F;"/>
  <path d="M239.688,145.592c0.453,0,0.905,0,1.357,0  c-0.02-0.83-0.397-2.269-0.814-2.986c-0.915,0.585-1.697,1.467-2.172,2.443C238.602,145.231,239.145,145.412,239.688,145.592" id="path13" style="fill-rule:evenodd;clip-rule:evenodd;fill:#86F22F;"/>
  <path d="M254.346,143.692c0.855-0.367,1.518-0.146,1.63-1.086  C253.608,141.918,254.656,142.875,254.346,143.692" id="path15" style="fill-rule:evenodd;clip-rule:evenodd;fill:#86F22F;"/>
  <path d="M233.173,143.42c0.503-0.797-0.111-2.45-0.543-4.071  C230.02,140.764,231.078,142.558,233.173,143.42" id="path17" style="fill-rule:evenodd;clip-rule:evenodd;fill:#86F22F;"/>
  <path d="M260.591,139.078c0.775-0.781,1.306-2.053,1.9-2.986  C259.43,135.133,259.528,137.519,260.591,139.078" id="path19" style="fill-rule:evenodd;clip-rule:evenodd;fill:#86F22F;"/>
  <path d="M225.844,137.72c0.044-1.048-0.369-2.218-0.543-3.258  C223.096,135.769,223.851,137.213,225.844,137.72" id="path21" style="fill-rule:evenodd;clip-rule:evenodd;fill:#86F22F;"/>
  <path d="M218.243,131.477c-0.042-1.235-0.556-2.589-0.814-3.801  c-0.702,0.333-1.712,1.271-2.172,1.9C216.136,130.495,217.599,131.373,218.243,131.477" id="path23" style="fill-rule:evenodd;clip-rule:evenodd;fill:#86F22F;"/>
  <path d="M264.663,130.391c0.181-0.452,0.361-0.905,0.543-1.357  c-0.271,0-0.543,0-0.814,0C264.481,129.486,264.572,129.939,264.663,130.391" id="path25" style="fill-rule:evenodd;clip-rule:evenodd;fill:#86F22F;"/>
  <path d="M210.642,126.59c-0.271-1.629-0.543-3.257-0.814-4.886  c-1.448,0.543-2.896,1.086-4.344,1.629C207.202,124.419,208.922,125.504,210.642,126.59" id="path27" style="fill-rule:evenodd;clip-rule:evenodd;fill:#86F22F;"/>
  <path d="M200.325,121.162c-0.271-1.9-0.543-3.8-0.814-5.7  c-1.99,0.904-3.98,1.809-5.972,2.714C195.802,119.17,198.063,120.166,200.325,121.162" id="path29" style="fill-rule:evenodd;clip-rule:evenodd;fill:#86F22F;"/>
  <path d="M262.491,116.275c0.169-0.326,0.73-0.12,0.271-0.813  C262.507,115.733,262.688,115.895,262.491,116.275" id="path31" style="fill-rule:evenodd;clip-rule:evenodd;fill:#FFFFFF;"/>
  <path d="M161.778,107.044c0.147-2.805,0.355-5.61,0.543-8.415  c-3.871,1.844-6.499,1.655-4.344,5.429C158.718,105.355,160.458,106.349,161.778,107.044" id="path33" style="fill-rule:evenodd;clip-rule:evenodd;fill:#86F22F;"/>
  <path d="M166.393,105.958c0.322-0.297,0.415-0.615,0.814-1.086  c-0.235-0.444-0.863-1.239-1.357-1.629C165.179,104.902,165.759,105.176,166.393,105.958" id="path35" style="fill-rule:evenodd;clip-rule:evenodd;fill:#FFFFFF;"/>
  <path d="M169.379,102.972c3.862-3.582,8.528-6.332,13.03-8.958  c1.811-1.056,5.427-2.094,6.786-3.528c1.519-1.603,1.49-0.145,0.679-2.579c-0.532-1.596,0.038-3.733,0.407-5.293  c-4.482,1.86-8.521,4.97-12.215,8.144c-2.064,1.773-3.924,3.649-5.837,5.565C170.227,98.329,166.264,100.475,169.379,102.972" id="path37" style="fill-rule:evenodd;clip-rule:evenodd;fill:#006B33;"/>
  <path d="M154.992,97.272c2.126-4.182,4.994-8.288,5.972-13.03  c-3.258,0.996-6.515,1.99-9.772,2.986C152.458,90.576,153.725,93.925,154.992,97.272" id="path39" style="fill-rule:evenodd;clip-rule:evenodd;fill:#86F22F;"/>
  <path d="M149.834,82.614c2.688-3.883,5.041-7.541,6.787-11.944  c-3.405,0.851-6.946,0.636-10.045,2.171C147.663,76.098,148.747,79.356,149.834,82.614" id="path41" style="fill-rule:evenodd;clip-rule:evenodd;fill:#86F22F;"/>
  <path d="M144.676,67.412c2.366-3.155,5.473-6.395,6.244-9.773  c-3.165,0.246-6.331,0.393-9.502,0.543C142.353,61.068,143.09,65.145,144.676,67.412" id="path43" style="fill-rule:evenodd;clip-rule:evenodd;fill:#86F22F;"/>
  <path d="M139.791,54.11c1.421-1.426,2.36-3.364,3.256-5.158  c2.423-4.845-2.155-3.139-5.971-2.986C137.328,48.722,138.673,51.909,139.791,54.11" id="path45" style="fill-rule:evenodd;clip-rule:evenodd;fill:#86F22F;"/>
  <path d="M137.347,39.723c2.31-1.365,5.155-2.453,6.786-4.615  c-1.99-1.268-3.981-2.534-5.971-3.801C138.286,34.096,137.805,37.657,137.347,39.723" id="path47" style="fill-rule:evenodd;clip-rule:evenodd;fill:#86F22F;"/>
  <path d="M16.275,39.723c8.183,0.485,7.841-9.527,6.786-15.202  c3.934-0.835,7.847-0.05,11.673-1.629c-3.588-0.393-7.082,0-10.722,0c-2.592,0-3.409-1.869-4.616,0.543  c-0.072,0.146,1.29,3.097,1.493,3.8c0.75,2.585,0.43,5.384-0.95,8.144c-1.937,3.875-5.069-0.295-6.107-0.543  c-2.411-0.576-4.375,1.488-7.058-1.358c-3.148-3.339,0.656-4.556-0.814-7.601c0.112,0.231-2.883-1.795-3.258-2.171  c-1.02-1.019-0.722-3.715-0.136-4.886c1.308-2.617-0.678-5.301-0.136-8.145C2.383,10.922,3.652,7.387,3.517,7.69  c1.018-2.284,1.486-4.292,3.801-5.158c1.495-0.56,2.725-0.266,4.071,0.407c1.462,0.731,1.251,2.696,1.9,3.122  c2.201,1.441,7.058,0.156,7.058,4.479c0,1.99,3.563,5.551,1.629,6.516c-1.026,0.511-3.224,4.545-4.479,2.036  c-0.734-1.47-0.875-2.499-2.85-2.443c-2.464,0.069-0.1,3.541,0.543,4.343c1.001,1.25-1.074,1.047,1.357,1.628  c-0.067-0.017,1.045-1.626,2.028-1.616c2.545,0.027,5.089,0.053,7.633,0.08c5.552,0.058,11.104,0.115,16.656,0.174  c2.554,0.026-0.133-1.637-1.947-1.662c-5.681-0.078-11.361-0.155-17.042-0.233c2.896-4.875-2.024-13.092-6.516-15.338  C12.159,1.425,6.778-3.894,2.431,4.704c-3.377,6.678-2.923,15.933-0.543,22.531c1,2.773,1.505,7.286,4.072,9.23  c2.768,2.097,5.966,1.021,8.958,2.443C15.393,39.134,15.86,39.398,16.275,39.723" id="path49" style="fill-rule:evenodd;clip-rule:evenodd;fill:#0E0D0D;"/>
  <path d="M134.903,25.335c2.058-2.518,4.735-6.226,5.159-9.5  c-2.408,0.185-4.635,1.229-6.788,2.307C128.279,20.644,131.09,21.521,134.903,25.335" id="path51" style="fill-rule:evenodd;clip-rule:evenodd;fill:#86F22F;"/>
  <path d="M94.999,24.792c2.533-0.362,5.067-0.724,7.601-1.085  c-1.404-2.931-4.85-6.284-8.143-7.058C94.238,19.091,92.782,23.768,94.999,24.792" id="path53" style="fill-rule:evenodd;clip-rule:evenodd;fill:#FFBF00;"/>
  <path d="M56.451,23.978c5.336-0.495-0.4-7.698-3.8-7.601  C48.635,16.492,54.608,22.21,56.451,23.978" id="path55" style="fill-rule:evenodd;clip-rule:evenodd;fill:#0E0D0D;"/>
  <path d="M95.542,22.349c1.902-0.283,2.486-3.494,0.543-3.8  C94.298,18.266,94.077,21.903,95.542,22.349" id="path57" style="fill-rule:evenodd;clip-rule:evenodd;fill:#0E0D0D;"/>
  <path d="M35.82,18.277c1.448,0,2.896,0,4.344,0  c-0.384-2.692-9.458-2.622-11.673-1.086C30.112,18.365,33.511,18.1,35.82,18.277" id="path59" style="fill-rule:evenodd;clip-rule:evenodd;fill:#0E0D0D;"/>
  <path d="M126.488,18.006c0.453-3.529,0.905-7.059,1.357-10.587  c-2.985,1.994-4.458,5.711-6.243,8.688C123.226,16.754,124.838,17.427,126.488,18.006" id="path61" style="fill-rule:evenodd;clip-rule:evenodd;fill:#86F22F;"/>
  <path d="M112.372,15.563c1.329,0.073,2.744-0.183,4.073-0.271  c-1.226-2.451-2.411-5.695-4.073-7.602C112.288,10.151,111.881,13.595,112.372,15.563" id="path63" style="fill-rule:evenodd;clip-rule:evenodd;fill:#86F22F;"/>
</svg>
