<?xml version="1.0" encoding="UTF-8" standalone="no"?>
<!DOCTYPE svg PUBLIC "-//W3C//DTD SVG 20010904//EN"
"http://www.w3.org/TR/2001/REC-SVG-20010904/DTD/svg10.dtd">
<!-- Created with Inkscape (http://www.inkscape.org/) --><svg height="60.0000000" id="svg1" inkscape:version="0.38.1" sodipodi:docbase="/home/danny/flat/scalable/filesystems" sodipodi:docname="folder_binary.svg" sodipodi:version="0.32" version="1.0" width="60.0000000" x="0" xmlns="http://www.w3.org/2000/svg" xmlns:inkscape="http://www.inkscape.org/namespaces/inkscape" xmlns:sodipodi="http://sodipodi.sourceforge.net/DTD/sodipodi-0.dtd" xmlns:xlink="http://www.w3.org/1999/xlink" y="0">
  <metadata>
    <rdf:RDF xmlns:cc="http://web.resource.org/cc/" xmlns:dc="http://purl.org/dc/elements/1.1/" xmlns:rdf="http://www.w3.org/1999/02/22-rdf-syntax-ns#">
      <cc:Work rdf:about="">
        <dc:title>Part of the Flat Icon Collection (Wed Aug 25 23:31:12 2004)</dc:title>
        <dc:description></dc:description>
        <dc:subject>
          <rdf:Bag>
            <rdf:li>hash</rdf:li>
            <rdf:li></rdf:li>
            <rdf:li>filesystem</rdf:li>
            <rdf:li>computer</rdf:li>
            <rdf:li>icons</rdf:li>
            <rdf:li>theme</rdf:li>
          </rdf:Bag>
        </dc:subject>
        <dc:publisher>
          <cc:Agent rdf:about="http://www.openclipart.org">
            <dc:title>Danny Allen</dc:title>
          </cc:Agent>
        </dc:publisher>
        <dc:creator>
          <cc:Agent>
            <dc:title>Danny Allen</dc:title>
          </cc:Agent>
        </dc:creator>
        <dc:rights>
          <cc:Agent>
            <dc:title>Danny Allen</dc:title>
          </cc:Agent>
        </dc:rights>
        <dc:date></dc:date>
        <dc:format>image/svg+xml</dc:format>
        <dc:type rdf:resource="http://purl.org/dc/dcmitype/StillImage"/>
        <cc:license rdf:resource="http://web.resource.org/cc/PublicDomain"/>
        <dc:language>en</dc:language>
      </cc:Work>
      <cc:License rdf:about="http://web.resource.org/cc/PublicDomain">
        <cc:permits rdf:resource="http://web.resource.org/cc/Reproduction"/>
        <cc:permits rdf:resource="http://web.resource.org/cc/Distribution"/>
        <cc:permits rdf:resource="http://web.resource.org/cc/DerivativeWorks"/>
      </cc:License>
    </rdf:RDF>
  </metadata>
  <sodipodi:namedview bordercolor="#666666" borderopacity="1.0" id="base" inkscape:cx="23.391846" inkscape:cy="31.603001" inkscape:pageopacity="0.0" inkscape:pageshadow="2" inkscape:window-height="685" inkscape:window-width="1016" inkscape:window-x="0" inkscape:window-y="0" inkscape:zoom="6.9465337" pagecolor="#ffffff"/>
  <defs id="defs3">
    <linearGradient id="linearGradient900">
      <stop id="stop901" offset="0" style="stop-color:#000;stop-opacity:1;"/>
      <stop id="stop902" offset="1" style="stop-color:#fff;stop-opacity:1;"/>
    </linearGradient>
    <linearGradient id="linearGradient903" xlink:href="#linearGradient900"/>
    <linearGradient id="linearGradient904" xlink:href="#linearGradient900"/>
    <linearGradient id="linearGradient905" xlink:href="#linearGradient900"/>
    <linearGradient id="linearGradient906" xlink:href="#linearGradient900"/>
    <linearGradient id="linearGradient907" xlink:href="#linearGradient900"/>
  </defs>
  <path d="M 5.4330181 8.4866775 C 4.9067701 8.4866775 4.4642681 8.9291795 4.4642681 9.4554275 L 4.4642681 14.330427 C 4.4631171 14.355409 4.4330181 14.367651 4.4330181 14.392927 L 4.4330181 51.392927 C 4.4330181 52.276723 5.1429741 52.986677 6.0267681 52.986677 L 43.308018 52.986677 C 44.191811 52.986676 44.901768 52.276721 44.901768 51.392927 L 44.901768 14.392927 C 44.901768 13.509133 44.191812 12.799177 43.308018 12.799177 L 28.589268 12.799177 L 28.589268 9.4554275 C 28.589268 8.9291805 28.146766 8.4866775 27.620518 8.4866775 L 5.4330181 8.4866775 z " id="path938" style="font-size:12;fill:#b3b3b3;fill-rule:evenodd;stroke:#333333;stroke-width:3.125;stroke-dasharray:none;stroke-linejoin:round;"/>
  <rect height="33.45036577" id="rect922" rx="1.59529591" sodipodi:fill-cmyk="(0 0 0 0.5)" sodipodi:stroke-cmyk="(0 0 0 0.8)" style="font-size:12;fill:#7f7f7f;fill-rule:evenodd;stroke:#333333;stroke-width:3.23511;stroke-dasharray:none;stroke-linejoin:round;" transform="matrix(1.000000,0.000000,-0.359650,0.933087,0.000000,0.000000)" width="40.47643280" x="25.03225890" y="23.39801993"/>
  <path d="M 46.433950,30.556519 C 46.714001,30.556519 46.976122,30.435860 47.220316,30.194540 C 47.465683,29.950241 47.672710,29.667210 47.841393,29.345451 C 48.013054,29.023690 48.158846,28.710868 48.278766,28.406985 C 48.403388,28.091183 48.506254,27.773891 48.587363,27.455111 C 48.671451,27.136330 48.686040,26.857769 48.631133,26.619429 C 48.579204,26.381089 48.411723,26.261918 48.128695,26.261918 C 47.845665,26.261918 47.582642,26.381089 47.339624,26.619429 C 47.099585,26.857769 46.894323,27.136330 46.723836,27.455111 C 46.556329,27.773891 46.410264,28.091183 46.285641,28.406985 C 46.074019,28.943251 45.944988,29.436318 45.898546,29.886186 C 45.853283,30.333075 46.031750,30.556519 46.433950,30.556519 z M 45.938400,31.812276 C 45.360423,31.812276 44.956715,31.642460 44.727272,31.302824 C 44.497831,30.963188 44.405857,30.535664 44.451348,30.020252 C 44.499819,29.504842 44.634569,28.967085 44.855597,28.406985 C 45.016667,27.998826 45.215917,27.599605 45.453351,27.209322 C 45.691960,26.816060 45.972438,26.452591 46.294788,26.118914 C 46.618312,25.782257 46.975871,25.514124 47.367464,25.314514 C 47.763212,25.111925 48.181551,25.010630 48.622481,25.010630 C 49.066390,25.010630 49.403294,25.111925 49.633190,25.314514 C 49.867242,25.514124 50.012275,25.780767 50.068292,26.114445 C 50.127289,26.448122 50.120314,26.813081 50.047367,27.209322 C 49.977400,27.605563 49.863059,28.004784 49.704342,28.406985 C 49.545624,28.809184 49.344296,29.209894 49.100356,29.609115 C 48.860571,30.005357 48.580994,30.370316 48.261624,30.703993 C 47.942255,31.037669 47.584695,31.305803 47.188948,31.508393 C 46.793201,31.710982 46.376351,31.812276 45.938400,31.812276 z M 41.178537,30.556519 C 41.458588,30.556519 41.720709,30.435860 41.964903,30.194540 C 42.210270,29.950241 42.417298,29.667210 42.585982,29.345451 C 42.757644,29.023690 42.903435,28.710868 43.023353,28.406985 C 43.147976,28.091183 43.250841,27.773891 43.331951,27.455111 C 43.416039,27.136330 43.430629,26.857769 43.375721,26.619429 C 43.323791,26.381089 43.156311,26.261918 42.873282,26.261918 C 42.590253,26.261918 42.327230,26.381089 42.084212,26.619429 C 41.844173,26.857769 41.638910,27.136330 41.468425,27.455111 C 41.300916,27.773891 41.154852,28.091183 41.030230,28.406985 C 40.818608,28.943251 40.689575,29.436318 40.643134,29.886186 C 40.597870,30.333075 40.776338,30.556519 41.178537,30.556519 z M 40.682988,31.812276 C 40.105012,31.812276 39.701303,31.642460 39.471860,31.302824 C 39.242419,30.963188 39.150445,30.535664 39.195936,30.020252 C 39.244408,29.504842 39.379157,28.967085 39.600186,28.406985 C 39.761254,27.998826 39.960505,27.599605 40.197938,27.209322 C 40.436548,26.816060 40.717026,26.452591 41.039376,26.118914 C 41.362899,25.782257 41.720458,25.514124 42.112052,25.314514 C 42.507800,25.111925 42.926139,25.010630 43.367069,25.010630 C 43.810978,25.010630 44.147881,25.111925 44.377777,25.314514 C 44.611830,25.514124 44.756864,25.780767 44.812881,26.114445 C 44.871876,26.448122 44.864901,26.813081 44.791956,27.209322 C 44.721988,27.605563 44.607646,28.004784 44.448929,28.406985 C 44.290212,28.809184 44.088883,29.209894 43.844943,29.609115 C 43.605159,30.005357 43.325581,30.370316 43.006212,30.703993 C 42.686842,31.037669 42.329283,31.305803 41.933535,31.508393 C 41.537788,31.710982 41.120938,31.812276 40.682988,31.812276 z M 36.366305,31.030222 L 38.196842,26.391516 L 37.656106,26.391516 C 37.450538,26.391516 37.319717,26.330441 37.263646,26.208292 C 37.207575,26.086142 37.214222,25.937178 37.283587,25.761402 C 37.351776,25.588605 37.466265,25.438153 37.627052,25.310045 C 37.790818,25.181937 37.968036,25.117884 38.158709,25.117884 L 39.459156,25.117884 C 39.587264,25.117884 39.685739,25.147676 39.754584,25.207260 C 39.824603,25.263867 39.864048,25.341326 39.872918,25.439642 C 39.882965,25.534979 39.862122,25.648191 39.810393,25.779278 L 37.738254,31.030222 C 37.646551,31.262603 37.513445,31.441359 37.338937,31.566488 C 37.164430,31.691617 36.974392,31.754181 36.768823,31.754181 C 36.566233,31.754181 36.426162,31.690126 36.348609,31.562019 C 36.271054,31.433910 36.276952,31.256645 36.366305,31.030222 z M 32.978888,31.030222 L 34.809425,26.391516 L 34.268690,26.391516 C 34.063121,26.391516 33.932300,26.330441 33.876229,26.208292 C 33.820158,26.086142 33.826805,25.937178 33.896170,25.761402 C 33.964359,25.588605 34.078848,25.438153 34.239635,25.310045 C 34.403401,25.181937 34.580619,25.117884 34.771292,25.117884 L 36.071739,25.117884 C 36.199847,25.117884 36.298323,25.147676 36.367167,25.207260 C 36.437185,25.263867 36.476630,25.341326 36.485501,25.439642 C 36.495547,25.534979 36.474705,25.648191 36.422975,25.779278 L 34.350836,31.030222 C 34.259133,31.262603 34.126028,31.441359 33.951520,31.566488 C 33.777013,31.691617 33.586975,31.754181 33.381406,31.754181 C 33.178816,31.754181 33.038745,31.690126 32.961191,31.562019 C 32.883636,31.433910 32.889536,31.256645 32.978888,31.030222 z M 29.148291,30.556519 C 29.428343,30.556519 29.690463,30.435860 29.934656,30.194540 C 30.180025,29.950241 30.387052,29.667210 30.555735,29.345451 C 30.727396,29.023690 30.873188,28.710868 30.993107,28.406985 C 31.117729,28.091183 31.220596,27.773891 31.301704,27.455111 C 31.385793,27.136330 31.400382,26.857769 31.345475,26.619429 C 31.293546,26.381089 31.126065,26.261918 30.843035,26.261918 C 30.560006,26.261918 30.296983,26.381089 30.053966,26.619429 C 29.813927,26.857769 29.608664,27.136330 29.438178,27.455111 C 29.270670,27.773891 29.124605,28.091183 28.999983,28.406985 C 28.788361,28.943251 28.659329,29.436318 28.612888,29.886186 C 28.567623,30.333075 28.746092,30.556519 29.148291,30.556519 z M 28.652741,31.812276 C 28.074766,31.812276 27.671056,31.642460 27.441614,31.302824 C 27.212172,30.963188 27.120198,30.535664 27.165690,30.020252 C 27.214161,29.504842 27.348910,28.967085 27.569938,28.406985 C 27.731008,27.998826 27.930259,27.599605 28.167693,27.209322 C 28.406301,26.816060 28.686779,26.452591 29.009129,26.118914 C 29.332653,25.782257 29.690213,25.514124 30.081806,25.314514 C 30.477553,25.111925 30.895892,25.010630 31.336821,25.010630 C 31.780731,25.010630 32.117635,25.111925 32.347532,25.314514 C 32.581583,25.514124 32.726616,25.780767 32.782634,26.114445 C 32.841631,26.448122 32.834655,26.813081 32.761709,27.209322 C 32.691742,27.605563 32.577400,28.004784 32.418682,28.406985 C 32.259964,28.809184 32.058638,29.209894 31.814697,29.609115 C 31.574912,30.005357 31.295335,30.370316 30.975965,30.703993 C 30.656597,31.037669 30.299037,31.305803 29.903289,31.508393 C 29.507541,31.710982 29.090693,31.812276 28.652741,31.812276 z M 24.336059,31.030222 L 26.166596,26.391516 L 25.625860,26.391516 C 25.420291,26.391516 25.289470,26.330441 25.233399,26.208292 C 25.177329,26.086142 25.183975,25.937178 25.253340,25.761402 C 25.321530,25.588605 25.436018,25.438153 25.596805,25.310045 C 25.760572,25.181937 25.937790,25.117884 26.128464,25.117884 L 27.428910,25.117884 C 27.557017,25.117884 27.655494,25.147676 27.724338,25.207260 C 27.794356,25.263867 27.833801,25.341326 27.842671,25.439642 C 27.852718,25.534979 27.831875,25.648191 27.780146,25.779278 L 25.708007,31.030222 C 25.616304,31.262603 25.483198,31.441359 25.308690,31.566488 C 25.134183,31.691617 24.944145,31.754181 24.738578,31.754181 C 24.535987,31.754181 24.395915,31.690126 24.318362,31.562019 C 24.240807,31.433910 24.246706,31.256645 24.336059,31.030222 z M 20.505462,30.556519 C 20.785512,30.556519 21.047633,30.435860 21.291827,30.194540 C 21.537195,29.950241 21.744222,29.667210 21.912905,29.345451 C 22.084567,29.023690 22.230358,28.710868 22.350278,28.406985 C 22.474900,28.091183 22.577766,27.773891 22.658875,27.455111 C 22.742963,27.136330 22.757552,26.857769 22.702645,26.619429 C 22.650716,26.381089 22.483236,26.261918 22.200207,26.261918 C 21.917177,26.261918 21.654153,26.381089 21.411137,26.619429 C 21.171098,26.857769 20.965836,27.136330 20.795348,27.455111 C 20.627841,27.773891 20.481776,28.091183 20.357154,28.406985 C 20.145531,28.943251 20.016500,29.436318 19.970059,29.886186 C 19.924795,30.333075 20.103262,30.556519 20.505462,30.556519 z M 20.009912,31.812276 C 19.431935,31.812276 19.028226,31.642460 18.798784,31.302824 C 18.569342,30.963188 18.477368,30.535664 18.522860,30.020252 C 18.571331,29.504842 18.706081,28.967085 18.927110,28.406985 C 19.088178,27.998826 19.287429,27.599605 19.524863,27.209322 C 19.763472,26.816060 20.043951,26.452591 20.366301,26.118914 C 20.689825,25.782257 21.047383,25.514124 21.438976,25.314514 C 21.834724,25.111925 22.253062,25.010630 22.693993,25.010630 C 23.137903,25.010630 23.474807,25.111925 23.704702,25.314514 C 23.938754,25.514124 24.083787,25.780767 24.139805,26.114445 C 24.198801,26.448122 24.191826,26.813081 24.118879,27.209322 C 24.048912,27.605563 23.934570,28.004784 23.775853,28.406985 C 23.617135,28.809184 23.415808,29.209894 23.171868,29.609115 C 22.932083,30.005357 22.652506,30.370316 22.333136,30.703993 C 22.013767,31.037669 21.656207,31.305803 21.260460,31.508393 C 20.864712,31.710982 20.447863,31.812276 20.009912,31.812276 z M 42.822256,39.708802 C 43.102306,39.708802 43.364427,39.588142 43.608621,39.346822 C 43.853990,39.102523 44.061016,38.819493 44.229699,38.497733 C 44.401361,38.175973 44.547152,37.863152 44.667072,37.559267 C 44.791694,37.243465 44.894559,36.926174 44.975668,36.607394 C 45.059757,36.288612 45.074346,36.010053 45.019439,35.771711 C 44.967509,35.533371 44.800029,35.414201 44.517001,35.414201 C 44.233971,35.414201 43.970947,35.533371 43.727930,35.771711 C 43.487891,36.010053 43.282629,36.288612 43.112142,36.607394 C 42.944635,36.926174 42.798570,37.243465 42.673948,37.559267 C 42.462325,38.095534 42.333293,38.588601 42.286852,39.038470 C 42.241588,39.485357 42.420056,39.708802 42.822256,39.708802 z M 42.326706,40.964560 C 41.748729,40.964560 41.345020,40.794742 41.115578,40.455107 C 40.886136,40.115471 40.794162,39.687946 40.839653,39.172535 C 40.888124,38.657124 41.022875,38.119368 41.243903,37.559267 C 41.404971,37.151109 41.604222,36.751887 41.841656,36.361604 C 42.080265,35.968343 42.360745,35.604873 42.683095,35.271196 C 43.006618,34.934540 43.364176,34.666407 43.755769,34.466796 C 44.151518,34.264207 44.569856,34.162912 45.010787,34.162912 C 45.454697,34.162912 45.791600,34.264207 46.021495,34.466796 C 46.255547,34.666407 46.400582,34.933050 46.456598,35.266727 C 46.515594,35.600404 46.508619,35.965364 46.435673,36.361604 C 46.365706,36.757846 46.251364,37.157067 46.092647,37.559267 C 45.933930,37.961466 45.732601,38.362177 45.488662,38.761397 C 45.248877,39.157639 44.969299,39.522598 44.649930,39.856275 C 44.330561,40.189952 43.973001,40.458086 43.577253,40.660675 C 43.181506,40.863265 42.764656,40.964560 42.326706,40.964560 z M 38.010022,40.182504 L 39.840559,35.543798 L 39.299825,35.543798 C 39.094256,35.543798 38.963435,35.482723 38.907364,35.360574 C 38.851292,35.238425 38.857940,35.089460 38.927304,34.913686 C 38.995494,34.740887 39.109984,34.590435 39.270770,34.462328 C 39.434536,34.334219 39.611755,34.270166 39.802428,34.270166 L 41.102875,34.270166 C 41.230982,34.270166 41.329458,34.299958 41.398302,34.359543 C 41.468320,34.416149 41.507766,34.493609 41.516636,34.591926 C 41.526683,34.687262 41.505841,34.800473 41.454112,34.931560 L 39.381972,40.182504 C 39.290269,40.414886 39.157163,40.593642 38.982656,40.718770 C 38.808148,40.843899 38.618110,40.906463 38.412541,40.906463 C 38.209951,40.906463 38.069880,40.842410 37.992326,40.714302 C 37.914771,40.586194 37.920670,40.408928 38.010022,40.182504 z M 34.179425,39.708802 C 34.459476,39.708802 34.721598,39.588142 34.965791,39.346822 C 35.211160,39.102523 35.418187,38.819493 35.586870,38.497733 C 35.758532,38.175973 35.904323,37.863152 36.024242,37.559267 C 36.148864,37.243465 36.251731,36.926174 36.332839,36.607394 C 36.416928,36.288612 36.431517,36.010053 36.376609,35.771711 C 36.324680,35.533371 36.157200,35.414201 35.874170,35.414201 C 35.591142,35.414201 35.328118,35.533371 35.085100,35.771711 C 34.845062,36.010053 34.639800,36.288612 34.469313,36.607394 C 34.301805,36.926174 34.155741,37.243465 34.031119,37.559267 C 33.819497,38.095534 33.690464,38.588601 33.644023,39.038470 C 33.598758,39.485357 33.777227,39.708802 34.179425,39.708802 z M 33.683876,40.964560 C 33.105901,40.964560 32.702191,40.794742 32.472749,40.455107 C 32.243307,40.115471 32.151332,39.687946 32.196823,39.172535 C 32.245296,38.657124 32.380046,38.119368 32.601074,37.559267 C 32.762143,37.151109 32.961393,36.751887 33.198827,36.361604 C 33.437436,35.968343 33.717915,35.604873 34.040264,35.271196 C 34.363789,34.934540 34.721347,34.666407 35.112941,34.466796 C 35.508689,34.264207 35.927027,34.162912 36.367956,34.162912 C 36.811867,34.162912 37.148770,34.264207 37.378667,34.466796 C 37.612718,34.666407 37.757752,34.933050 37.813769,35.266727 C 37.872765,35.600404 37.865790,35.965364 37.792844,36.361604 C 37.722877,36.757846 37.608535,37.157067 37.449817,37.559267 C 37.291101,37.961466 37.089773,38.362177 36.845833,38.761397 C 36.606047,39.157639 36.326470,39.522598 36.007101,39.856275 C 35.687730,40.189952 35.330173,40.458086 34.934423,40.660675 C 34.538677,40.863265 34.121828,40.964560 33.683876,40.964560 z M 29.367194,40.182504 L 31.197730,35.543798 L 30.656995,35.543798 C 30.451426,35.543798 30.320605,35.482723 30.264535,35.360574 C 30.208463,35.238425 30.215111,35.089460 30.284476,34.913686 C 30.352666,34.740887 30.467154,34.590435 30.627941,34.462328 C 30.791706,34.334219 30.968926,34.270166 31.159599,34.270166 L 32.460045,34.270166 C 32.588153,34.270166 32.686628,34.299958 32.755472,34.359543 C 32.825491,34.416149 32.864936,34.493609 32.873806,34.591926 C 32.883853,34.687262 32.863010,34.800473 32.811282,34.931560 L 30.739142,40.182504 C 30.647439,40.414886 30.514333,40.593642 30.339827,40.718770 C 30.165318,40.843899 29.975280,40.906463 29.769711,40.906463 C 29.567122,40.906463 29.427051,40.842410 29.349497,40.714302 C 29.271943,40.586194 29.277841,40.408928 29.367194,40.182504 z M 25.536597,39.708802 C 25.816647,39.708802 26.078769,39.588142 26.322962,39.346822 C 26.568332,39.102523 26.775357,38.819493 26.944040,38.497733 C 27.115702,38.175973 27.261493,37.863152 27.381414,37.559267 C 27.506035,37.243465 27.608901,36.926174 27.690010,36.607394 C 27.774099,36.288612 27.788688,36.010053 27.733780,35.771711 C 27.681851,35.533371 27.514371,35.414201 27.231341,35.414201 C 26.948312,35.414201 26.685289,35.533371 26.442272,35.771711 C 26.202232,36.010053 25.996970,36.288612 25.826484,36.607394 C 25.658976,36.926174 25.512910,37.243465 25.388288,37.559267 C 25.176666,38.095534 25.047636,38.588601 25.001193,39.038470 C 24.955930,39.485357 25.134397,39.708802 25.536597,39.708802 z M 25.041047,40.964560 C 24.463071,40.964560 24.059362,40.794742 23.829919,40.455107 C 23.600477,40.115471 23.508503,39.687946 23.553995,39.172535 C 23.602466,38.657124 23.737216,38.119368 23.958244,37.559267 C 24.119313,37.151109 24.318565,36.751887 24.555998,36.361604 C 24.794607,35.968343 25.075085,35.604873 25.397434,35.271196 C 25.720960,34.934540 26.078518,34.666407 26.470111,34.466796 C 26.865859,34.264207 27.284197,34.162912 27.725127,34.162912 C 28.169037,34.162912 28.505941,34.264207 28.735837,34.466796 C 28.969888,34.666407 29.114923,34.933050 29.170940,35.266727 C 29.229937,35.600404 29.222961,35.965364 29.150014,36.361604 C 29.080048,36.757846 28.965705,37.157067 28.806988,37.559267 C 28.648271,37.961466 28.446943,38.362177 28.203004,38.761397 C 27.963218,39.157639 27.683641,39.522598 27.364270,39.856275 C 27.044902,40.189952 26.687342,40.458086 26.291595,40.660675 C 25.895847,40.863265 25.478998,40.964560 25.041047,40.964560 z M 20.281184,39.708802 C 20.561235,39.708802 20.823357,39.588142 21.067550,39.346822 C 21.312919,39.102523 21.519946,38.819493 21.688628,38.497733 C 21.860290,38.175973 22.006082,37.863152 22.126001,37.559267 C 22.250623,37.243465 22.353489,36.926174 22.434597,36.607394 C 22.518687,36.288612 22.533276,36.010053 22.478368,35.771711 C 22.426439,35.533371 22.258958,35.414201 21.975929,35.414201 C 21.692899,35.414201 21.429876,35.533371 21.186859,35.771711 C 20.946820,36.010053 20.741557,36.288612 20.571072,36.607394 C 20.403563,36.926174 20.257499,37.243465 20.132877,37.559267 C 19.921255,38.095534 19.792223,38.588601 19.745782,39.038470 C 19.700517,39.485357 19.878985,39.708802 20.281184,39.708802 z M 19.785634,40.964560 C 19.207660,40.964560 18.803950,40.794742 18.574508,40.455107 C 18.345066,40.115471 18.253091,39.687946 18.298582,39.172535 C 18.347055,38.657124 18.481804,38.119368 18.702832,37.559267 C 18.863900,37.151109 19.063152,36.751887 19.300586,36.361604 C 19.539194,35.968343 19.819673,35.604873 20.142023,35.271196 C 20.465547,34.934540 20.823106,34.666407 21.214699,34.466796 C 21.610447,34.264207 22.028785,34.162912 22.469715,34.162912 C 22.913625,34.162912 23.250529,34.264207 23.480425,34.466796 C 23.714476,34.666407 23.859510,34.933050 23.915528,35.266727 C 23.974524,35.600404 23.967548,35.965364 23.894602,36.361604 C 23.824635,36.757846 23.710293,37.157067 23.551575,37.559267 C 23.392859,37.961466 23.191531,38.362177 22.947591,38.761397 C 22.707805,39.157639 22.428228,39.522598 22.108859,39.856275 C 21.789489,40.189952 21.431930,40.458086 21.036182,40.660675 C 20.640435,40.863265 20.223586,40.964560 19.785634,40.964560 z M 15.468952,40.182504 L 17.299490,35.543798 L 16.758753,35.543798 C 16.553184,35.543798 16.422364,35.482723 16.366293,35.360574 C 16.310222,35.238425 16.316869,35.089460 16.386235,34.913686 C 16.454424,34.740887 16.568913,34.590435 16.729699,34.462328 C 16.893465,34.334219 17.070685,34.270166 17.261357,34.270166 L 18.561804,34.270166 C 18.689912,34.270166 18.788386,34.299958 18.857231,34.359543 C 18.927250,34.416149 18.966695,34.493609 18.975565,34.591926 C 18.985612,34.687262 18.964769,34.800473 18.913041,34.931560 L 16.840901,40.182504 C 16.749198,40.414886 16.616093,40.593642 16.441585,40.718770 C 16.267077,40.843899 16.077039,40.906463 15.871470,40.906463 C 15.668880,40.906463 15.528809,40.842410 15.451256,40.714302 C 15.373701,40.586194 15.379600,40.408928 15.468952,40.182504 z M 39.210561,48.861085 C 39.490611,48.861085 39.752733,48.740424 39.996927,48.499105 C 40.242295,48.254805 40.449322,47.971775 40.618004,47.650016 C 40.789667,47.328255 40.935458,47.015434 41.055378,46.711550 C 41.179999,46.395747 41.282865,46.078456 41.363975,45.759677 C 41.448063,45.440895 41.462653,45.162335 41.407745,44.923995 C 41.355815,44.685654 41.188335,44.566484 40.905307,44.566484 C 40.622276,44.566484 40.359253,44.685654 40.116236,44.923995 C 39.876198,45.162335 39.670934,45.440895 39.500449,45.759677 C 39.332940,46.078456 39.186876,46.395747 39.062255,46.711550 C 38.850631,47.247816 38.721598,47.740883 38.675159,48.190752 C 38.629893,48.637640 38.808361,48.861085 39.210561,48.861085 z M 38.715011,50.116842 C 38.137036,50.116842 37.733328,49.947024 37.503884,49.607389 C 37.274443,49.267754 37.182468,48.840229 37.227959,48.324818 C 37.276431,47.809406 37.411181,47.271650 37.632209,46.711550 C 37.793277,46.303391 37.992528,45.904171 38.229962,45.513887 C 38.468571,45.120626 38.749050,44.757156 39.071399,44.423479 C 39.394924,44.086822 39.752483,43.818689 40.144075,43.619078 C 40.539824,43.416489 40.958163,43.315195 41.399093,43.315195 C 41.843003,43.315195 42.179905,43.416489 42.409801,43.619078 C 42.643854,43.818689 42.788888,44.085332 42.844904,44.419010 C 42.903901,44.752687 42.896926,45.117646 42.823979,45.513887 C 42.754013,45.910129 42.639670,46.309349 42.480953,46.711550 C 42.322236,47.113748 42.120907,47.514459 41.876968,47.913679 C 41.637183,48.309922 41.357605,48.674880 41.038237,49.008558 C 40.718865,49.342235 40.361307,49.610369 39.965558,49.812958 C 39.569813,50.015547 39.152962,50.116842 38.715011,50.116842 z M 34.398328,49.334788 L 36.228865,44.696080 L 35.688130,44.696080 C 35.482561,44.696080 35.351741,44.635006 35.295670,44.512856 C 35.239598,44.390707 35.246245,44.241744 35.315612,44.065968 C 35.383800,43.893170 35.498290,43.742718 35.659076,43.614611 C 35.822842,43.486502 36.000061,43.422448 36.190734,43.422448 L 37.491180,43.422448 C 37.619288,43.422448 37.717764,43.452240 37.786608,43.511825 C 37.856628,43.568431 37.896072,43.645892 37.904942,43.744208 C 37.914990,43.839545 37.894147,43.952755 37.842417,44.083843 L 35.770278,49.334788 C 35.678575,49.567169 35.545469,49.745924 35.370962,49.871054 C 35.196454,49.996182 35.006416,50.058745 34.800847,50.058745 C 34.598258,50.058745 34.458186,49.994692 34.380633,49.866584 C 34.303078,49.738476 34.308976,49.561210 34.398328,49.334788 z M 30.567732,48.861085 C 30.847781,48.861085 31.109903,48.740424 31.354097,48.499105 C 31.599467,48.254805 31.806492,47.971775 31.975175,47.650016 C 32.146837,47.328255 32.292628,47.015434 32.412548,46.711550 C 32.537170,46.395747 32.640037,46.078456 32.721145,45.759677 C 32.805233,45.440895 32.819824,45.162335 32.764914,44.923995 C 32.712985,44.685654 32.545507,44.566484 32.262477,44.566484 C 31.979448,44.566484 31.716424,44.685654 31.473406,44.923995 C 31.233369,45.162335 31.028106,45.440895 30.857619,45.759677 C 30.690111,46.078456 30.544046,46.395747 30.419424,46.711550 C 30.207801,47.247816 30.078769,47.740883 30.032329,48.190752 C 29.987064,48.637640 30.165531,48.861085 30.567732,48.861085 z M 30.072182,50.116842 C 29.494206,50.116842 29.090497,49.947024 28.861055,49.607389 C 28.631613,49.267754 28.539637,48.840229 28.585130,48.324818 C 28.633601,47.809406 28.768352,47.271650 28.989380,46.711550 C 29.150449,46.303391 29.349699,45.904171 29.587133,45.513887 C 29.825741,45.120626 30.106221,44.757156 30.428570,44.423479 C 30.752096,44.086822 31.109654,43.818689 31.501246,43.619078 C 31.896995,43.416489 32.315333,43.315195 32.756263,43.315195 C 33.200174,43.315195 33.537075,43.416489 33.766973,43.619078 C 34.001024,43.818689 34.146058,44.085332 34.202075,44.419010 C 34.261072,44.752687 34.254096,45.117646 34.181150,45.513887 C 34.111182,45.910129 33.996841,46.309349 33.838124,46.711550 C 33.679407,47.113748 33.478078,47.514459 33.234139,47.913679 C 32.994354,48.309922 32.714776,48.674880 32.395407,49.008558 C 32.076037,49.342235 31.718478,49.610369 31.322730,49.812958 C 30.926983,50.015547 30.510134,50.116842 30.072182,50.116842 z M 25.755500,49.334788 L 27.586036,44.696080 L 27.045301,44.696080 C 26.839731,44.696080 26.708913,44.635006 26.652840,44.512856 C 26.596769,44.390707 26.603417,44.241744 26.672782,44.065968 C 26.740971,43.893170 26.855460,43.742718 27.016246,43.614611 C 27.180013,43.486502 27.357231,43.422448 27.547905,43.422448 L 28.848350,43.422448 C 28.976459,43.422448 29.074936,43.452240 29.143779,43.511825 C 29.213797,43.568431 29.253242,43.645892 29.262112,43.744208 C 29.272159,43.839545 29.251317,43.952755 29.199587,44.083843 L 27.127448,49.334788 C 27.035744,49.567169 26.902639,49.745924 26.728132,49.871054 C 26.553624,49.996182 26.363587,50.058745 26.158018,50.058745 C 25.955428,50.058745 25.815356,49.994692 25.737802,49.866584 C 25.660249,49.738476 25.666147,49.561210 25.755500,49.334788 z M 21.924903,48.861085 C 22.204953,48.861085 22.467075,48.740424 22.711268,48.499105 C 22.956637,48.254805 23.163663,47.971775 23.332345,47.650016 C 23.504008,47.328255 23.649800,47.015434 23.769719,46.711550 C 23.894342,46.395747 23.997207,46.078456 24.078315,45.759677 C 24.162405,45.440895 24.176994,45.162335 24.122086,44.923995 C 24.070156,44.685654 23.902677,44.566484 23.619648,44.566484 C 23.336618,44.566484 23.073593,44.685654 22.830578,44.923995 C 22.590539,45.162335 22.385276,45.440895 22.214789,45.759677 C 22.047282,46.078456 21.901216,46.395747 21.776596,46.711550 C 21.564971,47.247816 21.435940,47.740883 21.389500,48.190752 C 21.344235,48.637640 21.522702,48.861085 21.924903,48.861085 z M 21.429352,50.116842 C 20.851377,50.116842 20.447668,49.947024 20.218225,49.607389 C 19.988783,49.267754 19.896809,48.840229 19.942302,48.324818 C 19.990772,47.809406 20.125522,47.271650 20.346551,46.711550 C 20.507618,46.303391 20.706870,45.904171 20.944304,45.513887 C 21.182913,45.120626 21.463392,44.757156 21.785741,44.423479 C 22.109265,44.086822 22.466825,43.818689 22.858417,43.619078 C 23.254164,43.416489 23.672504,43.315195 24.113434,43.315195 C 24.557343,43.315195 24.894247,43.416489 25.124143,43.619078 C 25.358194,43.818689 25.503229,44.085332 25.559246,44.419010 C 25.618243,44.752687 25.611267,45.117646 25.538320,45.513887 C 25.468354,45.910129 25.354011,46.309349 25.195294,46.711550 C 25.036577,47.113748 24.835248,47.514459 24.591309,47.913679 C 24.351524,48.309922 24.071946,48.674880 23.752578,49.008558 C 23.433208,49.342235 23.075648,49.610369 22.679901,49.812958 C 22.284153,50.015547 21.867304,50.116842 21.429352,50.116842 z M 16.669490,48.861085 C 16.949540,48.861085 17.211662,48.740424 17.455856,48.499105 C 17.701225,48.254805 17.908251,47.971775 18.076934,47.650016 C 18.248596,47.328255 18.394387,47.015434 18.514307,46.711550 C 18.638929,46.395747 18.741795,46.078456 18.822904,45.759677 C 18.906992,45.440895 18.921583,45.162335 18.866673,44.923995 C 18.814743,44.685654 18.647265,44.566484 18.364236,44.566484 C 18.081207,44.566484 17.818183,44.685654 17.575165,44.923995 C 17.335126,45.162335 17.129863,45.440895 16.959378,45.759677 C 16.791869,46.078456 16.645804,46.395747 16.521183,46.711550 C 16.309560,47.247816 16.180529,47.740883 16.134088,48.190752 C 16.088823,48.637640 16.267290,48.861085 16.669490,48.861085 z M 16.173941,50.116842 C 15.595965,50.116842 15.192256,49.947024 14.962813,49.607389 C 14.733371,49.267754 14.641396,48.840229 14.686889,48.324818 C 14.735360,47.809406 14.870109,47.271650 15.091138,46.711550 C 15.252206,46.303391 15.451458,45.904171 15.688891,45.513887 C 15.927500,45.120626 16.207979,44.757156 16.530329,44.423479 C 16.853853,44.086822 17.211412,43.818689 17.603005,43.619078 C 17.998753,43.416489 18.417092,43.315195 18.858022,43.315195 C 19.301932,43.315195 19.638834,43.416489 19.868730,43.619078 C 20.102782,43.818689 20.247817,44.085332 20.303834,44.419010 C 20.362830,44.752687 20.355855,45.117646 20.282907,45.513887 C 20.212941,45.910129 20.098598,46.309349 19.939882,46.711550 C 19.781165,47.113748 19.579836,47.514459 19.335897,47.913679 C 19.096111,48.309922 18.816534,48.674880 18.497165,49.008558 C 18.177796,49.342235 17.820236,49.610369 17.424488,49.812958 C 17.028741,50.015547 16.611891,50.116842 16.173941,50.116842 z M 11.857258,49.334788 L 13.687795,44.696080 L 13.147060,44.696080 C 12.941490,44.696080 12.810670,44.635006 12.754599,44.512856 C 12.698528,44.390707 12.705175,44.241744 12.774541,44.065968 C 12.842729,43.893170 12.957219,43.742718 13.118005,43.614611 C 13.281771,43.486502 13.458990,43.422448 13.649662,43.422448 L 14.950109,43.422448 C 15.078217,43.422448 15.176693,43.452240 15.245536,43.511825 C 15.315556,43.568431 15.355000,43.645892 15.363871,43.744208 C 15.373918,43.839545 15.353076,43.952755 15.301346,44.083843 L 13.229207,49.334788 C 13.137504,49.567169 13.004399,49.745924 12.829890,49.871054 C 12.655384,49.996182 12.465345,50.058745 12.259776,50.058745 C 12.057187,50.058745 11.917115,49.994692 11.839561,49.866584 C 11.762007,49.738476 11.767906,49.561210 11.857258,49.334788 z " id="path843" sodipodi:nodetypes="cccccccccccccccccccccccccccccccccccccccccccccccccccccccccccccccccccccccccccccccccccccccccccccccccccccccccccccccccccccccccccccccccccccccccccccccccccccccccccccccccccccccccccccccccccccccccccccccccccccccccccccccccccccccccccccccccccccccccccccccccccccccccccccccccccccccccccccccccccccccccccccccccccccccccccccccccccccccccccccccccccccccccccccccccccccccccccccccccccccccccccccccccccccccccccccccccccccccccccccccccccccccccccccccccccccccccccccccccccccccccccccccccccccccccccccccccccccccccccccccc" style="font-size:12.000000;fill:#333333;stroke-width:1.0000000pt;font-family:VAG Rounded Black SSi;"/>
</svg>
