<?xml version="1.0" encoding="UTF-8" standalone="no"?>
<!DOCTYPE svg PUBLIC "-//W3C//DTD SVG 20010904//EN"
"http://www.w3.org/TR/2001/REC-SVG-20010904/DTD/svg10.dtd">
<!-- Created with Inkscape (http://www.inkscape.org/) --><svg height="297mm" id="svg1" inkscape:version="0.40" sodipodi:docbase="/home/cgoerner/workspace/openclipart" sodipodi:docname="hat.svg" sodipodi:version="0.32" width="210mm" xmlns="http://www.w3.org/2000/svg" xmlns:cc="http://web.resource.org/cc/" xmlns:dc="http://purl.org/dc/elements/1.1/" xmlns:inkscape="http://www.inkscape.org/namespaces/inkscape" xmlns:rdf="http://www.w3.org/1999/02/22-rdf-syntax-ns#" xmlns:sodipodi="http://sodipodi.sourceforge.net/DTD/sodipodi-0.dtd" xmlns:xlink="http://www.w3.org/1999/xlink">
  <metadata>
    <rdf:RDF xmlns:cc="http://web.resource.org/cc/" xmlns:dc="http://purl.org/dc/elements/1.1/" xmlns:rdf="http://www.w3.org/1999/02/22-rdf-syntax-ns#">
      <cc:Work rdf:about="">
        <dc:title>Aussie Hat</dc:title>
        <dc:description></dc:description>
        <dc:subject>
          <rdf:Bag>
            <rdf:li></rdf:li>
            <rdf:li>people</rdf:li>
            <rdf:li>hat</rdf:li>
            <rdf:li>clothing</rdf:li>
            <rdf:li>geography</rdf:li>
            <rdf:li>aussie</rdf:li>
            <rdf:li>australia</rdf:li>
          </rdf:Bag>
        </dc:subject>
        <dc:publisher>
          <cc:Agent rdf:about="http://www.openclipart.org">
            <dc:title>Chris Goerner</dc:title>
          </cc:Agent>
        </dc:publisher>
        <dc:creator>
          <cc:Agent>
            <dc:title>Chris Goerner</dc:title>
          </cc:Agent>
        </dc:creator>
        <dc:rights>
          <cc:Agent>
            <dc:title>Chris Goerner</dc:title>
          </cc:Agent>
        </dc:rights>
        <dc:date></dc:date>
        <dc:format>image/svg+xml</dc:format>
        <dc:type rdf:resource="http://purl.org/dc/dcmitype/StillImage"/>
        <cc:license rdf:resource="http://web.resource.org/cc/PublicDomain"/>
        <dc:language>en</dc:language>
      </cc:Work>
      <cc:License rdf:about="http://web.resource.org/cc/PublicDomain">
        <cc:permits rdf:resource="http://web.resource.org/cc/Reproduction"/>
        <cc:permits rdf:resource="http://web.resource.org/cc/Distribution"/>
        <cc:permits rdf:resource="http://web.resource.org/cc/DerivativeWorks"/>
      </cc:License>
    </rdf:RDF>
  </metadata>
  <defs id="defs3">
    <linearGradient id="linearGradient2040">
      <stop id="stop2041" offset="0.0000000" style="stop-color:#966c3b;stop-opacity:1.0000000;"/>
      <stop id="stop2042" offset="1.0000000" style="stop-color:#6d4f2b;stop-opacity:1.0000000;"/>
    </linearGradient>
    <linearGradient id="linearGradient2036">
      <stop id="stop2037" offset="0.0000000" style="stop-color:#9d6c30;stop-opacity:1.0000000;"/>
      <stop id="stop2038" offset="1.0000000" style="stop-color:#b59a78;stop-opacity:1.0000000;"/>
    </linearGradient>
    <linearGradient gradientTransform="matrix(1.273270,0.000000,0.000000,0.785379,160.8325,-126.2230)" gradientUnits="userSpaceOnUse" id="linearGradient2039" inkscape:collect="always" x1="249.75447" x2="454.85905" xlink:href="#linearGradient2036" y1="584.63360" y2="584.63360"/>
    <radialGradient cx="462.47522" cy="574.32513" fx="462.47522" fy="574.32513" gradientTransform="matrix(1.214365,0.000000,0.000000,0.823476,160.8325,-126.2230)" gradientUnits="userSpaceOnUse" id="radialGradient2044" inkscape:collect="always" r="249.95807" xlink:href="#linearGradient2040"/>
    <radialGradient cx="462.47522" cy="574.32513" fx="462.47522" fy="574.32513" gradientTransform="matrix(1.214365,0.000000,0.000000,0.823476,160.8325,-126.2230)" gradientUnits="userSpaceOnUse" id="radialGradient2721" inkscape:collect="always" r="249.95807" xlink:href="#linearGradient2040"/>
    <linearGradient gradientTransform="matrix(1.273270,0.000000,0.000000,0.785379,160.8325,-126.2230)" gradientUnits="userSpaceOnUse" id="linearGradient2722" inkscape:collect="always" x1="249.75447" x2="454.85905" xlink:href="#linearGradient2036" y1="584.63360" y2="584.63360"/>
  </defs>
  <sodipodi:namedview bordercolor="#666666" borderopacity="1.0" id="base" inkscape:current-layer="svg1" inkscape:cx="487.61045" inkscape:cy="387.08811" inkscape:pageopacity="0.0" inkscape:pageshadow="2" inkscape:window-height="696" inkscape:window-width="1024" inkscape:window-x="0" inkscape:window-y="25" inkscape:zoom="0.65582532" pagecolor="#ffffff"/>
  <g id="layer1" inkscape:groupmode="layer" inkscape:label="Layer 1"/>
  <g id="g2702" transform="matrix(2.128909,0.000000,0.000000,2.128909,-942.2383,-234.5749)">
    <path d="M 569.10224,428.03225 C 548.16924,424.53367 526.96646,416.45708 511.14396,405.95471 C 505.16379,401.98530 492.60224,390.75784 492.60224,389.38221 C 492.60224,388.88093 495.19914,391.06770 498.37314,394.24170 C 510.92032,406.78888 532.01584,417.63480 557.10224,424.43630 C 565.57181,426.73260 581.61929,428.42833 593.60224,428.29324 L 606.10224,428.15232 L 590.60224,427.41830 C 567.27228,426.31347 552.22672,423.14514 533.85288,415.46788 C 516.72364,408.31066 505.38268,400.90520 495.77948,390.60659 C 493.40196,388.05691 491.80084,386.64580 492.22144,387.47080 C 492.87977,388.76212 492.75078,388.77987 491.29420,387.59836 C 489.34409,386.01651 488.98348,383.98102 490.85224,385.10374 C 491.70160,385.61402 491.66235,385.31242 490.72980,384.16276 C 489.17456,382.24545 488.11527,381.87385 489.19773,383.62531 C 489.62058,384.30948 489.47396,384.50955 488.83784,384.11641 C 486.68611,382.78656 480.56690,370.49438 478.98739,364.32895 C 475.53201,350.84130 478.92240,339.13369 489.00975,329.71990 C 502.20955,317.40149 520.98084,306.89872 536.14669,303.34619 C 541.07224,302.19240 545.61847,301.10531 546.24942,300.93043 C 546.88037,300.75556 548.31635,296.86810 549.44049,292.29164 C 550.56464,287.71518 552.19938,281.49580 553.07326,278.47080 C 553.94715,275.44580 554.94197,269.00715 555.28398,264.16269 C 556.09799,252.63239 557.62283,250.46792 564.92482,250.47781 C 567.77240,250.48166 573.70224,251.34022 578.10224,252.38572 C 599.69062,257.51541 619.21908,259.28776 629.81008,257.07858 C 640.38888,254.87195 646.42418,255.05542 658.10457,257.93873 C 669.77291,260.81907 671.58672,262.34656 671.63294,269.33158 C 671.67914,276.31346 676.11358,308.38214 677.18034,309.44890 C 677.69232,309.96088 684.63420,311.06542 692.60673,311.90343 C 708.83334,313.60904 715.45846,315.26202 723.83020,319.69376 C 730.75307,323.35850 735.85630,328.14557 738.84369,333.77709 C 740.58162,337.05328 741.06645,339.62767 741.05969,345.54384 C 741.05217,352.12191 740.60543,354.02202 737.65941,360.00624 C 733.57261,368.30771 721.84589,380.50234 710.60224,388.14301 C 701.27790,394.47941 680.34406,406.24651 676.82425,407.12993 C 675.38207,407.49189 670.57964,409.48070 666.15218,411.54950 C 655.36606,416.58947 636.46688,423.06607 623.60224,426.13102 C 614.93715,428.19545 609.95668,428.69698 595.10224,429.00096 C 583.08221,429.24693 574.44447,428.92511 569.10224,428.03225 z " id="path1397" style="fill:url(#radialGradient2721);fill-opacity:1.0000000"/>
    <path d="M 621.40990,425.51364 C 629.33890,423.74749 636.07459,421.69818 634.48962,421.53419 C 634.15268,421.49932 630.17640,422.39183 625.65344,423.51753 C 621.13049,424.64323 614.88117,425.93835 611.76606,426.39558 C 607.94047,426.95710 607.16049,427.26649 609.36283,427.34886 C 611.15615,427.41593 616.57733,426.59008 621.40990,425.51364 z " id="path1413"/>
    <path d="M 649.15643,417.33771 C 653.85986,415.63581 657.55057,414.08580 657.35801,413.89324 C 657.16545,413.70068 652.07913,415.34244 646.05507,417.54160 C 640.03101,419.74076 636.34030,421.29077 637.85349,420.98607 C 639.36668,420.68137 644.45300,419.03961 649.15643,417.33771 z " id="path1412"/>
    <path d="M 668.48295,409.47080 C 673.36884,407.27080 677.68104,405.47080 678.06560,405.47080 C 679.41607,405.47080 705.18477,390.14802 712.70485,384.87334 C 721.15814,378.94410 731.16356,368.78186 735.00975,362.21884 C 743.73943,347.32277 740.84940,332.47575 727.48268,323.54980 C 719.67248,318.33435 710.78023,315.77569 697.93510,315.04778 C 692.34317,314.73089 687.16817,314.25116 686.43510,313.98172 C 684.40215,313.23448 681.88155,315.15011 683.18398,316.45254 C 684.43724,317.70580 683.79179,323.70598 682.49024,322.90158 C 682.00184,322.59973 681.60224,321.48037 681.60224,320.41410 C 681.60224,319.34784 680.03074,316.80935 678.11001,314.77302 C 675.98678,312.52200 674.40389,309.67901 674.07214,307.52070 C 673.77204,305.56826 673.09501,301.49580 672.56764,298.47080 C 670.88731,288.83249 669.60272,277.48839 669.58693,272.14844 C 669.56794,265.72766 669.14228,265.05706 663.58217,262.68817 C 658.82663,260.66206 643.49157,259.29329 638.10224,260.41388 C 636.23316,260.80252 634.72527,260.57226 634.10224,259.80309 C 632.66075,258.02346 617.39570,261.37943 606.60224,265.84887 C 597.62006,269.56828 586.73291,271.89082 585.18940,270.41684 C 584.35211,269.61727 588.34331,267.47080 590.66734,267.47080 C 592.76140,267.47080 591.40397,265.59733 588.60224,264.62064 C 586.95224,264.04545 585.60224,263.78799 585.60224,264.04850 C 585.60224,264.30901 584.36474,263.89908 582.85224,263.13755 C 581.33974,262.37601 578.44042,261.49692 576.40931,261.18400 C 572.60427,260.59779 567.10724,257.30074 564.79987,254.22080 C 561.10250,249.28547 557.72370,254.59127 556.53014,267.20693 C 555.71383,275.83521 554.72069,280.36746 549.97081,297.14097 C 548.55636,302.13591 548.36431,302.33236 544.30449,302.93734 C 529.61141,305.12682 520.09927,309.00278 504.91536,318.98743 C 491.82601,327.59474 484.98034,333.97750 481.81448,340.52617 C 478.95185,346.44763 478.04434,355.46644 479.57111,362.82084 C 481.17959,370.56884 481.86676,369.54584 480.38953,361.60245 C 479.04270,354.36024 480.44547,345.12290 483.69469,339.83771 C 488.60381,331.85253 506.77736,317.67573 520.10224,311.43695 C 528.59851,307.45895 540.85983,303.97193 543.19729,304.86890 C 544.74138,305.46142 545.16064,309.47080 543.67851,309.47080 C 543.17046,309.47080 542.38025,311.83330 541.92248,314.72080 C 541.19937,319.28205 540.76299,320.01622 538.59621,320.31701 C 537.22453,320.50742 535.73649,321.30544 535.28946,322.09040 C 534.61239,323.27928 533.98031,323.16413 531.50397,321.40082 C 529.61030,320.05241 527.90891,319.55052 526.81675,320.01815 C 525.44940,320.60360 525.77870,320.96079 528.44310,321.78224 C 531.42512,322.70161 531.72318,323.11612 531.21810,325.64152 C 530.71931,328.13546 530.94459,328.47080 533.11877,328.47080 C 534.50229,328.47080 536.13372,327.59264 536.83431,326.47080 C 537.70805,325.07173 539.16634,324.47080 541.68780,324.47080 C 545.44840,324.47080 547.08820,323.17042 549.56081,318.22741 C 550.31559,316.71854 551.98368,314.79567 553.26768,313.95435 C 554.84086,312.92357 555.60224,311.46219 555.60224,309.47343 C 555.60224,307.21202 556.29675,306.16301 558.57340,304.98572 C 561.21296,303.62075 561.43545,303.16230 560.56694,300.87796 C 559.42138,297.86491 560.27966,273.40200 561.57661,272.09988 C 562.06709,271.60745 561.56389,269.54027 560.41873,267.34322 C 558.47837,263.62057 558.55036,259.70267 560.53657,260.93021 C 561.06279,261.25543 561.62240,259.61422 561.79363,257.24359 L 562.10224,252.97080 L 564.98229,257.47080 C 568.99808,263.74534 574.43304,269.08133 578.83533,271.07159 C 582.06731,272.53275 584.08085,272.63497 593.83533,271.83308 C 603.58149,271.03188 606.04706,271.15645 612.10224,272.75603 C 616.96044,274.03941 619.91251,275.47251 621.75042,277.43982 C 623.65441,279.47786 624.70355,279.96949 625.48375,279.18929 C 626.92230,277.75074 627.81539,278.75177 626.99674,280.88514 C 626.63782,281.82047 625.74164,282.35453 625.00522,282.07195 C 624.26881,281.78936 623.35735,282.05802 622.97976,282.66898 C 622.58661,283.30511 622.74497,283.50062 623.35032,283.12649 C 623.95160,282.75488 624.89893,283.87405 625.54731,285.72199 C 626.64113,288.83949 626.50935,289.13937 622.28675,293.14160 C 618.10468,297.10542 617.33405,300.27842 620.88430,298.91606 C 623.60717,297.87120 624.95013,299.42891 623.09435,301.47952 C 621.76238,302.95132 621.70521,303.44680 622.78848,304.13024 C 623.52124,304.59255 625.24161,306.65101 626.61151,308.70461 C 628.37409,311.34686 629.61404,312.27722 630.85293,311.88700 C 631.81580,311.58373 633.84926,312.22257 635.37172,313.30666 C 638.85229,315.78504 646.10224,316.61214 646.10224,314.53083 C 646.10224,313.74274 647.50815,312.73363 649.22648,312.28836 C 653.76252,311.11296 655.04678,309.18475 653.75729,305.48572 C 652.91491,303.06927 653.04496,301.85633 654.40218,299.47115 C 656.62442,295.56577 658.39799,295.66670 658.78888,299.72080 C 659.02905,302.21175 659.62774,303.04543 661.35224,303.29035 C 663.90513,303.65292 664.05081,303.05601 662.49713,298.59913 C 661.36579,295.35377 662.48662,292.47080 664.87967,292.47080 C 665.44757,292.47080 665.13481,293.32982 664.18466,294.37973 C 662.54068,296.19631 662.56609,296.41401 664.71000,298.87973 C 665.94910,300.30482 667.84426,301.47080 668.92146,301.47080 C 670.70646,301.47080 670.83237,301.99627 670.34232,307.40058 C 669.93665,311.87441 670.10874,313.21367 671.04322,312.85507 C 671.72445,312.59366 672.85901,313.07526 673.56447,313.92529 C 674.26993,314.77532 675.45120,315.47080 676.18950,315.47080 C 677.82827,315.47080 679.50550,318.48536 678.86449,320.27866 C 678.60737,320.99799 679.16226,322.43213 680.09758,323.46565 C 682.28585,325.88366 681.11168,328.22487 678.75296,326.14670 C 676.89969,324.51386 673.85904,325.25152 671.69508,327.85894 C 670.95933,328.74546 669.79255,329.47080 669.10224,329.47080 C 665.14952,329.47080 664.85360,335.72216 668.62768,339.49624 C 671.04296,341.91152 672.93212,341.99806 675.13582,339.79437 C 677.47609,337.45410 681.48797,337.13472 681.39300,339.29625 C 681.35253,340.21725 681.43635,341.42080 681.57925,341.97080 C 681.72216,342.52080 681.78579,344.18724 681.72066,345.67401 C 681.62349,347.89210 680.75353,348.75263 676.87296,350.46919 L 672.14369,352.56118 L 675.40852,355.11629 C 677.62769,356.85306 678.49479,358.23397 678.11585,359.42791 C 677.33193,361.89784 685.44996,370.30953 686.71849,368.34173 C 687.46496,367.18376 687.74190,367.18761 688.50132,368.36652 C 689.04261,369.20681 690.10657,369.49125 691.17493,369.08128 C 692.15093,368.70675 694.93399,368.69792 697.35951,369.06165 C 700.95750,369.60120 701.68292,370.05426 701.29908,371.52207 C 700.96947,372.78251 701.26103,373.15523 702.27290,372.76694 C 703.06725,372.46212 703.48044,371.59578 703.19110,370.84176 C 702.90175,370.08773 703.10089,369.47080 703.63362,369.47080 C 704.16636,369.47080 704.60224,369.86832 704.60224,370.35417 C 704.60224,371.84804 708.41406,372.32888 710.15647,371.05480 C 711.66985,369.94819 711.63331,369.57092 709.70669,366.41057 C 708.55335,364.51870 707.60803,362.66087 707.60598,362.28207 C 707.59875,360.94966 716.87432,360.15962 718.75266,361.33266 C 721.30075,362.92397 723.57041,362.79364 721.60224,361.16903 C 718.96556,358.99259 717.33106,355.34198 718.47920,354.19384 C 719.07933,353.59371 719.26914,351.31974 718.92729,348.82567 C 718.59234,346.38190 718.78530,343.94858 719.37065,343.23474 C 719.94069,342.53957 720.56350,340.90851 720.75467,339.61016 C 721.03980,337.67362 720.47564,337.04483 717.61442,336.11016 C 712.37064,334.39718 712.49954,331.89379 717.86941,331.15777 C 720.26689,330.82916 723.21256,330.81764 724.41535,331.13218 C 728.06120,332.08559 727.02709,329.00216 722.35224,324.98054 C 720.01474,322.96968 719.00224,321.78194 720.10224,322.34113 C 722.87450,323.75041 729.60224,329.94406 729.60224,331.08695 C 729.60224,331.60360 730.54098,332.83009 731.68833,333.81249 C 733.61871,335.46533 733.73071,336.31279 733.18878,345.16597 C 732.46215,357.03644 731.66561,358.55155 719.14819,371.87297 C 716.09792,375.11917 713.60224,377.86927 713.60224,377.98430 C 713.60224,378.09934 714.72724,377.97840 716.10224,377.71555 C 717.47724,377.45270 718.60224,377.48445 718.60224,377.78610 C 718.60224,378.79698 702.21596,390.07050 691.10224,396.70571 C 685.05224,400.31773 675.37724,405.38739 669.60224,407.97161 C 663.82724,410.55584 658.91474,412.85034 658.68557,413.07050 C 657.55529,414.15638 660.38988,413.11491 668.48295,409.47080 z " id="path1411" style="fill:url(#linearGradient2722);fill-opacity:1.0000000"/>
    <path d="M 688.10224,364.47080 C 688.90192,363.17689 690.60224,363.17689 690.60224,364.47080 C 690.60224,365.02080 689.90068,365.47080 689.04322,365.47080 C 688.18576,365.47080 687.76232,365.02080 688.10224,364.47080 z " id="path1410"/>
    <path d="M 701.60224,363.13747 C 701.60224,361.67080 702.04942,360.47080 702.59597,360.47080 C 703.14251,360.47080 703.45411,361.35920 703.28840,362.44503 C 702.81045,365.57687 701.60224,366.07303 701.60224,363.13747 z " id="path1409"/>
    <path d="M 668.66721,337.82626 C 666.10437,334.56814 666.27602,330.97080 668.99432,330.97080 C 671.78466,330.97080 675.33246,336.08961 674.00295,338.19732 C 672.33179,340.84666 670.96848,340.75185 668.66721,337.82626 z " id="path1408"/>
    <path d="M 671.37017,335.47080 C 670.26446,333.70028 668.60224,332.75037 668.60224,333.88901 C 668.60224,335.48999 670.04865,337.47080 671.21770,337.47080 C 672.36886,337.47080 672.39609,337.11357 671.37017,335.47080 z " id="path1407"/>
    <path d="M 674.86050,333.38890 C 674.05383,331.22265 673.96039,329.71265 674.59383,329.07921 C 676.11869,327.55435 676.76313,328.93792 676.41859,332.99684 L 676.10224,336.72352 L 674.86050,333.38890 z " id="path1406"/>
    <path d="M 657.14495,270.53990 C 656.82851,270.02790 657.02696,269.32634 657.58593,268.98088 C 658.14490,268.63542 658.60224,269.05432 658.60224,269.91178 C 658.60224,271.66831 658.00218,271.92694 657.14495,270.53990 z " id="path1405"/>
    <path d="M 627.00102,262.94675 C 628.59535,262.11530 630.15732,261.69254 630.47206,262.00729 C 631.30268,262.83790 628.43830,264.43864 626.10224,264.44933 C 624.50394,264.45664 624.68446,264.15485 627.00102,262.94675 z " id="path1404"/>
    <path d="M 487.10224,378.47080 C 486.24899,376.82080 485.32588,375.47080 485.05088,375.47080 C 484.77588,375.47080 485.24899,376.82080 486.10224,378.47080 C 486.95549,380.12080 487.87860,381.47080 488.15360,381.47080 C 488.42860,381.47080 487.95549,380.12080 487.10224,378.47080 z " id="path1403"/>
    <path d="M 483.41836,371.96657 C 482.79081,370.58925 482.08900,369.65071 481.85878,369.88093 C 481.39173,370.34798 483.41925,374.47080 484.11599,374.47080 C 484.35984,374.47080 484.04591,373.34390 483.41836,371.96657 z " id="path1402"/>
    <path d="M 698.60224,371.41178 C 698.60224,370.82932 698.15224,370.63088 697.60224,370.97080 C 696.32086,371.76274 696.32086,372.47080 697.60224,372.47080 C 698.15224,372.47080 698.60224,371.99424 698.60224,371.41178 z " id="path1401"/>
    <path d="M 641.45900,356.58049 C 642.28315,356.05828 642.42577,355.47977 641.82231,355.10681 C 641.27591,354.76912 640.27277,355.16287 639.59310,355.98181 C 638.24372,357.60771 639.30197,357.94725 641.45900,356.58049 z " id="path1400"/>
    <path d="M 654.04945,347.38539 C 653.72748,346.86442 653.03780,346.70161 652.51683,347.02359 C 651.99586,347.34556 651.83305,348.03524 652.15503,348.55621 C 652.47700,349.07718 653.16668,349.23999 653.68765,348.91801 C 654.20862,348.59604 654.37143,347.90636 654.04945,347.38539 z " id="path1399"/>
    <path d="M 661.60224,346.09324 C 661.60224,345.33559 660.92724,344.15549 660.10224,343.47080 C 658.51203,342.15105 658.15051,343.13003 659.20923,345.88901 C 659.95594,347.83492 661.60224,347.97543 661.60224,346.09324 z " id="path1398"/>
    <path d="M 573.15813,426.29669 C 569.30929,425.73130 565.86721,424.79458 565.50905,424.21508 C 565.15090,423.63557 564.03867,423.47579 563.03743,423.86001 C 562.03618,424.24422 561.55905,424.21651 561.97712,423.79843 C 562.39520,423.38035 558.80870,421.99541 554.00712,420.72077 C 529.90749,414.32325 507.79967,401.49270 496.28744,387.22243 C 483.00017,370.75186 478.70430,355.41706 483.66402,342.16104 C 485.61588,336.94421 492.34598,327.80949 493.43518,328.89869 C 493.73298,329.19649 494.58701,328.56871 495.33303,327.50361 C 498.44880,323.05524 523.11131,307.52026 527.59357,307.18262 C 528.72792,307.09717 529.65602,306.62488 529.65602,306.13308 C 529.65602,305.64128 530.30195,305.48676 531.09141,305.78970 C 531.88088,306.09265 532.66838,305.93958 532.84141,305.44955 C 533.01445,304.95952 534.73102,304.28501 536.65602,303.95065 C 538.58102,303.61628 542.12823,302.90221 544.53871,302.36382 C 550.96193,300.92916 550.78456,302.06892 544.29082,303.95671 C 541.22173,304.84891 537.27879,306.29321 535.52874,307.16625 C 532.47716,308.68858 532.42484,308.81440 534.25142,310.23777 C 535.73738,311.39571 535.78955,311.59634 534.48878,311.15054 C 533.53042,310.82210 532.58710,311.19008 532.27016,312.01601 C 531.96691,312.80628 531.00311,313.45287 530.12839,313.45287 C 529.25367,313.45287 528.81292,313.89772 529.14894,314.44142 C 529.48497,314.98512 529.14465,315.19387 528.39267,314.90531 C 527.64070,314.61675 525.94650,314.77979 524.62779,315.26761 L 522.23012,316.15457 L 524.44307,317.33890 C 527.43441,318.93982 527.23544,320.45287 524.03358,320.45287 C 521.71365,320.45287 521.56855,320.64254 522.77573,322.09712 C 523.98529,323.55454 523.89474,323.66341 521.97883,323.05533 C 520.33237,322.53276 519.66291,322.85581 519.16928,324.41108 C 518.50777,326.49532 516.65602,327.26290 516.65602,325.45287 C 516.65602,324.90287 517.05354,324.45287 517.53939,324.45287 C 518.02524,324.45287 518.65811,323.55287 518.94577,322.45287 C 519.54986,320.14284 517.87854,319.70943 517.01765,321.95287 C 516.70106,322.77787 516.01363,323.45287 515.49001,323.45287 C 514.96640,323.45287 514.83773,322.96787 515.20409,322.37509 C 515.64887,321.65542 514.61173,321.41992 512.08270,321.66631 C 508.04905,322.05930 506.25702,323.92188 509.66554,324.17863 C 510.78408,324.26289 511.43796,323.90906 511.11862,323.39235 C 510.79927,322.87564 510.75284,322.45287 511.01544,322.45287 C 511.27805,322.45287 512.47490,324.04177 513.67511,325.98377 C 515.13256,328.34196 515.65151,330.33471 515.23762,331.98377 C 514.70572,334.10305 514.96301,334.45287 517.05364,334.45287 C 518.39328,334.45287 519.72574,335.01537 520.01465,335.70287 C 520.38947,336.59482 520.86061,336.44557 521.65944,335.18184 C 522.27517,334.20777 523.16586,333.64993 523.63876,333.94220 C 525.62733,335.17121 531.07090,335.11891 533.51916,333.84728 C 535.12405,333.01369 536.28729,332.86663 536.49143,333.47151 C 536.67591,334.01811 537.27644,334.18747 537.82594,333.84786 C 538.43585,333.47091 538.75437,334.73445 538.64363,337.09163 C 538.38364,342.62609 538.44451,342.83968 540.67965,344.23555 C 542.45262,345.34280 542.81637,345.21776 543.61626,343.22610 C 544.11840,341.97582 544.55777,341.51537 544.59263,342.20287 C 544.62750,342.89037 545.41703,343.45287 546.34715,343.45287 C 547.82815,343.45287 547.79709,343.64610 546.09715,345.00804 C 544.23313,346.50143 544.24539,346.51989 546.40602,345.47285 C 548.03281,344.68451 548.65602,344.68558 548.65602,345.47670 C 548.65602,346.07851 549.13295,346.27615 549.71586,345.91589 C 550.39231,345.49782 550.16621,344.81520 549.09086,344.02888 C 548.16420,343.35129 547.40602,341.62844 547.40602,340.20032 L 547.40602,337.60375 L 544.79124,340.02831 C 541.96504,342.64891 540.13263,343.20967 540.95310,341.20287 C 542.90360,336.43208 542.96086,336.14644 541.82596,336.84784 C 540.20678,337.84855 540.32550,334.97207 541.95934,333.61610 C 542.67616,333.02119 543.21599,330.74833 543.15896,328.56531 C 543.06983,325.15380 543.28967,324.72162 544.72374,325.48911 C 545.82016,326.07590 546.27832,327.33705 546.06003,329.16746 C 545.87733,330.69944 545.96488,331.19031 546.25459,330.25830 C 546.54429,329.32628 547.37170,328.79027 548.09328,329.06717 C 548.87983,329.36900 549.40056,328.84620 549.39355,327.76174 C 549.36767,323.75667 549.69909,322.36146 550.55124,322.88811 C 551.41603,323.42258 552.66015,321.42389 553.23776,318.57217 C 553.69786,316.30059 555.65602,314.77965 555.65602,316.69385 C 555.65602,317.59639 556.08250,318.59841 556.60375,318.92056 C 557.12815,319.24466 557.36770,318.55205 557.14005,317.36994 C 556.79263,315.56591 557.11186,315.30686 559.19232,315.70456 C 561.24798,316.09753 561.65602,315.78444 561.65602,313.81420 C 561.65602,312.51547 561.09352,311.43856 560.40602,311.42107 C 559.69114,311.40288 559.97091,310.77251 561.05952,309.94858 C 562.81537,308.61965 562.83029,308.45697 561.25194,307.85131 C 559.75568,307.27714 559.83057,307.04625 561.84845,306.01219 C 563.45883,305.18695 564.37799,305.15042 564.89071,305.89127 C 565.29479,306.47515 565.63229,305.71537 565.64071,304.20287 C 565.64913,302.69037 566.10602,301.45287 566.65602,301.45287 C 567.20602,301.45287 567.65602,300.07631 567.65602,298.39385 C 567.65602,296.60915 567.23944,295.59230 566.65602,295.95287 C 566.08662,296.30478 565.65602,295.44358 565.65602,293.95287 C 565.65602,292.46216 565.22542,291.60096 564.65602,291.95287 C 563.70735,292.53918 563.11519,290.10457 563.68312,287.95287 C 564.60088,284.47578 564.42988,280.45107 563.36381,280.43756 C 562.49428,280.42653 562.52088,280.19082 563.45881,279.59592 C 564.17534,279.14144 564.68455,278.36083 564.59039,277.86123 C 564.05070,274.99787 564.86319,271.58735 566.20796,271.07131 C 567.16112,270.70555 567.50512,270.88802 567.09955,271.54424 C 566.73636,272.13190 567.39552,273.28253 568.56434,274.10121 C 569.73317,274.91989 570.42826,276.01238 570.10899,276.52896 C 569.42244,277.63982 572.47225,280.96998 573.36163,280.08059 C 573.69733,279.74489 574.57591,279.97142 575.31401,280.58399 C 576.31280,281.41291 577.08874,281.34676 578.34798,280.32531 C 579.32284,279.53455 579.73874,279.45501 579.32927,280.13765 C 578.52899,281.47183 585.65739,281.19240 587.89099,279.80203 C 588.58676,279.36893 590.14076,279.14176 591.34432,279.29720 C 592.54789,279.45265 594.60881,278.87469 595.92415,278.01284 C 597.23949,277.15100 598.61725,276.74743 598.98585,277.11603 C 599.35444,277.48462 599.65602,277.17120 599.65602,276.41954 C 599.65602,275.35657 599.92269,275.31954 600.85602,276.25287 C 601.51602,276.91287 602.79102,277.45287 603.68935,277.45287 C 605.34089,277.45287 605.61006,278.32700 605.76721,284.20068 C 605.81500,285.98697 606.22844,287.21713 606.68596,286.93437 C 607.14349,286.65160 607.80244,286.88077 608.15030,287.44362 C 608.49817,288.00648 608.08185,288.73597 607.22515,289.06472 C 606.36844,289.39347 605.93498,290.09523 606.26190,290.62419 C 606.58882,291.15315 606.02373,292.21669 605.00616,292.98760 C 603.25517,294.31415 603.25204,294.39097 604.94783,294.42107 C 605.93333,294.43856 607.73333,295.41905 608.94783,296.59994 C 610.16234,297.78082 610.64468,298.46089 610.01971,298.11119 C 608.57055,297.30031 607.47543,301.22322 608.90441,302.10638 C 609.52804,302.49181 609.67105,302.28621 609.25151,301.60738 C 608.06943,299.69473 610.21614,300.30933 612.13900,302.43406 C 613.87452,304.35179 613.85546,304.44585 611.54398,305.37067 C 609.67633,306.11792 609.55548,306.33991 610.98935,306.38948 C 612.00901,306.42474 612.62627,307.00765 612.38014,307.70287 C 612.13674,308.39037 610.79403,308.87428 609.39635,308.77824 C 606.32171,308.56695 606.38148,310.00134 609.60091,313.68706 C 611.43097,315.78217 612.30086,316.16259 613.32261,315.31461 C 614.36720,314.44768 614.68167,314.72186 614.77444,316.58043 C 614.83957,317.88527 614.81750,319.35659 614.72539,319.85002 C 614.63328,320.34345 615.68916,320.00595 617.07179,319.10002 C 620.20399,317.04772 621.28840,316.98597 619.65602,318.95287 C 618.65278,320.16170 618.67754,320.46819 619.78358,320.53182 C 620.64547,320.58140 620.73051,320.78523 620.01218,321.07976 C 618.35762,321.75817 619.62042,325.68051 621.28744,325.04081 C 622.04016,324.75197 622.65602,324.95152 622.65602,325.48425 C 622.65602,326.01699 622.27898,326.45287 621.81815,326.45287 C 621.35733,326.45287 620.90173,328.52991 620.80570,331.06851 C 620.70968,333.60711 620.41110,336.04014 620.14219,336.47525 C 619.87328,336.91036 620.52560,337.03823 621.59179,336.75941 C 623.17350,336.34579 623.36486,335.81726 622.63138,333.88807 C 621.61279,331.20896 623.13467,329.53152 624.94315,331.34000 C 626.35734,332.75419 629.65602,332.79188 629.65602,331.39385 C 629.65602,330.81139 630.12787,330.62646 630.70458,330.98288 C 631.42237,331.42650 631.38662,332.07255 630.59127,333.03089 C 629.95225,333.80087 629.07100,334.20934 628.63296,333.93862 C 628.19491,333.66789 627.10941,333.72539 626.22074,334.06641 C 624.96968,334.54649 624.86409,334.99865 625.75294,336.06965 C 626.38432,336.83042 627.40831,337.44598 628.02846,337.43756 C 628.64862,337.42914 628.49405,337.00360 627.68498,336.49193 C 625.45681,335.08279 626.88380,334.41810 630.20629,335.31750 C 632.43278,335.92022 633.08299,336.62595 632.85817,338.19584 C 632.43134,341.17633 634.32545,341.90612 635.04518,339.03849 C 635.49728,337.23716 636.14796,336.76875 637.65185,337.16203 C 638.75414,337.45029 639.65602,338.10338 639.65602,338.61334 C 639.65602,339.12330 640.21852,339.46750 640.90602,339.37822 C 643.81438,339.00056 644.38621,339.63285 644.27403,343.10228 C 644.16891,346.35316 643.76389,346.88745 640.56524,347.99481 C 637.05549,349.20988 636.98477,349.18393 637.43181,346.84540 C 637.76163,345.12008 637.43836,344.45287 636.27260,344.45287 C 635.38348,344.45287 634.65602,343.97631 634.65602,343.39385 C 634.65602,342.81139 634.20602,342.61295 633.65602,342.95287 C 633.10602,343.29279 632.65602,344.44043 632.65602,345.50319 C 632.65602,347.72168 626.85143,353.69167 625.50405,352.85895 C 625.01080,352.55410 623.22906,352.60737 621.54465,352.97733 L 618.48207,353.64999 L 621.18335,355.05143 C 622.66906,355.82222 624.47605,356.45287 625.19890,356.45287 C 625.92174,356.45287 627.23807,357.17777 628.12406,358.06377 C 629.60526,359.54496 629.59088,359.78395 627.94549,361.03196 C 626.28426,362.29200 626.33518,362.39457 628.65602,362.46334 C 630.50209,362.51803 629.58660,363.21264 625.15602,365.11886 C 619.21227,367.67611 618.91228,367.70013 593.15602,367.68102 C 563.28167,367.65886 564.30690,367.71235 559.53528,365.92714 C 557.54387,365.18209 554.84387,364.77558 553.53528,365.02378 C 552.22669,365.27197 551.75559,365.19520 552.48840,364.85316 C 554.45663,363.93450 547.92876,360.23153 545.62823,360.96169 C 544.38734,361.35553 543.41678,360.87437 542.68174,359.50093 C 542.07889,358.37450 541.03899,357.48840 540.37084,357.53182 C 539.61288,357.58108 539.55963,357.77829 540.22925,358.05623 C 540.81952,358.30123 541.15773,359.95320 540.98083,361.72728 C 540.80393,363.50135 540.92097,364.39037 541.24094,363.70287 C 541.56090,363.01537 542.48674,362.45287 543.29837,362.45287 C 544.14994,362.45287 544.50627,362.98153 544.14088,363.70287 C 543.79263,364.39037 544.10358,364.26149 544.83186,363.41647 C 546.45495,361.53323 550.02967,362.03677 549.26083,364.04033 C 548.96271,364.81723 549.10588,365.45287 549.57900,365.45287 C 550.48438,365.45287 551.71439,369.24635 551.36233,370.95287 C 551.24886,371.50287 550.70602,371.80287 550.15602,371.61954 C 549.60602,371.43620 549.50654,371.63673 549.93496,372.06515 C 551.08243,373.21261 553.65602,373.41957 553.65602,372.36439 C 553.65602,370.39578 555.47467,371.59418 556.06666,373.95287 C 556.48533,375.62096 557.38892,376.45287 558.78206,376.45287 C 560.27514,376.45287 560.69707,376.00222 560.26301,374.87108 C 559.92916,374.00110 559.65602,373.04600 559.65602,372.74864 C 559.65602,372.45128 558.98102,372.76818 558.15602,373.45287 C 556.93242,374.46837 556.65602,374.41217 556.65602,373.14789 C 556.65602,372.29547 555.47033,370.66537 554.02116,369.52545 C 551.14497,367.26304 551.66339,367.00231 558.15602,367.44592 C 562.24017,367.72497 562.98365,368.34946 561.45458,370.21654 C 560.44079,371.45444 560.76593,371.40521 562.93723,369.99206 C 564.46689,368.99650 565.92468,368.38819 566.17674,368.64026 C 566.80475,369.26826 564.33841,374.43537 563.40602,374.44507 C 562.99352,374.44936 562.65602,374.90287 562.65602,375.45287 C 562.65602,376.00287 563.28288,376.45287 564.04903,376.45287 C 565.55493,376.45287 566.97505,373.77808 566.16501,372.46741 C 565.89138,372.02468 566.25827,371.43574 566.98031,371.15867 C 568.68953,370.50278 568.62239,374.65451 566.90602,375.75256 C 565.15968,376.86979 565.33762,378.78903 567.12399,378.10353 C 567.93138,377.79371 568.85794,377.97056 569.18301,378.49654 C 570.46979,380.57859 571.86327,379.31832 571.44271,376.45287 C 571.20054,374.80287 571.40103,373.45287 571.88823,373.45287 C 572.37543,373.45287 572.49594,373.00287 572.15602,372.45287 C 571.81610,371.90287 572.00022,371.45287 572.56517,371.45287 C 573.18739,371.45287 573.40797,373.27512 573.12467,376.07492 C 572.71763,380.09758 572.85144,380.53558 574.15650,379.45247 C 575.37700,378.43954 575.65602,378.48996 575.65602,379.72344 C 575.65602,380.55694 576.36782,381.51204 577.23781,381.84588 C 579.70464,382.79249 580.30117,382.50619 578.64382,381.17107 C 577.81212,380.50106 576.53914,378.60287 575.81498,376.95287 L 574.49834,373.95287 L 578.04132,377.36428 C 579.98997,379.24056 582.72706,380.89754 584.12376,381.04645 C 586.39851,381.28898 586.50440,381.15839 585.13962,379.79362 C 584.30165,378.95565 582.86193,378.15935 581.94024,378.02408 C 581.01855,377.88880 580.10906,377.31198 579.91915,376.74226 C 579.69078,376.05716 581.00582,375.96825 583.80266,376.47969 C 586.93564,377.05259 588.63065,376.86037 590.34374,375.73791 C 592.43103,374.37027 592.65602,374.38000 592.65602,375.83786 C 592.65602,376.72612 593.33102,377.45287 594.15602,377.45287 C 594.98102,377.45287 595.66291,378.01537 595.67133,378.70287 C 595.68082,379.47700 595.96634,379.57218 596.42133,378.95287 C 596.82541,378.40287 598.28102,377.95287 599.65602,377.95287 C 601.53713,377.95287 602.07746,377.49431 601.83868,376.10054 C 601.56823,374.52189 601.73741,374.44802 602.98372,375.60054 C 603.78803,376.34432 604.24177,377.29037 603.99204,377.70287 C 602.99055,379.35711 605.78925,378.32013 607.39846,376.44071 C 609.00278,374.56700 609.16689,374.54980 609.78366,376.19071 C 610.36117,377.72718 610.56594,377.64415 611.38244,375.54240 C 612.16170,373.53653 612.42584,373.41065 612.95607,374.79240 C 613.30652,375.70566 614.30893,376.45287 615.18365,376.45287 C 616.05837,376.45287 616.47698,376.93355 616.11389,377.52104 C 615.75079,378.10854 614.82424,378.34766 614.05487,378.05243 C 612.42971,377.42880 612.28082,378.32490 613.65602,380.45287 C 614.45419,381.68795 614.62810,381.70267 614.64071,380.53620 C 614.64913,379.75704 614.94515,379.40866 615.29852,379.76204 C 615.65190,380.11541 615.44573,381.00133 614.84037,381.73074 C 613.67360,383.13662 614.32599,387.45287 615.70526,387.45287 C 616.71879,387.45287 618.12519,383.47608 617.82717,381.45287 C 617.66526,380.35364 617.89333,380.42043 618.68081,381.70287 C 619.27184,382.66537 620.35556,383.45287 621.08908,383.45287 C 621.82260,383.45287 622.65811,384.35287 622.94577,385.45287 C 623.23343,386.55287 623.06091,387.45287 622.56240,387.45287 C 622.06389,387.45287 621.65602,386.74037 621.65602,385.86954 C 621.65602,383.19643 619.24022,384.92029 618.27632,388.28122 C 617.76922,390.04938 616.65632,391.50420 615.76136,391.56887 C 614.44084,391.66429 614.46650,391.76601 615.90602,392.14220 C 616.86852,392.39372 617.65602,393.20190 617.65602,393.93814 C 617.65602,394.78399 618.60688,395.17238 620.23908,394.99321 C 622.33297,394.76336 622.72945,395.06409 622.33269,396.58127 C 622.06351,397.61065 622.28505,398.45287 622.82501,398.45287 C 623.36497,398.45287 623.67692,397.21510 623.51823,395.70227 C 623.35955,394.18944 623.60828,392.33913 624.07098,391.59047 C 624.59486,390.74281 624.39233,389.85858 623.53414,389.24673 C 622.45978,388.48078 622.53470,388.38558 623.87399,388.81486 C 624.81888,389.11773 625.87690,388.90450 626.22515,388.34102 C 626.57339,387.77755 627.48780,387.55808 628.25717,387.85331 C 630.00852,388.52537 630.00392,388.45754 628.03019,384.50109 C 626.81318,382.06154 626.18839,381.58286 625.54550,382.59745 C 624.61820,384.06089 624.61110,384.05058 624.23981,380.70287 C 623.93380,377.94386 624.12993,377.92678 626.69249,380.48934 C 627.81256,381.60941 629.12059,382.28378 629.59924,381.98796 C 630.07788,381.69214 630.22975,382.36693 629.93672,383.48748 C 629.44088,385.38357 629.60337,385.43882 632.27998,384.28427 C 636.87245,382.30329 639.40836,380.45287 637.53071,380.45287 C 636.43741,380.45287 635.94307,379.46559 635.90340,377.20287 C 635.85546,374.46827 635.97755,374.29008 636.67328,376.07927 C 637.73719,378.81532 642.71350,382.31002 644.65602,381.68529 C 645.86685,381.29587 645.91505,381.45830 644.90602,382.52787 C 643.93380,383.55843 643.38935,383.58620 642.45602,382.65287 C 641.05149,381.24834 639.27867,381.03328 640.10323,382.36746 C 640.41412,382.87048 640.10318,383.54133 639.41225,383.85823 C 638.72132,384.17513 639.23659,384.16163 640.55729,383.82824 C 642.54983,383.32525 642.84381,383.52111 642.28440,384.97891 C 641.71622,386.45957 641.84964,386.53707 643.13313,385.47187 C 644.22015,384.56972 644.65602,384.53822 644.65602,385.36181 C 644.65602,385.99642 643.98926,386.77150 643.17433,387.08422 C 642.07233,387.50709 641.94490,388.12413 642.67704,389.49214 C 643.33770,390.72661 643.31571,391.54516 642.61017,391.98121 C 641.88162,392.43147 641.87813,393.01557 642.59879,393.88391 C 643.17072,394.57305 643.34257,395.43298 642.98068,395.79488 C 642.61878,396.15677 642.86181,396.45287 643.52074,396.45287 C 644.17967,396.45287 644.97682,395.78045 645.29219,394.95861 C 645.60756,394.13677 646.27161,393.71529 646.76787,394.02200 C 647.26412,394.32870 647.94011,393.87611 648.27007,393.01625 C 648.60003,392.15639 649.32695,391.45287 649.88545,391.45287 C 650.46360,391.45287 650.35616,392.10925 649.63596,392.97704 C 648.17174,394.74131 648.14155,394.70387 652.39331,396.39634 C 654.17382,397.10509 655.38476,398.08276 655.08429,398.56893 C 654.78382,399.05510 655.18706,399.45287 655.98037,399.45287 C 656.77368,399.45287 657.63850,398.62787 657.90218,397.61954 C 658.48858,395.37715 661.65361,395.16671 661.66218,397.36954 C 661.66557,398.24037 662.36692,397.61314 663.22074,395.97570 C 665.11711,392.33885 666.41431,391.45362 669.65602,391.58418 C 671.33721,391.65189 671.58286,391.83466 670.40602,392.14220 C 668.44851,392.65375 668.06433,394.96915 669.76278,396.01885 C 670.55729,396.50989 670.53364,396.91047 669.67894,397.43871 C 668.78554,397.99085 668.82130,398.30085 669.82217,398.68050 C 671.60167,399.35551 681.76420,395.43692 681.08485,394.33771 C 680.79186,393.86365 681.20187,393.72510 681.99599,394.02983 C 685.67682,395.44230 712.21091,379.45371 722.44038,369.65934 C 727.89170,364.43988 728.98286,364.00159 728.55602,367.20287 C 728.50102,367.61537 728.11075,367.86028 727.68875,367.74711 C 726.86689,367.52672 717.65602,376.02543 717.65602,377.00414 C 717.65602,377.32584 719.11714,376.54865 720.90294,375.27704 C 722.68875,374.00544 724.82625,373.06170 725.65294,373.17985 C 726.60537,373.31598 726.69808,373.19163 725.90602,372.84044 C 724.14103,372.05786 724.34210,370.11843 726.11759,370.79975 C 727.02356,371.14740 728.97784,369.76258 731.25864,367.15674 C 734.62201,363.31403 734.77566,363.23782 733.04707,366.26968 C 729.00082,373.36662 714.55913,384.68359 697.15602,394.39505 C 691.10602,397.77113 686.26312,400.94907 686.39402,401.45714 C 686.52493,401.96520 685.88861,402.09562 684.97998,401.74694 C 683.95531,401.35374 683.57528,401.51322 683.97927,402.16688 C 684.34608,402.76039 683.21647,403.75282 681.39331,404.43877 C 679.61280,405.10868 674.78102,407.13345 670.65602,408.93826 C 657.04878,414.89185 643.34464,419.65480 629.65602,423.18805 C 617.10511,426.42764 614.89056,426.69553 598.15602,426.99864 C 588.25602,427.17795 577.00697,426.86207 573.15813,426.29669 z M 602.38699,418.75988 C 601.41402,418.50634 600.06402,418.52301 599.38699,418.79693 C 598.70996,419.07086 599.50602,419.27830 601.15602,419.25792 C 602.80602,419.23754 603.35996,419.01342 602.38699,418.75988 z M 619.64071,416.10925 C 619.64975,416.79223 620.52145,417.03932 621.77003,416.71281 C 623.62132,416.22868 623.68095,416.04633 622.24985,415.24544 C 620.24843,414.12539 616.38222,415.20083 617.26650,416.63163 C 617.67733,417.29637 618.21344,417.18122 618.76571,416.30963 C 619.30468,415.45903 619.63111,415.38427 619.64071,416.10925 z M 629.57269,413.81742 C 630.94501,412.61676 627.69015,413.73178 626.09715,415.00804 C 624.26684,416.47441 624.29875,416.49523 626.65602,415.37258 C 628.03102,414.71774 629.34352,414.01792 629.57269,413.81742 z M 617.23781,412.45287 C 617.46782,412.45287 617.65602,411.94777 617.65602,411.33043 C 617.65602,410.50481 617.30113,410.50251 616.31401,411.32175 C 615.57591,411.93432 614.67591,412.13942 614.31401,411.77753 C 613.95212,411.41563 613.65602,411.69268 613.65602,412.39319 C 613.65602,413.14376 614.30566,413.41756 615.23781,413.05986 C 616.10779,412.72601 617.00779,412.45287 617.23781,412.45287 z M 610.65602,407.22344 C 610.65602,406.58500 610.15776,406.62150 609.31401,407.32175 C 608.57591,407.93432 607.60376,408.10192 607.15369,407.69419 C 606.70361,407.28647 606.64693,407.49572 607.02772,408.15920 C 607.80839,409.51941 610.65602,408.78499 610.65602,407.22344 z M 614.65602,407.39385 C 614.65602,406.81139 614.20602,406.61295 613.65602,406.95287 C 612.37464,407.74481 612.37464,408.45287 613.65602,408.45287 C 614.20602,408.45287 614.65602,407.97631 614.65602,407.39385 z M 659.14894,404.46432 C 659.49928,403.89746 659.09788,403.72982 658.20796,404.07131 C 656.47554,404.73610 656.15857,405.45287 657.59700,405.45287 C 658.11454,405.45287 658.81292,405.00802 659.14894,404.46432 z M 633.65602,400.95287 C 632.94927,400.10129 632.14602,399.62954 631.87102,399.90454 C 631.59602,400.17954 631.94927,401.10129 632.65602,401.95287 C 633.36277,402.80445 634.16602,403.27620 634.44102,403.00120 C 634.71602,402.72620 634.36277,401.80445 633.65602,400.95287 z M 614.46289,399.92641 C 614.15500,399.61852 613.59584,400.17352 613.22031,401.15974 C 612.67763,402.58494 612.79249,402.69980 613.78011,401.71954 C 614.46353,401.04120 614.77078,400.23430 614.46289,399.92641 z M 539.65602,399.45287 C 539.65602,398.90287 539.20602,398.45287 538.65602,398.45287 C 538.10602,398.45287 537.65602,398.90287 537.65602,399.45287 C 537.65602,400.00287 538.10602,400.45287 538.65602,400.45287 C 539.20602,400.45287 539.65602,400.00287 539.65602,399.45287 z M 660.65602,399.39385 C 660.65602,398.81139 660.20602,398.61295 659.65602,398.95287 C 658.37464,399.74481 658.37464,400.45287 659.65602,400.45287 C 660.20602,400.45287 660.65602,399.97631 660.65602,399.39385 z M 521.08099,396.58188 C 520.02225,395.55284 518.97940,394.86696 518.76352,395.05772 C 518.13285,395.61499 520.79917,398.45287 521.95343,398.45287 C 522.53232,398.45287 522.13972,397.61093 521.08099,396.58188 z M 637.65602,397.60031 C 637.65602,397.36548 636.86852,396.52451 635.90602,395.73148 C 634.26849,394.38227 634.28456,394.33079 636.15602,394.93048 C 637.59830,395.39265 637.85407,395.26684 637.07324,394.47933 C 635.45335,392.84561 632.79236,394.25822 633.36497,396.44789 C 633.76996,397.99659 637.65602,399.04025 637.65602,397.60031 z M 640.65602,395.45287 C 640.65602,392.84613 639.12733,392.84613 638.93097,395.45287 C 638.84811,396.55287 639.20235,397.45287 639.71817,397.45287 C 640.23399,397.45287 640.65602,396.55287 640.65602,395.45287 z M 616.65602,394.54093 C 616.65602,394.03936 615.51628,393.75409 614.12327,393.90701 C 610.32602,394.32384 609.86303,395.45287 613.48935,395.45287 C 615.23102,395.45287 616.65602,395.04250 616.65602,394.54093 z M 530.65602,394.06950 C 530.65602,393.85865 529.75602,393.45078 528.65602,393.16312 C 527.55602,392.87546 526.65602,393.04798 526.65602,393.54649 C 526.65602,394.04500 527.55602,394.45287 528.65602,394.45287 C 529.75602,394.45287 530.65602,394.28035 530.65602,394.06950 z M 520.19106,389.23348 C 523.01887,389.50111 523.06623,389.44329 521.21489,387.98348 C 519.51692,386.64461 519.48561,386.45287 520.96489,386.45287 C 521.89501,386.45287 522.65602,386.01699 522.65602,385.48425 C 522.65602,383.99691 519.57242,385.51536 516.36157,388.58383 C 514.74246,390.13114 513.78206,391.84779 514.17753,392.48768 C 514.63470,393.22739 515.29609,392.80589 516.05474,391.29133 C 516.95048,389.50309 517.92373,389.01890 520.19106,389.23348 z M 629.65602,393.05986 C 629.65602,392.11123 626.66264,391.63314 626.12903,392.49654 C 625.80395,393.02252 626.46454,393.45287 627.59700,393.45287 C 628.72946,393.45287 629.65602,393.27601 629.65602,393.05986 z M 637.60803,391.93764 C 638.73443,392.29514 639.65602,392.15981 639.65602,391.63689 C 639.65602,390.07800 635.63416,389.50571 633.02699,390.69361 C 631.31555,391.47340 630.96655,392.02675 631.84410,392.56911 C 632.52877,392.99226 633.64494,392.87703 634.32449,392.31305 C 635.00405,391.74907 636.48164,391.58014 637.60803,391.93764 z M 632.65602,387.95287 C 632.65602,387.12787 632.20602,386.45287 631.65602,386.45287 C 631.10602,386.45287 630.65602,387.12787 630.65602,387.95287 C 630.65602,388.77787 631.10602,389.45287 631.65602,389.45287 C 632.20602,389.45287 632.65602,388.77787 632.65602,387.95287 z M 704.65602,386.45287 C 705.48102,385.91971 705.70602,385.48350 705.15602,385.48350 C 704.60602,385.48350 703.48102,385.91971 702.65602,386.45287 C 701.83102,386.98603 701.60602,387.42224 702.15602,387.42224 C 702.70602,387.42224 703.83102,386.98603 704.65602,386.45287 z M 635.84352,385.76976 C 635.12164,385.48089 634.25915,385.51641 633.92685,385.84870 C 633.59456,386.18100 634.18519,386.41734 635.23935,386.37392 C 636.40430,386.32594 636.64125,386.08898 635.84352,385.76976 z M 600.05006,381.29675 C 599.83224,380.93588 598.74499,380.87835 597.63395,381.16889 C 596.07882,381.57557 595.86900,382.00457 596.72235,383.03279 C 597.59100,384.07945 598.11375,384.10711 599.13846,383.16065 C 599.85766,382.49637 600.26788,381.65762 600.05006,381.29675 z M 525.65602,381.89385 C 525.65602,381.65131 525.20602,381.45287 524.65602,381.45287 C 524.10602,381.45287 523.65602,381.92943 523.65602,382.51189 C 523.65602,383.09435 524.10602,383.29279 524.65602,382.95287 C 525.20602,382.61295 525.65602,382.13639 525.65602,381.89385 z M 712.65602,380.88250 C 712.65602,380.60750 711.75602,380.86417 710.65602,381.45287 C 709.55602,382.04157 708.65602,382.74824 708.65602,383.02324 C 708.65602,383.29824 709.55602,383.04157 710.65602,382.45287 C 711.75602,381.86417 712.65602,381.15750 712.65602,380.88250 z M 516.12090,381.39605 C 515.56233,380.49226 510.65602,380.49226 510.65602,381.39605 C 510.65602,381.77730 511.98201,382.08923 513.60267,382.08923 C 515.22332,382.08923 516.35653,381.77730 516.12090,381.39605 z M 588.26019,379.72370 C 587.92789,379.39141 587.69155,379.98204 587.73497,381.03620 C 587.78295,382.20115 588.01991,382.43810 588.33913,381.64037 C 588.62800,380.91849 588.59248,380.05600 588.26019,379.72370 z M 591.65602,381.39385 C 591.65602,380.81139 591.20602,380.61295 590.65602,380.95287 C 589.37464,381.74481 589.37464,382.45287 590.65602,382.45287 C 591.20602,382.45287 591.65602,381.97631 591.65602,381.39385 z M 612.14594,380.43656 C 611.80048,379.87759 611.09892,379.67914 610.58692,379.99558 C 609.19988,380.85281 609.45851,381.45287 611.21504,381.45287 C 612.07250,381.45287 612.49140,380.99553 612.14594,380.43656 z M 528.15602,379.45287 C 528.51269,378.87577 527.58612,378.45935 525.96504,378.46818 C 523.78393,378.48007 523.49132,378.70018 524.65602,379.45287 C 526.57731,380.69450 527.38865,380.69450 528.15602,379.45287 z M 553.90602,374.79059 C 553.21852,374.51318 552.09352,374.51318 551.40602,374.79059 C 550.71852,375.06800 551.28102,375.29498 552.65602,375.29498 C 554.03102,375.29498 554.59352,375.06800 553.90602,374.79059 z M 523.42393,372.67334 C 523.16798,371.69460 523.56550,370.32686 524.30729,369.63392 C 525.40046,368.61274 525.65602,368.66571 525.65602,369.91344 C 525.65602,370.76013 526.15850,371.45287 526.77265,371.45287 C 527.39695,371.45287 527.65868,370.57106 527.36627,369.45287 C 527.01898,368.12481 527.33559,367.45287 528.30866,367.45287 C 529.11463,367.45287 529.53691,367.06916 529.24707,366.60019 C 528.95723,366.13122 529.36636,364.89372 530.15625,363.85019 C 530.97967,362.76237 531.60598,362.48619 531.62422,363.20287 C 531.64171,363.89037 532.43102,364.45287 533.37824,364.45287 C 534.82504,364.45287 534.72635,364.09304 532.76118,362.20287 C 531.36266,360.85773 530.25339,360.39854 530.00289,361.06106 C 529.77244,361.67056 528.95542,363.02056 528.18728,364.06106 C 527.13686,365.48392 526.50301,365.66952 525.63024,364.80977 C 523.85573,363.06175 527.14698,358.50699 529.70184,359.17510 C 530.80265,359.46297 531.65602,359.18483 531.65602,358.53818 C 531.65602,357.84799 530.26031,357.48421 528.15602,357.62593 C 525.90194,357.77774 524.65602,358.36943 524.65602,359.28810 C 524.65602,360.35882 523.78648,360.57345 521.16932,360.14874 C 518.59668,359.73126 517.44943,359.99962 516.79311,361.17239 C 515.16558,364.08062 512.70310,361.92701 513.02225,357.87451 C 513.27128,354.71240 513.13689,354.44234 512.05236,355.92552 C 511.35993,356.87248 511.02213,358.24337 511.30171,358.97193 C 512.07575,360.98905 509.84079,364.46100 508.17883,363.82325 C 507.38316,363.51792 506.44379,362.35956 506.09135,361.24911 C 505.54735,359.53513 504.87764,359.32172 501.65836,359.83651 C 498.74034,360.30312 497.72669,360.07942 497.26110,358.86610 C 496.41513,356.66153 496.50219,356.23976 497.65602,356.95287 C 498.20602,357.29279 498.65602,357.09435 498.65602,356.51189 C 498.65602,355.33549 496.65814,355.13109 494.23781,356.05986 C 492.68149,356.65708 491.94271,359.56550 493.40602,359.33445 C 496.96841,358.77197 497.90496,362.41533 495.01801,365.60537 C 493.68264,367.08094 493.61288,367.69596 494.64045,368.93411 C 496.04726,370.62921 497.65602,370.94507 497.65602,369.52619 C 497.65602,369.01652 496.86852,368.37071 495.90602,368.09105 C 494.83485,367.77981 495.08385,367.65440 496.54794,367.76772 C 498.34652,367.90694 499.02944,367.37963 499.30096,365.64199 C 499.55531,364.01421 499.29166,363.54232 498.40904,364.04562 C 497.71988,364.43861 498.05602,363.84906 499.15602,362.73552 C 500.25602,361.62197 501.28263,360.81695 501.43738,360.94657 C 502.20942,361.59327 502.42829,365.43016 501.66627,364.95921 C 501.17941,364.65831 500.99327,365.58233 501.25263,367.01257 C 501.54906,368.64733 501.34017,369.37570 500.69010,368.97393 C 500.12136,368.62243 499.65602,368.81139 499.65602,369.39385 C 499.65602,369.97631 500.05092,370.45287 500.53358,370.45287 C 501.84492,370.45287 503.73771,367.86789 502.98068,367.11086 C 502.61878,366.74897 502.87801,366.45287 503.55674,366.45287 C 504.31765,366.45287 504.55766,365.71832 504.18273,364.53703 C 503.84830,363.48331 504.04297,362.33176 504.61534,361.97801 C 505.54890,361.40104 506.09360,362.68154 505.77444,364.70287 C 505.70931,365.11537 506.78102,365.45287 508.15602,365.45287 C 509.53102,365.45287 510.65602,365.00287 510.65602,364.45287 C 510.65602,363.90287 511.15417,363.45287 511.76301,363.45287 C 512.37185,363.45287 512.62527,364.09063 512.32615,364.87011 C 512.02699,365.64972 512.52863,366.57374 513.44114,366.92391 C 514.85040,367.46469 514.88249,367.69487 513.65439,368.45388 C 512.73057,369.02483 511.93410,368.91518 511.44773,368.15008 C 510.92067,367.32100 510.68194,367.45511 510.67133,368.58624 C 510.65328,370.51222 514.31229,371.75791 515.10807,370.09671 C 515.50830,369.26124 515.81063,369.28190 516.22952,370.17335 C 516.64032,371.04760 517.39981,370.83783 518.90674,369.43391 C 521.38974,367.12065 522.63654,367.61521 520.27507,369.97668 C 518.24234,372.00941 518.17670,373.57403 520.15602,372.81450 C 520.98102,372.49791 521.65602,372.73704 521.65602,373.34588 C 521.65602,373.95473 522.15850,374.45287 522.77265,374.45287 C 523.38680,374.45287 523.67987,373.65208 523.42393,372.67334 z M 514.53631,365.80862 C 513.31830,364.34102 513.42603,364.24510 515.53909,364.91576 C 516.87775,365.34063 517.66669,365.27916 517.35467,364.77429 C 517.05117,364.28322 517.66982,363.88144 518.72944,363.88144 C 521.04913,363.88144 521.29481,365.99377 519.07423,366.84588 C 516.69543,367.75871 516.02815,367.60619 514.53631,365.80862 z M 549.65602,369.45287 C 549.65602,368.90287 549.17946,368.45287 548.59700,368.45287 C 548.01454,368.45287 547.81610,368.90287 548.15602,369.45287 C 548.94796,370.73425 549.65602,370.73425 549.65602,369.45287 z M 592.54259,364.57332 L 594.92916,362.73824 L 592.08731,362.02498 C 590.52429,361.63269 588.66987,360.48995 587.96637,359.48557 C 586.40540,357.25697 580.94260,355.18016 580.12429,356.50421 C 579.26043,357.90196 584.51671,362.72031 586.20049,362.07418 C 588.75769,361.09289 587.76363,362.41666 584.40602,364.46383 L 581.15602,366.44539 L 585.65602,366.42690 C 588.46374,366.41535 591.05352,365.71830 592.54259,364.57332 z M 608.63467,365.43967 C 606.94033,364.39251 608.32966,362.45287 610.77405,362.45287 C 611.87405,362.45287 612.49594,362.90287 612.15602,363.45287 C 611.15322,365.07543 613.29381,364.59423 614.71927,362.87665 C 615.80340,361.57036 615.78156,361.14487 614.59172,360.39197 C 613.80208,359.89231 612.64862,359.47660 612.02846,359.46818 C 611.40831,359.45976 610.34071,358.77787 609.65602,357.95287 C 607.94627,355.89275 609.49462,356.07324 614.57083,358.52580 C 618.19771,360.27812 618.78953,360.97411 618.39733,363.02580 C 617.88647,365.69816 618.78186,366.12322 620.87682,364.20287 C 621.62684,363.51537 623.09470,362.47072 624.13873,361.88143 C 625.18277,361.29213 626.19467,360.33693 626.38739,359.75875 C 626.91756,358.16826 622.47087,357.36612 620.76610,358.74472 C 619.60350,359.68488 619.43266,359.68534 619.99593,358.74680 C 621.21783,356.71081 616.14520,354.12727 612.40790,354.88215 C 608.66547,355.63808 600.25543,356.28142 593.49313,356.32908 C 587.33748,356.37247 586.67381,357.84271 591.87116,359.92228 C 594.18235,360.84703 596.67995,362.46972 597.42138,363.52826 C 599.07543,365.88975 600.50280,365.94892 603.59348,363.78412 L 605.97596,362.11537 L 603.67106,361.26273 C 602.40337,360.79378 600.62781,360.64444 599.72538,360.93086 C 598.57779,361.29509 598.08459,360.85064 598.08459,359.45225 C 598.08459,358.03623 598.75150,357.45287 600.37031,357.45287 C 601.62745,357.45287 602.65953,357.79037 602.66382,358.20287 C 602.67943,359.70316 607.45528,361.25361 608.58406,360.12483 C 610.90802,357.80087 609.49543,361.01105 607.08869,363.52315 L 604.52135,366.20287 L 607.19545,366.20287 C 608.83706,366.20287 609.39275,365.90819 608.63467,365.43967 z M 580.55966,364.33662 L 583.76175,363.22036 L 581.09458,361.83662 C 577.65723,360.05330 576.01066,360.08630 575.29439,361.95287 C 574.97781,362.77787 573.69217,363.48450 572.43740,363.52316 C 570.27217,363.58986 570.25784,363.63720 572.15602,364.45287 C 574.94921,365.65314 576.85885,365.62673 580.55966,364.33662 z M 538.31095,362.90974 C 539.21095,360.56437 538.23947,360.28898 536.85970,362.49835 C 536.08713,363.73542 536.02078,364.45287 536.67893,364.45287 C 537.25086,364.45287 537.98526,363.75846 538.31095,362.90974 z M 535.65602,361.45287 C 535.65602,360.90287 535.20602,360.45287 534.65602,360.45287 C 534.10602,360.45287 533.65602,360.90287 533.65602,361.45287 C 533.65602,362.00287 534.10602,362.45287 534.65602,362.45287 C 535.20602,362.45287 535.65602,362.00287 535.65602,361.45287 z M 509.30913,357.69573 C 507.63451,356.03854 507.58044,356.03889 508.20897,357.70287 C 508.63553,358.83215 508.38868,359.45830 507.51301,359.46818 C 506.46282,359.48003 506.49327,359.69671 507.64766,360.42654 C 510.04872,361.94454 511.38431,359.74933 509.30913,357.69573 z M 516.31094,359.90974 C 517.21095,357.56437 516.23947,357.28898 514.85969,359.49835 C 514.08713,360.73542 514.02078,361.45287 514.67893,361.45287 C 515.25085,361.45287 515.98526,360.75846 516.31094,359.90974 z M 570.69498,359.26431 C 569.57355,358.06060 568.65602,356.56404 568.65602,355.93862 C 568.65602,354.85828 565.34403,351.41050 563.11816,350.17373 C 561.47754,349.26214 561.53041,354.10373 563.17598,355.46944 C 563.99000,356.14502 564.65602,357.22766 564.65602,357.87531 C 564.65602,359.89529 566.93693,361.45287 569.89498,361.45287 L 572.73393,361.45287 L 570.69498,359.26431 z M 577.65991,357.46014 C 576.30041,354.91990 574.00871,354.32297 572.51688,356.12052 C 571.45073,357.40515 571.53147,357.88863 572.99024,358.95531 C 575.54999,360.82704 578.88956,359.75775 577.65991,357.46014 z M 523.42708,357.63969 C 523.67066,356.90894 523.21349,356.68545 522.23958,357.05918 C 521.36862,357.39340 520.65602,358.10620 520.65602,358.64319 C 520.65602,359.95758 522.92880,359.13453 523.42708,357.63969 z M 536.84352,358.76976 C 536.12165,358.48089 535.25915,358.51641 534.92685,358.84870 C 534.59456,359.18100 535.18519,359.41734 536.23935,359.37392 C 537.40430,359.32594 537.64126,359.08898 536.84352,358.76976 z M 491.31196,353.18384 C 491.03803,352.50681 490.83059,353.30287 490.85097,354.95287 C 490.87135,356.60287 491.09547,357.15681 491.34901,356.18384 C 491.60255,355.21087 491.58588,353.86087 491.31196,353.18384 z M 559.83935,354.23620 C 558.92824,353.32509 558.36846,353.36268 557.40602,354.39957 C 556.56309,355.30771 556.54059,355.53036 557.33692,355.08326 C 557.98642,354.71860 558.81898,354.90753 559.18706,355.50309 C 559.55514,356.09865 560.11873,356.32349 560.43949,356.00273 C 560.76025,355.68198 560.49019,354.88704 559.83935,354.23620 z M 554.07257,351.09600 C 553.42192,349.40043 551.51773,348.92449 550.29132,350.15090 C 549.90741,350.53482 550.61923,351.39800 551.87315,352.06907 C 554.54307,353.49797 554.92881,353.32732 554.07257,351.09600 z M 558.65602,351.36143 C 559.98935,350.41848 559.98935,350.34660 558.65602,350.71451 C 557.83102,350.94216 556.60783,350.41391 555.93782,349.54064 C 554.82827,348.09447 554.71679,348.09408 554.68782,349.53620 C 554.63039,352.39565 556.18350,353.11002 558.65602,351.36143 z M 513.26019,335.72370 C 512.92790,335.39141 512.69155,335.98204 512.73497,337.03620 C 512.78295,338.20115 513.01991,338.43810 513.33913,337.64037 C 513.62801,336.91849 513.59248,336.05600 513.26019,335.72370 z M 508.65602,334.84588 C 508.65602,334.62973 507.72946,334.45287 506.59700,334.45287 C 505.46454,334.45287 504.80396,334.88322 505.12903,335.40920 C 505.66264,336.27260 508.65602,335.79451 508.65602,334.84588 z M 619.65602,328.04566 C 619.65602,327.53629 619.35992,327.41563 618.99803,327.77753 C 618.63613,328.13942 617.73613,327.93432 616.99803,327.32175 C 615.93319,326.43801 615.65602,326.75135 615.65602,328.83890 C 615.65602,331.21949 615.84632,331.35098 617.65602,330.22080 C 618.75602,329.53384 619.65602,328.55502 619.65602,328.04566 z M 501.65602,324.95287 C 502.34071,324.12787 502.67591,323.45287 502.40091,323.45287 C 502.12591,323.45287 501.34071,324.12787 500.65602,324.95287 C 499.97133,325.77787 499.63613,326.45287 499.91113,326.45287 C 500.18613,326.45287 500.97133,325.77787 501.65602,324.95287 z M 605.65602,282.89385 C 605.65602,282.65131 605.20602,282.45287 604.65602,282.45287 C 604.10602,282.45287 603.65602,282.92943 603.65602,283.51189 C 603.65602,284.09435 604.10602,284.29279 604.65602,283.95287 C 605.20602,283.61295 605.65602,283.13639 605.65602,282.89385 z M 619.65602,388.51189 C 619.65602,386.09732 620.21213,385.85373 621.00536,387.92084 C 621.31518,388.72823 621.13833,389.65479 620.61235,389.97986 C 620.08637,390.30494 619.65602,389.64435 619.65602,388.51189 z M 644.65602,389.45287 C 644.65602,388.17149 645.36408,388.17149 646.15602,389.45287 C 646.49594,390.00287 646.29750,390.45287 645.71504,390.45287 C 645.13258,390.45287 644.65602,390.00287 644.65602,389.45287 z M 629.18624,379.10195 C 628.63834,377.86771 628.82961,376.95657 629.76030,376.36726 C 631.63572,375.17975 632.65602,375.23071 632.65602,376.51189 C 632.65602,377.09435 632.23819,377.31267 631.72751,376.99706 C 631.21684,376.68144 630.62101,377.44238 630.40346,378.68804 C 630.04193,380.75804 629.93722,380.79365 629.18624,379.10195 z M 595.65602,376.48050 C 595.65602,375.12495 597.43312,374.28319 598.08118,375.33177 C 598.39102,375.83311 597.97212,376.50133 597.15028,376.81670 C 596.32844,377.13207 595.65602,376.98078 595.65602,376.48050 z M 599.73497,376.03620 C 599.69155,374.98204 599.92789,374.39141 600.26019,374.72370 C 600.59248,375.05600 600.62800,375.91849 600.33913,376.64037 C 600.01991,377.43810 599.78295,377.20115 599.73497,376.03620 z M 625.15602,375.45287 C 624.81610,374.90287 625.01454,374.45287 625.59700,374.45287 C 626.17946,374.45287 626.65602,374.90287 626.65602,375.45287 C 626.65602,376.73425 625.94796,376.73425 625.15602,375.45287 z M 638.11490,375.38634 C 637.08884,373.72613 638.00979,373.49591 639.44545,375.05373 C 640.15463,375.82326 640.29369,376.45287 639.75446,376.45287 C 639.21524,376.45287 638.47744,375.97293 638.11490,375.38634 z M 582.92685,374.84870 C 583.25915,374.51641 584.12164,374.48089 584.84352,374.76976 C 585.64125,375.08898 585.40430,375.32594 584.23935,375.37392 C 583.18519,375.41734 582.59456,375.18100 582.92685,374.84870 z M 577.22699,372.29033 C 577.60178,371.20833 577.16616,370.46317 575.97945,370.15634 C 574.74314,369.83668 575.02248,369.64752 576.84700,369.56887 C 578.32704,369.50507 579.86169,370.01537 580.25733,370.70287 C 580.65297,371.39037 580.61152,371.62236 580.16522,371.21841 C 579.71893,370.81446 578.74567,371.26446 578.00244,372.21841 C 576.81246,373.74578 576.71987,373.75437 577.22699,372.29033 z M 580.65602,372.72398 C 581.48102,372.40993 582.48663,371.65796 582.89071,371.05293 C 583.34388,370.37439 583.63126,370.62344 583.64071,371.70287 C 583.65099,372.87859 582.91766,373.42696 581.40602,373.37392 C 579.90258,373.32117 579.65373,373.10552 580.65602,372.72398 z M 730.13718,361.70287 C 730.33865,360.74037 731.66093,357.70287 733.07557,354.95287 C 735.33846,350.55393 735.64815,350.28345 735.65183,352.70287 C 735.65414,354.21537 735.17946,355.45287 734.59700,355.45287 C 734.01454,355.45287 733.78696,355.85572 734.09126,356.34809 C 734.39556,356.84045 733.97212,357.50133 733.15028,357.81670 C 732.32844,358.13207 731.65602,358.88078 731.65602,359.48050 C 731.65602,360.08022 732.21852,360.24199 732.90602,359.83999 C 733.59352,359.43799 733.29878,360.08643 732.25103,361.28098 C 729.94601,363.90895 729.66359,363.96532 730.13718,361.70287 z M 633.65602,360.45287 C 633.65602,359.90287 634.89352,359.48450 636.40602,359.52316 C 638.84286,359.58544 638.92827,359.69131 637.15602,360.45287 C 634.42464,361.62658 633.65602,361.62658 633.65602,360.45287 z M 636.65602,356.95287 C 636.65602,355.97248 635.67454,355.45287 633.82269,355.45287 C 630.80501,355.45287 629.40732,354.66429 630.18753,353.40189 C 630.44996,352.97727 632.02229,353.14231 633.68161,353.76863 C 636.02140,354.65180 637.16454,354.61639 638.77467,353.61085 C 641.65139,351.81430 642.20767,352.82867 640.00429,355.85305 C 637.90297,358.73737 636.65602,359.14695 636.65602,356.95287 z M 643.81790,357.42209 C 644.86559,356.81059 646.34388,356.79841 647.81790,357.38911 C 649.86289,358.20863 649.65454,358.33023 646.15602,358.35908 C 643.10595,358.38422 642.55069,358.16170 643.81790,357.42209 z M 652.96882,356.01153 C 653.16237,355.42927 654.40867,354.89765 655.73837,354.83016 C 657.06808,354.76266 659.87129,354.42320 661.96773,354.07579 C 666.51260,353.32265 666.11734,354.97300 661.51052,355.98483 C 656.29174,357.13106 652.59283,357.14263 652.96882,356.01153 z M 647.31813,354.01472 C 646.98849,353.15570 645.63477,352.45287 644.30985,352.45287 C 642.98493,352.45287 641.34071,351.77787 640.65602,350.95287 C 638.96336,348.91334 641.28110,348.92026 645.38384,350.96697 C 648.67143,352.60704 651.65602,352.07357 651.65602,349.84588 C 651.65602,349.07973 652.10602,348.45287 652.65602,348.45287 C 654.40267,348.45287 653.74399,349.99440 650.78674,352.82763 C 648.41410,355.10077 647.81373,355.30624 647.31813,354.01472 z M 656.65602,350.05986 C 656.65602,349.84370 657.35439,349.39886 658.20796,349.07131 C 659.09788,348.72982 659.49928,348.89746 659.14894,349.46432 C 658.56168,350.41453 656.65602,350.86977 656.65602,350.05986 z M 661.65602,348.95287 C 661.65602,348.12787 661.19488,347.45287 660.63127,347.45287 C 660.06766,347.45287 659.13404,346.21537 658.55656,344.70287 C 657.59119,342.17439 657.40306,342.09384 656.22107,343.70287 C 654.46286,346.09632 653.33750,345.91655 654.65602,343.45287 C 656.25204,340.47069 658.28707,341.01601 661.11997,345.18500 C 663.85862,349.21529 664.21948,350.45287 662.65602,350.45287 C 662.10602,350.45287 661.65602,349.77787 661.65602,348.95287 z M 632.92685,348.84870 C 633.25915,348.51641 634.12164,348.48089 634.84352,348.76976 C 635.64125,349.08898 635.40430,349.32594 634.23935,349.37392 C 633.18519,349.41734 632.59456,349.18100 632.92685,348.84870 z M 735.89370,343.66741 C 735.82566,332.31698 730.94158,325.29757 718.23705,318.29121 C 715.44248,316.75005 713.54303,315.48095 714.01604,315.47099 C 714.48905,315.46102 717.53481,316.86997 720.78438,318.60197 C 725.70841,321.22645 730.33097,325.38705 734.50664,330.95287 C 736.99833,334.27409 738.13417,342.23969 736.78814,346.95287 C 736.08002,349.43241 735.92484,348.86242 735.89370,343.66741 z M 646.57269,347.31128 C 645.83397,344.13412 646.19363,342.47472 647.57273,342.69732 C 648.50123,342.84718 649.05925,342.33253 648.92204,341.45287 C 648.73113,340.22900 648.90005,340.25248 649.83966,341.58039 C 650.86957,343.03591 651.22553,342.93024 653.20804,340.58039 C 654.42727,339.13525 660.38093,334.12787 666.43840,329.45287 C 672.49588,324.77787 678.14412,319.60287 678.99005,317.95287 C 680.50469,314.99855 680.52885,314.99094 680.57675,317.45287 C 680.60351,318.82787 680.18918,320.62787 679.65602,321.45287 C 679.12286,322.27787 678.67975,322.57756 678.67133,322.11884 C 678.63533,320.15811 655.71392,339.70935 653.77407,343.35542 C 653.01400,344.78402 652.33808,346.02879 652.27202,346.12159 C 651.98753,346.52124 646.64814,347.63579 646.57269,347.31128 z M 671.24633,339.30674 C 671.49480,338.90472 671.04945,338.21063 670.25667,337.76433 C 668.36944,336.70189 667.16825,331.87236 668.57499,331.00295 C 669.21083,330.60998 669.65602,331.15119 669.65602,332.31713 C 669.65602,333.40739 670.79860,335.65730 672.19510,337.31694 C 674.53506,340.09783 674.57971,340.32282 672.76437,340.18608 C 671.68098,340.10447 670.99787,339.70877 671.24633,339.30674 z M 634.92575,333.38359 C 634.84576,332.32169 635.20235,331.45287 635.71817,331.45287 C 636.85654,331.45287 636.97242,334.13929 635.86361,334.82457 C 635.42778,335.09393 635.00574,334.44549 634.92575,333.38359 z M 529.03544,332.07345 C 529.16159,331.21397 529.54406,330.23150 529.88537,329.89018 C 530.22669,329.54887 530.40274,329.97282 530.27660,330.83229 C 530.15045,331.69177 529.76798,332.67424 529.42667,333.01556 C 529.08535,333.35687 528.90930,332.93292 529.03544,332.07345 z M 520.65602,331.45287 C 520.65602,330.90287 519.75602,330.45287 518.65602,330.45287 C 517.55602,330.45287 516.65602,329.95473 516.65602,329.34588 C 516.65602,328.73704 517.33102,328.49791 518.15602,328.81450 C 518.98102,329.13108 519.65602,328.95422 519.65602,328.42149 C 519.65602,327.88875 520.13258,327.45287 520.71504,327.45287 C 521.29750,327.45287 521.48376,327.92258 521.12895,328.49667 C 520.77414,329.07077 521.02768,330.19577 521.69238,330.99667 C 522.54352,332.02224 522.56898,332.45287 521.77847,332.45287 C 521.16112,332.45287 520.65602,332.00287 520.65602,331.45287 z M 536.65602,331.48805 C 536.65602,330.95740 537.51185,330.06521 538.55787,329.50540 C 540.17560,328.63962 540.38226,328.78375 539.94124,330.47022 C 539.42282,332.45266 536.65602,333.30988 536.65602,331.48805 z M 624.98277,329.60309 C 623.51086,327.24421 624.72348,324.25238 626.65626,325.47418 C 627.76116,326.17264 627.80811,326.42628 626.83459,326.43756 C 625.84298,326.44905 625.90538,326.84509 627.08459,328.02430 C 628.99250,329.93221 629.00824,330.10373 627.33425,330.74610 C 626.60728,331.02507 625.54912,330.51071 624.98277,329.60309 z M 523.92685,324.84870 C 524.25915,324.51641 525.12165,324.48089 525.84352,324.76976 C 526.64125,325.08898 526.40430,325.32594 525.23935,325.37392 C 524.18519,325.41734 523.59456,325.18100 523.92685,324.84870 z M 682.73497,324.03620 C 682.69155,322.98204 682.92789,322.39141 683.26019,322.72370 C 683.59248,323.05600 683.62800,323.91850 683.33913,324.64037 C 683.01991,325.43810 682.78295,325.20115 682.73497,324.03620 z M 533.23327,317.57787 C 532.93585,317.09662 533.80929,316.70287 535.17426,316.70287 C 536.53923,316.70287 537.65602,317.09662 537.65602,317.57787 C 537.65602,318.71667 533.93709,318.71667 533.23327,317.57787 z M 615.65602,318.01189 C 615.65602,317.76935 616.10602,317.29279 616.65602,316.95287 C 617.20602,316.61295 617.65602,316.81139 617.65602,317.39385 C 617.65602,317.97631 617.20602,318.45287 616.65602,318.45287 C 616.10602,318.45287 615.65602,318.25443 615.65602,318.01189 z M 613.98935,311.85753 C 613.98935,310.28296 615.24490,309.97865 616.09126,311.34809 C 616.39556,311.84045 616.04712,312.47255 615.31694,312.75274 C 614.58677,313.03294 613.98935,312.63009 613.98935,311.85753 z M 659.10217,298.36574 C 658.73263,297.76781 658.93108,296.77782 659.54315,296.16574 C 660.36031,295.34858 660.65602,295.63745 660.65602,297.25287 C 660.65602,299.66738 660.13656,300.03942 659.10217,298.36574 z M 666.73497,292.03620 C 666.69155,290.98204 666.92789,290.39141 667.26019,290.72370 C 667.59248,291.05599 667.62800,291.91849 667.33913,292.64037 C 667.01991,293.43810 666.78295,293.20115 666.73497,292.03620 z M 579.89888,273.60319 C 573.77621,271.83915 564.56508,259.48642 564.70813,253.23139 C 564.74291,251.71034 565.41533,252.61507 566.73081,255.95287 C 570.01918,264.29652 573.63559,268.69365 579.65799,271.67077 C 584.84392,274.23440 584.94653,275.05750 579.89888,273.60319 z " id="path2063" style="fill:#000000;fill-opacity:0.33870968"/>
  </g>
</svg>
