<?xml version="1.0" encoding="UTF-8" standalone="no"?>
<!-- Created with Inkscape (http://www.inkscape.org/) --><svg height="128.00000px" id="svg2" inkscape:export-filename="/home/nicu/Desktop/potato_guy.png" inkscape:export-xdpi="90.000000" inkscape:export-ydpi="90.000000" inkscape:version="0.42" sodipodi:docbase="/home/nicu/Desktop/hats" sodipodi:docname="hat3.svg" sodipodi:version="0.32" width="128.00000px" xmlns="http://www.w3.org/2000/svg" xmlns:cc="http://web.resource.org/cc/" xmlns:dc="http://purl.org/dc/elements/1.1/" xmlns:inkscape="http://www.inkscape.org/namespaces/inkscape" xmlns:rdf="http://www.w3.org/1999/02/22-rdf-syntax-ns#" xmlns:sodipodi="http://inkscape.sourceforge.net/DTD/sodipodi-0.dtd" xmlns:svg="http://www.w3.org/2000/svg" xmlns:xlink="http://www.w3.org/1999/xlink">
  <metadata>
    <rdf:RDF xmlns:cc="http://web.resource.org/cc/" xmlns:dc="http://purl.org/dc/elements/1.1/" xmlns:rdf="http://www.w3.org/1999/02/22-rdf-syntax-ns#">
      <cc:Work rdf:about="">
        <dc:title>hat - clothing</dc:title>
        <dc:description></dc:description>
        <dc:subject>
          <rdf:Bag>
            <rdf:li>hat</rdf:li>
          </rdf:Bag>
        </dc:subject>
        <dc:publisher>
          <cc:Agent rdf:about="http://www.openclipart.org/">
            <dc:title>Open Clip Art Library</dc:title>
          </cc:Agent>
        </dc:publisher>
        <dc:creator>
          <cc:Agent>
            <dc:title>Nicu Buculei</dc:title>
          </cc:Agent>
        </dc:creator>
        <dc:rights>
          <cc:Agent>
            <dc:title>Nicu Buculei</dc:title>
          </cc:Agent>
        </dc:rights>
        <dc:date></dc:date>
        <dc:format>image/svg+xml</dc:format>
        <dc:type rdf:resource="http://purl.org/dc/dcmitype/StillImage"/>
        <cc:license rdf:resource="http://web.resource.org/cc/PublicDomain"/>
        <dc:language>en</dc:language>
      </cc:Work>
      <cc:License rdf:about="http://web.resource.org/cc/PublicDomain">
        <cc:permits rdf:resource="http://web.resource.org/cc/Reproduction"/>
        <cc:permits rdf:resource="http://web.resource.org/cc/Distribution"/>
        <cc:permits rdf:resource="http://web.resource.org/cc/DerivativeWorks"/>
      </cc:License>
    </rdf:RDF>
  </metadata>
  <defs id="defs3">
    <linearGradient id="linearGradient14422" inkscape:collect="always">
      <stop id="stop14424" offset="0" style="stop-color:#000000;stop-opacity:1;"/>
      <stop id="stop14426" offset="1" style="stop-color:#000000;stop-opacity:0;"/>
    </linearGradient>
    <linearGradient id="linearGradient14414" inkscape:collect="always">
      <stop id="stop14416" offset="0" style="stop-color:#000000;stop-opacity:1;"/>
      <stop id="stop14418" offset="1" style="stop-color:#000000;stop-opacity:0;"/>
    </linearGradient>
    <linearGradient id="linearGradient2424">
      <stop id="stop2426" offset="0" style="stop-color:#dec164;stop-opacity:1;"/>
      <stop id="stop2428" offset="1.0000000" style="stop-color:#d5a864;stop-opacity:1.0000000;"/>
    </linearGradient>
    <linearGradient gradientTransform="translate(84.00000,5.000000)" gradientUnits="userSpaceOnUse" id="linearGradient7610" inkscape:collect="always" x1="114.00000" x2="197.00000" xlink:href="#linearGradient2424" y1="112.36218" y2="288.36218"/>
    <linearGradient gradientUnits="userSpaceOnUse" id="linearGradient14441" inkscape:collect="always" x1="359.40097" x2="392.05878" xlink:href="#linearGradient14414" y1="501.27704" y2="543.17145"/>
    <linearGradient gradientUnits="userSpaceOnUse" id="linearGradient14443" inkscape:collect="always" x1="408.05783" x2="448.46774" xlink:href="#linearGradient14422" y1="499.79263" y2="546.30530"/>
    <linearGradient id="linearGradient912">
      <stop id="stop913" offset="0.0000000" style="stop-color:#ffffff;stop-opacity:1.0000000;"/>
      <stop id="stop914" offset="1.0000000" style="stop-color:#ffffff;stop-opacity:0.0000000;"/>
    </linearGradient>
    <radialGradient cx="44.699298" cy="42.720970" fx="44.699298" fy="42.720970" gradientTransform="scale(1.022475,0.978019)" gradientUnits="userSpaceOnUse" id="radialGradient17463" inkscape:collect="always" r="12.239094" xlink:href="#linearGradient912"/>
  </defs>
  <sodipodi:namedview bordercolor="#666666" borderopacity="1.0" id="base" inkscape:current-layer="layer1" inkscape:cx="64.000000" inkscape:cy="64.000000" inkscape:document-units="px" inkscape:guide-bbox="true" inkscape:pageopacity="0.0" inkscape:pageshadow="2" inkscape:window-height="791" inkscape:window-width="1152" inkscape:window-x="0" inkscape:window-y="26" inkscape:zoom="1.0000000" pagecolor="#ffffff" showguides="true"/>
  <g id="layer1" inkscape:groupmode="layer" inkscape:label="Layer 1">
    <g id="g2591" transform="matrix(1.327496,0.000000,0.000000,1.327496,-704.4481,-559.6958)">
      <path d="M 583.32528,432.27864 C 577.00651,432.43483 569.53952,433.27703 564.43484,437.34114 C 561.71934,438.87273 562.79790,440.90270 563.43459,443.45070 C 564.51557,455.34546 562.93081,467.64630 560.77834,479.35682 C 553.09200,479.33144 544.90419,479.89999 538.16903,483.82557 C 534.58546,485.90099 531.97841,490.04347 534.48141,494.02888 C 538.08157,499.47783 543.93230,501.45172 549.90359,502.66932 C 565.78177,505.43252 581.46261,505.99442 597.51315,504.60682 C 604.89517,503.70121 612.32847,501.55839 618.76327,497.49788 C 621.48868,495.53481 624.55291,493.21498 622.41952,489.79432 C 619.15053,485.49326 614.47867,484.70134 609.52859,483.38795 C 604.80646,482.36323 599.01032,481.72072 594.20077,481.26295 C 594.75738,475.41860 596.59854,468.98197 597.46609,463.18501 C 598.86776,454.78713 599.78006,446.61068 601.60690,438.29432 C 599.33779,434.59796 595.30044,433.79849 591.34109,432.96614 C 588.49864,432.46213 586.21056,432.26141 583.32528,432.27864 z " id="path10648" sodipodi:nodetypes="cccccccccccccccc" style="fill:#400081;fill-opacity:1.0000000;fill-rule:evenodd;stroke:none;stroke-width:1.0000005px;stroke-linecap:butt;stroke-linejoin:miter;stroke-opacity:1.0000000"/>
      <path d="M 601.54854,438.39272 C 601.54854,438.39272 594.03521,442.86011 589.36476,442.86011 C 590.17700,450.77957 583.66714,485.48060 582.16397,493.95871 C 582.57010,495.78628 594.67216,493.60904 596.09360,493.20291 C 594.56766,485.83026 598.97360,452.24655 601.54854,438.39272 z " id="path10650" sodipodi:nodetypes="ccccc" style="fill:#ffffff;fill-opacity:0.14117648;fill-rule:evenodd;stroke:none;stroke-width:1.0000000px;stroke-linecap:butt;stroke-linejoin:miter;stroke-opacity:1.0000000"/>
      <path d="M 586.75553,443.63429 C 586.75553,443.63429 601.10518,438.85108 600.94024,437.36663 C 600.77530,435.88218 593.02319,431.59378 583.95158,431.26391 C 581.14762,431.75872 595.00245,439.01602 586.75553,443.63429 z " id="path10686" sodipodi:nodetypes="cccc" style="fill:#ffffff;fill-opacity:0.12549020;fill-rule:evenodd;stroke:none;stroke-width:1.0000000px;stroke-linecap:butt;stroke-linejoin:miter;stroke-opacity:1.0000000"/>
      <path d="M 582.84375,431.46875 C 576.52498,431.62494 569.66718,432.46714 564.56250,436.53125 C 561.84700,438.06284 562.11331,440.70200 562.75000,443.25000 C 563.83098,455.14476 562.24622,467.03948 560.09375,478.75000 C 552.40741,478.72462 544.42266,479.29317 537.68750,483.21875 C 534.10393,485.29417 531.09075,490.04584 533.59375,494.03125 C 537.19391,499.48020 543.85690,502.06328 549.82819,503.28088 C 565.70637,506.04408 582.19946,506.60598 598.25000,505.21838 C 605.63202,504.31277 613.47145,502.37301 619.90625,498.31250 C 622.63166,496.34943 625.69589,492.60816 623.56250,489.18750 C 620.29351,484.88644 614.60633,483.68839 609.65625,482.37500 C 604.93412,481.35028 600.15330,480.70777 595.34375,480.25000 C 595.90036,474.40565 596.72620,468.57821 597.59375,462.78125 C 598.99542,454.38337 600.51691,446.00386 602.34375,437.68750 C 600.07464,433.99114 595.42810,432.98860 591.46875,432.15625 C 588.62630,431.65224 585.72903,431.45152 582.84375,431.46875 z M 582.59375,433.09375 C 588.31857,433.18224 594.43827,432.91690 599.37500,436.09375 C 602.27659,437.53641 600.24736,440.78003 600.12500,443.15625 C 597.77739,455.42878 595.08364,467.74623 593.84375,480.18750 C 593.77675,479.94015 593.93666,490.47164 592.12500,492.25000 C 587.89877,495.04108 583.84331,494.46329 578.93750,494.71875 C 572.51021,494.75490 566.43168,494.91847 560.59375,492.00000 C 558.25768,490.47587 560.73446,486.61044 560.68750,484.12500 C 560.99877,482.55295 565.54120,454.66398 564.37500,442.65625 C 562.97542,439.32594 564.84025,437.40335 567.78125,436.06250 C 572.40727,433.69285 577.46068,433.18000 582.59375,433.09375 z M 599.75000,438.75000 C 594.44788,441.77978 587.59860,443.27871 581.21875,443.46875 C 574.83890,443.65879 568.43146,442.89392 564.50000,439.81250 L 564.25000,440.00000 C 568.45551,443.29621 574.83467,445.41357 581.37500,445.21875 C 587.91533,445.02393 594.65114,442.50292 600.12500,439.37500 L 599.75000,438.75000 z M 559.65625,480.50000 C 559.32971,482.24879 559.28109,483.26062 558.93750,485.00000 C 558.58124,487.29751 557.71212,489.73875 557.62500,491.93750 C 562.28741,495.36376 568.30385,495.96218 573.90625,496.37500 C 580.11998,496.57711 586.62460,496.48292 592.40625,493.93750 C 594.86912,493.02275 595.80705,490.97752 594.75000,488.65625 C 594.73700,486.14096 594.93940,484.28259 595.15625,481.78125 C 600.19002,482.41540 606.05602,483.24387 610.34375,484.21875 C 614.68525,485.46277 619.17420,486.45341 622.09375,490.18750 C 623.92941,493.31252 620.70620,495.40297 618.25000,497.06250 C 611.28503,501.09648 603.28433,502.93658 595.43738,503.73407 C 579.99991,504.79397 565.23810,503.94828 550.00000,501.15600 C 544.44758,499.93245 538.09171,498.35236 534.90625,493.09375 C 532.78133,489.12613 536.81832,485.32464 540.18750,483.59375 C 545.58329,480.89178 555.82035,480.12173 559.65625,480.50000 z " id="path10568" sodipodi:nodetypes="ccccccccccccccccccccccccccccccccccccccccccccccccc" style="fill:#000000;fill-opacity:1.0000000;fill-rule:evenodd;stroke:none;stroke-width:1.0000005px;stroke-linecap:butt;stroke-linejoin:miter;stroke-opacity:1.0000000"/>
      <path d="M 562.39475,476.37887 C 560.20458,475.72394 558.75450,476.94948 559.01600,478.83440 C 558.82135,481.80255 557.94289,484.46618 557.10105,487.22989 C 556.83778,490.38488 558.97126,491.73866 561.76984,492.64985 C 565.43648,493.90679 568.91183,494.58124 572.73900,495.07957 C 578.39484,495.64459 583.37354,495.45889 588.94307,494.25233 C 590.70143,493.46112 591.70193,491.95074 593.73202,492.44152 C 595.31952,492.41529 596.60191,492.04812 596.28678,490.69843 C 595.99832,489.14733 594.70003,487.56913 594.77534,485.93442 C 594.60047,483.47214 594.77044,481.83136 595.05898,479.39262 C 593.78056,477.72527 592.60370,479.08356 590.98955,479.47639 C 586.13820,480.72010 581.31497,481.37889 576.52360,479.73661 C 571.77327,478.51654 567.31737,476.78239 562.39475,476.37887 z " id="path10666" sodipodi:nodetypes="ccccccccccccc" style="fill:#006dae;fill-opacity:1.0000000;fill-rule:evenodd;stroke:none;stroke-width:1.0000000px;stroke-linecap:butt;stroke-linejoin:miter;stroke-opacity:1.0000000"/>
      <path d="M 591.29871,478.96323 C 591.29871,478.96323 594.75078,478.55710 594.34465,479.97854 C 593.93853,481.39998 593.48437,483.83674 594.29662,486.67962 C 595.10887,489.52251 595.65318,492.64175 594.84092,492.84482 C 594.02867,493.04788 582.01676,496.45192 579.37694,496.04579 C 579.58000,491.98453 584.59763,485.86737 580.94249,482.41530 C 581.95781,480.18160 589.06501,479.16629 591.29871,478.96323 z " id="path10668" sodipodi:nodetypes="ccccccc" style="fill:#ffffff;fill-opacity:0.12549020;fill-rule:evenodd;stroke:none;stroke-width:1.0000000px;stroke-linecap:butt;stroke-linejoin:miter;stroke-opacity:1.0000000"/>
      <path d="M 562.03125,475.06250 C 559.84108,474.40757 558.39100,477.05455 558.65250,478.93947 C 558.45785,481.90762 556.56407,484.36819 555.72223,487.13190 C 555.45896,490.28689 558.20163,492.85905 561.00021,493.77024 C 564.66685,495.02718 568.54833,495.49856 572.37550,495.99689 C 578.03134,496.56191 583.82229,496.57928 589.39182,495.37272 C 591.15018,494.58151 592.96293,493.27419 594.99302,493.76497 C 596.58052,493.73874 597.25373,491.95013 596.93860,490.60044 C 596.65014,489.04934 595.75797,487.67420 595.83328,486.03949 C 595.65841,483.57721 596.03144,481.12418 596.31998,478.68544 C 595.04156,477.01809 592.84939,478.17331 591.23524,478.56614 C 586.38389,479.80985 581.15453,480.06252 576.36316,478.42024 C 571.61283,477.20017 566.95387,475.46602 562.03125,475.06250 z M 584.37687,481.13980 C 587.64125,480.87853 590.96271,480.17850 594.20343,479.76532 C 593.81527,483.80123 593.46889,486.66001 595.12192,490.50257 C 595.23116,492.90575 592.36541,491.19854 590.96902,492.00247 C 589.06171,493.02003 586.99418,493.91252 584.82741,494.05848 C 576.99611,494.71399 570.64266,494.32911 563.05167,492.25476 C 560.60167,491.52262 557.85487,490.57733 557.76132,487.74947 C 557.84182,485.60859 558.87480,484.39081 559.43711,482.38719 C 560.37644,480.55041 559.80682,478.34757 561.55824,476.98792 C 561.87550,476.81111 576.20817,481.70949 584.37687,481.13980 z " id="path10652" sodipodi:nodetypes="ccccccccccccccccccccccc" style="fill:#000000;fill-opacity:1.0000000;fill-rule:evenodd;stroke:none;stroke-width:1.0000000px;stroke-linecap:butt;stroke-linejoin:miter;stroke-opacity:1.0000000"/>
      <path d="M 564.87512,481.75025 C 563.08961,481.93311 561.65772,483.11818 560.15625,484.15625 C 561.10854,485.25792 562.42887,484.84031 563.50622,484.65670 C 565.48313,484.15194 568.08323,484.86312 569.42882,485.59415 C 572.83075,488.05069 578.46359,492.69836 582.67029,492.55862 C 584.00829,492.35859 586.56403,490.74592 587.83372,490.33539 C 589.11479,489.62499 584.14392,490.96137 582.64017,490.75671 C 579.52530,490.64460 577.17346,489.42815 574.47924,487.93924 C 573.00584,487.01013 571.31147,485.60254 570.42814,484.13002 C 569.17826,482.67820 566.68696,481.52873 564.87512,481.75025 z " id="path10670" sodipodi:nodetypes="cccccccccc" style="fill:#000000;fill-opacity:1.0000000;fill-rule:evenodd;stroke:none;stroke-width:1.0000000px;stroke-linecap:butt;stroke-linejoin:miter;stroke-opacity:1.0000000"/>
      <path d="M 559.46574,479.50193 C 559.46574,479.50193 541.78149,481.10959 535.35085,486.73639 C 535.61879,491.02349 549.28390,501.20534 567.23610,495.31059 C 561.60929,493.16704 559.46575,493.43498 558.39397,490.75555 C 557.32220,488.07612 556.78631,485.93256 559.46574,479.50193 z " id="path1829" sodipodi:nodetypes="ccccc" style="fill:#000000;fill-opacity:0.082352944;fill-rule:evenodd;stroke:none;stroke-width:1.0000000px;stroke-linecap:butt;stroke-linejoin:miter;stroke-opacity:1.0000000"/>
      <path d="M 560.40354,478.74037 C 560.40354,478.74037 544.86284,479.00831 538.43220,484.63511 C 538.70014,488.92221 547.54227,495.35286 566.29830,494.01314 C 560.67149,491.86959 560.40355,492.67342 559.33177,489.99399 C 558.26000,487.31456 557.72411,485.17100 560.40354,478.74037 z " id="path2589" sodipodi:nodetypes="ccccc" style="fill:#000000;fill-opacity:0.082352944;fill-rule:evenodd;stroke:none;stroke-width:1.0000000px;stroke-linecap:butt;stroke-linejoin:miter;stroke-opacity:1.0000000"/>
    </g>
  </g>
</svg>
