<?xml version="1.0" encoding="UTF-8" standalone="no"?>
<!-- Created with Inkscape (http://www.inkscape.org/) --><svg height="35.000000mm" id="svg943" inkscape:version="0.42" sodipodi:docbase="D:\FearZip\Imagen\Proyectos\SVG" sodipodi:docname="linux hacked.svg" sodipodi:version="0.32" width="120.00000mm" xmlns="http://www.w3.org/2000/svg" xmlns:cc="http://web.resource.org/cc/" xmlns:dc="http://purl.org/dc/elements/1.1/" xmlns:inkscape="http://www.inkscape.org/namespaces/inkscape" xmlns:rdf="http://www.w3.org/1999/02/22-rdf-syntax-ns#" xmlns:sodipodi="http://inkscape.sourceforge.net/DTD/sodipodi-0.dtd" xmlns:svg="http://www.w3.org/2000/svg">
  <metadata>
    <rdf:RDF xmlns:cc="http://web.resource.org/cc/" xmlns:dc="http://purl.org/dc/elements/1.1/" xmlns:rdf="http://www.w3.org/1999/02/22-rdf-syntax-ns#">
      <cc:Work rdf:about="">
        <dc:title>Linux Hacked</dc:title>
        <dc:description></dc:description>
        <dc:subject>
          <rdf:Bag>
            <rdf:li>logos</rdf:li>
          </rdf:Bag>
        </dc:subject>
        <dc:publisher>
          <cc:Agent rdf:about="http://www.openclipart.org">
            <dc:title></dc:title>
          </cc:Agent>
        </dc:publisher>
        <dc:creator>
          <cc:Agent>
            <dc:title>FearZip</dc:title>
          </cc:Agent>
        </dc:creator>
        <dc:rights>
          <cc:Agent>
            <dc:title>FearZip</dc:title>
          </cc:Agent>
        </dc:rights>
        <dc:date></dc:date>
        <dc:format>image/svg+xml</dc:format>
        <dc:type rdf:resource="http://purl.org/dc/dcmitype/StillImage"/>
        <cc:license rdf:resource="http://web.resource.org/cc/PublicDomain"/>
        <dc:language>es-ES</dc:language>
      </cc:Work>
      <cc:License rdf:about="http://web.resource.org/cc/PublicDomain">
        <cc:permits rdf:resource="http://web.resource.org/cc/Reproduction"/>
        <cc:permits rdf:resource="http://web.resource.org/cc/Distribution"/>
        <cc:permits rdf:resource="http://web.resource.org/cc/DerivativeWorks"/>
      </cc:License>
    </rdf:RDF>
  </metadata>
  <defs id="defs945"/>
  <sodipodi:namedview bordercolor="#666666" borderopacity="1.0" id="base" inkscape:current-layer="Layer 1" inkscape:cx="213.58706" inkscape:cy="49.606304" inkscape:pageopacity="0.0" inkscape:pageshadow="2" inkscape:window-height="707" inkscape:window-width="1024" inkscape:window-x="-4" inkscape:window-y="-4" inkscape:zoom="1.6609954" pagecolor="#ffffff"/>
  <g id="Layer 1" style="fill-rule:evenodd;" transform="matrix(6.462351e-2,0.000000,0.000000,6.462351e-2,-465.9484,-897.6512)">
    <path class="fil0" d="M 12301.838,14553.419 L 12810.838,14553.419 L 12810.838,14638.419 L 12775.838,14638.419 C 12754.838,14638.419 12736.838,14640.419 12719.838,14645.419 C 12709.838,14648.419 12701.838,14653.419 12694.838,14661.419 C 12688.838,14668.419 6956.3457,15039.753 7217.2006,15604.728 C 7223.9076,15619.254 12698.838,14721.419 12723.838,14752.419 L 12867.838,14934.419 L 13036.838,14752.419 C 13068.838,14719.419 13083.838,14693.419 13083.838,14676.419 C 13083.838,14664.419 13077.838,14655.419 13067.838,14648.419 C 13056.838,14641.419 13033.838,14638.419 12997.838,14638.419 L 12959.838,14638.419 L 12959.838,14553.419 L 13390.838,14553.419 L 13390.838,14638.419 C 13348.838,14640.419 13311.838,14649.419 13281.838,14664.419 C 13250.838,14680.419 13213.838,14709.419 13172.838,14752.419 L 12940.838,14993.419 L 13229.838,15321.419 L 13240.838,15336.419 C 13268.838,15372.419 13300.838,15401.419 13335.838,15424.419 C 13354.838,15436.419 13385.838,15443.419 13426.838,15444.419 L 13426.838,15529.419 L 12929.838,15529.419 L 12929.838,15444.419 L 12972.838,15444.419 C 13004.838,15444.419 13025.838,15442.419 13034.838,15438.419 C 13048.838,15431.419 13056.838,15420.419 13056.838,15404.419 C 13056.838,15389.419 13039.838,15361.419 13007.838,15321.419 L 12823.838,15096.419 L 12618.838,15321.419 L 12598.838,15346.419 L 12587.838,15358.419 C 12570.838,15376.419 12561.838,15392.419 12561.838,15406.419 C 12561.838,15419.419 12566.838,15429.419 12577.838,15435.419 C 12587.838,15441.419 12611.838,15444.419 12647.838,15444.419 L 12688.838,15444.419 L 12688.838,15529.419 L 12262.838,15529.419 L 12262.838,15444.419 C 12295.838,15443.419 12321.838,15440.419 12340.838,15433.419 C 12358.838,15427.419 12377.838,15417.419 12394.838,15404.419 C 12425.838,15379.419 12446.838,15360.419 12460.838,15346.419 L 12756.838,15041.419 L 12504.838,14752.419 C 12473.838,14716.419 12448.838,14691.419 12429.838,14677.419 C 12411.838,14663.419 12392.838,14652.419 12375.838,14647.419 C 12357.838,14641.419 12333.838,14638.419 12301.838,14638.419 L 12301.838,14553.419 z M 10876.838,14553.419 L 11259.838,14538.419 L 11259.838,15189.419 C 11259.838,15246.419 11267.838,15292.419 11283.838,15326.419 C 11298.838,15359.419 11323.838,15385.419 11355.838,15404.419 C 11388.838,15422.419 11426.838,15432.419 11470.838,15432.419 C 11524.838,15432.419 11585.838,15417.419 11654.838,15388.419 C 11722.838,15359.419 11790.838,15316.419 11858.838,15259.419 L 11858.838,14788.419 C 11858.838,14738.419 11855.838,14705.419 11847.838,14689.419 C 11840.838,14674.419 11826.838,14661.419 11808.838,14652.419 C 11789.838,14643.419 11759.838,14638.419 11719.838,14638.419 L 11645.838,14638.419 L 11645.838,14553.419 L 12028.838,14538.419 L 12028.838,15292.419 C 12028.838,15341.419 12032.838,15374.419 12040.838,15393.419 C 12049.838,15411.419 12061.838,15424.419 12076.838,15432.419 C 12092.838,15440.419 12124.838,15444.419 12172.838,15444.419 L 12203.838,15444.419 L 12203.838,15529.419 L 11868.838,15546.419 L 11868.838,15359.419 C 11775.838,15433.419 11695.838,15483.419 11626.838,15511.419 C 11557.838,15539.419 11487.838,15553.419 11416.838,15553.419 C 11364.838,15553.419 11318.838,15546.419 11279.838,15532.419 C 11241.838,15518.419 11206.838,15496.419 11177.838,15468.419 C 11148.838,15440.419 11125.838,15406.419 11110.838,15366.419 C 11094.838,15326.419 11087.838,15284.419 11087.838,15239.419 L 11087.838,14778.419 C 11087.838,14737.419 11083.838,14709.419 11076.838,14692.419 C 11068.838,14676.419 11056.838,14662.419 11039.838,14652.419 C 11022.838,14643.419 10998.838,14638.419 10968.838,14638.419 L 10876.838,14638.419 L 10876.838,14553.419 z M 9638.8375,14699.419 L 9638.8375,14614.419 C 9698.8375,14607.419 9743.8375,14599.419 9773.8375,14589.419 C 9802.8375,14580.419 9845.8375,14560.419 9901.8375,14529.419 L 9974.8375,14529.419 L 9974.8375,14721.419 C 10063.838,14646.419 10139.838,14595.419 10202.838,14569.419 C 10265.838,14542.419 10329.838,14529.419 10393.838,14529.419 C 10449.838,14529.419 10498.838,14538.419 10540.838,14556.419 C 10583.838,14575.419 10618.838,14601.419 10644.838,14632.419 C 10670.838,14663.419 10688.838,14700.419 10697.838,14740.419 C 10702.838,14765.419 10705.838,14803.419 10705.838,14853.419 L 10705.838,15298.419 C 10705.838,15351.419 10709.838,15386.419 10717.838,15401.419 C 10724.838,15416.419 10737.838,15427.419 10754.838,15434.419 C 10770.838,15440.419 10812.838,15444.419 10878.838,15444.419 L 10878.838,15529.419 L 10357.838,15529.419 L 10357.838,15444.419 L 10386.838,15444.419 C 10434.838,15444.419 10467.838,15439.419 10485.838,15431.419 C 10502.838,15422.419 10515.838,15409.419 10523.838,15392.419 C 10530.838,15376.419 10534.838,15341.419 10534.838,15289.419 L 10534.838,14917.419 C 10534.838,14840.419 10528.838,14787.419 10515.838,14757.419 C 10503.838,14728.419 10482.838,14703.419 10452.838,14685.419 C 10422.838,14667.419 10384.838,14657.419 10338.838,14657.419 C 10283.838,14657.419 10225.838,14671.419 10163.838,14699.419 C 10101.838,14727.419 10041.838,14768.419 9983.8375,14823.419 L 9983.8375,15289.419 C 9983.8375,15341.419 9987.8375,15377.419 9994.8375,15394.419 C 10002.838,15412.419 10016.838,15425.419 10032.838,15434.419 C 10044.838,15440.419 10077.838,15444.419 10130.838,15444.419 L 10159.838,15444.419 L 10159.838,15529.419 L 9638.8375,15529.419 L 9638.8375,15444.419 L 9663.8375,15444.419 C 9714.8375,15444.419 9748.8375,15439.419 9766.8375,15431.419 C 9784.8375,15423.419 9797.8375,15407.419 9804.8375,15386.419 C 9808.8375,15376.419 9810.8375,15338.419 9810.8375,15275.419 L 9810.8375,14699.419 L 9638.8375,14699.419 z M 7386.8375,14118.419 L 7933.8375,14118.419 L 7933.8375,14204.419 L 7883.8375,14204.419 C 7844.8375,14204.419 7816.8375,14208.419 7800.8375,14215.419 C 7784.8375,14223.419 7772.8375,14233.419 7765.8375,14248.419 C 7757.8375,14262.419 7754.8375,14287.419 7754.8375,14324.419 L 7754.8375,15307.419 C 7754.8375,15352.419 7755.8375,15379.419 7759.8375,15388.419 C 7763.8375,15400.419 7772.8375,15409.419 7785.8375,15415.419 C 7794.8375,15419.419 7822.8375,15421.419 7867.8375,15421.419 L 7943.8375,15421.419 C 8030.8375,15421.419 8105.8375,15408.419 8169.8375,15383.419 C 8233.8375,15357.419 8289.8375,15321.419 8335.8375,15272.419 C 8381.8375,15224.419 8426.8375,15152.419 8469.8375,15057.419 L 8560.8375,15087.419 L 8402.8375,15529.419 L 7386.8375,15529.419 L 7386.8375,15444.419 L 7431.8375,15444.419 C 7474.8375,15444.419 7503.8375,15440.419 7518.8375,15433.419 C 7533.8375,15425.419 7544.8375,15413.419 7552.8375,15396.419 C 7560.8375,15379.419 7564.8375,15349.419 7564.8375,15307.419 L 7564.8375,14348.419 C 7564.8375,14299.419 7561.8375,14267.419 7553.8375,14250.419 C 7546.8375,14234.419 7535.8375,14222.419 7521.8375,14215.419 C 7507.8375,14208.419 7477.8375,14204.419 7431.8375,14204.419 L 7386.8375,14204.419 L 7386.8375,14118.419 z M 8832.8375,15496.419 C 8781.8375,15517.419 8719.8375,15528.419 8645.8375,15529.419 C 8934.8375,15408.419 8415.8375,14471.419 9246.8375,14053.419 C 9179.8375,14446.419 9445.8375,14581.419 9422.8375,14905.419 C 9405.8375,15148.419 9433.8375,15320.419 9552.8375,15520.419 C 9312.8375,15423.419 9105.8375,15418.419 8832.8375,15496.419 z M 8906.8375,15455.419 C 9135.8375,15311.419 9310.8375,15317.419 9539.8375,15508.419 C 9328.8375,15306.419 9366.8375,15022.419 9369.8375,14904.419 C 9380.8375,14539.419 9099.8375,14454.419 9241.8375,14059.419 C 8880.8375,14255.419 9274.8375,15185.419 8906.8375,15455.419 z " id="path13" sodipodi:nodetypes="ccccssscccsccccccccccccccccccscccccsccccccccccccccccccccscccccccccccccccccsscscccccccccccccccscscccccccccccccccsssccccccccccscccccccccccccscccccccccccscccscccccccccccccc"/>
  </g>
</svg>
