<?xml version="1.0" encoding="UTF-8" standalone="no"?>
<!-- Created with Inkscape (http://www.inkscape.org/) --><svg height="297mm" id="svg1" inkscape:version="0.41" sodipodi:docbase="/Users/jeanmaur" sodipodi:docname="abracadabra.svg" sodipodi:version="0.32" width="210mm" xmlns="http://www.w3.org/2000/svg" xmlns:cc="http://web.resource.org/cc/" xmlns:dc="http://purl.org/dc/elements/1.1/" xmlns:inkscape="http://www.inkscape.org/namespaces/inkscape" xmlns:rdf="http://www.w3.org/1999/02/22-rdf-syntax-ns#" xmlns:sodipodi="http://inkscape.sourceforge.net/DTD/sodipodi-0.dtd" xmlns:svg="http://www.w3.org/2000/svg" xmlns:xlink="http://www.w3.org/1999/xlink">
  <metadata>
    <rdf:RDF xmlns:cc="http://web.resource.org/cc/" xmlns:dc="http://purl.org/dc/elements/1.1/" xmlns:rdf="http://www.w3.org/1999/02/22-rdf-syntax-ns#">
      <cc:Work rdf:about="">
        <dc:title>Abracadabra</dc:title>
        <dc:description></dc:description>
        <dc:subject>
          <rdf:Bag>
            <rdf:li>festive</rdf:li>
            <rdf:li>entertainment</rdf:li>
            <rdf:li>musichall</rdf:li>
          </rdf:Bag>
        </dc:subject>
        <dc:publisher>
          <cc:Agent rdf:about="http://www.openclipart.org">
            <dc:title>Licence art libre - copyleft</dc:title>
          </cc:Agent>
        </dc:publisher>
        <dc:creator>
          <cc:Agent>
            <dc:title>Jean-Maurice Le Clech</dc:title>
          </cc:Agent>
        </dc:creator>
        <dc:rights>
          <cc:Agent>
            <dc:title>Licence art libre - copyleft</dc:title>
          </cc:Agent>
        </dc:rights>
        <dc:date></dc:date>
        <dc:format>image/svg+xml</dc:format>
        <dc:type rdf:resource="http://purl.org/dc/dcmitype/StillImage"/>
        <cc:license rdf:resource="http://web.resource.org/cc/PublicDomain"/>
        <dc:language>en</dc:language>
      </cc:Work>
      <cc:License rdf:about="http://web.resource.org/cc/PublicDomain">
        <cc:permits rdf:resource="http://web.resource.org/cc/Reproduction"/>
        <cc:permits rdf:resource="http://web.resource.org/cc/Distribution"/>
        <cc:permits rdf:resource="http://web.resource.org/cc/DerivativeWorks"/>
      </cc:License>
    </rdf:RDF>
  </metadata>
  <defs id="defs3">
    <linearGradient id="linearGradient897">
      <stop id="stop898" offset="0.0000000" style="stop-color:#ffff00;stop-opacity:1.0000000;"/>
      <stop id="stop899" offset="0.58044773" style="stop-color:#ff8200;stop-opacity:1.0000000;"/>
      <stop id="stop900" offset="1.0000000" style="stop-color:#ff0000;stop-opacity:1.0000000;"/>
    </linearGradient>
    <linearGradient id="linearGradient879">
      <stop id="stop880" offset="0.0000000" style="stop-color:#000000;stop-opacity:1.0000000;"/>
      <stop id="stop883" offset="0.50000000" style="stop-color:#000000;stop-opacity:1.0000000;"/>
      <stop id="stop882" offset="1.0000000" style="stop-color:#ffffff;stop-opacity:0.0000000;"/>
    </linearGradient>
    <linearGradient id="linearGradient865">
      <stop id="stop866" offset="0.0000000" style="stop-color:#000000;stop-opacity:1.0000000;"/>
      <stop id="stop867" offset="0.75000000" style="stop-color:#e4e3e4;stop-opacity:1.0000000;"/>
      <stop id="stop868" offset="1.0000000" style="stop-color:#000000;stop-opacity:1.0000000;"/>
    </linearGradient>
    <linearGradient id="linearGradient844">
      <stop id="stop845" offset="0.0000000" style="stop-color:#7a7f7f;stop-opacity:1.0000000;"/>
      <stop id="stop848" offset="0.75000000" style="stop-color:#ffffff;stop-opacity:1.0000000;"/>
      <stop id="stop846" offset="1.0000000" style="stop-color:#1e1d1f;stop-opacity:1.0000000;"/>
    </linearGradient>
    <linearGradient id="linearGradient839">
      <stop id="stop840" offset="0.0000000" style="stop-color:#e1dfdf;stop-opacity:1.0000000;"/>
      <stop id="stop841" offset="1.0000000" style="stop-color:#1e1d1f;stop-opacity:1.0000000;"/>
    </linearGradient>
    <linearGradient id="linearGradient835">
      <stop id="stop836" offset="0" style="stop-color:#000;stop-opacity:1;"/>
      <stop id="stop837" offset="1" style="stop-color:#fff;stop-opacity:1;"/>
    </linearGradient>
    <linearGradient id="linearGradient838" x1="0.14093959" x2="1.0000000" xlink:href="#linearGradient839" y1="0.53906250" y2="0.50000000"/>
    <linearGradient id="linearGradient842" x1="0.0000000" x2="1.0000000" xlink:href="#linearGradient839" y1="0.50000000" y2="0.50000000"/>
    <linearGradient id="linearGradient843" x1="0.080586083" x2="0.91208792" xlink:href="#linearGradient844" y1="0.46093750" y2="0.55468750"/>
    <linearGradient id="linearGradient849" x1="0.17725752" x2="0.60200667" xlink:href="#linearGradient839" y1="0.50000000" y2="0.50000000"/>
    <linearGradient id="linearGradient864" xlink:href="#linearGradient865"/>
    <linearGradient id="linearGradient869" x1="0.56634307" x2="0.57281554" xlink:href="#linearGradient865" y1="0.55000001" y2="0.85000002"/>
    <linearGradient id="linearGradient872" x1="0.74433655" x2="0.74757284" xlink:href="#linearGradient865" y1="0.55000001" y2="0.85000002"/>
    <radialGradient cx="0.43599051" cy="0.42112920" fx="0.44283444" fy="0.42556283" id="radialGradient878" r="0.84764332" xlink:href="#linearGradient879"/>
    <radialGradient cx="0.51324987" cy="0.47762462" fx="0.51324987" fy="0.47762462" id="radialGradient896" r="0.75464487" xlink:href="#linearGradient897"/>
    <radialGradient id="radialGradient901" xlink:href="#linearGradient897"/>
    <radialGradient cx="0.50000000" cy="0.50000000" fx="0.50000000" fy="0.50000000" id="radialGradient902" r="0.60496616" xlink:href="#linearGradient897"/>
    <radialGradient id="radialGradient903" xlink:href="#linearGradient897"/>
    <radialGradient id="radialGradient904" xlink:href="#linearGradient897"/>
    <radialGradient cx="0.50000000" cy="0.50000000" fx="0.50000000" fy="0.50000000" id="radialGradient905" r="0.69119191" xlink:href="#linearGradient897"/>
    <radialGradient id="radialGradient906" xlink:href="#linearGradient897"/>
    <radialGradient id="radialGradient907" xlink:href="#linearGradient897"/>
    <linearGradient gradientTransform="scale(0.978768,1.021693)" gradientUnits="userSpaceOnUse" id="linearGradient17129" inkscape:collect="always" x1="200.03232" x2="508.60101" xlink:href="#linearGradient839" y1="557.00936" y2="542.97837"/>
    <linearGradient gradientTransform="scale(1.459400,0.685213)" gradientUnits="userSpaceOnUse" id="linearGradient17131" inkscape:collect="always" x1="89.025635" x2="382.29234" xlink:href="#linearGradient844" y1="595.91768" y2="628.98285"/>
    <linearGradient gradientTransform="scale(1.536514,0.650824)" gradientUnits="userSpaceOnUse" id="linearGradient17133" inkscape:collect="always" x1="61.514473" x2="388.23588" xlink:href="#linearGradient839" y1="612.05464" y2="612.05464"/>
    <linearGradient gradientTransform="scale(1.533206,0.652228)" gradientUnits="userSpaceOnUse" id="linearGradient17135" inkscape:collect="always" x1="145.34208" x2="248.13947" xlink:href="#linearGradient839" y1="593.37514" y2="593.37514"/>
    <linearGradient gradientTransform="scale(4.046889,0.247103)" gradientUnits="userSpaceOnUse" id="linearGradient17137" inkscape:collect="always" x1="143.09009" x2="143.63585" xlink:href="#linearGradient865" y1="1054.8884" y2="1105.4794"/>
    <radialGradient cx="118.80224" cy="379.42869" fx="118.80224" fy="379.42869" gradientTransform="scale(0.975659,1.024949)" gradientUnits="userSpaceOnUse" id="radialGradient17139" inkscape:collect="always" r="45.171548" xlink:href="#linearGradient897"/>
    <radialGradient cx="146.94307" cy="337.36051" fx="146.94307" fy="337.36051" gradientTransform="scale(1.021346,0.979100)" gradientUnits="userSpaceOnUse" id="radialGradient17141" inkscape:collect="always" r="19.954281" xlink:href="#linearGradient897"/>
    <radialGradient cx="155.34339" cy="448.72062" fx="155.34339" fy="448.72062" gradientTransform="scale(1.001203,0.998798)" gradientUnits="userSpaceOnUse" id="radialGradient17143" inkscape:collect="always" r="20.357552" xlink:href="#linearGradient897"/>
    <radialGradient cx="27.147141" cy="354.15023" fx="27.147141" fy="354.15023" gradientTransform="scale(0.986887,1.013287)" gradientUnits="userSpaceOnUse" id="radialGradient17145" inkscape:collect="always" r="15.965594" xlink:href="#linearGradient897"/>
    <radialGradient cx="93.934482" cy="302.54745" fx="93.934482" fy="302.54745" gradientTransform="scale(1.022888,0.977624)" gradientUnits="userSpaceOnUse" id="radialGradient17147" inkscape:collect="always" r="16.899773" xlink:href="#linearGradient897"/>
    <radialGradient cx="127.13639" cy="239.40109" fx="127.13639" fy="239.40109" gradientTransform="scale(1.004463,0.995557)" gradientUnits="userSpaceOnUse" id="radialGradient17149" inkscape:collect="always" r="11.784214" xlink:href="#linearGradient897"/>
    <radialGradient cx="95.238357" cy="338.68163" fx="95.238357" fy="338.68163" gradientTransform="scale(0.990726,1.009361)" gradientUnits="userSpaceOnUse" id="radialGradient17151" inkscape:collect="always" r="11.309457" xlink:href="#linearGradient897"/>
    <radialGradient cx="158.87154" cy="383.68257" fx="158.87154" fy="383.68257" gradientTransform="scale(1.059165,0.944140)" gradientUnits="userSpaceOnUse" id="radialGradient17153" inkscape:collect="always" r="19.123624" xlink:href="#linearGradient897"/>
    <linearGradient gradientTransform="matrix(1.342783,0.000000,0.000000,0.571222,-39.82628,220.5032)" gradientUnits="userSpaceOnUse" id="linearGradient17170" inkscape:collect="always" x1="145.34208" x2="248.13947" xlink:href="#linearGradient839" y1="593.37514" y2="593.37514"/>
    <linearGradient gradientTransform="matrix(1.345680,0.000000,0.000000,0.569992,-39.82628,220.5032)" gradientUnits="userSpaceOnUse" id="linearGradient17173" inkscape:collect="always" x1="61.514473" x2="388.23588" xlink:href="#linearGradient839" y1="612.05464" y2="612.05464"/>
    <linearGradient gradientTransform="matrix(1.278144,0.000000,0.000000,0.600110,-39.82628,220.5032)" gradientUnits="userSpaceOnUse" id="linearGradient17176" inkscape:collect="always" x1="89.025635" x2="382.29234" xlink:href="#linearGradient844" y1="595.91768" y2="628.98285"/>
    <linearGradient gradientTransform="matrix(0.857206,0.000000,0.000000,0.894800,-39.82628,220.5032)" gradientUnits="userSpaceOnUse" id="linearGradient17179" inkscape:collect="always" x1="200.03232" x2="508.60101" xlink:href="#linearGradient839" y1="557.00936" y2="542.97837"/>
    <radialGradient cx="158.87154" cy="383.68257" fx="158.87154" fy="383.68257" gradientTransform="scale(1.059165,0.944140)" gradientUnits="userSpaceOnUse" id="radialGradient17196" inkscape:collect="always" r="19.123624" xlink:href="#linearGradient897"/>
    <radialGradient cx="95.238357" cy="338.68163" fx="95.238357" fy="338.68163" gradientTransform="scale(0.990726,1.009361)" gradientUnits="userSpaceOnUse" id="radialGradient17198" inkscape:collect="always" r="11.309457" xlink:href="#linearGradient897"/>
    <radialGradient cx="127.13639" cy="239.40109" fx="127.13639" fy="239.40109" gradientTransform="scale(1.004463,0.995557)" gradientUnits="userSpaceOnUse" id="radialGradient17200" inkscape:collect="always" r="11.784214" xlink:href="#linearGradient897"/>
    <radialGradient cx="93.934482" cy="302.54745" fx="93.934482" fy="302.54745" gradientTransform="scale(1.022888,0.977624)" gradientUnits="userSpaceOnUse" id="radialGradient17202" inkscape:collect="always" r="16.899773" xlink:href="#linearGradient897"/>
    <radialGradient cx="27.147141" cy="354.15023" fx="27.147141" fy="354.15023" gradientTransform="scale(0.986887,1.013287)" gradientUnits="userSpaceOnUse" id="radialGradient17204" inkscape:collect="always" r="15.965594" xlink:href="#linearGradient897"/>
    <radialGradient cx="155.34339" cy="448.72062" fx="155.34339" fy="448.72062" gradientTransform="scale(1.001203,0.998798)" gradientUnits="userSpaceOnUse" id="radialGradient17206" inkscape:collect="always" r="20.357552" xlink:href="#linearGradient897"/>
    <radialGradient cx="146.94307" cy="337.36051" fx="146.94307" fy="337.36051" gradientTransform="scale(1.021346,0.979100)" gradientUnits="userSpaceOnUse" id="radialGradient17208" inkscape:collect="always" r="19.954281" xlink:href="#linearGradient897"/>
    <radialGradient cx="118.80224" cy="379.42869" fx="118.80224" fy="379.42869" gradientTransform="scale(0.975659,1.024949)" gradientUnits="userSpaceOnUse" id="radialGradient17210" inkscape:collect="always" r="45.171548" xlink:href="#linearGradient897"/>
    <linearGradient gradientTransform="scale(4.046889,0.247103)" gradientUnits="userSpaceOnUse" id="linearGradient17212" inkscape:collect="always" x1="143.09009" x2="143.63585" xlink:href="#linearGradient865" y1="1054.8884" y2="1105.4794"/>
  </defs>
  <sodipodi:namedview bordercolor="#666666" borderopacity="1.0" id="base" inkscape:current-layer="svg1" inkscape:cx="487.78032" inkscape:cy="704.15193" inkscape:pageopacity="0.0" inkscape:pageshadow="2" inkscape:window-height="744" inkscape:window-width="1022" inkscape:window-x="0" inkscape:window-y="0" inkscape:zoom="0.41168172" pagecolor="#ffffff"/>
  <path d="M 102.20299,547.77582 C 97.550995,612.04421 103.37094,681.04378 88.247055,740.58098 C 88.247055,740.58098 87.374815,829.56799 224.31722,861.34905 C 346.43147,885.71455 379.57677,824.27114 379.57677,824.27114 C 379.57677,824.27114 386.55473,813.67744 387.42696,795.66817 C 367.28085,752.36827 396.14941,667.48452 396.14941,667.48452 L 296.71353,545.65706 L 102.20299,547.77582 z " id="path834" sodipodi:nodetypes="cccccccc" style="fill:url(#linearGradient17179);fill-opacity:1;fill-rule:evenodd;stroke:#000000;stroke-width:0.62500000;stroke-miterlimit:4.0000000;stroke-opacity:1.0000000"/>
  <path d="M 71.338485,511.16431 C 71.338485,511.16431 -28.972969,580.21874 116.50971,667.14226 C 272.51897,718.39785 413.61203,675.91440 425.01582,671.52833 C 485.57677,651.16842 483.85549,642.57272 488.27471,636.47537 C 493.07867,597.32905 384.72195,521.93545 278.11965,487.22620 C 211.53183,473.89017 117.75036,479.91543 71.338485,511.16431 z " id="path833" sodipodi:nodetypes="cccccc" style="fill:url(#linearGradient17176);fill-rule:evenodd;stroke-width:4.2510357"/>
  <path d="M 86.251135,501.10811 C 86.251135,501.10811 -28.972969,565.35431 116.50971,642.31481 C 272.51897,687.69557 424.13860,642.31481 424.13860,642.31481 C 448.73376,637.49190 487.36435,615.12470 482.13421,612.05622 C 478.16602,594.48352 384.72195,513.75136 278.11965,483.02043 C 211.53183,471.21295 132.66301,473.44092 86.251135,501.10811 z " id="path827" sodipodi:nodetypes="cccccc" style="fill:url(#linearGradient17173);fill-opacity:1;fill-rule:evenodd;stroke-width:4.0000000"/>
  <path d="M 129.03134,505.74444 C 129.03134,505.74444 45.738138,552.18674 150.90467,607.81995 C 263.68065,640.62480 338.19487,626.24146 375.91510,620.10095 C 384.04509,618.36900 431.26910,601.32297 421.34783,588.57827 C 418.47931,575.87531 316.93101,508.24692 266.85206,495.30086 C 207.30288,488.66784 162.58156,485.74438 129.03134,505.74444 z " id="path832" sodipodi:nodetypes="cccccc" style="fill:url(#linearGradient17170);fill-opacity:1;fill-rule:evenodd;stroke-width:2.8915203"/>
  <g id="g873" transform="matrix(0.743384,-0.463040,0.463040,0.743384,-50.57368,420.2352)">
    <path d="M 44.703245,238.04988 C 24.626315,238.04988 24.804002,279.11606 44.703245,279.11606 L 780.19437,279.11606 C 800.49777,279.11606 799.17518,238.04988 780.19437,238.04988 L 44.703245,238.04988 z " id="path862" sodipodi:nodetypes="czzzz" style="fill:#ffffff;fill-rule:evenodd;stroke:#000000;stroke-width:1.0492417pt"/>
    <path d="M 85.053607,238.36163 C 67.180355,238.36163 67.338539,278.80431 85.053607,278.80431 L 739.81598,278.80431 C 757.89084,278.80431 756.71342,238.36163 739.81598,238.36163 L 85.053607,238.36163 z " id="path871" sodipodi:nodetypes="czzzz" style="fill:url(#linearGradient17212);fill-rule:evenodd;stroke:#000000;stroke-width:0.98244114pt"/>
  </g>
  <path d="M 371.58741,698.29242 C 384.74563,689.52028 368.07855,753.55695 374.21904,790.39996 C 396.14941,821.10248 344.39375,850.05055 310.18237,857.94549 C 281.23429,862.33156 221.58370,856.19106 209.30269,846.54170 C 238.25077,844.78726 284.74315,858.82271 331.23554,819.34805 C 362.81526,764.08351 371.58741,698.29242 371.58741,698.29242 z " id="path876" sodipodi:nodetypes="cccccc" style="fill:#383838;fill-opacity:0.46153846;fill-rule:evenodd;stroke:none;stroke-width:1.0000000pt;stroke-linecap:butt;stroke-linejoin:miter;stroke-opacity:1.0000000"/>
  <polygon d="M 144.23244,409.32590 L 123.13169,405.64684 L 108.13864,420.94341 L 105.11714,399.73852 L 85.936128,390.20618 L 105.16948,380.77989 L 108.30802,359.59201 L 123.21638,374.97114 L 144.33712,371.40864 L 134.31764,390.33975 L 144.23244,409.32590 z " id="polygon888" inkscape:flatsided="false" inkscape:randomized="0.0000000" inkscape:rounded="0.0000000" points="144.23244,409.32590 123.13169,405.64684 108.13864,420.94342 105.11714,399.73852 85.936128,390.20618 105.16949,380.77990 108.30802,359.59201 123.21638,374.97114 144.33712,371.40865 134.31764,390.33976 144.23244,409.32590 " sodipodi:arg1="0.63107939" sodipodi:arg2="1.2593979" sodipodi:cx="118.19047" sodipodi:cy="390.29523" sodipodi:r1="32.254463" sodipodi:r2="16.127232" sodipodi:sides="5" sodipodi:type="star" style="fill:url(#radialGradient17210);fill-opacity:1;fill-rule:evenodd;stroke:none;stroke-width:1.0000000pt" transform="matrix(0.836809,0.258415,-0.258415,0.836809,65.51409,205.9675)"/>
  <polygon d="M 163.26311,349.22904 L 150.50499,342.91611 L 138.07177,349.84706 L 140.13325,335.76256 L 129.69945,326.07965 L 143.73163,323.68788 L 149.71641,310.77257 L 156.32730,323.37887 L 170.45989,325.07968 L 160.51346,335.26257 L 163.26311,349.22904 z " id="polygon889" inkscape:flatsided="false" inkscape:randomized="0.0000000" inkscape:rounded="0.0000000" points="163.26311,349.22905 150.50498,342.91613 138.07177,349.84707 140.13324,335.76257 129.69945,326.07967 143.73163,323.68789 149.71640,310.77258 156.32730,323.37888 170.45989,325.07969 160.51346,335.26258 163.26311,349.22905 " sodipodi:arg1="0.91794970" sodipodi:arg2="1.5462682" sodipodi:cx="150.24213" sodipodi:cy="332.20160" sodipodi:r1="21.435478" sodipodi:r2="10.717739" sodipodi:sides="5" sodipodi:type="star" style="fill:url(#radialGradient17208);fill-opacity:1;fill-rule:evenodd;stroke:none;stroke-width:1.0000000pt" transform="matrix(0.875801,0.000000,0.000000,0.875801,-39.82628,220.5032)"/>
  <polygon d="M 170.27441,454.39854 L 159.86351,454.34451 L 153.91690,462.89013 L 150.75113,452.97207 L 140.78616,449.95725 L 149.24052,443.88159 L 149.02843,433.47270 L 157.41928,439.63579 L 167.25318,436.21756 L 163.98464,446.10223 L 170.27441,454.39854 z " id="polygon890" inkscape:flatsided="false" inkscape:randomized="0.0000000" inkscape:rounded="0.0000000" points="170.27440,454.39854 159.86350,454.34451 153.91689,462.89013 150.75113,452.97207 140.78615,449.95725 149.24051,443.88159 149.02842,433.47270 157.41927,439.63579 167.25317,436.21757 163.98464,446.10223 170.27440,454.39854 " sodipodi:arg1="0.46364761" sodipodi:arg2="1.0919661" sodipodi:cx="156.25182" sodipodi:cy="447.38724" sodipodi:r1="15.677741" sodipodi:r2="7.8388705" sodipodi:sides="5" sodipodi:type="star" style="fill:url(#radialGradient17206);fill-opacity:1;fill-rule:evenodd;stroke:none;stroke-width:1.0000000pt" transform="matrix(0.781214,-0.399987,0.347598,0.803867,-180.9943,314.9717)"/>
  <polygon d="M 41.066180,370.26293 L 30.074258,367.52872 L 21.590394,375.03354 L 20.794090,363.73469 L 11.034926,357.98517 L 21.534705,353.73630 L 23.987074,342.67809 L 31.272598,351.35100 L 42.547409,350.26616 L 36.550332,359.87518 L 41.066180,370.26293 z " id="polygon891" inkscape:flatsided="false" inkscape:randomized="0.0000000" inkscape:rounded="0.0000000" points="41.066180,370.26295 30.074258,367.52874 21.590393,375.03356 20.794089,363.73470 11.034925,357.98518 21.534704,353.73632 23.987073,342.67810 31.272597,351.35101 42.547410,350.26618 36.550332,359.87520 41.066180,370.26295 " sodipodi:arg1="0.70225693" sodipodi:arg2="1.3305755" sodipodi:cx="28.045197" sodipodi:cy="359.24518" sodipodi:r1="17.056873" sodipodi:r2="8.5284367" sodipodi:sides="5" sodipodi:type="star" style="fill:url(#radialGradient17204);fill-opacity:1;fill-rule:evenodd;stroke:none;stroke-width:1.0000000pt" transform="matrix(0.875801,0.000000,0.000000,0.875801,104.9141,288.9260)"/>
  <polygon d="M 105.16949,309.16448 L 96.269010,304.65635 L 87.509503,309.43263 L 89.046590,299.57468 L 81.797247,292.71984 L 91.647697,291.13543 L 95.926863,282.12263 L 100.47769,291.00135 L 110.37170,292.28598 L 103.33382,299.35774 L 105.16949,309.16448 z " id="polygon892" inkscape:flatsided="false" inkscape:randomized="0.0000000" inkscape:rounded="0.0000000" points="105.16949,309.16449 96.269007,304.65636 87.509500,309.43263 89.046587,299.57468 81.797244,292.71985 91.647694,291.13543 95.926860,282.12264 100.47769,291.00136 110.37170,292.28598 103.33382,299.35775 105.16949,309.16449 " sodipodi:arg1="0.92729522" sodipodi:arg2="1.5556137" sodipodi:cx="96.154961" sodipodi:cy="297.14511" sodipodi:r1="15.024212" sodipodi:r2="7.5121059" sodipodi:sides="5" sodipodi:type="star" style="fill:url(#radialGradient17202);fill-opacity:1;fill-rule:evenodd;stroke:none;stroke-width:1.0000000pt" transform="matrix(0.875801,0.000000,0.000000,0.875801,-39.82628,220.5032)"/>
  <polygon d="M 133.21469,250.06925 L 126.39793,245.27448 L 118.58359,248.17172 L 121.03720,240.20694 L 115.86699,233.67035 L 124.20016,233.54262 L 128.81914,226.60554 L 131.51571,234.49139 L 139.54060,236.74062 L 132.87401,241.74207 L 133.21469,250.06925 z " id="polygon893" inkscape:flatsided="false" inkscape:randomized="0.0000000" inkscape:rounded="0.0000000" points="133.21468,250.06925 126.39793,245.27447 118.58358,248.17172 121.03719,240.20693 115.86699,233.67035 124.20015,233.54262 128.81913,226.60554 131.51570,234.49138 139.54060,236.74062 132.87400,241.74207 133.21468,250.06925 " sodipodi:arg1="1.0714496" sodipodi:arg2="1.6997681" sodipodi:cx="127.20500" sodipodi:cy="239.05150" sodipodi:r1="12.550189" sodipodi:r2="6.2750950" sodipodi:sides="5" sodipodi:type="star" style="fill:url(#radialGradient17200);fill-opacity:1;fill-rule:evenodd;stroke:none;stroke-width:1.0000000pt" transform="matrix(0.875801,0.000000,0.000000,0.875801,-34.56299,238.9247)"/>
  <polygon d="M 104.16787,350.23066 L 96.444860,348.10834 L 90.318252,353.26719 L 89.950155,345.26634 L 83.150565,341.03377 L 90.646079,338.21129 L 92.570310,330.43655 L 97.570889,336.69302 L 105.55972,336.12054 L 101.15473,342.80973 L 104.16787,350.23066 z " id="polygon894" inkscape:flatsided="false" inkscape:randomized="0.0000000" inkscape:rounded="0.0000000" points="104.16787,350.23067 96.444861,348.10835 90.318253,353.26720 89.950156,345.26635 83.150566,341.03378 90.646080,338.21130 92.570310,330.43656 97.570890,336.69303 105.55972,336.12055 101.15473,342.80974 104.16787,350.23067 " sodipodi:arg1="0.72664234" sodipodi:arg2="1.3549609" sodipodi:cx="95.153343" sodipodi:cy="342.21774" sodipodi:r1="12.061031" sodipodi:r2="6.0305161" sodipodi:sides="5" sodipodi:type="star" style="fill:url(#radialGradient17198);fill-opacity:1;fill-rule:evenodd;stroke:none;stroke-width:1.0000000pt" transform="matrix(0.875801,0.000000,0.000000,0.875801,-39.82628,220.5032)"/>
  <polygon d="M 179.28894,379.27747 L 167.72372,372.37581 L 159.03386,380.30541 L 159.22826,366.83880 L 148.01610,363.27797 L 159.77573,356.71302 L 157.25342,345.22259 L 168.81864,352.12425 L 177.50850,344.19465 L 177.31410,357.66126 L 188.52625,361.22209 L 176.76663,367.78704 L 179.28894,379.27747 z " id="polygon895" inkscape:flatsided="false" inkscape:randomized="0.0000000" inkscape:rounded="0.0000000" points="179.28893,379.27748 167.72371,372.37582 155.48179,377.99031 158.47181,364.85841 149.34915,354.95062 162.76230,353.73632 169.36610,341.99847 174.66587,354.37990 187.86991,357.03330 177.73219,365.89974 179.28893,379.27748 " sodipodi:arg1="0.99649150" sodipodi:arg2="1.6248100" sodipodi:cx="168.27118" sodipodi:cy="362.25003" sodipodi:r1="20.281141" sodipodi:r2="10.140571" sodipodi:sides="6" sodipodi:type="star" style="fill:url(#radialGradient17196);fill-opacity:1;fill-rule:evenodd;stroke:none;stroke-width:1.0000000pt" transform="matrix(0.875801,0.000000,0.000000,0.875801,-38.07185,248.5741)"/>
</svg>
