<?xml version="1.0" encoding="utf-8"?>
<!-- Generator: Adobe Illustrator 10.0, SVG Export Plug-In . SVG Version: 3.0.0 Build 77)  --><svg enable-background="new 0 0 114.816 239.25" height="239.25" i:pageBounds="0 792 612 0" i:rulerOrigin="0 0" i:viewOrigin="248 515" overflow="visible" space="preserve" viewBox="0 0 114.816 239.25" width="114.816" xmlns="http://www.w3.org/2000/svg" xmlns:a="http://ns.adobe.com/AdobeSVGViewerExtensions/3.0/" xmlns:graph="http://ns.adobe.com/Graphs/1.0/" xmlns:i="http://ns.adobe.com/AdobeIllustrator/10.0/" xmlns:x="http://ns.adobe.com/Extensibility/1.0/" xmlns:xlink="http://www.w3.org/1999/xlink">
  <metadata>
    <rdf:RDF xmlns:cc="http://web.resource.org/cc/" xmlns:dc="http://purl.org/dc/elements/1.1/" xmlns:rdf="http://www.w3.org/1999/02/22-rdf-syntax-ns#">
      <cc:Work rdf:about="">
        <dc:title>Chocolate Soft Serve Ice Cream Cone</dc:title>
        <dc:description>Chocolate Soft Serve Ice Cream Cone</dc:description>
        <dc:subject>
          <rdf:Bag>
            <rdf:li>food</rdf:li>
            <rdf:li>icecream</rdf:li>
            <rdf:li>festive</rdf:li>
            <rdf:li>menu</rdf:li>
          </rdf:Bag>
        </dc:subject>
        <dc:publisher>
          <cc:Agent rdf:about="http://www.openclipart.org/">
            <dc:title>Open Clip Art Project</dc:title>
          </cc:Agent>
        </dc:publisher>
        <dc:creator>
          <cc:Agent rdf:about="http://web.resource.org/cc/PublicDomain">
            <dc:title>Gerald G.</dc:title>
          </cc:Agent>
        </dc:creator>
        <dc:rights>
          <cc:Agent rdf:about="http://web.resource.org/cc/PublicDomain">
            <dc:title>Public Domain</dc:title>
          </cc:Agent>
        </dc:rights>
        <dc:date>2005/05/31</dc:date>
        <dc:format>image/svg+xml</dc:format>
        <dc:type rdf:resource="http://purl.org/dc/dcmitype/StillImage"/>
        <cc:license rdf:resource="http://web.resource.org/cc/PublicDomain"/>
        <dc:language>en</dc:language>
      </cc:Work>
      <cc:License rdf:about="http://web.resource.org/cc/PublicDomain">
        <cc:permits rdf:resource="http://web.resource.org/cc/Reproduction"/>
        <cc:permits rdf:resource="http://web.resource.org/cc/Distribution"/>
        <cc:permits rdf:resource="http://web.resource.org/cc/DerivativeWorks"/>
      </cc:License>
    </rdf:RDF>
  </metadata>
  <g i:dimmedPercent="50" i:layer="yes" i:rgbTrio="#4F008000FFFF" id="Layer_1">
    <g>
      <path clip-rule="evenodd" d="     M6.746,108.481c-1.044,1.908-1.296,3.78-0.756,5.616c0.504,1.836,1.692,3.636,3.708,5.4l2.664,29.089     c-0.936,0.971-1.44,2.051-1.656,2.844c-0.216,0.791-0.504,1.043,0.504,2.16c0.936,0.971,3.492,3.131,5.292,4.104     c1.692,0.9,3.312,1.404,5.004,1.512c1.872,1.332,3.24,3.779,4.248,7.344c0.9,3.527,0.648,6.805,1.476,13.717     c0.684,6.803,2.052,20.447,3.132,27.324c1.116,6.803,2.052,11.16,3.204,13.355c-0.792,2.951-0.864,5.615-0.072,7.992     c0.72,2.268,0.972,4.32,4.644,6.012c3.708,1.729,11.196,3.707,17.172,4.283c5.868,0.469,13.141-0.576,17.784-1.332     c4.464-0.756,7.416-1.08,9.432-3.348c2.017-2.484,2.664-6.047,2.34-11.088c0.576-3.959,1.08-7.199,1.513-9.863     c0.359-2.736,0.647-2.197,1.008-6.156c0.252-4.213,0.396-11.953,1.008-18.072c0.576-6.156,1.872-13.896,2.772-18.359     c0.72-4.537,1.332-6.445,2.268-8.496c0.864-2.16,1.368-2.629,3.456-4.176c2.088-1.656,4.968-3.492,8.928-5.508     c-0.359-2.197-0.576-4.934-0.647-8.605c-0.181-3.672-0.324-9.143-0.145-13.211c0.036-4.176,0.396-7.813,0.792-11.305     c1.261-0.648,2.16-1.692,2.845-2.988c0.684-1.332,1.008-3.06,1.115-5.04c2.628-3.204,4.104-6.408,4.824-9.756     c0.576-3.42,0.288-7.128-1.008-10.152c-1.404-3.06-3.456-5.724-6.696-7.992c3.384-3.168,5.076-6.696,5.221-10.728     c-0.108-4.176-2.448-10.224-4.788-13.428c-2.305-3.204-5.185-5.004-8.784-5.544c2.52-4.932,3.023-9.468,1.656-13.752     c-1.44-4.356-5.545-7.848-10.08-11.844c-4.645-4.068-13.32-7.776-17.28-12.096c-4.068-4.5-3.636-11.556-6.336-14.22     c-2.809-2.7-8.244-2.412-9.648-1.908c-1.332,0.432,1.224,2.7,1.404,4.32c-0.036,1.368,1.044,2.736-1.332,4.644     c-2.484,1.908-10.044,4.176-13.104,6.948c-3.168,2.664-4.716,5.832-5.184,9.36c-7.812,5.076-13.428,9.648-16.848,14.004     c-3.492,4.284-3.636,7.596-3.888,11.736c-0.288,4.104,0.36,8.244,2.088,12.708c-8.784,4.536-14.688,9.324-17.856,14.76     c-3.24,5.472-2.016,12.312-1.188,17.46C1.67,101.209,3.65,105.169,6.746,108.481z" fill-rule="evenodd" i:knockout="Off" stroke="#000000" stroke-miterlimit="10" stroke-width="0.036"/>
      <path clip-rule="evenodd" d="     M59.378,1.129c2.52-0.036,4.428,0.612,5.724,2.34c1.152,1.656,0.54,4.752,1.908,7.488c1.332,2.556,2.412,5.076,6.3,8.388     s12.528,7.92,16.74,11.484c3.96,3.384,6.3,5.436,7.452,9.216c1.151,3.744,0.828,8.316-0.685,13.572     c-7.632,0.324-15.048-0.216-22.68-1.764c-7.704-1.62-17.316-4.644-22.716-7.416c-5.364-2.772-7.668-5.796-9.432-9.072     c-1.908-3.384-2.448-7.668-1.764-10.764c0.648-3.276,2.772-5.94,5.544-7.992c2.664-1.98,7.92-2.7,10.476-4.104     c2.376-1.548,3.744-3.204,4.249-5.112C60.962,5.377,60.638,3.469,59.378,1.129z" fill="#A16121" fill-rule="evenodd" i:knockout="Off" stroke="#000000" stroke-miterlimit="10" stroke-width="0.036"/>
      <path clip-rule="evenodd" d="     M38.174,27.445c-0.432,3.852,0.036,7.2,1.8,10.188c1.656,2.952,3.348,4.932,8.28,7.488c4.932,2.484,14.147,5.4,20.987,7.344     c6.696,1.728,14.112,2.736,19.332,3.42c5.04,0.612,8.496-0.828,11.484,0.396c2.916,1.116,5.004,3.888,6.552,6.66     c1.548,2.628,2.736,6.336,2.593,9.612c-0.288,3.24-1.692,6.516-4.213,9.972c-3.491-1.872-8.855-3.168-16.235-3.888     c-7.416-0.864-19.296-0.18-28.008-0.576c-8.928-0.468-18.396,0.288-24.66-1.62c-6.3-2.016-9.972-6.48-12.672-10.188     c-2.808-3.78-3.564-8.172-3.672-12.204c-0.108-4.248,0.864-9.072,2.772-12.528c1.8-3.528,5.364-5.76,8.064-8.1     C33.206,31.045,35.689,29.101,38.174,27.445z" fill="#A16121" fill-rule="evenodd" i:knockout="Off" stroke="#000000" stroke-miterlimit="10" stroke-width="0.036"/>
      <path clip-rule="evenodd" d="     M20.894,65.785c0.432,1.908,1.656,3.96,4.068,6.156c2.268,2.196,4.464,5.292,9.9,6.768c5.436,1.188,14.436,0.936,22.716,1.188     c8.244,0.144,19.08,0,26.244,0.54c6.876,0.504,11.7,1.224,15.876,2.7c4.177,1.296,7.345,3.024,9.36,5.76     c1.908,2.808,2.556,6.624,2.34,10.62c-0.288,3.816-1.548,7.92-3.924,12.312c-9.468,3.276-19.332,5.328-30.42,6.3     c-11.124,0.936-24.084,0.9-35.388-0.648c-11.448-1.764-25.596-3.996-32.184-9.468c-6.588-5.652-8.856-16.272-6.948-23.4     C4.478,77.449,10.418,71.401,20.894,65.785z" fill="#A16121" fill-rule="evenodd" i:knockout="Off" stroke="#000000" stroke-miterlimit="10" stroke-width="0.036"/>
      <path clip-rule="evenodd" d="     M101.857,121.441c-8.136,3.779-17.352,6.229-28.08,7.199c-10.836,0.865-25.848-0.072-36.144-1.439     c-10.332-1.404-18.612-3.6-25.272-6.732c-2.088-2.16-3.204-4.284-3.888-5.976c-0.648-1.728-0.54-3.42,0.18-4.68     c-0.252,1.296,2.484,2.772,8.208,4.572c5.76,1.692,15.84,4.932,26.064,5.976c10.152,1.008,23.328,1.152,34.271,0.035     c10.872-1.223,20.772-3.6,30.385-7.127c0.396,1.152-0.036,2.196-0.9,3.672C105.638,118.273,104.162,119.821,101.857,121.441z" fill="#FBDF99" fill-rule="evenodd" i:knockout="Off" stroke="#000000" stroke-miterlimit="10" stroke-width="0.036"/>
      <path clip-rule="evenodd" d="     M12.074,122.988l1.8,26.316c4.392,2.809,11.88,4.572,22.608,5.688c10.836,0.828,30.167,1.117,41.616,0.469     c11.268-0.576,19.729-1.836,25.813-3.779c-0.396-4.932-0.721-9.648-0.828-14.438c-0.145-4.787-0.072-9.359,0.071-14.004     c-5.399,2.953-11.88,5.004-19.872,6.301c-8.063,1.188-18.611,1.691-27.899,1.367c-9.504-0.395-20.304-1.943-27.684-3.275     C20.426,126.266,15.313,124.717,12.074,122.988z" fill="#FBDF99" fill-rule="evenodd" i:knockout="Off" stroke="#000000" stroke-miterlimit="10" stroke-width="0.036"/>
      <path clip-rule="evenodd" d="     M96.746,156.686c-2.484,1.98-8.496,3.42-18.036,4.031c-9.792,0.576-29.16,0.469-39.348-0.18     c-10.116-0.684-16.524-2.447-20.88-3.637c-4.32-1.295-4.752-2.807-5.328-3.707c-0.72-0.9-1.584-2.053,1.44-1.512     c3.024,0.539,8.676,3.275,16.38,4.463c7.74,0.9,20.592,1.441,29.124,1.621c8.208,0.107,14.112,0,20.484-0.469     c6.372-0.504,12.132-1.225,17.567-2.305C97.682,155.533,97.214,156.109,96.746,156.686z" fill="#FBDF99" fill-rule="evenodd" i:knockout="Off" stroke="#000000" stroke-miterlimit="10" stroke-width="0.036"/>
      <path clip-rule="evenodd" d="     M26.366,160.502c1.116,1.547,2.196,5.111,3.096,10.836c0.792,5.76,1.368,14.65,2.304,23.219c1.008,8.424,2.052,17.281,3.528,27     c2.952,2.844,7.056,4.752,12.456,5.869c5.364,1.08,13.789,1.295,19.836,0.504c6.012-0.828,11.195-2.809,15.948-5.652     c0.323-3.961,0.575-9.107,1.151-15.732c0.468-6.732,1.116-17.641,1.8-23.688c0.648-6.084,0.937-8.641,1.98-12.385     c0.936-3.779,2.16-7.02,3.672-10.008c-5.652,1.188-11.52,2.088-18,2.701c-6.48,0.467-12.528,1.295-20.484,0.826     C45.625,163.525,36.625,162.408,26.366,160.502z" fill="#FBDF99" fill-rule="evenodd" i:knockout="Off" stroke="#000000" stroke-miterlimit="10" stroke-width="0.036"/>
      <path clip-rule="evenodd" d="     M34.934,165.469l1.224,9.793l9.9,0.719l-8.892-1.656L34.934,165.469z" fill-rule="evenodd" i:knockout="Off" stroke="#000000" stroke-miterlimit="10" stroke-width="0.036"/>
      <path clip-rule="evenodd" d="     M37.13,179.977l1.944,17.568l9.864,1.691l-8.676-2.807L37.13,179.977z" fill-rule="evenodd" i:knockout="Off" stroke="#000000" stroke-miterlimit="10" stroke-width="0.036"/>
      <path clip-rule="evenodd" d="     M40.622,203.449l0.972,16.379l7.704,2.018l-6.12-3.133L40.622,203.449z" fill-rule="evenodd" i:knockout="Off" stroke="#000000" stroke-miterlimit="10" stroke-width="0.036"/>
      <path clip-rule="evenodd" d="     M51.782,167.629l0.288,8.389l6.228,0.215l-4.824-1.152l-1.728-6.299L51.782,167.629z" fill-rule="evenodd" i:knockout="Off" stroke="#000000" stroke-miterlimit="10" stroke-width="0.036"/>
      <path clip-rule="evenodd" d="     M52.105,180.301l1.296,19.512l5.795,0.396l-4.428-1.332L52.105,180.301z" fill-rule="evenodd" i:knockout="Off" stroke="#000000" stroke-miterlimit="10" stroke-width="0.036"/>
      <path clip-rule="evenodd" d="     M53.618,204.277l0.576,17.531l5.436,0.396l-4.248-1.512L53.618,204.277z" fill-rule="evenodd" i:knockout="Off" stroke="#000000" stroke-miterlimit="10" stroke-width="0.036"/>
      <path clip-rule="evenodd" d="     M62.905,167.232l0.469,8.785l4.859-0.217l-3.852-0.719l-1.548-6.301L62.905,167.232z" fill-rule="evenodd" i:knockout="Off" stroke="#000000" stroke-miterlimit="10" stroke-width="0.036"/>
      <path clip-rule="evenodd" d="     M62.653,179.689l0.828,20.447l6.84-0.324l-5.399-0.971L62.653,179.689z" fill-rule="evenodd" i:knockout="Off" stroke="#000000" stroke-miterlimit="10" stroke-width="0.036"/>
      <path clip-rule="evenodd" d="     M63.157,204.816l0.54,17.354l5.257-0.217l-4.248-0.721L63.157,204.816z" fill-rule="evenodd" i:knockout="Off" stroke="#000000" stroke-miterlimit="10" stroke-width="0.036"/>
      <path clip-rule="evenodd" d="     M73.489,203.988l-1.188,17.102l4.32-1.008l-3.097-0.109L73.489,203.988z" fill-rule="evenodd" i:knockout="Off" stroke="#000000" stroke-miterlimit="10" stroke-width="0.036"/>
      <path clip-rule="evenodd" d="     M73.382,179.473l-0.324,19.656l4.896-1.008l-3.889,0.252L73.382,179.473z" fill-rule="evenodd" i:knockout="Off" stroke="#000000" stroke-miterlimit="10" stroke-width="0.036"/>
      <path clip-rule="evenodd" d="     M74.21,166.656l-0.504,8.172l7.235-0.936l-5.832-0.18L74.21,166.656z" fill-rule="evenodd" i:knockout="Off" stroke="#000000" stroke-miterlimit="10" stroke-width="0.036"/>
      <path clip-rule="evenodd" d="     M82.562,166.766l-0.036,6.623l2.736-0.324l-1.512-0.611L82.562,166.766z" fill-rule="evenodd" i:knockout="Off" stroke="#000000" stroke-miterlimit="10" stroke-width="0.036"/>
      <path clip-rule="evenodd" d="     M81.518,179.762l-0.792,17.496l3.348-1.262l-2.304-0.252L81.518,179.762z" fill-rule="evenodd" i:knockout="Off" stroke="#000000" stroke-miterlimit="10" stroke-width="0.036"/>
      <path clip-rule="evenodd" d="     M80.113,203.666l-1.151,16.486l4.14-2.195l-3.312,0.684l0.323-14.977V203.666z" fill-rule="evenodd" i:knockout="Off" stroke="#000000" stroke-miterlimit="10" stroke-width="0.036"/>
    </g>
  </g>
</svg>
