<?xml version="1.0" encoding="UTF-8" standalone="no"?>
<!DOCTYPE svg PUBLIC "-//W3C//DTD SVG 20010904//EN"
"http://www.w3.org/TR/2001/REC-SVG-20010904/DTD/svg10.dtd">
<!-- Created with Inkscape (http://www.inkscape.org/) --><svg height="100.00000pt" id="svg6270" inkscape:export-filename="/home/Krug/Projekte/Icon-Sets/set2/png/70a029.png" inkscape:export-xdpi="72.000000" inkscape:export-ydpi="72.000000" inkscape:version="0.39" sodipodi:docbase="/home/Krug/Projekte/Icon-Sets/set2/svg" sodipodi:docname="70a029.svg" sodipodi:version="0.32" width="100.00000pt" xmlns="http://www.w3.org/2000/svg" xmlns:cc="http://web.resource.org/cc/" xmlns:dc="http://purl.org/dc/elements/1.1/" xmlns:inkscape="http://www.inkscape.org/namespaces/inkscape" xmlns:rdf="http://www.w3.org/1999/02/22-rdf-syntax-ns#" xmlns:sodipodi="http://sodipodi.sourceforge.net/DTD/sodipodi-0.dtd" xmlns:xlink="http://www.w3.org/1999/xlink" xmlns:xml="http://www.w3.org/XML/1998/namespace">
  <metadata>
    <rdf:RDF xmlns:cc="http://web.resource.org/cc/" xmlns:dc="http://purl.org/dc/elements/1.1/" xmlns:rdf="http://www.w3.org/1999/02/22-rdf-syntax-ns#">
      <cc:Work rdf:about="">
        <dc:title>gold-theme</dc:title>
        <dc:description></dc:description>
        <dc:subject>
          <rdf:Bag>
            <rdf:li>icon</rdf:li>
          </rdf:Bag>
        </dc:subject>
        <dc:publisher>
          <cc:Agent rdf:about="http://www.openclipart.org/">
            <dc:title>Open Clip Art Library</dc:title>
          </cc:Agent>
        </dc:publisher>
        <dc:creator>
          <cc:Agent>
            <dc:title>Juliane Krug</dc:title>
          </cc:Agent>
        </dc:creator>
        <dc:rights>
          <cc:Agent>
            <dc:title>Juliane Krug</dc:title>
          </cc:Agent>
        </dc:rights>
        <dc:date></dc:date>
        <dc:format>image/svg+xml</dc:format>
        <dc:type rdf:resource="http://purl.org/dc/dcmitype/StillImage"/>
        <cc:license rdf:resource="http://web.resource.org/cc/PublicDomain"/>
        <dc:language>en</dc:language>
      </cc:Work>
      <cc:License rdf:about="http://web.resource.org/cc/PublicDomain">
        <cc:permits rdf:resource="http://web.resource.org/cc/Reproduction"/>
        <cc:permits rdf:resource="http://web.resource.org/cc/Distribution"/>
        <cc:permits rdf:resource="http://web.resource.org/cc/DerivativeWorks"/>
      </cc:License>
    </rdf:RDF>
  </metadata>
  <defs id="defs6272">
    <linearGradient id="linearGradient5315">
      <stop id="stop5316" offset="0.0000000" style="stop-color:#ffffff;stop-opacity:1.0000000;"/>
      <stop id="stop5317" offset="1.0000000" style="stop-color:#ffffff;stop-opacity:0.0000000;"/>
    </linearGradient>
    <linearGradient id="linearGradient3406">
      <stop id="stop3407" offset="0.0000000" style="stop-color:#000000;stop-opacity:0.40476191;"/>
      <stop id="stop3408" offset="1.0000000" style="stop-color:#000000;stop-opacity:0.0000000;"/>
    </linearGradient>
    <linearGradient id="linearGradient2871" inkscape:collect="always" x1="0.37037036" x2="0.14814815" xlink:href="#linearGradient3406" y1="0.76136363" y2="0.32386363"/>
    <radialGradient cx="0.25925925" cy="0.22159091" fx="0.26851848" fy="0.21590909" id="radialGradient2873" inkscape:collect="always" r="0.50000000" xlink:href="#linearGradient5315"/>
    <linearGradient id="linearGradient2952" inkscape:collect="always" x1="0.28279549" x2="0.60031033" xlink:href="#linearGradient3406" y1="0.77801907" y2="0.41158676"/>
    <radialGradient cx="0.77777779" cy="0.17045455" fx="0.78395057" fy="0.17045455" id="radialGradient2953" inkscape:collect="always" r="0.37041396" xlink:href="#linearGradient5315"/>
  </defs>
  <sodipodi:namedview bordercolor="#666666" borderopacity="1.0" id="base" inkscape:cx="133.12721" inkscape:cy="62.529233" inkscape:guide-bbox="true" inkscape:pageopacity="0.0" inkscape:pageshadow="2" inkscape:window-height="937" inkscape:window-width="1272" inkscape:window-x="0" inkscape:window-y="0" inkscape:zoom="3.6100000" pagecolor="#ffffff" showguides="true"/>
  <path d="M 111.58210,22.470433 C 59.674586,27.269859 45.438739,55.477148 34.556267,77.680627 C 38.670802,90.443759 44.385372,106.97963 48.876260,119.97795 C 62.499685,85.951244 83.885002,72.564794 121.95088,73.113327 C 120.79677,61.336172 115.16351,38.198720 111.58210,22.470433 z " id="path6288" sodipodi:nodetypes="ccccc" style="fill:#ffc800;fill-opacity:1.0000000;fill-rule:evenodd;stroke:#000000;stroke-width:3.7499993;stroke-linecap:round;stroke-linejoin:round;stroke-miterlimit:4.0000000;stroke-opacity:1.0000000;"/>
  <path d="M 111.22159,22.759664 C 59.314069,27.559090 45.078222,55.766379 34.195751,77.969857 C 38.310284,90.732991 44.024854,107.26886 48.515742,120.26718 C 62.139168,86.240475 83.524485,72.854024 121.59037,73.402560 C 120.43626,61.625405 114.80299,38.487952 111.22159,22.759664 z " id="path2870" sodipodi:nodetypes="ccccc" style="fill:url(#linearGradient2952);fill-opacity:1.0000000;fill-rule:evenodd;stroke:none;stroke-width:3.7500000;stroke-linecap:round;stroke-linejoin:round;stroke-miterlimit:4.0000000;stroke-opacity:1.0000000;"/>
  <path d="M 103.06074,25.290165 C 80.505991,28.405785 58.780488,40.288065 46.819494,60.111595 C 43.599207,66.004746 38.855317,72.092326 37.587714,78.456576 C 41.632047,90.386676 45.676383,102.31677 49.720720,114.24687 C 57.609186,94.660176 74.093281,78.015446 95.182881,73.546716 C 103.36238,71.619276 111.77367,70.901186 120.17353,70.867766 C 117.99723,55.168695 114.00591,39.806805 110.58552,24.350725 C 108.07726,24.663875 105.56900,24.977015 103.06074,25.290165 z " id="path2872" style="fill:url(#radialGradient2953);fill-opacity:1.0000000;fill-rule:evenodd;stroke:none;stroke-width:3.7500000;stroke-linecap:round;stroke-linejoin:round;stroke-miterlimit:4.0000000;stroke-opacity:1.0000000;"/>
  <path d="M 80.117396,4.0121622 C 40.972431,38.437408 46.060662,69.621070 50.327309,93.977150 C 61.164468,101.87544 75.515367,111.88260 86.795213,119.74958 C 77.787410,84.221082 87.201044,60.813549 118.30151,38.857373 C 110.43816,30.014233 92.268332,14.621608 80.117396,4.0121622 z " id="path2893" sodipodi:nodetypes="ccccc" style="fill:#ffc800;fill-opacity:1.0000000;fill-rule:evenodd;stroke:#000000;stroke-width:3.7500000;stroke-linecap:round;stroke-linejoin:round;stroke-miterlimit:4.0000000;stroke-opacity:1.0000000;" transform="matrix(0.977646,0.210260,-0.210260,0.977646,-11.22707,-16.28904)"/>
  <path d="M 79.996101,4.4581609 C 40.851136,38.883406 45.939367,70.067068 50.206014,94.423148 C 61.043173,102.32144 75.394072,112.32860 86.673918,120.19558 C 77.666115,84.667080 87.079749,61.259547 118.18022,39.303371 C 110.31687,30.460231 92.147037,15.067607 79.996101,4.4581609 z " id="path2894" sodipodi:nodetypes="ccccc" style="fill:url(#linearGradient2871);fill-opacity:1.0000000;fill-rule:evenodd;stroke:none;stroke-width:3.7500000;stroke-linecap:round;stroke-linejoin:round;stroke-miterlimit:4.0000000;stroke-opacity:1.0000000;" transform="matrix(0.977646,0.210260,-0.210260,0.977646,-11.22707,-16.28904)"/>
  <path d="M 74.530644,11.993854 C 58.127659,27.785177 47.553848,50.176717 49.547997,73.243168 C 50.412075,79.902967 50.158670,87.616523 52.878773,93.508164 C 63.168980,100.77423 73.459187,108.04029 83.749394,115.30635 C 78.601815,94.827843 82.135314,71.669971 96.557431,55.646759 C 102.03667,49.275162 108.41496,43.744981 115.18689,38.775104 C 104.18923,27.362452 91.922467,17.290464 80.061894,6.8063539 C 78.218144,8.5355206 76.374394,10.264687 74.530644,11.993854 z " id="path2895" style="fill:url(#radialGradient2873);fill-opacity:1.0000000;fill-rule:evenodd;stroke:none;stroke-width:3.7500000;stroke-linecap:round;stroke-linejoin:round;stroke-miterlimit:4.0000000;stroke-opacity:1.0000000;" transform="matrix(0.977646,0.210260,-0.210260,0.977646,-11.22707,-16.28904)"/>
  <path d="M 35.328503,5.8432015 C -3.8164615,40.268447 1.2717695,71.452109 5.5384165,95.808189 C 16.375575,103.70648 30.726474,113.71364 42.006320,121.58062 C 32.998517,86.052121 42.412151,62.644588 73.512617,40.688412 C 65.649267,31.845272 47.479439,16.452647 35.328503,5.8432015 z " id="path2901" sodipodi:nodetypes="ccccc" style="fill:#ffc800;fill-opacity:1.0000000;fill-rule:evenodd;stroke:#000000;stroke-width:3.7500000;stroke-linecap:round;stroke-linejoin:round;stroke-miterlimit:4.0000000;stroke-opacity:1.0000000;"/>
  <path d="M 35.207208,6.2892002 C -3.9377565,40.714445 1.1504745,71.898107 5.4171215,96.254187 C 16.254280,104.15248 30.605179,114.15964 41.885025,122.02662 C 32.877222,86.498119 42.290856,63.090586 73.391327,41.134410 C 65.527977,32.291270 47.358144,16.898646 35.207208,6.2892002 z " id="path2902" sodipodi:nodetypes="ccccc" style="fill:url(#linearGradient2871);fill-opacity:1.0000000;fill-rule:evenodd;stroke:none;stroke-width:3.7500000;stroke-linecap:round;stroke-linejoin:round;stroke-miterlimit:4.0000000;stroke-opacity:1.0000000;"/>
  <path d="M 29.741751,13.824893 C 13.338766,29.616216 2.7649555,52.007756 4.7591045,75.074207 C 5.6231825,81.734006 5.3697775,89.447562 8.0898805,95.339203 C 18.380087,102.60527 28.670294,109.87133 38.960501,117.13739 C 33.812922,96.658882 37.346421,73.501010 51.768538,57.477798 C 57.247777,51.106201 63.626067,45.576020 70.397997,40.606143 C 59.400337,29.193491 47.133574,19.121503 35.273001,8.6373932 C 33.429251,10.366560 31.585501,12.095726 29.741751,13.824893 z " id="path2903" style="fill:url(#radialGradient2873);fill-opacity:1.0000000;fill-rule:evenodd;stroke:none;stroke-width:3.7500000;stroke-linecap:round;stroke-linejoin:round;stroke-miterlimit:4.0000000;stroke-opacity:1.0000000;"/>
  <path d="M 21.195948,79.212026 L 18.835807,78.830653 L 22.275740,69.381540 C 20.638971,69.072740 19.078933,68.554743 17.595615,67.827545 C 16.119945,67.079432 14.720811,66.099924 13.398189,64.889031 L 15.469409,59.240677 C 16.583338,60.838888 17.831905,62.115369 19.215134,63.070141 C 20.621743,64.006534 22.194454,64.626303 23.933300,64.929433 L 29.180384,50.620276 C 25.979265,49.305292 23.913996,47.619846 22.984576,45.563931 C 22.070857,43.510602 22.189344,40.914942 23.340029,37.776943 C 24.590419,34.367045 26.433677,31.817415 28.869825,30.128047 C 31.305917,28.438753 34.182567,27.706982 37.499775,27.932731 L 40.203872,20.558494 L 42.564003,20.939867 L 39.894432,28.219964 C 41.326999,28.540132 42.666369,28.978154 43.912545,29.534028 C 45.166315,30.069058 46.342638,30.724485 47.441496,31.500309 L 45.427809,36.991762 C 44.444018,35.902135 43.348058,35.004860 42.139919,34.299934 C 40.947438,33.597615 39.642788,33.087646 38.225961,32.770025 L 33.312563,46.169170 C 36.615721,47.478526 38.763890,49.210608 39.757080,51.365419 C 40.750203,53.520261 40.648424,56.229419 39.451763,59.492900 C 38.155302,63.028353 36.234345,65.676226 33.688901,67.436522 C 31.166795,69.178444 28.164669,69.934259 24.682493,69.703965 L 21.195948,79.212026 M 31.159555,45.222962 L 35.877328,32.357273 C 33.952401,32.334338 32.306768,32.799681 30.940438,33.753307 C 29.574054,34.706998 28.553340,36.104299 27.878304,37.945212 C 27.218555,39.744344 27.145154,41.217160 27.658069,42.363664 C 28.186684,43.512760 29.353849,44.465859 31.159555,45.222962 M 31.310395,51.629243 L 26.327957,65.216667 C 28.456599,65.183924 30.235376,64.673622 31.664311,63.685747 C 33.108924,62.700424 34.176445,61.266368 34.866876,59.383577 C 35.541916,57.542642 35.591136,55.999439 35.014536,54.753964 C 34.453620,53.511056 33.218913,52.469483 31.310395,51.629243" id="path2904" style="font-size:12.000000;font-style:normal;font-weight:normal;fill:#000000;fill-opacity:1.0000000;stroke:none;stroke-width:1.0000000pt;stroke-linecap:butt;stroke-linejoin:miter;stroke-opacity:1.0000000;font-family:Bitstream Vera Sans;"/>
</svg>
