<?xml version="1.0" encoding="UTF-8" standalone="no"?>
<!DOCTYPE svg PUBLIC "-//W3C//DTD SVG 20010904//EN"
"http://www.w3.org/TR/2001/REC-SVG-20010904/DTD/svg10.dtd">
<!-- Created with Inkscape (http://www.inkscape.org/) --><svg height="128.00000pt" id="svg1" inkscape:version="0.39cvs" sodipodi:docbase="/home/andy/Desktop/etiquette-icons-0.3/scalable/mimetypes" sodipodi:docname="gnome-mime-application-vnd.ms-excel.svg" sodipodi:version="0.32" width="128.00000pt" xmlns="http://www.w3.org/2000/svg" xmlns:inkscape="http://www.inkscape.org/namespaces/inkscape" xmlns:sodipodi="http://sodipodi.sourceforge.net/DTD/sodipodi-0.dtd" xmlns:xlink="http://www.w3.org/1999/xlink">
  <metadata>
    <rdf:RDF xmlns:cc="http://web.resource.org/cc/" xmlns:dc="http://purl.org/dc/elements/1.1/" xmlns:rdf="http://www.w3.org/1999/02/22-rdf-syntax-ns#">
      <cc:Work rdf:about="">
        <dc:title>Etiquette Icons</dc:title>
        <dc:description></dc:description>
        <dc:subject>
          <rdf:Bag>
            <rdf:li>hash</rdf:li>
            <rdf:li></rdf:li>
            <rdf:li>mime-types</rdf:li>
            <rdf:li>computer</rdf:li>
            <rdf:li>icons</rdf:li>
          </rdf:Bag>
        </dc:subject>
        <dc:publisher>
          <cc:Agent rdf:about="http://www.openclipart.org">
            <dc:title>Andy Fitzsimon</dc:title>
          </cc:Agent>
        </dc:publisher>
        <dc:creator>
          <cc:Agent>
            <dc:title>Andy Fitzsimon</dc:title>
          </cc:Agent>
        </dc:creator>
        <dc:rights>
          <cc:Agent>
            <dc:title>Andy Fitzsimon</dc:title>
          </cc:Agent>
        </dc:rights>
        <dc:date></dc:date>
        <dc:format>image/svg+xml</dc:format>
        <dc:type rdf:resource="http://purl.org/dc/dcmitype/StillImage"/>
        <cc:license rdf:resource="http://web.resource.org/cc/PublicDomain"/>
        <dc:language>en</dc:language>
      </cc:Work>
      <cc:License rdf:about="http://web.resource.org/cc/PublicDomain">
        <cc:permits rdf:resource="http://web.resource.org/cc/Reproduction"/>
        <cc:permits rdf:resource="http://web.resource.org/cc/Distribution"/>
        <cc:permits rdf:resource="http://web.resource.org/cc/DerivativeWorks"/>
      </cc:License>
    </rdf:RDF>
  </metadata>
  <defs id="defs3">
    <radialGradient cx="0.50000000" cy="0.50000000" fx="0.50000000" fy="0.14942528" id="radialGradient864" r="0.50000000" xlink:href="#linearGradient853"/>
    <linearGradient id="linearGradient841">
      <stop id="stop842" offset="0.00000000" style="stop-color:#ffffff;stop-opacity:1.0000000;"/>
      <stop id="stop843" offset="1.0000000" style="stop-color:#ffffff;stop-opacity:0.00000000;"/>
    </linearGradient>
    <linearGradient id="linearGradient1290">
      <stop id="stop1291" offset="0.0000000" style="stop-color:#6c708f;stop-opacity:1.0000000;"/>
      <stop id="stop1546" offset="0.19092308" style="stop-color:#afbfea;stop-opacity:1.0000000;"/>
      <stop id="stop1292" offset="1.0000000" style="stop-color:#485877;stop-opacity:1.0000000;"/>
    </linearGradient>
    <linearGradient id="linearGradient860" x1="0.47535211" x2="0.50000000" xlink:href="#linearGradient1290" y1="0.81081080" y2="-0.74324322"/>
    <linearGradient id="linearGradient851" x1="0.39788732" x2="0.80985916" xlink:href="#linearGradient846" y1="0.32222223" y2="0.35555556"/>
    <linearGradient id="linearGradient858" x1="0.64285713" x2="0.57142860" xlink:href="#linearGradient846" y1="1.2647059" y2="0.049019609"/>
    <linearGradient id="linearGradient846">
      <stop id="stop847" offset="0.00000000" style="stop-color:#e7e7e7;stop-opacity:1.0000000;"/>
      <stop id="stop848" offset="1.0000000" style="stop-color:#a5a5a5;stop-opacity:1.0000000;"/>
    </linearGradient>
    <linearGradient id="linearGradient850" xlink:href="#linearGradient846"/>
    <linearGradient id="linearGradient859" x1="1.4647887" x2="0.26408452" xlink:href="#linearGradient853" y1="-1.1486486" y2="1.2905406"/>
    <linearGradient id="linearGradient853">
      <stop id="stop854" offset="0.00000000" style="stop-color:#000000;stop-opacity:0.29752067;"/>
      <stop id="stop855" offset="1.0000000" style="stop-color:#000000;stop-opacity:0.00000000;"/>
    </linearGradient>
    <radialGradient cx="0.50000000" cy="0.50000000" fx="0.50704223" fy="0.29885057" id="radialGradient861" r="0.50000000" xlink:href="#linearGradient853"/>
    <linearGradient id="linearGradient1507">
      <stop id="stop1508" offset="0.0000000" style="stop-color:#000000;stop-opacity:0.095505618;"/>
      <stop id="stop1510" offset="1.0000000" style="stop-color:#000000;stop-opacity:0.0000000;"/>
    </linearGradient>
    <linearGradient id="linearGradient1501">
      <stop id="stop1502" offset="0.0000000" style="stop-color:#ffffff;stop-opacity:1.0000000;"/>
      <stop id="stop1504" offset="1.0000000" style="stop-color:#ffffff;stop-opacity:0.0000000;"/>
    </linearGradient>
    <linearGradient id="linearGradient1492">
      <stop id="stop1493" offset="0.0000000" style="stop-color:#dadada;stop-opacity:1.0000000;"/>
      <stop id="stop1496" offset="0.34923077" style="stop-color:#f1f1f1;stop-opacity:1.0000000;"/>
      <stop id="stop1494" offset="1.0000000" style="stop-color:#f0f0f0;stop-opacity:1.0000000;"/>
    </linearGradient>
    <linearGradient id="linearGradient1495" x1="0.88034189" x2="0.085470088" xlink:href="#linearGradient1492" y1="0.21093750" y2="1.1796875"/>
    <linearGradient id="linearGradient1497" x1="0.63247865" x2="-0.37606838" xlink:href="#linearGradient1492" y1="0.32812500" y2="1.3281250"/>
    <linearGradient id="linearGradient1499" x1="0.85826772" x2="0.062992126" xlink:href="#linearGradient1501" y1="0.14062500" y2="0.54687500"/>
    <linearGradient id="linearGradient1506" x1="0.052173913" x2="0.78260869" xlink:href="#linearGradient1507" y1="0.97656250" y2="0.0078125000"/>
    <linearGradient id="linearGradient1556" x1="0.31111112" x2="0.62222224" xlink:href="#linearGradient1507" y1="-0.56250000" y2="0.79687500"/>
    <radialGradient cx="0.50000000" cy="0.89285713" fx="0.54117650" fy="3.5200000" id="radialGradient856" r="0.54606670" xlink:href="#linearGradient841"/>
    <linearGradient id="linearGradient1944" xlink:href="#linearGradient841"/>
    <linearGradient id="linearGradient852" x1="3.5236571e-18" x2="1.0000000" xlink:href="#linearGradient1290" y1="0.50000000" y2="0.50000000"/>
    <linearGradient id="linearGradient844" x1="-0.074509807" x2="0.58823532" xlink:href="#linearGradient841" y1="-0.77999997" y2="1.1000000"/>
    <linearGradient id="linearGradient845" x1="0.49019608" x2="1.0313725" xlink:href="#linearGradient1290" y1="-0.14705883" y2="13.117647"/>
    <linearGradient id="linearGradient840" x1="0.81278539" x2="0.38812786" xlink:href="#linearGradient853" y1="0.30817610" y2="0.88050312"/>
    <linearGradient id="linearGradient849" x1="0.78142077" x2="0.56284153" xlink:href="#linearGradient853" y1="0.060606062" y2="0.91666669"/>
  </defs>
  <sodipodi:namedview bordercolor="#666666" borderopacity="1.0" id="base" inkscape:cx="86.959374" inkscape:cy="34.255320" inkscape:pageopacity="0.0" inkscape:pageshadow="2" inkscape:window-height="550" inkscape:window-width="445" inkscape:window-x="23" inkscape:window-y="113" inkscape:zoom="1.9655569" pagecolor="#ffffff" showborder="true" showgrid="false" showguides="true" snaptogrid="true" snaptoguides="true"/>
  <path d="M 17.159384,6.3292894 L 17.159384,43.068526 L 17.159384,79.807768 L 17.159384,116.54700 L 17.159384,153.28624 L 50.687024,153.28624 L 84.214664,153.28624 L 117.74230,153.28624 L 151.26994,153.28624 L 151.26994,116.54700 L 151.26994,79.807768 L 151.26994,43.068526 L 117.74230,6.3292894 L 84.214664,6.3292894 L 50.687024,6.3292894 L 17.159384,6.3292894 z " id="path930" sodipodi:nodetypes="cccccccccccccccc" style="fill:#ffffff;fill-rule:evenodd;stroke-width:0.42649043;stroke-opacity:0.36477986;"/>
  <g id="g1552" style="fill:url(#linearGradient1506);" transform="matrix(0.304171,0.000000,0.000000,0.297572,-36.70399,-112.4880)">
    <path d="M 173.35959,408.81260 L 173.35959,531.07360 L 173.35959,653.33460 L 173.35959,775.59560 L 173.35959,897.85660 L 282.12187,897.85660 L 390.88417,897.85660 L 499.64646,897.85660 L 608.40874,897.85660 L 608.40874,775.59560 L 608.40874,653.33460 L 608.40874,531.07360 L 499.64646,408.81260 L 390.88417,408.81260 L 282.12187,408.81260 L 173.35959,408.81260 z " id="path1505" sodipodi:nodetypes="cccccccccccccccc" style="fill-opacity:0.75000000;fill-rule:evenodd;stroke-width:0.95407495pt;"/>
    <path d="M 170.12500,407.18750 C 170.12500,571.82292 170.12500,736.45833 170.12500,901.09375 C 317.30208,901.09375 464.47917,901.09375 611.65625,901.09375 C 611.65625,777.33333 611.65625,653.57292 611.65625,529.81250 C 574.80918,488.38978 537.97604,446.95335 501.09375,405.56250 C 390.77083,405.56250 280.44792,405.56250 170.12500,405.56250 C 170.12500,405.89583 170.12500,406.97917 170.12500,407.18750 z " id="path1538" style="fill-opacity:0.75000000;fill-rule:evenodd;stroke-width:0.95407495pt;"/>
    <path d="M 166.87500,403.93750 C 166.87500,570.73958 166.87500,737.54167 166.87500,904.34375 C 316.21875,904.34375 465.56250,904.34375 614.90625,904.34375 C 614.90625,779.08333 614.90625,653.82292 614.90625,528.56250 C 577.45517,486.47298 540.01754,444.37017 502.53125,402.31250 C 390.64583,402.31250 278.76042,402.31250 166.87500,402.31250 C 166.87500,402.64583 166.87500,403.72917 166.87500,403.93750 z " id="path1543" style="fill-opacity:0.75000000;fill-rule:evenodd;stroke-width:0.95407495pt;"/>
  </g>
  <path d="M 297.99034,136.74154 L 297.99034,260.57234 L 297.99034,384.40315 L 297.99034,508.23395 L 297.99034,632.06475 L 410.99634,632.06475 L 524.00235,632.06475 L 637.00835,632.06475 L 750.01435,632.06475 L 750.01435,508.23395 L 750.01435,384.40315 L 750.01435,260.57234 L 637.00835,136.74154 L 524.00235,136.74154 L 410.99634,136.74154 L 297.99034,136.74154 z " id="rect900" sodipodi:nodetypes="cccccccccccccccc" style="fill:url(#linearGradient1495);fill-opacity:1;fill-rule:evenodd;stroke:#000000;stroke-width:1.4375000;stroke-opacity:0.36477986;" transform="matrix(0.296689,0.000000,0.000000,0.296689,-71.19601,-34.05825)"/>
  <path d="M 31.963103,53.700787 L 31.963103,54.796948 L 31.963103,67.745348 L 31.963103,68.841508 L 31.963103,80.693748 L 31.963103,81.789907 L 31.963103,93.642145 L 31.963103,94.738295 L 31.963103,106.59053 L 31.963103,107.68670 L 31.963103,119.51609 L 31.963103,120.61226 L 31.963103,132.46449 L 31.963103,133.56065 L 32.976747,133.56065 L 67.884108,133.56065 L 68.897752,133.56065 L 69.911395,133.56065 L 103.78399,133.56065 L 104.79763,133.56065 L 105.81128,133.56065 L 140.71864,133.56065 L 141.73228,133.56065 L 141.73228,132.46449 L 141.73228,119.51609 L 141.73228,118.41994 L 141.73228,106.59053 L 141.73228,105.49438 L 141.73228,93.642145 L 141.73228,92.545985 L 141.73228,80.693748 L 141.73228,79.597585 L 141.73228,67.745348 L 141.73228,66.649188 L 141.73228,54.796948 L 141.73228,53.700787 L 140.71864,53.700787 L 105.81128,53.700787 L 104.79763,53.700787 L 69.911395,53.700787 L 68.897752,53.700787 L 32.976747,53.700787 L 31.963103,53.700787 z M 33.990391,55.893109 L 67.884108,55.893109 L 67.884108,66.649188 L 33.990391,66.649188 L 33.990391,55.893109 z M 69.911395,55.893109 L 103.78399,55.893109 L 103.78399,66.649188 L 69.911395,66.649188 L 69.911395,55.893109 z M 105.81128,55.893109 L 139.70499,55.893109 L 139.70499,66.649188 L 105.81128,66.649188 L 105.81128,55.893109 z M 33.990391,68.841508 L 67.884108,68.841508 L 67.884108,79.597585 L 33.990391,79.597585 L 33.990391,68.841508 z M 69.911395,68.841508 L 103.78399,68.841508 L 103.78399,79.597585 L 69.911395,79.597585 L 69.911395,68.841508 z M 105.81128,68.841508 L 139.70499,68.841508 L 139.70499,79.597585 L 105.81128,79.597585 L 105.81128,68.841508 z M 33.990391,81.789907 L 67.884108,81.789907 L 67.884108,92.545985 L 33.990391,92.545985 L 33.990391,81.789907 z M 69.911395,81.789907 L 103.78399,81.789907 L 103.78399,92.545985 L 69.911395,92.545985 L 69.911395,81.789907 z M 105.81128,81.789907 L 139.70499,81.789907 L 139.70499,92.545985 L 105.81128,92.545985 L 105.81128,81.789907 z M 33.990391,94.738295 L 67.884108,94.738295 L 67.884108,105.49438 L 33.990391,105.49438 L 33.990391,94.738295 z M 69.911395,94.738295 L 103.78399,94.738295 L 103.78399,105.49438 L 69.911395,105.49438 L 69.911395,94.738295 z M 105.81128,94.738295 L 139.70499,94.738295 L 139.70499,105.49438 L 105.81128,105.49438 L 105.81128,94.738295 z M 33.990391,107.68670 L 67.884108,107.68670 L 67.884108,118.41994 L 33.990391,118.41994 L 33.990391,107.68670 z M 69.911395,107.68670 L 103.78399,107.68670 L 103.78399,118.41994 L 69.911395,118.41994 L 69.911395,107.68670 z M 105.81128,107.68670 L 139.70499,107.68670 L 139.70499,118.41994 L 105.81128,118.41994 L 105.81128,107.68670 z M 33.990391,120.61226 L 67.884108,120.61226 L 67.884108,131.36833 L 33.990391,131.36833 L 33.990391,120.61226 z M 69.911395,120.61226 L 103.78399,120.61226 L 103.78399,131.36833 L 69.911395,131.36833 L 69.911395,120.61226 z M 105.81128,120.61226 L 139.70499,120.61226 L 139.70499,131.36833 L 105.81128,131.36833 L 105.81128,120.61226 z " id="path1582" style="fill-opacity:1;fill-rule:evenodd;stroke-width:0.50000000;fill:url(#linearGradient849);stroke:url(#linearGradient840);stroke-opacity:0.44654086;stroke-miterlimit:4.0000000;stroke-dasharray:none;"/>
  <path d="M 301.30655,174.90867 L 299.27069,628.90434 L 743.08709,628.90434 L 743.34157,516.67783 C 733.41677,520.49506 633.15091,378.49417 506.92790,384.60173 C 380.59029,390.71484 413.27857,193.23136 301.30655,174.90867 z " id="path1500" sodipodi:nodetypes="cccczc" style="fill:url(#linearGradient1499);fill-opacity:1;fill-rule:evenodd;stroke-width:1.0000000pt;" transform="matrix(0.296689,0.000000,0.000000,0.296689,-71.19601,-34.05825)"/>
  <path d="M 750.01435,260.57234 C 715.94460,250.48602 671.79788,251.91624 638.44792,257.66516 C 644.20618,220.71628 644.92597,174.41021 637.00835,136.74154 L 750.01435,260.57234 z " id="path906" sodipodi:nodetypes="cccc" style="fill:url(#linearGradient1497);fill-opacity:1;fill-rule:evenodd;stroke-width:0.95407495pt;" transform="matrix(0.296689,0.000000,0.000000,0.296689,-71.19601,-34.05825)"/>
  <rect height="20.954082" id="rect1534" style="fill:#7b7b7b;fill-opacity:0.43396226;fill-rule:evenodd;stroke-width:1.0000000pt;" width="74.377357" x="31.921856" y="18.267717"/>
  <g id="g1559" transform="translate(-36.52665,149.4445)">
    <path d="M 141.11455,-40.911483 C 141.11455,-29.835507 106.40164,-24.807731 88.582677,-24.807731 C 70.763711,-24.807731 36.050806,-29.835507 36.050806,-40.911483 L 36.050807,-51.973425 L 88.582682,-51.973425 L 141.11455,-51.973425 L 141.11455,-40.911483 z " id="path951" sodipodi:nodetypes="czccccc" style="fill:url(#linearGradient852);fill-opacity:1;fill-rule:evenodd;stroke-width:0.99417171pt;" transform="matrix(1.000000,0.000000,0.000000,1.456607,53.69640,36.68630)"/>
    <path d="M 141.73228,-34.881889 C 141.73228,-25.102362 35.433075,-25.102362 35.433075,-34.881889 C 35.433075,-44.661417 59.244098,-52.598425 88.582680,-52.598425 C 117.92126,-52.598425 141.73228,-44.661417 141.73228,-34.881889 z " id="path952" sodipodi:nodetypes="cccc" style="fill:#ba3100;fill-rule:evenodd;stroke-width:1.0000000pt;" transform="matrix(0.989658,0.000000,0.000000,1.150435,54.61256,0.200436)"/>
    <path d="M 141.73228,-34.881889 C 141.73228,-25.102362 117.92126,-17.165354 88.582680,-17.165354 C 59.244098,-17.165354 35.433075,-25.102362 35.433075,-34.881889 L 141.73228,-34.881889 z " id="path957" sodipodi:nodetypes="cccc" style="fill:url(#linearGradient845);fill-opacity:1;fill-rule:evenodd;stroke-width:1.0000000pt;" transform="matrix(0.989658,0.000000,0.000000,1.150435,54.60963,0.200436)"/>
    <path d="M 141.73228,-34.881889 C 141.73228,-25.102362 117.92126,-17.165354 88.582680,-17.165354 L 88.579760,-34.881895 L 126.15945,-47.407480 C 135.77953,-44.200787 141.73228,-39.771653 141.73228,-34.881889 z " id="path955" sodipodi:nodetypes="ccccc" style="fill:#55a734;fill-rule:evenodd;stroke-width:1.0000000pt;" transform="matrix(0.989658,0.000000,0.000000,1.150435,54.61541,0.200436)"/>
    <path d="M 141.73228 -34.881889 A 53.149605 17.716536 0 1 0 35.433075,-34.881889 A 53.149605 17.716536 0 1 0 141.73228 -34.881889 z" id="path1545" sodipodi:cx="88.582680" sodipodi:cy="-34.881889" sodipodi:rx="53.149605" sodipodi:ry="17.716536" sodipodi:type="arc" style="fill:url(#linearGradient844);fill-opacity:1;fill-rule:evenodd;stroke-width:1.0000000pt;" transform="matrix(0.833333,0.000000,0.000000,0.844264,68.46021,-10.47941)"/>
  </g>
</svg>
