<?xml version="1.0" encoding="UTF-8" standalone="no"?>
<!DOCTYPE svg PUBLIC "-//W3C//DTD SVG 1.0//EN"
"http://www.w3.org/TR/2001/REC-SVG-20010904/DTD/svg10.dtd">
<!-- Created with Inkscape (http://www.inkscape.org/) --><svg height="297mm" id="svg952" inkscape:version="0.39cvs" sodipodi:docbase="C:\Documents and Settings\steven\Desktop\Clip Art Donation" sodipodi:docname="no_u_turn_sign.svg" sodipodi:version="0.32" width="210mm" xmlns="http://www.w3.org/2000/svg" xmlns:cc="http://web.resource.org/cc/" xmlns:dc="http://purl.org/dc/elements/1.1/" xmlns:inkscape="http://www.inkscape.org/namespaces/inkscape" xmlns:rdf="http://www.w3.org/1999/02/22-rdf-syntax-ns#" xmlns:sodipodi="http://sodipodi.sourceforge.net/DTD/sodipodi-0.dtd" xmlns:xlink="http://www.w3.org/1999/xlink">
  <metadata>
    <rdf:RDF xmlns:cc="http://web.resource.org/cc/" xmlns:dc="http://purl.org/dc/elements/1.1/" xmlns:rdf="http://www.w3.org/1999/02/22-rdf-syntax-ns#">
      <cc:Work rdf:about="">
        <dc:title>No U Turn Sign</dc:title>
        <dc:description></dc:description>
        <dc:subject>
          <rdf:Bag>
            <rdf:li></rdf:li>
            <rdf:li>turn</rdf:li>
            <rdf:li>no</rdf:li>
            <rdf:li>roadsign</rdf:li>
            <rdf:li>sign</rdf:li>
            <rdf:li>transportation</rdf:li>
          </rdf:Bag>
        </dc:subject>
        <dc:publisher>
          <cc:Agent rdf:about="http://www.openclipart.org">
            <dc:title>Steven Levis</dc:title>
          </cc:Agent>
        </dc:publisher>
        <dc:creator>
          <cc:Agent>
            <dc:title>Steven Levis</dc:title>
          </cc:Agent>
        </dc:creator>
        <dc:rights>
          <cc:Agent>
            <dc:title>Steven Levis</dc:title>
          </cc:Agent>
        </dc:rights>
        <dc:date></dc:date>
        <dc:format>image/svg+xml</dc:format>
        <dc:type rdf:resource="http://purl.org/dc/dcmitype/StillImage"/>
        <cc:license rdf:resource="http://web.resource.org/cc/PublicDomain"/>
        <dc:language>en</dc:language>
      </cc:Work>
      <cc:License rdf:about="http://web.resource.org/cc/PublicDomain">
        <cc:permits rdf:resource="http://web.resource.org/cc/Reproduction"/>
        <cc:permits rdf:resource="http://web.resource.org/cc/Distribution"/>
        <cc:permits rdf:resource="http://web.resource.org/cc/DerivativeWorks"/>
      </cc:License>
    </rdf:RDF>
  </metadata>
  <defs id="defs954"/>
  <sodipodi:namedview bordercolor="#666666" borderopacity="1.0" id="base" inkscape:cx="297.63777" inkscape:cy="420.94487" inkscape:pageopacity="0.0" inkscape:pageshadow="2" inkscape:window-height="721" inkscape:window-width="1024" inkscape:window-x="-4" inkscape:window-y="-4" inkscape:zoom="0.66398243" pagecolor="#ffffff"/>
  <path d="M 176.90998,77.393168 C 136.24097,77.393168 103.16768,109.77795 101.89740,150.14027 L 102.03066,150.14027 L 102.03066,213.52931 C 97.720337,211.06218 93.523797,208.74684 92.480107,209.81274 C 91.443967,210.87091 93.822637,214.97780 96.359557,219.20042 L 96.478007,219.12638 L 122.12385,260.18637 L 140.76594,225.13805 L 140.76594,225.12325 C 140.77844,225.09763 140.79770,225.06018 140.81036,225.03440 L 147.60681,212.25591 C 148.01233,211.23763 148.31165,210.33255 148.22870,209.76832 C 148.19540,209.54183 148.11171,209.35238 147.97698,209.22046 C 147.08123,208.34337 143.87739,210.03915 140.39577,212.07822 L 140.39577,145.52047 C 143.93958,128.46124 159.01213,115.61020 177.11728,115.61020 C 195.26979,115.61020 210.37601,128.52784 213.86842,145.65373 L 213.86842,258.00973 L 252.23352,258.00973 L 252.23352,148.34862 L 251.75969,148.06729 C 249.43377,108.68490 216.87308,77.393168 176.90998,77.393168 z " id="rect6590" style="fill:#000000;fill-opacity:1.0000000;fill-rule:evenodd;stroke:none;stroke-width:1.0000000pt;stroke-linecap:butt;stroke-linejoin:miter;stroke-opacity:1.0000000;"/>
  <path d="M 176.01533,22.599408 C 91.323767,22.599408 22.599337,91.338658 22.599337,176.03021 C 22.599337,260.72176 91.323767,329.46099 176.01533,329.46100 C 260.70688,329.46100 329.44611,260.72177 329.44612,176.03021 C 329.44612,91.338648 260.70688,22.599408 176.01533,22.599408 z M 176.47434,52.924278 C 244.67074,52.924268 300.00968,108.27802 300.00968,176.47442 C 300.00968,201.61100 292.48523,224.99469 279.57593,244.51288 L 108.43589,73.372828 C 127.95407,60.460988 151.33776,52.924278 176.47434,52.924278 z M 78.969827,100.67706 L 252.28651,273.97893 C 231.35120,290.28918 205.05003,300.02456 176.47434,300.02456 C 108.27794,300.02456 52.924197,244.67082 52.924197,176.47442 C 52.924197,147.90290 62.663897,121.61390 78.969827,100.67706 z " id="path18646" style="fill:#c00000;fill-opacity:1.0000000;fill-rule:evenodd;stroke:none;stroke-width:1.0000000pt;stroke-linecap:butt;stroke-linejoin:miter;stroke-opacity:1.0000000;"/>
  <rect height="329.45148" id="rect19272" rx="20.000000" ry="20.000000" style="fill:none;fill-opacity:0.75000000;fill-rule:evenodd;stroke:#000000;stroke-width:1.0000000pt;stroke-linecap:butt;stroke-linejoin:miter;stroke-opacity:1.0000000;" width="329.45148" x="13.178053" y="9.4129028"/>
</svg>
