<?xml version="1.0" encoding="utf-8"?>
<!-- Generator: Adobe Illustrator 10.0, SVG Export Plug-In . SVG Version: 3.0.0 Build 77)  --><svg enable-background="new 0 0 266.977 260.244" height="260.244" i:pageBounds="0 792 612 0" i:rulerOrigin="0 0" i:viewOrigin="172 525" overflow="visible" space="preserve" viewBox="0 0 266.977 260.244" width="266.977" xmlns="http://www.w3.org/2000/svg" xmlns:a="http://ns.adobe.com/AdobeSVGViewerExtensions/3.0/" xmlns:graph="http://ns.adobe.com/Graphs/1.0/" xmlns:i="http://ns.adobe.com/AdobeIllustrator/10.0/" xmlns:x="http://ns.adobe.com/Extensibility/1.0/" xmlns:xlink="http://www.w3.org/1999/xlink">
  <metadata>
    <rdf:RDF xmlns:cc="http://web.resource.org/cc/" xmlns:dc="http://purl.org/dc/elements/1.1/" xmlns:rdf="http://www.w3.org/1999/02/22-rdf-syntax-ns#">
      <cc:Work rdf:about="">
        <dc:title>Baseball (B and W)</dc:title>
        <dc:description>Baseball (Black and White)</dc:description>
        <dc:subject>
          <rdf:Bag>
            <rdf:li>sports</rdf:li>
            <rdf:li>toy</rdf:li>
            <rdf:li>baseball</rdf:li>
            <rdf:li>equipment</rdf:li>
          </rdf:Bag>
        </dc:subject>
        <dc:publisher>
          <cc:Agent rdf:about="http://www.openclipart.org/">
            <dc:title>Open Clip Art Project</dc:title>
          </cc:Agent>
        </dc:publisher>
        <dc:creator>
          <cc:Agent rdf:about="http://web.resource.org/cc/PublicDomain">
            <dc:title>Gerald G.</dc:title>
          </cc:Agent>
        </dc:creator>
        <dc:rights>
          <cc:Agent rdf:about="http://web.resource.org/cc/PublicDomain">
            <dc:title>Public Domain</dc:title>
          </cc:Agent>
        </dc:rights>
        <dc:date>2005/05/06</dc:date>
        <dc:format>image/svg+xml</dc:format>
        <dc:type rdf:resource="http://purl.org/dc/dcmitype/StillImage"/>
        <cc:license rdf:resource="http://web.resource.org/cc/PublicDomain"/>
        <dc:language>en</dc:language>
      </cc:Work>
      <cc:License rdf:about="http://web.resource.org/cc/PublicDomain">
        <cc:permits rdf:resource="http://web.resource.org/cc/Reproduction"/>
        <cc:permits rdf:resource="http://web.resource.org/cc/Distribution"/>
        <cc:permits rdf:resource="http://web.resource.org/cc/DerivativeWorks"/>
      </cc:License>
    </rdf:RDF>
  </metadata>
  <g i:dimmedPercent="50" i:layer="yes" i:rgbTrio="#4F008000FFFF" id="Layer_1">
    <g>
      <path clip-rule="evenodd" d="M0,130.141c0,71.82,59.796,130.104,133.488,130.104     c73.727,0,133.489-58.283,133.489-130.104C266.977,58.284,207.215,0,133.488,0C59.796,0,0,58.284,0,130.141z" fill-rule="evenodd" i:knockout="Off"/>
      <path clip-rule="evenodd" d="M2.952,131.508     c0,71.855,57.528,126.107,131.22,126.107c73.729,0,130.608-54.574,130.608-126.432c0-71.819-57.527-128.627-131.219-128.627     C59.832,2.556,2.952,59.652,2.952,131.508z" fill="#FFFFFF" fill-rule="evenodd" i:knockout="Off"/>
      <path clip-rule="evenodd" d="M68.184,68.976c-0.36-0.18-1.764-0.252-2.952-0.504     c-1.26-0.396-2.664-0.972-4.068-1.44c-1.368-0.54-2.7-1.044-3.996-1.224c-1.404-0.216-2.772,0.324-3.96,0.108     c-1.296-0.324-2.124-1.584-3.456-1.836c-1.476-0.36-3.456-0.144-4.824-0.18c-1.44-0.252-2.628-0.72-3.564-0.72     c-1.044-0.108-1.44,0.684-2.556,0.72c-1.224-0.036-3.348-0.468-4.572-0.324c-1.296,0.144-1.944,0.504-3.06,0.936     c-1.296,0.36-3.6,0.648-3.996,1.008c-0.36,0.18,0.936,0.216,1.944,0.108c0.864-0.144,2.304-1.152,3.492-1.224     c1.116-0.216,1.944,0,3.456,0.108c1.332-0.036,3.888-0.036,4.896,0c0.864-0.18,0.324-0.468,0.9-0.432     c0.576,0,1.296,0.144,2.556,0.432c1.152,0.108,3.06-0.036,4.608,0.396c1.44,0.396,2.988,1.548,4.356,1.944     c1.296,0.18,2.088-0.396,3.492-0.216c1.26,0.144,2.88,1.044,4.176,1.44c1.188,0.216,2.196,0.504,3.168,0.72     c0.936,0.18,1.836,0.72,2.556,0.792C67.5,69.624,68.292,69.048,68.184,68.976z" fill-rule="evenodd" i:knockout="Off"/>
      <path clip-rule="evenodd" d="M20.448,70.704c-0.036-0.252-1.908,1.656-2.844,2.664     c-0.9,0.756-1.404,1.728-2.34,2.772c-1.008,1.152-2.52,2.844-3.276,3.96c-0.828,1.008-2.016,2.268-1.62,2.124     c0.252-0.324,2.232-2.376,3.456-3.636c1.08-1.332,2.124-2.448,3.276-3.78C18.18,73.404,20.268,70.92,20.448,70.704z" fill-rule="evenodd" i:knockout="Off"/>
      <path clip-rule="evenodd" d="M63.72,69.192c-1.152,1.98-5.616,7.776-7.272,10.584     c-1.62,2.664-2.592,5.076-3.06,5.436c-0.612,0.144-0.648-2.772-0.792-3.888c-0.324-1.188-1.584-1.08-0.72-2.736     c0.828-1.764,3.672-5.4,5.616-7.164c1.872-1.872,4.356-3.204,5.508-3.564C63.972,67.428,64.764,67.176,63.72,69.192z" fill-rule="evenodd" i:knockout="Off"/>
      <path clip-rule="evenodd" d="M43.812,82.332c0.936-0.936,3.276-6.336,4.788-8.568     c1.404-2.268,2.556-3.204,3.6-4.464c0.972-1.296,3.06-3.096,2.52-3.06c-0.756-0.108-4.068,1.44-5.904,2.844     c-1.8,1.368-3.6,3.6-4.572,5.292c-0.9,1.548-1.44,2.772-1.332,4.212C42.768,79.92,42.84,83.016,43.812,82.332z" fill-rule="evenodd" i:knockout="Off"/>
      <path clip-rule="evenodd" d="M36.9,80.316c0.9-1.26,2.232-6.408,3.852-9.072     c1.44-2.736,4.32-5.76,4.896-6.84c0.468-1.152-0.828-0.288-1.944,0.504c-1.188,0.828-3.852,2.628-5.076,4.284     c-1.404,1.62-2.412,3.456-2.88,5.076c-0.54,1.476,0,2.664,0.216,3.708C36.036,78.948,36.072,81.396,36.9,80.316z" fill-rule="evenodd" i:knockout="Off"/>
      <path clip-rule="evenodd" d="M30.24,79.596c0.9-0.612,2.772-5.76,4.104-7.956     c1.152-2.196,2.484-3.852,3.168-5.112c0.684-1.296,1.044-2.088,0.792-2.232c-0.396-0.252-1.836,0.36-2.952,1.44     c-1.296,1.044-3.06,3.78-4.176,5.292c-1.116,1.368-2.016,2.268-2.16,3.672C28.8,76.14,29.34,79.992,30.24,79.596z" fill-rule="evenodd" i:knockout="Off"/>
      <path clip-rule="evenodd" d="M25.164,79.776c0.396-0.684,0.576-3.816,1.116-5.508     c0.396-1.836,1.08-3.06,2.052-4.788c1.008-1.764,3.636-5.04,3.852-5.508c0.108-0.612-2.016,1.26-3.06,2.268     c-1.26,0.9-2.628,2.052-3.672,3.456c-1.08,1.44-1.872,2.988-2.232,4.5c-0.324,1.296-0.252,2.448,0.216,3.456     C23.724,78.552,24.624,80.28,25.164,79.776z" fill-rule="evenodd" i:knockout="Off"/>
      <path clip-rule="evenodd" d="M25.164,67.356c-0.216,0.612-2.052,1.908-2.88,3.888     c-0.864,1.764-1.404,4.716-1.908,6.624c-0.504,1.692-0.684,3.78-0.936,4.176c-0.396,0.396-0.576-0.864-0.828-1.836     c-0.288-1.224-0.828-2.736-0.504-4.392c0.288-1.62,1.692-3.924,2.556-5.112c0.756-1.296,1.584-2.088,2.34-2.52     C23.796,67.5,25.164,66.852,25.164,67.356z" fill-rule="evenodd" i:knockout="Off"/>
      <path clip-rule="evenodd" d="M14.76,87.552c-0.324-0.9-1.728-3.708-1.44-5.508     c0.216-1.98,1.728-4.788,2.448-5.508c0.504-0.684,1.152-0.036,1.116,1.116c-0.144,1.008-1.476,3.24-1.62,4.896     c-0.18,1.512,0.288,3.492,0.288,4.392C15.444,87.732,15.048,88.308,14.76,87.552z" fill-rule="evenodd" i:knockout="Off"/>
      <path clip-rule="evenodd" d="M10.26,92.124c0.036-0.9-0.936-2.952-0.828-4.788     c0.072-1.98,1.476-5.328,1.44-6.012c-0.252-0.648-1.62,1.332-2.16,2.34c-0.576,0.828-1.008,1.656-1.008,3.06     c-0.036,1.404,0.36,4.032,0.9,5.112C9.036,92.772,10.008,92.772,10.26,92.124z" fill-rule="evenodd" i:knockout="Off"/>
      <path clip-rule="evenodd" d="M38.304,63.9c-0.792-0.36-1.188-1.332-1.332-2.772     c-0.288-1.656-0.936-3.528,0-6.012c0.936-2.556,4.32-7.308,5.436-8.28c1.044-0.864,0.936,1.152,0.792,2.988     c-0.324,1.692-1.944,5.184-2.232,7.416c-0.396,2.16,0.972,4.356,0.504,5.616C41.004,63.9,39.024,64.116,38.304,63.9z" fill-rule="evenodd" i:knockout="Off"/>
      <path clip-rule="evenodd" d="M46.584,64.512c-0.468-1.044-0.792-4.788-0.828-6.66     c-0.144-2.016-0.144-3.204,0.396-4.68c0.468-1.584,1.44-3.024,2.772-4.176c1.368-1.188,4.788-3.06,5.112-2.556     c0.144,0.576-3.132,3.312-3.996,5.724c-0.9,2.304-1.44,6.012-1.62,8.064c-0.396,1.944-0.036,2.844-0.324,3.672     C47.664,64.584,47.016,65.484,46.584,64.512z" fill-rule="evenodd" i:knockout="Off"/>
      <path clip-rule="evenodd" d="M54.108,66.024c-0.504-1.512-0.648-5.832-0.288-8.244     c0.216-2.412,0.828-4.176,1.836-5.832c0.828-1.764,3.168-4.392,3.672-4.284c0.432,0.072-0.504,1.944-0.72,4.788     c-0.324,2.772-0.432,9.576-0.72,11.952c-0.288,2.268-0.612,1.404-1.116,1.729C56.016,66.384,54.612,67.32,54.108,66.024z" fill-rule="evenodd" i:knockout="Off"/>
      <path clip-rule="evenodd" d="M63.288,68.364c-0.756-1.476-0.756-4.716-0.396-7.632     c0.288-3.024,1.26-7.992,2.232-9.612c1.008-1.584,2.88-1.26,3.384,0c0.288,1.08-1.044,4.248-1.224,6.732     c-0.288,2.412,0.144,6.084,0.18,7.956c0.072,1.8,0.576,2.52,0,2.988C66.636,69.156,64.08,69.66,63.288,68.364z" fill-rule="evenodd" i:knockout="Off"/>
      <path clip-rule="evenodd" d="M34.236,63.972c0.216-0.432-0.324-0.828-0.216-2.736     c0.216-2.088,1.224-7.236,1.224-8.784c-0.288-1.512-1.548-1.332-2.232-0.288c-0.684,0.936-1.332,4.176-1.548,6.12     c-0.288,1.764-0.18,4.104,0.324,5.076C32.256,64.152,33.768,64.404,34.236,63.972z" fill-rule="evenodd" i:knockout="Off"/>
      <path clip-rule="evenodd" d="M27.72,65.304c0.324-0.792-0.756-1.692-0.612-3.24     c0.072-1.656,0.936-5.58,0.792-6.228c-0.396-0.648-1.944,0.9-2.556,2.124c-0.612,1.08-1.08,3.168-1.008,4.608     c-0.036,1.368,0.324,3.348,0.936,3.852C25.74,66.744,27.432,66.096,27.72,65.304z" fill-rule="evenodd" i:knockout="Off"/>
      <path clip-rule="evenodd" d="M22.284,68.472c0.216-1.008-0.576-2.592-0.576-3.78     c-0.072-1.296,0.54-3.348,0.18-3.672c-0.54-0.36-2.484,1.08-3.06,1.548c-0.648,0.396-0.576,0.252-0.612,1.116     c-0.18,0.9-0.108,2.808,0.216,4.068c0.252,1.116,0.936,2.592,1.62,2.772C20.664,70.56,21.96,69.408,22.284,68.472z" fill-rule="evenodd" i:knockout="Off"/>
      <path clip-rule="evenodd" d="M16.812,75.204c0.18-0.396-0.792-1.872-0.828-3.024     c-0.108-1.224,0.54-3.744,0.432-4.212c-0.36-0.576-1.188,0.612-1.656,1.044c-0.432,0.288-0.828,0.324-0.792,1.224     c-0.036,0.9,0.072,3.312,0.612,4.176C15.048,75.24,16.488,75.456,16.812,75.204z" fill-rule="evenodd" i:knockout="Off"/>
      <path clip-rule="evenodd" d="M13.68,79.74c0.144-0.612-0.684-1.116-0.828-1.656     c-0.18-0.612,0.108-2.196-0.108-2.124c-0.432-0.072-1.512,1.224-1.836,1.944c-0.36,0.576-0.288,1.044-0.18,1.836     c0.072,0.648,0.18,2.304,0.72,2.34C11.844,82.044,13.464,80.388,13.68,79.74z" fill-rule="evenodd" i:knockout="Off"/>
      <path clip-rule="evenodd" d="M70.956,70.632c1.26-0.036,2.592,0,3.852,0.108     c1.26-0.036,2.628-0.036,3.672,0.288c0.792,0.288,0.648,1.044,1.656,1.584c1.008,0.504,2.412,0.828,4.356,1.26     c-0.072,0.072,0.324,0,1.188-0.072c0.864-0.144,3.6-0.684,3.744-0.504c-0.144,0.108-2.376,0.972-3.636,1.188     c-1.26,0.072-2.16-0.288-3.276-0.504c-1.26-0.288-2.52-0.612-3.348-0.972c-0.792-0.504-0.684-1.116-1.476-1.296     c-0.936-0.18-2.736,0.252-3.852,0.18C72.648,71.712,71.784,71.244,70.956,70.632z" fill-rule="evenodd" i:knockout="Off"/>
      <path clip-rule="evenodd" d="M104.544,75.744c0.288-0.18,3.276,0.684,4.644,0.792     c1.224,0,1.692-0.144,3.06-0.288c1.224-0.216,3.313-0.54,4.752-0.396c1.368,0.072,1.764,1.008,3.672,1.404     c1.8,0.36,6.804,0.576,7.092,0.792c-0.036,0.18-4.428,0.504-6.228,0.396c-1.764-0.252-2.34-1.404-3.96-1.512     c-1.728-0.144-4.212,0.612-5.904,0.72c-1.728,0.036-3.024-0.072-4.176-0.324C106.272,76.932,104.22,75.888,104.544,75.744z" fill-rule="evenodd" i:knockout="Off"/>
      <path clip-rule="evenodd" d="M73.476,70.668c-0.504-1.512-0.648-5.832-0.288-8.244     c0.216-2.412,0.828-4.176,1.836-5.832c0.828-1.764,3.168-4.392,3.672-4.284c0.432,0.072-0.504,1.944-0.72,4.788     c-0.324,2.772-0.432,9.576-0.72,11.952c-0.288,2.268-0.612,1.404-1.116,1.728C75.384,71.028,73.98,71.964,73.476,70.668z" fill-rule="evenodd" i:knockout="Off"/>
      <path clip-rule="evenodd" d="M86.112,73.656c-0.972-1.296-1.476-4.644-1.512-7.524     c-0.18-3.06,0.108-7.992,0.864-9.792c0.72-1.656,2.664-1.692,3.312-0.504c0.504,1.08-0.504,4.284-0.252,6.84     c0.108,2.556,0.972,5.868,1.332,7.848c0.216,1.764,1.008,2.376,0.432,2.952C89.532,74.016,87.12,74.772,86.112,73.656z" fill-rule="evenodd" i:knockout="Off"/>
      <path clip-rule="evenodd" d="M99.792,76.068c-1.08-1.26-2.952-5.076-3.672-7.416     c-0.864-2.304-0.828-4.176-0.72-6.048c0.144-1.944,1.044-5.364,1.584-5.4c0.396-0.216,0.36,1.98,1.296,4.644     c0.936,2.628,3.528,8.892,4.284,11.16c0.576,2.124,0.144,1.512-0.324,2.052C101.664,75.528,100.8,77.112,99.792,76.068z" fill-rule="evenodd" i:knockout="Off"/>
      <path clip-rule="evenodd" d="M112.248,76.86c-0.864-0.576,0-1.836-0.864-3.78     c-0.936-2.088-3.888-6.048-4.572-7.992c-0.684-2.052-0.648-3.312,0.108-3.636c0.576-0.396,2.088,0,3.564,1.476     c1.296,1.404,3.672,5.076,4.752,6.984c1.008,1.764,1.404,3.024,1.584,4.068c0.072,1.008-0.18,1.764-0.9,2.268     C115.056,76.716,113.004,77.292,112.248,76.86z" fill-rule="evenodd" i:knockout="Off"/>
      <path clip-rule="evenodd" d="M63.288,87.192c1.044-0.936,3.24-6.336,4.788-8.568     c1.332-2.232,2.52-3.276,3.564-4.5c1.008-1.296,3.024-3.096,2.556-3.06c-0.756-0.108-4.068,1.44-5.904,2.844     c-1.944,1.332-3.528,3.708-4.608,5.328c-0.9,1.548-1.44,2.808-1.332,4.176C62.316,84.708,62.208,87.912,63.288,87.192z" fill-rule="evenodd" i:knockout="Off"/>
      <path clip-rule="evenodd" d="M77.436,90.396c0.864-1.26,2.556-6.408,4.248-9.072     c1.62-2.736,4.716-5.76,5.4-6.84c0.504-1.152-0.9-0.288-2.124,0.504c-1.368,0.828-4.212,2.628-5.616,4.284     c-1.512,1.584-2.7,3.564-3.132,5.112c-0.54,1.404,0,2.628,0.216,3.672C76.572,89.028,76.536,91.476,77.436,90.396z" fill-rule="evenodd" i:knockout="Off"/>
      <path clip-rule="evenodd" d="M99.972,76.788c-1.188,2.052-5.544,7.812-7.236,10.62     c-1.62,2.628-2.592,5.076-3.06,5.4c-0.684,0.144-0.684-2.772-0.828-3.888c-0.324-1.188-1.584-1.08-0.72-2.736     c0.828-1.8,3.672-5.328,5.616-7.128c1.872-1.8,4.356-3.276,5.508-3.6C100.224,75.024,101.016,74.772,99.972,76.788z" fill-rule="evenodd" i:knockout="Off"/>
      <path clip-rule="evenodd" d="M104.148,93.24c-0.792-0.504-1.26-2.268-0.972-4.032     c0.252-1.908,1.44-4.968,2.448-6.84c0.9-2.016,2.016-3.708,3.06-4.536c0.936-0.864,1.98-0.72,2.7-0.396     c0.576,0.18,1.548-0.288,0.972,2.088c-0.756,2.34-3.564,9.936-4.932,12.24C105.984,94.032,104.796,93.6,104.148,93.24z" fill-rule="evenodd" i:knockout="Off"/>
      <path clip-rule="evenodd" d="M118.476,91.944c-0.576-0.324-0.432-1.296,0.288-3.06     c0.684-1.872,2.736-5.436,4.068-7.38c1.224-1.872,2.376-3.24,3.456-3.96c0.324-0.648-0.036-1.728-1.08-3.672     c-1.116-1.944-4.392-5.904-5.256-7.704c-0.9-1.944-0.864-3.564,0.108-3.348c0.972,0.252,3.492,2.34,5.616,4.752     c1.944,2.304,5.544,6.84,6.228,8.892c0.54,1.908-1.692,1.116-2.664,3.06c-1.116,1.98-2.268,6.336-3.456,8.784     c-1.224,2.304-2.412,4.932-3.564,5.544C120.996,94.392,119.7,93.852,118.476,91.944z" fill-rule="evenodd" i:knockout="Off"/>
      <path clip-rule="evenodd" d="M150.443,94.14c-0.576-0.288-0.684-1.224-0.18-3.204     c0.469-2.088,1.729-6.12,2.809-8.352c0.9-2.232,1.836-3.744,2.807-4.68c0.182-0.684-0.322-1.836-1.654-3.6     c-1.514-1.908-5.221-5.292-6.408-7.092c-1.26-1.836-1.404-3.6-0.432-3.492c0.971,0.108,3.924,1.8,6.336,3.96     c2.34,2.124,6.516,6.012,7.523,8.172c0.791,1.908-1.439,1.368-2.125,3.636c-0.756,2.16-1.295,6.948-2.016,9.648     c-0.9,2.628-1.512,5.436-2.664,6.336C153.287,96.264,151.955,95.868,150.443,94.14z" fill-rule="evenodd" i:knockout="Off"/>
      <path clip-rule="evenodd" d="M142.379,78.984c-0.936-0.504-0.359-1.944-1.619-3.924     c-1.512-2.052-5.221-5.94-6.408-7.92c-1.188-2.124-1.188-3.456-0.54-3.996c0.611-0.612,2.268-0.288,4.139,0.972     c1.764,1.224,4.934,4.932,6.445,6.804c1.332,1.728,2.195,2.916,2.447,4.104c0.287,1.08,0.145,2.016-0.576,2.664     C145.477,78.372,143.207,79.272,142.379,78.984z" fill-rule="evenodd" i:knockout="Off"/>
      <path clip-rule="evenodd" d="M133.992,95.832c-0.792-0.612-1.368-2.376-1.044-4.32     c0.252-1.944,1.584-5.292,2.628-7.272c0.971-2.196,2.16-3.96,3.275-4.86c1.045-0.864,2.088-0.864,2.844-0.432     c0.541,0.18,1.764-0.324,1.045,2.232c-0.756,2.664-3.852,10.404-5.256,13.068C135.973,96.66,134.711,96.264,133.992,95.832z" fill-rule="evenodd" i:knockout="Off"/>
      <path clip-rule="evenodd" d="M166.141,79.704c0.18-0.396,1.691-0.756,2.734-1.08     c0.9-0.504,1.945-0.864,3.277-1.08c1.332-0.324,2.844-0.216,4.535-0.216c1.439-0.108,2.701,0.432,4.752,0.108     c2.053-0.396,5.184-2.016,7.309-2.088c2.016-0.18,4.535,0.936,4.645,1.116c-0.217-0.036-3.025-0.9-4.824-0.504     c-1.764,0.432-3.529,2.304-5.438,2.844c-1.906,0.216-4.355-0.396-5.832-0.576c-1.584-0.18-1.979-0.54-3.563-0.108     c-1.764,0.396-5.041,2.232-6.336,2.592C166.211,80.964,165.744,80.028,166.141,79.704z" fill-rule="evenodd" i:knockout="Off"/>
      <path clip-rule="evenodd" d="M165.023,94.572c-0.611-0.18-0.719-1.296-0.324-3.204     c0.252-2.016,1.621-6.264,2.449-8.46c0.791-2.304,1.691-3.744,2.555-4.752c-0.252-0.864-0.719-2.088-1.799-3.528     c-1.08-1.692-3.313-3.456-4.357-5.292c-1.223-1.836-2.916-4.896-2.158-5.148c0.719-0.18,4.643,1.8,6.91,3.852     c2.197,1.944,5.904,5.796,6.697,7.812c0.684,1.872-1.404,1.44-1.98,3.708c-0.611,2.196-1.008,7.02-1.584,9.756     c-0.576,2.7-1.404,5.436-2.34,6.408C168.047,96.624,166.645,96.192,165.023,94.572z" fill-rule="evenodd" i:knockout="Off"/>
      <path clip-rule="evenodd" d="M183.313,76.932c-0.865-0.432-0.973-1.728-2.557-3.456     c-1.764-1.908-6.408-5.688-7.813-7.308c-1.512-1.584-1.764-2.34-0.9-2.268c0.865-0.144,3.672,0.432,6.049,1.872     c2.305,1.368,5.939,5.004,7.416,6.732c1.26,1.62,1.152,2.592,0.791,3.348C185.867,76.572,184.176,77.256,183.313,76.932z" fill-rule="evenodd" i:knockout="Off"/>
      <path clip-rule="evenodd" d="M181.26,93.348c-0.469-0.756,0.611-2.592,0.469-4.824     c-0.361-2.304-1.549-6.696-1.477-8.316c0.107-1.656,1.404-1.728,2.375-1.188c0.828,0.468,2.773,2.016,3.061,4.248     c0.217,2.268-0.863,7.164-1.584,9C183.313,93.78,181.584,93.996,181.26,93.348z" fill-rule="evenodd" i:knockout="Off"/>
      <path clip-rule="evenodd" d="M193.787,91.548c-0.539-1.044,0.973-4.824,1.08-7.308     c-0.107-2.52-1.404-6.264-1.26-7.488c0.107-1.368,1.297-1.188,2.053-0.288c0.684,0.828,1.656,3.168,2.088,5.508     c0.432,2.304,0.936,6.192,0.396,7.92C197.389,91.44,194.363,92.448,193.787,91.548z" fill-rule="evenodd" i:knockout="Off"/>
      <path clip-rule="evenodd" d="M196.451,77.328c0.434-0.468,1.404-1.872,1.404-3.24     c0.037-1.404,0.865-2.664-1.404-4.752c-2.482-2.196-11.088-7.02-13.031-7.812c-1.943-0.864-0.432,1.62,1.188,3.168     c1.549,1.44,5.797,4.104,7.596,6.048c1.621,1.836,1.621,4.284,2.377,5.4C195.299,77.22,195.875,77.616,196.451,77.328z" fill-rule="evenodd" i:knockout="Off"/>
      <path clip-rule="evenodd" d="M205.561,88.236c-0.576-0.108-0.828-1.008-0.9-2.844     c-0.037-1.872,0.18-6.012,0.648-8.1c0.359-2.196,0.791-3.744,1.439-4.788c-0.289-0.792-1.188-1.692-2.305-2.844     c-1.26-1.224-3.672-2.592-4.896-3.96c-1.367-1.44-3.635-3.924-2.916-4.248c0.576-0.36,4.572,0.792,6.984,2.196     c2.412,1.332,6.336,4.104,7.488,5.796c0.973,1.584-0.973,1.476-1.115,3.708c-0.109,2.16,0.396,6.444,0.396,9.108     c-0.217,2.484-0.109,5.22-0.938,6.264C208.619,89.532,207.324,89.388,205.561,88.236z" fill-rule="evenodd" i:knockout="Off"/>
      <path clip-rule="evenodd" d="M224.748,39.456c1.404-0.072,2.844,0.288,4.463,0.792     c1.549,0.396,3.529,1.188,4.824,2.376c1.189,1.152,2.125,2.808,2.664,4.824c-2.303-1.296-4.391-2.484-6.408-3.852     C228.275,42.192,226.477,40.86,224.748,39.456z" fill-rule="evenodd" i:knockout="Off"/>
      <path clip-rule="evenodd" d="M237.816,51.408c0.646,0.936,1.512,1.944,2.447,3.168     s1.943,2.376,3.168,3.852c0.504-1.224,0.18-2.412-0.684-3.564C241.74,53.676,240.191,52.524,237.816,51.408z" fill-rule="evenodd" i:knockout="Off"/>
      <path clip-rule="evenodd" d="M236.52,52.488c-0.035-1.872-0.828-3.204-2.664-4.428     c-1.799-1.188-4.5-2.124-8.1-2.664c0.721,0.972,1.656,1.944,2.664,2.772c1.08,0.9,2.375,1.656,3.455,2.268     c0.9,0.504,1.297,0.144,2.16,0.576C234.791,51.336,235.619,51.876,236.52,52.488z" fill-rule="evenodd" i:knockout="Off"/>
      <path clip-rule="evenodd" d="M244.512,62.892c-0.359-0.9-2.592-3.636-3.637-4.752     c-1.15-1.224-3.096-2.52-2.771-1.8c0.359,0.756,3.564,5.184,4.752,6.336C243.936,63.684,244.764,63.612,244.512,62.892z" fill-rule="evenodd" i:knockout="Off"/>
      <path clip-rule="evenodd" d="M235.439,57.06c-0.324,0.108-1.98-2.124-4.141-3.384     c-2.195-1.332-7.775-3.204-8.818-3.96c-1.045-0.72,1.08-0.828,2.482-0.468c1.332,0.216,3.744,1.296,5.148,1.872     c1.225,0.36,1.621,0.036,2.557,0.972C233.531,53.028,235.619,56.772,235.439,57.06z" fill-rule="evenodd" i:knockout="Off"/>
      <path clip-rule="evenodd" d="M243.432,73.26c0.469,0.036-0.973-5.292-1.98-7.236     c-1.188-1.98-2.988-3.456-4.139-4.428c-1.189-1.08-1.836-1.692-2.484-1.692c-0.721-0.144-1.225,1.44-1.656,1.296     c-0.432-0.252-0.504-1.332-1.188-2.268c-0.828-1.044-1.549-2.736-3.672-3.672c-2.412-1.116-8.568-2.448-9.576-2.448     c-0.9,0.036,1.908,1.08,3.959,2.556c1.98,1.368,6.229,4.284,7.488,5.832c1.045,1.404-1.188,1.728-0.863,2.772     c0.324,0.9,1.439,1.476,2.664,3.132c1.188,1.62,3.059,4.68,3.959,6.552c0.613,1.8,0.252,4.536,0.469,4.32     c0.18-0.36,1.547-3.816,0.9-6.192c-0.756-2.556-4.645-6.588-5.148-8.208c-0.648-1.656,0.791-1.584,1.799-1.296     c0.973,0.216,2.484,0.864,4.141,2.772C239.652,66.78,242.82,73.08,243.432,73.26z" fill-rule="evenodd" i:knockout="Off"/>
      <path clip-rule="evenodd" d="M212.904,57.636c0.18-0.54,4.031-0.648,6.408,0.504     c2.303,1.008,6.516,4.536,7.631,6.12c1.045,1.512-1.656,1.836-1.295,3.348c0.252,1.44,2.34,3.42,3.059,5.652     c0.613,2.196,1.152,7.128,0.793,7.308c-0.504-0.036-2.088-5.004-3.24-6.84c-1.152-1.872-3.313-3.06-3.564-4.248     c-0.324-1.404,2.449-2.052,1.656-3.456c-0.936-1.548-4.535-3.6-6.516-5.04C215.748,59.508,212.76,58.068,212.904,57.636z" fill-rule="evenodd" i:knockout="Off"/>
      <path clip-rule="evenodd" d="M204.516,60.12c0,0.756,9.145,7.236,11.053,9.18     c1.799,1.8-0.289,1.44,0,2.376c0.18,0.828,0.611,0.792,1.295,3.24c0.613,2.34,1.873,10.404,2.664,11.16     c0.828,0.684,1.873-4.536,1.873-6.912c-0.252-2.628-2.521-6.264-2.773-7.992c-0.252-1.692,1.404-1.044,1.08-2.088     c-0.504-1.188-1.439-3.348-3.924-4.824C213.156,62.604,204.588,59.328,204.516,60.12z" fill-rule="evenodd" i:knockout="Off"/>
      <path clip-rule="evenodd" d="M96.12,252.359c-1.224-0.143-2.304-0.719-3.24-2.123     c-1.08-1.439-2.808-5.58-2.664-6.049c0.216-0.432,2.34,1.729,3.6,3.133c1.044,1.225,2.52,3.564,3.06,4.393     c0.468,0.719,0.468,0.719,0,0c1.044,0.504,1.908,1.223,2.736,1.764c0.792,0.539,2.052,1.295,1.98,1.727     c-0.288,0.289-2.088,0.9-3.024,0.469C97.668,255.203,96.804,254.053,96.12,252.359z" fill-rule="evenodd" i:knockout="Off"/>
      <path clip-rule="evenodd" d="M107.136,253.404c-1.584,0.576-2.952-0.217-4.644-1.98     c-1.656-1.98-5.256-8.389-5.112-9.072s3.744,3.385,5.652,5.113c1.8,1.727,3.96,3.959,4.932,4.895c0.792,0.793,0.792,0.793,0,0     c1.44,0.541,2.736,1.045,3.888,1.656c1.116,0.504,3.024,1.225,2.952,1.764c-0.252,0.396-2.484,1.656-3.78,1.297     C109.692,256.645,108.396,255.42,107.136,253.404z" fill-rule="evenodd" i:knockout="Off"/>
      <path clip-rule="evenodd" d="M112.212,249.301c-2.52-0.793-4.32-2.088-5.4-3.889     c-1.26-1.98-1.692-6.408-1.296-7.057c0.432-0.611,2.376,1.729,3.744,3.529c1.332,1.764,2.448,4.031,3.888,6.947     c5.796,2.053,8.964,3.42,9.648,4.104c0.54,0.576-4.068,0.252-5.76,0c-1.764-0.18-3.456-0.611-4.248-1.152     C111.924,251.137,111.78,250.309,112.212,249.301z" fill-rule="evenodd" i:knockout="Off"/>
      <path clip-rule="evenodd" d="M121.392,244.691l1.044-1.402     c-1.224-0.613-2.268-1.838-3.276-3.385c-1.08-1.691-2.124-5.725-2.844-6.264c-0.864-0.504-1.764,1.584-1.872,2.951     c-0.216,1.26,0.144,2.664,1.08,4.355c0.936,1.549,2.376,3.025,4.464,4.717c-1.008,0.863-1.152,1.691-0.576,2.34     c0.576,0.648,1.8,1.152,4.212,1.512c2.304,0.289,5.436,0.289,9.54,0.145c-3.384-0.648-6.048-1.439-7.992-2.232     C123.192,246.564,121.932,245.699,121.392,244.691z" fill-rule="evenodd" i:knockout="Off"/>
      <path clip-rule="evenodd" d="M132.768,240.336l1.26-1.404     c-1.224-0.828-2.232-2.088-3.168-3.924c-0.972-1.98-1.62-6.119-2.376-6.875c-0.9-0.613-1.98,1.475-2.268,2.916     c-0.324,1.295-0.144,2.916,0.684,4.715c0.864,1.693,2.196,3.457,4.284,5.436c-1.188,0.793-1.476,1.693-0.864,2.412     c0.54,0.648,1.836,1.514,4.32,2.053c2.413,0.539,5.723,0.793,10.081,1.045c-3.457-1.08-6.336-2.125-8.244-3.133     C134.532,242.461,133.164,241.381,132.768,240.336z" fill-rule="evenodd" i:knockout="Off"/>
      <path clip-rule="evenodd" d="M142.488,235.26l1.08-1.547     c-1.369-0.686-2.557-1.836-3.709-3.457c-1.295-1.799-2.447-5.904-3.313-6.48c-0.898-0.611-1.799,1.908-1.871,3.24     c-0.108,1.297,0.252,2.916,1.367,4.572c1.045,1.621,2.664,3.023,5.004,4.752c-1.008,1.045-1.223,1.836-0.504,2.52     c0.686,0.648,2.018,1.117,4.572,1.404c2.449,0.18,5.832,0,10.152-0.396c-3.707-0.574-6.443-1.223-8.604-1.943     C144.539,237.168,143.1,236.232,142.488,235.26z" fill-rule="evenodd" i:knockout="Off"/>
      <path clip-rule="evenodd" d="M151.955,228.457c0.686,1.078,3.24,0.252,3.781-1.514     c0.395-1.943-0.648-7.523-1.189-9.539c-0.684-2.088-2.195-2.953-2.592-2.447c-0.504,0.504-0.432,2.916-0.359,5.291     C151.596,222.516,151.164,227.195,151.955,228.457z" fill-rule="evenodd" i:knockout="Off"/>
      <path clip-rule="evenodd" d="M153.721,230.256c0.252,0.252,0,0.541-0.469,1.152     c-0.541,0.576-1.439,1.188-2.699,2.123c0.936,0.828,2.34,1.404,4.211,1.873c1.836,0.469,4.859,0.973,6.84,0.828     c1.908-0.252,3.348-1.08,4.465-2.34c-2.305,0.396-4.465,0.359-6.48-0.252C157.5,232.992,155.592,231.912,153.721,230.256z" fill-rule="evenodd" i:knockout="Off"/>
      <path clip-rule="evenodd" d="M172.08,220.932c0.107,0.252,0.504,0.072,1.043-0.684     c0.469-0.863,1.225-1.943,2.125-3.779c0.504-0.648,1.043-1.117,2.016-1.404c0.863-0.324,2.232-0.469,3.275-0.576     c0.973-0.217,1.729,0.18,2.701-0.611c0.828-0.865,1.547-3.564,2.844-4.357c1.295-0.9,3.348-0.395,5.039-0.576     c1.656-0.252,3.637,0.182,4.824-0.359c1.117-0.539,1.152-1.943,1.908-2.809c0.613-0.936,1.117-2.303,2.34-2.699     c1.225-0.469,3.42-0.035,5.184-0.252c1.693-0.252,3.205-0.9,4.824-1.549c-2.734,1.26-4.859,2.16-6.371,2.844     c-1.549,0.648-2.195,0.396-2.916,1.189c-0.863,0.756-0.359,2.268-2.377,3.275c-2.268,0.863-8.207,0.973-10.584,2.125     c-2.482,1.043-1.943,3.275-3.779,4.355c-1.871,0.936-5.904,0.828-7.381,1.764c-1.584,0.791-0.971,2.809-1.654,3.527     c-0.756,0.541-1.873,0.686-2.377,0.721C172.188,221.111,172.008,221.111,172.08,220.932z" fill-rule="evenodd" i:knockout="Off"/>
      <path clip-rule="evenodd" d="M174.527,216c0.576,1.08,3.313,0.252,3.781-1.512     c0.395-1.943-0.648-7.523-1.189-9.541c-0.684-2.051-2.195-3.023-2.592-2.482c-0.576,0.504-0.359,2.916-0.324,5.291     C174.061,209.988,173.844,214.813,174.527,216z" fill-rule="evenodd" i:knockout="Off"/>
      <path clip-rule="evenodd" d="M176.543,217.656c0.217,0.432,0.145,0.9-0.215,1.404     c-0.469,0.467-1.225,0.971-2.268,1.512c1.367,0.432,2.664,0.936,4.283,1.512c1.512,0.469,3.42,1.943,4.896,1.908     c1.512-0.072,2.592-0.863,3.779-2.232c-0.432-0.145-1.439-0.539-3.168-1.188C182.053,219.852,179.711,218.881,176.543,217.656z" fill-rule="evenodd" i:knockout="Off"/>
      <path clip-rule="evenodd" d="M169.379,222.229c0-0.396-2.879-0.576-3.779-0.109     c-1.008,0.396-0.539,1.369-1.656,2.342c-1.115,0.863-4.787,2.268-5.039,2.844c-0.396,0.432,1.871,0.646,2.916,0.215     c0.9-0.539,1.691-2.34,2.951-3.168C166.068,223.344,169.127,222.588,169.379,222.229z" fill-rule="evenodd" i:knockout="Off"/>
      <path clip-rule="evenodd" d="M162.432,222.84c0.648,0.973,3.24,0.359,3.744-1.547     c0.359-1.945-0.576-7.525-1.152-9.541c-0.684-2.088-2.195-2.951-2.592-2.447c-0.504,0.504-0.432,2.916-0.359,5.291     C162.072,216.828,161.641,221.652,162.432,222.84z" fill-rule="evenodd" i:knockout="Off"/>
      <path clip-rule="evenodd" d="M164.195,224.604c0.252,0.252,0,0.541-0.467,1.152     c-0.541,0.576-1.441,1.188-2.701,2.125c0.936,0.791,2.34,1.475,4.213,1.908c1.836,0.504,4.859,0.898,6.84,0.791     c1.908-0.252,3.348-1.08,4.463-2.34c-2.303,0.396-4.463,0.359-6.479-0.252C167.977,227.34,166.068,226.26,164.195,224.604z" fill-rule="evenodd" i:knockout="Off"/>
      <path clip-rule="evenodd" d="M186.912,209.412c-0.684-0.504-0.648-2.484-0.721-4.572     c-0.145-2.123-0.107-6.084,0.252-7.561c0.396-1.512,1.369-2.303,2.088-1.402c0.613,0.756,1.477,4.355,1.764,6.227     c0.145,1.873,0.182,3.529-0.322,4.824C189.324,208.152,187.523,209.629,186.912,209.412z" fill-rule="evenodd" i:knockout="Off"/>
      <path clip-rule="evenodd" d="M186.443,211.283c0.936-0.035,2.268,0.828,3.996,1.766     c1.729,0.791,5.832,2.051,6.336,2.951c0.361,0.863-1.908,2.088-3.887,1.873c-2.09-0.469-7.057-3.17-8.102-4.213     C183.637,212.473,185.436,211.355,186.443,211.283z" fill-rule="evenodd" i:knockout="Off"/>
      <path clip-rule="evenodd" d="M199.26,204.84c-0.611-1.188-0.721-5.436-0.469-7.883     c0.217-2.594,1.117-6.408,1.873-6.732c0.684-0.217,1.764,2.771,2.123,5.076c0.072,2.23-0.252,6.408-0.828,8.1     C201.313,204.947,199.764,205.848,199.26,204.84z" fill-rule="evenodd" i:knockout="Off"/>
      <path clip-rule="evenodd" d="M196.775,208.691c2.305,1.26,4.537,2.125,6.697,2.736     c2.195,0.504,5.398,0.973,6.119,0.576c0.432-0.576-0.973-2.232-2.699-3.168c-1.766-0.9-4.178-1.656-7.525-2.123     c-0.539,0.684-1.008,1.367-1.404,1.654C197.496,208.656,197.1,208.764,196.775,208.691z" fill-rule="evenodd" i:knockout="Off"/>
      <path clip-rule="evenodd" d="M208.656,201.42c1.691-1.619,2.664-3.889,3.313-6.947     c0.504-3.096-0.434-9.324,0.107-11.197c0.504-1.908,2.484-1.439,3.168-0.107c0.611,1.26,0.863,4.789,0.611,7.523     c-0.324,2.629-1.152,5.293-2.484,8.137c2.449,1.549,4.176,3.023,5.186,4.572c0.971,1.477,1.295,3.707,0.684,4.355     c-0.793,0.504-3.313,0.18-5.041-0.828C212.4,205.775,210.6,204.084,208.656,201.42z" fill-rule="evenodd" i:knockout="Off"/>
      <path clip-rule="evenodd" d="M216.756,197.137c1.297,0.324,2.34,0.107,3.275-0.938     c0.793-1.008,1.584-2.555,2.232-5.184c0.648-2.844,1.225-9.287,2.016-11.412c0.721-2.16,2.088-2.627,2.592-1.547     c0.289,1.008,0.145,5.291,0,7.416c-0.215,2.016-0.646,3.852-0.611,4.824c0.035,0.898,0.359,1.008,0.973,0.467     c-0.721,0.289-1.225,0.756-1.656,1.404c-0.504,0.648-1.008,1.439-0.828,2.377c0.107,0.756,1.188,1.115,1.871,2.34     c0.686,1.15,2.27,3.383,2.125,4.607c-0.396,1.188-2.52,2.844-3.744,2.447c-1.332-0.646-2.195-4.211-3.564-5.398     C220.031,197.389,218.52,196.92,216.756,197.137z" fill-rule="evenodd" i:knockout="Off"/>
      <path clip-rule="evenodd" d="M228.527,191.232c0.756,0.359,1.441,0.18,2.34-0.684     c0.865-0.938,1.945-1.514,2.701-4.357c0.646-2.951,0.395-10.656,1.188-12.707c0.684-1.98,2.629-1.369,3.061,0.467     c0.395,1.766-0.541,7.561-0.721,9.758c-0.396,2.051-1.225,1.906-0.936,2.482c0.287,0.504,1.656,0.793,2.699,0.469     c0.9-0.432,2.16-1.332,2.953-2.844c0.611-1.729,0.898-3.924,1.402-6.588c0.469-2.736,1.152-8.748,1.766-9.289     c0.539-0.504,1.691,3.816,1.656,6.012c-0.037,2.09-2.09,5.221-1.873,6.48c0.145,1.117,1.115,1.225,2.916,0.324     c-1.439,0.359-2.412,1.045-2.916,1.764c-0.539,0.684-0.396,1.369-0.252,2.736c0.18,1.297,0.936,3.564,0.721,5.293     c-0.361,1.654-1.549,3.131-3.168,4.57c0.287-2.34,0-4.104-0.721-5.291c-0.9-1.297-3.168-2.16-3.889-2.016     c-0.828,0.215-0.287,1.152-0.467,2.951c-0.252,1.621-0.217,5.545-0.721,7.057c-0.576,1.477-1.26,2.016-2.34,1.764     c0.504-2.195,0.541-3.744,0.107-4.932c-0.504-1.188-1.727-1.584-2.699-2.016c-1.115-0.576-2.951-0.828-3.42-1.045     C227.412,191.412,227.664,191.16,228.527,191.232z" fill-rule="evenodd" i:knockout="Off"/>
      <path clip-rule="evenodd" d="M248.148,179.461c0.611-0.324,1.332-1.297,2.016-3.061     c0.721-1.836,1.512-5.365,2.232-7.523c0.611-2.305,0.898-5.113,1.402-5.51c0.361-0.359,1.404,0.721,1.189,3.385     c-0.289,2.557-1.189,6.48-2.701,11.916c2.34-2.232,4.068-4.717,5.186-7.309c1.008-2.664,0.791-7.379,1.295-8.459     c0.576-1.117,1.584,0.576,1.764,1.619c0,0.793-1.115,2.088-1.547,3.889c-0.613,1.836-1.008,4.141-1.584,7.057     c-2.736,1.402-4.393,3.023-5.365,4.715c-0.863,1.656,0.396,3.781-0.107,5.545c-0.611,1.619-1.836,3.24-3.527,4.572     c1.26-1.766,1.799-3.313,1.764-5.041c-0.072-1.764-1.98-4.104-2.232-5.076C247.535,179.209,247.607,178.92,248.148,179.461z" fill-rule="evenodd" i:knockout="Off"/>
    </g>
  </g>
</svg>
