<?xml version="1.0" encoding="UTF-8" standalone="no"?>
<svg height="613.171" id="svg2212" inkscape:version="0.41" sodipodi:docbase="/datas/Projs/Cliparts Stocker/tmp/AIGA" sodipodi:docname="AIGA_Stairs_down_2.svg" sodipodi:version="0.32" width="612.164" xmlns="http://www.w3.org/2000/svg" xmlns:cc="http://web.resource.org/cc/" xmlns:dc="http://purl.org/dc/elements/1.1/" xmlns:inkscape="http://www.inkscape.org/namespaces/inkscape" xmlns:rdf="http://www.w3.org/1999/02/22-rdf-syntax-ns#" xmlns:sodipodi="http://inkscape.sourceforge.net/DTD/sodipodi-0.dtd" xmlns:svg="http://www.w3.org/2000/svg">
  <metadata>
    <rdf:RDF xmlns:cc="http://web.resource.org/cc/" xmlns:dc="http://purl.org/dc/elements/1.1/" xmlns:rdf="http://www.w3.org/1999/02/22-rdf-syntax-ns#">
      <cc:Work rdf:about="">
        <dc:title>AIGA_Symbol_Signs</dc:title>
        <dc:description>EPS converted from  http://aiga.org</dc:description>
        <dc:subject>
          <rdf:Bag>
            <rdf:li>symbol</rdf:li>
            <rdf:li>mapsym</rdf:li>
          </rdf:Bag>
        </dc:subject>
        <dc:publisher>
          <cc:Agent rdf:about="http://www.openclipart.org/">
            <dc:title>Open Clip Art Library</dc:title>
          </cc:Agent>
        </dc:publisher>
        <dc:creator>
          <cc:Agent>
            <dc:title>Jean-Victor Balin</dc:title>
          </cc:Agent>
        </dc:creator>
        <dc:rights>
          <cc:Agent>
            <dc:title>Jean-Victor Balin</dc:title>
          </cc:Agent>
        </dc:rights>
        <dc:date></dc:date>
        <dc:format>image/svg+xml</dc:format>
        <dc:type rdf:resource="http://purl.org/dc/dcmitype/StillImage"/>
        <cc:license rdf:resource="http://web.resource.org/cc/PublicDomain"/>
        <dc:language>en</dc:language>
      </cc:Work>
      <cc:License rdf:about="http://web.resource.org/cc/PublicDomain">
        <cc:permits rdf:resource="http://web.resource.org/cc/Reproduction"/>
        <cc:permits rdf:resource="http://web.resource.org/cc/Distribution"/>
        <cc:permits rdf:resource="http://web.resource.org/cc/DerivativeWorks"/>
      </cc:License>
    </rdf:RDF>
  </metadata>
  <sodipodi:namedview bordercolor="#666666" borderopacity="1.0" id="base" inkscape:current-layer="svg2212" inkscape:cx="305.25953" inkscape:cy="417.84947" inkscape:pageopacity="0.0" inkscape:pageshadow="2" inkscape:window-height="543" inkscape:window-width="640" inkscape:window-x="5" inkscape:window-y="48" inkscape:zoom="0.43415836" pagecolor="#ffffff"/>
  <defs id="defs2214">
    <marker id="ArrowEnd" markerHeight="3" markerUnits="strokeWidth" markerWidth="4" orient="auto" refX="0" refY="5" viewBox="0 0 10 10">
      <path d="M 0 0 L 10 5 L 0 10 z" id="path2217"/>
    </marker>
    <marker id="ArrowStart" markerHeight="3" markerUnits="strokeWidth" markerWidth="4" orient="auto" refX="10" refY="5" viewBox="0 0 10 10">
      <path d="M 10 0 L 0 5 L 10 10 z" id="path2220"/>
    </marker>
  </defs>
  <g id="g9172">
    <g id="g2222">
      <path d="M 82.4318 17.9239C 41.0968 17.9239 17.8608 39.2949 17.8608 82.9599L 17.8608 533.082C 17.8608 573.925 38.7518 595.31 80.0528 595.31L 532.077 595.31C 573.38 595.31 594.303 574.99 594.303 533.082L 594.303 82.9599C 594.303 40.3599 573.38 17.9239 530.78 17.9239C 530.78 17.9239 82.2888 17.7819 82.4318 17.9239z" id="path2224" style="stroke:#ffffff; stroke-width:3.4079999999999999; fill:#000000"/>
    </g>
    <g id="g2226">
      <path d="M 74.7058 437.447L 154.756 437.447L 154.756 355.973L 234.29 355.973L 234.29 273.947L 315.079 273.947L 315.079 193.448L 395.32 193.448L 395.32 113.474L 514.458 113.474L 514.458 154.278L 435.256 154.278L 435.256 234.555L 354.924 234.555L 354.924 315.964L 274.756 315.964L 274.756 396.947L 194.256 396.947L 194.256 478.619L 74.7058 478.619L 74.7058 437.447z" id="path2228" style="stroke:none; fill:#ffffff"/>
      <path d="M 341.463 477.033L 412.256 477.033C 431.756 477.033 432.506 447.033 412.256 447.033L 375.969 447.033L 444.981 378.021C 460.28 362.723 438.641 340.584 422.388 356.836L 354.403 425.01L 354.403 389.094C 354.506 369.594 324.256 368.844 324.21 389.094L 324.21 459.447C 324.21 469.947 331.256 477.033 341.463 477.033z" id="path2230" style="stroke:none; fill:#ffffff"/>
    </g>
  </g>
</svg>
