<?xml version="1.0" encoding="UTF-8" standalone="no"?>
<!-- Created with Inkscape (http://www.inkscape.org/) --><svg height="128.00000px" id="svg2" inkscape:export-filename="/home/nicu/Desktop/rpg_color.png" inkscape:export-xdpi="90.000000" inkscape:export-ydpi="90.000000" inkscape:version="0.42" sodipodi:docbase="/home/nicu/Desktop/hats" sodipodi:docname="hill5.svg" sodipodi:version="0.32" width="128.00000px" xmlns="http://www.w3.org/2000/svg" xmlns:cc="http://web.resource.org/cc/" xmlns:dc="http://purl.org/dc/elements/1.1/" xmlns:inkscape="http://www.inkscape.org/namespaces/inkscape" xmlns:rdf="http://www.w3.org/1999/02/22-rdf-syntax-ns#" xmlns:sodipodi="http://inkscape.sourceforge.net/DTD/sodipodi-0.dtd" xmlns:svg="http://www.w3.org/2000/svg" xmlns:xlink="http://www.w3.org/1999/xlink">
  <metadata>
    <rdf:RDF xmlns:cc="http://web.resource.org/cc/" xmlns:dc="http://purl.org/dc/elements/1.1/" xmlns:rdf="http://www.w3.org/1999/02/22-rdf-syntax-ns#">
      <cc:Work rdf:about="">
        <dc:title>hill - RPG map elements</dc:title>
        <dc:description></dc:description>
        <dc:subject>
          <rdf:Bag>
            <rdf:li>mapsym</rdf:li>
          </rdf:Bag>
        </dc:subject>
        <dc:publisher>
          <cc:Agent rdf:about="http://www.openclipart.org/">
            <dc:title>Open Clip Art Library</dc:title>
          </cc:Agent>
        </dc:publisher>
        <dc:creator>
          <cc:Agent>
            <dc:title>Nicu Buculei</dc:title>
          </cc:Agent>
        </dc:creator>
        <dc:rights>
          <cc:Agent>
            <dc:title>Nicu Buculei</dc:title>
          </cc:Agent>
        </dc:rights>
        <dc:date></dc:date>
        <dc:format>image/svg+xml</dc:format>
        <dc:type rdf:resource="http://purl.org/dc/dcmitype/StillImage"/>
        <cc:license rdf:resource="http://web.resource.org/cc/PublicDomain"/>
        <dc:language>en</dc:language>
      </cc:Work>
      <cc:License rdf:about="http://web.resource.org/cc/PublicDomain">
        <cc:permits rdf:resource="http://web.resource.org/cc/Reproduction"/>
        <cc:permits rdf:resource="http://web.resource.org/cc/Distribution"/>
        <cc:permits rdf:resource="http://web.resource.org/cc/DerivativeWorks"/>
      </cc:License>
    </rdf:RDF>
  </metadata>
  <defs id="defs3">
    <linearGradient id="linearGradient2057" inkscape:collect="always">
      <stop id="stop2059" offset="0" style="stop-color:#000000;stop-opacity:1;"/>
      <stop id="stop2061" offset="1" style="stop-color:#000000;stop-opacity:0;"/>
    </linearGradient>
    <radialGradient cx="14.207293" cy="222.04396" fx="14.207293" fy="222.04396" gradientTransform="scale(1.395230,0.716728)" gradientUnits="userSpaceOnUse" id="radialGradient2063" inkscape:collect="always" r="8.2519293" xlink:href="#linearGradient2057"/>
    <radialGradient cx="14.207293" cy="222.04396" fx="14.207293" fy="222.04396" gradientTransform="scale(1.395230,0.716728)" gradientUnits="userSpaceOnUse" id="radialGradient1315" inkscape:collect="always" r="8.2519293" xlink:href="#linearGradient2057"/>
    <radialGradient cx="14.207293" cy="222.04396" fx="14.207293" fy="222.04396" gradientTransform="scale(1.395230,0.716728)" gradientUnits="userSpaceOnUse" id="radialGradient1319" inkscape:collect="always" r="8.2519293" xlink:href="#linearGradient2057"/>
    <radialGradient cx="14.207293" cy="222.04396" fx="14.207293" fy="222.04396" gradientTransform="scale(1.395230,0.716728)" gradientUnits="userSpaceOnUse" id="radialGradient1323" inkscape:collect="always" r="8.2519293" xlink:href="#linearGradient2057"/>
    <radialGradient cx="14.207293" cy="222.04396" fx="14.207293" fy="222.04396" gradientTransform="scale(1.395230,0.716728)" gradientUnits="userSpaceOnUse" id="radialGradient1327" inkscape:collect="always" r="8.2519293" xlink:href="#linearGradient2057"/>
    <radialGradient cx="14.207293" cy="222.04396" fx="14.207293" fy="222.04396" gradientTransform="scale(1.395230,0.716728)" gradientUnits="userSpaceOnUse" id="radialGradient1331" inkscape:collect="always" r="8.2519293" xlink:href="#linearGradient2057"/>
    <radialGradient cx="14.207293" cy="222.04396" fx="14.207293" fy="222.04396" gradientTransform="scale(1.395230,0.716728)" gradientUnits="userSpaceOnUse" id="radialGradient1335" inkscape:collect="always" r="8.2519293" xlink:href="#linearGradient2057"/>
    <radialGradient cx="14.207293" cy="222.04396" fx="14.207293" fy="222.04396" gradientTransform="scale(1.395230,0.716728)" gradientUnits="userSpaceOnUse" id="radialGradient1339" inkscape:collect="always" r="8.2519293" xlink:href="#linearGradient2057"/>
    <radialGradient cx="14.207293" cy="222.04396" fx="14.207293" fy="222.04396" gradientTransform="scale(1.395230,0.716728)" gradientUnits="userSpaceOnUse" id="radialGradient1343" inkscape:collect="always" r="8.2519293" xlink:href="#linearGradient2057"/>
    <radialGradient cx="14.207293" cy="222.04396" fx="14.207293" fy="222.04396" gradientTransform="scale(1.395230,0.716728)" gradientUnits="userSpaceOnUse" id="radialGradient1347" inkscape:collect="always" r="8.2519293" xlink:href="#linearGradient2057"/>
    <radialGradient cx="14.207293" cy="222.04396" fx="14.207293" fy="222.04396" gradientTransform="scale(1.395230,0.716728)" gradientUnits="userSpaceOnUse" id="radialGradient1351" inkscape:collect="always" r="8.2519293" xlink:href="#linearGradient2057"/>
    <radialGradient cx="14.207293" cy="222.04396" fx="14.207293" fy="222.04396" gradientTransform="scale(1.395230,0.716728)" gradientUnits="userSpaceOnUse" id="radialGradient1355" inkscape:collect="always" r="8.2519293" xlink:href="#linearGradient2057"/>
    <radialGradient cx="14.207293" cy="222.04396" fx="14.207293" fy="222.04396" gradientTransform="scale(1.395230,0.716728)" gradientUnits="userSpaceOnUse" id="radialGradient1359" inkscape:collect="always" r="8.2519293" xlink:href="#linearGradient2057"/>
    <radialGradient cx="14.207293" cy="222.04396" fx="14.207293" fy="222.04396" gradientTransform="scale(1.395230,0.716728)" gradientUnits="userSpaceOnUse" id="radialGradient1363" inkscape:collect="always" r="8.2519293" xlink:href="#linearGradient2057"/>
    <radialGradient cx="14.207293" cy="222.04396" fx="14.207293" fy="222.04396" gradientTransform="scale(1.395230,0.716728)" gradientUnits="userSpaceOnUse" id="radialGradient1367" inkscape:collect="always" r="8.2519293" xlink:href="#linearGradient2057"/>
    <radialGradient cx="14.207293" cy="222.04396" fx="14.207293" fy="222.04396" gradientTransform="scale(1.395230,0.716728)" gradientUnits="userSpaceOnUse" id="radialGradient1371" inkscape:collect="always" r="8.2519293" xlink:href="#linearGradient2057"/>
    <radialGradient cx="14.207293" cy="222.04396" fx="14.207293" fy="222.04396" gradientTransform="scale(1.395230,0.716728)" gradientUnits="userSpaceOnUse" id="radialGradient1375" inkscape:collect="always" r="8.2519293" xlink:href="#linearGradient2057"/>
  </defs>
  <sodipodi:namedview bordercolor="#666666" borderopacity="1.0" id="base" inkscape:current-layer="layer1" inkscape:cx="-3.2332050" inkscape:cy="164.09156" inkscape:document-units="px" inkscape:pageopacity="0.0" inkscape:pageshadow="2" inkscape:window-height="791" inkscape:window-width="1151" inkscape:window-x="1" inkscape:window-y="24" inkscape:zoom="1.0000000" pagecolor="#ffffff"/>
  <g id="layer1" inkscape:groupmode="layer" inkscape:label="Layer 1">
    <g id="g1991" transform="matrix(2.245009,0.000000,0.000000,2.245009,-674.6615,-13.39146)">
      <path d="M 302.06943,37.001326 C 302.50926,36.664182 303.65303,35.511879 304.28538,34.668743 C 304.94510,33.789118 305.29428,32.874917 306.03482,31.986273 C 307.34100,30.418862 307.57366,29.957148 309.53369,29.303803 C 310.42697,29.006045 310.61833,28.864506 312.79931,28.137512 C 312.85872,28.117708 313.72004,28.988692 314.31549,29.187174 C 316.28332,29.843116 317.46021,30.176389 318.74740,30.819982 C 319.82593,31.359250 320.71225,32.806246 321.89638,32.569419 C 323.16704,32.315287 324.12992,30.386481 325.62851,29.886949 C 326.09503,29.731443 326.56155,29.575938 327.02806,29.420432 C 327.84826,29.147035 328.60108,29.653691 329.47728,29.653691 C 330.66778,29.653691 331.67965,29.770320 332.85952,29.770320 C 333.71189,29.770320 336.40085,32.537710 336.70828,33.152564 C 336.99862,33.733247 339.00146,32.826319 339.62401,32.452790 C 340.69441,31.810552 342.58142,31.583614 343.82266,31.169869 C 344.66051,30.890585 346.02203,31.869644 346.97164,31.869644 C 348.05676,31.869644 348.83689,32.335955 349.77074,32.569419 C 350.97823,32.871291 351.11368,32.396175 351.98670,33.269194 C 352.99835,34.280843 354.12826,35.060865 355.13568,36.068293 C 356.39584,37.328454 356.14483,37.572602 354.55254,38.634133 C 353.56883,39.289935 352.60631,39.909760 351.40355,40.150312 C 349.03603,40.623816 346.70353,40.966716 344.17254,40.966716 C 341.80704,40.966716 339.57429,41.758262 337.52468,40.733457 C 336.40050,40.171367 335.46349,39.255407 334.60896,38.400875 C 334.09166,37.883581 333.89054,37.542403 334.02581,37.001326 C 334.19875,36.309560 335.41639,35.522823 333.90918,37.934359 C 333.18234,39.097309 331.32489,39.671248 329.94379,40.016523 C 328.79465,40.303810 327.47596,39.783265 326.32829,39.783265 C 324.78038,39.783265 321.86054,38.799233 320.61346,38.050988 C 319.72242,37.516365 318.72004,37.039124 318.04762,36.534809 C 317.42904,36.070874 317.18465,36.791350 315.36515,37.701100 C 314.16188,38.302738 313.97786,38.517504 312.44942,38.517504 C 311.03679,38.517504 309.16509,38.827713 307.83972,38.496369 C 306.46859,38.153587 304.90351,38.094287 303.51872,37.863489 C 303.01502,37.779539 302.25170,37.348190 302.06943,37.001326 z " id="path2208" sodipodi:nodetypes="ccccccccccccccccccccccccccccccccccc" style="fill:#00a100;fill-opacity:1.0000000;fill-rule:evenodd;stroke:none;stroke-width:1.0000000px;stroke-linecap:butt;stroke-linejoin:miter;stroke-opacity:1.0000000"/>
      <path d="M 311.63302,28.720658 C 311.83338,29.405557 312.69123,29.716281 313.49909,30.120207 C 314.48789,30.614609 314.98194,31.864093 315.59841,32.686048 C 316.06680,33.310563 315.99718,34.281128 316.18156,35.018630 C 316.37163,35.778941 316.47912,36.663427 316.53144,36.768067 C 316.70905,37.123280 318.42879,35.556273 318.51414,35.485147 C 319.15301,34.952755 319.61486,34.716032 319.91369,33.968968 C 320.27441,33.067165 320.45822,32.726265 320.26357,31.753015 C 320.10919,30.981115 318.75170,31.288652 318.04762,30.936611 C 316.73922,30.282411 315.50386,29.303803 313.96560,29.303803 C 313.47080,29.303803 312.21495,28.837043 311.63302,28.720658 z " id="path2212" style="fill:#66a100;fill-opacity:1.0000000;fill-rule:evenodd;stroke:none;stroke-width:1.0000000px;stroke-linecap:butt;stroke-linejoin:miter;stroke-opacity:1.0000000"/>
      <path d="M 328.42761,29.303803 C 329.55041,29.454749 330.93060,30.335486 332.04312,31.169869 C 332.91081,31.820641 333.53561,32.824550 333.79255,33.852339 C 333.99578,34.665252 333.90918,35.648980 333.90918,36.534809 C 333.90918,37.654703 333.42728,37.750820 334.31453,37.307199 C 334.47003,37.229446 334.68671,36.845820 334.84221,36.768067 C 335.53479,36.421782 336.11791,35.883540 336.59165,35.251889 C 337.32439,34.274909 337.59568,34.252952 337.29143,33.035935 C 337.04448,32.048141 335.32080,31.181937 334.72559,30.586724 C 334.11227,29.973407 333.58149,29.781415 332.85952,29.420432 C 332.17158,29.076462 330.83234,29.303803 330.06042,29.303803 C 329.51615,29.303803 328.97188,29.303803 328.42761,29.303803 z " id="path2218" sodipodi:nodetypes="cccccccccccc" style="fill:#66a100;fill-opacity:1.0000000;fill-rule:evenodd;stroke:none;stroke-width:1.0000000px;stroke-linecap:butt;stroke-linejoin:miter;stroke-opacity:1.0000000"/>
      <path d="M 345.22221,31.403128 C 345.53322,31.480880 345.84423,31.558633 346.15524,31.636386 C 347.12514,31.878862 347.87201,31.519757 348.83771,31.519757 C 350.39724,31.519757 351.26703,32.233768 352.33658,33.035935 C 353.26344,33.731078 354.26724,34.914547 354.66917,35.718405 C 355.03372,36.447517 355.61994,36.908354 355.95209,37.351213 C 356.41635,37.725525 353.90908,38.847816 353.33079,39.351068 C 352.27617,39.878376 351.17587,40.061825 350.00972,40.395010 C 349.48108,40.546050 350.94584,39.523139 351.05366,38.984021 C 351.40307,37.236967 348.93996,35.470765 348.02131,34.552114 C 347.01589,33.546695 346.29303,32.473948 345.22221,31.403128 z " id="path2220" sodipodi:nodetypes="ccccccccccc" style="fill:#66a100;fill-opacity:1.0000000;fill-rule:evenodd;stroke:none;stroke-width:1.0000000px;stroke-linecap:butt;stroke-linejoin:miter;stroke-opacity:1.0000000"/>
      <path d="M 314.05022,27.983025 C 313.57666,27.846375 313.00649,27.897225 312.11272,28.076775 C 307.95366,28.912265 307.16844,29.207515 306.33147,30.264275 C 305.88722,30.825186 305.51898,31.376215 305.51897,31.483025 C 305.51897,31.589846 305.15727,32.221285 304.70647,32.889275 C 304.25564,33.557266 303.69880,34.502585 303.45647,34.983025 C 303.21415,35.463486 302.68676,36.194925 302.30022,36.608025 C 301.82798,37.112766 301.72396,37.362115 301.98772,37.358025 C 302.71407,37.346786 303.51941,36.431395 305.23772,33.639275 C 307.11406,30.590356 308.94124,30.609835 309.80022,30.170525 C 310.27890,29.925706 310.76921,29.603055 310.86272,29.451775 C 311.21079,28.888585 312.81872,29.158835 313.95647,29.983025 C 314.57860,30.433686 315.30505,30.795535 315.58147,30.795525 C 316.53182,30.795526 319.77415,31.964375 319.92522,32.358025 C 320.00866,32.575486 319.74449,33.114395 319.33147,33.545525 C 318.91987,33.975146 318.63913,34.470685 318.70647,34.670525 C 318.77377,34.870366 318.47656,35.253595 318.05022,35.514275 C 317.20808,36.029196 317.01337,36.545525 317.67522,36.545525 C 318.23950,36.545526 320.14866,35.333065 320.61272,34.670525 C 320.81986,34.374756 321.33110,33.980795 321.73772,33.795525 C 322.14432,33.610256 322.45648,33.299185 322.45647,33.108025 C 322.45647,32.702546 324.39086,31.071575 325.61272,30.451775 C 326.07663,30.216446 327.27452,29.966785 328.23772,29.889275 C 329.20088,29.811756 330.16865,29.712135 330.39397,29.670525 C 330.61933,29.628925 331.35160,29.678125 332.05022,29.795525 C 333.12343,29.975836 333.62110,30.280115 335.14397,31.795525 C 336.13537,32.782026 336.92520,33.694755 336.92522,33.795525 C 336.92525,33.896286 336.25146,34.635825 335.42522,35.451775 C 334.59904,36.267726 333.92524,37.021485 333.92522,37.139275 C 333.92525,37.708316 334.76777,37.219875 336.11272,35.858025 C 337.05038,34.908606 338.45645,34.199575 338.45647,33.670525 C 338.45650,33.294976 338.99076,32.983045 339.14397,32.983025 C 339.29720,32.983026 339.90600,32.682455 340.51897,32.295525 C 341.77039,31.505556 343.37181,31.360515 345.39397,31.858025 C 346.06999,32.024336 347.34548,32.072255 348.20647,31.983025 C 349.43765,31.855416 349.92430,31.946275 350.51897,32.326775 C 351.59449,33.014936 353.52343,35.026705 353.73772,35.701775 C 353.83747,36.015936 354.37527,36.578075 354.92522,36.951775 C 355.47516,37.325466 355.46678,37.455761 355.65722,37.455751 C 356.29691,37.455752 356.62118,37.153335 355.64397,36.576775 C 355.10316,36.257666 354.42012,35.523750 354.20780,35.015600 C 353.99853,34.514711 353.73745,34.039365 353.51897,33.858025 C 353.30049,33.676686 353.03561,33.277915 353.11272,32.983025 C 353.22288,32.561876 352.62040,32.327565 352.11272,32.326775 C 351.75725,32.326216 351.71266,32.210135 351.23772,31.920525 C 350.59847,31.530726 349.64042,31.355165 347.55022,31.233025 C 342.65036,30.946686 341.12467,30.946305 340.73772,31.264275 C 340.53200,31.433356 339.75796,31.889245 339.05022,32.264275 L 337.76897,32.951775 L 337.08147,32.295525 C 336.70016,31.942116 336.39395,31.499765 336.39397,31.295525 C 336.39400,31.091276 336.03213,30.628705 335.58147,30.295525 C 334.69345,29.638976 335.38945,29.706675 334.51897,29.733025 C 333.88504,29.752225 332.80493,28.601405 331.92522,28.608025 C 331.04553,28.614635 329.23798,28.798525 327.89397,29.045525 C 326.54996,29.292515 325.35519,29.444255 325.26897,29.358025 C 325.01027,29.099345 323.20571,29.966625 322.80022,30.545525 C 322.13114,31.500796 321.43640,31.702885 320.83147,31.139275 C 320.52130,30.850316 319.42815,30.507025 318.23772,30.295525 C 316.49658,29.986156 316.03900,29.780205 315.39397,29.045525 C 314.87954,28.459635 314.52378,28.119675 314.05022,27.983025 z " id="path1755" sodipodi:nodetypes="ccccccccccccccccccccccccccccccccccccccccccccccccccccccccccccc" style="fill:#5c2700;fill-opacity:1.0000000"/>
    </g>
  </g>
</svg>
