<?xml version="1.0" encoding="UTF-8"?>
<svg xmlns="http://www.w3.org/2000/svg" width="100%" height="100%" viewBox="-17 -18 33 35">
		
<defs>

<linearGradient id="bg" x1="0" y1="0" x2="0.3" y2="1">
        <stop offset="0" style="stop-color:#EEEEEE" />
       	<stop offset="0.2" style="stop-color:#FAFAFA" />
        <stop offset="1" style="stop-color:#DDDDDD" />
</linearGradient>


</defs>

<rect x="-17" y="-18" width="33" height="35" fill="url(#bg)"/>

<g transform="scale(1.25) translate(-16 -17)">
	<rect rx="2" x="9" y="10" width="13" height="13" fill="#FAFAFA" stroke="none"/>
	<rect rx="2" x="10" y="11" width="12" height="12" fill="none" stroke="#999999" stroke-width="2"/>
	<rect rx="3" x="11" y="12" width="12" height="12" fill="#FAFAFA" stroke="none"/>
	<rect rx="2" x="9" y="10" width="13" height="13" fill="none" stroke="#EAEAEA" stroke-width="2"/>
</g>

<g transform="scale(0.8)">
	
	<path fill="#999999" d="M-13.87 2.25 c0.12 -0.12 10.37 10.62 10.37 10.62 c0 0 16.75 -20.37 16.75 -20.37  c0 0 -4.12 -3.75 -4.12 -3.75 c0 0 -12.62 16 -12.62 16  c0 0 -6.5 -6.62 -6.5 -6.62 c0 0 -3.75 4 -3.87 4.12 Z"/>
	<path fill="#ED1C2E" d="M-14.62 -0.75 c0.12 -0.12 10.37 10.62 10.37 10.62 c0 0 16.75 -20.37 16.75 -20.37  c0 0 -4.12 -3.75 -4.12 -3.75 c0 0 -12.62 16 -12.62 16  c0 0 -6.5 -6.62 -6.5 -6.62 c0 0 -3.75 4 -3.87 4.12 Z"/>
</g>
	
</svg>