<?xml version="1.0" encoding="UTF-8" standalone="no"?>
<!-- Created with Inkscape (http://www.inkscape.org/) --><svg height="128.00000px" id="svg2" inkscape:export-filename="/home/nicu/Desktop/rpg_color.png" inkscape:export-xdpi="90.000000" inkscape:export-ydpi="90.000000" inkscape:version="0.42" sodipodi:docbase="/home/nicu/Desktop/hats" sodipodi:docname="hill2.svg" sodipodi:version="0.32" width="128.00000px" xmlns="http://www.w3.org/2000/svg" xmlns:cc="http://web.resource.org/cc/" xmlns:dc="http://purl.org/dc/elements/1.1/" xmlns:inkscape="http://www.inkscape.org/namespaces/inkscape" xmlns:rdf="http://www.w3.org/1999/02/22-rdf-syntax-ns#" xmlns:sodipodi="http://inkscape.sourceforge.net/DTD/sodipodi-0.dtd" xmlns:svg="http://www.w3.org/2000/svg" xmlns:xlink="http://www.w3.org/1999/xlink">
  <metadata>
    <rdf:RDF xmlns:cc="http://web.resource.org/cc/" xmlns:dc="http://purl.org/dc/elements/1.1/" xmlns:rdf="http://www.w3.org/1999/02/22-rdf-syntax-ns#">
      <cc:Work rdf:about="">
        <dc:title>hill - RPG map elements</dc:title>
        <dc:description></dc:description>
        <dc:subject>
          <rdf:Bag>
            <rdf:li>mapsym</rdf:li>
          </rdf:Bag>
        </dc:subject>
        <dc:publisher>
          <cc:Agent rdf:about="http://www.openclipart.org/">
            <dc:title>Open Clip Art Library</dc:title>
          </cc:Agent>
        </dc:publisher>
        <dc:creator>
          <cc:Agent>
            <dc:title>Nicu Buculei</dc:title>
          </cc:Agent>
        </dc:creator>
        <dc:rights>
          <cc:Agent>
            <dc:title>Nicu Buculei</dc:title>
          </cc:Agent>
        </dc:rights>
        <dc:date></dc:date>
        <dc:format>image/svg+xml</dc:format>
        <dc:type rdf:resource="http://purl.org/dc/dcmitype/StillImage"/>
        <cc:license rdf:resource="http://web.resource.org/cc/PublicDomain"/>
        <dc:language>en</dc:language>
      </cc:Work>
      <cc:License rdf:about="http://web.resource.org/cc/PublicDomain">
        <cc:permits rdf:resource="http://web.resource.org/cc/Reproduction"/>
        <cc:permits rdf:resource="http://web.resource.org/cc/Distribution"/>
        <cc:permits rdf:resource="http://web.resource.org/cc/DerivativeWorks"/>
      </cc:License>
    </rdf:RDF>
  </metadata>
  <defs id="defs3">
    <linearGradient id="linearGradient2057" inkscape:collect="always">
      <stop id="stop2059" offset="0" style="stop-color:#000000;stop-opacity:1;"/>
      <stop id="stop2061" offset="1" style="stop-color:#000000;stop-opacity:0;"/>
    </linearGradient>
    <radialGradient cx="14.207293" cy="222.04396" fx="14.207293" fy="222.04396" gradientTransform="scale(1.395230,0.716728)" gradientUnits="userSpaceOnUse" id="radialGradient2063" inkscape:collect="always" r="8.2519293" xlink:href="#linearGradient2057"/>
    <radialGradient cx="14.207293" cy="222.04396" fx="14.207293" fy="222.04396" gradientTransform="scale(1.395230,0.716728)" gradientUnits="userSpaceOnUse" id="radialGradient1315" inkscape:collect="always" r="8.2519293" xlink:href="#linearGradient2057"/>
    <radialGradient cx="14.207293" cy="222.04396" fx="14.207293" fy="222.04396" gradientTransform="scale(1.395230,0.716728)" gradientUnits="userSpaceOnUse" id="radialGradient1319" inkscape:collect="always" r="8.2519293" xlink:href="#linearGradient2057"/>
    <radialGradient cx="14.207293" cy="222.04396" fx="14.207293" fy="222.04396" gradientTransform="scale(1.395230,0.716728)" gradientUnits="userSpaceOnUse" id="radialGradient1323" inkscape:collect="always" r="8.2519293" xlink:href="#linearGradient2057"/>
    <radialGradient cx="14.207293" cy="222.04396" fx="14.207293" fy="222.04396" gradientTransform="scale(1.395230,0.716728)" gradientUnits="userSpaceOnUse" id="radialGradient1327" inkscape:collect="always" r="8.2519293" xlink:href="#linearGradient2057"/>
    <radialGradient cx="14.207293" cy="222.04396" fx="14.207293" fy="222.04396" gradientTransform="scale(1.395230,0.716728)" gradientUnits="userSpaceOnUse" id="radialGradient1331" inkscape:collect="always" r="8.2519293" xlink:href="#linearGradient2057"/>
    <radialGradient cx="14.207293" cy="222.04396" fx="14.207293" fy="222.04396" gradientTransform="scale(1.395230,0.716728)" gradientUnits="userSpaceOnUse" id="radialGradient1335" inkscape:collect="always" r="8.2519293" xlink:href="#linearGradient2057"/>
    <radialGradient cx="14.207293" cy="222.04396" fx="14.207293" fy="222.04396" gradientTransform="scale(1.395230,0.716728)" gradientUnits="userSpaceOnUse" id="radialGradient1339" inkscape:collect="always" r="8.2519293" xlink:href="#linearGradient2057"/>
    <radialGradient cx="14.207293" cy="222.04396" fx="14.207293" fy="222.04396" gradientTransform="scale(1.395230,0.716728)" gradientUnits="userSpaceOnUse" id="radialGradient1343" inkscape:collect="always" r="8.2519293" xlink:href="#linearGradient2057"/>
    <radialGradient cx="14.207293" cy="222.04396" fx="14.207293" fy="222.04396" gradientTransform="scale(1.395230,0.716728)" gradientUnits="userSpaceOnUse" id="radialGradient1347" inkscape:collect="always" r="8.2519293" xlink:href="#linearGradient2057"/>
    <radialGradient cx="14.207293" cy="222.04396" fx="14.207293" fy="222.04396" gradientTransform="scale(1.395230,0.716728)" gradientUnits="userSpaceOnUse" id="radialGradient1351" inkscape:collect="always" r="8.2519293" xlink:href="#linearGradient2057"/>
    <radialGradient cx="14.207293" cy="222.04396" fx="14.207293" fy="222.04396" gradientTransform="scale(1.395230,0.716728)" gradientUnits="userSpaceOnUse" id="radialGradient1355" inkscape:collect="always" r="8.2519293" xlink:href="#linearGradient2057"/>
    <radialGradient cx="14.207293" cy="222.04396" fx="14.207293" fy="222.04396" gradientTransform="scale(1.395230,0.716728)" gradientUnits="userSpaceOnUse" id="radialGradient1359" inkscape:collect="always" r="8.2519293" xlink:href="#linearGradient2057"/>
    <radialGradient cx="14.207293" cy="222.04396" fx="14.207293" fy="222.04396" gradientTransform="scale(1.395230,0.716728)" gradientUnits="userSpaceOnUse" id="radialGradient1363" inkscape:collect="always" r="8.2519293" xlink:href="#linearGradient2057"/>
    <radialGradient cx="14.207293" cy="222.04396" fx="14.207293" fy="222.04396" gradientTransform="scale(1.395230,0.716728)" gradientUnits="userSpaceOnUse" id="radialGradient1367" inkscape:collect="always" r="8.2519293" xlink:href="#linearGradient2057"/>
    <radialGradient cx="14.207293" cy="222.04396" fx="14.207293" fy="222.04396" gradientTransform="scale(1.395230,0.716728)" gradientUnits="userSpaceOnUse" id="radialGradient1371" inkscape:collect="always" r="8.2519293" xlink:href="#linearGradient2057"/>
    <radialGradient cx="14.207293" cy="222.04396" fx="14.207293" fy="222.04396" gradientTransform="scale(1.395230,0.716728)" gradientUnits="userSpaceOnUse" id="radialGradient1375" inkscape:collect="always" r="8.2519293" xlink:href="#linearGradient2057"/>
  </defs>
  <sodipodi:namedview bordercolor="#666666" borderopacity="1.0" id="base" inkscape:current-layer="layer1" inkscape:cx="-3.2332050" inkscape:cy="164.09156" inkscape:document-units="px" inkscape:pageopacity="0.0" inkscape:pageshadow="2" inkscape:window-height="791" inkscape:window-width="1151" inkscape:window-x="1" inkscape:window-y="24" inkscape:zoom="1.0000000" pagecolor="#ffffff"/>
  <g id="layer1" inkscape:groupmode="layer" inkscape:label="Layer 1">
    <g id="g2004" transform="matrix(2.469674,0.000000,0.000000,2.469674,-802.4758,-80.66080)">
      <path d="M 331.32798,60.864736 C 331.97449,60.233807 332.83444,59.147050 333.61836,58.363130 C 334.29669,57.684805 335.10935,56.964871 335.75100,56.323218 C 336.42353,55.650683 337.60204,54.899739 338.43998,54.376029 C 339.26721,53.859009 339.58210,53.047359 340.57261,52.799733 C 341.26840,52.625785 341.70585,52.016746 342.42708,51.872500 C 343.04865,51.748185 344.01063,51.312533 344.55971,51.037991 C 344.68334,50.976175 344.80697,50.914360 344.93061,50.852544 C 345.78389,50.425901 346.65302,49.938420 347.52686,49.647141 C 349.25248,49.071933 349.90659,49.276248 351.69940,49.276248 C 352.07309,49.276248 352.93625,49.755588 353.27570,49.925311 C 354.07454,50.324732 355.16890,50.574374 356.05740,50.574374 C 356.86362,50.574374 358.25860,51.315378 358.83910,51.779777 C 359.41504,52.240535 360.35938,52.449172 360.99943,52.833205 C 361.50046,53.133819 361.80189,54.574794 362.17714,55.025092 C 362.33167,55.210538 362.48621,55.395985 362.64075,55.581431 C 363.31035,56.384949 363.75282,57.343022 364.86611,57.621344 C 365.41046,57.757430 366.22595,58.443450 366.72058,58.641300 C 367.45834,58.936406 367.80166,59.351492 368.29687,59.846702 C 368.93496,60.484787 368.85460,60.865269 368.11143,61.608445 C 366.99353,62.726336 365.16346,63.458114 363.66071,63.833803 C 361.70292,64.323252 359.80994,64.256275 357.91186,64.946483 C 356.64325,65.407796 351.42806,65.875081 350.03039,65.595546 C 349.87885,65.565238 349.72131,65.595546 349.56677,65.595546 C 345.75315,65.595546 341.96101,64.270578 338.25453,63.741080 C 336.20999,63.449004 334.21949,63.658761 332.59841,62.442954 C 331.97629,61.976364 331.51603,61.616923 331.32798,60.864736 z " id="path2224" sodipodi:nodetypes="ccccccccccccccccccccccccccc" style="fill:#00a100;fill-opacity:1.0000000;fill-rule:evenodd;stroke:none;stroke-width:1.0000000px;stroke-linecap:butt;stroke-linejoin:miter;stroke-opacity:1.0000000"/>
      <path d="M 349.65949,49.461695 C 349.90675,49.585326 349.90675,49.585326 349.65949,49.461695 C 346.59063,47.927266 352.89370,51.026881 353.83204,51.965223 C 355.41958,53.552764 357.13472,55.175182 358.74637,56.786834 C 359.51786,57.558322 360.13722,59.542787 360.13722,60.588488 C 360.13722,61.519320 360.50812,62.407297 360.50812,63.370187 C 360.50812,63.979896 360.88390,64.297420 361.43535,64.297420 C 362.11777,64.297420 363.30341,63.976751 364.02776,63.831881 C 364.67795,63.701842 365.05770,63.345471 365.70062,63.184740 C 366.51239,62.981798 368.46723,62.578173 368.81397,61.884692 C 369.05063,61.411368 369.27566,61.034527 369.27566,60.521545 C 369.27566,59.597601 367.59457,58.373830 366.89833,58.025708 C 366.03076,57.591926 365.09530,57.073753 364.12432,56.879557 C 363.27385,56.709462 362.66734,55.978908 362.08441,55.395985 C 361.59409,54.905665 361.86540,53.701087 361.33878,53.174472 C 360.75793,52.593615 359.90719,52.128377 359.20999,51.779777 C 357.79265,51.071107 356.35510,50.859054 354.94472,50.388928 C 353.71831,49.980125 352.47583,49.841248 351.32851,49.554418 C 350.48206,49.342805 347.64565,48.935054 348.26864,49.090802 C 348.65702,49.187895 348.70066,49.167726 349.10315,49.368971" id="path2230" sodipodi:nodetypes="cccccccccccccccccccc" style="fill:#66a100;fill-opacity:1.0000000;fill-rule:evenodd;stroke:none;stroke-width:1.0000000px;stroke-linecap:butt;stroke-linejoin:miter;stroke-opacity:1.0000000"/>
      <path d="M 350.40549,48.858840 C 348.81250,48.718430 348.62564,48.764850 347.03049,49.733840 C 346.10025,50.298950 344.93713,50.815570 344.46799,50.858840 C 342.13560,51.073940 337.06837,54.430520 333.43674,58.171340 C 332.05415,59.595490 330.93675,60.837040 330.93674,60.921340 C 330.93675,61.163590 331.40095,61.077640 332.15549,60.733840 C 332.53813,60.559510 332.84297,60.285000 332.84299,60.108840 C 332.84300,59.481530 337.14203,55.634100 339.84299,53.858840 C 342.85817,51.877040 343.69142,51.515100 344.87424,51.515090 C 345.32724,51.515090 346.38991,51.045800 347.37424,50.421340 C 349.25037,49.231130 350.05332,49.100930 351.96799,49.702590 C 352.63317,49.911620 353.91041,50.212530 354.81174,50.390090 C 355.71307,50.567640 357.48226,51.209350 358.71799,51.796340 C 360.57939,52.680500 360.98999,52.982250 361.12424,53.608840 C 361.21331,54.024820 361.39864,54.625030 361.53049,54.952590 C 361.79110,55.600020 365.32158,58.046350 365.99924,58.046340 C 366.22863,58.046340 366.97953,58.620340 367.65549,59.296340 C 368.93683,60.577670 369.53601,60.862100 369.24924,60.046340 C 368.93734,59.159070 367.73571,58.077470 366.21799,57.358840 C 363.51484,56.078970 362.42946,55.188080 362.24924,54.077590 C 362.16056,53.531050 361.81324,52.848870 361.46799,52.546340 C 359.69842,50.995610 354.33044,49.204810 350.40549,48.858840 z " id="path1774" style="fill:#5c2700;fill-opacity:1.0000000"/>
    </g>
  </g>
</svg>
