<?xml version="1.0" encoding="UTF-8" standalone="no"?>
<!-- Created with Inkscape (http://www.inkscape.org/) --><svg height="128.00000px" id="svg2" inkscape:export-filename="/home/nicu/Desktop/rpg_color.png" inkscape:export-xdpi="90.000000" inkscape:export-ydpi="90.000000" inkscape:version="0.42" sodipodi:docbase="/home/nicu/Desktop/hats" sodipodi:docname="tree15.svg" sodipodi:version="0.32" width="128.00000px" xmlns="http://www.w3.org/2000/svg" xmlns:cc="http://web.resource.org/cc/" xmlns:dc="http://purl.org/dc/elements/1.1/" xmlns:inkscape="http://www.inkscape.org/namespaces/inkscape" xmlns:rdf="http://www.w3.org/1999/02/22-rdf-syntax-ns#" xmlns:sodipodi="http://inkscape.sourceforge.net/DTD/sodipodi-0.dtd" xmlns:svg="http://www.w3.org/2000/svg" xmlns:xlink="http://www.w3.org/1999/xlink">
  <metadata>
    <rdf:RDF xmlns:cc="http://web.resource.org/cc/" xmlns:dc="http://purl.org/dc/elements/1.1/" xmlns:rdf="http://www.w3.org/1999/02/22-rdf-syntax-ns#">
      <cc:Work rdf:about="">
        <dc:title>tree - RPG map elements</dc:title>
        <dc:description></dc:description>
        <dc:subject>
          <rdf:Bag>
            <rdf:li>mapsym</rdf:li>
          </rdf:Bag>
        </dc:subject>
        <dc:publisher>
          <cc:Agent rdf:about="http://www.openclipart.org/">
            <dc:title>Open Clip Art Library</dc:title>
          </cc:Agent>
        </dc:publisher>
        <dc:creator>
          <cc:Agent>
            <dc:title>Nicu Buculei</dc:title>
          </cc:Agent>
        </dc:creator>
        <dc:rights>
          <cc:Agent>
            <dc:title>Nicu Buculei</dc:title>
          </cc:Agent>
        </dc:rights>
        <dc:date></dc:date>
        <dc:format>image/svg+xml</dc:format>
        <dc:type rdf:resource="http://purl.org/dc/dcmitype/StillImage"/>
        <cc:license rdf:resource="http://web.resource.org/cc/PublicDomain"/>
        <dc:language>en</dc:language>
      </cc:Work>
      <cc:License rdf:about="http://web.resource.org/cc/PublicDomain">
        <cc:permits rdf:resource="http://web.resource.org/cc/Reproduction"/>
        <cc:permits rdf:resource="http://web.resource.org/cc/Distribution"/>
        <cc:permits rdf:resource="http://web.resource.org/cc/DerivativeWorks"/>
      </cc:License>
    </rdf:RDF>
  </metadata>
  <defs id="defs3">
    <linearGradient id="linearGradient2057" inkscape:collect="always">
      <stop id="stop2059" offset="0" style="stop-color:#000000;stop-opacity:1;"/>
      <stop id="stop2061" offset="1" style="stop-color:#000000;stop-opacity:0;"/>
    </linearGradient>
    <radialGradient cx="14.207293" cy="222.04396" fx="14.207293" fy="222.04396" gradientTransform="scale(1.395230,0.716728)" gradientUnits="userSpaceOnUse" id="radialGradient2023" inkscape:collect="always" r="8.2519293" xlink:href="#linearGradient2057"/>
  </defs>
  <sodipodi:namedview bordercolor="#666666" borderopacity="1.0" id="base" inkscape:current-layer="layer1" inkscape:cx="-24.321306" inkscape:cy="-48.836658" inkscape:document-units="px" inkscape:pageopacity="0.0" inkscape:pageshadow="2" inkscape:window-height="791" inkscape:window-width="1151" inkscape:window-x="1" inkscape:window-y="24" inkscape:zoom="1.0000000" pagecolor="#ffffff"/>
  <g id="layer1" inkscape:groupmode="layer" inkscape:label="Layer 1">
    <g id="g1923" transform="matrix(2.469674,0.000000,0.000000,2.469674,-107.4758,-453.6608)">
      <path d="M 65.270545,203.56253 C 65.329337,203.98441 65.123562,204.56211 64.607419,205.07825 C 64.099386,205.58628 64.303291,206.02557 63.470631,206.02557 C 62.882536,206.02557 61.934321,207.46715 61.575986,207.82549 C 61.085088,208.31638 60.800479,208.88267 60.155001,209.43594 C 59.493780,210.00270 59.276097,209.52015 59.112946,208.86754 C 58.992028,208.38387 59.183911,207.63636 59.302411,207.16236 C 59.461815,206.52474 59.564409,205.97524 59.870804,205.36245 C 60.284950,204.53416 60.578182,203.62728 61.453637,203.18955 C 61.938259,202.94724 62.496063,202.26021 62.935795,201.93041 C 63.443745,201.54945 64.182412,202.49062 64.417954,202.80468 C 64.690789,203.16845 65.740796,202.95693 66.028403,202.89941 C 66.692833,202.76652 67.358156,201.53038 67.672409,201.11137 C 67.975105,200.70778 69.223446,201.30273 69.628230,201.38369 C 70.510430,201.56013 70.846307,201.49208 71.333411,202.14155 C 71.741285,202.68538 71.752417,203.34391 71.901805,203.94146 C 72.062973,204.58613 71.871477,205.40027 71.996537,206.02557 C 72.124846,206.66712 72.280734,207.13717 72.280734,207.82549 C 72.280734,208.44703 71.404673,207.35268 71.333411,207.06763 C 71.156811,206.36123 70.555732,206.54165 70.007159,206.40450 C 69.621639,206.30812 69.266039,205.71360 69.154568,205.26771 C 68.910932,204.29317 67.989726,204.42214 67.259923,204.60459 C 65.618108,205.01504 66.172435,206.22277 65.744206,204.50986 C 65.681479,204.25895 65.376885,203.82838 65.270545,203.56253 z " id="path2855" sodipodi:nodetypes="cccccccccccccccccccccccc" style="fill:#00b300;fill-opacity:1.0000000;fill-rule:evenodd;stroke:none;stroke-width:1.0000000px;stroke-linecap:butt;stroke-linejoin:miter;stroke-opacity:1.0000000"/>
      <path d="M 28.401713 158.69876 A 7.9437737 4.0807056 0 1 1  12.514165,158.69876 A 7.9437737 4.0807056 0 1 1  28.401713 158.69876 z" id="path1357" sodipodi:cx="20.457939" sodipodi:cy="158.69876" sodipodi:rx="7.9437737" sodipodi:ry="4.0807056" sodipodi:type="arc" style="fill:url(#radialGradient2023);fill-opacity:1.0000000;fill-rule:evenodd;stroke:none;stroke-width:2.0000000;stroke-miterlimit:4.0000000;stroke-opacity:1.0000000" transform="translate(47.65457,57.93682)"/>
      <path d="M 69.236746,200.56556 C 67.722376,200.51922 67.657936,200.53600 66.924246,201.53431 C 66.370636,202.28761 65.998266,202.56684 65.549246,202.50306 C 65.211256,202.45508 64.924236,202.21509 64.924246,202.00306 C 64.924246,201.79104 64.611756,201.54252 64.205496,201.44056 C 63.102616,201.16378 61.700196,202.11378 60.330496,204.06556 C 59.305346,205.52639 59.152466,205.96167 59.017996,207.56556 C 58.888936,209.10500 58.933636,209.48620 59.330496,209.81556 C 59.756276,210.16895 59.889716,210.12366 60.611746,209.31556 C 61.127376,208.73847 61.556596,208.46046 61.830496,208.56556 C 62.449096,208.80295 63.017996,208.22301 63.017996,207.34681 C 63.017996,206.66777 63.109526,206.59198 63.892996,206.62806 C 64.812486,206.67043 64.876726,206.54682 65.361746,204.47181 C 65.552186,203.65708 65.556576,203.68403 65.830496,204.87806 C 66.043786,205.80780 66.013426,206.42469 65.674246,207.69056 C 65.178116,209.54225 65.256266,211.70399 65.861746,212.62806 C 66.098246,212.98901 66.223846,213.55712 66.142996,214.00306 C 66.066216,214.42644 66.150886,214.97413 66.330496,215.19056 C 66.573896,215.48386 66.561336,215.64724 66.330496,215.87806 C 66.108386,216.10018 66.119496,216.28005 66.330496,216.53431 C 66.504486,216.74397 67.119816,216.87773 67.830496,216.84681 L 69.017996,216.78431 L 69.017996,215.19056 C 69.017996,214.22829 68.841826,213.20768 68.549246,212.59681 C 68.229716,211.92962 68.118776,211.32502 68.236746,210.78431 C 68.568286,209.26474 68.468306,206.78724 68.049246,205.78431 C 67.716836,204.98875 67.708916,204.74167 67.986746,204.56556 C 68.601006,204.17617 68.900266,204.51395 68.986746,205.69056 C 69.070806,206.83443 69.077286,206.83077 70.080496,206.75306 C 70.946596,206.68597 71.099186,206.75578 71.174246,207.28431 C 71.222296,207.62264 71.478036,208.03537 71.767996,208.19056 C 72.064546,208.34925 72.299246,208.75844 72.299246,209.12806 C 72.299246,209.48948 72.408266,209.85343 72.549246,209.94056 C 73.009686,210.22514 73.315276,209.25306 73.080496,208.22181 C 72.955196,207.67147 72.763766,206.13392 72.674246,204.81556 C 72.524076,202.60388 72.470086,202.34053 71.674246,201.50306 C 70.909586,200.69841 70.623166,200.60797 69.236746,200.56556 z M 67.517996,201.56556 L 69.236746,201.69056 C 71.316516,201.81394 71.635086,202.16549 71.892996,204.53431 C 72.104306,206.47508 72.006186,207.07998 71.611746,206.19056 C 71.398236,205.70915 71.160416,205.60733 70.486746,205.65931 C 69.683736,205.72126 69.621006,205.65148 69.642996,204.87806 C 69.656046,204.41913 69.446576,203.83790 69.205496,203.59681 C 68.803116,203.19445 68.698156,203.22116 67.705496,203.87806 C 66.347656,204.77666 66.052846,204.35921 66.924246,202.72181 L 67.517996,201.56556 z M 63.486746,202.28431 C 63.805096,202.29901 64.093486,202.42230 64.361746,202.69056 C 64.881016,203.20984 64.891466,203.39222 64.611746,204.50306 C 64.319736,205.66277 63.830496,206.16764 63.830496,205.31556 C 63.830496,204.49171 63.274496,204.63446 62.830496,205.56556 C 62.575956,206.09934 62.229486,206.53431 62.049246,206.53431 C 61.654496,206.53432 60.830496,207.71134 60.830496,208.28431 C 60.830496,208.73684 59.916146,209.33871 59.642996,209.06556 C 59.205176,208.62774 59.535706,206.82833 60.330496,205.31556 C 61.387506,203.30365 62.531706,202.24023 63.486746,202.28431 z M 66.299246,209.69056 C 66.449466,209.59773 66.551546,209.60026 66.549246,209.72181 C 66.546946,209.84333 66.444866,210.12148 66.299246,210.34681 C 66.071076,210.69989 66.021606,210.71359 66.017996,210.31556 C 66.015696,210.06156 66.149026,209.78339 66.299246,209.69056 z " id="path1659" style="fill:#5c2700;fill-opacity:1.0000000"/>
    </g>
  </g>
</svg>
