<?xml version="1.0" encoding="UTF-8" standalone="no"?>
<!-- Generator: Adobe Illustrator 12.0.0, SVG Export Plug-In . SVG Version: 6.00 Build 51448)  --><svg height="273.543" id="Layer_1" inkscape:version="0.42" sodipodi:docbase="F:\openclip\svg da inviare" sodipodi:docname="Bobi.svg" sodipodi:version="0.32" space="preserve" style="overflow:visible;enable-background:new 0 0 231.224 273.543;" version="1.1" viewBox="0 0 231.224 273.543" width="231.224" xmlns="http://www.w3.org/2000/svg" xmlns:cc="http://web.resource.org/cc/" xmlns:dc="http://purl.org/dc/elements/1.1/" xmlns:inkscape="http://www.inkscape.org/namespaces/inkscape" xmlns:rdf="http://www.w3.org/1999/02/22-rdf-syntax-ns#" xmlns:sodipodi="http://inkscape.sourceforge.net/DTD/sodipodi-0.dtd" xmlns:svg="http://www.w3.org/2000/svg">
  <metadata>
    <rdf:RDF xmlns:cc="http://web.resource.org/cc/" xmlns:dc="http://purl.org/dc/elements/1.1/" xmlns:rdf="http://www.w3.org/1999/02/22-rdf-syntax-ns#">
      <cc:Work rdf:about="">
        <dc:title>Bobi</dc:title>
        <dc:description></dc:description>
        <dc:subject>
          <rdf:Bag>
            <rdf:li>mammal</rdf:li>
            <rdf:li>architetto francesco rollandin</rdf:li>
            <rdf:li>dog</rdf:li>
          </rdf:Bag>
        </dc:subject>
        <dc:publisher>
          <cc:Agent rdf:about="http://www.openclipart.org/">
            <dc:title>Open Clip Art Library</dc:title>
          </cc:Agent>
        </dc:publisher>
        <dc:creator>
          <cc:Agent>
            <dc:title>Architetto Francesco Rollandin</dc:title>
          </cc:Agent>
        </dc:creator>
        <dc:rights>
          <cc:Agent>
            <dc:title>Architetto Francesco Rollandin</dc:title>
          </cc:Agent>
        </dc:rights>
        <dc:date></dc:date>
        <dc:format>image/svg+xml</dc:format>
        <dc:type rdf:resource="http://purl.org/dc/dcmitype/StillImage"/>
        <cc:license rdf:resource="http://web.resource.org/cc/PublicDomain"/>
        <dc:language>en</dc:language>
      </cc:Work>
      <cc:License rdf:about="http://web.resource.org/cc/PublicDomain">
        <cc:permits rdf:resource="http://web.resource.org/cc/Reproduction"/>
        <cc:permits rdf:resource="http://web.resource.org/cc/Distribution"/>
        <cc:permits rdf:resource="http://web.resource.org/cc/DerivativeWorks"/>
      </cc:License>
    </rdf:RDF>
  </metadata>
  <defs id="defs62"/>
  <sodipodi:namedview bordercolor="#666666" borderopacity="1.0" id="base" inkscape:current-layer="Layer_1" inkscape:cx="115.61200" inkscape:cy="136.77150" inkscape:pageopacity="0.0" inkscape:pageshadow="2" inkscape:window-height="510" inkscape:window-width="787" inkscape:window-x="173" inkscape:window-y="195" inkscape:zoom="1.3160637" pagecolor="#ffffff"/>
  <path d="M31.076,87.919c-3.464,1.827-10.082,1.151-12.843,3.917  c-3.135,3.139-5.911,5.918-8.934,8.951c-3.031,3.04-3.909,8.729-3.909,12.868c0,8.721,0.779,9.62,7.818,15.665  c-6.206,2.32-11.227,16.306-11.167,22.379c0.016,1.662,1.505,7.833,3.908,7.833c1.27,0,6.142,1.812,6.142-0.56  c0-1.807,2.235,0.185,2.235,2.237c0,4.397-1.331,11.32,0.558,15.105c1.543,3.094-0.428,6.975,1.117,10.07  c1.444,2.895,2.294,7.871,2.792,11.191c1.055,7.036,1.82,10.063,4.047,16.119c1.973,5.364,3.945,10.728,5.917,16.092  c0.47,1.278-7.601,7.941-8.846,9.189c3.351-2.611,6.701-5.222,10.052-7.833c1.716,3.243,4.557,7.458,7.818,11.188  c4.38,5.01,8.035,8.975,6.701,15.666c2.293-0.792,2.703-2.911,3.35-4.475c4.789,6.224,17.126,6.714,24.571,6.714  c-0.417,0.705-0.766,1.685-1.117,2.237c0.373,0,0.745,0,1.117,0c1.449-5.494,11.424-6.8,17.869-8.951  c1.758,5.989,3.517,11.979,5.275,17.968c1.233,4.201,8.903,0.794,11.479-0.065c9.526-3.179,18.932-8.368,27.92-12.868  c9.453-4.733,17.997-8.835,26.807-15.105c8.752-6.229,16.457-13.133,24.046-20.734c14.872-14.898,26.506-32.451,35.915-51.297  c3.496-7.003,9.282-18.645,9.282-26.436c0-2.388,1.1-8.062-1.501-9.104c-7.827-3.138-10.311-3.133-13.388-10.846  c-1.766-4.424-1.884-4.676-6.188-6.635c-5.357-2.439-6.814-1.998-7.963-6.982c-1.43-6.207,0.438-13.763,0-20.14  c-0.854-12.426-2.577-26.08-11.747-35.268c-4.293-4.301-11.29-6.35-17.289-7.252c-3.318-0.499-6.725-1.12-10.051-1.12  c-2.653,0-2.855-5.846-3.352-7.833c-1.716-6.877-2.644-12.945-3.351-20.14c-0.624-6.352-4.374-8.211-6.703-12.309  c-8.595,4.308-16.182,9.785-24.571,13.986c-3.548,1.778-9.488,6.723-12.842,3.357c-2.021-2.029-7.744-6.154-10.61-6.154  c-4.884,0-18.75-8.073-24.012-2.797c-4.838,4.851-17.765,2.031-20.662,10.63c-5.182-6.924-8.82-15.15-14.519-21.261  c-2.975-3.189-5.343-6.554-10.052-4.475c-3.954,1.745-7.216,7.231-10.051,10.07C16.337,16.527,8.949,21.631,3.155,27.497  c-6.376,6.455-1.115,12.783-1.115,20.7c0,9.091,4.168,10.107,8.375,1.679c3.926-7.866,16.519-1.78,17.312,5.594  c0.29,2.693-4.292,5.354-4.467,7.833c-0.305,4.308,8.173,7.118,7.259,8.952C28.252,76.801,30.525,83.639,31.076,87.919" id="path3" style="fill-rule:evenodd;clip-rule:evenodd;"/>
  <path d="M98.088,271.424c7.445-2.983,14.891-5.968,22.336-8.951  c-3.237-4.566-17.849-6.727-11.726-12.87c1.859-1.864,6.216-6.08,8.935-3.354c1.543,1.546,2.532-0.563,3.14,2.071  c1.001,4.345,2.001,8.688,3.002,13.033c26.936-10.798,51.579-26.769,69.247-50.353c-6.611-2.943-16.855-5.021-7.818-13.426  c7.401-6.883,8.938,3.929,11.168,10.07c2.668-3.343,5.337-6.685,8.006-10.027c2.416-3.027-2.903-2.771-4.096-3.961  c-4.276-4.265-8.379,1.663-8.379-6.714c0-2.134,4.195-5.354,6.703-6.152c6.752-2.148,5.75,4.289,7.817,11.188  c1.608-2.256,12.05-14.782,10.608-16.225c-2.166-2.169-8.133-4.047-10.608-1.679c-1.556-2.666-3.71-4.846-2.233-8.951  c2.149-5.975,7.086-11.25,9.223-17.654c3.786-11.348,4.002-23.818-6.989-28.223c1.187,5.948-3.353,11.433-3.353,16.784  c0,5.597-2.725,12.393-4.465,17.902c-5.231,16.562-16.771,33.591-29.598,46.436c-13.627,13.647-33.127,24.127-50.568,29.944  c-3.714,1.238-9.763,1.028-12.533,3.064c-0.417,0.307,0.801,2.234,0,3.357c-0.318,0.445-3.083,1.969-3.91,2.798  c-2.588,2.595-5.512,7.095-8.165,10.195c-3.166,3.7,1.04,13.422,1.955,18.008C96.069,269.146,96.745,270.2,98.088,271.424" id="path5" style="fill-rule:evenodd;clip-rule:evenodd;fill:#404040;"/>
  <path d="M119.309,256.877c-0.782-2.742-0.728-7.833-3.91-7.833  c-1.733,0-3.79,0.75-3.907,2.238C111.229,254.623,119.203,257.108,119.309,256.877" id="path7" style="fill-rule:evenodd;clip-rule:evenodd;fill:#FEF57C;"/>
  <path d="M141.645,251.283c1.342-0.46,1.645-11.752,0-13.426  c-2.089-2.125-4.504-0.825-6.7,0c-3.122,1.173-4.468,1.478-4.468,5.035C130.477,248.486,137.082,249.251,141.645,251.283" id="path9" style="fill-rule:evenodd;clip-rule:evenodd;"/>
  <path d="M139.41,246.808c0-3.512,1.06-6.479-2.23-7.832  c-2.409,0.898-3.497,3.298-4.469,4.475C134.773,245.491,136.507,246.785,139.41,246.808" id="path11" style="fill-rule:evenodd;clip-rule:evenodd;fill:#FEF57C;"/>
  <path d="M159.516,241.212c2.213-1.336,0.652-6.689,0.393-9.82  c-0.093-1.113,0.324-4.727-1.055-4.727c-1.487,0-7.218-0.923-8.271,0C143.697,232.697,156.446,239.163,159.516,241.212" id="path13" style="fill-rule:evenodd;clip-rule:evenodd;"/>
  <path d="M157.28,236.737c0-1.349,0.635-7.832-0.558-7.832  c-1.432,0-3.722-0.566-4.199,0.87C151.229,233.667,153.833,235.958,157.28,236.737" id="path15" style="fill-rule:evenodd;clip-rule:evenodd;fill:#FEF57C;"/>
  <path d="M57.882,232.26c0-4.373,1.17-10.516-3.352-12.307  C54.88,221.934,57.252,232.017,57.882,232.26" id="path17" style="fill-rule:evenodd;clip-rule:evenodd;"/>
  <path d="M109.256,228.905c10.361,1.336,20.204-6.199,29.039-10.632  c7.776-3.901,15.477-8.222,21.777-14.545c6.853-6.876,13.834-12.552,19.546-20.699c5.742-8.191,13.32-18.941,15.635-29.094  c-10.576,20.303-22.997,37.547-43.021,49.583c-8.404,5.053-16.689,10.255-25.104,14.195c-2.962,1.387-5.383,3.359-8.936,3.359  C112.93,221.073,111.188,224.068,109.256,228.905" id="path19" style="fill-rule:evenodd;clip-rule:evenodd;fill:#D58E46;"/>
  <path d="M82.452,226.666c-0.692-3.478-5.698-8.78-10.051-7.833  C75.751,221.444,79.102,224.054,82.452,226.666" id="path21" style="fill-rule:evenodd;clip-rule:evenodd;"/>
  <path d="M176.267,225.547c0.734,0.056,1.497,0,2.233,0  c-0.177-2.133,0.37-12.329-1.115-13.428c-1.778-1.314-4.887,1.121-6.143,1.121c-0.644,0-3.909,3.27-3.909,3.913  C167.333,220.8,173.505,223.472,176.267,225.547" id="path23" style="fill-rule:evenodd;clip-rule:evenodd;"/>
  <path d="M175.151,222.192c0-2.238,0-4.476,0-6.714  C168.652,215.576,170.413,220.889,175.151,222.192" id="path25" style="fill-rule:evenodd;clip-rule:evenodd;fill:#FEF57C;"/>
  <path d="M33.311,215.478c2.487-4.154,6.45-10.826,12.285-10.07  c0-0.373,0-0.747,0-1.12C40.2,203.542,30.642,214.2,33.311,215.478" id="path27" style="fill-rule:evenodd;clip-rule:evenodd;"/>
  <path d="M82.452,211.001c-1.249-5.436-11.325-7.02-15.636-8.953  c-0.667,0.707-0.27,0.478-1.116,1.121C70.708,205.678,76.914,210.424,82.452,211.001" id="path29" style="fill-rule:evenodd;clip-rule:evenodd;"/>
  <path d="M110.372,207.646c0.598-4.724-8.645-10.664-11.167-7.834  c1.303,1.222,3.489,0.842,5.584,2.236C106.835,203.411,108.632,205.899,110.372,207.646" id="path31" style="fill-rule:evenodd;clip-rule:evenodd;"/>
  <path d="M191.902,205.408c-0.745-2.238-1.489-4.476-2.234-6.714  C183.288,202.246,185.395,204.588,191.902,205.408" id="path33" style="fill-rule:evenodd;clip-rule:evenodd;fill:#FEF57C;"/>
  <path d="M201.954,190.861c1.606-1.11,0.234-3.098-0.535-5.802  c-1.066-3.747-1.092-0.912-3.372-0.912C190.489,184.147,200.731,190.249,201.954,190.861" id="path35" style="fill-rule:evenodd;clip-rule:evenodd;fill:#FEF57C;"/>
  <path d="M65.7,186.383c1.861-0.373,3.723-0.745,5.584-1.118  c-4.723-1.183-9.668-3.044-14.519-3.355C57.872,184.516,62.723,185.266,65.7,186.383" id="path37" style="fill-rule:evenodd;clip-rule:evenodd;"/>
  <path d="M218.707,171.838c3.923-6.02,6.119-14.382,7.817-21.26  c0.59-2.389,2.841-7.722,2.234-10.07c-1.044-4.048-5.747-4.157-10.052-5.595c0,9.2-4.285,19.308-8.934,26.854  C215.97,160.083,216.73,167.38,218.707,171.838" id="path39" style="fill-rule:evenodd;clip-rule:evenodd;fill:#404040;"/>
  <path d="M213.122,170.72c1.711-0.956-0.157-3.196-1.115-5.595  c-1.886,1.417-3.985,2.304-4.468,4.475C209.419,169.718,211.322,170.103,213.122,170.72" id="path41" style="fill-rule:evenodd;clip-rule:evenodd;fill:#FEF57C;"/>
  <path d="M196.371,150.579c2.256-6.134,9.371-27.269,5.583-31.33  C200.093,129.692,198.232,140.135,196.371,150.579" id="path43" style="fill-rule:evenodd;clip-rule:evenodd;fill:#D58E46;"/>
  <path d="M93.621,141.627c1.391-3.76,1.115-7.656,1.115-11.749  c0-4.359-3.349-7.886-3.349-11.749c0-0.685-2.08-2.87-3.351-2.237c-1.582,0.787-3.153,10.003-3.685,11.691  c-0.349,1.105-3.559,9.371-2.595,9.722C85.711,138.746,89.666,140.187,93.621,141.627" id="path45" style="fill-rule:evenodd;clip-rule:evenodd;fill:#F0DBCF;"/>
  <path d="M53.413,122.606c2.877-5.191,10.105-7.95,15.637-4.476  c5.124-6.175-1.477-15.465-8.935-16.784c2.229,1.398,3.116,3.736,1.117,5.594c-3.082-3.812-8.973-7.532-13.402-5.594  c-3.87,1.693-3.029,4.92-5.584,7.832C50.312,111.796,48.4,116.89,53.413,122.606" id="path47" style="fill-rule:evenodd;clip-rule:evenodd;fill:#301700;"/>
  <path d="M75.751,103.584c3.322-1.427,7.817-1.715,7.817-5.596  c0-2.459-0.01-4.759,1.117-6.713c1.835-3.181,7.586-5.493,8.936-1.12c1.91-4.107,3.223-5.208,0-7.833  c-6.034-4.916-6.971,1.12-12.844,1.12c-2.64,0-9.494,9.896-9.494,11.749C71.284,101.323,69.448,100.424,75.751,103.584" id="path49" style="fill-rule:evenodd;clip-rule:evenodd;fill:#F9F7B1;"/>
  <path d="M38.895,94.632c0.779-0.389,2.234-4.687,2.234-6.154  c0-5.153,4.331-0.734,5.584-2.797c1.49-2.453-3.394-7.877-5.025-9.511c-2.131-2.133-5.925-2.688-8.376-3.916  C31.638,77.57,34.408,92.396,38.895,94.632" id="path51" style="fill-rule:evenodd;clip-rule:evenodd;fill:#F9F7B1;"/>
  <path d="M63.466,70.016c3.723-1.119,7.445-2.239,11.167-3.358  c-2.937-2.115-7.48,0.816-11.167,1.12c-1.146-5.429,4.139-7.713,3.35-13.427c-4.835,9.688-4.478,12.308-15.078,12.308  c-7.064,0-11.308-2.72-13.959-6.713c-4.285,6.285,18.028,12.535,23.453,7.833C61.938,68.485,62.945,69.171,63.466,70.016" id="path53" style="fill-rule:evenodd;clip-rule:evenodd;"/>
  <path d="M29.961,52.112c6.001-5.249,13.371-9.188,18.986-15.665  c6.087-7.022,5.648-7.736,0.781-15.051c-4.36-6.552-8.209-14.362-14.183-19.636c-3.686,4.667-9.627,7.406-13.981,11.77  c-4.688,4.699-9.086,11.538-15.057,14.526c-8.535,4.271-2.394,16.36-1.117,22.939c1.129-1.569,2.425-2.66,3.351-3.358  c1.341-1.01,8.561-3.576,8.934-4.475c2.133-5.146-5.178-5.438-7.818-6.714C16.411,26.124,26.069,50.736,29.961,52.112" id="path55" style="fill-rule:evenodd;clip-rule:evenodd;fill:#D1B270;"/>
  <path d="M32.193,130.438c-5.481-3.348-15.321,1.905-14.519-7.833  c0.44-5.343,4.826-10.608,6.701-13.428c0.373,0,0.745,0,1.118,0C24.403,114.914,27.257,126.978,32.193,130.438" id="path57" style="fill-rule:evenodd;clip-rule:evenodd;fill:#F0DBCF;"/>
  <path d="M32.193,90.156c2.118,2.414,2.15,5.552,4.965,6.962  c2.198,1.102,6.729,1.847,5.624,4.505c-1.668,4.01-3.335,8.021-5.003,12.031c4.833-0.807,8.404-1.7,11.168,3.356  c1.408,2.575,2.681,10.417,2.234,13.428c3.703-0.526,2.764-5.007,5.025-7.273c3.853-3.86,5.605-3.853,11.122-3.238  c6.982,0.777,7.641-8.76,3.956-14.106c5.258,0.83,14.903-2.624,18.427-6.154c4.475-4.483,5.166-10.77,8.936-14.546  c4.434-4.442,9.139-0.447,7.653-9.385c-0.463-2.786-2.577-5.617-3.745-7.958c-2.602-5.213-4.467-9.318-4.467-15.666  c-4.936,5.77,2.614,15.312,5.025,20.141c5.444,10.905-3.87,9.134-10.609,5.595c-4.545-2.387-15.077-8.395-19.545-3.917  c-2.963,2.969-12.487-2.36-17.311,0.559c6.029,1.007,11.431,2.015,16.753,1.12c3.583-0.603,12.898-1.919,11.167,3.356  c0.248-0.754-4.363,3.252-5.025,3.917c-1.864,1.869-4.377,2.613-5.584,5.035c-2.374,4.76-5.115,7.157-6.143,12.309  c-5.474-0.731-10.948-1.463-16.422-2.194c-0.695-0.093-0.33-5.836-0.33-6.757c0-5.71-0.891-12.073-5.026-16.225  c-3.015-3.027-12.41-7.272-16.752-7.272c-5.017,0-1.803-7.705,0-9.511c3.04-3.047,5.92-5.688,9.494-8.393  c5.937-4.494,10.661-8.804,15.634-14.545c2.535-2.926,4-7.365,6.702-10.071c3.183-3.188,8.331-4.358,12.286-5.595  c7.414-2.317,14.354-3.706,22.335-2.238c3.314,0.609,6.021,2.827,8.936,4.476c1.906,1.078,5.622,3.874,7.819,4.477  c-6.329,2.238-12.658,4.476-18.987,6.713c16.793-3.365,35.977-6.942,48.582-19.582c14.129-14.166,15.612,22.434,17.313,30.771  c0.731,3.585,3.274,7.908,0.558,10.63c-2.33,2.336-4.251,5.376-6.703,7.833c-3.023,3.031-14.266,11.296-17.31,9.511  c-4.54-2.664-3.352-13.225-3.352-17.904c0-6.99,3.985-14.395,6.701-20.141c-5.06,0.719-7.817,15.275-7.817,19.582  c0,4.759-1.688,20.091,4.468,21.819c4.576,1.285,16.743-10.502,20.103-13.427c2.373-2.067,6.203-5.146,7.817-7.833  c2.109-3.51-2.356-4.476,3.909-4.476c7.699,0,14.502,2.185,20.661,6.714c2.053,1.51,3.4,1.223,5.027,4.476  c1.219,2.437,2.75,4.352,3.619,6.963c1.496,4.49,3.64,9.252,3.64,14.049c0,9.407,0,18.814,0,28.222  c0,8.548,0.985,20.403-2.791,27.973c-4.212,8.441-2.57,19.913-10.031,27.394c-3.039,3.047-5.206,8.274-8.398,11.769  c-3.266,3.574-7.298,6.188-10.631,9.531c-5.11,5.126-13.03,9.49-20.641,9.49c-9.342,0-15.214-7.79-23.454-10.071  c0.528,3.214,9.204,8.953,12.288,8.953c3.005,0,5.929,2.239,8.934,2.239c3.35,0,6.7,0,10.051,0  c-1.906,5.661-14.992,11.659-20.103,14.544c-2.766,1.562-7.106,3.257-10.052,4.476c-3.889,1.608-8.757,1.157-12.286,3.358  c-0.524-6.894,4.469-15.008,4.469-23.499c-3.39,5.324-2.236,13.428-5.026,19.022c-2.98,5.976-3.917,14.594-9.494,19.021  c-2.234-2.237-4.467-4.476-6.701-6.713c0.421,3.15,6.459,6.085,5.027,8.952c-1.648,3.301-3.774,5.097-6.145,7.833  c-5.706,6.587-11.802,8.981-20.103,12.307c-1.39-2.627-0.358-7.348-4.467-7.833c3.876,9.713,0.11,8.952-8.377,8.952  c-5.981,0-10.119-4.894-12.843-6.714c1.117-3.356,2.233-6.714,3.35-10.07c-1.13,1.982-3.34,8.396-5.584,7.273  c-3.496-1.75-4.373-3.316-6.701-6.155c-3.417-4.165-5.64-7.72-7.818-12.306c-0.387-0.815-1.113-3.349-1.117-3.359  c-0.624-1.616-3.181-6.208-4.131-9.064c-0.936-2.812-3.961-8.09-3.686-11.075c0.263-2.849,5.071-7.62,6.702-10.071  c-1.434,1.676-5.109,7.833-7.26,7.833c-1.541,0-3.152-10.394-3.552-11.996c-1.446-5.794-1.995-5.503,2.717-9.174  c2.368-1.845,6.407-3.385,5.86-6.803c-2.812,2.817-6.295,8.068-10.052,8.95c0-9.486,0-18.973,0-28.459  c0-5.918,12.427-9.843,17.87-10.702c7.465-1.178,16.213-0.093,23.455,1.118c3.567,0.597,6.905,1.318,10.051,2.237  c1.613,0.471,1.835,1.318,4.467,1.119c0-0.373,0-0.746,0-1.119c-4.234-0.694-7.8-4.476-12.285-4.476  c-4.933,0-9.437-1.619-14.519-1.119c-7.568,0.745-18.463,0.632-24.57,4.477c-3.852,2.425-11.544,13.053-16.194,8.393  c-4.313-4.321,0.487-14.155,2.792-18.462c4.63-8.648,9.045-5.595,17.869-5.595c6.451,0,13.806,0.987,20.103,2.237  c6.244,1.24,12.517,3.358,18.987,3.358c9.824,0,18.198,1.841,26.805,6.153c5.295,2.653,5.928,12.52,11.168,13.987  c-1.481-7.127-5.494-12.616-10.051-15.665c4.655-1.015,4.958-13.129,3.35-17.903c-2.192-6.502-5.648-10.845-11.167-13.428  c0,7.047-0.941,13.077-3.91,19.022c-0.83,1.661-3.173,6.714-4.778,6.714c-4.254,0-10.854-0.558-15.015-1.948  c-4.171-1.394-9.087-0.796-13.402-2.237c-4.266-1.425-10.361-0.11-14.271-2.528c-4.256-2.631-6.701-11.671-6.701-16.225  c0-25.507-13.312,12.867-12.843,12.867c-8.521,0-8.385-10.118-7.259-15.665c0.79-3.89,4.65-16.784,10.609-16.784  c2.27,0,4.676-3.356,7.818-3.356C28.142,91.276,29.055,89.492,32.193,90.156" id="path59" style="fill-rule:evenodd;clip-rule:evenodd;fill:#D1B270;"/>
</svg>
