<?xml version="1.0" encoding="UTF-8" standalone="no"?>
<!DOCTYPE svg PUBLIC "-//W3C//DTD SVG 20010904//EN"
"http://www.w3.org/TR/2001/REC-SVG-20010904/DTD/svg10.dtd">
<svg height="1052.36218" id="svg559" inkscape:version="0.38cvs" sodipodi:docbase="/home/jofo/pix/mina" sodipodi:docname="/home/jofo/pix/mina/reinkarnation.svg" sodipodi:version="0.32" version="1.0" width="744.094482" x="0" xmlns="http://www.w3.org/2000/svg" xmlns:inkscape="http://www.inkscape.org/namespaces/inkscape" xmlns:sodipodi="http://sodipodi.sourceforge.net/DTD/sodipodi-0.dtd" xmlns:xlink="http://www.w3.org/1999/xlink" y="0">
  <metadata>
    <rdf:RDF xmlns:cc="http://web.resource.org/cc/" xmlns:dc="http://purl.org/dc/elements/1.1/" xmlns:rdf="http://www.w3.org/1999/02/22-rdf-syntax-ns#">
      <cc:Work rdf:about="">
        <dc:title>reincarnate</dc:title>
        <dc:description></dc:description>
        <dc:subject>
          <rdf:Bag>
            <rdf:li>mandrill</rdf:li>
            <rdf:li>symbol</rdf:li>
            <rdf:li>religion</rdf:li>
            <rdf:li>arrowshape</rdf:li>
          </rdf:Bag>
        </dc:subject>
        <dc:publisher>
          <cc:Agent rdf:about="http://www.openclipart.org/">
            <dc:title>Open Clip Art Library</dc:title>
          </cc:Agent>
        </dc:publisher>
        <dc:creator>
          <cc:Agent>
            <dc:title>Nurbldoff</dc:title>
          </cc:Agent>
        </dc:creator>
        <dc:rights>
          <cc:Agent>
            <dc:title>Nurbldoff</dc:title>
          </cc:Agent>
        </dc:rights>
        <dc:date></dc:date>
        <dc:format>image/svg+xml</dc:format>
        <dc:type rdf:resource="http://purl.org/dc/dcmitype/StillImage"/>
        <cc:license rdf:resource="http://web.resource.org/cc/PublicDomain"/>
        <dc:language>en</dc:language>
      </cc:Work>
      <cc:License rdf:about="http://web.resource.org/cc/PublicDomain">
        <cc:permits rdf:resource="http://web.resource.org/cc/Reproduction"/>
        <cc:permits rdf:resource="http://web.resource.org/cc/Distribution"/>
        <cc:permits rdf:resource="http://web.resource.org/cc/DerivativeWorks"/>
      </cc:License>
    </rdf:RDF>
  </metadata>
  <sodipodi:namedview bordercolor="#666666" borderopacity="1.0" id="base" inkscape:cx="266.36333239" inkscape:cy="432.14778831" inkscape:pageopacity="0.0" inkscape:pageshadow="2" inkscape:window-height="617" inkscape:window-width="627" inkscape:window-x="383" inkscape:window-y="163" inkscape:zoom="0.86831672" pagecolor="#ffffff"/>
  <defs id="defs561"/>
  <path d="M 214.20700,404.80500 C 199.81300,394.28200 184.96700,387.46400 170.34600,378.79400 C 194.82100,337.25500 221.63200,301.26600 247.27500,262.50200 C 267.92100,231.29400 301.79100,232.46800 320.44600,260.85100 C 338.37000,286.72400 353.94204,316.90689 370.94404,344.17189 C 378.25404,337.66189 387.52496,332.72611 394.79600,330.05800 C 392.19100,356.69800 387.25900,380.79900 386.97800,409.97800 C 362.01600,401.80700 336.54604,389.56429 311.58204,381.39429 C 319.59704,377.35129 326.59629,371.95943 333.07922,368.24936 C 318.32322,343.13836 304.31900,326.59700 289.10100,302.18300 C 286.70800,298.11100 281.28200,295.33300 277.05900,302.22600 C 256.10900,336.42000 233.52900,368.53400 214.20700,404.80500 z " id="path580" sodipodi:nodetypes="cccccccccccc" style="font-size:12;fill:#7f7f7f;fill-rule:evenodd;stroke:none;stroke-width:9.125;stroke-linejoin:round;stroke-opacity:1;fill-opacity:1;"/>
  <path d="M 185.024 487.052 C 182.633 482.695 191.952 483.309 202.177 475.164 C 207.047 470.835 224.782 449.945 243.103 442.88 C 268.464 432.685 307.571 441.334 325.123 449.149 C 347.588 458.038 357.269 465.594 379.449 470.691 C 401.574 476.654 412.727 470.171 411.289 477.566 C 410.82 481.174 393.048 484.744 375.631 480.807 C 359.848 477.464 338.688 465.657 325.886 460.758 C 312.211 455.066 283.873 449.17 258.094 452.658 C 229.523 456.594 219.266 475.731 199.31 486.114 C 192.963 489.416 187.542 490.794 185.024 487.052 z " id="path571" style="font-size:12;fill:#808080;fill-rule:evenodd;stroke-width:1.25;" transform="matrix(0.831690,0.000000,0.000000,0.799213,44.43649,93.42465)"/>
  <path d="M 198.183 482.6 C 204.285 475.866 219.383 481.138 232.76 490.193 C 249.038 500.457 276.212 501.111 295.135 497.753 C 315.747 494.195 321.913 490.138 341.523 480.356 C 351.516 475.166 364.507 470.293 373.375 473.78 C 380.089 477.29 350.581 486.369 336.986 493.209 C 317.034 505.321 303.804 510.766 270.003 511.062 C 252.131 511.192 236.519 505.082 222.279 494.47 C 215.748 488.877 194.32 485.937 198.183 482.6 z " id="path573" style="font-size:12;fill:#808080;fill-rule:evenodd;stroke-width:1.25;" transform="matrix(0.831690,0.000000,0.000000,0.799213,44.43649,93.42465)"/>
  <path d="M 191.502 440.274 C 186.201 434.408 196.314 428.508 206.714 420.588 C 219.016 412.113 228.238 408.538 246.983 402.69 C 272.958 394.179 307.348 400.996 324.837 408.954 C 347.565 418.401 359.414 427.471 381.213 434.011 C 402.899 441.412 411.769 438.358 409.849 445.643 C 409.145 449.212 393.861 448.925 376.739 443.855 C 361.21 439.484 338.184 427.21 323.942 422.378 C 310.014 417.335 289.043 412.534 263.091 414.324 C 234.323 416.379 230.888 421.379 210.294 430.431 C 203.743 433.31 194.896 444.924 191.502 440.274 z " id="path574" style="font-size:12;fill:#808080;fill-rule:evenodd;stroke-width:1.25;" transform="matrix(0.831690,0.000000,0.000000,0.799213,44.43649,93.42465)"/>
  <path d="M 253.248 502.66 C 251.035 499.417 286.007 500.254 283.673 506.592 C 270.395 532.652 272.622 568.731 275.619 594.696 C 275.939 598.649 257.929 600.439 258.616 594.696 C 259.511 579.75 259.893 568.879 258.617 554.578 C 257.074 544.411 255.932 544.352 250.563 539.632 C 247.157 537.136 238.771 533.596 241.614 530.979 C 245.035 527.828 253.118 525.701 256.827 519.179 C 258.991 515.834 259.512 510.527 253.248 502.66 z " id="path575" style="font-size:12;fill:#808080;fill-rule:evenodd;stroke-width:1.25;" transform="matrix(0.831690,0.000000,0.000000,0.799213,44.43649,93.42465)"/>
  <path d="M 274.724 510.968 C 288.175 534.104 306.141 558.548 327.521 574.504 C 346.112 588.377 370.676 596.302 392.846 595.981 C 406.472 594.889 416.754 588.204 420.587 578.083 C 424.8 566.064 423.435 555.873 411.638 547.657 C 404.466 543.206 390.677 539.881 384.793 544.973 C 375.277 552.433 376.691 559.754 377.634 564.66 C 378.182 567.51 385.568 571.101 389.267 570.925 C 391.832 570.802 396.301 565.769 396.426 563.765 C 396.599 560.996 395.361 557.862 387.847 555.399 C 390.35 552.066 396.057 550.224 402.69 553.027 C 407.04 555.152 411.777 559.835 412.534 568.24 C 413.097 573.828 405.53 582.966 400.005 584.347 C 387.633 587.44 370.983 586.167 357.947 580.768 C 341.453 573.937 330.734 566.025 313.203 547.658 C 297.856 530.641 286.639 502.683 279.199 502.914 C 276.713 502.692 273.26 508.451 274.724 510.968 z " id="path576" style="font-size:12;fill:#808080;fill-rule:evenodd;stroke-width:1.25;" transform="matrix(0.831690,0.000000,0.000000,0.799213,44.43649,93.42465)"/>
  <ellipse cx="297.095520" cy="496.203003" id="path577" rx="25.056259" ry="23.713928" style="font-size:12;fill:#808080;fill-rule:evenodd;stroke-width:1.25;" transform="matrix(0.829901,-5.239801e-2,5.452728e-2,0.797494,0.736294,87.72321)"/>
  <path d="M 398.69900,492.76800 C 415.31000,486.29000 429.04100,477.43800 444.21300,469.77200 C 466.07700,512.74300 482.00600,554.69900 500.90200,597.16200 C 516.11500,631.34900 496.91400,659.27600 462.95200,659.74400 C 431.50000,660.94600 396.65614,658.58804 364.52614,658.26304 C 365.06722,667.92704 365.27000,676.40700 364.62400,685.22200 C 343.56300,668.70200 323.34918,653.62086 301.44300,635.65900 C 321.75400,619.00600 342.06400,602.35300 362.37500,585.69800 C 362.49193,594.12004 363.71464,605.33900 362.72678,612.48900 C 391.83278,613.54900 416.18900,610.79700 444.95600,611.09200 C 449.67600,611.26400 454.93600,608.18300 451.39500,600.91600 C 433.82800,564.86700 418.89200,528.56200 398.69900,492.76800 z " id="path589" sodipodi:nodetypes="cccccccccccc" style="font-size:12;fill:#7f7f7f;fill-rule:evenodd;stroke:none;stroke-width:9.125;stroke-linejoin:round;fill-opacity:1;"/>
  <path d="M 234.652 611.21 C 232.901 628.954 234.571 645.205 234.531 662.204 C 186.318 662.226 141.697 657.416 95.2821 655.022 C 57.9125 653.095 41.7162 623.325 56.6864 592.836 C 69.8653 564.253 86.3782 535.843 101.225 507.348 C 91.9045 504.359 86.0898 498.206 78.5242 493.637 C 102.793 482.346 126.058 474.35 151.334 459.768 C 156.977 485.42 162.621 511.071 168.266 536.723 C 160.712 531.874 152.456 524.481 145.606 522.177 C 131.474 547.643 121.509 573.325 108.212 598.837 C 105.92 602.966 106.283 609.051 114.366 609.188 C 154.462 609.86 193.594 612.994 234.652 611.21 z " id="path590" style="font-size:12;fill:#7f7f7f;fill-rule:evenodd;stroke:none;stroke-width:9.125;stroke-linejoin:round;fill-opacity:1;"/>
</svg>
