<?xml version="1.0" encoding="UTF-8" standalone="no"?>
<!DOCTYPE svg PUBLIC "-//W3C//DTD SVG 20010904//EN"
"http://www.w3.org/TR/2001/REC-SVG-20010904/DTD/svg10.dtd">
<!-- Created with Sodipodi ("http://www.sodipodi.com/") --><svg height="400pt" id="svg548" sodipodi:docbase="/home/nicu/svg_gal/computers/" sodipodi:docname="/home/nicu/svg_gal/computers/computer1.svg" sodipodi:version="0.32" width="400pt" xmlns="http://www.w3.org/2000/svg" xmlns:sodipodi="http://sodipodi.sourceforge.net/DTD/sodipodi-0.dtd" xmlns:xlink="http://www.w3.org/1999/xlink">
  <metadata>
    <rdf:RDF xmlns:cc="http://web.resource.org/cc/" xmlns:dc="http://purl.org/dc/elements/1.1/" xmlns:rdf="http://www.w3.org/1999/02/22-rdf-syntax-ns#">
      <cc:Work rdf:about="">
        <dc:title>Clipart by Nicu Buculei - antenna</dc:title>
        <dc:description></dc:description>
        <dc:subject>
          <rdf:Bag>
            <rdf:li>hash</rdf:li>
            <rdf:li></rdf:li>
            <rdf:li>hardware</rdf:li>
            <rdf:li>computer</rdf:li>
          </rdf:Bag>
        </dc:subject>
        <dc:publisher>
          <cc:Agent rdf:about="http://www.openclipart.org">
            <dc:title>Nicu Buculei</dc:title>
          </cc:Agent>
        </dc:publisher>
        <dc:creator>
          <cc:Agent>
            <dc:title>Nicu Buculei</dc:title>
          </cc:Agent>
        </dc:creator>
        <dc:rights>
          <cc:Agent>
            <dc:title>Nicu Buculei</dc:title>
          </cc:Agent>
        </dc:rights>
        <dc:date></dc:date>
        <dc:format>image/svg+xml</dc:format>
        <dc:type rdf:resource="http://purl.org/dc/dcmitype/StillImage"/>
        <cc:license rdf:resource="http://web.resource.org/cc/PublicDomain"/>
        <dc:language>en</dc:language>
      </cc:Work>
      <cc:License rdf:about="http://web.resource.org/cc/PublicDomain">
        <cc:permits rdf:resource="http://web.resource.org/cc/Reproduction"/>
        <cc:permits rdf:resource="http://web.resource.org/cc/Distribution"/>
        <cc:permits rdf:resource="http://web.resource.org/cc/DerivativeWorks"/>
      </cc:License>
    </rdf:RDF>
  </metadata>
  <defs id="defs550">
    <linearGradient id="linearGradient650">
      <stop id="stop651" offset="0" style="stop-color:#000;stop-opacity:1;"/>
      <stop id="stop652" offset="1" style="stop-color:#fff;stop-opacity:1;"/>
    </linearGradient>
    <linearGradient gradientUnits="objectBoundingBox" id="linearGradient653" spreadMethod="repeat" x1="1.00000548" x2="1.16666901" xlink:href="#linearGradient650" y1="0.53125000" y2="0.53906250"/>
    <linearGradient gradientUnits="objectBoundingBox" id="linearGradient654" spreadMethod="repeat" x1="1.22222710" x2="1.16666818" xlink:href="#linearGradient650" y1="0.46093750" y2="0.46093750"/>
  </defs>
  <sodipodi:namedview id="base" showgrid="true"/>
  <g id="g731" style="stroke:#000000;stroke-opacity:1;stroke-width:4.37794;stroke-dasharray:none;" transform="matrix(0.938695,0.000000,0.000000,0.781626,-24.22569,154.7475)">
    <path d="M 10.2848 152.69 C 10.2848 152.69 305.38 146.361 306.962 146.361 C 308.544 146.361 450.158 253.956 450.158 253.956 L 90.981 268.987 C 90.981 268.987 10.2848 151.108 10.2848 152.69 z " id="path703" sodipodi:nodetypes="ccccc" style="fill:#cccccc;fill-rule:evenodd;stroke:#000000;stroke-opacity:1;stroke-width:4.37794;stroke-linejoin:bevel;stroke-linecap:butt;fill-opacity:1;stroke-dasharray:none;" transform="translate(26.10760,-0.791130)"/>
    <g id="g722" style="stroke:#000000;stroke-opacity:1;stroke-width:4.37794;stroke-dasharray:none;">
      <path d="M 90.1899 340.981 L 10.2848 194.62 L 9.49368 152.689 L 90.981 268.196 C 94.1456 270.569 94.9367 337.025 90.1899 340.981 z " id="path702" sodipodi:nodetypes="ccccc" style="fill:#b3b3b3;fill-rule:evenodd;stroke:#000000;stroke-opacity:1;stroke-width:4.37794;stroke-linejoin:bevel;stroke-linecap:butt;fill-opacity:1;stroke-dasharray:none;" transform="translate(26.10760,-0.791130)"/>
      <g id="g715" style="stroke:#000000;stroke-opacity:1;stroke-width:4.37794;stroke-dasharray:none;">
        <path d="M 93.3545 268.196 L 449.367 253.164 C 449.367 253.164 456.488 273.735 456.488 288.766 C 456.488 306.171 452.532 321.994 451.741 322.785 L 89.3988 340.19 C 94.1457 328.322 94.1455 315.664 93.3545 268.196 z " id="path701" sodipodi:nodetypes="cccccc" style="fill:#cccccc;fill-rule:evenodd;stroke:#000000;stroke-opacity:1;stroke-width:4.37794;stroke-linejoin:bevel;stroke-linecap:butt;fill-opacity:1;stroke-dasharray:none;" transform="matrix(1.004310,0.000000,0.000000,1.000000,25.72227,-0.791130)"/>
        <g id="g710" style="stroke:#000000;stroke-opacity:1;stroke-width:4.37794;stroke-dasharray:none;">
          <path d="M 449.367 298.26 L 463.608 297.468 L 463.608 309.335 L 449.367 310.127 L 449.367 298.26 z " id="path706" sodipodi:nodetypes="ccccc" style="fill:#b3b3b3;fill-rule:evenodd;stroke:#000000;stroke-opacity:1;stroke-width:4.37794;stroke-linejoin:miter;stroke-linecap:butt;fill-opacity:1;stroke-dasharray:none;"/>
          <g id="g707" style="stroke:#000000;stroke-opacity:1;stroke-width:4.37794;stroke-dasharray:none;">
            <path d="M 134.494 281.646 L 265.032 276.108 L 264.241 310.127 L 133.702 317.246 L 134.494 281.646 z " id="path704" sodipodi:nodetypes="ccccc" style="fill:#cccccc;fill-rule:evenodd;stroke:#000000;stroke-opacity:1;stroke-width:4.37794;stroke-linejoin:miter;stroke-linecap:butt;fill-opacity:1;stroke-dasharray:none;"/>
            <path d="M 443.829 268.196 C 444.62 268.196 465.981 267.405 465.981 267.405 L 465.981 283.228 L 443.829 284.019 L 443.829 268.196 z " id="path705" sodipodi:nodetypes="ccccc" style="fill:#b3b3b3;fill-rule:evenodd;stroke:#000000;stroke-opacity:1;stroke-width:4.37794;stroke-linejoin:miter;stroke-linecap:butt;fill-opacity:1;stroke-dasharray:none;"/>
          </g>
        </g>
      </g>
    </g>
  </g>
  <g id="g878" style="stroke:#000000;stroke-opacity:1;stroke-width:4.59065;stroke-dasharray:none;" transform="matrix(0.856635,0.000000,0.000000,0.778965,103.8989,242.2836)">
    <g id="g875" style="stroke:#000000;stroke-opacity:1;stroke-width:4.59065;stroke-dasharray:none;">
      <path d="M 35.6013 306.962 L 454.114 242.088 L 454.114 266.614 L 35.6012 332.279 L 35.6013 306.962 z " id="path831" sodipodi:nodetypes="ccccc" style="fill:#b2b3b3;fill-rule:evenodd;stroke:#000000;stroke-opacity:1;stroke-width:4.59065;stroke-linejoin:miter;stroke-linecap:butt;fill-opacity:1;stroke-dasharray:none;" transform="translate(3.955698,-6.329117)"/>
      <path d="M 39.557 300.633 C 41.9304 296.677 90.981 199.367 90.981 199.367 L 371.044 173.259 L 458.07 235.759 L 39.557 300.633 z " id="path832" sodipodi:nodetypes="ccccc" style="fill:#cccccc;fill-rule:evenodd;stroke:#000000;stroke-opacity:1;stroke-width:4.59065;stroke-linejoin:miter;stroke-linecap:butt;fill-opacity:1;stroke-dasharray:none;"/>
    </g>
    <g id="g859" style="stroke:#000000;stroke-opacity:1;stroke-width:4.59065;stroke-dasharray:none;">
      <g id="g844" style="stroke:#000000;stroke-opacity:1;stroke-width:4.59065;stroke-dasharray:none;">
        <path d="M 331.487 184.335 C 331.487 184.335 332.279 193.038 332.279 193.829 C 332.279 194.62 366.298 234.177 366.298 234.177 L 424.051 224.683 L 423.26 218.354 L 422.468 218.354 L 331.487 184.335 z " id="path841" style="fill:#e5e6e6;fill-rule:evenodd;stroke:#000000;stroke-opacity:1;stroke-width:4.59065;stroke-linejoin:miter;stroke-linecap:butt;fill-opacity:1;stroke-dasharray:none;"/>
        <path d="M 332.279 184.336 L 369.462 180.38 L 424.051 218.354 L 370.253 225.475 L 332.279 184.336 z " id="path840" sodipodi:nodetypes="ccccc" style="fill:#e5e6e6;fill-rule:evenodd;stroke:#000000;stroke-opacity:1;stroke-width:4.59065;stroke-linejoin:miter;stroke-linecap:butt;fill-opacity:1;stroke-dasharray:none;"/>
      </g>
      <g id="g847" style="stroke:#000000;stroke-opacity:1;stroke-width:4.59065;stroke-dasharray:none;">
        <path d="M 297.468 195.411 C 297.468 195.411 297.468 203.323 297.468 204.114 C 297.468 204.905 318.038 241.297 318.829 241.297 C 319.62 241.297 353.639 236.551 353.639 236.551 L 352.057 227.057 " id="path843" style="fill:#e5e6e6;fill-rule:evenodd;stroke:#000000;stroke-opacity:1;stroke-width:4.59065;stroke-linejoin:miter;stroke-linecap:butt;fill-opacity:1;stroke-dasharray:none;"/>
        <path d="M 298.26 195.411 C 299.051 195.411 322.785 193.038 322.785 193.038 L 352.848 227.057 L 321.994 231.804 L 298.26 195.411 z " id="path842" style="fill:#e5e6e6;fill-rule:evenodd;stroke:#000000;stroke-opacity:1;stroke-width:4.59065;stroke-linejoin:miter;stroke-linecap:butt;fill-opacity:1;stroke-dasharray:none;"/>
      </g>
      <g id="g850" style="stroke:#000000;stroke-opacity:1;stroke-width:4.59065;stroke-dasharray:none;">
        <path d="M 90.1899 208.861 L 98.1013 195.411 L 272.943 178.006 L 282.437 189.082 L 90.1899 208.861 z " id="path833" style="fill:#e5e6e6;fill-rule:evenodd;stroke:#000000;stroke-opacity:1;stroke-width:4.59065;stroke-linejoin:miter;stroke-linecap:butt;fill-opacity:1;stroke-dasharray:none;"/>
        <path d="M 90.1899 209.652 L 89.3988 215.19 L 282.437 194.62 L 282.437 188.291 L 90.1899 209.652 z " id="path834" sodipodi:nodetypes="ccccc" style="fill:#e5e6e6;fill-rule:evenodd;stroke:#000000;stroke-opacity:1;stroke-width:4.59065;stroke-linejoin:miter;stroke-linecap:butt;fill-opacity:1;stroke-dasharray:none;"/>
      </g>
      <g id="g853" style="stroke:#000000;stroke-opacity:1;stroke-width:4.59065;stroke-dasharray:none;">
        <path d="M 90.981 215.981 L 287.184 194.62 L 309.336 229.43 L 71.9936 261.867 L 90.981 215.981 z " id="path835" sodipodi:nodetypes="ccccc" style="fill:#e5e6e6;fill-rule:evenodd;stroke:#000000;stroke-opacity:1;stroke-width:4.59065;stroke-linejoin:miter;stroke-linecap:butt;fill-opacity:1;stroke-dasharray:none;"/>
        <path d="M 71.9937 261.076 L 71.2026 268.987 L 309.336 236.551 C 310.127 236.551 308.544 230.221 308.544 229.43 C 308.544 228.639 71.9937 263.449 71.9937 261.076 z " id="path836" sodipodi:nodetypes="ccccc" style="fill:#e5e6e6;fill-rule:evenodd;stroke:#000000;stroke-opacity:1;stroke-width:4.59065;stroke-linejoin:miter;stroke-linecap:butt;fill-opacity:1;stroke-dasharray:none;"/>
      </g>
      <g id="g856" style="stroke:#000000;stroke-opacity:1;stroke-width:4.59065;stroke-dasharray:none;">
        <path d="M 82.2785 274.525 L 301.424 242.089 L 306.171 250.791 L 79.9051 284.019 L 82.2785 274.525 z " id="path838" style="fill:#e5e6e6;fill-rule:evenodd;stroke:#000000;stroke-opacity:1;stroke-width:4.59065;stroke-linejoin:miter;stroke-linecap:butt;fill-opacity:1;stroke-dasharray:none;"/>
        <path d="M 79.1139 284.81 L 79.1139 291.93 L 306.171 255.538 L 305.38 250 L 79.1139 284.81 z " id="path839" sodipodi:nodetypes="ccccc" style="fill:#e5e6e6;fill-rule:evenodd;stroke:#000000;stroke-opacity:1;stroke-width:4.59065;stroke-linejoin:miter;stroke-linecap:butt;fill-opacity:1;stroke-dasharray:none;"/>
      </g>
    </g>
  </g>
  <g id="g841" style="stroke:#000000;stroke-opacity:1;stroke-width:3.75;stroke-dasharray:none;">
    <g id="g801" style="font-size:12;stroke:#000000;stroke-opacity:1;stroke-width:3.75;stroke-dasharray:none;" transform="matrix(0.770705,0.168657,0.000000,0.673740,-3.122805,-0.754738)">
      <path d="M 119.557 425.383 L 119.557 438.102 L 435.832 344.83 L 436.68 329.568 L 119.557 425.383 z " id="path607" sodipodi:nodetypes="ccccc" style="font-size:12;fill:#b3b3b3;fill-rule:evenodd;stroke:#000000;stroke-width:3.75;stroke-opacity:1;stroke-dasharray:none;" transform="translate(-0.847921,19.50222)"/>
      <g id="g798" style="stroke:#000000;stroke-opacity:1;stroke-width:3.75;stroke-dasharray:none;">
        <path d="M 166.193 347.374 L 119.557 426.231 L 436.68 329.568 L 345.104 298.194 L 166.193 347.374 z " id="path606" sodipodi:nodetypes="ccccc" style="font-size:12;fill:#cccccc;fill-rule:evenodd;stroke:#000000;stroke-width:3.75;stroke-opacity:1;stroke-dasharray:none;" transform="translate(-0.847921,19.50222)"/>
        <path d="M 139.059 335.503 C 139.059 335.503 127.188 354.157 132.275 369.42 C 136.515 388.075 150.082 392.314 153.474 392.314 C 156.866 392.314 377.177 334.884 377.177 334.884 C 377.177 334.884 383.26 322.784 386.652 303.282 C 379.869 279.54 367.15 276.996 352.735 276.996 C 328.993 263.43 353.584 276.996 353.584 276.996 L 139.059 335.503 z " id="path605" sodipodi:nodetypes="cccccccc" style="fill:#cccccc;fill-rule:evenodd;stroke:#000000;stroke-opacity:1;stroke-width:3.75;stroke-linejoin:miter;stroke-linecap:butt;fill-opacity:1;stroke-dasharray:none;" transform="matrix(0.708121,0.000000,0.000000,0.825311,71.30738,59.20586)"/>
      </g>
    </g>
    <g id="g811" style="font-size:12;stroke:#000000;stroke-opacity:1;stroke-width:3.75;stroke-dasharray:none;" transform="matrix(0.915400,0.180919,0.000000,0.824508,-33.86263,-51.00456)">
      <path d="M 420.57 16.6844 C 420.57 17.5323 399.371 11.5968 377.325 9.90093 C 367.15 10.7489 66.1379 65.8638 63.5942 65.8638 C 67.8338 65.0159 54.267 65.8638 50.8753 73.4951 C 47.4836 81.1264 47.4836 343.134 47.4836 343.134 C 47.4836 343.134 47.4837 350.766 52.5712 356.701 C 60.2025 360.093 80.5526 360.941 72.9213 360.941 L 420.57 16.6844 z " id="path602" sodipodi:nodetypes="cccccccc" style="fill:#b3b3b3;fill-rule:evenodd;stroke:#000000;stroke-opacity:1;stroke-width:3.75;stroke-linejoin:miter;stroke-linecap:butt;fill-opacity:1;stroke-dasharray:none;"/>
      <g id="g806" style="stroke:#000000;stroke-opacity:1;stroke-width:3.75;stroke-dasharray:none;">
        <path d="M 71.2332 108.009 L 418.873 40.4261 C 423.961 43.8178 429.049 41.2741 431.593 51.4492 C 434.137 61.6241 430.745 304.978 430.745 304.978 C 430.745 304.978 432.44 312.609 426.505 316.849 C 420.569 321.088 79.6699 416.904 79.6699 416.904 C 79.6699 416.904 69.4946 421.143 63.5593 412.664 C 55.0803 410.121 60.2025 124.37 60.2025 124.37 C 60.2025 124.37 61.0271 110.72 71.2332 108.009 z " id="path600" sodipodi:nodetypes="ccccccccc" style="fill:#cccccc;fill-rule:evenodd;stroke:#000000;stroke-opacity:1;stroke-width:3.75;stroke-linejoin:miter;stroke-linecap:butt;fill-opacity:1;stroke-dasharray:none;" transform="matrix(0.995445,0.000000,0.000000,0.910163,2.817975,-20.11005)"/>
        <g id="g795" style="stroke:#000000;stroke-opacity:1;stroke-width:3.75;stroke-dasharray:none;">
          <path d="M 89.0318 98.0844 L 394.284 38.7303 C 394.284 38.7303 401.915 36.1865 407.851 45.5137 C 413.786 54.8408 412.09 59.0804 412.09 59.0804 L 412.09 234.6 C 411.242 243.927 412.938 240.535 407.851 250.711 C 397.675 254.102 105.142 333.807 105.142 333.807 C 105.142 333.807 105.142 335.503 94.9673 333.807 C 84.7922 332.111 81.4005 316.001 81.4005 315.153 C 81.4005 314.305 78.0088 115.891 78.0088 115.891 C 78.0088 115.891 79.7048 101.476 89.0318 98.0844 z " id="path603" sodipodi:nodetypes="ccccccccccc" style="fill:url(#linearGradient614);fill-rule:evenodd;stroke:#000000;stroke-opacity:1;stroke-width:3.75;stroke-linejoin:miter;stroke-linecap:butt;fill-opacity:1;stroke-dasharray:none;"/>
          <path d="M 368.846 266.821 L 398.523 258.342 L 398.523 271.909 C 398.523 271.909 368.846 279.54 368.846 280.388 C 368.846 281.236 368.846 266.821 368.846 266.821 z " id="path604" sodipodi:nodetypes="ccccc" style="fill:#00feb3;fill-rule:evenodd;stroke:#000000;stroke-opacity:1;stroke-width:3.75;stroke-linejoin:miter;stroke-linecap:butt;fill-opacity:1;stroke-dasharray:none;"/>
        </g>
      </g>
    </g>
  </g>
  <path d="M 44.3038 216.772 C 44.3038 215.19 34.8101 58.5443 45.8861 55.3798 C 56.962 52.2152 251.582 58.5443 251.582 58.5443 C 251.582 58.5443 22.1519 63.2912 44.3038 216.772 z " id="path601" style="fill:#ffffff;fill-rule:evenodd;stroke:none;stroke-opacity:1;stroke-width:1pt;stroke-linejoin:miter;stroke-linecap:butt;fill-opacity:0.5;"/>
  <path d="M 131.329 259.493 C 125 264.24 123.418 267.405 132.911 281.646 C 148.734 273.734 139.241 261.076 131.329 259.493 z " id="path608" sodipodi:nodetypes="ccc" style="fill:#ffffff;fill-rule:evenodd;stroke:none;stroke-opacity:1;stroke-width:1pt;stroke-linejoin:miter;stroke-linecap:butt;fill-opacity:0.498039;"/>
  <path d="M 69.6203 324.367 C 69.6203 324.367 77.5316 351.266 85.443 351.266 C 93.3544 351.266 310.127 349.684 306.962 348.101 C 303.797 346.519 117.089 367.089 69.6203 324.367 z " id="path609" style="fill:#ffffff;fill-rule:evenodd;stroke:none;stroke-opacity:1;stroke-width:1pt;stroke-linejoin:miter;stroke-linecap:butt;fill-opacity:0.498039;"/>
  <path d="M 93.3544 409.81 C 93.3544 408.228 96.519 370.253 96.519 370.253 L 234.177 367.089 C 234.177 367.089 90.1899 378.165 93.3544 409.81 z " id="path610" style="fill:#ffffff;fill-rule:evenodd;stroke:none;stroke-opacity:1;stroke-width:1pt;stroke-linejoin:miter;stroke-linecap:butt;fill-opacity:0.498039;"/>
</svg>
