<?xml version="1.0" encoding="UTF-8" standalone="no"?>
<!-- Created with Inkscape (http://www.inkscape.org/) --><svg height="128.00000pt" id="svg2866" inkscape:version="0.41" sodipodi:docbase="/usr/share/clipart/computer/hardware" sodipodi:docname="hub_1.svg" sodipodi:version="0.32" version="1.0" width="320.00000" x="0.0000000" xmlns="http://www.w3.org/2000/svg" xmlns:cc="http://web.resource.org/cc/" xmlns:dc="http://purl.org/dc/elements/1.1/" xmlns:inkscape="http://www.inkscape.org/namespaces/inkscape" xmlns:rdf="http://www.w3.org/1999/02/22-rdf-syntax-ns#" xmlns:sodipodi="http://inkscape.sourceforge.net/DTD/sodipodi-0.dtd" xmlns:svg="http://www.w3.org/2000/svg" xmlns:xlink="http://www.w3.org/1999/xlink" xmlns:xml="http://www.w3.org/XML/1998/namespace" y="0.0000000">
  <metadata>
    <rdf:RDF xmlns:cc="http://web.resource.org/cc/" xmlns:dc="http://purl.org/dc/elements/1.1/" xmlns:rdf="http://www.w3.org/1999/02/22-rdf-syntax-ns#">
      <cc:Work rdf:about="">
        <dc:title>Hub</dc:title>
        <dc:description>A small five port hub, edited from andrew fitzsimons scanner.</dc:description>
        <dc:subject>
          <rdf:Bag>
            <rdf:li>hash</rdf:li>
            <rdf:li>hub</rdf:li>
            <rdf:li>hardware</rdf:li>
            <rdf:li>computer</rdf:li>
          </rdf:Bag>
        </dc:subject>
        <dc:publisher>
          <cc:Agent rdf:about="http://www.openclipart.org">
            <dc:title>Ruairi Hann</dc:title>
          </cc:Agent>
        </dc:publisher>
        <dc:creator>
          <cc:Agent>
            <dc:title>Ruairi Hann</dc:title>
          </cc:Agent>
        </dc:creator>
        <dc:rights>
          <cc:Agent>
            <dc:title>Ruairi Hann</dc:title>
          </cc:Agent>
        </dc:rights>
        <dc:date></dc:date>
        <dc:format>image/svg+xml</dc:format>
        <dc:type rdf:resource="http://purl.org/dc/dcmitype/StillImage"/>
        <cc:license rdf:resource="http://web.resource.org/cc/PublicDomain"/>
        <dc:language>en</dc:language>
      </cc:Work>
      <cc:License rdf:about="http://web.resource.org/cc/PublicDomain">
        <cc:permits rdf:resource="http://web.resource.org/cc/Reproduction"/>
        <cc:permits rdf:resource="http://web.resource.org/cc/Distribution"/>
        <cc:permits rdf:resource="http://web.resource.org/cc/DerivativeWorks"/>
      </cc:License>
    </rdf:RDF>
  </metadata>
  <sodipodi:namedview bordercolor="#666666" borderopacity="1.0" id="base" inkscape:current-layer="svg2866" inkscape:cx="160.00000" inkscape:cy="30.561600" inkscape:pageopacity="0.0" inkscape:pageshadow="2" inkscape:window-height="788" inkscape:window-width="1260" inkscape:window-x="0" inkscape:window-y="30" inkscape:zoom="2.0000000" pagecolor="#ffffff"/>
  <defs id="defs2868">
    <linearGradient collect="always" id="linearGradient8481">
      <stop id="stop8482" offset="0.0000000" style="stop-color:#ffffff;stop-opacity:1.0000000;"/>
      <stop id="stop8483" offset="1.0000000" style="stop-color:#ffffff;stop-opacity:0.0039215689;"/>
    </linearGradient>
    <linearGradient collect="always" id="linearGradient8474">
      <stop id="stop8475" offset="0.0000000" style="stop-color:#ffffff;stop-opacity:1.0000000;"/>
      <stop id="stop8476" offset="1.0000000" style="stop-color:#a2a2a2;stop-opacity:1.0000000;"/>
    </linearGradient>
    <linearGradient id="linearGradient1806">
      <stop id="stop1807" offset="0.0000000" style="stop-color:#000000;stop-opacity:0.53103447;"/>
      <stop id="stop3276" offset="0.64777780" style="stop-color:#000000;stop-opacity:0.073446326;"/>
      <stop id="stop1808" offset="1.0000000" style="stop-color:#000000;stop-opacity:0.0000000;"/>
    </linearGradient>
    <linearGradient collect="always" id="linearGradient8468">
      <stop id="stop8469" offset="0.0000000" style="stop-color:#000000;stop-opacity:0.58620691;"/>
      <stop id="stop8470" offset="1.0000000" style="stop-color:#000000;stop-opacity:0.0068965517;"/>
    </linearGradient>
    <linearGradient collect="always" id="linearGradient1851">
      <stop id="stop1852" offset="0.0000000" style="stop-color:#000000;stop-opacity:0.37241378;"/>
      <stop id="stop1854" offset="0.50000000" style="stop-color:#000000;stop-opacity:0.11034483;"/>
      <stop id="stop1853" offset="1.0000000" style="stop-color:#adadad;stop-opacity:0.0000000;"/>
    </linearGradient>
    <radialGradient collect="always" cx="-289.09140" cy="598.36652" fx="-285.65439" fy="552.23833" gradientTransform="matrix(-1.270510,0.000000,0.000000,0.218761,-207.1544,6.085000e-2)" gradientUnits="userSpaceOnUse" id="radialGradient1875" r="125.20509" xlink:href="#linearGradient1851"/>
    <linearGradient gradientTransform="matrix(1.427745,0.000000,0.000000,-0.463522,-231.8379,154.7338)" gradientUnits="userSpaceOnUse" id="linearGradient4903" inkscape:collect="always" x1="280.30070" x2="283.50529" xlink:href="#linearGradient8481" y1="418.04542" y2="212.07808"/>
    <linearGradient gradientTransform="matrix(4.050391,0.000000,0.000000,1.342646,-91.51548,-60.79889)" gradientUnits="userSpaceOnUse" id="linearGradient4906" inkscape:collect="always" x1="68.268656" x2="70.638656" xlink:href="#linearGradient8468" y1="164.80815" y2="87.802278"/>
    <linearGradient gradientTransform="matrix(1.423388,0.000000,0.000000,-0.464941,-231.8379,154.7338)" gradientUnits="userSpaceOnUse" id="linearGradient4909" inkscape:collect="always" x1="151.97781" x2="200.30677" xlink:href="#linearGradient8474" y1="82.293232" y2="418.78640"/>
    <linearGradient gradientTransform="matrix(1.423388,0.000000,0.000000,-0.464941,-231.8379,154.7338)" gradientUnits="userSpaceOnUse" id="linearGradient4912" inkscape:collect="always" x1="282.27411" x2="282.27411" xlink:href="#linearGradient8468" y1="419.36390" y2="211.77074"/>
    <linearGradient gradientTransform="matrix(1.335120,0.000000,0.000000,-0.596114,-231.8379,185.4951)" gradientUnits="userSpaceOnUse" id="linearGradient4915" inkscape:collect="always" x1="312.61248" x2="339.46602" xlink:href="#linearGradient8474" y1="135.90253" y2="316.70622"/>
    <linearGradient gradientTransform="matrix(1.335120,0.000000,0.000000,-0.596114,-231.8379,185.4951)" gradientUnits="userSpaceOnUse" id="linearGradient4917" inkscape:collect="always" x1="310.44888" x2="311.96148" xlink:href="#linearGradient1806" y1="142.43878" y2="261.76054"/>
    <linearGradient gradientTransform="matrix(0.272455,0.000000,0.000000,0.204889,118.9307,88.97860)" gradientUnits="userSpaceOnUse" id="linearGradient4929" inkscape:collect="always" x1="68.268654" x2="70.638657" xlink:href="#linearGradient8474" y1="164.80815" y2="87.802277"/>
    <linearGradient gradientTransform="matrix(0.272455,0.000000,0.000000,0.204889,143.0464,89.10950)" gradientUnits="userSpaceOnUse" id="linearGradient7275" inkscape:collect="always" x1="68.268654" x2="70.638657" xlink:href="#linearGradient8474" y1="164.80815" y2="87.802277"/>
    <linearGradient gradientTransform="matrix(0.272455,0.000000,0.000000,0.204889,169.0464,89.10950)" gradientUnits="userSpaceOnUse" id="linearGradient7281" inkscape:collect="always" x1="68.268654" x2="70.638657" xlink:href="#linearGradient8474" y1="164.80815" y2="87.802277"/>
    <linearGradient gradientTransform="matrix(0.272455,0.000000,0.000000,0.204889,193.0464,89.10950)" gradientUnits="userSpaceOnUse" id="linearGradient7287" inkscape:collect="always" x1="68.268654" x2="70.638657" xlink:href="#linearGradient8474" y1="164.80815" y2="87.802277"/>
    <linearGradient gradientTransform="matrix(0.272455,0.000000,0.000000,0.204889,215.0464,89.10950)" gradientUnits="userSpaceOnUse" id="linearGradient7293" inkscape:collect="always" x1="68.268654" x2="70.638657" xlink:href="#linearGradient8474" y1="164.80815" y2="87.802277"/>
    <linearGradient gradientTransform="matrix(0.272455,0.000000,0.000000,0.204889,193.0464,89.10950)" gradientUnits="userSpaceOnUse" id="linearGradient10028" inkscape:collect="always" x1="68.268654" x2="70.638657" xlink:href="#linearGradient8474" y1="164.80815" y2="87.802277"/>
    <linearGradient gradientTransform="matrix(0.272455,0.000000,0.000000,0.204889,193.0464,89.10950)" gradientUnits="userSpaceOnUse" id="linearGradient10036" inkscape:collect="always" x1="68.268654" x2="70.638657" xlink:href="#linearGradient8474" y1="164.80815" y2="87.802277"/>
    <linearGradient gradientTransform="matrix(0.272455,0.000000,0.000000,0.204889,193.0464,89.10950)" gradientUnits="userSpaceOnUse" id="linearGradient10044" inkscape:collect="always" x1="68.268654" x2="70.638657" xlink:href="#linearGradient8474" y1="164.80815" y2="87.802277"/>
    <linearGradient gradientTransform="matrix(0.272455,0.000000,0.000000,0.204889,215.0464,89.10950)" gradientUnits="userSpaceOnUse" id="linearGradient10046" inkscape:collect="always" x1="68.268654" x2="70.638657" xlink:href="#linearGradient8474" y1="164.80815" y2="87.802277"/>
    <linearGradient gradientTransform="matrix(0.272455,0.000000,0.000000,0.204889,193.0464,89.10950)" gradientUnits="userSpaceOnUse" id="linearGradient10048" inkscape:collect="always" x1="68.268654" x2="70.638657" xlink:href="#linearGradient8474" y1="164.80815" y2="87.802277"/>
    <linearGradient gradientTransform="matrix(0.272455,0.000000,0.000000,0.204889,193.0464,89.10950)" gradientUnits="userSpaceOnUse" id="linearGradient10142" inkscape:collect="always" x1="68.268654" x2="70.638657" xlink:href="#linearGradient8474" y1="164.80815" y2="87.802277"/>
    <linearGradient gradientTransform="matrix(0.272455,0.000000,0.000000,0.204889,215.0464,89.10950)" gradientUnits="userSpaceOnUse" id="linearGradient10144" inkscape:collect="always" x1="68.268654" x2="70.638657" xlink:href="#linearGradient8474" y1="164.80815" y2="87.802277"/>
    <linearGradient gradientTransform="matrix(0.272455,0.000000,0.000000,0.204889,193.0464,89.10950)" gradientUnits="userSpaceOnUse" id="linearGradient10146" inkscape:collect="always" x1="68.268654" x2="70.638657" xlink:href="#linearGradient8474" y1="164.80815" y2="87.802277"/>
    <linearGradient gradientTransform="matrix(0.272455,0.000000,0.000000,0.204889,193.0464,89.10950)" gradientUnits="userSpaceOnUse" id="linearGradient10148" inkscape:collect="always" x1="68.268654" x2="70.638657" xlink:href="#linearGradient8474" y1="164.80815" y2="87.802277"/>
    <linearGradient gradientTransform="matrix(0.272455,0.000000,0.000000,0.204889,193.0464,89.10950)" gradientUnits="userSpaceOnUse" id="linearGradient10150" inkscape:collect="always" x1="68.268654" x2="70.638657" xlink:href="#linearGradient8474" y1="164.80815" y2="87.802277"/>
  </defs>
  <path d="M 46.933371,17.616754 L 30.902180,89.041460 C 28.338806,100.46214 42.118795,117.61134 58.048331,117.61134 L 259.40014,117.61134 C 275.41106,117.61134 289.38251,100.53969 286.97380,89.041460 L 272.01135,17.616754 C 270.19772,8.9592300 253.71427,3.3318140 241.65895,3.3318140 L 77.499511,3.3318140 C 65.384329,3.3318140 48.882918,8.9307570 46.933371,17.616754 z " id="path8486" style="fill:url(#linearGradient4915);fill-opacity:1.0000000;fill-rule:evenodd;stroke:url(#linearGradient4917);stroke-width:0.60545664pt;stroke-linecap:butt;stroke-linejoin:miter;stroke-opacity:0.32704404"/>
  <path d="M 52.218915,15.224929 L 36.944371,65.148089 C 34.501986,73.130715 47.631584,85.117350 62.809272,85.117350 L 254.65763,85.117350 C 269.91286,85.117350 283.22487,73.184914 280.92986,65.148089 L 266.67361,15.224929 C 264.94558,9.1736550 249.24012,5.2403050 237.75379,5.2403050 L 81.342391,5.2403050 C 69.799025,5.2403050 54.076452,9.1537540 52.218915,15.224929 z " id="path8477" style="fill:url(#linearGradient4912);fill-opacity:1.0000000;fill-rule:evenodd;stroke:none;stroke-width:0.67866912pt;stroke-linecap:butt;stroke-linejoin:miter;stroke-opacity:1.0000000"/>
  <path d="M 49.576148,14.483028 L 33.923275,65.642694 C 31.420391,73.823027 44.875185,86.106550 60.428806,86.106550 L 257.02889,86.106550 C 272.66196,86.106550 286.30369,73.878576 283.95183,65.642694 L 269.34248,14.483028 C 267.57165,8.2818690 251.47720,4.2511010 239.70637,4.2511010 L 79.420946,4.2511010 C 67.591677,4.2511010 51.479685,8.2614780 49.576148,14.483028 z " id="path8463" style="fill:url(#linearGradient4909);fill-opacity:1.0000000;fill-rule:evenodd;stroke:none;stroke-width:0.67866912pt;stroke-linecap:butt;stroke-linejoin:miter;stroke-opacity:1.0000000"/>
  <path d="M 53.712554,12.263630 L 38.422592,62.977888 C 35.977738,71.087006 49.120584,83.263580 64.313601,83.263580 L 256.35564,83.263580 C 271.62626,83.263580 284.95176,71.142067 282.65441,62.977888 L 268.38377,12.263630 C 266.65401,6.1164680 250.93268,2.1207900 239.43474,2.1207900 L 82.865431,2.1207900 C 71.310418,2.1207900 55.571957,6.0962520 53.712554,12.263630 z " id="path1717" style="fill:url(#linearGradient4906);fill-opacity:1.0000000;fill-rule:evenodd;stroke:none;stroke-width:0.55278249pt;stroke-linecap:butt;stroke-linejoin:miter;stroke-opacity:1.0000000"/>
  <path d="M 58.201994,16.649770 L 43.554722,64.231062 C 41.212633,71.839224 53.803039,83.263570 68.357444,83.263570 L 252.32730,83.263570 C 266.95605,83.263570 279.72141,71.890883 277.52064,64.231062 L 263.84985,16.649770 C 262.19279,10.882361 247.13229,7.1335230 236.11765,7.1335230 L 86.129475,7.1335230 C 75.060161,7.1335230 59.983241,10.863394 58.201994,16.649770 z " id="path8462" style="fill:url(#linearGradient4903);fill-opacity:1.0000000;fill-rule:evenodd;stroke:none;stroke-width:0.55278249pt;stroke-linecap:butt;stroke-linejoin:miter;stroke-opacity:1.0000000"/>
  <path d="M 1.0646150,130.96003 C 1.0646150,115.83297 72.284563,103.57006 160.13882,103.57006 C 247.99308,103.57006 319.21303,115.83297 319.21303,130.96003 C 319.21303,146.08710 247.99308,158.35001 160.13882,158.35001 C 72.284563,158.35001 1.0646150,146.08710 1.0646150,130.96003 L 1.0646150,130.96003 z " id="path10011" style="fill:url(#radialGradient1875);fill-opacity:1.0000000;fill-rule:evenodd;stroke:none;stroke-width:1.0000000pt;stroke-linecap:butt;stroke-linejoin:miter;stroke-opacity:1.0000000"/>
  <g id="g10119" transform="translate(9.328370,0.000000)">
    <path d="M 99.661870,105.15823 L 99.184006,109.04052 C 99.107595,109.66129 99.518355,110.59343 99.993190,110.59343 L 105.99517,110.59343 C 106.47243,110.59343 106.88890,109.66550 106.81710,109.04052 L 106.37110,105.15823 C 106.31703,104.68765 105.82569,104.38177 105.46634,104.38177 L 100.57300,104.38177 C 100.21187,104.38177 99.719983,104.68610 99.661870,105.15823 z " id="path7267" style="fill:#82ce7c;fill-opacity:1.0000000;fill-rule:evenodd;stroke:none;stroke-width:0.55278249pt;stroke-linecap:butt;stroke-linejoin:miter;stroke-opacity:1.0000000"/>
    <path d="M 99.661870,90.183030 L 99.184010,94.065320 C 99.107600,94.686090 99.518350,95.618230 99.993190,95.618230 L 105.99517,95.618230 C 106.47243,95.618230 106.88890,94.690300 106.81710,94.065320 L 106.37110,90.183030 C 106.31703,89.712450 105.82569,89.406570 105.46634,89.406570 L 100.57300,89.406570 C 100.21187,89.406570 99.719980,89.710900 99.661870,90.183030 z " id="path7269" style="fill:#82ce7c;fill-opacity:1.0000000;fill-rule:evenodd;stroke:none;stroke-width:0.55278249pt;stroke-linecap:butt;stroke-linejoin:miter;stroke-opacity:1.0000000"/>
    <g id="g10018" transform="translate(-3.625000,-0.500000)">
      <path d="M 202.81540,100.25878 L 201.78690,107.99783 C 201.62244,109.23528 202.50651,111.09343 203.52849,111.09343 L 216.44646,111.09343 C 217.47366,111.09343 218.37001,109.24368 218.21548,107.99783 L 217.25555,100.25878 C 217.13919,99.320720 216.08168,98.710970 215.30825,98.710970 L 204.77640,98.710970 C 203.99914,98.710970 202.94047,99.317630 202.81540,100.25878 z " id="path7283" style="fill:url(#linearGradient10142);fill-opacity:1.0000000;fill-rule:evenodd;stroke:none;stroke-width:0.55278249pt;stroke-linecap:butt;stroke-linejoin:miter;stroke-opacity:1.0000000"/>
      <path d="M 206.66187,90.683030 L 206.18400,94.565310 C 206.10759,95.186080 206.51835,96.118220 206.99319,96.118220 L 212.99517,96.118220 C 213.47243,96.118220 213.88890,95.190290 213.81710,94.565310 L 213.37109,90.683030 C 213.31703,90.212450 212.82569,89.906570 212.46633,89.906570 L 207.57300,89.906570 C 207.21186,89.906570 206.71998,90.210890 206.66187,90.683030 z " id="path7285" style="fill:#82ce7c;fill-opacity:1.0000000;fill-rule:evenodd;stroke:none;stroke-width:0.55278249pt;stroke-linecap:butt;stroke-linejoin:miter;stroke-opacity:1.0000000"/>
    </g>
    <g id="g10014" transform="translate(0.000000,-0.500000)">
      <path d="M 224.81540,100.25878 L 223.78690,107.99783 C 223.62244,109.23528 224.50651,111.09343 225.52849,111.09343 L 238.44646,111.09343 C 239.47366,111.09343 240.37001,109.24368 240.21548,107.99783 L 239.25555,100.25878 C 239.13919,99.320720 238.08168,98.710970 237.30825,98.710970 L 226.77640,98.710970 C 225.99914,98.710970 224.94047,99.317630 224.81540,100.25878 z " id="path7289" style="fill:url(#linearGradient10144);fill-opacity:1.0000000;fill-rule:evenodd;stroke:none;stroke-width:0.55278249pt;stroke-linecap:butt;stroke-linejoin:miter;stroke-opacity:1.0000000"/>
      <path d="M 228.66187,90.683030 L 228.18400,94.565310 C 228.10759,95.186080 228.51835,96.118220 228.99319,96.118220 L 234.99517,96.118220 C 235.47243,96.118220 235.88890,95.190290 235.81710,94.565310 L 235.37109,90.683030 C 235.31703,90.212450 234.82569,89.906570 234.46633,89.906570 L 229.57300,89.906570 C 229.21186,89.906570 228.71998,90.210890 228.66187,90.683030 z " id="path7291" style="fill:#ce7c85;fill-opacity:1.0000000;fill-rule:evenodd;stroke:none;stroke-width:0.55278249pt;stroke-linecap:butt;stroke-linejoin:miter;stroke-opacity:1.0000000"/>
    </g><text id="text7299" sodipodi:linespacing="100%" style="font-size:8.0000000;font-style:normal;font-variant:normal;font-weight:normal;font-stretch:normal;fill:#000000;fill-opacity:1.0000000;stroke:none;stroke-width:1.0000000px;stroke-linecap:butt;stroke-linejoin:miter;stroke-opacity:1.0000000;font-family:Bitstream Vera Sans;text-anchor:start;writing-mode:lr-tb" x="58.5" xml:space="preserve" y="110.48015"><tspan id="tspan7301" sodipodi:role="line" x="58.500000" y="110.48015">Collision</tspan></text><text id="text7303" sodipodi:linespacing="100%" style="font-size:8.0000000;font-style:normal;font-variant:normal;font-weight:normal;font-stretch:normal;fill:#000000;fill-opacity:1.0000000;stroke:none;stroke-width:1.0000000px;stroke-linecap:butt;stroke-linejoin:miter;stroke-opacity:1.0000000;font-family:Bitstream Vera Sans;text-anchor:start;writing-mode:lr-tb" x="66.5" xml:space="preserve" y="95.238602"><tspan id="tspan7305" sodipodi:role="line" x="66.500000" y="95.238602">Power</tspan></text>
    <g id="g10022" transform="translate(-29.25000,-0.500000)">
      <path d="M 202.81540,100.25878 L 201.78690,107.99783 C 201.62244,109.23528 202.50651,111.09343 203.52849,111.09343 L 216.44646,111.09343 C 217.47366,111.09343 218.37001,109.24368 218.21548,107.99783 L 217.25555,100.25878 C 217.13919,99.320720 216.08168,98.710970 215.30825,98.710970 L 204.77640,98.710970 C 203.99914,98.710970 202.94047,99.317630 202.81540,100.25878 z " id="path10024" style="fill:url(#linearGradient10146);fill-opacity:1.0000000;fill-rule:evenodd;stroke:none;stroke-width:0.55278249pt;stroke-linecap:butt;stroke-linejoin:miter;stroke-opacity:1.0000000"/>
      <path d="M 206.66187,90.683030 L 206.18400,94.565310 C 206.10759,95.186080 206.51835,96.118220 206.99319,96.118220 L 212.99517,96.118220 C 213.47243,96.118220 213.88890,95.190290 213.81710,94.565310 L 213.37109,90.683030 C 213.31703,90.212450 212.82569,89.906570 212.46633,89.906570 L 207.57300,89.906570 C 207.21186,89.906570 206.71998,90.210890 206.66187,90.683030 z " id="path10026" style="fill:#82ce7c;fill-opacity:1.0000000;fill-rule:evenodd;stroke:none;stroke-width:0.55278249pt;stroke-linecap:butt;stroke-linejoin:miter;stroke-opacity:1.0000000"/>
    </g>
    <g id="g10030" transform="translate(-54.87500,-0.500000)">
      <path d="M 202.81540,100.25878 L 201.78690,107.99783 C 201.62244,109.23528 202.50651,111.09343 203.52849,111.09343 L 216.44646,111.09343 C 217.47366,111.09343 218.37001,109.24368 218.21548,107.99783 L 217.25555,100.25878 C 217.13919,99.320720 216.08168,98.710970 215.30825,98.710970 L 204.77640,98.710970 C 203.99914,98.710970 202.94047,99.317630 202.81540,100.25878 z " id="path10032" style="fill:url(#linearGradient10148);fill-opacity:1.0000000;fill-rule:evenodd;stroke:none;stroke-width:0.55278249pt;stroke-linecap:butt;stroke-linejoin:miter;stroke-opacity:1.0000000"/>
      <path d="M 206.66187,90.683030 L 206.18400,94.565310 C 206.10759,95.186080 206.51835,96.118220 206.99319,96.118220 L 212.99517,96.118220 C 213.47243,96.118220 213.88890,95.190290 213.81710,94.565310 L 213.37109,90.683030 C 213.31703,90.212450 212.82569,89.906570 212.46633,89.906570 L 207.57300,89.906570 C 207.21186,89.906570 206.71998,90.210890 206.66187,90.683030 z " id="path10034" style="fill:#82ce7c;fill-opacity:1.0000000;fill-rule:evenodd;stroke:none;stroke-width:0.55278249pt;stroke-linecap:butt;stroke-linejoin:miter;stroke-opacity:1.0000000"/>
    </g>
    <g id="g10038" transform="translate(-80.50000,-0.500000)">
      <path d="M 202.81540,100.25878 L 201.78690,107.99783 C 201.62244,109.23528 202.50651,111.09343 203.52849,111.09343 L 216.44646,111.09343 C 217.47366,111.09343 218.37001,109.24368 218.21548,107.99783 L 217.25555,100.25878 C 217.13919,99.320720 216.08168,98.710970 215.30825,98.710970 L 204.77640,98.710970 C 203.99914,98.710970 202.94047,99.317630 202.81540,100.25878 z " id="path10040" style="fill:url(#linearGradient10150);fill-opacity:1.0000000;fill-rule:evenodd;stroke:none;stroke-width:0.55278249pt;stroke-linecap:butt;stroke-linejoin:miter;stroke-opacity:1.0000000"/>
      <path d="M 206.66187,90.683030 L 206.18400,94.565310 C 206.10759,95.186080 206.51835,96.118220 206.99319,96.118220 L 212.99517,96.118220 C 213.47243,96.118220 213.88890,95.190290 213.81710,94.565310 L 213.37109,90.683030 C 213.31703,90.212450 212.82569,89.906570 212.46633,89.906570 L 207.57300,89.906570 C 207.21186,89.906570 206.71998,90.210890 206.66187,90.683030 z " id="path10042" style="fill:#82ce7c;fill-opacity:1.0000000;fill-rule:evenodd;stroke:none;stroke-width:0.55278249pt;stroke-linecap:butt;stroke-linejoin:miter;stroke-opacity:1.0000000"/>
    </g>
  </g>
</svg>
