<?xml version="1.0" encoding="UTF-8" standalone="no"?>
<!-- Generator: Adobe Illustrator 12.0.0, SVG Export Plug-In . SVG Version: 6.00 Build 51448)  --><svg height="134.676" id="Layer_1" inkscape:version="0.42" sodipodi:docbase="F:\openclip\svg da inviare\02" sodipodi:docname="stampante.svg" sodipodi:version="0.32" space="preserve" style="overflow:visible;enable-background:new 0 0 138.053 134.676;" version="1.1" viewBox="0 0 138.053 134.676" width="138.053" xmlns="http://www.w3.org/2000/svg" xmlns:cc="http://web.resource.org/cc/" xmlns:dc="http://purl.org/dc/elements/1.1/" xmlns:inkscape="http://www.inkscape.org/namespaces/inkscape" xmlns:rdf="http://www.w3.org/1999/02/22-rdf-syntax-ns#" xmlns:sodipodi="http://inkscape.sourceforge.net/DTD/sodipodi-0.dtd" xmlns:svg="http://www.w3.org/2000/svg">
  <metadata>
    <rdf:RDF xmlns:cc="http://web.resource.org/cc/" xmlns:dc="http://purl.org/dc/elements/1.1/" xmlns:rdf="http://www.w3.org/1999/02/22-rdf-syntax-ns#">
      <cc:Work rdf:about="">
        <dc:title>Stampante</dc:title>
        <dc:description></dc:description>
        <dc:subject>
          <rdf:Bag>
            <rdf:li>hardware</rdf:li>
          </rdf:Bag>
        </dc:subject>
        <dc:publisher>
          <cc:Agent rdf:about="http://www.openclipart.org/">
            <dc:title>Open Clip Art Library</dc:title>
          </cc:Agent>
        </dc:publisher>
        <dc:creator>
          <cc:Agent>
            <dc:title>Architetto Francesco Rollandin</dc:title>
          </cc:Agent>
        </dc:creator>
        <dc:rights>
          <cc:Agent>
            <dc:title>Architetto Francesco Rollandin</dc:title>
          </cc:Agent>
        </dc:rights>
        <dc:date></dc:date>
        <dc:format>image/svg+xml</dc:format>
        <dc:type rdf:resource="http://purl.org/dc/dcmitype/StillImage"/>
        <cc:license rdf:resource="http://web.resource.org/cc/PublicDomain"/>
        <dc:language>en</dc:language>
      </cc:Work>
      <cc:License rdf:about="http://web.resource.org/cc/PublicDomain">
        <cc:permits rdf:resource="http://web.resource.org/cc/Reproduction"/>
        <cc:permits rdf:resource="http://web.resource.org/cc/Distribution"/>
        <cc:permits rdf:resource="http://web.resource.org/cc/DerivativeWorks"/>
      </cc:License>
    </rdf:RDF>
  </metadata>
  <defs id="defs105"/>
  <sodipodi:namedview bordercolor="#666666" borderopacity="1.0" id="base" inkscape:current-layer="Layer_1" inkscape:cx="69.026497" inkscape:cy="67.337997" inkscape:pageopacity="0.0" inkscape:pageshadow="2" inkscape:window-height="510" inkscape:window-width="787" inkscape:window-x="110" inkscape:window-y="145" inkscape:zoom="2.6730822" pagecolor="#ffffff"/>
  <g id="g3">
    <path d="M110.346,43.52c0,10.842-8.629,9.268-16.469,9.268c-11.014,0-22.027,0-33.042,0   c-8.554,0-17.106,0-25.66,0c-10.665,0-8.236-12.683-8.236-20.221c0-8.103-1.272-17.375,9.227-17.375c9.163,0,18.325,0,27.486,0   c10.728,0,21.456,0,32.183,0c7.836,0,14.512-0.608,14.512,9.805C110.346,31.17,110.346,37.345,110.346,43.52" id="path5" style="fill:#383838;"/>
    <path d="M103.441,39.346c0,4.454-0.242,11.382-6.166,11.382c-3.162,0-6.324,0-9.482,0   c-11.186,0-22.371,0-33.555,0c-5.148,0-17.478,2.454-19.565-4.047c-2.733-8.515-0.831-20.25-0.831-29.008   c0-6.409-2.355-16.901,6.476-16.901c8.727,0,17.455,0,26.183,0c9.688,0,19.374,0,29.063,0c2.316,0,5.748-0.508,7.047,1.837   c1.604,2.897,0.83,8.126,0.83,11.41C103.441,22.46,103.441,30.904,103.441,39.346" id="path7" style="fill:#FFFFFF;"/>
    <path d="M97.891,38.917c0,12.1-6.975,10.157-16.24,10.157c-10.529,0-21.056,0-31.583,0   c-2.156,0-5.078,0.497-7.193-0.206c-4.295-1.43-3.482-8.508-3.482-12.133c0-8.459-0.404-17.022,0-25.472   c0-4.675,0.905-6.773,5.695-6.773c3.515,0,7.029,0,10.544,0c10.53,0,21.057,0,31.584,0c2.367,0,4.832-0.187,7.195,0.061   c4.291,0.451,3.48,5.674,3.48,8.895C97.891,21.935,97.891,30.427,97.891,38.917" id="path9" style="fill:#F4F4F4;"/>
    <linearGradient gradientTransform="matrix(0 140.5657 140.5657 0 -63505.3594 33656.8359)" gradientUnits="userSpaceOnUse" id="XMLID_6_" x1="-239.7754" x2="-238.0237" y1="452.2695" y2="452.2695">
      <stop id="stop12" offset="0" style="stop-color:#FFFFFF"/>
      <stop id="stop14" offset="1" style="stop-color:#000000"/>
    </linearGradient>
    <path d="M39.602,0c-9.746,0-6.623,16.493-6.623,23.15c0,6.013-2.568,24.027,3.68,27.631   c5.07,2.924,16.028,0.721,21.487,0.721c10.916,0,21.831,0,32.747,0c2.248,0,4.496,0,6.744,0c6.787,0,6.668-8.583,6.668-13.411   c0-9.491,0-18.982,0-28.473c0-5.212-0.275-9.618-6.668-9.618c-2.576,0-5.154,0-7.729,0C78.877,0,67.847,0,56.816,0   C51.078,0,45.34,0,39.602,0 M34.705,39.346c0-8.802,0-17.604,0-26.404c0-2.854-0.811-8.047,0.96-10.309   c1.327-1.696,5.353-1.088,7.356-1.088c18.16,0,36.319,0,54.479,0c5.123,0,5.08,3.168,5.08,7.538c0,4.69,0,9.378,0,14.066   c0,4.81,2.439,26.807-4.943,26.807c-17.955,0-35.91,0-53.864,0C36.58,49.957,34.705,47.36,34.705,39.346" id="path16" style="fill:url(#XMLID_6_);"/>
    <path d="M136.709,103.346c0,17.954-31.098,12.407-42.154,12.407c-22.256,0-44.513,0-66.77,0   c-5.032,0-10.064,0-15.096,0c-11.852,0-11.825-11.978-11.825-20.478c0-11.027,0-22.053,0-33.08c0-8.387,0.578-19.396,11.945-19.396   c32.327,0,64.652,0,96.979,0c11.629,0,26.922-2.289,26.922,14.323C136.709,72.53,136.709,87.938,136.709,103.346" id="path18" style="fill:#F4F4F4;"/>
    <path d="M124.98,42.744c-35.32,0-70.64,0-105.96,0c-6.937,0-14.8-0.263-17.559,7.922   c-1.419,4.209-0.599,9.616-0.599,13.972c0,3.246,4.963,1.671,7.588,1.825c4.871,0.283,9.725,0.873,14.5,1.867   c12.104,2.519,23.137,8.859,35.385,10.662c15.051,2.219,29.051-2.602,43.145-7.155c5.498-1.777,11.063-3.354,16.752-4.401   c2.641-0.487,18.475-1.466,18.475-2.503C136.709,56.067,137.732,42.744,124.98,42.744" id="path20" style="fill:#FFFFFF;"/>
    <linearGradient gradientTransform="matrix(0 -254.5265 -254.5265 0 119519.8906 -59944.6094)" gradientUnits="userSpaceOnUse" id="XMLID_7_" x1="-236.3701" x2="-234.6259" y1="469.2998" y2="469.2998">
      <stop id="stop23" offset="0" style="stop-color:#FFFFFF"/>
      <stop id="stop25" offset="1" style="stop-color:#000000"/>
    </linearGradient>
    <path d="M12.591,41.972C-0.299,41.972,0,55.284,0,64.417c0,10.988,0,21.977,0,32.964   c0,8.668,1.523,19.199,12.808,19.199c5.337,0,10.676,0,16.013,0c22.341,0,44.681,0,67.022,0c11.617,0,41.727,5.42,41.727-13.235   c1.086-15.246,0-30.934,0-46.223c0-17.621-16.518-15.15-28.82-15.15C76.697,41.972,44.644,41.972,12.591,41.972 M1.727,103.346   c0-15.901-1.242-32.292,0-48.136c0-9.835,8.298-11.583,15.934-11.583c8.451,0,16.904,0,25.357,0c22.256,0,44.514,0,66.77,0   c5.033,0,10.064,0,15.098,0c11.266,0,10.961,11.67,10.961,19.653c0,9.478,0,18.955,0,28.432c0,6.781,1.617,16.231-4.453,20.977   c-3.791,2.966-9.059,2.238-13.574,2.238c-7.756,0-15.51,0-23.264,0c-19.67,0-39.338,0-59.006,0   C25.508,114.927,1.727,119.255,1.727,103.346" id="path27" style="fill:url(#XMLID_7_);"/>
    <path d="M129.184,114.204c0,1.294-120.364,1.294-120.364,0C8.82,108.547,129.184,108.547,129.184,114.204" id="path29" style="fill:#E5E5E5;"/>
    <radialGradient cx="50.0674" cy="49.0747" gradientUnits="userSpaceOnUse" id="XMLID_8_" r="57.4812">
      <stop id="stop32" offset="0" style="stop-color:#F3F3F3"/>
      <stop id="stop34" offset="0.3839" style="stop-color:#C3C3C3"/>
      <stop id="stop36" offset="1" style="stop-color:#707070"/>
    </radialGradient>
    <path d="M110.346,43.518c6.521,4.942,7.914,16.347,1.818,22.332   c-7.455,7.324-19.887,9.565-29.816,10.696c-13.335,1.519-27.448,0.887-40.339-3.062c-6.363-1.949-17.946-6.202-17.946-14.524   c0-6.037,1.581-15.443,8.889-15.443c9.159,0,18.317,0,27.476,0C77.066,43.518,93.705,43.518,110.346,43.518" id="path38" style="fill:url(#XMLID_8_);"/>
    <linearGradient gradientUnits="userSpaceOnUse" id="XMLID_9_" x1="32.1177" x2="108.0454" y1="60.769" y2="60.769">
      <stop id="stop41" offset="0" style="stop-color:#F3F3F3"/>
      <stop id="stop43" offset="0.2357" style="stop-color:#F0F0F0"/>
      <stop id="stop45" offset="0.4068" style="stop-color:#E6E6E6"/>
      <stop id="stop47" offset="0.5575" style="stop-color:#D7D7D7"/>
      <stop id="stop49" offset="0.6963" style="stop-color:#C0C0C0"/>
      <stop id="stop51" offset="0.8272" style="stop-color:#A3A3A3"/>
      <stop id="stop53" offset="0.9503" style="stop-color:#808080"/>
      <stop id="stop55" offset="1" style="stop-color:#707070"/>
    </linearGradient>
    <path d="M108.045,60.769c0,6.337-75.927,6.337-75.927,0C32.118,54.433,108.045,54.433,108.045,60.769   " id="path57" style="fill:url(#XMLID_9_);"/>
    <path d="M104.594,84.374c-17.816,0-35.632,0-53.449,0c-6.058,0-14.605-1.493-20.47,0.728   c-9.742,3.688-6.325,20.434-6.325,28.533c0,3.557,8.632,1.744,11.544,1.744c10.77,0,21.54,0,32.309,0   c3.525,0,46.744,0.504,46.744-0.466C114.947,105.642,119.096,84.374,104.594,84.374" id="path59" style="fill:#D8D4D4;"/>
    <path d="M102.537,86.306c-17.854,0-35.708,0-53.561,0c-6.488,0-17.744-1.945-21.194,5.245   c-1.419,2.962-1.901,19.081,0.345,19.081c19.227,0,38.453,0,57.68,0c8.176,0,16.355,0,24.531,0c2.217,0,1.943,0.192,1.943-2.203   c0-4.344,0.668-9.244,0-13.534C112.281,89.749,107.332,86.306,102.537,86.306" id="path61" style="fill:#383838;"/>
    <path d="M114.732,121.839c0,8.443-49.349,5.021-54.58,5.021c-7.044,0-14.09-0.058-21.135,0   c-2.5,0-15.49,1.439-13.973-4.231c1.191-4.454,2.381-8.908,3.572-13.361c2.676-10.005,9.695-9.444,18.078-9.444   c11.132,0,22.263,0,33.395,0c7.041,0,14.09-0.114,21.131,0.009C111.48,100.012,112.488,114.034,114.732,121.839" id="path63" style="fill:#494848;"/>
    <path d="M33.587,121.316c-0.632,2.572-5.248,3.111-4.436-0.205c0.437-1.784,0.875-3.566,1.312-5.35   c0.736-3.007,0.952-8.25,2.659-10.852c0.631-2.574,5.248-3.113,4.436,0.205c-0.437,1.782-0.875,3.566-1.312,5.35   C35.359,114.082,34.473,117.698,33.587,121.316" id="path65" style="fill:#5E5D5D;"/>
    <path d="M38.781,121.387c-0.607,2.47-3.824,3.019-3.039-0.186c0.437-1.784,0.875-3.567,1.312-5.35   c0.713-2.907,0.929-8.391,2.659-10.853c0.607-2.466,3.824-3.017,3.039,0.187c-0.437,1.783-0.875,3.566-1.312,5.35   C40.554,114.153,39.667,117.77,38.781,121.387" id="path67" style="fill:#383838;"/>
    <path d="M106.074,121.316c0.633,2.572,5.248,3.111,4.436-0.205c-0.438-1.784-0.875-3.566-1.311-5.35   c-0.736-3.007-0.953-8.25-2.66-10.852c-0.631-2.574-5.248-3.113-4.436,0.205c0.438,1.782,0.875,3.566,1.313,5.35   C104.301,114.082,105.189,117.698,106.074,121.316" id="path69" style="fill:#5E5D5D;"/>
    <path d="M100.881,121.387c0.607,2.47,3.824,3.019,3.039-0.186c-0.438-1.784-0.875-3.567-1.313-5.35   c-0.713-2.907-0.928-8.391-2.658-10.853c-0.607-2.466-3.824-3.017-3.039,0.187c0.436,1.783,0.875,3.566,1.311,5.35   C99.107,114.153,99.994,117.77,100.881,121.387" id="path71" style="fill:#383838;"/>
    <path d="M44.863,94.785c16.077,0,32.155,0,48.233,0c5.506,0,9.414,21.663,10.377,25.628   c0.768,3.159,2.115,6.707,1.754,9.993c-0.455,4.1-4.119,3.388-7.313,3.388c-18.543,0-37.084,0-55.625,0   c-2.482,0-6.265,0.938-7.564-1.762c-1.334-2.777,0.46-6.991,1.132-9.705c1.338-5.414,2.74-10.818,4.338-16.161   C41.004,103.457,42.114,96.39,44.863,94.785" id="path73" style="fill:#F4F4F4;"/>
    <path d="M102.23,115.53c-1.518-5.701-3.545-20.745-11.15-20.745c-7.525,0-15.051,0-22.576,0   c-7.046,0-14.093,0-21.141,0c-7.032,0-8.382,15.439-9.775,20.745C59.135,115.53,80.684,115.53,102.23,115.53" id="path75" style="fill:#E5E5E5;"/>
    <path d="M99.035,104.972c-2.166-6.141-3.105-10.187-9.471-10.187c-6.541,0-13.084,0-19.625,0   c-6.732,0-13.462,0-20.193,0c-7.053,0-6.952,2.89-9.189,10.187C60.05,104.972,79.543,104.972,99.035,104.972" id="path77" style="fill:#C6C6C6;"/>
    <linearGradient gradientTransform="matrix(0 -45.5125 -45.5125 0 22694.9414 -10380.7256)" gradientUnits="userSpaceOnUse" id="XMLID_10_" x1="-231.5532" x2="-229.8219" y1="497.1152" y2="497.1152">
      <stop id="stop80" offset="0" style="stop-color:#FFFFFF"/>
      <stop id="stop82" offset="1" style="stop-color:#000000"/>
    </linearGradient>
    <path d="M93.58,94.014c-16.039,0-32.078,0-48.117,0c-5.138,0-8.237,19.399-9.203,23.149   c-1,3.879-4.275,11.343-2.287,15.262c1.528,3.009,6.134,2.133,9.054,2.133c18.118,0.003,36.234,0.005,54.352,0.009   c2.439,0,6.141,0.651,7.744-1.509c2.281-3.074,0.338-7.942-0.428-11.195C103.074,114.966,100.814,97.377,93.58,94.014    M93.221,95.559c3.293,2.68,4.652,8.512,5.885,12.334c1.814,5.645,3.287,11.405,4.58,17.19c1.033,4.609,1.381,7.938-4.262,7.938   c-1.918,0-3.836,0-5.756,0c-16.697,0-33.394,0-50.091,0c-1.743,0-3.574,0.111-5.31-0.08c-6.638-0.732-0.942-13.096,0.032-16.795   c1.64-6.234,3.175-12.748,5.802-18.659c1.121-2.522,2.226-1.928,4.769-1.928C63.653,95.559,78.438,95.559,93.221,95.559" id="path84" style="fill:url(#XMLID_10_);"/>
    <path d="M103.516,128.822c0,3.438-30.527,1.644-33.436,1.644c-2.909,0-33.435,1.794-33.435-1.644   C36.646,125.849,103.516,125.849,103.516,128.822" id="path86" style="fill:#FFFFFF;"/>
    <path d="M11.683,66.874c0,3.857-5.979,3.857-5.979,0S11.683,63.017,11.683,66.874" id="path88" style="fill:#FF9900;"/>
    <path d="M11.472,66.874c0,3.583-5.556,3.585-5.556,0C5.916,63.29,11.472,63.292,11.472,66.874" id="path90" style="fill:#FEDE58;"/>
    <path d="M11.204,65.796c0.553,3.075-3.948,4.452-5.204,1.542C6.679,71.305,12.734,69.369,11.204,65.796" id="path92" style="fill:#FFB74A;"/>
    <path d="M10.427,65.641c-1.449,0.306-3.803-1.755-4.204,1.373C6.827,62.296,9.841,65.762,10.427,65.641" id="path94" style="fill:#FFFF8C;"/>
    <path d="M22.161,66.874c0,3.857-5.979,3.857-5.979,0S22.161,63.017,22.161,66.874" id="path96" style="fill:#970F00;"/>
    <path d="M21.951,66.874c0,3.583-5.556,3.585-5.556,0C16.395,63.29,21.951,63.292,21.951,66.874" id="path98" style="fill:#D82A2A;"/>
    <path d="M21.683,65.796c0.553,3.075-3.948,4.452-5.204,1.542C17.158,71.305,23.213,69.369,21.683,65.796" id="path100" style="fill:#B20D0D;"/>
    <path d="M20.906,65.641c-1.45,0.306-3.804-1.755-4.206,1.373C17.306,62.296,20.319,65.762,20.906,65.641" id="path102" style="fill:#EF5656;"/>
  </g>
</svg>
