<?xml version="1.0" encoding="UTF-8" standalone="no"?>
<!DOCTYPE svg PUBLIC "-//W3C//DTD SVG 20010904//EN"
"http://www.w3.org/TR/2001/REC-SVG-20010904/DTD/svg10.dtd">
<!-- Created with Inkscape (http://www.inkscape.org/) --><svg height="60.0000000" id="svg1" inkscape:version="0.38.1" sodipodi:docbase="/home/danny/flat/scalable/apps" sodipodi:docname="menubar.svg" sodipodi:version="0.32" version="1.0" width="60.0000000" x="0" xmlns="http://www.w3.org/2000/svg" xmlns:inkscape="http://www.inkscape.org/namespaces/inkscape" xmlns:sodipodi="http://sodipodi.sourceforge.net/DTD/sodipodi-0.dtd" xmlns:xlink="http://www.w3.org/1999/xlink" y="0">
  <metadata>
    <rdf:RDF xmlns:cc="http://web.resource.org/cc/" xmlns:dc="http://purl.org/dc/elements/1.1/" xmlns:rdf="http://www.w3.org/1999/02/22-rdf-syntax-ns#">
      <cc:Work rdf:about="">
        <dc:title>Part of the Flat Icon Collection (Wed Aug 25 23:23:49 2004)</dc:title>
        <dc:description></dc:description>
        <dc:subject>
          <rdf:Bag>
            <rdf:li>hash</rdf:li>
            <rdf:li></rdf:li>
            <rdf:li>application</rdf:li>
            <rdf:li>computer</rdf:li>
            <rdf:li>icons</rdf:li>
            <rdf:li>theme</rdf:li>
          </rdf:Bag>
        </dc:subject>
        <dc:publisher>
          <cc:Agent rdf:about="http://www.openclipart.org">
            <dc:title>Danny Allen</dc:title>
          </cc:Agent>
        </dc:publisher>
        <dc:creator>
          <cc:Agent>
            <dc:title>Danny Allen</dc:title>
          </cc:Agent>
        </dc:creator>
        <dc:rights>
          <cc:Agent>
            <dc:title>Danny Allen</dc:title>
          </cc:Agent>
        </dc:rights>
        <dc:date></dc:date>
        <dc:format>image/svg+xml</dc:format>
        <dc:type rdf:resource="http://purl.org/dc/dcmitype/StillImage"/>
        <cc:license rdf:resource="http://web.resource.org/cc/PublicDomain"/>
        <dc:language>en</dc:language>
      </cc:Work>
      <cc:License rdf:about="http://web.resource.org/cc/PublicDomain">
        <cc:permits rdf:resource="http://web.resource.org/cc/Reproduction"/>
        <cc:permits rdf:resource="http://web.resource.org/cc/Distribution"/>
        <cc:permits rdf:resource="http://web.resource.org/cc/DerivativeWorks"/>
      </cc:License>
    </rdf:RDF>
  </metadata>
  <sodipodi:namedview bordercolor="#666666" borderopacity="1.0" id="base" inkscape:cx="47.779858" inkscape:cy="28.022928" inkscape:pageopacity="0.0" inkscape:pageshadow="2" inkscape:window-height="685" inkscape:window-width="1016" inkscape:window-x="0" inkscape:window-y="0" inkscape:zoom="4.9119411" pagecolor="#ffffff"/>
  <defs id="defs3">
    <linearGradient id="linearGradient1160">
      <stop id="stop1161" offset="0" style="stop-color:#000;stop-opacity:1;"/>
      <stop id="stop1162" offset="1" style="stop-color:#fff;stop-opacity:1;"/>
    </linearGradient>
    <linearGradient id="linearGradient1163" xlink:href="#linearGradient1160"/>
  </defs>
  <rect height="27.4840431" id="rect887" style="font-size:12;fill:#b3b3b3;fill-opacity:1;fill-rule:evenodd;stroke:none;stroke-width:1pt;" transform="matrix(0.988213,0.000000,0.000000,1.461558,0.445546,-15.96349)" width="55.2225685" x="2.79930067" y="18.0104904"/>
  <path d="M 57.027805,10.359882 L 3.0332478,10.359882 L 3.0332478,50.529398 L 57.278943,50.529398" id="path888" sodipodi:stroke-cmyk="(0 0 0 0.8)" style="fill:none;fill-opacity:0.75000000;fill-rule:evenodd;stroke:#333333;stroke-width:3.1250002;stroke-linecap:round;stroke-linejoin:round;"/>
  <path d="M 27.121380,17.699265 L 23.740520,17.699265 C 23.740520,17.953171 23.857708,18.193405 24.092083,18.419968 C 24.326458,18.642624 24.709270,18.753952 25.240520,18.753952 C 25.513958,18.753952 25.740520,18.718796 25.920208,18.648483 C 26.099895,18.578171 26.320599,18.478561 26.582317,18.349655 C 26.847942,18.216843 27.039349,18.150436 27.156536,18.150436 C 27.375286,18.150436 27.560833,18.226608 27.713177,18.378952 C 27.865520,18.531296 27.941692,18.728561 27.941692,18.970749 C 27.941692,19.259811 27.797161,19.523483 27.508099,19.761765 C 27.222942,19.996140 26.853802,20.175827 26.400677,20.300827 C 25.947552,20.429733 25.480755,20.494186 25.000286,20.494186 C 24.504192,20.494186 24.054974,20.408249 23.652630,20.236374 C 23.254192,20.064499 22.908489,19.822311 22.615520,19.509811 C 22.326458,19.193405 22.105755,18.826218 21.953411,18.408249 C 21.801067,17.986374 21.724895,17.541061 21.724895,17.072311 C 21.724895,16.630905 21.804974,16.201218 21.965130,15.783249 C 22.125286,15.365280 22.351849,14.998093 22.644817,14.681686 C 22.937786,14.365280 23.287395,14.117233 23.693645,13.937546 C 24.099895,13.753952 24.535442,13.662155 25.000286,13.662155 C 25.597942,13.662155 26.127239,13.812546 26.588177,14.113327 C 27.049114,14.414108 27.404583,14.808640 27.654583,15.296921 C 27.908489,15.785202 28.035442,16.308640 28.035442,16.867233 C 28.035442,17.187546 27.963177,17.406296 27.818645,17.523483 C 27.674114,17.640671 27.441692,17.699265 27.121380,17.699265 z M 23.740520,16.398483 L 26.160442,16.398483 C 26.160442,16.250046 26.107708,16.085983 26.002239,15.906296 C 25.896770,15.722702 25.752239,15.570358 25.568645,15.449265 C 25.388958,15.324265 25.183880,15.261765 24.953411,15.261765 C 24.722942,15.261765 24.513958,15.324265 24.326458,15.449265 C 24.142864,15.574265 23.998333,15.726608 23.892864,15.906296 C 23.791302,16.082077 23.740520,16.246140 23.740520,16.398483 z M 19.275677,19.386765 L 19.275677,11.951218 C 19.275677,11.669968 19.363567,11.435593 19.539349,11.248093 C 19.715130,11.060593 19.937786,10.966843 20.207317,10.966843 C 20.480755,10.966843 20.705364,11.060593 20.881145,11.248093 C 21.056927,11.435593 21.144817,11.669968 21.144817,11.951218 L 21.144817,19.386765 C 21.144817,19.664108 21.056927,19.898483 20.881145,20.089890 C 20.709270,20.277390 20.484661,20.371140 20.207317,20.371140 C 19.933880,20.371140 19.709270,20.277390 19.533489,20.089890 C 19.361614,19.898483 19.275677,19.664108 19.275677,19.386765 z M 16.609661,19.386765 L 16.609661,14.757858 C 16.609661,14.480515 16.695599,14.250046 16.867474,14.066452 C 17.043255,13.878952 17.267864,13.785202 17.541302,13.785202 C 17.818645,13.785202 18.043255,13.878952 18.215130,14.066452 C 18.390911,14.250046 18.478802,14.480515 18.478802,14.757858 L 18.478802,19.386765 C 18.478802,19.664108 18.390911,19.898483 18.215130,20.089890 C 18.043255,20.277390 17.818645,20.371140 17.541302,20.371140 C 17.267864,20.371140 17.043255,20.277390 16.867474,20.089890 C 16.695599,19.898483 16.609661,19.664108 16.609661,19.386765 z M 16.428020,12.091843 C 16.428020,11.787155 16.537395,11.523483 16.756145,11.300827 C 16.974895,11.078171 17.236614,10.966843 17.541302,10.966843 C 17.849895,10.966843 18.113567,11.076218 18.332317,11.294968 C 18.551067,11.513718 18.660442,11.779343 18.660442,12.091843 C 18.660442,12.416061 18.551067,12.685593 18.332317,12.900436 C 18.113567,13.115280 17.849895,13.222702 17.541302,13.222702 C 17.236614,13.222702 16.974895,13.113327 16.756145,12.894577 C 16.537395,12.675827 16.428020,12.408249 16.428020,12.091843 z M 13.129192,19.386765 L 13.129192,15.595749 L 12.912395,15.595749 C 12.603802,15.595749 12.363567,15.523483 12.191692,15.378952 C 12.015911,15.234421 11.928020,15.015671 11.928020,14.722702 C 11.928020,14.425827 12.015911,14.207077 12.191692,14.066452 C 12.363567,13.925827 12.603802,13.855515 12.912395,13.855515 L 13.129192,13.855515 L 13.129192,13.005905 C 13.129192,12.728561 13.176067,12.462936 13.269817,12.209030 C 13.363567,11.955124 13.496380,11.736374 13.668255,11.552780 C 13.844036,11.365280 14.049114,11.220749 14.283489,11.119186 C 14.517864,11.017624 14.779583,10.966843 15.068645,10.966843 C 15.428020,10.966843 15.724895,11.031296 15.959270,11.160202 C 16.197552,11.285202 16.316692,11.511765 16.316692,11.839890 C 16.316692,12.425827 16.021770,12.718796 15.431927,12.718796 C 15.279583,12.718796 15.168255,12.761765 15.097942,12.847702 C 15.031536,12.933640 14.998333,13.093796 14.998333,13.328171 L 14.998333,13.855515 L 15.513958,13.855515 C 15.830364,13.855515 16.072552,13.925827 16.240520,14.066452 C 16.412395,14.207077 16.498333,14.425827 16.498333,14.722702 C 16.498333,15.015671 16.412395,15.234421 16.240520,15.378952 C 16.072552,15.523483 15.830364,15.595749 15.513958,15.595749 L 14.998333,15.595749 L 14.998333,19.386765 C 14.998333,19.664108 14.910442,19.898483 14.734661,20.089890 C 14.562786,20.277390 14.338177,20.371140 14.060833,20.371140 C 13.787395,20.371140 13.562786,20.277390 13.387005,20.089890 C 13.215130,19.898483 13.129192,19.664108 13.129192,19.386765 z " id="path834" style="font-size:12.000000;font-weight:900;fill:#333333;stroke-width:1.0000000pt;font-family:VAG Rounded Black SSi;" transform="matrix(2.883588,0.000000,0.000000,2.883588,-26.53919,-14.80393)"/>
</svg>
