<?xml version="1.0" ?>
<svg height="100" width="100">
  <metadata>
    <rdf:RDF xmlns:cc="http://web.resource.org/cc/" xmlns:dc="http://purl.org/dc/elements/1.1/" xmlns:rdf="http://www.w3.org/1999/02/22-rdf-syntax-ns#">
      <cc:Work rdf:about="">
        <dc:title>gramastar</dc:title>
        <dc:description></dc:description>
        <dc:subject>
          <rdf:Bag>
            <rdf:li>stars</rdf:li>
            <rdf:li>shapes</rdf:li>
            <rdf:li>magick</rdf:li>
            <rdf:li>geometry</rdf:li>
          </rdf:Bag>
        </dc:subject>
        <dc:publisher>
          <cc:Agent rdf:about="http://www.openclipart.org/">
            <dc:title>Open Clip Art Library</dc:title>
          </cc:Agent>
        </dc:publisher>
        <dc:creator>
          <cc:Agent>
            <dc:title>codifiedivining</dc:title>
          </cc:Agent>
        </dc:creator>
        <dc:rights>
          <cc:Agent>
            <dc:title>codifiedivining</dc:title>
          </cc:Agent>
        </dc:rights>
        <dc:date></dc:date>
        <dc:format>image/svg+xml</dc:format>
        <dc:type rdf:resource="http://purl.org/dc/dcmitype/StillImage"/>
        <cc:license rdf:resource="http://web.resource.org/cc/PublicDomain"/>
        <dc:language>en</dc:language>
      </cc:Work>
      <cc:License rdf:about="http://web.resource.org/cc/PublicDomain">
        <cc:permits rdf:resource="http://web.resource.org/cc/Reproduction"/>
        <cc:permits rdf:resource="http://web.resource.org/cc/Distribution"/>
        <cc:permits rdf:resource="http://web.resource.org/cc/DerivativeWorks"/>
      </cc:License>
    </rdf:RDF>
  </metadata>
  <path d="M 50.0,90.0 L 64.1322376952,87.420313437 L 76.4416382061,80.0139928863 L 85.3404817778,68.736337628 L 89.680957051,55.0419884488 L 88.9032107386,40.697301777 L 83.1075599263,27.5525173855 L 73.0415527402,17.3031064576 L 60.0035463544,11.2710823759 L 45.675239263,10.2344817138 L 31.9047585297,14.3270097114 L 20.4682803601,23.0207943944 L 12.8409312073,35.1944737864 L 10.0065195774,49.27783403 L 12.3306401501,63.454342366 L 19.5135177949,75.8954513913 L 30.6286738645,84.9964530167 L 44.242427421,89.5834606622 L 58.5988176084,89.0648222284 L 71.8460950837,83.5074339452 L 82.275568662,73.6281118066 L 88.5419997008,60.7011335412 L 89.8371168026,46.3938767555 L 85.9938701583,32.5517533538 L 77.5079783541,20.9601803231 L 65.4739884432,13.114288923 L 51.4440965292,10.0260761844 L 37.2279387946,12.0938731527 L 24.6591767936,19.0509664251 L 15.3589838486,30.0 L 10.5269390983,43.5287201379 L 10.7863005884,57.8921339611 L 16.1036147514,71.2375861876 L 25.7930313922,81.8437226282 L 38.6047676155,88.3425178999 L 52.886310232,89.8957292607 L 66.7955640624,86.3030167868 L 78.5384533463,78.0277840829 L 86.600329399,66.1374064796 L 89.941336554,52.1655563434 L 88.1305372483,37.9143833772 L 81.4014962137,25.2220655514 L 70.6221542871,15.7257129533 L 57.1828776448,10.6502062427 L 42.8171223552,10.6502062427 L 29.3778457129,15.7257129533 L 18.5985037863,25.2220655514 L 11.8694627517,37.9143833772 L 10.058663446,52.1655563434 L 13.399670601,66.1374064796 L 21.4615466537,78.0277840829 L 33.2044359376,86.3030167868 L 47.113689768,89.8957292607 L 61.3952323845,88.3425178999 L 74.2069686078,81.8437226282 L 83.8963852486,71.2375861876 L 89.2136994116,57.8921339611 L 89.4730609017,43.5287201379 L 84.6410161514,30.0 L 75.3408232064,19.0509664251 L 62.7720612054,12.0938731527 L 48.5559034708,10.0260761844 L 34.5260115568,13.114288923 L 22.4920216459,20.9601803231 L 14.0061298417,32.5517533538 L 10.1628831974,46.3938767555 L 11.4580002992,60.7011335412 L 17.724431338,73.6281118066 L 28.1539049163,83.5074339452 L 41.4011823916,89.0648222284 L 55.757572579,89.5834606622 L 69.3713261355,84.9964530167 L 80.4864822051,75.8954513913 L 87.6693598499,63.454342366 L 89.9934804226,49.27783403 L 87.1590687927,35.1944737864 L 79.5317196399,23.0207943944 L 68.0952414703,14.3270097114 L 54.324760737,10.2344817138 L 39.9964536456,11.2710823759 L 26.9584472598,17.3031064576 L 16.8924400737,27.5525173855 L 11.0967892614,40.697301777 L 10.319042949,55.0419884488 L 14.6595182222,68.736337628 L 23.5583617939,80.0139928863 L 35.8677623048,87.420313437 L 50.0,90.0Z" fill="none" stroke="black" stroke-width="0.1" transform="matrix(1 0 0 -1 0 100)"/>
</svg>
