<?xml version="1.0" ?>
<svg height="100" width="100">
  <metadata>
    <rdf:RDF xmlns:cc="http://web.resource.org/cc/" xmlns:dc="http://purl.org/dc/elements/1.1/" xmlns:rdf="http://www.w3.org/1999/02/22-rdf-syntax-ns#">
      <cc:Work rdf:about="">
        <dc:title>gramastar</dc:title>
        <dc:description></dc:description>
        <dc:subject>
          <rdf:Bag>
            <rdf:li>stars</rdf:li>
            <rdf:li>shapes</rdf:li>
            <rdf:li>magick</rdf:li>
            <rdf:li>geometry</rdf:li>
          </rdf:Bag>
        </dc:subject>
        <dc:publisher>
          <cc:Agent rdf:about="http://www.openclipart.org/">
            <dc:title>Open Clip Art Library</dc:title>
          </cc:Agent>
        </dc:publisher>
        <dc:creator>
          <cc:Agent>
            <dc:title>codifiedivining</dc:title>
          </cc:Agent>
        </dc:creator>
        <dc:rights>
          <cc:Agent>
            <dc:title>codifiedivining</dc:title>
          </cc:Agent>
        </dc:rights>
        <dc:date></dc:date>
        <dc:format>image/svg+xml</dc:format>
        <dc:type rdf:resource="http://purl.org/dc/dcmitype/StillImage"/>
        <cc:license rdf:resource="http://web.resource.org/cc/PublicDomain"/>
        <dc:language>en</dc:language>
      </cc:Work>
      <cc:License rdf:about="http://web.resource.org/cc/PublicDomain">
        <cc:permits rdf:resource="http://web.resource.org/cc/Reproduction"/>
        <cc:permits rdf:resource="http://web.resource.org/cc/Distribution"/>
        <cc:permits rdf:resource="http://web.resource.org/cc/DerivativeWorks"/>
      </cc:License>
    </rdf:RDF>
  </metadata>
  <path d="M 50.0,90.0 L 58.1382405221,89.1633635073 L 65.9360435938,86.6884520602 L 73.0672128846,82.6787957204 L 79.2334385711,77.3021257287 L 84.1767761819,70.7833580014 L 87.6904368848,63.3951844868 L 89.6274378415,55.4466659638 L 89.9067507676,47.2703034654 L 88.5166914939,39.2081291537 L 85.5154087361,31.5973984908 L 81.0284516282,24.756482227 L 75.243517773,18.9715483718 L 68.4026015092,14.4845912639 L 60.7918708463,11.4833085061 L 52.7296965346,10.0932492324 L 44.5533340362,10.3725621585 L 36.6048155132,12.3095631152 L 29.2166419986,15.8232238181 L 22.6978742713,20.7665614289 L 17.3212042796,26.9327871154 L 13.3115479398,34.0639564062 L 10.8366364927,41.8617594779 L 10.0,50.0 L 10.8366364927,58.1382405221 L 13.3115479398,65.9360435938 L 17.3212042796,73.0672128846 L 22.6978742713,79.2334385711 L 29.2166419986,84.1767761819 L 36.6048155132,87.6904368848 L 44.5533340362,89.6274378415 L 52.7296965346,89.9067507676 L 60.7918708463,88.5166914939 L 68.4026015092,85.5154087361 L 75.243517773,81.0284516282 L 81.0284516282,75.243517773 L 85.5154087361,68.4026015092 L 88.5166914939,60.7918708463 L 89.9067507676,52.7296965346 L 89.6274378415,44.5533340362 L 87.6904368848,36.6048155132 L 84.1767761819,29.2166419986 L 79.2334385711,22.6978742713 L 73.0672128846,17.3212042796 L 65.9360435938,13.3115479398 L 58.1382405221,10.8366364927 L 50.0,10.0 L 41.8617594779,10.8366364927 L 34.0639564062,13.3115479398 L 26.9327871154,17.3212042796 L 20.7665614289,22.6978742713 L 15.8232238181,29.2166419986 L 12.3095631152,36.6048155132 L 10.3725621585,44.5533340362 L 10.0932492324,52.7296965346 L 11.4833085061,60.7918708463 L 14.4845912639,68.4026015092 L 18.9715483718,75.243517773 L 24.756482227,81.0284516282 L 31.5973984908,85.5154087361 L 39.2081291537,88.5166914939 L 47.2703034654,89.9067507676 L 55.4466659638,89.6274378415 L 63.3951844868,87.6904368848 L 70.7833580014,84.1767761819 L 77.3021257287,79.2334385711 L 82.6787957204,73.0672128846 L 86.6884520602,65.9360435938 L 89.1633635073,58.1382405221 L 90.0,50.0 L 89.1633635073,41.8617594779 L 86.6884520602,34.0639564062 L 82.6787957204,26.9327871154 L 77.3021257287,20.7665614289 L 70.7833580014,15.8232238181 L 63.3951844868,12.3095631152 L 55.4466659638,10.3725621585 L 47.2703034654,10.0932492324 L 39.2081291537,11.4833085061 L 31.5973984908,14.4845912639 L 24.756482227,18.9715483718 L 18.9715483718,24.756482227 L 14.4845912639,31.5973984908 L 11.4833085061,39.2081291537 L 10.0932492324,47.2703034654 L 10.3725621585,55.4466659638 L 12.3095631152,63.3951844868 L 15.8232238181,70.7833580014 L 20.7665614289,77.3021257287 L 26.9327871154,82.6787957204 L 34.0639564062,86.6884520602 L 41.8617594779,89.1633635073 L 50.0,90.0Z" fill="none" stroke="black" stroke-width="0.1" transform="matrix(1 0 0 -1 0 100)"/>
</svg>
