<?xml version="1.0" encoding="UTF-8" standalone="no"?>
<!-- Generator: Adobe Illustrator 12.0.0, SVG Export Plug-In . SVG Version: 6.00 Build 51448)  --><svg height="137.112" id="Layer_1" inkscape:version="0.42" sodipodi:docbase="F:\openclip\svg da inviare" sodipodi:docname="pulsante01.svg" sodipodi:version="0.32" space="preserve" style="overflow:visible;enable-background:new 0 0 137.152 137.112;" version="1.1" viewBox="0 0 137.152 137.112" width="137.152" xmlns="http://www.w3.org/2000/svg" xmlns:cc="http://web.resource.org/cc/" xmlns:dc="http://purl.org/dc/elements/1.1/" xmlns:inkscape="http://www.inkscape.org/namespaces/inkscape" xmlns:rdf="http://www.w3.org/1999/02/22-rdf-syntax-ns#" xmlns:sodipodi="http://inkscape.sourceforge.net/DTD/sodipodi-0.dtd" xmlns:svg="http://www.w3.org/2000/svg">
  <metadata>
    <rdf:RDF xmlns:cc="http://web.resource.org/cc/" xmlns:dc="http://purl.org/dc/elements/1.1/" xmlns:rdf="http://www.w3.org/1999/02/22-rdf-syntax-ns#">
      <cc:Work rdf:about="">
        <dc:title>Pulsante 01</dc:title>
        <dc:description></dc:description>
        <dc:subject>
          <rdf:Bag>
            <rdf:li>button</rdf:li>
          </rdf:Bag>
        </dc:subject>
        <dc:publisher>
          <cc:Agent rdf:about="http://www.openclipart.org/">
            <dc:title>Open Clip Art Library</dc:title>
          </cc:Agent>
        </dc:publisher>
        <dc:creator>
          <cc:Agent>
            <dc:title>Architetto Francesco Rollandin</dc:title>
          </cc:Agent>
        </dc:creator>
        <dc:rights>
          <cc:Agent>
            <dc:title>Architetto Francesco Rollandin</dc:title>
          </cc:Agent>
        </dc:rights>
        <dc:date></dc:date>
        <dc:format>image/svg+xml</dc:format>
        <dc:type rdf:resource="http://purl.org/dc/dcmitype/StillImage"/>
        <cc:license rdf:resource="http://web.resource.org/cc/PublicDomain"/>
        <dc:language>en</dc:language>
      </cc:Work>
      <cc:License rdf:about="http://web.resource.org/cc/PublicDomain">
        <cc:permits rdf:resource="http://web.resource.org/cc/Reproduction"/>
        <cc:permits rdf:resource="http://web.resource.org/cc/Distribution"/>
        <cc:permits rdf:resource="http://web.resource.org/cc/DerivativeWorks"/>
      </cc:License>
    </rdf:RDF>
  </metadata>
  <defs id="defs23"/>
  <sodipodi:namedview bordercolor="#666666" borderopacity="1.0" id="base" inkscape:current-layer="Layer_1" inkscape:cx="68.575996" inkscape:cy="68.556000" inkscape:pageopacity="0.0" inkscape:pageshadow="2" inkscape:window-height="510" inkscape:window-width="787" inkscape:window-x="88" inkscape:window-y="116" inkscape:zoom="2.6255908" pagecolor="#ffffff"/>
  <g id="g3">
    <path d="M0,68.534c0,34.94,27.408,65.096,62.231,68.297c34.835,3.203,67.432-21.293,73.804-55.743   c6.371-34.441-15.125-69.137-48.881-78.603C53.388-6.983,16.901,11.401,4.449,44.178C1.5,51.941,0,60.23,0,68.534" id="path5" style="fill:#5471AF;"/>
    <radialGradient cx="68.5908" cy="68.5327" gradientUnits="userSpaceOnUse" id="XMLID_2_" r="63.7393">
      <stop id="stop8" offset="0" style="stop-color:#D4E4F7"/>
      <stop id="stop10" offset="1" style="stop-color:#7FB5F7"/>
    </radialGradient>
    <path d="M4.852,68.534c0,34.735,29.003,63.738,63.739,63.738c34.736,0,63.739-29.003,63.739-63.738   c0-34.737-29.003-63.74-63.739-63.74C33.855,4.793,4.852,33.797,4.852,68.534" id="path12" style="fill:url(#XMLID_2_);"/>
    <path d="M10.998,43.758c-5.15,30.017,12.779,60.171,41.609,69.994c30.578,10.419,64.985-4.98,77.773-34.598   c-6.145,35.844-43,59.406-78.116,49.93C16.007,119.299-3.945,78.33,10.998,43.758" id="path14" style="fill:#68A0F2;"/>
    <path d="M28.78,40.238c8.816,1.823,18.965-10.664,26.607-13.841c14.279-5.936,32.116-3.18,45.053,4.903   c13.684,8.549,23.416,24.971,24.913,41.092c0.005,0.046,0.005,0.055,0.001,0.024c-1.01-9.762-0.328-18.938-4.046-28.375   c-6.159-15.641-19.479-27.888-35.539-32.809c-16.606-5.086-34.765-1.85-49.07,7.845C32.282,22.073,15.279,37.443,28.78,40.238" id="path16" style="fill:#B3E7FC;"/>
    <path d="M84.338,37.689c0,17.728,0,35.454,0,53.182c0,5.415,2.223,15.479-5.697,15.859   c-6.665,0.323-14.2-8.519-18.897-12.226c-7.781-6.136-15.562-12.271-23.344-18.409c-7.498-5.913-1.943-10.303,3.605-14.696   c8.359-6.618,16.719-13.239,25.078-19.858c2.691-2.131,5.381-4.262,8.072-6.392C75.861,33.005,84.338,32.667,84.338,37.689" id="path18" style="fill:#FFFFFF;"/>
    <path d="M72.999,34.119C60.151,44.292,47.305,54.464,34.458,64.637c-7.945,6.292,0.956,11.834,5.87,15.706   c8.696,6.859,17.394,13.72,26.09,20.578c2.133,1.68,4.265,3.361,6.397,5.044c3.913,3.087,12.427,2.059,12.427-4.063   c0-7.205,0-14.411,0-21.616c0-10.845,0-21.69,0-32.535c0-3.113,0-6.226,0-9.339C85.242,32.751,76.912,31.019,72.999,34.119    M74.121,104.692c-12.718-10.03-25.437-20.06-38.153-30.088c-6.768-5.34,1.228-9.827,5.482-13.196   c8.387-6.641,16.775-13.284,25.165-19.926c2.367-1.875,4.734-3.751,7.102-5.625c2.272-1.8,9.718-2.276,9.718,2.018   c0,7.205,0,14.411,0,21.616c0,10.459,0,20.92,0,31.38c0,3.207,0,6.416,0,9.625C83.434,105.157,78.133,107.875,74.121,104.692" id="path20" style="fill:#5471AF;"/>
  </g>
</svg>
