<?xml version="1.0" encoding="UTF-8" standalone="no"?>
<!DOCTYPE svg PUBLIC "-//W3C//DTD SVG 20010904//EN"
"http://www.w3.org/TR/2001/REC-SVG-20010904/DTD/svg10.dtd"
[
 <!ATTLIST svg
  xmlns:xlink CDATA #FIXED "http://www.w3.org/1999/xlink">
]>
<!-- Created with Sodipodi ("http://www.sodipodi.com/") --><svg height="708.661" id="svg378" version="1" width="1062.99" x="0" xmlns="http://www.w3.org/2000/svg" xmlns:xlink="http://www.w3.org/1999/xlink" y="0">
  <metadata>
    <rdf:RDF xmlns:cc="http://web.resource.org/cc/" xmlns:dc="http://purl.org/dc/elements/1.1/" xmlns:rdf="http://www.w3.org/1999/02/22-rdf-syntax-ns#">
      <cc:Work rdf:about="">
        <dc:title>Clipart by Lauris Kaplinski - European Union</dc:title>
        <dc:description></dc:description>
        <dc:subject>
          <rdf:Bag>
            <rdf:li>miscellany</rdf:li>
            <rdf:li></rdf:li>
            <rdf:li>organizations</rdf:li>
            <rdf:li>europe</rdf:li>
            <rdf:li>flag</rdf:li>
            <rdf:li>sign</rdf:li>
          </rdf:Bag>
        </dc:subject>
        <dc:publisher>
          <cc:Agent rdf:about="http://www.openclipart.org">
            <dc:title>Lauris Kaplinski</dc:title>
          </cc:Agent>
        </dc:publisher>
        <dc:creator>
          <cc:Agent>
            <dc:title>Lauris Kaplinski</dc:title>
          </cc:Agent>
        </dc:creator>
        <dc:rights>
          <cc:Agent>
            <dc:title>Lauris Kaplinski</dc:title>
          </cc:Agent>
        </dc:rights>
        <dc:date></dc:date>
        <dc:format>image/svg+xml</dc:format>
        <dc:type rdf:resource="http://purl.org/dc/dcmitype/StillImage"/>
        <cc:license rdf:resource="http://web.resource.org/cc/PublicDomain"/>
        <dc:language>en</dc:language>
      </cc:Work>
      <cc:License rdf:about="http://web.resource.org/cc/PublicDomain">
        <cc:permits rdf:resource="http://web.resource.org/cc/Reproduction"/>
        <cc:permits rdf:resource="http://web.resource.org/cc/Distribution"/>
        <cc:permits rdf:resource="http://web.resource.org/cc/DerivativeWorks"/>
      </cc:License>
    </rdf:RDF>
  </metadata>
  <defs id="defs380"/>
  <rect height="708.661" id="rect171" style="font-size:12;fill:#0000a9;fill-rule:evenodd;stroke-width:1pt;" width="1062.99" x="0" y="0"/>
  <polygon id="polygon147" points="266.186,534.45 255.778,527.018 245.421,534.523 249.273,522.327 238.935,514.796 251.725,514.691 255.692,502.532 259.744,514.663 272.534,514.679 262.249,522.281 266.186,534.45 " style="font-size:12;fill:#fcde00;fill-rule:evenodd;stroke-width:0.524368;" transform="matrix(2.33688,0,0,2.33688,-67.7124,-1095.08)"/>
  <polygon id="polygon160" points="266.186,534.45 255.778,527.018 245.421,534.523 249.273,522.327 238.935,514.796 251.725,514.691 255.692,502.532 259.744,514.663 272.534,514.679 262.249,522.281 266.186,534.45 " style="font-size:12;fill:#fcde00;fill-rule:evenodd;stroke-width:0.524368;" transform="matrix(2.33688,0,0,2.33688,-186.879,-1062.91)"/>
  <polygon id="polygon161" points="266.186,534.45 255.778,527.018 245.421,534.523 249.273,522.327 238.935,514.796 251.725,514.691 255.692,502.532 259.744,514.663 272.534,514.679 262.249,522.281 266.186,534.45 " style="font-size:12;fill:#fcde00;fill-rule:evenodd;stroke-width:0.524368;" transform="matrix(2.33688,0,0,2.33688,48.5295,-1063.64)"/>
  <polygon id="polygon162" points="266.186,534.45 255.778,527.018 245.421,534.523 249.273,522.327 238.935,514.796 251.725,514.691 255.692,502.532 259.744,514.663 272.534,514.679 262.249,522.281 266.186,534.45 " style="font-size:12;fill:#fcde00;fill-rule:evenodd;stroke-width:0.524368;" transform="matrix(2.33688,0,0,2.33688,134.797,-975.914)"/>
  <polygon id="polygon163" points="266.186,534.45 255.778,527.018 245.421,534.523 249.273,522.327 238.935,514.796 251.725,514.691 255.692,502.532 259.744,514.663 272.534,514.679 262.249,522.281 266.186,534.45 " style="font-size:12;fill:#fcde00;fill-rule:evenodd;stroke-width:0.524368;" transform="matrix(2.33688,0,0,2.33688,166.965,-858.21)"/>
  <polygon id="polygon164" points="266.186,534.45 255.778,527.018 245.421,534.523 249.273,522.327 238.935,514.796 251.725,514.691 255.692,502.532 259.744,514.663 272.534,514.679 262.249,522.281 266.186,534.45 " style="font-size:12;fill:#fcde00;fill-rule:evenodd;stroke-width:0.524368;" transform="matrix(2.33688,0,0,2.33688,134.797,-739.774)"/>
  <polygon id="polygon165" points="266.186,534.45 255.778,527.018 245.421,534.523 249.273,522.327 238.935,514.796 251.725,514.691 255.692,502.532 259.744,514.663 272.534,514.679 262.249,522.281 266.186,534.45 " style="font-size:12;fill:#fcde00;fill-rule:evenodd;stroke-width:0.524368;" transform="matrix(2.33688,0,0,2.33688,47.798,-653.507)"/>
  <polygon id="polygon166" points="266.186,534.45 255.778,527.018 245.421,534.523 249.273,522.327 238.935,514.796 251.725,514.691 255.692,502.532 259.744,514.663 272.534,514.679 262.249,522.281 266.186,534.45 " style="font-size:12;fill:#fcde00;fill-rule:evenodd;stroke-width:0.524368;" transform="matrix(2.33688,0,0,2.33688,-68.4439,-622.07)"/>
  <polygon id="polygon167" points="266.186,534.45 255.778,527.018 245.421,534.523 249.273,522.327 238.935,514.796 251.725,514.691 255.692,502.532 259.744,514.663 272.534,514.679 262.249,522.281 266.186,534.45 " style="font-size:12;fill:#fcde00;fill-rule:evenodd;stroke-width:0.524368;" transform="matrix(2.33688,0,0,2.33688,-187.61,-654.238)"/>
  <polygon id="polygon168" points="266.186,534.45 255.778,527.018 245.421,534.523 249.273,522.327 238.935,514.796 251.725,514.691 255.692,502.532 259.744,514.663 272.534,514.679 262.249,522.281 266.186,534.45 " style="font-size:12;fill:#fcde00;fill-rule:evenodd;stroke-width:0.524368;" transform="matrix(2.33688,0,0,2.33688,-272.416,-740.505)"/>
  <polygon id="polygon169" points="266.186,534.45 255.778,527.018 245.421,534.523 249.273,522.327 238.935,514.796 251.725,514.691 255.692,502.532 259.744,514.663 272.534,514.679 262.249,522.281 266.186,534.45 " style="font-size:12;fill:#fcde00;fill-rule:evenodd;stroke-width:0.524368;" transform="matrix(2.33688,0,0,2.33688,-303.852,-859.671)"/>
  <polygon id="polygon170" points="266.186,534.45 255.778,527.018 245.421,534.523 249.273,522.327 238.935,514.796 251.725,514.691 255.692,502.532 259.744,514.663 272.534,514.679 262.249,522.281 266.186,534.45 " style="font-size:12;fill:#fcde00;fill-rule:evenodd;stroke-width:0.524368;" transform="matrix(2.33688,0,0,2.33688,-270.222,-978.838)"/>
</svg>
