<?xml version="1.0" encoding="UTF-8" standalone="no"?>
<!DOCTYPE svg PUBLIC "-//W3C//DTD SVG 1.0//EN"
"http://www.w3.org/TR/2001/REC-SVG-20010904/DTD/svg10.dtd">
<!-- Created with Sodipodi ("http://www.sodipodi.com/") --><svg height="297mm" id="svg1055" sodipodi:docbase="/home/franck/Dessins/Vectoriels" sodipodi:docname="/home/franck/Dessins/Vectoriels/biberon.svg" sodipodi:version="0.34" space="preserve" width="210mm" xmlns="http://www.w3.org/2000/svg" xmlns:sodipodi="http://sodipodi.sourceforge.net/DTD/sodipodi-0.dtd" xmlns:xlink="http://www.w3.org/1999/xlink">
  <metadata>
    <rdf:RDF xmlns:cc="http://web.resource.org/cc/" xmlns:dc="http://purl.org/dc/elements/1.1/" xmlns:rdf="http://www.w3.org/1999/02/22-rdf-syntax-ns#">
      <cc:Work rdf:about="">
        <dc:title>flower-pot</dc:title>
        <dc:description></dc:description>
        <dc:subject>
          <rdf:Bag>
            <rdf:li>hash</rdf:li>
            <rdf:li>houseplant</rdf:li>
            <rdf:li></rdf:li>
            <rdf:li>food</rdf:li>
            <rdf:li>beverage</rdf:li>
          </rdf:Bag>
        </dc:subject>
        <dc:publisher>
          <cc:Agent rdf:about="http://www.openclipart.org">
            <dc:title>Franck Doucet</dc:title>
          </cc:Agent>
        </dc:publisher>
        <dc:creator>
          <cc:Agent>
            <dc:title>Franck Doucet</dc:title>
          </cc:Agent>
        </dc:creator>
        <dc:rights>
          <cc:Agent>
            <dc:title>Franck Doucet</dc:title>
          </cc:Agent>
        </dc:rights>
        <dc:date></dc:date>
        <dc:format>image/svg+xml</dc:format>
        <dc:type rdf:resource="http://purl.org/dc/dcmitype/StillImage"/>
        <cc:license rdf:resource="http://web.resource.org/cc/PublicDomain"/>
        <dc:language>en</dc:language>
      </cc:Work>
      <cc:License rdf:about="http://web.resource.org/cc/PublicDomain">
        <cc:permits rdf:resource="http://web.resource.org/cc/Reproduction"/>
        <cc:permits rdf:resource="http://web.resource.org/cc/Distribution"/>
        <cc:permits rdf:resource="http://web.resource.org/cc/DerivativeWorks"/>
      </cc:License>
    </rdf:RDF>
  </metadata>
  <defs id="defs1057">
    <linearGradient id="linearGradient1111">
      <stop id="stop1112" offset="0" style="stop-color:#65521d;stop-opacity:1;"/>
      <stop id="stop1113" offset="1" style="stop-color:#ffcd8a;stop-opacity:1;"/>
    </linearGradient>
    <linearGradient id="linearGradient1107">
      <stop id="stop1108" offset="0" style="stop-color:#9d9dba;stop-opacity:0.2784;"/>
      <stop id="stop1109" offset="1" style="stop-color:#ffffff;stop-opacity:0.8118;"/>
    </linearGradient>
    <linearGradient id="linearGradient1071">
      <stop id="stop1072" offset="0" style="stop-color:#ff6f00;stop-opacity:1;"/>
      <stop id="stop1073" offset="1" style="stop-color:#ffffb5;stop-opacity:1;"/>
    </linearGradient>
    <linearGradient id="linearGradient1074" xlink:href="#linearGradient1071"/>
    <linearGradient id="linearGradient1075" xlink:href="#linearGradient1071"/>
    <linearGradient id="linearGradient1076" xlink:href="#linearGradient1071"/>
    <linearGradient id="linearGradient1077" xlink:href="#linearGradient1071"/>
    <linearGradient id="linearGradient1078" xlink:href="#linearGradient1071"/>
    <linearGradient id="linearGradient1079" xlink:href="#linearGradient1071"/>
    <linearGradient id="linearGradient1080" xlink:href="#linearGradient1071"/>
    <linearGradient id="linearGradient1081" xlink:href="#linearGradient1071"/>
    <linearGradient id="linearGradient1082" xlink:href="#linearGradient1071"/>
    <linearGradient id="linearGradient1106" spreadMethod="reflect" x1="-9.61537212e-2" x2="0.61538476" xlink:href="#linearGradient1107" y1="0.57813025" y2="0.59375012"/>
    <linearGradient id="linearGradient1110" x1="-1.31049561e-7" x2="0.99999994" xlink:href="#linearGradient1111" y1="6.7301869e-8" y2="6.7301869e-8"/>
    <radialGradient cx="0.21565154" cy="0.89844221" fx="0.21565154" fy="0.89844221" id="radialGradient1114" r="1.25663424" xlink:href="#linearGradient1111"/>
  </defs>
  <sodipodi:namedview id="base"/>
  <path d="M 267.3242 641.2579 L 267.3242 918.1675 C 267.3242 931.1482 277.7743 941.5983 290.755 941.5983 C 326.9663 934.1431 381.2832 934.143 421.7546 941.5983 C 434.7352 941.5983 445.1854 931.1482 445.1854 918.1675 L 445.1854 641.2579 C 445.1854 628.2773 267.3242 628.2773 267.3242 641.2579 z " id="path1132" sodipodi:nodetypes="ccccccc" style="font-size:12;fill:#ffffff;fill-rule:evenodd;fill-opacity:1;"/>
  <path d="M 281.4046 495.1694 C 267.7383 494.2009 259.6166 572.0444 259.6166 590.5526 L 259.6166 921.9729 C 259.6166 940.481 274.5167 955.3811 293.0249 955.3811 L 419.9766 955.3811 C 438.4848 955.3811 453.3849 940.481 453.3849 921.9729 L 453.3849 587.6475 C 453.3849 570.0822 444.295 496.1377 430.6286 496.1377 C 420.6948 496.1377 412.6979 485.4857 412.4477 472.8971 L 302.4907 472.8972 C 301.9177 487.4225 294.5663 495.1694 281.4046 495.1694 z " id="path1104" sodipodi:nodetypes="csccccscccc" style="font-size:12;fill:url(#linearGradient1106);fill-rule:evenodd;"/>
  <path d="M 418.6327 406.8921 C 411.5024 459.284 303.374 460.1487 296.6923 409.3977 C 296.6923 374.3681 331.0416 367.2934 337.5945 346.7357 C 344.1473 326.1779 333.7615 320.534 333.6585 312.5872 C 335.1104 296.8309 344.3102 290.7982 361.8385 290.7982 C 379.3669 290.7982 388.5338 297.6004 388.3481 313.4225 C 387.4099 322.2045 376.1888 328.6835 381.9065 349.2413 C 387.6242 369.799 422.3146 376.2488 418.6327 406.8921 z " id="path1061" sodipodi:nodetypes="ccsscsss" style="font-size:12;fill:url(#radialGradient1114);fill-rule:evenodd;stroke-width:1;"/>
  <g id="g1092" transform="matrix(0.896089,0,0,1,37.55206,-4.066956)">
    <rect height="72.7235724" id="rect1059" ry="12.1205951" style="font-size:12;fill:url(#linearGradient1074);fill-rule:evenodd;fill-opacity:1;" width="173.723297" x="270.607422" y="420.94484"/>
    <g id="g1083" transform="matrix(1,0,0,1.173076,0,-73.86958)">
      <path d="M 299.2224 451.9807 A 4.357605 25.17729 0 1 0 290.5071 451.9807 A 4.357605 25.17729 0 1 0  299.2224 451.9807 z" id="path1062" sodipodi:cx="294.864746" sodipodi:cy="451.980713" sodipodi:rx="4.35760498" sodipodi:ry="25.1772919" sodipodi:type="arc" style="fill-rule:evenodd;stroke:none;fill:url(#linearGradient1075);fill-opacity:1;stroke-opacity:1;stroke-width:1pt;stroke-linejoin:miter;stroke-linecap:butt;" transform="translate(137.5067,-3.051758e-5)"/>
      <path d="M 299.2224 451.9807 A 4.357605 25.17729 0 1 0 290.5071 451.9807 A 4.357605 25.17729 0 1 0  299.2224 451.9807 z" id="path1063" sodipodi:cx="294.864746" sodipodi:cy="451.980713" sodipodi:rx="4.35760498" sodipodi:ry="25.1772919" sodipodi:type="arc" style="fill-rule:evenodd;stroke:none;fill:url(#linearGradient1076);fill-opacity:1;stroke-opacity:1;stroke-width:1pt;stroke-linejoin:miter;stroke-linecap:butt;" transform="translate(119.1079,-3.051758e-5)"/>
      <path d="M 299.2224 451.9807 A 4.357605 25.17729 0 1 0 290.5071 451.9807 A 4.357605 25.17729 0 1 0  299.2224 451.9807 z" id="path1064" sodipodi:cx="294.864746" sodipodi:cy="451.980713" sodipodi:rx="4.35760498" sodipodi:ry="25.1772919" sodipodi:type="arc" style="fill-rule:evenodd;stroke:none;fill:url(#linearGradient1077);fill-opacity:1;stroke-opacity:1;stroke-width:1pt;stroke-linejoin:miter;stroke-linecap:butt;" transform="translate(96.83572,1.220703e-4)"/>
      <path d="M 299.2224 451.9807 A 4.357605 25.17729 0 1 0 290.5071 451.9807 A 4.357605 25.17729 0 1 0  299.2224 451.9807 z" id="path1065" sodipodi:cx="294.864746" sodipodi:cy="451.980713" sodipodi:rx="4.35760498" sodipodi:ry="25.1772919" sodipodi:type="arc" style="fill-rule:evenodd;stroke:none;fill:url(#linearGradient1078);fill-opacity:1;stroke-opacity:1;stroke-width:1pt;stroke-linejoin:miter;stroke-linecap:butt;" transform="translate(67.78501,4.577637e-5)"/>
      <path d="M 299.2224 451.9807 A 4.357605 25.17729 0 1 0 290.5071 451.9807 A 4.357605 25.17729 0 1 0  299.2224 451.9807 z" id="path1066" sodipodi:cx="294.864746" sodipodi:cy="451.980713" sodipodi:rx="4.35760498" sodipodi:ry="25.1772919" sodipodi:type="arc" style="fill-rule:evenodd;stroke:none;fill:url(#linearGradient1079);fill-opacity:1;stroke-opacity:1;stroke-width:1pt;stroke-linejoin:miter;stroke-linecap:butt;" transform="translate(39.70266,-3.051758e-5)"/>
      <path d="M 299.2224 451.9807 A 4.357605 25.17729 0 1 0 290.5071 451.9807 A 4.357605 25.17729 0 1 0  299.2224 451.9807 z" id="path1067" sodipodi:cx="294.864746" sodipodi:cy="451.980713" sodipodi:rx="4.35760498" sodipodi:ry="25.1772919" sodipodi:type="arc" style="fill-rule:evenodd;stroke:none;fill:url(#linearGradient1080);fill-opacity:1;stroke-opacity:1;stroke-width:1pt;stroke-linejoin:miter;stroke-linecap:butt;" transform="translate(14.52536,-3.051758e-5)"/>
      <path d="M 299.2224 451.9807 A 4.357605 25.17729 0 1 0 290.5071 451.9807 A 4.357605 25.17729 0 1 0  299.2224 451.9807 z" id="path1068" sodipodi:cx="294.864746" sodipodi:cy="451.980713" sodipodi:rx="4.35760498" sodipodi:ry="25.1772919" sodipodi:type="arc" style="fill-rule:evenodd;stroke:none;fill:url(#linearGradient1081);fill-opacity:1;stroke-opacity:1;stroke-width:1pt;stroke-linejoin:miter;stroke-linecap:butt;" transform="translate(-5.810165,-3.051758e-5)"/>
      <path d="M 299.2224 451.9807 A 4.357605 25.17729 0 1 0 290.5071 451.9807 A 4.357605 25.17729 0 1 0  299.2224 451.9807 z" id="path1069" sodipodi:cx="294.864746" sodipodi:cy="451.980713" sodipodi:rx="4.35760498" sodipodi:ry="25.1772919" sodipodi:type="arc" style="fill-rule:evenodd;stroke:none;fill:url(#linearGradient1082);fill-opacity:1;stroke-opacity:1;stroke-width:1pt;stroke-linejoin:miter;stroke-linecap:butt;" transform="translate(-23.24057,-3.051758e-5)"/>
    </g>
  </g>
  <path d="M 300.8729 610.3719 L 314.1859 610.3719 M 301.4054 667.8839 L 314.1858 667.8839 M 301.938 725.3958 L 314.1859 725.3958 M 301.938 783.4403 L 314.1859 783.4403 M 301.938 840.4198 L 314.7184 840.4198 M 314.1859 552.3273 L 300.8729 552.3653 L 302.2042 898.1978 L 316.3159 897.8747 " id="path1129" style="font-size:12;fill:none;fill-rule:evenodd;stroke:#000000;stroke-width:2.5;stroke-dasharray:none;stroke-linecap:round;stroke-linejoin:round;"/>
</svg>
