<?xml version="1.0" encoding="UTF-8" standalone="no"?>
<!-- Generator: Adobe Illustrator 12.0.0, SVG Export Plug-In . SVG Version: 6.00 Build 51448)  --><svg height="136.638" id="Layer_1" inkscape:version="0.42" sodipodi:docbase="F:\openclip\svg da inviare" sodipodi:docname="ruotadentata04.svg" sodipodi:version="0.32" space="preserve" style="overflow:visible;enable-background:new 0 0 126.176 136.638;" version="1.1" viewBox="0 0 126.176 136.638" width="126.176" xmlns="http://www.w3.org/2000/svg" xmlns:cc="http://web.resource.org/cc/" xmlns:dc="http://purl.org/dc/elements/1.1/" xmlns:inkscape="http://www.inkscape.org/namespaces/inkscape" xmlns:rdf="http://www.w3.org/1999/02/22-rdf-syntax-ns#" xmlns:sodipodi="http://inkscape.sourceforge.net/DTD/sodipodi-0.dtd" xmlns:svg="http://www.w3.org/2000/svg">
  <metadata>
    <rdf:RDF xmlns:cc="http://web.resource.org/cc/" xmlns:dc="http://purl.org/dc/elements/1.1/" xmlns:rdf="http://www.w3.org/1999/02/22-rdf-syntax-ns#">
      <cc:Work rdf:about="">
        <dc:title>Ruota dentata 2</dc:title>
        <dc:description></dc:description>
        <dc:subject>
          <rdf:Bag>
            <rdf:li>unsorted</rdf:li>
          </rdf:Bag>
        </dc:subject>
        <dc:publisher>
          <cc:Agent rdf:about="http://www.openclipart.org/">
            <dc:title>Open Clip Art Library</dc:title>
          </cc:Agent>
        </dc:publisher>
        <dc:creator>
          <cc:Agent>
            <dc:title>Architetto Francesco Rollandin</dc:title>
          </cc:Agent>
        </dc:creator>
        <dc:rights>
          <cc:Agent>
            <dc:title>Architetto Francesco Rollandin</dc:title>
          </cc:Agent>
        </dc:rights>
        <dc:date></dc:date>
        <dc:format>image/svg+xml</dc:format>
        <dc:type rdf:resource="http://purl.org/dc/dcmitype/StillImage"/>
        <cc:license rdf:resource="http://web.resource.org/cc/PublicDomain"/>
        <dc:language>en</dc:language>
      </cc:Work>
      <cc:License rdf:about="http://web.resource.org/cc/PublicDomain">
        <cc:permits rdf:resource="http://web.resource.org/cc/Reproduction"/>
        <cc:permits rdf:resource="http://web.resource.org/cc/Distribution"/>
        <cc:permits rdf:resource="http://web.resource.org/cc/DerivativeWorks"/>
      </cc:License>
    </rdf:RDF>
  </metadata>
  <defs id="defs182"/>
  <sodipodi:namedview bordercolor="#666666" borderopacity="1.0" id="base" inkscape:current-layer="Layer_1" inkscape:cx="63.088001" inkscape:cy="68.319000" inkscape:pageopacity="0.0" inkscape:pageshadow="2" inkscape:window-height="510" inkscape:window-width="787" inkscape:window-x="88" inkscape:window-y="116" inkscape:zoom="2.6346990" pagecolor="#ffffff"/>
  <g id="g3">
    <g id="g5">
      <radialGradient cx="40.1895" cy="40.0386" gradientUnits="userSpaceOnUse" id="XMLID_9_" r="39.7476">
        <stop id="stop8" offset="0" style="stop-color:#FFFA5F"/>
        <stop id="stop10" offset="1" style="stop-color:#B53A00"/>
      </radialGradient>
      <path d="M75.554,34.021c-2.276,0-4.553,0.027-6.829,0.112c-0.542-2.69-1.499-5.292-2.812-7.7    c-0.675-1.238-1.904-1.868-0.712-2.955c0.817-0.742,1.614-1.499,2.405-2.266c1.534-1.484,4.518-3.664,3.053-6.103    c-1.456-2.42-5.768-7.489-8.824-5.3c-1.966,1.408-3.637,3.505-5.285,5.268c-1.109,1.191-6.079-2.019-7.94-2.585    c-1.383-0.422-2.669-0.005-2.585-1.65c0.061-1.145,0.091-2.295,0.11-3.443c0.029-1.766,0.526-4.638-0.967-6.007    c-1.626-1.49-7.904-1.317-9.775-0.355c-1.751,0.897-1.512,3.338-1.502,4.962c0.006,1.212,0.022,2.421,0.054,3.634    c0.045,1.748,0.608,1.887-1.297,2.326c-2.665,0.613-5.243,1.587-7.643,2.895c-1.635,0.891-1.323,0.469-2.458-0.749    c-1.08-1.159-2.185-2.29-3.303-3.409c-3.588-3.587-6.938,0.866-9.342,3.715c-1.482,1.756-0.86,3.437,0.659,4.958    c0.94,0.937,1.885,1.869,2.839,2.788c1.814,1.749,1.494,1.547,0.268,3.676c-1.272,2.204-2.236,4.583-2.856,7.05    c-0.538,2.143-4.221,1.138-6.315,1.138c-4.88,0-3.97,4.336-4.013,7.907c-0.059,5.062,4.037,4.401,8.065,4.328    c1.823-0.035,2.063-0.608,2.651,1.292c0.41,1.33,0.923,2.629,1.53,3.881c0.603,1.245,1.299,2.446,2.078,3.589    c1.181,1.734-0.103,1.912-1.475,3.219c-1.45,1.377-4.245,3.279-4.357,5.478c-0.093,1.836,1.97,3.238,3.11,4.376    c1.139,1.14,2.542,3.212,4.384,3.115c2.411-0.124,4.662-3.483,6.191-5.085c0.67-0.705,1.336-1.413,1.987-2.132    c1.457,0.819,2.987,1.518,4.56,2.083c1.611,0.579,3.271,1.021,4.955,1.323c-0.117,1.381-0.179,2.767-0.216,4.15    c-0.056,2.043-0.794,5.784,0.937,7.375c1.45,1.33,4.274,0.718,6.046,0.755c1.539,0.032,3.713,0.273,4.658-1.268    c1.423-2.325,0.567-6.595,0.474-9.202c-0.064-1.77-0.613-1.812,1.316-2.313c1.839-0.477,3.633-1.124,5.351-1.935    c2.115-0.996,2.126-1.662,3.718,0.104c1.083,1.199,2.2,2.366,3.335,3.518c1.744,1.772,3.65,3.677,5.99,1.703    c1.623-1.372,4.599-3.696,5.214-5.803c0.738-2.532-2.989-5.036-4.515-6.501c-1.354-1.296-2.863-1.679-1.729-3.405    c0.967-1.472,1.793-3.041,2.464-4.67c0.505-1.235,0.921-2.506,1.243-3.803c1.455,0.095,2.914,0.143,4.371,0.168    c2.102,0.035,5.828,0.633,6.562-2.087C80.377,40.481,80.532,34.021,75.554,34.021 M39.625,51.185    c-6.418,0-12.192-5.092-12.192-11.666c0-6.574,5.774-11.669,12.192-11.669c6.417,0,12.191,5.095,12.191,11.669    C51.816,46.093,46.042,51.185,39.625,51.185" id="path12" style="fill:url(#XMLID_9_);"/>
      <linearGradient gradientTransform="matrix(776.0099 550.007 550.007 -776.0099 -65411.4141 493075.9375)" gradientUnits="userSpaceOnUse" id="XMLID_10_" x1="-243.9702" x2="-243.0147" y1="462.6938" y2="462.6938">
        <stop id="stop15" offset="0" style="stop-color:#FFFFFF"/>
        <stop id="stop17" offset="1" style="stop-color:#000000"/>
      </linearGradient>
      <path d="M40.02,1.119c1.342-0.021,2.861-0.244,4.142,0.22c2.155,0.786,1.528,4.293,1.499,6.013    c-0.015,0.926-0.675,4.097-0.195,4.848c0.493,0.764,5.582,1.636,6.676,2.136c4.161,1.896,3.3,2.605,6.403-0.611    c1.61-1.667,4.146-5.481,6.721-3.489c1.604,1.245,5.959,5,5.183,7.001c-0.788,2.021-3.233,3.728-4.782,5.171    c-1.765,1.643-2.033,1.13-0.824,3.115c1.396,2.293,2.453,4.79,3.113,7.395c0.364,1.445-0.05,1.712,1.228,1.691    c2.456-0.041,6.228-0.781,8.56,0.242c2.126,0.935,1.368,5.531,1.345,7.574c-0.058,5.104-7.307,3.408-10.806,3.189    c0.094,0.007-4.102,8.96-4.795,9.93c-0.332,0.46,4.441,4.563,5.059,5.154c2.984,2.876,1.705,4.426-0.914,7.058    c-3.645,3.664-4.76,3.333-8.414-0.44c-1.295-1.342-2.573-2.708-3.769-4.137c-0.315-0.378-3.632,1.677-4.223,1.922    c-0.892,0.371-5.375,1.115-5.759,1.735c-0.604,0.979,0.188,4.836,0.202,6.026c0.057,5.148-0.54,6.328-5.647,6.328    c-1.347,0-2.843,0.249-4.131-0.22c-2.416-0.877-1.523-5.442-1.47-7.35c0.023-0.906,0.706-3.869,0.259-4.623    c-0.343-0.576-5.067-1.279-5.934-1.611c-0.475-0.183-4.083-2.118-4.256-1.937c-0.92,0.96-1.841,1.919-2.764,2.88    c-1.195,1.247-3.462,4.46-5.393,4.402c-1.694-0.028-6.012-4.56-6.7-6.104c-1.687-3.793,6.08-5.67,6.633-8.429    c0.026-0.129-5.966-10.475-5.188-10.486c-2.17,0.029-4.418,0.248-6.581,0.092c-4.209,0-3.547-3.653-3.52-6.762    c-0.095-4.463,2.185-4.571,5.932-4.494c1.292,0.025,2.581,0.053,3.873,0.076c0.268,0.007,1.407-4.579,1.641-5.162    c0.81-2.009,1.874-3.878,3.108-5.654c0.264-0.379-1.166-1.416-1.448-1.689c-2.031-1.977-6.291-4.753-3.534-7.726    c1.268-1.364,3.95-4.821,5.796-4.821c2.263,0,5.058,4.079,6.444,5.533c1.833,1.919,3.836-0.661,6.121-1.526    c2.382-0.901,5.611-0.221,5.563-2.985c-0.036-1.967-0.239-4.008-0.105-5.969C34.367,0.875,37.056,1.071,40.02,1.119 M42.078,0.134    c-2.227,0-5.925-0.664-7.59,0.958c-1.88,1.863-1.023,6.483-0.983,8.861c0.034,2.175-1.824,1.699-3.727,2.328    c-0.885,0.292-5.713,2.788-6.054,2.429c-1.747-1.838-4.048-5.273-6.618-5.98c-2.515-0.696-4.577,2.296-6.14,3.909    c-3.467,3.332-2.483,5.371,0.59,8.359c0.953,0.925,1.903,1.853,2.859,2.775c-1.529,2.237-2.735,4.69-3.561,7.271    c-0.822,2.569-0.415,2.617-2.984,2.568c-1.486-0.029-3.047-0.185-4.532,0.001c-3.906,0.49-3.292,4.373-3.316,7.35    c-0.037,4.914,1.913,5.847,6.39,5.778c1.352-0.022,2.703-0.047,4.055-0.064c0.674,2.526,1.708,4.952,3.061,7.191    c0.83,1.379,1.979,1.715,0.622,2.959c-0.965,0.884-1.914,1.789-2.851,2.707c-1.384,1.356-3.462,3.169-2.593,5.361    c0.708,1.791,4.79,5.876,6.581,6.586c2.8,1.109,5.344-2.629,6.999-4.35c0.824-0.857,1.642-1.717,2.473-2.566    c2.378,1.295,4.927,2.27,7.563,2.896c1.84,0.438,1.297,0.504,1.218,2.173c-0.056,1.128-0.086,2.257-0.105,3.385    c-0.035,2.094-0.559,5.532,1.759,6.699c1.868,0.94,5.77,0.588,7.905,0.426c4.973-0.383,3.567-7.174,3.451-10.605    c-0.056-1.669-0.584-1.798,1.212-2.28c1.28-0.346,2.54-0.774,3.764-1.279c1.223-0.506,2.414-1.09,3.563-1.75    c0.632,0.74,1.286,1.463,1.95,2.175c2.612,2.807,5.777,7.423,9.583,3.753c1.648-1.589,4.888-3.992,4.933-6.323    c0-2.49-3.372-4.814-4.993-6.371c-1.254-1.208-2.244-1.367-1.246-2.927c1.338-2.097,2.4-4.368,3.142-6.741    c1.148-3.671,10.582,2.029,11.5-4.033c0.328-2.165,0.641-7.604-0.873-9.139c-1.809-1.855-6.19-1.037-8.511-0.998    c-2.299,0.039-1.812-1.658-2.553-3.677c-0.678-1.845-3.457-5.239-2.072-6.511c3.829-3.514,7.837-6.313,3.14-10.799    c-1.571-1.618-3.624-4.599-6.147-3.913c-2.394,0.65-4.579,3.82-6.22,5.514c-1.487,1.538-2.457,0.018-4.272-0.802    c-1.594-0.718-6.008-1.318-5.93-2.949C46.717,6.265,47.925,0.134,42.078,0.134" id="path19" style="fill:url(#XMLID_10_);"/>
      <linearGradient gradientTransform="matrix(0 -214.9991 -214.9991 0 102527.3047 -52175.832)" gradientUnits="userSpaceOnUse" id="XMLID_11_" x1="-243.2471" x2="-242.3132" y1="476.6899" y2="476.6899">
        <stop id="stop22" offset="0" style="stop-color:#FFFFFF"/>
        <stop id="stop24" offset="1" style="stop-color:#000000"/>
      </linearGradient>
      <path d="M26.958,39.519c0,15.738,25.333,15.738,25.333,0S26.958,23.781,26.958,39.519     M27.914,39.519c0-14.505,23.421-14.505,23.421,0S27.914,54.024,27.914,39.519" id="path26" style="fill:url(#XMLID_11_);"/>
      <radialGradient cx="39.623" cy="39.519" gradientUnits="userSpaceOnUse" id="XMLID_12_" r="21.1">
        <stop id="stop29" offset="0" style="stop-color:#FFFA5F"/>
        <stop id="stop31" offset="0.3945" style="stop-color:#FEF85E"/>
        <stop id="stop33" offset="0.5366" style="stop-color:#FCF15B"/>
        <stop id="stop35" offset="0.6379" style="stop-color:#F7E655"/>
        <stop id="stop37" offset="0.7199" style="stop-color:#F1D54C"/>
        <stop id="stop39" offset="0.7901" style="stop-color:#E8BF42"/>
        <stop id="stop41" offset="0.8522" style="stop-color:#DEA334"/>
        <stop id="stop43" offset="0.9084" style="stop-color:#D18324"/>
        <stop id="stop45" offset="0.9583" style="stop-color:#C35F12"/>
        <stop id="stop47" offset="1" style="stop-color:#B53A00"/>
      </radialGradient>
      <path d="M39.625,19.257c-11.218,0-21.907,8.55-21.907,20.262c0,11.713,10.685,20.262,21.907,20.262    c11.221,0,21.903-8.549,21.903-20.262C61.528,27.807,50.842,19.257,39.625,19.257 M39.625,56.666    c-9.498,0-18.542-7.235-18.542-17.147c0-9.914,9.044-17.149,18.542-17.149c9.496,0,18.542,7.233,18.542,17.149    C58.167,49.433,49.123,56.666,39.625,56.666" id="path49" style="fill:url(#XMLID_12_);"/>
      <path d="M14.503,28.834c0.839-1.288,1.688-2.568,2.587-3.815C15.741,24.742,14.893,27.856,14.503,28.834     M65.198,11.636c-0.908-3.603-6.239,2.539-7.148,3.517c-0.274,0.293-1.843,2.415-2.334,2.27c-2.959-2.188-6.414-3.661-9.998-4.455    c-0.649,2.192,5.004,2.803,6.675,3.64c1.291,0.644,2.56,2.617,3.808,1.468c2.068-1.903,3.955-4.08,6.198-5.781    c0.541-0.409,3.08-0.642,2.906,0.183C65.269,12.197,65.233,11.917,65.198,11.636 M24.566,17.507    c1.995-1.275,4.208-2.171,6.519-2.678c1.566-0.344,3.701,0.102,3.042-2.129C32.316,13.038,23.939,14.992,24.566,17.507" id="path51" style="fill:#EDE0A3;"/>
      <path d="M44.165,2.194c0,1.417-8.603,1.417-8.603,0C35.562,0.779,44.165,0.779,44.165,2.194" id="path53" style="fill:#EDE0A3;"/>
      <path d="M39.866,77.54c-0.405,0-4.303-0.079-4.303,0.774c0,1.166,8.605,1.166,8.605,0    C44.168,77.46,40.271,77.54,39.866,77.54" id="path55" style="fill:#B0833E;"/>
      <path d="M6.647,44.001c-0.407,0-4.303-0.08-4.303,0.774c0,1.157,8.603,1.156,8.603,0    C10.947,43.923,7.052,44.001,6.647,44.001" id="path57" style="fill:#B0833E;"/>
      <path d="M73.403,44.001c-0.405,0-4.303-0.078-4.303,0.774c0,1.156,8.604,1.156,8.604,0    C77.705,43.923,73.808,44.001,73.403,44.001" id="path59" style="fill:#B0833E;"/>
      <path d="M10.601,64.151c-0.783,0,1.358,2.592,1.411,2.651c0.873,0.984,2.873,3.532,4.382,3.532    c0.021,0.015-1.194-2.4-1.469-2.707C14.06,66.657,12.091,64.15,10.601,64.151" id="path61" style="fill:#B0833E;"/>
      <path d="M56.967,63.198c-0.349,0,4.538,7.526,5.932,6.131C63.799,68.434,58.111,63.198,56.967,63.198" id="path63" style="fill:#B0833E;"/>
      <path d="M16.102,10.062c0.634,0.633-5.617,6.887-6.253,6.252C9.218,15.681,15.469,9.43,16.102,10.062" id="path65" style="fill:#EDE0A3;"/>
      <path d="M69.551,16.887c-1.185,0-6.773,5.651-6.162,6.284C64.501,24.286,69.576,16.887,69.551,16.887" id="path67" style="fill:#A58554;"/>
      <path d="M69.869,64.044c-1.185,0-6.759,5.687-6.161,6.285C64.886,71.451,69.86,64.044,69.869,64.044" id="path69" style="fill:#B0833E;"/>
      <path d="M22.547,64.044c-1.113,0-2.783,2.063-3.461,2.74c-0.281,0.279-2.785,3.553-2.693,3.55    C17.769,71.437,22.393,64.044,22.547,64.044" id="path71" style="fill:#B0833E;"/>
      <path d="M16.512,69.836c-0.044,0.164-0.084,0.329-0.126,0.493C16.798,70.743,16.144,68.918,16.512,69.836" id="path73" style="fill:#937342;"/>
      <path d="M10.526,35.296c0,0.81-7.441-0.318-7.802,0.754c-0.223,0.655-0.294,6.703-0.742,6.655    c-1.033-0.11-0.136-6.064-0.047-6.838C2.149,33.957,10.526,34.701,10.526,35.296" id="path75" style="fill:#EDE0A3;"/>
      <path d="M14.174,60.454c-0.216,0.217-2.765,2.866-3.212,2.421c-0.589-0.59,5.042-6.224,5.635-5.632    C17.041,57.686,14.391,60.237,14.174,60.454" id="path77" style="fill:#EDE0A3;"/>
      <path d="M77.624,35.417c0,0.718-8.96,0.718-8.96,0C68.664,34.698,77.624,34.698,77.624,35.417" id="path79" style="fill:#EDE0A3;"/>
      <path d="M61.051,44.833c-4.763,14.598-25.329,20.1-36.561,9.347c0,2.249,4.75,4.944,6.313,5.771    c5.457,2.885,11.905,2.881,17.651,0.854C55.716,58.247,59.893,52.228,61.051,44.833 M61.329,43.635    c-0.186,0.374-0.278,0.772-0.278,1.197C60.889,45.331,61.486,43.635,61.329,43.635" id="path81" style="fill:#7D6135;"/>
      <path d="M54.415,54.466c-5.016,4.107-12.059,5.937-18.453,5.032C42.479,60.515,49.358,58.75,54.415,54.466" id="path83" style="fill:#836432;"/>
      <path d="M21.621,36.65c0-5.568,4.938-10.957,9.665-13.104c5.146-2.338,10.859-2.378,15.962,0.063    c0.655,0.313,8.122,4.651,7.18,5.866c0.249-0.322-4.717-3.989-5.088-4.199c-4.707-2.678-10.544-2.769-15.627-1.169    C29.043,25.575,21.621,31.141,21.621,36.65" id="path85" style="fill:#FAECAC;"/>
      <path d="M17.644,36.514c0-6.791,6.518-13.377,12.209-15.916c6.2-2.766,13.096-2.903,19.226,0.088    c2.27,1.109,4.428,2.549,6.243,4.313c0.097,0.097,1.952,2.339,1.617,2.353c-0.392,0.015-1.301-1.387-1.532-1.638    c-1.341-1.454-2.865-2.736-4.558-3.763c-5.68-3.437-12.859-3.537-19.021-1.373c-4.974,1.745-9.08,5.234-11.673,9.811    C19.293,31.908,17.644,34.964,17.644,36.514" id="path87" style="fill:#FAECAC;"/>
      <path d="M58.153,39.915c0.047,0-1.07,3.952-1.166,4.185c-1.226,3.045-3.232,5.755-5.869,7.727    c-8.563,6.4-20.332,4.829-27.136-3.096c9.196,13.329,33.627,8.3,34.174-8.815" id="path89" style="fill:#9E8860;"/>
      <path d="M52.999,51.396c-0.521,0.501-1.07,0.971-1.648,1.407C51.931,52.371,52.482,51.903,52.999,51.396     M23.581,48.351c-0.239,0,3.056,3.445,3.315,3.637C26.33,51.493,24.151,48.351,23.581,48.351" id="path91" style="fill:#C4A572;"/>
    </g>
    <g id="g93">
      <radialGradient cx="336.2793" cy="-178.1563" gradientTransform="matrix(0.9774 -0.2115 0.2115 0.9774 -204.4903 341.9193)" gradientUnits="userSpaceOnUse" id="XMLID_13_" r="39.7468">
        <stop id="stop96" offset="0" style="stop-color:#FFFA5F"/>
        <stop id="stop98" offset="1" style="stop-color:#B53A00"/>
      </radialGradient>
      <path d="M119.802,83.304c-2.226,0.482-4.443,0.989-6.652,1.555    c-1.097-2.515-2.582-4.854-4.376-6.931c-0.922-1.069-2.254-1.423-1.319-2.738c0.641-0.897,1.26-1.807,1.871-2.724    c1.186-1.774,3.641-4.536,1.692-6.611c-1.935-2.058-7.221-6.098-9.745-3.313c-1.625,1.792-2.812,4.195-4.051,6.268    c-0.832,1.398-6.368-0.688-8.31-0.847c-1.438-0.121-2.608,0.559-2.874-1.067c-0.182-1.131-0.396-2.261-0.62-3.39    c-0.346-1.729-0.468-4.643-2.216-5.664c-1.905-1.113-8.005,0.383-9.63,1.719c-1.522,1.249-0.772,3.584-0.418,5.17    c0.262,1.181,0.533,2.361,0.819,3.541c0.415,1.697,0.994,1.714-0.773,2.547c-2.478,1.16-4.789,2.659-6.859,4.444    c-1.409,1.217-1.193,0.739-2.561-0.212c-1.3-0.904-2.619-1.774-3.949-2.632c-4.265-2.747-6.598,2.313-8.346,5.606    c-1.075,2.031-0.112,3.541,1.694,4.706c1.116,0.716,2.238,1.428,3.364,2.125c2.143,1.325,1.788,1.196,1.04,3.536    c-0.778,2.424-1.217,4.952-1.301,7.493c-0.071,2.209-3.884,2.007-5.93,2.45c-4.77,1.03-2.964,5.077-2.251,8.577    c1.015,4.959,4.876,3.447,8.799,2.522c1.772-0.42,1.885-1.031,2.864,0.704c0.681,1.214,1.457,2.374,2.316,3.468    c0.851,1.089,1.785,2.115,2.79,3.069c1.521,1.444,0.303,1.89-0.761,3.458c-1.129,1.652-3.456,4.103-3.1,6.274    c0.298,1.815,2.611,2.75,3.965,3.621c1.354,0.874,3.164,2.601,4.943,2.116c2.329-0.629,3.819-4.39,4.975-6.278    c0.509-0.83,1.008-1.665,1.49-2.504c1.6,0.49,3.241,0.851,4.899,1.07c1.697,0.226,3.413,0.307,5.122,0.245    c0.179,1.373,0.412,2.741,0.668,4.102c0.377,2.009,0.446,5.821,2.474,7.01c1.702,0.994,4.331-0.2,6.07-0.54    c1.51-0.294,3.686-0.52,4.285-2.225c0.897-2.572-0.843-6.565-1.484-9.095c-0.437-1.716-0.981-1.642,0.799-2.539    c1.695-0.855,3.313-1.867,4.82-3.021c1.856-1.422,1.727-2.075,3.655-0.687c1.311,0.942,2.65,1.846,4.004,2.732    c2.079,1.364,4.345,2.823,6.213,0.397c1.297-1.683,3.714-4.587,3.869-6.773c0.187-2.632-3.987-4.29-5.786-5.4    c-1.598-0.979-3.154-1.034-2.41-2.962c0.634-1.643,1.109-3.351,1.42-5.085c0.231-1.314,0.37-2.646,0.409-3.979    c1.443-0.219,2.881-0.479,4.309-0.761c2.063-0.41,5.832-0.615,5.972-3.429C125.884,88.6,124.669,82.252,119.802,83.304     M88.315,107.681c-6.271,1.357-12.991-2.399-14.383-8.824c-1.39-6.425,3.177-12.626,9.447-13.984    c6.272-1.354,12.994,2.401,14.385,8.827C99.154,100.126,94.588,106.323,88.315,107.681" id="path100" style="fill:url(#XMLID_13_);"/>
      <linearGradient gradientTransform="matrix(0.9774 -0.2115 0.2115 0.9774 -204.4903 341.9193)" gradientUnits="userSpaceOnUse" id="XMLID_14_" x1="-20.3428" x2="892.4257" y1="-178.022" y2="-178.022">
        <stop id="stop103" offset="0" style="stop-color:#FFFFFF"/>
        <stop id="stop105" offset="1" style="stop-color:#000000"/>
      </linearGradient>
      <path d="M78.112,58.663c1.308-0.303,2.746-0.843,4.096-0.661c2.271,0.313,2.399,3.874,2.737,5.56    c0.181,0.91,0.205,4.15,0.835,4.782c0.642,0.64,5.8,0.417,6.976,0.674c4.466,0.975,3.776,1.848,6.129-1.952    c1.221-1.97,2.893-6.235,5.829-4.833c1.832,0.878,6.882,3.626,6.546,5.748c-0.341,2.141-2.37,4.327-3.579,6.064    c-1.377,1.98-1.747,1.535-0.147,3.219c1.85,1.948,3.411,4.163,4.607,6.572c0.661,1.333,0.315,1.682,1.557,1.393    c2.394-0.561,5.922-2.082,8.418-1.576c2.275,0.467,2.508,5.116,2.915,7.118c1.026,5.002-6.421,4.877-9.885,5.403    c0.094-0.013-2.112,9.625-2.586,10.719c-0.228,0.522,5.306,3.52,6.033,3.968c3.526,2.181,2.603,3.965,0.601,7.092    c-2.788,4.354-3.946,4.264-8.314,1.349c-1.552-1.037-3.088-2.101-4.561-3.243c-0.387-0.304-3.195,2.406-3.72,2.771    c-0.794,0.552-5.018,2.228-5.262,2.915c-0.385,1.085,1.206,4.686,1.471,5.847c1.146,5.02,0.81,6.3-4.181,7.381    c-1.315,0.283-2.728,0.844-4.085,0.659c-2.547-0.35-2.639-4.998-2.992-6.874c-0.169-0.89-0.126-3.93-0.723-4.572    c-0.458-0.49-5.223-0.179-6.141-0.321c-0.501-0.078-4.438-1.205-4.57-0.989c-0.696,1.133-1.394,2.264-2.091,3.396    c-0.905,1.472-2.44,5.094-4.341,5.444c-1.662,0.329-6.84-3.183-7.839-4.55c-2.451-3.35,4.743-6.826,4.7-9.641    c-0.002-0.13-8.046-8.978-7.289-9.152c-2.114,0.488-4.264,1.18-6.413,1.482c-4.115,0.892-4.24-2.818-4.87-5.863    c-1.037-4.343,1.168-4.931,4.848-5.648c1.267-0.247,2.531-0.494,3.801-0.743c0.26-0.049,0.406-4.771,0.51-5.392    c0.368-2.134,1.013-4.188,1.843-6.185c0.18-0.425-1.438-1.137-1.771-1.344c-2.404-1.502-7.155-3.314-5.087-6.804    c0.949-1.601,2.841-5.546,4.645-5.938c2.211-0.478,5.805,2.917,7.467,4.045c2.198,1.487,3.609-1.458,5.66-2.788    c2.137-1.386,5.438-1.4,4.806-4.094c-0.449-1.914-1.08-3.865-1.363-5.812C72.536,59.622,75.205,59.245,78.112,58.663     M79.916,57.267c-2.177,0.469-5.932,0.605-7.216,2.542c-1.445,2.219,0.37,6.553,0.915,8.869c0.492,2.117-1.425,2.046-3.151,3.062    c-0.803,0.473-4.994,3.934-5.401,3.655c-2.097-1.428-5.073-4.298-7.734-4.446c-2.607-0.149-3.988,3.212-5.175,5.119    c-2.685,3.99-1.291,5.776,2.344,8.046c1.128,0.701,2.253,1.409,3.381,2.107c-1.021,2.51-1.682,5.163-1.941,7.861    c-0.259,2.685,0.148,2.645-2.375,3.14c-1.457,0.285-3.017,0.466-4.428,0.961c-3.715,1.305-2.293,4.971-1.686,7.885    c1.003,4.812,3.105,5.312,7.467,4.294c1.314-0.306,2.632-0.618,3.948-0.919c1.194,2.327,2.719,4.479,4.515,6.381    c1.101,1.173,2.296,1.257,1.231,2.761c-0.756,1.067-1.49,2.153-2.215,3.249c-1.064,1.618-2.711,3.83-1.398,5.787    c1.07,1.602,5.926,4.729,7.824,5.045c2.971,0.492,4.668-3.698,5.922-5.732c0.621-1.013,1.239-2.023,1.875-3.031    c2.597,0.766,5.293,1.179,8.002,1.231c1.892,0.04,1.375,0.218,1.65,1.868c0.186,1.112,0.393,2.223,0.614,3.329    c0.408,2.054,0.625,5.525,3.135,6.178c2.026,0.521,5.763-0.647,7.815-1.258c4.781-1.428,1.971-7.769,1.131-11.097    c-0.406-1.617-0.953-1.631,0.702-2.484c1.18-0.608,2.32-1.292,3.408-2.047c1.089-0.753,2.13-1.575,3.112-2.462    c0.776,0.589,1.567,1.158,2.365,1.712c3.146,2.192,7.215,6.033,10.16,1.641c1.275-1.899,3.934-4.935,3.484-7.222    c-0.525-2.435-4.314-3.993-6.228-5.17c-1.481-0.917-2.484-0.862-1.84-2.599c0.865-2.331,1.425-4.777,1.646-7.254    c0.347-3.829,10.773-0.255,10.388-6.373c-0.138-2.188-0.983-7.568-2.786-8.747c-2.16-1.432-6.271,0.296-8.53,0.824    c-2.237,0.524-2.12-1.237-3.272-3.056c-1.053-1.658-4.486-4.389-3.403-5.925c2.999-4.243,6.324-7.828,0.785-11.217    c-1.879-1.25-4.517-3.73-6.837-2.524c-2.202,1.14-3.667,4.701-4.914,6.705c-1.127,1.818-2.395,0.537-4.344,0.12    c-1.708-0.366-6.149-0.017-6.42-1.628C85.748,62.278,85.63,56.03,79.916,57.267" id="path107" style="fill:url(#XMLID_14_);"/>
      <linearGradient gradientTransform="matrix(0.9774 -0.2115 0.2115 0.9774 -204.4903 341.9193)" gradientUnits="userSpaceOnUse" id="XMLID_15_" x1="247.4658" x2="461.8622" y1="-178.6753" y2="-178.6753">
        <stop id="stop110" offset="0" style="stop-color:#FFFFFF"/>
        <stop id="stop112" offset="1" style="stop-color:#000000"/>
      </linearGradient>
      <path d="M73.47,98.957c3.328,15.383,28.089,10.024,24.762-5.357    C94.899,78.217,70.141,83.577,73.47,98.957 M74.404,98.756c-3.069-14.177,19.821-19.131,22.89-4.955    C100.36,107.979,77.472,112.932,74.404,98.756" id="path114" style="fill:url(#XMLID_15_);"/>
      <radialGradient cx="335.7129" cy="-178.6753" gradientTransform="matrix(0.9774 -0.2115 0.2115 0.9774 -204.4903 341.9193)" gradientUnits="userSpaceOnUse" id="XMLID_16_" r="21.0995">
        <stop id="stop117" offset="0" style="stop-color:#FFFA5F"/>
        <stop id="stop119" offset="0.3945" style="stop-color:#FEF85E"/>
        <stop id="stop121" offset="0.5366" style="stop-color:#FCF15B"/>
        <stop id="stop123" offset="0.6379" style="stop-color:#F7E655"/>
        <stop id="stop125" offset="0.7199" style="stop-color:#F1D54C"/>
        <stop id="stop127" offset="0.7901" style="stop-color:#E8BF42"/>
        <stop id="stop129" offset="0.8522" style="stop-color:#DEA334"/>
        <stop id="stop131" offset="0.9084" style="stop-color:#D18324"/>
        <stop id="stop133" offset="0.9583" style="stop-color:#C35F12"/>
        <stop id="stop135" offset="1" style="stop-color:#B53A00"/>
      </radialGradient>
      <path d="M81.564,76.474c-10.967,2.373-19.604,12.992-17.126,24.438    c2.477,11.449,14.729,17.543,25.696,15.171c10.969-2.373,19.601-12.99,17.122-24.438C104.778,80.2,92.526,74.102,81.564,76.474     M89.478,113.037c-9.284,2.01-19.654-3.146-21.751-12.836c-2.097-9.688,5.212-18.673,14.495-20.682    c9.282-2.01,19.652,3.146,21.749,12.838C106.07,102.047,98.759,111.03,89.478,113.037" id="path137" style="fill:url(#XMLID_16_);"/>
      <path d="M59.036,91.148c0.547-1.435,1.106-2.866,1.722-4.275C59.379,86.887,59.21,90.113,59.036,91.148     M104.945,63.618c-1.65-3.33-5.56,3.8-6.242,4.95c-0.207,0.344-1.291,2.748-1.801,2.71c-3.355-1.51-7.044-2.219-10.714-2.238    c-0.171,2.278,5.482,1.68,7.294,2.144c1.399,0.356,3.055,2.017,4.033,0.631c1.619-2.297,3.001-4.825,4.834-6.962    c0.44-0.511,2.875-1.278,2.88-0.437C105.134,64.15,105.04,63.884,104.945,63.618 M66.477,77.95    c1.679-1.668,3.652-3.012,5.802-3.996c1.46-0.667,3.641-0.684,2.523-2.724C73.104,71.943,65.329,75.625,66.477,77.95" id="path139" style="fill:#EDE0A3;"/>
      <path d="M82.393,58.839c0.298,1.384-8.11,3.205-8.41,1.817C73.683,59.277,82.093,57.456,82.393,58.839" id="path141" style="fill:#EDE0A3;"/>
      <path d="M94.128,133.387c-0.396,0.087-4.223,0.834-4.044,1.669c0.248,1.138,8.658-0.683,8.412-1.821    C98.315,132.402,94.522,133.304,94.128,133.387" id="path143" style="fill:#B0833E;"/>
      <path d="M54.567,107.635c-0.398,0.087-4.223,0.832-4.042,1.665c0.244,1.132,8.651-0.689,8.407-1.818    C58.753,106.65,54.96,107.549,54.567,107.635" id="path145" style="fill:#B0833E;"/>
      <path d="M119.812,93.515c-0.396,0.087-4.222,0.832-4.04,1.666c0.243,1.129,8.651-0.692,8.407-1.82    C124,92.53,120.209,93.429,119.812,93.515" id="path147" style="fill:#B0833E;"/>
      <path d="M62.692,126.493c-0.766,0.167,1.875,2.245,1.938,2.294c1.063,0.775,3.558,2.845,5.031,2.524    c0.023,0.01-1.676-2.092-2.008-2.334C66.604,128.211,64.147,126.176,62.692,126.493" id="path149" style="fill:#B0833E;"/>
      <path d="M107.808,115.754c-0.341,0.072,6.027,6.396,7.095,4.737    C115.591,119.426,108.925,115.512,107.808,115.754" id="path151" style="fill:#B0833E;"/>
      <path d="M56.626,72.465c0.754,0.484-4.031,7.919-4.789,7.433C51.088,79.412,55.876,71.981,56.626,72.465" id="path153" style="fill:#EDE0A3;"/>
      <path d="M110.312,67.829c-1.161,0.25-5.426,6.957-4.694,7.447    C106.942,76.129,110.337,67.824,110.312,67.829" id="path155" style="fill:#A58554;"/>
      <path d="M120.598,113.852c-1.159,0.251-5.403,6.987-4.693,7.446    C117.294,122.143,120.59,113.854,120.598,113.852" id="path157" style="fill:#B0833E;"/>
      <path d="M74.347,123.863c-1.088,0.233-2.285,2.605-2.804,3.407c-0.215,0.335-1.972,4.063-1.882,4.041    C71.239,132.098,74.196,123.894,74.347,123.863" id="path159" style="fill:#B0833E;"/>
      <path d="M69.674,130.798c-0.009,0.171-0.017,0.34-0.021,0.509C70.144,131.624,69.119,129.98,69.674,130.798    " id="path161" style="fill:#937342;"/>
      <path d="M56.515,98.307c0.173,0.791-7.34,1.262-7.465,2.387c-0.079,0.688,1.13,6.614,0.683,6.662    c-1.033,0.112-1.416-5.9-1.494-6.675C48.046,98.769,56.39,97.726,56.515,98.307" id="path163" style="fill:#EDE0A3;"/>
      <path d="M65.403,122.124c-0.166,0.257-2.096,3.386-2.627,3.044c-0.701-0.45,3.61-7.149,4.314-6.696    C67.62,118.812,65.569,121.866,65.403,122.124" id="path165" style="fill:#EDE0A3;"/>
      <path d="M122.123,84.231c0.15,0.701-8.608,2.598-8.759,1.897C113.212,85.425,121.969,83.53,122.123,84.231" id="path167" style="fill:#EDE0A3;"/>
      <path d="M107.914,96.942c-1.566,15.272-20.503,25-33.756,16.868c0.477,2.198,5.688,3.827,7.391,4.304    c5.944,1.664,12.245,0.298,17.433-2.899C105.538,111.178,108.346,104.413,107.914,96.942 M107.931,95.709    c-0.097,0.405-0.105,0.815-0.017,1.232C107.86,97.459,108.087,95.678,107.931,95.709" id="path169" style="fill:#7D6135;"/>
      <path d="M103.464,107.758c-4.033,5.075-10.527,8.353-16.969,8.823    C93.08,116.194,99.43,113.015,103.464,107.758" id="path171" style="fill:#836432;"/>
      <path d="M67.646,97.283c-1.18-5.443,2.509-11.752,6.674-14.853c4.536-3.373,10.11-4.621,15.615-3.314    c0.707,0.169,8.921,2.828,8.259,4.214c0.174-0.367-5.455-2.9-5.862-3.027c-5.167-1.622-10.893-0.476-15.52,2.164    C72.558,84.888,66.479,91.899,67.646,97.283" id="path173" style="fill:#FAECAC;"/>
      <path d="M63.729,97.992c-1.438-6.638,3.541-14.452,8.567-18.14c5.473-4.013,12.185-5.606,18.81-3.979    c2.453,0.605,4.865,1.556,7.014,2.894c0.115,0.075,2.402,1.875,2.076,1.96c-0.378,0.097-1.564-1.082-1.843-1.278    c-1.618-1.137-3.379-2.068-5.25-2.714c-6.277-2.156-13.314-0.737-18.881,2.682c-4.492,2.757-7.767,7.036-9.333,12.059    C64.368,93.14,63.402,96.478,63.729,97.992" id="path175" style="fill:#FAECAC;"/>
      <path d="M104.042,92.747c0.046-0.009-0.21,4.09-0.254,4.336c-0.557,3.236-1.941,6.31-4.103,8.795    c-7.014,8.066-18.85,9.021-27.177,2.714c11.809,11.082,34.621,0.999,31.537-15.845" id="path177" style="fill:#9E8860;"/>
      <path d="M101.433,105.059c-0.403,0.602-0.839,1.176-1.314,1.723    C100.597,106.236,101.035,105.662,101.433,105.059 M72.036,108.306c-0.234,0.049,3.715,2.719,4.009,2.853    C75.388,110.794,72.593,108.185,72.036,108.306" id="path179" style="fill:#C4A572;"/>
    </g>
  </g>
</svg>
