<?xml version="1.0" encoding="UTF-8" standalone="no"?>
<!-- Generator: Adobe Illustrator 12.0.0, SVG Export Plug-In . SVG Version: 6.00 Build 51448)  --><svg height="271.64" id="Layer_1" inkscape:version="0.40+cvs" sodipodi:docbase="F:\openclip\svg3" sodipodi:docname="secchio e spugna.svg" sodipodi:version="0.32" style="overflow:visible;enable-background:new 0 0 222.195 271.64;" version="1.0" viewBox="0 0 222.195 271.64" width="222.195" xml:space="preserve" xmlns="http://www.w3.org/2000/svg" xmlns:cc="http://web.resource.org/cc/" xmlns:dc="http://purl.org/dc/elements/1.1/" xmlns:inkscape="http://www.inkscape.org/namespaces/inkscape" xmlns:rdf="http://www.w3.org/1999/02/22-rdf-syntax-ns#" xmlns:sodipodi="http://inkscape.sourceforge.net/DTD/sodipodi-0.dtd" xmlns:svg="http://www.w3.org/2000/svg" xmlns:xml="http://www.w3.org/XML/1998/namespace"><metadata><rdf:RDF xmlns:cc="http://web.resource.org/cc/" xmlns:dc="http://purl.org/dc/elements/1.1/" xmlns:rdf="http://www.w3.org/1999/02/22-rdf-syntax-ns#"><cc:Work rdf:about=""><dc:title>Secchio e spugna</dc:title><dc:description></dc:description><dc:subject><rdf:Bag><rdf:li>unsorted</rdf:li></rdf:Bag></dc:subject><dc:publisher><cc:Agent rdf:about="http://www.openclipart.org"><dc:title>Architetto Francesco Rollandin</dc:title></cc:Agent></dc:publisher><dc:creator><cc:Agent><dc:title>Architetto Francesco Rollandin</dc:title></cc:Agent></dc:creator><dc:rights><cc:Agent><dc:title>Architetto Francesco Rollandin</dc:title></cc:Agent></dc:rights><dc:date></dc:date><dc:format>image/svg+xml</dc:format><dc:type rdf:resource="http://purl.org/dc/dcmitype/StillImage"/><cc:license rdf:resource="http://web.resource.org/cc/PublicDomain"/><dc:language>en</dc:language></cc:Work><cc:License rdf:about="http://web.resource.org/cc/PublicDomain"><cc:permits rdf:resource="http://web.resource.org/cc/Reproduction"/><cc:permits rdf:resource="http://web.resource.org/cc/Distribution"/><cc:permits rdf:resource="http://web.resource.org/cc/DerivativeWorks"/></cc:License></rdf:RDF></metadata>
<defs id="defs62"></defs>
<sodipodi:namedview bordercolor="#666666" borderopacity="1.0" id="base" inkscape:current-layer="Layer_1" inkscape:cx="111.09750" inkscape:cy="135.82001" inkscape:pageopacity="0.0" inkscape:pageshadow="2" inkscape:window-height="540" inkscape:window-width="640" inkscape:window-x="22" inkscape:window-y="22" inkscape:zoom="1.3915476" pagecolor="#ffffff"></sodipodi:namedview>

<path d="M7.215,83.879c-5.278,0.076-5.917,1.249-6.986-3.181  c-0.51-2.113-0.035-5.17,0.144-7.327c0.561-6.777,5.236-14.682,8.469-20.535c5.018-9.083-2.08-12.018-3.828-20.824  c-1.082-5.449,14.658-11.031,18.087-12.533C58.797,3.846,98.819-2.75,137.582,1.05c9.36,0.917,18.521,1.613,27.326,5.113  c4.607,1.831,9.27,3.993,13.055,7.263c3.691,3.188,6.039,7.916,9.258,10.872c2.034,1.868,2.817-0.523,3.54,2.989  c0.326,1.584-0.792,3.298-1.244,4.724c-1.112,3.507-2.249,5.655-1.436,9.544c0.795,3.801,4.626,8.788,3.158,12.726  c-2.624,7.038-10.163,10.137-11.507,16.896c-1.682,8.458-3.014,16.996-4.81,25.428c-3.486,16.375-5.854,34.103-6.076,50.903  c7.672-1.573,14.23,3.536,20.957,2.796c5.608-0.617,14.686-1.637,20.192,0.867c6.064,2.758,8.485,14.889,9.474,21.114  c0.854,5.383,3.069,10.775,2.439,16.292c-0.782,6.861-4.954,7.353-10.765,9.835c5.148,5.991,14.333,13.363,9.856,21.498  c-5.612,10.199-15.243,5.741-23.637,10.894c4.092,6.745,10.933,12.068,5.215,18.703c-6.877,7.981-17.245,10.989-27.067,13.602  c-19.014,5.057-38.194,7.32-57.83,7.32c-11.16,0-33.688,4.817-42.14-4.771c-4.598-5.218-2.164-12.355,2.106-17.018  c2.06-2.249,17.312-9.436,15.311-11.761c-0.975-1.133-9.818-0.9-11.413-1.015c-4.205-0.302-8.537,0.038-12.703-0.336  c-3.13-0.281-8.112-1.323-8.039-5.688c0.108-6.403,13.166-10.978,17.895-12.726c5.864-2.167,15.609-2.099,14.259-10.219  c-0.539-3.24-3.637-6.049-3.637-9.159c-0.001-4.416,3.106-4.339-1.722-7.23c-6.945-4.158-18.997-1.945-26.795-3.374  c-21.243-3.892-22.882-33.512-25.444-50.736c-0.873-5.869-1.599-11.827-3.12-17.575c-1.022-3.861-1.061-5.589-3.973-7.852  c-2.477-1.924-6.367-2.839-9.186-4.243C9.529,101.97,1.959,94.908,0.516,83.976c2.097,0,4.194,0,6.292,0  c1.097,0,0.492,2.083,0.982,2.892c1.822,3.005,2.811,6.041,5.358,8.87c2.917,3.24,6.499,6.085,10.598,7.673  c4.875,1.889,5.261,1.436,4.235-3.721c-2.966-14.906-7.502-28.167-13.014-42.323C10.573,65.647,6.926,74.678,7.215,83.879" id="path3" style="fill-rule:evenodd;clip-rule:evenodd;"></path>

<path d="M85.877,264.547c20.536-0.221,41.66,0.445,62.02-2.677  c9.977-1.529,20.046-3.062,29.541-6.563c7.749-2.857,16.537-4.393,20.631-12.355c3.216-6.256-21.387-13.979-8.17-19.088  c6.579-2.543,16.237-0.167,21.819-4.627c0.943-0.754,2.5-2.555,2.775-3.76c0.513-2.242-2.331-9.103-5.112-9.41  c-3.538-0.391-5.513,0.011-7.042,0.636c-1.804,0.736-2.759,2.314-5.741,2.314c-1.545,0-4.509-1.576-5.838-1.157  c-1.958,0.617-6.35,9.113-8.134,7.99c-7.631-4.804-7.627-0.67-10.863,4.918c-3.639,6.285-3.646,6.851-9.999,7.915  c-5.67,0.95-11.906,0.431-18.182,0.965c-4.354,0.371-7.909,0.875-11.867,0.096c-2.955-0.582-5.329-1.326-8.421-1.445  c-3.492-0.135-5.931,0.354-8.709-2.023c-3.718-3.183-8.143,3.703-10.527,1.792c-3.217-2.577-7.44-4.771-8.983-8.658  c-0.563-1.416-7.032,1.156-8.624,1.659c-6.136,1.938-12.134,4.145-16.938,8.58c9.878,1.477,20.272-1.148,29.566,3.386  c7.691,3.752,2.659,9.208-2.701,11.907c-5.128,2.584-18.241,8.106-16.722,15.943C80.336,264.39,83.173,263.504,85.877,264.547" id="path5" style="fill-rule:evenodd;clip-rule:evenodd;fill:#00A0C6;"></path>

<path d="M129.514,259.922c10.485-0.664,21.465-1.263,31.484-4.628  c2.146-0.721,16.948-6.177,8.039-9.93c-2.66-1.12-10.73,4.061-14.067,5.012c-5.912,1.685-12.009,2.298-18.104,2.913  C128.173,254.166,113.023,253.442,129.514,259.922" id="path7" style="fill-rule:evenodd;clip-rule:evenodd;"></path>

<path d="M134.874,248.834c4.229-1.001,19.233-2.13,21.053-5.688  c2.234-4.371-2.581-5.232-5.314-4.523c-3.333,0.864-20.339,2.85-21.001,6.452C129.124,247.725,132.807,248.858,134.874,248.834" id="path9" style="fill-rule:evenodd;clip-rule:evenodd;"></path>

<path d="M133.342,224.54c3.907-0.705,7.776-2.17,11.771-2.313  c3.415-0.123,7.42,2.334,10.479,0.964c1.45-0.649,3.095-1.508,4.688-1.688c4.066-0.456,4.921-6.405,6.844-9.496  c4.517-7.257,8.39-3.713,14.257-5.881c4.159-1.537,3.659-6.264,9.762-4.771c4.808,1.175,5.072-2.943,9.091-5.641  c3.418-2.294,7.541-2.871,11.005-4.724c3.627-1.939,4.911-4.356,4.211-8.919c-0.38-2.479-0.393-5.077-1.531-7.375  c-1.414-2.855-0.093-4.347-0.479-7.037c-1.617-11.281-9.652-12.672-18.997-11.373c-5.375,0.747-8.364-0.281-13.349-1.931  c-3.019-0.999-5.655-1.62-8.756-0.482c-4.576,1.68-9.515,1.356-14.211,3.471c-4.933,2.221-9.388,5.61-13.881,8.589  c-4.021,2.666-11.112,3.663-13.781,7.343c-2.896,3.992-8.561,5.437-13.029,6.789c-3.747,1.133-8.506,5.274-11.893,5.768  c-4.456,0.648-4.884-0.551-8.853,3.037c6.248,3.764,0.128,5.893-0.957,9.256c-0.529,1.639,0.69,2.635,1.597,4.096  c0.79,1.271,2.561,3.195,2.901,4.677c0.265,1.152-1.262,2.687-1.052,3.855c0.262,1.459,2.197,5.966,2.919,7.521  c1.778,3.831,2.695,3.49,5.406,0.771c3.155-3.166,6.927,0.171,10.623,1.061c0.346,0.083,0.473,1.061,0.957,1.157  c1.555,0.312,3.313-0.637,5.072-0.482C127.482,221.072,130.703,223.083,133.342,224.54" id="path11" style="fill-rule:evenodd;clip-rule:evenodd;fill:#FFDB00;"></path>

<path d="M138.606,216.923c7.88-2.566-2.245-13.036,0.287-17.547  c0.716-1.274,6.359-3.42,7.772-4.274c4.23-2.556,8.907-4.213,13.472-6.041c8.703-3.484,15.877-9.274,24.527-12.544  c4.044-1.528,17.528-4.837,17.484-9.919c-0.087-9.971-27.615,7.959-32.154,10.895c-7.964,5.151-16.632,6.659-24.69,11.183  c-3.111,1.746-7.426,7.995-10.526,8.388c-1.744,0.221-6.723-4.067-9.474-4.531c-4.54-0.766-9.327,0.356-13.755-1.188  c-5.421-1.893-3.171,3.646-0.024,5.237c4.418,2.234,10.027-0.922,14.028,1.302c7.183,3.992,7.279,4.851,9.426,12.824  C135.645,213.186,136.018,215.928,138.606,216.923" id="path13" style="fill-rule:evenodd;clip-rule:evenodd;"></path>

<path d="M116.5,213.068c3.822-0.734,10.837-5.86,3.637-8.004  C115.308,203.626,111.685,211.552,116.5,213.068" id="path15" style="fill-rule:evenodd;clip-rule:evenodd;"></path>

<path d="M107.887,209.211c0.348-0.991-0.806-6.184-2.775-3.857  C103.272,207.528,106.008,209.978,107.887,209.211" id="path17" style="fill-rule:evenodd;clip-rule:evenodd;"></path>

<path d="M157.745,205.257c4.175-1.239,8.313-0.837,7.943-5.784  c-0.151-2.032-0.53-3.05-2.392-3.952C158.179,193.04,153.865,203.682,157.745,205.257" id="path19" style="fill-rule:evenodd;clip-rule:evenodd;"></path>

<path d="M174.78,202.172c2.723,0.187,7.065-3.434,4.593-6.17  C176.341,192.649,168.792,200.436,174.78,202.172" id="path21" style="fill-rule:evenodd;clip-rule:evenodd;"></path>

<path d="M194.493,192.147c1.975,0.06,3.106-1.407,1.627-3.182  C193.343,185.634,190.408,191.698,194.493,192.147" id="path23" style="fill-rule:evenodd;clip-rule:evenodd;"></path>

<path d="M181.478,188.291c3.555,0.081,2.651-4.725-0.384-4.436  C178.775,184.076,178.819,187.863,181.478,188.291" id="path25" style="fill-rule:evenodd;clip-rule:evenodd;"></path>

<path d="M130.184,187.615c2.485,0.334,5.986-0.426,7.656-2.506  c0.909-1.132,2.543-6.942-0.383-6.942C133.786,178.167,124.719,184.9,130.184,187.615" id="path27" style="fill-rule:evenodd;clip-rule:evenodd;"></path>

<path d="M79.083,183.373c9.836-0.81,18.613-1.51,27.272-6.362  c3.827-2.145,8.204-2.105,11.772-3.904c3.866-1.95,6.149-5.843,9.856-7.954c3.48-1.981,7.336-2.225,10.909-4.339  c3.693-2.186,6.847-5.238,10.527-7.437c1.054-0.629,10.708-4.56,10.727-4.675c0.532-3.395,1.064-6.789,1.597-10.184  c1.063-6.784,13.364-70.23,10.402-71.156c-5.478-1.712-18.853,9.855-24.054,12.79c-9.169,5.172-18.441,10.025-28.006,14.425  c-25.063,11.531-53.473,20.482-81.292,18.515c3.11,17.883,6.22,35.766,9.33,53.648C50.764,181.913,66.224,182.417,79.083,183.373" id="path29" style="fill-rule:evenodd;clip-rule:evenodd;fill:#B2B2B2;"></path>

<path d="M205.306,179.516c2.07-1.367,1.133-4.985-1.436-5.012  C199.755,174.462,201.408,180.295,205.306,179.516" id="path31" style="fill-rule:evenodd;clip-rule:evenodd;"></path>

<path d="M151.716,176.817c6.157,0.463,5.107-7.73,0.383-4.916  C149.935,173.19,149.443,176.007,151.716,176.817" id="path33" style="fill-rule:evenodd;clip-rule:evenodd;"></path>

<path d="M167.793,169.586c2.206-0.709,2.539-4.063-0.097-4.82  C164.569,163.869,165.188,169.183,167.793,169.586" id="path35" style="fill-rule:evenodd;clip-rule:evenodd;"></path>

<path d="M154.779,167.562c2.867-1.003,1.046-5.661-1.531-5.109  C149.865,163.177,152.721,167.323,154.779,167.562" id="path37" style="fill-rule:evenodd;clip-rule:evenodd;"></path>

<path d="M176.119,164.381C179.743,161.93,173.424,160.795,176.119,164.381" id="path39" style="fill-rule:evenodd;clip-rule:evenodd;"></path>

<path d="M152.386,138.736c12.156,0.201,3.385-5.775-0.383-4.242  C149.536,135.499,148.783,138.591,152.386,138.736" id="path41" style="fill-rule:evenodd;clip-rule:evenodd;"></path>

<path d="M156.98,126.492c5.368-0.747,4.48-5.111-0.383-5.591  C150.361,120.285,150.513,125.919,156.98,126.492" id="path43" style="fill-rule:evenodd;clip-rule:evenodd;"></path>

<path d="M152.386,114.344c1.413-0.206,9.829,0.063,9.091-2.555  c-0.563-1.997-2.71-3.318-4.689-3.566C153.839,107.852,147.446,112.489,152.386,114.344" id="path45" style="fill-rule:evenodd;clip-rule:evenodd;"></path>

<path d="M40.805,106.632c26.356,0.376,53.877-8.599,77.396-20.052  c12.846-6.256,25.342-12.797,37.218-20.774c1.215-0.815,2.371-1.72,3.547-2.589c2.708-2.004,0.501-0.544,0.599-2.668  c0.11-2.386-1.723-5.207-1.436-8.099c0.347-3.496,1.908-6.672,3.732-9.544c-25.076,6.483-49.928,7.25-75.705,6.565  c-22.357-0.593-50.376,0.745-70.423-10.904c4.909,12.576,10.379,25.03,14.51,37.893c2.109,6.566,4.229,13.237,5.281,20.074  C36.122,100.425,35.456,106.802,40.805,106.632" id="path47" style="fill-rule:evenodd;clip-rule:evenodd;fill:#B2B2B2;"></path>

<path d="M152.386,102.872c1.735-0.35,5.539,0.14,6.891-1.061  c2.859-2.539-0.462-3.618-3.22-3.871c-1.651-0.151-6.523-1.625-6.925,1.364C148.876,101.211,150.641,102.557,152.386,102.872" id="path49" style="fill-rule:evenodd;clip-rule:evenodd;"></path>

<path d="M176.884,59.681c11.767-4.118,6.366-20.2-4.785-14.654  c-1.984,0.987-10.976,10.648-5.837,11.761c2.774,0.601,2.485-4.593,4.593-5.688C175.75,48.558,176.161,57.336,176.884,59.681" id="path51" style="fill-rule:evenodd;clip-rule:evenodd;fill:#595959;"></path>

<path d="M112.577,42.617c16.141-2.731,32.281-5.463,48.422-8.194  c-17.275-9.638-36.073-8.155-55.217-7.713c-19.318,0.447-37.838,4.796-55.886,11.569C70.249,42.577,92.31,40.838,112.577,42.617" id="path53" style="fill-rule:evenodd;clip-rule:evenodd;fill:#00A0C6;"></path>

<path d="M82.049,38.857c13.409-2.753,27.909-5.88,41.591-3.071  c2.133,0.438,9.344,3.479,10.851,1.721c3.598-4.197-7.249-6.538-8.947-6.893c-13.132-2.744-26.202-1.434-39.205,1.375  C84.518,32.381,71.501,37.568,82.049,38.857" id="path55" style="fill-rule:evenodd;clip-rule:evenodd;fill:#FFFFFF;"></path>

<path d="M181.191,36.929C181.572,33.473,179.351,35.836,181.191,36.929" id="path57" style="fill-rule:evenodd;clip-rule:evenodd;fill:#FFFFFF;"></path>

<path d="M32.382,36.061c18.191-4.935,35.773-13.894,54.802-15.265  c18.996-1.368,39.714-4.73,58.454,0.05c5.004,1.276,10.016,2.658,14.538,5.224c0.929,0.527,6.246,5.546,7.235,5.652  c1.94,0.209,11.39-6.015,10.716-7.713c-1.691-4.266-5.509-6.266-9.377-8.291c-17.401-9.108-41.069-8.946-60.293-8.777  c-15.23,0.134-31.174,2.736-45.787,6.961c-15.185,4.39-31.737,7.987-45.12,16.759C21.363,34.335,27.682,34.792,32.382,36.061" id="path59" style="fill-rule:evenodd;clip-rule:evenodd;fill:#666666;"></path>


  
</svg>
