<?xml version="1.0" encoding="UTF-8" standalone="no"?>
<!-- Created with Inkscape (http://www.inkscape.org/) --><svg height="128.00000px" id="svg2" inkscape:export-filename="/home/nicu/Desktop/potato_guy.png" inkscape:export-xdpi="90.000000" inkscape:export-ydpi="90.000000" inkscape:version="0.42" sodipodi:docbase="/home/nicu/Desktop/hats" sodipodi:docname="smoke1.svg" sodipodi:version="0.32" width="128.00000px" xmlns="http://www.w3.org/2000/svg" xmlns:cc="http://web.resource.org/cc/" xmlns:dc="http://purl.org/dc/elements/1.1/" xmlns:inkscape="http://www.inkscape.org/namespaces/inkscape" xmlns:rdf="http://www.w3.org/1999/02/22-rdf-syntax-ns#" xmlns:sodipodi="http://inkscape.sourceforge.net/DTD/sodipodi-0.dtd" xmlns:svg="http://www.w3.org/2000/svg" xmlns:xlink="http://www.w3.org/1999/xlink">
  <metadata>
    <rdf:RDF xmlns:cc="http://web.resource.org/cc/" xmlns:dc="http://purl.org/dc/elements/1.1/" xmlns:rdf="http://www.w3.org/1999/02/22-rdf-syntax-ns#">
      <cc:Work rdf:about="">
        <dc:title>smoke</dc:title>
        <dc:description></dc:description>
        <dc:subject>
          <rdf:Bag>
            <rdf:li>smoke</rdf:li>
          </rdf:Bag>
        </dc:subject>
        <dc:publisher>
          <cc:Agent rdf:about="http://www.openclipart.org/">
            <dc:title>Open Clip Art Library</dc:title>
          </cc:Agent>
        </dc:publisher>
        <dc:creator>
          <cc:Agent>
            <dc:title>Nicu Buculei</dc:title>
          </cc:Agent>
        </dc:creator>
        <dc:rights>
          <cc:Agent>
            <dc:title>Nicu Buculei</dc:title>
          </cc:Agent>
        </dc:rights>
        <dc:date></dc:date>
        <dc:format>image/svg+xml</dc:format>
        <dc:type rdf:resource="http://purl.org/dc/dcmitype/StillImage"/>
        <cc:license rdf:resource="http://web.resource.org/cc/PublicDomain"/>
        <dc:language>en</dc:language>
      </cc:Work>
      <cc:License rdf:about="http://web.resource.org/cc/PublicDomain">
        <cc:permits rdf:resource="http://web.resource.org/cc/Reproduction"/>
        <cc:permits rdf:resource="http://web.resource.org/cc/Distribution"/>
        <cc:permits rdf:resource="http://web.resource.org/cc/DerivativeWorks"/>
      </cc:License>
    </rdf:RDF>
  </metadata>
  <defs id="defs3">
    <linearGradient id="linearGradient14422" inkscape:collect="always">
      <stop id="stop14424" offset="0" style="stop-color:#000000;stop-opacity:1;"/>
      <stop id="stop14426" offset="1" style="stop-color:#000000;stop-opacity:0;"/>
    </linearGradient>
    <linearGradient id="linearGradient14414" inkscape:collect="always">
      <stop id="stop14416" offset="0" style="stop-color:#000000;stop-opacity:1;"/>
      <stop id="stop14418" offset="1" style="stop-color:#000000;stop-opacity:0;"/>
    </linearGradient>
    <linearGradient id="linearGradient2424">
      <stop id="stop2426" offset="0" style="stop-color:#dec164;stop-opacity:1;"/>
      <stop id="stop2428" offset="1.0000000" style="stop-color:#d5a864;stop-opacity:1.0000000;"/>
    </linearGradient>
    <linearGradient gradientTransform="translate(84.00000,5.000000)" gradientUnits="userSpaceOnUse" id="linearGradient7610" inkscape:collect="always" x1="114.00000" x2="197.00000" xlink:href="#linearGradient2424" y1="112.36218" y2="288.36218"/>
    <linearGradient gradientUnits="userSpaceOnUse" id="linearGradient14441" inkscape:collect="always" x1="359.40097" x2="392.05878" xlink:href="#linearGradient14414" y1="501.27704" y2="543.17145"/>
    <linearGradient gradientUnits="userSpaceOnUse" id="linearGradient14443" inkscape:collect="always" x1="408.05783" x2="448.46774" xlink:href="#linearGradient14422" y1="499.79263" y2="546.30530"/>
    <linearGradient id="linearGradient912">
      <stop id="stop913" offset="0.0000000" style="stop-color:#ffffff;stop-opacity:1.0000000;"/>
      <stop id="stop914" offset="1.0000000" style="stop-color:#ffffff;stop-opacity:0.0000000;"/>
    </linearGradient>
    <radialGradient cx="44.699298" cy="42.720970" fx="44.699298" fy="42.720970" gradientTransform="scale(1.022475,0.978019)" gradientUnits="userSpaceOnUse" id="radialGradient17463" inkscape:collect="always" r="12.239094" xlink:href="#linearGradient912"/>
  </defs>
  <sodipodi:namedview bordercolor="#666666" borderopacity="1.0" id="base" inkscape:current-layer="layer1" inkscape:cx="252.66113" inkscape:cy="-56.187325" inkscape:document-units="px" inkscape:guide-bbox="true" inkscape:pageopacity="0.0" inkscape:pageshadow="2" inkscape:window-height="791" inkscape:window-width="1152" inkscape:window-x="0" inkscape:window-y="26" inkscape:zoom="1.0000000" pagecolor="#ffffff" showguides="true"/>
  <g id="layer1" inkscape:groupmode="layer" inkscape:label="Layer 1">
    <g id="g14130" transform="matrix(1.365892,0.000000,0.000000,1.365892,-272.5907,-673.4797)">
      <path d="M 260.77819,525.72774 C 254.55006,531.28969 250.79694,543.23374 247.70669,549.23229 C 243.31080,552.46438 242.20623,546.13357 239.86516,543.80763 C 235.18386,538.50126 229.58250,533.85182 222.65321,532.23747 C 214.16671,534.53863 205.96081,539.91310 203.87813,548.87310 C 202.60649,552.58151 206.08230,556.57329 208.27487,559.17856 C 213.77414,564.97736 220.15806,569.87039 228.12801,571.70438 C 236.64533,573.00064 244.49458,570.64311 251.52475,565.68931 C 257.37988,561.63064 259.14680,554.73794 261.30489,548.40583 C 262.79738,544.16234 265.41058,536.19584 267.03537,535.12792 C 269.57970,535.87640 262.18923,529.40997 260.77819,525.72774 z " id="path11844" sodipodi:nodetypes="ccccccccccc" style="fill:#404040;fill-opacity:1.0000000;fill-rule:evenodd;stroke:none;stroke-width:0.99999875px;stroke-linecap:butt;stroke-linejoin:miter;stroke-opacity:1.0000000"/>
      <path d="M 259.96816,524.28926 C 259.96816,524.28926 276.49366,519.80706 285.21413,521.67761 C 287.93460,522.54816 290.43743,522.22170 290.11098,524.28926 C 289.78452,526.35682 288.81688,529.25083 286.64050,529.25083 C 279.21413,526.75083 268.85449,534.92559 267.76631,535.46969 C 265.92812,534.01378 261.98879,527.52591 259.96816,524.28926 z " id="path12604" sodipodi:nodetypes="cccccc" style="fill:#b9a165;fill-opacity:1.0000000;fill-rule:evenodd;stroke:none;stroke-width:1.0000000px;stroke-linecap:butt;stroke-linejoin:miter;stroke-opacity:1.0000000"/>
      <path d="M 263.50000,532.25000 C 263.50000,532.25000 266.12500,534.37500 267.37500,535.37500 C 270.87500,534.25000 277.00000,530.00000 283.00000,528.37500 C 276.50000,525.37500 267.00000,528.87500 263.50000,532.25000 z " id="path14126" sodipodi:nodetypes="cccc" style="fill:#000000;fill-opacity:0.082352944;fill-rule:evenodd;stroke:none;stroke-width:1.0000000px;stroke-linecap:butt;stroke-linejoin:miter;stroke-opacity:1.0000000"/>
      <path d="M 204.12500,553.25000 C 204.12500,553.25000 206.37500,556.50000 209.75000,555.37500 C 213.12500,554.25000 219.25000,550.37500 221.12500,548.37500 C 221.75000,553.25000 239.00000,569.50000 244.25000,569.37500 C 231.62500,572.87500 215.75000,573.00000 204.12500,553.25000 z " id="path13364" sodipodi:nodetypes="ccccc" style="fill:#000000;fill-opacity:0.082352944;fill-rule:evenodd;stroke:none;stroke-width:1.0000000px;stroke-linecap:butt;stroke-linejoin:miter;stroke-opacity:1.0000000"/>
      <path d="M 265.12500,532.81948 C 265.12500,532.81948 266.37500,534.19448 267.62500,535.19448 C 271.12500,534.06948 275.25000,530.81948 281.25000,529.19448 C 274.50000,527.31948 268.62500,529.44448 265.12500,532.81948 z " id="path14128" sodipodi:nodetypes="cccc" style="fill:#000000;fill-opacity:0.082352944;fill-rule:evenodd;stroke:none;stroke-width:1.0000000px;stroke-linecap:butt;stroke-linejoin:miter;stroke-opacity:1.0000000"/>
      <path d="M 277.62500,520.75000 C 271.26890,520.88900 264.78319,521.78743 259.00000,524.56250 C 262.25841,526.83587 256.95958,528.77365 255.87500,530.75000 C 251.06151,535.87668 252.09642,544.01207 247.15625,549.03125 C 242.76036,552.26334 242.09107,545.38844 239.75000,543.06250 C 235.72161,537.42967 229.35852,532.23614 222.32041,531.49234 C 213.83391,533.79350 205.30155,539.71206 203.21887,548.67206 C 201.94723,552.38047 205.09659,556.58989 207.28916,559.19516 C 212.78843,564.99396 219.49880,570.32226 227.46875,572.15625 C 235.98607,573.45251 245.03233,571.20380 252.06250,566.25000 C 257.91763,562.19133 259.46691,554.86336 261.62500,548.53125 C 263.11749,544.28776 263.88077,539.58582 266.59375,535.90625 C 269.13808,536.65473 271.37709,533.75150 273.90625,532.53125 C 277.75536,530.19595 282.74423,527.51296 287.12500,530.18750 C 289.46506,529.00804 292.90338,525.48689 290.50000,522.84375 C 287.35774,520.62924 282.98368,521.00013 279.21875,520.75000 C 278.68910,520.74499 278.15460,520.74121 277.62500,520.75000 z M 277.62500,521.75000 C 281.56357,521.85695 285.25191,521.40390 288.85956,523.10944 C 291.34997,525.92589 287.28194,529.47150 284.15625,528.15625 C 278.73479,527.64098 274.42115,530.69579 270.05459,533.39081 C 269.41690,533.83722 268.33770,534.57338 267.56250,534.71875 C 266.23735,533.70485 264.50952,531.24676 263.15625,528.96875 C 261.97559,526.98130 261.39017,525.74837 261.12500,525.21875 C 261.11938,525.05485 261.16711,524.87075 261.12500,524.71875 C 266.33960,522.60779 272.03299,521.87417 277.62500,521.75000 z M 260.78125,526.10956 C 261.22387,526.95744 260.93046,528.43427 261.80484,529.90613 C 263.04344,531.99110 265.03060,533.70027 266.50000,535.03125 C 265.58606,535.31978 264.77971,535.80287 264.46875,537.25000 C 260.93537,545.14639 259.09368,553.64811 254.60178,561.12512 C 249.48814,567.80784 241.15117,570.16603 233.03916,570.68775 C 226.50219,571.33407 220.68527,569.05471 215.78125,565.00000 C 211.50003,561.39772 207.02558,557.59114 204.50000,552.50000 C 203.98095,547.57727 207.08531,542.96088 210.53125,539.68750 C 213.99105,536.48891 218.27326,534.23053 222.81250,533.00000 C 232.04053,534.34151 239.19916,541.98603 242.62500,550.28125 C 246.06132,552.36856 249.40456,548.99761 250.50000,545.90625 C 253.03440,540.71456 253.10713,534.23506 257.75000,530.21875 C 259.03672,529.36836 260.19871,527.39906 260.78125,526.10956 z M 223.12500,533.65625 C 217.39850,535.45524 211.99230,538.93194 208.81250,544.12500 C 207.31962,546.56648 206.20817,549.28695 205.78125,552.12500 C 205.76089,553.42687 207.34676,553.90255 208.37500,553.43750 C 210.66599,552.79358 212.61345,551.34464 214.46875,549.90625 C 216.73107,548.03445 218.82547,545.97209 220.81250,543.81250 C 222.46296,541.94485 224.11925,539.83134 224.43750,537.28125 C 224.53945,535.96287 224.05103,534.60152 223.12500,533.65625 z M 226.43750,535.46875 C 225.45140,544.03550 219.32953,551.93003 208.60931,554.98407 L 208.99209,555.54669 C 222.12946,552.20840 226.47290,544.34991 226.89859,535.66403 L 226.43750,535.46875 z " id="path11822" sodipodi:nodetypes="ccccccccccccccccccccccccccccccccccccccccccccccccccccc" style="fill:#000000;fill-opacity:1.0000000;fill-rule:evenodd;stroke:none;stroke-width:0.99999875px;stroke-linecap:butt;stroke-linejoin:miter;stroke-opacity:1.0000000"/>
      <path d="M 203.93750,553.22837 C 203.93750,553.22837 206.18750,556.47837 209.56250,555.35337 C 212.93750,554.22837 217.81250,551.60337 219.68750,549.60337 C 220.31250,554.47837 237.18750,570.22837 242.43750,570.10337 C 228.93750,573.47837 216.68750,571.35337 203.93750,553.22837 z " id="path14124" sodipodi:nodetypes="ccccc" style="fill:#000000;fill-opacity:0.082352944;fill-rule:evenodd;stroke:none;stroke-width:1.0000000px;stroke-linecap:butt;stroke-linejoin:miter;stroke-opacity:1.0000000"/>
    </g>
  </g>
</svg>
