<?xml version="1.0" encoding="UTF-8" standalone="no"?>
<!DOCTYPE svg PUBLIC "-//W3C//DTD SVG 20010904//EN"
"http://www.w3.org/TR/2001/REC-SVG-20010904/DTD/svg10.dtd">
<!-- Created with Inkscape (http://www.inkscape.org/) --><svg height="297mm" id="svg1" inkscape:version="0.39" sodipodi:docbase="/home/pjj/Documenten" sodipodi:docname="xbox-controller-2.svg" sodipodi:version="0.32" width="210mm" xmlns="http://www.w3.org/2000/svg" xmlns:cc="http://web.resource.org/cc/" xmlns:dc="http://purl.org/dc/elements/1.1/" xmlns:inkscape="http://www.inkscape.org/namespaces/inkscape" xmlns:rdf="http://www.w3.org/1999/02/22-rdf-syntax-ns#" xmlns:sodipodi="http://sodipodi.sourceforge.net/DTD/sodipodi-0.dtd" xmlns:xlink="http://www.w3.org/1999/xlink">
  <metadata>
    <rdf:RDF xmlns:cc="http://web.resource.org/cc/" xmlns:dc="http://purl.org/dc/elements/1.1/" xmlns:rdf="http://www.w3.org/1999/02/22-rdf-syntax-ns#">
      <cc:Work rdf:about="">
        <dc:title>xbox-controller</dc:title>
        <dc:description></dc:description>
        <dc:subject>
          <rdf:Bag>
            <rdf:li>hash</rdf:li>
            <rdf:li></rdf:li>
            <rdf:li>game</rdf:li>
            <rdf:li>computer</rdf:li>
          </rdf:Bag>
        </dc:subject>
        <dc:publisher>
          <cc:Agent rdf:about="http://www.openclipart.org">
            <dc:title>patrick van de schilde</dc:title>
          </cc:Agent>
        </dc:publisher>
        <dc:creator>
          <cc:Agent>
            <dc:title>patrick van de schilde</dc:title>
          </cc:Agent>
        </dc:creator>
        <dc:rights>
          <cc:Agent>
            <dc:title>patrick van de schilde</dc:title>
          </cc:Agent>
        </dc:rights>
        <dc:date></dc:date>
        <dc:format>image/svg+xml</dc:format>
        <dc:type rdf:resource="http://purl.org/dc/dcmitype/StillImage"/>
        <cc:license rdf:resource="http://web.resource.org/cc/PublicDomain"/>
        <dc:language>en</dc:language>
      </cc:Work>
      <cc:License rdf:about="http://web.resource.org/cc/PublicDomain">
        <cc:permits rdf:resource="http://web.resource.org/cc/Reproduction"/>
        <cc:permits rdf:resource="http://web.resource.org/cc/Distribution"/>
        <cc:permits rdf:resource="http://web.resource.org/cc/DerivativeWorks"/>
      </cc:License>
    </rdf:RDF>
  </metadata>
  <defs id="defs3"/>
  <sodipodi:namedview bordercolor="#666666" borderopacity="1.0" id="base" inkscape:cx="278.97801" inkscape:cy="530.44882" inkscape:pageopacity="0.0" inkscape:pageshadow="2" inkscape:window-height="950" inkscape:window-width="1278" inkscape:window-x="0" inkscape:window-y="25" inkscape:zoom="11.313708" pagecolor="#ffffff"/>
  <path d="M 148.27539,339.77657 C 233.20984,387.28228 450.58444,413.19448 580.14546,336.89744 L 636.28857,737.09703 L 475.05707,588.82164 C 422.75281,656.00143 292.71193,669.91724 227.45157,591.70078 L 80.615746,748.61356 L 148.27539,339.77657 z " id="path967" sodipodi:nodetypes="ccccccc" style="fill:#000000;fill-opacity:1.0000000;fill-rule:evenodd;stroke:#000000;stroke-width:1.0000000pt;stroke-linecap:butt;stroke-linejoin:miter;stroke-opacity:1.0000000;"/>
  <path d="M 572.94762 852.26239 A 90.692711 90.692711 0 1 0 391.56220,852.26239 A 90.692711 90.692711 0 1 0 572.94762 852.26239 z" id="path1589" sodipodi:cx="482.25491" sodipodi:cy="852.26239" sodipodi:rx="90.692711" sodipodi:ry="90.692711" sodipodi:type="arc" style="fill:#000000;fill-opacity:0.86740333;fill-rule:evenodd;stroke:#383838;stroke-width:1.0000000pt;stroke-linecap:butt;stroke-linejoin:miter;stroke-opacity:0.68508285;" transform="matrix(0.850238,0.000000,0.000000,0.834474,-60.93671,-231.0565)"/>
  <path d="M 101.46068,662.00923 C 101.37574,663.88258 135.88558,713.67711 134.58002,715.02327 C 133.30568,716.33724 88.432894,677.40913 86.604346,677.32622 C 84.731000,677.24129 34.936471,711.75113 33.590310,710.44557 C 32.276341,709.17123 71.204452,664.29844 71.287354,662.46989 C 71.372287,660.59655 36.862450,610.80202 38.168012,609.45586 C 39.442353,608.14189 84.315138,647.07000 86.143685,647.15290 C 88.017032,647.23783 137.81156,612.72800 139.15772,614.03356 C 140.47169,615.30790 101.54358,660.18068 101.46068,662.00923 z " id="path2211" inkscape:flatsided="false" inkscape:rounded="0.030000000" sodipodi:arg1="-0.015265979" sodipodi:arg2="0.83069556" sodipodi:cx="86.374016" sodipodi:cy="662.23956" sodipodi:r1="15.088420" sodipodi:r2="71.483833" sodipodi:sides="4" sodipodi:type="star" style="fill:#68ff00;fill-opacity:0.75000000;fill-rule:evenodd;stroke:#000000;stroke-width:1.0000000pt;stroke-linecap:butt;stroke-linejoin:miter;stroke-opacity:1.0000000;" transform="matrix(0.941749,-9.357278e-2,9.628552e-2,0.915216,204.7081,-118.5954)"/>
  <path d="M 267.75944 838.58649 A 27.351770 15.115453 0 1 0 213.05590,838.58649 A 27.351770 15.115453 0 1 0 267.75944 838.58649 z" id="path2834" sodipodi:cx="240.40767" sodipodi:cy="838.58649" sodipodi:rx="27.351770" sodipodi:ry="15.115453" sodipodi:type="arc" style="fill:#000000;fill-opacity:1.0000000;fill-rule:evenodd;stroke:#f7f7f7;stroke-width:1.0000000pt;stroke-linecap:butt;stroke-linejoin:miter;stroke-opacity:0.26519337;" transform="translate(70.53878,-240.4077)"/>
  <path d="M 267.75944 838.58649 A 27.351770 15.115453 0 1 0 213.05590,838.58649 A 27.351770 15.115453 0 1 0 267.75944 838.58649 z" id="path3456" sodipodi:cx="240.40767" sodipodi:cy="838.58649" sodipodi:rx="27.351770" sodipodi:ry="15.115453" sodipodi:type="arc" style="fill:#000000;fill-opacity:1.0000000;fill-rule:evenodd;stroke:#f7f7f7;stroke-width:1.0000000pt;stroke-linecap:butt;stroke-linejoin:miter;stroke-opacity:0.26519337;" transform="translate(142.5172,-238.9681)"/>
  <path d="M 292.23209,696.78917 C 292.19479,695.93122 319.60524,691.25576 320.18553,690.62272 C 320.76581,689.98968 323.04461,662.27687 323.90257,662.23957 C 324.76052,662.20227 329.43598,689.61271 330.06902,690.19300 C 330.70206,690.77329 358.41487,693.05209 358.45217,693.91004 C 358.48947,694.76800 331.07903,699.44346 330.49874,700.07650 C 329.91845,700.70954 327.63965,728.42235 326.78170,728.45965 C 325.92374,728.49695 321.24829,701.08651 320.61524,700.50622 C 319.98220,699.92593 292.26940,697.64713 292.23209,696.78917 z " id="path3457" inkscape:flatsided="false" inkscape:rounded="0.030000000" sodipodi:arg1="3.0981418" sodipodi:arg2="3.8835399" sodipodi:cx="325.34213" sodipodi:cy="695.34961" sodipodi:r1="33.141319" sodipodi:r2="6.9952898" sodipodi:sides="4" sodipodi:type="star" style="fill:#ffffff;fill-opacity:0.75000000;fill-rule:evenodd;stroke:#070707;stroke-width:1.0000000pt;stroke-linecap:butt;stroke-linejoin:miter;stroke-opacity:0.32596686;" transform="translate(224.5725,-123.8029)"/>
  <path d="M 427.55137 871.69653 A 35.989174 33.829823 0 1 0 355.57302,871.69653 A 35.989174 33.829823 0 1 0 427.55137 871.69653 z" id="path3458" sodipodi:cx="391.56219" sodipodi:cy="871.69653" sodipodi:rx="35.989174" sodipodi:ry="33.829823" sodipodi:type="arc" style="fill:#000000;fill-opacity:0.86187845;fill-rule:evenodd;stroke:#2e2929;stroke-width:1.0000000pt;stroke-linecap:butt;stroke-linejoin:miter;stroke-opacity:1.0000000;" transform="translate(159.7918,-300.8696)"/>
  <path d="M 292.23209,696.78917 C 292.19479,695.93122 319.60524,691.25576 320.18553,690.62272 C 320.76581,689.98968 323.04461,662.27687 323.90257,662.23957 C 324.76052,662.20227 329.43598,689.61271 330.06902,690.19300 C 330.70206,690.77329 358.41487,693.05209 358.45217,693.91004 C 358.48947,694.76800 331.07903,699.44346 330.49874,700.07650 C 329.91845,700.70954 327.63965,728.42235 326.78170,728.45965 C 325.92374,728.49695 321.24829,701.08651 320.61524,700.50622 C 319.98220,699.92593 292.26940,697.64713 292.23209,696.78917 z " id="path4701" inkscape:flatsided="false" inkscape:rounded="0.030000000" sodipodi:arg1="3.0981418" sodipodi:arg2="3.8835399" sodipodi:cx="325.34213" sodipodi:cy="695.34961" sodipodi:r1="33.141319" sodipodi:r2="6.9952898" sodipodi:sides="4" sodipodi:type="star" style="fill:#ffffff;fill-opacity:0.75000000;fill-rule:evenodd;stroke:#070707;stroke-width:1.0000000pt;stroke-linecap:butt;stroke-linejoin:miter;stroke-opacity:0.32596686;" transform="translate(-139.6379,-266.3200)"/>
  <path d="M 427.55137 871.69653 A 35.989174 33.829823 0 1 0 355.57302,871.69653 A 35.989174 33.829823 0 1 0 427.55137 871.69653 z" id="path4702" sodipodi:cx="391.56219" sodipodi:cy="871.69653" sodipodi:rx="35.989174" sodipodi:ry="33.829823" sodipodi:type="arc" style="fill:#000000;fill-opacity:0.86187845;fill-rule:evenodd;stroke:#2e2929;stroke-width:1.0000000pt;stroke-linecap:butt;stroke-linejoin:miter;stroke-opacity:1.0000000;" transform="translate(-205.8583,-441.9470)"/>
  <path d="M 120.92363,655.04174 C 120.29278,653.54349 164.66145,625.73538 165.64355,624.43993 C 166.62565,623.14448 181.41877,572.91468 183.03171,573.11748 C 184.64465,573.32028 186.54285,625.64872 187.17369,627.14697 C 187.80453,628.64522 223.90826,666.57134 222.92616,667.86679 C 221.94406,669.16224 175.67720,644.64190 174.06425,644.43910 C 172.45131,644.23630 121.55447,656.53999 120.92363,655.04174 z " id="path4704" inkscape:flatsided="false" inkscape:rounded="0.030000000" sodipodi:arg1="2.7430702" sodipodi:arg2="3.7902678" sodipodi:cx="175.62717" sodipodi:cy="632.00867" sodipodi:r1="59.354862" sodipodi:r2="12.528302" sodipodi:sides="3" sodipodi:type="star" style="fill:#fafafa;fill-opacity:0.75000000;fill-rule:evenodd;stroke:#000000;stroke-width:1.0000000pt;stroke-linecap:butt;stroke-linejoin:miter;stroke-opacity:1.0000000;" transform="matrix(0.413573,0.657693,-0.605521,0.380766,506.7921,181.1941)"/>
  <path d="M 385.80393 786.76208 A 46.785923 46.785923 0 1 0 292.23208,786.76208 A 46.785923 46.785923 0 1 0 385.80393 786.76208 z" id="path4703" sodipodi:cx="339.01801" sodipodi:cy="786.76208" sodipodi:rx="46.785923" sodipodi:ry="46.785923" sodipodi:type="arc" style="fill:#000000;fill-opacity:0.88950276;fill-rule:evenodd;stroke:#797979;stroke-width:1.0000000pt;stroke-linecap:butt;stroke-linejoin:miter;stroke-opacity:0.43093923;" transform="translate(-142.5171,-247.6053)"/>
  <path d="M 259.12203 775.24554 A 14.395669 20.873720 0 1 0 230.33070,775.24554 A 14.395669 20.873720 0 1 0 259.12203 775.24554 z" id="path6572" sodipodi:cx="244.72636" sodipodi:cy="775.24554" sodipodi:rx="14.395669" sodipodi:ry="20.873720" sodipodi:type="arc" style="fill:#000000;fill-opacity:0.75000000;fill-rule:evenodd;stroke:#ffffff;stroke-width:1.0000000pt;stroke-linecap:butt;stroke-linejoin:miter;stroke-opacity:0.35911599;" transform="matrix(0.648529,-0.295029,0.344767,0.757863,129.6818,-116.5297)"/>
  <path d="M 259.12203 775.24554 A 14.395669 20.873720 0 1 0 230.33070,775.24554 A 14.395669 20.873720 0 1 0 259.12203 775.24554 z" id="path6573" sodipodi:cx="244.72636" sodipodi:cy="775.24554" sodipodi:rx="14.395669" sodipodi:ry="20.873720" sodipodi:type="arc" style="fill:#20ff00;fill-opacity:0.75000000;fill-rule:evenodd;stroke:#000000;stroke-width:1.0000000pt;stroke-linecap:butt;stroke-linejoin:miter;stroke-opacity:1.0000000;" transform="matrix(0.974556,-0.224142,0.224142,0.974556,107.4187,-200.3788)"/>
  <path d="M 259.12203 775.24554 A 14.395669 20.873720 0 1 0 230.33070,775.24554 A 14.395669 20.873720 0 1 0 259.12203 775.24554 z" id="path6574" sodipodi:cx="244.72636" sodipodi:cy="775.24554" sodipodi:rx="14.395669" sodipodi:ry="20.873720" sodipodi:type="arc" style="fill:#0050ff;fill-opacity:0.75000000;fill-rule:evenodd;stroke:#000000;stroke-width:1.0000000pt;stroke-linecap:butt;stroke-linejoin:miter;stroke-opacity:1.0000000;" transform="matrix(0.974556,-0.224142,0.224142,0.974556,77.18784,-223.4119)"/>
  <path d="M 259.12203 775.24554 A 14.395669 20.873720 0 1 0 230.33070,775.24554 A 14.395669 20.873720 0 1 0 259.12203 775.24554 z" id="path6575" sodipodi:cx="244.72636" sodipodi:cy="775.24554" sodipodi:rx="14.395669" sodipodi:ry="20.873720" sodipodi:type="arc" style="fill:#ffae37;fill-opacity:0.75000000;fill-rule:evenodd;stroke:#000000;stroke-width:1.0000000pt;stroke-linecap:butt;stroke-linejoin:miter;stroke-opacity:1.0000000;" transform="matrix(0.974556,-0.224142,0.224142,0.974556,90.14394,-260.8406)"/>
  <path d="M 259.12203 775.24554 A 14.395669 20.873720 0 1 0 230.33070,775.24554 A 14.395669 20.873720 0 1 0 259.12203 775.24554 z" id="path6576" sodipodi:cx="244.72636" sodipodi:cy="775.24554" sodipodi:rx="14.395669" sodipodi:ry="20.873720" sodipodi:type="arc" style="fill:#ff0000;fill-opacity:0.75000000;fill-rule:evenodd;stroke:#000000;stroke-width:1.0000000pt;stroke-linecap:butt;stroke-linejoin:miter;stroke-opacity:1.0000000;" transform="matrix(0.974556,-0.224142,0.224142,0.974556,120.3748,-237.8075)"/>
  <path d="M 259.12203 775.24554 A 14.395669 20.873720 0 1 0 230.33070,775.24554 A 14.395669 20.873720 0 1 0 259.12203 775.24554 z" id="path7198" sodipodi:cx="244.72636" sodipodi:cy="775.24554" sodipodi:rx="14.395669" sodipodi:ry="20.873720" sodipodi:type="arc" style="fill:#ffffff;fill-opacity:0.75000000;fill-rule:evenodd;stroke:#000000;stroke-width:1.0000000pt;stroke-linecap:butt;stroke-linejoin:miter;stroke-opacity:1.0000000;" transform="matrix(0.648529,-0.295029,0.344767,0.757863,98.01131,-119.4088)"/>
  <path d="M 335.37977,387.25641 C 338.40282,378.73564 350.27966,372.76290 357.30508,367.96943 C 372.31681,357.93892 380.96701,345.92445 377.73895,327.31159 C 369.28646,296.47442 342.10199,274.22693 323.86798,249.07112 C 299.92312,212.71882 301.31187,182.58312 335.12598,153.67928 C 363.35370,132.40963 396.16244,119.36382 425.61843,100.14855 C 429.56558,97.398437 433.79849,94.634549 436.46647,90.529646 L 451.64825,95.441919 C 447.61061,100.71925 442.36402,104.40185 436.86331,108.03930 C 407.43976,126.35579 375.02104,139.07761 347.14726,159.96543 C 316.76042,185.89993 316.16799,211.99625 337.55648,244.63734 C 356.77988,271.13337 384.37282,293.62091 393.47338,326.07428 C 397.43403,348.28437 387.19932,363.60839 369.24165,375.73572 C 365.54901,378.28708 351.68294,390.63776 352.73320,387.25641 L 335.37977,387.25641 z " id="path938" style="fill:#000000;fill-opacity:1.0000000;fill-rule:nonzero;stroke:none;stroke-width:1.0000000pt;stroke-linecap:butt;stroke-linejoin:miter;stroke-opacity:1.0000000;"/>
</svg>
