<?xml version="1.0" encoding="UTF-8" standalone="no"?>
<!DOCTYPE svg PUBLIC "-//W3C//DTD SVG 20010904//EN"
"http://www.w3.org/TR/2001/REC-SVG-20010904/DTD/svg10.dtd">
<!-- Created with Inkscape (http://www.inkscape.org/) --><svg height="437.5" id="svg1" inkscape:version="0.37" sodipodi:docbase="/usr/share/icons/Lemon/scalable/mimetypes" sodipodi:docname="file_important.svg" sodipodi:version="0.32" version="1.0" width="437.5" x="0" xmlns="http://www.w3.org/2000/svg" xmlns:inkscape="http://www.inkscape.org/namespaces/inkscape" xmlns:sodipodi="http://sodipodi.sourceforge.net/DTD/sodipodi-0.dtd" xmlns:xlink="http://www.w3.org/1999/xlink" y="0">
  <metadata>
    <rdf:RDF xmlns:cc="http://web.resource.org/cc/" xmlns:dc="http://purl.org/dc/elements/1.1/" xmlns:rdf="http://www.w3.org/1999/02/22-rdf-syntax-ns#">
      <cc:Work rdf:about="">
        <dc:title>Lemon SVG theme</dc:title>
        <dc:description></dc:description>
        <dc:subject>
          <rdf:Bag>
            <rdf:li>icon</rdf:li>
            <rdf:li></rdf:li>
            <rdf:li>lemon_theme_icon</rdf:li>
            <rdf:li>mimetypes</rdf:li>
            <rdf:li>icons</rdf:li>
            <rdf:li>hash</rdf:li>
            <rdf:li>computer</rdf:li>
            <rdf:li>theme</rdf:li>
          </rdf:Bag>
        </dc:subject>
        <dc:publisher>
          <cc:Agent rdf:about="http://www.openclipart.org">
            <dc:title>Jose Hevia</dc:title>
          </cc:Agent>
        </dc:publisher>
        <dc:creator>
          <cc:Agent>
            <dc:title>Jose Hevia</dc:title>
          </cc:Agent>
        </dc:creator>
        <dc:rights>
          <cc:Agent>
            <dc:title>Jose Hevia</dc:title>
          </cc:Agent>
        </dc:rights>
        <dc:date></dc:date>
        <dc:format>image/svg+xml</dc:format>
        <dc:type rdf:resource="http://purl.org/dc/dcmitype/StillImage"/>
        <cc:license rdf:resource="http://web.resource.org/cc/PublicDomain"/>
        <dc:language>en</dc:language>
      </cc:Work>
      <cc:License rdf:about="http://web.resource.org/cc/PublicDomain">
        <cc:permits rdf:resource="http://web.resource.org/cc/Reproduction"/>
        <cc:permits rdf:resource="http://web.resource.org/cc/Distribution"/>
        <cc:permits rdf:resource="http://web.resource.org/cc/DerivativeWorks"/>
      </cc:License>
    </rdf:RDF>
  </metadata>
  <sodipodi:namedview id="base" inkscape:cx="175.000000" inkscape:cy="175.000000" inkscape:window-height="549" inkscape:window-width="400" inkscape:window-x="0" inkscape:window-y="0" inkscape:zoom="0.87142857"/>
  <defs id="defs3">
    <linearGradient id="linearGradient842">
      <stop id="stop843" offset="0" style="stop-color:#0c6700;stop-opacity:1;"/>
      <stop id="stop844" offset="1" style="stop-color:#a7daaf;stop-opacity:1;"/>
    </linearGradient>
    <linearGradient id="linearGradient53">
      <stop id="stop54" offset="0" style="stop-color:#f0ff00;stop-opacity:1;"/>
      <stop id="stop55" offset="1" style="stop-color:#176f00;stop-opacity:1;"/>
    </linearGradient>
    <linearGradient id="linearGradient48">
      <stop id="stop49" offset="0" style="stop-color:#000000;stop-opacity:0.7294;"/>
      <stop id="stop50" offset="1" style="stop-color:#000000;stop-opacity:0;"/>
    </linearGradient>
    <linearGradient id="linearGradient51" x1="0.51104099" x2="0.880126" xlink:href="#linearGradient842" y1="0.60526901" y2="0.80701798"/>
    <linearGradient id="linearGradient52" x1="0" x2="1" xlink:href="#linearGradient53" y1="0" y2="1"/>
    <radialGradient cx="0.5" cy="0.5" fx="0.5" fy="0.5" id="radialGradient577" r="0.5" xlink:href="#linearGradient48"/>
    <radialGradient cx="0.56782299" cy="0.63158399" fx="0.54574102" fy="0.81579" id="radialGradient845" r="0.309724" xlink:href="#linearGradient842"/>
    <radialGradient cx="0.41444901" cy="0.47657499" fx="0.33460101" fy="0.609375" id="radialGradient846" r="0.45242199" xlink:href="#linearGradient842"/>
    <radialGradient cx="0.74736798" cy="0.148334" fx="0.57894802" fy="0.265625" id="radialGradient614" r="0.70696199" xlink:href="#linearGradient48"/>
  </defs>
  <path d="M 101.5127 420.188 L 82.01019 39.88373 L 408.8876 40.90115 C 408.8722 60.96184 414.585 400.853 414.78 417.4865 C 311.7153 396.992 110.8576 420.0548 101.5127 420.188 z " id="path623" sodipodi:nodetypes="ccccc" style="font-size:12;fill:#040565;fill-rule:evenodd;stroke:none;stroke-width:15.89208;fill-opacity:0.3977;"/>
  <path d="M 54.37216 394.6536 C 48.52615 268.5402 46.60833 69.75189 36.83384 16.31348 C 143.1741 31.71139 294.5897 3.224144 361.7471 15.36671 C 341.7227 74.03969 365.4803 375.3186 365.6753 391.9521 C 262.6106 371.4576 54.80493 403.9895 54.37216 394.6536 z " id="path583" sodipodi:nodetypes="ccccs" style="font-size:12;fill:#ffffeb;fill-rule:evenodd;stroke:#98bf99;stroke-width:15.89208;stroke-opacity:1;"/>
  <path d="M 75.97822 367.155 C 60.71195 299.0419 61.92971 44.01299 62.39866 35.00858 C 163.0574 53.28568 305.043 31.66805 322.9707 32.02694 L 322.4633 56.61465 C 322.4479 76.67534 248.8135 200.3185 249.0085 216.9519 C 145.9438 196.4574 85.32316 367.0218 75.97822 367.155 z " id="path622" sodipodi:nodetypes="cccccc" style="font-size:12;fill:#b2d385;fill-rule:evenodd;stroke:none;stroke-width:15.89208;fill-opacity:0.4327;"/>
  <path d="M 209.9394 41.10144 L 209.9394 41.10144 L 360.0166 328.335 L 360.0166 328.335 L 59.86088 328.3339 L 59.86088 328.3339 L 209.9394 41.10144 z " id="path587" style="font-size:12;fill:#f0db00;fill-rule:evenodd;stroke:#4c4d4d;stroke-width:15.08635;stroke-linecap:round;stroke-linejoin:round;stroke-opacity:1;"/>
  <path d="M 182.9293 277.1191 C 182.9293 263.4642 193.0443 252.3948 205.5216 252.3948 C 217.9988 252.3948 228.1138 263.4642 228.1138 277.1191 C 228.1138 290.7741 217.9988 301.8433 205.5216 301.8433 C 193.0443 301.8433 182.9293 290.7741 182.9293 277.1191 z " id="path641" style="font-size:12;fill-opacity:1;fill-rule:evenodd;"/>
  <path d="M 234.6909 138.8878 C 232.8066 154.6045 220.4772 226.3533 220.1326 234.0067 C 218.418 246.7759 191.0884 246.7759 190.0707 234.0067 C 189.5059 226.4082 179.7681 156.8539 177.7357 138.8878 C 175.7016 120.9066 236.725 121.92 234.6909 138.8878 z " id="path603" style="font-size:12;fill-opacity:1;stroke-width:1;"/>
</svg>
