<?xml version="1.0" encoding="UTF-8" standalone="no"?>
<!DOCTYPE svg PUBLIC "-//W3C//DTD SVG 20010904//EN"
"http://www.w3.org/TR/2001/REC-SVG-20010904/DTD/svg10.dtd">
<!-- Created with Inkscape (http://www.inkscape.org/) --><svg height="437.5" id="svg1" inkscape:version="0.37" sodipodi:docbase="/usr/share/icons/Lemon/scalable/mimetypes" sodipodi:docname="mime_install.svg" sodipodi:version="0.32" version="1.0" width="437.5" x="0" xmlns="http://www.w3.org/2000/svg" xmlns:inkscape="http://www.inkscape.org/namespaces/inkscape" xmlns:sodipodi="http://sodipodi.sourceforge.net/DTD/sodipodi-0.dtd" xmlns:xlink="http://www.w3.org/1999/xlink" y="0">
  <metadata>
    <rdf:RDF xmlns:cc="http://web.resource.org/cc/" xmlns:dc="http://purl.org/dc/elements/1.1/" xmlns:rdf="http://www.w3.org/1999/02/22-rdf-syntax-ns#">
      <cc:Work rdf:about="">
        <dc:title>Lemon SVG theme</dc:title>
        <dc:description></dc:description>
        <dc:subject>
          <rdf:Bag>
            <rdf:li>icon</rdf:li>
            <rdf:li></rdf:li>
            <rdf:li>lemon_theme_icon</rdf:li>
            <rdf:li>mimetypes</rdf:li>
            <rdf:li>icons</rdf:li>
            <rdf:li>hash</rdf:li>
            <rdf:li>computer</rdf:li>
            <rdf:li>theme</rdf:li>
          </rdf:Bag>
        </dc:subject>
        <dc:publisher>
          <cc:Agent rdf:about="http://www.openclipart.org">
            <dc:title>Jose Hevia</dc:title>
          </cc:Agent>
        </dc:publisher>
        <dc:creator>
          <cc:Agent>
            <dc:title>Jose Hevia</dc:title>
          </cc:Agent>
        </dc:creator>
        <dc:rights>
          <cc:Agent>
            <dc:title>Jose Hevia</dc:title>
          </cc:Agent>
        </dc:rights>
        <dc:date></dc:date>
        <dc:format>image/svg+xml</dc:format>
        <dc:type rdf:resource="http://purl.org/dc/dcmitype/StillImage"/>
        <cc:license rdf:resource="http://web.resource.org/cc/PublicDomain"/>
        <dc:language>en</dc:language>
      </cc:Work>
      <cc:License rdf:about="http://web.resource.org/cc/PublicDomain">
        <cc:permits rdf:resource="http://web.resource.org/cc/Reproduction"/>
        <cc:permits rdf:resource="http://web.resource.org/cc/Distribution"/>
        <cc:permits rdf:resource="http://web.resource.org/cc/DerivativeWorks"/>
      </cc:License>
    </rdf:RDF>
  </metadata>
  <sodipodi:namedview id="base" inkscape:cx="182.495732" inkscape:cy="136.323663" inkscape:window-height="549" inkscape:window-width="400" inkscape:window-x="0" inkscape:window-y="0" inkscape:zoom="1.23238610"/>
  <defs id="defs3">
    <linearGradient id="linearGradient635">
      <stop id="stop636" offset="0.00000000" style="stop-color:#94ff00;stop-opacity:0.655738;"/>
      <stop id="stop637" offset="1.00000000" style="stop-color:#00a900;stop-opacity:0.631148;"/>
    </linearGradient>
    <linearGradient id="linearGradient607">
      <stop id="stop608" offset="0" style="stop-color:#000000;stop-opacity:0.6353;"/>
      <stop id="stop609" offset="1" style="stop-color:#ffff00;stop-opacity:0;"/>
    </linearGradient>
    <linearGradient id="linearGradient602">
      <stop id="stop603" offset="0" style="stop-color:#000000;stop-opacity:1;"/>
      <stop id="stop604" offset="1" style="stop-color:#000000;stop-opacity:0;"/>
    </linearGradient>
    <linearGradient id="linearGradient610">
      <stop id="stop611" offset="0" style="stop-color:#003a00;stop-opacity:1;"/>
      <stop id="stop612" offset="1" style="stop-color:#ffffff;stop-opacity:1;"/>
    </linearGradient>
    <linearGradient id="linearGradient587">
      <stop id="stop588" offset="0" style="stop-color:#00d500;stop-opacity:1;"/>
      <stop id="stop589" offset="1" style="stop-color:#ffff00;stop-opacity:0;"/>
    </linearGradient>
    <linearGradient id="linearGradient581">
      <stop id="stop582" offset="0" style="stop-color:#003d00;stop-opacity:0.3843;"/>
      <stop id="stop583" offset="1" style="stop-color:#ffffad;stop-opacity:1;"/>
    </linearGradient>
    <linearGradient id="linearGradient578">
      <stop id="stop579" offset="0" style="stop-color:#d10045;stop-opacity:1;"/>
      <stop id="stop580" offset="1" style="stop-color:#ffffff;stop-opacity:0;"/>
    </linearGradient>
    <linearGradient id="linearGradient59">
      <stop id="stop60" offset="0" style="stop-color:#6b5a00;stop-opacity:1;"/>
      <stop id="stop61" offset="1" style="stop-color:#ffef9f;stop-opacity:1;"/>
    </linearGradient>
    <linearGradient id="linearGradient62" x1="0.29697001" x2="0.254545" xlink:href="#linearGradient59" y1="0.890625" y2="0.625"/>
    <linearGradient id="linearGradient66" x1="0.74545401" x2="0.76363599" xlink:href="#linearGradient59" y1="8.59388933e-2" y2="0.30468801"/>
    <linearGradient id="linearGradient71" x1="0.169697" x2="0.59393901" xlink:href="#linearGradient587" y1="0.78906399" y2="0.88281298"/>
    <linearGradient id="linearGradient75" x1="1.00740695" x2="0.118519" xlink:href="#linearGradient610" y1="0.94531399" y2="7.81250373e-2"/>
    <linearGradient id="linearGradient79" x1="0.83030301" x2="0.309091" xlink:href="#linearGradient587" y1="0.64843702" y2="0.46093801"/>
    <linearGradient id="linearGradient73" x1="0.369697" x2="1.02424204" xlink:href="#linearGradient607" y1="0.14843801" y2="1"/>
    <linearGradient id="linearGradient495" x1="0.50803822" x2="0.51125365" xlink:href="#linearGradient635" y1="0.19999948" y2="0.88000041"/>
    <linearGradient id="linearGradient505" x1="2.72027094e-8" x2="1" xlink:href="#linearGradient578" y1="-3.52392213e-8" y2="-3.52392213e-8"/>
    <linearGradient id="linearGradient509" x1="1.56922599e-8" x2="1" xlink:href="#linearGradient635" y1="3.69521587e-8" y2="3.69521587e-8"/>
    <radialGradient cx="0.48874599" cy="0.46000299" fx="0.48874599" fy="0.46000299" id="radialGradient595" r="0.43292901" xlink:href="#linearGradient602"/>
    <radialGradient cx="0.5" cy="0.5" fx="0.5" fy="0.5" id="radialGradient597" r="0.5" xlink:href="#linearGradient602"/>
    <linearGradient id="linearGradient634" x1="-5.09652303e-8" x2="1" xlink:href="#linearGradient635" y1="-4.45355894e-8" y2="-4.45355894e-8"/>
    <linearGradient id="linearGradient620" x1="-5.6498628e-9" x2="1" xlink:href="#linearGradient602" y1="3.53284015e-8" y2="3.53284015e-8"/>
  </defs>
  <path d="M 101.5127 420.188 L 82.01019 39.88373 L 408.8876 40.90115 C 408.8722 60.96184 414.585 400.853 414.78 417.4865 C 311.7153 396.992 110.8576 420.0548 101.5127 420.188 z " id="path623" sodipodi:nodetypes="ccccc" style="font-size:12;fill:#040565;fill-rule:evenodd;stroke:none;stroke-width:15.89208;fill-opacity:0.3977;"/>
  <path d="M 54.37216 394.6536 C 48.52615 268.5402 46.60833 69.75189 36.83384 16.31348 C 143.1741 31.71139 294.5897 3.224144 361.7471 15.36671 C 341.7227 74.03969 365.4803 375.3186 365.6753 391.9521 C 262.6106 371.4576 54.80493 403.9895 54.37216 394.6536 z " id="path583" sodipodi:nodetypes="ccccs" style="font-size:12;fill:#ffffeb;fill-rule:evenodd;stroke:#99bf99;stroke-width:15.89208;stroke-opacity:1;"/>
  <path d="M 75.97822 367.155 C 60.71195 299.0419 61.92971 44.01299 62.39866 35.00858 C 163.0574 53.28568 305.043 31.66805 322.9707 32.02694 L 322.4633 56.61465 C 322.4479 76.67534 248.8135 200.3185 249.0085 216.9519 C 145.9438 196.4574 85.32316 367.0218 75.97822 367.155 z " id="path622" sodipodi:nodetypes="cccccc" style="font-size:12;fill:#b2d385;fill-rule:evenodd;stroke:none;stroke-width:15.89208;fill-opacity:0.4327;"/>
  <path d="M 309.5873 344.59895 C 323.55465 344.42462 330.6478 330.8366 337.7045 319.3068 C 338.0459 286.8317 338.0924 132.5137 338.7087 106.9266 C 339.4031 86.16914 331.5372 66.23869 314.6083 65.85865 C 287.2987 65.85865 121.1082 64.07188 100.7185 64.68529 C 87.75809 64.55149 80.74934 83.40403 79.63077 101.0598 C 77.43742 110.03 78.17463 302.375 79.63076 321.6537 C 79.02829 339.7778 93.78237 343.6946 104.7352 343.9478 C 115.6976 348.4686 300.37739 346.13042 309.5873 344.59895 z " id="path591" sodipodi:nodetypes="ccccccccs" style="font-size:12;fill:#ffff78;fill-opacity:0.421875;fill-rule:evenodd;stroke:#73aa00;stroke-width:9.645299;stroke-opacity:0.445312;"/>
  <path d="M 332.6044 107.8026 C 335.242 83.23051 323.9873 70.85133 313.5832 69.67709 C 275.5844 69.54945 144.3851 67.31373 99.87557 68.60882 C 87.24591 68.34091 83.34272 94.99027 84.49673 106.9934 C 106.8437 106.85 303.8531 106.6 332.6044 107.8026 z " id="path682" style="font-size:12;fill:url(#linearGradient495);fill-opacity:1;fill-rule:evenodd;"/>
  <path d="M 99.989703 124.54898 L 99.989703 239.30307 L 316.58806 239.30307 L 316.58806 124.54898 L 99.989703 124.54898 z " id="path632" style="font-size:12;fill:#000000;fill-opacity:0.75;fill-rule:evenodd;stroke:none;stroke-width:1pt;"/>
  <path d="M 92.889655 115.42035 L 92.889655 230.17444 L 309.48801 230.17444 L 309.48801 115.42035 L 92.889655 115.42035 z " id="path625" style="font-size:12;fill:#ffff71;fill-opacity:0.75;fill-rule:evenodd;stroke:none;stroke-width:1pt;"/>
  <path d="M 99.378462 271.5199 L 99.378462 297.06677 L 235.44466 297.06677 L 235.44466 271.5199 L 99.378462 271.5199 z " id="path626" style="font-size:12;fill:#000000;fill-opacity:0.75;fill-rule:evenodd;stroke:none;stroke-width:1pt;"/>
  <path d="M 94.918241 267.56423 L 94.918241 290.24226 L 230.98443 290.24226 L 230.98443 267.56423 L 94.918241 267.56423 z " id="path627" style="font-size:12;fill:#ffff71;fill-opacity:0.75;fill-rule:evenodd;stroke:none;stroke-width:1pt;"/>
  <path d="M 231.65984 283.29918 L 313.42213 283.29918 " id="path628" style="fill:none;fill-rule:evenodd;stroke:black;stroke-opacity:1;stroke-width:5;stroke-linejoin:miter;stroke-linecap:butt;fill-opacity:0.75;stroke-dasharray:none;"/>
</svg>
