<?xml version="1.0" standalone="no"?>
<!DOCTYPE svg PUBLIC "-//W3C//DTD SVG 1.1//EN" "http://www.w3.org/Graphics/SVG/1.1/DTD/svg11.dtd">
<svg viewBox="0 0 240.0 162.0" xmlns="http://www.w3.org/2000/svg">
  <metadata>
    <rdf:RDF xmlns:cc="http://web.resource.org/cc/" xmlns:dc="http://purl.org/dc/elements/1.1/" xmlns:rdf="http://www.w3.org/1999/02/22-rdf-syntax-ns#">
      <cc:Work rdf:about="">
        <dc:title>BPOE</dc:title>
        <dc:description> Benevolent and Protective Order of the Elks of the USA</dc:description>
        <dc:subject>
          <rdf:Bag>
            <rdf:li>symbol</rdf:li>
            <rdf:li>lodge</rdf:li>
            <rdf:li>elks</rdf:li>
            <rdf:li>elk</rdf:li>
          </rdf:Bag>
        </dc:subject>
        <dc:publisher>
          <cc:Agent rdf:about="http://www.openclipart.org/">
            <dc:title>Open Clip Art Library</dc:title>
          </cc:Agent>
        </dc:publisher>
        <dc:creator>
          <cc:Agent>
            <dc:title>Tom Hung</dc:title>
          </cc:Agent>
        </dc:creator>
        <dc:rights>
          <cc:Agent>
            <dc:title>Tom Hung</dc:title>
          </cc:Agent>
        </dc:rights>
        <dc:date></dc:date>
        <dc:format>image/svg+xml</dc:format>
        <dc:type rdf:resource="http://purl.org/dc/dcmitype/StillImage"/>
        <cc:license rdf:resource="http://web.resource.org/cc/PublicDomain"/>
        <dc:language>en</dc:language>
      </cc:Work>
      <cc:License rdf:about="http://web.resource.org/cc/PublicDomain">
        <cc:permits rdf:resource="http://web.resource.org/cc/Reproduction"/>
        <cc:permits rdf:resource="http://web.resource.org/cc/Distribution"/>
        <cc:permits rdf:resource="http://web.resource.org/cc/DerivativeWorks"/>
      </cc:License>
    </rdf:RDF>
  </metadata>
  <rect fill="#FFFFFF" height="162.0" width="240.0"/>
  <path d="M45 33C44.6893 26.3135 41.9703 22.1078 36 19C37.976 28.2092 38.8191 31.1979 35 40C33.084 37.6413 31.6277 34.6894 29.5054 32.5332C23.4326 26.3634 17.088 32.5837 14.9198 39C10.337 52.5617 19.418 64.355 18.3565 77C18.0133 81.0874 14.046 83.8468 11 86L15 95L21 93L19 108L28 106L30 112C24.8145 114.331 22.3873 117.515 21 123L20 123C17.2228 118.464 10.4226 118.269 7.57253 123.225C4.70505 128.21 5.91682 135.596 9.41898 139.91C18.05 150.541 25.4569 144.853 36 143.388C42.0661 142.545 48.6925 145.344 55 144.91C59.8591 144.576 65.8694 141.544 70.5756 142.221C76.4952 143.072 83.6565 150.094 89 152.971C96.9006 157.224 108.061 158.979 117 158.741C127.47 158.461 140.8 156.878 150 151.662C155.718 148.42 161.551 141.474 167.665 139.455C171.029 138.344 175.62 141.196 179 141.699C192.23 143.669 204.388 143.092 214 154C219.603 149.333 217.107 144.936 215 139C238.381 135.48 239.099 99.2596 214 99.3403C196.028 99.3981 196.255 117.899 182 125L182 127C190.874 130.323 195.496 126.522 204 124.97C206.874 124.445 211.894 126.087 213.929 123.258C215.716 120.774 213.15 114.937 213 112C228.289 110.564 220.739 125.314 211.91 129.468C199.326 135.388 187.693 132.254 175 130C178.802 118.752 189.328 110.061 188 97C196.979 95.8405 212.768 96.6736 217 87L206 88C200.365 98.2193 182.833 92.7225 174 92L176 85C181.652 87.6415 187.706 89.9539 193.995 88.2353C203.938 85.5185 198.447 78.6556 191 78C197.591 67.0091 207.276 84.8323 213 87L203.957 75.4421L190.985 70.6821L179 41C190.144 38.701 206.749 36.7016 215.96 45.1335C218.838 47.7686 223.479 52.6309 222.289 56.9807C221.148 61.1494 215.026 63.6257 212.103 59.7716C210.107 57.1408 211.747 52.9734 212 50L188 45C192.771 53.4817 200.734 67.1184 210.015 71.186C223.408 77.0558 234.608 63.7444 232.695 51C230.69 37.6387 218.095 40.1593 210.564 32.3511C207.158 28.819 207.654 21.5392 206 17L204 17C198.375 26.2935 186.649 34.0912 175 30.358C167.808 28.0532 161.394 20.2099 154.576 16.5556C135.287 6.21852 112.374 1.50447 91 8.10417C77.9783 12.1249 70.2384 24.0122 58.9853 30.4861C54.9105 32.8304 49.5116 31.9259 45 33M163 36L142 31.3287L124 37L117 16L112 38C103.552 34.9256 96.4027 30.5552 87 32.8472C78.3987 34.9439 75.1835 42.1314 66 41C68.1855 37.7628 70.5883 38.9714 74 40L69 37C86.951 8.27917 145.155 4.33871 163 36M205 21L207 31L204 33C211.733 35.8398 221.967 37.429 227.567 44.1327C235.818 54.0106 228.745 71.7896 215 69.6559C204.597 68.0409 197.988 54.1868 193 46L204 50L204 54L209 52C205.98 64.8773 222.823 68.0746 224.612 55.9853C226.012 46.5253 213.863 38.9541 206 37.4676C179.383 32.4358 150.057 44.988 162 76L163 76L161 58C166.224 61.9589 165.996 71.9692 166 78L165 78L163 76C168.2 86.2533 161.36 94.0115 159.379 104C157.829 111.812 161.282 119.023 166 125C162.37 127.872 158.129 131.77 157 125L145 130L158 88L152 100C143.75 101.725 137.245 104.494 129 101L133 106L121 106L121 98C140.396 98.9971 147.422 84.885 138 69C142.508 65.0348 142.328 60.6443 142 55L141 55C136.512 63.2173 129.399 63 121 63C125.024 48.7139 128.071 38.7175 145 44L145 49C148.963 46.8074 148.728 44.1848 148 40C156.991 45.3876 149.279 54.351 149.403 63.0039C149.54 72.6257 155.447 80.6097 163 86C159.541 81.4557 155.24 77.5036 153.305 72C148.04 57.0253 156.361 39.5345 171 33.6782C184.637 28.223 193.656 33.1889 205 21M42 26L43 35L56 33L41 48L48 45L48 44L45 46L44 46L50 41L48 45C49.3291 51.9818 41.089 59.8025 36.179 51.7716C32.4923 45.7416 39.5489 31.8391 42 26M28 70L28.7901 53L25 37L23 37C15.1033 61.911 36.0627 84.9173 39 109L40 109L39 99L64 133L64 134L40 136L42 121L47 123L48 114L47 114L47 119C43.4798 118.135 39.1709 115.36 43 112L43 111L41 109L40 109L39 135C28.5606 129.386 37.5791 109.093 27 100L22 104C26.498 85.7421 17.2274 72.5898 16.0262 55C15.5435 47.9313 14.8776 39.6805 20.5185 34.3187C25.4261 29.6539 30.4608 35.0207 31.6991 40.0394C33.8808 48.8817 33.3881 62.4325 28 70M93 39L93 40L87 45C97.4549 43.0302 120.921 46.1517 112.397 63.581C110.094 68.2896 101.463 70.0031 98.1088 75.0147C89.1648 88.3769 100.075 107.298 115 110C114.286 123.939 104.686 131.648 97 142L113 138L118 148C108.606 147.994 99.6557 145.915 91 142.212C87.4082 140.676 83.6012 136.072 79.8302 135.548C76.0701 135.025 70.7887 139.533 67 140.521C57.2468 143.064 46.5646 143.547 37 140.095C27.771 136.764 14.3085 115.905 31 114C30.9827 120.283 29.0225 127.316 33.4707 132.62C44.848 146.189 75.2551 135.833 81.5826 122C85.7364 112.919 81.1889 104.379 78 96C89.3156 93.9083 88.2025 112.001 94 118C91.0497 108.789 89.326 99.7661 82 93L82 92C88.1007 84.771 90.9741 76.3939 91 67L106 65C103.861 57.2103 101.269 48.7448 93 46C96.7762 51.27 95.5007 55.3726 93 61L91 61L80 42L93 39M24 41C27.0601 47.5823 28.2418 54.2636 25 61L24 61L24 41M81 66C80.9935 74.4585 78.0187 79.7457 74 87L70 86L67 91C62.4909 86.1525 42.9566 76.7077 40.902 89.0154C40.4842 91.5182 42.4032 94.5885 43 97C34.6943 93.3638 34.0021 83.1808 43.1705 79.8503C50.0863 77.3381 57.3441 80.2207 64 82L64 81L52 78C52.2728 64.7821 57.4915 53.2275 64 42C74.3746 44.1451 69.6968 60.7108 81 66M80 44C91.1 56.5047 94.5074 77.111 81.9815 90.2508C76.6691 95.8235 58.4933 106.557 54 96C70.1611 95.2936 84.4745 81.7108 82.8295 65C82.1481 58.0788 75.703 50.2999 80 44M172 45C175.632 54.3642 181.947 65.7419 179 76C174.189 69.5348 170.093 53.0704 169 45L172 45M35 53L45 60L43 79L34 86C28.1995 76.8279 29.4195 62.3135 35 53M79 55L79 58L78 58L79 55M115 71L115 79C106.12 83.1343 107.831 92.1556 116 96L116 104C101.359 103.198 101.734 90.9837 104 80L103 80L100 86C96.2374 76.75 107.58 71.611 115 71M120 93L121 84L127 83L127 80C121.903 78.4352 121.061 76.1223 121 71C130.145 71.3987 149.549 81.9283 134.981 90.9907C130.576 93.7309 124.956 93 120 93M180 77L177 83L180 77M192 79C199.137 81.6814 198.67 85.7774 191 87L192 79M122 81L121 82L122 81M21 82C20.8491 86.6509 19.7295 89.1587 16 92C14.1655 86.8444 16.0602 84.0084 21 82M64 82L64 83L70 86L64 82M116 84L116 90C113.047 88.2856 112.907 87.1906 114 84L116 84M66 92L54 95L53 86C58.2313 86.4596 62.5324 87.9657 66 92M158 88L161 87L158 88M178 95C177.965 105.306 172.124 112.938 168 122C155.455 114.744 166.684 95.8915 178 95M57 103C62.1523 102.89 72.1897 97.7303 76.6065 100.121C86.9342 105.712 78.5762 137.192 66.8356 122.71C64.7043 120.081 63.0043 116.922 61.3086 114C59.2372 110.431 57.6368 107.083 57 103M209 138C213.274 142.14 216.777 144.754 215 151L203 142.483L169 137C170.086 134.232 171.484 130.859 175.04 130.952C178.895 131.053 183.11 133.683 187 134.384C197.053 136.197 227.918 131.759 224.869 115.715C222.462 103.047 209.256 110.242 211 121L210 122L203 117C199.228 124.206 193.723 125.978 186 126L186 125L205 107L199 108C210.78 90.2044 240.16 107.539 227.529 126.96C225.62 129.896 222.957 131.947 219.985 133.715C216.399 135.849 213.166 137.548 209 138M43 112L43 113L47 114L47 113L43 112M149 112C148.058 116.503 140.406 128.759 145.167 131.542C149.85 134.28 154.492 129.21 158 134C145.552 139.547 135.065 150.539 120 148L124 137C130.655 139.849 133.896 141.216 141 139L141 138C131.59 135.43 124.384 123.201 123 114L149 112M94 118L99 122L92 126L91 130L89 130L88 127L81 134C89.7786 132.331 110.121 128.245 94 118M18 128L13 127L13 134L23 130L27 135L25 137L25 138L32 141C21.3953 146.103 2.63868 139.824 8.6034 125.059C11.2318 118.552 19.2338 121.464 18 128M14 134C16.4415 138.652 20.0724 138.955 25 139L25 138z" fill="#000000" stroke="none"/>
</svg>
