<?xml version="1.0" encoding="UTF-8" standalone="no"?>
<!-- Created with Inkscape (http://www.inkscape.org/) --><svg height="687.50000" id="svg2" version="1.0" width="562.50000" x="0.00000000" xmlns="http://www.w3.org/2000/svg" xmlns:svg="http://www.w3.org/2000/svg" xmlns:xlink="http://www.w3.org/1999/xlink" y="0.00000000">
  <metadata>
    <rdf:RDF xmlns:cc="http://web.resource.org/cc/" xmlns:dc="http://purl.org/dc/elements/1.1/" xmlns:rdf="http://www.w3.org/1999/02/22-rdf-syntax-ns#">
      <cc:Work rdf:about="">
        <dc:title>cake1</dc:title>
        <dc:description>wedding cake</dc:description>
        <dc:subject>
          <rdf:Bag>
            <rdf:li>dessert</rdf:li>
            <rdf:li>food</rdf:li>
            <rdf:li>wedding</rdf:li>
            <rdf:li>cake</rdf:li>
          </rdf:Bag>
        </dc:subject>
        <dc:publisher>
          <cc:Agent rdf:about="http://www.openclipart.org/">
            <dc:title>Open Clip Art Library</dc:title>
          </cc:Agent>
        </dc:publisher>
        <dc:creator>
          <cc:Agent>
            <dc:title>Jarno Vasamaa</dc:title>
          </cc:Agent>
        </dc:creator>
        <dc:rights>
          <cc:Agent>
            <dc:title>Jarno Vasamaa</dc:title>
          </cc:Agent>
        </dc:rights>
        <dc:date></dc:date>
        <dc:format>image/svg+xml</dc:format>
        <dc:type rdf:resource="http://purl.org/dc/dcmitype/StillImage"/>
        <cc:license rdf:resource="http://web.resource.org/cc/PublicDomain"/>
        <dc:language>en</dc:language>
      </cc:Work>
      <cc:License rdf:about="http://web.resource.org/cc/PublicDomain">
        <cc:permits rdf:resource="http://web.resource.org/cc/Reproduction"/>
        <cc:permits rdf:resource="http://web.resource.org/cc/Distribution"/>
        <cc:permits rdf:resource="http://web.resource.org/cc/DerivativeWorks"/>
      </cc:License>
    </rdf:RDF>
  </metadata>
  <defs id="defs3">
    <linearGradient id="linearGradient2340">
      <stop id="stop2342" offset="0.00000000" style="stop-color:#7d92b9;stop-opacity:0.92941177;"/>
      <stop id="stop2348" offset="0.50000000" style="stop-color:#9fdeff;stop-opacity:1.0000000;"/>
      <stop id="stop2350" offset="0.78260869" style="stop-color:#ffffff;stop-opacity:1.0000000;"/>
      <stop id="stop2344" offset="1.0000000" style="stop-color:#ffffff;stop-opacity:1.0000000;"/>
    </linearGradient>
    <linearGradient id="linearGradient2149">
      <stop id="stop2151" offset="0.00000000" style="stop-color:#2fb941;stop-opacity:1.0000000;"/>
      <stop id="stop2153" offset="1.0000000" style="stop-color:#2f8741;stop-opacity:1.0000000;"/>
    </linearGradient>
    <linearGradient gradientTransform="matrix(0.355647,0.000000,0.000000,2.642866,-62.03132,-157.9914)" gradientUnits="userSpaceOnUse" id="linearGradient2346" x1="606.44080" x2="671.50592" xlink:href="#linearGradient2340" y1="215.59468" y2="215.59468"/>
    <linearGradient gradientTransform="matrix(0.355647,0.000000,0.000000,2.642866,-62.03132,-163.8084)" gradientUnits="userSpaceOnUse" id="linearGradient2358" x1="753.64539" x2="818.71051" xlink:href="#linearGradient2340" y1="220.73039" y2="220.73039"/>
    <linearGradient gradientTransform="matrix(0.355647,0.000000,0.000000,2.642866,-62.03132,-163.8084)" gradientUnits="userSpaceOnUse" id="linearGradient2366" x1="911.75409" x2="976.81915" xlink:href="#linearGradient2340" y1="221.46407" y2="221.46407"/>
    <linearGradient gradientTransform="matrix(0.355647,0.000000,0.000000,2.642866,-60.09232,-163.8084)" gradientUnits="userSpaceOnUse" id="linearGradient2374" x1="1075.3148" x2="1140.3799" xlink:href="#linearGradient2340" y1="220.73039" y2="220.73039"/>
    <linearGradient gradientTransform="matrix(0.355647,0.000000,0.000000,2.642866,-62.03132,-157.9914)" gradientUnits="userSpaceOnUse" id="linearGradient2382" x1="1238.8755" x2="1303.9406" xlink:href="#linearGradient2340" y1="215.59468" y2="215.59468"/>
    <linearGradient gradientTransform="matrix(0.355647,0.000000,0.000000,2.642866,-62.03132,-161.8694)" gradientUnits="userSpaceOnUse" id="linearGradient2390" x1="704.57721" x2="769.64227" xlink:href="#linearGradient2340" y1="147.36314" y2="147.36314"/>
    <linearGradient gradientTransform="matrix(0.355647,0.000000,0.000000,2.642866,-62.03132,-165.7474)" gradientUnits="userSpaceOnUse" id="linearGradient2398" x1="922.65808" x2="987.72321" xlink:href="#linearGradient2340" y1="151.76518" y2="151.76518"/>
    <linearGradient gradientTransform="matrix(0.355647,0.000000,0.000000,2.642866,-62.03132,-163.8084)" gradientUnits="userSpaceOnUse" id="linearGradient2406" x1="1140.7390" x2="1205.8041" xlink:href="#linearGradient2340" y1="147.36314" y2="147.36314"/>
    <linearGradient gradientTransform="scale(1.995993,0.501004)" gradientUnits="userSpaceOnUse" id="linearGradient2416" x1="121.58444" x2="210.12921" xlink:href="#linearGradient2340" y1="736.54755" y2="559.08032"/>
  </defs>
  <g id="layer1">
    <path d="M 451.42858 323.79074 A 105.71429 25.714285 0 1 1  240.00001,323.79074 A 105.71429 25.714285 0 1 1  451.42858 323.79074 z" id="path2408" style="fill:url(#linearGradient2416);fill-opacity:1.0000000;fill-rule:evenodd;stroke:#000000;stroke-width:2.1908908;stroke-linecap:round;stroke-linejoin:round;stroke-miterlimit:4.0000000;stroke-dashoffset:0.00000000;stroke-opacity:1.0000000" transform="matrix(2.308923,0.000000,0.000000,-2.238565,-517.6103,1317.729)"/>
    <path d="M 451.42858 323.79074 A 105.71429 25.714285 0 1 1  240.00001,323.79074 A 105.71429 25.714285 0 1 1  451.42858 323.79074 z" id="path2125" style="fill:#fff3c3;fill-opacity:1.0000000;fill-rule:evenodd;stroke:#000000;stroke-width:2.1908908;stroke-linecap:round;stroke-linejoin:round;stroke-miterlimit:4.0000000;stroke-dashoffset:0.00000000;stroke-opacity:1.0000000" transform="matrix(1.618427,0.000000,0.000000,-1.348688,-280.8350,926.8281)"/>
    <path d="M 105.33584,490.25730 L 105.33584,588.12001 C 105.33584,588.12001 116.66744,623.92346 286.64180,623.92346 C 456.61614,623.92346 452.08351,584.53969 452.08351,584.53969 L 450.95034,487.87043 C 450.95034,487.87043 440.75188,524.86727 275.31018,524.86727 C 109.86847,524.86727 105.33584,490.25730 105.33584,490.25730 z " id="path2133" style="fill:#fff9e7;fill-opacity:1.0000000;fill-rule:evenodd;stroke:#000000;stroke-width:3.3745108;stroke-linecap:butt;stroke-linejoin:miter;stroke-miterlimit:4.0000000;stroke-opacity:1.0000000"/>
    <path d="M 451.42858 323.79074 A 105.71429 25.714285 0 1 1  240.00001,323.79074 A 105.71429 25.714285 0 1 1  451.42858 323.79074 z" id="path2334" style="fill:none;fill-opacity:1.0000000;fill-rule:evenodd;stroke:#000000;stroke-width:8.9577303;stroke-linecap:round;stroke-linejoin:round;stroke-miterlimit:4.0000000;stroke-dasharray:8.9577307 8.9577307 ;stroke-dashoffset:0.00000000;stroke-opacity:1.0000000" transform="matrix(1.645027,0.000000,0.000000,-1.370854,-291.2883,934.4105)"/>
    <path d="M 451.42858 323.79074 A 105.71429 25.714285 0 1 1  240.00001,323.79074 A 105.71429 25.714285 0 1 1  451.42858 323.79074 z" id="path2336" style="fill:none;fill-opacity:1.0000000;fill-rule:evenodd;stroke:#fff9e7;stroke-width:9.0207644;stroke-linecap:round;stroke-linejoin:round;stroke-miterlimit:4.0000000;stroke-dasharray:9.0207646 9.0207646 ;stroke-dashoffset:0.00000000;stroke-opacity:1.0000000" transform="matrix(1.618815,0.000000,0.000000,-1.349012,-282.2270,927.3380)"/>
    <rect height="168.92853" id="rect2135" rx="12.874940" ry="7.8335476" style="fill:url(#linearGradient2346);fill-opacity:1.0000000;fill-rule:evenodd;stroke:#000000;stroke-width:3.0296829;stroke-linecap:round;stroke-linejoin:round;stroke-miterlimit:4.0000000;stroke-dashoffset:0.00000000;stroke-opacity:1.0000000" width="20.110538" x="155.16255" y="327.33191"/>
    <rect height="168.92853" id="rect2137" rx="12.874940" ry="7.8335476" style="fill:url(#linearGradient2382);fill-opacity:1.0000000;fill-rule:evenodd;stroke:#000000;stroke-width:3.0296829;stroke-linecap:round;stroke-linejoin:round;stroke-miterlimit:4.0000000;stroke-dashoffset:0.00000000;stroke-opacity:1.0000000" width="20.110538" x="380.08618" y="327.33191"/>
    <rect height="168.92853" id="rect2139" rx="12.874940" ry="7.8335476" style="fill:url(#linearGradient2366);fill-opacity:1.0000000;fill-rule:evenodd;stroke:#000000;stroke-width:3.0296829;stroke-linecap:round;stroke-linejoin:round;stroke-miterlimit:4.0000000;stroke-dashoffset:0.00000000;stroke-opacity:1.0000000" width="20.110538" x="263.74634" y="337.02689"/>
    <rect height="168.92853" id="rect2141" rx="12.874940" ry="7.8335476" style="fill:url(#linearGradient2374);fill-opacity:1.0000000;fill-rule:evenodd;stroke:#000000;stroke-width:3.0296829;stroke-linecap:round;stroke-linejoin:round;stroke-miterlimit:4.0000000;stroke-dashoffset:0.00000000;stroke-opacity:1.0000000" width="20.110538" x="323.85526" y="335.08789"/>
    <rect height="168.92853" id="rect2143" rx="12.874940" ry="7.8335476" style="fill:url(#linearGradient2358);fill-opacity:1.0000000;fill-rule:evenodd;stroke:#000000;stroke-width:3.0296829;stroke-linecap:round;stroke-linejoin:round;stroke-miterlimit:4.0000000;stroke-dashoffset:0.00000000;stroke-opacity:1.0000000" width="20.110538" x="207.51546" y="335.08789"/>
    <path d="M 135.91252,310.57747 L 135.91252,377.49946 C 135.91252,377.49946 145.24572,401.98311 285.24394,401.98311 C 425.24215,401.98311 421.50888,375.05111 421.50888,375.05111 L 420.57555,308.94524 C 420.57555,308.94524 412.17566,334.24500 275.91073,334.24500 C 139.64579,334.24500 135.91252,310.57747 135.91252,310.57747 z " id="path2131" style="fill:#fff9e7;fill-opacity:1.0000000;fill-rule:evenodd;stroke:#000000;stroke-width:2.5325391;stroke-linecap:butt;stroke-linejoin:miter;stroke-miterlimit:4.0000000;stroke-opacity:1.0000000"/>
    <path d="M 451.42858 323.79074 A 105.71429 25.714285 0 1 1  240.00001,323.79074 A 105.71429 25.714285 0 1 1  451.42858 323.79074 z" id="path2121" style="fill:#fff3c3;fill-opacity:1.0000000;fill-rule:evenodd;stroke:#000000;stroke-width:2.1908908;stroke-linecap:round;stroke-linejoin:round;stroke-miterlimit:4.0000000;stroke-dashoffset:0.00000000;stroke-opacity:1.0000000" transform="matrix(1.345877,0.000000,0.000000,-1.121563,-186.6109,669.8948)"/>
    <g id="g2322" transform="matrix(0.969499,0.000000,0.000000,0.969499,-62.03129,-163.8083)">
      <path d="M 451.42858 323.79074 A 105.71429 25.714285 0 1 1  240.00001,323.79074 A 105.71429 25.714285 0 1 1  451.42858 323.79074 z" id="path2320" style="fill:none;fill-opacity:1.0000000;fill-rule:evenodd;stroke:#000000;stroke-width:9.8637609;stroke-linecap:round;stroke-linejoin:round;stroke-miterlimit:4.0000000;stroke-dasharray:9.8637607 9.8637607 ;stroke-dashoffset:0.00000000;stroke-opacity:1.0000000" transform="matrix(1.410697,0.000000,0.000000,-1.175580,-136.2696,865.9971)"/>
      <path d="M 451.42858 323.79074 A 105.71429 25.714285 0 1 1  240.00001,323.79074 A 105.71429 25.714285 0 1 1  451.42858 323.79074 z" id="path2318" style="fill:none;fill-opacity:1.0000000;fill-rule:evenodd;stroke:#fff9e7;stroke-width:9.8637609;stroke-linecap:round;stroke-linejoin:round;stroke-miterlimit:4.0000000;stroke-dasharray:9.8637607 9.8637607 ;stroke-dashoffset:0.00000000;stroke-opacity:1.0000000" transform="matrix(1.388220,0.000000,0.000000,-1.156849,-128.4990,859.9323)"/>
    </g>
    <rect height="168.92853" id="rect2147" rx="12.874940" ry="7.8335476" style="fill:url(#linearGradient2398);fill-opacity:1.0000000;fill-rule:evenodd;stroke:#000000;stroke-width:3.0296829;stroke-linecap:round;stroke-linejoin:round;stroke-miterlimit:4.0000000;stroke-dashoffset:0.00000000;stroke-opacity:1.0000000" width="20.110538" x="267.62433" y="150.88318"/>
    <rect height="168.92853" id="rect2145" rx="12.874940" ry="7.8335476" style="fill:url(#linearGradient2406);fill-opacity:1.0000000;fill-rule:evenodd;stroke:#000000;stroke-width:3.0296829;stroke-linecap:round;stroke-linejoin:round;stroke-miterlimit:4.0000000;stroke-dashoffset:0.00000000;stroke-opacity:1.0000000" width="20.110538" x="345.18423" y="141.18819"/>
    <rect height="168.92853" id="rect2149" rx="12.874940" ry="7.8335476" style="fill:url(#linearGradient2390);fill-opacity:1.0000000;fill-rule:evenodd;stroke:#000000;stroke-width:3.0296829;stroke-linecap:round;stroke-linejoin:round;stroke-miterlimit:4.0000000;stroke-dashoffset:0.00000000;stroke-opacity:1.0000000" width="20.110538" x="190.06448" y="143.12718"/>
    <path d="M 175.94343,141.86073 L 175.94343,196.82954 C 175.94343,196.82954 182.64694,216.94008 283.19964,216.94008 C 383.75233,216.94008 381.07093,194.81849 381.07093,194.81849 L 380.40058,140.52002 C 380.40058,140.52002 374.36742,161.30092 276.49612,161.30092 C 178.62483,161.30092 175.94343,141.86073 175.94343,141.86073 z " id="path2129" style="fill:#fff9e7;fill-opacity:1.0000000;fill-rule:evenodd;stroke:#000000;stroke-width:2.5449336;stroke-linecap:butt;stroke-linejoin:miter;stroke-miterlimit:4.0000000;stroke-opacity:1.0000000"/>
    <path d="M 451.42858 323.79074 A 105.71429 25.714285 0 1 1  240.00001,323.79074 A 105.71429 25.714285 0 1 1  451.42858 323.79074 z" id="path1358" style="fill:#fff3c3;fill-opacity:1.0000000;fill-rule:evenodd;stroke:#000000;stroke-width:2.1908908;stroke-linecap:round;stroke-linejoin:round;stroke-miterlimit:4.0000000;stroke-dashoffset:0.00000000;stroke-opacity:1.0000000" transform="matrix(0.969499,0.000000,0.000000,-0.807915,-56.49134,402.0069)"/>
    <g id="g2326" transform="matrix(0.685506,0.000000,0.000000,0.685506,37.03052,-193.0995)">
      <path d="M 451.42858 323.79074 A 105.71429 25.714285 0 1 1  240.00001,323.79074 A 105.71429 25.714285 0 1 1  451.42858 323.79074 z" id="path2328" style="fill:none;fill-opacity:1.0000000;fill-rule:evenodd;stroke:#000000;stroke-width:9.8637609;stroke-linecap:round;stroke-linejoin:round;stroke-miterlimit:4.0000000;stroke-dasharray:9.8637607 9.8637607 ;stroke-dashoffset:0.00000000;stroke-opacity:1.0000000" transform="matrix(1.410697,0.000000,0.000000,-1.175580,-136.2696,865.9971)"/>
      <path d="M 451.42858 323.79074 A 105.71429 25.714285 0 1 1  240.00001,323.79074 A 105.71429 25.714285 0 1 1  451.42858 323.79074 z" id="path2330" style="fill:none;fill-opacity:1.0000000;fill-rule:evenodd;stroke:#fff9e7;stroke-width:9.8637609;stroke-linecap:round;stroke-linejoin:round;stroke-miterlimit:4.0000000;stroke-dasharray:9.8637607 9.8637607 ;stroke-dashoffset:0.00000000;stroke-opacity:1.0000000" transform="matrix(1.388220,0.000000,0.000000,-1.156849,-128.4990,859.9323)"/>
    </g>
    <path d="M 253.26139,129.44127 C 253.26139,129.44127 251.58160,131.12106 252.42149,134.06068 C 253.26139,137.00030 253.26139,137.42025 255.36112,138.26013 C 257.46085,139.10003 259.14063,135.74047 259.14063,135.74047 C 259.14063,135.74047 260.40046,137.42025 262.50019,137.42025 C 264.59992,137.42025 267.53954,137.00030 267.53954,137.00030 L 262.08025,126.08171 L 253.26139,129.44127 z " id="path2176" style="fill:#370000;fill-opacity:1.0000000;fill-rule:evenodd;stroke:#000000;stroke-width:0.20997287px;stroke-linecap:butt;stroke-linejoin:miter;stroke-opacity:1.0000000"/>
    <path d="M 267.41052,31.236906 C 267.41052,35.165372 264.33791,38.350010 260.54765,38.350010 C 256.75739,38.350010 253.68478,35.165372 253.68478,31.236906 C 253.68478,27.308450 256.75739,24.123802 260.54765,24.123802 C 264.33791,24.123802 267.41052,27.308450 267.41052,31.236906 z " id="path2167" style="fill:#4d2f2f;fill-opacity:1.0000000;fill-rule:nonzero;stroke:#5e5f60;stroke-width:0.96949852;stroke-linecap:round;stroke-linejoin:round;stroke-miterlimit:4.0000000;stroke-dashoffset:0.00000000;stroke-opacity:1.0000000"/>
    <path d="M 254.10127,43.772347 L 257.04090,40.412783 L 262.08025,40.832721 L 265.43981,42.932451 L 261.66030,74.008436 L 255.78107,67.289308 L 254.10127,43.772347 z " id="path2165" style="fill:#ffffff;fill-opacity:1.0000000;fill-rule:evenodd;stroke:#000000;stroke-width:0.20997287px;stroke-linecap:butt;stroke-linejoin:miter;stroke-opacity:1.0000000"/>
    <path d="M 255.93377,44.955833 L 258.16712,47.303707 L 260.22867,44.096848 L 261.88936,47.017385 L 264.63810,44.669502" id="path2190" style="fill:none;fill-opacity:0.75000000;fill-rule:evenodd;stroke:#000000;stroke-width:0.20997287px;stroke-linecap:butt;stroke-linejoin:miter;stroke-opacity:0.35675672"/>
    <path d="M 281.05163,54.682705 L 277.30448,57.180802 C 277.30448,57.180802 278.34536,64.675084 279.38623,66.965001 C 280.42710,69.254927 280.84345,69.879449 280.63528,70.920322 C 280.42710,71.961195 280.63528,74.875643 278.76171,75.708336 C 276.88813,76.541038 276.88813,76.749209 275.84726,78.414613 C 274.80639,80.080008 264.60584,103.81190 264.60584,103.81190 L 262.52409,130.87460 C 262.52409,130.87460 261.06687,129.62556 262.31591,131.70730 C 263.56497,133.78905 262.10774,134.82992 265.43853,136.49532 C 268.76933,138.16072 267.31211,139.20159 275.22274,139.61794 C 283.13337,140.03429 286.67234,138.78524 290.83583,139.82612 C 294.99933,140.86699 295.41568,138.99341 297.28925,139.20159 C 299.16282,139.40976 301.86909,139.61794 306.65711,136.70350 C 311.44512,133.78905 312.27781,135.66262 312.90234,133.78905 C 313.52687,131.91547 315.60861,133.99722 314.35956,131.29095 C 313.11052,128.58468 308.11432,117.75960 306.65711,104.64461 C 304.36718,90.905089 300.20369,79.039135 296.87290,77.373740 C 293.33393,75.500165 295.41568,70.087629 295.41568,70.087629 L 296.87290,64.466913 L 296.87290,58.221675 L 292.29306,54.890876 L 281.05163,54.682705 z " id="path2143" style="fill:#ffffff;fill-opacity:1.0000000;fill-rule:evenodd;stroke:#000000;stroke-width:0.96949852;stroke-linecap:butt;stroke-linejoin:miter;stroke-miterlimit:4.0000000;stroke-opacity:1.0000000"/>
    <path d="M 252.11536,129.41739 C 252.11536,129.41739 251.90718,126.29477 251.90718,119.63318 C 251.90718,112.97159 251.90718,105.06096 251.28266,100.68928 C 250.65814,96.317624 247.95187,82.161754 247.95187,82.161754 L 272.93282,83.827149 C 272.93282,83.827149 271.05925,94.860400 269.18568,101.93834 C 267.31211,109.01627 266.68758,114.63698 265.85488,119.21683 C 265.02219,123.79667 264.39766,129.41739 263.14861,129.83373 C 261.89957,130.25008 259.19329,130.66643 258.56877,129.62556 C 257.94425,128.58468 258.36060,130.45826 256.90338,130.45826 C 255.44615,130.45826 252.94805,130.45826 252.11536,129.41739 z " id="path2272" style="fill:#464646;fill-opacity:1.0000000;fill-rule:evenodd;stroke:#000000;stroke-width:0.96949852;stroke-linecap:butt;stroke-linejoin:miter;stroke-miterlimit:4.0000000;stroke-opacity:1.0000000"/>
    <path d="M 297.29781,40.412763 C 297.29781,44.575189 293.18733,47.949499 288.11680,47.949499 C 283.04627,47.949499 278.93579,44.575189 278.93579,40.412763 C 278.93579,36.250348 283.04627,32.876037 288.11680,32.876037 C 293.18733,32.876037 297.29781,36.250348 297.29781,40.412763 z " id="path2169" style="fill:#4d2f2f;fill-opacity:1.0000000;fill-rule:nonzero;stroke:#5e5f60;stroke-width:0.96949852;stroke-linecap:round;stroke-linejoin:round;stroke-miterlimit:4.0000000;stroke-dashoffset:0.00000000;stroke-opacity:1.0000000"/>
    <path d="M 247.74369,85.284373 C 247.74369,85.284373 244.62107,85.492544 243.37203,85.284373 C 242.12298,85.076192 242.12298,84.451671 242.12298,84.451671 C 242.12298,84.451671 242.12298,70.920322 242.33115,67.797703 C 242.53933,64.675084 243.58020,50.311033 245.03742,49.061989 C 246.49465,47.812946 252.94805,44.690327 252.94805,44.690327 C 252.94805,44.690327 253.78076,43.233102 254.61346,42.608581 C 255.44615,41.984059 256.27885,41.775878 256.27885,41.775878 C 256.27885,41.775878 255.65432,42.816751 256.07067,46.563892 C 256.48702,50.311033 259.40147,69.879449 259.40147,69.879449 C 259.40147,69.879449 264.81401,45.314848 264.81401,43.857624 C 264.81401,42.400400 265.02219,42.608581 265.02219,42.608581 C 265.02219,42.608581 267.52028,43.649454 267.72846,44.690327 C 267.93663,45.731200 273.34917,46.563892 274.39005,47.396594 C 275.43092,48.229287 276.47179,47.812946 277.09631,51.976437 C 277.72084,56.139929 280.63528,65.091435 279.59441,66.340479 C 278.55353,67.589532 277.51267,70.712151 275.63909,72.169366 C 273.76551,73.626590 272.10012,74.459292 272.10012,74.459292 C 272.10012,74.459292 275.22274,90.072387 273.76551,91.113260 C 272.30829,92.154133 264.18949,93.819527 262.73226,92.362303 C 261.27504,90.905089 258.98512,84.035319 258.98512,84.035319 C 258.98512,84.035319 259.19329,87.990641 259.19329,89.239684 C 259.19329,90.488738 258.15242,93.403176 254.61346,92.986835 C 251.07449,92.570484 248.78456,92.986835 248.78456,92.986835 L 247.74369,85.284373 z " id="path2119" style="fill:#464646;fill-opacity:1.0000000;fill-rule:evenodd;stroke:#000000;stroke-width:0.96949852;stroke-linecap:butt;stroke-linejoin:miter;stroke-miterlimit:4.0000000;stroke-opacity:1.0000000"/>
    <path d="M 260.02584,68.721674 C 260.02584,68.721674 267.10377,67.680801 270.01822,65.807226 C 272.93267,63.933650 273.55719,64.350001 273.14084,60.602861 C 272.72449,56.855720 272.93267,57.063891 272.93267,57.063891" id="path2276" style="fill:none;fill-opacity:0.75000000;fill-rule:evenodd;stroke:#000000;stroke-width:0.54592949;stroke-linecap:butt;stroke-linejoin:miter;stroke-miterlimit:4.0000000;stroke-opacity:1.0000000"/>
    <path d="M 272.41103,63.216784 C 271.43591,63.135520 270.37951,62.810477 269.24186,63.623091 C 268.10422,64.435695 267.29161,65.248300 267.45413,66.385948 C 267.61665,67.523597 267.61665,68.579991 269.07935,69.230079 C 270.54204,69.880166 271.11086,70.530244 272.00473,70.123937 C 272.89860,69.717640 272.81734,69.798903 273.38616,68.336211 C 273.95498,66.873519 274.44255,67.767387 274.28003,66.385948 C 274.11750,65.004520 273.71120,63.948125 272.41103,63.216784 z " id="path2173" style="fill:#ffffff;fill-opacity:1.0000000;fill-rule:evenodd;stroke:#000000;stroke-width:0.96949852;stroke-linecap:butt;stroke-linejoin:miter;stroke-miterlimit:4.0000000;stroke-opacity:1.0000000"/>
    <path d="M 258.57237,129.21280 C 258.57237,129.21280 260.02959,120.67765 260.23776,114.43241 C 260.44594,108.18717 260.65411,106.10543 261.07046,101.73375 C 260.65411,97.778443 260.86229,94.655827 260.86229,94.655827" id="path2123" style="fill:none;fill-opacity:0.75000000;fill-rule:evenodd;stroke:#000000;stroke-width:0.60892141;stroke-linecap:butt;stroke-linejoin:miter;stroke-miterlimit:4.0000000;stroke-opacity:1.0000000"/>
    <path d="M 243.58020,85.076192 C 243.58020,85.076192 243.78838,87.157938 245.45377,90.696908 C 247.11917,94.235879 250.03362,95.276752 250.03362,95.276752 C 250.03362,95.276752 250.65814,91.321430 248.99274,89.239684 C 247.32735,87.157938 247.11917,85.284373 247.11917,85.284373 C 247.11917,85.284373 246.70283,84.659841 245.24560,85.492544 C 243.78838,86.325246 243.58020,85.076192 243.58020,85.076192 z " id="path2280" style="fill:#f4b153;fill-opacity:1.0000000;fill-rule:evenodd;stroke:#000000;stroke-width:0.96949852;stroke-linecap:butt;stroke-linejoin:miter;stroke-miterlimit:4.0000000;stroke-opacity:1.0000000"/>
    <path d="M 258.56877,75.291994 L 258.56877,68.838576 C 258.56877,68.838576 256.48702,66.965001 253.98893,67.589532 C 251.49083,68.214054 249.82544,68.630405 250.24179,70.503971 C 250.65814,72.377546 252.11536,74.459292 253.78076,75.083814 C 255.44615,75.708336 258.56877,75.291994 258.56877,75.291994 z " id="path2127" style="fill:#f4b153;fill-opacity:1.0000000;fill-rule:evenodd;stroke:#000000;stroke-width:0.41994575;stroke-linecap:butt;stroke-linejoin:miter;stroke-miterlimit:4.0000000;stroke-opacity:1.0000000"/>
    <path d="M 258.56877,68.838576 L 260.02600,68.838576 L 260.02600,75.291994 L 258.36060,75.291994 L 258.56877,68.838576 z " id="path2283" style="fill:#ffffff;fill-opacity:1.0000000;fill-rule:evenodd;stroke:#000000;stroke-width:0.41994575;stroke-linecap:butt;stroke-linejoin:miter;stroke-miterlimit:4.0000000;stroke-opacity:1.0000000"/>
    <path d="M 259.81782,75.083814 L 260.02600,76.749209 C 260.02600,76.749209 263.56497,76.124687 266.27123,75.708336 C 268.97750,75.291994 272.30829,74.251121 272.30829,74.251121" id="path2135" style="fill:none;fill-opacity:0.75000000;fill-rule:evenodd;stroke:#000000;stroke-width:0.50393498;stroke-linecap:butt;stroke-linejoin:miter;stroke-miterlimit:4.0000000;stroke-opacity:1.0000000"/>
    <path d="M 281.88433,54.266354 C 283.54972,53.850003 283.75789,53.225481 283.75789,53.225481 C 285.00695,52.809130 283.54972,51.768257 282.71703,49.478340 C 281.88433,47.188424 279.38623,39.902303 284.17424,40.943176 C 288.96227,41.984059 292.91758,36.363343 293.95845,40.318654 C 294.99933,44.273975 294.55434,47.339307 292.88894,49.629223 C 291.22355,51.919150 290.62766,51.768257 291.46036,53.017310 C 292.29306,54.266354 293.75028,55.931749 293.75028,55.931749 C 293.75028,55.931749 292.50123,59.054368 290.83583,60.095241 C 290.83583,61.344294 289.37861,61.136114 286.67234,60.719763 C 283.39833,61.202350 283.72004,59.546417 282.49939,57.445747 C 281.69508,56.669828 280.21893,54.682705 281.88433,54.266354 z " id="path2137" style="fill:#f4b153;fill-opacity:1.0000000;fill-rule:evenodd;stroke:#000000;stroke-width:0.96949852;stroke-linecap:butt;stroke-linejoin:miter;stroke-miterlimit:4.0000000;stroke-opacity:1.0000000"/>
    <path d="M 296.45655,65.712360 C 296.45655,65.712360 296.24838,68.626808 295.62385,69.459501 C 294.99933,70.292203 290.00314,73.206651 290.00314,73.206651 C 290.00314,73.206651 288.54592,76.953792 292.50123,76.745612 C 296.45655,76.537441 299.57917,74.872046 300.20369,73.414822 C 300.82821,71.957598 300.82821,66.753233 300.82821,66.753233 C 300.82821,66.753233 299.16282,65.087838 298.12194,65.087838 C 297.08107,65.087838 296.45655,65.712360 296.45655,65.712360 z " id="path2145" style="fill:#ffffff;fill-opacity:1.0000000;fill-rule:evenodd;stroke:#000000;stroke-width:0.96949852;stroke-linecap:butt;stroke-linejoin:miter;stroke-miterlimit:4.0000000;stroke-opacity:1.0000000"/>
    <path d="M 296.66472,58.013495 L 295.20750,61.136114 C 295.20750,61.136114 296.45655,63.426040 296.45655,64.883264 C 296.45655,66.340479 296.66472,65.924128 296.66472,65.924128 C 296.66472,65.924128 297.28925,65.299606 298.53830,65.715957 C 299.78734,66.132308 300.82821,67.173181 300.82821,67.173181 C 300.82821,67.173181 300.62004,65.299606 299.78734,63.009689 C 298.95465,60.719763 297.08107,58.638026 296.66472,58.013495 z " id="path2141" style="fill:#f4b153;fill-opacity:1.0000000;fill-rule:evenodd;stroke:#000000;stroke-width:0.96949852;stroke-linecap:butt;stroke-linejoin:miter;stroke-miterlimit:4.0000000;stroke-opacity:1.0000000"/>
    <path d="M 296.64758,74.667540 C 296.64899,76.852567 293.51643,78.624296 289.65174,78.624296 C 285.78704,78.624296 282.65449,76.852567 282.65589,74.667540 C 282.65449,72.482514 285.78704,70.710784 289.65174,70.710784 C 293.51643,70.710784 296.64899,72.482514 296.64758,74.667540 L 296.64758,74.667540 z " id="path2147" style="fill:#1b9630;fill-opacity:1.0000000;fill-rule:nonzero;stroke:#5e5f60;stroke-width:0.35264656;stroke-linecap:round;stroke-linejoin:round;stroke-miterlimit:4.0000000;stroke-dashoffset:0.00000000;stroke-opacity:1.0000000"/>
    <path d="M 259.98052,43.772347 C 257.88079,42.932451 256.20100,43.772347 255.78107,39.572887 C 255.36112,35.373427 254.10127,35.793375 254.94117,32.013862 C 255.78107,28.234350 255.78107,29.914132 255.78107,29.914132 C 255.78107,29.914132 258.72068,30.334080 261.66030,30.334080 C 264.59992,30.334080 265.43981,29.074246 265.43981,29.074246 L 266.27971,35.793375 C 265.98550,37.264375 264.59992,39.572887 263.76003,41.672617 C 262.92014,43.772347 259.98052,43.772347 259.98052,43.772347 z " id="path2163" style="fill:#f4b153;fill-opacity:1.0000000;fill-rule:evenodd;stroke:#000000;stroke-width:0.96949852;stroke-linecap:butt;stroke-linejoin:miter;stroke-miterlimit:4.0000000;stroke-opacity:1.0000000"/>
    <path d="M 252.42149,44.994003 L 257.04090,68.129203" id="path2178" style="fill:none;fill-opacity:0.75000000;fill-rule:evenodd;stroke:#000000;stroke-width:0.41994575;stroke-linecap:butt;stroke-linejoin:miter;stroke-miterlimit:4.0000000;stroke-opacity:1.0000000"/>
    <path d="M 268.30308,45.337603 L 262.50019,68.129203" id="path2180" style="fill:none;fill-opacity:0.75000000;fill-rule:evenodd;stroke:#000000;stroke-width:0.41994575;stroke-linecap:butt;stroke-linejoin:miter;stroke-miterlimit:4.0000000;stroke-opacity:1.0000000"/>
    <path d="M 258.72068,84.927035 L 259.14063,75.688228" id="path2182" style="fill:none;fill-opacity:0.75000000;fill-rule:evenodd;stroke:#000000;stroke-width:0.52493221;stroke-linecap:butt;stroke-linejoin:miter;stroke-miterlimit:4.0000000;stroke-opacity:1.0000000"/>
    <path d="M 256.88998,44.144218 C 256.65513,44.178014 256.50582,44.309449 256.52253,44.591603 C 256.58934,45.720186 257.19300,46.004937 257.12620,46.381142 C 257.05940,46.757336 256.25657,47.789377 257.19181,47.695326 C 257.75550,47.638649 258.67004,46.937333 259.33748,46.241330 C 259.52976,46.420571 259.78171,46.539587 260.05926,46.539587 C 260.37787,46.539587 260.65417,46.386115 260.85322,46.157449 C 261.85308,47.112745 263.02145,48.199232 263.34008,47.974939 C 263.87451,47.598745 263.47432,46.472624 263.67473,45.626174 C 263.87514,44.779734 264.33850,44.497551 262.80203,44.591603 C 262.07326,44.636209 261.46103,44.751269 260.99101,44.852572 C 260.80474,44.504716 260.46711,44.265386 260.05926,44.265386 C 259.67782,44.265386 259.35459,44.476116 259.16031,44.787335 C 258.69479,44.616053 257.52598,44.052687 256.88998,44.144218 z " id="path2186" style="fill:#000000;fill-opacity:1.0000000;fill-rule:evenodd;stroke:#000000;stroke-width:0.29063570px;stroke-linecap:butt;stroke-linejoin:miter;stroke-opacity:1.0000000"/>
    <path d="M 294.15607,74.463112 C 294.15607,76.046797 291.78653,77.330627 288.86357,77.330627 C 285.94059,77.330627 283.57107,76.046797 283.57107,74.463112 C 283.57107,72.879417 285.94059,71.595587 288.86357,71.595587 C 291.78653,71.595587 294.15607,72.879417 294.15607,74.463112 z " id="path2205" style="fill:#e20000;fill-opacity:1.0000000;fill-rule:nonzero;stroke:none;stroke-width:2.5000000;stroke-linecap:round;stroke-linejoin:round;stroke-miterlimit:4.0000000;stroke-dashoffset:0.00000000;stroke-opacity:0.35675672"/>
    <path d="M 242.67733,84.834496 L 243.26573,86.599691 L 247.67871,86.305497 L 247.09032,85.128700 L 242.67733,84.834496 z " id="path2215" style="fill:#ffffff;fill-opacity:1.0000000;fill-rule:evenodd;stroke:#000000;stroke-width:0.41994575;stroke-linecap:butt;stroke-linejoin:miter;stroke-miterlimit:4.0000000;stroke-opacity:1.0000000"/>
    <path d="M 284.27219,52.808228 L 283.22885,53.814306 C 283.22885,53.814306 282.70717,53.963357 283.60146,54.373241 C 284.49576,54.783126 285.72542,55.379329 287.40222,55.528379 C 289.07902,55.677430 291.72465,55.081227 292.09728,54.820393 C 292.46989,54.559560 292.46989,54.522292 292.46989,54.522292 L 291.27751,52.770971 C 291.27751,52.770971 290.86761,53.255371 289.22808,53.367164 C 287.58854,53.478947 285.83721,53.627998 285.16649,53.329896 C 284.49576,53.031804 284.27219,52.808228 284.27219,52.808228 z " id="path2293" style="fill:#ffffff;fill-opacity:1.0000000;fill-rule:evenodd;stroke:#000000;stroke-width:0.44403276;stroke-linecap:butt;stroke-linejoin:miter;stroke-miterlimit:4.0000000;stroke-opacity:1.0000000"/>
    <path d="M 247.53552,84.659841 C 247.53552,84.659841 247.74369,63.842391 247.11917,58.429846" id="path2306" style="fill:none;fill-opacity:0.75000000;fill-rule:evenodd;stroke:#000000;stroke-width:0.56692678;stroke-linecap:butt;stroke-linejoin:miter;stroke-miterlimit:4.0000000;stroke-opacity:1.0000000"/>
    <path d="M -80.000002,454.36218 C -85.829216,456.02767 -87.310682,446.88686 -93.364352,447.21347 C -99.418024,447.54008 -99.907418,456.78723 -105.88199,455.75858 C -111.85656,454.72993 -109.22526,445.85156 -114.82114,443.51924 C -120.41702,441.18691 -124.87014,449.30596 -129.80673,445.78691 C -134.74332,442.26787 -128.52042,435.41041 -132.55018,430.88110 C -136.57993,426.35178 -144.11477,431.73466 -147.03563,426.42220 C -149.95648,421.10974 -141.37451,417.63140 -143.04000,411.80218 C -144.70549,405.97297 -153.82969,407.55353 -154.15630,401.49986 C -154.48291,395.44619 -145.24162,396.03588 -144.21297,390.06132 C -143.18432,384.08674 -152.09072,381.55194 -149.75840,375.95606 C -147.42608,370.36018 -139.35582,374.90112 -135.83678,369.96454 C -132.31773,365.02795 -139.24230,358.87982 -134.71299,354.85006 C -130.18368,350.82031 -124.88287,358.41311 -119.57042,355.49226 C -114.25796,352.57140 -117.82921,344.02767 -112.00000,342.36218 C -106.17078,340.69669 -104.68932,349.83750 -98.635648,349.51089 C -92.581976,349.18428 -92.092582,339.93714 -86.118011,340.96579 C -80.143442,341.99443 -82.774736,350.87280 -77.178858,353.20513 C -71.582977,355.53745 -67.129862,347.41840 -62.193272,350.93745 C -57.256685,354.45650 -63.479580,361.31396 -59.449825,365.84327 C -55.420068,370.37258 -47.885227,364.98971 -44.964371,370.30217 C -42.043516,375.61462 -50.625492,379.09297 -48.960002,384.92218 C -47.294512,390.75140 -38.170313,389.17084 -37.843702,395.22451 C -37.517091,401.27818 -46.758382,400.68848 -47.787028,406.66305 C -48.815676,412.63762 -39.909277,415.17243 -42.241601,420.76831 C -44.573924,426.36419 -52.644178,421.82324 -56.163225,426.75983 C -59.682274,431.69642 -52.757697,437.84454 -57.287010,441.87430 C -61.816321,445.90406 -67.117126,438.31125 -72.429583,441.23211 C -77.742042,444.15296 -74.170786,452.69669 -80.000002,454.36218 z " id="path2426" style="fill:#fff3c3;fill-opacity:1.0000000;fill-rule:evenodd;stroke:#ffa0a3;stroke-width:25.000000;stroke-linecap:round;stroke-linejoin:round;stroke-miterlimit:4.0000000;stroke-dasharray:25.000000 50.000000 ;stroke-dashoffset:0.00000000;stroke-opacity:1.0000000" transform="matrix(0.150155,0.000000,0.000000,0.429426,132.7102,385.8131)"/>
    <path d="M -80.000002,454.36218 C -85.829216,456.02767 -87.310682,446.88686 -93.364352,447.21347 C -99.418024,447.54008 -99.907418,456.78723 -105.88199,455.75858 C -111.85656,454.72993 -109.22526,445.85156 -114.82114,443.51924 C -120.41702,441.18691 -124.87014,449.30596 -129.80673,445.78691 C -134.74332,442.26787 -128.52042,435.41041 -132.55018,430.88110 C -136.57993,426.35178 -144.11477,431.73466 -147.03563,426.42220 C -149.95648,421.10974 -141.37451,417.63140 -143.04000,411.80218 C -144.70549,405.97297 -153.82969,407.55353 -154.15630,401.49986 C -154.48291,395.44619 -145.24162,396.03588 -144.21297,390.06132 C -143.18432,384.08674 -152.09072,381.55194 -149.75840,375.95606 C -147.42608,370.36018 -139.35582,374.90112 -135.83678,369.96454 C -132.31773,365.02795 -139.24230,358.87982 -134.71299,354.85006 C -130.18368,350.82031 -124.88287,358.41311 -119.57042,355.49226 C -114.25796,352.57140 -117.82921,344.02767 -112.00000,342.36218 C -106.17078,340.69669 -104.68932,349.83750 -98.635648,349.51089 C -92.581976,349.18428 -92.092582,339.93714 -86.118011,340.96579 C -80.143442,341.99443 -82.774736,350.87280 -77.178858,353.20513 C -71.582977,355.53745 -67.129862,347.41840 -62.193272,350.93745 C -57.256685,354.45650 -63.479580,361.31396 -59.449825,365.84327 C -55.420068,370.37258 -47.885227,364.98971 -44.964371,370.30217 C -42.043516,375.61462 -50.625492,379.09297 -48.960002,384.92218 C -47.294512,390.75140 -38.170313,389.17084 -37.843702,395.22451 C -37.517091,401.27818 -46.758382,400.68848 -47.787028,406.66305 C -48.815676,412.63762 -39.909277,415.17243 -42.241601,420.76831 C -44.573924,426.36419 -52.644178,421.82324 -56.163225,426.75983 C -59.682274,431.69642 -52.757697,437.84454 -57.287010,441.87430 C -61.816321,445.90406 -67.117126,438.31125 -72.429583,441.23211 C -77.742042,444.15296 -74.170786,452.69669 -80.000002,454.36218 z " id="path2430" style="fill:#fff3c3;fill-opacity:1.0000000;fill-rule:evenodd;stroke:#ffa0a3;stroke-width:25.000000;stroke-linecap:round;stroke-linejoin:round;stroke-miterlimit:4.0000000;stroke-dasharray:25.000000 50.000000 ;stroke-dashoffset:0.00000000;stroke-opacity:1.0000000" transform="matrix(0.434137,0.000000,0.000000,0.429426,292.7937,409.0811)"/>
    <path d="M -80.000002,454.36218 C -85.829216,456.02767 -87.310682,446.88686 -93.364352,447.21347 C -99.418024,447.54008 -99.907418,456.78723 -105.88199,455.75858 C -111.85656,454.72993 -109.22526,445.85156 -114.82114,443.51924 C -120.41702,441.18691 -124.87014,449.30596 -129.80673,445.78691 C -134.74332,442.26787 -128.52042,435.41041 -132.55018,430.88110 C -136.57993,426.35178 -144.11477,431.73466 -147.03563,426.42220 C -149.95648,421.10974 -141.37451,417.63140 -143.04000,411.80218 C -144.70549,405.97297 -153.82969,407.55353 -154.15630,401.49986 C -154.48291,395.44619 -145.24162,396.03588 -144.21297,390.06132 C -143.18432,384.08674 -152.09072,381.55194 -149.75840,375.95606 C -147.42608,370.36018 -139.35582,374.90112 -135.83678,369.96454 C -132.31773,365.02795 -139.24230,358.87982 -134.71299,354.85006 C -130.18368,350.82031 -124.88287,358.41311 -119.57042,355.49226 C -114.25796,352.57140 -117.82921,344.02767 -112.00000,342.36218 C -106.17078,340.69669 -104.68932,349.83750 -98.635648,349.51089 C -92.581976,349.18428 -92.092582,339.93714 -86.118011,340.96579 C -80.143442,341.99443 -82.774736,350.87280 -77.178858,353.20513 C -71.582977,355.53745 -67.129862,347.41840 -62.193272,350.93745 C -57.256685,354.45650 -63.479580,361.31396 -59.449825,365.84327 C -55.420068,370.37258 -47.885227,364.98971 -44.964371,370.30217 C -42.043516,375.61462 -50.625492,379.09297 -48.960002,384.92218 C -47.294512,390.75140 -38.170313,389.17084 -37.843702,395.22451 C -37.517091,401.27818 -46.758382,400.68848 -47.787028,406.66305 C -48.815676,412.63762 -39.909277,415.17243 -42.241601,420.76831 C -44.573924,426.36419 -52.644178,421.82324 -56.163225,426.75983 C -59.682274,431.69642 -52.757697,437.84454 -57.287010,441.87430 C -61.816321,445.90406 -67.117126,438.31125 -72.429583,441.23211 C -77.742042,444.15296 -74.170786,452.69669 -80.000002,454.36218 z " id="path2434" style="fill:#fff3c3;fill-opacity:1.0000000;fill-rule:evenodd;stroke:#ffa0a3;stroke-width:25.000000;stroke-linecap:round;stroke-linejoin:round;stroke-miterlimit:4.0000000;stroke-dasharray:25.000000 50.000000 ;stroke-dashoffset:0.00000000;stroke-opacity:1.0000000" transform="matrix(0.310540,0.000000,0.000000,0.429426,448.6518,389.6911)"/>
    <path d="M -80.000002,454.36218 C -85.829216,456.02767 -87.310682,446.88686 -93.364352,447.21347 C -99.418024,447.54008 -99.907418,456.78723 -105.88199,455.75858 C -111.85656,454.72993 -109.22526,445.85156 -114.82114,443.51924 C -120.41702,441.18691 -124.87014,449.30596 -129.80673,445.78691 C -134.74332,442.26787 -128.52042,435.41041 -132.55018,430.88110 C -136.57993,426.35178 -144.11477,431.73466 -147.03563,426.42220 C -149.95648,421.10974 -141.37451,417.63140 -143.04000,411.80218 C -144.70549,405.97297 -153.82969,407.55353 -154.15630,401.49986 C -154.48291,395.44619 -145.24162,396.03588 -144.21297,390.06132 C -143.18432,384.08674 -152.09072,381.55194 -149.75840,375.95606 C -147.42608,370.36018 -139.35582,374.90112 -135.83678,369.96454 C -132.31773,365.02795 -139.24230,358.87982 -134.71299,354.85006 C -130.18368,350.82031 -124.88287,358.41311 -119.57042,355.49226 C -114.25796,352.57140 -117.82921,344.02767 -112.00000,342.36218 C -106.17078,340.69669 -104.68932,349.83750 -98.635648,349.51089 C -92.581976,349.18428 -92.092582,339.93714 -86.118011,340.96579 C -80.143442,341.99443 -82.774736,350.87280 -77.178858,353.20513 C -71.582977,355.53745 -67.129862,347.41840 -62.193272,350.93745 C -57.256685,354.45650 -63.479580,361.31396 -59.449825,365.84327 C -55.420068,370.37258 -47.885227,364.98971 -44.964371,370.30217 C -42.043516,375.61462 -50.625492,379.09297 -48.960002,384.92218 C -47.294512,390.75140 -38.170313,389.17084 -37.843702,395.22451 C -37.517091,401.27818 -46.758382,400.68848 -47.787028,406.66305 C -48.815676,412.63762 -39.909277,415.17243 -42.241601,420.76831 C -44.573924,426.36419 -52.644178,421.82324 -56.163225,426.75983 C -59.682274,431.69642 -52.757697,437.84454 -57.287010,441.87430 C -61.816321,445.90406 -67.117126,438.31125 -72.429583,441.23211 C -77.742042,444.15296 -74.170786,452.69669 -80.000002,454.36218 z " id="path2436" style="fill:#fff3c3;fill-opacity:1.0000000;fill-rule:evenodd;stroke:#ffa0a3;stroke-width:25.000000;stroke-linecap:round;stroke-linejoin:round;stroke-miterlimit:4.0000000;stroke-dasharray:25.000000 50.000000 ;stroke-dashoffset:0.00000000;stroke-opacity:1.0000000" transform="matrix(0.163389,0.000000,0.000000,0.258604,421.9217,252.2063)"/>
    <path d="M -80.000002,454.36218 C -85.829216,456.02767 -87.310682,446.88686 -93.364352,447.21347 C -99.418024,447.54008 -99.907418,456.78723 -105.88199,455.75858 C -111.85656,454.72993 -109.22526,445.85156 -114.82114,443.51924 C -120.41702,441.18691 -124.87014,449.30596 -129.80673,445.78691 C -134.74332,442.26787 -128.52042,435.41041 -132.55018,430.88110 C -136.57993,426.35178 -144.11477,431.73466 -147.03563,426.42220 C -149.95648,421.10974 -141.37451,417.63140 -143.04000,411.80218 C -144.70549,405.97297 -153.82969,407.55353 -154.15630,401.49986 C -154.48291,395.44619 -145.24162,396.03588 -144.21297,390.06132 C -143.18432,384.08674 -152.09072,381.55194 -149.75840,375.95606 C -147.42608,370.36018 -139.35582,374.90112 -135.83678,369.96454 C -132.31773,365.02795 -139.24230,358.87982 -134.71299,354.85006 C -130.18368,350.82031 -124.88287,358.41311 -119.57042,355.49226 C -114.25796,352.57140 -117.82921,344.02767 -112.00000,342.36218 C -106.17078,340.69669 -104.68932,349.83750 -98.635648,349.51089 C -92.581976,349.18428 -92.092582,339.93714 -86.118011,340.96579 C -80.143442,341.99443 -82.774736,350.87280 -77.178858,353.20513 C -71.582977,355.53745 -67.129862,347.41840 -62.193272,350.93745 C -57.256685,354.45650 -63.479580,361.31396 -59.449825,365.84327 C -55.420068,370.37258 -47.885227,364.98971 -44.964371,370.30217 C -42.043516,375.61462 -50.625492,379.09297 -48.960002,384.92218 C -47.294512,390.75140 -38.170313,389.17084 -37.843702,395.22451 C -37.517091,401.27818 -46.758382,400.68848 -47.787028,406.66305 C -48.815676,412.63762 -39.909277,415.17243 -42.241601,420.76831 C -44.573924,426.36419 -52.644178,421.82324 -56.163225,426.75983 C -59.682274,431.69642 -52.757697,437.84454 -57.287010,441.87430 C -61.816321,445.90406 -67.117126,438.31125 -72.429583,441.23211 C -77.742042,444.15296 -74.170786,452.69669 -80.000002,454.36218 z " id="path2438" style="fill:#fff3c3;fill-opacity:1.0000000;fill-rule:evenodd;stroke:#ffa0a3;stroke-width:25.000000;stroke-linecap:round;stroke-linejoin:round;stroke-miterlimit:4.0000000;stroke-dasharray:25.000000 50.000000 ;stroke-dashoffset:0.00000000;stroke-opacity:1.0000000" transform="matrix(0.203827,0.000000,0.000000,0.259750,180.5207,255.6277)"/>
    <path d="M -80.000002,454.36218 C -85.829216,456.02767 -87.310682,446.88686 -93.364352,447.21347 C -99.418024,447.54008 -99.907418,456.78723 -105.88199,455.75858 C -111.85656,454.72993 -109.22526,445.85156 -114.82114,443.51924 C -120.41702,441.18691 -124.87014,449.30596 -129.80673,445.78691 C -134.74332,442.26787 -128.52042,435.41041 -132.55018,430.88110 C -136.57993,426.35178 -144.11477,431.73466 -147.03563,426.42220 C -149.95648,421.10974 -141.37451,417.63140 -143.04000,411.80218 C -144.70549,405.97297 -153.82969,407.55353 -154.15630,401.49986 C -154.48291,395.44619 -145.24162,396.03588 -144.21297,390.06132 C -143.18432,384.08674 -152.09072,381.55194 -149.75840,375.95606 C -147.42608,370.36018 -139.35582,374.90112 -135.83678,369.96454 C -132.31773,365.02795 -139.24230,358.87982 -134.71299,354.85006 C -130.18368,350.82031 -124.88287,358.41311 -119.57042,355.49226 C -114.25796,352.57140 -117.82921,344.02767 -112.00000,342.36218 C -106.17078,340.69669 -104.68932,349.83750 -98.635648,349.51089 C -92.581976,349.18428 -92.092582,339.93714 -86.118011,340.96579 C -80.143442,341.99443 -82.774736,350.87280 -77.178858,353.20513 C -71.582977,355.53745 -67.129862,347.41840 -62.193272,350.93745 C -57.256685,354.45650 -63.479580,361.31396 -59.449825,365.84327 C -55.420068,370.37258 -47.885227,364.98971 -44.964371,370.30217 C -42.043516,375.61462 -50.625492,379.09297 -48.960002,384.92218 C -47.294512,390.75140 -38.170313,389.17084 -37.843702,395.22451 C -37.517091,401.27818 -46.758382,400.68848 -47.787028,406.66305 C -48.815676,412.63762 -39.909277,415.17243 -42.241601,420.76831 C -44.573924,426.36419 -52.644178,421.82324 -56.163225,426.75983 C -59.682274,431.69642 -52.757697,437.84454 -57.287010,441.87430 C -61.816321,445.90406 -67.117126,438.31125 -72.429583,441.23211 C -77.742042,444.15296 -74.170786,452.69669 -80.000002,454.36218 z " id="path2440" style="fill:#fff3c3;fill-opacity:1.0000000;fill-rule:evenodd;stroke:#ffa0a3;stroke-width:25.000000;stroke-linecap:round;stroke-linejoin:round;stroke-miterlimit:4.0000000;stroke-dasharray:25.000000 50.000000 ;stroke-dashoffset:0.00000000;stroke-opacity:1.0000000" transform="matrix(0.379205,0.000000,0.000000,0.291014,335.9953,254.8074)"/>
    <path d="M -80.000002,454.36218 C -85.829216,456.02767 -87.310682,446.88686 -93.364352,447.21347 C -99.418024,447.54008 -99.907418,456.78723 -105.88199,455.75858 C -111.85656,454.72993 -109.22526,445.85156 -114.82114,443.51924 C -120.41702,441.18691 -124.87014,449.30596 -129.80673,445.78691 C -134.74332,442.26787 -128.52042,435.41041 -132.55018,430.88110 C -136.57993,426.35178 -144.11477,431.73466 -147.03563,426.42220 C -149.95648,421.10974 -141.37451,417.63140 -143.04000,411.80218 C -144.70549,405.97297 -153.82969,407.55353 -154.15630,401.49986 C -154.48291,395.44619 -145.24162,396.03588 -144.21297,390.06132 C -143.18432,384.08674 -152.09072,381.55194 -149.75840,375.95606 C -147.42608,370.36018 -139.35582,374.90112 -135.83678,369.96454 C -132.31773,365.02795 -139.24230,358.87982 -134.71299,354.85006 C -130.18368,350.82031 -124.88287,358.41311 -119.57042,355.49226 C -114.25796,352.57140 -117.82921,344.02767 -112.00000,342.36218 C -106.17078,340.69669 -104.68932,349.83750 -98.635648,349.51089 C -92.581976,349.18428 -92.092582,339.93714 -86.118011,340.96579 C -80.143442,341.99443 -82.774736,350.87280 -77.178858,353.20513 C -71.582977,355.53745 -67.129862,347.41840 -62.193272,350.93745 C -57.256685,354.45650 -63.479580,361.31396 -59.449825,365.84327 C -55.420068,370.37258 -47.885227,364.98971 -44.964371,370.30217 C -42.043516,375.61462 -50.625492,379.09297 -48.960002,384.92218 C -47.294512,390.75140 -38.170313,389.17084 -37.843702,395.22451 C -37.517091,401.27818 -46.758382,400.68848 -47.787028,406.66305 C -48.815676,412.63762 -39.909277,415.17243 -42.241601,420.76831 C -44.573924,426.36419 -52.644178,421.82324 -56.163225,426.75983 C -59.682274,431.69642 -52.757697,437.84454 -57.287010,441.87430 C -61.816321,445.90406 -67.117126,438.31125 -72.429583,441.23211 C -77.742042,444.15296 -74.170786,452.69669 -80.000002,454.36218 z " id="path2442" style="fill:#fff3c3;fill-opacity:1.0000000;fill-rule:evenodd;stroke:#ffa0a3;stroke-width:25.000000;stroke-linecap:round;stroke-linejoin:round;stroke-miterlimit:4.0000000;stroke-dasharray:25.000000 50.000000 ;stroke-dashoffset:0.00000000;stroke-opacity:1.0000000" transform="matrix(0.217401,0.000000,0.000000,0.230477,361.1810,92.77924)"/>
    <path d="M -80.000002,454.36218 C -85.829216,456.02767 -87.310682,446.88686 -93.364352,447.21347 C -99.418024,447.54008 -99.907418,456.78723 -105.88199,455.75858 C -111.85656,454.72993 -109.22526,445.85156 -114.82114,443.51924 C -120.41702,441.18691 -124.87014,449.30596 -129.80673,445.78691 C -134.74332,442.26787 -128.52042,435.41041 -132.55018,430.88110 C -136.57993,426.35178 -144.11477,431.73466 -147.03563,426.42220 C -149.95648,421.10974 -141.37451,417.63140 -143.04000,411.80218 C -144.70549,405.97297 -153.82969,407.55353 -154.15630,401.49986 C -154.48291,395.44619 -145.24162,396.03588 -144.21297,390.06132 C -143.18432,384.08674 -152.09072,381.55194 -149.75840,375.95606 C -147.42608,370.36018 -139.35582,374.90112 -135.83678,369.96454 C -132.31773,365.02795 -139.24230,358.87982 -134.71299,354.85006 C -130.18368,350.82031 -124.88287,358.41311 -119.57042,355.49226 C -114.25796,352.57140 -117.82921,344.02767 -112.00000,342.36218 C -106.17078,340.69669 -104.68932,349.83750 -98.635648,349.51089 C -92.581976,349.18428 -92.092582,339.93714 -86.118011,340.96579 C -80.143442,341.99443 -82.774736,350.87280 -77.178858,353.20513 C -71.582977,355.53745 -67.129862,347.41840 -62.193272,350.93745 C -57.256685,354.45650 -63.479580,361.31396 -59.449825,365.84327 C -55.420068,370.37258 -47.885227,364.98971 -44.964371,370.30217 C -42.043516,375.61462 -50.625492,379.09297 -48.960002,384.92218 C -47.294512,390.75140 -38.170313,389.17084 -37.843702,395.22451 C -37.517091,401.27818 -46.758382,400.68848 -47.787028,406.66305 C -48.815676,412.63762 -39.909277,415.17243 -42.241601,420.76831 C -44.573924,426.36419 -52.644178,421.82324 -56.163225,426.75983 C -59.682274,431.69642 -52.757697,437.84454 -57.287010,441.87430 C -61.816321,445.90406 -67.117126,438.31125 -72.429583,441.23211 C -77.742042,444.15296 -74.170786,452.69669 -80.000002,454.36218 z " id="path2448" style="fill:#fff3c3;fill-opacity:1.0000000;fill-rule:evenodd;stroke:#ffa0a3;stroke-width:25.000000;stroke-linecap:round;stroke-linejoin:round;stroke-miterlimit:4.0000000;stroke-dasharray:25.000000 50.000000 ;stroke-dashoffset:0.00000000;stroke-opacity:1.0000000" transform="matrix(0.217401,0.000000,0.000000,0.230477,240.9632,90.84025)"/>
  </g>
</svg>
