<?xml version="1.0" encoding="UTF-8" standalone="no"?>
<!-- Generator: Adobe Illustrator 12.0.0, SVG Export Plug-In . SVG Version: 6.00 Build 51448)  --><svg height="264.346" id="Layer_1" inkscape:version="0.40+cvs" sodipodi:docbase="F:\openclip\svg2" sodipodi:docname="Gelato Italiano.svg" sodipodi:version="0.32" style="overflow:visible;enable-background:new 0 0 259.127 264.346;" version="1.0" viewBox="0 0 259.127 264.346" width="259.127" xml:space="preserve" xmlns="http://www.w3.org/2000/svg" xmlns:cc="http://web.resource.org/cc/" xmlns:dc="http://purl.org/dc/elements/1.1/" xmlns:inkscape="http://www.inkscape.org/namespaces/inkscape" xmlns:rdf="http://www.w3.org/1999/02/22-rdf-syntax-ns#" xmlns:sodipodi="http://inkscape.sourceforge.net/DTD/sodipodi-0.dtd" xmlns:svg="http://www.w3.org/2000/svg" xmlns:xml="http://www.w3.org/XML/1998/namespace"><metadata><rdf:RDF xmlns:cc="http://web.resource.org/cc/" xmlns:dc="http://purl.org/dc/elements/1.1/" xmlns:rdf="http://www.w3.org/1999/02/22-rdf-syntax-ns#"><cc:Work rdf:about=""><dc:title>Gelato all&amp;#39;italiana</dc:title><dc:description></dc:description><dc:subject><rdf:Bag><rdf:li>dessert</rdf:li><rdf:li>food</rdf:li></rdf:Bag></dc:subject><dc:publisher><cc:Agent rdf:about="http://www.openclipart.org"><dc:title>Architetto Francesco Rollandin</dc:title></cc:Agent></dc:publisher><dc:creator><cc:Agent><dc:title>Architetto Francesco Rollandin</dc:title></cc:Agent></dc:creator><dc:rights><cc:Agent><dc:title>Architetto Francesco Rollandin</dc:title></cc:Agent></dc:rights><dc:date></dc:date><dc:format>image/svg+xml</dc:format><dc:type rdf:resource="http://purl.org/dc/dcmitype/StillImage"/><cc:license rdf:resource="http://web.resource.org/cc/PublicDomain"/><dc:language>en</dc:language></cc:Work><cc:License rdf:about="http://web.resource.org/cc/PublicDomain"><cc:permits rdf:resource="http://web.resource.org/cc/Reproduction"/><cc:permits rdf:resource="http://web.resource.org/cc/Distribution"/><cc:permits rdf:resource="http://web.resource.org/cc/DerivativeWorks"/></cc:License></rdf:RDF></metadata>
<defs id="defs102"></defs>
<sodipodi:namedview bordercolor="#666666" borderopacity="1.0" id="base" inkscape:current-layer="Layer_1" inkscape:cx="129.56351" inkscape:cy="132.17300" inkscape:pageopacity="0.0" inkscape:pageshadow="2" inkscape:window-height="540" inkscape:window-width="640" inkscape:window-x="132" inkscape:window-y="132" inkscape:zoom="1.4299440" pagecolor="#ffffff"></sodipodi:namedview>

<path d="M146.026,64.474c7.318,2.102,11.735,2.947,17.106,8.224c3.894,3.824,8.935,0.672,13.999,1.798  c6.942,1.545,9.188,4.485,9.961,11.611c11.06-7.176,16.191,10.027,18.578,16.989c6.569-3.428,11.221-1.883,14.484,4.645  c0.707,1.414,1.593,6.895,2.75,7.7c1.37,0.953,6.397-0.003,8.188,0.368c7.578,1.57,8.482,5.372,11.331,11.443  c2.072,4.416,1.766,5.324,6.209,5.728c3.126,0.284,5.434,1.28,6.538,4.218c1.044,2.773,0.043,9.57-1.099,12.223  c-0.315,0.732-0.042,2.688-0.871,2.916c-3.453,0.949-6.906,1.897-10.359,2.847c-2.267,0.622,0.26,10.421-1.634,12.077  c-2.465,2.156-4.929,4.313-7.393,6.469c-2.731,2.39-1.83,2.57-0.48,6.026c2.472,6.334,3.738,12.106-3.341,15.866  c-3.844,2.041-8.933,1.526-12.712,3.421c-0.636,0.318-2.753,0.264-2.87,0.957c-0.601,3.572-1.202,7.145-1.804,10.717  c-0.731,4.348-7.635,9.043-10.641,12.187c-3.781,3.954-0.981,11.433-6.829,13.461c-2.034,0.706-8.038,1.598-9.391,3.258  c-1.517,1.862,0.064,7.13-1.712,8.678c-1.118,0.975-7.368-0.976-7.646,0.644c-0.507,2.964-1.015,5.928-1.521,8.892  c-20.765-5.194-38.713-19.357-57.021-30.094c-9.278-5.44-16.235-10.897-23.785-18.447c-3.345-3.345-6.782-6.601-9.898-10.162  c-2.156-2.464-4.312-4.928-6.467-7.393c-1.409-1.61-1.61-4.736-3.333-5.976c-2.773-1.995-10.565-5.192-8.962-8.725  c2.529-5.572,4.72-11.493,7.654-16.862c5.588-10.224,12.966-19.789,19.353-29.538c4.994-7.622,10.959-14.667,16.491-21.9  c6.372-8.331,12.292-18.529,19.821-25.856C134.838,76.929,141.035,71.396,146.026,64.474" id="path3" style="fill:#FFBF00;"></path>

<path d="M75.014,184.864c5.352,2.192,10.704,4.386,16.056,6.578c5.104,2.091,6.601,4.829,10.043,9.329  c2.751,3.597,5.64,9.992,10.221,11.146c4.584,1.155,10.785,1.515,14.693,4.28c8.942,6.328,17.896,12.638,26.776,19.052  c4.663,3.367,9.631,8.298,14.855,10.728c4.552,2.117,10.52,2.672,15.4,3.912c-2.386,2.314-4.771,4.628-7.157,6.942  c-2.066,2.005-6.267-0.237-8.87-0.854c-5.466-1.295-10.004-6.229-15.062-8.727c-5.052-2.495-15.134-5.113-18.656-9.523  c-2.193-2.745-6.415-6.332-9.9-7.028c-4.67-0.933-7.148-4.384-10.756-7.212c-3.863-3.029-8.617-3.446-11.907-7.237  c-4.842-5.58-9.464-11.172-14.912-16.154C80.488,195.2,78.588,191.173,75.014,184.864" id="path5" style="fill:#FF7F00;"></path>

<path d="M149.082,93.563C151.315,94.502,150.785,92.617,149.082,93.563" id="path7" style="fill:#FFE68C;"></path>

<path d="M138.814,89.163c4.96,0.97,8.315-1.32,10.146,4.156c1.533,4.587,2.087,6.338,6.967,7.15  c2.219,0.369,8.237,2.972,8.555-0.429c0.441-4.729-8.744-3.732-11.244-4.033c0.366,0.285,0.733,0.571,1.1,0.856  c-3.404-4.491-2.895-9.261-9.533-9.777C142.81,86.931,136.623,87.076,138.814,89.163" id="path9" style="fill:#FFE68C;"></path>

<path d="M166.193,104.685c2.133,0.364,4.26,0.45,6.232,1.345c-0.326-0.326-0.651-0.652-0.978-0.979  c1.412,4.17,0.557,6.48,5.745,7.945c2.233,0.63,4.191,0.767,5.99,1.467c3.011,1.172,5.678,3.133,9.287,2.567  c5.683-0.891,3.358-3.446-1.1-5.011c-1.981-0.695-4.146-1.564-5.989-2.201c-3.096-1.069-6.72-0.71-9.777-2.078  c0.285,0.407,0.57,0.815,0.855,1.222c-1.371-4.534-2.026-8.012-7.7-6.722C166.454,102.765,164.439,103.147,166.193,104.685" id="path11" style="fill:#FFE68C;"></path>

<path d="M198.827,120.574c4.497,1.005,9.197,6.402,12.039,9.656c1.591,1.822,3.375,7.766,5.194,8.555  c3.026,1.313,3.947-2.29,3.545-4.645c-0.89-5.214-10.218-11.693-14.545-13.567C203.422,119.865,196.265,117.715,198.827,120.574" id="path13" style="fill:#FFE68C;"></path>

<path d="M222.417,142.208c1.904,0.371,3.998,0.61,5.499-0.733c-0.213,4.001,4.264,1.511,1.161-0.978  C227.568,139.287,219.402,140.088,222.417,142.208" id="path15" style="fill:#FFE68C;"></path>

<path d="M229.626,148.929c0.526,1.098,1.212,1.83,1.467,3.057c0.018-0.501,0.015-1.722,0-2.445  c-3.166,3.941-15.833,8.985-10.633,15.524c-0.019-0.208,0.022-0.168,0.122,0.121c-0.041-0.855-0.081-1.711-0.122-2.566  c-2.072,3.644-3.135,7.366-5.989,10.572c-1.929,2.164-7.634,14.128,0,11.428c2.087-0.738,7.504-9.141,8.556-11.244  c1.731-3.463,6.521-8.914,3.056-12.468c0.081,0.204,0.163,0.407,0.244,0.611c-0.081-0.204-0.163-0.407-0.244-0.611  c-0.232,0.854-0.411,1.808-0.489,2.688c2.56-3.984,10.82-8.092,10.146-13.139C235.225,146.622,226.708,145.894,229.626,148.929" id="path17" style="fill:#FFE68C;"></path>

<path d="M201.759,193.176c-4.047,5.73-7.796,10.059-12.466,15.155c-2.443,2.666-7.306,6.639-5.867,10.876  c0.081-0.773,0.163-1.546,0.244-2.319c-2.605,3.671-6.835,5.835-8.923,10.021c-0.183-0.408-0.101-0.652,0.245-0.733  c-6.63,2.89-4.411,9.903,1.833,3.789c-1.8-0.524-1.495-0.674-2.811-1.467c4.162,3.717,6.318-0.757,9.534-3.666  c2.599-2.351,7.229-5.208,4.398-9.046c0.325,1.798,0.497,1.63,0.123,3.421c3.974-3.496,7.731-7.878,10.694-12.16  C199.972,205.303,206.189,191.032,201.759,193.176" id="path19" style="fill:#FFE68C;"></path>

<path d="M137.47,97.718c-0.05-0.67-1.583-1.228-0.245-1.1c-3.239-1.774-10.057,1.217-6.967,5.623  c-0.244-0.489-0.489-0.978-0.733-1.467c-0.677,0.935,0.462,0.005,0.489-0.734c-3.969,2.834-3.056,6.536,0.244,9.412  c-0.204-0.53-0.408-1.059-0.611-1.589c-3.595,10.276,17.751,9.97,21.022,0.366c3.368-9.888-11.784-5.74-3.544-1.222  c-0.326-0.489-0.651-0.978-0.978-1.467c-1.088,3.028-6.131,6.238-9.289,6.111c0.407,0.163,0.814,0.327,1.222,0.49  c-1.626-1.283-3.445-1.824-5.133-2.934c0.122,0.367,0.244,0.734,0.366,1.101c0.601-2.729-1.763-3.246-1.833-5.256  c-0.087-2.501,2.896-2.92,1.1-5.744c-0.183,0.603-0.031,1.443-0.121,1.955c0.757-1.27,1.4-1.662,3.422-1.955  c-0.922-0.283-0.438-0.351-0.734-0.856C136.827,99.67,137.373,99.478,137.47,97.718" id="path21" style="fill:#FFE68C;"></path>

<path d="M157.026,124.975c-1.414,11.786,25.677,13.15,19.434-1.956c-1.895-4.585-4.732-7.61-10.267-8.005  c-1.975-0.141-11.684,1.484-7.456,4.828c1.049,0.83,7.371-0.383,9.533,0.428c4.366,1.638,2.648,6.301,5.501,9.351  c-0.163-0.571-0.326-1.142-0.489-1.712c-0.848,0.652,0.378-0.011,0.733-0.733c-5.408,6.126-9.012,2.153-15.034,0.122  c0.245,0.163,0.489,0.327,0.734,0.49C159.117,125.553,158.422,123.653,157.026,124.975" id="path23" style="fill:#FFE68C;"></path>

<path d="M191.249,130.963c-4.459,1.443-10.143,3.243-9.656,8.313c0.113,1.179,1.603,3.032,1.834,3.788  c0.572,1.872-0.844,2.323,0.489,4.156c3.779,5.198,14.225,2.503,16.621-2.69c1.038-2.251,1.72-9.068-0.61-10.879  c-2.541-1.975-5.265,1.081-4.034,1.958c-0.152,6.138-2.431,10.447-9.288,7.82c0.407,0.326,0.814,0.653,1.222,0.979  c-0.163-0.163-0.325-0.326-0.488-0.489c0.081,0.489,0.163,0.978,0.244,1.467c0.895-3.189-0.472-5.875-2.811-8.189  c-0.122,0.326-0.244,0.652-0.366,0.979C186.106,136.143,194.362,132.462,191.249,130.963" id="path25" style="fill:#FFE68C;"></path>

<path d="M202.86,158.22c0.29-0.275,0.383-1.315,0.489-1.711c0.162,0.204,0.325,0.407,0.487,0.611  c-0.458-8.314-19.051,3.58-8.311,7.698c-0.366-0.448-0.733-0.896-1.1-1.345c0.836,12.412,21.324,8.555,17.723-0.427  c-2.805-6.996-4.532,1.591-7.456,2.628c-5.026,1.784-5.652-5.642-8.677-6.232c0.285,0.651,0.569,1.303,0.854,1.954  c0.596-1.744,2.286-2.784,4.401-3.301c-0.052-0.029-1.696-0.481-0.612-0.121c0.182,0.06,0.464-0.292,0.488,0.121  c-0.204-0.529-0.407-1.058-0.611-1.587c-0.122,0.529-0.244,1.058-0.366,1.587c0.248,0.197,0.699-0.324,0.855-0.243  C201.58,159.623,201.962,158.752,202.86,158.22" id="path27" style="fill:#FFE68C;"></path>

<path d="M180.616,175.332c-11.485-0.304-4.16,11.533,0.549,15.154c8.472,6.515,19.881-1.091,13.506-10.512  c-0.943-1.395-2.832-4.483-4.766-3.544c-2.694,1.309,0.271,3.992,0.854,5.623c3.928,11.004-9.765,2.298-13.077-2.322  c-0.041,0.325-0.081,0.651-0.122,0.977C178.521,178.414,183.74,176.843,180.616,175.332" id="path29" style="fill:#FFE68C;"></path>

<path d="M169.003,192.564c-9.012-1.401-6.339,6.823-5.562,11.489c0.533,3.199,1.145,4.815,4.218,5.866  c2.239,0.766,5.933-0.213,5.745-1.345c2.058-2.798,5.506-2.237,6.599-5.378c-0.033,0.114-0.348,0.935-0.488,1.102  c1.863-3.436,1.706-8.597-2.078-10.146c-5.118-2.094-4.729,2.819-2.323,5.745c-0.325-0.733-0.651-1.468-0.977-2.201  c-0.078,1.163,0.136,2.462,0.366,3.668c0.146-0.168,0.396-0.614,0.61-0.734c-0.028-0.11,0.013-0.191,0.124-0.243  c-0.163,0.488-0.327,0.978-0.49,1.466c0.53-0.488,1.06-0.978,1.59-1.466c-2.874,1.113-6.435,3.395-7.7,6.355  c0.594-0.663,1.342-1.188,1.955-1.834c-0.488,0-0.978,0-1.466,0c0.152-0.176,0.426,0.157,0.488,0.122  c-0.448-0.163-0.896-0.326-1.344-0.489c0.407,0.57,0.814,1.142,1.222,1.712c-1.458-3.368-1.441-6.643-3.789-9.656  c-0.041,0.652-0.081,1.305-0.122,1.957C165.699,198.292,173.4,189.993,169.003,192.564" id="path31" style="fill:#FFE68C;"></path>

<path d="M152.993,209.554c-7.533,0.703-9.662,10.296-3.179,14.056c-0.488-0.448-0.978-0.897-1.466-1.346  c-0.092,1.01-0.189-2.016-0.123-2.32c-8.992,14.36,24.647,14.993,16.624,1.955c-0.23,0.965-0.586,2.384-0.734,3.177  c2.317-2.985,4.268-7.947,2.199-11.368c-4.742-7.841-15.177-1.054-3.909,4.156c-0.445-0.32-1.591-2.679-1.591-1.832  c0,1.315,0.373-1.597,0.368-1.588c-0.978,1.692-1.297,3.65-1.101,5.621c0.204-0.733,0.407-1.468,0.611-2.201  c-1.464,1.879-4.591,4.069-2.566,5.989c0.187-0.071-0.005-0.704,0.243-0.854c0.155,0.179,0.531,0.839,0.855,0.854  c-2.118-0.313-4.168-1.235-5.988-2.322c0.182,0.892,0.742,2.037,1.224,2.813c1.363-4.684-0.233-5.853-3.424-8.557  c0.081,0.611,0.163,1.223,0.244,1.834C151.141,215,156.174,208.78,152.993,209.554" id="path33" style="fill:#FFE68C;"></path>

<path d="M85.891,171.297c13.088-4.782,22.808-15.37,34.223-22.979c2.326-1.551,19.455-9.115,12.834-12.345  c-3.651-1.781-13.612,6.492-16.377,8.556c-5.997,4.476-11.438,9.685-17.035,14.641C96.813,161.583,82.712,169.465,85.891,171.297" id="path35" style="fill:#FFE68C;"></path>

<path d="M93.225,176.308c16.957-3.444,34.078-6.005,51.266-8.008c4.56-0.531,20.519-0.271,23.291-4.093  c4.64-6.394-4.916-5.885-8.066-5.255c-15.768,3.151-31.569,5.517-47.265,9.08c-6.69,1.519-13.263,3-19.325,6.339  C91.189,175.439,92.15,176.042,93.225,176.308" id="path37" style="fill:#FFE68C;"></path>

<path d="M102.392,182.788c10.873,5.607,22.596,8.796,34.04,12.955c2.608,0.947,19.477,5.442,12.528-2.688  c-4.591-5.372-20.238-6.389-26.342-8.076c-2.634-0.729-18.241-5.986-20.103-3.902C101.613,182.083,101.561,181.644,102.392,182.788" id="path39" style="fill:#FFE68C;"></path>

<path d="M253.828,156.262c-2.939,0.949-16.834,3.642-13.322-3.055c3.028-5.775,12.406-1.822,11.183-11.61  c-1.061-8.491-4.802-4.974-11.061-7.578c-6.436-2.678-1.023-7.461-2.566-12.101c-2.256-6.781-20.619,7.028-19.129-6.294  c0.563-5.034-2.782-11.653-8.128-10.451c-2.934,0.66-4.887,4.278-8.066,2.078c-3.195-2.21-1.566-8.487-2.261-11.734  c-0.705-3.293-2.689-6.697-6.601-5.989c-2.453,0.444-4.08,4.289-6.661,4.034c-4.337-0.429-2.449-6.096-2.444-8.922  c0.007-3.994-0.334-5.607-4.033-7.456c-6.581-3.288-11.476,2.344-18.212,1.71c1.465-5.875-7.13-12.305-12.346-11  c-5.055,1.265-5.341,6.275-7.943,9.411c-8.497,10.239-17.255,22.778-26.401,33.367c-6.141,7.11-11.475,13.702-16.545,21.669  c-2.178,3.423-7.885,12.679-13.277,11.332c-9.601-2.397,14.257-28.939,17.33-32.437c8.232-9.37,14.679-19.944,23.004-29.104  c1.738-1.913,3.43-4.665,5.377-6.294c1.437-1.203,3.359-1.375,4.645-2.873c3.036-3.536,3.482-6.756,8.434-8.617  c11.394-4.282,16.192,8.188,25.178,8.188c8.941,0,19.198,2.228,17.967,12.834c4.329-0.662,10.215-1.076,14.057,1.589  c3.216,2.23,3.697,6.037,5.623,9.167c0.3,0.488-0.448,1.979-0.123,2.322c0.754,0.795,3.956,0.985,5.011,1.161  c2.965,0.494,7.079,0.817,9.411,2.994c2.509,2.342,2.769,6.26,4.311,9.272c1.558,3.044,5.747,1.355,9.013,2.095  c4.504,1.021,10.405,4.251,11.732,9.044c1.379,4.98-1.983,5.179,3.056,8.313c6.573,4.089,9.896,3.966,8.924,12.709  C258.47,148.457,258.061,154.008,253.828,156.262" id="path41"></path>

<path d="M239.161,177.409c0.605,7.615-0.243,12.95-5.744,18.455c-2.967,2.969-6.737,5.247-10.939,5.745  c-4.92,0.583-4.282,2.692-5.439,7.335c-1.137,4.561-2.223,9.972-5.316,13.688c-1.967,2.362-4.925,2.919-6.539,5.745  c-2.275,3.98-4.007,7.145-7.212,10.388c-1.249,1.264-0.905,2.315-2.811,3.301c-1.225,0.633-3.43-0.098-4.522,0.612  c-3.105,2.018-1.819,3.583-2.383,6.966c-0.947,5.68-9.968,2.897-13.506,2.139c-17.871-3.833-31.794-20.572-46.935-30.13  c-8.375-5.286-18.678-3.303-24.335-12.731c-5.205-8.674-12.359-15.071-21.742-18.922c-2.062,3.569,1.143,4.872,3.544,6.599  c3.388,2.437,5.467,4.391,8.262,7.678c2.835,3.335,5.565,6.661,8.827,9.599c3.639,3.276,7.756,4.269,11.634,6.803  c3.854,2.519,6.427,5.631,10.878,7.699c4.163,1.935,9.133,3.261,12.458,6.591c3.625,3.63,5.229,5.932,10.274,7.832  c4.519,1.702,7.827,3.617,11.611,6.479c2.776,2.1,5.611,4.243,9.046,5.133c1.979,0.513,7.401-0.617,8.433,1.101  c2.613,4.354-4.928,4.784-7.211,4.156c-3.769-1.036-6.055-4.287-9.411-5.989c-3.779-1.916-7.46-3.49-11.362-5.36  c-3.796-1.817-7.962-3.181-11.58-5.319c-4.199-2.482-7.273-6.205-11.159-8.512c-3.952-2.346-7.697-4.376-11.489-7.087  c-3.846-2.75-7.997-3.699-11.846-6.127c-6.887-4.343-11.237-10.888-16.265-16.974c-2.815-3.408-6.7-5.25-9.657-8.434  c-3.361-3.618-3.761-7.06-8.678-9.167c-9.616-4.12-6.292-14.166-1.956-21.755c1.789-3.13,10.702-19.544,14.545-18.579  c8.75,2.196-3.335,19.423-5.396,22.517c-1.241,1.862-7.006,9.568-3.026,10.996c4.71,1.689,9.309,3.504,13.8,5.721  c7.914,3.907,15.53,8.837,21.39,15.523c3.773,4.306,4.68,7.94,10.208,9.849c5.378,1.856,10.563,4.22,15.458,7.121  c7.402,4.388,14.711,10.086,21.392,15.541c5.016,4.096,20.658,17.04,27.01,9.535c1.192-1.409,0.657-4.446,1.834-6.111  c1.905-2.696,3.586-2.618,6.661-3.18c2.579-0.47,5.44-1.423,6.6-3.972c1.354-2.975,0.084-5.635,1.039-8.373  c1.881-5.392,9.591-3.051,11.429-9.167c0.697-2.319,1.421-4.847,1.894-7.211c0.619-3.101-1.916-4.458-1.834-6.477  c0.164-4.062,6.877-1.675,10.879-2.078c5.444-0.548,10.8-3.74,12.589-9.168c0.899-2.729,1.305-6.307-1.589-7.762  c-2.249-1.13-5.726-3.144-4.34-6.11c2.3-4.924,9.032-1.532,11.308-6.049c1.992-3.955-2.621-5.72,3.177-5.378  C251.871,162.765,244.268,174.075,239.161,177.409" id="path43"></path>

<path d="M54.847,133.041c26.9,22.045,51.666,46.506,77.732,69.538c24.229,21.408,53.674,38.908,80.06,57.574  c-3.089-23.262-13.174-44.78-21.226-66.77c-6.35-17.342-13.896-33.706-21.678-50.482c-6.377-13.749-12.755-27.497-19.132-41.246  c-1.844-3.975-3.688-7.95-5.532-11.925c-1.758-3.79-4.405-0.924-8.09,0.41c-9.244,3.347-19.231,5.45-26.436,12.258  c-3.748,3.542-7.771,6.932-11.295,10.699c-3.287,3.514-6.952,9.42-11.273,11.566c-5.072,2.518-11.118,7.044-16.629,8.255  C66.876,133.901,59.46,133.107,54.847,133.041" id="path45" style="fill:#E3D18F;"></path>

<path d="M57.046,135.242c3.439-3.252,6.581-2.243,11.062-2.628c5.755-0.496,11.01-2.353,15.95-5.317  c8.637-5.182,15.546-13.257,23.04-19.922c6.106-5.431,14.836-10.637,22.374-14.229c9.312-4.436,12.853-2.793,18.144,4.45  c-5.063,3.212-11.882,7.464-14.178,12.956c-2.468,5.901-6.417,13.701-7.579,20.168c-0.739,4.115,0.758,8.089-0.122,12.098  c-1.017,4.636-5.057,8.093-5.622,12.896c-0.651,5.523,4.346,9.96,8.351,12.85c6.323,4.563,11.342,10.015,19.149,12.023  c4.872,1.254,6.815,1.528,7.761,7.211c0.97,5.825,2.242,7.291,7.029,10.021c5.559,3.17,6.909,7.552,10.999,12.162  c4.929,5.555,9.652,12.304,15.522,16.807c6.734,5.166,15.549,8.144,20.483,15.438c2.461,3.638,9.102,14.924,2.006,15.974  c-6.287,0.93-14.928-10.611-20.473-13.079c-6.18-2.75-12.025-7.841-17.168-12.091c-22.537-18.621-45.993-35.336-67.717-54.642  c-7.956-7.07-16.21-13.891-24.047-21.076c-4.187-3.84-8.552-7.474-12.742-11.314C65.519,142.559,61.764,137.277,57.046,135.242" id="path47" style="fill:#D5B258;"></path>

<path d="M84.181,12.162c-4.984-2.372-9.969-4.744-14.954-7.116c-4.682-2.228-9.88-1.191-15.023-1.1  C43.853,4.129,34.246,9.082,26.246,16.073c-4.127,3.606-7.396,9.179-10.833,13.445c-4.502,5.588-0.151,5.654,0.811,12.223  c1.091,7.452-2.023,18.84-3.667,26.4c-1.451,6.671-6.823,10.958-7.517,17.845c-0.399,3.967,1.285,7.8,2.308,11.618  c1.294,4.827-3.274,9.585-5.641,13.781c-2.445,4.336,5.509,19.911,8.405,23.247c3.96,4.561,10.71,0.798,11.703,6.226  c0.712,3.895-0.038,6.615,3.819,7.585c2.479,0.623,5.01,1.138,7.579,0.979c2.254-0.14,4.507-0.779,6.6-1.588  c6.188-2.392,6.648-4.247,7.949-10.577c1.122-5.464,22.772-5.867,27.542-7.808c3.871-1.576,10.276-2.778,13.294-5.694  c4.919-4.753,9.838-9.505,14.757-14.258c6.607-6.383,14.72-10.4,23.097-13.965c5.393-2.294,10.784-4.589,16.177-6.883  c3.516-1.496,5.575-10.256,6.317-13.719c0.997-4.655,4.184-6.889,3.688-11.839c-0.339-3.385-0.677-6.77-1.016-10.154  c-0.258-2.575,1.818-3.497,1.862-5.693c0.067-3.411-3.711-8.743-4.585-12.449c-1.896-8.04-2.152-9.073-8.869-13.814  c-4.728-3.336-9.772-4.57-15.296-6.366c-6.822-2.219-9.623,0.718-12.301,6.662C107.391,32.45,90.504,14.911,84.181,12.162" id="path49" style="fill:#DBFA61;"></path>

<path d="M15.001,48.706c5.769-4.814,7.68-12.809,12.955-18.089c7.5-7.507,16.584-5.068,25.301-2.016  c7.048,2.467,14.596,4.017,21.146,7.761c3.929,2.246,8.458,4.425,9.167,8.799c0.633,3.907-2.175,8.036-1.59,11.979  c1.667,11.24,7.519-1.328,9.167-5.5c1.423-3.602,2.074-7.072,4.035-10.389c2.983-5.046,6.182-5.243,10.144-8.556  c1.573-1.315,5.017-6.597,4.278-8.312c0.681,0.144,1.314,0.152,1.955,0.489c-3.734-2.506-6.583-1.684-9.35-6.111  c-3.206-5.131-9.981-4.512-15.156-5.928c-5.001-1.368-9.39-4.076-13.934-6.601c-1.911-1.061-3.688-0.096-5.684,0.062  c-3.609,0.284-6.438-0.059-10.022-0.978C47.823,2.86,41.639,4.115,33.09,9.473C27.462,13,18.252,19.116,15.979,25.606  C13.61,32.368,14.786,41.873,15.001,48.706" id="path51" style="fill:#DCF08B;"></path>

<path d="M16.102,61.418c-2.898,2.824,6.061,7.146,8.677,7.455c6.772,0.799,8.145-6.213,13.689-6.905  c5.146-0.642,9.011,3.943,14.423,2.139c4.697-1.566,7.979-5.239,12.161-7.7c3.714-2.186,3.546,0.273,7.15,0.611  c4.663,0.437,8.076-2.015,11,3.117c2.271,3.985-4.4,5.811-4.4,9.961c0,4.021-6.427,5.118-9.288,5.133  c-5.995,0.033-8.279-0.909-13.567,3.056c-2.065,1.549-4.178,3.922-5.989,3.3c-2.379-6.194-18.683,2.746-23.712,1.833  c-4.697-0.852-9.693-8.659-12.039-13.018C12.224,66.717,17.116,64.781,16.102,61.418" id="path53" style="fill:#A4BA49;"></path>

<path d="M3.879,114.096c-0.034,3.088,2.548,6.233,4.889,7.944c2.92,2.134,8.569,5.706,12.406,6.05  c12.471,1.119,14.689-17.838,26.217-16.805c-1.283,3.035-7.662,16.524,1.772,11.122c3.07-1.758,11.083-0.471,11.856-5.133  c0.809-4.882-7.621-7.279-1.772-12.223c5.083-4.297,11.273,2.672,14.056,6.6c7.616-6.229,12.788-14.332,19.239-21.625  c1.37-1.549,7.902-9.382,9.851-8.808c2.136,0.629,1.032,3.154,0.305,4.461c-0.72,1.297-3.798,4.095-2.872,5.684  c1.881,3.226,7.421-0.865,8.678-2.566c5.542-7.503-1.395-9.266-6.233-12.59c3.273-3.454,7.176-3.226,11.611-2.811  c6.892,0.645,8.7-0.984,14.117-5.195c3.497-2.718,6.913,4.367,11.551,2.139c4.096-1.967,4.396-8.962,5.805-12.711  c1.015-2.701,2.747-2.616,4.827-0.795c2.72,2.38,2.402,4.177,1.957,7.517c-1.042,7.81-3.937,16.771-9.289,22.611  c-6.565,7.164-16.307,9.999-25.667,11.168c-3.1,0.387-8.045,5.849-10.67,7.758c-3.895,2.832-7.833,5.859-11.208,9.307  c-4.272,4.365-7.478,10.445-13.445,12.834c-7.864,3.148-17.388,4.712-25.728,6.234c-10.742,1.958-15.069,19.33-26.95,16.622  c-4.982-1.136-6.372-6.053-8.679-9.901c-2.787-4.648-6.703-0.685-10.328-3.787C4.552,132.384-0.972,119.935,3.879,114.096" id="path55" style="fill:#AEC44D;"></path>

<path d="M112.903,25.362c-3.645-5.203,4.769-11.993,9.533-12.712c4.315-0.651,5.79,2.594,9.044,4.768  c6.539,4.368,21.055,5.979,18.456,17.6c-1.202,5.375-3.025,3.199-5.866,0.367c-3.597-3.585-6.585-5.215-11.734-6.355  C124.221,27.231,118.04,33.146,112.903,25.362" id="path57" style="fill:#DCF08B;"></path>

<path d="M109.848,38.317c4.08-2.753,6.148,1.587,9.105,3.361c3.538,2.124,5.764,0.542,8.984-0.061  c4.453-0.834,8.77-0.88,12.467,2.078c2.605,2.084,4.533,4.963,6.478,7.639c2.58,3.551,2.592,4.626-1.956,6.05  c-11.928,3.734-18.744-11.342-30.311-8.128c-4.44,1.234-17.995,12.877-21.756,5.928c-2.729-5.042,6.215-12.457,9.534-14.667  C104.219,39.3,109.305,36.535,109.848,38.317" id="path59" style="fill:#DCF08B;"></path>

<path d="M83.57,71.074c3.381-0.917,21.741-1.915,18.822-6.723c-2.375-3.913-15.545,0.082-18.089,2.445  c-1.796,1.668-3.679,5.165,0.122,4.521C84.594,71.432,83.587,71.116,83.57,71.074" id="path61" style="fill:#DCF08B;"></path>

<path d="M68.902,77.796c-4.198-0.629-11.481,1.405-12.222,6.478c-0.581,3.973,1.312,4.119,4.399,2.812  c1.752-0.742,6.426-4.097,7.578-5.5C70.006,79.941,70.547,77.327,68.902,77.796" id="path63" style="fill:#DCF08B;"></path>

<path d="M74.035,81.34c3.781-1.353,8.533,0.278,11.611-0.734c3.248-1.067,3.742-4.741-0.244-5.072  c-3.784-0.313-11.003,0.092-12.711,4.461C71.766,82.36,73.611,81.581,74.035,81.34" id="path65" style="fill:#DCF08B;"></path>

<path d="M77.458,90.507c2.233,0.678,3.804,4.603,5.377,4.645c2.861,0.075,2.208-3.166,0.979-4.706  C82.083,88.278,75.411,88.09,77.458,90.507" id="path67" style="fill:#DCF08B;"></path>

<path d="M113.391,62.151c2.665,1.216,5.616-0.737,8.618,0.123c2.252,0.646,8.157,3.696,9.595,0.489  c2.986-6.659-13.452-5.951-16.379-4.278c-2.191,1.252-2.869,1.734-3.178,3.789C111.913,63.167,113.274,63.453,113.391,62.151" id="path69" style="fill:#DCF08B;"></path>

<path d="M61.324,139.151c3.305,5.219,6.65,3.806,11.733,2.813c3.835-0.749,8.006-0.08,11.611-1.833  c2.461-1.197,3.589-3.251,6.539-3.911c15.707-3.516,23.485-19.062,36.85-26.584c3.79-2.133,5.633-5.963,8.19-9.289  c2.198-2.86,4.654-3.346,7.088-4.95c1.138-0.75,3.086,0.549,2.629-2.2c-0.639-3.837-3.835-1.971-6.54-1.222  c-19.326,5.349-32.41,16.77-48.298,28.326c-6.591,4.794-12.821,9.378-20.758,11.58c-3.497,0.971-10.559,6.101-13.323,3.483  c2.881,1.725,4.417,5.31,7.334,6.601C63.436,140.974,62.329,139.937,61.324,139.151" id="path71" style="fill:#998A69;"></path>

<path d="M34.68,19.006c3.331,0.181,6.121-2.409,9.899-1.466c1.94,0.484,9.145,1.122,6.723-3.178  c-1.422-2.524-10.159-1.75-12.283-0.978c-2.227,0.809-8.999,5.889-3.485,6.111C36.102,18.851,34.843,19.539,34.68,19.006" id="path73" style="fill:#EEFFAD;"></path>

<path d="M48.979,21.939c3.485-0.635,3.551,1.818,6.172,2.567c3.018,0.862,5.814,0.512,8.923,0.794  c3.001,0.272,13.724,2.2,15.46-1.284c1.435-2.877-2.875-6.44-4.929-7.809c-4.575-3.049-11.239-2.944-16.092-0.747  C56.651,16.304,47.028,20.346,48.979,21.939" id="path75" style="fill:#EEFFAD;"></path>

<path d="M113.758,27.928c-4.516,0.475-10.738,4.005-9.9,9.411c0.637,4.109,2.406,3.759,5.133,1.711  C111.035,37.516,120.372,27.3,113.758,27.928" id="path77" style="fill:#DCF08B;"></path>

<path d="M125.37,44.551c-4.147,3.771-11.962-4.627-17.723-3.667c-5.155,0.859-7.209,5.043-9.411,9.044  c-1.486,2.702-3.707,8.692-6.6,5.867c-7.537-7.36,11.582-16.938,16.567-18.601C114.633,35.052,122.104,39.879,125.37,44.551" id="path79"></path>

<path d="M104.959,25.728c-4.408,2.225-7.651-6.048-11.306-7.089c-1.891-0.538-3.613,0.575-5.5,0.306  c-2.587-0.369-5.454-5.248-8.617-6.355c-3.564-1.248-7.358-1.7-10.946-2.895c-1.85-0.616-4.104-3.093-5.799-2.972  c-2.049,0.146-3.876,0.773-5.867,1.161c-6.888,1.343-12.021-2.681-18.21,1.65C32.759,13.7,26.116,17.16,22.334,23.773  c-3.047,5.329,0.773,12.298-2.933,16.011c-5.332,5.343-7.819-2.798-7.456-6.722c0.492-5.32,3.794-11.162,8.031-14.626  c7.632-6.242,15.687-16.288,25.826-18.167c3.028-0.561,4.73-0.197,7.578,0.648c4.465,1.324,6.245,1.431,11.657,0.747  c4.41-0.557,3.588,1.082,6.677,2.676c4.865,2.51,11.041,1.53,16.011,3.911c2.109,1.011,4.282,3.936,6.295,4.339  c1.983,0.396,3.936,1.299,5.561,2.505C102.28,17.098,106.936,22.265,104.959,25.728" id="path81"></path>

<path d="M96.158,63.495c-3.03,3.479-10.696-1.511-13.323,2.812c-1.245,2.048,0.367,13.474-5.988,7.455  c-2.701-2.558-0.518-10.958,2.811-12.956c1.215-0.729,7.925-0.44,10.145-0.917C92.204,59.374,99.693,59.836,96.158,63.495" id="path83"></path>

<path d="M130.015,149.297c1.753,3.645,2.059,8.832,5.376,11.489c2.532,2.028,5.965,0.479,8.923,1.466  c-5.599,1.73-8.084,1.328-5.988,7.454c2.13,6.228,5.591,6.316,11.978,6.112c-0.855-3.097-1.711-6.192-2.566-9.289  c1.745,3.446,2.847,9.139,6.906,9.717c2.254,0.322,4.462,0.341,6.66,1.04c-7.028,1.267-8.429,1.087-6.355,7.945  c1.959,6.48,2.913,6.434,9.901,7.211c-1.426-4.237-2.853-8.475-4.278-12.712c2.577,3.147,7.053,9.191,8.066,12.466  c0.611,1.975,0.572,9.271,0.489,12.712c-0.343-3.586-2.396-6.557-3.179-10.021c-2.508,0.604-7.837-0.749-6.967,3.299  c-0.83-4.84-10.114-2.53-13.688-2.565c0.407,2.933,0.815,5.866,1.223,8.799c-1.604-2.54-2.147-7.574-3.79-9.532  c-3.917-4.669-15.044-4.62-20.167-9.045c0.901,0.104,1.669-0.222,2.568-0.121c-0.735-2.42-1.955-4.639-2.751-7.029  c-1.613-4.843-3.849-5.403-8.617-8.127c1.956,0.04,3.912,0.081,5.867,0.121c-0.267-1.998-0.687-5.149-1.833-6.844  c-2.896-4.28-11.142-5.249-16.257-6.968c4.541-0.587,9.135-0.065,13.567,0.979c-0.205-2.629-1.343-7.886-3.667-9.535  c-1.664-1.182-6.975-1.121-9.167-1.832c-2.988-0.969-5.69-2.27-8.434-3.789c5.158-0.945,10.361,0.149,15.523,0.488  c-1.061-4.26-3.004-8.397-4.889-12.344c8.922-1.265,7.517,12.093,13.933,13.688c3.83,0.953,10.29,3.187,6.967-2.934  c1.046,7.582,10.37,4.471,15.155,7.211C137.022,148.97,133.518,149.134,130.015,149.297" id="path85"></path>

<path d="M155.925,191.464c-6.714,0-13.729,0.094-13.077-8.677c0.153-2.062-1.063-3.138,1.549-3.252  c4.816-0.209,5.305-0.948,7.74,2.15C154.026,184.09,154.886,188.895,155.925,191.464" id="path87" style="fill:#BAA84D;"></path>

<path d="M131.358,160.787c-2.301-0.055-8.881-0.549-10.633-2.079c-1.965-1.717-2.183-6.784-2.566-9.167  c6.075-0.059,8.378-2.156,10.755,3.79C129.814,155.582,130.915,158.949,131.358,160.787" id="path89" style="fill:#AD994B;"></path>

<path d="M68.292,76.085c-5.081,0.369-7.6,4.54-11.245,7.456c-3.018,2.414-0.762,10.242-1.223,13.566  c-0.578,4.169-4.382,7.008-6.356,1.101c-1.847-5.53-0.49-12.239,1.223-17.478c-4.888-0.361-8.461,3.375-11,7.088  c-2.141,3.131-3.497,6.37-5.073,9.839c-1.505,3.313-4.572,5.861-5.806,9.473c-0.859,2.514,0.569,7.471-1.222,8.8  c-2.138,1.586-3.419-0.773-4.278-2.811c-3.601-8.549,7.724-16.455,9.412-24.322c-1.508,0.125-4.341,1.846-5.683,1.038  c-2.825-1.7,6.474-7.522,7.883-8.494c2.997-2.068,5.843-5.269,9.535-5.745c3.027-0.39,6.01,2.501,8.188,2.445  c3.822-0.099,1.798-6.687,6.845-8.312C62.879,68.639,72.843,72.09,68.292,76.085" id="path91"></path>

<path d="M136.002,173.62c-7.656,1.079-10.739-2.838-12.833-9.166c2.265,0.116,7.683-0.692,9.533,0.489  C134.183,165.888,135.425,172.268,136.002,173.62" id="path93" style="fill:#AD994B;"></path>

<path d="M140.647,188.531c-4.521-0.311-8.975-1.299-13.321-2.566c2.385-2.194,1.595-5.672,0.611-8.434  c5.385,0.699,7.98-0.018,10.634,4.155C139.708,183.473,140.46,186.691,140.647,188.531" id="path95" style="fill:#AD994B;"></path>

<path d="M17.446,67.529c0.749,0.788,1.315,1.807,1.956,2.688c-0.326-0.122-0.653-0.244-0.979-0.366  c-3.076,3.706,3.019,4.328,5.624,6.111c3.22,2.205,3.738,4.174,8.189,5.866c-7.154,6.819-12.001-5.903-19.068-4.521  c-4.513,0.882-2.82,6.884-5.866,9.167c-3.915,2.932,1.087,12.796,3.177,15.522c-3.033,1.147-6.38,8.304-6.966,10.939  c-0.625,2.81,1.968,7.715,1.223,8.006c-6.07,2.368-4.754-10.685-4.278-12.589c1.462-5.856,4.421-9.109,2.812-14.912  c-1.737-6.261-3.731-14.675,1.527-20.411c2.313-2.523,5.448-2.665,3.973-7.089c-1.291-3.87-1.383-5.699-0.366-9.533  c0.941-3.548,2.614-16.378,7.944-14.056c3.157,1.375,2.98,7.373,2.321,9.839C17.304,57.296,16.117,62.257,17.446,67.529" id="path97"></path>

<path d="M173.16,226.054c11.09,8.767,23.322,17.329,35.566,24.32c-10.212-25.317-21.424-50.308-29.944-76.266  c-4.637,4.131-8.925-6.918-11.245-9.044c-4.691-4.298-10.764-6.267-13.933-11.796c-1.462-2.549-3.025-2.08-5.439-3.177  c-2.96-1.345-4.448-3.676-6.906-5.563c-3.927-3.014-8.698-5.539-12.466-8.678c-6.134-5.109-12.951-6.356-18.333-12.467  c-0.916-1.039-9.927-9.585-5.012-7.944c1.516,0.506,3.328-0.123,4.889-0.123c3.05,0,3.211,2.692,5.012,4.4  c2.134,2.024,4.113,1.558,6.111,2.933c1.226,0.844,2.266,2.958,3.422,3.912c1.374,1.134,4.544,2.55,6.417,4.155  c2.594,2.224,2.366,4.074,5.684,5.501c1.907,0.82,3.167-0.378,5.133,1.589c2.035,2.034,4.494,2.037,6.356,4.215  c2.078,2.431,2.533,5.016,5.255,6.905c2.817,1.956,5.723,3.282,8.434,5.379c2.24,1.731,4.792,2.46,6.723,5.01  c2.21,2.92,3.001,6.727,6.723,8.191c-10.826-24.65-24.874-49.272-31.533-75.414c-4.663,2.771-12.797,5.666-18.09,6.723  c-2.259,0.451-5.926,0.487-7.578,2.322c-1.443,1.603,0.899,1.333-0.123,3.178c-0.715,1.29-1.966,2.287-3.055,3.239  c-5.811,5.085-12.662,5.684-17.845,12.406c-2.785,3.612-7.413,11.094-13.2,8.067c-0.401,3.173-7.803,4.553-10.817,5.562  c-3.734,1.249-8.335,0.894-12.405,0.916c1.357,4.638,7.798,7.509,11.367,10.268c6.5,5.025,12.483,10.349,18.156,16.29  c7.125,7.461,16.139,13.874,23.726,21.037c10.415,9.835,23.187,16.421,34.427,25.469c8.322,6.699,17.187,12.664,25.504,19.338  c-4.702,5.592-4.113,5.776-9.778,1.101c-3.637-3.002-7.26-6.017-10.909-9.004c-7.411-6.066-14.866-12.29-22.815-17.646  c-8.012-5.398-15.648-10.133-22.562-16.901c-7.251-7.1-14.621-14.06-22.095-20.923c-6.833-6.274-13.846-12.369-20.948-18.336  c-2.37-1.992-14.829-13.651-14.829-4.152c0,4.823-3.124,8.292-7.7,8.861c-1.268,0.157-2.729-0.708-4.033-0.489  c-1.597,0.268-2.563,1.806-3.788,2.079c-2.431,0.543-5.703,0.276-8.068-0.43c-5.52-1.648-4.826-8.49-8.922-10.571  c-2.335-1.187-10.22-1.384-6.601-7.212c2.996,3.635,2.671,3.167,6.722,2.811c5.435-0.479,5.693-1.27,7.09,4.523  c1.252,5.192,1.386,7.016,6.6,7.883c2.893,0.481,2.08-0.949,3.667-1.894c0.467-0.278,0.451-2,1.222-2.2  c1.531-0.398,1.889,1.128,2.2,1.1c1.038-0.095,2.017,3.224,3.484-1.467c0.985-3.149,0.602-7.899,2.75-10.512  c2.627-3.195,4.938-1.086,7.944-1.834c1.8-0.447,3.18-2.337,5.012-2.565c2.501-0.313,4.259,1.466,6.783,1.466  c2.592,0,5.277-0.752,7.762-1.466c2.867-0.823,5.509-2.424,8.556-1.345c0.768-2.477-1.774-13.987-1.467-14.3  c2.502-2.549,3.805,9.532,4.768,9.9c2.813,1.076,10.074-9.469,11.672-11.244c3.299-3.666,7.977-6.637,11.306-10.023  c0.989-1.006,3.285-2.167,4.033-3.178c1.898-2.561,0.751-3.515,1.345-6.478c0.674-3.37,5.128-10.768,7.822-12.955  c7.149-5.805,8.537-3.206,4.399,4.644c-1.156,2.193-5.303,6.283-4.521,8.678c1.15,3.526,2.484,0.682,4.521,0  c4.022-1.347,8.834-1.993,12.65-3.789c5.004-2.354,3.706-6.784,5.439-10.695c0.721-1.626,1.934-4.485,3.056-5.806  c0.57-0.672,3.238-1.785,3.544-2.566c0.833-2.125-0.934-9.508-1.161-12.223c-0.437-5.202-2.229-8.101-6.723-9.899  c-2.374-0.95-10.791-6.073-5.562-7.822c4.388-1.467,11.305,6.193,14.301,8.677c1.466-6.168-2.347-5.046-3.729-9.656  c-1.371-4.578,0.366-9.398-2.627-13.688c-2.294-3.289-7.772-5.56-11.855-6.784c-2.558-0.767-4.59-0.091-7.272-1.284  c-1.642-0.729-5.565-2.101-7.272-0.978c-2.077,1.367-1.757,7.198-0.978,9.533c1.047,3.143,4.863,8.706-2.2,6.356  c-1.732-0.577-5.192-6.439-5.5-8.066c-1.102-5.805,5.365-11.489,10.511-11.917c5.112-0.425,11.706,1.321,16.501,2.994  c3.95,1.378,4.955,4.739,8.556,6.539c3.173,1.586,5.633,4.208,7.149,7.456c2.035,4.356-0.446,8.472,0.795,12.283  c0.71,2.18,3.98,3.124,4.277,5.378c0.208,1.577-1.644,2.051-1.711,3.056c-0.127,1.894,0.607,2.675,0.734,4.277  c0.432,5.465,3.691,8.534,0.854,13.812c-0.947,1.762-6.184,5.439-6.354,6.845c-0.158,1.308,2.791,3.636,2.994,5.255  c0.64,5.124-6.52,6.174-5.562,11.367c0.407,2.208,4.698,8.247,5.973,11.007c2.091,4.53,4.234,9.034,6.375,13.541  c7.959,16.757,16.542,33.379,23.754,50.459c7.722,18.287,13.757,37.203,21.059,55.655c3.883,9.81,8.171,19.325,12.847,28.781  c0.682,1.379,1.925,12.199,1.493,12.771c-4.033,5.341-40.436-24.019-44.996-27.84C168.625,231.258,168.863,231.991,173.16,226.054" id="path99"></path>


  
</svg>
