<?xml version="1.0" encoding="utf-8"?>
<!-- Generator: Adobe Illustrator 10.0, SVG Export Plug-In . SVG Version: 3.0.0 Build 77)  --><svg enable-background="new 0 0 196.343 125.856" height="125.856" i:pageBounds="0 792 612 0" i:rulerOrigin="0 0" i:viewOrigin="207 458" overflow="visible" space="preserve" viewBox="0 0 196.343 125.856" width="196.343" xmlns="http://www.w3.org/2000/svg" xmlns:a="http://ns.adobe.com/AdobeSVGViewerExtensions/3.0/" xmlns:graph="http://ns.adobe.com/Graphs/1.0/" xmlns:i="http://ns.adobe.com/AdobeIllustrator/10.0/" xmlns:x="http://ns.adobe.com/Extensibility/1.0/" xmlns:xlink="http://www.w3.org/1999/xlink">
  <metadata>
    <rdf:RDF xmlns:cc="http://web.resource.org/cc/" xmlns:dc="http://purl.org/dc/elements/1.1/" xmlns:rdf="http://www.w3.org/1999/02/22-rdf-syntax-ns#">
      <cc:Work rdf:about="">
        <dc:title>Apple Pie</dc:title>
        <dc:description>Apple Pie</dc:description>
        <dc:subject>
          <rdf:Bag>
            <rdf:li>dessert</rdf:li>
            <rdf:li>food</rdf:li>
            <rdf:li>pie</rdf:li>
            <rdf:li>apple</rdf:li>
            <rdf:li>fruit</rdf:li>
            <rdf:li>menu</rdf:li>
          </rdf:Bag>
        </dc:subject>
        <dc:publisher>
          <cc:Agent rdf:about="http://www.openclipart.org/">
            <dc:title>Open Clip Art Project</dc:title>
          </cc:Agent>
        </dc:publisher>
        <dc:creator>
          <cc:Agent rdf:about="http://web.resource.org/cc/PublicDomain">
            <dc:title>Gerald G.</dc:title>
          </cc:Agent>
        </dc:creator>
        <dc:rights>
          <cc:Agent rdf:about="http://web.resource.org/cc/PublicDomain">
            <dc:title>Public Domain</dc:title>
          </cc:Agent>
        </dc:rights>
        <dc:date>2005/05/31</dc:date>
        <dc:format>image/svg+xml</dc:format>
        <dc:type rdf:resource="http://purl.org/dc/dcmitype/StillImage"/>
        <cc:license rdf:resource="http://web.resource.org/cc/PublicDomain"/>
        <dc:language>en</dc:language>
      </cc:Work>
      <cc:License rdf:about="http://web.resource.org/cc/PublicDomain">
        <cc:permits rdf:resource="http://web.resource.org/cc/Reproduction"/>
        <cc:permits rdf:resource="http://web.resource.org/cc/Distribution"/>
        <cc:permits rdf:resource="http://web.resource.org/cc/DerivativeWorks"/>
      </cc:License>
    </rdf:RDF>
  </metadata>
  <g i:dimmedPercent="50" i:layer="yes" i:rgbTrio="#4F008000FFFF" id="Layer_1">
    <g>
      <path clip-rule="evenodd" d="     M188.441,67.266c-5.652-3.6-11.52-6.984-18.036-10.296c-6.66-3.456-15.012-6.768-20.88-9.54     c-5.796-2.844-10.188-4.284-13.716-6.66c-3.564-2.448-5.725-5.832-7.74-7.236c-2.124-1.404-3.852-1.872-5.04-1.26     c-4.859-4.284-9.792-7.488-14.796-9.9c-5.184-2.376-10.116-3.816-15.48-4.32c-1.944-1.404-4.464-3.42-7.416-5.76     c-3.06-2.484-7.74-6.624-10.44-8.676c-2.772-2.088-4.068-3.384-5.976-3.6c-2.124-0.288-4.896,0.936-5.94,2.16     c-1.008,1.152-1.116,2.772-0.18,4.86c-6.228,1.548-10.656,3.024-13.14,4.716c-2.556,1.656-3.168,3.24-1.98,5.04     c-2.736,0.252-5.328,0.9-7.776,1.8c-2.592,0.864-5.4,2.34-7.02,3.6c-1.62,1.08-1.116,2.232-2.52,3.6     c-1.584,1.44-5.472,3.06-6.66,4.86c-1.224,1.728-1.404,3.384-0.54,5.256c-2.952,0.9-5.544,2.16-7.776,3.78     c-2.304,1.512-4.824,3.888-5.76,5.76c-1.008,1.836-1.008,3.528,0,5.22c-1.872,0.684-3.492,1.8-4.86,3.06     c-1.476,1.26-3.276,3.096-3.6,4.68c-0.324,1.476,0.324,3.024,1.8,4.5c-1.296,1.512-2.088,3.204-2.52,5.077     c-0.576,1.908-0.576,3.996,0,6.119c0.648,2.053,1.8,4.213,3.6,5.939c1.692,1.549,4.68,2.809,6.48,3.781     c1.62,0.971,1.98,1.619,3.42,1.799c1.404,0.109,2.988-0.504,4.896-1.439c0.144,0.611,1.224,1.908,3.24,4.176     c1.944,2.232,5.148,4.68,8.64,9c3.348,4.141,6.696,11.449,11.7,16.236c5.004,4.752,10.872,8.783,18.036,12.24l43.38-1.477     c10.439-0.432,19.476-1.008,27.647-1.584c8.136-0.611,14.868-1.225,20.736-1.98l11.16-0.359c1.907,0.289,5.363,0,10.655-0.721     c5.257-0.863,12.061-1.943,20.7-3.779c0.864-2.557,1.044-5.221,0.54-8.137c-0.504-2.951-1.691-6.012-3.563-9.322     c2.771-3.098,4.355-6.156,4.607-9.182c0.145-3.096-2.268-6.947-2.952-9.18c-0.684-2.375-1.008-3.779-0.972-4.607     c1.98-1.26,2.592-2.52,1.98-3.924C193.625,70.182,191.789,68.742,188.441,67.266z" fill-rule="evenodd" i:knockout="Off" stroke="#000000" stroke-miterlimit="10" stroke-width="0.036"/>
      <path clip-rule="evenodd" d="     M2.25,68.525c0.216-1.584,0.576-2.736,1.08-3.6c0.396-0.9,1.26-1.439,1.62-1.62c0.252-0.288,0.252-0.288,0,0     c-2.34-1.764-3.06-3.456-2.7-5.076c0.468-1.764,3.456-3.708,5.22-4.86c1.584-1.188,3.024-2.016,4.32-2.34     c-1.008-1.584-1.26-3.024-0.9-4.32c0.252-1.404,0.72-2.16,3.06-3.78c2.412-1.764,5.904-3.924,11.016-6.48     c-0.9-1.98-0.972-3.42-0.36-4.716c0.54-1.188,2.412-1.764,3.96-2.7c1.44-1.224,3.708-2.52,4.86-3.6     c1.044-1.08,0.36-1.692,1.44-2.52c0.828-0.864,2.052-1.764,4.5-2.7c2.556-0.936,5.868-1.944,10.476-2.88     c-1.224-1.656-1.44-2.88-0.36-3.96c0.936-1.116,3.924-1.476,6.48-2.34c2.592-0.936,5.436-1.908,8.82-3.06     c-0.612-1.692-0.864-3.024-0.36-3.996c0.504-1.116,1.512-1.728,2.88-1.98c1.116-0.324,2.556-0.324,4.176,0.54     c1.584,0.9,3.492,2.268,5.58,4.5c5.796,5.436,10.476,9.288,14.04,11.556c3.528,2.16,4.32,0.864,7.236,1.8     c2.808,0.828,5.832,1.692,9.9,3.96c4.104,2.268,8.784,5.616,14.437,9.9c1.296-0.324,2.52-0.036,3.96,0.72     c1.26,0.72,2.52,2.268,4.319,3.816c1.836,1.548,3.456,3.42,6.66,5.22c3.204,1.584,6.876,2.412,12.276,4.86     c5.256,2.448,13.859,6.552,19.439,9.54c5.473,2.772,11.557,6.084,13.536,7.596c1.98,1.439,1.332,1.225-1.8,1.439     c-3.313,0.145-11.016-0.467-17.136-0.18c-6.229,0.252-12.853,1.188-19.477,1.98c-6.66,0.719-13.536,2.16-19.8,2.52     c-6.3,0.287-12.132-0.217-17.496-0.539c-5.544-0.469-11.628-1.584-14.796-1.801c-3.132-0.252,0.576-0.289-4.14,0.721     c-5.004,1.08-17.82,4.176-24.696,5.398c-6.876,1.045-12.636,0.756-16.02,1.08c-3.456,0.252-1.368,0.938-4.14,0.541     c-2.88-0.504-8.604-2.088-12.456-3.24c-3.888-1.297-7.704-2.809-10.62-3.961c-3.096-1.26-4.68-2.592-7.236-2.879     c-2.772-0.289-6.408,0.973-8.28,1.26C2.934,68.563,2.142,68.67,2.25,68.525z" fill="#FBDF99" fill-rule="evenodd" i:knockout="Off" stroke="#000000" stroke-miterlimit="10" stroke-width="0.036"/>
      <path clip-rule="evenodd" d="     M56.321,15.354c0-0.9,1.116-3.024,2.52-3.6c1.224-0.72,2.844-0.972,4.86-0.36c1.872,0.468,6.552,3.204,6.696,3.78     c-0.144,0.504-4.896-0.036-6.336-0.36c-1.368-0.468-1.044-1.98-1.8-1.62c-1.008,0.324-2.232,3.348-3.24,3.78     C57.978,17.333,56.286,16.146,56.321,15.354z" fill-rule="evenodd" i:knockout="Off" stroke="#000000" stroke-miterlimit="10" stroke-width="0.036"/>
      <path clip-rule="evenodd" d="     M68.021,5.238c-0.756-0.72-0.72-2.16,0.396-1.98c1.08,0.144,5.004,2.124,5.94,2.88c0.792,0.684-0.324,1.296-1.26,1.26     C72.018,7.146,68.706,5.922,68.021,5.238z" fill-rule="evenodd" i:knockout="Off" stroke="#000000" stroke-miterlimit="10" stroke-width="0.036"/>
      <path clip-rule="evenodd" d="     M52.001,20.034c-1.692-0.648-4.248-0.072-6.12,0.18c-1.98,0.18-4.932,0.504-5.256,1.26c-0.396,0.684,1.656,2.484,3.096,2.88     c1.404,0.216,2.952-0.972,5.04-1.08c1.944-0.18,6.264,0.864,6.84,0.36C56.069,22.95,53.622,20.682,52.001,20.034z" fill-rule="evenodd" i:knockout="Off" stroke="#000000" stroke-miterlimit="10" stroke-width="0.036"/>
      <path clip-rule="evenodd" d="     M42.425,30.293c-2.016-0.756-7.416-1.404-9.54-1.26c-2.196,0.18-2.844,1.476-3.6,2.34c-0.864,0.828-2.772,1.44-1.44,2.52     c1.188,0.9,8.028,3.42,9,3.276c0.936-0.288-3.6-3.456-3.6-4.356c-0.144-0.972,0.864-0.9,2.88-0.9c1.908,0,7.38,1.08,8.496,0.9     C45.666,32.49,44.333,30.906,42.425,30.293z" fill-rule="evenodd" i:knockout="Off" stroke="#000000" stroke-miterlimit="10" stroke-width="0.036"/>
      <path clip-rule="evenodd" d="     M37.565,42.75c-1.692-0.936-7.164-2.844-9.9-3.24c-2.844-0.36-4.356,0-6.48,1.08c-2.232,1.008-7.812,3.564-6.336,5.04     c1.512,1.404,13.428,3.672,15.336,3.6c1.836-0.288-4.752-3.348-4.5-4.32c0.144-0.864,3.888-1.332,5.4-1.26     c1.368,0,2.016,0.576,3.06,0.9c0.936,0.18,2.268,0.18,2.88,0C37.565,44.189,39.042,43.542,37.565,42.75z" fill-rule="evenodd" i:knockout="Off" stroke="#000000" stroke-miterlimit="10" stroke-width="0.036"/>
      <path clip-rule="evenodd" d="     M8.37,57.689c0.72-1.152,3.564-4.104,5.76-4.68c2.052-0.576,4.68,0.324,7.056,0.9c2.376,0.432,6.336,1.08,7.02,1.8     c0.504,0.72-1.728,1.872-3.78,2.34c-2.34,0.36-6.516-0.288-9.036,0c-2.484,0.18-4.284,1.44-5.4,1.44     C8.766,59.31,7.578,58.806,8.37,57.689z" fill-rule="evenodd" i:knockout="Off" stroke="#000000" stroke-miterlimit="10" stroke-width="0.036"/>
      <path clip-rule="evenodd" d="     M19.025,63.846c1.656-0.324,5.796,0.107,8.1,0.9c2.268,0.756,5.796,3.383,5.58,4.139c-0.36,0.686-5.544,0.506-7.38,0     c-1.944-0.684-2.376-2.986-3.78-3.42c-1.584-0.467-4.212,0.938-4.68,0.721C16.469,65.861,17.189,64.063,19.025,63.846z" fill-rule="evenodd" i:knockout="Off" stroke="#000000" stroke-miterlimit="10" stroke-width="0.036"/>
      <path clip-rule="evenodd" d="     M47.861,59.49c1.44-1.908,3.096-6.984,4.68-9.54c1.368-2.592,2.232-4.32,3.96-6.3c1.692-2.124,6.048-4.32,6.12-6.3     c-0.072-2.124-5.652-5.724-6.48-5.796c-0.972-0.036,1.188,3.708,1.08,5.256c-0.252,1.44-0.864,3.168-1.98,3.24     c-1.26-0.144-4.212-3.6-4.68-3.42c-0.36,0.072,2.088,2.628,2.34,4.32c0.108,1.692-0.648,3.744-1.44,5.58     c-0.9,1.656-2.196,3.816-3.6,4.68c-1.44,0.756-4.464-0.756-4.896,0.18c-0.54,0.864,1.944,3.78,2.196,5.4     c0.18,1.584-1.368,3.672-0.9,4.176C44.622,61.362,46.421,61.326,47.861,59.49z" fill-rule="evenodd" i:knockout="Off" stroke="#000000" stroke-miterlimit="10" stroke-width="0.036"/>
      <path clip-rule="evenodd" d="     M66.042,29.214c2.448-0.756,4.932-3.96,7.596-5.58c2.556-1.656,6.408-2.304,7.38-3.6c0.756-1.404-3.096-4.032-2.52-4.14     c0.54-0.18,6.012,1.836,5.58,3.42c-0.648,1.476-6.192,3.348-9,5.76c-2.844,2.304-5.904,7.344-7.776,8.46     c-1.98,1.044-2.7-1.152-3.96-2.16c-1.404-1.188-4.68-3.924-4.14-4.32C59.669,26.622,63.521,29.753,66.042,29.214z" fill-rule="evenodd" i:knockout="Off" stroke="#000000" stroke-miterlimit="10" stroke-width="0.036"/>
      <path clip-rule="evenodd" d="     M106.613,36.99c0.54,0.432,4.716,0.612,6.84,2.34c2.124,1.692,5.004,7.56,5.58,7.74c0.324-0.072-1.332-5.832-2.88-7.56     c-1.584-1.8-4.752-2.484-6.3-2.88C108.09,36.125,106.037,36.521,106.613,36.99z" fill-rule="evenodd" i:knockout="Off" stroke="#000000" stroke-miterlimit="10" stroke-width="0.036"/>
      <path clip-rule="evenodd" d="     M156.365,59.669c2.269,0,9.181,1.692,9.9,2.016c0.396,0.18-4.464-0.072-6.66-0.18c-2.34-0.144-5.688-0.324-6.3-0.54     C152.693,60.498,154.134,59.598,156.365,59.669z" fill-rule="evenodd" i:knockout="Off" stroke="#000000" stroke-miterlimit="10" stroke-width="0.036"/>
      <path clip-rule="evenodd" d="     M192.762,71.766c-1.044-0.828-2.017-1.477-3.061-1.801c-1.151-0.395-2.088-0.467-3.24-0.359c-6.552-0.359-13.428-0.359-20.915,0     c-7.633,0.324-16.272,1.26-23.977,1.98c-7.74,0.576-15.444,1.836-21.996,1.98c-6.66,0.035-12.996-1.045-17.46-1.441     c-4.5-0.504-7.02-1.584-9.36-1.439c-2.412,0.107-2.916,1.188-5.256,1.98c-2.448,0.648-4.86,1.188-9.18,2.16     c-4.536,0.936-12.852,2.232-17.316,3.059c-4.428,0.541-7.164,0.648-9.18,0.9c-2.196,0.289-1.584,1.008-3.42,0.9     c-1.98-0.252-4.572-1.043-7.776-1.801c-3.312-0.826-7.2-1.402-11.52-2.699c-4.392-1.367-10.296-4.355-14.256-5.221     c-3.996-0.936-7.452-0.898-9.54-0.18c-2.304,0.613-2.88,2.736-3.24,4.141c-0.36,1.297,0.252,2.844,1.44,3.959     c1.152,0.973,4.032,1.621,5.58,2.521c1.368,0.9,2.124,2.34,3.24,3.059c1.008,0.648,1.8,0.9,3.06,0.9     c1.152-0.072,2.592-0.539,4.176-1.26c1.224,1.764,2.772,3.527,4.68,5.436c1.908,1.836,4.968,3.744,6.66,5.76     c1.656,2.018,1.692,4.033,3.24,6.301c1.584,2.268,4.68,5.221,6.12,7.199c1.44,1.98,1.08,3.205,2.34,4.537     c1.296,1.295,3.816,2.195,5.256,3.42c1.404,1.188,1.152,2.34,3.24,3.779c2.088,1.404,6.624,3.924,9.18,4.68     c2.52,0.721,3.888-0.395,5.94-0.359c2.088,0.037,2.124,0.541,6.336,0.541c4.212-0.037,10.98-0.182,18.828-0.686     c7.812-0.504,6.732-0.971,12.457-1.295c5.724-0.324,3.527,0.324,10.512,0c6.948-0.324,7.271-0.504,17.352-1.332     s12.708-1.369,22.969-1.943c10.26-0.576,8.208,0.898,18.035-0.324c9.828-1.225,21.313-4.609,21.313-4.609l-0.324-4.248     c0,0-10.404,3.025-19.332,4.248c-8.964,1.225-8.315,0.182-16.416,0.648c-8.1,0.504-7.128,0.504-16.056,1.332     c-8.928,0.793-4.572,1.045-19.692,1.943c-15.12,0.938-36.54,1.621-40.824,1.766c-4.284,0.107-9.9,0.646-13.896,0.539     c-3.996-0.145-7.272,0.107-9.9-1.26c-2.628-1.404-4.068-5.148-5.76-7.057c-1.692-1.871-3.06-3.168-4.32-4.32     c-1.26-1.15-2.016-1.043-3.24-2.52c-1.26-1.475-2.88-4.535-4.176-6.299c-1.26-1.766-2.34-2.557-3.42-4.141     c-1.08-1.619-2.772-3.744-3.06-5.4c-0.252-1.691-1.548-3.6,1.44-4.535c3.024-0.9,9.252-0.18,16.416-0.9     c7.164-0.684,19.908-2.881,26.136-3.24c6.156-0.359,6.66,1.512,10.62,1.08c3.996-0.432,9.468-3.275,12.997-3.6     c3.491-0.324,3.852,1.477,7.92,1.619c4.067,0.145,8.531,0.109,16.235-0.719c7.704-0.865,21.78-3.672,29.557-4.32     c7.739-0.684,11.376,0.611,16.56,0.359c5.185-0.252,10.98-1.619,14.256-1.801c3.24-0.18,3.853,0.973,5.04,0.721     C191.97,73.818,192.617,73.063,192.762,71.766z" fill="#FBDF99" fill-rule="evenodd" i:knockout="Off" stroke="#000000" stroke-miterlimit="10" stroke-width="0.036"/>
      <path clip-rule="evenodd" d="     M188.766,76.158c0.324,0.252,1.08,1.295,1.979,3.275c0.864,1.908,2.16,4.645,3.601,8.209c-0.072,1.008-0.612,2.158-1.62,3.6     c-1.188,1.367-3.096,3.924-4.608,4.607c-1.548,0.576-2.916,0.252-4.248-0.973c-0.359-3.348-1.008-6.084-1.655-8.207     c-0.792-2.16-3.708-2.916-2.628-4.607C180.737,80.227,183.617,78.391,188.766,76.158z" fill="#D6C98A" fill-rule="evenodd" i:knockout="Off" stroke="#000000" stroke-miterlimit="10" stroke-width="0.036"/>
      <path clip-rule="evenodd" d="     M180.917,97.146c3.528-0.109,6.013,0.719,7.849,2.627c1.764,1.836,2.592,4.68,2.628,8.533c-2.556,1.078-5.832,2.051-9.828,2.627     c-4.176,0.576-12.78,1.873-14.436,0.973c-1.656-1.189,3.491-4.824,4.607-6.877c0.9-2.051,0.145-3.564,1.62-4.932     C174.869,98.73,177.39,97.793,180.917,97.146z" fill="#8A734B" fill-rule="evenodd" i:knockout="Off" stroke="#000000" stroke-miterlimit="10" stroke-width="0.036"/>
      <path clip-rule="evenodd" d="     M172.709,97.469c4.177-0.791,6.624-1.979,7.885-3.275c1.044-1.367,0.756-2.16-1.008-4.896c-1.801-2.879-4.969-6.875-9.505-12.131     c-2.376-0.037-4.752-0.037-7.523,0c-2.88-0.145-7.776-0.936-8.856,0c-1.116,1.08,0.145,3.744,2.269,5.904     c2.088,2.016,6.947,3.383,9.863,5.904C168.642,91.422,170.838,94.121,172.709,97.469z" fill="#D6C98A" fill-rule="evenodd" i:knockout="Off" stroke="#000000" stroke-miterlimit="10" stroke-width="0.036"/>
      <path clip-rule="evenodd" d="     M174.006,77.166c4.968-1.225,7.56-1.512,8.208-1.008c0.504,0.432-1.08,1.799-4.896,3.959     C176.237,79.146,175.121,78.174,174.006,77.166z" fill="#8A734B" fill-rule="evenodd" i:knockout="Off" stroke="#000000" stroke-miterlimit="10" stroke-width="0.036"/>
      <path clip-rule="evenodd" d="     M158.922,88.289c2.447,0,7.164,4.896,8.855,6.912c1.656,1.836,2.772,3.133,1.008,4.572c-1.943,1.477-8.855,3.637-12.132,3.961     c-3.42,0.072-6.912-1.08-7.56-2.629c-0.721-1.619,1.907-4.068,3.6-6.229C154.386,92.646,156.329,88.182,158.922,88.289z" fill="#D6C98A" fill-rule="evenodd" i:knockout="Off" stroke="#000000" stroke-miterlimit="10" stroke-width="0.036"/>
      <path clip-rule="evenodd" d="     M134.333,104.381c3.637-0.467,6.696-0.684,9.181-0.646c2.376-0.037,3.168,0.18,5.58,0.646c2.376,0.289,5.508,1.98,8.855,1.621     c3.276-0.396,6.84-1.656,10.836-3.924c-1.368,2.34-2.699,4.176-3.6,5.904c-0.937,1.654-1.836,2.916-2.304,3.924     c-3.673-0.145-7.2-0.037-11.16,0.324c-3.96,0.322-7.632,1.15-12.132,1.654c-4.572,0.469-13.896,2.412-14.761,0.973     C123.93,113.166,127.098,109.854,134.333,104.381z" fill="#D6C98A" fill-rule="evenodd" i:knockout="Off" stroke="#000000" stroke-miterlimit="10" stroke-width="0.036"/>
      <path clip-rule="evenodd" d="     M144.846,100.457c-3.889-0.504-7.128-0.395-9.864,0.324c-2.844,0.648-4.932,4.5-6.552,3.924     c-1.692-0.756-2.305-3.779-2.952-7.559c-0.685-3.854-1.008-8.785-0.972-15.084l7.199-1.945c3.672,1.801,6.624,4.465,8.856,7.848     C142.793,91.422,144.09,95.453,144.846,100.457z" fill="#D6C98A" fill-rule="evenodd" i:knockout="Off" stroke="#000000" stroke-miterlimit="10" stroke-width="0.036"/>
      <path clip-rule="evenodd" d="     M137.285,79.434c1.692-0.432,3.204,0.721,4.933,3.313c1.655,2.555,3.239,6.551,4.896,12.131c2.124-2.303,3.636-4.066,4.933-5.58     c1.115-1.547,2.016-2.592,2.304-3.275c-2.304-1.619-3.853-2.916-4.933-4.283c-1.044-1.369-1.476-2.521-1.296-3.602     C144.521,78.57,140.922,79.002,137.285,79.434z" fill="#8A734B" fill-rule="evenodd" i:knockout="Off" stroke="#000000" stroke-miterlimit="10" stroke-width="0.036"/>
      <path clip-rule="evenodd" d="     M120.905,96.822c-1.764-1.477-9.324-1.549-13.788-2.305c-4.607-0.9-10.44-4.824-12.78-2.592     c-2.34,2.268-2.988,13.211-0.972,15.732c2.016,2.303,9.108-0.973,13.104-1.656c3.96-0.684,7.92-1.188,10.476-2.629     C119.321,101.717,122.489,98.334,120.905,96.822z" fill="#D6C98A" fill-rule="evenodd" i:knockout="Off" stroke="#000000" stroke-miterlimit="10" stroke-width="0.036"/>
      <path clip-rule="evenodd" d="     M113.67,108.953c-2.484-0.756-3.78,0.648-7.2,1.98c-3.637,1.26-12.708,4.465-13.464,5.58c-0.72,0.936,4.824,0.828,9.541,0.648     c4.644-0.252,16.415-0.684,18.359-1.98C122.67,113.742,116.046,109.674,113.67,108.953z" fill="#8A734B" fill-rule="evenodd" i:knockout="Off" stroke="#000000" stroke-miterlimit="10" stroke-width="0.036"/>
      <path clip-rule="evenodd" d="     M83.177,88.289c-1.584,2.629-8.172,8.893-12.132,11.16c-4.068,2.197-9.036,3.889-11.16,2.305     c-2.196-1.801-2.628-9.18-1.296-12.133c1.404-3.023,5.868-4.176,9.504-5.256c3.492-1.043,8.892-1.691,11.484-0.971     C82.169,83.969,84.438,85.553,83.177,88.289z" fill="#D6C98A" fill-rule="evenodd" i:knockout="Off" stroke="#000000" stroke-miterlimit="10" stroke-width="0.036"/>
      <path clip-rule="evenodd" d="     M84.509,93.223c-5.904,4.68-9.684,8.566-11.484,11.807c-1.764,3.313-1.224,6.516,0.648,7.523c1.8,0.793,4.896-0.07,9.828-2.592     c-1.764-2.734-2.304-4.715-1.62-6.227c0.648-1.549,5.04-0.9,5.544-2.629C87.821,99.307,86.85,96.678,84.509,93.223z" fill="#D6C98A" fill-rule="evenodd" i:knockout="Off" stroke="#000000" stroke-miterlimit="10" stroke-width="0.036"/>
      <path clip-rule="evenodd" d="     M54.306,87.643c-8.712-1.152-13.968-1.152-16.056,0c-2.052,1.26,2.016,4.066,3.6,6.875c1.512,2.592,3.168,5.545,5.256,8.855     c3.096-1.15,5.148-2.482,6.552-3.6c1.224-1.152,1.8-2.484,1.332-3.6C54.773,93.33,54.558,90.486,54.306,87.643z" fill="#D6C98A" fill-rule="evenodd" i:knockout="Off" stroke="#000000" stroke-miterlimit="10" stroke-width="0.036"/>
      <path clip-rule="evenodd" d="     M49.409,106.326c0.684-0.504,1.836,0.107,3.6,1.98c1.728,1.799,3.816,4.752,6.552,8.855l10.836,0.324     c-1.944-4.537-3.996-8.029-6.552-10.477c-2.556-2.52-5.4-3.852-8.532-4.283C53.37,103.914,51.39,105.102,49.409,106.326z" fill="#8A734B" fill-rule="evenodd" i:knockout="Off" stroke="#000000" stroke-miterlimit="10" stroke-width="0.036"/>
      <path clip-rule="evenodd" d="     M74.969,115.182c0.648,0.252,2.196-0.072,4.932-0.973c2.664-0.936,6.336-2.412,11.16-4.572c0.612,1.297,0.72,2.594,0.324,3.602     c-0.468,0.971-1.404,1.943-2.952,2.627C83.969,115.65,79.469,115.434,74.969,115.182z" fill="#8A734B" fill-rule="evenodd" i:knockout="Off" stroke="#000000" stroke-miterlimit="10" stroke-width="0.036"/>
      <path clip-rule="evenodd" d="     M88.109,85.338c5.112-2.629,9.108-4.104,12.132-4.572c2.916-0.611,4.464-0.252,5.904,1.619c1.439,1.908,2.268,5.148,2.628,9.865     c-4.392-1.045-7.74-2.053-10.188-2.629c-2.52-0.684-3.024-1.871-4.572-1.332c-1.656,0.434-3.204,1.908-4.932,4.285     C88.757,90.162,88.434,87.75,88.109,85.338z" fill="#8A734B" fill-rule="evenodd" i:knockout="Off" stroke="#000000" stroke-miterlimit="10" stroke-width="0.036"/>
      <path clip-rule="evenodd" d="     M110.069,83.717l1.98,7.885l9.827,1.943c-0.18-1.836-0.18-3.455,0-5.256c0.145-1.799,0.469-3.492,0.973-5.219     c-2.521,0.287-4.716,0.504-6.876,0.646C113.777,83.789,111.905,83.789,110.069,83.717z" fill="#8A734B" fill-rule="evenodd" i:knockout="Off" stroke="#000000" stroke-miterlimit="10" stroke-width="0.036"/>
      <path clip-rule="evenodd" d="     M122.85,101.43l-5.544,4.572l5.22,4.607l3.276-4.607L122.85,101.43z" fill="#8A734B" fill-rule="evenodd" i:knockout="Off" stroke="#000000" stroke-miterlimit="10" stroke-width="0.036"/>
      <path clip-rule="evenodd" d="     M97.038,59.346c-12.348,3.456-19.728,3.528-22.428,0.216c-2.7-3.348-0.612-9.972,6.408-20.016     c-2.412-2.916-2.52-6.12-0.324-9.612c2.196-3.564,6.588-9.828,13.32-11.556c6.552-1.8,19.26-0.936,25.92,0.792     c6.552,1.584,10.332,6.264,13.428,9.036c3.024,2.664,4.464,5.112,4.608,7.2c2.304-0.576,3.815-0.288,4.536,0.576     c0.647,0.864,0.504,2.448-0.433,4.752c3.636,1.944,4.86,4.464,3.672,7.56c-1.188,3.024-4.788,6.624-10.8,10.8     c-2.124-1.116-4.86-1.584-8.208-1.548c-3.456,0-8.964,1.296-12.096,1.8s-3.888,0.828-6.696,0.972     C104.993,60.282,101.357,59.958,97.038,59.346z" fill-rule="evenodd" i:knockout="Off" stroke="#000000" stroke-miterlimit="10" stroke-width="0.036"/>
      <path clip-rule="evenodd" d="     M82.709,40.229c-5.868,8.424-8.316,14.22-7.488,17.532c0.828,3.168,8.568,2.16,12.384,2.124c3.708-0.036,6.984-2.088,9.684-2.268     c2.592-0.324,4.104,0.468,5.94,0.72c1.764,0.216,2.268,0.576,4.716,0.504c2.448-0.18,6.084-1.08,9.648-1.44     c3.384-0.396,7.884-1.224,10.872-0.972c2.88,0.144,5.111,0.792,6.552,1.944c3.6-2.628,6.264-5.004,7.992-7.128     c1.764-2.268,2.376-4.284,2.231-5.904c-0.252-1.692-1.656-3.024-3.924-3.996c0.396-1.224,0.684-2.124,0.576-2.988     c-0.072-0.936-0.36-1.764-1.008-2.052c-0.828-0.36-2.593-0.612-3.349,0.072c-0.899,0.756-0.647,2.664-1.332,3.924     c-0.72,1.152-2.844,3.312-2.771,2.736c0-0.9,2.628-5.22,3.023-7.128c0.324-1.944,0.433-2.124-1.08-4.14     c-1.764-2.196-5.292-6.12-8.64-8.28c-3.276-2.124-6.048-3.564-11.088-4.32c-5.184-0.9-14.004-2.232-19.512-0.648     c-5.652,1.584-11.412,6.408-13.68,10.152C80.153,32.346,80.333,36.018,82.709,40.229z" fill="#FFFFC7" fill-rule="evenodd" i:knockout="Off" stroke="#000000" stroke-miterlimit="10" stroke-width="0.036"/>
      <path clip-rule="evenodd" d="M106.254,56.897c-1.765-0.756-6.66-4.644-8.172-5.148     c-1.584-0.432-0.252,2.448-1.26,2.664c-1.224,0.072-3.276-0.54-5.184-1.98c-1.98-1.476-6.12-6.228-6.012-6.624     c0.144-0.432,5.292,4.032,6.696,3.96c1.224-0.252-1.692-5.832,0.972-4.932c2.556,0.9,12.708,8.28,14.904,10.332     C110.214,57.078,107.945,57.474,106.254,56.897z" fill-rule="evenodd" i:knockout="Off"/>
      <path clip-rule="evenodd" d="M111.222,26.658c1.548-1.08,7.632-2.376,10.908-2.088     c3.168,0.252,6.012,1.908,8.136,3.564c2.052,1.44,3.744,3.276,4.104,5.508c0.252,2.232-2.16,5.868-2.376,7.848     c-0.359,1.8,2.484,1.692,0.612,3.708c-2.124,2.016-11.556,8.928-12.348,8.496c-0.828-0.576,7.092-9.144,7.812-11.412     c0.576-2.34-3.708-0.576-3.528-2.052c0.217-1.584,5.185-5.112,4.788-6.984c-0.504-2.052-4.896-3.996-7.632-4.428     c-2.808-0.468-7.2,2.592-8.892,2.232C111.006,30.582,109.638,27.773,111.222,26.658z" fill-rule="evenodd" i:knockout="Off"/>
      <path clip-rule="evenodd" d="M139.625,42.282c1.332,0.18,4.5,3.132,4.213,5.112     c-0.36,1.836-3.996,5.076-6.192,6.372c-2.376,1.152-6.408,1.476-7.38,1.116c-0.973-0.432,0.18-2.34,1.656-3.384     c1.439-1.044,6.3-2.196,6.947-2.916c0.504-0.864-3.6-1.08-3.42-2.052C135.594,45.414,138.149,42.102,139.625,42.282z" fill-rule="evenodd" i:knockout="Off"/>
      <path clip-rule="evenodd" d="M98.117,33.318c-2.376,1.044-10.224,5.544-9.54,5.58     c0.72-0.144,12.06-5.22,13.751-6.084C103.697,31.77,100.529,32.31,98.117,33.318z" fill-rule="evenodd" i:knockout="Off"/>
      <path clip-rule="evenodd" d="M106.361,35.118c-2.052,1.116-8.748,5.508-7.992,5.544     c0.684-0.216,10.512-5.364,11.988-6.3C111.581,33.39,108.306,33.966,106.361,35.118z" fill-rule="evenodd" i:knockout="Off"/>
      <path clip-rule="evenodd" d="M115.577,37.35c-1.512,1.008-6.66,7.056-6.3,7.452     c0.432,0.216,7.236-4.572,8.46-5.76C118.781,37.746,116.909,36.342,115.577,37.35z" fill-rule="evenodd" i:knockout="Off"/>
      <path clip-rule="evenodd" d="     M93.509,59.742c-2.412,1.62-3.96,3.06-4.788,4.463c-0.9,1.26,0.72,2.16,0,3.529c-0.792,1.367-2.232,2.807-4.464,4.463     c1.764,0.756,2.592,2.881,2.88,6.373c0.108,3.455-0.648,10.043-1.584,14.363c-1.152,4.355-4.032,8.137-4.176,11.195     c0.036,2.846,2.34,4.213,3.852,6.049c1.26,1.729,1.62,4.645,4.14,4.465c2.556-0.361,10.62-2.557,11.16-6.049     c0.36-3.637-7.308-10.729-8.28-15.012c-0.936-4.32,2.376-6.912,2.556-10.836c0.108-4.068-0.576-8.1-1.908-12.781     c1.152-2.412,2.484-3.852,4.14-4.463c1.62-0.576,4.176,1.26,5.724,0.936c1.439-0.539,0.756-2.771,3.204-3.492     c2.376-0.792,10.188-0.036,11.195-0.648c0.864-0.72-1.008-1.656-5.76-3.204c-1.764,0.144-3.636,0.144-5.76,0     c-2.196-0.216-5.04-1.08-7.02-0.936C96.569,58.229,94.914,58.806,93.509,59.742z" fill-rule="evenodd" i:knockout="Off" stroke="#000000" stroke-miterlimit="10" stroke-width="0.036"/>
      <path clip-rule="evenodd" d="     M112.05,59.886c-1.584,0.18-3.313,0.216-5.328,0.108c-2.124-0.216-4.572-0.828-6.769-0.72c-2.196,0.108-4.248,0.504-6.156,1.332     c-2.052,0.972-3.312,2.052-3.78,2.844c-0.54,0.828,1.26,0.828,0.684,2.232c-0.648,1.332-1.98,3.275-4.14,5.832     c0.756,0.539,1.404,1.549,1.548,3.42c0.144,1.729-0.432,4.789-0.36,7.236c0.036,2.305,0.792,4.535,0.468,6.984     c-0.576,2.52-1.98,5.146-2.952,7.596c-0.972,2.303-2.124,4.5-2.484,6.156c-0.468,1.439-0.432,2.195,0.108,3.096     c0.54,0.828,1.944,0.973,2.952,2.232c0.792,1.188,1.476,4.463,2.628,5.111c1.188,0.539,3.096-1.045,4.608-1.549     c1.476-0.467,3.132-0.611,4.14-1.547c0.864-0.973,2.232-2.557,1.332-4.607c-0.972-2.377-5.58-6.193-6.876-8.678     c-1.26-2.482-1.44-3.527-0.972-6.047c0.288-2.809,2.628-6.084,2.844-9.684c0.108-3.602-0.468-7.309-1.872-11.412     c0.432-2.053,1.26-3.457,2.484-4.357c1.188-0.828,3.276-1.008,4.716-0.971c1.296-0.072,2.412,0.828,3.348,0.467     c0.828-0.576-0.216-2.699,1.872-3.311c2.052-0.54,9,0.072,10.439-0.108C115.829,61.182,115.001,60.678,112.05,59.886z" fill="#FFFFC7" fill-rule="evenodd" i:knockout="Off" stroke="#000000" stroke-miterlimit="10" stroke-width="0.036"/>
      <path clip-rule="evenodd" d="     M134.802,58.446c0.936-0.144,2.592-0.108,5.111,0.252c2.521,0.324,9.576,0.828,9.937,1.656c0.216,0.756-7.488,1.836-8.532,2.952     c-1.152,0.972,5.22,2.196,1.764,3.097c-3.672,0.791-19.548,2.123-22.752,1.764c-2.987-0.541,2.664-3.24,4.177-4.5     c1.332-1.26,4.392-2.376,3.888-2.952c-0.685-0.648-6.876-0.108-7.452-0.72c-0.612-0.648,0.684-1.764,3.888-3.204     c2.017,0.18,3.744,0.468,5.473,0.72C131.993,57.762,133.397,58.122,134.802,58.446z" fill-rule="evenodd" i:knockout="Off" stroke="#000000" stroke-miterlimit="10" stroke-width="0.036"/>
      <path clip-rule="evenodd" d="     M124.722,57.762c0.684-0.288,1.476-0.288,3.204,0c1.62,0.216,4.319,0.756,6.983,1.188c2.772,0.252,6.984,0.432,9.145,0.684     c1.907,0.072,3.096,0.324,2.735,0.612c-0.504,0.288-3.743,0.756-5.004,1.404c-1.368,0.504-2.735,1.584-2.7,2.268     c0.108,0.576,3.78,1.26,2.952,1.656c-1.115,0.324-5.436,0.324-8.783,0.576c-3.421,0.215-10.188,1.332-11.017,0.828     c-0.756-0.613,4.896-3.313,6.264-4.357c1.152-1.08,1.837-1.8,1.08-2.16c-0.972-0.432-4.896-0.648-5.796-0.936     C122.957,59.021,123.966,58.014,124.722,57.762z" fill="#FFFFC7" fill-rule="evenodd" i:knockout="Off" stroke="#000000" stroke-miterlimit="10" stroke-width="0.036"/>
    </g>
  </g>
</svg>
