<?xml version="1.0" encoding="UTF-8" standalone="no"?>
<!DOCTYPE svg PUBLIC "-//W3C//DTD SVG 1.0//EN"
"http://www.w3.org/TR/2001/REC-SVG-20010904/DTD/svg10.dtd">
<!-- Created with Sodipodi ("http://www.sodipodi.com/") --><svg height="297mm" id="svg722" sodipodi:docbase="/home/user" sodipodi:docname="/home/user/PereNoel.svg" sodipodi:version="0.34" space="preserve" width="210mm" xmlns="http://www.w3.org/2000/svg" xmlns:sodipodi="http://sodipodi.sourceforge.net/DTD/sodipodi-0.dtd" xmlns:xlink="http://www.w3.org/1999/xlink">
  <metadata>
    <rdf:RDF xmlns:cc="http://web.resource.org/cc/" xmlns:dc="http://purl.org/dc/elements/1.1/" xmlns:rdf="http://www.w3.org/1999/02/22-rdf-syntax-ns#">
      <cc:Work rdf:about="">
        <dc:title>FatherChristmas</dc:title>
        <dc:description></dc:description>
        <dc:subject>
          <rdf:Bag>
            <rdf:li>holiday</rdf:li>
            <rdf:li></rdf:li>
            <rdf:li>fatherchristmas</rdf:li>
            <rdf:li>festive</rdf:li>
            <rdf:li>recreation</rdf:li>
            <rdf:li>christmas</rdf:li>
          </rdf:Bag>
        </dc:subject>
        <dc:publisher>
          <cc:Agent rdf:about="http://www.openclipart.org">
            <dc:title>hackervalley</dc:title>
          </cc:Agent>
        </dc:publisher>
        <dc:creator>
          <cc:Agent>
            <dc:title>hackervalley</dc:title>
          </cc:Agent>
        </dc:creator>
        <dc:rights>
          <cc:Agent>
            <dc:title>hackervalley</dc:title>
          </cc:Agent>
        </dc:rights>
        <dc:date></dc:date>
        <dc:format>image/svg+xml</dc:format>
        <dc:type rdf:resource="http://purl.org/dc/dcmitype/StillImage"/>
        <cc:license rdf:resource="http://web.resource.org/cc/PublicDomain"/>
        <dc:language>en</dc:language>
      </cc:Work>
      <cc:License rdf:about="http://web.resource.org/cc/PublicDomain">
        <cc:permits rdf:resource="http://web.resource.org/cc/Reproduction"/>
        <cc:permits rdf:resource="http://web.resource.org/cc/Distribution"/>
        <cc:permits rdf:resource="http://web.resource.org/cc/DerivativeWorks"/>
      </cc:License>
    </rdf:RDF>
  </metadata>
  <defs id="defs724">
    <linearGradient id="linearGradient738">
      <stop id="stop739" offset="0" style="stop-color:#7f7f7f;stop-opacity:1;"/>
      <stop id="stop740" offset="1" style="stop-color:#e6e6e6;stop-opacity:1;"/>
    </linearGradient>
    <linearGradient id="linearGradient733">
      <stop id="stop734" offset="0" style="stop-color:#ff0000;stop-opacity:1;"/>
      <stop id="stop735" offset="1" style="stop-color:#ffffff;stop-opacity:1;"/>
    </linearGradient>
    <linearGradient id="linearGradient727">
      <stop id="stop728" offset="0" style="stop-color:#ff0000;stop-opacity:1;"/>
      <stop id="stop729" offset="1" style="stop-color:#ffffff;stop-opacity:1;"/>
    </linearGradient>
    <radialGradient cx="0.74648923" cy="0.59375" fx="0.74648923" fy="0.59375" id="radialGradient730" r="0.38155699" xlink:href="#linearGradient738"/>
    <linearGradient gradientTransform="scale(0.998758,1.001244)" gradientUnits="userSpaceOnUse" id="linearGradient731" spreadMethod="pad" x1="365.530548" x2="476.906799" xlink:href="#linearGradient733" y1="410.821106" y2="290.464478"/>
    <linearGradient id="linearGradient736" x1="0.45098048" x2="0.35294127" xlink:href="#linearGradient738" y1="7.03126639e-2" y2="0.3359375"/>
    <radialGradient cx="0.50000018" cy="0.49999991" fx="0.50000018" fy="0.49999991" id="radialGradient737" r="0.5" xlink:href="#linearGradient738"/>
    <linearGradient id="linearGradient752" xlink:href="#linearGradient738"/>
    <radialGradient cx="0.50000006" cy="0.49999955" fx="0.50000006" fy="0.49999955" id="radialGradient753" r="0.5" xlink:href="#linearGradient738"/>
    <linearGradient id="linearGradient758" xlink:href="#linearGradient738"/>
  </defs>
  <sodipodi:namedview id="base"/>
  <path d="M 311.8751 579.5496 A 21.56252 30.31253 0 1 0 268.7501 579.5496 A 21.56252 30.31253 0 1 0  311.8751 579.5496 z" id="path769" sodipodi:cx="290.312622" sodipodi:cy="579.549561" sodipodi:rx="21.5625153" sodipodi:ry="30.3125305" sodipodi:type="arc" style="fill:#ffffff;fill-opacity:1;fill-rule:evenodd;stroke:#000000;stroke-opacity:1;stroke-width:2.5;stroke-dasharray:none;stroke-linejoin:miter;stroke-linecap:butt;" transform="matrix(0.927597,0.365601,-0.373582,0.907781,297.9622,-40.00797)"/>
  <path d="M 311.8751 579.5496 A 21.56252 30.31253 0 1 0 268.7501 579.5496 A 21.56252 30.31253 0 1 0  311.8751 579.5496 z" id="path760" sodipodi:cx="290.312622" sodipodi:cy="579.549561" sodipodi:rx="21.5625153" sodipodi:ry="30.3125305" sodipodi:type="arc" style="fill:#ffffff;fill-opacity:1;fill-rule:evenodd;stroke:#000000;stroke-opacity:1;stroke-width:2.5;stroke-dasharray:none;stroke-linejoin:miter;stroke-linecap:butt;" transform="matrix(0.927597,0.365601,-0.373582,0.907781,217.5287,-83.31828)"/>
  <path d="M 261.9691 445.158 C 249.7912 436.4473 254.146 425.3882 226.4716 467.3473 C 198.7972 509.3062 146.5935 581.7833 143.7986 635.1445 C 143.1862 673.4674 128.714 704.6178 165.2921 745.8725 C 178.9551 761.7329 225.5448 788.4441 245.9785 794.0433 C 287.1056 805.9625 305.6685 810.6381 338.3466 804.7411 C 366.0355 797.2767 383.1541 781.5107 406.5957 728.4276 C 423.3519 687.1301 431.6331 551.6253 431.5078 538.9792 C 431.41 529.1061 428.8605 513.7236 413.975 513.8294 C 392.604 513.9813 394.2124 518.8702 394.2124 537.3905 C 394.2124 548.5824 403.3893 560.5717 397.1413 581.5734 C 389.6439 599.4088 376.2624 597.4246 368.8826 614.3441 C 350.3172 645.3652 337.8841 631.0811 299.3568 617.4583 C 238.0168 587.3591 237.7956 578.0209 237.078 550.7217 C 235.5556 511.2634 223.7604 513.789 249.1395 488.2032 C 304.0163 430.3792 271.3128 452.4675 261.9691 445.158 z " id="path751" sodipodi:nodetypes="csccccccccccccsc" style="fill:url(#linearGradient736);fill-rule:evenodd;stroke:#000000;stroke-opacity:1;stroke-width:5;stroke-linejoin:miter;stroke-linecap:butt;stroke-dasharray:none;fill-opacity:1;"/>
  <path d="M 563.403 296.0826 A 55.83272 50.75703 0 1 0 451.7375 296.0826 A 55.83272 50.75703 0 1 0  563.403 296.0826 z" id="path726" sodipodi:cx="507.570251" sodipodi:cy="296.08255" sodipodi:rx="55.8327179" sodipodi:ry="50.7570267" sodipodi:type="arc" style="fill-rule:evenodd;stroke:#000000;fill:url(#radialGradient730);fill-opacity:1;stroke-opacity:1;stroke-width:5;stroke-linejoin:miter;stroke-linecap:butt;stroke-dasharray:none;"/>
  <path d="M 465.2101 289.239 C 460.2979 290.9466 434.4517 296.2339 422.4721 296.6364 C 396.3089 297.5153 341.7023 313.2305 324.2686 329.6503 C 308.0287 344.9458 302.9587 364.5555 293.6924 383.7069 C 279.2962 413.4607 281.1392 414.7996 253.1673 433.5311 C 246.0181 438.3185 275.3007 462.4315 281.123 467.936 C 311.6563 496.8023 377.9661 520.3629 419.0341 521.0427 C 429.0702 521.2088 443.0153 502.0017 443.1977 492.7694 C 443.5996 472.4325 447.8423 466.7667 444.9145 444.1078 C 442.3215 424.0406 426.7674 408.187 426.4147 384.1006 C 426.1811 368.1425 428.0582 362.0474 432.7608 349.1808 C 439.2925 331.3097 474.6346 324.4581 476.0551 324.5356 C 491.3902 315.7451 480.3708 297.1123 477.6939 292.5935 C 475.4155 289.7022 473.1757 286.2007 465.2101 289.239 z " id="path741" sodipodi:nodetypes="cccccssssssccc" style="font-size:12;fill:url(#linearGradient731);fill-rule:evenodd;stroke:#000000;stroke-width:5;stroke-dashoffset:20;"/>
  <path d="M 357.0892 621.0267 A 35.35538 35.35538 0 1 0 286.3785 621.0267 A 35.35538 35.35538 0 1 0  357.0892 621.0267 z" id="path749" sodipodi:cx="321.733856" sodipodi:cy="621.026733" sodipodi:rx="35.3553772" sodipodi:ry="35.3553772" sodipodi:type="arc" style="fill:url(#radialGradient753);fill-opacity:1;fill-rule:evenodd;stroke:#000000;stroke-opacity:1;stroke-width:2.5;stroke-dasharray:none;stroke-linejoin:miter;stroke-linecap:butt;" transform="translate(-23.71323,-16.64218)"/>
  <path d="M 314.2039 507.9467 C 308.0408 499.096 300.6765 491.6192 293.6122 483.8533 C 278.3836 467.1125 247.3458 466.4566 234.1263 485.5118 C 226.2857 496.8135 221.8987 511.123 230.1798 523.2206 C 235.4588 530.9325 238.8704 532.7085 247.392 530.0319 C 254.2522 527.877 273.6604 529.4645 280.4397 532.589 C 284.7239 534.5635 313.7628 544.8626 320.0638 545.9376 C 328.7603 544.8918 321.8046 518.862 314.2039 507.9467 z " id="path756" sodipodi:nodetypes="cccccccc" style="font-size:12;fill:url(#linearGradient752);fill-rule:evenodd;stroke:#000000;stroke-width:2.609791;"/>
  <path d="M 320.3817 547.815 C 306.5121 539.8483 323.8778 513.7332 333.5468 525.5121 C 343.4142 522.9001 353.4448 522.0531 363.404 520.8052 C 384.8729 518.1151 409.6256 537.1898 409.1882 559.5028 C 408.9289 572.7367 404.2487 586.0019 390.8738 589.6621 C 382.3476 591.9954 378.6593 591.1491 373.4856 583.8156 C 369.3207 577.9118 353.174 566.8482 346.0745 564.8697 C 341.5879 563.6194 320.746 553.958 320.3817 547.815 z " id="path757" sodipodi:nodetypes="cccccccc" style="font-size:12;fill:url(#linearGradient758);fill-rule:evenodd;stroke:#000000;stroke-width:2.522538;"/>
  <path d="M 282.5 548.6121 A 12.5 6.25 0 1 0 257.5 548.6121 A 12.5 6.25 0 1 0  282.5 548.6121 z" id="path759" sodipodi:cx="270.000031" sodipodi:cy="548.612122" sodipodi:rx="12.5" sodipodi:ry="6.25" sodipodi:type="arc" style="fill:#50a9c1;fill-opacity:0.8091;fill-rule:evenodd;stroke:#000000;stroke-opacity:1;stroke-width:2.5;stroke-dasharray:none;stroke-linejoin:miter;stroke-linecap:butt;" transform="matrix(0.338476,-0.755381,1.030754,0.241146,-386.8726,621.7159)"/>
  <path d="M 237.0031 417.9493 C 225.0844 428.3326 223.1409 439.1694 231.9251 445.38 C 242.466 452.8326 252.9293 460.3676 262.1201 469.4923 C 271.5166 478.8214 283.125 487.9902 293.0121 497.8749 C 329.3292 534.1827 347.9166 536.0885 397.8897 536.1098 C 415.2332 536.1172 430.3032 550.0626 447.4921 551.0989 C 456.268 551.628 458.7622 528.0626 458.753 522.4022 C 458.7179 500.794 425.7115 497.9365 409.963 496.6269 C 385.2174 494.569 358.7407 478.0822 335.9462 468.979 C 314.0637 460.2401 305.6506 460.4896 288.1916 443.0545 C 285.8813 440.7473 283.96 437.9169 281.3106 436.1725 C 277.3776 433.583 274.2944 431.6549 271.3457 428.668 C 273.0061 430.3499 247.3163 406.1806 237.0031 417.9493 z " id="path742" sodipodi:nodetypes="ccccccccccccc" style="fill:url(#radialGradient737);fill-rule:evenodd;stroke:#000000;stroke-opacity:1;stroke-width:5;stroke-linejoin:miter;stroke-linecap:butt;stroke-dasharray:none;fill-opacity:1;"/>
  <path d="M 227.9405 659.3641 C 228.6622 661.7859 229.1029 664.2918 229.6051 666.7688 C 230.9111 672.3934 232.5392 677.8353 234.4779 683.2741 C 236.2894 687.1512 238.2795 690.4438 241.0532 693.7033 C 244.2158 696.9025 247.5034 699.8613 251.0474 702.6312 C 254.0606 704.5193 256.8817 705.9543 260.2815 706.9896 C 263.3916 707.6503 266.5211 708.0542 269.6816 708.4055 C 272.6164 708.6049 275.5189 708.6994 278.4572 708.557 C 281.1313 708.1773 283.6346 707.5115 286.194 706.6473 C 289.4717 705.3055 292.5979 703.7657 295.7262 702.1064 C 297.1388 701.3294 298.552 700.5558 299.9489 699.7509 L 309.572 705.3267 C 308.007 706.23 306.4224 707.0919 304.835 707.9554 C 301.1048 709.9091 297.3639 711.7088 293.4723 713.3186 C 289.1336 714.8047 284.9484 715.8147 280.4016 716.4286 C 276.0441 716.6366 271.779 716.5524 267.4266 716.2482 C 263.0564 715.7491 258.7874 715.1093 254.4952 714.146 C 249.3916 712.5126 245.1157 710.4176 240.6285 707.4932 C 236.6338 704.3163 232.8718 700.9544 229.2218 697.3857 C 226.0103 693.4736 223.7621 689.549 221.7311 684.9127 C 219.8248 679.2761 218.147 673.5873 216.5834 667.8456 C 216.0258 665.8965 215.6813 663.3778 214.5822 661.6549 L 227.9405 659.3641 z " id="path766" style="fill:black;fill-rule:nonzero;stroke:none;fill-opacity:1;stroke-opacity:1;stroke-width:1pt;stroke-linejoin:miter;stroke-linecap:butt;"/>
  <path d="M 282.5 548.6121 A 12.5 6.25 0 1 0 257.5 548.6121 A 12.5 6.25 0 1 0  282.5 548.6121 z" id="path768" sodipodi:cx="270.000031" sodipodi:cy="548.612122" sodipodi:rx="12.5" sodipodi:ry="6.25" sodipodi:type="arc" style="fill:#50a9c1;fill-opacity:0.8091;fill-rule:evenodd;stroke:#000000;stroke-opacity:1;stroke-width:2.5;stroke-dasharray:none;stroke-linejoin:miter;stroke-linecap:butt;" transform="matrix(0.338476,-0.755381,1.030754,0.241146,-305.5553,657.0712)"/>
</svg>
