<?xml version="1.0" encoding="UTF-8" standalone="no"?>
<!-- Created with Inkscape (http://www.inkscape.org/) --><svg height="220.00000pt" id="svg2" inkscape:export-filename="/datas/Projs/Cliparts Stocker/glace_4.png" inkscape:export-xdpi="90.000000" inkscape:export-ydpi="90.000000" inkscape:version="0.42" sodipodi:docbase="/datas/Projs/Cliparts Stocker" sodipodi:docname="glace_4.svg" sodipodi:version="0.32" width="200.00000pt" xmlns="http://www.w3.org/2000/svg" xmlns:cc="http://web.resource.org/cc/" xmlns:dc="http://purl.org/dc/elements/1.1/" xmlns:inkscape="http://www.inkscape.org/namespaces/inkscape" xmlns:rdf="http://www.w3.org/1999/02/22-rdf-syntax-ns#" xmlns:sodipodi="http://inkscape.sourceforge.net/DTD/sodipodi-0.dtd" xmlns:svg="http://www.w3.org/2000/svg">
  <metadata>
    <rdf:RDF xmlns:cc="http://web.resource.org/cc/" xmlns:dc="http://purl.org/dc/elements/1.1/" xmlns:rdf="http://www.w3.org/1999/02/22-rdf-syntax-ns#">
      <cc:Work rdf:about="">
        <dc:title>glace_4</dc:title>
        <dc:description>jean.victor.balin@gmail.com</dc:description>
        <dc:subject>
          <rdf:Bag>
            <rdf:li>dessert</rdf:li>
            <rdf:li>food</rdf:li>
          </rdf:Bag>
        </dc:subject>
        <dc:publisher>
          <cc:Agent rdf:about="http://www.openclipart.org/">
            <dc:title>Open Clip Art Library</dc:title>
          </cc:Agent>
        </dc:publisher>
        <dc:creator>
          <cc:Agent>
            <dc:title>Jean-Victor Balin</dc:title>
          </cc:Agent>
        </dc:creator>
        <dc:rights>
          <cc:Agent>
            <dc:title>Jean-Victor Balin</dc:title>
          </cc:Agent>
        </dc:rights>
        <dc:date>2005-08-07</dc:date>
        <dc:format>image/svg+xml</dc:format>
        <dc:type rdf:resource="http://purl.org/dc/dcmitype/StillImage"/>
        <cc:license rdf:resource="http://web.resource.org/cc/PublicDomain"/>
        <dc:language>en</dc:language>
      </cc:Work>
      <cc:License rdf:about="http://web.resource.org/cc/PublicDomain">
        <cc:permits rdf:resource="http://web.resource.org/cc/Reproduction"/>
        <cc:permits rdf:resource="http://web.resource.org/cc/Distribution"/>
        <cc:permits rdf:resource="http://web.resource.org/cc/DerivativeWorks"/>
      </cc:License>
    </rdf:RDF>
  </metadata>
  <defs id="defs4"/>
  <sodipodi:namedview bordercolor="#666666" borderopacity="1.0" id="base" inkscape:current-layer="layer1" inkscape:cx="125.00000" inkscape:cy="137.50000" inkscape:document-units="px" inkscape:pageopacity="0.0" inkscape:pageshadow="2" inkscape:window-height="693" inkscape:window-width="1024" inkscape:window-x="0" inkscape:window-y="25" inkscape:zoom="1.9054545" pagecolor="#ffffff"/>
  <g id="layer1" inkscape:groupmode="layer" inkscape:label="Calque 1">
    <g id="g7136">
      <path d="M 197.13351,251.47869 C 192.09994,250.51875 177.01135,242.83547 167.87241,227.97535 C 166.50742,225.75584 160.78598,216.79280 158.80026,213.31503 C 156.93407,210.04660 155.30678,206.75249 153.45876,207.85402 C 148.82622,210.61528 138.28219,218.84438 133.02426,221.45960 C 125.86212,225.02196 123.59317,225.80577 120.41427,225.81572 C 118.06513,225.82308 117.52336,225.50899 113.53728,222.21177 C 84.442420,198.14497 63.663068,163.61523 49.893981,133.78766 C 47.446526,128.48581 42.751088,117.40998 41.023638,111.11553 C 36.860170,95.944785 34.476149,76.534887 34.776658,63.012864 C 35.170265,45.301743 44.472355,24.783060 61.155394,24.414754 C 79.595777,24.010549 93.182331,34.278423 106.45929,44.730833 C 116.99889,53.028236 132.36835,68.352930 138.92598,75.414905 C 167.79157,106.50053 186.28230,129.42862 193.16722,140.82413 C 196.03464,145.57011 197.72710,148.76027 198.78965,151.56691 C 200.00784,154.78464 197.37809,159.02451 196.12150,161.00866 C 195.22140,162.42991 192.75303,166.03090 191.50611,167.53580 C 187.91216,171.87334 177.89126,182.96386 177.89126,183.40255 C 177.89126,183.84124 181.64103,187.09858 185.77051,190.98127 C 196.17978,200.76844 203.02233,207.31192 206.59556,211.87326 C 217.31500,225.55698 219.01033,238.95323 214.57288,245.05202 C 213.34429,246.74058 212.28053,248.03370 209.62144,249.58007 C 205.83471,251.78220 201.58834,252.72990 197.13351,251.47869 z " id="path1318" style="fill:#000000"/>
      <path d="M 205.95587,249.27558 C 208.28914,247.89042 210.53453,242.25986 206.90705,231.97696 C 205.82152,228.89978 203.41947,223.31964 201.36313,220.59722 C 200.44891,219.38687 198.77817,217.03493 197.65039,215.37070 C 194.96503,211.40802 186.21806,202.15939 181.01316,197.77929 C 178.74375,195.86950 174.59233,191.99406 171.78778,189.16720 C 168.98323,186.34035 166.06817,183.87175 165.30987,183.68143 C 164.25245,183.41603 163.34987,183.78824 161.43709,185.27847 C 158.23999,187.76931 152.72867,194.00524 151.85039,196.12559 C 151.21692,197.65493 151.33477,198.01094 153.62237,201.47833 C 157.67814,207.62578 162.11078,214.93229 163.62334,217.43423 C 170.62630,229.01786 178.27073,239.44548 189.94937,246.33523 C 193.07997,248.18211 200.29512,251.91275 205.95587,249.27558 z " id="path1312" style="fill:#d0a17f;fill-opacity:1.0000000"/>
      <path d="M 204.70817,213.18087 C 203.03192,211.06577 187.86709,195.59161 180.18792,188.93346 C 177.16204,186.30990 174.08614,183.51028 173.35257,182.71209 C 172.05420,181.29933 170.44940,180.91562 168.67957,181.59477 C 168.20094,181.77844 167.80934,182.16814 167.80934,182.46077 C 167.80934,183.08231 175.99848,191.11660 178.81252,193.25588 C 183.36969,196.72032 193.03678,206.13889 196.90396,210.88221 C 202.62477,217.89912 203.58291,219.29605 206.58018,224.98958 C 209.62176,230.76728 211.57281,236.71572 211.27192,241.71353 C 211.17325,243.35242 209.36713,249.57473 212.50978,244.08071 C 218.33407,233.89860 210.21977,220.13540 204.70817,213.18087 z " id="path1310" style="fill:#bd8774;fill-opacity:1.0000000"/>
      <path d="M 129.56434,220.21803 C 137.96130,215.95453 149.96292,207.63529 151.76664,204.82793 C 152.22806,204.10975 151.91213,202.22424 151.19309,201.20540 C 150.31448,199.96045 149.28947,198.93595 149.28947,197.59528 C 149.28947,195.75710 151.21316,193.07306 154.66142,189.30989 C 159.06770,184.50122 161.54340,182.87894 164.85816,181.15828 C 167.26665,179.90805 169.61868,178.69136 172.04007,179.63830 C 173.85395,180.34766 174.34158,182.10709 175.72300,181.28630 C 176.29064,180.94903 178.39270,178.66031 178.39270,178.66031 C 179.86103,177.21602 191.46957,164.44580 194.44328,158.56214 C 196.49550,154.50170 198.33964,151.20464 193.39174,151.85503 C 189.60614,152.35264 178.23539,158.20825 172.71688,162.64741 C 153.58317,178.03881 143.98682,184.20339 128.27297,206.57522 C 127.57544,207.56829 118.84517,218.96461 118.84517,221.66495 C 118.84517,222.01572 119.15463,222.61452 119.53287,222.99562 C 120.61736,224.08834 123.53024,223.28180 129.56434,220.21803 z " id="path1308" style="fill:#7c361a;fill-opacity:1.0000000"/>
      <path d="M 127.10353,203.26720 C 140.25468,184.11034 155.43364,172.87617 164.23330,165.61687 C 176.07467,155.84830 186.25128,151.10644 193.68807,148.80716 C 198.98047,147.17087 162.89828,103.16694 132.15888,71.572435 C 127.51329,66.797609 126.78668,66.259849 126.28915,67.123874 C 125.97731,67.665435 125.13247,68.862598 124.33535,69.715641 C 121.51545,72.733382 116.53029,70.959598 113.06850,69.503440 C 111.34408,68.778086 93.302715,57.535727 89.780105,56.713960 C 85.568925,55.731557 84.579645,56.250071 86.279245,58.548900 C 89.694805,63.168703 92.858435,66.415494 88.999025,69.786904 C 86.949802,71.577014 84.491735,71.346415 81.108865,70.157430 C 74.627175,67.879298 69.761415,69.402205 67.138475,74.529945 C 65.983555,76.787745 64.079955,83.144885 63.545835,86.527685 C 63.043155,89.711285 61.181725,91.868165 59.336565,91.405055 C 56.903835,90.794475 55.862216,87.774534 54.589188,84.370484 C 53.099880,80.388114 50.977342,81.625243 49.663803,84.688872 C 48.914103,86.437434 48.435354,91.254305 49.500611,96.301105 C 54.012208,117.67549 54.726972,121.88347 51.474774,125.84960 C 50.638114,126.86993 49.304544,127.16307 49.901053,128.55550 C 60.504195,153.30644 81.556422,188.34184 104.19670,210.74430 C 110.64469,217.12456 115.11554,220.94490 116.10086,219.38717 C 118.75136,215.19691 122.62947,209.78442 127.10353,203.26720 z " id="path1306" style="fill:#8d4024;fill-opacity:1.0000000"/>
      <path d="M 50.417844,122.94882 C 51.839332,120.99048 51.520023,118.13813 50.905006,114.11757 C 48.920382,101.14344 45.524373,89.040436 47.430539,84.394779 C 49.067631,80.404903 50.668979,79.594409 51.763869,79.456024 C 55.916123,78.931215 56.693201,86.381539 58.374275,87.487505 C 59.455436,88.198793 61.520103,86.477115 62.457503,82.334375 C 62.983733,80.008755 64.234055,70.888646 69.510381,67.561194 C 71.854011,66.083211 76.005844,65.803427 82.367365,67.662530 C 84.529689,68.294452 87.027634,68.549965 88.053404,67.313972 C 88.785894,66.431390 88.599263,64.862786 85.140863,60.740553 C 82.758753,57.901215 82.668942,55.223307 84.925947,54.432154 C 90.986406,52.307766 106.87952,63.331169 109.14955,64.649649 C 119.55350,70.692477 122.25468,69.063810 123.64005,66.874186 C 125.60808,63.763633 121.07709,60.692157 119.73824,59.337207 C 115.04858,54.591171 105.28808,45.614234 97.939115,40.602851 C 96.577465,39.674325 80.990291,25.447026 60.832000,25.976757 C 50.565338,26.244806 37.676207,38.533474 36.797788,62.575015 C 36.406313,73.289328 38.091233,92.683695 42.535470,108.43257 C 44.924568,116.89872 47.319246,121.60025 48.207082,123.03680 C 48.679839,123.80173 49.806408,123.87438 50.417844,122.94882 z " id="path1304" style="fill:#ba3d34;fill-opacity:1.0000000"/>
    </g>
  </g>
</svg>
