<?xml version="1.0" encoding="UTF-8" standalone="no"?>
<!-- Generator: Adobe Illustrator 12.0.0, SVG Export Plug-In . SVG Version: 6.00 Build 51448)  --><svg height="276.976" id="Layer_1" inkscape:version="0.40+cvs" sodipodi:docbase="F:\openclip\svg3" sodipodi:docname="microscopio.svg" sodipodi:version="0.32" style="overflow:visible;enable-background:new 0 0 152.21 276.976;" version="1.0" viewBox="0 0 152.21 276.976" width="152.21" xml:space="preserve" xmlns="http://www.w3.org/2000/svg" xmlns:cc="http://web.resource.org/cc/" xmlns:dc="http://purl.org/dc/elements/1.1/" xmlns:inkscape="http://www.inkscape.org/namespaces/inkscape" xmlns:rdf="http://www.w3.org/1999/02/22-rdf-syntax-ns#" xmlns:sodipodi="http://inkscape.sourceforge.net/DTD/sodipodi-0.dtd" xmlns:svg="http://www.w3.org/2000/svg" xmlns:xml="http://www.w3.org/XML/1998/namespace"><metadata><rdf:RDF xmlns:cc="http://web.resource.org/cc/" xmlns:dc="http://purl.org/dc/elements/1.1/" xmlns:rdf="http://www.w3.org/1999/02/22-rdf-syntax-ns#"><cc:Work rdf:about=""><dc:title>Microscopio</dc:title><dc:description></dc:description><dc:subject><rdf:Bag><rdf:li>unsorted</rdf:li></rdf:Bag></dc:subject><dc:publisher><cc:Agent rdf:about="http://www.openclipart.org"><dc:title>Architetto Francesco Rollandin</dc:title></cc:Agent></dc:publisher><dc:creator><cc:Agent><dc:title>Architetto Francesco Rollandin</dc:title></cc:Agent></dc:creator><dc:rights><cc:Agent><dc:title>Architetto Francesco Rollandin</dc:title></cc:Agent></dc:rights><dc:date></dc:date><dc:format>image/svg+xml</dc:format><dc:type rdf:resource="http://purl.org/dc/dcmitype/StillImage"/><cc:license rdf:resource="http://web.resource.org/cc/PublicDomain"/><dc:language>en</dc:language></cc:Work><cc:License rdf:about="http://web.resource.org/cc/PublicDomain"><cc:permits rdf:resource="http://web.resource.org/cc/Reproduction"/><cc:permits rdf:resource="http://web.resource.org/cc/Distribution"/><cc:permits rdf:resource="http://web.resource.org/cc/DerivativeWorks"/></cc:License></rdf:RDF></metadata>
<defs id="defs318"></defs>
<sodipodi:namedview bordercolor="#666666" borderopacity="1.0" id="base" inkscape:current-layer="Layer_1" inkscape:cx="76.105007" inkscape:cy="138.48801" inkscape:pageopacity="0.0" inkscape:pageshadow="2" inkscape:window-height="540" inkscape:window-width="640" inkscape:window-x="176" inkscape:window-y="176" inkscape:zoom="1.3647391" pagecolor="#ffffff"></sodipodi:namedview>

<g id="g3">
	<path d="M71.953,65.636c-0.719-0.38-1.326-1.254-1.923-1.817   c0.751-0.397,1.172-1.42,1.923-1.817c-0.761-0.426-1.161-1.498-1.923-1.923c0.751-0.397,1.172-1.42,1.923-1.817   c-0.761-0.426-1.161-1.498-1.923-1.924c0.751-0.397,1.172-1.419,1.923-1.816c-1.429-2.5-3.652-1.924-6.12-1.924   c-2.313,0-1.468,1.389-1.468,3.552c0,5.727,0,11.454,0,17.18C66.895,70.765,69.423,68.201,71.953,65.636" id="path5" style="fill-rule:evenodd;clip-rule:evenodd;"></path>

	<path d="M0.245,183.082c0,2.35-1.113,4.381,1.412,4.381c2.942,0,5.885,0,8.827,0   c10.164,0,20.328,0,30.491,0c10.77,0,21.541,0,32.311,0c2.093,0,13.486,1.569,15.018,0c1.372-1.404,0.532-4.381-1.411-4.381   c-2.942,0-5.885,0-8.827,0c-10.164,0-20.328,0-30.49,0C31.796,183.082,16.021,183.082,0.245,183.082" id="path7" style="fill-rule:evenodd;clip-rule:evenodd;"></path>

	
		<line id="line9" style="fill:none;stroke:#FFFFFF;stroke-width:0;stroke-linecap:square;stroke-miterlimit:10;" x1="88.302" x2="0.245" y1="183.938" y2="183.938"></line>

	<path d="M31.13,134.885c8.14,0,16.279,0,24.418,0c1.459,0,6.038-0.937,6.038,0.864   c0,4.236,0,8.471,0,12.708c-5.861-1.953-11.722-3.907-17.583-5.861C40.342,141.376,29.382,140.467,31.13,134.885" id="path11" style="fill-rule:evenodd;clip-rule:evenodd;"></path>

	<path d="M39.787,141.19L39.787,141.19L39.787,141.19z" id="path13" style="fill-rule:evenodd;clip-rule:evenodd;"></path>

	<path d="M17.664,133.923c-5.355,18.22,36.979,32.189,43.922,14.534   C46.946,143.612,32.305,138.768,17.664,133.923" id="path15" style="fill-rule:evenodd;clip-rule:evenodd;"></path>

	
		<line id="line17" style="fill:none;stroke:#FFFFFF;stroke-width:0;stroke-linecap:square;stroke-miterlimit:10;" x1="61.586" x2="17.664" y1="148.457" y2="133.923"></line>

	<path d="M39.787,141.19L39.787,141.19L39.787,141.19z" id="path19" style="fill-rule:evenodd;clip-rule:evenodd;"></path>

	<path d="M58.167,154.121c-3.771-2.608-15.83-1.286-18.916,2.137   C38.875,151.916,57.486,149.515,58.167,154.121" id="path21" style="fill-rule:evenodd;clip-rule:evenodd;"></path>

	<path d="M48.549,153.907c3.394-0.453,7.014,0.021,10.152,0.214   C56.916,151.976,49.214,151.51,48.549,153.907" id="path23" style="fill-rule:evenodd;clip-rule:evenodd;"></path>

	<path d="M38.718,156.258c2.356-0.366,9.434-1.877,9.832-3.419   C45.6,153.245,40.266,153.348,38.718,156.258c0.356,0,0.713,0,1.069,0C39.431,156.258,39.074,156.258,38.718,156.258" id="path25" style="fill-rule:evenodd;clip-rule:evenodd;"></path>

	<path d="M38.611,155.189c0.587,0.535-0.341,1.445,1.176,1.068   C40.013,154.709,39.195,155.722,38.611,155.189" id="path27" style="fill-rule:evenodd;clip-rule:evenodd;"></path>

	<path d="M48.335,151.771c-2.924,0.404-8.193,0.525-9.724,3.419   C40.941,154.848,47.95,153.263,48.335,151.771" id="path29" style="fill-rule:evenodd;clip-rule:evenodd;"></path>

	<path d="M58.487,152.839c-1.566-2.053-9.422-2.379-10.152,0   C51.769,152.377,55.55,153.06,58.487,152.839" id="path31" style="fill-rule:evenodd;clip-rule:evenodd;"></path>

	<path d="M57.632,154.121c0.357-0.035,0.713-0.071,1.07-0.106   c-0.072-0.393-0.143-0.784-0.214-1.176c-0.868,1.545-1.212,0.063,0.214,1.282C58.345,154.121,57.989,154.121,57.632,154.121" id="path33" style="fill-rule:evenodd;clip-rule:evenodd;"></path>

	<path d="M48.87,157.006c1.063-0.146,9.508-0.98,9.297-2.885   c-0.205-1.841-8.564-0.861-9.618-0.748c-1.075,0.116-9.492,0.989-9.298,2.885C39.451,158.205,47.813,157.131,48.87,157.006" id="path35" style="fill-rule:evenodd;clip-rule:evenodd;"></path>

	<path d="M57.632,154.121c-2.363,1.377-8.241,1.403-8.762,3.42   c2.951-0.409,8.281-0.509,9.832-3.42C58.345,154.121,57.989,154.121,57.632,154.121" id="path37" style="fill-rule:evenodd;clip-rule:evenodd;"></path>

	<path d="M48.549,153.907c3.394-0.453,7.014,0.021,10.152,0.214   C56.916,151.976,49.214,151.51,48.549,153.907" id="path39" style="fill-rule:evenodd;clip-rule:evenodd;"></path>

	<path d="M39.787,156.258c2.363-1.375,8.241-1.403,8.763-3.419   c-2.949,0.406-8.284,0.509-9.832,3.419C39.074,156.258,39.431,156.258,39.787,156.258" id="path41" style="fill-rule:evenodd;clip-rule:evenodd;"></path>

	<path d="M48.87,156.472c-3.432,0.396-6.991-0.011-10.152-0.214   C40.324,158.733,48.264,158.665,48.87,156.472" id="path43" style="fill-rule:evenodd;clip-rule:evenodd;"></path>

	<path d="M48.87,157.006   c1.063-0.146,9.508-0.98,9.297-2.885c-0.205-1.841-8.564-0.861-9.618-0.748c-1.075,0.116-9.492,0.989-9.298,2.885   C39.451,158.205,47.813,157.131,48.87,157.006" id="path45" style="fill:none;stroke:#FFFFFF;stroke-width:0;stroke-linecap:square;stroke-miterlimit:10;"></path>

	<path d="M57.206,154.121c0.178,1.639,0.356,3.277,0.533,4.916   c-3.42-2.41-14.131-1.09-16.992,1.923c-0.527-4.741-1.254-4.722,3.407-5.279C48.506,155.161,52.855,154.641,57.206,154.121" id="path47" style="fill-rule:evenodd;clip-rule:evenodd;"></path>

	<path d="M57.206,159.037c0.356,0,0.712,0,1.068,0   c-0.204-1.877,0.385-4.737-1.603-4.916c0.205,1.877-0.385,4.737,1.603,4.916C57.918,159.037,57.562,159.037,57.206,159.037" id="path49" style="fill-rule:evenodd;clip-rule:evenodd;"></path>

	<path d="M49.083,158.93c3.151-0.416,6.29,0.01,9.19,0.107   C56.681,156.959,49.533,156.695,49.083,158.93" id="path51" style="fill-rule:evenodd;clip-rule:evenodd;"></path>

	<path d="M40.214,160.96c1.916-0.161,8.549-1.612,8.87-3.1   C46.323,158.146,41.837,158.408,40.214,160.96c0.356,0,0.712,0,1.068,0C40.926,160.96,40.57,160.96,40.214,160.96" id="path53" style="fill-rule:evenodd;clip-rule:evenodd;"></path>

	<path d="M40.214,156.152c-0.583,0.869-0.989,4.646,1.068,4.808   C41.085,159.191,41.069,157.112,40.214,156.152" id="path55" style="fill-rule:evenodd;clip-rule:evenodd;"></path>

	<path d="M49.403,161.602c0.909-0.093,8.521-0.929,8.336-2.564   c-0.199-1.764-7.712-0.755-8.656-0.642c-0.928,0.11-8.501,0.904-8.336,2.564C40.911,162.607,48.504,161.738,49.403,161.602" id="path57" style="fill-rule:evenodd;clip-rule:evenodd;"></path>

	<path d="M57.206,159.037c-1.84,1.062-7.398,1.224-7.803,3.1   c2.76-0.285,7.247-0.548,8.871-3.1C57.918,159.037,57.562,159.037,57.206,159.037" id="path59" style="fill-rule:evenodd;clip-rule:evenodd;"></path>

	<path d="M49.083,158.93c3.151-0.416,6.29,0.01,9.19,0.107   C56.681,156.959,49.533,156.695,49.083,158.93" id="path61" style="fill-rule:evenodd;clip-rule:evenodd;"></path>

	<path d="M41.282,160.96c1.834-1.059,7.397-1.224,7.801-3.1   c-2.76,0.285-7.247,0.548-8.87,3.1C40.57,160.96,40.926,160.96,41.282,160.96" id="path63" style="fill-rule:evenodd;clip-rule:evenodd;"></path>

	<path d="M49.403,161.066c-3.113,0.476-6.307-0.043-9.189-0.106   C41.779,162.99,48.963,163.26,49.403,161.066" id="path65" style="fill-rule:evenodd;clip-rule:evenodd;"></path>

	<path d="M49.403,161.602   c0.909-0.093,8.521-0.929,8.336-2.564c-0.199-1.764-7.712-0.755-8.656-0.642c-0.928,0.11-8.501,0.904-8.336,2.564   C40.911,162.607,48.504,161.738,49.403,161.602" id="path67" style="fill:none;stroke:#FFFFFF;stroke-width:0;stroke-linecap:square;stroke-miterlimit:10;"></path>

	<path d="M56.884,159.251c0.072,0.428,0.143,0.855,0.214,1.282   c-3.205-2.021-12.614-1.028-15.282,1.711c-0.071-0.428-0.143-0.856-0.214-1.284C46.697,160.39,51.79,159.82,56.884,159.251" id="path69" style="fill-rule:evenodd;clip-rule:evenodd;"></path>

	<path d="M56.671,160.533c0.189-0.429,1.347,0.257,0.641-1.282   c-0.285,0-0.57,0-0.855,0C57.356,160.708,56.674,160.655,56.671,160.533" id="path71" style="fill-rule:evenodd;clip-rule:evenodd;"></path>

	<path d="M49.298,160.426c2.759-0.278,5.5-0.202,8.229,0.107   C55.874,158.747,50.218,158.444,49.298,160.426" id="path73" style="fill-rule:evenodd;clip-rule:evenodd;"></path>

	<path d="M41.39,162.244c2.526-0.69,5.162-1.568,7.908-1.818c0-0.285,0-0.569,0-0.854   C46.848,159.828,42.705,159.952,41.39,162.244C42.764,162.244,41.759,162.538,41.39,162.244" id="path75" style="fill-rule:evenodd;clip-rule:evenodd;"></path>

	<path d="M41.602,160.96c-0.059-0.355-0.426,0.806-0.212,1.284   c0.284,0,0.57,0,0.854,0C42.314,161.632,41.594,160.91,41.602,160.96" id="path77" style="fill-rule:evenodd;clip-rule:evenodd;"></path>

	<path d="M49.618,162.885c0.866-0.135,7.638-0.795,7.48-2.352   c-0.158-1.556-6.952-0.641-7.801-0.534c-0.88,0.108-7.63,0.681-7.481,2.245C41.961,163.754,48.756,162.966,49.618,162.885" id="path79" style="fill-rule:evenodd;clip-rule:evenodd;"></path>

	<path d="M56.671,160.533c-2.083,1.281-4.667,1.568-7.053,1.924   c0,0.284,0,0.569,0,0.854C51.074,163.077,58.976,161.826,56.671,160.533" id="path81" style="fill-rule:evenodd;clip-rule:evenodd;"></path>

	<path d="M49.298,160.426c2.759-0.278,5.5-0.202,8.229,0.107   C55.874,158.747,50.218,158.444,49.298,160.426" id="path83" style="fill-rule:evenodd;clip-rule:evenodd;"></path>

	<path d="M42.244,162.244c2.083-1.198,4.669-1.603,7.054-1.818   c0-0.285,0-0.569,0-0.854C47.8,159.728,39.954,160.958,42.244,162.244" id="path85" style="fill-rule:evenodd;clip-rule:evenodd;"></path>

	<path d="M49.618,162.457c-2.767,0.203-5.513,0.093-8.229-0.213   C43.06,164.044,48.651,164.327,49.618,162.457" id="path87" style="fill-rule:evenodd;clip-rule:evenodd;"></path>

	<path d="M49.618,162.885   c0.866-0.135,7.638-0.795,7.48-2.352c-0.158-1.556-6.952-0.641-7.801-0.534c-0.88,0.108-7.63,0.681-7.481,2.245   C41.961,163.754,48.756,162.966,49.618,162.885" id="path89" style="fill:none;stroke:#FFFFFF;stroke-width:0;stroke-linecap:square;stroke-miterlimit:10;"></path>

	<path d="M57.419,170.152   c-3.184-1.831-11.201-0.944-13.787,1.602" id="path91" style="fill:none;stroke:#FFFFFF;stroke-width:0;stroke-linecap:square;stroke-miterlimit:10;"></path>

	<path d="M56.351,160.641c0.356,3.17,0.712,6.342,1.069,9.512   c-3.184-1.831-11.201-0.944-13.787,1.602c-0.21-1.87-2.085-9.392-0.19-9.611C47.746,161.641,52.048,161.141,56.351,160.641" id="path93" style="fill-rule:evenodd;clip-rule:evenodd;"></path>

	<path d="M56.992,170.152c1.779-0.784,0.053-7.14-0.213-9.512   c-0.285,0-0.57,0-0.855,0c0.28,2.49-0.094,8.703,1.923,9.512C57.562,170.152,57.276,170.152,56.992,170.152   c0.341,0.129,0.098,0.605,0.748,0.318C57.959,169.741,57.413,170.368,56.992,170.152" id="path95" style="fill-rule:evenodd;clip-rule:evenodd;"></path>

	<path d="M50.366,170.045c2.556-0.275,5.173-0.123,7.48,0.107   C56.261,168.431,51.052,168.309,50.366,170.045" id="path97" style="fill-rule:evenodd;clip-rule:evenodd;"></path>

	<path d="M43.205,171.754c2.256-0.454,4.667-1.416,7.161-1.709   c0-0.285,0-0.57,0-0.855C47.996,169.488,44.565,169.652,43.205,171.754c0.285,0,0.57,0,0.855,0   C43.775,171.754,43.49,171.754,43.205,171.754c0.417,0.158,0.075,0.386,0.748,0.32C44.175,171.338,43.625,171.974,43.205,171.754" id="path99" style="fill-rule:evenodd;clip-rule:evenodd;"></path>

	<path d="M42.565,162.244c-0.991,1.745,0.35,6.924,0.64,9.51c0.285,0,0.57,0,0.855,0   C43.758,169.058,43.97,164.018,42.565,162.244" id="path101" style="fill-rule:evenodd;clip-rule:evenodd;"></path>

	<path d="M55.068,173.784c1.572-2.428,3.554-4.382-0.321-4.382   c-2.339,0-4.766,0.103-7.052,0.643c-0.919,0.217-4.962,0.868-3.561,2.178C47.764,175.611,50.17,174.356,55.068,173.784" id="path103" style="fill-rule:evenodd;clip-rule:evenodd;"></path>

	<path d="M51.007,175.173c1.386-0.084,2.728-0.446,3.954-1.068   c-1.889-1.299-6.168-0.53-8.122,0.749C48.15,175.346,49.586,175.424,51.007,175.173" id="path105" style="fill-rule:evenodd;clip-rule:evenodd;"></path>

	<path d="M51.007,175.173   c1.386-0.084,2.728-0.446,3.954-1.068c-1.889-1.299-6.168-0.53-8.122,0.749C48.15,175.346,49.586,175.424,51.007,175.173" id="path107" style="fill:none;stroke:#000000;stroke-width:0;stroke-linecap:square;stroke-miterlimit:10;"></path>

	<path d="M51.007,175.173   c1.386-0.084,2.728-0.446,3.954-1.068c-1.889-1.299-6.168-0.53-8.122,0.749C48.15,175.346,49.586,175.424,51.007,175.173" id="path109" style="fill:none;stroke:#FFFFFF;stroke-width:0;stroke-linecap:square;stroke-miterlimit:10;"></path>

	<path d="M57.419,170.152   c-3.184-1.831-11.201-0.944-13.787,1.602" id="path111" style="fill:none;stroke:#FFFFFF;stroke-width:0;stroke-linecap:square;stroke-miterlimit:10;"></path>

	<path d="M39.787,141.19L39.787,141.19L39.787,141.19z" id="path113" style="fill-rule:evenodd;clip-rule:evenodd;"></path>

	<path d="M39.787,141.19L39.787,141.19L39.787,141.19z" id="path115" style="fill-rule:evenodd;clip-rule:evenodd;"></path>

	<path d="M18.092,139.801c3.686-0.02,16.299,10.32,13.038,13.786   c-0.491-4.527-9.114-12.958-13.786-12.931C17.594,140.371,17.842,140.086,18.092,139.801" id="path117" style="fill-rule:evenodd;clip-rule:evenodd;"></path>

	<path d="M26.641,144.503c-2.181-1.933-5.783-6.024-8.977-5.13   c2.499,2.014,5.682,3.389,8.122,5.985C26.071,145.073,26.356,144.788,26.641,144.503" id="path119" style="fill-rule:evenodd;clip-rule:evenodd;"></path>

	<path d="M32.305,153.053c0.866-2.065-4.779-9.361-6.52-7.694   C28.181,147.757,30.357,151.296,32.305,153.053" id="path121" style="fill-rule:evenodd;clip-rule:evenodd;"></path>

	<path d="M30.702,153.267c0.778-0.109,0.866,1.248,1.603-0.214   C31.774,153.123,31.283,153.186,30.702,153.267c0.285,0.214,0.571,0.427,0.855,0.641C31.273,153.693,30.987,153.48,30.702,153.267" id="path123" style="fill-rule:evenodd;clip-rule:evenodd;"></path>

	<path d="M25.038,146.213c2.653,2.287,4.134,5.447,6.52,7.694   C31.913,151.339,26.836,144.478,25.038,146.213" id="path125" style="fill-rule:evenodd;clip-rule:evenodd;"></path>

	<path d="M16.917,140.335c1.979,1.361,7.725,5.851,8.977,5.023   c-2.179-1.934-5.783-6.026-8.977-5.13c0.285,0.249,0.57,0.498,0.855,0.748C17.487,140.763,17.202,140.549,16.917,140.335" id="path127" style="fill-rule:evenodd;clip-rule:evenodd;"></path>

	<path d="M17.664,139.373c-0.023,0.258-0.557,0.782-0.748,0.962   c1.267,0.463,0.457,0.625,1.603-0.214C18.633,140.165,17.752,139.57,17.664,139.373" id="path129" style="fill-rule:evenodd;clip-rule:evenodd;"></path>

	<path d="M23.008,148.351c-0.793-0.774-6.54-5.934-5.772-7.374   c1.033-1.937,6.735,3.429,7.535,4.168c0.991,0.916,7.292,6.229,6.466,8.015C30.265,155.264,23.91,149.224,23.008,148.351" id="path131" style="fill-rule:evenodd;clip-rule:evenodd;"></path>

	<path d="M16.917,140.229c-0.498,2.941,3.543,6.522,5.665,8.549   C23.588,147.724,18.28,141.529,16.917,140.229" id="path133" style="fill-rule:evenodd;clip-rule:evenodd;"></path>

	<path d="M25.893,145.358c-2.179-1.934-5.783-6.026-8.977-5.13   C18.743,141.699,24.683,146.157,25.893,145.358" id="path135" style="fill-rule:evenodd;clip-rule:evenodd;"></path>

	<path d="M31.558,153.907c0.355-2.568-4.722-9.43-6.52-7.694   C27.69,148.5,29.171,151.66,31.558,153.907" id="path137" style="fill-rule:evenodd;clip-rule:evenodd;"></path>

	<path d="M22.581,148.777c2.028,1.798,6.05,6.306,8.977,5.13   c-2.617-1.804-5.702-3.412-8.123-5.984C23.149,148.208,22.866,148.492,22.581,148.777" id="path139" style="fill-rule:evenodd;clip-rule:evenodd;"></path>

	<path d="M23.008,148.351   c-0.793-0.774-6.54-5.934-5.772-7.374c1.033-1.937,6.735,3.429,7.535,4.168c0.991,0.916,7.292,6.229,6.466,8.015   C30.265,155.264,23.91,149.224,23.008,148.351" id="path141" style="fill:none;stroke:#FFFFFF;stroke-width:0;stroke-linecap:square;stroke-miterlimit:10;"></path>

	<path d="M18.092,141.084c-1.104,1.176-2.209,2.351-3.313,3.526   c4.21,0.266,11.831,7.717,12.397,11.861c3.235-3.546,3.863-3.112,0.438-6.359C24.44,147.103,21.266,144.094,18.092,141.084" id="path143" style="fill-rule:evenodd;clip-rule:evenodd;"></path>

	<path d="M14.352,144.289c1.56,1.036,2.827-1.572,4.06-2.885   c-0.214-0.214-0.427-0.428-0.641-0.642c-1.104,1.176-2.209,2.351-3.313,3.526c0.25,0.214,0.499,0.428,0.749,0.642   C14.921,144.717,14.637,144.503,14.352,144.289" id="path145" style="fill-rule:evenodd;clip-rule:evenodd;"></path>

	<path d="M22.366,149.099c-1.78-1.927-5.207-5.575-8.014-4.81   C15.992,145.44,21.019,149.8,22.366,149.099" id="path147" style="fill-rule:evenodd;clip-rule:evenodd;"></path>

	<path d="M26.748,156.152c0.285,0.213,0.571,0.427,0.855,0.641   c0.202-3.087-3.194-5.652-5.237-7.694c-0.213,0.214-0.427,0.428-0.64,0.642c2.283,2.16,3.834,4.907,5.877,7.053   C27.319,156.579,27.033,156.365,26.748,156.152" id="path149" style="fill-rule:evenodd;clip-rule:evenodd;"></path>

	<path d="M30.489,152.839c-1.259,0.28-2.528,1.982-3.741,3.313   C28.511,157.249,30.426,153.905,30.489,152.839" id="path151" style="fill-rule:evenodd;clip-rule:evenodd;"></path>

	<path d="M19.803,151.663c-0.677-0.658-6.328-5.751-5.024-7.053   c1.288-1.286,7.121,4.662,7.855,5.396c0.621,0.621,5.654,5.257,4.542,6.465C25.982,157.769,20.483,152.326,19.803,151.663" id="path153" style="fill-rule:evenodd;clip-rule:evenodd;"></path>

	<path d="M14.352,144.289c-0.502,3.056,3.159,5.723,5.13,7.694   c0.214-0.213,0.427-0.427,0.641-0.641C17.834,149.177,16.321,146.471,14.352,144.289" id="path155" style="fill-rule:evenodd;clip-rule:evenodd;"></path>

	<path d="M22.366,149.099c-1.78-1.927-5.207-5.575-8.014-4.81   C15.992,145.44,21.019,149.8,22.366,149.099" id="path157" style="fill-rule:evenodd;clip-rule:evenodd;"></path>

	<path d="M27.497,156.793c0.558-2.856-3.169-5.733-5.13-7.694   c-0.213,0.214-0.427,0.428-0.64,0.642C24.007,151.898,25.604,154.541,27.497,156.793" id="path159" style="fill-rule:evenodd;clip-rule:evenodd;"></path>

	<path d="M19.482,151.983c1.781,1.93,5.224,5.571,8.015,4.81   C25.728,155.558,20.842,151.277,19.482,151.983" id="path161" style="fill-rule:evenodd;clip-rule:evenodd;"></path>

	<path d="M19.803,151.663   c-0.677-0.658-6.328-5.751-5.024-7.053c1.288-1.286,7.121,4.662,7.855,5.396c0.621,0.621,5.654,5.257,4.542,6.465   C25.982,157.769,20.483,152.326,19.803,151.663" id="path163" style="fill:none;stroke:#FFFFFF;stroke-width:0;stroke-linecap:square;stroke-miterlimit:10;"></path>

	<path d="M15.313,145.358c-0.32,0.32-0.641,0.642-0.961,0.961   c4.036,0.332,10.577,6.621,11.22,10.58C27.402,154.924,17.369,147.314,15.313,145.358" id="path165" style="fill-rule:evenodd;clip-rule:evenodd;"></path>

	<path d="M14.03,145.999c0.58-0.14,0.778,1.168,1.603-0.32   c-0.214-0.214-0.426-0.428-0.64-0.642C14.672,145.357,14.352,145.679,14.03,145.999C15.22,147.187,14.242,145.934,14.03,145.999" id="path167" style="fill-rule:evenodd;clip-rule:evenodd;"></path>

	<path d="M21.298,150.167c-1.903-1.732-4.604-4.684-7.268-4.168   C15.653,147.258,19.982,150.652,21.298,150.167" id="path169" style="fill-rule:evenodd;clip-rule:evenodd;"></path>

	<path d="M25.252,156.579c2.473,0.758-2.85-5.392-3.954-6.412   c-0.214,0.214-0.427,0.428-0.641,0.641c1.316,1.218,2.448,2.532,3.526,3.954C24.592,155.3,26.576,158.141,25.252,156.579" id="path171" style="fill-rule:evenodd;clip-rule:evenodd;"></path>

	<path d="M26.428,155.938c0.174-0.197-0.913,0.107-1.175,0.641   c0.214,0.214,0.427,0.427,0.641,0.641C26.42,156.885,26.527,155.826,26.428,155.938" id="path173" style="fill-rule:evenodd;clip-rule:evenodd;"></path>

	<path d="M18.947,152.625c-0.645-0.619-5.345-4.774-4.702-5.985   c0.881-1.658,5.967,3.124,6.733,3.848c0.659,0.625,5.355,4.859,4.702,6.092C24.815,158.213,19.722,153.338,18.947,152.625" id="path175" style="fill-rule:evenodd;clip-rule:evenodd;"></path>

	<path d="M14.03,145.999c-0.253,2.751,2.718,5.146,4.597,6.946   c0.213-0.214,0.427-0.428,0.641-0.642C17.225,150.345,15.742,148.173,14.03,145.999" id="path177" style="fill-rule:evenodd;clip-rule:evenodd;"></path>

	<path d="M21.298,150.167c-1.903-1.732-4.604-4.684-7.268-4.168   C15.653,147.258,19.982,150.652,21.298,150.167" id="path179" style="fill-rule:evenodd;clip-rule:evenodd;"></path>

	<path d="M25.893,157.22c0.288-2.722-2.706-5.307-4.595-7.053   c-0.214,0.214-0.427,0.428-0.641,0.641C22.753,152.746,24.189,155.017,25.893,157.22" id="path181" style="fill-rule:evenodd;clip-rule:evenodd;"></path>

	<path d="M18.627,152.945c1.882,1.714,4.638,4.799,7.266,4.274   C24.205,155.968,20.043,152.423,18.627,152.945" id="path183" style="fill-rule:evenodd;clip-rule:evenodd;"></path>

	<path d="M18.947,152.625   c-0.645-0.619-5.345-4.774-4.702-5.985c0.881-1.658,5.967,3.124,6.733,3.848c0.659,0.625,5.355,4.859,4.702,6.092   C24.815,158.213,19.722,153.338,18.947,152.625" id="path185" style="fill:none;stroke:#FFFFFF;stroke-width:0;stroke-linecap:square;stroke-miterlimit:10;"></path>

	<path d="M8.367,153.801   c3.742,0.631,9.227,5.807,10.045,9.51" id="path187" style="fill:none;stroke:#FFFFFF;stroke-width:0;stroke-linecap:square;stroke-miterlimit:10;"></path>

	<path d="M14.993,146.854c-2.208,2.316-4.417,4.632-6.626,6.947   c3.742,0.631,9.227,5.807,10.045,9.51c1.28-1.364,7.256-6.24,5.887-7.551C21.197,152.791,18.095,149.822,14.993,146.854" id="path189" style="fill-rule:evenodd;clip-rule:evenodd;"></path>

	<path d="M8.047,153.587c2.028,0.593,5.552-4.614,7.266-6.412   c-0.213-0.214-0.427-0.428-0.641-0.642c-2.208,2.315-4.417,4.631-6.625,6.946c0.214,0.179,0.427,0.356,0.641,0.535   c-0.214-0.179-0.427-0.356-0.641-0.535c0.214,0.438-0.339,0.436,0.32,0.749C9.105,153.968,8.208,153.966,8.047,153.587" id="path191" style="fill-rule:evenodd;clip-rule:evenodd;"></path>

	<path d="M14.565,157.22c-1.794-1.523-4.22-4.015-6.519-3.633   C9.559,154.529,13.306,157.797,14.565,157.22" id="path193" style="fill-rule:evenodd;clip-rule:evenodd;"></path>

	<path d="M18.092,162.991c2.259,0.299-2.396-4.701-3.526-5.771   c-0.214,0.214-0.427,0.427-0.641,0.641c1.961,1.742,3.28,3.844,4.809,5.772c-0.214-0.179-0.427-0.355-0.641-0.533   c-0.048-0.063,0.189,0.906,0.428,0.64C18.917,163.27,18.363,163.388,18.092,162.991" id="path195" style="fill-rule:evenodd;clip-rule:evenodd;"></path>

	<path d="M24.932,156.365c-2.016,0.339-5.065,4.735-6.84,6.626   c0.214,0.214,0.427,0.428,0.641,0.642C20.531,161.716,24.662,158.468,24.932,156.365" id="path197" style="fill-rule:evenodd;clip-rule:evenodd;"></path>

	<path d="M7.939,158.183c0.322-3.297-0.272-5.342,2.886-3.367   c1.932,1.209,3.879,2.901,5.343,4.648c0.63,0.752,3.396,3.706,1.559,3.931C12.768,164.002,11.574,161.562,7.939,158.183" id="path199" style="fill-rule:evenodd;clip-rule:evenodd;"></path>

	<path d="M10.398,161.602c-1.09-0.879-1.955-2.035-2.458-3.312   c2.373,0.563,5.063,3.216,5.985,5.557C12.612,163.532,11.418,162.685,10.398,161.602" id="path201" style="fill-rule:evenodd;clip-rule:evenodd;"></path>

	<path d="M10.398,161.602   c-1.09-0.879-1.955-2.035-2.458-3.312c2.373,0.563,5.063,3.216,5.985,5.557C12.612,163.532,11.418,162.685,10.398,161.602" id="path203" style="fill:none;stroke:#000000;stroke-width:0;stroke-linecap:square;stroke-miterlimit:10;"></path>

	<path d="M10.398,161.602   c-1.09-0.879-1.955-2.035-2.458-3.312c2.373,0.563,5.063,3.216,5.985,5.557C12.612,163.532,11.418,162.685,10.398,161.602" id="path205" style="fill:none;stroke:#FFFFFF;stroke-width:0;stroke-linecap:square;stroke-miterlimit:10;"></path>

	<path d="M8.367,153.801   c3.742,0.631,9.227,5.807,10.045,9.51" id="path207" style="fill:none;stroke:#FFFFFF;stroke-width:0;stroke-linecap:square;stroke-miterlimit:10;"></path>

	<path d="M64.365,134.885c0-20.069,0-40.137,0-60.207c0-8.606,0-17.212,0-25.818   c0-1.381-23.357-0.645-26.056-0.645c-0.846,0-7.179-0.482-7.179,0.366c0,2.953,0,5.906,0,8.86c0,12.192,0,24.384,0,36.577   c0,11.533,0,23.066,0,34.599c0,2.076,0,4.151,0,6.227c0,0.086,10.967,0.042,11.699,0.042   C50.007,134.885,57.187,134.885,64.365,134.885" id="path209" style="fill-rule:evenodd;clip-rule:evenodd;"></path>

	<path d="M64.365,134.885   c0-20.069,0-40.137,0-60.207c0-8.606,0-17.212,0-25.818c0-1.381-23.357-0.645-26.056-0.645c-0.846,0-7.179-0.482-7.179,0.366   c0,2.953,0,5.906,0,8.86c0,12.192,0,24.384,0,36.577c0,11.533,0,23.066,0,34.599c0,2.076,0,4.151,0,6.227   c0,0.086,10.967,0.042,11.699,0.042C50.007,134.885,57.187,134.885,64.365,134.885" id="path211" style="fill:none;stroke:#FFFFFF;stroke-width:0;stroke-linecap:square;stroke-miterlimit:10;"></path>

	<path d="M35.725,5.79c0,11.267,0,22.533,0,33.801c0,5.081,0.532,3.923,5.728,3.923   c3.048,0,16.018,1.994,18.21,0c1.347-1.225,0-11.494,0-13.278c0-6.84,0-13.682,0-20.522c0-5.081-0.531-3.923-5.728-3.923   C47.865,5.79,41.794,5.79,35.725,5.79" id="path213" style="fill-rule:evenodd;clip-rule:evenodd;"></path>

	<path d="M35.725,5.79   c0,11.267,0,22.533,0,33.801c0,5.081,0.532,3.923,5.728,3.923c3.048,0,16.018,1.994,18.21,0c1.347-1.225,0-11.494,0-13.278   c0-6.84,0-13.682,0-20.522c0-5.081-0.531-3.923-5.728-3.923C47.865,5.79,41.794,5.79,35.725,5.79" id="path215" style="fill:none;stroke:#000000;stroke-width:0;stroke-linecap:square;stroke-miterlimit:10;"></path>

	<path d="M64.365,48.216c-5.454-5.454-7.206-4.702-15.043-4.702   c-4.127,0-8.255,0-12.383,0c-2.478,0-4.159,3.014-5.809,4.702C42.208,48.216,53.286,48.216,64.365,48.216" id="path217" style="fill-rule:evenodd;clip-rule:evenodd;"></path>

	
		<line id="line219" style="fill:none;stroke:#FFFFFF;stroke-width:0;stroke-linecap:square;stroke-miterlimit:10;" x1="59.663" x2="35.725" y1="43.514" y2="43.514"></line>

	
		<line id="line221" style="fill:none;stroke:#FFFFFF;stroke-width:0;stroke-linecap:square;stroke-miterlimit:10;" x1="31.13" x2="64.365" y1="48.216" y2="48.216"></line>

	<path d="M78.471,89.039c0,10.9,0,21.8,0,32.699c0,1.508,1.125,9.706,0,10.796   c-0.735,0.713-14.119,0.713-14.854,0c-1.125-1.091,0-9.289,0-10.796c0-7.301,0-14.602,0-21.903c0-1.508-1.125-9.706,0-10.796   C65.3,87.407,75.867,89.039,78.471,89.039" id="path223" style="fill-rule:evenodd;clip-rule:evenodd;"></path>

	<path d="M72.38,195.692c15.86,0,31.721,0,47.58,0c5.166,0,8.83-8.135,10.448-12.504   c2.66-7.186,2.243-14.546,1.527-22c-2.677-27.924-24.299-50.447-27.496-77.92c0,13.23,0,26.46,0,39.691   c0,9.876,1.556,19.567,1.495,29.345c-0.063,10.095-3.07,20.684-9.616,28.534c-4.156,4.983-7.332,6.625-13.621,6.625   c-3.371,0-6.743,0-10.114,0C72.16,187.463,72.38,194.699,72.38,195.692" id="path225" style="fill-rule:evenodd;clip-rule:evenodd;"></path>

	<path d="M77.831,139.801c0-18.106,0-36.214,0-54.32   c0-2.214-1.313-15.143,1.092-15.143c5.033,0,10.066,0,15.1,0c1.546,0,10.21-1.15,11.273,0c2.111,2.287,0,16.494,0,19.496   c0,11.608,0,23.215,0,34.823c0,2.214,1.313,15.144-1.092,15.144C95.412,139.801,86.622,139.801,77.831,139.801" id="path227" style="fill-rule:evenodd;clip-rule:evenodd;"></path>

	<path d="M77.831,139.801   c0-18.106,0-36.214,0-54.32c0-2.214-1.313-15.143,1.092-15.143c5.033,0,10.066,0,15.1,0c1.546,0,10.21-1.15,11.273,0   c2.111,2.287,0,16.494,0,19.496c0,11.608,0,23.215,0,34.823c0,2.214,1.313,15.144-1.092,15.144   C95.412,139.801,86.622,139.801,77.831,139.801" id="path229" style="fill:none;stroke:#FFFFFF;stroke-width:0;stroke-linecap:square;stroke-miterlimit:10;"></path>

	<path d="M72.488,203.601c0,1.778,0.693,12.289-0.574,12.289   c-5.777,0-11.554,0-17.332,0c-8.025,0-16.049,0-24.073,0c-1.892,0-12,1.402-13.378,0c-0.978-0.994-0.037-12.289,0.574-12.289   c5.777,0,11.555,0,17.332,0C47.52,203.601,60.004,203.601,72.488,203.601" id="path231" style="fill-rule:evenodd;clip-rule:evenodd;"></path>

	<path d="M72.488,203.601   c0,1.778,0.693,12.289-0.574,12.289c-5.777,0-11.554,0-17.332,0c-8.025,0-16.049,0-24.073,0c-1.892,0-12,1.402-13.378,0   c-0.978-0.994-0.037-12.289,0.574-12.289c5.777,0,11.555,0,17.332,0C47.52,203.601,60.004,203.601,72.488,203.601" id="path233" style="fill:none;stroke:#FFFFFF;stroke-width:0;stroke-linecap:square;stroke-miterlimit:10;"></path>

	<path d="M89.265,132c9.664,0.123,9.645-14.961,0-14.961   C79.668,117.039,79.643,132.123,89.265,132" id="path235" style="fill-rule:evenodd;clip-rule:evenodd;"></path>

	<path d="M89.265,132   c9.664,0.123,9.645-14.961,0-14.961C79.668,117.039,79.643,132.123,89.265,132" id="path237" style="fill:none;stroke:#FFFFFF;stroke-width:0;stroke-linecap:square;stroke-miterlimit:10;"></path>

	<path d="M89.265,132   c9.664,0.123,9.645-14.961,0-14.961C79.668,117.039,79.643,132.123,89.265,132" id="path239" style="fill:none;stroke:#FFFFFF;stroke-width:0;stroke-linecap:square;stroke-miterlimit:10;"></path>

	<path d="M89.265,126.122c1.437-0.464,2.541-2.677,0.32-3.046   C87.165,122.674,87.58,125.466,89.265,126.122" id="path241" style="fill-rule:evenodd;clip-rule:evenodd;fill:#FFFFFF;"></path>

	
		<line id="line243" style="fill:none;stroke:#FFFFFF;stroke-width:0;stroke-linecap:square;stroke-miterlimit:10;" x1="64.365" x2="64.365" y1="135.633" y2="48.216"></line>

	<path d="M74.945,94.49c19.148-0.606,19.276-29.817,0-29.816   C55.806,64.674,55.93,93.886,74.945,94.49" id="path245" style="fill-rule:evenodd;clip-rule:evenodd;"></path>

	<path d="M88.73,79.528c-0.184,3.837-1.59,7.644-4.586,10.168   c-2.49,2.097-10.008,3.009-9.199,5.969c8.864-0.237,15.901-7.27,16.137-16.137C90.341,79.528,89.446,79.355,88.73,79.528" id="path247" style="fill-rule:evenodd;clip-rule:evenodd;"></path>

	<path d="M74.945,65.849c3.837,0.186,7.646,1.59,10.169,4.588   c2.09,2.484,3.045,9.89,5.968,9.091c-0.233-8.825-7.336-15.794-16.137-16.03C74.945,64.239,74.771,65.134,74.945,65.849" id="path249" style="fill-rule:evenodd;clip-rule:evenodd;"></path>

	<path d="M61.266,79.528c0.185-3.834,1.596-7.542,4.588-10.061   c2.484-2.091,9.888-3.047,9.091-5.969c-8.759,0.235-15.799,7.27-16.03,16.03C59.655,79.528,60.551,79.701,61.266,79.528" id="path251" style="fill-rule:evenodd;clip-rule:evenodd;"></path>

	<path d="M74.945,93.314c-3.835-0.186-7.541-1.597-10.061-4.588   c-2.098-2.49-3.011-10.006-5.969-9.199c0.231,8.802,7.208,15.901,16.03,16.137C74.945,94.925,75.118,94.029,74.945,93.314" id="path253" style="fill-rule:evenodd;clip-rule:evenodd;"></path>

	<path d="M74.945,94.49   c19.148-0.606,19.276-29.817,0-29.816C55.806,64.674,55.93,93.886,74.945,94.49" id="path255" style="fill:none;stroke:#FFFFFF;stroke-width:0;stroke-linecap:square;stroke-miterlimit:10;"></path>

	<path d="M74.945,82.734c3.931-0.271,4.063-6.343,0-6.305   C70.87,76.467,71.093,82.314,74.945,82.734" id="path257" style="fill-rule:evenodd;clip-rule:evenodd;fill:#FFFFFF;"></path>

	<path d="M72.488,242.928c-8.777,5.679-17.85,8.013-28.16,9.188   c-9.79,1.12-19.621,1.517-27.732,7.803c0-2.737-1.771-15.405,0-16.991c1.764-1.582,12.211,0,14.491,0   C44.887,242.928,58.688,242.928,72.488,242.928" id="path259" style="fill-rule:evenodd;clip-rule:evenodd;"></path>

	<path d="M86.379,245.601c0-11.499,0-23,0-34.498c0-5.046,0-10.092,0-15.136   c0,0.138-12.973-1.286-13.892-0.274c-1.202,1.323,0,9.343,0,11.054c0,7.815,0,15.629,0,23.443c0,5.045,0,10.091,0,15.135   C72.488,245.9,84.778,245.601,86.379,245.601" id="path261" style="fill-rule:evenodd;clip-rule:evenodd;"></path>

	<path d="M86.379,245.601   c0-11.499,0-23,0-34.498c0-5.046,0-10.092,0-15.136c0,0.138-12.973-1.286-13.892-0.274c-1.202,1.323,0,9.343,0,11.054   c0,7.815,0,15.629,0,23.443c0,5.045,0,10.091,0,15.135C72.488,245.9,84.778,245.601,86.379,245.601" id="path263" style="fill:none;stroke:#FFFFFF;stroke-width:0;stroke-linecap:square;stroke-miterlimit:10;"></path>

	<path d="M122.288,195.692c0,14.949,0,29.901,0,44.85   c0,3.785-10.843,1.744-13.905,1.744c-4.703,0-9.405,0-14.109,0c-1.135,0-7.048,0.834-7.894,0c-2.021-1.996,0-16.457,0-19.251   c0-8.533,0-17.066,0-25.6c0-3.785,10.842-1.743,13.905-1.743C107.619,195.692,114.954,195.692,122.288,195.692" id="path265" style="fill-rule:evenodd;clip-rule:evenodd;"></path>

	<path d="M122.288,195.692   c0,14.949,0,29.901,0,44.85c0,3.785-10.843,1.744-13.905,1.744c-4.703,0-9.405,0-14.109,0c-1.135,0-7.048,0.834-7.894,0   c-2.021-1.996,0-16.457,0-19.251c0-8.533,0-17.066,0-25.6c0-3.785,10.842-1.743,13.905-1.743   C107.619,195.692,114.954,195.692,122.288,195.692" id="path267" style="fill:none;stroke:#FFFFFF;stroke-width:0;stroke-linecap:square;stroke-miterlimit:10;"></path>

	<path d="M126.668,274.773c1.243-3.704-1.953-2.671-4.318-2.671   c-5.1,0-10.201,0-15.301,0c-14.824,0-29.649,0-44.474,0c-9.781,0-19.563,0-29.345,0c-1.589,0,0.234,2.249-0.605,2.671   c-1.231,0.619-4.417,0-5.754,0c-6.098,0-12.194,0-18.292,0c2.97-8.017,6.869-15.899,15.613-18.813   c7.845-2.612,15.837-2.979,23.948-4.213c17.43-2.652,31.995-10.5,37.49-28.163c2.265-7.278,2.551-16.439,8.186-22.079   c4.766-4.77,15.867-3.824,19.426,1.927c4.281,6.919,4.927,15.499,7.471,23.127c2.621,7.863,8.516,13.162,14.195,18.837   c7.77,7.761,14.604,18.23,15.699,29.377C142.628,274.773,134.649,274.773,126.668,274.773" id="path269" style="fill-rule:evenodd;clip-rule:evenodd;"></path>

	<path d="M126.668,273.599c-0.498-0.499-0.996-0.998-1.495-1.496   c-1.458,5.344,6.61,1.743,1.495-1.497c0.499,0.499,0.997,0.998,1.496,1.497C127.256,269.312,125.933,271.109,126.668,273.599" id="path271" style="fill-rule:evenodd;clip-rule:evenodd;"></path>

	<path d="M34.122,272.103c-0.499,0.498-0.997,0.997-1.496,1.496   c15.95,0,31.9,0,47.851,0c11.007,0,22.015,0,33.022,0c3.624,0,13.169,2.108,13.169-2.218c0-1.625-43.888-0.775-47.851-0.775   c-11.008,0-22.015,0-33.023,0c-3.37,0-12.438-1.872-14.665,1.497c0.499-0.499,0.997-0.998,1.496-1.497   C29.835,271.516,31.633,272.839,34.122,272.103" id="path273" style="fill-rule:evenodd;clip-rule:evenodd;"></path>

	<path d="M32.626,276.269c5.115-3.239-2.952-6.839-1.496-1.495   c0.499-0.498,0.997-0.997,1.496-1.496c-0.737,2.489,0.587,4.287,1.496,1.496C33.623,275.272,33.125,275.771,32.626,276.269" id="path275" style="fill-rule:evenodd;clip-rule:evenodd;"></path>

	<path d="M7.192,274.454c1.415,3.329,7.314,1.814,10.169,1.814   c2.252,0,13.734,1.592,15.265,0c3.907-4.059-8.021-2.991-8.78-2.991c-5.088,0-10.177,0-15.265,0c0.535,0.53,0.833,1.313,1.39,1.816   c-1.706-0.955-3.207-0.9-3.42,1.175c0.677,0,1.354,0,2.031,0C8.132,275.683,7.735,274.95,7.192,274.454" id="path277" style="fill-rule:evenodd;clip-rule:evenodd;"></path>

	<path d="M74.945,239.08c-11.728,9.271-24.011,10.564-38.365,12.503   c-15.281,2.064-24.155,8.213-29.388,22.871c3.916,2.295,3.785-2.864,5.16-5.362c1.805-3.281,3.625-6.01,6.542-8.425   c5.348-4.428,12.879-5.535,19.593-6.28c14.436-1.601,26.804-3.906,38.381-13.17C76.277,240.561,75.689,239.537,74.945,239.08" id="path279" style="fill-rule:evenodd;clip-rule:evenodd;"></path>

	<path d="M102.73,197.081c-11.668,0.234-14.767,10.148-16.896,19.879   c-0.959,4.388-2.158,8.884-4.157,12.931c-1.56,3.159-8.551,9.034-4.81,11.326c6.824-6.821,9.708-14.974,12.078-24.151   c1.147-4.444,1.879-8.894,4.37-12.832C95.699,200.464,103.961,201.438,102.73,197.081" id="path281" style="fill-rule:evenodd;clip-rule:evenodd;"></path>

	<path d="M130.515,239.08c-6.432-6.543-8.879-13.97-11.006-22.654   c-2.339-9.541-5.303-19.114-16.779-19.345c-1.216,4.309,6.939,3.402,9.31,7.152c2.476,3.915,3.395,8.385,4.478,12.832   c2.257,9.268,5.207,17.281,12.075,24.151C129.188,240.555,130.121,239.87,130.515,239.08" id="path283" style="fill-rule:evenodd;clip-rule:evenodd;"></path>

	<path d="M150.608,276.269c4.818-3.306-3.564-17.395-5.879-21.052   c-1.622-2.561-10.926-16.412-14.214-16.137c-5.001,0.42,2.905,6.821,3.74,7.694c2.278,2.384,4.504,5.005,6.412,7.693   c4.326,6.09,7.577,12.937,8.443,20.411c0.499-0.533,0.998-1.068,1.497-1.602c-0.556,1.889-0.318,3.19,1.603,2.991   c-0.036-0.533-0.071-1.067-0.107-1.601C151.604,275.201,151.105,275.735,150.608,276.269" id="path285" style="fill-rule:evenodd;clip-rule:evenodd;"></path>

	<path d="M125.173,274.773c1.933,3.053,8.819,1.495,11.837,1.495   c1.985,0,12.229,1.417,13.598,0c3.91-4.051-7.991-2.991-8.742-2.991c-5.065,0-10.131,0-15.197,0   c0.499,0.499,0.997,0.998,1.496,1.496c-2.488-0.736-4.285,0.587-1.496,1.495C126.17,275.771,125.672,275.272,125.173,274.773" id="path287" style="fill-rule:evenodd;clip-rule:evenodd;"></path>

	<path d="M126.668,274.773c1.243-3.704-1.953-2.671-4.318-2.671   c-5.1,0-10.201,0-15.301,0c-14.824,0-29.649,0-44.474,0c-9.781,0-19.563,0-29.345,0c-1.589,0,0.234,2.249-0.605,2.671   c-1.231,0.619-4.417,0-5.754,0c-6.098,0-12.194,0-18.292,0c2.993-8.079,6.948-15.818,15.703-18.813   c7.793-2.665,15.783-2.984,23.857-4.213c17.43-2.652,31.995-10.5,37.49-28.163c2.265-7.278,2.551-16.439,8.186-22.079   c4.766-4.77,15.867-3.824,19.426,1.927c4.281,6.919,4.927,15.499,7.471,23.127c2.621,7.863,8.516,13.162,14.195,18.837   c7.77,7.761,14.604,18.23,15.699,29.377C142.628,274.773,134.649,274.773,126.668,274.773" id="path289" style="fill-rule:evenodd;clip-rule:evenodd;"></path>

	<path d="M126.668,272.85c-0.249-0.249-0.498-0.499-0.748-0.747   c-1.247,4.257,3.398,2.462,0.748-0.748c0.25,0.249,0.499,0.499,0.749,0.748c0-0.249,0-0.499,0-0.748c-0.25,0-0.499,0-0.749,0   C126.668,271.854,126.668,272.351,126.668,272.85" id="path291" style="fill-rule:evenodd;clip-rule:evenodd;fill:#FFFFFF;"></path>

	<path d="M33.374,272.103c-0.249,0.248-0.499,0.498-0.748,0.747   c15.95,0,31.9,0,47.851,0c11.007,0,22.015,0,33.022,0c1.06,0,14.94,0.193,13.169-1.495c-1.617-1.543-12.258,0-14.385,0   c-11.154,0-22.311,0-33.466,0c-11.008,0-22.015,0-33.023,0c-3.268,0-11.35-1.572-13.917,0.748c0.249-0.249,0.499-0.499,0.748-0.748   c-0.25,0-0.499,0-0.748,0c0,0.249,0,0.499,0,0.748C32.376,272.103,32.875,272.103,33.374,272.103" id="path293" style="fill-rule:evenodd;clip-rule:evenodd;fill:#FFFFFF;"></path>

	<path d="M32.626,275.521c2.649-3.211-1.995-5.005-0.748-0.748   c0.249-0.25,0.499-0.498,0.748-0.747C32.626,274.523,32.626,275.022,32.626,275.521c0.249,0,0.499,0,0.748,0   c0-0.249,0-0.499,0-0.748C33.125,275.022,32.875,275.272,32.626,275.521" id="path295" style="fill-rule:evenodd;clip-rule:evenodd;fill:#FFFFFF;"></path>

	<path d="M7.939,274.668c1.873,2.15,8.31,0.854,11.029,0.854   c2.224,0,11.998,1.491,13.658,0c1.993-1.793-9.602-1.495-10.388-1.495c-4.553,0-9.105,0-13.658,0   c0.214,0.283,0.428,0.568,0.642,0.853c-1.066,0.481-0.804-0.514-1.603,0.537c0.32,0.034,0.641,0.071,0.961,0.105   C8.367,275.237,8.153,274.951,7.939,274.668" id="path297" style="fill-rule:evenodd;clip-rule:evenodd;fill:#FFFFFF;"></path>

	<path d="M75.479,239.613c-11.399,9.283-24.075,11.189-38.292,12.77   c-15.094,1.679-24.038,7.951-29.248,22.285c1,0.197,7.944-12.478,10.527-14.644c5.02-4.208,12.336-5.651,18.721-6.359   c14.743-1.637,27.2-3.69,39.147-12.981C76.048,240.327,75.765,239.971,75.479,239.613" id="path299" style="fill-rule:evenodd;clip-rule:evenodd;fill:#FFFFFF;"></path>

	<path d="M102.73,197.83c-11.608,0.792-13.621,9.602-16.057,19.343   c-1.075,4.299-2.294,8.475-4.12,12.519c-1.15,2.547-7.363,9.551-6.219,10.992c6.647-6.887,9.494-14.693,11.756-23.833   c1.132-4.576,2.138-8.938,4.582-13.017C94.583,200.647,102.805,199.627,102.73,197.83" id="path301" style="fill-rule:evenodd;clip-rule:evenodd;fill:#FFFFFF;"></path>

	<path d="M129.981,239.613c-6.44-6.686-9.158-14.112-11.327-22.976   c-2.339-9.552-4.709-18.044-15.924-18.808c-0.066,1.61,7.539,2.958,9.618,5.449c2.891,3.462,3.683,8.541,4.8,12.742   c2.539,9.531,4.942,17.374,11.978,24.662C129.411,240.327,129.696,239.971,129.981,239.613" id="path303" style="fill-rule:evenodd;clip-rule:evenodd;fill:#FFFFFF;"></path>

	<path d="M150.608,275.521c3.088-4.359-4.136-16.025-6.627-19.877   c-3.86-5.969-8.789-11.222-14-16.031c-1.565,1.755,3.741,5.417,5.226,7.099c2.269,2.569,4.522,5.118,6.519,7.911   c4.18,5.852,7.481,12.941,8.239,20.15c0.216-0.25,0.428-0.498,0.644-0.747C150.608,274.523,150.608,275.022,150.608,275.521   c0.248-0.034,0.497-0.071,0.747-0.105C151.291,274.187,151.107,275.388,150.608,275.521" id="path305" style="fill-rule:evenodd;clip-rule:evenodd;fill:#FFFFFF;"></path>

	<path d="M125.92,274.773c2.259,1.983,8.198,0.748,11.09,0.748   c2.219,0,11.939,1.486,13.598,0c1.997-1.792-9.562-1.495-10.343-1.495c-4.531,0-9.063,0-13.597,0   c0.25,0.249,0.499,0.497,0.749,0.747C126.918,274.773,126.419,274.773,125.92,274.773c0,0.249,0,0.499,0,0.748   c0.25,0,0.499,0,0.748,0C126.419,275.272,126.17,275.022,125.92,274.773" id="path307" style="fill-rule:evenodd;clip-rule:evenodd;fill:#FFFFFF;"></path>

	<path d="M102.73,213.111c2.822-0.475,3.171-4.758,0-4.81   C99.453,208.248,99.819,212.629,102.73,213.111" id="path309" style="fill-rule:evenodd;clip-rule:evenodd;fill:#FFFFFF;"></path>

	<path d="M64.365,5.79c0-1.604,1.054-5.45-0.931-5.45c-3.589,0-7.178,0-10.768,0   c-4.786,0-9.572,0-14.358,0c-1.054,0-6.379-0.765-7.179,0c-0.758,0.725-0.665,5.45,0.931,5.45c3.59,0,7.178,0,10.768,0   C50.007,5.79,57.187,5.79,64.365,5.79" id="path311" style="fill-rule:evenodd;clip-rule:evenodd;"></path>

	<path d="M35.725,5.79c7.796,0,16.509,0,23.793,0   C51.588,5.79,43.656,5.79,35.725,5.79" id="path313" style="fill-rule:evenodd;clip-rule:evenodd;fill:#FFFFFF;"></path>

	
		<line id="line315" style="fill:none;stroke:#FFFFFF;stroke-width:0;stroke-linecap:square;stroke-miterlimit:10;" x1="35.725" x2="59.663" y1="5.79" y2="5.79"></line>

</g>


  
</svg>
