<?xml version="1.0" encoding="UTF-8" standalone="no"?>
<!-- Generator: Adobe Illustrator 12.0.0, SVG Export Plug-In . SVG Version: 6.00 Build 51448)  --><svg height="244.207" id="Layer_1" inkscape:version="0.40+cvs" sodipodi:docbase="F:\openclip\svg3" sodipodi:docname="televisore telecomando.svg" sodipodi:version="0.32" style="overflow:visible;enable-background:new 0 0 268.732 244.207;" version="1.0" viewBox="0 0 268.732 244.207" width="268.732" xml:space="preserve" xmlns="http://www.w3.org/2000/svg" xmlns:cc="http://web.resource.org/cc/" xmlns:dc="http://purl.org/dc/elements/1.1/" xmlns:inkscape="http://www.inkscape.org/namespaces/inkscape" xmlns:rdf="http://www.w3.org/1999/02/22-rdf-syntax-ns#" xmlns:sodipodi="http://inkscape.sourceforge.net/DTD/sodipodi-0.dtd" xmlns:svg="http://www.w3.org/2000/svg" xmlns:xml="http://www.w3.org/XML/1998/namespace"><metadata><rdf:RDF xmlns:cc="http://web.resource.org/cc/" xmlns:dc="http://purl.org/dc/elements/1.1/" xmlns:rdf="http://www.w3.org/1999/02/22-rdf-syntax-ns#"><cc:Work rdf:about=""><dc:title>Televisore telecomando</dc:title><dc:description></dc:description><dc:subject><rdf:Bag><rdf:li>unsorted</rdf:li></rdf:Bag></dc:subject><dc:publisher><cc:Agent rdf:about="http://www.openclipart.org"><dc:title>Architetto Francesco Rollandin</dc:title></cc:Agent></dc:publisher><dc:creator><cc:Agent><dc:title>Architetto Francesco Rollandin</dc:title></cc:Agent></dc:creator><dc:rights><cc:Agent><dc:title>Architetto Francesco Rollandin</dc:title></cc:Agent></dc:rights><dc:date></dc:date><dc:format>image/svg+xml</dc:format><dc:type rdf:resource="http://purl.org/dc/dcmitype/StillImage"/><cc:license rdf:resource="http://web.resource.org/cc/PublicDomain"/><dc:language>en</dc:language></cc:Work><cc:License rdf:about="http://web.resource.org/cc/PublicDomain"><cc:permits rdf:resource="http://web.resource.org/cc/Reproduction"/><cc:permits rdf:resource="http://web.resource.org/cc/Distribution"/><cc:permits rdf:resource="http://web.resource.org/cc/DerivativeWorks"/></cc:License></rdf:RDF></metadata>
<defs id="defs301"></defs>
<sodipodi:namedview bordercolor="#666666" borderopacity="1.0" id="base" inkscape:current-layer="Layer_1" inkscape:cx="134.36599" inkscape:cy="122.10350" inkscape:pageopacity="0.0" inkscape:pageshadow="2" inkscape:window-height="540" inkscape:window-width="640" inkscape:window-x="22" inkscape:window-y="22" inkscape:zoom="1.5478672" pagecolor="#ffffff"></sodipodi:namedview>

<g id="g3">
	<path d="M34.941,180.696c0.018-25.188,0.035-50.376,0.053-75.563   c0.012-16.765,0.023-33.53,0.035-50.294c0.003-5.131,0.007-10.263,0.011-15.395c0.002-3.528-0.932-4.15,2.743-4.657   c3.024-0.417,6.049-0.834,9.073-1.251c0.44,51.122,0.88,102.245,1.32,153.367c0.001,0.172,0.003,0.344,0.004,0.516   C43.768,185.177,39.354,182.936,34.941,180.696" id="path5" style="fill-rule:evenodd;clip-rule:evenodd;fill:#3F3F3F;"></path>

	<path d="M34.941,180.696   c0.018-25.188,0.035-50.376,0.053-75.563c0.012-16.765,0.023-33.53,0.035-50.294c0.003-5.131,0.007-10.263,0.011-15.395   c0.002-3.528-0.932-4.15,2.743-4.657c3.024-0.417,6.049-0.834,9.073-1.251c0.44,51.122,0.88,102.245,1.32,153.367   c0.001,0.172,0.003,0.344,0.004,0.516C43.768,185.177,39.354,182.936,34.941,180.696" id="path7" style="fill:none;stroke:#000707;stroke-width:0;stroke-linecap:square;stroke-miterlimit:10;"></path>

	<path d="M55.716,206.665c11.678,4.481,23.356,8.962,35.034,13.443   c-0.066-4.262-0.131-8.523-0.197-12.785c-0.016-1.017-6.453-0.492-7.437-0.498C73.982,206.772,64.849,206.718,55.716,206.665" id="path9" style="fill-rule:evenodd;clip-rule:evenodd;"></path>

	<path d="M55.716,206.665   c11.678,4.481,23.356,8.962,35.034,13.443c-0.066-4.262-0.131-8.523-0.197-12.785c-0.016-1.017-6.453-0.492-7.437-0.498   C73.982,206.772,64.849,206.718,55.716,206.665" id="path11" style="fill:none;stroke:#000000;stroke-width:0;stroke-linecap:square;stroke-miterlimit:10;"></path>

	<path d="M90.546,206.869c0.05,3.269,0.101,6.538,0.151,9.807   c0.041,2.649-0.663,3.156,1.632,3.483c4.479,0.638,9.5-0.142,14.003-0.355c11.104-0.527,22.287-1.64,33.291-3.213   c23.089-3.301,46.114-7.125,68.956-11.859c9.894-2.051,19.762-4.153,29.592-6.487c3.813-0.905,8.194-1.625,11.757-3.29   c1.386-0.647,2.025-0.145,2.058-1.867c0.061-3.315,0.122-6.63,0.183-9.945c-52.728,7.741-105.456,15.481-158.184,23.223   C92.838,206.532,91.692,206.701,90.546,206.869" id="path13" style="fill-rule:evenodd;clip-rule:evenodd;"></path>

	<path d="M90.546,206.869   c0.05,3.269,0.101,6.538,0.151,9.807c0.041,2.649-0.663,3.156,1.632,3.483c4.479,0.638,9.5-0.142,14.003-0.355   c11.104-0.527,22.287-1.64,33.291-3.213c23.089-3.301,46.114-7.125,68.956-11.859c9.894-2.051,19.762-4.153,29.592-6.487   c3.813-0.905,8.194-1.625,11.757-3.29c1.386-0.647,2.025-0.145,2.058-1.867c0.061-3.315,0.122-6.63,0.183-9.945   c-52.728,7.741-105.456,15.481-158.184,23.223C92.838,206.532,91.692,206.701,90.546,206.869" id="path15" style="fill:none;stroke:#000000;stroke-width:0;stroke-linecap:square;stroke-miterlimit:10;"></path>

	<path d="M93.601,203.814c0.05,3.168,0.101,6.337,0.151,9.505   c0.042,2.604-0.607,3.583,2.14,3.275c5.082-0.567,10.413-0.602,15.531-0.814c11.204-0.466,22.497-1.826,33.607-3.31   c22.504-3.005,44.56-7.673,66.87-11.723c8.74-1.587,17.586-3.687,26.145-6.069c3.313-0.922,6.907-1.389,10.1-2.678   c2.817-1.138,1.422-8.062,1.479-10.999c-51.526,7.534-103.054,15.067-154.58,22.602C94.563,203.673,94.082,203.744,93.601,203.814" id="path17" style="fill-rule:evenodd;clip-rule:evenodd;fill:#7F7F7F;"></path>

	<path d="M93.601,203.814   c0.05,3.168,0.101,6.337,0.151,9.505c0.042,2.604-0.607,3.583,2.14,3.275c5.082-0.567,10.413-0.602,15.531-0.814   c11.204-0.466,22.497-1.826,33.607-3.31c22.504-3.005,44.56-7.673,66.87-11.723c8.74-1.587,17.586-3.687,26.145-6.069   c3.313-0.922,6.907-1.389,10.1-2.678c2.817-1.138,1.422-8.062,1.479-10.999c-51.526,7.534-103.054,15.067-154.58,22.602   C94.563,203.673,94.082,203.744,93.601,203.814" id="path19" style="fill:none;stroke:#000000;stroke-width:0;stroke-linecap:square;stroke-miterlimit:10;"></path>

	<path d="M190.962,193.222c-0.068,3.53-0.136,7.062-0.204,10.592   c3.216-0.775,6.505-1.242,9.727-1.985c1.626-0.376,0.829-8.89,0.865-10.745C197.887,191.796,194.425,192.509,190.962,193.222" id="path21" style="fill-rule:evenodd;clip-rule:evenodd;"></path>

	<path d="M190.962,193.222   c-0.068,3.53-0.136,7.062-0.204,10.592c3.216-0.775,6.505-1.242,9.727-1.985c1.626-0.376,0.829-8.89,0.865-10.745   C197.887,191.796,194.425,192.509,190.962,193.222" id="path23" style="fill:none;stroke:#000000;stroke-width:0;stroke-linecap:square;stroke-miterlimit:10;"></path>

	<path d="M190.962,193.222   c-0.068,3.53-0.136,7.062-0.204,10.592c3.216-0.775,6.505-1.242,9.727-1.985c1.626-0.376,0.829-8.89,0.865-10.745" id="path25" style="fill:none;stroke:#000000;stroke-width:0;stroke-linecap:square;stroke-miterlimit:10;"></path>

	<path d="M202.472,192c-0.068,3.123-0.137,6.246-0.205,9.369   c2.167-0.384,6.553-0.524,8.352-1.73c2.13-1.428,1.254-5.821,1.323-8.658C208.785,191.321,205.628,191.661,202.472,192" id="path27" style="fill-rule:evenodd;clip-rule:evenodd;"></path>

	<path d="M202.472,192   c-0.068,3.123-0.137,6.246-0.205,9.369c2.167-0.384,6.553-0.524,8.352-1.73c2.13-1.428,1.254-5.821,1.323-8.658   C208.785,191.321,205.628,191.661,202.472,192" id="path29" style="fill:none;stroke:#000000;stroke-width:0;stroke-linecap:square;stroke-miterlimit:10;"></path>

	<path d="M202.472,192   c-0.068,3.123-0.137,6.246-0.205,9.369c2.167-0.384,6.553-0.524,8.352-1.73c2.13-1.428,1.254-5.821,1.323-8.658" id="path31" style="fill:none;stroke:#000000;stroke-width:0;stroke-linecap:square;stroke-miterlimit:10;"></path>

	<path d="M213.061,191.186c-0.067,2.647-0.135,5.296-0.202,7.943   c2.552-0.613,5.151-1.301,7.738-1.731c3.128-0.521,1.864-5.424,1.937-8.147C219.376,189.896,216.218,190.541,213.061,191.186" id="path33" style="fill-rule:evenodd;clip-rule:evenodd;"></path>

	<path d="M213.061,191.186   c-0.067,2.647-0.135,5.296-0.202,7.943c2.552-0.613,5.151-1.301,7.738-1.731c3.128-0.521,1.864-5.424,1.937-8.147   C219.376,189.896,216.218,190.541,213.061,191.186" id="path35" style="fill:none;stroke:#000000;stroke-width:0;stroke-linecap:square;stroke-miterlimit:10;"></path>

	<path d="M213.061,191.186   c-0.067,2.647-0.135,5.296-0.202,7.943c2.552-0.613,5.151-1.301,7.738-1.731c3.128-0.521,1.864-5.424,1.937-8.147" id="path37" style="fill:none;stroke:#000000;stroke-width:0;stroke-linecap:square;stroke-miterlimit:10;"></path>

	<path d="M223.652,188.945c-0.068,2.58-0.136,5.161-0.204,7.741   c2.648-0.681,5.45-1.385,8.147-1.834c3.048-0.509,1.795-4.78,1.834-7.435C230.171,187.926,226.911,188.436,223.652,188.945" id="path39" style="fill-rule:evenodd;clip-rule:evenodd;"></path>

	<path d="M223.652,188.945   c-0.068,2.58-0.136,5.161-0.204,7.741c2.648-0.681,5.45-1.385,8.147-1.834c3.048-0.509,1.795-4.78,1.834-7.435   C230.171,187.926,226.911,188.436,223.652,188.945" id="path41" style="fill:none;stroke:#000000;stroke-width:0;stroke-linecap:square;stroke-miterlimit:10;"></path>

	<path d="M223.652,188.945   c-0.068,2.58-0.136,5.161-0.204,7.741c2.648-0.681,5.45-1.385,8.147-1.834c3.048-0.509,1.795-4.78,1.834-7.435" id="path43" style="fill:none;stroke:#000000;stroke-width:0;stroke-linecap:square;stroke-miterlimit:10;"></path>

	<path d="M248.399,180.289c-0.089,3.13,1.333,10.176-1.884,11.05   c-4.026,1.094-8.114,1.925-12.169,2.902c0.095-3.466-1.108-6.816,2.186-8.366C240.488,184.012,244.443,182.151,248.399,180.289" id="path45" style="fill-rule:evenodd;clip-rule:evenodd;"></path>

	<path d="M248.399,180.289   c-0.089,3.13,1.333,10.176-1.884,11.05c-4.026,1.094-8.114,1.925-12.169,2.902c0.095-3.466-1.108-6.816,2.186-8.366   C240.488,184.012,244.443,182.151,248.399,180.289" id="path47" style="fill:none;stroke:#000000;stroke-width:0;stroke-linecap:square;stroke-miterlimit:10;"></path>

	<path d="M248.399,180.289   c-0.089,3.13,1.333,10.176-1.884,11.05c-4.026,1.094-8.114,1.925-12.169,2.902c0.068-2.478,0.136-4.956,0.204-7.434" id="path49" style="fill:none;stroke:#000000;stroke-width:0;stroke-linecap:square;stroke-miterlimit:10;"></path>

	<path d="M97.879,209.314c9.021-0.631,18.125-1.084,27.09-2.343   c-0.083,4.237,0.712,5.213-3.565,5.601c-2.646,0.24-5.292,0.489-7.935,0.767c-5.212,0.547-10.466,0.811-15.692,1.169   C97.811,212.776,97.845,211.045,97.879,209.314" id="path51" style="fill-rule:evenodd;clip-rule:evenodd;fill:#520000;"></path>

	<path d="M97.879,209.314   c9.021-0.631,18.125-1.084,27.09-2.343c-0.083,4.237,0.712,5.213-3.565,5.601c-2.646,0.24-5.292,0.489-7.935,0.767   c-5.212,0.547-10.466,0.811-15.692,1.169C97.811,212.776,97.845,211.045,97.879,209.314" id="path53" style="fill:none;stroke:#000000;stroke-width:0;stroke-linecap:square;stroke-miterlimit:10;"></path>

	<path d="M66.206,227.135c1.787-1.129,8.847-0.569,10.49,0.509   c2.203,1.445,1.118,4.782-0.101,6.622c-1.734,2.617-6.661,8.578-9.674,9.675c-1.696,0.617-4.399-0.247-6.121-0.47   c-3.057-0.396-6.139-0.639-9.206-0.958c-11.662-1.214-23.306-2.627-34.957-3.944c-4.997-0.565-10.529-0.477-15.406-1.707   c-2.884-0.729,0.016-7.224,1.426-8.301c3.39-2.591,9.459-6.753,13.647-7.639c4.264-0.901,9.951,0.77,14.207,1.376   c1.684,0.24,1.687,1.655,3.106,2.293c2.227,1,6.382,0.498,8.78,0.686C50.333,225.896,58.27,226.516,66.206,227.135" id="path55" style="fill-rule:evenodd;clip-rule:evenodd;fill:#FFFFFF;"></path>

	<path d="M66.206,227.135   c1.787-1.129,8.847-0.569,10.49,0.509c2.203,1.445,1.118,4.782-0.101,6.622c-1.734,2.617-6.661,8.578-9.674,9.675   c-1.696,0.617-4.399-0.247-6.121-0.47c-3.057-0.396-6.139-0.639-9.206-0.958c-11.662-1.214-23.306-2.627-34.957-3.944   c-4.997-0.565-10.529-0.477-15.406-1.707c-2.884-0.729,0.016-7.224,1.426-8.301c2.983-2.279,6.654-3.791,9.866-5.716   c1.73-1.036,3.17-2.023,5.207-2.023c3.47,0,7.045,0.804,10.498,1.17c1.223,0.129,2.576,0.163,3.658,0.766   c1.001,0.558,0.074,1.669,1.732,1.834" id="path57" style="fill:none;stroke:#000707;stroke-width:0;stroke-linecap:square;stroke-miterlimit:10;"></path>

	<path d="M53.883,236.708c2.353-1.358,12.229-0.326,13.342,1.937   c0.281,0.57,0.238,6.421-1.521,5.339C61.764,241.559,57.823,239.133,53.883,236.708" id="path59" style="fill-rule:evenodd;clip-rule:evenodd;fill:#FFFFFF;"></path>

	<path d="M53.883,236.708   c2.782-1.605,7.96,0.307,11,0.562c3.186,0.269,3.585,6.447,0.917,6.772" id="path61" style="fill:none;stroke:#000707;stroke-width:0;stroke-linecap:square;stroke-miterlimit:10;"></path>

	<path d="M31.783,222.757c-2.324-1.229-6.061-1.121-8.713-1.373   c-1.997-0.189-4.545-1.01-6.563-0.513c-4.739,1.17-11.258,5.534-14.971,8.402c4.831,1.129,10.042,1.266,14.971,1.885   C21.032,231.728,27.827,225.241,31.783,222.757" id="path63" style="fill-rule:evenodd;clip-rule:evenodd;fill:#7F7F7F;"></path>

	<path d="M31.783,222.757   c-2.324-1.229-6.061-1.121-8.713-1.373c-1.997-0.189-4.545-1.01-6.563-0.513c-4.739,1.17-11.258,5.534-14.971,8.402   c4.831,1.129,10.042,1.266,14.971,1.885C21.032,231.728,27.827,225.241,31.783,222.757" id="path65" style="fill:none;stroke:#000000;stroke-width:0;stroke-linecap:square;stroke-miterlimit:10;"></path>

	<path d="M18.545,233.042c-0.377-0.491-0.286-1.02-0.713-1.528   c2.069-1.299,13.397-9.5,14.359-8.146C33.28,224.901,20.49,231.821,18.545,233.042" id="path67" style="fill-rule:evenodd;clip-rule:evenodd;"></path>

	<path d="M18.545,233.042   c-0.377-0.491-0.286-1.02-0.713-1.528c2.069-1.299,13.397-9.5,14.359-8.146C33.28,224.901,20.49,231.821,18.545,233.042" id="path69" style="fill:none;stroke:#000000;stroke-width:0;stroke-linecap:square;stroke-miterlimit:10;"></path>

	<path d="M66.817,237.727c0.771,1.426,1.179,6.048-1.018,6.315   c3.357,0.223,7.286-6.098,9.305-8.262c2.119-2.27,3.746-4.521,2.406-7.83C73.946,231.209,70.382,234.468,66.817,237.727" id="path71" style="fill-rule:evenodd;clip-rule:evenodd;"></path>

	<path d="M66.817,237.727   c0.771,1.426,1.179,6.048-1.018,6.315c3.357,0.223,7.286-6.098,9.305-8.262c2.119-2.27,3.746-4.521,2.406-7.83   C73.946,231.209,70.382,234.468,66.817,237.727" id="path73" style="fill:none;stroke:#000000;stroke-width:0;stroke-linecap:square;stroke-miterlimit:10;"></path>

	<path d="M68.345,237.932c2.987-2.852,5.975-5.704,8.962-8.556   c0,5.429-5.396,8.734-9.064,12.525C68.277,240.579,68.311,239.255,68.345,237.932" id="path75" style="fill-rule:evenodd;clip-rule:evenodd;fill:#3F0000;"></path>

	<path d="M68.345,237.932   c2.987-2.852,5.975-5.704,8.962-8.556c0,5.429-5.396,8.734-9.064,12.525C68.277,240.579,68.311,239.255,68.345,237.932" id="path77" style="fill:#5C0000;stroke:#000000;stroke-width:0;stroke-linecap:square;stroke-miterlimit:10;"></path>

	<path d="M77.51,227.951c-2.352-1.015-8.003-1.938-10.49-1.221   c-1.735,0.501-3.431,2.438-4.817,3.515c-2.773,2.154-5.547,4.31-8.32,6.464c3.132-1.809,8.175,0.792,11.61,0.613   C69.674,237.105,74.139,231.033,77.51,227.951" id="path79" style="fill-rule:evenodd;clip-rule:evenodd;fill:#7F7F7F;"></path>

	<path d="M77.51,227.951   c-2.352-1.015-8.003-1.938-10.49-1.221c-1.735,0.501-3.431,2.438-4.817,3.515c-2.773,2.154-5.547,4.31-8.32,6.464   c3.132-1.809,8.175,0.792,11.61,0.613C69.674,237.105,74.139,231.033,77.51,227.951" id="path81" style="fill:none;stroke:#000000;stroke-width:0;stroke-linecap:square;stroke-miterlimit:10;"></path>

	<path d="M52.763,237.117c3.252-1.346,6.344-0.494,9.879-0.102   c1.152,0.128,3.562-0.09,4.379,0.917c0.562,0.692,0.536,4.774,0,5.396c-1.869,2.168-10.681-0.32-13.432-0.606   c-5.859-0.61-11.718-1.254-17.567-1.948c-11.383-1.35-22.806-2.378-34.18-3.81c-2.788-0.351-1.755-6.862,0.612-7.485   c1.789-0.471,5.057,0.633,6.934,0.783c2.379,0.191,4.751,0.6,7.12,0.897c1.741,0.22,1.738,1.627,3.157,2.292   c2.202,1.031,6.197,0.687,8.581,0.95C36.418,235.306,44.59,236.211,52.763,237.117" id="path83" style="fill-rule:evenodd;clip-rule:evenodd;"></path>

	<path d="M52.763,237.117   c3.252-1.346,6.344-0.494,9.879-0.102c1.152,0.128,3.562-0.09,4.379,0.917c0.562,0.692,0.536,4.774,0,5.396   c-1.869,2.168-10.681-0.32-13.432-0.606c-5.859-0.61-11.718-1.254-17.567-1.948c-11.383-1.35-22.806-2.378-34.18-3.81   c-2.788-0.351-1.755-6.862,0.612-7.485c1.789-0.471,5.057,0.633,6.934,0.783c2.379,0.191,4.751,0.6,7.12,0.897   c1.741,0.22,1.738,1.627,3.157,2.292c2.202,1.031,6.197,0.687,8.581,0.95C36.418,235.306,44.59,236.211,52.763,237.117" id="path85" style="fill:none;stroke:#000000;stroke-width:0;stroke-linecap:square;stroke-miterlimit:10;"></path>

	<path d="M53.883,236.708c-1.863,1.167-5.54-0.129-7.637-0.304   c-3.478-0.291-6.928-0.809-10.4-1.153c-5.284-0.525-12.417-0.17-17.301-2.209c4.277-2.686,8.555-5.37,12.832-8.056   c1.938-1.217,5.825-0.127,8.122,0.16c8.54,1.064,17.302,2.142,25.894,2.6C61.556,230.734,57.719,233.721,53.883,236.708" id="path87" style="fill-rule:evenodd;clip-rule:evenodd;fill:#7F7F7F;"></path>

	<path d="M53.883,236.708   c-1.863,1.167-5.54-0.129-7.637-0.304c-3.478-0.291-6.928-0.809-10.4-1.153c-5.284-0.525-12.417-0.17-17.301-2.209   c4.277-2.686,8.555-5.37,12.832-8.056c1.938-1.217,5.825-0.127,8.122,0.16c8.54,1.064,17.302,2.142,25.894,2.6   C61.556,230.734,57.719,233.721,53.883,236.708" id="path89" style="fill:none;stroke:#000000;stroke-width:0;stroke-linecap:square;stroke-miterlimit:10;"></path>

	<path d="M24.554,233.247c3.235-2.194,6.47-4.388,9.705-6.582   c2.496-1.692,3.572-1.192,6.652-0.861c7.923,0.852,15.846,1.702,23.769,2.554c-3.085,2.402-6.17,4.806-9.255,7.208   c-2.089,1.627-4.19,0.717-6.809,0.419C40.595,235.071,32.574,234.159,24.554,233.247" id="path91" style="fill-rule:evenodd;clip-rule:evenodd;fill:#7F7F7F;"></path>

	<path d="M24.554,233.247   c3.235-2.194,6.47-4.388,9.705-6.582c2.496-1.692,3.572-1.192,6.652-0.861c7.923,0.852,15.846,1.702,23.769,2.554   c-3.085,2.402-6.17,4.806-9.255,7.208c-2.089,1.627-4.19,0.717-6.809,0.419C40.595,235.071,32.574,234.159,24.554,233.247" id="path93" style="fill:none;stroke:#000000;stroke-width:0;stroke-linecap:square;stroke-miterlimit:10;"></path>

	<path d="M29.85,233.144c0.541-0.252,1.03-0.688,1.528-1.02   c-1.7-0.169-3.276-0.714-4.583,0.713C27.813,232.94,28.831,233.042,29.85,233.144" id="path95" style="fill-rule:evenodd;clip-rule:evenodd;"></path>

	<path d="M29.85,233.144   c0.541-0.252,1.03-0.688,1.528-1.02c-1.7-0.169-3.276-0.714-4.583,0.713C27.813,232.94,28.831,233.042,29.85,233.144" id="path97" style="fill:none;stroke:#000000;stroke-width:0;stroke-linecap:square;stroke-miterlimit:10;"></path>

	<path d="M34.331,230.191c-1.363,1.267-2.795,0.785-4.481,0.61   C31.125,229.471,32.704,230.028,34.331,230.191" id="path99" style="fill-rule:evenodd;clip-rule:evenodd;"></path>

	<path d="M34.331,230.191   c-1.363,1.267-2.795,0.785-4.481,0.61C31.125,229.471,32.704,230.028,34.331,230.191" id="path101" style="fill:none;stroke:#000000;stroke-width:0;stroke-linecap:square;stroke-miterlimit:10;"></path>

	<path d="M37.284,228.155c-1.327,1.388-2.765,0.89-4.481,0.713   C34.129,227.476,35.567,227.976,37.284,228.155" id="path103" style="fill-rule:evenodd;clip-rule:evenodd;"></path>

	<path d="M37.284,228.155   c-1.327,1.388-2.765,0.89-4.481,0.713C34.129,227.476,35.567,227.976,37.284,228.155" id="path105" style="fill:none;stroke:#000000;stroke-width:0;stroke-linecap:square;stroke-miterlimit:10;"></path>

	<path d="M38.709,227.135c0.535-0.23,1.028-0.617,1.528-0.917   c-1.716-0.177-3.154-0.675-4.481,0.713C36.74,227,37.725,227.067,38.709,227.135" id="path107" style="fill-rule:evenodd;clip-rule:evenodd;"></path>

	<path d="M38.709,227.135   c0.535-0.23,1.028-0.617,1.528-0.917c-1.716-0.177-3.154-0.675-4.481,0.713C36.74,227,37.725,227.067,38.709,227.135" id="path109" style="fill:none;stroke:#000000;stroke-width:0;stroke-linecap:square;stroke-miterlimit:10;"></path>

	<path d="M46.041,226.832c-1.338,1.25-2.724,0.787-4.378,0.61   C42.962,226.152,44.393,226.661,46.041,226.832" id="path111" style="fill-rule:evenodd;clip-rule:evenodd;"></path>

	<path d="M46.041,226.832   c-1.338,1.25-2.724,0.787-4.378,0.61C42.962,226.152,44.393,226.661,46.041,226.832" id="path113" style="fill:none;stroke:#000000;stroke-width:0;stroke-linecap:square;stroke-miterlimit:10;"></path>

	<path d="M51.847,227.34c-1.26,1.412-2.699,0.886-4.378,0.713   C48.727,226.637,50.167,227.166,51.847,227.34" id="path115" style="fill-rule:evenodd;clip-rule:evenodd;"></path>

	<path d="M51.847,227.34   c-1.26,1.412-2.699,0.886-4.378,0.713C48.727,226.637,50.167,227.166,51.847,227.34" id="path117" style="fill:none;stroke:#000000;stroke-width:0;stroke-linecap:square;stroke-miterlimit:10;"></path>

	<path d="M57.651,227.951c-1.235,1.4-2.625,0.891-4.277,0.713   C54.563,227.222,56.008,227.78,57.651,227.951" id="path119" style="fill-rule:evenodd;clip-rule:evenodd;"></path>

	<path d="M57.651,227.951   c-1.235,1.4-2.625,0.891-4.277,0.713C54.563,227.222,56.008,227.78,57.651,227.951" id="path121" style="fill:none;stroke:#000000;stroke-width:0;stroke-linecap:square;stroke-miterlimit:10;"></path>

	<path d="M62.132,229.581c0.476-0.262,0.894-0.688,1.325-1.02   c-1.643-0.169-3.088-0.725-4.278,0.713C60.163,229.376,61.148,229.478,62.132,229.581" id="path123" style="fill-rule:evenodd;clip-rule:evenodd;"></path>

	<path d="M62.132,229.581   c0.476-0.262,0.894-0.688,1.325-1.02c-1.643-0.169-3.088-0.725-4.278,0.713C60.163,229.376,61.148,229.478,62.132,229.581" id="path125" style="fill:none;stroke:#000000;stroke-width:0;stroke-linecap:square;stroke-miterlimit:10;"></path>

	<path d="M43.088,228.765c-1.259,1.416-2.699,0.888-4.379,0.713   C39.968,228.062,41.407,228.59,43.088,228.765" id="path127" style="fill-rule:evenodd;clip-rule:evenodd;"></path>

	<path d="M43.088,228.765   c-1.259,1.416-2.699,0.888-4.379,0.713C39.968,228.062,41.407,228.59,43.088,228.765" id="path129" style="fill:none;stroke:#000000;stroke-width:0;stroke-linecap:square;stroke-miterlimit:10;"></path>

	<path d="M40.237,230.801c-1.274,1.331-2.854,0.774-4.481,0.611   C37.12,230.15,38.552,230.628,40.237,230.801" id="path131" style="fill-rule:evenodd;clip-rule:evenodd;"></path>

	<path d="M40.237,230.801   c-1.274,1.331-2.854,0.774-4.481,0.611C37.12,230.15,38.552,230.628,40.237,230.801" id="path133" style="fill:none;stroke:#000000;stroke-width:0;stroke-linecap:square;stroke-miterlimit:10;"></path>

	<path d="M37.385,232.738c-1.235,1.452-2.823,0.878-4.481,0.713   C34.138,231.995,35.726,232.571,37.385,232.738" id="path135" style="fill-rule:evenodd;clip-rule:evenodd;"></path>

	<path d="M37.385,232.738   c-1.235,1.452-2.823,0.878-4.481,0.713C34.138,231.995,35.726,232.571,37.385,232.738" id="path137" style="fill:none;stroke:#000000;stroke-width:0;stroke-linecap:square;stroke-miterlimit:10;"></path>

	<path d="M48.995,229.376c-1.259,1.416-2.699,0.888-4.379,0.713   C45.875,228.676,47.315,229.204,48.995,229.376" id="path139" style="fill-rule:evenodd;clip-rule:evenodd;"></path>

	<path d="M48.995,229.376   c-1.259,1.416-2.699,0.888-4.379,0.713C45.875,228.676,47.315,229.204,48.995,229.376" id="path141" style="fill:none;stroke:#000000;stroke-width:0;stroke-linecap:square;stroke-miterlimit:10;"></path>

	<path d="M46.246,231.413c-1.234,1.455-2.823,0.878-4.481,0.712   C43.092,230.737,44.53,231.236,46.246,231.413" id="path143" style="fill-rule:evenodd;clip-rule:evenodd;"></path>

	<path d="M46.246,231.413   c-1.234,1.455-2.823,0.878-4.481,0.712C43.092,230.737,44.53,231.236,46.246,231.413" id="path145" style="fill:none;stroke:#000000;stroke-width:0;stroke-linecap:square;stroke-miterlimit:10;"></path>

	<path d="M43.496,233.451c-1.346,1.302-2.914,0.777-4.583,0.611   C40.257,232.755,41.825,233.283,43.496,233.451" id="path147" style="fill-rule:evenodd;clip-rule:evenodd;"></path>

	<path d="M43.496,233.451   c-1.346,1.302-2.914,0.777-4.583,0.611C40.257,232.755,41.825,233.283,43.496,233.451" id="path149" style="fill:none;stroke:#000000;stroke-width:0;stroke-linecap:square;stroke-miterlimit:10;"></path>

	<path d="M54.902,229.987c-1.26,1.416-2.699,0.888-4.38,0.713   C51.783,229.289,53.222,229.814,54.902,229.987" id="path151" style="fill-rule:evenodd;clip-rule:evenodd;"></path>

	<path d="M54.902,229.987   c-1.26,1.416-2.699,0.888-4.38,0.713C51.783,229.289,53.222,229.814,54.902,229.987" id="path153" style="fill:none;stroke:#000000;stroke-width:0;stroke-linecap:square;stroke-miterlimit:10;"></path>

	<path d="M52.254,232.026c-1.235,1.452-2.823,0.877-4.481,0.712   C49.007,231.283,50.596,231.86,52.254,232.026" id="path155" style="fill-rule:evenodd;clip-rule:evenodd;"></path>

	<path d="M52.254,232.026   c-1.235,1.452-2.823,0.877-4.481,0.712C49.007,231.283,50.596,231.86,52.254,232.026" id="path157" style="fill:none;stroke:#000000;stroke-width:0;stroke-linecap:square;stroke-miterlimit:10;"></path>

	<path d="M49.504,234.062c-1.234,1.455-2.823,0.878-4.481,0.712   C46.257,233.317,47.846,233.895,49.504,234.062" id="path159" style="fill-rule:evenodd;clip-rule:evenodd;"></path>

	<path d="M49.504,234.062   c-1.234,1.455-2.823,0.878-4.481,0.712C46.257,233.317,47.846,233.895,49.504,234.062" id="path161" style="fill:none;stroke:#000000;stroke-width:0;stroke-linecap:square;stroke-miterlimit:10;"></path>

	<path d="M60.809,230.597c-1.189,1.44-2.634,0.885-4.278,0.716   C57.72,229.873,59.165,230.428,60.809,230.597" id="path163" style="fill-rule:evenodd;clip-rule:evenodd;"></path>

	<path d="M60.809,230.597   c-1.189,1.44-2.634,0.885-4.278,0.716C57.72,229.873,59.165,230.428,60.809,230.597" id="path165" style="fill:none;stroke:#000000;stroke-width:0;stroke-linecap:square;stroke-miterlimit:10;"></path>

	<path d="M58.161,232.636c-1.158,1.478-2.764,0.873-4.378,0.713   C55.041,231.933,56.48,232.461,58.161,232.636" id="path167" style="fill-rule:evenodd;clip-rule:evenodd;"></path>

	<path d="M58.161,232.636   c-1.158,1.478-2.764,0.873-4.378,0.713C55.041,231.933,56.48,232.461,58.161,232.636" id="path169" style="fill:none;stroke:#000000;stroke-width:0;stroke-linecap:square;stroke-miterlimit:10;"></path>

	<path d="M54.189,235.692c0.476-0.255,0.894-0.688,1.323-1.02   c-1.616-0.162-3.222-0.77-4.378,0.713C52.153,235.488,53.171,235.589,54.189,235.692" id="path171" style="fill-rule:evenodd;clip-rule:evenodd;"></path>

	<path d="M54.189,235.692   c0.476-0.255,0.894-0.688,1.323-1.02c-1.616-0.162-3.222-0.77-4.378,0.713C52.153,235.488,53.171,235.589,54.189,235.692" id="path173" style="fill:none;stroke:#000000;stroke-width:0;stroke-linecap:square;stroke-miterlimit:10;"></path>

	<path d="M29.85,232.738c0.541-0.251,1.03-0.687,1.528-1.019   c-1.701-0.171-3.276-0.718-4.583,0.712C27.813,232.534,28.831,232.635,29.85,232.738" id="path175" style="fill-rule:evenodd;clip-rule:evenodd;fill:#FFFFE8;"></path>

	<path d="M29.85,232.738   c0.541-0.251,1.03-0.687,1.528-1.019c-1.701-0.171-3.276-0.718-4.583,0.712C27.813,232.534,28.831,232.635,29.85,232.738" id="path177" style="fill:none;stroke:#000000;stroke-width:0;stroke-linecap:square;stroke-miterlimit:10;"></path>

	<path d="M34.331,229.785c-1.364,1.263-2.796,0.784-4.481,0.611   C31.124,229.065,32.704,229.622,34.331,229.785" id="path179" style="fill-rule:evenodd;clip-rule:evenodd;fill:#FFFFE8;"></path>

	<path d="M34.331,229.785   c-1.364,1.263-2.796,0.784-4.481,0.611C31.124,229.065,32.704,229.622,34.331,229.785" id="path181" style="fill:none;stroke:#000000;stroke-width:0;stroke-linecap:square;stroke-miterlimit:10;"></path>

	<path d="M37.284,227.747c-1.327,1.391-2.765,0.891-4.481,0.712   C34.13,227.071,35.568,227.57,37.284,227.747" id="path183" style="fill-rule:evenodd;clip-rule:evenodd;fill:#FFFFE8;"></path>

	<path d="M37.284,227.747   c-1.327,1.391-2.765,0.891-4.481,0.712C34.13,227.071,35.568,227.57,37.284,227.747" id="path185" style="fill:none;stroke:#000000;stroke-width:0;stroke-linecap:square;stroke-miterlimit:10;"></path>

	<path d="M38.709,226.73c0.535-0.23,1.028-0.617,1.528-0.918   c-1.717-0.179-3.155-0.679-4.481,0.713C36.74,226.593,37.725,226.662,38.709,226.73" id="path187" style="fill-rule:evenodd;clip-rule:evenodd;fill:#FFFFE8;"></path>

	<path d="M38.709,226.73   c0.535-0.23,1.028-0.617,1.528-0.918c-1.717-0.179-3.155-0.679-4.481,0.713C36.74,226.593,37.725,226.662,38.709,226.73" id="path189" style="fill:none;stroke:#000000;stroke-width:0;stroke-linecap:square;stroke-miterlimit:10;"></path>

	<path d="M46.041,226.423c-1.338,1.253-2.723,0.788-4.378,0.61   C42.962,225.744,44.393,226.252,46.041,226.423" id="path191" style="fill-rule:evenodd;clip-rule:evenodd;fill:#FFFFE8;"></path>

	<path d="M46.041,226.423   c-1.338,1.253-2.723,0.788-4.378,0.61C42.962,225.744,44.393,226.252,46.041,226.423" id="path193" style="fill:none;stroke:#000000;stroke-width:0;stroke-linecap:square;stroke-miterlimit:10;"></path>

	<path d="M51.847,226.931c-1.259,1.416-2.698,0.888-4.378,0.713   C48.728,226.232,50.167,226.758,51.847,226.931" id="path195" style="fill-rule:evenodd;clip-rule:evenodd;fill:#FFFFE8;"></path>

	<path d="M51.847,226.931   c-1.259,1.416-2.698,0.888-4.378,0.713C48.728,226.232,50.167,226.758,51.847,226.931" id="path197" style="fill:none;stroke:#000000;stroke-width:0;stroke-linecap:square;stroke-miterlimit:10;"></path>

	<path d="M57.651,227.544c-1.236,1.396-2.626,0.889-4.277,0.713   C54.563,226.816,56.008,227.374,57.651,227.544" id="path199" style="fill-rule:evenodd;clip-rule:evenodd;fill:#FFFFE8;"></path>

	<path d="M57.651,227.544   c-1.236,1.396-2.626,0.889-4.277,0.713C54.563,226.816,56.008,227.374,57.651,227.544" id="path201" style="fill:none;stroke:#000000;stroke-width:0;stroke-linecap:square;stroke-miterlimit:10;"></path>

	<path d="M62.132,229.171c0.475-0.261,0.894-0.686,1.325-1.017   c-1.644-0.171-3.089-0.729-4.278,0.713C60.163,228.969,61.148,229.07,62.132,229.171" id="path203" style="fill-rule:evenodd;clip-rule:evenodd;fill:#FFFFE8;"></path>

	<path d="M62.132,229.171   c0.475-0.261,0.894-0.686,1.325-1.017c-1.644-0.171-3.089-0.729-4.278,0.713C60.163,228.969,61.148,229.07,62.132,229.171" id="path205" style="fill:none;stroke:#000000;stroke-width:0;stroke-linecap:square;stroke-miterlimit:10;"></path>

	<path d="M43.088,228.357c-1.259,1.416-2.699,0.889-4.379,0.715   C39.968,227.658,41.408,228.184,43.088,228.357" id="path207" style="fill-rule:evenodd;clip-rule:evenodd;fill:#FFFFE8;"></path>

	<path d="M43.088,228.357   c-1.259,1.416-2.699,0.889-4.379,0.715C39.968,227.658,41.408,228.184,43.088,228.357" id="path209" style="fill:none;stroke:#000000;stroke-width:0;stroke-linecap:square;stroke-miterlimit:10;"></path>

	<path d="M40.237,230.396c-1.275,1.33-2.854,0.773-4.481,0.61   C37.119,229.74,38.551,230.221,40.237,230.396" id="path211" style="fill-rule:evenodd;clip-rule:evenodd;fill:#FFFFE8;"></path>

	<path d="M40.237,230.396   c-1.275,1.33-2.854,0.773-4.481,0.61C37.119,229.74,38.551,230.221,40.237,230.396" id="path213" style="fill:none;stroke:#000000;stroke-width:0;stroke-linecap:square;stroke-miterlimit:10;"></path>

	<path d="M37.385,232.33c-1.233,1.456-2.823,0.879-4.481,0.713   C34.139,231.591,35.727,232.165,37.385,232.33" id="path215" style="fill-rule:evenodd;clip-rule:evenodd;fill:#FFFFE8;"></path>

	<path d="M37.385,232.33   c-1.233,1.456-2.823,0.879-4.481,0.713C34.139,231.591,35.727,232.165,37.385,232.33" id="path217" style="fill:none;stroke:#000000;stroke-width:0;stroke-linecap:square;stroke-miterlimit:10;"></path>

	<path d="M48.995,228.97c-1.26,1.412-2.699,0.886-4.379,0.713   C45.875,228.267,47.314,228.795,48.995,228.97" id="path219" style="fill-rule:evenodd;clip-rule:evenodd;fill:#FFFFE8;"></path>

	<path d="M48.995,228.97   c-1.26,1.412-2.699,0.886-4.379,0.713C45.875,228.267,47.314,228.795,48.995,228.97" id="path221" style="fill:none;stroke:#000000;stroke-width:0;stroke-linecap:square;stroke-miterlimit:10;"></path>

	<path d="M46.246,231.006c-1.233,1.456-2.822,0.879-4.481,0.713   C43.091,230.328,44.529,230.828,46.246,231.006" id="path223" style="fill-rule:evenodd;clip-rule:evenodd;fill:#FFFFE8;"></path>

	<path d="M46.246,231.006   c-1.233,1.456-2.822,0.879-4.481,0.713C43.091,230.328,44.529,230.828,46.246,231.006" id="path225" style="fill:none;stroke:#000000;stroke-width:0;stroke-linecap:square;stroke-miterlimit:10;"></path>

	<path d="M43.496,233.042c-1.345,1.305-2.914,0.778-4.583,0.61   C40.258,232.351,41.826,232.876,43.496,233.042" id="path227" style="fill-rule:evenodd;clip-rule:evenodd;fill:#FFFFE8;"></path>

	<path d="M43.496,233.042   c-1.345,1.305-2.914,0.778-4.583,0.61C40.258,232.351,41.826,232.876,43.496,233.042" id="path229" style="fill:none;stroke:#000000;stroke-width:0;stroke-linecap:square;stroke-miterlimit:10;"></path>

	<path d="M54.902,229.581c-1.261,1.412-2.7,0.886-4.38,0.713   C51.782,228.877,53.221,229.406,54.902,229.581" id="path231" style="fill-rule:evenodd;clip-rule:evenodd;fill:#FFFFE8;"></path>

	<path d="M54.902,229.581   c-1.261,1.412-2.7,0.886-4.38,0.713C51.782,228.877,53.221,229.406,54.902,229.581" id="path233" style="fill:none;stroke:#000000;stroke-width:0;stroke-linecap:square;stroke-miterlimit:10;"></path>

	<path d="M52.254,231.617c-1.233,1.456-2.822,0.879-4.481,0.713   C49.008,230.877,50.597,231.452,52.254,231.617" id="path235" style="fill-rule:evenodd;clip-rule:evenodd;fill:#FFFFE8;"></path>

	<path d="M52.254,231.617   c-1.233,1.456-2.822,0.879-4.481,0.713C49.008,230.877,50.597,231.452,52.254,231.617" id="path237" style="fill:none;stroke:#000000;stroke-width:0;stroke-linecap:square;stroke-miterlimit:10;"></path>

	<path d="M49.504,233.653c-1.233,1.456-2.823,0.879-4.481,0.713   C46.258,232.914,47.846,233.488,49.504,233.653" id="path239" style="fill-rule:evenodd;clip-rule:evenodd;fill:#FFFFE8;"></path>

	<path d="M49.504,233.653   c-1.233,1.456-2.823,0.879-4.481,0.713C46.258,232.914,47.846,233.488,49.504,233.653" id="path241" style="fill:none;stroke:#000000;stroke-width:0;stroke-linecap:square;stroke-miterlimit:10;"></path>

	<path d="M60.809,230.191c-1.189,1.441-2.634,0.884-4.278,0.713   C57.72,229.462,59.165,230.02,60.809,230.191" id="path243" style="fill-rule:evenodd;clip-rule:evenodd;fill:#FFFFE8;"></path>

	<path d="M60.809,230.191   c-1.189,1.441-2.634,0.884-4.278,0.713C57.72,229.462,59.165,230.02,60.809,230.191" id="path245" style="fill:none;stroke:#000000;stroke-width:0;stroke-linecap:square;stroke-miterlimit:10;"></path>

	<path d="M58.161,232.227c-1.156,1.482-2.763,0.875-4.378,0.713   C55.042,231.528,56.481,232.054,58.161,232.227" id="path247" style="fill-rule:evenodd;clip-rule:evenodd;fill:#FFFFE8;"></path>

	<path d="M58.161,232.227   c-1.156,1.482-2.763,0.875-4.378,0.713C55.042,231.528,56.481,232.054,58.161,232.227" id="path249" style="fill:none;stroke:#000000;stroke-width:0;stroke-linecap:square;stroke-miterlimit:10;"></path>

	<path d="M54.189,235.283c0.476-0.254,0.894-0.687,1.323-1.017   c-1.616-0.162-3.222-0.77-4.378,0.713C52.153,235.081,53.171,235.181,54.189,235.283" id="path251" style="fill-rule:evenodd;clip-rule:evenodd;fill:#FFFFE8;"></path>

	<path d="M54.189,235.283   c0.476-0.254,0.894-0.687,1.323-1.017c-1.616-0.162-3.222-0.77-4.378,0.713C52.153,235.081,53.171,235.181,54.189,235.283" id="path253" style="fill:none;stroke:#000000;stroke-width:0;stroke-linecap:square;stroke-miterlimit:10;"></path>

	<path d="M261.437,8.991c-42.827-4.254-86.03-5.759-129.049-6.899   c-11.25-0.298-22.505-0.388-33.751-0.728C93.266,1.202,87.868,1.15,82.495,1.15c-4.944,0-11.148-1.151-15.932,0.152   c-3.994,1.088-2.464,9.716-2.442,12.767c0.05,7.047,0.101,14.095,0.151,21.142c0.096,13.356,0.141,26.713,0.21,40.069   c0.128,24.44,0.289,48.881,0.443,73.322c0.058,9.245,0.117,18.491,0.177,27.737c0.052,8.072,0.104,16.146,0.155,24.219   c0.017,2.659-1.048,10.17,2.273,10.895c-3.289-0.371-7.033-0.216-10.082-1.63c-3.852-1.786-7.341-5.248-10.694-7.842   c-5.086-3.934-4.397-7.424-4.521-13.61c-0.115-5.772-0.233-11.544-0.352-17.315c-0.533-25.886-1.036-51.771-1.513-77.659   c-0.441-23.905-0.872-47.811-1.377-71.714c-0.105-4.963-1.423-12.267-0.18-17.07c1.204-4.653,7.345-3.85,11.285-4.048   c11.298-0.566,22.447-0.668,33.769-0.477c47.67,0.806,95.386,3.267,142.976,6.065C238.403,6.833,249.927,7.714,261.437,8.991" id="path255" style="fill-rule:evenodd;clip-rule:evenodd;fill:#7F7F7F;"></path>

	<path d="M261.437,8.991   c-42.827-4.254-86.03-5.759-129.049-6.899c-11.25-0.298-22.505-0.388-33.751-0.728C93.266,1.202,87.868,1.15,82.495,1.15   c-4.944,0-11.148-1.151-15.932,0.152c-3.994,1.088-2.464,9.716-2.442,12.767c0.05,7.047,0.101,14.095,0.151,21.142   c0.096,13.356,0.141,26.713,0.21,40.069c0.128,24.44,0.289,48.881,0.443,73.322c0.058,9.245,0.117,18.491,0.177,27.737   c0.052,8.072,0.104,16.146,0.155,24.219c0.017,2.659-1.048,10.17,2.273,10.895c-3.289-0.371-7.033-0.216-10.082-1.63   c-3.852-1.786-7.341-5.248-10.694-7.842c-5.086-3.934-4.397-7.424-4.521-13.61c-0.115-5.772-0.233-11.544-0.352-17.315   c-0.533-25.886-1.036-51.771-1.513-77.659c-0.441-23.905-0.872-47.811-1.377-71.714c-0.105-4.963-1.423-12.267-0.18-17.07   c1.204-4.653,7.345-3.85,11.285-4.048c11.298-0.566,22.447-0.668,33.769-0.477c47.67,0.806,95.386,3.267,142.976,6.065   C238.403,6.833,249.927,7.714,261.437,8.991" id="path257" style="fill:none;stroke:#000000;stroke-width:0;stroke-linecap:square;stroke-miterlimit:10;"></path>

	<path d="M59.994,210.637c-3.554-0.442-6.699-3.592-9.388-5.684   c-3.632-2.825-8.138-4.831-8.239-9.881c-0.26-13.029-0.527-26.06-0.796-39.089c-0.477-23.134-0.889-46.269-1.332-69.403   c-0.35-18.292-0.649-36.585-1.036-54.875c-0.118-5.559-0.235-11.118-0.353-16.677c-0.07-3.292-0.857-7.255-0.04-10.416   c1.503-5.809,13.383-4.16,18.229-4.583c-5.869,0.108-4.081,8.18-3.989,11.816c0.163,6.485,0.322,12.97,0.483,19.456   c0.266,10.691,0.527,21.383,0.783,32.075c0.583,24.402,1.281,48.803,1.816,73.207c0.283,12.91,0.558,25.82,0.912,38.729   c0.161,5.844,0.345,11.688,0.458,17.532C57.565,196.016,55.818,209.229,59.994,210.637" id="path259" style="fill-rule:evenodd;clip-rule:evenodd;fill:#7F7F7F;"></path>

	<path d="M59.994,210.637   c-3.554-0.442-6.699-3.592-9.388-5.684c-3.632-2.825-8.138-4.831-8.239-9.881c-0.26-13.029-0.527-26.06-0.796-39.089   c-0.477-23.134-0.889-46.269-1.332-69.403c-0.35-18.292-0.649-36.585-1.036-54.875c-0.118-5.559-0.235-11.118-0.353-16.677   c-0.07-3.292-0.857-7.255-0.04-10.416c1.503-5.809,13.383-4.16,18.229-4.583c-5.869,0.108-4.081,8.18-3.989,11.816   c0.163,6.485,0.322,12.97,0.483,19.456c0.266,10.691,0.527,21.383,0.783,32.075c0.583,24.402,1.281,48.803,1.816,73.207   c0.283,12.91,0.558,25.82,0.912,38.729c0.161,5.844,0.345,11.688,0.458,17.532C57.565,196.016,55.818,209.229,59.994,210.637" id="path261" style="fill:none;stroke:#000000;stroke-width:0;stroke-linecap:square;stroke-miterlimit:10;"></path>

	<path d="M57.041,0.029c2.682,0.645,5.363,1.291,8.045,1.936   c-2.451,3.376-0.97,11.403-0.943,15.182c0.043,6.078,0.098,12.155,0.13,18.232c0.075,14.321,0.15,28.642,0.226,42.962   c0.133,25.282,0.303,50.563,0.462,75.844c0.056,8.855,0.113,17.711,0.17,26.566c0.045,7.055,0.09,14.109,0.136,21.163   c0.017,2.595-0.933,8.84,2.265,9.537c-4.358-0.492-9.471,0.402-9.75-5.176c-0.276-5.51-0.187-11.043-0.338-16.559   c-0.334-12.175-0.676-24.35-0.943-36.526c-0.557-25.367-1.248-50.732-1.854-76.098c-0.347-14.533-0.702-29.066-1.056-43.599   c-0.167-6.88-0.341-13.761-0.512-20.641C52.984,9.137,50.919,0.142,57.041,0.029" id="path263" style="fill-rule:evenodd;clip-rule:evenodd;fill:#7F7F7F;"></path>

	<path d="M57.041,0.029   c2.682,0.645,5.363,1.291,8.045,1.936c-2.451,3.376-0.97,11.403-0.943,15.182c0.043,6.078,0.098,12.155,0.13,18.232   c0.075,14.321,0.15,28.642,0.226,42.962c0.133,25.282,0.303,50.563,0.462,75.844c0.056,8.855,0.113,17.711,0.17,26.566   c0.045,7.055,0.09,14.109,0.136,21.163c0.017,2.595-0.933,8.84,2.265,9.537c-4.358-0.492-9.471,0.402-9.75-5.176   c-0.276-5.51-0.187-11.043-0.338-16.559c-0.334-12.175-0.676-24.35-0.943-36.526c-0.557-25.367-1.248-50.732-1.854-76.098   c-0.347-14.533-0.702-29.066-1.056-43.599c-0.167-6.88-0.341-13.761-0.512-20.641C52.984,9.137,50.919,0.142,57.041,0.029" id="path265" style="fill:none;stroke:#000000;stroke-width:0;stroke-linecap:square;stroke-miterlimit:10;"></path>

	<path d="M64.067,6.649c0.36,50.346,0.598,100.693,0.915,151.04   c0.082,12.93,0.166,25.859,0.249,38.789c0.026,4.066-0.679,9.295,0.416,13.294c1.006,3.674,10.96,0.956,13.671,0.73   c22.271-1.85,44.666-4.125,66.809-7.133c22.314-3.03,44.496-6.27,66.631-10.452c10.981-2.075,22.077-4.223,32.919-6.932   c5.083-1.271,10.244-2.236,15.303-3.609c4.729-1.284,7.177-1.522,7.282-6.874c0.962-48.796,0.192-97.714-0.036-146.518   c-0.019-3.97-0.037-7.941-0.056-11.911c-0.008-1.587,0.538-4.709-0.317-6.045c-1.838-2.87-9.015-2.258-12.12-2.546   c-10.541-0.978-21.116-1.662-31.684-2.364c-21.971-1.46-43.981-2.695-65.992-3.264c-16.583-0.429-33.17-0.833-49.751-1.309   C99.849,1.304,91.367,1.171,82.908,1.15c-4.006-0.01-8.009-0.146-12.017-0.102C66.483,1.097,63.781,1.528,64.067,6.649" id="path267" style="fill-rule:evenodd;clip-rule:evenodd;fill:#7F7F7F;"></path>

	<path d="M64.067,6.649   c0.36,50.346,0.598,100.693,0.915,151.04c0.082,12.93,0.166,25.859,0.249,38.789c0.026,4.066-0.679,9.295,0.416,13.294   c1.006,3.674,10.96,0.956,13.671,0.73c22.271-1.85,44.666-4.125,66.809-7.133c22.314-3.03,44.496-6.27,66.631-10.452   c10.981-2.075,22.077-4.223,32.919-6.932c5.083-1.271,10.244-2.236,15.303-3.609c4.729-1.284,7.177-1.522,7.282-6.874   c0.962-48.796,0.192-97.714-0.036-146.518c-0.019-3.97-0.037-7.941-0.056-11.911c-0.008-1.587,0.538-4.709-0.317-6.045   c-1.838-2.87-9.015-2.258-12.12-2.546c-10.541-0.978-21.116-1.662-31.684-2.364c-21.971-1.46-43.981-2.695-65.992-3.264   c-16.583-0.429-33.17-0.833-49.751-1.309C99.849,1.304,91.367,1.171,82.908,1.15c-4.006-0.01-8.009-0.146-12.017-0.102   C66.483,1.097,63.781,1.528,64.067,6.649" id="path269" style="fill:none;stroke:#000000;stroke-width:0;stroke-linecap:square;stroke-miterlimit:10;"></path>

	<path d="M69.16,19.685   c0.404,48.796,0.688,97.593,1.037,146.389c0.056,7.837,0.112,15.674,0.168,23.511c0.028,3.984-0.388,10.007,2.526,13.09   c3.9,4.127,9.695,3.268,14.896,2.717c5.079-0.539,10.182-0.996,15.275-1.405c22.127-1.774,44.221-4.263,66.207-7.3   c22.376-3.091,44.644-7.063,66.808-11.407c7.177-1.406,23.032-2.184,27.177-9.361c2.387-4.134,2.248-8.756,2.262-13.384   c0.024-8.239,0.049-16.479,0.073-24.717c0.068-23.401,0.036-46.802-0.024-70.203c-0.033-13.108-0.057-26.216-0.057-39.325   c0-5.213-0.637-10.031-4.703-13.646c-3.479-3.093-8.958-3.028-13.323-3.31c-44.584-2.871-89.243-4.759-133.92-5.601   c-8.584-0.162-17.178-0.204-25.765-0.204C77.436,5.529,69.903,8.132,69.16,19.685" id="path271" style="fill:none;stroke:#000000;stroke-width:0;stroke-linecap:square;stroke-miterlimit:10;"></path>

	<radialGradient cx="181.751" cy="102.5957" gradientUnits="userSpaceOnUse" id="XMLID_2_" r="171.091">
		<stop id="stop274" offset="0" style="stop-color:#FFFFFF"></stop>

		<stop id="stop276" offset="1" style="stop-color:#000000"></stop>

	</radialGradient>

	<path d="M176.603,22.129c-31.397,0-62.808,0-94.204,0   c0.656,53.895,1.312,107.791,1.967,161.686c0.011,0.865-0.563,5.066,0.07,5.741c1.111,1.185,10.703-0.55,12.484-0.627   c11.295-0.49,22.571-1.479,33.842-2.35c22.649-1.748,45.255-4.363,67.736-7.616c11.009-1.593,21.983-3.418,32.932-5.374   c5.398-0.964,10.795-2.05,16.163-3.176c2.354-0.494,10.616-0.938,12.11-2.753c0.73-0.887,0.085-4.955,0.081-6.148   c-0.021-5.685-0.041-11.369-0.061-17.053c-0.062-17.232-0.123-34.463-0.184-51.695c-0.06-16.625-0.118-33.25-0.177-49.875   c-0.018-4.926-0.035-9.853-0.053-14.779c-0.011-3.067,0.693-3.048-1.95-3.639c-4.411-0.986-9.82-0.345-14.35-0.525   c-5.647-0.225-11.297-0.431-16.946-0.606c-11.658-0.361-23.318-0.599-34.977-0.913C186.26,22.296,181.431,22.263,176.603,22.129" id="path278" style="fill-rule:evenodd;clip-rule:evenodd;fill:url(#XMLID_2_);"></path>

	<path d="M176.603,22.129   c-31.397,0-62.808,0-94.204,0c0.656,53.895,1.312,107.791,1.967,161.686c0.011,0.865-0.563,5.066,0.07,5.741   c1.111,1.185,10.703-0.55,12.484-0.627c11.295-0.49,22.571-1.479,33.842-2.35c22.649-1.748,45.255-4.363,67.736-7.616   c11.009-1.593,21.983-3.418,32.932-5.374c5.398-0.964,10.795-2.05,16.163-3.176c2.354-0.494,10.616-0.938,12.11-2.753   c0.73-0.887,0.085-4.955,0.081-6.148c-0.021-5.685-0.041-11.369-0.061-17.053c-0.062-17.232-0.123-34.463-0.184-51.695   c-0.06-16.625-0.118-33.25-0.177-49.875c-0.018-4.926-0.035-9.853-0.053-14.779c-0.011-3.067,0.693-3.048-1.95-3.639   c-4.411-0.986-9.82-0.345-14.35-0.525c-5.647-0.225-11.297-0.431-16.946-0.606c-11.658-0.361-23.318-0.599-34.977-0.913   C186.26,22.296,181.431,22.263,176.603,22.129" id="path280" style="fill:none;stroke:#000000;stroke-width:0;stroke-linecap:square;stroke-miterlimit:10;"></path>

	<path d="M259.299,24.573c-1.29-0.034-2.581-0.068-3.871-0.102   c0.072,25.423,0.145,50.846,0.218,76.269c0.047,16.443,0.094,32.886,0.141,49.33c0.013,4.682,0.026,9.363,0.04,14.045   c0.008,2.8,0.355,2.814-2.486,3.444c-43.227,9.575-87.575,15.558-131.733,18.738c-10.697,0.771-21.553,2.037-32.282,2.037   c-0.728,0-4.336-0.32-4.888,0.203c-1.458,1.384,4.239,0.829,4.481,0.815c5.092-0.288,10.185-0.548,15.277-0.815   c22.449-1.182,44.832-3.606,67.168-6.037c22.782-2.479,45.348-6.326,67.871-10.461c3.192-0.586,20.58-2.476,20.569-5.503   c-0.038-10.688-0.076-21.375-0.114-32.063C259.559,97.84,259.429,61.207,259.299,24.573" id="path282" style="fill-rule:evenodd;clip-rule:evenodd;"></path>

	<path d="M259.299,24.573   c-1.29-0.034-2.581-0.068-3.871-0.102c0.072,25.423,0.145,50.846,0.218,76.269c0.047,16.443,0.094,32.886,0.141,49.33   c0.013,4.682,0.026,9.363,0.04,14.045c0.008,2.8,0.355,2.814-2.486,3.444c-43.227,9.575-87.575,15.558-131.733,18.738   c-10.697,0.771-21.553,2.037-32.282,2.037c-0.728,0-4.336-0.32-4.888,0.203c-1.458,1.384,4.239,0.829,4.481,0.815   c5.092-0.288,10.185-0.548,15.277-0.815c22.449-1.182,44.832-3.606,67.168-6.037c22.782-2.479,45.348-6.326,67.871-10.461   c3.192-0.586,20.58-2.476,20.569-5.503c-0.038-10.688-0.076-21.375-0.114-32.063C259.559,97.84,259.429,61.207,259.299,24.573" id="path284" style="fill:#3F3F3F;stroke:#000707;stroke-width:0;stroke-linecap:square;stroke-miterlimit:10;"></path>

	<path d="M261.437,9.399c0.137-0.363,0.783-0.422,0-0.815C261.437,8.855,261.437,9.127,261.437,9.399" id="path286"></path>

	<path d="M182.205,4.205c26.42,1.355,52.912,2.579,79.231,5.194c-0.285-1.96-13.95-2.045-16.396-2.241   c-7.242-0.58-14.499-1.014-21.75-1.497c-7.256-0.483-14.514-0.919-21.773-1.333c-3.762-0.214-7.524-0.419-11.286-0.617   C188.6,3.625,181.513,2.853,182.205,4.205" id="path288"></path>

	<path d="M70.891,1.455c8.603,0.97,18.229,0.407,27.057,0.407c9.72,0,19.469,0.34,29.187,0.604   c18.355,0.497,36.737,0.748,55.071,1.739c0.052-1.522-10.489-1.275-12.41-1.376c-4.885-0.258-9.788-0.371-14.68-0.559   c-9.854-0.378-19.724-0.6-29.586-0.866c-10.045-0.271-20.114-0.56-30.163-0.56c-4.897,0-9.793-0.204-14.693-0.204   C78.724,0.641,69.83-0.076,70.891,1.455" id="path290" style="fill:#3F3F3F;"></path>

	<path d="M64.577,6.649c-0.206-1.378-0.221-3.787,1.171-4.583c0.964-0.551,5.143-0.322,5.143-1.018c0-1.249-4.716-0.149-5.551,0.306   c-1.778,0.969-1.722,3.493-1.781,5.296C63.898,6.649,64.238,6.649,64.577,6.649" id="path292"></path>

	<path d="M65.799,205.648c-0.327-50.748-0.658-101.496-0.924-152.244c-0.035-6.654-0.061-13.308-0.108-19.961   c-0.038-5.432-0.077-10.864-0.115-16.296c-0.012-1.699,0.972-10.736-1.093-10.498c0.357,50.346,0.596,100.693,0.913,151.04   c0.051,8.06,0.104,16.119,0.155,24.179c0.039,5.982,0.077,11.966,0.115,17.948C64.752,201.216,63.938,206.471,65.799,205.648" id="path294" style="fill:#3F3F3F;"></path>

	<path d="M67.021,210.943c-1.513-1.236-1.443-3.491-1.221-5.295c-0.34,0-0.679,0-1.019,0c0.054,2.116-0.142,4.999,2.037,6.109   C66.885,211.486,66.953,211.214,67.021,210.943" id="path296"></path>

	<path d="M66.817,211.757c0.254-0.37,0.922-0.275,0.203-0.814C66.953,211.214,66.885,211.486,66.817,211.757" id="path298"></path>

</g>


  
</svg>
