<?xml version="1.0" encoding="UTF-8" standalone="no"?>
<svg height="16" id="svg2" inkscape:version="0.41" sodipodi:docbase="/home/federico/Desktop/bandiere" sodipodi:docname="norway_state.svg" sodipodi:version="0.32" version="1.1" viewBox="0 0 27 16" width="27" xmlns="http://www.w3.org/2000/svg" xmlns:cc="http://web.resource.org/cc/" xmlns:dc="http://purl.org/dc/elements/1.1/" xmlns:inkscape="http://www.inkscape.org/namespaces/inkscape" xmlns:rdf="http://www.w3.org/1999/02/22-rdf-syntax-ns#" xmlns:sodipodi="http://inkscape.sourceforge.net/DTD/sodipodi-0.dtd" xmlns:svg="http://www.w3.org/2000/svg">
  <metadata>
    <rdf:RDF xmlns:cc="http://web.resource.org/cc/" xmlns:dc="http://purl.org/dc/elements/1.1/" xmlns:rdf="http://www.w3.org/1999/02/22-rdf-syntax-ns#">
      <cc:Work rdf:about="">
        <dc:title>Norwegian state flag</dc:title>
        <dc:description></dc:description>
        <dc:subject>
          <rdf:Bag>
            <rdf:li>flags</rdf:li>
            <rdf:li>norway</rdf:li>
            <rdf:li>europe</rdf:li>
            <rdf:li>signs_and_symbols</rdf:li>
          </rdf:Bag>
        </dc:subject>
        <dc:publisher>
          <cc:Agent rdf:about="http://www.openclipart.org/">
            <dc:title>Open Clip Art Library</dc:title>
          </cc:Agent>
        </dc:publisher>
        <dc:creator>
          <cc:Agent>
            <dc:title>Federico Zenith</dc:title>
          </cc:Agent>
        </dc:creator>
        <dc:rights>
          <cc:Agent>
            <dc:title>Federico Zenith</dc:title>
          </cc:Agent>
        </dc:rights>
        <dc:date>2005-08-11</dc:date>
        <dc:format>image/svg+xml</dc:format>
        <dc:type rdf:resource="http://purl.org/dc/dcmitype/StillImage"/>
        <cc:license rdf:resource="http://web.resource.org/cc/PublicDomain"/>
        <dc:language>en</dc:language>
      </cc:Work>
      <cc:License rdf:about="http://web.resource.org/cc/PublicDomain">
        <cc:permits rdf:resource="http://web.resource.org/cc/Reproduction"/>
        <cc:permits rdf:resource="http://web.resource.org/cc/Distribution"/>
        <cc:permits rdf:resource="http://web.resource.org/cc/DerivativeWorks"/>
      </cc:License>
    </rdf:RDF>
  </metadata>
  <defs id="defs13"/>
  <sodipodi:namedview bordercolor="#666666" borderopacity="1.0" id="base" inkscape:current-layer="svg2" inkscape:cx="13.500000" inkscape:cy="7.9999996" inkscape:pageopacity="0.0" inkscape:pageshadow="2" inkscape:window-height="541" inkscape:window-width="640" inkscape:window-x="632" inkscape:window-y="393" inkscape:zoom="20.296296" pagecolor="#ffffff"/>
  <path d="M 0 0 l 27 0 l -11 6 l 0 4 l 11 6 l -27 0 z" fill="#EF2B2D" id="path4"/>
  <path d="M 0 6 l 6 0 l 0 -6 l 4 0 l 0 6 l 6 0 l 11 2 l -11 2 l -6 0 l 0 6 l -4 0 l 0 -6 l -6 0 z" fill="white" id="path6"/>
  <path d="M 0 7 l 7 0 l 0 -7 l 2 0 l 0 7 l 12.5 0 l 5.5 1 l -5.5 1 l -12.5 0 l 0 7 l -2 0 l 0 -7 l -7 0 z" fill="#002868" id="path8"/>
  <path d="M 0 0 l 27 0 l -11 6 l 11 2 l -11 2 l 11 6 l -27 0 z" fill="none" id="path10" stroke="black" stroke-width="0.05"/>
</svg>
