<?xml version="1.0" encoding="UTF-8" standalone="no"?>
<!-- Generator: Adobe Illustrator 12.0.0, SVG Export Plug-In . SVG Version: 6.00 Build 51448)  --><svg height="246.839" id="Layer_1" inkscape:version="0.40+cvs" sodipodi:docbase="F:\openclip\svg2" sodipodi:docname="Gatto Nero.svg" sodipodi:version="0.32" style="overflow:visible;enable-background:new 0 0 229.798 246.839;" version="1.0" viewBox="0 0 229.798 246.839" width="229.798" xml:space="preserve" xmlns="http://www.w3.org/2000/svg" xmlns:cc="http://web.resource.org/cc/" xmlns:dc="http://purl.org/dc/elements/1.1/" xmlns:inkscape="http://www.inkscape.org/namespaces/inkscape" xmlns:rdf="http://www.w3.org/1999/02/22-rdf-syntax-ns#" xmlns:sodipodi="http://inkscape.sourceforge.net/DTD/sodipodi-0.dtd" xmlns:svg="http://www.w3.org/2000/svg" xmlns:xml="http://www.w3.org/XML/1998/namespace"><metadata><rdf:RDF xmlns:cc="http://web.resource.org/cc/" xmlns:dc="http://purl.org/dc/elements/1.1/" xmlns:rdf="http://www.w3.org/1999/02/22-rdf-syntax-ns#"><cc:Work rdf:about=""><dc:title>Gatto Nero</dc:title><dc:description></dc:description><dc:subject><rdf:Bag><rdf:li>mammal</rdf:li><rdf:li>cat</rdf:li></rdf:Bag></dc:subject><dc:publisher><cc:Agent rdf:about="http://www.openclipart.org"><dc:title>Architetto Francesco Rollandin</dc:title></cc:Agent></dc:publisher><dc:creator><cc:Agent><dc:title>Architetto Francesco Rollandin</dc:title></cc:Agent></dc:creator><dc:rights><cc:Agent><dc:title>Architetto Francesco Rollandin</dc:title></cc:Agent></dc:rights><dc:date></dc:date><dc:format>image/svg+xml</dc:format><dc:type rdf:resource="http://purl.org/dc/dcmitype/StillImage"/><cc:license rdf:resource="http://web.resource.org/cc/PublicDomain"/><dc:language>en</dc:language></cc:Work><cc:License rdf:about="http://web.resource.org/cc/PublicDomain"><cc:permits rdf:resource="http://web.resource.org/cc/Reproduction"/><cc:permits rdf:resource="http://web.resource.org/cc/Distribution"/><cc:permits rdf:resource="http://web.resource.org/cc/DerivativeWorks"/></cc:License></rdf:RDF></metadata>
<defs id="defs88"></defs>
<sodipodi:namedview bordercolor="#666666" borderopacity="1.0" id="base" inkscape:current-layer="Layer_1" inkscape:cx="114.89900" inkscape:cy="123.42050" inkscape:pageopacity="0.0" inkscape:pageshadow="2" inkscape:window-height="540" inkscape:window-width="640" inkscape:window-x="44" inkscape:window-y="44" inkscape:zoom="1.5313758" pagecolor="#ffffff"></sodipodi:namedview>

<path d="M165.499,235.424c-3.691,4.926-9.064,9.127-15.517,9.127c-2.961,0-5.592-1.742-8.251-2.883  c-2.705-1.161-5.847-1.786-8.683-2.592c10.967,0.785,20.313-7.705,23.514-17.841c3.565-11.293,4.694-22.057,4.068-33.878  c-2.361,0.175-1.304,3.169-1.223,5.106c0.127,3.032-0.039,6.081-0.172,9.11c-0.248,5.668-1.496,11.658-3.725,16.863  c-4.556,10.637-11.736,20.195-24.491,18.408c5.147-6.028,6.134-13.841,10.749-20.078c4.789-6.472,10.114-13.091,11.967-21.094  c-3.313,2.23-6.626,4.461-9.939,6.691c-0.209-3.367-0.405-6.931-0.405-10.344c-0.129-0.001-1.007,0.141-1.216,0.203  c0.516,3.209,1.442,8.821-1.48,11.162c-1.139,0.911-2.697,0.874-2.576,2.629c0.073,1.053,1.85,1.58,1.262,2.751  c-2.479,4.943-6.962-1.32-9.274,1.003c-1.775,1.784-0.507,9.711-0.507,12.674c2.569-0.608,5.138-1.216,7.707-1.824  c-1.25,3.332-2.294,7.013-4.063,10.103c-1.5,2.622-6.243,7.15-2.63,9.368c0.468,0.287,1.539,0.338,2.101,0.468  c2.384,0.553,4.667,1.231,6.951,2.109c3.835,1.475,7.389,3.002,11.426,3.868c8.699,1.866,16.284-5.201,20.547-11.893  c4.75-7.458,3.375-16.771,4.106-25.169c0.853-9.799,1.375-19.583,0.908-29.417c-1.179,0.597-2.307,1.353-3.447,1.926  c-2.112,1.062-1.102,3.682-1.015,5.982c0.201,5.352,0.097,10.674-0.202,16.023c-0.299,5.346-0.993,10.767-2.028,16.023  c-0.51,2.59-1.241,5.157-1.928,7.706C167.466,229.819,166.903,234.076,165.499,235.424" id="path3"></path>

<path d="M146.637,186.547c3.976-5.883-3.597-12.98-5.882-17.85c-3.234-6.892-5.109-13.014-11.156-18.049  c0,2.498,0.294,2.311,1.927,3.954c1.313,1.322,2.531,2.375,3.551,3.954c1.962,3.038,2.605,6.891,3.649,10.344  c-2.107-1.205-3.654-2.537-6.286-2.232c2.785,7.671,4.221,15.516,5.679,23.529c1.225-0.36,3.65-1.905,3.65-0.001  c0,0.782,0.165,1.487,0.406,2.231c1.594,0.037,0.925-1.297,1.216-2.637C143.805,187.888,144.838,187.1,146.637,186.547" id="path5"></path>

<path d="M 149.40409,144.63146 C 148.99209,141.13646 139.44309,143.36846 145.09409,139.14146 C 146.51009,138.08246 147.28309,134.62146 147.99409,133.03146 C 148.84809,131.12146 149.78509,129.26246 150.72109,127.39046 C 154.73309,119.37246 159.23909,111.63246 163.59209,103.79846 C 167.99309,95.876456 171.35109,87.466456 174.27809,78.908456 C 175.63009,74.958456 176.29909,70.667456 176.79209,66.529456 C 176.98109,64.939456 177.79809,62.486456 177.08909,61.070456 C 176.67409,60.242456 176.04409,59.729456 176.37909,58.840456 C 176.67209,59.095456 177.09709,59.197456 177.39409,59.448456 C 175.98009,43.216456 174.99509,27.889456 168.87409,12.597456 C 165.46209,18.741456 166.81009,26.002456 164.41209,32.473456 C 162.68309,31.561456 162.71709,29.008456 160.76209,28.417456 C 160.76209,33.487456 160.76209,38.558456 160.76209,43.628456 C 159.26609,42.061456 153.98509,28.288456 152.44809,29.431456 C 150.63909,25.816456 148.34609,22.443456 145.86409,19.256456 C 144.64209,17.688456 143.34909,16.194456 141.90109,14.827456 C 140.36209,13.374456 138.92209,11.210456 137.13209,12.743456 C 136.20409,13.537456 135.77309,14.582456 134.83909,13.648456 C 133.79809,12.606456 133.93709,12.613456 132.57009,13.003456 C 130.76909,13.517456 129.35209,15.847456 128.25009,17.172456 C 127.01709,18.654456 126.02209,20.359456 124.65309,21.731456 C 123.71509,22.671456 123.09009,22.062456 123.24009,21.318456 C 120.45409,24.798456 118.96409,28.885456 117.56209,33.081456 C 116.54809,32.202456 115.53409,31.324456 114.52009,30.445456 C 113.64109,33.284456 112.76309,36.123456 111.88409,38.962456 C 111.20809,38.489456 110.53209,38.016456 109.85609,37.544456 C 107.49509,43.953456 105.13409,50.362456 102.77309,56.771456 C 102.37109,57.862456 99.648089,56.542456 99.310089,56.000456 C 98.729092,55.069456 99.106089,52.989456 99.106089,51.943456 C 99.106089,49.404456 99.178089,45.381456 96.157092,47.996456 C 93.168092,50.582456 90.179092,53.169456 87.191092,55.755456 C 86.916092,55.993456 84.114092,54.817456 83.656092,54.686456 C 82.434092,54.338456 80.650092,54.348456 79.397092,54.528456 C 76.808092,54.900456 74.810092,55.651456 72.981092,53.745456 C 70.265092,50.913456 67.548092,48.082456 64.832092,45.250456 C 64.832092,49.643456 64.832092,54.035456 64.832092,58.427456 C 64.832092,60.369456 65.372092,60.827456 63.409092,60.974456 C 61.179092,61.141456 58.950092,61.308456 56.720092,61.475456 C 57.453092,63.195456 62.015092,62.286456 63.469092,62.286456 C 69.007092,62.286456 74.545092,62.286456 80.083092,62.286456 C 93.021092,62.286456 105.96009,62.286456 118.89909,62.286456 C 121.96709,62.286456 125.03709,62.286456 128.10509,62.286456 C 128.55209,62.286456 128.31209,72.489456 128.31209,73.423456 C 128.31209,74.646456 127.99609,87.031456 128.59709,87.031456 C 132.82509,87.031456 136.52909,88.667456 139.27809,91.880456 C 142.56709,95.723456 141.78209,100.54246 141.59609,105.18246 C 141.38709,110.43346 140.91109,115.69746 140.23309,120.90846 C 139.62509,125.58346 137.87909,130.70346 135.00409,134.48946 C 133.39709,136.60546 131.38209,138.15446 129.25809,139.68746 C 127.40409,141.02446 128.31209,144.49546 128.31209,146.65946 C 130.35209,144.24746 135.50209,144.64846 138.42709,145.17946 C 141.27709,145.69546 147.94209,148.30046 149.06809,151.30246 C 152.12009,159.44046 154.31109,167.77546 156.09909,176.27146 C 156.53609,178.34746 156.93309,180.35246 157.15509,182.46046 C 157.25509,183.39846 157.80509,188.34946 158.43109,187.72946 C 158.60309,187.55846 159.22009,187.62646 159.34309,187.42546 C 159.68109,186.87446 159.03409,184.65246 158.95909,183.97746 C 158.70609,181.70046 158.42109,179.45746 158.04409,177.19846 C 156.56309,168.32646 153.93409,159.84246 151.09609,151.32546 C 150.33909,149.05446 159.64709,151.19746 160.61109,151.92146 C 163.83209,154.34146 166.80109,157.02346 167.79909,161.01146 C 169.53209,167.94246 170.11009,175.45546 170.70209,182.55946 C 171.69209,182.28146 173.14409,181.56846 173.94609,180.93446 C 174.32809,180.63246 175.38309,180.34246 175.34409,179.85146 C 175.24009,178.49446 175.13509,177.13646 175.03109,175.77946 C 174.63609,170.62746 173.14209,165.84546 171.63209,160.94446 C 170.11209,156.01346 168.40109,152.22346 163.60309,149.70246 C 159.44809,147.51746 153.99209,145.51646 149.40409,144.63146 M 169.28009,88.651456 C 169.61809,88.651456 169.95709,88.651456 170.29509,88.651456 C 169.95709,89.665456 169.61809,90.680456 169.28009,91.694456 C 168.57709,90.885456 169.11909,89.700456 169.28009,88.651456 M 126.08109,55.595456 C 124.59609,55.076456 126.24709,52.193456 127.29809,52.553456 C 126.89209,53.567456 126.48609,54.581456 126.08109,55.595456" id="path7"></path>


<path d="M126.558,55.121c0.271,0.136,0.541,0.272,0.812,0.408c0.405-1.014,0.812-2.028,1.217-3.042  C127.439,52.093,127.033,54.172,126.558,55.121" id="path11"></path>

<path d="M128.788,236.236c-6.209-1.556-11.918,0.452-18.122-0.021  c-3.558-0.271-6.514-0.806-8.75-3.731c-2.238-2.928-3.79-6.109-5.296-9.459c-2.563-5.698-3.653-11.952-4.715-18.064  c-0.548-3.154-0.56-6.54-0.826-9.731c-0.175-2.095,0.921-5.305-1.435-5.438c0,9.436,0.178,18.408,2.308,27.645  c2.185,9.475,7.691,15.998,15.744,21.031c-5.277,2.93-14.187,4.695-19.013-0.371c-5.131-5.386-9.858-11.516-11.515-18.968  c-1.649-7.412-2.59-14.826-2.328-22.44c0.133-3.872,0.536-7.763,0.803-11.629c0.042-0.611-3.302-1.642-3.845-1.961  c0,3.695-0.406,7.38-0.406,11.054c0,4.442,1.014,8.916,1.014,13.461c0,7.985-0.271,17.885,5.077,24.465  c5.812,7.152,11.983,12.352,21.776,11.574c8.693-0.689,17.476-4.261,26.207-3.924c1.378,0.053,2.756,0.106,4.134,0.159  c0-1.42,0-2.84,0-4.26C129.348,236.05,128.999,236.036,128.788,236.236" id="path13" style="fill-rule:evenodd;clip-rule:evenodd;"></path>

<path d="M108.912,128.338c0.116-1.023-0.486-3.054,0.813-3.65c-0.993,0.597-1.479,3.576,0,4.258  c1.694-5.645,1.913-10.766,1.42-16.427c0.033,0.625,0.331,1.226,0.608,1.623c0-1.014,0-2.028,0-3.042  c0.142,0.361,0.439,0.663,0.608,1.014c1.752-7.022,0.753-19.279,8.188-23.285c0.663-0.358,9.051-2.818,9.051-1.899  c0-5.067,0-10.133,0-15.2c0-1.134,0.595-9.509-0.46-9.509c-3.388,0-6.775,0-10.164,0c-13.057,0-26.113,0-39.169,0  c-7.064,0-14.128,0-21.192,0c1.607,1.768,2.736,2.817-0.203,3.551c-1.331,0.332-2.848-0.006-4.055,0.709  c0.738,1.297,4.53,3.493,4.056,5.071c-0.187,0.623-2.891,1.939-3.448,2.028c7.637,7.011,15.274,14.022,22.911,21.033  c1.135,1.042,1.392,1.809,2.884,1.382c2.029-0.581,4.151-1.453,6.25-1.728c5.052-0.661,5.868,2.85,7.301,6.896  c2.982,8.424,4.864,17.173,3.314,26.08c-0.74,4.251-2.4,8.687-5.254,12.015c-1.544,1.802-2.612,3.646-4.873,4.402  c-1.647,0.552-3.646,1.991-4.967,3.124c-2.52,2.159-4.689,4.885-6.067,7.921c7.222-5.211,14.444-10.421,21.667-15.632  c3.308-2.387,6.616-4.773,9.923-7.159C109.139,131.128,108.912,129.626,108.912,128.338 M123.921,69.927  c1.243,0.819-1.724,4.291-2.434,5.475C120.243,74.584,123.211,71.111,123.921,69.927 M72.204,74.998  c-1.487-1.352-2.975-2.705-4.462-4.057c0.836-0.474,2.032-1.624,3.042-1.624C73.349,69.317,72.204,72.801,72.204,74.998   M74.231,69.317c1.452,0.836,3.009,2.331,3.549,3.956c0.955,2.872-2.036,2.029-4.563,2.333  C73.555,73.51,73.894,71.414,74.231,69.317 M77.68,78.648c1.383,0,8.288-0.783,5.17,2.332C80.803,83.026,77.816,81.231,77.68,78.648   M89.037,76.416c-1.227-0.66-2.466-1.294-3.65-2.028c1.501,1.555,3.515-2.331,4.462-3.446  C89.578,72.766,89.307,74.591,89.037,76.416 M93.499,74.998c-2.546,0.766-1.622-2.361-1.622-3.976c0-1.915,1.987-1.095,3.65-1.095  C94.743,71.448,93.723,73.245,93.499,74.998" id="path15"></path>

<path d="M78.288,160.18c3.419-3.847,6.316-9.688,10.627-12.562c2.452-1.633,4.949-3.412,8.032-3.259  c2.852,0.142,5.076,2.312,7.707,3.246c-9.281,4.638-11.423,12.63-12.948,22.3c-0.635,4.026-1.858,8.762-1.858,12.788  c0,2.097-1.383,7.517,1.216,7.504c0.603-12.13,2.897-23.52,6.934-34.96c1.057-2.994,2.354-5.399,5.945-5.399  c2.618,0,5.526,0.978,7.718,2.441c1.564,1.044,1.952,0.996,1.915,2.83c-0.026,1.317-1.008,3.004-1.418,4.258  c-0.818,2.503-1.625,5.271-1.014,7.912c2.287-4.309,2.958-9.171,5.146-13.539c2.74-5.474,9.313-2.523,13.309-0.658  c0-1.859,0.089-1.931-0.912-2.941c-0.258-0.261-2.12-0.525-1.419-1.216c0.683-0.673,1.404-1.411,2.128-2.131  c0.938-0.934,0.203-5.127,0.203-6.491c-0.497,0.325-1.119,0.438-1.621,0.813c-2.683-3.61-4.082-8.158-6.085-12.17  c-1.505,3.56-4.488,4.525-7.706,6.086c-1.343,0.651-2.786,1.355-3.405,2.802c-0.809,1.89,1.335,1.563,2.694,2.47  c3.68,2.457,0.096,4.896-3.145,4.057c-3.439-0.89-5.883-4.149-9.734-3.244c2.681-3.255,6.824-4.938,7.908-9.531  c-5.679,4.098-11.358,8.194-17.037,12.292c-3.62,2.611-7.239,5.223-10.859,7.834c-2.003,1.445-3.858,2.297-4.806,4.571  c-2.372,5.696-3.192,11.978-3.601,18.096c-0.078,1.163-1.2,8.32-0.203,8.823c1.237,0.625,2.393,1.134,3.651,1.722  C76.285,176.661,77.532,168.442,78.288,160.18 M120.271,134.016c0.361,3.446,6.096,8.475,2.229,11.357  c-1.383-2.932-2.098-6.009-5.07-7.908c-0.181,2.936,1.997,5.308,2.535,8.012c0.269,1.347,0.963,2.736-0.708,2.736  c-1.826,0-3.651,0-5.477,0c4.224-1.759,4.078-3.695,2.636-7.707C114.86,136.175,115.857,134.966,120.271,134.016" id="path17"></path>


<path d="M108.71,209.26c0.235-5.29-0.399-10.291,0.406-15.615c-2.7-0.757-1.984,1.349-2.232,3.65  c-0.363,3.377-0.803,6.35-0.202,9.734c-2.283-1.095-3.588-3.709-6.084-4.258c1.007,6.385,2.556,12.728,5.678,18.455  c1.248,2.288,11.229,15.92,13.995,12.982c-2.264-1.511-4.211-3.119-6.269-4.881c-1.418-1.213-4.549-5.52-3.569-7.492  c0.77-1.551,0.725-5.336,3.348-4.867c2.099,0.375,1.013,6.715,1.013,8.721c4.777-1.048,9.554-2.095,14.332-3.143  c1.328-0.291,0.474-10.687,0.474-12.475C123.579,212.267,113.495,215.608,108.71,209.26" id="path21"></path>

<path d="M109.521,167.887c-1.256,6.305-7.604,9.928-9.431,16.021c-0.468,1.561-1.185,3.161,0.696,3.396  c1.465,0.184,2.814,0.264,4.07,1.068c2.07,1.325,1.507,5.525,3.65,5.07c1.218-0.259,1.729-5.83,2.232-7.709  c0.904-3.369,2.172-6.571,3.726-9.686c0.775-1.555,4.281-6.648,3.176-7.747C115.624,166.295,111.962,167.655,109.521,167.887   M105.262,185.33c-0.203-0.068-0.405-0.137-0.607-0.205c0.473-1.014,0.946-2.027,1.419-3.041  C107.226,182.759,105.758,184.338,105.262,185.33" id="path23"></path>

<path d="M67.539,70.739c1.555,1.419,3.11,2.839,4.665,4.259  c0-2.197,1.146-5.681-1.42-5.681C69.527,69.317,68.627,70.869,67.539,70.739" id="path25" style="fill-rule:evenodd;clip-rule:evenodd;fill:#FFFFFF;"></path>

<path d="M74.027,69.317c-0.27,2.096-0.54,4.192-0.81,6.289  c2.528-0.303,5.518,0.539,4.563-2.333C77.25,71.678,75.581,69.871,74.027,69.317" id="path27" style="fill-rule:evenodd;clip-rule:evenodd;fill:#FFFFFF;"></path>

<path d="M91.877,74.998c2.101,0.571,2.805-3.431,3.65-5.071  c-0.497,0-3.65-0.16-3.65,0.142C91.877,71.712,91.877,73.355,91.877,74.998" id="path29" style="fill-rule:evenodd;clip-rule:evenodd;fill:#FFFFFF;"></path>

<path d="M86.196,74.998c0.274,0.22-0.526-0.475-0.81-0.61  C85.67,74.523,86.471,75.218,86.196,74.998" id="path31" style="fill-rule:evenodd;clip-rule:evenodd;fill:#FFFFFF;"></path>

<path d="M88.834,76.416c0.338-1.825,0.676-3.65,1.014-5.475c-1.149,1.352-2.299,2.705-3.448,4.057  C87.111,75.38,88.738,76.291,88.834,76.416" id="path33" style="fill:#FFFFFF;"></path>

<path d="M77.68,78.444c0.042,2.648,3.021,4.684,5.17,2.536  C86.111,77.722,78.569,78.858,77.68,78.444" id="path35" style="fill-rule:evenodd;clip-rule:evenodd;fill:#FFFFFF;"></path>

<path d="M117.229,137.465c3.196,1.374,3.967,5.143,5.272,7.908  c3.866-2.883-1.868-7.911-2.229-11.357c-4.414,0.95-5.411,2.159-3.854,6.49c1.442,4.012,1.588,5.948-2.636,7.707  c1.825,0,3.651,0,5.477,0c1.671,0,0.977-1.39,0.708-2.736C119.486,143.066,117.989,139.531,117.229,137.465" id="path37" style="fill-rule:evenodd;clip-rule:evenodd;fill:#FFFFFF;"></path>

<path d="M88.834,238.264c6.268,3.76,12.483,3.744,18.862,0.203  c-4.715-2.947-9.501-6.229-11.995-11.438c-2.712-5.665-4.41-11.32-5.3-17.546c-0.852-5.961-0.757-11.918-0.757-17.925  c0-1.891,0.023-1.757-1.788-2.277c-1.443-0.416-2.828-1.014-4.259-1.421c-2.72-0.774-5.202-2.287-7.946-2.938  c-0.677,9.803-1.375,19.463,0.404,29.207C77.746,223.386,82.49,232.56,88.834,238.264" id="path39" style="fill-rule:evenodd;clip-rule:evenodd;fill:#FFFFFF;"></path>

<path d="M104.654,147.4c-2.806-0.314-4.797-2.896-7.707-3.041  c-2.871-0.143-6.46,1.594-8.485,3.618c-2.1,2.099-3.892,4.386-5.712,6.726c-1.924,2.473-4.392,4.568-4.666,7.707  c-0.551,6.322-1.124,12.682-2.087,18.95c-0.242,1.571-1.004,3.371,0.706,3.864c1.412,0.406,2.642,1.219,4.057,1.622  c2.99,0.852,5.873,2.09,8.886,2.944c0-7.635,1.323-15.196,2.516-22.763c0.669-4.242,1.857-8.054,3.683-11.929  c0.881-1.872,2.504-3.392,4.042-4.711C101.267,149.204,103.62,148.623,104.654,147.4" id="path41" style="fill-rule:evenodd;clip-rule:evenodd;fill:#FFFFFF;"></path>

<path d="M143.594,202.162c3.381-2.163,6.761-4.325,10.142-6.488c-1.782,7.698-6.886,14.879-11.832,20.929  c-2.382,2.913-3.521,6.636-4.8,10.101c-1.402,3.803-3.476,7.088-6.084,10.143c25.229,3.534,28.923-31.61,28.19-49.084  c-4.355,1.84-9.188,2.815-13.776,3.952c-1.571,0.39-1.622-0.082-2.043,1.321c-0.254,0.845,0.122,2.368,0.203,3.246  C143.747,197.93,144.436,201.358,143.594,202.162" id="path43" style="fill:#FFFFFF;"></path>

<path d="M145.623,176.406c1.419,2.097,2.964,7.103,1.419,9.529  c-0.617,0.969-2.172,1.359-3.042,2.233c-0.884,0.888-0.608,2.714-0.608,3.853c4.437-0.366,8.73-2.286,12.995-3.349  c3.257-0.812,2.762-1.308,2.25-4.551c-0.356-2.254-0.523-4.462-0.994-6.699c-1.734-8.259-3.648-16.485-6.617-24.402  c-1.401-3.736-6.051-6.561-9.864-7.647c-2.786-0.794-9.194-1.562-11.155,1.014c-2.777,3.648,2.662,6.433,4.478,9.152  c2.417,3.62,4.052,7.605,5.664,11.637c0.683,1.707,1.537,3.3,2.448,4.896C143.236,173.194,145.551,176.183,145.623,176.406" id="path45" style="fill-rule:evenodd;clip-rule:evenodd;fill:#FFFFFF;"></path>

<path d="M127.37,149.43c0.757,0.466,1.491,0.835,2.229,1.219c0-1.353,0-2.704,0-4.057  C128.848,147.34,126.712,149.033,127.37,149.43" id="path47" style="fill:#FFFFFF;"></path>

<path d="M130.005,194.254c-1.513,0.551-0.406,13.494-0.406,15.818c1.503-1.572,4.141,0.675,6.086,0.813  c2.597,0.185,4.968-2.125,2.839-4.26c-1.85-1.854,2.464-3.171,3.245-4.463c1.527-2.525,0.952-6.984,0.406-9.734  c-3.824,0.64-8.293,1.668-12.17,1.42C130.17,194.16,130.006,194.246,130.005,194.254" id="path49" style="fill:#FFFFFF;"></path>

<path d="M138.119,189.992c-1.589-7.93-2.91-15.7-5.679-23.324  c2.632-0.305,4.179,1.027,6.286,2.232c-2.05-6.78-3.333-11.49-9.127-15.818c0,11.627,0,23.255,0,34.882  c0,0.891,0.122,5.884,0.722,5.884c3.881,0,8.027-0.779,11.854-1.42c-0.241-0.744-0.406-1.449-0.406-2.231  C141.769,188.118,139.099,190.266,138.119,189.992" id="path51" style="fill-rule:evenodd;clip-rule:evenodd;fill:#FFFFFF;"></path>

<path d="M137.104,220.619c-2.487,0.604-7.505,0.409-7.505,3.303c0,3.901,0,7.804,0,11.705  c2.088-2.503,3.429-4.824,4.868-7.706C135.317,226.219,137.38,222.114,137.104,220.619" id="path53" style="fill:#FFFFFF;"></path>

<path d="M119.459,195.063c0.142-1.52-4.428-0.846-5.78-1.114  c-1.231-0.244-2.804-0.304-4.057-0.304c-0.955,0-0.84,2.536-0.966,3.41c-0.408,2.834-0.151,5.707-0.151,8.541  c0,0.747-0.131,3.247,0.204,3.869c0.473,0.878,2.7,1.793,3.568,2.275c4.592,2.551,10.769,0.72,15.323-0.94  c1.193-0.435,1.998-0.28,1.998-1.547c0-1.688,0-3.377,0-5.064c0-3.312,0-6.623,0-9.935  C126.848,194.529,121.721,195.94,119.459,195.063" id="path55" style="fill-rule:evenodd;clip-rule:evenodd;fill:#FFFFFF;"></path>

<path d="M114.591,216.969c-4.429-0.568-4.451,5.77-3.289,8.48  c1.678,3.914,5.547,6.478,8.969,8.76c-2.816,2.99-12.529-10.637-13.883-12.803c-3.417-5.467-4.803-12.375-5.791-18.635  c2.496,0.549,3.801,3.163,6.084,4.258c-0.407-2.291-0.452-4.385-0.204-6.691c0.128-1.192,1.491-5.914,0.61-6.895  c-0.947-1.054-6.603-1.112-8.113-1.422c-2.653-0.544-5.277-1.164-7.91-1.824c0,14.276,1.905,30.583,10.851,42.287  c4.811,6.294,14.252,2.939,20.946,2.939c1.696,0,6.737,1.818,6.737-0.363c0-4.206,0-8.411,0-12.617  c-4.935,1.082-9.87,2.164-14.805,3.246C114.794,223.189,115.57,219.181,114.591,216.969" id="path57" style="fill-rule:evenodd;clip-rule:evenodd;fill:#FFFFFF;"></path>

<path d="M99.583,187.154c0.446-4.931,3.081-8.159,6.028-11.952c1.5-1.93,3.099-3.933,3.809-6.301  c0.521-1.736,4.121-1.622,5.881-1.622c1.027,0,2.023,0.707,2.731,1.411c0.467,0.465-0.778,2.051-1.112,2.622  c-1.307,2.238-2.468,4.561-3.545,6.92c-2.212,4.842-3.455,10.173-4.258,15.412c1.948-0.121,4.139,0.22,6.084,0.404  c2.05,0.195,3.896,0.889,4.567-1.126c1.237-3.715,3.768-6.445,5.574-9.825c2.042,2.122,3.022,4.491,4.258,7.1  c0-12.339,0-24.679,0-37.018c0-1.08-5.134-2.26-5.983-2.43c-2.86-0.572-5.114,0.232-6.936,2.421  c-3.207,3.851-3.216,9.739-5.535,14.108c-0.711-3.072,0.445-6.433,1.418-9.328c0.299-0.889,1.898-3.81,0.902-4.472  c-1.472-0.978-2.887-1.904-4.551-2.527c-3.101-1.161-6.852-2.074-9.33,0.811c-2.164,2.519-2.968,7.38-4.019,10.534  c-2.227,6.684-3.236,13.78-3.972,20.756c-0.207,1.96-0.366,3.893-0.463,5.861c-0.106,2.123,2.523,1.929,4.383,2.396  c3.724,0.936,7.751,1.815,11.576,2.133C107.558,188.511,103.47,187.612,99.583,187.154" id="path59" style="fill:#FFFFFF;"></path>

<path d="M154.953,225.486c-5.084,7.988-11.944,14.303-21.904,13.59  c3.251,0.924,6.613,1.756,9.734,3.043c3.736,1.54,6.152,2.821,10.314,2.071c3.669-0.661,6.78-2.907,9.511-5.3  c3.038-2.662,4-5.884,5.021-9.676c4.17-15.481,4.948-30.768,4.359-46.725c-3.273,1.759-6.948,3.397-10.456,4.566  c-1.718,0.572-0.673,4.61-0.575,6.368c0.125,2.271-0.083,4.538-0.203,6.808c-0.246,4.653-0.955,9.176-1.913,13.73  C158.246,216.793,156.561,223.898,154.953,225.486" id="path61" style="fill-rule:evenodd;clip-rule:evenodd;fill:#FFFFFF;"></path>

<path d="M168.541,158.762c-2.712-3.861-5.714-6.907-10.262-8.424c-0.757-0.253-6.322-0.361-5.896,0.919  c0.784,2.353,1.761,4.71,2.423,7.098c2.68,9.659,4.715,19.031,5.824,29.003c2.702-0.901,5.309-2.065,7.91-3.244  c0.609-0.276,3.479-1.262,3.427-1.876c-0.128-1.543-0.171-3.139-0.426-4.666C170.493,171.294,170.091,164.963,168.541,158.762" id="path63" style="fill:#FFFFFF;"></path>

<path d="M104.654,185.125c1.071,0.369,2.5-2.408,1.419-3.041  C105.601,183.098,105.127,184.111,104.654,185.125" id="path65" style="fill-rule:evenodd;clip-rule:evenodd;fill:#FFFFFF;"></path>

<path d="M129.397,194.254c0.271,0,0.54,0,0.811,0  c-0.095-0.151-0.128-0.274-0.202-0.406C129.428,193.919,129.793,194.087,129.397,194.254" id="path67" style="fill-rule:evenodd;clip-rule:evenodd;"></path>

<path d="M130.005,193.848c0.08-1.121-0.406-3.074-0.406-3.448C129.599,191.531,129.227,193.383,130.005,193.848" id="path69"></path>

<path d="M121.286,194.254c-1.009-0.13-2.11-0.257-1.826,1.014  c3.38-0.338,6.76-0.676,10.14-1.014c0-0.136,0-0.271,0-0.406C127.089,194.566,123.904,194.254,121.286,194.254" id="path71" style="fill-rule:evenodd;clip-rule:evenodd;"></path>

<path d="M119.459,194.049c0.997,0.354,2.315,0.205,3.447,0.205  c1.39,0,4.704,0.41,5.881-0.205c3.373-1.766-1.606-9.039-3.446-10.951C123.37,186.787,120.333,190.502,119.459,194.049" id="path73" style="fill-rule:evenodd;clip-rule:evenodd;"></path>

<path d="M66.119,111.303c-6.098-4.065-12.679-7.161-19.774-9.028  c-3.108-0.817-17.428-3.526-17.746,1.726c-0.172,2.85,4.537,2.991,6.718,3.68c2.397,0.757,4.795,1.514,7.192,2.271  c2.226,0.703,1.698,0.045,3.735-1.085C52.216,105.551,60.322,109.311,66.119,111.303" id="path75" style="fill-rule:evenodd;clip-rule:evenodd;fill:#3F3F3F;"></path>

<path d="M0,144.768c0.244,0.322,0.696,0.557,1.014,0.811c1.588-3.913,3.026-7.453,5.477-10.951  c1.125-1.606,2.555-3.713,4.766-2.232c1.447,0.968,2.644,2.886,3.346,4.463c-0.411-4.11,0.472-6.104,1.725-9.838  c0.374-1.113-1.654-4.586-2.13-5.78c-0.775-1.944-1.606-3.869-2.23-5.88c-3.679,4.045-5.62,8.564-7.099,13.789  c-0.826,2.916-1.414,5.867-2.374,8.746C1.824,139.907,1.329,143.303,0,144.768" id="path77" style="fill:#3F3F3F;"></path>

<path d="M19.877,123.875c5.667-0.244,8.041,3.67,11.763,7.1c1.947-3.083-4.253-5.526-1.428-9.066  c1.148-1.438,4.872,5.61,5.281,6.43c1.521-0.657,0.948-1.912,0.406-3.042c-0.889-1.856-1.922-2.665-1.318-5.07  c0.517-2.064,1.054-4.463,3.651-4.463c2.61,0,4.839,1.948,7.199,2.841c-2.056-2.135-3.942-5.746-1.216-8.113  c-5.138-1.623-10.276-3.246-15.415-4.869c-0.004,1.76,3.231,4.616,1.243,5.702c-3.433,1.874-5.344-0.949-6.516-3.875  c-0.526,1.267,1.629,4.801,0,5.475c-1.547,0.64-3.767-3.386-4.868-4.057c-0.131,3.481,3.78,5.769,3.054,8.678  c-1.468,5.886-3.907-3.469-6.298-4.011c-1.508-0.342-3.643,1.244-3.147,2.727c1.192,3.572,2.869,6.932,4.162,10.456  C17.437,125.844,19.343,124.368,19.877,123.875" id="path79" style="fill:#3F3F3F;"></path>

<path d="M57.802,12.124c-1.96-2.096-3.92-4.191-5.88-6.287  c0.41,1.364,2.048,4.756,1.014,6.084c-1.848,2.373-2.932-2.667-4.36-3.144c-3.734-1.245,1.395,4.719,1.723,5.374  c2.097,4.191-3.154,2.789-5.13,1.209c-0.962-0.77-1.778-1.743-2.84-2.381c-1.956-1.174-2.014-0.749-2.868,1.247  c-1.298,3.033-1.91,5.956-2.127,9.231c-0.392,5.889,0.391,11.96,0.391,17.873c2.104-3.111,0.595-6.841,1.72-10.233  c1.635-4.934,6.781,0.128,8.421,2.323c-0.905-2.683-1.947-10.786,2.396-11.41c4.541-0.653,8.527,5.074,10.787,8.368  c-0.694-1.587-4.951-8.033-0.608-7.911c2.911,0.082,2.933,5.513,5.88,5.882c-1.794-2.802-3.722-7.461-3.042-10.751  c1.054-5.106,5.186-2.978,7.707-0.202c-0.43-1.658-2.142-4.896-0.705-6.046c2.12-1.696,4.23-2.05,6.878-1.521  c4.383,0.876,7.991,4.031,12.485,4.931C82.854,10.395,76.567,5.97,69.126,2.716c-2.814-1.231-9.305-5.004-10.512-0.733  C57.737,5.086,61.07,9.829,57.802,12.124" id="path81" style="fill-rule:evenodd;clip-rule:evenodd;fill:#3F3F3F;"></path>

<path d="M227.153,133.203c-2.003,0.355-5.427,3.265-6.894,4.668c-1.163,1.113-2.039,3.297-2.841,4.664  c4.269,0.367,3.746,8.2,2.636,10.951c1.661-2.141,5.962-6.549,7.911-2.432c1.473,3.11-0.587,7.204,1.826,9.938  C229.099,151.364,231.371,142.336,227.153,133.203" id="path83" style="fill:#3F3F3F;"></path>

<path d="M217.216,137.262c-0.233-2.508,2.077-3.146,3.041-5.069  c0.53-1.058,0.912-2.373-0.606-2.231c-1.097,0.103-1.111,1.155-1.624,1.826c-1.14,1.49-2.065,2.909-2.94,0.304  c-0.401-1.194,0.688-3.596,1.116-4.767c-1.893,2.028-3.786,4.056-5.679,6.084c-2.325-2.224-0.609-6.048-0.609-8.833  c0-5.184-6.332-1.897-9.126-0.698c-7.315,3.141-13.925,7.194-20.282,11.965c4.276-0.862,7.646-3.8,11.846-4.729  c2.012-0.445,4.139-0.346,5.834,0.971c1.998,1.552,0.378,3.91-0.237,6.192c2.337-2.462,6.571-4.718,7.505,0.203  c0.738,3.889-1.799,6.571-2.84,10.141c2.693-0.394,2.734-4.791,5.07-5.375c4.519-1.131,0.334,6.164-0.203,7.404  c2.497-2.384,4.148-6.458,7.616-7.61c2.04-0.679,1.99-0.784,3.337-2.125c0.685-0.681,1.4-2.136,1.825-3.042  C219.17,138.295,218.13,137.933,217.216,137.262" id="path85" style="fill-rule:evenodd;clip-rule:evenodd;fill:#3F3F3F;"></path>


  
</svg>
