<?xml version="1.0" encoding="UTF-8" standalone="no"?>
<!-- Created with Inkscape (http://www.inkscape.org/) --><svg height="209.76378pt" id="svg1503" inkscape:version="0.40+cvs" sodipodi:docbase="D:\" sodipodi:docname="collant11.svg" sodipodi:version="0.32" width="147.40157pt" xmlns="http://www.w3.org/2000/svg" xmlns:cc="http://web.resource.org/cc/" xmlns:dc="http://purl.org/dc/elements/1.1/" xmlns:inkscape="http://www.inkscape.org/namespaces/inkscape" xmlns:rdf="http://www.w3.org/1999/02/22-rdf-syntax-ns#" xmlns:sodipodi="http://inkscape.sourceforge.net/DTD/sodipodi-0.dtd" xmlns:svg="http://www.w3.org/2000/svg">
  <metadata>
    <rdf:RDF xmlns:cc="http://web.resource.org/cc/" xmlns:dc="http://purl.org/dc/elements/1.1/" xmlns:rdf="http://www.w3.org/1999/02/22-rdf-syntax-ns#">
      <cc:Work rdf:about="">
        <dc:title>pantyhose11</dc:title>
        <dc:description>Simbolo delle scatole di collant.
Shape package pantyhose.</dc:description>
        <dc:subject>
          <rdf:Bag>
            <rdf:li>symbol</rdf:li>
            <rdf:li>reinforcedtoe</rdf:li>
            <rdf:li>collantpuntarinforzata</rdf:li>
          </rdf:Bag>
        </dc:subject>
        <dc:publisher>
          <cc:Agent rdf:about="http://www.openclipart.org/">
            <dc:title>Open Clip Art Library</dc:title>
          </cc:Agent>
        </dc:publisher>
        <dc:creator>
          <cc:Agent>
            <dc:title>Rollandin Francesco</dc:title>
          </cc:Agent>
        </dc:creator>
        <dc:rights>
          <cc:Agent>
            <dc:title>Rollandin Francesco</dc:title>
          </cc:Agent>
        </dc:rights>
        <dc:date>19/04/2005</dc:date>
        <dc:format>image/svg+xml</dc:format>
        <dc:type rdf:resource="http://purl.org/dc/dcmitype/StillImage"/>
        <cc:license rdf:resource="http://web.resource.org/cc/PublicDomain"/>
        <dc:language>en</dc:language>
      </cc:Work>
      <cc:License rdf:about="http://web.resource.org/cc/PublicDomain">
        <cc:permits rdf:resource="http://web.resource.org/cc/Reproduction"/>
        <cc:permits rdf:resource="http://web.resource.org/cc/Distribution"/>
        <cc:permits rdf:resource="http://web.resource.org/cc/DerivativeWorks"/>
      </cc:License>
    </rdf:RDF>
  </metadata>
  <defs id="defs3"/>
  <sodipodi:namedview bordercolor="#666666" borderopacity="1.0" id="base" inkscape:current-layer="layer2" inkscape:cx="91.709347" inkscape:cy="174.60252" inkscape:document-units="px" inkscape:pageopacity="0.0" inkscape:pageshadow="2" inkscape:window-height="719" inkscape:window-width="1024" inkscape:window-x="-4" inkscape:window-y="-4" inkscape:zoom="3.5341933" pagecolor="#ffffff"/>
  <g id="layer2" inkscape:groupmode="layer" inkscape:label="2">
    <path d="M 32.892342,12.947180 L 150.52635,12.947180 C 159.37835,12.947180 166.50535,20.074180 166.50535,28.927180 L 166.50535,146.56018 C 166.50535,155.41418 159.37835,162.54018 150.52635,162.54018 L 32.892342,162.54018 C 24.039342,162.54018 16.913342,155.41318 16.913342,146.56018 L 16.913342,28.928180 C 16.913342,20.075180 24.040342,12.947180 32.892342,12.947180 L 32.892342,12.947180 z " id="path1440" stroke-miterlimit="10" style="fill-opacity:1.0000000;fill:#ffffff;stroke:#000000;stroke-width:3.2000000"/>
    <path d="M 32.046891,13.245393 C 32.046891,13.245393 50.056714,52.178393 35.489945,73.366420 C 24.101381,91.376243 36.019646,110.18061 45.554258,110.97516 C 59.061626,113.35882 83.163007,114.41822 91.903068,126.60134 C 100.64313,138.78445 106.46984,144.61116 110.70744,146.20026 C 114.94505,147.78937 131.36577,145.14086 142.48948,147.78937 C 152.81864,149.90817 156.26170,133.75230 150.17014,132.16320 C 144.07858,130.57409 139.31128,131.36864 133.48457,126.60134 C 127.65786,121.83403 114.68020,108.85636 106.20499,88.992590 C 101.17283,76.014923 90.313966,64.361508 87.665463,58.269951 C 81.044204,45.557134 78.660551,40.524978 76.541748,28.606713 C 74.422945,16.688447 75.217496,13.245393 75.217496,13.245393 L 32.046891,13.245393 z " id="path5800" sodipodi:nodetypes="ccccccccccccc" style="stroke-miterlimit:4.0000000;stroke-dasharray:none;stroke-opacity:1.0000000;stroke-linejoin:miter;stroke-linecap:butt;stroke-width:2.0000000;stroke:none;fill-rule:evenodd;fill-opacity:1.0000000;fill:none"/>
    <path d="M 32.062500 13.250000 C 32.062501 13.250000 50.066769 52.186973 35.500000 73.375000 C 24.111437 91.384826 36.027888 110.17420 45.562500 110.96875 C 59.069870 113.35241 83.166189 114.41063 91.906250 126.59375 C 100.64631 138.77686 106.48115 144.59840 110.71875 146.18750 C 113.36549 147.18004 120.82570 146.61555 128.71875 146.62500 C 128.95959 146.18630 129.24279 145.79567 129.46875 145.34375 C 130.17847 143.92432 130.83517 142.42728 131.40625 140.93750 C 132.54842 137.95793 133.43162 134.93347 134.09375 132.21875 C 134.74089 129.56546 134.68637 129.24366 134.96875 127.53125 C 134.47164 127.19292 134.01184 127.01253 133.50000 126.59375 C 127.67329 121.82644 114.69396 108.86377 106.21875 89.000000 C 101.18659 76.022331 90.304753 64.372807 87.656250 58.281250 C 81.034988 45.568433 78.650053 40.512015 76.531250 28.593750 C 74.412447 16.675485 75.218750 13.250000 75.218750 13.250000 L 32.062500 13.250000 z " id="path8076" style="stroke-miterlimit:4.0000000;stroke-dasharray:none;stroke-opacity:1.0000000;stroke-linejoin:miter;stroke-linecap:butt;stroke-width:2.0000000;stroke:none;fill-rule:evenodd;fill-opacity:1.0000000;fill:#cccccc"/>
    <path d="M 133.26047,127.27817 C 132.97809,128.99058 133.03261,129.31238 132.38547,131.96567 C 131.72334,134.68039 130.84014,137.70485 129.69797,140.68442 C 129.12689,142.17420 128.47019,143.67124 127.76047,145.09067 C 127.53451,145.54259 127.25131,145.93322 127.01047,146.37192 C 131.75470,146.37760 138.32399,146.78696 142.50000,147.78125 C 152.82915,149.90005 156.24781,133.74535 150.15625,132.15625 C 144.59980,130.70674 138.42234,130.79130 133.26047,127.27817 z " id="path10355" sodipodi:nodetypes="cccccccc" style="fill:#999999;fill-opacity:1.0000000;fill-rule:evenodd;stroke:none;stroke-width:2.0000000;stroke-linecap:butt;stroke-linejoin:miter;stroke-opacity:1.0000000;stroke-dasharray:none;stroke-miterlimit:4.0000000"/>
    <path d="M 32.046891,13.245393 C 32.046891,13.245393 50.056714,52.178393 35.489945,73.366420 C 24.101381,91.376243 36.019646,110.18061 45.554258,110.97516 C 59.061626,113.35882 83.163007,114.41822 91.903068,126.60134 C 100.64313,138.78445 106.46984,144.61116 110.70744,146.20026 C 114.94505,147.78937 131.36577,145.14086 142.48948,147.78937 C 152.81864,149.90817 156.26170,133.75230 150.17014,132.16320 C 144.07858,130.57409 139.31128,131.36864 133.48457,126.60134 C 127.65786,121.83403 114.68020,108.85636 106.20499,88.992590 C 101.17283,76.014923 90.313966,64.361508 87.665463,58.269951 C 81.044204,45.557134 78.660551,40.524978 76.541748,28.606713 C 74.422945,16.688447 75.217496,13.245393 75.217496,13.245393 L 32.046891,13.245393 z " id="path4248" sodipodi:nodetypes="ccccccccccccc" style="stroke-miterlimit:4.0000000;stroke-dasharray:none;stroke-opacity:1.0000000;stroke-linejoin:miter;stroke-linecap:butt;stroke-width:2.0000000;stroke:#000000;fill-rule:evenodd;fill-opacity:1.0000000;fill:none"/>
  </g>
</svg>
