<?xml version="1.0" encoding="UTF-8" standalone="no"?>
<!-- Created with Inkscape (http://www.inkscape.org/) --><svg height="209.76378pt" id="svg1503" inkscape:version="0.40+cvs" sodipodi:docbase="D:\" sodipodi:docname="collant1.svg" sodipodi:version="0.32" width="147.40157pt" xmlns="http://www.w3.org/2000/svg" xmlns:cc="http://web.resource.org/cc/" xmlns:dc="http://purl.org/dc/elements/1.1/" xmlns:inkscape="http://www.inkscape.org/namespaces/inkscape" xmlns:rdf="http://www.w3.org/1999/02/22-rdf-syntax-ns#" xmlns:sodipodi="http://inkscape.sourceforge.net/DTD/sodipodi-0.dtd" xmlns:svg="http://www.w3.org/2000/svg">
  <metadata>
    <rdf:RDF xmlns:cc="http://web.resource.org/cc/" xmlns:dc="http://purl.org/dc/elements/1.1/" xmlns:rdf="http://www.w3.org/1999/02/22-rdf-syntax-ns#">
      <cc:Work rdf:about="">
        <dc:title>pantyhose1_collant</dc:title>
        <dc:description>Simbolo delle scatole di collant.
Shape package pantyhose.</dc:description>
        <dc:subject>
          <rdf:Bag>
            <rdf:li>symbol</rdf:li>
            <rdf:li>collanttuttonudocuciturepiattetassellocotone</rdf:li>
          </rdf:Bag>
        </dc:subject>
        <dc:publisher>
          <cc:Agent rdf:about="http://www.openclipart.org">
            <dc:title>Rollandin Francesco</dc:title>
          </cc:Agent>
        </dc:publisher>
        <dc:creator>
          <cc:Agent>
            <dc:title>Rollandin Francesco</dc:title>
          </cc:Agent>
        </dc:creator>
        <dc:rights>
          <cc:Agent>
            <dc:title>Rollandin Francesco</dc:title>
          </cc:Agent>
        </dc:rights>
        <dc:date></dc:date>
        <dc:format>image/svg+xml</dc:format>
        <dc:type rdf:resource="http://purl.org/dc/dcmitype/StillImage"/>
        <cc:license rdf:resource="http://web.resource.org/cc/PublicDomain"/>
        <dc:language>en</dc:language>
      </cc:Work>
      <cc:License rdf:about="http://web.resource.org/cc/PublicDomain">
        <cc:permits rdf:resource="http://web.resource.org/cc/Reproduction"/>
        <cc:permits rdf:resource="http://web.resource.org/cc/Distribution"/>
        <cc:permits rdf:resource="http://web.resource.org/cc/DerivativeWorks"/>
      </cc:License>
    </rdf:RDF>
  </metadata>
  <defs id="defs3"/>
  <sodipodi:namedview bordercolor="#666666" borderopacity="1.0" id="base" inkscape:current-layer="layer1" inkscape:cx="126.23701" inkscape:cy="174.18634" inkscape:document-units="px" inkscape:pageopacity="0.0" inkscape:pageshadow="2" inkscape:window-height="719" inkscape:window-width="1024" inkscape:window-x="-4" inkscape:window-y="-4" inkscape:zoom="2.9307695" pagecolor="#ffffff"/>
  <g id="layer1" inkscape:groupmode="layer" inkscape:label="Layer 1">
    <path d="M 32.739056,12.797562 L 150.37306,12.797562 C 159.22506,12.797562 166.35206,19.924562 166.35206,28.777562 L 166.35206,146.41056 C 166.35206,155.26456 159.22506,162.39056 150.37306,162.39056 L 32.739056,162.39056 C 23.886056,162.39056 16.760056,155.26356 16.760056,146.41056 L 16.760056,28.778562 C 16.760056,19.925562 23.887056,12.797562 32.739056,12.797562 L 32.739056,12.797562 z " id="path1428" style="fill:#ffffff"/>
    <path d="M 104.74306,56.765562 C 104.44206,53.665562 104.04206,50.665562 103.64206,47.665562 C 102.84205,47.665562 102.04105,47.665562 101.24305,47.765562 C 96.642056,47.765562 92.242056,47.765562 87.843056,47.665562 C 88.043056,48.865562 88.242056,50.165562 88.443056,51.365562 C 89.043056,55.765562 89.643056,60.065562 90.043056,64.465562 C 90.343056,66.565562 90.543056,68.765562 90.643056,70.865562 C 90.843056,73.165562 90.943056,75.465562 91.043056,77.765562 C 91.143056,79.865562 91.143056,81.965562 91.243056,84.065562 C 91.243056,87.665562 91.243056,91.265562 91.143056,94.965562 C 91.143056,96.265562 91.143056,97.565562 91.043056,98.665562 L 91.043056,98.765562 C 90.943056,101.06556 90.843056,103.36556 90.643056,105.36556 C 90.443056,108.76556 90.043056,111.76556 89.643056,114.36556 L 90.043056,114.96556 C 90.143056,114.96556 90.143056,114.96556 90.143056,114.96556 C 93.143056,112.66656 95.643056,110.06556 97.843051,107.26656 C 98.343051,107.76656 99.943051,109.26656 102.34305,111.86656 C 103.24306,112.66756 104.04206,113.56556 104.84306,114.26656 C 105.44306,108.76656 105.84306,101.86656 106.04206,93.666562 C 106.04206,92.666562 106.04206,91.766562 106.04206,90.866562 C 106.14306,86.166562 106.14306,81.566562 106.04206,77.066562 L 106.04206,76.966562 C 106.04206,74.766562 105.94206,72.566562 105.84306,70.466562 C 105.74306,70.366562 105.74306,70.366562 105.84306,70.266562 C 105.54206,65.666562 105.24306,61.266562 104.74306,56.866562 L 104.74306,56.765562 z M 102.64305,70.565562 L 92.343056,70.765562 L 102.84305,63.565562 L 92.543056,64.165562 L 102.54305,57.065562 L 92.144056,57.165562 L 101.24505,49.965562 L 92.644056,50.765562 L 101.24505,49.965562 L 92.144056,57.165562 L 102.54305,57.065562 L 92.543056,64.165562 L 102.84305,63.565562 L 92.343056,70.765562 L 102.64305,70.565562 L 92.543056,77.765562 L 103.34306,77.065562 L 92.543056,84.065562 L 103.14306,84.465562 L 93.143056,90.965562 L 102.84305,90.965562 L 92.543056,98.765562 L 102.54305,98.165562 L 92.344056,105.46456 L 102.54305,105.16556 L 92.344056,105.46456 L 102.54305,98.165562 L 92.543056,98.765562 L 102.84305,90.965562 L 93.143056,90.965562 L 103.14306,84.465562 L 92.543056,84.065562 L 103.34306,77.065562 L 92.543056,77.765562 L 102.64305,70.565562 z " id="path1430" style="fill:#999999"/>
    <path d="M 87.843056,47.665562 C 87.843056,47.565562 87.843056,47.565562 87.843056,47.665562 C 80.843056,47.365562 73.943056,46.865562 67.343056,45.965562 C 61.043056,45.165562 55.242056,44.165562 50.043056,42.865562 L 44.243056,41.265562 C 41.243056,49.665562 37.143056,58.765562 31.943056,68.765562 C 23.243056,85.665562 21.243056,106.46456 26.043056,130.96456 C 28.343056,142.46456 31.343056,152.46456 35.043056,160.86456 C 35.243056,161.26456 35.443056,161.56356 35.543056,161.96456 L 97.643051,161.96456 C 97.744051,158.86456 97.143056,155.06456 95.843056,150.36456 C 94.742056,146.46456 93.242056,142.66556 91.443056,138.86456 C 88.543056,133.06356 84.743056,127.46456 80.043056,121.86456 C 80.043056,121.76456 80.043056,121.66556 80.043056,121.56356 C 80.043056,121.26456 80.443056,120.96356 81.243056,120.46356 C 82.943056,119.56356 84.344056,118.76456 85.543056,117.96356 C 87.243056,117.06356 88.743056,116.06356 90.043056,114.96356 L 89.643056,114.36356 C 90.043056,111.76356 90.443056,108.76356 90.643056,105.36356 C 90.843056,103.36356 90.943056,101.06356 91.043056,98.763562 L 91.043056,98.663562 C 91.143056,97.563562 91.143056,96.263562 91.143056,94.963562 C 91.243056,91.263562 91.243056,87.663562 91.243056,84.063562 C 91.143056,81.963562 91.143056,79.863562 91.043056,77.763562 C 90.943056,75.463562 90.843056,73.163562 90.643056,70.863562 C 90.543056,68.763562 90.343056,66.563562 90.043056,64.463562 C 89.643056,60.063562 89.043056,55.763562 88.443056,51.363562 C 88.242056,50.165562 88.043056,48.865562 87.843056,47.665562 z " id="path1432" style="fill:#cccccc"/>
    <path d="M 111.54306,119.96556 L 111.54306,119.86556 C 109.74306,118.66656 107.54206,116.86556 105.04206,114.46556 C 104.94206,114.46556 104.84306,114.36556 104.84306,114.26656 C 104.04206,113.56556 103.24306,112.66656 102.34305,111.86656 C 99.943051,109.26656 98.343051,107.76656 97.843051,107.26656 C 95.643056,110.06556 93.143056,112.66656 90.143056,114.96556 C 90.143056,114.96556 90.143056,114.96556 90.043056,114.96556 C 88.743056,116.06556 87.243056,117.06556 85.543056,117.96556 C 84.343056,118.76656 82.943056,119.56556 81.243056,120.46556 C 80.443056,120.96556 80.043056,121.26656 80.043056,121.56556 C 80.043056,121.66756 80.043056,121.76656 80.043056,121.86656 C 84.743056,127.46656 88.543056,133.06556 91.443056,138.86656 L 95.743056,140.16756 C 99.143051,140.66756 102.04305,139.96656 104.64306,138.06556 C 104.54206,133.76656 105.74406,129.56556 108.04206,125.56556 C 110.34306,122.46556 111.54306,120.66656 111.54306,119.96556 z " id="path1434" style="fill:#999999"/>
    <path d="M 159.34406,120.36556 C 157.24406,112.56456 154.34406,100.66656 150.74406,84.965562 C 149.64206,81.265562 146.84406,74.365562 142.14206,64.365562 C 137.44306,54.265562 135.04206,49.165562 134.94306,48.765562 L 133.04306,45.365562 C 122.94306,46.665562 113.14306,47.465562 103.64306,47.665562 C 104.04206,50.665562 104.44306,53.665562 104.74406,56.765562 L 104.74406,56.865562 C 105.24406,61.265562 105.54306,65.665562 105.84406,70.265562 C 105.74406,70.365562 105.74406,70.365562 105.84406,70.465562 C 105.94406,72.565562 106.04306,74.765562 106.04306,76.965562 L 106.04306,77.065562 C 106.14406,81.565562 106.14406,86.165562 106.04306,90.865562 C 106.04306,91.765562 106.04306,92.665562 106.04306,93.665562 C 105.84406,101.86556 105.44306,108.76556 104.84406,114.26556 C 104.84406,114.36556 104.94406,114.46456 105.04306,114.46456 C 107.54306,116.86456 109.74406,118.66556 111.54406,119.86456 L 111.54406,119.96456 C 111.54406,120.66556 110.34406,122.46456 108.04306,125.56456 C 105.74406,129.56456 104.54306,133.76556 104.64406,138.06456 C 104.64406,138.96456 104.64406,139.86556 104.74506,140.76556 C 105.74506,149.16556 107.04406,156.26556 108.74506,161.96456 L 150.24606,161.96456 C 154.74606,161.96456 158.44506,160.36456 161.54506,157.26556 C 163.74606,155.06456 165.14506,152.66556 165.84606,149.86556 C 165.64506,149.06456 165.34606,147.86556 165.04506,146.26556 C 164.54506,143.86556 163.84606,140.66556 163.14506,136.66556 C 161.64306,128.96556 160.34406,123.56456 159.34406,120.36556 z " id="path1436" style="fill:#cccccc"/>
    <path d="M 101.24305,47.765562 C 102.04205,47.665562 102.84305,47.665562 103.64206,47.665562 C 113.14206,47.465562 122.94306,46.665562 133.04206,45.365562 L 134.14206,45.265562 C 133.84306,43.565562 133.64206,41.565562 133.34306,39.265562 C 133.34306,38.965562 133.34306,38.565562 133.24306,38.265562 L 133.14106,38.265562 C 119.04106,41.965562 100.24205,42.565562 76.941056,39.965562 C 69.641056,39.065562 62.241056,37.965562 54.841056,36.665562 L 46.240056,34.865562 C 46.240056,34.865562 46.240056,34.865562 46.240056,34.965562 C 45.640056,36.965562 44.940056,39.165562 44.240056,41.265562 L 50.040056,42.865562 C 55.240056,44.165562 61.040056,45.165562 67.340056,45.965562 C 73.940056,46.865562 80.840056,47.365562 87.840056,47.665562 C 87.840056,47.565562 87.840056,47.565562 87.840056,47.665562 C 92.242056,47.765562 96.643056,47.765562 101.24305,47.765562 z " id="path1438" style="fill:#999999"/>
    <path d="M 32.739056,12.797562 L 150.37306,12.797562 C 159.22506,12.797562 166.35206,19.924562 166.35206,28.777562 L 166.35206,146.41056 C 166.35206,155.26456 159.22506,162.39056 150.37306,162.39056 L 32.739056,162.39056 C 23.886056,162.39056 16.760056,155.26356 16.760056,146.41056 L 16.760056,28.778562 C 16.760056,19.925562 23.887056,12.797562 32.739056,12.797562 L 32.739056,12.797562 z " id="path1440" stroke-miterlimit="10" style="fill:none;stroke:#000000;stroke-width:3.2000000"/>
    <path d="M 49.840056,11.933562 C 49.840056,11.933562 53.231056,28.513562 32.129056,69.210562 C 11.027055,109.90756 35.998056,163.18656 35.998056,163.18656 M 135.37706,11.556562 C 135.37706,11.556562 135.75406,20.977562 133.87106,27.383562 C 131.98606,33.789562 134.24806,46.601562 135.00206,49.239562 C 135.75406,51.877562 148.19006,75.993562 150.82806,85.414562 C 153.08806,95.212562 157.23406,112.54756 159.49406,120.83656 C 161.75606,127.99556 165.14606,147.21256 165.52306,150.22856 M 46.071056,35.296562 C 46.071056,35.296562 99.580051,47.732562 133.11706,38.688562" id="path1442" stroke-miterlimit="10" style="fill:none;stroke:#000000;stroke-width:2.4000001"/>
    <path d="M 44.187056,41.702562 C 44.187056,41.702562 76.593056,53.007562 133.11706,45.847562" id="path1444" stroke-miterlimit="10" style="fill:none;stroke:#000000;stroke-width:2.0000000"/>
    <path d="M 97.695051,163.04056 C 97.695051,163.04056 98.826051,144.19856 79.985056,121.96756 M 80.231056,122.29956 C 78.847056,120.85656 90.152056,118.61956 98.441051,106.93856 M 97.609051,107.41856 C 97.933051,107.07856 105.47206,116.31856 111.87906,120.46356 M 111.54506,120.20756 C 112.74806,120.86756 103.34706,127.99556 104.85506,141.18556 C 106.36306,154.37356 109.00006,163.04056 109.00006,163.04056 M 91.541056,139.30056 C 91.541056,139.30056 98.826051,143.06856 104.47906,138.54656" id="path1446" stroke-miterlimit="10" style="fill:none;stroke:#000000;stroke-width:2.4000001"/>
    <path d="M 89.783056,114.80656 C 89.783056,114.80656 94.304056,85.413562 87.898056,47.731562 M 104.85506,115.18356 C 104.85506,115.18356 108.62306,81.268562 103.72406,48.108562" id="path1448" stroke-miterlimit="10" style="fill:none;stroke:#000000;stroke-width:0.80000001"/>
    <polyline id="polyline1450" points="87.442,94.385 77.288,94.703      87.442,87.374 77.45,88.011 87.767,80.205 78.095,80.205 88.089,73.673 77.45,73.354 88.249,66.345 77.45,66.982 87.604,59.813      77.288,59.972 87.767,52.803 77.45,53.44 87.442,46.271 77.128,46.431 86.153,39.262 77.61,40.059 " stroke-miterlimit="10" style="fill:none;stroke:#000000;stroke-width:0.79530001" transform="translate(15.15906,11.19753)"/>
  </g>
</svg>
