<?xml version="1.0" encoding="UTF-8" standalone="no"?>
<!DOCTYPE svg PUBLIC "-//W3C//DTD SVG 20010904//EN"
"http://www.w3.org/TR/2001/REC-SVG-20010904/DTD/svg10.dtd">
<!-- Created with Sodipodi ("http://www.sodipodi.com/") --><svg height="400pt" id="svg548" sodipodi:docbase="/home/nicu/svg_gal/happy" sodipodi:docname="/home/nicu/svg_gal/happy/banner_02.svg" sodipodi:version="0.32" width="400pt" xmlns="http://www.w3.org/2000/svg" xmlns:sodipodi="http://sodipodi.sourceforge.net/DTD/sodipodi-0.dtd" xmlns:xlink="http://www.w3.org/1999/xlink">
  <metadata>
    <rdf:RDF xmlns:cc="http://web.resource.org/cc/" xmlns:dc="http://purl.org/dc/elements/1.1/" xmlns:rdf="http://www.w3.org/1999/02/22-rdf-syntax-ns#">
      <cc:Work rdf:about="">
        <dc:title>Clipart by Nicu Buculei - baloon1_04</dc:title>
        <dc:description></dc:description>
        <dc:subject>
          <rdf:Bag>
            <rdf:li>unsorted</rdf:li>
          </rdf:Bag>
        </dc:subject>
        <dc:publisher>
          <cc:Agent rdf:about="http://www.openclipart.org">
            <dc:title>Nicu Buculei</dc:title>
          </cc:Agent>
        </dc:publisher>
        <dc:creator>
          <cc:Agent>
            <dc:title>Nicu Buculei</dc:title>
          </cc:Agent>
        </dc:creator>
        <dc:rights>
          <cc:Agent>
            <dc:title>Nicu Buculei</dc:title>
          </cc:Agent>
        </dc:rights>
        <dc:date></dc:date>
        <dc:format>image/svg+xml</dc:format>
        <dc:type rdf:resource="http://purl.org/dc/dcmitype/StillImage"/>
        <cc:license rdf:resource="http://web.resource.org/cc/PublicDomain"/>
        <dc:language>en</dc:language>
      </cc:Work>
      <cc:License rdf:about="http://web.resource.org/cc/PublicDomain">
        <cc:permits rdf:resource="http://web.resource.org/cc/Reproduction"/>
        <cc:permits rdf:resource="http://web.resource.org/cc/Distribution"/>
        <cc:permits rdf:resource="http://web.resource.org/cc/DerivativeWorks"/>
      </cc:License>
    </rdf:RDF>
  </metadata>
  <defs id="defs550"/>
  <sodipodi:namedview id="base" showgrid="true"/>
  <g id="g896" transform="matrix(1.000000,0.000000,0.000000,1.488678,4.870033,-78.78784)">
    <g id="g890" transform="">
      <g id="g886">
        <path d="M 383.759 211.694 L 379.863 270.134 C 379.863 270.134 398.369 278.901 435.381 284.745 C 459.731 284.744 489.925 279.874 489.925 279.874 C 489.925 279.874 459.731 249.68 459.731 251.628 C 459.731 253.576 491.874 236.044 493.822 234.096 C 449.992 235.07 383.759 218.512 383.759 211.694 z " id="path882" sodipodi:nodetypes="ccccccc" style="fill:#ffffff;fill-rule:evenodd;stroke:black;stroke-opacity:1;stroke-width:3.75;stroke-linejoin:miter;stroke-linecap:butt;fill-opacity:1;stroke-dasharray:none;" transform=""/>
        <path d="M 3.89603 287.666 C 3.89603 287.666 58.4404 296.433 69.1545 294.485 C 79.8686 292.537 90.5826 294.485 93.5047 289.615 C 96.4267 284.744 110.063 217.538 110.063 217.538 C 110.063 217.538 65.2585 226.304 54.5444 226.304 C 43.8303 226.304 3.89603 221.434 3.89603 221.434 C 3.89603 221.434 25.3242 249.68 28.2462 249.68 C 31.1682 249.68 0.974007 289.615 3.89603 287.666 z " id="path883" style="fill:#ffffff;fill-rule:evenodd;stroke:black;stroke-opacity:1;stroke-width:3.75;stroke-linejoin:miter;stroke-linecap:butt;fill-opacity:1;stroke-dasharray:none;"/>
        <path d="M 11.6881 196.11 L 24.3502 270.134 C 24.3502 270.134 57.4664 263.316 74.9985 268.186 C 88.6346 275.004 95.4526 276.952 95.4526 284.744 C 95.4526 292.537 110.063 217.538 110.063 217.538 C 110.063 217.538 85.7126 193.188 68.1805 193.188 C 50.6484 193.188 15.5841 193.188 11.6881 196.11 z " id="path884" sodipodi:nodetypes="ccccccc" style="fill:#ffffff;fill-rule:evenodd;stroke:black;stroke-opacity:1;stroke-width:3.75;stroke-linejoin:miter;stroke-linecap:butt;fill-opacity:1;stroke-dasharray:none;" transform=""/>
      </g>
      <path d="M 379.863 269.16 C 379.863 269.16 382.785 264.29 400.317 257.472 C 417.849 250.654 449.017 249.68 449.991 251.628 C 450.965 253.576 467.523 196.11 467.523 196.11 C 467.523 196.11 426.615 191.24 418.823 194.162 C 411.031 197.084 383.759 203.902 382.785 207.798 C 381.811 211.694 380.837 271.108 379.863 269.16 z " id="path885" sodipodi:nodetypes="ccccccc" style="fill:#ffffff;fill-rule:evenodd;stroke:black;stroke-opacity:1;stroke-width:3.75;stroke-linejoin:miter;stroke-linecap:butt;fill-opacity:1;stroke-dasharray:none;"/>
    </g>
    <path d="M 10.7141 198.058 L 25.3242 269.16 C 25.3242 269.16 76.9467 232.148 241.554 237.992 C 411.031 233.122 446.095 249.68 449.991 251.628 C 453.887 253.576 467.523 196.11 467.523 196.11 C 467.523 196.11 453.887 167.864 246.424 153.254 C 74.9989 162.994 9.74008 182.474 10.7141 198.058 z " id="path881" sodipodi:nodetypes="ccccccc" style="fill:#ffffff;fill-rule:evenodd;stroke:black;stroke-opacity:1;stroke-width:3.75;stroke-linejoin:miter;stroke-linecap:butt;fill-opacity:1;stroke-dasharray:none;"/>
  </g>
</svg>
