<?xml version="1.0" encoding="UTF-8" standalone="no"?>
<!-- Generator: Adobe Illustrator 12.0.0, SVG Export Plug-In . SVG Version: 6.00 Build 51448)  --><svg height="132.724" id="Layer_1" inkscape:version="0.42" sodipodi:docbase="F:\openclip\svg da inviare" sodipodi:docname="tasto04.svg" sodipodi:version="0.32" space="preserve" style="overflow:visible;enable-background:new 0 0 136.208 132.724;" version="1.1" viewBox="0 0 136.208 132.724" width="136.208" xmlns="http://www.w3.org/2000/svg" xmlns:cc="http://web.resource.org/cc/" xmlns:dc="http://purl.org/dc/elements/1.1/" xmlns:inkscape="http://www.inkscape.org/namespaces/inkscape" xmlns:rdf="http://www.w3.org/1999/02/22-rdf-syntax-ns#" xmlns:sodipodi="http://inkscape.sourceforge.net/DTD/sodipodi-0.dtd" xmlns:svg="http://www.w3.org/2000/svg">
  <metadata>
    <rdf:RDF xmlns:cc="http://web.resource.org/cc/" xmlns:dc="http://purl.org/dc/elements/1.1/" xmlns:rdf="http://www.w3.org/1999/02/22-rdf-syntax-ns#">
      <cc:Work rdf:about="">
        <dc:title>Tasto 4</dc:title>
        <dc:description></dc:description>
        <dc:subject>
          <rdf:Bag>
            <rdf:li>unsorted</rdf:li>
          </rdf:Bag>
        </dc:subject>
        <dc:publisher>
          <cc:Agent rdf:about="http://www.openclipart.org/">
            <dc:title>Open Clip Art Library</dc:title>
          </cc:Agent>
        </dc:publisher>
        <dc:creator>
          <cc:Agent>
            <dc:title>Architetto Francesco Rollandin</dc:title>
          </cc:Agent>
        </dc:creator>
        <dc:rights>
          <cc:Agent>
            <dc:title>Architetto Francesco Rollandin</dc:title>
          </cc:Agent>
        </dc:rights>
        <dc:date></dc:date>
        <dc:format>image/svg+xml</dc:format>
        <dc:type rdf:resource="http://purl.org/dc/dcmitype/StillImage"/>
        <cc:license rdf:resource="http://web.resource.org/cc/PublicDomain"/>
        <dc:language>en</dc:language>
      </cc:Work>
      <cc:License rdf:about="http://web.resource.org/cc/PublicDomain">
        <cc:permits rdf:resource="http://web.resource.org/cc/Reproduction"/>
        <cc:permits rdf:resource="http://web.resource.org/cc/Distribution"/>
        <cc:permits rdf:resource="http://web.resource.org/cc/DerivativeWorks"/>
      </cc:License>
    </rdf:RDF>
  </metadata>
  <defs id="defs19"/>
  <sodipodi:namedview bordercolor="#666666" borderopacity="1.0" id="base" inkscape:current-layer="Layer_1" inkscape:cx="68.103996" inkscape:cy="66.362000" inkscape:pageopacity="0.0" inkscape:pageshadow="2" inkscape:window-height="510" inkscape:window-width="787" inkscape:window-x="22" inkscape:window-y="29" inkscape:zoom="2.7123957" pagecolor="#ffffff"/>
  <g id="g3">
    <radialGradient cx="40.9502" cy="34.5386" gradientUnits="userSpaceOnUse" id="XMLID_2_" r="95.4936">
      <stop id="stop6" offset="0" style="stop-color:#D1F593"/>
      <stop id="stop8" offset="1" style="stop-color:#81CE09"/>
    </radialGradient>
    <path d="M127.832,76.994c-8.691,0-17.383,0-26.073,0c-0.876,0-0.414,21.366-0.414,23.361   c-0.002,7.306,2.59,21.361-2.609,27.527c-5.432,6.442-19.097,3.944-26.469,3.944c-9.328,0-18.659,0-27.989,0   c-12.528,0-11.333-12.918-11.333-21.555c0-10.569,0-21.141,0-31.712c0-2.716-2.349-1.566-4.825-1.566c-5.637,0-11.274,0-16.91,0   c-9.402,0-13.781-9.703-6.941-16.563c5.911-5.93,11.821-11.859,17.733-17.789C34.582,30.019,46.595,15.675,60.276,4.243   c8.089-8.067,15.792,0.108,21.49,5.802c7.764,7.755,15.526,15.512,23.288,23.267c7.629,7.622,15.258,15.242,22.886,22.864   c4.946,4.941,11.266,11.203,4.96,18.47C131.614,76.128,129.806,76.994,127.832,76.994" id="path10" style="fill:url(#XMLID_2_);"/>
    <path d="M16.189,57.658C21.186,52.646,67.972,5.48,68.203,5.709c9.738,9.693,19.476,19.385,29.214,29.078   c5.802,5.774,11.604,11.548,17.404,17.322c3.57,3.553,10.455,8.647,7.89,14.462c4.211,0,8.42,0,12.631,0   c-0.689-5.384-6.758-9.637-10.335-13.197c-7.424-7.393-14.849-14.785-22.272-22.178c-7.081-7.053-14.164-14.106-21.247-21.156   C77.655,6.222,73.73,0.987,67.97,1.057C62.422,0.991,58.822,5.7,55.145,9.39c-6.896,6.918-13.792,13.835-20.688,20.754   c-7.461,7.485-14.924,14.973-22.387,22.458C8.373,56.313,1.747,60.97,1.019,66.57c4.239,0,8.476,0,12.715,0   C12.465,63.535,14.016,59.846,16.189,57.658" id="path12" style="fill:#B2ED21;"/>
    <path d="M9.47,76.994c7.671,0,15.342,0,23.013,0c0.992,0,0.462,17.187,0.462,18.898   c0,8.196,0,16.393,0,24.587c0,10.865,9.978,11.348,17.978,11.348c10.132,0,20.262,0,30.392,0c7.737,0,18.258,1.126,20.113-9.094   c1.288-7.095,0.177-15.213,0.175-22.374c0-7.788,0-15.577-0.002-23.365c8.393,0,16.784,0,25.177,0c3.096,0,5.95-1.309,7.473-4.088   c0.657-1.201,2.493-6.336,0.286-6.336c-2.554,0-5.105,0-7.657,0c-3.817,0-3.098,0.059-5.834,2.063   c-3.066,2.247-8.809,1.367-12.393,1.367c-5.119,0-10.238,0-15.359,0c-0.967,0-0.455,21.364-0.455,23.413   c0,7.354,2.376,20.491-1.599,27.262c-4.044,6.89-21.157,3.776-27.612,3.776c-9.089,0-22.142,2.461-22.142-10.68   c0-9.255,0-18.51,0-27.765c0-5.247,0-10.496,0-15.745c0-0.553-14.563-0.262-16.051-0.262c-2.303,0-4.82,0.234-7.109-0.167   c-1.955-0.343-3.796-1.363-4.592-3.264c-1.026-0.408-3.119,0-4.197,0c-1.333,0-7.573-0.91-8.518,0   C0.315,72.021,3.708,76.994,9.47,76.994" id="path14" style="fill:#67BA06;"/>
    <path d="M59.643,3.605C46.884,16.406,34.125,29.207,21.366,42.008C15.456,47.938,9.544,53.869,3.633,59.8   c-3.318,3.329-4.65,8.05-2.783,12.57c2.504,6.049,8.719,5.521,14.104,5.521c5.377,0,10.753,0,16.132,0   c1.965,0,0.962,6.644,0.962,8.338c0,10.941,0,21.884,0,32.824c0,11.07,8.116,13.671,17.371,13.671c11.112,0,22.222,0,33.332,0   c8.506,0,19.487-0.436,19.487-12.059c0-9.182,0.001-18.363,0.001-27.545c0-4.33,0-8.659,0-12.989c0-3.605,2.66-2.24,5.996-2.24   c9.25,0,27.972,3.927,27.972-10.274c0-6.398-6.319-10.761-10.438-14.876c-7.75-7.743-15.502-15.486-23.254-23.23   C95.594,22.591,88.67,15.675,81.746,8.756C75.81,2.825,67.808-4.529,59.643,3.605 M2.508,71.685   c-3.232-7.813,5.47-13.708,10.197-18.451c8.159-8.184,16.319-16.372,24.478-24.557c6.955-6.978,13.911-13.954,20.866-20.932   c5.324-5.34,11.826-8.319,18.174-1.976c14.423,14.411,28.846,28.822,43.27,43.233c4.129,4.123,9.54,8.205,12.967,12.955   c4.394,4.39,1.526,14.141-5.026,14.141c-4.92,0-9.838,0-14.758,0c-4.041,0-8.082,0-12.125,0c-0.221,0-0.102,6.219-0.102,6.698   c0,11.1-0.002,22.201-0.002,33.301c0,8.832-3.202,14.835-12.965,14.835c-10.776,0-21.554,0-32.33,0   c-8,0-21.311,1.682-21.311-10.255c0-9.141,0-18.282,0-27.423c0-4.75,0-9.5,0-14.25c0-2.955,0.478-2.906-2.534-2.906   C24.744,76.098,5.739,79.504,2.508,71.685" id="path16" style="fill:#739B07;"/>
  </g>
</svg>
