<?xml version="1.0" encoding="UTF-8" standalone="no"?>
<!DOCTYPE svg PUBLIC "-//W3C//DTD SVG 20010904//EN"
"http://www.w3.org/TR/2001/REC-SVG-20010904/DTD/svg10.dtd">
<svg enable-background="new 0 0 132.72 127.219" height="127.219" id="svg1" inkscape:version="0.40" overflow="visible" sodipodi:docbase="/home/josue/Images" sodipodi:docname="eclipse.svg" sodipodi:version="0.32" viewBox="0 0 132.72 127.219" width="132.72" xml:space="preserve" xmlns="http://www.w3.org/2000/svg" xmlns:cc="http://web.resource.org/cc/" xmlns:dc="http://purl.org/dc/elements/1.1/" xmlns:inkscape="http://www.inkscape.org/namespaces/inkscape" xmlns:rdf="http://www.w3.org/1999/02/22-rdf-syntax-ns#" xmlns:sodipodi="http://sodipodi.sourceforge.net/DTD/sodipodi-0.dtd" xmlns:xlink="http://www.w3.org/1999/xlink" xmlns:xml="http://www.w3.org/XML/1998/namespace"><metadata><rdf:RDF xmlns:cc="http://web.resource.org/cc/" xmlns:dc="http://purl.org/dc/elements/1.1/" xmlns:rdf="http://www.w3.org/1999/02/22-rdf-syntax-ns#"><cc:Work rdf:about=""><dc:title>Eclipse</dc:title><dc:description></dc:description><dc:subject><rdf:Bag><rdf:li>moon</rdf:li><rdf:li>sun</rdf:li><rdf:li>geography</rdf:li><rdf:li>eclipse</rdf:li><rdf:li>appicon</rdf:li></rdf:Bag></dc:subject><dc:publisher><cc:Agent rdf:about="http://www.openclipart.org/"><dc:title>Open Clip Art Library</dc:title></cc:Agent></dc:publisher><dc:creator><cc:Agent><dc:title>Josué Alcalde (Based on Firefox artwork)</dc:title></cc:Agent></dc:creator><dc:rights><cc:Agent><dc:title>Josué Alcalde (Based on Firefox artwork)</dc:title></cc:Agent></dc:rights><dc:date></dc:date><dc:format>image/svg+xml</dc:format><dc:type rdf:resource="http://purl.org/dc/dcmitype/StillImage"/><cc:license rdf:resource="http://web.resource.org/cc/PublicDomain"/><dc:language>en</dc:language></cc:Work><cc:License rdf:about="http://web.resource.org/cc/PublicDomain"><cc:permits rdf:resource="http://web.resource.org/cc/Reproduction"/><cc:permits rdf:resource="http://web.resource.org/cc/Distribution"/><cc:permits rdf:resource="http://web.resource.org/cc/DerivativeWorks"/></cc:License></rdf:RDF></metadata><defs id="defs771">
  <linearGradient id="linearGradient7063">
    <stop id="stop7064" offset="0.0000000" style="stop-color:#ffd900;stop-opacity:1.0000000;"></stop>


    <stop id="stop8478" offset="0.12500000" style="stop-color:#ffe200;stop-opacity:1.0000000;"></stop>


    <stop id="stop8479" offset="0.18750000" style="stop-color:#ffe700;stop-opacity:0.76862746;"></stop>


    <stop id="stop8477" offset="0.25000000" style="stop-color:#ffec00;stop-opacity:0.69411767;"></stop>


    <stop id="stop8482" offset="0.37500000" style="stop-color:#fff500;stop-opacity:0.54117650;"></stop>


    <stop id="stop8483" offset="0.43750000" style="stop-color:#fffa00;stop-opacity:0.071684591;"></stop>


    <stop id="stop8484" offset="0.46875000" style="stop-color:#fffc00;stop-opacity:0.75627238;"></stop>


    <stop id="stop7067" offset="0.46875000" style="stop-color:#ffff00;stop-opacity:0.60000002;"></stop>


    <stop id="stop7065" offset="1.0000000" style="stop-color:#ffffff;stop-opacity:0.0000000;"></stop>


  </linearGradient>


  <linearGradient id="linearGradient5804">
    <stop id="stop5805" offset="0.0000000" style="stop-color:#ff433a;stop-opacity:0.54121864;"></stop>


    <stop id="stop5806" offset="1.0000000" style="stop-color:#ffffff;stop-opacity:0.0000000;"></stop>


  </linearGradient>


  <linearGradient id="linearGradient2567">
    <stop id="stop2570" offset="0.0000000" style="stop-color:#fff700;stop-opacity:1.0000000;"></stop>


    <stop id="stop9112" offset="0.28651860" style="stop-color:#ffff00;stop-opacity:0.56989247;"></stop>


    <stop id="stop9115" offset="0.28651860" style="stop-color:#ffff00;stop-opacity:0.54901963;"></stop>


    <stop id="stop9116" offset="0.63281250" style="stop-color:#ffff00;stop-opacity:0.23297492;"></stop>


    <stop id="stop9113" offset="0.80620658" style="stop-color:#ffff00;stop-opacity:0.10394266;"></stop>


    <stop id="stop2568" offset="1.0000000" style="stop-color:#ffff51;stop-opacity:0.0000000;"></stop>


  </linearGradient>


  <linearGradient id="linearGradient2563">
    <stop id="stop2566" offset="0.0000000" style="stop-color:#0f80bc;stop-opacity:1.0000000;"></stop>


    <stop id="stop2565" offset="0.33759999" style="stop-color:#0a5f9e;stop-opacity:1.0000000;"></stop>


    <stop id="stop2564" offset="1.0000000" style="stop-color:#00145a;stop-opacity:1.0000000;"></stop>


  </linearGradient>


  <linearGradient id="linearGradient2559">
    <stop id="stop2562" offset="0.0000000" style="stop-color:#0f80bc;stop-opacity:1.0000000;"></stop>


    <stop id="stop2561" offset="0.33759999" style="stop-color:#0a5f9e;stop-opacity:1.0000000;"></stop>


    <stop id="stop2560" offset="1.0000000" style="stop-color:#00145a;stop-opacity:1.0000000;"></stop>


  </linearGradient>


  <linearGradient id="linearGradient2555">
    <stop id="stop2558" offset="0.0000000" style="stop-color:#0f80bc;stop-opacity:1.0000000;"></stop>


    <stop id="stop2557" offset="0.33759999" style="stop-color:#0a5f9e;stop-opacity:1.0000000;"></stop>


    <stop id="stop2556" offset="1.0000000" style="stop-color:#00145a;stop-opacity:1.0000000;"></stop>


  </linearGradient>


  <linearGradient id="linearGradient2551">
    <stop id="stop2554" offset="0.0000000" style="stop-color:#0f80bc;stop-opacity:1.0000000;"></stop>


    <stop id="stop2553" offset="0.33759999" style="stop-color:#0a5f9e;stop-opacity:1.0000000;"></stop>


    <stop id="stop2552" offset="1.0000000" style="stop-color:#00145a;stop-opacity:1.0000000;"></stop>


  </linearGradient>


  <linearGradient id="linearGradient2547">
    <stop id="stop2550" offset="0.0000000" style="stop-color:#0f80bc;stop-opacity:1.0000000;"></stop>


    <stop id="stop2549" offset="0.33759999" style="stop-color:#0a5f9e;stop-opacity:1.0000000;"></stop>


    <stop id="stop2548" offset="1.0000000" style="stop-color:#00145a;stop-opacity:1.0000000;"></stop>


  </linearGradient>


  <linearGradient id="linearGradient2532">
    <stop id="stop2542" offset="0.0000000" style="stop-color:#5a3269;stop-opacity:1.0000000;"></stop>


    <stop id="stop2541" offset="0.16040000" style="stop-color:#633773;stop-opacity:1.0000000;"></stop>


    <stop id="stop2540" offset="0.27950001" style="stop-color:#552c5e;stop-opacity:1.0000000;"></stop>


    <stop id="stop2539" offset="0.38519999" style="stop-color:#4c295a;stop-opacity:1.0000000;"></stop>


    <stop id="stop2538" offset="0.48320001" style="stop-color:#41214b;stop-opacity:1.0000000;"></stop>


    <stop id="stop2537" offset="0.57590002" style="stop-color:#2c1433;stop-opacity:1.0000000;"></stop>


    <stop id="stop2536" offset="0.66460001" style="stop-color:#28122f;stop-opacity:1.0000000;"></stop>


    <stop id="stop2535" offset="0.71527779" style="stop-color:#1a0920;stop-opacity:1.0000000;"></stop>


    <stop id="stop2534" offset="0.81459999" style="stop-color:#14001c;stop-opacity:1.0000000;"></stop>


    <stop id="stop2533" offset="1.0000000" style="stop-color:#4b2d58;stop-opacity:1.0000000;"></stop>


  </linearGradient>


  <linearGradient id="linearGradient2525">
    <stop id="stop2531" offset="0.013700000" style="stop-color:#ffffd9;stop-opacity:0.0000000;"></stop>


    <stop id="stop7832" offset="0.37560001" style="stop-color:#ffffd0;stop-opacity:0.27058825;"></stop>


    <stop id="stop7833" offset="0.55655003" style="stop-color:#ffffcc;stop-opacity:0.40392157;"></stop>


    <stop id="stop2529" offset="0.73750001" style="stop-color:#ffffc8;stop-opacity:0.54117650;"></stop>


    <stop id="stop2527" offset="1.0000000" style="stop-color:#ffffa6;stop-opacity:0.83137256;"></stop>


    <stop id="stop2526" offset="1.0000000" style="stop-color:#f9ff92;stop-opacity:0.98039216;"></stop>


  </linearGradient>


  <linearGradient id="linearGradient2508">
    <stop id="stop2511" offset="0.0000000" style="stop-color:#0f80bc;stop-opacity:1.0000000;"></stop>


    <stop id="stop2510" offset="0.33759999" style="stop-color:#0a5f9e;stop-opacity:1.0000000;"></stop>


    <stop id="stop2509" offset="1.0000000" style="stop-color:#00145a;stop-opacity:1.0000000;"></stop>


  </linearGradient>


  <linearGradient id="linearGradient1882">
    <stop id="stop1886" offset="0.0000000" style="stop-color:#8d0fbc;stop-opacity:1.0000000;"></stop>


    <stop id="stop1885" offset="0.26429999" style="stop-color:#5f0b9b;stop-opacity:1.0000000;"></stop>


    <stop id="stop1884" offset="0.84390002" style="stop-color:#2c0347;stop-opacity:1.0000000;"></stop>


    <stop id="stop1883" offset="1.0000000" style="stop-color:#1d1623;stop-opacity:1.0000000;"></stop>


  </linearGradient>


  <radialGradient cx="69.100746" cy="3.0972047" fx="69.100746" fy="3.0972047" gradientUnits="userSpaceOnUse" id="radialGradient7822" inkscape:collect="always" r="115.97742" xlink:href="#linearGradient2532"></radialGradient>


  <radialGradient cx="64.551804" cy="14.174800" fx="64.551804" fy="14.174800" gradientUnits="userSpaceOnUse" id="radialGradient7823" inkscape:collect="always" r="52.231701" xlink:href="#linearGradient1882"></radialGradient>


  <radialGradient cx="64.553703" cy="14.175800" fx="64.553703" fy="14.175800" gradientUnits="userSpaceOnUse" id="radialGradient7824" inkscape:collect="always" r="52.228901" xlink:href="#linearGradient1882"></radialGradient>


  <radialGradient cx="64.548798" cy="14.172400" fx="64.548798" fy="14.172400" gradientUnits="userSpaceOnUse" id="radialGradient7825" inkscape:collect="always" r="52.237301" xlink:href="#linearGradient1882"></radialGradient>


  <radialGradient cx="65.4053" cy="19.1201" fx="65.4053" fy="19.1201" gradientUnits="userSpaceOnUse" id="radialGradient7826" inkscape:collect="always" r="57.3827" xlink:href="#linearGradient1882"></radialGradient>


  <radialGradient cx="64.550797" cy="14.173300" fx="64.550797" fy="14.173300" gradientUnits="userSpaceOnUse" id="radialGradient7827" inkscape:collect="always" r="52.233299" xlink:href="#linearGradient1882"></radialGradient>


  <radialGradient cx="64.551804" cy="14.164600" fx="64.551804" fy="14.164600" gradientUnits="userSpaceOnUse" id="radialGradient7828" inkscape:collect="always" r="52.241501" xlink:href="#linearGradient2532"></radialGradient>


  <linearGradient gradientUnits="userSpaceOnUse" id="linearGradient7829" inkscape:collect="always" x1="76.371597" x2="93.231796" xlink:href="#linearGradient1882" y1="16.591801" y2="18.029301"></linearGradient>


  <linearGradient gradientUnits="userSpaceOnUse" id="linearGradient7830" inkscape:collect="always" x1="38.491699" x2="29.173901" xlink:href="#linearGradient1882" y1="19.146999" y2="32.832401"></linearGradient>


  <linearGradient gradientTransform="scale(1.029263,0.971569)" gradientUnits="userSpaceOnUse" id="linearGradient8473" inkscape:collect="always" x1="-0.55791861" x2="122.09064" xlink:href="#linearGradient2555" y1="15.260074" y2="80.398094"></linearGradient>


  <radialGradient cx="8.7147970" cy="57.995636" fx="8.7147970" fy="57.995636" gradientTransform="scale(1.029263,0.971569)" gradientUnits="userSpaceOnUse" id="radialGradient9111" inkscape:collect="always" r="102.15707" xlink:href="#linearGradient2567"></radialGradient>


</defs>







<sodipodi:namedview bordercolor="#666666" borderopacity="1.0" id="base" inkscape:current-layer="svg1" inkscape:cx="11.406433" inkscape:cy="35.872498" inkscape:guide-bbox="true" inkscape:pageopacity="0.0" inkscape:pageshadow="2" inkscape:window-height="635" inkscape:window-width="1104" inkscape:window-x="233" inkscape:window-y="129" inkscape:zoom="2.0000000" pagecolor="#ffffff" showguides="true">
  <sodipodi:guide id="guide2543" orientation="horizontal" position="-10.334638"></sodipodi:guide>


</sodipodi:namedview>





   <title id="title3">Firefox Logo</title>




   <desc id="desc6">Firefox logo in SVG, authored by Jon Hicks, made in Adobe Illustrator  (file format cleaned up and slightly modified by Doug Schepers)</desc>





   <g id="Firefox" transform="matrix(0.995519,-9.456290e-2,9.456290e-2,0.995519,9.230351,7.931425)">
      



      <filter height="150%" id="blurshadow" width="150%" x="-25%" y="-25%">
         <feGaussianBlur id="feGaussianBlur166" in="SourceAlpha" result="blur" stdDeviation="1.5"></feGaussianBlur>




         <feOffset dx="1" dy="1" id="feOffset168" in="blur" result="shift"></feOffset>




         <feMerge id="feMerge170">
         <feMergeNode id="feMergeNode172" in="shift"></feMergeNode>




         <feMergeNode id="feMergeNode174" in="SourceGraphic"></feMergeNode>




         </feMerge>




      </filter>




      

      

      

   <g id="Globe" transform="matrix(4.167402e-18,-1.000000,1.000000,2.419126e-18,-6.586362,125.5322)">
         

         <radialGradient cx="64.568802" cy="7.2266002" fx="64.568802" fy="7.2266002" gradientUnits="userSpaceOnUse" id="XMLID_61_" r="104.22100" spreadMethod="pad" xlink:href="#linearGradient2532">
            

            

            

            

            

            

            

            

            

            

         </radialGradient>




         <ellipse cx="63.755001" cy="59.375000" id="ellipse38" rx="58.215000" ry="58.254002" sodipodi:cx="63.755001" sodipodi:cy="59.375000" sodipodi:rx="58.215000" sodipodi:ry="58.254002" style="fill:url(#radialGradient7822);fill-opacity:1.0;"></ellipse>




         <radialGradient cx="64.551804" cy="14.174800" fx="64.551804" fy="14.174800" gradientUnits="userSpaceOnUse" id="XMLID_62_" r="52.231701" spreadMethod="pad" xlink:href="#linearGradient2508">
            

            

            

         </radialGradient>




         <path d="M 55.405000,89.446000 C 55.333000,89.130000 54.548000,88.213000 53.947000,88.008000 C 53.348000,87.803000 52.759000,88.892000 52.373000,87.084000 C 51.107000,87.810000 50.561000,86.884000 50.561000,86.884000 C 50.561000,86.884000 49.196000,86.964000 48.932000,88.635000 C 48.282000,89.404000 46.616000,92.201000 47.501000,89.292000 C 48.392000,86.365000 46.561000,89.062000 46.391000,90.532000 C 46.073000,91.185000 45.536000,91.251000 45.874000,88.314000 C 44.701000,87.909000 44.102000,85.187000 44.745000,85.135000 C 43.998000,84.094000 44.585000,82.502000 45.207000,82.587000 C 45.829000,82.667000 46.897000,81.227000 46.864000,80.893000 C 46.831000,80.560000 47.346000,80.798000 47.314000,78.557000 C 47.281000,76.310000 48.161000,75.754000 48.233000,77.633000 C 48.309000,79.505000 49.427000,77.020000 49.312000,76.067000 C 49.196000,75.118000 49.424000,72.973000 50.105000,74.241000 C 49.312000,71.104000 49.938000,70.980000 50.414000,73.068000 C 51.607000,73.162000 51.648000,73.798000 51.648000,73.798000 C 52.969000,73.473000 53.602000,74.468000 53.704000,75.026000 C 54.928000,73.581000 56.164000,75.139000 56.164000,75.139000 C 56.164000,75.139000 57.017000,74.856000 56.609000,76.339000 C 56.199000,77.817000 58.381000,77.017000 57.860000,75.955000 C 58.933000,75.412000 60.526000,77.057000 61.028000,78.179000 C 61.530000,79.306000 60.168000,80.902000 61.230000,81.288000 C 62.298000,81.672000 61.830000,83.530000 61.830000,83.530000 C 61.830000,83.530000 64.062000,84.768000 62.513000,85.831000 L 61.985000,87.096000 C 61.985000,87.096000 62.995000,88.223000 63.339000,87.552000 C 63.683000,86.880000 63.805000,88.235000 63.805000,88.235000 C 63.676000,87.995000 64.053000,89.631000 65.445000,89.975000 C 66.843000,90.316000 67.728000,92.525000 66.176000,92.553000 C 64.630000,92.578000 64.510000,92.536000 64.091000,93.439000 C 63.674000,94.338000 61.700000,94.370000 60.678000,93.206000 C 59.591000,93.574000 57.657000,93.100000 58.226000,92.230000 C 57.288000,92.777000 56.402000,91.308000 57.135000,90.653000 C 57.868000,90.000000 56.723000,89.154000 56.338000,90.090000 C 55.957000,91.025000 53.934000,91.486000 54.075000,89.895000 C 54.117000,89.423000 55.195000,89.147000 55.209000,89.541000 C 55.406000,89.996000 55.486000,89.505000 55.405000,89.446000 z " id="path49" style="fill:url(#radialGradient7823);fill-opacity:1.0000000"></path>




         <g id="g51">
            <radialGradient cx="64.553703" cy="14.175800" fx="64.553703" fy="14.175800" gradientUnits="userSpaceOnUse" id="XMLID_63_" r="52.228901" spreadMethod="pad" xlink:href="#linearGradient2547">
               

               

               

            </radialGradient>




            <path d="M 103.54100,43.916000 C 103.85000,44.222000 104.45800,44.154000 104.79500,44.060000 C 105.13400,43.963000 105.08600,43.723000 105.37800,43.629000 C 105.66500,43.532000 106.77500,44.060000 106.48500,45.213000 C 105.81200,45.307000 105.56800,46.125000 105.56800,46.125000 C 105.56800,46.125000 104.89500,46.412000 104.55500,46.269000 C 104.21700,46.125000 104.21700,46.172000 103.73400,46.219000 C 103.25100,46.269000 102.09100,45.597000 103.34700,45.597000 C 104.60400,45.597000 103.20400,45.020000 102.67200,45.020000 C 102.14200,45.020000 102.57500,44.492000 103.20400,44.636000 C 102.76800,43.916000 103.00900,43.385000 103.54100,43.916000 z " id="path62" style="fill:url(#radialGradient7824);fill-opacity:1.0000000"></path>




            <radialGradient cx="64.548798" cy="14.172400" fx="64.548798" fy="14.172400" gradientUnits="userSpaceOnUse" id="XMLID_64_" r="52.237301" spreadMethod="pad" xlink:href="#linearGradient2551">
               

               

               

            </radialGradient>




            <path d="M 99.188000,46.524000 C 98.851000,46.858000 99.237000,47.868000 99.671000,47.818000 C 100.10400,47.771000 100.78100,47.580000 100.78100,47.580000 C 100.78100,47.580000 101.11800,48.252000 100.78100,48.446000 C 100.44400,48.636000 99.462000,48.552000 100.73400,49.021000 C 102.03800,49.500000 102.37400,49.355000 102.47100,49.115000 C 102.56800,48.877000 103.00100,48.061000 103.24400,48.109000 C 103.43700,47.678000 102.56800,47.294000 103.05200,47.004000 C 103.53100,46.716000 103.14800,45.661000 103.14800,45.661000 C 103.14800,45.661000 102.47100,45.708000 102.18200,46.189000 C 101.89200,46.669000 101.50800,46.142000 101.21800,46.142000 C 101.16900,46.429000 100.97500,46.669000 100.97500,46.669000 L 100.78200,46.235000 C 100.78100,46.234000 99.428000,46.188000 99.188000,46.524000 z " id="path73" style="fill:url(#radialGradient7825);fill-opacity:1.0000000"></path>




         </g>




         <radialGradient cx="65.405296" cy="19.120100" fx="65.405296" fy="19.120100" gradientUnits="userSpaceOnUse" id="XMLID_65_" r="57.382702" spreadMethod="pad" xlink:href="#linearGradient1882">
            

            

            

            

         </radialGradient>




         <path d="M 90.165000,47.314000 C 90.123000,47.191000 90.549000,46.694000 90.435000,47.338000 C 90.173000,47.796000 91.493000,48.208000 91.863000,47.698000 C 93.104000,45.998000 90.693000,45.176000 89.647000,45.966000 C 88.591000,46.763000 88.009000,45.054000 89.222000,44.811000 C 90.431000,44.566000 90.533000,42.381000 89.201000,42.373000 C 90.377000,41.793000 88.748000,40.055000 87.402000,39.758000 C 87.185000,37.888000 85.213000,36.699000 84.176000,37.378000 C 83.129000,38.059000 83.039000,37.939000 81.505000,37.008000 C 79.977000,36.081000 79.241000,38.936000 80.365000,40.183000 C 81.496000,41.439000 80.676000,43.464000 80.723000,43.118000 C 80.723000,43.118000 80.297000,43.884000 80.325000,44.171000 C 79.031000,44.610000 78.653000,42.788000 77.850000,42.385000 C 77.265000,43.148000 76.320000,43.555000 76.320000,43.555000 L 76.391000,42.002000 C 76.391000,42.002000 72.374000,39.814000 71.140000,40.427000 C 69.619000,40.897000 69.259000,44.418000 70.640000,44.933000 C 72.023000,45.454000 68.905000,46.751000 72.033000,50.049000 C 75.246000,53.435000 76.488000,53.532000 77.144000,52.981000 C 77.306000,52.842000 77.586000,52.634000 77.928000,52.403000 C 77.959000,52.533000 78.011000,52.658000 78.091000,52.776000 C 78.895000,53.985000 76.222000,54.938000 75.849000,56.670000 C 75.470000,58.421000 75.819000,61.677000 77.405000,61.788000 C 77.707000,60.053000 80.675000,60.666000 79.060000,62.238000 C 77.416000,63.841000 78.569000,64.124000 78.569000,64.124000 C 78.569000,64.124000 78.647000,67.127000 81.161000,66.167000 C 81.088000,66.339000 81.029000,66.559000 80.994000,66.799000 C 80.291000,66.657000 78.573000,66.442000 78.153000,67.640000 C 77.623000,69.152000 75.379000,67.128000 73.809000,67.807000 C 72.246000,68.481000 69.965000,70.694000 70.733000,72.250000 C 72.209000,71.550000 73.339000,74.706000 71.277000,74.058000 C 69.208000,73.408000 69.610000,74.641000 69.610000,74.641000 C 69.610000,74.641000 67.456000,76.340000 69.473000,78.149000 C 68.698000,78.267000 67.321000,79.130000 67.785000,81.023000 C 67.785000,81.023000 66.900000,81.055000 66.781000,82.749000 C 63.894000,83.331000 64.070000,84.227000 68.414000,83.245000 C 66.661000,84.155000 69.640000,84.583000 70.960000,84.462000 C 72.282000,84.342000 75.752000,86.053000 73.145000,86.070000 C 70.533000,86.086000 71.311000,87.364000 74.439000,87.425000 C 77.562000,87.489000 77.234000,88.213000 77.698000,88.181000 C 78.162000,88.149000 80.182000,89.742000 80.072000,90.625000 C 79.959000,91.509000 82.188000,92.426000 83.638000,91.413000 C 83.712000,92.332000 87.524000,91.615000 88.088000,89.958000 C 92.216000,90.589000 92.121000,89.819000 91.202000,89.329000 C 89.135000,89.013000 85.342000,86.266000 89.456000,87.679000 C 93.549000,89.090000 89.606000,86.569000 88.527000,85.600000 C 86.177000,85.143000 86.057000,83.184000 86.057000,83.184000 C 86.057000,83.184000 87.355000,82.445000 86.331000,80.598000 C 88.870000,80.127000 87.337000,79.234000 87.622000,78.383000 C 87.907000,77.529000 89.196000,76.441000 89.638000,76.353000 C 89.722000,76.238000 90.413000,76.376000 89.772000,76.636000 C 89.218000,76.642000 89.611000,78.202000 90.274000,78.282000 C 92.516000,78.555000 91.860000,75.628000 90.543000,75.039000 C 89.223000,74.445000 90.408000,72.835000 91.335000,73.919000 C 92.262000,75.001000 94.328000,73.786000 93.553000,72.415000 C 94.785000,73.269000 95.449000,70.506000 94.925000,68.920000 C 96.573000,67.491000 96.520000,64.642000 95.245000,64.005000 C 94.618000,63.692000 94.315000,63.489000 94.163000,63.100000 C 94.920000,62.742000 95.924000,62.478000 96.318000,62.831000 C 96.959000,63.410000 98.743000,61.813000 98.630000,59.946000 C 99.381000,60.358000 100.57700,56.551000 99.561000,55.219000 C 101.88700,51.967000 101.26000,51.672000 100.48200,52.217000 C 99.312000,53.839000 95.469000,55.780000 98.448000,52.905000 C 101.34000,50.114000 97.679000,52.230000 96.454000,52.683000 C 95.013000,54.488000 93.484000,53.621000 93.484000,53.621000 C 93.484000,53.621000 93.549000,52.142000 91.688000,52.112000 C 92.548000,49.739000 91.162000,50.596000 90.677000,49.948000 C 90.191000,49.301000 90.016000,47.719000 90.165000,47.314000 z " id="path87" style="fill:url(#radialGradient7826)"></path>




         <radialGradient cx="64.550797" cy="14.173300" fx="64.550797" fy="14.173300" gradientUnits="userSpaceOnUse" id="XMLID_66_" r="52.233299" spreadMethod="pad" xlink:href="#linearGradient2555">
            

            

            

         </radialGradient>




         <path d="M 60.007000,23.541000 C 59.646000,24.482000 61.185000,26.011000 61.958000,25.519000 C 62.733000,25.024000 63.843000,24.037000 63.843000,24.037000 C 63.843000,24.037000 65.020000,24.982000 64.544000,25.656000 C 64.065000,26.328000 62.158000,27.084000 64.918000,26.778000 C 67.749000,26.465000 68.265000,25.881000 68.251000,25.341000 C 68.236000,24.803000 68.392000,22.872000 68.882000,22.738000 C 68.897000,21.748000 66.957000,21.840000 67.629000,20.849000 C 68.301000,19.863000 66.724000,18.243000 66.724000,18.243000 C 66.724000,18.243000 65.496000,18.962000 65.342000,20.131000 C 65.187000,21.298000 64.038000,20.669000 63.494000,20.937000 C 63.635000,21.521000 63.468000,22.149000 63.468000,22.149000 L 62.757000,21.520000 C 62.758000,21.519000 60.186000,22.688000 60.007000,23.541000 z " id="path98" style="fill:url(#radialGradient7827);fill-opacity:1.0000000"></path>




         <radialGradient cx="64.551804" cy="14.164600" fx="64.551804" fy="14.164600" gradientUnits="userSpaceOnUse" id="XMLID_67_" r="52.241501" spreadMethod="pad" xlink:href="#linearGradient2559">
            

            

            

         </radialGradient>




         <path d="M 64.610000,72.966000 C 64.273000,73.300000 64.660000,74.309000 65.093000,74.262000 C 65.527000,74.213000 66.203000,74.022000 66.203000,74.022000 C 66.203000,74.022000 66.540000,74.694000 66.203000,74.887000 C 65.864000,75.077000 64.884000,74.995000 66.154000,75.462000 C 67.457000,75.942000 67.796000,75.798000 67.893000,75.558000 C 67.988000,75.318000 68.422000,74.502000 68.664000,74.549000 C 68.859000,74.118000 67.988000,73.735000 68.471000,73.447000 C 68.954000,73.156000 68.570000,72.101000 68.570000,72.101000 C 68.570000,72.101000 67.894000,72.149000 67.604000,72.630000 C 67.314000,73.109000 66.928000,72.581000 66.638000,72.581000 C 66.589000,72.869000 66.398000,73.109000 66.398000,73.109000 L 66.205000,72.678000 C 66.204000,72.678000 64.851000,72.630000 64.610000,72.966000 z " id="path109" style="fill:url(#radialGradient7828);fill-opacity:1.0000000"></path>




         <g id="g111" sodipodi:insensitive="true">
            <defs id="defs113">
               <ellipse cx="63.755001" cy="59.375000" id="XMLID_8_" rx="58.215000" ry="58.254002" sodipodi:cx="63.755001" sodipodi:cy="59.375000" sodipodi:rx="58.215000" sodipodi:ry="58.254002"></ellipse>




            </defs>




            <clipPath id="XMLID_68_">
            <use height="127.21900" id="use120" width="132.72000" x="0.0000000" xlink:href="#XMLID_8_" y="0.0000000"></use>




            </clipPath>




            <linearGradient gradientUnits="userSpaceOnUse" id="XMLID_69_" spreadMethod="pad" x1="76.371597" x2="93.231796" xlink:href="#linearGradient2563" y1="16.591801" y2="18.029301">
               

               

               

            </linearGradient>




            <path clip-path="url(#XMLID_68_)" d="M 65.061000,1.0020000 C 64.149000,1.2050000 65.674000,4.5050000 65.674000,4.5050000 C 65.674000,4.5050000 65.619000,6.7210000 65.995000,6.8340000 C 66.369000,6.9470000 68.847000,7.5670000 70.142000,9.1790000 C 71.443000,10.793000 70.767000,11.642000 69.684000,11.176000 C 68.600000,10.711000 68.887000,12.135000 68.887000,12.135000 C 68.887000,12.135000 72.157000,13.198000 69.687000,13.130000 C 67.212000,13.064000 71.353000,14.871000 71.080000,15.060000 C 70.807000,15.251000 70.651000,16.291000 70.651000,16.291000 C 70.651000,16.291000 68.468000,16.473000 70.318000,17.250000 C 76.578000,19.887000 69.649000,19.175000 69.649000,19.175000 L 68.765000,20.262000 L 70.514000,22.456000 L 71.859000,23.418000 C 71.859000,23.418000 74.692000,22.473000 75.575000,22.325000 C 76.459000,22.179000 78.689000,20.510000 78.689000,20.510000 C 78.689000,20.510000 79.358000,20.988000 78.858000,20.013000 C 78.357000,19.037000 80.699000,19.473000 81.283000,20.199000 L 85.417000,22.066000 C 85.471000,22.210000 85.563000,22.340000 85.709000,22.441000 C 86.515000,23.006000 84.980000,23.976000 85.136000,25.003000 C 85.292000,26.019000 86.229000,27.707000 87.257000,27.529000 C 87.077000,26.560000 89.108000,26.443000 88.401000,27.523000 C 87.695000,28.600000 88.478000,28.579000 88.478000,28.579000 C 88.478000,28.579000 89.131000,30.100000 90.512000,29.255000 C 90.456000,29.719000 90.739000,30.652000 91.925000,30.714000 C 91.925000,30.714000 91.799000,31.220000 92.773000,31.579000 C 92.641000,33.316000 93.197000,33.371000 93.334000,30.733000 C 93.579000,31.890000 94.326000,30.262000 94.475000,29.483000 C 94.625000,28.699000 96.231000,26.978000 95.797000,28.499000 C 95.366000,30.007000 100.53200,30.559000 101.10500,28.758000 C 101.68300,26.943000 103.74200,25.995000 103.80400,25.720000 C 103.86600,25.439000 99.221000,25.008000 99.734000,25.227000 C 100.24800,25.446000 101.20400,24.279000 100.84900,23.241000 C 101.42500,23.357000 101.67900,20.940000 100.76600,20.314000 C 101.90900,17.909000 101.41700,17.834000 100.94800,18.313000 C 100.37800,19.518000 98.026000,21.336000 99.621000,19.096000 C 101.23000,16.833000 98.968000,18.812000 98.183000,19.304000 C 97.494000,20.645000 96.284000,20.384000 96.284000,20.384000 C 96.284000,20.384000 96.062000,19.473000 94.768000,19.777000 C 94.919000,18.165000 94.115000,18.939000 93.648000,18.623000 C 93.363000,18.430000 93.090000,17.996000 92.922000,17.624000 C 94.037000,18.076000 95.534000,18.557000 95.276000,17.728000 C 95.109000,17.186000 97.388000,18.371000 97.468000,18.124000 L 100.31600,17.728000 L 103.08500,15.978000 C 85.388000,0.16400000 65.061000,1.0020000 65.061000,1.0020000 z " id="path132" style="fill:url(#linearGradient7829);fill-opacity:1.0000000"></path>




            <linearGradient gradientUnits="userSpaceOnUse" id="XMLID_70_" spreadMethod="pad" x1="38.491699" x2="29.173901" xlink:href="#linearGradient2567" y1="19.146999" y2="32.832401">
               

               

               

            </linearGradient>




            <path clip-path="url(#XMLID_68_)" d="M 38.752000,6.0950000 C 28.179000,10.842000 20.201000,20.626000 20.201000,20.626000 C 20.201000,20.626000 21.139000,22.771000 21.466000,22.613000 C 21.796000,22.457000 19.105000,28.241000 21.080000,28.567000 C 23.065000,28.892000 28.776000,24.989000 27.717000,25.347000 C 26.661000,25.703000 28.312000,23.235000 28.312000,23.235000 C 28.312000,23.235000 31.284000,21.917000 29.526000,23.437000 C 27.783000,24.948000 31.844000,23.624000 31.781000,23.933000 C 31.717000,24.244000 32.306000,25.080000 32.306000,25.080000 C 32.306000,25.080000 30.913000,26.574000 32.712000,25.972000 C 38.884000,23.897000 33.524000,27.751000 33.524000,27.751000 L 33.630000,29.063000 L 36.300000,29.527000 L 37.878000,29.377000 C 37.878000,29.377000 39.259000,26.941000 39.792000,26.279000 C 40.327000,25.616000 40.820000,22.995000 40.820000,22.995000 C 40.820000,22.995000 41.623000,22.911000 40.607000,22.527000 C 39.591000,22.142000 41.579000,20.944000 42.493000,21.093000 L 46.796000,19.757000 C 46.934000,19.825000 47.088000,19.860000 47.266000,19.839000 C 48.251000,19.725000 47.755000,21.442000 48.560000,22.089000 C 49.356000,22.733000 51.187000,23.353000 51.843000,22.558000 C 51.059000,21.964000 52.517000,20.547000 52.703000,21.807000 C 52.890000,23.056000 53.470000,22.530000 53.470000,22.530000 C 53.470000,22.530000 55.013000,19.876000 55.506000,18.353000 C 55.776000,18.730000 58.294000,15.044000 57.531000,13.286000 C 56.760000,11.506000 58.010000,9.8300000 57.871000,9.5710000 C 57.728000,9.3150000 56.975000,10.099000 57.531000,9.9110000 C 58.092000,9.7190000 55.942000,10.683000 55.657000,7.8500000 C 55.369000,4.9600000 54.950000,8.0930000 54.672000,9.0190000 C 55.049000,10.527000 58.962000,2.9260000 58.962000,2.9260000 L 64.006000,0.86900000 C 64.006000,0.87300000 52.525000,-0.088000000 38.752000,6.0950000 z " id="path143" style="fill:url(#linearGradient7830);fill-opacity:1.0000000"></path>




         </g>




         <linearGradient gradientUnits="userSpaceOnUse" id="XMLID_71_" spreadMethod="pad" x1="62.651901" x2="62.651901" xlink:href="#linearGradient2525" y1="34.546398" y2="11.895100">
            

            

            

            

            

            

         </linearGradient>




         

      </g>


<path d="M 136.25727 63.704041 A 68.590004 64.745277 0 1 1  -0.92273712,63.704041 A 68.590004 64.745277 0 1 1  136.25727 63.704041 z" id="path8474" sodipodi:cx="67.667267" sodipodi:cy="63.704041" sodipodi:rx="68.590004" sodipodi:ry="64.745277" sodipodi:type="arc" style="fill:url(#radialGradient9111);fill-opacity:1.0000000;fill-rule:evenodd;stroke:none;stroke-width:1.0000000pt;stroke-linecap:butt;stroke-linejoin:miter;stroke-opacity:1.0000000" transform="matrix(0.939935,5.066765e-3,5.305702e-3,0.928900,-12.34586,1.440769)"></path>


</g>




</svg>
