<?xml version="1.0" encoding="UTF-8" standalone="no"?>
<!-- Created with Inkscape (http://www.inkscape.org/) --><svg height="190.00000" id="svg2" inkscape:version="0.41" sodipodi:docbase="/home/nicu/Desktop/cards" sodipodi:docname="back08.svg" sodipodi:version="0.32" version="1.0" width="140.00000" x="0.0000000" xmlns="http://www.w3.org/2000/svg" xmlns:cc="http://web.resource.org/cc/" xmlns:dc="http://purl.org/dc/elements/1.1/" xmlns:inkscape="http://www.inkscape.org/namespaces/inkscape" xmlns:rdf="http://www.w3.org/1999/02/22-rdf-syntax-ns#" xmlns:sodipodi="http://inkscape.sourceforge.net/DTD/sodipodi-0.dtd" xmlns:svg="http://www.w3.org/2000/svg" xmlns:xlink="http://www.w3.org/1999/xlink" y="0.0000000">
  <metadata>
    <rdf:RDF xmlns:cc="http://web.resource.org/cc/" xmlns:dc="http://purl.org/dc/elements/1.1/" xmlns:rdf="http://www.w3.org/1999/02/22-rdf-syntax-ns#">
      <cc:Work rdf:about="">
        <dc:title>card</dc:title>
        <dc:description></dc:description>
        <dc:subject>
          <rdf:Bag>
            <rdf:li>card</rdf:li>
            <rdf:li>back</rdf:li>
          </rdf:Bag>
        </dc:subject>
        <dc:publisher>
          <cc:Agent rdf:about="http://www.openclipart.org/">
            <dc:title>Open Clip Art Library</dc:title>
          </cc:Agent>
        </dc:publisher>
        <dc:creator>
          <cc:Agent>
            <dc:title>Nicu Buculei</dc:title>
          </cc:Agent>
        </dc:creator>
        <dc:rights>
          <cc:Agent>
            <dc:title>Nicu Buculei</dc:title>
          </cc:Agent>
        </dc:rights>
        <dc:date></dc:date>
        <dc:format>image/svg+xml</dc:format>
        <dc:type rdf:resource="http://purl.org/dc/dcmitype/StillImage"/>
        <cc:license rdf:resource="http://web.resource.org/cc/PublicDomain"/>
        <dc:language>en</dc:language>
      </cc:Work>
      <cc:License rdf:about="http://web.resource.org/cc/PublicDomain">
        <cc:permits rdf:resource="http://web.resource.org/cc/Reproduction"/>
        <cc:permits rdf:resource="http://web.resource.org/cc/Distribution"/>
        <cc:permits rdf:resource="http://web.resource.org/cc/DerivativeWorks"/>
      </cc:License>
    </rdf:RDF>
  </metadata>
  <sodipodi:namedview bordercolor="#666666" borderopacity="1.0" id="base" inkscape:current-layer="svg2" inkscape:cx="70.000000" inkscape:cy="95.000000" inkscape:pageopacity="0.0" inkscape:pageshadow="2" inkscape:window-height="791" inkscape:window-width="1152" inkscape:window-x="0" inkscape:window-y="26" inkscape:zoom="1.0000000" pagecolor="#ffffff"/>
  <defs id="defs3">
    <linearGradient id="linearGradient8308">
      <stop id="stop8314" offset="0.0000000" style="stop-color:#830007;stop-opacity:1.0000000;"/>
      <stop id="stop8316" offset="1.0000000" style="stop-color:#ff0000;stop-opacity:1.0000000;"/>
    </linearGradient>
    <linearGradient id="linearGradient2060">
      <stop id="stop2062" offset="0.0000000" style="stop-color:#ebf0d0;stop-opacity:1.0000000;"/>
      <stop id="stop2064" offset="1.0000000" style="stop-color:#ffffeb;stop-opacity:1.0000000;"/>
    </linearGradient>
    <linearGradient gradientTransform="translate(0.000000,-1.000000)" gradientUnits="userSpaceOnUse" id="linearGradient4853" x1="2.0000000" x2="109.00000" xlink:href="#linearGradient2060" y1="63.099518" y2="128.69501"/>
    <linearGradient gradientTransform="scale(0.854242,1.170628)" gradientUnits="userSpaceOnUse" id="linearGradient8318" x1="138.23376" x2="36.519855" xlink:href="#linearGradient8308" y1="146.61710" y2="18.728254"/>
    <linearGradient gradientTransform="scale(0.855373,1.169081)" gradientUnits="userSpaceOnUse" id="linearGradient9086" x1="22.029089" x2="146.39938" xlink:href="#linearGradient8308" y1="17.152563" y2="140.45406"/>
    <linearGradient gradientTransform="scale(1.130132,0.884852)" gradientUnits="userSpaceOnUse" id="linearGradient5604" x1="96.483070" x2="21.316402" xlink:href="#linearGradient8308" y1="145.20065" y2="62.768166"/>
    <linearGradient gradientTransform="scale(1.131842,0.883515)" gradientUnits="userSpaceOnUse" id="linearGradient5592" x1="31.777254" x2="96.605362" xlink:href="#linearGradient8308" y1="69.896172" y2="143.28015"/>
    <linearGradient gradientTransform="scale(3.018130,0.331331)" gradientUnits="userSpaceOnUse" id="linearGradient1469" x1="-14.811357" x2="-19.597466" xlink:href="#linearGradient8308" y1="236.48587" y2="369.85428"/>
    <linearGradient gradientTransform="scale(2.951602,0.338799)" gradientUnits="userSpaceOnUse" id="linearGradient1471" x1="-8.6704397" x2="-6.5410118" xlink:href="#linearGradient8308" y1="405.74072" y2="279.00073"/>
    <linearGradient gradientTransform="scale(0.885071,1.129853)" gradientUnits="userSpaceOnUse" id="linearGradient2481" inkscape:collect="always" x1="24.314270" x2="128.44019" xlink:href="#linearGradient8308" y1="31.254068" y2="134.97331"/>
    <linearGradient gradientTransform="translate(0.000000,-1.000000)" gradientUnits="userSpaceOnUse" id="linearGradient4520" inkscape:collect="always" x1="2.0000000" x2="109.00000" xlink:href="#linearGradient2060" y1="63.099518" y2="128.69501"/>
    <linearGradient gradientTransform="scale(0.854242,1.170628)" gradientUnits="userSpaceOnUse" id="linearGradient4522" inkscape:collect="always" x1="138.23376" x2="36.519855" xlink:href="#linearGradient8308" y1="146.61710" y2="18.728254"/>
    <linearGradient gradientTransform="scale(0.855373,1.169081)" gradientUnits="userSpaceOnUse" id="linearGradient4524" inkscape:collect="always" x1="22.029089" x2="146.39938" xlink:href="#linearGradient8308" y1="17.152563" y2="140.45406"/>
  </defs>
  <g id="g4503">
    <g id="g4505">
      <path d="M 21.000000,5.0000000 L 124.00000,5.0000000 C 132.86400,5.0000000 140.00000,12.136000 140.00000,21.000000 L 140.00000,174.00000 C 140.00000,182.86400 132.86400,190.00000 124.00000,190.00000 L 21.000000,190.00000 C 12.136000,190.00000 5.0000000,182.86400 5.0000000,174.00000 L 5.0000000,21.000000 C 5.0000000,12.136000 12.136000,5.0000000 21.000000,5.0000000 z " id="path4507" style="fill:#000000;fill-opacity:0.49803922;stroke:none;stroke-width:0.20000000;stroke-miterlimit:4.0000000;stroke-dashoffset:0.0000000;stroke-opacity:1.0000000"/>
      <path d="M 17.000000,1.0000000 L 120.00000,1.0000000 C 128.86400,1.0000000 136.00000,8.1360000 136.00000,17.000000 L 136.00000,170.00000 C 136.00000,178.86400 128.86400,186.00000 120.00000,186.00000 L 17.000000,186.00000 C 8.1360000,186.00000 1.0000000,178.86400 1.0000000,170.00000 L 1.0000000,17.000000 C 1.0000000,8.1360000 8.1360000,1.0000000 17.000000,1.0000000 z " id="path4509" style="fill:#ffffff;fill-opacity:1.0000000;stroke:none;stroke-width:0.20000000;stroke-miterlimit:4.0000000;stroke-dashoffset:0.0000000;stroke-opacity:1.0000000"/>
      <path d="M 19.000000,3.0000000 L 122.00000,3.0000000 C 130.86400,3.0000000 138.00000,10.136000 138.00000,19.000000 L 138.00000,172.00000 C 138.00000,180.86400 130.86400,188.00000 122.00000,188.00000 L 19.000000,188.00000 C 10.136000,188.00000 3.0000000,180.86400 3.0000000,172.00000 L 3.0000000,19.000000 C 3.0000000,10.136000 10.136000,3.0000000 19.000000,3.0000000 z " id="path4511" style="fill:#c7891f;fill-opacity:1.0000000;stroke:none;stroke-width:0.20000000;stroke-miterlimit:4.0000000;stroke-dashoffset:0.0000000;stroke-opacity:1.0000000"/>
      <path d="M 18.000000,1.9999995 L 121.00000,1.9999995 C 129.86400,1.9999995 137.00000,9.1359995 137.00000,18.000000 L 137.00000,171.00000 C 137.00000,179.86400 129.86400,187.00000 121.00000,187.00000 L 18.000000,187.00000 C 9.1360000,187.00000 2.0000000,179.86400 2.0000000,171.00000 L 2.0000000,18.000000 C 2.0000000,9.1359995 9.1360000,1.9999995 18.000000,1.9999995 z " id="path4513" style="fill:url(#linearGradient4520);fill-opacity:1.0000000;stroke:none;stroke-width:0.20000000;stroke-miterlimit:4.0000000;stroke-dashoffset:0.0000000;stroke-opacity:1.0000000"/>
    </g>
    <path d="M 22.166666,10.000000 L 116.58333,10.000000 C 124.70867,10.000000 131.25000,16.541333 131.25000,24.666666 L 131.25000,164.91666 C 131.25000,173.04200 124.70867,179.58333 116.58333,179.58333 L 22.166666,179.58333 C 14.041333,179.58333 7.5000000,173.04200 7.5000000,164.91666 L 7.5000000,24.666666 C 7.5000000,16.541333 14.041333,10.000000 22.166666,10.000000 z " id="path4515" style="fill:url(#linearGradient4522);fill-opacity:1.0000000;stroke:none;stroke-width:0.20000000;stroke-miterlimit:4.0000000;stroke-dashoffset:0.0000000;stroke-opacity:1.0000000"/>
    <path d="M 22.156250,9.3750000 C 13.695478,9.3750000 6.8750000,16.195478 6.8750000,24.656250 L 6.8750000,164.90625 C 6.8750000,173.36703 13.695478,180.21875 22.156250,180.21875 L 116.59375,180.21875 C 125.05453,180.21875 131.87500,173.36703 131.87500,164.90625 L 131.87500,24.656250 C 131.87500,16.195478 125.05453,9.3750000 116.59375,9.3750000 L 22.156250,9.3750000 z M 22.156250,10.625000 L 116.59375,10.625000 C 124.38365,10.625000 130.62500,16.866356 130.62500,24.656250 L 130.62500,164.90625 C 130.62500,172.69615 124.38365,178.96875 116.59375,178.96875 L 22.156250,178.96875 C 14.366356,178.96875 8.1250000,172.69615 8.1250000,164.90625 L 8.1250000,24.656250 C 8.1250000,16.866356 14.366356,10.625000 22.156250,10.625000 z " id="path4517" style="fill:url(#linearGradient4524);fill-opacity:1.0000000;stroke:none;stroke-width:1.2500000;stroke-miterlimit:4.0000000;stroke-dashoffset:0.0000000;stroke-opacity:1.0000000"/>
    <path d="M 38.906250,21.250000 C 33.180229,21.250000 28.531250,28.263310 28.531250,36.906250 C 28.531250,44.269419 37.960050,56.647920 37.593750,62.531250 C 34.565261,64.212549 25.210700,48.718750 20.375000,48.718750 C 14.648980,48.718749 10.000000,55.732060 10.000000,64.375000 C 10.000000,73.017958 14.648980,80.031250 20.375000,80.031250 C 25.341120,80.031252 33.849840,64.506650 37.593750,65.906250 C 37.663741,67.913271 37.460430,86.417350 36.406250,87.750000 C 34.127049,90.631234 31.250000,90.437500 31.250000,90.437500 L 31.312500,93.593750 L 46.375000,93.500000 L 46.437500,90.343750 C 46.437511,90.343749 43.591700,90.568730 41.312500,87.687500 C 40.263789,86.361732 39.789450,66.665370 39.781250,66.031250 L 39.875000,66.031250 L 39.875000,66.062500 C 43.541409,64.687870 52.350310,80.312480 57.281250,80.312500 C 63.007280,80.312497 67.656260,73.299210 67.656250,64.656250 C 67.656246,56.013303 63.007280,49.000000 57.281250,49.000000 C 52.465250,49.000001 43.739690,64.261590 39.906250,62.687500 C 39.960108,56.659078 49.281250,44.261320 49.281250,36.906250 C 49.281249,28.263309 44.632280,21.250000 38.906250,21.250000 z M 98.500000,25.156250 C 89.639806,42.874480 83.169570,52.022270 69.843750,61.781250 C 82.454634,71.423121 91.346580,81.392350 98.750000,97.500000 C 105.36265,82.197630 113.44812,70.795660 127.50000,61.312500 C 113.36529,54.116220 105.19547,42.697780 98.500000,25.156250 z M 25.125000,98.750000 C 23.406005,98.761561 21.528535,99.204993 19.437500,100.15625 C -3.3566500,117.86996 27.368941,146.44082 40.343750,170.96875 L 40.718750,171.09375 C 54.977599,144.28398 82.115020,114.77595 61.375000,100.15625 C 44.944213,92.681541 40.559584,117.54040 40.406250,118.43750 C 40.272434,117.65456 36.913381,98.670728 25.125000,98.750000 z M 99.000000,98.906250 C 88.425081,115.72021 55.974747,144.37883 76.531250,153.21875 C 89.009294,157.28810 94.953715,148.95255 97.468750,143.43750 L 97.968750,143.43750 C 97.949827,144.47452 97.478192,164.73721 96.156250,165.93750 C 93.255971,168.57084 89.593750,168.37500 89.593750,168.37500 L 89.656250,171.25000 L 108.87500,171.15625 L 108.93750,168.34375 C 108.93750,168.34375 105.30653,168.50834 102.40625,165.87500 C 101.08412,164.67455 100.58132,144.42943 100.56250,143.40625 L 100.78125,143.40625 C 102.81267,147.91276 110.52054,157.24038 119.00000,153.68750 C 143.79457,143.72788 107.29153,115.37123 99.000000,98.906250 z " id="path4078" style="fill:url(#linearGradient2481);fill-opacity:1.0000000;fill-rule:evenodd;stroke:none;stroke-width:1.0000000pt;stroke-linecap:butt;stroke-linejoin:miter;stroke-opacity:1.0000000"/>
  </g>
</svg>
