<?xml version="1.0" encoding="UTF-8" standalone="no"?>
<!DOCTYPE svg PUBLIC "-//W3C//DTD SVG 1.0//EN"
"http://www.w3.org/TR/2001/REC-SVG-20010904/DTD/svg10.dtd">
<!-- Created with Sodipodi ("http://www.sodipodi.com/") --><svg height="437.5" id="svg1" version="1.0" width="437.5" x="0" xmlns="http://www.w3.org/2000/svg" xmlns:xlink="http://www.w3.org/1999/xlink" y="0">
  <metadata>
    <rdf:RDF xmlns:cc="http://web.resource.org/cc/" xmlns:dc="http://purl.org/dc/elements/1.1/" xmlns:rdf="http://www.w3.org/1999/02/22-rdf-syntax-ns#">
      <cc:Work rdf:about="">
        <dc:title>Lemon SVG theme</dc:title>
        <dc:description></dc:description>
        <dc:subject>
          <rdf:Bag>
            <rdf:li>icon</rdf:li>
            <rdf:li></rdf:li>
            <rdf:li>lemon_theme_icon</rdf:li>
            <rdf:li>icons</rdf:li>
            <rdf:li>hash</rdf:li>
            <rdf:li>action</rdf:li>
            <rdf:li>computer</rdf:li>
            <rdf:li>theme</rdf:li>
          </rdf:Bag>
        </dc:subject>
        <dc:publisher>
          <cc:Agent rdf:about="http://www.openclipart.org">
            <dc:title>Jose Hevia</dc:title>
          </cc:Agent>
        </dc:publisher>
        <dc:creator>
          <cc:Agent>
            <dc:title>Jose Hevia</dc:title>
          </cc:Agent>
        </dc:creator>
        <dc:rights>
          <cc:Agent>
            <dc:title>Jose Hevia</dc:title>
          </cc:Agent>
        </dc:rights>
        <dc:date></dc:date>
        <dc:format>image/svg+xml</dc:format>
        <dc:type rdf:resource="http://purl.org/dc/dcmitype/StillImage"/>
        <cc:license rdf:resource="http://web.resource.org/cc/PublicDomain"/>
        <dc:language>en</dc:language>
      </cc:Work>
      <cc:License rdf:about="http://web.resource.org/cc/PublicDomain">
        <cc:permits rdf:resource="http://web.resource.org/cc/Reproduction"/>
        <cc:permits rdf:resource="http://web.resource.org/cc/Distribution"/>
        <cc:permits rdf:resource="http://web.resource.org/cc/DerivativeWorks"/>
      </cc:License>
    </rdf:RDF>
  </metadata>
  <defs id="defs3">
    <linearGradient id="linearGradient500">
      <stop id="stop501" offset="0" style="stop-color:#3a372d;stop-opacity:0.2706;"/>
      <stop id="stop502" offset="1" style="stop-color:#000700;stop-opacity:0.6863;"/>
    </linearGradient>
    <linearGradient id="linearGradient496">
      <stop id="stop497" offset="0" style="stop-color:#bfffb5;stop-opacity:0.3843;"/>
      <stop id="stop498" offset="1" style="stop-color:#ffffff;stop-opacity:0.5216;"/>
    </linearGradient>
    <linearGradient id="linearGradient74">
      <stop id="stop75" offset="0" style="stop-color:#f7ffff;stop-opacity:0.1137;"/>
      <stop id="stop76" offset="1" style="stop-color:#ffffff;stop-opacity:0.7412;"/>
    </linearGradient>
    <linearGradient id="linearGradient80">
      <stop id="stop81" offset="0" style="stop-color:#f79d85;stop-opacity:1;"/>
      <stop id="stop82" offset="1" style="stop-color:#9e453f;stop-opacity:1;"/>
    </linearGradient>
    <linearGradient id="linearGradient76">
      <stop id="stop77" offset="0" style="stop-color:#fa1d2f;stop-opacity:0.2784;"/>
      <stop id="stop78" offset="1" style="stop-color:#cddfff;stop-opacity:1;"/>
    </linearGradient>
    <linearGradient id="linearGradient72">
      <stop id="stop73" offset="0" style="stop-color:#e52f32;stop-opacity:0.6;"/>
      <stop id="stop74" offset="1" style="stop-color:#ebd77d;stop-opacity:0.6;"/>
    </linearGradient>
    <linearGradient id="linearGradient67">
      <stop id="stop68" offset="0" style="stop-color:#ffff72;stop-opacity:1;"/>
      <stop id="stop69" offset="1" style="stop-color:#ffffed;stop-opacity:1;"/>
    </linearGradient>
    <linearGradient id="linearGradient63">
      <stop id="stop64" offset="0" style="stop-color:#000000;stop-opacity:1;"/>
      <stop id="stop65" offset="1" style="stop-color:#ffffff;stop-opacity:1;"/>
    </linearGradient>
    <linearGradient id="linearGradient59">
      <stop id="stop60" offset="0" style="stop-color:#000000;stop-opacity:1;"/>
      <stop id="stop61" offset="1" style="stop-color:#ffffff;stop-opacity:1;"/>
    </linearGradient>
    <linearGradient id="linearGradient62" x1="0.30232561" x2="0.61240298" xlink:href="#linearGradient496" y1="0.69531333" y2="0.69531292"/>
    <linearGradient id="linearGradient66" xlink:href="#linearGradient67"/>
    <linearGradient id="linearGradient71" xlink:href="#linearGradient72"/>
    <linearGradient id="linearGradient75" x1="6.99609965e-2" x2="0.473937" xlink:href="#linearGradient76" y1="0.89142901" y2="0.125714"/>
    <linearGradient id="linearGradient79" x1="0.76292002" x2="0.510517" xlink:href="#linearGradient80" y1="7.99999982e-2" y2="0.41714299"/>
    <linearGradient id="linearGradient73" x1="0.398693" x2="0.496732" xlink:href="#linearGradient74" y1="1.03769004" y2="-1.04676997e-2"/>
    <linearGradient id="linearGradient495" x1="0.26932701" x2="0.58059698" xlink:href="#linearGradient496" y1="0.23999999" y2="0.491429"/>
    <linearGradient id="linearGradient505" x1="0.63817698" x2="0.46477899" xlink:href="#linearGradient500" y1="0.36571401" y2="0.45714301"/>
    <linearGradient id="linearGradient509" x1="0" x2="1" xlink:href="#linearGradient500" y1="0" y2="1"/>
  </defs>
  <path d="M 20.16692 415.9949 C 118.5985 415.6618 304.4117 415.266 406.4689 415.7495 C 405.957 325.3002 405.4994 64.46039 406.0117 25.34276 C 340.4782 25.63971 82.45261 24.74947 22.1851 25.04622 C 23.31135 51.22362 19.20507 362.6984 20.16692 415.9949 z " id="path580" style="font-size:12;fill:#ffffff;fill-opacity:1;fill-rule:evenodd;stroke:#007f00;stroke-width:25.89924;stroke-linejoin:bevel;"/>
  <path d="M 364.1632 57.44912 C 377.2384 69.58749 388.5736 175.5506 356.0064 207.5171 C 335.2877 227.8532 270.2306 294.3101 259.1751 319.604 C 235.0728 374.7467 286.9279 341.908 293.9188 365.3985 C 296.7032 379.5469 256.7673 386.0054 217.2733 386.0054 C 168.8252 386.0054 134.4501 379.2807 138.8497 364.9247 C 141.9562 346.024 203.2472 371.4538 179.1817 316.3174 C 167.3146 289.1288 92.1266 222.64 71.44604 205.3259 C 36.58091 176.1365 45.89208 72.87406 58.96735 60.7357 C 72.04263 48.59734 129.9503 63.262 140.8948 77.82802 L 297.7661 76.66276 C 300.9404 71.17414 351.0879 45.31075 364.1632 57.44912 z M 304.1623 124.8256 C 303.6297 146.9754 303.8146 195.0153 286.3887 228.0117 C 309.871 197.4488 322.7602 182.1523 329.6853 172.1719 C 343.5354 151.0241 351.9007 105.1196 341.0046 105.1196 C 329.6242 103.8248 313.7994 113.2809 304.1623 124.8256 z M 147.4324 226.6586 C 127.6856 191.8716 127.6448 143.4917 127.3417 118.6813 C 119.3644 105.5365 101.2861 108.4648 89.85735 109.7056 C 78.96129 109.7056 83.31153 154.0408 97.16161 175.1886 C 103.893 184.8993 129.9402 213.4359 147.4324 226.6586 z " id="path761" style="font-size:12;fill:#007f00;fill-opacity:0.9031;fill-rule:evenodd;stroke-width:0.987571;"/>
  <path d="M 192.0279 280.3393 C 151.222 251.03 142.51 143.4917 142.2068 118.6813 C 134.2296 105.5365 91.37604 94.223 79.94731 95.46378 C 69.05123 95.46378 72.16271 159.5185 86.01281 180.6662 C 92.74413 190.377 169.5807 272.5943 192.0279 280.3393 z M 293.0135 118.2525 C 292.4808 140.4022 293.9044 236.6452 244.2711 279.5014 C 261.5595 268.6579 332.6703 187.6299 339.5953 177.6494 C 353.4455 156.5017 358.0945 94.16433 347.1983 94.16433 C 335.818 92.86956 302.6504 106.7076 293.0135 118.2525 z M 359.2082 68.40437 C 372.2835 80.54273 377.4249 174.4551 344.8575 206.4214 C 324.1388 226.7577 259.0819 293.2145 248.0262 318.5084 C 223.924 373.6511 281.9727 355.0543 284.0086 365.3985 C 286.7933 379.5469 240.6634 379.4323 217.2733 379.4323 C 191.1229 379.4323 146.8377 381.4718 151.2372 367.1157 C 154.3438 356.9792 213.1573 371.4538 189.0918 316.3174 C 177.2247 289.1288 104.5142 223.7355 83.83361 206.4214 C 48.96849 177.2321 53.32461 80.5427 66.3999 68.40434 C 79.47518 56.266 129.9503 69.83512 140.8948 84.40116 L 305.1987 84.33145 C 308.373 78.84282 346.133 56.266 359.2082 68.40437 z " id="path738" style="font-size:12;fill:#f0e700;fill-opacity:1;fill-rule:evenodd;stroke-width:0.987571;"/>
  <path d="M 358.8848 69.49993 C 371.9601 81.63833 377.1014 175.5505 344.5341 207.5169 C 323.8153 227.8531 258.7583 294.3099 247.7027 319.6039 C 223.6006 374.7465 281.6493 356.1497 283.6851 366.4938 C 286.4698 380.6423 240.3399 380.5275 216.9499 380.5275 C 190.7994 380.5275 146.5141 382.5672 150.9138 368.2111 C 154.0204 358.0746 212.8339 372.5492 188.7683 317.4129 C 176.9012 290.2243 104.1908 224.8309 83.51029 207.5169 C 48.64517 178.3275 53.0013 81.63833 66.07658 69.49993 C 79.15187 57.36156 125.4065 68.11723 136.351 82.68323 L 304.8751 85.42703 C 308.0495 79.93833 345.8095 57.36156 358.8848 69.49993 z M 292.6901 119.348 C 292.1574 141.4976 293.5809 237.7406 243.9476 280.5969 C 261.2361 269.7534 332.3468 188.7253 339.2718 178.7449 C 353.122 157.5972 357.771 95.25983 346.8748 95.25983 C 335.4945 93.96503 302.327 107.8032 292.6901 119.348 z M 191.7043 281.4347 C 150.8985 252.1255 142.1865 144.5872 141.8833 119.7767 C 133.9061 106.6321 91.05271 95.31853 79.62399 96.55933 C 68.72792 96.55933 71.83941 160.6138 85.68948 181.7617 C 92.42081 191.4723 169.2572 273.6897 191.7043 281.4347 z " id="path763" style="font-size:12;fill:url(#linearGradient62);fill-opacity:1;fill-rule:evenodd;stroke-width:0.987571;"/>
</svg>
