<?xml version="1.0" encoding="UTF-8" standalone="no"?>
<!DOCTYPE svg PUBLIC "-//W3C//DTD SVG 20010904//EN"
"http://www.w3.org/TR/2001/REC-SVG-20010904/DTD/svg10.dtd">
<!-- Created with Inkscape (http://www.inkscape.org/) --><svg height="128.00000pt" id="svg1" inkscape:version="0.38.1" sodipodi:docbase="/home/andy/andy/SVG/svgart" sodipodi:docname="mouse2.svg" sodipodi:version="0.32" width="128.00000pt" xmlns="http://www.w3.org/2000/svg" xmlns:inkscape="http://www.inkscape.org/namespaces/inkscape" xmlns:sodipodi="http://sodipodi.sourceforge.net/DTD/sodipodi-0.dtd" xmlns:xlink="http://www.w3.org/1999/xlink" xmlns:xml="http://www.w3.org/XML/1998/namespace">
  <metadata>
    <rdf:RDF xmlns:cc="http://web.resource.org/cc/" xmlns:dc="http://purl.org/dc/elements/1.1/" xmlns:rdf="http://www.w3.org/1999/02/22-rdf-syntax-ns#">
      <cc:Work rdf:about="">
        <dc:title>Etiquette Icons</dc:title>
        <dc:description></dc:description>
        <dc:subject>
          <rdf:Bag>
            <rdf:li>hash</rdf:li>
            <rdf:li></rdf:li>
            <rdf:li>hardware</rdf:li>
            <rdf:li>computer</rdf:li>
            <rdf:li>icons</rdf:li>
            <rdf:li>device</rdf:li>
          </rdf:Bag>
        </dc:subject>
        <dc:publisher>
          <cc:Agent rdf:about="http://www.openclipart.org">
            <dc:title>Andy Fitzsimon</dc:title>
          </cc:Agent>
        </dc:publisher>
        <dc:creator>
          <cc:Agent>
            <dc:title>Andy Fitzsimon</dc:title>
          </cc:Agent>
        </dc:creator>
        <dc:rights>
          <cc:Agent>
            <dc:title>Andy Fitzsimon</dc:title>
          </cc:Agent>
        </dc:rights>
        <dc:date></dc:date>
        <dc:format>image/svg+xml</dc:format>
        <dc:type rdf:resource="http://purl.org/dc/dcmitype/StillImage"/>
        <cc:license rdf:resource="http://web.resource.org/cc/PublicDomain"/>
        <dc:language>en</dc:language>
      </cc:Work>
      <cc:License rdf:about="http://web.resource.org/cc/PublicDomain">
        <cc:permits rdf:resource="http://web.resource.org/cc/Reproduction"/>
        <cc:permits rdf:resource="http://web.resource.org/cc/Distribution"/>
        <cc:permits rdf:resource="http://web.resource.org/cc/DerivativeWorks"/>
      </cc:License>
    </rdf:RDF>
  </metadata>
  <defs id="defs3">
    <linearGradient id="linearGradient899">
      <stop id="stop900" offset="0.0000000" style="stop-color:#ffffff;stop-opacity:0.0000000;"/>
      <stop id="stop901" offset="1.0000000" style="stop-color:#ffffff;stop-opacity:1.0000000;"/>
    </linearGradient>
    <linearGradient id="linearGradient883">
      <stop id="stop884" offset="0.0000000" style="stop-color:#1f1f1f;stop-opacity:0.55371898;"/>
      <stop id="stop885" offset="1.0000000" style="stop-color:#000000;stop-opacity:0.0000000;"/>
    </linearGradient>
    <linearGradient id="linearGradient878">
      <stop id="stop879" offset="0.0000000" style="stop-color:#1f1f1f;stop-opacity:1.0000000;"/>
      <stop id="stop881" offset="1.0000000" style="stop-color:#000000;stop-opacity:0.0000000;"/>
    </linearGradient>
    <linearGradient id="linearGradient839">
      <stop id="stop840" offset="0.0000000" style="stop-color:#4f4f4f;stop-opacity:1.0000000;"/>
      <stop id="stop843" offset="0.27444443" style="stop-color:#bebebe;stop-opacity:1.0000000;"/>
      <stop id="stop841" offset="1" style="stop-color:#fff;stop-opacity:1;"/>
    </linearGradient>
    <linearGradient id="linearGradient842" x1="0.79310346" x2="0.40229887" xlink:href="#linearGradient883" y1="2.0703125" y2="0.10937500"/>
    <linearGradient id="linearGradient848" x1="0.66666669" x2="-0.029304029" xlink:href="#linearGradient899" y1="0.44117647" y2="0.91830063"/>
    <linearGradient id="linearGradient849" x1="0.93772894" x2="0.35897437" xlink:href="#linearGradient839" y1="0.83121020" y2="0.092356689"/>
    <linearGradient id="linearGradient850" x1="1.8869566" x2="0.70434785" xlink:href="#linearGradient883" y1="0.34090909" y2="0.41287878"/>
    <linearGradient id="linearGradient860" x1="0.59340662" x2="0.42124543" xlink:href="#linearGradient839" y1="0.92253524" y2="-0.69366199"/>
    <linearGradient id="linearGradient882" xlink:href="#linearGradient883"/>
    <linearGradient gradientTransform="scale(0.991004,1.009077)" id="linearGradient938" x1="0.91520959" x2="0.48107174" xlink:href="#linearGradient883" y1="3.9872444" y2="0.077422217"/>
    <linearGradient gradientTransform="scale(0.993849,1.006190)" id="linearGradient1259" x1="0.92114639" x2="0.47915608" xlink:href="#linearGradient883" y1="4.0513387" y2="0.070798859"/>
    <linearGradient gradientTransform="scale(0.995510,1.004510)" id="linearGradient1260" x1="0.92504448" x2="0.47776312" xlink:href="#linearGradient883" y1="4.0943632" y2="0.066172279"/>
  </defs>
  <sodipodi:namedview bordercolor="#666666" borderopacity="1.0" id="base" inkscape:cx="77.544698" inkscape:cy="65.011955" inkscape:pageopacity="0.0" inkscape:pageshadow="2" inkscape:window-height="515" inkscape:window-width="413" inkscape:window-x="530" inkscape:window-y="358" inkscape:zoom="1.9486773" pagecolor="#ffffff" showguides="true" snaptoguides="true"/>
  <g id="g1266" transform="matrix(1.116154,0.000000,0.000000,1.116154,-178.6015,-58.98236)">
    <g id="g1261" style="fill:url(#linearGradient842);" transform="matrix(0.340720,0.000000,0.000000,0.340720,43.18076,-60.67900)">
      <path d="M 531.95937,344.46212 L 529.33437,344.68087 L 528.55312,344.71212 C 528.55312,344.71212 528.55309,344.74308 528.55312,344.74337 L 524.86562,345.02462 C 524.86560,345.02462 526.07594,359.27778 537.30312,376.21212 C 548.48284,393.07491 571.46323,413.24738 610.70937,425.71212 C 609.61818,427.46047 608.47754,429.12686 607.42812,430.93087 C 589.07504,462.48065 576.33842,502.37568 570.77187,531.96212 C 552.29391,525.09540 532.79867,521.34117 521.02187,524.83712 C 497.89508,532.12272 461.06496,649.67870 451.17812,670.18087 C 447.81948,678.22681 447.36547,689.47514 449.55312,700.71212 C 452.41454,718.57510 462.23636,736.91058 478.77187,742.58712 C 506.83214,754.19822 545.64364,740.06387 558.02187,718.46212 C 570.24176,695.85484 623.35183,588.52172 618.20937,567.36837 C 618.12247,567.07162 617.91301,566.76112 617.80312,566.46212 C 617.74715,566.01035 617.80498,565.38666 617.70937,564.99337 C 614.76169,554.92718 598.32980,543.58885 579.24062,535.27462 C 580.65177,527.49362 582.27010,519.12902 584.42812,509.89962 C 590.95054,484.89872 600.82011,456.64184 613.74062,434.43087 C 615.79503,430.89923 617.94096,427.51406 620.14687,424.24337 C 620.22922,424.27391 620.31435,424.30691 620.39687,424.33712 L 618.17812,427.64962 C 642.86859,436.90852 678.54131,430.52018 697.95937,418.77462 C 702.81387,415.83823 706.85268,412.62389 709.74062,409.11837 C 712.62854,405.61285 714.48096,401.64467 714.05312,397.43087 C 713.62526,393.21707 710.82558,389.41938 706.39687,386.61837 C 702.96482,384.44773 698.10275,382.78663 692.36562,381.36837 C 695.24997,381.53798 696.28518,381.67852 694.14687,381.27462 C 692.90359,381.00619 690.49838,380.67994 688.42812,380.36837 C 688.05596,380.29412 687.80937,380.19038 687.42812,380.11837 C 683.21620,379.20898 679.07517,378.80779 675.05312,378.86837 C 665.95187,379.00546 657.38575,381.50261 649.42812,385.77462 C 646.83576,387.16631 644.28909,388.74466 641.83437,390.49337 C 641.81092,390.51008 641.79531,390.53913 641.77187,390.55587 C 641.75276,390.56946 641.72847,390.57351 641.70937,390.58712 C 638.42405,392.93717 635.25817,395.56257 632.20937,398.46212 C 626.01986,404.32987 620.31252,411.26484 615.05312,418.89962 C 611.49849,417.77740 608.19582,416.54123 604.89687,415.30587 C 603.79000,414.89138 602.56893,414.54433 601.49062,414.11837 C 599.73276,413.42604 598.17196,412.65109 596.49062,411.93087 C 594.04391,410.87993 591.49757,409.87817 589.20937,408.77462 C 585.37678,406.93033 581.78559,404.98401 578.39687,403.02462 C 574.98025,401.04747 571.78157,399.01609 568.80312,396.96212 C 568.79593,396.95716 568.77905,396.96708 568.77187,396.96212 C 562.82425,392.85887 557.76299,388.62824 553.52187,384.46212 C 552.63258,383.58855 551.93137,382.73608 551.11562,381.86837 C 548.07837,378.62238 545.40135,375.40769 543.36562,372.33712 C 532.99928,356.70125 532.05312,344.52462 532.05312,344.52462 L 531.95937,344.52462 C 531.95927,344.52340 531.95937,344.46212 531.95937,344.46212 z M 675.20937,385.96212 C 678.71200,385.92411 682.31616,386.28702 686.02187,387.08712 L 686.05312,387.08712 L 686.11562,387.11837 C 693.93989,388.59629 699.34008,390.59771 702.58437,392.64962 C 704.19036,393.66537 705.22873,394.62132 705.89687,395.52462 C 705.90359,395.53370 705.92148,395.54680 705.92812,395.55587 C 706.49311,396.39231 706.78780,397.19565 706.86562,397.96212 C 707.03382,399.61905 706.29460,401.79260 704.14687,404.39962 C 701.99911,407.00664 698.54583,409.85144 694.17812,412.49337 C 676.81176,422.99787 643.50787,429.22946 622.11562,421.43087 C 629.36937,411.16197 637.35490,402.42662 645.99062,396.27462 C 655.06379,389.81098 664.70148,386.07616 675.20937,385.96212 z " id="path1242" style="fill:url(#linearGradient842);fill-rule:evenodd;stroke-width:1.0000000pt;fill-opacity:1;"/>
      <path d="M 532.90625 342.31250 C 529.48799 342.72215 521.14582 341.38605 522.98779 347.23510 C 529.60366 379.57915 555.97126 404.10257 585.00560 417.51946 C 592.33516 421.14244 599.95545 424.14954 607.68750 426.81250 C 588.67928 458.29981 576.98887 493.55303 569.28125 529.34375 C 553.29645 524.49260 535.65516 518.13081 519.13403 523.67568 C 503.89172 533.20776 498.28870 551.53206 490.29382 566.63689 C 474.40669 601.48488 461.55113 637.67815 448.13230 673.50864 C 443.16952 693.94674 448.66616 716.74325 461.71856 733.04732 C 477.82188 750.79297 504.94445 751.70585 526.31376 744.32149 C 543.27646 738.75532 558.29629 726.53713 564.80375 709.59466 C 585.10701 668.78135 605.49745 627.61813 618.57814 583.83397 C 622.10388 573.02081 621.09009 559.26951 610.90157 552.36475 C 602.46900 544.36966 591.91202 539.19298 581.56250 534.15625 C 588.29031 498.01115 599.54971 462.41427 618.53125 430.71875 C 624.88669 430.57549 630.98241 434.17394 637.63824 433.54900 C 662.86006 435.36825 690.08582 429.46000 709.41473 412.46196 C 717.11016 406.05341 718.74559 392.59954 709.73045 386.63280 C 689.09906 373.01578 660.00842 373.75031 640.45302 389.14632 C 630.27795 396.70427 621.75425 406.22017 614.34375 416.46875 C 585.03390 406.54241 554.49563 390.81497 540.01629 362.03278 C 536.98571 355.77772 534.51847 349.21759 533.84375 342.25000 L 532.90625 342.31250 z M 683.03125 388.75000 C 690.40080 390.22884 699.67877 391.56660 704.28423 397.76849 C 704.07750 405.06677 695.82082 408.80818 690.28725 412.09352 C 670.48326 421.86492 647.26655 425.71480 625.65625 420.18750 C 638.70574 402.04309 659.05077 384.57316 683.03125 388.75000 z " id="path1246" style="fill:url(#linearGradient842);fill-rule:evenodd;stroke-width:1.0000000pt;fill-opacity:1;"/>
      <path d="M 535.53125 339.03125 C 529.79148 338.98260 518.89035 338.87225 519.93134 347.24647 C 527.29590 381.20551 554.81048 407.47419 585.80561 421.12704 C 591.45788 423.78318 597.28679 426.25600 603.18750 428.40625 C 585.62594 458.41914 575.10417 491.83069 567.06250 525.50000 C 550.37933 520.87131 531.09676 513.79519 514.80967 523.15821 C 497.67214 537.03273 491.24574 559.14103 481.96803 578.29655 C 468.16216 610.30991 456.11626 643.13253 444.62309 676.02316 C 440.12188 701.14095 448.90261 730.50041 471.45890 744.24129 C 496.83701 757.79163 529.75864 751.55391 551.33675 733.60373 C 567.66963 718.72867 573.38344 696.42854 583.74098 677.58566 C 599.17176 644.74476 614.76327 611.51773 623.29226 576.13824 C 625.30893 562.96936 616.86066 550.51555 605.62794 544.36067 C 599.37983 539.45380 591.99920 536.34361 585.06250 532.56250 C 592.10968 498.30575 602.32052 464.36170 620.21875 434.06250 C 651.11782 440.73092 685.58172 435.78243 710.56481 415.46147 C 721.12114 407.95740 721.92699 389.44845 709.72251 383.15851 C 685.91859 368.45620 652.93768 372.26219 632.78891 391.56954 C 625.31410 397.73548 619.27715 405.24277 613.31250 412.81250 C 583.97540 402.67999 553.60521 385.69260 540.90045 355.84276 C 538.61888 350.44931 537.01871 344.81148 536.46875 338.96875 L 535.53125 339.03125 z M 674.15625 391.43750 C 683.27516 391.93561 693.39536 392.51086 700.65625 398.71875 C 695.19807 409.71268 681.62662 412.13612 671.04935 415.77762 C 658.23946 419.61780 644.47676 420.44533 631.28125 418.03125 C 641.88239 404.67700 656.42128 392.53430 674.15625 391.43750 z " id="path1252" style="fill:url(#linearGradient842);fill-rule:evenodd;stroke-width:1.0000000pt;fill-opacity:1;"/>
      <path d="M 530.53125 355.25000 C 541.80128 388.24033 573.33043 409.11376 604.87609 420.24121 C 608.85052 421.09925 615.64262 423.89510 612.59204 429.08588 C 592.16502 461.36980 581.37760 498.83864 573.03125 535.90625 C 556.15787 531.09994 538.25787 523.11496 520.59375 528.81250 C 505.20635 541.22207 499.21092 560.97156 490.91970 578.16932 C 476.83910 610.56086 464.59400 643.79906 452.67879 676.99102 C 449.02259 698.11407 455.04146 722.79903 472.97927 735.82398 C 496.54276 749.91230 528.19803 743.28106 548.08243 725.70076 C 559.94395 713.11169 564.92453 696.03338 573.11612 681.12360 C 589.13091 647.52374 605.15416 613.45939 614.81966 577.50877 C 617.10208 567.35073 611.68002 557.10054 602.63382 552.32184 C 594.52761 545.86440 584.83533 541.87586 575.78125 536.96875 C 582.79300 497.54299 595.40300 458.66062 616.18750 424.34375 C 620.83928 421.96152 621.17875 416.40190 625.06515 412.67854 C 638.27499 395.43150 659.00048 380.42186 681.82890 383.39953 C 691.02362 384.59578 701.07166 387.11305 707.96095 393.51955 C 712.90145 401.22189 705.09131 409.45383 698.52966 412.97509 C 679.99743 425.04795 656.79551 429.32136 634.95182 427.14387 C 632.10669 426.66370 617.33144 423.73687 626.68015 426.77730 C 653.81835 431.93398 684.14631 426.85254 705.75000 408.90625 C 711.59281 403.79688 712.74767 393.49674 704.81936 389.69022 C 686.53664 379.18204 662.17906 379.74596 645.00968 392.39183 C 633.58471 399.51305 625.47389 410.60782 617.09375 420.75000 C 610.94576 423.25278 605.12966 417.61512 599.23548 416.29755 C 570.70985 405.18175 542.90025 385.77250 531.78129 356.08343 C 531.22847 353.03082 527.60736 343.38020 529.64240 351.63435 C 529.93868 352.83956 530.23497 354.04478 530.53125 355.25000 z " id="path1258" style="fill:url(#linearGradient842);fill-rule:evenodd;stroke-width:1.0000000pt;fill-opacity:1;"/>
    </g>
    <path d="M 223.70511,55.860441 L 221.28813,56.052090 C 221.28813,56.052090 221.70051,60.908420 225.52582,66.678276 C 229.35115,72.448132 237.22050,79.367606 250.69651,83.610056 L 252.06774,81.245552 C 239.05738,77.149695 231.09150,70.664136 227.55950,65.336695 C 224.02749,60.009255 223.70511,55.860441 223.70511,55.860441 z M 272.45990,67.583314 C 268.34874,67.645237 264.54537,69.119392 261.14164,71.544173 C 256.60333,74.777215 252.73608,79.660649 249.46136,85.290064 C 242.91190,96.548888 238.55191,110.85430 236.81216,121.04429 L 239.32496,122.50300 C 241.01863,112.58296 245.24370,97.388978 251.56956,86.514525 C 254.73248,81.077298 258.43588,76.450340 262.55775,73.513954 C 266.67963,70.577574 271.14674,69.293164 276.19717,70.383596 L 276.20782,70.383596 L 276.22911,70.394242 C 278.89500,70.897803 280.73494,71.579724 281.84034,72.278847 C 282.94572,72.977977 283.27366,73.588258 283.33098,74.152806 C 283.38830,74.717354 283.13642,75.457921 282.40465,76.346187 C 281.67287,77.234447 280.49627,78.203723 279.00810,79.103878 C 273.05545,82.704506 261.76855,84.835350 254.48544,82.104182 L 253.07921,84.201735 C 261.49172,87.356424 273.64840,85.182081 280.26451,81.180140 C 281.91853,80.179656 283.29463,79.084464 284.27860,77.890071 C 285.26258,76.695670 285.89373,75.343635 285.74796,73.907912 C 285.60218,72.472190 284.64827,71.178247 283.13933,70.223885 C 281.63038,69.269529 279.52841,68.547940 276.67631,68.009211 C 275.24123,67.699362 273.83029,67.562671 272.45990,67.583314 z " id="path859" sodipodi:nodetypes="ccccccccccccccccccccccccccccc" style="fill:url(#linearGradient860);fill-rule:evenodd;stroke-width:7.1250000;"/>
    <path d="M 223.73705,55.881733 L 222.54453,55.945616 C 222.54453,55.945616 222.95692,60.312159 226.78223,66.082015 C 230.60755,71.851871 234.61810,76.859301 251.15965,82.205350 L 252.01298,81.223495 C 239.00261,77.127638 231.12345,70.685428 227.59144,65.357988 C 224.05943,60.030547 223.73705,55.881733 223.73705,55.881733 z M 272.41732,67.615252 C 268.30615,67.677182 264.50278,69.151337 261.09905,71.576112 C 256.56074,74.809153 252.69349,79.692594 249.41877,85.322009 C 242.86931,96.580833 238.38669,111.00886 236.64694,121.19885 L 239.42110,122.90588 C 241.11476,112.98585 244.67938,97.069555 251.00524,86.195102 C 254.16817,80.757876 257.77573,75.470773 261.89761,72.534387 C 268.71717,66.532455 281.81762,68.941899 278.96551,68.403170 C 277.53044,68.093321 273.78770,67.594616 272.41732,67.615252 z M 281.69127,71.948778 C 281.53566,71.954405 281.53204,72.040181 281.80839,72.214964 C 282.91378,72.914087 283.24172,73.524374 283.29904,74.088923 C 283.35635,74.653464 283.10448,75.394038 282.37271,76.282297 C 281.64093,77.170564 280.46432,78.139840 278.97616,79.039995 C 273.02351,82.640623 261.57384,84.771467 254.29073,82.040292 L 253.68229,83.028217 C 262.09479,86.182906 273.12667,84.255744 279.74278,80.253810 C 281.39681,79.253326 284.51506,76.633385 284.24666,74.216689 C 284.04536,72.680065 282.15809,71.931904 281.69127,71.948778 z " id="path852" sodipodi:nodetypes="cccccccccccccccccccccccccc" style="fill:#e7e7e7;fill-rule:evenodd;stroke-width:7.1250000;"/>
    <g id="g1221" transform="matrix(0.336570,-5.300774e-2,5.300774e-2,0.336570,109.3852,18.96179)">
      <path d="M 201.01542,257.47427 C 228.04787,253.87536 287.46177,290.48200 290.26856,312.17781 C 292.05743,333.87362 222.88588,431.63190 207.29763,452.06279 C 191.70938,471.47575 151.15452,479.41456 125.24232,463.57933 C 100.76968,450.62323 97.890545,408.87578 109.40708,390.16141 C 122.36318,371.44704 177.03676,261.07319 201.01542,257.47427 z " id="path829" sodipodi:nodetypes="czzzzz" style="fill:url(#linearGradient849);fill-opacity:1;fill-rule:evenodd;stroke-width:1.0000000pt;" transform="translate(74.85748,80.61575)"/>
      <path d="M 200.87413,255.06003 C 227.90658,251.46112 287.32048,288.06776 290.12727,309.76357 C 291.91614,331.45938 222.74459,429.21766 207.15634,449.64855 C 191.56809,469.06151 151.01323,477.00032 125.10103,461.16509 C 100.62838,448.20899 97.749248,406.46154 109.26578,387.74717 C 122.22189,369.03280 176.89547,258.65895 200.87413,255.06003 z " id="path886" sodipodi:nodetypes="czzzzz" style="fill:url(#linearGradient850);fill-opacity:1;fill-rule:evenodd;stroke-width:1.0000000pt;" transform="translate(74.85748,80.61575)"/>
      <path d="M 253.15935,275.22559 C 237.92689,290.57874 225.29170,315.97822 224.68750,317.09375 C 210.14669,308.17230 187.77043,297.37960 168.88287,290.88701 L 168.47662,292.07451 C 214.43493,307.87268 255.29558,336.71622 268.18750,357.43750 L 269.25000,356.78125 C 261.59086,344.47065 246.19340,330.46798 225.71875,317.75000 C 226.26235,316.74651 238.92899,291.32562 254.03435,276.10059 L 253.15935,275.22559 z " id="path897" sodipodi:nodetypes="ccccccccc" style="fill:#000000;fill-rule:evenodd;stroke-width:1.0000000pt;fill-opacity:0.21487603;" transform="translate(74.85748,80.61575)"/>
      <path d="M 216.67242,461.07350 C 198.10953,449.83235 192.70273,459.04554 183.25921,484.60148 C 173.32346,510.15742 196.58338,571.88476 263.19225,540.51410 C 328.32444,509.14345 233.84310,472.31465 216.67242,461.07350 z " id="path898" sodipodi:nodetypes="czzz" style="fill:url(#linearGradient848);fill-rule:evenodd;stroke-width:1.0000000pt;"/>
    </g>
  </g><text id="text1232" style="fill:black;fill-opacity:1;stroke:none;font-family:helvetica;font-style:normal;font-weight:normal;font-size:12px;stroke-opacity:1;stroke-width:1pt;stroke-linejoin:miter;stroke-linecap:butt;" x="2.9016126" xml:space="preserve" y="-14.947952"><tspan id="tspan1233">Mouse</tspan></text><text id="text1235" style="fill:black;fill-opacity:1;stroke:none;font-family:helvetica;font-style:normal;font-weight:normal;font-size:12px;stroke-opacity:1;stroke-width:1pt;stroke-linejoin:miter;stroke-linecap:butt;" transform="scale(0.246729,0.246729)" x="30.568256" xml:space="preserve" y="-39.032092"><tspan id="tspan1236">Created by Andrew Fitzsimon</tspan></text>
</svg>
