<?xml version="1.0" encoding="UTF-8" standalone="no"?>
<!DOCTYPE svg PUBLIC "-//W3C//DTD SVG 20010904//EN"
"http://www.w3.org/TR/2001/REC-SVG-20010904/DTD/svg10.dtd"
[
 <!ATTLIST svg
  xmlns:xlink CDATA #FIXED "http://www.w3.org/1999/xlink">
]>
<!-- Created with Sodipodi ("http://www.sodipodi.com/") -->
<svg
   id="svg548"
   sodipodi:version="0.32"
   xmlns="http://www.w3.org/2000/svg"
   xmlns:sodipodi="http://sodipodi.sourceforge.net/DTD/sodipodi-0.dtd"
   xmlns:xlink="http://www.w3.org/1999/xlink"
   width="280mm"
   height="140mm"
   sodipodi:docbase="/home/scarlet/flags/states"
   sodipodi:docname="/home/scarlet/flags/states/Australian Capital Territory.svg">
  <defs
     id="defs550">
    <linearGradient
       id="linearGradient766">
      <stop
         style="stop-color:#000;stop-opacity:1;"
         offset="0"
         id="stop767" />
      <stop
         style="stop-color:#fff;stop-opacity:1;"
         offset="1"
         id="stop768" />
    </linearGradient>
    <linearGradient
       xlink:href="#linearGradient766"
       id="linearGradient769" />
    <linearGradient
       xlink:href="#linearGradient766"
       id="linearGradient770" />
  </defs>
  <sodipodi:namedview
     id="base"
     snaptogrid="true"
     showgrid="true"
     gridspacingx="5mm"
     gridspacingy="5mm" />
  <rect
     style="font-size:12;fill:#eea400;fill-rule:evenodd;stroke-width:1pt;fill-opacity:1;"
     id="rect587"
     width="992.125916"
     height="496.062988"
     x="-0.600128"
     y="-0.000340" />
  <rect
     style="font-size:12;fill:#00005b;fill-rule:evenodd;stroke-width:1pt;stroke:none;stroke-opacity:1;fill-opacity:1;"
     id="rect586"
     width="348.042938"
     height="496.062988"
     x="0.000000"
     y="-0.000011" />
  <g
     id="g593">
    <polygon
       sodipodi:type="star"
       style="font-size:12;fill:#ffffff;fill-rule:evenodd;stroke-width:1pt;fill-opacity:1;"
       id="polygon588"
       sodipodi:sides="7"
       sodipodi:cx="156.157150"
       sodipodi:cy="136.222595"
       sodipodi:r1="45.2912216"
       sodipodi:r2="18.1164875"
       sodipodi:arg1="2.91479349"
       sodipodi:arg2="3.36359239"
       points="112.026,146.407 138.485,132.234 120.679,108.069 148.258,119.919 156.048,90.9315 163.978,119.881 191.499,107.899 173.81,132.149 200.337,146.195 170.348,147.484 175.906,176.981 156.201,154.339 136.604,177.076 142.02,147.552 112.026,146.407 "
       transform="matrix(0.748771,0.000000,0.000000,0.781858,57.11990,14.86449)" />
    <polygon
       sodipodi:type="star"
       style="font-size:12;fill:#ffffff;fill-rule:evenodd;stroke-width:1pt;fill-opacity:1;"
       id="polygon589"
       sodipodi:sides="7"
       sodipodi:cx="156.157150"
       sodipodi:cy="136.222595"
       sodipodi:r1="45.2912216"
       sodipodi:r2="18.1164875"
       sodipodi:arg1="2.91479349"
       sodipodi:arg2="3.36359239"
       points="112.026,146.407 138.485,132.234 120.679,108.069 148.258,119.919 156.048,90.9315 163.978,119.881 191.499,107.899 173.81,132.149 200.337,146.195 170.348,147.484 175.906,176.981 156.201,154.339 136.604,177.076 142.02,147.552 112.026,146.407 "
       transform="matrix(0.721590,0.000000,0.000000,0.781858,150.8280,100.3148)" />
    <polygon
       sodipodi:type="star"
       style="font-size:12;fill:#ffffff;fill-rule:evenodd;stroke-width:1pt;fill-opacity:1;"
       id="polygon590"
       sodipodi:sides="7"
       sodipodi:cx="156.157150"
       sodipodi:cy="136.222595"
       sodipodi:r1="45.2912216"
       sodipodi:r2="18.1164875"
       sodipodi:arg1="2.91479349"
       sodipodi:arg2="3.36359239"
       points="112.026,146.407 138.485,132.234 120.679,108.069 148.258,119.919 156.048,90.9315 163.978,119.881 191.499,107.899 173.81,132.149 200.337,146.195 170.348,147.484 175.906,176.981 156.201,154.339 136.604,177.076 142.02,147.552 112.026,146.407 "
       transform="matrix(0.721590,0.000000,0.000000,0.753992,52.96362,297.8246)" />
    <polygon
       sodipodi:type="star"
       style="font-size:12;fill:#ffffff;fill-rule:evenodd;stroke-width:1pt;fill-opacity:1;"
       id="polygon591"
       sodipodi:sides="7"
       sodipodi:cx="156.157150"
       sodipodi:cy="136.222595"
       sodipodi:r1="45.2912216"
       sodipodi:r2="18.1164875"
       sodipodi:arg1="2.91479349"
       sodipodi:arg2="3.36359239"
       points="112.026,146.407 138.485,132.234 120.679,108.069 148.258,119.919 156.048,90.9315 163.978,119.881 191.499,107.899 173.81,132.149 200.337,146.195 170.348,147.484 175.906,176.981 156.201,154.339 136.604,177.076 142.02,147.552 112.026,146.407 "
       transform="matrix(0.721590,0.000000,0.000000,0.726127,-36.29341,133.9465)" />
    <polygon
       sodipodi:type="star"
       style="font-size:12;fill:#ffffff;fill-rule:evenodd;stroke-width:1pt;fill-opacity:1;"
       id="polygon592"
       sodipodi:sides="5"
       sodipodi:cx="196.835297"
       sodipodi:cy="284.825104"
       sodipodi:r1="22.1308746"
       sodipodi:r2="8.85235023"
       sodipodi:arg1="2.27942300"
       sodipodi:arg2="2.90774155"
       points="182.433,301.628 188.224,286.876 176.404,276.32 192.223,277.269 198.611,262.766 202.596,278.104 218.364,279.697 205.008,288.227 208.365,303.715 196.125,293.649 182.433,301.628 "
       transform="translate(12.00216,4.800858)" />
  </g>
  <g
     id="g863"
     transform="matrix(0.997882,0.000000,0.000000,0.857524,54.05002,20.09886)">
    <g
       id="g787"
       transform="matrix(0.334581,0.000000,0.000000,0.314286,404.5364,400.8999)">
      <path
         style="fill:#00005b;fill-rule:evenodd;stroke:none;stroke-opacity:1;stroke-width:1pt;stroke-linejoin:miter;stroke-linecap:butt;fill-opacity:1;"
         d="M 496.063 -407.48 L 496.063 -230.315 C 496.063 -141.733 588.189 -97.4412 605.905 -97.4412 C 623.622 -97.4412 708.661 -141.733 708.661 -230.315 L 708.661 -407.48 L 496.063 -407.48 z "
         id="path658"
         sodipodi:nodetypes="cssscc"
         transform="matrix(2.000004,0.000000,0.000000,2.000003,-531.4981,159.4497)" />
      <rect
         style="font-size:12;fill:#ffffff;fill-rule:evenodd;stroke-width:1pt;fill-opacity:1;"
         id="rect688"
         width="124.015808"
         height="3.54331970"
         x="612.992126"
         y="-194.881912" />
      <rect
         style="font-size:12;fill:#ffffff;fill-rule:evenodd;stroke-width:1pt;fill-opacity:1;"
         id="rect690"
         width="124.015808"
         height="3.543320"
         x="612.992126"
         y="-205.511765" />
      <rect
         style="font-size:12;fill:#ffffff;fill-rule:evenodd;stroke-width:1pt;fill-opacity:1;"
         id="rect691"
         width="124.015808"
         height="3.543320"
         x="612.992126"
         y="-216.141724" />
      <rect
         style="font-size:12;fill:#ffffff;fill-rule:evenodd;stroke-width:1pt;fill-opacity:1;"
         id="rect692"
         width="124.015808"
         height="3.543320"
         x="612.992126"
         y="-226.771637" />
      <rect
         style="font-size:12;fill:#ffffff;fill-rule:evenodd;stroke-width:1pt;fill-opacity:1;"
         id="rect693"
         width="124.015808"
         height="3.543320"
         x="616.535408"
         y="-269.291336" />
      <rect
         style="font-size:12;fill:#ffffff;fill-rule:evenodd;stroke-width:1pt;fill-opacity:1;"
         id="rect694"
         width="124.015808"
         height="3.543320"
         x="612.992050"
         y="-237.401611" />
      <rect
         style="font-size:12;fill:#ffffff;fill-rule:evenodd;stroke-width:1pt;fill-opacity:1;"
         id="rect695"
         width="124.015808"
         height="3.543320"
         x="612.992065"
         y="-248.031448" />
      <rect
         style="font-size:12;fill:#ffffff;fill-rule:evenodd;stroke-width:1pt;fill-opacity:1;"
         id="rect696"
         width="124.015808"
         height="3.543320"
         x="616.535309"
         y="-279.921265" />
      <rect
         style="font-size:12;fill:#ffffff;fill-rule:evenodd;stroke-width:1pt;fill-opacity:1;"
         id="rect697"
         width="124.015808"
         height="3.543320"
         x="612.992065"
         y="-258.661423" />
      <rect
         style="font-size:12;fill:#ffffff;fill-rule:evenodd;stroke-width:1pt;fill-opacity:1;"
         id="rect698"
         width="124.015808"
         height="3.543320"
         x="616.535416"
         y="-290.551163" />
      <rect
         style="font-size:12;fill:#ffffff;fill-rule:evenodd;stroke-width:1pt;fill-opacity:1;"
         id="rect699"
         width="3.543243"
         height="106.298147"
         x="673.228394"
         y="-294.094505" />
      <rect
         style="font-size:12;fill:#ffffff;fill-rule:evenodd;stroke-width:1pt;fill-opacity:1;"
         id="rect700"
         width="3.543243"
         height="106.298149"
         x="683.858276"
         y="-294.094452" />
      <rect
         style="font-size:12;fill:#ffffff;fill-rule:evenodd;stroke-width:1pt;fill-opacity:1;"
         id="rect701"
         width="3.543243"
         height="106.298149"
         x="662.598434"
         y="-294.093399" />
      <rect
         style="font-size:12;fill:#ffffff;fill-rule:evenodd;stroke-width:1pt;fill-opacity:1;"
         id="rect702"
         width="3.543243"
         height="106.298149"
         x="651.968491"
         y="-294.093399" />
      <rect
         style="font-size:12;fill:#ffffff;fill-rule:evenodd;stroke-width:1pt;fill-opacity:1;"
         id="rect703"
         width="3.543243"
         height="106.298149"
         x="641.338699"
         y="-294.093399" />
      <rect
         style="font-size:12;fill:#ffffff;fill-rule:evenodd;stroke-width:1pt;fill-opacity:1;"
         id="rect704"
         width="3.543243"
         height="106.298149"
         x="630.708611"
         y="-294.093399" />
      <rect
         style="font-size:12;fill:#ffffff;fill-rule:evenodd;stroke-width:1pt;fill-opacity:1;"
         id="rect705"
         width="3.543243"
         height="106.298149"
         x="620.078827"
         y="-294.093399" />
      <rect
         style="font-size:12;fill:#ffffff;fill-rule:evenodd;stroke-width:1pt;fill-opacity:1;"
         id="rect706"
         width="3.543243"
         height="106.298149"
         x="705.118195"
         y="-294.094467" />
      <rect
         style="font-size:12;fill:#ffffff;fill-rule:evenodd;stroke-width:1pt;fill-opacity:1;"
         id="rect707"
         width="3.543243"
         height="106.298149"
         x="694.488251"
         y="-294.094467" />
      <rect
         style="font-size:12;fill:#ffffff;fill-rule:evenodd;stroke-width:1pt;fill-opacity:1;"
         id="rect708"
         width="3.543243"
         height="106.298149"
         x="715.748032"
         y="-294.093399" />
      <rect
         style="font-size:12;fill:#ffffff;fill-rule:evenodd;stroke-width:1pt;fill-opacity:1;"
         id="rect709"
         width="3.543243"
         height="106.298149"
         x="726.377930"
         y="-294.094467" />
      <rect
         style="font-size:12;fill:#ffffff;fill-rule:evenodd;stroke:#00005b;stroke-width:1.1339pt;"
         id="rect675"
         width="63.779541"
         height="88.582703"
         x="641.338531"
         y="-411.023636" />
      <rect
         style="font-size:12;fill:#00005b;fill-rule:evenodd;stroke-width:1pt;fill-opacity:1;"
         id="rect685"
         width="194.881882"
         height="4.330723"
         x="577.558838"
         y="-326.378080" />
      <path
         style="fill:#ffffff;fill-rule:evenodd;stroke:#00005b;stroke-opacity:1;stroke-width:1pt;stroke-linejoin:miter;stroke-linecap:butt;fill-opacity:1;"
         d="M 627.165 -187.795 C 627.165 -248.031 662.201 -269.901 673.228 -269.291 C 683.461 -269.901 719.291 -248.031 720.134 -187.464 C 729.921 -187.795 754.724 -187.795 754.724 -187.795 L 754.724 -290.551 L 588.189 -290.551 L 588.189 -187.795 C 588.189 -187.795 627.165 -187.795 627.165 -187.795 z "
         id="path686"
         sodipodi:nodetypes="cccccccc"
         transform="matrix(1.255322,0.000000,0.000000,1.274978,-171.4377,51.54841)" />
      <path
         style="font-size:12;fill:#ffffff;fill-rule:evenodd;stroke-width:1pt;fill-opacity:1;stroke:#00005b;stroke-opacity:1;"
         d="M 600.821 -464.173 L 600.821 -471.26 L 593.119 -471.26 L 593.119 -478.347 L 590.037 -478.347 L 590.037 -471.26 L 580.794 -471.26 L 580.794 -478.347 L 577.713 -478.347 L 577.713 -471.26 L 566.929 -471.26 L 566.929 -478.347 L 563.848 -478.347 L 563.848 -471.26 L 553.064 -471.26 L 553.064 -478.347 L 549.983 -478.347 L 549.983 -471.26 L 540.739 -471.26 L 540.739 -478.347 L 537.658 -478.347 L 537.658 -471.26 L 529.955 -471.26 L 529.955 -464.173 L 600.821 -464.173 z "
         id="path684"
         sodipodi:nodetypes="ccccccccccccccccccccccccc"
         transform="matrix(3.049993,0.000000,0.000000,-1.222217,-1049.429,-889.3676)" />
      <path
         style="font-size:12;fill:#ffffff;fill-rule:evenodd;stroke-width:1pt;fill-opacity:1;stroke:#00005b;stroke-opacity:1;"
         d="M 599.28 -481.89 L 600.821 -488.976 L 594.659 -488.976 L 594.659 -496.063 L 588.497 -496.063 L 588.497 -488.976 L 582.335 -488.976 L 582.335 -496.063 L 576.172 -496.063 L 576.172 -488.976 L 568.47 -488.976 L 568.47 -496.063 L 562.307 -496.063 L 562.307 -488.976 L 554.604 -488.976 L 554.604 -496.063 L 548.442 -496.063 L 548.442 -488.976 L 542.28 -488.976 L 542.28 -496.063 L 536.118 -496.063 L 536.118 -488.976 L 529.955 -488.976 L 528.414 -481.89 L 599.28 -481.89 z "
         id="path682"
         sodipodi:nodetypes="ccccccccccccccccccccccccc"
         transform="matrix(3.034030,0.000000,0.000000,1.222217,-1039.838,262.5958)" />
      <rect
         style="font-size:12;fill:#ffffff;fill-rule:evenodd;stroke-width:1pt;fill-opacity:1;stroke:#00005b;stroke-opacity:1;"
         id="rect661"
         width="106.299194"
         height="53.149578"
         x="496.062981"
         y="-230.314941" />
      <rect
         style="font-size:12;fill:#ffffff;fill-rule:evenodd;stroke-width:1pt;fill-opacity:1;stroke:#00005b;stroke-opacity:1;"
         id="rect662"
         width="106.299194"
         height="53.149578"
         x="747.637772"
         y="-230.314957" />
      <path
         style="font-size:12;fill:#ffffff;fill-rule:evenodd;stroke-width:1pt;fill-opacity:1;stroke:#00005b;stroke-opacity:1;"
         d="M 744.094 -265.748 L 726.378 -230.315 L 832.677 -230.315 L 814.961 -265.748 L 744.094 -265.748 z "
         id="path664"
         sodipodi:nodetypes="ccccc"
         transform="translate(21.25984,-1.525879e-5)" />
      <path
         style="font-size:12;fill:#ffffff;fill-rule:evenodd;stroke-width:1pt;fill-opacity:1;stroke:#00005b;stroke-opacity:1;"
         d="M 744.094 -265.748 L 726.378 -230.315 L 832.677 -230.315 L 814.961 -265.748 L 744.094 -265.748 z "
         id="path665"
         sodipodi:nodetypes="ccccc"
         transform="translate(-230.3149,6.103516e-5)" />
      <path
         style="font-size:12;fill:#ffffff;fill-rule:evenodd;stroke-width:1pt;fill-opacity:1;stroke:#00005b;stroke-opacity:1;"
         d="M 744.094 -265.748 L 754.724 -442.913 L 804.33 -442.913 L 814.961 -265.748 L 744.094 -265.748 z "
         id="path666"
         sodipodi:nodetypes="ccccc"
         transform="matrix(1.000000,0.000000,0.000000,0.700002,-230.3146,-79.72387)" />
      <path
         style="font-size:12;fill:#ffffff;fill-rule:evenodd;stroke-width:1pt;fill-opacity:1;stroke:#00005b;stroke-opacity:1;"
         d="M 744.094 -265.748 L 754.725 -442.913 L 804.331 -442.913 L 814.961 -265.748 L 744.094 -265.748 z "
         id="path667"
         sodipodi:nodetypes="ccccc"
         transform="matrix(1.000000,0.000000,0.000000,0.700002,21.25946,-79.72395)" />
      <path
         style="font-size:12;fill:#ffffff;fill-rule:evenodd;stroke-width:1pt;fill-opacity:1;stroke:#00005b;stroke-opacity:1;"
         d="M 744.094 -460.63 L 754.725 -442.913 L 804.331 -442.913 L 814.961 -460.63 L 744.094 -460.63 z "
         id="path668"
         sodipodi:nodetypes="ccccc"
         transform="translate(21.26030,53.14963)" />
      <path
         style="font-size:12;fill:#ffffff;fill-rule:evenodd;stroke-width:1pt;fill-opacity:1;stroke:#00005b;stroke-opacity:1;"
         d="M 744.094 -460.63 L 754.724 -442.914 L 804.33 -442.914 L 814.961 -460.63 L 744.094 -460.63 z "
         id="path669"
         sodipodi:nodetypes="ccccc"
         transform="translate(-230.3154,53.14986)" />
      <path
         style="font-size:12;fill:#ffffff;fill-rule:evenodd;stroke-width:1pt;fill-opacity:1;stroke:#00005b;stroke-opacity:1;"
         d="M 531.496 -496.063 L 531.496 -460.63 L 602.362 -460.63 L 602.362 -496.063 L 598.819 -496.063 L 598.819 -488.976 L 591.732 -488.976 L 591.732 -496.063 L 584.646 -496.063 L 584.646 -488.976 L 570.472 -488.976 L 570.472 -496.063 L 563.386 -496.063 L 563.386 -488.976 L 549.213 -488.976 L 549.213 -496.063 L 542.126 -496.063 L 542.126 -488.976 L 535.039 -488.976 L 535.039 -496.063 L 531.496 -496.063 z "
         id="path671"
         sodipodi:nodetypes="ccccccccccccccccccccc"
         transform="matrix(1.000000,0.000000,0.000000,0.600000,-17.71732,-131.1025)" />
      <path
         style="font-size:12;fill:#ffffff;fill-rule:evenodd;stroke-width:1pt;fill-opacity:1;stroke:#00005b;stroke-opacity:1;"
         d="M 531.496 -496.063 L 531.496 -460.63 L 602.362 -460.63 L 602.362 -496.063 L 598.819 -496.063 L 598.819 -488.976 L 591.732 -488.976 L 591.732 -496.063 L 584.646 -496.063 L 584.646 -488.976 L 570.472 -488.976 L 570.472 -496.063 L 563.386 -496.063 L 563.386 -488.976 L 549.213 -488.976 L 549.213 -496.063 L 542.126 -496.063 L 542.126 -488.976 L 535.039 -488.976 L 535.039 -496.063 L 531.496 -496.063 z "
         id="path672"
         sodipodi:nodetypes="ccccccccccccccccccccc"
         transform="matrix(1.000000,0.000000,0.000000,0.600000,233.8590,-131.1026)" />
      <path
         style="font-size:12;fill:#ffffff;fill-rule:evenodd;stroke-width:1pt;fill-opacity:1;stroke:#00005b;stroke-opacity:1;"
         d="M 746.928 -460.63 L 752.598 -442.914 L 803.622 -442.914 L 809.291 -460.63 L 746.928 -460.63 z "
         id="path673"
         sodipodi:nodetypes="ccccc"
         transform="matrix(1.249982,0.000000,0.000000,1.000000,-299.3946,31.89001)" />
      <path
         style="font-size:12;fill:#ffffff;fill-rule:evenodd;stroke-width:1pt;fill-opacity:1;stroke:#00005b;stroke-opacity:1;"
         d="M 531.496 -496.063 L 531.496 -460.63 L 602.362 -460.63 L 602.362 -496.063 L 598.819 -496.063 L 598.819 -488.976 L 591.732 -488.976 L 591.732 -496.063 L 584.646 -496.063 L 584.646 -488.976 L 570.472 -488.976 L 570.472 -496.063 L 563.386 -496.063 L 563.386 -488.976 L 549.213 -488.976 L 549.213 -496.063 L 542.126 -496.063 L 542.126 -488.976 L 535.039 -488.976 L 535.039 -496.063 L 531.496 -496.063 z "
         id="path674"
         sodipodi:nodetypes="ccccccccccccccccccccc"
         transform="matrix(1.100006,0.000000,0.000000,0.600002,49.60335,-152.3612)" />
      <path
         style="fill:#00005b;fill-rule:evenodd;stroke:none;stroke-opacity:1;stroke-width:1pt;stroke-linejoin:miter;stroke-linecap:butt;fill-opacity:1;"
         d="M 545.669 -361.417 L 549.213 -361.417 L 549.213 -350.787 L 556.299 -350.787 L 556.299 -347.244 L 549.213 -347.244 L 549.213 -333.071 L 545.669 -333.071 L 545.669 -347.244 L 538.583 -347.244 L 538.583 -350.787 L 545.669 -350.787 L 545.669 -361.417 z "
         id="path676"
         sodipodi:nodetypes="ccccccccccccc"
         transform="translate(-14.17324,-3.543259)" />
      <path
         style="fill:#00005b;fill-rule:evenodd;stroke:none;stroke-opacity:1;stroke-width:1pt;stroke-linejoin:miter;stroke-linecap:butt;fill-opacity:1;"
         d="M 545.669 -361.417 L 549.213 -361.417 L 549.213 -350.787 L 556.299 -350.787 L 556.299 -347.244 L 549.213 -347.244 L 549.213 -333.071 L 545.669 -333.071 L 545.669 -347.244 L 538.583 -347.244 L 538.583 -350.787 L 545.669 -350.787 L 545.669 -361.417 z "
         id="path677"
         sodipodi:nodetypes="ccccccccccccc"
         transform="translate(17.71671,53.14940)" />
      <path
         style="fill:#00005b;fill-rule:evenodd;stroke:none;stroke-opacity:1;stroke-width:1pt;stroke-linejoin:miter;stroke-linecap:butt;fill-opacity:1;"
         d="M 545.669 -361.417 L 549.213 -361.417 L 549.213 -350.787 L 556.299 -350.787 L 556.299 -347.244 L 549.213 -347.244 L 549.213 -333.071 L 545.669 -333.071 L 545.669 -347.244 L 538.583 -347.244 L 538.583 -350.787 L 545.669 -350.787 L 545.669 -361.417 z "
         id="path678"
         sodipodi:nodetypes="ccccccccccccc"
         transform="matrix(-1.000000,0.000000,0.000000,1.000000,1364.174,-3.542953)" />
      <path
         style="fill:#00005b;fill-rule:evenodd;stroke:none;stroke-opacity:1;stroke-width:1pt;stroke-linejoin:miter;stroke-linecap:butt;fill-opacity:1;"
         d="M 545.669 -361.417 L 549.213 -361.417 L 549.213 -350.787 L 556.299 -350.787 L 556.299 -347.244 L 549.213 -347.244 L 549.213 -333.071 L 545.669 -333.071 L 545.669 -347.244 L 538.583 -347.244 L 538.583 -350.787 L 545.669 -350.787 L 545.669 -361.417 z "
         id="path679"
         sodipodi:nodetypes="ccccccccccccc"
         transform="matrix(-1.000000,0.000000,0.000000,1.000000,1332.284,53.14970)" />
      <path
         style="fill:#00005b;fill-rule:evenodd;stroke:none;stroke-opacity:1;stroke-width:1pt;stroke-linejoin:miter;stroke-linecap:butt;fill-opacity:1;"
         d="M 545.669 -361.417 L 549.213 -361.417 L 549.213 -350.787 L 556.299 -350.787 L 556.299 -347.244 L 549.213 -347.244 L 549.213 -333.071 L 545.669 -333.071 L 545.669 -347.244 L 538.583 -347.244 L 538.583 -350.787 L 545.669 -350.787 L 545.669 -361.417 z "
         id="path681"
         sodipodi:nodetypes="ccccccccccccc"
         transform="matrix(-1.000000,0.000000,0.000000,1.000000,1222.441,-21.25963)" />
      <g
         id="g724"
         transform="matrix(0.140955,0.339507,-0.345096,0.152884,441.8813,-453.3421)">
        <path
           style="fill:#00005b;fill-rule:evenodd;stroke:#ffffff;stroke-opacity:1;stroke-width:3.75;stroke-linejoin:miter;stroke-linecap:butt;fill-opacity:1;stroke-dasharray:none;"
           d="M 35.4331 -17.7165 L 70.8661 2.55629e-14 C 88.5827 2.55629e-14 88.5827 17.7166 70.8661 17.7166 L 35.4331 2.55629e-14 C 17.7428 -1.56834 17.7165 -17.7165 35.4331 -17.7165 z "
           id="path712"
           sodipodi:nodetypes="ccccc"
           transform="translate(-17.71654,-301.1811)" />
        <path
           style="fill:#00005b;fill-rule:evenodd;stroke:#ffffff;stroke-opacity:1;stroke-width:3.75;stroke-linejoin:miter;stroke-linecap:butt;fill-opacity:1;stroke-dasharray:none;"
           d="M 35.433 -17.7164 L 70.8661 7.62939e-05 C 88.5827 7.62939e-05 88.5827 17.7166 70.8661 17.7166 L 35.433 7.62939e-05 C 17.7427 -1.56826 17.7164 -17.7164 35.433 -17.7164 z "
           id="path713"
           sodipodi:nodetypes="ccccc"
           transform="translate(-17.71650,-318.8976)" />
        <path
           style="fill:#00005b;fill-rule:evenodd;stroke:#ffffff;stroke-opacity:1;stroke-width:3.75;stroke-linejoin:miter;stroke-linecap:butt;fill-opacity:1;stroke-dasharray:none;"
           d="M 35.4331 -17.7165 L 70.8661 2.55629e-14 C 88.5827 2.55629e-14 88.5827 17.7166 70.8661 17.7166 L 35.4331 2.55629e-14 C 17.7428 -1.56834 17.7165 -17.7165 35.4331 -17.7165 z "
           id="path714"
           sodipodi:nodetypes="ccccc"
           transform="translate(-17.71650,-283.4646)" />
        <path
           style="fill:#00005b;fill-rule:evenodd;stroke:#ffffff;stroke-opacity:1;stroke-width:3.75;stroke-linejoin:miter;stroke-linecap:butt;fill-opacity:1;stroke-dasharray:none;"
           d="M 35.4331 -17.7165 L 70.8661 2.55629e-14 C 88.5827 2.55629e-14 88.5827 17.7166 70.8661 17.7166 L 35.4331 2.55629e-14 C 17.7428 -1.56834 17.7165 -17.7165 35.4331 -17.7165 z "
           id="path715"
           sodipodi:nodetypes="ccccc"
           transform="translate(-17.71650,-265.7481)" />
        <path
           style="fill:#00005b;fill-rule:evenodd;stroke:#ffffff;stroke-opacity:1;stroke-width:3.75;stroke-linejoin:miter;stroke-linecap:butt;fill-opacity:1;stroke-dasharray:none;"
           d="M 35.4331 -17.7165 L 70.8661 2.55629e-14 C 88.5827 2.55629e-14 88.5827 17.7166 70.8661 17.7166 L 35.4331 2.55629e-14 C 17.7428 -1.56834 17.7165 -17.7165 35.4331 -17.7165 z "
           id="path716"
           sodipodi:nodetypes="ccccc"
           transform="translate(-17.71650,-248.0316)" />
        <path
           style="fill:#00005b;fill-rule:evenodd;stroke:#ffffff;stroke-opacity:1;stroke-width:3.75;stroke-linejoin:miter;stroke-linecap:butt;fill-opacity:1;stroke-dasharray:none;"
           d="M 35.4331 -17.7165 L 70.8661 2.55629e-14 C 88.5827 2.55629e-14 88.5827 17.7166 70.8661 17.7166 L 35.4331 2.55629e-14 C 17.7428 -1.56834 17.7165 -17.7165 35.4331 -17.7165 z "
           id="path717"
           sodipodi:nodetypes="ccccc"
           transform="translate(-17.71654,-212.5985)" />
        <path
           style="fill:#00005b;fill-rule:evenodd;stroke:#ffffff;stroke-opacity:1;stroke-width:3.75;stroke-linejoin:miter;stroke-linecap:butt;fill-opacity:1;stroke-dasharray:none;"
           d="M 35.433 -17.7164 L 70.8661 7.62939e-05 C 88.5827 7.62939e-05 88.5827 17.7166 70.8661 17.7166 L 35.433 7.62939e-05 C 17.7427 -1.56826 17.7164 -17.7164 35.433 -17.7164 z "
           id="path718"
           sodipodi:nodetypes="ccccc"
           transform="translate(-17.71650,-230.3150)" />
        <path
           style="fill:#00005b;fill-rule:evenodd;stroke:#ffffff;stroke-opacity:1;stroke-width:3.75;stroke-linejoin:miter;stroke-linecap:butt;fill-opacity:1;stroke-dasharray:none;"
           d="M 35.4331 -17.7165 L 70.8661 2.55629e-14 C 88.5827 2.55629e-14 88.5827 17.7166 70.8661 17.7166 L 35.4331 2.55629e-14 C 17.7428 -1.56834 17.7165 -17.7165 35.4331 -17.7165 z "
           id="path719"
           sodipodi:nodetypes="ccccc"
           transform="translate(-17.71650,-194.8820)" />
        <path
           style="fill:#00005b;fill-rule:evenodd;stroke:#ffffff;stroke-opacity:1;stroke-width:3.75;stroke-linejoin:miter;stroke-linecap:butt;fill-opacity:1;stroke-dasharray:none;"
           d="M 35.4331 -17.7165 L 70.8661 2.55629e-14 C 88.5827 2.55629e-14 88.5827 17.7166 70.8661 17.7166 L 35.4331 2.55629e-14 C 17.7428 -1.56834 17.7165 -17.7165 35.4331 -17.7165 z "
           id="path720"
           sodipodi:nodetypes="ccccc"
           transform="translate(-17.71650,-177.1655)" />
        <path
           style="fill:#00005b;fill-rule:evenodd;stroke:#ffffff;stroke-opacity:1;stroke-width:3.75;stroke-linejoin:miter;stroke-linecap:butt;fill-opacity:1;stroke-dasharray:none;"
           d="M 35.4331 -17.7165 L 70.8661 2.55629e-14 C 88.5827 2.55629e-14 88.5827 17.7166 70.8661 17.7166 L 35.4331 2.55629e-14 C 17.7428 -1.56834 17.7165 -17.7165 35.4331 -17.7165 z "
           id="path721"
           sodipodi:nodetypes="ccccc"
           transform="translate(-17.71650,-159.4489)" />
        <path
           style="fill:#00005b;fill-rule:evenodd;stroke:#ffffff;stroke-opacity:1;stroke-width:3.75;stroke-linejoin:miter;stroke-linecap:butt;fill-opacity:1;stroke-dasharray:none;"
           d="M 35.433 0.000114441 C 35.433 0.000114441 70.8661 17.7166 70.8661 17.7166 L 35.433 17.7166 C 17.7427 16.1483 17.7164 0.000114441 35.433 0.000114441 z "
           id="path722"
           sodipodi:nodetypes="cccc"
           transform="translate(-17.71650,-159.4489)" />
        <path
           style="fill:#fffffe;fill-rule:evenodd;stroke:#00005b;stroke-opacity:1;stroke-width:3.75;stroke-linejoin:miter;stroke-linecap:butt;fill-opacity:1;stroke-dasharray:none;"
           d="M 35.4331 -53.1496 L 42.5197 -655.512 L 53.1496 -708.661 L 67.3228 -655.512 L 70.8661 -53.1496 L 35.4331 -53.1496 z "
           id="path710"
           sodipodi:nodetypes="cccccc"
           transform="matrix(1.000000,0.000000,0.000000,1.243244,-17.71654,-288.2528)" />
        <path
           style="fill:#fffffe;fill-rule:evenodd;stroke:#00005b;stroke-opacity:1;stroke-width:3.75;stroke-linejoin:miter;stroke-linecap:butt;fill-opacity:1;stroke-dasharray:none;"
           d="M -17.7165 -124.016 L 124.016 -124.016 L 159.449 -159.449 L 177.165 -141.732 L 124.016 -88.5826 L -17.7165 -88.5826 L -70.8661 -141.732 L -53.1496 -162.992 L -17.7165 -124.016 z "
           id="path711"
           sodipodi:nodetypes="ccccccccc"
           transform="translate(-17.71658,-230.3150)" />
        <path
           style="fill:#fffffe;fill-rule:evenodd;stroke:#00005b;stroke-opacity:1;stroke-width:3.75;stroke-linejoin:miter;stroke-linecap:butt;fill-opacity:1;stroke-dasharray:none;"
           d="M 17.7165 -17.7165 L 88.5826 -17.7165 C 106.299 -17.7165 106.299 17.7166 88.5826 17.7166 L 17.7165 17.7164 C 0.0261926 16.148 -0.000103712 -17.7165 17.7165 -17.7165 z "
           id="path723"
           sodipodi:nodetypes="ccccc"
           transform="translate(-17.71646,-124.0158)" />
      </g>
      <g
         id="g752"
         transform="matrix(0.377410,0.194885,-0.226679,0.486911,578.4083,-351.3613)">
        <rect
           style="font-size:12;fill:#ffffff;fill-rule:evenodd;stroke-width:3.75;stroke:#000042;stroke-opacity:1;fill-opacity:1;stroke-dasharray:none;"
           id="rect739"
           width="673.228333"
           height="35.4331360"
           x="-265.748016"
           y="-407.480347" />
        <rect
           style="font-size:12;fill:#ffffff;fill-rule:evenodd;stroke:#000042;stroke-width:3.75;stroke-dasharray:none;stroke-opacity:1;fill-opacity:1;"
           id="rect740"
           width="17.716518"
           height="35.433136"
           x="194.881905"
           y="-407.480331" />
        <rect
           style="font-size:12;fill:#ffffff;fill-rule:evenodd;stroke:#000042;stroke-width:3.75;stroke-dasharray:none;stroke-opacity:1;fill-opacity:1;"
           id="rect741"
           width="17.716536"
           height="35.433136"
           x="283.464561"
           y="-407.480331" />
        <rect
           style="font-size:12;fill:#ffffff;fill-rule:evenodd;stroke:#000042;stroke-width:3.75;stroke-dasharray:none;stroke-opacity:1;fill-opacity:1;"
           id="rect744"
           width="17.716518"
           height="35.433136"
           x="17.716522"
           y="-407.480362" />
        <rect
           style="font-size:12;fill:#ffffff;fill-rule:evenodd;stroke:#000042;stroke-width:3.75;stroke-dasharray:none;stroke-opacity:1;fill-opacity:1;"
           id="rect745"
           width="17.716536"
           height="35.433136"
           x="106.299187"
           y="-407.480331" />
        <rect
           style="font-size:12;fill:#ffffff;fill-rule:evenodd;stroke:#000042;stroke-width:3.75;stroke-dasharray:none;stroke-opacity:1;fill-opacity:1;"
           id="rect746"
           width="17.716518"
           height="35.433136"
           x="-177.165359"
           y="-407.480331" />
        <rect
           style="font-size:12;fill:#ffffff;fill-rule:evenodd;stroke:#000042;stroke-width:3.75;stroke-dasharray:none;stroke-opacity:1;fill-opacity:1;"
           id="rect747"
           width="17.716536"
           height="35.433136"
           x="-70.866150"
           y="-407.480392" />
        <rect
           style="font-size:12;fill:#ffffff;fill-rule:evenodd;stroke:#000042;stroke-width:3.75;stroke-dasharray:none;stroke-opacity:1;fill-opacity:1;"
           id="rect748"
           width="17.716518"
           height="35.433136"
           x="-265.748032"
           y="-407.480331" />
        <path
           style="fill:#ffffff;fill-rule:evenodd;stroke:#000042;stroke-opacity:1;stroke-width:3.75;stroke-linejoin:miter;stroke-linecap:butt;fill-opacity:1;stroke-dasharray:none;"
           d="M -266.489 -406.945 L -318.898 -442.913 L -389.764 -389.764 L -425.197 -389.764 L -318.898 -460.63 L -266.489 -406.945 z "
           id="path749"
           sodipodi:nodetypes="cccccc" />
        <path
           style="fill:#ffffff;fill-rule:evenodd;stroke:#000042;stroke-opacity:1;stroke-width:3.75;stroke-linejoin:miter;stroke-linecap:butt;fill-opacity:1;stroke-dasharray:none;"
           d="M -266.489 -405.328 L -319.639 -440.761 L -390.505 -387.611 L -425.938 -387.611 L -319.639 -458.477 L -266.489 -405.328 z "
           id="path750"
           transform="matrix(1.000000,0.000000,0.000000,-1.000000,0.740986,-777.3751)"
           sodipodi:nodetypes="cccccc" />
        <path
           style="fill:#ffffff;fill-rule:evenodd;stroke:#000042;stroke-opacity:1;stroke-width:3.75;stroke-linejoin:miter;stroke-linecap:butt;fill-opacity:1;stroke-dasharray:none;"
           d="M -442.913 -407.48 L -460.63 -389.764 L -442.913 -372.047 L -372.047 -389.764 L -442.913 -407.48 z "
           id="path751"
           sodipodi:nodetypes="ccccc" />
      </g>
      <g
         id="g771"
         transform="matrix(0.372806,0.000000,0.000000,0.351688,686.7491,-41.06569)">
        <path
           style="fill:#ffffff;fill-rule:evenodd;stroke:#00005b;stroke-opacity:1;stroke-width:5;stroke-linejoin:miter;stroke-linecap:butt;fill-opacity:1;stroke-dasharray:none;"
           d="M -159.449 -265.748 L -124.016 -336.614 L -53.1496 -336.614 L -35.4331 -265.748 L -17.7165 -336.614 L 53.1496 -336.614 L 88.5827 -265.748 L 17.7165 -230.315 L 88.5827 -248.031 L 106.299 -177.165 L 70.8661 -124.016 L 0 -178.467 L 53.1496 -106.299 L -18.0035 -68.0458 L -88.5827 -106.299 L -52.8102 -173.666 L -138.027 -53.6431 L -157.23 -69.246 L -68.4132 -177.267 L -124.016 -124.016 L -178.834 -161.664 L -159.449 -248.031 L -88.5827 -230.315 L -159.449 -265.748 z "
           id="path764"
           sodipodi:nodetypes="cccccccccccccccccccccccc" />
        <path
           sodipodi:type="arc"
           style="fill-rule:evenodd;stroke:#00005b;fill:#ffffff;fill-opacity:1;stroke-opacity:1;stroke-width:5;stroke-linejoin:miter;stroke-linecap:butt;stroke-dasharray:none;"
           id="path765"
           d="M 17.716537 -212.598404 A 53.149609 53.149612 0 1 0 -88.582680,-212.598404 A 53.1496 53.1496 0 1 0 17.7165 -212.598 L -35.433071 -212.598404 z"
           sodipodi:cx="-35.433071"
           sodipodi:cy="-212.598404"
           sodipodi:rx="53.149609"
           sodipodi:ry="53.149612" />
      </g>
      <path
         style="font-size:12;fill:#ffffff;fill-rule:evenodd;stroke:#00005b;stroke-width:3.75;stroke-opacity:1;fill-opacity:1;stroke-dasharray:none;"
         d="M 17.7165 -354.331 L 53.1496 -301.181 L 283.465 -301.181 L 318.898 -354.331 L 177.165 -442.913 L 167.107 -460.63 L 159.449 -442.913 L 17.7165 -354.331 z M 53.1496 -354.331 L 283.465 -354.331 L 168.033 -425.197 L 53.1496 -354.331 z M 51.61 -336.898 L 68.4132 -310.493 L 106.299 -311.693 L 96.0185 -336.614 L 51.61 -336.898 z M 283.464 -336.614 L 266.661 -310.209 L 230.314 -310.209 L 239.056 -336.614 L 283.464 -336.614 z M 115.222 -336.614 C 124.016 -337.531 159.449 -336.614 159.449 -336.614 L 159.449 -311.693 L 124.016 -311.693 L 115.222 -336.614 z M 221.392 -336.207 C 212.598 -337.124 177.165 -336.207 177.165 -336.207 L 177.165 -311.286 L 212.598 -311.286 L 221.392 -336.207 z "
         id="path786"
         transform="matrix(0.470589,0.000000,0.000000,0.555556,594.0250,-328.7402)" />
    </g>
    <g
       id="g611"
       transform="matrix(1.190319,0.000000,0.000000,1.432018,-192.8326,-124.6715)">
      <path
         style="fill:#ffffff;fill-rule:evenodd;stroke:#00005b;stroke-opacity:1;stroke-width:2.17979;stroke-linejoin:miter;stroke-linecap:butt;fill-opacity:1;stroke-dasharray:none;"
         d="M 698.525 275.223 C 703.326 270.423 662.519 256.02 679.322 229.615 C 696.125 203.21 734.532 222.414 744.133 260.821 C 753.735 299.228 727.33 349.637 729.731 395.245 C 732.131 440.854 722.529 436.052 734.532 474.459 C 724.93 469.659 708.127 440.854 705.727 400.046 C 703.326 359.239 715.328 311.23 710.527 306.429 "
         id="path605"
         transform="matrix(0.688531,-0.253223,0.219797,0.458466,252.2360,275.8858)"
         sodipodi:nodetypes="ccccccc" />
      <path
         style="fill:#ffffff;fill-rule:evenodd;stroke:#00005b;stroke-opacity:1;stroke-width:2.5;stroke-linejoin:miter;stroke-linecap:butt;fill-opacity:1;stroke-dasharray:none;"
         d="M 700.926 354.438 C 710.527 359.238 756.136 402.446 768.138 428.851 C 772.939 448.054 780.139 469.658 753.735 467.257 C 736.932 464.857 746.534 443.254 736.932 436.052 C 727.331 428.851 691.324 402.446 691.324 400.046 C 691.324 397.645 698.525 361.639 700.926 354.438 z "
         id="path607"
         sodipodi:nodetypes="cccccc"
         transform="matrix(0.567723,0.000000,0.000000,0.497243,420.4363,98.25114)" />
      <path
         style="fill:#ffffff;fill-rule:evenodd;stroke:#00005b;stroke-opacity:1;stroke-width:3.60144;stroke-linejoin:miter;stroke-linecap:butt;fill-opacity:1;stroke-dasharray:none;"
         d="M 691.324 467.258 L 688.924 529.669 C 688.924 529.669 662.519 527.269 645.716 536.87 C 628.913 546.472 616.911 553.673 619.311 553.673 C 621.712 553.673 648.116 539.271 660.118 539.271 C 672.121 539.271 679.322 553.673 681.722 551.273 C 684.123 548.872 696.125 534.47 712.928 534.47 C 729.731 534.47 753.735 544.072 751.335 541.671 C 748.934 539.271 715.328 524.868 710.527 520.067 C 705.727 515.266 710.527 472.059 705.727 472.059 C 700.926 472.059 696.125 472.059 691.324 467.258 z "
         id="path601"
         transform="matrix(0.351730,0.000000,0.000000,0.386744,566.4020,145.1083)" />
      <path
         style="fill:#ffffff;fill-rule:evenodd;stroke:#00005b;stroke-opacity:1;stroke-width:3.60144;stroke-linejoin:miter;stroke-linecap:butt;fill-opacity:1;stroke-dasharray:none;"
         d="M 713.669 479.885 L 688.924 529.669 C 688.924 529.669 662.519 527.269 645.716 536.87 C 628.913 546.472 616.911 553.673 619.311 553.673 C 621.712 553.673 648.116 539.271 660.118 539.271 C 672.121 539.271 679.322 553.673 681.722 551.273 C 684.123 548.872 696.125 534.47 712.928 534.47 C 729.731 534.47 753.735 544.072 751.335 541.671 C 748.934 539.271 715.328 524.868 710.527 520.067 C 705.727 515.266 732.872 484.686 728.072 484.686 C 723.271 484.686 718.47 484.686 713.669 479.885 z "
         id="path603"
         transform="matrix(-5.895177e-2,0.303707,-0.435316,-6.482012e-2,1025.065,118.5627)"
         sodipodi:nodetypes="ccccccccccc" />
      <path
         style="fill:#ffffff;fill-rule:evenodd;stroke:#00005b;stroke-opacity:1;stroke-width:2.5;stroke-linejoin:miter;stroke-linecap:butt;fill-opacity:1;stroke-dasharray:none;"
         d="M 648.116 407.247 C 640.915 407.247 602.508 402.446 597.707 416.849 C 592.906 431.251 655.318 440.853 655.318 438.453 C 655.318 436.052 650.517 412.048 648.116 407.247 z "
         id="path602"
         transform="matrix(0.567723,0.000000,0.000000,0.497243,420.4363,98.25114)" />
      <path
         style="fill:#ffffff;fill-rule:evenodd;stroke:#00005b;stroke-opacity:1;stroke-width:2.5;stroke-linejoin:miter;stroke-linecap:butt;fill-opacity:1;stroke-dasharray:none;"
         d="M 612.11 196.009 C 632.165 173.399 660.299 157.455 672.121 172.005 C 691.505 195.861 609.709 241.617 602.508 284.825 C 595.307 328.033 628.913 359.238 633.714 388.044 C 638.514 416.849 638.515 436.052 652.917 443.254 C 667.32 450.455 681.722 445.654 681.722 445.654 C 681.722 445.654 676.922 474.459 696.125 472.059 C 708.127 472.059 693.724 354.438 698.525 306.429 C 703.326 258.421 662.519 246.419 662.519 246.419 C 662.519 246.419 713.475 198.149 700.926 172.005 C 684.67 138.138 660.118 148.001 643.315 152.802 C 626.513 157.602 611.146 161.951 593.9 178.648 C 577.243 195.596 562.113 246.418 568.902 244.721 L 612.11 196.009 z "
         id="path599"
         sodipodi:nodetypes="cssscccscssscs"
         transform="matrix(0.567723,0.000000,0.000000,0.497243,420.4363,98.25114)" />
      <path
         style="fill:#ffffff;fill-rule:evenodd;stroke:#00005b;stroke-opacity:1;stroke-width:2.5;stroke-linejoin:miter;stroke-linecap:butt;fill-opacity:1;stroke-dasharray:none;"
         d="M 655.318 371.241 C 655.318 371.241 655.318 402.446 657.718 400.046 C 660.118 397.645 669.72 378.442 669.72 378.442 C 669.72 378.442 676.921 412.048 676.921 409.647 C 676.921 407.247 684.123 385.643 684.123 385.643 C 684.123 385.643 686.523 421.65 688.924 421.65 C 691.324 421.65 698.525 400.046 698.525 400.046 C 698.525 400.046 705.727 445.654 705.727 440.853 C 705.727 436.052 712.928 414.448 712.928 416.849 C 712.928 419.249 724.93 469.658 724.93 467.258 C 724.93 464.857 722.53 294.427 722.53 294.427 L 681.722 299.228 "
         id="path604"
         transform="matrix(0.567723,0.000000,0.000000,0.497243,421.7991,95.86394)" />
      <path
         style="fill:#ffffff;fill-rule:evenodd;stroke:#00005b;stroke-opacity:1;stroke-width:2.17979;stroke-linejoin:miter;stroke-linecap:butt;fill-opacity:1;stroke-dasharray:none;"
         d="M 662.519 280.024 C 664.919 280.024 693.724 280.024 698.525 275.223 C 703.326 270.423 662.519 256.02 679.322 229.615 C 696.125 203.21 734.532 222.414 744.133 260.821 C 753.735 299.228 727.33 349.637 729.731 395.245 C 732.131 440.854 722.529 436.052 734.532 474.459 C 724.93 469.659 708.127 440.854 705.727 400.046 C 703.326 359.239 715.328 311.23 710.527 306.429 C 705.727 301.628 684.123 306.429 684.123 306.429 "
         id="path600"
         transform="matrix(0.746768,0.000000,0.000000,0.497243,292.2762,99.44472)"
         sodipodi:nodetypes="ccccccccc" />
      <path
         style="fill:#01015c;fill-rule:evenodd;stroke:none;stroke-opacity:1;stroke-width:1pt;stroke-linejoin:miter;stroke-linecap:butt;fill-opacity:1;"
         d="M 595.422 213.65 C 595.422 213.65 601.654 207.572 602.306 206.072 C 600.557 205.772 597.408 204.525 595.071 202.282 C 590.239 197.027 588.075 185.909 588.075 186.757 C 588.075 187.606 578.8 204.117 578.8 204.117 L 595.422 213.65 z "
         id="path608"
         sodipodi:nodetypes="ccsccc"
         transform="matrix(0.567723,0.000000,0.000000,0.497243,420.4363,98.25114)" />
      <path
         style="fill:none;fill-rule:evenodd;stroke:#01015c;stroke-opacity:1;stroke-width:1.93431;stroke-linejoin:miter;stroke-linecap:butt;fill-opacity:1;stroke-dasharray:none;"
         d="M 600.108 184.907 C 603.109 181.906 610.01 175.305 610.01 175.305 "
         id="path609"
         transform="matrix(0.722554,0.000000,0.000000,0.652627,326.8396,70.41479)" />
      <path
         sodipodi:type="arc"
         style="fill-rule:evenodd;stroke:#01015c;fill:none;fill-opacity:1;stroke-opacity:1;stroke-width:2.5;stroke-linejoin:miter;stroke-linecap:butt;stroke-dasharray:none;"
         id="path610"
         d="M 612.410339 181.906372 A 3.150574 7.801399 0 1 0 606.109192,181.906372 A 3.15057 7.8014 0 1 0 612.41 181.906 L 609.259766 181.906372 z"
         sodipodi:cx="609.259766"
         sodipodi:cy="181.906372"
         sodipodi:rx="3.150574"
         sodipodi:ry="7.801399"
         transform="matrix(0.293931,0.213672,-0.247764,0.253487,630.9539,12.41003)" />
    </g>
    <g
       id="g646"
       transform="matrix(1.190319,0.000000,0.000000,1.432018,-121.4218,-131.5464)">
      <path
         style="font-size:12;fill:#00005b;fill-rule:evenodd;stroke:#eea400;stroke-width:2.17979;stroke-opacity:1;fill-opacity:1;"
         d="M 698.525 275.223 C 703.326 270.423 662.519 256.02 679.322 229.615 C 696.125 203.21 734.532 222.414 744.133 260.821 C 753.735 299.228 727.33 349.637 729.731 395.245 C 732.131 440.854 722.529 436.052 734.532 474.459 C 724.93 469.659 708.127 440.854 705.727 400.046 C 703.326 359.239 715.328 311.23 710.527 306.429 "
         id="path624"
         transform="matrix(-0.688531,-0.253223,-0.219797,0.458466,1069.253,280.6867)"
         sodipodi:nodetypes="ccccccc" />
      <path
         style="font-size:12;fill:#00005b;fill-rule:evenodd;stroke:#eea400;stroke-width:2.5;stroke-opacity:1;fill-opacity:1;"
         d="M 700.926 354.438 C 710.527 359.238 756.136 402.446 768.138 428.851 C 772.939 448.054 780.139 469.658 753.735 467.257 C 736.932 464.857 746.534 443.254 736.932 436.052 C 727.331 428.851 691.324 402.446 691.324 400.046 C 691.324 397.645 698.525 361.639 700.926 354.438 z "
         id="path625"
         sodipodi:nodetypes="cccccc"
         transform="matrix(-0.567723,0.000000,0.000000,0.497243,901.0527,103.0520)" />
      <path
         style="font-size:12;fill:#ffffff;fill-rule:evenodd;stroke:#00005b;stroke-width:3.60144;stroke-opacity:1;fill-opacity:1;"
         d="M 691.324 467.258 L 688.924 529.669 C 688.924 529.669 662.519 527.269 645.716 536.87 C 628.913 546.472 616.911 553.673 619.311 553.673 C 621.712 553.673 648.116 539.271 660.118 539.271 C 672.121 539.271 679.322 553.673 681.722 551.273 C 684.123 548.872 696.125 534.47 712.928 534.47 C 729.731 534.47 753.735 544.072 751.335 541.671 C 748.934 539.271 715.328 524.868 710.527 520.067 C 705.727 515.266 710.527 472.059 705.727 472.059 C 700.926 472.059 696.125 472.059 691.324 467.258 z "
         id="path626"
         transform="matrix(-0.351730,0.000000,0.000000,0.386744,755.0870,149.9092)" />
      <path
         style="font-size:12;fill:#ffffff;fill-rule:evenodd;stroke:#00005b;stroke-width:3.60144;stroke-opacity:1;fill-opacity:1;"
         d="M 713.669 479.885 L 688.924 529.669 C 688.924 529.669 662.519 527.269 645.716 536.87 C 628.913 546.472 616.911 553.673 619.311 553.673 C 621.712 553.673 648.116 539.271 660.118 539.271 C 672.121 539.271 679.322 553.673 681.722 551.273 C 684.123 548.872 696.125 534.47 712.928 534.47 C 729.731 534.47 753.735 544.072 751.335 541.671 C 748.934 539.271 715.328 524.868 710.527 520.067 C 705.727 515.266 732.872 484.686 728.072 484.686 C 723.271 484.686 718.47 484.686 713.669 479.885 z "
         id="path627"
         transform="matrix(5.895177e-2,0.303707,0.435316,-6.482012e-2,298.2245,125.1639)"
         sodipodi:nodetypes="ccccccccccc" />
      <path
         style="font-size:12;fill:#00005b;fill-rule:evenodd;stroke:#eea400;stroke-width:2.5;stroke-opacity:1;fill-opacity:1;"
         d="M 648.116 407.247 C 640.915 407.247 602.508 402.446 597.707 416.849 C 592.906 431.251 655.318 440.853 655.318 438.453 C 655.318 436.052 650.517 412.048 648.116 407.247 z "
         id="path628"
         transform="matrix(-0.567723,0.000000,0.000000,0.497243,901.0527,103.0520)" />
      <path
         style="font-size:12;fill:#00005b;fill-rule:evenodd;stroke:#eea400;stroke-width:2.5;stroke-opacity:1;fill-opacity:1;"
         d="M 612.11 196.009 C 632.165 173.399 660.299 157.455 672.121 172.005 C 691.505 195.861 609.709 241.617 602.508 284.825 C 595.307 328.033 628.913 359.238 633.714 388.044 C 638.514 416.849 638.515 436.052 652.917 443.254 C 667.32 450.455 681.722 445.654 681.722 445.654 C 681.722 445.654 676.922 474.459 696.125 472.059 C 708.127 472.059 693.724 354.438 698.525 306.429 C 703.326 258.421 662.519 246.419 662.519 246.419 C 662.519 246.419 713.475 198.149 700.926 172.005 C 684.67 138.138 660.118 148.001 643.315 152.802 C 626.513 157.602 611.146 161.951 593.9 178.648 C 577.243 195.596 562.113 246.418 568.902 244.721 L 612.11 196.009 z "
         id="path629"
         sodipodi:nodetypes="cssscccscssscs"
         transform="matrix(-0.567723,0.000000,0.000000,0.497243,901.0527,103.0520)" />
      <path
         style="font-size:12;fill:#00005b;fill-rule:evenodd;stroke:#eea400;stroke-width:2.5;stroke-opacity:1;fill-opacity:1;"
         d="M 655.318 371.241 C 655.318 371.241 655.318 402.446 657.718 400.046 C 660.118 397.645 669.72 378.442 669.72 378.442 C 669.72 378.442 676.921 412.048 676.921 409.647 C 676.921 407.247 684.123 385.643 684.123 385.643 C 684.123 385.643 686.523 421.65 688.924 421.65 C 691.324 421.65 698.525 400.046 698.525 400.046 C 698.525 400.046 705.727 445.654 705.727 440.853 C 705.727 436.052 712.928 414.448 712.928 416.849 C 712.928 419.249 724.93 469.658 724.93 467.258 C 724.93 464.857 722.53 294.427 722.53 294.427 L 681.722 299.228 "
         id="path630"
         transform="matrix(-0.567723,0.000000,0.000000,0.497243,899.6899,100.6648)" />
      <path
         style="font-size:12;fill:#00005b;fill-rule:evenodd;stroke:#eea400;stroke-width:2.17979;stroke-opacity:1;fill-opacity:1;"
         d="M 662.519 280.024 C 664.919 280.024 693.724 280.024 698.525 275.223 C 703.326 270.423 662.519 256.02 679.322 229.615 C 696.125 203.21 734.532 222.414 744.133 260.821 C 753.735 299.228 727.33 349.637 729.731 395.245 C 732.131 440.854 722.529 436.052 734.532 474.459 C 724.93 469.659 708.127 440.854 705.727 400.046 C 703.326 359.239 715.328 311.23 710.527 306.429 C 705.727 301.628 684.123 306.429 684.123 306.429 "
         id="path631"
         transform="matrix(-0.746768,0.000000,0.000000,0.497243,1029.213,104.2456)"
         sodipodi:nodetypes="ccccccccc" />
      <path
         style="font-size:12;fill:#ffffff;fill-rule:evenodd;stroke-width:1pt;stroke:none;stroke-opacity:1;fill-opacity:1;"
         d="M 595.422 213.65 C 595.422 213.65 601.654 207.572 602.306 206.072 C 600.557 205.772 597.408 204.525 595.071 202.282 C 590.239 197.027 588.075 185.909 588.075 186.757 C 588.075 187.606 578.8 204.117 578.8 204.117 L 595.422 213.65 z "
         id="path632"
         sodipodi:nodetypes="ccsccc"
         transform="matrix(-0.567723,0.000000,0.000000,0.497243,901.0527,103.0520)" />
      <path
         style="font-size:12;fill:none;fill-rule:evenodd;stroke:#ffffff;stroke-width:1.93431;stroke-opacity:1;fill-opacity:1;"
         d="M 600.108 184.907 C 603.109 181.906 610.01 175.305 610.01 175.305 "
         id="path633"
         transform="matrix(-0.722554,0.000000,0.000000,0.652627,994.6494,75.21564)" />
      <path
         sodipodi:type="arc"
         style="font-size:12;fill:none;fill-rule:evenodd;stroke:#ffffff;stroke-width:2.5;stroke-opacity:1;fill-opacity:1;"
         id="path634"
         d="M 612.410339 181.906372 A 3.150574 7.801399 0 1 0 606.109192,181.906372 A 3.15057 7.8014 0 1 0 612.41 181.906 L 609.259766 181.906372 z"
         sodipodi:cx="609.259766"
         sodipodi:cy="181.906372"
         sodipodi:rx="3.150574"
         sodipodi:ry="7.801399"
         transform="matrix(-0.293931,0.213672,0.247764,0.253487,690.5351,17.21089)" />
    </g>
  </g>
</svg>
