<?xml version="1.0" encoding="UTF-8" standalone="no"?>
<!DOCTYPE svg PUBLIC "-//W3C//DTD SVG 20010904//EN"
"http://www.w3.org/TR/2001/REC-SVG-20010904/DTD/svg10.dtd">
<!-- Created with Sodipodi ("http://www.sodipodi.com/") -->
<svg
   version="1"
   x="0"
   y="0"
   width="210mm"
   height="140mm"
   id="svg378"
   sodipodi:version="0.33pre"
   sodipodi:docname="/home/delaunoi/tmp/brussels.svg"
   sodipodi:docbase="/home/delaunoi/tmp/"
   xmlns="http://www.w3.org/2000/svg"
   xmlns:sodipodi="http://sodipodi.sourceforge.net/DTD/sodipodi-0.dtd"
   xmlns:xlink="http://www.w3.org/1999/xlink">
  <sodipodi:namedview
     id="base"
     showgrid="false"
     snaptogrid="false"
     gridspacingx="1mm"
     gridspacingy="1mm" />
  <defs
     id="defs380" />
  <rect
     width="744.094360"
     height="496.062561"
     x="0.000076"
     y="-0.000008"
     style="font-size:12;fill:#0000cc;fill-rule:evenodd;stroke-width:1pt;fill-opacity:1;"
     id="rect135" />
  <g
     id="g596">
    <path
       style="font-size:12;fill:#ffffff;fill-rule:evenodd;stroke-width:1pt;"
       d="M 347.244 464.173 C 325.862 462.924 319.119 441.27 314.167 426.767 C 310.07 412.47 310.789 397.382 303.128 381.408 C 295.263 363.371 293.184 372.541 279.519 352.722 C 269.84 325.226 265.364 282.616 250.789 285.437 C 233.645 285.038 214.604 319.126 182.976 316.228 C 158.073 314.018 149.706 290.982 150.778 272.251 C 152.746 238.655 184.808 221.73 222.241 221.206 C 211.508 197.385 229.191 183.194 234.806 180.37 C 253.734 171.636 272.239 179.585 280.354 185.082 C 271.454 161.261 260.755 130.202 260.721 115.975 C 260.674 95.6129 279.051 57.3019 289.778 58.648 C 293.82 58.3699 306.792 64.4068 307.054 82.2071 C 321.713 51.842 331.118 33.3316 358.099 31.9476 C 374.71 31.468 389.93 39.4891 390.19 47.0977 C 402.921 50.1624 409.929 69.6423 409.929 75.1394 C 438.985 72.522 443.861 96.3213 443.697 108.908 C 442.444 144.793 421.457 179.957 389.512 208.641 C 413.323 216.908 419.353 227.489 427.992 236.912 C 496.575 196.338 595.767 251.47 592.12 293.454 C 591.736 299.188 596.849 320.933 559.137 326.437 C 529.287 330.679 506.434 285.775 458.619 284.816 C 443.248 283.69 380.873 300.521 379.302 311.516 C 385.323 308.244 420.605 300.538 433.008 302.726 C 455.395 307.462 485.201 316.157 487.675 343.714 C 489.533 363.821 464.496 370.048 451.55 368.844 C 435.11 368.1 404.428 350.65 384.407 360.206 C 367.608 367.865 361.296 393.92 356.529 412.821 C 353.704 424.023 363.719 438.194 372.235 444.233 C 378.813 448.113 358.943 464.81 347.244 464.173 z "
       id="path758"
       sodipodi:nodetypes="cssccsscscsscsccsccssscsssssss"
       transform="translate(0.594406,-1.525879e-5)" />
    <path
       style="font-size:12;fill:#ffcc00;fill-rule:evenodd;stroke-width:1pt;fill-opacity:1;"
       d="M 351.502 454.416 C 342.082 455.082 340.546 452.342 335.953 445.206 C 332.907 440.995 327.94 437.022 325.958 432.204 C 317.204 410.923 316.1 382.136 303.746 366.124 C 277.576 354.021 275.079 297.947 270.429 290.604 C 263.392 273.763 251.475 275.872 242.664 277.832 C 219.361 283.19 202.199 311.746 188.126 307.398 C 150.717 295.155 157.52 262.271 169.365 250.623 C 179.327 240.131 204.502 228.992 222.673 229.982 C 239.135 230.093 263.374 233.522 271.483 244.554 C 290.584 270.542 298.065 321.014 305.087 339.47 C 306.871 343.374 315.966 352.37 320.96 349.791 C 327.993 345.052 304.625 316.096 299.304 276.166 C 298.875 272.389 288.666 243.994 277.647 234.519 C 265.089 223.61 245.89 227.433 238.777 221.192 C 220.673 204.52 240.497 187.898 252.104 187.874 C 274.511 187.827 294.47 201.938 299.304 203.978 C 297.393 191.136 273.324 147.626 272.65 120.128 C 271.188 92.5164 287.926 74.1451 293.751 74.0389 C 301.54 73.9112 304.779 104.394 303.746 114.02 C 297.404 150.331 311.03 194.027 317.073 218.472 C 318.145 222.948 322.652 223.652 322.626 221.747 C 322.112 185.483 310.389 146.844 310.41 130.679 C 310.444 103.027 325.841 71.5767 340.951 50.7166 C 346.757 42.7014 360.545 43.104 373.158 44.053 C 375.114 44.21 381.9 49.7891 376.029 52.422 C 362.364 58.903 345.272 94.0315 338.96 121.794 C 331.599 153.258 328.715 225.903 334.097 219.852 C 365.015 184.307 377.41 110.343 373.484 72.2778 C 372.494 62.8735 376.67 59.7607 386.485 61.8225 C 400.107 64.5192 396.666 74.188 398.702 81.8131 C 408.228 118.278 377.995 175.08 359.831 209.531 C 359.156 210.841 363.384 211.611 364.273 210.641 C 367.456 207.168 369.298 200.364 372.833 196.204 C 412.2 150.801 406.89 105.271 409.578 88.1512 C 410.508 79.7806 415.649 81.368 418.137 81.8131 C 429.954 84.7122 433.699 92.4089 433.685 99.5825 C 433.536 174.948 377.693 205.452 370.382 215.084 C 369.308 216.615 370.184 220.518 371.492 220.637 C 374.256 220.888 377.22 216.126 382.598 215.409 C 389.158 215.492 397.076 217.494 402.589 221.192 C 412.254 227.675 422.377 245.877 428.132 246.736 C 433.213 247.611 455.294 228.936 482.551 231.187 C 510.914 234.315 567.52 248.07 583.289 286.677 C 587.027 295.395 579.272 325.212 549.769 316.865 C 523.242 309.138 498.768 243.237 378.616 298.838 C 359.972 307.409 328.422 349.027 328.735 372.232 C 329.341 384.608 329.441 399.057 334.287 411.103 C 339.021 413.261 328.009 358.209 359.831 330.03 C 383.619 309.552 461.796 296.298 479.775 343.357 C 481.933 349.101 477.379 359.825 462.005 361.126 C 437.85 361.937 435.821 346.11 395.044 345.483 C 391.215 345.425 373.097 351.195 367.05 362.237 C 357.14 381.768 350.333 402.23 349.28 421.653 C 349.448 433.819 354.945 441.916 361.171 445.111 C 364.421 447.182 356.516 454.117 351.502 454.416 z "
       id="path760"
       sodipodi:nodetypes="cssccssssssssssscsssssssssssssssssssssssssssssscssssssss"
       transform="translate(0.594406,-1.525879e-5)" />
    <path
       style="font-size:12;fill:#0000cc;fill-rule:evenodd;stroke-width:1pt;fill-opacity:1;"
       d="M 338.467 205.107 C 338.336 145.293 355.874 88.2276 364.774 79.8511 C 365.298 92.1541 365.775 109.434 364.775 115.975 C 364.134 120.665 339.252 213.745 338.467 205.107 z "
       id="path761"
       sodipodi:nodetypes="ccsc"
       transform="translate(0.594406,-1.525879e-5)" />
    <path
       style="font-size:12;fill:#ffffff;fill-rule:evenodd;stroke-width:1pt;"
       d="M 327.473 318.191 C 330.09 283.376 353.81 268.615 370.664 263.22 C 374.18 261.931 385.343 266.925 380.873 267.931 C 368.098 270.631 340.038 296.726 327.473 318.191 z "
       id="path762"
       sodipodi:nodetypes="cssc"
       transform="translate(0.594406,-1.525879e-5)" />
  </g>
</svg>
