<?xml version="1.0" encoding="UTF-8" standalone="no"?>
<!DOCTYPE svg PUBLIC "-//W3C//DTD SVG 20010904//EN"
"http://www.w3.org/TR/2001/REC-SVG-20010904/DTD/svg10.dtd"
[
 <!ATTLIST svg
  xmlns:xlink CDATA #FIXED "http://www.w3.org/1999/xlink">
]>
<!-- Created with Sodipodi ("http://www.sodipodi.com/") -->
<svg
   id="svg548"
   sodipodi:version="0.32"
   xmlns="http://www.w3.org/2000/svg"
   xmlns:sodipodi="http://sodipodi.sourceforge.net/DTD/sodipodi-0.dtd"
   xmlns:xlink="http://www.w3.org/1999/xlink"
   width="210mm"
   height="140mm"
   sodipodi:docbase="/home/scarlet"
   sodipodi:docname="/home/scarlet/maori.svg">
  <defs
     id="defs550" />
  <sodipodi:namedview
     id="base"
     snaptogrid="true"
     showgrid="true" />
  <rect
     style="font-size:12;fill:#ffffff;fill-rule:evenodd;stroke-width:1pt;fill-opacity:1;"
     id="rect564"
     width="744.094482"
     height="496.062988"
     x="0.00000000"
     y="-0.00001526" />
  <rect
     style="font-size:12;fill:#0000ff;fill-rule:evenodd;stroke-width:1pt;fill-opacity:1;"
     id="rect558"
     width="336.614197"
     height="212.598434"
     x="0.00000000"
     y="-0.00001526" />
  <rect
     style="font-size:12;fill:#000000;fill-rule:evenodd;stroke-width:1pt;stroke:none;stroke-opacity:1;fill-opacity:1;"
     id="rect557"
     width="70.866147"
     height="212.598419"
     x="124.015750"
     y="-0.000209" />
  <rect
     style="font-size:12;fill:#000000;fill-rule:evenodd;stroke-width:1pt;stroke:none;stroke-opacity:1;fill-opacity:1;"
     id="rect556"
     width="336.614136"
     height="70.866140"
     x="0.000000"
     y="70.866157" />
  <rect
     style="font-size:12;fill:#ff0000;fill-rule:evenodd;stroke-width:1pt;stroke:none;stroke-opacity:1;fill-opacity:1;"
     id="rect552"
     width="70.866142"
     height="496.062988"
     x="336.614166"
     y="-0.000021" />
  <rect
     style="font-size:12;fill:#ff0000;fill-rule:evenodd;stroke-width:1pt;stroke:none;stroke-opacity:1;fill-opacity:1;"
     id="rect553"
     width="744.094516"
     height="70.866142"
     x="0.000000"
     y="212.598434" />
  <rect
     style="font-size:12;fill:#ff0000;fill-rule:evenodd;stroke-width:1pt;stroke:none;stroke-opacity:1;fill-opacity:1;"
     id="rect554"
     width="35.433077"
     height="212.598419"
     x="141.732282"
     y="-0.000013" />
  <rect
     style="font-size:12;fill:#ff0000;fill-rule:evenodd;stroke-width:1pt;stroke:none;stroke-opacity:1;fill-opacity:1;"
     id="rect555"
     width="336.614136"
     height="35.433090"
     x="0.000038"
     y="88.582660" />
  <polygon
     sodipodi:type="star"
     style="font-size:12;fill:#ffffff;fill-rule:evenodd;stroke-width:1pt;fill-opacity:1;"
     id="polygon560"
     sodipodi:sides="8"
     sodipodi:cx="62.8010139"
     sodipodi:cy="35.4330673"
     sodipodi:r1="21.2680988"
     sodipodi:r2="12.7608595"
     sodipodi:arg1="1.54293573"
     sodipodi:arg2="1.93563485"
     points="63.3935,56.6929 58.248,47.354 48.187,50.885 51.1521,40.643 41.5412,36.0255 50.8801,30.88 47.3491,20.819 57.5911,23.7842 62.2085,14.1732 67.3541,23.5121 77.4151,19.9811 74.4499,30.2232 84.0609,34.8406 74.722,39.9861 78.2529,50.0471 68.0109,47.082 63.3935,56.6929 "
     transform="translate(4.521818,3.543304)" />
  <polygon
     sodipodi:type="star"
     style="font-size:12;fill:#ffffff;fill-rule:evenodd;stroke-width:1pt;fill-opacity:1;"
     id="polygon561"
     sodipodi:sides="8"
     sodipodi:cx="62.8010139"
     sodipodi:cy="35.4330673"
     sodipodi:r1="21.2680988"
     sodipodi:r2="12.7608595"
     sodipodi:arg1="1.54293573"
     sodipodi:arg2="1.93563485"
     points="63.3935,56.6929 58.248,47.354 48.187,50.885 51.1521,40.643 41.5412,36.0255 50.8801,30.88 47.3491,20.819 57.5911,23.7842 62.2085,14.1732 67.3541,23.5121 77.4151,19.9811 74.4499,30.2232 84.0609,34.8406 74.722,39.9861 78.2529,50.0471 68.0109,47.082 63.3935,56.6929 "
     transform="translate(199.4037,3.543304)" />
  <polygon
     sodipodi:type="star"
     style="font-size:12;fill:#ffffff;fill-rule:evenodd;stroke-width:1pt;fill-opacity:1;"
     id="polygon562"
     sodipodi:sides="8"
     sodipodi:cx="62.8010139"
     sodipodi:cy="35.4330673"
     sodipodi:r1="21.2680988"
     sodipodi:r2="12.7608595"
     sodipodi:arg1="1.54293573"
     sodipodi:arg2="1.93563485"
     points="63.3935,56.6929 58.248,47.354 48.187,50.885 51.1521,40.643 41.5412,36.0255 50.8801,30.88 47.3491,20.819 57.5911,23.7842 62.2085,14.1732 67.3541,23.5121 77.4151,19.9811 74.4499,30.2232 84.0609,34.8406 74.722,39.9861 78.2529,50.0471 68.0109,47.082 63.3935,56.6929 "
     transform="translate(4.521818,145.2756)" />
  <polygon
     sodipodi:type="star"
     style="font-size:12;fill:#ffffff;fill-rule:evenodd;stroke-width:1pt;fill-opacity:1;"
     id="polygon563"
     sodipodi:sides="8"
     sodipodi:cx="62.8010139"
     sodipodi:cy="35.4330673"
     sodipodi:r1="21.2680988"
     sodipodi:r2="12.7608595"
     sodipodi:arg1="1.54293573"
     sodipodi:arg2="1.93563485"
     points="63.3935,56.6929 58.248,47.354 48.187,50.885 51.1521,40.643 41.5412,36.0255 50.8801,30.88 47.3491,20.819 57.5911,23.7842 62.2085,14.1732 67.3541,23.5121 77.4151,19.9811 74.4499,30.2232 84.0609,34.8406 74.722,39.9861 78.2529,50.0471 68.0109,47.082 63.3935,56.6929 "
     transform="translate(199.4037,145.2756)" />
</svg>
