<?xml version="1.0" ?>
<svg height="100" width="100">
  <metadata>
    <rdf:RDF xmlns:cc="http://web.resource.org/cc/" xmlns:dc="http://purl.org/dc/elements/1.1/" xmlns:rdf="http://www.w3.org/1999/02/22-rdf-syntax-ns#">
      <cc:Work rdf:about="">
        <dc:title>gramastar</dc:title>
        <dc:description></dc:description>
        <dc:subject>
          <rdf:Bag>
            <rdf:li>stars</rdf:li>
            <rdf:li>shapes</rdf:li>
            <rdf:li>magick</rdf:li>
            <rdf:li>geometry</rdf:li>
          </rdf:Bag>
        </dc:subject>
        <dc:publisher>
          <cc:Agent rdf:about="http://www.openclipart.org/">
            <dc:title>Open Clip Art Library</dc:title>
          </cc:Agent>
        </dc:publisher>
        <dc:creator>
          <cc:Agent>
            <dc:title>codifiedivining</dc:title>
          </cc:Agent>
        </dc:creator>
        <dc:rights>
          <cc:Agent>
            <dc:title>codifiedivining</dc:title>
          </cc:Agent>
        </dc:rights>
        <dc:date></dc:date>
        <dc:format>image/svg+xml</dc:format>
        <dc:type rdf:resource="http://purl.org/dc/dcmitype/StillImage"/>
        <cc:license rdf:resource="http://web.resource.org/cc/PublicDomain"/>
        <dc:language>en</dc:language>
      </cc:Work>
      <cc:License rdf:about="http://web.resource.org/cc/PublicDomain">
        <cc:permits rdf:resource="http://web.resource.org/cc/Reproduction"/>
        <cc:permits rdf:resource="http://web.resource.org/cc/Distribution"/>
        <cc:permits rdf:resource="http://web.resource.org/cc/DerivativeWorks"/>
      </cc:License>
    </rdf:RDF>
  </metadata>
  <path d="M 50.0,90.0 L 68.0404047686,85.7007534344 L 82.2028021251,73.7271897892 L 89.4428101596,56.6531741833 L 88.2040998883,38.1489767646 L 78.7529473551,22.192302893 L 63.1209943136,12.2132363357 L 44.668521785,10.3569004738 L 27.3621162268,17.0223375863 L 14.9220028717,30.7767297925 L 10.0223374508,48.6634009197 L 13.7163634506,66.8373904971 L 25.2100044416,81.3919754111 L 42.0325605958,89.1984682015 L 60.5678160749,88.5787670022 L 76.8313892056,79.6660842259 L 87.3272244417,64.3763109135 L 89.7991126035,45.996172335 L 83.7156908567,28.4767058735 L 70.3846657037,15.5839368296 L 52.6717053498,10.0893248551 L 34.3844289935,13.1740045329 L 19.4539121381,24.1748859376 L 11.0896534494,40.7271939893 L 11.0896534494,59.2728060107 L 19.4539121381,75.8251140624 L 34.3844289935,86.8259954671 L 52.6717053498,89.9106751449 L 70.3846657037,84.4160631704 L 83.7156908567,71.5232941265 L 89.7991126035,54.003827665 L 87.3272244417,35.6236890865 L 76.8313892056,20.3339157741 L 60.5678160749,11.4212329978 L 42.0325605958,10.8015317985 L 25.2100044416,18.6080245889 L 13.7163634506,33.1626095029 L 10.0223374508,51.3365990803 L 14.9220028717,69.2232702075 L 27.3621162268,82.9776624137 L 44.668521785,89.6430995262 L 63.1209943136,87.7867636643 L 78.7529473551,77.807697107 L 88.2040998883,61.8510232354 L 89.4428101596,43.3468258167 L 82.2028021251,26.2728102108 L 68.0404047686,14.2992465656 L 50.0,10.0 L 31.9595952314,14.2992465656 L 17.7971978749,26.2728102108 L 10.5571898404,43.3468258167 L 11.7959001117,61.8510232354 L 21.2470526449,77.807697107 L 36.8790056864,87.7867636643 L 55.331478215,89.6430995262 L 72.6378837732,82.9776624137 L 85.0779971283,69.2232702075 L 89.9776625492,51.3365990803 L 86.2836365494,33.1626095029 L 74.7899955584,18.6080245889 L 57.9674394042,10.8015317985 L 39.4321839251,11.4212329978 L 23.1686107944,20.3339157741 L 12.6727755583,35.6236890865 L 10.2008873965,54.003827665 L 16.2843091433,71.5232941265 L 29.6153342963,84.4160631704 L 47.3282946502,89.9106751449 L 65.6155710065,86.8259954671 L 80.5460878619,75.8251140624 L 88.9103465506,59.2728060107 L 88.9103465506,40.7271939893 L 80.5460878619,24.1748859376 L 65.6155710065,13.1740045329 L 47.3282946502,10.0893248551 L 29.6153342963,15.5839368296 L 16.2843091433,28.4767058735 L 10.2008873965,45.996172335 L 12.6727755583,64.3763109135 L 23.1686107944,79.6660842259 L 39.4321839251,88.5787670022 L 57.9674394042,89.1984682015 L 74.7899955584,81.3919754111 L 86.2836365494,66.8373904971 L 89.9776625492,48.6634009197 L 85.0779971283,30.7767297925 L 72.6378837732,17.0223375863 L 55.331478215,10.3569004738 L 36.8790056864,12.2132363357 L 21.2470526449,22.192302893 L 11.7959001117,38.1489767646 L 10.5571898404,56.6531741833 L 17.7971978749,73.7271897892 L 31.9595952314,85.7007534344 L 50.0,90.0Z" fill="none" stroke="black" stroke-width="0.1" transform="matrix(1 0 0 -1 0 100)"/>
</svg>
