<?xml version="1.0" ?>
<svg height="100" width="100">
  <metadata>
    <rdf:RDF xmlns:cc="http://web.resource.org/cc/" xmlns:dc="http://purl.org/dc/elements/1.1/" xmlns:rdf="http://www.w3.org/1999/02/22-rdf-syntax-ns#">
      <cc:Work rdf:about="">
        <dc:title>gramastar</dc:title>
        <dc:description></dc:description>
        <dc:subject>
          <rdf:Bag>
            <rdf:li>stars</rdf:li>
            <rdf:li>shapes</rdf:li>
            <rdf:li>magick</rdf:li>
            <rdf:li>geometry</rdf:li>
          </rdf:Bag>
        </dc:subject>
        <dc:publisher>
          <cc:Agent rdf:about="http://www.openclipart.org/">
            <dc:title>Open Clip Art Library</dc:title>
          </cc:Agent>
        </dc:publisher>
        <dc:creator>
          <cc:Agent>
            <dc:title>codifiedivining</dc:title>
          </cc:Agent>
        </dc:creator>
        <dc:rights>
          <cc:Agent>
            <dc:title>codifiedivining</dc:title>
          </cc:Agent>
        </dc:rights>
        <dc:date></dc:date>
        <dc:format>image/svg+xml</dc:format>
        <dc:type rdf:resource="http://purl.org/dc/dcmitype/StillImage"/>
        <cc:license rdf:resource="http://web.resource.org/cc/PublicDomain"/>
        <dc:language>en</dc:language>
      </cc:Work>
      <cc:License rdf:about="http://web.resource.org/cc/PublicDomain">
        <cc:permits rdf:resource="http://web.resource.org/cc/Reproduction"/>
        <cc:permits rdf:resource="http://web.resource.org/cc/Distribution"/>
        <cc:permits rdf:resource="http://web.resource.org/cc/DerivativeWorks"/>
      </cc:License>
    </rdf:RDF>
  </metadata>
  <path d="M 50.0,90.0 L 52.6161251692,10.0856430705 L 44.7789523112,89.657794455 L 57.8036128806,10.7685887839 L 39.6472381959,88.6370330516 L 62.8575786121,12.1227948202 L 34.6926627054,86.9551813005 L 67.6915476088,14.1250903387 L 30.0,84.6410161514 L 72.2228093208,16.7412155079 L 25.6495428397,81.7341336116 L 76.373832604,19.9264077008 L 21.7157287525,78.2842712475 L 80.0735922992,23.626167396 L 18.2658663884,74.3504571603 L 83.2587844921,27.7771906792 L 15.3589838486,70.0 L 85.8749096613,32.3084523912 L 13.0448186995,65.3073372946 L 87.8772051798,37.1424213879 L 11.3629669484,60.3527618041 L 89.2314112161,42.1963871194 L 10.342205545,55.2210476888 L 89.9143569295,47.3838748308 L 10.0,50.0 L 89.9143569295,52.6161251692 L 10.342205545,44.7789523112 L 89.2314112161,57.8036128806 L 11.3629669484,39.6472381959 L 87.8772051798,62.8575786121 L 13.0448186995,34.6926627054 L 85.8749096613,67.6915476088 L 15.3589838486,30.0 L 83.2587844921,72.2228093208 L 18.2658663884,25.6495428397 L 80.0735922992,76.373832604 L 21.7157287525,21.7157287525 L 76.373832604,80.0735922992 L 25.6495428397,18.2658663884 L 72.2228093208,83.2587844921 L 30.0,15.3589838486 L 67.6915476088,85.8749096613 L 34.6926627054,13.0448186995 L 62.8575786121,87.8772051798 L 39.6472381959,11.3629669484 L 57.8036128806,89.2314112161 L 44.7789523112,10.342205545 L 52.6161251692,89.9143569295 L 50.0,10.0 L 47.3838748308,89.9143569295 L 55.2210476888,10.342205545 L 42.1963871194,89.2314112161 L 60.3527618041,11.3629669484 L 37.1424213879,87.8772051798 L 65.3073372946,13.0448186995 L 32.3084523912,85.8749096613 L 70.0,15.3589838486 L 27.7771906792,83.2587844921 L 74.3504571603,18.2658663884 L 23.626167396,80.0735922992 L 78.2842712475,21.7157287525 L 19.9264077008,76.373832604 L 81.7341336116,25.6495428397 L 16.7412155079,72.2228093208 L 84.6410161514,30.0 L 14.1250903387,67.6915476088 L 86.9551813005,34.6926627054 L 12.1227948202,62.8575786121 L 88.6370330516,39.6472381959 L 10.7685887839,57.8036128806 L 89.657794455,44.7789523112 L 10.0856430705,52.6161251692 L 90.0,50.0 L 10.0856430705,47.3838748308 L 89.657794455,55.2210476888 L 10.7685887839,42.1963871194 L 88.6370330516,60.3527618041 L 12.1227948202,37.1424213879 L 86.9551813005,65.3073372946 L 14.1250903387,32.3084523912 L 84.6410161514,70.0 L 16.7412155079,27.7771906792 L 81.7341336116,74.3504571603 L 19.9264077008,23.626167396 L 78.2842712475,78.2842712475 L 23.626167396,19.9264077008 L 74.3504571603,81.7341336116 L 27.7771906792,16.7412155079 L 70.0,84.6410161514 L 32.3084523912,14.1250903387 L 65.3073372946,86.9551813005 L 37.1424213879,12.1227948202 L 60.3527618041,88.6370330516 L 42.1963871194,10.7685887839 L 55.2210476888,89.657794455 L 47.3838748308,10.0856430705 L 50.0,90.0Z" fill="none" stroke="black" stroke-width="0.1" transform="matrix(1 0 0 -1 0 100)"/>
</svg>
