<?xml version="1.0" encoding="UTF-8" standalone="no"?>
<!DOCTYPE svg PUBLIC "-//W3C//DTD SVG 20010904//EN"
"http://www.w3.org/TR/2001/REC-SVG-20010904/DTD/svg10.dtd">
<!-- Created with Sodipodi ("http://www.sodipodi.com/") --><svg height="6.100000cm" id="svg1350" sodipodi:docname="E:\sodipodi\travail_drapeau\provence02.svg" sodipodi:version="0.34" width="10.15000cm" xmlns="http://www.w3.org/2000/svg" xmlns:sodipodi="http://sodipodi.sourceforge.net/DTD/sodipodi-0.dtd" xmlns:xlink="http://www.w3.org/1999/xlink">
  <metadata>
    <rdf:RDF xmlns:cc="http://web.resource.org/cc/" xmlns:dc="http://purl.org/dc/elements/1.1/" xmlns:rdf="http://www.w3.org/1999/02/22-rdf-syntax-ns#">
      <cc:Work rdf:about="">
        <dc:title>France - Provence Alternate</dc:title>
        <dc:description></dc:description>
        <dc:subject>
          <rdf:Bag>
            <rdf:li></rdf:li>
            <rdf:li>europe</rdf:li>
            <rdf:li>france</rdf:li>
            <rdf:li>flag</rdf:li>
            <rdf:li>sign</rdf:li>
            <rdf:li>subnational</rdf:li>
          </rdf:Bag>
        </dc:subject>
        <dc:publisher>
          <cc:Agent rdf:about="http://www.openclipart.org">
            <dc:title>Patricia Fidi</dc:title>
          </cc:Agent>
        </dc:publisher>
        <dc:creator>
          <cc:Agent>
            <dc:title>Patricia Fidi</dc:title>
          </cc:Agent>
        </dc:creator>
        <dc:rights>
          <cc:Agent>
            <dc:title>Patricia Fidi</dc:title>
          </cc:Agent>
        </dc:rights>
        <dc:date></dc:date>
        <dc:format>image/svg+xml</dc:format>
        <dc:type rdf:resource="http://purl.org/dc/dcmitype/StillImage"/>
        <cc:license rdf:resource="http://web.resource.org/cc/PublicDomain"/>
        <dc:language>en</dc:language>
      </cc:Work>
      <cc:License rdf:about="http://web.resource.org/cc/PublicDomain">
        <cc:permits rdf:resource="http://web.resource.org/cc/Reproduction"/>
        <cc:permits rdf:resource="http://web.resource.org/cc/Distribution"/>
        <cc:permits rdf:resource="http://web.resource.org/cc/DerivativeWorks"/>
      </cc:License>
    </rdf:RDF>
  </metadata>
  <defs id="defs1352">
    <defs id="defs5117"/>
    <sodipodi:namedview id="namedview5116"/>
  </defs>
  <sodipodi:namedview bordercolor="#000000" borderlayer="top" borderopacity="1" id="base" showgrid="false"/>
  <rect height="216.187197" id="rect625" style="font-size:12;fill:#000099;fill-rule:evenodd;" width="359.580019" x="6.20775171e-2" y="0.1435073"/>
  <g id="g909" style="font-size:12;" transform="matrix(1.44,0,0,1.44,-80.29113,-60.25583)">
    <path d="M 208.8044 151.695 C 220.002 147.263 225.5145 140.5545 226.1064 131.0839 C 226.486 125.3905 220.8032 118.7126 214.7195 118.5583 C 195.7141 118.0443 189.3601 149.0304 189.4747 156.5936 C 190.2771 156.5913 194.2306 156.5124 195.2114 156.5504 C 196.0776 151.774 195.3337 145.9226 201.4067 140.9882 C 207.4797 136.0539 210.1647 139.8139 210.9239 142.8504 C 211.6831 145.8869 208.1208 152.0037 208.8044 151.695 L 208.8044 151.695 L 208.8044 151.695 L 208.8044 151.695 L 208.8044 151.695 L 208.8044 151.695 z " id="path619" sodipodi:nodetypes="cssccssccccc" style="font-size:12;fill:#ffd700;fill-rule:evenodd;stroke:#000000;stroke-width:1.2875;" transform="translate(-1.875,-6.09e-6)"/>
    <path d="M 158.0432 151.695 C 146.8456 147.2629 141.3331 140.5545 140.7412 131.0839 C 140.3616 125.3904 146.0444 118.7125 152.1281 118.5583 C 171.1335 118.0442 177.4875 149.0304 177.3729 156.5936 C 176.5705 156.5912 172.617 156.5123 171.6362 156.5503 C 170.77 151.7739 171.5139 145.9225 165.4409 140.9882 C 159.3679 136.0539 156.6829 139.8138 155.9237 142.8504 C 155.1645 145.8868 158.7268 152.0037 158.0432 151.695 L 158.0432 151.695 L 158.0432 151.695 L 158.0432 151.695 L 158.0432 151.695 L 158.0432 151.695 z " id="path620" sodipodi:nodetypes="cssccssccccc" style="font-size:12;fill:#ffd700;fill-rule:evenodd;stroke:#000000;stroke-width:1.2875;" transform="translate(-1.875,-6.09e-6)"/>
    <path d="M 183.5818 82.41585 C 196.4959 95.84421 199.9637 109.5017 191.3534 131.3796 C 188.3998 138.687 187.1498 147.4553 187.2711 156.5693 C 186.0211 156.5982 180.6995 156.5375 179.439 156.448 C 179.5497 147.4447 178.057 137.9696 175.114 130.5408 C 165.1429 108.1988 172.329 93.04373 183.239 82.41585 L 183.4104 82.41585 L 183.5818 82.41585 L 183.5818 82.41585 z " id="path621" sodipodi:nodetypes="cccccccc" style="font-size:12;fill:#ffd700;fill-rule:evenodd;stroke:#000000;stroke-width:1.2875;" transform="translate(-1.875,-6.09e-6)"/>
    <path d="M 190.3665 161.7291 C 193.0105 168.7859 197.6772 171.453 201.4918 173.3219 C 195.6777 176.0746 188.9578 173.085 187.6932 171.6617 C 187.847 173.6515 188.0045 179.0285 187.2782 182.6601 C 186.7863 185.5885 185.5412 187.2755 183.4391 189.6119 C 181.2602 187.3292 179.9126 185.4897 179.1863 182.8957 C 178.3038 179.1299 179.2376 173.7882 179.1595 171.7936 C 178.1512 173.0338 170.1093 176.0184 164.8177 173.4244 C 169.7443 171.2772 174.5184 168.7772 176.0724 161.5972 C 176.6485 161.6327 188.9139 161.6253 190.3665 161.6253 L 190.3665 161.7291 L 190.3665 161.7291 L 190.3665 161.7291 L 190.3665 161.7291 L 190.3665 161.7291 z " id="path622" sodipodi:nodetypes="cccccccccccccc" style="font-size:12;fill:#ffd700;fill-rule:evenodd;stroke:#000000;stroke-width:1.2875;" transform="translate(-1.875,-6.09e-6)"/>
    <rect height="4.55176803" id="rect623" style="font-size:12;fill:#ffd700;fill-rule:evenodd;stroke:#000000;stroke-width:1.178551;" transform="translate(-1.875,-6.09e-6)" width="30.5996705" x="167.961091" y="156.780557"/>
  </g>
  <rect height="7.49999478" id="rect956" style="font-size:12;fill:#ff0000;fill-rule:evenodd;fill-opacity:1;" width="283.791598" x="39.2674293" y="14.8916404"/>
  <path d="M 46.36338 22.26772 C 45.80107 33.73915 47.67857 44.45906 49.3655 51.84798 C 48.45025 51.82758 36.89982 51.68633 35.99397 51.80113 C 38.80552 44.41945 40.05406 33.82764 39.67292 22.26111 C 40.53091 22.28819 45.80107 22.26772 46.36338 22.26772 L 46.36338 22.26772 L 46.36338 22.26772 z " id="path957" sodipodi:nodetypes="cccccc" style="font-size:12;fill:#ff0000;fill-rule:evenodd;stroke:#ff0000;stroke-width:0.838729;fill-opacity:1;stroke-opacity:1;"/>
  <path d="M 184.4884 22.72066 C 183.9261 34.19209 185.8036 44.912 187.4905 52.30093 C 186.5752 52.28053 175.0248 52.13927 174.119 52.25408 C 176.9305 44.87239 178.1791 34.28058 177.7979 22.71405 C 178.6559 22.74114 183.9261 22.72066 184.4884 22.72066 L 184.4884 22.72066 L 184.4884 22.72066 z " id="path963" sodipodi:nodetypes="cccccc" style="font-size:12;fill:#ff0000;fill-rule:evenodd;stroke:#ff0000;stroke-width:0.838729;stroke-opacity:1;fill-opacity:1;"/>
  <path d="M 322.6134 22.33454 C 322.0511 33.80596 323.9286 44.52586 325.6155 51.91479 C 324.7002 51.89439 313.1498 51.75314 312.244 51.86794 C 315.0555 44.48626 316.3041 33.89446 315.9229 22.32792 C 316.7809 22.35501 322.0511 22.33454 322.6134 22.33454 L 322.6134 22.33454 L 322.6134 22.33454 z " id="path965" sodipodi:nodetypes="cccccc" style="font-size:12;fill:#ff0000;fill-rule:evenodd;stroke:#ff0000;stroke-width:0.838729;fill-opacity:1;stroke-opacity:1;"/>
</svg>
