<?xml version="1.0" encoding="UTF-8" standalone="no"?>
<!DOCTYPE svg PUBLIC "-//W3C//DTD SVG 1.0//EN"
"http://www.w3.org/TR/2001/REC-SVG-20010904/DTD/svg10.dtd">
<!-- Created with Sodipodi ("http://www.sodipodi.com/") --><svg height="297mm" id="svg850" sodipodi:docbase="/home/franck/Dessins/Vectoriels" sodipodi:docname="/home/franck/Dessins/Vectoriels/croissant.svg" sodipodi:version="0.34" space="preserve" width="210mm" xmlns="http://www.w3.org/2000/svg" xmlns:sodipodi="http://sodipodi.sourceforge.net/DTD/sodipodi-0.dtd" xmlns:xlink="http://www.w3.org/1999/xlink">
  <metadata>
    <rdf:RDF xmlns:cc="http://web.resource.org/cc/" xmlns:dc="http://purl.org/dc/elements/1.1/" xmlns:rdf="http://www.w3.org/1999/02/22-rdf-syntax-ns#">
      <cc:Work rdf:about="">
        <dc:title>croissant</dc:title>
        <dc:description></dc:description>
        <dc:subject>
          <rdf:Bag>
            <rdf:li>hash</rdf:li>
            <rdf:li></rdf:li>
            <rdf:li>food</rdf:li>
            <rdf:li>carbohydrate</rdf:li>
          </rdf:Bag>
        </dc:subject>
        <dc:publisher>
          <cc:Agent rdf:about="http://www.openclipart.org">
            <dc:title>Franck Doucet</dc:title>
          </cc:Agent>
        </dc:publisher>
        <dc:creator>
          <cc:Agent>
            <dc:title>Franck Doucet</dc:title>
          </cc:Agent>
        </dc:creator>
        <dc:rights>
          <cc:Agent>
            <dc:title>Franck Doucet</dc:title>
          </cc:Agent>
        </dc:rights>
        <dc:date></dc:date>
        <dc:format>image/svg+xml</dc:format>
        <dc:type rdf:resource="http://purl.org/dc/dcmitype/StillImage"/>
        <cc:license rdf:resource="http://web.resource.org/cc/PublicDomain"/>
        <dc:language>en</dc:language>
      </cc:Work>
      <cc:License rdf:about="http://web.resource.org/cc/PublicDomain">
        <cc:permits rdf:resource="http://web.resource.org/cc/Reproduction"/>
        <cc:permits rdf:resource="http://web.resource.org/cc/Distribution"/>
        <cc:permits rdf:resource="http://web.resource.org/cc/DerivativeWorks"/>
      </cc:License>
    </rdf:RDF>
  </metadata>
  <defs id="defs852">
    <linearGradient id="linearGradient868">
      <stop id="stop869" offset="0" style="stop-color:#000000;stop-opacity:0.451;"/>
      <stop id="stop870" offset="1" style="stop-color:#ffffff;stop-opacity:0.4471;"/>
    </linearGradient>
    <linearGradient id="linearGradient859">
      <stop id="stop860" offset="0" style="stop-color:#592500;stop-opacity:1;"/>
      <stop id="stop861" offset="1" style="stop-color:#ffc700;stop-opacity:1;"/>
    </linearGradient>
    <linearGradient id="linearGradient862" x1="-8.02639093e-8" x2="1" xlink:href="#linearGradient859" y1="2.43878162e-8" y2="2.43878162e-8"/>
    <radialGradient cx="0.31379315" cy="5.46874776e-2" fx="0.31379315" fy="5.46874776e-2" id="radialGradient863" r="1.12135196" xlink:href="#linearGradient859"/>
    <radialGradient cx="0.29865772" cy="4.38598357e-2" fx="0.29865772" fy="4.38598357e-2" id="radialGradient864" r="1.17325461" xlink:href="#linearGradient859"/>
    <radialGradient cx="0.31914887" cy="8.59386101e-2" fx="0.31914887" fy="8.59386101e-2" id="radialGradient865" r="1.21990919" xlink:href="#linearGradient859"/>
    <radialGradient cx="0.28859061" cy="5.88246994e-2" fx="0.28859061" fy="5.88246994e-2" id="radialGradient871" r="1.33645713" xlink:href="#linearGradient868"/>
  </defs>
  <sodipodi:namedview id="base"/>
  <path d="M 710.3811 432.5191 C 710.3811 552.45 582.8404 384.1957 463.2575 387.5365 C 271.5279 377.514 191.9867 567.6025 140.0413 527.8515 C 111.1828 508.1456 153.2077 220.4949 431.513 227.1766 C 597.2697 227.1766 709.3341 312.3505 710.3811 432.5191 z " id="path854" sodipodi:nodetypes="ccccc" style="font-size:12;fill:url(#radialGradient863);fill-rule:evenodd;stroke-width:1;fill-opacity:1;"/>
  <path d="M 676.8109 332.4129 C 615.4864 256.1495 490.6964 345.0676 542.6095 404.4638 C 532.8528 411.2541 513.5072 411.7575 421.4126 405.9111 C 361.3741 401.7351 303.1982 450.4857 287.2292 437.872 C 321.1513 371.4783 226.8803 310.438 168.1784 370.8324 C 168.1784 314.5571 253.0951 230.5173 392.5539 217.154 C 566.3085 204.6667 682.5826 272.7967 676.8109 332.4129 z " id="path858" sodipodi:nodetypes="cccccsc" style="font-size:12;fill:url(#radialGradient864);fill-rule:evenodd;stroke-width:1;"/>
  <path d="M 572.92 235.5286 C 481.294 239.3003 475.2061 364.1507 423.5769 367.4915 C 357.5186 367.4915 388.9464 207.5621 256.197 258.9144 C 308.1425 188.326 357.5534 206.8419 373.0745 206.2965 C 398.7969 205.4179 503.6594 183.3149 572.92 235.5286 z " id="path856" sodipodi:nodetypes="cccsc" style="font-size:12;fill:url(#radialGradient865);fill-rule:evenodd;stroke-width:1;fill-opacity:1;"/>
  <path d="M 287.7922 437.8095 C 345.1013 361.0795 188.9587 302.9066 172.0529 368.7513 C 208.0856 301.2372 337.6178 361.1769 287.7922 437.8095 z " id="path880" sodipodi:nodetypes="ccc" style="font-size:12;fill:url(#linearGradient862);fill-rule:evenodd;stroke:none;stroke-width:1;"/>
  <path d="M 290.1341 437.8095 C 348.1893 353.2647 190.014 289.1671 172.8881 361.7179 C 209.3899 287.3276 340.6084 353.372 290.1341 437.8095 z " id="path881" sodipodi:nodetypes="ccc" style="font-size:12;fill:url(#linearGradient862);fill-rule:evenodd;stroke:none;stroke-width:1;"/>
  <path d="M 398.8749 342.739 C 394.2005 249.6325 299.2062 222.4577 258.9146 259.2882 C 322.5092 206.5432 385.1899 262.1573 398.8749 342.739 z " id="path882" sodipodi:nodetypes="ccc" style="font-size:12;fill:url(#linearGradient862);fill-rule:evenodd;stroke:none;stroke-width:1;"/>
  <path d="M 384.4143 288.9989 C 359.8728 247.4324 324.2625 206.1442 263.9258 250.562 C 354.247 189.3701 384.1274 287.2065 384.4143 288.9989 z " id="path883" sodipodi:nodetypes="ccc" style="font-size:12;fill:url(#linearGradient862);fill-rule:evenodd;stroke:none;stroke-width:1;"/>
</svg>
