<?xml version="1.0" encoding="UTF-8" standalone="no"?>
<!-- Created with Inkscape (http://www.inkscape.org/) --><svg height="297mm" id="svg2" inkscape:version="0.41" sodipodi:docbase="/home/ff/Desktop" sodipodi:docname="macchia_ink.svg" sodipodi:version="0.32" width="210mm" xmlns="http://www.w3.org/2000/svg" xmlns:cc="http://web.resource.org/cc/" xmlns:dc="http://purl.org/dc/elements/1.1/" xmlns:inkscape="http://www.inkscape.org/namespaces/inkscape" xmlns:rdf="http://www.w3.org/1999/02/22-rdf-syntax-ns#" xmlns:sodipodi="http://inkscape.sourceforge.net/DTD/sodipodi-0.dtd" xmlns:svg="http://www.w3.org/2000/svg">
  <metadata>
    <rdf:RDF xmlns:cc="http://web.resource.org/cc/" xmlns:dc="http://purl.org/dc/elements/1.1/" xmlns:rdf="http://www.w3.org/1999/02/22-rdf-syntax-ns#">
      <cc:Work rdf:about="">
        <dc:title>ink</dc:title>
        <dc:description></dc:description>
        <dc:subject>
          <rdf:Bag>
            <rdf:li>symbol</rdf:li>
          </rdf:Bag>
        </dc:subject>
        <dc:publisher>
          <cc:Agent rdf:about="http://www.openclipart.org">
            <dc:title>Open Clip Art Library</dc:title>
          </cc:Agent>
        </dc:publisher>
        <dc:creator>
          <cc:Agent>
            <dc:title>ff77</dc:title>
          </cc:Agent>
        </dc:creator>
        <dc:rights>
          <cc:Agent>
            <dc:title>ff77</dc:title>
          </cc:Agent>
        </dc:rights>
        <dc:date></dc:date>
        <dc:format>image/svg+xml</dc:format>
        <dc:type rdf:resource="http://purl.org/dc/dcmitype/StillImage"/>
        <cc:license rdf:resource="http://web.resource.org/cc/PublicDomain"/>
        <dc:language>en</dc:language>
      </cc:Work>
      <cc:License rdf:about="http://web.resource.org/cc/PublicDomain">
        <cc:permits rdf:resource="http://web.resource.org/cc/Reproduction"/>
        <cc:permits rdf:resource="http://web.resource.org/cc/Distribution"/>
        <cc:permits rdf:resource="http://web.resource.org/cc/DerivativeWorks"/>
      </cc:License>
    </rdf:RDF>
  </metadata>
  <defs id="defs3"/>
  <sodipodi:namedview bordercolor="#666666" borderopacity="1.0" id="base" inkscape:current-layer="layer1" inkscape:cx="375.00000" inkscape:cy="520.00000" inkscape:document-units="px" inkscape:pageopacity="0.0" inkscape:pageshadow="2" inkscape:window-height="774" inkscape:window-width="1145" inkscape:window-x="0" inkscape:window-y="30" inkscape:zoom="0.35000000" pagecolor="#ffffff"/>
  <g id="layer1" inkscape:groupmode="layer" inkscape:label="Layer 1">
    <path d="M 388.91234,441.85466 C 367.41740,480.03409 287.79514,361.18045 248.69602,385.81288 C 209.59690,410.44531 267.82795,625.10445 227.35653,638.81466 C 186.88511,652.52486 174.71130,490.41225 132.03687,490.04129 C 89.362451,489.67034 80.672699,657.58444 38.252874,653.32193 C -4.1669512,649.05941 38.009325,458.38024 0.88494442,437.93933 C -36.239436,417.49842 -154.93259,558.52733 -190.33588,533.59780 C -225.73918,508.66827 -83.153619,376.98229 -112.64004,341.92182 C -142.12646,306.86135 -259.34803,412.35814 -281.30573,373.80671 C -303.26342,335.25529 -180.53056,312.40032 -185.69478,269.46563 C -190.85900,226.53094 -342.83048,179.12331 -333.66484,135.53751 C -324.49921,91.951706 -183.38887,157.37279 -166.49932,114.82986 C -149.60978,72.286930 -253.00764,-45.869534 -225.11064,-80.128478 C -197.21363,-114.38742 -132.52240,51.976649 -95.313374,26.486906 C -58.104345,0.99716326 -152.92108,-166.33919 -113.74933,-187.42090 C -74.577581,-208.50262 9.7539002,-11.937679 56.106598,-15.426001 C 102.45930,-18.914322 110.22517,-235.51924 154.37277,-223.47381 C 198.52037,-211.42839 155.48043,-10.633514 195.86378,4.2484421 C 236.24712,19.130398 277.19744,-174.27263 316.34930,-150.45919 C 355.50116,-126.64574 268.48983,-4.4767660 291.87542,34.106996 C 315.26102,72.690759 416.95643,8.2965101 437.80141,45.090559 C 458.64639,81.884609 335.75663,119.78870 343.55693,162.79788 C 351.35722,205.80705 495.51401,235.15042 487.04749,276.76228 C 478.58097,318.37414 367.60565,299.59510 357.31249,342.37032 C 347.01934,385.14555 410.40728,403.67522 388.91234,441.85466 z " id="path1291" inkscape:flatsided="false" inkscape:randomized="-0.097000000" inkscape:rounded="0.24000000" sodipodi:arg1="0.64350111" sodipodi:arg2="0.90530050" sodipodi:cx="82.857140" sodipodi:cy="215.21933" sodipodi:r1="428.57144" sodipodi:r2="265.71429" sodipodi:sides="12" sodipodi:type="star" style="overflow:visible;display:inline;visibility:visible;marker-end:none;marker-mid:none;marker-start:none;marker:none;stroke-opacity:1.0000000;stroke-dashoffset:0.0000000;stroke-miterlimit:4.0000000;stroke-linejoin:miter;stroke-linecap:butt;stroke-width:1.0000000;stroke:none;fill-rule:evenodd;fill-opacity:1.0000000;fill:#000000;color:#000000" transform="matrix(0.823843,0.000000,0.176848,0.684493,267.3931,329.1747)"/>
  </g>
</svg>
