<?xml version="1.0" encoding="UTF-8" standalone="no"?>
<!-- Created with Inkscape (http://www.inkscape.org/) --><svg height="1.0000000in" id="svg1" inkscape:version="0.41" sodipodi:docbase="/home/jpd/Graphics/projects/svg/submissions" sodipodi:docname="pencil.svg" sodipodi:version="0.32" width="8.0000000in" xmlns="http://www.w3.org/2000/svg" xmlns:cc="http://web.resource.org/cc/" xmlns:dc="http://purl.org/dc/elements/1.1/" xmlns:inkscape="http://www.inkscape.org/namespaces/inkscape" xmlns:rdf="http://www.w3.org/1999/02/22-rdf-syntax-ns#" xmlns:sodipodi="http://inkscape.sourceforge.net/DTD/sodipodi-0.dtd" xmlns:svg="http://www.w3.org/2000/svg" xmlns:xlink="http://www.w3.org/1999/xlink">
  <metadata>
    <rdf:RDF xmlns:cc="http://web.resource.org/cc/" xmlns:dc="http://purl.org/dc/elements/1.1/" xmlns:rdf="http://www.w3.org/1999/02/22-rdf-syntax-ns#">
      <cc:Work rdf:about="">
        <dc:title>Pencil</dc:title>
        <dc:description></dc:description>
        <dc:subject>
          <rdf:Bag>
            <rdf:li>pencil</rdf:li>
          </rdf:Bag>
        </dc:subject>
        <dc:publisher>
          <cc:Agent rdf:about="http://www.openclipart.org">
            <dc:title>Jonathan Dietrich</dc:title>
          </cc:Agent>
        </dc:publisher>
        <dc:creator>
          <cc:Agent>
            <dc:title>Jonathan Dietrich</dc:title>
          </cc:Agent>
        </dc:creator>
        <dc:rights>
          <cc:Agent>
            <dc:title>Jonathan Dietrich</dc:title>
          </cc:Agent>
        </dc:rights>
        <dc:date></dc:date>
        <dc:format>image/svg+xml</dc:format>
        <dc:type rdf:resource="http://purl.org/dc/dcmitype/StillImage"/>
        <cc:license rdf:resource="http://web.resource.org/cc/PublicDomain"/>
        <dc:language>en</dc:language>
      </cc:Work>
      <cc:License rdf:about="http://web.resource.org/cc/PublicDomain">
        <cc:permits rdf:resource="http://web.resource.org/cc/Reproduction"/>
        <cc:permits rdf:resource="http://web.resource.org/cc/Distribution"/>
        <cc:permits rdf:resource="http://web.resource.org/cc/DerivativeWorks"/>
      </cc:License>
    </rdf:RDF>
  </metadata>
  <defs id="defs3">
    <linearGradient id="linearGradient1662">
      <stop id="stop1663" offset="0.0000000" style="stop-color:#000000;stop-opacity:0.0000000;"/>
      <stop id="stop1666" offset="0.50000000" style="stop-color:#000000;stop-opacity:0.15686275;"/>
      <stop id="stop1664" offset="1" style="stop-color:#000000;stop-opacity:0;"/>
    </linearGradient>
    <linearGradient id="linearGradient1654">
      <stop id="stop1655" offset="0.0000000" style="stop-color:#a27d54;stop-opacity:1.0000000;"/>
      <stop id="stop1656" offset="1.0000000" style="stop-color:#f5bd7f;stop-opacity:1.0000000;"/>
    </linearGradient>
    <linearGradient id="linearGradient1650">
      <stop id="stop1651" offset="0.0000000" style="stop-color:#bf6663;stop-opacity:1.0000000;"/>
      <stop id="stop1652" offset="1.0000000" style="stop-color:#ff8884;stop-opacity:1.0000000;"/>
    </linearGradient>
    <linearGradient id="linearGradient1646">
      <stop id="stop1647" offset="0.0000000" style="stop-color:#969696;stop-opacity:1.0000000;"/>
      <stop id="stop1648" offset="1.0000000" style="stop-color:#ededed;stop-opacity:1.0000000;"/>
    </linearGradient>
    <linearGradient id="linearGradient1630">
      <stop id="stop1631" offset="0.0000000" style="stop-color:#d2b200;stop-opacity:1.0000000;"/>
      <stop id="stop1658" offset="0.50000000" style="stop-color:#ffc300;stop-opacity:1.0000000;"/>
      <stop id="stop1659" offset="0.75000000" style="stop-color:#ffed00;stop-opacity:1.0000000;"/>
      <stop id="stop1632" offset="1.0000000" style="stop-color:#ffdd00;stop-opacity:1.0000000;"/>
    </linearGradient>
    <linearGradient gradientTransform="matrix(3.254365,0.000000,0.000000,0.422488,-42.30330,-150.4828)" gradientUnits="userSpaceOnUse" id="linearGradient1633" inkscape:collect="always" x1="126.08783" x2="126.08781" xlink:href="#linearGradient1630" y1="528.57239" y2="377.06293"/>
    <linearGradient gradientTransform="matrix(1.364241,0.000000,0.000000,1.007836,-42.30330,-150.4828)" gradientUnits="userSpaceOnUse" id="linearGradient1649" inkscape:collect="always" x1="505.71970" x2="505.71970" xlink:href="#linearGradient1646" y1="221.53720" y2="157.34721"/>
    <linearGradient gradientTransform="matrix(1.056744,0.000000,0.000000,1.301102,-59.89193,-150.4829)" gradientUnits="userSpaceOnUse" id="linearGradient1653" inkscape:collect="always" x1="708.08087" x2="707.66553" xlink:href="#linearGradient1650" y1="172.28430" y2="122.22205"/>
    <linearGradient gradientTransform="matrix(1.658785,0.000000,0.000000,0.828877,-33.24934,-150.8176)" gradientUnits="userSpaceOnUse" id="linearGradient1657" inkscape:collect="always" x1="50.804340" x2="60.266266" xlink:href="#linearGradient1654" y1="269.75226" y2="193.19295"/>
    <linearGradient gradientTransform="matrix(16.21046,0.000000,0.000000,8.481745e-2,-40.74533,-145.1392)" gradientUnits="userSpaceOnUse" id="linearGradient1673" inkscape:collect="always" x1="25.595356" x2="25.595356" xlink:href="#linearGradient1662" y1="2122.9712" y2="2157.5330"/>
    <linearGradient gradientTransform="matrix(16.21046,0.000000,0.000000,8.481745e-2,-44.66382,-165.2481)" gradientUnits="userSpaceOnUse" id="linearGradient1675" inkscape:collect="always" x1="25.595356" x2="25.595356" xlink:href="#linearGradient1662" y1="2122.9712" y2="2157.5330"/>
    <linearGradient gradientTransform="matrix(16.21046,0.000000,0.000000,8.481745e-2,-43.62517,-121.6251)" gradientUnits="userSpaceOnUse" id="linearGradient1677" inkscape:collect="always" x1="25.595356" x2="25.595356" xlink:href="#linearGradient1662" y1="2122.9712" y2="2157.5330"/>
    <linearGradient gradientTransform="matrix(0.523707,0.000000,0.000000,2.596302,-38.39219,-149.4173)" gradientUnits="userSpaceOnUse" id="linearGradient1681" inkscape:collect="always" x1="1327.0875" x2="1351.4697" xlink:href="#linearGradient1646" y1="80.989799" y2="62.197636"/>
    <linearGradient gradientTransform="matrix(0.523707,0.000000,0.000000,2.596302,-44.25506,-149.4173)" gradientUnits="userSpaceOnUse" id="linearGradient1683" inkscape:collect="always" x1="1327.0875" x2="1351.4697" xlink:href="#linearGradient1646" y1="80.989799" y2="62.197636"/>
    <linearGradient gradientTransform="matrix(0.523707,0.000000,0.000000,2.596302,-50.11794,-149.4173)" gradientUnits="userSpaceOnUse" id="linearGradient1685" inkscape:collect="always" x1="1327.0875" x2="1351.4697" xlink:href="#linearGradient1646" y1="80.989799" y2="62.197636"/>
    <linearGradient gradientTransform="matrix(0.523707,0.000000,0.000000,2.596302,-73.56943,-149.4173)" gradientUnits="userSpaceOnUse" id="linearGradient1693" inkscape:collect="always" x1="1327.0875" x2="1351.4697" xlink:href="#linearGradient1646" y1="80.989799" y2="62.197636"/>
    <linearGradient gradientTransform="matrix(0.523707,0.000000,0.000000,2.596302,-79.43230,-149.4173)" gradientUnits="userSpaceOnUse" id="linearGradient1697" inkscape:collect="always" x1="1327.0875" x2="1351.4697" xlink:href="#linearGradient1646" y1="80.989799" y2="62.197636"/>
    <linearGradient gradientTransform="matrix(0.523707,0.000000,0.000000,2.596302,-85.29517,-149.4173)" gradientUnits="userSpaceOnUse" id="linearGradient1699" inkscape:collect="always" x1="1327.0875" x2="1351.4697" xlink:href="#linearGradient1646" y1="80.989799" y2="62.197636"/>
  </defs>
  <sodipodi:namedview bordercolor="#666666" borderopacity="1.0" id="base" inkscape:current-layer="layer1" inkscape:cx="360.00000" inkscape:cy="45.000000" inkscape:guide-bbox="true" inkscape:pageopacity="0.0" inkscape:pageshadow="2" inkscape:window-height="999" inkscape:window-width="1283" inkscape:window-x="47" inkscape:window-y="27" inkscape:zoom="1.6541667" pagecolor="#ffffff" showguides="true"/>
  <g id="layer1" inkscape:groupmode="layer" inkscape:label="Layer 1">
    <path d="M 125.14733,9.0149612 L 603.26289,8.2805312 C 603.26289,8.2805312 615.01638,7.6567101 615.01638,41.752512 C 615.01638,72.910594 603.99733,74.379454 603.99733,74.379454 L 122.76041,74.379454 C 122.76041,74.379454 114.82567,71.706923 115.86793,71.044513 C 116.91020,70.382114 118.29987,71.729835 119.68956,69.488272 C 121.07925,67.246710 122.46892,63.986379 123.51119,59.248899 C 124.55344,54.511419 125.11846,44.661539 125.11846,36.511399 C 125.11846,28.361259 124.69115,25.975716 123.85545,21.528964 C 123.01975,17.082223 121.90548,14.209523 120.79121,12.355601 C 119.67694,10.501668 120.03153,11.686202 119.19584,11.314519 C 118.36013,10.942849 125.14733,9.0149612 125.14733,9.0149612 z " id="path1006" inkscape:export-filename="/home/jpd/graphics/jpd_projects/svg/svg_to_png/pencil_trans_bg.png" inkscape:export-xdpi="110.00000" inkscape:export-ydpi="110.00000" sodipodi:nodetypes="cccccssscsssc" style="fill:url(#linearGradient1633);fill-opacity:1.0000000;fill-rule:evenodd;stroke:#000000;stroke-width:0.24999990pt;stroke-linecap:butt;stroke-linejoin:round;stroke-opacity:1.0000000"/>
    <path d="M 119.32593,16.542265 L 610.88405,16.282598" id="path1674" inkscape:export-filename="/home/jpd/graphics/jpd_projects/svg/svg_to_png/pencil_trans_bg.png" inkscape:export-xdpi="110.00000" inkscape:export-ydpi="110.00000" sodipodi:nodetypes="cc" style="fill:none;fill-opacity:0.75000000;fill-rule:evenodd;stroke:url(#linearGradient1675);stroke-width:2.4999990;stroke-linecap:butt;stroke-linejoin:miter;stroke-miterlimit:4.0000000;stroke-opacity:1.0000000"/>
    <path d="M 119.58560,59.645979 L 613.87015,59.905646" id="path1676" inkscape:export-filename="/home/jpd/graphics/jpd_projects/svg/svg_to_png/pencil_trans_bg.png" inkscape:export-xdpi="110.00000" inkscape:export-ydpi="110.00000" sodipodi:nodetypes="cc" style="fill:none;fill-opacity:0.75000000;fill-rule:evenodd;stroke:url(#linearGradient1677);stroke-width:2.4999990;stroke-linecap:butt;stroke-linejoin:miter;stroke-miterlimit:4.0000000;stroke-opacity:1.0000000"/>
    <path d="M 123.24441,36.521307 L 615.84117,36.391480" id="path1661" inkscape:export-filename="/home/jpd/graphics/jpd_projects/svg/svg_to_png/pencil_trans_bg.png" inkscape:export-xdpi="110.00000" inkscape:export-ydpi="110.00000" sodipodi:nodetypes="cc" style="fill:none;fill-opacity:0.75000000;fill-rule:evenodd;stroke:url(#linearGradient1673);stroke-width:2.4999990;stroke-linecap:butt;stroke-linejoin:miter;stroke-miterlimit:4.0000000;stroke-opacity:1.0000000"/>
    <path d="M 661.32491,8.2740161 L 703.20333,8.2805356 C 703.20333,8.2805356 714.95682,9.8600169 714.95682,41.752530 C 714.95682,74.379485 703.93777,74.379485 703.93777,74.379485 L 661.34066,74.379485 C 661.34066,74.379485 672.45812,72.747262 672.45812,40.146678 C 672.45812,7.5460936 661.32491,8.2740161 661.32491,8.2740161 z " id="path1640" inkscape:export-filename="/home/jpd/graphics/jpd_projects/svg/svg_to_png/pencil_trans_bg.png" inkscape:export-xdpi="110.00000" inkscape:export-ydpi="110.00000" sodipodi:nodetypes="ccccccc" style="fill:url(#linearGradient1653);fill-opacity:1.0000000;fill-rule:evenodd;stroke:none;stroke-width:0.25000000pt;stroke-linecap:butt;stroke-linejoin:miter;stroke-opacity:1.0000000"/>
    <path d="M 602.07468,8.2739999 L 663.11787,8.2805194 C 663.11787,8.2805194 674.87136,9.8600001 674.87136,41.752500 C 674.87136,74.379442 663.85231,74.379442 663.85231,74.379442 L 602.15997,74.379442 C 602.15997,74.379442 613.27742,72.747219 613.27742,40.146648 C 613.27742,7.5460777 602.07468,8.2739999 602.07468,8.2739999 z " id="path1645" inkscape:export-filename="/home/jpd/graphics/jpd_projects/svg/svg_to_png/pencil_trans_bg.png" inkscape:export-xdpi="110.00000" inkscape:export-ydpi="110.00000" sodipodi:nodetypes="ccccccc" style="fill:url(#linearGradient1649);fill-opacity:1.0000000;fill-rule:evenodd;stroke:#000000;stroke-width:0.24999990pt;stroke-linecap:butt;stroke-linejoin:miter;stroke-opacity:1.0000000"/>
    <path d="M 124.92780,9.0523663 L 2.7365829,41.734618 L 122.81630,74.416859 C 122.81630,74.416859 123.16586,71.731195 124.48847,69.043445 C 125.51552,66.956357 130.10128,63.003680 129.99790,60.307710 C 129.89685,57.672256 124.53665,54.147440 124.53665,49.938497 C 124.53665,45.087723 133.80393,43.079748 133.80393,36.938298 C 133.80393,31.896113 125.78974,28.675486 125.78974,25.396371 C 125.78974,20.871783 130.58835,18.837004 130.71007,16.677416 C 130.82919,14.563816 124.60538,12.855035 124.27024,11.604274 C 124.03351,10.720810 124.92780,9.0523663 124.92780,9.0523663 z " id="path1007" inkscape:export-filename="/home/jpd/graphics/jpd_projects/svg/svg_to_png/pencil_trans_bg.png" inkscape:export-xdpi="110.00000" inkscape:export-ydpi="110.00000" sodipodi:nodetypes="cccssscsssc" style="fill:url(#linearGradient1657);fill-opacity:1.0000000;fill-rule:evenodd;stroke:#000000;stroke-width:0.24999990pt;stroke-linecap:butt;stroke-linejoin:round;stroke-opacity:1.0000000"/>
    <path d="M 28.026804,35.311715 L 3.9719107,41.740810 L 27.593382,48.169892 C 27.593382,48.169892 29.780351,47.848806 29.780351,41.435788 C 29.780351,35.022770 28.026804,35.311715 28.026804,35.311715 z " id="path1008" inkscape:export-filename="/home/jpd/graphics/jpd_projects/svg/svg_to_png/pencil_trans_bg.png" inkscape:export-xdpi="110.00000" inkscape:export-ydpi="110.00000" sodipodi:nodetypes="ccccc" style="fill:#000000;fill-opacity:1.0000000;fill-rule:evenodd;stroke:#000000;stroke-width:0.24999995pt;stroke-linecap:butt;stroke-linejoin:miter;stroke-opacity:1.0000000"/>
    <path d="M 655.13796,8.4714425 L 656.70997,8.4779151 C 656.70997,8.4779151 668.39818,10.048626 668.39818,41.763974 C 668.39818,74.209685 657.44033,74.209685 657.44033,74.209685 L 655.22277,74.209685 C 655.22277,74.209685 666.66580,74.264960 666.66580,41.845468 C 666.66580,9.4259885 655.13796,8.4714425 655.13796,8.4714425 z " id="path1678" inkscape:export-filename="/home/jpd/graphics/jpd_projects/svg/svg_to_png/pencil_trans_bg.png" inkscape:export-xdpi="110.00000" inkscape:export-ydpi="110.00000" sodipodi:nodetypes="ccccccc" style="fill:url(#linearGradient1681);fill-opacity:1.0000000;fill-rule:evenodd;stroke:none;stroke-width:0.25000000pt;stroke-linecap:butt;stroke-linejoin:miter;stroke-opacity:1.0000000"/>
    <path d="M 649.27509,8.4714425 L 650.84710,8.4779151 C 650.84710,8.4779151 662.53531,10.048626 662.53531,41.763974 C 662.53531,74.209685 651.57746,74.209685 651.57746,74.209685 L 649.35990,74.209685 C 649.35990,74.209685 660.80293,74.264960 660.80293,41.845468 C 660.80293,9.4259885 649.27509,8.4714425 649.27509,8.4714425 z " id="path1682" inkscape:export-filename="/home/jpd/graphics/jpd_projects/svg/svg_to_png/pencil_trans_bg.png" inkscape:export-xdpi="110.00000" inkscape:export-ydpi="110.00000" sodipodi:nodetypes="ccccccc" style="fill:url(#linearGradient1683);fill-opacity:1.0000000;fill-rule:evenodd;stroke:none;stroke-width:0.25000000pt;stroke-linecap:butt;stroke-linejoin:miter;stroke-opacity:1.0000000"/>
    <path d="M 643.41222,8.4714425 L 644.98423,8.4779151 C 644.98423,8.4779151 656.67244,10.048626 656.67244,41.763974 C 656.67244,74.209685 645.71459,74.209685 645.71459,74.209685 L 643.49703,74.209685 C 643.49703,74.209685 654.94005,74.264960 654.94005,41.845468 C 654.94005,9.4259885 643.41222,8.4714425 643.41222,8.4714425 z " id="path1684" inkscape:export-filename="/home/jpd/graphics/jpd_projects/svg/svg_to_png/pencil_trans_bg.png" inkscape:export-xdpi="110.00000" inkscape:export-ydpi="110.00000" sodipodi:nodetypes="ccccccc" style="fill:url(#linearGradient1685);fill-opacity:1.0000000;fill-rule:evenodd;stroke:none;stroke-width:0.25000000pt;stroke-linecap:butt;stroke-linejoin:miter;stroke-opacity:1.0000000"/>
    <path d="M 619.96073,8.4714425 L 621.53274,8.4779151 C 621.53274,8.4779151 633.22095,10.048626 633.22095,41.763974 C 633.22095,74.209685 622.26310,74.209685 622.26310,74.209685 L 620.04554,74.209685 C 620.04554,74.209685 631.48856,74.264960 631.48856,41.845468 C 631.48856,9.4259885 619.96073,8.4714425 619.96073,8.4714425 z " id="path1692" inkscape:export-filename="/home/jpd/graphics/jpd_projects/svg/svg_to_png/pencil_trans_bg.png" inkscape:export-xdpi="110.00000" inkscape:export-ydpi="110.00000" sodipodi:nodetypes="ccccccc" style="fill:url(#linearGradient1693);fill-opacity:1.0000000;fill-rule:evenodd;stroke:none;stroke-width:0.25000000pt;stroke-linecap:butt;stroke-linejoin:miter;stroke-opacity:1.0000000"/>
    <path d="M 614.09785,8.4714425 L 615.66987,8.4779151 C 615.66987,8.4779151 627.35808,10.048626 627.35808,41.763974 C 627.35808,74.209685 616.40023,74.209685 616.40023,74.209685 L 614.18267,74.209685 C 614.18267,74.209685 625.62569,74.264960 625.62569,41.845468 C 625.62569,9.4259885 614.09785,8.4714425 614.09785,8.4714425 z " id="path1696" inkscape:export-filename="/home/jpd/graphics/jpd_projects/svg/svg_to_png/pencil_trans_bg.png" inkscape:export-xdpi="110.00000" inkscape:export-ydpi="110.00000" sodipodi:nodetypes="ccccccc" style="fill:url(#linearGradient1697);fill-opacity:1.0000000;fill-rule:evenodd;stroke:none;stroke-width:0.25000000pt;stroke-linecap:butt;stroke-linejoin:miter;stroke-opacity:1.0000000"/>
    <path d="M 608.23498,8.4714425 L 609.80699,8.4779151 C 609.80699,8.4779151 621.49520,10.048626 621.49520,41.763974 C 621.49520,74.209685 610.53736,74.209685 610.53736,74.209685 L 608.31979,74.209685 C 608.31979,74.209685 619.76282,74.264960 619.76282,41.845468 C 619.76282,9.4259885 608.23498,8.4714425 608.23498,8.4714425 z " id="path1698" inkscape:export-filename="/home/jpd/graphics/jpd_projects/svg/svg_to_png/pencil_trans_bg.png" inkscape:export-xdpi="110.00000" inkscape:export-ydpi="110.00000" sodipodi:nodetypes="ccccccc" style="fill:url(#linearGradient1699);fill-opacity:1.0000000;fill-rule:evenodd;stroke:none;stroke-width:0.25000000pt;stroke-linecap:butt;stroke-linejoin:miter;stroke-opacity:1.0000000"/>
    <path d="M 625.59747,8.2559498 L 640.75864,8.3388293 C 640.75864,8.3388293 652.47161,9.9128645 652.47161,41.695410 C 652.47161,74.209864 641.49054,74.209864 641.49054,74.209864 L 625.60608,74.286247 C 625.60608,74.286247 636.76158,72.583269 636.76158,40.095094 C 636.76158,7.6069199 625.59747,8.2559498 625.59747,8.2559498 z " id="path1700" inkscape:export-filename="/home/jpd/graphics/jpd_projects/svg/svg_to_png/pencil_trans_bg.png" inkscape:export-xdpi="110.00000" inkscape:export-ydpi="110.00000" sodipodi:nodetypes="ccccccc" style="fill:#000000;fill-opacity:0.87005651;fill-rule:evenodd;stroke:#000000;stroke-width:0.24999979pt;stroke-linecap:butt;stroke-linejoin:miter;stroke-opacity:1.0000000"/>
  </g>
</svg>
