<?xml version="1.0" encoding="UTF-8" standalone="no"?>
<!DOCTYPE svg PUBLIC "-//W3C//DTD SVG 1.0//EN"
"http://www.w3.org/TR/2001/REC-SVG-20010904/DTD/svg10.dtd">
<!-- Created with Sodipodi ("http://www.sodipodi.com/") --><svg height="437.5" id="svg53" version="1.0" width="437.5" x="0" xmlns="http://www.w3.org/2000/svg" xmlns:xlink="http://www.w3.org/1999/xlink" y="0">
  <metadata>
    <rdf:RDF xmlns:cc="http://web.resource.org/cc/" xmlns:dc="http://purl.org/dc/elements/1.1/" xmlns:rdf="http://www.w3.org/1999/02/22-rdf-syntax-ns#">
      <cc:Work rdf:about="">
        <dc:title>Lemon SVG theme</dc:title>
        <dc:description></dc:description>
        <dc:subject>
          <rdf:Bag>
            <rdf:li>icon</rdf:li>
            <rdf:li></rdf:li>
            <rdf:li>lemon_theme_icon</rdf:li>
            <rdf:li>icons</rdf:li>
            <rdf:li>hash</rdf:li>
            <rdf:li>filesystem</rdf:li>
            <rdf:li>computer</rdf:li>
            <rdf:li>theme</rdf:li>
          </rdf:Bag>
        </dc:subject>
        <dc:publisher>
          <cc:Agent rdf:about="http://www.openclipart.org">
            <dc:title>Jose Hevia</dc:title>
          </cc:Agent>
        </dc:publisher>
        <dc:creator>
          <cc:Agent>
            <dc:title>Jose Hevia</dc:title>
          </cc:Agent>
        </dc:creator>
        <dc:rights>
          <cc:Agent>
            <dc:title>Jose Hevia</dc:title>
          </cc:Agent>
        </dc:rights>
        <dc:date></dc:date>
        <dc:format>image/svg+xml</dc:format>
        <dc:type rdf:resource="http://purl.org/dc/dcmitype/StillImage"/>
        <cc:license rdf:resource="http://web.resource.org/cc/PublicDomain"/>
        <dc:language>en</dc:language>
      </cc:Work>
      <cc:License rdf:about="http://web.resource.org/cc/PublicDomain">
        <cc:permits rdf:resource="http://web.resource.org/cc/Reproduction"/>
        <cc:permits rdf:resource="http://web.resource.org/cc/Distribution"/>
        <cc:permits rdf:resource="http://web.resource.org/cc/DerivativeWorks"/>
      </cc:License>
    </rdf:RDF>
  </metadata>
  <defs id="defs55">
    <linearGradient id="linearGradient697">
      <stop id="stop698" offset="0" style="stop-color:#fa4fd5;stop-opacity:1;"/>
      <stop id="stop699" offset="1" style="stop-color:#ffff05;stop-opacity:1;"/>
    </linearGradient>
    <linearGradient id="linearGradient887">
      <stop id="stop888" offset="0" style="stop-color:#004f00;stop-opacity:1;"/>
      <stop id="stop889" offset="1" style="stop-color:#92c705;stop-opacity:1;"/>
    </linearGradient>
    <linearGradient id="linearGradient883">
      <stop id="stop884" offset="0" style="stop-color:#def200;stop-opacity:1;"/>
      <stop id="stop885" offset="1" style="stop-color:#92c705;stop-opacity:1;"/>
    </linearGradient>
    <linearGradient id="linearGradient838">
      <stop id="stop839" offset="0" style="stop-color:#000000;stop-opacity:0.6667;"/>
      <stop id="stop840" offset="1" style="stop-color:#003a00;stop-opacity:0.1176;"/>
    </linearGradient>
    <linearGradient id="linearGradient841" x1="0.29437199" x2="0.78787899" xlink:href="#linearGradient838" y1="0.18751299" y2="0.5625"/>
    <linearGradient id="linearGradient882" x1="0.248062" x2="0.57364303" xlink:href="#linearGradient883" y1="0.249999" y2="0.765625"/>
    <linearGradient id="linearGradient886" x1="-1.26992203e-8" x2="1" xlink:href="#linearGradient887" y1="-1.07800702e-9" y2="-1.07800702e-9"/>
    <linearGradient id="linearGradient695" x1="3.77400511e-9" x2="1" xlink:href="#linearGradient697" y1="-4.23052597e-8" y2="-4.23052597e-8"/>
    <linearGradient id="linearGradient696" x1="4.62269014e-8" x2="1" xlink:href="#linearGradient697" y1="-3.93607138e-8" y2="-3.93607138e-8"/>
    <linearGradient id="linearGradient700" xlink:href="#linearGradient697"/>
    <linearGradient id="linearGradient701" xlink:href="#linearGradient697"/>
    <linearGradient id="linearGradient702" xlink:href="#linearGradient697"/>
    <linearGradient id="linearGradient703" xlink:href="#linearGradient697"/>
    <linearGradient id="linearGradient704" xlink:href="#linearGradient697"/>
    <linearGradient id="linearGradient705" xlink:href="#linearGradient697"/>
    <linearGradient id="linearGradient706" xlink:href="#linearGradient697"/>
    <linearGradient id="linearGradient707" xlink:href="#linearGradient697"/>
    <linearGradient id="linearGradient708" x1="6.16296347e-10" x2="1" xlink:href="#linearGradient883" y1="5.33404432e-10" y2="5.33404432e-10"/>
  </defs>
  <path d="M 157.0518 418.8205 C 165.65 423.9559 270.1571 428.4962 290.5711 432.6715 C 305.4244 418.4855 319.1452 402.2633 334.1407 388.0408 C 296.5675 356.9224 423.8628 312.0623 431.1179 300.3188 C 431.1179 287.3548 433.0378 262.0216 410.7386 266.461 C 339.3294 300.4185 186.217 396.6104 157.0518 418.8205 z " id="path609" style="font-size:12;fill:url(#linearGradient841);fill-opacity:1;fill-rule:evenodd;stroke-width:1;"/>
  <path d="M 14.05057 173.7379 C 106.4568 161.1717 276.6876 14.76448 283.4708 13.02103 C 291.5168 13.44062 374.8567 228.8112 408.3146 262.8616 C 379.0366 280.9045 213.9468 393.1571 155.6071 414.815 C 77.10091 333.8702 3.703348 179.8067 14.05057 173.7379 z " id="path164" style="font-size:12;fill:url(#linearGradient886);fill-opacity:1;fill-rule:evenodd;stroke:#004d00;stroke-width:10.86562;stroke-linejoin:bevel;"/>
  <path d="M 158.6652 414.3148 C 155.5713 372.1353 152.9751 246.5393 126.4435 198.1871 C 126.2271 192.0345 222.0102 129.8938 224.2603 131.7182 C 227.3354 131.7527 233.3262 193.6515 230.2232 202.6573 C 233.3777 208.0526 345.5154 153.6656 417.6827 86.27177 C 428.6469 83.66388 424.9156 252.1696 411.0022 261.9964 C 393.8527 271.302 181.5317 411.7308 158.6652 414.3148 z " id="path163" style="font-size:12;fill:url(#linearGradient882);fill-opacity:1;fill-rule:evenodd;stroke:#004300;stroke-width:10.86562;stroke-linejoin:bevel;stroke-dashoffset:0;"/>
  <path d="M 109.3608 339.2508 C 205.7271 337.2382 227.0174 334.5547 227.0174 334.5547 C 227.0174 334.5547 257.2718 331.2001 247.187 310.4026 C 237.102 289.6051 218.053 294.3013 216.9324 288.2633 C 215.8118 282.2253 244.9459 266.1239 240.4637 256.0607 C 235.9816 245.9972 232.1228 235.7034 224.7761 230.5668 C 214.8171 224.5984 178.9344 221.7745 125.7679 221.1975 C 76.33097 221.586 44.46578 221.7491 35.65705 230.6598 C 30.50518 236.5348 29.80277 247.3391 39.8876 264.1113 C 49.97243 280.8835 64.53938 278.8709 56.69565 282.8962 C 48.85187 286.9216 24.20007 300.3393 24.20007 308.3899 C 24.20007 316.4406 35.40546 335.2255 58.9367 335.8964 C 82.46795 336.5674 111.602 340.5926 109.3608 339.2508 z " id="path631" style="font-size:12;fill:url(#linearGradient707);fill-opacity:1;fill-rule:evenodd;stroke:#ff6f00;stroke-width:12.5;"/>
  <path d="M 101.4058 242.7578 C 94.17948 238.3275 88.15768 145.2924 155.6024 102.4667 C 223.0471 59.641 292.9006 36.75142 295.3096 36.01304 C 297.7183 35.27467 295.3094 115.7574 253.1565 151.9377 C 211.0035 188.118 142.9516 243.6729 138.1342 244.4112 C 133.3166 245.1497 105.0189 239.8042 101.4058 242.7578 z " id="path633" style="font-size:12;fill:#ffffff;fill-opacity:1;fill-rule:evenodd;stroke:#000000;stroke-width:1.896032;"/>
  <path d="M 136.3324 239.8042 C 136.3324 214.6995 167.6463 170.397 167.6463 170.397 C 167.6463 170.397 241.1129 89.17605 255.5653 73.67013 C 270.0178 58.16422 268.8134 62.59451 266.4047 62.59451 C 263.9957 62.59451 171.2594 142.3388 159.2155 167.4435 C 147.1719 192.5483 124.2891 225.0368 124.2887 240.5426 C 135.1282 242.0193 129.1061 241.2811 136.3324 239.8042 z " id="path634" style="font-size:12;fill:url(#linearGradient708);fill-opacity:1;fill-rule:evenodd;stroke:#000000;stroke-width:1.896032;"/>
  <path d="M 229.2184 102.8534 C 266.5537 93.99292 282.1675 77.64191 291.0561 73.95008 C 290.8005 82.56733 282.1577 110.9738 274.9082 121.6994 C 244.799 125.3913 209.308 133.1967 201.9659 132.5651 C 207.9876 126.6581 224.4441 105.7369 229.2184 102.8534 z " id="path635" style="font-size:12;fill:url(#linearGradient696);fill-opacity:1;fill-rule:evenodd;stroke:#000000;stroke-width:1.896032;"/>
  <path d="M 171.7602 167.0918 C 179.5837 168.8154 215.5755 170.3621 234.6 167.1287 C 249.7557 156.5097 269.8352 134.9219 274.8549 121.8394 C 251.0363 123.8796 206.1862 133.4784 202.573 133.4784 C 198.9599 133.4784 176.8333 159.3897 171.7602 167.0918 z " id="path636" style="font-size:12;fill:url(#linearGradient695);fill-opacity:1;fill-rule:evenodd;stroke:#000000;stroke-width:1.896032;"/>
  <path d="M 151.5847 181.0861 C 131.1634 146.8741 130.5662 136.1503 127.1984 129.2581 C 125.9412 129.7516 110.2412 149.1226 106.6711 168.0403 C 109.08 180.9792 128.3068 215.5796 131.9199 216.3181 C 134.8297 210.3744 146.3093 187.8381 151.5847 181.0861 z " id="path637" style="font-size:12;fill:url(#linearGradient705);fill-opacity:1;fill-rule:evenodd;stroke:#000000;stroke-width:1.896032;"/>
  <path d="M 295.3096 36.01304 C 295.9598 43.6802 294.2545 63.08445 291.3016 73.7751 C 282.3701 79.19045 238.598 105.4903 231.3717 101.06 C 235.3994 94.16783 282.3499 45.57866 295.3096 36.01304 z " id="path638" style="font-size:12;fill:#ff0900;fill-opacity:1;fill-rule:evenodd;stroke:#000000;stroke-width:1.896032;"/>
  <path d="M 180.0948 88.78933 C 168.8408 90.02102 132.6233 118.4993 128.403 128.7316 C 128.403 137.2053 146.2131 173.9806 151.9364 179.9959 C 156.2529 169.8338 182.3543 137.2052 194.1957 126.5163 C 184.5604 121.3477 180.0948 92.48123 180.0948 88.78933 z " id="path639" style="font-size:12;fill:url(#linearGradient702);fill-opacity:1;fill-rule:evenodd;stroke:#000000;stroke-width:1.896032;"/>
  <path d="M 194.1422 124.6179 L 234.5901 88.0859 C 234.2384 81.40381 230.6783 72.4033 230.9769 63.54283 C 223.1865 63.8263 184.763 84.11236 180.8944 88.47264 C 180.8944 91.42613 185.5094 122.8594 194.1422 124.6179 z " id="path640" style="font-size:12;fill:url(#linearGradient703);fill-opacity:1;fill-rule:evenodd;stroke:#000000;stroke-width:1.896032;"/>
  <path d="M 235.0911 87.52426 C 232.6293 77.67701 230.8274 68.0098 231.4779 63.33287 C 237.4036 57.6009 273.4086 44.94527 291.6964 38.96654 C 285.366 44.59356 239.9084 84.57077 235.0911 87.52426 z " id="path641" style="font-size:12;fill:#be81ff;fill-opacity:1;fill-rule:evenodd;stroke:#000000;stroke-width:1.896032;"/>
  <path d="M 170.7051 167.5136 C 177.0355 168.9204 223.8899 168.9903 235.0911 167.4435 C 227.3007 174.6891 195.549 199.2286 187.8218 206.0857 C 179.7431 206.6123 145.9677 213.2228 145.9677 209.5309 C 145.9677 205.8391 158.1938 181.9678 170.7051 167.5136 z " id="path642" style="font-size:12;fill:url(#linearGradient700);fill-opacity:1;fill-rule:evenodd;stroke:#000000;stroke-width:1.896032;"/>
  <path d="M 123.0845 234.6357 C 124.2887 230.9438 129.0001 223.245 131.5682 217.0914 C 126.7505 213.3995 111.5418 185.838 106.2232 167.4435 C 102.3116 173.6674 90.56638 230.2055 100.2015 234.6357 C 109.8363 239.066 125.4933 237.5891 123.0845 234.6357 z " id="path643" style="font-size:12;fill:url(#linearGradient704);fill-opacity:1;fill-rule:evenodd;stroke:#000000;stroke-width:1.896032;"/>
  <path d="M 137.3346 237.5891 C 136.1302 226.5135 142.7591 215.7196 145.7651 210.796 C 152.9914 210.796 177.3872 207.3858 184.6136 206.6474 C 191.8398 205.909 171.3123 219.7281 159.2686 228.5887 C 147.2249 237.4492 138.5388 240.5426 137.3346 237.5891 z " id="path644" style="font-size:12;fill:url(#linearGradient701);fill-opacity:1;fill-rule:evenodd;stroke:#000000;stroke-width:1.896032;"/>
  <path d="M 226.0227 335.5494 C 242.6769 332.3634 257.2718 331.2001 247.187 310.4026 C 237.102 289.6051 218.053 294.3013 216.9324 288.2633 C 215.8118 282.2253 244.9459 266.1239 240.4637 256.0607 C 235.9816 245.9972 230.6848 223.8255 224.7761 230.5668 C 217.8013 237.5298 190.8711 242.6637 137.7046 242.0867 C 88.26768 242.4752 45.46051 238.6594 38.64123 231.6545 C 32.4475 226.8906 29.80277 247.3391 39.8876 264.1113 C 49.97243 280.8835 64.53938 278.8709 56.69565 282.8962 C 48.85187 286.9216 24.20007 300.3393 24.20007 308.3899 C 24.20007 316.4406 34.11905 333.0195 56.94725 337.8858 C 101.076 347.2928 157.1306 354.2473 226.0227 335.5494 z " id="path650" style="font-size:12;fill:url(#linearGradient706);fill-opacity:1;fill-rule:evenodd;stroke:#ff6500;stroke-width:12.5;"/>
  <path d="M 84.21761 286.2042 C 92.17541 284.2148 122.5439 296.5914 144.9546 291.8952 C 167.3656 287.1989 186.0134 282.7801 192.7367 288.1471 C 199.4602 293.5142 231.568 314.6165 220.5221 319.4248 C 211.379 324.5867 196.5822 329.5025 153.231 330.7835 C 81.99329 332.8591 61.23752 318.695 51.59623 312.9933 C 43.73752 307.9392 75.33294 288.1786 84.21761 286.2042 z " id="path632" style="font-size:12;fill-opacity:0.4235;fill-rule:evenodd;stroke-width:1.743273;"/>
</svg>
