<?xml version="1.0" encoding="UTF-8" standalone="no"?>
<!DOCTYPE svg PUBLIC "-//W3C//DTD SVG 20010904//EN"
"http://www.w3.org/TR/2001/REC-SVG-20010904/DTD/svg10.dtd">
<!-- Created with Inkscape (http://www.inkscape.org/) --><svg height="400pt" id="svg548" inkscape:version="0.38.1" sodipodi:docbase="/var/www/html/svg_gallery/svg/callouts" sodipodi:docname="cloud_c.svg" sodipodi:version="0.32" width="400pt" xmlns="http://www.w3.org/2000/svg" xmlns:inkscape="http://www.inkscape.org/namespaces/inkscape" xmlns:sodipodi="http://sodipodi.sourceforge.net/DTD/sodipodi-0.dtd" xmlns:xlink="http://www.w3.org/1999/xlink">
  <metadata>
    <rdf:RDF xmlns:cc="http://web.resource.org/cc/" xmlns:dc="http://purl.org/dc/elements/1.1/" xmlns:rdf="http://www.w3.org/1999/02/22-rdf-syntax-ns#">
      <cc:Work rdf:about="">
        <dc:title>Clipart by Nicu Buculei - segmented</dc:title>
        <dc:description></dc:description>
        <dc:subject>
          <rdf:Bag>
            <rdf:li></rdf:li>
            <rdf:li>callout</rdf:li>
            <rdf:li>shape</rdf:li>
          </rdf:Bag>
        </dc:subject>
        <dc:publisher>
          <cc:Agent rdf:about="http://www.openclipart.org">
            <dc:title>Nicu Buculei</dc:title>
          </cc:Agent>
        </dc:publisher>
        <dc:creator>
          <cc:Agent>
            <dc:title>Nicu Buculei</dc:title>
          </cc:Agent>
        </dc:creator>
        <dc:rights>
          <cc:Agent>
            <dc:title>Nicu Buculei</dc:title>
          </cc:Agent>
        </dc:rights>
        <dc:date></dc:date>
        <dc:format>image/svg+xml</dc:format>
        <dc:type rdf:resource="http://purl.org/dc/dcmitype/StillImage"/>
        <cc:license rdf:resource="http://web.resource.org/cc/PublicDomain"/>
        <dc:language>en</dc:language>
      </cc:Work>
      <cc:License rdf:about="http://web.resource.org/cc/PublicDomain">
        <cc:permits rdf:resource="http://web.resource.org/cc/Reproduction"/>
        <cc:permits rdf:resource="http://web.resource.org/cc/Distribution"/>
        <cc:permits rdf:resource="http://web.resource.org/cc/DerivativeWorks"/>
      </cc:License>
    </rdf:RDF>
  </metadata>
  <defs id="defs550"/>
  <sodipodi:namedview id="base" inkscape:cx="200.00000" inkscape:cy="200.00000" inkscape:window-height="500" inkscape:window-width="499" inkscape:window-x="33" inkscape:window-y="24" inkscape:zoom="0.77250000"/>
  <g id="g830">
    <path d="M 171.23198,73.697530 C 174.82898,73.697530 207.20598,49.714830 259.96898,47.316430 C 331.91698,38.922430 361.89598,85.688930 361.89598,85.688930 C 359.49798,91.684630 411.05998,48.515530 441.03898,52.112930 C 473.41598,56.909530 486.60698,71.299030 483.00898,101.27753 C 480.61098,120.46423 460.22498,128.85823 455.42898,138.45123 C 457.82698,143.24723 484.20798,158.83723 484.20798,200.80723 C 484.20798,242.77723 457.82698,265.56023 459.02598,265.56023 C 460.22498,265.56023 485.40698,307.53023 466.22098,332.71223 C 447.03498,357.89423 393.07298,333.91223 384.67898,329.11523 C 376.28498,331.51323 376.28498,348.30123 352.30198,351.89923 C 328.31898,355.49623 298.34098,344.70423 298.34098,344.70423 L 286.34998,335.11123 L 261.16798,468.21523 L 226.39198,342.30523 C 210.80398,347.10223 214.40098,350.69923 170.03298,355.49623 C 132.85898,355.49623 141.25298,348.30123 129.26198,343.50423 C 114.87198,353.09723 56.114184,366.28923 36.927784,330.31423 C 21.338974,284.74723 45.321884,273.95423 50.118384,265.56023 C 45.321884,254.76823 29.732984,236.78123 32.131284,203.20523 C 32.131284,160.03523 42.923584,138.45123 52.516784,131.25623 C 47.720184,121.66323 28.533884,83.290330 70.503784,59.307830 C 140.05398,41.320630 170.03298,74.896730 171.23198,73.697530 z " id="path650" sodipodi:nodetypes="ccccccccccccccccccccccc" style="fill-opacity:0.49999997;fill-rule:evenodd;stroke-width:1.0000000pt;"/>
    <path d="M 158.287 57.5163 C 161.884 57.5163 194.261 33.5336 247.024 31.1352 C 318.972 22.7412 348.951 69.5077 348.951 69.5077 C 346.553 75.5034 398.115 32.3343 428.094 35.9317 C 460.471 40.7283 473.662 55.1178 470.064 85.0963 C 467.666 104.283 447.28 112.677 442.484 122.27 C 444.882 127.066 471.263 142.656 471.263 184.626 C 471.263 226.596 444.882 249.379 446.081 249.379 C 447.28 249.379 472.462 291.349 453.276 316.531 C 434.09 341.713 380.128 317.731 371.734 312.934 C 363.34 315.332 363.34 332.12 339.357 335.718 C 315.374 339.315 285.396 328.523 285.396 328.523 L 273.405 318.93 L 248.223 452.034 L 213.447 326.124 C 197.859 330.921 201.456 334.518 157.088 339.315 C 119.914 339.315 128.308 332.12 116.317 327.323 C 101.927 336.916 43.1692 350.108 23.9828 314.133 C 8.39399 268.566 32.3769 257.773 37.1734 249.379 C 32.3769 238.587 16.788 220.6 19.1863 187.024 C 19.1863 143.854 29.9786 122.27 39.5718 115.075 C 34.7752 105.482 15.5889 67.1091 57.5588 43.1266 C 127.109 25.1394 157.088 58.7155 158.287 57.5163 z " id="path598" sodipodi:nodetypes="ccccccccccccccccccccccc" style="fill:#ffffff;fill-rule:evenodd;stroke:#000000;stroke-width:10.000000;stroke-dasharray:none;stroke-linejoin:round;"/>
  </g>
</svg>
