<?xml version="1.0" encoding="UTF-8" standalone="no"?>
<!DOCTYPE svg PUBLIC "-//W3C//DTD SVG 1.0//EN"
"http://www.w3.org/TR/2001/REC-SVG-20010904/DTD/svg10.dtd">
<!-- Created with Inkscape (http://www.inkscape.org/) --><svg height="297mm" id="svg1" inkscape:version="0.39" sodipodi:docbase="/junior/inkscape-files" sodipodi:docname="fiore.svg" sodipodi:version="0.32" width="210mm" xmlns="http://www.w3.org/2000/svg" xmlns:cc="http://web.resource.org/cc/" xmlns:dc="http://purl.org/dc/elements/1.1/" xmlns:inkscape="http://www.inkscape.org/namespaces/inkscape" xmlns:rdf="http://www.w3.org/1999/02/22-rdf-syntax-ns#" xmlns:sodipodi="http://sodipodi.sourceforge.net/DTD/sodipodi-0.dtd" xmlns:xlink="http://www.w3.org/1999/xlink">
  <metadata>
    <rdf:RDF xmlns:cc="http://web.resource.org/cc/" xmlns:dc="http://purl.org/dc/elements/1.1/" xmlns:rdf="http://www.w3.org/1999/02/22-rdf-syntax-ns#">
      <cc:Work rdf:about="">
        <dc:title>fiore</dc:title>
        <dc:description></dc:description>
        <dc:subject>
          <rdf:Bag>
            <rdf:li></rdf:li>
            <rdf:li>plant</rdf:li>
            <rdf:li>smiley</rdf:li>
            <rdf:li>flower</rdf:li>
          </rdf:Bag>
        </dc:subject>
        <dc:publisher>
          <cc:Agent rdf:about="http://www.openclipart.org">
            <dc:title>Mauro Olivo</dc:title>
          </cc:Agent>
        </dc:publisher>
        <dc:creator>
          <cc:Agent>
            <dc:title>Mauro Olivo</dc:title>
          </cc:Agent>
        </dc:creator>
        <dc:rights>
          <cc:Agent>
            <dc:title>Mauro Olivo</dc:title>
          </cc:Agent>
        </dc:rights>
        <dc:date></dc:date>
        <dc:format>image/svg+xml</dc:format>
        <dc:type rdf:resource="http://purl.org/dc/dcmitype/StillImage"/>
        <cc:license rdf:resource="http://web.resource.org/cc/PublicDomain"/>
        <dc:language>en</dc:language>
      </cc:Work>
      <cc:License rdf:about="http://web.resource.org/cc/PublicDomain">
        <cc:permits rdf:resource="http://web.resource.org/cc/Reproduction"/>
        <cc:permits rdf:resource="http://web.resource.org/cc/Distribution"/>
        <cc:permits rdf:resource="http://web.resource.org/cc/DerivativeWorks"/>
      </cc:License>
    </rdf:RDF>
  </metadata>
  <defs id="defs3">
    <linearGradient id="linearGradient1651" inkscape:collect="always" x1="0.50467288" x2="0.50467288" xlink:href="#linearGradient1644" y1="0.96875000" y2="0.015625000"/>
    <linearGradient id="linearGradient1643" inkscape:collect="always" x1="0.52727270" x2="0.52727270" xlink:href="#linearGradient1644" y1="0.96875000" y2="0.046875000"/>
    <linearGradient id="linearGradient1640">
      <stop id="stop1641" offset="0" style="stop-color:#000;stop-opacity:1;"/>
      <stop id="stop1642" offset="1" style="stop-color:#fff;stop-opacity:1;"/>
    </linearGradient>
    <linearGradient id="linearGradient1644">
      <stop id="stop1645" offset="0.0000000" style="stop-color:#ffffff;stop-opacity:0.11340206;"/>
      <stop id="stop1646" offset="1.0000000" style="stop-color:#ffffff;stop-opacity:1.0000000;"/>
    </linearGradient>
  </defs>
  <sodipodi:namedview bordercolor="#666666" borderopacity="1.0" id="base" inkscape:cx="297.63778" inkscape:cy="420.94487" inkscape:pageopacity="0.0" inkscape:pageshadow="2" inkscape:window-height="967" inkscape:window-width="1392" inkscape:window-x="0" inkscape:window-y="0" inkscape:zoom="0.95024319" pagecolor="#ffffff" showborder="false"/>
  <path d="M 196.00246 268.35236 A 124.31028 147.33070 0 1 0 -52.618103,268.35236 A 124.31028 147.33070 0 1 0 196.00246 268.35236 z" id="path1631" sodipodi:cx="71.692177" sodipodi:cy="268.35236" sodipodi:rx="124.31028" sodipodi:ry="147.33070" sodipodi:type="arc" style="fill:#ff0000;fill-opacity:1.0000000;fill-rule:evenodd;stroke:#00bb00;stroke-width:14.999998;stroke-linecap:butt;stroke-linejoin:miter;stroke-miterlimit:4.0000000;stroke-opacity:1.0000000;stroke-dasharray:none;" transform="matrix(0.528878,-0.848698,0.848698,0.528878,35.03310,571.7569)"/>
  <path d="M 334.12500 162.45840 A 74.980804 91.423965 0 1 0 184.16339,162.45840 A 74.980804 91.423965 0 1 0 334.12500 162.45840 z" id="path1658" sodipodi:cx="259.14420" sodipodi:cy="162.45840" sodipodi:rx="74.980804" sodipodi:ry="91.423965" sodipodi:type="arc" style="fill:url(#linearGradient1651);fill-opacity:1;fill-rule:evenodd;stroke:none;stroke-width:1.0000000pt;stroke-linecap:butt;stroke-linejoin:miter;stroke-opacity:1.0000000;" transform="matrix(-0.380994,1.074823,-1.037468,-0.367755,597.4242,458.0349)"/>
  <path d="M 196.00246 268.35236 A 124.31028 147.33070 0 1 0 -52.618103,268.35236 A 124.31028 147.33070 0 1 0 196.00246 268.35236 z" id="path1632" sodipodi:cx="71.692177" sodipodi:cy="268.35236" sodipodi:rx="124.31028" sodipodi:ry="147.33070" sodipodi:type="arc" style="fill:#ff0000;fill-opacity:1.0000000;fill-rule:evenodd;stroke:#00bb00;stroke-width:15.000003;stroke-linecap:butt;stroke-linejoin:miter;stroke-miterlimit:4.0000000;stroke-opacity:1.0000000;stroke-dasharray:none;" transform="matrix(-0.388131,-0.921604,0.921604,-0.388131,132.5136,638.9019)"/>
  <path d="M 196.00246 268.35236 A 124.31028 147.33070 0 1 0 -52.618103,268.35236 A 124.31028 147.33070 0 1 0 196.00246 268.35236 z" id="path1634" sodipodi:cx="71.692177" sodipodi:cy="268.35236" sodipodi:rx="124.31028" sodipodi:ry="147.33070" sodipodi:type="arc" style="fill:#ff0000;fill-opacity:1.0000000;fill-rule:evenodd;stroke:#00bb00;stroke-width:14.999994;stroke-linecap:butt;stroke-linejoin:miter;stroke-miterlimit:4.0000000;stroke-opacity:1.0000000;stroke-dasharray:none;" transform="matrix(0.943716,-0.330758,0.330758,0.943716,-53.03500,500.9138)"/>
  <path d="M 196.00246 268.35236 A 124.31028 147.33070 0 1 0 -52.618103,268.35236 A 124.31028 147.33070 0 1 0 196.00246 268.35236 z" id="path1627" sodipodi:cx="71.692177" sodipodi:cy="268.35236" sodipodi:rx="124.31028" sodipodi:ry="147.33070" sodipodi:type="arc" style="fill:#ff0000;fill-opacity:1.0000000;fill-rule:evenodd;stroke:#00bb00;stroke-width:15.000001;stroke-linecap:butt;stroke-linejoin:miter;stroke-miterlimit:4.0000000;stroke-opacity:1.0000000;stroke-dasharray:none;" transform="matrix(0.918721,0.394907,-0.394907,0.918721,-73.55883,418.7640)"/>
  <path d="M 196.00246 268.35236 A 124.31028 147.33070 0 1 0 -52.618103,268.35236 A 124.31028 147.33070 0 1 0 196.00246 268.35236 z" id="path1629" sodipodi:cx="71.692177" sodipodi:cy="268.35236" sodipodi:rx="124.31028" sodipodi:ry="147.33070" sodipodi:type="arc" style="fill:#ff0000;fill-opacity:1.0000000;fill-rule:evenodd;stroke:#00bb00;stroke-width:14.999998;stroke-linecap:butt;stroke-linejoin:miter;stroke-miterlimit:4.0000000;stroke-opacity:1.0000000;stroke-dasharray:none;" transform="matrix(0.308298,0.951290,-0.951290,0.308298,14.27400,359.8362)"/>
  <path d="M 196.00246 268.35236 A 124.31028 147.33070 0 1 0 -52.618103,268.35236 A 124.31028 147.33070 0 1 0 196.00246 268.35236 z" id="path1630" sodipodi:cx="71.692177" sodipodi:cy="268.35236" sodipodi:rx="124.31028" sodipodi:ry="147.33070" sodipodi:type="arc" style="fill:#ff0000;fill-opacity:1.0000000;fill-rule:evenodd;stroke:#00bb00;stroke-width:14.999998;stroke-linecap:butt;stroke-linejoin:miter;stroke-miterlimit:4.0000000;stroke-opacity:1.0000000;stroke-dasharray:none;" transform="matrix(0.702585,-0.711600,0.711600,0.702585,-394.4610,170.6650)"/>
  <path d="M 334.12500 162.45840 A 74.980804 91.423965 0 1 0 184.16339,162.45840 A 74.980804 91.423965 0 1 0 334.12500 162.45840 z" id="path1654" sodipodi:cx="259.14420" sodipodi:cy="162.45840" sodipodi:rx="74.980804" sodipodi:ry="91.423965" sodipodi:type="arc" style="fill:url(#linearGradient1651);fill-opacity:1;fill-rule:evenodd;stroke:none;stroke-width:1.0000000pt;stroke-linecap:butt;stroke-linejoin:miter;stroke-opacity:1.0000000;" transform="matrix(0.267117,1.108625,-1.070095,0.257833,491.2407,125.4728)"/>
  <path d="M 196.00246 268.35236 A 124.31028 147.33070 0 1 0 -52.618103,268.35236 A 124.31028 147.33070 0 1 0 196.00246 268.35236 z" id="path1626" sodipodi:cx="71.692177" sodipodi:cy="268.35236" sodipodi:rx="124.31028" sodipodi:ry="147.33070" sodipodi:type="arc" style="fill:#ff0000;fill-opacity:1.0000000;fill-rule:evenodd;stroke:#00bb00;stroke-width:14.999997;stroke-linecap:butt;stroke-linejoin:miter;stroke-miterlimit:4.0000000;stroke-opacity:1.0000000;stroke-dasharray:none;" transform="matrix(0.860960,0.508673,-0.508673,0.860960,337.3310,9.109786)"/>
  <path d="M 196.00246 268.35236 A 124.31028 147.33070 0 1 0 -52.618103,268.35236 A 124.31028 147.33070 0 1 0 196.00246 268.35236 z" id="path1625" sodipodi:cx="71.692177" sodipodi:cy="268.35236" sodipodi:rx="124.31028" sodipodi:ry="147.33070" sodipodi:type="arc" style="fill:#ff0000;fill-opacity:1.0000000;fill-rule:evenodd;stroke:#00bb00;stroke-width:15.397408;stroke-linecap:butt;stroke-linejoin:miter;stroke-miterlimit:4.0000000;stroke-opacity:1.0000000;stroke-dasharray:none;" transform="matrix(1.000000,0.000000,0.000000,0.949046,-13.03590,-39.88674)"/>
  <path d="M 664.30362 520.91925 A 267.03690 245.98965 0 1 0 130.22983,520.91925 A 267.03690 245.98965 0 1 0 664.30362 520.91925 z" id="path982" sodipodi:cx="397.26672" sodipodi:cy="520.91925" sodipodi:rx="267.03690" sodipodi:ry="245.98965" sodipodi:type="arc" style="fill:#ffdd00;fill-opacity:1.0000000;fill-rule:evenodd;stroke:#00bb00;stroke-width:22.169552;stroke-linecap:butt;stroke-linejoin:miter;stroke-miterlimit:4.0000000;stroke-opacity:1.0000000;stroke-dasharray:none;" transform="matrix(0.724848,0.000000,0.000000,0.741218,-218.1202,93.74105)"/>
  <path d="M 413.05215 445.93848 A 149.96161 117.07529 0 1 0 113.12894,445.93848 A 149.96161 117.07529 0 1 0 413.05215 445.93848 z" id="path1639" sodipodi:cx="263.09055" sodipodi:cy="445.93848" sodipodi:rx="149.96161" sodipodi:ry="117.07529" sodipodi:type="arc" style="fill:url(#linearGradient1643);fill-opacity:1;fill-rule:evenodd;stroke:none;stroke-width:1.0000000pt;stroke-linecap:butt;stroke-linejoin:miter;stroke-opacity:1.0000000;" transform="translate(-193.2530,-21.98941)"/>
  <path d="M 146.89103,580.88399 C 178.04411,598.44220 213.84158,593.44642 246.27402,576.50829 C 295.65472,550.71877 305.27508,517.61964 343.44462,483.37429" id="path1617" sodipodi:nodetypes="csc" style="fill:none;fill-opacity:0.75000000;fill-rule:evenodd;stroke:#000000;stroke-width:1.6750247;stroke-linecap:butt;stroke-linejoin:miter;stroke-miterlimit:4.0000000;stroke-opacity:1.0000000;" transform="translate(-155.1048,17.47404)"/>
  <path d="M 456.46209,923.44781 A 25.651329,22.362696 0 1 1 405.20860,922.06391" id="path1624" sodipodi:cx="430.81076" sodipodi:cy="923.44781" sodipodi:end="3.2035166" sodipodi:open="true" sodipodi:rx="25.651329" sodipodi:ry="22.362696" sodipodi:start="0.0000000" sodipodi:type="arc" style="fill:none;fill-opacity:0.75000000;fill-rule:evenodd;stroke:#000000;stroke-width:4.5000000;stroke-linecap:butt;stroke-linejoin:miter;stroke-miterlimit:4.0000000;stroke-opacity:1.0000000;" transform="matrix(0.397695,0.290535,-0.318501,0.362776,320.0955,33.27092)"/>
  <path d="M 317.81123,511.45877 C 283.98179,562.41681 227.95594,603.04598 170.31950,589.17335 C 170.50470,590.11783 170.68843,591.02982 170.93987,592.00855 C 179.68494,626.05042 219.64050,635.46748 260.13454,613.01931 C 300.32357,590.74023 325.97562,545.41875 317.81123,511.45877 z " id="path1610" style="fill:#000000;fill-opacity:1.0000000;fill-rule:evenodd;stroke:#000000;stroke-width:1.3808163;stroke-linecap:butt;stroke-linejoin:miter;stroke-miterlimit:4.0000000;stroke-opacity:1.0000000;" transform="translate(-155.1048,17.47404)"/>
  <path d="M 403.40280 919.43823 A 15.607846 9.7763433 0 1 0 372.18711,919.43823 A 15.607846 9.7763433 0 1 0 403.40280 919.43823 z" id="path1621" sodipodi:cx="387.79495" sodipodi:cy="919.43823" sodipodi:rx="15.607846" sodipodi:ry="9.7763433" sodipodi:type="arc" style="fill:#ff0000;fill-opacity:0.75000000;fill-rule:evenodd;stroke:none;stroke-width:1.0000000pt;stroke-linecap:butt;stroke-linejoin:miter;stroke-opacity:1.0000000;" transform="matrix(1.402061,2.566277e-2,-2.267634e-2,0.686826,-460.4131,-8.204780)"/>
  <path d="M 303.86958 779.40576 A 67.088089 82.215797 0 1 0 169.69341,779.40576 A 67.088089 82.215797 0 1 0 303.86958 779.40576 z" id="path984" sodipodi:cx="236.78149" sodipodi:cy="779.40576" sodipodi:rx="67.088089" sodipodi:ry="82.215797" sodipodi:type="arc" style="fill:#ffffff;fill-opacity:1.0000000;fill-rule:evenodd;stroke:#000000;stroke-width:4.3410702;stroke-linecap:butt;stroke-linejoin:miter;stroke-miterlimit:4.0000000;stroke-opacity:1.0000000;" transform="matrix(0.509514,0.000000,0.000000,0.464776,9.447500,60.94743)"/>
  <path d="M 498.55659 297.29233 A 32.228592 44.725391 0 1 0 434.09941,297.29233 A 32.228592 44.725391 0 1 0 498.55659 297.29233 z" id="path1623" sodipodi:cx="466.32800" sodipodi:cy="297.29233" sodipodi:rx="32.228592" sodipodi:ry="44.725391" sodipodi:type="arc" style="fill:#000000;fill-opacity:1.0000000;fill-rule:evenodd;stroke:none;stroke-width:1.2586535;stroke-linecap:butt;stroke-linejoin:miter;stroke-miterlimit:4.0000000;stroke-opacity:1.0000000;" transform="matrix(0.509514,0.000000,0.000000,0.464776,-119.9091,283.8272)"/>
  <path d="M 158.79872,367.89626 C 139.93008,367.89626 124.61353,385.01658 124.61353,406.10958 C 124.61353,421.79677 133.09775,435.27289 145.20107,441.15662 C 150.91229,437.49418 158.22944,433.96484 166.60066,431.12036 C 174.12669,428.56306 181.40821,426.95672 187.85694,426.18211 C 191.09241,420.34445 192.98393,413.47706 192.98392,406.10958 C 192.98392,385.01658 177.66736,367.89626 158.79872,367.89626 z " id="path983" style="fill:#ffffff;fill-opacity:1.0000000;fill-rule:evenodd;stroke:#000000;stroke-width:2.1125000;stroke-linecap:butt;stroke-linejoin:miter;stroke-miterlimit:4.0000000;stroke-opacity:1.0000000;" transform="translate(-155.1048,17.47404)"/>
  <path d="M 253.88238 299.26550 A 24.993603 36.174950 0 1 0 203.89518,299.26550 A 24.993603 36.174950 0 1 0 253.88238 299.26550 z" id="path1622" sodipodi:cx="228.88878" sodipodi:cy="299.26550" sodipodi:rx="24.993603" sodipodi:ry="36.174950" sodipodi:type="arc" style="fill:#000000;fill-opacity:1.0000000;fill-rule:evenodd;stroke:none;stroke-width:1.2594610;stroke-linecap:butt;stroke-linejoin:miter;stroke-miterlimit:4.0000000;stroke-opacity:1.0000000;" transform="matrix(0.614163,0.000000,0.000000,0.539539,-127.3975,262.6090)"/>
  <path d="M 334.12500 162.45840 A 74.980804 91.423965 0 1 0 184.16339,162.45840 A 74.980804 91.423965 0 1 0 334.12500 162.45840 z" id="path1650" sodipodi:cx="259.14420" sodipodi:cy="162.45840" sodipodi:rx="74.980804" sodipodi:ry="91.423965" sodipodi:type="arc" style="fill:url(#linearGradient1651);fill-opacity:1;fill-rule:evenodd;stroke:none;stroke-width:1.0000000pt;stroke-linecap:butt;stroke-linejoin:miter;stroke-opacity:1.0000000;" transform="matrix(1.140351,0.000000,0.000000,1.100719,-236.2013,5.152113)"/>
  <path d="M 334.12500 162.45840 A 74.980804 91.423965 0 1 0 184.16339,162.45840 A 74.980804 91.423965 0 1 0 334.12500 162.45840 z" id="path1652" sodipodi:cx="259.14420" sodipodi:cy="162.45840" sodipodi:rx="74.980804" sodipodi:ry="91.423965" sodipodi:type="arc" style="fill:url(#linearGradient1651);fill-opacity:1;fill-rule:evenodd;stroke:none;stroke-width:1.0000000pt;stroke-linecap:butt;stroke-linejoin:miter;stroke-opacity:1.0000000;" transform="matrix(0.674931,-0.919167,0.887222,0.651475,-496.7540,410.6476)"/>
  <path d="M 334.12500 162.45840 A 74.980804 91.423965 0 1 0 184.16339,162.45840 A 74.980804 91.423965 0 1 0 334.12500 162.45840 z" id="path1653" sodipodi:cx="259.14420" sodipodi:cy="162.45840" sodipodi:rx="74.980804" sodipodi:ry="91.423965" sodipodi:type="arc" style="fill:url(#linearGradient1651);fill-opacity:1;fill-rule:evenodd;stroke:none;stroke-width:1.0000000pt;stroke-linecap:butt;stroke-linejoin:miter;stroke-opacity:1.0000000;" transform="matrix(0.784972,0.827175,-0.798428,0.757691,206.3550,-94.67966)"/>
  <path d="M 334.12500 162.45840 A 74.980804 91.423965 0 1 0 184.16339,162.45840 A 74.980804 91.423965 0 1 0 334.12500 162.45840 z" id="path1655" sodipodi:cx="259.14420" sodipodi:cy="162.45840" sodipodi:rx="74.980804" sodipodi:ry="91.423965" sodipodi:type="arc" style="fill:url(#linearGradient1651);fill-opacity:1;fill-rule:evenodd;stroke:none;stroke-width:1.0000000pt;stroke-linecap:butt;stroke-linejoin:miter;stroke-opacity:1.0000000;" transform="matrix(-0.181695,-1.125783,1.086658,-0.175379,-384.7762,841.8791)"/>
  <path d="M 334.12500 162.45840 A 74.980804 91.423965 0 1 0 184.16339,162.45840 A 74.980804 91.423965 0 1 0 334.12500 162.45840 z" id="path1656" sodipodi:cx="259.14420" sodipodi:cy="162.45840" sodipodi:rx="74.980804" sodipodi:ry="91.423965" sodipodi:type="arc" style="fill:url(#linearGradient1651);fill-opacity:1;fill-rule:evenodd;stroke:none;stroke-width:1.0000000pt;stroke-linecap:butt;stroke-linejoin:miter;stroke-opacity:1.0000000;" transform="matrix(-0.874441,-0.731951,0.706514,-0.844050,-15.94537,1056.245)"/>
  <path d="M 334.12500 162.45840 A 74.980804 91.423965 0 1 0 184.16339,162.45840 A 74.980804 91.423965 0 1 0 334.12500 162.45840 z" id="path1657" sodipodi:cx="259.14420" sodipodi:cy="162.45840" sodipodi:rx="74.980804" sodipodi:ry="91.423965" sodipodi:type="arc" style="fill:url(#linearGradient1651);fill-opacity:1;fill-rule:evenodd;stroke:none;stroke-width:1.0000000pt;stroke-linecap:butt;stroke-linejoin:miter;stroke-opacity:1.0000000;" transform="matrix(-1.098046,0.307724,-0.297027,-1.059886,445.8094,858.8119)"/>
  <path d="M 181.13785 408.03699 A 2.9351039 5.4509072 0 1 0 175.26764,408.03699 A 2.9351039 5.4509072 0 1 0 181.13785 408.03699 z" id="path1661" sodipodi:cx="178.20274" sodipodi:cy="408.03699" sodipodi:rx="2.9351039" sodipodi:ry="5.4509072" sodipodi:type="arc" style="fill:#ffffff;fill-opacity:1.0000000;fill-rule:evenodd;stroke:none;stroke-width:1.0000000pt;stroke-linecap:butt;stroke-linejoin:miter;stroke-opacity:1.0000000;" transform="translate(-155.1048,17.47404)"/>
  <path d="M 268.35236 405.31155 A 3.4242878 5.3810239 0 1 0 261.50378,405.31155 A 3.4242878 5.3810239 0 1 0 268.35236 405.31155 z" id="path1662" sodipodi:cx="264.92807" sodipodi:cy="405.31155" sodipodi:rx="3.4242878" sodipodi:ry="5.3810239" sodipodi:type="arc" style="fill:#ffffff;fill-opacity:1.0000000;fill-rule:evenodd;stroke:none;stroke-width:1.0000000pt;stroke-linecap:butt;stroke-linejoin:miter;stroke-opacity:1.0000000;" transform="translate(-155.1048,17.47404)"/>
</svg>
