<?xml version="1.0" encoding="UTF-8" standalone="no"?>
<!DOCTYPE svg PUBLIC "-//W3C//DTD SVG 20010904//EN"
"http://www.w3.org/TR/2001/REC-SVG-20010904/DTD/svg10.dtd">
<!-- Created with Sodipodi ("http://www.sodipodi.com/") --><svg height="140mm" id="svg1" sodipodi:docbase="/iconos/lemon/" sodipodi:docname="/iconos/lemon/asturias.svg" sodipodi:version="0.33" style="fill:#000000;fill-opacity:0.5;stroke:none" width="210mm" xmlns="http://www.w3.org/2000/svg" xmlns:sodipodi="http://sodipodi.sourceforge.net/DTD/sodipodi-0.dtd" xmlns:xlink="http://www.w3.org/1999/xlink">
  <metadata>
    <rdf:RDF xmlns:cc="http://web.resource.org/cc/" xmlns:dc="http://purl.org/dc/elements/1.1/" xmlns:rdf="http://www.w3.org/1999/02/22-rdf-syntax-ns#">
      <cc:Work rdf:about="">
        <dc:title>Clipart by Jose Fco. Hevia - Spain - Asturias</dc:title>
        <dc:description></dc:description>
        <dc:subject>
          <rdf:Bag>
            <rdf:li></rdf:li>
            <rdf:li>spain</rdf:li>
            <rdf:li>0x930ff9c</rdf:li>
            <rdf:li>europe</rdf:li>
            <rdf:li>flag</rdf:li>
            <rdf:li>sign</rdf:li>
          </rdf:Bag>
        </dc:subject>
        <dc:publisher>
          <cc:Agent rdf:about="http://www.openclipart.org">
            <dc:title>Jose Fco. Hevia</dc:title>
          </cc:Agent>
        </dc:publisher>
        <dc:creator>
          <cc:Agent>
            <dc:title>Jose Fco. Hevia</dc:title>
          </cc:Agent>
        </dc:creator>
        <dc:rights>
          <cc:Agent>
            <dc:title>Jose Fco. Hevia</dc:title>
          </cc:Agent>
        </dc:rights>
        <dc:date></dc:date>
        <dc:format>image/svg+xml</dc:format>
        <dc:type rdf:resource="http://purl.org/dc/dcmitype/StillImage"/>
        <cc:license rdf:resource="http://web.resource.org/cc/PublicDomain"/>
        <dc:language>en</dc:language>
      </cc:Work>
      <cc:License rdf:about="http://web.resource.org/cc/PublicDomain">
        <cc:permits rdf:resource="http://web.resource.org/cc/Reproduction"/>
        <cc:permits rdf:resource="http://web.resource.org/cc/Distribution"/>
        <cc:permits rdf:resource="http://web.resource.org/cc/DerivativeWorks"/>
      </cc:License>
    </rdf:RDF>
  </metadata>
  <defs id="defs3">
    <linearGradient id="linearGradient842">
      <stop id="stop843" offset="0" style="stop-color:#0c6795;stop-opacity:1.0000;"/>
      <stop id="stop844" offset="1" style="stop-color:#a7daea;stop-opacity:1.0000;"/>
    </linearGradient>
    <linearGradient id="linearGradient53">
      <stop id="stop54" offset="0" style="stop-color:#f0ff00;stop-opacity:1.0000;"/>
      <stop id="stop55" offset="1" style="stop-color:#176f00;stop-opacity:1.0000;"/>
    </linearGradient>
    <linearGradient id="linearGradient48">
      <stop id="stop49" offset="0" style="stop-color:#ffffff;stop-opacity:0.8353;"/>
      <stop id="stop50" offset="1" style="stop-color:#0000ff;stop-opacity:0;"/>
    </linearGradient>
    <linearGradient id="linearGradient51" x1="0.511041" x2="0.880126" xlink:href="#linearGradient842" y1="0.605269" y2="0.807018"/>
    <linearGradient id="linearGradient52" x1="0" x2="1" xlink:href="#linearGradient53" y1="0" y2="1"/>
    <radialGradient cx="0.401463" cy="0.265628" fx="0.401463" fy="0.265628" id="radialGradient577" r="1.080317" xlink:href="#linearGradient48"/>
    <radialGradient cx="0.567823" cy="0.631584" fx="0.545741" fy="0.815790" id="radialGradient845" r="0.309724" xlink:href="#linearGradient842"/>
    <radialGradient cx="0.414449" cy="0.476575" fx="0.334601" fy="0.609375" id="radialGradient846" r="0.452422" xlink:href="#linearGradient842"/>
    <radialGradient cx="0.747368" cy="0.148334" fx="0.578948" fy="0.265625" id="radialGradient614" r="0.706962" xlink:href="#linearGradient48"/>
  </defs>
  <sodipodi:namedview id="base"/>
  <path d="M -1.989460 1.406740 L -1.989460 496.5836 L 746.4028 496.5836 L 746.4028 1.406740 L -1.989460 1.406740 z " id="path583" style="font-size:12.000;fill:#0081b2;fill-opacity:1.0000;fill-rule:evenodd;"/>
  <path d="M 361.5501 228.4383 C 366.7725 233.1632 371.5831 238.0415 376.4118 242.2014 C 376.4118 248.6671 377.1474 355.4366 376.4273 370.4718 C 366.0088 373.4930 365.7761 383.1465 369.5342 388.6291 C 372.2458 392.4807 373.7567 393.7154 376.1125 393.6654 C 386.0931 393.8886 389.6581 393.8534 404.5764 393.8503 C 407.0604 394.0960 410.4531 392.3841 414.1204 388.2594 C 416.6958 383.2234 416.1403 373.8608 405.3804 370.4616 C 404.9372 361.3664 404.3933 248.7149 404.1982 242.1715 C 408.8288 237.7334 413.9972 232.6734 418.6048 228.5099 C 432.6869 228.2656 484.5750 228.2515 493.5549 228.2895 C 501.2666 239.1191 521.4649 235.2686 507.5449 222.4257 C 515.6020 222.3732 522.1957 221.9230 522.2386 215.7446 C 522.3968 208.1310 516.5029 207.9450 506.4728 208.0745 C 522.2291 193.6506 505.4428 188.8144 493.2420 201.3842 C 485.4907 201.3109 429.8806 201.5794 418.3662 201.3350 C 413.9435 197.1460 406.8677 190.1730 403.8344 186.8159 C 403.8190 179.3983 403.6093 99.48356 403.5702 87.47632 C 419.1260 72.41612 412.1497 61.99971 397.3513 75.79888 C 397.2379 66.58974 397.4227 59.30283 390.8362 59.16298 C 384.6733 59.32656 383.0259 66.41224 383.4816 75.54966 C 369.2697 61.78933 363.2614 72.38137 377.3133 87.81178 C 376.7196 94.77318 376.2476 174.5331 376.2541 186.9516 C 371.8875 191.0500 364.7880 198.1033 361.2793 201.3930 C 353.1462 201.2271 298.3134 201.4220 287.7648 201.6403 C 275.7898 189.3280 259.5365 194.5879 276.2168 208.4728 C 266.4783 208.6006 259.4104 208.2287 259.4742 215.0291 C 259.5429 221.7586 266.4361 222.4435 276.5206 222.3532 C 259.9811 235.2928 274.9058 243.5318 287.9602 228.5844 C 296.0112 228.4438 350.1313 228.5059 361.5501 228.4383 z " id="path584" sodipodi:nodetypes="cccccccccccccccccccccccccccccc" style="font-size:12.000;fill:#ffd900;fill-opacity:1.0000;fill-rule:evenodd;stroke:none;stroke-width:1.000000;"/>
  <path d="M 322.2179 252.5677 L 327.0497 244.2129 L 332.2330 252.5677 L 327.5771 258.1947 L 322.2179 252.5677 z M 305.9925 264.1277 L 317.7779 264.1277 L 320.7379 256.4077 L 327.5772 264.4966 L 333.7130 256.4077 L 337.3764 264.1277 L 348.4600 264.1277 L 331.9776 239.4687 L 332.0247 234.8347 L 322.8194 234.8560 L 323.0224 239.4687 L 305.9925 264.1277 z " id="path605" sodipodi:nodetypes="ccccccccccccccccc" style="font-size:40.000;font-weight:bold;fill-opacity:1.0000;font-family:Luxi Sans;fill:#ffd900;stroke:none;stroke-opacity:1.0000;"/>
  <path d="M 444.9024 235.9529 C 434.3688 243.8183 431.2681 257.9263 438.3425 262.8850 C 444.1254 265.3558 449.6050 255.5446 450.8567 251.5635 C 447.1349 244.2320 450.1271 235.8063 452.9247 235.6868 C 455.7758 235.7811 460.0051 243.3050 455.0386 251.5043 C 456.6249 255.4075 459.6342 265.9134 466.6853 263.1564 C 474.7142 260.4214 472.2377 245.7402 460.3111 236.0134 C 482.7599 236.2137 483.4609 266.4635 465.9341 266.4113 C 458.9614 266.1222 456.2846 262.4834 452.7030 256.2699 C 448.6261 262.1841 447.6065 266.4886 440.1361 266.3804 C 423.2492 266.4494 422.6612 236.3726 444.9024 235.9529 z " id="path606" sodipodi:nodetypes="ccccccccccc" style="fill:#ffd900;fill-rule:nonzero;stroke:none;fill-opacity:1.0000;stroke-opacity:1.0000;stroke-width:1pt;stroke-linejoin:miter;stroke-linecap:butt;"/>
</svg>
