<?xml version="1.0" encoding="UTF-8" standalone="no"?>
<!-- Generator: Adobe Illustrator 12.0.0, SVG Export Plug-In . SVG Version: 6.00 Build 51448)  --><svg height="318.299" id="Layer_1" inkscape:version="0.42" sodipodi:docbase="F:\openclip\svg da inviare" sodipodi:docname="Elefante02.svg" sodipodi:version="0.32" space="preserve" style="overflow:visible;enable-background:new 0 0 411.99 318.299;" version="1.1" viewBox="0 0 411.99 318.299" width="411.99" xmlns="http://www.w3.org/2000/svg" xmlns:cc="http://web.resource.org/cc/" xmlns:dc="http://purl.org/dc/elements/1.1/" xmlns:inkscape="http://www.inkscape.org/namespaces/inkscape" xmlns:rdf="http://www.w3.org/1999/02/22-rdf-syntax-ns#" xmlns:sodipodi="http://inkscape.sourceforge.net/DTD/sodipodi-0.dtd" xmlns:svg="http://www.w3.org/2000/svg">
  <metadata>
    <rdf:RDF xmlns:cc="http://web.resource.org/cc/" xmlns:dc="http://purl.org/dc/elements/1.1/" xmlns:rdf="http://www.w3.org/1999/02/22-rdf-syntax-ns#">
      <cc:Work rdf:about="">
        <dc:title>Elefante02</dc:title>
        <dc:description></dc:description>
        <dc:subject>
          <rdf:Bag>
            <rdf:li>mammal</rdf:li>
          </rdf:Bag>
        </dc:subject>
        <dc:publisher>
          <cc:Agent rdf:about="http://www.openclipart.org/">
            <dc:title>Open Clip Art Library</dc:title>
          </cc:Agent>
        </dc:publisher>
        <dc:creator>
          <cc:Agent>
            <dc:title>Architetto Francesco Rollandin</dc:title>
          </cc:Agent>
        </dc:creator>
        <dc:rights>
          <cc:Agent>
            <dc:title>Architetto Francesco Rollandin</dc:title>
          </cc:Agent>
        </dc:rights>
        <dc:date></dc:date>
        <dc:format>image/svg+xml</dc:format>
        <dc:type rdf:resource="http://purl.org/dc/dcmitype/StillImage"/>
        <cc:license rdf:resource="http://web.resource.org/cc/PublicDomain"/>
        <dc:language>en</dc:language>
      </cc:Work>
      <cc:License rdf:about="http://web.resource.org/cc/PublicDomain">
        <cc:permits rdf:resource="http://web.resource.org/cc/Reproduction"/>
        <cc:permits rdf:resource="http://web.resource.org/cc/Distribution"/>
        <cc:permits rdf:resource="http://web.resource.org/cc/DerivativeWorks"/>
      </cc:License>
    </rdf:RDF>
  </metadata>
  <defs id="defs260"/>
  <sodipodi:namedview bordercolor="#666666" borderopacity="1.0" id="base" inkscape:current-layer="Layer_1" inkscape:cx="205.99500" inkscape:cy="159.14951" inkscape:pageopacity="0.0" inkscape:pageshadow="2" inkscape:window-height="510" inkscape:window-width="787" inkscape:window-x="110" inkscape:window-y="145" inkscape:zoom="1.1310120" pagecolor="#ffffff"/>
  <path d="M201.499,37.096c3.269,13.324,1.213,28.751,2.742,42.51  c-3.811-1.492-6.742,0.307-9.599,2.742c-0.686-2.286-1.372-4.571-2.057-6.856c-4.165,2.083-7.383,3.88-10.906,6.9  c-4.379,3.753-6.056-0.402-9.235,5.957c-1.549,3.097-5.811,4.948-8.999,5.656c-5.503,1.223-3.633,6.033-7.199,9.599  c-4.763,4.761-10.478,14.291-12.706,20.977c-1.816,5.449-2.895,1.387-4.435,1.649c-2.745,0.468-9.061,2.117-10.97,1.372  c1.005-0.797,1.786-1.885,2.742-2.743c-3.287,0.708-7.877,4.656-10.284,2.057c5.284-2.466,9.575-3.989,13.395-8.354  c4.922-5.625-7.039-2.455-9.988-2.145c-9.541,1.004-18.575,5.194-23.976,13.242c-1.371-2.057-2.743-4.114-4.114-6.171  c-5.714,10.285-15.57,19.084-18.377,30.313c-3.434,13.736-7.851,26.827-12.82,40.081c-4.406,11.748-8.74,23.366-12.709,35.27  c-1.189,3.568-4.989,11.511-2.717,14.323c5.626,6.964,6.938-3.813,8.228-4.457c3.717-1.858,9.209,2.671,12.62,2.292  c8.295-0.92,9.788,2.844,3.15,7.65c-7.622,5.52-23.439,13.897-33.253,10.627c-26.565-8.853-11.648-40.477-5.346-59.384  c6.205-18.614,0.505-38.557,3.631-57.518c-8.085,6.22-16.918,13.257-26.867,16.099c-2.723,0.778-9.108,3.466-11.186,1.385  c-1.944-1.947,7.478-6.811,9.192-8.035c17.75-12.675,31.578-27.988,39.146-48.53c-2.816-0.32-4.93-4.362-7.059-3.936  c-3.374,0.674-2.994,3.355-4.597,3.936c-0.184,0.067-10.204,2.137-10.627,1.714c-3.038-3.038,4.227-29.783,5.828-33.939  c4.438-11.521,13.72-20.51,18.741-31.667c2.849-6.332,4.728-12.002,10.099-16.478c3.912-3.259,9.39-2.771,12.527-6.605  c9.813-11.995,18.101-9.73,31.908-12.24c13.266-2.412,22.85-6.923,36.256-1.896c4.826,1.81,8.932,9.139,13.713,12.127  c5.495,3.434,11.154,5.683,17.194,7.948C181.457,25.896,197.851,26.603,201.499,37.096" id="path3" style="fill-rule:evenodd;clip-rule:evenodd;"/>
  <path d="  M143.219,77.549c5.975-6.762,17.833-12.599,10.285-23.998c-4.378-6.612-19.27-13.006-18.512-21.255  c2.333,1.902,5.051,2.984,8.228,4.799c-1.386-0.791-5.584-4.126-4.799-6.17c1.1-2.867,4.492-0.014,7.06-1.041  c8.757-3.504,13.569,1.727,21.907,1.727c23.46,0,18.84,16.768,19.714,34.282c0.399,7.997,0.152,16.455-10.589,16.455  c-5.892,0-4.173,10.285-12.85,10.285c-6.698,0-5.031,16.26-12.292,5.37C147.282,91.871,142.426,85.226,143.219,77.549" id="path5" style="fill-rule:evenodd;clip-rule:evenodd;fill:#B29E8B;stroke:#000000;stroke-width:0;stroke-linecap:square;stroke-miterlimit:10;"/>
  <path d="M46.543,111.831c5.418,0.452,9.864,1.52,15.084,2.742  C58.966,111.779,49.653,110.188,46.543,111.831" id="path7" style="fill-rule:evenodd;clip-rule:evenodd;"/>
  <path d="M44.486,115.945c3.198,0.291,6.386,0.695,9.599,0.686  C51.458,114.586,47.248,114.668,44.486,115.945" id="path9" style="fill-rule:evenodd;clip-rule:evenodd;"/>
  <path d="M42.43,123.487c1.183-0.449,3.942,0.28,6.17,0.686  C46.79,124.864,44.578,124.316,42.43,123.487" id="path11" style="fill-rule:evenodd;clip-rule:evenodd;"/>
  <path d="M43.115,119.373c2.782-0.975,6.646-0.783,8.228,1.371  C48.754,120.139,44.743,119.932,43.115,119.373" id="path13" style="fill-rule:evenodd;clip-rule:evenodd;"/>
  <path d="  M104.823,113.888c-2.482,2.095-4.989,4.163-7.542,6.17c1.542-4.109,1.934-14.398-6.17-14.398c-6.587,0-9.024,8.881-12.342,12.342  c-0.569-4.397,2.093-11.159,4.8-13.713c-2.112,1.22-3.567,3.325-4.8,5.486c-0.06-3.372,5.098-8.418,2.743-8.914  c4.078-3.341,3.193-8.537,2.742-13.028c-3.093,6.811-6.657,16.373-7.542,23.998c-0.369,3.181,0.997,6.484,0.686,9.599  c-0.272,2.728-1.743,6.377-3.085,9.599c-7.197,17.271-20.972,27.929-35.311,39.081c0-12.302-0.151-24.16,1.963-36.316  c2.328-13.381,7.842-24.637,12.114-37.454c4.189-12.569,4.052-25.66,1.221-38.396c-0.725-3.259,4.155-10.042,4.763-13.687  c1.185-7.106,3.256-10.783,7.721-16.466c7.145-9.094,14.34-21.549,27.069-21.549c5.746,0,11.56-0.654,17.141-2.057  c5.419-1.362,12.813-5.116,18.54-3.971c7.334,1.467,11.535,3.202,17.158,8.2c4.531,4.027,8.302,8.022,14.139,10.357  c11.046,4.419,28.697,6.352,37.24,14.896c6.216,6.217,3.429,16.348,3.429,24.168c0,5.529,0.771,10.537,1.193,16.031  c0.587,7.638-3.311,2.667-7.364,7.796c-2.2-8.802-1.372-15.989-1.372-24.937c0-8.749,3.749-16.207-4.799-22.373  c-6.392-4.611-14.575-2.899-22.039-4.256c-9.467-1.722-11.971-9.595-20.814-12.542c-4.764-1.588-17.357,8.913-16.798,14.056  c0.696,6.405,13.668,12.791,17.827,17.141c5.892,6.165,8.948,11.601,4.267,19.401c-2.099,3.498-4.754,5.15-8.038,7.338  c-1.417,0.944-1.268,3.429-2.4,4.114c-0.214,0.13-4.986-0.674-5.485-0.686C152.48,95.47,113.475,107.032,104.823,113.888" id="path15" style="fill-rule:evenodd;clip-rule:evenodd;fill:#ABABAB;stroke:#000000;stroke-width:0;stroke-linecap:square;stroke-miterlimit:10;"/>
  <path d="M267.319,206.449c8.568-1.353,17.731-1.862,26.131-3.962  c8.802-2.2,3.591,1.528,9.903,3.632c4.933,1.644,5.808,6.748,8.018,11.338c4.447,9.236,10.114,15.141,10.114,25.541  c0,8.798-1.809,18.023-5.079,26.201c-2.343,5.855-10.635,17.762-8.633,23.642c2.063,6.063,13.415,6.989,18.684,7.648  c1.974,0.247,3.898,0.684,5.872,0.401c2.067-0.296,4.729-2.444,6.298-2.565c3.476-0.268,6.081,1.759,10.665-0.533  c7.307-3.653,8.327-12.313,5.104-19.35c9.438-0.523,22.847-1.866,19.884-13.713c-1.303-5.206-2.743-9.49-2.743-14.912  c0-4.3-4.686-7.829-7.007-11.079c-2.686-3.762-2.913-11.067-3.607-15.58c-0.765-4.969,3.26-9.422,4.241-14.322  c2.37-11.849,8.864-23.047,13.915-33.926c3.486,9.586,7.053,19.121,10.285,28.797c2.023,6.057,4.73,18.693,12.342,19.883  c-0.686-0.686-1.372-1.371-2.058-2.057c2.083,0.326,4.072,1.63,5.485,3.429c0-0.686,0-1.371,0-2.057  c2.482,0.755,4.386,2.288,6.856,2.742c-1.402-2.274-1.609-2.306-1.372-4.114c-4.344-1.092-17.141-16.117-17.968-20.667  c-2.114-11.624-6.715-23.106-6.715-34.997c0-13.416,4.163-25.74,4.729-39.299c0.53-12.702-0.476-20.059-5.071-31.879  c-3.869-9.952-5.645-23.814-13.37-31.54c-6.814-6.814-22.418-16.455-32.353-16.455c-12.146,0-25.368,2.396-37.24-0.343  c-12.094-2.791-23.641-7.145-35.311-11.313C267.319,92.176,267.319,149.312,267.319,206.449" id="path17" style="fill-rule:evenodd;clip-rule:evenodd;"/>
  <path d="M267.319,206.449c0-45.419,0-90.837,0-136.256c0-9.572,0-19.144,0-28.716  c0-7.205,0.019-7.144-8.228-8.495c-19.604-3.212-38.296,2.736-57.593,4.114c3.269,13.324,1.213,28.751,2.742,42.51  c-3.811-1.492-6.742,0.307-9.599,2.742c-0.686-2.286-1.372-4.571-2.057-6.856c-4.165,2.083-7.383,3.88-10.906,6.9  c-4.379,3.753-6.056-0.402-9.235,5.957c-1.549,3.097-5.811,4.948-8.999,5.656c-5.503,1.223-3.633,6.033-7.199,9.599  c-4.763,4.761-10.478,14.291-12.706,20.977c-1.816,5.449-2.895,1.387-4.435,1.649c-2.745,0.468-9.061,2.117-10.97,1.372  c1.005-0.797,1.786-1.885,2.742-2.743c-3.287,0.708-7.877,4.656-10.284,2.057c5.284-2.466,9.575-3.989,13.395-8.354  c5.068-5.792-8.451-2.307-11.464-1.99c-2.577,0.271-12.774,3.032-14.958,4.173c-4.206,2.198-7.192,11.91-11.656,2.743  c2.672,9.084,7.011,17.021,6.34,26.419c-0.719,10.063,1.099,20.054,0.274,29.957c-1.399,16.812,1.739,33.354,7.441,48.184  c1.001,2.604,6.316,10.337,5.399,12.171c-2.182,4.364-4.367,8.483-3.685,13.541c1.194,8.854,7.03,14.393,4.799,23.312  c-1.569,6.275-10.89,11.633-5.528,17.891c1.495,1.745,2.582,3.829,4.842,4.394c1.546,0.386,4.3-0.248,5.485,1.027  c1.973,2.123,0.165,5.7,2.057,8.228c-8.77,6.468,11.087,8.496,13.37,9.257c7.589,2.529,25.151-6.7,32.239-9.536  c11.878-4.752,4.833-16.917,1.37-25.572c-3.742-9.351-4.447-21.361-6.679-31.03c-1.844-7.991-2.032-8.106,3.292-14.249  c3.983-4.597,8.147-8.997,12.317-13.428c4.844-5.147,15.261-24.732,21.225-22.743C221.952,208.469,245.053,210.379,267.319,206.449" id="path19" style="fill-rule:evenodd;clip-rule:evenodd;"/>
  <path d="M137.048,6.928c-3.056,5.553-9.78,8.313-10.627,15.084  c-0.249,1.985,0.535,7.789-1.029,8.571c-1.217,0.609-6.622,1.321-7.567,0.14C111.656,23.012,132.626,0.995,137.048,6.928" id="path21" style="fill-rule:evenodd;clip-rule:evenodd;"/>
  <path d="  M135.677,7.613c-4.35,3.976-10.176,9.71-10.97,15.77c-0.359,2.739,1.757,9.868-4.114,6.856  C112.369,26.021,129.272,4.985,135.677,7.613" id="path23" style="fill-rule:evenodd;clip-rule:evenodd;fill:#838383;stroke:#000000;stroke-width:0;stroke-linecap:square;stroke-miterlimit:10;"/>
  <path d="  M152.132,21.326c1.74,1.947,3.38,3.981,4.799,6.171c-6.229,0-11.105,2.118-16.862,1.478c-3.227-0.358-6.718,3.219-6.45,6.064  c-8.333-5.426,7.04-14.511,12.342-14.398c-1.855-0.314-3.418-0.821-5.485-0.686C144.796,17.763,148.033,19.687,152.132,21.326" id="path25" style="fill-rule:evenodd;clip-rule:evenodd;fill:#B29E8B;stroke:#000000;stroke-width:0;stroke-linecap:square;stroke-miterlimit:10;"/>
  <path d="  M62.313,30.24c-4.571,1.142-7.21,9.95-8.913,13.713c-3.059,6.761-6.649,13.298-9.98,19.959c-6.716,13.433-7.161,25.552-7.161,39.691  c-2.669-1.534-8.257,1.165-8.913,0.685c-2.714-1.986,0.755-8.743,1.371-10.97c2.792-10.101,2.836-19.19,8.125-28.447  c4.376-7.658,11.426-15.596,14.755-23.585c3.91-9.385,7.06-16.604,17.572-19.274C67.521,25.14,64.673,27.617,62.313,30.24" id="path27" style="fill-rule:evenodd;clip-rule:evenodd;fill:#ABABAB;stroke:#000000;stroke-width:0;stroke-linecap:square;stroke-miterlimit:10;"/>
  <path d="  M187.785,34.354c7.815,6.698,6.265,10.436,5.537,19.909c-0.378,4.922,1.516,21.321-4.165,21.229  c0.833-8.173-1.255-16.939-0.724-25.446c0.534-8.542-2.378-14.91-10.247-18.435C181.477,32.342,184.717,32.908,187.785,34.354" id="path29" style="fill-rule:evenodd;clip-rule:evenodd;fill:#B29E8B;stroke:#000000;stroke-width:0;stroke-linecap:square;stroke-miterlimit:10;"/>
  <path d="M142.533,35.725c2.705-0.151,5.086,1.414,6.856,3.428  c-3.554-1.307-7.607-3.356-9.599-6.856C141.161,32.923,141.567,34.308,142.533,35.725" id="path31" style="fill-rule:evenodd;clip-rule:evenodd;"/>
  <path d="M386.622,101.546c-5.942,8.17-12.34,13.708-16.761,22.55  c-4.531,9.062-8.235,18.423-13.485,27.173c-4.484,7.476-10.043,16.048-16.759,21.682c-4.137,3.469-24.65,15.825-21.56,22.528  c5.614-9.28,14.977-15.44,23.373-22.038c8.032-6.311,13.989-15.392,20.508-23.214c0.229,0.229,0.457,0.457,0.686,0.686  c-9.766,12.109-17.816,21.754-30.256,30.969c-13.07,9.682-14.635,18.473-10.824,33.714c6.63,26.521-1.276,52.61-13.086,75.188  c4.445,0.985,7.67-0.657,10.971,4.114c-0.014-5.692,1.457-14.47,7.542-16.455c-1.269,0.935-2.268,2.351-3.429,3.427  c0.457,0,0.915,0,1.372,0c-1.188,3.568-6.552,9.771-4.114,14.399c1.363-8.827,13.505-3.817,16.456,1.371  c-0.235-3.484-0.652-6.323,2.057-8.913c0,0.686,0,1.371,0,2.057c2.144-0.005,0.84,2.02,0.686,4.8  c1.688-5.138,9.208-7.521,13.713-4.8c-0.091-5.701,0.284-10.353-2.742-16.455c0.255-0.06,2.057-28.477,2.057-33.427  c0-12.723,10.898-23.531,11.655-35.823c-1.094,0.579-3.198,1.298-4.113,2.057c6.32-3.06,10.185-15.025,12.547-21.1  c3.857-9.918,7.402-19.886,10.899-29.938C389.674,139.823,393.854,117.822,386.622,101.546" id="path33" style="fill-rule:evenodd;clip-rule:evenodd;fill:#ABABAB;"/>
  <path d="  M120.593,126.915c3.491,0.059,12.775-4.15,14.398-7.542c3.394-7.089-4.252-4.056-8.914-3.428c0.686-0.686,1.372-1.371,2.057-2.057  c-3.464-0.212-5.451,2.492-9.599,4.114c-4.698,1.838-10.791,2.065-15.771,2.057c1.363,0.381,1.714,1.134,3.429,1.372  c-0.856,2.666-2.597,2.654-4.8,0.686c0.472,0.845,0.422,1.605,2.057,3.428c-2.395,0.551-3.898,2.274-4.114,4.799  c-4.756-10.333,9.771-17.289,17.141-21.941c9.494-5.992,19.592-9.68,28.796-15.77c4.687,5.708-8.188,9.136-10.284,12.342  c2.856-0.872,12.639-7.438,13.713-5.828c0.768,1.151,5.481,4.446,5.485,4.457c1.166,3.806-2.989,5.711-4.799,8.228  c-3.031,4.213-4,11.542-7.542,15.083c0.459-0.459-11.644,0.616-13.027,0.686c1.223-0.79,2.204-1.956,3.428-2.743  C128.393,125.146,124.084,128.004,120.593,126.915" id="path35" style="fill-rule:evenodd;clip-rule:evenodd;fill:#838383;stroke:#000000;stroke-width:0;stroke-linecap:square;stroke-miterlimit:10;"/>
  <path d="M165.845,37.782c-14.429,7.656-4.921,17.642,0.686,26.74  c-5.308-3.834-10.283-11.618-10.971-16.455C154.844,43.034,163.683,33.325,165.845,37.782" id="path37" style="fill-rule:evenodd;clip-rule:evenodd;"/>
  <path d="  M56.828,48.066c-1.579,2.83-3.798,7.378-3.25,10.665c0.252,1.515,2.461,10.537-0.864,8.875  c-5.892-2.942-11.489,12.407-13.712,16.112c3.834-6.412,2.636-15.576,6.527-22.582c4.14-7.452,7.611-16.729,12.67-23.355  C57.884,41.252,57.752,44.697,56.828,48.066" id="path39" style="fill-rule:evenodd;clip-rule:evenodd;fill:#B29E8B;stroke:#000000;stroke-width:0;stroke-linecap:square;stroke-miterlimit:10;"/>
  <path d="M77.397,39.838c-1.712,4.438-5.433,14.25-3.428,17.827  C67.715,56.164,75.056,42.417,77.397,39.838" id="path41" style="fill-rule:evenodd;clip-rule:evenodd;"/>
  <path d="  M158.303,43.953c-0.374,1.432-1.155,2.658-1.371,4.114c-1.967-3.476,0.226-7.337,4.114-7.542  C160.143,41.653,159.323,42.932,158.303,43.953" id="path43" style="fill-rule:evenodd;clip-rule:evenodd;fill:#B29E8B;stroke:#000000;stroke-width:0;stroke-linecap:square;stroke-miterlimit:10;"/>
  <path d="M112.365,41.209c-8.25,4.583-9.292,12.317-15.77,17.827  C97.74,53.886,106.149,37.952,112.365,41.209" id="path45" style="fill-rule:evenodd;clip-rule:evenodd;"/>
  <path d="M131.563,45.324c2.656,3.863,5.568,8.66,2.743,12.341  c1.362-2.949,0.006-4.957-2.057-4.799c0.088-5.718-1.743-6.963-6.171-10.284C127.877,43.26,129.836,44.24,131.563,45.324" id="path47" style="fill-rule:evenodd;clip-rule:evenodd;"/>
  <path d="M115.793,44.638c0.384,0.424,0.31,0.265,0.686,1.371  c-17.864,0.634-13.116,32.722-9.599,43.881c-4.331-4.832,0.174-12.688-5.485-17.141c0.613-0.074,1.443-0.066,2.057,0  c-1.297-1.289-1.723-2.452-3.428-3.428c0.943,0.474,2.376,0.836,3.428,1.371c-0.742-2.05-2.107-3.583-3.428-4.114  c5.522,1.946,2.154-2.606,0-4.8c0.504,0.391,0.893,0.948,1.371,1.372c0.229-0.229,0.458-0.457,0.686-0.686  c-0.686-0.686-1.372-1.372-2.057-2.057C105.415,57.129,105.864,44.062,115.793,44.638" id="path49" style="fill-rule:evenodd;clip-rule:evenodd;"/>
  <path d="M137.048,49.438c0.341,2.147-0.191,4.387-1.371,5.485  c0.238-2.956-0.247-6.018-0.686-8.914C135.671,47.142,136.478,48.248,137.048,49.438" id="path51" style="fill-rule:evenodd;clip-rule:evenodd;"/>
  <path d="M129.506,50.123c1.92,2.208,1.625,5.126,0,7.542  c0.006-1.138-0.063-2.292,0-3.428c-0.457,0.457-0.914,0.914-1.371,1.371c1.021-2.562,0.099-5.108-2.057-6.856  C127.638,47.755,128.127,48.967,129.506,50.123" id="path53" style="fill-rule:evenodd;clip-rule:evenodd;"/>
  <path d="  M98.652,53.551c0.692-1.822,1.336-3.343,2.743-4.799C100.947,50.714,99.574,52.504,98.652,53.551" id="path55" style="fill-rule:evenodd;clip-rule:evenodd;fill:#838383;stroke:#000000;stroke-width:0;stroke-linecap:square;stroke-miterlimit:10;"/>
  <path d="M139.791,52.18c-1.111,2.501-2.335,4.045-2.743,6.856  c0.085-3.234,0.287-6.423,2.057-8.914C139.333,50.809,139.562,51.495,139.791,52.18" id="path57" style="fill-rule:evenodd;clip-rule:evenodd;"/>
  <path d="M119.907,54.237c-2.899,1.06-9.123-4.4-10.971,0.686  c2.864-2.886,7.115-0.759,10.285,0.686c-2.786-0.017-3.851,2.002-6.171,2.743c-2.818,0.899-4.622,0.151-7.542,0.686  c0.695-0.656,2.005-2.753,2.743-3.428c-0.686,0.457-1.372,0.915-2.057,1.372C108.838,49.837,114.67,51.833,119.907,54.237" id="path59" style="fill-rule:evenodd;clip-rule:evenodd;"/>
  <path d="M123.335,54.237c-0.52,1.723-2.112,2.941-4.114,3.428  c1.062-1.74,2.731-3.009,3.429-4.799C122.482,53.923,123.044,53.489,123.335,54.237" id="path61" style="fill-rule:evenodd;clip-rule:evenodd;"/>
  <path d="  M112.365,54.923c-0.301,0.928-1.253,1.119,0,2.057c-0.835-0.357-1.405-0.5-2.057-1.372C110.939,54.76,111.918,55.389,112.365,54.923  " id="path63" style="fill-rule:evenodd;clip-rule:evenodd;fill:#FFFFFF;stroke:#000000;stroke-width:0;stroke-linecap:square;stroke-miterlimit:10;"/>
  <path d="  M116.479,55.608c-0.229,0.457-0.458,0.915-0.686,1.372c-0.696-1.625-0.739-1.744-1.371-2.743  C116.313,54.705,116.672,55.864,116.479,55.608" id="path65" style="fill-rule:evenodd;clip-rule:evenodd;fill:#FFFFFF;stroke:#000000;stroke-width:0;stroke-linecap:square;stroke-miterlimit:10;"/>
  <path d="M126.078,61.094c0.113,6.715-7.492,12.14-10.285,17.827  c-2.795,5.692-0.354,12.379-2.743,17.141c0.522-5.604-2.409-9.459-0.685-14.398c-1.259,0.768-3.576,1.249-4.8,2.057  c1.372-2.743,2.743-5.485,4.114-8.228c2.341,0.001,0.566-6.17,4.114-6.17c2.915,0,7.506-3.302,8.228-6.171  c-0.682,0.455-2.044,0.933-2.743,1.371c2.307-2.534,3.916-5.662,4.799-8.913C126.078,57.426,126.219,59.284,126.078,61.094" id="path67" style="fill-rule:evenodd;clip-rule:evenodd;"/>
  <path d="  M107.565,58.351c0.359-1.167,0.917-2.293,1.371-3.428c0.5,1.592,0.943,2.523,1.372,3.428  C109.572,58.351,108.263,58.603,107.565,58.351" id="path69" style="fill-rule:evenodd;clip-rule:evenodd;fill:#FFFFFF;stroke:#000000;stroke-width:0;stroke-linecap:square;stroke-miterlimit:10;"/>
  <path d="M118.536,57.665c-1.702,2.74-6.97,4.949-8.914,2.057  C113.847,58.406,114.982,59.973,118.536,57.665" id="path71" style="fill-rule:evenodd;clip-rule:evenodd;"/>
  <path d="M121.278,58.351c-4.152,2.457-10.084,8.875-14.398,2.743  C113.059,64.855,117.434,57.079,121.278,58.351" id="path73" style="fill-rule:evenodd;clip-rule:evenodd;"/>
  <path d="  M54.771,76.863c0,4.91-0.959,22.489-6.513,24.34c-6.094,2.031,1.185-16.04,1.713-19.541c-4.531,5.056-3.167,15.912-10.97,17.141  c-0.87-7.823,2.344-30.275,13.027-30.854c0.05,0.659-0.127,1.41,0,2.057c0.556-0.721,2.067-1.531,2.743-2.742  C55.871,70.391,55.068,73.594,54.771,76.863" id="path75" style="fill-rule:evenodd;clip-rule:evenodd;fill:#B29E8B;stroke:#000000;stroke-width:0;stroke-linecap:square;stroke-miterlimit:10;"/>
  <path d="  M118.536,74.121c-1.652,1.386-3.027,2.187-4.114,4.114c-1.188-0.561-2.839,1.208-4.114,3.428c0.7-4.118,4.409-6.608,4.114-10.97  c2.76,0.739,5.033-1.831,8.228-3.428C120.741,69.145,119.27,71.542,118.536,74.121" id="path77" style="fill-rule:evenodd;clip-rule:evenodd;fill:#838383;stroke:#000000;stroke-width:0;stroke-linecap:square;stroke-miterlimit:10;"/>
  <path d="M172.016,78.234c0.934,1.126,1.829,2.286,2.743,3.428  c-0.457,0-0.914,0-1.371,0c-0.797-3.36-3.067-7.361-4.8-10.284C170.038,73.478,171.212,75.812,172.016,78.234" id="path79" style="fill-rule:evenodd;clip-rule:evenodd;"/>
  <path d="M141.848,75.492c-0.588,0.725,0.877,1.492-0.686,1.372  c0.347-2.4-0.235-3.022,2.057-4.114C142.762,73.664,142.305,74.578,141.848,75.492" id="path81" style="fill-rule:evenodd;clip-rule:evenodd;"/>
  <path d="M145.275,81.663c2.397,4.86,5.11,9.557,7.542,14.398  C150.649,93.131,143.242,82.566,145.275,81.663" id="path83" style="fill-rule:evenodd;clip-rule:evenodd;"/>
  <path d="M152.818,81.663c3.405,5.239,8.419,10.493,4.799,17.141  c-1.117-5.282-7.648-15.864-6.856-19.883C151.447,79.834,152.118,80.76,152.818,81.663" id="path85" style="fill-rule:evenodd;clip-rule:evenodd;"/>
  <path d="  M143.219,85.776c2.834,3.704-0.849,7.382-4.114,8.914c1.161-4.964,0.811-9.967-1.371-14.398  C140.324,81.107,141.984,83.295,143.219,85.776" id="path87" style="fill-rule:evenodd;clip-rule:evenodd;fill:#838383;stroke:#000000;stroke-width:0;stroke-linecap:square;stroke-miterlimit:10;"/>
  <path d="M119.221,83.034c-3.082,5.07-2.672,24.136-8.228,24.683  c5.508-7.715,1.735-21.417,8.914-27.426C119.679,81.206,119.45,82.12,119.221,83.034" id="path89" style="fill-rule:evenodd;clip-rule:evenodd;"/>
  <path d="M71.912,86.462c-4.516-1.838-9.684-0.925-14.398,0  C60.501,83.185,67.904,84.307,71.912,86.462" id="path91" style="fill-rule:evenodd;clip-rule:evenodd;"/>
  <path d="M122.65,85.091c-1.449,4.843-1.013,17.223-6.857,18.513  C118.424,98.146,118.444,89.398,122.65,85.091" id="path93" style="fill-rule:evenodd;clip-rule:evenodd;"/>
  <path d="  M384.564,94.69c0.582,1.306,0.919,2.756,1.371,4.114c-3.851-3.15-8.144-8.789-4.799-13.713  C382.298,88.284,383.491,91.466,384.564,94.69" id="path95" style="fill-rule:evenodd;clip-rule:evenodd;fill:#838383;stroke:#000000;stroke-width:0;stroke-linecap:square;stroke-miterlimit:10;"/>
  <path d="  M158.303,94.004c-0.229,0.914-0.457,1.829-0.686,2.743c-0.761-3.481-2.275-6.84-2.742-10.285  C157.762,88.234,157.585,90.773,158.303,94.004" id="path97" style="fill-rule:evenodd;clip-rule:evenodd;fill:#B29E8B;stroke:#000000;stroke-width:0;stroke-linecap:square;stroke-miterlimit:10;"/>
  <path d="M126.764,89.89c-0.24,2.31-0.831,4.82-2.057,6.171  C124.337,93.09,124.534,89.96,126.764,89.89" id="path99" style="fill-rule:evenodd;clip-rule:evenodd;"/>
  <path d="M94.538,108.402c11.999,17.581-23.894,46.298-36.339,54.166  c13.935-10.948,37.805-34.938,33.597-54.851C92.752,107.761,93.645,108.026,94.538,108.402" id="path101" style="fill-rule:evenodd;clip-rule:evenodd;fill:#E9E9E9;"/>
  <path d="  M91.11,111.831c-1.186,14.009-9.958,24.729-17.7,35.856c-5.585,8.028-22.232,22.085-32.352,22.422  c10.999-9.678,21.824-17.952,30.354-30.141c5.808-8.298,7.569-30.672,19.011-32.252C90.638,108.999,91.234,110.549,91.11,111.831" id="path103" style="fill-rule:evenodd;clip-rule:evenodd;fill:#FFFFFF;stroke:#000000;stroke-width:0;stroke-linecap:square;stroke-miterlimit:10;"/>
  <path d="M130.877,108.402c-6.881,5.925-13.333,9.367-22.625,8.914  c2.816-1.616,8.423-1.215,11.859-3.276C123.262,112.149,128.593,107.691,130.877,108.402" id="path105" style="fill-rule:evenodd;clip-rule:evenodd;"/>
  <path d="M58.199,110.459c-3.115-0.737-8.394-0.065-10.285-1.371  C51.486,109.088,54.966,108.628,58.199,110.459" id="path107" style="fill-rule:evenodd;clip-rule:evenodd;"/>
  <path d="M39.001,137.885c-1.822,6.006-9.256,10.623-14.398,13.713  c1.727-2.22,4.246-4.511,5.142-7.199c0.741-2.223-1.356-5.259-1.028-6.514c1.329-5.082,10.282-12.73,13.713-17.141  C41.207,126.451,40.045,132.144,39.001,137.885" id="path109" style="fill-rule:evenodd;clip-rule:evenodd;fill:#E9E9E9;"/>
  <path d="  M29.402,140.627c0.657,9.128-20.022,23.196-28.111,18.512c8.141-7.743,18.387-12.858,26.74-20.568  C28.677,139.147,29.076,139.823,29.402,140.627" id="path111" style="fill-rule:evenodd;clip-rule:evenodd;fill:#FFFFFF;stroke:#000000;stroke-width:0;stroke-linecap:square;stroke-miterlimit:10;"/>
  <path d="  M117.85,159.825c5.672,5.673,11.458,11.188,17.3,16.687c3.869,3.642,15.243,6.257,11.497,12.11  c-5.353-3.066-11.43-3.314-16.812-6.006c-5.94-2.971-11.152-8.448-17.47-10.449c-7.181-2.274-8.914-0.117-8.914-9.427  c0-6.041,0.284-11.969,0.686-17.998C108.532,150.235,112.57,155.205,117.85,159.825" id="path113" style="fill-rule:evenodd;clip-rule:evenodd;fill:#595959;stroke:#000000;stroke-width:0;stroke-linecap:square;stroke-miterlimit:10;"/>
  <path d="  M74.655,159.825c-3.423,15.174-8.792,31.18-15.35,45.234c-3.32,7.115-6.29,13.559-7.961,21.273  c-1.491,6.88-1.842,11.348-6.171,15.77c0.229,0.229,0.457,0.458,0.685,0.687c0.457-0.229,0.915-0.458,1.372-0.687  c-0.624,1.382-0.431,2.779-1.372,4.114c0.686-0.229,1.372-0.457,2.057-0.686c-0.175,0.982-0.721,1.715-0.686,2.742  c1.119-1.234,1.862-0.896,2.742-3.428c1.386,2.266,1.48,2.775,0.686,5.484c0.915-1.465,1.297-2.36,1.371-4.799  c1.662,1.244,2.665,2.146,3.429,4.113c1.425-1.977,0.766-9.557,4.114-10.284c-0.068,0.388,13.328,5.199,17.141,4.799  c-3.035,4.581-12.795,6.805-17.827,8.914c-8.663,3.632-16.451,3.038-24.683,0c0.856-0.815,1.288-1.993,2.057-2.743  c-1.677,0.946-2.459,0.837-4.114,1.372c0.586-0.453,2.098-2.248,2.743-2.742c-2.014,1.165-4.667,0.387-6.171-1.372  c0.457,0,0.914,0,1.371,0c-7.476-7.542-0.692-23.285,1.843-33.425c3.509-14.037,8.065-27.858,7.071-42.682  c9.957,3.449,33.262-14.737,38.396-22.625C76.72,152.584,76.358,156.388,74.655,159.825" id="path115" style="fill-rule:evenodd;clip-rule:evenodd;fill:#ABABAB;stroke:#000000;stroke-width:0;stroke-linecap:square;stroke-miterlimit:10;"/>
  <path d="M363.995,159.825c-1.649,3.663-5.37,5.335-7.542,7.543  c0.229-0.686,0-0.914-0.686-0.686C358.6,164.479,361.502,162.413,363.995,159.825" id="path117" style="fill-rule:evenodd;clip-rule:evenodd;"/>
  <path d="  M383.879,168.739c-2.128,2.536-3.23,5.616-2.742,8.913c-3.421-5.529,1.753-14.381,3.428-19.884  C384.564,161.135,385.222,166.586,383.879,168.739" id="path119" style="fill-rule:evenodd;clip-rule:evenodd;fill:#838383;stroke:#000000;stroke-width:0;stroke-linecap:square;stroke-miterlimit:10;"/>
  <path d="  M388.679,187.937c1.782,6.537,2.538,20.362,8.913,23.997c-0.405,0.833-0.787,1.374-1.372,2.058  c-3.064-2.792-6.542-8.336-6.171-10.285c0.229-0.229,0.458-0.458,0.687-0.687c-5.801-6.736-11.632-24.591-6.856-32.91  C386.686,173.439,387.56,183.087,388.679,187.937" id="path121" style="fill-rule:evenodd;clip-rule:evenodd;fill:#ABABAB;stroke:#000000;stroke-width:0;stroke-linecap:square;stroke-miterlimit:10;"/>
  <path d="M342.741,178.337c-5.521,4.831-13.465,12.681-19.885,15.085  c4.759-9.342,20.466-15.857,28.112-23.313C349.139,173.93,346.011,175.885,342.741,178.337" id="path123" style="fill-rule:evenodd;clip-rule:evenodd;"/>
  <path d="  M115.793,174.91c5.682,3.652,11.387,8.04,17.827,10.285c9.112,3.177,15.021,2.162,8.486,13.054  c-8.107,13.512-16.167,26.578-24.941,39.739c-4.264-3.69-6.485-11.82-7.542-17.141c2.351,0.878,3.473,0.623,5.485,0  c-3.216-1.08-6.906-3.099-8.228-6.171c2.164,1.645,2.74,1.499,4.799,1.372c-4.018-2.004-5.775-5.342-6.856-9.6  c1.098,0.736,2.39,1.243,3.429,2.058c0.229-0.229,0.457-0.457,0.685-0.686c-5.852-4.115-5.827-15.433-5.244-21.854  c0.167-1.842-1.182-12.077-0.241-13.114C105.816,170.246,113.485,173.716,115.793,174.91" id="path125" style="fill-rule:evenodd;clip-rule:evenodd;fill:#838383;stroke:#000000;stroke-width:0;stroke-linecap:square;stroke-miterlimit:10;"/>
  <path d="M45.857,176.281c-1.594,0.069-3.203,0-4.799,0  C43.198,175.376,44.793,175.789,45.857,176.281" id="path127" style="fill-rule:evenodd;clip-rule:evenodd;"/>
  <path d="M49.971,179.024c-2.737,1.409-7.017,2.215-9.599,0  C43.572,179.024,46.771,179.024,49.971,179.024" id="path129" style="fill-rule:evenodd;clip-rule:evenodd;"/>
  <path d="M47.915,181.766c0.336,1.854-5.175,1.975-7.542,0  C43.117,181.902,45.352,182.289,47.915,181.766" id="path131" style="fill-rule:evenodd;clip-rule:evenodd;"/>
  <path d="M45.857,184.508c-1.417,0.283-2.936,0.822-4.799,0  C42.656,184.508,44.261,184.449,45.857,184.508" id="path133" style="fill-rule:evenodd;clip-rule:evenodd;"/>
  <path d="M368.109,186.565c-2.33,3.875-7.285,19.024-10.97,19.884  c0.71-1.124,1.301-2.336,2.057-3.429c-4.043,2.715-7.178,5.04-12.342,6.171c4.705-2.351,8.487-4.588,12.342-8.228  c-3.969-0.104-6.141,3.56-10.284,3.429c4.164-1.773,10.784-5.188,12.341-8.913c-1.024,0.444-2.418,0.905-3.429,1.371  c0.468-3.068,3.999-3.969,6.171-6.171C365.547,189.105,368.257,184.406,368.109,186.565" id="path135" style="fill-rule:evenodd;clip-rule:evenodd;"/>
  <path d="M338.627,186.565c-8.356,7.713-14.129,13.416-14.398,25.369  C319.724,205.83,332.015,185.106,338.627,186.565" id="path137" style="fill-rule:evenodd;clip-rule:evenodd;"/>
  <path d="  M317.371,199.593c-6.527,3.262-12.803,9.26-17.141,0.685c5.03-1.253,10.32-2.851,14.398-6.171  C315.224,196.066,316.18,197.994,317.371,199.593" id="path139" style="fill-rule:evenodd;clip-rule:evenodd;fill:#838383;stroke:#000000;stroke-width:0;stroke-linecap:square;stroke-miterlimit:10;"/>
  <path d="  M318.058,209.191c1.621,3.913-1.325,10.371-2.057,14.398c-2.209-4.859-4.431-9.618-7.021-14.283  c-2.233-4.022,4.895-6.814,8.392-8.343C317.677,203.713,318.053,206.424,318.058,209.191" id="path141" style="fill-rule:evenodd;clip-rule:evenodd;fill:#838383;stroke:#000000;stroke-width:0;stroke-linecap:square;stroke-miterlimit:10;"/>
  <path d="M331.085,207.134c2.489,2.363,8.529,2.449,10.97,2.057  c0.229,0.229,0.458,0.458,0.687,0.687c-5.127,0-10.206,0.041-14.398-2.743c0.357-0.728,0.463-0.511,0.685-1.371  c0.229,0.229,0.457,0.457,0.686,0.686c0-0.457,0-0.914,0-1.371C330.17,205.763,330.628,206.449,331.085,207.134" id="path143" style="fill-rule:evenodd;clip-rule:evenodd;"/>
  <path d="M333.142,212.62c2.39,0.115,4.727,0.924,6.856,2.057  c-4.57-0.103-10.565-0.133-10.285-6.17C330.427,210.571,331.731,211.385,333.142,212.62" id="path145" style="fill-rule:evenodd;clip-rule:evenodd;"/>
  <path d="  M401.706,212.62c0.434,1.379,0.914,2.743,1.371,4.114c-0.229-0.914-0.458-1.828-0.687-2.742c2.08,1.633,3.816,3.729,4.801,6.171  c-1.145-0.613-2.404-1.263-3.429-2.058c1.636,1.708,4.532,2.715,6.855,4.114c-0.457,0-0.913,0-1.37,0  c1.08,1.499,0.98,1.413,1.37,2.742c-2.435-1.774-10.725-7.906-12.341-7.543c2.232,2.472,6.194,3.42,6.171,6.857  c-1.34-1.964-3.171-3.124-5.485-3.429c0.686,0.686,1.372,1.372,2.058,2.058c-5.326-1.996-6.306-5.806-7.543-10.971  c1.536,0.955,2.819,2.849,3.429,4.8c0-0.686,0-1.372,0-2.058c0.649,0.589,1.962,1.139,2.742,2.058  c0.84-2.653-1.207-4.399-2.742-6.856C398.455,210.875,400.165,211.633,401.706,212.62" id="path147" style="fill-rule:evenodd;clip-rule:evenodd;fill:#ABABAB;stroke:#000000;stroke-width:0;stroke-linecap:square;stroke-miterlimit:10;"/>
  <path d="  M322.172,228.39c0.169,1.763,0.12,3.258-0.687,4.799c-3.37-7.211-6.538-11.536-2.742-19.884  C320.331,218.468,321.576,223.035,322.172,228.39" id="path149" style="fill-rule:evenodd;clip-rule:evenodd;fill:#838383;stroke:#000000;stroke-width:0;stroke-linecap:square;stroke-miterlimit:10;"/>
  <path d="M404.448,219.476c-1.164,0.496-3.292-1.306-4.114-3.428  C401.601,217.363,403.111,218.258,404.448,219.476" id="path151" style="fill-rule:evenodd;clip-rule:evenodd;"/>
  <path d="M338.627,218.791c0.914,0,1.828,0,2.742,0  c-1.747,2.599-7.021,0.555-9.6-1.372c0.229-0.229,0.458-0.456,0.687-0.685C334.359,217.873,336.417,218.557,338.627,218.791" id="path153" style="fill-rule:evenodd;clip-rule:evenodd;"/>
  <path d="  M359.882,229.075c1.104,2.201,2.003,4.507,2.742,6.856c-4.543,1.354-7.364,7.796-8.913,11.656  c-0.362-8.174,1.833-17.363,5.485-24.683C359.757,224.926,359.985,226.985,359.882,229.075" id="path155" style="fill-rule:evenodd;clip-rule:evenodd;fill:#838383;stroke:#000000;stroke-width:0;stroke-linecap:square;stroke-miterlimit:10;"/>
  <path d="  M364.681,240.732c1.524,2.695,5.485,6.006,5.485,8.913c0,2.803-2.157,9.24,1.371,8.228c1.833,7.684,5.199,13.674-3.428,17.141  c-6.553,2.633-16.985,5.908-15.262-4.419c1.036-6.21-0.684-13.525,0.863-20.265C354.601,246.454,362.245,229.869,364.681,240.732" id="path157" style="fill-rule:evenodd;clip-rule:evenodd;fill:#838383;stroke:#000000;stroke-width:0;stroke-linecap:square;stroke-miterlimit:10;"/>
  <path d="M60.942,240.045c-0.457-0.229-0.914-0.457-1.371-0.686  C60.868,238.978,60.505,239.694,60.942,240.045" id="path159" style="fill-rule:evenodd;clip-rule:evenodd;fill:#ABABAB;"/>
  <path d="M32.145,240.045c-1.794,0.636-2.431,2.14-3.428,0  C30.024,239.596,31.988,240.023,32.145,240.045" id="path161" style="fill-rule:evenodd;clip-rule:evenodd;"/>
  <path d="  M76.711,242.789c-2.075,0.73-4.176,0.46-6.171-0.687C72.655,241.787,74.808,242.014,76.711,242.789" id="path163" style="fill-rule:evenodd;clip-rule:evenodd;fill:#B29E8B;stroke:#000000;stroke-width:0;stroke-linecap:square;stroke-miterlimit:10;"/>
  <path d="M363.995,242.789c2.407,2.357,4.947,11.451,2.058,13.712  C365.692,252.247,364.326,244.512,363.995,242.789" id="path165" style="fill-rule:evenodd;clip-rule:evenodd;"/>
  <path d="  M161.046,251.016c0.664,1.52,0.877,3.148,0.685,4.799c-1.903-1.139-3.961-1.823-6.171-2.057c0.257-2.987,1.684-5.786,4.114-7.542  C160.41,247.657,161.01,249.379,161.046,251.016" id="path167" style="fill-rule:evenodd;clip-rule:evenodd;fill:#838383;stroke:#000000;stroke-width:0;stroke-linecap:square;stroke-miterlimit:10;"/>
  <path d="M28.031,248.959c-0.229-0.457-0.457-0.915-0.685-1.372  C28.069,248.013,27.792,248.332,28.031,248.959" id="path169" style="fill-rule:evenodd;clip-rule:evenodd;fill:#ABABAB;"/>
  <path d="M30.088,252.387c0.668,1.904-0.648-1.229-0.686-1.371  C30.478,251.786,30.246,252.835,30.088,252.387" id="path171" style="fill-rule:evenodd;clip-rule:evenodd;fill:#ABABAB;"/>
  <path d="  M60.256,254.444c-6.658,3.792-21.252,8.813-27.425,0.686c11.461,3.482,20.451,1.902,30.854-3.428  C62.623,252.714,61.459,253.596,60.256,254.444" id="path173" style="fill-rule:evenodd;clip-rule:evenodd;fill:#838383;stroke:#000000;stroke-width:0;stroke-linecap:square;stroke-miterlimit:10;"/>
  <path d="  M160.36,256.5c5.397,5.131,6.759,14.21,7.542,21.255c-0.766-1.1-2.185-2.072-2.742-2.742c0.53,2.562,2.162,8.885,3.428,10.284  c0-0.686,0-1.371,0-2.057c3.832,7.664,10.392,19.971-1.47,24.283c-7.739,2.813-19.812,9.445-28.013,8.628  c1.176-3.245-3.007-5.194-6.171-6.171c1.982-0.848,2.581-1.966,4.114-2.742c-1.876-0.992-4.905,1.949-5.828,1.027  c-2.245-2.24-5.376-3.411-7.199-0.342c-0.372-4.391,4.556-2.058,7.669-2.058c2.845,0,7.371-2.765,8.787-2.057  c7.058,3.528,13.2-4.597,16.798-8.913c3.216-3.858,4.85-4.809,5.65-10.412c0.733-5.133-4.257-7.006-5.65-11.186  C156.024,269.549,150.671,249.307,160.36,256.5" id="path175" style="fill-rule:evenodd;clip-rule:evenodd;fill:#838383;stroke:#000000;stroke-width:0;stroke-linecap:square;stroke-miterlimit:10;"/>
  <path d="M346.169,262.671c1.104,1.324-3.43-0.509-5.485-0.686  c-4.067-0.35-8.058,1.441-11.656-0.686C333.769,259.227,341.226,261.573,346.169,262.671" id="path177" style="fill-rule:evenodd;clip-rule:evenodd;"/>
  <path d="M342.741,263.357c2.427,0.201,4.389,1.34,5.484,3.429  c-4.469-2.855-9.553-3.445-15.084-3.429C335.865,261.114,339.53,262.675,342.741,263.357" id="path179" style="fill-rule:evenodd;clip-rule:evenodd;"/>
  <path d="M346.169,266.786c0.183,0.729-9.51,0-13.027,0  C336.068,265.028,342.303,265.037,346.169,266.786" id="path181" style="fill-rule:evenodd;clip-rule:evenodd;"/>
  <path d="M344.111,268.157c0.786,0.594,1.402,0.22,1.372,1.371  c-4.637-1.602-12.566-0.031-15.771-2.057C334.8,268.135,338.9,266.701,344.111,268.157" id="path183" style="fill-rule:evenodd;clip-rule:evenodd;"/>
  <path d="M338.627,271.584c-0.455,1.085-4.453,0.687-7.542,0.687  C333.537,271.684,336.107,271.446,338.627,271.584" id="path185" style="fill-rule:evenodd;clip-rule:evenodd;"/>
  <path d="  M118.536,292.84c6.207,6.415-1.65,8.051-5.511,3.225C107.632,289.323,113.413,288.74,118.536,292.84" id="path187" style="fill-rule:evenodd;clip-rule:evenodd;fill:#FFFFFF;stroke:#000000;stroke-width:0;stroke-linecap:square;stroke-miterlimit:10;"/>
  <path d="  M353.025,291.468c0.187,4.795-11.667,10.375-13.027,6.171C338.477,292.937,350.595,290.131,353.025,291.468" id="path189" style="fill-rule:evenodd;clip-rule:evenodd;fill:#FFFFFF;stroke:#000000;stroke-width:0;stroke-linecap:square;stroke-miterlimit:10;"/>
  <path d="  M316.687,292.84c1.467,0.965,2.649,2.574,3.428,4.113C311.099,300.369,304.812,289.457,316.687,292.84" id="path191" style="fill-rule:evenodd;clip-rule:evenodd;fill:#FFFFFF;stroke:#000000;stroke-width:0;stroke-linecap:square;stroke-miterlimit:10;"/>
  <path d="  M332.456,294.21c9.85,5.012-2.824,7.271-7.542,4.801C317.491,295.125,327.082,291.098,332.456,294.21" id="path193" style="fill-rule:evenodd;clip-rule:evenodd;fill:#FFFFFF;stroke:#000000;stroke-width:0;stroke-linecap:square;stroke-miterlimit:10;"/>
  <path d="  M152.818,297.639c-1.648,3.291-9.799,8.367-12.341,4.799C137.368,298.074,149.565,296.431,152.818,297.639" id="path195" style="fill-rule:evenodd;clip-rule:evenodd;fill:#FFFFFF;stroke:#000000;stroke-width:0;stroke-linecap:square;stroke-miterlimit:10;"/>
  <path d="  M134.991,299.011c9.375,4.352-6.675,5.773-10.589,4.469c-4.553-1.518-1.791-4.107,0.99-5.498  C127.64,296.858,132.51,298.441,134.991,299.011" id="path197" style="fill-rule:evenodd;clip-rule:evenodd;fill:#FFFFFF;stroke:#000000;stroke-width:0;stroke-linecap:square;stroke-miterlimit:10;"/>
  <path d="  M130.877,309.295c-2.083,1.283-5.374,7.286-7.542,3.428C120.92,308.425,127.69,306.622,130.877,309.295" id="path199" style="fill-rule:evenodd;clip-rule:evenodd;fill:#FFFFFF;stroke:#000000;stroke-width:0;stroke-linecap:square;stroke-miterlimit:10;"/>
  <path d="  M135.677,312.723c6.347,0.878-0.383,5.102-4.8,3.429C123.792,313.468,131.458,310.001,135.677,312.723" id="path201" style="fill-rule:evenodd;clip-rule:evenodd;fill:#FFFFFF;stroke:#000000;stroke-width:0;stroke-linecap:square;stroke-miterlimit:10;"/>
  <path d="  M138.419,141.313c0.301-2.711,3.144-12.263,0.686-14.398c-2.272-1.974-8.547,2.243-11.656,0.686  c0.686-0.686,1.371-1.371,2.057-2.057c-1.57,1.263-11.612,3.386-9.256,1.028c4.067-4.07,10.128-4.175,14.03-9.053  c2.058-2.572-10.594-0.825-12.52,0.33c-4.301,2.581-13.998,1.522-15.566,6.323c1.551-0.162,3.274,0.318,4.799,0  c-0.229,0.229-0.457,0.457-0.686,0.686c1.142,0.03,2.286-0.016,3.428,0c-1.902,1.625-6.029,1.708-8.914,0.686  c5.515,4.136,9.189,3.022,14.398,5.485c-4.969,0.331-10.315,2.998-13.027-2.742c0.457,0.229,0.914,0.457,1.371,0.685  c-0.806-0.913-2.745-2.126-3.428-2.743c-16.997,12.346,33.813,51.309,44.567,57.594c1.172-8.306-6.997-11.568-8.228-19.197  c2.939,1.944,5.283,7.339,8.228,10.284c-1.422-5.772-6.805-9.545-8.228-15.771C139.167,153.406,140.222,146.904,138.419,141.313" id="path203" style="fill-rule:evenodd;clip-rule:evenodd;fill:#838383;stroke:#000000;stroke-width:0;stroke-linecap:square;stroke-miterlimit:10;"/>
  <path d="M334.513,133.086c-2.454,3.311-3.794,8.27-7.542,10.285  c0.856-1.429,1.49-2.776,2.742-4.114c-2.105,1.539-4.148,3.554-6.171,4.8c3.82-3.247,7.662-7.402,10.971-11.656  C336.108,132.208,334.575,132.641,334.513,133.086" id="path205" style="fill-rule:evenodd;clip-rule:evenodd;"/>
  <path d="M324.229,139.942c-1.562,3.577-6.659,9.675-10.971,9.599  c4.898-1.744,8.767-8.508,12.342-11.656C325.143,138.571,324.686,139.257,324.229,139.942" id="path207" style="fill-rule:evenodd;clip-rule:evenodd;"/>
  <path d="M311.2,149.541c-0.921,0.907-1.828,1.829-2.742,2.743  c-0.229-0.229-0.456-0.457-0.685-0.686C308.921,149.552,310.51,146.838,311.2,149.541" id="path209" style="fill-rule:evenodd;clip-rule:evenodd;"/>
  <path d="M139.791,129.658c4.942-0.779,9.228-5.599,13.059-8.501  c2.497-1.892,9.656-9.567,12.903-9.272c14.651,1.332,29.301,2.664,43.952,3.996c2.099,0.191,7.703-0.479,8.669,1.694  c3.005,6.761,6.01,13.521,9.016,20.282c3.393,7.634,21.777,5.501,29.297,6.261c13.216,1.335,26.432,2.67,39.647,4.005  c2.274,0.229,6.836-4.263,8.605-5.46c7.044-4.768,14.087-9.536,21.131-14.304c9.079-6.146,17.533-11.473,27.317-16.365  c9.493-4.747,21.974-14.22,33.235-10.447c-7.752,11.07-18.422,20.331-27.301,30.642c-8.826,10.25-15.141,13.577-27.349,19.74  c-16.081,8.118-32.162,16.237-48.244,24.355c-10.162,5.131-26.146-0.324-37.079-1.502c-4.057-0.437-10.138,0.408-12.932-2.85  c-5.938-6.929-11.877-13.857-17.815-20.785c-2.871-3.35-0.217-12.39-3.242-14.251c-5.973-3.675-11.634-6.619-18.034-9.482  c-3.036-1.358-14.346-8.656-17.31-6.814c-7.54,4.687-15.08,9.374-22.619,14.061c-4.403,2.737-9.638,1.537-9.108,7.358  c0.781,8.596,1.563,17.191,2.344,25.787c0.132,1.446,0.13,2.909,0.085,4.36C136.111,161.915,138.917,143.625,139.791,129.658" id="path211" style="fill-rule:evenodd;clip-rule:evenodd;fill:#ABABAB;"/>
  <path d="M371.537,117.316c0.911,3.483-8.868,23.272-12.685,27.083  c-3.58,3.576-4.891,9.347-7.884,13.369c-3.342,4.491-7.692,8.683-11.313,13.027c-6.928,8.313-18.576,17.909-27.77,23.654  c-10.099,6.313-22.761,7.611-34.281,9.257c-23.075,3.296-50.828,7.91-73.364-1.371c-9.624-3.964-1.859-17.904,0-26.055  c2.919-12.804,5.295-25.729,8.914-38.396c2.713,14.577,17.328,25.926,30.854,29.482c16.128,4.241,29.452,0.993,45.53-0.793  c9.454-1.05,15.711-5.881,23.746-10.826c6.043-3.719,12.796-6.378,18.158-10.463C336.423,141.491,365.17,114.268,371.537,117.316" id="path213" style="fill-rule:evenodd;clip-rule:evenodd;fill:#838383;"/>
  <path d="M139.791,140.627c3.458,9.537-2.195,23.034,8.914,29.482  c-1.228-11.666-6.277-26.923,0.686-37.367c6.565-9.847,19.502-16.081,31.007-17.04c8.548-0.712,29.593,0.347,33.1,10.869  c1.95,5.852,0.239,11.106,3.238,17.103c2.606,5.212,5.876,9.552,10.132,13.408c18.025,16.327,43.109,10.549,64.45,7.885  c5.502-0.687,10.543-4.519,15.281-7.243c4.991-2.87,14.165-10.926,20.029-10.926c4.418,0,11.745-8.364,15.084-10.97  c5.239-4.089,10.58-8.074,15.687-12.33c5.237-4.364,10.075-5.558,15.51-8.925c5.219-3.233,8.92-8.824,12.342-13.712  c-4.076-3.761-6.172-7.937-6.171-13.713c0.002-7.319-0.856-11.313-4.436-18.47c-2.875-5.75-7.134-7.438-12.647-10.588  c-5.937-3.393-12.41-8.576-19.255-10.023c-11.895-2.516-25.492,1.291-37.684,0.071c-9.419-0.942-22.781-8.944-31.91-5.899  c-8.098,2.701-17.784-2.578-26.016-1.207c-2.228,0.371-4.839-1.586-7.237-1.879c-2.321-0.284-2.649,1.86-5.143,1.028  c-2.83-0.944-7.408,0.407-9.941,0.343c-3.078-0.078-9.394,0.284-12.406-1.007c-7.801-3.343-9.847-0.736-9.091,6.821  c0.606,6.052-0.907,12.119-0.444,18.183c0.27,3.539,4.205,13.142,1.372,15.77c0.18-0.167-10.986,1.355-9.942,2.399  c-3.934-3.934-1.158-7.002-8.57-3.085c-1.646,0.87-2.115,3.258-4.114,4.113c-1.677,0.717-4.864-0.099-6.17,0.686  c-3.584,2.152-5.599,7.365-9.6,9.599c-7.461,4.167-8.602,11.234-14.169,17.42C144.321,119.596,141.025,130.134,139.791,140.627" id="path215" style="fill-rule:evenodd;clip-rule:evenodd;fill:#ABABAB;"/>
  <path d="M227.553,101.546c-0.336,4.364,0.29,17.02-4.114,19.198  c2.154-6.46,4.116-13.902,3.429-20.569C226.719,101.112,227.149,100.909,227.553,101.546" id="path217" style="fill-rule:evenodd;clip-rule:evenodd;"/>
  <path d="M230.981,104.975c0.901,4.823,1.351,8.562-2.057,12.341  c1.145-4.241,0.363-13.114,2.742-15.77C231.438,102.688,231.171,103.826,230.981,104.975" id="path219" style="fill-rule:evenodd;clip-rule:evenodd;"/>
  <path d="M233.038,117.316c-0.523,3.054-1.623,6.138-2.743,8.913  c-1.348-3.843,1.497-6.921,2.057-10.284C232.58,116.402,232.81,116.859,233.038,117.316" id="path221" style="fill-rule:evenodd;clip-rule:evenodd;"/>
  <path d="M317.371,91.947c1.936,2.59,1.777,6.676-0.685,8.914  c0.705-4.278-0.049-7.471-0.686-11.656C317.432,90.065,316.943,90.763,317.371,91.947" id="path223" style="fill-rule:evenodd;clip-rule:evenodd;"/>
  <path d="M315.314,93.319c0.712,3.356-1.728,9.892-4.114,11.656  c2.44-4.908,1.409-9.301,2.744-13.713C314.633,91.876,314.821,92.568,315.314,93.319" id="path225" style="fill-rule:evenodd;clip-rule:evenodd;"/>
  <path d="M312.572,93.319c0.326,2.521,0.109,4.799-1.372,6.171  c0.801-2.197,0.701-4.682,0-6.857C312.195,92.475,311.881,92.958,312.572,93.319" id="path227" style="fill-rule:evenodd;clip-rule:evenodd;"/>
  <path d="M345.483,74.121c2.984,5.34,8.178,6.805,12.341,10.97  c-0.412-0.785-0.734-1.236-1.371-2.057c3.904,1.199,6.949,4.877,9.6,8.228c-1.201,0.109-1.175-0.267-2.058-0.686  c-1.778,0.517-0.464,1.118-3.428,0c-1.21,1.618-1.36,0.678-2.743,2.057c-2.424-1.074-4.358-1.093-3.428,2.057  c-3.844-1.98-9.177-17.39-11.655-21.94C343.894,72.889,344.477,73.512,345.483,74.121" id="path229" style="fill-rule:evenodd;clip-rule:evenodd;"/>
  <path d="  M351.654,81.663c2.411,3.106,8.139,6.069,10.284,6.17c0.457,0.458,0.914,0.915,1.371,1.372c-0.939,0.416-3.821,1.333-4.113,1.371  c-1.123-0.356-4.183,0.962-4.8,0.686c-3.628-1.625-4.367-9.163-6.171-12.341C349.654,79.573,350.556,80.542,351.654,81.663" id="path231" style="fill-rule:evenodd;clip-rule:evenodd;fill:#838383;stroke:#000000;stroke-width:0;stroke-linecap:square;stroke-miterlimit:10;"/>
  <path d="  M285.832,43.267c-23.06-13.785-51.241-8.655-76.106-6.171c6.015,4.517,14.146-0.074,19.199,3.429  c-0.138-2.482,4.738-1.504,8.228-1.372c-0.131-0.564-0.56-0.646-0.687-1.371c4.692,2.473,11.572,3.328,17.827,2.743  c-0.457-0.457-0.915-0.915-1.372-1.372c2.13,0.188,4.288,0.919,6.171,2.057c-0.914-0.457-1.828-0.914-2.742-1.371  c2.065,0.256,4.198,0.733,6.171,1.371c-0.594-0.617-1.021-1.033-1.371-1.371c2.062,0.877,4.649,2.507,6.855,1.371  c-0.14-0.409-0.523-0.947-0.686-1.371C271.159,42.652,280.484,42.624,285.832,43.267" id="path233" style="fill-rule:evenodd;clip-rule:evenodd;fill:#838383;stroke:#000000;stroke-width:0;stroke-linecap:square;stroke-miterlimit:10;"/>
  <path d="M322.172,50.809c0.457,0.229,0.913,0.457,1.37,0.685c0-0.686,0-1.371,0-2.057  c2.577,1.942,5.756,2.666,8.914,2.743c-0.229-0.229-0.458-0.458-0.687-0.686c1.835,0.202,3.693,0.172,5.486,0.686  c-0.655-3.068,9.046,1.496,11.656,2.057c-5.874-1.651-11.36,0.975-17.143,0c-3.71-0.625-14.293-1.192-16.455-4.114  c2.866,0.579,2.808,0.477,4.8-0.686C320.8,49.895,321.486,50.352,322.172,50.809" id="path235" style="fill-rule:evenodd;clip-rule:evenodd;"/>
  <path d="M210.412,124.172c-10.248-3.397-19.209-9.322-30.651-7.034  c-3.158,0.631-30.065,8.88-22.829,13.205c-0.19,0.59-1.48-0.061,0,0.686c-5.538-1.627-9.44,4.317-8.228,8.228  c0.229-0.457,0.457-0.914,0.686-1.371c-0.323,1.314-0.259,2.788-0.686,4.114c0.457-0.686,0.914-1.372,1.371-2.057  c1.011,2.785-2.251,3.547-1.986,6.198c0.297,2.966,0.588,5.928,0.958,8.886c0.657,5.256,0.712,11.165,1.5,16.943  c1.625,11.91-4.144,21.357-9.832,31.396c-6.221,10.978-13.936,20.886-20.388,31.638c-7.067,11.778-8.174,20.878-0.42,30.411  c2.325,1.036,4.322,1.923,6.17,3.429c-3.534,0.063-6.71-2.09-8.913-4.799c0.776,2.979,2.898,5.262,5.485,6.855  c-0.743-0.185-2.564-0.021-4.114-0.686c1.071,1.35,1.333,2.746,2.742,4.114c-0.718-0.068-1.411,0.404-2.742,0  c0.338,2.105,0.097,4.459-0.686,6.171c0-0.457,0-0.915,0-1.372c-3.276,2.967-3.479,7.253-6.856,10.285  c4.524-0.582,7.983,2.585,10.285,6.171c0.471-2.563,1.615-4.971,3.428-6.856c0.901,1.707,0.165,3.811-1.372,5.484  c0.483,1.154,1.514,0.45,0,3.429c5.579-1.787,10.35-0.247,15.084,2.742c-0.311-2.857,0.012-6.867,2.742-7.541  c-1.972,6.848,0.461,4.011,5.485,3.428c1.059-0.123,6.996,1.049,7.542,0.686c2.083-1.384,0.559-6.93,2.743-5.485  c0.394-0.861,1.298-2.114,2.057-3.429c-0.015,0.685-0.004,1.373,0,2.058c2.966-8.068,0.867-11.042-3.686-17.871  c-1.566-2.35-1.643-16.434-7.285-8.183c-0.229-0.229-0.457-0.458-0.686-0.687c2.985-2.44,5.57-5.763,6.171-9.599  c-1.869,2.92-6.545,6.552-9.599,5.485c9.588-6.712,17.73-17.254,25.369-26.308c8.93-10.585,20.295-21.581,26.74-34.029  c6.238-12.049,7.917-26.841,10.208-40.012C207.476,151.683,217.581,129.189,210.412,124.172" id="path237" style="fill-rule:evenodd;clip-rule:evenodd;fill:#ABABAB;"/>
  <path d="M178.187,209.191c-1.786,8.162-8.018,14.073-13.713,19.884  c-4.864,4.962-11.633,13.079-17.141,16.456c1.388-6.902,13.118-15.414,16.884-22.005  C165.841,220.683,176.376,208.606,178.187,209.191" id="path239" style="fill-rule:evenodd;clip-rule:evenodd;"/>
  <path d="  M169.273,221.533c-3.746,4.494-7.222,8.541-11.656,12.342c3.069-3.507,6.82-7.193,8.228-11.655c2.317,0.78,3.586-1.688,4.114-4.114  c1.797-0.299,4.1-2.797,5.486-5.485C174.081,216.175,171.711,218.689,169.273,221.533" id="path241" style="fill-rule:evenodd;clip-rule:evenodd;fill:#838383;stroke:#000000;stroke-width:0;stroke-linecap:square;stroke-miterlimit:10;"/>
  <path d="M169.273,168.739c-1.138,14.785-6.936,26.507-15.77,38.396  c1.646-5.446,7.462-10.945,6.856-16.455c0.123,0.037,1.331,0.683,1.371,0.686c-0.166-1.547,0.331-3.286,0-4.8  c0.22,0.36,0.978,1.115,1.372,2.057c0.193-1.434,0.654-2.656,0.686-4.113c0.826,0.763,0.332-0.035,0.686,1.371  c1.525-1.909,1.871-4.427,1.371-6.855c0.229,0.229,0.458,0.456,0.686,0.685c1.084-3.335,2.831-8.284,1.371-11.655  C168.958,167.886,168.527,168.445,169.273,168.739" id="path243" style="fill-rule:evenodd;clip-rule:evenodd;"/>
  <path d="M128.135,275.699c-1.611,1.712-3.857,1.79-5.485,0  C124.579,276.336,126.646,275.876,128.135,275.699" id="path245" style="fill-rule:evenodd;clip-rule:evenodd;"/>
  <path d="M124.021,278.442c1.689,0.527,3.36,1.39,4.799,2.057  c-3.943,0.764-7.069-1.288-9.599-4.114c0.229-0.229,0.458-0.457,0.686-0.686C121.262,276.602,122.746,277.431,124.021,278.442" id="path247" style="fill-rule:evenodd;clip-rule:evenodd;"/>
  <path d="M147.333,269.528c-1.875,0.747-3.14,1.786-4.114,0.686  c2.051,0.103,3.918-0.623,5.485-2.057C148.247,268.614,147.79,269.071,147.333,269.528" id="path249" style="fill-rule:evenodd;clip-rule:evenodd;"/>
  <path d="M150.761,273.641c-1.983,2.261-6.23,4.14-9.6,4.801  c1.091-0.857,3.662-2.163,5.485-2.743c-2.265,0.452-4.553,0.696-6.856,0.686C143.473,275.748,147.134,274.467,150.761,273.641" id="path251" style="fill-rule:evenodd;clip-rule:evenodd;"/>
  <path d="M150.761,276.384c-3.341,2.831-8.011,5.065-12.342,5.484  C141.902,279.083,147.023,278.575,150.761,276.384" id="path253" style="fill-rule:evenodd;clip-rule:evenodd;"/>
  <path d="M55.457,78.92c-0.326,1.229,0,2.831,0,4.114  c6.26-0.835,11.441-2.865,17.827-1.372c-4.271-2.634-11.881-1.908-16.456,0c2.3-3.345,7.55-3.77,11.656-3.428  C64.248,76.066,59.947,79.172,55.457,78.92" id="path255" style="fill-rule:evenodd;clip-rule:evenodd;"/>
  <path d="M102.766,116.63c5.901-3.182,8.672-16.843,5.486-22.626  c0.317,2.616,0.495,5.63-2.057,6.171c1.815,3.229,0.874,6.284-0.686,9.6c-0.885-3.216,0.819-8.669-3.428-8.914  c1.673,3.118,2.338,6.596,2.057,10.285c0.046-3.462-0.469-7.362-4.114-8.228c0.229,0.286,1.111,0.993,1.371,1.371  C101.945,106.767,104.086,112.31,102.766,116.63" id="path257" style="fill-rule:evenodd;clip-rule:evenodd;"/>
</svg>
