<?xml version="1.0" encoding="UTF-8" standalone="no"?>
<!-- Created with Inkscape (http://www.inkscape.org/) --><svg height="128.00000px" id="svg2" inkscape:export-filename="/home/nicu/Desktop/goat.png" inkscape:export-xdpi="90.000000" inkscape:export-ydpi="90.000000" inkscape:version="0.41+cvs" sodipodi:docbase="/home/nicu/Desktop" sodipodi:docname="goat.svg" sodipodi:version="0.32" width="128.00000px" xmlns="http://www.w3.org/2000/svg" xmlns:cc="http://web.resource.org/cc/" xmlns:dc="http://purl.org/dc/elements/1.1/" xmlns:inkscape="http://www.inkscape.org/namespaces/inkscape" xmlns:rdf="http://www.w3.org/1999/02/22-rdf-syntax-ns#" xmlns:sodipodi="http://inkscape.sourceforge.net/DTD/sodipodi-0.dtd" xmlns:svg="http://www.w3.org/2000/svg" xmlns:xlink="http://www.w3.org/1999/xlink">
  <metadata>
    <rdf:RDF xmlns:cc="http://web.resource.org/cc/" xmlns:dc="http://purl.org/dc/elements/1.1/" xmlns:rdf="http://www.w3.org/1999/02/22-rdf-syntax-ns#">
      <cc:Work rdf:about="">
        <dc:title>goat</dc:title>
        <dc:description></dc:description>
        <dc:subject>
          <rdf:Bag>
            <rdf:li>mammal</rdf:li>
            <rdf:li>animal</rdf:li>
          </rdf:Bag>
        </dc:subject>
        <dc:publisher>
          <cc:Agent rdf:about="http://www.openclipart.org/">
            <dc:title>Open Clip Art Library</dc:title>
          </cc:Agent>
        </dc:publisher>
        <dc:creator>
          <cc:Agent>
            <dc:title>Nicu Buculei</dc:title>
          </cc:Agent>
        </dc:creator>
        <dc:rights>
          <cc:Agent>
            <dc:title>Nicu Buculei</dc:title>
          </cc:Agent>
        </dc:rights>
        <dc:date></dc:date>
        <dc:format>image/svg+xml</dc:format>
        <dc:type rdf:resource="http://purl.org/dc/dcmitype/StillImage"/>
        <cc:license rdf:resource="http://web.resource.org/cc/PublicDomain"/>
        <dc:language>en</dc:language>
      </cc:Work>
      <cc:License rdf:about="http://web.resource.org/cc/PublicDomain">
        <cc:permits rdf:resource="http://web.resource.org/cc/Reproduction"/>
        <cc:permits rdf:resource="http://web.resource.org/cc/Distribution"/>
        <cc:permits rdf:resource="http://web.resource.org/cc/DerivativeWorks"/>
      </cc:License>
    </rdf:RDF>
  </metadata>
  <defs id="defs3">
    <linearGradient id="linearGradient13173" inkscape:collect="always">
      <stop id="stop13175" offset="0" style="stop-color:#e7b078;stop-opacity:1;"/>
      <stop id="stop13177" offset="1" style="stop-color:#e7b078;stop-opacity:0;"/>
    </linearGradient>
    <linearGradient id="linearGradient7792" inkscape:collect="always">
      <stop id="stop7794" offset="0" style="stop-color:#ffffff;stop-opacity:1;"/>
      <stop id="stop7796" offset="1" style="stop-color:#ffffff;stop-opacity:0;"/>
    </linearGradient>
    <linearGradient gradientTransform="matrix(0.170824,0.000000,0.000000,0.170824,8.922060,-25.44559)" gradientUnits="userSpaceOnUse" id="linearGradient13218" inkscape:collect="always" x1="407.50073" x2="400.89575" xlink:href="#linearGradient7792" y1="245.97594" y2="164.13118"/>
    <linearGradient gradientTransform="matrix(0.170824,0.000000,0.000000,0.170824,8.922060,-25.44559)" gradientUnits="userSpaceOnUse" id="linearGradient13221" inkscape:collect="always" x1="571.82660" x2="485.49860" xlink:href="#linearGradient7792" y1="350.69843" y2="270.17249"/>
    <linearGradient gradientTransform="matrix(0.170824,0.000000,0.000000,0.170824,8.922060,-25.44559)" gradientUnits="userSpaceOnUse" id="linearGradient13224" inkscape:collect="always" x1="156.97771" x2="246.78027" xlink:href="#linearGradient7792" y1="302.47543" y2="287.27264"/>
    <linearGradient gradientTransform="matrix(0.170824,0.000000,0.000000,0.170824,8.922060,-25.44559)" gradientUnits="userSpaceOnUse" id="linearGradient13227" inkscape:collect="always" x1="367.35037" x2="416.91986" xlink:href="#linearGradient7792" y1="360.53241" y2="260.58954"/>
    <linearGradient gradientTransform="matrix(0.170824,0.000000,0.000000,0.170824,8.922060,-25.44559)" gradientUnits="userSpaceOnUse" id="linearGradient13230" inkscape:collect="always" x1="128.74200" x2="168.33768" xlink:href="#linearGradient7792" y1="641.76855" y2="567.04138"/>
    <linearGradient gradientTransform="matrix(0.170824,0.000000,0.000000,0.170824,8.922060,-25.44559)" gradientUnits="userSpaceOnUse" id="linearGradient13233" inkscape:collect="always" x1="290.78638" x2="324.90097" xlink:href="#linearGradient7792" y1="530.49005" y2="460.63632"/>
    <linearGradient gradientTransform="matrix(0.170824,0.000000,0.000000,0.170824,8.922060,-25.44559)" gradientUnits="userSpaceOnUse" id="linearGradient13246" inkscape:collect="always" x1="305.00000" x2="297.37988" xlink:href="#linearGradient13173" y1="933.36218" y2="757.36218"/>
    <linearGradient gradientUnits="userSpaceOnUse" id="linearGradient14017" inkscape:collect="always" x1="45.536491" x2="32.411266" xlink:href="#linearGradient7792" y1="48.355782" y2="27.909006"/>
    <linearGradient gradientTransform="matrix(0.170824,0.000000,0.000000,0.170824,8.922060,-25.44559)" gradientUnits="userSpaceOnUse" id="linearGradient14042" inkscape:collect="always" x1="305.00000" x2="297.37988" xlink:href="#linearGradient13173" y1="933.36218" y2="757.36218"/>
    <linearGradient gradientTransform="matrix(0.170824,0.000000,0.000000,0.170824,8.922060,-25.44559)" gradientUnits="userSpaceOnUse" id="linearGradient14044" inkscape:collect="always" x1="290.78638" x2="324.90097" xlink:href="#linearGradient7792" y1="530.49005" y2="460.63632"/>
    <linearGradient gradientTransform="matrix(0.170824,0.000000,0.000000,0.170824,8.922060,-25.44559)" gradientUnits="userSpaceOnUse" id="linearGradient14046" inkscape:collect="always" x1="128.74200" x2="168.33768" xlink:href="#linearGradient7792" y1="641.76855" y2="567.04138"/>
    <linearGradient gradientTransform="matrix(0.170824,0.000000,0.000000,0.170824,8.922060,-25.44559)" gradientUnits="userSpaceOnUse" id="linearGradient14048" inkscape:collect="always" x1="367.35037" x2="416.91986" xlink:href="#linearGradient7792" y1="360.53241" y2="260.58954"/>
    <linearGradient gradientTransform="matrix(0.170824,0.000000,0.000000,0.170824,8.922060,-25.44559)" gradientUnits="userSpaceOnUse" id="linearGradient14050" inkscape:collect="always" x1="156.97771" x2="246.78027" xlink:href="#linearGradient7792" y1="302.47543" y2="287.27264"/>
    <linearGradient gradientTransform="matrix(0.170824,0.000000,0.000000,0.170824,8.922060,-25.44559)" gradientUnits="userSpaceOnUse" id="linearGradient14052" inkscape:collect="always" x1="571.82660" x2="485.49860" xlink:href="#linearGradient7792" y1="350.69843" y2="270.17249"/>
    <linearGradient gradientTransform="matrix(0.170824,0.000000,0.000000,0.170824,8.922060,-25.44559)" gradientUnits="userSpaceOnUse" id="linearGradient14054" inkscape:collect="always" x1="407.50073" x2="400.89575" xlink:href="#linearGradient7792" y1="245.97594" y2="164.13118"/>
    <linearGradient gradientUnits="userSpaceOnUse" id="linearGradient14056" inkscape:collect="always" x1="45.536491" x2="32.411266" xlink:href="#linearGradient7792" y1="48.355782" y2="27.909006"/>
    <linearGradient gradientUnits="userSpaceOnUse" id="linearGradient1342" inkscape:collect="always" x1="103.69408" x2="105.36873" xlink:href="#linearGradient7792" y1="40.248547" y2="57.798840"/>
    <linearGradient gradientTransform="matrix(0.170824,0.000000,0.000000,0.170824,3.922060,-25.44559)" gradientUnits="userSpaceOnUse" id="linearGradient1351" inkscape:collect="always" x1="571.82660" x2="485.49860" xlink:href="#linearGradient7792" y1="350.69843" y2="270.17249"/>
    <linearGradient gradientTransform="matrix(0.170824,0.000000,0.000000,0.170824,3.922060,-25.44559)" gradientUnits="userSpaceOnUse" id="linearGradient1354" inkscape:collect="always" x1="156.97771" x2="246.78027" xlink:href="#linearGradient7792" y1="302.47543" y2="287.27264"/>
    <linearGradient gradientTransform="matrix(0.170824,0.000000,0.000000,0.170824,3.922060,-25.44559)" gradientUnits="userSpaceOnUse" id="linearGradient1360" inkscape:collect="always" x1="128.74200" x2="168.33768" xlink:href="#linearGradient7792" y1="641.76855" y2="567.04138"/>
    <linearGradient gradientTransform="matrix(0.170824,0.000000,0.000000,0.170824,3.922060,-25.44559)" gradientUnits="userSpaceOnUse" id="linearGradient1363" inkscape:collect="always" x1="290.78638" x2="324.90097" xlink:href="#linearGradient7792" y1="530.49005" y2="460.63632"/>
    <linearGradient gradientTransform="matrix(0.170824,0.000000,0.000000,0.170824,3.922060,-25.44559)" gradientUnits="userSpaceOnUse" id="linearGradient1376" inkscape:collect="always" x1="305.00000" x2="297.37988" xlink:href="#linearGradient13173" y1="933.36218" y2="757.36218"/>
    <linearGradient gradientUnits="userSpaceOnUse" id="linearGradient3240" inkscape:collect="always" x1="51.897430" x2="71.384621" xlink:href="#linearGradient13173" y1="-9.0476794e-07" y2="18.461538"/>
    <linearGradient gradientTransform="matrix(0.170824,0.000000,0.000000,0.170824,3.922060,-25.44559)" gradientUnits="userSpaceOnUse" id="linearGradient3263" inkscape:collect="always" x1="305.00000" x2="297.37988" xlink:href="#linearGradient13173" y1="933.36218" y2="757.36218"/>
    <linearGradient gradientTransform="matrix(0.170824,0.000000,0.000000,0.170824,3.922060,-25.44559)" gradientUnits="userSpaceOnUse" id="linearGradient3265" inkscape:collect="always" x1="290.78638" x2="324.90097" xlink:href="#linearGradient7792" y1="530.49005" y2="460.63632"/>
    <linearGradient gradientTransform="matrix(0.170824,0.000000,0.000000,0.170824,3.922060,-25.44559)" gradientUnits="userSpaceOnUse" id="linearGradient3267" inkscape:collect="always" x1="128.74200" x2="168.33768" xlink:href="#linearGradient7792" y1="641.76855" y2="567.04138"/>
    <linearGradient gradientTransform="matrix(0.170824,0.000000,0.000000,0.170824,3.922060,-25.44559)" gradientUnits="userSpaceOnUse" id="linearGradient3269" inkscape:collect="always" x1="156.97771" x2="246.78027" xlink:href="#linearGradient7792" y1="302.47543" y2="287.27264"/>
    <linearGradient gradientTransform="matrix(0.170824,0.000000,0.000000,0.170824,3.922060,-25.44559)" gradientUnits="userSpaceOnUse" id="linearGradient3271" inkscape:collect="always" x1="571.82660" x2="485.49860" xlink:href="#linearGradient7792" y1="350.69843" y2="270.17249"/>
    <linearGradient gradientUnits="userSpaceOnUse" id="linearGradient3273" inkscape:collect="always" x1="103.69408" x2="105.36873" xlink:href="#linearGradient7792" y1="40.248547" y2="57.798840"/>
    <linearGradient gradientUnits="userSpaceOnUse" id="linearGradient3275" inkscape:collect="always" x1="51.897430" x2="71.384621" xlink:href="#linearGradient13173" y1="-9.0476794e-07" y2="18.461538"/>
  </defs>
  <sodipodi:namedview bordercolor="#666666" borderopacity="1.0" id="base" inkscape:current-layer="layer1" inkscape:cx="64.000000" inkscape:cy="64.000000" inkscape:document-units="px" inkscape:guide-bbox="true" inkscape:pageopacity="0.0" inkscape:pageshadow="2" inkscape:window-height="791" inkscape:window-width="1152" inkscape:window-x="0" inkscape:window-y="24" inkscape:zoom="1.0000000" pagecolor="#ffffff" showguides="true"/>
  <g id="layer1" inkscape:groupmode="layer" inkscape:label="Layer 1">
    <g id="g3242" transform="matrix(0.946891,0.000000,0.000000,0.946891,0.217346,5.794205)">
      <path d="M 37.343750,3.2187500 C 33.301031,12.834324 30.501868,26.046961 38.968750,34.125000 C 32.263853,44.077925 37.837502,58.123753 29.299302,67.427846 C 25.673440,69.199074 19.966069,78.234169 24.750000,82.781250 C 25.850514,87.109987 28.158163,89.996040 30.616344,91.254512 C 34.050203,94.153238 39.356188,94.557937 42.630761,96.317429 C 46.509217,103.65486 44.927061,112.41496 41.250000,119.50000 C 44.559959,121.54424 51.598184,116.00895 51.327279,117.44434 C 50.308404,121.93013 44.079984,131.89766 52.577436,126.23588 C 56.639310,125.62734 60.133972,120.41458 61.156250,118.28125 C 60.762783,128.56230 64.986915,118.61504 67.468750,114.53125 C 70.773617,105.35580 63.059601,97.751543 60.000000,89.781250 C 65.428615,83.505184 62.792884,92.099301 66.896432,94.020617 C 76.527083,99.120168 90.718548,94.477151 95.656250,84.812500 C 96.387609,76.557230 97.757108,68.336663 97.718750,60.031250 C 106.13562,59.618946 114.44170,57.690255 121.31250,52.593750 C 115.11961,44.845198 104.50701,37.597178 94.468750,42.781250 C 92.524329,37.854768 100.60880,37.570381 102.03125,33.375000 C 109.69521,23.823629 104.82256,11.066561 99.343750,1.7812500 C 98.710982,10.296239 98.543926,20.067096 90.407850,25.210185 C 87.132481,28.685256 84.270520,21.649588 80.250000,21.375000 C 77.444825,19.644931 77.020657,14.022897 72.356542,12.950431 C 63.858305,8.5842989 50.880701,12.429747 48.062500,22.062500 C 41.757869,14.890320 41.441006,5.0861533 40.093750,-3.8750000 C 39.177083,-1.5104167 38.260417,0.85416667 37.343750,3.2187500 z " id="path2437" style="fill:#000000;fill-opacity:1.0000000;fill-rule:evenodd;stroke:none;stroke-width:1.0000000px;stroke-linecap:butt;stroke-linejoin:miter;stroke-opacity:1.0000000"/>
      <path d="M 39.213195,3.9396809 C 39.549301,14.983166 45.071044,21.849332 48.864240,26.266726 C 51.416998,29.239559 43.518238,35.357341 40.797695,33.180906 C 32.875196,26.842907 34.603742,12.438363 39.213195,3.9396809 z " id="path2144" sodipodi:nodetypes="cssc" style="fill:#9e4100;fill-opacity:1.0000000;fill-rule:evenodd;stroke:none;stroke-width:1.0000000px;stroke-linecap:butt;stroke-linejoin:miter;stroke-opacity:1.0000000"/>
      <path d="M 57.165379,87.752394 C 58.989956,97.403439 72.247617,106.93218 63.124739,118.02368 C 63.124739,113.99040 60.675966,110.53331 60.531919,106.21195 C 60.243829,109.38095 62.116421,121.76886 50.880876,124.79381 C 53.041557,119.89626 54.770102,114.27849 54.770102,107.65240 C 53.185604,111.97377 49.296377,118.16772 44.254785,117.44749 C 49.008284,107.79645 46.847603,99.153721 43.678603,93.824039 C 40.509604,88.494358 52.267835,92.649939 57.165379,87.752394 z " id="path2158" sodipodi:nodetypes="ccccccsc" style="fill:#ffffff;fill-opacity:1.0000000;fill-rule:evenodd;stroke:none;stroke-width:1.0000000px;stroke-linecap:butt;stroke-linejoin:miter;stroke-opacity:1.0000000"/>
      <path d="M 57.165379,87.752394 C 58.989956,97.403439 72.247617,106.93218 63.124739,118.02368 C 63.124739,113.99040 60.675966,110.53331 60.531919,106.21195 C 60.243829,109.38095 62.116421,121.76886 50.880876,124.79381 C 53.041557,119.89626 54.770102,114.27849 54.770102,107.65240 C 53.185604,111.97377 49.296377,118.16772 44.254785,117.44749 C 49.008284,107.79645 46.847603,99.153721 43.678603,93.824039 C 40.509604,88.494358 52.267835,92.649939 57.165379,87.752394 z " id="path13171" sodipodi:nodetypes="ccccccsc" style="fill:url(#linearGradient3263);fill-opacity:1.0000000;fill-rule:evenodd;stroke:none;stroke-width:1.0000000px;stroke-linecap:butt;stroke-linejoin:miter;stroke-opacity:1.0000000"/>
      <path d="M 59.858974,20.690705 C 48.059794,22.044668 44.363607,30.808378 40.171474,35.884615 C 36.542614,39.432721 37.185091,57.392023 35.312500,61.281250 C 33.439911,65.170477 23.080627,76.950731 27.843750,85.750000 C 30.791795,91.196139 37.617613,88.294758 41.218750,86.625000 C 40.851441,88.401751 35.632106,89.724143 33.187500,90.375000 C 34.406279,91.483100 40.292362,94.834497 47.062500,93.250000 C 57.577817,91.089317 63.570273,84.464862 65.875000,83.312500 C 66.019046,85.617227 65.171529,89.622465 67.156250,91.812500 C 71.333567,96.421953 88.470611,94.388839 93.656250,84.593750 C 93.822187,78.288162 96.129120,68.029350 95.750000,58.250000 C 103.30514,57.265106 111.03334,57.630315 118.03125,52.187500 C 111.56379,44.145720 102.28093,39.962476 93.000000,45.718750 C 91.885144,43.346141 92.966118,39.449752 90.930288,37.577724 C 89.219749,22.009638 72.344788,20.143501 59.858974,20.690705 z " id="path2154" sodipodi:nodetypes="ccssccccscccccc" style="fill:#e7b078;fill-opacity:1.0000000;fill-rule:evenodd;stroke:none;stroke-width:1.0000000px;stroke-linecap:butt;stroke-linejoin:miter;stroke-opacity:1.0000000"/>
      <path d="M 26.509942,81.727852 C 26.509942,81.727852 36.293997,75.688311 37.985068,73.151705 C 39.676140,70.615096 47.769123,64.817139 49.339404,59.139970 C 50.909685,53.462802 55.829247,44.195748 60.331368,40.737771 C 75.825441,28.837125 80.961647,34.023382 80.745014,45.249027 C 80.570219,54.306652 74.584684,72.910122 64.559045,75.567520 C 54.533409,78.224918 45.517198,88.648434 41.004838,86.801065 C 36.721334,88.615388 28.281164,92.401878 26.509942,81.727852 z " id="path8568" sodipodi:nodetypes="cssssscc" style="opacity:1.0000000;fill:#f7e5d3;fill-opacity:1.0000000;fill-rule:evenodd;stroke:none;stroke-width:1.0000000px;stroke-linecap:butt;stroke-linejoin:miter;stroke-opacity:1.0000000"/>
      <path d="M 100.57655,8.5491359 C 113.39660,33.468997 87.584764,41.479850 84.991946,41.767940 C 82.399128,42.056031 78.481909,36.953790 80.642590,34.360970 C 83.134119,31.371135 101.58487,25.690544 100.57655,8.5491359 z " id="path2142" sodipodi:nodetypes="cssc" style="fill:#9e4100;fill-opacity:1.0000000;fill-rule:evenodd;stroke:none;stroke-width:1.0000000px;stroke-linecap:butt;stroke-linejoin:miter;stroke-opacity:1.0000000"/>
      <path d="M 29.706195,70.632724 C 29.706195,70.632724 33.739466,74.089814 38.348921,72.649359 C 39.784343,72.200789 36.044194,81.724222 32.154968,82.300404 C 28.265741,82.876587 25.672923,82.588494 25.384832,79.995678 C 24.970298,77.915060 26.105058,73.081496 29.706195,70.632724 z " id="path2146" sodipodi:nodetypes="csscc" style="fill:#000100;fill-opacity:1.0000000;fill-rule:evenodd;stroke:none;stroke-width:1.0000000px;stroke-linecap:butt;stroke-linejoin:miter;stroke-opacity:1.0000000"/>
      <path d="M 66.833336,46.978448 C 65.347101,47.096284 63.754247,48.261192 63.235356,48.665335 C 62.761512,48.619942 62.278702,48.610417 61.788690,48.649320 C 57.998666,49.145610 53.880922,50.571456 52.179840,54.275835 C 50.838120,56.643154 50.393803,59.381343 50.557012,62.085695 C 51.292045,64.408182 53.784735,64.584181 55.873909,64.482569 C 61.420499,64.312145 66.871488,60.207347 67.388514,54.516057 C 67.630109,53.159629 67.437358,51.870946 67.372500,50.517708 C 67.907307,49.874213 69.724350,48.968816 70.618156,48.958939 C 69.933425,48.336394 67.349937,49.640046 66.427629,49.652911 C 66.314156,49.593295 66.206520,49.515411 66.091319,49.460734 C 66.040028,48.726948 68.381092,47.887296 69.582535,47.570994 C 67.267960,47.160112 65.663248,48.565498 64.911566,49.012321 C 64.754406,48.963441 64.596135,48.923868 64.436462,48.884203 C 64.429429,48.246476 65.654598,47.513342 67.570015,47.026492 C 67.335214,46.971413 67.087498,46.958297 66.833336,46.978448 z " id="path9328" style="fill:#000000;fill-opacity:1.0000000;fill-rule:evenodd;stroke:none;stroke-width:1.0000000px;stroke-linecap:butt;stroke-linejoin:miter;stroke-opacity:1.0000000"/>
      <path d="M 66.444122,50.672754 C 63.734100,48.687503 60.334568,49.490319 56.930785,50.904496 C 52.227768,52.858468 50.924082,60.254201 51.168967,61.845951 C 51.745149,65.591132 67.909584,64.701853 66.444122,50.672754 z " id="path2148" sodipodi:nodetypes="cssc" style="fill:#ffffff;fill-opacity:1.0000000;fill-rule:evenodd;stroke:none;stroke-width:1.0000000px;stroke-linecap:butt;stroke-linejoin:miter;stroke-opacity:1.0000000"/>
      <path d="M 58.174695,55.546339 C 55.886632,55.611869 53.618181,56.194409 51.726089,57.761713 C 51.236892,59.620804 51.076160,61.229594 51.170911,61.845474 C 51.631635,64.840174 62.195938,65.026161 65.722601,57.155537 C 65.667790,56.934062 65.489319,56.676680 65.285244,56.517901 C 63.220591,56.013741 60.689489,55.474316 58.174695,55.546339 z " id="path6268" sodipodi:nodetypes="ccsccc" style="fill:#009fff;fill-opacity:1.0000000;fill-rule:evenodd;stroke:none;stroke-width:1.0000000px;stroke-linecap:butt;stroke-linejoin:miter;stroke-opacity:1.0000000"/>
      <path d="M 56.786750,59.779571 C 55.059888,59.784143 53.104731,59.968021 51.389779,60.041146 C 51.343100,60.043136 51.088685,60.128561 51.043932,60.131517 C 50.931704,60.937934 51.082043,61.713967 51.133733,62.049952 C 51.466496,64.212905 57.175140,64.789843 61.569251,62.028978 C 61.533156,60.296507 59.357082,59.772767 56.786750,59.779571 z " id="path7029" sodipodi:nodetypes="cscscc" style="fill:#000000;fill-opacity:1.0000000;fill-rule:evenodd;stroke:none;stroke-width:1.0000000px;stroke-linecap:butt;stroke-linejoin:miter;stroke-opacity:1.0000000"/>
      <path d="M 55.607256,51.230240 C 52.577833,53.843407 52.184702,57.705343 51.930323,60.734766 C 51.900333,62.820020 56.856026,63.509811 58.798556,62.469170 C 60.741088,61.428527 64.764902,56.641577 65.181157,53.866533 C 62.059233,55.739688 58.243547,54.282788 55.607256,51.230240 z " id="path7032" sodipodi:nodetypes="ccscc" style="fill:url(#linearGradient3265);fill-opacity:1.0000000;fill-rule:evenodd;stroke:none;stroke-width:1.0000000px;stroke-linecap:butt;stroke-linejoin:miter;stroke-opacity:1.0000000"/>
      <path d="M 28.411824,70.794301 C 26.145538,72.736833 24.018004,77.662535 25.220523,80.298825 C 25.632753,81.202563 29.729969,82.518863 32.921270,81.131340 C 34.863801,79.951947 37.083836,75.303747 37.291965,74.332481 C 36.390075,74.401860 28.966833,74.401858 28.411824,70.794301 z " id="path7800" sodipodi:nodetypes="ccccc" style="fill:url(#linearGradient3267);fill-opacity:1.0000000;fill-rule:evenodd;stroke:none;stroke-width:1.0000000px;stroke-linecap:butt;stroke-linejoin:miter;stroke-opacity:1.0000000"/>
      <path d="M 40.219698,32.082829 C 33.757389,24.634062 35.569251,13.380385 38.468231,5.8108289 C 36.293997,18.071096 42.937491,29.425431 44.447377,29.908595 C 45.957261,30.391758 40.823654,31.297688 40.219698,32.082829 z " id="path10867" sodipodi:nodetypes="ccsc" style="fill:url(#linearGradient3269);fill-opacity:1.0000000;fill-rule:evenodd;stroke:none;stroke-width:1.0000000px;stroke-linecap:butt;stroke-linejoin:miter;stroke-opacity:1.0000000"/>
      <path d="M 100.82290,10.143206 C 101.07274,24.114436 88.265580,30.134305 81.898148,34.290613 C 80.535146,35.398007 80.433834,37.733759 82.367075,39.443934 C 85.192582,40.931042 104.68938,25.683499 100.82290,10.143206 z " id="path11635" sodipodi:nodetypes="cccc" style="fill:url(#linearGradient3271);fill-opacity:1.0000000;fill-rule:evenodd;stroke:none;stroke-width:1.0000000px;stroke-linecap:butt;stroke-linejoin:miter;stroke-opacity:1.0000000"/>
      <path d="M 94.717980,46.411246 C 99.653134,41.928869 112.57300,45.566542 116.01948,51.234226 C 113.20607,52.707914 100.74671,57.932810 95.923725,56.057206 C 94.578918,55.534226 98.603159,50.162452 94.717980,46.411246 z " id="path15617" sodipodi:nodetypes="ccsc" style="fill:url(#linearGradient3273);fill-opacity:1.0000000;fill-rule:evenodd;stroke:none;stroke-width:1.0000000px;stroke-linecap:butt;stroke-linejoin:miter;stroke-opacity:1.0000000"/>
      <path d="M 74.769231,24.102564 C 74.769231,24.102564 79.487180,20.205128 73.846154,16.205128 C 65.025641,8.4102565 43.589743,15.897436 50.666667,32.000000 C 53.128205,35.487179 53.333334,34.717949 54.564103,35.076923 C 51.179488,30.000000 53.538462,24.410256 53.538462,24.410256 C 53.538462,24.410256 52.307693,32.256410 60.512821,32.000000 C 55.487180,28.666667 57.025641,22.358974 57.025641,22.358974 C 57.025641,22.358974 56.410257,27.076923 59.487180,27.692308 C 59.179487,25.333333 59.153846,22.282051 63.179487,21.333333 C 65.974359,20.589743 69.948718,29.538462 74.769231,24.102564 z " id="path1382" sodipodi:nodetypes="cccccccccc" style="fill:#ffffff;fill-opacity:1.0000000;fill-rule:evenodd;stroke:none;stroke-width:1.0000000px;stroke-linecap:butt;stroke-linejoin:miter;stroke-opacity:1.0000000"/>
      <path d="M 74.769231,24.102564 C 74.769231,24.102564 79.487180,20.205128 73.846154,16.205128 C 65.025641,8.4102565 43.589743,15.897436 50.666667,32.000000 C 53.128205,35.487179 53.333334,34.717949 54.564103,35.076923 C 51.179488,30.000000 53.538462,24.410256 53.538462,24.410256 C 53.538462,24.410256 52.307693,32.256410 60.512821,32.000000 C 55.487180,28.666667 57.025641,22.358974 57.025641,22.358974 C 57.025641,22.358974 56.410257,27.076923 59.487180,27.692308 C 59.179487,25.333333 59.153846,22.282051 63.179487,21.333333 C 65.974359,20.589743 69.948718,29.538462 74.769231,24.102564 z " id="path3232" sodipodi:nodetypes="cccccccccc" style="fill:url(#linearGradient3275);fill-opacity:1.0000000;fill-rule:evenodd;stroke:none;stroke-width:1.0000000px;stroke-linecap:butt;stroke-linejoin:miter;stroke-opacity:1.0000000"/>
    </g>
  </g>
</svg>
