<?xml version="1.0" encoding="UTF-8" standalone="no"?>
<!-- Generator: Adobe Illustrator 12.0.0, SVG Export Plug-In . SVG Version: 6.00 Build 51448)  --><svg height="416.481" id="Layer_1" inkscape:version="0.42" sodipodi:docbase="F:\openclip\svg da inviare" sodipodi:docname="Stambecco Valdostano.svg" sodipodi:version="0.32" space="preserve" style="overflow:visible;enable-background:new 0 0 260.397 416.481;" version="1.1" viewBox="0 0 260.397 416.481" width="260.397" xmlns="http://www.w3.org/2000/svg" xmlns:cc="http://web.resource.org/cc/" xmlns:dc="http://purl.org/dc/elements/1.1/" xmlns:inkscape="http://www.inkscape.org/namespaces/inkscape" xmlns:rdf="http://www.w3.org/1999/02/22-rdf-syntax-ns#" xmlns:sodipodi="http://inkscape.sourceforge.net/DTD/sodipodi-0.dtd" xmlns:svg="http://www.w3.org/2000/svg">
  <metadata>
    <rdf:RDF xmlns:cc="http://web.resource.org/cc/" xmlns:dc="http://purl.org/dc/elements/1.1/" xmlns:rdf="http://www.w3.org/1999/02/22-rdf-syntax-ns#">
      <cc:Work rdf:about="">
        <dc:title>Stambecco valdostano</dc:title>
        <dc:description></dc:description>
        <dc:subject>
          <rdf:Bag>
            <rdf:li>mammal</rdf:li>
            <rdf:li>vincent</rdf:li>
            <rdf:li>aoste</rdf:li>
            <rdf:li>valle</rdf:li>
            <rdf:li>d'aosta</rdf:li>
            <rdf:li>saint</rdf:li>
          </rdf:Bag>
        </dc:subject>
        <dc:publisher>
          <cc:Agent rdf:about="http://www.openclipart.org/">
            <dc:title>Open Clip Art Library</dc:title>
          </cc:Agent>
        </dc:publisher>
        <dc:creator>
          <cc:Agent>
            <dc:title>Architetto Francesco Rollandin</dc:title>
          </cc:Agent>
        </dc:creator>
        <dc:rights>
          <cc:Agent>
            <dc:title>Architetto Francesco Rollandin</dc:title>
          </cc:Agent>
        </dc:rights>
        <dc:date></dc:date>
        <dc:format>image/svg+xml</dc:format>
        <dc:type rdf:resource="http://purl.org/dc/dcmitype/StillImage"/>
        <cc:license rdf:resource="http://web.resource.org/cc/PublicDomain"/>
        <dc:language>en</dc:language>
      </cc:Work>
      <cc:License rdf:about="http://web.resource.org/cc/PublicDomain">
        <cc:permits rdf:resource="http://web.resource.org/cc/Reproduction"/>
        <cc:permits rdf:resource="http://web.resource.org/cc/Distribution"/>
        <cc:permits rdf:resource="http://web.resource.org/cc/DerivativeWorks"/>
      </cc:License>
    </rdf:RDF>
  </metadata>
  <defs id="defs19"/>
  <sodipodi:namedview bordercolor="#666666" borderopacity="1.0" id="base" inkscape:current-layer="Layer_1" inkscape:cx="130.19850" inkscape:cy="208.24049" inkscape:pageopacity="0.0" inkscape:pageshadow="2" inkscape:window-height="510" inkscape:window-width="787" inkscape:window-x="110" inkscape:window-y="145" inkscape:zoom="0.86438520" pagecolor="#ffffff"/>
  <linearGradient gradientUnits="userSpaceOnUse" id="XMLID_2_" x1="-39.0205" x2="299.0852" y1="377.1265" y2="39.0207">
    <stop id="stop4" offset="0" style="stop-color:#FF7F00"/>
    <stop id="stop6" offset="1" style="stop-color:#FF0000"/>
  </linearGradient>
  <rect height="416.147" id="rect8" style="fill-rule:evenodd;clip-rule:evenodd;fill:url(#XMLID_2_);" width="260.064"/>
  <path d="M243.308,416.481c-2.229-2.973-4.458-5.945-6.687-8.918  c-1.566-2.088-4.585-8.128-7.061-8.917c-1.18-0.376-2.521,1.086-3.342,1.115c-1.036,0.037-2.682-0.833-3.716-1.115  c-5.531-1.507-9.284-2.226-14.118,0.744c-9.199,5.652-21.687-1.354-29.722-3.716c-5.354-1.574-9.489-3.081-13.746-5.203  c-2.749-1.37-3.158-2.852-5.944-3.344c-2.89-0.511-6.346,0-9.287,0c-12.1,0-21.911,3.223-33.066,4.459  c-5.708,0.633-9.167,3.276-15.232,2.602c-2.869-0.319-5.564-0.784-8.545-1.115c-3.648-0.405-5.739-0.135-8.545,0.743  c-4.897,1.532-11.382,0.896-17.089,0.744c-3.016-0.08-5.637-0.744-8.546-0.744c-2.741,0-4.52,1.066-6.686,2.23  c-1.209,0.649-0.93,0.997-2.974,1.485c-1.422,0.34-2.75,0.396-4.085,0.742c-1.557,0.402-6.5,0.928-7.616,2.045  c-1.792,1.791-5.673-0.35-7.616-0.558c-3.046-0.326-6.009,0.232-8.174,1.115c-5.065,2.065-10.104,2.886-15.232,4.086  c-2.176,0.51-5.021,0.901-5.944,3.344c-0.278,0.735,0.127,8.175,0.096,8.175c70.738,0,141.478,0,212.216,0  C222.865,416.481,233.087,416.481,243.308,416.481" id="path10" style="fill-rule:evenodd;clip-rule:evenodd;fill:#191919;"/>
  <g id="g12">
    <g id="g14">
      <path d="M259.469,286.993c-0.786-0.791-2.221-0.688-3.158-0.929    c-1.033-0.266-2.197-0.506-3.343-0.744c-0.958-0.199-1.934-0.53-2.972-0.741c-1.259-0.256-2.537-0.45-3.715-0.745    c-1.067-0.268-2.558-0.743-3.717-0.743c-0.583,0-1.835-0.94-2.396-1.232c-3.717-1.94-7.434-3.88-11.15-5.82    c-1.28-0.668-2.562-1.337-3.842-2.005c-0.98-0.512-1.48-1.787-2.077-2.683c-1.4-2.102-2.944-4.038-4.512-6.021    c-4.226-5.344-8.598-10.319-11.757-16.351c-1.553-2.962-3.245-5.207-5.366-7.819c-1.599-1.969-2.669-4.14-3.887-6.372    c-2.063-3.783-4.127-7.566-6.19-11.349c-0.545-0.999-3.09-1.769-4.072-2.292c-1.574-0.84-2.545-1.802-3.82-3.078    c0,0.158,0,0.317,0,0.476c0-1.055-1.994-3.039-2.873-3.097c-1.846-0.123-4.295,0.207-5.938-0.705    c-1.932-1.073-3.863-2.146-5.795-3.22c0-0.14,0-0.279,0-0.419c2.615-2.822,5.322-5.603,7.785-8.559    c1.698-2.038,3.396-4.076,5.095-6.113c0.823-0.989,1.726-1.69,1.726-2.986c0,0.281,0,0.562,0,0.842    c1.811-2.295,4.076-4.552,5.571-7.06c1.638-2.747,2.667-6.063,3.956-8.993c2.179-4.951,5.407-9.486,7.377-14.523    c4.963-12.684,10.166-25.208,15.509-37.738c4.991-11.707,11.248-22.915,16.983-34.27c0.981-1.944,1.964-3.888,2.945-5.832    c0.804-1.59,3.456-2.384,4.686-3.61c1.527-1.526,3.049-3.182,4.271-5.016c0.928-1.391,2.422-4.149,1.858-5.945    c0-0.248,0-0.496,0-0.743c-1.474,1.478-3.006,3.004-4.272,4.273c-1.236,1.238-2.746,1.633-4.644,2.043    c-0.495,0.107-2.769,0.947-3.344,0.372c-0.688-0.689,0.372-3.661,0.372-4.542c0-2.647,1.486-5.18,1.486-7.803    c0-2.591,1.113-5.403,1.113-8.009c0-2.754-0.322-5.824-0.983-8.477c-1.176-4.723-2.151-9.32-4.59-13.528    c-1.013-1.747-1.718-3.574-3.157-5.016c-1.437-1.438-2.787-3.162-4.272-4.645c1.986,4.965,4.458,10.353,4.458,15.784    c0,1.294,0.372,2.579,0.372,3.909c0,1.669,0,3.339,0,5.008c0,2.439-1.007,5.228-1.486,7.625    c-1.091,5.453-3.544,10.605-6.398,15.371c-3.012,5.026-5.58,10.355-9.763,14.54c-0.681,0.681-1.362,1.362-2.043,2.043    c0-5.927,1.436-11.829,0.445-17.765c-0.872-5.22-0.87-10.792-2.867-15.786c-1.053-2.633-1.978-5.365-3.44-7.802    c-0.719-1.197-1.362-2.513-2.234-3.603c-0.956-1.195-1.464-2.666-2.39-3.822c-3.58-4.475-7.676-8.398-11.726-12.45    c-1.343-1.342-2.968-2.377-4.538-3.424c2.932,4.394,5.648,8.774,8.174,13.376c1.15,2.097,1.666,4.633,2.415,6.874    c0.733,2.196,1.672,5.182,1.672,7.535c0,1.343,0.37,2.597,0.37,3.984c0,0.885,0.084,2.95,0.469,3.723    c0.586,1.174-0.035,2.529,0.551,3.702c0.545,1.091-0.051,3.071,0.096,4.279c0.627,5.13,0.455,10.817-0.742,15.606    c-0.832,3.327-1.473,6.667-2.602,10.032c-1.25,3.723-3.18,7.953-4.797,11.854c-0.851,2.053-1.701,4.105-2.553,6.158    c-0.544,1.313-2.309,2.513-2.309,3.954c0-0.139,0-0.277,0-0.416c-3.154,5.002-6.307,10.004-9.46,15.006    c-0.862,1.369-1.675,2.674-2.801,3.201c-0.228,0.106-0.429,0.373-0.558,0.373c-0.585,0-0.451-0.373-0.743-0.373    c-0.345,0-0.707,0.042-1.048,0.026c-0.021-0.611-0.444-0.345-0.738-0.771c-0.213-0.307-0.186-0.173-0.371-0.741    c-0.117-0.36-0.232-0.722-0.348-1.082c-0.659-2.051-1.318-4.102-1.978-6.152c-1.793-5.578-2.134-11.453-2.134-17.289    c0-1.706-0.371-3.174-0.371-4.83c0-1.619-0.743-3.257-0.743-4.831c0-1.475-0.813-3.03-1.115-4.458    c-0.14-0.658-0.37-1.56-0.37-2.23c0-0.825-0.744-1.404-0.744-2.229c0-1.083-0.862-2.396-1.303-3.403    c-0.916-2.092-1.831-4.185-2.746-6.277c-1.537-3.515-2.982-6.166-5.238-9.27c0,0.058,0,0.116,0,0.174    c-0.036-0.146-0.09-0.281-0.182-0.39c-2.541-3.024-5.081-6.048-7.621-9.072c3.35,5.001,4.746,10.259,6.316,15.977    c0.747,2.722,1.055,5.903,1.118,8.759c0.122,5.503,0.245,11.005,0.368,16.508c0-1.205,0-2.409,0-3.614    c0,3.226,0.477,5.76,1.186,8.954c0.563,2.533,1.126,5.067,1.689,7.6c0.126,0.57-0.472,1.069-0.841,0.516    c-0.679-1.018-1.356-2.035-2.034-3.053c0,0.55,0,1.101,0,1.651c0-2.039-0.75-2.877-1.852-4.675    c-2.247-3.67-4.494-7.341-6.741-11.011c-3.14-5.13-5.8-10.473-8.554-15.822c-0.393-0.76-0.772-1.525-1.155-2.29    c-0.514-1.026-0.712-2.475-1.575-3.337c-0.189-0.188-1.3-2.827-1.3-3.158c0-0.778-0.767-2.996-1.302-3.529    c-0.524-0.523-0.318-1.938-0.653-2.608c-0.374-0.747-0.563-1.497-0.922-2.215c-0.372-0.743-0.191-1.872-0.564-2.615    c-0.236-0.471-0.524-1.308-0.626-2.021c0.054,2.635,0.35,5.248,0.35,7.787c0,1.328,0.373,2.428,0.373,3.715    c0,1.1-0.022,2.93,0.467,3.909c0.977,1.951,0.391,4.57,1.209,6.594c1.421,3.516,2.843,7.033,4.264,10.549    c2.363,5.847,5.153,11.178,8.149,16.743c2.752,5.11,4.678,10.533,7.19,15.77c1.419,2.957,2.336,5.691,3.241,8.857    c0-0.55,0-1.101,0-1.651c0,2.443,1.183,4.292,2.188,6.535c0.774,1.729,1.55,3.457,2.324,5.186c0.126,0.28,0.173,0.707,0.502,0.707    c0.4,0,0.091,0.805,0.186,1.115c0.206,0.681,0.677,1.394,0.743,1.858c0.109,0.769,0,1.636,0,2.414    c0,1.638,0.179,3.396-0.743,4.644c-0.697,0.944-2.339,1.858-3.946,1.858c-0.1,0-0.174-0.001-0.259-0.002    c-0.253-0.27-2.39,0.002-2.736,0.002c-2.214,0-4.427,0-6.64,0c-2.729,0-6.223,0.6-8.895-0.016    c-1.563-0.36-3.127-0.721-4.689-1.082c-0.694-0.16-1.37-1.905-1.675-2.568c-2.672-5.817-5.345-11.633-8.007-17.454    c-1.845-4.037-3.611-7.974-5.857-11.793c-2.146-3.647-4.681-7.171-6.064-11.183c-3.263-9.462-6.429-18.811-10.418-27.987    c1.241,6.207,2.482,12.414,3.724,18.622c0.475,2.375,0.623,5.237,1.521,7.497c0.981,2.468,1.962,4.937,2.943,7.405    c4.935,12.417,9.784,24.834,14.443,37.357c0.229,0.614-3.73,0.46-4.24,0.46c-0.291,0-0.159-0.372-0.743-0.372    c-0.372,0-0.743,0-1.115,0c-0.722,0-1.997-0.541-2.786-0.745c-1.654-0.426-3.662-1.857-5.387-1.857    c-0.253,0-2.036-0.734-2.23-0.929c-0.615-0.619-1.981-0.495-2.601-1.114c-1.179-1.18-2.708-1.209-3.901-2.044    c-0.45-0.314-1.744-2.6-2.415-2.6c-0.506,0-2.264-2.56-2.787-3.344c-0.563-0.844-1.189-1.423-1.858-2.23    c-0.239-0.288-1.486-2.048-1.486-2.414c0-0.422-1.364-2.294-1.671-2.602c-0.376-0.377-0.864-2.043-1.115-2.043    c-0.396,0-1.739-4.497-2.043-4.831c0.028,1.181,0.743,2.673,0.743,3.901c0,1.408,0.369,3.15,0.743,4.273    c0.873,2.619,1.321,4.584,2.972,7.059c0.449,0.673,1.048,1.478,1.486,2.23c0.224,0.384,1.114,1.63,1.114,1.671    c0,1.117,2.438,2.99,2.974,3.53c1.177,1.187,1.833,1.833,3.158,3.158c1.167,1.167,2.293,1.716,3.9,2.788    c1.566,1.044,3.592,1.726,5.203,2.6c1.394,0.756,4.33,1.614,5.201,2.972c-0.999,0-3.036-0.381-3.715,0.373    c-1.011-1.12-3.377,0.167-4.652-0.469c-0.819-0.409-1.533-0.155-2.407-0.274c-0.888-0.121-1.45-0.371-2.415-0.371    c-1.639,0-3.471-0.781-5.015-1.115c-1.237-0.268-3.76-0.413-4.645-1.302c-1.146-1.152-2.97-1.174-4.272-2.042    c-0.526-0.351-4.085-2.832-4.085-3.901c0-0.289-1.488-1.201-1.488-1.858c0-0.686-1.084-1.86-1.486-2.416    c-0.777-1.074-1.37-3.224-2.415-4.273c-0.775-0.78-1.426-2.14-1.671-3.158c0,1.688,0.743,3.03,0.743,4.645    c0,0.518,0.743,1.668,0.743,1.857c0,0.752,0.133,1.705,0.371,2.417c-0.014-0.042,0.275,0.49,0.372,0.741    c0.118,0.305,0.233,0.817,0.371,1.115c0.304,0.656,0.812,1.924,1.301,2.415c0.986,0.992,1.486,2.371,2.416,3.531    c1.615,2.016,3.683,3.625,5.944,5.201c0.74,0.516,1.086,0.625,1.857,1.115c0.269,0.171,1.417,1.486,2.043,1.486    c1.445,0,3.232,1.082,4.645,1.486c1.66,0.475,3.587,1.115,5.386,1.115c0.251,0,2.436,0.392,2.601,0.557    c0.587,0.588,1.941,0.496,2.786,0.558c3.401,0.25,7.085,0.776,10.403,1.486c4.641,0.993,8.732,2.663,13.003,4.086    c2.212,0.737,4.343,1.177,6.687,1.858c1.513,0.44,2.938,1.115,4.645,1.115c1.508,0,3.273,1.115,4.83,1.115    c2.918,0,1.406,7.308,1.332,8.948c-0.065,1.429,0.67,2.822,1.118,4.164c0.48,1.441,0.63,2.926,0.862,4.429    c0.494,3.216-2.756,5.512-2.756,8.839c-1.822-0.363-2.211-0.723-3.543-2.057c-0.953-0.954-2.883-1.568-4.26-0.916    c-0.542,0.257,0.008,1.052-0.813,1.188c-0.48,0.08-1.346,0.411-1.82,0.289c-1.551-0.4-3.101-0.8-4.651-1.201    c-2.826-0.729-5.689-1.334-8.424-2.36c-1.912-0.717-3.823-1.434-5.735-2.151c-0.518-0.194-1.035-0.388-1.553-0.582    c-0.081-0.03-0.819,1.359-0.741,1.595c0.212,0.638,0.658,1.439,0.702,2.107c0.06,0.901-0.597,0.812,0.021,1.637    c1.006,1.343,2.705,1.466,3.323,3.008c0.596,1.488,2.109,1.864,3.501,2.614c0.461,0.249,1.343,0.521,1.7,0.916    c0.427,0.474,0.3,1.637,0.897,1.935c2.938,1.467,5.033,4.719,7.222,7.117c0.707,0.775,1.912,1.581,1.912,2.673    c0,1.026-0.168,1.483,0.55,2.201c0.44,0.44-0.061,1.713-0.157,2.299c-0.104,0.627-2.135,1.611-2.621,1.954    c-1.867,1.313-3.733,2.627-5.6,3.94c-2.359,1.66-4.561,3.498-6.804,5.313c-5.099,4.128-10.96,7.208-16.568,10.6    c-5.235,3.165-9.842,7.398-14.624,11.199c-1.805,1.435-3.555,2.494-5.574,3.639c-2.555,1.448-6.035,2.709-8.127,4.802    c-2.002,2.003-4.475,3.75-4.261,6.747c0.148,2.082,0.297,4.163,0.446,6.245c0.107,1.51-0.142,2.276,1.02,3.205    c0.995,0.796,2.112,2.148,3.391,2.403c0.954,0.19,4.461,0.296,5.057,1.011c0.609,0.73,0.29,3.755,0.366,4.75    c0.049,0.639,1.869,2.541,2.503,2.784c3.236,1.246,5.831,2.254,9.391,1.756c2.577-0.36,5.248-1.487,7.745-2.195    c5.45-1.544,11.167-4.01,16.865-4.199c4.564-0.152,9.128-0.304,13.692-0.456c2.81-0.094,5.409-0.514,8.059,0.413    c1.827,0.64,3.653,1.278,5.479,1.918c0.839,0.294,1.7,1.823,2.26,2.468c2.191,2.528,4.383,5.057,6.574,7.585    c0,0.268,0,0.535,0,0.802c0,1.046,1.51,2.891,1.997,3.815c1.843,3.5,3.685,6.999,5.526,10.499    c2.987,5.675,5.751,11.476,8.618,17.212c0.354,0.708,0.708,1.416,1.062,2.125c0,0.116,0,0.233,0,0.351    c0,3.066,1.848,5.836,3.648,8.261c3.979,5.356,7.953,10.716,11.957,16.054c0-0.54,0-1.08,0-1.62    c0.066,1.745,0.5,2.902,2.785,4.236c1.17,0.683,2.57,1.256,3.535,2.221c1.186,1.185,2.348,2.738,3.711,3.709    c2.564,1.828,5.953,2.977,8.775,4.389c1.973,0.986,4.143,3.302,5.979,4.613c2.429,1.735,5.257,3.315,7.43,5.368    c2.153,2.034,4.83,3.977,6.625,6.333c1.087,1.428,2.174,2.854,3.262,4.282c0.563,0.738,2.479,2.471,2.479,3.439    c0,0.476,0.995,2.293,1.3,2.601c0.742,0.747,1.457,1.905,2.044,2.786c0.527,0.791,1.194,1.937,1.858,2.601    c0.804,0.804,1.985,1.369,2.504,2.409c0.232,0.466,1.517,1.259,1.954,1.679c0.551,0.529,1.341,1.601,2.049,1.955    c1.485,0.743,2.657,2.875,4.32,2.875c5.431,0,10.862,0,16.293,0c0-26.449,0-52.898,0-79.349c0-14.493,0-28.986,0-43.48    c0-1.66,0-3.32,0-4.98c0-0.393,0-0.785,0-1.177C260.397,286.831,259.921,287.446,259.469,286.993z M216.93,95.823    c0.495-0.99,0.991-1.981,1.486-2.971c1.741,1.026,0.649,2.135,0.066,3.886c-0.518,1.553-1.035,3.107-1.553,4.66    c-0.317,2.221,0.085,2.6-2.229,2.6C214.996,100.745,215.579,98.795,216.93,95.823z M151.634,188.89    c-0.222-0.425-1.092-0.641-1.025-1.306c0.063-0.632,0.127-1.264,0.19-1.896c0.217,0.493,0.695,1.032,0.918,1.403    C151.936,187.456,151.789,188.218,151.634,188.89z M168.889,158.052c0.743-1.634,1.486-3.268,2.229-4.902    c1.668-3.672,3.033-7.823,5.174-11.249c2.401-3.84,4.802-7.681,7.203-11.522c5.054-7.583,8.938-15.82,14.488-23.038    c0.667,5.334,0.743,10.396,0.743,15.782c0,2.111,0.358,4.574-0.026,6.659c-0.559,3.013-1.117,6.026-1.675,9.04    c-0.765,4.125-2.687,8.367-4.443,12.19c-1.476,3.213-2.952,6.425-4.429,9.638c-0.75,1.634-2.482,4.677-4.658,4.284    c-1.621,0.324-3.125,0.997-4.663,0.338c-2.271-0.974-4.541-1.947-6.812-2.92c-0.395-0.169-2.443-2.382-3.131-3.367    C168.889,158.674,168.889,158.363,168.889,158.052z M168.011,186.937c-0.396-1.388,0.198-2.774,0.508-4.167    c-0.862,0-2.075,0.39-2.423-0.481c-0.873-2.182-0.924-0.337-2.408-1.375c-0.496-0.347-0.801-2.402-0.998-2.997    c-0.263-0.786,0.121-1.775,0.256-2.578c1.693,0.636,3.387,1.271,5.08,1.907c0.215,0.365,0.648,0.66,1.51,1.029    c1.262,0.541,3.145,0.908,3.926,2.082c0.785,1.177,0.563,2.884-0.215,3.996c-0.803,1.149-1.433,2.62-2.734,3.198    c-0.232,0.104-1.201,0.417-1.894,0.735C168.388,187.823,168.083,187.19,168.011,186.937z M125.442,60.914    c-0.005-0.253-0.021-0.505-0.021-0.759C125.387,60.367,125.401,60.631,125.442,60.914z" id="path16" style="fill-rule:evenodd;clip-rule:evenodd;"/>
    </g>
  </g>
</svg>
