<?xml version="1.0" standalone="no"?>
<!DOCTYPE svg PUBLIC "-//W3C//DTD SVG 1.0//EN"
"http://www.w3.org/TR/2001/REC-SVG-20010904/DTD/svg10.dtd">
<svg fill="none" fill-rule="evenodd" height="440" stroke-linecap="round" stroke-linejoin="round" stroke-width="1.94091" version="1.0" viewBox="0 0 1280 854" width="659.485" xmlns="http://www.w3.org/2000/svg">
  <metadata>
    <rdf:RDF xmlns:cc="http://web.resource.org/cc/" xmlns:dc="http://purl.org/dc/elements/1.1/" xmlns:rdf="http://www.w3.org/1999/02/22-rdf-syntax-ns#">
      <cc:Work rdf:about="">
        <dc:title>Hummer</dc:title>
        <dc:description></dc:description>
        <dc:subject>
          <rdf:Bag>
            <rdf:li>transport</rdf:li>
            <rdf:li>vehicle</rdf:li>
            <rdf:li>hummer</rdf:li>
          </rdf:Bag>
        </dc:subject>
        <dc:publisher>
          <cc:Agent rdf:about="http://www.openclipart.org">
            <dc:title>U.S. Army (public domain clipart)</dc:title>
          </cc:Agent>
        </dc:publisher>
        <dc:creator>
          <cc:Agent>
            <dc:title>U.S. Army (public domain clipart)</dc:title>
          </cc:Agent>
        </dc:creator>
        <dc:rights>
          <cc:Agent>
            <dc:title>U.S. Army (public domain clipart)</dc:title>
          </cc:Agent>
        </dc:rights>
        <dc:date></dc:date>
        <dc:format>image/svg+xml</dc:format>
        <dc:type rdf:resource="http://purl.org/dc/dcmitype/StillImage"/>
        <cc:license rdf:resource="http://web.resource.org/cc/PublicDomain"/>
        <dc:language>en</dc:language>
      </cc:Work>
      <cc:License rdf:about="http://web.resource.org/cc/PublicDomain">
        <cc:permits rdf:resource="http://web.resource.org/cc/Reproduction"/>
        <cc:permits rdf:resource="http://web.resource.org/cc/Distribution"/>
        <cc:permits rdf:resource="http://web.resource.org/cc/DerivativeWorks"/>
      </cc:License>
    </rdf:RDF>
  </metadata>
  <path d="M1242 495l-4 0 0-487 4 0 0 487z" fill="#e0e0e0"/>
  <path d="M1242 495l-4 0 0-487 4 0 0 487" stroke="#000"/>
  <path d="M1238 483l 8 0 0-17-8 0 0 17z" fill="#e0e0e0"/>
  <path d="M1238 483l 8 0 0-17-8 0 0 17" stroke="#000"/>
  <path d="M1234 462l 4 4 8 0 0-4-4-42-4 0-4 42z" fill="#e0e0e0"/>
  <path d="M1234 462l 4 4 8 0 0-4-4-42-4 0-4 42" stroke="#000"/>
  <path d="M1234 4l 2-2 1-1 2 0 1-1 2 1 1 0 2 1 1 2-4 12-4 0-4-12z" fill="#e0e0e0"/>
  <path d="M1234 4l 2-2 1-1 2 0 1-1 2 1 1 0 2 1 1 2-4 12-4 0-4-12" stroke="#000"/>
  <path d="M1234 4l 12 0" stroke="#000"/>
  <path d="M505 320l-9 0 0-16 9 0 0 16z" fill="#7f7f7f"/>
  <path d="M505 320l-9 0 0-16 9 0 0 16" stroke="#000"/>
  <path d="M505 320l-17 0 0 0 0 0 0 0 0 0 0-1 0 0 0-2 0-1 0-4 17 0 1 0 1 0 1 0 0 0 1 0 0 0 0 0 0 0 0 4 0 1 0 2 0 0-1 1 0 0-1 0-1 0-1 0z" fill="#4c4c4c"/>
  <path d="M505 320l-17 0 0-1 0-2 0-1 0-4 17 0 1 0 1 0 1 0 1 0 0 4 0 1 0 2-1 1-1 0-1 0-1 0" stroke="#000"/>
  <path d="M505 316l-13 0-1 0-1 0-1 0 0 0-1 0 0 0 0 0 0 0 0-4 0 0 0 0 0 0 1 0 0 0 1 0 1 0 1 0 13 0 0 4z" fill="#fff"/>
  <path d="M505 316l-13 0-1 0-1 0-1 0-1 0 0-4 1 0 1 0 1 0 1 0 13 0 0 4" stroke="#000"/>
  <path d="M451 325l 0-17 0 17z" fill="#4c4c4c"/>
  <path d="M451 325l 0-17 0 17" stroke="#000"/>
  <path d="M892 678l 96 0 108-54 79 13 38 0-8-92-313 0 0 133z" fill="#000"/>
  <path d="M892 678l 96 0 108-54 79 13 38 0-8-92-313 0 0 133" stroke="#000"/>
  <path d="M321 724l-54-37-158-63-71 0 0-45 17-4 18-3 17-2 18-2 35-2 36 0 35 2 35 2 35 4 33 5 4 145z" fill="#000"/>
  <path d="M321 724l-54-37-158-63-71 0 0-45 17-4 18-3 17-2 18-2 35-2 36 0 35 2 35 2 35 4 33 5 4 145" stroke="#000"/>
  <path d="M359 728l-46 0-67-141-8-4-8-4-9-3-10-3-9-2-10-1-11-1-10 0-22 0-23 2-23 3-24 5-8 24-41 0 0-8 4 0 0-41 1-2 2-1 2-2 1-1 2-1 3-1 2-1 3 0 38-8 38-7 38-5 39-4 39-3 39-3 39-1 39-2 0 216z" fill="#e0e0e0"/>
  <path d="M359 728l-46 0-67-141-8-4-8-4-9-3-10-3-9-2-10-1-11-1-10 0-22 0-23 2-23 3-24 5-8 24-41 0 0-8 4 0 0-41 1-2 2-1 2-2 1-1 2-1 3-1 2-1 3 0 38-8 38-7 38-5 39-4 39-3 39-3 39-1 39-2 0 216" stroke="#000"/>
  <path d="M359 728l 470 0 67-29 38-96 6-8 5-6 5-5 5-3 5-3 6-3 6-2 8-3 19-4 20-3 19-2 18 0 18 0 19 2 18 3 19 4 7 2 8 2 9 3 10 3 8 4 7 4 4 3 2 2 2 3 1 3 25 42 63 0 0-129-2-6-2-5-3-5-3-4-4-4-5-3-5-3-6-3-371-121-470 0-38 25-21 129-8 0 0 46 21 0 0 170z" fill="#e0e0e0"/>
  <path d="M359 728l 470 0 67-29 38-96 6-8 5-6 5-5 5-3 5-3 6-3 6-2 8-3 19-4 20-3 19-2 18 0 18 0 19 2 18 3 19 4 7 2 8 2 9 3 10 3 8 4 7 4 4 3 2 2 2 3 1 3 25 42 63 0 0-129-2-6-2-5-3-5-3-4-4-4-5-3-5-3-6-3-371-121-470 0-38 25-21 129-8 0 0 46 21 0 0 170" stroke="#000"/>
  <path d="M613 699l-217 0-4-1-4-2-4-2-3-2-2-3-2-3-1-3 0-5 0-174 16-109 0-3 0-2 0-2 1-2 1-2 2-1 2 0 2 0 213 0 2 0 2 0 2 1 2 1 2 2 1 1 1 2 0 1 0 296 0 3 0 2-1 2-2 2-1 2-3 1-2 0-3 0z" fill="#e0e0e0"/>
  <path d="M613 699l-217 0-4-1-4-2-4-2-3-2-2-3-2-3-1-3 0-5 0-174 16-109 0-3 0-2 0-2 1-2 1-2 2-1 2 0 2 0 213 0 2 0 2 0 2 1 2 1 2 2 1 1 1 2 0 1 0 296 0 3 0 2-1 2-2 2-1 2-3 1-2 0-3 0" stroke="#000"/>
  <path d="M609 691l-209 0-3 0-3-2-3-1-2-3-2-3-2-3-1-4 0-5 0-166 12-105 0-2 0-3 1-2 1-2 1-1 3-1 3-1 4 0 200 0 1 0 2 1 1 1 1 1 1 2 1 2 1 3 0 2 0 284 0 1-1 2-1 1-1 1-1 1-1 1-2 1-1 0z" fill="#e0e0e0"/>
  <path d="M609 691l-209 0-3 0-3-2-3-1-2-3-2-3-2-3-1-4 0-5 0-166 12-105 0-2 0-3 1-2 1-2 1-1 3-1 3-1 4 0 200 0 1 0 2 1 1 1 1 1 1 2 1 2 1 3 0 2 0 284 0 1-1 2-1 1-1 1-1 1-1 1-2 1-1 0" stroke="#000"/>
  <path d="M409 658l 0-109 0-1 1-2 2-1 1-1 2 0 2 0 2 0 2 1 67 54 1 2 1 1 0 1-1 0 0 1 0 1-1 1 0 2-67 54-2 0-2 0-2 0-2-1-1 0-2-1-1-1 0-1z" fill="#d9d9d9"/>
  <path d="M409 658l 0-109 0-1 1-2 2-1 1-1 2 0 2 0 2 0 2 1 67 54 1 2 1 1 0 1-1 0 0 1 0 1-1 1 0 2-67 54-2 0-2 0-2 0-2-1-1 0-2-1-1-1 0-1" stroke="#000"/>
  <path d="M604 658l 0-55-16 0-1 0-1 0-1 0-1 0 0-1 0 0 0-1 0-2 0-37 0-2-1-1-1 0-1-1-1 0-2 0-1 0-2 0-49 37-3 3-2 2-1 2-1 1 1 2 1 2 2 2 3 3 66 50 3 1 3 1 2 0 1-1 2-1 1-1 0-2 0-1z" fill="#d9d9d9"/>
  <path d="M604 658l 0-55-16 0-1 0-1 0-1 0-1 0 0-1 0-1 0-2 0-37 0-2-1-1-1 0-1-1-1 0-2 0-1 0-2 0-49 37-3 3-2 2-1 2-1 1 1 2 1 2 2 2 3 3 66 50 3 1 3 1 2 0 1-1 2-1 1-1 0-2 0-1" stroke="#000"/>
  <path d="M442 678l 133 0 2 0 1 0 2-1 1-1 0-1 0-2 0-1-1-2-67-54-2-1-1-1-2 0-1 0-2 1-2 0-1 1-2 0-66 50 0 3 0 2 1 3 1 1 2 2 1 1 2 0 1 0z" fill="#d9d9d9"/>
  <path d="M442 678l 133 0 2 0 1 0 2-1 1-1 0-1 0-2 0-1-1-2-67-54-2-1-1-1-2 0-1 0-2 1-2 0-1 1-2 0-66 50 0 3 0 2 1 3 1 1 2 2 1 1 2 0 1 0" stroke="#000"/>
  <path d="M442 533l 129 0 2 0 1 0 0 1 1 1 0 2 0 1 0 1 0 2-66 54-2 2-1 1-2 0-2 0-1 0-2 0-1-1-2-2-58-54-1-2-1-1 0-1 1-2 1-1 1-1 2 0 1 0z" fill="#d9d9d9"/>
  <path d="M442 533l 129 0 2 0 1 0 0 1 1 1 0 2 0 1 0 1 0 2-66 54-2 2-1 1-2 0-2 0-1 0-2 0-1-1-2-2-58-54-1-2-1-1 0-1 1-2 1-1 1-1 2 0 1 0" stroke="#000"/>
  <path d="M592 591l 17 0 0-25 0-4-17 0-1 0-1 0-1 1-1 1 0 1 0 0 0 1 0 0 0 25 0 0 0 0 0 0 0 0 1 0 1 0 1 0 1 0z" fill="#d9d9d9"/>
  <path d="M592 591l 17 0 0-25 0-4-17 0-1 0-1 0-1 1-1 1 0 1 0 1 0 25 1 0 1 0 1 0 1 0" stroke="#000"/>
  <path d="M588 583l 21 0" stroke="#000"/>
  <path d="M409 662l-25 0-8-13-5 0-1 0-1 0-1 0 0 0-1-1 0 0 0-2 0-1 0-12 0 0 0 0 0 0 1 0 0 0 1 0 1 0 1 0 38 0 0 25 0 1 0 1 0 1 0 0 0 1 0 0 0 0 0 0z" fill="#e0e0e0"/>
  <path d="M409 662l-25 0-8-13-5 0-1 0-1 0-1 0-1-1 0-2 0-1 0-12 1 0 1 0 1 0 1 0 38 0 0 25 0 1 0 1 0 1 0 1" stroke="#000"/>
  <path d="M405 654l-13 0 0-5-21 0-1 0-1 0-1 0 0 0-1-1 0 0 0-2 0-1 0-12 0 0 0 0 0 0 1 0 0 0 1 0 1 0 1 0 8 0 0 4 21 0 2 0 1 0 1 0 0 0 0 1 1 0 0 2 0 1 0 13z" fill="#e0e0e0"/>
  <path d="M405 654l-13 0 0-5-21 0-1 0-1 0-1 0-1-1 0-2 0-1 0-12 1 0 1 0 1 0 1 0 8 0 0 4 21 0 2 0 1 0 1 0 0 1 1 0 0 2 0 1 0 13" stroke="#000"/>
  <path d="M405 641l 4 0 0 1 0 1 0 1 0 1 0 0 0 0 0 0 0 0-4 0 0 0 0 0 0 0 0 0 0-1 0-1 0-1 0-1z" fill="#e0e0e0"/>
  <path d="M405 641l 4 0 0 1 0 1 0 1 0 1-4 0 0-1 0-1 0-1 0-1" stroke="#000"/>
  <path d="M396 633l 4 0 0 4-4 0 0-4z" fill="#e0e0e0"/>
  <path d="M396 633l 4 0 0 4-4 0 0-4" stroke="#000"/>
  <path d="M400 658l 0 4 0-4z" fill="#e0e0e0"/>
  <path d="M400 658l 0 4 0-4" stroke="#000"/>
  <path d="M409 562l-25 0-8-13-5 0 0 0 0 0 0 0 0 0 0-1 0 0 0-1 0-2 0-12 38 0 4 0 0 29-4 0z" fill="#e0e0e0"/>
  <path d="M409 562l-25 0-8-13-5 0 0-1 0-1 0-2 0-12 38 0 4 0 0 29-4 0" stroke="#000"/>
  <path d="M405 558l-13 0 0-4 0-5-21 0 0 0 0 0 0 0 0 0 0-1 0 0 0-1 0-2 0-12 13 0 0 4 21 0 0 0 0 0 0 0 0 0 0 1 0 1 0 1 0 1 0 13 0 4z" fill="#e0e0e0"/>
  <path d="M405 558l-13 0 0-4 0-5-21 0 0-1 0-1 0-2 0-12 13 0 0 4 21 0 0 1 0 1 0 1 0 1 0 13 0 4" stroke="#000"/>
  <path d="M409 541l 0 4 0-4z" fill="#e0e0e0"/>
  <path d="M409 541l 0 4 0-4" stroke="#000"/>
  <path d="M400 533l 0 4 0-4z" fill="#e0e0e0"/>
  <path d="M400 533l 0 4 0-4" stroke="#000"/>
  <path d="M400 558l 5 0 0 4-5 0 0-4z" fill="#e0e0e0"/>
  <path d="M400 558l 5 0 0 4-5 0 0-4" stroke="#000"/>
  <path d="M575 520l-166 0 0-133 166 0 0 133z" fill="#e0e0e0"/>
  <path d="M575 520l-166 0 0-133 166 0 0 133" stroke="#000"/>
  <path d="M563 399l-142 0 0 113 142 0 0-113z" fill="#fff"/>
  <path d="M563 399l-142 0 0 113 142 0 0-113" stroke="#000"/>
  <path d="M646 699l 188 0 5-2 5-3 6-4 6-4 5-5 4-5 4-5 2-5 42-154-46-117 0-1-1-2 0-3-1-2-2-1-1-2-2-1-1 0-213 0-2 0-2 0-2 1-2 1-1 2-2 1-1 2 0 1 0 296 0 3 1 2 2 2 1 2 2 2 2 1 2 0 2 0z" fill="#e0e0e0"/>
  <path d="M646 699l 188 0 5-2 5-3 6-4 6-4 5-5 4-5 4-5 2-5 42-154-46-117 0-1-1-2 0-3-1-2-2-1-1-2-2-1-1 0-213 0-2 0-2 0-2 1-2 1-1 2-2 1-1 2 0 1 0 296 0 3 1 2 2 2 1 2 2 2 2 1 2 0 2 0" stroke="#000"/>
  <path d="M650 691l 184 0 7-4 7-4 6-4 5-6 4-5 4-6 2-6 2-7 33-137-41-113-1-2-1-2-1-2-1-1-1-1-1-2-1-1-1-1-205 0-1 0-2 1-1 1-1 1-2 2 0 2-1 3 0 2 0 284 0 1 1 2 0 1 2 1 1 1 1 1 2 1 1 0z" fill="#e0e0e0"/>
  <path d="M650 691l 184 0 7-4 7-4 6-4 5-6 4-5 4-6 2-6 2-7 33-137-41-113-1-2-1-2-1-2-1-1-1-1-1-2-1-1-1-1-205 0-1 0-2 1-1 1-1 1-2 2 0 2-1 3 0 2 0 284 0 1 1 2 0 1 2 1 1 1 1 1 2 1 1 0" stroke="#000"/>
  <path d="M671 658l 0-109 1-1 0-2 1-1 1-1 1 0 2 0 1 0 1 1 67 54 2 2 1 1 0 1 1 0-1 1 0 1-1 1-2 2-62 54-3 0-3 0-2 0-2-1-1 0-1-1 0-1-1-1z" fill="#d9d9d9"/>
  <path d="M671 658l 0-109 1-1 0-2 1-1 1-1 1 0 2 0 1 0 1 1 67 54 2 2 1 1 0 1 1 0-1 1 0 1-1 1-2 2-62 54-3 0-3 0-2 0-2-1-1 0-1-1 0-1-1-1" stroke="#000"/>
  <path d="M850 658l 3-5 3-4 2-5 2-6 1-6 1-8 1-9 0-12-17 0-1 0-1 0-1 0 0 0-1-1 0 0 0-1 0-2 0-37 0-2-1-1 0 0-2-1-1 0-1 0-2 0-1 0-50 37-3 3-2 2-1 2 0 1 0 2 1 2 2 2 3 3 58 46 1 0 2 0 0 0 1 0 1 0 1 0 1 0 1 0z" fill="#d9d9d9"/>
  <path d="M850 658l 3-5 3-4 2-5 2-6 1-6 1-8 1-9 0-12-17 0-1 0-1 0-1 0-1-1 0-1 0-2 0-37 0-2-1-1-2-1-1 0-1 0-2 0-1 0-50 37-3 3-2 2-1 2 0 1 0 2 1 2 2 2 3 3 58 46 1 0 2 0 1 0 1 0 1 0 1 0 1 0" stroke="#000"/>
  <path d="M700 678l 134 0 1 0 2 0 1-1 1-1 1-1 0-2-1-1-1-2-67-54-1-1-2-1-1 0-2 0-2 1-1 0-2 1-1 0-63 50-1 3 0 2 0 3 0 1 1 2 1 1 2 0 1 0z" fill="#d9d9d9"/>
  <path d="M700 678l 134 0 1 0 2 0 1-1 1-1 1-1 0-2-1-1-1-2-67-54-1-1-2-1-1 0-2 0-2 1-1 0-2 1-1 0-63 50-1 3 0 2 0 3 0 1 1 2 1 1 2 0 1 0" stroke="#000"/>
  <path d="M705 533l 124 0 2 0 1 0 2 1 1 1 0 2 0 1 0 1-1 2-63 54-1 2-2 1-1 0-2 0-2 0-1 0-2-1-1-2-63-54-1-2 0-1 0-1 1-2 1-1 2-1 3 0 3 0z" fill="#d9d9d9"/>
  <path d="M705 533l 124 0 2 0 1 0 2 1 1 1 0 2 0 1 0 1-1 2-63 54-1 2-2 1-1 0-2 0-2 0-1 0-2-1-1-2-63-54-1-2 0-1 0-1 1-2 1-1 2-1 3 0 3 0" stroke="#000"/>
  <path d="M850 591l 17 0 4 0 0-25-4-4-17 0-4 4 0 25 4 0z" fill="#d9d9d9"/>
  <path d="M850 591l 17 0 4 0 0-25-4-4-17 0-4 4 0 25 4 0" stroke="#000"/>
  <path d="M846 583l 25 0" stroke="#000"/>
  <path d="M667 662l-25 0-8-13-4 0-1 0 0 0-1 0 0 0-1-1-1 0 0-2-1-1 0-12 5 0 37 0 4 0 0 25 0 1 0 1-1 1-1 0-1 1 0 0-1 0 0 0z" fill="#e0e0e0"/>
  <path d="M667 662l-25 0-8-13-4 0-1 0-1 0-1-1-1 0 0-2-1-1 0-12 5 0 37 0 4 0 0 25 0 1 0 1-1 1-1 0-1 1-1 0" stroke="#000"/>
  <path d="M663 654l-13 0 0-5-20 0-1 0 0 0-1 0 0 0-1-1-1 0 0-2-1-1 0-12 5 0 12 0 0 4 21 0 0 0 0 0 0 0 0 0 0 1 0 0 0 2 0 1 0 13z" fill="#e0e0e0"/>
  <path d="M663 654l-13 0 0-5-20 0-1 0-1 0-1-1-1 0 0-2-1-1 0-12 5 0 12 0 0 4 21 0 0 1 0 2 0 1 0 13" stroke="#000"/>
  <path d="M667 641l 0 1 0 1 0 1 0 1 0 0 0 0 0 0 0 0-1 0-1 0-1 0-1 0 0-1 0-1 0-1 0-1 0 0 0 0 0 0 0 0 1 0 1 0 1 0 1 0z" fill="#e0e0e0"/>
  <path d="M667 641l 0 1 0 1 0 1 0 1-1 0-1 0-1 0-1 0 0-1 0-1 0-1 0-1 1 0 1 0 1 0 1 0" stroke="#000"/>
  <path d="M659 633l 0 4 0-4z" fill="#e0e0e0"/>
  <path d="M659 633l 0 4 0-4" stroke="#000"/>
  <path d="M659 658l 1 0 1 0 1 0 0 0 1 0 0 0 0 0 0 0 0 4 0 0 0 0 0 0-1 0 0 0-1 0-1 0-1 0 0-4z" fill="#e0e0e0"/>
  <path d="M659 658l 1 0 1 0 1 0 1 0 0 4-1 0-1 0-1 0-1 0 0-4" stroke="#000"/>
  <path d="M667 562l-25 0-8-13-4 0 0 0 0 0 0 0 0 0 0-1 0 0 0-1 0-2 0-12 37 0 2 0 1 0 0 0 1 0 0 0 0 0 0 0 0 0 0 29 0 0 0 0 0 0 0 0-1 0 0 0-1 0-2 0z" fill="#e0e0e0"/>
  <path d="M667 562l-25 0-8-13-4 0 0-1 0-1 0-2 0-12 37 0 2 0 1 0 1 0 0 29-1 0-1 0-2 0" stroke="#000"/>
  <path d="M663 558l-13 0 0-4 0-5-20 0 0 0 0 0 0 0 0 0 0-1 0 0 0-1 0-2 0-12 12 0 0 4 21 0 0 0 0 0 0 0 0 0 0 1 0 1 0 1 0 1 0 13 0 4z" fill="#e0e0e0"/>
  <path d="M663 558l-13 0 0-4 0-5-20 0 0-1 0-1 0-2 0-12 12 0 0 4 21 0 0 1 0 1 0 1 0 1 0 13 0 4" stroke="#000"/>
  <path d="M667 541l 2 0 1 0 0 0 1 0 0 0 0 0 0 0 0 0 0 4 0 0 0 0 0 0 0 0-1 0 0 0-1 0-2 0 0-4z" fill="#e0e0e0"/>
  <path d="M667 541l 2 0 1 0 1 0 0 4-1 0-1 0-2 0 0-4" stroke="#000"/>
  <path d="M659 533l 4 0 0 4-4 0 0-4z" fill="#e0e0e0"/>
  <path d="M659 533l 4 0 0 4-4 0 0-4" stroke="#000"/>
  <path d="M659 558l 4 0 0 4-4 0 0-4z" fill="#e0e0e0"/>
  <path d="M659 558l 4 0 0 4-4 0 0-4" stroke="#000"/>
  <path d="M834 520l-163 0 0-133 163 0 0 133z" fill="#e0e0e0"/>
  <path d="M834 520l-163 0 0-133 163 0 0 133" stroke="#000"/>
  <path d="M821 399l-137 0 0 113 137 0 0-113z" fill="#fff"/>
  <path d="M821 399l-137 0 0 113 137 0 0-113" stroke="#000"/>
  <path d="M367 383l 558 0 0-9-50-16-491 0-5 1-3 2-3 2-2 3-2 3-1 3-1 5 0 6z" fill="#e0e0e0"/>
  <path d="M367 383l 558 0 0-9-50-16-491 0-5 1-3 2-3 2-2 3-2 3-1 3-1 5 0 6" stroke="#000"/>
  <path d="M430 487l 4 0-4 25-9 0 9-25z" fill="#e5e5e5"/>
  <path d="M430 487l 4 0-4 25-9 0 9-25" stroke="#000"/>
  <path d="M438 479l 16 33-8 0-16-29-2 0 0-1 0 0 0-1 0-1 1-1 0 0 1 0 1 0 1 0 1 0 1 0 1 0 0 0 2 0 1 0z" fill="#e5e5e5"/>
  <path d="M438 479l 16 33-8 0-16-29-2 0 0-1 0-1 0-1 1-1 1 0 1 0 1 0 1 0 1 0 1 0 2 0 1 0" stroke="#000"/>
  <path d="M451 512l-5 0-21-29 0-2 1-1 1-1 0 0 1-1 1-1 0-1 1-2 0 5 21 33z" fill="#999"/>
  <path d="M1276 512l-351 0-50-129" stroke="#000"/>
  <path d="M925 512l 351 0 0 12-351 0 0-12z" fill="#e0e0e0"/>
  <path d="M925 512l 351 0 0 12-351 0 0-12" stroke="#000"/>
  <path d="M917 537l 59 0 0 17 0 4-4 2-5 2-5 3-6 4-6 4-6 6-5 8-5 8-30 0 13-58z" fill="#d9d9d9"/>
  <path d="M917 537l 59 0 0 17 0 4-4 2-5 2-5 3-6 4-6 4-6 6-5 8-5 8-30 0 13-58" stroke="#000"/>
  <path d="M1246 537l-95 0 0 17 0 4 5 2 7 2 7 3 8 4 8 4 8 6 8 8 7 8 41 0 0-58 0 0 0 0 0 0 0 0-1 0 0 0-1 0-2 0z" fill="#d9d9d9"/>
  <path d="M1246 537l-95 0 0 17 0 4 5 2 7 2 7 3 8 4 8 4 8 6 8 8 7 8 41 0 0-58-1 0-1 0-2 0" stroke="#000"/>
  <path d="M1250 512l 0-29" stroke="#000"/>
  <path d="M930 620l-29 0" stroke="#000"/>
  <path d="M884 616l 46 0" stroke="#000"/>
  <path d="M542 699l 171 0-13 9-150 0-8-9z" fill="#e0e0e0"/>
  <path d="M542 699l 171 0-13 9-150 0-8-9" stroke="#000"/>
  <path d="M1213 616l 42 0 0 17-42 0 0-17z" fill="#e0e0e0"/>
  <path d="M1213 616l 42 0 0 17-42 0 0-17" stroke="#000"/>
  <path d="M1217 620l 33 0 2 0 1 0 1 0 0 0 0 0 1 0 0 0 0 0 0 9 0 0 0 0-1 0 0 0 0 0-1 0-1 0-2 0-33 0 0-9z" fill="#000"/>
  <path d="M1217 620l 33 0 2 0 1 0 1 0 1 0 0 9-1 0-1 0-1 0-2 0-33 0 0-9" stroke="#000"/>
  <path d="M59 549l 33 0 0 13 0 1 0 1 0 1 0 0 0 1 0 0 0 0 0 0-33 0 0 0 0 0 0 0 0-1 0 0 0-1 0-1 0-1 0-13z" fill="#e0e0e0"/>
  <path d="M59 549l 33 0 0 13 0 1 0 1 0 1 0 1-33 0 0-1 0-1 0-1 0-1 0-13" stroke="#000"/>
  <path d="M59 554l 33 0 0 8-33 0 0-8z" fill="#999"/>
  <path d="M59 554l 33 0 0 8-33 0 0-8" stroke="#000"/>
  <path d="M1276 516l 4 0 0 17-4 0 0-17z" fill="#e0e0e0"/>
  <path d="M1276 516l 4 0 0 17-4 0 0-17" stroke="#000"/>
  <path d="M34 595l 33 0 8-25 23-3 23-3 23-2 24-1 11 0 11 1 11 1 11 3 10 2 10 4 9 5 9 6 9 12" stroke="#000"/>
  <path d="M246 595l 29 0 63-37" stroke="#000"/>
  <path d="M38 554l 3-2 2-1 2-1 1 0 2 0 1 0 3-1 2 0 27-3 26-2 26-2 25-2 25-1 26-1 25-1 25 0 3-1 3-1 3-1 2-3 2-3 2-3 1-4 0-5" stroke="#000"/>
  <path d="M30 624l-21 0 0 25 21 0 0-25z" fill="#ccc"/>
  <path d="M30 624l-21 0 0 25 21 0 0-25" stroke="#000"/>
  <path d="M4 624l 26 0 0-4-9-4-17 0 0 50 2 0 2 0 1 0 2 0 1-1 2-1 1-1 2-1-13 0 0-38z" fill="#e0e0e0"/>
  <path d="M4 624l 26 0 0-4-9-4-17 0 0 50 2 0 2 0 1 0 2 0 1-1 2-1 1-1 2-1-13 0 0-38" stroke="#000"/>
  <path d="M30 649l 8 0 0-29-4-4-13 0 9 4 0 29z" fill="#b2b2b2"/>
  <path d="M30 649l 8 0 0-29-4-4-13 0 9 4 0 29" stroke="#000"/>
  <path d="M38 649l 71 0 8-37-50 8-29 0 0 29z" fill="#999"/>
  <path d="M38 649l 71 0 8-37-50 8-29 0 0 29" stroke="#000"/>
  <path d="M4 620l-4 0 0 13 4 0 0-13z" fill="#e0e0e0"/>
  <path d="M4 620l-4 0 0 13 4 0 0-13" stroke="#000"/>
  <path d="M4 633l 5-13" stroke="#000"/>
  <path d="M100 566l 2-4 2-5 3-3 2-4 3-2 3-3 3-2 3-2" stroke="#000"/>
  <path d="M54 566l 2 0 2 1 1 2 1 2 1 2 1 2 1 2 0 2 0 1-1 2-1 1-1 1-1 1-1 1-2 1-2 0-2 0-3-1-2-1-2-1-1-1-1-1-1-2 0-1 0-2 1-2 1-2 1-2 2-2 2-2 3-1 2 0z" fill="#e0e0e0"/>
  <path d="M54 566l 2 0 2 1 1 2 1 2 1 2 1 2 1 2 0 2 0 1-1 2-1 1-1 1-1 1-1 1-2 1-2 0-2 0-3-1-2-1-2-1-1-1-1-1-1-2 0-1 0-2 1-2 1-2 1-2 2-2 2-2 3-1 2 0" stroke="#000"/>
  <path d="M38 595l 4-33 0-3 1-2 1-2 1-1 2-1 2-1 3-1 2-2 67-8" stroke="#000"/>
  <path d="M38 587l-1-3-1-4 0-4 0-4 1-4 0-3 1-4 0-3 4 0" stroke="#000"/>
  <path d="M159 603l 13 1 12 2 12 3 12 4 11 5 10 6 10 7 9 8 8 8 7 10 6 10 5 10 4 11 3 12 2 12 1 12-1 13-2 13-3 12-4 12-5 11-6 10-7 10-8 8-9 8-10 7-10 7-11 5-12 4-12 3-12 2-13 0-13 0-12-2-11-3-11-4-11-5-10-7-9-7-9-8-8-8-6-10-6-10-6-11-4-12-3-12-1-13-1-13 1-12 1-12 3-12 4-11 6-10 6-10 6-10 8-8 9-8 9-7 10-6 11-5 11-4 11-3 12-2 13-1z" fill="#000"/>
  <path d="M159 603l 13 1 12 2 12 3 12 4 11 5 10 6 10 7 9 8 8 8 7 10 6 10 5 10 4 11 3 12 2 12 1 12-1 13-2 13-3 12-4 12-5 11-6 10-7 10-8 8-9 8-10 7-10 7-11 5-12 4-12 3-12 2-13 0-13 0-12-2-11-3-11-4-11-5-10-7-9-7-9-8-8-8-6-10-6-10-6-11-4-12-3-12-1-13-1-13 1-12 1-12 3-12 4-11 6-10 6-10 6-10 8-8 9-8 9-7 10-6 11-5 11-4 11-3 12-2 13-1" stroke="#000"/>
  <path d="M159 620l 10 1 11 1 10 3 10 3 9 5 8 5 8 6 8 6 6 8 6 8 6 8 4 9 3 10 3 10 1 11 1 10-1 11-1 11-3 10-3 9-4 9-6 9-6 8-6 7-8 7-8 6-8 5-9 4-10 4-10 2-11 2-10 0-11 0-11-2-10-2-9-4-9-4-9-5-8-6-7-7-7-7-6-8-5-9-4-9-4-9-2-10-2-11-1-11 1-10 2-11 2-10 4-10 4-9 5-8 6-8 7-8 7-6 8-6 9-5 9-5 9-3 10-3 11-1 11-1z" fill="#000"/>
  <path d="M163 641l 8 0 7 2 8 2 7 2 7 4 6 4 6 5 6 5 5 6 5 7 4 7 3 7 3 8 2 8 2 8 0 8 0 9-2 8-2 8-3 8-3 7-4 7-5 6-5 6-6 6-6 4-6 5-7 3-7 3-8 2-7 1-8 1-9-1-8-1-8-2-8-3-7-3-7-5-6-4-6-6-6-6-4-6-5-7-3-7-3-8-2-8-1-8-1-9 1-8 1-8 2-8 3-8 3-7 5-7 4-7 6-6 6-5 6-5 7-4 7-4 8-2 8-2 8-2 9 0z" fill="#e5e5e5"/>
  <path d="M163 641l 8 0 7 2 8 2 7 2 7 4 6 4 6 5 6 5 5 6 5 7 4 7 3 7 3 8 2 8 2 8 0 8 0 9-2 8-2 8-3 8-3 7-4 7-5 6-5 6-6 6-6 4-6 5-7 3-7 3-8 2-7 1-8 1-9-1-8-1-8-2-8-3-7-3-7-5-6-4-6-6-6-6-4-6-5-7-3-7-3-8-2-8-1-8-1-9 1-8 1-8 2-8 3-8 3-7 5-7 4-7 6-6 6-5 6-5 7-4 7-4 8-2 8-2 8-2 9 0" stroke="#333"/>
  <path d="M159 645l 8 1 8 1 8 2 7 3 7 3 7 4 6 5 5 5 5 6 5 6 4 6 3 7 2 8 2 7 1 8 1 7-1 9-1 8-2 8-2 7-3 7-4 7-5 6-5 5-5 5-6 5-7 3-7 4-7 2-8 2-8 1-8 0-8 0-8-1-7-2-7-2-6-4-6-3-6-5-6-5-4-5-5-6-3-7-4-7-2-7-2-8-1-8 0-9 0-7 1-8 2-7 2-8 4-7 3-6 5-6 4-6 6-5 6-5 6-4 6-3 7-3 7-2 8-1 8-1z" fill="#e5e5e5"/>
  <path d="M159 645l 8 1 8 1 8 2 7 3 7 3 7 4 6 5 5 5 5 6 5 6 4 6 3 7 2 8 2 7 1 8 1 7-1 9-1 8-2 8-2 7-3 7-4 7-5 6-5 5-5 5-6 5-7 3-7 4-7 2-8 2-8 1-8 0-8 0-8-1-7-2-7-2-6-4-6-3-6-5-6-5-4-5-5-6-3-7-4-7-2-7-2-8-1-8 0-9 0-7 1-8 2-7 2-8 4-7 3-6 5-6 4-6 6-5 6-5 6-4 6-3 7-3 7-2 8-1 8-1" stroke="#333"/>
  <path d="M159 654l 7 0 8 1 7 2 7 2 6 3 7 4 5 4 6 5 5 5 4 5 4 6 3 6 2 7 2 6 1 7 1 7-1 8-1 7-2 8-2 7-3 6-4 6-4 6-5 5-6 5-5 5-7 3-6 3-7 3-7 2-8 1-7 0-7 0-7-1-7-2-6-3-6-3-6-3-6-5-5-5-5-5-4-6-3-6-3-6-3-7-2-8-1-7 0-8 0-7 1-7 2-6 3-7 3-6 3-6 4-5 5-5 5-5 6-4 6-4 6-3 6-2 7-2 7-1 7 0z" fill="#999"/>
  <path d="M159 654l 7 0 8 1 7 2 7 2 6 3 7 4 5 4 6 5 5 5 4 5 4 6 3 6 2 7 2 6 1 7 1 7-1 8-1 7-2 8-2 7-3 6-4 6-4 6-5 5-6 5-5 5-7 3-6 3-7 3-7 2-8 1-7 0-7 0-7-1-7-2-6-3-6-3-6-3-6-5-5-5-5-5-4-6-3-6-3-6-3-7-2-8-1-7 0-8 0-7 1-7 2-6 3-7 3-6 3-6 4-5 5-5 5-5 6-4 6-4 6-3 6-2 7-2 7-1 7 0" stroke="#ccc"/>
  <path d="M159 666l 6 0 6 1 6 2 5 2 6 2 5 3 5 3 4 4 5 4 3 4 3 5 3 5 2 6 2 5 1 6 0 6 0 6-1 6-2 6-2 5-3 6-3 4-3 5-5 4-4 4-5 3-5 3-6 2-5 2-6 2-6 0-6 1-7-1-5 0-6-2-6-2-5-2-4-3-5-3-4-4-4-4-3-5-3-4-2-6-2-5-2-6 0-6-1-6 1-6 0-6 2-5 2-6 2-5 3-5 3-4 4-4 4-4 5-3 4-3 5-2 6-2 6-2 5-1 7 0z" fill="#000"/>
  <path d="M159 666l 6 0 6 1 6 2 5 2 6 2 5 3 5 3 4 4 5 4 3 4 3 5 3 5 2 6 2 5 1 6 0 6 0 6-1 6-2 6-2 5-3 6-3 4-3 5-5 4-4 4-5 3-5 3-6 2-5 2-6 2-6 0-6 1-7-1-5 0-6-2-6-2-5-2-4-3-5-3-4-4-4-4-3-5-3-4-2-6-2-5-2-6 0-6-1-6 1-6 0-6 2-5 2-6 2-5 3-5 3-4 4-4 4-4 5-3 4-3 5-2 6-2 6-2 5-1 7 0" stroke="#333"/>
  <path d="M154 603l 2 0 2 0 1 0 2 0 1 0 2 0 1 0 2 0 0 9-1 1-1 2-1 1-1 2 0 1 0 0 0 1 0 0-2 0-1 0 0 0-1 0 0 0 0 0 0 0 0 0-2 0-1-1-1 0 0-1 0-2-1-1 0-2 0-1 0-9z" fill="#000"/>
  <path d="M154 603l 2 0 2 0 1 0 2 0 1 0 2 0 1 0 2 0 0 9-1 1-1 2-1 1-1 2 0 1 0 1-2 0-1 0-1 0-2 0-1-1-1 0 0-1 0-2-1-1 0-2 0-1 0-9" stroke="#000"/>
  <path d="M63 649l 1-1 2-2 2-1 1-1 2-2 1 0 2-1 1 0 4 4 2 2 1 1 1 2 0 1 0 1 0 1 1 0 0 1 0 1-1 1 0 1 0 0 0 0-1 1-1 0-2 0 0 0 0 0-1-1-1 0-1 0-2-1-1-1-2-1-8-5z" fill="#000"/>
  <path d="M63 649l 1-1 2-2 2-1 1-1 2-2 1 0 2-1 1 0 4 4 2 2 1 1 1 2 0 1 0 1 0 1 1 0 0 1 0 1-1 1 0 1-1 1-1 0-2 0-1-1-1 0-1 0-2-1-1-1-2-1-8-5" stroke="#000"/>
  <path d="M154 849l 2 0 2 0 1 0 2 0 1 0 2 0 1 0 2 0 0-8-1-2-1-1-1-2-1-1 0-1 0-1 0 0 0 0-2 0-1 0 0 0-1 0 0 0 0 0 0 0 0 0-2 0-1 0-1 1 0 1 0 1-1 2 0 1 0 2 0 8z" fill="#000"/>
  <path d="M154 849l 2 0 2 0 1 0 2 0 1 0 2 0 1 0 2 0 0-8-1-2-1-1-1-2-1-1 0-1 0-1-2 0-1 0-1 0-2 0-1 0-1 1 0 1 0 1-1 2 0 1 0 2 0 8" stroke="#000"/>
  <path d="M284 745l 0-1 0-2 0-2 0-2 0-2 0-2 0-3 0-3-9 0-1 1-2 0-1 1-1 1-2 0 0 1-1 1 0 0 0 4 0 1 1 1 0 1 2 1 1 0 1 0 2 0 1 0 9 4z" fill="#000"/>
  <path d="M284 745l 0-1 0-2 0-2 0-2 0-2 0-2 0-3 0-3-9 0-1 1-2 0-1 1-1 1-2 0 0 1-1 1 0 4 0 1 1 1 0 1 2 1 1 0 1 0 2 0 1 0 9 4" stroke="#000"/>
  <path d="M38 745l 0-1 0-3 0-2 0-2 0-2 0-3 0-2 0-2 8 0 2 0 1 1 2 0 1 0 1 1 1 0 0 1 0 2 0 4 0 1 0 1-1 1-1 1-1 0-2 0-1 0-2 0-8 4z" fill="#000"/>
  <path d="M38 745l 0-1 0-3 0-2 0-2 0-2 0-3 0-2 0-2 8 0 2 0 1 1 2 0 1 0 1 1 1 0 0 1 0 2 0 4 0 1 0 1-1 1-1 1-1 0-2 0-1 0-2 0-8 4" stroke="#000"/>
  <path d="M229 624l 2 1 1 0 1 1 1 1 0 1 1 2 1 1 2 2-4 4-2 1-1 1-1 1-1 0 0 1-1 0-1 0-2 0-4 0 0-1 0-2 1 0 0-1 0-1 1-1 1-1 1-1 4-9z" fill="#000"/>
  <path d="M229 624l 2 1 1 0 1 1 1 1 0 1 1 2 1 1 2 2-4 4-2 1-1 1-1 1-1 0 0 1-1 0-1 0-2 0-4 0 0-1 0-2 1 0 0-1 0-1 1-1 1-1 1-1 4-9" stroke="#000"/>
  <path d="M246 637l 2 1 1 2 2 1 1 2 1 2 1 1 0 2 1 1-5 5-1 0-2 0-1 1-1 1-1 0-1 1-1 1 0 0-1-2-1-1-1 0-1-1 0 0 0 0 0 0 0 0 0-2 0-2 0-1 0-1 1-1 1-1 1-1 1 0 4-8z" fill="#000"/>
  <path d="M246 637l 2 1 1 2 2 1 1 2 1 2 1 1 0 2 1 1-5 5-1 0-2 0-1 1-1 1-1 0-1 1-1 1-1-2-1-1-1 0-1-1 0-2 0-2 0-1 0-1 1-1 1-1 1-1 1 0 4-8" stroke="#000"/>
  <path d="M229 828l 2 0 2 0 1-1 2-1 1-1 2-2 1-1 2-2-8-4-2-1-1-1-1-1-1-1 0 0-1 0-1 0-2 0 0 0 0 0 0 0 0 0-1 0 0 0-1 0-2 0 0 1 0 1 1 1 0 1 0 1 1 1 1 1 1 1 4 8z" fill="#000"/>
  <path d="M229 828l 2 0 2 0 1-1 2-1 1-1 2-2 1-1 2-2-8-4-2-1-1-1-1-1-1-1-1 0-1 0-2 0-1 0-1 0-2 0 0 1 0 1 1 1 0 1 0 1 1 1 1 1 1 1 4 8" stroke="#000"/>
  <path d="M267 666l 0-1-1-2 0-2-1-1-1-2 0-1-1-2 0-1-8 8-2 0-1 1-1 0-1 1 0 1-1 0-1 1-2 0 2 1 1 2 0 0 1 1 0 0 0 0 0 0 0 0 2 1 1 1 1 0 1 0 0-1 1 0 1-1 2 0 8-4z" fill="#000"/>
  <path d="M267 666l 0-1-1-2 0-2-1-1-1-2 0-1-1-2 0-1-8 8-2 0-1 1-1 0-1 1 0 1-1 0-1 1-2 0 2 1 1 2 1 1 2 1 1 1 1 0 1 0 0-1 1 0 1-1 2 0 8-4" stroke="#000"/>
  <path d="M50 666l 2 0 1-1 1 0 0-2 1-1 1-1 1-2 2-1 8 4 1 1 1 1 1 1 1 1 0 1 0 1 0 1 0 1 0 0 0 0 0 1 0 0-1 0-1 1-1 1-1 1 0 0-1 0 0 0-2 0-1-1-1 0-2-1-1-2-9-4z" fill="#000"/>
  <path d="M50 666l 2 0 1-1 1 0 0-2 1-1 1-1 1-2 2-1 8 4 1 1 1 1 1 1 1 1 0 1 0 1 0 1 0 1 0 1-1 0-1 1-1 1-1 1-1 0-2 0-1-1-1 0-2-1-1-2-9-4" stroke="#000"/>
  <path d="M92 624l-2 2-1 1-2 1-1 1-2 0-1 1-2 1-2 2 9 8 1 0 1 1 1 0 1 1 1 1 1 0 1 1 1 0 0-1 0-1 0-1 1-1 0 0 1 0 1 0 1 0 0-1 0-2-1 0-1-1-1-1 0-1-1-1 0-1-4-9z" fill="#000"/>
  <path d="M92 624l-2 2-1 1-2 1-1 1-2 0-1 1-2 1-2 2 9 8 1 0 1 1 1 0 1 1 1 1 1 0 1 1 1 0 0-1 0-1 0-1 1-1 1 0 1 0 1 0 0-1 0-2-1 0-1-1-1-1 0-1-1-1 0-1-4-9" stroke="#000"/>
  <path d="M88 828l-2-1-1-1-1-1 0-1-1-1-1 0-1-1-2-2 5-8 1-2 1-1 1 0 1-1 1 0 0 0 2 0 1 0 1 0 1 0 1 0 1 0 0 1 0 0 0 1 0 2 0 0 0 1 0 0 0 1-1 2-1 1-1 2-1 1-4 8z" fill="#000"/>
  <path d="M88 828l-2-1-1-1-1-1 0-1-1-1-1 0-1-1-2-2 5-8 1-2 1-1 1 0 1-1 1 0 2 0 1 0 1 0 1 0 1 0 1 0 0 1 0 1 0 2 0 1 0 1-1 2-1 1-1 2-1 1-4 8" stroke="#000"/>
  <path d="M255 803l-1 2 0 2-1 1-1 2-1 1-2 2-1 1-2 2-4-8-1-2-1-1-1-1-1-1 0 0 0-1 0-1 0-2 0 0 0 0 0 0 0 0 1-1 1-1 1-1 1-1 4 4 9 4z" fill="#000"/>
  <path d="M255 803l-1 2 0 2-1 1-1 2-1 1-2 2-1 1-2 2-4-8-1-2-1-1-1-1-1-1 0-1 0-1 0-2 1-1 1-1 1-1 1-1 4 4 9 4" stroke="#000"/>
  <path d="M63 803l 1 2 1 1 1 1 1 1 1 0 1 1 1 1 1 2 8-9 5-4-2-1-1-1-1-1 0-1 0-1-1-1 0-1 0-1-1 0-1 1-1 0-1 1 0 1-1 0-1 1-2 0-8 8z" fill="#000"/>
  <path d="M63 803l 1 2 1 1 1 1 1 1 1 0 1 1 1 1 1 2 8-9 5-4-2-1-1-1-1-1 0-1 0-1-1-1 0-1 0-1-1 0-1 1-1 0-1 1 0 1-1 0-1 1-2 0-8 8" stroke="#000"/>
  <path d="M180 603l 1 1 2 0 1 1 2 1 1 0 2 1 1 0 2 1-4 8 0 1 0 2 0 0-1 1 0 1-1 1-1 1-1 1 0 0 0 0 0 0-1 0 0 0-1 0-1 0-1 0 0-1 0-2 0-1 0-2 0-1 0-2 0-2 0-1 0-9z" fill="#000"/>
  <path d="M180 603l 1 1 2 0 1 1 2 1 1 0 2 1 1 0 2 1-4 8 0 1 0 2-1 1 0 1-1 1-1 1-1 1-1 0-1 0-1 0-1 0 0-1 0-2 0-1 0-2 0-1 0-2 0-2 0-1 0-9" stroke="#000"/>
  <path d="M180 849l 1 0 2 0 1 0 2 0 1-1 2 0 1-1 2-2-4-8 0-2 0-1 0-1-1 0 0-1-1-1-1-1-1-2 0 0 0 0 0 1-1 0 0 0-1 1-1 1-1 2 0 0 0 0 0 1 0 1 0 1 0 2 0 1 0 2 0 8z" fill="#000"/>
  <path d="M180 849l 1 0 2 0 1 0 2 0 1-1 2 0 1-1 2-2-4-8 0-2 0-1 0-1-1 0 0-1-1-1-1-1-1-2 0 1-1 0-1 1-1 1-1 2 0 1 0 1 0 1 0 2 0 1 0 2 0 8" stroke="#000"/>
  <path d="M284 716l 0-2 0-1 0-2 0-1 0-2 0-1 0-2 0-1-13 0-1 1-1 1-1 1-1 0 0 1 0 0 0 0 0 0 0 1 0 1 0 1 0 1 0 1 0 0 0 1 0 2 0 0 1 0 0 0 2 0 1 0 1 0 2 0 1 0 9 0z" fill="#000"/>
  <path d="M284 716l 0-2 0-1 0-2 0-1 0-2 0-1 0-2 0-1-13 0-1 1-1 1-1 1-1 0 0 1 0 1 0 1 0 1 0 1 0 1 0 1 0 2 1 0 2 0 1 0 1 0 2 0 1 0 9 0" stroke="#000"/>
  <path d="M38 716l 0-2 0-1 0-2 0-1 0-2 0-1 0-2 0-1 12 0 2 1 1 1 0 1 1 0 0 1 0 0 0 0 0 0 0 1 0 1 0 1 0 1 0 1 0 0 0 1 0 2 0 0 0 0-1 0-1 0-1 0-2 0-1 0-2 0-8 0z" fill="#000"/>
  <path d="M38 716l 0-2 0-1 0-2 0-1 0-2 0-1 0-2 0-1 12 0 2 1 1 1 0 1 1 0 0 1 0 1 0 1 0 1 0 1 0 1 0 1 0 2-1 0-1 0-1 0-2 0-1 0-2 0-8 0" stroke="#000"/>
  <path d="M204 612l 2 0 2 0 1 1 2 1 1 1 2 0 2 1 1 0-4 8-2 2-1 1-1 1 0 0-1 0-1 1-1 0-2 0 0 0 0 0 0 0 0 0-1 0 0 0-1 0-2 0 0-2 0-1 0-1 0-1 0 0 0-1 0-1 0-2 4-8z" fill="#000"/>
  <path d="M204 612l 2 0 2 0 1 1 2 1 1 1 2 0 2 1 1 0-4 8-2 2-1 1-1 1-1 0-1 1-1 0-2 0-1 0-1 0-2 0 0-2 0-1 0-1 0-1 0-1 0-1 0-2 4-8" stroke="#000"/>
  <path d="M204 841l 2 0 2-1 1 0 2-1 1-1 2-1 2 0 1 0-4-9-2-1-1-1-1-1 0 0-1-1-1 0-1 0-2 0 0 0 0 0 0 0 0 0-1 0 0 0-1 0-2 0 0 2 0 1 0 1 0 0 0 1 0 1 0 1 0 2 4 8z" fill="#000"/>
  <path d="M204 841l 2 0 2-1 1 0 2-1 1-1 2-1 2 0 1 0-4-9-2-1-1-1-1-1-1-1-1 0-1 0-2 0-1 0-1 0-2 0 0 2 0 1 0 1 0 1 0 1 0 1 0 2 4 8" stroke="#000"/>
  <path d="M279 691l 0-2 0-1-1-2-1-1 0-2-1-1-1-2 0-2-8 5-2 0-1 0-1 1-2 1-1 0 0 1-1 1 0 0 0 1 0 1 1 1 1 1 1 1 0 1 1 1 0 1 0 0 1 0 0 0 1 0 2-1 1-1 2-1 1-1 8 0z" fill="#000"/>
  <path d="M279 691l 0-2 0-1-1-2-1-1 0-2-1-1-1-2 0-2-8 5-2 0-1 0-1 1-2 1-1 0 0 1-1 1 0 1 0 1 1 1 1 1 1 1 0 1 1 1 0 1 1 0 1 0 2-1 1-1 2-1 1-1 8 0" stroke="#000"/>
  <path d="M42 691l 0-2 1-1 0-2 1-1 1-2 0-1 1-2 0-2 8 5 2 0 2 0 1 1 1 1 1 0 1 1 1 1 0 0 0 1-1 1 0 1-1 1-1 1-1 1 0 1 0 1-1 0 0 0-1 0-1 0-1-1-2-1-1-1-2-1-8 0z" fill="#000"/>
  <path d="M42 691l 0-2 1-1 0-2 1-1 1-2 0-1 1-2 0-2 8 5 2 0 2 0 1 1 1 1 1 0 1 1 1 1 0 1-1 1 0 1-1 1-1 1-1 1 0 1 0 1-1 0-1 0-1 0-1-1-2-1-1-1-2-1-8 0" stroke="#000"/>
  <path d="M138 603l-2 1-1 0-2 1-1 1-2 0-2 1-1 0-2 1 4 8 0 2 1 1 0 2 0 1 0 1 1 1 1 0 2 0 4 0 1-1 1-2 1-1 0-2 0-1-1-2-1-2-1-1 0-9z" fill="#000"/>
  <path d="M138 603l-2 1-1 0-2 1-1 1-2 0-2 1-1 0-2 1 4 8 0 2 1 1 0 2 0 1 0 1 1 1 1 0 2 0 4 0 1-1 1-2 1-1 0-2 0-1-1-2-1-2-1-1 0-9" stroke="#000"/>
  <path d="M138 849l-2 0-1 0-2-1-1-1-2-1-2 0-1-1-2 0 4-8 0-2 1-1 0-2 0-1 0-1 1-1 1 0 2-1 4 0 1 2 1 2 1 1 0 2 0 1-1 2-1 1-1 2 0 8z" fill="#000"/>
  <path d="M138 849l-2 0-1 0-2-1-1-1-2-1-2 0-1-1-2 0 4-8 0-2 1-1 0-2 0-1 0-1 1-1 1 0 2-1 4 0 1 2 1 2 1 1 0 2 0 1-1 2-1 1-1 2 0 8" stroke="#000"/>
  <path d="M279 758l 0 1 0 2 0 1 0 2-1 1 0 2-1 2-2 1-8-4-1 0-1-1-1 0-1-1 0-1 0-1 0 0 0 0 0-2 0-1 0 0 0-1 0 0 0 0 0 0 0 0 1-2 1-1 1 0 1-1 1 1 1 0 1 1 1 2 8 0z" fill="#000"/>
  <path d="M279 758l 0 1 0 2 0 1 0 2-1 1 0 2-1 2-2 1-8-4-1 0-1-1-1 0-1-1 0-1 0-1 0-2 0-1 0-1 1-2 1-1 1 0 1-1 1 1 1 0 1 1 1 2 8 0" stroke="#000"/>
  <path d="M42 758l 0 1 0 2 0 1 0 2 1 1 1 2 1 2 1 1 8-4 2-1 1-1 1-1 1-1 0 0 1 0 1 0 2 0-2-2-1-1 0-1-1 0 0-1 0-1 0-1 0-2-2 0-1 0-1 0-1 0 0 0-1 0-1 0-2 0-8 5z" fill="#000"/>
  <path d="M42 758l 0 1 0 2 0 1 0 2 1 1 1 2 1 2 1 1 8-4 2-1 1-1 1-1 1-1 1 0 1 0 2 0-2-2-1-1 0-1-1 0 0-1 0-1 0-1 0-2-2 0-1 0-1 0-1 0-1 0-1 0-2 0-8 5" stroke="#000"/>
  <path d="M113 612l-2 0-1 0-2 1-1 1-2 1-1 0-2 1-2 0 9 8 0 2 0 1 1 1 1 1 1 0 0 1 1 1 0 2 1-2 1-1 1 0 0-1 1 0 0 0 0 0 0 0 0-2 0-1 0-1 0-1 0 0 0-1 0-1 0-2-4-8z" fill="#000"/>
  <path d="M113 612l-2 0-1 0-2 1-1 1-2 1-1 0-2 1-2 0 9 8 0 2 0 1 1 1 1 1 1 0 0 1 1 1 0 2 1-2 1-1 1 0 0-1 1 0 0-2 0-1 0-1 0-1 0-1 0-1 0-2-4-8" stroke="#000"/>
  <path d="M113 841l-2 0-1-1-2 0-1-1-2-1-1-1-2 0-2 0 9-9 0-1 0-1 1-1 1-1 1-1 0 0 1-1 0-2 1 2 1 1 1 0 0 1 1 0 0 0 0 0 0 0 0 2 0 1 0 1 0 0 0 1 0 1 0 1 0 2-4 8z" fill="#000"/>
  <path d="M113 841l-2 0-1-1-2 0-1-1-2-1-1-1-2 0-2 0 9-9 0-1 0-1 1-1 1-1 1-1 1-1 0-2 1 2 1 1 1 0 0 1 1 0 0 2 0 1 0 1 0 1 0 1 0 1 0 2-4 8" stroke="#000"/>
  <path d="M271 783l 0 1-1 2 0 1-1 2-1 1 0 2-1 1 0 2-8-8-2-2-1-1-1 0 0-1-1 0-1 0-1 0-2 0 2-2 1-1 1-1 0 0 0-1 1-1 0-1 0-2 1 1 2 0 1 1 1 0 1 1 1 1 1 0 0 1 8 4z" fill="#000"/>
  <path d="M271 783l 0 1-1 2 0 1-1 2-1 1 0 2-1 1 0 2-8-8-2-2-1-1-1 0 0-1-1 0-1 0-1 0-2 0 2-2 1-1 1-1 0-1 1-1 0-1 0-2 1 1 2 0 1 1 1 0 1 1 1 1 1 0 0 1 8 4" stroke="#000"/>
  <path d="M50 783l 0 1 1 1 1 1 0 1 1 2 1 1 0 2 0 3 9-8 1-2 1-1 1 0 1-1 1-1 1-1 1-1 1-1-1 0-1 0-1-1 0 0-1 0 0-1 0-1 0-2-1 0-1 0-1 1-1 0-1 0-1 1-1 1-1 2-9 4z" fill="#000"/>
  <path d="M50 783l 0 1 1 1 1 1 0 1 1 2 1 1 0 2 0 3 9-8 1-2 1-1 1 0 1-1 1-1 1-1 1-1 1-1-1 0-1 0-1-1-1 0 0-1 0-1 0-2-1 0-1 0-1 1-1 0-1 0-1 1-1 1-1 2-9 4" stroke="#000"/>
  <path d="M159 687l 7 1 7 2 7 3 5 5 5 5 3 7 2 7 1 7-1 8-2 7-3 6-5 6-5 4-7 4-7 2-7 1-8-1-7-2-6-4-6-4-5-6-3-6-2-7-1-8 1-7 2-7 3-7 5-5 6-5 6-3 7-2 8-1z" fill="#000"/>
  <path d="M159 699l 5 1 6 2 4 2 3 3 3 4 2 4 1 5 1 4-1 5-1 4-2 5-3 3-3 4-4 2-6 2-5 0-5 0-5-2-4-2-3-4-4-3-2-5-2-4 0-5 0-4 2-5 2-4 4-4 3-3 4-2 5-2 5-1z" fill="#e5e5e5"/>
  <path d="M159 699l 5 1 6 2 4 2 3 3 3 4 2 4 1 5 1 4-1 5-1 4-2 5-3 3-3 4-4 2-6 2-5 0-5 0-5-2-4-2-3-4-4-3-2-5-2-4 0-5 0-4 2-5 2-4 4-4 3-3 4-2 5-2 5-1" stroke="#000"/>
  <path d="M159 712l 3 0 2 0 2 1 2 2 1 2 1 2 1 2 0 3 0 3-1 3-1 2-1 2-2 1-2 1-2 1-3 0-3 0-3-1-2-1-2-1-1-2-1-2-1-3 0-3 0-3 1-2 1-2 1-2 2-2 2-1 3 0 3 0z" fill="#ccc"/>
  <path d="M159 712l 3 0 2 0 2 1 2 2 1 2 1 2 1 2 0 3 0 3-1 3-1 2-1 2-2 1-2 1-2 1-3 0-3 0-3-1-2-1-2-1-1-2-1-2-1-3 0-3 0-3 1-2 1-2 1-2 2-2 2-1 3 0 3 0" stroke="#333"/>
  <path d="M159 699l 4 5-4 4-5-4 5-5z" fill="#e5e5e5"/>
  <path d="M159 699l 4 5-4 4-5-4 5-5" stroke="#000"/>
  <path d="M142 737l 4 0 4 0 0 4-4 0-4 0 0-4z" fill="#e5e5e5"/>
  <path d="M142 737l 4 0 4 0 0 4-4 0-4 0 0-4" stroke="#000"/>
  <path d="M167 737l 4 0 4 0 0 4-4 4-4 0 0-4 0-4z" fill="#e5e5e5"/>
  <path d="M167 737l 4 0 4 0 0 4-4 4-4 0 0-4 0-4" stroke="#000"/>
  <path d="M175 712l 5 4-5 4-4-4 4-4z" fill="#e5e5e5"/>
  <path d="M175 712l 5 4-5 4-4-4 4-4" stroke="#000"/>
  <path d="M138 712l 4 0 4 0 0 4-4 4-4 0 0-4 0-4z" fill="#e5e5e5"/>
  <path d="M138 712l 4 0 4 0 0 4-4 4-4 0 0-4 0-4" stroke="#000"/>
  <path d="M159 704l 0 0" stroke="#000"/>
  <path d="M146 737l 0 4 0-4z" fill="#e5e5e5"/>
  <path d="M146 737l 0 4 0-4" stroke="#000"/>
  <path d="M171 737l 0 4-4 0 4-4z" fill="#e5e5e5"/>
  <path d="M171 737l 0 4-4 0 4-4" stroke="#000"/>
  <path d="M175 716l 0 0" stroke="#000"/>
  <path d="M142 712l 0 4 0-4z" fill="#e5e5e5"/>
  <path d="M142 712l 0 4 0-4" stroke="#000"/>
  <path d="M146 720l 25 0 0 1 0 2 0 0 0 1 0 1 0 1 0 1 0 1-25 0 0-1 0-1 0-1 0-1 0-1 0 0 0-2 0-1z" fill="#e5e5e5"/>
  <path d="M146 720l 25 0 0 1 0 2 0 1 0 1 0 1 0 1 0 1-25 0 0-1 0-1 0-1 0-1 0-1 0-2 0-1" stroke="#000"/>
  <path d="M159 670l 1 0 2 1 1 1 1 1 1 1 1 1 1 2 0 1 0 1-1 0-1 1-1 1-1 0-1 1-2 0-1 1-2-1-1 0-2-1-1 0-1-1-1-1 0 0-1-1 1-1 0-2 1-1 1-1 1-1 2-1 1-1 2 0z" fill="#000"/>
  <path d="M159 670l 1 0 2 1 1 1 1 1 1 1 1 1 1 2 0 1 0 1-1 0-1 1-1 1-1 0-1 1-2 0-1 1-2-1-1 0-2-1-1 0-1-1-1-1-1-1 1-1 0-2 1-1 1-1 1-1 2-1 1-1 2 0" stroke="#000"/>
  <path d="M109 708l 1-2 1-1 1-2 1-1 1-1 1-1 1 0 1-1 1 2 1 2 1 1 1 2 0 1 0 2 0 1 0 2-1 1-2 1-1 1-2 0-1 1 0 0-1 0 0 0-1 0-1-1-1-1-1-1 0-1 0-1 0-2 0-1z" fill="#000"/>
  <path d="M109 708l 1-2 1-1 1-2 1-1 1-1 1-1 1 0 1-1 1 2 1 2 1 1 1 2 0 1 0 2 0 1 0 2-1 1-2 1-1 1-2 0-1 1-1 0-1 0-1-1-1-1-1-1 0-1 0-1 0-2 0-1" stroke="#000"/>
  <path d="M209 708l-1-2 0-1-1 0-1-1-1 0-2 0-1 0-2 0 0 0 0 0-1 1 0 1-1 1 1 2 0 1 1 2 0 1 1 2 1 1 0 1 1 1 1 0 0-1 0-1 2 0 1-1 1-1 0-1 0-1 1-1 0-2 0-1z" fill="#000"/>
  <path d="M209 708l-1-2 0-1-1 0-1-1-1 0-2 0-1 0-2 0-1 1 0 1-1 1 1 2 0 1 1 2 0 1 1 2 1 1 0 1 1 1 1 0 0-1 0-1 2 0 1-1 1-1 0-1 0-1 1-1 0-2 0-1" stroke="#000"/>
  <path d="M109 741l 1 2 1 1 1 1 1 1 1 1 1 0 1-1 1-1 1 0 1 0 1-1 0-1 0-2-1-1-1-2-1-1 0-2-1-1 0 0-1-1-1 0 0 0-1 0 0 0-1 0-1 0-1 1-1 1 0 2 0 1 0 2 0 1z" fill="#000"/>
  <path d="M109 741l 1 2 1 1 1 1 1 1 1 1 1 0 1-1 1-1 1 0 1 0 1-1 0-1 0-2-1-1-1-2-1-1 0-2-1-1-1-1-1 0-1 0-1 0-1 0-1 1-1 1 0 2 0 1 0 2 0 1" stroke="#000"/>
  <path d="M209 741l-1 2 0 1-1 1-1 2-1 1-2 1-1 0-2 0 0 0 0 0-1-1 0-1-1-2 1-1 0-1 1-2 0-1 1-2 1-1 1-2 1-1 2-1 1 0 2 0 0 0 0 0 0 1 0 1 0 2 0 1 0 2 0 1z" fill="#000"/>
  <path d="M209 741l-1 2 0 1-1 1-1 2-1 1-2 1-1 0-2 0-1-1 0-1-1-2 1-1 0-1 1-2 0-1 1-2 1-1 1-2 1-1 2-1 1 0 2 0 0 1 0 1 0 2 0 1 0 2 0 1" stroke="#000"/>
  <path d="M159 766l 1 0 2 1 1 1 1 1 1 1 1 1 1 2 0 1 0 1-1 0-1 1-1 0-1 1-1 1-2 0-1 1-2-1-1 0-2-1-1-1-1 0-1-1 0 0-1-1 1-1 0-2 1-1 1-1 1-1 2-1 1-1 2 0z" fill="#000"/>
  <path d="M159 766l 1 0 2 1 1 1 1 1 1 1 1 1 1 2 0 1 0 1-1 0-1 1-1 0-1 1-1 1-2 0-1 1-2-1-1 0-2-1-1-1-1 0-1-1-1-1 1-1 0-2 1-1 1-1 1-1 2-1 1-1 2 0" stroke="#000"/>
  <path d="M184 758l 1 0 2 0 1 0 1 0 1 0 1 0 1 0 0 0 1 1 1 2 0 1-1 1-1 1-1 1-2 1-1 0 0 1-1 1-1 1-1 0-1 0-1-1-2-1-1-1 0 0 0-1 0-1 0-1 1-1 0-1 1-2 2-1z" fill="#000"/>
  <path d="M184 758l 1 0 2 0 1 0 1 0 1 0 1 0 1 0 1 1 1 2 0 1-1 1-1 1-1 1-2 1-1 0 0 1-1 1-1 1-1 0-1 0-1-1-2-1-1-1 0-1 0-1 0-1 1-1 0-1 1-2 2-1" stroke="#000"/>
  <path d="M134 758l-2 0-1 0-2 0-1 0-1 0-1 0-1 0 0 0-1 1 0 2 0 1 0 1 1 1 1 1 2 1 1 0 1 1 1 1 1 1 2 0 1 0 2-1 1-1 0-1 0 0 0-1 0-1-1-1 0-1-1-1-1-2-1-1z" fill="#000"/>
  <path d="M134 758l-2 0-1 0-2 0-1 0-1 0-1 0-1 0-1 1 0 2 0 1 0 1 1 1 1 1 2 1 1 0 1 1 1 1 1 1 2 0 1 0 2-1 1-1 0-1 0-1 0-1-1-1 0-1-1-1-1-2-1-1" stroke="#000"/>
  <path d="M134 691l-2 0-1 0-2 0-1 0-1 0-1 0-1 0 0 0-1-2 0-1 0-2 0-1 1-1 1-1 2 0 1 0 2-2 2-1 1 0 1-1 1 1 1 0 1 1 0 2 1 0 1 0-1 1 0 1-1 1-1 2-2 1-1 2z" fill="#000"/>
  <path d="M134 691l-2 0-1 0-2 0-1 0-1 0-1 0-1 0-1-2 0-1 0-2 0-1 1-1 1-1 2 0 1 0 2-2 2-1 1 0 1-1 1 1 1 0 1 1 0 2 1 0 1 0-1 1 0 1-1 1-1 2-2 1-1 2" stroke="#000"/>
  <path d="M184 691l 1 0 2 0 1 0 2 0 1 0 2 0 2 0 1 0 0-2-1-1 0-2-1-1-1-1 0-1-1 0 0 0-2-2-1-1-2 0-1-1-2 1-1 0-2 1-1 2 0 0 0 0 0 1 0 1 1 1 0 2 1 1 2 2z" fill="#000"/>
  <path d="M184 691l 1 0 2 0 1 0 2 0 1 0 2 0 2 0 1 0 0-2-1-1 0-2-1-1-1-1 0-1-1 0-2-2-1-1-2 0-1-1-2 1-1 0-2 1-1 2 0 1 0 1 1 1 0 2 1 1 2 2" stroke="#000"/>
  <path d="M1267 645l-12-4-84 0-58-8 0 29 62 12 84 0 8-4 0-25z" fill="#999"/>
  <path d="M1267 645l-12-4-84 0-58-8 0 29 62 12 84 0 8-4 0-25" stroke="#000"/>
  <path d="M1255 641l 16 0 5 0 0 29-9 4-8 0 8-4 0-25-12-4z" fill="#ccc"/>
  <path d="M1255 641l 16 0 5 0 0 29-9 4-8 0 8-4 0-25-12-4" stroke="#000"/>
  <path d="M1055 603l 12 1 12 2 12 3 11 4 10 5 10 6 9 7 9 8 8 9 7 10 6 10 5 11 4 12 3 12 2 12 0 13 0 13-2 12-3 12-4 11-5 11-6 10-7 10-8 9-9 8-9 8-10 6-10 5-11 5-12 3-12 2-12 1-14-1-12-2-12-3-12-5-11-5-10-6-10-8-8-8-8-9-7-10-7-10-5-11-4-11-3-12-2-12 0-13 0-13 2-12 3-12 4-12 5-11 7-10 7-10 8-9 8-8 10-7 10-6 11-5 12-4 12-3 12-2 14-1z" fill="#000"/>
  <path d="M1055 603l 12 1 12 2 12 3 11 4 10 5 10 6 9 7 9 8 8 9 7 10 6 10 5 11 4 12 3 12 2 12 0 13 0 13-2 12-3 12-4 11-5 11-6 10-7 10-8 9-9 8-9 8-10 6-10 5-11 5-12 3-12 2-12 1-14-1-12-2-12-3-12-5-11-5-10-6-10-8-8-8-8-9-7-10-7-10-5-11-4-11-3-12-2-12 0-13 0-13 2-12 3-12 4-12 5-11 7-10 7-10 8-9 8-8 10-7 10-6 11-5 12-4 12-3 12-2 14-1" stroke="#000"/>
  <path d="M1051 620l 10 1 11 1 10 3 9 4 10 5 8 5 8 6 8 8 6 7 6 9 5 9 5 9 3 10 3 10 1 11 1 10-1 11-1 11-3 10-3 9-5 9-5 9-6 8-6 7-8 7-8 6-8 5-10 4-9 4-10 2-11 2-10 1-11-1-9-2-10-2-10-4-9-4-8-5-8-6-8-7-7-7-6-8-6-9-4-9-4-9-3-10-1-11-1-11 1-10 1-11 3-10 4-10 4-9 6-9 6-9 7-7 8-8 8-6 8-5 9-5 10-4 10-3 9-1 11-1z" fill="#000"/>
  <path d="M1055 645l 7 1 8 1 7 2 7 3 7 3 7 4 6 5 6 6 5 6 5 6 4 7 3 7 3 8 2 8 1 8 1 8-1 9-1 8-2 8-3 8-3 7-4 7-5 6-5 6-6 6-6 5-7 4-7 3-7 3-7 2-8 1-7 1-9-1-8-1-8-2-8-3-7-3-7-4-6-5-6-6-6-6-4-6-5-7-3-7-3-8-2-8-1-8-1-9 1-8 1-8 2-8 3-8 3-7 5-7 4-6 6-6 6-6 6-5 7-4 7-3 8-3 8-2 8-1 9-1z" fill="#e5e5e5"/>
  <path d="M1055 645l 7 1 8 1 7 2 7 3 7 3 7 4 6 5 6 6 5 6 5 6 4 7 3 7 3 8 2 8 1 8 1 8-1 9-1 8-2 8-3 8-3 7-4 7-5 6-5 6-6 6-6 5-7 4-7 3-7 3-7 2-8 1-7 1-9-1-8-1-8-2-8-3-7-3-7-4-6-5-6-6-6-6-4-6-5-7-3-7-3-8-2-8-1-8-1-9 1-8 1-8 2-8 3-8 3-7 5-7 4-6 6-6 6-6 6-5 7-4 7-3 8-3 8-2 8-1 9-1" stroke="#333"/>
  <path d="M1055 649l 7 1 8 1 7 2 7 2 6 3 7 4 5 5 6 5 4 5 5 6 4 7 3 7 2 7 2 8 1 8 1 8-1 8-1 8-2 7-2 7-3 7-4 7-5 6-4 6-6 5-5 5-7 4-6 3-7 3-7 2-8 1-7 1-9-1-8-1-8-2-7-3-7-3-6-4-7-5-5-5-5-6-4-6-4-7-3-7-3-7-2-7-1-8 0-8 0-8 1-8 2-8 3-7 3-7 4-7 4-6 5-5 5-5 7-5 6-4 7-3 7-2 8-2 8-1 9-1z" fill="#e5e5e5"/>
  <path d="M1055 649l 7 1 8 1 7 2 7 2 6 3 7 4 5 5 6 5 4 5 5 6 4 7 3 7 2 7 2 8 1 8 1 8-1 8-1 8-2 7-2 7-3 7-4 7-5 6-4 6-6 5-5 5-7 4-6 3-7 3-7 2-8 1-7 1-9-1-8-1-8-2-7-3-7-3-6-4-7-5-5-5-5-6-4-6-4-7-3-7-3-7-2-7-1-8 0-8 0-8 1-8 2-8 3-7 3-7 4-7 4-6 5-5 5-5 7-5 6-4 7-3 7-2 8-2 8-1 9-1" stroke="#333"/>
  <path d="M1055 654l 6 0 7 1 7 2 6 2 7 4 5 3 6 5 5 4 5 6 4 5 4 7 3 6 2 7 2 7 1 8 1 7-1 7-1 7-2 7-2 6-3 7-4 5-4 6-5 5-5 5-6 4-5 3-7 3-6 3-7 2-7 1-6 0-8 0-8-1-7-2-7-3-6-3-6-3-6-4-6-5-4-5-5-6-3-5-4-7-2-6-2-7-1-7 0-7 0-7 1-8 2-7 2-7 4-6 3-7 5-5 4-6 6-4 6-5 6-3 6-4 7-2 7-2 8-1 8 0z" fill="#999"/>
  <path d="M1055 654l 6 0 7 1 7 2 6 2 7 4 5 3 6 5 5 4 5 6 4 5 4 7 3 6 2 7 2 7 1 8 1 7-1 7-1 7-2 7-2 6-3 7-4 5-4 6-5 5-5 5-6 4-5 3-7 3-6 3-7 2-7 1-6 0-8 0-8-1-7-2-7-3-6-3-6-3-6-4-6-5-4-5-5-6-3-5-4-7-2-6-2-7-1-7 0-7 0-7 1-8 2-7 2-7 4-6 3-7 5-5 4-6 6-4 6-5 6-3 6-4 7-2 7-2 8-1 8 0" stroke="#ccc"/>
  <path d="M1051 666l 6 0 6 1 6 2 5 2 6 3 5 3 5 3 4 4 4 5 4 4 3 5 3 5 2 5 2 5 1 6 0 5 0 6-1 6-2 6-2 5-3 6-3 4-4 5-4 4-4 4-5 3-5 3-6 2-5 2-6 2-6 0-6 1-6-1-5 0-6-2-5-2-5-2-5-3-4-3-5-4-4-4-3-5-3-4-3-6-2-5-2-6-1-6 0-6 0-5 1-6 2-5 2-5 6-10 7-9 9-7 10-6 5-2 6-2 5-1 6 0z" fill="#000"/>
  <path d="M1051 666l 6 0 6 1 6 2 5 2 6 3 5 3 5 3 4 4 4 5 4 4 3 5 3 5 2 5 2 5 1 6 0 5 0 6-1 6-2 6-2 5-3 6-3 4-4 5-4 4-4 4-5 3-5 3-6 2-5 2-6 2-6 0-6 1-6-1-5 0-6-2-5-2-5-2-5-3-4-3-5-4-4-4-3-5-3-4-3-6-2-5-2-6-1-6 0-6 0-5 1-6 2-5 2-5 6-10 7-9 9-7 10-6 5-2 6-2 5-1 6 0" stroke="#333"/>
  <path d="M1046 603l 2 0 2 0 1 0 2 0 1 0 2 0 1 0 2 0 0 13 0 1-1 2-1 0 0 1-1 1-1 1 0 1 0 1-4 0-2-1-1-1-1-1 0-1 0-2-1-1 0-2 0-3 0-9z" fill="#000"/>
  <path d="M1046 603l 2 0 2 0 1 0 2 0 1 0 2 0 1 0 2 0 0 13 0 1-1 2-1 0 0 1-1 1-1 1 0 1 0 1-4 0-2-1-1-1-1-1 0-1 0-2-1-1 0-2 0-3 0-9" stroke="#000"/>
  <path d="M959 649l 0 0 1 0 0-1 1-1 2-2 1-1 2-2 1-1 4 8 2 2 1 1 1 1 0 1 0 0 1 1 0 1 0 2 0 0 0 0-1 0 0 0 0 1-1 0-1 2-2 1 0 0 0-1-1 0-1-1-1-1-2-1-1 0-2 0-4-9z" fill="#000"/>
  <path d="M959 649l 1 0 0-1 1-1 2-2 1-1 2-2 1-1 4 8 2 2 1 1 1 1 0 1 1 1 0 1 0 2-1 0 0 1-1 0-1 2-2 1 0-1-1 0-1-1-1-1-2-1-1 0-2 0-4-9" stroke="#000"/>
  <path d="M1046 854l 2 0 2 0 1 0 2 0 1 0 2 0 1 0 2 0 0-13 0-1-1-2-1 0 0-1-1-1-1-1 0-1 0-1-4 0-2 1-1 1-1 1 0 1 0 1-1 0 0 2 0 1 0 13z" fill="#000"/>
  <path d="M1046 854l 2 0 2 0 1 0 2 0 1 0 2 0 1 0 2 0 0-13 0-1-1-2-1 0 0-1-1-1-1-1 0-1 0-1-4 0-2 1-1 1-1 1 0 1 0 1-1 0 0 2 0 1 0 13" stroke="#000"/>
  <path d="M1175 745l 0-1 0-2 0-1 0-2 0-2 0-1 0-2 0-1-8 0-1 0-2 0-1 0-1 0-2 0 0 0-1 0 0 0 0 1 0 1 0 1 0 1 0 1 0 1 0 1 0 1 0 0 1 0 0 0 2 1 1 0 1 1 2 1 1 1 8 0z" fill="#000"/>
  <path d="M1175 745l 0-1 0-2 0-1 0-2 0-2 0-1 0-2 0-1-8 0-1 0-2 0-1 0-1 0-2 0-1 0 0 1 0 1 0 1 0 1 0 1 0 1 0 1 0 1 1 0 2 1 1 0 1 1 2 1 1 1 8 0" stroke="#000"/>
  <path d="M930 745l 0-1 0-2 0-1 0-2 0-2 0-1 0-2 0-1 8 0 2 0 1 0 1 0 2 0 1 0 0 0 1 0 0 0 0 1 0 1 0 1 0 1 0 1 0 1 0 1 0 1 0 0-1 0 0 0-1 0-2 0-1 0-1 0-2 0-8 4z" fill="#000"/>
  <path d="M930 745l 0-1 0-2 0-1 0-2 0-2 0-1 0-2 0-1 8 0 2 0 1 0 1 0 2 0 1 0 1 0 0 1 0 1 0 1 0 1 0 1 0 1 0 1 0 1-1 0-1 0-2 0-1 0-1 0-2 0-8 4" stroke="#000"/>
  <path d="M1121 624l 2 2 1 1 2 1 1 1 1 0 1 1 0 1 1 2-4 8-2 0-1 1-1 0-1 1 0 1-1 0-1 1-2 0-4-4 0-1 0-2 0 0 1-1 0-1 1-1 1-1 1-1 4-9z" fill="#000"/>
  <path d="M1121 624l 2 2 1 1 2 1 1 1 1 0 1 1 0 1 1 2-4 8-2 0-1 1-1 0-1 1 0 1-1 0-1 1-2 0-4-4 0-1 0-2 1-1 0-1 1-1 1-1 1-1 4-9" stroke="#000"/>
  <path d="M1138 641l 1 0 2 1 1 0 2 2 1 1 1 1 0 2 0 1-4 5-1 1-2 1-1 1-2 0-1 0-1 1 0 0 0 0-2 0-1-1 0-1-1 0 0-1 0-1 0 0 0 0 0-2 0-1 0-1 0-1 1 0 0-1 1-1 2-2 4-4z" fill="#000"/>
  <path d="M1138 641l 1 0 2 1 1 0 2 2 1 1 1 1 0 2 0 1-4 5-1 1-2 1-1 1-2 0-1 0-1 1-2 0-1-1 0-1-1 0 0-1 0-1 0-2 0-1 0-1 0-1 1 0 0-1 1-1 2-2 4-4" stroke="#000"/>
  <path d="M1121 833l 2-2 2-1 1-1 2-1 1 0 2-1 1-1 2-2-8-8-2-1-1-1-1-1-1-1 0 0-1 0-1 0-2 0 0 0 0 0 0 0 0 0-1 1-1 1-1 1-1 1 0 0 0 1 0 1 1 1 0 1 1 1 1 2 1 1 4 9z" fill="#000"/>
  <path d="M1121 833l 2-2 2-1 1-1 2-1 1 0 2-1 1-1 2-2-8-8-2-1-1-1-1-1-1-1-1 0-1 0-2 0-1 1-1 1-1 1-1 1 0 1 0 1 1 1 0 1 1 1 1 2 1 1 4 9" stroke="#000"/>
  <path d="M1159 666l 0-1-1-1 0-1-1-1-1-1-1-1 0-1 0-1-9 4-1 1-1 1-1 1 0 1-1 1 0 1 0 1 0 1 0 4 2 0 1 0 1 0 0 0 1-1 1 0 1-1 2-2 8-4z" fill="#000"/>
  <path d="M1159 666l 0-1-1-1 0-1-1-1-1-1-1-1 0-1 0-1-9 4-1 1-1 1-1 1 0 1-1 1 0 1 0 1 0 1 0 4 2 0 1 0 1 0 1-1 1 0 1-1 2-2 8-4" stroke="#000"/>
  <path d="M942 670l 1-1 1-2 1-1 1-2 1-2 1-1 1-2 1-1 9 4 1 1 1 1 1 1 0 1 1 1 0 1 0 1 0 1 0 2 0 1 0 0-1 1 0 0-1 0-1 0-1 0 0 0-1 0-1 0-1 0-1 0-2 0-1 0-2 0-8-4z" fill="#000"/>
  <path d="M942 670l 1-1 1-2 1-1 1-2 1-2 1-1 1-2 1-1 9 4 1 1 1 1 1 1 0 1 1 1 0 1 0 1 0 1 0 2 0 1-1 1-1 0-1 0-1 0-1 0-1 0-1 0-1 0-2 0-1 0-2 0-8-4" stroke="#000"/>
  <path d="M984 624l-2 2-1 2-2 1-1 1-2 1-1 1-2 1-2 0 9 8 1 1 1 1 1 1 1 1 1 0 0 0 2 0 1 0 0 0 0 0 0 0 0 0 1-1 1-1 1-1 1-1 0 0 0-1 0-1 0-1-1-1-1-1-1-2-1-1-4-9z" fill="#000"/>
  <path d="M984 624l-2 2-1 2-2 1-1 1-2 1-1 1-2 1-2 0 9 8 1 1 1 1 1 1 1 1 1 0 2 0 1 0 1-1 1-1 1-1 1-1 0-1 0-1 0-1-1-1-1-1-1-2-1-1-4-9" stroke="#000"/>
  <path d="M984 828l-3 0-2 0-2-1-1-1-1-1-1-2-1-1-2-2 5-4 1-2 2-1 1-1 1-2 1-1 1-1 1 0 0 0 1 1 1 1 1 1 0 0 1 1 0 0 0 0 0 0 0 1 0 1 0 1 0 1 0 1 0 1 0 1 0 1-4 8z" fill="#000"/>
  <path d="M984 828l-3 0-2 0-2-1-1-1-1-1-1-2-1-1-2-2 5-4 1-2 2-1 1-1 1-2 1-1 1-1 1 0 1 1 1 1 1 1 1 1 0 1 0 1 0 1 0 1 0 1 0 1 0 1 0 1-4 8" stroke="#000"/>
  <path d="M1146 808l 0 1 0 1-1 1-1 1-2 1-1 1-2 1-1 1-4-4-2-2-1-1 0-2-1-1 0-1 0-1 0 0 0-1 0-1 0-1 0-1 0 0 1-1 0 0 1 0 2 0 0 0 0 0 1 0 1 1 2 0 1 1 2 1 1 1 4 5z" fill="#000"/>
  <path d="M1146 808l 0 1 0 1-1 1-1 1-2 1-1 1-2 1-1 1-4-4-2-2-1-1 0-2-1-1 0-1 0-1 0-1 0-1 0-1 0-1 1-1 1 0 2 0 1 0 1 1 2 0 1 1 2 1 1 1 4 5" stroke="#000"/>
  <path d="M955 803l 1 2 1 2 1 1 1 2 1 1 1 2 1 1 1 2 8-8 2-2 1-1 1-2 0-1 0-1 1-1 0-1 0 0-1-1 0-1-1-1 0 0-1-1-1 0 0 0-1 0-1 0-1 0-1 0-1 1-1 0-1 1-1 1-1 1-8 4z" fill="#000"/>
  <path d="M955 803l 1 2 1 2 1 1 1 2 1 1 1 2 1 1 1 2 8-8 2-2 1-1 1-2 0-1 0-1 1-1 0-1-1-1 0-1-1-1-1-1-1 0-1 0-1 0-1 0-1 0-1 1-1 0-1 1-1 1-1 1-8 4" stroke="#000"/>
  <path d="M1071 608l 2 0 1 0 2 0 2 0 1 0 2 0 1 0 2 0 0 8-1 2-2 1 0 2-1 1-1 1-1 1-1 0-1 0 0 0-1 0 0 0 0 0-1 0 0 0-1 0-2 0 0-1 0-1 0-1 0-1 0-1 0 0 0-2 0-1 0-8z" fill="#000"/>
  <path d="M1071 608l 2 0 1 0 2 0 2 0 1 0 2 0 1 0 2 0 0 8-1 2-2 1 0 2-1 1-1 1-1 1-1 0-1 0-1 0-1 0-1 0-2 0 0-1 0-1 0-1 0-1 0-1 0-2 0-1 0-8" stroke="#000"/>
  <path d="M1071 849l 2 0 1 0 2 0 2 0 1 0 2 0 1 0 2 0 0-8-1-2-2-1 0-2-1-1-1-1-1-1-1 0-1 0 0 0-1 0 0 0 0 0-1 0 0 0-1 0-2 0 0 1 0 1 0 1 0 1 0 1 0 0 0 2 0 1 0 8z" fill="#000"/>
  <path d="M1071 849l 2 0 1 0 2 0 2 0 1 0 2 0 1 0 2 0 0-8-1-2-2-1 0-2-1-1-1-1-1-1-1 0-1 0-1 0-1 0-1 0-2 0 0 1 0 1 0 1 0 1 0 1 0 2 0 1 0 8" stroke="#000"/>
  <path d="M1175 720l 0-1 0-2 0-2 0-2 0-2 0-2 0-3 0-2-8 4-3 0-2 0-1 0-1 0-1 1 0 0 0 1 0 2 0 4 0 1 1 1 0 1 2 1 1 0 1 0 2 0 1 0 8 0z" fill="#000"/>
  <path d="M1175 720l 0-1 0-2 0-2 0-2 0-2 0-2 0-3 0-2-8 4-3 0-2 0-1 0-1 0-1 1 0 1 0 2 0 4 0 1 1 1 0 1 2 1 1 0 1 0 2 0 1 0 8 0" stroke="#000"/>
  <path d="M930 720l 0-1 0-2 0-2 0-2 0-2 0-2 0-3 0-2 12 4 1 0 1 0 1 0 1 0 1 1 1 0 1 1 1 2 0 0 0 0 0 1 0 1-1 1 0 0-1 1-2 0 0 0-1 0 0 1-1 0-2 1-1 0-1-1-2-1-8 4z" fill="#000"/>
  <path d="M930 720l 0-1 0-2 0-2 0-2 0-2 0-2 0-3 0-2 12 4 1 0 1 0 1 0 1 0 1 1 1 0 1 1 1 2 0 1 0 1-1 1-1 1-2 0-1 0 0 1-1 0-2 1-1 0-1-1-2-1-8 4" stroke="#000"/>
  <path d="M1096 612l 2 1 1 1 2 1 2 1 1 1 2 1 1 1 2 1-4 4-2 2-1 2-1 1 0 1 0 1-1 1 0 1 0 0-1 0-1 0-1 0-1-1-1 0 0-1-2-1-1-1 0-1 0 0 0-1 1-1 0-1 1-2 1-1 1-2 0-8z" fill="#000"/>
  <path d="M1096 612l 2 1 1 1 2 1 2 1 1 1 2 1 1 1 2 1-4 4-2 2-1 2-1 1 0 1 0 1-1 1 0 1-1 0-1 0-1 0-1-1-1 0 0-1-2-1-1-1 0-1 0-1 1-1 0-1 1-2 1-1 1-2 0-8" stroke="#000"/>
  <path d="M1096 845l 2-1 1-1 2-1 2-1 1-1 2-1 1-1 2-1-4-4-2-2-1-2-1-1 0-1 0-1-1-1 0-1 0 0-1 0-1 0-1 0-1 1-1 0 0 1-2 1-1 1 0 1 0 0 0 1 1 1 0 1 1 2 1 1 1 2 0 8z" fill="#000"/>
  <path d="M1096 845l 2-1 1-1 2-1 2-1 1-1 2-1 1-1 2-1-4-4-2-2-1-2-1-1 0-1 0-1-1-1 0-1-1 0-1 0-1 0-1 1-1 0 0 1-2 1-1 1 0 1 0 1 1 1 0 1 1 2 1 1 1 2 0 8" stroke="#000"/>
  <path d="M1171 691l 0-2 0-1-1-2-1-1-1-2 0-1-1-2 0-2-8 5-1 1-2 1 0 1-1 1-1 1-1 1-1 1-1 1 4 4 1 0 1 0 1 0 1 0 1 0 1 0 1 0 1 0 8-4z" fill="#000"/>
  <path d="M1171 691l 0-2 0-1-1-2-1-1-1-2 0-1-1-2 0-2-8 5-1 1-2 1 0 1-1 1-1 1-1 1-1 1-1 1 4 4 1 0 1 0 1 0 1 0 1 0 1 0 1 0 1 0 8-4" stroke="#000"/>
  <path d="M934 691l 0-2 1-1 0-2 1-1 1-2 0-1 1-2 0-2 8 5 2 1 1 1 2 1 1 1 1 1 1 1 0 1 1 1 0 0 0 1-1 0 0 1 0 1-1 1-1 0-2 0 0 0 0 0-1 0-1 0-1 0-2 0-1 0-2 0-8-4z" fill="#000"/>
  <path d="M934 691l 0-2 1-1 0-2 1-1 1-2 0-1 1-2 0-2 8 5 2 1 1 1 2 1 1 1 1 1 1 1 0 1 1 1 0 1-1 0 0 1 0 1-1 1-1 0-2 0-1 0-1 0-1 0-2 0-1 0-2 0-8-4" stroke="#000"/>
  <path d="M1030 608l-2 0-2 0-1 0-2 0-1 1-2 0-1 1-2 2 4 8 0 2 1 1 1 0 0 1 1 0 1 0 0 0 0 0 2 0 1 0 1 0 0 0 0 0 1 0 0 0 0 0 1-1 1-1 1-1 0-1 0-1-1 0-1-2-1-1 0-8z" fill="#000"/>
  <path d="M1030 608l-2 0-2 0-1 0-2 0-1 1-2 0-1 1-2 2 4 8 0 2 1 1 1 0 0 1 1 0 1 0 2 0 1 0 1 0 1 0 1-1 1-1 1-1 0-1 0-1-1 0-1-2-1-1 0-8" stroke="#000"/>
  <path d="M1030 849l-2 0-2 0-1 0-2 0-1-1-2 0-1-1-2-2 4-8 0-2 1-1 1 0 0-1 1 0 1 0 0 0 0 0 2 0 1 0 1 0 0 0 0 0 1 0 0 0 0 0 1 1 1 1 1 1 0 1 0 1-1 0-1 2-1 1 0 8z" fill="#000"/>
  <path d="M1030 849l-2 0-2 0-1 0-2 0-1-1-2 0-1-1-2-2 4-8 0-2 1-1 1 0 0-1 1 0 1 0 2 0 1 0 1 0 1 0 1 1 1 1 1 1 0 1 0 1-1 0-1 2-1 1 0 8" stroke="#000"/>
  <path d="M1171 762l 0 1 0 2 0 2 0 1-1 2-1 1-1 2-1 1-8-4-1-1-1-1-1-1-1-1 0-1 0-1 0-1 0-1 0-4 1 0 1 0 1 0 1 0 1 0 1 0 1 0 1 0 8 4z" fill="#000"/>
  <path d="M1171 762l 0 1 0 2 0 2 0 1-1 2-1 1-1 2-1 1-8-4-1-1-1-1-1-1-1-1 0-1 0-1 0-1 0-1 0-4 1 0 1 0 1 0 1 0 1 0 1 0 1 0 1 0 8 4" stroke="#000"/>
  <path d="M934 758l 0 3 0 2 0 2 0 3 1 1 1 2 1 2 1 1 8-8 2 0 1 0 1 0 0-1 1 0 1-1 1-1 2-1-2 0-1-1-1-1 0 0 0-1-1-1 0 0 0 0 0 0 0 0-1 0-1 0-1 0-2 0-1 0-2 0-8 0z" fill="#000"/>
  <path d="M934 758l 0 3 0 2 0 2 0 3 1 1 1 2 1 2 1 1 8-8 2 0 1 0 1 0 0-1 1 0 1-1 1-1 2-1-2 0-1-1-1-1 0-1-1-1-1 0-1 0-1 0-2 0-1 0-2 0-8 0" stroke="#000"/>
  <path d="M1009 612l-3 1-3 1-2 1-2 1-2 1-2 1-1 1-2 1 9 9 0 1 0 1 1 1 1 0 0 1 1 0 1 0 0 0 1 0 1 0 1 0 1-1 1 0 1-1 1-1 1-1 0-1-1 0 0-1-1-1-1-1 0-2-1-1 0-2 0-8z" fill="#000"/>
  <path d="M1009 612l-3 1-3 1-2 1-2 1-2 1-2 1-1 1-2 1 9 9 0 1 0 1 1 1 1 0 0 1 1 0 1 0 1 0 1 0 1 0 1-1 1 0 1-1 1-1 1-1 0-1-1 0 0-1-1-1-1-1 0-2-1-1 0-2 0-8" stroke="#000"/>
  <path d="M1009 845l-3-1-3-1-2-1-2-1-2-1-2-1-1-1-2-1 9-9 0-1 0-1 1-1 1 0 0-1 1 0 1 0 0 0 1 0 1 0 1 0 1 1 1 0 1 1 1 1 1 1 0 1-1 0 0 1-1 1-1 1 0 2-1 1 0 2 0 8z" fill="#000"/>
  <path d="M1009 845l-3-1-3-1-2-1-2-1-2-1-2-1-1-1-2-1 9-9 0-1 0-1 1-1 1 0 0-1 1 0 1 0 1 0 1 0 1 0 1 1 1 0 1 1 1 1 1 1 0 1-1 0 0 1-1 1-1 1 0 2-1 1 0 2 0 8" stroke="#000"/>
  <path d="M1163 783l 0 1-1 2 0 1-1 2-1 1 0 2-1 1 0 2-8-4-2-2-1-1-1-1 0 0 0-1-1-1 0-1 0-1 0-4 2 0 1 0 2 0 1 0 1 0 1 0 1 0 0 0 8 4z" fill="#000"/>
  <path d="M1163 783l 0 1-1 2 0 1-1 2-1 1 0 2-1 1 0 2-8-4-2-2-1-1-1-1 0-1-1-1 0-1 0-1 0-4 2 0 1 0 2 0 1 0 1 0 1 0 1 0 8 4" stroke="#000"/>
  <path d="M942 783l 0 1 1 2 1 1 1 2 1 1 1 2 2 1 1 2 5-8 1 0 2-1 1-1 1 0 1-1 1-1 1 0 0 0-1-2-1-1-1 0-1-1 0 0 0 0 0 0 0 0-2 0-1 0-1 0 0 0-1 0-1 0-1 0-2 0-8 4z" fill="#000"/>
  <path d="M942 783l 0 1 1 2 1 1 1 2 1 1 1 2 2 1 1 2 5-8 1 0 2-1 1-1 1 0 1-1 1-1 1 0-1-2-1-1-1 0-1-1-2 0-1 0-1 0-1 0-1 0-1 0-2 0-8 4" stroke="#000"/>
  <path d="M1051 687l 7 1 7 2 7 3 5 5 5 5 3 7 2 7 1 7-1 8-2 7-3 6-5 6-5 4-7 4-7 2-7 1-8-1-7-2-6-4-6-4-5-6-3-6-2-7-1-8 1-7 2-7 3-7 5-5 6-5 6-3 7-2 8-1z" fill="#000"/>
  <path d="M1051 699l 5 1 5 2 5 2 3 3 3 4 2 4 1 5 1 4-1 6-1 5-2 5-3 3-3 3-5 2-5 1-5 0-5 0-5-1-4-2-4-3-3-3-2-5-2-5-1-6 1-4 2-5 2-4 3-4 4-3 4-2 5-2 5-1z" fill="#e5e5e5"/>
  <path d="M1051 699l 5 1 5 2 5 2 3 3 3 4 2 4 1 5 1 4-1 6-1 5-2 5-3 3-3 3-5 2-5 1-5 0-5 0-5-1-4-2-4-3-3-3-2-5-2-5-1-6 1-4 2-5 2-4 3-4 4-3 4-2 5-2 5-1" stroke="#000"/>
  <path d="M1051 712l 2 0 3 0 2 1 2 2 1 2 1 2 1 2 0 3 0 3-1 3-1 2-1 2-2 1-2 1-3 1-2 0-3 0-3-1-2-1-2-1-1-2-1-2-1-3 0-3 0-3 1-2 1-2 1-2 2-2 2-1 3 0 3 0z" fill="#ccc"/>
  <path d="M1051 712l 2 0 3 0 2 1 2 2 1 2 1 2 1 2 0 3 0 3-1 3-1 2-1 2-2 1-2 1-3 1-2 0-3 0-3-1-2-1-2-1-1-2-1-2-1-3 0-3 0-3 1-2 1-2 1-2 2-2 2-1 3 0 3 0" stroke="#333"/>
  <path d="M1051 704l 4 0 0 4-4 0-5 0 0-4 5 0z" fill="#e5e5e5"/>
  <path d="M1051 704l 4 0 0 4-4 0-5 0 0-4 5 0" stroke="#000"/>
  <path d="M1034 737l 4 0 4 4-4 4-4 0 0-4 0-4z" fill="#e5e5e5"/>
  <path d="M1034 737l 4 0 4 4-4 4-4 0 0-4 0-4" stroke="#000"/>
  <path d="M1059 741l 4 0 4 0 0 4-4 0-4 0 0-4z" fill="#e5e5e5"/>
  <path d="M1059 741l 4 0 4 0 0 4-4 0-4 0 0-4" stroke="#000"/>
  <path d="M1067 716l 4 0 0 4-4 0 0-4z" fill="#e5e5e5"/>
  <path d="M1067 716l 4 0 0 4-4 0 0-4" stroke="#000"/>
  <path d="M1030 716l 4 0 4 0 0 4-4 0-4 0 0-4z" fill="#e5e5e5"/>
  <path d="M1030 716l 4 0 4 0 0 4-4 0-4 0 0-4" stroke="#000"/>
  <path d="M1051 704l 0 1 0 1 0 1 0 0 0 1 0 0 0 0 0 0 0 0 0 0 0 0 0-1 0 0 0-1 0-1 0-1z" fill="#e5e5e5"/>
  <path d="M1051 704l 0 1 0 1 0 1 0 1 0-1 0-1 0-1 0-1" stroke="#000"/>
  <path d="M1038 741l 0 4 0-4z" fill="#e5e5e5"/>
  <path d="M1038 741l 0 4 0-4" stroke="#000"/>
  <path d="M1063 741l 0 4 0-4z" fill="#e5e5e5"/>
  <path d="M1063 741l 0 4 0-4" stroke="#000"/>
  <path d="M1067 716l 4 0 0 1 0 1-1 1-1 1-1 0 0 0-1 0 0 0 0 0 0 0 0 0 0 0 0-1 0-1 0-1 0-1z" fill="#e5e5e5"/>
  <path d="M1067 716l 4 0 0 1 0 1-1 1-1 1-1 0-1 0 0-1 0-1 0-1 0-1" stroke="#000"/>
  <path d="M1034 716l 0 4 0-4z" fill="#e5e5e5"/>
  <path d="M1034 716l 0 4 0-4" stroke="#000"/>
  <path d="M1038 720l 25 0 0 2 0 1 0 2 0 1 0 1 0 1 0 0 0 0-25 0 0 0 0 0 0-1 0-1 0-1 0-2 0-1 0-2z" fill="#e5e5e5"/>
  <path d="M1038 720l 25 0 0 2 0 1 0 2 0 1 0 1 0 1-25 0 0-1 0-1 0-1 0-2 0-1 0-2" stroke="#000"/>
  <path d="M1051 674l 1 0 2 0 1 0 1 1 1 0 1 1 1 1 0 1 0 2-1 1-1 1-1 0-1 0-1 1-2 0-1 0-2 0-1 0-2-1-1 0-1 0-1-1-1-1 0-2 0-1 1-1 1-1 1 0 1-1 2 0 1 0 2 0z" fill="#000"/>
  <path d="M1051 674l 1 0 2 0 1 0 1 1 1 0 1 1 1 1 0 1 0 2-1 1-1 1-1 0-1 0-1 1-2 0-1 0-2 0-1 0-2-1-1 0-1 0-1-1-1-1 0-2 0-1 1-1 1-1 1 0 1-1 2 0 1 0 2 0" stroke="#000"/>
  <path d="M1001 708l 1-2 2-1 1 0 1-1 1 0 1 0 1 0 0 0 1 0 1 0 1 1 1 1 0 1 0 2 0 1 0 2-1 1-1 2-1 1-1 1-1 1-1 0-1-1-1-1-2 0-1-1 0-1-1-1 0-1 0-1 0-2 0-1z" fill="#000"/>
  <path d="M1001 708l 1-2 2-1 1 0 1-1 1 0 1 0 1 0 1 0 1 0 1 1 1 1 0 1 0 2 0 1 0 2-1 1-1 2-1 1-1 1-1 1-1 0-1-1-1-1-2 0-1-1 0-1-1-1 0-1 0-1 0-2 0-1" stroke="#000"/>
  <path d="M1100 712l 0-2 0-1-1-2-1-1-1-1-2-1-1 0-2 0 0 0-1 0 0 1 0 1-1 1 0 2 1 1 1 2 0 1 1 2 1 1 1 1 1 2 1 0 2 1 1 0 0 0 0-1 0 0 0-2 0-1 0-1 0-2 0-1z" fill="#000"/>
  <path d="M1100 712l 0-2 0-1-1-2-1-1-1-1-2-1-1 0-2 0-1 0 0 1 0 1-1 1 0 2 1 1 1 2 0 1 1 2 1 1 1 1 1 2 1 0 2 1 1 0 0-1 0-2 0-1 0-1 0-2 0-1" stroke="#000"/>
  <path d="M1001 741l 1 2 1 1 1 1 1 2 1 1 0 1 2 0 1 0 1 0 1 0 1-1 1-1 0-2 0-1 0-1 0-2-1-1-1-2-1-1-1-2-1-1-1-1-1 0-1 0-2 0-1 0 0 1-1 1 0 2 0 1 0 2 0 1z" fill="#000"/>
  <path d="M1001 741l 1 2 1 1 1 1 1 2 1 1 0 1 2 0 1 0 1 0 1 0 1-1 1-1 0-2 0-1 0-1 0-2-1-1-1-2-1-1-1-2-1-1-1-1-1 0-1 0-2 0-1 0 0 1-1 1 0 2 0 1 0 2 0 1" stroke="#000"/>
  <path d="M1100 745l 0 2 0 1-1 0-1 1-1 0-2 0-1 0-2 0 0 0 0 0 0-1 0-1 0-2 0-1 0-1 0-2 0-1 1-2 1-1 1-1 1-1 1 0 2 1 1 1 0 0 0 1 0 0 0 2 0 1 0 1 0 2 0 1z" fill="#000"/>
  <path d="M1100 745l 0 2 0 1-1 0-1 1-1 0-2 0-1 0-2 0 0-1 0-1 0-2 0-1 0-1 0-2 0-1 1-2 1-1 1-1 1-1 1 0 2 1 1 1 0 1 0 2 0 1 0 1 0 2 0 1" stroke="#000"/>
  <path d="M1051 770l 1 0 2 0 1 0 1 1 1 0 1 1 1 1 0 1 0 2-1 1-1 1-1 0-1 0-1 1-2 0-1 0-2 0-1 0-2-1-1 0-1 0-1-1-1-1 0-2 0-1 1-1 1-1 1 0 1-1 2 0 1 0 2 0z" fill="#000"/>
  <path d="M1051 770l 1 0 2 0 1 0 1 1 1 0 1 1 1 1 0 1 0 2-1 1-1 1-1 0-1 0-1 1-2 0-1 0-2 0-1 0-2-1-1 0-1 0-1-1-1-1 0-2 0-1 1-1 1-1 1 0 1-1 2 0 1 0 2 0" stroke="#000"/>
  <path d="M1076 762l 1-2 2-1 1 0 2 0 1 0 2 0 2 1 1 2 0 0-1 0 0 1-1 1-1 2 0 1-1 2 0 1-2 0-1 0-2 0-1 0-2 0-2 0-1 0-2 0 0-1 0-2 1-1 0-2 0-1 1-1 1 0 2 0z" fill="#000"/>
  <path d="M1076 762l 1-2 2-1 1 0 2 0 1 0 2 0 2 1 1 2-1 0 0 1-1 1-1 2 0 1-1 2 0 1-2 0-1 0-2 0-1 0-2 0-2 0-1 0-2 0 0-1 0-2 1-1 0-2 0-1 1-1 1 0 2 0" stroke="#000"/>
  <path d="M1025 762l-1-2-2-1-1 0-1 0-1 0-1 0-1 1 0 2-1 0-1 0 1 1 0 1 1 2 1 1 2 2 1 1 2 0 1 0 2 0 1 0 1 0 1 0 0 0 1 0 0-1 0-2-1-1 0-2 0-1-1-1-1 0-2 0z" fill="#000"/>
  <path d="M1025 762l-1-2-2-1-1 0-1 0-1 0-1 0-1 1 0 2-1 0-1 0 1 1 0 1 1 2 1 1 2 2 1 1 2 0 1 0 2 0 1 0 1 0 1 0 1 0 0-1 0-2-1-1 0-2 0-1-1-1-1 0-2 0" stroke="#000"/>
  <path d="M1025 691l-1 1-2 1-1 1-1 0-1 0-1-1-1-1 0-1 0 0 0-1 0-1 1-1 0-1 1-1 1-2 1-1 2 0 1 0 2 0 1 0 1 0 1 0 0 0 1 0 1 1 0 2 0 1 0 1-1 1-2 1-1 1-2 0z" fill="#000"/>
  <path d="M1025 691l-1 1-2 1-1 1-1 0-1 0-1-1-1-1 0-1 0-1 0-1 1-1 0-1 1-1 1-2 1-1 2 0 1 0 2 0 1 0 1 0 1 0 1 0 1 1 0 2 0 1 0 1-1 1-2 1-1 1-2 0" stroke="#000"/>
  <path d="M1076 691l 1 1 2 1 1 1 2 0 1 0 2-1 2-1 1-1 0 0 0-1 0-1 0-1-1-1-1-1-1-2-1-1-2 0-1 0-2 0-1 0-2 0-2 0-1 0-2 0 0 1 0 2 1 1 0 1 0 1 1 1 1 1 2 0z" fill="#000"/>
  <path d="M1076 691l 1 1 2 1 1 1 2 0 1 0 2-1 2-1 1-1 0-1 0-1 0-1-1-1-1-1-1-2-1-1-2 0-1 0-2 0-1 0-2 0-2 0-1 0-2 0 0 1 0 2 1 1 0 1 0 1 1 1 1 1 2 0" stroke="#000"/>
  <path d="M800 358l-366 0 0-9 358 0 8 9z" fill="#e0e0e0"/>
  <path d="M800 358l-366 0 0-9 358 0 8 9" stroke="#000"/>
  <path d="M376 528l-38 0 0-16 29 0 0-8 9 0 0 24z" fill="#e0e0e0"/>
  <path d="M376 528l-38 0 0-16 29 0 0-8 9 0 0 24" stroke="#000"/>
  <path d="M346 512l-4 0 8-21-4 21z" fill="#e0e0e0"/>
  <path d="M346 512l-4 0 8-21-4 21" stroke="#000"/>
  <path d="M330 270l 91 0 0-25-91 0 0 25z" fill="#000"/>
  <path d="M330 270l 91 0 0-25-91 0 0 25" stroke="#000"/>
  <path d="M330 270l-5 0 0-25 5 0 0 25z" fill="#000"/>
  <path d="M330 270l-5 0 0-25 5 0 0 25" stroke="#000"/>
  <path d="M434 274l 4 0 0-33-4 0 0 33z" fill="#000"/>
  <path d="M434 274l 4 0 0-33-4 0 0 33" stroke="#000"/>
  <path d="M434 241l-13 4 0 25 13 4 46 0-4-4-3-4-5-3-4-2-5-2-5-2-6-2-6-1-8 0 8-4 21 0-29 0 0-9z" fill="#000"/>
  <path d="M434 241l-13 4 0 25 13 4 46 0-4-4-3-4-5-3-4-2-5-2-5-2-6-2-6-1-8 0 8-4 21 0-29 0 0-9" stroke="#000"/>
  <path d="M438 274l 229 0 0-29-229 0 0 29z" fill="#000"/>
  <path d="M438 274l 229 0 0-29-229 0 0 29" stroke="#000"/>
  <path d="M663 274l 8 0 0-33-8 0 0 33z" fill="#000"/>
  <path d="M663 274l 8 0 0-33-8 0 0 33" stroke="#000"/>
  <path d="M671 279l 0-38 0 38z" fill="#000"/>
  <path d="M671 279l 0-38 0 38" stroke="#000"/>
  <path d="M526 308l 41 0 0 41-41 0 0-41z" fill="#000"/>
  <path d="M526 308l 41 0 0 41-41 0 0-41" stroke="#000"/>
  <path d="M613 349l-125 0 0-20 125 0 0 20z" fill="#000"/>
  <path d="M613 349l-125 0 0-20 125 0 0 20" stroke="#000"/>
  <path d="M446 349l 67 0 0-29-67 0 0 29z" fill="#4c4c4c"/>
  <path d="M446 349l 67 0 0-29-67 0 0 29" stroke="#000"/>
  <path d="M446 320l 67 0 0-4-67 0 0 4z" fill="#4c4c4c"/>
  <path d="M446 320l 67 0 0-4-67 0 0 4" stroke="#000"/>
  <path d="M526 308l 37 0 1 0 1 0 1 0 0 0 1 0 0 0 0 0 0 0 0-4 0 0 0 0 0 0-1 0 0 0-1 0-1 0-1 0-37 0 0 4z" fill="#000"/>
  <path d="M526 308l 37 0 1 0 1 0 1 0 1 0 0-4-1 0-1 0-1 0-1 0-37 0 0 4" stroke="#000"/>
  <path d="M526 304l 41 0 0-5-41 0 0 5z" fill="#4c4c4c"/>
  <path d="M526 304l 41 0 0-5-41 0 0 5" stroke="#000"/>
  <path d="M526 299l 41 0 0-12-41 0 0 12z" fill="#000"/>
  <path d="M526 299l 41 0 0-12-41 0 0 12" stroke="#000"/>
  <path d="M567 287l-41 0 0-4 41 0 0 4z" fill="#000"/>
  <path d="M567 287l-41 0 0-4 41 0 0 4" stroke="#000"/>
  <path d="M542 250l 21 0 0 29-1 3-2 3-1 3-1 3-2 2-2 3-4 2-4 1-12 0-3-1-2-2-1-3 0-4 0-4 1-3 2-2 3-1 4-1 2-2 2-2 1-4 0-4-1-5 0-5 0-6z" fill="#e0e0e0"/>
  <path d="M542 250l 21 0 0 29-1 3-2 3-1 3-1 3-2 2-2 3-4 2-4 1-12 0-3-1-2-2-1-3 0-4 0-4 1-3 2-2 3-1 4-1 2-2 2-2 1-4 0-4-1-5 0-5 0-6" stroke="#000"/>
  <path d="M534 283l 4-4 4 0 4 4 0 4 0 4-4 4-4 0-4-4 0-4 0-4z" fill="#000"/>
  <path d="M534 283l 4-4 4 0 4 4 0 4 0 4-4 4-4 0-4-4 0-4 0-4" stroke="#000"/>
  <path d="M555 245l 12 5-17 37-12-8 8-21 4 0 5-8-5 0 5-5z" fill="#000"/>
  <path d="M555 245l 12 5-17 37-12-8 8-21 4 0 5-8-5 0 5-5" stroke="#000"/>
  <path d="M567 212l 17 0-17 0z" fill="#b2b2b2"/>
  <path d="M567 212l 17 0-17 0" stroke="#000"/>
  <path d="M513 250l 54 0 0-34-54 0 0 34z" fill="#e0e0e0"/>
  <path d="M513 250l 54 0 0-34-54 0 0 34" stroke="#000"/>
  <path d="M513 224l 58 0 0 26-58 0 0-26z" fill="#e0e0e0"/>
  <path d="M513 224l 58 0 0 26-58 0 0-26" stroke="#000"/>
  <path d="M567 250l 17 0 0-38-17 0 0 38z" fill="#e0e0e0"/>
  <path d="M567 250l 17 0 0-38-17 0 0 38" stroke="#000"/>
  <path d="M513 245l-17 0 0-25 17 0 0 25z" fill="#000"/>
  <path d="M513 245l-17 0 0-25 17 0 0 25" stroke="#000"/>
  <path d="M496 241l-12 0 0-17 12 0 0 17z" fill="#000"/>
  <path d="M496 241l-12 0 0-17 12 0 0 17" stroke="#000"/>
  <path d="M584 220l 17 0 0 21-17 0 0-21z" fill="#000"/>
  <path d="M584 220l 17 0 0 21-17 0 0-21" stroke="#000"/>
  <path d="M601 220l 8 0 0 17-8 0 0-17z" fill="#000"/>
  <path d="M601 220l 8 0 0 17-8 0 0-17" stroke="#000"/>
  <path d="M609 220l 4 0 0 13-4 0 0-13z" fill="#000"/>
  <path d="M609 220l 4 0 0 13-4 0 0-13" stroke="#000"/>
  <path d="M613 216l 8 0 3 4 3 3 2 3 2 2 0 2-1 2-4 2-5 3-8 0 0-21z" fill="#000"/>
  <path d="M613 216l 8 0 3 4 3 3 2 3 2 2 0 2-1 2-4 2-5 3-8 0 0-21" stroke="#000"/>
  <path d="M542 220l 4 0 0 2 0 1-1 0-1 1-1 0 0 0-1 0 0 0-1 0-1 0-1 0-1 0 0-1 0 0 0-1 0-2 0 0 0 0 0 0 0 0 1 0 1 0 1 0 1 0z" fill="#000"/>
  <path d="M542 220l 4 0 0 2 0 1-1 0-1 1-1 0-1 0-1 0-1 0-1 0-1 0 0-1 0-1 0-2 1 0 1 0 1 0 1 0" stroke="#000"/>
  <path d="M513 216l 54 0 0-4-54 0 0 4z" fill="#e0e0e0"/>
  <path d="M513 216l 54 0 0-4-54 0 0 4" stroke="#000"/>
  <path d="M584 245l 12 0 0-8-12 0 0 8z" fill="#e0e0e0"/>
  <path d="M584 245l 12 0 0-8-12 0 0 8" stroke="#000"/>
  <path d="M601 224l-13 0 0 5 13 0 0-5z" fill="#7f7f7f"/>
  <path d="M601 224l-13 0 0 5 13 0 0-5" stroke="#000"/>
  <path d="M496 224l-12 5 12 0 0-5z" fill="#7f7f7f"/>
  <path d="M496 224l-12 5 12 0 0-5" stroke="#000"/>
  <path d="M496 233l-12 0 0 4 12 0 0-4z" fill="#7f7f7f"/>
  <path d="M496 233l-12 0 0 4 12 0 0-4" stroke="#000"/>
  <path d="M521 250l 5 0 12-38-9 0-8 38z" fill="#f0f0f0"/>
  <path d="M521 250l 5 0 12-38-9 0-8 38" stroke="#000"/>
  <path d="M513 245l-13 0 0 0 0 0 0 0 0 0 0-1 0 0 0-1 0-2 0-12 13 0 0 12 0 2 0 1 0 0 0 1 0 0 0 0 0 0 0 0z" fill="#7f7f7f"/>
  <path d="M513 245l-13 0 0-1 0-1 0-2 0-12 13 0 0 12 0 2 0 1 0 1" stroke="#000"/>
  <path d="M509 245l 0-12" stroke="#e5e5e5"/>
  <path d="M513 229l-4 0 0-9 4 0 0 9z" fill="#e0e0e0"/>
  <path d="M513 229l-4 0 0-9 4 0 0 9" stroke="#000"/>
  <path d="M509 220l 4 0-4 0z" fill="#e0e0e0"/>
  <path d="M509 220l 4 0-4 0" stroke="#000"/>
  <path d="M513 220l 0-4 0 4z" fill="#e0e0e0"/>
  <path d="M513 220l 0-4 0 4" stroke="#000"/>
  <path d="M484 254l 21 0 4-9-13 0-4 5-8 4z" fill="#b2b2b2"/>
  <path d="M484 254l 21 0 4-9-13 0-4 5-8 4" stroke="#000"/>
  <path d="M550 258l 13 4 0-8-8-4-5 8z" fill="#999"/>
  <path d="M550 258l 13 4 0-8-8-4-5 8" stroke="#000"/>
  <path d="M555 254l 4 4 4-4-8 0z" fill="#e5e5e5"/>
  <path d="M555 254l 4 4 4-4-8 0" stroke="#000"/>
  <path d="M601 199l 3 0 0 13-3 0 0-13z" fill="#000"/>
  <path d="M601 199l 3 0 0 13-3 0 0-13" stroke="#000"/>
  <path d="M604 199l 9 0 0 13-9 0 0-13z" fill="#000"/>
  <path d="M604 199l 9 0 0 13-9 0 0-13" stroke="#000"/>
  <path d="M613 199l 8 0 2 2 2 2 3 1 1 2 1 1-1 2-3 1-5 2-8 0 0-13z" fill="#000"/>
  <path d="M613 199l 8 0 2 2 2 2 3 1 1 2 1 1-1 2-3 1-5 2-8 0 0-13" stroke="#000"/>
  <path d="M601 199l-55 0 0 17 55 0 0-17z" fill="#e0e0e0"/>
  <path d="M601 199l-55 0 0 17 55 0 0-17" stroke="#000"/>
  <path d="M546 199l 55 0 0-4-55 0 0 4z" fill="#000"/>
  <path d="M546 199l 55 0 0-4-55 0 0 4" stroke="#000"/>
  <path d="M575 204l 0-9" stroke="#000"/>
  <path d="M584 204l 0-9" stroke="#000"/>
  <path d="M588 204l 0-9" stroke="#000"/>
  <path d="M592 204l 0-9" stroke="#000"/>
  <path d="M571 204l 0-9" stroke="#000"/>
  <path d="M563 204l 0-9" stroke="#000"/>
  <path d="M559 204l 0-9" stroke="#000"/>
  <path d="M555 204l 0-9" stroke="#000"/>
  <path d="M546 195l-25 0-4 0 0 17 4 0 25 0 0-17z" fill="#e0e0e0"/>
  <path d="M546 195l-25 0-4 0 0 17 4 0 25 0 0-17" stroke="#000"/>
  <path d="M517 195l-4 0 0 17 4 0 0-17z" fill="#000"/>
  <path d="M517 195l-4 0 0 17 4 0 0-17" stroke="#000"/>
  <path d="M513 212l-4 0 0-17 4 0 0 17z" fill="#000"/>
  <path d="M513 212l-4 0 0-17 4 0 0 17" stroke="#000"/>
  <path d="M546 195l-20 0-9 4 0 9 9 4 20 0 0-17z" fill="#e0e0e0"/>
  <path d="M546 195l-20 0-9 4 0 9 9 4 20 0 0-17" stroke="#000"/>
  <path d="M542 195l-4 0 0-4 4 0 0 4z" fill="#000"/>
  <path d="M542 195l-4 0 0-4 4 0 0 4" stroke="#000"/>
  <path d="M592 216l-42 0-2 0-2-1-1-1-1-2 1-2 1-1 2-1 2 0 42 0 0 8z" fill="#000"/>
  <path d="M592 216l-42 0-2 0-2-1-1-1-1-2 1-2 1-1 2-1 2 0 42 0 0 8" stroke="#000"/>
  <path d="M542 208l-4 0 0-2 0-1 1 0 1-1 1 0 0 0 1 0 0 0 1 0 1 0 1 0 1 0 0 1 0 0 0 1 0 2 0 0 0 0 0 0 0 0-1 0-1 0-1 0-1 0z" fill="#000"/>
  <path d="M542 208l-4 0 0-2 0-1 1 0 1-1 1 0 1 0 1 0 1 0 1 0 1 0 0 1 0 1 0 2-1 0-1 0-1 0-1 0" stroke="#000"/>
  <path d="M534 212l 0-4 1 0 1 0 1 0 0 0 1 0 0 0 0 0 0 0 0 0 0 0 0 1-1 1 0 1-1 0-1 1-1 0z" fill="#000"/>
  <path d="M534 212l 0-4 1 0 1 0 1 0 1 0 0 1-1 1 0 1-1 0-1 1-1 0" stroke="#000"/>
  <path d="M592 216l 9 0 1 0 1 0 0-1 0-1 0-1 0 0-1-1-1 0-5 0 0-4-4 0 0 8z" fill="#e0e0e0"/>
  <path d="M592 216l 9 0 1 0 1 0 0-1 0-1 0-1-1-1-1 0-5 0 0-4-4 0 0 8" stroke="#000"/>
  <path d="M355 429l 0 0 0 2 1 2 1 4 0 4 1 5 1 6 0 6 0 4-1 5-1 4 0 4-1 3-1 3 0 1 0 1-2-1-2-1-1-3-1-3-1-4-1-4-1-5 0-4 0-6 1-6 1-5 1-4 1-4 1-2 2-2 2 0z" fill="#e0e0e0"/>
  <path d="M355 429l 0 2 1 2 1 4 0 4 1 5 1 6 0 6 0 4-1 5-1 4 0 4-1 3-1 3 0 1 0 1-2-1-2-1-1-3-1-3-1-4-1-4-1-5 0-4 0-6 1-6 1-5 1-4 1-4 1-2 2-2 2 0" stroke="#000"/>
  <path d="M355 429l 1 0 2 2 1 2 1 4 1 4 1 5 1 6 0 6 0 4-1 5-1 4-1 4-1 3-1 3-2 1-1 1-2-1-2-1-1-3-1-3-1-4-1-4-1-5 0-4 0-6 1-6 1-5 1-4 1-4 1-2 2-2 2 0z" fill="#7f7f7f"/>
  <path d="M355 429l 1 0 2 2 1 2 1 4 1 4 1 5 1 6 0 6 0 4-1 5-1 4-1 4-1 3-1 3-2 1-1 1-2-1-2-1-1-3-1-3-1-4-1-4-1-5 0-4 0-6 1-6 1-5 1-4 1-4 1-2 2-2 2 0" stroke="#000"/>
  <path d="M355 453l-5 0 0 71 5 0 0-71z" fill="#e0e0e0"/>
  <path d="M355 453l-5 0 0 71 5 0 0-71" stroke="#000"/>
  <path d="M438 250l 0 4 0-4z" fill="#e0e0e0"/>
  <path d="M438 250l 0 4 0-4" stroke="#000"/>
  <path d="M459 316l 12 0 0-4-1 0-2 0-2 0-1 0-2 0-1 0-2 0-1 0 0 4z" fill="#000"/>
  <path d="M459 316l 12 0 0-4-1 0-2 0-2 0-1 0-2 0-1 0-2 0-1 0 0 4" stroke="#000"/>
  <path d="M459 316l 12 0" stroke="#000"/>
  <path d="M505 316l-9 0 0-4 9 0 0 4z" fill="#7f7f7f"/>
  <path d="M505 316l-9 0 0-4 9 0 0 4" stroke="#000"/>
</svg>
