<?xml version="1.0" encoding="utf-8"?>
<!-- Generator: Adobe Illustrator 10.0, SVG Export Plug-In . SVG Version: 3.0.0 Build 77)  --><svg enable-background="new 0 0 439.906 427.243" height="427.243" i:pageBounds="0 792 612 0" i:rulerOrigin="0 0" i:viewOrigin="85 608.9995" overflow="visible" space="preserve" viewBox="0 0 439.906 427.243" width="439.906" xmlns="http://www.w3.org/2000/svg" xmlns:a="http://ns.adobe.com/AdobeSVGViewerExtensions/3.0/" xmlns:graph="http://ns.adobe.com/Graphs/1.0/" xmlns:i="http://ns.adobe.com/AdobeIllustrator/10.0/" xmlns:x="http://ns.adobe.com/Extensibility/1.0/" xmlns:xlink="http://www.w3.org/1999/xlink">
  <metadata>
    <rdf:RDF xmlns:cc="http://web.resource.org/cc/" xmlns:dc="http://purl.org/dc/elements/1.1/" xmlns:rdf="http://www.w3.org/1999/02/22-rdf-syntax-ns#">
      <cc:Work rdf:about="">
        <dc:title>Copper the Beagle</dc:title>
        <dc:description>Copper the Beagle.</dc:description>
        <dc:subject>
          <rdf:Bag>
            <rdf:li>mammal</rdf:li>
            <rdf:li>dog</rdf:li>
            <rdf:li>animal</rdf:li>
            <rdf:li>beagle</rdf:li>
          </rdf:Bag>
        </dc:subject>
        <dc:publisher>
          <cc:Agent rdf:about="http://www.openclipart.org/">
            <dc:title>Open Clip Art Project</dc:title>
          </cc:Agent>
        </dc:publisher>
        <dc:creator>
          <cc:Agent rdf:about="http://web.resource.org/cc/PublicDomain">
            <dc:title>Gerald G.</dc:title>
          </cc:Agent>
        </dc:creator>
        <dc:rights>
          <cc:Agent rdf:about="http://web.resource.org/cc/PublicDomain">
            <dc:title>Public Domain</dc:title>
          </cc:Agent>
        </dc:rights>
        <dc:date>2005-04-22</dc:date>
        <dc:format>image/svg+xml</dc:format>
        <dc:type rdf:resource="http://purl.org/dc/dcmitype/StillImage"/>
        <cc:license rdf:resource="http://web.resource.org/cc/PublicDomain"/>
        <dc:language>en</dc:language>
      </cc:Work>
      <cc:License rdf:about="http://web.resource.org/cc/PublicDomain">
        <cc:permits rdf:resource="http://web.resource.org/cc/Reproduction"/>
        <cc:permits rdf:resource="http://web.resource.org/cc/Distribution"/>
        <cc:permits rdf:resource="http://web.resource.org/cc/DerivativeWorks"/>
      </cc:License>
    </rdf:RDF>
  </metadata>
  <g i:dimmedPercent="50" i:layer="yes" i:rgbTrio="#4F008000FFFF" id="Layer_1">
    <g>
      <path clip-rule="evenodd" d="     M33.304,72.769c4.572-5.04,10.224-9,17.64-12.024c7.416-2.988,17.208-4.572,26.028-6.012c8.676-1.62,13.284-2.736,25.632-3.204     c12.24-0.468,33.552-2.556,47.268,0.396c13.536,2.844,24.696,12.672,34.056,16.848c9.288,4.068,11.448,5.436,21.636,7.596     c10.188,2.088,29.16,3.888,38.844,4.824c9.54,0.792,15.408,0.792,18.036,0c4.176,0.72,8.568-0.504,13.607-3.816     c5.005-3.42,10.297-10.332,16.021-16.02c5.58-5.76,11.088-12.096,17.64-18.036c6.553-6.048,13.429-11.772,21.204-17.604     c-6.912-0.72-13.932-1.476-21.6-2.412c-7.813-0.972-17.028-2.916-24.048-3.204c-7.021-0.396-12.061-0.468-17.641,1.188     c-5.724,1.692-14.436,8.892-16.02,8.424c-1.477-0.756,1.764-8.136,6.804-12.42c4.968-4.428,13.428-10.404,22.464-13.212     c8.893-2.772,21.672-2.592,30.42-3.204c8.532-0.684,12.24-1.332,21.24-0.828c9.072,0.288,23.544,0.9,32.437,3.24     c8.676,2.448,13.644,6.516,19.619,10.8c5.832,4.14,9.973,8.496,15.624,13.608c5.616,4.968,13.717,10.26,18.036,16.416     c4.104,6.012,4.464,11.448,7.2,20.052c2.736,8.568,7.704,20.7,9.216,31.248c1.404,10.476-1.584,18.936-0.792,31.212     c0.756,12.168,5.364,28.512,5.221,41.256c-0.288,12.636-5.725,24.264-6.444,34.056c-0.648,9.648,1.692,15.732,2.016,23.652     c0,7.92-1.691,17.604-1.188,23.221c0.576,5.326,3.239,4.932,4.392,9.215c1.08,4.32,2.772,13.033,2.017,16.416     c-0.973,3.313-3.24,4.285-7.236,3.205c-0.468,1.439-0.9,2.268-1.296,2.771c-0.612,0.359-1.044,0.215-1.44-0.145     c-0.359-0.432-0.576-1.26-0.647-2.34c-1.549,1.584-2.988,2.232-4.86,2.34c-1.8-0.072-3.852-0.684-6.012-2.232     c-0.937,1.008-1.548,1.801-2.232,2.232c-0.756,0.432-1.512,0.793-1.584,0.396c-0.107-0.469,0.433-1.512,1.332-3.133     c-1.439,0.217-2.231,0.252-2.771,0.109c-0.433-0.252-0.612-0.686-0.145-1.297c-0.864,1.512-1.691,2.34-2.088,2.629     c-0.432,0.215-0.828-0.504-0.792-1.045c-0.144-0.611,0-1.404,0.288-2.375c-0.864-0.109-1.44-0.506-1.728-0.9     c-0.36-0.469-0.396-1.08-0.253-1.836l-1.836-0.145c-0.684,0.973-1.115,1.225-1.296,1.043c-0.252-0.252-0.252-1.078,0-2.482     c-0.504-0.576-0.647-1.404-0.288-2.629c0.252-1.332,1.656-3.096,2.124-4.715c0.324-1.693-1.08-2.521,0.252-4.969     c1.297-2.557,6.013-5.652,7.488-9.828c1.368-4.355,1.116-9.9,0.9-15.229c-0.36-5.363-2.484-12.527-2.484-16.344     c-0.072-3.816,2.808-3.132,2.232-6.552c-0.792-3.6-3.637-10.08-6.049-14.292c-2.483-4.14-4.68-7.38-8.388-10.548     c-3.78-3.312-8.315-6.228-13.896-8.892c-1.261,4.752-2.916,9.72-4.969,15.48c-2.052,5.508-3.563,11.304-7.596,18.36     c-4.248,7.2-11.412,15.875-17.063,24.229c-5.761,8.242-12.601,18.863-16.776,24.91c-4.104,5.941-5.292,7.346-7.848,10.621     c-2.772,3.24-6.517,5.436-7.885,8.531c-1.296,2.881-0.216,4.969-0.107,9.037c-0.072,3.996,0.432,10.836-0.145,15.084     c-0.756,4.104-3.312,3.672-3.779,9.828c-0.469,6.299,0.432,19.332,0.899,26.855c0.396,7.164,1.477,10.549,1.296,16.668     c-0.359,6.156-3.168,14.4-3.275,20.16c-0.181,5.615,1.403,8.459,2.231,13.787c0.685,5.328,1.836,13.033,2.484,17.82     c0.612,4.645,1.296,7.633,1.08,9.936c-0.36,2.197-1.368,3.24-3.168,3.277c0.144,1.439-0.072,2.232-0.504,2.232     c-0.433,0-1.225-0.793-2.232-2.232c-0.647,0.287-1.476,0.252-2.483-0.252c-1.045-0.504-2.269-1.332-3.673-2.629     c-0.504,0.793-1.115,1.621-2.124,2.484c-1.008,0.863-2.268,1.691-3.779,2.629c0.071,1.691-0.108,2.699-0.396,3.168     c-0.432,0.395-1.188-0.109-1.584-0.541c-0.396-0.469-0.611-1.295-0.647-2.34c-1.08,0.145-2.16-0.035-3.528-0.684     c-1.404-0.648-2.844-1.693-4.464-3.133c-0.828,0.361-1.8,0.756-2.772,1.188c-1.044,0.324-2.088,0.721-3.275,1.045     c-0.145,0.359-0.181,0.936-0.252,1.584c-0.145,0.648,0.18,2.123,0,2.34c-0.288,0.072-1.188-1.043-1.44-1.691     c-0.324-0.756-0.504-1.584-0.396-2.484c-1.944-0.072-3.24-0.648-4.177-1.439c-0.936-0.865-1.332-2.088-1.332-3.672     c-0.323,0.035-0.756,0.252-1.439,0.504c-0.685,0.18-1.513,0.539-2.484,0.936c-0.359,1.043-0.612,1.477-0.899,1.295     c-0.288-0.215-0.469-1.043-0.685-2.482c-0.468-0.686-0.864-1.514-1.044-2.629c-0.324-1.188-1.152-1.836-0.252-4.176     c0.937-2.557,3.924-6.84,5.616-10.225c1.584-3.348,2.808-6.371,3.815-9.467c-1.26-0.072-1.871-0.721-1.979-1.945     c-0.145-1.404,0.612-3.24,1.439-5.65c0.721-2.449,2.521-6.59,3.169-8.533c0.539-2.016,0.756-2.088,0.504-3.42     c-0.36-1.404-1.477-3.023-1.944-5.256c-0.468-2.447-0.18-5.652-0.54-9.035c-0.468-3.492-1.116-7.705-1.944-11.27     c-1.044-3.635-2.088-6.623-3.672-10.08c-1.656-3.563-3.204-7.883-5.903-10.475c-2.809-2.701-8.101-3.709-10.477-5.113     c-2.52-1.475-3.744-2.555-4.068-3.383c-2.987,0.324-7.703,0.576-14.292,0.9c-6.659,0.287-14.832,0.504-25.056,0.791     c-0.252,2.016-0.036,4.68,0.792,7.848s3.168,7.957,3.816,11.305c0.468,3.313-0.216,6.66-0.792,8.496     c-0.648,1.729-1.656,2.484-3.024,2.123c-1.188,1.729-2.016,3.457-2.484,5.725c-0.504,2.16,0.576,5.111-0.504,7.199     c-1.296,2.018-3.348,3.637-6.3,4.861c-2.988,1.043-6.516,1.475-11.016,1.439c-0.684,1.08-1.296,2.088-1.98,3.023     c-0.72,0.973-1.836,3.096-2.232,2.484c-0.54-0.791-0.792-3.023-0.756-6.84c-0.792,1.656-2.016,2.629-4.068,2.771     c-2.052,0.109-4.716-0.504-7.992-1.836c-1.512,1.945-2.52,2.988-3.168,3.277c-0.72,0.215-0.468-0.865-0.648-1.693     c-0.216-0.791-0.396-1.979-0.54-3.275l-1.296-1.188c-0.432,1.439-0.648,2.051-1.044,1.836c-0.432-0.396-0.828-1.621-1.044-3.277     c-0.288-1.727-0.432-4.607-0.288-6.299c0.072-1.693,0.288-2.736,0.792-3.42c-0.972-0.9-1.368-2.305-1.044-4.068     c0.216-1.908,1.188-5.004,2.628-6.805c1.26-1.871,2.772-2.16,5.508-3.924c2.7-1.871,6.192-3.959,10.62-6.695     c0.684-1.656,1.116-3.672,1.296-6.049c0.18-2.447,0-5.111-0.396-8.279c-3.024-1.045-6.156-2.34-9.936-4.031     c-3.852-1.766-8.568-5.221-12.348-6.193c-3.744-1.008-6.84,0.289-9.828,0.145c-3.06-0.18-5.292,2.484-8.496-1.584     c-3.276-4.393-6.444-15.84-10.908-23.797c-4.536-8.027-9.9-15.84-16.092-23.867c0.036,0.287-0.576-0.18-2.232-1.801     c-1.62-1.619-4.068-4.104-7.344-7.596l-6.696,0.9c-0.612,0.396-1.872,0.611-4.32,0.793c-2.412,0.07-5.688,0.07-9.972,0     c0.504,0.035,0.288,0.863-0.648,2.482c-1.08,1.584-2.232,4.645-5.256,7.092c-3.096,2.342-8.568,5.076-12.96,7.094     c-4.536,1.906-7.56,3.814-13.5,4.318c-6.048,0.434-16.524-0.971-22.14-1.727c-5.688-0.865-9.54-1.945-11.7-3.385     c-1.728,0.324-3.42,0.359-5.076,0.107c-1.728-0.395-3.348-1.547-5.004-1.943c-1.692-0.432-2.664,0.684-4.716-0.539     c-2.232-1.477-5.508-5.58-7.596-7.453c-2.052-1.764-3.312-2.447-4.608-3.42c-1.476-1.152-2.844-1.547-3.528-3.275     c-0.828-1.873-1.044-4.824-0.648-7.344c0.432-2.592,1.476-5.256,3.276-7.992c-0.612-2.953-0.036-6.805,1.44-11.701     c1.476-5.076,5.76-10.979,7.596-17.711c1.692-6.768,3.852-16.128,2.88-22.536c-1.044-6.552-6.696-10.728-8.892-15.984     c-2.304-5.364-3.744-10.836-4.608-15.588c-0.936-4.788-1.476-7.452-0.504-12.708c0.972-5.328,3.06-11.52,6.408-18.864     c-1.008-2.448-0.972-6.552,0.252-12.313c1.152-5.94,2.772-16.704,6.948-22.428C19.588,78.853,25.492,74.965,33.304,72.769z" fill-rule="evenodd" i:knockout="Off" stroke="#000000" stroke-miterlimit="10" stroke-width="0.036"/>
      <path clip-rule="evenodd" d="     M26.896,77.989c-2.412,1.548-4.32,3.348-5.58,5.796c-1.332,2.376-1.26,4.644-2.124,8.352c-1.008,3.528-2.556,9.252-3.24,13.284     c-0.72,4.032,0.072,8.208-0.828,10.728c-1.008,2.304-2.448,3.492-4.716,3.42c-1.368,0.612-1.8-1.152-1.296-5.58     c0.432-4.5,2.304-15.588,4.068-20.772c1.728-5.148,3.852-7.668,6.228-10.08C21.712,80.545,24.16,78.925,26.896,77.989z" fill="#663500" fill-rule="evenodd" i:knockout="Off" stroke="#000000" stroke-miterlimit="10" stroke-width="0.036"/>
      <path clip-rule="evenodd" d="     M35.464,72.877c-2.916,2.088-5.436,4.32-7.704,6.84c-2.376,2.412-4.536,5.004-5.796,7.92c-1.296,2.952-0.828,6.552-1.512,9.432     c-0.792,2.664-2.232,4.428-2.772,7.092c-0.612,2.628-0.36,6.012-0.648,8.784c-0.432,2.628-0.288,5.976-1.512,7.272     c-1.296,1.26-3.24,1.404-5.976,0.432c-1.836,3.78-3.384,7.452-4.5,11.556c-1.296,4.104-2.412,8.1-2.376,12.42     c0,4.104,1.584,8.136,2.808,12.24c1.152,4.068,2.448,8.388,4.284,11.988c1.836,3.42,4.824,4.788,6.192,8.568     c1.224,3.672,1.656,8.172,1.296,13.5l-0.648,5.364c1.296-0.072,2.52-0.504,4.068-1.296c1.44-1.008,3.06-4.536,4.716-3.636     c1.584,1.044,2.772,7.128,4.932,9.648c2.052,2.304,5.076,1.728,7.704,4.5c2.52,2.736,3.852,8.821,7.74,11.989     c3.816,2.988,11.448,3.6,15.408,6.408c3.816,2.844,5.04,6.623,8.136,10.512c3.096,3.816,6.084,9.684,10.512,12.311     c4.392,2.484,9.468,3.422,15.624,2.809c0.576-2.447,1.44-4.68,2.592-7.092c1.188-2.484,3.96-7.703,4.284-7.057     c0.144,0.648-3.276,9.145-3.024,10.908c0.18,1.512,1.656,0.432,4.284-0.863c2.628-1.297,6.372-3.457,11.376-6.625     c-1.764-5.543-3.024-10.979-3.636-16.703c-0.792-5.76-1.188-10.62-0.216-17.352c1.044-6.912,4.572-16.2,6.408-23.148     c1.764-6.948,2.916-12.816,3.852-18c-1.908-1.764-3.312-4.644-4.068-8.784c-0.9-4.248,0.36-11.736-0.648-16.056     c-1.044-4.248-2.7-7.092-5.544-9.648c-3.06-2.628-6.84-4.752-12.024-6.228c0.972-0.432,2.592-0.36,4.716,0.216     c2.124,0.504,4.896,1.512,8.172,3.024c-0.288-1.116-1.764-2.196-4.716-3.24c-2.952-1.152-7.236-2.088-12.852-3.204     c2.772-0.504,5.292-0.648,7.704-0.432c2.412,0.144,4.572,0.648,6.624,1.512c-1.116-0.864-2.664-1.584-4.932-2.16     c-2.268-0.684-5.076-1.044-8.568-1.476c1.224-0.504,3.132-0.648,6.012-0.432c2.808,0.216,6.444,0.576,10.908,1.476     c-0.576-1.368-2.16-2.556-4.896-3.42c-2.808-0.864-6.624-1.548-11.592-1.908c2.736-0.9,4.968-1.404,7.092-1.512     c2.052-0.108,3.708,0.18,5.112,0.864c-1.98-1.224-3.636-2.088-5.112-2.592c-1.584-0.576-2.628-0.792-3.672-0.648     c1.872,0,3.492-0.432,4.716-1.692c1.116-1.296,1.008-4.824,2.592-5.58c1.692-0.864,4.644-0.18,7.056,1.08     c2.268,1.26,5.328,6.732,6.66,6.408c1.116-0.54-0.144-7.848,0.648-9c0.864-1.08,2.196-0.54,4.284,2.16     c0.756,4.464,1.152,11.664,1.044,21.744c-0.108,10.044-0.54,28.008-1.692,38.34c-1.296,10.116-4.104,15.948-5.796,22.5     c-1.836,6.516-3.564,11.412-4.5,16.488c-0.972,5.076-1.332,9.504-1.08,13.716c-0.828-5.688,0.252-10.728,3.24-15.408     c2.952-4.644,10.44-6.516,14.544-12.42c4.068-6.084,7.956-14.616,9.864-23.364c1.8-8.784,1.512-20.16,1.08-28.728     c-0.612-8.712-4.284-20.52-4.068-22.788c0.252-2.304,4.176,2.52,5.544,9.216c1.224,6.732,2.772,20.736,2.16,30.636     c-0.756,9.756-2.376,20.196-6.228,27.828c-3.924,7.56-13.176,12.852-16.92,17.532c-3.78,4.5-4.536,5.112-5.58,10.044     c-1.152,5.04-1.476,12.887-0.828,19.512c0.648,6.408,2.844,14.256,4.932,19.08c1.944,4.68,4.752,6.984,7.056,9.432     c2.16,2.377,2.808,2.916,6.408,5.111c3.636,2.16,10.512,6.77,15.228,7.85c4.572,0.936,6.372,2.303,12.204-2.16     c5.796-4.752,15.768-17.172,22.284-25.057c6.48-7.813,10.8-13.213,16.308-21.637c5.364-8.604,13.608-19.295,15.84-29.303     c2.052-10.116-0.216-20.448-3.204-30.42c-3.132-10.008-12.204-22.248-15.012-28.944c-2.88-6.768-0.036-6.516-1.728-11.34     c-1.836-5.112-4.824-13.68-8.568-18.216c-3.816-4.428-8.928-6.12-13.68-8.568c-4.716-2.556-10.224-3.096-14.58-6.624     c-4.5-3.672-8.136-11.124-12.024-15.012c-3.96-3.96-4.824-5.616-11.34-8.568c-6.588-3.132-18.9-8.208-27.648-9.54     c-8.82-1.404-17.172,0.54-25.056,1.512c-8.064,0.972-15.768,1.728-22.716,4.068c-7.128,2.196-14.58,6.84-18.864,9.216     C37.408,70.357,35.392,72.013,35.464,72.877z" fill="#663500" fill-rule="evenodd" i:knockout="Off" stroke="#000000" stroke-miterlimit="10" stroke-width="0.036"/>
      <path clip-rule="evenodd" d="M5.26,234.445     c1.332,2.197,3.78,3.6,7.488,4.068c3.636,0.359,9.864-0.756,14.364-1.26c4.392-0.611,8.964-1.656,11.772-1.729     c2.664-0.252,3.492-0.396,4.284,1.08c0.684,1.439-0.288,5.004,0,7.92c0.252,2.953,1.98,6.877,1.296,9.541     c-0.9,2.412-4.716,3.779-6.012,5.363c-1.332,1.584-0.972,3.203-1.692,4.283c-0.792,1.008-1.728,1.693-2.808,1.908     c1.908,1.008,5.364,1.873,10.512,2.592c5.148,0.686,13.032,2.377,19.908,1.477c6.84-1.152,14.976-4.104,20.376-7.488     c5.184-3.383,8.82-7.596,10.908-12.635c-4.32-0.072-7.056-0.289-8.352-0.648c-1.404-0.504,1.008-1.08,0.432-1.729     c-0.684-0.756-1.908-1.404-4.068-2.34l3.636-0.217c-1.62-1.008-3.096-1.584-4.284-2.123c-1.26-0.541-2.376-0.828-3.204-0.863     l4.716-1.729c-2.196-0.359-4.032-0.648-5.364-0.865c-1.404-0.287-2.448-0.504-2.988-0.646c2.052-0.541,2.592-1.441,1.476-2.557     c-1.152-1.115-3.816-2.592-8.136-4.283c1.44-0.109,2.16-0.396,2.16-0.865c-0.072-0.576-0.864-1.152-2.376-2.123     c2.592-1.008,3.168-2.088,1.728-3.24c-1.512-1.26-4.968-2.412-10.512-3.852c3.276-0.828,4.536-1.584,4.068-2.125     c-0.612-0.611-4.608-0.719-7.272-1.295c-2.772-0.721-6.156-0.145-8.784-2.557c-2.664-2.52-4.572-9.072-7.092-12.024     c-2.7-3.024-7.524-2.772-8.352-5.76c-0.828-3.096,2.124-7.992,3.456-12.456c1.26-4.536,2.916-7.992,3.852-14.544     c0.648-6.768,0.432-19.584,0.864-25.272c0.396-5.724,2.304-8.208,1.692-8.568c-0.864-0.396-4.32,1.908-5.796,6.624     c-1.512,4.788-1.44,15.408-2.556,21.852c-1.08,6.408-1.944,12.132-3.852,16.056c-2.052,3.636-6.444,7.128-7.92,6.444     c-1.44-0.72-0.432-10.152-0.864-10.512c-0.612-0.432-1.476,3.636-2.592,8.172c-1.26,4.428-2.772,10.512-4.68,18.396     c-0.792,3.996-1.872,7.488-3.24,10.872c-1.512,3.313-4.104,5.617-5.148,9C5.296,227.101,4.9,230.558,5.26,234.445z" fill="#FFFFFF" fill-rule="evenodd" i:knockout="Off"/>
      <path clip-rule="evenodd" d="     M81.94,202.693c-2.484-4.608-4.788-8.532-7.056-11.772c-2.34-3.348-4.788-6.12-6.66-7.92c-1.98-1.836-3.42-2.844-4.716-3.024     l3.024-0.864c-0.9,0.288-1.404-0.252-1.512-1.476c-0.18-1.332,0.432-4.104,0.864-6.228c0.36-2.16,0.864-4.32,1.512-6.624     l-1.944,1.044l0.864-3.636h-2.808l2.592-2.34l-2.376-1.728l1.728-1.476c-0.612-2.556-0.18-4.968,1.296-7.092     c1.404-2.34,4.32-4.752,7.488-5.976c3.168-1.188,7.092-1.296,11.376-0.864c4.104,0.288,10.404,1.008,13.464,2.988     c2.988,2.052,4.788,6.372,4.284,8.784c-0.684,2.16-5.328,2.808-7.704,4.716c-2.34,1.872-2.412,5.472-6.192,6.624     c-3.924,1.044-9.36,1.044-16.74,0c-2.52,1.188-3.744,2.844-4.068,5.364c-0.324,2.448,0.468,5.472,2.376,9.216h-2.16     c1.584,0.684,3.312,2.952,5.58,6.66C76.648,190.813,79.096,195.889,81.94,202.693z" fill-rule="evenodd" i:knockout="Off" stroke="#000000" stroke-miterlimit="10" stroke-width="0.036"/>
      <path clip-rule="evenodd" d="     M75.316,145.057c-1.296,2.916-2.088,5.4-2.376,7.308c-0.432,1.836-0.108,3.636,0.432,4.284c0.468,0.54,1.26-0.432,2.808-0.432     c1.512-0.108,3.852,0.216,6.192,0.432c2.196,0.144,4.68,1.764,7.308,0.828c2.556-1.044,5.148-3.276,7.92-6.84     c-1.008,0.756-2.232,1.476-4.068,2.16c-1.872,0.612-4.464,1.872-6.66,1.692c-2.34-0.396-5.22-1.656-6.84-3.204     c-1.656-1.656-2.124-5.004-2.808-6.012C76.468,144.193,75.784,144.121,75.316,145.057z" fill="#FFFFFF" fill-rule="evenodd" i:knockout="Off" stroke="#000000" stroke-miterlimit="10" stroke-width="0.036"/>
      <path clip-rule="evenodd" d="M78.736,146.281     c-0.828,1.404-0.828,2.88,0,4.284c0.792,1.332,3.06,3.24,4.716,4.068c1.44,0.684,2.988,0.72,4.5,0.648     c1.512-0.108,3.132,0.144,4.716-1.044c1.476-1.26,3.024-3.456,4.5-6.444c0,0-1.08-1.08-2.16-1.512     c-1.044-0.432-2.124-0.216-2.124-0.216c-0.468,1.512-1.332,2.664-2.592,3.456c-1.44,0.792-3.744,1.26-5.112,1.26     c-1.404-0.216-2.16-0.9-2.808-1.908c-0.648-1.044-1.116-2.196-1.26-3.852C80.32,145.417,79.528,145.849,78.736,146.281z" fill="#A16121" fill-rule="evenodd" i:knockout="Off"/>
      <path clip-rule="evenodd" d="     M3.532,143.365c1.08-0.504,2.52-0.936,4.716-1.296c2.124-0.432,4.716-0.792,7.92-1.08c2.628,3.672,4.212,6.984,5.148,10.08     c0.792,3.024-0.18,5.76,0,8.352c0.036,2.556,1.152,6.156,0.864,7.056c-0.432,0.864-1.512,0.18-2.808-1.908     c-1.332-2.232-2.988-5.904-5.112-11.16c-1.116,0.648-2.052,0.18-2.808-1.26c-0.756-1.44-1.368-3.996-1.692-7.524     c-1.296-0.252-2.448-0.468-3.456-0.648C5.188,143.689,4.396,143.617,3.532,143.365z" fill-rule="evenodd" i:knockout="Off" stroke="#000000" stroke-miterlimit="10" stroke-width="0.036"/>
      <path clip-rule="evenodd" d="M9.544,143.725     c0.072,1.98,0.288,3.564,0.648,5.148c0.36,1.548,0.18,2.7,1.26,3.852c0.936,0.9,2.808,1.8,4.5,2.16     c1.512,0.36,3.204,0.36,4.932,0c0-0.936-0.072-1.8-0.216-2.592c-0.216-0.792-0.504-1.62-0.864-2.34     c-1.512,0.18-2.592,0.108-3.636-0.216c-1.008-0.36-1.692-1.008-2.34-1.944c-0.72-1.152-1.368-2.52-1.944-4.5     C11.128,143.437,10.336,143.581,9.544,143.725z" fill="#A16121" fill-rule="evenodd" i:knockout="Off"/>
      <path clip-rule="evenodd" d="M13.612,154.237c0-0.36,2.304,0.36,3.42,0.648     c1.044,0.18,2.412,0.108,2.988,0.612c0.468,0.468,0.72,1.584,0.216,1.944c-0.612,0.18-2.304-0.18-3.42-0.648     C15.736,156.145,13.468,154.597,13.612,154.237z" fill="#FFFFFF" fill-rule="evenodd" i:knockout="Off"/>
      <path clip-rule="evenodd" d="     M81.94,229.91c2.016-2.34,5.544-3.709,11.16-4.5c5.58-0.793,12.672-0.793,21.852,0c-5.868-0.037-10.728,0.107-14.58,0.432     c-3.96,0.252-5.724,0.504-8.784,1.295C88.456,227.785,85.288,228.757,81.94,229.91z" fill-rule="evenodd" i:knockout="Off" stroke="#000000" stroke-miterlimit="10" stroke-width="0.036"/>
      <path clip-rule="evenodd" d="     M83.02,233.761c3.6-1.332,7.452-2.016,11.556-2.34c4.068-0.252,8.316-0.145,12.888,0.611c-6.624,0.145-11.736,0.361-15.876,0.648     C87.484,232.968,84.676,233.33,83.02,233.761z" fill-rule="evenodd" i:knockout="Off" stroke="#000000" stroke-miterlimit="10" stroke-width="0.036"/>
      <path clip-rule="evenodd" d="     M88.384,252.193c4.968,0.504,8.748,1.404,11.772,2.557c2.88,1.08,4.86,2.555,5.796,4.283c-3.924-2.088-7.056-3.527-10.08-4.715     C92.992,253.093,90.364,252.517,88.384,252.193z" fill-rule="evenodd" i:knockout="Off" stroke="#000000" stroke-miterlimit="10" stroke-width="0.036"/>
      <path clip-rule="evenodd" d="     M87.304,256.044c4.212,0.9,7.164,2.16,9,4.068c1.728,1.836,2.304,4.141,1.728,7.057c-0.396-3.348-1.476-5.869-3.24-7.705     C92.992,257.593,90.544,256.406,87.304,256.044z" fill-rule="evenodd" i:knockout="Off" stroke="#000000" stroke-miterlimit="10" stroke-width="0.036"/>
      <path clip-rule="evenodd" d="     M83.452,261.625c1.008,0.18,1.98,1.08,2.772,2.557c0.792,1.404,1.44,3.527,1.944,6.229c-0.936-1.512-1.836-3.061-2.556-4.5     C84.82,264.468,84.1,262.994,83.452,261.625z" fill-rule="evenodd" i:knockout="Off" stroke="#000000" stroke-miterlimit="10" stroke-width="0.036"/>
      <path clip-rule="evenodd" d="     M16.6,125.689c-3.6-1.944-6.696-3.276-9.432-3.852c-2.808-0.648-5.112-0.54-7.056,0.18c1.836-0.072,4.068,0.216,6.84,0.864     C9.724,123.457,12.892,124.393,16.6,125.689z" fill-rule="evenodd" i:knockout="Off" stroke="#000000" stroke-miterlimit="10" stroke-width="0.036"/>
      <path clip-rule="evenodd" d="M44.464,101.569     c0.324-2.484,0.936-6.336,1.692-9.216c0.432-2.916-1.404-5.148,1.728-8.352c3.204-3.348,15.444-11.232,17.136-11.556     c1.476-0.468-5.724,5.328-8.136,9.216c-2.484,3.924-4.644,9.54-6.624,13.932c-2.088,4.32-4.644,10.44-5.58,11.556     C43.6,107.977,44.176,104.125,44.464,101.569z" fill="#FFFFFF" fill-rule="evenodd" i:knockout="Off"/>
      <path clip-rule="evenodd" d="     M145.156,184.369c-1.044,0.612-2.016,2.52-2.772,5.58c-0.828,3.132-1.476,7.236-1.944,12.852l1.728-7.272     c-0.288,1.872-0.216,3.816,0.216,5.976c0.432,2.16,1.008,4.248,2.124,6.66c-0.684-3.276-0.9-6.228-0.648-9     c0.18-2.772,0.828-5.22,1.944-7.488c-0.504,2.988-0.504,5.796,0,8.568c0.432,2.7,1.404,5.22,2.772,7.704     c-1.98-2.952-2.448-6.552-1.692-10.944c0.72-4.464,2.952-9.468,6.408-15.408c-1.44,1.116-2.664,2.268-4.068,3.852     c-1.44,1.548-2.664,3.132-4.068,5.148C145.156,188.545,145.156,186.457,145.156,184.369z" fill-rule="evenodd" i:knockout="Off" stroke="#000000" stroke-miterlimit="10" stroke-width="0.036"/>
      <path clip-rule="evenodd" d="     M164.236,200.029c-1.404,4.248-1.476,8.28-0.216,12.636c1.224,4.321,3.672,8.424,7.488,12.852     c-2.916-3.996-4.752-7.596-5.796-10.943c-1.008-3.42-1.08-6.445-0.216-9.217c0.576,3.816,1.476,7.056,3.24,9.863     c1.656,2.809,3.816,4.896,6.624,6.66c-2.988-2.627-4.932-5.795-5.976-9.647c-1.08-3.852-1.224-8.28-0.432-13.284     c-0.684,1.728-1.404,2.52-2.16,2.772C166.036,201.901,165.136,201.289,164.236,200.029z" fill-rule="evenodd" i:knockout="Off" stroke="#000000" stroke-miterlimit="10" stroke-width="0.036"/>
      <path clip-rule="evenodd" d="     M180.292,200.677c0.648,2.88,1.62,5.868,2.772,8.568c1.152,2.664,2.628,5.436,4.284,7.92c-2.268-2.305-3.924-4.752-5.112-7.488     C181.012,206.869,180.364,203.917,180.292,200.677z" fill-rule="evenodd" i:knockout="Off" stroke="#000000" stroke-miterlimit="10" stroke-width="0.036"/>
      <path clip-rule="evenodd" d="     M100.804,248.666c1.692-0.756,3.816-1.764,6.228-3.023c2.448-1.262,5.184-2.809,8.352-4.5l2.988,6.443     c-4.104,0.936-7.56,1.512-10.512,1.729C104.908,249.457,102.604,249.242,100.804,248.666z" fill="#FFFFFF" fill-rule="evenodd" i:knockout="Off" stroke="#000000" stroke-miterlimit="10" stroke-width="0.036"/>
      <path clip-rule="evenodd" d="     M86.008,239.125c1.404-0.539,3.672-0.395,6.66,0.434c3.06,0.826,8.28,2.627,11.34,4.283c2.844,1.584,4.896,3.096,6.012,4.932     c-4.896-2.844-9.324-5.111-13.284-6.66C92.704,240.494,89.176,239.449,86.008,239.125z" fill-rule="evenodd" i:knockout="Off" stroke="#000000" stroke-miterlimit="10" stroke-width="0.036"/>
      <path clip-rule="evenodd" d="     M121.828,53.149c6.408-0.36,11.844-0.36,16.848,0c4.824,0.252,7.812,0.72,12.42,1.979c4.536,1.26,9.612,2.952,14.796,5.616     c5.076,2.628,10.512,7.308,15.624,10.008c4.968,2.556,8.208,3.456,14.436,5.616c6.3,2.16,13.68,4.464,22.824,7.2     c-2.124,0.864-4.608,1.188-7.596,0.828c-3.06-0.36-6.444-1.296-10.44-2.808c1.26,2.448,3.132,4.176,5.616,5.58     c2.448,1.332,5.472,2.088,9.216,2.412c-2.916,1.296-5.544,1.656-8.028,1.224c-2.52-0.504-4.788-1.8-6.804-4.032     c1.08,1.656,2.232,3.528,3.6,5.22c1.404,1.656,2.7,3.528,4.428,5.22c-2.196-2.592-5.04-5.22-8.82-8.028     c-3.816-2.808-8.82-5.292-13.608-8.82c-4.824-3.744-9.9-10.188-15.228-12.816c-5.4-2.592-12.348-1.26-16.812-2.808     c-4.572-1.728-4.68-5.292-10.044-7.2C138.748,55.633,131.404,54.121,121.828,53.149z" fill="#FFFFFF" fill-rule="evenodd" i:knockout="Off" stroke="#000000" stroke-miterlimit="10" stroke-width="0.036"/>
      <path clip-rule="evenodd" d="M186.34,242.582     c-3.708,5.58-7.308,10.477-11.232,14.832c-4.032,4.355-8.136,8.604-12.024,11.232c-3.888,2.412-6.372,3.887-10.8,3.6     c-4.5-0.432-9.792-2.16-16.02-5.617c5.112,6.373,9.288,12.781,12.816,19.225c3.42,6.373,3.456,15.877,8.028,19.225     c4.644,3.24,12.996-1.117,19.224,0.396c6.012,1.475,12.816,6.73,16.812,8.424c3.888,1.547,5.976,1.943,6.408,1.188     c0.864,5.939,0.468,10.619-0.792,14.436c-1.368,3.709-3.78,6.373-7.236,7.992c-2.052,0.396-3.996,1.045-5.976,2.088     c-1.98,0.828-4.536,2.16-5.724,3.852c-1.332,1.729-1.98,3.996-1.944,6.66c1.512-1.477,2.556-2.088,3.132-2.123     c0.468,0.035,0.54,1.115,0.216,2.123c-0.504,0.756-1.764,1.404-2.376,3.348c-0.648,2.053-1.044,4.789-1.188,8.605     c1.008-1.152,1.512-2.16,1.908-2.629c0.18-0.576-0.936,0.756,0-0.721c0.9-1.547,5.4-9,5.724-8.604     c0.072,0.289-3.528,7.885-4.284,10.297c-0.72,2.303-0.648,3.492,0.216,3.563c1.008-0.252,1.728-0.07,2.16,0.254     c0.324,0.395,0.54,0.936,0.252,1.906c2.052,0.289,3.708,0.576,5.256,0.721c1.368,0.107,1.764,1.477,3.564,0.217     c1.764-1.297,4.104-3.924,7.164-7.885c-1.116,1.549-1.872,2.881-2.124,3.852c-0.324,0.973-0.252,1.729,0.216,2.125     c1.116-0.432,2.124-0.721,2.628-0.469c0.612,0.072,0.72,0.684,0.72,1.439c2.592,0.361,5.004,0.252,7.632-0.467     c2.484-0.721,6.156-2.053,7.668-3.852c1.332-2.018,0.756-5.256,1.188-7.633c0.468-2.34,0.972-4.535,1.656-6.443     c-0.936-1.512-1.404-2.377-1.404-2.881c-0.108-0.504,0.432-0.359,1.188,0c0.792,0.289,2.052,1.691,3.096,1.691     c0.792-0.143,2.017,0.109,2.16-2.158c0.036-2.377-0.54-7.813-1.439-11.449c-1.116-3.672-3.492-7.955-4.068-10.512     c-0.504-2.664-0.108-4.248,1.188-5.039c9.432-0.469,17.64-0.865,24.624-1.189c6.948-0.324,12.673-0.684,17.173-0.936     c-0.396,0.611,0.432,1.512,2.88,2.844c2.376,1.225,8.388,2.809,11.231,5.041c2.7,2.16,3.528,5.076,5.256,8.352     c1.692,3.168,3.385,6.443,4.788,11.232c1.332,4.824,2.412,12.996,3.097,17.172c0.504,3.814,0.144,4.752,0.468,6.695     c0.396,1.908,1.8,2.412,1.692,5.004c-0.288,2.484-1.944,7.488-2.881,10.297c-1.044,2.734-2.844,4.752-2.88,6.191     c-0.071,1.332,0.685,2.053,2.412,2.16c-2.16,5.615-3.78,10.08-5.256,13.393c-1.512,3.275-2.628,3.996-3.348,6.191     c-0.721,2.123-1.044,4.176-0.973,6.443c0.396-0.648,1.009-0.936,1.44-0.719c0.396,0.107,1.008,0.719,1.439,1.691     c0.145-2.664,0.54-4.859,1.188-6.443c0.576-1.693,2.556-4.105,2.628-3.35c-0.072,0.793-2.16,5.725-2.376,7.416     c-0.216,1.514,0.18,2.018,1.188,1.656c0,0.324,0.396,0.973,1.188,1.656c0.792,0.648,1.944,1.621,3.6,2.629     c0.324-1.152,0.721-1.656,1.188-1.656s0.9,0.504,1.44,1.656c0.575,0.432,1.079,0.646,1.655,0.504     c0.504-0.145,0.937-0.504,1.44-1.225c1.188-4.104,1.979-6.408,2.376-6.912c0.324-0.469-0.54,2.699-0.216,3.816     c0.144,0.863,0.323,1.26,1.655,2.16c1.368,0.936,3.313,2.123,6.229,3.564c-0.576-0.037-0.576-0.037,0,0     c0.468-0.037,1.548-0.037,3.096,0c0.973-0.506,1.765-1.189,2.376-1.656c0.54-0.504,1.08-0.037,1.188-1.656     c0-1.693-0.108-4.609-0.721-8.604c1.116,2.051,2.16,3.852,3.133,5.256c0.899,1.332,1.584,2.412,2.628,3.096     c1.008,0.611,2.195,0.9,3.563,0.719c-0.647-1.08-0.756-2.016-0.468-2.412c0.324-0.539,1.62-0.971,2.376-0.467     c0.576,0.539,1.152,1.691,1.44,3.6c1.044,0.684,1.476-0.324,1.439-2.629c-0.107-2.52-0.972-5.723-1.908-11.699     c-1.008-6.119-3.527-17.641-3.815-24.156c-0.433-6.48,1.188-9.504,1.656-14.328c0.359-4.824,1.008-9.072,0.972-14.543     c-0.181-5.797-1.08-13.068-1.44-18.9c-0.359-5.797-0.972-11.16-0.72-15.516c0.144-4.465,0.828-7.813,1.656-10.729     c0.72-2.951,2.376-4.211,2.88-6.695c0.396-2.629,0.359-5.365-0.252-8.605c-3.313,2.846-6.769,2.846-10.512,0     c-3.816-2.951-8.064-13.318-11.916-17.207c-3.889-3.961-8.425-5.725-11.232-5.977c-2.916-0.18-1.152,4.572-5.976,4.537     c-5.005-0.217-16.74-2.412-23.4-5.473c-6.696-3.24-10.692-10.512-16.272-12.924c-5.688-2.447-13.031-1.008-17.172-0.936     c-4.212,0.035-3.672,2.016-7.668,1.656c-4.248-0.361-11.16-1.584-16.704-3.816C196.924,250.322,191.668,247.009,186.34,242.582z" fill="#FFFFFF" fill-rule="evenodd" i:knockout="Off"/>
      <path clip-rule="evenodd" d="M284.188,288.734     c-0.216,0.646,0.576,2.34,1.691,2.16c1.08-0.434,2.809-2.773,4.752-3.816c1.801-0.973,4.896-1.045,5.977-2.16     c0.899-1.297,1.368-4.717,0-5.256c-1.44-0.648-6.769,0.324-8.353,1.656c-1.691,1.26-0.827,4.68-1.439,5.975     C286.097,288.445,284.296,288.085,284.188,288.734z" fill="#A16121" fill-rule="evenodd" i:knockout="Off"/>
      <path clip-rule="evenodd" d="M288.004,304.681     c1.332-0.396,5.544-0.721,6.948,0c1.296,0.684,2.016,4.141,1.188,4.535c-0.973,0.324-4.212-1.836-6.229-2.158     c-2.088-0.361-5.147,0.322-5.724,0.252c-0.612-0.145,1.764-0.613,2.412-0.973C287.212,305.869,286.528,304.898,288.004,304.681z" fill="#A16121" fill-rule="evenodd" i:knockout="Off"/>
      <path clip-rule="evenodd" d="M291.604,317.822     c0.647-0.541,6.372-0.324,7.164,0.252c0.468,0.539-2.088,3.059-3.349,3.096C294.196,321.062,291.028,318.326,291.604,317.822z" fill="#A16121" fill-rule="evenodd" i:knockout="Off"/>
      <path clip-rule="evenodd" d="M291.604,333.804     c2.808,1.549,4.607,2.881,5.256,3.854c0.576,0.971,0.144,1.727-1.44,2.123c-1.368,0.648-2.195,0.541-2.88-0.467     C291.82,338.197,291.641,336.541,291.604,333.804z" fill="#A16121" fill-rule="evenodd" i:knockout="Off"/>
      <path clip-rule="evenodd" d="M301.648,337.154     c0.107-0.361,2.735,0.072,3.312,0.719c0.36,0.469,0.108,2.521-0.468,2.412C303.916,340.142,301.54,337.478,301.648,337.154z" fill="#A16121" fill-rule="evenodd" i:knockout="Off"/>
      <path clip-rule="evenodd" d="M299.236,341.941     c0.864,0.072,3.132,1.008,3.348,1.439c0.072,0.361-3.168,0.396-2.628,0.938c0.54,0.576,5.832,1.402,5.725,1.908     c-0.433,0.252-6.084,0.395-7.381,0c-1.224-0.506,0.072-1.98,0-2.629c-0.252-0.684-1.439-0.936-1.224-1.188     C297.292,342.013,298.156,341.761,299.236,341.941z" fill="#A16121" fill-rule="evenodd" i:knockout="Off"/>
      <path clip-rule="evenodd" d="M303.305,353.173     c0.72-0.469,2.052-0.793,2.88,0c0.792,0.684,2.268,3.564,1.655,4.068c-0.827,0.432-5.436-0.828-6.191-1.441     C300.929,355.082,302.404,353.605,303.305,353.173z" fill="#A16121" fill-rule="evenodd" i:knockout="Off"/>
      <path clip-rule="evenodd" d="M309.28,359.617     c0.72-0.432,1.98,0.037,2.376,0.721c0.216,0.432,0.252,2.232-0.468,2.627c-0.792,0.361-3.492,0.504-3.816,0     C307.013,362.353,308.524,359.941,309.28,359.617z" fill="#A16121" fill-rule="evenodd" i:knockout="Off"/>
      <path clip-rule="evenodd" d="M313.816,365.341     c-0.864,0.324-1.044,3.707-0.252,4.32c0.72,0.324,4.68-0.936,4.788-1.693C318.28,367.177,314.645,365.052,313.816,365.341z" fill="#A16121" fill-rule="evenodd" i:knockout="Off"/>
      <path clip-rule="evenodd" d="M294.448,360.337     c0.432-0.289,7.128,2.016,8.136,2.879c0.828,0.793-1.296,2.27-2.628,1.908C298.48,364.585,294.052,360.625,294.448,360.337z" fill="#A16121" fill-rule="evenodd" i:knockout="Off"/>
      <path clip-rule="evenodd" d="M293.98,354.361     c0.504,0,3.672,2.771,3.815,3.6c0.145,0.613-2.556,1.045-3.096,0.469C293.944,357.746,293.513,354.398,293.98,354.361z" fill="#A16121" fill-rule="evenodd" i:knockout="Off"/>
      <path clip-rule="evenodd" d="M319.324,404.402     c-0.72,0.07-3.672-3.35-3.6-4.285c0-0.971,3.168-2.016,3.815-1.188C320.08,399.65,319.864,404.113,319.324,404.402z" fill="#A16121" fill-rule="evenodd" i:knockout="Off"/>
      <path clip-rule="evenodd" d="M185.764,356.162     c0.828-1.369,5.22-3.816,6.228-3.6c0.9,0.215,0.324,3.959-0.468,5.256c-0.936,1.295-3.6,2.34-4.536,2.16     C185.908,359.617,184.9,357.421,185.764,356.162z" fill="#A16121" fill-rule="evenodd" i:knockout="Off"/>
      <path clip-rule="evenodd" d="M206.32,359.726     c-1.476,1.295-1.152,3.238,0,3.6c1.08,0.215,5.508-0.648,6.912-1.908c1.332-1.369,2.556-5.725,1.44-5.977     C213.484,355.189,207.688,358.285,206.32,359.726z" fill="#A16121" fill-rule="evenodd" i:knockout="Off"/>
      <path clip-rule="evenodd" d="M253.624,265.189     c1.008,1.477,3.528,2.988,7.416,4.537c3.96,1.439,11.557,3.887,15.984,4.57c4.32,0.541,7.632-0.07,9.792-0.719     c1.908-0.828,1.044-3.061,2.412-3.348c1.296-0.396,3.456-0.541,5.939,1.654c2.484,2.232,6.588,8.605,8.856,11.484     c2.016,2.701,2.592,2.988,3.815,4.752c1.188,1.693,1.692,4.357,3.601,5.508c1.872,0.938,5.616,1.117,7.632,0.973     c1.908-0.107,3.132-0.721,3.816-1.691c-0.252-4.357-0.252-7.885,0-10.729c0.18-2.844-0.36-3.852,1.439-6.229     c1.764-2.52,6.876-4.932,9.072-8.604c2.124-3.779,6.3-11.52,3.348-13.355c-3.204-1.729-18.684,5.904-21.744,2.627     c-3.096-3.527,6.013-19.08,3.601-23.184c-2.592-4.141-16.128,3.24-18.396-1.188c-2.231-4.645,6.66-20.016,4.752-25.561     c-2.16-5.508-13.176-2.916-16.956-7.236c-3.743-4.5-1.728-19.476-5.472-19.116c-3.96,0.396-14.688,13.608-17.46,21.024     c-2.736,7.308,2.772,15.443,0.972,22.464c-2.016,6.984-11.052,13.787-12.672,18.863c-1.584,4.896,2.916,7.848,3.096,10.512     c0.108,2.484-1.979,2.736-2.376,4.789C253.66,259.933,253.372,262.38,253.624,265.189z" fill="#663500" fill-rule="evenodd" i:knockout="Off"/>
      <path clip-rule="evenodd" d="M396.688,42.709     c-3.96,0.144-6.552-0.18-7.632-0.972c-1.152-0.792,3.527-1.368,0.972-3.816c-2.808-2.628-18.324-10.764-16.992-11.232     c1.368-0.432,18.108,3.456,25.092,8.352c6.84,4.788,12.061,13.824,16.236,20.304c4.104,6.372,6.516,11.7,8.604,17.928     c1.944,6.156,2.269,12.348,3.349,18.864c1.044,6.336,2.88,15.084,2.88,19.584c-0.216,4.356-4.104,2.664-3.348,7.164     c0.756,4.536,6.336,13.32,8.136,19.836c1.62,6.372,1.944,12.96,2.376,18.396c0.359,5.22,0.792,9.432,0.468,13.608     c-0.36,4.212-1.26,7.236-2.16,11.7c-0.899,4.356-2.052,9.216-3.312,14.58c-0.576,1.08-0.864,3.6-0.721,7.704     c0,4.032,1.116,11.521,1.404,16.488c0.18,4.861,0.36,8.785,0.252,12.889c-0.144,4.068-0.756,8.352-0.72,11.484     c-0.108,2.988,0.036,4.967,0.72,6.912c0.612,1.799,2.196,1.223,3.349,4.535c1.079,3.203,3.023,11.916,3.348,15.049     c0.144,3.023-0.864,2.879-1.908,3.6c-1.151,0.719-2.412,1.08-4.319,0.936c-0.973-0.611-1.44-1.225-1.404-2.123     c0-0.9,1.439-1.801,1.404-3.133c-0.181-1.512-1.765-5.508-2.377-5.473c-0.72,0.037-1.548,3.889-1.655,5.725     c-0.072,1.729,0.107,3.275,0.936,4.787c-1.044,0.9-2.556,1.584-4.536,1.656c-2.052,0.037-4.428-0.143-7.416-0.936     c-0.216-0.287,0-1.404,0.504-3.348c0.576-1.943,2.881-8.855,2.629-8.389c-0.396,0.361-2.125,3.816-5.04,10.512     c-0.612,0.289-1.297,0.217-1.656-0.215c-0.396-0.613-0.72-2.412-0.972-2.629c-0.433-0.18-0.864,0.324-1.44,1.656l-2.844-1.908     c1.548,0.217,2.483-0.576,3.096-2.375c0.54-1.908,0.576-7.992,0.252-8.389c-0.396-0.396-1.8,4.932-2.412,5.977     c-0.72,0.971-0.864-0.936-1.404-0.469c-0.756,0.289-1.8,2.52-2.159,2.412c-0.324-0.215-0.252-2.051,0.216-3.131     c0.396-1.225,2.124-2.412,2.412-3.564c0.144-1.225-1.98-2.053-0.973-3.6c0.973-1.549,4.969-3.385,6.696-6.193     c1.584-3.096,2.592-6.803,2.88-11.699c0.072-4.932-1.188-13.213-1.691-17.209c-0.54-4.104-1.404-4.211-1.188-6.695     c0.216-2.557,2.88-4.104,2.16-8.136c-1.008-4.176-3.348-10.8-7.164-15.984c-3.852-5.184-11.952-12.096-15.552-15.048     c-3.637-2.988-5.616-3.996-5.94-2.88c0.468-7.632,1.656-14.94,3.564-22.212c1.908-7.38,4.68-14.004,7.884-21.24     s8.28-13.968,10.764-21.996c2.305-8.244,3.708-17.352,3.097-26.496c-0.828-9.216-4.645-20.772-7.416-27.72     C403.168,49.225,400.108,44.797,396.688,42.709z" fill="#FFFFFF" fill-rule="evenodd" i:knockout="Off"/>
      <path clip-rule="evenodd" d="M410.332,168.349     c0.756,1.44,6.3,5.724,7.884,6.192c1.44,0.288,1.692-2.808,1.188-4.284c-0.612-1.548-4.464-3.708-4.32-4.536     c0.216-0.792,5.004,0.036,5.04-0.72c-0.216-1.008-4.932-5.004-5.976-4.788c-1.08,0.252-0.216,4.464-0.72,5.976     C412.708,167.413,409.504,167.017,410.332,168.349z" fill="#A16121" fill-rule="evenodd" i:knockout="Off"/>
      <path clip-rule="evenodd" d="M419.404,209.677     c-0.18,0.288,1.8,3.096,2.628,3.564c0.612,0.252,1.872-1.08,1.44-1.656C422.968,210.865,419.62,209.389,419.404,209.677z" fill="#A16121" fill-rule="evenodd" i:knockout="Off"/>
      <path clip-rule="evenodd" d="M420.124,220.91     c-0.359,0.395,2.376,5.291,3.349,5.939c0.792,0.541,2.699-1.404,2.124-2.375C424.948,223.357,420.484,220.548,420.124,220.91z" fill="#A16121" fill-rule="evenodd" i:knockout="Off"/>
      <path clip-rule="evenodd" d="M422.248,230.197     c-0.756,0.648-1.188,3.168-0.468,4.068c0.648,0.721,3.168,1.008,4.068,0.469c0.72-0.756,1.332-3.205,0.72-4.033     C425.813,229.765,423.076,229.693,422.248,230.197z" fill="#A16121" fill-rule="evenodd" i:knockout="Off"/>
      <path clip-rule="evenodd" d="M422.968,240.96     c-0.071,0.324,2.053,3.061,2.629,3.35c0.432,0.18,0.647-1.693,0.252-2.16C425.309,241.574,423.004,240.529,422.968,240.96z" fill="#A16121" fill-rule="evenodd" i:knockout="Off"/>
      <path clip-rule="evenodd" d="M421.061,273.433     c-0.288,0.648,1.764,1.908,2.412,1.691c0.611-0.432,1.728-3.6,1.403-3.814C424.336,270.914,421.349,272.822,421.061,273.433z" fill="#A16121" fill-rule="evenodd" i:knockout="Off"/>
      <path clip-rule="evenodd" d="M410.08,138.181     c1.368,0.468,5.652,4.68,5.508,5.976c-0.252,1.116-5.256,0.9-6.695,1.44c-1.44,0.576-2.017,2.556-2.16,1.908     c-0.36-0.792-0.072-4.716,0.468-6.228C407.776,139.621,408.604,137.749,410.08,138.181z" fill="#A16121" fill-rule="evenodd" i:knockout="Off"/>
      <path clip-rule="evenodd" d="M430.853,142.969     c0.611,0.252,0.359,4.536-0.217,5.472c-0.756,0.648-3.888-0.036-3.852-0.937C426.784,146.461,430.132,142.825,430.853,142.969z" fill="#A16121" fill-rule="evenodd" i:knockout="Off"/>
      <path clip-rule="evenodd" d="M430.636,156.829     c0.648-0.576,2.377,1.764,2.125,2.844c-0.324,0.9-3.744,3.564-4.032,3.132C428.368,162.301,429.88,157.297,430.636,156.829z" fill="#A16121" fill-rule="evenodd" i:knockout="Off"/>
      <path clip-rule="evenodd" d="M421.061,70.465     c-1.152-4.536-2.232-7.272-3.097-10.98c-1.008-3.852-2.556-10.62-2.159-11.7c0.396-1.08,3.06,2.016,4.535,5.256     c1.332,3.096,2.017,8.928,3.601,13.608c1.584,4.644,3.779,9.396,5.472,13.86c1.512,4.248,2.808,7.704,3.601,12.168     c0.575,4.572,0.684,10.08,0.468,14.58c-0.181,4.32-1.404,6.12-1.44,11.232c-0.144,5.076,1.477,17.244,0.973,18.864     c-0.757,1.368-2.7-7.56-4.284-10.26c-1.656-2.772-4.104-3.564-4.572-5.976c-0.396-2.52,1.62-5.256,2.16-8.604     c0.324-3.42,0.54-7.452,0.252-11.7c-0.468-4.356-1.188-9.108-2.16-14.112C423.473,81.589,422.032,74.929,421.061,70.465z" fill="#663500" fill-rule="evenodd" i:knockout="Off"/>
      <path clip-rule="evenodd" d="     M285.376,3.469c-3.168,0.756-6.443,1.98-10.26,4.068c-3.96,1.944-8.892,5.076-12.42,7.884c-3.6,2.772-7.308,6.876-8.352,8.568     c-0.973,1.44,0.323,1.332,2.628,0.504c2.195-0.972,6.768-4.608,10.512-5.76c3.6-1.188,6.372-0.612,11.231-1.188     c4.788-0.684,10.332-1.584,17.173-2.844c-3.061-0.108-5.652-0.144-7.633-0.252c-2.124-0.18-3.491-0.288-4.535-0.468l7.415-3.816     h0.001c-1.62-0.108-3.492,0.072-5.761,0.684c-2.376,0.612-4.859,1.476-7.884,2.88c4.248-2.088,7.344-3.6,9.576-4.536     c2.124-0.972,3.24-1.368,3.348-1.188c-7.452,2.34-11.592,3.132-12.42,2.376C277.132,9.625,279.544,7.321,285.376,3.469z" fill="#FFFFFF" fill-rule="evenodd" i:knockout="Off" stroke="#000000" stroke-miterlimit="10" stroke-width="0.036"/>
      <path clip-rule="evenodd" d="     M82.732,139.333c1.296-2.34,3.708-3.708,7.38-4.5s8.352-0.792,14.436,0c-3.888-0.036-7.056,0.108-9.648,0.432     c-2.7,0.252-3.708,0.54-5.796,1.26C87.052,137.173,84.928,138.109,82.732,139.333z" fill-rule="evenodd" i:knockout="Off" stroke="#000000" stroke-miterlimit="10" stroke-width="0.036"/>
      <path clip-rule="evenodd" d="     M40.072,254.208c-0.54,0.469-1.332,0.541-2.232,0.613c-0.972-0.037-1.944,0-3.348-0.721c-1.62-0.9-3.672-3.959-5.724-3.889     c-2.088,0.072-4.284,1.477-6.732,4.357c1.188-1.512,2.52-2.557,3.996-2.988c1.404-0.576,2.988-0.576,4.608,0.145     c1.512,0.611,3.132,3.563,4.716,3.994C36.976,256.117,38.416,255.613,40.072,254.208z" fill="#FFFFFF" fill-rule="evenodd" i:knockout="Off" stroke="#000000" stroke-miterlimit="10" stroke-width="0.036"/>
      <path clip-rule="evenodd" d="     M7.096,249.998c2.556-1.297,4.896-1.764,6.732-1.26c1.8,0.539,3.384,1.727,4.464,4.104c-1.26-1.512-2.88-2.557-4.716-2.988     C11.596,249.384,9.616,249.384,7.096,249.998z" fill="#FFFFFF" fill-rule="evenodd" i:knockout="Off" stroke="#000000" stroke-miterlimit="10" stroke-width="0.036"/>
    </g>
  </g>
</svg>
