<?xml version="1.0" encoding="utf-8"?>
<!-- Generator: Adobe Illustrator 10.0, SVG Export Plug-In . SVG Version: 3.0.0 Build 77)  --><svg enable-background="new 0 0 195.301 268.523" height="268.523" i:pageBounds="0 792 612 0" i:rulerOrigin="0 0" i:viewOrigin="208 530" overflow="visible" space="preserve" viewBox="0 0 195.301 268.523" width="195.301" xmlns="http://www.w3.org/2000/svg" xmlns:a="http://ns.adobe.com/AdobeSVGViewerExtensions/3.0/" xmlns:graph="http://ns.adobe.com/Graphs/1.0/" xmlns:i="http://ns.adobe.com/AdobeIllustrator/10.0/" xmlns:x="http://ns.adobe.com/Extensibility/1.0/" xmlns:xlink="http://www.w3.org/1999/xlink">
  <metadata>
    <rdf:RDF xmlns:cc="http://web.resource.org/cc/" xmlns:dc="http://purl.org/dc/elements/1.1/" xmlns:rdf="http://www.w3.org/1999/02/22-rdf-syntax-ns#">
      <cc:Work rdf:about="">
        <dc:title>Trumpet Harmon Mute</dc:title>
        <dc:description>Trumpet Harmon Mute.</dc:description>
        <dc:subject>
          <rdf:Bag>
            <rdf:li>mute</rdf:li>
            <rdf:li>music</rdf:li>
            <rdf:li>equipment</rdf:li>
            <rdf:li>trumpet</rdf:li>
          </rdf:Bag>
        </dc:subject>
        <dc:publisher>
          <cc:Agent rdf:about="http://www.openclipart.org/">
            <dc:title>Open Clip Art Project</dc:title>
          </cc:Agent>
        </dc:publisher>
        <dc:creator>
          <cc:Agent rdf:about="http://web.resource.org/cc/PublicDomain">
            <dc:title>Gerald G.</dc:title>
          </cc:Agent>
        </dc:creator>
        <dc:rights>
          <cc:Agent rdf:about="http://web.resource.org/cc/PublicDomain">
            <dc:title>Public Domain</dc:title>
          </cc:Agent>
        </dc:rights>
        <dc:date>2005-04-22</dc:date>
        <dc:format>image/svg+xml</dc:format>
        <dc:type rdf:resource="http://purl.org/dc/dcmitype/StillImage"/>
        <cc:license rdf:resource="http://web.resource.org/cc/PublicDomain"/>
        <dc:language>en</dc:language>
      </cc:Work>
      <cc:License rdf:about="http://web.resource.org/cc/PublicDomain">
        <cc:permits rdf:resource="http://web.resource.org/cc/Reproduction"/>
        <cc:permits rdf:resource="http://web.resource.org/cc/Distribution"/>
        <cc:permits rdf:resource="http://web.resource.org/cc/DerivativeWorks"/>
      </cc:License>
    </rdf:RDF>
  </metadata>
  <g i:dimmedPercent="50" i:layer="yes" i:rgbTrio="#4F008000FFFF" id="Layer_1">
    <g>
      <path clip-rule="evenodd" d="M29.598,101.486     c6.995,0,12.672,6.742,12.672,15.048c0,8.306-5.677,15.048-12.672,15.048c-6.995,0-12.672-6.742-12.672-15.048     C16.926,108.228,22.604,101.486,29.598,101.486" fill="#FFFFFF" fill-rule="evenodd" i:knockout="Off"/>
      <path clip-rule="evenodd" d="     M6.426,156.51l8.928,41.292l4.824,23.904l2.016,8.892l1.692,6.156l1.584,4.572l1.584,3.312l1.512,2.305l1.908,1.907l7.2,5.257     l3.528,1.907l4.392,1.836l9.396,3.276l9.648,2.952l7.452,1.836l6.012,1.224l5.688,0.792l4.824,0.396l3.312,0.18l6.336-0.072     l5.183,0.072l6.014-0.359l5.65-0.685l5.797-1.044l5.58-1.26l8.316-2.304l9.684-3.133l7.236-2.664l3.744-1.728l2.988-1.8     l6.371-4.681l1.908-1.907l1.549-2.305l1.547-3.312l1.297-3.528l1.619-5.868l2.053-8.64l4.211-20.916l2.088-10.08l7.813-35.784     H6.426z" fill-rule="evenodd" i:knockout="Off" stroke="#000000" stroke-miterlimit="10" stroke-width="0.036"/>
      <path clip-rule="evenodd" d="     M22.734,168.03l3.42,24.624l3.42,21.779l4.608,25.488l0.72,2.772l0.756,1.943l1.044,1.836l1.908,2.341l2.016,1.8l2.484,1.62     l2.844,1.439l5.328,2.124l13.248,4.32l4.212,1.116l3.852,0.684l3.06,0.252h0.828l-1.512-12.204l-1.332-14.508l-1.08-12.852     l-0.288-5.185v-5.184l0.396-5.94l0.72-5.868l0.972-5.867l1.512-6.66l1.404-4.969l-7.956-0.863l-9.468-1.44l-8.712-1.691     l-7.02-1.765l-6.444-2.016l-5.76-2.269l-5.184-2.483l-3.456-2.017L22.734,168.03z" fill="#FFFFFF" fill-rule="evenodd" i:knockout="Off" stroke="#000000" stroke-miterlimit="10" stroke-width="0.036"/>
      <path clip-rule="evenodd" d="     M171.162,162.45l-0.324,5.22l-0.287,5.112l-0.324,4.896l-0.289,4.716l-0.324,4.536l-0.322,4.356l-0.324,4.212l-0.361,4.032     l-0.359,3.888l-0.359,3.744l-0.361,3.528l-0.395,3.384l-0.361,3.275l-0.395,3.061l-0.396,2.952l-0.432,2.771l-0.396,2.521     l-0.396,2.268l-0.359,2.052l-0.359,1.801l-0.324,1.584l-0.324,1.439l-0.396,1.296l-0.396,1.152l-0.395,1.044l-0.434,1.008     l-0.504,0.9l-0.576,0.864l-0.611,0.863l-0.684,0.864l-0.793,0.936l-0.863,0.973l-0.936,0.936l-0.938,0.9l-1.008,0.828     l-0.971,0.756l-1.045,0.756l-1.08,0.648l-1.08,0.647l-1.188,0.54l-1.225,0.54l-1.26,0.504l-1.332,0.432l-1.439,0.396     l-1.477,0.396l-1.547,0.359l-1.693,0.252l-1.691,0.324l0.863-0.972l0.793-1.08l0.648-1.152l0.611-1.296l0.504-1.332l0.469-1.476     l0.432-1.549l0.359-1.62l0.396-1.764l0.324-1.836l0.359-1.872l0.359-2.016l0.396-2.052l0.432-2.124l0.504-2.269l0.576-2.268     v-0.036l0.072-0.288l0.109-0.54l0.18-0.792l0.18-1.044l0.215-1.188l0.217-1.403l0.252-1.62l0.252-1.764l0.217-1.908l0.18-2.053     l0.18-2.159l0.18-2.269l0.072-2.376l0.072-2.448v-2.483l-0.072-2.412l-0.035-2.124l-0.037-1.944l-0.107-1.764l-0.107-1.656     l-0.072-1.512l-0.145-1.476l-0.145-1.477l-0.18-1.439l-0.252-1.513l-0.252-1.62l-0.252-1.728l-0.287-1.872l-0.361-2.088     l-0.432-2.34l-0.396-2.557l0.432-0.036l0.506-0.035l0.504-0.072l0.539-0.072l0.541-0.144l0.574-0.145l0.613-0.144l0.576-0.252     l0.646-0.216l0.648-0.253l0.721-0.287l0.684-0.288l0.721-0.36l0.756-0.396l0.791-0.359l0.828-0.433l0.828-0.468l0.865-0.468     l0.828-0.504l0.936-0.504l0.9-0.576l0.936-0.576l0.971-0.612l0.973-0.647l1.008-0.648l1.008-0.684l1.045-0.72l1.08-0.721     l1.115-0.792l1.152-0.792l1.115-0.827L171.162,162.45z" fill="#FFFFFF" fill-rule="evenodd" i:knockout="Off" stroke="#000000" stroke-miterlimit="10" stroke-width="0.036"/>
      <path clip-rule="evenodd" d="     M11.25,161.766l3.564,20.124l3.384,17.604l4.896,24.191l2.268,9.505l1.26,4.212l1.872,4.644l1.584,3.024l1.332,1.836l1.08,1.08     l1.404,0.792l0.828,0.18l0.864-0.036l-1.224-1.691l-1.188-2.377l-1.26-3.132l-1.8-6.155l-1.692-7.021l-1.692-8.46l-1.836-11.304     l-4.68-34.057l-0.936-5.327l-0.036,0.035L11.25,161.766z" fill="#A1A1A1" fill-rule="evenodd" i:knockout="Off" stroke="#000000" stroke-miterlimit="10" stroke-width="0.036"/>
      <path clip-rule="evenodd" d="     M79.686,187.47l-1.368,6.408l-1.044,6.624l-0.648,5.904l-0.36,6.912l-0.072,4.5l0.324,7.668l1.044,11.483l1.692,15.229     l1.08,7.056l0.756,3.924l4.716,0.828l4.392,0.396l3.78,0.18l7.92-0.072l6.371-0.432l5.328-0.648l6.012-1.151l7.416-1.837     l5.762-1.8l1.115-1.368l1.512-2.52l1.584-3.78l1.656-4.859l2.305-8.316l1.871-8.424l0.863-5.4l0.686-5.616l0.646-8.207     l0.324-5.94v-5.652l-0.432-7.992l-0.467-4.392l-0.721-3.996l-0.18-0.612L79.686,187.47z" fill="#A1A1A1" fill-rule="evenodd" i:knockout="Off" stroke="#000000" stroke-miterlimit="10" stroke-width="0.036"/>
      <path clip-rule="evenodd" d="     M184.375,160.038l-2.592,15.84l-2.809,14.94l-3.924,18.72l-2.521,10.548l-2.447,8.568l-2.484,7.056l-1.619,3.852l2.123-12.743     l1.693-11.809l1.512-13.824l0.971-11.735l0.541-9.216l0.18-7.345l-0.107-6.264L184.375,160.038z" fill="#A1A1A1" fill-rule="evenodd" i:knockout="Off" stroke="#000000" stroke-miterlimit="10" stroke-width="0.036"/>
      <path clip-rule="evenodd" d="     M46.098,72.306l-0.324,3.024l-0.684,3.564l-1.296,4.212l-1.476,3.672l-2.232,4.248l-2.376,3.672l-3.384,4.284l-5.544,6.228     l-7.488,7.992l-5.292,4.788l-6.012,5.328l-2.952,3.06l-1.944,2.412l-1.8,3.132l-1.692,3.853L0.63,139.05l-0.468,2.628     l-0.144,1.944l0.036,1.979l0.252,2.053l0.756,2.664l1.152,2.735l1.548,2.845l2.52,3.672l3.06,3.672l3.564,3.6l4.14,3.384     l3.636,2.484l3.996,2.232l4.68,2.159l6.552,2.484l7.056,2.268l10.008,2.772l12.924,3.096l6.624,1.261l7.128,0.972l5.868,0.504     l5.832,0.252h10.08l6.984-0.216l5.977-0.433l5.148-0.611l6.479-1.044l8.209-1.8l10.98-2.736l7.164-2.017l7.055-2.268l6.553-2.484     l4.645-2.159l3.023-1.62l3.744-2.448l4.211-3.348l3.025-2.845l3.275-3.672l3.203-4.392l1.621-2.88l1.26-2.736l0.684-2.016     l0.396-2.017l0.217-2.016v-1.98l-0.469-3.312l-0.9-3.24l-1.295-3.204l-1.621-3.168l-1.691-2.484l-2.16-2.448l-4.428-4.14     l-8.064-7.2l-6.984-7.308l-6.156-6.84l-3.492-4.32l-2.088-3.096l-2.34-4.248l-1.619-3.636l-1.404-4.212l-0.828-3.636     l-0.469-3.564l-0.035-0.612H46.098z" fill="#404040" fill-rule="evenodd" i:knockout="Off" stroke="#000000" stroke-miterlimit="10" stroke-width="0.036"/>
      <path clip-rule="evenodd" d="     M64.134,88.326l-0.576,3.924l-1.224,4.932l-1.764,5.436l-2.592,6.696l-3.42,7.632l-5.112,10.26l-4.14,7.416l-3.744,6.048     l-5.112,7.416l-5.436,7.128l-5.832,6.912l-1.332,1.476l2.448,1.836l3.168,1.872l4.824,2.232l7.308,2.808l8.208,2.628l6.228,1.656     l6.156,1.225l6.912,1.008l7.02,0.647l2.844,0.145l1.908-5.796l1.8-6.841l1.908-8.712l2.592-14.472l1.476-9.648l0.828-7.524     l0.468-6.372l0.288-8.532l0.036-7.56l-0.324-9.828l-0.288-4.392L64.134,88.326z" fill="#FFFFFF" fill-rule="evenodd" i:knockout="Off" stroke="#000000" stroke-miterlimit="10" stroke-width="0.036"/>
      <path clip-rule="evenodd" d="     M119.682,90.81l0.865,8.892l1.152,8.82l1.727,9.684l1.621,7.776l2.303,9.036l3.168,10.692l2.809,8.316l2.771,6.947l2.449,5.292     l2.52,4.356l0.539,0.864l5.51-1.44l6.91-2.268l6.445-2.593l7.344-3.527l3.24-1.765l-2.16-0.863l-2.195-1.261l-3.133-2.34     l-3.168-3.096l-3.24-3.744l-4.5-6.048l-3.672-5.544l-3.564-6.156l-2.771-5.724l-2.016-4.86l-2.412-7.236l-2.125-7.704     l-1.764-8.208l-1.439-8.604l-0.504-3.852L119.682,90.81z" fill="#FFFFFF" fill-rule="evenodd" i:knockout="Off" stroke="#000000" stroke-miterlimit="10" stroke-width="0.036"/>
      <path clip-rule="evenodd" d="     M49.05,77.238l-1.044,4.212l-1.368,4.104l-1.692,4.032l-2.304,4.5l-2.736,4.356l-2.88,3.636l-3.924,4.14l-10.476,9.792     l-6.912,6.588l-4.824,4.716l-2.16,2.484l-1.98,2.844l-1.728,3.132l-0.9,2.268l-0.72,2.88l-0.216,2.16l0.108,2.052l0.504,2.34     l0.792,1.944l1.332,2.196l1.8,2.16l1.908,1.8l3.456,2.628l4.248,2.483l3.204,1.62l8.028-9.18l7.02-8.784l4.932-6.768l4.14-6.408     l3.384-6.012l4.824-9.864l2.988-7.128l3.384-9.216l3.132-9.18l1.296-4.536l0.54-2.664l0.036-0.432L49.05,77.238z" fill="#A1A1A1" fill-rule="evenodd" i:knockout="Off" stroke="#000000" stroke-miterlimit="10" stroke-width="0.036"/>
      <path clip-rule="evenodd" d="     M92.358,88.218l0.504,3.996l0.396,5.688l0.108,3.492l-0.144,11.196l-0.396,8.352l-0.756,9.072l-1.8,14.76l-2.916,20.483     l-1.44,8.893l-0.864,4.067l-0.468,1.225l-0.252,0.071l-0.108-0.216l7.092,0.72l6.408,0.288l5.616-0.071l6.012-0.36l5.869-0.72     l6.012-1.08l5.543-1.368l6.732-2.016l4.537-1.584l-3.277-5.58l-3.168-6.301l-2.447-5.796l-1.836-5.256l-1.584-5.868l-2.34-10.583     l-2.088-10.548l-1.549-9.468l-0.719-5.688l-0.686-8.712l-0.252-6.228v-6.84l0.072-2.268L92.358,88.218z" fill="#A1A1A1" fill-rule="evenodd" i:knockout="Off" stroke="#000000" stroke-miterlimit="10" stroke-width="0.036"/>
      <path clip-rule="evenodd" d="     M146.682,74.502l0.721,4.32l0.973,3.708l1.26,3.6l1.799,4.032l1.945,3.492l3.203,4.5l5.004,5.976l4.537,5.04l8.566,7.776     l5.438,4.536l2.23,2.34l2.594,3.492l1.836,3.06l1.188,2.772l0.539,2.088l0.252,2.124l-0.072,2.231l-0.432,2.916l-0.756,2.592     l-0.756,1.656l-1.188,1.62l-1.691,1.584l-7.957,6.3l-3.096,2.124l-3.709-2.231l-3.527-2.736l-3.383-3.168l-2.881-3.276     l-3.457-4.752l-4.139-6.84l-4.789-8.676l-3.168-6.624l-1.871-4.644l-1.801-5.652l-1.943-7.992l-2.195-10.548l-1.801-10.836     l-0.18-1.332L146.682,74.502z" fill="#A1A1A1" fill-rule="evenodd" i:knockout="Off" stroke="#000000" stroke-miterlimit="10" stroke-width="0.036"/>
      <path clip-rule="evenodd" d="     M97.866,0.234l-2.808-0.216L91.17,0.09l-3.744,0.324l-5.04,0.828l-5.904,1.332l-6.192,1.728l-4.392,1.656l-3.6,1.8l-3.132,2.016     l-2.628,2.232l-1.98,2.088l-0.72,0.936l-0.036,6.732l-0.324,7.2l-0.72,8.1l-0.972,6.768l-1.908,9.252L47.142,65.25l-1.044,3.348     l-1.44,3.96L44.37,74.07l0.036,1.512l0.504,1.548l0.648,0.972l1.764,1.584l4.068,2.844l5.004,3.06l5.004,2.592l4.248,1.8     l4.68,1.62l4.392,1.116l5.328,1.044l5.328,0.72l6.192,0.54l6.732,0.216l6.409-0.216l5.723-0.54l6.012-0.9l6.553-1.44l5.256-1.62     l4.752-1.908l4.969-2.484l5.58-3.312l4.428-3.132l1.764-1.584l0.721-1.152l0.432-1.368l0.035-1.512l-0.467-2.052l-1.801-4.968     l-1.26-5.004l-3.313-15.228l-1.188-7.056l-0.648-5.652l-0.611-8.748l-0.18-7.632l0.035-2.7l-1.799-2.16l-2.484-2.304     l-2.953-2.088l-3.42-1.836l-3.564-1.548l-5.363-1.692l-6.156-1.548l-5.363-1.08l-4.717-0.612l-2.664-0.144L99.379,0.09     L97.866,0.234z" fill-rule="evenodd" i:knockout="Off" stroke="#000000" stroke-miterlimit="10" stroke-width="0.036"/>
      <path clip-rule="evenodd" d="     M97.83,3.222l-2.988-0.216l-3.276,0.036L87.174,3.51l-4.896,0.828L76.05,5.85l-5.112,1.548l-3.492,1.368l-4.068,2.196     l-3.06,2.196l-2.304,2.196l-1.44,1.728v6.732l-0.396,7.164l-0.612,6.732l-0.9,6.336L52.434,54.81l-2.34,10.188l-1.44,4.14     l-0.792,2.304l-0.144,0.972l0.072,1.584l0.504,1.404l0.792,1.044l2.088,1.728l4.284,2.916l4.932,2.88l4.176,2.088l4.824,1.944     l4.464,1.332l5.22,1.188l5.904,0.9l5.796,0.54l5.22,0.252h5.508l5.977-0.432l6.264-0.828l5.328-1.044l5.076-1.332l4.824-1.764     l4.572-2.088l5.039-2.844l4.789-3.132l2.375-1.872l1.045-1.152l0.539-1.152l0.252-1.224l-0.035-1.404l-0.686-2.268l-1.512-4.248     l-1.764-7.344l-2.627-12.384l-0.973-5.904l-0.684-6.444l-0.469-7.848l-0.107-6.732l0.035-1.692l-1.691-2.016l-2.34-2.16     l-2.736-1.944l-4.104-2.196l-4.572-1.728l-6.373-1.8l-6.406-1.368l-4.068-0.612l-3.781-0.252l-3.096,0.036L97.83,3.222z" fill="#E0E0E0" fill-rule="evenodd" i:knockout="Off" stroke="#000000" stroke-miterlimit="10" stroke-width="0.036"/>
      <path clip-rule="evenodd" d="     M133.578,18.054V17.55l-0.107-0.504l-0.145-0.504l-0.217-0.468l-0.287-0.504l-0.324-0.504l-0.432-0.468l-0.469-0.504     l-0.504-0.468l-0.611-0.468l-0.611-0.468l-0.686-0.432l-0.791-0.432l-0.793-0.432l-0.828-0.432l-0.936-0.396l-0.936-0.396     l-1.008-0.396l-1.08-0.324l-1.08-0.36l-1.115-0.324l-1.225-0.324l-1.188-0.288l-1.262-0.288l-1.295-0.252l-1.297-0.252     l-1.367-0.216l-1.404-0.216l-1.367-0.18l-1.441-0.144l-1.402-0.18l-1.514-0.108l-1.439-0.108l-1.477-0.072l-1.512-0.072     L99.918,6.03l-1.512-0.036H96.93L95.418,6.03l-1.512,0.036l-1.512,0.072L90.918,6.21l-1.44,0.108l-1.476,0.108l-1.44,0.18     l-1.44,0.144l-1.368,0.18L82.35,7.146l-1.368,0.252L79.686,7.65L78.39,7.902L77.13,8.19l-1.188,0.252l-1.224,0.324l-1.116,0.36     l-1.116,0.36L71.442,9.81l-1.008,0.396l-0.936,0.36l-0.936,0.432l-0.864,0.396l-0.792,0.432l-0.756,0.468l-0.72,0.432     l-0.612,0.468l-0.612,0.432l-0.54,0.504l-0.432,0.504l-0.432,0.468l-0.324,0.504L62.19,16.11l-0.216,0.468l-0.18,0.504     l-0.072,0.504l-0.036,0.504l0.036,0.504l0.072,0.504l0.144,0.504l0.216,0.504l0.288,0.504l0.36,0.54l0.396,0.468l0.468,0.468     l0.504,0.468l0.612,0.468l0.612,0.468l0.72,0.468l0.756,0.432l0.792,0.396l0.828,0.432l0.936,0.396l0.936,0.432l1.008,0.324     l1.08,0.396l1.08,0.324l1.152,0.324l1.188,0.324l1.188,0.324l1.296,0.288l1.296,0.252l1.296,0.252l1.332,0.216l1.368,0.18     l1.44,0.216l1.404,0.144l1.44,0.144l1.44,0.144l1.476,0.072l1.512,0.108l1.476,0.072l1.512,0.036l1.476,0.036h1.512l1.548-0.036     l1.475-0.036l1.477-0.072l1.477-0.108l1.512-0.072l1.439-0.144l1.441-0.144l1.439-0.144l1.404-0.216l1.367-0.216l1.369-0.216     l1.295-0.252l1.297-0.252l1.26-0.288l1.188-0.288l1.225-0.324l1.115-0.324l1.115-0.36l1.045-0.36l1.008-0.36l0.973-0.432     l0.9-0.36l0.863-0.432l0.828-0.432l0.756-0.432l0.684-0.432l0.648-0.504l0.576-0.468l0.539-0.468l0.432-0.468l0.434-0.468     l0.324-0.504l0.287-0.504l0.252-0.504l0.145-0.504l0.107-0.504V18.054z" fill-rule="evenodd" i:knockout="Off" stroke="#000000" stroke-miterlimit="10" stroke-width="0.036"/>
      <path clip-rule="evenodd" d="     M55.063,15.03l0.972,2.808l1.368,2.592l1.476,2.052l1.656,1.908l2.664,2.268l2.556,1.764l2.916,1.548l3.888,1.548l3.456,0.9     l4.068,0.756l7.344,0.864l6.228,0.36l6.229,0.108l5.723-0.288l7.453-0.828l4.824-0.828l3.816-0.864l4.139-1.296l3.529-1.512     l2.482-1.512l2.629-1.98l1.836-1.836l1.512-2.016l1.188-2.196l0.793-1.836l-0.361,4.104l-1.188,2.772l-1.619,2.52l-1.729,1.908     l-2.447,2.088l-2.377,1.548l-2.736,1.368l-3.814,1.368l-3.674,1.008l-5.508,1.08l-4.967,0.684l-5.688,0.54l-4.178,0.144     l-7.127-0.108l-7.02-0.54l-5.616-0.684l-4.068-0.756l-4.5-1.26l-3.276-1.368l-3.276-1.836l-3.168-2.376l-2.16-2.088l-2.232-3.06     l-1.332-2.628l-0.864-2.376l-0.108-0.432L55.063,15.03z" fill-rule="evenodd" i:knockout="Off" stroke="#000000" stroke-miterlimit="10" stroke-width="0.036"/>
      <path clip-rule="evenodd" d="     M23.563,166.77l3.888,2.448l4.212,2.124l5.364,2.269l6.948,2.483l7.128,2.16l6.624,1.548l6.552,1.116l6.66,0.756l5.472,0.36     l2.052,0.107l-0.828,3.853l-6.804-0.396l-5.4-0.576l-5.94-0.863l-5.868-1.225l-5.328-1.403l-7.596-2.412l-7.02-2.664l-5.04-2.304     l-4.212-2.377l-1.692-1.151L23.563,166.77z" fill="#FFFFFF" fill-rule="evenodd" i:knockout="Off" stroke="#000000" stroke-miterlimit="10" stroke-width="0.036"/>
      <path clip-rule="evenodd" d="     M170.658,164.574l-1.801,1.26l-4.283,2.124l-7.813,3.384l-5.039,1.836l-4.969,1.548l-5.471,1.368l1.115,4.141l6.229-1.62     l6.84-2.232l6.732-2.736l6.658-3.06l2.305-1.368l0.541-0.54L170.658,164.574z" fill="#FFFFFF" fill-rule="evenodd" i:knockout="Off" stroke="#000000" stroke-miterlimit="10" stroke-width="0.036"/>
    </g>
  </g>
</svg>
