<?xml version="1.0" encoding="UTF-8" standalone="no"?>
<!DOCTYPE svg PUBLIC "-//W3C//DTD SVG 1.0//EN"
"http://www.w3.org/TR/2001/REC-SVG-20010904/DTD/svg10.dtd">
<!-- Created with Sodipodi ("http://www.sodipodi.com/") --><svg height="297mm" id="svg1048" sodipodi:docbase="/home/franck/Dessins/Vectoriels" sodipodi:docname="/home/franck/Dessins/Vectoriels/beurre.svg" sodipodi:version="0.34" space="preserve" width="210mm" xmlns="http://www.w3.org/2000/svg" xmlns:sodipodi="http://sodipodi.sourceforge.net/DTD/sodipodi-0.dtd" xmlns:xlink="http://www.w3.org/1999/xlink">
  <metadata>
    <rdf:RDF xmlns:cc="http://web.resource.org/cc/" xmlns:dc="http://purl.org/dc/elements/1.1/" xmlns:rdf="http://www.w3.org/1999/02/22-rdf-syntax-ns#">
      <cc:Work rdf:about="">
        <dc:title>butter</dc:title>
        <dc:description></dc:description>
        <dc:subject>
          <rdf:Bag>
            <rdf:li>hash</rdf:li>
            <rdf:li></rdf:li>
            <rdf:li>food</rdf:li>
            <rdf:li>dairy</rdf:li>
          </rdf:Bag>
        </dc:subject>
        <dc:publisher>
          <cc:Agent rdf:about="http://www.openclipart.org">
            <dc:title>Franck Doucet</dc:title>
          </cc:Agent>
        </dc:publisher>
        <dc:creator>
          <cc:Agent>
            <dc:title>Franck Doucet</dc:title>
          </cc:Agent>
        </dc:creator>
        <dc:rights>
          <cc:Agent>
            <dc:title>Franck Doucet</dc:title>
          </cc:Agent>
        </dc:rights>
        <dc:date></dc:date>
        <dc:format>image/svg+xml</dc:format>
        <dc:type rdf:resource="http://purl.org/dc/dcmitype/StillImage"/>
        <cc:license rdf:resource="http://web.resource.org/cc/PublicDomain"/>
        <dc:language>en</dc:language>
      </cc:Work>
      <cc:License rdf:about="http://web.resource.org/cc/PublicDomain">
        <cc:permits rdf:resource="http://web.resource.org/cc/Reproduction"/>
        <cc:permits rdf:resource="http://web.resource.org/cc/Distribution"/>
        <cc:permits rdf:resource="http://web.resource.org/cc/DerivativeWorks"/>
      </cc:License>
    </rdf:RDF>
  </metadata>
  <defs id="defs1050">
    <linearGradient id="linearGradient1106">
      <stop id="stop1107" offset="0" style="stop-color:#a30000;stop-opacity:1;"/>
      <stop id="stop1108" offset="1" style="stop-color:#ffffff;stop-opacity:1;"/>
    </linearGradient>
    <linearGradient id="linearGradient1101">
      <stop id="stop1102" offset="0" style="stop-color:#000000;stop-opacity:1;"/>
      <stop id="stop1103" offset="1" style="stop-color:#ffffff;stop-opacity:1;"/>
    </linearGradient>
    <linearGradient id="linearGradient1072">
      <stop id="stop1073" offset="0" style="stop-color:#ffffff;stop-opacity:1;"/>
      <stop id="stop1074" offset="1" style="stop-color:#ffff42;stop-opacity:1;"/>
    </linearGradient>
    <linearGradient id="linearGradient1066">
      <stop id="stop1067" offset="0" style="stop-color:#ffff00;stop-opacity:0.5843;"/>
      <stop id="stop1068" offset="1" style="stop-color:#ffffff;stop-opacity:1;"/>
    </linearGradient>
    <linearGradient id="linearGradient1059">
      <stop id="stop1060" offset="0" style="stop-color:#ffff00;stop-opacity:0.5843;"/>
      <stop id="stop1061" offset="1" style="stop-color:#ffffca;stop-opacity:0.7922;"/>
    </linearGradient>
    <linearGradient id="linearGradient1055">
      <stop id="stop1056" offset="0" style="stop-color:#737372;stop-opacity:1;"/>
      <stop id="stop1057" offset="1" style="stop-color:#ffffff;stop-opacity:1;"/>
    </linearGradient>
    <linearGradient gradientTransform="matrix(1,-6.888472e-5,-2.969026e-9,1,4.631308e-7,3.259727e-6)" id="linearGradient1058" spreadMethod="pad" x1="0.49141547" x2="0.48725793" xlink:href="#linearGradient1066" y1="-4.13166952" y2="1.71253657"/>
    <radialGradient cx="1.89860482e-2" cy="3.90586257e-2" fx="1.89860482e-2" fy="3.90586257e-2" id="radialGradient1062" r="0.10369492" spreadMethod="repeat" xlink:href="#linearGradient1059"/>
    <linearGradient gradientTransform="matrix(1,-6.956823e-5,-5.967639e-9,1,-6.159094e-8,2.253537e-6)" id="linearGradient1069" x1="0.49141487" x2="0.48725739" xlink:href="#linearGradient1066" y1="-4.13167048" y2="1.7125355"/>
    <linearGradient gradientTransform="matrix(1,-6.889451e-5,-3.054818e-9,1,-1.991435e-8,-1.256789e-7)" id="linearGradient1070" x1="0.49141499" x2="0.48725745" xlink:href="#linearGradient1066" y1="-4.13167286" y2="1.71253312"/>
    <radialGradient cx="0.38586962" cy="0.453125" fx="0.38586962" fy="0.453125" id="radialGradient1071" r="0.52326936" xlink:href="#linearGradient1072"/>
    <linearGradient id="linearGradient1081" spreadMethod="reflect" x1="-0.12264152" x2="3.77358533e-2" xlink:href="#linearGradient1055" y1="0.54687613" y2="0.64062506"/>
    <linearGradient id="linearGradient1082" spreadMethod="reflect" x1="0.21153893" x2="0.32692313" xlink:href="#linearGradient1055" y1="7.03122765e-2" y2="0.24999997"/>
    <linearGradient id="linearGradient1097" x1="0.46258715" x2="0.35034013" xlink:href="#linearGradient1055" y1="0.96879721" y2="0.32031319"/>
    <linearGradient id="linearGradient1098" x1="0.41891894" x2="0.66666669" xlink:href="#linearGradient1106" y1="0.29682928" y2="0.53906173"/>
    <radialGradient cx="0.4492777" cy="-0.50328457" fx="0.4492777" fy="-0.50328457" gradientTransform="matrix(1,-2.033528e-6,9.078087e-9,1,4.598418e-8,1.302584e-7)" id="radialGradient1099" r="0.6806342" spreadMethod="reflect" xlink:href="#linearGradient1055"/>
    <radialGradient cx="0.47586331" cy="0.49782395" fx="0.47586331" fy="0.49782395" id="radialGradient1100" r="0.32674655" spreadMethod="reflect" xlink:href="#linearGradient1101"/>
    <radialGradient cx="0.60908639" cy="0.30485126" fx="0.60908639" fy="0.30485126" id="radialGradient1109" r="0.91823232" xlink:href="#linearGradient1106"/>
  </defs>
  <sodipodi:namedview id="base"/>
  <path d="M 461.0352 499.454 L 562.9305 526.1807 L 646.4515 462.7049 L 623.0656 377.5136 L 461.0352 499.454 z " id="path1084" sodipodi:nodetypes="ccccc" style="font-size:12;fill:#808080;fill-rule:evenodd;"/>
  <path d="M 208.8021 486.0907 L 43.43083 574.623 C 18.30501 602.324 46.87973 598.7882 66.60787 615.9658 C 99.63707 644.7247 108.7859 669.1407 123.1933 719.1141 L 366.6565 724.9604 C 405.7721 708.5347 438.206 705.4723 468.9695 720.7845 C 488.0402 737.2102 502.0995 763.6585 526.1813 770.0617 C 554.5783 664.2686 594.6683 560.146 646.4512 462.705 L 561.6777 523.2577 L 309.8623 500.2894 C 294.9678 472.0315 368.0842 415.4551 348.6995 398.8115 C 340.5224 391.7908 252.2703 462.8198 208.8021 486.0907 z " id="path1076" sodipodi:nodetypes="ccscccccccss" style="font-size:12;fill:url(#linearGradient1081);fill-rule:evenodd;"/>
  <path d="M 189.5923 506.9713 C 177.6512 514.7681 172.0113 522.1693 171.2177 541.2148 L 167.0417 641.4396 C 166.4519 655.596 174.1215 669.7809 186.2515 669.8369 L 367.4916 670.6721 C 380.6785 670.7328 391.6377 666.5594 402.5703 657.3088 L 543.7204 537.874 C 549.7693 532.7556 552.9077 525.7687 552.9077 518.4553 L 552.9078 423.0328 C 552.9078 409.5478 543.1705 401.6374 531.1923 401.7351 L 377.5141 402.9879 C 360.1145 403.1297 346.1473 404.7501 331.5776 414.2633 L 189.5923 506.9713 z " id="path1052" sodipodi:nodetypes="cssssssssssss" style="font-size:12;fill:url(#radialGradient1071);fill-rule:evenodd;fill-opacity:1;"/>
  <path d="M 422.6155 522.8401 C 427.6267 551.5509 398.1253 591.3271 339.5122 642.2749 C 313.4723 588.8214 258.9146 580.7831 256.409 535.3682 C 256.409 509.9983 290.7138 478.1912 351.2051 486.9261 C 414.8293 496.9486 419.2747 503.3167 422.6155 522.8401 z " id="path1054" sodipodi:nodetypes="cccsc" style="font-size:12;fill:url(#radialGradient1062);fill-rule:evenodd;stroke-width:1;fill-opacity:1;"/>
  <path d="M 576.2938 446.4185 A 106.4891 7.934479 0 1 0 363.3156 446.4185 A 106.4891 7.934479 0 1 0  576.2938 446.4185 z" id="path1063" sodipodi:cx="469.804687" sodipodi:cy="446.418518" sodipodi:rx="106.489075" sodipodi:ry="7.93447876" sodipodi:type="arc" style="fill-rule:evenodd;stroke:none;fill:url(#linearGradient1069);fill-opacity:1;stroke-opacity:1;stroke-width:1pt;stroke-linejoin:miter;stroke-linecap:butt;" transform="matrix(0.48767,-0.406486,0.420037,0.471938,69.46947,440.487)"/>
  <path d="M 576.2938 446.4185 A 106.4891 7.934479 0 1 0 363.3156 446.4185 A 106.4891 7.934479 0 1 0  576.2938 446.4185 z" id="path1064" sodipodi:cx="469.804687" sodipodi:cy="446.418518" sodipodi:rx="106.489075" sodipodi:ry="7.93447876" sodipodi:type="arc" style="fill-rule:evenodd;stroke:none;fill:url(#linearGradient1058);fill-opacity:1;stroke-opacity:1;stroke-width:1pt;stroke-linejoin:miter;stroke-linecap:butt;" transform="matrix(-1.926021e-3,-0.211334,0.631392,-7.455721e-3,98.22483,747.3947)"/>
  <path d="M 576.2938 446.4185 A 106.4891 7.934479 0 1 0 363.3156 446.4185 A 106.4891 7.934479 0 1 0  576.2938 446.4185 z" id="path1065" sodipodi:cx="469.804687" sodipodi:cy="446.418518" sodipodi:rx="106.489075" sodipodi:ry="7.93447876" sodipodi:type="arc" style="fill-rule:evenodd;stroke:none;fill:url(#linearGradient1070);fill-opacity:1;stroke-opacity:1;stroke-width:1pt;stroke-linejoin:miter;stroke-linecap:butt;" transform="matrix(0.391636,1.083131e-2,5.988136e-3,0.631714,40.51171,235.743)"/>
  <path d="M 340.765 399.4319 L 355.7988 417.6038 L 424.2859 430.9671 L 457.3656 408.1125 C 463.4708 405.219 465.4417 402.3254 474.4997 401.2037 L 340.765 399.4319 z " id="path1078" sodipodi:nodetypes="cccccc" style="font-size:12;fill:#6187ff;fill-rule:evenodd;fill-opacity:1;"/>
  <path d="M 45.10128 574.6229 C 163.1441 512.8175 253.2791 456.7152 423.1047 429.9886 L 342.4355 395.8884 L 212.9781 339.9294 C 192.0979 450.4553 117.7644 507.5279 45.10128 574.6229 z " id="path1080" sodipodi:nodetypes="ccccc" style="font-size:12;fill:url(#linearGradient1082);fill-rule:evenodd;fill-opacity:1;"/>
  <path d="M 718.2794 651.462 C 718.2794 676.3708 669.7658 680.405 573.186 681.9921 L 266.7297 687.0281 C 247.9795 687.3362 237.1993 663.9164 237.1993 651.462 C 237.1993 626.5533 344.8927 606.3607 477.7393 606.3607 C 610.586 606.3607 718.2794 626.5533 718.2794 651.462 z " id="path1087" sodipodi:nodetypes="cssccc" style="font-size:12;fill:url(#radialGradient1099);fill-rule:evenodd;" transform="matrix(0.628903,-0.221869,0.246892,0.565162,-36.33635,429.186)"/>
  <path d="M 300.6751 756.6984 L 301.5103 763.3801 L 589.6573 645.6157 C 612.5772 636.2484 739.1595 587.151 721.6203 557.9187 C 729.9722 580.4694 667.7214 609.8799 588.8221 641.4396 L 300.6751 756.6984 z " id="path1089" sodipodi:nodetypes="ccscsc" style="font-size:12;fill:url(#linearGradient1097);fill-rule:evenodd;" transform="matrix(0.675629,0,0,0.607153,88.63888,299.8916)"/>
  <path d="M 397.1819 887.7184 A 31.40115 30.55246 0 1 0 334.3796 887.7184 A 31.40115 30.55246 0 1 0  397.1819 887.7184 z" id="path1094" sodipodi:cx="365.780792" sodipodi:cy="887.718384" sodipodi:rx="31.4011536" sodipodi:ry="30.5524597" sodipodi:type="arc" style="fill-rule:evenodd;stroke:none;fill:url(#radialGradient1100);fill-opacity:1;stroke-opacity:1;stroke-width:1pt;stroke-linejoin:miter;stroke-linecap:butt;" transform="matrix(0.378839,0.905847,-0.815479,0.338175,875.5317,112.9525)"/>
  <path d="M 47.07695 815.1367 C 25.21729 824.1059 41.24686 874.0854 66.6398 863.6334 L 299.9648 767.5939 C 317.7757 760.2628 297.5772 712.3547 277.0072 720.7947 L 47.07695 815.1367 z " id="path1093" sodipodi:nodetypes="cssss" style="font-size:12;fill:#b20000;fill-rule:evenodd;fill-opacity:1;"/>
  <path d="M 71.52505 833.7844 C 45.68289 801.4869 29.75165 850.1204 65.32306 859.4785 C 56.97527 863.5323 46.21753 858.6012 41.29503 848.4646 C 36.37253 838.328 37.64902 821.7235 45.99681 817.6697 C 50.1707 815.6428 268.2473 725.4324 273.3276 723.8442 C 296.0555 716.1392 207.2641 743.8238 243.0943 754.1439 L 78.51627 825.0754 C 75.03418 826.5762 70.40794 826.1516 69.1714 824.3237 C 65.61597 818.7057 55.68903 817.1537 55.60621 818.4438 C 55.47881 820.7283 64.0161 816.948 71.52505 833.7844 z " id="path1105" sodipodi:nodetypes="cccsscsssc" style="font-size:12;fill:url(#linearGradient1098);fill-rule:evenodd;stroke-width:1;"/>
</svg>
