<?xml version="1.0" encoding="UTF-8" standalone="no"?>
<!-- Created with Inkscape (http://www.inkscape.org/) --><svg height="297mm" id="svg2" inkscape:version="0.41" sodipodi:docbase="/home/ff/Desktop" sodipodi:docname="sun.svg" sodipodi:version="0.32" width="210mm" xmlns="http://www.w3.org/2000/svg" xmlns:cc="http://web.resource.org/cc/" xmlns:dc="http://purl.org/dc/elements/1.1/" xmlns:inkscape="http://www.inkscape.org/namespaces/inkscape" xmlns:rdf="http://www.w3.org/1999/02/22-rdf-syntax-ns#" xmlns:sodipodi="http://inkscape.sourceforge.net/DTD/sodipodi-0.dtd" xmlns:svg="http://www.w3.org/2000/svg">
  <metadata>
    <rdf:RDF xmlns:cc="http://web.resource.org/cc/" xmlns:dc="http://purl.org/dc/elements/1.1/" xmlns:rdf="http://www.w3.org/1999/02/22-rdf-syntax-ns#">
      <cc:Work rdf:about="">
        <dc:title>sun</dc:title>
        <dc:description>sun</dc:description>
        <dc:subject>
          <rdf:Bag>
            <rdf:li>symbol</rdf:li>
            <rdf:li>weather</rdf:li>
          </rdf:Bag>
        </dc:subject>
        <dc:publisher>
          <cc:Agent rdf:about="http://www.openclipart.org">
            <dc:title>Open Clip Art Library</dc:title>
          </cc:Agent>
        </dc:publisher>
        <dc:creator>
          <cc:Agent>
            <dc:title>ff77</dc:title>
          </cc:Agent>
        </dc:creator>
        <dc:rights>
          <cc:Agent>
            <dc:title>ff77</dc:title>
          </cc:Agent>
        </dc:rights>
        <dc:date></dc:date>
        <dc:format>image/svg+xml</dc:format>
        <dc:type rdf:resource="http://purl.org/dc/dcmitype/StillImage"/>
        <cc:license rdf:resource="http://web.resource.org/cc/PublicDomain"/>
        <dc:language>en</dc:language>
      </cc:Work>
      <cc:License rdf:about="http://web.resource.org/cc/PublicDomain">
        <cc:permits rdf:resource="http://web.resource.org/cc/Reproduction"/>
        <cc:permits rdf:resource="http://web.resource.org/cc/Distribution"/>
        <cc:permits rdf:resource="http://web.resource.org/cc/DerivativeWorks"/>
      </cc:License>
    </rdf:RDF>
  </metadata>
  <defs id="defs3"/>
  <sodipodi:namedview bordercolor="#666666" borderopacity="1.0" id="base" inkscape:current-layer="svg2" inkscape:cx="99.291661" inkscape:cy="585.71483" inkscape:document-units="px" inkscape:pageopacity="0.0" inkscape:pageshadow="2" inkscape:window-height="774" inkscape:window-width="1145" inkscape:window-x="0" inkscape:window-y="30" inkscape:zoom="0.42350000" pagecolor="#ffffff"/>
  <path d="M 374.78306,866.40870 C 364.17845,854.55491 359.00474,847.26702 354.11635,837.29677 C 350.10149,829.10814 347.96766,820.97020 346.52523,808.34572 C 344.97072,794.74020 345.55556,785.57265 349.78817,757.19880 C 351.72678,744.20309 352.14603,730.24451 350.79302,723.74420 C 349.86049,719.26412 344.62626,702.96972 343.66307,701.54837 C 342.88448,700.39941 342.19576,701.12310 336.27702,709.30958 C 330.70616,717.01488 323.29422,724.14649 311.11136,733.52345 C 305.22696,738.05257 298.91266,742.91626 297.07959,744.33165 C 268.43522,766.44906 255.69427,783.96541 251.04872,807.61518 C 250.67586,809.51335 250.21163,818.19873 250.01710,826.91591 C 249.64924,843.39996 249.41086,846.24172 248.47736,845.27095 C 247.71035,844.47334 242.39008,828.43535 240.81672,822.17790 C 237.50735,809.01616 236.85508,799.69458 238.50902,789.19890 C 240.91120,773.95500 249.19053,752.81570 258.29118,738.68978 C 259.60641,736.64829 260.68251,734.84181 260.68251,734.67537 C 260.68251,734.50894 261.91293,732.40235 263.41678,729.99406 C 273.20560,714.31806 276.90374,705.57636 278.96874,693.23219 C 279.96082,687.30176 280.38604,673.24064 279.57330,673.24064 C 279.34784,673.24064 277.10414,674.60011 274.58729,676.26167 C 263.57726,683.53025 256.18213,686.45941 232.56935,692.90468 C 206.69170,699.96817 197.10360,703.24951 186.37472,708.71388 C 168.71671,717.70737 157.06215,729.43278 149.69327,745.61836 C 148.40448,748.44913 146.53801,752.50228 145.54554,754.62537 C 144.55308,756.74845 142.50597,761.15376 140.99641,764.41495 C 139.48685,767.67615 138.00562,770.19228 137.70480,770.00636 C 136.82335,769.46159 137.07402,763.10023 138.42499,751.73026 C 140.11408,737.51461 142.11570,729.86336 146.41960,721.17077 C 154.70261,704.44146 167.67406,690.59128 192.16494,672.32648 C 213.57635,656.35825 220.03975,649.58073 227.19002,635.59909 C 230.02485,630.05587 232.14552,624.54511 231.63882,624.03841 C 231.31999,623.71959 227.49017,624.28024 220.58442,625.65666 C 215.30130,626.70967 199.36511,626.37243 188.94815,624.98716 C 159.94876,621.13080 156.93447,620.86250 142.30472,620.83544 C 130.67156,620.81392 126.72001,621.04031 122.18048,621.98841 C 111.48071,624.22310 103.18566,627.39139 95.490708,632.18258 C 90.478228,635.30354 89.559308,636.08008 75.515458,649.06271 C 69.742938,654.39902 64.748868,658.86160 64.417538,658.97955 C 62.428458,659.68761 64.569548,654.64287 72.137718,640.78958 C 79.002248,628.22426 88.314948,617.53863 98.234728,610.84518 C 111.14203,602.13586 128.48079,595.03358 148.50487,590.25358 C 159.62104,587.60001 172.99363,583.91299 175.75931,582.73915 C 182.82917,579.73844 187.36231,577.13901 192.78174,572.97801 C 198.41541,568.65250 206.76895,560.52348 206.18011,559.93973 C 205.90253,559.66457 203.40262,558.97101 200.62472,558.39847 C 189.32086,556.06870 177.92456,551.28620 163.32394,542.74506 C 160.19988,540.91753 157.55149,539.42228 157.43864,539.42228 C 157.32579,539.42228 155.24967,538.21314 152.82504,536.73530 C 144.78895,531.83721 124.72468,522.18746 117.21378,519.60833 C 106.02607,515.76665 99.736598,514.65301 89.227728,514.65301 C 77.152658,514.65301 73.187158,515.51895 56.738171,521.74777 C 41.916758,527.36025 38.496682,528.53573 37.531710,528.34909 C 36.076062,528.06753 49.052873,516.66632 58.416508,510.00006 C 69.741148,501.93769 80.622278,497.72114 95.412008,495.66390 C 111.41156,493.43837 123.39129,494.00105 150.34669,498.24419 C 161.51909,500.00287 176.15821,500.59921 182.64903,499.56004 C 187.64591,498.76005 201.85947,494.74453 203.09486,493.78381 C 203.45264,493.50559 204.54152,493.08777 205.51460,492.85531 C 206.48768,492.62285 207.28384,492.03121 207.28384,491.54054 C 207.28384,491.04987 204.46111,488.63087 201.01110,486.16499 C 192.26817,479.91600 184.37029,471.84884 175.05050,459.64795 C 161.62308,442.06960 153.10135,432.00802 144.78991,423.91939 C 135.58921,414.96535 131.18021,411.66583 121.34491,406.37408 C 115.48458,403.22100 105.39261,400.14630 97.764218,399.18978 C 94.856948,398.82524 86.969968,398.49272 80.237598,398.45086 C 67.704178,398.37292 64.136778,398.03202 64.136778,396.91227 C 64.136778,396.56189 68.181528,394.92956 73.125108,393.28486 C 94.121318,386.29955 107.74667,384.73714 122.62619,387.60859 C 128.73365,388.78720 142.94327,393.20419 147.72020,395.40891 C 157.34440,399.85084 167.94591,405.46300 173.35922,408.98154 C 175.40071,410.30846 177.18056,411.39412 177.31445,411.39412 C 177.44833,411.39412 179.43925,412.53710 181.73869,413.93405 C 187.48087,417.42256 197.85906,422.72581 201.90902,424.24109 C 207.40416,426.29708 218.00070,428.14236 226.74540,428.56608 C 236.32541,429.03027 236.25542,429.09626 232.33476,423.29624 C 228.41163,417.49257 223.15552,406.68408 220.91533,399.81369 C 219.81924,396.45215 217.29431,387.62207 215.30436,380.19129 C 211.50483,366.00319 206.04341,348.52325 204.04781,344.16326 C 203.39997,342.74788 202.11197,339.85277 201.18558,337.72969 C 194.34962,322.06310 180.78335,307.15404 167.05875,300.22498 C 164.94405,299.15734 160.17398,296.93140 156.45859,295.27844 C 149.59348,292.22419 140.80899,288.17948 139.12622,287.29798 C 135.34763,285.31861 142.46071,285.18545 157.10195,286.96145 C 175.14066,289.14958 184.27389,292.15326 196.07508,299.77871 C 209.24568,308.28902 221.21039,320.37904 234.90263,339.01290 C 249.67510,359.11687 254.36126,364.19083 264.08893,370.61459 C 268.93851,373.81705 282.20767,380.51297 283.70434,380.51297 C 284.74426,380.51297 284.77269,380.92742 282.89173,368.66690 C 281.56876,360.04354 281.66505,351.20610 283.20777,339.65976 C 287.12653,310.33034 287.80261,302.20685 287.51805,287.86948 C 287.15554,269.60471 285.60277,262.46397 279.16025,249.43413 C 275.22467,241.47454 271.83601,237.10808 259.80876,224.49877 C 250.83979,215.09572 248.31543,211.95330 249.73083,211.95330 C 250.10156,211.95330 254.81629,214.16087 260.20803,216.85902 C 277.44492,225.48476 287.10169,232.74796 294.82941,242.89902 C 299.41138,248.91784 300.97076,251.52204 305.38486,260.52680 C 310.80966,271.59337 313.84777,280.39827 318.59217,298.80357 C 325.23148,324.55989 326.81549,328.76873 333.59262,338.66084 C 336.84820,343.41278 347.19027,354.77867 348.25860,354.77867 C 348.55526,354.77867 348.97361,353.98251 349.18828,353.00943 C 352.69109,337.13120 355.96123,328.47528 362.83334,316.89158 C 364.43092,314.19868 366.37590,310.83734 367.15551,309.42196 C 367.93513,308.00657 369.66556,304.96671 371.00094,302.66671 C 387.69121,273.91984 393.86474,256.38962 393.85266,237.77736 C 393.84998,233.65876 393.54888,228.44681 393.18353,226.19527 C 392.53350,222.18915 389.40701,211.60290 387.74235,207.77148 C 385.92075,203.57881 379.70365,186.58717 379.70365,185.80131 C 379.70365,184.21640 391.24120,196.98862 397.51591,205.51972 C 409.32055,221.56929 413.80160,237.27123 413.80160,262.58596 C 413.80160,272.31697 413.47398,276.96898 412.17636,285.66427 C 411.28247,291.65407 410.25964,298.72614 409.90339,301.37999 C 409.54714,304.03384 408.98463,308.23175 408.65339,310.70867 C 407.69690,317.86081 407.91205,325.91291 409.24312,332.77941 C 410.67547,340.16837 414.78936,352.98022 416.34747,354.90439 C 417.39855,356.20243 417.52110,356.09289 421.97440,349.87562 C 427.86380,341.65344 436.13885,333.25135 445.00445,326.49205 C 464.50037,311.62799 473.54714,304.15696 481.56974,296.29565 C 495.44799,282.69645 501.78512,273.10563 506.69188,258.27504 C 508.78839,251.93840 509.58230,244.88966 509.92263,229.59213 C 510.11217,221.07038 510.53549,213.39834 510.86335,212.54316 L 511.45942,210.98826 L 512.18925,212.85254 C 515.44765,221.17589 519.33128,234.59426 520.95994,243.15614 C 525.19305,265.41013 518.09012,291.42820 499.44459,321.96743 C 486.22584,343.61821 483.24388,350.33041 481.15233,363.14231 C 479.75907,371.67694 479.10330,382.81221 479.96263,383.34333 C 480.33726,383.57485 482.68172,382.45799 485.17248,380.86143 C 491.20652,376.99373 502.64214,371.29857 507.77279,369.60610 C 510.05021,368.85482 516.83531,366.92252 522.85070,365.31210 C 542.04593,360.17323 556.90588,355.75095 558.23537,354.78174 C 558.58922,354.52378 559.68280,354.12055 560.66560,353.88564 C 561.64839,353.65076 563.96448,352.76553 565.81246,351.91850 C 567.66044,351.07147 570.47526,349.78800 572.06757,349.06635 C 578.33091,346.22779 585.58804,341.45220 592.16123,335.84366 C 600.97613,328.32241 606.83319,319.51235 614.21791,302.66671 C 618.32201,293.30463 621.25031,287.63410 622.12252,287.35984 C 622.79142,287.14949 622.87975,288.44079 622.55994,293.75562 C 621.75863,307.07016 619.76970,319.18401 616.98415,327.71425 C 611.33933,345.00085 595.55687,363.88957 572.27672,381.22090 C 557.17352,392.46474 548.42521,399.43564 545.81871,402.30324 C 539.93990,408.77097 534.49278,417.12858 530.87859,425.22632 C 529.77305,427.70324 528.57640,430.27059 528.21940,430.93154 C 527.85616,431.60399 527.81434,432.37740 528.12457,432.68758 C 528.43473,432.99776 532.07073,432.65644 536.38019,431.91259 C 542.92404,430.78308 545.82199,430.63378 555.66194,430.91922 C 562.03119,431.10398 570.13750,431.70219 573.67596,432.24858 C 580.72002,433.33627 593.34552,434.82695 604.87880,435.93268 C 625.04401,437.86596 643.76217,435.17718 658.22601,428.26958 C 666.50775,424.31437 672.27693,419.68880 688.26115,404.18810 C 694.04590,398.57839 696.87892,396.69700 696.87892,398.46518 C 696.87892,399.45301 691.12795,410.29016 684.08087,422.58184 C 676.76885,435.33554 663.59245,446.69277 647.34039,454.24981 C 640.92258,457.23401 639.97460,457.64498 636.40331,458.99107 C 634.45716,459.72461 632.28583,460.59403 631.57814,460.92310 C 629.44933,461.91295 620.11350,464.53170 606.24040,468.03043 C 584.88537,473.41608 580.76087,474.98352 570.80529,481.49684 C 564.96039,485.32080 553.02521,496.22600 553.86582,496.97442 C 554.14601,497.22387 557.09142,498.06021 560.41115,498.83298 C 565.92640,500.11678 572.35347,502.03620 575.60603,503.37085 C 578.73185,504.65350 588.14842,509.32599 591.49374,511.25432 C 593.50894,512.41590 597.12782,514.50209 599.53571,515.89028 C 613.08855,523.70364 617.33459,526.04795 623.53617,529.14125 C 626.89771,530.81797 631.52988,532.98563 633.82988,533.95828 C 636.12989,534.93092 638.99122,536.15587 640.18845,536.68038 C 645.20908,538.87998 659.75584,542.00094 666.86327,542.40341 C 676.55764,542.95237 688.10501,541.33364 694.56914,538.51958 C 697.62258,537.19030 707.05510,533.63206 707.52540,533.63206 C 707.75521,533.63206 708.85548,533.22625 709.97054,532.73025 C 715.17035,530.41723 721.25208,528.37652 722.32796,528.58371 C 723.21367,528.75428 721.80587,530.29542 716.79174,534.64432 C 695.86146,552.79771 684.16213,558.64066 662.78098,561.61868 C 649.03468,563.53330 635.50615,562.79039 609.38230,558.68632 C 604.60537,557.93586 596.06480,557.17641 590.40326,556.99864 C 579.06691,556.64270 574.37252,557.35595 562.65782,561.21414 C 554.51960,563.89445 552.10643,565.02329 552.51034,565.96094 C 552.70083,566.40316 554.64596,567.92001 556.83273,569.33174 C 566.60694,575.64154 574.84757,583.84511 584.95202,597.32445 C 599.71784,617.02218 612.11117,631.31130 620.44715,638.24933 C 630.77940,646.84890 638.38222,651.30598 648.13649,654.48203 C 657.63006,657.57320 660.20980,657.90817 678.02044,658.36225 C 687.28679,658.59849 695.06021,658.98366 695.29465,659.21816 C 696.30421,660.22768 694.28549,661.17741 684.06685,664.50035 C 670.71197,668.84312 664.12411,670.14947 653.77397,670.50731 C 645.01054,670.81029 639.33381,670.14528 630.07570,667.73112 C 624.84090,666.36610 611.26560,661.40049 608.19435,659.72733 C 607.60927,659.40857 605.10397,658.15623 602.62704,656.94436 C 596.91145,654.14791 594.24570,652.66637 585.71954,647.54777 C 581.92631,645.27055 576.79624,642.19468 574.31932,640.71250 C 560.35588,632.35681 549.93143,629.19691 533.77325,628.42197 C 526.55761,628.07592 525.10265,628.15784 525.10375,628.91007 C 525.10445,629.40724 526.40539,631.79231 527.99473,634.21023 C 531.16031,639.02610 536.46402,649.65952 538.47728,655.22663 C 539.18111,657.17279 541.11705,663.83154 542.77936,670.02385 C 554.06712,712.07131 559.56301,725.18482 572.10880,740.00496 C 580.06276,749.40083 587.39851,754.33162 606.16551,762.89661 C 618.92747,768.72100 622.24946,770.36135 622.24946,770.83873 C 622.24946,771.93132 605.72861,770.69143 593.71558,768.69726 C 568.56255,764.52187 548.94131,749.87228 524.19905,716.79499 C 508.08147,695.24776 503.68593,690.82659 491.00451,683.40694 C 485.15414,679.98400 476.34046,676.10977 475.74916,676.70113 C 475.51272,676.93752 475.79998,680.23639 476.38749,684.03195 C 478.57651,698.17366 478.48104,705.78127 475.88529,724.06589 C 474.53347,733.58771 472.54259,752.68883 472.02952,761.05894 C 471.03675,777.25419 474.26229,794.75552 480.56668,807.38061 C 484.19354,814.64394 486.98790,818.24725 499.27558,831.50654 C 509.40467,842.43651 511.98800,845.66039 510.61700,845.66039 C 510.22661,845.66039 496.66490,838.77118 491.85883,836.13150 C 470.25507,824.26560 458.59763,809.58233 447.57993,780.35967 C 446.64604,777.88274 444.01419,768.53178 441.73130,759.57975 C 434.88700,732.74061 432.37296,726.18807 425.32633,716.82280 C 420.91469,710.95955 412.50369,702.08823 411.63184,702.37885 C 411.24437,702.50800 410.68662,703.89392 410.39239,705.45865 C 408.31199,716.52214 403.29905,729.43493 396.55011,741.11486 C 395.52780,742.88409 393.59917,746.21346 392.26424,748.51347 C 389.54934,753.19109 388.43849,755.16237 383.56326,763.95405 C 378.36123,773.33506 377.35759,775.25416 376.61591,777.23825 C 376.23871,778.24734 375.01038,781.24428 373.88628,783.89813 C 370.86501,791.03105 368.24937,799.55094 367.07210,806.09391 C 365.68413,813.80791 365.71611,825.81352 367.14320,832.79324 C 368.06974,837.32490 372.55020,850.76703 375.29194,857.24085 C 376.14343,859.25138 380.34701,870.81746 380.34701,871.14976 C 380.34701,872.16653 378.60978,870.68620 374.78306,866.40870 z " id="path2881" sodipodi:nodetypes="cccccccccccccccccccccccccccccccccccccccccccccccccccccccccccccccccccccccccccccccccccccccccccccccccccccccccccccccccccccccccccccccccccccccccccccccccccccccccccccccccccccccccccccccccccccccccccccccccccccccccccccccccccccccccccccc" style="stroke-width:2.2000000;stroke-miterlimit:4.0000000;stroke-dasharray:none;stroke-opacity:1.0000000;fill:#fefe98;stroke:#ff0000"/>
</svg>
