<?xml version="1.0" encoding="UTF-8" standalone="no"?>
<!DOCTYPE svg PUBLIC "-//W3C//DTD SVG 20010904//EN"
"http://www.w3.org/TR/2001/REC-SVG-20010904/DTD/svg10.dtd">
<!-- Created with Inkscape (http://www.inkscape.org/) --><svg height="400pt" id="svg548" inkscape:version="0.38.1" sodipodi:docbase="/var/www/html/svg_gallery/svg/misc" sodipodi:docname="bulb.svg" sodipodi:version="0.32" width="400pt" xmlns="http://www.w3.org/2000/svg" xmlns:inkscape="http://www.inkscape.org/namespaces/inkscape" xmlns:sodipodi="http://sodipodi.sourceforge.net/DTD/sodipodi-0.dtd" xmlns:xlink="http://www.w3.org/1999/xlink">
  <metadata>
    <rdf:RDF xmlns:cc="http://web.resource.org/cc/" xmlns:dc="http://purl.org/dc/elements/1.1/" xmlns:rdf="http://www.w3.org/1999/02/22-rdf-syntax-ns#">
      <cc:Work rdf:about="">
        <dc:title>Clipart by Nicu Buculei - nosmoke</dc:title>
        <dc:description></dc:description>
        <dc:subject>
          <rdf:Bag>
            <rdf:li>unsorted</rdf:li>
          </rdf:Bag>
        </dc:subject>
        <dc:publisher>
          <cc:Agent rdf:about="http://www.openclipart.org">
            <dc:title>Nicu Buculei</dc:title>
          </cc:Agent>
        </dc:publisher>
        <dc:creator>
          <cc:Agent>
            <dc:title>Nicu Buculei</dc:title>
          </cc:Agent>
        </dc:creator>
        <dc:rights>
          <cc:Agent>
            <dc:title>Nicu Buculei</dc:title>
          </cc:Agent>
        </dc:rights>
        <dc:date></dc:date>
        <dc:format>image/svg+xml</dc:format>
        <dc:type rdf:resource="http://purl.org/dc/dcmitype/StillImage"/>
        <cc:license rdf:resource="http://web.resource.org/cc/PublicDomain"/>
        <dc:language>en</dc:language>
      </cc:Work>
      <cc:License rdf:about="http://web.resource.org/cc/PublicDomain">
        <cc:permits rdf:resource="http://web.resource.org/cc/Reproduction"/>
        <cc:permits rdf:resource="http://web.resource.org/cc/Distribution"/>
        <cc:permits rdf:resource="http://web.resource.org/cc/DerivativeWorks"/>
      </cc:License>
    </rdf:RDF>
  </metadata>
  <defs id="defs550"/>
  <sodipodi:namedview id="base" inkscape:cx="200.00000" inkscape:cy="200.00000" inkscape:window-height="500" inkscape:window-width="400" inkscape:window-x="69" inkscape:window-y="25" inkscape:zoom="0.77250000" showgrid="true"/>
  <g id="g854">
    <path d="M 131.11018,14.053399 C 191.00700,77.336139 255.99994,158.17467 347.69798,46.198477 C 329.08759,141.76416 347.42533,187.33931 423.56695,173.62862 C 353.89365,237.64721 440.05656,256.17810 447.19021,278.79779 C 370.19846,287.95051 297.76691,257.08872 363.64229,411.02961 C 313.20314,263.66582 270.34571,369.87902 249.32821,395.88844 C 239.99533,384.91895 186.20185,317.24381 98.195425,345.47930 C 170.22507,243.30435 101.70686,239.28448 55.564487,212.63111 C 117.12000,196.90130 155.95778,198.06496 131.11018,14.053399 z " id="path640" sodipodi:nodetypes="ccccccccc" style="fill:#ffffc5;fill-rule:evenodd;stroke:#ffff97;stroke-width:10.309395;stroke-linejoin:round;"/>
    <path d="M 140.37318,329.22781 C 161.50515,282.01099 109.59786,233.04608 131.39376,177.81281 C 159.76075,124.46781 199.93449,84.479516 284.56582,115.16894 C 362.52183,154.99160 371.33862,201.19243 346.42957,268.00677 C 312.50428,336.49560 241.23668,313.37013 228.01287,365.81660 C 218.77949,383.07893 135.59196,344.70610 140.37318,329.22781 z " id="path618" sodipodi:nodetypes="cccccc" style="fill:#c1ffff;fill-opacity:0.80000001;fill-rule:evenodd;stroke:#007dff;stroke-width:10.000000;stroke-linejoin:round;"/>
    <path d="M 134.35788,323.88594 C 145.26783,322.09978 232.46252,357.57568 236.80890,366.81421 C 228.23945,376.06010 139.71136,343.70204 134.35788,323.88594 z " id="path620" sodipodi:nodetypes="ccc" style="fill:#4c4c4c;fill-rule:evenodd;stroke:#000000;stroke-width:5.0000000;stroke-linejoin:round;"/>
    <path d="M 161.65755,346.26429 C 210.85695,259.90720 176.19430,194.76262 167.97578,169.48998" id="path631" sodipodi:nodetypes="cc" style="fill:none;fill-rule:evenodd;stroke:#000000;stroke-width:5.0000000;stroke-linejoin:round;"/>
    <path d="M 205.32572,364.95497 C 219.75511,334.41945 267.13911,226.89003 329.83778,226.53234" id="path632" sodipodi:nodetypes="cc" style="fill:none;fill-rule:evenodd;stroke:#000000;stroke-width:5.0000000;stroke-linejoin:round;"/>
    <path d="M 184.31438,360.04084 C 189.88358,335.91066 206.66497,245.87578 250.14983,223.69741" id="path633" sodipodi:nodetypes="cc" style="fill:none;fill-rule:evenodd;stroke:#000000;stroke-width:5.0000000;stroke-linejoin:round;"/>
    <path d="M 134.80380,324.99921 C 149.28698,345.03332 214.54988,371.41250 236.80890,366.81421 C 224.01769,394.54400 199.09749,435.52843 188.41492,447.55626 C 181.29242,455.57665 111.46927,424.76881 109.57087,411.96601 C 110.01125,400.16424 126.24120,347.15962 134.80380,324.99921 z " id="path619" sodipodi:nodetypes="ccccc" style="fill:#949999;fill-rule:evenodd;stroke:#000000;stroke-width:5.0000000;stroke-linejoin:round;"/>
    <path d="M 113.69229,417.41957 C 113.31986,429.06512 114.17889,433.52338 116.06711,439.88722 C 123.68810,450.09288 146.75674,460.84370 163.80307,459.80632 C 169.45833,457.36649 177.13681,448.04713 177.38803,447.46020 C 164.73244,446.85956 124.16726,429.46835 113.69229,417.41957 z " id="path621" sodipodi:nodetypes="ccccc" style="fill:#4c4c4c;fill-rule:evenodd;stroke:#000000;stroke-width:5.0000000;stroke-linejoin:round;"/>
    <path d="M 124.06874,447.04890 C 116.50375,460.41328 145.45813,474.65104 150.23935,459.17275 C 138.65863,456.06084 130.41771,451.61118 124.06874,447.04890 z " id="path622" sodipodi:nodetypes="ccc" style="fill:#b3b3b3;fill-rule:evenodd;stroke:#000000;stroke-width:5.0000000;stroke-linejoin:round;"/>
    <path d="M 112.46134,403.05774 C 137.85183,414.84660 196.50070,427.25958 203.76898,424.61415 C 209.99305,424.63709 210.71405,420.43153 206.85671,420.52854 C 194.71863,421.69223 129.71973,405.83255 112.45884,396.60087 C 108.47853,394.89615 105.94081,401.41224 112.46134,403.05774 z " id="path623" sodipodi:nodetypes="ccccc" style="fill:#b3b3b3;fill-rule:evenodd;stroke:#000000;stroke-width:5.0000000;stroke-linejoin:round;"/>
    <path d="M 114.18428,388.41701 C 139.57477,400.20587 206.36723,416.45469 211.82095,412.33318 C 218.71945,411.59620 219.98948,406.92622 214.27637,407.27752 C 202.13829,408.44120 133.63655,391.78167 116.37566,382.55000 C 111.80514,380.59266 109.60554,387.95289 114.18428,388.41701 z " id="path624" sodipodi:nodetypes="ccccc" style="fill:#b3b3b3;fill-rule:evenodd;stroke:#000000;stroke-width:5.0000000;stroke-linejoin:round;"/>
    <path d="M 118.73421,375.33608 C 144.12470,387.12494 213.99692,401.89643 220.21056,398.44934 C 226.98236,398.00839 226.69173,393.71901 222.24326,393.56300 C 210.10518,394.72669 137.59627,378.44812 120.33538,369.21645 C 116.22876,367.80683 112.72023,372.50964 118.73421,375.33608 z " id="path625" sodipodi:nodetypes="ccccc" style="fill:#b3b3b3;fill-rule:evenodd;stroke:#000000;stroke-width:5.0000000;stroke-linejoin:round;"/>
    <path d="M 121.68173,361.91915 C 147.07222,373.70801 220.86945,391.55614 226.32317,387.43463 C 233.43216,387.83742 233.52086,382.66180 229.07238,382.50580 C 216.93430,383.66949 140.62837,366.46515 123.36747,357.23347 C 119.38717,355.52875 116.42636,359.76766 121.68173,361.91915 z " id="path626" sodipodi:nodetypes="ccccc" style="fill:#b3b3b3;fill-rule:evenodd;stroke:#000000;stroke-width:5.0000000;stroke-linejoin:round;"/>
    <path d="M 126.14789,349.85053 C 151.53838,361.63939 228.41445,378.00980 233.86817,373.88828 C 238.78419,373.70162 240.22302,369.45305 235.77455,369.29705 C 223.63647,370.46073 144.79942,354.27022 127.53853,345.03855 C 124.27566,343.29173 120.63990,348.28926 126.14789,349.85053 z " id="path627" sodipodi:nodetypes="ccccc" style="fill:#b3b3b3;fill-rule:evenodd;stroke:#000000;stroke-width:5.0000000;stroke-linejoin:round;"/>
    <path d="M 130.27591,336.93886 C 155.66640,348.72772 167.14366,352.13473 171.75491,350.79731 C 169.23806,349.19576 159.88346,344.85247 155.56001,341.95446 C 155.57183,341.67779 138.84128,336.34318 132.17218,330.94554 C 128.06649,329.53632 126.07649,335.58851 130.27591,336.93886 z " id="path628" sodipodi:nodetypes="ccccc" style="fill:#b3b3b3;fill-rule:evenodd;stroke:#000000;stroke-width:5.0000000;stroke-linejoin:round;"/>
    <path d="M 111.07540,416.09508 C 136.46588,427.88394 193.76498,441.81637 199.21870,437.69486 C 202.36226,436.74955 202.57763,433.72533 199.52141,432.76639 C 187.38333,433.93008 127.06823,419.37680 109.80733,410.14512 C 105.65951,410.46588 105.52531,413.81636 111.07540,416.09508 z " id="path629" sodipodi:nodetypes="ccccc" style="fill:#b3b3b3;fill-rule:evenodd;stroke:#000000;stroke-width:5.0000000;stroke-linejoin:round;"/>
    <path d="M 156.60891,441.17609 C 169.33914,445.79814 179.42414,450.00808 186.60952,448.37467 C 193.84521,448.48144 195.57967,444.36049 191.13120,444.20449 C 178.99312,445.36818 145.72365,435.39990 139.98324,433.54553 C 140.89893,434.28553 156.24861,441.46894 156.60891,441.17609 z " id="path630" sodipodi:nodetypes="ccccc" style="fill:#b3b3b3;fill-rule:evenodd;stroke:#000000;stroke-width:5.0000000;stroke-linejoin:round;"/>
    <path d="M 168.13899,167.52031 L 250.14983,223.69741 C 250.14983,223.69741 330.16643,227.35285 329.34592,227.68150 C 328.52541,228.01016 166.49797,168.17761 168.13899,167.52031 z " id="path634" sodipodi:nodetypes="cccc" style="fill:none;fill-rule:evenodd;stroke:#000000;stroke-width:1.2500002;stroke-dasharray:1.2500003 2.5000006 ;stroke-dashoffset:0.0000000;"/>
    <path d="M 195.80824,369.71930 C 169.55635,389.75586 153.97557,415.03967 133.31521,458.54463 C 168.09864,431.28222 188.18888,397.05104 195.80824,369.71930 z " id="path635" sodipodi:nodetypes="ccc" style="fill:#ffffff;fill-rule:evenodd;stroke:none;stroke-opacity:1.0000000;stroke-width:4.9999989;stroke-linejoin:round;stroke-linecap:butt;fill-opacity:0.42963;stroke-dasharray:none;"/>
    <path d="M 168.38492,166.94573 C 168.38492,166.94573 186.50118,165.06559 190.90824,160.35250 C 197.87300,165.38720 198.96632,171.69203 225.31263,171.23218 C 235.00921,180.47173 248.02262,187.49708 264.79263,186.50298 C 276.05667,199.49610 293.87470,204.55433 307.70892,203.58047 C 317.25407,213.75070 328.11404,225.79455 328.11404,225.79455 C 328.11404,225.79455 307.47066,224.32074 298.55922,224.18744 C 291.96634,219.75789 277.97358,217.33332 264.97878,217.21008 C 258.46220,210.85633 243.58668,201.45455 233.23435,202.86044 C 220.63194,194.18359 215.99244,185.96283 208.03326,188.67476 C 202.03928,182.03018 168.95950,167.19166 168.38492,166.94573 z " id="path636" sodipodi:nodetypes="ccccccccccc" style="fill:#ffff00;fill-rule:evenodd;stroke:none;stroke-opacity:1;stroke-width:1pt;stroke-linejoin:miter;stroke-linecap:butt;fill-opacity:0.422222;"/>
    <path d="M 168.81628,167.83631 C 168.81628,167.83631 176.56771,183.80348 176.80171,187.74992 C 184.63767,189.66148 190.03622,193.89528 196.76988,200.62368 C 206.46271,203.81080 213.69606,206.74145 220.31719,218.22845 C 231.40048,218.16442 248.51650,223.10165 248.51650,223.10165 C 248.51650,223.10165 237.58524,209.13787 234.91055,197.41687 C 223.07149,194.75349 214.84734,194.68159 203.00157,178.55444 C 193.42666,177.34094 177.23383,176.24700 168.81628,167.83631 z " id="path637" sodipodi:nodetypes="cccccccc" style="fill:#ffff00;fill-rule:evenodd;stroke:none;stroke-opacity:1;stroke-width:1pt;stroke-linejoin:miter;stroke-linecap:butt;fill-opacity:0.427451;"/>
    <path d="M 249.50350,223.04223 C 255.07400,223.50444 259.27271,214.65793 262.98514,210.47749 C 276.56657,215.80978 278.26701,220.05320 289.29232,219.00387 C 293.64577,222.30957 298.59709,226.26929 305.73381,223.07480 C 310.72641,227.13377 329.29583,226.42873 329.29583,226.42873 C 329.29583,226.42873 319.35612,232.42097 314.77447,238.63221 C 306.93785,233.35488 301.71060,234.88114 294.40154,241.84815 C 284.35863,232.74177 277.76800,236.16999 268.77401,238.08984 C 265.46370,232.34700 259.95013,225.59150 249.50350,223.04223 z " id="path639" sodipodi:nodetypes="ccccccccc" style="fill:#ffff00;fill-rule:evenodd;stroke:none;stroke-opacity:1;stroke-width:1pt;stroke-linejoin:miter;stroke-linecap:butt;fill-opacity:0.427451;"/>
    <path d="M 171.30408,167.88192 C 172.17469,168.25455 189.96587,174.83936 191.27067,171.79087 C 195.87387,174.27670 209.99623,183.41268 218.76465,180.98294 C 225.60795,185.45767 250.05592,196.95298 258.26519,195.82961 C 264.05177,200.36655 290.17821,211.54909 301.00022,211.54401 C 305.97893,216.76636 324.39210,226.70878 324.39210,226.70878 C 324.39210,226.70878 308.46892,222.98478 303.36839,222.86296 C 298.26826,222.74022 283.46181,212.79584 270.27631,212.30491 C 265.04888,206.46159 251.67374,199.19113 236.31074,197.76710 C 229.96346,190.92888 216.21661,184.52941 201.97346,184.10029 C 198.42543,177.94460 170.37191,170.05981 171.30408,167.88192 z " id="path641" sodipodi:nodetypes="ccccccccccc" style="fill:#ffffff;fill-rule:evenodd;stroke:none;stroke-opacity:1;stroke-width:1pt;stroke-linejoin:miter;stroke-linecap:butt;fill-opacity:0.82963;"/>
    <path d="M 327.62711,227.57782 C 327.62711,227.57782 320.04011,228.45194 316.80666,231.19055 C 306.29454,229.26698 302.81120,227.77605 296.90476,231.94636 C 289.37645,226.66284 278.99020,226.85443 273.33340,231.64610 C 265.55545,225.74122 250.37949,223.88274 250.37949,223.88274 C 250.37949,223.88274 259.83200,222.26139 263.43809,218.65219 C 268.47613,221.32414 282.78280,222.80946 286.45070,220.25790 C 290.24602,223.42914 304.73789,224.47923 307.41180,223.04791 C 309.65230,225.03589 325.07711,227.51757 327.62711,227.57782 z " id="path642" sodipodi:nodetypes="ccccccccc" style="fill:#ffffff;fill-rule:evenodd;stroke:none;stroke-opacity:1;stroke-width:1pt;stroke-linejoin:miter;stroke-linecap:butt;fill-opacity:0.8;"/>
    <path d="M 168.69135,166.76363 C 168.69135,166.76363 181.13627,179.81871 181.38655,184.04732 C 186.11366,185.04158 195.81933,191.25597 199.55349,196.97681 C 211.37145,199.45821 220.26730,202.75127 222.88394,211.08302 C 230.84514,212.94593 233.76817,212.13466 246.64690,221.76954 C 237.56193,211.69826 233.70557,211.07886 230.03167,202.80801 C 224.68281,202.06431 211.86838,197.09512 211.61757,192.86520 C 207.13932,192.49413 192.64393,184.22967 192.39312,179.99975 C 188.72327,178.94459 169.37700,171.17967 168.69135,166.76363 z " id="path643" sodipodi:nodetypes="ccccccccc" style="fill:#ffffff;fill-rule:evenodd;stroke:none;stroke-opacity:1;stroke-width:1pt;stroke-linejoin:miter;stroke-linecap:butt;fill-opacity:0.874074;"/>
    <path d="M 202.37744,119.35524 C 220.16002,107.90367 240.18779,109.26301 250.26610,114.60678 C 251.07801,121.13706 254.87633,131.52136 255.31313,135.31420 C 234.35346,132.52590 227.13974,136.13667 213.08623,142.48707 C 208.16806,131.10787 202.12911,118.73336 202.37744,119.35524 z " id="path644" sodipodi:nodetypes="ccccc" style="fill:#ffffff;fill-rule:evenodd;stroke:none;stroke-opacity:1;stroke-width:1pt;stroke-linejoin:miter;stroke-linecap:butt;fill-opacity:0.585185;"/>
    <path d="M 216.38502,148.02062 C 230.24850,134.89160 253.01239,135.87636 263.09070,141.22013 C 263.90261,147.75041 264.40058,148.99365 264.83738,152.78649 C 243.87772,149.99819 235.66908,154.72881 221.61557,161.07922 C 216.69740,149.70001 216.13669,147.39873 216.38502,148.02062 z " id="path645" sodipodi:nodetypes="ccccc" style="fill:#ffffff;fill-rule:evenodd;stroke:none;stroke-opacity:1;stroke-width:1pt;stroke-linejoin:miter;stroke-linecap:butt;fill-opacity:0.585185;"/>
    <path d="M 173.27542,129.56855 C 182.97562,124.96183 190.31326,119.85950 200.32688,120.53851 C 201.13879,127.06879 208.85622,139.13052 209.29301,142.92337 C 202.63871,141.62091 189.08122,145.60783 182.67536,148.53319 C 177.75719,137.15399 173.02709,128.94666 173.27542,129.56855 z " id="path646" sodipodi:nodetypes="ccccc" style="fill:#ffffff;fill-rule:evenodd;stroke:none;stroke-opacity:1;stroke-width:1pt;stroke-linejoin:miter;stroke-linecap:butt;fill-opacity:0.585185;"/>
    <path d="M 184.60604,152.45069 C 194.30625,147.84398 201.76883,144.85641 211.78245,145.53542 C 212.59436,152.06570 216.45229,156.29274 216.88909,160.08559 C 210.23479,158.78313 199.22690,162.83122 192.82104,165.75659 C 188.89974,156.86425 183.85882,150.58518 184.60604,152.45069 z " id="path647" sodipodi:nodetypes="ccccc" style="fill:#ffffff;fill-rule:evenodd;stroke:none;stroke-opacity:1;stroke-width:1pt;stroke-linejoin:miter;stroke-linecap:butt;fill-opacity:0.585185;"/>
  </g>
</svg>
