<?xml version="1.0" encoding="UTF-8" standalone="no"?>
<!-- Created with Inkscape (http://www.inkscape.org/) --><svg height="792pt" id="svg3932" inkscape:version="0.42+devel" sodipodi:docbase="/home/rejon/Documents/projects/create-project/logo" sodipodi:docname="lightbulb-05.svg" sodipodi:version="0.32" width="612pt" xmlns="http://www.w3.org/2000/svg" xmlns:cc="http://web.resource.org/cc/" xmlns:dc="http://purl.org/dc/elements/1.1/" xmlns:inkscape="http://www.inkscape.org/namespaces/inkscape" xmlns:rdf="http://www.w3.org/1999/02/22-rdf-syntax-ns#" xmlns:sodipodi="http://inkscape.sourceforge.net/DTD/sodipodi-0.dtd" xmlns:svg="http://www.w3.org/2000/svg">
  <metadata>
    <rdf:RDF xmlns:cc="http://web.resource.org/cc/" xmlns:dc="http://purl.org/dc/elements/1.1/" xmlns:rdf="http://www.w3.org/1999/02/22-rdf-syntax-ns#">
      <cc:Work rdf:about="">
        <dc:title>Lightbulb</dc:title>
        <dc:description>This is a vectorized image of a light bulb.</dc:description>
        <dc:subject>
          <rdf:Bag>
            <rdf:li>bright</rdf:li>
            <rdf:li>thought</rdf:li>
            <rdf:li>idea</rdf:li>
            <rdf:li>think</rdf:li>
            <rdf:li>light</rdf:li>
            <rdf:li>bulb</rdf:li>
            <rdf:li>edison</rdf:li>
          </rdf:Bag>
        </dc:subject>
        <dc:publisher>
          <cc:Agent rdf:about="http://www.openclipart.org/">
            <dc:title>Open Clip Art Library</dc:title>
          </cc:Agent>
        </dc:publisher>
        <dc:creator>
          <cc:Agent>
            <dc:title>Jon Phillips</dc:title>
          </cc:Agent>
        </dc:creator>
        <dc:rights>
          <cc:Agent>
            <dc:title>Jon Phillips</dc:title>
          </cc:Agent>
        </dc:rights>
        <dc:date>2005-08-08</dc:date>
        <dc:format>image/svg+xml</dc:format>
        <dc:type rdf:resource="http://purl.org/dc/dcmitype/StillImage"/>
        <cc:license rdf:resource="http://web.resource.org/cc/PublicDomain"/>
        <dc:language>EN</dc:language>
      </cc:Work>
      <cc:License rdf:about="http://web.resource.org/cc/PublicDomain">
        <cc:permits rdf:resource="http://web.resource.org/cc/Reproduction"/>
        <cc:permits rdf:resource="http://web.resource.org/cc/Distribution"/>
        <cc:permits rdf:resource="http://web.resource.org/cc/DerivativeWorks"/>
      </cc:License>
    </rdf:RDF>
  </metadata>
  <defs id="defs3934"/>
  <sodipodi:namedview bordercolor="#666666" borderopacity="1.0" id="base" inkscape:current-layer="layer1" inkscape:cx="397.60756" inkscape:cy="751.51268" inkscape:document-units="px" inkscape:pageopacity="0.0" inkscape:pageshadow="2" inkscape:window-height="510" inkscape:window-width="754" inkscape:window-x="424" inkscape:window-y="341" inkscape:zoom="0.24748737" pagecolor="#ffffff"/>
  <g id="layer1" inkscape:groupmode="layer" inkscape:label="Layer 1">
    <path d="M 388.99911,281.12 C 291.90552,279.88528 277.65019,371.81558 279.44608,396.95883 C 281.24769,422.18177 288.48073,436.44572 312.67115,468.79687 C 331.3041,493.71568 339.61035,486.55985 339.61041,542.4309 C 339.61041,550.51266 344.10033,558.59442 344.10033,558.59442 C 344.10033,558.59442 362.95783,576.55394 386.30519,575.65597 C 409.65255,574.758 431.20395,560.39037 432.99995,551.41063 C 434.79585,542.4309 434.69925,522.43276 441.08165,498.4301 C 444.72565,484.72612 488.19925,445.60557 494.96025,411.32646 C 502.11825,375.03383 486.99065,282.35471 388.99911,281.12 z " id="path4377" sodipodi:nodetypes="czsscssssz" style="fill:none;fill-opacity:0.75;fill-rule:evenodd;stroke:#000000;stroke-width:10;stroke-linecap:butt;stroke-linejoin:miter;stroke-miterlimit:4;stroke-dasharray:none;stroke-opacity:1"/>
    <path d="M 429.64841,558.86087 C 429.64841,558.86087 417.85235,580.48697 386.39627,579.17625 C 354.94015,577.86559 344.01792,559.51622 344.01792,559.51622 C 344.01792,559.51622 342.93975,563.77594 344.67325,568.47251 C 343.45776,571.09383 343.65279,575.19127 345.27237,578.7394 C 344.01792,582.64118 344.12394,586.56597 346.20236,589.44319 C 345.62558,594.43482 345.12569,596.96081 352.11592,603.95102 C 359.10614,610.94129 374.60022,618.05951 386.83316,617.18575 C 399.06606,616.31194 424.73303,611.87533 429.64841,592.28302 C 430.64714,588.30218 429.64841,585.72961 429.64841,585.72961 C 429.64841,585.72961 432.05135,582.45293 429.64841,578.95785 C 431.61445,574.80736 430.52219,571.53074 429.42997,569.56472 C 431.39595,566.72494 430.52219,561.48219 429.64841,558.86087 z " id="path4379" sodipodi:nodetypes="csccccssscccc" style="fill:none;fill-opacity:0.75;fill-rule:evenodd;stroke:#000000;stroke-width:7.5;stroke-linecap:butt;stroke-linejoin:round;stroke-miterlimit:4;stroke-dasharray:none;stroke-opacity:1"/>
    <path d="M 344.49051,571.37829 C 344.49051,571.37829 361.44865,593.42559 384.9551,592.93773 C 402.60286,592.57146 421.92157,586.09525 430.56226,572.09593" id="path4383" sodipodi:nodetypes="css" style="fill:none;fill-opacity:0.75;fill-rule:evenodd;stroke:#000000;stroke-width:3.83125;stroke-linecap:butt;stroke-linejoin:round;stroke-miterlimit:4;stroke-dasharray:none;stroke-opacity:1"/>
    <path d="M 346.13001,582.31336 C 346.13001,582.31336 356.84429,605.37017 386.92835,605.31959 C 417.5512,605.2671 429.69511,582.91329 429.69511,582.91329" id="path4385" sodipodi:nodetypes="csc" style="fill:none;fill-opacity:0.75;fill-rule:evenodd;stroke:#000000;stroke-width:3.83125;stroke-linecap:butt;stroke-linejoin:round;stroke-miterlimit:4;stroke-dasharray:none;stroke-opacity:1"/>
  </g>
</svg>
