<?xml version="1.0" encoding="UTF-8" standalone="no"?>
<svg height="613.171" id="svg2676" inkscape:version="0.41" sodipodi:docbase="/datas/Projs/Cliparts Stocker/tmp/AIGA" sodipodi:docname="AIGA_Drinking_Fountain_2.svg" sodipodi:version="0.32" width="612.164" xmlns="http://www.w3.org/2000/svg" xmlns:cc="http://web.resource.org/cc/" xmlns:dc="http://purl.org/dc/elements/1.1/" xmlns:inkscape="http://www.inkscape.org/namespaces/inkscape" xmlns:rdf="http://www.w3.org/1999/02/22-rdf-syntax-ns#" xmlns:sodipodi="http://inkscape.sourceforge.net/DTD/sodipodi-0.dtd" xmlns:svg="http://www.w3.org/2000/svg">
  <metadata>
    <rdf:RDF xmlns:cc="http://web.resource.org/cc/" xmlns:dc="http://purl.org/dc/elements/1.1/" xmlns:rdf="http://www.w3.org/1999/02/22-rdf-syntax-ns#">
      <cc:Work rdf:about="">
        <dc:title>AIGA_Symbol_Signs</dc:title>
        <dc:description>EPS converted from  http://aiga.org</dc:description>
        <dc:subject>
          <rdf:Bag>
            <rdf:li>symbol</rdf:li>
            <rdf:li>mapsym</rdf:li>
          </rdf:Bag>
        </dc:subject>
        <dc:publisher>
          <cc:Agent rdf:about="http://www.openclipart.org/">
            <dc:title>Open Clip Art Library</dc:title>
          </cc:Agent>
        </dc:publisher>
        <dc:creator>
          <cc:Agent>
            <dc:title>Jean-Victor Balin</dc:title>
          </cc:Agent>
        </dc:creator>
        <dc:rights>
          <cc:Agent>
            <dc:title>Jean-Victor Balin</dc:title>
          </cc:Agent>
        </dc:rights>
        <dc:date></dc:date>
        <dc:format>image/svg+xml</dc:format>
        <dc:type rdf:resource="http://purl.org/dc/dcmitype/StillImage"/>
        <cc:license rdf:resource="http://web.resource.org/cc/PublicDomain"/>
        <dc:language>en</dc:language>
      </cc:Work>
      <cc:License rdf:about="http://web.resource.org/cc/PublicDomain">
        <cc:permits rdf:resource="http://web.resource.org/cc/Reproduction"/>
        <cc:permits rdf:resource="http://web.resource.org/cc/Distribution"/>
        <cc:permits rdf:resource="http://web.resource.org/cc/DerivativeWorks"/>
      </cc:License>
    </rdf:RDF>
  </metadata>
  <sodipodi:namedview bordercolor="#666666" borderopacity="1.0" id="base" inkscape:current-layer="svg2676" inkscape:cx="305.25953" inkscape:cy="417.84947" inkscape:pageopacity="0.0" inkscape:pageshadow="2" inkscape:window-height="543" inkscape:window-width="640" inkscape:window-x="5" inkscape:window-y="48" inkscape:zoom="0.43415836" pagecolor="#ffffff"/>
  <defs id="defs2678">
    <marker id="ArrowEnd" markerHeight="3" markerUnits="strokeWidth" markerWidth="4" orient="auto" refX="0" refY="5" viewBox="0 0 10 10">
      <path d="M 0 0 L 10 5 L 0 10 z" id="path2681"/>
    </marker>
    <marker id="ArrowStart" markerHeight="3" markerUnits="strokeWidth" markerWidth="4" orient="auto" refX="10" refY="5" viewBox="0 0 10 10">
      <path d="M 10 0 L 0 5 L 10 10 z" id="path2684"/>
    </marker>
  </defs>
  <g id="g2686">
    <path d="M 82.4318 17.9239C 41.0968 17.9239 17.8608 39.2949 17.8608 82.9599L 17.8608 533.082C 17.8608 573.925 38.7518 595.31 80.0528 595.31L 532.077 595.31C 573.38 595.31 594.303 574.99 594.303 533.082L 594.303 82.9599C 594.303 40.3599 573.38 17.9239 530.78 17.9239C 530.78 17.9239 82.2888 17.7819 82.4318 17.9239z" id="path2688" style="stroke:#000000; stroke-width:3.4079999999999999; fill:#000000"/>
    <g id="g2690">
      <g id="g2692">
        <path d="M 357.692 191.438C 382.453 191.438 402.525 171.366 402.525 146.606C 402.525 121.848 382.453 101.774 357.692 101.774C 332.932 101.774 312.859 121.848 312.859 146.606C 312.859 171.366 332.932 191.438 357.692 191.438z" id="path2694" style="stroke:none; fill:#ffffff"/>
        <path d="M 254.692 155.356C 280.192 142.356 315.692 166.356 315.914 192.75L 315.914 278.057L 356.567 322.856C 375.192 343.856 345.688 372.607 325.157 351.641L 279.162 301.061C 276.316 298.305 274.183 294.95 274.183 287.163L 274.183 246.313L 194.089 289.606L 194.089 506.856C 194.089 555.856 127.642 555.846 127.642 507.28L 127.642 249.781C 127.642 235.403 133.333 221.443 147.561 213.296L 254.692 155.356z" id="path2696" style="stroke:none; fill:#ffffff"/>
      </g>
      <g id="g2698">
        <path d="M 421.201 375.856L 491.692 375.856L 491.692 247.355L 349.692 247.106C 331.442 247.106 324.608 267.689 335.942 280.606L 421.201 375.856z" id="path2700" style="stroke:none; fill:#ffffff"/>
        <g id="g2702">
          <g id="g2704">
            <path d="M 380.269 241.318C 383.296 241.318 385.749 238.864 385.749 235.838C 385.749 232.811 383.296 230.357 380.269 230.357C 377.243 230.357 374.789 232.811 374.789 235.838C 374.789 238.864 377.243 241.318 380.269 241.318z" id="path2706" style="stroke:none; fill:#ffffff"/>
            <path d="M 380.269 235.838" id="path2708" style="stroke:none; fill:#ffffff"/>
          </g>
          <g id="g2710">
            <path d="M 394.946 242.278C 397.972 242.278 400.426 239.824 400.426 236.798C 400.426 233.771 397.972 231.318 394.946 231.318C 391.919 231.318 389.466 233.771 389.466 236.798C 389.466 239.824 391.919 242.278 394.946 242.278z" id="path2712" style="stroke:none; fill:#ffffff"/>
            <path d="M 394.946 236.798" id="path2714" style="stroke:none; fill:#ffffff"/>
          </g>
          <g id="g2716">
            <path d="M 395.886 226.082C 398.912 226.082 401.366 223.628 401.366 220.602C 401.366 217.575 398.912 215.121 395.886 215.121C 392.859 215.121 390.406 217.575 390.406 220.602C 390.406 223.628 392.859 226.082 395.886 226.082z" id="path2718" style="stroke:none; fill:#ffffff"/>
            <path d="M 395.886 220.602" id="path2720" style="stroke:none; fill:#ffffff"/>
          </g>
          <g id="g2722">
            <path d="M 381.267 225.06C 384.294 225.06 386.747 222.607 386.747 219.58C 386.747 216.554 384.294 214.1 381.267 214.1C 378.241 214.1 375.787 216.554 375.787 219.58C 375.787 222.607 378.241 225.06 381.267 225.06z" id="path2724" style="stroke:none; fill:#ffffff"/>
            <path d="M 381.267 219.58" id="path2726" style="stroke:none; fill:#ffffff"/>
          </g>
          <g id="g2728">
            <path d="M 386.014 210.039C 389.192 210.039 391.768 207.463 391.768 204.285C 391.768 201.107 389.192 198.531 386.014 198.531C 382.836 198.531 380.26 201.107 380.26 204.285C 380.26 207.463 382.836 210.039 386.014 210.039z" id="path2730" style="stroke:none; fill:#ffffff"/>
            <path d="M 386.014 204.285" id="path2732" style="stroke:none; fill:#ffffff"/>
          </g>
          <g id="g2734">
            <path d="M 403.853 212.918C 407.031 212.918 409.607 210.342 409.607 207.164C 409.607 203.986 407.031 201.41 403.853 201.41C 400.675 201.41 398.099 203.986 398.099 207.164C 398.099 210.342 400.675 212.918 403.853 212.918z" id="path2736" style="stroke:none; fill:#ffffff"/>
            <path d="M 403.853 207.164" id="path2738" style="stroke:none; fill:#ffffff"/>
          </g>
          <g id="g2740">
            <path d="M 397.514 198.088C 400.851 198.088 403.556 195.383 403.556 192.046C 403.556 188.709 400.851 186.004 397.514 186.004C 394.178 186.004 391.472 188.709 391.472 192.046C 391.472 195.383 394.178 198.088 397.514 198.088z" id="path2742" style="stroke:none; fill:#ffffff"/>
            <path d="M 397.514 192.046" id="path2744" style="stroke:none; fill:#ffffff"/>
          </g>
          <g id="g2746">
            <path d="M 418.17 207.686C 421.507 207.686 424.212 204.981 424.212 201.644C 424.212 198.308 421.507 195.603 418.17 195.603C 414.834 195.603 412.128 198.308 412.128 201.644C 412.128 204.981 414.834 207.686 418.17 207.686z" id="path2748" style="stroke:none; fill:#ffffff"/>
            <path d="M 418.17 201.644" id="path2750" style="stroke:none; fill:#ffffff"/>
          </g>
          <g id="g2752">
            <path d="M 411.596 192.809C 414.932 192.809 417.637 190.104 417.637 186.767C 417.637 183.43 414.932 180.725 411.596 180.725C 408.259 180.725 405.554 183.43 405.554 186.767C 405.554 190.104 408.259 192.809 411.596 192.809z" id="path2754" style="stroke:none; fill:#ffffff"/>
            <path d="M 411.596 186.767" id="path2756" style="stroke:none; fill:#ffffff"/>
          </g>
          <g id="g2758">
            <path d="M 427.891 192.829C 431.569 192.829 434.552 189.847 434.552 186.168C 434.552 182.489 431.569 179.507 427.891 179.507C 424.212 179.507 421.229 182.489 421.229 186.168C 421.229 189.847 424.212 192.829 427.891 192.829z" id="path2760" style="stroke:none; fill:#ffffff"/>
            <path d="M 427.891 186.168" id="path2762" style="stroke:none; fill:#ffffff"/>
          </g>
          <g id="g2764">
            <path d="M 433.056 213.465C 436.735 213.465 439.717 210.482 439.717 206.804C 439.717 203.125 436.735 200.142 433.056 200.142C 429.377 200.142 426.395 203.125 426.395 206.804C 426.395 210.482 429.377 213.465 433.056 213.465z" id="path2766" style="stroke:none; fill:#ffffff"/>
            <path d="M 433.056 206.804" id="path2768" style="stroke:none; fill:#ffffff"/>
          </g>
          <g id="g2770">
            <path d="M 443.247 200.721C 447.109 200.721 450.241 197.589 450.241 193.727C 450.241 189.864 447.109 186.732 443.247 186.732C 439.384 186.732 436.252 189.864 436.252 193.727C 436.252 197.589 439.384 200.721 443.247 200.721z" id="path2772" style="stroke:none; fill:#ffffff"/>
            <path d="M 443.247 193.727" id="path2774" style="stroke:none; fill:#ffffff"/>
          </g>
          <g id="g2776">
            <path d="M 456.617 214.268C 460.673 214.268 463.961 210.98 463.961 206.924C 463.961 202.868 460.673 199.58 456.617 199.58C 452.561 199.58 449.273 202.868 449.273 206.924C 449.273 210.98 452.561 214.268 456.617 214.268z" id="path2778" style="stroke:none; fill:#ffffff"/>
            <path d="M 456.617 206.924" id="path2780" style="stroke:none; fill:#ffffff"/>
          </g>
          <g id="g2782">
            <path d="M 443.936 227.225C 447.991 227.225 451.279 223.937 451.279 219.881C 451.279 215.825 447.991 212.537 443.936 212.537C 439.88 212.537 436.592 215.825 436.592 219.881C 436.592 223.937 439.88 227.225 443.936 227.225z" id="path2784" style="stroke:none; fill:#ffffff"/>
            <path d="M 443.936 219.881" id="path2786" style="stroke:none; fill:#ffffff"/>
          </g>
        </g>
      </g>
    </g>
  </g>
</svg>
