<?xml version="1.0" encoding="UTF-8" standalone="no"?>
<svg height="613.171" id="svg3775" inkscape:version="0.41" sodipodi:docbase="/datas/Projs/Cliparts Stocker/tmp/AIGA" sodipodi:docname="AIGA_Restaurant_2.svg" sodipodi:version="0.32" width="612.164" xmlns="http://www.w3.org/2000/svg" xmlns:cc="http://web.resource.org/cc/" xmlns:dc="http://purl.org/dc/elements/1.1/" xmlns:inkscape="http://www.inkscape.org/namespaces/inkscape" xmlns:rdf="http://www.w3.org/1999/02/22-rdf-syntax-ns#" xmlns:sodipodi="http://inkscape.sourceforge.net/DTD/sodipodi-0.dtd" xmlns:svg="http://www.w3.org/2000/svg">
  <metadata>
    <rdf:RDF xmlns:cc="http://web.resource.org/cc/" xmlns:dc="http://purl.org/dc/elements/1.1/" xmlns:rdf="http://www.w3.org/1999/02/22-rdf-syntax-ns#">
      <cc:Work rdf:about="">
        <dc:title>AIGA_Symbol_Signs</dc:title>
        <dc:description>EPS converted from  http://aiga.org</dc:description>
        <dc:subject>
          <rdf:Bag>
            <rdf:li>symbol</rdf:li>
            <rdf:li>mapsym</rdf:li>
          </rdf:Bag>
        </dc:subject>
        <dc:publisher>
          <cc:Agent rdf:about="http://www.openclipart.org/">
            <dc:title>Open Clip Art Library</dc:title>
          </cc:Agent>
        </dc:publisher>
        <dc:creator>
          <cc:Agent>
            <dc:title>Jean-Victor Balin</dc:title>
          </cc:Agent>
        </dc:creator>
        <dc:rights>
          <cc:Agent>
            <dc:title>Jean-Victor Balin</dc:title>
          </cc:Agent>
        </dc:rights>
        <dc:date></dc:date>
        <dc:format>image/svg+xml</dc:format>
        <dc:type rdf:resource="http://purl.org/dc/dcmitype/StillImage"/>
        <cc:license rdf:resource="http://web.resource.org/cc/PublicDomain"/>
        <dc:language>en</dc:language>
      </cc:Work>
      <cc:License rdf:about="http://web.resource.org/cc/PublicDomain">
        <cc:permits rdf:resource="http://web.resource.org/cc/Reproduction"/>
        <cc:permits rdf:resource="http://web.resource.org/cc/Distribution"/>
        <cc:permits rdf:resource="http://web.resource.org/cc/DerivativeWorks"/>
      </cc:License>
    </rdf:RDF>
  </metadata>
  <sodipodi:namedview bordercolor="#666666" borderopacity="1.0" id="base" inkscape:current-layer="svg3775" inkscape:cx="305.25953" inkscape:cy="417.84947" inkscape:pageopacity="0.0" inkscape:pageshadow="2" inkscape:window-height="543" inkscape:window-width="640" inkscape:window-x="5" inkscape:window-y="48" inkscape:zoom="0.43415836" pagecolor="#ffffff"/>
  <defs id="defs3777">
    <marker id="ArrowEnd" markerHeight="3" markerUnits="strokeWidth" markerWidth="4" orient="auto" refX="0" refY="5" viewBox="0 0 10 10">
      <path d="M 0 0 L 10 5 L 0 10 z" id="path3780"/>
    </marker>
    <marker id="ArrowStart" markerHeight="3" markerUnits="strokeWidth" markerWidth="4" orient="auto" refX="10" refY="5" viewBox="0 0 10 10">
      <path d="M 10 0 L 0 5 L 10 10 z" id="path3783"/>
    </marker>
  </defs>
  <g id="g3785">
    <path d="M 82.4318 17.9239C 41.0968 17.9239 17.8608 39.2949 17.8608 82.9599L 17.8608 533.082C 17.8608 573.925 38.7518 595.31 80.0528 595.31L 532.077 595.31C 573.38 595.31 594.303 574.99 594.303 533.082L 594.303 82.9599C 594.303 40.3599 573.38 17.9239 530.78 17.9239C 530.78 17.9239 82.2888 17.7819 82.4318 17.9239z" id="path3787" style="stroke:#000000; stroke-width:3.4079999999999999; fill:#000000"/>
    <g id="g3789">
      <path d="M 288.58 229.496C 288.58 244.829 274.61 261.246 256.496 261.246L 256.496 520.079C 256.496 556.819 206.415 556.819 206.415 520.079L 206.415 261.246C 188.775 261.246 173.422 247.663 173.422 227.309L 173.422 84.8709C 173.422 72.4719 191.342 71.9929 191.342 85.3499L 191.342 190.648L 206.342 190.648L 206.342 84.3919C 206.342 72.9959 223.592 72.2639 223.592 84.8709L 223.592 190.648L 239.092 190.648L 239.092 84.5169C 239.092 72.6179 255.842 72.1389 255.842 84.9959L 255.842 190.648L 271.092 190.648L 271.092 84.5169C 271.092 72.7429 288.589 72.2639 288.589 84.9959L 288.58 229.496z" id="path3791" style="stroke:none; fill:#ffffff"/>
      <path d="M 422.168 117.976L 422.168 519.953C 422.168 555.886 371.991 555.354 371.991 519.953L 371.991 360.458L 345.272 360.458L 345.272 117.976C 345.272 61.5309 422.168 61.5309 422.168 117.976z" id="path3793" style="stroke:none; fill:#ffffff"/>
    </g>
  </g>
</svg>
