<?xml version="1.0" encoding="UTF-8"?>
<!--======================================================================-->
<!--=  Copyright 2004 Sony Ericsson Mobile Communications AB             =-->
<!--=  All Rights Reserved.                                              =-->
<!--=  User shall not remove or obscure this copyright notice or         =-->
<!--=  proprietary legends contained within this source file.            =-->
<!--======================================================================-->
<!--=  Production & Design:  Amilon / Mellgren                           =-->
<!--=  Vitamin Se Media AB (www.vitamin.se)                              =-->
<!--======================================================================-->
<!DOCTYPE svg>
<svg xmlns="http://www.w3.org/2000/svg" xmlns:xlink="http://www.w3.org/1999/xlink" version="1.1" baseProfile="tiny" xml:space="preserve" width="128" height="160" viewBox="-64 -80 128 160">
<rect fill="#ffffff" x="-64" y="-80" width="128" height="160"/>
<g  id="Splash">
	<animate attributeName="visibility"
		values="visible;hidden"
		keyTimes="0.00;1"
		dur="4.00s" fill="freeze"/>
	<animateTransform attributeName="transform" type="translate"  additive="replace"
		values="-90,-110;-90,-110"
		keyTimes="0.00;1"
		dur="0.10s" fill="freeze"/>
	<animateTransform attributeName="transform" type="scale"  additive="sum"
		values="1.18;1.18"
		keyTimes="0.00;1"
		dur="0.10s" fill="freeze"/>

<path style="fill:#ffae00;"
	d="M18.00 0.00 L18.00 161.00 L146.00 161.00 L146.00 0.00 L18.00 0.00 Z"/>
<path style="fill:#fff03f;"
	d="M18.00 65.00 L18.00 161.00 L111.00 161.00 "/>
<path style="fill:#fff03f; stroke:#ffd400; stroke-linejoin:bevel; stroke-miterlimit:2.00;"
	d="M112.00 168.00 C121.00 156.00 127.00 141.00 127.00 124.00 C127.00 84.00 95.00 51.00 54.00 51.00 
		C39.00 51.00 24.00 56.00 12.00 64.00 "/>
<path style="fill:#c3a890;"
	d="M55.00 60.00 C53.00 56.00 48.00 55.00 44.00 56.00 C34.00 58.00 26.00 64.00 19.00 71.00 
		L19.00 108.00 C21.00 104.00 25.00 98.00 31.00 91.00 C36.00 85.00 46.00 76.00 51.00 72.00 
		C54.00 68.00 57.00 64.00 55.00 60.00 Z"/>
<path style="fill:#b89e87;"
	d="M84.00 142.00 C92.00 138.00 86.00 136.00 83.00 139.00 C83.00 138.00 85.00 136.00 83.00 135.00 
		C81.00 135.00 79.00 141.00 80.00 144.00 C79.00 146.00 70.00 157.00 60.00 147.00 
		L58.00 150.00 C69.00 160.00 76.00 154.00 80.00 150.00 C81.00 150.00 85.00 150.00 85.00 146.00 
		C86.00 146.00 89.00 146.00 89.00 144.00 C89.00 142.00 85.00 142.00 84.00 142.00 
		Z"/>
<path style="fill:#c3a890;"
	d="M55.00 99.00 C55.00 99.00 47.00 86.00 49.00 83.00 C51.00 81.00 67.00 85.00 67.00 85.00 
		C67.00 85.00 63.00 72.00 66.00 71.00 C68.00 70.00 118.00 116.00 118.00 116.00 
		C118.00 116.00 111.00 126.00 87.00 129.00 C64.00 132.00 47.00 127.00 47.00 127.00 
		L55.00 99.00 Z"/>
<path style="fill:#ffffff;"
	d="M91.00 125.00 L73.00 118.00 C73.00 118.00 72.00 125.00 77.00 128.00 C83.00 129.00 91.00 125.00 91.00 125.00 
		Z"/>
<path style="fill:none; stroke:#785f4d; stroke-linejoin:bevel; stroke-miterlimit:2.00;"
	d="M91.00 125.00 L73.00 118.00 "/>

<path style="fill:#6a5140;"
	d="M67.00 103.00 C67.00 107.00 70.00 110.00 75.00 110.00 C79.00 110.00 82.00 107.00 82.00 102.00 
		C82.00 98.00 79.00 95.00 74.00 95.00 C70.00 95.00 67.00 99.00 67.00 103.00 
		Z"/>
<path style="fill:#000000;"
	d="M73.00 103.00 C73.00 104.00 74.00 105.00 75.00 105.00 C76.00 105.00 77.00 104.00 77.00 103.00 
		C77.00 102.00 76.00 101.00 75.00 101.00 C74.00 101.00 73.00 102.00 73.00 103.00 
		Z"/>
<path style="fill:#ffffff;"
	d="M77.00 102.00 C77.00 103.00 77.00 103.00 76.00 103.00 C75.00 103.00 75.00 103.00 75.00 102.00 
		C75.00 101.00 75.00 101.00 76.00 101.00 C77.00 101.00 77.00 101.00 77.00 102.00 
		Z"/>
<path style="fill:#6a5140;"
	d="M82.00 93.00 C82.00 97.00 85.00 100.00 90.00 100.00 C94.00 100.00 97.00 97.00 97.00 92.00 
		C97.00 87.00 94.00 85.00 89.00 85.00 C85.00 85.00 82.00 89.00 82.00 93.00 
		Z"/>
<path style="fill:#000000;"
	d="M88.00 93.00 C88.00 94.00 89.00 95.00 90.00 95.00 C91.00 95.00 92.00 94.00 92.00 93.00 
		C92.00 92.00 91.00 91.00 90.00 91.00 C89.00 91.00 88.00 92.00 88.00 93.00 
		Z"/>
<path style="fill:#ffffff;"
	d="M92.00 93.00 C92.00 94.00 92.00 94.00 91.00 94.00 C90.00 94.00 90.00 94.00 90.00 93.00 
		C90.00 92.00 90.00 92.00 91.00 92.00 C91.00 91.00 92.00 92.00 92.00 93.00 
		Z"/>

<path style="fill:#5c8326;"
	d="M51.00 139.00 L63.00 147.00 L57.00 155.00 C57.00 155.00 46.00 150.00 47.00 144.00 
		C48.00 139.00 51.00 139.00 51.00 139.00 Z"/>
<path style="fill:#9fc74e;"
	d="M22.00 114.00 C29.00 111.00 38.00 108.00 48.00 111.00 C47.00 121.00 55.00 135.00 65.00 141.00 
		C59.00 143.00 48.00 149.00 41.00 157.00 C29.00 169.00 27.00 173.00 27.00 173.00 
		L0.14 141.00 C0.14 141.00 5.00 121.00 22.00 114.00 Z"/>
<path style="fill:#5c8326;"
	d="M43.00 109.00 L43.00 142.00 L56.00 139.00 L57.00 144.00 L64.00 141.00 C64.00 141.00 46.00 135.00 44.00 110.00 
		L43.00 109.00 Z"/>
<path style="fill:#9fc74e;"
	d="M45.00 107.00 L47.00 138.00 L59.00 137.00 L64.00 148.00 L69.00 143.00 C69.00 143.00 49.00 138.00 47.00 110.00 
		L45.00 107.00 Z"/>
<path style="fill:#5c8326;"
	d="M44.00 154.00 C42.00 151.00 39.00 147.00 37.00 142.00 L41.00 141.00 C41.00 141.00 37.00 120.00 29.00 123.00 
		C21.00 126.00 29.00 145.00 29.00 145.00 L33.00 144.00 C35.00 150.00 38.00 155.00 41.00 159.00 
		L44.00 154.00 Z"/>
<path style="fill:#b89e87;"
	d="M50.00 161.00 L57.00 161.00 C51.00 157.00 44.00 150.00 38.00 138.00 L33.00 138.00 
		C37.00 149.00 43.00 156.00 50.00 161.00 Z"/>
<path style="fill:#b3da73;"
	d="M29.00 141.00 C29.00 141.00 23.00 122.00 29.00 119.00 C35.00 116.00 41.00 137.00 41.00 137.00 
		L29.00 141.00 Z"/>

<path style="fill:#000000;"
	d="M111.00 116.00 C111.00 117.00 112.00 119.00 114.00 119.00 C115.00 119.00 117.00 118.00 117.00 116.00 
		C117.00 115.00 116.00 113.00 114.00 113.00 C112.00 113.00 111.00 114.00 111.00 116.00 
		Z"/>


<path style="fill:#6a5140;"
	d="M24.00 99.00 L5.00 88.00 C5.00 87.00 6.00 85.00 8.00 83.00 L29.00 93.00 
		C27.00 95.00 25.00 97.00 24.00 99.00 Z"/>
<path style="fill:#6a5140;"
	d="M33.00 88.00 L15.00 74.00 C16.00 73.00 18.00 71.00 19.00 70.00 L38.00 83.00 
		C37.00 84.00 35.00 86.00 33.00 88.00 Z"/>
<path style="fill:#6a5140;"
	d="M51.00 71.00 C50.00 72.00 48.00 74.00 45.00 76.00 L28.00 62.00 C30.00 61.00 32.00 60.00 35.00 59.00 
		L51.00 71.00 C51.00 71.00 51.00 71.00 51.00 71.00 Z"/>
<path style="fill:#6a5140;"
	d="M53.00 69.00 L42.00 56.00 C42.00 56.00 42.00 56.00 43.00 56.00 C43.00 56.00 43.00 56.00 43.00 56.00 
		L54.00 63.00 C56.00 65.00 55.00 67.00 53.00 69.00 Z"/>

</g>

<!-- SC1 -->

<g id="SC1">
	<animate attributeName="visibility"
		values="hidden;visible"
		keyTimes="0.00;1"
		dur="4s" fill="freeze"/>

<g  id="WBG1">
	<animateTransform attributeName="transform" type="translate"  additive="replace"
		values="-463,29;-95,29"
		keyTimes="0.00;1"
		dur="7.50s" fill="freeze" begin="4s"/>

<path id="path_03" style="fill:#869ac5;"
	d="M535.16 159.00 L535.16 3.00 C533.00 3.00 531.00 4.53 528.00 4.00 C502.00 4.00 502.00 0.00 476.00 0.00 
		C451.00 0.00 451.00 4.00 425.00 4.00 C399.00 4.00 399.00 0.00 373.00 0.00 
		C347.00 0.00 347.00 4.00 321.00 4.00 C295.00 4.00 295.00 0.00 269.00 0.00 
		C243.00 0.00 243.00 4.00 217.00 4.00 C191.00 4.00 191.00 0.00 165.00 0.00 
		C139.00 0.00 139.00 4.00 113.00 4.00 C85.00 4.85 85.00 0.59 59.00 0.00 
		C33.00 0.33 33.00 4.70 7.00 4.00 C4.00 4.20 2.00 3.00 0.30 3.00 
		L0.30 158.00 L535.16 159.00 Z"/>
</g>
<g  id="crane">
	<animateTransform attributeName="transform" type="translate"  additive="replace"
		values="-81,-83.9;-81,-83.9"
		keyTimes="0.00;1"
		dur="7.50s" fill="freeze" begin="4s"/>
	<animateTransform attributeName="transform" type="scale"  additive="sum"
		values="0.304,0.304;0.304,0.304"
		keyTimes="0.00;1"
		dur="7.50s" fill="freeze" begin="4s"/>

<g  id="Group_02_14">
<g  id="Lager_1_17">
<path id="path_03_21" style="fill:none; stroke:#666666; stroke-linejoin:bevel; stroke-miterlimit:2.00;"
	d="M0.00 43.00 L276.00 3.00 L276.00 12.00 L5.16 96.00 "/>
<path id="path_04" style="fill:none; stroke:#666666; stroke-linejoin:bevel; stroke-miterlimit:2.00;"
	d="M21.00 41.00 L13.00 93.00 "/>
<path id="path_05" style="fill:none; stroke:#666666; stroke-linejoin:bevel; stroke-miterlimit:2.00;"
	d="M29.00 39.00 L43.45 84.00 "/>
<path id="path_06" style="fill:none; stroke:#666666; stroke-linejoin:bevel; stroke-miterlimit:2.00;"
	d="M60.00 34.00 L57.00 80.00 "/>
<path id="path_07" style="fill:none; stroke:#666666; stroke-linejoin:bevel; stroke-miterlimit:2.00;"
	d="M98.00 28.00 L99.37 65.00 "/>
<path id="path_08" style="fill:none; stroke:#666666; stroke-linejoin:bevel; stroke-miterlimit:2.00;"
	d="M74.00 74.00 L82.00 31.00 "/>
<path id="path_09" style="fill:none; stroke:#666666; stroke-linejoin:bevel; stroke-miterlimit:2.00;"
	d="M106.00 28.00 L118.30 58.00 "/>
<path id="path_10" style="fill:none; stroke:#666666; stroke-linejoin:bevel; stroke-miterlimit:2.00;"
	d="M129.00 25.00 L126.68 57.00 "/>
<path id="path_11" style="fill:none; stroke:#666666; stroke-linejoin:bevel; stroke-miterlimit:2.00;"
	d="M143.00 23.00 L150.00 49.00 "/>
<path id="path_12" style="fill:none; stroke:#666666; stroke-linejoin:bevel; stroke-miterlimit:2.00;"
	d="M166.00 19.00 L176.00 42.00 "/>
<path id="path_13" style="fill:none; stroke:#666666; stroke-linejoin:bevel; stroke-miterlimit:2.00;"
	d="M189.00 16.00 L187.00 40.00 "/>
<path id="path_14" style="fill:none; stroke:#666666; stroke-linejoin:bevel; stroke-miterlimit:2.00;"
	d="M198.00 14.00 L207.00 33.00 "/>
<path id="path_15" style="fill:none; stroke:#666666; stroke-linejoin:bevel; stroke-miterlimit:2.00;"
	d="M224.00 10.00 L225.00 27.00 "/>
<path id="path_16" style="fill:none; stroke:#666666; stroke-linejoin:bevel; stroke-miterlimit:2.00;"
	d="M152.00 47.00 L155.00 20.00 "/>
<path id="path_17" style="fill:none; stroke:#666666; stroke-linejoin:bevel; stroke-miterlimit:2.00;"
	d="M244.00 8.00 L245.11 19.00 "/>
<path id="path_18" style="fill:none; stroke:#666666; stroke-linejoin:bevel; stroke-miterlimit:2.00;"
	d="M256.00 3.00 L256.00 19.00 "/>
</g>
</g>
</g>
<g  id="cage">
	<animateTransform attributeName="transform" type="translate"  additive="replace"
		values="-39.7,-163;-39.7,-163;-39.7,-105"
		keyTimes="0.00;0.39;1"
		dur="7.50s" fill="freeze" begin="4s"/>
	<animateTransform attributeName="transform" type="scale"  additive="sum"
		values="0.333,0.333;0.333,0.333;0.333,0.333"
		keyTimes="0.00;0.39;1"
		dur="7.50s" fill="freeze" begin="4s"/>

<path id="path_03_62" style="fill:none; stroke:#666666; stroke-linejoin:bevel; stroke-miterlimit:2.00;"
	d="M180.00 353.00 L176.00 483.00 "/>
<path id="path_06_65" style="fill:none; stroke:#666666; stroke-linejoin:bevel; stroke-miterlimit:2.00;"
	d="M196.00 363.00 L187.00 494.00 "/>
<path id="path_07_68" style="fill:none; stroke:#666666; stroke-linejoin:bevel; stroke-miterlimit:2.00;"
	d="M216.00 375.00 L204.00 506.00 "/>
<path id="path_08_71" style="fill:none; stroke:#666666; stroke-linejoin:bevel; stroke-miterlimit:2.00;"
	d="M125.00 342.00 L132.00 471.00 "/>
<path id="path_09_74" style="fill:none; stroke:#666666; stroke-linejoin:bevel; stroke-miterlimit:2.00;"
	d="M99.00 346.00 L103.13 478.00 "/>
<path id="path_10_77" style="fill:none; stroke:#666666; stroke-linejoin:bevel; stroke-miterlimit:2.00;"
	d="M74.00 350.00 L83.00 482.00 "/>
<path id="path_11_80" style="fill:none; stroke:#666666; stroke-linejoin:bevel; stroke-miterlimit:2.00;"
	d="M56.00 352.00 L61.00 484.00 "/>
<path id="path_12_83" style="fill:#666666;"
	d="M219.00 513.00 L156.00 468.00 L157.00 338.00 C157.00 338.00 155.00 338.00 154.00 338.00 
		L153.00 467.00 L39.00 482.00 L86.00 535.00 L219.00 513.00 Z"/>
<path id="path_13_86" style="fill:#b1937b;"
	d="M127.00 420.00 C127.00 420.00 92.00 418.00 82.00 437.00 C77.00 446.00 79.00 462.00 82.00 470.00 
		C86.00 478.00 98.00 483.00 107.00 481.00 C124.00 477.00 115.00 471.00 113.00 459.00 
		C110.00 439.00 126.00 432.00 126.00 432.00 L127.00 420.00 Z"/>
<path id="path_14_89" style="fill:#b1937b;"
	d="M92.00 513.00 C94.00 512.00 104.00 511.00 95.00 499.00 L103.00 499.00 C103.00 499.50 108.00 510.00 95.00 515.00 
		C98.00 515.00 102.00 515.00 105.00 517.00 C106.00 516.00 110.00 513.00 111.00 517.00 
		C110.00 517.00 109.00 518.00 107.00 518.00 C110.00 520.00 109.00 522.00 106.00 523.00 
		C106.00 522.00 104.00 521.00 103.00 520.00 C103.00 526.00 96.00 523.00 100.00 520.00 
		C98.00 521.00 95.00 520.00 95.00 518.00 C94.00 518.00 90.00 519.00 90.00 517.00 
		C89.00 516.00 91.00 514.00 92.00 513.00 Z"/>
<path id="path_15_92" style="fill:#b1937b;"
	d="M123.00 490.00 C122.00 489.00 127.00 490.00 127.00 490.00 C127.00 490.00 134.00 497.00 124.00 505.00 
		C127.00 505.00 130.00 504.00 133.00 505.00 C134.00 504.00 136.00 501.00 138.00 505.00 
		C138.00 505.00 136.00 506.00 135.00 507.00 C138.00 508.00 138.00 510.00 135.00 511.00 
		C135.00 511.00 133.00 510.00 132.00 510.00 C133.00 515.00 127.00 514.00 129.00 510.00 
		C128.00 511.00 125.00 511.00 124.00 509.00 C123.00 509.00 120.00 511.00 120.00 509.00 
		C120.00 509.00 120.00 506.00 121.00 506.00 C125.00 501.00 128.00 496.00 123.00 490.00 
		Z"/>
<path id="path_16_95" style="fill:#b1937b;"
	d="M17.00 439.00 C22.00 443.00 35.00 453.00 43.00 458.00 C62.00 471.00 77.00 472.00 77.00 472.00 
		C82.00 472.00 87.00 476.00 87.00 481.00 C87.00 486.00 84.00 485.00 79.00 485.00 
		C78.00 485.00 59.00 493.00 32.00 479.00 C19.00 472.00 8.00 462.00 1.00 448.00 
		C-1.00 443.00 -1.00 438.00 2.00 435.00 C7.00 434.00 12.00 436.00 17.00 439.00 
		Z"/>
<path id="path_17_98" style="fill:#b1937b;"
	d="M170.00 467.00 C162.00 465.00 158.00 456.00 157.00 440.00 L162.00 438.00 C162.00 449.00 164.00 455.00 168.00 460.00 
		C175.00 465.00 184.00 464.00 187.00 464.00 C191.00 463.00 195.00 462.00 196.00 462.00 
		C198.00 463.00 196.00 465.00 193.00 465.00 C194.00 465.00 198.00 467.00 198.00 469.00 
		C198.00 471.00 194.00 469.00 192.00 468.00 C193.00 469.00 194.00 472.00 192.00 473.00 
		C191.00 473.00 189.00 471.00 189.00 470.00 C187.00 471.00 184.00 470.00 184.00 468.00 
		C183.00 468.00 176.00 468.00 170.00 467.00 Z"/>
<path id="path_18_101" style="fill:#b1937b;"
	d="M139.00 405.00 C139.00 405.00 137.00 387.00 140.00 385.00 C143.00 384.00 157.00 396.00 157.00 396.00 
		C157.00 396.00 159.00 381.00 162.00 380.00 C165.00 380.00 194.00 453.00 194.00 453.00 
		C194.00 453.00 181.00 460.00 155.00 453.00 C129.00 446.00 114.00 431.00 114.00 431.00 
		L139.00 405.00 Z"/>
<path id="path_19" style="fill:#654d3c;"
	d="M150.00 415.00 C148.00 419.00 150.00 425.00 154.00 427.00 C158.00 429.00 164.00 427.00 166.00 423.00 
		C168.00 419.00 166.00 413.00 162.00 411.00 C158.00 408.00 152.00 410.00 150.00 415.00 
		Z"/>
<path id="path_20" style="fill:#000000;"
	d="M190.00 449.00 C190.00 450.00 190.00 453.00 191.00 454.00 C192.00 454.00 195.00 454.00 196.00 453.00 
		C196.00 452.00 196.00 449.00 195.00 448.00 C194.00 447.00 191.00 447.00 190.00 449.00 
		Z"/>
<path id="path_21" style="fill:#000000;"
	d="M157.00 418.00 C157.00 419.00 157.00 420.00 158.00 421.00 C159.00 421.00 160.00 421.00 161.00 420.00 
		C161.00 419.00 161.00 418.00 160.00 417.00 C159.00 416.00 157.00 416.00 157.00 418.00 
		Z"/>
<path id="path_22" style="fill:#ffffff;"
	d="M158.00 418.00 C158.00 418.00 158.00 419.00 158.00 419.00 C158.00 419.00 159.00 419.20 160.00 419.00 
		C160.00 419.00 160.00 418.00 160.00 417.00 C160.00 417.00 159.00 417.00 158.00 418.00 
		Z"/>
<path id="path_23" style="fill:#654d3c;"
	d="M171.00 412.00 C169.00 416.00 171.00 422.00 175.00 424.00 C179.00 426.00 185.00 424.00 187.00 420.00 
		C189.00 416.00 187.00 410.00 183.00 408.00 C179.00 405.00 173.00 407.00 171.00 412.00 
		Z"/>
<path id="path_24" style="fill:#000000;"
	d="M177.00 415.00 C177.00 416.00 177.00 417.00 178.00 418.00 C179.00 418.00 180.00 418.00 181.00 417.00 
		C181.00 416.00 181.00 415.00 180.00 414.00 C179.00 413.00 178.00 413.00 177.00 415.00 
		Z"/>
<path id="path_25" style="fill:#ffffff;"
	d="M179.00 415.00 C179.00 415.00 179.00 416.00 179.00 417.00 C179.00 417.00 180.00 417.00 181.00 417.00 
		C181.00 417.00 181.00 416.00 181.00 415.00 C180.00 414.00 179.00 414.00 179.00 415.00 
		Z"/>
<path id="path_26" style="fill:#b1937b;"
	d="M107.00 433.00 L111.00 428.00 C111.00 428.00 97.00 457.00 134.00 454.00 C135.00 452.00 140.00 451.00 143.00 451.00 
		C148.00 451.00 145.00 454.00 142.00 454.00 C145.00 454.00 148.00 459.00 148.00 462.00 
		C145.00 463.00 143.00 461.00 142.00 460.00 C142.00 461.00 142.00 465.00 140.00 465.00 
		C138.00 465.00 138.00 461.00 138.00 460.00 C136.00 462.00 134.00 460.00 134.00 459.00 
		C103.00 459.00 102.00 446.00 107.00 433.00 Z"/>
<path id="path_27" style="fill:#654d3c;"
	d="M53.00 465.00 L47.00 488.00 C45.00 488.00 43.00 487.00 41.00 486.00 L46.00 461.00 
		C48.00 462.00 50.00 463.00 53.00 465.00 Z"/>
<path id="path_28" style="fill:#654d3c;"
	d="M39.00 456.00 L28.00 479.00 C26.00 478.00 24.00 477.00 22.00 475.00 L31.00 451.00 
		C34.00 452.00 37.00 454.00 39.00 456.00 Z"/>
<path id="path_29" style="fill:#654d3c;"
	d="M17.00 439.00 C18.00 440.00 21.00 442.00 24.00 445.00 L13.00 466.00 C11.00 464.00 9.00 462.00 7.00 459.00 
		L15.00 438.00 C16.00 439.00 16.00 439.00 17.00 439.00 Z"/>
<path id="path_30" style="fill:#654d3c;"
	d="M72.00 472.00 L66.00 490.00 C64.00 490.00 61.00 490.00 59.00 490.00 L63.00 469.00 
		C66.00 470.00 70.00 472.00 72.00 472.00 Z"/>
<path id="path_31" style="fill:#654d3c;"
	d="M13.00 437.00 L2.00 452.00 C2.00 452.00 2.00 452.00 2.00 451.00 C2.00 451.00 2.00 451.00 2.00 451.00 
		L6.00 437.00 C8.00 435.00 11.00 436.00 13.00 437.00 Z"/>
<path id="path_32" style="fill:#e93822;"
	d="M115.00 458.00 C115.00 458.90 124.00 467.00 130.00 484.00 L113.00 490.00 L111.00 484.00 
		C110.00 484.00 108.00 485.00 106.00 486.00 C107.00 488.00 107.00 489.00 109.00 493.00 
		L90.00 496.00 C90.00 496.00 87.00 483.00 79.00 464.00 L115.00 458.00 Z"/>
<path id="path_33" style="fill:#fc583a;"
	d="M85.00 497.00 L108.00 491.00 L111.00 498.00 L87.00 505.00 L85.00 497.00 Z"/>
<path id="path_34" style="fill:#fc583a;"
	d="M132.00 482.00 L111.00 490.00 L114.00 497.00 L135.00 491.00 L132.00 482.00 Z"/>
<path id="path_35" style="fill:#b12113;"
	d="M110.00 485.00 C110.00 485.60 116.00 480.00 117.00 475.00 C117.00 475.00 117.00 485.00 112.00 489.00 
		L110.00 485.00 Z"/>
<path id="path_36" style="fill:none; stroke:#893022; stroke-linejoin:bevel; stroke-miterlimit:2.00;"
	d="M116.00 461.00 L80.00 468.00 "/>
<path id="path_37" style="fill:#654d3c;"
	d="M112.00 456.00 C112.00 456.00 104.00 453.00 105.00 444.00 C105.00 444.00 102.00 455.00 109.00 459.00 
		L112.00 459.00 L112.00 456.00 Z"/>
<path id="path_38" style="fill:#8c8c8c;"
	d="M230.00 381.00 C230.00 381.00 230.00 381.00 230.00 381.00 C230.00 381.00 230.00 381.00 230.00 381.00 
		C230.00 381.00 230.00 381.00 230.00 381.00 C230.00 381.00 230.00 381.00 230.00 381.00 
		C230.00 381.00 230.00 381.00 230.00 381.00 C230.00 381.00 230.00 381.00 230.00 381.00 
		C230.00 381.00 230.00 381.00 230.00 381.00 C230.00 381.00 230.00 381.00 230.00 381.00 
		C230.00 381.00 230.00 381.00 230.00 381.00 L156.00 337.00 L30.00 354.00 L38.00 485.00 
		C38.00 485.49 87.00 538.00 87.00 538.00 C87.00 538.00 220.00 517.00 220.00 517.00 
		L230.00 381.00 ZM85.00 530.00 C85.00 530.00 43.00 483.00 42.00 483.00 C42.00 482.00 34.00 370.00 34.00 361.00 
		C36.00 363.00 87.00 410.00 87.00 410.00 L85.00 530.00 ZM91.00 410.00 L225.00 384.00 
		L216.00 513.00 L89.00 533.00 L91.00 410.00 Z"/>
<path id="path_39" style="fill:#8c8c8c;"
	d="M141.00 400.00 L138.00 527.00 L142.00 526.00 L146.00 399.00 L141.00 400.00 Z"/>
<path id="path_40" style="fill:#8c8c8c;"
	d="M114.00 404.00 L114.00 529.00 L115.00 530.00 L117.00 529.00 L118.00 403.00 L114.00 404.00 
		Z"/>
<path id="path_41" style="fill:#8c8c8c;"
	d="M170.00 395.00 L167.00 522.00 L169.00 522.00 L171.00 521.00 L174.00 392.00 L170.00 395.00 
		Z"/>
<path id="path_42" style="fill:#8c8c8c;"
	d="M163.00 396.00 L160.00 523.00 L162.00 523.00 L164.00 522.00 L167.00 393.00 L163.00 396.00 
		Z"/>
<path id="path_43" style="fill:#8c8c8c;"
	d="M197.00 388.00 L191.00 517.00 L192.00 518.00 L194.00 517.00 L201.00 387.00 L197.00 388.00 
		Z"/>
<path id="path_44" style="fill:#8c8c8c;"
	d="M78.00 402.00 L76.00 521.00 L74.00 521.00 L74.00 519.00 L76.00 399.00 L78.00 402.00 
		Z"/>
<path id="path_45" style="fill:#8c8c8c;"
	d="M65.00 389.00 L65.00 510.00 L63.00 510.00 L63.00 508.00 L61.00 385.00 L65.00 389.00 
		Z"/>
<path id="path_46" style="fill:#8c8c8c;"
	d="M44.00 369.00 L45.00 489.00 L46.00 491.00 L47.00 491.00 L45.00 372.00 L44.00 369.00 
		Z"/>
<path id="path_47" style="fill:#b3b3b3;"
	d="M88.00 406.00 L88.00 406.00 C88.00 406.00 88.00 406.00 88.00 406.00 L36.00 358.00 
		C43.00 357.00 154.00 342.00 156.00 341.00 C157.00 341.00 216.00 377.00 224.00 381.00 
		L88.00 406.00 C88.00 406.00 88.00 406.00 88.00 406.00 Z"/>
<path id="path_48" style="fill:#737373;"
	d="M119.00 370.00 L120.00 366.00 C120.00 366.00 111.00 353.00 120.00 348.00 C129.00 344.00 137.00 355.00 132.00 357.00 
		C130.00 357.00 129.00 355.00 128.00 354.00 C127.00 353.00 122.00 351.00 120.00 355.00 
		C119.00 357.00 123.00 364.00 123.00 364.00 L122.00 370.00 L119.00 370.00 Z"/>
<path id="path_49" style="fill:none; stroke:#000000; stroke-linejoin:bevel; stroke-miterlimit:2.00;"
	d="M131.00 0.00 L126.65 352.00 "/>
<path id="path_50" style="fill:none; stroke:#000000; stroke-linejoin:bevel; stroke-miterlimit:2.00;"
	d="M125.00 344.00 L125.00 351.00 "/>
<path id="path_51" style="fill:none; stroke:#000000; stroke-linejoin:bevel; stroke-miterlimit:2.00;"
	d="M130.00 346.00 L129.00 352.00 "/>
<path id="path_52" style="fill:none; stroke:#000000; stroke-linejoin:bevel; stroke-miterlimit:2.00;"
	d="M122.00 346.00 L123.00 352.00 "/>
<path id="path_53" style="fill:#b1937b;"
	d="M143.00 455.00 C147.00 455.00 149.00 452.00 144.00 452.00 C142.00 452.00 137.00 452.00 135.00 455.00 
		L133.00 459.00 C133.00 461.00 135.00 462.00 137.00 460.00 C137.00 461.00 137.00 466.00 139.00 465.00 
		C141.00 465.00 141.00 461.00 141.00 460.00 C142.00 461.00 144.00 464.00 147.00 462.00 
		C149.00 460.00 146.00 456.00 143.00 455.00 Z"/>
<path id="path_54" style="fill:#ae827b;"
	d="M153.53 534.00 L185.53 527.00 L179.53 525.00 L150.53 531.00 L153.53 534.00 Z"/>
<path id="path_55" style="fill:#8b4c41;"
	d="M172.00 508.00 L172.00 515.00 C172.00 515.30 175.00 516.00 174.00 525.00 L178.00 524.00 
		C179.00 525.00 181.00 512.00 172.00 508.00 Z"/>
<path id="path_56" style="fill:#8b4c41;"
	d="M185.00 526.00 L153.00 534.00 L157.00 554.00 L185.00 549.00 L185.00 526.00 Z"/>
<path id="path_57" style="fill:#000000;"
	d="M174.00 548.00 L172.00 543.00 C172.00 543.00 173.00 542.00 173.00 541.00 C173.00 540.00 173.00 538.00 171.00 538.00 
		C170.00 538.00 168.00 538.00 168.00 540.00 C168.00 541.00 168.00 543.00 170.00 543.00 
		L169.00 549.00 L174.00 548.00 Z"/>
<path id="path_58" style="fill:none; stroke:#ba958f; stroke-linejoin:bevel; stroke-miterlimit:2.00;"
	d="M168.00 549.00 L174.00 548.00 L172.00 543.00 C172.00 543.00 173.00 542.00 173.00 541.00 
		C173.00 540.00 173.00 538.00 171.00 538.00 "/>
<path id="path_59" style="fill:#8b4c41;"
	d="M160.00 517.00 L160.00 510.00 C154.00 512.00 145.00 519.00 154.00 531.00 L158.00 529.00 
		C158.00 529.00 153.00 521.00 160.00 517.00 Z"/>
<path id="path_60" style="fill:#581f11;"
	d="M165.00 508.00 L165.00 515.00 C165.00 515.00 166.00 515.00 167.00 515.00 L167.00 508.00 
		C167.00 508.00 166.00 508.00 165.00 508.00 Z"/>
<path id="path_61" style="fill:#652600;"
	d="M160.00 510.00 L160.00 517.00 L159.00 518.00 L159.00 511.00 C157.00 511.00 159.00 510.00 160.00 510.00 
		Z"/>
<path id="path_62" style="fill:#a27067;"
	d="M156.00 554.00 L152.00 550.00 L149.00 531.00 L152.00 534.00 L156.00 554.00 Z"/>
<path id="path_63" style="fill:none; stroke:#d0b6b2; stroke-linejoin:bevel; stroke-miterlimit:2.00;"
	d="M149.00 530.00 L152.00 534.00 L184.00 527.00 L178.00 525.00 "/>
<path id="path_64" style="fill:none; stroke:#ba958f; stroke-linejoin:bevel; stroke-miterlimit:2.00;"
	d="M153.53 534.00 L156.53 554.00 "/>
</g>

<g  id="WFG1">
	<animateTransform attributeName="transform" type="translate"  additive="replace"
		values="-74,39;-445,39"
		keyTimes="0.00;1"
		dur="7.50s" fill="freeze" begin="4s"/>
<path id="path_03_204" style="fill:#617bb3;"
	d="M529.00 4.00 C500.00 4.00 500.00 0.47 470.00 0.00 C441.00 0.00 441.00 4.00 412.00 4.00 
		C382.00 4.00 382.00 0.35 352.00 0.00 C323.00 0.00 323.00 4.00 293.00 4.00 
		C263.00 4.00 263.00 0.23 234.00 0.00 C205.00 0.00 205.00 4.00 175.00 4.00 
		C145.00 4.00 145.00 0.12 115.00 0.00 C86.00 0.86 86.00 4.00 56.00 4.00 
		C27.00 4.00 26.00 0.00 0.00 0.00 L0.00 180.00 L536.00 180.00 L536.00 4.00 
		C534.00 4.00 532.00 4.00 529.00 4.00 Z"/>
</g>
</g>

<!-- SC2 -->

<g id="SC2">
	<animate attributeName="visibility"
		values="hidden;visible;hidden"
		keyTimes="0.00;0.49;1"
		dur="23.5s" fill="freeze"/>
<g  id="UWBG">

	<animateTransform attributeName="transform" type="translate"  additive="replace"
		values="-68,-86;-68,-86"
		keyTimes="0.00;1"
		dur="12.00s" fill="freeze" begin="11.5s"/>
	<animateTransform attributeName="transform" type="scale"  additive="sum"
		values="0.291,0.282;0.291,0.282"
		keyTimes="0.00;1"
		dur="12.00s" fill="freeze" begin="11.5s"/>

<path style="fill:#a3dec7;"
	d="M0.00 0.00 L468.00 0.00 L468.00 612.00 L0.00 612.00 L0.00 0.00 Z"/>
</g>
<g  id="UWcage">
	<animateTransform attributeName="transform" type="rotate"  additive="replace"
		values="0 2 -206;-0.0985 2 -85.3;-0.0504 2 -81;0.574 2 -81;-1.55 2 -81;-0.486 2 -81;0.595 2 -81;-0.54 2 -81"
		keyTimes="0.00;0.28;0.29;0.42;0.56;0.71;0.86;1"
		dur="12.00s" fill="freeze" begin="11.5s"/>
	<animateTransform attributeName="transform" type="translate"  additive="sum"
		values="-34.7,-209;-34.7,-88.3;-34.7,-84;-34.7,-84;-34.7,-84;-34.7,-84;-34.7,-84;-34.7,-84"
		keyTimes="0.00;0.28;0.29;0.42;0.56;0.71;0.86;1"
		dur="12.00s" fill="freeze" begin="11.5s"/>
	<animateTransform attributeName="transform" type="scale"  additive="sum"
		values="0.281,0.281;0.281,0.281;0.281,0.281;0.281,0.281;0.281,0.281;0.281,0.281;0.281,0.281;0.281,0.281"
		keyTimes="0.00;0.28;0.29;0.42;0.56;0.71;0.86;1"
		dur="12.00s" fill="freeze" begin="11.5s"/>

<path style="fill:none; stroke:#53595a; stroke-linejoin:bevel; stroke-miterlimit:2.00;"
	d="M180.00 353.00 L176.00 483.00 "/>
<path style="fill:none; stroke:#53595a; stroke-linejoin:bevel; stroke-miterlimit:2.00;"
	d="M196.00 363.00 L187.00 494.00 "/>
<path style="fill:none; stroke:#53595a; stroke-linejoin:bevel; stroke-miterlimit:2.00;"
	d="M216.00 375.00 L204.00 506.00 "/>
<path style="fill:none; stroke:#53595a; stroke-linejoin:bevel; stroke-miterlimit:2.00;"
	d="M125.00 342.00 L132.00 471.00 "/>
<path id="path_09" style="fill:none; stroke:#53595a; stroke-linejoin:bevel; stroke-miterlimit:2.00;"
	d="M99.00 346.00 L103.13 478.00 "/>
<path id="path_10" style="fill:none; stroke:#53595a; stroke-linejoin:bevel; stroke-miterlimit:2.00;"
	d="M74.00 350.00 L83.00 482.00 "/>
<path id="path_11" style="fill:none; stroke:#53595a; stroke-linejoin:bevel; stroke-miterlimit:2.00;"
	d="M56.00 352.00 L61.00 484.00 "/>
<path id="path_12" style="fill:#53595a;"
	d="M219.00 513.00 L156.00 468.00 L157.00 338.00 C157.00 338.00 155.00 338.00 154.00 338.00 
		L153.00 467.00 L39.00 482.00 L86.00 535.00 L219.00 513.00 Z"/>
<path id="path_13" style="fill:#877b6c;"
	d="M127.00 420.00 C127.00 420.00 92.00 418.00 82.00 437.00 C77.00 446.00 79.00 462.00 82.00 470.00 
		C86.00 478.00 98.00 483.00 107.00 481.00 C124.00 477.00 115.00 471.00 113.00 459.00 
		C110.00 439.00 126.00 432.00 126.00 432.00 L127.00 420.00 Z"/>
<path id="path_14" style="fill:#877b6c;"
	d="M92.00 513.00 C94.00 512.00 104.00 511.00 95.00 499.00 L103.00 499.00 C103.00 499.50 108.00 510.00 95.00 515.00 
		C98.00 515.00 102.00 515.00 105.00 517.00 C106.00 516.00 110.00 513.00 111.00 517.00 
		C110.00 517.00 109.00 518.00 107.00 518.00 C110.00 520.00 109.00 522.00 106.00 523.00 
		C106.00 522.00 104.00 521.00 103.00 520.00 C103.00 526.00 96.00 523.00 100.00 520.00 
		C98.00 521.00 95.00 520.00 95.00 518.00 C94.00 518.00 90.00 519.00 90.00 517.00 
		C89.00 516.00 91.00 514.00 92.00 513.00 Z"/>
<path id="path_15" style="fill:#877b6c;"
	d="M123.00 490.00 C122.00 489.00 127.00 490.00 127.00 490.00 C127.00 490.00 134.00 497.00 124.00 505.00 
		C127.00 505.00 130.00 504.00 133.00 505.00 C134.00 504.00 136.00 501.00 138.00 505.00 
		C138.00 505.00 136.00 506.00 135.00 507.00 C138.00 508.00 138.00 510.00 135.00 511.00 
		C135.00 511.00 133.00 510.00 132.00 510.00 C133.00 515.00 127.00 514.00 129.00 510.00 
		C128.00 511.00 125.00 511.00 124.00 509.00 C123.00 509.00 120.00 511.00 120.00 509.00 
		C120.00 509.00 120.00 506.00 121.00 506.00 C125.00 501.00 128.00 496.00 123.00 490.00 
		Z"/>
<path id="path_16" style="fill:#877b6c;"
	d="M17.00 439.00 C22.00 443.00 35.00 453.00 43.00 458.00 C62.00 471.00 77.00 472.00 77.00 472.00 
		C82.00 472.00 87.00 476.00 87.00 481.00 C87.00 486.00 84.00 485.00 79.00 485.00 
		C78.00 485.00 59.00 493.00 32.00 479.00 C19.00 472.00 8.00 462.00 1.00 448.00 
		C-1.00 443.00 -1.00 438.00 2.00 435.00 C7.00 434.00 12.00 436.00 17.00 439.00 
		Z"/>
<path id="path_17" style="fill:#877b6c;"
	d="M170.00 467.00 C162.00 465.00 158.00 456.00 157.00 440.00 L162.00 438.00 C162.00 449.00 164.00 455.00 168.00 460.00 
		C175.00 465.00 184.00 464.00 187.00 464.00 C191.00 463.00 195.00 462.00 196.00 462.00 
		C198.00 463.00 196.00 465.00 193.00 465.00 C194.00 465.00 198.00 467.00 198.00 469.00 
		C198.00 471.00 194.00 469.00 192.00 468.00 C193.00 469.00 194.00 472.00 192.00 473.00 
		C191.00 473.00 189.00 471.00 189.00 470.00 C187.00 471.00 184.00 470.00 184.00 468.00 
		C183.00 468.00 176.00 468.00 170.00 467.00 Z"/>
<path id="path_18" style="fill:#877b6c;"
	d="M139.00 405.00 C139.00 405.00 137.00 387.00 140.00 385.00 C143.00 384.00 157.00 396.00 157.00 396.00 
		C157.00 396.00 159.00 381.00 162.00 380.00 C165.00 380.00 194.00 453.00 194.00 453.00 
		C194.00 453.00 181.00 460.00 155.00 453.00 C129.00 446.00 114.00 431.00 114.00 431.00 
		L139.00 405.00 Z"/>
<path id="path_19" style="fill:#4a3f34;"
	d="M150.00 415.00 C148.00 419.00 150.00 425.00 154.00 427.00 C158.00 429.00 164.00 427.00 166.00 423.00 
		C168.00 419.00 166.00 413.00 162.00 411.00 C158.00 408.00 152.00 410.00 150.00 415.00 
		Z"/>
<path id="path_20" style="fill:#000000;"
	d="M190.00 449.00 C190.00 450.00 190.00 453.00 191.00 454.00 C192.00 454.00 195.00 454.00 196.00 453.00 
		C196.00 452.00 196.00 449.00 195.00 448.00 C194.00 447.00 191.00 447.00 190.00 449.00 
		Z"/>
<path id="path_21" style="fill:#000000;"
	d="M157.00 418.00 C157.00 419.00 157.00 420.00 158.00 421.00 C159.00 421.00 160.00 421.00 161.00 420.00 
		C161.00 419.00 161.00 418.00 160.00 417.00 C159.00 416.00 157.00 416.00 157.00 418.00 
		Z"/>
<path id="path_22" style="fill:#cfdfe0;"
	d="M158.00 418.00 C158.00 418.00 158.00 419.00 158.00 419.00 C158.00 419.00 159.00 419.20 160.00 419.00 
		C160.00 419.00 160.00 418.00 160.00 417.00 C160.00 417.00 159.00 417.00 158.00 418.00 
		Z"/>
<path id="path_23" style="fill:#4a3f34;"
	d="M171.00 412.00 C169.00 416.00 171.00 422.00 175.00 424.00 C179.00 426.00 185.00 424.00 187.00 420.00 
		C189.00 416.00 187.00 410.00 183.00 408.00 C179.00 405.00 173.00 407.00 171.00 412.00 
		Z"/>
<path id="path_24" style="fill:#000000;"
	d="M177.00 415.00 C177.00 416.00 177.00 417.00 178.00 418.00 C179.00 418.00 180.00 418.00 181.00 417.00 
		C181.00 416.00 181.00 415.00 180.00 414.00 C179.00 413.00 178.00 413.00 177.00 415.00 
		Z"/>
<path id="path_25" style="fill:#cfdfe0;"
	d="M179.00 415.00 C179.00 415.00 179.00 416.00 179.00 417.00 C179.00 417.00 180.00 417.00 181.00 417.00 
		C181.00 417.00 181.00 416.00 181.00 415.00 C180.00 414.00 179.00 414.00 179.00 415.00 
		Z"/>
<path id="path_26" style="fill:#877b6c;"
	d="M107.00 433.00 L111.00 428.00 C111.00 428.00 97.00 457.00 134.00 454.00 C135.00 452.00 140.00 451.00 143.00 451.00 
		C148.00 451.00 145.00 454.00 142.00 454.00 C145.00 454.00 148.00 459.00 148.00 462.00 
		C145.00 463.00 143.00 461.00 142.00 460.00 C142.00 461.00 142.00 465.00 140.00 465.00 
		C138.00 465.00 138.00 461.00 138.00 460.00 C136.00 462.00 134.00 460.00 134.00 459.00 
		C103.00 459.00 102.00 446.00 107.00 433.00 Z"/>
<path id="path_27" style="fill:#4a3f34;"
	d="M53.00 465.00 L47.00 488.00 C45.00 488.00 43.00 487.00 41.00 486.00 L46.00 461.00 
		C48.00 462.00 50.00 463.00 53.00 465.00 Z"/>
<path id="path_28" style="fill:#4a3f34;"
	d="M39.00 456.00 L28.00 479.00 C26.00 478.00 24.00 477.00 22.00 475.00 L31.00 451.00 
		C34.00 452.00 37.00 454.00 39.00 456.00 Z"/>
<path id="path_29" style="fill:#4a3f34;"
	d="M17.00 439.00 C18.00 440.00 21.00 442.00 24.00 445.00 L13.00 466.00 C11.00 464.00 9.00 462.00 7.00 459.00 
		L15.00 438.00 C16.00 439.00 16.00 439.00 17.00 439.00 Z"/>
<path id="path_30" style="fill:#4a3f34;"
	d="M72.00 472.00 L66.00 490.00 C64.00 490.00 61.00 490.00 59.00 490.00 L63.00 469.00 
		C66.00 470.00 70.00 472.00 72.00 472.00 Z"/>
<path id="path_31" style="fill:#4a3f34;"
	d="M13.00 437.00 L2.00 452.00 C2.00 452.00 2.00 452.00 2.00 451.00 C2.00 451.00 2.00 451.00 2.00 451.00 
		L6.00 437.00 C8.00 435.00 11.00 436.00 13.00 437.00 Z"/>
<path id="path_32" style="fill:#be2619;"
	d="M115.00 458.00 C115.00 458.90 124.00 467.00 130.00 484.00 L113.00 490.00 L111.00 484.00 
		C110.00 484.00 108.00 485.00 106.00 486.00 C107.00 488.00 107.00 489.00 109.00 493.00 
		L90.00 496.00 C90.00 496.00 87.00 483.00 79.00 464.00 L115.00 458.00 Z"/>
<path id="path_33" style="fill:#cd432f;"
	d="M85.00 497.00 L108.00 491.00 L111.00 498.00 L87.00 505.00 L85.00 497.00 Z"/>
<path id="path_34" style="fill:#cd432f;"
	d="M132.00 482.00 L111.00 490.00 L114.00 497.00 L135.00 491.00 L132.00 482.00 Z"/>
<path id="path_35" style="fill:#91150d;"
	d="M110.00 485.00 C110.00 485.60 116.00 480.00 117.00 475.00 C117.00 475.00 117.00 485.00 112.00 489.00 
		L110.00 485.00 Z"/>
<path id="path_36" style="fill:none; stroke:#6d241c; stroke-linejoin:bevel; stroke-miterlimit:2.00;"
	d="M116.00 461.00 L80.00 468.00 "/>
<path id="path_37" style="fill:#4a3f34;"
	d="M112.00 456.00 C112.00 456.00 104.00 453.00 105.00 444.00 C105.00 444.00 102.00 455.00 109.00 459.00 
		L112.00 459.00 L112.00 456.00 Z"/>
<path id="path_38" style="fill:#717a7b;"
	d="M230.00 381.00 C230.00 381.00 230.00 381.00 230.00 381.00 C230.00 381.00 230.00 381.00 230.00 381.00 
		C230.00 381.00 230.00 381.00 230.00 381.00 C230.00 381.00 230.00 381.00 230.00 381.00 
		C230.00 381.00 230.00 381.00 230.00 381.00 C230.00 381.00 230.00 381.00 230.00 381.00 
		C230.00 381.00 230.00 381.00 230.00 381.00 C230.00 381.00 230.00 381.00 230.00 381.00 
		C230.00 381.00 230.00 381.00 230.00 381.00 L156.00 337.00 L30.00 354.00 L38.00 485.00 
		C38.00 485.49 87.00 538.00 87.00 538.00 C87.00 538.00 220.00 517.00 220.00 517.00 
		L230.00 381.00 ZM85.00 530.00 C85.00 530.00 43.00 483.00 42.00 483.00 C42.00 482.00 34.00 370.00 34.00 361.00 
		C36.00 363.00 87.00 410.00 87.00 410.00 L85.00 530.00 ZM91.00 410.00 L225.00 384.00 
		L216.00 513.00 L89.00 533.00 L91.00 410.00 Z"/>
<path id="path_39" style="fill:#717a7b;"
	d="M141.00 400.00 L138.00 527.00 L142.00 526.00 L146.00 399.00 L141.00 400.00 Z"/>
<path id="path_40" style="fill:#717a7b;"
	d="M114.00 404.00 L114.00 529.00 L115.00 530.00 L117.00 529.00 L118.00 403.00 L114.00 404.00 
		Z"/>
<path id="path_41" style="fill:#717a7b;"
	d="M170.00 395.00 L167.00 522.00 L169.00 522.00 L171.00 521.00 L174.00 392.00 L170.00 395.00 
		Z"/>
<path id="path_42" style="fill:#717a7b;"
	d="M163.00 396.00 L160.00 523.00 L162.00 523.00 L164.00 522.00 L167.00 393.00 L163.00 396.00 
		Z"/>
<path id="path_43" style="fill:#717a7b;"
	d="M197.00 388.00 L191.00 517.00 L192.00 518.00 L194.00 517.00 L201.00 387.00 L197.00 388.00 
		Z"/>
<path id="path_44" style="fill:#717a7b;"
	d="M78.00 402.00 L76.00 521.00 L74.00 521.00 L74.00 519.00 L76.00 399.00 L78.00 402.00 
		Z"/>
<path id="path_45" style="fill:#717a7b;"
	d="M65.00 389.00 L65.00 510.00 L63.00 510.00 L63.00 508.00 L61.00 385.00 L65.00 389.00 
		Z"/>
<path id="path_46" style="fill:#717a7b;"
	d="M44.00 369.00 L45.00 489.00 L46.00 491.00 L47.00 491.00 L45.00 372.00 L44.00 369.00 
		Z"/>
<path id="path_47" style="fill:#919d9d;"
	d="M88.00 406.00 L88.00 406.00 C88.00 406.00 88.00 406.00 88.00 406.00 L36.00 358.00 
		C43.00 357.00 154.00 342.00 156.00 341.00 C157.00 341.00 216.00 377.00 224.00 381.00 
		L88.00 406.00 C88.00 406.00 88.00 406.00 88.00 406.00 Z"/>
<path id="path_48" style="fill:#5d6465;"
	d="M119.00 370.00 L120.00 366.00 C120.00 366.00 111.00 353.00 120.00 348.00 C129.00 344.00 137.00 355.00 132.00 357.00 
		C130.00 357.00 129.00 355.00 128.00 354.00 C127.00 353.00 122.00 351.00 120.00 355.00 
		C119.00 357.00 123.00 364.00 123.00 364.00 L122.00 370.00 L119.00 370.00 Z"/>
<path id="path_49" style="fill:none; stroke:#000000; stroke-linejoin:bevel; stroke-miterlimit:2.00;"
	d="M131.00 0.00 L126.65 352.00 "/>
<path id="path_50" style="fill:none; stroke:#000000; stroke-linejoin:bevel; stroke-miterlimit:2.00;"
	d="M125.00 344.00 L125.00 351.00 "/>
<path id="path_51" style="fill:none; stroke:#000000; stroke-linejoin:bevel; stroke-miterlimit:2.00;"
	d="M130.00 346.00 L129.00 352.00 "/>
<path id="path_52" style="fill:none; stroke:#000000; stroke-linejoin:bevel; stroke-miterlimit:2.00;"
	d="M122.00 346.00 L123.00 352.00 "/>
<path id="path_53" style="fill:#877b6c;"
	d="M143.00 455.00 C147.00 455.00 149.00 452.00 144.00 452.00 C142.00 452.00 137.00 452.00 135.00 455.00 
		L133.00 459.00 C133.00 461.00 135.00 462.00 137.00 460.00 C137.00 461.00 137.00 466.00 139.00 465.00 
		C141.00 465.00 141.00 461.00 141.00 460.00 C142.00 461.00 144.00 464.00 147.00 462.00 
		C149.00 460.00 146.00 456.00 143.00 455.00 Z"/>
<path id="path_54" style="fill:#ae827b;"
	d="M153.53 534.00 L185.53 527.00 L179.53 525.00 L150.53 531.00 L153.53 534.00 Z"/>
<path id="path_55" style="fill:#8b4c41;"
	d="M172.00 508.00 L172.00 515.00 C172.00 515.30 175.00 516.00 174.00 525.00 L178.00 524.00 
		C179.00 525.00 181.00 512.00 172.00 508.00 Z"/>
<path id="path_56" style="fill:#8b4c41;"
	d="M185.00 526.00 L153.00 534.00 L157.00 554.00 L185.00 549.00 L185.00 526.00 Z"/>
<path id="path_57" style="fill:#000000;"
	d="M174.00 548.00 L172.00 543.00 C172.00 543.00 173.00 542.00 173.00 541.00 C173.00 540.00 173.00 538.00 171.00 538.00 
		C170.00 538.00 168.00 538.00 168.00 540.00 C168.00 541.00 168.00 543.00 170.00 543.00 
		L169.00 549.00 L174.00 548.00 Z"/>
<path id="path_58" style="fill:none; stroke:#ba958f; stroke-linejoin:bevel; stroke-miterlimit:2.00;"
	d="M168.00 549.00 L174.00 548.00 L172.00 543.00 C172.00 543.00 173.00 542.00 173.00 541.00 
		C173.00 540.00 173.00 538.00 171.00 538.00 "/>
<path id="path_59" style="fill:#8b4c41;"
	d="M160.00 517.00 L160.00 510.00 C154.00 512.00 145.00 519.00 154.00 531.00 L158.00 529.00 
		C158.00 529.00 153.00 521.00 160.00 517.00 Z"/>
<path id="path_60" style="fill:#581f11;"
	d="M165.00 508.00 L165.00 515.00 C165.00 515.00 166.00 515.00 167.00 515.00 L167.00 508.00 
		C167.00 508.00 166.00 508.00 165.00 508.00 Z"/>
<path id="path_61" style="fill:#652600;"
	d="M160.00 510.00 L160.00 517.00 L159.00 518.00 L159.00 511.00 C157.00 511.00 159.00 510.00 160.00 510.00 
		Z"/>
<path id="path_62" style="fill:#a27067;"
	d="M156.00 554.00 L152.00 550.00 L149.00 531.00 L152.00 534.00 L156.00 554.00 Z"/>
<path id="path_63" style="fill:none; stroke:#d0b6b2; stroke-linejoin:bevel; stroke-miterlimit:2.00;"
	d="M149.00 530.00 L152.00 534.00 L184.00 527.00 L178.00 525.00 "/>
<path id="path_64" style="fill:none; stroke:#ba958f; stroke-linejoin:bevel; stroke-miterlimit:2.00;"
	d="M153.53 534.00 L156.53 554.00 "/>

</g>
<g  id="bubbla1">
	<animate attributeName="visibility"
		values="hidden;visible;visible"
		keyTimes="0.00;0.31;1"
		dur="12.00s" fill="freeze" begin="11.5s"/>
	<animateTransform attributeName="transform" type="rotate"  additive="replace"
		values="0 19.9 33.3;0 19.9 33.3;-333 19.9 -92;-333 19.9 -92"
		keyTimes="0.00;0.31;0.55;1"
		dur="12.00s" fill="freeze" begin="11.5s"/>
	<animateTransform attributeName="transform" type="translate"  additive="sum"
		values="20,30.3;20,30.3;20,-95;20,-95"
		keyTimes="0.00;0.31;0.55;1"
		dur="12.00s" fill="freeze" begin="11.5s"/>
	<animateTransform attributeName="transform" type="scale"  additive="sum"
		values="0.164,0.164;0.164,0.164;0.164,0.164;0.164,0.164"
		keyTimes="0.00;0.31;0.55;1"
		dur="12.00s" fill="freeze" begin="11.5s"/>

<path style="fill:#d3efe4;"
	d="M18.90 9.00 C19.30 13.00 14.90 18.00 9.00 18.00 C3.10 18.00 -0.00 14.00 -0.00 9.00 
		C-0.00 4.00 4.00 -0.90 9.00 0.00 C14.00 0.90 18.40 4.00 18.90 9.00 
		Z"/>

</g>
<g  id="bubbla2">
	<animate attributeName="visibility"
		values="hidden;visible;visible"
		keyTimes="0.00;0.32;1"
		dur="12.00s" fill="freeze" begin="11.5s"/>
	<animateTransform attributeName="transform" type="rotate"  additive="replace"
		values="0 27.1 37.6;0 27.1 37.6;-523 28.6 -85.6;-523 28.6 -85.6"
		keyTimes="0.00;0.32;0.62;1"
		dur="12.00s" fill="freeze" begin="11.5s"/>
	<animateTransform attributeName="transform" type="translate"  additive="sum"
		values="26.9,34.5;26.9,34.5;28.4,-88.8;28.4,-88.8"
		keyTimes="0.00;0.32;0.62;1"
		dur="12.00s" fill="freeze" begin="11.5s"/>
	<animateTransform attributeName="transform" type="scale"  additive="sum"
		values="0.23,0.23;0.23,0.23;0.23,0.23;0.23,0.23"
		keyTimes="0.00;0.32;0.62;1"
		dur="12.00s" fill="freeze" begin="11.5s"/>

<path style="fill:#d3efe4;"
	d="M18.90 9.00 C19.30 13.00 14.90 18.00 9.00 18.00 C3.10 18.00 -0.00 14.00 -0.00 9.00 
		C-0.00 4.00 4.00 -0.90 9.00 0.00 C14.00 0.90 18.40 4.00 18.90 9.00 
		Z"/>
</g>
</g>

<!-- SC3 -->

<g id="SC3">
	<animate attributeName="visibility"
		values="hidden;visible"
		keyTimes="0.00;1"
		dur="23.5s" fill="freeze"/>
<g  id="BG2">
	<animateTransform attributeName="transform" type="translate"  additive="replace"
		values="-72,-20;-342,-20"
		keyTimes="0.00;1"
		dur="5.00s" fill="freeze" begin="23.5s"/>

<path id="path_03" style="fill:#a2b5f5;"
	d="M535.28 277.00 L535.28 6.00 C534.28 6.00 532.28 6.00 529.28 6.00 C502.00 6.00 502.00 0.48 476.00 0.00 
		C451.00 0.00 451.00 6.00 425.00 6.00 C398.00 6.00 398.00 0.37 372.00 0.00 
		C346.00 0.00 346.00 6.00 320.00 6.00 C294.00 6.00 294.00 0.27 268.00 0.00 
		C242.00 0.00 242.00 6.00 216.00 6.00 C190.00 6.00 190.00 0.16 164.00 0.00 
		C138.00 0.00 138.00 6.00 112.00 6.00 C85.00 6.00 85.00 0.59 59.00 0.00 
		C33.00 0.33 33.00 6.00 7.00 6.00 C4.00 6.00 2.00 6.00 0.60 6.00 
		L0.60 277.00 L535.28 277.00 Z"/>
</g>
<g  id="Pose">
	<animateTransform attributeName="transform" type="rotate"  additive="replace"
		values="0 7 62;0 7 62;2.43 7 27.7;4.26 7 2;-0.111 7 2;-0.111 7 2"
		keyTimes="0.00;0.67;0.75;0.81;0.92;1"
		dur="5.00s" fill="freeze" begin="23.5s"/>
	<animateTransform attributeName="transform" type="translate"  additive="sum"
		values="-30,1.77;-30,1.77;-30,-32.5;-30,-58.2;-30,-58.2;-30,-58.2"
		keyTimes="0.00;0.67;0.75;0.81;0.92;1"
		dur="5.00s" fill="freeze" begin="23.5s"/>
	<animateTransform attributeName="transform" type="scale"  additive="sum"
		values="0.387,0.387;0.387,0.387;0.387,0.387;0.387,0.387;0.387,0.387;0.387,0.387"
		keyTimes="0.00;0.67;0.75;0.81;0.92;1"
		dur="5.00s" fill="freeze" begin="23.5s"/>

<path id="path_03_21" style="fill:#c3a890;"
	d="M88.00 178.00 C87.00 175.00 86.00 168.00 93.00 154.00 L85.00 154.00 C85.00 154.00 80.00 174.00 85.00 180.00 
		C82.00 181.00 78.00 183.00 77.00 187.00 C75.00 187.00 70.00 186.00 71.00 190.00 
		C72.00 190.00 74.00 190.00 75.00 190.00 C73.00 193.00 75.00 195.00 78.00 195.00 
		C78.00 194.00 79.00 192.00 79.00 191.00 C81.00 198.00 88.00 191.00 82.00 189.00 
		C85.00 189.00 88.00 188.00 86.00 184.00 C88.00 184.00 92.00 184.00 91.00 181.00 
		C92.00 179.00 90.00 178.00 88.00 178.00 Z"/>
<path id="path_04" style="fill:#c3a890;"
	d="M63.00 148.00 C64.00 147.00 57.00 148.00 57.00 148.00 C57.00 148.00 52.00 154.00 55.00 173.00 
		C52.00 173.00 47.00 174.00 44.00 177.00 C42.00 176.00 38.00 174.00 38.00 178.00 
		C39.00 178.00 41.00 179.00 42.00 179.00 C39.00 181.00 40.00 184.00 43.00 184.00 
		C43.00 183.00 44.00 182.00 46.00 181.00 C46.00 188.00 55.00 183.00 49.00 180.00 
		C51.00 181.00 55.00 180.00 55.00 177.00 C57.00 177.00 61.00 178.00 60.00 175.00 
		C60.00 175.00 59.00 173.00 57.00 172.00 C57.00 166.00 57.00 155.00 63.00 148.00 
		Z"/>
<path id="path_05" style="fill:#c3a890;"
	d="M173.00 86.00 C167.00 91.00 153.00 101.00 144.00 107.00 C122.00 121.00 106.00 122.00 106.00 122.00 
		C101.00 122.00 95.00 126.00 95.00 132.00 C95.00 138.00 98.00 137.00 104.00 137.00 
		C105.00 137.00 127.00 146.00 156.00 131.00 C170.00 123.00 182.00 113.00 191.00 97.00 
		C193.00 92.00 194.00 86.00 190.00 82.00 C183.00 80.00 178.00 82.00 173.00 86.00 
		Z"/>
<path id="path_06" style="fill:#b89e87;"
	d="M37.00 86.00 C46.00 87.00 54.00 86.00 70.00 84.00 L70.00 78.00 C57.00 80.00 50.00 82.00 42.00 82.00 
		C28.00 81.00 22.00 78.00 19.00 77.00 C16.00 74.00 12.00 71.00 11.00 71.00 
		C8.00 71.00 11.00 74.00 12.00 76.00 C11.00 76.00 6.00 76.00 5.00 77.00 
		C5.00 79.00 9.00 79.00 11.00 78.00 C10.00 78.00 7.00 81.00 8.00 83.00 
		C9.00 84.00 12.00 83.00 13.00 82.00 C14.00 84.00 18.00 84.00 20.00 82.00 
		C24.00 82.00 30.00 85.00 37.00 86.00 Z"/>
<path id="path_07" style="fill:#c3a890;"
	d="M82.00 38.00 C82.00 38.16 98.00 25.00 96.00 20.00 C95.00 16.00 73.00 17.00 73.00 17.00 
		C73.00 17.00 83.00 2.00 81.00 0.00 C78.00 -2.00 0.36 36.00 0.36 36.00 
		C0.36 36.00 5.36 51.00 33.36 64.00 C60.36 76.00 84.36 75.00 84.36 75.00 
		L82.00 38.00 Z"/>
<path id="path_08" style="fill:#6a5140;"
	d="M66.00 39.00 C65.00 44.00 59.00 47.00 54.00 45.00 C49.00 44.00 46.00 38.00 48.00 33.00 
		C49.00 28.00 55.00 25.00 60.00 27.00 C64.00 28.00 67.00 33.00 66.00 39.00 
		Z"/>
<path id="path_09" style="fill:#000000;"
	d="M8.00 38.00 C8.00 40.00 5.00 41.00 3.00 40.00 C1.00 40.00 0.00 37.00 1.00 35.00 
		C1.00 33.00 4.00 32.00 6.00 33.00 C7.00 33.00 9.00 35.00 8.00 38.00 
		Z"/>
<path id="path_10" style="fill:#7f7f7f;"
	d="M5.00 35.00 C5.00 35.00 4.00 36.00 4.00 35.00 C4.00 35.00 3.00 35.00 4.00 34.00 
		C4.00 34.00 4.00 33.00 5.00 34.00 C5.00 34.00 5.00 34.00 5.00 35.00 
		Z"/>
<path id="path_11" style="fill:#000000;"
	d="M59.00 37.00 C59.00 38.00 57.00 39.00 56.00 38.00 C55.00 38.00 54.00 36.00 55.00 35.00 
		C55.00 34.00 57.00 33.00 58.00 34.00 C58.00 33.00 59.00 35.00 59.00 37.00 
		Z"/>
<path id="path_12" style="fill:#ffffff;"
	d="M57.00 35.00 C57.00 35.00 56.00 36.00 55.00 36.00 C55.00 36.00 54.00 35.00 54.00 34.00 
		C54.00 34.00 55.00 33.00 56.00 33.00 C57.00 34.00 57.00 34.00 57.00 35.00 
		Z"/>
<path id="path_13" style="fill:#6a5140;"
	d="M51.00 21.00 C50.00 26.00 44.00 29.00 39.00 27.00 C34.00 26.00 31.00 20.00 33.00 15.00 
		C34.00 10.00 40.00 7.00 45.00 9.00 C50.00 10.00 53.00 15.00 51.00 21.00 
		Z"/>
<path id="path_14" style="fill:#000000;"
	d="M44.00 19.00 C44.00 20.00 42.00 21.00 41.00 20.00 C40.00 20.00 39.00 18.00 40.00 17.00 
		C40.00 16.00 42.00 15.00 43.00 16.00 C43.00 15.00 44.00 17.00 44.00 19.00 
		Z"/>
<path id="path_15" style="fill:#ffffff;"
	d="M42.00 18.00 C42.00 18.00 41.00 19.00 40.00 19.00 C40.00 19.00 39.00 18.00 39.00 17.00 
		C39.00 17.00 40.00 16.00 41.00 16.00 C42.00 16.00 43.00 17.00 42.00 18.00 
		Z"/>
<path id="path_16" style="fill:#b89e87;"
	d="M89.00 76.00 L87.00 69.00 C87.00 69.27 114.00 69.00 132.00 31.00 C131.00 29.00 132.00 23.00 133.00 21.00 
		C136.00 17.00 137.00 21.00 135.00 24.00 C137.00 22.00 143.00 21.00 146.00 23.00 
		C146.00 26.00 142.00 27.00 140.00 27.00 C141.00 27.00 145.00 30.00 144.00 32.00 
		C144.00 34.00 139.00 32.00 138.00 32.00 C138.00 35.00 137.00 36.00 134.00 35.00 
		C121.00 64.00 106.00 67.00 89.00 76.00 Z"/>
<path id="path_17" style="fill:#6a5140;"
	d="M132.00 114.00 L139.00 139.00 C141.00 139.00 144.00 138.00 146.00 137.00 L141.00 109.00 
		C138.00 111.00 135.00 112.00 132.00 114.00 Z"/>
<path id="path_18" style="fill:#6a5140;"
	d="M148.00 104.00 L159.00 129.00 C161.00 128.00 163.00 126.00 166.00 125.00 L156.00 99.00 
		C154.00 100.00 151.00 103.00 148.00 104.00 Z"/>
<path id="path_19" style="fill:#6a5140;"
	d="M173.00 86.00 C171.00 87.00 168.00 90.00 165.00 92.00 L177.00 116.00 C179.00 114.00 181.00 111.00 183.00 109.00 
		L174.00 86.00 C173.00 86.00 173.00 86.00 173.00 86.00 Z"/>
<path id="path_20" style="fill:#6a5140;"
	d="M111.00 122.00 L117.00 142.00 C119.00 142.00 122.00 142.00 125.00 142.00 L121.00 119.00 
		C117.00 120.00 114.00 121.00 111.00 122.00 Z"/>
<path id="path_21" style="fill:#6a5140;"
	d="M176.00 84.00 L188.00 100.00 C188.00 100.00 188.00 100.00 188.00 99.00 C188.00 99.00 188.00 99.00 188.00 99.00 
		L183.00 84.00 C182.00 81.00 179.00 82.00 176.00 84.00 Z"/>
<path id="path_22" style="fill:#c3a890;"
	d="M81.00 64.00 C81.00 64.13 94.00 64.00 104.00 88.00 C108.00 99.00 106.00 119.00 103.00 128.00 
		C99.00 137.00 92.00 135.00 82.00 133.00 C64.00 129.00 66.00 130.00 69.00 116.00 
		C72.00 103.00 69.00 69.00 69.00 69.00 L81.00 64.00 Z"/>
<path id="path_23" style="fill:#e93822;"
	d="M68.00 111.00 C68.00 111.00 59.00 122.00 54.00 141.00 L74.00 146.00 L76.00 139.00 
		C77.00 139.00 79.00 140.00 82.00 141.00 C82.00 143.00 81.00 145.00 80.00 149.00 
		L101.00 150.00 C101.00 150.20 103.00 135.00 109.00 113.00 L68.00 111.00 Z"/>
<path id="path_24" style="fill:#fc583a;"
	d="M105.00 151.00 L79.00 148.00 L77.00 157.00 L104.00 161.00 L105.00 151.00 Z"/>
<path id="path_25" style="fill:#fc583a;"
	d="M51.00 139.00 L75.00 145.00 L73.00 153.00 L49.00 149.00 L51.00 139.00 Z"/>
<path id="path_26" style="fill:#b12113;"
	d="M76.00 140.00 C76.00 140.00 68.00 135.00 67.00 130.00 C67.00 130.00 67.00 142.00 74.00 145.00 
		L76.00 140.00 Z"/>
<path id="path_27" style="fill:none; stroke:#893022; stroke-linejoin:bevel; stroke-miterlimit:2.00;"
	d="M67.00 114.00 L108.00 117.00 "/>
<path id="path_28" style="fill:#ffffff;"
	d="M24.00 48.00 L51.00 52.00 C51.00 52.00 47.00 61.00 37.00 58.00 C26.00 57.00 24.00 48.00 24.00 48.00 
		Z"/>
<path id="path_29" style="fill:none; stroke:#6a5140; stroke-linejoin:bevel; stroke-miterlimit:2.00;"
	d="M24.00 48.00 L51.00 52.00 "/>

</g>
<g  id="FG2">
	<animateTransform attributeName="transform" type="translate"  additive="replace"
		values="-460,-13;-182,-13"
		keyTimes="0.00;1"
		dur="5.00s" fill="freeze" begin="23.5s"/>

<path id="path_03_84" style="fill:#788ee8;"
	d="M457.00 0.00 C411.00 0.00 411.00 12.00 364.00 12.00 C317.00 12.00 317.00 0.27 270.00 0.00 
		C224.00 0.00 224.00 12.00 177.00 12.00 C129.00 12.00 129.00 0.82 82.00 0.00 
		C39.00 0.36 36.10 10.00 0.12 12.00 L0.12 260.00 L535.12 260.00 L535.12 11.00 
		C503.00 9.00 498.00 0.46 457.00 0.00 Z"/>
</g>
</g>

</svg>
