<?xml version="1.0" standalone="yes"?>
<svg height="402" width="329">
  <metadata>
    <rdf:RDF xmlns:cc="http://web.resource.org/cc/" xmlns:dc="http://purl.org/dc/elements/1.1/" xmlns:rdf="http://www.w3.org/1999/02/22-rdf-syntax-ns#">
      <cc:Work rdf:about="">
        <dc:title>Clipart by Nicu Buculei - contour_chipmunk</dc:title>
        <dc:description></dc:description>
        <dc:subject>
          <rdf:Bag>
            <rdf:li>mammal</rdf:li>
            <rdf:li></rdf:li>
            <rdf:li>animal</rdf:li>
          </rdf:Bag>
        </dc:subject>
        <dc:publisher>
          <cc:Agent rdf:about="http://www.openclipart.org">
            <dc:title>Nicu Buculei</dc:title>
          </cc:Agent>
        </dc:publisher>
        <dc:creator>
          <cc:Agent>
            <dc:title>Nicu Buculei</dc:title>
          </cc:Agent>
        </dc:creator>
        <dc:rights>
          <cc:Agent>
            <dc:title>Nicu Buculei</dc:title>
          </cc:Agent>
        </dc:rights>
        <dc:date></dc:date>
        <dc:format>image/svg+xml</dc:format>
        <dc:type rdf:resource="http://purl.org/dc/dcmitype/StillImage"/>
        <cc:license rdf:resource="http://web.resource.org/cc/PublicDomain"/>
        <dc:language>en</dc:language>
      </cc:Work>
      <cc:License rdf:about="http://web.resource.org/cc/PublicDomain">
        <cc:permits rdf:resource="http://web.resource.org/cc/Reproduction"/>
        <cc:permits rdf:resource="http://web.resource.org/cc/Distribution"/>
        <cc:permits rdf:resource="http://web.resource.org/cc/DerivativeWorks"/>
      </cc:License>
    </rdf:RDF>
  </metadata>
  <path d="M74 195C75.3725 212.391 77.9169 230.623 74.7793 248C73.5116 255.021 68.0771 261.076 66.0432 268C63.4073 276.974 64.1142 286.801 62.7917 296C61.4102 305.608 51.7667 325.286 58.7415 333.682C63.3479 339.227 78.1726 340.747 81.2577 332.981C84.1069 325.81 79.1351 320.633 78.5887 314C77.8769 305.358 79.9422 287.128 82.9938 279C86.2128 270.426 92.8709 263.352 98.0656 256C111.835 236.511 129.714 216.152 139 194L140 194C142.101 199.455 147.647 202.194 149.684 207.174C151.2 210.88 148.824 216.032 149.097 220C149.463 225.308 153.059 229.818 153.298 235C153.82 246.307 143.735 255.378 142.407 266C141.761 271.166 145.854 276.677 148.11 281C152.364 289.152 155.375 297.914 159.861 306C170.042 324.353 186.079 344.594 208 329C208 340.664 213.058 349.641 213.625 361C213.945 367.398 211.89 376.369 216.514 381.772C222.662 388.957 250.067 388.662 251.753 376.999C253.412 365.528 238.571 367.465 236.317 358.981C230.606 337.488 229.435 313.135 227.91 291C226.134 265.207 221.789 244.31 237 221C244.306 229.601 241.587 236.841 243.666 247C250.146 278.66 240.017 312.225 248.519 344C251.791 356.231 262.244 358.001 273 358C278.336 358 285.084 358.559 286.678 351.995C290.005 338.3 272.213 339.348 269.279 329.957C264.115 313.434 269.708 296.395 270.91 280C272.175 262.734 268.416 239.864 276.327 224.019C279.517 217.63 288.026 215.193 292.881 209.907C298.006 204.327 302.743 190.313 305.112 183C310.321 166.921 315.192 148.962 315.961 132C316.21 126.489 313.908 121.233 314.104 116C314.298 110.833 318.254 106.42 317.566 101C316.534 92.8652 306.337 88.6499 305.353 81C304.704 75.9598 307.871 69.9579 308.675 65C310.16 55.842 310.909 46.2697 311.95 37C312.586 31.3304 314.257 24.2076 310.272 19.2785C305.077 12.8528 292.396 14.4596 286 17.6697C279.016 21.1752 273.895 27.1942 267 30.7261C254.399 37.1804 233.189 39.3671 219 37.0625C205.963 34.945 198.241 19.034 187 13.3781C182.811 11.2704 175.781 8.25348 171.228 11.0278C167.283 13.432 167.995 19.0619 168 23C168.014 34.7134 172.371 42.3927 175.487 53C176.376 56.0252 177.674 64.9348 174.643 66.9568C170.85 69.487 165.17 65.0854 161 65.4182C147.203 66.5192 127.601 68.0756 115 74.0502C101.287 80.5519 91.0227 96.2548 80.9468 106.996C68.2206 120.563 53.0365 132.545 42.5478 148.039C38.535 153.967 38.3716 160.943 35.0316 167C27.2671 181.082 18.3857 194.441 16.1806 211C13.8926 228.181 21.4582 252.609 41.9853 236.471C55.5604 225.799 62.5255 207.743 74 195M191 231L194.464 262L208 317C202.748 316.336 195.862 316.464 191.209 313.697C185.402 310.243 182.618 301.73 179.752 296C168.126 272.763 169.078 248.214 191 231z" style="fill:#000000; stroke:none;"/>
</svg>
