<?xml version="1.0" encoding="UTF-8" standalone="no"?>
<!-- Generator: Adobe Illustrator 12.0.0, SVG Export Plug-In . SVG Version: 6.00 Build 51448)  --><svg height="313.735" id="Layer_1" inkscape:version="0.42" sodipodi:docbase="F:\openclip\svg da inviare" sodipodi:docname="Rhinoceros 3d.svg" sodipodi:version="0.32" space="preserve" style="overflow:visible;enable-background:new 0 0 412.554 313.735;" version="1.1" viewBox="0 0 412.554 313.735" width="412.554" xmlns="http://www.w3.org/2000/svg" xmlns:cc="http://web.resource.org/cc/" xmlns:dc="http://purl.org/dc/elements/1.1/" xmlns:inkscape="http://www.inkscape.org/namespaces/inkscape" xmlns:rdf="http://www.w3.org/1999/02/22-rdf-syntax-ns#" xmlns:sodipodi="http://inkscape.sourceforge.net/DTD/sodipodi-0.dtd" xmlns:svg="http://www.w3.org/2000/svg">
  <metadata>
    <rdf:RDF xmlns:cc="http://web.resource.org/cc/" xmlns:dc="http://purl.org/dc/elements/1.1/" xmlns:rdf="http://www.w3.org/1999/02/22-rdf-syntax-ns#">
      <cc:Work rdf:about="">
        <dc:title>Rhinoceros 3D</dc:title>
        <dc:description></dc:description>
        <dc:subject>
          <rdf:Bag>
            <rdf:li>mammal</rdf:li>
            <rdf:li>architetto francesco rollandin</rdf:li>
          </rdf:Bag>
        </dc:subject>
        <dc:publisher>
          <cc:Agent rdf:about="http://www.openclipart.org/">
            <dc:title>Open Clip Art Library</dc:title>
          </cc:Agent>
        </dc:publisher>
        <dc:creator>
          <cc:Agent>
            <dc:title>Architetto Francesco Rollandin</dc:title>
          </cc:Agent>
        </dc:creator>
        <dc:rights>
          <cc:Agent>
            <dc:title>Architetto Francesco Rollandin</dc:title>
          </cc:Agent>
        </dc:rights>
        <dc:date></dc:date>
        <dc:format>image/svg+xml</dc:format>
        <dc:type rdf:resource="http://purl.org/dc/dcmitype/StillImage"/>
        <cc:license rdf:resource="http://web.resource.org/cc/PublicDomain"/>
        <dc:language>en</dc:language>
      </cc:Work>
      <cc:License rdf:about="http://web.resource.org/cc/PublicDomain">
        <cc:permits rdf:resource="http://web.resource.org/cc/Reproduction"/>
        <cc:permits rdf:resource="http://web.resource.org/cc/Distribution"/>
        <cc:permits rdf:resource="http://web.resource.org/cc/DerivativeWorks"/>
      </cc:License>
    </rdf:RDF>
  </metadata>
  <defs id="defs336"/>
  <sodipodi:namedview bordercolor="#666666" borderopacity="1.0" id="base" inkscape:current-layer="Layer_1" inkscape:cx="206.27699" inkscape:cy="156.86749" inkscape:pageopacity="0.0" inkscape:pageshadow="2" inkscape:window-height="510" inkscape:window-width="787" inkscape:window-x="88" inkscape:window-y="116" inkscape:zoom="1.1474653" pagecolor="#ffffff"/>
  <path d="M68.847,248.565c22.002,10.907,39.631-11.937,41.362-31.838  c1.872-21.522-6.264-43.93,0-63.675c-11.905,6.318-34.469,14.734-34.469,30.547C75.74,204.623,66.544,227.112,68.847,248.565" id="path3" style="fill-rule:evenodd;clip-rule:evenodd;fill:#323232;"/>
  <path d="M367.857,197.796C382.53,183.152,386.08,162.26,395,144.448  c6.652-13.282,8.186-32.452,8.186-47.325c0-15.179-2.586-27.138-5.17-40.442c-2.319,14.624-5.084,28.197-11.201,42.164  c-5.839,13.325-15.496,24.065-21.974,36.999c-3.114,6.216-20.134,24.864-23.697,28.397c-6.4,6.344-11.898,13.98-17.657,18.577  c-2.485,20.935,15.435,28.502,33.506,29.589c0.127-0.596,0.292-1.169,0.524-1.703C359.211,206.809,364.664,200.984,367.857,197.796z  " id="path5" style="fill-rule:evenodd;clip-rule:evenodd;fill:#FFFFFF;"/>
  <path d="M323.487,182.817c-0.146,0.116-0.291,0.24-0.438,0.353  c-2.153-4.286-12.843-3.357-17.236-7.745c-6.024-6.018-5.51-10.384-9.477-17.209c-3.184-5.479-6.764-6.884-12.927-6.884  c-3.659,0-8.03,2.819-10.34,2.582c-2.561-0.264-5.378-2.687-7.755-3.872c-8.061-4.025-18.064-9.004-23.267-14.199  c-5.438-5.429-16.371-7.668-16.371-16.349c0-9.965-25.724-25.935-17.665-33.988c9.982-9.977,20.25-30.458,20.25-44.314  c0-2.506,2.33-8.18,0-9.465c-1.782-0.982-7.648,2.475-9.048,3.873c-4.358,4.352-8.588,9.114-13.357,13.337  c3.603-8.827,9.452-17.962,9.478-27.535c0.034-11.958-5.974-12.661-13.355-7.745c-9.062,6.034-10.777,16.627-17.665,24.093  c-5.048,5.471-14.958,10.053-20.681,14.628c0.2-1.112-0.185-2.327,0-3.442c-2.533,2.162-5.864,3.04-8.617,5.163  c-1.666-7.31-3.093-6.029-8.617-7.745c-0.858-0.266-2.613,2.036-3.447,1.721c-0.666-0.251-0.646-2.458-0.862-2.581  c-1.255-0.716-2.345-3.288-3.446-4.302c-2.935-2.707-7.085-3.108-10.34-4.732c-4.583-2.287-9.318,2.531-12.926,1.291  c6.58-5.356-10.112-4.841-11.202-5.163c-4.946-1.461-7.271-5.871-13.787-6.884c-6.519-1.013-10.421,1.094-15.942-2.582  c-4.625-3.078-9.618-5.231-15.079-2.581c-6.944,3.346-18.225,16.045-24.127,25.813c-10.87,17.99-17.829,36.205-24.559,56.361  c-10.714,32.088-15.08,64.881-1.293,94.222c4.447,9.465,11.068,23.107,18.526,30.548c4.814,4.801,7.691,12.554,10.772,18.498  c1.581,3.05,3.591,7.886,6.032,10.325c4.943,4.94,4.357,3.441,11.633,3.441c18.847,0,23.963-13.067,26.282-28.394  c2.518-16.642,4.224-35.517-1.723-51.629c4.014,5,9.41,1.537,12.064-2.581c4.002,4.563,1.292,12.903,3.877,18.07  c1.976,3.948,5.602,13.865,5.602,18.069c0,3.176,7.109,15.708,9.909,18.501c3.267,3.259,9.245,9.425,11.202,13.337  c2.096,4.188,13.482,6.493,17.665,6.883c8.783,0.819,10.351,2.45,17.234,7.743c10.752,8.271,25.376,15.615,38.776,11.188  c-1.77,0.518-3.228,1.314-5.17,1.722c7.848,3.914,18.189,11.186,26.712,11.186c3.848,0,8.825,2.042,12.926,0.86  c4.061-1.17,5.097-4.106,8.617-6.024c-1.071,0.693-2.036,2.285-3.447,3.441c6.46,4.332,17.586,9.009,24.99,10.327  c11.161,1.986,19.356-2.379,29.298-6.022c1.622,6.65-2.201,24.219,4.307,26.674c12.281-6.206,28.817-12.814,35.762-26.676  c1.538-3.068,2.638-7.382,3.878-9.464c1.272-2.136,4.415-4.51,6.031-6.884c4.898-7.195,4.2-12.082,4.31-20.651  c0.057-4.487,1.384-9.989,5.17-13.768c3.577-3.57,2.628-9.556,4.738-13.767c1.4-2.796,0.98-6.457,1.631-9.485  C338.921,211.319,321.001,203.751,323.487,182.817z" id="path7" style="fill-rule:evenodd;clip-rule:evenodd;fill:#CBCBCB;"/>
  <path d="M59.369,20.541  c5.461-2.65,10.455-0.497,15.079,2.581c5.521,3.676,9.424,1.569,15.942,2.582c6.516,1.013,8.84,5.422,13.787,6.884  c1.09,0.321,17.781-0.194,11.202,5.163c3.608,1.24,8.344-3.578,12.926-1.291c3.339,1.666,6.993,2.577,10.34,4.732" id="path9" style="fill:none;stroke:#000000;stroke-width:0.7496;stroke-linecap:square;stroke-miterlimit:10;"/>
  <path d="M138.645,41.192  c1.246,1.165,2.119,3.261,3.446,4.302c3.062,2.4,0.894-0.2,4.309,0.86c5.524,1.716,6.951,0.436,8.617,7.745  c2.753-2.123,6.084-3.001,8.617-5.163c-0.185,1.115,0.2,2.33,0,3.442c5.722-4.575,15.633-9.157,20.681-14.628  c6.627-7.183,8.674-16.487,16.373-23.232" id="path11" style="fill:none;stroke:#000000;stroke-width:0.7496;stroke-linecap:square;stroke-miterlimit:10;"/>
  <path d="M200.688,14.518  c6.068-8.466,14.648-4.279,14.648,6.023c0,10.05-5.703,19.148-9.478,28.396c3.925-3.475,19.864-22.694,23.265-15.489" id="path13" style="fill:none;stroke:#000000;stroke-width:0.7496;stroke-linecap:square;stroke-miterlimit:10;"/>
  <path d="M229.123,33.447  c0.193,6.816-1.676,17.977-4.738,24.093c-3.319,6.629-5.856,16.607-11.202,21.942c-3.959,3.952-11.099,14.034-3.017,18.07  c7.198,3.594,8.734,11.001,13.788,16.779" id="path15" style="fill:none;stroke:#000000;stroke-width:0.7496;stroke-linecap:square;stroke-miterlimit:10;"/>
  <path d="M223.954,114.332  c2.474,4.002,1.653,7.673,5.17,11.187c2.398,2.396,0.437,4.302,4.309,4.302c1.978,0,3.668,1.481,5.17,2.581  c1.617,1.184,2.738,3.057,4.309,4.303c1.462,1.16,3.329,2.077,6.031,3.441c3.446,1.739,7.379,4.696,11.203,6.883  c2.951,1.689,7.134,5.134,10.34,6.023c4.995,1.384,6.405-1.211,12.064-1.721c7.174-0.646,11.789,2.328,14.648,8.605" id="path17" style="fill:none;stroke:#000000;stroke-width:0.7496;stroke-linecap:square;stroke-miterlimit:10;"/>
  <path d="M297.198,159.937  c3.59,7.843,3.554,10.431,9.91,16.779c4.251,4.247,13.623,1.84,15.941,6.453c7.671-5.9,16.142-16.881,24.126-24.954" id="path19" style="fill:none;stroke:#000000;stroke-width:0.7496;stroke-linecap:square;stroke-miterlimit:10;"/>
  <path d="M347.175,158.215  c11.417-14.763,21.785-28.842,31.884-44.744c10.595-16.685,16.412-39.443,18.957-55.931" id="path21" style="fill:none;stroke:#000000;stroke-width:0.7496;stroke-linecap:square;stroke-miterlimit:10;"/>
  <path d="M398.016,57.541  c2.713,10.834,5.17,21.186,5.17,33.558c0,6.405-0.86,12.78-0.86,18.931c0,7.113-3.205,12.944-3.447,19.791" id="path23" style="fill:none;stroke:#000000;stroke-width:0.7496;stroke-linecap:square;stroke-miterlimit:10;"/>
  <path d="M398.878,129.82  c-2.843,20.119-13.229,39.59-23.266,56.792c-5.579,9.561-15.012,17.497-18.096,27.533c-1.375,4.475-2.037,9.252-3.447,13.769  c-1.875,6.006-6.419,10.452-7.756,16.35" id="path25" style="fill:none;stroke:#000000;stroke-width:0.7496;stroke-linecap:square;stroke-miterlimit:10;"/>
  <path d="M346.314,244.263  c-3.569,4.353,0.855,16.512-2.585,23.231c-1.339,2.615-4.019,4.508-6.031,6.884c-2.928,3.453-3.179,5.165-5.17,9.466  c-7.106,15.342-23.586,22.45-37.055,29.256c0.131-1.691-0.689-0.453-1.722-0.86" id="path27" style="fill:none;stroke:#000000;stroke-width:0.7496;stroke-linecap:square;stroke-miterlimit:10;"/>
  <path d="M293.751,312.24  c-4.611-6.161-0.777-18.398-2.585-25.813c-9.941,3.644-18.137,8.009-29.298,6.022c-7.404-1.318-18.53-5.995-24.99-10.327  c1.775-1.304,2.771-3.816,2.585-3.441" id="path29" style="fill:none;stroke:#000000;stroke-width:0.7496;stroke-linecap:square;stroke-miterlimit:10;"/>
  <path d="M239.463,278.68  c-8.6,16.056-36.476-0.576-47.393-6.021c1.942-0.407,3.4-1.204,5.17-1.722c-9.506,3.141-17.293-0.099-26.712-3.442" id="path31" style="fill:none;stroke:#000000;stroke-width:0.7496;stroke-linecap:square;stroke-miterlimit:10;"/>
  <path d="M170.528,267.495  c-7.804-4.008-13.013-11.229-20.681-15.058c-7.06-3.525-16.321,1.351-22.835-5.163c-10.368-10.368-23.635-23.848-26.282-39.15" id="path33" style="fill:none;stroke:#000000;stroke-width:0.7496;stroke-linecap:square;stroke-miterlimit:10;"/>
  <path d="M100.73,208.124  c-2.687-4.93-2.956-10.968-4.308-16.35c-0.991-3.942-0.581-11.359-3.447-14.628c-2.654,4.118-8.05,7.581-12.064,2.581  c2.51,6.802,4.308,18.445,4.308,25.384c0,8.894-3.368,17.079-2.585,26.245" id="path35" style="fill:none;stroke:#000000;stroke-width:0.7496;stroke-linecap:square;stroke-miterlimit:10;"/>
  <path d="M82.634,231.356  c-1.713,6.541-2.021,14.275-6.032,19.79c-4.591,6.313-14.769,6.349-22.835,9.035c-12.814,4.268-19.003-29.696-28.867-35.71" id="path37" style="fill:none;stroke:#000000;stroke-width:0.7496;stroke-linecap:square;stroke-miterlimit:10;"/>
  <path d="M24.9,224.471  c-1.229-5.007-9.479-11.559-9.479-16.348c0-2.905-6.036-13.773-8.186-15.919c-8.981-8.97-6.627-31.58-6.463-44.314" id="path39" style="fill:none;stroke:#000000;stroke-width:0.7496;stroke-linecap:square;stroke-miterlimit:10;"/>
  <path d="M0.772,147.89  c-0.697-8.455,2.098-22.25,5.602-29.256c5.866-11.729,8.752-28.377,12.925-40.873c3.559-10.654,9.36-20.973,15.08-30.546  c3.952-6.613,11.199-11.501,14.649-18.07" id="path41" style="fill:none;stroke:#000000;stroke-width:0.7496;stroke-linecap:square;stroke-miterlimit:10;"/>
  <path d="M49.028,29.146  c4.241-3.78,6.801-6.899,10.341-8.605" id="path43" style="fill:none;stroke:#000000;stroke-width:0.7496;stroke-linecap:square;stroke-miterlimit:10;"/>
  <path d="M59.369,20.541  c5.461-2.65,10.455-0.497,15.079,2.581c5.521,3.676,9.424,1.569,15.942,2.582c6.516,1.013,8.84,5.422,13.787,6.884  c1.09,0.321,17.781-0.194,11.202,5.163c3.608,1.24,8.344-3.578,12.926-1.291c3.255,1.624,7.405,2.025,10.34,4.732  c1.101,1.015,2.191,3.586,3.446,4.302c0.216,0.124,0.197,2.33,0.862,2.581c0.833,0.314,2.589-1.987,3.447-1.721  c5.524,1.716,6.951,0.436,8.617,7.745c2.753-2.123,6.084-3.001,8.617-5.163c-0.185,1.115,0.2,2.33,0,3.442  c5.722-4.575,15.633-9.157,20.681-14.628c6.888-7.466,8.603-18.059,17.665-24.093c7.382-4.916,13.39-4.213,13.355,7.745  c-0.026,9.572-5.875,18.708-9.478,27.535c4.769-4.223,8.999-8.985,13.357-13.337c1.399-1.398,7.266-4.855,9.048-3.873  c2.33,1.285,0,6.959,0,9.465c0,13.856-10.268,34.337-20.25,44.314c-8.059,8.053,17.665,24.023,17.665,33.988  c0,8.681,10.933,10.919,16.371,16.349c5.202,5.195,15.206,10.173,23.267,14.199c2.377,1.186,5.194,3.608,7.755,3.872  c2.31,0.237,6.681-2.582,10.34-2.582c6.163,0,9.743,1.405,12.927,6.884c3.967,6.825,3.452,11.191,9.477,17.209  c4.394,4.388,15.083,3.459,17.236,7.745c5.919-4.552,11.532-12.425,18.095-18.93c3.563-3.533,8.35-7.207,10.771-12.048  c3.713-7.42,10.124-12.594,12.926-16.349c8.649-11.594,16.135-23.674,21.974-36.999c6.117-13.966,8.882-27.54,11.201-42.164  c2.584,13.305,5.17,25.263,5.17,40.442c0,14.874-2.677,33.53-8.186,47.325c-6.878,17.223-12.471,38.704-27.144,53.349  c-3.193,3.188-8.646,9.013-10.34,12.906c-1.416,3.256-0.479,7.844-2.155,11.188c-2.11,4.211-1.161,10.196-4.738,13.767  c-3.786,3.778-5.113,9.28-5.17,13.768c-0.109,8.569,0.589,13.456-4.31,20.651c-1.616,2.374-4.759,4.748-6.031,6.884  c-1.24,2.082-2.34,6.396-3.878,9.464c-6.944,13.861-23.48,20.47-35.762,26.676c-6.508-2.455-2.685-20.023-4.307-26.674  c-9.941,3.644-18.137,8.009-29.298,6.022c-7.404-1.318-18.53-5.995-24.99-10.327c1.411-1.156,2.376-2.748,3.447-3.441  c-3.521,1.918-4.557,4.854-8.617,6.024c-4.101,1.182-9.078-0.86-12.926-0.86c-8.523,0-18.865-7.271-26.712-11.186  c1.942-0.407,3.4-1.204,5.17-1.722c-13.4,4.428-28.024-2.916-38.776-11.188c-6.883-5.293-8.451-6.924-17.234-7.743  c-4.183-0.39-15.569-2.694-17.665-6.883c-1.957-3.912-7.935-10.078-11.202-13.337c-2.8-2.793-9.909-15.325-9.909-18.501  c0-4.204-3.626-14.121-5.602-18.069c-2.585-5.167,0.125-13.508-3.877-18.07c-2.654,4.118-8.05,7.581-12.064,2.581  c5.947,16.112,4.241,34.987,1.723,51.629c-2.318,15.326-7.435,28.394-26.282,28.394c-7.275,0-6.689,1.499-11.633-3.441  c-2.44-2.439-4.451-7.275-6.032-10.325c-3.081-5.944-5.958-13.697-10.772-18.498c-7.458-7.44-14.079-21.083-18.526-30.548  c-13.787-29.341-9.421-62.133,1.293-94.222c6.73-20.157,13.689-38.372,24.559-56.361C41.144,36.586,52.424,23.886,59.369,20.541" id="path45" style="fill:none;stroke:#000000;stroke-width:0.7496;stroke-linecap:square;stroke-miterlimit:10;"/>
  <path d="M175.697,269.215c-11.758-0.993-19.048-17.209-30.159-17.209  c-10.056,0-22.542-3.717-27.143-12.907c-2.333-4.66-6.247-8.171-8.617-12.906c-2.705-5.402-5.347-9.705-7.324-14.628  c-2.063-5.138-3.106-10.008-4.309-15.489c-1.129-5.146-1.401-12.427-3.447-17.208c5.247,3.93,3.443,9.459,7.325,13.337  c1.412,1.41,3.016,5.847,3.016,8.175c0,2.071,4.76,4.14,6.032,5.162c2.076-2.417,13.176-8.703,17.234-6.884  c6.841,3.068-0.467,7.318-2.585,11.186c6.07,0.435,12.671-4.179,17.234-6.022c-2.124,6.901-8.437,11.587-13.787,15.488  c5.033,0.706,17.451-1.775,19.818-5.164c-2.644,1.325-12.13,12.314-11.202,16.35c1.608,6.995,19.632-0.657,24.127-0.86  c-1.743-3.624-6.222,0.574-7.755,3.441c-2.43,4.542,0,10.883,0,15.489C154.155,257.644,169.774,263.816,175.697,269.215" id="path47" style="fill-rule:evenodd;clip-rule:evenodd;fill:#656565;"/>
  <path d="M380.783,150.471c0,14.977-7.41,33.041-14.649,46.466  c-3.506,6.504-6.957,10.508-8.616,17.208c-1.986,8.029-3.278,19.622-9.479,25.815c-5.904,5.896-0.441,16.665-3.448,24.093  c-2.117,5.231-6.523,11.432-12.063,14.197c-9.694,4.842-16.214,3.327-21.112-6.453c-3.28-6.549,4.081-15.895,6.894-21.511  c0.415-0.51,0.56-1.084,0.431-1.722c-12.452,2.995-8.175,18.925-12.063,27.536c-9.157-8.781,2.07-27.711,6.894-36.141  c-5.176-1.201-16.353,11.055-19.818,14.628c4.096-6.652,2.327-15.436,2.585-23.232c0.272-8.259,6.4-13.489,8.616-22.372  c2.495,9.309,6.591,26.781,19.818,24.953c-3.965-4.255-7.967-9.351-11.201-13.769c5.268,1.62,10.871,5.778,16.372,6.885  c-3.098-5.643-10.393-16.666-11.202-23.232c3.384,0.8,14.325,14.001,15.511,9.465c1.17-4.48-10.329-11.927-11.201-17.21  c6.882,2.448,6.812,6.448,14.648,2.582c6.697-3.305,12.242-7.919,17.234-12.906c4.279-4.277,11.206-11.199,14.218-17.21  C372.115,162.623,380.059,156.631,380.783,150.471" id="path49" style="fill-rule:evenodd;clip-rule:evenodd;fill:#656565;"/>
  <path d="M215.335,23.122c-1.704,9.067-6.21,16.934-9.478,25.814  c5.095-4.622,25.804-28.64,22.405-8.604c-1.563,9.206-4.017,16.616-8.187,24.954c-1.789,3.576-2.58,6.873-4.309,10.325  c-1.814,3.625-5.473,5.96-7.325,9.465c-4.675,8.849,2.348,8.985,5.603,15.489c1.253,2.506,3.796,5.002,5.17,7.744  c0.781,1.56,2.03,3.36,3.446,4.302c3.688,2.455,1.03,5.237,2.154,7.745c0.681,1.517,2.654,2.694,3.447,4.302  c1.675,3.399,2.18,3.512,4.307,5.163c2.742,2.125,6.491,3.04,9.479,6.022c5.619,5.61,14.388,8.65,22.405,13.768  c12.551,8.014,26.101-5.172,32.744,12.046c2.952,7.65,5.644,13.533,13.787,17.211c3.388,1.527,7.319,0.641,10.341,2.15  c3.193,1.597,0.729,10.713,0.86,14.198c-5.424-4.13-9.471-9.658-9.479-0.861c-0.006,6.877,4.521,16.007,6.894,22.372  c-3.192-5.579-6.329-13.203-10.771-17.639c-6.272-6.266-9.961,11.046-10.772,14.197c-3.735-1.865-7.247-1.845-6.286-6.168  c0.903-4.054,1.699-6.571-3.19-8.46c-0.287,4.016-0.575,8.03-0.862,12.045c-6.671-11.746-10.784,3.03-16.373,5.164  c-3.779,1.441-4.131-2.033-6.032-1.722c-2.272,0.374-6.648,4.3-8.617,6.023c-3.555,3.117-11.465,11.037-17.233,6.024  c-6.11-5.311,4.19-13.894,8.617-16.35c-1.745-3.423-3.39-2.85-6.462-3.872c-3.708-1.233-3.562-1.485-6.464-3.872  c-3.88-3.19-7.16-8.211-13.787-9.465c5.884-5.142,19.75-6.401,26.713-3.442c6.33,2.69,16.799,14.01,24.128,10.326  c-6.873-2.35-5.918-1.796-6.895-6.023c-1.266-5.48-0.725-7.607-5.169-12.047c-5.544-5.536-17.431-4.252-24.128-2.58  c2.164-1.337,4.627-2.744,6.894-4.304c-2.018-0.797-4.169-2.86-3.017-5.161c2.226-4.44,1.75-3.868,5.602-3.443  c5.25,0.578,8.059,6.403,12.926,6.885c-2.814-9.479-21.149-15.012-28.436-7.745c-4.603,4.59-10.941,0.932-13.357,8.176  c-0.742,2.224,3.317,13.818,4.739,16.778c-17.302-1.701-10.019-37.072,2.586-38.722c-1.725,3.538-2.938,6.722-2.586,11.186  c2.588-1.942,7.505-4.302,10.771-4.302c4.396,0,6.063-2.888,9.479-5.163c5.901-3.928,3.429-0.688,9.047,1.722  c3.16,1.355,8.001,0.353,11.203,1.721c-0.716-10.235-21.928-9.773-29.3-12.046c8.29-5.859,0.47-6.849-6.031-10.327  c-7.272-3.89-5.133-8.334-11.202-12.046c-5.155-3.153-12.133-1.034-10.34-7.745c0.732-2.741,6.943-0.429,2.586-4.302  c-1.961-1.744-8.619,2.429-8.619-2.151c0-5.619,8.493-10.756-1.723-10.756c-6.81,0-13.742-2.657-20.681-2.582  c-5.969,0.064-12.563,2.27-18.096,4.303c-2.411,0.886-20.143,9.118-13.788,2.581c-5.784,2.888-9.669,12.236-14.648,17.21  c-6.07,6.064-12.829,15.298-16.803,23.232c-5.6,11.179-20.764,24.579-34.038,27.535c4.92-8.915,1.724-17.604,1.724-27.535  c0-12.635,11.652-3.619,12.925,3.441c4.227-7.315,11.203-17.748,11.203-26.244c0-9.842-0.862-20.174-0.862-29.686  c0-3.19-0.491-10.484,4.308-6.883c2.611,1.958,2.382,10.644,2.586,13.767c0.725,11.083,0,22.444,0,33.559  c6.444-3.872,6.479-15.583,7.755-22.373c1.456-7.751,6.631-12.222,8.617-18.93c0,8.786-5.148,17.131-4.308,24.954  c5.095-1.33,9.213-9.25,12.924-13.768c4.508-5.486,8.889-9.762,13.788-12.907c-0.85,2.908-2.853,7.092-2.585,11.186  c3.125-3.709,7.521-4.787,12.064-6.023c6.772-1.843,7.812-2.449,11.202-6.884c2.373-3.104,6.64-5.479,8.617-8.604  c2.155-3.407,1.54-8.117,2.585-12.047c2.107-7.919,6.251-18,11.202-24.953c2.034-2.856,4.348-8.646,6.463-10.756  C203.033,25.084,210.687,24.6,215.335,23.122" id="path51" style="fill-rule:evenodd;clip-rule:evenodd;fill:#656565;"/>
  <path d="M316.155,258.031c-5.474,13.868,0.09,18.07,13.786,18.07  c8.423,0,2.333-7.118-0.86-8.606c-2.999-1.398-4.465,0.705-7.324-2.151C319.513,263.104,318.672,260.126,316.155,258.031" id="path53" style="fill-rule:evenodd;clip-rule:evenodd;fill:#181819;"/>
  <path d="M316.155,258.031  c-5.474,13.868,0.09,18.07,13.786,18.07c8.423,0,2.333-7.118-0.86-8.606c-2.999-1.398-4.465,0.705-7.324-2.151  C319.513,263.104,318.672,260.126,316.155,258.031" id="path55" style="fill:none;stroke:#000000;stroke-width:0.7496;stroke-linecap:square;stroke-miterlimit:10;"/>
  <path d="M316.155,258.031  c-5.474,13.868,0.09,18.07,13.786,18.07c8.423,0,2.333-7.118-0.86-8.606c-2.999-1.398-4.465,0.705-7.324-2.151  C319.513,263.104,318.672,260.126,316.155,258.031" id="path57" style="fill:none;stroke:#000000;stroke-width:0.7496;stroke-linecap:square;stroke-miterlimit:10;"/>
  <path d="M94.698,178.868  c-0.089-5.804,3.515-14.81,6.032-19.792c3.376-6.681,7.542-16.997,12.926-22.372c2.417-2.413,5.394-6.692,6.462-9.896  c1.374-4.12,6.52-6.568,8.617-10.756c1.893-3.778,9.375-12.623,13.356-13.767" id="path59" style="fill:none;stroke:#000000;stroke-width:1.4992;stroke-linecap:square;stroke-miterlimit:10;"/>
  <path d="M94.698,178.868  c-0.089-5.804,3.515-14.81,6.032-19.792c3.376-6.681,7.542-16.997,12.926-22.372c2.417-2.413,5.394-6.692,6.462-9.896  c1.374-4.12,6.52-6.568,8.617-10.756c1.893-3.778,9.375-12.623,13.356-13.767" id="path61" style="fill:none;stroke:#000000;stroke-width:1.4992;stroke-linecap:square;stroke-miterlimit:10;"/>
  <path d="M99.007,162.517  c7.097-9.107,6.998-27.928,7.755-40.441c0.948-15.64,0.761-31.63-5.17-45.605" id="path63" style="fill:none;stroke:#000000;stroke-width:1.4992;stroke-linecap:square;stroke-miterlimit:10;"/>
  <path d="M101.592,76.471  c-4.195-13.628-12.184-21.155-24.99-25.814" id="path65" style="fill:none;stroke:#000000;stroke-width:1.4992;stroke-linecap:square;stroke-miterlimit:10;"/>
  <path d="M99.007,162.517  c5.555-7.128,4.723-18.241,6.032-28.395c1.262-9.788,1.723-21.612,1.723-32.698c0-21.158-9.083-43.099-30.16-50.767" id="path67" style="fill:none;stroke:#000000;stroke-width:1.4992;stroke-linecap:square;stroke-miterlimit:10;"/>
  <path d="M171.39,88.518  c0-11.978-1.862-39.804,9.478-46.465" id="path69" style="fill:none;stroke:#000000;stroke-width:1.4992;stroke-linecap:square;stroke-miterlimit:10;"/>
  <path d="M171.39,88.518  c0-11.978-1.862-39.804,9.478-46.465" id="path71" style="fill:none;stroke:#000000;stroke-width:1.4992;stroke-linecap:square;stroke-miterlimit:10;"/>
  <path d="M166.219,48.075  c-3.799,7.589-7.333,15.287-6.893,24.093" id="path73" style="fill:none;stroke:#000000;stroke-width:1.4992;stroke-linecap:square;stroke-miterlimit:10;"/>
  <path d="M166.219,48.075  c-3.799,7.589-7.333,15.287-6.893,24.093" id="path75" style="fill:none;stroke:#000000;stroke-width:1.4992;stroke-linecap:square;stroke-miterlimit:10;"/>
  <line id="line77" style="fill:none;stroke:#000000;stroke-width:1.4992;stroke-linecap:square;stroke-miterlimit:10;" x1="411.804" x2="411.804" y1="0.75" y2="0.75"/>
  <path d="M155.879,53.238  c-6.093,6.941-9.735,15.5-10.341,24.954" id="path79" style="fill:none;stroke:#000000;stroke-width:1.4992;stroke-linecap:square;stroke-miterlimit:10;"/>
  <path d="M155.879,53.238  c-6.093,6.941-9.735,15.5-10.341,24.954" id="path81" style="fill:none;stroke:#000000;stroke-width:1.4992;stroke-linecap:square;stroke-miterlimit:10;"/>
  <path d="M145.538,78.192  c0.577,8.06-3.442,15.632-5.169,23.232" id="path83" style="fill:none;stroke:#000000;stroke-width:1.4992;stroke-linecap:square;stroke-miterlimit:10;"/>
  <path d="M145.538,78.192  c0.577,8.06-3.442,15.632-5.169,23.232" id="path85" style="fill:none;stroke:#000000;stroke-width:1.4992;stroke-linecap:square;stroke-miterlimit:10;"/>
  <line id="line87" style="fill:none;stroke:#000000;stroke-width:1.4992;stroke-linecap:square;stroke-miterlimit:10;" x1="411.804" x2="411.804" y1="0.75" y2="0.75"/>
  <path d="M142.954,46.354  c-5.805,8.01-4.483,17.184-7.755,25.814" id="path89" style="fill:none;stroke:#000000;stroke-width:1.4992;stroke-linecap:square;stroke-miterlimit:10;"/>
  <path d="M142.954,46.354  c-5.805,8.01-4.483,17.184-7.755,25.814" id="path91" style="fill:none;stroke:#000000;stroke-width:1.4992;stroke-linecap:square;stroke-miterlimit:10;"/>
  <path d="M135.198,72.168  c1.156,7.694-3.336,17.629-5.171,24.954" id="path93" style="fill:none;stroke:#000000;stroke-width:1.4992;stroke-linecap:square;stroke-miterlimit:10;"/>
  <path d="M135.198,72.168  c1.156,7.694-3.336,17.629-5.171,24.954" id="path95" style="fill:none;stroke:#000000;stroke-width:1.4992;stroke-linecap:square;stroke-miterlimit:10;"/>
  <line id="line97" style="fill:none;stroke:#000000;stroke-width:1.4992;stroke-linecap:square;stroke-miterlimit:10;" x1="411.804" x2="411.804" y1="0.75" y2="0.75"/>
  <path d="M115.378,37.75  c3.784,2.62,4.198,7.324,2.585,11.186" id="path99" style="fill:none;stroke:#000000;stroke-width:1.4992;stroke-linecap:square;stroke-miterlimit:10;"/>
  <path d="M115.378,37.75  c3.784,2.62,4.198,7.324,2.585,11.186" id="path101" style="fill:none;stroke:#000000;stroke-width:1.4992;stroke-linecap:square;stroke-miterlimit:10;"/>
  <line id="line103" style="fill:none;stroke:#000000;stroke-width:1.4992;stroke-linecap:square;stroke-miterlimit:10;" x1="411.804" x2="411.804" y1="0.75" y2="0.75"/>
  <path d="M67.985,36.029  c13.027-0.823,39.162,18.029,39.639,31.837" id="path105" style="fill:none;stroke:#000000;stroke-width:1.4992;stroke-linecap:square;stroke-miterlimit:10;"/>
  <path d="M67.985,36.029  c13.027-0.823,39.162,18.029,39.639,31.837" id="path107" style="fill:none;stroke:#000000;stroke-width:1.4992;stroke-linecap:square;stroke-miterlimit:10;"/>
  <path d="M99.007,50.657  c4.311-0.377,9.686-0.23,11.202,4.302" id="path109" style="fill:none;stroke:#000000;stroke-width:1.4992;stroke-linecap:square;stroke-miterlimit:10;"/>
  <path d="M99.007,50.657  c4.311-0.377,9.686-0.23,11.202,4.302" id="path111" style="fill:none;stroke:#000000;stroke-width:1.4992;stroke-linecap:square;stroke-miterlimit:10;"/>
  <path d="M110.209,54.959  c3.762-1.637,8.168,0.71,9.479,4.302" id="path113" style="fill:none;stroke:#000000;stroke-width:1.4992;stroke-linecap:square;stroke-miterlimit:10;"/>
  <path d="M110.209,54.959  c3.762-1.637,8.168,0.71,9.479,4.302" id="path115" style="fill:none;stroke:#000000;stroke-width:1.4992;stroke-linecap:square;stroke-miterlimit:10;"/>
  <path d="M119.688,59.262  c5.707-9.134,8.274,0.596,10.339,5.162" id="path117" style="fill:none;stroke:#000000;stroke-width:1.4992;stroke-linecap:square;stroke-miterlimit:10;"/>
  <path d="M119.688,59.262  c5.707-9.134,8.274,0.596,10.339,5.162" id="path119" style="fill:none;stroke:#000000;stroke-width:1.4992;stroke-linecap:square;stroke-miterlimit:10;"/>
  <path d="M113.656,67.006  c5.342-0.718,10.392,5.229,9.479,10.326" id="path121" style="fill:none;stroke:#000000;stroke-width:1.4992;stroke-linecap:square;stroke-miterlimit:10;"/>
  <path d="M113.656,67.006  c5.342-0.718,10.392,5.229,9.479,10.326" id="path123" style="fill:none;stroke:#000000;stroke-width:1.4992;stroke-linecap:square;stroke-miterlimit:10;"/>
  <line id="line125" style="fill:none;stroke:#000000;stroke-width:1.4992;stroke-linecap:square;stroke-miterlimit:10;" x1="411.804" x2="411.804" y1="0.75" y2="0.75"/>
  <path d="M193.793,137.564  c-12.442,7.45-20.623,29.833-9.479,41.303" id="path127" style="fill:none;stroke:#000000;stroke-width:1.4992;stroke-linecap:square;stroke-miterlimit:10;"/>
  <path d="M193.793,137.564  c-12.442,7.45-20.623,29.833-9.479,41.303" id="path129" style="fill:none;stroke:#000000;stroke-width:1.4992;stroke-linecap:square;stroke-miterlimit:10;"/>
  <path d="M184.315,178.868  c5.524,12.271,16.741,23.463,25.852,32.697" id="path131" style="fill:none;stroke:#000000;stroke-width:1.4992;stroke-linecap:square;stroke-miterlimit:10;"/>
  <path d="M184.315,178.868  c5.524,12.271,16.741,23.463,25.852,32.697" id="path133" style="fill:none;stroke:#000000;stroke-width:1.4992;stroke-linecap:square;stroke-miterlimit:10;"/>
  <path d="M210.167,211.565  c6.204,12.317,14.716,23.606,23.266,33.558" id="path135" style="fill:none;stroke:#000000;stroke-width:1.4992;stroke-linecap:square;stroke-miterlimit:10;"/>
  <path d="M210.167,211.565  c6.204,12.317,14.716,23.606,23.266,33.558" id="path137" style="fill:none;stroke:#000000;stroke-width:1.4992;stroke-linecap:square;stroke-miterlimit:10;"/>
  <path d="M233.432,245.123  c8.272,5.117,16.851,11.133,25.85,14.627" id="path139" style="fill:none;stroke:#000000;stroke-width:1.4992;stroke-linecap:square;stroke-miterlimit:10;"/>
  <path d="M233.432,245.123  c8.272,5.117,16.851,11.133,25.85,14.627" id="path141" style="fill:none;stroke:#000000;stroke-width:1.4992;stroke-linecap:square;stroke-miterlimit:10;"/>
  <line id="line143" style="fill:none;stroke:#000000;stroke-width:1.4992;stroke-linecap:square;stroke-miterlimit:10;" x1="411.804" x2="411.804" y1="0.75" y2="0.75"/>
  <path d="M253.25,267.495  c3.302,6.104,14.604,8.518,21.543,8.606" id="path145" style="fill:none;stroke:#000000;stroke-width:1.4992;stroke-linecap:square;stroke-miterlimit:10;"/>
  <path d="M253.25,267.495  c3.302,6.104,14.604,8.518,21.543,8.606" id="path147" style="fill:none;stroke:#000000;stroke-width:1.4992;stroke-linecap:square;stroke-miterlimit:10;"/>
  <path d="M274.793,276.101  c4.25,0,10.459-1.29,13.788,1.719" id="path149" style="fill:none;stroke:#000000;stroke-width:1.4992;stroke-linecap:square;stroke-miterlimit:10;"/>
  <path d="M274.793,276.101  c4.25,0,10.459-1.29,13.788,1.719" id="path151" style="fill:none;stroke:#000000;stroke-width:1.4992;stroke-linecap:square;stroke-miterlimit:10;"/>
  <path d="M288.582,277.82  c0.569,2.938,1.714,5.854,2.585,8.606" id="path153" style="fill:none;stroke:#000000;stroke-width:1.4992;stroke-linecap:square;stroke-miterlimit:10;"/>
  <path d="M288.582,277.82  c0.569,2.938,1.714,5.854,2.585,8.606" id="path155" style="fill:none;stroke:#000000;stroke-width:1.4992;stroke-linecap:square;stroke-miterlimit:10;"/>
  <line id="line157" style="fill:none;stroke:#000000;stroke-width:1.4992;stroke-linecap:square;stroke-miterlimit:10;" x1="411.804" x2="411.804" y1="0.75" y2="0.75"/>
  <path d="M238.602,262.333  c-6.64,3.529-6.941,14.28-2.585,19.789" id="path159" style="fill:none;stroke:#000000;stroke-width:0.7496;stroke-linecap:square;stroke-miterlimit:10;"/>
  <path d="M238.602,262.333  c-6.64,3.529-6.941,14.28-2.585,19.789" id="path161" style="fill:none;stroke:#000000;stroke-width:0.7496;stroke-linecap:square;stroke-miterlimit:10;"/>
  <path d="M239.463,229.634  c5.62,1.271,10.012,1.457,15.512,0.86" id="path163" style="fill:none;stroke:#000000;stroke-width:0.7496;stroke-linecap:square;stroke-miterlimit:10;"/>
  <path d="M239.463,229.634  c5.62,1.271,10.012,1.457,15.512,0.86" id="path165" style="fill:none;stroke:#000000;stroke-width:0.7496;stroke-linecap:square;stroke-miterlimit:10;"/>
  <line id="line167" style="fill:none;stroke:#000000;stroke-width:0.7496;stroke-linecap:square;stroke-miterlimit:10;" x1="411.804" x2="411.804" y1="0.75" y2="0.75"/>
  <path d="M245.496,235.658  c3.361,2.937,7.851,2.852,12.064,2.581" id="path169" style="fill:none;stroke:#000000;stroke-width:0.7496;stroke-linecap:square;stroke-miterlimit:10;"/>
  <path d="M245.496,235.658  c3.361,2.937,7.851,2.852,12.064,2.581" id="path171" style="fill:none;stroke:#000000;stroke-width:0.7496;stroke-linecap:square;stroke-miterlimit:10;"/>
  <line id="line173" style="fill:none;stroke:#000000;stroke-width:0.7496;stroke-linecap:square;stroke-miterlimit:10;" x1="411.804" x2="411.804" y1="0.75" y2="0.75"/>
  <path d="M250.666,244.263  c5.39-0.614,9.535,3.69,13.788,6.023" id="path175" style="fill:none;stroke:#000000;stroke-width:0.7496;stroke-linecap:square;stroke-miterlimit:10;"/>
  <path d="M250.666,244.263  c5.39-0.614,9.535,3.69,13.788,6.023" id="path177" style="fill:none;stroke:#000000;stroke-width:0.7496;stroke-linecap:square;stroke-miterlimit:10;"/>
  <path d="M185.176,269.215  c5.483,0.872,10.302-2.744,12.926-6.883" id="path179" style="fill:none;stroke:#000000;stroke-width:1.4992;stroke-linecap:square;stroke-miterlimit:10;"/>
  <path d="M185.176,269.215  c5.483,0.872,10.302-2.744,12.926-6.883" id="path181" style="fill:none;stroke:#000000;stroke-width:1.4992;stroke-linecap:square;stroke-miterlimit:10;"/>
  <path d="M198.103,275.239  c3.648-0.886,6.941-3.228,7.755-6.884" id="path183" style="fill:none;stroke:#000000;stroke-width:1.4992;stroke-linecap:square;stroke-miterlimit:10;"/>
  <path d="M198.103,275.239  c3.648-0.886,6.941-3.228,7.755-6.884" id="path185" style="fill:none;stroke:#000000;stroke-width:1.4992;stroke-linecap:square;stroke-miterlimit:10;"/>
  <line id="line187" style="fill:none;stroke:#000000;stroke-width:1.4992;stroke-linecap:square;stroke-miterlimit:10;" x1="411.804" x2="411.804" y1="0.75" y2="0.75"/>
  <path d="M323.049,183.169  c0,7.769,1.413,19.509,8.616,23.231" id="path189" style="fill:none;stroke:#000000;stroke-width:1.4992;stroke-linecap:square;stroke-miterlimit:10;"/>
  <path d="M323.049,183.169  c0,7.769,1.413,19.509,8.616,23.231" id="path191" style="fill:none;stroke:#000000;stroke-width:1.4992;stroke-linecap:square;stroke-miterlimit:10;"/>
  <path d="M331.666,206.401  c6.621,5.937,17.397,5.356,25.852,4.302" id="path193" style="fill:none;stroke:#000000;stroke-width:1.4992;stroke-linecap:square;stroke-miterlimit:10;"/>
  <path d="M331.666,206.401  c6.621,5.937,17.397,5.356,25.852,4.302" id="path195" style="fill:none;stroke:#000000;stroke-width:1.4992;stroke-linecap:square;stroke-miterlimit:10;"/>
  <path d="M345.454,245.123  c-3.746,1.049-10.015,2.478-10.341,6.884" id="path197" style="fill:none;stroke:#000000;stroke-width:0.7496;stroke-linecap:square;stroke-miterlimit:10;"/>
  <path d="M345.454,245.123  c-3.746,1.049-10.015,2.478-10.341,6.884" id="path199" style="fill:none;stroke:#000000;stroke-width:0.7496;stroke-linecap:square;stroke-miterlimit:10;"/>
  <path d="M335.113,252.006  c-1.148,2.034-2.407,4.235-3.447,6.024" id="path201" style="fill:none;stroke:#000000;stroke-width:0.7496;stroke-linecap:square;stroke-miterlimit:10;"/>
  <path d="M335.113,252.006  c-1.148,2.034-2.407,4.235-3.447,6.024" id="path203" style="fill:none;stroke:#000000;stroke-width:0.7496;stroke-linecap:square;stroke-miterlimit:10;"/>
  <line id="line205" style="fill:none;stroke:#000000;stroke-width:0.7496;stroke-linecap:square;stroke-miterlimit:10;" x1="411.804" x2="411.804" y1="0.75" y2="0.75"/>
  <path d="M332.528,245.123  c4.299,0.748,8.481,0.86,12.926,0.86" id="path207" style="fill:none;stroke:#000000;stroke-width:0.7496;stroke-linecap:square;stroke-miterlimit:10;"/>
  <path d="M332.528,245.123  c4.299,0.748,8.481,0.86,12.926,0.86" id="path209" style="fill:none;stroke:#000000;stroke-width:0.7496;stroke-linecap:square;stroke-miterlimit:10;"/>
  <line id="line211" style="fill:none;stroke:#000000;stroke-width:0.7496;stroke-linecap:square;stroke-miterlimit:10;" x1="411.804" x2="411.804" y1="0.75" y2="0.75"/>
  <path d="M249.805,201.239c-9.404,1.032-21.744-7.423-11.203-13.768  c5.188-3.123,8.266-2.934,12.925,1.721C255.739,193.398,259.92,201.715,249.805,201.239" id="path213" style="fill-rule:evenodd;clip-rule:evenodd;fill:#181819;"/>
  <path d="M249.805,201.239  c-9.404,1.032-21.744-7.423-11.203-13.768c5.188-3.123,8.266-2.934,12.925,1.721C255.739,193.398,259.92,201.715,249.805,201.239" id="path215" style="fill:none;stroke:#000000;stroke-width:0.7496;stroke-linecap:square;stroke-miterlimit:10;"/>
  <path d="M249.805,201.239  c-9.404,1.032-21.744-7.423-11.203-13.768c5.188-3.123,8.266-2.934,12.925,1.721C255.739,193.398,259.92,201.715,249.805,201.239" id="path217" style="fill:none;stroke:#000000;stroke-width:0.7496;stroke-linecap:square;stroke-miterlimit:10;"/>
  <path d="M224.815,199.518  c1.551,6.497,8.503,13.957,15.511,13.768" id="path219" style="fill:none;stroke:#000000;stroke-width:0.7496;stroke-linecap:square;stroke-miterlimit:10;"/>
  <path d="M224.815,199.518  c1.551,6.497,8.503,13.957,15.511,13.768" id="path221" style="fill:none;stroke:#000000;stroke-width:0.7496;stroke-linecap:square;stroke-miterlimit:10;"/>
  <path d="M217.921,207.261  c3.996,2.581,7.684,4.832,12.064,6.884" id="path223" style="fill:none;stroke:#000000;stroke-width:0.7496;stroke-linecap:square;stroke-miterlimit:10;"/>
  <path d="M217.921,207.261  c3.996,2.581,7.684,4.832,12.064,6.884" id="path225" style="fill:none;stroke:#000000;stroke-width:0.7496;stroke-linecap:square;stroke-miterlimit:10;"/>
  <line id="line227" style="fill:none;stroke:#000000;stroke-width:0.7496;stroke-linecap:square;stroke-miterlimit:10;" x1="411.804" x2="411.804" y1="0.75" y2="0.75"/>
  <path d="M261.869,205.542  c3.91,3.17,9.726,2.017,12.925-1.721" id="path229" style="fill:none;stroke:#000000;stroke-width:0.7496;stroke-linecap:square;stroke-miterlimit:10;"/>
  <path d="M261.869,205.542  c3.91,3.17,9.726,2.017,12.925-1.721" id="path231" style="fill:none;stroke:#000000;stroke-width:0.7496;stroke-linecap:square;stroke-miterlimit:10;"/>
  <path d="M274.793,203.821  c2.481-3.621,2.788-9.139-0.86-12.047" id="path233" style="fill:none;stroke:#000000;stroke-width:0.7496;stroke-linecap:square;stroke-miterlimit:10;"/>
  <path d="M274.793,203.821  c2.481-3.621,2.788-9.139-0.86-12.047" id="path235" style="fill:none;stroke:#000000;stroke-width:0.7496;stroke-linecap:square;stroke-miterlimit:10;"/>
  <path d="M273.933,191.774  c-2.356-1.819-4.363-4.051-5.172-6.885" id="path237" style="fill:none;stroke:#000000;stroke-width:0.7496;stroke-linecap:square;stroke-miterlimit:10;"/>
  <path d="M273.933,191.774  c-2.356-1.819-4.363-4.051-5.172-6.885" id="path239" style="fill:none;stroke:#000000;stroke-width:0.7496;stroke-linecap:square;stroke-miterlimit:10;"/>
  <path d="M268.761,184.889  c-1.557-6.364-12.491-9.699-18.096-11.186" id="path241" style="fill:none;stroke:#000000;stroke-width:0.7496;stroke-linecap:square;stroke-miterlimit:10;"/>
  <path d="M268.761,184.889  c-1.557-6.364-12.491-9.699-18.096-11.186" id="path243" style="fill:none;stroke:#000000;stroke-width:0.7496;stroke-linecap:square;stroke-miterlimit:10;"/>
  <path d="M250.666,173.704  c-5.743,0.83-11.052,1.7-16.372,4.303" id="path245" style="fill:none;stroke:#000000;stroke-width:0.7496;stroke-linecap:square;stroke-miterlimit:10;"/>
  <path d="M250.666,173.704  c-5.743,0.83-11.052,1.7-16.372,4.303" id="path247" style="fill:none;stroke:#000000;stroke-width:0.7496;stroke-linecap:square;stroke-miterlimit:10;"/>
  <path d="M217.059,176.286  c6.366-5.24,18.2-8.632,25.852-6.884" id="path249" style="fill:none;stroke:#000000;stroke-width:0.7496;stroke-linecap:square;stroke-miterlimit:10;"/>
  <path d="M217.059,176.286  c6.366-5.24,18.2-8.632,25.852-6.884" id="path251" style="fill:none;stroke:#000000;stroke-width:0.7496;stroke-linecap:square;stroke-miterlimit:10;"/>
  <path d="M242.911,169.402  c2.46,0.556,5.03,2.254,6.895,3.442" id="path253" style="fill:none;stroke:#000000;stroke-width:0.7496;stroke-linecap:square;stroke-miterlimit:10;"/>
  <path d="M242.911,169.402  c2.46,0.556,5.03,2.254,6.895,3.442" id="path255" style="fill:none;stroke:#000000;stroke-width:0.7496;stroke-linecap:square;stroke-miterlimit:10;"/>
  <line id="line257" style="fill:none;stroke:#000000;stroke-width:0.7496;stroke-linecap:square;stroke-miterlimit:10;" x1="411.804" x2="411.804" y1="0.75" y2="0.75"/>
  <path d="M278.24,196.937  c2.549-1.434,3.268-3.866,2.585-6.884" id="path259" style="fill:none;stroke:#000000;stroke-width:0.7496;stroke-linecap:square;stroke-miterlimit:10;"/>
  <path d="M278.24,196.937  c2.549-1.434,3.268-3.866,2.585-6.884" id="path261" style="fill:none;stroke:#000000;stroke-width:0.7496;stroke-linecap:square;stroke-miterlimit:10;"/>
  <path d="M280.825,190.053  c0.139-4.37,2.404-7.199,1.725-12.047" id="path263" style="fill:none;stroke:#000000;stroke-width:0.7496;stroke-linecap:square;stroke-miterlimit:10;"/>
  <path d="M280.825,190.053  c0.139-4.37,2.404-7.199,1.725-12.047" id="path265" style="fill:none;stroke:#000000;stroke-width:0.7496;stroke-linecap:square;stroke-miterlimit:10;"/>
  <path d="M282.549,178.006  c-3.932-5.474-5.494-11.782-12.926-13.767" id="path267" style="fill:none;stroke:#000000;stroke-width:0.7496;stroke-linecap:square;stroke-miterlimit:10;"/>
  <path d="M282.549,178.006  c-3.932-5.474-5.494-11.782-12.926-13.767" id="path269" style="fill:none;stroke:#000000;stroke-width:0.7496;stroke-linecap:square;stroke-miterlimit:10;"/>
  <path d="M269.624,164.24  c-9.083-4.151-22.936-7.387-32.745-5.164" id="path271" style="fill:none;stroke:#000000;stroke-width:0.7496;stroke-linecap:square;stroke-miterlimit:10;"/>
  <path d="M269.624,164.24  c-9.083-4.151-22.936-7.387-32.745-5.164" id="path273" style="fill:none;stroke:#000000;stroke-width:0.7496;stroke-linecap:square;stroke-miterlimit:10;"/>
  <path d="M294.613,195.216  c0.85-9.767-5.97-27.056-16.373-27.536" id="path275" style="fill:none;stroke:#000000;stroke-width:0.7496;stroke-linecap:square;stroke-miterlimit:10;"/>
  <path d="M294.613,195.216  c0.85-9.767-5.97-27.056-16.373-27.536" id="path277" style="fill:none;stroke:#000000;stroke-width:0.7496;stroke-linecap:square;stroke-miterlimit:10;"/>
  <path d="M306.676,175.424  c-6.373-0.956-10.213,3.708-11.203,9.465" id="path279" style="fill:none;stroke:#000000;stroke-width:0.7496;stroke-linecap:square;stroke-miterlimit:10;"/>
  <path d="M306.676,175.424  c-6.373-0.956-10.213,3.708-11.203,9.465" id="path281" style="fill:none;stroke:#000000;stroke-width:0.7496;stroke-linecap:square;stroke-miterlimit:10;"/>
  <path d="M300.643,171.983  c-2.624-2.198-5.76-2.086-7.754,0.861" id="path283" style="fill:none;stroke:#000000;stroke-width:0.7496;stroke-linecap:square;stroke-miterlimit:10;"/>
  <path d="M300.643,171.983  c-2.624-2.198-5.76-2.086-7.754,0.861" id="path285" style="fill:none;stroke:#000000;stroke-width:0.7496;stroke-linecap:square;stroke-miterlimit:10;"/>
  <path d="M308.4,190.053  c-3.749-3.317-1.284-9.554,3.446-10.326" id="path287" style="fill:none;stroke:#000000;stroke-width:0.7496;stroke-linecap:square;stroke-miterlimit:10;"/>
  <path d="M308.4,190.053  c-3.749-3.317-1.284-9.554,3.446-10.326" id="path289" style="fill:none;stroke:#000000;stroke-width:0.7496;stroke-linecap:square;stroke-miterlimit:10;"/>
  <path d="M255.836,198.658c-4.113,0.616-14.414-2.521-10.341-8.604  c4.422-6.604,11.136,6.385,11.201,6.884C255.903,197.404,256.203,198.334,255.836,198.658" id="path291" style="fill-rule:evenodd;clip-rule:evenodd;fill:#CBCBCB;"/>
  <path d="M255.836,198.658  c-4.113,0.616-14.414-2.521-10.341-8.604c4.422-6.604,11.136,6.385,11.201,6.884C255.903,197.404,256.203,198.334,255.836,198.658" id="path293" style="fill:none;stroke:#000000;stroke-width:0.7496;stroke-linecap:square;stroke-miterlimit:10;"/>
  <path d="M255.836,198.658  c-4.113,0.616-14.414-2.521-10.341-8.604c4.422-6.604,11.136,6.385,11.201,6.884C255.903,197.404,256.203,198.334,255.836,198.658" id="path295" style="fill:none;stroke:#000000;stroke-width:0.7496;stroke-linecap:square;stroke-miterlimit:10;"/>
  <path d="M235.155,187.471  c4.379-1.608,10.472-5.039,14.65-0.859" id="path297" style="fill:none;stroke:#000000;stroke-width:0.7496;stroke-linecap:square;stroke-miterlimit:10;"/>
  <path d="M235.155,187.471  c4.379-1.608,10.472-5.039,14.65-0.859" id="path299" style="fill:none;stroke:#000000;stroke-width:0.7496;stroke-linecap:square;stroke-miterlimit:10;"/>
  <path d="M249.805,186.612  c3.015,5.921,8.035,10.856,10.34,17.209" id="path301" style="fill:none;stroke:#000000;stroke-width:0.7496;stroke-linecap:square;stroke-miterlimit:10;"/>
  <path d="M249.805,186.612  c3.015,5.921,8.035,10.856,10.34,17.209" id="path303" style="fill:none;stroke:#000000;stroke-width:0.7496;stroke-linecap:square;stroke-miterlimit:10;"/>
  <path d="M120.548,192.634  c3.662-10.741,12.073-14.633,22.405-9.465" id="path305" style="fill:none;stroke:#000000;stroke-width:1.4992;stroke-linecap:square;stroke-miterlimit:10;"/>
  <path d="M120.548,192.634  c3.662-10.741,12.073-14.633,22.405-9.465" id="path307" style="fill:none;stroke:#000000;stroke-width:1.4992;stroke-linecap:square;stroke-miterlimit:10;"/>
  <path d="M110.209,178.868  c6.425-0.65,7.849,5.47,9.479,10.324" id="path309" style="fill:none;stroke:#000000;stroke-width:0.7496;stroke-linecap:square;stroke-miterlimit:10;"/>
  <path d="M110.209,178.868  c6.425-0.65,7.849,5.47,9.479,10.324" id="path311" style="fill:none;stroke:#000000;stroke-width:0.7496;stroke-linecap:square;stroke-miterlimit:10;"/>
  <line id="line313" style="fill:none;stroke:#000000;stroke-width:0.7496;stroke-linecap:square;stroke-miterlimit:10;" x1="411.804" x2="411.804" y1="0.75" y2="0.75"/>
  <path d="M155.017,171.983  c-1.377-16.127,14.878-28.025,25.851-34.418" id="path315" style="fill:none;stroke:#000000;stroke-width:1.4992;stroke-linecap:square;stroke-miterlimit:10;"/>
  <path d="M155.017,171.983  c-1.377-16.127,14.878-28.025,25.851-34.418" id="path317" style="fill:none;stroke:#000000;stroke-width:1.4992;stroke-linecap:square;stroke-miterlimit:10;"/>
  <line id="line319" style="fill:none;stroke:#000000;stroke-width:1.4992;stroke-linecap:square;stroke-miterlimit:10;" x1="411.804" x2="411.804" y1="0.75" y2="0.75"/>
  <path d="M162.773,180.587  c-1.074-9.284,10.68-22.107,16.372-27.535" id="path321" style="fill:none;stroke:#000000;stroke-width:1.4992;stroke-linecap:square;stroke-miterlimit:10;"/>
  <path d="M162.773,180.587  c-1.074-9.284,10.68-22.107,16.372-27.535" id="path323" style="fill:none;stroke:#000000;stroke-width:1.4992;stroke-linecap:square;stroke-miterlimit:10;"/>
  <line id="line325" style="fill:none;stroke:#000000;stroke-width:1.4992;stroke-linecap:square;stroke-miterlimit:10;" x1="411.804" x2="411.804" y1="0.75" y2="0.75"/>
  <path d="M226.538,44.633c-1.745,10.03-5.246,19.072-9.909,28.396  c-3.474,6.947-12.584,13.246-9.047,21.512c-9.576-4.294-25.321-2.581-36.192-2.581c4.414-3.838,9.948-14.628,16.372-14.628  c4.986,0,4.676,3.609,7.756,5.163c2.477,1.249,9.124,1.088,12.064,0.86c-4.13-1.62-18.063-4.284-19.82-9.465  c-1.936-5.712,15.487-21.79,18.096-25.814c-2.33,3.68-6.084,10.747-6.032,16.349c5.69-2.619,9.689-6.358,13.788-11.186  c3.818-4.497,6.136-11.779,12.925-12.907C226.538,41.661,226.815,43.338,226.538,44.633" id="path327" style="fill-rule:evenodd;clip-rule:evenodd;fill:#323232;"/>
  <path d="M211.027,46.354  c-5.733,8.599-11.138,14.711-17.233,23.233c-5.036,7.041-13.469,14.396-16.372,22.372" id="path329" style="fill:none;stroke:#000000;stroke-width:1.4992;stroke-linecap:square;stroke-miterlimit:10;"/>
  <path d="M211.027,46.354  c-5.733,8.599-11.138,14.711-17.233,23.233c-5.036,7.041-13.469,14.396-16.372,22.372" id="path331" style="fill:none;stroke:#000000;stroke-width:1.4992;stroke-linecap:square;stroke-miterlimit:10;"/>
  <line id="line333" style="fill:none;stroke:#000000;stroke-width:1.4992;stroke-linecap:square;stroke-miterlimit:10;" x1="411.804" x2="411.804" y1="0.75" y2="0.75"/>
</svg>
