<?xml version="1.0" encoding="UTF-8" standalone="no"?>
<!DOCTYPE svg PUBLIC "-//W3C//DTD SVG 20010904//EN"
"http://www.w3.org/TR/2001/REC-SVG-20010904/DTD/svg10.dtd">
<!-- Created with Inkscape (http://www.inkscape.org/) --><svg height="297mm" id="svg1" inkscape:version="0.40" sodipodi:docbase="/home/moondog" sodipodi:docname="brain.svg" sodipodi:version="0.32" width="210mm" xmlns="http://www.w3.org/2000/svg" xmlns:cc="http://web.resource.org/cc/" xmlns:dc="http://purl.org/dc/elements/1.1/" xmlns:inkscape="http://www.inkscape.org/namespaces/inkscape" xmlns:rdf="http://www.w3.org/1999/02/22-rdf-syntax-ns#" xmlns:sodipodi="http://sodipodi.sourceforge.net/DTD/sodipodi-0.dtd" xmlns:xlink="http://www.w3.org/1999/xlink">
  <metadata>
    <rdf:RDF xmlns:cc="http://web.resource.org/cc/" xmlns:dc="http://purl.org/dc/elements/1.1/" xmlns:rdf="http://www.w3.org/1999/02/22-rdf-syntax-ns#">
      <cc:Work rdf:about="">
        <dc:title>Bucket</dc:title>
        <dc:description>Bucket with green water</dc:description>
        <dc:subject>
          <rdf:Bag>
            <rdf:li>tools</rdf:li>
            <rdf:li>work</rdf:li>
          </rdf:Bag>
        </dc:subject>
        <dc:publisher>
          <cc:Agent rdf:about="http://www.openclipart.org">
            <dc:title>Open Clip Art Library</dc:title>
          </cc:Agent>
        </dc:publisher>
        <dc:creator>
          <cc:Agent>
            <dc:title>Michael Moore</dc:title>
          </cc:Agent>
        </dc:creator>
        <dc:rights>
          <cc:Agent>
            <dc:title>Michael Moore</dc:title>
          </cc:Agent>
        </dc:rights>
        <dc:date></dc:date>
        <dc:format>image/svg+xml</dc:format>
        <dc:type rdf:resource="http://purl.org/dc/dcmitype/StillImage"/>
        <cc:license rdf:resource="http://web.resource.org/cc/PublicDomain"/>
        <dc:language>en</dc:language>
      </cc:Work>
      <cc:License rdf:about="http://web.resource.org/cc/PublicDomain">
        <cc:permits rdf:resource="http://web.resource.org/cc/Reproduction"/>
        <cc:permits rdf:resource="http://web.resource.org/cc/Distribution"/>
        <cc:permits rdf:resource="http://web.resource.org/cc/DerivativeWorks"/>
      </cc:License>
    </rdf:RDF>
  </metadata>
  <defs id="defs3"/>
  <sodipodi:namedview bordercolor="#666666" borderopacity="1.0" id="base" inkscape:current-layer="layer1" inkscape:cx="261.23520" inkscape:cy="681.15357" inkscape:pageopacity="0.0" inkscape:pageshadow="2" inkscape:window-height="693" inkscape:window-width="1024" inkscape:window-x="0" inkscape:window-y="25" inkscape:zoom="3.4732669" pagecolor="#ffffff"/>
  <g id="layer1" inkscape:groupmode="layer" inkscape:label="Layer 1">
    <path d="M 310.95817,113.13740 C 294.04938,107.37913 278.63556,111.56357 266.07991,120.19977 C 244.52697,118.39910 236.26908,123.56943 227.91388,136.33794 C 214.52019,139.74926 204.62020,156.88756 204.99655,165.69614 C 197.45529,170.54592 192.63263,183.98088 195.51176,196.18066 C 192.99252,207.30076 196.73550,221.81539 206.07623,230.98387 C 209.65869,242.31169 229.99553,238.93616 240.86998,246.66619 C 251.74442,254.39621 240.92806,266.04459 255.28317,270.36209 C 259.20141,282.95709 294.40928,279.94370 310.95817,279.94370 C 327.50706,279.94370 372.78408,276.83893 387.13137,272.52144 C 401.47866,268.20394 385.61600,254.03632 404.40807,249.18543 C 415.28251,241.45540 417.98466,228.99570 416.52864,225.58549 C 420.11109,223.25496 433.21126,205.14140 424.93376,193.66142 C 432.13160,184.70066 425.86937,161.90852 415.08908,163.53679 C 418.70445,151.12929 399.08738,132.91132 391.81186,137.77751 C 392.45395,126.80845 368.00873,118.75899 356.90047,118.40031 C 347.59166,109.04433 326.42738,108.81870 310.95817,113.13740 z " id="path1064" sodipodi:nodetypes="ccccccccccccccccc" style="fill:#c10000;fill-opacity:1.0000000;fill-rule:evenodd;stroke:none;stroke-width:1.0000000pt;stroke-linecap:butt;stroke-linejoin:miter;stroke-opacity:1.0000000"/>
  </g>
</svg>
