<?xml version="1.0" encoding="UTF-8" standalone="no"?>
<!-- Generator: Adobe Illustrator 12.0.0, SVG Export Plug-In . SVG Version: 6.00 Build 51448)  --><svg height="268.452" id="Layer_1" inkscape:version="0.40+cvs" sodipodi:docbase="F:\openclip\svg3" sodipodi:docname="Bussola.svg" sodipodi:version="0.32" style="overflow:visible;enable-background:new 0 0 221.897 268.452;" version="1.0" viewBox="0 0 221.897 268.452" width="221.897" xml:space="preserve" xmlns="http://www.w3.org/2000/svg" xmlns:cc="http://web.resource.org/cc/" xmlns:dc="http://purl.org/dc/elements/1.1/" xmlns:inkscape="http://www.inkscape.org/namespaces/inkscape" xmlns:rdf="http://www.w3.org/1999/02/22-rdf-syntax-ns#" xmlns:sodipodi="http://inkscape.sourceforge.net/DTD/sodipodi-0.dtd" xmlns:svg="http://www.w3.org/2000/svg" xmlns:xml="http://www.w3.org/XML/1998/namespace"><metadata><rdf:RDF xmlns:cc="http://web.resource.org/cc/" xmlns:dc="http://purl.org/dc/elements/1.1/" xmlns:rdf="http://www.w3.org/1999/02/22-rdf-syntax-ns#"><cc:Work rdf:about=""><dc:title>Bussola</dc:title><dc:description></dc:description><dc:subject><rdf:Bag><rdf:li>tool</rdf:li></rdf:Bag></dc:subject><dc:publisher><cc:Agent rdf:about="http://www.openclipart.org"><dc:title>Architetto Francesco Rollandin</dc:title></cc:Agent></dc:publisher><dc:creator><cc:Agent><dc:title>Architetto Francesco Rollandin</dc:title></cc:Agent></dc:creator><dc:rights><cc:Agent><dc:title>Architetto Francesco Rollandin</dc:title></cc:Agent></dc:rights><dc:date></dc:date><dc:format>image/svg+xml</dc:format><dc:type rdf:resource="http://purl.org/dc/dcmitype/StillImage"/><cc:license rdf:resource="http://web.resource.org/cc/PublicDomain"/><dc:language>en</dc:language></cc:Work><cc:License rdf:about="http://web.resource.org/cc/PublicDomain"><cc:permits rdf:resource="http://web.resource.org/cc/Reproduction"/><cc:permits rdf:resource="http://web.resource.org/cc/Distribution"/><cc:permits rdf:resource="http://web.resource.org/cc/DerivativeWorks"/></cc:License></rdf:RDF></metadata>
<defs id="defs88"></defs>
<sodipodi:namedview bordercolor="#666666" borderopacity="1.0" id="base" inkscape:current-layer="Layer_1" inkscape:cx="110.94850" inkscape:cy="134.22600" inkscape:pageopacity="0.0" inkscape:pageshadow="2" inkscape:window-height="540" inkscape:window-width="640" inkscape:window-x="110" inkscape:window-y="110" inkscape:zoom="1.4080730" pagecolor="#ffffff"></sodipodi:namedview>

<g id="g3">
	<path d="M104.887,198.034c-10.593,5.296-21.098,10.563-31.231,16.715c-10.353,6.285-21.593,13.18-28.442,23.457   c-6.612,9.922-0.774,22.525,9.584,27.618c4.156,2.043,10.907,2.743,15.593,2.612c6.354-0.177,12.585-0.344,18.897-1.045   c23.277-2.586,45.956-10.72,66.683-21.283c11.578-5.9,22.923-11.683,33.652-19.074c9.292-6.401,20.423-14.575,26.085-24.649   c4.6-8.183,7.311-14.86,5.741-24.313c-1.541-9.284-9.805-13.934-18.632-13.934c-10.297,0-19.813,1.995-29.786,4.389   c-4.701,1.128-9.289,2.466-13.91,3.897c-4.317,1.338-8.79,3.612-13.184,4.519c17.641-15.875,29.781-36.331,29.752-60.633   c-0.027-22.435-8.867-47.192-26.558-61.929c-18.762-15.63-44.026-20.677-67.878-17.69c-21.997,2.754-46.985,14.151-61.012,31.868   c-7.794,9.845-14.379,20.045-17.795,32.309c-3.139,11.271-2.884,23.16-1.319,34.648c0.835,6.133,2.84,11.708,5.19,17.412   c2.15,5.221,4.853,9.183,7.72,13.96c3.129,5.215,9.041,9.363,13.385,13.571c3.46,3.352,8.746,7.294,13.141,9.292   C60.477,198.803,83.175,205.471,104.887,198.034" id="path5"></path>

	<path d="M114.678,174.308c-11.171,4.584-21.733,8.835-33.961,9.195c-13,0.383-24.328-1.747-36.424-6.478   C21.702,168.19,7.472,145.928,5.48,122.208c-0.472-5.622,1.024-11.139,1.923-16.684c0.89-5.494,2.465-11.287,4.837-16.333   c4.912-10.446,13.195-20.722,22.415-27.638c10.242-7.683,19.739-13.204,32.063-16.679c11.293-3.184,22.983-4.839,34.725-4.001   c23.679,1.69,46.007,13.706,55.796,36.266c9.538,21.98,6.509,48.145-6.792,67.656c-4.389,6.438-9.594,11.634-15.583,16.567   c-3.447,2.839-6.81,5.197-10.601,7.566C121.709,170.525,117.744,174.044,114.678,174.308" id="path7" style="fill:#FFEA66;"></path>

	<path d="M164.016,82.037c3.406,15.528,5.686,30.095,0.179,45.516c-5.051,14.141-14.265,29.146-27.296,37.339   c2.679-0.084,3.32,2.375,4.52,4.143c2.182,3.215,2.543,5.013,5.356,2.109c8.174-8.433,15.293-16.55,19.657-27.63   C173.777,124.865,173.996,99.97,164.016,82.037" id="path9" style="fill:#CCA300;"></path>

	<path d="M103.758,198.034c2.639-0.357,6.023-3.656,8.46-5.049c3.08-1.761,6.058-3.534,9.241-5.119   c-1.434-1.74-3.432,0.716-4.332-0.188c-1.514-1.521-3.377-2.934-2.071-5.838c-2.183,1.811-1.104,6.235-2.891,6.971   c-3.423,1.41-6.054,3.442-9.163,1.88c-1.275-0.641-2.612-2.936-3.012-4.332c-0.805-2.813,0.128-3.059,2.258-4.142   c4.503-2.291,9.732-3.354,14.049-5.942c5.39-3.231,17.044-14.185,22.565-8.663c1.836,1.836,2.555,5.44,2.555,7.26   c0,0.859-8.328,3.984-9.416,4.708c-0.404-2.366-1.875-4.247-4.52-3.012c1.595,1.061,4.439,3.47,2.448,5.461   c-0.934,0.934-2.043,1.219-2.071,2.823c2.914-0.872,5.958-2.599,8.687-3.967c2.317-1.162,5.488-1.659,7.509-3.188   c-0.125,1.361,0.72,2.843,1.883,3.012c-14.964,3.746-27.437,12.429-41.051,19.21C104.762,199.026,104.04,198.435,103.758,198.034" id="path11" style="fill:#FFE699;"></path>

	<path d="M96.979,184.1c-1.544,2.565,2.083,7.016,3.388,9.039c-11.453,2.148-22.721,3.62-34.363,1.68   c-6.213-1.035-11.76-2.459-17.604-4.868c-3.075-1.268-6.136-2.561-9.193-3.87c-2.639-1.129-4.534-3.323-7.005-4.617   c10.867,5.694,21.427,9.856,33.755,10.978c6.191,0.563,12.342,1.222,18.559,0.855c2.492-0.146,5.075,0.078,7.542-0.196   c0.563-0.063,3.813-0.009,4.167-0.715c0.826-1.65-1.278-1.433-1.97-1.377c-24.88,2.017-48.928-0.796-68.81-17.371   c-3.652-3.045-8.685-8.027-10.192-12.51c11.854,9.414,23.371,18.588,38.239,22.689c8.083,2.229,15.615,3.673,24.032,3.673   C82.387,187.489,93.586,187.581,96.979,184.1" id="path13" style="fill:#CCA300;"></path>

	<path d="M122.588,194.646c-21.293,10.646-43.079,21.199-61.766,36.154   c-3.69,2.953-10.771,7.789-11.674,12.805c-1.152,6.393,9.452,5.662,13.429,5.066c12.192-1.827,24.302-5.438,35.906-9.586   c22.56-8.065,44.681-18.404,65.643-29.969c11.044-6.093,21.771-12.773,31.931-20.26c4.293-3.164,9.128-6.927,11.759-11.662   c4.214-7.587-3.078-8.256-9.096-7.882c-13.118,0.816-26.203,5.47-38.469,9.89C147.473,183.807,135.066,189.297,122.588,194.646" id="path15" style="fill:#CCA300;"></path>

	<path d="M197.532,184.1c-3.671-3.174-11.845-1.045-16.015,0.053c-5.826,1.534-11.634,3.113-17.281,5.231   c-11.569,4.339-22.952,8.946-34.229,13.999c-11.038,4.947-21.958,10.415-32.509,16.323c-9.725,5.446-20.728,10.962-28.687,18.922   c-2.07,2.071-5.289,4.683-4.598,7.988c-2.655-10.335,14.412-20.077,21.564-24.503c10.089-6.243,20.668-11.56,31.38-16.632   c21.661-10.255,44.787-20.173,68.482-24.356c2.191-0.387,4.73-0.04,6.936,0.205C193.977,181.486,197.788,183.936,197.532,184.1" id="path17"></path>

	<path d="M70.616,262.436c11.597-1.567,23.291-2.588,34.629-5.509c13.395-3.45,25.664-7.582,38.58-12.567   c21.399-8.26,42.839-23.035,59.005-39.193c3.741-3.74,7.695-7.422,10.9-11.65c-12.562,10.465-26.475,19.722-41.053,27.115   c9.586-6.975,18.437-14.671,27.287-22.54c3.229-2.87,8.8-7.37,9.998-11.732c1.018-3.705-2.677-3.693-4.67-1.757   c-17.872,17.362-37.319,31.294-59.782,42.243c-15.575,7.592-32.02,15.016-48.816,19.496c-7.873,2.101-15.851,4.414-23.973,5.368   c-6.643,0.779-15.991,3.181-22.445,0.935C49.32,263.322,65.229,262.436,70.616,262.436" id="path19" style="fill:#FFE64D;"></path>

	<path d="M164.016,222.891c-11.129,7.796-24.5,11.313-36.533,17.325c1.145,2.774-3.478,6.114-5.273,7.909   c9.497-2.038,18.534-5.762,26.937-10.66C153.333,235.024,168.195,229.228,164.016,222.891" id="path21"></path>

	<path d="M155.354,120.451c0-11.854-1.592-23.753-9.642-33.151c-3.825-4.466-7.771-8.965-12.705-12.252   c-5.044-3.361-10.741-5.338-16.323-7.648c-20.942-8.664-47.439-6.139-66.032,6.728c-18.381,12.72-29.971,38.504-25.073,60.587   c2.504,11.288,7.487,21.995,16.422,29.648c8.717,7.468,18.937,13.65,30.189,16.459c1.362,0.34,2.822,0.379,4.076,1.019   c-12.273-1.756-23.649-4.698-34.371-11.131c-9.119-5.471-16.151-15.634-19.875-25.559c-4.329-11.537-5.957-23.745-3.672-35.942   c1.999-10.67,6.04-22.343,13.474-30.603c8.306-9.229,16.902-16.102,28.209-21.382c9.855-4.602,23.042-8.619,34.102-7.177   c11.625,1.514,23.973,3.639,33.978,10.313c9.82,6.55,18.513,14.082,24.526,24.39c1.627,2.79,3.375,5.981,4.602,8.962   c0.663,1.611,0.899,3.315,1.693,4.896c0.696,1.386-2.328,3.005-1.996,4.496C157.762,106.806,159.04,118.037,155.354,120.451" id="path23"></path>

	<path d="M66.471,76.765c-2.452,1.215-2.105,4.142,0.189,4.142c1.251,0,1.929-1.475,1.694-2.635   C68.197,77.494,67.082,77.057,66.471,76.765" id="path25"></path>

	<path d="M74.757,72.999c-2.227,0.758-1.867,4.013,0.375,3.766C77.161,76.542,77.195,73.34,74.757,72.999" id="path27"></path>

	<path d="M70.616,86.555c0.567,2.25,2.935,9.416,5.272,9.416c3.601,0-4.009,2.847-4.521,3.391c-0.664-0.733-0.295-0.837,0.377-1.507   c1.223-1.221-1.031-4.148-1.568-5.299c-1.007-2.159-2.048-5.733-3.704-7.129c-0.46-0.388-1.695-0.489-2.258-0.754   c1.533-1.088,3.776-2.689,5.854-1.482c3.446,2.001,6.893,4.002,10.339,6.003c-1.321-2.906-3.156-6.651-4.521-8.661   c-0.185-0.272-3.125-0.06-0.68-1.107c1.587-0.681,3.737-1.525,4.826-2.284c0.605,0.69-0.029,1.364-1.134,1.883   c0,0.125,0,0.251,0,0.377c1.048,0.952,6.658,13.037,6.129,13.339c-3.186,1.819-3.794,0.499-6.972-1.388   C76.121,90.202,71.546,88.501,70.616,86.555" id="path29"></path>

	<path d="M110.161,171.671c1.096,0.671,3.767,0.004,3.767-1.317c0-3.689-6.344-2.282-8.852-3.955   c-3.605-2.404-1.248-7.752,2.068-9.038c1.149-0.445,5.274-1.12,5.274,0.94c0,0.711,2.587,3.257-0.375,2.826   c-1.465-0.213-1.708-2.014-3.391-1.884c-0.493,0.038-2.259,1.096-2.259,1.695c0,4.115,4.292,2.621,7.719,3.766   c5.003,1.671,2.687,7.203-0.564,8.85c-0.871,0.44-4.896,1.74-4.896-0.188c0-0.471-1.13-1.191-1.13-1.883   C107.523,169.932,109.272,170.695,110.161,171.671" id="path31"></path>

	<path d="M94.342,92.205c-1.998,1.215-0.909,8.474-0.952,10.713c-0.055,2.856-1.334,8.255,0.573,10.754   C94.091,106.518,94.287,99.36,94.342,92.205" id="path33" style="fill:#FFFFFF;"></path>

	<path d="M81.161,109.529c1.882-0.47,3.679-0.758,5.649-1.129c-6.152-12.178-12.304-24.355-18.456-36.533   c2.319,6.692,4.638,13.384,6.957,20.076c1.52,4.388,3.041,8.775,4.561,13.163C80.212,106.085,81.936,109.963,81.161,109.529" id="path35" style="fill:#FFFFFF;"></path>

	<path d="M140.29,95.971c0.445-0.124,0.348-0.175,0.752-0.376c-0.549-1.042-0.435-1.69,0.377-1.883   c0.738,1.043,4.889,10.551,3.953,11.486c-0.819,0.819-2.539,1.339-3.199,1.696c0.013,0.007-1.507-1.508-0.566-1.508   c2.908,0,0.037-5.461-0.188-6.024c-2.414,1.006-6.354,1.63-3.391,4.895c0.428,0.472,2.01,0.184,2.262,0.754   c0.807,1.825-5.011,3.417-5.648,1.883c2.284-1.565,0.974-2.504,0.375-4.897c-1.328,0.442-5.565,0.752-4.74,2.612   c0.207,0.466,1.202,3.414,1.537,3.414c0.341,0,2.694,0.953,2.828,1.129c1.526,2.01-2.778,1.093-4.146,1.883   c-1.187-3.239-2.374-6.478-3.561-9.717c-0.14-0.379-0.795-1.479-0.58-1.957c0.079-0.177,0.756-0.785,0.756-0.189   C127.11,102.594,138.634,96.612,140.29,95.971" id="path37"></path>

	<path d="M46.887,143.425c3.13-0.164,6.264-0.608,9.383-0.931c3.154-0.326,3.61,2.405,1.27,4.106   c-3.574,2.599-10.873,5.717-11.404,10.006c-0.126,0-0.252,0-0.378,0c-0.633-1.054-1.358-3.309-1.964-4.885   c-0.734-1.91,0.269-1.028,0.46-1.142c0.058-0.034,1.722,0.04,1.882,0c2.581-0.642,5.669-3.779,7.908-5.272   c-3.268,0.252-7.989-0.004-10.544,1.131c-0.319,0.142,0.095,1.644-0.754,1.506c-0.867-0.141-1.753-3.685-2.154-4.646   c-0.925-2.219,2.154,0.084,2.154-0.438c0-1.069,6.896-4.863,8.286-5.837c-3.791,0.454-10.125-0.321-11.299,3.012   c-0.461-0.789-2.696-5.04-1.507-5.649c0.412-0.211,1.025,1.129,1.318,1.129c1.186,0,2.37-0.136,3.551-0.224   c3.031-0.228,6.061-0.455,9.092-0.682c2.586-0.194,2.794-0.736,3.718,1.728C56.694,138.446,49.029,142.771,46.887,143.425" id="path39"></path>

	<path d="M45.004,119.699c1.927,1.499,6.501,3.35,8.286,1.882c-0.291,1.402-0.903,3.408-1.883,4.143   c0.645-2.845-8.623-5.292-10.544-3.766c0.976-5.083,6.059-4.572,10.544-5.648c-2.538-0.952-5.945-3.155-7.907-1.508   c0.321-1.538,1.186-2.98,1.505-4.519c0.126,0,0.252,0,0.378,0c-0.106,0.538,0.135,0.202,0.375,0.377   c-0.799,2.073,7.872,4.156,9.794,4.896C55.305,118.433,46.944,120.546,45.004,119.699" id="path41"></path>

	<path d="M51.786,104.256c2.083,1.472,4.167,2.944,6.25,4.416c0.241,0.17-0.325,2.18-0.601,2.363   c-0.534,0.354-3.104-0.332-3.713-0.397c-3.047-0.326-6.48-1.311-8.718,0.022c0.181-0.871,2.261-5.966,2.261-3.203   c0,0.402,6.721,0.853,7.533,0.943c-2-1.375-5.121-4.917-7.533-3.766c0.193-1.448,0.9-3.267,1.504-4.143c0.126,0,0.252,0,0.379,0   c-0.412,2.713,5.528,1.765,7.533,1.883c-1.898-1.266-3.923-3.055-6.029-3.766c-0.421-0.142-0.784,0.097-1.504,0   c0.919-0.505,1.342-2.557,1.504-3.765c0.126,0,0.253,0,0.379,0c-0.475,2.779,4.125,4.382,6.233,5.787   c1.203,0.801,4.912,2.406,2.429,4.381C58.707,105.795,53.177,104.389,51.786,104.256" id="path43"></path>

	<path d="M103.003,79.777c-0.402,2.736-3.257,6.146-1.508,8.287c-1.401-0.293-3.401-0.908-4.142-1.883   c2.687,0.362,5.276-8.709,3.767-10.547c5.084,0.981,4.573,6.057,5.649,10.547c0.857-2.43,3.096-5.968,1.509-7.909   c1.537,0.321,2.979,1.185,4.516,1.506c-0.213,0.252-0.178,0.482-0.375,0.754c-2.553-1.436-4.167,7.684-4.896,9.79   C104.247,90.043,103.373,82.408,103.003,79.777" id="path45"></path>

	<path d="M113.928,81.66c-0.419-0.433-0.691-0.785-0.754-1.506c2.739,0.492,5.473,1.698,8.13,2.583   c0.392,0.13-0.599,2.131-0.599,2.5c0,1.352-1.129,0.019-1.129-0.927c0-0.675-0.922-0.922-1.697-1.145   c-2.014-0.576-1.945,0.878-2.823,2.637c1.923,0.202,2.435,2.095,3.766,0c0.505,0.668,0.141,3.824-0.754,4.144   c-0.474,0.169-1.494-2.436-3.391-2.638c-0.465,1.396-1.938,3.37-0.397,3.884c2.946,0.984,1.904-0.495,4.353-0.495   c1.402,0-0.665,2.691-0.939,3.389c-2.331-0.847-4.661-1.694-6.992-2.542c-1.754-0.638-0.998-0.531-0.92-1.225   c-0.104,0.923,1.567-1.58,1.6-1.669C112.231,86.321,113.079,83.991,113.928,81.66" id="path47"></path>

	<path d="M140.29,134.009c1.138-0.129,1.883-0.983,1.883-2.448c0-1.988-4.977,0.982-6.025,1.507   c-4.546,2.276-4.701-6.746-0.756-8.474c0.466,0.39,1.285,1.13,2.072,1.13c0.745,0-0.193,1.133-0.189,1.129   c-0.441,0.44-2.15-0.035-2.633,0.377c-1.206,1.03-0.379,1.517-0.379,2.824c0,1.47,4.873-1.495,5.65-1.883   c4.1-2.05,4.25,5.432,2.26,6.97C139.133,137.488,138.407,132.758,140.29,134.009" id="path49"></path>

	<path d="M138.782,137.398c0.693,0.052,1.112,0.152,1.883-0.375c-0.793,2.715-2.757,5.39-4.141,7.907   c-0.73-0.531-2.637-0.943-2.637-1.694c0-0.83,0.548-0.563,1.318-0.563c1.39,0,1.606-1.377,2.447-2.638   c-1.004-0.628-2.008-1.255-3.012-1.883c-0.342,0.694-0.774,1.519-1.321,2.071c-0.455,0.46,0.567,0.585,0.567,1.129   c0,0.621-0.304,0.787-0.754,0.943c-0.537-0.912-1.875-1.577-3.014-1.884c0.163-0.341,0.675-0.565,0.754-0.754   c0.073-0.175,1.001,0.158,1.129,0c0.383-0.472,0.783-1.635,1.131-2.26c-1.002-0.572-2.536-1.202-3.014-1.883   c-0.97,1.373-1.896,2.609-0.947,4.506c0.757,1.513-0.895,0.768-1.123,0.768c-4.157,0,2.005-7.932,2.445-9.415   c1.134,0.301,0.268,1.25,0.754,1.883C132.27,134.588,138.053,137.603,138.782,137.398" id="path51"></path>

	<path d="M78.524,169.035c0.649,1.225,3.391,2.67,3.391-0.188c0-0.722-2.377-3.058-2.827-3.954   c-0.759-1.509-0.144-3.174,1.318-4.143c2.799-1.855,4.154,1.129,5.837,1.129c1.145,0,0.449,4.059-0.942,3.392   c-1.317-0.632,0.347-4.094-2.637-3.392c-3.325,0.782,0.747,4.117,1.696,6.025c1.51,3.035-2.193,4.817-4.708,4.144   c-2.404-0.645-2.258-2.188-2.258-3.578C77.395,166.337,79.477,168.731,78.524,169.035" id="path53"></path>

	<path d="M69.862,163.387c0.347,0.268,2.976-4.088,3.695-5.166c1.021-1.531,3.15-1.442,3.005,0.652   c-0.14,2.023-2.002,10.029,0.079,10.914c0,0.126,0,0.251,0,0.377c-1.328-0.024-2.53-0.592-3.79-1.012   c-1.275-0.425-0.315-0.477-0.352-0.871c0.093,0.994,0.752-1.133,0.751-1.129c0.613-1.939,0.515-4.376,0.753-6.402   c-0.964,1.446-5.229,6.121-3.387,6.777c-0.002,0.005-0.377,0.842-0.378,0.754c-0.425-0.306-5.325-2.259-3.2-2.259   c1.231,0,1.177-6.279,1.317-7.533c-1.186,1.778-4.995,5.317-3.766,7.533c-5.732-1.104-2.837-1.477-0.598-4.507   c1.919-2.596,3.318-6.893,6.648-5.779C71.511,156.028,69.92,163.517,69.862,163.387" id="path55"></path>

	<path d="M63.083,33.454c-2.455-10.033-22.348-3.33-18.83,7.155c3.543-1.32,7.087-2.64,10.63-3.96   C56.234,36.146,63.14,33.518,63.083,33.454" id="path57"></path>

	<path d="M46.511,38.727c1.163,2.325,2.325,4.649,3.488,6.974c0.607,1.215,4.822-1.519,5.884-2.004   c2.494-1.14,4.987-2.279,7.481-3.419c0.252-0.115-2.251-6.075-2.542-6.822C57.944,34.59,48.555,39.787,46.511,38.727" id="path59"></path>

	<path d="M57.81,8.598c9.445,5.128,11.218,16.614,6.18,25.435c-5.888,10.308-19.554,9.872-27.669,3.105   c-8.724-7.273-6.454-20.819,1.552-27.494c3.574-2.979,9.504-4.121,13.913-3.306c1.642,0.303,4.038,1.932,5.649,1.883   c1.896-0.058,3.241-3.36,4.516-5.273C51.919-0.797,42.845-1.838,33.678,5.04c-9.108,6.834-12.839,20.181-6.556,30.234   c6.378,10.205,18.082,14.913,29.654,11.445c10.822-3.243,18.653-13.995,17.226-25.318c-0.66-5.237-2.478-9.632-6.024-13.558   c-0.881-0.975-4.596-5.076-6.027-4.896C60.541,3.125,59.299,7.932,57.81,8.598" id="path61"></path>

	<path d="M48.769,5.96c3.131,0,7.132,0.139,9.416,2.638c1.255-1.883,2.511-3.767,3.766-5.65C57.557,3.952,53.163,4.956,48.769,5.96" id="path63"></path>

	<path d="M86.811,97.854c0,4.648-0.193,6.153,2.637,9.792C88.568,104.382,87.689,101.118,86.811,97.854" id="path65" style="fill:#FFFFFF;"></path>

	<path d="M79.653,109.529c-3.138-2.762-6.277-5.523-9.415-8.285c-5.006,3.913,10.877,8.167,9.794,12.805   c-5.775-0.251-11.551-0.503-17.327-0.754c1.632,0.753,3.263,1.507,4.895,2.26c-13.934-0.502-27.869-1.004-41.803-1.506   c0,0.645-0.082,6.398,0.038,6.403c1.336,0.059,2.673,0.117,4.009,0.176c6.913,0.303,13.826,0.606,20.739,0.91   c5.749,0.252,11.498,0.504,17.246,0.756c4.026,0.177,8.392,2.536,12.202,3.806c-2.165,0.088-18.456,0.239-18.456,1.144   c0,2.242,5.542,1.115,7.419,1.115c3.552,0,7.105,0,10.657,0c-5.398,2.385-10.795,4.771-16.193,7.156   c5.524-0.502,11.048-1.004,16.573-1.506c-3.893,3.892-7.785,7.784-11.678,11.675c2.438,2.99,4.583-0.968,6.657-2.868   c2.929-2.684,5.858-5.368,8.787-8.053c-1.633,5.523-3.267,11.046-4.9,16.569c3.893-4.645,7.786-9.29,11.679-13.935   c0.226,4.364,0.451,8.729,0.676,13.094c0.123,2.378,0.245,4.755,0.368,7.133c0.108,2.096,0.468,1.722,2.72,1.618   c-0.126-5.021-0.252-10.043-0.379-15.064c5.524,8.662,11.049,17.323,16.573,25.985c-3.641-10.922-7.282-21.844-10.923-32.766   c5.649,5.774,11.298,11.55,16.948,17.324c-3.515-6.527-7.03-13.055-10.545-19.582c3.736,2.879,7.472,5.759,11.208,8.638   c2.015,1.554,4.03,3.106,6.046,4.66c1.472,1.134,2.009-0.745,3.085-2c-7.532-5.9-15.064-11.801-22.596-17.702   c8.411,0.753,16.822,1.507,25.233,2.26c-8.035-2.636-16.069-5.273-24.104-7.909c8.285-0.753,16.571-1.506,24.856-2.26   c0.445-3.591-7.8-1.165-9.873-0.964c-4.618,0.447-9.236,0.894-13.854,1.341c5.398-3.892,10.795-7.784,16.194-11.676   c-6.778,2.134-13.557,4.269-20.335,6.403c5.649-5.901,11.299-11.801,16.949-17.702c-2.482-3.54-6.573,3.184-8.446,5.057   c-3.462,3.462-6.924,6.923-10.386,10.385c2.511-7.156,5.021-14.312,7.532-21.468c-4.018,6.152-8.035,12.304-12.053,18.456   c0-3.445,0-6.891,0-10.336c0-1.907,1.152-9.249-1.061-9.249c-1.661,0-1.936-0.418-1.997,1.162c-0.09,2.335-0.18,4.67-0.27,7.005   c-0.146,3.806-0.292,7.612-0.439,11.417c-1.758-5.398-3.516-10.797-5.273-16.195c-0.125,3.013-0.25,6.025-0.375,9.038   c-3.438-6.661-6.876-13.322-10.314-19.982c-2.125-4.118-4.251-8.236-6.377-12.354c-0.733-1.42-1.216-3.118-2.894-3.441   c-0.628,5.336,3.548,12.426,5.188,17.3c1.922,5.713,3.845,11.426,5.768,17.139c0.681,2.023,1.361,4.046,2.042,6.069   C79.72,108.979,80.506,110.047,79.653,109.529" id="path67"></path>

	<path d="M79.653,116.685c-9.714-0.277-19.429-0.555-29.143-0.833c-6.081-0.174-12.161-0.348-18.241-0.521   c-4.92-0.141-5.247-1.199-5.717,3.991c10.319,0.292,20.638,0.585,30.958,0.878c6.07,0.172,12.14,0.344,18.21,0.517   C78.597,120.798,81.859,120.974,79.653,116.685" id="path69" style="fill:#B2B2B2;"></path>

	<path d="M83.044,112.543c-5.267,2.595-1.414,9.468,3.766,6.402C91.854,115.96,87.872,109.039,83.044,112.543   " id="path71" style="fill:#FFE699;"></path>

	<path d="M83.419,112.918c-0.902,1.074-2.274,2.758-1.504,4.144c0.739,1.33,3.331,1.569,4.329,0.565   c1.637-1.646,1.32-1.925,1.32-3.766C87.564,112.154,83.641,112.958,83.419,112.918" id="path73"></path>

	<path d="M104.132,98.607c-2.082,3.44-4.165,6.881-6.247,10.321c-1.535,2.536-3.708,4.992-2.058,7.928   c1.935,3.442,6.186,11.521,1.526,14.517c2.831,7.067,9.73,11.988,15.065,17.323c-3.014-5.9-6.027-11.8-9.041-17.7   c3.47,2.814,6.94,5.63,10.41,8.444c1.517,1.23,8.889,8.728,10.307,6.997c-7.406-6.152-14.813-12.304-22.22-18.456   c6.151,0.377,12.302,0.754,18.453,1.131c-5.774-2.009-11.549-4.017-17.324-6.026c4.395-3.515,8.789-7.03,13.183-10.544   c-6.277,1.757-12.555,3.515-18.833,5.272C98.434,114.917,105.539,100.042,104.132,98.607" id="path75" style="fill:#B2B2B2;"></path>

	<path d="M71.745,122.334c3.012,0.879,6.024,1.757,9.037,2.636c-0.708-2.493-0.379-2.636-2.898-2.636   C75.837,122.334,73.792,122.334,71.745,122.334" id="path77" style="fill:#B2B2B2;"></path>

	<path d="M80.407,129.114c-4.143,1.757-8.286,3.515-12.428,5.272c4.896-0.628,9.791-1.255,14.687-1.883   C82.604,130.24,81.92,129.532,80.407,129.114" id="path79" style="fill:#B2B2B2;"></path>

	<path d="M85.682,134.386c-1.633,4.394-3.267,8.788-4.9,13.182c2.889-3.641,5.777-7.281,8.666-10.922   C88.192,135.893,86.937,135.14,85.682,134.386" id="path81" style="fill:#B2B2B2;"></path>

	<path d="M95.847,130.62c3.265,9.416,6.529,18.832,9.794,28.247c-5.398-8.662-10.795-17.324-16.193-25.986   c-2.205,1.556-2.991-1.506-4.709-1.506c-1.469,0-0.454-3.142-0.564-3.392c-0.35-0.787-2.258-1.567-2.258-2.447   c0-1.373-0.159-2.802,0.375-3.955c1.115,2.053,2.688,4.587,4.331,6.214c1.515,1.5,3.998,0.543,5.823-0.37   c6.182-3.09,1.285-8.108-0.739-12.247C96.606,115.458,100.454,128.2,95.847,130.62" id="path83" style="fill:#B2B2B2;"></path>

	<path d="M58.939,255.656c1.876,3.541,3.053,3.505,7.12,4.083c3.757,0.534,9.264,1.166,12.839-0.316   c-3.266,0.38-4.931-2.023-6.024-4.52C68.151,256.588,63.701,255.637,58.939,255.656" id="path85" style="fill:#CCA300;"></path>

</g>


  
</svg>
