<?xml version="1.0" encoding="UTF-8" standalone="no"?>
<!-- Generator: Adobe Illustrator 12.0.0, SVG Export Plug-In . SVG Version: 6.00 Build 51448)  --><svg height="271.167" id="Layer_1" inkscape:version="0.40+cvs" sodipodi:docbase="F:\openclip\svg3" sodipodi:docname="Mattone poroton.svg" sodipodi:version="0.32" style="overflow:visible;enable-background:new 0 0 222.12 271.167;" version="1.0" viewBox="0 0 222.12 271.167" width="222.12" xml:space="preserve" xmlns="http://www.w3.org/2000/svg" xmlns:cc="http://web.resource.org/cc/" xmlns:dc="http://purl.org/dc/elements/1.1/" xmlns:inkscape="http://www.inkscape.org/namespaces/inkscape" xmlns:rdf="http://www.w3.org/1999/02/22-rdf-syntax-ns#" xmlns:sodipodi="http://inkscape.sourceforge.net/DTD/sodipodi-0.dtd" xmlns:svg="http://www.w3.org/2000/svg" xmlns:xml="http://www.w3.org/XML/1998/namespace"><metadata><rdf:RDF xmlns:cc="http://web.resource.org/cc/" xmlns:dc="http://purl.org/dc/elements/1.1/" xmlns:rdf="http://www.w3.org/1999/02/22-rdf-syntax-ns#"><cc:Work rdf:about=""><dc:title>mattone poroton</dc:title><dc:description></dc:description><dc:subject><rdf:Bag><rdf:li>unsorted</rdf:li></rdf:Bag></dc:subject><dc:publisher><cc:Agent rdf:about="http://www.openclipart.org"><dc:title>Architetto Francesco Rollandin</dc:title></cc:Agent></dc:publisher><dc:creator><cc:Agent><dc:title>Architetto Francesco Rollandin</dc:title></cc:Agent></dc:creator><dc:rights><cc:Agent><dc:title>Architetto Francesco Rollandin</dc:title></cc:Agent></dc:rights><dc:date></dc:date><dc:format>image/svg+xml</dc:format><dc:type rdf:resource="http://purl.org/dc/dcmitype/StillImage"/><cc:license rdf:resource="http://web.resource.org/cc/PublicDomain"/><dc:language>en</dc:language></cc:Work><cc:License rdf:about="http://web.resource.org/cc/PublicDomain"><cc:permits rdf:resource="http://web.resource.org/cc/Reproduction"/><cc:permits rdf:resource="http://web.resource.org/cc/Distribution"/><cc:permits rdf:resource="http://web.resource.org/cc/DerivativeWorks"/></cc:License></rdf:RDF></metadata>
<defs id="defs494"></defs>
<sodipodi:namedview bordercolor="#666666" borderopacity="1.0" id="base" inkscape:current-layer="Layer_1" inkscape:cx="111.05999" inkscape:cy="135.58350" inkscape:pageopacity="0.0" inkscape:pageshadow="2" inkscape:window-height="540" inkscape:window-width="640" inkscape:window-x="110" inkscape:window-y="110" inkscape:zoom="1.3939750" pagecolor="#ffffff"></sodipodi:namedview>

<g id="g3">
	<path d="M99.985,0c26.996,25.289,53.342,51.259,80.208,76.685c13.401,12.683,26.942,25.208,40.615,37.598   c2.902,2.63,0.086,20.627,0.086,25.007c0,9.399,0,18.799,0,28.198c0,6.371,0.01,12.74-0.129,19.109   c-0.047,2.173,0.8,17.035-0.879,18.125c-10.95,7.11-21.877,14.292-32.633,21.693c-22.028,15.158-44.152,30.188-66.578,44.752   c-2.891-6.947-7.929-12.526-12.606-18.297c-5.714-7.05-10.984-14.45-16.645-21.562c-10.559-13.264-21.112-26.531-31.654-39.81   c-11.513-14.502-23.11-28.937-34.641-43.424c-5.204-6.537-10.413-13.072-15.689-19.551c-2.468-3.031-7.997-7.53-9.152-11.238   c-0.989-3.172,0.881-9.528,1.072-12.975c0.87-15.71,0.737-31.885,0.737-47.613c0-7.936-0.016-15.774-1.034-23.66   c-0.587-4.551,13.929-6.564,17.975-8.082c2.16-0.811,2.596-2.143,4.252-0.211c1.035,1.207,2.069,2.414,3.104,3.621   c2.038,2.377,4.862,4.815,7.902,5.771c7.197,2.263,16.748-3.787,23.277-6.465c3.957-1.623,7.882-3.296,11.896-4.784   c2.53-0.938,11.587-2.662,12.479-4.979c3.014-7.831-1.543-15.935,9.828-17.198C94.619,0.395,97.168,1.023,99.985,0" id="path5"></path>

	<path d="M98.692,2.716c39.536,37.787,79.393,75.245,118.061,113.924   c-15.305,8.625-30.468,17.498-45.773,26.121c-7.691,4.333-15.386,8.66-23.147,12.866c-3.945,2.138-7.898,4.258-11.855,6.374   c-2.568,1.373-9.001,6.455-11.423,5.975c-2.595-0.515-7.654-8.903-9.413-10.949c-2.634-3.064-5.3-6.099-7.965-9.136   c-6.148-7.007-12.359-13.955-18.576-20.901c-11.972-13.376-24.151-26.582-36.253-39.841C36.189,69.446,20.422,51.399,4.941,33.104   c3.705-1.572,7.562-2.865,11.38-4.138c5.2-1.733,7.53,2.942,11.585,5.805c9.384,6.625,19.13,0.754,28.453-2.924   c10.344-4.081,20.744-8.036,31.09-12.119c8.935-3.526,7.704-7.271,1.805-13.909C92.377,4.674,95.871,3.146,98.692,2.716" id="path7" style="fill:#C24300;"></path>

	<path d="M126.493,42.285c1.775,6.187-5.289,7.6-9.524,8.917c-7.705,2.398-15.21,5.482-22.671,8.54   c-7.431,3.044-14.717,6.442-22.147,9.482c-5.04,2.062-11.644,5.402-17.036,2.156c-2.639-1.589-5.082-5.63-7.047-7.953   c-1.676-1.98-8.282-7.14-8.178-9.5c0.393-8.949,10.387-11.238,17.496-13.606c7.981-2.659,15.94-6.062,23.85-9.028   c7.53-2.823,17.949-9.369,25.869-6.959C114.957,26.724,121.102,37.378,126.493,42.285" id="path9"></path>

	<path d="M92.097,34.655c-0.948-0.081-1.914-0.435-2.843-0.646c0.646-0.302,1.293-0.603,1.939-0.905   C91.3,33.586,92.06,34.554,92.097,34.655" id="path11" style="fill:#822F00;"></path>

	<path d="M81.495,44.742c-1.336-0.215-2.672-0.431-4.008-0.646c0.462-1.711,0.331-3.615-0.518-5.173   C78.49,40.969,78.889,44.643,81.495,44.742" id="path13" style="fill:#822F00;"></path>

	<path d="M73.994,41.121c-0.256,0.841-0.028,1.393-1.293,1.293c0-0.604,0-1.207,0-1.81   C73.146,41.181,73.518,41.008,73.994,41.121" id="path15" style="fill:#822F00;"></path>

	<path d="M85.761,42.802c0,0.431,0,0.862,0,1.293C84.386,42.777,84.347,42.306,85.761,42.802" id="path17" style="fill:#822F00;"></path>

	<path d="M65.588,46.552c-0.301,0.431-0.603,0.862-0.904,1.293c-0.208-2.943-3.333-2.445-4.269-4.914   C62.138,44.335,64.564,44.495,65.588,46.552" id="path19" style="fill:#822F00;"></path>

	<path d="M69.728,44.096c0.043,0.431,0.086,0.862,0.129,1.293C67.272,44.489,68.033,43.311,69.728,44.096" id="path21" style="fill:#822F00;"></path>

	<path d="M55.761,52.372c-1.166-1.015-2.019-2.328-1.164-3.621C55.274,49.854,55.77,51.478,55.761,52.372" id="path23" style="fill:#822F00;"></path>

	<path d="M79.813,51.725c-0.183-0.501-0.6-1.839-0.387-2.974C80.001,49.771,79.914,50.792,79.813,51.725" id="path25" style="fill:#822F00;"></path>

	<path d="M59.641,49.915c0.146,1.385,0.165,2.524,0.775,3.75c-2.32,0.228-3.668,2.561-2.458,4.655   c-2.853-4.374,2.895-3.871,0.778-8.276C58.876,50.062,60.037,49.854,59.641,49.915" id="path27" style="fill:#822F00;"></path>

	<path d="M51.624,54.57c-0.282-0.941-0.518-1.897-0.776-2.845C51.289,52.607,51.522,54.111,51.624,54.57" id="path29" style="fill:#822F00;"></path>

	<path d="M66.753,52.372C64.473,56.113,62.238,51.099,66.753,52.372" id="path31" style="fill:#822F00;"></path>

	<path d="M159.987,76.035c2.339,8.794-9.647,10.014-15.26,13.061c-7.798,4.233-15.666,8.318-23.793,11.897   c-3.837,1.689-7.692,3.369-11.557,4.995c-3.788,1.594-8.968,5.046-13.012,5.48c-8.704,0.933-14.229-9.458-18.925-14.985   c-2.427-2.857-6.104-4.102-6.486-8.228c-0.31-3.352,1.747-6.265,4.461-8.082c6.705-4.489,16.447-6.69,23.89-9.904   c7.656-3.306,15.292-6.639,22.922-10.01c7.525-3.325,14.082-7.239,21.631-1.487C150.201,63.604,154.493,70.344,159.987,76.035" id="path33"></path>

	<path d="M52.787,61.294c-0.287,0.891-0.711,1.196-0.646,2.198C51.294,62.335,51.413,61.413,52.787,61.294" id="path35" style="fill:#822F00;"></path>

	<path d="M75.158,64.656c-1.724,0.164-1.79-1.641-1.682-3.362C74.576,62.13,75.202,63.678,75.158,64.656" id="path37" style="fill:#822F00;"></path>

	<path d="M56.279,65.432c0.135-0.824,0.345-1.64,0.518-2.457C57.071,64.099,56.538,64.574,56.279,65.432" id="path39" style="fill:#822F00;"></path>

	<path d="M113.952,73.062c-2.598-0.259-4.654-1.924-6.984-2.974c1.03-0.79,10.389,3.622,8.277-3.621   C116.541,68.868,113.278,70.564,113.952,73.062" id="path41" style="fill:#822F00;"></path>

	<path d="M125.718,70.604c-3.88,2.687-2.731-6.858-6.336-2.199c1.5,2.038-0.938,2.077-2.455,1.035   c1.139-0.737,3.82-3.38,5.301-2.975C124.233,67.017,123.012,70.884,125.718,70.604" id="path43" style="fill:#822F00;"></path>

	<path d="M30.157,73.062c-0.918-1.524-2.939-2.715-3.879-2.974C28.073,70.537,29.859,71.435,30.157,73.062" id="path45" style="fill:#822F00;"></path>

	<path d="M23.304,74.225c-1.824,0.318-3.757,0.436-4.785-1.164C20.194,73.132,22.566,73.251,23.304,74.225" id="path47" style="fill:#822F00;"></path>

	<path d="M102.185,75.26c-0.425-0.708-0.777-1.468-1.164-2.198C102.048,73.746,101.835,74.4,102.185,75.26" id="path49" style="fill:#822F00;"></path>

	<path d="M10.76,73.579c0.145,0.359,1.226,0.179,0.777,1.681c-0.215,0-0.431,0-0.646,0   C10.928,74.916,10.779,73.697,10.76,73.579" id="path51" style="fill:#822F00;"></path>

	<path d="M113.952,76.035c-0.418,1.154-1.087,1.668-1.164,2.975   C111.196,77.643,112.307,75.841,113.952,76.035" id="path53" style="fill:#822F00;"></path>

	<path d="M122.874,79.397c-6.796-4.625-3.019,2.796-6.336,2.975C118.062,77.898,118.58,74.527,122.874,79.397   " id="path55" style="fill:#822F00;"></path>

	<path d="M126.493,77.717c-1.196-0.046-2.051-0.021-2.844-1.164   C124.771,76.569,125.859,77.165,126.493,77.717" id="path57" style="fill:#822F00;"></path>

	<path d="M18.39,83.665c-2.428-0.298-6.893-2.916-5.043-5.431C13.452,81.543,17.568,81.229,18.39,83.665" id="path59" style="fill:#822F00;"></path>

	<path d="M31.45,83.665c-1.148-0.55-2.757-3.061-3.943-2.586c-2.249,0.897-3.743-1.422-1.229-2.845   C26.522,82.574,34.191,78.646,31.45,83.665" id="path61" style="fill:#822F00;"></path>

	<path d="M101.667,80.69c-0.69,0.471-1.785-0.317-2.844-1.681C100.401,78.168,101.405,79.218,101.667,80.69" id="path63" style="fill:#822F00;"></path>

	<path d="M108.778,80.69c-0.829,1.375-2.354,2.534-2.973,4.073c-0.482,1.2,2.386,3.397-0.13,3.039   c-4.874-0.694,2.58-5.314,1.293-7.629C107.854,80.073,108.434,80.444,108.778,80.69" id="path65" style="fill:#822F00;"></path>

	<path d="M23.304,81.208c0.043,0.646,0.086,1.293,0.129,1.94c-0.689,0-1.379,0-2.068,0   C21.346,81.228,22.133,80.392,23.304,81.208" id="path67" style="fill:#822F00;"></path>

	<path d="M127.53,85.346c-0.562,0.259-1.122,0.518-1.684,0.776c0.26-1.811,0.52-3.621,0.779-5.432   C128.034,81.917,127.568,83.573,127.53,85.346" id="path69" style="fill:#822F00;"></path>

	<path d="M4.941,84.053c-0.172-0.689-0.344-1.379-0.517-2.069c0.431,0.561,0.862,1.121,1.293,1.681   C5.709,83.673,4.822,84.458,4.941,84.053" id="path71" style="fill:#822F00;"></path>

	<path d="M36.882,87.803c-0.971-0.016-2.021-0.439-2.974-0.646c1.177-0.99,1.503-2.378,1.293-4.009   C36.832,84.239,37.951,86.038,36.882,87.803" id="path73" style="fill:#822F00;"></path>

	<path d="M92.873,84.053c0.153,0.024-0.577,0.649-1.679-0.905C91.772,83.266,92.559,83.805,92.873,84.053" id="path75" style="fill:#822F00;"></path>

	<path d="M26.278,90.001c1.473,1.938-1.154,4.477,0.259,6.077c1.964,2.224,2.905-2.985,5.69-2.328   c-0.49,0.689-4.325,5.819-2.005,5.819c1.38,0,6.937,5.216,7.435,1.553c0.251-1.847-2.194-1.144-2.457-2.2   c-0.311-1.252,0.804-2.053,0.517-3.491c-0.188-0.938-2.377-6.327-3.49-7.112c0.172-0.172,0.344-0.345,0.517-0.517   c0.676,1.279,2.305,2.307,2.845,3.492c0.65,1.427,0.074,3.736,0.518,4.655c0.584,1.209,4.266,4.244,5.43,5.431   c-3.862-0.906-3.6,2.622-2.069,5.432c2.134,3.918,6.067,1.816,3.362-2.07c0.837-0.109,0.914-0.585,1.682-0.904   c-0.563-0.496-0.728-1.446-1.293-1.939c0.646-0.669,2.247-1.867,2.715-0.775c0.885,2.061-0.819,1.524-1.034,2.844   c-0.094,0.575-3.413,2.033-0.388,2.845c1.355,0.364,2.848-1.022,3.49-2.07c-1.237,2.146-1.518,5.259,1.423,6.465   c3.037,1.245,4.188-3.104,6.854-1.033c-1.295,1.201-1.578,1.619-2.975,0.517c-0.594,0.49-1.427,1.728-1.681,2.456   c6.019,2.782,0.543,5.52,2.587,8.923c1.173,1.953,2.472,1.093,3.62,0.129c1.377-1.157-2.727-3.529,1.422-3.233   c-3.685,4.85,10.441,5.924,12.285,2.975c1.38,1.164,2.759,2.327,4.139,3.491c-0.561,0.259-1.122,0.518-1.682,0.776   c-1.489-7.813-15.422,3.421-4.137,3.363c-1.708,1.303-8.732-2.695-8.47-0.324c0.681,6.146-1.165,0.603-3.686,3.944   c-3.444,4.563,10.774,5.039,6.208,1.035c1.65,0.658,3.112,1.843,4.655,0.775c1.342,3.36,3.856-0.07,5.882,1.552   c1.155,0.925,4.125,3.543,5.885,1.423c-0.301,1.552-0.603,3.104-0.904,4.656c-2.104-1.886-3.4-2.395-5.304-0.391   c-2.563,2.698,0.509,2.272,2.718,4.27c1.926,1.741,2.356,4.171,4.655,5.43c1.357,0.743,6.521,2.068,7.759,1.939   c-2.364-0.763-4.408,0.29-6.726,0c-3.732-0.468-2.215-2.541-4.395-3.619c-3.383-1.673-3.591,3.441-0.646,3.619   c-0.871,1.738-0.649,3.743,0.646,5.172c-2.947,0.093-2.536,3.161-0.646,4.656c1.164-3.071,5.143-2.826,7.112-5.172   c-0.686,2.934-6.33,2.343-4.592,5.818c0.397,0.794,7.626,2.021,9.247,2.328c-3.37,0.984-0.896,5.23,2.198,2.909   c4.373-3.28,3.581,2.428,1.42,4.978c-1.675-1.535-4.296-6.544-7.112-3.748c-1.939,1.925,0.339,4.378,2.458,4.266   c-0.28,1.979,0.558,4.971,1.293,5.949c1.355,1.804,4.584,3.874,6.337,1.682c0.981,0.869,2.178,1.426,3.49,1.682   c-3.897,1.229-5.867,0.088-9.31-1.295c-0.673-0.271-3.295-3.619-3.622-0.258c-0.192,1.975,2.29,1.688,2.2,3.621   c-0.061,1.302-2.305,2.619-2.974,3.62c-1.67,2.503,2.724,2.74,0.645,4.397c2.176,1.351,1.878,3.816,3.556,5.495   c2.049,2.05,3.401,5.618,6.337,6.595c2.503,0.833,3.008-0.837,4.652-2.708c2.192-2.494,0.866-0.008,1.879,0.058   c-0.285-0.019,0.527,2.021,0.97,2.197c1.042,0.416,4.324-3.24,5.235-4.008c0.432,2.315-1.145,2.652-2.457,4.137   c0.714-0.808-4.905,3.488-2.455,2.977c0.238-0.05-6.742-4.894-4.657,0c-4.372,0.565,1.971,17.97,4.657,20.172   c-1.153-1.531-2.698-1.053-4.138-2.134c-1.823-1.369-0.843-3.037-1.166-4.72c-0.348-1.813,1.636-3.091-1.551-3.621   c-2.98-0.495-0.834,2.063-1.035,3.232c-0.294,1.711-1.506,6.166,0.389,8.275c1.05,1.17,2.757-0.209,4.138,1.164   c1.172,1.165,2.255,2.725,2.845,4.137c-1.883-1.31-3.676-2.341-4.654,0.777c-1.741-2.502-4.277-4.522-5.756-7.177   c-1.393-2.501,1.252-3.578,0.97-4.72c-0.637-2.583-1.427-0.977-3.233-1.551c-0.652-0.207-1.088,1.481-1.818,0.569   c-1.441-1.801-2.88-3.602-4.326-5.397c-5.924-7.354-11.931-14.639-17.877-21.974c-2.778-3.426-5.557-6.852-8.333-10.277   c-2.138-2.638-9.957-8.921-5.532-11.415c0.449,1.254,2.974,1.599,3.362-0.385c0.376-1.921-2.458-2.353-3.362-0.908   c-1.079-3.03-4.635-4.828-4.915-0.646c-3.446-0.76,3.428-4.081-1.034-5.947c3.769,0,3.183-5.943,1.681-8.146   c-1.191,1.789-3.46,2.22-4.655,3.75c-1.359,1.74-2.295,4.981,1.681,3.879c-0.299,0.289-1.261,0.964-1.681,1.293   c-1.227-2.698-1.917-6.343-5.431-6.723c2.8-2.663-0.245-6.05-2.845-3.361c-1.438-2.173-4.394-4.005-5.043-6.597   c-0.305-1.217,0.522-2.403-0.129-3.362c-0.66-0.972-2.282,0.029-2.456-0.129c-0.992-0.898-4.596-4.692-4.656-5.949   c-0.054-1.114,2.562-1.521,2.329-2.975c-0.435-2.713-3.372-2.882-4.785-0.387c-1.422-1.552-2.845-3.104-4.267-4.655   c2.498,0,9.297,1.186,7.5-3.297c-0.954-2.377-5.229-5.67-4.525-0.97c-1.342-2.343-4.473-1.471-5.044,0.518   c-3.666-5.357-11.812-10.542-10.215-18.104c1.054,2.715,4.793-0.089,1.293-2.458c-0.431,0.388-0.862,0.776-1.293,1.165   c0-0.388,0-0.776,0-1.165c2.717-0.096,2.41-3.277,0-3.492c0-2.647-2.15-14.447,2.586-11.121c4.296,3.018-1.552,3.393-1.552,6.53   c0,0.306,4.668,3.796,5.561,3.427c3.19-1.32-2.165-4.143,1.034-5.949c1.088,1.837,5.318,0.084,6.465-0.517   c2.286,1.663,4.502-0.622,2.974-3.233c-1.427-2.438-3.891-1.561-3.491,1.293c-1.259-3.017-0.446-7.034-5.431-5.948   c2.026-1.343,3.306,0.899,5.948,0.776c0.546,2.249,2.524,0.775,3.492,2.715c0.614,1.231-0.82,3.607,0.905,4.525   c3.081,1.639,3.221-8.501,0.906-9.698c-0.31,0.903-1.387,1.55-1.682,2.458c-0.611-0.38-1.557-1.3-1.94-1.94   c2.122-0.626,6.4-1.63,4.139-4.655C27.723,84.678,24.771,87.936,26.278,90.001" id="path77" style="fill:#822F00;"></path>

	<path d="M99.209,84.053c-0.462,0.833-0.964,1.123-1.164,2.069C97.701,84.042,98.501,84.588,99.209,84.053" id="path79" style="fill:#822F00;"></path>

	<path d="M114.728,95.95c1.63-2.53,1.553-3.369-0.904-5.948c-0.862-0.905-0.46-2.716-2.263-2.716   c-2.722,0-1.387,2.092-0.453,3.491c0.811,1.215,1.254,2.068,1.163,3.492c-0.246,3.84-1.951-1.457-1.68-1.035   c-0.886-1.375-2.245-3.677-1.164-6.078c0.293-0.65,2.48-0.657,2.844-2.328C110.723,89.836,123.81,93.433,114.728,95.95" id="path81" style="fill:#822F00;"></path>

	<path d="M119.899,87.803c-0.834-0.657-1.487-1.663-2.197-2.457   C119.768,84.874,120.432,85.759,119.899,87.803" id="path83" style="fill:#822F00;"></path>

	<path d="M13.218,92.458c1.974,4.289-8.182,0.129-5.302-3.362C8.984,91.117,11.303,92.726,13.218,92.458" id="path85" style="fill:#822F00;"></path>

	<path d="M46.192,91.941c-1.281-0.614-1.955-1.227-1.681-2.845C45.772,89.989,46.161,90.989,46.192,91.941" id="path87" style="fill:#822F00;"></path>

	<path d="M127.013,92.975c-2.11-0.518-3.896,0.777-5.82-0.517c2.185-0.504,4.805-0.676,6.338-2.457   C127.362,90.969,127.327,92.048,127.013,92.975" id="path89" style="fill:#822F00;"></path>

	<path d="M196.581,110.691c1.508,6.212-3.629,8.346-8.154,10.607c-7.011,3.503-13.703,7.515-20.585,11.243   c-6.416,3.475-12.693,7.137-19.063,10.683c-3.03,1.687-6.146,3.242-9.342,4.589c-2.566,1.081-3.856,3.55-6.994,3.159   c-7.104-0.885-10.762-6.032-15.536-11.109c-4.777-5.079-14.89-12.194-7.999-19.214c5.19-5.288,14.035-8.116,20.562-11.38   c7.329-3.666,14.604-7.431,21.934-11.097c7.467-3.734,16.942-11.01,25.39-6.604C185.032,95.866,189.548,104.838,196.581,110.691" id="path91"></path>

	<path d="M41.537,92.975c-1.133,0.941-2.385-0.082-3.362-0.905C38.985,89.997,40.464,91.428,41.537,92.975" id="path93" style="fill:#822F00;"></path>

	<path d="M96.237,96.596c0.188-1.737,0.129-3.533,0.129-5.302C98.879,92.476,97.848,95.448,96.237,96.596" id="path95" style="fill:#822F00;"></path>

	<path d="M105.158,92.458c-1.502,1.562-2.782,4.196-5.173,2.974   C102.166,95.075,102.996,92.925,105.158,92.458" id="path97" style="fill:#822F00;"></path>

	<path d="M49.813,96.596c-0.215-0.561-0.431-1.121-0.646-1.681c0.56,0,1.121,0,1.681,0   C50.858,94.885,49.624,97.062,49.813,96.596" id="path99" style="fill:#822F00;"></path>

	<path d="M90.418,96.596c-0.981,0.738-1.962,0.999-2.975,1.811c-0.359-0.285-1.05-1.035-1.293-1.423   c1.625,0.292,3.121-0.134,3.75-1.552C89.931,95.953,90.417,96.59,90.418,96.596" id="path101" style="fill:#822F00;"></path>

	<path d="M45.675,96.596c0.554,4.185-2.834,0.704-4.655-0.646C42.459,96.829,44.246,96.77,45.675,96.596" id="path103" style="fill:#822F00;"></path>

	<path d="M54.468,98.407c0.776,0,1.552,0,2.329,0C56.021,98.407,55.245,98.407,54.468,98.407" id="path105" style="fill:#822F00;"></path>

	<path d="M99.209,100.087c0.043,0.604,0.086,1.208,0.129,1.811c-0.603,0-1.206,0-1.809,0   c0.232-0.997,0.728-2.566,1.162-3.492C99.125,98.899,99.144,99.662,99.209,100.087" id="path107" style="fill:#822F00;"></path>

	<path d="M105.158,98.794c-0.764,0.396-1.47,0.773-2.197,1.293C102.894,98.395,103.869,98.96,105.158,98.794" id="path109" style="fill:#822F00;"></path>

	<path d="M111.755,101.77c-0.601,0.569-1.599,0.888-2.328,1.293c-0.432-1.38-0.863-2.76-1.294-4.14   C109.629,99.905,110.097,102.158,111.755,101.77" id="path111" style="fill:#822F00;"></path>

	<path d="M24.985,101.77c-2.115,0.995-6.651,7.03-7.5,2.068c-0.92,2.286-6.261,7.737-6.853,2.586   c-0.314-2.734,3.167-0.13,4.202-2.199c0.505-1.011-3.717-5.702,0.583-3.621c3.276,1.586,1.995,5.944,4.655,1.681   c0.915-1.466-2.409-2.442,1.552-2.457C23.405,99.823,24.904,100.35,24.985,101.77" id="path113"></path>

	<path d="M93.391,99.57c0.988,1.383,0.323,2.668-1.165,3.493C90.648,101.283,91.385,99.978,93.391,99.57" id="path115" style="fill:#822F00;"></path>

	<path d="M32.227,102.545c-0.375,1.162-0.044,1.836-1.94,1.293c0.216-0.646,0.431-1.293,0.647-1.939   C31.33,102.474,31.667,102.393,32.227,102.545" id="path117"></path>

	<path d="M56.279,106.682c-0.561,0.043-1.122,0.087-1.682,0.13c0.002-1.72-0.296-2.181-0.775-3.75   c0.498-0.416,1.32-0.984,1.939-1.164C55.009,103.545,55.389,105.667,56.279,106.682" id="path119" style="fill:#822F00;"></path>

	<path d="M59.252,104.226c0.136-0.781,0.345-1.553,0.518-2.327C59.967,103.002,59.369,103.891,59.252,104.226   " id="path121" style="fill:#822F00;"></path>

	<path d="M102.185,105.906c0.346-0.723,0.868-1.388,1.293-2.068   C103.973,105.981,103.349,105.682,102.185,105.906" id="path123" style="fill:#822F00;"></path>

	<path d="M34.424,107.717C29.948,106.518,43.902,102.811,34.424,107.717" id="path125"></path>

	<path d="M97.53,105.519c0.5,3.835-3.108,1.004-1.164-1.163C97.083,104.65,97.307,105.117,97.53,105.519" id="path127" style="fill:#822F00;"></path>

	<path d="M23.304,112.631c-2.318-0.991-6.958,3.009-7.112-1.163c3.043,0.365,4.45-3.713,5.366-3.815   C24.177,107.362,22.298,111.394,23.304,112.631" id="path129"></path>

	<path d="M153.005,108.364c-0.15,0.485-0.128,0.865-0.646,1.293c-0.173-0.646-0.345-1.293-0.518-1.939   C152.274,108.349,152.899,108.311,153.005,108.364" id="path131" style="fill:#822F00;"></path>

	<path d="M10.76,109.657c-0.6,1.454-2.068,1.527-1.681-1.164C10.104,108.544,10.423,109.134,10.76,109.657" id="path133"></path>

	<path d="M30.934,109.657c-0.627,1.92-4.536,3.758-4.656,0.904C26.162,107.822,29.768,108.137,30.934,109.657" id="path135"></path>

	<path d="M42.701,114.83c-0.635,0.519-1.355,0.859-2.327,0.775c0.202-2.234-4.091-4.1-2.974-5.948   C39.05,106.925,42.37,114.596,42.701,114.83" id="path137"></path>

	<path d="M51.624,115.994c-6.945,7.501-3.149-2.843-7.63-5.302c0.345-0.345,0.69-0.69,1.035-1.035   C46.799,112.095,50.861,113.299,51.624,115.994" id="path139"></path>

	<path d="M33.908,114.312c-2.129,0.601-3.059-0.329-2.458-2.458C32.939,112.154,33.919,112.882,33.908,114.312" id="path141"></path>

	<path d="M68.046,113.536c-0.643-0.163-1.061,0.37-1.682-0.389C67.752,112.328,67.491,112.961,68.046,113.536   " id="path143" style="fill:#822F00;"></path>

	<path d="M154.815,112.631c0.56,0,1.12,0,1.68,0C155.936,112.631,155.375,112.631,154.815,112.631" id="path145" style="fill:#822F00;"></path>

	<path d="M10.76,115.994C10.843,121.467,4.381,110.5,10.76,115.994" id="path147"></path>

	<path d="M60.416,115.605c-1.167,1.841-2.402-0.166-4.137-0.775   C56.895,114.966,58.901,115.913,60.416,115.605" id="path149" style="fill:#822F00;"></path>

	<path d="M26.795,115.994c-0.557,1.945-2.221,1.595-1.681-1.164C25.813,115.046,26.549,115.667,26.795,115.994" id="path151"></path>

	<path d="M70.503,119.484c0.058-1.283,0.426-2.651,1.033-3.879C71.854,117.317,72.13,119.271,70.503,119.484" id="path153" style="fill:#822F00;"></path>

	<path d="M39.727,117.287C39.579,121.883,35.442,114.957,39.727,117.287" id="path155"></path>

	<path d="M23.304,117.287c0.665,2.247-1.525,3.383-1.939,0C21.119,117.287,24.008,117.456,23.304,117.287" id="path157"></path>

	<path d="M32.615,117.803c-0.448,2.063-1.627,1.327-2.328-0.517C31.441,117.01,32.059,117.426,32.615,117.803" id="path159"></path>

	<path d="M68.564,119.484c-2.128,0.193-4.49,1.293-6.337,0c1.802-0.354,4.122,0.13,4.137-2.198   C67.068,117.99,68.017,118.659,68.564,119.484" id="path161" style="fill:#822F00;"></path>

	<path d="M150.546,118.45c-1.639-0.125-3.174,0.477-4.137,1.81   C146.353,117.672,149.386,116.375,150.546,118.45" id="path163" style="fill:#822F00;"></path>

	<path d="M14.511,119.484C10.508,119.236,14.179,115.997,14.511,119.484" id="path165"></path>

	<path d="M134.64,121.941c0.819-1.121,1.64-2.241,2.459-3.361C136.593,120.137,135.93,121.476,134.64,121.941   " id="path167" style="fill:#822F00;"></path>

	<path d="M20.847,124.399c-1.521,0.669-5.689,2.306-5.689-0.388c0-2.379,4.61-0.945,2.845-4.526   C20.879,118.904,20.474,122.602,20.847,124.399" id="path169"></path>

	<path d="M116.927,119.484c0.779,0.13,1.156-0.853,1.809,0.775   C118.133,120.001,117.529,119.743,116.927,119.484" id="path171" style="fill:#822F00;"></path>

	<path d="M45.675,125.432c-1.98,0.483-2.606-1.569-2.845-3.491c-2.223,2.163-0.885,4.66,0,7.112c-3.011,0.221-4.87-2.411-1.81-4.138   c-2.656-2.025,1.006-3.031,1.034-5.431C44.321,120.503,45.385,123.062,45.675,125.432" id="path173"></path>

	<path d="M125.333,120.648c-1.604,0.247-2.651,1.491-2.977,3.104   C122.026,121.532,123.32,119.405,125.333,120.648" id="path175" style="fill:#822F00;"></path>

	<path d="M53.305,121.424C52.083,123.763,50.435,119.863,53.305,121.424" id="path177"></path>

	<path d="M142.917,120.648c1.011,0.859,0.924,2.926,0.129,3.75   C143.121,123.212,142.813,121.713,142.917,120.648" id="path179" style="fill:#822F00;"></path>

	<path d="M150.546,123.106c0.663-0.195,1.542,0.548,2.588,1.81c-0.259,0.172-0.517,0.344-0.775,0.517   c-1.561-1.713-3.918-0.902-5.949-1.68c0.259-0.604,0.517-1.208,0.775-1.811C148.06,123.508,149.536,124.163,150.546,123.106" id="path181" style="fill:#822F00;"></path>

	<path d="M36.106,123.106c0,0.431,0,0.862,0,1.293c-0.302,0-0.604,0-0.906,0c0-0.646,0-1.293,0-1.939   C35.468,122.591,36.184,123.147,36.106,123.106" id="path183"></path>

	<path d="M157.013,124.399c-1.051,0.196-1.812,0.445-2.975-0.646c0.761-0.247,2.202-0.408,2.975-0.518   C157.013,123.623,157.013,124.011,157.013,124.399" id="path185" style="fill:#822F00;"></path>

	<path d="M24.985,124.399c-0.202,1.138,0.173,1.884-1.552,1.81c-0.144-0.723-0.103-1.724,0-2.456   C24.294,123.69,24.694,124.124,24.985,124.399" id="path187"></path>

	<path d="M30.157,126.079c-1.358,2.835-3.864-0.184-2.068-2.326C28.684,124.411,30.079,125.904,30.157,126.079" id="path189"></path>

	<path d="M52.787,126.596c-1.808,1.436-3.48-1.409-4.785-2.844C49.925,124.21,52.268,124.803,52.787,126.596" id="path191"></path>

	<path d="M125.718,129.571c-0.791-2.013-0.836-4.369,0.908-5.819   C122.987,125.54,128.273,127.823,125.718,129.571" id="path193" style="fill:#822F00;"></path>

	<path d="M60.416,126.596c-1.201,1.788-3.365,1.239-5.301,1.293c0-0.431,0-0.862,0-1.293c1.065,0.406,1.464-0.045,2.458,0.775   C58.37,125.875,59.212,125.992,60.416,126.596" id="path195"></path>

	<path d="M142.917,127.89c0.043,0.388,0.086,0.776,0.129,1.164c-1.578-1.659-3.538-0.656-5.43,0   C138.724,126.658,141.261,127.937,142.917,127.89" id="path197" style="fill:#822F00;"></path>

	<path d="M77.355,134.226c-0.516-0.572-2.076-1.712-3.362-0.905c-1.745-2.841,2.068-4.284-2.973-5.431   C75.124,127.277,75.699,132.014,77.355,134.226" id="path199" style="fill:#822F00;"></path>

	<path d="M148.864,127.89c-1.944,1.384,0.479,8.107-2.844,6.336   C149.789,133.8,143.592,128.164,148.864,127.89" id="path201" style="fill:#822F00;"></path>

	<path d="M121.581,134.226c-0.561,0-1.121,0-1.682,0c1.031-1.726,1.624-3.828,1.293-5.819   C120.997,130.407,122.079,132.407,121.581,134.226" id="path203" style="fill:#822F00;"></path>

	<path d="M41.02,135.39c-1.419,1.575-6.374-2.505-6.337-3.75C34.794,127.927,40.725,134.855,41.02,135.39" id="path205"></path>

	<path d="M141.753,131.251c0.173-0.301,0.345-0.603,0.518-0.904c0.259,0.561,0.517,1.121,0.775,1.681   C142.615,131.769,142.184,131.51,141.753,131.251" id="path207" style="fill:#822F00;"></path>

	<path d="M157.013,130.734c-0.34,0.917,0.073,1.598-1.682,1.293   C155.646,130.852,156.274,130.954,157.013,130.734" id="path209" style="fill:#822F00;"></path>

	<path d="M31.45,132.544c0.072,2.906-2.539,1.614-1.681-1.293C30.676,131.327,30.951,131.823,31.45,132.544" id="path211"></path>

	<path d="M199.427,131.251c0.938,0.473,1.407,0.746,0.904,2.458c-0.259,0-0.517,0-0.775,0   C199.627,132.913,199.481,131.81,199.427,131.251" id="path213" style="fill:#822F00;"></path>

	<path d="M213.78,133.191c-0.657,0.958-1.674,1.954-2.457,2.717c1.577-1.434,2.021-3.257,0-4.657   C212.263,131.757,213.317,132.694,213.78,133.191" id="path215" style="fill:#822F00;"></path>

	<path d="M50.847,132.544c0.43,2.92-2.185,2.505-3.879,1.165C47.846,132.17,49.35,131.693,50.847,132.544" id="path217"></path>

	<path d="M128.692,134.226c-0.357,0.451-0.414,0.818-1.162,0.775c-0.092-0.778-0.078-1.677,0-2.458   C128.534,132.904,128.512,133.568,128.692,134.226" id="path219" style="fill:#822F00;"></path>

	<path d="M136.323,133.191c-0.064,1.303,0.283,2.058-1.684,1.811   C135.075,133.566,135.693,133.413,136.323,133.191" id="path221" style="fill:#822F00;"></path>

	<path d="M195.288,133.708c-3.398,3.07-0.081,5.748-0.387,7.758c-0.502,3.302-2.874,3.121-2.457,7.113   c-2.605-0.122-2.337,1.902-0.389,3.232c3.821,2.607,3.133-1.005,4.008-2.586c-0.048,0.086,1.312-2.687,1.035-1.811   c0.062-0.194,1.053-0.163,1.164-0.518c0.183-0.582-0.033-1.594,0-1.68c0.495-1.3,1.108-5.981,0-7.242   c0.345-0.233,0.935-0.541,1.293-0.775c1.41,3.304,4.354,3.799,6.596,0.775c0.513,1.867-1.473,2.364-2.977,2.973   c-0.937-1.154-1.492-0.979-2.844-1.293c0.533,2.941-1.115,5.074-2.069,7.695c-1.321,3.629,1.432,5.15,1.111,8.35   c-0.132,1.318-0.599,2.766-0.853,3.482c0.028-0.079-1.498-0.314-1.551,0.131c-0.157,1.337-0.484,2.313,0.904,3.49   c1.223-5.158,4.631,2.866,6.338-1.293c0.973-2.369-2.814-3.808-1.037-6.596c-0.252,3.107,2.482,1.867,3.881,0.258   c0.538-0.619,1.698-2.792,1.293-3.748c-1.228-2.895-4.099,2.838-5.82-1.682c3.273-1.964,5.721,1.145,8.277,1.682   c2.86,0.601,5.608-1.896,7.111-0.389c-3.593-0.009-4.964,2.039-0.905,4.073c4.107,2.059-1.543,4.425-3.231,0.97   c-4.878,3.174,2.721,6.254,4.137,4.268c0,2.37,0,4.741,0,7.111c-3.833-1.29-3.658,3.616,0,2.975   c-0.206,2.805-0.412,5.61-0.619,8.415c-0.077,1.059-2.255-0.118-2.871,0.378c-1.87,1.507-1.65,2.71-4.396,3.621   c-5.396,1.79,8.148,4.767,4.268,0.518c0.726-0.672,2.051-1.585,2.973-1.939c-0.146,6.001-0.291,12.002-0.437,18.002   c-0.13,5.346-4.815,6.736-9.047,9.776c-9.072,6.518-18.462,12.663-27.756,18.858c-18.611,12.405-37.417,24.505-55.864,37.156   c-0.367-27.28,0.653-54.532,1.413-81.799c0.067-2.435-0.868-7.563,0.267-9.625c1.198-2.178,6.636-4.38,8.722-5.771   c4.748-3.163,13.413-10.438,19.083-11.169c1.254-0.161,2.777,1.655,3.879,1.035c1.227-0.691,0.229-1.993,0.646-2.457   c1.213-1.344,2.288-2.29,4.783-3.492c0.818,2.638,3.842,0.398,2.457-1.68c2.693-1.225,5.968-5.209,8.795-2.199   c1.621-1.335,3.404-8.243,4.783-2.844c0.249,0.974-2.48,3.963-0.129,4.525c1.654,0.396,2.267-2.591,2.715-3.491   c0.787-1.58-0.696-3.386,0.258-4.915c1.613-2.587,3.457,0.006,5.757-0.453c1.522-0.304-0.556-2.582,0-3.361   c0.921-1.29,1.643-0.726,2.78-1.357c0.653-0.362,1.943,0.076,2.778-0.259C194.078,135.536,194.821,133.972,195.288,133.708" id="path223" style="fill:#822F00;"></path>

	<path d="M28.477,136.166C25.456,138.705,27.837,131.111,28.477,136.166" id="path225"></path>

	<path d="M55.761,136.683C48.361,137.994,57.475,130.316,55.761,136.683" id="path227"></path>

	<path d="M35.071,143.019c-3.135-1.71-3.262,5.915-5.301,2.07c-1.168-2.203,1.136-2.852,2.458-1.293   c1.153-1.731-2.763-6.417-0.777-7.113C33.083,136.111,34.73,142.62,35.071,143.019" id="path229"></path>

	<path d="M71.021,137.201c0.119,3.037-3.513,1.931-1.164-0.518C70.197,137.24,70.627,137.052,71.021,137.201" id="path231"></path>

	<path d="M123.521,142.113c0.276-1.886,0.473-3.871,1.813-5.43   C126.41,138.706,125.317,140.968,123.521,142.113" id="path233" style="fill:#822F00;"></path>

	<path d="M133.347,136.683c0.467,1.897,2.008,2.737,3.105,4.266c-2.33-1.887-5.2-4.719-7.631-1.293   c-0.172-0.172-0.344-0.344-0.516-0.516C129.97,138.176,131.516,136.127,133.347,136.683" id="path235" style="fill:#822F00;"></path>

	<path d="M144.21,137.201c-1.701,0.628-3.562,1.731-2.844,3.748c-0.259,0-0.517,0-0.775,0   c0-1.422,0-2.844,0-4.266C141.726,136.845,143.139,136.807,144.21,137.201" id="path237" style="fill:#822F00;"></path>

	<path d="M53.822,139.14c-0.265,1.035-1.516,1.979-2.716,0.775C49.132,137.937,52.488,136.32,53.822,139.14" id="path239"></path>

	<path d="M191.409,138.363c-0.849,1.906-2.563,1.656-1.939-1.162C190.277,137.405,191.096,137.987,191.409,138.363" id="path241"></path>

	<path d="M85.761,138.363c-0.607,1.338-1.366,1.828-0.515,2.975c-0.602,0.177-1.854,0.171-2.458,0   C82.189,138.762,84.051,137.12,85.761,138.363" id="path243" style="fill:#822F00;"></path>

	<path d="M28.477,140.82C25.774,143.27,27.49,136.407,28.477,140.82" id="path245"></path>

	<path d="M65.588,140.173c-0.622,4.576,1.919,1.199,3.362,1.553c3.025,0.742,3.333,1.844,0.776,4.397   c-3.439,3.437,2.881,1.838,2.974,1.938c1.58,1.705-0.075,4.415-0.386,6.336c-1.082-1.83-2.381-3.012-3.75-1.164   c-1.542-0.81-1.104-2.319,0.775-3.49c-1.708-0.478-6.352-10.283-8.794-7.24c-0.879,1.095,6.891,6.813,1.164,6.076   c-0.007-3.417-3.342-1.245-5.43-2.457C59.626,141.412,59.604,139.188,65.588,140.173" id="path247"></path>

	<path d="M48.648,142.503c-0.747,0.21-1.677,0.088-2.456,0.129c0.098-1.222,0.388-1.652,1.293-2.459   C48.318,140.932,48.661,141.909,48.648,142.503" id="path249"></path>

	<path d="M192.315,143.019c-0.702,1.891-1.766,0.517-2.717,1.424c-0.922,0.88-0.96,0.977-1.422,1.68   c-1.107,1.686,0.366,4.218-2.588,4.914c0.036-1.807,1.037-3.327,1.037-5.108C186.626,141.293,188.798,141.071,192.315,143.019" id="path251"></path>

	<path d="M209.126,144.312c0.005,1.582-0.135,2.518-1.939,2.457c0.088-0.681-0.864-4.113-0.646-4.396   C207.849,140.669,209.279,143.031,209.126,144.312" id="path253" style="fill:#822F00;"></path>

	<path d="M131.149,144.312C129.229,142.657,130.992,142.04,131.149,144.312" id="path255" style="fill:#822F00;"></path>

	<path d="M52.787,145.476C47.583,145.805,54.62,140.245,52.787,145.476" id="path257"></path>

	<path d="M203.694,145.476c0.16-0.891-0.346-1.691,1.293-2.326   C203.749,143.952,203.926,144.811,203.694,145.476" id="path259" style="fill:#822F00;"></path>

	<path d="M218.437,146.769c-0.389,0-0.777,0-1.166,0c0.153-0.756,0.268-1.792,0.646-2.457   C218.602,145.009,218.463,145.727,218.437,146.769" id="path261" style="fill:#822F00;"></path>

	<path d="M90.418,147.933c-2.956-3.261-8.916,2.841-10.087-2.328   C83.667,147.183,88.697,144.016,90.418,147.933" id="path263" style="fill:#822F00;"></path>

	<path d="M41.02,145.476c0.372,1.37,0.428,2.129-0.646,3.104C37.255,146.421,38.326,145.048,41.02,145.476" id="path265"></path>

	<path d="M49.167,150.13c-0.173,0.302-0.345,0.604-0.518,0.906c1.875,0.366,2.656,4.044,0.646,3.361   c-1.62-0.55-1.413-2.599-1.681-4.137c-0.016-0.091-2.726-4.18,0.388-2.975C49.684,147.938,50.069,149.072,49.167,150.13" id="path267"></path>

	<path d="M174.212,150.908c-1.4,0.691-5.695-1.429-3.492-2.717C172.632,147.073,174.235,149.777,174.212,150.908" id="path269"></path>

	<path d="M56.797,150.908C53.815,153.196,56.006,145.981,56.797,150.908" id="path271"></path>

	<path d="M66.364,151.941c0.642,3.207-4.976,4.041-5.559,1.293C60.163,150.203,64.9,150.475,66.364,151.941" id="path273"></path>

	<path d="M178.866,152.587C177.884,156.071,175.985,150.465,178.866,152.587" id="path275"></path>

	<path d="M37.27,152.587C39.658,157.348,31.795,152.192,37.27,152.587" id="path277"></path>

	<path d="M197.745,154.787c0.666,2.275-2.018,4.006-3.104,1.68C193.882,154.838,197.752,150.79,197.745,154.787" id="path279"></path>

	<path d="M212.487,155.562c-0.561,0.043-1.121,0.086-1.682,0.129C209.827,152.17,213.672,152.801,212.487,155.562" id="path281"></path>

	<path d="M191.927,154.398c-1.204,2.832-4.5,3.756-7.111,2.457c-2.932,9.638-6.753-9.829-0.52,0.52   C184.149,154.871,190.339,153.278,191.927,154.398" id="path283"></path>

	<path d="M72.183,158.537c1.481-1.479,4.788-4.858,3.233,0.131c-1.03,3.304-4.993,0.792-4.913,4.137   c-1.595-0.189-1.97-0.477-2.458-2.068c6.197,1.477,0.166-4.9,0-6.338C70.397,154.627,70.976,157.365,72.183,158.537" id="path285"></path>

	<path d="M172.401,154.787c0.112,2.63-4.525,7.779-4.525,5.107C167.876,158.706,171.046,154.546,172.401,154.787" id="path287"></path>

	<path d="M46.968,156.855c0,0.345,0,0.69,0,1.035c-2.022-0.48-5.698,3.895-4.914-1.035C44.098,157.181,45.61,154.548,46.968,156.855   " id="path289"></path>

	<path d="M105.158,156.08c-1.253,0.08-2.709,0.065-3.361-0.389   C102.997,156.305,103.887,156.061,105.158,156.08" id="path291" style="fill:#822F00;"></path>

	<path d="M63.909,160.736c-1.04,3.085-2.666-0.466-3.881-1.681c-2.042-2.042,0.546-4.146,1.552-1.619   C62.169,158.917,62.443,159.944,63.909,160.736" id="path293"></path>

	<path d="M99.209,159.83c-1.457-0.858-2.871-2.137-3.361-3.75C97.986,156.28,98.131,158.678,99.209,159.83" id="path295" style="fill:#822F00;"></path>

	<path d="M210.03,157.375c-0.676,1.003-4.556,4.014-4.783,1.549C205.015,156.411,209.222,156.773,210.03,157.375" id="path297"></path>

	<path d="M54.986,157.375c0.043,0.56,0.086,1.118,0.129,1.678C51.123,159.72,53.032,155.868,54.986,157.375" id="path299"></path>

	<path d="M92.097,157.759c-0.574,1.31-1.841,1.724-3.361,1.293c0.173-0.56,0.345-1.118,0.518-1.678   C90.163,157.745,91.723,157.678,92.097,157.759" id="path301" style="fill:#822F00;"></path>

	<path d="M194.771,160.218c-0.448,0.214-1.041,0.009-1.68,0.518c-0.31-0.532-0.63-1.585-0.646-2.199   C194.473,157.972,195.278,158.816,194.771,160.218" id="path303"></path>

	<path d="M108.132,162.029c-0.609-0.59-1.401-0.241-1.164-1.682   C107.919,160.663,107.75,161.281,108.132,162.029" id="path305" style="fill:#822F00;"></path>

	<path d="M180.03,163.708c0.948,6.373-3.387-1.165-4.525-1.68C178.172,158.658,177.93,163.977,180.03,163.708" id="path307"></path>

	<path d="M208.349,160.736c-0.631,4.2,1.618,7.623-2.197,1.293C206.7,161.323,207.46,160.88,208.349,160.736" id="path309"></path>

	<path d="M184.687,163.193C181.342,162.85,184.757,159.738,184.687,163.193" id="path311"></path>

	<path d="M212.487,163.193C209.794,165.625,211.396,158.69,212.487,163.193" id="path313"></path>

	<path d="M101.021,166.683c-0.582,1.296-1.331,2.054-2.976,1.939c0.441-3.185-5.265-6.424-7.627-5.43   C96.325,160.034,95.295,166.938,101.021,166.683" id="path315" style="fill:#822F00;"></path>

	<path d="M173.694,164.486C169.257,162.622,174.802,160.42,173.694,164.486" id="path317"></path>

	<path d="M193.091,162.675c0.63,1.066,3.422,3,2.779,4.073c-0.486,0.813-0.972,3.506-1.746,3.685   c-1.771,0.408-1.177-5.68-2.197-7.629C192.242,162.852,192.99,162.699,193.091,162.675" id="path319"></path>

	<path d="M215.46,163.193c-0.157,1.374-3.447,7.507-4.783,7.758c-3.798,0.714,0.597-4.64,1.422-5.949   C213.817,166.562,213.168,163.14,215.46,163.193" id="path321"></path>

	<path d="M82.271,166.166c5.606-0.465,0.942,3.43-1.165,4.525c-6.475,3.367-1.404-0.683-5.172-3.619   c-0.737-0.574-3.081,0.534-4.655-0.259c-1.863-0.938,2.505-1.909,2.844-1.94c1.906-0.178,2.591,1.262,3.622,1.422   C79.119,166.507,81.229,166.094,82.271,166.166" id="path323"></path>

	<path d="M65.588,168.623C61.377,173.434,61.76,158.567,65.588,168.623" id="path325"></path>

	<path d="M145.245,166.683C143.991,165.3,144.828,164.003,145.245,166.683" id="path327"></path>

	<path d="M204.212,166.166c-0.293,1.553-2.842,3.019-3.49,1.035C200.122,165.368,203.268,164.902,204.212,166.166" id="path329"></path>

	<path d="M56.279,165.648C56.985,171.158,51.096,165.877,56.279,165.648" id="path331"></path>

	<path d="M187.144,166.683c-0.835,1.264,1.767,6.795-1.164,5.432C182.918,170.691,184.248,162.838,187.144,166.683" id="path333"></path>

	<path d="M161.149,167.847C158.283,172.639,159.135,162.466,161.149,167.847" id="path335"></path>

	<path d="M154.038,167.33C153.518,171.758,150.471,164.664,154.038,167.33" id="path337"></path>

	<path d="M74.383,169.14C75.624,175.075,67.063,167.399,74.383,169.14" id="path339"></path>

	<path d="M205.376,170.822c-0.627,0.552-1.179,0.911-2.201,0.775c-0.109-0.688-0.186-1.79,0-2.457   C204.063,169.434,204.824,170.075,205.376,170.822" id="path341"></path>

	<path d="M168.261,171.597c-0.094,1.032,0.417,1.724-1.16,1.68c-0.107-0.778-0.054-1.67,0-2.455   C167.839,170.921,168.057,171.322,168.261,171.597" id="path343"></path>

	<path d="M176.667,171.984C175.283,177.734,172.373,167.918,176.667,171.984" id="path345"></path>

	<path d="M98.692,181.425c-1.247-1.701-3.195-2.809-5.301-2.199c-0.15-0.536-0.262-0.697-0.519-1.293   c0.229-0.373,1.039-1.38,1.293-1.68c3.05,3.085,5.932,1.24,2.976-2.977c1.568-0.29,2.004-0.644,3.361-1.68   C100.396,174.702,100.508,178.92,98.692,181.425" id="path347" style="fill:#822F00;"></path>

	<path d="M201.882,171.984C201.793,177.651,197.919,169.015,201.882,171.984" id="path349"></path>

	<path d="M216.624,173.794C213.287,173.452,216.695,170.343,216.624,173.794" id="path351"></path>

	<path d="M83.306,174.96c0.041,3.241-2.2,1.642-2.2-0.221C81.106,170.762,83.602,173.028,83.306,174.96" id="path353"></path>

	<path d="M106.839,173.277c-1.165,1.57-2.724,1.226-3.361-0.646   C104.424,172.795,106.388,173.09,106.839,173.277" id="path355" style="fill:#822F00;"></path>

	<path d="M60.416,174.441c-0.054,1.937-0.589,1.789-2.068,1.422C56.165,175.321,58.839,171.348,60.416,174.441" id="path357"></path>

	<path d="M113.952,176.253c-6.073,0.356-3.928-2.261,0.775-2.459   C114.588,174.6,114.326,175.691,113.952,176.253" id="path359" style="fill:#822F00;"></path>

	<path d="M184.687,176.253c-1.797,1.273-1.443,9.207-3.881,5.947C179.194,180.045,182.267,173.362,184.687,176.253" id="path361"></path>

	<path d="M199.427,176.771C194.222,182.583,199.435,170.105,199.427,176.771" id="path363"></path>

	<path d="M157.659,176.253c-0.232,1.774-2.485,3.082-3.621,0.518C155.232,175.859,156.839,175.47,157.659,176.253" id="path365"></path>

	<path d="M207.833,176.771C206.315,180.3,204.208,173.59,207.833,176.771" id="path367"></path>

	<path d="M212.487,177.417c-0.646,0.54-3.104,1.326-3.104-0.323C209.384,174.816,212.457,176.095,212.487,177.417" id="path369"></path>

	<path d="M80.331,179.226C76.85,178.958,80.063,175.75,80.331,179.226" id="path371"></path>

	<path d="M74.383,178.451c-0.482,0.777-0.607,2.08-0.389,3.104c0.023,0.11,4.626,4.999,0.775,3.104   C72.195,183.39,70.62,175.626,74.383,178.451" id="path373"></path>

	<path d="M84.468,178.451c1.611,1.962-0.464,3.554-1.162,5.432c-2.056-0.931-5.229-0.162-4.011-2.457   C79.583,180.882,83.994,178.809,84.468,178.451" id="path375"></path>

	<path d="M112.271,180.39c-3,1.174-11.353,6.146-10.085-1.164c4.5,2.028,5.733,6.037,8.923-0.775   C111.841,179.033,112.113,179.703,112.271,180.39" id="path377" style="fill:#822F00;"></path>

	<path d="M194.771,180.39C188.884,182.059,194.091,175.492,194.771,180.39" id="path379"></path>

	<path d="M66.364,180.908c3.075-2.148,5.492,2.362,1.423,3.039C61.979,184.913,63.917,175.968,66.364,180.908" id="path381"></path>

	<path d="M172.401,179.615c-0.235,1.173-0.42,1.736-2.328,1.293C170.769,178.945,171.392,179.388,172.401,179.615" id="path383"></path>

	<path d="M60.416,182.589c-0.452,0.663-1.132,1.221-1.68,1.811c-0.181-0.855-0.143-2.11,0-2.975   C59.391,181.668,60.179,182.292,60.416,182.589" id="path385"></path>

	<path d="M204.212,182.072C204.479,187.976,200.276,179.041,204.212,182.072" id="path387"></path>

	<path d="M122.356,189.183c-1.188-0.173-1.009-4.239,0-5.818   C122.356,185.155,122.356,187.864,122.356,189.183" id="path389" style="fill:#822F00;"></path>

	<path d="M192.315,183.882c0.043,0.431,0.086,0.862,0.129,1.293C189.772,185.21,190.441,182.936,192.315,183.882" id="path391"></path>

	<path d="M164.899,187.244c-0.357,3.224-3.122,0.67-3.879-1.228C160.057,183.6,164.524,186.25,164.899,187.244" id="path393"></path>

	<path d="M65.071,188.019c-1.079,0.938-1.836,0.601-2.715-0.775C61.165,185.379,64.787,185.473,65.071,188.019" id="path395"></path>

	<path d="M86.925,187.244c-2.69-0.235-8.353,3.423-8.277-1.682C81.123,187.286,86.147,184.158,86.925,187.244" id="path397"></path>

	<path d="M139.298,186.339c-0.121,0.138-0.02,0.787-0.389,1.033c-0.431-0.345-0.862-0.688-1.293-1.033   C138.177,186.339,138.737,186.339,139.298,186.339" id="path399"></path>

	<path d="M190.634,188.019C186.366,188.576,189.835,184.449,190.634,188.019" id="path401"></path>

	<path d="M94.038,188.019c-0.633,2.485-3.993,6.277-0.646,8.148c3.456,1.932,3.079-3.549,4.396-5.172   c0.732-0.902,1.389,0.806,1.422,1.031c0.154,1.066-2.713,0.837-2.457,2.459c0.308,1.951,4.684,3.2,6.208,2.975   c-0.736,0.681-2.063,1.253-2.976,1.68c-1.069-2.175-2.976-4.032-4.912-1.68c1.748,1.479,1.545,3.777,2.068,5.818   c-1.828-1.252-2.724-4.199-5.042-4.591c-1.243-0.21-1.908-4.493-3.363-5.495c1.687-1.041,1.193-3.295,3.49-2.975   C91.465,187.552,92.692,186.812,94.038,188.019" id="path403" style="fill:#822F00;"></path>

	<path d="M143.435,187.244c0.167,2.382-1.162,2.438-1.682,0.129C141.572,187.357,144.198,187.275,143.435,187.244" id="path405"></path>

	<path d="M204.858,189.701c0.043,0.604,0.086,1.207,0.129,1.811C198.844,192,202.309,185.25,204.858,189.701" id="path407"></path>

	<path d="M76.451,190.218c0.087,2.968-4.208,0.991-2.458-0.26C75.044,189.208,75.47,189.125,76.451,190.218" id="path409"></path>

	<path d="M71.537,192.673C69.14,191.49,71.895,188.206,71.537,192.673" id="path411"></path>

	<path d="M176.667,190.996C176.047,195.822,172.162,188.317,176.667,190.996" id="path413"></path>

	<path d="M215.978,190.996c-0.43,2.533-2.376,1.932-1.68-0.777C215.171,190.2,215.501,190.555,215.978,190.996" id="path415"></path>

	<path d="M151.841,191.511C151.082,195.758,148.719,189.473,151.841,191.511" id="path417"></path>

	<path d="M106.839,194.357c-1.185,0.282-2.657,0.088-3.879,0.129c0.049-0.829,0.579-2.278,1.035-2.975   C105.464,192.015,106.742,193.375,106.839,194.357" id="path419" style="fill:#822F00;"></path>

	<path d="M84.468,195.132c-0.247,0.141-5.719,8.442-4.719,3.427C80.198,196.306,83.178,192.687,84.468,195.132" id="path421"></path>

	<path d="M198.263,195.65c-0.109,1.486-2.182,2.544-3.361,1.293C193.116,195.049,196.7,193.792,198.263,195.65" id="path423"></path>

	<path d="M122.356,196.814c-1.135-0.082-1.88-0.104-2.457-1.682   C121.289,195.445,121.898,196.227,122.356,196.814" id="path425" style="fill:#822F00;"></path>

	<path d="M75.676,200.304c-2.444,0-5.282,1.092-4.655-2.197C72.988,198.6,75.633,197.613,75.676,200.304" id="path427"></path>

	<path d="M204.858,199.787c-0.562,0.043-1.122,0.086-1.684,0.129C203.393,197.09,204.904,197.905,204.858,199.787" id="path429"></path>

	<path d="M211.97,201.08C209.635,204.515,209.229,197.185,211.97,201.08" id="path431"></path>

	<path d="M87.443,201.08C86.971,203.734,83.175,199.816,87.443,201.08" id="path433"></path>

	<path d="M117.702,202.761c-1.8,1.231-4.215,1.019-4.139-1.682   C115.143,201.189,116.651,201.577,117.702,202.761" id="path435" style="fill:#822F00;"></path>

	<path d="M157.013,203.279c-1.646,1.375-3.866,0.407-1.682-1.682C155.857,202.124,156.638,202.643,157.013,203.279" id="path437"></path>

	<path d="M172.401,203.279c-0.042,2.575-2.553,2.24-2.328-0.518C171.186,202.556,171.93,202.897,172.401,203.279" id="path439"></path>

	<path d="M79.295,203.925c0.044,0.345,0.087,0.688,0.131,1.033c-1.901-0.067-1.904,0.261-1.939-1.68   C78.358,203.315,79.112,203.747,79.295,203.925" id="path441"></path>

	<path d="M91.58,207.933c-1.322,1.249-2.803,2.185-4.46,2.846c-3.098,1.235,1.831-3.534,1.875-3.622   c0.165-0.329-4.78-4.222-0.777-3.103C88.399,204.105,91.637,207.432,91.58,207.933" id="path443"></path>

	<path d="M110.978,215.046c-1.217-2.128,0.593-6.192,1.811-8.018   C113.658,209.691,111.294,212.601,110.978,215.046" id="path445" style="fill:#822F00;"></path>

	<path d="M191.927,207.416C193.364,212.174,187.27,207.312,191.927,207.416" id="path447"></path>

	<path d="M96.237,208.708C97.692,215.046,90.417,204.577,96.237,208.708" id="path449"></path>

	<path d="M82.271,209.875C82.658,215.302,77.846,207.117,82.271,209.875" id="path451"></path>

	<path d="M140.46,209.875c0.171,1.804-2.068,2.615-2.068,1.174C138.392,208.797,139.383,208.827,140.46,209.875" id="path453"></path>

	<path d="M106.322,215.046c-1.767-0.561-3.534-1.121-5.301-1.682   C102.955,212.291,107.148,212.045,106.322,215.046" id="path455" style="fill:#822F00;"></path>

	<path d="M87.443,213.753c1.054,1.455-0.293,5.428-1.682,4.008C84.298,216.267,86.16,213.903,87.443,213.753" id="path457"></path>

	<path d="M94.555,215.046c0.04,1.813-2.64,2.391-2.458,0.518C92.328,213.195,93.943,214.042,94.555,215.046" id="path459"></path>

	<path d="M117.702,216.21c-0.561-0.016-0.908,0.201-1.164-0.389c0.706-0.412,1.447-0.841,2.197-1.164   C118.683,215.411,118.08,215.884,117.702,216.21" id="path461" style="fill:#822F00;"></path>

	<path d="M172.919,216.21c-0.008,1.717,0.086,1.785-2.07,1.811C171.405,218.014,170.711,214.572,172.919,216.21" id="path463"></path>

	<path d="M116.927,225.65c-2.384-2.969-6.351-3.473-8.794-6.336c3.298-0.657,4.887,2.138,7.306,3.749   c3.626,2.415,2.909-3.431,5.754-4.267C119.722,221.142,119.781,224.342,116.927,225.65" id="path465" style="fill:#822F00;"></path>

	<path d="M156.495,221.64c-0.964,0.877-1.385,1.102-2.457,0.518c0.107-1.122,0.431-1.734,1.293-2.457   C156.041,220.359,156.439,221.205,156.495,221.64" id="path467"></path>

	<path d="M110.591,225.132c-0.301,0.546-0.056,0.941-0.775,1.293c-0.303-0.431-0.605-0.862-0.908-1.293   C109.469,225.132,110.029,225.132,110.591,225.132" id="path469" style="fill:#822F00;"></path>

	<path d="M172.919,227.589c-0.388,0.345-0.776,0.688-1.164,1.033C169.039,225.926,172.878,223.779,172.919,227.589" id="path471"></path>

	<path d="M110.591,228.494c0.179,0.646-0.075,1.021,0.518,1.293c-0.173,0.259-0.345,0.517-0.518,0.775   c-0.5-0.533-0.741-1.339-1.164-1.939C109.784,228.676,110.423,228.631,110.591,228.494" id="path473" style="fill:#822F00;"></path>

	<path d="M144.21,230.951c-0.56,0.982-0.942,1.597-1.939,1.811c-0.178-0.836-0.169-2.137,0-2.975   C142.783,230.186,144.029,230.786,144.21,230.951" id="path475"></path>

	<path d="M113.952,234.441c-1.242,1.104-1.391,2.453-0.389,3.752c-0.829,0.163-2.151,0.192-2.973,0   c0.942-1.546,2.725-2.775,2.197-4.656C112.932,233.625,114.085,234.634,113.952,234.441" id="path477" style="fill:#822F00;"></path>

	<path d="M119.382,233.925c-0.169,0.813-0.141,1.37-1.162,1.809c-0.173-0.56-0.345-1.118-0.518-1.678   C118.028,234.091,119.286,233.938,119.382,233.925" id="path479" style="fill:#822F00;"></path>

	<path d="M106.839,238.582c-0.642-1.183-1.341-1.735,0.129-2.848   C107.028,236.615,106.917,238.27,106.839,238.582" id="path481" style="fill:#822F00;"></path>

	<path d="M103.478,240.39C102.035,241.282,100.972,239.694,103.478,240.39" id="path483" style="fill:#822F00;"></path>

	<path d="M109.815,248.15c0.607-0.829,1.385-1.559,2.068-2.328c-0.484,1.362-1.724,2.475-2.068,4.137   c-2.48-1.796-3.238-4.698-2.847-7.629C108.263,244.29,107.366,247.465,109.815,248.15" id="path485" style="fill:#822F00;"></path>

	<path d="M120.675,252.16c-1.021-1.003-1.646-1.643-0.775-2.977   C120.539,249.969,120.745,251.018,120.675,252.16" id="path487" style="fill:#822F00;"></path>

	<path d="M120.675,256.296c-1.815,0.845-3.427,2.532-5.43,1.811   C116.443,256.155,118.825,256.019,120.675,256.296" id="path489" style="fill:#822F00;"></path>

	<path d="M119.899,262.89c-1.743-0.315-2.054-1.658,0-2.844C119.899,260.89,119.965,262.549,119.899,262.89" id="path491" style="fill:#822F00;"></path>

</g>


  
</svg>
