<?xml version="1.0" encoding="UTF-8" standalone="no"?>
<!-- Created with Inkscape (http://www.inkscape.org/) --><svg height="70.000000pt" id="svg26938" inkscape:export-filename="P:\cliparts\pansement.png" inkscape:export-xdpi="90.000000" inkscape:export-ydpi="90.000000" inkscape:version="0.40+cvs" sodipodi:docbase="P:\cliparts" sodipodi:docname="pansement.svg" sodipodi:version="0.32" width="80.000000pt" xmlns="http://www.w3.org/2000/svg" xmlns:cc="http://web.resource.org/cc/" xmlns:dc="http://purl.org/dc/elements/1.1/" xmlns:inkscape="http://www.inkscape.org/namespaces/inkscape" xmlns:rdf="http://www.w3.org/1999/02/22-rdf-syntax-ns#" xmlns:sodipodi="http://inkscape.sourceforge.net/DTD/sodipodi-0.dtd" xmlns:svg="http://www.w3.org/2000/svg">
  <metadata>
    <rdf:RDF xmlns:cc="http://web.resource.org/cc/" xmlns:dc="http://purl.org/dc/elements/1.1/" xmlns:rdf="http://www.w3.org/1999/02/22-rdf-syntax-ns#">
      <cc:Work rdf:about="">
        <dc:title>pansement</dc:title>
        <dc:description>jean.victor.balin@gmail.com</dc:description>
        <dc:subject>
          <rdf:Bag>
            <rdf:li>work</rdf:li>
            <rdf:li>health</rdf:li>
          </rdf:Bag>
        </dc:subject>
        <dc:publisher>
          <cc:Agent rdf:about="http://www.openclipart.org">
            <dc:title>Jean-Victor Balin</dc:title>
          </cc:Agent>
        </dc:publisher>
        <dc:creator>
          <cc:Agent>
            <dc:title>Jean-Victor Balin</dc:title>
          </cc:Agent>
        </dc:creator>
        <dc:rights>
          <cc:Agent>
            <dc:title>Jean-Victor Balin</dc:title>
          </cc:Agent>
        </dc:rights>
        <dc:date></dc:date>
        <dc:format>image/svg+xml</dc:format>
        <dc:type rdf:resource="http://purl.org/dc/dcmitype/StillImage"/>
        <cc:license rdf:resource="http://web.resource.org/cc/PublicDomain"/>
        <dc:language>en</dc:language>
      </cc:Work>
      <cc:License rdf:about="http://web.resource.org/cc/PublicDomain">
        <cc:permits rdf:resource="http://web.resource.org/cc/Reproduction"/>
        <cc:permits rdf:resource="http://web.resource.org/cc/Distribution"/>
        <cc:permits rdf:resource="http://web.resource.org/cc/DerivativeWorks"/>
      </cc:License>
    </rdf:RDF>
  </metadata>
  <defs id="defs3"/>
  <sodipodi:namedview bordercolor="#666666" borderopacity="1.0" id="base" inkscape:current-layer="layer1" inkscape:cx="62.500000" inkscape:cy="43.157640" inkscape:document-units="px" inkscape:pageopacity="0.0" inkscape:pageshadow="2" inkscape:window-height="696" inkscape:window-width="1024" inkscape:window-x="-4" inkscape:window-y="-4" inkscape:zoom="4.1360000" pagecolor="#ffffff"/>
  <g id="layer1" inkscape:groupmode="layer" inkscape:label="Layer 1">
    <g id="g26919" transform="matrix(0.643184,0.765712,-0.765712,0.643184,136.6987,-480.0172)">
      <path d="M 345.36451,353.28704 C 338.14974,353.28704 332.35861,355.40756 331.77076,358.13079 C 331.92628,358.25476 332.03808,358.41736 332.08326,358.63079 C 332.16430,359.01371 331.95648,359.34419 331.64576,359.53704 L 331.64576,369.47454 C 332.13540,369.37090 332.63587,369.70366 332.73951,370.19329 C 332.84316,370.68291 332.51039,371.15215 332.02076,371.25579 C 331.88758,371.28398 331.76897,371.22068 331.64576,371.19329 L 331.64576,374.56829 C 331.75843,374.68811 331.89142,374.80640 331.92701,374.97454 C 331.99229,375.28287 331.85679,375.54984 331.64576,375.75579 L 331.64576,388.19329 C 331.77025,388.01242 331.94759,387.86685 332.17701,387.81829 C 332.66663,387.71464 333.16712,388.04741 333.27076,388.53704 C 333.37439,389.02668 333.04164,389.49590 332.55201,389.59954 C 332.15968,389.68259 331.83431,389.45635 331.64576,389.13079 L 331.64576,392.41204 C 331.99794,392.47607 332.31803,392.66982 332.39576,393.03704 C 332.49940,393.52668 332.16664,393.99590 331.67701,394.09954 C 331.66624,394.10182 331.65651,394.09765 331.64576,394.09954 L 331.64576,404.53704 C 332.12359,404.45301 332.57565,404.74568 332.67701,405.22454 C 332.78064,405.71419 332.47914,406.21465 331.98951,406.31829 C 331.86710,406.34420 331.76315,406.28006 331.64576,406.25579 L 331.64576,409.75579 C 331.70821,409.85154 331.80832,409.91924 331.83326,410.03704 C 331.89039,410.30696 331.79852,410.55610 331.64576,410.75579 L 331.64576,422.91204 C 331.77032,422.78381 331.90034,422.63826 332.08326,422.59954 C 332.57289,422.49591 333.04212,422.82866 333.14576,423.31829 C 333.24940,423.80792 332.94789,424.27715 332.45826,424.38079 C 332.13398,424.44943 331.86112,424.29201 331.64576,424.06829 L 331.64576,439.44329 C 332.11150,439.38040 332.54668,439.69395 332.64576,440.16204 C 332.74941,440.65168 332.44789,441.12090 331.95826,441.22454 C 331.84662,441.24817 331.75118,441.17796 331.64576,441.16204 L 331.64576,444.19329 C 331.90514,444.30184 332.11338,444.48641 332.17701,444.78704 C 332.26669,445.21077 332.02224,445.58634 331.64576,445.75579 L 331.64576,447.25579 C 331.64576,448.15407 332.33648,448.96046 333.36451,449.69329 C 333.24587,449.57521 333.12113,449.46594 333.08326,449.28704 C 332.97963,448.79741 333.28113,448.32818 333.77076,448.22454 C 334.26039,448.12090 334.72962,448.42241 334.83326,448.91204 C 334.93690,449.40166 334.63539,449.87090 334.14576,449.97454 C 333.93521,450.01910 333.72756,449.96879 333.55201,449.88079 C 334.91810,450.77690 336.90210,451.50875 339.33326,451.97454 C 339.40060,451.62770 339.59103,451.30227 339.95826,451.22454 C 340.44791,451.12089 340.91712,451.45366 341.02076,451.94329 C 341.04211,452.04416 340.97019,452.12760 340.95826,452.22454 C 342.36012,452.40991 343.79588,452.56829 345.36451,452.56829 C 351.09285,452.56829 355.92058,451.20662 357.98951,449.28704 C 357.49989,449.39068 356.99940,449.05792 356.89576,448.56829 C 356.79213,448.07867 357.12488,447.60943 357.61451,447.50579 C 358.10413,447.40216 358.57337,447.70366 358.67701,448.19329 C 358.70748,448.33724 358.64856,448.46407 358.61451,448.59954 C 358.90824,448.16680 359.11451,447.72458 359.11451,447.25579 L 359.11451,444.59954 C 359.02791,444.65329 358.97122,444.73320 358.86451,444.75579 C 358.37487,444.85942 357.87440,444.55792 357.77076,444.06829 C 357.66711,443.57866 357.99988,443.07818 358.48951,442.97454 C 358.71279,442.92728 358.93245,442.99182 359.11451,443.09954 L 359.11451,439.88079 C 358.87307,439.75540 358.67358,439.53488 358.61451,439.25579 C 358.52945,438.85390 358.76614,438.50181 359.11451,438.31829 L 359.11451,422.47454 C 358.75755,422.42063 358.44452,422.22753 358.36451,421.84954 C 358.26087,421.35991 358.56238,420.89068 359.05201,420.78704 C 359.07355,420.78248 359.09296,420.79005 359.11451,420.78704 L 359.11451,409.69329 C 359.02982,409.74427 358.96475,409.82832 358.86451,409.84954 C 358.37487,409.95317 357.90565,409.62042 357.80201,409.13079 C 357.69836,408.64116 357.99988,408.17193 358.48951,408.06829 C 358.71279,408.02103 358.92538,408.09264 359.11451,408.19329 L 359.11451,405.06829 C 358.73593,405.01724 358.38430,404.80081 358.30201,404.41204 C 358.19837,403.92240 358.53113,403.45318 359.02076,403.34954 C 359.05503,403.34228 359.08055,403.38415 359.11451,403.38079 L 359.11451,391.97454 C 358.99391,392.11011 358.86670,392.24689 358.67701,392.28704 C 358.18739,392.39067 357.68690,392.05792 357.58326,391.56829 C 357.47963,391.07866 357.81238,390.60943 358.30201,390.50579 C 358.62843,390.43670 358.90850,390.59156 359.11451,390.81829 L 359.11451,387.81829 C 359.00469,387.70420 358.86826,387.60865 358.83326,387.44329 C 358.76833,387.13657 358.90566,386.87705 359.11451,386.66204 L 359.11451,374.50579 C 358.99017,374.66833 358.83422,374.80303 358.61451,374.84954 C 358.12489,374.95319 357.65565,374.65167 357.55201,374.16204 C 357.44838,373.67241 357.74988,373.17193 358.23951,373.06829 C 358.61134,372.98959 358.91739,373.20357 359.11451,373.50579 L 359.11451,370.00579 C 358.77112,369.94176 358.47349,369.74801 358.39576,369.38079 C 358.29212,368.89115 358.59363,368.39068 359.08326,368.28704 C 359.09403,368.28476 359.10376,368.28890 359.11451,368.28704 L 359.11451,358.56829 C 359.11451,356.87375 356.92864,355.43790 353.73951,354.47454 C 353.61943,354.69173 353.44337,354.85566 353.17701,354.91204 C 352.68739,355.01568 352.21815,354.71417 352.11451,354.22454 C 352.10270,354.16872 352.14737,354.12307 352.14576,354.06829 C 350.11330,353.61516 347.89215,353.28704 345.36451,353.28704 z M 348.95826,353.88079 C 349.44788,353.77714 349.91712,354.07866 350.02076,354.56829 C 350.12439,355.05793 349.82289,355.52715 349.33326,355.63079 C 348.84363,355.73444 348.34315,355.43292 348.23951,354.94329 C 348.13587,354.45365 348.46863,353.98443 348.95826,353.88079 z M 345.42701,354.63079 C 345.91666,354.52715 346.38587,354.82866 346.48951,355.31829 C 346.59314,355.80791 346.29164,356.27715 345.80201,356.38079 C 345.31238,356.48442 344.81190,356.18292 344.70826,355.69329 C 344.60462,355.20367 344.93738,354.73443 345.42701,354.63079 z M 341.89576,355.38079 C 342.38541,355.27715 342.85462,355.57866 342.95826,356.06829 C 343.06189,356.55791 342.76039,357.02715 342.27076,357.13079 C 341.78113,357.23442 341.28065,356.93292 341.17701,356.44329 C 341.07337,355.95366 341.40613,355.48443 341.89576,355.38079 z M 338.36451,356.09954 C 338.85413,355.99589 339.32337,356.32866 339.42701,356.81829 C 339.53064,357.30793 339.22914,357.77715 338.73951,357.88079 C 338.24989,357.98444 337.74940,357.68292 337.64576,357.19329 C 337.54213,356.70365 337.87488,356.20318 338.36451,356.09954 z M 334.83326,356.84954 C 335.32288,356.74591 335.79212,357.07866 335.89576,357.56829 C 335.99939,358.05791 335.69789,358.52715 335.20826,358.63079 C 334.71864,358.73442 334.21815,358.43292 334.11451,357.94329 C 334.01087,357.45367 334.34363,356.95318 334.83326,356.84954 z M 355.11451,356.88079 C 355.60415,356.77716 356.10462,357.10991 356.20826,357.59954 C 356.31191,358.08917 355.97914,358.55840 355.48951,358.66204 C 354.99987,358.76568 354.53065,358.46417 354.42701,357.97454 C 354.32336,357.48492 354.62488,356.98443 355.11451,356.88079 z M 351.58326,357.63079 C 352.07289,357.52715 352.57337,357.85991 352.67701,358.34954 C 352.78066,358.83918 352.47914,359.30840 351.98951,359.41204 C 351.49987,359.51569 350.99940,359.21417 350.89576,358.72454 C 350.79211,358.23491 351.09363,357.73443 351.58326,357.63079 z M 348.08326,358.38079 C 348.57289,358.27715 349.04212,358.60991 349.14576,359.09954 C 349.24940,359.58916 348.94789,360.05840 348.45826,360.16204 C 347.96862,360.26567 347.46815,359.96417 347.36451,359.47454 C 347.26086,358.98491 347.59363,358.48443 348.08326,358.38079 z M 344.55201,359.13079 C 345.04165,359.02715 345.51087,359.32866 345.61451,359.81829 C 345.71816,360.30791 345.41664,360.80840 344.92701,360.91204 C 344.43737,361.01567 343.93690,360.68292 343.83326,360.19329 C 343.72961,359.70366 344.06238,359.23443 344.55201,359.13079 z M 341.02076,359.88079 C 341.51040,359.77714 341.97962,360.07866 342.08326,360.56829 C 342.18691,361.05793 341.88539,361.55840 341.39576,361.66204 C 340.90612,361.76569 340.40565,361.43292 340.30201,360.94329 C 340.19836,360.45365 340.53113,359.98443 341.02076,359.88079 z M 357.67701,359.88079 C 358.16666,359.77714 358.66712,360.07866 358.77076,360.56829 C 358.87439,361.05793 358.54164,361.52715 358.05201,361.63079 C 357.56238,361.73444 357.09315,361.43292 356.98951,360.94329 C 356.88587,360.45365 357.18738,359.98443 357.67701,359.88079 z M 337.48951,360.63079 C 337.97915,360.52715 338.44837,360.82866 338.55201,361.31829 C 338.65566,361.80793 338.35414,362.30840 337.86451,362.41204 C 337.37487,362.51569 336.87440,362.18292 336.77076,361.69329 C 336.66711,361.20366 336.99988,360.73443 337.48951,360.63079 z M 354.23951,360.78704 C 354.72914,360.68339 355.19837,360.98491 355.30201,361.47454 C 355.40565,361.96418 355.10414,362.43340 354.61451,362.53704 C 354.12489,362.64069 353.62440,362.33917 353.52076,361.84954 C 353.41713,361.35990 353.74988,360.89068 354.23951,360.78704 z M 333.95826,361.38079 C 334.44790,361.27715 334.91712,361.57866 335.02076,362.06829 C 335.12441,362.55791 334.82289,363.05840 334.33326,363.16204 C 333.84362,363.26567 333.34315,362.93292 333.23951,362.44329 C 333.13586,361.95366 333.46863,361.48443 333.95826,361.38079 z M 350.33326,361.78704 C 350.82288,361.68341 351.32337,361.98491 351.42701,362.47454 C 351.53064,362.96417 351.19789,363.46465 350.70826,363.56829 C 350.21864,363.67193 349.74940,363.33917 349.64576,362.84954 C 349.54213,362.35992 349.84363,361.89068 350.33326,361.78704 z M 346.80201,362.53704 C 347.29163,362.43340 347.79212,362.73491 347.89576,363.22454 C 347.99939,363.71418 347.66664,364.21465 347.17701,364.31829 C 346.68739,364.42194 346.21815,364.08917 346.11451,363.59954 C 346.01088,363.10991 346.31238,362.64068 346.80201,362.53704 z M 343.27076,363.28704 C 343.76039,363.18339 344.26087,363.48491 344.36451,363.97454 C 344.46815,364.46418 344.13539,364.93340 343.64576,365.03704 C 343.15614,365.14069 342.68690,364.83917 342.58326,364.34954 C 342.47963,363.85991 342.78113,363.39068 343.27076,363.28704 z M 339.73951,364.03704 C 340.22914,363.93340 340.72962,364.23491 340.83326,364.72454 C 340.93690,365.21416 340.60414,365.68340 340.11451,365.78704 C 339.62489,365.89067 339.15565,365.58917 339.05201,365.09954 C 338.94838,364.60991 339.24988,364.14068 339.73951,364.03704 z M 356.36451,364.25579 C 356.85415,364.15215 357.35462,364.45366 357.45826,364.94329 C 357.56191,365.43291 357.22914,365.93340 356.73951,366.03704 C 356.24987,366.14067 355.78065,365.80792 355.67701,365.31829 C 355.57336,364.82866 355.87488,364.35943 356.36451,364.25579 z M 336.20826,364.78704 C 336.69789,364.68341 337.19837,364.98491 337.30201,365.47454 C 337.40565,365.96417 337.07289,366.43340 336.58326,366.53704 C 336.09364,366.64068 335.62440,366.33917 335.52076,365.84954 C 335.41713,365.35992 335.71863,364.89068 336.20826,364.78704 z M 352.83326,365.00579 C 353.32290,364.90216 353.82337,365.20366 353.92701,365.69329 C 354.03066,366.18292 353.69789,366.68340 353.20826,366.78704 C 352.71862,366.89068 352.24940,366.55792 352.14576,366.06829 C 352.04211,365.57864 352.34363,365.10943 352.83326,365.00579 z M 332.67701,365.50579 C 333.16663,365.40214 333.66712,365.73491 333.77076,366.22454 C 333.87440,366.71417 333.54164,367.18340 333.05201,367.28704 C 332.56239,367.39069 332.09315,367.08917 331.98951,366.59954 C 331.88588,366.10990 332.18738,365.60943 332.67701,365.50579 z M 349.30201,365.75579 C 349.79165,365.65214 350.29212,365.95366 350.39576,366.44329 C 350.49941,366.93293 350.16664,367.43340 349.67701,367.53704 C 349.18737,367.64069 348.71815,367.30792 348.61451,366.81829 C 348.51086,366.32865 348.81238,365.85943 349.30201,365.75579 z M 345.77076,366.50579 C 346.26040,366.40215 346.76087,366.70366 346.86451,367.19329 C 346.96816,367.68293 346.63539,368.18340 346.14576,368.28704 C 345.65612,368.39069 345.18690,368.05792 345.08326,367.56829 C 344.97961,367.07866 345.28113,366.60943 345.77076,366.50579 z M 342.23951,367.25579 C 342.72914,367.15215 343.22962,367.45366 343.33326,367.94329 C 343.43690,368.43291 343.10414,368.90215 342.61451,369.00579 C 342.12487,369.10942 341.65565,368.80792 341.55201,368.31829 C 341.44836,367.82866 341.74988,367.35943 342.23951,367.25579 z M 338.70826,368.00579 C 339.19790,367.90216 339.69837,368.20366 339.80201,368.69329 C 339.90566,369.18292 339.57289,369.65215 339.08326,369.75579 C 338.59362,369.85943 338.12440,369.55792 338.02076,369.06829 C 337.91711,368.57864 338.21863,368.10943 338.70826,368.00579 z M 335.17701,368.72454 C 335.66665,368.62090 336.16712,368.95366 336.27076,369.44329 C 336.37441,369.93294 336.04164,370.40215 335.55201,370.50579 C 335.06237,370.60942 334.59315,370.30792 334.48951,369.81829 C 334.38586,369.32866 334.68738,368.82818 335.17701,368.72454 z M 355.55201,369.03704 C 356.04166,368.93340 356.51087,369.23491 356.61451,369.72454 C 356.71814,370.21419 356.41664,370.71465 355.92701,370.81829 C 355.43738,370.92192 354.96815,370.62042 354.86451,370.13079 C 354.76087,369.64116 355.06238,369.14068 355.55201,369.03704 z M 352.02076,369.78704 C 352.51038,369.68338 352.97962,369.98491 353.08326,370.47454 C 353.18689,370.96417 352.88539,371.46465 352.39576,371.56829 C 351.90614,371.67193 351.43690,371.33917 351.33326,370.84954 C 351.22962,370.35990 351.53113,369.89068 352.02076,369.78704 z M 348.48951,370.53704 C 348.97913,370.43341 349.44837,370.73491 349.55201,371.22454 C 349.65564,371.71417 349.35414,372.21465 348.86451,372.31829 C 348.37488,372.42193 347.90565,372.08917 347.80201,371.59954 C 347.69837,371.10989 347.99988,370.64068 348.48951,370.53704 z M 344.95826,371.28704 C 345.44788,371.18340 345.91712,371.48491 346.02076,371.97454 C 346.12439,372.46419 345.82289,372.96465 345.33326,373.06829 C 344.84363,373.17192 344.37440,372.83917 344.27076,372.34954 C 344.16712,371.85991 344.46863,371.39068 344.95826,371.28704 z M 341.42701,372.03704 C 341.91666,371.93340 342.38587,372.23491 342.48951,372.72454 C 342.59314,373.21419 342.29164,373.71465 341.80201,373.81829 C 341.31238,373.92192 340.84315,373.58917 340.73951,373.09954 C 340.63587,372.60991 340.93738,372.14068 341.42701,372.03704 z M 337.89576,372.78704 C 338.38541,372.68338 338.85462,372.98491 338.95826,373.47454 C 339.06189,373.96417 338.76039,374.43340 338.27076,374.53704 C 337.78113,374.64068 337.31190,374.33917 337.20826,373.84954 C 337.10462,373.35990 337.40613,372.89068 337.89576,372.78704 z M 334.36451,373.53704 C 334.85416,373.43339 335.35462,373.73491 335.45826,374.22454 C 335.56189,374.71418 335.22914,375.18340 334.73951,375.28704 C 334.24988,375.39069 333.78065,375.08917 333.67701,374.59954 C 333.57337,374.10990 333.87488,373.64068 334.36451,373.53704 z M 354.70826,373.81829 C 355.19789,373.71465 355.66712,374.04741 355.77076,374.53704 C 355.87440,375.02666 355.57289,375.49590 355.08326,375.59954 C 354.59364,375.70317 354.12440,375.40167 354.02076,374.91204 C 353.91713,374.42241 354.21863,373.92193 354.70826,373.81829 z M 351.17701,374.56829 C 351.66663,374.46466 352.13587,374.79741 352.23951,375.28704 C 352.34315,375.77667 352.04164,376.24590 351.55201,376.34954 C 351.06239,376.45318 350.59315,376.15167 350.48951,375.66204 C 350.38588,375.17242 350.68738,374.67193 351.17701,374.56829 z M 347.64576,375.31829 C 348.13538,375.21464 348.60462,375.54741 348.70826,376.03704 C 348.81189,376.52668 348.51039,376.99590 348.02076,377.09954 C 347.53114,377.20319 347.06190,376.90167 346.95826,376.41204 C 346.85463,375.92240 347.15613,375.42193 347.64576,375.31829 z M 344.11451,376.06829 C 344.60414,375.96464 345.07337,376.26616 345.17701,376.75579 C 345.28065,377.24542 344.97914,377.74590 344.48951,377.84954 C 343.99986,377.95319 343.53065,377.62042 343.42701,377.13079 C 343.32338,376.64115 343.62488,376.17193 344.11451,376.06829 z M 340.58326,376.81829 C 341.07289,376.71465 341.54212,377.01616 341.64576,377.50579 C 341.74940,377.99541 341.44789,378.49590 340.95826,378.59954 C 340.46861,378.70317 339.99940,378.37042 339.89576,377.88079 C 339.79213,377.39116 340.09363,376.92193 340.58326,376.81829 z M 337.05201,377.56829 C 337.54164,377.46466 338.04212,377.76616 338.14576,378.25579 C 338.24940,378.74542 337.91664,379.24590 337.42701,379.34954 C 336.93739,379.45318 336.46815,379.12042 336.36451,378.63079 C 336.26088,378.14117 336.56238,377.67193 337.05201,377.56829 z M 357.73951,377.81829 C 358.22915,377.71464 358.69837,378.01616 358.80201,378.50579 C 358.90566,378.99543 358.60414,379.46465 358.11451,379.56829 C 357.62487,379.67194 357.12440,379.37042 357.02076,378.88079 C 356.91711,378.39115 357.24988,377.92193 357.73951,377.81829 z M 333.52076,378.31829 C 334.01039,378.21464 334.51087,378.51616 334.61451,379.00579 C 334.71815,379.49543 334.38539,379.99590 333.89576,380.09954 C 333.40614,380.20319 332.93690,379.87042 332.83326,379.38079 C 332.72963,378.89115 333.03113,378.42193 333.52076,378.31829 z M 354.20826,378.53704 C 354.69790,378.43339 355.16712,378.76616 355.27076,379.25579 C 355.37441,379.74543 355.07289,380.21465 354.58326,380.31829 C 354.09362,380.42194 353.62440,380.12042 353.52076,379.63079 C 353.41711,379.14115 353.71863,378.64068 354.20826,378.53704 z M 350.67701,379.28704 C 351.16665,379.18338 351.63587,379.51616 351.73951,380.00579 C 351.84316,380.49542 351.54164,380.96465 351.05201,381.06829 C 350.56237,381.17193 350.09315,380.87042 349.98951,380.38079 C 349.88586,379.89115 350.18738,379.39068 350.67701,379.28704 z M 347.14576,380.03704 C 347.63540,379.93339 348.10462,380.26616 348.20826,380.75579 C 348.31191,381.24543 348.01039,381.71465 347.52076,381.81829 C 347.03112,381.92194 346.56190,381.62042 346.45826,381.13079 C 346.35461,380.64115 346.65613,380.14068 347.14576,380.03704 z M 343.61451,380.78704 C 344.10415,380.68340 344.57337,381.01616 344.67701,381.50579 C 344.78066,381.99544 344.47914,382.46465 343.98951,382.56829 C 343.49987,382.67192 343.03065,382.37042 342.92701,381.88079 C 342.82336,381.39116 343.12488,380.89068 343.61451,380.78704 z M 340.08326,381.53704 C 340.57290,381.43341 341.04212,381.73491 341.14576,382.22454 C 341.24941,382.71416 340.94789,383.21465 340.45826,383.31829 C 339.96862,383.42193 339.49940,383.12042 339.39576,382.63079 C 339.29211,382.14117 339.59363,381.64068 340.08326,381.53704 z M 336.55201,382.28704 C 337.04164,382.18339 337.54212,382.48491 337.64576,382.97454 C 337.74940,383.46418 337.41664,383.96465 336.92701,384.06829 C 336.43737,384.17194 335.96815,383.83917 335.86451,383.34954 C 335.76086,382.85990 336.06238,382.39068 336.55201,382.28704 z M 356.89576,382.59954 C 357.38538,382.49591 357.85462,382.79741 357.95826,383.28704 C 358.06189,383.77667 357.76039,384.27715 357.27076,384.38079 C 356.78114,384.48443 356.31190,384.15167 356.20826,383.66204 C 356.10462,383.17242 356.40613,382.70318 356.89576,382.59954 z M 333.02076,383.03704 C 333.51040,382.93340 334.01087,383.23491 334.11451,383.72454 C 334.21816,384.21419 333.88539,384.71465 333.39576,384.81829 C 332.90612,384.92192 332.43690,384.58917 332.33326,384.09954 C 332.22961,383.60991 332.53113,383.14068 333.02076,383.03704 z M 353.36451,383.34954 C 353.85413,383.24589 354.32337,383.54741 354.42701,384.03704 C 354.53064,384.52668 354.22914,384.99590 353.73951,385.09954 C 353.24988,385.20319 352.78065,384.90167 352.67701,384.41204 C 352.57337,383.92241 352.87488,383.45318 353.36451,383.34954 z M 349.83326,384.09954 C 350.32288,383.99589 350.79212,384.29741 350.89576,384.78704 C 350.99939,385.27668 350.69789,385.74590 350.20826,385.84954 C 349.71863,385.95319 349.24940,385.65167 349.14576,385.16204 C 349.04212,384.67240 349.34363,384.20318 349.83326,384.09954 z M 346.30201,384.84954 C 346.79166,384.74591 347.26087,385.04741 347.36451,385.53704 C 347.46814,386.02667 347.16664,386.49590 346.67701,386.59954 C 346.18738,386.70318 345.71815,386.40167 345.61451,385.91204 C 345.51087,385.42242 345.81238,384.95318 346.30201,384.84954 z M 342.77076,385.56829 C 343.26041,385.46465 343.72962,385.79741 343.83326,386.28704 C 343.93689,386.77668 343.63539,387.24590 343.14576,387.34954 C 342.65613,387.45319 342.18690,387.15167 342.08326,386.66204 C 341.97962,386.17241 342.28113,385.67193 342.77076,385.56829 z M 339.23951,386.31829 C 339.72916,386.21464 340.22962,386.54741 340.33326,387.03704 C 340.43689,387.52668 340.10414,387.99590 339.61451,388.09954 C 339.12488,388.20319 338.65565,387.90167 338.55201,387.41204 C 338.44837,386.92241 338.74988,386.42193 339.23951,386.31829 z M 335.70826,387.06829 C 336.19790,386.96465 336.69837,387.29741 336.80201,387.78704 C 336.90567,388.27666 336.57289,388.74590 336.08326,388.84954 C 335.59363,388.95317 335.12440,388.65167 335.02076,388.16204 C 334.91712,387.67241 335.21863,387.17193 335.70826,387.06829 z M 356.02076,387.09954 C 356.51040,386.99589 356.97962,387.32866 357.08326,387.81829 C 357.18691,388.30793 356.88539,388.77715 356.39576,388.88079 C 355.90612,388.98444 355.40565,388.68292 355.30201,388.19329 C 355.19836,387.70365 355.53113,387.20318 356.02076,387.09954 z M 352.48951,387.84954 C 352.97914,387.74589 353.44837,388.07866 353.55201,388.56829 C 353.65566,389.05793 353.35414,389.52715 352.86451,389.63079 C 352.37487,389.73444 351.90565,389.43292 351.80201,388.94329 C 351.69836,388.45365 351.99988,387.95318 352.48951,387.84954 z M 348.95826,388.59954 C 349.44789,388.49591 349.91712,388.79741 350.02076,389.28704 C 350.12440,389.77667 349.82289,390.27715 349.33326,390.38079 C 348.84362,390.48443 348.37440,390.15167 348.27076,389.66204 C 348.16711,389.17242 348.46863,388.70318 348.95826,388.59954 z M 345.42701,389.34954 C 345.91664,389.24589 346.38587,389.54741 346.48951,390.03704 C 346.59315,390.52667 346.29164,391.02715 345.80201,391.13079 C 345.31237,391.23443 344.84315,390.90167 344.73951,390.41204 C 344.63585,389.92240 344.93738,389.45318 345.42701,389.34954 z M 341.89576,390.09954 C 342.38540,389.99589 342.85462,390.29741 342.95826,390.78704 C 343.06191,391.27668 342.76039,391.77715 342.27076,391.88079 C 341.78112,391.98444 341.31190,391.65167 341.20826,391.16204 C 341.10461,390.67240 341.40613,390.20318 341.89576,390.09954 z M 338.36451,390.84954 C 338.85415,390.74590 339.32337,391.04741 339.42701,391.53704 C 339.53066,392.02669 339.22914,392.52715 338.73951,392.63079 C 338.24987,392.73442 337.78065,392.40167 337.67701,391.91204 C 337.57336,391.42241 337.87488,390.95318 338.36451,390.84954 z M 354.77076,391.25579 C 355.26038,391.15214 355.72962,391.45366 355.83326,391.94329 C 355.93689,392.43292 355.63539,392.93340 355.14576,393.03704 C 354.65614,393.14068 354.15565,392.80792 354.05201,392.31829 C 353.94838,391.82865 354.28113,391.35943 354.77076,391.25579 z M 334.83326,391.59954 C 335.32290,391.49591 335.79212,391.79741 335.89576,392.28704 C 335.99941,392.77667 335.69789,393.24590 335.20826,393.34954 C 334.71862,393.45318 334.24940,393.15167 334.14576,392.66204 C 334.04211,392.17242 334.34363,391.70318 334.83326,391.59954 z M 351.23951,392.00579 C 351.72913,391.90216 352.19837,392.20366 352.30201,392.69329 C 352.40564,393.18292 352.10414,393.68340 351.61451,393.78704 C 351.12489,393.89068 350.62440,393.55792 350.52076,393.06829 C 350.41713,392.57864 350.74988,392.10943 351.23951,392.00579 z M 347.70826,392.75579 C 348.19788,392.65214 348.66712,392.95366 348.77076,393.44329 C 348.87439,393.93293 348.57289,394.40215 348.08326,394.50579 C 347.59364,394.60944 347.09315,394.30792 346.98951,393.81829 C 346.88587,393.32865 347.21863,392.85943 347.70826,392.75579 z M 344.17701,393.50579 C 344.66663,393.40215 345.13587,393.70366 345.23951,394.19329 C 345.34314,394.68294 345.04164,395.15215 344.55201,395.25579 C 344.06238,395.35942 343.56190,395.05792 343.45826,394.56829 C 343.35462,394.07866 343.68738,393.60943 344.17701,393.50579 z M 340.64576,394.25579 C 341.13538,394.15216 341.60462,394.45366 341.70826,394.94329 C 341.81189,395.43291 341.51039,395.90215 341.02076,396.00579 C 340.53113,396.10943 340.03065,395.80792 339.92701,395.31829 C 339.82337,394.82867 340.15613,394.35943 340.64576,394.25579 z M 357.14576,394.53704 C 357.63539,394.43339 358.10462,394.73491 358.20826,395.22454 C 358.31190,395.71418 358.01039,396.18340 357.52076,396.28704 C 357.03112,396.39069 356.53065,396.08917 356.42701,395.59954 C 356.32336,395.10990 356.65613,394.64068 357.14576,394.53704 z M 337.11451,394.97454 C 337.60414,394.87089 338.07337,395.20366 338.17701,395.69329 C 338.28065,396.18293 337.97914,396.65215 337.48951,396.75579 C 336.99989,396.85944 336.49940,396.55792 336.39576,396.06829 C 336.29213,395.57865 336.62488,395.07818 337.11451,394.97454 z M 353.61451,395.25579 C 354.10415,395.15215 354.57337,395.48491 354.67701,395.97454 C 354.78066,396.46416 354.47914,396.93340 353.98951,397.03704 C 353.49987,397.14067 352.99940,396.83917 352.89576,396.34954 C 352.79211,395.85991 353.12488,395.35943 353.61451,395.25579 z M 333.58326,395.72454 C 334.07288,395.62090 334.54212,395.95366 334.64576,396.44329 C 334.74939,396.93294 334.44789,397.40215 333.95826,397.50579 C 333.46864,397.60942 332.96815,397.30792 332.86451,396.81829 C 332.76088,396.32866 333.09363,395.82818 333.58326,395.72454 z M 350.08326,396.00579 C 350.57290,395.90216 351.04212,396.23491 351.14576,396.72454 C 351.24941,397.21417 350.94789,397.68340 350.45826,397.78704 C 349.96862,397.89068 349.46815,397.58917 349.36451,397.09954 C 349.26086,396.60992 349.59363,396.10943 350.08326,396.00579 z M 346.55201,396.75579 C 347.04165,396.65214 347.51087,396.98491 347.61451,397.47454 C 347.71816,397.96417 347.41664,398.43340 346.92701,398.53704 C 346.43737,398.64068 345.93690,398.33917 345.83326,397.84954 C 345.72961,397.35990 346.06238,396.85943 346.55201,396.75579 z M 343.02076,397.50579 C 343.51040,397.40214 343.97962,397.73491 344.08326,398.22454 C 344.18691,398.71418 343.88539,399.18340 343.39576,399.28704 C 342.90612,399.39069 342.40565,399.08917 342.30201,398.59954 C 342.19836,398.10990 342.53113,397.60943 343.02076,397.50579 z M 339.48951,398.25579 C 339.97914,398.15216 340.44837,398.45366 340.55201,398.94329 C 340.65566,399.43292 340.35414,399.93340 339.86451,400.03704 C 339.37487,400.14068 338.90565,399.83917 338.80201,399.34954 C 338.69836,398.85992 338.99988,398.35943 339.48951,398.25579 z M 335.95826,399.00579 C 336.44789,398.90214 336.91712,399.20366 337.02076,399.69329 C 337.12440,400.18293 336.82289,400.68340 336.33326,400.78704 C 335.84362,400.89069 335.37440,400.55792 335.27076,400.06829 C 335.16711,399.57865 335.46863,399.10943 335.95826,399.00579 z M 356.30201,399.31829 C 356.79166,399.21465 357.29212,399.51616 357.39576,400.00579 C 357.49939,400.49544 357.16664,400.96465 356.67701,401.06829 C 356.18738,401.17192 355.71815,400.87042 355.61451,400.38079 C 355.51087,399.89116 355.81238,399.42193 356.30201,399.31829 z M 332.42701,399.75579 C 332.91664,399.65214 333.38587,399.95366 333.48951,400.44329 C 333.59315,400.93293 333.29164,401.43340 332.80201,401.53704 C 332.31237,401.64069 331.84315,401.30792 331.73951,400.81829 C 331.63585,400.32866 331.93738,399.85943 332.42701,399.75579 z M 352.80201,400.06829 C 353.29166,399.96465 353.76087,400.26616 353.86451,400.75579 C 353.96814,401.24543 353.66664,401.71465 353.17701,401.81829 C 352.68738,401.92195 352.18690,401.62042 352.08326,401.13079 C 351.97962,400.64116 352.31238,400.17193 352.80201,400.06829 z M 349.27076,400.78704 C 349.76041,400.68341 350.22962,401.01616 350.33326,401.50579 C 350.43689,401.99542 350.13539,402.46465 349.64576,402.56829 C 349.15613,402.67193 348.65565,402.37042 348.55201,401.88079 C 348.44837,401.39114 348.78113,400.89068 349.27076,400.78704 z M 345.73951,401.53704 C 346.22915,401.43341 346.69837,401.76616 346.80201,402.25579 C 346.90566,402.74542 346.60414,403.21465 346.11451,403.31829 C 345.62488,403.42193 345.12440,403.12042 345.02076,402.63079 C 344.91712,402.14114 345.24988,401.64068 345.73951,401.53704 z M 342.20826,402.28704 C 342.69790,402.18340 343.16712,402.51616 343.27076,403.00579 C 343.37441,403.49544 343.07289,403.96465 342.58326,404.06829 C 342.09363,404.17192 341.59315,403.87042 341.48951,403.38079 C 341.38587,402.89116 341.71863,402.39068 342.20826,402.28704 z M 338.67701,403.03704 C 339.16665,402.93341 339.63587,403.26616 339.73951,403.75579 C 339.84316,404.24541 339.54164,404.71465 339.05201,404.81829 C 338.56237,404.92192 338.06190,404.62042 337.95826,404.13079 C 337.85461,403.64117 338.18738,403.14068 338.67701,403.03704 z M 335.14576,403.78704 C 335.63540,403.68341 336.10462,403.98491 336.20826,404.47454 C 336.31191,404.96417 336.01039,405.46465 335.52076,405.56829 C 335.03112,405.67193 334.53065,405.37042 334.42701,404.88079 C 334.32336,404.39114 334.65613,403.89068 335.14576,403.78704 z M 355.48951,404.09954 C 355.97914,403.99589 356.44837,404.29741 356.55201,404.78704 C 356.65565,405.27668 356.35414,405.77715 355.86451,405.88079 C 355.37489,405.98444 354.87440,405.65167 354.77076,405.16204 C 354.66713,404.67240 354.99988,404.20318 355.48951,404.09954 z M 351.95826,404.84954 C 352.44789,404.74590 352.91712,405.04741 353.02076,405.53704 C 353.12440,406.02669 352.82289,406.52715 352.33326,406.63079 C 351.84364,406.73442 351.34315,406.40167 351.23951,405.91204 C 351.13588,405.42241 351.46863,404.95318 351.95826,404.84954 z M 348.42701,405.59954 C 348.91664,405.49590 349.38587,405.79741 349.48951,406.28704 C 349.59315,406.77669 349.29164,407.24590 348.80201,407.34954 C 348.31239,407.45317 347.81190,407.15167 347.70826,406.66204 C 347.60463,406.17241 347.93738,405.70318 348.42701,405.59954 z M 344.89576,406.34954 C 345.38538,406.24589 345.85462,406.54741 345.95826,407.03704 C 346.06189,407.52667 345.76039,407.99590 345.27076,408.09954 C 344.78114,408.20318 344.28065,407.90167 344.17701,407.41204 C 344.07338,406.92240 344.40613,406.45318 344.89576,406.34954 z M 341.36451,407.09954 C 341.85413,406.99589 342.32337,407.29741 342.42701,407.78704 C 342.53064,408.27668 342.22914,408.74590 341.73951,408.84954 C 341.24989,408.95319 340.74940,408.65167 340.64576,408.16204 C 340.54213,407.67240 340.87488,407.20318 341.36451,407.09954 z M 337.83326,407.81829 C 338.32288,407.71465 338.79212,408.04741 338.89576,408.53704 C 338.99939,409.02669 338.69789,409.49590 338.20826,409.59954 C 337.71864,409.70317 337.21815,409.40167 337.11451,408.91204 C 337.01087,408.42241 337.34363,407.92193 337.83326,407.81829 z M 334.30201,408.56829 C 334.79163,408.46464 335.26087,408.79741 335.36451,409.28704 C 335.46814,409.77667 335.16664,410.24590 334.67701,410.34954 C 334.18738,410.45318 333.68690,410.15167 333.58326,409.66204 C 333.47962,409.17240 333.81238,408.67193 334.30201,408.56829 z M 354.95826,408.81829 C 355.44789,408.71465 355.94837,409.01616 356.05201,409.50579 C 356.15566,409.99544 355.85414,410.49590 355.36451,410.59954 C 354.87487,410.70317 354.37440,410.37042 354.27076,409.88079 C 354.16711,409.39116 354.46863,408.92193 354.95826,408.81829 z M 351.45826,409.56829 C 351.94789,409.46466 352.41712,409.76616 352.52076,410.25579 C 352.62440,410.74541 352.32289,411.24590 351.83326,411.34954 C 351.34362,411.45317 350.84315,411.12042 350.73951,410.63079 C 350.63586,410.14117 350.96863,409.67193 351.45826,409.56829 z M 347.92701,410.31829 C 348.41665,410.21466 348.88587,410.51616 348.98951,411.00579 C 349.09316,411.49542 348.79164,411.99590 348.30201,412.09954 C 347.81237,412.20318 347.31190,411.87042 347.20826,411.38079 C 347.10461,410.89114 347.43738,410.42193 347.92701,410.31829 z M 344.39576,411.06829 C 344.88540,410.96464 345.35462,411.26616 345.45826,411.75579 C 345.56191,412.24543 345.26039,412.74590 344.77076,412.84954 C 344.28112,412.95319 343.78065,412.62042 343.67701,412.13079 C 343.57336,411.64115 343.90613,411.17193 344.39576,411.06829 z M 340.86451,411.81829 C 341.35415,411.71466 341.82337,412.01616 341.92701,412.50579 C 342.03066,412.99541 341.72914,413.46465 341.23951,413.56829 C 340.74987,413.67192 340.24940,413.37042 340.14576,412.88079 C 340.04211,412.39117 340.37488,411.92193 340.86451,411.81829 z M 337.33326,412.56829 C 337.82290,412.46466 338.29212,412.76616 338.39576,413.25579 C 338.49941,413.74542 338.19789,414.21465 337.70826,414.31829 C 337.21862,414.42193 336.71815,414.12042 336.61451,413.63079 C 336.51086,413.14114 336.84363,412.67193 337.33326,412.56829 z M 357.67701,412.84954 C 358.16666,412.74591 358.63587,413.07866 358.73951,413.56829 C 358.84314,414.05791 358.54164,414.52715 358.05201,414.63079 C 357.56238,414.73443 357.06190,414.43292 356.95826,413.94329 C 356.85462,413.45367 357.18738,412.95318 357.67701,412.84954 z M 333.80201,413.28704 C 334.29164,413.18339 334.76087,413.51616 334.86451,414.00579 C 334.96816,414.49543 334.66664,414.96465 334.17701,415.06829 C 333.68737,415.17194 333.18690,414.87042 333.08326,414.38079 C 332.97961,413.89115 333.31238,413.39068 333.80201,413.28704 z M 354.14576,413.59954 C 354.63541,413.49591 355.10462,413.82866 355.20826,414.31829 C 355.31189,414.80791 355.01039,415.27715 354.52076,415.38079 C 354.03113,415.48442 353.53065,415.18292 353.42701,414.69329 C 353.32337,414.20367 353.65613,413.70318 354.14576,413.59954 z M 350.61451,414.34954 C 351.10415,414.24589 351.57337,414.57866 351.67701,415.06829 C 351.78066,415.55793 351.47914,416.02715 350.98951,416.13079 C 350.49988,416.23444 349.99940,415.93292 349.89576,415.44329 C 349.79212,414.95365 350.12488,414.45318 350.61451,414.34954 z M 347.08326,415.09954 C 347.57290,414.99591 348.04212,415.29741 348.14576,415.78704 C 348.24941,416.27667 347.94789,416.77715 347.45826,416.88079 C 346.96863,416.98443 346.46815,416.65167 346.36451,416.16204 C 346.26087,415.67242 346.59363,415.20318 347.08326,415.09954 z M 343.55201,415.84954 C 344.04166,415.74591 344.51087,416.04741 344.61451,416.53704 C 344.71814,417.02666 344.41664,417.52715 343.92701,417.63079 C 343.43738,417.73443 342.93690,417.40167 342.83326,416.91204 C 342.72962,416.42242 343.06238,415.95318 343.55201,415.84954 z M 340.02076,416.59954 C 340.51041,416.49588 340.97962,416.79741 341.08326,417.28704 C 341.18689,417.77667 340.88539,418.27715 340.39576,418.38079 C 339.90613,418.48443 339.40565,418.15167 339.30201,417.66204 C 339.19837,417.17240 339.53113,416.70318 340.02076,416.59954 z M 336.48951,417.34954 C 336.97916,417.24590 337.44837,417.54741 337.55201,418.03704 C 337.65564,418.52669 337.35414,419.02715 336.86451,419.13079 C 336.37488,419.23442 335.87440,418.90167 335.77076,418.41204 C 335.66712,417.92241 335.99988,417.45318 336.48951,417.34954 z M 356.77076,417.38079 C 357.26040,417.27715 357.76087,417.57866 357.86451,418.06829 C 357.96816,418.55791 357.63539,419.05840 357.14576,419.16204 C 356.65612,419.26567 356.18690,418.93292 356.08326,418.44329 C 355.97961,417.95367 356.28113,417.48443 356.77076,417.38079 z M 332.95826,418.09954 C 333.44791,417.99590 333.91712,418.29741 334.02076,418.78704 C 334.12439,419.27669 333.82289,419.74590 333.33326,419.84954 C 332.84363,419.95317 332.34315,419.65167 332.23951,419.16204 C 332.13587,418.67241 332.46863,418.20318 332.95826,418.09954 z M 353.23951,418.13079 C 353.72915,418.02714 354.22962,418.32866 354.33326,418.81829 C 354.43691,419.30793 354.10414,419.77715 353.61451,419.88079 C 353.12487,419.98444 352.65565,419.68292 352.55201,419.19329 C 352.44836,418.70365 352.74988,418.23443 353.23951,418.13079 z M 349.70826,418.88079 C 350.19789,418.77715 350.69837,419.07866 350.80201,419.56829 C 350.90566,420.05794 350.60414,420.52715 350.11451,420.63079 C 349.62487,420.73442 349.12440,420.43292 349.02076,419.94329 C 348.91711,419.45366 349.21863,418.98443 349.70826,418.88079 z M 346.20826,419.59954 C 346.69789,419.49591 347.16712,419.82866 347.27076,420.31829 C 347.37440,420.80791 347.07289,421.27715 346.58326,421.38079 C 346.09362,421.48442 345.59315,421.18292 345.48951,420.69329 C 345.38586,420.20367 345.71863,419.70318 346.20826,419.59954 z M 342.67701,420.34954 C 343.16664,420.24591 343.63587,420.57866 343.73951,421.06829 C 343.84315,421.55792 343.54164,422.02715 343.05201,422.13079 C 342.56237,422.23443 342.06190,421.93292 341.95826,421.44329 C 341.85460,420.95364 342.18738,420.45318 342.67701,420.34954 z M 339.14576,421.09954 C 339.63539,420.99589 340.10462,421.32866 340.20826,421.81829 C 340.31190,422.30793 340.01039,422.77715 339.52076,422.88079 C 339.03111,422.98444 338.53065,422.68292 338.42701,422.19329 C 338.32338,421.70365 338.65613,421.20318 339.14576,421.09954 z M 355.52076,421.50579 C 356.01038,421.40215 356.51087,421.73491 356.61451,422.22454 C 356.71814,422.71418 356.38539,423.18340 355.89576,423.28704 C 355.40613,423.39070 354.93690,423.08917 354.83326,422.59954 C 354.72962,422.10991 355.03113,421.60943 355.52076,421.50579 z M 335.61451,421.84954 C 336.10414,421.74591 336.57337,422.07866 336.67701,422.56829 C 336.78065,423.05791 336.47914,423.52715 335.98951,423.63079 C 335.49986,423.73442 334.99940,423.43292 334.89576,422.94329 C 334.79213,422.45367 335.12488,421.95318 335.61451,421.84954 z M 351.98951,422.25579 C 352.47913,422.15215 352.97962,422.48491 353.08326,422.97454 C 353.18690,423.46416 352.85414,423.93340 352.36451,424.03704 C 351.87489,424.14067 351.40565,423.83917 351.30201,423.34954 C 351.19838,422.85992 351.49988,422.35943 351.98951,422.25579 z M 348.45826,423.00579 C 348.94788,422.90216 349.44837,423.23491 349.55201,423.72454 C 349.65564,424.21417 349.32289,424.68340 348.83326,424.78704 C 348.34364,424.89068 347.87440,424.58917 347.77076,424.09954 C 347.66713,423.60989 347.96863,423.10943 348.45826,423.00579 z M 344.92701,423.75579 C 345.41663,423.65214 345.91712,423.98491 346.02076,424.47454 C 346.12439,424.96418 345.79164,425.43340 345.30201,425.53704 C 344.81239,425.64069 344.34315,425.33917 344.23951,424.84954 C 344.13588,424.35990 344.43738,423.85943 344.92701,423.75579 z M 341.39576,424.50579 C 341.88538,424.40216 342.38587,424.70366 342.48951,425.19329 C 342.59314,425.68291 342.26039,426.18340 341.77076,426.28704 C 341.28113,426.39067 340.81190,426.05792 340.70826,425.56829 C 340.60462,425.07867 340.90613,424.60943 341.39576,424.50579 z M 357.95826,424.66204 C 358.44789,424.55839 358.91712,424.85991 359.02076,425.34954 C 359.12440,425.83918 358.82289,426.30840 358.33326,426.41204 C 357.84364,426.51569 357.37440,426.21417 357.27076,425.72454 C 357.16713,425.23490 357.46863,424.76568 357.95826,424.66204 z M 337.86451,425.25579 C 338.35413,425.15216 338.85462,425.45366 338.95826,425.94329 C 339.06189,426.43292 338.72914,426.93340 338.23951,427.03704 C 337.74988,427.14068 337.28065,426.80792 337.17701,426.31829 C 337.07337,425.82864 337.37488,425.35943 337.86451,425.25579 z M 354.42701,425.38079 C 354.91663,425.27715 355.38587,425.60991 355.48951,426.09954 C 355.59315,426.58918 355.29164,427.05840 354.80201,427.16204 C 354.31239,427.26570 353.84315,426.96417 353.73951,426.47454 C 353.63588,425.98491 353.93738,425.48443 354.42701,425.38079 z M 334.33326,426.00579 C 334.82288,425.90215 335.32337,426.20366 335.42701,426.69329 C 335.53064,427.18294 335.19789,427.68340 334.70826,427.78704 C 334.21863,427.89067 333.74940,427.55792 333.64576,427.06829 C 333.54212,426.57866 333.84363,426.10943 334.33326,426.00579 z M 350.89576,426.13079 C 351.38538,426.02715 351.85462,426.35991 351.95826,426.84954 C 352.06189,427.33916 351.76039,427.80840 351.27076,427.91204 C 350.78114,428.01567 350.31190,427.71417 350.20826,427.22454 C 350.10463,426.73491 350.40613,426.23443 350.89576,426.13079 z M 347.36451,426.88079 C 347.85413,426.77714 348.32337,427.10991 348.42701,427.59954 C 348.53064,428.08918 348.22914,428.55840 347.73951,428.66204 C 347.24989,428.76569 346.78065,428.46417 346.67701,427.97454 C 346.57338,427.48490 346.87488,426.98443 347.36451,426.88079 z M 343.83326,427.63079 C 344.32288,427.52715 344.82337,427.85991 344.92701,428.34954 C 345.03064,428.83919 344.69789,429.30840 344.20826,429.41204 C 343.71863,429.51567 343.24940,429.21417 343.14576,428.72454 C 343.04212,428.23491 343.34363,427.73443 343.83326,427.63079 z M 340.30201,428.38079 C 340.79164,428.27715 341.29212,428.57866 341.39576,429.06829 C 341.49940,429.55791 341.16664,430.05840 340.67701,430.16204 C 340.18739,430.26567 339.71815,429.96417 339.61451,429.47454 C 339.51088,428.98492 339.81238,428.48443 340.30201,428.38079 z M 336.77076,429.13079 C 337.26039,429.02716 337.76087,429.32866 337.86451,429.81829 C 337.96815,430.30792 337.63539,430.80840 337.14576,430.91204 C 336.65614,431.01568 336.18690,430.68292 336.08326,430.19329 C 335.97963,429.70364 336.28113,429.23443 336.77076,429.13079 z M 357.14576,429.44329 C 357.63539,429.33964 358.10462,429.64116 358.20826,430.13079 C 358.31190,430.62043 358.01039,431.08965 357.52076,431.19329 C 357.03112,431.29694 356.53065,430.99542 356.42701,430.50579 C 356.32336,430.01615 356.65613,429.54693 357.14576,429.44329 z M 333.23951,429.88079 C 333.72913,429.77714 334.22962,430.07866 334.33326,430.56829 C 334.43690,431.05793 334.10414,431.55840 333.61451,431.66204 C 333.12489,431.76569 332.65565,431.43292 332.55201,430.94329 C 332.44838,430.45365 332.74988,429.98443 333.23951,429.88079 z M 353.61451,430.19329 C 354.10414,430.08964 354.57337,430.39116 354.67701,430.88079 C 354.78065,431.37043 354.47914,431.83965 353.98951,431.94329 C 353.49987,432.04694 352.99940,431.74542 352.89576,431.25579 C 352.79210,430.76615 353.12488,430.29693 353.61451,430.19329 z M 350.08326,430.91204 C 350.57289,430.80841 351.04212,431.14116 351.14576,431.63079 C 351.24940,432.12041 350.94789,432.58965 350.45826,432.69329 C 349.96861,432.79693 349.46815,432.49542 349.36451,432.00579 C 349.26088,431.51617 349.59363,431.01568 350.08326,430.91204 z M 346.55201,431.66204 C 347.04165,431.55838 347.51087,431.89116 347.61451,432.38079 C 347.71816,432.87042 347.41664,433.33965 346.92701,433.44329 C 346.43737,433.54693 345.93690,433.24542 345.83326,432.75579 C 345.72961,432.26615 346.06238,431.76568 346.55201,431.66204 z M 343.02076,432.41204 C 343.51040,432.30839 343.97962,432.64116 344.08326,433.13079 C 344.18691,433.62043 343.88539,434.08965 343.39576,434.19329 C 342.90612,434.29694 342.40565,433.99542 342.30201,433.50579 C 342.19836,433.01615 342.53113,432.51568 343.02076,432.41204 z M 339.48951,433.16204 C 339.97914,433.05841 340.44837,433.39116 340.55201,433.88079 C 340.65566,434.37042 340.35414,434.83965 339.86451,434.94329 C 339.37487,435.04693 338.90565,434.74542 338.80201,434.25579 C 338.69836,433.76617 338.99988,433.26568 339.48951,433.16204 z M 335.95826,433.91204 C 336.44789,433.80839 336.91712,434.10991 337.02076,434.59954 C 337.12440,435.08917 336.82289,435.58965 336.33326,435.69329 C 335.84362,435.79693 335.37440,435.49542 335.27076,435.00579 C 335.16711,434.51615 335.46863,434.01568 335.95826,433.91204 z M 356.30201,434.22454 C 356.79165,434.12091 357.26087,434.42241 357.36451,434.91204 C 357.46816,435.40167 357.16664,435.90215 356.67701,436.00579 C 356.18738,436.10943 355.68690,435.77667 355.58326,435.28704 C 355.47962,434.79742 355.81238,434.32818 356.30201,434.22454 z M 332.42701,434.66204 C 332.91664,434.55839 333.38587,434.85991 333.48951,435.34954 C 333.59315,435.83918 333.29164,436.33965 332.80201,436.44329 C 332.31237,436.54694 331.84315,436.21417 331.73951,435.72454 C 331.63585,435.23490 331.93738,434.76568 332.42701,434.66204 z M 352.77076,434.97454 C 353.26040,434.87090 353.72962,435.17241 353.83326,435.66204 C 353.93691,436.15168 353.63539,436.65215 353.14576,436.75579 C 352.65613,436.85944 352.15565,436.52667 352.05201,436.03704 C 351.94837,435.54741 352.28113,435.07818 352.77076,434.97454 z M 349.23951,435.72454 C 349.72915,435.62090 350.19837,435.92241 350.30201,436.41204 C 350.40566,436.90166 350.10414,437.37090 349.61451,437.47454 C 349.12487,437.57817 348.62440,437.27667 348.52076,436.78704 C 348.41711,436.29741 348.74988,435.82818 349.23951,435.72454 z M 345.70826,436.47454 C 346.19790,436.37091 346.66712,436.67241 346.77076,437.16204 C 346.87441,437.65167 346.57289,438.12090 346.08326,438.22454 C 345.59362,438.32818 345.12440,438.02667 345.02076,437.53704 C 344.91711,437.04742 345.21863,436.57818 345.70826,436.47454 z M 342.17701,437.22454 C 342.66666,437.12090 343.13587,437.42241 343.23951,437.91204 C 343.34314,438.40168 343.04164,438.87090 342.55201,438.97454 C 342.06238,439.07819 341.59315,438.77667 341.48951,438.28704 C 341.38587,437.79741 341.68738,437.32818 342.17701,437.22454 z M 338.64576,437.94329 C 339.13540,437.83965 339.60462,438.17241 339.70826,438.66204 C 339.81192,439.15168 339.51039,439.62090 339.02076,439.72454 C 338.53113,439.82819 338.06190,439.52667 337.95826,439.03704 C 337.85462,438.54741 338.15613,438.04693 338.64576,437.94329 z M 335.11451,438.69329 C 335.60415,438.58966 336.07337,438.92241 336.17701,439.41204 C 336.28066,439.90167 335.97914,440.37090 335.48951,440.47454 C 334.99988,440.57818 334.53065,440.27667 334.42701,439.78704 C 334.32337,439.29739 334.62488,438.79693 335.11451,438.69329 z M 355.80201,438.94329 C 356.29164,438.83964 356.76087,439.14116 356.86451,439.63079 C 356.96815,440.12043 356.66664,440.62090 356.17701,440.72454 C 355.68739,440.82819 355.18690,440.49542 355.08326,440.00579 C 354.97963,439.51615 355.31238,439.04693 355.80201,438.94329 z M 352.27076,439.69329 C 352.76039,439.58965 353.22962,439.89116 353.33326,440.38079 C 353.43690,440.87044 353.13539,441.37090 352.64576,441.47454 C 352.15614,441.57817 351.65565,441.24542 351.55201,440.75579 C 351.44838,440.26616 351.78113,439.79693 352.27076,439.69329 z M 348.73951,440.44329 C 349.22914,440.33964 349.69837,440.64116 349.80201,441.13079 C 349.90565,441.62042 349.60414,442.12090 349.11451,442.22454 C 348.62489,442.32818 348.12440,441.99542 348.02076,441.50579 C 347.91713,441.01615 348.24988,440.54693 348.73951,440.44329 z M 345.20826,441.19329 C 345.69788,441.08964 346.16712,441.39116 346.27076,441.88079 C 346.37439,442.37043 346.07289,442.87090 345.58326,442.97454 C 345.09364,443.07819 344.59315,442.74542 344.48951,442.25579 C 344.38588,441.76615 344.71863,441.29693 345.20826,441.19329 z M 341.67701,441.94329 C 342.16663,441.83965 342.63587,442.14116 342.73951,442.63079 C 342.84314,443.12044 342.54164,443.58965 342.05201,443.69329 C 341.56239,443.79692 341.09315,443.49542 340.98951,443.00579 C 340.88588,442.51616 341.18738,442.04693 341.67701,441.94329 z M 338.14576,442.69329 C 338.63538,442.58966 339.10462,442.89116 339.20826,443.38079 C 339.31189,443.87042 339.01039,444.33965 338.52076,444.44329 C 338.03114,444.54693 337.56190,444.24542 337.45826,443.75579 C 337.35462,443.26617 337.65613,442.79693 338.14576,442.69329 z M 334.61451,443.41204 C 335.10414,443.30841 335.57337,443.64116 335.67701,444.13079 C 335.78065,444.62041 335.47914,445.08965 334.98951,445.19329 C 334.49989,445.29693 334.03065,444.99542 333.92701,444.50579 C 333.82338,444.01617 334.12488,443.51568 334.61451,443.41204 z M 354.95826,443.72454 C 355.44790,443.62089 355.91712,443.95366 356.02076,444.44329 C 356.12441,444.93293 355.82289,445.40215 355.33326,445.50579 C 354.84362,445.60944 354.34315,445.30792 354.23951,444.81829 C 354.13586,444.32865 354.46863,443.82818 354.95826,443.72454 z M 351.42701,444.47454 C 351.91665,444.37089 352.38587,444.70366 352.48951,445.19329 C 352.59316,445.68292 352.29164,446.15215 351.80201,446.25579 C 351.31237,446.35944 350.81190,446.05792 350.70826,445.56829 C 350.60461,445.07865 350.93738,444.57818 351.42701,444.47454 z M 347.89576,445.22454 C 348.38540,445.12089 348.85462,445.42241 348.95826,445.91204 C 349.06191,446.40168 348.76039,446.90215 348.27076,447.00579 C 347.78112,447.10944 347.28065,446.77667 347.17701,446.28704 C 347.07336,445.79741 347.40613,445.32818 347.89576,445.22454 z M 344.36451,445.97454 C 344.85414,445.87091 345.32337,446.17241 345.42701,446.66204 C 345.53066,447.15167 345.22914,447.65215 344.73951,447.75579 C 344.24987,447.85943 343.78065,447.52667 343.67701,447.03704 C 343.57336,446.54742 343.87488,446.07818 344.36451,445.97454 z M 340.83326,446.72454 C 341.32289,446.62091 341.79212,446.92241 341.89576,447.41204 C 341.99940,447.90167 341.69789,448.40215 341.20826,448.50579 C 340.71862,448.60943 340.24940,448.27667 340.14576,447.78704 C 340.04211,447.29742 340.34363,446.82818 340.83326,446.72454 z M 337.30201,447.47454 C 337.79164,447.37089 338.26087,447.67241 338.36451,448.16204 C 338.46815,448.65167 338.16664,449.15215 337.67701,449.25579 C 337.18737,449.35944 336.71815,449.02667 336.61451,448.53704 C 336.51085,448.04740 336.81238,447.57818 337.30201,447.47454 z M 354.08326,448.25579 C 354.57288,448.15214 355.04212,448.45366 355.14576,448.94329 C 355.24939,449.43292 354.94789,449.90215 354.45826,450.00579 C 353.96864,450.10943 353.46815,449.80792 353.36451,449.31829 C 353.26087,448.82865 353.59363,448.35943 354.08326,448.25579 z M 350.55201,449.00579 C 351.04163,448.90214 351.51087,449.20366 351.61451,449.69329 C 351.71814,450.18293 351.41664,450.65215 350.92701,450.75579 C 350.43738,450.85944 349.93690,450.55792 349.83326,450.06829 C 349.72962,449.57865 350.06238,449.10943 350.55201,449.00579 z M 347.02076,449.75579 C 347.51038,449.65215 347.97962,449.95366 348.08326,450.44329 C 348.18689,450.93294 347.88539,451.40215 347.39576,451.50579 C 346.90613,451.60942 346.40565,451.30792 346.30201,450.81829 C 346.19837,450.32866 346.53113,449.85943 347.02076,449.75579 z M 343.48951,450.47454 C 343.97916,450.37089 344.44837,450.70366 344.55201,451.19329 C 344.65564,451.68292 344.35414,452.15215 343.86451,452.25579 C 343.37488,452.35943 342.87440,452.05792 342.77076,451.56829 C 342.66712,451.07865 342.99988,450.57818 343.48951,450.47454 z " id="rect1445" style="fill:#db9275;fill-opacity:1.0000000;fill-rule:nonzero;stroke:#925e4b;stroke-width:0.20000000;stroke-linecap:round;stroke-linejoin:round;stroke-miterlimit:4.0000000;stroke-opacity:1.0000000"/>
      <rect height="32.322990" id="rect2963" rx="9.3439112" ry="2.5253808" style="fill:#c47f67;fill-opacity:1.0000000;fill-rule:nonzero;stroke:none;stroke-opacity:1.0000000" width="19.827574" x="335.42062" y="384.76617"/>
      <path d="M 346.29562,384.78654 C 345.80599,384.89018 345.50449,385.35941 345.60812,385.84904 C 345.71176,386.33867 346.18100,386.64017 346.67062,386.53654 C 347.16025,386.43290 347.46176,385.96366 347.35812,385.47404 C 347.25448,384.98441 346.78528,384.68290 346.29562,384.78654 z M 349.13937,385.06779 C 349.14126,385.07854 349.13709,385.08827 349.13937,385.09904 C 349.24301,385.58867 349.71225,385.89018 350.20187,385.78654 C 350.50250,385.72291 350.68707,385.51467 350.79562,385.25529 C 350.29613,385.16564 349.70078,385.13045 349.13937,385.06779 z M 342.76437,385.50529 C 342.27474,385.60893 341.97324,386.10940 342.07687,386.59904 C 342.18051,387.08867 342.64975,387.39018 343.13937,387.28654 C 343.62900,387.18290 343.93051,386.71367 343.82687,386.22404 C 343.72323,385.73441 343.25403,385.40164 342.76437,385.50529 z M 339.23312,386.25529 C 338.74349,386.35893 338.44199,386.85940 338.54562,387.34904 C 338.64926,387.83867 339.11850,388.14018 339.60812,388.03654 C 340.09775,387.93290 340.43051,387.46367 340.32687,386.97404 C 340.22323,386.48441 339.72278,386.15163 339.23312,386.25529 z M 335.70187,387.00529 C 335.59163,387.02862 335.54056,387.13387 335.45187,387.19279 C 335.45119,387.20542 335.42062,387.21136 335.42062,387.22404 L 335.42062,388.66154 C 335.60764,388.77344 335.84283,388.83607 336.07687,388.78654 C 336.56650,388.68290 336.89929,388.21365 336.79562,387.72404 C 336.69198,387.23441 336.19152,386.90164 335.70187,387.00529 z M 352.48312,387.78654 C 351.99349,387.89018 351.69198,388.39064 351.79562,388.88029 C 351.89926,389.36992 352.36849,389.67143 352.85812,389.56779 C 353.34775,389.46415 353.64928,388.99492 353.54562,388.50529 C 353.44198,388.01566 352.97276,387.68288 352.48312,387.78654 z M 348.95187,388.53654 C 348.46224,388.64018 348.16073,389.10941 348.26437,389.59904 C 348.36801,390.08867 348.83724,390.42142 349.32687,390.31779 C 349.81650,390.21415 350.11802,389.71366 350.01437,389.22404 C 349.91073,388.73441 349.44151,388.43290 348.95187,388.53654 z M 345.42062,389.28654 C 344.93099,389.39018 344.62947,389.85939 344.73312,390.34904 C 344.83676,390.83867 345.30599,391.17142 345.79562,391.06779 C 346.28525,390.96415 346.58677,390.46366 346.48312,389.97404 C 346.37948,389.48441 345.91026,389.18288 345.42062,389.28654 z M 341.88937,390.03654 C 341.39974,390.14018 341.09823,390.60939 341.20187,391.09904 C 341.30551,391.58867 341.77474,391.92143 342.26437,391.81779 C 342.75400,391.71415 343.05553,391.21367 342.95187,390.72404 C 342.84823,390.23441 342.37902,389.93288 341.88937,390.03654 z M 338.35812,390.78654 C 337.86849,390.89018 337.56698,391.35940 337.67062,391.84904 C 337.77426,392.33867 338.24349,392.67141 338.73312,392.56779 C 339.22275,392.46415 339.52428,391.96368 339.42062,391.47404 C 339.31698,390.98441 338.84777,390.68289 338.35812,390.78654 z M 354.76437,391.19279 C 354.27474,391.29643 353.94200,391.76564 354.04562,392.25529 C 354.14926,392.74492 354.64976,393.07767 355.13937,392.97404 C 355.17910,392.96563 355.19599,392.92496 355.23312,392.91154 L 355.23312,391.28654 C 355.07897,391.22984 354.93954,391.15570 354.76437,391.19279 z M 335.42062,391.66154 L 335.42062,393.13029 C 335.74618,392.94174 335.97243,392.61637 335.88937,392.22404 C 335.83279,391.95673 335.63897,391.78139 335.42062,391.66154 z M 351.23312,391.94279 C 350.74349,392.04643 350.41075,392.51563 350.51437,393.00529 C 350.61801,393.49492 351.11851,393.82767 351.60812,393.72404 C 352.09775,393.62040 352.39926,393.11991 352.29562,392.63029 C 352.19198,392.14066 351.72275,391.83915 351.23312,391.94279 z M 347.70187,392.69279 C 347.21224,392.79643 346.87949,393.26564 346.98312,393.75529 C 347.08676,394.24492 347.58726,394.54643 348.07687,394.44279 C 348.56650,394.33915 348.86801,393.86992 348.76437,393.38029 C 348.66073,392.89066 348.19150,392.58913 347.70187,392.69279 z M 344.17062,393.44279 C 343.68099,393.54643 343.34824,394.01565 343.45187,394.50529 C 343.55551,394.99492 344.05600,395.29641 344.54562,395.19279 C 345.03525,395.08915 345.33676,394.61993 345.23312,394.13029 C 345.12948,393.64066 344.66025,393.33914 344.17062,393.44279 z M 340.63937,394.19279 C 340.14974,394.29643 339.81699,394.76566 339.92062,395.25529 C 340.02426,395.74492 340.52475,396.04642 341.01437,395.94279 C 341.50400,395.83915 341.80551,395.36990 341.70187,394.88029 C 341.59823,394.39066 341.12900,394.08915 340.63937,394.19279 z M 337.10812,394.91154 C 336.61849,395.01518 336.28575,395.51564 336.38937,396.00529 C 336.49301,396.49492 336.99351,396.79643 337.48312,396.69279 C 337.97275,396.58915 338.27427,396.11992 338.17062,395.63029 C 338.06698,395.14066 337.59776,394.80788 337.10812,394.91154 z M 353.60812,395.19279 C 353.11849,395.29643 352.78573,395.79690 352.88937,396.28654 C 352.99301,396.77617 353.49349,397.07766 353.98312,396.97404 C 354.47275,396.87040 354.77428,396.40115 354.67062,395.91154 C 354.56698,395.42191 354.09777,395.08914 353.60812,395.19279 z M 350.07687,395.94279 C 349.58724,396.04643 349.25448,396.54691 349.35812,397.03654 C 349.46176,397.52617 349.96224,397.82767 350.45187,397.72404 C 350.94150,397.62040 351.24303,397.15116 351.13937,396.66154 C 351.03573,396.17191 350.56652,395.83915 350.07687,395.94279 z M 346.54562,396.69279 C 346.05599,396.79643 345.72323,397.29689 345.82687,397.78654 C 345.93051,398.27617 346.43099,398.57767 346.92062,398.47404 C 347.41025,398.37040 347.71178,397.90116 347.60812,397.41154 C 347.50448,396.92191 347.03527,396.58913 346.54562,396.69279 z M 343.01437,397.44279 C 342.52474,397.54643 342.19198,398.04689 342.29562,398.53654 C 342.39926,399.02617 342.89974,399.32768 343.38937,399.22404 C 343.87900,399.12040 344.18053,398.65117 344.07687,398.16154 C 343.97323,397.67191 343.50402,397.33913 343.01437,397.44279 z M 339.48312,398.19279 C 338.99349,398.29643 338.69198,398.79691 338.79562,399.28654 C 338.89926,399.77617 339.36849,400.07767 339.85812,399.97404 C 340.34775,399.87040 340.64928,399.36991 340.54562,398.88029 C 340.44198,398.39066 339.97276,398.08915 339.48312,398.19279 z M 335.95187,398.94279 C 335.72275,398.99129 335.54512,399.11330 335.42062,399.28654 L 335.42062,400.25529 C 335.61175,400.58038 335.94001,400.80593 336.32687,400.72404 C 336.81650,400.62040 337.11802,400.11992 337.01437,399.63029 C 336.91073,399.14066 336.44151,398.83913 335.95187,398.94279 z M 352.79562,400.00529 C 352.30599,400.10893 351.97324,400.57815 352.07687,401.06779 C 352.18051,401.55742 352.68100,401.85894 353.17062,401.75529 C 353.66025,401.65165 353.96176,401.18242 353.85812,400.69279 C 353.75448,400.20316 353.28528,399.90164 352.79562,400.00529 z M 349.26437,400.72404 C 348.77474,400.82768 348.44199,401.32813 348.54562,401.81779 C 348.64926,402.30742 349.14975,402.60892 349.63937,402.50529 C 350.12900,402.40165 350.43051,401.93241 350.32687,401.44279 C 350.22323,400.95316 349.75403,400.62040 349.26437,400.72404 z M 345.73312,401.47404 C 345.24349,401.57768 344.91074,402.07813 345.01437,402.56779 C 345.11801,403.05742 345.61850,403.35892 346.10812,403.25529 C 346.59775,403.15165 346.89928,402.68241 346.79562,402.19279 C 346.69198,401.70316 346.22277,401.37040 345.73312,401.47404 z M 342.20187,402.22404 C 341.71224,402.32768 341.37949,402.82815 341.48312,403.31779 C 341.58676,403.80742 342.08725,404.10891 342.57687,404.00529 C 343.06650,403.90165 343.36803,403.43243 343.26437,402.94279 C 343.16073,402.45316 342.69152,402.12039 342.20187,402.22404 z M 338.67062,402.97404 C 338.18099,403.07768 337.84823,403.57816 337.95187,404.06779 C 338.05551,404.55742 338.55599,404.85891 339.04562,404.75529 C 339.53525,404.65165 339.83678,404.18240 339.73312,403.69279 C 339.62948,403.20316 339.16027,402.87040 338.67062,402.97404 z M 335.42062,403.78654 L 335.42062,405.47404 C 335.45486,405.47068 335.48010,405.51254 335.51437,405.50529 C 336.00400,405.40165 336.30553,404.90116 336.20187,404.41154 C 336.12057,404.02744 335.78525,403.83433 335.42062,403.78654 z M 355.23312,404.19279 C 354.90803,404.38392 354.68250,404.71217 354.76437,405.09904 C 354.82075,405.36540 355.00749,405.56428 355.23312,405.69279 L 355.23312,404.19279 z M 351.95187,404.78654 C 351.46224,404.89018 351.12950,405.35940 351.23312,405.84904 C 351.33676,406.33867 351.83726,406.67141 352.32687,406.56779 C 352.81650,406.46415 353.11802,405.96368 353.01437,405.47404 C 352.91073,404.98441 352.44151,404.68289 351.95187,404.78654 z M 348.42062,405.53654 C 347.93099,405.64018 347.59825,406.10940 347.70187,406.59904 C 347.80551,407.08867 348.30601,407.39016 348.79562,407.28654 C 349.28525,407.18290 349.58677,406.71368 349.48312,406.22404 C 349.37948,405.73441 348.91026,405.43289 348.42062,405.53654 z M 344.88937,406.28654 C 344.39974,406.39018 344.06700,406.85939 344.17062,407.34904 C 344.27426,407.83867 344.77476,408.14017 345.26437,408.03654 C 345.75400,407.93290 346.05551,407.46366 345.95187,406.97404 C 345.84823,406.48441 345.37900,406.18288 344.88937,406.28654 z M 341.35812,407.03654 C 340.86849,407.14018 340.53575,407.60939 340.63937,408.09904 C 340.74301,408.58867 341.24351,408.89018 341.73312,408.78654 C 342.22275,408.68290 342.52426,408.21367 342.42062,407.72404 C 342.31698,407.23441 341.84775,406.93288 341.35812,407.03654 z M 337.82687,407.75529 C 337.33724,407.85893 337.00449,408.35940 337.10812,408.84904 C 337.21176,409.33867 337.71226,409.64016 338.20187,409.53654 C 338.69150,409.43290 338.99301,408.96368 338.88937,408.47404 C 338.78573,407.98441 338.31650,407.65164 337.82687,407.75529 z M 354.95187,408.75529 C 354.46224,408.85893 354.16073,409.32815 354.26437,409.81779 C 354.35848,410.26237 354.78986,410.52862 355.23312,410.50529 L 355.23312,408.81779 C 355.13490,408.80665 355.05274,408.73394 354.95187,408.75529 z M 351.45187,409.50529 C 350.96224,409.60893 350.62948,410.07816 350.73312,410.56779 C 350.83676,411.05742 351.33724,411.39016 351.82687,411.28654 C 352.31650,411.18290 352.61802,410.68240 352.51437,410.19279 C 352.41073,409.70316 351.94151,409.40165 351.45187,409.50529 z M 347.92062,410.25529 C 347.43099,410.35893 347.09823,410.82813 347.20187,411.31779 C 347.30551,411.80742 347.80599,412.14017 348.29562,412.03654 C 348.78525,411.93290 349.08678,411.43241 348.98312,410.94279 C 348.87948,410.45316 348.41027,410.15165 347.92062,410.25529 z M 344.38937,411.00529 C 343.89974,411.10893 343.56698,411.57814 343.67062,412.06779 C 343.77426,412.55742 344.27474,412.89018 344.76437,412.78654 C 345.25400,412.68290 345.55553,412.18242 345.45187,411.69279 C 345.34823,411.20316 344.87902,410.90163 344.38937,411.00529 z M 340.85812,411.75529 C 340.36849,411.85893 340.03573,412.32816 340.13937,412.81779 C 340.24301,413.30742 340.74349,413.60891 341.23312,413.50529 C 341.72275,413.40165 342.02428,412.93240 341.92062,412.44279 C 341.81698,411.95316 341.34777,411.65165 340.85812,411.75529 z M 337.32687,412.50529 C 336.83724,412.60893 336.50448,413.07813 336.60812,413.56779 C 336.71176,414.05742 337.21224,414.35892 337.70187,414.25529 C 338.19150,414.15165 338.49303,413.68241 338.38937,413.19279 C 338.28573,412.70316 337.81652,412.40165 337.32687,412.50529 z M 354.13937,413.53654 C 353.64974,413.64018 353.31699,414.14066 353.42062,414.63029 C 353.52426,415.11992 354.02475,415.42141 354.51437,415.31779 C 354.61167,415.29719 354.65238,415.20830 354.73312,415.16154 C 354.91782,414.98403 355.10242,414.82161 355.13937,414.63029 C 355.16676,414.50708 355.23006,414.38846 355.20187,414.25529 C 355.09823,413.76566 354.62903,413.43290 354.13937,413.53654 z M 350.60812,414.28654 C 350.11849,414.39018 349.78574,414.89064 349.88937,415.38029 C 349.99301,415.86992 350.49350,416.17143 350.98312,416.06779 C 351.47275,415.96415 351.77428,415.49492 351.67062,415.00529 C 351.56698,414.51566 351.09777,414.18288 350.60812,414.28654 z M 347.07687,415.03654 C 346.58724,415.14018 346.25449,415.60941 346.35812,416.09904 C 346.46176,416.58867 346.96225,416.92142 347.45187,416.81779 C 347.94150,416.71415 348.24303,416.21366 348.13937,415.72404 C 348.03573,415.23441 347.56652,414.93290 347.07687,415.03654 z M 343.54562,415.78654 C 343.06676,415.88790 342.74417,416.33998 342.82687,416.81779 C 343.43981,416.85741 343.86025,416.99991 344.51437,417.00529 C 344.58261,416.83651 344.64813,416.66303 344.60812,416.47404 C 344.50448,415.98441 344.03528,415.68290 343.54562,415.78654 z " id="rect25394" style="fill:#bd7a62;fill-opacity:1.0000000;fill-rule:nonzero;stroke:none;stroke-opacity:1.0000000"/>
      <path d="M 336.18539,387.54150 C 335.84803,387.80090 335.55543,388.06037 335.55543,388.35113 L 335.55543,414.60203 C 335.55543,415.99616 339.77434,417.12437 345.00486,417.12436 C 349.29194,417.12436 352.76387,416.35787 353.92380,415.31824 C 352.35860,416.12827 349.26820,416.68839 345.60167,416.68839 C 340.37114,416.68840 336.18539,415.56020 336.18539,414.16607 L 336.18539,387.54150 z " id="rect22339" style="fill:#a76c58;fill-opacity:1.0000000;fill-rule:nonzero;stroke:none;stroke-opacity:1.0000000"/>
      <path d="M 354.70968,414.33880 C 355.04704,414.07939 355.33964,413.81993 355.33964,413.52917 L 355.33964,387.27827 C 355.33964,385.88414 351.12073,384.75593 345.89021,384.75594 C 341.60313,384.75594 338.13120,385.52242 336.97127,386.56206 C 338.53647,385.75202 341.62687,385.19190 345.29340,385.19190 C 350.52393,385.19188 354.70968,386.32010 354.70968,387.71423 L 354.70968,414.33880 z " id="path23102" style="fill:#d7a08e;fill-opacity:1.0000000;fill-rule:nonzero;stroke:none;stroke-opacity:1.0000000"/>
    </g>
  </g>
</svg>
