<?xml version="1.0" encoding="UTF-8" standalone="no"?>
<!-- Generator: Adobe Illustrator 12.0.0, SVG Export Plug-In . SVG Version: 6.00 Build 51448)  --><svg height="408.168" id="Layer_1" inkscape:version="0.42" sodipodi:docbase="F:\openclip\svg da inviare\02" sodipodi:docname="utensile sega.svg" sodipodi:version="0.32" space="preserve" style="overflow:visible;enable-background:new 0 0 382.08 408.168;" version="1.1" viewBox="0 0 382.08 408.168" width="382.08" xmlns="http://www.w3.org/2000/svg" xmlns:cc="http://web.resource.org/cc/" xmlns:dc="http://purl.org/dc/elements/1.1/" xmlns:inkscape="http://www.inkscape.org/namespaces/inkscape" xmlns:rdf="http://www.w3.org/1999/02/22-rdf-syntax-ns#" xmlns:sodipodi="http://inkscape.sourceforge.net/DTD/sodipodi-0.dtd" xmlns:svg="http://www.w3.org/2000/svg">
  <metadata>
    <rdf:RDF xmlns:cc="http://web.resource.org/cc/" xmlns:dc="http://purl.org/dc/elements/1.1/" xmlns:rdf="http://www.w3.org/1999/02/22-rdf-syntax-ns#">
      <cc:Work rdf:about="">
        <dc:title>Utensile sega</dc:title>
        <dc:description></dc:description>
        <dc:subject>
          <rdf:Bag>
            <rdf:li>tool</rdf:li>
          </rdf:Bag>
        </dc:subject>
        <dc:publisher>
          <cc:Agent rdf:about="http://www.openclipart.org/">
            <dc:title>Open Clip Art Library</dc:title>
          </cc:Agent>
        </dc:publisher>
        <dc:creator>
          <cc:Agent>
            <dc:title>Architetto Francesco Rollandin</dc:title>
          </cc:Agent>
        </dc:creator>
        <dc:rights>
          <cc:Agent>
            <dc:title>Architetto Francesco Rollandin</dc:title>
          </cc:Agent>
        </dc:rights>
        <dc:date></dc:date>
        <dc:format>image/svg+xml</dc:format>
        <dc:type rdf:resource="http://purl.org/dc/dcmitype/StillImage"/>
        <cc:license rdf:resource="http://web.resource.org/cc/PublicDomain"/>
        <dc:language>en</dc:language>
      </cc:Work>
      <cc:License rdf:about="http://web.resource.org/cc/PublicDomain">
        <cc:permits rdf:resource="http://web.resource.org/cc/Reproduction"/>
        <cc:permits rdf:resource="http://web.resource.org/cc/Distribution"/>
        <cc:permits rdf:resource="http://web.resource.org/cc/DerivativeWorks"/>
      </cc:License>
    </rdf:RDF>
  </metadata>
  <defs id="defs62"></defs>
  <sodipodi:namedview bordercolor="#666666" borderopacity="1.0" id="base" inkscape:current-layer="Layer_1" inkscape:cx="191.03980" inkscape:cy="204.08447" inkscape:pageopacity="0.0" inkscape:pageshadow="2" inkscape:window-height="712" inkscape:window-width="1024" inkscape:window-x="-4" inkscape:window-y="-4" inkscape:zoom="1.3768909" pagecolor="#ffffff"/>
  <path d="M 380.45700,341.58400 C 334.34900,278.44900 288.24000,215.31400 242.13200,152.18000 C 235.91200,143.66300 229.69200,135.14600 223.47200,126.62900 C 222.99300,125.97400 224.23900,121.08700 223.87800,119.49500 C 221.94200,110.94700 215.89200,101.69300 212.35100,93.640000 C 204.89000,76.673000 195.96100,72.363000 177.41600,73.962000 C 182.94600,78.924000 190.08100,79.991000 195.77000,83.952000 C 206.09600,91.141000 209.64200,108.61800 214.54100,119.58300 C 217.10100,125.31200 202.20700,130.74600 197.68300,133.57400 C 187.21300,140.11700 187.85800,138.41500 176.78700,135.39600 C 160.68700,131.00500 144.84700,133.08000 130.17000,141.19200 C 115.33100,149.39400 101.29700,152.86300 84.491000,149.12900 C 69.199000,145.73100 60.975000,134.09200 51.348000,122.92900 C 39.200000,108.84400 27.564000,93.698000 14.449000,80.583000 C 10.315000,76.450000 4.7990000,67.496000 15.146000,68.968000 C 22.009000,69.945000 27.741000,73.499000 34.777000,73.499000 C 45.630000,73.499000 57.291000,60.706000 66.371000,55.610000 C 80.986000,47.409000 96.072000,42.775000 111.90300,37.722000 C 121.69900,34.596000 132.66400,27.358000 129.79100,15.188000 C 125.46400,20.729000 124.79500,31.184000 116.08400,33.075000 C 119.40800,28.206000 120.55400,23.637000 121.89200,17.975000 C 124.23500,8.0550000 125.69700,4.9400000 136.29700,11.123000 C 149.79800,18.998000 158.21800,31.159000 162.78000,45.969000 C 165.01600,53.228000 172.63830,67.354488 177.07230,73.687488 C 182.99530,82.145488 188.82267,77.753680 198.92867,76.882680 C 177.05167,66.869680 170.90100,31.741000 155.34600,15.188000 C 142.74400,1.7780000 120.76800,-9.9050000 114.22700,12.980000 C 112.68800,18.365000 112.63600,25.579000 108.41800,29.126000 C 102.22100,34.337000 87.564000,36.063000 79.264000,39.812000 C 66.112000,45.752000 54.001000,52.899000 42.210000,61.185000 C 42.231000,61.155000 42.756000,60.678000 42.675000,60.721000 C 32.180000,71.797000 3.9860000,48.959000 0.16300000,69.781000 C -2.0180000,81.656000 18.328000,97.811000 25.054000,105.49500 C 35.647000,117.59900 46.615000,132.67100 57.776000,142.95800 C 53.323000,146.31600 43.402000,153.54500 43.606000,160.38100 C 43.740000,164.87000 46.296000,166.33400 49.645000,168.27900 C 51.831000,169.54900 56.651000,167.41900 56.991000,170.13700 C 57.306000,172.65800 57.074000,176.40100 58.472000,178.73300 C 60.089000,181.43200 61.576000,182.45400 64.514000,183.61200 C 73.680000,187.22700 73.570000,182.15800 75.780000,193.25200 C 76.222000,195.46900 79.149000,198.15400 81.357000,198.59600 C 84.379000,199.20000 87.472000,199.17500 90.547000,199.33600 C 93.822000,199.50800 91.839000,205.46600 93.088000,208.00400 C 94.554000,210.98200 95.857000,212.54700 99.011000,213.81300 C 101.60900,214.85400 105.46900,214.41700 108.20100,214.63300 C 111.42400,214.88700 109.54700,220.56800 110.74200,223.10500 C 111.82500,225.40400 112.99300,227.67500 115.50400,228.68000 C 116.83500,229.21200 118.33300,229.37200 119.75200,229.45000 C 129.71400,229.98900 124.35800,230.27300 128.16600,237.27600 C 129.62600,239.96200 129.85400,241.65100 132.58100,243.54800 C 133.78600,244.38600 135.81800,244.47600 137.21100,244.58600 C 147.01400,245.35900 142.19700,245.32800 145.82300,252.37600 C 147.13100,254.91900 147.21100,256.61100 149.77200,258.53100 C 156.30400,263.43100 161.74700,255.72100 163.10100,266.54700 C 164.54700,278.10000 179.46900,271.72200 180.43600,279.20700 C 182.12100,292.25400 196.83200,287.09600 197.97500,294.42400 C 199.89300,306.71200 214.70500,303.35300 215.51500,309.64100 C 217.16500,322.45300 232.31400,317.99900 233.17100,324.85700 C 233.64400,328.63500 233.96100,331.75600 237.12000,334.14900 C 240.26500,336.53100 249.90900,334.83600 250.31000,337.40200 C 250.88100,341.06300 250.86600,345.98800 253.84700,348.78600 C 256.91900,351.66900 267.62200,350.30500 267.93000,352.69800 C 268.43300,356.60200 268.44900,361.03000 271.50100,363.88600 C 274.55900,366.74700 285.33000,365.79800 285.58500,367.83400 C 286.15800,372.41500 286.05300,376.11300 289.39000,379.45000 C 292.39900,382.45900 302.56400,380.14400 303.04500,383.13000 C 304.90500,394.66900 307.40900,396.41500 319.13900,397.03300 C 320.87100,397.12400 322.17800,405.92700 326.09400,407.55900 C 330.15500,409.25200 332.99800,407.08400 335.85200,405.00300 C 341.49500,400.88900 346.19800,392.65200 350.65100,387.33700 C 358.58600,377.86400 366.52100,368.39200 374.45700,358.91900 C 378.58600,353.99100 385.14700,348.33900 380.45700,341.58400" id="path5" sodipodi:nodetypes="csssscssssssccssccccsssscsssscccccssssssssssssscssssscsssssssssssssssssc"/>
  <path d="M 163.01200,47.479000 C 160.85700,37.230000 155.18100,27.106000 147.79600,19.718000 C 143.67400,15.595000 130.17200,3.6400000 124.21500,8.6820000 C 119.96600,12.279000 119.76800,27.679000 116.08400,33.075000 C 124.79500,31.184000 125.46400,20.729000 129.79100,15.188000 C 132.34500,26.008000 122.95900,34.564000 113.52900,37.257000 C 98.259000,41.619000 83.606000,46.328000 69.559000,53.893000 C 59.283000,59.427000 48.696000,70.878000 37.563000,73.266000 C 31.021000,74.669000 24.625000,71.310000 18.514000,69.782000 C 11.046000,67.913000 5.0770000,70.982000 12.124000,78.028000 C 23.100000,89.005000 32.871000,101.50900 43.040000,113.29800 C 52.963000,124.80400 62.672000,140.35400 77.056000,146.67700 C 92.115000,153.29700 108.81500,151.64900 123.36000,144.86300 C 137.84900,138.10300 152.30200,129.86400 169.04300,133.50400 C 172.05400,134.15900 186.41200,140.61900 188.22500,139.48600 C 197.28100,133.82600 206.33500,128.16700 215.39100,122.50700 C 215.94300,122.16200 203.08200,89.329000 198.55600,85.928000 C 193.71000,82.286000 185.88400,78.578000 180.20300,76.287000 C 173.07000,73.409000 165.99500,75.045000 157.64100,75.837000 C 153.99000,76.183000 153.42600,85.748000 149.77000,88.949000 C 140.38500,97.164000 123.44300,94.798000 111.90200,100.44700 C 100.69400,105.93300 94.161000,122.49700 79.843000,118.91700 C 67.161000,115.74500 62.897000,102.33800 69.158000,91.620000 C 81.458000,70.563000 117.57300,55.676000 141.17400,58.864000 C 119.60600,55.087000 70.303000,66.513000 64.511000,92.316000 C 60.548000,73.530000 102.52100,57.426000 115.91100,55.466000 C 133.54900,52.885000 155.04100,52.446000 155.34400,76.054000 C 162.70000,75.357000 170.05700,74.660000 177.41300,73.964000 C 169.62500,66.539000 166.31900,57.130000 163.01200,47.479000" id="path7" style="fill:#723800;fill-opacity:1.0000000"/>
  <path d="M 141.17600,58.862000 C 141.79400,59.036000 142.38100,59.219000 143.03400,59.327000 C 142.38100,59.219000 141.79400,59.036000 141.17600,58.862000" id="path9"/>
  <path d="M 153.16306,64.642942 C 146.39406,30.894942 59.054000,66.435000 64.514000,92.314000 C 70.225000,66.871000 121.75100,53.200000 143.03500,59.327000 C 121.80600,53.767000 52.188000,79.231000 67.999000,109.73800 C 80.757000,134.35400 99.439000,106.54700 111.90400,100.44600 C 126.71900,93.194000 154.02800,98.030000 155.34700,76.053000 C 150.27900,75.071000 148.25600,86.422000 141.87300,88.830000 C 131.01000,92.929000 119.13400,91.270000 108.31600,97.452000 C 98.792000,102.89400 84.677000,125.76500 72.876000,109.73800 C 51.940000,81.307000 148.95044,44.548244 149.80544,79.749244 C 156.77344,81.034244 156.27956,74.052244 154.15256,70.456244" id="path11" sodipodi:nodetypes="cccsscssccc"/>
  <path d="M 52.664000,74.427000 C 53.884000,73.207000 53.884000,73.207000 52.664000,74.427000" id="path13"/>
  <path d="M 54.291000,72.336000 C 55.276000,71.691000 54.107000,72.457000 54.291000,72.336000" id="path15"/>
  <path d="M 55.221000,70.477000 C 55.221000,70.167000 55.221000,70.167000 55.221000,70.477000" id="path17"/>
  <path d="M 48.251000,59.559000 C 48.469000,59.559000 48.469000,59.559000 48.251000,59.559000" id="path19"/>
  <path d="M 44.068000,60.023000 C 43.704000,60.400000 43.704000,60.400000 44.068000,60.023000" id="path21"/>
  <path d="M 47.090000,59.327000 C 46.723000,59.703000 46.723000,59.703000 47.090000,59.327000" id="path23"/>
  <path d="M 45.463000,59.559000 C 45.273000,59.929000 45.273000,59.929000 45.463000,59.559000" id="path25"/>
  <path d="M 210.17000,121.35300 C 201.08800,126.08300 193.00600,132.86700 183.45400,131.11100 C 173.70500,129.31900 166.29800,125.43700 155.81000,126.46500 C 136.74200,128.33300 122.20600,142.67900 103.30600,144.35400 C 82.539000,146.19400 70.896000,135.94200 58.108000,121.99400 C 44.691000,107.35700 31.640000,92.047000 18.979000,76.750000 C 29.702000,79.776000 41.896000,80.477000 49.413000,70.709000 C 34.894000,81.286000 26.758000,72.005000 12.243000,72.336000 C 19.012000,84.569000 32.275000,95.592000 41.485000,106.33700 C 55.201000,122.33900 67.007000,141.59000 88.501000,146.54500 C 112.21600,152.01400 127.58300,134.11000 149.46500,130.46300 C 160.69400,128.59200 171.17200,129.40200 181.78700,133.64800 C 191.59400,137.57100 202.57500,126.94900 210.17000,121.35300" id="path27"/>
  <path d="M 17.817000,79.073000 L 17.817000,78.841000 L 17.817000,79.073000 z " id="path29" style="fill:#ffffff"/>
  <path d="M 112.60000,40.974000 C 120.40300,39.584000 128.01800,35.002000 131.41900,27.036000 C 132.82200,23.748000 136.24900,12.667000 130.02300,11.703000 C 124.93200,10.915000 120.63400,26.880000 116.08500,30.055000 C 119.09400,31.083000 119.52800,31.744000 118.87300,34.469000 C 125.36400,27.403000 124.06600,18.383000 127.23800,10.309000 C 127.29300,10.440000 126.24600,10.708000 126.30800,10.774000 C 147.74400,14.633000 155.31300,36.611000 161.62000,54.215000 C 165.74700,65.735000 172.02200,75.593000 182.76000,81.860000 C 187.68300,84.733000 195.63500,85.521000 198.32500,91.152000 C 170.51000,73.363000 151.72498,55.768239 123.20098,39.103239" id="path31" sodipodi:nodetypes="cssccccsscc" style="fill:#723800;fill-opacity:1.0000000"/>
  <path d="M 201.11200,89.527000 C 201.22400,89.414000 201.21600,89.421000 201.11200,89.527000" id="path33" style="fill:#ffffff"/>
  <path d="M 188.10100,99.981000 C 167.29400,97.596000 175.24200,134.83100 192.74700,122.28300 C 187.89000,124.44600 182.08900,123.06200 179.04200,118.56600 C 191.81100,131.69400 207.39100,103.28900 188.10100,99.981000" id="path35"/>
  <path d="M 134.20700,110.66700 C 132.79300,119.96100 140.89900,131.98200 151.16500,123.90800 C 146.30700,126.27200 140.61200,124.77500 137.45700,120.42400 C 145.12400,127.20000 158.64900,120.59800 155.57800,109.85400 C 152.22200,98.110000 136.42800,100.33900 134.20700,110.66700" id="path37"/>
  <path d="M 95.410000,126.00000 C 93.763000,135.98800 102.25200,146.18300 112.59900,139.24200 C 107.61100,141.27800 101.89500,140.02300 98.661000,135.52500 C 105.97800,142.80200 119.78200,135.66800 116.78200,125.18800 C 113.51400,113.77200 97.736000,114.93500 95.410000,126.00000" id="path39"/>
  <path d="M 114.46000,129.02000 C 112.93100,139.86600 96.318000,137.21500 97.965000,126.46400 C 99.651000,115.45100 116.60700,118.68800 114.46000,129.02000" id="path41" style="fill:#bfbfbf"/>
  <path d="M 112.36900,127.62600 C 111.59300,133.58800 104.81400,135.36700 100.52200,131.80700 C 104.62400,139.14500 117.92000,130.65500 111.90400,123.44500 C 112.41400,124.78100 112.31000,127.19900 112.36900,127.62600" id="path43"/>
  <path d="M 107.72200,122.05100 C 105.41300,123.70300 105.33200,129.49900 104.70200,133.43400 C 105.16600,133.51200 105.63100,133.58900 106.09500,133.66700 C 106.63800,129.79400 107.18000,125.92300 107.72200,122.05100" id="path45"/>
  <path d="M 153.25400,113.68700 C 152.14400,124.63600 134.90500,122.05400 136.76100,111.13200 C 138.68500,99.810000 155.80600,104.24600 153.25400,113.68700" id="path47" style="fill:#bfbfbf"/>
  <path d="M 151.16500,112.52600 C 150.12500,118.46900 143.06400,120.42400 139.08400,116.24300 C 144.68600,124.30500 156.74200,115.34400 150.23500,107.88000 C 151.42500,109.57300 150.93600,110.82600 151.16500,112.52600" id="path49"/>
  <path d="M 141.17600,107.41500 C 141.32400,110.49500 145.50500,113.82800 148.14500,116.70700 C 148.45500,116.47500 148.76400,116.24300 149.07300,116.01000 C 146.44100,113.14500 143.80800,110.28000 141.17600,107.41500" id="path51"/>
  <path d="M 194.83900,112.06100 C 193.18200,122.90600 176.52400,120.23400 178.11100,109.50700 C 179.73800,98.517000 196.85800,101.68100 194.83900,112.06100" id="path53" style="fill:#bfbfbf"/>
  <path d="M 192.74800,110.66700 C 191.93000,116.61900 185.09200,118.45400 180.90000,114.84800 C 184.50100,121.91300 199.00600,114.24400 191.82000,106.25200 C 192.73700,107.80500 192.60700,109.87200 192.74800,110.66700" id="path55"/>
  <path d="M 191.35400,108.34500 C 188.52300,107.94200 184.52500,111.86100 181.36500,114.15300 C 181.59700,114.46300 181.83000,114.77300 182.06200,115.08200 C 185.15900,112.83600 188.25600,110.59000 191.35400,108.34500" id="path57"/>
  <path d="M 205.99000,134.13000 C 238.31800,178.38100 270.64600,222.63300 302.97400,266.88400 C 320.00400,290.19700 337.03600,313.50800 354.06600,336.82000 C 355.44900,338.71300 361.92400,345.05900 360.16100,347.16100 C 351.12900,357.92500 342.09700,368.68700 333.06400,379.45100 C 337.17500,372.88300 357.38400,349.34300 352.84100,343.11500 C 343.92300,330.88800 335.00500,318.66100 326.08600,306.43400 C 295.33300,264.27200 264.58000,222.10900 233.82600,179.94600 C 224.17700,166.71700 214.52700,153.48800 204.87800,140.25800 C 201.87300,136.13900 202.67300,136.43700 197.78800,139.47900 C 187.40200,145.94900 186.12700,144.18700 174.96300,140.99700 C 159.03300,136.44600 143.16200,142.25800 129.41300,150.21900 C 115.14200,158.48300 100.85300,162.33400 84.381000,160.06200 C 77.590000,159.12500 72.164000,154.94900 65.905000,153.64500 C 62.014000,152.83400 63.230000,149.11900 59.789000,152.55900 C 57.181000,155.16600 54.574000,157.77400 51.966000,160.38200 C 65.513000,161.14900 64.275000,161.05300 66.033000,174.46500 C 66.287000,176.40300 76.641000,176.03400 78.616000,176.18100 C 83.990000,176.58200 82.652000,182.74300 83.379000,187.58700 C 84.639000,195.98500 98.500000,185.68100 100.18100,197.08900 C 100.87000,201.76200 99.578000,205.54300 104.53400,205.91300 C 109.11900,206.25500 116.69400,204.44800 117.38200,209.60700 C 117.64400,211.56800 117.69100,220.69400 119.73400,220.84600 C 122.47500,221.05000 132.58300,220.13500 134.43700,221.94400 C 136.26700,223.72900 136.02100,232.67900 136.41300,235.33000 C 136.70800,237.33100 148.93400,236.85500 151.22900,236.99200 C 153.28000,237.11500 153.47800,246.43400 153.76900,248.40600 C 154.47600,253.19400 159.15300,251.58700 163.62300,251.92000 C 176.21900,252.85900 165.11800,266.16400 176.60500,266.84200 C 178.38200,266.94600 187.26100,266.39600 187.50500,268.26300 C 187.85000,270.89000 187.47100,279.86900 189.26200,281.64800 C 191.07400,283.44700 201.25500,282.54300 203.96400,282.74500 C 206.09500,282.90400 206.46800,293.93200 206.80200,296.19600 C 207.08800,298.13400 217.41900,297.60800 219.39800,297.72500 C 224.37300,298.02200 222.99900,301.83000 223.61100,306.50300 C 225.12600,318.05300 239.38100,307.55800 240.50700,316.00600 C 240.76900,317.96700 240.81700,327.09300 242.86000,327.24500 C 245.60100,327.44900 255.70900,326.53300 257.56300,328.34200 C 259.39300,330.12700 259.14800,339.07800 259.53900,341.72900 C 259.83900,343.75500 272.04800,343.43900 274.35500,343.61100 C 276.41500,343.76400 276.59900,352.88000 276.89400,354.85000 C 277.60500,359.58400 282.33700,357.98900 286.74800,358.31900 C 299.34200,359.25800 288.25300,372.47000 299.73000,373.31400 C 301.50100,373.44500 310.38400,373.02200 310.63100,374.88000 C 310.97800,377.48200 310.61500,386.27600 312.38600,388.04700 C 314.18200,389.84200 324.39200,388.94300 327.08900,389.14400 C 329.13100,389.29600 329.25900,397.61300 329.57800,399.66300 C 336.57700,391.26400 377.26100,351.55600 371.72400,343.96400 C 353.99500,319.65100 336.26700,295.34000 318.53800,271.02700 C 294.15900,237.59600 269.78100,204.16600 245.40200,170.73400 C 237.17000,159.44400 228.93600,148.15400 220.70400,136.86400 C 213.83100,127.43500 216.49200,129.34500 205.99000,134.13000" id="path59" style="fill:#dbd6ac;fill-opacity:1.0000000"/>
</svg>
