<?xml version="1.0" encoding="UTF-8" standalone="no"?>
<!-- Generator: Adobe Illustrator 12.0.0, SVG Export Plug-In . SVG Version: 6.00 Build 51448)  --><svg height="270.375" id="Layer_1" inkscape:version="0.40+cvs" sodipodi:docbase="F:\openclip\svg3" sodipodi:docname="Ontologia del vino.svg" sodipodi:version="0.32" style="overflow:visible;enable-background:new 0 0 162.762 270.375;" version="1.0" viewBox="0 0 162.762 270.375" width="162.762" xml:space="preserve" xmlns="http://www.w3.org/2000/svg" xmlns:cc="http://web.resource.org/cc/" xmlns:dc="http://purl.org/dc/elements/1.1/" xmlns:inkscape="http://www.inkscape.org/namespaces/inkscape" xmlns:rdf="http://www.w3.org/1999/02/22-rdf-syntax-ns#" xmlns:sodipodi="http://inkscape.sourceforge.net/DTD/sodipodi-0.dtd" xmlns:svg="http://www.w3.org/2000/svg" xmlns:xml="http://www.w3.org/XML/1998/namespace"><metadata><rdf:RDF xmlns:cc="http://web.resource.org/cc/" xmlns:dc="http://purl.org/dc/elements/1.1/" xmlns:rdf="http://www.w3.org/1999/02/22-rdf-syntax-ns#"><cc:Work rdf:about=""><dc:title>Ontologia del vino</dc:title><dc:description></dc:description><dc:subject><rdf:Bag><rdf:li>beverage</rdf:li><rdf:li>alcohol</rdf:li></rdf:Bag></dc:subject><dc:publisher><cc:Agent rdf:about="http://www.openclipart.org"><dc:title>Architetto Francesco Rollandin</dc:title></cc:Agent></dc:publisher><dc:creator><cc:Agent><dc:title>Architetto Francesco Rollandin</dc:title></cc:Agent></dc:creator><dc:rights><cc:Agent><dc:title>Architetto Francesco Rollandin</dc:title></cc:Agent></dc:rights><dc:date></dc:date><dc:format>image/svg+xml</dc:format><dc:type rdf:resource="http://purl.org/dc/dcmitype/StillImage"/><cc:license rdf:resource="http://web.resource.org/cc/PublicDomain"/><dc:language>en</dc:language></cc:Work><cc:License rdf:about="http://web.resource.org/cc/PublicDomain"><cc:permits rdf:resource="http://web.resource.org/cc/Reproduction"/><cc:permits rdf:resource="http://web.resource.org/cc/Distribution"/><cc:permits rdf:resource="http://web.resource.org/cc/DerivativeWorks"/></cc:License></rdf:RDF></metadata>
<defs id="defs208"></defs>
<sodipodi:namedview bordercolor="#666666" borderopacity="1.0" id="base" inkscape:current-layer="Layer_1" inkscape:cx="81.380998" inkscape:cy="135.18750" inkscape:pageopacity="0.0" inkscape:pageshadow="2" inkscape:window-height="540" inkscape:window-width="640" inkscape:window-x="22" inkscape:window-y="22" inkscape:zoom="1.3980583" pagecolor="#ffffff"></sodipodi:namedview>

<g id="g3">
	<path d="M148.98,156.428c1.989,0.392,5.964,0.153,3.615,2.744   c-1.022,1.128-1.478,2.639-3.353,3.048c1.605,1.583-1.311,4.625-2.396,5.747c-0.868,0.899-1.569,1.35-2.308,2.439   c-0.68,1.004-1.414,1.968-2.085,2.975c-2.378,3.566-4.512,7.247-6.146,11.221c0.043,0,0.285-0.005,0.349,0   c-1.197,0.816-0.479,3.313-0.479,4.552c0,2.187,0.179,5.539,2.16,6.821c1.604,1.038,3.016,3.613,5.112,4.696   c1.961,1.014,3.511,2.292,5.363,3.564c1,0.688,2.619,0.933,3.433,1.747c0.963,0.964,2.188,1.597,3.31,2.353   c0.995,0.669,2.251,1.379,2.743,2.525c0.434,1.009,2.42,1.823,3.135,2.896c3.87,5.805-1.63,10.456-4.876,15.003   c-2.994,4.191-6.815,7.545-9.775,11.691c-2.681,3.753-6.562,7.551-10.082,10.69c-4.358,3.885-8.176,8.404-13.499,11.061   c-3.287,1.639-6.347,2.213-9.776,2.896c-4.313,0.859-8.837,0.883-13.216,1.197c-5.765,0.414-11.563,0.351-17.331,0.566   c-5.765,0.215-11.58,0.088-17.375,0.088c-5.866,0-11.924,0.036-17.763-0.549c-6.589-0.66-13.256-0.378-19.86-1.281   c-2.089-0.285-4.424-0.914-6.532-0.914c-0.593,0-3.558-0.837-2.743-1.655c-4.789-1.194-3.596-6.866-2.134-10.189   c0.171-0.391,0.645-0.987,0.871-1.438c0.115-0.226,0.344-0.484,0.436-0.696c0.121-0.28,0.033-0.626,0.283-0.959   c1.305-1.737,1.822-4.208,2.765-6.182c0.841-1.761,1.864-2.853,2.57-4.616c0.866-2.17,1.773-4.167,2.917-6.227   c1.342-2.42,2.721-4.833,3.958-7.308c1.097-2.193,3.77-3.983,5.666-5.496c8.158-6.504,18.972-9.71,28.555-13.394   c5.747-2.211,11.681-3.901,17.332-6.382c4.786-2.101,9.327-4.993,13.918-7.485c3.433-1.864,7.185-5.021,9.956-7.75   c0.686-0.676,1.714-1.377,2.309-2.047c0.32-0.36,0.426-1.165,0.893-1.632c0.578-0.578,1.303-1.104,1.677-1.852   c0.145-0.291,1.451-1.582,1.807-1.785c1.153-0.659,2.7-2.234,3.483-3.354c0.688-0.982,1.508-1.882,2.113-2.938   c0.407-0.712,1.095-1.46,1.306-2.199c-1.066-0.528,0.006-2.237,0.479-2.875c0.926-1.247,2.451-1.923,3.657-2.917   c0.959-0.791,0.165-0.403,0.61-1.133c0.147-0.241,0.57-0.87,0.695-1.132c0.107-0.222,0.452-0.48,0.522-0.653   c-0.017,0.043-0.062-0.818-0.021-1.022c0.578-2.904,8.847-2.465,11.032-2.605c2.264-0.146,4.627-0.539,6.895-0.312   C145.019,156.159,147.282,156.582,148.98,156.428" id="path5" style="fill-rule:evenodd;clip-rule:evenodd;fill:#C4AFAF;"></path>

	<path d="M73.864,1.187c1.486,0.576,5.201,1.27,5.53,2.918   c0.191,0.956,0.044,1.864,0.044,2.831c0,0.837-0.436,1.233-0.436,2.046c0,1.417,0.822,2.779-0.108,4.268   c-0.209,0.336-0.83,0.67-0.64,0.988c0.442,0.736,0.784,1.408,1.102,2.204c0.52,1.295,0.599,2.874,0.604,4.254   c0.013,2.964,0.017,6.393-0.95,9.17c-0.373,1.073-0.008,3.054-0.008,4.198c0,1.735-0.044,3.469-0.044,5.204   c0,6.467-0.08,13.115,0.505,19.552c0.117,1.276,0.644,10.07,1.325,9.994c-0.544,1.14,0.368,3.367,0.661,4.453   c0.754,2.804,1.666,5.573,2.518,8.35c1.855,6.049,3.979,11.716,7.533,16.766c2.609,3.708,4.971,7.673,8.448,10.625   c2.101,1.784,3.745,3.976,5.467,6.167c1.951,2.482,4.715,4.143,6.551,6.592c1.697,2.262,3.795,4.196,5.662,6.314   c1.944,2.206,3.101,4.885,5.051,7.011c3.816,4.161,6.791,10.275,8.23,15.72c1.516,5.735,1.315,11.798,0.916,17.658   c-0.425,6.245-0.154,12.533-0.568,18.789c-0.413,6.229-1.773,12.286-1.437,18.552c0.264,4.903-0.769,10.065-1.548,14.959   c-0.95,5.972-1.179,11.99-2.197,17.96c-0.92,5.4-1.75,11.39-3.704,16.524c-1.022,2.684-2.474,5.174-4.238,7.441   c-0.354,0.459-1.843,1.861-2.465,2.206c-1.214,0.672-2.465,0.521-3.484,1.284c-1.359,1.019-5.177,1.474-6.88,1.634   c-5.856,0.552-11.531,1.643-17.485,1.78c-2.473,0.057-4.939,0.756-7.423,0.551c-0.979-0.083-2.663,0.223-3.896,0.188   c-1.72-0.049-3.441-0.097-5.161-0.145c-2.438-0.069-5.106,0.393-7.496,0.061c-2.624-0.368-5.252-0.475-7.901-0.475   c-2.596,0-5.222-0.182-7.793-0.539c-2.335-0.326-4.637-0.17-6.987-0.506c-4.339-0.621-8.618-1.091-12.846-2.222   c-1.138-0.304-2.264-0.628-3.397-0.957c-0.849-0.247-3.071-0.272-3.658-0.764c-0.884-0.736-2.973-0.877-3.44-1.719   c-0.055-0.036-1.029-0.095-1.176-0.175c-0.604-0.328-1.663-1.432-2.134-1.981c-0.289-0.337-0.345-0.773-0.24-1.198   c0.107-0.43-0.931-0.826-1.31-1.115c-1.042-0.796-1.647-2.017-2.239-3.151c-2.261-4.34-3.808-8.429-4.442-13.347   c-0.646-5.004-0.972-10.047-1.655-14.827c-0.772-5.412-1.163-11.09-1.565-16.572c-0.157-2.145,0.273-4.314-0.221-6.289   c-0.577-2.308-0.401-5.003-0.74-7.403c-0.842-5.971-0.936-12.111-1.228-18.133c-0.278-5.746-1.714-12.332-0.166-17.945   c0.717-2.599,0.928-5.702,1.951-8.114c1.232-2.903,2.111-5.946,3.361-8.847c1.667-3.867,4.161-7.577,6.707-10.93   c1.618-2.131,2.982-4.273,4.758-6.303c1.938-2.215,3.927-4.423,5.541-6.892c1.682-2.574,4.461-4.77,6.608-6.975   c2.153-2.211,4.171-4.762,5.78-7.395c3.221-5.27,5.694-11.272,8.26-16.872c2.767-6.034,3.499-12.713,5.211-19.076   c0.556-2.064,0.948-5.064,0.942-7.032c-0.008-2.434,0.643-5.055,0.413-7.466c-0.084-0.884,0.361-1.979,0.458-2.942   c0.113-1.134,0.321-2.088,0.522-3.179c0.491-2.666,1.094-5.769,0.848-8.479c-0.128-1.417,0.218-2.885,0.197-4.324   c-0.02-1.331-0.563-2.88-0.174-4.05c0.6-1.808-1.074-3.295-1.307-4.964c-0.374-2.68-0.045-5.332,0.109-7.947   c0.09-1.546,0.715-2.32,1.328-3.636c0.463-0.995,0.553-0.638,0.218-1.807c-0.329-1.149-0.609-1.98-0.609-3.201   c0-0.527,0.58-0.854,0.565-1.307c-0.021-0.642-0.544-0.844-0.74-1.393c-1.78-4.973,3.728-6.252,7.621-6.837   C63.943,0.268,69.484-0.91,73.864,1.187" id="path7" style="fill-rule:evenodd;clip-rule:evenodd;"></path>

	<path d="M121.199,168.882c5.397,1.521,3.106,12.359,2.784,16.434   c-0.235,2.985-0.521,5.961-0.629,8.954c-0.104,2.872,0.202,6.129-0.383,8.937c-1.192,5.724-1.306,11.51-2.12,17.277   c-0.354,2.497-1.047,4.978-1.568,7.446c-0.54,2.559-0.555,5.343-1.452,7.827c-3.735,10.343-13.666,12.075-23.694,13.007   c-5.075,0.47-9.909,1.288-15.025,1.789c-3.181,0.311-6.337,0.588-9.538,0.588c-1.571,0-3.12-0.108-4.68-0.282   c-1.633-0.181-3.405,0.3-5.105,0.209c-2.859-0.155-5.717-0.986-8.562-1.342c-1.056-0.132-2.74,0.252-3.692-0.13   c-1.485-0.593-2.963-1.022-4.545-1.285c-3.137-0.521-6.266-0.686-9.369-1.441c-1.269-0.309-3.801-1.581-5.088-1.259   c-0.843,0.21-3.028-1.279-3.744-1.742c-1.356-0.872-2.183-2.04-3.316-3.123c-2.531-2.422-3.82-4.997-4.831-8.325   c-0.849-2.799-0.863-6.032-1.007-8.932c-0.143-2.891-0.688-5.729-0.688-8.622c0-11.172-1.282-22.181-2.439-33.356   c-0.563-5.433,0.247-12.144,6.04-14.516c5.99-2.45,12.503,1.663,18.413,2.507c9.542,1.363,19.434,2.801,29.109,2.43   c5.037-0.193,10.11-0.483,15.125-1.011c2.47-0.26,4.94-0.545,7.394-0.94c1.514-0.243,3.717-0.247,4.916-1.098   c-0.116,0.218-0.231,0.436-0.349,0.653c2.608-0.38,5.225-0.681,7.795-1.001c2.747-0.344,5.168-1.521,7.795-2.091   c2.247-0.487,3.988-0.609,6.271-0.609c1.41,0,1.747-0.065,3.092,0.718C119.22,167.202,120.248,168.014,121.199,168.882" id="path9" style="fill-rule:evenodd;clip-rule:evenodd;fill:#BF80BF;"></path>

	<path d="M121.199,168.882c5.397,1.521,3.106,12.359,2.784,16.434   c-0.235,2.985-0.521,5.961-0.629,8.954c-0.104,2.872,0.202,6.129-0.383,8.937c-1.192,5.724-1.306,11.51-2.12,17.277   c-0.354,2.497-1.047,4.978-1.568,7.446c-0.54,2.559-0.555,5.343-1.452,7.827c-3.735,10.343-13.666,12.075-23.694,13.007   c-5.075,0.47-9.909,1.288-15.025,1.789c-3.181,0.311-6.337,0.588-9.538,0.588c-1.571,0-3.12-0.108-4.68-0.282   c-1.633-0.181-3.405,0.3-5.105,0.209c-2.859-0.155-5.717-0.986-8.562-1.342c-1.056-0.132-2.74,0.252-3.692-0.13   c-1.485-0.593-2.963-1.022-4.545-1.285c-3.137-0.521-6.266-0.686-9.369-1.441c-1.269-0.309-3.801-1.581-5.088-1.259   c-0.843,0.21-3.028-1.279-3.744-1.742c-1.356-0.872-2.183-2.04-3.316-3.123c-2.531-2.422-3.82-4.997-4.831-8.325   c-0.849-2.799-0.863-6.032-1.007-8.932c-0.143-2.891-0.688-5.729-0.688-8.622c0-11.172-1.282-22.181-2.439-33.356   c-0.563-5.433,0.247-12.144,6.04-14.516c5.99-2.45,12.503,1.663,18.413,2.507c9.542,1.363,19.434,2.801,29.109,2.43   c5.037-0.193,10.11-0.483,15.125-1.011c2.47-0.26,4.94-0.545,7.394-0.94c1.514-0.243,3.717-0.247,4.916-1.098   c-0.116,0.218-0.231,0.436-0.349,0.653c2.608-0.38,5.225-0.681,7.795-1.001c2.747-0.344,5.168-1.521,7.795-2.091   c2.247-0.487,3.988-0.609,6.271-0.609c1.41,0,1.747-0.065,3.092,0.718C119.22,167.202,120.248,168.014,121.199,168.882" id="path11" style="fill-rule:evenodd;clip-rule:evenodd;fill:#948484;"></path>

	<path d="M122.636,184.21c0.9,4.991-0.377,10.79-0.641,15.824   c-0.145,2.75-0.343,5.587-0.979,8.273c-0.346,1.462-0.404,2.906-0.493,4.403c-0.089,1.493-0.609,3.058-0.573,4.511   c0.073,2.903-0.345,5.7-1.082,8.505c-0.687,2.606-1.851,5.599-1.851,8.304c0,1.307-0.893,2.41-1.698,3.349   c-0.852,0.994-1.197,2.38-1.965,3.299c-1.835,2.202-4.017,4.115-6.766,5.062c-1.754,0.605-3.457,0.421-5.248,0.524   c-1.13,0.064-2.139,0.832-3.004,0.826c-0.195-1.185-4.248,0.571-5.29,0.787c-2.606,0.538-5.32,0.938-7.948,1.347   c-4.236,0.662-8.417,0.792-12.662,0.709c-3.138-0.063-6.284,0.229-9.423,0.289c-3.291,0.064-6.168-0.856-9.356-1.303   c-2.879-0.402-5.123,0.062-7.882-1.132c-1.978-0.854-4.734-0.528-6.924-0.893c-2.592-0.433-5.058-1.122-7.489-1.807   c-2.59-0.729-4.761-1.188-6.948-3.063c-4.722-4.048-7.25-8.754-7.741-14.999c-0.484-6.168-0.795-12.251-0.923-18.43   c-0.061-2.919-0.281-5.831-0.467-8.744c-0.181-2.841,0.038-5.705-0.23-8.52c-0.169-1.775-0.412-3.587-0.761-5.337   c2.972,0.771,5.788,2.235,8.861,2.604c2.619,0.314,5.274,0.683,7.896,0.945c0.57,0.057,2.796-0.188,3.013,0.152   c0.599,0.945-0.86,1.408-1.505,1.685c-2.83,1.213-5.332,1.322-7.901,3.149c-1.23,0.875-2.195,1.155-2.025,3.027   c0.198,2.164,1.208,4.265,1.832,6.343c0.782,2.607,0.983,5.142,1.465,7.793c0.52,2.864,4.946,2.266,6.871,1.388   c1.442-0.658,2.91-1.39,1.764-3.223c-0.444-0.709-1.197-1.242-1.197-2.154c0-1.021,2.033-1.948,2.859-2.224   c2.694-0.898,5.522-0.593,6.308,2.549c0.441,1.77,1.031,3.971,1.022,5.836c-0.005,1.242-0.246,2.518-0.436,3.745   c-0.094,0.607-0.142,1.281-0.304,1.872c-0.354,1.284-0.149,1.034-1.307,1.48c-2.859,1.101-6.192,0.083-8.182,3.134   c-3.469,5.318,4.668,7.63,8.52,8.111c2.504,0.313,5.006,0.262,7.501-0.063c0.892-0.116,0.923-0.454,1.871-0.164   c0.656,0.2,1.165,0.811,1.858,1.02c2.54,0.762,4.843,0.918,7.474,0.655c1.943-0.194,4.615-2.035,6.322-1.087   c0.593,0.328,1.27,0.719,1.96,0.719c0.797,0,1.284-0.723,1.807-0.785c0.937-0.113,1.104,0.639,2.156,0.719   c0.998,0.077,2.19-0.563,3.157-0.152c0.865,0.369,0.964,1.427,2.09,1.285c0.552-0.069,1.37-0.24,1.873-0.458   c1.102-0.476,2.057-1.386,1.96-2.743c3.013,3.058,11.795,2.887,15.022,0.174c1.96-1.646,2.879-6.194,0.479-7.75   c0.522,0.043,1.044,0.086,1.567,0.13c-0.375,1.667,1.472,3.64,0.914,4.616c-0.207,0.364-1.137,0.272-1.459,1.023   c-0.285,0.668-0.322,1.419-0.064,2.112c0.675,1.814,2.243,2.571,3.94,2.33c0.602-0.087,1.18-0.31,1.611-0.742   c0.915-0.914,0.189-0.695,1.546-0.631c1.783,0.086,4.445,0.322,5.399-1.611c0.569-1.151-0.018-2.198-0.043-3.353   c-0.035-1.58,0.222-0.998,1.415-1.851c3.033-2.165,0.808-6.08-2.417-6.401c-1.209-0.12-1.381,1.306-2.221,1.677   c-2.316,1.024-2.146-3.948-3.788-4.965c-2.52-1.557-6.663-0.133-7.229,2.83c-0.654-0.312-1.264-0.327-1.612-1.001   c-0.261-0.506,0.104-1.808-0.217-2.525c-0.494-1.104-1.451-1.841-2.57-2.265c-1.192-0.452-3.233,0.106-3.701-0.827   c-2.123-4.24-9.86,0.495-7.533,2.874c-0.159,0.059-0.319,0.116-0.479,0.175c-0.848-2.528-2.195-2.91-4.898-2.286   c-2.136,0.492-3.981,3.187-2.548,5.203c-0.547,0.386-1.085,0.922-1.72,1.176c-0.72,0.287-0.828-1.2-1.025-1.774   c-0.405-1.181-1.213-1.565-2.219-2.318c2.173-1.494,4.47-2.746,6.68-4.175c2.812-1.817,5.187-4.236,8.082-5.994   c2.656-1.611,5.355-3.506,8.188-4.745c2.438-1.068,6.063-2.623,8.797-1.852c-0.817,2.788-3.589,4.256-4.679,6.871   c-0.82,1.969,0.865,4.442,2.914,4.734c2.523,0.358-0.025,1.238,0.806,2.634c0.352,0.592,2.849,0.336,3.571,0.218   c1.445-0.237,2.655-0.85,3.179-2.286c0.367-1.01,0.233-2.217,0.152-3.265c-0.138-1.782,0.216-1.164,1.72-1.112   c1.32,0.048,3.294-0.714,4.028-1.938c0.506-0.843,0.171-2.055,0.414-3.026c0.375-1.499,0.856-3.007,1.437-4.441   c0.585-1.448,1.508-2.432,2.438-3.658c0.743-0.979,1.03-2.065,1.633-3.069c1.121-1.871-0.688-2.905-1.938-4.246   C117.801,185.323,120.525,185.056,122.636,184.21" id="path13" style="fill-rule:evenodd;clip-rule:evenodd;fill:#C7ABB1;"></path>

	<path d="M73.646,2.624c1.586,0.673,5.112,1.205,5.4,3.07   c0.197,1.274,0.043,2.49,0.043,3.767c0,0.854-0.397,1.289-0.393,2.09c0.01,1.461,0.636,2.649-0.13,4.18   c-0.18,0.361-0.803,0.63-0.624,0.944c0.407,0.72,0.75,1.404,1.065,2.168c0.538,1.299,0.554,2.823,0.562,4.204   c0.006,1.421-0.137,2.808-0.218,4.224c-0.101,1.768-0.432,3.174-0.697,4.877c-0.473,3.036,0.031,6.474-0.039,9.555   c-0.144,6.354,0.116,12.866,0.548,19.204c0.083,1.21,0.642,9.381,1.276,9.301c-0.569,1.055,0.344,3.347,0.618,4.366   c0.833,3.09,1.722,6.29,2.779,9.308c1.018,2.906,1.865,6.065,3.1,8.883c1.228,2.808,2.989,5.018,4.738,7.403   c2.571,3.503,4.67,6.968,8.013,9.754c2.278,1.899,3.899,4.612,5.816,6.877c2.012,2.377,4.424,3.995,6.351,6.424   c1.742,2.197,3.863,4.088,5.66,6.245c0.759,0.91,1.608,2,2.102,3.082c0.707,1.546,1.814,2.541,2.902,3.838   c3.607,4.302,6.226,10.534,7.433,15.961c1.342,6.041,0.538,12.205,0.45,18.313c-0.089,6.155-0.236,12.294-0.701,18.434   c-0.221,2.914-0.972,5.766-1.229,8.658c-0.239,2.704,0.175,5.514,0.175,8.166c0,5.24-1.347,10.624-2.003,15.829   c-0.786,6.223-1.321,12.433-2.612,18.594c-1.114,5.313-1.567,10.952-4.23,15.798c-1.68,3.055-3.76,5.849-7.048,6.977   c-3.931,1.348-8.764,2.068-13.149,2.968c-5.473,1.122-11.267,0.984-16.789,1.407c-5.636,0.433-11.372-0.138-17.142,0.211   c-2.959,0.177-6.08-0.392-9.069-0.465c-3.024-0.074-6.019-0.162-9.002-0.717c-3.034-0.564-6.361-0.479-9.486-0.923   c-2.535-0.36-4.975-0.55-7.49-1.088c-4.024-0.862-8.871-2.232-12.105-3.703c-0.921-0.418-2.722-1.364-3.266-2.59   c-0.187-0.421,0.197-1.03-0.171-1.224c-0.55-0.29-1.083-0.599-1.511-1.058c-0.924-0.99-1.558-2.143-2.136-3.362   c-2.066-4.362-3.591-8.249-4.151-13.147c-0.31-2.711-0.828-5.405-0.828-8.078c0-2.189-0.539-4.162-0.697-6.248   c-0.412-5.456-1.156-10.935-1.568-16.416c-0.157-2.102,0.253-3.905-0.305-5.858c-0.633-2.215-0.399-5.289-0.706-7.643   c-0.782-5.998-0.78-12.117-1.175-18.154c-0.366-5.588-1.429-11.674,0.096-17.117c0.718-2.564,0.892-5.377,1.874-7.794   c1.198-2.949,2.125-5.999,3.438-8.905c1.709-3.784,4.212-7.234,6.701-10.554c3.258-4.346,6.599-8.685,10.021-12.939   c3.919-4.873,8.91-8.582,12.094-14.095c6.315-10.93,10.906-22.841,13.075-35.286c0.382-2.189,0.883-4.896,0.676-6.959   c-0.222-2.214,0.142-5.175,0.457-7.368c0.672-4.687,1.667-9.411,1.785-14.326c0.062-2.577,0.13-5.361,0.13-7.773   c0-2.044-1.207-3.294-1.35-5.334c-0.082-1.169-0.47-3.359,0.094-4.282c0.614-1.006-0.143-3.271,0.298-4.558   c0.398-1.165,1.491-1.801,1.479-2.874c-0.006-0.598-0.533-1.277-0.697-1.851c-0.434-1.517,0.27-2.853,0.001-4.159   c-0.679-3.287-1.486-5.503,2.265-7.229c3.061-1.408,6.61-1.194,9.817-2.079C67.257,0.721,70.793,2.418,73.646,2.624" id="path15" style="fill-rule:evenodd;clip-rule:evenodd;fill:#948484;"></path>

	<path d="M73.646,2.624c1.586,0.673,5.112,1.205,5.4,3.07   c0.197,1.274,0.043,2.49,0.043,3.767c0,0.854-0.397,1.289-0.393,2.09c0.01,1.461,0.636,2.649-0.13,4.18   c-0.18,0.361-0.803,0.63-0.624,0.944c0.407,0.72,0.75,1.404,1.065,2.168c0.538,1.299,0.554,2.823,0.562,4.204   c0.006,1.421-0.137,2.808-0.218,4.224c-0.101,1.768-0.432,3.174-0.697,4.877c-0.473,3.036,0.031,6.474-0.039,9.555   c-0.144,6.354,0.116,12.866,0.548,19.204c0.083,1.21,0.642,9.381,1.276,9.301c-0.569,1.055,0.344,3.347,0.618,4.366   c0.833,3.09,1.722,6.29,2.779,9.308c1.018,2.906,1.865,6.065,3.1,8.883c1.228,2.808,2.989,5.018,4.738,7.403   c2.571,3.503,4.67,6.968,8.013,9.754c2.278,1.899,3.899,4.612,5.816,6.877c2.012,2.377,4.424,3.995,6.351,6.424   c1.742,2.197,3.863,4.088,5.66,6.245c0.759,0.91,1.608,2,2.102,3.082c0.707,1.546,1.814,2.541,2.902,3.838   c3.607,4.302,6.226,10.534,7.433,15.961c1.342,6.041,0.538,12.205,0.45,18.313c-0.089,6.155-0.236,12.294-0.701,18.434   c-0.221,2.914-0.972,5.766-1.229,8.658c-0.239,2.704,0.175,5.514,0.175,8.166c0,5.24-1.347,10.624-2.003,15.829   c-0.786,6.223-1.321,12.433-2.612,18.594c-1.114,5.313-1.567,10.952-4.23,15.798c-1.68,3.055-3.76,5.849-7.048,6.977   c-3.931,1.348-8.764,2.068-13.149,2.968c-5.473,1.122-11.267,0.984-16.789,1.407c-5.636,0.433-11.372-0.138-17.142,0.211   c-2.959,0.177-6.08-0.392-9.069-0.465c-3.024-0.074-6.019-0.162-9.002-0.717c-3.034-0.564-6.361-0.479-9.486-0.923   c-2.535-0.36-4.975-0.55-7.49-1.088c-4.024-0.862-8.871-2.232-12.105-3.703c-0.921-0.418-2.722-1.364-3.266-2.59   c-0.187-0.421,0.197-1.03-0.171-1.224c-0.55-0.29-1.083-0.599-1.511-1.058c-0.924-0.99-1.558-2.143-2.136-3.362   c-2.066-4.362-3.591-8.249-4.151-13.147c-0.31-2.711-0.828-5.405-0.828-8.078c0-2.189-0.539-4.162-0.697-6.248   c-0.412-5.456-1.156-10.935-1.568-16.416c-0.157-2.102,0.253-3.905-0.305-5.858c-0.633-2.215-0.399-5.289-0.706-7.643   c-0.782-5.998-0.78-12.117-1.175-18.154c-0.366-5.588-1.429-11.674,0.096-17.117c0.718-2.564,0.892-5.377,1.874-7.794   c1.198-2.949,2.125-5.999,3.438-8.905c1.709-3.784,4.212-7.234,6.701-10.554c3.258-4.346,6.599-8.685,10.021-12.939   c3.919-4.873,8.91-8.582,12.094-14.095c6.315-10.93,10.906-22.841,13.075-35.286c0.382-2.189,0.883-4.896,0.676-6.959   c-0.222-2.214,0.142-5.175,0.457-7.368c0.672-4.687,1.667-9.411,1.785-14.326c0.062-2.577,0.13-5.361,0.13-7.773   c0-2.044-1.207-3.294-1.35-5.334c-0.082-1.169-0.47-3.359,0.094-4.282c0.614-1.006-0.143-3.271,0.298-4.558   c0.398-1.165,1.491-1.801,1.479-2.874c-0.006-0.598-0.533-1.277-0.697-1.851c-0.434-1.517,0.27-2.853,0.001-4.159   c-0.679-3.287-1.486-5.503,2.265-7.229c3.061-1.408,6.61-1.194,9.817-2.079C67.257,0.721,70.793,2.418,73.646,2.624" id="path17" style="fill-rule:evenodd;clip-rule:evenodd;fill:#264F05;"></path>

	<path d="M76.868,5.847c0.44,1.579-6.913,1.874-8.142,1.959   c-5.002,0.35-9.781,0.143-14.414-1.916c1.146-2.86,7.229-2.598,9.596-2.73c2.182-0.121,4.522-0.123,6.674,0.295   C72.984,3.923,74.741,4.936,76.868,5.847" id="path19" style="fill-rule:evenodd;clip-rule:evenodd;fill:#E8CAAC;"></path>

	<path d="M54.792,8.416c2.384,0.645,4.979,1.017,7.446,1.154   c1.314,0.073,2.522-0.394,3.854-0.305c1.306,0.087,2.563,0.336,3.68,0.152c1.788-0.294,3.845,0.015,5.574-0.849   c1.275-0.639,3.173-1.508,2.699,0.675c-0.461,2.128-3.933,1.142-4.071,2.525c-0.218,2.19,4.699-0.539,3.984,2.352   c-0.435,1.76-3.256,0.567-3.833,1.872c-0.554,1.257,0.447,1.271,1.176,1.481c0.65,0.187,2.012,1.328,2.526,1.263   c0.904,2.921,0.741,5.937,0.5,8.948c-0.198,2.48-1.278,3.076-3.722,3.332c-4.186,0.439-8.444,0.75-12.618,0.577   c-2.933-0.122-5.863-0.522-8.501-1.884c-0.846-0.436-1.19,0.438-1.069-1.143c0.11-1.419-0.244-2.807-0.348-4.213   c-0.243-3.279,0.233-6.549,4.116-6.401c2.609,0.1,5.066,1.034,7.708,0.74c1.147-0.127,6.126-0.439,6.228-1.306   c0.192-1.647-4.097-0.99-4.975-0.881c-2.842,0.355-5.76,0.176-8.494-0.695c-0.861-0.274-3.432-0.395-3.482-1.503   c-0.077-1.702,0.66-1.766,2.145-1.625c1.558,0.148,3.032,0.127,4.595,0.315c1.359,0.164,7.615,0.946,8.556-0.228   c1.704-2.128-3.326-1.319-3.886-1.295c-2.683,0.112-5.554,0.261-8.133-0.512c-0.969-0.291-2.822-0.273-3.44-1.241   c-0.417-0.653-0.123-1.84-0.131-2.569C53.486,7.609,54.343,7.947,54.792,8.416" id="path21" style="fill-rule:evenodd;clip-rule:evenodd;fill:#F5BC84;"></path>

	<path d="M59.755,20.043c-0.185,0.583-0.04,1.193,0.348,1.654   c2.143-1.618,3.02,1.854,2.178,3.331c-1.269,2.224-1.97-2.145-2.526-2.721c-1.034,1.683,0.559,4.533-2.831,3.179   c-2.331-0.931-1.249-3.44-1.002-5.443C57.314,20.83,58.454,18.494,59.755,20.043" id="path23" style="fill-rule:evenodd;clip-rule:evenodd;fill:#CCA352;"></path>

	<path d="M59.103,28.273c2.999,0.554,6.369,0.441,9.057,0.479   c1.931,0.027,3.806-0.079,5.727-0.304c0.793-0.094,2.467-0.824,2.199,0.479c-0.898-0.225-1.407,0.18-2.222,0.392   c-1.06,0.276-1.953,0.261-3.072,0.261c-2.408,0-5.041,0.133-7.291,0.13c-1.368-0.001-2.855-0.175-4.311-0.305   c-1.377-0.122-4.989-0.136-5.531-1.611C55.512,27.793,57.448,27.718,59.103,28.273" id="path25" style="fill-rule:evenodd;clip-rule:evenodd;fill:#CCA352;"></path>

	<path d="M72.819,33.281c1.493-0.522,3.167-0.188,4.572-1.002   c1.228,2.78-16.471,2.196-18.618,1.788c-1.177-0.225-4.803-0.111-5.288-1.613c-0.351-1.085,2.084-0.104,2.618,0.007   c1.09,0.228,2.182,0.435,3.286,0.586C63.851,33.655,68.483,33.71,72.819,33.281" id="path27" style="fill-rule:evenodd;clip-rule:evenodd;fill:#D99E62;"></path>

	<path d="M65.896,35.85c1.472,0.435,3.042,0.105,4.528-0.088   c1.285-0.167,2.373,0.088,3.591,0.088c0.702,0,3.018-0.986,3.506-0.61c0.395,0.303,0.043,4.285,0.043,4.908   c0,1.615-0.043,3.23-0.069,4.846c-0.052,3.07-0.024,6.139,0.074,9.207c0.063,1.953,1.313,7.435-0.048,8.56   c-1.362,1.126-4.283,1.477-5.922,1.732c-2.938,0.459-5.883,0.818-8.861,0.728c-1.462-0.044-2.514-0.567-3.897-0.806   c-1.302-0.224-2.609,0.19-3.898-0.239c-0.872-0.291-3.151-1.319-3.418-1.981c-0.436-1.083,0.233-3.864,0.336-5.044   c0.151-1.723,0.339-3.433,0.557-5.148c0.687-5.388,2.319-12.104,0.936-17.459C57.311,36.084,61.73,35.85,65.896,35.85" id="path29" style="fill-rule:evenodd;clip-rule:evenodd;fill:#66523D;"></path>

	<path d="M58.971,37.287c0.368,2.866,0.35,5.655,0.218,8.535   c-0.065,1.42-0.075,2.85-0.174,4.268c-0.114,1.632-0.839,2.969-0.937,4.638c-0.113,1.935-0.125,4.712-1.023,6.51   c-0.853,1.709-2.378,1.387-2.199-0.653c0.271-3.072,0.608-6.137,0.871-9.21c0.211-2.47-0.006-5.163,0.784-7.534   c0.279-0.837-0.096-1.564,0.13-2.395c0.276-1.01,0.016-1.924,0.022-2.939c0.005-0.869-0.196-1.539,0.784-1.916   C58.143,36.323,58.865,36.584,58.971,37.287" id="path31" style="fill-rule:evenodd;clip-rule:evenodd;fill:#9C7C5C;"></path>

	<path d="M61.89,43.558c0.248,1.647-0.481,14.143-2.352,13.957   c-0.825-0.083,0.631-12.841,1.045-14.262C60.966,43.376,61.582,43.452,61.89,43.558" id="path33" style="fill-rule:evenodd;clip-rule:evenodd;fill:#9C7C5C;"></path>

	<path d="M57.36,70.208c0.667,2.317,0.048,4.465-0.131,6.793   c-0.204,2.643-0.642,5.228-1.232,7.826c-0.489,2.153-0.517,4.611-3.079,4.868c-1.886,0.189-2.339-0.242-1.916-2.199   c0.157-0.725,0.611-1.45,0.741-2.134c0.074-0.393-0.254-0.889-0.044-1.415c0.75-1.871,0.411-4.508,0.697-6.51   c0.243-1.696,0.405-6.201,1.938-7.12C55.192,69.801,56.458,70.013,57.36,70.208" id="path35" style="fill-rule:evenodd;clip-rule:evenodd;fill:#CCADAD;"></path>

	<path d="M60.583,74.519c0.279,2.669,0.449,5.871-0.569,8.413   c-0.188,0.468-0.766,3.613-1.565,3.606c-1.398-0.012-0.288-5.621-0.184-6.454c0.174-1.392,0.466-2.799,0.927-4.126   C59.465,75.174,60.028,74.974,60.583,74.519" id="path37" style="fill-rule:evenodd;clip-rule:evenodd;fill:#CCADAD;"></path>

	<path d="M79.438,86.146c1.14,3.881,2.869,7.752,4.601,11.412   c0.211,0.444,1.412,2.389,1.234,2.827c-0.209,0.518-1.221,0.467-1.611,0.653c-1.183,0.564-1.872,1.497-2.917,0.13   c-0.096,1.205-0.924,2.134-1.916,1.132c-0.102,1.568-1.565,1.747-2.156,0.37c-0.577-1.347-0.799,0.203-1.241,0.109   c-0.604-0.128-0.906-0.432-1.307-0.958c-0.179,1.76-1.324,0.234-1.611-0.522c-0.664-1.757-1.077-3.742-0.785-5.617   c-0.466-0.008-0.613-1.319-0.347-1.982c0.6-1.499,3.361-1.536,2.742-3.68c0.912,0.216,1.97-1.943,2.57-0.479   C77.791,88.56,77.33,85.794,79.438,86.146" id="path39" style="fill-rule:evenodd;clip-rule:evenodd;fill:#947B7B;"></path>

	<path d="M50.088,100.036c2.123,0.25,1.083,0.401,1.742,1.786   c0.623,1.308,1.287,1.202,0.565,3.005c-0.74,1.848-1.331,1.632-3.135,1.35c-0.38-0.06-1.452-0.493-2.112-0.588   c-0.57-0.082-1.928,1.299-2.222-0.174c-0.094-0.473,0.763-2.315,1.068-2.721c1.381-1.843,1.14-3.521,3.004-4.747   C48.23,98.959,49.588,99.344,50.088,100.036" id="path41" style="fill-rule:evenodd;clip-rule:evenodd;fill:#CCADAD;"></path>

	<path d="M56.707,106.786c-0.348,0.691-1.514,3.191-2.699,2.134   c-0.595-0.53,0.991-6.263,1.437-6.793c0.21-0.25,1.927-0.839,2.265-0.479C58.278,102.253,56.883,106.198,56.707,106.786" id="path43" style="fill-rule:evenodd;clip-rule:evenodd;fill:#CCADAD;"></path>

	<path d="M50.741,112.447c3.872,2.622,7.927,5.122,12.769,5.323   c4.544,0.19,10.094,0.258,14.23-1.579c1.988-0.883,3.186-2.628,5.138-3.767c2.407-1.404,4.009-2.009,6.871-1.579   c2.853,0.427,3.521,1.596,4.843,4.018c1.357,2.489,0.656,5.9-0.131,8.557c-2.488,8.405-10.269,15.772-18.376,18.289   c-8.932,2.773-18.387,0.656-26.175-4.263c-6.465-4.083-10.781-11.241-11.721-18.763c-0.354-2.833,0.75-5.953,3.015-7.848   C44.693,107.919,47.568,111.049,50.741,112.447" id="path45" style="fill-rule:evenodd;clip-rule:evenodd;"></path>

	<path d="M47.214,111.62c1.335,1.404,3.812,2.615,5.487,3.592   c2.233,1.303,4.445,2.435,6.987,3.04c2.166,0.516,5.016-0.168,6.925,0.597c0.42,0.167,0.908,0.13,1.285,0.414   c0.546,0.41,2.458-0.479,3.31-0.588c2.583-0.329,6.111-0.577,8.245-2.118c2.254-1.628,3.794-4.019,6.604-4.85   c4.227-1.25,8.133,2.374,8.1,6.401c-0.053,6.388-2.863,11.182-7.409,15.607c-3.89,3.787-10.081,8.116-15.79,7.896   c-3.152-0.122-6.231,0.3-9.353-0.324c-2.078-0.416-3.932-1.346-5.919-2.008c-4.864-1.622-10.017-5.635-12.612-10.047   c-2.421-4.116-5.252-10.076-3.438-14.913c0.519-1.382,2.792-3.17,4.355-3.571C45.321,110.408,46.167,111.229,47.214,111.62" id="path47" style="fill-rule:evenodd;clip-rule:evenodd;fill:#E3C381;"></path>

	<path d="M50.567,119.85c2.142,1.882,4.875,0.086,7.281,0.808   c1.419,0.426,2.356,1.054,2.343,2.589c-0.014,1.55-1.371,2.696,0.392,3.658c2.193,1.196,6.472,0.256,8.805-0.133   c1.477-0.246,2.772,0.247,2.995-1.218c0.159-1.04-0.683-1.988-0.152-3.048c1.52-3.04,5.102-1.129,7.228-0.523   c1.489,0.424,1.907-0.654,3.114-0.914c1.868-0.403,4.034,3.574,3.135,5.008c-1.56,2.486-4.627,0.729-6.271,2.351   c3.377,1.798-2.777,4.444-4.093,4.855c-2.936,0.917-7.18,2.471-10.278,1.851c-2.164-0.433-4.141-0.434-6.183-1.132   c-1.617-0.553-9.141-3.439-6.532-6.227c-2.283-0.291-5.603-1.556-5.834-4.354c-0.086-1.043,1.538-2.589,2.22-3.702   C49.668,118.203,50.157,118.431,50.567,119.85" id="path49" style="fill-rule:evenodd;clip-rule:evenodd;"></path>

	<path d="M54.443,121.81c1.516-0.18,3.097,0.169,4.398,0.958   c-1.109,0.621-2.285-0.938-3.244,0.022c-0.925,0.925-1.383,1.465-1.96,2.7c-0.458,0.983-1.078,1.849-2.25,1.204   c-1.023-0.563-2.49-1.092-2.931-2.271c-0.635-1.696-0.436-1.721,0.849-3.745C50.647,121.736,52.926,122.738,54.443,121.81" id="path51" style="fill-rule:evenodd;clip-rule:evenodd;fill:#F5A990;"></path>

	<path d="M82.834,122.419c0.614,0.058,1.829,1.999,1.829,2.765   c0,1.361-2.431,1.591-3.31,1.481c-0.585-0.074-1.619,0.297-2.09,0.152c-0.546-0.169-1.141-1.415-1.742-2.09   c-1.486-1.675-2.208-1.029-4.05-1.655c0.283-0.562,1.861-1.162,2.439-1.132c1.109,0.057,2.3,1.003,3.484,1.132   C80.593,123.203,81.836,123.07,82.834,122.419" id="path53" style="fill-rule:evenodd;clip-rule:evenodd;fill:#F5A990;"></path>

	<path d="M59.103,124.205c-0.145,0.194,0.012,0.521-0.479,0.697   c0.774,0.4,0.577,0.698-0.305,0.587c-0.799-0.1-1.572-0.844-2.09-1.415C57.216,123.497,58.209,124.536,59.103,124.205" id="path55" style="fill-rule:evenodd;clip-rule:evenodd;fill:#F5A990;"></path>

	<path d="M75.911,125.337c-0.73,0.541-2.645,0.723-2.613-0.436   C74.143,124.77,75.765,123.948,75.911,125.337" id="path57" style="fill-rule:evenodd;clip-rule:evenodd;fill:#F5A990;"></path>

	<path d="M57.187,126.817c5.931,2.586,14.247,2.413,20.03-0.479   c0.178,1.146,1.59,2.662,1.394,3.789c-0.15,0.866-2.313,1.618-3.353,2.003c-4.336,1.609-8.989,2.114-13.629,1.393   c-2.198-0.341-3.712-1.601-5.706-2.199c-1.453-0.436-2.533-1.575-2.308-2.939c0.073-0.437,1.089-2.7,1.459-2.7   C55.905,125.685,56.604,126.297,57.187,126.817" id="path59" style="fill-rule:evenodd;clip-rule:evenodd;fill:#FCCABB;"></path>

	<path d="M58.971,128.689c0.877-0.38,2.274,0.925,3.223,1.132   c0.337,0.073,0.622,0.078,0.958,0.021c0.575-0.096,0.784,0.457,1.372,0.393c1.063-0.118,2.112-1.341,3.026-0.197   c0.331-0.692,1.509-0.493,2.134-0.609c0.394-0.073,0.828-0.376,1.219-0.392c0.476-0.018,0.811,0.434,1.263,0.348   c1.029-0.195,1.421-1.622,2.352-0.174c0.666,1.035-0.437,2.392-1.35,1.437c-0.584,1.479-4.774,1.939-5.487,0.522   c-0.057,1.433-0.957,1.166-1.829,1.089c-0.146-0.013-0.862-0.462-0.958-0.479c-0.272-0.048-0.542,0.969-1.092,0.568   c-1.766-1.292-0.97,0.595-2.545,0.281c-0.692-0.138-0.245-0.892-0.718-1.197c-0.874-0.566-1.014-0.215-2.046,0.348   c-0.643-1.404-3.67-1.606-2.265-3.701C57.167,126.682,58.228,127.899,58.971,128.689" id="path61" style="fill-rule:evenodd;clip-rule:evenodd;fill:#ED9579;"></path>

	<path d="M106.523,128.907c1.245-1.646,2.939,1.263,3.685,1.921   c2.245,1.98,3.961,3.166,5.461,5.83c1.229,2.185,3.164,4.381,3.276,7.009c0.066,1.52,0.921,2.096-0.141,3.312   c-0.172,0.197-0.757-0.208-0.959,0c-0.446,0.461,0.206,1.263-0.522,1.611c-0.738,0.354-1.286-0.644-1.524-0.784   c-0.925-0.548-2.019-1.002-1.676,0.719c0.319,1.604-2.58,0.271-2.983-0.436c-0.77-1.352-0.848,0.211-1.785,0.239   c-0.989,0.03-1.264-0.979-1.829-1.523c-0.082,0.436,1.028,2.776,0.01,2.738c-1.228-0.045-2.617,0.08-3.711,0.092   c-0.639,0.007-1.027,0.199-1.611-0.218c-0.54,2.115-2.209,0.296-2.682-0.837c-0.931-2.232-1.775-4.479-2.541-6.774   c-0.267-0.798-0.771-1.934-0.524-2.535c0.1-0.244,1.233,0.095,0.979-0.5c-0.422-0.986-1.111-1.889-1.372-2.94   c1.023-0.291,3.209,0.909,3.396-0.305c0.263-1.71-3.038-2.809,1.132-2.439c-0.692-1.512,1.731-2.713,2.875-2.264   c-0.005-0.542-0.109-2.492,0.13-2.7C104.011,127.771,106.264,128.567,106.523,128.907" id="path63" style="fill-rule:evenodd;clip-rule:evenodd;fill:#826B6B;"></path>

	<path d="M34.585,133.916c0.698,0.251,1.428,0.702,2.177,0.74   c0.843,0.042,1.514-0.5,2.265,0c1.671,1.114,1.2,3.146,0.436,4.615c-1.3,2.496-1.586,5.116-2.09,7.882   c-0.252,1.385-0.735,2.941-0.697,4.355c0.018,0.665,0.141,0.91,0.218,1.307c0.052,0.269,0.537,0.398,0.479,0.826   c-0.162,1.196-3.098,2.159-4.18,2.004c-2.574-0.369-4.958-1.308-7.272-2.222c-1.316-0.52-7.583-1.103-5.813-4.137   c1.323-2.268,2.051-4.887,3.331-7.207c1.549-2.807,3.654-5.156,6.005-7.319c0.959-0.883,1.751-2.255,3.161-1.651   C33.277,133.398,33.965,133.862,34.585,133.916" id="path65" style="fill-rule:evenodd;clip-rule:evenodd;fill:#CCADAD;"></path>

	<path d="M47.214,137.617c-0.1,0.813-0.709,0.769-1.002,1.307   c-0.61,1.12-0.899,2.695-1.282,3.919c-0.774,2.477-1.514,4.993-1.744,7.591c-0.075,0.857,0.647,4.315-0.175,4.667   c-1.108,0.475-2.823,0.854-3.353-0.522c-1.654-4.299,0.485-8.996,1.327-13.208c0.28-1.404,0.304-3.604,1.525-4.667   C43.457,135.878,46.635,135.991,47.214,137.617" id="path67" style="fill-rule:evenodd;clip-rule:evenodd;fill:#CCADAD;"></path>

	<path d="M121.199,168.882c5.397,1.521,3.106,12.359,2.784,16.434   c-0.235,2.985-0.521,5.961-0.629,8.954c-0.104,2.872,0.202,6.129-0.383,8.937c-1.192,5.724-1.306,11.51-2.12,17.277   c-0.354,2.497-1.047,4.978-1.568,7.446c-0.54,2.559-0.555,5.343-1.452,7.827c-3.735,10.343-13.666,12.075-23.694,13.007   c-5.075,0.47-9.909,1.288-15.025,1.789c-3.181,0.311-6.337,0.588-9.538,0.588c-1.571,0-3.12-0.108-4.68-0.282   c-1.633-0.181-3.405,0.3-5.105,0.209c-2.859-0.155-5.717-0.986-8.562-1.342c-1.056-0.132-2.74,0.252-3.692-0.13   c-1.485-0.593-2.963-1.022-4.545-1.285c-3.137-0.521-6.266-0.686-9.369-1.441c-1.269-0.309-3.801-1.581-5.088-1.259   c-0.843,0.21-3.028-1.279-3.744-1.742c-1.356-0.872-2.183-2.04-3.316-3.123c-2.531-2.422-3.82-4.997-4.831-8.325   c-0.849-2.799-0.863-6.032-1.007-8.932c-0.143-2.891-0.688-5.729-0.688-8.622c0-11.172-1.282-22.181-2.439-33.356   c-0.563-5.433,0.247-12.144,6.04-14.516c5.99-2.45,12.503,1.663,18.413,2.507c9.542,1.363,19.434,2.801,29.109,2.43   c5.037-0.193,10.11-0.483,15.125-1.011c2.47-0.26,4.94-0.545,7.394-0.94c1.514-0.243,3.717-0.247,4.916-1.098   c-0.116,0.218-0.231,0.436-0.349,0.653c2.608-0.38,5.225-0.681,7.795-1.001c2.747-0.344,5.168-1.521,7.795-2.091   c2.247-0.487,3.988-0.609,6.271-0.609c1.41,0,1.747-0.065,3.092,0.718C119.22,167.202,120.248,168.014,121.199,168.882" id="path69" style="fill-rule:evenodd;clip-rule:evenodd;"></path>

	<path d="M123.332,174.196c0.41,2.006,0.44,7.551-1.47,8.329   c-2.444,0.996-5.037,2.124-7.717,2.208c-2.329,0.073-4.424-0.988-6.663-1.437c-1.277-0.256-2.385-0.207-3.68-0.282   c-1.632-0.097-3.154-0.747-4.813-0.589c-5.208,0.499-10.954,2.131-15.721,4.311c-0.948,0.435-2.208,1.578-3.178,1.698   c-1.448,0.182-2.861,0.588-4.311,0.74c-2.375,0.252-5.305,0.75-7.668,0.502c-1.342-0.141-2.211-1.276-3.479-1.678   c-1.345-0.425-2.941-0.688-4.355-0.587c-1.274,0.092-1.133-1.723-1.676-2.81c-0.713-1.425-1.655-2.166-3.07-2.743   c-4.535-1.852-10.526-2.715-15.285-0.958c-2.551,0.942-3.78,3.208-5.182,5.313c-0.345,0.519-0.567,1.095-0.567,1.721   c0,0.27-3.33,0.164-3.831,0.152c-2.689-0.063-5.46-0.535-8.077-1.058c-2.521-0.505-5.869-1.371-7.992-2.818   c-0.817-0.556-0.74-0.358-0.958-1.741c-0.248-1.567-0.503-3.203-0.305-4.79c0.274-2.195,0.482-5.775,2.205-7.376   c4.379-4.068,10.659-2.809,15.809-1.092c4.89,1.631,9.926,1.635,14.994,2.479c5.786,0.965,11.195,1.287,17.048,1.177   c3.048-0.059,6.103-0.142,9.145-0.371c2.849-0.215,5.842,0.004,8.601-0.609c5.202-1.156,10.687-0.898,15.93-1.914   c4.896-0.946,9.69-2.039,14.552-3.051C117.662,165.667,120.339,169.847,123.332,174.196" id="path71" style="fill-rule:evenodd;clip-rule:evenodd;fill:#E3C381;"></path>

	<path d="M55.749,183.383c0.416,0.477,1.393,0.996,1.132,1.698   c-0.375,1.015-4.042,1.081-5.007,1.132c-3.663,0.191-7.758-0.126-11.278-1.132c-0.865-0.247-1.484-0.642-1.829-1.502   c-0.271-0.676,1.885-1.301,2.481-1.502c1.821-0.618,3.789-0.804,5.706-0.684C49.753,181.569,53.208,182.071,55.749,183.383" id="path73" style="fill-rule:evenodd;clip-rule:evenodd;fill:#E3C381;"></path>

	<path d="M108.658,185.168c3.149,0.699,8.649,1.599,6.51,5.879   c-1.509,3.018-3.608,5.631-4.42,8.97c-4.078-4.077-11.445-4.188-16.634-2.024c-2.58,1.076-4.895,1.824-7.272,3.332   c-2.514,1.591-5.092,3.111-7.45,4.926c-2.421,1.862-4.865,3.739-7.444,5.395c-2.368,1.52-5.451,3.244-8.186,3.929   c-3.041,0.761-6.078,0.688-9.057-0.336c-3.006-1.033-2.5-4.279-3.702-6.685c-0.753-1.51-1.333-3.111-2.003-4.66   c7.954,2.673,14.948-3.07,21.207-7.402c3.665-2.536,7.92-3.657,11.366-6.357c2.411-1.89,4.581-3.381,7.621-4.224   c2.62-0.728,5.268-1.659,7.929-2.22C100.439,182.992,105.645,184.04,108.658,185.168" id="path75" style="fill-rule:evenodd;clip-rule:evenodd;fill:#FCCABB;"></path>

	<path d="M122.636,184.21c0.9,4.991-0.377,10.79-0.641,15.824   c-0.145,2.75-0.343,5.587-0.979,8.273c-0.346,1.462-0.404,2.906-0.493,4.403c-0.089,1.493-0.609,3.058-0.573,4.511   c0.073,2.903-0.345,5.7-1.082,8.505c-0.687,2.606-1.851,5.599-1.851,8.304c0,1.307-0.893,2.41-1.698,3.349   c-0.852,0.994-1.197,2.38-1.965,3.299c-1.835,2.202-4.017,4.115-6.766,5.062c-1.754,0.605-3.457,0.421-5.248,0.524   c-1.13,0.064-2.139,0.832-3.004,0.826c-0.195-1.185-4.248,0.571-5.29,0.787c-2.606,0.538-5.32,0.938-7.948,1.347   c-4.236,0.662-8.417,0.792-12.662,0.709c-3.138-0.063-6.284,0.229-9.423,0.289c-3.291,0.064-6.168-0.856-9.356-1.303   c-2.879-0.402-5.123,0.062-7.882-1.132c-1.978-0.854-4.734-0.528-6.924-0.893c-2.592-0.433-5.058-1.122-7.489-1.807   c-2.59-0.729-4.761-1.188-6.948-3.063c-4.722-4.048-7.25-8.754-7.741-14.999c-0.484-6.168-0.795-12.251-0.923-18.43   c-0.061-2.919-0.281-5.831-0.467-8.744c-0.181-2.841,0.038-5.705-0.23-8.52c-0.169-1.775-0.412-3.587-0.761-5.337   c2.972,0.771,5.788,2.235,8.861,2.604c2.619,0.314,5.274,0.683,7.896,0.945c0.57,0.057,2.796-0.188,3.013,0.152   c0.599,0.945-0.86,1.408-1.505,1.685c-2.83,1.213-5.332,1.322-7.901,3.149c-1.23,0.875-2.195,1.155-2.025,3.027   c0.198,2.164,1.208,4.265,1.832,6.343c0.782,2.607,0.983,5.142,1.465,7.793c0.52,2.864,4.946,2.266,6.871,1.388   c1.442-0.658,2.91-1.39,1.764-3.223c-0.444-0.709-1.197-1.242-1.197-2.154c0-1.021,2.033-1.948,2.859-2.224   c2.694-0.898,5.522-0.593,6.308,2.549c0.441,1.77,1.031,3.971,1.022,5.836c-0.005,1.242-0.246,2.518-0.436,3.745   c-0.094,0.607-0.142,1.281-0.304,1.872c-0.354,1.284-0.149,1.034-1.307,1.48c-2.859,1.101-6.192,0.083-8.182,3.134   c-3.469,5.318,4.668,7.63,8.52,8.111c2.504,0.313,5.006,0.262,7.501-0.063c0.892-0.116,0.923-0.454,1.871-0.164   c0.656,0.2,1.165,0.811,1.858,1.02c2.54,0.762,4.843,0.918,7.474,0.655c1.943-0.194,4.615-2.035,6.322-1.087   c0.593,0.328,1.27,0.719,1.96,0.719c0.797,0,1.284-0.723,1.807-0.785c0.937-0.113,1.104,0.639,2.156,0.719   c0.998,0.077,2.19-0.563,3.157-0.152c0.865,0.369,0.964,1.427,2.09,1.285c0.552-0.069,1.37-0.24,1.873-0.458   c1.102-0.476,2.057-1.386,1.96-2.743c3.013,3.058,11.795,2.887,15.022,0.174c1.96-1.646,2.879-6.194,0.479-7.75   c0.522,0.043,1.044,0.086,1.567,0.13c-0.375,1.667,1.472,3.64,0.914,4.616c-0.207,0.364-1.137,0.272-1.459,1.023   c-0.285,0.668-0.322,1.419-0.064,2.112c0.675,1.814,2.243,2.571,3.94,2.33c0.602-0.087,1.18-0.31,1.611-0.742   c0.915-0.914,0.189-0.695,1.546-0.631c1.783,0.086,4.445,0.322,5.399-1.611c0.569-1.151-0.018-2.198-0.043-3.353   c-0.035-1.58,0.222-0.998,1.415-1.851c3.033-2.165,0.808-6.08-2.417-6.401c-1.209-0.12-1.381,1.306-2.221,1.677   c-2.316,1.024-2.146-3.948-3.788-4.965c-2.52-1.557-6.663-0.133-7.229,2.83c-0.654-0.312-1.264-0.327-1.612-1.001   c-0.261-0.506,0.104-1.808-0.217-2.525c-0.494-1.104-1.451-1.841-2.57-2.265c-1.192-0.452-3.233,0.106-3.701-0.827   c-2.123-4.24-9.86,0.495-7.533,2.874c-0.159,0.059-0.319,0.116-0.479,0.175c-0.848-2.528-2.195-2.91-4.898-2.286   c-2.136,0.492-3.981,3.187-2.548,5.203c-0.547,0.386-1.085,0.922-1.72,1.176c-0.72,0.287-0.828-1.2-1.025-1.774   c-0.405-1.181-1.213-1.565-2.219-2.318c2.173-1.494,4.47-2.746,6.68-4.175c2.812-1.817,5.187-4.236,8.082-5.994   c2.656-1.611,5.355-3.506,8.188-4.745c2.438-1.068,6.063-2.623,8.797-1.852c-0.817,2.788-3.589,4.256-4.679,6.871   c-0.82,1.969,0.865,4.442,2.914,4.734c2.523,0.358-0.025,1.238,0.806,2.634c0.352,0.592,2.849,0.336,3.571,0.218   c1.445-0.237,2.655-0.85,3.179-2.286c0.367-1.01,0.233-2.217,0.152-3.265c-0.138-1.782,0.216-1.164,1.72-1.112   c1.32,0.048,3.294-0.714,4.028-1.938c0.506-0.843,0.171-2.055,0.414-3.026c0.375-1.499,0.856-3.007,1.437-4.441   c0.585-1.448,1.508-2.432,2.438-3.658c0.743-0.979,1.03-2.065,1.633-3.069c1.121-1.871-0.688-2.905-1.938-4.246   C117.801,185.323,120.525,185.056,122.636,184.21" id="path77" style="fill-rule:evenodd;clip-rule:evenodd;fill:#BDA4BD;"></path>

	<path d="M39.289,185.822c3.708,1.506,7.444,1.64,11.379,1.902   c2.435,0.162,4.981,0.167,7.215-1.075c0.145,1.017,0.29,2.032,0.435,3.048c-3.604-1.268-7.557-1.003-11.243-1.372   c-1.858-0.186-3.61-0.425-5.457,0.001c-1.865,0.43-4.05-0.745-5.683,0.588c-0.652-1.621,1.027-2.795,1.437-4.225   C38.104,185.035,38.542,186.403,39.289,185.822" id="path79" style="fill-rule:evenodd;clip-rule:evenodd;fill:#E3C381;"></path>

	<path d="M110.225,188.391c0.114,1.235-1.86,6.341-3.005,6.685   c-2.06,0.617-4.746-2.02-6.844-2.123c-2.565-0.129-5.354,0.783-7.681,1.782c-2.468,1.057-5.391,1.75-7.728,3.019   c-4.539,2.462-9.139,6.134-13.106,9.362c-2.034,1.654-3.598,3.662-6.023,4.764c-2.139,0.973-5.747,3.115-8.13,1.551   c-0.985-0.646-1.577-2.54-1.808-3.615c-0.165-0.768-0.71-2.418-0.152-3.135c0.726-0.932,0.678-0.135,1.438,0.393   c0.648,0.45,0.71,0.61,1.523,0.74c0.828,0.13,0.268,0.893,0.915-0.24c0.817-1.431,3.647,1.35,4.005,1.808   c0.583-0.723-0.506-1.325-0.13-1.916c0.41-0.646,0.804,0.042,1.132-0.131c0.364-0.193,0.521-0.338,0.871-0.565   c0.547-0.357,0.885-1.209,1.742-1.22c0.621-0.007,0.979,0.745,1.872,0.652c1.621-0.168,6.238-5.223,5.987-6.466   c-0.43-2.138,1.471-2.058,1.763-0.196c1.113-0.76-0.184-1.7,0.174-2.612c0.352-0.892,2.532-1.876,3.224-0.914   c0.159-0.689,0.462-3.042,1.611-1.786c-0.178-1.725,1.671-0.288,2.394-1.132c0.451,0.507,1.961-0.39,1.961,0.413   c0,1.848,2.986-0.017,3.613-0.282c3.273-1.39,6.913-2.632,10.299-3.114c1.642-0.232,3.045-0.876,4.615-0.652   c1.565,0.222,0.907-0.396,1.938-0.784C107.79,188.264,109.087,188.107,110.225,188.391" id="path81" style="fill-rule:evenodd;clip-rule:evenodd;fill:#ED9579;"></path>

	<path d="M65.896,191.44c0.46,1.679-0.389,3.511-1.743,4.484   c-1.876,1.351-4.04,0.943-6.27,1.35c1.392-2.427,1.606-4.395,2.177-7.011c0.203-0.931-0.325-0.891,0.914-1.044   c0.75-0.095,1.51-0.216,2.265-0.131C64.635,189.244,65.871,190.063,65.896,191.44" id="path83" style="fill-rule:evenodd;clip-rule:evenodd;fill:#ED9579;"></path>

	<path d="M53.485,190.525c1.202-0.464,2.708,0.038,3.701,0.784   c-3.766,1.222-7.567,1.751-11.53,1.322c-2.285-0.246-6.781-0.351-8.458-2.281c1.323-1.554,5.936-0.825,7.742-0.676   C47.795,189.913,50.81,189.202,53.485,190.525" id="path85" style="fill-rule:evenodd;clip-rule:evenodd;fill:#CC7AA3;"></path>

	<path d="M77.827,190.35c-3.753,2.908-8.16,4.969-12.063,7.708   c0.158-1.585,1.082-2.783,1.525-4.267c0.16-0.537,0.121-2.958,0.334-2.939C69.112,190.988,77.606,189.879,77.827,190.35" id="path87" style="fill-rule:evenodd;clip-rule:evenodd;fill:#BDA4BD;"></path>

	<path d="M34.455,194.226c0.78,3.557,2.804,6.347,5.183,9.188   c-2.571,0.572-5.218,1.172-7.273,2.918c-0.429-1.57-0.633-3.23-0.402-4.854c0.163-1.141,1.738-3.365,1.556-4.27   c-0.278-1.389-6.817,1.744-7.903,1.502c-1.208-0.269-1.295-0.812-1.502-1.851c-0.269-1.347,1.643-1.688,2.504-2.198   C28.196,193.722,34.935,190.187,34.455,194.226" id="path89" style="fill-rule:evenodd;clip-rule:evenodd;fill:#ED9579;"></path>

	<path d="M63.936,199.539c-4.068,2.2-8.435,4.53-13.195,3.396   c-1.437-0.342-6.191-1.815-4.181-4.049c1.622-1.801,5.632-0.366,7.534-0.014c1.862,0.345,3.398-0.161,5.204-0.161   c2.133,0,3.167-0.473,4.986-1.611C64.416,197.923,64.168,198.814,63.936,199.539" id="path91" style="fill-rule:evenodd;clip-rule:evenodd;fill:#F5A990;"></path>

	<path d="M103.955,198.407c2.015-1.042,6.875,2.594,6.184,4.877   c-0.469,1.546-2.527,1.682-3.789,1.22c-2.374-0.871-3.768-2.588-6.4-3.049c0.216-0.677,1.08-3.239,1.742-3.526   C102.132,197.736,103.472,198.318,103.955,198.407" id="path93" style="fill-rule:evenodd;clip-rule:evenodd;fill:#F5A990;"></path>

	<path d="M30.884,198.711c-0.074,3.038-0.247,5.862,0.598,8.824   c0.189,0.657,2.056,3.382,1.906,3.652c-0.501,0.9-1.791,1.22-2.743,1.306c-1.235,0.114-2.451,0.381-3.245-0.763   c-0.627-0.901-0.653-3.049-0.761-4.129c-0.261-2.603-1.332-5.065-1.982-7.585C26.842,200.625,28.976,199.106,30.884,198.711" id="path95" style="fill-rule:evenodd;clip-rule:evenodd;fill:#FCCABB;"></path>

	<path d="M103.955,204.983c0.265,0.793,0.175,1.653,0.175,2.481   c-2.202-0.774-4.835,2.147-6.75,1.132c-0.943-0.499-1.036-2.406-0.697-3.265C98.045,201.88,101.953,203.276,103.955,204.983" id="path97" style="fill-rule:evenodd;clip-rule:evenodd;fill:#F5A990;"></path>

	<path d="M50.263,211.951c0.325,0.466,1.325,2.146,1.132,2.742   c-0.276,0.85-2.302,1.464-3.048,1.61c-0.199-2.563,0.235-5.008,1.132-7.402C49.576,209.995,50.681,210.769,50.263,211.951" id="path99" style="fill-rule:evenodd;clip-rule:evenodd;fill:#BDA4BD;"></path>

	<path d="M103.955,209.511c0.1,0.711,0.002,1.363-0.61,1.785   c-1.622,1.12-2.743,0.321-2.743-1.219C100.601,208.391,103.275,208.75,103.955,209.511" id="path101" style="fill-rule:evenodd;clip-rule:evenodd;fill:#ED9579;"></path>

	<path d="M87.494,213.387c-0.121,1.112-1.432,1.432-1.394,2.612c-1.35-0.846-5.467-1.13-3.439-3.267   C83.996,211.326,86.744,211.84,87.494,213.387" id="path103" style="fill:#3D5C99;"></path>

	<path d="M79.133,214.824c0.578,1.479-1.042,2.325-0.957,3.744c-1.545-0.462-4.178,0.214-4.399-1.959   C73.488,213.75,77.599,213.739,79.133,214.824" id="path105" style="fill:#3D5C99;"></path>

	<path d="M92.981,214.998c0.302,0.432,0.751,1.065,0.784,1.611c0.073,1.23-0.277,1.108-1.415,1.371   c-1.764,0.408-3.577,2.894-4.639,0.98C85.561,215.083,89.958,213.144,92.981,214.998" id="path107" style="fill:#3D5C99;"></path>

	<path d="M86.057,219.047c1.385,0.547,0.19,2.798-0.566,3.396c-1.189,0.942-4.074,0.682-5.225-0.303   c-1.599-1.37-0.957-4.546,0.608-5.531C82.467,215.607,86.624,216.707,86.057,219.047" id="path109" style="fill:#3D5C99;"></path>

	<path d="M61.541,217.437c1.397-0.404,2.795-0.807,4.193-1.21   c0.606-0.176,1.243,0.737,1.751,1.101c1.779,1.271,1.922,3.267,0.407,4.971c-3.757,4.225-9.75,4.209-14.842,3.499   c-3.322-0.464-7.47-2.784-5.269-6.642c0.958-1.68,4.356-3.461,6.183-2.547C56.247,217.75,59.205,217.78,61.541,217.437" id="path111" style="fill-rule:evenodd;clip-rule:evenodd;fill:#FF8257;"></path>

	<path d="M52.352,217.916c-1.03,0.285-2.186,0.609-2.873,1.48   C48.759,217.576,52.688,216.065,52.352,217.916" id="path113" style="fill-rule:evenodd;clip-rule:evenodd;fill:#FC5B26;"></path>

	<path d="M104.129,218.568c0.146,0.463,0.204,0.948,0.173,1.438c-1.046-0.225-2.005-0.011-2.917,0.521   c-0.356,0.208-2.232,2.07-2.352,1.981c-0.82-0.613-1.251-1.037-1.35-2.068c-0.087-0.903,0.358-2.455,0.827-2.982   c0.713-0.804,1.751-0.578,2.7-0.501C102.735,217.081,103.075,217.409,104.129,218.568" id="path115" style="fill:#3D5C99;"></path>

	<path d="M66.505,217.916c0.401,1.267-0.96,1.111-1.35,0.13   C64.607,216.666,66.279,217.045,66.505,217.916" id="path117" style="fill-rule:evenodd;clip-rule:evenodd;fill:#FC5B26;"></path>

	<path d="M56.881,218.351c0.593,1.102,2.061-0.159,2.787-0.306   c2.036-0.407,0.682,0.236,0.087,1.351c1.581,0.529,5.592-0.787,6.009,0.783c-1.252-0.077-5.198-0.332-5.791,0.871   c-0.787,1.593,1.969,1.928,1.611,3.179c-2.372-0.28-2.742-3.585-5.356-2.089c-0.91,0.519-1.987,2.588-2.874,2.264   c0.363-0.929,2.908-3.107,1.438-4.094c-0.829-0.556-4.307,0.871-5.618,0.522c1.263-1.229,7.903,0.158,5.313-2.917   C55.27,217.259,56.017,218.322,56.881,218.351" id="path119" style="fill-rule:evenodd;clip-rule:evenodd;fill:#F5A990;"></path>

	<path d="M96.204,220.79c2.028,3.438-4.572,4.938-6.14,3.135C87.262,220.705,94.197,217.19,96.204,220.79" id="path121" style="fill:#3D5C99;"></path>

	<path d="M78.61,221.792c1.368,4.684-4.854,6.055-7.184,2.742C68.473,220.335,76.518,217.688,78.61,221.792" id="path123" style="fill:#3D5C99;"></path>

	<path d="M112.01,222.096c0.779,2.838-2.075,4.119-3.614,2.198c-0.619-0.771-0.824-1.81-0.131-2.503   C109.865,220.192,110.629,220.713,112.01,222.096" id="path125" style="fill:#3D5C99;"></path>

	<path d="M88.017,221.137c-0.111,1.186-0.055,2.64,0.783,3.57   c-1.301,0.625-2.857,0.173-4.181-0.174C85.649,223.222,87.226,222.469,88.017,221.137" id="path127" style="fill-rule:evenodd;clip-rule:evenodd;fill:#5C3D99;"></path>

	<path d="M65.242,223.054c-0.551,0.624-1.391,1.007-2.221,0.827   c0-0.102,0-0.204,0-0.305C63.494,223.278,67.425,219.527,65.242,223.054" id="path129" style="fill-rule:evenodd;clip-rule:evenodd;fill:#FC5B26;"></path>

	<path d="M106.523,223.054c0.744,1.885-3.212,2.606-3.701,4.527c-2.382-0.872-3.552-3.415-1.523-5.441   C102.951,220.487,105.344,221.843,106.523,223.054" id="path131" style="fill:#3D5C99;"></path>

	<path d="M52.048,223.881c-0.218,1.672-3.513,0.058-3.223-1.917   C49.906,222.614,50.763,223.641,52.048,223.881" id="path133" style="fill-rule:evenodd;clip-rule:evenodd;fill:#FC5B26;"></path>

	<path d="M39.419,224.491c0.079,0.73-0.718,1.191-0.392,1.741   c0.355,0.601,1.664,0.256,2.003,0.914c0.743,1.445-3.268,0.913-3.919,0.263C34.96,225.257,37.748,221.997,39.419,224.491" id="path135" style="fill-rule:evenodd;clip-rule:evenodd;fill:#995C7A;"></path>

	<path d="M68.769,225.492c-1.593-0.096-2.616,1.143-3.505,2.286   c-1.723,2.22,0.325,3.881-3.528,4.102c-4.708,0.27-10.854,0.032-13.346-4.471c-0.406-0.735-0.9-1.668,0.305-1.656   c0.4,0.006,2.109,1.197,2.58,1.407c1.322,0.589,2.278,0.912,3.734,0.945c5.413,0.123,10.269-0.908,14.283-4.703   C69.609,224.283,68.475,224.669,68.769,225.492" id="path137" style="fill-rule:evenodd;clip-rule:evenodd;fill:#FC5B26;"></path>

	<path d="M59.755,224.185c-0.024,1.612-3.278,1.558-4.006,0.349   C56.686,224.232,58.963,224.005,59.755,224.185" id="path139" style="fill-rule:evenodd;clip-rule:evenodd;fill:#FC5B26;"></path>

	<path d="M96.682,225.318c-0.488,3.896-5.864,6.807-9.422,6.425   c-2.795-0.3-6.781-3.029-6.69-6.251c1.621,0.594,3.434,0.208,5.007,0.958c-0.384,0.191-4.444,2.073-2.024,2.417   c1.315,0.188,2.215-1.521,3.288-1.415c-0.249,0.379-1.904,2.668-0.915,3.049c0.681,0.261,1.512-2.034,1.742-2.396   c0.543,0.688,1.763,2.777,2.352,2.352c1.073-0.773-0.71-2.088-1.045-2.875c0.752,0.29,2.956,1.637,3.656,1.178   c0.457-0.3,0.645-0.62,0.219-1.046c-0.713-0.714-1.841-0.253-2.569-1.09C92.348,225.859,94.535,225.732,96.682,225.318" id="path141" style="fill-rule:evenodd;clip-rule:evenodd;fill:#FFE88F;"></path>

	<path d="M71.034,226.145C70.235,226.977,70.305,225.324,71.034,226.145   " id="path143" style="fill-rule:evenodd;clip-rule:evenodd;fill:#5C3D99;"></path>

	<path d="M82.661,226.929c-0.097,0.781-1.005,0.387-1.219-0.349   C81.012,225.108,82.501,226.542,82.661,226.929" id="path145" style="fill-rule:evenodd;clip-rule:evenodd;fill:#E3C342;"></path>

	<path d="M95.115,226.321c0.168,1.065-1.044,1.007-1.438,1.784   c-0.214-0.104-0.575-0.447-0.696-0.653C93.503,226.79,94.222,225.418,95.115,226.321" id="path147" style="fill-rule:evenodd;clip-rule:evenodd;fill:#E3C342;"></path>

	<path d="M109.573,227.582c0.389,1.507,0.423,3.144-1.198,3.789c-1.342,0.535-3.346-0.066-4.115-1.349   c-0.466-0.778-0.324-1.636-0.022-2.439c0.381-1.011,1.176-0.274,1.656-0.914C106.945,225.261,108.997,226.394,109.573,227.582" id="path149" style="fill:#3D5C99;"></path>

	<path d="M79.743,228.192c-0.839-0.027-2.004-0.471-1.699-1.307   C78.671,225.172,79.709,227.756,79.743,228.192" id="path151" style="fill-rule:evenodd;clip-rule:evenodd;fill:#5C3D99;"></path>

	<path d="M76.695,227.757c0.206,1.29-2.646,2.174-1.742,4.049c-3.471,0.45-2.532-1.852-3.397-4.354   C73.094,226.918,75.007,228.041,76.695,227.757" id="path153" style="fill:#3D5C99;"></path>

	<path d="M68.334,227.278c0.378,0.491,1.35,0.784,2.045,1.481c0.584,0.583-0.63,2.98-1.545,2.851   c-0.941-0.134-2.766-0.743-2.766-1.915C66.069,228.562,67.226,227.292,68.334,227.278" id="path155" style="fill:#3D5C99;"></path>

	<path d="M95.115,230.63c-0.16,0.014-0.319,0.029-0.479,0.043   c0.707-0.981,2.08-1.369,2.22-2.743C96.558,228.96,96.304,230.466,95.115,230.63" id="path157" style="fill-rule:evenodd;clip-rule:evenodd;fill:#FFCC00;"></path>

	<path d="M84.925,229.672C83.633,231.61,83.883,227.501,84.925,229.672" id="path159" style="fill-rule:evenodd;clip-rule:evenodd;fill:#E3C342;"></path>

	<path d="M102.997,230.457c0.426,0.836-0.028,1.684-0.871,2.003c-1.264,0.479-1.373-0.415-2.155-1.198   c-0.687-0.686-0.326-1.938,0.676-2.198C101.676,228.795,102.446,229.935,102.997,230.457" id="path161" style="fill:#3D5C99;"></path>

	<path d="M91.849,229.194C92.133,231.258,89.196,228.675,91.849,229.194   " id="path163" style="fill-rule:evenodd;clip-rule:evenodd;fill:#E3C342;"></path>

	<path d="M80.439,230.804c0.671,3.105-4.213,2.587-3.875-0.651c0.965,0.193,1.137-0.959,2.199-0.654   C79.518,229.714,80.27,230.12,80.439,230.804" id="path165" style="fill:#3D5C99;"></path>

	<path d="M88.322,230.63c-0.324,0.214-1.404,0.417-1.089-0.306   C87.441,229.851,88.875,229.709,88.322,230.63" id="path167" style="fill-rule:evenodd;clip-rule:evenodd;fill:#E3C342;"></path>

	<path d="M85.839,226.232c-1.05,0.467-3.042,0.87-3.156,2.072   c-0.164,1.715,3.313-0.321,3.767-0.547c-0.428,0.672-1.396,2.088-0.48,2.677c0.575,0.37,1.474-1.679,1.786-2.199   c0.379,0.612,1.342,3.133,2.481,2.526c1.268-0.675-0.691-2.483-1.088-3.004c1.48,0.624,2.599,1.304,4.224,1.088   C93.159,226.044,87.786,226.321,85.839,226.232" id="path169" style="fill-rule:evenodd;clip-rule:evenodd;fill:#FFFFCC;"></path>

	<path d="M86.057,226.321c-0.363,0.286-0.674,0.673-1.001,1   c1.242-0.135,1.911-0.432,1.915,1.133c0.188-0.438,0.577-0.79,0.784-1.22c0.227,0.374,0.598,0.694,0.785,1.089   c-0.136-0.392-0.085-0.859-0.176-1.263c0.449,0.101,0.955,0.038,1.394,0.174C88.802,225.872,87.401,226.747,86.057,226.321" id="path171" style="fill-rule:evenodd;clip-rule:evenodd;fill:#FFE88F;"></path>

	<path d="M61.758,221.834c0.898-1.693,2.069,0.605-0.304,0.522   C61.556,222.183,61.657,222.008,61.758,221.834" id="path173" style="fill-rule:evenodd;clip-rule:evenodd;fill:#FC5B26;"></path>

	<path d="M56.838,222.706c0.588,0.178,0.734,0.504,1.307,0.043   c0.839,1.205-1.382,1.182-1.873,0C56.195,222.743,57.112,222.731,56.838,222.706" id="path175" style="fill-rule:evenodd;clip-rule:evenodd;fill:#FC5B26;"></path>

	<path d="M52.352,221.617c0.102,0.517,0.411,0.862,0.915,1.045   c-0.649,0.813-1.457,0.275-1.698-0.609C51.817,221.952,52.149,221.667,52.352,221.617" id="path177" style="fill-rule:evenodd;clip-rule:evenodd;fill:#FC5B26;"></path>

	<path d="M56.446,219.745c-0.209-0.29-0.351-0.644-0.523-0.959   c0.976,0.95,1.971,0.361,3.092,0.044c-0.167,0.246-0.16,0.609-0.305,0.871c0.459,0.044,0.935,0.27,1.394,0.261   c-0.932,0.351-1.86,0.423-1.001,1.567c-1.66-1.521-1.477-1.521-3.136,0c0.203-0.464,0.406-0.929,0.61-1.394   c-0.424-0.015-0.886-0.169-1.307-0.129C55.66,219.919,56.051,219.802,56.446,219.745" id="path179" style="fill-rule:evenodd;clip-rule:evenodd;fill:#FFCCBD;"></path>

	<path d="M37.852,192.528c1.105,0.338,2.211,0.677,3.316,1.015   c0.845,0.258,0.256,1.672,0.385,2.426c0.309,1.811,1.074,3.723,1.611,5.486C39.174,200.228,37.212,196.511,37.852,192.528" id="path181" style="fill-rule:evenodd;clip-rule:evenodd;fill:#995C7A;"></path>

	<path d="M123.332,174.196c0.41,2.006,0.44,7.551-1.47,8.329   c-2.444,0.996-5.037,2.124-7.717,2.208c-2.329,0.073-4.424-0.988-6.663-1.437c-1.277-0.256-2.385-0.207-3.68-0.282   c-1.632-0.097-3.154-0.747-4.813-0.589c-5.208,0.499-10.954,2.131-15.721,4.311c-0.948,0.435-2.208,1.578-3.178,1.698   c-1.448,0.182-2.861,0.588-4.311,0.74c-2.375,0.252-5.305,0.75-7.668,0.502c-1.342-0.141-2.211-1.276-3.479-1.678   c-1.345-0.425-2.941-0.688-4.355-0.587c-1.274,0.092-1.133-1.723-1.676-2.81c-0.713-1.425-1.655-2.166-3.07-2.743   c-4.535-1.852-10.526-2.715-15.285-0.958c-2.551,0.942-3.78,3.208-5.182,5.313c-0.345,0.519-0.567,1.095-0.567,1.721   c0,0.27-3.33,0.164-3.831,0.152c-2.689-0.063-5.46-0.535-8.077-1.058c-2.521-0.505-5.869-1.371-7.992-2.818   c-0.817-0.556-0.74-0.358-0.958-1.741c-0.248-1.567-0.503-3.203-0.305-4.79c0.274-2.195,0.482-5.775,2.205-7.376   c4.379-4.068,10.659-2.809,15.809-1.092c4.89,1.631,9.926,1.635,14.994,2.479c5.786,0.965,11.195,1.287,17.048,1.177   c3.048-0.059,6.103-0.142,9.145-0.371c2.849-0.215,5.842,0.004,8.601-0.609c5.202-1.156,10.687-0.898,15.93-1.914   c4.896-0.946,9.69-2.039,14.552-3.051C117.662,165.667,120.339,169.847,123.332,174.196" id="path183" style="fill-rule:evenodd;clip-rule:evenodd;fill:#D1B2A1;"></path>

	<path d="M122.636,184.21c0.9,4.991-0.377,10.79-0.641,15.824   c-0.145,2.75-0.343,5.587-0.979,8.273c-0.346,1.462-0.404,2.906-0.493,4.403c-0.089,1.493-0.609,3.058-0.573,4.511   c0.073,2.903-0.345,5.7-1.082,8.505c-0.687,2.606-1.851,5.599-1.851,8.304c0,1.307-0.893,2.41-1.698,3.349   c-0.852,0.994-1.197,2.38-1.965,3.299c-1.835,2.202-4.017,4.115-6.766,5.062c-1.754,0.605-3.457,0.421-5.248,0.524   c-1.13,0.064-2.139,0.832-3.004,0.826c-0.195-1.185-4.248,0.571-5.29,0.787c-2.606,0.538-5.32,0.938-7.948,1.347   c-4.236,0.662-8.417,0.792-12.662,0.709c-3.138-0.063-6.284,0.229-9.423,0.289c-3.291,0.064-6.168-0.856-9.356-1.303   c-2.879-0.402-5.123,0.062-7.882-1.132c-1.978-0.854-4.734-0.528-6.924-0.893c-2.592-0.433-5.058-1.122-7.489-1.807   c-2.59-0.729-4.761-1.188-6.948-3.063c-4.722-4.048-7.25-8.754-7.741-14.999c-0.484-6.168-0.795-12.251-0.923-18.43   c-0.061-2.919-0.281-5.831-0.467-8.744c-0.181-2.841,0.038-5.705-0.23-8.52c-0.169-1.775-0.412-3.587-0.761-5.337   c2.972,0.771,5.788,2.235,8.861,2.604c2.619,0.314,5.274,0.683,7.896,0.945c0.57,0.057,2.796-0.188,3.013,0.152   c0.599,0.945-0.86,1.408-1.505,1.685c-2.83,1.213-5.332,1.322-7.901,3.149c-1.23,0.875-2.195,1.155-2.025,3.027   c0.198,2.164,1.208,4.265,1.832,6.343c0.782,2.607,0.983,5.142,1.465,7.793c0.52,2.864,4.946,2.266,6.871,1.388   c1.442-0.658,2.91-1.39,1.764-3.223c-0.444-0.709-1.197-1.242-1.197-2.154c0-1.021,2.033-1.948,2.859-2.224   c2.694-0.898,5.522-0.593,6.308,2.549c0.441,1.77,1.031,3.971,1.022,5.836c-0.005,1.242-0.246,2.518-0.436,3.745   c-0.094,0.607-0.142,1.281-0.304,1.872c-0.354,1.284-0.149,1.034-1.307,1.48c-2.859,1.101-6.192,0.083-8.182,3.134   c-3.469,5.318,4.668,7.63,8.52,8.111c2.504,0.313,5.006,0.262,7.501-0.063c0.892-0.116,0.923-0.454,1.871-0.164   c0.656,0.2,1.165,0.811,1.858,1.02c2.54,0.762,4.843,0.918,7.474,0.655c1.943-0.194,4.615-2.035,6.322-1.087   c0.593,0.328,1.27,0.719,1.96,0.719c0.797,0,1.284-0.723,1.807-0.785c0.937-0.113,1.104,0.639,2.156,0.719   c0.998,0.077,2.19-0.563,3.157-0.152c0.865,0.369,0.964,1.427,2.09,1.285c0.552-0.069,1.37-0.24,1.873-0.458   c1.102-0.476,2.057-1.386,1.96-2.743c3.013,3.058,11.795,2.887,15.022,0.174c1.96-1.646,2.879-6.194,0.479-7.75   c0.522,0.043,1.044,0.086,1.567,0.13c-0.375,1.667,1.472,3.64,0.914,4.616c-0.207,0.364-1.137,0.272-1.459,1.023   c-0.285,0.668-0.322,1.419-0.064,2.112c0.675,1.814,2.243,2.571,3.94,2.33c0.602-0.087,1.18-0.31,1.611-0.742   c0.915-0.914,0.189-0.695,1.546-0.631c1.783,0.086,4.445,0.322,5.399-1.611c0.569-1.151-0.018-2.198-0.043-3.353   c-0.035-1.58,0.222-0.998,1.415-1.851c3.033-2.165,0.808-6.08-2.417-6.401c-1.209-0.12-1.381,1.306-2.221,1.677   c-2.316,1.024-2.146-3.948-3.788-4.965c-2.52-1.557-6.663-0.133-7.229,2.83c-0.654-0.312-1.264-0.327-1.612-1.001   c-0.261-0.506,0.104-1.808-0.217-2.525c-0.494-1.104-1.451-1.841-2.57-2.265c-1.192-0.452-3.233,0.106-3.701-0.827   c-2.123-4.24-9.86,0.495-7.533,2.874c-0.159,0.059-0.319,0.116-0.479,0.175c-0.848-2.528-2.195-2.91-4.898-2.286   c-2.136,0.492-3.981,3.187-2.548,5.203c-0.547,0.386-1.085,0.922-1.72,1.176c-0.72,0.287-0.828-1.2-1.025-1.774   c-0.405-1.181-1.213-1.565-2.219-2.318c2.173-1.494,4.47-2.746,6.68-4.175c2.812-1.817,5.187-4.236,8.082-5.994   c2.656-1.611,5.355-3.506,8.188-4.745c2.438-1.068,6.063-2.623,8.797-1.852c-0.817,2.788-3.589,4.256-4.679,6.871   c-0.82,1.969,0.865,4.442,2.914,4.734c2.523,0.358-0.025,1.238,0.806,2.634c0.352,0.592,2.849,0.336,3.571,0.218   c1.445-0.237,2.655-0.85,3.179-2.286c0.367-1.01,0.233-2.217,0.152-3.265c-0.138-1.782,0.216-1.164,1.72-1.112   c1.32,0.048,3.294-0.714,4.028-1.938c0.506-0.843,0.171-2.055,0.414-3.026c0.375-1.499,0.856-3.007,1.437-4.441   c0.585-1.448,1.508-2.432,2.438-3.658c0.743-0.979,1.03-2.065,1.633-3.069c1.121-1.871-0.688-2.905-1.938-4.246   C117.801,185.323,120.525,185.056,122.636,184.21" id="path185" style="fill-rule:evenodd;clip-rule:evenodd;fill:#C7ABB1;"></path>

	<path d="M34.455,194.226c0.78,3.557,2.804,6.347,5.183,9.188   c-2.571,0.572-5.218,1.172-7.273,2.918c-0.429-1.57-0.633-3.23-0.402-4.854c0.163-1.141,1.738-3.365,1.556-4.27   c-0.278-1.389-6.817,1.744-7.903,1.502c-1.208-0.269-1.295-0.812-1.502-1.851c-0.269-1.347,1.643-1.688,2.504-2.198   C28.196,193.722,34.935,190.187,34.455,194.226" id="path187" style="fill-rule:evenodd;clip-rule:evenodd;fill:#D4A7A1;"></path>

	<path d="M30.884,198.711c-0.074,3.038-0.247,5.862,0.598,8.824   c0.189,0.657,2.056,3.382,1.906,3.652c-0.501,0.9-1.791,1.22-2.743,1.306c-1.235,0.114-2.451,0.381-3.245-0.763   c-0.627-0.901-0.653-3.049-0.761-4.129c-0.261-2.603-1.332-5.065-1.982-7.585C26.842,200.625,28.976,199.106,30.884,198.711" id="path189" style="fill-rule:evenodd;clip-rule:evenodd;fill:#D9B6B2;"></path>

	<path d="M123.332,174.196c0.41,2.006,0.44,7.551-1.47,8.329   c-2.444,0.996-5.037,2.124-7.717,2.208c-2.329,0.073-4.424-0.988-6.663-1.437c-1.277-0.256-2.385-0.207-3.68-0.282   c-1.632-0.097-3.154-0.747-4.813-0.589c-5.208,0.499-10.954,2.131-15.721,4.311c-0.948,0.435-2.208,1.578-3.178,1.698   c-1.448,0.182-2.861,0.588-4.311,0.74c-2.375,0.252-5.305,0.75-7.668,0.502c-1.342-0.141-2.211-1.276-3.479-1.678   c-1.345-0.425-2.941-0.688-4.355-0.587c-1.274,0.092-1.133-1.723-1.676-2.81c-0.713-1.425-1.655-2.166-3.07-2.743   c-4.535-1.852-10.526-2.715-15.285-0.958c-2.551,0.942-3.78,3.208-5.182,5.313c-0.345,0.519-0.567,1.095-0.567,1.721   c0,0.27-3.33,0.164-3.831,0.152c-2.689-0.063-5.46-0.535-8.077-1.058c-2.521-0.505-5.869-1.371-7.992-2.818   c-0.817-0.556-0.74-0.358-0.958-1.741c-0.248-1.567-0.503-3.203-0.305-4.79c0.274-2.195,0.482-5.775,2.205-7.376   c4.379-4.068,10.659-2.809,15.809-1.092c4.89,1.631,9.926,1.635,14.994,2.479c5.786,0.965,11.195,1.287,17.048,1.177   c3.048-0.059,6.103-0.142,9.145-0.371c2.849-0.215,5.842,0.004,8.601-0.609c5.202-1.156,10.687-0.898,15.93-1.914   c4.896-0.946,9.69-2.039,14.552-3.051C117.662,165.667,120.339,169.847,123.332,174.196" id="path191" style="fill-rule:evenodd;clip-rule:evenodd;fill:#D1B2A1;"></path>

	<path d="M55.749,183.383c0.416,0.477,1.393,0.996,1.132,1.698   c-0.375,1.015-4.042,1.081-5.007,1.132c-3.663,0.191-7.758-0.126-11.278-1.132c-0.865-0.247-1.484-0.642-1.829-1.502   c-0.271-0.676,1.885-1.301,2.481-1.502c1.821-0.618,3.789-0.804,5.706-0.684C49.753,181.569,53.208,182.071,55.749,183.383" id="path193" style="fill-rule:evenodd;clip-rule:evenodd;fill:#D1B2A1;"></path>

	<path d="M39.289,185.822c3.708,1.506,7.444,1.64,11.379,1.902   c2.435,0.162,4.981,0.167,7.215-1.075c0.145,1.017,0.29,2.032,0.435,3.048c-3.604-1.268-7.557-1.003-11.243-1.372   c-1.858-0.186-3.61-0.425-5.457,0.001c-1.865,0.43-4.05-0.745-5.683,0.588c-0.652-1.621,1.027-2.795,1.437-4.225   C38.104,185.035,38.542,186.403,39.289,185.822" id="path195" style="fill-rule:evenodd;clip-rule:evenodd;fill:#D1B2A1;"></path>

	<path d="M53.485,190.525c1.202-0.464,2.708,0.038,3.701,0.784   c-3.766,1.222-7.567,1.751-11.53,1.322c-2.285-0.246-6.781-0.351-8.458-2.281c1.323-1.554,5.936-0.825,7.742-0.676   C47.795,189.913,50.81,189.202,53.485,190.525" id="path197" style="fill-rule:evenodd;clip-rule:evenodd;fill:#CC9FAB;"></path>

	<path d="M34.455,194.226c0.78,3.557,2.804,6.347,5.183,9.188   c-2.571,0.572-5.218,1.172-7.273,2.918c-0.429-1.57-0.633-3.23-0.402-4.854c0.163-1.141,1.738-3.365,1.556-4.27   c-0.278-1.389-6.817,1.744-7.903,1.502c-1.208-0.269-1.295-0.812-1.502-1.851c-0.269-1.347,1.643-1.688,2.504-2.198   C28.196,193.722,34.935,190.187,34.455,194.226" id="path199" style="fill-rule:evenodd;clip-rule:evenodd;fill:#D4A7A1;"></path>

	<path d="M30.884,198.711c-0.074,3.038-0.247,5.862,0.598,8.824   c0.189,0.657,2.056,3.382,1.906,3.652c-0.501,0.9-1.791,1.22-2.743,1.306c-1.235,0.114-2.451,0.381-3.245-0.763   c-0.627-0.901-0.653-3.049-0.761-4.129c-0.261-2.603-1.332-5.065-1.982-7.585C26.842,200.625,28.976,199.106,30.884,198.711" id="path201" style="fill-rule:evenodd;clip-rule:evenodd;fill:#D9B6B2;"></path>

	<path d="M39.419,224.491c0.079,0.73-0.718,1.191-0.392,1.741   c0.355,0.601,1.664,0.256,2.003,0.914c0.743,1.445-3.268,0.913-3.919,0.263C34.96,225.257,37.748,221.997,39.419,224.491" id="path203" style="fill-rule:evenodd;clip-rule:evenodd;fill:#BF95A1;"></path>

	<path d="M37.852,192.528c1.105,0.338,2.211,0.677,3.316,1.015   c0.845,0.258,0.256,1.672,0.385,2.426c0.309,1.811,1.074,3.723,1.611,5.486C39.174,200.228,37.212,196.511,37.852,192.528" id="path205" style="fill-rule:evenodd;clip-rule:evenodd;fill:#BF95A1;"></path>

</g>


  
</svg>
