<?xml version="1.0" encoding="UTF-8" standalone="no"?>
<!-- Generator: Adobe Illustrator 12.0.0, SVG Export Plug-In . SVG Version: 6.00 Build 51448)  --><svg height="122.197" id="Layer_1" inkscape:version="0.42" sodipodi:docbase="F:\openclip\svg da inviare\02" sodipodi:docname="finestresovrapposte.svg" sodipodi:version="0.32" space="preserve" style="overflow:visible;enable-background:new 0 0 137.879 122.197;" version="1.1" viewBox="0 0 137.879 122.197" width="137.879" xmlns="http://www.w3.org/2000/svg" xmlns:cc="http://web.resource.org/cc/" xmlns:dc="http://purl.org/dc/elements/1.1/" xmlns:inkscape="http://www.inkscape.org/namespaces/inkscape" xmlns:rdf="http://www.w3.org/1999/02/22-rdf-syntax-ns#" xmlns:sodipodi="http://inkscape.sourceforge.net/DTD/sodipodi-0.dtd" xmlns:svg="http://www.w3.org/2000/svg" xmlns:xlink="http://www.w3.org/1999/xlink">
  <metadata>
    <rdf:RDF xmlns:cc="http://web.resource.org/cc/" xmlns:dc="http://purl.org/dc/elements/1.1/" xmlns:rdf="http://www.w3.org/1999/02/22-rdf-syntax-ns#">
      <cc:Work rdf:about="">
        <dc:title>Finestre sovrapposte</dc:title>
        <dc:description></dc:description>
        <dc:subject>
          <rdf:Bag>
            <rdf:li>unsorted</rdf:li>
          </rdf:Bag>
        </dc:subject>
        <dc:publisher>
          <cc:Agent rdf:about="http://www.openclipart.org/">
            <dc:title>Open Clip Art Library</dc:title>
          </cc:Agent>
        </dc:publisher>
        <dc:creator>
          <cc:Agent>
            <dc:title>Architetto Francesco Rollandin</dc:title>
          </cc:Agent>
        </dc:creator>
        <dc:rights>
          <cc:Agent>
            <dc:title>Architetto Francesco Rollandin</dc:title>
          </cc:Agent>
        </dc:rights>
        <dc:date></dc:date>
        <dc:format>image/svg+xml</dc:format>
        <dc:type rdf:resource="http://purl.org/dc/dcmitype/StillImage"/>
        <cc:license rdf:resource="http://web.resource.org/cc/PublicDomain"/>
        <dc:language>en</dc:language>
      </cc:Work>
      <cc:License rdf:about="http://web.resource.org/cc/PublicDomain">
        <cc:permits rdf:resource="http://web.resource.org/cc/Reproduction"/>
        <cc:permits rdf:resource="http://web.resource.org/cc/Distribution"/>
        <cc:permits rdf:resource="http://web.resource.org/cc/DerivativeWorks"/>
      </cc:License>
    </rdf:RDF>
  </metadata>
  <defs id="defs116">
    <radialGradient cx="-295.4233" cy="465.6846" gradientTransform="matrix(42.01350,0.000000,0.000000,-42.01350,12463.90,19525.71)" gradientUnits="userSpaceOnUse" id="XMLID_13_" r="1.857">
      <stop id="stop12" offset="0" style="stop-color:#8BBBFF"/>
      <stop id="stop14" offset="1" style="stop-color:#0D56AC"/>
    </radialGradient>
    <radialGradient cx="-294.8936" cy="465.1787" gradientTransform="matrix(42.01350,0.000000,0.000000,-42.01350,12490.12,19551.93)" gradientUnits="userSpaceOnUse" id="XMLID_14_" r="1.8675">
      <stop id="stop35" offset="0" style="stop-color:#8BBBFF"/>
      <stop id="stop37" offset="1" style="stop-color:#0D56AC"/>
    </radialGradient>
    <linearGradient gradientTransform="matrix(120.5046,112.0041,112.0041,-120.5046,-20073.13,81989.08)" gradientUnits="userSpaceOnUse" id="XMLID_15_" x1="-249.7446" x2="-248.2719" y1="448.2471" y2="448.2471">
      <stop id="stop52" offset="0" style="stop-color:#F4F4F4"/>
      <stop id="stop54" offset="1" style="stop-color:#0C52A5"/>
    </linearGradient>
    <linearGradient gradientTransform="matrix(149.7507,120.9042,139.1872,-130.0802,-24953.57,88501.09)" gradientUnits="userSpaceOnUse" id="XMLID_17_" x1="-249.8433" x2="-247.9981" y1="448.0908" y2="448.0908">
      <stop id="stop71" offset="0" style="stop-color:#F4F4F4"/>
      <stop id="stop73" offset="1" style="stop-color:#0C52A5"/>
    </linearGradient>
    <linearGradient gradientTransform="matrix(120.5046,112.0041,112.0041,-120.5046,-20073.13,81989.08)" gradientUnits="userSpaceOnUse" id="XMLID_19_" x1="-249.8247" x2="-248.0679" y1="447.9893" y2="447.9893">
      <stop id="stop90" offset="0" style="stop-color:#FFFFFF"/>
      <stop id="stop92" offset="1" style="stop-color:#0D56AC"/>
    </linearGradient>
    <linearGradient gradientTransform="matrix(120.5046,112.0041,112.0041,-120.5046,-20073.13,81989.08)" gradientUnits="userSpaceOnUse" id="XMLID_20_" x1="-249.7852" x2="-248.1652" y1="448.2324" y2="448.2324">
      <stop id="stop97" offset="0" style="stop-color:#FFFFFF"/>
      <stop id="stop99" offset="1" style="stop-color:#0D56AC"/>
    </linearGradient>
    <defs id="defs105">
      <path d="M 48.893000,53.942000 C 48.893000,60.211000 48.893000,67.427000 48.893000,73.192000 C 48.893000,66.776000 48.893000,60.358000 48.893000,53.942000" id="XMLID_11_"/>
    </defs>
    <clipPath id="XMLID_21_">
      <use height="122.19700" id="use109" width="137.87900" x="0.00000000" xlink:href="#XMLID_11_" y="0.00000000"/>
    </clipPath>
  </defs>
  <sodipodi:namedview bordercolor="#666666" borderopacity="1.0" id="base" inkscape:current-layer="Layer_1" inkscape:cx="54.649213" inkscape:cy="72.639327" inkscape:pageopacity="0.0" inkscape:pageshadow="2" inkscape:window-height="510" inkscape:window-width="787" inkscape:window-x="22" inkscape:window-y="29" inkscape:zoom="2.2853175" pagecolor="#ffffff"/>
  <path d="M 87.788000,67.699000 C 87.788000,74.509000 72.561000,72.074000 68.655000,72.074000 C 56.420000,72.074000 44.185000,72.074000 31.950000,72.074000 C 23.601000,72.074000 15.252000,72.074000 6.9030000,72.074000 C -0.28500000,72.074000 1.9090000,60.538000 1.9090000,55.931000 C 1.9090000,43.944000 1.9090000,31.959000 1.9090000,19.973000 C 1.9090000,15.869000 -0.52600000,1.2770000 6.4300000,1.2770000 C 26.318000,1.2770000 46.206000,1.2770000 66.097000,1.2770000 C 71.855000,1.2770000 77.613000,1.2770000 83.370000,1.2770000 C 89.869000,1.2770000 87.788000,13.555000 87.788000,17.436000 C 87.788000,34.191000 87.788000,50.945000 87.788000,67.699000" id="path5" style="fill:#f4f4f4"/>
  <path d="M 37.132137,67.731060 C 37.132137,74.229425 37.112254,73.358299 44.567194,73.358299 C 52.014677,73.358299 52.001007,74.231584 52.001007,67.740776 C 47.045132,67.767762 42.089256,67.764524 37.132137,67.731060 M 89.175051,41.122309 C 76.062108,41.122309 62.949169,41.122309 49.833744,41.122309 C 44.495117,41.122309 37.132137,40.809265 37.132137,47.413416 C 37.132137,53.054688 37.132137,58.692721 37.132137,64.333992 C 42.089256,64.301608 47.045132,64.297290 52.001007,64.324277 C 52.001007,56.423690 51.009335,49.064994 62.434692,49.064994 C 71.379625,49.064994 80.327044,49.064994 89.273221,49.064994 C 89.198661,46.420311 89.145221,43.770230 89.175051,41.122309" id="path75" style="fill:url(#XMLID_17_)"/>
  <path d="M 83.404000,1.2840000 C 82.088000,1.2840000 80.771000,1.2840000 79.455000,1.2840000 C 87.429000,1.2840000 80.540000,14.159000 85.080000,14.159000 C 88.907000,14.159000 87.781000,12.896000 87.781000,9.2050000 C 87.781000,5.9920000 88.008000,1.2840000 83.404000,1.2840000" id="path7" style="fill:#68a0f2;fill-rule:evenodd"/>
  <path d="M 83.613000,5.4450000 C 83.613000,-0.75500000 71.382000,1.2840000 67.729000,1.2840000 C 57.136000,1.2840000 46.541000,1.2840000 35.946000,1.2840000 C 27.131000,1.2840000 18.318000,1.2840000 9.5050000,1.2840000 C 7.3900000,1.2840000 4.8370000,0.91200000 3.1840000,2.5650000 C 1.8770000,3.8720000 0.57000000,12.992000 1.9020000,14.177000 C 3.7670000,15.835000 14.660000,14.177000 17.041000,14.177000 C 27.649000,14.177000 38.258000,14.177000 48.866000,14.177000 C 58.237000,14.177000 67.609000,14.177000 76.981000,14.177000 C 79.080000,14.177000 81.177000,14.177000 83.276000,14.177000 C 84.032000,14.177000 83.613000,6.6300000 83.613000,5.4450000" id="path9" style="fill:#7fb5f7;fill-rule:evenodd"/>
  <path d="M 83.411000,-1.4210855e-014 C 65.773000,-1.4210855e-014 48.134000,-1.4210855e-014 30.496000,-1.4210855e-014 C 22.747000,-1.4210855e-014 15.000000,-1.4210855e-014 7.2500000,-1.4210855e-014 C -0.81200000,-1.4210855e-014 0.61800000,8.4070000 0.61800000,13.970000 C 0.61800000,24.795000 0.61800000,35.622000 0.61800000,46.448000 C 0.61800000,52.995000 -0.77400000,61.267000 0.61800000,67.699000 C 0.61800000,76.469000 19.432000,73.348000 24.545000,73.348000 C 32.274000,73.348000 41.749000,73.348000 48.657000,73.348000 C 46.853000,73.348000 49.947061,71.630746 48.562775,71.458182 C 45.909002,71.127364 30.621000,70.781000 27.584000,70.781000 C 23.599000,70.781000 3.1860000,73.651000 3.1860000,67.263000 C 3.1860000,47.704000 3.1860000,28.147000 3.1860000,8.5880000 C 3.1860000,1.7130000 7.7030000,2.5690000 13.328000,2.5690000 C 24.603000,2.5690000 35.878000,2.5690000 47.152000,2.5690000 C 57.742000,2.5690000 68.332000,2.5690000 78.920000,2.5690000 C 80.581000,2.5690000 83.408000,2.0760000 84.962000,2.9930000 C 87.719000,4.6180000 86.495000,11.425000 86.495000,13.924000 C 86.495000,21.360000 86.495000,28.797000 86.495000,36.235000 C 86.495000,36.779000 86.048000,40.550000 86.495000,40.917000 C 89.191000,43.127000 89.063000,39.302000 89.063000,38.164000 C 89.063000,30.529000 89.063000,22.892000 89.063000,15.257000 C 89.063000,10.541000 90.874000,-1.4210855e-014 83.411000,-1.4210855e-014" id="path16" sodipodi:nodetypes="csssscsssssssssssssssc" style="fill:url(#XMLID_13_)"/>
  <path d="M 80.202000,20.591000 C 80.202000,22.999000 8.2570000,22.997000 8.2570000,20.591000 C 8.2570000,18.184000 80.202000,18.184000 80.202000,20.591000" id="path18" style="fill:#c6c6c6"/>
  <path d="M 8.2570000,65.586000 C 5.7110000,65.586000 5.7110000,20.591000 8.2570000,20.591000 C 10.800000,20.591000 10.800000,65.586000 8.2570000,65.586000" id="path20" style="fill:#c6c6c6"/>
  <path d="M 6.5670000,66.230500 C 6.5670000,63.828500 80.545000,63.828500 80.545000,66.230500 C 80.545000,68.661500 6.5670000,68.661500 6.5670000,66.230500" id="path22" style="fill:#ffffff"/>
  <path d="M 80.545000,18.993000 C 83.169000,18.993000 83.171000,63.986000 80.545000,63.986000 C 77.920000,63.985000 77.924000,18.993000 80.545000,18.993000" id="path24" style="fill:#ffffff"/>
  <path d="M 86.272000,4.9580000 C 86.272000,5.3370000 4.7920000,5.3370000 4.7920000,4.9580000 C 4.7920000,1.8290000 86.272000,1.8290000 86.272000,4.9580000" id="path26" style="fill:#7ed8fc;fill-rule:evenodd"/>
  <path d="M 136.06300,115.97400 C 136.06300,122.78400 120.84000,120.34900 116.93300,120.34900 C 104.70200,120.34900 92.468000,120.34900 80.237000,120.34900 C 71.890000,120.34900 63.543000,120.34900 55.195000,120.34900 C 47.986000,120.34900 50.183000,108.83300 50.183000,104.20600 C 50.183000,92.219000 50.183000,80.234000 50.183000,68.247000 C 50.183000,64.122000 47.741000,49.567000 54.722000,49.567000 C 74.606000,49.567000 94.491000,49.567000 114.37600,49.567000 C 120.13400,49.567000 125.89000,49.567000 131.64600,49.567000 C 138.14500,49.567000 136.06300,61.831000 136.06300,65.710000 C 136.06300,82.466000 136.06300,99.220000 136.06300,115.97400" id="path28" style="fill:#f4f4f4"/>
  <path d="M 131.68100,49.561000 C 130.36500,49.561000 129.04800,49.561000 127.73300,49.561000 C 135.70600,49.561000 128.81700,62.436000 133.35700,62.436000 C 137.18600,62.436000 136.05800,61.174000 136.05800,57.482000 C 136.05800,54.268000 136.28400,49.561000 131.68100,49.561000" id="path30" style="fill:#68a0f2;fill-rule:evenodd"/>
  <path d="M 131.88800,53.729000 C 131.88800,47.529000 119.66000,49.568000 116.00200,49.568000 C 105.41100,49.568000 94.817000,49.568000 84.225000,49.568000 C 75.413000,49.568000 66.602000,49.568000 57.791000,49.568000 C 55.677000,49.568000 53.118000,49.196000 51.465000,50.848000 C 50.159000,52.154000 48.854000,61.278000 50.184000,62.461000 C 52.049000,64.119000 62.941000,62.461000 65.322000,62.461000 C 75.930000,62.461000 86.537000,62.461000 97.143000,62.461000 C 106.51500,62.461000 115.88600,62.461000 125.25600,62.461000 C 127.35700,62.461000 129.45300,62.461000 131.55200,62.461000 C 132.30700,62.461000 131.88800,54.914000 131.88800,53.729000" id="path32" style="fill:#7fb5f7;fill-rule:evenodd"/>
  <path d="M 130.72800,50.844000 C 137.25400,50.015000 134.77100,66.133000 134.77100,69.574000 C 134.77100,81.519000 134.77100,93.464000 134.77100,105.40900 C 134.77100,109.93300 136.80800,119.05500 130.28800,119.05500 C 121.20900,119.05500 112.13000,119.05500 103.05300,119.05500 C 91.003000,119.05500 78.953000,119.05500 66.904000,119.05500 C 63.439000,119.05500 51.463000,121.14300 51.463000,115.45800 C 51.463000,97.695000 51.463000,79.931000 51.463000,62.169000 C 51.463000,59.529000 50.195000,52.913000 53.001000,51.268000 C 54.405000,50.444000 56.849000,50.844000 58.361000,50.844000 C 66.728000,50.844000 75.095000,50.844000 83.464000,50.844000 C 99.218000,50.844000 114.97400,50.844000 130.72800,50.844000 M 131.68800,48.276000 C 112.64500,48.276000 93.601000,48.276000 74.558000,48.276000 C 68.314000,48.276000 60.719000,47.073000 54.561000,48.276000 C 45.576000,48.276000 48.893000,67.902000 48.893000,73.421000 C 48.893000,82.989000 48.893000,92.559000 48.893000,102.12900 C 48.893000,107.85700 46.253000,121.62500 55.196000,121.62500 C 75.775000,121.62500 96.356000,121.62500 116.93400,121.62500 C 121.40700,121.62500 131.02000,123.47000 135.02400,120.53400 C 139.54800,117.21400 137.34000,104.94700 137.34000,100.34200 C 137.34000,89.215000 137.34000,78.087000 137.34000,66.958000 C 137.34000,62.060000 139.71300,48.276000 131.68800,48.276000" id="path39" style="fill:url(#XMLID_14_)"/>
  <path d="M 128.47900,68.867000 C 128.47900,71.275000 56.534000,71.273000 56.534000,68.867000 C 56.534000,66.460000 128.47900,66.460000 128.47900,68.867000" id="path41" style="fill:#c6c6c6"/>
  <path d="M 56.534000,113.86200 C 53.988000,113.86200 53.988000,68.867000 56.534000,68.867000 C 59.077000,68.867000 59.077000,113.86200 56.534000,113.86200" id="path43" style="fill:#c6c6c6"/>
  <path d="M 54.845000,112.27000 C 54.845000,109.86200 128.82300,109.86200 128.82300,112.27000 C 128.82300,114.67700 54.845000,114.67700 54.845000,112.27000" id="path45" style="fill:#ffffff"/>
  <path d="M 128.82300,67.274000 C 131.44100,67.274000 131.44100,112.26900 128.82300,112.26900 C 126.21100,112.27000 126.21100,67.274000 128.82300,67.274000" id="path47" style="fill:#ffffff"/>
  <path d="M 134.54900,53.234000 C 134.54900,53.613000 53.069000,53.613000 53.069000,53.234000 C 53.069000,50.105000 134.54900,50.105000 134.54900,53.234000" id="path49" style="fill:#7ed8fc;fill-rule:evenodd"/>
  <path d="M 86.495000,40.918000 C 80.671000,40.918000 82.347000,42.461000 82.205000,48.276000 C 88.072000,48.276000 86.495000,46.498000 86.495000,40.918000" id="path56" style="fill:url(#XMLID_15_)"/>
  <path d="M 43.556000,62.396000 C 42.493000,62.396000 36.928000,61.933000 36.928000,62.912000 C 36.928000,66.458000 37.727000,65.580000 41.310000,65.590000 C 42.540000,65.594000 48.893000,66.071000 48.893000,65.082000 C 48.893000,61.189000 47.368000,62.396000 43.556000,62.396000" id="path94" style="fill:url(#XMLID_19_)"/>
  <path d="M 82.286000,40.918000 C 77.015000,39.801000 78.790000,44.389000 78.886000,48.276000 C 82.489000,52.445000 82.286000,41.729000 82.286000,40.918000" id="path101" style="fill:url(#XMLID_20_)"/>
</svg>
