<?xml version="1.0" encoding="UTF-8" standalone="no"?>
<!-- Generator: Adobe Illustrator 12.0.0, SVG Export Plug-In . SVG Version: 6.00 Build 51448)  --><svg height="236.028" id="Layer_1" inkscape:version="0.40+cvs" sodipodi:docbase="F:\openclip\svg2" sodipodi:docname="Lana.svg" sodipodi:version="0.32" style="overflow:visible;enable-background:new 0 0 272.14 236.028;" version="1.0" viewBox="0 0 272.14 236.028" width="272.14" xml:space="preserve" xmlns="http://www.w3.org/2000/svg" xmlns:cc="http://web.resource.org/cc/" xmlns:dc="http://purl.org/dc/elements/1.1/" xmlns:inkscape="http://www.inkscape.org/namespaces/inkscape" xmlns:rdf="http://www.w3.org/1999/02/22-rdf-syntax-ns#" xmlns:sodipodi="http://inkscape.sourceforge.net/DTD/sodipodi-0.dtd" xmlns:svg="http://www.w3.org/2000/svg" xmlns:xml="http://www.w3.org/XML/1998/namespace"><metadata><rdf:RDF xmlns:cc="http://web.resource.org/cc/" xmlns:dc="http://purl.org/dc/elements/1.1/" xmlns:rdf="http://www.w3.org/1999/02/22-rdf-syntax-ns#"><cc:Work rdf:about=""><dc:title>Lana</dc:title><dc:description></dc:description><dc:subject><rdf:Bag><rdf:li>unsorted</rdf:li></rdf:Bag></dc:subject><dc:publisher><cc:Agent rdf:about="http://www.openclipart.org"><dc:title>Architetto Francesco Rollandin</dc:title></cc:Agent></dc:publisher><dc:creator><cc:Agent><dc:title>Architetto Francesco Rollandin</dc:title></cc:Agent></dc:creator><dc:rights><cc:Agent><dc:title>Architetto Francesco Rollandin</dc:title></cc:Agent></dc:rights><dc:date></dc:date><dc:format>image/svg+xml</dc:format><dc:type rdf:resource="http://purl.org/dc/dcmitype/StillImage"/><cc:license rdf:resource="http://web.resource.org/cc/PublicDomain"/><dc:language>en</dc:language></cc:Work><cc:License rdf:about="http://web.resource.org/cc/PublicDomain"><cc:permits rdf:resource="http://web.resource.org/cc/Reproduction"/><cc:permits rdf:resource="http://web.resource.org/cc/Distribution"/><cc:permits rdf:resource="http://web.resource.org/cc/DerivativeWorks"/></cc:License></rdf:RDF></metadata>
<defs id="defs88"></defs>
<sodipodi:namedview bordercolor="#666666" borderopacity="1.0" id="base" inkscape:current-layer="Layer_1" inkscape:cx="136.07001" inkscape:cy="118.01400" inkscape:pageopacity="0.0" inkscape:pageshadow="2" inkscape:window-height="540" inkscape:window-width="640" inkscape:window-x="22" inkscape:window-y="22" inkscape:zoom="1.6015049" pagecolor="#ffffff"></sodipodi:namedview>

<g id="g3">
	<path d="M264.022,18.327c-16.047-11.568-41.9-13.155-54.826,3.716c-12.907,16.849-5.959,38.873-0.267,57.205   c4.275,13.771-0.098,28.556-11.982,37.374c-7.806,5.792-26.435,12.076-33.657,1.725c12.419-7.086,29.15-12.417,33.24-28.543   c2.341-9.231-11.928-34.896-19.089-21.051c20.227-6.806,17.748,22.438,10.2,31.754c-8.853,10.921-23.84,16.03-36.096,17.215   c-5.07,0.491-16.534-1.684-13.231-8.355c9.901,18.665,41.208-3.021,47.87-13.557c10.755-17.011-11.344-29.709-13.321-16.115   c4.182-4.982,9.746-5.688,13.559,0.06c5.668,8.546-4.259,18.814-10.05,23.905c-6.078,5.342-14.476,10.037-22.895,8.92   c0.22-7.524,1.989-16.687,5.413-24.5c4.376-9.99,16.131-13.423,19.502-21.704c-18.282,6.555-22.05,22.654-27.411,39.366   c-0.323,1.003,0.731,6.028-0.12,6.6c-3.485,2.342-10.189-2.2-11.715-5.113c-1.262-2.412-0.621-12.893-1.664-17.066   c-1.697-6.786-2.463-14.501-7.284-19.89c-7.245-8.096-5.098-6.753,1.159-15.372c2.878-3.967,4.639-8.586,7.432-12.546   c0.753-1.067,2.024-5.25,2.914-5.769c2.836-1.656,4.648,1.725,6.66,0.833c24.064-10.671-9.039-35.101-14.985-18.732   c-2.063,5.679,2.848,6.989,2.082,11.18c-0.871,4.76-8.52,10.494-11.566,14.034c-4.594,5.335-11.276,20.31-18.939,8.623   c-3.029-4.619,1.863-12.984,3.508-19.564c0.766-3.067,1.081-9.518,3.033-12.011c1.949-2.491,5.076-0.777,7.016-3.45   c11.45-15.771-25.632-27.573-19.861-4.816c0.408,1.61,3.693,2.532,4.281,4.46c0.569,1.871-1.114,7.609-1.605,9.99   c-0.713,3.449-2.36,13.028-4.698,15.818c-2.546,3.039,0.758,4.887-4.785,1.695c-4.224-2.431-10.254-1.855-14.898-1.1   c-8.457,1.375-19.078,2.983-26.758,7.611C31.996,62.113,18.442,83.49,24.232,105.829c2.016,7.785,5.952,14.802,10.733,21.14   c2.739,3.632,12.309,7.669,13.677,9.93c0.692,0.237,1.346,0.556,1.961,0.952C34.94,160.342,9.812,179.037,0,204.748   c13.454-4.848,58.416-71.549,71.12-58.573c4.907,5.012-2.486,35.448-3.025,39.317c-2.236,16.079-7.54,34.693-6.834,50.475   c0.043,0.996,3.981-10.447,3.794-9.336c1.884-11.159,5.536-22.225,7.702-33.449c1.307-6.771,2.855-13.307,4.666-20.247   c1.34-5.126,1.72-18.673,5.353-22.597c2.383-2.571,15.483-4.792,20.038-6.064c12.374-3.459,17.919-9.207,27.028-19.356   c8.262-9.207,3.612-8.769,14.777-5.679c7.568,2.095,7.058,2.938,13.26,6.185c12.89,6.742,29.238,8.124,42.221,0.772   c22.835-12.932,21.225-45.787,14.183-66.926c-5.413-16.245-4.89-41.479,18.314-42.339c6.051-0.225,11.66,0.202,17.273,2.765   c4.993,2.278,17.836,20.216,21.943,12.606C273.726,28.755,266.761,19.97,264.022,18.327" id="path5"></path>

	<path d="M162.874,89.089c-1.325,2.101-11.144,23.626-4.639,23.489c1.318-0.028,1.841-12.457,3.152-15.491   c3.439-7.958,11.052-14.32,13.556-22.388C169.644,78.268,166.321,84.078,162.874,89.089" id="path7"></path>

	<path d="M180.951,72.795c16.755,4.573,6.919,22.532-0.654,30.328c-7.623,7.846-34.062,21.174-41.982,6.243   c-3.303,6.671,8.161,8.846,13.231,8.355c13.026-1.26,28.633-6.947,37.492-18.939c4.958-6.711,7.481-15.569,3.33-23.25   c-3.789-7.014-15.858-12.29-17.425-0.833C176.902,73.541,179.073,73.605,180.951,72.795" id="path9" style="fill:#40F200;"></path>

	<path d="M176.965,69.228c-16.692,7.235-23.024,27.466-23.488,43.35c1.104,0.334,3.451,0.28,4.58,0.059   C145.417,100.698,178.186,76.983,176.965,69.228" id="path11" style="fill:#40F200;"></path>

	<path d="M106.204,2.034c7.641-0.294,20.196,11.83,6.66,9.573C105.607,10.398,94.627-0.639,106.204,2.034" id="path13" style="fill:#DEDEDE;"></path>

	<path d="M107.988,12.856c3.484,1.308,7.206,1.623,10.525,1.13c-4.614,8.5-17.165-0.479-19.92-5.769   C101.269,10.546,104.494,12.135,107.988,12.856" id="path15" style="fill:#A3A3A3;"></path>

	<path d="M242.02,12.5c7.19,0.162,17.087,3.377,22.181,8.622c2.802,2.886,8.073,13.671-0.179,10.228   c-2.409-1.004-7.086-9.786-10.822-12.011c-4.034-2.404-8.098-3.567-12.547-4.223c-9.43-1.389-17.109,1.062-24.023,7.731   c-17.985,17.344,1.026,50.667-0.416,72.546c-1.061,16.067-13.586,34.375-31.754,33.805c-9.011-0.28-23.675-0.521-29.138-9.009   c5.496-2.424,15.038,5.354,22.002,5.056c17.687-0.758,33.51-14.28,35.796-32.171c2.659-20.784-16.012-40.899-6.48-62.497   C212.792,16.633,227.356,9.233,242.02,12.5" id="path17" style="fill:#40F200;"></path>

	<path d="M153.122,22.608c8.999,10.574-5.559,7.549-10.942,1.963   C130.678,12.633,145.806,12.311,153.122,22.608" id="path19" style="fill:#DEDEDE;"></path>

	<path d="M109.414,19.338c-1.375,10.733-5.152,21.01-8.622,31.1c-6.878-2.534,3.967-25.961,4.281-32.527   C106.38,18.401,108.321,18.755,109.414,19.338" id="path21" style="fill:#DEDEDE;"></path>

	<path d="M135.4,21.181c4.933,5.032,9.991,10.983,17.364,11.952C146.069,39.773,131.895,22.475,135.4,21.181" id="path23" style="fill:#A3A3A3;"></path>

	<path d="M140.872,33.788c-2.695,6.677-22.605,41.336-28.899,37.105   C105.306,66.413,134.31,29.78,140.872,33.788" id="path25" style="fill:#DEDEDE;"></path>

	<path d="M91.338,47.523c-8.854-2.556-19.365,1.06-27.533,2.914c-13.362,3.034-23.995,12.235-29.672,24.439   c-8.151,17.516-4.219,37.014,5.589,53.994c-13.778-16.312-19.95-42.681-6.244-61.485C43.118,54.162,75.958,37.92,91.338,47.523" id="path27" style="fill:#40F200;"></path>

	<path d="M94.25,50.438c-6.754,4.642-22.59,3.948-31.843,6.304C51.81,59.438,43.591,70.94,39.662,80.765   c-7.421,18.56-0.224,36.152,8.029,53.163c-14.864-3.479-17.255-43.951-12.666-56.018c5.925-15.581,17.641-21.244,31.754-24.201   C76.203,51.733,83.541,47.333,94.25,50.438" id="path29" style="fill:#40F200;"></path>

	<path d="M97.879,54.065c5.267-0.324,10.959,1.215,14.093,5.768C74.7,51.167,37.349,74.926,42.22,115.848   c-5.889-16.644-3.132-36.164,9.336-49.415C61.099,56.293,85.146,52.79,97.879,54.065" id="path31" style="fill:#40F200;"></path>

	<path d="M97.522,60.547c4.205-0.782,8.467-0.011,12.309,1.843c-23.475-4.072-45.008,7.975-56.461,27.83   c-7.329,12.701-3.537,26.416-1.753,39.722c-7.604-7.095-9.261-25.363-6.423-35.382C51.868,70.989,74.568,60.098,97.522,60.547" id="path33" style="fill:#40F200;"></path>

	<path d="M98.592,64.531c0.109,2.465-0.725,5.159-1.07,7.612c-2.085-2.095-3.259-4.761-3.983-7.612   C95.392,63.744,96.899,64.005,98.592,64.531" id="path35" style="fill:#00CC00;"></path>

	<path d="M102.576,63.817c1.187,10.173-0.76,21.668-1.843,32.229c-0.821,8.009-1.911,16.284-4.756,23.904   c-1.958,5.242-10.957,25.225-17.425,26.045c-6.823,0.866,0.83-8.47,2.202-10.524c4.307-6.454,8.25-11.772,11-18.613   c5.763-14.329,4.626-32.288,8.801-47.75C101.196,66.732,101.604,64.991,102.576,63.817" id="path37" style="fill:#40F200;"></path>

	<path d="M107.988,64.888c-2.363,17.723-1.029,33.44-5.352,51.853c-2.205,9.39-9.601,16.562-12.071,24.797   c-3.043,10.145,6.046-4.39,8.443-7.255c-2.951,9.948-6.5,13.746-16.293,11.536c18.355-24.622,22.776-51.27,22.776-81.645   C106.332,64.306,107.183,64.772,107.988,64.888" id="path39" style="fill:#00CC00;"></path>

	<path d="M91.041,65.245c1.556,5.55,7.358,9.443,5.054,15.223C92.372,78.019,84.341,67.432,91.041,65.245" id="path41" style="fill:#00CC00;"></path>

	<path d="M85.926,67.028c-0.944,7.857,14.134,17.301,9.098,23.964C90.115,97.49,71.708,67.504,85.926,67.028" id="path43" style="fill:#00CC00;"></path>

	<path d="M115.183,99.912c-1.999,9.377-5.502,18.375-7.195,27.83c2.672-17.132,1.623-47.021,13.736-59.94   C119.903,78.521,118.082,89.634,115.183,99.912" id="path45" style="fill:#00CC00;"></path>

	<path d="M127.849,72.499c-5.913,22.389-6.452,51.302-22.002,69.693c2.251-14.315,9.221-29.848,12.666-44.421   c1.689-7.144,1.408-18.894,4.638-24.976C125.148,69.036,125.638,66.492,127.849,72.499" id="path47" style="fill:#40F200;"></path>

	<path d="M78.314,69.584c-1.612,8.02,4.586,18.965,11.12,23.489c5.124,3.548,6.546,7.809-1.129,4.223   C82.449,94.56,66.205,72.213,78.314,69.584" id="path49" style="fill:#00CC00;"></path>

	<path d="M71.12,73.213c1.384,6.981,3.439,14.262,8.207,19.742c4.011,4.613,14.192,7.545,12.785,13.855   C85.559,104.292,54.492,78.176,71.12,73.213" id="path51" style="fill:#00CC00;"></path>

	<path d="M114.825,74.283c-0.621,6.336-2.527,12.537-4.281,18.434   C110.158,87.555,110.349,75.742,114.825,74.283" id="path53" style="fill:#00CC00;"></path>

	<path d="M133.26,83.321c-8.647,16.376-5.67,36.164-19.505,50.962c5.021-20.318,11.895-39.353,15.937-60   C131.509,76.916,132.733,80.06,133.26,83.321" id="path55" style="fill:#40F200;"></path>

	<path d="M64.994,80.051c0.191,13.52,29.613,27.522,24.619,35.44c-11.165-1.213-27.94-16.263-29.317-28.186   C59.818,83.163,61.373,76.497,64.994,80.051" id="path57" style="fill:#00CC00;"></path>

	<path d="M71.833,109.307c5.18,4.095,9.875,8.178,16.65,8.742c-4.221,9.579-42.351-16.727-31.04-31.101   C61.009,95.03,66.468,102.683,71.833,109.307" id="path59" style="fill:#00CC00;"></path>

	<path d="M134.687,96.642c-4.25,16.625-7.633,28.187-19.802,40.494c11.785-13.11,18.104-32.722,19.088-50.187   C135.806,90.098,136.096,93.639,134.687,96.642" id="path61" style="fill:#40F200;"></path>

	<path d="M110.544,94.5C109.899,96.575,110.027,96.157,110.544,94.5" id="path63" style="fill:#00CC00;"></path>

	<path d="M59.227,106.454c7.44,7.553,15.422,14.928,26.045,17.363c-3.779,7.774-40.553-12.822-31.813-26.045   C55.198,100.784,57.126,103.685,59.227,106.454" id="path65" style="fill:#00CC00;"></path>

	<path d="M136.114,107.88c-1.237,3.665-2.368,8.216-4.638,10.466c2.922-6.495,4.954-13.415,5.055-20.575   C137.752,101.128,137.62,104.756,136.114,107.88" id="path67" style="fill:#40F200;"></path>

	<path d="M108.344,105.74c-1.648,11.717-0.693,28.826-9.751,37.581   C103.16,131.047,104.526,117.734,108.344,105.74" id="path69" style="fill:#00CC00;"></path>

	<path d="M62.438,118.346c5.244,4.853,12.384,8.712,19.207,11.238c-5.262,7.832-32.699-10.208-30.028-20.218   C54.672,112.958,58.326,116.381,62.438,118.346" id="path71" style="fill:#00CC00;"></path>

	<path d="M57.8,123.757c5.885,4.06,13.455,9.917,20.217,10.88c-5.587,3.547-25.161-6.006-24.915-14.449   C54.414,121.938,56.454,122.583,57.8,123.757" id="path73" style="fill:#00CC00;"></path>

	<path d="M68.979,136.422c2.174,0.623,4.482,1.331,6.481,2.141c-6.17-0.701-21.063-2.93-20.933-10.405   C58.771,131.8,63.723,134.527,68.979,136.422" id="path75" style="fill:#00CC00;"></path>

	<path d="M52.329,133.154C52.874,133.169,51.01,133.109,52.329,133.154" id="path77" style="fill:#00CC00;"></path>

	<path d="M73.676,141.121c-3.535,5.903-19.634,1.01-18.016-6.124   C61.106,138.654,67.625,138.984,73.676,141.121" id="path79" style="fill:#00CC00;"></path>

	<path d="M114.112,138.208c-1.391,1.429-1.68,2.592-3.568,3.269   C111.701,140.41,113.127,139.246,114.112,138.208" id="path81" style="fill:#00CC00;"></path>

	<path d="M58.098,144.332c-16.316,18.75-33.803,39.705-53.4,54.945c2.992-7.216,10.306-14.838,15.58-21.229   C26.429,170.591,50.14,132.743,58.098,144.332" id="path83" style="fill:#DEDEDE;"></path>

	<path d="M81.229,148.672c-4.938,19.726-11.029,39.456-13.677,59.645c1.281-19.813,7.756-41.315,6.124-61.071   C76.073,147.692,79.068,147.819,81.229,148.672" id="path85" style="fill:#DEDEDE;"></path>

</g>


  
</svg>
