<?xml version="1.0" encoding="UTF-8" standalone="no"?>
<!DOCTYPE svg PUBLIC "-//W3C//DTD SVG 1.0//EN"
"http://www.w3.org/TR/2001/REC-SVG-20010904/DTD/svg10.dtd">
<!-- Created with Inkscape (http://www.inkscape.org/) --><svg height="182.50000" id="svg6730" version="1.0" width="295.00000" x="0.0000000" xmlns="http://www.w3.org/2000/svg" xmlns:xlink="http://www.w3.org/1999/xlink" y="0.0000000">
  <metadata>
    <rdf:RDF xmlns:cc="http://web.resource.org/cc/" xmlns:dc="http://purl.org/dc/elements/1.1/" xmlns:rdf="http://www.w3.org/1999/02/22-rdf-syntax-ns#">
      <cc:Work rdf:about="">
        <dc:title>Wooden Table</dc:title>
        <dc:description></dc:description>
        <dc:subject>
          <rdf:Bag>
            <rdf:li>office</rdf:li>
            <rdf:li>house</rdf:li>
            <rdf:li></rdf:li>
            <rdf:li>meeting</rdf:li>
            <rdf:li>study</rdf:li>
          </rdf:Bag>
        </dc:subject>
        <dc:publisher>
          <cc:Agent rdf:about="http://www.openclipart.org">
            <dc:title>Benji Park</dc:title>
          </cc:Agent>
        </dc:publisher>
        <dc:creator>
          <cc:Agent>
            <dc:title>Benji Park</dc:title>
          </cc:Agent>
        </dc:creator>
        <dc:rights>
          <cc:Agent>
            <dc:title>Benji Park</dc:title>
          </cc:Agent>
        </dc:rights>
        <dc:date></dc:date>
        <dc:format>image/svg+xml</dc:format>
        <dc:type rdf:resource="http://purl.org/dc/dcmitype/StillImage"/>
        <cc:license rdf:resource="http://web.resource.org/cc/PublicDomain"/>
        <dc:language>en</dc:language>
      </cc:Work>
      <cc:License rdf:about="http://web.resource.org/cc/PublicDomain">
        <cc:permits rdf:resource="http://web.resource.org/cc/Reproduction"/>
        <cc:permits rdf:resource="http://web.resource.org/cc/Distribution"/>
        <cc:permits rdf:resource="http://web.resource.org/cc/DerivativeWorks"/>
      </cc:License>
    </rdf:RDF>
  </metadata>
  <defs id="defs3">
    <linearGradient id="linearGradient7629">
      <stop id="stop7630" offset="0.0000000" style="stop-color:#000000;stop-opacity:1.0000000;"/>
      <stop id="stop7631" offset="1.0000000" style="stop-color:#806f37;stop-opacity:0.0000000;"/>
    </linearGradient>
    <linearGradient id="linearGradient7620">
      <stop id="stop7621" offset="0.0000000" style="stop-color:#fafafa;stop-opacity:1.0000000;"/>
      <stop id="stop7622" offset="1.0000000" style="stop-color:#806f37;stop-opacity:0.0000000;"/>
    </linearGradient>
    <linearGradient id="linearGradient3567">
      <stop id="stop3568" offset="0.0000000" style="stop-color:#806f37;stop-opacity:1.0000000;"/>
      <stop id="stop3569" offset="1.0000000" style="stop-color:#bea451;stop-opacity:1.0000000;"/>
    </linearGradient>
    <linearGradient id="linearGradient1683">
      <stop id="stop1684" offset="0.0000000" style="stop-color:#806f37;stop-opacity:1.0000000;"/>
      <stop id="stop1685" offset="1.0000000" style="stop-color:#574b25;stop-opacity:1.0000000;"/>
    </linearGradient>
    <linearGradient gradientTransform="matrix(0.622445,0.000000,0.000000,8.356201,-348.1601,-853.6597)" gradientUnits="userSpaceOnUse" id="linearGradient6820" x1="836.71027" x2="873.07379" xlink:href="#linearGradient1683" y1="143.25517" y2="143.25517"/>
    <linearGradient gradientTransform="matrix(0.710673,0.000000,0.000000,7.318814,-347.9715,-853.4362)" gradientUnits="userSpaceOnUse" id="linearGradient6821" x1="797.59869" x2="756.83038" xlink:href="#linearGradient1683" y1="166.33847" y2="166.33847"/>
    <linearGradient gradientTransform="matrix(0.552759,0.000000,0.000000,7.832425,75.80908,-946.7019)" gradientUnits="userSpaceOnUse" id="linearGradient6822" x1="836.71027" x2="873.07379" xlink:href="#linearGradient1683" y1="143.25517" y2="143.25517"/>
    <linearGradient gradientTransform="matrix(0.631110,0.000000,0.000000,6.860064,76.18612,-946.4791)" gradientUnits="userSpaceOnUse" id="linearGradient6823" x1="797.59869" x2="756.83038" xlink:href="#linearGradient1683" y1="166.33847" y2="166.33847"/>
    <linearGradient gradientTransform="matrix(0.566697,0.000000,0.000000,8.019488,247.7094,-881.4103)" gradientUnits="userSpaceOnUse" id="linearGradient6824" x1="836.71027" x2="873.07379" xlink:href="#linearGradient1683" y1="143.25517" y2="143.25517"/>
    <linearGradient gradientTransform="matrix(0.647024,0.000000,0.000000,7.023902,248.0864,-881.1872)" gradientUnits="userSpaceOnUse" id="linearGradient6825" x1="797.59869" x2="756.83038" xlink:href="#linearGradient1683" y1="166.33847" y2="166.33847"/>
    <linearGradient gradientTransform="matrix(5.509610,0.000000,0.000000,0.944038,-351.0150,-850.8716)" gradientUnits="userSpaceOnUse" id="linearGradient6826" x1="146.81941" x2="178.20555" xlink:href="#linearGradient3567" y1="1031.0886" y2="1173.4955"/>
    <linearGradient gradientTransform="matrix(0.217032,0.000000,0.000000,3.071279,-174.5383,-354.3385)" gradientUnits="userSpaceOnUse" id="linearGradient6827" x1="836.71027" x2="873.07379" xlink:href="#linearGradient1683" y1="143.25517" y2="143.25517"/>
    <linearGradient gradientTransform="matrix(0.647024,0.000000,0.000000,7.023902,-440.8130,-905.6238)" gradientUnits="userSpaceOnUse" id="linearGradient6828" x1="797.59869" x2="756.83038" xlink:href="#linearGradient1683" y1="166.33847" y2="166.33847"/>
    <linearGradient gradientTransform="matrix(2.618962,0.000000,0.000000,1.986009,-350.8265,-852.5542)" gradientUnits="userSpaceOnUse" id="linearGradient6829" x1="145.42224" x2="203.38725" xlink:href="#linearGradient3567" y1="542.16077" y2="487.13840"/>
    <linearGradient gradientTransform="matrix(1.709332,0.000000,0.000000,0.446303,-139.8590,-333.7116)" gradientUnits="userSpaceOnUse" id="linearGradient6830" x1="84.413170" x2="252.18118" xlink:href="#linearGradient1683" y1="839.42731" y2="839.42731"/>
    <linearGradient gradientTransform="scale(1.428104,0.700229)" gradientUnits="userSpaceOnUse" id="linearGradient7638" x1="19.275436" x2="69.608887" xlink:href="#linearGradient7620" y1="35.867783" y2="74.922035"/>
    <linearGradient gradientTransform="scale(0.687354,1.454854)" gradientUnits="userSpaceOnUse" id="linearGradient8264" x1="315.93640" x2="297.27240" xlink:href="#linearGradient7629" y1="40.627071" y2="67.240555"/>
    <linearGradient gradientTransform="scale(0.595437,1.679438)" gradientUnits="userSpaceOnUse" id="linearGradient8280" x1="453.01620" x2="489.24042" xlink:href="#linearGradient7629" y1="33.946224" y2="58.541878"/>
    <linearGradient gradientTransform="matrix(0.767323,0.000000,0.000000,1.303232,0.000000,0.998287)" gradientUnits="userSpaceOnUse" id="linearGradient8907" x1="97.389099" x2="90.161324" xlink:href="#linearGradient7629" y1="58.940880" y2="78.716057"/>
    <linearGradient gradientTransform="scale(0.607074,1.647245)" gradientUnits="userSpaceOnUse" id="linearGradient8912" x1="35.831303" x2="12.328104" xlink:href="#linearGradient7629" y1="24.862659" y2="48.069080"/>
  </defs>
  <g id="layer1">
    <path d="M 172.97386,205.85427 L 172.97386,472.94173 L 193.33656,487.23405 L 193.33656,211.21389 L 172.97386,205.85427 z " id="path1689" style="fill:url(#linearGradient6820);fill-opacity:1.0000000;fill-rule:evenodd;stroke:#000000;stroke-width:0.57015767pt;stroke-linecap:butt;stroke-linejoin:miter;stroke-opacity:1.0000000" transform="matrix(0.382977,0.000000,0.000000,0.382977,-5.571804,-7.505396)"/>
    <path d="M 193.74599,213.33212 L 193.43361,487.24994 L 220.14206,482.42947 L 220.14206,209.75906 L 193.74599,213.33212 z " id="path2315" style="fill:url(#linearGradient6821);fill-opacity:1.0000000;fill-rule:evenodd;stroke:#000000;stroke-width:0.57015767pt;stroke-linecap:butt;stroke-linejoin:miter;stroke-opacity:1.0000000" transform="matrix(0.382977,0.000000,0.000000,0.382977,-5.571804,-7.505396)"/>
    <path d="M 538.60094,46.400026 L 538.78948,297.41609 L 556.68396,310.14261 L 556.68396,51.423706 L 538.60094,46.400026 z " id="path4821" style="fill:url(#linearGradient6822);fill-opacity:1.0000000;fill-rule:evenodd;stroke:#000000;stroke-width:0.52018366pt;stroke-linecap:butt;stroke-linejoin:miter;stroke-opacity:1.0000000" transform="matrix(0.382977,0.000000,0.000000,0.382977,-5.571804,-7.505396)"/>
    <path d="M 557.25722,53.423162 L 556.97981,310.17150 L 580.69818,305.83515 L 580.69818,50.074066 L 557.25722,53.423162 z " id="path4822" style="fill:url(#linearGradient6823);fill-opacity:1.0000000;fill-rule:evenodd;stroke:#000000;stroke-width:0.52018366pt;stroke-linecap:butt;stroke-linejoin:miter;stroke-opacity:1.0000000" transform="matrix(0.382977,0.000000,0.000000,0.382977,-5.571804,-7.505396)"/>
    <path d="M 722.16912,135.41050 L 722.16912,392.40563 L 740.70809,405.45207 L 740.70809,140.55415 L 722.16912,135.41050 z " id="path4825" style="fill:url(#linearGradient6824);fill-opacity:1.0000000;fill-rule:evenodd;stroke:#000000;stroke-width:0.53295307pt;stroke-linecap:butt;stroke-linejoin:miter;stroke-opacity:1.0000000" transform="matrix(0.382977,0.000000,0.000000,0.382977,-5.571804,-7.505396)"/>
    <path d="M 741.28630,142.59604 L 741.00190,405.47633 L 765.31829,400.96709 L 765.31829,139.16693 L 741.28630,142.59604 z " id="path4826" style="fill:url(#linearGradient6825);fill-opacity:1.0000000;fill-rule:evenodd;stroke:#000000;stroke-width:0.53295307pt;stroke-linecap:butt;stroke-linejoin:miter;stroke-opacity:1.0000000" transform="matrix(0.382977,0.000000,0.000000,0.382977,-5.571804,-7.505396)"/>
    <path d="M 201.08349,59.995943 L 200.94088,69.265750 C 200.94088,69.265750 200.37043,67.697013 202.65223,65.985664 C 204.93403,64.274315 202.36700,77.679882 202.36700,77.679882 C 202.36700,77.679882 205.07664,67.411788 205.93231,70.691874 C 206.78799,73.971959 207.50105,85.808789 207.50105,85.808789 C 207.50105,85.808789 210.92375,74.685021 212.49248,78.535556 C 214.06122,82.386091 216.77086,92.796797 216.77086,92.796797 L 216.91347,58.855044 L 201.08349,59.995943 z " id="path7639" style="opacity:0.80000001;fill:url(#linearGradient8264);fill-opacity:1.0000000;fill-rule:evenodd;stroke:#000000;stroke-width:0.0000000;stroke-linecap:butt;stroke-linejoin:miter;stroke-miterlimit:4.0000000;stroke-opacity:1.0000000"/>
    <path d="M 270.96357,50.440912 L 271.10618,96.932553 C 271.24879,96.932553 271.67664,89.374099 273.38798,89.516712 C 275.24194,89.088875 277.66635,90.800224 277.66635,90.942836 C 277.66635,90.942836 271.96185,77.252045 274.95671,78.250331 C 277.80897,79.248618 280.66121,82.100867 280.37598,81.958254 C 280.51859,81.958254 276.24023,63.703866 279.09248,65.557827 C 281.94473,67.411788 282.51518,71.119711 282.94301,71.547549 C 283.51347,71.119711 281.08905,62.562967 282.80040,61.707292 C 284.79698,60.851617 287.22139,69.978812 287.22139,69.978812 L 287.64922,48.159114 L 270.96357,50.440912 z " id="path8276" style="opacity:0.49765256;fill:url(#linearGradient8280);fill-opacity:1.0000000;fill-rule:evenodd;stroke:#000000;stroke-width:0.0000000;stroke-linecap:butt;stroke-linejoin:miter;stroke-miterlimit:4.0000000;stroke-opacity:1.0000000"/>
    <path d="M 60.895497,76.681595 L 60.752885,82.956541 C 60.752885,82.956541 60.895497,80.532130 63.034683,81.530417 C 65.173870,82.528704 68.596567,90.087161 68.596567,90.087161 C 68.596567,90.087161 69.167017,84.097440 70.735753,86.521851 C 72.304490,88.946262 72.447102,95.791657 72.447102,95.791657 C 72.447102,95.791657 74.871513,84.667889 76.297637,90.657610 C 77.723761,96.647331 78.722048,107.20065 78.722048,107.20065 L 78.722048,79.676455 L 68.596567,81.245192 L 60.895497,76.681595 z " id="path8282" style="opacity:0.59999979;fill:url(#linearGradient8907);fill-opacity:1.0000000;fill-rule:evenodd;stroke:#000000;stroke-width:0.0000000;stroke-linecap:butt;stroke-linejoin:miter;stroke-miterlimit:4.0000000;stroke-opacity:1.0000000"/>
    <path d="M 190.79871,224.37223 L 190.79871,236.05752 L 775.27495,147.94420 L 775.27495,136.57474 L 190.92257,224.25728" id="path2941" style="fill:url(#linearGradient6826);fill-opacity:1.0000000;fill-rule:evenodd;stroke:#000000;stroke-width:0.57015767pt;stroke-linecap:butt;stroke-linejoin:miter;stroke-opacity:1.0000000" transform="matrix(0.382977,0.000000,0.000000,0.382977,-5.571804,-7.505396)"/>
    <path d="M 7.1688562,35.080532 L 7.2410612,133.58928 L 14.268857,138.50025 L 14.268857,37.050432 L 7.1688562,35.080532 z " id="path5455" style="fill:url(#linearGradient6827);fill-opacity:1.0000000;fill-rule:evenodd;stroke:#000000;stroke-width:0.20410876pt;stroke-linecap:butt;stroke-linejoin:miter;stroke-opacity:1.0000000"/>
    <path d="M 52.386956,118.15931 L 52.102542,381.03960 L 76.230405,376.30705 L 76.418952,114.73022 L 52.386956,118.15931 z " id="path5456" style="fill:url(#linearGradient6828);fill-opacity:1.0000000;fill-rule:evenodd;stroke:#000000;stroke-width:0.53295307pt;stroke-linecap:butt;stroke-linejoin:miter;stroke-opacity:1.0000000" transform="matrix(0.382977,0.000000,0.000000,0.382977,-5.571804,-7.505396)"/>
    <path d="M 7.1597962,38.295655 L 7.1597962,44.447029 C 7.1597962,44.447029 8.5715869,42.732712 9.9833777,44.043660 C 11.395169,45.354609 10.716710,50.560831 10.716710,50.560831 C 10.716710,50.560831 12.307677,47.500975 13.648300,47.848227 C 15.046014,48.210264 16.212152,51.981611 16.176522,53.106355 C 16.145473,54.219006 14.924645,64.413785 14.924645,64.413785 C 14.924645,64.413785 16.934323,59.522683 18.245271,59.926052 C 19.556220,60.329421 15.549969,72.419120 15.449127,72.519962 C 15.557504,72.487721 18.287042,66.946204 19.497148,69.769785 C 20.707255,72.593367 16.912823,80.392821 16.954593,80.392821 C 17.097206,80.493663 19.935120,75.569697 20.842700,77.183172 C 21.750280,78.796647 23.270080,94.294202 23.270080,94.294202 L 23.697917,50.396719 L 7.1597962,38.295655 z " id="path8908" style="opacity:0.49999991;fill:url(#linearGradient8912);fill-opacity:1.0000000;fill-rule:evenodd;stroke:#000000;stroke-width:0.0000000;stroke-linecap:butt;stroke-linejoin:miter;stroke-miterlimit:4.0000000;stroke-opacity:1.0000000"/>
    <path d="M 190.64727,235.88718 L 24.531080,119.02681 L 24.397749,109.33168 L 190.67015,224.37841 L 190.64727,235.88718 z " id="path4191" style="fill:url(#linearGradient6829);fill-opacity:1.0000000;fill-rule:evenodd;stroke:#000000;stroke-width:0.57015767pt;stroke-linecap:butt;stroke-linejoin:miter;stroke-opacity:1.0000000" transform="matrix(0.382977,0.000000,0.000000,0.382977,-5.571804,-7.505396)"/>
    <path d="M 3.8345183,34.426599 L 67.521784,78.215595 L 291.65473,44.689639 L 210.78202,3.6374558 L 3.8345183,34.426599 z " id="path4829" style="fill:url(#linearGradient6830);fill-opacity:1.0000000;fill-rule:evenodd;stroke:#000000;stroke-width:0.60048246;stroke-linecap:butt;stroke-linejoin:round;stroke-miterlimit:4.0000000;stroke-opacity:1.0000000"/>
    <path d="M 51.227837,66.329786 C 51.429522,66.531470 3.8320039,34.261967 3.8320035,34.261967 C 3.8320037,34.261967 19.160017,32.648492 26.420656,31.035017 C 33.681294,29.421542 96.808511,18.127215 99.632093,20.144059 C 102.45568,22.160903 82.287235,30.429963 82.287235,30.429963 C 82.287235,30.429963 75.026596,28.413120 70.186170,31.640070 C 65.345745,34.867020 66.152483,40.514183 66.152483,40.514183 C 66.152483,40.514183 60.505320,34.060283 53.244682,35.270389 C 45.984043,36.480496 58.085107,44.951240 58.085107,44.951240 C 58.085107,44.951240 43.967199,36.480496 37.109930,40.917552 C 30.252660,45.354609 51.429522,65.926417 51.227837,66.329786 z " id="path7634" style="opacity:0.23474176;fill:url(#linearGradient7638);fill-opacity:1.0000000;fill-rule:evenodd;stroke:#000000;stroke-width:0.0000000;stroke-linecap:butt;stroke-linejoin:miter;stroke-miterlimit:4.0000000;stroke-opacity:1.0000000"/>
  </g>
</svg>
