<?xml version="1.0"?>
<!DOCTYPE svg PUBLIC "-//W3C//DTD SVG 1.0//EN"
	"http://www.w3.org/TR/2001/REC-SVG-20010904/DTD/svg10.dtd">
<svg height="100" version="1.0" width="100" xmlns="http://www.w3.org/2000/svg">
  <metadata>
    <rdf:RDF xmlns:cc="http://web.resource.org/cc/" xmlns:dc="http://purl.org/dc/elements/1.1/" xmlns:rdf="http://www.w3.org/1999/02/22-rdf-syntax-ns#">
      <cc:Work rdf:about="">
        <dc:title>triangles byzantine 2 pattern</dc:title>
        <dc:description></dc:description>
        <dc:subject>
          <rdf:Bag>
            <rdf:li>pattern</rdf:li>
          </rdf:Bag>
        </dc:subject>
        <dc:publisher>
          <cc:Agent rdf:about="http://www.openclipart.org">
            <dc:title>Open Clip Art Library</dc:title>
          </cc:Agent>
        </dc:publisher>
        <dc:creator>
          <cc:Agent>
            <dc:title>Alan Horkan</dc:title>
          </cc:Agent>
        </dc:creator>
        <dc:rights>
          <cc:Agent>
            <dc:title>Alan Horkan</dc:title>
          </cc:Agent>
        </dc:rights>
        <dc:date></dc:date>
        <dc:format>image/svg+xml</dc:format>
        <dc:type rdf:resource="http://purl.org/dc/dcmitype/StillImage"/>
        <cc:license rdf:resource="http://web.resource.org/cc/PublicDomain"/>
        <dc:language>en</dc:language>
      </cc:Work>
      <cc:License rdf:about="http://web.resource.org/cc/PublicDomain">
        <cc:permits rdf:resource="http://web.resource.org/cc/Reproduction"/>
        <cc:permits rdf:resource="http://web.resource.org/cc/Distribution"/>
        <cc:permits rdf:resource="http://web.resource.org/cc/DerivativeWorks"/>
      </cc:License>
    </rdf:RDF>
  </metadata>
  <defs>
    <pattern height="100" id="triangles-byzantine-2" patternContentUnits="userSpaceOnUse" patternUnits="userSpaceOnUse" width="100">
      <g>
        <g id="first">
          <polygon id="big-triangle" points="0,0 50,50 0,50" style="fill:yellow;stroke:black;stroke-width:0"/>
          <polygon id="medium-triangle" points="25,0 25,25 50,25" style="fill:orange;stroke:black;stroke-width:0"/>
          <polygon id="small-triangle" points="37.5,0 37.5,12.5 50,12.5" style="fill:red;stroke:black;stroke-width:0"/>
          <polygon points="12.5,0 12.5,12.5 25,12.5" style="fill:red;stroke:black;stroke-width:0"/>
          <polygon points="37.5,25 37.5,37.5 50,37.5" style="fill:red;stroke:black;stroke-width:0"/>
        </g>
        <g id="second">
          <polygon id="big-triangle" points="50,0 50,50 100,50" style="fill:yellow;stroke:black;stroke-width:0"/>
          <polygon id="medium-triangle" points="75,0 75,25 100,25" style="fill:orange;stroke:black;stroke-width:0"/>
          <polygon id="small-triangle" points="87.5,0 87.5,12.5 100,12.5" style="fill:red;stroke:black;stroke-width:0"/>
          <polygon points="62.5,0 62.5,12.5 75,12.5" style="fill:red;stroke:black;stroke-width:0"/>
          <polygon points="87.5,25 87.5,37.5 100,37.5" style="fill:red;stroke:black;stroke-width:0"/>
        </g>
        <g id="third">
          <polygon id="big-triangle" points="0,50 0,100 50,100" style="fill:yellow;stroke:black;stroke-width:0"/>
          <polygon id="medium-triangle" points="25,50 25,75 50,75" style="fill:orange;stroke:black;stroke-width:0"/>
          <polygon id="small-triangle" points="37.5,50 37.5,62.5 50,62.5" style="fill:red;stroke:black;stroke-width:0"/>
          <polygon points="12.5,50 12.5,62.5 25,62.5" style="fill:red;stroke:black;stroke-width:0"/>
          <polygon points="37.5,75 37.5,87.5 50,87.5" style="fill:red;stroke:black;stroke-width:0"/>
        </g>
        <g id="fourth">
          <polygon id="big-triangle" points="50,50 50,100 100,100" style="fill:yellow;stroke:black;stroke-width:0"/>
          <polygon id="medium-triangle" points="75,50 75,75 100,75" style="fill:orange;stroke:black;stroke-width:0"/>
          <polygon id="small-triangle" points="87.5,50 87.5,62.5 100,62.5" style="fill:red;stroke:black;stroke-width:0"/>
          <polygon points="62.5,50 62.5,62.5 75,62.5" style="fill:red;stroke:black;stroke-width:0"/>
          <polygon points="87.5,75 87.5,87.5 100,87.5" style="fill:red;stroke:black;stroke-width:0"/>
        </g>
      </g>
    </pattern>
  </defs>
  <rect fill="url(#triangles-byzantine-2)" height="100" width="100" x="0" y="0"/>
</svg>
