<?xml version="1.0" encoding="iso-8859-1"?>
<!DOCTYPE svg PUBLIC "-//W3C//DTD SVG 20000303 Stylable//EN" "http://www.w3.org/TR/2000/03/WD-SVG-20000303/DTD/svg-20000303-stylable.dtd">
<!-- Creator: CorelDRAW --><svg height="1.82337in" space="preserve" style="shape-rendering:geometricPrecision; text-rendering:geometricPrecision; image-rendering:optimizeQuality" viewBox="-770 0 1098 1823" width="1.09864in" x="-0.77024in" y="2.13115in">
  <metadata>
    <rdf:RDF xmlns:cc="http://web.resource.org/cc/" xmlns:dc="http://purl.org/dc/elements/1.1/" xmlns:rdf="http://www.w3.org/1999/02/22-rdf-syntax-ns#">
      <cc:Work rdf:about="">
        <dc:title>aids ribbon</dc:title>
        <dc:description></dc:description>
        <dc:subject>
          <rdf:Bag>
            <rdf:li>aids</rdf:li>
            <rdf:li>red</rdf:li>
            <rdf:li>ribbon</rdf:li>
          </rdf:Bag>
        </dc:subject>
        <dc:publisher>
          <cc:Agent rdf:about="http://www.openclipart.org/">
            <dc:title>Open Clip Art Library</dc:title>
          </cc:Agent>
        </dc:publisher>
        <dc:creator>
          <cc:Agent>
            <dc:title>saint</dc:title>
          </cc:Agent>
        </dc:creator>
        <dc:rights>
          <cc:Agent>
            <dc:title>saint</dc:title>
          </cc:Agent>
        </dc:rights>
        <dc:date></dc:date>
        <dc:format>image/svg+xml</dc:format>
        <dc:type rdf:resource="http://purl.org/dc/dcmitype/StillImage"/>
        <cc:license rdf:resource="http://web.resource.org/cc/PublicDomain"/>
        <dc:language>en</dc:language>
      </cc:Work>
      <cc:License rdf:about="http://web.resource.org/cc/PublicDomain">
        <cc:permits rdf:resource="http://web.resource.org/cc/Reproduction"/>
        <cc:permits rdf:resource="http://web.resource.org/cc/Distribution"/>
        <cc:permits rdf:resource="http://web.resource.org/cc/DerivativeWorks"/>
      </cc:License>
    </rdf:RDF>
  </metadata>
  <defs>
    <style type="text/css"><![CDATA[
    .fil0 {fill:#1F1A17}
   ]]></style>
  </defs>
  <g id="Layer 1">
    <g>
      <path class="fil0" d="M-264 316c0,0 -44,5 50,180 94,175 542,955 542,955l-148 363c0,0 -650,-1116 -663,-1152 -14,-36 -36,-99 22,-207 58,-107 197,-139 197,-139z" id="43381088"/>
      <path class="fil0" d="M-595 1823c0,0 169,-341 339,-683l-16 -27 -29 -51 -29 -50 -27 -47 -27 -46 -24 -42 -23 -40 -17 -30c-143,294 -322,684 -322,684l175 332zm549 -1106c71,-143 123,-247 132,-266 36,-72 -13,-99 -63,-112 -49,-14 -242,-27 -242,-27 0,0 9,17 -7,65l1 4 4 9 4 9 4 11 5 11 6 13 7 13 7 15 8 15 10 18 12 21 13 25 16 27 16 30 18 32 19 34 21 35 9 18z" id="43381176"/>
      <path class="fil0" d="M-459 385c27,-125 63,-274 92,-320 59,-89 112,-62 193,-58 81,5 121,45 153,130 19,52 57,123 85,171 -14,-4 -33,-8 -64,-14 -50,-10 -121,-23 -244,-16 -118,7 -182,77 -215,107z" id="43381264"/>
    </g>
  </g>
</svg>
