<?xml version="1.0" encoding="UTF-8" standalone="no"?>
<!DOCTYPE svg PUBLIC "-//W3C//DTD SVG 20010904//EN"
"http://www.w3.org/TR/2001/REC-SVG-20010904/DTD/svg10.dtd">
<svg height="164.675" id="svg1" inkscape:version="0.40" sodipodi:docbase="/mnt/donnees/09-Mes_images/Travaux/Travaux vectoriel/pictogrammes/sécu SVG/Obligation" sodipodi:docname="ProtectionObligatoireContreChutes.svg" sodipodi:version="0.32" width="164.675" xmlns="http://www.w3.org/2000/svg" xmlns:cc="http://web.resource.org/cc/" xmlns:dc="http://purl.org/dc/elements/1.1/" xmlns:inkscape="http://www.inkscape.org/namespaces/inkscape" xmlns:rdf="http://www.w3.org/1999/02/22-rdf-syntax-ns#" xmlns:sodipodi="http://sodipodi.sourceforge.net/DTD/sodipodi-0.dtd" xmlns:xlink="http://www.w3.org/1999/xlink">
  <metadata>
    <rdf:RDF xmlns:cc="http://web.resource.org/cc/" xmlns:dc="http://purl.org/dc/elements/1.1/" xmlns:rdf="http://www.w3.org/1999/02/22-rdf-syntax-ns#">
      <cc:Work rdf:about="">
        <dc:title>protection obligatoire contre les chutes</dc:title>
        <dc:description>obligation</dc:description>
        <dc:subject>
          <rdf:Bag>
            <rdf:li></rdf:li>
            <rdf:li>symbol</rdf:li>
            <rdf:li>signs_and_symbols</rdf:li>
          </rdf:Bag>
        </dc:subject>
        <dc:publisher>
          <cc:Agent rdf:about="http://www.openclipart.org">
            <dc:title>yves GUILLOU</dc:title>
          </cc:Agent>
        </dc:publisher>
        <dc:creator>
          <cc:Agent>
            <dc:title>yves GUILLOU</dc:title>
          </cc:Agent>
        </dc:creator>
        <dc:rights>
          <cc:Agent>
            <dc:title>yves GUILLOU</dc:title>
          </cc:Agent>
        </dc:rights>
        <dc:date></dc:date>
        <dc:format>image/svg+xml</dc:format>
        <dc:type rdf:resource="http://purl.org/dc/dcmitype/StillImage"/>
        <cc:license rdf:resource="http://web.resource.org/cc/PublicDomain"/>
        <dc:language>en</dc:language>
      </cc:Work>
      <cc:License rdf:about="http://web.resource.org/cc/PublicDomain">
        <cc:permits rdf:resource="http://web.resource.org/cc/Reproduction"/>
        <cc:permits rdf:resource="http://web.resource.org/cc/Distribution"/>
        <cc:permits rdf:resource="http://web.resource.org/cc/DerivativeWorks"/>
      </cc:License>
    </rdf:RDF>
  </metadata>
  <sodipodi:namedview bordercolor="#666666" borderopacity="1.0" id="base" inkscape:current-layer="svg1" inkscape:cx="65.870001" inkscape:cy="65.870001" inkscape:pageopacity="0.0" inkscape:pageshadow="2" inkscape:window-height="1121" inkscape:window-width="1590" inkscape:window-x="0" inkscape:window-y="0" inkscape:zoom="7.1580384" pagecolor="#ffffff"/>
  <defs id="defs2">
    <marker id="ArrowEnd" markerHeight="3" markerUnits="strokeWidth" markerWidth="4" orient="auto" refX="0" refY="5" viewBox="0 0 10 10">
      <path d="M 0 0 L 10 5 L 0 10 z" id="path4"/>
    </marker>
    <marker id="ArrowStart" markerHeight="3" markerUnits="strokeWidth" markerWidth="4" orient="auto" refX="10" refY="5" viewBox="0 0 10 10">
      <path d="M 10 0 L 0 5 L 10 10 z" id="path6"/>
    </marker>
  </defs>
  <g id="g7">
    <path d="M 84.4626 153.222C 123.584 152.076 154.369 119.431 153.222 80.3101C 152.076 41.1891 119.431 10.4038 80.3103 11.5504C 41.1893 12.697 10.4039 45.3414 11.5506 84.4624C 12.6972 123.583 45.3416 154.369 84.4626 153.222z" id="path8" style="stroke:none; fill:#000000"/>
    <path d="M 84.2892 148.923C 121.063 147.846 150.001 117.16 148.923 80.386C 147.846 43.6122 117.16 14.6739 80.386 15.7517C 43.6122 16.8296 14.6738 47.5154 15.7517 84.2892C 16.8295 121.063 47.5153 150.001 84.2892 148.923z" id="path9" style="stroke:#ffffff; stroke-width:3; fill:#004cff"/>
  </g>
  <g id="g10">
    <path d="M 82.571200,14.941900 C 84.271200,16.841900 82.271200,28.341900 83.571200,30.141900 C 82.471200,31.741900 85.771200,33.241900 83.571200,34.441900 C 80.571200,35.241900 77.371200,32.741900 74.971200,35.641900 C 73.371200,37.041900 74.371200,39.441900 72.571200,40.741900 C 73.071200,41.941900 70.371200,43.941900 72.971200,44.841900 C 72.471200,47.041900 72.671200,49.741900 75.371200,50.041900 C 73.571200,57.141900 71.871200,64.541900 72.571200,71.441900 C 72.071200,72.941900 73.371200,74.341900 73.271200,76.041900 C 78.371200,77.441900 81.971200,77.341900 87.371200,76.741900 C 89.471200,74.741900 88.271200,71.441900 89.371200,69.041900 C 90.071200,68.841900 90.271200,69.741900 90.571200,70.241900 C 91.471200,76.141900 92.771200,82.541900 92.171200,88.441900 C 92.471200,90.241900 93.671200,92.241900 95.371200,92.841900 C 96.871200,93.541900 99.171200,93.341900 100.87100,93.041900 C 102.07100,90.541900 103.57100,87.841900 101.77100,85.341900 C 100.77100,85.041900 98.971200,87.141900 98.971200,85.341900 C 99.271200,78.041900 99.971200,69.041900 95.371200,62.541900 C 93.871200,58.641900 92.971200,54.141900 89.571200,51.541900 C 88.971200,49.641900 89.971200,46.641900 87.871200,45.741900 C 86.371200,46.941900 87.571200,49.741900 85.471200,50.041900 C 85.471200,48.941900 84.571200,47.841900 85.271200,46.741900 C 87.471200,45.441900 89.371200,42.541900 88.871200,39.541900 L 88.371200,39.041900 C 88.971200,38.541900 88.371200,37.341900 87.871200,36.641900 C 86.771200,36.141900 88.071200,35.541900 88.171200,34.941900 C 87.071200,33.441900 89.371200,30.841900 86.671200,30.641900 C 89.671200,29.641900 83.471200,13.141900 90.071200,16.141900 L 82.571200,14.941900 z " id="path11" style="fill:#ffffff;stroke:none"/>
    <path d="M 73.271200,51.541900 C 72.371200,55.441900 70.971200,59.041900 70.871200,63.241900 C 66.971200,65.241900 62.871200,69.141900 58.171200,66.841900 C 54.871200,66.841900 51.271200,66.141900 47.771200,65.641900 C 47.871200,64.641900 47.871200,63.441900 46.871200,63.041900 C 44.471200,63.241900 41.871200,64.041900 40.171200,62.341900 C 42.271200,60.741900 40.071200,58.741900 41.071200,57.041900 L 41.771200,56.341900 C 45.871200,55.841900 49.471200,55.941900 52.571200,58.241900 C 56.771200,59.141900 62.971200,59.041900 66.571200,55.641900 C 68.971200,53.641900 69.471200,49.041900 73.271200,51.541900 z " id="path12" style="fill:#ffffff;stroke:none"/>
    <path d="M 85.971200,51.241900 C 83.471200,58.241900 81.971200,66.541900 84.071200,73.641900 C 84.271200,74.241900 83.771200,74.741900 83.571200,75.241900 C 81.671200,74.241900 81.971200,71.541900 81.671200,69.541900 C 80.771200,67.041900 81.971200,63.441900 81.871200,60.441900 C 81.971200,56.741900 83.371200,53.541900 85.271200,50.841900 L 85.971200,51.241900 z " id="path13" style="fill:#004cff;stroke:none"/>
    <path d="M 75.171200,78.641900 C 79.271200,79.341900 84.871200,80.641900 88.371200,78.441900 C 90.071200,80.741900 90.471200,84.541900 89.771200,87.041900 C 88.971200,87.841900 88.271200,86.341900 87.871200,85.841900 C 87.371200,84.141900 86.771200,81.141900 84.971200,80.341900 C 82.871200,82.741900 86.871200,84.841900 86.171200,87.241900 C 82.371200,87.741900 79.271200,90.641900 76.871200,94.041900 C 76.571200,88.941900 76.071200,83.241900 71.371200,80.341900 C 71.171200,79.341900 72.071200,78.641900 72.571200,78.141900 L 75.171200,78.441900 L 75.171200,78.641900 z " id="path14" style="fill:#ffffff;stroke:none"/>
    <path d="M 74.971200,94.241900 C 73.671200,96.241900 70.771200,96.341900 68.471200,96.841900 C 66.671200,96.941900 64.671200,96.541900 63.371200,98.041900 C 64.471200,102.14200 65.921942,103.31960 66.221942,107.61960 C 67.121942,108.51960 66.871200,111.14200 66.971200,112.24200 C 62.171200,114.34200 68.371200,118.44200 64.371200,120.64200 C 58.271200,119.54200 52.171200,123.24200 46.371200,119.94200 C 44.871200,117.24200 48.771200,118.14200 49.971200,117.24200 C 51.171200,118.14200 51.871200,116.24200 53.071200,116.54200 C 54.371200,115.84200 55.871200,114.14200 55.271200,112.44200 C 54.671200,110.94200 54.371200,109.24200 54.571200,107.44200 C 53.571200,104.54200 52.471200,101.34200 52.571200,98.341900 L 51.871200,97.641900 C 52.771200,93.941900 48.671200,90.041900 53.771200,88.041900 C 56.671200,85.741900 60.371200,85.641900 63.171200,83.441900 C 65.771200,83.541900 68.771200,81.241900 71.371200,82.741900 C 73.971200,85.941900 74.671200,90.041900 74.971200,94.241900 z " id="path15" sodipodi:nodetypes="ccccccccccccccccc" style="fill:#ffffff;stroke:none"/>
    <path d="M 91.271200,90.641900 C 92.571200,100.54200 86.171200,108.94200 89.771200,118.04200 C 88.771200,118.54200 90.071200,119.24200 90.271200,119.94200 L 90.971200,131.64200 C 87.271200,132.64200 90.171200,136.64200 87.171200,137.94200 C 83.971200,139.54200 81.271200,135.74200 78.571200,138.44200 C 75.271200,137.24200 72.571200,138.54200 69.171200,137.94200 C 69.371200,136.54200 67.871200,133.44200 70.871200,133.64200 C 73.571200,133.94200 75.771200,133.24200 77.571200,131.44200 C 78.871200,130.04200 77.971200,128.44200 79.471200,127.14200 C 78.471200,125.94200 79.471200,124.14200 79.271200,123.04200 C 80.171200,116.34200 77.471200,109.74200 78.071200,102.84200 C 76.871200,99.741900 77.771200,94.941900 80.671200,92.341900 C 83.371200,89.941900 87.371200,89.341900 90.571200,89.641900 L 91.271200,90.641900 z " id="path16" style="fill:#ffffff;stroke:none"/>
  </g>
</svg>
