<?xml version="1.0" encoding="UTF-8" standalone="no"?>
<!DOCTYPE svg PUBLIC "-//W3C//DTD SVG 1.0//EN"
"http://www.w3.org/TR/2001/REC-SVG-20010904/DTD/svg10.dtd">
<!-- Created with Inkscape (http://www.inkscape.org/) --><svg height="297mm" id="svg1" inkscape:version="0.39cvs" sodipodi:docbase="C:\Graphics\My Projects\SchwarzeSonne" sodipodi:docname="SchwarzeSonne.svg" sodipodi:version="0.32" width="210mm" xmlns="http://www.w3.org/2000/svg" xmlns:cc="http://web.resource.org/cc/" xmlns:dc="http://purl.org/dc/elements/1.1/" xmlns:inkscape="http://www.inkscape.org/namespaces/inkscape" xmlns:rdf="http://www.w3.org/1999/02/22-rdf-syntax-ns#" xmlns:sodipodi="http://sodipodi.sourceforge.net/DTD/sodipodi-0.dtd" xmlns:xlink="http://www.w3.org/1999/xlink">
  <metadata>
    <rdf:RDF xmlns:cc="http://web.resource.org/cc/" xmlns:dc="http://purl.org/dc/elements/1.1/" xmlns:rdf="http://www.w3.org/1999/02/22-rdf-syntax-ns#">
      <cc:Work rdf:about="">
        <dc:title>Sunwheel</dc:title>
        <dc:description></dc:description>
        <dc:subject>
          <rdf:Bag>
            <rdf:li>schwarze</rdf:li>
            <rdf:li></rdf:li>
            <rdf:li>symbol</rdf:li>
            <rdf:li>soleil</rdf:li>
            <rdf:li>noir</rdf:li>
            <rdf:li>signs_and_symbols</rdf:li>
            <rdf:li>sunwheel</rdf:li>
            <rdf:li>sonne</rdf:li>
            <rdf:li>zonnerad</rdf:li>
          </rdf:Bag>
        </dc:subject>
        <dc:publisher>
          <cc:Agent rdf:about="http://www.openclipart.org">
            <dc:title>Vikingdread</dc:title>
          </cc:Agent>
        </dc:publisher>
        <dc:creator>
          <cc:Agent>
            <dc:title>Vikingdread</dc:title>
          </cc:Agent>
        </dc:creator>
        <dc:rights>
          <cc:Agent>
            <dc:title>Vikingdread</dc:title>
          </cc:Agent>
        </dc:rights>
        <dc:date></dc:date>
        <dc:format>image/svg+xml</dc:format>
        <dc:type rdf:resource="http://purl.org/dc/dcmitype/StillImage"/>
        <cc:license rdf:resource="http://web.resource.org/cc/PublicDomain"/>
        <dc:language>en</dc:language>
      </cc:Work>
      <cc:License rdf:about="http://web.resource.org/cc/PublicDomain">
        <cc:permits rdf:resource="http://web.resource.org/cc/Reproduction"/>
        <cc:permits rdf:resource="http://web.resource.org/cc/Distribution"/>
        <cc:permits rdf:resource="http://web.resource.org/cc/DerivativeWorks"/>
      </cc:License>
    </rdf:RDF>
  </metadata>
  <defs id="defs3"/>
  <sodipodi:namedview bordercolor="#666666" borderopacity="1.0" id="base" inkscape:cx="366.55115" inkscape:cy="418.52643" inkscape:pageopacity="0.0" inkscape:pageshadow="2" inkscape:window-height="742" inkscape:window-width="1024" inkscape:window-x="-4" inkscape:window-y="-4" inkscape:zoom="0.50000000" pagecolor="#ffffff"/>
  <g id="g7885" transform="translate(70.00000,-37.50000)">
    <path d="M 300.02191,78.012228 C 107.22188,78.012228 -49.259344,234.49347 -49.259344,427.29349 C -49.259344,620.09351 107.22189,776.57477 300.02191,776.57474 C 492.82192,776.57474 649.30314,620.09350 649.30315,427.29349 C 649.30315,234.49347 492.82192,78.012227 300.02191,78.012228 z M 300.02191,113.32474 C 473.32636,113.32474 613.95940,253.98903 613.95940,427.29349 C 613.95939,600.59795 473.32636,741.26224 300.02191,741.26224 C 126.71744,741.26223 -13.946844,600.59795 -13.946844,427.29349 C -13.946844,253.98902 126.71744,113.32474 300.02191,113.32474 z " id="path4021" style="fill:#000000;fill-opacity:1.0000000;fill-rule:evenodd;stroke:none;stroke-width:1.0000000pt;stroke-linecap:butt;stroke-linejoin:miter;stroke-opacity:1.0000000;"/>
    <path d="M 300.03753,277.59036 C 217.40895,277.59036 150.31878,344.64928 150.31878,427.27786 C 150.31878,509.90644 217.40896,576.99660 300.03753,576.99661 C 382.66611,576.99661 449.72500,509.90643 449.72503,427.27786 C 449.72503,344.64928 382.66611,277.59035 300.03753,277.59036 z M 300.03753,314.80911 C 362.12272,314.80911 412.50628,365.19267 412.50628,427.27786 C 412.50628,489.36304 362.12272,539.77786 300.03753,539.77786 C 237.95235,539.77787 187.53753,489.36305 187.53753,427.27786 C 187.53754,365.19266 237.95234,314.80911 300.03753,314.80911 z " id="path4029" style="fill:#000000;fill-opacity:1.0000000;fill-rule:evenodd;stroke:none;stroke-width:1.0000000pt;stroke-linecap:butt;stroke-linejoin:miter;stroke-opacity:1.0000000;"/>
    <path d="M 440.90347 435.46021 A 68.947868 68.947868 0 1 0 303.00773,435.46021 A 68.947868 68.947868 0 1 0 440.90347 435.46021 z" id="path4656" sodipodi:cx="371.95560" sodipodi:cy="435.46021" sodipodi:rx="68.947868" sodipodi:ry="68.947868" sodipodi:type="arc" style="fill:#000000;fill-opacity:1.0000000;fill-rule:evenodd;stroke:#000000;stroke-width:1.0000000pt;stroke-linecap:butt;stroke-linejoin:miter;stroke-opacity:1.0000000;" transform="translate(-71.93369,-8.166721)"/>
    <g id="g7147" style="fill:#000000;fill-opacity:1.0000000;" transform="translate(-73.74983,-1.450866e-4)">
      <rect height="517.11334" id="rect5278" style="fill-rule:evenodd;stroke:none;stroke-width:0.99825439pt;stroke-linecap:butt;stroke-linejoin:miter;stroke-opacity:1.0000000;" width="29.030682" x="359.25467" y="168.73866"/>
      <rect height="101.85769" id="rect5280" style="fill-rule:evenodd;stroke:none;stroke-width:0.44304237pt;stroke-linecap:butt;stroke-linejoin:miter;stroke-opacity:1.0000000;" transform="matrix(0.000000,1.000000,-1.000000,0.000000,0.000000,0.000000)" width="29.030682" x="168.38826" y="-460.76880"/>
      <rect height="101.85769" id="rect5281" style="fill-rule:evenodd;stroke:none;stroke-width:0.44304237pt;stroke-linecap:butt;stroke-linejoin:miter;stroke-opacity:1.0000000;" transform="matrix(0.000000,1.000000,-1.000000,0.000000,0.000000,0.000000)" width="29.030682" x="657.16833" y="-388.63235"/>
      <rect height="101.85769" id="rect5282" style="fill-rule:evenodd;stroke:none;stroke-width:0.44304237pt;stroke-linecap:butt;stroke-linejoin:miter;stroke-opacity:1.0000000;" transform="scale(-1.000000,-1.000000)" width="29.030682" x="-460.76880" y="-197.41895"/>
      <rect height="101.85769" id="rect5283" style="fill-rule:evenodd;stroke:none;stroke-width:0.44304237pt;stroke-linecap:butt;stroke-linejoin:miter;stroke-opacity:1.0000000;" transform="scale(-1.000000,-1.000000)" width="29.030682" x="-315.80536" y="-759.02600"/>
    </g>
    <g id="g7153" style="fill:#000000;fill-opacity:1.0000000;" transform="matrix(0.000000,1.000000,-1.000000,0.000000,727.3155,53.52175)">
      <rect height="517.11334" id="rect7154" style="fill-rule:evenodd;stroke:none;stroke-width:0.99825439pt;stroke-linecap:butt;stroke-linejoin:miter;stroke-opacity:1.0000000;" width="29.030682" x="359.25467" y="168.73866"/>
      <rect height="101.85769" id="rect7155" style="fill-rule:evenodd;stroke:none;stroke-width:0.44304237pt;stroke-linecap:butt;stroke-linejoin:miter;stroke-opacity:1.0000000;" transform="matrix(0.000000,1.000000,-1.000000,0.000000,0.000000,0.000000)" width="29.030682" x="168.38826" y="-460.76880"/>
      <rect height="101.85769" id="rect7156" style="fill-rule:evenodd;stroke:none;stroke-width:0.44304237pt;stroke-linecap:butt;stroke-linejoin:miter;stroke-opacity:1.0000000;" transform="matrix(0.000000,1.000000,-1.000000,0.000000,0.000000,0.000000)" width="29.030682" x="657.16833" y="-388.63235"/>
      <rect height="101.85769" id="rect7157" style="fill-rule:evenodd;stroke:none;stroke-width:0.44304237pt;stroke-linecap:butt;stroke-linejoin:miter;stroke-opacity:1.0000000;" transform="scale(-1.000000,-1.000000)" width="29.030682" x="-460.76880" y="-197.41895"/>
      <rect height="101.85769" id="rect7158" style="fill-rule:evenodd;stroke:none;stroke-width:0.44304237pt;stroke-linecap:butt;stroke-linejoin:miter;stroke-opacity:1.0000000;" transform="scale(-1.000000,-1.000000)" width="29.030682" x="-315.80536" y="-759.02600"/>
    </g>
    <g id="g7159" style="fill:#000000;fill-opacity:1.0000000;" transform="matrix(0.866025,-0.500000,0.500000,0.866025,-237.3206,244.1324)">
      <rect height="517.11334" id="rect7160" style="fill-rule:evenodd;stroke:none;stroke-width:0.99825439pt;stroke-linecap:butt;stroke-linejoin:miter;stroke-opacity:1.0000000;" width="29.030682" x="359.25467" y="168.73866"/>
      <rect height="101.85769" id="rect7161" style="fill-rule:evenodd;stroke:none;stroke-width:0.44304237pt;stroke-linecap:butt;stroke-linejoin:miter;stroke-opacity:1.0000000;" transform="matrix(0.000000,1.000000,-1.000000,0.000000,0.000000,0.000000)" width="29.030682" x="168.38826" y="-460.76880"/>
      <rect height="101.85769" id="rect7162" style="fill-rule:evenodd;stroke:none;stroke-width:0.44304237pt;stroke-linecap:butt;stroke-linejoin:miter;stroke-opacity:1.0000000;" transform="matrix(0.000000,1.000000,-1.000000,0.000000,0.000000,0.000000)" width="29.030682" x="657.16833" y="-388.63235"/>
      <rect height="101.85769" id="rect7163" style="fill-rule:evenodd;stroke:none;stroke-width:0.44304237pt;stroke-linecap:butt;stroke-linejoin:miter;stroke-opacity:1.0000000;" transform="scale(-1.000000,-1.000000)" width="29.030682" x="-460.76880" y="-197.41895"/>
      <rect height="101.85769" id="rect7164" style="fill-rule:evenodd;stroke:none;stroke-width:0.44304237pt;stroke-linecap:butt;stroke-linejoin:miter;stroke-opacity:1.0000000;" transform="scale(-1.000000,-1.000000)" width="29.030682" x="-315.80536" y="-759.02600"/>
    </g>
    <g id="g7165" style="fill:#000000;fill-opacity:1.0000000;" transform="matrix(0.500000,-0.866025,0.866025,0.500000,-256.9109,537.3423)">
      <rect height="517.11334" id="rect7166" style="fill-rule:evenodd;stroke:none;stroke-width:0.99825439pt;stroke-linecap:butt;stroke-linejoin:miter;stroke-opacity:1.0000000;" width="29.030682" x="359.25467" y="168.73866"/>
      <rect height="101.85769" id="rect7167" style="fill-rule:evenodd;stroke:none;stroke-width:0.44304237pt;stroke-linecap:butt;stroke-linejoin:miter;stroke-opacity:1.0000000;" transform="matrix(0.000000,1.000000,-1.000000,0.000000,0.000000,0.000000)" width="29.030682" x="168.38826" y="-460.76880"/>
      <rect height="101.85769" id="rect7168" style="fill-rule:evenodd;stroke:none;stroke-width:0.44304237pt;stroke-linecap:butt;stroke-linejoin:miter;stroke-opacity:1.0000000;" transform="matrix(0.000000,1.000000,-1.000000,0.000000,0.000000,0.000000)" width="29.030682" x="657.16833" y="-388.63235"/>
      <rect height="101.85769" id="rect7169" style="fill-rule:evenodd;stroke:none;stroke-width:0.44304237pt;stroke-linecap:butt;stroke-linejoin:miter;stroke-opacity:1.0000000;" transform="scale(-1.000000,-1.000000)" width="29.030682" x="-460.76880" y="-197.41895"/>
      <rect height="101.85769" id="rect7170" style="fill-rule:evenodd;stroke:none;stroke-width:0.44304237pt;stroke-linecap:butt;stroke-linejoin:miter;stroke-opacity:1.0000000;" transform="scale(-1.000000,-1.000000)" width="29.030682" x="-315.80536" y="-759.02600"/>
    </g>
    <g id="g7171" style="fill:#000000;fill-opacity:1.0000000;" transform="matrix(0.866025,0.500000,-0.500000,0.866025,189.9730,-129.6394)">
      <rect height="517.11334" id="rect7172" style="fill-rule:evenodd;stroke:none;stroke-width:0.99825439pt;stroke-linecap:butt;stroke-linejoin:miter;stroke-opacity:1.0000000;" width="29.030682" x="359.25467" y="168.73866"/>
      <rect height="101.85769" id="rect7173" style="fill-rule:evenodd;stroke:none;stroke-width:0.44304237pt;stroke-linecap:butt;stroke-linejoin:miter;stroke-opacity:1.0000000;" transform="matrix(0.000000,1.000000,-1.000000,0.000000,0.000000,0.000000)" width="29.030682" x="168.38826" y="-460.76880"/>
      <rect height="101.85769" id="rect7174" style="fill-rule:evenodd;stroke:none;stroke-width:0.44304237pt;stroke-linecap:butt;stroke-linejoin:miter;stroke-opacity:1.0000000;" transform="matrix(0.000000,1.000000,-1.000000,0.000000,0.000000,0.000000)" width="29.030682" x="657.16833" y="-388.63235"/>
      <rect height="101.85769" id="rect7175" style="fill-rule:evenodd;stroke:none;stroke-width:0.44304237pt;stroke-linecap:butt;stroke-linejoin:miter;stroke-opacity:1.0000000;" transform="scale(-1.000000,-1.000000)" width="29.030682" x="-460.76880" y="-197.41895"/>
      <rect height="101.85769" id="rect7176" style="fill-rule:evenodd;stroke:none;stroke-width:0.44304237pt;stroke-linecap:butt;stroke-linejoin:miter;stroke-opacity:1.0000000;" transform="scale(-1.000000,-1.000000)" width="29.030682" x="-315.80536" y="-759.02600"/>
    </g>
    <g id="g7177" style="fill:#000000;fill-opacity:1.0000000;" transform="matrix(0.500000,0.866025,-0.866025,0.500000,483.1830,-110.0490)">
      <rect height="517.11334" id="rect7178" style="fill-rule:evenodd;stroke:none;stroke-width:0.99825439pt;stroke-linecap:butt;stroke-linejoin:miter;stroke-opacity:1.0000000;" width="29.030682" x="359.25467" y="168.73866"/>
      <rect height="101.85769" id="rect7179" style="fill-rule:evenodd;stroke:none;stroke-width:0.44304237pt;stroke-linecap:butt;stroke-linejoin:miter;stroke-opacity:1.0000000;" transform="matrix(0.000000,1.000000,-1.000000,0.000000,0.000000,0.000000)" width="29.030682" x="168.38826" y="-460.76880"/>
      <rect height="101.85769" id="rect7180" style="fill-rule:evenodd;stroke:none;stroke-width:0.44304237pt;stroke-linecap:butt;stroke-linejoin:miter;stroke-opacity:1.0000000;" transform="matrix(0.000000,1.000000,-1.000000,0.000000,0.000000,0.000000)" width="29.030682" x="657.16833" y="-388.63235"/>
      <rect height="101.85769" id="rect7181" style="fill-rule:evenodd;stroke:none;stroke-width:0.44304237pt;stroke-linecap:butt;stroke-linejoin:miter;stroke-opacity:1.0000000;" transform="scale(-1.000000,-1.000000)" width="29.030682" x="-460.76880" y="-197.41895"/>
      <rect height="101.85769" id="rect7182" style="fill-rule:evenodd;stroke:none;stroke-width:0.44304237pt;stroke-linecap:butt;stroke-linejoin:miter;stroke-opacity:1.0000000;" transform="scale(-1.000000,-1.000000)" width="29.030682" x="-315.80536" y="-759.02600"/>
    </g>
  </g>
</svg>
