<?xml version="1.0" encoding="UTF-8" standalone="no"?>
<!-- Generator: Adobe Illustrator 12.0.0, SVG Export Plug-In . SVG Version: 6.00 Build 51448)  --><svg height="396.514" id="Layer_1" inkscape:version="0.42" sodipodi:docbase="F:\openclip\svg da inviare" sodipodi:docname="blocco notes.svg" sodipodi:version="0.32" space="preserve" style="overflow:visible;enable-background:new 0 0 408.087 396.514;" version="1.1" viewBox="0 0 408.087 396.514" width="408.087" xmlns="http://www.w3.org/2000/svg" xmlns:cc="http://web.resource.org/cc/" xmlns:dc="http://purl.org/dc/elements/1.1/" xmlns:inkscape="http://www.inkscape.org/namespaces/inkscape" xmlns:rdf="http://www.w3.org/1999/02/22-rdf-syntax-ns#" xmlns:sodipodi="http://inkscape.sourceforge.net/DTD/sodipodi-0.dtd" xmlns:svg="http://www.w3.org/2000/svg">
  <metadata>
    <rdf:RDF xmlns:cc="http://web.resource.org/cc/" xmlns:dc="http://purl.org/dc/elements/1.1/" xmlns:rdf="http://www.w3.org/1999/02/22-rdf-syntax-ns#">
      <cc:Work rdf:about="">
        <dc:title>Various Cliparts</dc:title>
        <dc:description></dc:description>
        <dc:subject>
          <rdf:Bag>
            <rdf:li></rdf:li>
          </rdf:Bag>
        </dc:subject>
        <dc:publisher>
          <cc:Agent rdf:about="http://www.openclipart.org/">
            <dc:title></dc:title>
          </cc:Agent>
        </dc:publisher>
        <dc:creator>
          <cc:Agent>
            <dc:title>Architetto Francesco Rollandin</dc:title>
          </cc:Agent>
        </dc:creator>
        <dc:rights>
          <cc:Agent>
            <dc:title>Architetto Francesco Rollandin</dc:title>
          </cc:Agent>
        </dc:rights>
        <dc:date></dc:date>
        <dc:format>image/svg+xml</dc:format>
        <dc:type rdf:resource="http://purl.org/dc/dcmitype/StillImage"/>
        <cc:license rdf:resource="http://web.resource.org/cc/PublicDomain"/>
        <dc:language>en</dc:language>
      </cc:Work>
      <cc:License rdf:about="http://web.resource.org/cc/PublicDomain">
        <cc:permits rdf:resource="http://web.resource.org/cc/Reproduction"/>
        <cc:permits rdf:resource="http://web.resource.org/cc/Distribution"/>
        <cc:permits rdf:resource="http://web.resource.org/cc/DerivativeWorks"/>
      </cc:License>
    </rdf:RDF>
  </metadata>
  <defs id="defs104"/>
  <sodipodi:namedview bordercolor="#666666" borderopacity="1.0" id="base" inkscape:current-layer="Layer_1" inkscape:cx="204.04350" inkscape:cy="198.25700" inkscape:pageopacity="0.0" inkscape:pageshadow="2" inkscape:window-height="510" inkscape:window-width="787" inkscape:window-x="88" inkscape:window-y="116" inkscape:zoom="0.90791244" pagecolor="#ffffff"/>
  <path d="M263.635,389.274c-4.877-2.141-7.498-6.867-8.169-12.066  c0.801,10.164-29.101-3.799-33.849-5.445c-31.146-10.799-59.23-27.699-88.482-42.447c-22.708-11.448-44.76-25.854-69.057-33.414  c-14.932-4.646-31.329-9.949-43.439-20.233c5.717-2.839,3.715-8.899-0.371-12.81c15.942,17.017,44.76,26.297,65.652,34.652  c29.886,11.952,56.258,32.135,86.121,43.432c11.286,4.269,23.423,3.762,34.418,9.164c8.522,4.188,12.291,8.561,20.977,11.881  c6.475,2.476,14.689,9.748,20.048,6.403c3.538-2.208,5.918-0.379,7.61,2.136c4.411-15.359-44.477-27.279-57.731-33.043  c-40.312-17.53-80.851-35.864-120.996-54.237c-20.918-9.573-40.085-18.646-59.39-31.066c-6.733-4.332,23.817-47.942,28.008-55.125  c23.477-40.237,46.021-80.566,67.904-121.693c0.097-0.182-1.802,1.511-2.59,2.235c-3.451-7.684,6.152-8.649,8.849-13.744  c11.069-20.907,29.2-37.234,44.984-54.756c-4.477-3.583-28.989-1.374-33.414,4.456c6.283,5.921,23.746,1.624,9.84,13.179  c-0.715-0.447-0.799-1.472-1.3-1.856c-3.836,6.126-7.673,12.252-11.51,18.379c0.186,0.062,0.248,0,0.185-0.187  c0.034,0.234,0.368-0.176,0.372-0.185c-0.129,4.497-2.484,8.459-5.754,11.694c0.294-1.414,0.432-2.861,0.741-4.269  c-11.388,16.988-22.184,32.81-33.042,49.564c2.182-1.828,4.325-2.21,6.684-3.528c-1.362,3.799-3.296,7.35-5.756,10.582  c-0.598-3.1-1.438-3.772-0.928-7.054c-3.156,6.497-6.311,12.995-9.467,19.492c0.419,0.209,1.751,0.033,2.413,0.372  c-1.314,2.965-3.19,5.455-5.754,7.239c-0.281-0.51,0.127-1.576-0.187-2.042c-7.724,12.229-15.795,27.113-21.72,36.94  c-4.76,7.895-13.173,19.038-16.335,27.289c-0.992,2.589-1.002,7.934-2.97,11.139c-2.48,4.038-7.861,1.796-10.21,9.653  c9.644-4.765,4.569,6.529,0,10.581c-2.656-3.104-2.396-6.851,0-10.581c-2.711,5.62-8.847,12.599-5.754,17.263  c-6.136,0.779-6.743,12.27-9.839,17.451c0.255-7.224,4.936-10.574,7.425-17.451c-9.332-0.605-17.404,2.109-17.821,12.623  c-0.161,4.051,0.167,6.605,2.6,9.653c1.569,1.966,5.42-0.222,6.312,0.557c2.246,1.961,5.833,6.705,8.354,10.582  c-6.224,1.562-1.742,12.321,0.928,17.635c5.854,11.65,14.026,12.123,24.689,15.407c28.257,8.702,52.903,22.965,78.654,38.256  c15.628,9.279,138.077,73.994,145.406,56.604C265.856,389.49,264.876,389.416,263.635,389.274" id="path3" style="fill-rule:evenodd;clip-rule:evenodd;"/>
  <path d="M127.751,43.253c5.14-8.208,10.52-16.701,11.881-24.133c-2.339-1.99-6.066-4.423-8.912-5.569  c-3.806,6.521,3.275,14.01-0.741,19.492c-4.624,6.31-13.498,1.364-16.985,12.994c-0.812,2.706,0.713,9.047,0.278,10.023  c-2.294,5.154-5.302,2.366-9.653,7.24c-4.371,4.897-4.647,14.152-2.6,20.235C109.766,70.489,117.543,54.71,127.751,43.253" id="path5"/>
  <path d="M116.798,67.942c6.277-0.561,13.145,7.94,18.193,5.197  c7.965-4.328-2.853-10.257-7.055-12.251c4.435-5.338,7.896-11.961,12.994-16.707c2.557-2.38,10.688,2.91,4.641-5.198  c3.773-3.289,6.705-7.239,9.561-11.325c3.963-5.668,7.146-1.943,8.633-2.785c1.193-0.675,4.979,4.408,5.939-2.041  c0.936-6.289-8.667-5.872-5.011-13.366c-0.187,0.063-0.249,0-0.187-0.186c-0.185,0.062-0.247,0-0.185-0.186  C146.406,27.416,129.751,46.139,116.798,67.942" id="path7" style="fill-rule:evenodd;clip-rule:evenodd;"/>
  <path d="M159.865,314.092c-40.274-25.834-86.013-37.383-128.922-57.175  c-6.514-3.005-14.373-9.095-5.291-15.223c2.462-1.661,8.005,1.196,8.539,0.743c6.318-5.355-2.282-2.491-1.485-8.91  c0.856-6.905,10.607-15.489,14.294-17.821c3.31-2.094,6.603,3.476,9.097-1.485c1.193-2.374-6.888-6.603-8.354-7.054  c6.66-8.395,12.565-17.153,17.729-26.545c3.679-6.691,4.226-5.906,8.631-7.612c2.242-0.869,8.475,5.939,9.375,0.837  c1.103-6.253-8.158-7.569-8.447-13.088c-0.226-4.311,4.718-10.259,7.425-13.179c8.652,10.397,13.709-4.618,2.971-5.941  c2.02-4.848,3.699-14.223,7.61-17.822c6.024-5.544,11.811,2.481,16.15-2.042c5.943-6.193-6.457-7.306-7.61-10.025  c-1.41-3.323,0.579-12.494,5.754-13.736c1.692-0.406,8.771,4.399,11.51,4.641c-2.282-11.069-11.744-4.971-6.684-15.594  c1.95-4.094,14.791-17.035,0.372-12.623c-5.028,1.539-8.841,15.313-10.838,19.319c-6.463,12.966-12.926,25.933-19.389,38.899  c-8.921,17.897-20.1,34.892-30.171,52.153c-12.688,21.744-25.375,43.489-38.062,65.233c-2.273,3.896,50.495,27.8,54.011,29.409  c42.941,19.652,86.07,38.797,129.285,57.844C188.312,323.992,168.196,328.376,159.865,314.092" id="path9" style="fill-rule:evenodd;clip-rule:evenodd;"/>
  <path d="M197.735,338.04c3.164,2.126,6.799,3.527,10.582,4.084  C205.517,340.889,197.579,338.046,197.735,338.04" id="path11" style="fill-rule:evenodd;clip-rule:evenodd;fill:#FF40FF;"/>
  <path d="M311.9,260.817c-2.66,5.569-5.321,11.138-7.981,16.707C307.25,272.534,310.616,266.052,311.9,260.817  " id="path13" style="fill:#FF40FF;"/>
  <path d="M356.453,166.7c-3.775,8.168-7.55,16.336-11.325,24.504  C349.932,183.208,353.635,175.391,356.453,166.7" id="path15" style="fill-rule:evenodd;clip-rule:evenodd;fill:#FF40FF;"/>
  <path d="M384.669,89.847C385.89,90.817,384.891,90.023,384.669,89.847" id="path17" style="fill-rule:evenodd;clip-rule:evenodd;fill:#FF40FF;"/>
  <path d="M392.835,100.428c-1.638,18.399-12.409,35.727-16.864,53.958  c-6.161,25.216-15.226,44.402-30.101,65.591c-13.75,19.587-24.015,40.556-36.755,60.701c-7.444,11.771-21.539,26.041-25.061,38.241  c10.831,4.429-9.284,25.425-12.81,30.814c-2.745,4.196-6.613,9.126-8.167,13.923c-2.308,7.126-0.372,5.2,0,9.469  c0.294,3.372,1.825,12.738,3.897,15.407c15.216-16.028,22.212-43.232,32.302-62.56c-0.124-0.107-0.363,0.539-0.372,0.557  c-0.067-0.236-0.371,0.441-0.372,0.372c-0.377-8.477,7.446-20.396,10.602-27.97c7.816-18.761,13.817-38.421,28.382-53.338  c1.37,8.25-6.913,13.899-10.395,20.604c-3.251,6.263-4.935,13.846-7.612,20.42c17.981-32.451,39.341-62.159,54.206-96.343  C382.383,170.345,416.997,119.375,392.835,100.428" id="path19" style="fill-rule:evenodd;clip-rule:evenodd;fill:#FFFFFF;"/>
  <path d="M169.519,22.647c-2.95,9.911-5.353-1.566-8.539-0.37c-6.457,2.424-10.309,12.261-15.409,16.707  c6.048,8.108-2.084,2.817-4.641,5.198c-5.098,4.746-8.56,11.369-12.994,16.707c4.843,2.297,15.287,8.593,6.127,12.438  c-6.744,2.831-16.532-14.634-20.419,0.557c11.69-1.727,2.129,7.549-0.187,11.879c-6.724,12.568,2.77,4.213,5.384,16.894  c-6.297-0.556-25.073-8.749-18.563,8.354c1.16,3.048,14.71,3.667,9.282,10.395c-4.951,6.136-10.94-6.354-15.872,1.392  c-3.682,5.782-5.637,12.546-8.26,18.843c10.738,1.323,5.681,16.338-2.971,5.941c-3.283,3.541-5.757,7.631-7.146,12.251  c-2.257,7.508,9.508,6.416,8.168,14.016c-0.834,4.73-5.909-1.084-8.075-0.278c-1.295,0.481-3.372-2.579-4.826-2.043  c-1.483,0.546-2.97,5.929-4.084,7.241c-7.11,8.37-11.775,19.611-18.749,28.401c5.707,1.757,9.083,5.435,6.311,9.282  c-1.256,1.743-5.799-1.537-7.054-0.743c-1.969,1.246-2.688,2.505-5.569,5.384c-3.259,3.257-11.224,8.378-7.982,13.645  c8.086,13.137,0.132,2.764-4.27,5.29c-12.378,7.103-5.641,14.393,6.404,19.028c11.114,4.276,22.134,8.611,33.321,12.715  c18.764,6.883,37.335,14.277,55.441,22.753c18.055,8.45,32.784,22.785,50.185,30.524c15.31,6.809,28.682,14.173,44.365,20.048  c5.277,1.977,30.722,8.813,32.766,11.603c0.34,0.464,0.681,0.928,1.021,1.392c8.387-16.328,18.186-27.51,29.517-39.725  c5.628-6.067,7.4-16.855,11.88-25.432c19.19-36.746,38.035-74.23,55.849-111.869c10.055-21.245,18.314-43.477,26.224-65.619  c1.615-4.524,11.065-23.56,7.59-26.34c-4.568-3.654-9.42-2.191-14.48-3.898c-16.961-5.721-30.593-20.311-48.286-26.662  c-20.706-7.432-40.103-18.634-61.237-24.295c-24.956-6.684-58.03-4.95-78.06-22.739c-5.096-4.525-12.883-16.07-17.356-2.414  C162.518,14.603,167.408,18.028,169.519,22.647 M173.231,115.279c12.373-11.869,19.305-29.097,28.216-43.067  c7.784-12.204,13.564-4.694,26.36,0.372c14.705,5.821,29.698,10.822,44.563,16.203c18.26,6.61,49.147,9.759,41.014,33.362  c-7.037,20.418-23.103,36.042-28.03,57.731c10.759-3.587,36.576-12.793,25.617,7.612c-8.013,14.919-28.445,17.36-40.099,24.502  c-11.554,7.082-24.293,10.442-36.198,16.986c-14.053,7.726-32.838,23.021-48.821,25.153c-11.147,1.487-42.885,18.721-37.312-10.582  c-20.296,3.788-37.59,9.188-54.206-7.795c-11.401-11.653-9.777-14.749-0.743-24.876c10.323-11.572,12.999-19.065,27.66-24.504  c24.316-9.02,63.908-26.145,83.535,0.372c11.415,15.421-7.219,23.487-14.479,35.642c27.315-12.062,53.151-27.534,81.308-37.684  c-7.645-0.968-15.224-1.942-22.092-3.527c-19.308-4.455-32.604-18.067-50.028-27.195c-7.259-3.803-33.497-11.281-35.177-18.47  C163.569,132.294,171.305,119.701,173.231,115.279" id="path21" style="fill:#FFBF00;"/>
  <path d="M217.598,13.366c-4.146-0.928-8.292-1.856-12.438-2.785  C208.501,11.412,221.604,15.573,217.598,13.366" id="path23" style="fill:#6381DE;"/>
  <path d="M288.139,309.266c-1.756,3.014-3.063,6.415-4.827,9.467  c0.107-0.09,0.467-0.062,0.371,0.187C285.609,316.519,287.715,311.905,288.139,309.266" id="path25" style="fill-rule:evenodd;clip-rule:evenodd;fill:#6381DE;"/>
  <path d="M324.151,240.767c4.585-8.435,7.576-17.778,10.397-26.917c-13.477,30.204-28.388,59.018-42.696,88.734  C302.772,282.168,314.253,261.654,324.151,240.767" id="path27"/>
  <path d="M351.625,205.497c3.126,13.41-9.277,34.026-14.654,45.976c-7.637,16.969-15.419,33.83-23.585,50.554  c-14.71,30.124-29.099,60.924-46.409,89.663c0.087-0.173,0.679-2.375,0.743-2.785c2.288,3.072,5.567,4.821,8.91,6.497  c15.596-46.069,40.539-90.241,61.598-134.005c10.704-22.245,20.44-43.818,29.178-66.853c6.705-17.675,12.93-39.628,23.451-55.409  c3.624-5.436,20.574-24.112,16.645-29.517c-5.045-6.939-11.303-12.836-16.521-19.584c-9.164-11.853-16.23-12.058-28.299-20.104  c-35.427-23.618-77.367-42.671-119.267-50.871c-7.874-1.541-15.694-3.333-23.59-4.765c26.633,8.75,56.684,14.76,81.614,27.596  c18.211,9.376,36.422,18.752,54.633,28.129c9.346,4.812,24.244,9.18,28.782,19.828c6.749,15.834-17.865,55.087-25.81,71.933  c-6.464,13.707-12.87,27.185-19.299,40.932c20.373-32.998,32.23-69.44,49.749-104.14c9.643,4.708,11.145,12.008,7.82,18.445  C382.085,146.51,366.855,176.003,351.625,205.497" id="path29"/>
  <path d="M176.572,0c-7.148,6.826,23.416,9.415,28.588,10.582  C195.246,8.052,185.763,4.486,176.572,0" id="path31" style="fill-rule:evenodd;clip-rule:evenodd;"/>
  <path d="M355.896,175.795c-3.401,9.495-10.2,16.989-15.315,25.524  c-5.944,9.917-8.292,21.111-12.717,31.652c-11.122,26.499-27.879,50.488-39.354,76.852c0.229,0.065,0.414,0.189,0.559,0.372  c18.012-11.574,27.939-46.67,40.096-64.601c9.498-14.009,19.475-20.563,21.163-37.684c1.646-16.679,3.416-30.513,10.864-45.922  c3.411-7.056,36.792-59.998,29.976-62.86C385.374,96.696,359.252,168.105,355.896,175.795" id="path33" style="fill-rule:evenodd;clip-rule:evenodd;"/>
  <path d="M392.28,103.769c-2.352-4.455-4.702-8.911-7.054-13.366c-9.425,25.517-19.461,50.864-28.589,76.481  C374.363,146.318,382.707,129.435,392.28,103.769" id="path35"/>
  <path d="M334.548,213.665c2.523-7.337,7.175-15.181,10.579-22.46  c-13.011,22.072-25.351,45.076-33.042,69.613C319.642,245.174,327.817,229.659,334.548,213.665" id="path37" style="fill-rule:evenodd;clip-rule:evenodd;"/>
  <path d="M191.238,18.935c19.09,6.06,38.686,8.208,58.103,12.715  c20.64,4.791,37.304,15.851,57.106,21.792c18.335,5.501,34.49,13.748,50.189,24.525c8.536,5.86,20.719,5.433,28.032,11.879  c-9.586-15.719-33.381-22.29-48.971-30.317c-16.115-8.297-31.697-17.581-48.929-23.242c-37.39-12.284-73.719-23.926-112.054-32.575  C178.52,9.683,185.874,15.556,191.238,18.935" id="path39" style="fill-rule:evenodd;clip-rule:evenodd;"/>
  <path d="M303.918,277.524c-6.497,9.601-14.434,20.035-15.594,31.928C293.813,298.999,298.777,288.203,303.918,277.524" id="path41"/>
  <path d="M334.548,213.665c1.732-3.651,3.465-7.302,5.197-10.953C337.714,205.967,335.487,210.885,334.548,213.665" id="path43"/>
  <path d="M288.139,309.266c-0.21,0.34,3.107-4.786,3.713-6.682C290.845,304.823,289.077,307.593,288.139,309.266" id="path45"/>
  <path d="M271.618,339.711c1.933-2.991,3.735-6.052,5.197-9.282  c-3.837,6.002-7.673,12.003-11.51,18.005C268.125,345.937,270.104,342.726,271.618,339.711" id="path47" style="fill-rule:evenodd;clip-rule:evenodd;"/>
  <path d="M36.233,171.341c-1.857,5.949-2.226,12.772,2.414,17.448  c5.198-8.848,10.396-17.697,15.594-26.545C47.656,164.03,40.569,166.542,36.233,171.341" id="path49" style="fill-rule:evenodd;clip-rule:evenodd;"/>
  <path d="M31.036,201.414c-15.058-5.238-24.86,16.494-12.623,24.317C22.389,217.488,26.123,209.157,31.036,201.414" id="path51"/>
  <path d="M60.738,144.237c14.856-4.901,27.504-41.263,36.012-54.39  c-10.4-1.641-16.436,4.795-14.85,14.294c1.026,6.146-5.546,6.096-8.354,9.653c-3.938,4.988-3.22,5.699-5.013,11.323  c-1.302,4.084,3.783,8.418-2.413,9.653c-3.974,0.792-9.47,0.747-12.529,3.806c-4.759,4.76-1.13,16.188,2.506,20.511  C60.188,154.23,61.712,149.882,60.738,144.237" id="path53" style="fill-rule:evenodd;clip-rule:evenodd;"/>
  <path d="M265.305,376.28c-12.051-9.661,9.28-30.971,16.15-41.396c2.399-3.642,7.88-8.923,6.313-13.366  c-2.871-8.14-10.861,9.223-12.438,11.882c-10.641,17.941-37.052,49.243-3.897,63.115  C267.048,389.125,264.093,385.145,265.305,376.28" id="path55"/>
  <path d="M281.271,317.805c-13.604,10.256-20.988,25.483-28.589,40.282  c-5.845-5.621-34.525-14.703-44.365-15.964c15.717,6.931,31.433,13.861,47.149,20.792  C256.287,352.762,288.919,324.043,281.271,317.805" id="path57" style="fill-rule:evenodd;clip-rule:evenodd;"/>
  <path d="M276.815,330.429c2.66-3.679,5.235-7.447,7.24-11.51c-0.115,0.112-0.436,0.043-0.372-0.187c-0.124,0-0.247,0-0.371,0  C281.165,322.644,279.046,326.55,276.815,330.429" id="path59"/>
  <path d="M255.654,359.944c-0.059,1.056-0.107,2.272,0.185,3.156  c3.155-4.889,6.312-9.777,9.467-14.666C261.52,351.725,257.899,355.632,255.654,359.944" id="path61" style="fill-rule:evenodd;clip-rule:evenodd;"/>
  <path d="M163.765,132.357c0.607,11.018,26.574,16.828,35.733,21.626  c9.089,4.762,16.758,9.304,24.783,15.871c10.88,8.904,18.075,8.627,30.814,10.768c8.834,1.484,13.639,5.88,23.391,1.484  c11.674-5.262,12.806-21.882,20.048-33.599c5.175-8.372,22.015-28.704,17.451-39.912c-4.891-12.013-44.627-20.074-56.063-24.132  c-10.753-3.816-21.505-7.681-32.114-11.881c-8.307-3.289-19.164-12.71-24.411-3.712c-6.518,11.175-12.543,20.569-19.584,31.373  C178.699,108.09,171.523,127.752,163.765,132.357 M178.985,115.279c3.596-8.828,12.031-19.083,18.193-26.267  c9.093-10.602,13.479-10.266,26.73-5.662c27.632,9.6,54.102,20.104,81.494,30.444c-10.192,17.345-16.463,37.764-26.731,54.576  c-5.107,8.361-4.463,7.396-13.923,3.528c-5.385-2.202-9.889-5.783-15.592-7.61c-15.986-5.123-28.153-11.846-43.619-19.328  c-3.667-1.775-29.933-12.99-29.244-14.83C178.113,125.272,179.368,120.479,178.985,115.279" id="path63" style="fill-rule:evenodd;clip-rule:evenodd;"/>
  <path d="M231.334,159.831c6.106,2.521,12.695,2.749,18.936,4.827  c7.194,2.396,13.03,7.834,20.141,10.024c9.588,2.953,12.225-17.532,15.686-25.061c5.658-12.307,12.449-24.158,19.307-35.827  c-19.173-7.238-37.203-17.791-56.805-23.576c-16.828-4.966-36.696-17.309-49.75-3.341c-9.542,10.21-17.322,22.465-20.233,35.549  c-2.93,13.164,6.443,12.72,18.37,18.491C208.707,146.589,221.169,152.568,231.334,159.831" id="path65" style="fill-rule:evenodd;clip-rule:evenodd;fill:#FFFFFF;"/>
  <path d="M319.51,286.434c-6.435,13.335-13.953,26.111-20.232,39.539  C307.312,313.499,314.335,300.346,319.51,286.434" id="path67" style="fill-rule:evenodd;clip-rule:evenodd;"/>
  <path d="M331.205,254.32c-13.683,15.45-21.12,34.328-28.332,53.387  c-2.799,7.394-11.372,20.004-10.464,28.105c7.975-15.241,17.25-31.279,23.761-47.522  C319.648,279.613,332.913,262.563,331.205,254.32" id="path69" style="fill-rule:evenodd;clip-rule:evenodd;"/>
  <path d="M240.616,369.783c-3.31-7.117-10.363-7.007-17.077-8.445  c-6.949-1.489-10.292-7.897-17.078-11.231c-8.733-4.291-18.092-4.99-27.406-6.854c-11.762-2.354-22.561-10.259-32.588-16.452  c-23.882-14.75-51.499-25.349-77.437-36.295c-15.572-6.572-36.791-14.871-48.76-27.646c4.085,3.91,6.088,9.971,0.371,12.81  c16.357,13.891,37.836,16.38,56.99,24.502c32.577,13.813,63.121,34.166,94.859,50.03c18.423,9.208,37.184,17.865,56.805,24.224  c3.302,1.07,22.669,10.213,26.36,6.684c0.681-0.65-0.575-10.307-0.929-10.767C250.613,364.986,246.936,369.694,240.616,369.783" id="path71" style="fill-rule:evenodd;clip-rule:evenodd;fill:#FFFFFF;"/>
  <path d="M255.466,377.023c0.164-2.788,1.417-4.019-0.371-6.497  C255.077,372.621,255.378,375.583,255.466,377.023" id="path73" style="fill-rule:evenodd;clip-rule:evenodd;fill:#FFFFFF;"/>
  <path d="M143.345,227.403c-1.497-0.57-2.758-0.97-3.899-2.229  c12.075-5.272,24.201-10.577,36.386-15.594c6.22-2.561,32.275-7.091,25.152-17.264c-11.766-16.805-25.425-11.106-42.231-6.312  c-7.776,2.219-43.382,7.004-45.852,15.965c-3.711,13.466,33.777,12.077,21.348,35.455c20.915-4.286,42.987-7.768,59.588-22.275  c-0.02,0.368-0.643,1.441-0.557,1.671c2.162-2.345,3.98-5.155,5.569-7.981C180.811,216.203,163.06,224.257,143.345,227.403" id="path75" style="fill-rule:evenodd;clip-rule:evenodd;fill:#FFBFBF;"/>
  <path d="M190.31,222.39c1.262-1.835,2.384-3.374,2.969-5.569c-2.97,2.784-5.94,5.569-8.91,8.354  C186.346,224.27,188.397,223.425,190.31,222.39" id="path77"/>
  <path d="M161.722,232.6c-10.829,2.97-21.657,5.94-32.486,8.91c8.335-20.692,1.086-22.461-16.818-33.027  c-18.809-11.1,15.289-16.338,21.075-17.891c17.341-4.655,34.683-9.309,52.024-13.963c4.824-1.295,10.496,8.217,12.474,11.081  c7.495,10.85,8.087,10.089,0.858,21.129c23.76-5.501,0.134-30.68-11.694-35.086c-15.264-5.686-38.658,2.729-53.111,7.914  c-7.663,2.75-20.981,5.054-27.268,10.093c-2.321,1.86-6.375,11.304-9.653,14.851c-8.69,9.401-15.719,12.121-6.775,24.503  c8.632,11.951,19.221,16.66,33.321,16.15c7.581-0.274,15.542-2.154,23.762-3.527C149.691,243.36,158.426,234.283,161.722,232.6   M121.069,241.325c-7.491-0.695-14.189-3.838-20.049-8.446c-8.257-6.492-6.249-6.667-3.527-12.531  c9.733-20.974,23.105-2.74,35.827,6.684C129.736,232.278,127.367,238.857,121.069,241.325" id="path79"/>
  <path d="M192.908,180.623c-7.565-7.773-20.051-0.596-28.664,1.716  c-16.328,4.382-32.655,8.765-48.982,13.146c-13.61,3.653-5.102,11.666,3.742,16.885c15.429,9.105,17.064,12.179,10.232,29.141  c14.289-3.896,56.784-9.233,64.6-26.36c-16.601,14.508-38.673,17.989-59.588,22.275c12.814-24.103-23.825-20.091-21.533-34.898  c1.375-8.888,38.72-14.434,46.037-16.521c12.819-3.657,34.257-12.346,41.581,5.383c5.194,12.574-13.389,13.814-22.914,17.566  c-12.769,5.03-25.396,10.728-37.974,16.22c7.686,6.249,36.447-5.494,45.295-8.91c3.015-1.164,8.593-4.136,11.138-6.127  C209.722,199.304,202.324,192.996,192.908,180.623" id="path81" style="fill-rule:evenodd;clip-rule:evenodd;"/>
  <path d="M118.098,215.707c-11.549-13.446-9.027-3.104-18.006,2.507  c-7.777,4.859-7.157,6.919-0.371,13.644c14.852,14.717,24.263,8.843,33.599-4.826C128.239,223.267,123.134,219.522,118.098,215.707" id="path83" style="fill-rule:evenodd;clip-rule:evenodd;fill:#FF8080;"/>
  <path d="M302.247,184.892c-14.661-2.59-40.56,13.358-54.576,18.748  c-18.712,7.197-35.801,17.47-54.204,25.248c0.852,2.188,2.439,5.919,3.341,7.797c16.091-1.609,29.216-14.149,44.645-18.564  c6.11-1.748,26.234-10.636,29.237-7.611c1.856-0.928,3.713-1.856,5.569-2.784c-0.511,0.101-2.226,0.86-2.6,0.743  C283.393,200.941,296.133,196.218,302.247,184.892" id="path85" style="fill-rule:evenodd;clip-rule:evenodd;fill:#D010B1;"/>
  <path d="M208.13,238.168c-2.83,0.552-11.908,4.028-14.294,2.785c-3.41-1.776-6.467-12.305-3.898-14.758  c8.862-8.46,24.723-12.672,35.718-17.869c16.349-7.729,33.676-13.085,50.417-19.907c-6.511-10.743-76.912,28.337-86.878,35.455  c-5.895,4.211-10.19,9.365-16.892,12.716c-8.43,4.216-23.543,3.251-23.948,12.717c-1.062,24.819,42.773,4.117,50.68,0.185  c16.378-8.146,29.479-19.655,47.335-25.339c7.235-2.303,22.386-5.924,24.318-13.645C250.365,221.104,229.333,229.444,208.13,238.168   M155.596,251.164c-1.637-4.062-0.224-8.91,4.919-8.91c4.242,0,3.53,7.269,6.034,7.61c9.635,1.314,1.22-4.4,3.341-8.169  c0.905-1.608,18.248-13.792,18.941-6.001C189.86,247.252,166.324,257.734,155.596,251.164" id="path87"/>
  <path d="M294.822,181.179c5.074,0.433,10.147,0.866,15.222,1.299c-11.083,9.605-20.787,18.538-33.785,25.246  c7.428-1.778,48.519-16.64,38.055-31.743c-4.819-6.956-29.87,1.983-30.073,9.282C287.595,183.982,292.183,182.33,294.822,181.179" id="path89"/>
  <path d="M276.073,188.419c5.151-0.65,9.416-3.173,9.282-8.54c-4.628,1.477-9.257,2.939-13.737,4.827  C273.973,185.428,274.326,187.212,276.073,188.419" id="path91"/>
  <path d="M190.31,222.39c-11.06,5.843-37.837,7.531-41.768,21.161C164.309,240.402,180.029,235.59,190.31,222.39" id="path93"/>
  <path d="M161.722,232.6c7.573-2.047,16.236-3.091,22.647-7.426  C177.13,228.173,169.03,229.159,161.722,232.6" id="path95" style="fill-rule:evenodd;clip-rule:evenodd;"/>
  <path d="M310.043,182.479c-14.954-1.108-17.609,1.822-28.217,5.941c-14.367,5.579-33.112,9.659-49.008,16.521  c-10.574,4.564-33.514,10.715-40.839,19.307c-3.223,3.779-4.903,13.186,1.856,16.707c3.444,1.794,14.386-2.823,18.458-4.498  c8.043-3.311,57.174-18.146,57.839-27.616c-12.483,4.936-26.085,7.126-38.427,12.251c-11.881,4.934-21.628,14.267-34.898,15.594  c-0.901-1.878-2.489-5.609-3.341-7.797c17.602-7.439,33.952-17.33,51.791-24.319c14.39-5.638,41.888-22.344,56.989-19.676  c-6.005,11.125-19.484,16.601-28.401,23.389C288.006,204.3,299.045,192.01,310.043,182.479" id="path97"/>
  <path d="M283.683,186.563c-0.138-0.052-4.241,0.163-7.61,2.042  c0.029,0.015,0.432,0.192,0.186,0.372C280.067,190.154,280.858,188.086,283.683,186.563" id="path99" style="fill-rule:evenodd;clip-rule:evenodd;"/>
  <path d="M172.675,236.684c-7.77,3.694,2.219,6.602-0.372,10.395  c-5.197,7.608-3.101,0.266-7.425-0.556c-1.226-0.232-11.981-8.983-10.395,2.041c1.732,12.036,24.184,0.86,28.586-3.156  C197.907,231.873,183.172,235.98,172.675,236.684" id="path101" style="fill-rule:evenodd;clip-rule:evenodd;fill:#FFFFFF;"/>
</svg>
