<?xml version="1.0" encoding="UTF-8" standalone="no"?>
<!-- Generator: Adobe Illustrator 12.0.0, SVG Export Plug-In . SVG Version: 6.00 Build 51448)  --><svg height="415.018" id="Layer_1" inkscape:version="0.42" sodipodi:docbase="F:\openclip\svg da inviare" sodipodi:docname="Martellare.svg" sodipodi:version="0.32" space="preserve" style="overflow:visible;enable-background:new 0 0 255.852 415.018;" version="1.1" viewBox="0 0 255.852 415.018" width="255.852" xmlns="http://www.w3.org/2000/svg" xmlns:cc="http://web.resource.org/cc/" xmlns:dc="http://purl.org/dc/elements/1.1/" xmlns:inkscape="http://www.inkscape.org/namespaces/inkscape" xmlns:rdf="http://www.w3.org/1999/02/22-rdf-syntax-ns#" xmlns:sodipodi="http://inkscape.sourceforge.net/DTD/sodipodi-0.dtd" xmlns:svg="http://www.w3.org/2000/svg">
  <metadata>
    <rdf:RDF xmlns:cc="http://web.resource.org/cc/" xmlns:dc="http://purl.org/dc/elements/1.1/" xmlns:rdf="http://www.w3.org/1999/02/22-rdf-syntax-ns#">
      <cc:Work rdf:about="">
        <dc:title>Various Cliparts</dc:title>
        <dc:description></dc:description>
        <dc:subject>
          <rdf:Bag>
            <rdf:li></rdf:li>
          </rdf:Bag>
        </dc:subject>
        <dc:publisher>
          <cc:Agent rdf:about="http://www.openclipart.org/">
            <dc:title></dc:title>
          </cc:Agent>
        </dc:publisher>
        <dc:creator>
          <cc:Agent>
            <dc:title>Architetto Francesco Rollandin</dc:title>
          </cc:Agent>
        </dc:creator>
        <dc:rights>
          <cc:Agent>
            <dc:title>Architetto Francesco Rollandin</dc:title>
          </cc:Agent>
        </dc:rights>
        <dc:date></dc:date>
        <dc:format>image/svg+xml</dc:format>
        <dc:type rdf:resource="http://purl.org/dc/dcmitype/StillImage"/>
        <cc:license rdf:resource="http://web.resource.org/cc/PublicDomain"/>
        <dc:language>en</dc:language>
      </cc:Work>
      <cc:License rdf:about="http://web.resource.org/cc/PublicDomain">
        <cc:permits rdf:resource="http://web.resource.org/cc/Reproduction"/>
        <cc:permits rdf:resource="http://web.resource.org/cc/Distribution"/>
        <cc:permits rdf:resource="http://web.resource.org/cc/DerivativeWorks"/>
      </cc:License>
    </rdf:RDF>
  </metadata>
  <defs id="defs100"/>
  <sodipodi:namedview bordercolor="#666666" borderopacity="1.0" id="base" inkscape:current-layer="Layer_1" inkscape:cx="127.92600" inkscape:cy="207.50900" inkscape:pageopacity="0.0" inkscape:pageshadow="2" inkscape:window-height="712" inkscape:window-width="1024" inkscape:window-x="-4" inkscape:window-y="-4" inkscape:zoom="0.86743224" pagecolor="#ffffff"/>
  <path d="M150.951,165.001c0.229,9.158,0.458,18.317,0.688,27.475  c2.563-0.156,5.125-0.312,7.687-0.467c0.096,3.801,0.19,7.602,0.286,11.403c11.425-13.065,24.126-25.115,35.893-37.876  c-6.298-1.941-12.522-4.303-18.787-6.403C172.042,157.565,156.55,163.986,150.951,165.001" id="path3" style="fill-rule:evenodd;clip-rule:evenodd;fill:#00A0C6;"/>
  <path d="M34.18,195.416c-16.632-13.51-19.088,19.674-19.613,29.222  c-0.742,13.496-2.846,28.77,4.73,40.708c6.775,10.677,13.493,30.92,29.136,21.679c11.648-6.882,22.239-21.372,29.985-32.231  c3.348,4.197,7.05,8.262,10.75,12.104c-26.421,19.619-52.116,40.505-77.93,60.924c-0.794-31.736-1.588-63.469-2.383-95.204  c-0.796-31.8,4.139-64.219,6.699-95.929c1.252-15.517,2.542-31.043,3.963-46.545c0.878-9.58,1.438-9.788,10.893-12.438  c6.888-1.931,14.102-3.81,21.243-4.445c4.723-0.42,15.682-1.989,15.742,5.314c0.084,10.245,0.167,20.491,0.251,30.736  c0.069,8.418,0.138,16.836,0.207,25.255c0.05,6.149,8.81,16.685,11.77,22.218c2.02,3.777-1.208,14.922-1.613,19.098  c-0.754,7.777,0.778,11.737-6.048,15.444c-7.376,4.006-7.276,3.595-7.08,11.435c0.131,5.215,0.634,10.827-0.841,15.829  C53.53,212.904,43.22,203.192,34.18,195.416" id="path5" style="fill-rule:evenodd;clip-rule:evenodd;fill:#00A0C6;"/>
  <path d="M234.749,289.096c-22.099,37.943-44.197,75.887-66.296,113.83  c13.984,0.531,27.97,1.063,41.954,1.595c8.309,0.315,29.084,5.919,31.127-3.63c0.772-3.618,7.124-25.262,4.707-26.099  c-7.426-2.573-13.69-4.559-13.79-12.783c-0.102-8.341,5.587-15.123,12.019-19.547c9.674-6.654,8.018-5.893-1.231-13.509  c-7.006-5.771-8.978-6.663-5.103-14.374c1.291-2.568,5.985-7.185,6.072-10.051C244.333,300.352,237.062,292.958,234.749,289.096" id="path7" style="fill-rule:evenodd;clip-rule:evenodd;fill:#E6DC96;"/>
  <path d="M163.028,4.964c-6.593-0.688-12.832-3.526-17.744,1.203  c-8.243,7.936-16.486,15.872-24.73,23.807c-15.725,15.139-31.451,30.278-47.176,45.417c7.775,0.218,15.736-0.001,23.492-0.588  c-6.66,6.856-11.745,9.499-12.854,19.154c-1.067,9.289-1.339,17.916-1.105,27.246c0.223,8.92-4.664,16.256,0.605,24.179  c4.139,6.223,11.552,9.196,15.573,15.281c5.263,7.963-1.86,19.394-4.169,28.422c-2.134,8.34-2.901,8.6-9.152,13.288  c-6.962,5.222-8.308,9.959-5.862,18.429c1.801,6.238,0.747,5.312,7.879,7.227c7.39,1.984,15.229,3.521,22.84,4.279  c6.808,0.679,27.433,2.447,32.847-3.749c3.896-4.46,4.063-27.878,4.093-34.194c0.039-8.354-2.067-16.654-2.279-25.099  c-0.077-3.106-1.558-13.679,1.713-13.995c5.721-0.554,15.94,1.194,20.998-1.418c7.02-3.625,9.201-26.071,11.364-34.813  c1.543-6.232,3.075-12.468,4.661-18.691c1.807-7.09-2.997-8.027-8.875-12.247c-4.606-3.306-8.997-4.881-9.452-9.661  c-0.509-5.334,4.37-13.928,5.844-19.184c3.273-11.672,18.597-25.446,25.971-35.11c4.995-6.544,9.82-13.218,14.858-19.729  c-6.608-0.016-27.13-5.102-31.661-0.632c-13.361,13.181-26.722,26.362-40.084,39.543C148.089,30.541,155.559,17.752,163.028,4.964" id="path9" style="fill-rule:evenodd;clip-rule:evenodd;fill:#8C8C8C;"/>
  <path d="M103.204,262.009c-0.416,31.739-0.487,63.284-2.984,94.925  c9.824-2.142,6.898-7.034,6.426-16.433c-0.548-10.926-1.397-21.129,0.199-31.915c2.405-16.252,3.186-30.308,8.748-45.926  C111.529,262.492,107.026,262.459,103.204,262.009" id="path11" style="fill-rule:evenodd;clip-rule:evenodd;fill:#CFCFCF;"/>
  <path d="M163.657,216.782c0.13,5.207,0.26,10.412,0.391,15.618  c0.15,6.021-2.707,6.24-7.773,9.726c-6.143,4.227-11.897,7.974-18.505,11.319c-9.352,4.735-17.109,6.823-17.751,17.835  c-1.093,18.75-2.441,37.483-3.516,56.235c-0.372,6.494,0.94,16.726-1.814,22.596c-2.462,5.249-4.75,10.789-6.672,16.25  c-4.119-4.82-10.474-10.184-13.183-15.892c-3.171-6.68-0.75-17.128-0.275-24.735c1.207-19.338,1.622-38.806,3.427-58.096  c-23.753,19.833-47.994,39.129-72.031,58.617c-4.071,3.301-14.861,9.181-17.157,13.858c-2.365,4.818-0.881,15.345-1.196,20.755  c-0.779,13.396-1.391,26.813-1.951,40.221c32.135,1.317,64.3,2.091,96.447,3.029c15.005,0.438,30.012,0.811,45.016,1.308  c8.78,0.29,12.071,1.954,16.491-5.714c4.59-7.958,9.103-15.956,13.609-23.961c16.02-28.451,32.431-56.68,48.45-85.13  c4.126-7.327,8.279-14.635,12.479-21.92c3.656-6.344,3.377-13.394,4.169-20.615c1.66-15.133,2.985-30.308,4.455-45.46  c0.389-4,4.349-29.456,1.739-29.818c-6.242-0.868-29.924-7.976-34.531-4.272c-11.235,9.031-22.47,18.062-33.705,27.092  C170.928,203.136,164.749,205.457,163.657,216.782" id="path13" style="fill-rule:evenodd;clip-rule:evenodd;fill:#D59758;"/>
  <path d="M255.852,385.342c-1.269-9.809-0.327-22.388-0.384-31.882  c-0.123-20.424-2.293-41.874-2.049-62.564c0.286-24.181-2.809-48.643-0.913-73.361c1.543-20.117,1.602-40.775,1.712-61.309  c0.083-15.647-0.073-31.292-0.465-46.934c-0.215-8.61-0.474-17.213-0.775-25.82c-0.156-4.414,1.45-12.372-1.235-16.119  c-5.972-8.333-24.142-4.405-33.235-4.254c-6.637,0.11-13.143,0.12-19.78,0.564c-4.061,0.272-17.858,4.117-20.971,2.519  c-8.04-4.129,8.129-26.733,10.486-30.435c4.283-6.723,32.105-27.146,30.833-32.321c-1.577-6.413-22.248-1.914-26.914-1.594  c-17.32,1.186,13.798,1.393,14.702,2.45c2.831,3.31-14.521,19.113-17.82,22.83c-12.498,14.081-37.696,42.015-18.617,59.186  c4.205,3.785,6.754,2.061,7.673,9.98c1.201,10.353-2.653,21.896-5.251,31.886c-3.887,14.948-3.997,25.763-22.052,25.158  c-0.683-0.023-9.532-0.173-9.528-0.221c-0.578,7.69-6.277,26.033-0.369,32.33c15.801,16.842,4.728-18.581,10.783-24.159  c3.815-3.515,11.929-0.847,16.701-2.754c3.476-1.389,5.603-3.989,8.01-4.05c2.028-0.052,27.697,7.042,28.301,10.289  c0.739,3.982-14.526,13.497-17.9,16.883c-2.798,2.807-23.541,26.509-28.218,24.412c-2.699-1.211-0.93-13.036-7.988-11.622  c-4.194,0.84,0.545,2.738,0.685,5.344c0.408,7.654,3.412,27.798-3.019,33.205c-8.138,6.842-33.012,3.74-42.809,3.026  c-7.169-0.522-24.297,1.105-29.796-3.958c-3.765-3.467-2.255-25.78-7.097-25.392c-0.143,0.012-0.949,0.043-1.098,0.028  c1.65,10.321-2.165,20.662,5.942,28.719c5.87,5.833,14.573,6.777,22.324,7.688c3.793,0.446,23.639,0.323,25.512,3.211  c1.243,1.916-0.894,1.335-3.24,2.418c-6.978,3.224-19.812,0.824-26.534-0.16c-2.082-0.305-4.478-4.07-6.23-1.77  c-2.25,2.955,42.005,16.381,46.337,5.989c0.944-2.264-1.133-5.598-2.916-6.663c7.631-1.371,14.387-2.028,20.339-5.732  c11.707-7.286,4.813-14.664,9.135-24.973c3.366-8.032,19.914-13.565,26.611-19.129c8.422-6.997,20.53-25.368,31.747-27.419  c4.563-0.835,12.634,3.722,17.165,4.793c6.575,1.555,11.88-0.362,12.314,7.293c0.76,13.438-3.355,26.575-3.02,40.026  c0.052,2.06-1.481,1.976-2.77,3.42c-5.901,6.621-10.872,13.674-15.693,21.099c-3.789,5.833-11.431,24.576-17.8,26.024  c6.035-16.243,16.942-28.89,25.586-43.254c10.152-16.871,1.502-11.091-6.017,1.25c-12.682,20.814-24.098,42.995-35.918,64.407  c-7.443,13.487-17.396,26.604-24.831,40.418c-0.66,1.226-1.517,2.347-2.388,3.429c7.288-1.7,9.792-14.115,15.983-14.973  c-11.681,27.22-27.467,52.136-41.482,78.157c2.992-0.981,4.354-4.355,6.376-7.236c11.662-16.614,21.603-34.217,31.598-51.863  c10.103-17.839,20.397-35.392,32.11-52.232c5.432-7.813,18.394-34.599,26.44-35.973c-11.189,23.853-22.378,47.696-33.848,71.414  c-6.334,13.096-12.753,26.143-19.295,39.135c-5.487,10.897-14.812,23.068-17.029,35.134c5.589-5.224,7.284-13.607,11.049-19.935  c7.622-12.812,15.758-24.972,22.546-38.368c12.523-24.719,26.135-49.289,43.03-71.183c0.32,31.522,3.721,62.766,6.48,94.138  c1.104,12.558-0.285,24.119-2.446,36.52c-2.092,12-19.896,5.967-30.007,5.43c-61.985-3.296-124.455-2.641-186.452,0.022  c-2.725,0.117-27.173-1.202-16.663,3.789c10.067,4.781,28.976,2.958,40.224,3.392c29.942,1.154,60.381,0.391,90.515,0.854  c28.979,0.446,58.088,0.424,86.995,0.891c6.882,0.111,14.975,0.84,19.595-2.552c6.392-4.693,4.45-11.802,5.425-19.383  C254.584,390.386,255.15,387.633,255.852,385.342" id="path15" style="fill-rule:evenodd;clip-rule:evenodd;"/>
  <path d="M247.322,148.843c0.128-11.975,0.255-23.95,0.383-35.924  c0.063-5.983-24.532-7.5-30.083-8.612c-9.064-1.817-17.184-4.505-26.036-7.405c-2.512,12.583-7.344,23.572-10.374,35.863  c-1.645,6.668-1.623,11.979-4.361,18.467c-1.135,2.691,0.899,0.419,1.409,0.852c3.273,2.775,16.304,1.667,20.678,2.37  c7.309,1.173,14.432,3.228,21.587,5.08c6.768,1.751,13.613,3.305,20.586,3.939C248.609,164.154,246.586,155.403,247.322,148.843" id="path17" style="fill-rule:evenodd;clip-rule:evenodd;fill:#8B5C29;"/>
  <path d="M247.118,96.749c0.923-3.805-0.893-15.409-1.699-18.378  c-2.271-8.371-8.154-7.017-16.392-6.876c-11.663,0.199-22.809-0.917-34.406-1.613c-6.695-0.402-20.888-4.505-18.554,5.688  c1.146,4.999,9.194,12.324,13.3,15.063c6.223,4.154,16.549,2.87,24.292,3.928C221.544,95.639,241.171,101.247,247.118,96.749" id="path19" style="fill-rule:evenodd;clip-rule:evenodd;fill:#00A0C6;"/>
  <path d="M238.632,389.348c-0.105-2.488-0.745-4.788-2.342-5.716  c-0.163,8.251,0.832,12.384-9.864,12.345C233.167,395.809,239.288,397.653,238.632,389.348" id="path21" style="fill-rule:evenodd;clip-rule:evenodd;"/>
  <path d="M241.931,241.078c-0.159,0.163-1.72,1.191-2.279,2.257  C240.941,242.803,241.292,241.726,241.931,241.078" id="path23" style="fill-rule:evenodd;clip-rule:evenodd;fill:#FFFFFF;"/>
  <path d="M235.318,372.247c-2.502-0.949-4.984-1.429-3.394-3.764  c-2.628-1.473-7.946-2.457-5.468,1.236c-3.063,0.474-6.532,0.776-9.164,1.88C220.708,373.4,233.533,375.284,235.318,372.247" id="path25" style="fill-rule:evenodd;clip-rule:evenodd;"/>
  <path d="M239.608,192.199c-5.696-6.268-37.57,35.561-40.408,44.175  c6.423-4.639,12.096-10.143,17.051-16.235C223.506,211.219,234.571,202.315,239.608,192.199" id="path27" style="fill-rule:evenodd;clip-rule:evenodd;"/>
  <path d="M236.092,205.484c-4.358-6.125-10.131,8.572-11.677,11.289  c-8.252,14.506-16.705,28.705-22.811,44.284c4.874-4.537,7.76-11.522,11.397-16.917  C221.358,231.752,229.038,218.376,236.092,205.484" id="path29" style="fill-rule:evenodd;clip-rule:evenodd;"/>
  <path d="M232.042,312.808c-1.444-1.091-12.912-0.66-11.24,1.243  C223.094,316.659,230.958,314.032,232.042,312.808" id="path31" style="fill-rule:evenodd;clip-rule:evenodd;"/>
  <path d="M234.454,183.942c-1.844-4.177-14.029,10.855-16.408,13.313  c-9.026,9.323-17.273,19.437-25.338,29.59c-12.139,15.281-29.02,31.411-37.474,48.845c3.967-2.02,7.905-7.357,11.281-11.036  c10.145-11.053,19.791-22.469,29.411-33.977c9.733-11.643,19.286-23.436,29.551-34.62C228.8,192.439,232.73,188.161,234.454,183.942  " id="path33" style="fill-rule:evenodd;clip-rule:evenodd;"/>
  <path d="M237.05,78.992c-4.324-2.978-26.088-6.098-30.288-1.854  C213.211,77.855,232.957,83.505,237.05,78.992" id="path35" style="fill-rule:evenodd;clip-rule:evenodd;"/>
  <path d="M229.931,321.795c-1.287-0.662-15.805-3.546-13.086-1.047  C219.098,322.82,228.393,324.252,229.931,321.795" id="path37" style="fill-rule:evenodd;clip-rule:evenodd;"/>
  <path d="M226.519,180.018c-3.357-5.053-12.821,7.098-14.783,9.413  c-16.09,18.99-31.996,38.029-46.899,57.978c11.146-6.155,21.471-21.472,29.949-30.923  C205.529,204.506,216.419,192.548,226.519,180.018" id="path39" style="fill-rule:evenodd;clip-rule:evenodd;"/>
  <path d="M227.456,85.556C213.527,82.317,225.148,90.675,227.456,85.556" id="path41" style="fill-rule:evenodd;clip-rule:evenodd;"/>
  <path d="M211.158,395.533c-9.355-1.678-26.319-2.46-34.442,2.513  C186.219,399.176,203.349,399.395,211.158,395.533" id="path43" style="fill-rule:evenodd;clip-rule:evenodd;"/>
  <path d="M216.148,177.527c-8.689-1.347-24.336,21.833-28.931,30.417  C193.513,207.723,215.636,183.295,216.148,177.527" id="path45" style="fill-rule:evenodd;clip-rule:evenodd;"/>
  <path d="M206.431,272.622c-0.936,1.551-1.89,3.128-2.769,4.743  C204.642,275.822,205.541,274.172,206.431,272.622" id="path47" style="fill-rule:evenodd;clip-rule:evenodd;fill:#FFFFFF;"/>
  <path d="M201.801,312.877c-0.296-1.236-0.025-1.627-1.429-2.163  c-2.04-0.778-17.469,29.362-19.035,32.307c-2.933,5.512-27.355,54.789-25.222,55.815  C156.934,399.23,202.708,321.374,201.801,312.877" id="path49" style="fill-rule:evenodd;clip-rule:evenodd;"/>
  <path d="M201.673,280.301c-1.095,2.158-2.223,4.314-3.413,6.409  C199.397,284.576,200.487,282.408,201.673,280.301" id="path51" style="fill-rule:evenodd;clip-rule:evenodd;fill:#FFFFFF;"/>
  <path d="M194.389,390.178c-2.939,0.49-6.489,1.032-9.17,1.604  c0.003,0.092,0.005,0.185,0.007,0.276C188.38,392.523,193.888,392.181,194.389,390.178" id="path53" style="fill-rule:evenodd;clip-rule:evenodd;"/>
  <path d="M183.73,2.798c-6.704-5.9-27.808,22.861-32.711,27.625  c-4.174-9.53,27.369-22.399,10.992-27.631C142.68-3.385,123.439,23.26,111.33,33.916C98.819,44.923,86.561,56.22,74.611,67.834  c-9.476,9.209-10.879,3.564-24.443,2.915c-10.092-0.483-21.846,1.792-32.117,2.041c-4.727,0.115-6.813-1.563-10.072,3.964  c-4.408,7.475-0.617,24.607-0.717,33.503c-0.167,14.838-1.017,29.659-1.317,44.489c-0.514,25.401-3.227,51.443-4.284,77.095  c-1.32,32.027-1.968,63.982-1.518,96.035c0.212,15.054,0.9,30.089,1.689,45.119c0.485,9.242-1.618,27.419,3.278,34.019  c3.351-10.882,4.199-29.353,2.486-40.751c-1.451-9.652,2.131-8.902,8.387-13.683c2.587-1.977,32.246-25.262,28.934-30.278  c-0.353-0.535-30.534,24.283-33.46,26.688c-1.648,1.355-3.478,1.361-2.886-1.447c0.59-2.795,5.805-5.788,7.92-7.622  c19.835-17.207,40.639-32.955,58.206-52.594c5.882-6.576,15.729-11.938,19.016-20.134c-5.387,0.667-9.57,5.814-13.518,9.138  c-8.611,7.249-17.833,14.666-26.808,21.84c-12.131,9.694-23.721,20.099-35.719,29.964c-1.689,1.39-6.455,6.874-8.612,5.786  c-2.227-1.123-1.287-19-1.273-21.769c0.127-26.068,3.017-52.148,4.135-78.102c0.85-19.733,1.595-40.939,3.018-61.271  c0.929-13.286,3.676-26.358,3.832-39.662c0.13-11.111,0.26-22.224,0.391-33.336c0.061-5.145-1.945-15.727,1.843-19.094  c4.809-4.275,21.954-2.132,27.534-1.101c5.064,0.936,10.442,1.581,15.549,0.641c3.285-0.604,1.419,5.544,1.511,7.738  c0.827,19.783,1.653,39.566,2.479,59.348c0.279,6.688,0.701,4.976,3.46,8.126c4.567,5.214,5.786,2.11,6.129,11.363  c0.439,11.815,0.969,15.998-3.562,25.275c-1.127,2.308-6.447,4.78-0.546,5.65c11.157,1.645,12.085-23.038,12.067-28.62  c-0.053-16.635-7.543-11.406-12.209-21.001c-2.767-5.69-0.117-17.796,0.469-23.502c1.355-13.178-0.884-30.601,2.537-43.105  c1.47-5.372,6.866-12.11,10.317-16.205c13.4-15.898,31.873-29.205,47.21-43.224c7.801-7.129,14.114-17.33,25.396-16.191  c-4.89,9.819-11.155,18.915-17.085,28.124c-1.209,1.876-12.155,18.565-7.046,15.223C152.671,37.805,171.007,19.042,183.73,2.798" id="path55" style="fill-rule:evenodd;clip-rule:evenodd;"/>
  <path d="M165.118,165.333c-1.485-1.004-5.41-3.208-7.346-2.428  c-2.544,1.026-4.369,8.376-1.961,9.534C152.357,170.779,165.942,163.188,165.118,165.333" id="path57" style="fill-rule:evenodd;clip-rule:evenodd;"/>
  <path d="M155.284,354.592c-1.196-3.824-3.977,3.297-5.354,5.771  c-5.007,8.995-9.051,18.424-13.415,27.726c-4.798,10.229,7.563-10.087,8.654-11.936  C149.084,369.525,153.212,361.691,155.284,354.592" id="path59" style="fill-rule:evenodd;clip-rule:evenodd;"/>
  <path d="M133.266,386.624C129.333,383.65,122.233,416.663,133.266,386.624" id="path61" style="fill-rule:evenodd;clip-rule:evenodd;"/>
  <path d="M130.928,375.548c-3.77,0.188-13.262,21.77-12.22,22.574  C121.569,400.331,130.241,378.725,130.928,375.548" id="path63" style="fill-rule:evenodd;clip-rule:evenodd;"/>
  <path d="M134.21,105.76c0.572-15.014-1.905-16.653-16.559-18.968  c-5.404-0.854-24.547-4.738-26.503,1.075c7.41,1.04,29.56-0.241,33.164,6.868c2.166,4.273-2.342,16.823-3.267,21.475  c-1.576,7.933-3.33,15.896-4.257,23.939c-0.808,7.006,1.035,9.802-5.063,11.949c-2.787,0.981-7.527,0.157-10.385-0.29  c-6.223-0.973-8.86-5.474-9.833-11.163c-0.871-5.093,4.098-24.43-1.508-27.318c-2.365-1.218-2.749,19.535-2.856,23.166  c-0.278,9.34,1.229,15.144,11.453,18.271c5.628,1.721,18.439,3.358,23.23-0.032c4.917-3.478,6.366-13.957,7.013-19.145  C130.115,125.37,133.248,115.93,134.21,105.76" id="path65" style="fill-rule:evenodd;clip-rule:evenodd;"/>
  <path d="M120.53,229.271c-5.449-3.848-14.473-2.159-20.96-2.638  c-4.913-0.362-12.241,0.167-16.167-3.307c-2.36-2.088-3.575-12.402-4.829-11.701c-5.845,3.271,0.375,17.782,5.959,18.341  C92.626,230.775,115.776,236.333,120.53,229.271" id="path67" style="fill-rule:evenodd;clip-rule:evenodd;"/>
  <path d="M120.993,192.831c-0.68-3.535-10.515,0.831-10.242-2.768  c0.041-0.544,9.833-4.316,10.421-6.584c-4.972,0.565-14.052,4.072-18.003,0.176c4.719-2.496,9.204-3.511,15.135-4.916  c-6.375-0.333-18.977,1.757-23.574-2.709c3.42-0.635,6.841-1.271,10.262-1.907c-1.383-1.868-2.375-1.308-5.781-1.471  c-8.81-0.42-8.097-0.613-8.929,6.926c-0.304,2.748-3.463,11.467-2.403,13.806C91.112,200.521,116.229,196.658,120.993,192.831" id="path69" style="fill-rule:evenodd;clip-rule:evenodd;"/>
  <path d="M116.239,299.486c0.198-6.96,3.846-30.835-1.831-34.733  c-1.996,18.312-3.612,36.603-4.948,54.973c-0.616,8.47-7.362,33.963-0.918,40.162c5.211-4.351,5.207-16.378,5.625-22.41  C115.034,324.963,116.322,311.972,116.239,299.486" id="path71" style="fill-rule:evenodd;clip-rule:evenodd;"/>
  <path d="M107.322,377.101c-0.711-6.735-10.511,8.951-12.168,10.889  c-2.528,2.958-2.099-2.799-2.472-2.687c-4.101,1.232-6.997,9.003-11.806,11.704c0.3-0.169-11.717-2.256-7.6,3.902  c2.671,3.995,16.193-11.244,16.832-3.033C97.337,393.386,104.177,384.513,107.322,377.101" id="path73" style="fill-rule:evenodd;clip-rule:evenodd;"/>
  <path d="M108.704,284.002c-5.596-0.313-7.189-4.473,0.25-6.467  c-5.128-1.069-4.096-3.832-0.982-6.299c-9.643-0.444,0.531-4.494-0.031-6.735c0.301,1.202-6.689-2.924-6.532-2.86  c-2.026-0.822-2.203-7.202-4.638,1.491c-0.514,1.836,1.264,7.431,1.411,9.144c0.625,7.296,0.772,14.816,0.402,22.134  c-0.764,15.088-2.242,30.185-2.55,45.29c-0.159,7.818-3.082,20.477,6.144,24.058c7.208,2.799,1.784-1.45,1.724-2.517  c-0.886-15.847-1.881-32.584-1.455-49.066c0.21-8.147-1.808-19.295,2.747-25.61C106.422,284.861,108.251,287.014,108.704,284.002" id="path75" style="fill-rule:evenodd;clip-rule:evenodd;"/>
  <path d="M84.879,298.757c-1.675-2.479-13.319,10.98-16.171,13.542  c-9.155,8.223-19.235,15.508-29.013,22.96c-5.512,4.202-28.571,19.11-28.837,26.797c-0.195,5.649,5.651,1.604,6.146,3.833  c0.651,2.934-5.151,4.859-3.885,9.582c0.237,0.883,5.386,0.085,5.228,0.144c-3.346,4.067-6.204,6.686-7.415,11.322  c-0.27,1.034,2.621,1.021,2.534,2.411c-0.104,1.653-3.491,2.672-2.771,4.604c1.711,4.595,1.419,3.745,6.454-0.515  c7.484-6.332-1.008,2.961-1.015,3.678c-0.065,7.379,13.074-5.476,14.775-8.344c5.866-9.887-7.331,2.268-10.248,2.457  c1.765-2.477,15.653-12.772,13.486-15.871c-1.769-2.528-11.691,5.438-4.182-2.318c0.871-0.9,17.297-14.549,13.997-17.448  c-2.169-1.905-22.488,16.766-25.49,19.609c-0.04-0.068-0.773-0.91-0.848-0.942c13.08-9.699,26.61-24.507,37.078-37.285  c4.566-5.572-13.805,9.956-13.392,6.038c0.736-6.973,21.276-20.602,26.849-25.69C74.009,311.981,81.152,305.854,84.879,298.757" id="path77" style="fill-rule:evenodd;clip-rule:evenodd;"/>
  <path d="M68.159,399.664C65.167,395.727,63.659,407.619,68.159,399.664" id="path79" style="fill-rule:evenodd;clip-rule:evenodd;"/>
  <path d="M68.544,156.892c-9.409-3.846-5.299-18.521-7.679-26.751  c-0.074,6.473-3.557,20.417,1.058,25.816C64.16,158.574,68.258,160.33,68.544,156.892" id="path81" style="fill-rule:evenodd;clip-rule:evenodd;"/>
  <path d="M66.058,255.24c-7.132,2.079-29.049,13.363-32.754,20.478  c-3.48,6.683-0.06,8.039,6.058,5.897C47.341,278.82,63.552,264.203,66.058,255.24" id="path83" style="fill-rule:evenodd;clip-rule:evenodd;"/>
  <path d="M65.335,242.886c-6.613-1.811-17.43,1.238-24.548,1.981  c-5.372,0.562-13.206-0.771-15.545,5.346c-2.397,6.268,1.526,6.58,6.474,6.024c7.082-0.795,13.647-6.034,20.854-7.121  C56.98,248.452,63.81,246.935,65.335,242.886" id="path85" style="fill-rule:evenodd;clip-rule:evenodd;"/>
  <path d="M62.955,230.162c-3.77-3.451-9.48-5.201-13.673-8.043  c-4.779-3.238-8.907-8.229-13.892-11.336c-4.68-2.917-13.034-7.535-12.771,0.594c0.135,4.168,5.306,8.449,8.676,9.964  C36.162,223.528,61.286,235.673,62.955,230.162" id="path87" style="fill-rule:evenodd;clip-rule:evenodd;"/>
  <path d="M55.846,105.384c-2.825-1.803-6.669-1.985-9.785-0.992  C39.303,106.545,54.699,106.857,55.846,105.384" id="path89" style="fill-rule:evenodd;clip-rule:evenodd;"/>
  <path d="M50.56,97.406c-2.406-1.163-10.568-3.713-12.814-1.191  C35.046,99.248,50.44,97.528,50.56,97.406" id="path91" style="fill-rule:evenodd;clip-rule:evenodd;"/>
  <path d="M48.244,169.633c-1.279-3.448-9.968-2.514-13.246-2.005  C37.947,169.281,45.497,170.035,48.244,169.633" id="path93" style="fill-rule:evenodd;clip-rule:evenodd;"/>
  <path d="M42.804,177.467c-2.268-2.402-15.996-3.144-16.396-1.514  C25.563,179.389,41.073,178.684,42.804,177.467" id="path95" style="fill-rule:evenodd;clip-rule:evenodd;"/>
  <path d="M44.793,86.691c-2.426-2.297-9.036-2.859-12.289-2.167  c-9.494,2.019-9.834,17.62-6.383,25.04c0.137-0.003,0.274-0.007,0.412-0.01c1.163-5.146-0.896-21.618,7.31-21.008  C37.653,88.829,43.301,90.597,44.793,86.691" id="path97" style="fill-rule:evenodd;clip-rule:evenodd;"/>
</svg>
