<?xml version="1.0" encoding="UTF-8" standalone="no"?>
<!-- Generator: Adobe Illustrator 12.0.0, SVG Export Plug-In . SVG Version: 6.00 Build 51448)  --><svg height="339.716" id="Layer_1" inkscape:version="0.42" sodipodi:docbase="F:\openclip\svg da inviare" sodipodi:docname="papera.svg" sodipodi:version="0.32" space="preserve" style="overflow:visible;enable-background:new 0 0 409.156 339.716;" version="1.1" viewBox="0 0 409.156 339.716" width="409.156" xmlns="http://www.w3.org/2000/svg" xmlns:cc="http://web.resource.org/cc/" xmlns:dc="http://purl.org/dc/elements/1.1/" xmlns:inkscape="http://www.inkscape.org/namespaces/inkscape" xmlns:rdf="http://www.w3.org/1999/02/22-rdf-syntax-ns#" xmlns:sodipodi="http://inkscape.sourceforge.net/DTD/sodipodi-0.dtd" xmlns:svg="http://www.w3.org/2000/svg">
  <metadata>
    <rdf:RDF xmlns:cc="http://web.resource.org/cc/" xmlns:dc="http://purl.org/dc/elements/1.1/" xmlns:rdf="http://www.w3.org/1999/02/22-rdf-syntax-ns#">
      <cc:Work rdf:about="">
        <dc:title>Various Cliparts</dc:title>
        <dc:description></dc:description>
        <dc:subject>
          <rdf:Bag>
            <rdf:li></rdf:li>
          </rdf:Bag>
        </dc:subject>
        <dc:publisher>
          <cc:Agent rdf:about="http://www.openclipart.org/">
            <dc:title></dc:title>
          </cc:Agent>
        </dc:publisher>
        <dc:creator>
          <cc:Agent>
            <dc:title>Architetto Francesco Rollandin</dc:title>
          </cc:Agent>
        </dc:creator>
        <dc:rights>
          <cc:Agent>
            <dc:title>Architetto Francesco Rollandin</dc:title>
          </cc:Agent>
        </dc:rights>
        <dc:date></dc:date>
        <dc:format>image/svg+xml</dc:format>
        <dc:type rdf:resource="http://purl.org/dc/dcmitype/StillImage"/>
        <cc:license rdf:resource="http://web.resource.org/cc/PublicDomain"/>
        <dc:language>en</dc:language>
      </cc:Work>
      <cc:License rdf:about="http://web.resource.org/cc/PublicDomain">
        <cc:permits rdf:resource="http://web.resource.org/cc/Reproduction"/>
        <cc:permits rdf:resource="http://web.resource.org/cc/Distribution"/>
        <cc:permits rdf:resource="http://web.resource.org/cc/DerivativeWorks"/>
      </cc:License>
    </rdf:RDF>
  </metadata>
  <defs id="defs10"/>
  <sodipodi:namedview bordercolor="#666666" borderopacity="1.0" id="base" inkscape:current-layer="Layer_1" inkscape:cx="204.57800" inkscape:cy="169.85800" inkscape:pageopacity="0.0" inkscape:pageshadow="2" inkscape:window-height="510" inkscape:window-width="787" inkscape:window-x="22" inkscape:window-y="29" inkscape:zoom="1.0597087" pagecolor="#ffffff"/>
  <path d="M33.588,70.703c9.503-1.647,18.38-4.807,27.535-7.743  c10.538-3.38,18.243-2.232,29.739-1.105c-1.896,19.755,1.565,39.415-2.755,58.903c-4.196,18.928-17.169,34.678-19.272,54.48  c-4.014,37.786,21.413,73.222,53.047,90.87c14.503,8.092,30.264,14.863,46.625,18.089c21.02,4.144,37.852-0.608,58.922-1.105  c9.956-0.234,20.047,3.468,29.882,1.351c10.215-2.199,20.495-4.158,30.667-6.543c13.186-3.091,43.527-5.853,51.793-16.38  c-0.888-0.197-1.882-0.19-2.756-0.551c5.632-2.055,36.808-16.517,18.726-23.23c15.934-11.285,40.07-17.891,53.416-30.974  c-21.322-2.114-50.294,10.255-71.589,14.935c13.112-7.143,27.398-11.129,39.648-19.913c-13.98,3.663-56.821,23.404-61.676,4.424  c11.421-2.048,22.059-5.171,33.04-8.849c-3.499-0.702-8.499-2.842-11.989-1.966c-4.232,1.063-12.427,5.021-16.645,4.179  c-7.33-1.465-19.267-13.641-26.371-17.801c-18.017-10.553-37.271-18.496-57.332-24.234c-18.787-5.375-36.664-10.718-56.17-7.744  c-14.946,2.279-31.002,5.938-43.506-4.979c-14.354-12.528-12.665-33.795-12.665-51.137c0-17.898,10.813-29.613,16.246-45.93  c10.253-30.797-31.015-57.56-57.548-44.246C69.667,9.994,62.598,24.02,53.689,34.752C43.38,47.172,31.191,46.64,16.242,48.303  C9.682,49.033,0,49.926,0,58.813C0,72.129,24.382,70.196,33.588,70.703" id="path3" style="fill-rule:evenodd;clip-rule:evenodd;"/>
  <path d="M215.315,272.582c1.325,5.712-3.708,11.103-2.468,16.084  c1.763,7.081,5.144,17.08,1.917,24.293c-7.031,15.721-31.695,10.945-45.158,13.826c5.158-0.149,9.227,3.376,10.467,8.297  c10.898-10.287,7.508,1.123,13.768,3.871c5.188,2.277,10.832-1.349,17.069-0.552c10.445,1.334,8.302,2.246,17.622-0.554  c5.889-1.769,13.836-2.664,19.272-5.53c-7.177-2.582-14.07-6.423-21.475-7.745c8.105-19.753-0.854-36.911-3.307-57.521  C220.765,269.021,217.206,270.808,215.315,272.582" id="path5" style="fill-rule:evenodd;clip-rule:evenodd;"/>
  <path d="M168.507,277.56c-0.016,10.557,9.24,30.222,0,39.27  c-5.629,5.513-16.014,2.213-23.403,2.213c-10.767,0-21.507,2.84-32.215,3.872c5.504-0.227,10.818,2.479,11.565,8.296  c4.308-1.77,23.688,2.2,22.301,3.595c6.441-6.479,17.918-3.357,25.606-8.02c6.694-4.059,10.997-11.797,10.38-19.87  c-0.465-6.094-2.945-13.041,1.775-17.781c3.619-3.634,7.789-7.309,9.324-12.126c-3.418,0.259-6.364,1.086-9.691,2.09  c-9.078,2.738-2.814-0.325-6.831-3.197c0.198,0.142-2.735-10.104-7.712-4.979C167.927,272.653,167.874,275.359,168.507,277.56" id="path7" style="fill-rule:evenodd;clip-rule:evenodd;"/>
</svg>
