<?xml version="1.0" encoding="UTF-8" standalone="no"?>
<!-- Generator: Adobe Illustrator 12.0.0, SVG Export Plug-In . SVG Version: 6.00 Build 51448)  --><svg height="390.764" id="Layer_1" inkscape:version="0.42" sodipodi:docbase="F:\openclip\svg da inviare" sodipodi:docname="Pinguino4.svg" sodipodi:version="0.32" space="preserve" style="overflow:visible;enable-background:new 0 0 226.56 390.764;" version="1.1" viewBox="0 0 226.56 390.764" width="226.56" xmlns="http://www.w3.org/2000/svg" xmlns:cc="http://web.resource.org/cc/" xmlns:dc="http://purl.org/dc/elements/1.1/" xmlns:inkscape="http://www.inkscape.org/namespaces/inkscape" xmlns:rdf="http://www.w3.org/1999/02/22-rdf-syntax-ns#" xmlns:sodipodi="http://inkscape.sourceforge.net/DTD/sodipodi-0.dtd" xmlns:svg="http://www.w3.org/2000/svg">
  <metadata>
    <rdf:RDF xmlns:cc="http://web.resource.org/cc/" xmlns:dc="http://purl.org/dc/elements/1.1/" xmlns:rdf="http://www.w3.org/1999/02/22-rdf-syntax-ns#">
      <cc:Work rdf:about="">
        <dc:title>Various Cliparts</dc:title>
        <dc:description></dc:description>
        <dc:subject>
          <rdf:Bag>
            <rdf:li></rdf:li>
          </rdf:Bag>
        </dc:subject>
        <dc:publisher>
          <cc:Agent rdf:about="http://www.openclipart.org/">
            <dc:title></dc:title>
          </cc:Agent>
        </dc:publisher>
        <dc:creator>
          <cc:Agent>
            <dc:title>Architetto Francesco Rollandin</dc:title>
          </cc:Agent>
        </dc:creator>
        <dc:rights>
          <cc:Agent>
            <dc:title>Architetto Francesco Rollandin</dc:title>
          </cc:Agent>
        </dc:rights>
        <dc:date></dc:date>
        <dc:format>image/svg+xml</dc:format>
        <dc:type rdf:resource="http://purl.org/dc/dcmitype/StillImage"/>
        <cc:license rdf:resource="http://web.resource.org/cc/PublicDomain"/>
        <dc:language>en</dc:language>
      </cc:Work>
      <cc:License rdf:about="http://web.resource.org/cc/PublicDomain">
        <cc:permits rdf:resource="http://web.resource.org/cc/Reproduction"/>
        <cc:permits rdf:resource="http://web.resource.org/cc/Distribution"/>
        <cc:permits rdf:resource="http://web.resource.org/cc/DerivativeWorks"/>
      </cc:License>
    </rdf:RDF>
  </metadata>
  <defs id="defs462"/>
  <sodipodi:namedview bordercolor="#666666" borderopacity="1.0" id="base" inkscape:current-layer="Layer_1" inkscape:cx="113.28000" inkscape:cy="195.38200" inkscape:pageopacity="0.0" inkscape:pageshadow="2" inkscape:window-height="510" inkscape:window-width="787" inkscape:window-x="88" inkscape:window-y="116" inkscape:zoom="0.92127216" pagecolor="#ffffff"/>
  <g id="g3">
    <path d="M65.197,373.242c31.96-0.803,63.803-0.432,95.774-0.035   c15.559,0.192,31.228,2.231,46.735,3.431c9.15,0.708,25.572,3.902,9.074,9.716c-24.073,8.483-56.64,1.207-81.594,1.885   c-23.89,0.649-71.745,9.167-89.548-9.26C51.938,376.541,57.901,372.703,65.197,373.242" id="path5" style="fill-rule:evenodd;clip-rule:evenodd;fill:#BFBFBF;"/>
    <path d="   M82.311,363.41c-4.637-0.673-9.234,1.111-12.225,4.097c3.514-0.604,6.079-0.808,9.78,0   C79.754,365.132,81.477,365.333,82.311,363.41" id="path7" style="fill-rule:evenodd;clip-rule:evenodd;fill:#3F7F7F;stroke:#000000;stroke-width:0;stroke-linecap:square;stroke-miterlimit:10;"/>
    <path d="   M137.729,357.673c5.162,15.396-6.793,21.704-21.165,22.815c-9.302,0.719-18.482,0.947-27.963,0.947   c-4.795,0-22.021-1.347-10.365-8.194c-8.607,2.092-8.818-3.103-4.075-7.375c6.857-6.177,15.337-2.339,22.819-2.457   c3.513-0.056,17.928-1.047,17.928-4.917C114.909,347.959,133.61,350.453,137.729,357.673" id="path9" style="fill-rule:evenodd;clip-rule:evenodd;fill:#4C6565;stroke:#000000;stroke-width:0;stroke-linecap:square;stroke-miterlimit:10;"/>
    <path d="M78.237,373.242   c6.63-1.545,17.033-2.771,22.818-5.735" id="path11" style="fill:none;stroke:#000000;stroke-width:0;stroke-linecap:square;stroke-miterlimit:10;"/>
    <path d="M105.13,363.41   c-8.977,1.925-17.77,2.457-26.894,2.457" id="path13" style="fill:none;stroke:#000000;stroke-width:0;stroke-linecap:square;stroke-miterlimit:10;"/>
    <path d="M114.909,360.131   c-0.17,2.448,0.847,3.685,3.26,3.278" id="path15" style="fill:none;stroke:#004C4C;stroke-width:0;stroke-linecap:square;stroke-miterlimit:10;"/>
    <path d="M112.466,361.771   c0.074,1.469,1.015,1.951,2.443,1.639" id="path17" style="fill:none;stroke:#004C4C;stroke-width:0;stroke-linecap:square;stroke-miterlimit:10;"/>
    <path d="M106.761,367.506   c0.814,0,1.629,0,2.443,0" id="path19" style="fill:none;stroke:#003232;stroke-width:0;stroke-linecap:square;stroke-miterlimit:10;"/>
    <path d="M79.867,365.867   c-0.91,0.419-1.483,1.743-1.63,3.278" id="path21" style="fill:none;stroke:#003232;stroke-width:0;stroke-linecap:square;stroke-miterlimit:10;"/>
    <path d="M83.941,365.867   c-1.38,0.127-0.982,0.835,0,1.64" id="path23" style="fill:none;stroke:#003232;stroke-width:0;stroke-linecap:square;stroke-miterlimit:10;"/>
    <path d="M93.721,363.41   c-0.815,0-1.63,0-2.445,0" id="path25" style="fill:none;stroke:#003232;stroke-width:0;stroke-linecap:square;stroke-miterlimit:10;"/>
    <path d="M76.607,373.242   c-1.904-1.103-2.659-3.229-2.445-5.735" id="path27" style="fill:none;stroke:#003232;stroke-width:0;stroke-linecap:square;stroke-miterlimit:10;"/>
    <path d="M82.311,380.617   c-1.319,0.095-2.284-0.448-2.444-1.639" id="path29" style="fill:none;stroke:#004C4C;stroke-width:0;stroke-linecap:square;stroke-miterlimit:10;"/>
    <path d="   M70.902,367.506c-4.232-0.694-8.317,1.234-10.595,4.097c3.332-1.626,7.259-1.963,10.595,0   C68.071,369.375,70.88,369.366,70.902,367.506" id="path31" style="fill-rule:evenodd;clip-rule:evenodd;fill:#3F7F7F;stroke:#000000;stroke-width:0;stroke-linecap:square;stroke-miterlimit:10;"/>
    <path d="M68.457,367.506   c-1.938,0.81-3.518,1.271-5.704,1.639" id="path33" style="fill:none;stroke:#598C8C;stroke-width:0;stroke-linecap:square;stroke-miterlimit:10;"/>
    <path d="M78.237,363.41   c-2.244,0.336-4.003,1.058-5.705,2.457" id="path35" style="fill:none;stroke:#598C8C;stroke-width:0;stroke-linecap:square;stroke-miterlimit:10;"/>
    <path d="M83.941,363.41   C82.855,363.41,82.855,363.41,83.941,363.41" id="path37" style="fill:none;stroke:#003232;stroke-width:0;stroke-linecap:square;stroke-miterlimit:10;"/>
    <path d="   M72.532,54.49c-13.68,6.756-19.191,23.207-21.189,37.693c-2.075,15.041-3.42,30.943-5.101,46.161   c-4.195,37.981-3.487,69.06,3.156,106.913c2.959,16.865,14.947,34.897,21.87,50.56c4.85,10.972,5.892,23.832,10.822,34.456   c5.607,12.082,14.637,25.518,27.931,29.859c11.268,3.681,23.842-0.442,35.857,0c-0.384-1.334-0.434-2.852-0.814-4.097   c6.824-0.002,12.696,0.149,19.559,4.097c-8.763-51.389-25.996-104.162-39.934-154.869c-7.822-28.457-16.154-56.682-23.633-85.219   C97.535,106.611,91.189,53.322,72.532,54.49" id="path39" style="fill-rule:evenodd;clip-rule:evenodd;fill:#D8E5E5;stroke:#000000;stroke-width:0;stroke-linecap:square;stroke-miterlimit:10;"/>
    <path d="M93.721,292.939c2.142,8.47,8.588,27.847,17.114,31.957   c8.274,3.988,11.887-4.354,8.965-12.291C116.352,303.236,102.244,296.105,93.721,292.939" id="path41" style="fill-rule:evenodd;clip-rule:evenodd;fill:#B2BFBF;"/>
    <path d="M52.972,120.043c1.229-18.514-6.498-52.044,14.669-62.685   c22.93-11.527,28.986,42.689,33.414,58.588C83.797,119.152,70.337,127.251,52.972,120.043" id="path43" style="fill-rule:evenodd;clip-rule:evenodd;fill:#D8E5E5;"/>
    <path d="M74.162,54.49c15.232-1.575,22.319,46.995,25.264,57.359   c-17.288,4.301-48.083,19.238-48.083-10.926C51.342,84.723,57.616,59.183,74.162,54.49" id="path45" style="fill-rule:evenodd;clip-rule:evenodd;fill:#DFE9D0;"/>
    <path d="M74.162,54.49c11.585-1.198,17.299,26.597,19.763,34.338   c0.927,2.914,6.736,14.636,5.501,17.285c-1.167,2.503-8.958,3.507-11.258,5.159c-7.276,5.226-17.906,7.192-26.637,4.265   C38.016,107.653,57.126,59.321,74.162,54.49" id="path47" style="fill-rule:evenodd;clip-rule:evenodd;fill:#E5EEBB;"/>
    <path d="M74.162,54.49c11.714-1.211,16.821,26.272,19.357,34.492   c4.263,13.809,4.931,13.934-7.948,20.409c-5.532,2.781-20.095,6.018-24.856,1.229c-12.288-12.359-7.365-19.961-3.26-36.464   C59.676,65.228,66.418,56.461,74.162,54.49" id="path49" style="fill-rule:evenodd;clip-rule:evenodd;fill:#EBF2A5;"/>
    <path d="M74.162,54.49c11.341-1.173,15.81,23.386,17.863,31.35   c2.801,10.863,5.021,12.715-4.824,18.634c-6.835,4.109-17.2,7.324-24.448,4.097C42.149,99.398,57.265,58.792,74.162,54.49" id="path51" style="fill-rule:evenodd;clip-rule:evenodd;fill:#F2F690;"/>
    <path d="M74.162,54.49c11.011-1.139,15.978,22.936,18.337,30.728   c2.99,9.875,2.317,10.992-6.928,15.979c-5.065,2.732-17.407,8.718-22.819,3.277c-10.669-10.727-11.481-17-6.112-33.187   C59.417,62.914,67.613,57.197,74.162,54.49" id="path53" style="fill-rule:evenodd;clip-rule:evenodd;fill:#F8FA7B;"/>
    <path d="M66.827,102.835c-12.361-4.897-15.769-11.452-11.409-25.402   c2.457-7.861,7.379-19.84,16.299-22.124c10.993-2.814,14.311,12.027,17.431,21.438c2.744,8.275,7.323,14.14-0.724,19.532   C81.854,100.683,75.57,103.403,66.827,102.835" id="path55" style="fill-rule:evenodd;clip-rule:evenodd;fill:#FBF56F;"/>
    <path d="M74.162,54.49c8.723-0.313,21.236,25.825,19.56,32.776   c-2.453,10.169-21.841,14.832-29.339,11.062c-3.618-1.818-7.539-1.435-10.595-4.507c-3.435-3.454,1.356-17.782,3.26-22.124   C60.771,63.206,66.96,57.467,74.162,54.49" id="path57" style="fill-rule:evenodd;clip-rule:evenodd;fill:#FFEF62;"/>
    <path d="M74.162,54.49c9.865,0.621,18.865,22.01,17.114,30.318   c-1.738,8.246-23.69,20.453-26.079,9.833c-15.873,5.556-11.808-16.408-7.742-24.582C61.311,62.308,67.632,56.827,74.162,54.49" id="path59" style="fill-rule:evenodd;clip-rule:evenodd;fill:#FFDF5F;"/>
    <path d="M74.162,54.49c10.078,0.634,18.144,22.099,16.299,29.499   c-2.319,9.301-21.698,16.386-25.264,6.555c-1.265,0.618-2.913,0.928-4.074,1.639c-2.228-1.249-6.951-2.344-8.15-5.736   c-1.311-3.706,4.493-15.38,6.52-18.437C63.782,61.541,67.601,56.513,74.162,54.49" id="path61" style="fill-rule:evenodd;clip-rule:evenodd;fill:#FFD65A;"/>
    <path d="M74.162,54.49c9.322,0.587,18.099,20.938,16.299,27.86   c-3.133,12.048-16.738,9.84-25.264,7.375C45.772,84.108,59.386,57.734,74.162,54.49" id="path63" style="fill-rule:evenodd;clip-rule:evenodd;fill:#FFCD54;"/>
    <path d="M74.162,54.49c8.353,0.526,16.737,17.097,15.484,24.582   c-0.661,3.951-5.209,9.299-8.965,10.243c-2.58,0.648-7.09,0.174-9.779-0.41c-2.619-0.568-3.449-3.91-4.075-4.097   c-11.535-3.455-12.17,0.613-8.557-13.93C60.04,63.755,68.537,56.034,74.162,54.49" id="path65" style="fill-rule:evenodd;clip-rule:evenodd;fill:#FFC44F;"/>
    <path d="M74.162,54.49c7.325,0.461,18.353,17.178,15.077,23.763   c-6.872,13.811-10.444,8.046-22.412,4.917c-7.088-1.854-13.994-2.174-8.149-13.93C62.444,61.665,67.786,56.772,74.162,54.49" id="path67" style="fill-rule:evenodd;clip-rule:evenodd;fill:#FFBC49;"/>
    <path d="M74.162,54.49c4.815,0.441,9.792,6.176,11.41,10.243   c4.531,11.389,2.388,12.471-3.26,22.534c-9.04-6.76-14.974-10.67-25.264-8.194C55.539,67.855,65.748,57.084,74.162,54.49" id="path69" style="fill-rule:evenodd;clip-rule:evenodd;fill:#FFB343;"/>
    <path d="M74.162,54.49c10.717,0.981,15.164,17.151,10.595,24.582   c-4.788,7.785-1.447,4.578-8.149,1.639c-3.735-1.638-7.05-3.388-8.15-7.375c-4.121,0.182-7.456,0.867-11.409,2.458   C56.823,66.438,66.738,56.12,74.162,54.49" id="path71" style="fill-rule:evenodd;clip-rule:evenodd;fill:#FFAA3E;"/>
    <path d="M74.162,54.49c7.675,0.97,13.915,12.287,13.039,18.846   c-2.01,15.058-9.101,5.915-16.299,1.639c-1.424-0.846-1.236-5.525-3.26-4.507c-0.367,0.185-4.722,1.31-4.889,1.229   c-2.342-1.118-8.659,4.454-3.26-3.688C63.632,61.768,67.628,55.925,74.162,54.49" id="path73" style="fill-rule:evenodd;clip-rule:evenodd;fill:#FFA138;"/>
    <path d="M57.047,70.059c2.448-5.906,12.236-17.203,18.337-15.159   c12.944,4.337,12.02,16.39,6.927,26.631c-3.168-4.683-10.98-10.247-11.409-15.569C64.805,65.833,60.667,71.571,57.047,70.059" id="path75" style="fill-rule:evenodd;clip-rule:evenodd;fill:#FF9932;"/>
    <path d="M51.342,4.506c17.958-0.835,45.698-9.152,57.862,9.833   c8.235,12.854,1.963,33.849-11.409,40.971C67.238,71.585,56.42,24.933,51.342,4.506" id="path77" style="fill-rule:evenodd;clip-rule:evenodd;"/>
    <path d="M8.964,4.506c6.899,6.375,24.1,10.301,33.618,14.289   c2.808,1.176,21.798,17.653,20.774,7.35C61.923,11.735,22.081,3.599,8.964,4.506" id="path79" style="fill-rule:evenodd;clip-rule:evenodd;"/>
    <path d="   M51.342,4.506c3.368,4.641,6.772,10.819,11.41,15.569c-8.236-1.977-16.44-6.947-25.114-9.438C25.351,7.106,11.817,7.382,0,3.687   C17.948-3.729,33.236,1.905,51.342,4.506" id="path81" style="fill-rule:evenodd;clip-rule:evenodd;fill:#0C0C0C;stroke:#000000;stroke-width:0;stroke-linecap:square;stroke-miterlimit:10;"/>
    <path d="M61.123,20.075c1.696,3.031,2.588,9.013-2.038,9.013   c-4.807,0-7.488-5.578-11.002-8.194c-4.859-3.616-11.958-8.578-17.929-9.833c0-0.546,0-1.092,0-1.639   C40.476,12.543,50.737,16.71,61.123,20.075" id="path83" style="fill-rule:evenodd;clip-rule:evenodd;"/>
    <path d="M61.123,20.075c2.216,3.642,0.981,9.196-4.075,9.013   c-3.262-0.118-7.76-7.7-10.595-9.833c-4.78-3.596-11.415-6.835-15.484-9.833C41.202,12.271,51.417,15.6,61.123,20.075" id="path85" style="fill-rule:evenodd;clip-rule:evenodd;fill:#32280A;"/>
    <path d="M58.677,20.075c2.57,2.429,4.548,7.956,0,9.013   c-3.524,0.819-9.043-6.634-11.41-9.013c-4.542-4.566-12.183-6.991-16.299-10.652C40.108,13.105,49.963,15.141,58.677,20.075" id="path87" style="fill-rule:evenodd;clip-rule:evenodd;fill:#655114;"/>
    <path d="M58.677,20.075c2.056,1.751,4.339,6.832,0.815,8.604   c-3.164,1.59-7.222-6.343-9.372-7.784c-5.679-3.807-13.948-5.173-18.336-9.833C41.124,12.061,50.088,16.403,58.677,20.075" id="path89" style="fill-rule:evenodd;clip-rule:evenodd;fill:#997A1E;"/>
    <path d="M58.677,20.075c3.685,3.739,3.116,5.808-0.815,7.784   c-1.868,0.939-7.02-6.357-8.964-7.784c-4.659-3.418-12.482-5.247-15.484-9.014C42.123,12.842,50.361,16.751,58.677,20.075" id="path91" style="fill-rule:evenodd;clip-rule:evenodd;fill:#CCA328;"/>
    <path d="M58.677,21.713c2.506,2.146,4.222,5.736-0.815,5.736   c-3.514,0-6.217-5.457-8.964-7.375c-4.595-3.207-11.36-5.46-15.484-8.194C40.379,11.479,52.354,17.337,58.677,21.713" id="path93" style="fill-rule:evenodd;clip-rule:evenodd;fill:#FFCC32;"/>
    <path d="M47.268,6.145   C32.928,2.093,19.757,1.206,4.89,2.867" id="path95" style="fill:none;stroke:#0C0C0C;stroke-width:0;stroke-linecap:square;stroke-miterlimit:10;"/>
    <path d="M47.268,6.145   C33.647,4.456,21.378,0.674,7.334,2.867" id="path97" style="fill:none;stroke:#171717;stroke-width:0;stroke-linecap:square;stroke-miterlimit:10;"/>
    <path d="M45.638,4.506   C33.775,1.363,19.269,0.068,7.334,2.867" id="path99" style="fill:none;stroke:#222222;stroke-width:0;stroke-linecap:square;stroke-miterlimit:10;"/>
    <path d="M44.008,4.506   c-11.655-3.428-24.707-2.9-36.674-1.639" id="path101" style="fill:none;stroke:#2E2E2E;stroke-width:0;stroke-linecap:square;stroke-miterlimit:10;"/>
    <path d="M44.008,4.506   C33.01,1.019,20.3,1.547,8.964,2.867" id="path103" style="fill:none;stroke:#393939;stroke-width:0;stroke-linecap:square;stroke-miterlimit:10;"/>
    <path d="M41.563,4.506   C30.925,1.76,19.81,2.088,8.964,2.867" id="path105" style="fill:none;stroke:#444444;stroke-width:0;stroke-linecap:square;stroke-miterlimit:10;"/>
    <path d="M41.563,4.506   C31.999,2.037,21.179,1.5,11.409,2.867" id="path107" style="fill:none;stroke:#4F4F4F;stroke-width:0;stroke-linecap:square;stroke-miterlimit:10;"/>
    <path d="M39.933,2.867   c-9.85-1.847-18.679-1.32-28.524,0" id="path109" style="fill:none;stroke:#5A5A5A;stroke-width:0;stroke-linecap:square;stroke-miterlimit:10;"/>
    <path d="M38.303,2.867   C29.179,1.3,20.657,0.409,11.409,0.409" id="path111" style="fill:none;stroke:#666666;stroke-width:0;stroke-linecap:square;stroke-miterlimit:10;"/>
    <path d="   M74.162,8.603c5.854,1.71,7.389,9.166,0,9.014C67.089,17.471,69.316,11.019,74.162,8.603" id="path113" style="fill-rule:evenodd;clip-rule:evenodd;fill:#FFB24C;stroke:#0C0C0C;stroke-width:0;stroke-linecap:square;stroke-miterlimit:10;"/>
    <path d="M70.902,14.339c0.634-5.008,3.752-6.134,7.335-2.458   C76.253,13.903,73.766,14.489,70.902,14.339" id="path115" style="fill-rule:evenodd;clip-rule:evenodd;fill:#CC7F19;"/>
    <path d="M74.162,11.88c1.689,1.454,2.976,1.482,2.445,4.097   c-1.557,0.123-3.333,0.123-4.891,0C71.186,13.363,72.472,13.334,74.162,11.88" id="path117" style="fill-rule:evenodd;clip-rule:evenodd;"/>
    <path d="M74.162,11.88C72.37,12.852,73.466,12.257,74.162,11.88" id="path119" style="fill-rule:evenodd;clip-rule:evenodd;fill:#CCCCCC;"/>
    <line id="line121" style="fill:none;stroke:#0C2626;stroke-width:0;stroke-linecap:square;stroke-miterlimit:10;" x1="93.721" x2="95.351" y1="6.145" y2="6.145"/>
    <line id="line123" style="fill:none;stroke:#0C2626;stroke-width:0;stroke-linecap:square;stroke-miterlimit:10;" x1="95.351" x2="97.795" y1="8.603" y2="8.603"/>
    <line id="line125" style="fill:none;stroke:#0C2626;stroke-width:0;stroke-linecap:square;stroke-miterlimit:10;" x1="99.425" x2="99.425" y1="8.603" y2="8.603"/>
    <line id="line127" style="fill:none;stroke:#0C2626;stroke-width:0;stroke-linecap:square;stroke-miterlimit:10;" x1="103.5" x2="105.13" y1="10.242" y2="11.88"/>
    <line id="line129" style="fill:none;stroke:#0C2626;stroke-width:0;stroke-linecap:square;stroke-miterlimit:10;" x1="101.055" x2="103.5" y1="10.242" y2="11.88"/>
    <line id="line131" style="fill:none;stroke:#0C2626;stroke-width:0;stroke-linecap:square;stroke-miterlimit:10;" x1="106.761" x2="106.761" y1="14.339" y2="15.978"/>
    <line id="line133" style="fill:none;stroke:#0C2626;stroke-width:0;stroke-linecap:square;stroke-miterlimit:10;" x1="89.646" x2="91.276" y1="6.145" y2="6.145"/>
    <line id="line135" style="fill:none;stroke:#0C2626;stroke-width:0;stroke-linecap:square;stroke-miterlimit:10;" x1="88.016" x2="89.646" y1="4.506" y2="4.506"/>
    <line id="line137" style="fill:none;stroke:#0C2626;stroke-width:0;stroke-linecap:square;stroke-miterlimit:10;" x1="99.425" x2="99.425" y1="10.242" y2="10.242"/>
    <line id="line139" style="fill:none;stroke:#0C2626;stroke-width:0;stroke-linecap:square;stroke-miterlimit:10;" x1="97.795" x2="97.795" y1="6.145" y2="6.145"/>
    <line id="line141" style="fill:none;stroke:#0C2626;stroke-width:0;stroke-linecap:square;stroke-miterlimit:10;" x1="101.055" x2="103.5" y1="8.603" y2="8.603"/>
    <line id="line143" style="fill:none;stroke:#0C2626;stroke-width:0;stroke-linecap:square;stroke-miterlimit:10;" x1="93.721" x2="93.721" y1="6.145" y2="6.145"/>
    <line id="line145" style="fill:none;stroke:#0C2626;stroke-width:0;stroke-linecap:square;stroke-miterlimit:10;" x1="99.425" x2="99.425" y1="11.88" y2="14.339"/>
    <line id="line147" style="fill:none;stroke:#0C2626;stroke-width:0;stroke-linecap:square;stroke-miterlimit:10;" x1="101.055" x2="103.5" y1="14.339" y2="14.339"/>
    <line id="line149" style="fill:none;stroke:#0C2626;stroke-width:0;stroke-linecap:square;stroke-miterlimit:10;" x1="105.13" x2="106.761" y1="15.978" y2="17.616"/>
    <line id="line151" style="fill:none;stroke:#0C2626;stroke-width:0;stroke-linecap:square;stroke-miterlimit:10;" x1="105.13" x2="105.13" y1="14.339" y2="14.339"/>
    <line id="line153" style="fill:none;stroke:#0C2626;stroke-width:0;stroke-linecap:square;stroke-miterlimit:10;" x1="106.761" x2="106.761" y1="11.88" y2="14.339"/>
    <line id="line155" style="fill:none;stroke:#0C2626;stroke-width:0;stroke-linecap:square;stroke-miterlimit:10;" x1="109.204" x2="109.204" y1="15.978" y2="17.616"/>
    <path d="   M70.902,383.076c-4.833-0.146-8.721,2.521-12.225,5.735C63.513,385.359,67.536,387.43,70.902,383.076" id="path157" style="fill-rule:evenodd;clip-rule:evenodd;fill:#3F7F7F;stroke:#000000;stroke-width:0;stroke-linecap:square;stroke-miterlimit:10;"/>
    <path d="   M74.162,373.242c-4.083-0.535-8.915-0.229-11.409,2.459c3.189-0.798,6.54-0.229,9.779,1.639   C72.792,375.816,73.74,374.722,74.162,373.242" id="path159" style="fill-rule:evenodd;clip-rule:evenodd;fill:#3F7F7F;stroke:#000000;stroke-width:0;stroke-linecap:square;stroke-miterlimit:10;"/>
    <path d="   M132.024,365.867c2.464,14.449-4.597,22.944-21.165,22.944c-9.986,0-19.295,1.322-29.363,0.819   c-4.847-0.242-20.733-0.461-8.965-6.555c-9.58,2.49-11.83-5.047-4.075-9.834c5.325-3.287,15.234-1.636,21.189-1.639   c8.838-0.004,12.021-0.659,18.744-4.916C114.821,362.615,126.045,353.673,132.024,365.867" id="path161" style="fill-rule:evenodd;clip-rule:evenodd;fill:#667F7F;stroke:#000000;stroke-width:0;stroke-linecap:square;stroke-miterlimit:10;"/>
    <path d="M72.532,383.076   c7.55-6.095,17.847-3.741,26.894-5.736" id="path163" style="fill:none;stroke:#000000;stroke-width:0;stroke-linecap:square;stroke-miterlimit:10;"/>
    <path d="M95.351,373.242   c-9.057,3.241-15.926-0.642-24.449,0" id="path165" style="fill:none;stroke:#000000;stroke-width:0;stroke-linecap:square;stroke-miterlimit:10;"/>
    <path d="M106.761,369.145   c0.841,2.435,2.946,3.896,5.705,4.097" id="path167" style="fill:none;stroke:#004C4C;stroke-width:0;stroke-linecap:square;stroke-miterlimit:10;"/>
    <path d="M118.169,373.242   c3.26,0,6.52,0,9.779,0" id="path169" style="fill:none;stroke:#004C4C;stroke-width:0;stroke-linecap:square;stroke-miterlimit:10;"/>
    <path d="M106.761,371.603   c0,0.546,0,1.093,0,1.639" id="path171" style="fill:none;stroke:#004C4C;stroke-width:0;stroke-linecap:square;stroke-miterlimit:10;"/>
    <path d="M99.425,374.88   c0.124,1.388,0.828,0.989,1.63,0" id="path173" style="fill:none;stroke:#004C4C;stroke-width:0;stroke-linecap:square;stroke-miterlimit:10;"/>
    <path d="M72.532,374.88   c-1.319,0.317-0.868,1.352,0,2.459" id="path175" style="fill:none;stroke:#004C4C;stroke-width:0;stroke-linecap:square;stroke-miterlimit:10;"/>
    <path d="M78.237,380.617   c-0.936,0.884,0.164,1.62,1.63,2.459" id="path177" style="fill:none;stroke:#004C4C;stroke-width:0;stroke-linecap:square;stroke-miterlimit:10;"/>
    <path d="M72.532,380.617   c0.24,1.404,0.818,2.848,1.63,4.098" id="path179" style="fill:none;stroke:#004C4C;stroke-width:0;stroke-linecap:square;stroke-miterlimit:10;"/>
    <path d="M85.571,371.603   c0,0.546,0,1.093,0,1.639" id="path181" style="fill:none;stroke:#004C4C;stroke-width:0;stroke-linecap:square;stroke-miterlimit:10;"/>
    <path d="M126.319,377.339   c-2.717,0-5.434,0-8.15,0" id="path183" style="fill:none;stroke:#004C4C;stroke-width:0;stroke-linecap:square;stroke-miterlimit:10;"/>
    <path d="M130.394,373.242   c-1.723,1.085-3.696,1.658-5.705,1.639" id="path185" style="fill:none;stroke:#004C4C;stroke-width:0;stroke-linecap:square;stroke-miterlimit:10;"/>
    <path d="M70.902,383.076   c-2.296-1.067-3.067-3.136-2.445-5.736" id="path187" style="fill:none;stroke:#004C4C;stroke-width:0;stroke-linecap:square;stroke-miterlimit:10;"/>
    <path d="M74.162,388.811   c-0.753-0.672-1.297-1.497-1.63-2.458" id="path189" style="fill:none;stroke:#004C4C;stroke-width:0;stroke-linecap:square;stroke-miterlimit:10;"/>
    <path d="M109.204,388.811   c0.544-0.819,1.087-1.639,1.631-2.458" id="path191" style="fill:none;stroke:#004C4C;stroke-width:0;stroke-linecap:square;stroke-miterlimit:10;"/>
    <path d="   M65.197,374.88c-4.517,0.676-8.989,2.484-12.225,5.736c3.249-0.896,6.294-0.919,9.78,0   C62.957,378.274,64.751,376.925,65.197,374.88" id="path193" style="fill-rule:evenodd;clip-rule:evenodd;fill:#3F7F7F;stroke:#000000;stroke-width:0;stroke-linecap:square;stroke-miterlimit:10;"/>
    <path d="M68.457,384.714   c-2.403,0.63-4.822,1.169-7.334,1.639" id="path195" style="fill:none;stroke:#598C8C;stroke-width:0;stroke-linecap:square;stroke-miterlimit:10;"/>
    <path d="M62.752,377.339   c-2.499,0.093-5.007,0.656-7.335,1.639" id="path197" style="fill:none;stroke:#598C8C;stroke-width:0;stroke-linecap:square;stroke-miterlimit:10;"/>
    <path d="M70.902,373.242   c-1.358,0-2.717,0-4.075,0" id="path199" style="fill:none;stroke:#598C8C;stroke-width:0;stroke-linecap:square;stroke-miterlimit:10;"/>
    <path d="M78.237,56.129c-7.023,21.548,6.269,43.201,9.598,64.4   c3.637,23.158,8.199,42.726,17.295,64.248c-2.806-28.76-4.722-57.637-6.927-86.448C97.107,84.006,82.287,69.803,78.237,56.129" id="path201" style="fill-rule:evenodd;clip-rule:evenodd;"/>
    <path d="M110.835,363.41c-0.709,4.118,11.146,12.719,11.41,4.097   c3.038,3.354,6.555,4.675,9.779,5.735c0.113-0.905,0.066-4.757,0-5.735C125.251,364.956,118.157,358.634,110.835,363.41" id="path203" style="fill-rule:evenodd;clip-rule:evenodd;fill:#3F5959;"/>
    <path d="   M110.835,15.978c5.456,14.376,3.394,30.992,12.225,43.429c5.64,7.942,11.616,15.066,17.114,23.354   c16.674,25.13,20.947,56.282,27.316,85.083c8.226,37.196,4.191,75.921,10.413,113.443c4.265,25.719,13.482,60.231,30.727,80.485   c-13.796,6.734-24.14,8.857-38.303,1.639c-5.087-2.593-20.932-14.87-25.264-9.834c-0.544-0.546-1.087-1.093-1.631-1.639   c0,0.546,0,1.093,0,1.639c-6.944-3.443-8.741,12.59-9.779,18.027c-0.928-1.521-2.386-2.455-3.26-4.097c0,0.546,0,1.093,0,1.639   c-4.441-0.833-8.703-2.909-12.225-5.735c0.815,1.365,1.63,2.731,2.445,4.097c-9.733-2.207-14.093-19.908-5.705-19.666   c-0.93-9.776,6.262-19.182,7.743-26.632c3.554-17.876,2.358-31.965-6.112-47.936c1.004,8.604,11.666,49.04-1.631,49.166   c-8.473,0.08-17.956-23.836-20.373-29.909c-6.404-16.093-10.893-34.447-6.527-52.004c4.324-17.388,12.947-34.798,14.676-52.471   c1.586-16.206-7.798-31.566-6.196-48.479c1.696-17.909,1.59-38.914-11.733-52.309c-9.933-9.986-10.426-30.353,3.26-35.235   c9.585-3.419,19.904,0.012,21.792-13.263C110.932,30.883,112.364,23.963,110.835,15.978" id="path205" style="fill-rule:evenodd;clip-rule:evenodd;fill:#003232;stroke:#000000;stroke-width:0;stroke-linecap:square;stroke-miterlimit:10;"/>
    <path d="M174.401,274.913c-0.887,17.604,4.941,36.707,12.225,52.442   c3.039,6.565,19.055,28.564,8.15,31.138c-9.896,2.335-26.554-18.119-31.377-24.583c-9.534-12.777-18.851-26.075-26.486-40.15   c-4.758-8.771-9.743-18.797-14.668-26.222c-8.344-12.58-5.461-24.254,1.807-38.871c7.435-14.953,7.158-33.821,7.158-50.035   c0-9.595-6.932-16-10.596-23.354c-7.72-15.492-10.08-32.864-15.484-49.165c-2.474-7.461-13.511-33.087-9.779-40.97   c6.792-14.347,36.393,8.255,41.562,15.569c16.194,22.915,19.361,50.642,24.872,78.33c4.003,20.11,6.289,40.951,8.135,61.38   C171.485,237.749,170.151,258.176,174.401,274.913" id="path207" style="fill-rule:evenodd;clip-rule:evenodd;fill:#003232;"/>
    <path d="M97.795,71.698c-2.606-10.225,12.984-6.324,18.745-4.917   c10.804,2.639,14.413,7.639,20.373,16.388c16.699,24.515,23.662,55.981,26.684,86.372c2.19,22.038,6.558,43.864,8.361,66.039   c1.538,18.912,0.6,38.667,4.074,57.358c3.479,18.711,16.389,34.86,19.966,52.854c3.456,17.383-13.544,2.527-20.374-2.05   c-19.067-12.778-32.106-44.036-41.971-63.913c-3.21-6.469-7.807-11.377-10.594-17.209c-6.371-13.33,1.067-29.418,4.889-42.609   c3.748-12.938,7.853-30.046,4.891-43.429c-1.898-8.577-7.593-12.821-11.002-19.666c-6.969-13.992-9.381-30.336-14.262-45.067   C103.988,101.022,96.751,83.105,97.795,71.698" id="path209" style="fill-rule:evenodd;clip-rule:evenodd;fill:#003B3B;"/>
    <path d="M99.425,73.336c-2.932-11,33.694-3.229,37.896,9.423   c2.427,7.306,8.504,14.762,11.002,20.895c5.829,14.309,8.806,29.509,11.832,44.734c7.121,35.823,10.741,72.133,13.432,108.497   c2.521,34.069,9.338,61.089,23.635,90.955c-21.548,6.308-40.715-33.254-48.084-47.526c-11.056-21.412-26.364-40.873-22.259-65.655   c4.497-27.144,14.521-50.204-0.56-74.464c-7.572-12.182-10.641-26.245-14.67-40.151C107.196,104.672,101.102,89.176,99.425,73.336" id="path211" style="fill-rule:evenodd;clip-rule:evenodd;fill:#044444;"/>
    <path d="M101.055,75.795c-0.119-9.128,12.319-5.098,17.929-3.688   c10.325,2.595,14.671,6.143,20.374,14.75c12.779,19.283,17.36,43.546,22.004,66.782c6.482,32.436,9.891,65.408,12.225,98.329   c2.415,34.063,5.548,62.354,22.004,92.594c-21.339,2.993-35.477-29.364-43.193-44.248c-10.382-20.023-23.722-41.916-21.188-64.733   c1.815-16.344,6.943-31.701,5.703-48.346c-0.963-12.931-5.006-18.088-11.408-27.86c-7.031-10.732-11.316-28.139-13.447-40.971   C109.67,104.025,102.211,90.389,101.055,75.795" id="path213" style="fill-rule:evenodd;clip-rule:evenodd;fill:#134C4C;"/>
    <path d="M103.5,79.072c-2.368-10.199,17.686-4.438,22.819-2.458   c9.96,3.843,14.376,12.343,18.744,22.124c12.84,28.752,19.392,64.92,23.03,97.784c4.183,37.779-0.247,79.519,12.828,115.674   c3.062,8.465,21.024,35.275,2.444,26.631c-11.06-5.146-15.689-17.925-22.004-27.45c-8.735-13.177-13.866-29.199-19.559-43.839   c-9.412-24.206-2.445-44.334-2.445-69.802c0-21.264-9.046-30.688-16.299-48.194C114.629,129.193,104.203,101.148,103.5,79.072" id="path215" style="fill-rule:evenodd;clip-rule:evenodd;fill:#225555;"/>
    <path d="M105.13,81.531c-1.092-8.765,13.878-5.577,19.558-4.097   c9.664,2.519,11.938,6.383,17.115,14.75c12.35,19.955,15.724,42.888,20.796,65.826c6.593,29.813,9.358,61.019,9.358,91.501   c0,28.82,4.271,62.656,19.559,86.858c-27.063,9.071-49.582-79.185-50.814-97.74c-1.092-16.428,3.221-33.19,0.891-49.603   c-1.908-13.44-6.456-19.494-12.828-29.65c-7.206-11.486-8.796-25.718-13.04-38.512C111.447,107.968,107.262,94.932,105.13,81.531" id="path217" style="fill-rule:evenodd;clip-rule:evenodd;fill:#305D5D;"/>
    <path d="M171.958,248.691c0,28.368,1.623,60.002,17.928,84.4   c-19.738,2.867-29.979-35.361-34.229-49.166c-2.646-8.593-4.347-17.78-6.52-26.221c-5.358-20.812-2.564-41.354-4.678-62.609   c-0.847-8.524-2.035-16.873-5.916-24.249c-2.918-5.545-7.68-8.247-10.596-13.11c-8.766-14.621-12.086-36.702-16.299-53.262   c-2.749-10.807-11.33-25.204,4.891-25.402c8.799-0.107,22.598,4.247,25.671,13.521c2.672,8.064,8.158,15.035,11.003,23.354   c4.856,14.2,6.942,29.375,10.171,43.975C169.789,188.878,171.958,219.101,171.958,248.691" id="path219" style="fill-rule:evenodd;clip-rule:evenodd;fill:#3F6565;"/>
    <path d="M85.571,50.393c11.564-4.111,3.378-36.285,19.967-30.728   c5.477,1.835,5.815,15.195,3.666,19.256C105.173,46.536,92.842,48.205,85.571,50.393" id="path221" style="fill-rule:evenodd;clip-rule:evenodd;"/>
    <path d="M95.351,23.352c5.999-8.32,13.853-3.268,13.853,5.584   c0,14.735-11.236,18.11-23.633,21.457C98.056,45.931,91.613,33.095,95.351,23.352" id="path223" style="fill-rule:evenodd;clip-rule:evenodd;fill:#32230A;"/>
    <path d="M95.351,23.352c7.792-6.021,13.853-4.286,13.853,6.146   c0,11.625-10.979,18.742-21.188,20.896C97.641,45.579,92.053,31.795,95.351,23.352" id="path225" style="fill-rule:evenodd;clip-rule:evenodd;fill:#654714;"/>
    <path d="M95.351,23.352c7.807-5.938,14.126-1.816,13.853,7.375   c-0.315,10.599-11.679,18.779-21.188,19.666C98.481,44.535,93.426,33.178,95.351,23.352" id="path227" style="fill-rule:evenodd;clip-rule:evenodd;fill:#996B1E;"/>
    <path d="M95.351,23.352c17.629-11.349,15.78,23.086-7.335,25.402   C98.148,44.276,95.351,32.483,95.351,23.352" id="path229" style="fill-rule:evenodd;clip-rule:evenodd;fill:#CC8E28;"/>
    <path d="M89.646,48.754c9.045-5.294,1.185-31.044,15.485-27.45   C118.893,24.762,98.543,48.399,89.646,48.754" id="path231" style="fill-rule:evenodd;clip-rule:evenodd;fill:#FFB232;"/>
    <path d="M126.319,148.723   c2.957,8.105,7.77,16.769,10.594,25.402c4.095,12.518,0.537,20.396-4.074,32.776c-4.614,12.389-6.56,25.129-10.172,37.845   c-2.639,9.292-6.929,18.719-6.127,28.527" id="path233" style="fill:none;stroke:#000000;stroke-width:0;stroke-linecap:square;stroke-miterlimit:10;"/>
    <path d="M116.54,56.129   c0.498,0.771,0.855,1.309,1.629,2.458" id="path235" style="fill:none;stroke:#336B6B;stroke-width:0;stroke-linecap:square;stroke-miterlimit:10;"/>
    <line id="line237" style="fill:none;stroke:#336B6B;stroke-width:0;stroke-linecap:square;stroke-miterlimit:10;" x1="112.466" x2="114.909" y1="56.129" y2="58.587"/>
    <line id="line239" style="fill:none;stroke:#336B6B;stroke-width:0;stroke-linecap:square;stroke-miterlimit:10;" x1="110.835" x2="114.909" y1="54.49" y2="56.129"/>
    <path d="M109.204,54.49   c-0.354,1.442,0.188,1.99,1.631,1.639" id="path241" style="fill:none;stroke:#336B6B;stroke-width:0;stroke-linecap:square;stroke-miterlimit:10;"/>
    <path d="M105.13,54.49   c0.131,0.811,0.644,1.208,1.63,1.639" id="path243" style="fill:none;stroke:#336B6B;stroke-width:0;stroke-linecap:square;stroke-miterlimit:10;"/>
    <line id="line245" style="fill:none;stroke:#336B6B;stroke-width:0;stroke-linecap:square;stroke-miterlimit:10;" x1="105.13" x2="106.761" y1="54.49" y2="54.49"/>
    <line id="line247" style="fill:none;stroke:#336B6B;stroke-width:0;stroke-linecap:square;stroke-miterlimit:10;" x1="109.204" x2="110.835" y1="54.49" y2="54.49"/>
    <line id="line249" style="fill:none;stroke:#336B6B;stroke-width:0;stroke-linecap:square;stroke-miterlimit:10;" x1="112.466" x2="114.909" y1="54.49" y2="54.49"/>
    <path d="M118.169,56.129   c0.815,0.819,1.631,1.638,2.445,2.458" id="path251" style="fill:none;stroke:#336B6B;stroke-width:0;stroke-linecap:square;stroke-miterlimit:10;"/>
    <line id="line253" style="fill:none;stroke:#336B6B;stroke-width:0;stroke-linecap:square;stroke-miterlimit:10;" x1="116.54" x2="118.169" y1="56.129" y2="56.129"/>
    <line id="line255" style="fill:none;stroke:#336B6B;stroke-width:0;stroke-linecap:square;stroke-miterlimit:10;" x1="116.54" x2="118.169" y1="52.851" y2="54.49"/>
    <line id="line257" style="fill:none;stroke:#336B6B;stroke-width:0;stroke-linecap:square;stroke-miterlimit:10;" x1="114.909" x2="116.54" y1="52.851" y2="54.49"/>
    <path d="M101.055,54.49   c0.815,0,1.63,0,2.445,0" id="path259" style="fill:none;stroke:#336B6B;stroke-width:0;stroke-linecap:square;stroke-miterlimit:10;"/>
    <path d="M110.835,17.616   c1.057,9.748,3.542,21.807-4.89,29.499c-7.401,6.752-18.067,3.142-26.078,7.375" id="path261" style="fill:none;stroke:#003232;stroke-width:0;stroke-linecap:square;stroke-miterlimit:10;"/>
    <path d="M110.835,17.616   c1.059,9.767,3.411,21.686-4.89,29.499c-7.229,6.804-18.366,2.984-26.078,7.375" id="path263" style="fill:none;stroke:#002828;stroke-width:0;stroke-linecap:square;stroke-miterlimit:10;"/>
    <path d="M110.835,15.978   c1.9,8.142,0.797,23.784-5.297,29.909c-7.2,7.236-17.259,4.218-25.671,8.604" id="path265" style="fill:none;stroke:#001E1E;stroke-width:0;stroke-linecap:square;stroke-miterlimit:10;"/>
    <path d="M110.835,15.978   c2.131,9.107,0.291,22.867-6.52,29.499c-6.775,6.598-16.643,5.383-24.448,9.014" id="path267" style="fill:none;stroke:#001414;stroke-width:0;stroke-linecap:square;stroke-miterlimit:10;"/>
    <path d="M110.835,15.978   c2.106,9.003,0.246,22.89-6.52,29.499c-6.764,6.607-16.647,5.384-24.448,9.014" id="path269" style="fill:none;stroke:#000A0A;stroke-width:0;stroke-linecap:square;stroke-miterlimit:10;"/>
    <path d="M109.204,15.978   c1.015,9.31,3.908,20.656-3.666,28.27c-7.001,7.038-20.291,2.905-25.671,10.243" id="path271" style="fill:none;stroke:#000000;stroke-width:0;stroke-linecap:square;stroke-miterlimit:10;"/>
    <line id="line273" style="fill:none;stroke:#8CBFBF;stroke-width:0;stroke-linecap:square;stroke-miterlimit:10;" x1="72.532" x2="68.457" y1="284.746" y2="280.648"/>
    <line id="line275" style="fill:none;stroke:#8CBFBF;stroke-width:0;stroke-linecap:square;stroke-miterlimit:10;" x1="72.532" x2="70.902" y1="280.648" y2="274.913"/>
    <line id="line277" style="fill:none;stroke:#8CBFBF;stroke-width:0;stroke-linecap:square;stroke-miterlimit:10;" x1="66.827" x2="65.197" y1="279.009" y2="273.273"/>
    <line id="line279" style="fill:none;stroke:#8CBFBF;stroke-width:0;stroke-linecap:square;stroke-miterlimit:10;" x1="66.827" x2="65.197" y1="283.107" y2="279.009"/>
    <line id="line281" style="fill:none;stroke:#8CBFBF;stroke-width:0;stroke-linecap:square;stroke-miterlimit:10;" x1="74.162" x2="72.532" y1="277.371" y2="273.273"/>
    <line id="line283" style="fill:none;stroke:#8CBFBF;stroke-width:0;stroke-linecap:square;stroke-miterlimit:10;" x1="78.237" x2="76.607" y1="284.746" y2="280.648"/>
    <line id="line285" style="fill:none;stroke:#8CBFBF;stroke-width:0;stroke-linecap:square;stroke-miterlimit:10;" x1="78.237" x2="76.607" y1="292.939" y2="288.842"/>
    <line id="line287" style="fill:none;stroke:#8CBFBF;stroke-width:0;stroke-linecap:square;stroke-miterlimit:10;" x1="72.532" x2="70.902" y1="292.939" y2="288.842"/>
    <line id="line289" style="fill:none;stroke:#8CBFBF;stroke-width:0;stroke-linecap:square;stroke-miterlimit:10;" x1="78.237" x2="74.162" y1="298.675" y2="294.578"/>
    <line id="line291" style="fill:none;stroke:#8CBFBF;stroke-width:0;stroke-linecap:square;stroke-miterlimit:10;" x1="76.607" x2="74.162" y1="300.314" y2="296.217"/>
    <line id="line293" style="fill:none;stroke:#8CBFBF;stroke-width:0;stroke-linecap:square;stroke-miterlimit:10;" x1="68.457" x2="66.827" y1="269.177" y2="265.899"/>
    <line id="line295" style="fill:none;stroke:#8CBFBF;stroke-width:0;stroke-linecap:square;stroke-miterlimit:10;" x1="62.752" x2="61.123" y1="267.538" y2="261.802"/>
    <line id="line297" style="fill:none;stroke:#8CBFBF;stroke-width:0;stroke-linecap:square;stroke-miterlimit:10;" x1="58.677" x2="57.047" y1="257.705" y2="251.968"/>
    <line id="line299" style="fill:none;stroke:#8CBFBF;stroke-width:0;stroke-linecap:square;stroke-miterlimit:10;" x1="58.677" x2="57.047" y1="265.899" y2="260.164"/>
    <line id="line301" style="fill:none;stroke:#8CBFBF;stroke-width:0;stroke-linecap:square;stroke-miterlimit:10;" x1="62.752" x2="61.123" y1="273.273" y2="267.538"/>
    <line id="line303" style="fill:none;stroke:#8CBFBF;stroke-width:0;stroke-linecap:square;stroke-miterlimit:10;" x1="65.197" x2="62.752" y1="260.164" y2="254.427"/>
    <line id="line305" style="fill:none;stroke:#8CBFBF;stroke-width:0;stroke-linecap:square;stroke-miterlimit:10;" x1="57.047" x2="55.417" y1="246.233" y2="240.498"/>
    <line id="line307" style="fill:none;stroke:#8CBFBF;stroke-width:0;stroke-linecap:square;stroke-miterlimit:10;" x1="52.972" x2="51.342" y1="250.33" y2="242.955"/>
    <line id="line309" style="fill:none;stroke:#8CBFBF;stroke-width:0;stroke-linecap:square;stroke-miterlimit:10;" x1="51.342" x2="49.712" y1="238.859" y2="231.484"/>
    <path d="M82.311,307.689c-0.584-1.373-1.233-2.639-1.63-4.098   c-1.349,5.007-0.814,10.361-0.814,15.569C80.553,315.333,81.614,311.624,82.311,307.689" id="path311" style="fill-rule:evenodd;clip-rule:evenodd;fill:#B2CCCC;"/>
    <path d="M79.867,319.161   c1.984-5.508,1.965-11.682,0-17.208" id="path313" style="fill:none;stroke:#000000;stroke-width:0;stroke-linecap:square;stroke-miterlimit:10;"/>
    <path d="M110.835,360.131   c-2.635-3.591-3.84-7.862-4.074-12.291" id="path315" style="fill:none;stroke:#8CBFBF;stroke-width:0;stroke-linecap:square;stroke-miterlimit:10;"/>
    <path d="M110.835,360.131   c-4.114-2.252-7.612-5.675-9.78-9.833" id="path317" style="fill:none;stroke:#8CBFBF;stroke-width:0;stroke-linecap:square;stroke-miterlimit:10;"/>
    <path d="M78.237,371.603   c-1.139-0.105-1.738,0.5-1.63,1.639" id="path319" style="fill:none;stroke:#004C4C;stroke-width:0;stroke-linecap:square;stroke-miterlimit:10;"/>
    <path d="   M207.001,361.771c4.12,7.753,10.902,18.08,19.559,21.305C219.764,384.329,198.204,363.626,207.001,361.771" id="path321" style="fill-rule:evenodd;clip-rule:evenodd;fill:#0C5959;stroke:#000000;stroke-width:0;stroke-linecap:square;stroke-miterlimit:10;"/>
    <path d="   M204.556,363.41c5.399,7.859,12.074,15.399,20.375,20.484C211.986,389.917,185.388,362.552,204.556,363.41" id="path323" style="fill-rule:evenodd;clip-rule:evenodd;fill:#0C5959;stroke:#000000;stroke-width:0;stroke-linecap:square;stroke-miterlimit:10;"/>
    <path d="   M197.222,365.867c4.431,7.483,12.672,16.295,21.189,18.848c-7.605,7.681-26.831-10.402-30.154-18.027   C190.831,365.828,194.172,365.437,197.222,365.867" id="path325" style="fill-rule:evenodd;clip-rule:evenodd;fill:#0C5959;stroke:#000000;stroke-width:0;stroke-linecap:square;stroke-miterlimit:10;"/>
    <path d="   M191.517,367.506c4.911,7.505,11.758,15.176,20.373,18.026c-6.935,5.906-18.617-5.037-24.447-9.832   C178.703,368.513,178.419,363.758,191.517,367.506" id="path327" style="fill-rule:evenodd;clip-rule:evenodd;fill:#0C5959;stroke:#000000;stroke-width:0;stroke-linecap:square;stroke-miterlimit:10;"/>
    <path d="   M178.478,367.506c5.318,6.748,17.113,16.879,25.264,19.666c-9.899-2.121-27.818-14.828-32.6-22.124   C173.376,365.71,176.099,366.373,178.478,367.506" id="path329" style="fill-rule:evenodd;clip-rule:evenodd;fill:#0C5959;stroke:#000000;stroke-width:0;stroke-linecap:square;stroke-miterlimit:10;"/>
    <path d="M178.478,367.506   c-2.008-1.195-4.22-1.763-6.52-1.64" id="path331" style="fill:none;stroke:#0C5959;stroke-width:0;stroke-linecap:square;stroke-miterlimit:10;"/>
    <path d="M180.106,367.506   c2.034-0.957,6.467-0.924,9.779,0" id="path333" style="fill:none;stroke:#0C5959;stroke-width:0;stroke-linecap:square;stroke-miterlimit:10;"/>
    <path d="M189.886,367.506   c1.345-2.072,4.327-2.445,7.336-1.64" id="path335" style="fill:none;stroke:#0C5959;stroke-width:0;stroke-linecap:square;stroke-miterlimit:10;"/>
    <path d="M197.222,365.867   c1.416-1.838,4.401-2.709,7.334-2.457" id="path337" style="fill:none;stroke:#0C5959;stroke-width:0;stroke-linecap:square;stroke-miterlimit:10;"/>
    <path d="M207.001,361.771   c-1.71-0.489-2.749-0.16-2.445,1.639" id="path339" style="fill:none;stroke:#0C5959;stroke-width:0;stroke-linecap:square;stroke-miterlimit:10;"/>
    <path d="M207.001,361.771   c-1.71-0.489-2.749-0.16-2.445,1.639" id="path341" style="fill:none;stroke:#055151;stroke-width:0;stroke-linecap:square;stroke-miterlimit:10;"/>
    <path d="M207.001,360.131   c-1.277,0.059-2.283,0.534-2.445,1.64" id="path343" style="fill:none;stroke:#004949;stroke-width:0;stroke-linecap:square;stroke-miterlimit:10;"/>
    <path d="M207.001,360.131   c-1.277,0.059-2.283,0.534-2.445,1.64" id="path345" style="fill:none;stroke:#004242;stroke-width:0;stroke-linecap:square;stroke-miterlimit:10;"/>
    <path d="M207.001,360.131   c-1.277,0.059-2.283,0.534-2.445,1.64" id="path347" style="fill:none;stroke:#003A3A;stroke-width:0;stroke-linecap:square;stroke-miterlimit:10;"/>
    <path d="M207.001,360.131   c-1.422,0.39-2.781,0.937-4.074,1.64" id="path349" style="fill:none;stroke:#003232;stroke-width:0;stroke-linecap:square;stroke-miterlimit:10;"/>
    <path d="M197.222,365.867   c1.416-1.838,4.401-2.709,7.334-2.457" id="path351" style="fill:none;stroke:#055151;stroke-width:0;stroke-linecap:square;stroke-miterlimit:10;"/>
    <path d="M195.591,365.867   c1.94-1.438,5.729-2.465,8.965-2.457" id="path353" style="fill:none;stroke:#004949;stroke-width:0;stroke-linecap:square;stroke-miterlimit:10;"/>
    <path d="M195.591,365.867   c1.978-2.362,5.368-3.203,8.965-2.457" id="path355" style="fill:none;stroke:#004242;stroke-width:0;stroke-linecap:square;stroke-miterlimit:10;"/>
    <path d="M195.591,365.867   c1.863-2.448,5.346-3.948,8.965-4.096" id="path357" style="fill:none;stroke:#003A3A;stroke-width:0;stroke-linecap:square;stroke-miterlimit:10;"/>
    <path d="M195.591,363.41   c2.887-0.957,5.908-1.507,8.965-1.639" id="path359" style="fill:none;stroke:#003232;stroke-width:0;stroke-linecap:square;stroke-miterlimit:10;"/>
    <path d="M189.886,365.867   c0.362-0.556,4.002-0.68,7.336,0" id="path361" style="fill:none;stroke:#055151;stroke-width:0;stroke-linecap:square;stroke-miterlimit:10;"/>
    <path d="M189.886,365.867   c0.362-0.556,4.002-0.68,7.336,0" id="path363" style="fill:none;stroke:#004949;stroke-width:0;stroke-linecap:square;stroke-miterlimit:10;"/>
    <path d="M189.886,365.867   c0.362-0.556,4.002-0.68,7.336,0" id="path365" style="fill:none;stroke:#004242;stroke-width:0;stroke-linecap:square;stroke-miterlimit:10;"/>
    <path d="M189.886,365.867   c0.03-1.047,2.726-0.683,5.705,0" id="path367" style="fill:none;stroke:#003A3A;stroke-width:0;stroke-linecap:square;stroke-miterlimit:10;"/>
    <path d="M187.442,365.867   c1.92-1.965,5.072-1.745,8.148,0" id="path369" style="fill:none;stroke:#003232;stroke-width:0;stroke-linecap:square;stroke-miterlimit:10;"/>
    <path d="M180.106,365.867   c3.299,0.074,6.61,0.634,9.779,1.64" id="path371" style="fill:none;stroke:#055151;stroke-width:0;stroke-linecap:square;stroke-miterlimit:10;"/>
    <path d="M180.106,365.867   c3.299,0.074,6.61,0.634,9.779,1.64" id="path373" style="fill:none;stroke:#004949;stroke-width:0;stroke-linecap:square;stroke-miterlimit:10;"/>
    <path d="M178.478,365.867   c2.635-2.257,7.549-1.499,11.408,0" id="path375" style="fill:none;stroke:#004242;stroke-width:0;stroke-linecap:square;stroke-miterlimit:10;"/>
    <path d="M178.478,365.867   c2.635-2.257,7.549-1.499,11.408,0" id="path377" style="fill:none;stroke:#003A3A;stroke-width:0;stroke-linecap:square;stroke-miterlimit:10;"/>
    <path d="M178.478,365.867   c2.635-2.257,7.549-1.499,11.408,0" id="path379" style="fill:none;stroke:#003232;stroke-width:0;stroke-linecap:square;stroke-miterlimit:10;"/>
    <path d="M178.478,367.506   c-2.271-1.187-4.505-2.588-6.52-4.097" id="path381" style="fill:none;stroke:#055151;stroke-width:0;stroke-linecap:square;stroke-miterlimit:10;"/>
    <path d="M178.478,365.867   c-2.154-0.618-5.431-1.868-6.52-2.457" id="path383" style="fill:none;stroke:#004949;stroke-width:0;stroke-linecap:square;stroke-miterlimit:10;"/>
    <path d="M178.478,365.867   c-2.135-0.92-4.31-1.739-6.52-2.457" id="path385" style="fill:none;stroke:#004242;stroke-width:0;stroke-linecap:square;stroke-miterlimit:10;"/>
    <path d="M178.478,365.867   c-2.135-0.92-4.31-1.739-6.52-2.457" id="path387" style="fill:none;stroke:#003A3A;stroke-width:0;stroke-linecap:square;stroke-miterlimit:10;"/>
    <path d="M178.478,365.867   c-2.62-1.054-5.429-1.902-8.15-2.457" id="path389" style="fill:none;stroke:#003232;stroke-width:0;stroke-linecap:square;stroke-miterlimit:10;"/>
    <path d="M78.237,58.587   c-7.78,14.298,11.009,34.844,16.48,47.678c9.396,22.039-0.348,49.208,8.783,72.776" id="path391" style="fill:none;stroke:#000000;stroke-width:0;stroke-linecap:square;stroke-miterlimit:10;"/>
    <path d="M78.237,58.587   c-4.28,16.36,13.036,36.452,17.537,52.291c6.246,21.979,0.279,45.323,7.727,68.164" id="path393" style="fill:none;stroke:#000A0A;stroke-width:0;stroke-linecap:square;stroke-miterlimit:10;"/>
    <path d="M78.237,58.587   c-4.609,17.619,13.682,34.131,17.929,50.804c5.715,22.438-0.719,45.339,7.335,68.012" id="path395" style="fill:none;stroke:#001414;stroke-width:0;stroke-linecap:square;stroke-miterlimit:10;"/>
    <path d="M79.867,58.587   c-8.252,13.771,11.041,34.944,15.484,48.345c7.396,22.311-0.007,47.508,8.15,70.47" id="path397" style="fill:none;stroke:#001E1E;stroke-width:0;stroke-linecap:square;stroke-miterlimit:10;"/>
    <path d="M79.867,56.129   c-6.88,19.979,11.655,32.411,16.692,50.136c6.531,22.983-0.829,47.489,6.942,71.137" id="path399" style="fill:none;stroke:#002828;stroke-width:0;stroke-linecap:square;stroke-miterlimit:10;"/>
    <path d="M79.867,56.129   c-7.111,18.94,11.897,33.263,16.692,50.136c6.365,22.401-1.768,46.745,6.942,69.498" id="path401" style="fill:none;stroke:#003232;stroke-width:0;stroke-linecap:square;stroke-miterlimit:10;"/>
    <path d="M103.5,138.89   c0,15.296,0,30.591,0,45.887" id="path403" style="fill:none;stroke:#000000;stroke-width:0;stroke-linecap:square;stroke-miterlimit:10;"/>
    <path d="M109.204,181.499   c0.544,0,1.087,0,1.631,0" id="path405" style="fill:none;stroke:#336B6B;stroke-width:0;stroke-linecap:square;stroke-miterlimit:10;"/>
    <path d="M110.835,184.777   c0.498,0.771,0.856,1.31,1.631,2.458" id="path407" style="fill:none;stroke:#336B6B;stroke-width:0;stroke-linecap:square;stroke-miterlimit:10;"/>
    <path d="M106.761,187.235   c0.814,0,1.629,0,2.443,0" id="path409" style="fill:none;stroke:#336B6B;stroke-width:0;stroke-linecap:square;stroke-miterlimit:10;"/>
    <path d="M109.204,190.513   c0.544,0,1.087,0,1.631,0" id="path411" style="fill:none;stroke:#336B6B;stroke-width:0;stroke-linecap:square;stroke-miterlimit:10;"/>
    <path d="M106.761,192.971   c0.666,0.756,1.486,1.303,2.443,1.639" id="path413" style="fill:none;stroke:#336B6B;stroke-width:0;stroke-linecap:square;stroke-miterlimit:10;"/>
    <path d="M105.13,198.707   c1.249,0.526,2.636,1.085,4.074,1.639" id="path415" style="fill:none;stroke:#336B6B;stroke-width:0;stroke-linecap:square;stroke-miterlimit:10;"/>
    <path d="M103.5,204.443   c-0.027,0.965,0.624,1.462,1.63,1.639" id="path417" style="fill:none;stroke:#336B6B;stroke-width:0;stroke-linecap:square;stroke-miterlimit:10;"/>
    <path d="M103.5,207.72   c0.063,1.026,0.682,1.884,1.63,2.459" id="path419" style="fill:none;stroke:#336B6B;stroke-width:0;stroke-linecap:square;stroke-miterlimit:10;"/>
    <path d="M99.425,210.179   c0.173,1.007,0.667,1.662,1.63,1.639" id="path421" style="fill:none;stroke:#336B6B;stroke-width:0;stroke-linecap:square;stroke-miterlimit:10;"/>
    <path d="M99.425,213.457   c0.063,1.025,0.683,1.884,1.63,2.458" id="path423" style="fill:none;stroke:#336B6B;stroke-width:0;stroke-linecap:square;stroke-miterlimit:10;"/>
    <path d="M97.795,217.553   c0.132,0.812,0.644,1.207,1.63,1.64" id="path425" style="fill:none;stroke:#336B6B;stroke-width:0;stroke-linecap:square;stroke-miterlimit:10;"/>
    <path d="M97.795,221.65   c1.086,0.547,2.173,1.094,3.26,1.639" id="path427" style="fill:none;stroke:#336B6B;stroke-width:0;stroke-linecap:square;stroke-miterlimit:10;"/>
    <path d="M95.351,223.289   c0.074,1.471,1.014,1.952,2.444,1.64" id="path429" style="fill:none;stroke:#336B6B;stroke-width:0;stroke-linecap:square;stroke-miterlimit:10;"/>
    <path d="M95.351,229.025   c0.815,0,1.629,0,2.444,0" id="path431" style="fill:none;stroke:#336B6B;stroke-width:0;stroke-linecap:square;stroke-miterlimit:10;"/>
    <path d="M93.721,231.484   c0.543,0.546,1.087,1.092,1.63,1.639" id="path433" style="fill:none;stroke:#336B6B;stroke-width:0;stroke-linecap:square;stroke-miterlimit:10;"/>
    <path d="M91.276,233.123   c1.397,0.242,2.833,0.824,4.075,1.639" id="path435" style="fill:none;stroke:#336B6B;stroke-width:0;stroke-linecap:square;stroke-miterlimit:10;"/>
    <path d="M91.276,237.219   c0.958,0.336,1.779,0.883,2.445,1.64" id="path437" style="fill:none;stroke:#336B6B;stroke-width:0;stroke-linecap:square;stroke-miterlimit:10;"/>
    <path d="M89.646,240.498   c1.324,0.804,2.611,1.58,4.075,2.457" id="path439" style="fill:none;stroke:#336B6B;stroke-width:0;stroke-linecap:square;stroke-miterlimit:10;"/>
    <path d="M89.646,246.233   c0.543,0,1.086,0,1.63,0" id="path441" style="fill:none;stroke:#336B6B;stroke-width:0;stroke-linecap:square;stroke-miterlimit:10;"/>
    <path d="M88.016,250.33   c0.516,0.688,1.789,1.3,3.26,1.639" id="path443" style="fill:none;stroke:#336B6B;stroke-width:0;stroke-linecap:square;stroke-miterlimit:10;"/>
    <path d="M93.721,244.594   c-0.027,0.965,0.624,1.462,1.63,1.639" id="path445" style="fill:none;stroke:#336B6B;stroke-width:0;stroke-linecap:square;stroke-miterlimit:10;"/>
    <path d="M99.425,227.386   c0.543,0.547,1.086,1.093,1.63,1.639" id="path447" style="fill:none;stroke:#336B6B;stroke-width:0;stroke-linecap:square;stroke-miterlimit:10;"/>
    <path d="M103.5,213.457   c0.063,1.025,0.682,1.884,1.63,2.458" id="path449" style="fill:none;stroke:#336B6B;stroke-width:0;stroke-linecap:square;stroke-miterlimit:10;"/>
    <path d="M106.761,204.443   c1.397,0.243,2.833,0.825,4.074,1.639" id="path451" style="fill:none;stroke:#336B6B;stroke-width:0;stroke-linecap:square;stroke-miterlimit:10;"/>
    <path d="M109.204,196.249   c-0.309,1.359,0.257,2.166,1.631,2.458" id="path453" style="fill:none;stroke:#336B6B;stroke-width:0;stroke-linecap:square;stroke-miterlimit:10;"/>
    <path d="M89.646,254.427   c0.543,0.547,1.086,1.093,1.63,1.639" id="path455" style="fill:none;stroke:#336B6B;stroke-width:0;stroke-linecap:square;stroke-miterlimit:10;"/>
    <path d="M89.646,261.802   c0.543,0,1.086,0,1.63,0" id="path457" style="fill:none;stroke:#336B6B;stroke-width:0;stroke-linecap:square;stroke-miterlimit:10;"/>
    <path d="M91.276,267.538   c0.815,0,1.63,0,2.445,0" id="path459" style="fill:none;stroke:#336B6B;stroke-width:0;stroke-linecap:square;stroke-miterlimit:10;"/>
  </g>
</svg>
