<?xml version="1.0" encoding="UTF-8" standalone="no"?>
<!-- Generator: Adobe Illustrator 12.0.0, SVG Export Plug-In . SVG Version: 6.00 Build 51448)  --><svg height="377.714" id="Layer_1" inkscape:version="0.42" sodipodi:docbase="F:\openclip\svg da inviare" sodipodi:docname="pinzatrice.svg" sodipodi:version="0.32" space="preserve" style="overflow:visible;enable-background:new 0 0 413.885 377.714;" version="1.1" viewBox="0 0 413.885 377.714" width="413.885" xmlns="http://www.w3.org/2000/svg" xmlns:cc="http://web.resource.org/cc/" xmlns:dc="http://purl.org/dc/elements/1.1/" xmlns:inkscape="http://www.inkscape.org/namespaces/inkscape" xmlns:rdf="http://www.w3.org/1999/02/22-rdf-syntax-ns#" xmlns:sodipodi="http://inkscape.sourceforge.net/DTD/sodipodi-0.dtd" xmlns:svg="http://www.w3.org/2000/svg">
  <metadata>
    <rdf:RDF xmlns:cc="http://web.resource.org/cc/" xmlns:dc="http://purl.org/dc/elements/1.1/" xmlns:rdf="http://www.w3.org/1999/02/22-rdf-syntax-ns#">
      <cc:Work rdf:about="">
        <dc:title>Various Cliparts</dc:title>
        <dc:description></dc:description>
        <dc:subject>
          <rdf:Bag>
            <rdf:li></rdf:li>
          </rdf:Bag>
        </dc:subject>
        <dc:publisher>
          <cc:Agent rdf:about="http://www.openclipart.org/">
            <dc:title></dc:title>
          </cc:Agent>
        </dc:publisher>
        <dc:creator>
          <cc:Agent>
            <dc:title>Architetto Francesco Rollandin</dc:title>
          </cc:Agent>
        </dc:creator>
        <dc:rights>
          <cc:Agent>
            <dc:title>Architetto Francesco Rollandin</dc:title>
          </cc:Agent>
        </dc:rights>
        <dc:date></dc:date>
        <dc:format>image/svg+xml</dc:format>
        <dc:type rdf:resource="http://purl.org/dc/dcmitype/StillImage"/>
        <cc:license rdf:resource="http://web.resource.org/cc/PublicDomain"/>
        <dc:language>en</dc:language>
      </cc:Work>
      <cc:License rdf:about="http://web.resource.org/cc/PublicDomain">
        <cc:permits rdf:resource="http://web.resource.org/cc/Reproduction"/>
        <cc:permits rdf:resource="http://web.resource.org/cc/Distribution"/>
        <cc:permits rdf:resource="http://web.resource.org/cc/DerivativeWorks"/>
      </cc:License>
    </rdf:RDF>
  </metadata>
  <defs id="defs116"/>
  <sodipodi:namedview bordercolor="#666666" borderopacity="1.0" id="base" inkscape:current-layer="Layer_1" inkscape:cx="206.94250" inkscape:cy="188.85699" inkscape:pageopacity="0.0" inkscape:pageshadow="2" inkscape:window-height="510" inkscape:window-width="787" inkscape:window-x="22" inkscape:window-y="29" inkscape:zoom="0.95310211" pagecolor="#ffffff"/>
  <path d="M346.836,67.417c-5.782-6.289-11.565-12.579-17.348-18.868c-3.001-3.264-15.38-1.093-19.656-0.765  c-6.447,0.494-13.6,0.823-19.914,2.143c-8.397,1.756-13.549,8.526-20.005,14.328c-6.655,5.981-10.091,7.536-10.841,16.518  c-0.63,7.543,0.162,15.035,0.316,22.577c0.3,14.669-0.062,28.159-6.995,41.339c-20.833-15.402-34.869-36.99-53.481-54.671  c-18.836-17.895-43.884-29.041-66.166-42.185c-11.192-6.603-22.062-13.585-32.563-21.248c-5.754-4.198-11.409-8.41-16.954-12.878  C79.751,10.904,70.9,0.191,67.327,0.004c-4.413-0.231-11.232,9.833-13.04,13.037c-3.216,5.702-4.77,12.038-4.77,18.603  c0,13.213,11.086,20.792,20.719,28.943c23.555,19.933,49.956,36.052,73.899,55.474c12.752,10.344,23.293,21.818,33.4,34.703  c9.402,11.985,13.013,26.648,16.985,40.987c-29.167,0.37-58.334,0.741-87.501,1.111c-17.157,0.218-34.314,0.436-51.472,0.653  c-10.326,0.132-15.19,2.017-24.592,7.079c-5.478,2.949-11.225,5.4-16.536,8.668c-7.662,4.716-10.528,5.953-11.965,14.923  c-2.084,13.012-2.896,26.565-2.227,39.749c1.277,25.144,6.936,52.445,18.682,74.866c4.343,8.289,8.794,15.952,13.983,23.735  c2.687,4.03,15.082,2.247,19.499,2.461c11.637,0.565,23.274,1.13,34.911,1.695c9.041,0.438,10.979,2.191,16.271-5.136  c-10.42-0.523-21.039-1.273-31.47-1.273c-7.323,0-26.141,2.339-31.491-2.542c6.218-4.834,25.677-0.062,33.07,0.315  c5.824,0.298,30.585,5.606,33.391-1.269c-12.271-1.068-24.599-1.426-36.889-2.228c-5.741-0.375-11.45-1.134-17.2-1.385  c-4.359-0.189-15.5,0.933-19.048-1.479c-3.509-2.385-6.54-13.586-8.428-17.809c-2.746-6.139-5.024-12.372-7.155-18.759  c-4.177-12.522-6.774-25.062-8.942-38.063c-2.034-12.199-1.375-24.97,0.013-37.189c0.738-6.49,2.252-12.668,3.733-19.038  c0.27-1.16,5.93-0.55,6.981-0.564c35.699-0.497,71.398-0.994,107.097-1.491c30.581-0.426,59.692,1.604,86.873-15.267  c29.874-18.543,45.911-45.17,51.958-79.497c12.964,48.659,24.215,97.63,35.932,146.59c-11.964,1.477-27.384-5.603-38.195,1.614  c-7.5,5.007-5.035,5.46-3.938,13.173c0.691,4.858,1.396,11.419,4.928,15.105c0.909-1.508,5.753-6.724,6.909-3.09  c3.14,9.872,7.768,17.79,14.077,25.985c10.361,13.457,20.43,25.759,27.665,40.703c-32.971-1.346-68.715-1.333-102.745-2.88  c-18.452-0.839-36.911-1.376-55.362-2.213c-7.917-0.359-47.646-6.329-50.491,0.638c73.353,3.392,146.73,6.422,220.049,10.495  c-4.905,2.895-17.791,0.378-24.571,0.281c-10.215-0.146-20.398-0.314-30.603-0.759c-18.801-0.817-37.602-1.63-56.403-2.436  c-20.305-0.87-40.587-2.019-60.877-3.195c-8.864-0.515-17.741-0.762-26.609-1.205c-5.258-0.263-10.513-0.601-15.77-0.9  c-6.793-0.389-6.569-0.261-10.623,5.354c62.881,2.914,125.763,5.828,188.644,8.742c11.407,0.528,22.814,1.058,34.221,1.586  c2.728,0.126,3.205,0.44,5.356-1.319c5.643-4.615,6.965-4.239,14.215-4.239c16.856,0,33.713,0,50.569,0  c2.871,0,22.009-21.652,21.425-24.103c-11.497-48.29-22.995-96.58-34.492-144.87c-7.407-31.113-14.815-62.226-22.224-93.339  C353.912,96.112,352.123,80.348,346.836,67.417 M202.788,205.105c-59.945,16.348-121.755,10.009-183.159,11.13  c6.185-4.646,12.777-8.068,19.713-11.449c8.406-4.098,12.56-4.28,22.109-3.835c15.972,0.743,31.936,0.021,47.908,0.021  c16.729,0,33.456-0.781,50.184-1.114c8.161-0.162,16.322-0.32,24.482-0.476C189.407,199.28,204.949,195.539,202.788,205.105   M266.069,294.459c-0.207-0.874-6.136-21.445-0.637-17.329C269.347,280.062,271.363,293.353,266.069,294.459 M312.493,351.06  c-18.391-23.786-38.851-44.205-41.021-75.68c7.271,0,14.54,0,21.811,0c9.544,0,9.379-1.169,11.731,8.245  c3.036,12.146,6.467,24.181,9.705,36.272c3.208,11.979,6.352,24.645,8.044,36.936c0.381,2.761,2.599,8.109-0.414,9.016  c-2.292,0.688-4.558,0.606-5.881-1.59C313.955,360.085,316.839,354.43,312.493,351.06" id="path3" style="fill:#352020;"/>
  <path d="M312.177,361.236c-6.857-15.996-19.154-28.186-29.486-41.96  c-4.313-5.747-10.647-30.788-17.896-18.774c-3.531-3.687-4.236-10.247-4.928-15.105c-1.097-7.713-3.562-8.166,3.938-13.173  c10.812-7.217,26.231-0.138,38.195-1.614c-11.717-48.96-22.968-97.932-35.932-146.59c-4.702,26.695-15.023,47.778-34.24,66.992  c-14.111,14.109-40.905,26.884-61.041,27.165c-33.258,0.463-66.517,0.926-99.775,1.39c-16.177,0.225-32.354,0.45-48.532,0.676  c-3.002,0.041-6.005,0.083-9.007,0.125c-1.086,0.016-3.324,13.144-3.585,15.44c-4.625,40.699,5.414,77.594,23.155,114.051  c2.251,4.626,18.264,3.06,23.278,3.496c9.493,0.825,18.988,1.543,28.494,2.16c5.969,0.388,20.564,3.632,24.019-1.176  c6.726-9.359,13.453-18.72,20.179-28.08c-26.052-1.048-52.924,3.637-70.82-19.138c-7.669-9.762-12.173-19.836-12.173-32.423  c0-5.452,1.575-12.126,4.45-16.807c4.508-7.337,11.474-5.087,19.27-5.087c27.04,0,54.079,0,81.119,0  c12.56,0,25.135-0.173,37.693,0.068c12.948,0.25,27.502-1.462,39.357,4.382c16.228,7.999,27.964,26.173,23.849,44.519  c-3.17,14.13-19.777,27.348-34.696,27.348c-23.404,0-46.88-1.479-70.269-2.266c-5.667-0.189-15.937-3.161-19.54,1.853  c-6.726,9.359-13.453,18.72-20.179,28.08c68.568,3.162,138.871,4.559,206.371,7.313C312.568,363.05,312.688,362.013,312.177,361.236   M23.442,248.034c-9.386,2.869-15.221-13.885-5.403-16.219C28.839,229.247,29.617,242.949,23.442,248.034 M48.248,339.614  c-1.086,9.338-13.271,11.739-15.899,1.906c-1.013-3.79,1.375-10.86,6.359-11.446C43.316,329.532,47.264,336.039,48.248,339.614   M242.853,207.966c-2.827-2.903-5.047-12.094,1.911-10.81C244.127,200.76,243.489,204.362,242.853,207.966 M252.394,210.828  c-8.045,6.732-3.105-6.679-1.907-10.492C252.946,203.334,254.232,207.244,252.394,210.828 M251.759,197.156  c0.848,1.06,1.696,2.12,2.544,3.18C253.455,199.276,252.606,198.216,251.759,197.156" id="path5" style="fill:#8C8C8C;"/>
  <path d="M242.853,207.966c0.637-3.604,1.274-7.206,1.911-10.81  C237.806,195.872,240.025,205.063,242.853,207.966" id="path7" style="fill:#D1C5BE;"/>
  <path d="M47.928,200.336c-9.539,5.303-19.521,9.306-28.299,15.899  c35.167-0.643,70.31,0.675,105.476,0.082c16.623-0.28,33.526-1.763,49.898-4.636c9.332-1.638,18.228-3.97,27.377-6.465  c7.644-2.085,15.919-9.862,22.666-14.104c-14.905,4.903-25.883,7.979-41.483,8.278c-15.706,0.302-31.411,0.613-47.115,0.936  C106.886,200.933,77.49,201.498,47.928,200.336" id="path9" style="fill-rule:evenodd;clip-rule:evenodd;fill:#B2B2B2;"/>
  <path d="M246.67,211.466c5.96,5.301,7.359-6.813,3.816-11.13  C249.351,203.949,248.302,208.438,246.67,211.466" id="path11" style="fill-rule:evenodd;clip-rule:evenodd;fill:#D1C5BE;"/>
  <path d="M17.719,231.815c-3.417,3.245-5.215,4.439-4.292,9.064c0.822,4.118,5.769,9.978,10.493,6.836  C32.132,242.256,26.858,231.454,17.719,231.815 M22.808,246.124c-7.813,0.795-7.848-5.089-6.043-10.81  C21.622,236.754,27.834,240.794,22.808,246.124" id="path13" style="fill:#352020;"/>
  <path d="M16.449,235.314c-1.042,3.958-2.775,7.345,1.27,9.857c2.202,1.367,4.927,1.45,6.36-0.637  C27.573,239.447,20.038,236.162,16.449,235.314" id="path15" style="fill:#D1C5BE;"/>
  <path d="M246.67,313.538c18.583-20.672-3.67-49.252-22.784-58.159c-10.401-4.848-27.611-2.467-38.904-2.575  c-13.512-0.129-27.032,0-40.545,0c-27.082,0-54.163,0-81.245,0c-7.666,0-10.286,0.215-13.899,7.443  c-2.701,5.403-3.777,12.49-3.114,18.473c1.344,12.128,5.905,22.442,14.628,31.162c4.745,4.742,10.321,9.871,16.535,12.59  c6.909,3.023,14.41,2.287,21.918,2.589c9.703,0.391,19.406,0.781,29.109,1.171c3.322,0.134,11.517-15.35,13.685-18.416  c-23.154-0.702-55.498,5.392-72.761-14.332c-6.488-7.413-10.885-17.703-8.009-27.801c2.334-8.194,21.636-5.565,28.667-5.565  c28.767,0,57.833-0.405,86.732-0.088c22.726,0.249,45.797-3.546,62.38,15.139c6.397,7.209,11.833,25.782,3.157,33.602  c-6.813,6.141-26.158,1.473-34.456,1.2c-18.856-0.618-37.712-1.236-56.568-1.854c-1.325-0.044-8.496-1.214-9.332-0.031  c-4.284,6.059-8.567,12.116-12.85,18.174c25.559,0.858,51.118,1.717,76.676,2.575C222.375,329.394,235.146,324.841,246.67,313.538   M78.772,310.042c-2.755-1.591-5.511-3.181-8.266-4.771C73.262,306.861,76.017,308.451,78.772,310.042 M53.017,261.071  c-2.667,11.436-0.029,22.718,5.723,32.751C51.171,284.337,49.583,272.515,53.017,261.071 M147.457,324.352  c2.386-3.223,5.157-8.048,9.54-8.586C153.993,318.854,152.539,324.668,147.457,324.352" id="path17" style="fill:#352020;"/>
  <path d="M52.697,261.071c-2.179,11.95-1.883,22.817,6.043,32.751  C52.407,282.775,52.263,272.788,52.697,261.071" id="path19" style="fill-rule:evenodd;clip-rule:evenodd;fill:#8C8C8C;"/>
  <path d="M271.473,275.38c1.381,20.036,9.314,35.476,21.465,51.197c6.255,8.093,12.897,15.871,19.155,23.965  c3.493,4.519,1.953,17.803,10.257,15.307c5.471-1.646-9.55-52.36-11.286-59.305c-2.549-10.192-5.396-20.308-7.944-30.505  C302.513,273.612,275.427,275.38,271.473,275.38 M289.918,299.229c-8.19,0.188-14.989-14.945-5.249-14.945  C292.459,284.284,299.423,298.602,289.918,299.229" id="path21" style="fill:#8C8C8C;"/>
  <path d="M264.479,276.653c-5.624,5.063,0.255,12.18,1.591,17.806  C271.713,293.279,269.165,278.918,264.479,276.653" id="path23" style="fill-rule:evenodd;clip-rule:evenodd;fill:#8C8C8C;"/>
  <path d="M280.058,292.553c2.401,4.517,9.752,10.168,13.676,4.292  C299.716,287.885,277.396,276.686,280.058,292.553 M289.918,296.685c-4.477,0.655-6.074-3.783-7.949-6.995  c1.975-0.282,5.454-3.042,7.151-1.908C291.832,289.593,293.034,295.01,289.918,296.685" id="path25" style="fill:#352020;"/>
  <path d="M291.188,290.962c-1.213-6.087-5.699-1.775-9.219-1.272  c1.189,2.038,2.807,6.385,5.402,6.995C291.86,297.74,292.398,293.432,291.188,290.962" id="path27" style="fill-rule:evenodd;clip-rule:evenodd;fill:#D1C5BE;"/>
  <path d="M147.457,324.352c5.082,0.316,6.536-5.497,9.54-8.586  C152.614,316.304,149.843,321.129,147.457,324.352" id="path29" style="fill-rule:evenodd;clip-rule:evenodd;fill:#8C8C8C;"/>
  <path d="M38.388,329.757c-3.686,3.861-7.626,5.774-6.04,11.764c1.082,4.083,4.97,7.857,9.54,6.68  C53.606,345.182,45.665,332.159,38.388,329.757 M40.615,346.291c-6.027-0.786-9.41-11.784-2.544-11.131  C43.095,335.638,44.134,343.894,40.615,346.291" id="path31" style="fill:#352020;"/>
  <path d="M42.521,338.66c-5.398-6.451-11.589-0.696-6.677,5.086  C40.983,349.795,42.687,343.153,42.521,338.66" id="path33" style="fill-rule:evenodd;clip-rule:evenodd;fill:#D1C5BE;"/>
  <path d="M42.521,356.467c-0.635,0.425-1.271,0.849-1.906,1.273  c5.641,5.146,24.764,2.307,32.435,2.542c6.223,0.19,28.559,4.411,31.798-0.637C84.072,358.586,63.297,357.526,42.521,356.467" id="path35" style="fill-rule:evenodd;clip-rule:evenodd;fill:#8C8C8C;"/>
  <path d="M324.577,370.141c-34.415-1.93-68.838-3.518-103.271-5.11  c-26.352-1.218-52.704-2.437-79.056-3.655c-5.833-0.27-35.516-5.618-38.675,0.181c37.082,2.118,74.194,4.151,111.302,5.738  c19.061,0.815,38.12,1.643,57.181,2.471c9.887,0.431,19.767,0.535,29.662,0.677C306.896,370.516,322.596,372.54,324.577,370.141" id="path37" style="fill-rule:evenodd;clip-rule:evenodd;fill:#8C8C8C;"/>
  <path d="M68.28,11.134c39.998,34.889,90.532,55.51,129.631,91.143c10.18,9.277,19.761,19.042,28.384,29.82  c3.163,3.954,7.23,7.393,10.812,10.977c2.137,2.139,11.99,8.531,12.425,11.153c0.489,2.952-4.5,6.457-6.359,7.95  c-5.602,4.496-6.219,2.577-11.972-2.112c-9.702-7.91-18.355-17.41-26.861-26.572c-11.628-12.524-23.496-25.082-37.322-35.22  c-14.311-10.494-30.251-18.921-45.316-28.312c-16.025-9.989-31.456-20.412-46.569-31.747c-4.04-3.03-17.102-11.825-17.029-16.907  C58.166,16.976,64.375,11.629,68.28,11.134" id="path39" style="fill:#B2B2B2;"/>
  <path d="M207.241,114.479c10.659,11.291,21.317,22.582,31.977,33.873c5.449,5.773,7.826,8.799,0.299,13.823  c-7.563,5.049-48.636-47.197-55.185-54.007c-18.303-19.031-44.911-30.821-67.491-43.933c-6.976-4.051-61.75-37.033-53.332-45.47  c4.316-4.326,5.768-0.631,10.629,3.098c6.397,4.908,12.979,9.516,19.572,14.162c12.695,8.947,26.236,16.828,39.496,24.9  C157.835,75.919,188.759,93.112,207.241,114.479" id="path41" style="fill:#3F3F3F;"/>
  <path d="M199.925,134.196c6.18,9.348,14.053,16.806,22.26,24.324c2.339,2.142,12.772,8.753,13.038,11.924  c0.343,4.088-8.765,10.45-11.765,12.084c-2.716,1.479-13.264,6.426-15.9,5.09c-3.409-1.728-6.863-16.268-8.461-20.056  c-5.207-12.341-15.982-23.115-24.672-32.99c-17.633-20.037-42.036-35.284-63.431-50.953c-9.968-7.3-19.662-14.984-28.746-23.357  c-6.617-6.098-27.01-21.162-24.459-30.686c22.82,19.107,47.398,34.616,72.521,50.456c13.313,8.394,26.364,16.937,38.924,26.428  C180.054,114.639,189.77,126.943,199.925,134.196" id="path43" style="fill:#8C8C8C;"/>
  <path d="M331.256,55.333c-14.101,21.145-38.889,12.638-60.417,17.171c4.894-4.72,9.788-9.439,14.682-14.159  c4.439-4.282,9.345-3.266,15.326-4.119C310.054,52.915,323.797,50.06,331.256,55.333" id="path45" style="fill:#B2B2B2;"/>
  <path d="M336.025,60.739c-2.104-0.995-4.796-0.011-6.36,2.227c1.271-1.59,2.542-3.18,3.813-4.771  C334.409,58.895,335.942,60.561,336.025,60.739" id="path47" style="fill:#8C8C8C;"/>
  <path d="M327.756,83.953c-1.483-3.816-2.966-7.632-4.449-11.448c1.424,3.046,2.708,7.7,6.677,5.724  c4.101-2.042,10.409-8.841,8.266-13.355C342.989,68.819,330.905,80.917,327.756,83.953" id="path49" style="fill:#8C8C8C;"/>
  <path d="M322.986,85.861c-19.397,1.59-38.794,3.179-58.191,4.769c0-2.669-1.539-11.387,0-13.356  c1.117-1.43,9.179-1.464,10.972-1.689c7.412-0.927,14.851-1.256,22.258-2.126c4.736-0.556,16.958-3.678,19.716,0  C320.096,76.6,322.198,82.785,322.986,85.861" id="path51" style="fill:#8C8C8C;"/>
  <path d="M406.937,345.02c-4.77,5.83-9.539,11.66-14.309,17.49c-15.899-55.631-28.793-111.958-42.361-168.203  c-6.96-28.852-13.92-57.703-20.879-86.555c-2.049-8.489-6.193-11.793-0.102-20.491c2.451-3.5,11.927-19.708,13.767-11.941  C364.347,165.219,385.642,255.119,406.937,345.02" id="path53" style="fill:#8C8C8C;"/>
  <path d="M399.304,320.219c1.062,8.417,7.627,22.131,0.93,29.677c-8.283,9.333-10.137-2.688-11.823-9.698  c-8.293-34.47-16.585-68.939-24.878-103.409c-6.489-26.975-12.979-53.95-19.469-80.926c-3.059-12.714-6.371-25.372-9.558-38.054  c-2.355-9.374-9.937-23.032-2.934-31.312c2.366-2.797,5.504-4.782,8.587-6.679c9.91,40.12,19.821,80.239,29.732,120.358  c6.813,27.582,13.627,55.164,20.44,82.746C392.946,293.505,399.808,310.589,399.304,320.219" id="path55" style="fill:#3F3F3F;"/>
  <path d="M386.584,364.101c-15.467-0.766-30.935-1.531-46.401-2.297c-9.593-0.475-10.934,1.634-13.039-6.944  c-7.128-29.036-14.256-58.071-21.383-87.107c-9.569-38.98-19.139-77.961-28.707-116.941c-3.316-13.508-6.632-27.016-9.948-40.524  c-1.225-4.991-5.662-12.399-0.243-14.729c9.741-4.187,23.729-3.22,34.186-4.292c6.78-0.696,18.162-4.386,20.052,3.351  c6.532,26.753,13.065,53.506,19.598,80.26c15.319,62.734,30.638,125.468,45.957,188.203  C386.8,363.679,386.584,364.088,386.584,364.101" id="path57" style="fill:#B2B2B2;"/>
  <path d="M319.17,100.17c3.589,9.735-13.52,12.202-14.943,1.591C302.762,90.846,315.562,93.417,319.17,100.17" id="path59" style="fill:#352020;"/>
  <path d="M315.037,101.761c3.071,7.919-7.729,7.174-9.22,0.636C303.888,93.935,313.669,97.159,315.037,101.761  " id="path61" style="fill:#D1C5BE;"/>
  <path d="M257.163,201.926c3.583,13.767-15.558,15.819-19.08,3.18c-1.086-3.895,2.113-11.595,6.681-12.719  C249.675,191.178,255.827,197.987,257.163,201.926" id="path63" style="fill:#352020;"/>
  <path d="M92.129,314.812c-1.908,1.907-3.815,3.815-5.723,5.723C88.313,318.627,90.221,316.719,92.129,314.812  " id="path65" style="fill:#8C8C8C;"/>
  <path d="M92.129,321.17c-0.637,0-1.273,0-1.91,0c2.544-2.119,5.089-4.239,7.633-6.358  C96.836,317.38,94.338,319.365,92.129,321.17" id="path67" style="fill:#8C8C8C;"/>
  <path d="M103.576,314.812c-2.226,2.544-4.451,5.087-6.677,7.631  C98.977,320.176,102.496,316.67,103.576,314.812" id="path69" style="fill:#8C8C8C;"/>
  <path d="M109.298,314.812c-2.543,2.544-5.086,5.087-7.63,7.631  C104.212,319.898,106.755,317.355,109.298,314.812" id="path71" style="fill:#8C8C8C;"/>
  <path d="M116.615,314.812c-2.772,2.685-5.163,6.844-9.223,7.631  C109.027,318.417,113.827,315.988,116.615,314.812" id="path73" style="fill:#8C8C8C;"/>
  <path d="M122.655,314.812c-0.732,3.595-3.627,7.919-7.63,8.268  C115.815,319.164,120.28,316.244,122.655,314.812" id="path75" style="fill:#8C8C8C;"/>
  <path d="M121.384,323.079c2.203-2.533,4.545-7.086,7.95-7.313  C126.774,318.218,124.157,321.085,121.384,323.079" id="path77" style="fill:#8C8C8C;"/>
  <path d="M127.425,323.079c2.227-2.438,4.453-4.876,6.679-7.313  C131.988,318.232,129.838,321.136,127.425,323.079" id="path79" style="fill:#8C8C8C;"/>
  <path d="M139.827,315.447c-1.938,2.738-5.695,7.106-8.586,7.632  C133.802,320.457,136.819,316.999,139.827,315.447" id="path81" style="fill:#8C8C8C;"/>
  <path d="M145.233,315.447c-1.657,3.207-4.254,6.885-7.95,7.632  C139.201,319.723,142.66,316.357,145.233,315.447" id="path83" style="fill:#8C8C8C;"/>
  <path d="M150.003,315.447c-1.388,3.007-3.953,5.346-6.36,7.632  C145.4,320.372,148.766,317.684,150.003,315.447" id="path85" style="fill:#8C8C8C;"/>
  <path d="M154.773,324.352c2.331-2.862,4.662-5.724,6.993-8.586  C159.632,318.791,157.563,322.083,154.773,324.352" id="path87" style="fill:#8C8C8C;"/>
  <path d="M160.813,324.352c1.908-2.862,3.816-5.724,5.724-8.586  C164.898,318.861,163.426,322.156,160.813,324.352" id="path89" style="fill:#8C8C8C;"/>
  <path d="M168.446,324.352c-1.203,0.225-2.587,0-3.816,0c2.544-2.862,5.088-5.724,7.633-8.586  C174.045,318.535,170.209,321.707,168.446,324.352" id="path91" style="fill:#8C8C8C;"/>
  <path d="M179.892,316.401c-1.291,3.15-4.183,5.741-6.676,7.95  C173.622,320.538,177.067,316.744,179.892,316.401" id="path93" style="fill:#8C8C8C;"/>
  <path d="M185.616,316.401c-2.304,3.303-4.669,7.43-8.584,8.903  C179.557,322.079,181.25,317.44,185.616,316.401" id="path95" style="fill:#8C8C8C;"/>
  <path d="M191.022,316.401c-1.07,3.831-4.39,7.767-8.267,8.903  C185.46,322.128,187.461,317.068,191.022,316.401" id="path97" style="fill:#8C8C8C;"/>
  <path d="M197.065,316.401c-1.64,4.117-3.616,8.449-8.586,8.903  C191.359,322.28,193.324,318.477,197.065,316.401" id="path99" style="fill:#8C8C8C;"/>
  <path d="M204.695,316.401c-1.257,3.839-4.795,10.907-9.54,8.903  C198.082,322.124,199.596,316.304,204.695,316.401" id="path101" style="fill:#8C8C8C;"/>
  <path d="M202.471,325.941c2.331-3.18,4.662-6.36,6.993-9.54C207.775,320.346,206.823,324.294,202.471,325.941  " id="path103" style="fill:#8C8C8C;"/>
  <path d="M216.145,316.401c-1.413,3.869-4.061,9.132-8.586,9.54  C210.147,322.778,212.395,318.133,216.145,316.401" id="path105" style="fill:#8C8C8C;"/>
  <path d="M228.544,317.672c-2.543,2.544-5.087,5.089-7.63,7.633c0.587-0.98,6.041-8.08,3.021-7.474  c-4.797,0.964-4.382,8.625-10.335,8.11C217.198,321.752,221.869,312.436,228.544,317.672" id="path107" style="fill:#8C8C8C;"/>
  <path d="M228.544,322.442c0.603-1.602,1.273-3.182,1.909-4.771  C230.228,319.609,229.304,320.832,228.544,322.442" id="path109" style="fill:#8C8C8C;"/>
  <path d="M378.953,349.79c-0.55,10.306-13.867,11.331-15.899,1.27  C360.851,340.151,378.968,339.698,378.953,349.79" id="path111" style="fill:#352020;"/>
  <path d="M374.185,351.06c1.813,7.484-6.874,6.062-8.746,0.479  C362.719,343.431,373.464,345.783,374.185,351.06" id="path113" style="fill:#D1C5BE;"/>
</svg>
