<?xml version="1.0" encoding="UTF-8" standalone="no"?>
<!-- Generator: Adobe Illustrator 12.0.0, SVG Export Plug-In . SVG Version: 6.00 Build 51448)  --><svg height="409.114" id="Layer_1" inkscape:version="0.42" sodipodi:docbase="F:\openclip\svg da inviare" sodipodi:docname="sega per legno.svg" sodipodi:version="0.32" space="preserve" style="overflow:visible;enable-background:new 0 0 381.775 409.114;" version="1.1" viewBox="0 0 381.775 409.114" width="381.775" xmlns="http://www.w3.org/2000/svg" xmlns:cc="http://web.resource.org/cc/" xmlns:dc="http://purl.org/dc/elements/1.1/" xmlns:inkscape="http://www.inkscape.org/namespaces/inkscape" xmlns:rdf="http://www.w3.org/1999/02/22-rdf-syntax-ns#" xmlns:sodipodi="http://inkscape.sourceforge.net/DTD/sodipodi-0.dtd" xmlns:svg="http://www.w3.org/2000/svg">
  <metadata>
    <rdf:RDF xmlns:cc="http://web.resource.org/cc/" xmlns:dc="http://purl.org/dc/elements/1.1/" xmlns:rdf="http://www.w3.org/1999/02/22-rdf-syntax-ns#">
      <cc:Work rdf:about="">
        <dc:title>Various Cliparts</dc:title>
        <dc:description></dc:description>
        <dc:subject>
          <rdf:Bag>
            <rdf:li></rdf:li>
          </rdf:Bag>
        </dc:subject>
        <dc:publisher>
          <cc:Agent rdf:about="http://www.openclipart.org/">
            <dc:title></dc:title>
          </cc:Agent>
        </dc:publisher>
        <dc:creator>
          <cc:Agent>
            <dc:title>Architetto Francesco Rollandin</dc:title>
          </cc:Agent>
        </dc:creator>
        <dc:rights>
          <cc:Agent>
            <dc:title>Architetto Francesco Rollandin</dc:title>
          </cc:Agent>
        </dc:rights>
        <dc:date></dc:date>
        <dc:format>image/svg+xml</dc:format>
        <dc:type rdf:resource="http://purl.org/dc/dcmitype/StillImage"/>
        <cc:license rdf:resource="http://web.resource.org/cc/PublicDomain"/>
        <dc:language>en</dc:language>
      </cc:Work>
      <cc:License rdf:about="http://web.resource.org/cc/PublicDomain">
        <cc:permits rdf:resource="http://web.resource.org/cc/Reproduction"/>
        <cc:permits rdf:resource="http://web.resource.org/cc/Distribution"/>
        <cc:permits rdf:resource="http://web.resource.org/cc/DerivativeWorks"/>
      </cc:License>
    </rdf:RDF>
  </metadata>
  <defs id="defs58"/>
  <sodipodi:namedview bordercolor="#666666" borderopacity="1.0" id="base" inkscape:current-layer="Layer_1" inkscape:cx="190.88750" inkscape:cy="204.55701" inkscape:pageopacity="0.0" inkscape:pageshadow="2" inkscape:window-height="510" inkscape:window-width="787" inkscape:window-x="22" inkscape:window-y="29" inkscape:zoom="0.87995030" pagecolor="#ffffff"/>
  <path d="M380.136,342.833c-30.805-42.18-61.608-84.358-92.413-126.538c-17.938-24.563-35.877-49.125-53.815-73.688  c-3.605-4.936-7.21-9.872-10.814-14.808c-0.418-0.572,0.836-3.532,0.695-4.731c-0.401-3.433-2.231-6.511-3.657-9.754  c-4.644-10.561-8.08-25.719-17.251-33.224c-7.977-6.527-15.879-5.733-25.785-4.879c5.443,4.898,12.313,5.969,18.005,9.757  c6.16,4.101,7.86,10.662,10.843,17.338c2.968,6.641,5.935,13.282,8.901,19.924c1.305,2.92-8.346,6.882-10.645,8.319  c-5.499,3.437-10.998,6.874-16.497,10.31c-1.458,0.912-12.815-4.689-15.022-5.248c-10.465-2.646-22.123-1.93-32.195,2.1  c-10.374,4.15-20.082,11.548-31.277,13.354c-22.461,3.624-38.464-4.027-52.693-20.525c-11.015-12.771-22.03-25.543-33.045-38.314  C19.731,87.892,11.79,81.56,9.599,76.14c-3.177-7.859,5.017-6.002,10.453-4.646c6.402,1.598,12.189,4.601,19.049,2.323  c9.261-3.075,17.705-11.548,26.54-16.719c10.042-5.877,20.953-10.496,31.975-14.169c8.552-2.851,22.039-3.64,27.905-11.393  c1.994-2.634,4.794-9.134,4.415-12.544c-0.473-4.252-0.852-1.541-2.092,0.464c-3.091,4.999-4.785,14.352-12.081,14.868  c2.946-5.927,4.992-10.821,6.273-17.423c0.402-2.071,0.796-7.734,3.369-8.247c5.533-1.103,12.968,4.993,17.222,7.938  c10.643,7.37,17.294,20.853,20.539,33.04c1.718,6.455,3.902,12.851,7.773,18.378c1.028,1.468,4.647,7.332,6.534,7.169  c4.365-0.376,8.731-0.752,13.096-1.129c-19.456-9.734-18.627-33.443-29.504-49.947c-6.832-10.367-36.477-37.242-45.415-16.378  c-3.034,7.082-1.735,17.639-7.552,22.651c-5.466,4.71-18.697,5.962-26.087,9.3c-10.846,4.899-21.573,10.157-31.525,16.718  c-2.92,1.925-5.734,4.029-8.596,6.04c0.101-0.209,0.256-0.287,0.465-0.232c-5.289,3.304-8.585,4.535-15.565,2.556  c-5.904-1.674-12.312-4.635-18.585-2.556c-7.778,2.579-10.121,9.957-6.62,16.959c6.206,12.411,19.853,23.684,28.923,34.266  c8.399,9.798,17.687,23.175,26.947,30.781c-4.804,3.517-21.147,16.329-11.151,23.812c1.655,1.239,3.641,1.921,5.713,2.011  c7.64,0.331,3.286,4.54,6.134,9.953c1.213,2.306,2.533,3.382,4.88,4.414c5.969,2.623,10.383-2.147,11.67,5.829  c1.269,7.869,4.74,9.793,12.49,10.202c7.132,0.376,3.593,3.881,5.808,9.406c1.004,2.508,2.707,3.937,5.11,4.996  c4.066,1.793,10.798-1.567,11.478,3.696c0.437,3.38,0.5,7.231,3.157,9.777c2.118,2.028,4.776,2.293,7.571,2.443  c9.402,0.509,4.563,2.526,7.994,9.404c3.377,6.77,15.707,4.265,16.439,8.808c1.168,7.243,2.617,11.797,10.707,12.222  c9.435,0.494,4.648,1.817,7.701,8.939c0.98,2.286,2.341,4.372,4.762,5.343c2.608,1.047,11.583,0.24,11.828,2.144  c0.531,4.114,0.529,7.742,3.04,11.099c1.457,1.946,4.116,2.429,6.33,2.608c1.402,0.113,7.832-0.158,8.043,1.195  c0.384,2.455,0.288,5.742,1.31,8.045c0.941,2.122,2.028,3.927,4.182,5.109c2.642,1.45,11.922,0.395,12.177,2.375  c0.864,6.713,1.436,13.08,9.385,13.707c9.275,0.731,7.184,0.369,9.219,8.544c0.617,2.479,2.043,4.536,4.297,5.808  c3.118,1.76,10.044-0.589,12.081,1.394c2.083,2.027,0.515,8.277,2.671,11.151c1.244,1.657,3.35,3.483,5.576,3.483  c2.91,0,5.855,0.418,8.756,0.647c1.679,0.133,1.148,6.169,1.814,7.833c0.878,2.195,1.645,4.264,3.833,5.574  c3.215,1.927,10.742-0.216,12.661,1.744c1.888,1.928,0.297,7.896,2.092,10.686c1.501,2.333,3.523,3.302,6.154,3.833  c2.77,0.559,5.728,0.534,8.541,0.762c1.657,0.135,1.3,5.755,1.798,7.252c0.875,2.631,1.659,4.437,3.95,6.157  c3.036,2.281,8.46,1.527,11.889,1.708c1.022,0.054,1.415,6.369,2.863,7.817c11.141,11.141,23.367-12.11,29.016-18.854  c9.19-10.972,18.381-21.942,27.571-32.913C381.805,351.016,382.987,346.642,380.136,342.833" id="path3"/>
  <path d="M162.691,48.728c-1.795-9.118-6.869-18.528-13.009-25.438c-4.694-5.282-16.352-16.214-24.276-14.636  c-3.265,0.65-3.353,8.992-3.834,11.5c-1.063,5.545-3.408,9.342-5.808,14.17c3.373-0.239,6.721-4.057,8.553-6.934  c0.829-1.302,3.642-10.54,4.458-10.721c3.367-0.745-4.097,16.652-7.782,18.701c-9.236,5.135-20.495,5.769-30.189,9.881  c-11.375,4.827-22.119,10.066-32.791,16.312c-7.229,4.231-14.563,13.185-23.557,13.185c-6.863,0-12.162-3.705-18.817-4.415  c-7.443-0.794-9.165,3.614-3.834,8.944c6.291,6.291,11.969,13.302,17.812,20.076c15.105,17.514,29.712,42.305,52.323,50.446  c24.499,8.82,42.546-7.658,64.654-13.877c10.104-2.842,22.188-2.775,31.96,1.411c5.005,2.144,7.66,4.458,12.375,1.511  c7.039-4.399,14.078-8.799,21.117-13.199c4.624-2.89,2.824-3.355,0.58-8.378c-3.438-7.694-6.875-15.389-10.313-23.083  c-2.408-5.388-4.33-7.468-9.422-9.913c-5.721-2.746-13.737-9.255-19.668-8.693c-3.05,0.289-18.044,0.024-18.314,3.001  c-0.502,5.546-3.56,11.217-8.48,14.055c-8.739,5.042-21.326,2.975-30.927,7.296c-4.468,2.011-9.492,4.051-13.125,7.426  c-4.544,4.219-7.027,10.383-13.329,12.459c-11.003,3.625-23.224-4.869-23.462-16.494c-0.226-11,10.969-19.959,18.945-25.94  c14.36-10.767,38.133-19.901,56.325-17.27c-13.532-2.938-31.456,1.552-44.256,6.504c-10.675,4.13-30.312,14.202-32.407,26.948  c-2.271-7.924,9.361-16.554,14.635-20.675c10.455-8.171,22.607-12.564,35.286-15.9c10.208-2.687,25.54-5.29,33.711,2.891  c3.928,3.932,7.201,11.687,7.201,17.423c7.356-0.697,14.713-1.394,22.069-2.09C169.071,67.473,166.603,58.352,162.691,48.728" id="path5" style="fill:#5A3D1C;"/>
  <path d="M140.855,60.111c0.618,0.174,1.205,0.357,1.858,0.465C142.06,60.469,141.473,60.286,140.855,60.111" id="path7"/>
  <path d="M152.471,68.242c-4.781-22.499-38.3-12.024-52.546-6.995c-9.86,3.481-39.66,18.61-35.732,32.316  c2.268-13.803,24.372-24.418,36.008-28.341c12.652-4.265,29.723-7.942,42.512-4.646c-12.279-3.494-29.268,2.656-40.93,7.116  c-13.663,5.224-40.519,21.769-35.617,39.695c2.494,9.119,12.268,15.083,21.489,12.777c5.582-1.396,8.423-5.265,11.649-9.666  c2.878-3.927,7.38-6.225,11.588-8.44c14.539-7.653,43.229-2.792,44.132-24.756c-5.389-1.362-4.919,6.51-8.362,9.758  c-4.705,4.438-10.971,3.335-16.961,4.414c-10.312,1.856-22.219,5.516-30.046,12.821c-4.209,3.928-6.649,9.796-12.466,11.571  c-9.172,2.798-18.622-5.43-17.19-14.868c2.705-17.823,29.969-28.367,44.347-33.285c11.819-4.043,35.682-8.579,36.497,9.822  C157.865,79.429,154.368,71.337,152.471,68.242" id="path9"/>
  <path d="M52.343,75.676c0.387-0.387,0.774-0.774,1.162-1.162C53.118,74.902,52.73,75.289,52.343,75.676" id="path11"/>
  <path d="M53.97,73.586C54.956,72.94,53.786,73.706,53.97,73.586" id="path13"/>
  <path d="M54.9,71.727C54.9,71.417,54.9,71.417,54.9,71.727" id="path15"/>
  <path d="M47.931,60.809C48.148,60.809,48.148,60.809,47.931,60.809" id="path17"/>
  <path d="M43.747,61.272C43.383,61.65,43.383,61.65,43.747,61.272" id="path19"/>
  <path d="M46.769,60.576C46.402,60.953,46.402,60.953,46.769,60.576" id="path21"/>
  <path d="M45.143,60.809C44.953,61.179,44.953,61.179,45.143,60.809" id="path23"/>
  <path d="M209.85,122.603c-4.69,2.443-9.381,4.886-14.071,7.329c-5.958,3.103-6.656,4.392-12.645,2.428  c-9.324-3.057-17.036-5.025-26.967-4.67c-19.673,0.703-34.396,17.244-53.856,17.936c-20.818,0.741-32.409-8.535-45.321-23.255  C44.122,107.701,31.067,93.061,18.658,78c11.044,2.822,22.537,3.771,30.434-6.041c-8.945,5.28-14.349,7.19-24.626,4.414  c-3.906-1.055-8.327-3.151-12.543-2.787c2.454,4.516,6.905,8.262,10.336,12.124c7.027,7.908,13.851,16.014,20.756,24.03  c13.114,15.225,25.671,36.074,47.384,38.49c23.668,2.633,39.822-13.362,62.173-17.087c10.736-1.789,20.035,0.948,30.099,4.238  c6.342,2.073,7.231,0.065,13.212-3.74C200.282,128.839,206.346,125.389,209.85,122.603" id="path25"/>
  <path d="M17.497,80.323V80.09V80.323z" id="path27" style="fill:#FFFFFF;"/>
  <path d="M200.791,90.777C200.903,90.663,200.896,90.671,200.791,90.777" id="path29" style="fill:#FFFFFF;"/>
  <path d="M187.78,101.23c-21.27-2.469-12.182,34.887,4.646,22.302c-4.755,2.127-10.812,0.831-13.705-3.717  C190.976,132.886,207.392,104.876,187.78,101.23" id="path31"/>
  <path d="M133.886,111.917c-0.978,9.325,6.757,21.177,16.958,13.241c-4.795,2.4-10.66,0.852-13.708-3.485  c7.629,6.874,21.174,0.113,18.121-10.569C151.875,99.265,136.231,101.689,133.886,111.917" id="path33"/>
  <path d="M95.089,127.249c-0.74,9.936,6.537,20.172,17.189,13.242c-5.151,2.139-10.573,0.662-13.938-3.717  c7.395,7.037,21.165,0.296,18.121-10.338C113.184,114.989,97.462,116.218,95.089,127.249" id="path35"/>
  <path d="M114.139,130.27c-1.197,10.873-18.197,8.207-16.495-2.556  C99.418,116.497,117.166,120.368,114.139,130.27" id="path37" style="fill:#BFBFBF;"/>
  <path d="M112.048,128.875c-0.396,6.074-8.478,8.056-12.081,3.717c5.212,8.393,17.614-0.649,11.384-8.131  C112.116,125.999,112.138,128.031,112.048,128.875" id="path39"/>
  <path d="M107.401,123.3c-2.313,0.626-4.016,10.366-1.626,11.615C106.317,131.044,106.859,127.172,107.401,123.3" id="path41"/>
  <path d="M152.934,114.937c-0.725,10.918-18.435,8.428-16.493-2.556  C138.497,100.748,156.27,106.086,152.934,114.937" id="path43" style="fill:#BFBFBF;"/>
  <path d="M150.844,113.775c-0.785,6.043-8.221,7.799-12.081,3.717c5.52,8.285,18.049-1.244,11.151-8.363  C151.052,110.748,150.864,112.045,150.844,113.775" id="path45"/>
  <path d="M140.855,108.664c-0.698,2.83,4.717,6.836,6.969,9.292c0.31-0.232,0.619-0.464,0.928-0.697  C146.12,114.395,143.487,111.529,140.855,108.664" id="path47"/>
  <path d="M194.518,113.31c-1.16,10.921-18.416,8.157-16.727-2.555  C179.525,99.759,196.76,102.996,194.518,113.31" id="path49" style="fill:#BFBFBF;"/>
  <path d="M192.426,111.917c-0.645,5.828-8.529,8.338-12.078,3.716c4.721,8.906,18.185-1.23,11.15-8.131  C192.435,109.086,192.431,110.978,192.426,111.917" id="path51"/>
  <path d="M191.033,109.594c-2.42-1.263-7.343,3.89-9.989,5.808c0.232,0.31,0.464,0.62,0.696,0.929  C184.838,114.085,187.936,111.84,191.033,109.594" id="path53"/>
  <path d="M205.669,135.38c31.075,42.536,62.149,85.072,93.225,127.607  c17.527,23.991,35.054,47.982,52.581,71.974c3.044,4.166,6.087,8.332,9.131,12.498c0.919,1.258-22.711,27.104-24.963,29.788  c-0.967,1.151-1.933,2.304-2.899,3.455c7.013-11.205,14.025-22.411,21.039-33.616c1.017-1.624-5.999-9.217-7.02-10.615  c-17.021-23.336-34.041-46.671-51.062-70.006c-20.988-28.774-41.977-57.55-62.964-86.324c-7.39-10.132-14.78-20.263-22.17-30.395  c-1.39-1.905-6.182-11.222-8.614-11.81c-1.482-0.358-7.532,4.691-8.842,5.507c-4.323,2.693-4.573,3.624-9.251,1.752  c-5.949-2.38-12.235-3.94-18.613-4.472c-14.408-1.202-27.104,5.896-39.26,12.544c-12.686,6.938-26.15,10.218-40.606,8.226  c-6.854-0.945-12.934-2.857-18.996-6.164c-2.095-1.143-4.061-4.375-5.995-2.441c-2.915,2.915-5.829,5.829-8.743,8.743  c4.924,0.279,11.995-1.727,12.714,3.758c1.372,10.463-0.18,10.988,10.298,11.77c8.846,0.66,7.046,2.651,8.364,11.43  c0.86,5.734,10.513,3.762,15.655,4.146c2.093,0.156,0.721,14.068,2.814,14.224c5.12,0.382,14.839-1.598,15.604,4.145  c1.173,8.799-0.677,10.77,8.181,11.431c10.468,0.78,8.94,1.331,10.481,11.77c0.842,5.706,9.555,3.604,14.658,3.909  c4.226,0.252,0.998,14.07,3.811,14.28c3.211,0.239,14.961-0.708,15.396,2.608c0.491,3.741,0.981,7.481,1.472,11.223  c0.366,2.789,4.563,1.73,7.018,1.875c9.732,0.573,8.906,0.021,10.176,9.71c0.286,2.182-0.398,4.91,2.011,5.09  c4.284,0.319,8.568,0.64,12.853,0.959c4.514,0.337,0.713,11.852,3.448,14.273c2.92,2.585,15.133-2.375,15.759,2.401  c0.306,2.333,0.013,11.176,1.665,12.699c1.727,1.592,10.512,0.772,12.912,0.949c4.42,0.325,3.241,2.893,3.813,7.181  c0.804,6.03-0.38,6.872,5.606,7.319c1.328,0.099,10.778,0.069,10.946,1.209c0.658,4.459,1.316,8.918,1.975,13.377  c0.168,1.14,9.616,1.109,10.944,1.209c5.979,0.445,4.82,1.303,5.723,7.318c0.636,4.233-0.483,6.855,3.888,7.182  c2.381,0.178,11.004-0.624,12.724,0.949c1.648,1.509,1.36,10.374,1.665,12.696c0.411,3.138,8.496,2.084,11.243,2.286  c5.218,0.384,4.707,0.049,5.401,5.256c0.322,2.425-0.275,8.922,2.56,9.134c4.615,0.344,9.231,0.688,13.847,1.032  c1.076,0.081,1.762,9.021,1.989,10.481c4.619-5.543,45.885-50.571,44.009-53.144c-10.921-14.978-21.843-29.955-32.765-44.932  c-38.592-52.923-77.184-105.845-115.775-158.768c-2.943-4.036-5.887-8.073-8.83-12.109  C212.884,127.826,209.344,134.086,205.669,135.38" id="path55" style="fill:#E8DEFF;"/>
</svg>
