<?xml version="1.0" encoding="UTF-8" standalone="no"?>
<!DOCTYPE svg PUBLIC "-//W3C//DTD SVG 20010904//EN"
"http://www.w3.org/TR/2001/REC-SVG-20010904/DTD/svg10.dtd">
<!-- Created with Inkscape (http://www.inkscape.org/) --><svg height="400.00000pt" id="svg1" inkscape:version="0.39" sodipodi:docbase="/home/nicu/Desktop" sodipodi:docname="longsword.svg" sodipodi:version="0.32" width="400.00000pt" xmlns="http://www.w3.org/2000/svg" xmlns:cc="http://web.resource.org/cc/" xmlns:dc="http://purl.org/dc/elements/1.1/" xmlns:inkscape="http://www.inkscape.org/namespaces/inkscape" xmlns:rdf="http://www.w3.org/1999/02/22-rdf-syntax-ns#" xmlns:sodipodi="http://sodipodi.sourceforge.net/DTD/sodipodi-0.dtd" xmlns:xlink="http://www.w3.org/1999/xlink">
  <metadata>
    <rdf:RDF xmlns:cc="http://web.resource.org/cc/" xmlns:dc="http://purl.org/dc/elements/1.1/" xmlns:rdf="http://www.w3.org/1999/02/22-rdf-syntax-ns#">
      <cc:Work rdf:about="">
        <dc:title>Longsword</dc:title>
        <dc:description></dc:description>
        <dc:subject>
          <rdf:Bag>
            <rdf:li>weapon</rdf:li>
            <rdf:li></rdf:li>
            <rdf:li>tool</rdf:li>
          </rdf:Bag>
        </dc:subject>
        <dc:publisher>
          <cc:Agent rdf:about="http://www.openclipart.org">
            <dc:title>Nicu Buculei</dc:title>
          </cc:Agent>
        </dc:publisher>
        <dc:creator>
          <cc:Agent>
            <dc:title>Nicu Buculei</dc:title>
          </cc:Agent>
        </dc:creator>
        <dc:rights>
          <cc:Agent>
            <dc:title>Nicu Buculei</dc:title>
          </cc:Agent>
        </dc:rights>
        <dc:date></dc:date>
        <dc:format>image/svg+xml</dc:format>
        <dc:type rdf:resource="http://purl.org/dc/dcmitype/StillImage"/>
        <cc:license rdf:resource="http://web.resource.org/cc/PublicDomain"/>
        <dc:language>en</dc:language>
      </cc:Work>
      <cc:License rdf:about="http://web.resource.org/cc/PublicDomain">
        <cc:permits rdf:resource="http://web.resource.org/cc/Reproduction"/>
        <cc:permits rdf:resource="http://web.resource.org/cc/Distribution"/>
        <cc:permits rdf:resource="http://web.resource.org/cc/DerivativeWorks"/>
      </cc:License>
    </rdf:RDF>
  </metadata>
  <defs id="defs3">
    <linearGradient id="linearGradient1557">
      <stop id="stop1558" offset="0.0000000" style="stop-color:#000000;stop-opacity:0.80000001;"/>
      <stop id="stop1559" offset="1.0000000" style="stop-color:#000000;stop-opacity:0.18823530;"/>
    </linearGradient>
    <linearGradient id="linearGradient1554">
      <stop id="stop1555" offset="0.0000000" style="stop-color:#000000;stop-opacity:0.22471911;"/>
      <stop id="stop1560" offset="0.50000000" style="stop-color:#000000;stop-opacity:0.49411765;"/>
      <stop id="stop1556" offset="1.0000000" style="stop-color:#000000;stop-opacity:0.18823530;"/>
    </linearGradient>
    <linearGradient id="linearGradient8383">
      <stop id="stop8384" offset="0.0000000" style="stop-color:#ffffff;stop-opacity:0.79775280;"/>
      <stop id="stop8385" offset="1.0000000" style="stop-color:#ffffff;stop-opacity:0.19101124;"/>
    </linearGradient>
    <linearGradient id="linearGradient8386" inkscape:collect="always" x1="0.019730970" x2="0.95472282" xlink:href="#linearGradient8383" y1="0.041685883" y2="0.95831412"/>
    <linearGradient id="linearGradient9631" inkscape:collect="always" x1="0.21212122" x2="0.76262629" xlink:href="#linearGradient8383" y1="0.092307694" y2="0.43589744"/>
    <linearGradient id="linearGradient10266" inkscape:collect="always" x1="0.32746479" x2="0.96126759" xlink:href="#linearGradient8383" y1="0.0075187972" y2="0.72180450"/>
    <linearGradient id="linearGradient1552" inkscape:collect="always" x1="0.85714287" x2="0.85714287" xlink:href="#linearGradient8383" y1="0.96410257" y2="0.10256410"/>
    <linearGradient id="linearGradient1553" inkscape:collect="always" x1="0.43750000" x2="0.43750000" xlink:href="#linearGradient1554" y1="0.98198199" y2="0.031531531"/>
    <linearGradient id="linearGradient2186" inkscape:collect="always" x1="0.067567565" x2="0.70270270" xlink:href="#linearGradient8383" y1="0.051282052" y2="0.49230769"/>
    <linearGradient id="linearGradient2809" inkscape:collect="always" x1="0.038732395" x2="0.51056337" xlink:href="#linearGradient8383" y1="-0.052631579" y2="0.16959064"/>
    <linearGradient id="linearGradient2811" inkscape:collect="always" x1="0.035211269" x2="0.53169012" xlink:href="#linearGradient8383" y1="-0.064327486" y2="0.51461989"/>
    <linearGradient id="linearGradient2813" inkscape:collect="always" x1="0.028169014" x2="0.45774648" xlink:href="#linearGradient8383" y1="-0.12080537" y2="0.46979865"/>
    <linearGradient id="linearGradient2815" inkscape:collect="always" x1="-0.017647060" x2="0.58235294" xlink:href="#linearGradient8383" y1="0.0051282053" y2="0.57948720"/>
    <linearGradient id="linearGradient5315" inkscape:collect="always" spreadMethod="reflect" x1="0.54166669" x2="0.11458334" xlink:href="#linearGradient8383" y1="0.48205128" y2="0.88717949"/>
  </defs>
  <sodipodi:namedview bordercolor="#666666" borderopacity="1.0" id="base" inkscape:cx="200.00003" inkscape:cy="234.26990" inkscape:pageopacity="0.0" inkscape:pageshadow="2" inkscape:window-height="733" inkscape:window-width="1156" inkscape:window-x="20" inkscape:window-y="32" inkscape:zoom="1.00000000" pagecolor="#ffffff" showgrid="false"/>
  <g id="g5316" transform="matrix(0.742988,-0.669304,0.669304,0.742988,-100.4655,229.2624)">
    <path d="M 247.81250,119.40625 L 247.81250,119.43750 L 234.96875,120.75000 C 235.63929,125.92273 234.10881,138.77814 230.46875,150.65625 C 232.95932,154.29631 237.64605,162.32319 238.12500,167.68750 L 247.90625,167.59375 L 248.00000,167.59375 L 257.78125,167.68750 C 258.26020,162.32319 262.94693,154.29631 265.43750,150.65625 C 261.79744,138.77814 260.26697,125.92273 260.93750,120.75000 L 248.09375,119.43750 L 248.09375,119.40625 L 247.93750,119.40625 L 247.81250,119.40625 z " id="path2160" style="fill:#dadac7;fill-opacity:1.0000000;fill-rule:evenodd;stroke:#000000;stroke-width:1.0000000pt;stroke-linecap:butt;stroke-linejoin:miter;stroke-opacity:1.0000000;"/>
    <path d="M 237.00111,426.42649 C 235.50106,336.94833 235.49622,248.09518 235.24617,158.92952 C 239.80928,151.78696 237.87417,138.16711 237.68098,127.78590 L 258.25940,127.78590 C 258.77322,139.05258 256.03625,150.93750 261.28394,158.30764 C 262.00447,247.00143 262.80444,335.83654 261.96247,425.15533 C 261.16781,449.86751 255.22686,473.03581 251.85906,496.97605 C 246.90641,473.45953 238.35136,451.61555 237.00111,426.42649 z " id="path908" sodipodi:nodetypes="cccccccc" style="fill:#cacbcb;fill-opacity:1.0000000;fill-rule:evenodd;stroke:#000000;stroke-width:1.2500000;stroke-linecap:butt;stroke-linejoin:round;stroke-miterlimit:4.0000000;stroke-opacity:1.0000000;"/>
    <path d="M 233.34375,37.375000 C 233.51228,38.491509 234.42801,38.622311 234.34375,40.750000 C 235.86052,63.943897 236.34934,83.851327 235.84375,105.78125 C 235.67522,107.17162 235.52067,109.04714 234.59375,110.43750 L 247.62500,110.65625 L 260.62500,110.43750 C 259.69809,109.04714 259.54353,107.17162 259.37500,105.78125 C 258.86941,83.851327 259.35823,63.943897 260.87500,40.750000 C 260.79073,38.622311 261.73772,38.491509 261.90625,37.375000 L 247.62500,37.593750 L 233.34375,37.375000 z " id="path4029" sodipodi:nodetypes="ccccccccccc" style="fill:#cacbcb;fill-opacity:1.0000000;fill-rule:evenodd;stroke:#000000;stroke-width:1.0000000pt;stroke-linecap:butt;stroke-linejoin:round;stroke-opacity:1.0000000;"/>
    <path d="M 234.39833,38.183318 C 234.56686,39.299827 235.48259,39.430629 235.39833,41.558318 C 236.91510,64.752215 237.40392,82.458939 236.89833,104.38887 C 236.72980,105.77924 236.57525,107.65476 235.64833,109.04512 L 247.79930,109.26387 L 259.47888,109.04512 C 258.55197,107.65476 258.39741,105.77924 258.22888,104.38887 C 257.72329,82.458939 258.21211,64.752215 259.72888,41.558318 C 259.64461,39.430629 260.59160,39.299827 260.76013,38.183318 L 247.79930,38.402068 L 234.39833,38.183318 z " id="path1561" sodipodi:nodetypes="ccccccccccc" style="fill:url(#linearGradient2186);fill-opacity:1.0000000;fill-rule:evenodd;stroke:none;stroke-width:1.0000000pt;stroke-linecap:butt;stroke-linejoin:round;stroke-opacity:1.0000000;"/>
    <path d="M 260.90625,44.093750 C 259.77079,44.164716 253.58408,57.813888 247.50000,71.687500 C 241.52723,58.087491 235.45630,44.757035 234.34375,44.687500 C 232.30339,44.415451 232.28317,48.092030 234.18750,50.812500 C 234.94822,51.890181 240.15995,64.337556 245.37500,76.531250 C 241.00759,86.579084 236.28302,97.593861 235.75000,98.500000 C 233.98169,101.35649 234.11408,104.63784 236.56250,104.09375 C 237.60398,103.84869 242.45642,93.034083 247.50000,81.375000 C 252.64574,93.287404 257.62703,104.40672 258.68750,104.65625 C 261.13593,105.20034 261.26831,101.95024 259.50000,99.093750 C 258.95266,98.163275 254.14777,86.928144 249.62500,76.531250 C 254.97415,64.037557 260.28432,51.321183 261.06250,50.218750 C 262.96683,47.498280 262.94661,43.821703 260.90625,44.093750 z " id="path2818" style="fill:#9b9b5d;fill-opacity:1.0000000;fill-rule:evenodd;stroke:#000000;stroke-width:1.0000000pt;stroke-linecap:butt;stroke-linejoin:miter;stroke-opacity:1.0000000;"/>
    <path d="M 220.04461,115.50288 C 212.89450,114.96663 200.56056,112.46409 193.76796,113.71535 C 188.04787,114.78787 186.26034,118.18417 185.72408,122.29548 C 185.72408,126.22805 186.26034,128.37308 190.90791,131.76938 C 195.19797,134.45067 203.95686,135.70194 203.95686,127.47931 C 203.42060,122.47424 200.73931,123.36800 198.41553,124.79803 C 202.70559,120.86546 213.96702,120.86546 220.04461,121.22297 C 220.04461,118.89918 218.97210,117.29041 220.04461,115.50288 z " id="path6517" sodipodi:nodetypes="cccccccc" style="fill:#9b9b5d;fill-opacity:1.0000000;fill-rule:evenodd;stroke:#000000;stroke-width:1.0000000pt;stroke-linecap:butt;stroke-linejoin:round;stroke-opacity:1.0000000;"/>
    <path d="M 276.53046,115.28847 C 283.68057,114.75222 296.01451,112.24968 302.80711,113.50094 C 308.52720,114.57346 310.31473,117.96976 310.85099,122.08107 C 310.85099,126.01364 310.31473,128.15867 305.66716,131.55497 C 301.37710,134.23626 292.61821,135.48753 292.61821,127.26490 C 293.15447,122.25983 295.83576,123.15359 298.15954,124.58362 C 293.86948,120.65105 282.60805,120.65105 276.53046,121.00856 C 276.53046,118.68477 277.60297,117.07600 276.53046,115.28847 z " id="path7760" sodipodi:nodetypes="cccccccc" style="fill:#9b9b5d;fill-opacity:1.0000000;fill-rule:evenodd;stroke:#000000;stroke-width:1.0000000pt;stroke-linecap:butt;stroke-linejoin:round;stroke-opacity:1.0000000;"/>
    <path d="M 247.40625,110.25000 L 234.37500,110.33328 C 234.37500,110.33328 235.91549,113.33715 234.37500,114.43750 C 232.83451,115.53785 221.83495,115.09507 218.09375,114.87500 C 217.65362,116.41549 217.87236,119.48812 218.31250,121.46875 C 226.23503,121.02861 232.83891,132.69806 244.06250,130.93750 C 242.08185,133.13822 241.42562,137.76013 243.40625,141.28125 C 245.16682,137.54005 247.02585,132.16567 247.84375,131.71875 C 248.72403,132.15889 250.05193,137.44630 251.81250,141.18750 C 253.79313,137.66638 253.13688,133.04447 251.15625,130.84375 C 262.37984,132.60431 268.98372,120.93486 276.90625,121.37500 C 277.34639,119.39437 277.56515,116.32174 277.12500,114.78125 C 273.38380,115.00132 262.38423,115.41285 260.84375,114.31250 C 259.30326,113.21215 260.70827,110.64594 260.70828,110.64594 C 260.70828,110.64594 247.40627,110.24918 247.40625,110.25000 z " id="path1533" sodipodi:nodetypes="ccccccccccccccc" style="fill:#9b9b5d;fill-opacity:1.0000000;fill-rule:evenodd;stroke:#000000;stroke-width:1.0000000pt;stroke-linecap:butt;stroke-linejoin:round;stroke-opacity:1.0000000;"/>
    <path d="M 247.59616,111.02487 L 235.22512,110.88808 C 235.22512,110.88808 236.76561,113.67188 235.22512,114.77223 C 233.68463,115.87258 222.68507,115.86994 218.94387,115.64987 C 218.50374,117.19036 218.28234,118.94257 218.72248,120.92320 C 226.64501,120.48306 233.46896,132.15251 244.69255,130.39195 C 242.71190,132.59267 241.61553,136.33430 243.59616,139.85542 C 245.35673,136.11422 246.99569,130.73984 247.81359,130.29292 C 248.69387,130.73306 250.02177,136.02047 251.78234,139.76167 C 253.76297,136.24055 251.78630,132.49892 249.80567,130.29820 C 261.02926,132.05876 268.29335,120.38931 276.21588,120.82945 C 276.65602,118.84882 276.43464,116.87654 275.99449,115.33605 C 272.25329,115.55612 262.35407,116.18772 260.81359,115.08737 C 259.27310,113.98702 259.13762,112.08102 259.57777,111.20074 C 257.37706,111.64088 247.59618,111.02405 247.59616,111.02487 z " id="path2812" sodipodi:nodetypes="ccccccccccccccc" style="fill:url(#linearGradient2813);fill-opacity:1.0000000;fill-rule:evenodd;stroke:none;stroke-width:1.0000000pt;stroke-linecap:butt;stroke-linejoin:round;stroke-opacity:1.0000000;"/>
    <path d="M 233.45740,37.922040 C 233.62593,36.805531 234.54166,36.674729 234.45740,34.547040 C 234.23790,25.862296 229.04673,23.500970 228.77701,9.7084105 C 228.76078,-10.483041 265.89411,-11.739080 266.83776,8.4111495 C 267.27563,23.265105 260.95479,26.401743 260.98865,34.547040 C 260.90438,36.674729 261.85137,36.805531 262.01990,37.922040 L 247.73865,37.703290 L 233.45740,37.922040 z " id="path5274" sodipodi:nodetypes="cccccccc" style="fill:#9b9b5d;fill-opacity:1.0000000;fill-rule:evenodd;stroke:#000000;stroke-width:1.0000000pt;stroke-linecap:butt;stroke-linejoin:round;stroke-opacity:1.0000000;"/>
    <g id="g9632">
      <path d="M 258.10463,121.41252 C 258.10463,125.41080 254.72254,128.65577 250.55533,128.65577 C 246.38811,128.65577 243.00602,125.41080 243.00602,121.41252 C 243.00602,117.41425 246.38811,114.16927 250.55533,114.16927 C 254.72254,114.16927 258.10463,117.41425 258.10463,121.41252 z " id="path7761" style="fill:url(#linearGradient8386);fill-opacity:1;fill-rule:evenodd;stroke:#000000;stroke-width:1.1458253;stroke-linecap:butt;stroke-linejoin:miter;stroke-miterlimit:4.0000000;stroke-opacity:1.0000000;" transform="matrix(1.069507,0.000000,0.000000,1.112755,-19.77184,-14.03290)"/>
      <path d="M 252.59569,121.99062 C 252.59569,124.01792 250.91988,125.66326 248.85504,125.66326 C 246.79020,125.66326 245.11439,124.01792 245.11439,121.99062 C 245.11439,119.96333 246.79020,118.31799 248.85504,118.31799 C 250.91988,118.31799 252.59569,119.96333 252.59569,121.99062 z " id="path8387" style="fill:#004691;fill-opacity:1.0000000;fill-rule:evenodd;stroke:#000000;stroke-width:0.87367165;stroke-linecap:butt;stroke-linejoin:miter;stroke-miterlimit:4.0000000;stroke-opacity:1.0000000;" transform="matrix(1.431063,0.000000,0.000000,1.430424,-107.7022,-53.43198)"/>
      <path d="M 246.12580,124.61983 C 241.17262,121.08185 246.24372,115.06728 250.01758,117.07214 C 256.50388,121.67152 250.13551,127.21435 246.12580,124.61983 z " id="path9009" sodipodi:nodetypes="ccc" style="fill:url(#linearGradient9631);fill-opacity:1.0000000;fill-rule:evenodd;stroke:none;stroke-width:1.0000000pt;stroke-linecap:butt;stroke-linejoin:miter;stroke-opacity:1.0000000;"/>
    </g>
    <path d="M 235.19900,36.967554 C 235.36753,35.851045 234.96284,36.160384 234.87858,34.032695 C 234.65908,25.347951 229.90805,22.986625 229.63833,9.1940657 C 229.48608,-10.045221 264.77480,-9.6125804 265.93852,8.1168751 C 266.37639,22.970830 260.93583,25.887398 260.96969,34.032695 C 260.88542,36.160384 260.07185,36.071116 260.24038,37.187625 L 247.71969,37.188945 L 235.19900,36.967554 z " id="path2814" sodipodi:nodetypes="cccccccc" style="fill:url(#linearGradient2815);fill-opacity:1.0000000;fill-rule:evenodd;stroke:none;stroke-width:1.0000000pt;stroke-linecap:butt;stroke-linejoin:round;stroke-opacity:1.0000000;"/>
    <g id="g9636" transform="translate(-0.421984,-106.9527)">
      <path d="M 258.10463,121.41252 C 258.10463,125.41080 254.72254,128.65577 250.55533,128.65577 C 246.38811,128.65577 243.00602,125.41080 243.00602,121.41252 C 243.00602,117.41425 246.38811,114.16927 250.55533,114.16927 C 254.72254,114.16927 258.10463,117.41425 258.10463,121.41252 z " id="path9637" style="fill:url(#linearGradient8386);fill-opacity:1;fill-rule:evenodd;stroke:#000000;stroke-width:1.1458253;stroke-linecap:butt;stroke-linejoin:miter;stroke-miterlimit:4.0000000;stroke-opacity:1.0000000;" transform="matrix(1.069507,0.000000,0.000000,1.112755,-19.77184,-14.03290)"/>
      <path d="M 252.59569,121.99062 C 252.59569,124.01792 250.91988,125.66326 248.85504,125.66326 C 246.79020,125.66326 245.11439,124.01792 245.11439,121.99062 C 245.11439,119.96333 246.79020,118.31799 248.85504,118.31799 C 250.91988,118.31799 252.59569,119.96333 252.59569,121.99062 z " id="path9638" style="fill:#004691;fill-opacity:1.0000000;fill-rule:evenodd;stroke:#000000;stroke-width:0.87367165;stroke-linecap:butt;stroke-linejoin:miter;stroke-miterlimit:4.0000000;stroke-opacity:1.0000000;" transform="matrix(1.431063,0.000000,0.000000,1.430424,-107.7022,-53.43198)"/>
      <path d="M 246.12580,124.61983 C 241.17262,121.08185 246.24372,115.06728 250.01758,117.07214 C 256.50388,121.67152 250.13551,127.21435 246.12580,124.61983 z " id="path9639" sodipodi:nodetypes="ccc" style="fill:url(#linearGradient9631);fill-opacity:1.0000000;fill-rule:evenodd;stroke:none;stroke-width:1.0000000pt;stroke-linecap:butt;stroke-linejoin:miter;stroke-opacity:1.0000000;"/>
    </g>
    <path d="M 229.52960,9.6625292 L 239.56666,11.529889 C 240.18911,8.9622697 242.83453,5.6165836 247.50294,5.4609704 C 251.70449,5.3053571 255.12798,8.1842029 256.06166,11.374276 L 266.02091,10.596209 C 266.79898,8.0285895 265.63189,-5.4319598 248.04758,-5.4319598 C 233.80897,-5.4319598 228.59592,4.7607106 229.52960,9.6625292 z " id="path9644" sodipodi:nodetypes="ccccccc" style="fill:url(#linearGradient10266);fill-opacity:1.0000000;fill-rule:evenodd;stroke:none;stroke-width:1.0000000pt;stroke-linecap:butt;stroke-linejoin:miter;stroke-opacity:1.0000000;"/>
    <path d="M 239.07285,157.54431 C 239.19078,168.62999 239.28803,431.35532 241.94459,440.41128 C 246.85221,458.44659 254.04192,458.23141 258.45713,438.97540 C 259.89301,431.07810 256.30332,164.45679 256.30332,158.26224 C 255.59572,150.65250 249.86258,147.48091 247.69842,137.95517 C 244.82667,148.00628 239.71421,151.99531 239.07285,157.54431 z " id="path930" sodipodi:nodetypes="cccccc" style="fill:url(#linearGradient1552);fill-opacity:1;fill-rule:evenodd;stroke:url(#linearGradient1553);stroke-width:1.0000000pt;stroke-linecap:butt;stroke-linejoin:miter;stroke-opacity:1.0000000;"/>
    <path d="M 217.20428,116.04019 C 210.05417,115.50394 200.58115,113.22147 193.78855,114.47273 C 188.06846,115.54525 186.94114,118.50141 186.40488,122.61272 C 186.40488,126.54529 186.72107,127.58997 191.36864,130.98627 C 195.65870,133.66756 202.87710,135.79911 202.87710,127.57648 C 202.34084,122.57141 199.65955,124.12538 197.33577,125.55541 C 201.62583,121.62284 211.12669,120.08235 217.20428,120.43986 C 217.20428,118.11607 216.13177,117.82772 217.20428,116.04019 z " id="path2187" sodipodi:nodetypes="cccccccc" style="fill:url(#linearGradient2809);fill-opacity:1.0000000;fill-rule:evenodd;stroke:none;stroke-width:1.0000000pt;stroke-linecap:butt;stroke-linejoin:round;stroke-opacity:1.0000000;"/>
    <path d="M 277.95417,115.60005 C 285.10428,115.06380 295.89773,113.22147 302.69033,114.47273 C 308.41042,115.54525 309.53774,118.06127 310.07400,122.17258 C 310.07400,126.10515 310.41802,127.14983 305.77045,130.54613 C 301.48039,133.22742 293.60178,135.79911 293.60178,127.57648 C 294.13804,122.57141 297.69961,124.12538 300.02339,125.55541 C 295.73333,121.62284 284.25183,119.86228 278.17424,120.21979 C 278.17424,117.89600 279.02668,117.38758 277.95417,115.60005 z " id="path2810" sodipodi:nodetypes="cccccccc" style="fill:url(#linearGradient2811);fill-opacity:1.0000000;fill-rule:evenodd;stroke:none;stroke-width:1.0000000pt;stroke-linecap:butt;stroke-linejoin:round;stroke-opacity:1.0000000;"/>
    <path d="M 260.84406,45.030355 C 259.70860,45.101321 253.79394,59.430611 247.70986,73.304223 C 241.73709,59.704214 235.66616,46.237734 234.55361,45.352058 C 232.51325,45.080009 233.03712,48.212494 234.94145,50.932964 C 235.70217,52.010645 240.91390,64.321996 246.12895,76.515690 C 241.76154,86.563524 237.03697,97.578297 236.50395,98.484437 C 235.41576,101.47695 234.05189,103.80614 236.50031,103.26205 C 237.54179,103.01699 242.53026,91.386245 247.57384,79.727158 C 252.71958,91.639565 257.97291,103.43899 259.03338,103.68852 C 260.80170,103.96056 260.79805,102.61479 259.02974,99.758305 C 258.48240,98.827835 253.94956,87.048608 249.42679,76.651714 C 254.23185,63.749950 259.81406,51.033576 260.59224,49.931143 C 262.49657,47.210673 262.88442,44.758308 260.84406,45.030355 z " id="path4693" sodipodi:nodetypes="ccccccccccccc" style="fill:url(#linearGradient5315);fill-opacity:1.0000000;fill-rule:evenodd;stroke:none;stroke-width:1.0000000pt;stroke-linecap:butt;stroke-linejoin:miter;stroke-opacity:1.0000000;"/>
  </g>
</svg>
