<?xml version="1.0" encoding="UTF-8" standalone="no"?>
<!DOCTYPE svg PUBLIC "-//W3C//DTD SVG 20010904//EN"
"http://www.w3.org/TR/2001/REC-SVG-20010904/DTD/svg10.dtd">
<!-- Created with Inkscape (http://www.inkscape.org/) --><svg height="60.0000000" id="svg1" inkscape:version="0.38.1" sodipodi:docbase="/home/danny/flat/scalable/actions" sodipodi:docname="adjustcol.svg" sodipodi:version="0.32" version="1.0" width="60.0000000" x="0" xmlns="http://www.w3.org/2000/svg" xmlns:inkscape="http://www.inkscape.org/namespaces/inkscape" xmlns:sodipodi="http://sodipodi.sourceforge.net/DTD/sodipodi-0.dtd" xmlns:xlink="http://www.w3.org/1999/xlink" y="0">
  <metadata>
    <rdf:RDF xmlns:cc="http://web.resource.org/cc/" xmlns:dc="http://purl.org/dc/elements/1.1/" xmlns:rdf="http://www.w3.org/1999/02/22-rdf-syntax-ns#">
      <cc:Work rdf:about="">
        <dc:title>Part of the Flat Icon Collection (Wed Aug 25 23:29:46 2004)</dc:title>
        <dc:description></dc:description>
        <dc:subject>
          <rdf:Bag>
            <rdf:li>hash</rdf:li>
            <rdf:li></rdf:li>
            <rdf:li>action</rdf:li>
            <rdf:li>computer</rdf:li>
            <rdf:li>icons</rdf:li>
            <rdf:li>theme</rdf:li>
          </rdf:Bag>
        </dc:subject>
        <dc:publisher>
          <cc:Agent rdf:about="http://www.openclipart.org">
            <dc:title>Danny Allen</dc:title>
          </cc:Agent>
        </dc:publisher>
        <dc:creator>
          <cc:Agent>
            <dc:title>Danny Allen</dc:title>
          </cc:Agent>
        </dc:creator>
        <dc:rights>
          <cc:Agent>
            <dc:title>Danny Allen</dc:title>
          </cc:Agent>
        </dc:rights>
        <dc:date></dc:date>
        <dc:format>image/svg+xml</dc:format>
        <dc:type rdf:resource="http://purl.org/dc/dcmitype/StillImage"/>
        <cc:license rdf:resource="http://web.resource.org/cc/PublicDomain"/>
        <dc:language>en</dc:language>
      </cc:Work>
      <cc:License rdf:about="http://web.resource.org/cc/PublicDomain">
        <cc:permits rdf:resource="http://web.resource.org/cc/Reproduction"/>
        <cc:permits rdf:resource="http://web.resource.org/cc/Distribution"/>
        <cc:permits rdf:resource="http://web.resource.org/cc/DerivativeWorks"/>
      </cc:License>
    </rdf:RDF>
  </metadata>
  <sodipodi:namedview bordercolor="#666666" borderopacity="1.0" id="base" inkscape:cx="34.781832" inkscape:cy="24.591856" inkscape:pageopacity="0.0" inkscape:pageshadow="2" inkscape:window-height="685" inkscape:window-width="1016" inkscape:window-x="0" inkscape:window-y="0" inkscape:zoom="6.9465338" pagecolor="#ffffff"/>
  <defs id="defs3"/>
  <path d="M 13.382954,25.977797 L 4.0857624,14.836537 L 13.459790,5.4625101 L 13.382954,25.977797 z " id="path968" sodipodi:nodetypes="cccc" sodipodi:stroke-cmyk="(0 0 0 0.8)" style="font-size:12.000000;fill:#7f7f7f;fill-rule:evenodd;stroke:#333333;stroke-width:3.1250000;stroke-linecap:round;stroke-linejoin:round;stroke-dasharray:none;"/>
  <path d="M 14.468750,31.575570 C 13.360750,31.575570 12.468750,32.467570 12.468750,33.575570 L 12.468750,56.981820 L 48.343750,56.981820 L 48.343750,33.575570 C 48.343750,32.467572 47.451750,31.575570 46.343750,31.575570 L 14.468750,31.575570 z " id="path844" style="fill:#cccccc;fill-opacity:1.0000000;fill-rule:evenodd;stroke:none;stroke-width:3.1250000;stroke-dasharray:none;stroke-linejoin:round;stroke-linecap:round;"/>
  <path d="M 12.469612,55.959164 L 12.469612,31.783386 L 48.860521,31.783386 L 48.860521,56.722610" id="path845" sodipodi:nodetypes="cccc" sodipodi:stroke-cmyk="(0.0000000 0.0000000 0.0000000 0.80000001)" style="fill:none;fill-rule:evenodd;stroke:#333333;stroke-opacity:1.0000000;stroke-width:3.1250000;stroke-linejoin:round;stroke-linecap:round;fill-opacity:0.75;stroke-dasharray:3.1250000,3.1250000;stroke-dashoffset:0.0000000;"/>
  <path d="M 46.853742,25.977797 L 56.150934,14.836537 L 46.776906,5.4625101 L 46.853742,25.977797 z " id="path846" sodipodi:nodetypes="cccc" sodipodi:stroke-cmyk="(0 0 0 0.8)" style="font-size:12.000000;fill:#7f7f7f;fill-rule:evenodd;stroke:#333333;stroke-width:3.1250000;stroke-linecap:round;stroke-linejoin:round;stroke-dasharray:none;"/>
  <path d="M 29.954855,3.4442606 C 30.562227,3.4442606 31.118987,3.5454885 31.625136,3.7479441 C 32.151524,3.9504046 32.566562,4.2743376 32.870250,4.7197425 C 33.173938,5.1449079 33.325782,5.6915409 33.325782,6.3596559 C 33.325782,6.8657999 33.244799,7.5541549 33.082833,8.4247249 C 32.920867,9.2750519 32.809512,9.9229171 32.748773,10.368322 C 33.396639,9.9229171 33.973648,9.5078729 34.479792,9.1232069 C 35.006180,8.7182909 35.512329,8.4044799 35.998228,8.1817759 C 36.484127,7.9388259 36.959899,7.8173529 37.425554,7.8173529 C 38.377108,7.8173529 39.176817,8.1817759 39.824683,8.9106239 C 40.472549,9.6394739 40.796482,10.489799 40.796482,11.461598 C 40.796482,12.149952 40.533288,12.726957 40.006894,13.192612 C 39.480505,13.658266 38.630180,14.134043 37.455926,14.619943 C 36.281667,15.085592 35.654046,15.338664 35.573063,15.379158 C 35.654046,15.419647 36.281667,15.682846 37.455926,16.168746 C 38.650424,16.654645 39.500750,17.120294 40.006894,17.565704 C 40.533288,17.990865 40.796482,18.547625 40.796482,19.235985 C 40.796482,20.228027 40.472549,21.098599 39.824683,21.847692 C 39.176817,22.596785 38.377108,22.971334 37.425554,22.971334 C 36.777688,22.971334 36.038717,22.687891 35.208641,22.121008 C 34.378565,21.554126 33.558605,20.987243 32.748773,20.420361 C 32.850006,21.068226 32.971478,21.756586 33.113200,22.485435 C 33.254922,23.214284 33.325782,23.831777 33.325782,24.337927 C 33.325782,25.350214 33.001850,26.109429 32.353984,26.615578 C 31.726363,27.101478 30.926653,27.344427 29.954855,27.344427 C 29.003301,27.344427 28.203591,27.101478 27.555726,26.615578 C 26.928110,26.109429 26.614299,25.350214 26.614299,24.337927 C 26.614299,24.013994 26.695283,23.406617 26.857249,22.515802 C 27.019215,21.624987 27.120443,20.926504 27.160933,20.420361 C 26.087906,21.169454 25.379302,21.675603 25.035124,21.938797 C 24.690947,22.181747 24.275909,22.414574 23.790010,22.637279 C 23.324355,22.859979 22.878950,22.971334 22.453784,22.971334 C 21.481986,22.971334 20.692404,22.606907 20.085027,21.878059 C 19.497900,21.149209 19.204334,20.268517 19.204334,19.235985 C 19.204334,18.507136 19.457406,17.930126 19.963555,17.504966 C 20.469699,17.079805 21.289653,16.644522 22.423417,16.199113 C 23.557183,15.733458 24.205048,15.460142 24.367014,15.379158 C 24.205048,15.298175 23.557183,15.034981 22.423417,14.589570 C 21.309897,14.123916 20.489943,13.668389 19.963555,13.222979 C 19.457406,12.757329 19.204334,12.170197 19.204334,11.461598 C 19.204334,10.469550 19.497900,9.6192289 20.085027,8.9106239 C 20.692404,8.1817759 21.481986,7.8173529 22.453784,7.8173529 C 23.061161,7.8173529 23.617921,7.9793199 24.124065,8.3032529 C 24.650453,8.6271849 25.662745,9.3155399 27.160933,10.368322 C 27.120443,9.9229171 27.019215,9.2244339 26.857249,8.2728809 C 26.695283,7.3213269 26.614299,6.6835889 26.614299,6.3596559 C 26.614299,5.3473629 26.928110,4.6083926 27.555726,4.1427375 C 28.203591,3.6770831 29.003301,3.4442606 29.954855,3.4442606 z " id="path886" style="font-size:12.000000;font-weight:900;stroke-width:1.0000000pt;font-family:VAG Rounded Black SSi;fill:#333333;fill-opacity:1.0000000;"/>
</svg>
