<?xml version="1.0" encoding="UTF-8" standalone="no"?>
<!DOCTYPE svg PUBLIC "-//W3C//DTD SVG 20010904//EN"
"http://www.w3.org/TR/2001/REC-SVG-20010904/DTD/svg10.dtd">
<!-- Created with Inkscape (http://www.inkscape.org/) --><svg height="60.0000000" id="svg1" inkscape:version="0.38.1" sodipodi:docbase="/home/danny/flat/scalable/actions" sodipodi:docname="math_paren.svg" sodipodi:version="0.32" version="1.0" width="60.0000000" x="0" xmlns="http://www.w3.org/2000/svg" xmlns:inkscape="http://www.inkscape.org/namespaces/inkscape" xmlns:sodipodi="http://sodipodi.sourceforge.net/DTD/sodipodi-0.dtd" xmlns:xlink="http://www.w3.org/1999/xlink" xmlns:xml="http://www.w3.org/XML/1998/namespace" y="0">
  <metadata>
    <rdf:RDF xmlns:cc="http://web.resource.org/cc/" xmlns:dc="http://purl.org/dc/elements/1.1/" xmlns:rdf="http://www.w3.org/1999/02/22-rdf-syntax-ns#">
      <cc:Work rdf:about="">
        <dc:title>Part of the Flat Icon Collection (Wed Aug 25 23:29:46 2004)</dc:title>
        <dc:description></dc:description>
        <dc:subject>
          <rdf:Bag>
            <rdf:li>hash</rdf:li>
            <rdf:li></rdf:li>
            <rdf:li>action</rdf:li>
            <rdf:li>computer</rdf:li>
            <rdf:li>icons</rdf:li>
            <rdf:li>theme</rdf:li>
          </rdf:Bag>
        </dc:subject>
        <dc:publisher>
          <cc:Agent rdf:about="http://www.openclipart.org">
            <dc:title>Danny Allen</dc:title>
          </cc:Agent>
        </dc:publisher>
        <dc:creator>
          <cc:Agent>
            <dc:title>Danny Allen</dc:title>
          </cc:Agent>
        </dc:creator>
        <dc:rights>
          <cc:Agent>
            <dc:title>Danny Allen</dc:title>
          </cc:Agent>
        </dc:rights>
        <dc:date></dc:date>
        <dc:format>image/svg+xml</dc:format>
        <dc:type rdf:resource="http://purl.org/dc/dcmitype/StillImage"/>
        <cc:license rdf:resource="http://web.resource.org/cc/PublicDomain"/>
        <dc:language>en</dc:language>
      </cc:Work>
      <cc:License rdf:about="http://web.resource.org/cc/PublicDomain">
        <cc:permits rdf:resource="http://web.resource.org/cc/Reproduction"/>
        <cc:permits rdf:resource="http://web.resource.org/cc/Distribution"/>
        <cc:permits rdf:resource="http://web.resource.org/cc/DerivativeWorks"/>
      </cc:License>
    </rdf:RDF>
  </metadata>
  <sodipodi:namedview bordercolor="#666666" borderopacity="1.0" id="base" inkscape:cx="33.984503" inkscape:cy="14.678974" inkscape:pageopacity="0.0" inkscape:pageshadow="2" inkscape:window-height="685" inkscape:window-width="1016" inkscape:window-x="0" inkscape:window-y="0" inkscape:zoom="6.9465337" pagecolor="#ffffff"/>
  <defs id="defs3">
    <linearGradient id="linearGradient900">
      <stop id="stop901" offset="0" style="stop-color:#000;stop-opacity:1;"/>
      <stop id="stop902" offset="1" style="stop-color:#fff;stop-opacity:1;"/>
    </linearGradient>
    <linearGradient id="linearGradient903" xlink:href="#linearGradient900"/>
    <linearGradient id="linearGradient904" xlink:href="#linearGradient900"/>
    <linearGradient id="linearGradient905" xlink:href="#linearGradient900"/>
    <linearGradient id="linearGradient906" xlink:href="#linearGradient900"/>
    <linearGradient id="linearGradient907" xlink:href="#linearGradient900"/>
  </defs>
  <path d="M 12.882113,4.5522327 C 12.882113,5.4116077 12.811801,6.2260609 12.671176,6.9955921 C 12.530551,7.7612171 12.348910,8.4194202 12.126254,8.9702015 C 11.985629,9.3139515 11.846957,9.5698109 11.710238,9.7377796 C 11.573520,9.9057484 11.391879,9.9897327 11.165316,9.9897327 C 10.927035,9.9897327 10.727816,9.9194202 10.567660,9.7787952 C 10.411410,9.6381702 10.333285,9.4526234 10.333285,9.2221546 C 10.333285,9.1713734 10.391879,8.9604359 10.509066,8.5893421 C 10.626254,8.2221546 10.733676,7.8608265 10.831332,7.5053577 C 10.928988,7.1498890 11.018832,6.7162952 11.100863,6.2045765 C 11.182895,5.6928577 11.223910,5.1420765 11.223910,4.5522327 C 11.223910,3.8452015 11.161410,3.1772327 11.036410,2.5483265 C 10.911410,1.9155140 10.762973,1.3256702 10.591098,0.77879524 C 10.419223,0.23192024 10.333285,-0.064954758 10.333285,-0.11182976 C 10.333285,-0.34229851 10.411410,-0.52589226 10.567660,-0.66261101 C 10.723910,-0.79932976 10.923129,-0.86768913 11.165316,-0.86768913 C 11.395785,-0.86768913 11.579379,-0.78370476 11.716098,-0.61573601 C 11.852816,-0.45167351 11.989535,-0.19581413 12.126254,0.15184212 C 12.348910,0.69481087 12.530551,1.3510609 12.671176,2.1205921 C 12.811801,2.8901234 12.882113,3.7006702 12.882113,4.5522327 z M 4.5149258,6.2690296 L 6.1086758,4.5522327 L 5.1418790,3.5092640 C 4.9075040,3.2592640 4.7493008,3.0893421 4.6672696,2.9994984 C 4.5891446,2.9057484 4.5285977,2.8139515 4.4856290,2.7241077 C 4.4426602,2.6303577 4.4211758,2.5248890 4.4211758,2.4077015 C 4.4211758,2.1264515 4.5129727,1.8940296 4.6965665,1.7104359 C 4.8801602,1.5268421 5.0871915,1.4350452 5.3176602,1.4350452 C 5.5403165,1.4350452 5.7160977,1.4662952 5.8450040,1.5287952 C 5.9739102,1.5912952 6.1067227,1.7123890 6.2434415,1.8920765 L 7.2395352,3.1401234 L 8.2356290,1.8920765 C 8.3801602,1.7123890 8.5149258,1.5912952 8.6399258,1.5287952 C 8.7649258,1.4662952 8.9387540,1.4350452 9.1614102,1.4350452 C 9.3918790,1.4350452 9.5989102,1.5248890 9.7825040,1.7045765 C 9.9660977,1.8842640 10.057895,2.1186390 10.057895,2.4077015 C 10.057895,2.5248890 10.036410,2.6303577 9.9934415,2.7241077 C 9.9504727,2.8139515 9.8879727,2.9057484 9.8059415,2.9994984 C 9.7278165,3.0893421 9.5715665,3.2592640 9.3371915,3.5092640 L 8.3703946,4.5522327 L 9.9641446,6.2690296 C 10.065707,6.3784046 10.151645,6.4975452 10.221957,6.6264515 C 10.296176,6.7514515 10.333285,6.8998890 10.333285,7.0717640 C 10.333285,7.3569202 10.241488,7.5873890 10.057895,7.7631702 C 9.8743008,7.9350452 9.6477383,8.0209827 9.3782071,8.0209827 C 9.2024258,8.0209827 9.0578946,7.9838734 8.9446133,7.9096546 C 8.8352383,7.8354359 8.7024258,7.7123890 8.5461758,7.5405140 L 7.2395352,5.9936390 L 5.9328946,7.5405140 C 5.7961758,7.6967640 5.6672696,7.8159046 5.5461758,7.8979359 C 5.4250821,7.9799671 5.2766446,8.0209827 5.1008633,8.0209827 C 4.8313321,8.0209827 4.6047696,7.9350452 4.4211758,7.7631702 C 4.2375821,7.5873890 4.1457852,7.3569202 4.1457852,7.0717640 C 4.1457852,6.9037952 4.1770352,6.7612171 4.2395352,6.6440296 C 4.3059415,6.5268421 4.3977383,6.4018421 4.5149258,6.2690296 z M 1.6028165,4.5522327 C 1.6028165,4.0014515 1.6360196,3.4467640 1.7024258,2.8881702 C 1.7688321,2.3295765 1.8586758,1.8217640 1.9719571,1.3647327 C 2.0891446,0.90770149 2.2180508,0.50340462 2.3586758,0.15184212 C 2.5110196,-0.21143913 2.6516446,-0.47120476 2.7805508,-0.62745476 C 2.9094571,-0.78761101 3.0891446,-0.86768913 3.3196133,-0.86768913 C 3.5657071,-0.86768913 3.7649258,-0.79932976 3.9172696,-0.66261101 C 4.0696133,-0.52589226 4.1457852,-0.34229851 4.1457852,-0.11182976 C 4.1457852,-0.064954758 4.0598477,0.23192024 3.8879727,0.77879524 C 3.7160977,1.3256702 3.5676602,1.9155140 3.4426602,2.5483265 C 3.3176602,3.1772327 3.2551602,3.8452015 3.2551602,4.5522327 C 3.2551602,5.1030140 3.2961758,5.6440296 3.3782071,6.1752796 C 3.4602383,6.7065296 3.5500821,7.1498890 3.6477383,7.5053577 C 3.7453946,7.8608265 3.8528165,8.2182484 3.9700040,8.5776234 C 4.0871915,8.9369984 4.1457852,9.1518421 4.1457852,9.2221546 C 4.1457852,9.4526234 4.0676602,9.6381702 3.9114102,9.7787952 C 3.7551602,9.9194202 3.5578946,9.9897327 3.3196133,9.9897327 C 3.0930508,9.9897327 2.9153165,9.9096546 2.7864102,9.7494984 C 2.6575040,9.5932484 2.5149258,9.3334827 2.3586758,8.9702015 C 2.2493008,8.6850452 2.1496915,8.3862171 2.0598477,8.0737171 C 1.9739102,7.7651234 1.8938321,7.4135609 1.8196133,7.0190296 C 1.7493008,6.6205921 1.6946133,6.2123890 1.6555508,5.7944202 C 1.6203946,5.3725452 1.6028165,4.9584827 1.6028165,4.5522327 z " id="path836" style="font-size:12.000000;font-weight:900;fill:#333333;stroke-width:1.0000000pt;font-family:VAG Rounded Black SSi;" transform="matrix(3.994783,0.000000,0.000000,3.994783,0.882693,11.99768)"/>
</svg>
