<?xml version="1.0" encoding="UTF-8" standalone="no"?>
<!DOCTYPE svg PUBLIC "-//W3C//DTD SVG 20010904//EN"
"http://www.w3.org/TR/2001/REC-SVG-20010904/DTD/svg10.dtd">
<!-- Created with Inkscape (http://www.inkscape.org/) --><svg height="60.0000000" id="svg1" inkscape:version="0.38.1" sodipodi:docbase="/home/danny/flat/scalable/actions" sodipodi:docname="newfont.svg" sodipodi:version="0.32" version="1.0" width="60.0000000" x="0" xmlns="http://www.w3.org/2000/svg" xmlns:inkscape="http://www.inkscape.org/namespaces/inkscape" xmlns:sodipodi="http://sodipodi.sourceforge.net/DTD/sodipodi-0.dtd" xmlns:xlink="http://www.w3.org/1999/xlink" y="0">
  <metadata>
    <rdf:RDF xmlns:cc="http://web.resource.org/cc/" xmlns:dc="http://purl.org/dc/elements/1.1/" xmlns:rdf="http://www.w3.org/1999/02/22-rdf-syntax-ns#">
      <cc:Work rdf:about="">
        <dc:title>Part of the Flat Icon Collection (Wed Aug 25 23:29:46 2004)</dc:title>
        <dc:description></dc:description>
        <dc:subject>
          <rdf:Bag>
            <rdf:li>hash</rdf:li>
            <rdf:li></rdf:li>
            <rdf:li>action</rdf:li>
            <rdf:li>computer</rdf:li>
            <rdf:li>icons</rdf:li>
            <rdf:li>theme</rdf:li>
          </rdf:Bag>
        </dc:subject>
        <dc:publisher>
          <cc:Agent rdf:about="http://www.openclipart.org">
            <dc:title>Danny Allen</dc:title>
          </cc:Agent>
        </dc:publisher>
        <dc:creator>
          <cc:Agent>
            <dc:title>Danny Allen</dc:title>
          </cc:Agent>
        </dc:creator>
        <dc:rights>
          <cc:Agent>
            <dc:title>Danny Allen</dc:title>
          </cc:Agent>
        </dc:rights>
        <dc:date></dc:date>
        <dc:format>image/svg+xml</dc:format>
        <dc:type rdf:resource="http://purl.org/dc/dcmitype/StillImage"/>
        <cc:license rdf:resource="http://web.resource.org/cc/PublicDomain"/>
        <dc:language>en</dc:language>
      </cc:Work>
      <cc:License rdf:about="http://web.resource.org/cc/PublicDomain">
        <cc:permits rdf:resource="http://web.resource.org/cc/Reproduction"/>
        <cc:permits rdf:resource="http://web.resource.org/cc/Distribution"/>
        <cc:permits rdf:resource="http://web.resource.org/cc/DerivativeWorks"/>
      </cc:License>
    </rdf:RDF>
  </metadata>
  <sodipodi:namedview bordercolor="#666666" borderopacity="1.0" id="base" inkscape:cx="33.667126" inkscape:cy="16.626390" inkscape:pageopacity="0.0" inkscape:pageshadow="2" inkscape:window-height="685" inkscape:window-width="1016" inkscape:window-x="0" inkscape:window-y="0" inkscape:zoom="4.9119411" pagecolor="#ffffff"/>
  <defs id="defs3"/>
  <path d="M 49.405295,54.799833 L 49.405295,44.511887 L 48.415495,44.511887 C 47.815615,44.511887 47.345708,44.341921 47.005775,44.001989 C 46.655846,43.652059 46.480880,43.167156 46.480880,42.547279 C 46.480880,41.997389 46.665844,41.537481 47.035769,41.167555 C 47.405695,40.797629 47.865604,40.612666 48.415495,40.612666 L 49.405295,40.612666 L 49.405295,37.943199 C 49.405295,37.193348 49.605256,36.593468 50.005176,36.143558 C 50.415096,35.683650 50.949988,35.453696 51.609855,35.453696 C 52.039770,35.453696 52.424694,35.558675 52.764625,35.768633 C 53.104558,35.978591 53.364505,36.273532 53.544470,36.653456 C 53.734433,37.023382 53.829413,37.453296 53.829413,37.943199 L 53.829413,40.612666 L 55.089160,40.612666 C 55.699041,40.612666 56.203938,40.772634 56.603858,41.092570 C 57.003778,41.402508 57.203739,41.887411 57.203739,42.547279 C 57.203739,43.217146 57.003778,43.712047 56.603858,44.031983 C 56.213938,44.351919 55.709038,44.511887 55.089160,44.511887 L 53.829413,44.511887 L 53.829413,54.799833 C 53.829413,55.279737 53.734433,55.714651 53.544470,56.104573 C 53.354508,56.484497 53.089560,56.779438 52.749629,56.989396 C 52.409695,57.189356 52.029772,57.289336 51.609855,57.289336 C 50.949988,57.289336 50.415096,57.064381 50.005176,56.614471 C 49.605256,56.154563 49.405295,55.549683 49.405295,54.799833 z M 31.243922,54.799833 L 31.243922,42.892210 C 31.243922,42.142360 31.443882,41.547479 31.843802,41.107567 C 32.253719,40.657657 32.788614,40.432702 33.448481,40.432702 C 34.018369,40.432702 34.478276,40.572674 34.828207,40.852618 C 35.188135,41.132562 35.408090,41.532482 35.488074,42.052378 C 35.927986,41.442500 36.487874,40.992590 37.167739,40.702648 C 37.857603,40.402708 38.717430,40.252738 39.747225,40.252738 C 40.906993,40.252738 41.946786,40.492690 42.866602,40.972594 C 43.786419,41.442500 44.506275,42.132362 45.026171,43.042181 C 45.546067,43.942001 45.806014,45.006788 45.806014,46.236543 L 45.806014,54.799833 C 45.806014,55.279737 45.711034,55.714651 45.521071,56.104573 C 45.331109,56.484497 45.066163,56.779438 44.726230,56.989396 C 44.386299,57.189356 44.006373,57.289336 43.586458,57.289336 C 42.926589,57.289336 42.391697,57.064381 41.981779,56.614471 C 41.581859,56.154563 41.381899,55.549683 41.381899,54.799833 L 41.381899,47.031384 C 41.381899,46.021586 41.111952,45.256739 40.572059,44.736842 C 40.042165,44.216946 39.347305,43.956998 38.487475,43.956998 C 37.607651,43.956998 36.917789,44.246940 36.417890,44.826824 C 35.917989,45.406709 35.668039,46.141562 35.668039,47.031384 L 35.668039,54.799833 C 35.668039,55.279737 35.573057,55.714651 35.383097,56.104573 C 35.193134,56.484497 34.928186,56.779438 34.588255,56.989396 C 34.248322,57.189356 33.868399,57.289336 33.448481,57.289336 C 32.788614,57.289336 32.253719,57.064381 31.843802,56.614471 C 31.443882,56.154563 31.243922,55.549683 31.243922,54.799833 z M 21.435881,40.252738 C 22.575652,40.252738 23.640440,40.492690 24.630243,40.972594 C 25.630043,41.442500 26.474874,42.077373 27.164736,42.877214 C 27.864598,43.677054 28.404489,44.591871 28.784414,45.621666 C 29.174334,46.641462 29.369296,47.726245 29.369296,48.876016 C 29.369296,50.035784 29.179336,51.140564 28.799410,52.190354 C 28.419487,53.230147 27.884592,54.144964 27.194731,54.934806 C 26.504869,55.714651 25.655037,56.334527 24.645239,56.794435 C 23.645439,57.254343 22.575652,57.484297 21.435881,57.484297 C 19.896187,57.484297 18.521462,57.099374 17.311704,56.329528 C 16.111944,55.549683 15.177129,54.504892 14.507264,53.195154 C 13.847395,51.875417 13.517461,50.435705 13.517461,48.876016 C 13.517461,47.766237 13.707423,46.691452 14.087348,45.651660 C 14.467272,44.611867 15.007164,43.687052 15.707025,42.877214 C 16.416881,42.067375 17.266714,41.427503 18.256514,40.957597 C 19.246317,40.487691 20.306107,40.252738 21.435881,40.252738 z M 21.435881,44.331923 C 20.686030,44.331923 20.046157,44.551879 19.516264,44.991791 C 18.986370,45.431703 18.591449,46.006589 18.331499,46.716447 C 18.071553,47.416307 17.941579,48.136164 17.941579,48.876016 C 17.941579,49.635864 18.071553,50.360720 18.331499,51.050582 C 18.601446,51.740444 18.996368,52.305331 19.516264,52.745243 C 20.046157,53.175158 20.686030,53.390115 21.435881,53.390115 C 22.205726,53.390115 22.850597,53.175158 23.370493,52.745243 C 23.890390,52.305331 24.280312,51.740444 24.540262,51.050582 C 24.810206,50.360720 24.945181,49.635864 24.945181,48.876016 C 24.945181,48.146162 24.815205,47.431304 24.555258,46.731444 C 24.295308,46.021586 23.900389,45.446701 23.370493,45.006788 C 22.850597,44.556878 22.205726,44.331923 21.435881,44.331923 z M 6.0939433,54.799833 L 6.0939433,44.511887 L 5.1041411,44.511887 C 4.5042608,44.511887 4.0343545,44.341921 3.6944224,44.001989 C 3.3444924,43.652059 3.1695273,43.167156 3.1695273,42.547279 C 3.1695273,41.997389 3.3544903,41.537481 3.7244165,41.167555 C 4.0943426,40.797629 4.5542507,40.612666 5.1041411,40.612666 L 6.0939433,40.612666 L 6.0939433,38.318124 C 6.0939433,36.708445 6.5188587,35.458695 7.3686889,34.568872 C 8.2285172,33.669052 9.3482937,33.219142 10.728018,33.219142 C 12.777609,33.219142 13.802404,33.894007 13.802404,35.243738 C 13.802404,36.513484 13.197525,37.148357 11.987767,37.148357 C 11.497865,37.148357 11.127938,37.243338 10.877988,37.433300 C 10.628038,37.613265 10.503063,38.058176 10.503063,38.768034 L 10.503063,40.612666 L 11.897785,40.612666 C 13.387487,40.612666 14.132338,41.257537 14.132338,42.547279 C 14.132338,43.857018 13.387487,44.511887 11.897785,44.511887 L 10.503063,44.511887 L 10.503063,54.799833 C 10.503063,55.279737 10.408082,55.714651 10.218120,56.104573 C 10.038156,56.484497 9.7782080,56.779438 9.4382758,56.989396 C 9.0983437,57.189356 8.7184196,57.289336 8.2985034,57.289336 C 7.6386351,57.289336 7.1037419,57.064381 6.6938236,56.614471 C 6.2939034,56.154563 6.0939433,55.549683 6.0939433,54.799833 z " id="path829" style="font-size:12.000000;fill:#333333;stroke-width:1.0000000pt;font-family:VAG Rounded Black SSi;"/>
  <path d="M 5.1013784,3.1194630 L 5.1013784,1.3323536 C 5.1013784,1.0823536 5.1697378,0.87922859 5.3064566,0.72297859 C 5.4431753,0.56282234 5.6384878,0.48274422 5.8923941,0.48274422 C 6.1463003,0.48274422 6.3416128,0.56282234 6.4783316,0.72297859 C 6.6189566,0.87922859 6.6892691,1.0823536 6.6892691,1.3323536 L 6.6892691,3.1194630 L 8.4529409,3.1194630 C 8.7107534,3.1194630 8.9138784,3.1897755 9.0623159,3.3304005 C 9.2146597,3.4671192 9.2908316,3.6604786 9.2908316,3.9104786 C 9.2908316,4.1643848 9.2146597,4.3616505 9.0623159,4.5022755 C 8.9138784,4.6429005 8.7107534,4.7132130 8.4529409,4.7132130 L 6.6892691,4.7132130 L 6.6892691,6.4944630 C 6.6892691,6.7483692 6.6189566,6.9534473 6.4783316,7.1096973 C 6.3377066,7.2659473 6.1423941,7.3440723 5.8923941,7.3440723 C 5.6423941,7.3440723 5.4470816,7.2659473 5.3064566,7.1096973 C 5.1697378,6.9534473 5.1013784,6.7483692 5.1013784,6.4944630 L 5.1013784,4.7132130 L 3.3377066,4.7132130 C 3.0877066,4.7132130 2.8845816,4.6370411 2.7283316,4.4846973 C 2.5759878,4.3284473 2.4998159,4.1370411 2.4998159,3.9104786 C 2.4998159,3.6604786 2.5740347,3.4671192 2.7224722,3.3304005 C 2.8748159,3.1897755 3.0798941,3.1194630 3.3377066,3.1194630 L 5.1013784,3.1194630 z " id="path830" style="font-size:12.000000;font-weight:900;stroke-width:1.0000000pt;font-family:VAG Rounded Black SSi;fill:#333333;fill-opacity:1.0000000;" transform="scale(5.172050,5.172050)"/>
</svg>
