<?xml version="1.0" encoding="UTF-8" standalone="no"?>
<!DOCTYPE svg PUBLIC "-//W3C//DTD SVG 20010904//EN"
"http://www.w3.org/TR/2001/REC-SVG-20010904/DTD/svg10.dtd">
<!-- Created with Inkscape (http://www.inkscape.org/) --><svg height="60.000000" id="svg1" inkscape:version="0.38.1" sodipodi:docbase="/home/danny/flat/scalable/actions" sodipodi:docname="spellcheck.svg" sodipodi:version="0.32" version="1.0" width="60.000000" x="0.0000000" xmlns="http://www.w3.org/2000/svg" xmlns:inkscape="http://www.inkscape.org/namespaces/inkscape" xmlns:sodipodi="http://sodipodi.sourceforge.net/DTD/sodipodi-0.dtd" xmlns:xlink="http://www.w3.org/1999/xlink" y="0.0000000">
  <metadata>
    <rdf:RDF xmlns:cc="http://web.resource.org/cc/" xmlns:dc="http://purl.org/dc/elements/1.1/" xmlns:rdf="http://www.w3.org/1999/02/22-rdf-syntax-ns#">
      <cc:Work rdf:about="">
        <dc:title>Part of the Flat Icon Collection (Wed Aug 25 23:29:46 2004)</dc:title>
        <dc:description></dc:description>
        <dc:subject>
          <rdf:Bag>
            <rdf:li>hash</rdf:li>
            <rdf:li></rdf:li>
            <rdf:li>action</rdf:li>
            <rdf:li>computer</rdf:li>
            <rdf:li>icons</rdf:li>
            <rdf:li>theme</rdf:li>
          </rdf:Bag>
        </dc:subject>
        <dc:publisher>
          <cc:Agent rdf:about="http://www.openclipart.org">
            <dc:title>Danny Allen</dc:title>
          </cc:Agent>
        </dc:publisher>
        <dc:creator>
          <cc:Agent>
            <dc:title>Danny Allen</dc:title>
          </cc:Agent>
        </dc:creator>
        <dc:rights>
          <cc:Agent>
            <dc:title>Danny Allen</dc:title>
          </cc:Agent>
        </dc:rights>
        <dc:date></dc:date>
        <dc:format>image/svg+xml</dc:format>
        <dc:type rdf:resource="http://purl.org/dc/dcmitype/StillImage"/>
        <cc:license rdf:resource="http://web.resource.org/cc/PublicDomain"/>
        <dc:language>en</dc:language>
      </cc:Work>
      <cc:License rdf:about="http://web.resource.org/cc/PublicDomain">
        <cc:permits rdf:resource="http://web.resource.org/cc/Reproduction"/>
        <cc:permits rdf:resource="http://web.resource.org/cc/Distribution"/>
        <cc:permits rdf:resource="http://web.resource.org/cc/DerivativeWorks"/>
      </cc:License>
    </rdf:RDF>
  </metadata>
  <sodipodi:namedview bordercolor="#666666" borderopacity="1.0" id="base" inkscape:cx="53.064646" inkscape:cy="68.807993" inkscape:pageopacity="0.0" inkscape:pageshadow="2" inkscape:window-height="693" inkscape:window-width="1016" inkscape:window-x="0" inkscape:window-y="0" inkscape:zoom="3.4732669" pagecolor="#ffffff"/>
  <defs id="defs3">
    <linearGradient id="linearGradient900">
      <stop id="stop901" offset="0.0000000" style="stop-color:#000000;stop-opacity:1.0000000;"/>
      <stop id="stop902" offset="1.0000000" style="stop-color:#ffffff;stop-opacity:1.0000000;"/>
    </linearGradient>
    <linearGradient id="linearGradient903" xlink:href="#linearGradient900"/>
    <linearGradient id="linearGradient904" xlink:href="#linearGradient900"/>
    <linearGradient id="linearGradient905" xlink:href="#linearGradient900"/>
    <linearGradient id="linearGradient906" xlink:href="#linearGradient900"/>
    <linearGradient id="linearGradient907" xlink:href="#linearGradient900"/>
  </defs>
  <path d="M 6.6875000 5.1250000 C 5.5795000 5.1250000 4.6875000 6.0170000 4.6875000 7.1250000 L 4.6875000 53.500000 C 4.6875000 54.608000 5.5795000 55.500000 6.6875000 55.500000 L 29.250000 55.500000 C 24.016522 46.258224 20.759268 42.126778 15.812500 37.625000 C 15.812500 33.951160 25.724915 39.308323 28.625000 40.843750 C 31.035864 37.802579 50.963840 14.749771 55.062500 17.500000 C 57.080997 18.798634 41.248557 26.338910 29.593750 55.500000 L 53.437500 55.500000 C 54.545500 55.500000 55.437500 54.608000 55.437500 53.500000 L 55.437500 7.1250000 C 55.437500 6.0170000 54.545500 5.1250000 53.437500 5.1250000 L 6.6875000 5.1250000 z " id="path860" style="font-size:12;fill:#b3b3b3;fill-opacity:1;fill-rule:evenodd;stroke:#333333;stroke-width:3.125;stroke-opacity:1;stroke-dasharray:none;stroke-linejoin:round;"/>
  <path d="M 27.818722,8.5459938 C 27.818722,7.9249001 27.951534,7.3526344 28.217159,6.8291969 C 28.482784,6.3018532 28.853878,5.8877907 29.330441,5.5870094 C 29.810909,5.2862282 30.357784,5.1358376 30.971066,5.1358376 C 31.295284,5.1358376 31.629269,5.1749001 31.973019,5.2530251 C 32.316769,5.3272438 32.605831,5.4561501 32.840206,5.6397438 C 33.074581,5.8233376 33.191769,6.0713844 33.191769,6.3838844 C 33.191769,6.6338844 33.117550,6.8428688 32.969112,7.0108376 C 32.824581,7.1788063 32.642941,7.2627907 32.424191,7.2627907 C 32.318722,7.2627907 32.215206,7.2452126 32.113644,7.2100563 C 32.015987,7.1749001 31.916378,7.1377907 31.814816,7.0987282 C 31.717159,7.0557594 31.611691,7.0206032 31.498409,6.9932594 C 31.389034,6.9659157 31.250362,6.9522438 31.082394,6.9522438 C 30.777706,6.9522438 30.519894,7.0245094 30.308956,7.1690407 C 30.101925,7.3096657 29.945675,7.5010719 29.840206,7.7432594 C 29.738644,7.9815407 29.687862,8.2491188 29.687862,8.5459938 C 29.687862,8.8350563 29.738644,9.1045876 29.840206,9.3545876 C 29.941769,9.6006813 30.088253,9.7959938 30.279659,9.9405251 C 30.474972,10.085056 30.705441,10.157322 30.971066,10.157322 C 31.271847,10.157322 31.574581,10.100681 31.879269,9.9874001 C 32.183956,9.8741188 32.365597,9.8174782 32.424191,9.8174782 C 32.564816,9.8174782 32.693722,9.8584938 32.810909,9.9405251 C 32.928097,10.022556 33.019894,10.129978 33.086300,10.262791 C 33.156612,10.391697 33.191769,10.524509 33.191769,10.661228 C 33.191769,10.950291 33.064816,11.194431 32.810909,11.393650 C 32.560909,11.592869 32.262081,11.737400 31.914425,11.827244 C 31.566769,11.920994 31.252316,11.967869 30.971066,11.967869 C 30.506222,11.967869 30.080441,11.881931 29.693722,11.710056 C 29.310909,11.538181 28.976925,11.294041 28.691769,10.977634 C 28.406612,10.657322 28.189816,10.290134 28.041378,9.8760719 C 27.892941,9.4581032 27.818722,9.0147438 27.818722,8.5459938 z M 21.144894,10.860447 L 21.144894,3.4249001 C 21.144894,3.1436501 21.232784,2.9092751 21.408566,2.7217751 C 21.584347,2.5342751 21.807003,2.4405251 22.076534,2.4405251 C 22.349972,2.4405251 22.574581,2.5342751 22.750362,2.7217751 C 22.926144,2.9092751 23.014034,3.1436501 23.014034,3.4249001 L 23.014034,5.6690407 C 23.224972,5.4932594 23.443722,5.3604469 23.670284,5.2706032 C 23.900753,5.1807594 24.197628,5.1358376 24.560909,5.1358376 C 25.092159,5.1358376 25.578487,5.2881813 26.019894,5.5928688 C 26.465206,5.8936501 26.814816,6.3077126 27.068722,6.8350563 C 27.326534,7.3584938 27.455441,7.9288063 27.455441,8.5459938 C 27.455441,9.0264626 27.383175,9.4698219 27.238644,9.8760719 C 27.098019,10.282322 26.892941,10.645603 26.623409,10.965916 C 26.353878,11.286228 26.045284,11.534275 25.697628,11.710056 C 25.349972,11.881931 24.971066,11.967869 24.560909,11.967869 C 24.209347,11.967869 23.906612,11.911228 23.652706,11.797947 C 23.398800,11.688572 23.166378,11.504978 22.955441,11.247166 C 22.877316,11.415134 22.764034,11.557713 22.615597,11.674900 C 22.471066,11.788181 22.291378,11.844822 22.076534,11.844822 C 21.803097,11.844822 21.578487,11.751072 21.402706,11.563572 C 21.230831,11.372166 21.144894,11.137791 21.144894,10.860447 z M 24.297237,6.9522438 C 23.898800,6.9522438 23.584347,7.1045876 23.353878,7.4092751 C 23.127316,7.7139626 23.014034,8.0928688 23.014034,8.5459938 C 23.014034,8.8350563 23.064816,9.1045876 23.166378,9.3545876 C 23.267941,9.6006813 23.414425,9.7959938 23.605831,9.9405251 C 23.801144,10.085056 24.031612,10.157322 24.297237,10.157322 C 24.699581,10.157322 25.014034,10.004978 25.240597,9.7002907 C 25.467159,9.3916969 25.580441,9.0069313 25.580441,8.5459938 C 25.580441,8.0889626 25.467159,7.7100563 25.240597,7.4092751 C 25.014034,7.1045876 24.699581,6.9522438 24.297237,6.9522438 z M 20.348019,6.2315407 L 20.348019,10.860447 C 20.348019,11.141697 20.260128,11.376072 20.084347,11.563572 C 19.908566,11.751072 19.683956,11.844822 19.410519,11.844822 C 19.195675,11.844822 19.014034,11.786228 18.865597,11.669041 C 18.721066,11.551853 18.611691,11.411228 18.537472,11.247166 C 18.326534,11.504978 18.092159,11.688572 17.834347,11.797947 C 17.580441,11.911228 17.277706,11.967869 16.926144,11.967869 C 16.390987,11.967869 15.902706,11.817478 15.461300,11.516697 C 15.023800,11.212009 14.676144,10.797947 14.418331,10.274509 C 14.164425,9.7471657 14.037472,9.1709938 14.037472,8.5459938 C 14.037472,7.9288063 14.164425,7.3584938 14.418331,6.8350563 C 14.676144,6.3077126 15.025753,5.8936501 15.467159,5.5928688 C 15.908566,5.2881813 16.394894,5.1358376 16.926144,5.1358376 C 17.281612,5.1358376 17.584347,5.1905251 17.834347,5.2999001 C 18.088253,5.4092751 18.322628,5.5948219 18.537472,5.8565407 C 18.607784,5.6963844 18.717159,5.5577126 18.865597,5.4405251 C 19.014034,5.3194313 19.195675,5.2588844 19.410519,5.2588844 C 19.683956,5.2588844 19.908566,5.3526344 20.084347,5.5401344 C 20.260128,5.7237282 20.348019,5.9541969 20.348019,6.2315407 z M 17.189816,6.9522438 C 16.791378,6.9522438 16.476925,7.1045876 16.246456,7.4092751 C 16.019894,7.7139626 15.906612,8.0928688 15.906612,8.5459938 C 15.906612,8.8350563 15.957394,9.1045876 16.058956,9.3545876 C 16.160519,9.6006813 16.307003,9.7959938 16.498409,9.9405251 C 16.693722,10.085056 16.924191,10.157322 17.189816,10.157322 C 17.592159,10.157322 17.906612,10.004978 18.133175,9.7002907 C 18.359737,9.3916969 18.473019,9.0069313 18.473019,8.5459938 C 18.473019,8.0889626 18.359737,7.7100563 18.133175,7.4092751 C 17.906612,7.1045876 17.592159,6.9522438 17.189816,6.9522438 z " id="path837" style="font-size:12.000000;font-weight:900;fill:#333333;stroke-width:1.0000000pt;font-family:VAG Rounded Black SSi;" transform="matrix(1.758617,0.000000,0.000000,1.758617,-17.12709,2.955981)"/>
</svg>
