<?xml version="1.0" encoding="UTF-8" standalone="no"?>
<!DOCTYPE svg PUBLIC "-//W3C//DTD SVG 20010904//EN"
"http://www.w3.org/TR/2001/REC-SVG-20010904/DTD/svg10.dtd">
<!-- Created with Inkscape (http://www.inkscape.org/) --><svg height="60.0000000" id="svg1" inkscape:version="0.38.1" sodipodi:docbase="/home/danny/flat/scalable/actions" sodipodi:docname="window_new.svg" sodipodi:version="0.32" version="1.0" width="60.0000000" x="0" xmlns="http://www.w3.org/2000/svg" xmlns:inkscape="http://www.inkscape.org/namespaces/inkscape" xmlns:sodipodi="http://sodipodi.sourceforge.net/DTD/sodipodi-0.dtd" xmlns:xlink="http://www.w3.org/1999/xlink" y="0">
  <metadata>
    <rdf:RDF xmlns:cc="http://web.resource.org/cc/" xmlns:dc="http://purl.org/dc/elements/1.1/" xmlns:rdf="http://www.w3.org/1999/02/22-rdf-syntax-ns#">
      <cc:Work rdf:about="">
        <dc:title>Part of the Flat Icon Collection (Wed Aug 25 23:29:46 2004)</dc:title>
        <dc:description></dc:description>
        <dc:subject>
          <rdf:Bag>
            <rdf:li>hash</rdf:li>
            <rdf:li></rdf:li>
            <rdf:li>action</rdf:li>
            <rdf:li>computer</rdf:li>
            <rdf:li>icons</rdf:li>
            <rdf:li>theme</rdf:li>
          </rdf:Bag>
        </dc:subject>
        <dc:publisher>
          <cc:Agent rdf:about="http://www.openclipart.org">
            <dc:title>Danny Allen</dc:title>
          </cc:Agent>
        </dc:publisher>
        <dc:creator>
          <cc:Agent>
            <dc:title>Danny Allen</dc:title>
          </cc:Agent>
        </dc:creator>
        <dc:rights>
          <cc:Agent>
            <dc:title>Danny Allen</dc:title>
          </cc:Agent>
        </dc:rights>
        <dc:date></dc:date>
        <dc:format>image/svg+xml</dc:format>
        <dc:type rdf:resource="http://purl.org/dc/dcmitype/StillImage"/>
        <cc:license rdf:resource="http://web.resource.org/cc/PublicDomain"/>
        <dc:language>en</dc:language>
      </cc:Work>
      <cc:License rdf:about="http://web.resource.org/cc/PublicDomain">
        <cc:permits rdf:resource="http://web.resource.org/cc/Reproduction"/>
        <cc:permits rdf:resource="http://web.resource.org/cc/Distribution"/>
        <cc:permits rdf:resource="http://web.resource.org/cc/DerivativeWorks"/>
      </cc:License>
    </rdf:RDF>
  </metadata>
  <sodipodi:namedview bordercolor="#666666" borderopacity="1.0" id="base" inkscape:cx="38.082561" inkscape:cy="27.910970" inkscape:pageopacity="0.0" inkscape:pageshadow="2" inkscape:window-height="685" inkscape:window-width="1016" inkscape:window-x="0" inkscape:window-y="0" inkscape:zoom="6.9465337" pagecolor="#ffffff"/>
  <defs id="defs3">
    <linearGradient id="linearGradient1160">
      <stop id="stop1161" offset="0" style="stop-color:#000;stop-opacity:1;"/>
      <stop id="stop1162" offset="1" style="stop-color:#fff;stop-opacity:1;"/>
    </linearGradient>
    <linearGradient id="linearGradient1163" xlink:href="#linearGradient1160"/>
  </defs>
  <g id="g837">
    <rect height="39.61745096" id="rect921" rx="2.36734600" style="font-size:12;fill:#cccccc;fill-rule:evenodd;stroke:none;stroke-width:3.125;stroke-linecap:round;stroke-linejoin:round;fill-opacity:1.0000000;" width="52.18427761" x="3.95880703" y="9.99248921"/>
    <path d="M 3.9588073,10.941637 L 3.9588073,16.280655 C 3.9588073,17.566582 4.9940481,18.601823 6.2799750,18.601823 L 53.816182,18.601823 C 55.102109,18.601823 56.137350,17.566582 56.137350,16.280655 L 56.137350,10.941637" id="path836" sodipodi:nodetypes="cccccc" style="font-size:12.000000;fill:#7f7f7f;fill-rule:evenodd;stroke:none;stroke-width:3.1250000;stroke-linecap:round;stroke-linejoin:round;stroke-opacity:1.0000000;stroke-dasharray:none;"/>
    <path d="M 3.9588073,12.201258 L 3.9588073,16.280655 C 3.9588073,17.566582 4.9940481,18.601823 6.2799750,18.601823 L 53.816182,18.601823 C 55.102109,18.601823 56.137350,17.566582 56.137350,16.280655 L 56.137350,12.201258" id="path835" sodipodi:nodetypes="cccccc" sodipodi:stroke-cmyk="(0.0000000 0.0000000 0.0000000 0.80000001)" style="font-size:12.000000;fill:none;fill-rule:evenodd;stroke:#333333;stroke-width:3.1250000;stroke-linecap:round;stroke-linejoin:round;stroke-opacity:1.0000000;stroke-dasharray:none;"/>
    <path d="M 52.651224 12.886092 L 49.945194 15.592122 M 49.882263 12.823161 L 52.651224 15.592122 " id="path923" sodipodi:nodetypes="cccc" sodipodi:stroke-cmyk="(0.0000000 0.0000000 0.0000000 0.80000001)" style="font-size:12;fill:none;fill-opacity:0.75;fill-rule:evenodd;stroke:#333333;stroke-width:1.8750000;stroke-linecap:round;stroke-linejoin:round;stroke-opacity:1.0000000;stroke-dasharray:none;"/>
    <rect height="39.617451" id="rect834" rx="2.3673460" sodipodi:stroke-cmyk="(0 0 0 0.8)" style="font-size:12;fill:none;fill-rule:evenodd;stroke:#333333;stroke-width:3.125;stroke-linecap:round;stroke-linejoin:round;fill-opacity:1.0000000;" width="52.184277" x="3.9588089" y="9.9924889"/>
  </g>
  <path d="M 27.370365,31.699904 L 27.370365,25.666124 C 27.370365,24.822054 27.601166,24.136247 28.062767,23.608704 C 28.524367,23.067971 29.183796,22.797605 30.041056,22.797605 C 30.898314,22.797605 31.557743,23.067971 32.019344,23.608704 C 32.494133,24.136247 32.731528,24.822054 32.731528,25.666124 L 32.731528,31.699904 L 38.686177,31.699904 C 39.556622,31.699904 40.242429,31.937299 40.743597,32.412088 C 41.257950,32.873688 41.515128,33.526523 41.515128,34.370594 C 41.515128,35.227852 41.257950,35.893876 40.743597,36.368665 C 40.242429,36.843454 39.556622,37.080847 38.686177,37.080847 L 32.731528,37.080847 L 32.731528,43.094844 C 32.731528,43.952105 32.494133,44.644505 32.019344,45.172049 C 31.544554,45.699592 30.885125,45.963365 30.041056,45.963365 C 29.196985,45.963365 28.537556,45.699592 28.062767,45.172049 C 27.601166,44.644505 27.370365,43.952105 27.370365,43.094844 L 27.370365,37.080847 L 21.415717,37.080847 C 20.571647,37.080847 19.885841,36.823672 19.358297,36.309317 C 18.843942,35.781773 18.586765,35.135532 18.586765,34.370594 C 18.586765,33.526523 18.837348,32.873688 19.338514,32.412088 C 19.852869,31.937299 20.545270,31.699904 21.415717,31.699904 L 27.370365,31.699904 z " id="path838" style="font-size:12.000000;font-weight:900;stroke-width:1.0000000pt;font-family:VAG Rounded Black SSi;fill:#333333;fill-opacity:1.0000000;"/>
</svg>
