<?xml version="1.0" encoding="UTF-8" standalone="no"?>
<!-- Generator: Adobe Illustrator 12.0.0, SVG Export Plug-In . SVG Version: 6.00 Build 51448)  --><svg height="407.761" id="Layer_1" inkscape:version="0.42" sodipodi:docbase="F:\openclip\svg da inviare" sodipodi:docname="Cavallo04.svg" sodipodi:version="0.32" space="preserve" style="overflow:visible;enable-background:new 0 0 417.723 407.761;" version="1.1" viewBox="0 0 417.723 407.761" width="417.723" xmlns="http://www.w3.org/2000/svg" xmlns:cc="http://web.resource.org/cc/" xmlns:dc="http://purl.org/dc/elements/1.1/" xmlns:inkscape="http://www.inkscape.org/namespaces/inkscape" xmlns:rdf="http://www.w3.org/1999/02/22-rdf-syntax-ns#" xmlns:sodipodi="http://inkscape.sourceforge.net/DTD/sodipodi-0.dtd" xmlns:svg="http://www.w3.org/2000/svg">
  <metadata>
    <rdf:RDF xmlns:cc="http://web.resource.org/cc/" xmlns:dc="http://purl.org/dc/elements/1.1/" xmlns:rdf="http://www.w3.org/1999/02/22-rdf-syntax-ns#">
      <cc:Work rdf:about="">
        <dc:title>Cavallo</dc:title>
        <dc:description></dc:description>
        <dc:subject>
          <rdf:Bag>
            <rdf:li>mammal</rdf:li>
            <rdf:li>horse</rdf:li>
          </rdf:Bag>
        </dc:subject>
        <dc:publisher>
          <cc:Agent rdf:about="http://www.openclipart.org/">
            <dc:title>Open Clip Art Library</dc:title>
          </cc:Agent>
        </dc:publisher>
        <dc:creator>
          <cc:Agent>
            <dc:title>Architetto Francesco Rollandin</dc:title>
          </cc:Agent>
        </dc:creator>
        <dc:rights>
          <cc:Agent>
            <dc:title>Architetto Francesco Rollandin</dc:title>
          </cc:Agent>
        </dc:rights>
        <dc:date></dc:date>
        <dc:format>image/svg+xml</dc:format>
        <dc:type rdf:resource="http://purl.org/dc/dcmitype/StillImage"/>
        <cc:license rdf:resource="http://web.resource.org/cc/PublicDomain"/>
        <dc:language>en</dc:language>
      </cc:Work>
      <cc:License rdf:about="http://web.resource.org/cc/PublicDomain">
        <cc:permits rdf:resource="http://web.resource.org/cc/Reproduction"/>
        <cc:permits rdf:resource="http://web.resource.org/cc/Distribution"/>
        <cc:permits rdf:resource="http://web.resource.org/cc/DerivativeWorks"/>
      </cc:License>
    </rdf:RDF>
  </metadata>
  <defs id="defs484"/>
  <sodipodi:namedview bordercolor="#666666" borderopacity="1.0" id="base" inkscape:current-layer="Layer_1" inkscape:cx="128.55798" inkscape:cy="249.75360" inkscape:pageopacity="0.0" inkscape:pageshadow="2" inkscape:window-height="712" inkscape:window-width="1024" inkscape:window-x="-4" inkscape:window-y="-4" inkscape:zoom="2.1666944" pagecolor="#ffffff"/>
  <path d="M75.703,250.703c0.381-12.516-14.59-23.247-27.018-16.547  c1.573-7.963,3.289-14.896,7.844-21.773c4.52-6.824,4.292-8.709,10.458-8.709c13.526,0,28.275,4.256,41.834,6.098  c30.785,4.183,63.446,10.502,94.127,11.321c-5.901,14.263-13.734,20.031-27.889,20.031c-5.05,0-9.083,3.056-13.945,3.483  c-6.208,0.547-10.202-2.048-15.688-4.354c-10.701-4.5-21.187-6.008-32.684-2.178C102.357,241.535,83.251,244.349,75.703,250.703" id="path3" style="fill-rule:evenodd;clip-rule:evenodd;fill:#302619;fill-opacity:1.0000000"/>
  <path d="M75.703,250.703  c0.381-12.516-14.59-23.247-27.018-16.547c1.004-5.083,1.349-11.602,4.358-16.111c2.043-3.062,8.715-10.071,8.715-13.5  c0-2.333,19.814,0.993,24.403,1.742" id="path5" style="fill:none;stroke:#000000;stroke-width:1.5003;stroke-linecap:square;stroke-miterlimit:10;"/>
  <path d="M86.161,206.287  c38.679,3.723,78.21,13.775,116.788,14.806c-2.166,5.235-6.1,9.455-9.587,13.934" id="path7" style="fill:none;stroke:#000000;stroke-width:1.5003;stroke-linecap:square;stroke-miterlimit:10;"/>
  <path d="M193.362,235.026  c-3.805,9.029-16.322,3.371-24.403,7.404c-7.112,3.549-18.269,3.08-24.403-3.049c-13.197-13.187-47.807,3.271-61.008,8.709" id="path9" style="fill:none;stroke:#000000;stroke-width:1.5003;stroke-linecap:square;stroke-miterlimit:10;"/>
  <path d="M83.547,248.09  c-2.884,0.14-6.308,1.318-7.844,2.612" id="path11" style="fill:none;stroke:#000000;stroke-width:1.5003;stroke-linecap:square;stroke-miterlimit:10;"/>
  <path d="M75.703,250.703  c0.381-12.516-14.59-23.247-27.018-16.547c1.573-7.963,3.289-14.896,7.844-21.773c4.52-6.824,4.292-8.709,10.458-8.709  c13.526,0,28.275,4.256,41.834,6.098c30.785,4.183,63.446,10.502,94.127,11.321c-5.901,14.263-13.734,20.031-27.889,20.031  c-5.05,0-9.083,3.056-13.945,3.483c-6.208,0.547-10.202-2.048-15.688-4.354c-10.701-4.5-21.187-6.008-32.684-2.178  C102.357,241.535,83.251,244.349,75.703,250.703" id="path13" style="fill:none;stroke:#000000;stroke-width:1.5003;stroke-linecap:square;stroke-miterlimit:10;"/>
  <path d="M31.254,232.415c2.687,4.591,5.41,9.973,8.716,13.934  c7.115-8.963,14.625-16.36,22.66-24.385c6.546-6.539-6.442-7.308-8.279-9.146C53.269,211.736,33.902,230.074,31.254,232.415" id="path15" style="fill-rule:evenodd;clip-rule:evenodd;fill:#F4F4F4;"/>
  <path d="M31.254,232.415  c2.687,4.591,5.41,9.973,8.716,13.934c7.115-8.963,14.625-16.36,22.66-24.385c6.546-6.539-6.442-7.308-8.279-9.146  C53.269,211.736,33.902,230.074,31.254,232.415" id="path17" style="fill:none;stroke:#000000;stroke-width:1.5003;stroke-linecap:square;stroke-miterlimit:10;"/>
  <path d="M31.254,232.415  c2.687,4.591,5.41,9.973,8.716,13.934c7.115-8.963,14.625-16.36,22.66-24.385c6.546-6.539-6.442-7.308-8.279-9.146  C53.269,211.736,33.902,230.074,31.254,232.415" id="path19" style="fill:none;stroke:#000000;stroke-width:1.5003;stroke-linecap:square;stroke-miterlimit:10;"/>
  <path d="M80.933,259.412c-5.006,0.34-9.923-0.265-14.816-0.871  c7.724-10.006,22.134-23.152,34.861-25.256C95.641,241.893,93.537,263.505,80.933,259.412" id="path21" style="fill-rule:evenodd;clip-rule:evenodd;fill:#F4F4F4;"/>
  <path d="M80.933,259.412  c-5.006,0.34-9.923-0.265-14.816-0.871c7.724-10.006,22.134-23.152,34.861-25.256C95.641,241.893,93.537,263.505,80.933,259.412" id="path23" style="fill:none;stroke:#000000;stroke-width:1.5003;stroke-linecap:square;stroke-miterlimit:10;"/>
  <path d="M80.933,259.412  c-5.006,0.34-9.923-0.265-14.816-0.871c7.724-10.006,22.134-23.152,34.861-25.256C95.641,241.893,93.537,263.505,80.933,259.412" id="path25" style="fill:none;stroke:#000000;stroke-width:1.5003;stroke-linecap:square;stroke-miterlimit:10;"/>
  <path d="M181.16,67.811c-7.571-1.987-15.973-2.037-23.531-4.354  c-8.845-2.712-18.25-8.031-26.147-12.193c-16.195-8.536-27.116-7.791-44.449,0c-7.433,3.341-10.937,6.574-16.559,12.193  c-6.401,6.397-1.743,14.438-1.743,22.209c0,13.79-14.961,28.453-29.633,22.208c7.887,13.875,32.339,25.695,47.063,15.677  c1.167,8.471-9.461,10.449-14.815,13.063c11.317,3.107,23.256,9.448,34.862,15.241c17.361,8.666,38.115,14.797,54.472,25.692  c8.56,5.702,22.442,10.299,31.811,13.934c11.277,4.375,21.225,11.427,32.683,15.241c20.009,6.66,40.354,17.335,59.702,26.999  c10.256,5.122,20.988,8.737,31.376,13.935c6.111,3.058,15.968,7.852,22.659,8.274c16.496,1.041,42.349-18.979,32.248-36.578  c19.334-8.218,18.493-25.582,2.614-36.58c8.685,7.538,23.478,16.485,23.532,29.611c15.72-13.208,27.014-44.206,13.943-62.706  c-5.249-7.429-18.239-11.991-27.889-11.322c-14.799,1.026-21.361,13.504-31.376,22.644c12.314-10.21,21.119-31.66,21.789-47.03  c0.624-14.302-3.264-23.076-13.073-32.224c-9.431-8.794-18.399-15.839-24.403-27.869c-6.461-12.946-4.04-23.041,13.073-21.773  c-9.704-7.033-20.527-16.789-29.633-3.483c-9.297-13.595,13.795-11.322,20.917-11.322c-17.743-1.48-33.138-17.766-46.191,3.483  c-3.874,6.307-10.459,19.148-10.459,26.999c0,11.651,3.012,22.247,3.486,33.095c-5.266-14.64-29.695-7.208-32.246-20.031  c-2.619-13.163,1.541-20.386-14.381-25.692c-10.98-3.659-28.203-4.048-37.042,4.79c-3.343,3.343-7.516,5.896-10.458,10.451  C189.09,57.004,186.865,63.664,181.16,67.811" id="path27" style="fill-rule:evenodd;clip-rule:evenodd;fill:#633B13;"/>
  <path d="M181.16,67.811  c-6.799-1.785-21.472-0.56-26.582-5.661c-5.723-5.713-21.187-11.173-28.326-14.37c-16.736-7.492-33.005-0.055-48.807,7.838" id="path29" style="fill:none;stroke:#000000;stroke-width:1.5003;stroke-linecap:square;stroke-miterlimit:10;"/>
  <path d="M77.446,55.618  c-2.702,2.942-10.458,9.574-10.458,13.935c0,7.08,1.743,13.612,1.743,20.902c0,12.268-19.274,21.828-29.633,17.418  c3.007,5.29,8.659,9.562,13.945,13.064" id="path31" style="fill:none;stroke:#000000;stroke-width:1.5003;stroke-linecap:square;stroke-miterlimit:10;"/>
  <path d="M53.043,120.937  c10.121,5.431,22.779,9.648,33.118,2.613c1.167,8.471-9.461,10.449-14.815,13.063c8.96,2.46,16.561,7.579,26.146,10.451" id="path33" style="fill:none;stroke:#000000;stroke-width:1.5003;stroke-linecap:square;stroke-miterlimit:10;"/>
  <path d="M97.492,147.064  c8.184,5.797,17.428,8.274,26.146,12.628c11.073,5.53,22.765,12.666,34.426,16.548c26.465,8.812,49.196,26.478,76.262,34.401" id="path35" style="fill:none;stroke:#000000;stroke-width:1.5003;stroke-linecap:square;stroke-miterlimit:10;"/>
  <path d="M234.326,210.641  c7.257,6.673,22.057,9.89,31.374,13.935c7.812,3.392,20.882,13.935,29.197,13.935c4.226,0,21.632,7.244,24.403,10.016  c3.723,3.723,13.265,5.132,17.867,7.403" id="path37" style="fill:none;stroke:#000000;stroke-width:1.5003;stroke-linecap:square;stroke-miterlimit:10;"/>
  <path d="M337.167,255.929  c16.84,1.49,44.583-18.124,33.99-36.578c10.702-4.549,18.18-12.237,13.944-24.386" id="path39" style="fill:none;stroke:#000000;stroke-width:1.5003;stroke-linecap:square;stroke-miterlimit:10;"/>
  <path d="M385.102,194.965  c-1.523-5.016-6.783-9.044-11.33-12.193c8.685,7.538,23.478,16.485,23.532,29.611c12.457-10.467,20.261-28.628,19.174-45.287" id="path41" style="fill:none;stroke:#000000;stroke-width:1.5003;stroke-linecap:square;stroke-miterlimit:10;"/>
  <path d="M416.478,167.095  c0.346-15.186-9.676-24.548-23.533-27.87c-19.607-4.7-28.21,10.135-40.962,21.773c5.071-4.205,8.287-9.536,10.458-15.676" id="path43" style="fill:none;stroke:#000000;stroke-width:1.5003;stroke-linecap:square;stroke-miterlimit:10;"/>
  <path d="M362.441,145.323  c11.162-12.143,15.453-35.761,8.717-50.514c-4.922-10.779-20.22-23.623-29.633-31.353" id="path45" style="fill:none;stroke:#000000;stroke-width:1.5003;stroke-linecap:square;stroke-miterlimit:10;"/>
  <path d="M341.525,63.456  c-8.625-13.426-16.374-33.146,7.844-31.354c-9.704-7.033-20.527-16.789-29.633-3.483c-1.152-1.623-1.619-3.329-1.743-5.226" id="path47" style="fill:none;stroke:#000000;stroke-width:1.5003;stroke-linecap:square;stroke-miterlimit:10;"/>
  <path d="M317.993,23.394  c-0.165-9.012,16.474-6.097,22.66-6.097c-11.014-0.918-22.076-11.823-33.99-7.838c-11.558,3.866-16.418,19.177-20.046,29.611" id="path49" style="fill:none;stroke:#000000;stroke-width:1.5003;stroke-linecap:square;stroke-miterlimit:10;"/>
  <path d="M286.617,39.07  c-7.059,13.328,0.293,28.568,0.872,41.804c-5.219-14.511-27.254-5.973-33.119-16.548c-0.808-1.457,0.873-13.13,0.873-15.676  c0-4.825-4.056-7.861-6.974-10.452" id="path51" style="fill:none;stroke:#000000;stroke-width:1.5003;stroke-linecap:square;stroke-miterlimit:10;"/>
  <path d="M248.269,38.199  c-13.881-6.308-27.516-7.159-40.962-0.436c-13.166,6.583-15.325,22.182-26.146,30.047" id="path53" style="fill:none;stroke:#000000;stroke-width:1.5003;stroke-linecap:square;stroke-miterlimit:10;"/>
  <path d="M181.16,67.811  c-7.571-1.987-15.973-2.037-23.531-4.354c-8.845-2.712-18.25-8.031-26.147-12.193c-16.195-8.536-27.116-7.791-44.449,0  c-7.433,3.341-10.937,6.574-16.559,12.193c-6.401,6.397-1.743,14.438-1.743,22.209c0,13.79-14.961,28.453-29.633,22.208  c7.887,13.875,32.339,25.695,47.063,15.677c1.167,8.471-9.461,10.449-14.815,13.063c11.317,3.107,23.256,9.448,34.862,15.241  c17.361,8.666,38.115,14.797,54.472,25.692c8.56,5.702,22.442,10.299,31.811,13.934c11.277,4.375,21.225,11.427,32.683,15.241  c20.009,6.66,40.354,17.335,59.702,26.999c10.256,5.122,20.988,8.737,31.376,13.935c6.111,3.058,15.968,7.852,22.659,8.274  c16.496,1.041,42.349-18.979,32.248-36.578c19.334-8.218,18.493-25.582,2.614-36.58c8.685,7.538,23.478,16.485,23.532,29.611  c15.72-13.208,27.014-44.206,13.943-62.706c-5.249-7.429-18.239-11.991-27.889-11.322c-14.799,1.026-21.361,13.504-31.376,22.644  c12.314-10.21,21.119-31.66,21.789-47.03c0.624-14.302-3.264-23.076-13.073-32.224c-9.431-8.794-18.399-15.839-24.403-27.869  c-6.461-12.946-4.04-23.041,13.073-21.773c-9.704-7.033-20.527-16.789-29.633-3.483c-9.297-13.595,13.795-11.322,20.917-11.322  c-17.743-1.48-33.138-17.766-46.191,3.483c-3.874,6.307-10.459,19.148-10.459,26.999c0,11.651,3.012,22.247,3.486,33.095  c-5.266-14.64-29.695-7.208-32.246-20.031c-2.619-13.163,1.541-20.386-14.381-25.692c-10.98-3.659-28.203-4.048-37.042,4.79  c-3.343,3.343-7.516,5.896-10.458,10.451C189.09,57.004,186.865,63.664,181.16,67.811" id="path55" style="fill:none;stroke:#000000;stroke-width:1.5003;stroke-linecap:square;stroke-miterlimit:10;"/>
  <path d="M384.231,374.374c-14.946-8.75-26.849-23.486-33.119-39.192  c-5.085-12.736-5.054-27.893-6.974-40.062c-2.292-14.521-3.988-28.43-6.101-42.674c-2.179-14.69-12.201-31.511-12.201-46.16  c0-6.785-6.831-17.037-9.587-23.514c-2.295-5.393-11.33-16.112-11.33-21.773c0-8.698-23.929-34.595-30.503-37.885  c-14.826-7.417-27.172-18.773-44.014-24.386c-4.335-1.444-9.112-1.112-13.51-2.177c-6.875-1.666-10.739-7.059-16.995-9.144  c-12.786-4.262-4.477-11.204,0.001-15.677c4.017-4.012,8.853-6.395,10.894-13.5c3.175-11.051,0.281-23.94-1.742-34.836  c-6.49,1.819-16.794,17.418-20.046,17.418c-9.909,0-12.203,16.284-12.203,23.079c0,10.296-3.664,13.202-12.202,16.983  c-7.595,3.364-12.255,8.708-20.916,8.708c-8.59,0-14.388,12.22-16.124,19.161c-0.57,2.279-17.714,10.116-21.353,13.063  c-6.583,5.332-15.041,11.771-18.738,19.16c-3.991,7.976-19.595,9.551-23.532,17.419c-6.778,13.545-29.93,11.187-39.22,20.466  c-4.349,4.344,0.377,7.423-6.1,9.581c-5.26,1.752-2.029,4.909-3.923,8.274c-2.242,3.984-5.163,5.119-5.229,10.45  c-0.06,4.815,6.171,11.463,8.28,15.678c3.833,7.662-2.845,16.294,9.151,20.03c11.687,3.641,7.237-7.234,14.381-14.37  c11.477-11.464,23.768-23.206,41.398-17.854c20.95,6.36,15.242,25.225,5.229,39.191c-2.497,3.483-6.113,6.631-8.715,10.451  c-1.919,2.817-4.971,0.694-3.486,5.225c0.51,1.557,6.006,4.385,7.408,3.918c3.266-1.087,10.097-6.214,13.074-5.223  c3.906,1.3,10.779,0.06,14.38-1.742c11.682-5.847,4.464-12.868,6.101-22.209c1.84-10.5,15.805-8.749,24.839-11.758  c5.541-1.846,19.152-7.195,24.839-4.354c7.53,3.763,25.417-6.784,31.376-2.177c0.581,0,1.162,0,1.743,0  c-7.852,6.011-11.421,15.957-18.303,21.773c-4.773,4.035-10.648,6.393-15.688,10.45c-14.345,11.55-27.482,24.332-40.091,38.319  c-12.131,13.457-22.829,26.528-32.247,42.675c-9.295,15.936-13.326,39.442-25.711,51.82c-0.75,0.75-0.896,2.126-1.307,3.048  c32.113-17.37,74.292-20.557,101.099,4.355c2.951,2.742,9.007,10.669,10.458,11.322c6.417,2.889,21.204,0,28.325,0  c21.576,0,42.522-6.968,64.06-6.968c22.447,0,45.121-13.063,67.544-13.063c7.376,0,18.226-4.231,25.712-6.098  C369.47,378.063,379.645,376.908,384.231,374.374" id="path57" style="fill-rule:evenodd;clip-rule:evenodd;fill:#5A3D1C;"/>
  <path d="M384.231,374.374  c-24.881-14.566-38.396-40.926-38.349-68.803" id="path59" style="fill:none;stroke:#000000;stroke-width:1.5003;stroke-linecap:square;stroke-miterlimit:10;"/>
  <path d="M345.882,305.571  c-2.917-13.846-4.795-29.926-6.973-44.417c-2.607-17.351-8.252-33.231-11.33-50.513" id="path61" style="fill:none;stroke:#000000;stroke-width:1.5003;stroke-linecap:square;stroke-miterlimit:10;"/>
  <path d="M327.58,210.641  c-16.062-36.555-30.447-73.177-63.623-94.93" id="path63" style="fill:none;stroke:#000000;stroke-width:1.5003;stroke-linecap:square;stroke-miterlimit:10;"/>
  <path d="M263.957,115.711  c-15.725-11.331-30.589-13.674-48.37-19.595c-5.308-1.768-25.174-9.816-23.097-18.725c0.847-3.63,10.929-7.987,13.946-10.451" id="path65" style="fill:none;stroke:#000000;stroke-width:1.5003;stroke-linecap:square;stroke-miterlimit:10;"/>
  <path d="M206.436,66.94  c8.565-12.878,5.324-28.955,2.615-43.546c-6.379,1.789-10.285,6.791-14.817,11.322c-4.459,4.458-7.947,6.849-12.201,11.322  c-8.903,9.362,0.232,27.815-13.074,33.095" id="path67" style="fill:none;stroke:#000000;stroke-width:1.5003;stroke-linecap:square;stroke-miterlimit:10;"/>
  <path d="M168.958,79.133  c-8.6,2.538-13.828,9.58-22.66,9.58c-11.49,0-12.589,11.157-18.303,18.29c-9.94,12.409-36.003,18.429-41.834,37.449" id="path69" style="fill:none;stroke:#000000;stroke-width:1.5003;stroke-linecap:square;stroke-miterlimit:10;"/>
  <path d="M86.161,144.451  c-18.517,6.959-30.472,21.964-49.678,27.87c-3.187,0.98-7.5,1.057-9.151,4.354c-0.716,1.43-7.032,11.322-6.101,11.322  c-6.716,0-4.28,3.651-6.537,6.968c-1.947,2.86,1.035,4.274-3.486,6.531c-2.1,1.048-2.244,3.412-1.743,5.661" id="path71" style="fill:none;stroke:#000000;stroke-width:1.5003;stroke-linecap:square;stroke-miterlimit:10;"/>
  <path d="M9.466,207.157  c1.892,5.491,6.104,9.438,7.844,14.807c1.326,4.092-0.569,9.313,1.307,13.063c1.612,3.222,4.077,6.528,8.28,7.838  c2.167,0.675,4.798,2.438,7.844,0c3.202-2.562-0.525-3.75,0.872-6.967c5.742-13.213,23.459-26.15,37.476-26.127" id="path73" style="fill:none;stroke:#000000;stroke-width:1.5003;stroke-linecap:square;stroke-miterlimit:10;"/>
  <path d="M73.088,209.771  c8.394-0.595,17.059,2.034,21.789,8.708c5.994,8.458,1.121,17.793-3.051,26.128c-1.699,3.395-4.968,7.766-7.409,10.451  c-4.347,4.783-12.343,6.902-6.101,12.192c5.762,4.883,9.538-1.016,15.688-2.612c4.129-1.072,9.857-0.15,14.816-1.741" id="path75" style="fill:none;stroke:#000000;stroke-width:1.5003;stroke-linecap:square;stroke-miterlimit:10;"/>
  <path d="M108.822,262.897  c12.608-2.18,7.464-12.859,7.844-20.902c0.565-11.993,13.77-10.438,23.532-13.064c18.623-5.011,38.71-7.528,58.394-6.967" id="path77" style="fill:none;stroke:#000000;stroke-width:1.5003;stroke-linecap:square;stroke-miterlimit:10;"/>
  <path d="M198.591,221.963  c-7.158,13.615-22.74,23.036-34.861,33.966c-14.436,13.017-28.884,26.765-42.706,40.934" id="path79" style="fill:none;stroke:#000000;stroke-width:1.5003;stroke-linecap:square;stroke-miterlimit:10;"/>
  <path d="M121.024,296.863  c-11.949,10.552-22.749,27.171-30.069,41.804c-5.422,10.838-8.593,23.011-14.38,33.966c-3.277,6.204-7.921,11.717-10.458,17.417  c1.162-0.581,2.324-1.161,3.486-1.742" id="path81" style="fill:none;stroke:#000000;stroke-width:1.5003;stroke-linecap:square;stroke-miterlimit:10;"/>
  <path d="M69.603,388.307  c13.659-2.604,25.244-9.663,39.219-11.321c10.491-1.244,20.385-0.999,30.504,1.742c14.959,4.053,23.43,14.58,34.862,20.901" id="path83" style="fill:none;stroke:#000000;stroke-width:1.5003;stroke-linecap:square;stroke-miterlimit:10;"/>
  <path d="M174.188,399.629  c3.903,7.283,7.736,6.098,17.431,6.098c8.814,0,20.902,1.456,29.197-1.307c7.986-2.66,22.219-3.92,30.503-3.92  c10.949,0,22.011-3.226,32.684-4.354" id="path85" style="fill:none;stroke:#000000;stroke-width:1.5003;stroke-linecap:square;stroke-miterlimit:10;"/>
  <path d="M284.002,396.147  c19.281-4.765,39.635-6.733,58.394-11.321c7.681-1.879,15.1-4.156,22.66-6.098c5.086-1.306,14.831-1.757,18.303-4.354" id="path87" style="fill:none;stroke:#000000;stroke-width:1.5003;stroke-linecap:square;stroke-miterlimit:10;"/>
  <path d="M383.359,374.374  c0.291,0,0.581,0,0.872,0" id="path89" style="fill:none;stroke:#000000;stroke-width:1.5003;stroke-linecap:square;stroke-miterlimit:10;"/>
  <path d="M384.231,374.374  c-14.946-8.75-26.849-23.486-33.119-39.192c-5.085-12.736-5.054-27.893-6.974-40.062c-2.292-14.521-3.988-28.43-6.101-42.674  c-2.179-14.69-12.201-31.511-12.201-46.16c0-6.785-6.831-17.037-9.587-23.514c-2.295-5.393-11.33-16.112-11.33-21.773  c0-8.698-23.929-34.595-30.503-37.885c-14.826-7.417-27.172-18.773-44.014-24.386c-4.335-1.444-9.112-1.112-13.51-2.177  c-6.875-1.666-10.739-7.059-16.995-9.144c-12.786-4.262-4.477-11.204,0.001-15.677c4.017-4.012,8.853-6.395,10.894-13.5  c3.175-11.051,0.281-23.94-1.742-34.836c-6.49,1.819-16.794,17.418-20.046,17.418c-9.909,0-12.203,16.284-12.203,23.079  c0,10.296-3.664,13.202-12.202,16.983c-7.595,3.364-12.255,8.708-20.916,8.708c-8.59,0-14.388,12.22-16.124,19.161  c-0.57,2.279-17.714,10.116-21.353,13.063c-6.583,5.332-15.041,11.771-18.738,19.16c-3.991,7.976-19.595,9.551-23.532,17.419  c-6.778,13.545-29.93,11.187-39.22,20.466c-4.349,4.344,0.377,7.423-6.1,9.581c-5.26,1.752-2.029,4.909-3.923,8.274  c-2.242,3.984-5.163,5.119-5.229,10.45c-0.06,4.815,6.171,11.463,8.28,15.678c3.833,7.662-2.845,16.294,9.151,20.03  c11.687,3.641,7.237-7.234,14.381-14.37c11.477-11.464,23.768-23.206,41.398-17.854c20.95,6.36,15.242,25.225,5.229,39.191  c-2.497,3.483-6.113,6.631-8.715,10.451c-1.919,2.817-4.971,0.694-3.486,5.225c0.51,1.557,6.006,4.385,7.408,3.918  c3.266-1.087,10.097-6.214,13.074-5.223c3.906,1.3,10.779,0.06,14.38-1.742c11.682-5.847,4.464-12.868,6.101-22.209  c1.84-10.5,15.805-8.749,24.839-11.758c5.541-1.846,19.152-7.195,24.839-4.354c7.53,3.763,25.417-6.784,31.376-2.177  c0.581,0,1.162,0,1.743,0c-7.852,6.011-11.421,15.957-18.303,21.773c-4.773,4.035-10.648,6.393-15.688,10.45  c-14.345,11.55-27.482,24.332-40.091,38.319c-12.131,13.457-22.829,26.528-32.247,42.675c-9.295,15.936-13.326,39.442-25.711,51.82  c-0.75,0.75-0.896,2.126-1.307,3.048c32.113-17.37,74.292-20.557,101.099,4.355c2.951,2.742,9.007,10.669,10.458,11.322  c6.417,2.889,21.204,0,28.325,0c21.576,0,42.522-6.968,64.06-6.968c22.447,0,45.121-13.063,67.544-13.063  c7.376,0,18.226-4.231,25.712-6.098C369.47,378.063,379.645,376.908,384.231,374.374" id="path91" style="fill:none;stroke:#000000;stroke-width:1.5003;stroke-linecap:square;stroke-miterlimit:10;"/>
  <path d="M372.029,234.156c3.557,0.509,10.958,2.735,12.638,6.097  c1.714,3.429-0.247,7.838,4.793,7.838c5.647,0,10.343,8.911,12.202,13.063c6.062,13.536-5.846,29.554-19.174,33.966  c9.521,0.53,13.943,8.938,13.943,17.418c0,8.976-13.4,15.482-19.173,20.032c18.388-0.135,20.789,16.05,12.202,27.868  c-10.852,14.937-25.514,16.16-41.835,10.452c-16.01-5.599-30.369-17.331-47.936-17.419c-18.257-0.091-27.933,9.21-40.961,18.289  c-1.181,0.822-0.889,3.158-0.872,4.354c-12.539-15.531,5.806-41.564,20.916-47.028c-13.39,0.487-17.197,7.235-26.146,13.063  c-0.594-13.543,9.351-25.128,20.919-30.482c-6.072-0.833-11.924-5.724-18.303-5.225c-8.715,0.683-11.126,7.054-16.561,13.063  c-1.027-5.754-0.546-14.578,2.18-20.03c1.402-2.809,7.272-14.807,10.022-14.807c2.745,0,11.857-7.979,15.688-9.579  c5.362-2.239,10.059-2.631,15.688-4.355c-9.769-3.455-23.811,1.075-32.247,6.097c8.758-15.818,37.744-16.552,53.164-18.29  c12.228-1.379,23.712-1.732,35.733-4.354c5.313-1.158,12.136-5.226,17.431-5.226C364.282,248.961,367.751,239.983,372.029,234.156" id="path93" style="fill-rule:evenodd;clip-rule:evenodd;fill:#633B13;"/>
  <path d="M372.029,234.156  c3.557,0.509,10.958,2.735,12.638,6.097c1.714,3.429-0.247,7.838,4.793,7.838c5.647,0,10.343,8.911,12.202,13.063  c6.062,13.536-5.846,29.554-19.174,33.966c2.909,0.156,4.284,1.334,6.973,2.613" id="path95" style="fill:none;stroke:#000000;stroke-width:1.5003;stroke-linecap:square;stroke-miterlimit:10;"/>
  <path d="M389.46,297.733  c18.178,12.581-2.126,26.896-12.202,34.837c23.572-0.173,18.326,20.987,7.844,33.094" id="path97" style="fill:none;stroke:#000000;stroke-width:1.5003;stroke-linecap:square;stroke-miterlimit:10;"/>
  <path d="M385.102,365.664  c-32.92,27.867-65.647-22.904-101.97-9.58" id="path99" style="fill:none;stroke:#000000;stroke-width:1.5003;stroke-linecap:square;stroke-miterlimit:10;"/>
  <path d="M283.132,356.083  c-8.707,2.298-25.421,9.482-25.275,20.031c-12.539-15.531,5.806-41.564,20.916-47.028c-2.95,0.107-5.823,0.396-8.714,0.87" id="path101" style="fill:none;stroke:#000000;stroke-width:1.5003;stroke-linecap:square;stroke-miterlimit:10;"/>
  <path d="M270.059,329.957  c-8.834,2.251-11.271,8.18-17.433,12.192c-0.594-13.543,9.351-25.128,20.919-30.482c-6.072-0.833-11.924-5.724-18.303-5.225  c-8.715,0.683-11.126,7.054-16.561,13.063" id="path103" style="fill:none;stroke:#000000;stroke-width:1.5003;stroke-linecap:square;stroke-miterlimit:10;"/>
  <path d="M238.682,319.505  c-1.027-5.754-0.546-14.578,2.18-20.03c1.402-2.809,7.272-14.807,10.022-14.807c2.745,0,11.857-7.979,15.688-9.579  c5.362-2.239,10.059-2.631,15.688-4.355c-9.769-3.455-23.811,1.075-32.247,6.097" id="path105" style="fill:none;stroke:#000000;stroke-width:1.5003;stroke-linecap:square;stroke-miterlimit:10;"/>
  <path d="M250.012,276.831  c8.26-14.918,34.09-15.946,48.807-17.419c8.286-0.829,23.104,0.646,30.504-3.048c7.587-3.786,23.617-7.724,32.248-8.273" id="path107" style="fill:none;stroke:#000000;stroke-width:1.5003;stroke-linecap:square;stroke-miterlimit:10;"/>
  <path d="M361.571,248.09  c3.744-4.412,7.027-9.261,10.458-13.935" id="path109" style="fill:none;stroke:#000000;stroke-width:1.5003;stroke-linecap:square;stroke-miterlimit:10;"/>
  <path d="M372.029,234.156  c3.557,0.509,10.958,2.735,12.638,6.097c1.714,3.429-0.247,7.838,4.793,7.838c5.647,0,10.343,8.911,12.202,13.063  c6.062,13.536-5.846,29.554-19.174,33.966c9.521,0.53,13.943,8.938,13.943,17.418c0,8.976-13.4,15.482-19.173,20.032  c18.388-0.135,20.789,16.05,12.202,27.868c-10.852,14.937-25.514,16.16-41.835,10.452c-16.01-5.599-30.369-17.331-47.936-17.419  c-18.257-0.091-27.933,9.21-40.961,18.289c-1.181,0.822-0.889,3.158-0.872,4.354c-12.539-15.531,5.806-41.564,20.916-47.028  c-13.39,0.487-17.197,7.235-26.146,13.063c-0.594-13.543,9.351-25.128,20.919-30.482c-6.072-0.833-11.924-5.724-18.303-5.225  c-8.715,0.683-11.126,7.054-16.561,13.063c-1.027-5.754-0.546-14.578,2.18-20.03c1.402-2.809,7.272-14.807,10.022-14.807  c2.745,0,11.857-7.979,15.688-9.579c5.362-2.239,10.059-2.631,15.688-4.355c-9.769-3.455-23.811,1.075-32.247,6.097  c8.758-15.818,37.744-16.552,53.164-18.29c12.228-1.379,23.712-1.732,35.733-4.354c5.313-1.158,12.136-5.226,17.431-5.226  C364.282,248.961,367.751,239.983,372.029,234.156" id="path111" style="fill:none;stroke:#000000;stroke-width:1.5003;stroke-linecap:square;stroke-miterlimit:10;"/>
  <path d="M235.196,188.868  c-7.673,17.512-12.587,30.07-34.861,32.224" id="path113" style="fill:none;stroke:#000000;stroke-width:1.5003;stroke-linecap:square;stroke-miterlimit:10;"/>
  <path d="M235.196,188.868  c-7.673,17.512-12.587,30.07-34.861,32.224" id="path115" style="fill:none;stroke:#000000;stroke-width:1.5003;stroke-linecap:square;stroke-miterlimit:10;"/>
  <path d="M200.335,221.092  c-13.847-1.519-30.695,1.896-44.45,3.483c-11.603,1.339-23.801,5.426-33.99,9.58" id="path117" style="fill:none;stroke:#000000;stroke-width:1.5003;stroke-linecap:square;stroke-miterlimit:10;"/>
  <path d="M200.335,221.092  c-13.847-1.519-30.695,1.896-44.45,3.483c-11.603,1.339-23.801,5.426-33.99,9.58" id="path119" style="fill:none;stroke:#000000;stroke-width:1.5003;stroke-linecap:square;stroke-miterlimit:10;"/>
  <path d="M228.224,219.351  c-14.43,23.282-40.878,37.849-64.495,49.641" id="path121" style="fill:none;stroke:#000000;stroke-width:1.5003;stroke-linecap:square;stroke-miterlimit:10;"/>
  <path d="M228.224,219.351  c-14.43,23.282-40.878,37.849-64.495,49.641" id="path123" style="fill:none;stroke:#000000;stroke-width:1.5003;stroke-linecap:square;stroke-miterlimit:10;"/>
  <path d="M163.729,268.992  c-11.267,6.631-22.489,11.848-33.119,20.031c-7.527,5.795-21.274,15.573-23.532,24.386" id="path125" style="fill:none;stroke:#000000;stroke-width:1.5003;stroke-linecap:square;stroke-miterlimit:10;"/>
  <path d="M163.729,268.992  c-11.267,6.631-22.489,11.848-33.119,20.031c-7.527,5.795-21.274,15.573-23.532,24.386" id="path127" style="fill:none;stroke:#000000;stroke-width:1.5003;stroke-linecap:square;stroke-miterlimit:10;"/>
  <path d="M246.527,167.095  c7.599,9.796,6.1,31.866,6.1,45.288c0,17.912-8.608,28.532-17.431,42.675" id="path129" style="fill:none;stroke:#000000;stroke-width:1.5003;stroke-linecap:square;stroke-miterlimit:10;"/>
  <path d="M246.527,167.095  c7.599,9.796,6.1,31.866,6.1,45.288c0,17.912-8.608,28.532-17.431,42.675" id="path131" style="fill:none;stroke:#000000;stroke-width:1.5003;stroke-linecap:square;stroke-miterlimit:10;"/>
  <path d="M222.124,127.033  c5.889,9.139,22.457,19.459,11.33,31.353" id="path133" style="fill:none;stroke:#000000;stroke-width:1.5003;stroke-linecap:square;stroke-miterlimit:10;"/>
  <path d="M222.124,127.033  c5.889,9.139,22.457,19.459,11.33,31.353" id="path135" style="fill:none;stroke:#000000;stroke-width:1.5003;stroke-linecap:square;stroke-miterlimit:10;"/>
  <path d="M107.951,242.865  c-2.218,6.686-7.383,16.571-13.073,20.903" id="path137" style="fill:none;stroke:#000000;stroke-width:1.5003;stroke-linecap:square;stroke-miterlimit:10;"/>
  <path d="M107.951,242.865  c-2.218,6.686-7.383,16.571-13.073,20.903" id="path139" style="fill:none;stroke:#000000;stroke-width:1.5003;stroke-linecap:square;stroke-miterlimit:10;"/>
  <path d="M97.492,202.802  c8.999,3.748,17.967,13.584,16.559,25.257" id="path141" style="fill:none;stroke:#000000;stroke-width:1.5003;stroke-linecap:square;stroke-miterlimit:10;"/>
  <path d="M97.492,202.802  c8.999,3.748,17.967,13.584,16.559,25.257" id="path143" style="fill:none;stroke:#000000;stroke-width:1.5003;stroke-linecap:square;stroke-miterlimit:10;"/>
  <path d="M144.555,214.125  c-8.996,1.854-26.98,3.815-29.633,14.806" id="path145" style="fill:none;stroke:#000000;stroke-width:1.5003;stroke-linecap:square;stroke-miterlimit:10;"/>
  <path d="M144.555,214.125  c-8.996,1.854-26.98,3.815-29.633,14.806" id="path147" style="fill:none;stroke:#000000;stroke-width:1.5003;stroke-linecap:square;stroke-miterlimit:10;"/>
  <path d="M168.087,222.833  c-14.723-4.497-15.987-21.792-25.274-32.224" id="path149" style="fill:none;stroke:#000000;stroke-width:1.5003;stroke-linecap:square;stroke-miterlimit:10;"/>
  <path d="M168.087,222.833  c-14.723-4.497-15.987-21.792-25.274-32.224" id="path151" style="fill:none;stroke:#000000;stroke-width:1.5003;stroke-linecap:square;stroke-miterlimit:10;"/>
  <path d="M142.813,190.609  c-7.104-8.142-20.242-20.608-32.248-12.192" id="path153" style="fill:none;stroke:#000000;stroke-width:1.5003;stroke-linecap:square;stroke-miterlimit:10;"/>
  <path d="M142.813,190.609  c-7.104-8.142-20.242-20.608-32.248-12.192" id="path155" style="fill:none;stroke:#000000;stroke-width:1.5003;stroke-linecap:square;stroke-miterlimit:10;"/>
  <path d="M67.859,187.997  c-8.139,4.067-17.85,8.982-20.045,18.29" id="path157" style="fill:none;stroke:#000000;stroke-width:1.5003;stroke-linecap:square;stroke-miterlimit:10;"/>
  <path d="M67.859,187.997  c-8.139,4.067-17.85,8.982-20.045,18.29" id="path159" style="fill:none;stroke:#000000;stroke-width:1.5003;stroke-linecap:square;stroke-miterlimit:10;"/>
  <path d="M14.695,199.32  c5.99,7.017,6.999,15.391,6.101,25.256" id="path161" style="fill:none;stroke:#000000;stroke-width:1.5003;stroke-linecap:square;stroke-miterlimit:10;"/>
  <path d="M14.695,199.32  c5.99,7.017,6.999,15.391,6.101,25.256" id="path163" style="fill:none;stroke:#000000;stroke-width:1.5003;stroke-linecap:square;stroke-miterlimit:10;"/>
  <path d="M80.061,160.999  c-9.836,0.576-18.913,7.212-28.761,7.838" id="path165" style="fill:none;stroke:#000000;stroke-width:1.5003;stroke-linecap:square;stroke-miterlimit:10;"/>
  <path d="M80.061,160.999  c-9.836,0.576-18.913,7.212-28.761,7.838" id="path167" style="fill:none;stroke:#000000;stroke-width:1.5003;stroke-linecap:square;stroke-miterlimit:10;"/>
  <path d="M51.3,168.837  c-1.224,1.056-2.458,1.169-3.486,0" id="path169" style="fill:none;stroke:#000000;stroke-width:1.5003;stroke-linecap:square;stroke-miterlimit:10;"/>
  <path d="M51.3,168.837  c-1.224,1.056-2.458,1.169-3.486,0" id="path171" style="fill:none;stroke:#000000;stroke-width:1.5003;stroke-linecap:square;stroke-miterlimit:10;"/>
  <line id="line173" style="fill:none;stroke:#000000;stroke-width:1.5003;stroke-linecap:square;stroke-miterlimit:10;" x1="0.75" x2="0.75" y1="0.75" y2="0.75"/>
  <path d="M36.483,186.255c-15.046,6.24-0.962,22.735,3.486,18.289  c6.904-6.9,11.913-27.667-4.357-25.257c4.812,3.575,7.356,7.304,4.358,13.935c-0.908-0.03-4.278-0.548-5.23-0.871  c2.487-1.73,3.262-3.873,4.358-6.096C38.296,186.255,37.268,186.413,36.483,186.255" id="path175" style="fill-rule:evenodd;clip-rule:evenodd;fill:#323232;"/>
  <path d="M36.483,186.255  c-15.046,6.24-0.962,22.735,3.486,18.289c6.904-6.9,11.913-27.667-4.357-25.257c4.812,3.575,7.356,7.304,4.358,13.935  c-0.908-0.03-4.278-0.548-5.23-0.871c2.795-1.945,4.297-4.196,3.486-6.096" id="path177" style="fill:none;stroke:#000000;stroke-width:1.5003;stroke-linecap:square;stroke-miterlimit:10;"/>
  <path d="M38.227,186.255  c-0.581,0-1.162,0-1.743,0" id="path179" style="fill:none;stroke:#000000;stroke-width:1.5003;stroke-linecap:square;stroke-miterlimit:10;"/>
  <path d="M36.483,186.255  c-15.046,6.24-0.962,22.735,3.486,18.289c6.904-6.9,11.913-27.667-4.357-25.257c4.812,3.575,7.356,7.304,4.358,13.935  c-0.908-0.03-4.278-0.548-5.23-0.871c2.487-1.73,3.262-3.873,4.358-6.096C38.296,186.255,37.268,186.413,36.483,186.255" id="path181" style="fill:none;stroke:#000000;stroke-width:1.5003;stroke-linecap:square;stroke-miterlimit:10;"/>
  <path d="M205.564,30.361  c1.534,9.042,3.717,20.093-0.873,28.74" id="path183" style="fill:none;stroke:#000000;stroke-width:1.5003;stroke-linecap:square;stroke-miterlimit:10;"/>
  <path d="M205.564,30.361  c1.534,9.042,3.717,20.093-0.873,28.74" id="path185" style="fill:none;stroke:#000000;stroke-width:1.5003;stroke-linecap:square;stroke-miterlimit:10;"/>
  <path d="M204.691,59.101  c-3.94,4.709-9.555,9.219-14.816,12.193" id="path187" style="fill:none;stroke:#000000;stroke-width:1.5003;stroke-linecap:square;stroke-miterlimit:10;"/>
  <path d="M204.691,59.101  c-3.94,4.709-9.555,9.219-14.816,12.193" id="path189" style="fill:none;stroke:#000000;stroke-width:1.5003;stroke-linecap:square;stroke-miterlimit:10;"/>
  <path d="M189.875,71.294  c-3.599,1.358-5.346,4.738-5.229,8.709" id="path191" style="fill:none;stroke:#000000;stroke-width:1.5003;stroke-linecap:square;stroke-miterlimit:10;"/>
  <path d="M189.875,71.294  c-3.599,1.358-5.346,4.738-5.229,8.709" id="path193" style="fill:none;stroke:#000000;stroke-width:1.5003;stroke-linecap:square;stroke-miterlimit:10;"/>
  <path d="M198.591,62.584c-3.544,6.426-11.119,7.514-15.688,13.064  c-7.938-17.449-2.911-23.967,10.459-34.836C191.652,48.702,180.163,70.126,198.591,62.584" id="path195" style="fill-rule:evenodd;clip-rule:evenodd;fill:#302619;fill-opacity:1.0000000"/>
  <path d="M205.564,29.49  c-3.6,3.75-7.337,8.205-11.33,11.323" id="path197" style="fill:none;stroke:#000000;stroke-width:1.5003;stroke-linecap:square;stroke-miterlimit:10;"/>
  <path d="M205.564,29.49  c-3.6,3.75-7.337,8.205-11.33,11.323" id="path199" style="fill:none;stroke:#000000;stroke-width:1.5003;stroke-linecap:square;stroke-miterlimit:10;"/>
  <path d="M194.234,40.813  c-3.618,2.445-6.384,5.901-9.587,8.709" id="path201" style="fill:none;stroke:#000000;stroke-width:1.5003;stroke-linecap:square;stroke-miterlimit:10;"/>
  <path d="M194.234,40.813  c-3.618,2.445-6.384,5.901-9.587,8.709" id="path203" style="fill:none;stroke:#000000;stroke-width:1.5003;stroke-linecap:square;stroke-miterlimit:10;"/>
  <path d="M184.647,49.521  c-8.526,3.952-4.58,16.312-2.615,24.386" id="path205" style="fill:none;stroke:#000000;stroke-width:1.5003;stroke-linecap:square;stroke-miterlimit:10;"/>
  <path d="M184.647,49.521  c-8.526,3.952-4.58,16.312-2.615,24.386" id="path207" style="fill:none;stroke:#000000;stroke-width:1.5003;stroke-linecap:square;stroke-miterlimit:10;"/>
  <path d="M184.647,88.712  c-3.437-1.749-5.164-5.024-3.487-8.708" id="path209" style="fill:none;stroke:#000000;stroke-width:1.5003;stroke-linecap:square;stroke-miterlimit:10;"/>
  <path d="M184.647,88.712  c-3.437-1.749-5.164-5.024-3.487-8.708" id="path211" style="fill:none;stroke:#000000;stroke-width:1.5003;stroke-linecap:square;stroke-miterlimit:10;"/>
  <path d="M181.16,80.004  c1.33-1.483,2.277-3.35,2.615-5.226" id="path213" style="fill:none;stroke:#000000;stroke-width:1.5003;stroke-linecap:square;stroke-miterlimit:10;"/>
  <path d="M181.16,80.004  c1.33-1.483,2.277-3.35,2.615-5.226" id="path215" style="fill:none;stroke:#000000;stroke-width:1.5003;stroke-linecap:square;stroke-miterlimit:10;"/>
  <line id="line217" style="fill:none;stroke:#000000;stroke-width:1.5003;stroke-linecap:square;stroke-miterlimit:10;" x1="0.75" x2="0.75" y1="0.75" y2="0.75"/>
  <path d="M168.087,87.842  c-4.882,0.714-9.84,1.104-14.816,0.87" id="path219" style="fill:none;stroke:#000000;stroke-width:1.5003;stroke-linecap:square;stroke-miterlimit:10;"/>
  <path d="M168.087,87.842  c-4.882,0.714-9.84,1.104-14.816,0.87" id="path221" style="fill:none;stroke:#000000;stroke-width:1.5003;stroke-linecap:square;stroke-miterlimit:10;"/>
  <line id="line223" style="fill:none;stroke:#000000;stroke-width:1.5003;stroke-linecap:square;stroke-miterlimit:10;" x1="0.75" x2="0.75" y1="0.75" y2="0.75"/>
  <path d="M201.206,100.905  c-3.666-2.682-8.896-4.327-11.33-7.838" id="path225" style="fill:none;stroke:#000000;stroke-width:1.5003;stroke-linecap:square;stroke-miterlimit:10;"/>
  <path d="M201.206,100.905  c-3.666-2.682-8.896-4.327-11.33-7.838" id="path227" style="fill:none;stroke:#000000;stroke-width:1.5003;stroke-linecap:square;stroke-miterlimit:10;"/>
  <line id="line229" style="fill:none;stroke:#000000;stroke-width:1.5003;stroke-linecap:square;stroke-miterlimit:10;" x1="0.75" x2="0.75" y1="0.75" y2="0.75"/>
  <path d="M203.821,105.26  c-6.966-0.849-15.897,3.846-21.789,6.967" id="path231" style="fill:none;stroke:#000000;stroke-width:1.5003;stroke-linecap:square;stroke-miterlimit:10;"/>
  <path d="M203.821,105.26  c-6.966-0.849-15.897,3.846-21.789,6.967" id="path233" style="fill:none;stroke:#000000;stroke-width:1.5003;stroke-linecap:square;stroke-miterlimit:10;"/>
  <line id="line235" style="fill:none;stroke:#000000;stroke-width:1.5003;stroke-linecap:square;stroke-miterlimit:10;" x1="0.75" x2="0.75" y1="0.75" y2="0.75"/>
  <path d="M140.197,113.969c-0.649-15.851,14.325-10.651,23.532-7.838  C156.526,113.852,151.694,125.408,140.197,113.969" id="path237" style="fill-rule:evenodd;clip-rule:evenodd;fill:#FFFFFF;"/>
  <path d="M140.197,113.969  c-0.649-15.851,14.325-10.651,23.532-7.838C156.526,113.852,151.694,125.408,140.197,113.969" id="path239" style="fill:none;stroke:#000000;stroke-width:1.5003;stroke-linecap:square;stroke-miterlimit:10;"/>
  <path d="M140.197,113.969  c-0.649-15.851,14.325-10.651,23.532-7.838C156.526,113.852,151.694,125.408,140.197,113.969" id="path241" style="fill:none;stroke:#000000;stroke-width:1.5003;stroke-linecap:square;stroke-miterlimit:10;"/>
  <path d="M141.069,110.485c-4.127,8.414,11.846,9.066,16.56,4.354  C161.964,110.505,146.506,98.669,141.069,110.485" id="path243" style="fill-rule:evenodd;clip-rule:evenodd;"/>
  <path d="M141.069,110.485  c-4.127,8.414,11.846,9.066,16.56,4.354C161.964,110.505,146.506,98.669,141.069,110.485" id="path245" style="fill:none;stroke:#000000;stroke-width:1.5003;stroke-linecap:square;stroke-miterlimit:10;"/>
  <path d="M141.069,110.485  c-4.127,8.414,11.846,9.066,16.56,4.354C161.964,110.505,146.506,98.669,141.069,110.485" id="path247" style="fill:none;stroke:#000000;stroke-width:1.5003;stroke-linecap:square;stroke-miterlimit:10;"/>
  <path d="M151.528,107.873c-1.685,0.739-3.019-0.211-2.614,2.613  c1.446,0.086,2.909-0.04,4.357,0C153.775,108.06,152.35,108.882,151.528,107.873" id="path249" style="fill-rule:evenodd;clip-rule:evenodd;fill:#FFFFFF;"/>
  <path d="M168.087,104.389  c-2.142,2.162-4.932,2.346-7.843,0.871" id="path251" style="fill:none;stroke:#000000;stroke-width:1.5003;stroke-linecap:square;stroke-miterlimit:10;"/>
  <path d="M168.087,104.389  c-2.142,2.162-4.932,2.346-7.843,0.871" id="path253" style="fill:none;stroke:#000000;stroke-width:1.5003;stroke-linecap:square;stroke-miterlimit:10;"/>
  <path d="M160.244,105.26  c-2.915-1.26-5.727-2.109-8.716-2.613" id="path255" style="fill:none;stroke:#000000;stroke-width:1.5003;stroke-linecap:square;stroke-miterlimit:10;"/>
  <path d="M160.244,105.26  c-2.915-1.26-5.727-2.109-8.716-2.613" id="path257" style="fill:none;stroke:#000000;stroke-width:1.5003;stroke-linecap:square;stroke-miterlimit:10;"/>
  <path d="M151.528,102.647  c-3.063-0.529-5.821,0.354-7.844,2.613" id="path259" style="fill:none;stroke:#000000;stroke-width:1.5003;stroke-linecap:square;stroke-miterlimit:10;"/>
  <path d="M151.528,102.647  c-3.063-0.529-5.821,0.354-7.844,2.613" id="path261" style="fill:none;stroke:#000000;stroke-width:1.5003;stroke-linecap:square;stroke-miterlimit:10;"/>
  <path d="M143.684,105.26  c-1.853,1.891-3.028,4.278-3.486,6.967" id="path263" style="fill:none;stroke:#000000;stroke-width:1.5003;stroke-linecap:square;stroke-miterlimit:10;"/>
  <path d="M143.684,105.26  c-1.853,1.891-3.028,4.278-3.486,6.967" id="path265" style="fill:none;stroke:#000000;stroke-width:1.5003;stroke-linecap:square;stroke-miterlimit:10;"/>
  <path d="M140.197,112.228  c-0.735,2.485-2.217,4.533-4.357,6.097" id="path267" style="fill:none;stroke:#000000;stroke-width:1.5003;stroke-linecap:square;stroke-miterlimit:10;"/>
  <path d="M140.197,112.228  c-0.735,2.485-2.217,4.533-4.357,6.097" id="path269" style="fill:none;stroke:#000000;stroke-width:1.5003;stroke-linecap:square;stroke-miterlimit:10;"/>
  <path d="M163.729,103.518  c-4.25-3.459-9.161-5.953-14.816-5.226" id="path271" style="fill:none;stroke:#000000;stroke-width:1.5003;stroke-linecap:square;stroke-miterlimit:10;"/>
  <path d="M163.729,103.518  c-4.25-3.459-9.161-5.953-14.816-5.226" id="path273" style="fill:none;stroke:#000000;stroke-width:1.5003;stroke-linecap:square;stroke-miterlimit:10;"/>
  <path d="M148.914,98.292  c-3.571,0.342-5.971,2.698-6.973,6.097" id="path275" style="fill:none;stroke:#000000;stroke-width:1.5003;stroke-linecap:square;stroke-miterlimit:10;"/>
  <path d="M148.914,98.292  c-3.571,0.342-5.971,2.698-6.973,6.097" id="path277" style="fill:none;stroke:#000000;stroke-width:1.5003;stroke-linecap:square;stroke-miterlimit:10;"/>
  <path d="M168.087,109.615  c-1.355-0.329-2.572-0.072-3.487,0.871" id="path279" style="fill:none;stroke:#000000;stroke-width:1.5003;stroke-linecap:square;stroke-miterlimit:10;"/>
  <path d="M168.087,109.615  c-1.355-0.329-2.572-0.072-3.487,0.871" id="path281" style="fill:none;stroke:#000000;stroke-width:1.5003;stroke-linecap:square;stroke-miterlimit:10;"/>
  <path d="M164.6,110.485  c0.069,4.236-1.54,8.18-4.356,11.322" id="path283" style="fill:none;stroke:#000000;stroke-width:1.5003;stroke-linecap:square;stroke-miterlimit:10;"/>
  <path d="M164.6,110.485  c0.069,4.236-1.54,8.18-4.356,11.322" id="path285" style="fill:none;stroke:#000000;stroke-width:1.5003;stroke-linecap:square;stroke-miterlimit:10;"/>
  <path d="M160.244,121.807  c-5.706,2.371-12.95,2.87-18.303-0.871" id="path287" style="fill:none;stroke:#000000;stroke-width:1.5003;stroke-linecap:square;stroke-miterlimit:10;"/>
  <path d="M160.244,121.807  c-5.706,2.371-12.95,2.87-18.303-0.871" id="path289" style="fill:none;stroke:#000000;stroke-width:1.5003;stroke-linecap:square;stroke-miterlimit:10;"/>
  <path d="M138.454,123.549  c0-2.322,0-4.645,0-6.967" id="path291" style="fill:none;stroke:#000000;stroke-width:1.5003;stroke-linecap:square;stroke-miterlimit:10;"/>
  <path d="M138.454,123.549  c0-2.322,0-4.645,0-6.967" id="path293" style="fill:none;stroke:#000000;stroke-width:1.5003;stroke-linecap:square;stroke-miterlimit:10;"/>
  <path d="M177.674,93.067  c-0.907,8.691-9.368,17.364-13.074,24.386" id="path295" style="fill:none;stroke:#000000;stroke-width:1.5003;stroke-linecap:square;stroke-miterlimit:10;"/>
  <path d="M177.674,93.067  c-0.907,8.691-9.368,17.364-13.074,24.386" id="path297" style="fill:none;stroke:#000000;stroke-width:1.5003;stroke-linecap:square;stroke-miterlimit:10;"/>
  <path d="M127.125,110.485  c-0.381,4.063-2.489,8.039-6.101,10.451" id="path299" style="fill:none;stroke:#000000;stroke-width:1.5003;stroke-linecap:square;stroke-miterlimit:10;"/>
  <path d="M127.125,110.485  c-0.381,4.063-2.489,8.039-6.101,10.451" id="path301" style="fill:none;stroke:#000000;stroke-width:1.5003;stroke-linecap:square;stroke-miterlimit:10;"/>
  <path d="M129.739,127.033  c-12.24-0.573-25.708,12.568-33.99,20.031" id="path303" style="fill:none;stroke:#000000;stroke-width:1.5003;stroke-linecap:square;stroke-miterlimit:10;"/>
  <path d="M129.739,127.033  c-12.24-0.573-25.708,12.568-33.99,20.031" id="path305" style="fill:none;stroke:#000000;stroke-width:1.5003;stroke-linecap:square;stroke-miterlimit:10;"/>
  <path d="M162.857,134  c-0.95,4.764-4.239,7.906-8.715,9.58" id="path307" style="fill:none;stroke:#000000;stroke-width:1.5003;stroke-linecap:square;stroke-miterlimit:10;"/>
  <path d="M162.857,134  c-0.95,4.764-4.239,7.906-8.715,9.58" id="path309" style="fill:none;stroke:#000000;stroke-width:1.5003;stroke-linecap:square;stroke-miterlimit:10;"/>
  <path d="M154.143,143.581  c-8.188,2.023-9.287,7.02-13.945,13.064" id="path311" style="fill:none;stroke:#000000;stroke-width:1.5003;stroke-linecap:square;stroke-miterlimit:10;"/>
  <path d="M154.143,143.581  c-8.188,2.023-9.287,7.02-13.945,13.064" id="path313" style="fill:none;stroke:#000000;stroke-width:1.5003;stroke-linecap:square;stroke-miterlimit:10;"/>
  <path d="M176.802,337.794  c-20.144,4.467-38.302,9.511-56.649,19.16c-10.715,5.635-21.25,14.897-29.633,20.031" id="path315" style="fill:none;stroke:#000000;stroke-width:1.5003;stroke-linecap:square;stroke-miterlimit:10;"/>
  <path d="M176.802,337.794  c-20.144,4.467-38.302,9.511-56.649,19.16c-10.715,5.635-21.25,14.897-29.633,20.031" id="path317" style="fill:none;stroke:#000000;stroke-width:1.5003;stroke-linecap:square;stroke-miterlimit:10;"/>
  <line id="line319" style="fill:none;stroke:#000000;stroke-width:1.5003;stroke-linecap:square;stroke-miterlimit:10;" x1="0.75" x2="0.75" y1="0.75" y2="0.75"/>
  <path d="M385.102,248.961  c1.637,15.281-11.266,25.063-24.403,29.611" id="path321" style="fill:none;stroke:#000000;stroke-width:1.5003;stroke-linecap:square;stroke-miterlimit:10;"/>
  <path d="M385.102,248.961  c1.637,15.281-11.266,25.063-24.403,29.611" id="path323" style="fill:none;stroke:#000000;stroke-width:1.5003;stroke-linecap:square;stroke-miterlimit:10;"/>
  <path d="M390.331,266.38  c6.508,11.105,5.787,28.729-10.458,27.869" id="path325" style="fill:none;stroke:#000000;stroke-width:1.5003;stroke-linecap:square;stroke-miterlimit:10;"/>
  <path d="M390.331,266.38  c6.508,11.105,5.787,28.729-10.458,27.869" id="path327" style="fill:none;stroke:#000000;stroke-width:1.5003;stroke-linecap:square;stroke-miterlimit:10;"/>
  <path d="M379.873,294.25  c-11.111-3.474-20.135,0.499-28.761,6.967" id="path329" style="fill:none;stroke:#000000;stroke-width:1.5003;stroke-linecap:square;stroke-miterlimit:10;"/>
  <path d="M379.873,294.25  c-11.111-3.474-20.135,0.499-28.761,6.967" id="path331" style="fill:none;stroke:#000000;stroke-width:1.5003;stroke-linecap:square;stroke-miterlimit:10;"/>
  <path d="M351.112,301.216  c-9.268,10.907-22.867,7.058-34.862,6.097" id="path333" style="fill:none;stroke:#000000;stroke-width:1.5003;stroke-linecap:square;stroke-miterlimit:10;"/>
  <path d="M351.112,301.216  c-9.268,10.907-22.867,7.058-34.862,6.097" id="path335" style="fill:none;stroke:#000000;stroke-width:1.5003;stroke-linecap:square;stroke-miterlimit:10;"/>
  <path d="M316.25,307.313  c-11.061-6.396-30.375-5.246-40.091,3.483" id="path337" style="fill:none;stroke:#000000;stroke-width:1.5003;stroke-linecap:square;stroke-miterlimit:10;"/>
  <path d="M316.25,307.313  c-11.061-6.396-30.375-5.246-40.091,3.483" id="path339" style="fill:none;stroke:#000000;stroke-width:1.5003;stroke-linecap:square;stroke-miterlimit:10;"/>
  <path d="M332.809,301.216  c-16.468-6.207-61.725-19.506-75.824-3.483" id="path341" style="fill:none;stroke:#000000;stroke-width:1.5003;stroke-linecap:square;stroke-miterlimit:10;"/>
  <path d="M332.809,301.216  c-16.468-6.207-61.725-19.506-75.824-3.483" id="path343" style="fill:none;stroke:#000000;stroke-width:1.5003;stroke-linecap:square;stroke-miterlimit:10;"/>
  <path d="M345.011,295.992  c-19.431-8.511-39.864-28.171-63.623-20.902" id="path345" style="fill:none;stroke:#000000;stroke-width:1.5003;stroke-linecap:square;stroke-miterlimit:10;"/>
  <path d="M345.011,295.992  c-19.431-8.511-39.864-28.171-63.623-20.902" id="path347" style="fill:none;stroke:#000000;stroke-width:1.5003;stroke-linecap:square;stroke-miterlimit:10;"/>
  <path d="M338.91,272.476  c-19.868-5.85-43.844-10.2-64.494-4.354" id="path349" style="fill:none;stroke:#000000;stroke-width:1.5003;stroke-linecap:square;stroke-miterlimit:10;"/>
  <path d="M338.91,272.476  c-19.868-5.85-43.844-10.2-64.494-4.354" id="path351" style="fill:none;stroke:#000000;stroke-width:1.5003;stroke-linecap:square;stroke-miterlimit:10;"/>
  <line id="line353" style="fill:none;stroke:#000000;stroke-width:1.5003;stroke-linecap:square;stroke-miterlimit:10;" x1="0.75" x2="0.75" y1="0.75" y2="0.75"/>
  <path d="M392.945,308.184  c-8.868,12.852-25.218,19.437-40.962,18.289" id="path355" style="fill:none;stroke:#000000;stroke-width:1.5003;stroke-linecap:square;stroke-miterlimit:10;"/>
  <path d="M392.945,308.184  c-8.868,12.852-25.218,19.437-40.962,18.289" id="path357" style="fill:none;stroke:#000000;stroke-width:1.5003;stroke-linecap:square;stroke-miterlimit:10;"/>
  <path d="M379.873,330.828  c-19.074,9.961-42.762,9.287-62.751,3.483" id="path359" style="fill:none;stroke:#000000;stroke-width:1.5003;stroke-linecap:square;stroke-miterlimit:10;"/>
  <path d="M379.873,330.828  c-19.074,9.961-42.762,9.287-62.751,3.483" id="path361" style="fill:none;stroke:#000000;stroke-width:1.5003;stroke-linecap:square;stroke-miterlimit:10;"/>
  <path d="M373.772,295.12  c-12.429,3.077-17.058,15.768-28.761,20.031" id="path363" style="fill:none;stroke:#000000;stroke-width:1.5003;stroke-linecap:square;stroke-miterlimit:10;"/>
  <path d="M373.772,295.12  c-12.429,3.077-17.058,15.768-28.761,20.031" id="path365" style="fill:none;stroke:#000000;stroke-width:1.5003;stroke-linecap:square;stroke-miterlimit:10;"/>
  <path d="M329.323,203.673  c19.905,9.897,15.154,25.772,7.845,40.934" id="path367" style="fill:none;stroke:#000000;stroke-width:1.5003;stroke-linecap:square;stroke-miterlimit:10;"/>
  <path d="M329.323,203.673  c19.905,9.897,15.154,25.772,7.845,40.934" id="path369" style="fill:none;stroke:#000000;stroke-width:1.5003;stroke-linecap:square;stroke-miterlimit:10;"/>
  <path d="M230.839,39.07  c21.671,8.752,7.596,47.453-5.23,57.48" id="path371" style="fill:none;stroke:#000000;stroke-width:1.5003;stroke-linecap:square;stroke-miterlimit:10;"/>
  <path d="M230.839,39.07  c21.671,8.752,7.596,47.453-5.23,57.48" id="path373" style="fill:none;stroke:#000000;stroke-width:1.5003;stroke-linecap:square;stroke-miterlimit:10;"/>
  <path d="M209.922,64.327  c6.323,9.38,3.174,19.956-7.845,23.516" id="path375" style="fill:none;stroke:#000000;stroke-width:1.5003;stroke-linecap:square;stroke-miterlimit:10;"/>
  <path d="M209.922,64.327  c6.323,9.38,3.174,19.956-7.845,23.516" id="path377" style="fill:none;stroke:#000000;stroke-width:1.5003;stroke-linecap:square;stroke-miterlimit:10;"/>
  <line id="line379" style="fill:none;stroke:#000000;stroke-width:1.5003;stroke-linecap:square;stroke-miterlimit:10;" x1="0.75" x2="0.75" y1="0.75" y2="0.75"/>
  <path d="M225.609,64.327  c4.424,6.631,6.852,13.03,9.587,20.031" id="path381" style="fill:none;stroke:#000000;stroke-width:1.5003;stroke-linecap:square;stroke-miterlimit:10;"/>
  <path d="M225.609,64.327  c4.424,6.631,6.852,13.03,9.587,20.031" id="path383" style="fill:none;stroke:#000000;stroke-width:1.5003;stroke-linecap:square;stroke-miterlimit:10;"/>
  <line id="line385" style="fill:none;stroke:#000000;stroke-width:1.5003;stroke-linecap:square;stroke-miterlimit:10;" x1="0.75" x2="0.75" y1="0.75" y2="0.75"/>
  <path d="M254.37,71.294  c10.705,10.128-7.063,25.78-17.43,26.998" id="path387" style="fill:none;stroke:#000000;stroke-width:1.5003;stroke-linecap:square;stroke-miterlimit:10;"/>
  <path d="M254.37,71.294  c10.705,10.128-7.063,25.78-17.43,26.998" id="path389" style="fill:none;stroke:#000000;stroke-width:1.5003;stroke-linecap:square;stroke-miterlimit:10;"/>
  <path d="M271.801,77.391  c9.974,15.434-3.697,23.293-16.559,27.87" id="path391" style="fill:none;stroke:#000000;stroke-width:1.5003;stroke-linecap:square;stroke-miterlimit:10;"/>
  <path d="M271.801,77.391  c9.974,15.434-3.697,23.293-16.559,27.87" id="path393" style="fill:none;stroke:#000000;stroke-width:1.5003;stroke-linecap:square;stroke-miterlimit:10;"/>
  <path d="M284.002,92.196  c0.892,12.053-4.752,19.484-16.559,21.772" id="path395" style="fill:none;stroke:#000000;stroke-width:1.5003;stroke-linecap:square;stroke-miterlimit:10;"/>
  <path d="M284.002,92.196  c0.892,12.053-4.752,19.484-16.559,21.772" id="path397" style="fill:none;stroke:#000000;stroke-width:1.5003;stroke-linecap:square;stroke-miterlimit:10;"/>
  <path d="M164.6,80.004  c-12.12-13.54-56.424-27.015-67.98-6.097" id="path399" style="fill:none;stroke:#000000;stroke-width:1.5003;stroke-linecap:square;stroke-miterlimit:10;"/>
  <path d="M164.6,80.004  c-12.12-13.54-56.424-27.015-67.98-6.097" id="path401" style="fill:none;stroke:#000000;stroke-width:1.5003;stroke-linecap:square;stroke-miterlimit:10;"/>
  <path d="M103.593,85.229  c14.879-10.092,38.462-20.372,54.036-4.354" id="path403" style="fill:none;stroke:#000000;stroke-width:1.5003;stroke-linecap:square;stroke-miterlimit:10;"/>
  <path d="M103.593,85.229  c14.879-10.092,38.462-20.372,54.036-4.354" id="path405" style="fill:none;stroke:#000000;stroke-width:1.5003;stroke-linecap:square;stroke-miterlimit:10;"/>
  <path d="M152.398,87.842  c-15.654-8.697-26.3-11.099-40.091,1.741" id="path407" style="fill:none;stroke:#000000;stroke-width:1.5003;stroke-linecap:square;stroke-miterlimit:10;"/>
  <path d="M152.398,87.842  c-15.654-8.697-26.3-11.099-40.091,1.741" id="path409" style="fill:none;stroke:#000000;stroke-width:1.5003;stroke-linecap:square;stroke-miterlimit:10;"/>
  <path d="M130.611,55.618  c-11.159-1.864-50.844-6.098-51.421,11.322" id="path411" style="fill:none;stroke:#000000;stroke-width:1.5003;stroke-linecap:square;stroke-miterlimit:10;"/>
  <path d="M130.611,55.618  c-11.159-1.864-50.844-6.098-51.421,11.322" id="path413" style="fill:none;stroke:#000000;stroke-width:1.5003;stroke-linecap:square;stroke-miterlimit:10;"/>
  <path d="M79.189,66.94  c-0.547,14.512,5.844,48.139-18.303,47.029" id="path415" style="fill:none;stroke:#000000;stroke-width:1.5003;stroke-linecap:square;stroke-miterlimit:10;"/>
  <path d="M79.189,66.94  c-0.547,14.512,5.844,48.139-18.303,47.029" id="path417" style="fill:none;stroke:#000000;stroke-width:1.5003;stroke-linecap:square;stroke-miterlimit:10;"/>
  <path d="M82.676,70.423  c7.729,8.286,27.388,44.856,6.101,49.642" id="path419" style="fill:none;stroke:#000000;stroke-width:1.5003;stroke-linecap:square;stroke-miterlimit:10;"/>
  <path d="M82.676,70.423  c7.729,8.286,27.388,44.856,6.101,49.642" id="path421" style="fill:none;stroke:#000000;stroke-width:1.5003;stroke-linecap:square;stroke-miterlimit:10;"/>
  <path d="M88.776,120.065  c-6.833,1.972-18.418,2.129-25.275,0" id="path423" style="fill:none;stroke:#000000;stroke-width:1.5003;stroke-linecap:square;stroke-miterlimit:10;"/>
  <path d="M88.776,120.065  c-6.833,1.972-18.418,2.129-25.275,0" id="path425" style="fill:none;stroke:#000000;stroke-width:1.5003;stroke-linecap:square;stroke-miterlimit:10;"/>
  <line id="line427" style="fill:none;stroke:#000000;stroke-width:1.5003;stroke-linecap:square;stroke-miterlimit:10;" x1="0.75" x2="0.75" y1="0.75" y2="0.75"/>
  <path d="M317.122,31.232  c-1.615,7.705-5.688,15.107-6.972,22.644c-1.853,10.875,3.248,17.475,6.972,26.999" id="path429" style="fill:none;stroke:#000000;stroke-width:1.5003;stroke-linecap:square;stroke-miterlimit:10;"/>
  <path d="M317.122,31.232  c-1.615,7.705-5.688,15.107-6.972,22.644c-1.853,10.875,3.248,17.475,6.972,26.999" id="path431" style="fill:none;stroke:#000000;stroke-width:1.5003;stroke-linecap:square;stroke-miterlimit:10;"/>
  <path d="M317.122,80.875  c14.776,17.146,13.644,51.429-6.972,63.577" id="path433" style="fill:none;stroke:#000000;stroke-width:1.5003;stroke-linecap:square;stroke-miterlimit:10;"/>
  <path d="M317.122,80.875  c14.776,17.146,13.644,51.429-6.972,63.577" id="path435" style="fill:none;stroke:#000000;stroke-width:1.5003;stroke-linecap:square;stroke-miterlimit:10;"/>
  <path d="M315.378,90.455  c-14.869-8.847-33.691-47.434-17.43-62.706" id="path437" style="fill:none;stroke:#000000;stroke-width:1.5003;stroke-linecap:square;stroke-miterlimit:10;"/>
  <path d="M315.378,90.455  c-14.869-8.847-33.691-47.434-17.43-62.706" id="path439" style="fill:none;stroke:#000000;stroke-width:1.5003;stroke-linecap:square;stroke-miterlimit:10;"/>
  <path d="M297.949,27.749  c4.961-6.426,15.504-17.38,23.53-13.064" id="path441" style="fill:none;stroke:#000000;stroke-width:1.5003;stroke-linecap:square;stroke-miterlimit:10;"/>
  <path d="M297.949,27.749  c4.961-6.426,15.504-17.38,23.53-13.064" id="path443" style="fill:none;stroke:#000000;stroke-width:1.5003;stroke-linecap:square;stroke-miterlimit:10;"/>
  <line id="line445" style="fill:none;stroke:#000000;stroke-width:1.5003;stroke-linecap:square;stroke-miterlimit:10;" x1="0.75" x2="0.75" y1="0.75" y2="0.75"/>
  <path d="M351.112,76.52  c14.751,30.623,2.776,79.185-26.146,96.672" id="path447" style="fill:none;stroke:#000000;stroke-width:1.5003;stroke-linecap:square;stroke-miterlimit:10;"/>
  <line id="line449" style="fill:none;stroke:#000000;stroke-width:1.5003;stroke-linecap:square;stroke-miterlimit:10;" x1="324.965" x2="323.222" y1="173.191" y2="174.063"/>
  <path d="M351.112,76.52  c13.407,27.834,4.545,85.543-27.89,97.543" id="path451" style="fill:none;stroke:#000000;stroke-width:1.5003;stroke-linecap:square;stroke-miterlimit:10;"/>
  <path d="M330.195,188.868  c19.34-3.399,39.729,3.397,38.347,26.126" id="path453" style="fill:none;stroke:#000000;stroke-width:1.5003;stroke-linecap:square;stroke-miterlimit:10;"/>
  <path d="M330.195,188.868  c19.34-3.399,39.729,3.397,38.347,26.126" id="path455" style="fill:none;stroke:#000000;stroke-width:1.5003;stroke-linecap:square;stroke-miterlimit:10;"/>
  <path d="M373.772,360.438  c-16.964,0-44.481-2.851-58.394-13.063" id="path457" style="fill:none;stroke:#000000;stroke-width:1.5003;stroke-linecap:square;stroke-miterlimit:10;"/>
  <path d="M373.772,360.438  c-16.964,0-44.481-2.851-58.394-13.063" id="path459" style="fill:none;stroke:#000000;stroke-width:1.5003;stroke-linecap:square;stroke-miterlimit:10;"/>
  <path d="M315.378,347.375  c-14.873-8.091-45.973-5.992-54.035,9.58" id="path461" style="fill:none;stroke:#000000;stroke-width:1.5003;stroke-linecap:square;stroke-miterlimit:10;"/>
  <path d="M315.378,347.375  c-14.873-8.091-45.973-5.992-54.035,9.58" id="path463" style="fill:none;stroke:#000000;stroke-width:1.5003;stroke-linecap:square;stroke-miterlimit:10;"/>
  <path d="M396.431,184.513  c1.784-8.481,6.479-36.971-11.329-26.128" id="path465" style="fill:none;stroke:#000000;stroke-width:1.5003;stroke-linecap:square;stroke-miterlimit:10;"/>
  <path d="M396.431,184.513  c1.784-8.481,6.479-36.971-11.329-26.128" id="path467" style="fill:none;stroke:#000000;stroke-width:1.5003;stroke-linecap:square;stroke-miterlimit:10;"/>
  <path d="M385.102,158.385  c-11.381,3.727-21.876,12.644-33.119,17.419" id="path469" style="fill:none;stroke:#000000;stroke-width:1.5003;stroke-linecap:square;stroke-miterlimit:10;"/>
  <path d="M385.102,158.385  c-11.381,3.727-21.876,12.644-33.119,17.419" id="path471" style="fill:none;stroke:#000000;stroke-width:1.5003;stroke-linecap:square;stroke-miterlimit:10;"/>
  <path d="M351.983,175.805  c-8.747,4.656-23.374,4.814-33.118,6.096" id="path473" style="fill:none;stroke:#000000;stroke-width:1.5003;stroke-linecap:square;stroke-miterlimit:10;"/>
  <path d="M351.983,175.805  c-8.747,4.656-23.374,4.814-33.118,6.096" id="path475" style="fill:none;stroke:#000000;stroke-width:1.5003;stroke-linecap:square;stroke-miterlimit:10;"/>
  <line id="line477" style="fill:none;stroke:#000000;stroke-width:1.5003;stroke-linecap:square;stroke-miterlimit:10;" x1="0.75" x2="0.75" y1="0.75" y2="0.75"/>
  <path d="M292.718,83.487  c8.824,14.186,20.588,40.665,0,51.384" id="path479" style="fill:none;stroke:#000000;stroke-width:1.5003;stroke-linecap:square;stroke-miterlimit:10;"/>
  <path d="M292.718,83.487  c8.824,14.186,20.588,40.665,0,51.384" id="path481" style="fill:none;stroke:#000000;stroke-width:1.5003;stroke-linecap:square;stroke-miterlimit:10;"/>
</svg>
