<?xml version="1.0" encoding="UTF-8" standalone="no"?>
<!DOCTYPE svg PUBLIC "-//W3C//DTD SVG 20010904//EN"
"http://www.w3.org/TR/2001/REC-SVG-20010904/DTD/svg10.dtd">
<!-- Created with Inkscape (http://www.inkscape.org/) --><svg height="80.000000pt" id="svg1" inkscape:version="0.38.1" sodipodi:docbase="/home/nicu/Desktop/weather" sodipodi:docname="cloudy02.svg" sodipodi:version="0.32" width="80.000000pt" xmlns="http://www.w3.org/2000/svg" xmlns:inkscape="http://www.inkscape.org/namespaces/inkscape" xmlns:sodipodi="http://sodipodi.sourceforge.net/DTD/sodipodi-0.dtd" xmlns:xlink="http://www.w3.org/1999/xlink">
  <metadata>
    <rdf:RDF xmlns:cc="http://web.resource.org/cc/" xmlns:dc="http://purl.org/dc/elements/1.1/" xmlns:rdf="http://www.w3.org/1999/02/22-rdf-syntax-ns#">
      <cc:Work rdf:about="">
        <dc:title>Clipart by Nicu Buculei - w_cloud</dc:title>
        <dc:description></dc:description>
        <dc:subject>
          <rdf:Bag>
            <rdf:li></rdf:li>
            <rdf:li>weather</rdf:li>
            <rdf:li>signs_and_symbols</rdf:li>
          </rdf:Bag>
        </dc:subject>
        <dc:publisher>
          <cc:Agent rdf:about="http://www.openclipart.org">
            <dc:title>Nicu Buculei</dc:title>
          </cc:Agent>
        </dc:publisher>
        <dc:creator>
          <cc:Agent>
            <dc:title>Nicu Buculei</dc:title>
          </cc:Agent>
        </dc:creator>
        <dc:rights>
          <cc:Agent>
            <dc:title>Nicu Buculei</dc:title>
          </cc:Agent>
        </dc:rights>
        <dc:date></dc:date>
        <dc:format>image/svg+xml</dc:format>
        <dc:type rdf:resource="http://purl.org/dc/dcmitype/StillImage"/>
        <cc:license rdf:resource="http://web.resource.org/cc/PublicDomain"/>
        <dc:language>en</dc:language>
      </cc:Work>
      <cc:License rdf:about="http://web.resource.org/cc/PublicDomain">
        <cc:permits rdf:resource="http://web.resource.org/cc/Reproduction"/>
        <cc:permits rdf:resource="http://web.resource.org/cc/Distribution"/>
        <cc:permits rdf:resource="http://web.resource.org/cc/DerivativeWorks"/>
      </cc:License>
    </rdf:RDF>
  </metadata>
  <defs id="defs3">
    <linearGradient id="linearGradient893">
      <stop id="stop894" offset="0.0000000" style="stop-color:#f3f3f3;stop-opacity:1.0000000;"/>
      <stop id="stop895" offset="0.37650406" style="stop-color:#ffffff;stop-opacity:1.0000000;"/>
      <stop id="stop896" offset="1.0000000" style="stop-color:#e6ffff;stop-opacity:1.0000000;"/>
    </linearGradient>
    <linearGradient id="linearGradient912">
      <stop id="stop913" offset="0.0000000" style="stop-color:#ffffff;stop-opacity:0.49803922;"/>
      <stop id="stop914" offset="1.0000000" style="stop-color:#ffffff;stop-opacity:0.0000000;"/>
    </linearGradient>
    <radialGradient cx="0.46268654" cy="0.43750003" fx="0.46268654" fy="0.43750003" id="radialGradient915" r="0.52990836" xlink:href="#linearGradient912"/>
    <linearGradient id="linearGradient854" x1="0.90873015" x2="-0.47619048" xlink:href="#linearGradient893" y1="0.63281250" y2="-0.14062500"/>
  </defs>
  <sodipodi:namedview bordercolor="#666666" borderopacity="1.0" id="base" inkscape:cx="34.249854" inkscape:cy="31.909441" inkscape:pageopacity="0.0" inkscape:pageshadow="2" inkscape:window-height="630" inkscape:window-width="809" inkscape:window-x="39" inkscape:window-y="118" inkscape:zoom="2.1435469" pagecolor="#ffffff"/>
  <g id="g945" transform="matrix(1.172736,0.000000,0.000000,1.181007,15.82771,-15.17830)">
    <path d="M 68.562931,51.180321 C 68.562931,63.069348 58.913865,72.718414 47.024837,72.718414 C 35.135810,72.718414 25.486744,63.069348 25.486744,51.180321 C 25.486744,39.291293 35.135810,29.642227 47.024837,29.642227 C 58.913865,29.642227 68.562931,39.291293 68.562931,51.180321 z " id="path921" style="fill:#ffa400;fill-opacity:0.98076922;fill-rule:evenodd;stroke-width:1.3084073;stroke-linejoin:round;" transform="matrix(0.964932,0.000000,0.000000,0.945883,4.527500,-0.755837)"/>
    <path d="M 58.218067,41.781933 C 58.218067,48.389411 52.611721,53.752002 45.703903,53.752002 C 38.796084,53.752002 33.189739,48.389411 33.189739,41.781933 C 33.189739,35.174454 38.796084,29.811863 45.703903,29.811863 C 52.611721,29.811863 58.218067,35.174454 58.218067,41.781933 z " id="path922" style="fill:url(#radialGradient915);fill-opacity:1;fill-rule:evenodd;stroke-width:1.0000000pt;"/>
  </g>
  <path d="M 43.380091,44.420842 C 42.467501,39.737163 34.750718,32.872550 30.128582,34.155878 C 24.340286,35.822324 21.674087,41.210811 25.810968,45.272794 C 22.150838,42.690274 13.018666,40.468234 8.0688521,49.465599 C 4.9962416,56.168153 13.697347,60.361433 16.359204,59.865713 C 11.265781,59.227031 -1.2833202,70.149352 4.3042558,75.712992 C 11.189016,81.368269 26.959547,75.252891 27.652012,70.529312 C 26.115634,77.436652 43.638064,78.762739 44.071540,69.162627 C 42.820943,73.663575 55.323251,78.453991 61.267009,76.621291 C 68.716382,74.726390 67.820688,68.329337 66.939237,66.378761 C 72.669090,67.061529 81.640679,68.754694 85.614774,62.615137 C 88.384838,56.813344 86.737963,50.333165 83.172071,48.294808 C 79.286737,46.367360 75.041432,46.467804 70.089874,49.732613 C 74.018884,47.066365 71.595639,38.468549 67.657913,36.579769 C 63.170152,34.434599 57.778395,34.015936 52.935823,35.058941 C 48.945637,35.725256 42.630940,39.233496 43.380091,44.420842 z " id="path853" sodipodi:nodetypes="cccccccccccccccc" style="fill:url(#linearGradient854);fill-rule:evenodd;stroke:#000000;stroke-width:1.1226674;stroke-linejoin:round;"/>
</svg>
