<?xml version="1.0" encoding="UTF-8" standalone="no"?>
<!-- Generator: Adobe Illustrator 12.0.0, SVG Export Plug-In . SVG Version: 6.00 Build 51448)  --><svg height="186.438" id="Layer_1" inkscape:version="0.40+cvs" sodipodi:docbase="F:\openclip\svg da inviare" sodipodi:docname="insetto.svg" sodipodi:version="0.32" style="overflow:visible;enable-background:new 0 0 270.269 186.438;" version="1.1" viewBox="0 0 270.269 186.438" width="270.269" xml:space="preserve" xmlns="http://www.w3.org/2000/svg" xmlns:cc="http://web.resource.org/cc/" xmlns:dc="http://purl.org/dc/elements/1.1/" xmlns:inkscape="http://www.inkscape.org/namespaces/inkscape" xmlns:rdf="http://www.w3.org/1999/02/22-rdf-syntax-ns#" xmlns:sodipodi="http://inkscape.sourceforge.net/DTD/sodipodi-0.dtd" xmlns:svg="http://www.w3.org/2000/svg" xmlns:xml="http://www.w3.org/XML/1998/namespace"><metadata><rdf:RDF xmlns:cc="http://web.resource.org/cc/" xmlns:dc="http://purl.org/dc/elements/1.1/" xmlns:rdf="http://www.w3.org/1999/02/22-rdf-syntax-ns#"><cc:Work rdf:about=""><dc:title>insetto</dc:title><dc:description></dc:description><dc:subject><rdf:Bag><rdf:li>architetto francesco rollandin</rdf:li><rdf:li>insect</rdf:li></rdf:Bag></dc:subject><dc:publisher><cc:Agent rdf:about="http://www.openclipart.org/"><dc:title>Open Clip Art Library</dc:title></cc:Agent></dc:publisher><dc:creator><cc:Agent><dc:title>Architetto Francesco Rollandin</dc:title></cc:Agent></dc:creator><dc:rights><cc:Agent><dc:title>Architetto Francesco Rollandin</dc:title></cc:Agent></dc:rights><dc:date></dc:date><dc:format>image/svg+xml</dc:format><dc:type rdf:resource="http://purl.org/dc/dcmitype/StillImage"/><cc:license rdf:resource="http://web.resource.org/cc/PublicDomain"/><dc:language>en</dc:language></cc:Work><cc:License rdf:about="http://web.resource.org/cc/PublicDomain"><cc:permits rdf:resource="http://web.resource.org/cc/Reproduction"/><cc:permits rdf:resource="http://web.resource.org/cc/Distribution"/><cc:permits rdf:resource="http://web.resource.org/cc/DerivativeWorks"/></cc:License></rdf:RDF></metadata>
<defs id="defs38"></defs>
<sodipodi:namedview bordercolor="#666666" borderopacity="1.0" id="base" inkscape:current-layer="Layer_1" inkscape:cx="135.13451" inkscape:cy="93.219002" inkscape:pageopacity="0.0" inkscape:pageshadow="2" inkscape:window-height="540" inkscape:window-width="640" inkscape:window-x="110" inkscape:window-y="145" inkscape:zoom="2.0274836" pagecolor="#ffffff"></sodipodi:namedview>

<path d="M73.707,1.969c16.472,2.143,33.24,4.04,49.327,8.305  c8.379,2.221,16.937,4.214,25.179,6.909c3.869,1.266,9.195,2.311,12.625,4.551c1.456,0.951,2.158,1.747,3.799,2.534  c1.71,0.82,3.326,1.869,4.813,3.041c0.512-1.656,0.829-3.615,2.099-4.885c2.57-2.574,3.04,1.008,5.246,0.641  c3.607-0.6,6.867,4.721,9.245,7.032c2.172,2.111,2.014,1.903,4.603,1.328c2.014-0.447,4.025-0.891,6.034-1.362  c5.068-1.189,9.777-1.803,14.972-2.281c8.495-0.781,17.353,0.863,25.553,2.996c9.304,2.42,18.013,4.777,25.671,10.842  c2.441,1.934,4.858,4.331,6.538,6.955c2.357,3.683-0.632,7.09-2.978,10.152c-0.869,1.135-2.79,2.32-4.025,3.044  c-1.145,0.671-3.639,0.892-4.338,2.031c-1.049,1.708-2.833,6.517-4.588,7.115c-7.619,2.595-14.303,2.647-22.017,0.184  c-2.884-0.92-6.348-2.854-7.775-5.711c-1.088-2.175-3.474-5.797-1.683-8.053c0.937,8.726,6.651,13.1,15.071,14.44  c3.834,0.61,7.591,0.373,11.397-0.319c4.026-0.732,6.193-3.528,7.6-7.28c-6.2,0.528-12.515,0.624-18.448-1.637  c-3.047-1.161-5.941-2.145-8.147-4.698c-0.869-1.006-3.341-4.451-1.268-5.195c-0.921,9.167,14.88,10.871,21.063,11.365  c2.063,0.165,4.419-0.66,6.449-1.018c1.388-0.245,1.244-4.075,0.905-5.149c-1.355-4.293-4.542-7.081-8.153-9.632  c-3.292-2.326-7.46-5.506-11.27-6.841c-4.139-1.451-9.416-1.617-13.764-2.238c-8.363-1.196-17.485-2.851-25.94-2.513  c-1.515,0.061-4.709-0.362-4.794,1.335c-0.116,2.329-0.779,3.958-2.09,5.866c-0.843,1.228-2.434,2.299-3.944,2.048  c-1.904-0.317-2.115,2.153-2.935,3.893c-0.792,1.682-1.805,3.021-3.396,4.025c0.005-0.003-0.269,0.79-0.317,0.887  c-0.116,0.233-2.158-0.778-2.47-1.014c-3.213-2.425-4.571-7.251-4.939-11.022c-1.898,2.85-3.839,3.805-7.219,4.181  c4.494,2.697,8.514,6.223,13.042,8.813c1.361,0.778,4.97,3.889,6.589,3.857c0.959-0.019,3.177-2.45,2.658,0.253  c5.007-0.963,13.072-2.567,16.274-6.842c0.199-0.266,2.196-5.118,2.912-2.977c0.73,2.187,2.424-1.304,2.312-2.419  c-0.122-1.218-2.454-5.011,0.029-5.272c2.535-0.267,6.136-2.751,8.361-0.86c2.096,1.78,2.061,6.254-0.507,7.538  c-2.823,1.412,0.321-2.536,0.126-4.118c-1.186,0.559-1.718-0.248-2.785-0.253c-1.022-0.005-2.073,0.546-3.166,0.507  c0.381,1.903,1.229,11.774-2.912,8.996c0.152,2.532-11.562,5.004-13.909,5.901c-2.272,0.869-4.907,1.564-6.852,3.023  c-0.842,0.632-5.899,2.733-1.782,3.238c-0.689,1.172-2.468,0.247-3.411-0.343c-1.532-0.958-1.309-1.632-1.908-3.141  c-1.057-2.661-5.276-6.372-7.514-8.122c-3.016-2.358-6.38-3.916-9.458-6.005c-1.167-0.792-2.206-1.892-3.545-2.787  c-1.145-0.766-2.834,2.621-3.158,3.484c-1.369,3.652-2.806,7.264-4.096,10.949c-0.816,2.334-0.977,2.875,1.301,3.938  c1.795,0.838,3.743,1.043,5.656,1.469c3.42,0.76,6.925,1.752,10.119,3.205c1.961,0.892,3.916,1.792,5.866,2.707  c1.097,0.514,2.317,0.397,3.308,0.981c0.563-1.602,1.427-0.248,2.534-0.063c1.284,0.213,2.669,0.063,3.969,0.063  c2.546,0,5.141-0.59,7.683-0.76c1.105-0.074,2.484,0.172,3.545-0.127c0.711-0.2,0.777-1.386,1.71-1.014  c2.466,0.985-0.277-2.625-0.444-3.041c2.539-0.546,4.343,2.75,2.471,4.625c-0.822,0.823-1.081,3.091-2.545,2.945  c-1.506-0.151-2.838-0.925-4.357-1.021c-3.556-0.222-6.723-0.178-10.156,0.819c-1.541,0.448-2.671,1.295-4.021,2.178  c-0.366,0.239-0.527,1.567-1.021,1.604c-1.132,0.084-0.912-1.441-1.518-2.02c-1.313-1.256-2.535-2.495-4.035-3.516  c-2.675-1.819-5.947-3.672-9.091-4.53c-3.079-0.84-6.173-1.451-9.32-1.976c-2.894-0.482-4.008-0.029-1.872,2.285  c-1.342,0.64-5.223-1.928-5.824-3.167c-1.022-2.105,1.104-2.758,2.152-4.054c1.116-1.378,1.787-3.363,2.533-4.941  c1.664-3.52,2.992-6.894,3.877-10.686c0.141-0.604-0.789-0.869-0.646-1.52c0.163-0.738,0.69-1.411,0.821-2.111  c0.269-1.437,0.298-2.094-1.014-3.041c-0.403,1.561-3.006,2.419-4.243,3.369c-1.962,1.504-3.923,3.008-5.885,4.513  c-2.802,2.149-7.824,4.8-9.375,8.082c-0.435,0.919-0.081,1.755-0.38,2.534c-0.331,0.861-1.326,1.447-1.646,2.281  c-0.858,2.229,0.632,4.05,1.661,6.11c1.764,3.529,3.376,7.136,5.022,10.721c0.969,2.108,1.922,4.181,2.724,6.357  c0.718,1.95,0.744,4.205,2.02,5.905c0.687,0.917,0.716,2.188,1.863,2.365c2.38,0.367,4.735,0.756,7.036,1.492  c2.164,0.693,4.356,1.068,6.542,1.666c1.895,0.518,4.501,0.363,5.554,1.683c1.55,1.94,2.603,1.484,4.938,0.822  c2.209-0.626,4.271-1.357,6.523-1.858c1.219-0.271,5.143-1.023,6.331-0.548c2.082,0.833,1.843,2.794,3.356,3.547  c-0.32-0.159,1.407-0.382,1.393-0.38c0.467-0.047,0.26,0.984,1.141,0.634c2.103-0.838,0.408-3.707-0.633-4.561  c2.272-0.479,3.472,3.223,2.531,4.94c-0.526,0.961-2.299,1.59-3.293,1.774c-2.149,0.399-2.413-0.675-4.115-1.648  c-2.893-1.653-5.892-2.136-9.107-1.247c-2.406,0.664-7.688,1.779-8.02,4.753c-0.333,2.985-2.333-1.243-2.419-1.32  c-2.427-2.186-5.004-4.783-8.291-5.649c-3.077-0.81-6.494-1.956-9.712-1.983c-0.908-0.008-2.715,0.115-3.547,0.507  c-1.206,0.568-1.45,1.898-2.658,2.407c-1.378-2.627-0.231-6.575,0.462-9.21c0.791-3.002-1.777-7.447-2.839-10.101  c-2.744-6.858-6.964-13.075-10.668-19.458c-0.839,0.496-1.25,1.32-2.026,1.901c-0.577-2.904,2.345-4.279,4.433-5.448  c2.911-1.629,5.371-3.93,8.157-5.767c3.168-2.089,6.319-4.201,9.465-6.323c1.533-1.034,5.392-3.47,5.555-5.394  c-1.124,1.569-2.983,1.754-4.564,2.668c-2.096,1.211-4.19,2.422-6.286,3.633c-3.995,2.31-7.982,4.639-12.111,6.704  c-3.19,1.595-6.398,3.28-8.067,6.125c-2.19,3.734-2.62,8.794-3.466,13.031c-0.885,4.431-1.652,8.877-2.291,13.35  c-0.123,0.857-0.621,2.278-0.448,3.139c0.183,0.91,1.511,1.769,1.52,2.534c0.021,2.015-2.737,2.408-2.852,4.478  c-0.256,4.612,0.066,9.027,0.605,13.609c0.25,2.118,0.452,2.59,1.487,4.148c0.95,1.432,4.246,2.204,5.83,2.521  c1.681,0.337,4.398-0.382,5.314,1.216c0.375,0.653,0.017,1.938,0.094,2.712c0.099,0.985,1.22,1.811,1.299,2.608  c0.184,1.854-2.582,3.342-0.887,5.068c1.959,1.995,2.775-0.985,3.926-1.9c1,2.175-1.499,3.637-3.419,3.168  c-1.41-0.344-2.565-1.416-2.85-2.852c-0.167-0.839,0.709-1.554,0.697-1.836c-0.291-6.561-10.718-9.188-15.703-8.236  c-0.59-2.374,1.517-4.77,1.845-7.147c0.421-3.056,0.321-5.925-0.099-8.974c-0.166-1.201-0.632-2.323-1.014-3.472  c-0.212-0.636-1.292-0.809-1.366-1.185c-0.322-1.646,1.741-5.165,2.279-6.842c3.275-10.198,5.073-21.774,5.698-32.434  c-0.302,0.216-2.803,2.009-2.274,0.685c0.613-1.535,1.924-2.568,2.837-3.937c0.693-1.039,2.01-0.311,2.983-0.422  c1.888-0.217,3.927-1.203,5.747-1.76c6.291-1.926,12.162-5.422,17.936-8.502c-3.974,1.376-8.042,2.62-12.155,3.502  c-3.85,0.826-8.089,1.229-11.835,2.382c-2.179,0.67-3.25,0.943-5.264,0.704c-2.664-0.316-3.151,0.953-3.386,3.787  c-0.351,4.232-0.888,8.467-0.949,12.713c-0.073,5.093-0.335,10.097-0.703,15.178c-0.145,1.998-0.936,4.066-1.413,6.005  c-0.189,0.769-0.656,1.806-0.642,2.605c0.012,0.672,0.887,0.839,0.887,1.33c0,0.682-3.013,1.357-1.519,2.851  c2.065,2.065-2.032,1.349-3.363,1.254c-3.791-0.271-7.863-1.381-11.582-1.381c-0.258,0-0.391-0.073-0.633-0.126  c0.117,2.031,2.915,4.49,4.433,5.701c1.577,1.259,7.27,3.202,5.952,5.511c-0.907,1.59-2.493,5.324,0.064,5.828  c1.544,0.305,1.768-3.239,2.532-1.71c1.216,2.433-3.288,3.406-4.749,2.28c-2.5-1.928-0.866-5.675-2.55-7.696  c-3.434-4.123-10.766-8.319-11.128-14.222c2.176,0.375,5.392,1.272,7.282,2.281c1.479,0.789,6.351,2.323,7.725,0.95  c3.771-3.771,6.088-10.145,6.52-15.387c0.522-6.347,0.53-12.429,0.385-18.803c-0.07-3.058,0.426-6.224,0.639-9.274  c0.262-3.764-1.961-0.039-3.427-1.196c1.367-1.404,2.837-2.275,4.813-2.407c0.907-0.061,1.887,0.126,2.805,0.126  c1.081,0,1.191-1.6,2.008-2.027c1.671-0.873,4.467,0.155,6.205,0.253c2.085,0.118,4.227,0.044,6.314-0.066  c4.734-0.249,9.045-1.086,13.541-2.585c2.021-0.673,3.902-1.638,5.766-2.656c0.747-0.408,0.835-1.211,1.49-1.539  c0.467-0.233,2.67-0.783,2.778-1.262c0.346-1.534-8.057-0.761-9.072-0.761c-4.364,0-8.707-0.379-13.071-0.379  c-8.844,0-16.4,5.144-23.587,9.777c-3.686,2.376-7.43,4.42-10.374,7.693c-3.083,3.428-6.969,5.338-10.637,7.996  c-3.006,2.178-5.224,5.285-8.105,7.475c-3.099,2.355-5.973,5.658-8.755,8.609c-2.829,3.002-7.198,5.265-9.736,8.369  c-1.216,1.487-1.834,3.699-2.912,5.321c-1.258,1.892-2.827,3.734-4.306,5.449c-3.041,3.527-6.327,6.771-9.241,10.415  c-1.106,1.383-1.238,3.078-1.903,4.661c-0.889,2.116-2.3,4.17-3.412,6.186c-0.901,1.633-1.794,3.359-2.903,4.857  c-1.976,2.668-2.438,3.508-2.638,6.801c-0.255,4.202-1.833,8.163-3.636,11.898c-0.48,0.995,1.061,4.031,1.144,5.409  c0.128,2.118,0.081,4.943,0.933,6.911c0.815,1.881,2.582,3.52,3.531,5.418c0.979,1.958,1.931,3.926,2.667,5.987  c0.525,1.473,0.813,4.669,1.719,5.778c1.646,2.017,3.291,4.032,4.937,6.049c2.581,3.162,8.226,5.134,11.87,6.733  c8.261,3.626,16.808,5.6,25.686,7.021c2.598,0.416,5.225,0.556,7.847,0.77c0,0.084,0,0.169,0,0.253  c-8.584,0-17.266-1.07-25.435-3.795c-4.89-1.63-9.449-3.335-14.127-5.489c-3.722-1.715-6.878-4.38-10.083-6.807  c-1.407-1.065-2.927-1.465-4.013-2.87c-1.303-1.687-2.578-3.399-3.708-5.208c-2.321-3.716-5.07-6.435-7.372-10.058  c-1.924-3.027-2.751-7.096-4.663-9.99c-0.218-0.33-0.738-0.221-1.125-1.04c-0.574-1.213-1.148-2.426-1.723-3.639  c-0.804-1.697-1.112-4.019-1.423-5.884c-0.562-3.373-1.168-6.729-1.807-10.089c-2.824,1.459-2.176-5.537-2.142-7.096  c0.099-4.562,0.148-9.128,0.642-13.666c0.472-4.333-0.11-7.884,0.973-12.323c0.964-3.955,2.048-7.97,3.511-11.772  c1.61-4.188,1.9-8.566,4.173-12.466c2.203-3.779,4.833-7.296,7.807-10.5c1.518-1.636,3.097-3.204,4.675-4.783  c1.573-1.573,2.372-3.481,4.172-4.859c3.635-2.781,6.826-5.69,10.755-8.099c4.031-2.471,7.929-4.933,12.166-7.051  c-6.597,0.2-13.192,0.142-19.786,0.342c-3.614,0.109-7.222,0.246-10.833,0.411c-0.809,0.037-2.662,0.541-3.322-0.12  c-1.021-1.023,1.039-1.453,1.883-1.547c6.694-0.744,13.269-2.135,19.996-2.747c6.617-0.602,13.273-0.521,19.912-0.521  c-2.865-1.771-8.908-1.302-12.322-1.157c-4.701,0.2-9.319,0.794-13.969,1.502c-8.435,1.284-17.359,2.063-25.889,2.063  c-0.707,0-3.871-1.491-2.266-2.133c2.125-0.85,4.197-1.385,6.448-1.795c4.003-0.729,8.137-0.637,12.192-0.774  c9.314-0.316,18.615,0.013,27.916-0.332c4.159-0.154,8.312-0.43,12.472-0.584c3.908-0.146,8.578,0.629,12.135-1.224  c-3.485-1.167-7.74-0.699-11.371-0.753c-3.36-0.051-6.737-0.459-10.09-0.699c-8.044-0.575-16.006-0.917-23.981-2.056  c-7.688-1.098-15.313-1.977-22.791-4.133C12.801,12.037,1.014,5.278,0.379,8.431c-1.74-2.61,2.974-3.245,4.686-3.801  c2.732-0.887,5.427-1.471,8.255-1.919c7.371-1.168,14.543-1.854,21.993-2.37C48.055-0.542,61.071,0.39,73.707,1.969 M181.607,42.512  c-1.822,3.313,1.443,7.593-2.406,11.022c-1.24-1.3-1.532-2.974-1.773-4.688c-0.277-1.971,0.567-2.658,0.633-4.562  c1.188,0.052,0.854-1.135,0.381-2.027c1.223,1.055,1.854-0.204,2.66-0.887C181.116,41.938,181.453,42.024,181.607,42.512" id="path3" style="fill-rule:evenodd;clip-rule:evenodd;"></path>

<path d="M112.333,18.566c-0.337-0.042-0.675-0.084-1.013-0.126  C111.663,18.537,111.987,18.531,112.333,18.566" id="path5" style="fill-rule:evenodd;clip-rule:evenodd;fill:#E0D9FF;"></path>

<path d="M122.844,20.34c-0.077,0.023-0.245,0.184-0.506,0.126  C122.265,20.427,122.608,20.412,122.844,20.34" id="path7" style="fill-rule:evenodd;clip-rule:evenodd;fill:#E0D9FF;"></path>

<path d="M119.298,22.621c-0.154-0.051-0.462,0-0.634,0  c0-0.084,0-0.169,0-0.253C119.069,22.268,119.215,22.593,119.298,22.621 M118.665,20.34c-6.292,0-12.6-0.237-18.87-0.76  C105.534,19.232,113.153,18.511,118.665,20.34 M74.593,22.747C71.392,23.7,68.458,23.27,65.094,23  C68.294,22.841,71.399,22.371,74.593,22.747 M67.375,25.788c-1.345,0.865-4.856,1.289-6.487,1.493  c-2.891,0.361-5.798,0.309-8.71,0.408c-5.866,0.201-11.734,0.38-17.604,0.38C44.95,25.096,56.599,25.608,67.375,25.788   M43.819,23.254c-10.043,1.362-20.012,2.196-30.142,2.534C22.703,22.254,34.226,23.254,43.819,23.254 M29.507,10.204  c27.193,2.346,54.254,4.627,81.306,8.235c-8.114,0.172-16.637,1.142-24.71,0.72c-9.735-0.509-19.467-1.039-29.199-1.611  c-7.854-0.462-15.866-0.923-23.616-2.274c-8.558-1.492-19.051-2.036-26.449-6.97C14.395,8.976,21.93,9.868,29.507,10.204   M76.24,7.291c13.809,1.534,27.558,3.111,41.158,6.081c13.314,2.908,27.08,5.315,40.02,9.629  c-17.938-2.193-35.804-4.846-53.72-7.168c-17.877-2.317-35.776-3.683-53.737-5.121c-6.334-0.507-12.668-1.008-18.996-1.583  c-6.21-0.565-12.416-0.53-18.554-1.71C33.863,5.062,54.762,6.242,76.24,7.291 M115.879,9.951c8.869,2.176,17.628,4.613,26.341,7.348  C106.365,9.748,70.401,3.389,33.582,4.457c-5.447,0.158-10.942,0.245-16.359,0.87C13.004,5.813,7.67,7.606,3.546,6.53  c36.127-9.901,74.085-3.316,110.249,3.054C114.49,9.707,115.185,9.829,115.879,9.951" id="path9" style="fill-rule:evenodd;clip-rule:evenodd;fill:#E0D9FF;"></path>

<path d="M182.746,27.688c1.108,1.307,4.581,4.613,2.238,6.438  c-0.512,0.398-1.009,0.798-1.501,1.22c-0.505,0.434,0.328,1.264,0.024,1.591c-0.518,0.557-2.916,1.265-3.357,0.824  c-2.494-2.496-0.794-4.89-0.936-8.009c-0.104-2.274-1.705-4.022-1.914-6.118C179.958,23.936,181.06,25.883,182.746,27.688   M187.307,32.756c-0.24,0.238-0.608,0.435-0.887,0.634c-0.153-0.556-0.112-0.969,0.127-1.521  C186.998,32.058,187.153,32.376,187.307,32.756 M189.08,37.19c0.332,1.394-2.023,5.665-2.851,3.737  c-0.521-1.214-1.643-1.532-1.174-2.935C185.299,37.264,188.295,37.289,189.08,37.19 M185.279,43.525  c-1.134,1.606-1.293,3.675-2.912,4.941c-0.514-1.246,1.378-2.327-0.506-2.788c1.696-0.94,0.329-1.637,0.76-2.787  c0.576-1.537,1.669-0.673,2.533-2.154C185.605,41.609,185.573,42.605,185.279,43.525 M178.947,37.444  c0.76,0.555,1.471,4.264,0.38,3.991c-1.57-0.393-1.232-0.364-1.899,0.824c-0.75,1.334-1.619,3.75-1.268,5.448  c-2.393-0.516-2.787-4.044-2.466-5.969c0.427-2.551,2.007-5.051,4.62-5.813C178.512,36.396,178.882,36.94,178.947,37.444   M169.703,28.702c0.055,0.314,0,0.693,0,1.013c-2.65-1.704-5.013-2.18-6.332-5.194C165.821,25.509,167.894,26.757,169.703,28.702   M161.725,33.136c-0.551,1.819-2.254,2.245-3.799,1.394C158.515,32.978,160.286,32.634,161.725,33.136 M164.891,33.77  c-1.931,2.545-6.568,8.607-9.246,3.041c0.798-0.268,1.43-0.789,2.217-1.014c0.919-0.262,1.646,0.609,2.85,0.127  C162.511,35.204,162.494,33.052,164.891,33.77 M167.424,34.53c-1.056,1.98-5.185,9.817-8.105,5.321  c2.206-0.552,3.604-1.507,4.939-3.421C165.175,35.115,165.552,33.752,167.424,34.53 M169.07,34.783  c-0.968,2.176-2.569,9.352-6.207,7.095c1.165-0.823,2.312-1.353,3.166-2.66C167.16,37.486,167.016,35.802,169.07,34.783   M152.859,33.263c-1.41,3.664,6.934,9.162,10.131,10.008c5.724,1.516,5.381-9.227,8.865-7.601c-0.151,1.295-0.693,2.457-0.948,3.725  c-0.146,0.733,0.956,0.997,0.948,1.596c-0.012,0.896-0.343,1.527-0.816,2.238c-1.313,1.971-4.748,3.341-7.058,2.253  c-3.109-1.464-5.385-2.767-7.829-5.252C155.198,39.261,150.421,34.429,152.859,33.263 M163.877,46.692  c-0.605,0.649-3.202-0.761-3.799-1.774C161.409,45.338,162.583,46.163,163.877,46.692 M158.178,43.652  c1.072,1.754-0.742,2.392-1.898,1.521C154.501,43.832,156.924,44.228,158.178,43.652 M153.238,39.978  C150.75,41.522,152.043,37.269,153.238,39.978 M150.58,37.57C147.309,39.21,152.527,34.027,150.58,37.57 M169.957,30.855  c0.524,1.072,0.94,2.194,1.645,3.167c-2.994-0.5-5.885-1.328-8.863-1.9c-1.497-0.288-2.803-0.753-4.18,0  c-1.154,0.631-1.479,1.928-2.787,2.407c-0.484-2.86-0.874-8.148,3.608-7.789C163.368,27.06,166.494,28.967,169.957,30.855   M149.945,34.91c-1.068-0.267-0.941-1.166,0.127-1.52C150.489,34.088,150.284,34.419,149.945,34.91" id="path11" style="fill-rule:evenodd;clip-rule:evenodd;fill:#4F0800;"></path>

<path d="M248.602,35.29c4.38,1.749,8.505,3.88,12.285,6.715  c2.659,1.994,7.113,4.982,8.105,8.108c1.671,5.263-6.039,10.869-10.512,11.909c2.479-10.76-12.355-18.481-20.643-22.044  c-6.359-2.734-14.091-2.86-20.896-3.675c-5.421-0.649-10.623-1.394-16.084-1.394c-2.234,0-4.503-0.126-6.712-0.126  c-3.475,0-0.914-1.553,0.886-2.281c3.329-1.346,7.628-1.742,11.145-2.153c3.145-0.368,7.384-1.263,10.471-0.92  c8.058,0.895,15.964,2.029,23.85,3.96C243.197,34.051,245.902,34.613,248.602,35.29" id="path13" style="fill-rule:evenodd;clip-rule:evenodd;fill:#FFFFFF;"></path>

<path d="M182.24,41.118c-0.126,0.126-0.253,0.253-0.379,0.38  c0.084-0.338,0.168-0.676,0.252-1.014C182.489,40.705,182.221,40.786,182.24,41.118 M180.848,40.104  c-0.079,0.254,0.021,0.352-0.127,0.506C180.699,40.33,180.943,39.798,180.848,40.104 M183.254,38.331  C182.359,40.481,179.709,38.679,183.254,38.331 M184.268,40.865c-0.961,0.765-1.657-0.615-0.508-1.521  C184.151,39.715,184.43,40.182,184.268,40.865" id="path15" style="fill-rule:evenodd;clip-rule:evenodd;fill:#FFE087;"></path>

<path d="M120.058,55.055c-0.408,1.327-1.262,6.374-2.279,6.715  c-0.045-2.68,0.38-5.309,0.38-7.982C118.61,54.501,119.218,55.062,120.058,55.055 M190.346,39.978  c-0.866,0.451-0.532-0.828-0.127-1.647C190.869,38.708,190.796,39.302,190.346,39.978 M230.111,30.095  c-4.511-0.751-8.989-1.32-13.551-1.647C221.178,28.448,225.557,29.42,230.111,30.095 M253.668,51.38  c-0.938-0.908-1.886-1.853-2.912-2.661C251.656,49.618,253.221,50.319,253.668,51.38 M250.248,48.213  c-2.288-1.308-4.563-2.651-6.711-4.181C245.864,45.401,248.036,46.632,250.248,48.213 M233.404,39.471  c-5.981-0.666-11.928-1.361-17.855-2.408C221.498,37.891,227.459,38.621,233.404,39.471 M214.027,36.811  c-4.968-0.172-9.874-0.629-14.816-1.14C204.221,35.67,209.057,36.277,214.027,36.811 M214.281,28.448  c-6.815,0.683-13.432,1.918-20.137,3.294C200.851,29.801,207.311,28.789,214.281,28.448 M218.08,46.439c0-0.971,0-1.943,0-2.914  C218.263,44.498,218.128,45.446,218.08,46.439 M216.814,43.525c-1.082,0.919-1.552-0.039-2.787,0c-1.104,0.034-2.076,1.288-2.722,0  C211.33,43.574,216.079,40.045,216.814,43.525 M210.482,43.652c-0.679,1.194,1.297,11.092-1.9,9.502  c-1.996-0.993,1.847-3.677,1.454-5.65C209.891,46.771,208.144,41.665,210.482,43.652 M207.063,54.421  c-0.923,0.379-3.295,2.115-3.926,1.013c0.05,0.087,2.667-3.843,2.914-4.561C205.685,52.256,206.649,53.167,207.063,54.421   M188.699,60.376c-0.564,1.027-1.51,1.872-2.66,2.154C186.604,61.455,187.376,60.372,188.699,60.376 M181.861,58.349  c1.235,0.997,2.543,1.854,4.178,1.9c-0.4,1.597-4.465,6.518-4.432,2.661c3.113,0.748,3.625-2.78,1.457-2.47  c-3.348,0.477-5.488-2.718-7.94-4.803c-1.904-1.619-6.872-6.237-1.438-2.613C176.454,54.869,178.866,56.851,181.861,58.349   M154.758,51.887c-0.845,2.419-1.646,4.851-2.522,7.259c-0.333,0.917-1.325,2.353-1.276,3.256c0.076,1.403,1.386,1.72,1.52,3.042  c-1.762,0.175-3.142,2.21-4.686,0.253c-0.673-0.853-0.755-1.506,0.127-2.154c-0.441,0.961-0.342,2.477,1.014,2.534  c1.977,0.083,1.148-2.651,1.449-3.754C150.979,60.132,152.596,52.415,154.758,51.887 M146.146,43.652  c-1.454,4.467-8.256,7.189-11.271,10.959c-1.435,1.794-1.207,5.58-4.559,5.131c-2.762-0.37-3.732-3.96-0.507-4.435  c-1.365,0.894-2.295,3.805,0.253,3.168c1.247-0.313,1.646-2.468,1.646-3.6c0-1.12,1.397-2.124,2.176-2.792  C137.328,49.135,142.079,45.637,146.146,43.652 M141.461,42.131c-4.756,3.224-9.724,5.831-14.921,8.277  c-1.719,0.81-4.878,4.537-6.862,3.633c-1.408-0.642-2.531-4.578,0-4.181c-0.726,0.895-1.034,3.365,0.633,3.548  c1.337,0.147,1.421-1.489,2.153-2.281c0.991-1.071,2.853-1.823,4.085-2.611c4.561-2.915,10.236-4.548,15.038-7.145  C141.398,41.656,141.504,41.962,141.461,42.131 M142.348,37.697c-1.148,3.186-11.33,4.204-14.527,4.922  c-3.494,0.785-6.977,1.604-10.459,2.44c-2.212,0.531-2.017-1.741-3.508-2.168c1.013-0.913,1.498-2.385,2.912-2.661  c-1.359,1.589-2.1,4.512,1.267,3.548c1.234-0.353,1.864-1.766,2.85-2.471c1.15-0.822,3.337-0.519,4.712-0.615  C131.401,40.287,136.789,39.409,142.348,37.697 M113.979,44.285c-2.225,0.958-2.525,3.43-2.786,5.575  c-3.177-0.004,0.249-6.057-1.139-7.475C112.22,41.575,112.496,43.472,113.979,44.285 M131.709,60.756  c0.044,1.546,2.181,4.084,0.507,5.068c-1.3-1.52-2.162-3.306-2.787-5.195C130.138,60.962,130.934,60.892,131.709,60.756   M178.188,73.172c0.518,1.116-0.048,2.196-0.633,3.167c-1.331-1.691-4.309-2.815-4.432-5.068  C174.582,72.114,176.438,73.465,178.188,73.172 M186.039,73.425c-2.431,0.696-4.62,1.422-6.838,2.661  c0.369-1.415,0.371-3.089,2.045-2.633C182.725,73.856,184.56,73.8,186.039,73.425 M188.066,100.157  c-1.352-0.324-3.43,0.833-3.42-1.393C185.779,99.563,187.168,98.944,188.066,100.157 M199.844,71.651  c-1.702,1.602-1.361,3.394-4.137,2.159c-1.178-0.524-3.862,0.125-4.348-1.018c1.686-0.183,3.697,0.363,5.318-0.127  C197.977,72.273,198.358,71.386,199.844,71.651 M172.109,97.751c-1.759,0.977-3.729,1.368-5.32,2.66  C166.551,98.372,170.365,98.032,172.109,97.751 M184.52,97.244c-0.184,1.804-1.229,1.067-2.546,0.628  c-1.238-0.412-3.669-0.76-4.419-1.516c1.503,0.188,2.2,0.195,3.629-0.28C183.004,95.471,183.319,95.934,184.52,97.244   M164.258,96.483c2.142,2.462,1.165,3.297,1.012,6.082c-1.432-2.149-2.699-4.116-5.129-5.286c-1.453-0.7-6.19-2.064-6.775-3.202  C157.001,95.115,160.483,96.141,164.258,96.483 M149.061,92.81c-0.134,0.992-3.954,0.507-5.066,0.507  C144.878,91.196,147.408,92.565,149.061,92.81 M144.121,90.909c-0.892,1.498-1.978,1.818-3.42,2.66  c-0.526-1.861,0.177-3.487,0.379-5.32c0.145-1.316-0.659-3.523,0.127-4.562C142.34,86.074,142.58,88.712,144.121,90.909   M127.277,120.429C124.877,121.122,127.906,117.265,127.277,120.429 M126.263,114.601c-0.481,1.277,0.341,2.621-0.633,3.676  c-1.261-1.641-2.643-3.354-4.433-4.436C122.889,114.126,124.923,113.233,126.263,114.601 M117.398,112.321  c-1.392,0.285-2.711-0.172-4.052-0.508C114.796,111.141,116.214,111.156,117.398,112.321 M114.613,110.421  c-1.511,0.271-2.549,1.512-4.053,1.646c1.057-2.425,2.098-4.852,2.532-7.475C113.27,106.631,113.136,108.813,114.613,110.421   M112.713,96.23c-0.329-1.574-2.386-4.427,0.253-4.94C112.742,92.875,112.651,94.632,112.713,96.23 M114.613,80.521  c-0.046,1.338-0.431,2.611-0.507,3.928c-0.088,1.53,1.144,2.431,1.14,3.547c-0.01,2.563-3.19,2.029-4.686,3.041  c0.777-1.945,1.467-3.897,2.129-5.885C113.093,83.939,113.397,80.138,114.613,80.521 M108.534,80.774  c-0.165,0.754-1.421,6.259-1.182,6.179c-1.459,0.487-3.206,2.095-4.516,2.183c1.95-3.708,4.139-7.035,5.698-11.022  C109.141,78.909,108.942,79.887,108.534,80.774 M106.38,90.022c-0.833,0.153-1.683,0.162-2.532,0.127  c0.65-0.773,1.431-1.465,2.406-1.773C106.373,88.871,106.48,89.508,106.38,90.022 M101.822,90.022  c-1.944,0.316-3.775-0.165-5.573-0.887C98.049,89.832,100,89.322,101.822,90.022 M92.323,88.249c-1.175,1.597-3.771-0.473-4.432-1.9  C89.465,86.733,90.885,87.527,92.323,88.249 M94.476,94.71c-1.889-1.433-3.466-3.094-4.938-4.941  C91.543,89.404,93.566,93.245,94.476,94.71 M101.695,99.397c0.389,1.96-1.909,2.855-1.52,4.814  c-1.011-1.273-0.167-2.912-1.013-4.181c-0.625-0.938-1.484-2.026-1.9-2.914C98.749,97.904,100.153,98.712,101.695,99.397   M192.119,38.331c-0.04-0.137-0.373-0.497-0.254-1.014C192.237,37.606,192.079,37.854,192.119,38.331 M189.459,40.991  c-0.063,0.6-0.349,1.101-0.76,1.521C187.841,41.753,188.635,40.806,189.459,40.991 M187.559,43.019  c-0.08,0.782-0.705,1.225-1.52,1.267c0.187-0.762,0.498-1.454,1.014-2.027C187.222,42.512,187.39,42.765,187.559,43.019   M189.459,44.159c-0.319,0.336-0.715,0.595-1.139,0.76c0.053-1.092,0.581-2.083,1.52-2.66  C190.085,42.949,189.949,43.607,189.459,44.159 M191.611,39.344c0.395,1.009-0.072,1.906-0.633,2.787  C190.257,41.198,190.866,40.099,191.611,39.344 M190.852,37.697C189.866,36.995,190.673,36.547,190.852,37.697 M191.232,34.783  c-0.183,0.011-0.354,0.197-0.633,0.126C190.762,34.509,190.96,34.799,191.232,34.783 M177.301,25.915  c-0.822,1.931-1.927-0.633-2.152-1.647C176.235,24.16,177.006,24.894,177.301,25.915 M173.756,23.634  c-0.371,0.224-0.853,0.309-1.268,0.38C172.08,22.276,173.358,21.864,173.756,23.634 M171.855,24.395  c-0.011-0.012-0.375,0.153-0.254-0.634C171.703,23.972,171.701,24.212,171.855,24.395 M170.969,27.941  c-0.223-0.864,0.034-1.74,0.633-2.407C171.924,26.551,172.15,27.649,170.969,27.941 M174.643,26.168  c-0.16,0.853-1.149,0.794-2.027,1.014c-0.053-0.864-0.584-2.954,0.887-2.787C174.244,24.479,174.56,25.487,174.643,26.168   M175.402,29.842c-0.818,0.385-1.646,0.396-2.533,0.507c-0.059-1.205-0.362-3.197,1.52-2.914  C175.438,27.593,175.537,28.678,175.402,29.842 M178.314,28.829c-0.012,0.763-0.689,1.112-1.52,0.76  c-0.788-0.334-0.602-1.49-0.76-2.534C177.359,26.586,178.103,27.634,178.314,28.829 M175.148,33.77  c-2.012,0.708-2.783-2.818,0.254-3.041C175.289,31.746,175.205,32.748,175.148,33.77 M178.441,30.349  c0.113,1.492-0.383,3.21-2.152,3.167C176.509,32.045,176.008,29.403,178.441,30.349 M175.908,35.924  c-0.177-1.084,0.613-1.84,1.773-1.774C177.131,34.793,176.551,35.373,175.908,35.924 M175.021,34.657  c-0.095,0.362-0.199,0.682-0.379,1.014C173.966,34.886,174.386,34.917,175.021,34.657 M172.615,33.263  c-0.665-0.393-0.874-0.995-0.506-1.647C172.562,32.106,172.675,32.615,172.615,33.263 M171.982,28.575  c0.085,0.881,0.348,1.681-0.254,2.28C170.941,31.64,170.343,28.958,171.982,28.575 M175.654,23.508  c-0.786,0.295-1.277-0.207-1.518-1.014C174.775,22.69,175.214,23.045,175.654,23.508" id="path17" style="fill-rule:evenodd;clip-rule:evenodd;fill:#E4BC96;"></path>

<path d="M257.467,57.462c0.059,0.346-0.08-0.398-0.127-0.634  C257.576,56.967,257.414,57.151,257.467,57.462" id="path19" style="fill-rule:evenodd;clip-rule:evenodd;fill:#FFFFFF;"></path>

<path d="M156.658,66.33c-1.002-0.209-3.176-0.072-2.912-1.267  C154.748,65.281,156.69,65.156,156.658,66.33" id="path21" style="fill-rule:evenodd;clip-rule:evenodd;fill:#A80F00;"></path>

<path d="M100.175,105.606c0.257,0.786-0.194-0.236-0.253-0.508  c0.084,0,0.168,0,0.253,0C100.175,105.241,100.131,105.472,100.175,105.606" id="path23" style="fill-rule:evenodd;clip-rule:evenodd;fill:#A80F00;"></path>

<path d="M14.438,121.188c0.013,0.398,0.166,0.6-0.127,0.888  C14.265,121.828,14.434,121.216,14.438,121.188" id="path25" style="fill-rule:evenodd;clip-rule:evenodd;"></path>

<path d="M27.229,150.583c0.09,0.462,0.124,0.908,0.126,1.393  c-2.285-5.009-4.576-8.936-4.053-14.695C24.132,141.93,25.477,146.201,27.229,150.583 M23.682,111.562  c-0.78,5.238-1.14,10.318-1.14,15.616c0,1.93,1.525,12.745-2.28,9.469c-2.663-2.293-3.206-10.097-3-13.283  c0.125-1.949,0.085-5.605,1.678-7.04C20.6,114.829,22.223,113.255,23.682,111.562 M31.028,91.923  c-2.575,5.021-3.899,10.398-6.332,15.457c-1.145,2.38-2.499,4.399-4.33,6.231c-0.463,0.463-1.806,2.008-2.298,1.679  c-1.316-0.877-0.92-2.005-0.845-3.477c0.264-5.164,2.112-9.438,4.665-13.865c3.077-5.336,7.424-7.898,12.179-11.6  C33.504,88.392,31.984,90.053,31.028,91.923 M34.7,84.828c-1.099,0.943-9.371,8.518-9.371,4.244c0-2.607,1.736-4.713,2.976-6.905  c1.335-2.36,2.422-4.499,4.28-6.447c4.625-4.851,8.801-8.331,14.325-12.14c3.693-2.546,8.586-3.292,12.106-5.992  C50.385,66.223,42.446,75.394,34.7,84.828 M77.886,43.271c-5.38,3.88-10.492,8.68-16.211,12.036  c-2.938,1.725-6.292,2.895-9.348,4.423c-2.991,1.496-5.48,2.857-7.458-0.706c-2.49-4.489,9.452-11.107,12.31-11.797  C64.029,45.574,70.983,44.7,77.886,43.271 M99.036,31.743c-4.181,2.091-32.603,18.622-34.321,10.009  c-1.298-6.505,11.331-8.887,15.376-9.652C86.365,30.912,92.771,31.743,99.036,31.743 M119.044,23.887  c0.183,0.404,0.185,0.951,0.254,1.394c-3.665,0.523-6.781-0.04-10.385-0.76C109.845,21.867,117.051,23.264,119.044,23.887   M104.354,24.268c3.192,1.176,6.274,1.751,9.625,2.28c-6.594,1.861-15.007,5.857-21.909,3.547c-4.75-1.59,1.365-4.258,3.583-4.964  C98.492,24.228,101.436,23.901,104.354,24.268 M144.121,23.254c0.728,0.319,2.533,0.359,2.533,1.204c0,1.13-0.417,2.8-0.925,3.813  c-1.315,2.626-4.801,1.699-7.308,1.699c-5.601,0-11.114,0.1-16.692,0.62c-1.289,0.12-1.535-6.118-1.482-7.018  c0.124-2.114,4.751-0.853,6.662-0.812C132.65,22.88,138.385,23.01,144.121,23.254" id="path27" style="fill-rule:evenodd;clip-rule:evenodd;fill:#8B5C29;"></path>

<path d="M29.128,149.696c2.033,3.104,3.76,6.145,5.066,9.628  c0.943,2.518,1.032,5.632,2.786,7.729c-2.278-1.318-4.239-6.488-5.306-8.907C31.062,156.759,27.069,149.634,29.128,149.696   M25.962,136.646c1.684,2.13,0,3.4,0,5.659c0,2.356,2.72,3.919,1.772,6.377c-1.779-4.094-2.949-7.956-3.292-12.416  C24.925,136.352,25.514,136.413,25.962,136.646 M30.141,123.343c-0.08,1.241-0.332,2.597-0.633,3.801  c-0.249,0.992-2.822,1.737-3.424,3.243c-0.665,1.661-0.31,3.097,0.474,4.664c0.505,1.011-1.546,0.833-1.799,0.329  c-2.367-4.735-1.117-12.412-0.95-17.738c1.413,1.212,2.126,1.613,3.929,2.089C29.998,120.325,29.936,121.292,30.141,123.343   M38.753,101.806c3.543,4.303-4.063,6.223-5.779,8.797c-1.163,1.745-2.73,3.828-2.327,6.025c0.261,1.42,1.732,1.468,0.169,2.685  c-0.574,0.446-2.06-0.429-2.829-0.594c-5.643-1.212-3.201-7.478-2.069-11.44c1.14-3.994,2.571-8.065,4.603-11.682  C32.597,98.997,35.061,100.444,38.753,101.806 M55.216,79c1.626,1.92,1.112,4.006-0.634,4.561c-2.575,0.818-4.812,0.625-7.092,2.661  c-1.806,1.612-9.025,10.166-3.672,11.275c-0.82,1.795-2.527,2.927-3.42,4.688c-1.813-1.336-6.885-2.805-7.828-4.776  c-1.012-2.116-1.375-2.463-0.6-4.619c0.54-1.499,1.263-2.923,2.095-4.287c3.422-5.611,7.722-10.341,11.651-15.583  C48.732,75.264,52.207,76.658,55.216,79 M74.973,61.389c0.048,1.175-0.532,2.485-1.394,3.294c-1.286,1.208-1.92,0.43-3.529,0.966  c-2.824,0.941-5.566,2.077-7.868,3.975c-0.917,0.756-2.47,1.776-2.885,2.938c-0.632,1.772-0.097,2.648-0.028,4.41  c0.039,0.982,0.74,0.363,0.127,1.521c-0.292,0.551-1.399,1.105-1.963,1.267c-0.765,0.219-2.544-2.395-3.419-3.04  c-1.291-0.952-7.028-2.845-7.028-4.308c0-2.375,4.167-5.182,5.653-6.669c4.736-4.738,9.569-9.21,14.736-13.476  C68.881,56.411,72.233,58.1,74.973,61.389 M94.603,44.539c0.007,1.747-0.484,3.78-1.773,5.068c-1.685,1.683-4.604,1.316-6.815,1.948  c-1.578,0.451-8.466,4.664-5.342,6.667c-1.618,1.261-2.525,3.144-4.433,4.054c-1.46-3.244-3.898-4.293-6.242-6.794  c-2.428-2.592-0.129-5.219,2.396-6.951c5.697-3.908,11.444-7.546,17.522-10.833C90.495,40.777,92.445,42.381,94.603,44.539   M120.311,30.855c-2.371,1.294-4.76,2.551-7.155,3.801c-1.181,0.616-2.351,1.249-3.521,1.887c-1.177,0.642-2.296-0.035-3.506,0.347  c-2.138,0.675-5.3,1.823-6.777,3.595c-0.907,1.088,0.125,1.926-0.317,2.914c-0.359,0.802-2.314,1.783-3.04,2.28  c-0.482-1.023-6.429-7.822-4.715-8.663c3.57-1.752,7.129-3.475,10.762-5.09c3.168-1.409,6.513-2.702,9.892-3.503  c2.316-0.55,4.633-1.1,6.95-1.649C119.652,26.591,120.112,30.06,120.311,30.855" id="path29" style="fill-rule:evenodd;clip-rule:evenodd;fill:#D59758;"></path>

<path d="M36.726,168.573c-3.004-1.402-4.439-3.955-6.182-6.696  c-0.906-1.425-1.754-2.885-2.659-4.308c-0.816-1.284,0.322-2.502,0.483-4.199C30.998,158.634,33.183,163.846,36.726,168.573   M27.355,152.736c0.391,1.392-0.566,4.248-2.129,2.238c-1.261-1.621-2.124-3.672-2.958-5.549c-0.747-1.682-1.782-3.285-2.338-5.048  c-0.852-2.702,0.073-2.827,1.979-4.691C22.978,144.679,24.21,148.666,27.355,152.736 M16.97,118.148  c-0.524,4.09-0.763,7.788,0.222,11.837c0.637,2.618,1.207,7.782,4.337,8.435c-4.083,8.152-6.299-3.76-6.989-7.212  c-0.513-2.568-0.811-5.184-1.021-7.793c-0.186-2.296-0.429-2.065,1.021-3.31C15.362,119.401,15.914,118.524,16.97,118.148   M16.21,114.349c2.978,2.45-3.061,5.146-5.065,6.08c-0.372-5.575-0.879-11.448,0.025-17.002c0.279-1.715,0.558-3.429,0.837-5.144  c0.083-0.507,2.329-0.926,2.891-1.104c2.782-0.887,5.338-1.819,7.898-3.229C19.138,100.719,16.724,106.63,16.21,114.349   M38.753,68.231c-2.925,2.668-5.854,5.292-8.232,8.489c-1.853,2.49-5.382,7.279-5.731,10.431c-0.117,1.053,0.658,3.522,0.412,4.14  c-0.389,0.975-3.171,1.966-4.236,2.498c-2.618,1.31-6.611,3.276-9.568,2.695c0.282-4.23,0.742-8.099,2.002-12.171  c0.836-2.703,2.138-11.52,5.494-11.52c4.268,0,9.063-2.559,13.144-3.857c4.111-1.309,7.981-2.854,11.908-4.631  C42.555,65.928,40.468,66.967,38.753,68.231 M54.836,47.073c-3.204,1.736-6.823,3.662-9.038,6.659  c-1.922,2.601-2.821,6.526,0.807,8.417c-8.878,3.907-18.846,8.678-28.496,10.009c-1.244-3.904,2.312-8.192,4.37-11.195  c2.237-3.264,4.845-6.463,7.69-9.218c1.938-1.875,2.749-3.423,5.435-3.361c2.339,0.054,4.561,0.006,6.894-0.164  C46.616,47.919,50.726,47.464,54.836,47.073 M84.471,30.476c-4.324,1.661-9.2,0.61-13.467,2.98  c-2.206,1.225-4.483,2.455-6.099,4.432c-0.667,0.815-0.934,6.414-0.428,6.296c-9.591,2.214-20.049,3.619-29.904,3.142  c0.428-1.568,3.023-3.158,4.242-4.278c1.783-1.638,3.625-3.019,5.585-4.451c3.953-2.89,8.205-5.262,12.552-7.514  c2.175-1.127,4.235-2.116,6.5-2.987c2.542-0.978,4.154-0.396,6.708,0.163C74.901,29.296,79.658,29.892,84.471,30.476   M101.061,22.747c-4.487,0.612-12.057,1.181-11.777,7.095c-3.576-0.269-7.207-0.437-10.754-0.983  c-2.971-0.458-7.428-0.605-9.888-2.438c5.311-2.237,11-4.096,16.717-4.941C90.208,20.763,97.124,19.37,101.061,22.747   M111.193,22.114c-2.822,0.166-2.656,2.852-5.497,1.431c-1.518-0.759-3.887-0.767-4.761-2.318  C104.37,21.398,107.752,21.95,111.193,22.114 M161.344,25.534c-0.234,0.534-2.127,0.191-3.25,0.441  c-1.391,0.31-2.372,1.636-3.336,2.6c-0.611-1.594-0.192-3.835,1.474-3.707C157.942,25,159.696,25.009,161.344,25.534   M153.746,24.901c-0.183,1.292,1.423,6.949-1.52,6.081C149.994,30.324,151.136,24.944,153.746,24.901 M154.379,32.25  c-0.021,0.58,0.04,0.952-0.381,1.393C153.721,32.89,153.991,32.662,154.379,32.25 M150.959,25.028  c-0.801,1.184-0.021,3.717-0.887,4.561c-0.344,0.335-2.851,0.464-3.355,0.127C145.708,29.041,148.379,22.127,150.959,25.028   M155.266,35.417c-0.982,0.31-1.646-0.129-1.393-1.14C154.247,34.832,154.753,35.059,155.266,35.417" id="path31" style="fill-rule:evenodd;clip-rule:evenodd;fill:#8F0000;"></path>

<path d="M39.639,170.979c-0.65-0.301-1.139-0.805-1.393-1.392  C38.708,170.049,39.211,170.488,39.639,170.979" id="path33" style="fill-rule:evenodd;clip-rule:evenodd;fill:#FFFFFF;"></path>

<path d="M50.278,177.569c-3.711-1.241-7.11-3.618-10.132-6.082  C43.53,173.619,46.691,175.749,50.278,177.569" id="path35" style="fill-rule:evenodd;clip-rule:evenodd;fill:#FFFFFF;"></path>

</svg>
