<?xml version="1.0" encoding="utf-8"?>
<!-- Generator: Adobe Illustrator 10.0, SVG Export Plug-In . SVG Version: 3.0.0 Build 77)  --><svg enable-background="new 0 0 154.745 129.555" height="129.555" i:pageBounds="0 792 612 0" i:rulerOrigin="0 0" i:viewOrigin="228 460" overflow="visible" space="preserve" viewBox="0 0 154.745 129.555" width="154.745" xmlns="http://www.w3.org/2000/svg" xmlns:a="http://ns.adobe.com/AdobeSVGViewerExtensions/3.0/" xmlns:graph="http://ns.adobe.com/Graphs/1.0/" xmlns:i="http://ns.adobe.com/AdobeIllustrator/10.0/" xmlns:x="http://ns.adobe.com/Extensibility/1.0/" xmlns:xlink="http://www.w3.org/1999/xlink">
  <metadata>
    <rdf:RDF xmlns:cc="http://web.resource.org/cc/" xmlns:dc="http://purl.org/dc/elements/1.1/" xmlns:rdf="http://www.w3.org/1999/02/22-rdf-syntax-ns#">
      <cc:Work rdf:about="">
        <dc:title>Fries</dc:title>
        <dc:description>Fries</dc:description>
        <dc:subject>
          <rdf:Bag>
            <rdf:li>food</rdf:li>
            <rdf:li>fries</rdf:li>
            <rdf:li>menu</rdf:li>
          </rdf:Bag>
        </dc:subject>
        <dc:publisher>
          <cc:Agent rdf:about="http://www.openclipart.org/">
            <dc:title>Open Clip Art Project</dc:title>
          </cc:Agent>
        </dc:publisher>
        <dc:creator>
          <cc:Agent rdf:about="http://web.resource.org/cc/PublicDomain">
            <dc:title>Gerald G.</dc:title>
          </cc:Agent>
        </dc:creator>
        <dc:rights>
          <cc:Agent rdf:about="http://web.resource.org/cc/PublicDomain">
            <dc:title>Public Domain</dc:title>
          </cc:Agent>
        </dc:rights>
        <dc:date>2005/05/30</dc:date>
        <dc:format>image/svg+xml</dc:format>
        <dc:type rdf:resource="http://purl.org/dc/dcmitype/StillImage"/>
        <cc:license rdf:resource="http://web.resource.org/cc/PublicDomain"/>
        <dc:language>en</dc:language>
      </cc:Work>
      <cc:License rdf:about="http://web.resource.org/cc/PublicDomain">
        <cc:permits rdf:resource="http://web.resource.org/cc/Reproduction"/>
        <cc:permits rdf:resource="http://web.resource.org/cc/Distribution"/>
        <cc:permits rdf:resource="http://web.resource.org/cc/DerivativeWorks"/>
      </cc:License>
    </rdf:RDF>
  </metadata>
  <g i:dimmedPercent="50" i:layer="yes" i:rgbTrio="#4F008000FFFF" id="Layer_1">
    <g>
      <path clip-rule="evenodd" d="     M11.862,47.754L0.63,32.166c2.16-7.848,4.068-12.996,5.868-15.588c1.764-2.556,2.736-0.936,4.86,0     c1.98,0.684,4.788,1.332,7.308,4.86c2.484,3.636,4.788,9.036,7.308,16.596c1.44-3.492,2.736-5.652,3.888-6.336     c1.116-0.792,2.088-0.144,2.916,1.944c-0.612-10.584,0.108-17.604,2.448-21.456c2.268-3.852,8.64-2.808,11.196-1.44     c2.52,1.332,3.78,4.32,3.924,9.252c2.232-6.084,5.796-10.836,10.692-14.112c4.896-3.492,15.408-6.192,18.504-5.868     c2.952,0.432,2.844,3.06-0.468,8.28c7.164-1.26,11.771-1.188,14.111,0.504c2.196,1.62,1.297,6.696-0.468,9.252     c-1.872,2.556-5.147,4.356-10.224,5.832c2.952,2.484,6.731,6.084,11.195,11.196c4.465,5.004,9.612,11.34,15.589,19.008     c6.84-3.636,11.664-5.004,14.615-4.392c2.845,0.756,2.017,5.328,2.916,8.28c0.828,2.736,3.385,5.868,2.412,8.28     c-1.044,2.375-3.708,4.283-8.279,5.867c4.787-2.23,8.64-2.23,11.699,0c2.845,2.197,3.385,9.396,6.336,13.141     c3.024,3.672,6.876,6.553,11.7,8.783c4.284,6.625,5.256,10.836,2.916,12.637c-2.483,1.764-7.992,1.115-17.063-1.943     c-3.744-1.332-6.192-1.008-7.776,0.971c-1.548,1.945-2.088,5.473-1.476,10.729h-7.309c0.072,5.545-1.908,9.18-6.336,11.197     c-4.5,1.943-10.08,2.951-19.944,0.504c-10.008-2.629-29.952-10.189-38.987-15.588c-9-5.473-13.824-10.801-14.616-16.561     L1.134,80.873c-1.368-6.299-1.44-10.799-0.504-13.643c1.008-2.881,3.024-3.961,6.336-3.385c-1.08-2.844-1.368-5.652-0.468-8.28     C7.362,52.83,9.018,50.274,11.862,47.754z" fill-rule="evenodd" i:knockout="Off" stroke="#000000" stroke-miterlimit="10" stroke-width="0.036"/>
      <path clip-rule="evenodd" d="     M27.918,56.034L8.442,19.026c2.88-0.936,5.472-0.288,7.776,1.944c2.268,2.16,3.024,4.644,5.868,11.196     c2.736,6.516,6.3,15.624,10.692,27.756C31.158,58.625,29.538,57.33,27.918,56.034z" fill="#FFE42E" fill-rule="evenodd" i:knockout="Off" stroke="#000000" stroke-miterlimit="10" stroke-width="0.036"/>
      <path clip-rule="evenodd" d="     M6.966,20.466L3.078,31.698L15.75,47.754l8.748,6.336L6.966,20.466z" fill="#FFE42E" fill-rule="evenodd" i:knockout="Off" stroke="#000000" stroke-miterlimit="10" stroke-width="0.036"/>
      <path clip-rule="evenodd" d="     M31.338,61.902L12.834,49.698c-1.332,1.512-2.304,3.348-2.916,5.364c-0.612,2.052-1.08,4.284-1.008,6.84L36.702,75.51     c-3.06-2.664-4.968-5.004-5.868-7.309C29.898,65.861,30.114,63.81,31.338,61.902z" fill="#FFE42E" fill-rule="evenodd" i:knockout="Off" stroke="#000000" stroke-miterlimit="10" stroke-width="0.036"/>
      <path clip-rule="evenodd" d="     M46.926,80.873L8.442,66.762c-2.664,0.072-4.356,0.396-5.364,0.973c-0.972,0.504-2.232,1.439-0.468,2.412     c1.656,0.971,4.248,0.684,10.692,3.42c6.48,2.699,15.552,6.875,27.756,12.672c-0.684-0.037-0.684-0.037,0,0     c0.648-0.037,1.908-0.037,3.924,0c-2.016-1.045-2.736-2.016-2.448-2.916C42.894,82.422,44.262,81.559,46.926,80.873z" fill="#FFE42E" fill-rule="evenodd" i:knockout="Off" stroke="#000000" stroke-miterlimit="10" stroke-width="0.036"/>
      <path clip-rule="evenodd" d="     M39.114,93.545l0.504-5.363L2.106,71.621l1.476,8.785L39.114,93.545z" fill="#FFE42E" fill-rule="evenodd" i:knockout="Off" stroke="#000000" stroke-miterlimit="10" stroke-width="0.036"/>
      <path clip-rule="evenodd" d="     M43.506,92.07c0.036,4.248,1.008,7.775,2.916,10.727c1.872,2.773,5.328,5.041,8.28,6.805c2.844,1.729,2.664,1.367,8.784,3.924     c6.156,2.52,19.728,8.893,27.252,11.197c7.271,2.195,12.42,2.195,16.56,1.943c4.104-0.359,6.66-1.656,7.813-3.889     c-8.353-1.439-18.145-4.645-30.204-9.756C72.882,107.801,59.274,100.961,43.506,92.07z" fill="#FFE42E" fill-rule="evenodd" i:knockout="Off" stroke="#000000" stroke-miterlimit="10" stroke-width="0.036"/>
      <path clip-rule="evenodd" d="     M118.026,115.469c-8.532-2.34-18.469-5.65-30.204-10.223c-11.772-4.572-24.948-10.26-39.924-17.064l-2.448,2.447     c9.36,6.373,19.692,11.916,31.68,17.029c11.952,5.004,24.876,9.396,39.456,13.176C117.054,119.07,117.521,117.27,118.026,115.469     z" fill="#FFE42E" fill-rule="evenodd" i:knockout="Off" stroke="#000000" stroke-miterlimit="10" stroke-width="0.036"/>
      <path clip-rule="evenodd" d="     M61.038,91.602c9.288-3.852,18.612-7.379,28.26-10.729c9.576-3.42,23.256-6.551,29.232-9.252     c5.868-2.771,5.436-4.391,6.336-6.803c0.899-2.448,0.576-5.004-0.973-7.812c1.08,2.952-1.512,5.76-8.315,8.279     c-6.84,2.484-22.356,5.184-32.112,6.84c-9.828,1.584-18.468,2.557-26.316,2.916c-5.904,3.385-9.36,5.797-10.224,7.777     c-0.9,1.836,2.34,1.871,4.86,3.42C54.09,87.75,57.222,89.406,61.038,91.602z" fill="#FFE42E" fill-rule="evenodd" i:knockout="Off" stroke="#000000" stroke-miterlimit="10" stroke-width="0.036"/>
      <path clip-rule="evenodd" d="     M62.982,72.594l6.84-6.336c6.696-0.828,13.537-1.98,20.917-3.888c7.344-1.908,17.712-5.688,22.896-7.308     c5.004-1.692,6.048-2.88,7.309-2.448c1.224,0.468,1.224,3.024,0,4.896c-1.261,1.656-0.181,3.168-7.309,5.364     c-7.344,2.088-26.964,5.58-35.532,7.273C69.642,71.801,64.602,72.521,62.982,72.594z" fill="#FFE42E" fill-rule="evenodd" i:knockout="Off" stroke="#000000" stroke-miterlimit="10" stroke-width="0.036"/>
      <path clip-rule="evenodd" d="     M92.214,58.482c-3.096-1.224-5.544-3.456-7.776-6.84c-2.304-3.528-4.787-9.216-5.363-13.608     c-0.612-4.392,0.036-8.568,1.943-12.672l25.309,29.232C101.646,55.89,96.93,57.186,92.214,58.482z" fill="#FFE42E" fill-rule="evenodd" i:knockout="Off" stroke="#000000" stroke-miterlimit="10" stroke-width="0.036"/>
      <path clip-rule="evenodd" d="     M44.982,60.894c4.032-5.436,8.388-10.332,13.608-15.084c5.184-4.788,10.692-9.036,17.064-13.14l2.448-6.84l-15.12-0.972     C52.794,32.85,45.378,40.23,40.59,47.286c-4.824,7.128-7.164,14.364-6.336,19.476c0.864,4.896,4.464,8.1,11.196,9.756     c-1.584-2.951-2.34-5.725-2.412-8.316C42.966,65.537,43.614,63.198,44.982,60.894z" fill="#FFE42E" fill-rule="evenodd" i:knockout="Off" stroke="#000000" stroke-miterlimit="10" stroke-width="0.036"/>
      <path clip-rule="evenodd" d="     M48.366,75.51l9.756-6.336c-2.016-3.096-2.412-5.688-1.476-7.776c1.008-2.124,3.348-3.744,7.308-4.86     c-1.476-0.792-1.8-2.376-0.972-4.896c0.792-2.52,2.7-5.976,5.868-10.224c-3.168,2.7-6.048,5.256-8.784,7.813     c-2.772,2.376-5.364,4.356-7.776,7.308c-2.52,3.096-6.192,7.308-6.84,10.693C44.766,70.361,45.738,73.17,48.366,75.51z" fill="#FFE42E" fill-rule="evenodd" i:knockout="Off" stroke="#000000" stroke-miterlimit="10" stroke-width="0.036"/>
      <path clip-rule="evenodd" d="     M73.71,39.474c-2.52,2.952-4.176,5.616-5.364,8.28c-1.152,2.592-4.176,5.868-1.44,7.308c2.7,1.368,8.496,1.692,17.532,0.972     c-1.548-2.196-3.132-4.5-4.896-7.308C77.742,45.882,75.798,42.93,73.71,39.474z" fill="#FFE42E" fill-rule="evenodd" i:knockout="Off" stroke="#000000" stroke-miterlimit="10" stroke-width="0.036"/>
      <path clip-rule="evenodd" d="     M80.514,60.426c-4.716-1.044-8.604-1.44-11.664-1.476c-3.168,0-5.544,0.036-6.84,1.476c-1.332,1.44-1.656,3.528-0.972,6.805     l8.784-3.889C73.386,62.37,76.95,61.398,80.514,60.426z" fill="#FFE42E" fill-rule="evenodd" i:knockout="Off" stroke="#000000" stroke-miterlimit="10" stroke-width="0.036"/>
      <path clip-rule="evenodd" d="     M51.786,30.222c-0.432-5.904,0.252-10.728,2.448-14.616c2.196-3.852,6.48-6.624,10.224-8.748     c3.672-2.34,9.216-4.896,11.196-4.896c1.584-0.072,0.9,2.664-0.504,4.896c-1.404,2.232-5.724,5.436-7.272,8.244     c-1.584,2.7-2.196,5.256-1.98,7.812c-1.656-0.612-3.42-0.288-5.832,0.972C57.726,25.074,54.918,27.234,51.786,30.222z" fill="#FFE42E" fill-rule="evenodd" i:knockout="Off" stroke="#000000" stroke-miterlimit="10" stroke-width="0.036"/>
      <path clip-rule="evenodd" d="     M74.178,22.41l3.42-12.168c-2.448-0.792-4.392-0.144-5.832,1.944c-1.476,1.98-2.448,5.436-2.916,10.224     C70.614,22.41,72.378,22.41,74.178,22.41z" fill="#FFE42E" fill-rule="evenodd" i:knockout="Off" stroke="#000000" stroke-miterlimit="10" stroke-width="0.036"/>
      <path clip-rule="evenodd" d="     M79.542,9.774c4.752-1.224,7.956-1.44,9.756-0.504c1.764,1.008,2.088,3.744,0.972,5.832c-1.26,1.872-5.651,4.212-7.775,5.364     c-2.124,1.044-3.708,1.368-4.896,0.972C78.246,17.55,78.894,13.662,79.542,9.774z" fill="#FFE42E" fill-rule="evenodd" i:knockout="Off" stroke="#000000" stroke-miterlimit="10" stroke-width="0.036"/>
      <path clip-rule="evenodd" d="     M48.366,32.67c0.612-4.752,0.612-8.82,0-12.204c-0.612-3.6-1.908-7.38-3.888-8.28c-2.196-0.864-7.38-0.828-8.748,3.42     c-1.368,4.248-1.26,11.412,0.468,21.924l5.868,3.888C44.154,38.501,46.242,35.586,48.366,32.67z" fill="#FFE42E" fill-rule="evenodd" i:knockout="Off" stroke="#000000" stroke-miterlimit="10" stroke-width="0.036"/>
      <path clip-rule="evenodd" d="     M41.058,43.362l-9.72-8.28l-2.916,3.924l5.328,16.056c0.756-3.276,1.692-5.868,2.952-7.776     C37.926,45.306,39.33,44.046,41.058,43.362z" fill="#FFE42E" fill-rule="evenodd" i:knockout="Off" stroke="#000000" stroke-miterlimit="10" stroke-width="0.036"/>
      <path clip-rule="evenodd" d="     M74.178,95.021c6.048,0.684,13.428,1.656,22.428,2.916c8.965,1.188,19.261,2.701,31.177,4.393     c-1.332,1.439-2.124,3.061-2.916,4.859c-0.721,1.764-1.261,3.709-1.477,5.832c3.276,2.629,0.937,2.52-7.308-0.467     C107.694,109.494,94.05,103.697,74.178,95.021z" fill="#FFE42E" fill-rule="evenodd" i:knockout="Off" stroke="#000000" stroke-miterlimit="10" stroke-width="0.036"/>
      <path clip-rule="evenodd" d="     M112.662,76.986c11.771,8.244,16.596,12.527,14.616,13.139c-2.16,0.469-10.908-2.627-26.784-9.719     C104.526,79.289,108.594,78.139,112.662,76.986z" fill="#FFE42E" fill-rule="evenodd" i:knockout="Off" stroke="#000000" stroke-miterlimit="10" stroke-width="0.036"/>
      <path clip-rule="evenodd" d="     M126.306,93.545l-2.412,6.336l-14.147-2.447L85.41,86.238l12.636-4.393c4.032,2.305,8.424,4.32,13.176,6.336     C115.974,90.162,120.87,91.854,126.306,93.545z" fill="#FFE42E" fill-rule="evenodd" i:knockout="Off" stroke="#000000" stroke-miterlimit="10" stroke-width="0.036"/>
      <path clip-rule="evenodd" d="     M83.466,86.742l-10.728,3.383c12.132,2.809,19.296,4.32,21.924,4.393c2.34,0.072-4.896-2.664-6.84-3.889     C85.914,89.297,84.51,88.002,83.466,86.742z" fill="#FFE42E" fill-rule="evenodd" i:knockout="Off" stroke="#000000" stroke-miterlimit="10" stroke-width="0.036"/>
      <path clip-rule="evenodd" d="     M131.166,89.154c3.888,0.143,7.308,0.791,10.26,1.943c3.024,1.08,5.508,2.34,7.309,4.896c1.655,2.484,2.411,5.939,2.411,10.223     l-23.867-6.84c2.304-1.008,3.672-2.123,4.392-3.887C132.246,93.797,132.174,91.639,131.166,89.154z" fill="#FFE42E" fill-rule="evenodd" i:knockout="Off" stroke="#000000" stroke-miterlimit="10" stroke-width="0.036"/>
      <path clip-rule="evenodd" d="     M119.502,76.518c3.204-3.959,6.12-5.148,8.748-3.42c2.592,1.729,4.824,6.229,6.84,13.645h-6.336     c-1.548-1.873-2.88-3.385-4.392-4.393c-1.656-1.152-3.492-1.008-4.393-1.943C119.214,79.398,118.926,78.102,119.502,76.518z" fill="#FFE42E" fill-rule="evenodd" i:knockout="Off" stroke="#000000" stroke-miterlimit="10" stroke-width="0.036"/>
    </g>
  </g>
</svg>
