<?xml version="1.0" encoding="UTF-8" standalone="no"?>
<!-- Created with Inkscape (http://www.inkscape.org/) --><svg height="1052.3622" id="svg2" version="1.0" width="744.09448" x="0.00000000" xmlns="http://www.w3.org/2000/svg" xmlns:svg="http://www.w3.org/2000/svg" y="0.00000000">
  <metadata>
    <rdf:RDF xmlns:cc="http://web.resource.org/cc/" xmlns:dc="http://purl.org/dc/elements/1.1/" xmlns:rdf="http://www.w3.org/1999/02/22-rdf-syntax-ns#">
      <cc:Work rdf:about="">
        <dc:title>wedding couple</dc:title>
        <dc:description>wedding couple</dc:description>
        <dc:subject>
          <rdf:Bag>
            <rdf:li>people</rdf:li>
            <rdf:li>wedding</rdf:li>
            <rdf:li>festive</rdf:li>
          </rdf:Bag>
        </dc:subject>
        <dc:publisher>
          <cc:Agent rdf:about="http://www.openclipart.org/">
            <dc:title>Open Clip Art Library</dc:title>
          </cc:Agent>
        </dc:publisher>
        <dc:creator>
          <cc:Agent>
            <dc:title>Jarno Vasamaa</dc:title>
          </cc:Agent>
        </dc:creator>
        <dc:rights>
          <cc:Agent>
            <dc:title>Jarno Vasamaa</dc:title>
          </cc:Agent>
        </dc:rights>
        <dc:date></dc:date>
        <dc:format>image/svg+xml</dc:format>
        <dc:type rdf:resource="http://purl.org/dc/dcmitype/StillImage"/>
        <cc:license rdf:resource="http://web.resource.org/cc/PublicDomain"/>
        <dc:language>en</dc:language>
      </cc:Work>
      <cc:License rdf:about="http://web.resource.org/cc/PublicDomain">
        <cc:permits rdf:resource="http://web.resource.org/cc/Reproduction"/>
        <cc:permits rdf:resource="http://web.resource.org/cc/Distribution"/>
        <cc:permits rdf:resource="http://web.resource.org/cc/DerivativeWorks"/>
      </cc:License>
    </rdf:RDF>
  </metadata>
  <defs id="defs3">
    <linearGradient id="linearGradient2149">
      <stop id="stop2151" offset="0.00000000" style="stop-color:#2fb941;stop-opacity:1.0000000;"/>
      <stop id="stop2153" offset="1.0000000" style="stop-color:#2f8741;stop-opacity:1.0000000;"/>
    </linearGradient>
  </defs>
  <g id="layer1">
    <path d="M 174.19710,921.65461 C 174.19710,921.65461 160.01079,935.84092 167.10394,960.66697 C 174.19710,985.49301 174.19710,989.03959 191.92999,996.13270 C 209.66288,1003.2259 223.84919,974.85328 223.84919,974.85328 C 223.84919,974.85328 234.48892,989.03959 252.22181,989.03959 C 269.95470,989.03959 294.78074,985.49301 294.78074,985.49301 L 248.67523,893.28199 L 174.19710,921.65461 z " id="path2176" style="fill:#370000;fill-opacity:1.0000000;fill-rule:evenodd;stroke:#000000;stroke-width:1.7732888px;stroke-linecap:butt;stroke-linejoin:miter;stroke-opacity:1.0000000"/>
    <path d="M 356.00000 245.36218 A 32.000000 33.000000 0 1 1  292.00000,245.36218 A 32.000000 33.000000 0 1 1  356.00000 245.36218 z" id="path2167" style="fill:#4d2f2f;fill-opacity:1.0000000;fill-rule:nonzero;stroke:#5e5f60;stroke-width:1.9531846;stroke-linecap:round;stroke-linejoin:round;stroke-miterlimit:4.0000000;stroke-dashoffset:0.00000000;stroke-opacity:1.0000000" transform="matrix(1.811221,0.000000,0.000000,1.820375,-351.1042,-354.3648)"/>
    <path d="M 181.29026,198.15275 L 206.11630,169.78013 L 248.67523,173.32670 L 277.04786,191.05959 L 245.12866,453.50635 L 195.47657,396.76110 L 181.29026,198.15275 z " id="path2165" style="fill:#ffffff;fill-opacity:1.0000000;fill-rule:evenodd;stroke:#000000;stroke-width:1.7732888px;stroke-linecap:butt;stroke-linejoin:miter;stroke-opacity:1.0000000"/>
    <path d="M 235.77858,219.75463 C 235.77858,219.75463 236.74584,278.27317 235.77858,302.93800 C 234.81134,327.60284 226.10611,408.36809 226.10611,408.36809" id="path2192" style="fill:none;fill-opacity:0.75000000;fill-rule:evenodd;stroke:#000000;stroke-width:1.7732888px;stroke-linecap:butt;stroke-linejoin:miter;stroke-opacity:0.15675671"/>
    <path d="M 196.76623,208.14766 L 215.62758,227.97624 L 233.03805,200.89330 L 247.06315,225.55813 L 270.27712,205.72953" id="path2190" style="fill:none;fill-opacity:0.75000000;fill-rule:evenodd;stroke:#000000;stroke-width:1.7732888px;stroke-linecap:butt;stroke-linejoin:miter;stroke-opacity:0.35675672"/>
    <path d="M 408.89469,290.29426 L 377.24886,311.39148 C 377.24886,311.39148 386.03937,374.68314 394.82988,394.02226 C 403.62037,413.36137 407.13659,418.63569 405.37848,427.42620 C 403.62037,436.21671 405.37848,460.83014 389.55557,467.86254 C 373.73265,474.89494 373.73265,476.65305 364.94214,490.71786 C 356.15163,504.78268 270.00465,705.20628 270.00465,705.20628 L 252.42363,933.75951 C 252.42363,933.75951 240.11692,923.21090 250.66552,940.79191 C 261.21414,958.37293 248.90743,967.16345 277.03706,981.22825 C 305.16668,995.29310 292.85997,1004.0836 359.66783,1007.5998 C 426.47571,1011.1160 456.36343,1000.5674 491.52548,1009.3579 C 526.68751,1018.1484 530.20371,1002.3255 546.02663,1004.0836 C 561.84954,1005.8417 584.70488,1007.5998 625.14120,982.98636 C 665.57754,958.37293 672.60996,974.19585 677.88425,958.37293 C 683.15857,942.55002 700.73959,960.13104 690.19097,937.27571 C 679.64236,914.42039 637.44791,822.99910 625.14120,712.23868 C 605.80210,596.20397 570.64005,495.99217 542.51042,481.92736 C 512.62270,466.10445 530.20371,420.39379 530.20371,420.39379 L 542.51042,372.92503 L 542.51042,320.18198 L 503.83219,292.05235 L 408.89469,290.29426 z " id="path2143" style="fill:#ffffff;fill-opacity:1.0000000;fill-rule:evenodd;stroke:#000000;stroke-width:3.1919198;stroke-linecap:butt;stroke-linejoin:miter;stroke-miterlimit:4.0000000;stroke-opacity:1.0000000"/>
    <path d="M 164.51854,921.45279 C 164.51854,921.45279 162.76043,895.08127 162.76043,838.82202 C 162.76043,782.56276 162.76043,715.75488 157.48614,678.83474 C 152.21183,641.91462 129.35651,522.36369 129.35651,522.36369 L 340.32872,536.42851 C 340.32872,536.42851 324.50580,629.60791 308.68289,689.38336 C 292.85997,749.15882 287.58566,796.62757 280.55326,835.30582 C 273.52085,873.98405 268.24654,921.45279 257.69794,924.96899 C 247.14932,928.48521 224.29400,932.00141 219.01969,923.21090 C 213.74540,914.42039 217.26160,930.24330 204.95488,930.24330 C 192.64817,930.24330 171.55095,930.24330 164.51854,921.45279 z " id="path2121" style="fill:#464646;fill-opacity:1.0000000;fill-rule:evenodd;stroke:#000000;stroke-width:4.6105509;stroke-linecap:butt;stroke-linejoin:miter;stroke-miterlimit:4.0000000;stroke-opacity:1.0000000"/>
    <path d="M 356.00000 245.36218 A 32.000000 33.000000 0 1 1  292.00000,245.36218 A 32.000000 33.000000 0 1 1  356.00000 245.36218 z" id="path2169" style="fill:#4d2f2f;fill-opacity:1.0000000;fill-rule:nonzero;stroke:#5e5f60;stroke-width:1.5995318;stroke-linecap:round;stroke-linejoin:round;stroke-miterlimit:4.0000000;stroke-dashoffset:0.00000000;stroke-opacity:1.0000000" transform="matrix(2.423020,0.000000,0.000000,1.928792,-316.4955,-303.4725)"/>
    <path d="M 127.59840,548.73522 C 127.59840,548.73522 101.22688,550.49331 90.678259,548.73522 C 80.129655,546.97711 80.129655,541.70282 80.129655,541.70282 C 80.129655,541.70282 80.129655,427.42620 81.887746,401.05466 C 83.645856,374.68314 92.436368,253.37412 104.74308,242.82551 C 117.04980,232.27689 171.55095,205.90537 171.55095,205.90537 C 171.55095,205.90537 178.58335,193.59866 185.61577,188.32435 C 192.64817,183.05006 199.68057,181.29195 199.68057,181.29195 C 199.68057,181.29195 194.40626,190.08246 197.92248,221.72829 C 201.43868,253.37412 226.05211,418.63569 226.05211,418.63569 C 226.05211,418.63569 271.76275,211.17968 271.76275,198.87297 C 271.76275,186.56626 273.52085,188.32435 273.52085,188.32435 C 273.52085,188.32435 294.61808,197.11486 296.37617,205.90537 C 298.13428,214.69588 343.84492,221.72829 352.63543,228.76069 C 361.42594,235.79309 370.21645,232.27689 375.49075,267.43894 C 380.76506,302.60097 405.37848,378.19934 396.58797,388.74795 C 387.79746,399.29657 379.00697,425.66809 363.18403,437.97480 C 347.36112,450.28151 333.29631,457.31392 333.29631,457.31392 C 333.29631,457.31392 359.66783,589.17156 347.36112,597.96208 C 335.05440,606.75257 266.48843,620.81739 254.18174,608.51068 C 241.87503,596.20397 222.53589,538.18660 222.53589,538.18660 C 222.53589,538.18660 224.29400,571.59054 224.29400,582.13914 C 224.29400,592.68777 215.50349,617.30119 185.61577,613.78499 C 155.72803,610.26877 136.38891,613.78499 136.38891,613.78499 L 127.59840,548.73522 z " id="path2119" style="fill:#464646;fill-opacity:1.0000000;fill-rule:evenodd;stroke:#000000;stroke-width:4.2558937;stroke-linecap:butt;stroke-linejoin:miter;stroke-miterlimit:4.0000000;stroke-opacity:1.0000000"/>
    <path d="M 231.32507,408.85786 C 231.32507,408.85786 291.10053,400.06735 315.71396,384.24443 C 340.32739,368.42152 345.60168,371.93772 342.08548,340.29189 C 338.56928,308.64606 340.32739,310.40415 340.32739,310.40415" id="path2129" style="fill:none;fill-opacity:0.75000000;fill-rule:evenodd;stroke:#000000;stroke-width:4.6105509;stroke-linecap:butt;stroke-linejoin:miter;stroke-miterlimit:4.0000000;stroke-opacity:1.0000000"/>
    <path d="M 335.92204,362.36731 C 327.68678,361.68105 318.76522,358.93595 309.15740,365.79868 C 299.54960,372.66142 292.68686,379.52413 294.05941,389.13195 C 295.43195,398.73977 295.43195,407.66133 307.78486,413.15151 C 320.13778,418.64170 324.94167,424.13187 332.49069,420.70050 C 340.03969,417.26914 339.35341,417.95542 344.15732,405.60251 C 348.96123,393.24960 353.07888,400.79860 351.70631,389.13195 C 350.33377,377.46533 346.90242,368.54377 335.92204,362.36731 z " id="path2173" style="fill:#ffffff;fill-opacity:1.0000000;fill-rule:evenodd;stroke:#000000;stroke-width:3.5465777;stroke-linecap:butt;stroke-linejoin:miter;stroke-miterlimit:4.0000000;stroke-opacity:1.0000000"/>
    <path d="M 219.05007,919.72508 C 219.05007,919.72508 231.35678,847.64289 233.11489,794.89985 C 234.87298,742.15680 236.63109,724.57577 240.14729,687.65563 C 236.63109,654.25171 238.38920,627.88017 238.38920,627.88017" id="path2123" style="fill:none;fill-opacity:0.75000000;fill-rule:evenodd;stroke:#000000;stroke-width:5.1425381;stroke-linecap:butt;stroke-linejoin:miter;stroke-miterlimit:4.0000000;stroke-opacity:1.0000000"/>
    <path d="M 92.436368,546.97711 C 92.436368,546.97711 94.194460,564.55814 108.25928,594.44586 C 122.32409,624.33360 146.93752,633.12411 146.93752,633.12411 C 146.93752,633.12411 152.21183,599.72017 138.14700,582.13914 C 124.08220,564.55814 122.32409,548.73522 122.32409,548.73522 C 122.32409,548.73522 118.80791,543.46091 106.50119,550.49333 C 94.194478,557.52573 92.436368,546.97711 92.436368,546.97711 z " id="path2125" style="fill:#f4b153;fill-opacity:1.0000000;fill-rule:evenodd;stroke:#000000;stroke-width:3.5465777;stroke-linecap:butt;stroke-linejoin:miter;stroke-miterlimit:4.0000000;stroke-opacity:1.0000000"/>
    <path d="M 219.01971,464.34634 L 219.01971,409.84517 C 219.01971,409.84517 201.43868,394.02226 180.34146,399.29657 C 159.24423,404.57088 145.17942,408.08708 148.69562,423.91000 C 152.21183,439.73291 164.51854,457.31394 178.58337,462.58823 C 192.64817,467.86254 219.01971,464.34634 219.01971,464.34634 z " id="path2127" style="fill:#f4b153;fill-opacity:1.0000000;fill-rule:evenodd;stroke:#000000;stroke-width:3.5465777;stroke-linecap:butt;stroke-linejoin:miter;stroke-miterlimit:4.0000000;stroke-opacity:1.0000000"/>
    <path d="M 219.01969,409.84517 L 231.32640,409.84517 L 231.32640,464.34634 L 217.26160,464.34634 L 219.01969,409.84517 z " id="path2133" style="fill:#ffffff;fill-opacity:1.0000000;fill-rule:evenodd;stroke:#000000;stroke-width:3.5465777;stroke-linecap:butt;stroke-linejoin:miter;stroke-miterlimit:4.0000000;stroke-opacity:1.0000000"/>
    <path d="M 229.56831,462.58823 L 231.32640,476.65305 C 231.32640,476.65305 261.21414,471.37874 284.06946,467.86254 C 306.92478,464.34634 335.05440,455.55583 335.05440,455.55583" id="path2135" style="fill:none;fill-opacity:0.75000000;fill-rule:evenodd;stroke:#000000;stroke-width:4.2558937;stroke-linecap:butt;stroke-linejoin:miter;stroke-miterlimit:4.0000000;stroke-opacity:1.0000000"/>
    <path d="M 415.92709,286.77806 C 429.99191,283.26185 431.75000,277.98754 431.75000,277.98754 C 442.29861,274.47134 429.99191,265.68083 422.95951,246.34171 C 415.92711,227.00260 394.82988,165.46903 435.26622,174.25954 C 475.70256,183.05006 509.10648,135.58129 517.89700,168.98523 C 526.68751,202.38917 522.92940,228.27689 508.86459,247.61601 C 494.79977,266.95514 489.76737,265.68083 496.79977,276.22943 C 503.83217,286.77804 516.13891,300.84286 516.13891,300.84286 C 516.13891,300.84286 505.59028,327.21440 491.52546,336.00489 C 491.52546,346.55351 479.21876,344.79540 456.36343,341.27920 C 428.71328,345.35481 431.43035,331.36991 421.12148,313.62905 C 414.32882,307.07615 401.86228,290.29426 415.92709,286.77806 z " id="path2137" style="fill:#f4b153;fill-opacity:1.0000000;fill-rule:evenodd;stroke:#000000;stroke-width:2.8372622;stroke-linecap:butt;stroke-linejoin:miter;stroke-miterlimit:4.0000000;stroke-opacity:1.0000000"/>
    <path d="M 538.99422,383.44328 C 538.99422,383.44328 537.23611,408.05670 531.96182,415.08911 C 526.68751,422.12151 484.49306,446.73494 484.49306,446.73494 C 484.49306,446.73494 472.18634,478.38077 505.59028,476.62267 C 538.99422,474.86457 565.36574,460.79976 570.64005,448.49305 C 575.91436,436.18633 575.91436,392.23379 575.91436,392.23379 C 575.91436,392.23379 561.84954,378.16897 553.05903,378.16897 C 544.26853,378.16897 538.99422,383.44328 538.99422,383.44328 z " id="path2145" style="fill:#ffffff;fill-opacity:1.0000000;fill-rule:evenodd;stroke:#000000;stroke-width:2.8372622;stroke-linecap:butt;stroke-linejoin:miter;stroke-miterlimit:4.0000000;stroke-opacity:1.0000000"/>
    <path d="M 540.75231,318.42389 L 528.44560,344.79540 C 528.44560,344.79540 538.99422,364.13454 538.99422,376.44125 C 538.99422,388.74795 540.75231,385.23175 540.75231,385.23175 C 540.75231,385.23175 546.02663,379.95745 556.57525,383.47365 C 567.12385,386.98986 575.91436,395.78037 575.91436,395.78037 C 575.91436,395.78037 574.15625,379.95745 567.12385,360.61832 C 560.09145,341.27920 544.26853,323.69820 540.75231,318.42389 z " id="path2141" style="fill:#f4b153;fill-opacity:1.0000000;fill-rule:evenodd;stroke:#000000;stroke-width:2.8372622;stroke-linecap:butt;stroke-linejoin:miter;stroke-miterlimit:4.0000000;stroke-opacity:1.0000000"/>
    <path d="M 501.66643 470.38947 A 30.238787 18.837276 0 1 1  441.18886,470.38947 A 30.238787 18.837276 0 1 1  501.66643 470.38947 z" id="path2147" style="fill:#1b9630;fill-opacity:1.0000000;fill-rule:nonzero;stroke:#5e5f60;stroke-width:1.6000000;stroke-linecap:round;stroke-linejoin:round;stroke-miterlimit:4.0000000;stroke-dashoffset:0.00000000;stroke-opacity:1.0000000" transform="matrix(1.953854,0.000000,0.000000,1.773289,-439.5751,-375.0644)"/>
    <path d="M 230.94234,198.15275 C 213.20946,191.05959 199.02314,198.15275 195.47657,162.68697 C 191.92999,127.22119 181.29026,130.76777 188.38341,98.848570 C 195.47657,66.929368 195.47657,81.115679 195.47657,81.115679 C 195.47657,81.115679 220.30261,84.662257 245.12866,84.662257 C 269.95470,84.662257 277.04786,74.022524 277.04786,74.022524 L 284.14101,130.76777 C 281.65640,143.19081 269.95470,162.68697 262.86154,180.41986 C 255.76839,198.15275 230.94234,198.15275 230.94234,198.15275 z " id="path2163" style="fill:#f4b153;fill-opacity:1.0000000;fill-rule:evenodd;stroke:#000000;stroke-width:3.5465777;stroke-linecap:butt;stroke-linejoin:miter;stroke-miterlimit:4.0000000;stroke-opacity:1.0000000"/>
    <path d="M 167.10394,208.47006 L 206.11630,403.85426" id="path2178" style="fill:none;fill-opacity:0.75000000;fill-rule:evenodd;stroke:#000000;stroke-width:3.5465777;stroke-linecap:butt;stroke-linejoin:miter;stroke-miterlimit:4.0000000;stroke-opacity:1.0000000"/>
    <path d="M 301.22906,211.37182 L 252.22181,403.85426" id="path2180" style="fill:none;fill-opacity:0.75000000;fill-rule:evenodd;stroke:#000000;stroke-width:3.5465777;stroke-linecap:butt;stroke-linejoin:miter;stroke-miterlimit:4.0000000;stroke-opacity:1.0000000"/>
    <path d="M 220.30261,545.71737 L 223.84919,467.69266" id="path2182" style="fill:none;fill-opacity:0.75000000;fill-rule:evenodd;stroke:#000000;stroke-width:4.4332223;stroke-linecap:butt;stroke-linejoin:miter;stroke-miterlimit:4.0000000;stroke-opacity:1.0000000"/>
    <path d="M 204.84175,201.29333 C 202.85831,201.57876 201.59745,202.68880 201.73849,205.07163 C 202.30268,214.60293 207.40089,217.00774 206.83670,220.18485 C 206.27254,223.36195 199.49236,232.07786 207.39085,231.28362 C 212.15130,230.80490 219.87496,224.88213 225.51165,219.00413 C 227.13552,220.51791 229.26331,221.52299 231.60733,221.52299 C 234.29815,221.52299 236.63157,220.22691 238.31258,218.29570 C 246.75673,226.36354 256.62407,235.53926 259.31497,233.64505 C 263.82836,230.46796 260.44859,220.95746 262.14115,213.80896 C 263.83366,206.66046 267.74694,204.27733 254.77091,205.07163 C 248.61622,205.44836 243.44570,206.42005 239.47630,207.27565 C 237.90309,204.33786 235.05176,202.31661 231.60733,202.31661 C 228.38592,202.31661 225.65615,204.09632 224.01543,206.72463 C 220.08396,205.27816 210.21297,200.52034 204.84175,201.29333 z " id="path2186" style="fill:#000000;fill-opacity:1.0000000;fill-rule:evenodd;stroke:#000000;stroke-width:2.4545124px;stroke-linecap:butt;stroke-linejoin:miter;stroke-opacity:1.0000000"/>
    <path d="M 400.35655,475.36690 C 400.35655,475.36690 380.47968,482.82073 360.60282,584.68965 C 340.72595,686.55859 333.27212,800.85056 313.39526,840.60430 C 293.51839,880.35803 288.54919,900.23489 288.54919,900.23489 C 288.54919,900.23489 333.27212,853.02734 348.17977,733.76614 C 363.08742,614.50495 377.99507,507.66681 385.44890,497.72838 C 392.90272,487.78994 400.35655,475.36690 400.35655,475.36690 z " id="path2195" style="fill:#000000;fill-opacity:0.048648600;fill-rule:evenodd;stroke:none;stroke-width:1.0000000px;stroke-linecap:butt;stroke-linejoin:miter;stroke-opacity:1.0000000"/>
    <path d="M 428.54319,462.63800 C 428.54319,462.63800 409.77901,482.67927 396.40066,596.98187 C 383.02233,711.28451 382.34601,830.11522 365.42435,882.40380 C 348.50271,934.69236 344.83924,957.68674 344.83924,957.68674 C 344.83924,957.68674 385.32241,882.20704 392.91127,753.69035 C 400.50013,625.17367 408.79765,509.05983 415.42674,494.41273 C 422.05582,479.76565 428.54319,462.63800 428.54319,462.63800 z " id="path2197" style="fill:#000000;fill-opacity:0.048648600;fill-rule:evenodd;stroke:none;stroke-width:1.0000000px;stroke-linecap:butt;stroke-linejoin:miter;stroke-opacity:1.0000000"/>
    <path d="M 527.07159,500.21298 C 527.07159,500.21298 546.94845,507.66681 566.82532,609.53573 C 586.70218,711.40467 594.15601,825.69665 614.03287,865.45038 C 633.90974,905.20411 638.87894,925.08098 638.87894,925.08098 C 638.87894,925.08098 594.15601,877.87342 579.24836,758.61222 C 564.34071,639.35103 549.43306,532.51289 541.97924,522.57446 C 534.52541,512.63603 527.07159,500.21298 527.07159,500.21298 z " id="path2201" style="fill:#000000;fill-opacity:0.048648600;fill-rule:evenodd;stroke:none;stroke-width:1.0000000px;stroke-linecap:butt;stroke-linejoin:miter;stroke-opacity:1.0000000"/>
    <path d="M 472.41020,475.36690 C 472.41020,475.36690 493.17049,495.53727 513.93079,614.53984 C 534.69105,733.54237 542.47615,857.81928 563.23645,911.80067 C 583.99673,965.78207 589.18677,989.68079 589.18677,989.68079 C 589.18677,989.68079 542.47615,912.43707 526.90594,778.32054 C 511.33574,644.20402 495.76552,523.09173 487.98041,508.05039 C 480.19531,493.00907 472.41020,475.36690 472.41020,475.36690 z " id="path2203" style="fill:#000000;fill-opacity:0.048648600;fill-rule:evenodd;stroke:none;stroke-width:1.0000000px;stroke-linecap:butt;stroke-linejoin:miter;stroke-opacity:1.0000000"/>
    <path d="M 463.77400 453.37912 A 14.711864 10.508474 0 1 1  434.35027,453.37912 A 14.711864 10.508474 0 1 1  463.77400 453.37912 z" id="path2205" style="fill:#e20000;fill-opacity:1.0000000;fill-rule:nonzero;stroke:none;stroke-width:2.5000000;stroke-linecap:round;stroke-linejoin:round;stroke-miterlimit:4.0000000;stroke-dashoffset:0.00000000;stroke-opacity:0.35675672" transform="matrix(1.773289,0.000000,0.000000,1.773289,-340.0567,-352.2090)"/>
    <path d="M 463.77400 453.37912 A 14.711864 10.508474 0 1 1  434.35027,453.37912 A 14.711864 10.508474 0 1 1  463.77400 453.37912 z" id="path2207" style="fill:#e20000;fill-opacity:1.0000000;fill-rule:nonzero;stroke:none;stroke-width:2.5000000;stroke-linecap:round;stroke-linejoin:round;stroke-miterlimit:4.0000000;stroke-dashoffset:0.00000000;stroke-opacity:0.35675672" transform="matrix(1.773289,0.000000,0.000000,1.773289,-297.8183,-337.3015)"/>
    <path d="M 460.97175 461.78592 A 7.7062149 7.7062149 0 1 1  445.55932,461.78592 A 7.7062149 7.7062149 0 1 1  460.97175 461.78592 z" id="path2209" style="fill:#e2f7b6;fill-opacity:1.0000000;fill-rule:nonzero;stroke:none;stroke-width:2.5000000;stroke-linecap:round;stroke-linejoin:round;stroke-miterlimit:4.0000000;stroke-dashoffset:0.00000000;stroke-opacity:0.35675672" transform="matrix(1.773289,0.000000,0.000000,1.450873,-340.0567,-205.8064)"/>
    <path d="M 460.97175 461.78592 A 7.7062149 7.7062149 0 1 1  445.55932,461.78592 A 7.7062149 7.7062149 0 1 1  460.97175 461.78592 z" id="path2211" style="fill:#e2f7b6;fill-opacity:1.0000000;fill-rule:nonzero;stroke:none;stroke-width:2.5000000;stroke-linecap:round;stroke-linejoin:round;stroke-miterlimit:4.0000000;stroke-dashoffset:0.00000000;stroke-opacity:0.35675672" transform="matrix(1.773289,0.000000,0.000000,1.450873,-347.5105,-228.1680)"/>
    <path d="M 460.97175 461.78592 A 7.7062149 7.7062149 0 1 1  445.55932,461.78592 A 7.7062149 7.7062149 0 1 1  460.97175 461.78592 z" id="path2213" style="fill:#e2f7b6;fill-opacity:1.0000000;fill-rule:nonzero;stroke:none;stroke-width:2.5000000;stroke-linecap:round;stroke-linejoin:round;stroke-miterlimit:4.0000000;stroke-dashoffset:0.00000000;stroke-opacity:0.35675672" transform="matrix(2.579330,0.000000,0.000000,1.450873,-681.8031,-225.6832)"/>
    <path d="M 84.811315,544.93593 L 89.780531,559.84357 L 127.04966,557.35896 L 122.08044,547.42054 L 84.811315,544.93593 z " id="path2215" style="fill:#ffffff;fill-opacity:1.0000000;fill-rule:evenodd;stroke:#000000;stroke-width:3.5465777;stroke-linecap:butt;stroke-linejoin:miter;stroke-miterlimit:4.0000000;stroke-opacity:1.0000000"/>
    <path d="M 436.09336,274.46370 L 427.28197,282.96039 C 427.28197,282.96039 422.87628,284.21916 430.42889,287.68077 C 437.98151,291.14239 448.36635,296.17747 462.52751,297.43623 C 476.68866,298.69500 499.03181,293.65993 502.17874,291.45708 C 505.32566,289.25423 505.32566,288.93954 505.32566,288.93954 L 495.25551,274.14901 C 495.25551,274.14901 491.79389,278.24000 477.94743,279.18408 C 464.10097,280.12816 449.31043,281.38693 443.64597,278.86939 C 437.98151,276.35185 436.09336,274.46370 436.09336,274.46370 z " id="path2293" style="fill:#ffffff;fill-opacity:1.0000000;fill-rule:evenodd;stroke:#000000;stroke-width:3.7500000;stroke-linecap:butt;stroke-linejoin:miter;stroke-miterlimit:4.0000000;stroke-opacity:1.0000000"/>
  </g>
  <path d="M 125.84029,543.46091 C 125.84029,543.46091 127.59840,367.65074 122.32409,321.94009" id="path2131" style="fill:none;fill-opacity:0.75000000;fill-rule:evenodd;stroke:#000000;stroke-width:4.7878799;stroke-linecap:butt;stroke-linejoin:miter;stroke-miterlimit:4.0000000;stroke-opacity:1.0000000"/>
</svg>
