<?xml version="1.0" encoding="UTF-8" standalone="no"?>
<!-- Created with Inkscape (http://www.inkscape.org/) --><svg height="297mm" id="svg2347" inkscape:export-filename="C:\Documents and Settings\BRG\Desktop\glass.png" inkscape:export-xdpi="90.000000" inkscape:export-ydpi="90.000000" inkscape:version="0.42" sodipodi:docbase="C:\DOCUME~1\BRG\Desktop" sodipodi:docname="glass.svg" sodipodi:version="0.32" width="210mm" xmlns="http://www.w3.org/2000/svg" xmlns:cc="http://web.resource.org/cc/" xmlns:dc="http://purl.org/dc/elements/1.1/" xmlns:inkscape="http://www.inkscape.org/namespaces/inkscape" xmlns:rdf="http://www.w3.org/1999/02/22-rdf-syntax-ns#" xmlns:sodipodi="http://inkscape.sourceforge.net/DTD/sodipodi-0.dtd" xmlns:svg="http://www.w3.org/2000/svg" xmlns:xlink="http://www.w3.org/1999/xlink">
  <metadata>
    <rdf:RDF xmlns:cc="http://web.resource.org/cc/" xmlns:dc="http://purl.org/dc/elements/1.1/" xmlns:rdf="http://www.w3.org/1999/02/22-rdf-syntax-ns#">
      <cc:Work rdf:about="">
        <dc:title>Martini glass</dc:title>
        <dc:description>Martini glass with olive</dc:description>
        <dc:subject>
          <rdf:Bag>
            <rdf:li>food</rdf:li>
            <rdf:li>olive</rdf:li>
            <rdf:li>beverage</rdf:li>
            <rdf:li>glass</rdf:li>
            <rdf:li>alcohol</rdf:li>
          </rdf:Bag>
        </dc:subject>
        <dc:publisher>
          <cc:Agent rdf:about="http://www.openclipart.org/">
            <dc:title>Open Clip Art Library</dc:title>
          </cc:Agent>
        </dc:publisher>
        <dc:creator>
          <cc:Agent>
            <dc:title>K Yager</dc:title>
          </cc:Agent>
        </dc:creator>
        <dc:rights>
          <cc:Agent>
            <dc:title>K Yager</dc:title>
          </cc:Agent>
        </dc:rights>
        <dc:date>27 July 2005</dc:date>
        <dc:format>image/svg+xml</dc:format>
        <dc:type rdf:resource="http://purl.org/dc/dcmitype/StillImage"/>
        <cc:license rdf:resource="http://web.resource.org/cc/PublicDomain"/>
        <dc:language>en</dc:language>
      </cc:Work>
      <cc:License rdf:about="http://web.resource.org/cc/PublicDomain">
        <cc:permits rdf:resource="http://web.resource.org/cc/Reproduction"/>
        <cc:permits rdf:resource="http://web.resource.org/cc/Distribution"/>
        <cc:permits rdf:resource="http://web.resource.org/cc/DerivativeWorks"/>
      </cc:License>
    </rdf:RDF>
  </metadata>
  <defs id="defs2350"/>
  <sodipodi:namedview bordercolor="#666666" borderopacity="1.0" id="base" inkscape:current-layer="svg2347" inkscape:cx="422.09567" inkscape:cy="725.87989" inkscape:pageopacity="0.0" inkscape:pageshadow="2" inkscape:window-height="968" inkscape:window-width="1280" inkscape:window-x="-4" inkscape:window-y="-4" inkscape:zoom="1.8437578" pagecolor="#ffffff"/>
  <path d="M 412.27746,146.88583 L 286.10138,380.82932 L 291.47058,382.36337 L 416.87963,141.13312 L 412.27746,146.88583 z " id="path8942" style="fill:#fee09f;fill-opacity:1.0000000;fill-rule:evenodd;stroke:none;stroke-width:1.0000000px;stroke-linecap:butt;stroke-linejoin:miter;stroke-opacity:1.0000000"/>
  <path d="M 285.83222,294.80448 C 279.20997,293.02181 271.26890,284.61313 267.33783,277.71388 C 252.99491,246.24475 288.11757,224.48245 316.15573,225.28910 C 372.45581,240.67697 351.66816,320.15393 330.45057,356.07987 C 321.20749,371.73037 319.14007,372.25811 306.83145,384.20770 C 291.62676,396.73168 274.44990,407.01347 254.22421,405.22989 L 259.26425,399.30684 C 272.78207,399.06520 284.50543,393.51730 296.75142,388.44055 C 308.87824,376.88374 310.41286,376.84595 319.64406,361.50229 C 340.03482,327.60973 366.77764,246.99843 310.56945,231.90214 C 285.29305,231.80295 262.21038,244.45911 273.60889,272.85311 C 277.88752,280.87181 284.46657,286.15545 291.73975,291.11304 L 285.83222,294.80448 z " id="path11914" style="fill:#fbe0a6;fill-opacity:1.0000000;fill-rule:nonzero;stroke:none;stroke-width:1.0000000px;stroke-linecap:butt;stroke-linejoin:miter;stroke-opacity:1.0000000"/>
  <g id="g8938" transform="translate(-69.03250,-5.369195)">
    <path d="M 354.75037 268.84326 A 18.025154 18.025154 0 1 1  318.70007,268.84326 A 18.025154 18.025154 0 1 1  354.75037 268.84326 z" id="path8934" sodipodi:cx="336.72522" sodipodi:cy="268.84326" sodipodi:rx="18.025154" sodipodi:ry="18.025154" sodipodi:type="arc" style="opacity:1.0000000;fill:#72b445;fill-opacity:1.0000000;stroke:none;stroke-width:4.0000000;stroke-linecap:butt;stroke-linejoin:miter;stroke-miterlimit:4.0000000;stroke-dasharray:none;stroke-dashoffset:0.00000000;stroke-opacity:1.0000000" transform="translate(70.95007,5.752709)"/>
    <path d="M 356.66796 273.06192 A 9.9713621 9.9713621 0 1 1  336.72523,273.06192 A 9.9713621 9.9713621 0 1 1  356.66796 273.06192 z" id="path8936" sodipodi:cx="346.69659" sodipodi:cy="273.06192" sodipodi:rx="9.9713621" sodipodi:ry="9.9713621" sodipodi:type="arc" style="opacity:1.0000000;fill:#febe53;fill-opacity:1.0000000;stroke:none;stroke-width:4.0000000;stroke-linecap:butt;stroke-linejoin:miter;stroke-miterlimit:4.0000000;stroke-dasharray:none;stroke-dashoffset:0.00000000;stroke-opacity:1.0000000" transform="translate(67.49845,4.985678)"/>
  </g>
  <g id="g12664">
    <path d="M 303.71843,364.19913 C 289.19705,368.21366 272.82608,361.28989 260.68276,353.67582 C 251.58366,347.54131 232.98066,326.88326 244.28362,315.26833 C 247.18569,312.28615 252.78105,310.06478 255.73078,308.50773 C 284.42929,302.03659 322.29296,311.11171 343.85789,331.71338 C 350.91553,338.45578 355.89766,346.69587 360.68505,355.07677 C 374.45958,394.43726 334.24341,415.33511 300.46661,409.51993 L 304.78769,407.02516 C 338.68782,413.01094 368.74574,396.04298 356.53364,357.47359 C 351.85883,348.89611 347.02527,340.83186 339.84697,334.02909 C 317.66109,313.00383 279.84525,304.28280 250.53426,311.50794 C 251.08522,311.04316 252.76144,309.67797 252.18715,310.11360 C 247.68189,313.53106 246.00853,317.73390 246.85386,323.37314 C 248.56914,334.81603 256.50739,344.30856 265.66010,350.80215 C 277.85230,358.43032 295.19228,365.76706 309.72034,360.73392 L 303.71843,364.19913 z " id="path11912" style="fill:#fbe0a6;fill-opacity:1.0000000;fill-rule:nonzero;stroke:none;stroke-width:1.0000000px;stroke-linecap:butt;stroke-linejoin:miter;stroke-opacity:1.0000000"/>
    <path d="M 382.37171,310.20236 C 347.39540,288.65700 303.04295,278.56445 262.27214,278.69311 C 262.34272,279.79520 248.48809,278.84263 248.37250,283.77438 C 248.33619,285.32375 251.80392,282.31970 252.99836,283.30721 C 254.38136,284.45063 253.50208,286.89501 254.16429,288.56281 C 254.93283,290.49837 256.09524,292.26159 257.24360,293.99892 C 264.40254,304.82950 275.61559,314.77769 287.03913,321.02336 C 288.57491,322.08723 289.36943,321.89366 290.82434,321.46069 L 286.68039,327.21298 C 284.92122,327.34930 283.36458,327.10327 281.75130,326.23695 C 260.12103,315.92821 222.02629,279.02644 268.64228,271.06074 C 308.63357,270.14847 355.93225,279.68100 387.63248,305.62924 L 382.37171,310.20236 z " id="path11916" style="fill:#fbe0a6;fill-opacity:1.0000000;fill-rule:nonzero;stroke:none;stroke-width:1.0000000px;stroke-linecap:butt;stroke-linejoin:miter;stroke-opacity:1.0000000"/>
    <path d="M 301.31469,245.81676 C 302.23805,214.24658 319.68989,207.75111 349.37625,214.12263 C 371.87691,220.71761 395.56589,238.93256 396.63726,264.45512 C 396.76662,267.53684 396.38070,272.71783 394.60956,275.46423 C 389.89001,282.78253 381.37883,285.55610 373.74832,288.31984 C 351.40695,292.21713 327.19315,294.10137 305.09066,287.51042 L 307.55859,285.03430 C 326.29375,297.44219 353.33007,290.62275 373.83011,288.20732 C 422.03528,270.71779 382.05021,222.30582 349.28241,214.22532 C 328.20800,209.70682 297.30829,212.53734 306.84663,242.13772 L 301.31469,245.81676 z " id="path11918" style="fill:#fbe0a6;fill-opacity:1.0000000;fill-rule:nonzero;stroke:none;stroke-width:1.0000000px;stroke-linecap:butt;stroke-linejoin:miter;stroke-opacity:1.0000000"/>
    <path d="M 178.44146,263.39034 C 188.46024,287.33812 205.80362,308.30143 225.92367,324.42613 C 254.44304,344.30930 290.61224,354.49483 321.24429,334.33945 C 327.40232,329.73408 332.43984,323.80282 337.16090,317.76618 L 342.31773,315.46825 C 335.14282,323.56386 327.69706,331.48424 318.90770,337.87728 C 287.96636,357.37406 252.29642,346.00970 223.98876,326.19360 C 203.00092,310.26694 188.26827,288.69947 172.94904,267.57642 L 178.44146,263.39034 z " id="path11924" style="fill:#fbe0a6;fill-opacity:1.0000000;fill-rule:nonzero;stroke:none;stroke-width:1.0000000px;stroke-linecap:butt;stroke-linejoin:miter;stroke-opacity:1.0000000"/>
  </g>
  <g id="g7451">
    <path d="M 235.71875,362.18750 L 330.59375,373.15625 L 241.75000,372.65625 L 286.87500,392.34375 L 355.90625,363.18750 L 235.71875,362.18750 z " id="path3086" style="opacity:1.0000000;fill:#000000;fill-opacity:1.0000000;fill-rule:evenodd;stroke:#000000;stroke-width:1.0000000px;stroke-linecap:butt;stroke-linejoin:miter;stroke-opacity:1.0000000"/>
    <path d="M 286.48489,386.96554 L 286.48489,492.43187 L 263.09055,492.43187 L 263.09055,488.59673 C 263.09055,488.59673 281.88273,488.59673 283.03327,477.09131 C 284.18381,465.58589 283.41678,386.96554 283.41678,386.96554 L 286.48489,386.96554 z " id="path5269" sodipodi:nodetypes="ccccscc" style="fill:#000000;fill-opacity:1.0000000;fill-rule:evenodd;stroke:#000000;stroke-width:1.0000000px;stroke-linecap:butt;stroke-linejoin:miter;stroke-opacity:1.0000000"/>
    <use height="1052.3622" id="use5997" transform="matrix(-1.000000,0.000000,0.000000,1.000000,572.9697,0.000000)" width="744.09448" x="0.00000000" xlink:href="#path5269" y="0.00000000"/>
  </g>
  <path d="M 322.91871,366.25579 C 322.91871,366.25579 325.21980,347.08009 346.31306,335.19116 C 367.40633,323.30223 376.61066,322.91872 394.25230,324.06926 C 411.89394,325.21980 424.54990,334.42413 430.68612,344.39550 C 436.82235,354.36686 439.89046,376.61067 424.93341,388.11608 C 409.97637,399.62150 391.18419,401.15556 380.06229,389.65014 C 368.94038,378.14472 371.24147,359.35254 381.97986,354.75037 C 392.71825,350.14821 395.40284,350.91523 397.70393,350.91523 C 400.00501,350.91523 383.89743,353.98334 383.13040,368.17336 C 382.36337,382.36337 390.41716,390.03365 401.92258,390.41717 C 413.42800,390.80068 426.85098,392.71825 433.37072,371.62498 C 439.89046,350.53172 418.41368,335.57468 411.89394,332.89008 C 405.37420,330.20548 383.89743,319.85061 358.96902,331.73954 C 334.04062,343.62847 328.67142,362.03714 327.90439,366.63930 C 327.13737,371.24147 322.91871,365.87228 322.91871,366.25579 z " id="path11180" style="fill:#000000;fill-opacity:1.0000000;fill-rule:evenodd;stroke:#000000;stroke-width:1.0000000px;stroke-linecap:butt;stroke-linejoin:miter;stroke-opacity:1.0000000"/>
</svg>
