<?xml version="1.0" encoding="UTF-8" standalone="no"?>
<!-- Created with Inkscape (http://www.inkscape.org/) --><svg height="297mm" id="svg2" inkscape:version="0.42.2" sodipodi:docbase="/home/erich" sodipodi:docname="dancers.svg" sodipodi:version="0.32" width="210mm" xmlns="http://www.w3.org/2000/svg" xmlns:cc="http://web.resource.org/cc/" xmlns:dc="http://purl.org/dc/elements/1.1/" xmlns:inkscape="http://www.inkscape.org/namespaces/inkscape" xmlns:rdf="http://www.w3.org/1999/02/22-rdf-syntax-ns#" xmlns:sodipodi="http://inkscape.sourceforge.net/DTD/sodipodi-0.dtd" xmlns:svg="http://www.w3.org/2000/svg">
  <metadata>
    <rdf:RDF xmlns:cc="http://web.resource.org/cc/" xmlns:dc="http://purl.org/dc/elements/1.1/" xmlns:rdf="http://www.w3.org/1999/02/22-rdf-syntax-ns#">
      <cc:Work rdf:about="">
        <dc:title>Dancers</dc:title>
        <dc:description></dc:description>
        <dc:subject>
          <rdf:Bag>
            <rdf:li>people</rdf:li>
            <rdf:li>activities</rdf:li>
          </rdf:Bag>
        </dc:subject>
        <dc:publisher>
          <cc:Agent rdf:about="http://www.openclipart.org/">
            <dc:title>Open Clip Art Library</dc:title>
          </cc:Agent>
        </dc:publisher>
        <dc:creator>
          <cc:Agent>
            <dc:title>Erich Schubert</dc:title>
          </cc:Agent>
        </dc:creator>
        <dc:rights>
          <cc:Agent>
            <dc:title>Erich Schubert</dc:title>
          </cc:Agent>
        </dc:rights>
        <dc:date></dc:date>
        <dc:format>image/svg+xml</dc:format>
        <dc:type rdf:resource="http://purl.org/dc/dcmitype/StillImage"/>
        <cc:license rdf:resource="http://web.resource.org/cc/PublicDomain"/>
        <dc:language>en</dc:language>
      </cc:Work>
      <cc:License rdf:about="http://web.resource.org/cc/PublicDomain">
        <cc:permits rdf:resource="http://web.resource.org/cc/Reproduction"/>
        <cc:permits rdf:resource="http://web.resource.org/cc/Distribution"/>
        <cc:permits rdf:resource="http://web.resource.org/cc/DerivativeWorks"/>
      </cc:License>
    </rdf:RDF>
  </metadata>
  <defs id="defs4"/>
  <sodipodi:namedview bordercolor="#666666" borderopacity="1.0" id="base" inkscape:current-layer="layer1" inkscape:cx="573.75887" inkscape:cy="752.47147" inkscape:document-units="px" inkscape:pageopacity="0.0" inkscape:pageshadow="2" inkscape:window-height="1129" inkscape:window-width="1600" inkscape:window-x="0" inkscape:window-y="26" inkscape:zoom="0.89571785" pagecolor="#ffffff"/>
  <g id="layer1" inkscape:groupmode="layer" inkscape:label="Ebene 1">
    <g id="g2387" transform="matrix(0.670833,2.973297e-2,-2.973297e-2,0.670833,-0.163868,22.68053)">
      <path d="M 278.60702,398.49991 C 322.69437,492.26357 336.71945,601.59694 368.14908,699.58700 C 365.52092,721.25451 385.51619,737.19168 404.83007,725.28402 C 426.54242,712.60529 411.24688,684.58804 410.69557,665.17877 C 402.61331,601.77090 392.60853,538.25106 372.91263,477.29723 C 368.24603,456.58490 355.30650,436.60202 359.61467,414.69159 C 377.35068,401.13535 398.52624,419.19776 418.22746,415.58718 C 438.47146,416.68701 458.72232,417.90272 478.87527,420.16606 C 494.56747,439.73046 469.07665,459.03674 465.43729,478.32969 C 456.94912,496.71739 447.04463,514.54777 440.78493,533.88200 C 447.66772,546.13634 469.02912,579.32121 480.15222,554.94985 C 497.67324,511.59566 516.92899,468.86906 531.21981,424.29062 C 537.42653,408.52497 554.53418,381.96443 530.96146,372.72263 C 508.55772,369.36682 488.46274,359.02384 465.94747,356.15720 C 436.82785,351.05527 407.02750,353.33272 378.07528,357.45333 C 356.60820,354.18335 336.01793,360.95405 317.19292,370.65668 C 302.95929,373.96125 282.20675,390.64648 271.35747,383.91156 C 271.58668,362.41227 303.17078,368.95510 315.44254,357.14121 C 333.86998,347.94646 354.34360,340.03875 375.18432,344.11069 C 406.02055,342.27930 437.26956,335.62103 467.87760,343.27405 C 492.25257,347.83180 516.96442,353.24218 539.61303,363.44620 C 558.72849,369.79586 557.26226,391.73349 550.76463,406.74965 C 534.47385,449.88674 520.71613,494.02512 501.73440,536.09766 C 493.44834,551.43651 492.69199,584.19449 468.98926,580.68605 C 451.99881,569.97709 430.04100,553.55146 428.42359,532.04882 C 431.28845,511.13036 446.32341,494.70937 452.74307,474.90201 C 459.00836,459.92898 464.98985,444.71427 473.62631,430.90238 C 447.69067,433.77653 421.98378,426.49481 396.04719,427.25632 C 386.93737,424.07362 362.68419,418.86708 374.12319,436.22620 C 391.25363,495.24916 409.52483,554.39760 416.07441,615.75654 C 421.51765,650.06112 427.23902,684.36524 430.30160,718.98569 C 421.76685,740.88773 391.47591,742.54908 371.78106,740.72483 C 353.43663,727.21128 357.75049,700.68060 349.24215,681.55759 C 327.42985,602.31081 312.10044,520.95807 282.41947,444.09009 C 275.79894,427.18095 269.32653,411.70243 265.12710,394.05520 C 262.47469,374.97575 275.15932,385.06342 278.60702,398.49991 z " id="path1376" sodipodi:nodetypes="cccccccccccccccccccccccccccccccccccc" style="fill:#000000;fill-opacity:1.0000000;fill-rule:nonzero;stroke:none;stroke-width:3.0000000pt;stroke-linecap:butt;stroke-linejoin:miter;stroke-opacity:1.0000000"/>
      <path d="M 441.14661,544.50714 C 439.76462,553.64830 430.51117,560.20155 431.55379,569.92406 C 432.55329,575.93216 437.33416,580.23215 440.54271,585.12314 C 448.22898,595.26847 456.20523,605.69208 467.18528,612.47787 C 464.33877,600.35018 461.83255,588.13118 459.75219,575.84828 C 457.48922,570.61881 472.97035,577.64226 474.02251,581.12631 C 476.13246,590.91516 477.51457,600.85003 479.70870,610.61953 C 480.72159,617.13413 480.30396,625.19549 474.51339,629.44089 C 469.50475,632.32568 463.51288,629.30698 459.79971,625.65826 C 444.83040,612.92027 432.21499,597.59534 421.40920,581.23163 C 416.54846,572.79747 416.88996,561.92733 421.89426,553.63674 C 424.82449,548.47043 427.20586,543.03871 429.37197,537.52512 C 431.29101,534.50831 439.13515,543.31702 441.14661,544.50714 z " id="path1380" sodipodi:nodetypes="ccccccccccccc" style="fill:#000000;fill-opacity:1.0000000;fill-rule:nonzero;stroke:none;stroke-width:3.0000000pt;stroke-linecap:butt;stroke-linejoin:miter;stroke-opacity:1.0000000"/>
      <path d="M 389.09979,738.33667 C 388.96889,743.60830 389.32286,748.91411 390.47051,754.06963 C 393.66134,758.53783 399.71733,758.17351 404.59471,758.30925 C 418.90277,758.88300 433.23154,758.66474 447.53608,759.35102 C 449.49423,754.50994 443.83063,751.69290 441.04761,748.79779 C 434.32838,742.36333 427.20809,736.30859 419.45121,731.15340 C 419.12146,727.38721 420.07286,722.68592 423.60995,720.68195 C 427.59663,720.28650 431.14442,723.41565 434.52867,725.27461 C 444.11852,731.89242 451.95750,740.63600 459.94691,749.02212 C 463.55082,753.38286 467.10346,759.39563 464.79009,765.15786 C 461.65567,771.47009 453.81610,773.35795 447.32130,772.61680 C 430.50274,772.20720 413.66577,772.17089 396.86481,771.27878 C 389.39323,770.67136 381.17474,767.29880 378.24245,759.85426 C 375.82628,754.17801 376.18862,747.89098 375.56879,741.87688 C 378.07430,739.12995 387.95230,738.39235 389.09979,738.33667 z " id="path1382" sodipodi:nodetypes="ccccccccccccccc" style="fill:#000000;fill-opacity:1.0000000;fill-rule:nonzero;stroke:none;stroke-width:3.0000000pt;stroke-linecap:butt;stroke-linejoin:miter;stroke-opacity:1.0000000"/>
      <path d="M 353.91339,355.06415 C 348.47813,316.36863 346.04117,277.25599 346.55147,238.18525 C 338.18498,217.09474 359.98417,197.93776 380.45262,204.09282 C 439.55363,203.23235 498.63439,204.37970 557.74326,204.33087 C 563.53202,189.11129 558.75821,176.70882 540.76576,182.35453 C 502.74762,179.75649 464.53206,179.74549 426.74762,185.08840 C 399.30094,188.23605 372.05382,183.05433 345.65774,175.97532 C 325.43131,168.59915 310.06156,184.81680 292.09452,190.36430 C 270.04871,198.27514 247.32214,206.93386 223.76534,207.85658 C 204.57240,204.73553 202.95997,236.01977 189.69954,246.93959 C 167.17390,278.89417 153.87126,316.03188 132.38050,348.63068 C 121.80698,367.07939 100.57676,389.27962 126.48791,405.47749 C 146.80639,423.56361 165.65906,442.94982 183.04619,463.82299 C 196.70984,484.20097 224.02977,456.89854 201.78631,444.42760 C 184.18408,429.93476 168.20273,413.46869 153.26971,396.26755 C 135.71604,371.40259 168.45366,347.71271 178.42951,326.30217 C 193.64572,306.60576 198.82006,277.07012 221.45296,264.38819 C 247.79097,259.18921 250.97049,294.00885 257.60184,311.72647 C 265.29746,337.75618 275.21845,363.41166 278.14558,390.57912 C 273.57991,403.64496 263.39454,393.23621 272.66510,385.07013 C 254.69369,388.14859 263.58317,355.67143 254.26309,344.51553 C 247.66365,321.92718 240.84599,299.33440 231.65991,277.63731 C 205.25503,284.77857 203.87774,319.31880 187.13419,337.48575 C 176.40394,354.62731 148.32145,380.46507 172.48118,397.90987 C 188.67072,416.28943 208.35618,431.53305 223.88398,450.36377 C 231.89205,471.24517 199.63093,497.63454 182.18627,480.02011 C 161.19420,462.03435 145.62477,438.51364 124.07080,420.98840 C 104.78297,407.67978 88.381427,381.82349 108.95290,361.89776 C 139.93937,316.67153 158.54131,264.03164 191.68215,220.15126 C 197.87353,201.61165 212.18631,187.39550 232.60007,193.62846 C 262.77104,188.41390 292.10516,177.71343 318.95271,163.07107 C 336.33853,155.64430 354.43628,166.40240 372.01745,168.28423 C 397.17960,175.00018 423.13353,172.52520 448.59360,169.44848 C 476.72846,166.44020 505.09882,166.47516 533.22268,169.03447 C 556.85976,162.82914 586.54206,177.47772 570.82748,204.91515 C 559.52616,230.05504 528.30272,212.56510 507.39850,217.38234 C 468.90790,217.29770 430.39248,216.90022 391.97341,217.45804 C 375.53651,215.51913 353.11164,216.17746 359.69419,238.82632 C 359.84955,277.66945 361.50641,316.63805 367.56319,355.06415 C 363.01326,355.06415 358.46332,355.06415 353.91339,355.06415 z " id="path1384" style="fill:#000000;fill-opacity:1.0000000;fill-rule:nonzero;stroke:none;stroke-width:3.0000000pt;stroke-linecap:butt;stroke-linejoin:miter;stroke-opacity:1.0000000"/>
      <path d="M 691.84216,389.68176 C 690.82847,402.36739 694.65954,415.75587 704.47401,424.30173 C 714.49794,435.50685 729.42471,444.20560 744.91612,441.29131 C 757.24912,440.80900 768.83254,432.17672 781.35131,435.87365 C 791.96493,443.06650 803.51278,450.78075 817.00791,449.50379 C 841.15493,448.09291 858.72162,440.79414 880.88375,433.01899 C 893.69759,422.64727 899.37281,407.45900 899.26901,395.30150 C 898.65547,383.71039 907.52734,369.28647 897.92064,359.74497 C 886.86317,356.05025 875.26726,353.36774 863.97290,350.11633 C 846.70826,345.68424 829.56001,340.50717 812.18815,336.67304 C 800.35480,337.04391 791.61040,346.40281 781.08844,350.69189 C 756.88202,363.49360 731.41367,373.78495 707.55182,387.25623 C 699.15259,390.89137 683.47629,403.48699 681.88834,386.73281 C 687.21909,378.41091 700.77072,378.49613 708.53534,371.92634 C 728.29586,361.56542 748.63316,352.36384 768.70951,342.67979 C 781.51598,336.00485 793.56092,327.06021 807.54532,323.16238 C 823.47741,322.85143 837.94304,330.78460 853.28901,333.88949 C 871.48154,339.08689 890.47131,342.16716 907.76071,350.07427 C 919.06544,357.15333 915.98684,371.80694 913.93786,382.73298 C 912.09292,396.00566 912.33254,409.78377 908.17551,422.60181 C 902.29843,433.95132 892.10254,443.21420 882.04886,449.06989 C 860.03843,458.84403 833.87524,465.38550 808.70041,462.46758 C 797.87683,461.67584 787.86159,456.78035 779.55439,450.07763 C 768.24434,446.19462 757.50737,454.73130 746.10023,454.63234 C 730.63513,456.63486 714.41891,451.87817 703.15161,440.93140 C 690.36733,430.88608 679.61286,416.79454 678.55393,400.02080 C 672.32817,390.40672 692.34589,373.96935 691.84216,389.68176 L 691.84216,389.68176 z " id="path1394" sodipodi:nodetypes="cccccccccccccccccccccccccccc" style="fill:#000000;fill-opacity:1.0000000;fill-rule:nonzero;stroke:none;stroke-width:3.0000000pt;stroke-linecap:butt;stroke-linejoin:miter;stroke-opacity:1.0000000"/>
      <path d="M 682.40833,410.43356 C 670.06586,419.07156 655.30444,423.40723 642.66168,431.42202 C 634.67083,439.42013 637.59154,451.57647 638.79453,461.52925 C 641.92270,493.95982 642.34996,526.58954 645.86442,558.98644 C 647.24408,565.57351 645.11388,573.44368 649.17045,579.09713 C 657.39423,587.07939 669.50944,577.58530 665.19809,567.63209 C 666.08760,543.82472 669.82448,520.20938 670.34405,496.37002 C 671.02504,486.12911 670.27523,475.70874 671.57946,465.57209 C 675.07087,456.11284 686.56081,455.57699 695.07696,455.00050 C 704.54717,453.02018 713.43983,448.97076 721.86054,444.29739 C 732.67583,442.87058 732.55117,459.52640 721.89732,458.55993 C 711.67481,463.96671 700.72656,469.58064 688.82576,469.03366 C 681.03111,473.05779 684.19621,482.69208 684.53365,489.61976 C 683.26585,504.95231 682.49541,520.46050 680.92950,535.83420 C 679.66515,550.03763 678.45876,564.26352 678.27262,578.52972 C 681.65354,586.24368 676.00955,598.77379 666.46247,596.72399 C 656.99471,593.91456 645.04703,596.22748 637.85576,587.87332 C 630.21824,574.39262 634.03390,558.30850 630.79508,543.74673 C 628.45413,518.56744 628.90954,493.19989 625.84998,468.07368 C 625.16162,457.58464 623.28146,446.94669 624.60892,436.47827 C 627.83730,423.35051 640.16764,414.78985 652.57279,411.30821 C 661.28514,407.29918 669.43493,401.26556 679.25059,400.33621 C 680.30309,403.70202 681.35579,407.06777 682.40833,410.43356 z " id="path1404" style="fill:#000000;fill-opacity:1.0000000;fill-rule:nonzero;stroke:none;stroke-width:3.0000000pt;stroke-linecap:butt;stroke-linejoin:miter;stroke-opacity:1.0000000"/>
      <path d="M 636.18481,601.10803 C 628.77834,611.67737 624.05479,623.79260 617.39808,634.80449 C 612.70663,637.55733 616.80350,645.91289 621.83096,644.20330 C 630.38203,642.54580 634.67053,634.16165 640.69382,628.80028 C 650.49531,618.82944 660.17307,608.04071 665.02929,594.69430 C 667.97957,589.58283 677.37515,590.54321 678.34330,596.71210 C 679.75282,602.94609 674.99953,608.13173 671.74551,612.88510 C 660.91809,627.67396 647.91740,640.70570 634.91077,653.54610 C 629.58706,657.84080 622.27813,658.31782 615.83898,656.79412 C 609.84496,655.56516 603.49281,652.98614 599.94296,647.78664 C 598.00788,642.26927 601.74086,637.04455 603.92167,632.22033 C 610.38438,619.77539 617.25698,607.54479 623.72716,595.10597 C 626.34897,590.65541 628.93581,585.79558 633.22892,582.76762 C 637.77563,581.00658 643.57060,586.55388 640.80588,591.02980 C 639.62135,594.54170 637.84564,597.80760 636.18481,601.10803 z " id="path1408" style="fill:#000000;fill-opacity:1.0000000;fill-rule:nonzero;stroke:none;stroke-width:3.0000000pt;stroke-linecap:butt;stroke-linejoin:miter;stroke-opacity:1.0000000"/>
      <path d="M 825.06860,461.24887 C 822.02338,475.83719 821.91400,490.85793 819.64278,505.57965 C 815.17410,552.42232 813.18099,599.46205 808.75260,646.30962 C 807.26887,665.46596 805.89525,684.71492 807.13808,703.92645 C 813.89211,707.11735 829.14492,714.97761 827.97165,701.84656 C 836.88930,678.03909 837.04982,657.36693 841.41400,627.52237 C 845.77818,597.67782 849.94262,548.24357 852.71218,522.71209 C 855.48174,497.18061 856.91367,490.01550 858.84399,474.07862 C 860.78059,458.08989 860.18066,449.20657 872.94252,446.14288 C 878.45034,442.42697 881.39944,441.97858 878.10458,448.89701 C 874.10871,461.01728 873.80401,469.96675 872.12439,486.50921 C 870.40511,503.44231 868.48522,514.54252 864.82648,541.72838 C 861.22665,568.47647 855.99702,616.09241 852.83871,645.66053 C 849.68040,675.22865 845.51364,694.61335 836.74119,717.62419 C 828.65982,728.30684 813.64191,720.68235 803.36201,717.68722 C 792.04100,713.59191 792.93848,700.79062 793.44105,691.03128 C 794.46575,649.56988 801.01890,608.48682 802.70405,567.05362 C 804.85810,531.94011 806.12405,496.50700 812.95744,461.94975 C 815.17258,455.57454 821.28643,458.68862 825.06860,461.24887 z " id="path1422" sodipodi:nodetypes="ccccczzzcczzzcccccc" style="fill:#000000;fill-opacity:1.0000000;fill-rule:nonzero;stroke:none;stroke-width:3.0000000pt;stroke-linecap:butt;stroke-linejoin:miter;stroke-opacity:1.0000000"/>
      <path d="M 802.00647,324.79028 C 807.04650,293.46976 806.70973,261.54156 811.08934,230.18938 C 813.60899,222.64278 816.85589,203.07242 803.26642,211.70960 C 789.52588,215.59947 776.13589,225.27389 761.42791,222.35014 C 747.78656,218.60219 746.71045,202.80433 742.02711,191.73325 C 738.08050,181.11992 741.00186,166.17363 753.67768,163.63320 C 775.10442,155.97354 796.01266,146.86613 817.21015,138.69293 C 835.12961,132.96160 848.87555,147.49148 863.22114,155.22145 C 882.63780,166.09486 904.08668,174.73870 926.62179,175.16545 C 942.51373,168.47191 957.49695,180.65152 968.91971,190.29446 C 984.53543,200.35945 1001.1046,208.80402 1017.2881,217.89311 C 1027.0568,228.57727 1015.1399,240.80800 1008.2850,249.28411 C 1002.0004,265.11235 982.32171,264.84946 969.75849,257.15298 C 957.62726,254.00386 945.66135,237.81160 937.20404,237.15190 C 932.47395,251.85904 931.38735,267.49598 924.03557,281.39014 C 916.80620,302.77559 911.96475,325.44024 913.89687,348.11466 C 910.61712,363.47337 891.47888,346.69231 900.23864,337.13324 C 899.77795,306.63118 911.70410,278.25843 920.64984,249.70032 C 921.61139,239.12087 920.89452,218.99056 935.98321,219.28898 C 950.52141,225.37873 960.50128,239.61433 975.60819,245.25545 C 989.30428,256.31421 1000.5358,239.54044 1006.4879,228.76416 C 1000.3463,220.25103 987.55719,218.65754 979.32379,211.81387 C 967.37377,205.01180 955.35116,198.03347 945.15705,188.70373 C 930.99769,185.91001 916.22151,191.42650 902.37686,185.40700 C 876.89763,179.28769 854.16369,165.62960 831.96770,152.34967 C 816.14664,147.95026 803.13783,160.99495 788.62691,164.57881 C 778.26990,170.99227 763.82805,169.60540 755.46245,179.27969 C 752.58168,189.42160 759.76791,201.59799 765.34091,209.63974 C 774.78829,208.42127 784.15806,204.11495 793.70019,201.94236 C 802.42379,200.15985 812.03861,196.30198 820.72941,199.30835 C 832.99579,207.44096 823.76995,223.06931 823.24774,234.51029 C 820.77981,263.09885 820.01650,292.01946 815.64035,320.34312 C 814.35311,327.04450 805.65030,335.25109 802.00647,324.79028 z " id="path1434" style="fill:#000000;fill-opacity:1.0000000;fill-rule:nonzero;stroke:none;stroke-width:3.0000000pt;stroke-linecap:butt;stroke-linejoin:miter;stroke-opacity:1.0000000"/>
      <path d="M 1018.6171,226.77115 C 1021.8991,223.04036 1027.8743,233.04842 1031.5082,235.06257 C 1041.0361,244.40923 1050.7173,253.63972 1060.1354,263.07312 C 1067.4522,273.41264 1063.3245,286.74217 1059.9383,297.74057 C 1051.6008,324.03286 1043.4684,350.44615 1032.6729,375.85883 C 1028.4342,387.15649 1025.5043,399.59746 1017.4340,408.87955 C 1007.8724,415.99599 995.17177,414.89286 983.93123,414.86609 C 973.07065,412.11328 975.95774,399.64021 978.70566,391.91385 C 982.71607,371.99806 985.58308,351.81633 991.59310,332.35300 C 997.07273,313.28968 1002.4765,294.14621 1007.2193,274.92149 C 1010.8538,267.95459 995.45191,258.04526 1004.4073,253.58708 C 1007.5829,246.82820 1015.3930,254.12862 1017.8638,258.96666 C 1021.9144,265.24620 1021.7060,273.10877 1019.4020,279.96151 C 1011.9264,312.56829 999.86097,344.04588 994.68657,377.18557 C 994.20995,384.69153 985.62329,395.28887 991.98619,400.98227 C 999.36424,402.26582 1009.8120,401.42068 1012.1285,392.87652 C 1018.1278,380.63371 1021.3527,367.24147 1027.3587,355.00206 C 1036.4627,330.24826 1044.6619,305.07719 1051.3401,279.59208 C 1051.8082,269.74265 1042.0619,264.80860 1036.3397,258.39358 C 1029.9465,251.91749 1023.1896,245.77716 1016.8596,239.26118 C 1013.8539,235.08906 1016.9545,230.69346 1018.6171,226.77115 z " id="path1436" sodipodi:nodetypes="ccccccccccccccccccccc" style="fill:#000000;fill-opacity:1.0000000;fill-rule:nonzero;stroke:none;stroke-width:3.0000000pt;stroke-linecap:butt;stroke-linejoin:miter;stroke-opacity:1.0000000"/>
      <path d="M 742.06573,185.15945 C 727.07213,189.54535 711.61882,192.34265 695.98417,192.83367 C 673.29009,193.44817 650.59562,194.73588 627.88689,194.24999 C 625.05071,194.85254 619.11320,191.94983 621.30793,196.58772 C 619.18788,201.73828 616.72255,209.27149 625.23779,208.52911 C 644.04670,212.16472 663.24833,213.04061 682.31896,214.33948 C 704.88166,215.15751 727.50151,213.76477 749.84691,210.59049 C 756.64793,208.08468 758.46812,218.43036 762.65277,221.89343 C 727.36202,228.06274 691.25836,228.83095 655.63238,225.41592 C 640.54341,224.05795 625.02814,223.67475 610.75916,218.01702 C 604.31969,213.51244 603.95199,204.56815 606.57151,197.81652 C 608.13090,191.18234 610.45825,182.68357 618.04905,180.88256 C 625.49412,179.84914 633.00052,181.58066 640.49341,181.12799 C 661.87559,181.06797 683.25928,180.25301 704.60864,179.17277 C 716.65088,178.22495 728.35337,175.00757 739.91127,171.76008 C 744.73133,172.42665 740.80349,181.72581 742.06573,185.15945 z " id="path1486" style="fill:#000000;fill-opacity:1.0000000;fill-rule:nonzero;stroke:none;stroke-width:3.0000000pt;stroke-linecap:butt;stroke-linejoin:miter;stroke-opacity:1.0000000"/>
      <path d="M 605.66718,190.54362 C 597.56889,189.13990 589.10274,186.93903 580.98425,189.43642 C 576.97855,190.69447 573.22552,194.64810 574.13889,199.10336 C 575.13878,202.64739 579.17752,203.95202 582.47432,204.21501 C 591.08599,205.14066 600.30447,201.53369 605.44195,194.45677 C 606.90420,191.03263 599.52806,191.60222 601.73506,187.89593 C 602.74028,184.35167 604.14366,180.83802 606.48613,177.95287 C 609.52545,176.52754 611.84763,180.27426 614.00518,181.86736 C 617.95701,185.86895 620.48325,191.89871 618.60405,197.46584 C 616.39430,204.93396 609.79333,210.01490 603.09663,213.35421 C 594.44833,217.80928 584.20932,218.89673 574.79596,216.46925 C 568.46959,214.96722 561.74787,211.32109 559.69549,204.72387 C 558.23586,200.14918 559.65244,195.24814 561.44131,190.97710 C 564.48278,184.24752 570.16090,178.47432 577.40649,176.47238 C 587.37513,173.51917 597.89367,175.46294 607.84246,177.49039 C 606.61904,181.74072 606.01196,186.14230 605.66718,190.54362 z " id="path1488" style="fill:#000000;fill-opacity:1.0000000;fill-rule:nonzero;stroke:none;stroke-width:3.0000000pt;stroke-linecap:butt;stroke-linejoin:miter;stroke-opacity:1.0000000"/>
      <path d="M 1018.2564,405.77731 C 1016.8058,411.28425 1016.0197,416.93460 1015.2434,422.56745 C 1021.3208,421.80477 1026.7806,425.20157 1032.2801,427.20230 C 1035.9967,428.86493 1039.6214,430.79465 1042.8586,433.28053 C 1047.2616,439.05769 1043.0703,448.29631 1036.1522,449.63098 C 1027.1932,453.10720 1017.4550,450.99188 1008.3086,449.54963 C 997.53811,447.59663 986.45451,443.97748 978.61167,435.97576 C 974.62686,431.06483 974.04446,424.02141 976.17521,418.19739 C 976.28967,414.50148 979.73107,411.23893 983.45628,411.71766 C 987.05737,410.99509 990.92728,415.47791 988.68718,418.76400 C 986.70467,423.38838 989.07033,429.53535 994.00595,431.07588 C 1001.5901,434.96061 1010.0772,436.87671 1018.5591,437.27404 C 1016.9470,433.31703 1011.8360,434.82610 1008.8143,432.83891 C 1004.4225,430.68886 1000.9919,425.77763 1002.0793,420.75185 C 1002.2535,416.98979 1004.1614,413.06054 1007.7608,411.51110 C 1011.1247,409.36263 1014.7277,407.63046 1018.2564,405.77731 z " id="path1492" style="fill:#000000;fill-opacity:1.0000000;fill-rule:nonzero;stroke:none;stroke-width:3.0000000pt;stroke-linecap:butt;stroke-linejoin:miter;stroke-opacity:1.0000000"/>
      <path d="M 200.02876,479.70105 C 204.97115,479.84435 208.58596,484.55551 208.94809,489.22450 C 210.43664,497.75889 204.82076,505.41350 204.71391,513.83741 C 205.05952,515.81627 203.12555,521.86712 206.89811,520.18158 C 210.91649,517.95998 214.49504,514.87992 217.12533,511.07995 C 220.76054,505.86418 223.90031,499.88384 223.80604,493.35729 C 223.97660,487.32977 221.84021,481.55029 219.32911,476.19029 C 216.82509,473.34646 218.20069,470.07581 219.86327,467.29998 C 221.09114,464.71480 222.31902,462.12962 223.54689,459.54443 C 227.55665,466.23233 232.02272,472.71910 235.09723,479.90896 C 238.94682,491.89458 237.12835,505.63718 229.83404,515.96666 C 224.40896,524.55534 216.28582,532.44254 205.89399,534.11126 C 198.84845,534.78904 192.48111,528.78036 191.62395,521.96121 C 189.93733,512.28952 192.93228,502.65016 195.68858,493.47104 C 197.10727,488.87223 198.61348,484.30093 200.02876,479.70105 z " id="path1494" style="fill:#000000;fill-opacity:1.0000000;fill-rule:nonzero;stroke:none;stroke-width:3.0000000pt;stroke-linecap:butt;stroke-linejoin:miter;stroke-opacity:1.0000000"/>
      <path d="M 951.55847,94.779922 C 951.19453,83.158434 939.90854,76.980822 932.55636,69.676170 C 923.12452,61.788924 912.75004,51.494143 899.41135,52.878109 C 888.18297,55.216790 882.26231,70.345086 889.65681,79.408922 C 897.04565,92.260850 912.50369,96.454671 926.15366,98.534854 C 934.45640,101.49084 934.58624,111.97627 932.32959,119.07259 C 926.39341,135.45721 929.70937,156.31595 944.30976,167.15410 C 954.36508,175.21561 966.15265,180.98504 978.11235,185.59644 C 988.69421,188.71480 1001.7426,188.36808 1009.9280,180.04228 C 1014.0632,171.55618 1006.0716,163.82147 1000.6248,158.20863 C 987.70840,145.43656 970.98865,135.64634 962.78176,118.80042 C 961.59033,108.31614 950.80565,102.01050 949.05727,92.119987 C 951.70449,80.373730 965.35059,87.547161 966.94647,96.214638 C 973.04485,108.02101 977.38351,121.44911 988.26700,129.93810 C 1001.7312,142.13883 1018.9043,152.64154 1024.5060,171.00994 C 1028.0892,182.24376 1019.1611,193.93091 1008.4275,196.79076 C 990.64913,204.68401 969.93564,199.41162 954.27224,189.16976 C 938.18834,180.91923 921.96022,168.35656 918.18134,149.64531 C 915.02521,137.22520 915.87881,123.87897 920.28939,111.86921 C 903.35570,107.24817 884.38414,100.30537 876.39162,83.278237 C 869.53056,69.391767 874.09061,50.229803 888.40649,43.011585 C 899.64270,36.732609 914.00612,38.981577 924.05911,46.536981 C 938.00640,55.512219 950.11357,67.183762 961.04611,79.552414 C 964.96525,84.231471 967.50433,97.065534 957.81455,95.023160 C 955.80096,94.509720 953.59310,94.189533 951.55847,94.779922 z " id="path1512" style="fill:#000000;fill-opacity:1.0000000;fill-rule:nonzero;stroke:none;stroke-width:3.0000000pt;stroke-linecap:butt;stroke-linejoin:miter;stroke-opacity:1.0000000"/>
      <path d="M 883.79828,93.624840 C 877.93983,101.45746 872.10201,109.71820 869.94140,119.43542 C 866.42856,133.05432 867.52742,147.51182 871.34267,160.93810 C 873.37106,164.60502 867.89423,161.44915 865.93963,161.50894 C 863.57271,160.46230 859.71101,161.21630 858.53988,158.72809 C 855.41497,151.67876 854.21745,143.92676 854.53787,136.25128 C 854.61557,122.23372 858.38754,108.24897 865.62771,96.225222 C 869.30700,89.530215 874.20014,82.534638 881.91598,80.290694 C 885.33878,79.521128 883.79828,91.185804 883.79828,93.624840 z " id="path1514" sodipodi:nodetypes="ccccccccc" style="fill:#000000;fill-opacity:1.0000000;fill-rule:nonzero;stroke:none;stroke-width:3.0000000pt;stroke-linecap:butt;stroke-linejoin:miter;stroke-opacity:1.0000000"/>
      <path d="M 300.26126,172.10320 C 300.63869,179.27162 291.05496,181.63178 287.72061,175.49913 C 284.23519,169.25089 284.69966,161.55380 284.61709,154.60195 C 284.64664,144.48911 293.47254,138.00342 298.46360,130.15130 C 300.28737,127.99895 297.48543,129.99626 295.95299,126.96259 C 287.01595,117.25669 282.67533,102.78502 269.87527,97.081574 C 262.51558,94.281106 253.44129,93.849841 246.81735,98.656622 C 235.90826,104.97713 224.34495,111.54013 217.05116,122.13438 C 209.57822,135.63791 213.10741,152.79981 222.03583,164.72098 C 229.80252,175.80654 238.59594,186.19185 248.12077,195.80091 C 245.85829,199.63309 243.59582,203.46527 241.33334,207.29745 C 232.92491,201.64610 226.44758,193.59831 220.04305,185.85237 C 210.08516,172.78857 200.94152,157.90930 199.94170,141.08625 C 198.80561,127.61187 204.11331,113.71468 214.47465,104.90010 C 224.31362,95.960581 236.10932,89.479249 247.74554,83.257848 C 261.74147,78.979064 278.09442,83.075761 288.09732,93.870632 C 296.31506,101.94426 300.45254,113.24205 309.02193,120.99297 C 314.31765,126.37349 312.68465,134.93014 307.90978,140.02944 C 303.83306,145.87314 296.59003,151.16880 298.03924,159.12031 C 298.13511,163.54334 298.76063,167.93357 300.26126,172.10320 z " id="path1526" style="fill:#000000;fill-opacity:1.0000000;fill-rule:nonzero;stroke:none;stroke-width:3.0000000pt;stroke-linecap:butt;stroke-linejoin:miter;stroke-opacity:1.0000000"/>
      <path d="M 249.98090,89.654678 C 242.41350,90.906008 238.52170,98.228315 233.77036,103.39692 C 227.51745,110.76505 217.90354,115.51596 214.36612,124.98438 C 209.83557,135.92526 212.82369,147.88534 212.32257,159.29824 C 211.84163,164.43113 214.98748,169.10223 218.44735,172.59605 C 220.84675,174.65402 224.10958,177.42855 227.40361,175.62111 C 232.41019,172.97587 234.47735,166.89361 234.88493,161.56370 C 235.34236,156.69837 233.94023,151.69030 235.16741,146.92383 C 237.86367,139.72240 244.82102,135.60816 249.64522,129.98405 C 256.94996,122.43523 264.81861,115.32452 271.07607,106.84743 C 273.41861,103.66888 275.51584,98.541985 272.14206,95.322742 C 267.86346,91.358217 261.53096,91.719317 256.14729,90.827687 C 254.07074,90.565606 251.99527,90.234746 249.98090,89.654678 z " id="path1528" style="fill:#000000;fill-opacity:1.0000000;fill-rule:nonzero;stroke:none;stroke-width:3.0000000pt;stroke-linecap:butt;stroke-linejoin:miter;stroke-opacity:1.0000000"/>
      <path d="M 798.27551,713.81183 C 785.03256,716.75177 772.17450,721.30951 759.88794,727.03938 C 757.66950,731.40362 764.08343,731.97630 767.01538,732.19253 C 785.57172,735.16350 804.36111,738.77927 823.23404,736.84875 C 828.57794,734.91351 827.13115,728.37534 827.57812,724.03832 C 828.99139,719.74377 832.39068,716.49862 835.91771,713.85439 C 841.35939,714.47644 839.07705,721.36350 840.84666,724.85584 C 841.98984,731.65108 843.30477,739.78983 838.34366,745.44395 C 833.17155,750.55766 825.37144,750.05740 818.65569,750.61833 C 800.46806,751.41895 782.37812,748.37702 764.63083,744.72052 C 756.88839,742.77021 748.18025,740.34473 743.44087,733.39112 C 740.83290,728.91992 741.71045,722.41642 746.28229,719.55296 C 753.46933,713.96297 762.41030,711.46415 770.72840,708.08497 C 778.63819,705.22527 786.55119,702.05806 794.84422,700.58632 C 797.57975,703.64210 798.15304,713.33670 798.27551,713.81183 z " id="path1536" sodipodi:nodetypes="ccccccccccccccc" style="fill:#000000;fill-opacity:1.0000000;fill-rule:nonzero;stroke:none;stroke-width:3.0000000pt;stroke-linecap:butt;stroke-linejoin:miter;stroke-opacity:1.0000000"/>
    </g>
  </g>
</svg>
