<?xml version="1.0" encoding="UTF-8" standalone="no"?>
<!DOCTYPE svg PUBLIC "-//W3C//DTD SVG 1.0//EN"
"http://www.w3.org/TR/2001/REC-SVG-20010904/DTD/svg10.dtd">
<!-- Created with Sodipodi ("http://www.sodipodi.com/") --><svg height="297mm" id="svg728" sodipodi:docbase="/home/pfaes" sodipodi:docname="/home/pfaes/jos.svg" sodipodi:version="0.34" space="preserve" width="210mm" xmlns="http://www.w3.org/2000/svg" xmlns:sodipodi="http://sodipodi.sourceforge.net/DTD/sodipodi-0.dtd" xmlns:xlink="http://www.w3.org/1999/xlink">
  <metadata>
    <rdf:RDF xmlns:cc="http://web.resource.org/cc/" xmlns:dc="http://purl.org/dc/elements/1.1/" xmlns:rdf="http://www.w3.org/1999/02/22-rdf-syntax-ns#">
      <cc:Work rdf:about="">
        <dc:title>kid</dc:title>
        <dc:description></dc:description>
        <dc:subject>
          <rdf:Bag>
            <rdf:li></rdf:li>
            <rdf:li>people</rdf:li>
          </rdf:Bag>
        </dc:subject>
        <dc:publisher>
          <cc:Agent rdf:about="http://www.openclipart.org">
            <dc:title>Philippe Faes</dc:title>
          </cc:Agent>
        </dc:publisher>
        <dc:creator>
          <cc:Agent>
            <dc:title>Philippe Faes</dc:title>
          </cc:Agent>
        </dc:creator>
        <dc:rights>
          <cc:Agent>
            <dc:title>Philippe Faes</dc:title>
          </cc:Agent>
        </dc:rights>
        <dc:date></dc:date>
        <dc:format>image/svg+xml</dc:format>
        <dc:type rdf:resource="http://purl.org/dc/dcmitype/StillImage"/>
        <cc:license rdf:resource="http://web.resource.org/cc/PublicDomain"/>
        <dc:language>en</dc:language>
      </cc:Work>
      <cc:License rdf:about="http://web.resource.org/cc/PublicDomain">
        <cc:permits rdf:resource="http://web.resource.org/cc/Reproduction"/>
        <cc:permits rdf:resource="http://web.resource.org/cc/Distribution"/>
        <cc:permits rdf:resource="http://web.resource.org/cc/DerivativeWorks"/>
      </cc:License>
    </rdf:RDF>
  </metadata>
  <defs id="defs730">
    <linearGradient id="linearGradient756">
      <stop id="stop757" offset="0" style="stop-color:#ffd1d1;stop-opacity:1;"/>
      <stop id="stop758" offset="1" style="stop-color:#ff9999;stop-opacity:1;"/>
    </linearGradient>
    <linearGradient id="linearGradient759" x1="0.47937962" x2="0.4639174" xlink:href="#linearGradient756" y1="0.14058425" y2="0.9140619"/>
  </defs>
  <sodipodi:namedview id="base"/>
  <path d="M 454.0902 674.2947 C 455.1124 682.8666 470.5468 697.0944 471.6338 708.6692 C 472.8365 721.4759 461.3042 750.5618 458.0161 763.7834 C 452.4721 786.0762 446.5078 808.2484 441.1617 830.5961 C 439.9625 835.6092 404.8771 840.2037 401.5735 840.8467 C 394.0759 842.3061 394.7568 799.0114 400.9662 767.3625 C 403.3595 755.164 424.8738 734.0263 417.5962 722.653 C 410.2017 711.0973 399.2944 700.0091 390.6369 689.0116 " id="path812" sodipodi:nodetypes="cccccscc" style="font-size:12;fill:#f3c6c7;fill-rule:evenodd;stroke:none;stroke-width:0.934656;fill-opacity:1;"/>
  <path d="M 242.4433 663.4927 C 241.3321 672.8054 231.755 688.2629 230.5733 700.8381 C 229.2658 714.7517 231.0004 746.3513 234.575 760.7156 C 240.6017 784.9352 250.686 809.0237 256.4977 833.3028 C 257.8014 838.7492 295.9422 843.7408 299.5335 844.4394 C 307.684 846.0249 303.6773 798.3961 296.2795 764.6042 C 293.3847 751.3815 274.2041 728.3867 282.1155 716.0305 C 290.1539 703.476 302.0111 691.4295 311.4226 679.4815 " id="path811" sodipodi:nodetypes="cccccscc" style="font-size:12;fill:#f3c6c7;fill-rule:evenodd;stroke:none;stroke-width:0.934656;fill-opacity:1;"/>
  <path d="M 265.2474 533.8695 C 265.2474 563.7725 222.523 667.7461 226.1287 675.4946 C 230.4942 684.8757 266.8465 674.176 276.1847 677.7056 C 299.8188 686.6385 292.2493 682.7517 314.9538 693.8016 C 326.9834 699.6562 343.4977 647.2972 347.3852 642.5634 C 349.5286 639.9531 378.7225 691.1188 385.4382 696.8728 C 405.2939 695.3661 448.6967 685.6866 464.0384 685.1447 C 462.3642 670.5468 449.1533 647.9775 440.9986 618.7631 C 435.3302 598.4559 412.7796 540.7588 408.9874 537.2021 " id="path808" sodipodi:nodetypes="cccccccsc" style="fill:#25d700;fill-rule:evenodd;stroke:none;stroke-opacity:1;stroke-width:1pt;stroke-linejoin:miter;stroke-linecap:butt;fill-opacity:1;"/>
  <path d="M -66.0118 317.831 A 59.41062 57.61028 0 1 0 -184.833 317.831 A 59.41062 57.61028 0 1 0  -66.0118 317.831 z" id="path809" sodipodi:cx="-125.422417" sodipodi:cy="317.830994" sodipodi:rx="59.4106216" sodipodi:ry="57.6102753" sodipodi:type="arc" style="fill-rule:evenodd;stroke:none;fill:#ffd0d1;fill-opacity:1;stroke-opacity:1;stroke-width:1pt;stroke-linejoin:miter;stroke-linecap:butt;" transform="matrix(0.361679,-7.483027e-2,3.626219e-2,0.746356,374.6982,107.2368)"/>
  <path d="M 148.1633 315.4143 C 141.4953 311.6512 139.9523 283.6948 135.2634 288.9073 C 130.7514 293.9231 139.1705 310.3925 131.1805 303.0535 C 126.5249 298.7771 103.0966 288.9553 97.48395 293.9557 C 93.59473 296.2529 113.8287 302.3245 110.3733 306.4691 C 108.0929 311.1807 80.6261 300.8653 80.59247 308.923 C 79.792 314.9271 106.3281 318.4848 105.2555 320.7027 C 101.9722 323.4235 80.32117 321.9991 85.55668 333.3852 C 87.46794 336.7056 122.6422 326.6765 132.5518 335.1841 " id="path807" sodipodi:nodetypes="cccssccsc" style="fill:#ffd0d1;fill-rule:evenodd;stroke:none;stroke-opacity:1;stroke-width:1pt;stroke-linejoin:miter;stroke-linecap:butt;fill-opacity:1;"/>
  <path d="M 541.7513 307.3202 C 548.1164 304.1624 551.7783 276.4525 555.6192 282.0598 C 559.3151 287.4554 550.3314 303.1145 558.1871 296.512 C 562.7646 292.6647 584.854 284.9563 589.5517 290.4341 C 592.9012 293.0667 574.0184 297.3225 576.8243 301.7568 C 578.5164 306.6519 604.3166 298.8095 603.696 306.8385 C 603.9384 312.8899 579.5302 314.0836 580.3259 316.3878 C 583.0905 319.3886 602.8858 319.8873 597.2067 330.765 C 595.2011 333.9031 564.0391 320.7983 554.344 328.3949 " id="path806" sodipodi:nodetypes="cccssccsc" style="fill:#ffd0d1;fill-rule:evenodd;stroke:none;stroke-opacity:1;stroke-width:1pt;stroke-linejoin:miter;stroke-linecap:butt;fill-opacity:1;"/>
  <g id="g782" transform="matrix(0.330238,0,0,0.330238,233.656,108.7401)">
    <rect height="97.2172852" id="rect742" style="font-size:12;fill:#000000;fill-rule:evenodd;stroke-width:1;fill-opacity:1;" width="223.239761" x="218.438889" y="522.450134"/>
    <path d="M 301.909 548.9276 C 301.909 556.3074 303.1973 564.5564 308.2617 564.3455 C 315.6918 564.0361 316.029 556.1831 315.9672 548.3289 " id="path753" sodipodi:nodetypes="csc" style="fill:#ffffff;fill-rule:evenodd;stroke:none;stroke-opacity:1;stroke-width:1pt;stroke-linejoin:miter;stroke-linecap:butt;fill-opacity:1;"/>
    <path d="M 337.5536 546.3815 C 337.5536 553.7613 337.5493 560.7372 331.2555 561.7994 C 323.9543 562.8242 323.5549 556.183 323.6162 548.3288 " id="path754" sodipodi:nodetypes="csc" style="fill:#ffffff;fill-rule:evenodd;stroke:none;stroke-opacity:1;stroke-width:1pt;stroke-linejoin:miter;stroke-linecap:butt;fill-opacity:1;"/>
    <path d="M 322.9725 241.5841 C 224.8569 237.3963 225.0051 319.3141 225.9085 336.5923 C 230.1492 417.6931 184.6394 490.0559 133.668 553.046 C 99.89339 594.7846 103.7741 662.3689 176.4075 684.8097 C 224.1038 699.546 276.2154 674.6499 325.4065 675.5883 C 371.266 676.4631 409.0735 690.3241 469.58 684.3412 C 525.0075 674.9493 545.5845 604.1785 513.5385 560.6772 C 473.5775 519.4869 432.5991 421.6575 414.8122 341.0845 C 410.4539 321.3421 417.6613 242.0249 322.9725 241.5841 z M 245.6475 550.4573 C 297.6434 554.5664 333.1358 548.5683 387.2119 539.8627 C 401.5203 537.5592 378.0961 572.8365 376.2057 575.4806 C 348.4794 614.2603 300.5551 602.8727 268.8605 574.4033 C 260.6583 567.0358 253.3251 558.3826 245.6475 550.4573 z " id="path735" style="font-size:12;fill:#ffd0d1;fill-rule:evenodd;stroke-width:1;fill-opacity:1;"/>
    <g id="g739" style="stroke:none;stroke-opacity:1;" transform="matrix(2.157895,0,0,1.916686,73.32316,-132.7589)">
      <path d="M 110.4197 303.4288 C 110.4197 303.4808 83.46636 307.0698 79.93986 305.4473 C 79.25306 305.1313 80.37806 303.9949 80.49366 303.2478 C 82.02326 293.3689 84.71756 253.145 102.2665 250.886 C 106.9907 250.2778 113.0212 283.1908 110.4197 303.4288 z " id="path736" sodipodi:nodetypes="cccsc" style="fill:#ffffff;fill-rule:evenodd;stroke:none;stroke-opacity:1;stroke-width:1pt;stroke-linejoin:miter;stroke-linecap:butt;fill-opacity:1;"/>
      <path d="M 111.7898 303.4288 C 111.7898 303.4808 143.6957 307.0698 147.8701 305.4473 C 148.6831 305.1313 147.3514 303.9949 147.2146 303.2478 C 145.4039 293.3689 142.2146 253.145 121.4411 250.886 C 115.8489 250.2778 108.7103 283.1908 111.7898 303.4288 z " id="path738" sodipodi:nodetypes="cccsc" style="font-size:12;fill:#ffffff;fill-rule:evenodd;stroke:none;stroke-width:1.088;fill-opacity:1;stroke-opacity:1;"/>
    </g>
    <g id="g747" transform="translate(-3.600616,-1.800339)">
      <path d="M 31.20556 415.0487 A 18.00321 18.00322 0 1 0 -4.800856 415.0487 A 18.00321 18.00322 0 1 0  31.20556 415.0487 z" id="path743" sodipodi:cx="13.2023506" sodipodi:cy="415.048706" sodipodi:rx="18.0032063" sodipodi:ry="18.0032196" sodipodi:type="arc" style="fill-rule:evenodd;stroke:none;fill:#5f3be9;fill-opacity:1;stroke-opacity:1;stroke-width:1pt;stroke-linejoin:miter;stroke-linecap:butt;" transform="translate(284.4507,18.0032)"/>
      <path d="M 31.20556 415.0487 A 18.00321 18.00322 0 1 0 -4.800856 415.0487 A 18.00321 18.00322 0 1 0  31.20556 415.0487 z" id="path745" sodipodi:cx="13.2023506" sodipodi:cy="415.048706" sodipodi:rx="18.0032063" sodipodi:ry="18.0032196" sodipodi:type="arc" style="fill-rule:evenodd;stroke:none;fill:#000000;fill-opacity:1;stroke-opacity:1;stroke-width:1pt;stroke-linejoin:miter;stroke-linecap:butt;" transform="matrix(-0.4,0,0,-0.399999,302.9339,599.0707)"/>
    </g>
    <g id="g750" transform="translate(-1.800308,-1.800339)">
      <path d="M 31.20556 415.0487 A 18.00321 18.00322 0 1 0 -4.800856 415.0487 A 18.00321 18.00322 0 1 0  31.20556 415.0487 z" id="path744" sodipodi:cx="13.2023506" sodipodi:cy="415.048706" sodipodi:rx="18.0032063" sodipodi:ry="18.0032196" sodipodi:type="arc" style="fill-rule:evenodd;stroke:none;fill:#5f3be9;fill-opacity:1;stroke-opacity:1;stroke-width:1pt;stroke-linejoin:miter;stroke-linecap:butt;" transform="translate(320.457,18.0032)"/>
      <path d="M 31.20556 415.0487 A 18.00321 18.00322 0 1 0 -4.800856 415.0487 A 18.00321 18.00322 0 1 0  31.20556 415.0487 z" id="path746" sodipodi:cx="13.2023506" sodipodi:cy="415.048706" sodipodi:rx="18.0032063" sodipodi:ry="18.0032196" sodipodi:type="arc" style="fill-rule:evenodd;stroke:none;fill:#000000;fill-opacity:1;stroke-opacity:1;stroke-width:1pt;stroke-linejoin:miter;stroke-linecap:butt;" transform="matrix(-0.4,0,0,-0.399999,338.9404,599.0707)"/>
    </g>
    <path d="M 274.5764 462.5297 C 239.5925 508.3584 289.9195 533.9333 320.8568 532.5323 C 342.8583 534.225 389.9355 502.8344 357.3156 465.5324 " id="path755" sodipodi:nodetypes="csc" style="fill:url(#linearGradient759);fill-rule:evenodd;stroke:none;stroke-opacity:1;stroke-width:1pt;stroke-linejoin:miter;stroke-linecap:butt;fill-opacity:1;"/>
    <path d="M 375.965 358.1423 C 375.965 346.771 347.971 331.087 328.8145 325.931 " id="path761" sodipodi:nodetypes="cc" style="font-size:12;fill:none;fill-rule:evenodd;stroke:#79510f;stroke-width:5.975861;stroke-linecap:round;stroke-linejoin:round;"/>
    <path d="M 253.7551 358.1423 C 253.7551 346.771 281.6912 331.087 300.8081 325.931 " id="path762" sodipodi:nodetypes="cc" style="font-size:12;fill:none;fill-rule:evenodd;stroke:#79510f;stroke-width:5.977566;stroke-linecap:round;stroke-linejoin:round;"/>
    <g id="g770">
      <path d="M 233.3869 262.6658 A 84.01927 57.28584 0 1 1 67.6049 249.4783" id="path768" sodipodi:cx="149.367599" sodipodi:cy="262.665833" sodipodi:end="3.37388101" sodipodi:open="true" sodipodi:rx="84.0192719" sodipodi:ry="57.2858353" sodipodi:start="0" sodipodi:type="arc" style="font-size:12;fill:#808080;fill-rule:evenodd;stroke-width:1;" transform="matrix(1,0,0,-0.914767,165.4925,518.4297)"/>
      <path d="M 314.8601 224.4753 A 7.638123 6.365089 0 1 0 299.5839 224.4753 A 7.638123 6.365089 0 1 0  314.8601 224.4753 z" id="path769" sodipodi:cx="307.222015" sodipodi:cy="224.47525" sodipodi:rx="7.63812256" sodipodi:ry="6.36508942" sodipodi:type="arc" style="fill-rule:evenodd;stroke:none;fill:gray;fill-opacity:1;stroke-opacity:1;stroke-width:1pt;stroke-linejoin:miter;stroke-linecap:butt;"/>
    </g>
    <path d="M 421.7937 388.6948 C 421.7937 378.8189 433.7749 366.8741 441.9633 363.3726 C 473.4112 349.9248 458.1155 382.9463 459.7876 410.3642 C 461.0588 431.2093 471.4277 443.466 458.768 449.1909 C 434.2065 463.094 438.1501 439.105 433.3826 437.1659 " id="path779" sodipodi:nodetypes="ccssc" style="fill:#ffd0d1;fill-rule:evenodd;stroke:none;stroke-opacity:1;stroke-width:1pt;stroke-linejoin:miter;stroke-linecap:butt;fill-opacity:1;"/>
    <path d="M 225.7488 388.6947 C 225.7488 378.8188 215.1748 366.874 207.9481 363.3725 C 180.1938 349.9247 193.0949 382.9462 191.6192 410.3641 C 190.4973 431.2092 181.9443 443.4659 193.1171 449.1908 C 214.7939 463.0939 211.3135 439.1049 215.521 437.1658 " id="path780" sodipodi:nodetypes="ccssc" style="fill:#ffd0d1;fill-rule:evenodd;stroke:none;stroke-opacity:1;stroke-width:1pt;stroke-linejoin:miter;stroke-linecap:butt;fill-opacity:1;"/>
  </g>
  <path d="M 321.6496 350.5041 C 310.8482 358.1422 270.5218 352.6886 262.3285 349.2072 C 230.6259 335.7366 189.7218 313.5183 158.1539 299.5762 C 146.6774 307.2376 132.2796 330.7168 116.7167 347.651 C 158.585 355.3061 274.9925 369.6551 281.7586 390.7915 C 290.0725 419.3092 243.3197 539.5364 264.8869 543.4366 C 285.0251 547.0784 380.1422 542.2739 413.3463 545.6667 C 428.4612 547.2111 393.241 449.6308 386.6169 407.0983 C 375.6496 380.6301 476.7011 384.1869 565.4645 337.4348 C 553.9935 332.5565 543.7064 304.8069 538.2174 298.2166 C 514.0994 302.8205 488.0643 328.9818 466.9514 341.2326 C 439.7657 357.0071 372.4476 363.5093 365.9845 350.4894 C 365.6214 350.5603 365.2449 350.51 364.8751 350.5201 " id="path805" sodipodi:nodetypes="ccccssssccccc" style="fill:#fcb50d;fill-rule:evenodd;stroke:none;stroke-opacity:1;stroke-width:1pt;stroke-linejoin:miter;stroke-linecap:butt;fill-opacity:1;"/>
  <path d="M 303.1133 833.0062 C 302.8881 830.5534 262.6826 831.1634 256.1853 832.1636 C 243.4168 834.1291 227.1625 847.1673 213.4055 851.2428 C 206.9945 853.142 205.239 864.4447 207.6032 870.3673 C 211.1673 879.2963 238.9716 874.8537 245.5718 874.4299 C 256.7699 873.7108 294.6686 879.0959 302.1075 864.5158 C 302.5986 842.9032 303.2258 850.4427 303.1133 833.0062 z " id="path813" sodipodi:nodetypes="csccccc" style="font-size:12;fill-rule:evenodd;stroke:#000000;stroke-width:0.857304;"/>
  <path d="M 395.6081 835.2976 C 395.8427 832.8457 436.4076 833.6374 442.9602 834.667 C 455.8377 836.6903 472.1988 849.8027 486.0673 853.9407 C 492.5303 855.869 494.2676 867.1803 491.8644 873.0925 C 488.2416 882.0059 460.2008 877.4374 453.5426 876.9838 C 442.246 876.214 403.9905 881.4281 396.5284 866.8135 C 396.0977 845.1974 395.4424 852.7346 395.6081 835.2976 z " id="path814" sodipodi:nodetypes="csccccc" style="font-size:12;fill-rule:evenodd;stroke:#000000;stroke-width:0.861177;"/>
</svg>
