<?xml version="1.0" encoding="UTF-8" standalone="no"?>
<!DOCTYPE svg PUBLIC "-//W3C//DTD SVG 1.0//EN"
"http://www.w3.org/TR/2001/REC-SVG-20010904/DTD/svg10.dtd">
<!-- Created with Inkscape (http://www.inkscape.org/) --><svg height="297mm" id="svg1385" inkscape:version="0.38.1" sodipodi:docbase="/home/knoppix/svgarts" sodipodi:docname="sexylady.svg" sodipodi:version="0.32" width="210mm" xmlns="http://www.w3.org/2000/svg" xmlns:inkscape="http://www.inkscape.org/namespaces/inkscape" xmlns:sodipodi="http://sodipodi.sourceforge.net/DTD/sodipodi-0.dtd" xmlns:xlink="http://www.w3.org/1999/xlink">
  <metadata>
    <rdf:RDF xmlns:cc="http://web.resource.org/cc/" xmlns:dc="http://purl.org/dc/elements/1.1/" xmlns:rdf="http://www.w3.org/1999/02/22-rdf-syntax-ns#">
      <cc:Work rdf:about="">
        <dc:title>Sexy Lady</dc:title>
        <dc:description></dc:description>
        <dc:subject>
          <rdf:Bag>
            <rdf:li>lady</rdf:li>
            <rdf:li></rdf:li>
            <rdf:li>people</rdf:li>
            <rdf:li>sexy</rdf:li>
          </rdf:Bag>
        </dc:subject>
        <dc:publisher>
          <cc:Agent rdf:about="http://www.openclipart.org">
            <dc:title>P80</dc:title>
          </cc:Agent>
        </dc:publisher>
        <dc:creator>
          <cc:Agent>
            <dc:title>P80</dc:title>
          </cc:Agent>
        </dc:creator>
        <dc:rights>
          <cc:Agent>
            <dc:title>P80</dc:title>
          </cc:Agent>
        </dc:rights>
        <dc:date></dc:date>
        <dc:format>image/svg+xml</dc:format>
        <dc:type rdf:resource="http://purl.org/dc/dcmitype/StillImage"/>
        <cc:license rdf:resource="http://web.resource.org/cc/PublicDomain"/>
        <dc:language>en</dc:language>
      </cc:Work>
      <cc:License rdf:about="http://web.resource.org/cc/PublicDomain">
        <cc:permits rdf:resource="http://web.resource.org/cc/Reproduction"/>
        <cc:permits rdf:resource="http://web.resource.org/cc/Distribution"/>
        <cc:permits rdf:resource="http://web.resource.org/cc/DerivativeWorks"/>
      </cc:License>
    </rdf:RDF>
  </metadata>
  <defs id="defs1387"/>
  <sodipodi:namedview bordercolor="#666666" borderopacity="1.0" id="base" inkscape:cx="215.80906" inkscape:cy="339.23587" inkscape:pageopacity="0.0" inkscape:pageshadow="2" inkscape:window-height="577" inkscape:window-width="640" inkscape:window-x="0" inkscape:window-y="0" inkscape:zoom="0.61399264" pagecolor="#ffffff"/>
  <path d="M 381.48745,172.83624 C 383.10353,176.37301 383.07429,178.86437 386.26405,180.26958 C 395.21169,184.21137 368.09748,172.92966 358.68832,170.27154 C 331.51783,162.59578 303.73695,158.13470 275.81852,154.23233 C 221.40559,148.26691 47.438987,125.86537 38.418268,209.57353 C 52.340293,303.74188 207.40282,471.44298 260.50392,566.34192 C 303.71216,653.96192 315.97197,740.38098 236.46826,809.57967 C 222.44979,820.07598 229.53399,815.15864 215.24613,824.37548 L 204.48645,812.80220 C 217.77492,804.84363 211.16715,809.11970 224.27899,799.92662 C 301.26693,736.78749 290.54645,652.80647 252.48119,569.25781 C 200.09927,469.57516 39.893351,297.29336 22.379397,208.37770 C 33.134214,113.98803 214.38673,136.83764 277.99624,142.65172 C 302.69781,145.43213 390.65742,143.72347 404.35259,172.83624 L 381.48745,172.83624 z " id="path1463" style="fill:black;fill-rule:nonzero;stroke:none;fill-opacity:0.75;stroke-opacity:1;stroke-width:1pt;stroke-linejoin:miter;stroke-linecap:butt;"/>
  <path d="M 405.44245,221.83576 C 397.08786,228.01302 423.97481,212.43436 433.26635,207.78410 C 459.66763,194.57068 486.59396,182.75489 513.99733,171.77904 C 541.92629,161.27558 713.13389,101.81501 656.95267,187.07606 C 581.14385,283.64253 500.53673,365.26870 451.69509,480.62939 C 411.46594,591.70887 391.41533,719.22024 427.29525,834.38399 C 431.48922,844.98208 444.16361,882.75274 462.33595,875.10406 L 467.50379,891.65143 C 433.15507,897.17569 420.89085,864.50232 412.34410,837.14278 C 383.83200,718.86224 403.73438,591.42499 444.05867,478.48223 C 491.89619,363.50099 573.26482,281.80152 641.61004,180.81785 C 675.13675,120.01866 542.72880,174.63213 520.93882,183.09204 C 484.41203,198.50560 450.84430,216.92396 417.33561,237.77143 L 405.44245,221.83576 z " id="path1464" style="fill:black;fill-rule:nonzero;stroke:none;fill-opacity:0.75;stroke-opacity:1;stroke-width:1pt;stroke-linejoin:miter;stroke-linecap:butt;"/>
  <path d="M 267.93953,245.85996 C 258.72948,233.74596 234.25141,230.47128 220.77246,227.63151 C 196.96511,223.70332 168.28520,223.72739 183.12370,254.18214 C 218.60346,310.62907 275.54097,350.28035 312.50785,406.25248 C 331.90414,439.77836 341.53407,472.60944 338.22946,511.44817 L 320.48044,510.32150 C 324.26263,474.39051 315.56117,443.84845 298.03692,412.55579 C 261.29170,355.09665 204.78234,315.52793 165.87588,260.23317 C 140.11108,213.59629 190.41863,205.84690 225.72112,211.83811 C 246.29156,216.14227 268.62376,220.94679 285.59357,234.03262 L 267.93953,245.85996 z " id="path1465" style="fill:black;fill-rule:nonzero;stroke:none;fill-opacity:0.75;stroke-opacity:1;stroke-width:1pt;stroke-linejoin:miter;stroke-linecap:butt;"/>
  <path d="M 327.41734,260.87205 C 335.27794,249.41129 351.93151,241.53286 363.38549,234.69825 C 390.16089,219.49528 421.75712,204.37576 453.33181,206.94944 C 502.75820,219.58571 454.38533,280.44549 438.99547,302.40695 C 412.75087,339.34919 383.99385,377.48280 368.66359,420.60504 C 366.76397,427.04257 362.48675,437.76511 369.66470,440.65844 C 374.53949,442.57122 379.11162,444.94985 383.61541,447.61347 L 370.79961,462.21781 C 367.30466,460.17799 363.78041,458.42687 359.98884,457.01103 C 340.74698,449.46374 343.46999,432.03012 349.55923,415.59054 C 367.94820,372.33487 397.06455,333.74718 423.68739,295.34983 C 429.02389,287.44807 470.43682,232.76880 450.59667,223.94227 C 425.40179,219.91243 396.44925,235.77177 375.59117,248.10033 C 366.11102,254.02596 342.43455,277.30671 348.55969,267.95422 L 327.41734,260.87205 z " id="path1466" style="fill:black;fill-rule:nonzero;stroke:none;fill-opacity:0.75;stroke-opacity:1;stroke-width:1pt;stroke-linejoin:miter;stroke-linecap:butt;"/>
  <path d="M 276.91286,560.50560 C 295.52278,562.48576 305.50274,589.33154 312.50685,603.25935 C 339.19258,659.83720 352.58190,720.30403 346.46274,782.88590 C 340.18360,823.29616 324.54301,873.16320 281.71274,888.07548 L 274.32724,872.01647 C 310.66332,863.66875 324.54369,812.37411 330.02904,781.70468 C 337.10736,721.34634 323.61842,662.86543 295.33016,609.43367 C 289.46863,599.19955 288.64050,577.97563 276.91286,579.22349 L 276.91286,560.50560 z " id="path1467" style="fill:black;fill-rule:nonzero;stroke:none;fill-opacity:0.75;stroke-opacity:1;stroke-width:1pt;stroke-linejoin:miter;stroke-linecap:butt;"/>
  <path d="M 404.35259,569.90112 C 401.71641,586.49933 391.26642,603.15251 387.60262,620.13350 C 378.19538,675.49641 387.55401,732.29268 402.80087,785.75555 C 412.36911,815.71831 427.09082,863.64642 461.31990,874.61478 C 464.42010,875.13922 463.01298,875.10006 465.52993,874.94532 L 463.34870,892.39739 C 455.94319,891.45710 459.58942,892.19659 452.40967,890.18054 C 413.00100,873.65391 397.77311,826.27770 386.54445,788.77760 C 371.57441,733.32871 361.57882,675.15892 369.01206,617.73108 C 370.86397,606.93530 382.09469,573.72447 381.48745,569.90112 L 404.35259,569.90112 z " id="path1468" style="fill:black;fill-rule:nonzero;stroke:none;fill-opacity:0.75;stroke-opacity:1;stroke-width:1pt;stroke-linejoin:miter;stroke-linecap:butt;"/>
  <path d="M 545.57257,512.04027 C 530.70245,510.45804 525.94728,534.89610 518.76701,548.01356 C 488.63035,615.38850 509.43462,690.59026 539.67295,754.06298 C 549.38590,772.24342 559.80050,789.32162 572.01976,805.92380 L 557.78489,812.65463 C 545.91521,795.13260 535.66905,777.18278 526.11485,758.30000 C 495.46648,691.21119 473.41094,613.73365 501.75429,542.13439 C 509.42516,526.42249 524.83083,495.52938 545.57257,493.32238 L 545.57257,512.04027 z " id="path1469" style="fill:black;fill-rule:nonzero;stroke:none;fill-opacity:0.75;stroke-opacity:1;stroke-width:1pt;stroke-linejoin:miter;stroke-linecap:butt;"/>
  <path d="M 275.62299,563.72040 C 277.75915,572.10961 272.58637,551.25182 272.07014,547.54913 C 270.07565,529.29516 279.84633,514.99045 293.81877,504.11767 C 297.00927,501.87830 300.21147,499.85135 303.60729,497.93772 L 315.63061,512.52939 C 313.12847,513.87053 310.78023,515.30543 308.43107,516.90000 C 298.95927,523.98745 292.22668,533.24450 293.59874,545.42450 C 294.63940,552.07287 297.32915,559.34157 298.48813,563.72040 L 275.62299,563.72040 z " id="path1470" style="fill:black;fill-rule:nonzero;stroke:none;fill-opacity:0.75;stroke-opacity:1;stroke-width:1pt;stroke-linejoin:miter;stroke-linecap:butt;"/>
  <path d="M 385.51465,443.86003 C 384.45152,443.00323 395.57825,456.08169 398.51838,461.02746 C 406.60854,475.86680 409.93731,491.84455 410.77893,508.61631 C 411.20169,523.15606 410.09792,537.68198 408.67663,552.14546 C 407.36414,563.85243 403.98066,573.19858 394.25480,580.43673 C 389.69739,583.43459 384.94443,585.61916 379.67125,587.02535 L 373.27058,569.59839 C 375.46721,569.27998 377.61242,568.04352 379.48156,566.89895 C 385.13206,562.91495 386.18662,557.11382 387.09222,550.54342 C 388.79360,536.88239 389.91590,523.08236 389.59446,509.31061 C 388.91918,495.10120 386.27969,481.38580 379.17962,468.91524 C 375.95380,463.77519 370.13139,457.52958 367.82486,455.71132 L 385.51465,443.86003 z " id="path1471" style="fill:black;fill-rule:nonzero;stroke:none;fill-opacity:0.75;stroke-opacity:1;stroke-width:1pt;stroke-linejoin:miter;stroke-linecap:butt;"/>
  <path d="M 266.66043,281.98866 C 259.92541,281.27203 253.46729,278.48148 246.96050,276.68252 C 240.94704,275.11720 222.25547,271.64170 223.35473,271.56427 C 245.72316,258.28140 217.04999,256.67349 262.96744,271.52393 C 283.84344,278.11540 307.28924,281.92771 325.23252,295.13194 C 340.13341,308.18770 345.36799,325.38767 347.42929,344.55333 C 348.03976,352.03292 348.37734,359.39822 347.06840,366.81945 L 325.62983,363.92087 C 327.06369,358.04223 326.66352,351.98589 326.25861,345.99995 C 324.89631,331.77069 321.75172,317.97000 310.81326,308.01947 C 295.60536,296.27542 273.44542,292.89095 255.49156,287.31515 C 244.31290,283.83551 190.59526,271.16137 216.29679,254.06279 C 228.64445,252.05738 241.87247,256.63571 253.79755,259.59906 C 258.11208,260.72443 262.22657,263.74254 266.66043,263.27076 L 266.66043,281.98866 z " id="path1472" style="fill:black;fill-rule:nonzero;stroke:none;fill-opacity:0.75;stroke-opacity:1;stroke-width:1pt;stroke-linejoin:miter;stroke-linecap:butt;"/>
  <path d="M 332.62693,360.13490 C 333.71018,364.38908 334.49464,346.93114 339.30326,338.69385 C 350.33208,321.14557 363.94311,305.10214 377.23126,289.23782 C 381.09411,284.72360 391.26081,270.08423 388.12784,275.13243 C 386.26117,278.14021 396.77341,284.40937 393.23363,284.44436 C 376.64203,284.92569 360.35376,287.55660 343.66786,287.21442 C 329.76712,286.58394 314.41076,284.93132 303.60686,275.26109 C 287.72976,256.69863 318.01415,226.61482 328.57435,212.82258 C 344.38337,192.60318 371.65230,168.75836 378.72657,143.37611 C 379.90140,132.77268 363.24036,132.29829 356.02511,131.36881 C 334.48969,129.32772 312.16632,129.52937 290.82682,133.32986 C 281.82680,135.26889 275.35080,137.71655 270.81663,146.01207 C 266.05023,156.05898 265.69145,166.93124 266.17240,177.86341 C 266.86933,189.53075 269.13324,200.38772 273.01662,211.40006 C 274.16778,214.50273 275.35789,217.58332 276.59234,220.65385 L 256.51045,226.19588 C 255.15352,222.97561 253.82483,219.74567 252.51065,216.50774 C 247.66798,204.07721 245.45361,191.79347 244.68639,178.49889 C 244.07270,164.64181 244.93568,151.47197 250.94108,138.76100 C 258.72435,124.43286 271.17005,118.91457 286.67389,116.10235 C 310.47297,112.58959 335.07976,112.50520 359.02511,114.39677 C 378.42747,116.53112 404.98644,122.85415 399.16258,148.02207 C 388.84735,175.33696 362.51763,198.27562 344.98017,221.10494 C 340.16963,227.59539 316.60358,254.01890 320.35343,263.36521 C 324.92426,269.22886 337.92030,269.29049 344.34436,269.69903 C 360.91750,270.22917 376.85136,267.49094 393.28821,266.33874 C 422.11817,266.45232 404.05591,288.48655 394.54956,299.12233 C 381.71658,313.92764 368.61957,328.99407 358.70737,345.96870 C 355.19900,352.58871 354.25090,355.44553 355.49207,360.13490 L 332.62693,360.13490 z " id="path1473" style="fill:black;fill-rule:nonzero;stroke:none;fill-opacity:0.75;stroke-opacity:1;stroke-width:1pt;stroke-linejoin:miter;stroke-linecap:butt;"/>
  <path d="M 195.14945,117.04248 C 171.71927,114.67817 145.87983,121.78713 123.19221,126.50416 C 108.89349,129.65665 94.542174,132.82265 80.562860,137.22014 C 76.895032,138.37393 69.498814,145.30041 69.839420,141.47050 C 71.582826,121.86698 60.487790,125.07411 70.193973,122.64374 C 78.560243,120.34927 74.124831,121.59027 83.495144,118.90268 L 90.779462,133.90685 C 81.586933,137.25767 85.937898,135.66133 77.724561,138.69039 C 63.402118,144.07548 55.518876,146.30842 60.157049,124.99600 C 61.282629,119.82395 113.02254,112.26869 118.40658,111.10492 C 143.84731,105.80103 169.29573,101.01730 195.14945,98.408424 L 195.14945,117.04248 z " id="path1474" style="fill:black;fill-rule:nonzero;stroke:none;fill-opacity:0.75;stroke-opacity:1;stroke-width:1pt;stroke-linejoin:miter;stroke-linecap:butt;"/>
  <path d="M 287.27503,84.145463 C 317.73053,87.386034 351.63789,79.353324 381.94852,77.213075 C 455.31932,73.067642 529.69735,75.865756 601.77224,91.035893 C 605.11131,91.859283 608.45039,92.682672 611.78946,93.506062 L 605.91609,108.17625 C 602.88504,107.29102 599.85399,106.40580 596.82294,105.52058 C 527.40179,88.255688 454.76472,85.688818 383.69055,91.197442 C 351.45152,94.312072 319.47086,99.377725 287.27503,102.80347 L 287.27503,84.145463 z " id="path1475" style="fill:black;fill-rule:nonzero;stroke:none;fill-opacity:0.75;stroke-opacity:1;stroke-width:1pt;stroke-linejoin:miter;stroke-linecap:butt;"/>
  <path d="M 222.82712,77.355062 C 199.23713,64.598599 168.59863,60.949047 142.83557,55.655516 C 109.91892,49.291093 76.857882,44.092251 43.583259,39.997432 L 46.549828,25.133818 C 80.125680,29.977389 113.59380,35.441890 146.98817,41.407773 C 175.94950,46.773236 204.46722,52.754869 232.83862,60.587040 L 222.82712,77.355062 z " id="path1476" style="fill:black;fill-rule:nonzero;stroke:none;fill-opacity:0.75;stroke-opacity:1;stroke-width:1pt;stroke-linejoin:miter;stroke-linecap:butt;"/>
  <path d="M 276.94944,59.691251 C 271.71080,60.155415 306.43538,41.649018 313.21785,37.548587 C 352.09173,14.202271 392.53749,-7.2482481 434.66308,-24.133277 C 436.91450,-24.974618 439.16592,-25.815959 441.41733,-26.657300 L 449.36127,-11.602558 C 447.25530,-10.903506 445.14933,-10.204454 443.04336,-9.5054019 C 401.55568,5.6813301 362.30366,26.571632 325.06876,50.229115 C 311.85506,58.795361 293.54816,76.695186 276.94944,78.397165 L 276.94944,59.691251 z " id="path1477" style="fill:black;fill-rule:nonzero;stroke:none;fill-opacity:0.75;stroke-opacity:1;stroke-width:1pt;stroke-linejoin:miter;stroke-linecap:butt;"/>
  <path d="M 247.12102,66.971774 C 247.88157,62.183121 247.53235,57.047177 247.63528,52.222367 C 247.92862,38.056330 246.56346,23.817484 244.44975,9.8223240 C 244.27869,8.7678494 244.10762,7.7133748 243.93656,6.6589001 L 265.05268,4.4384508 C 265.21999,5.5398609 265.38731,6.6412710 265.55463,7.7426811 C 267.66327,22.453077 269.16410,37.358412 269.47189,52.222367 C 269.57482,57.047177 269.22561,62.183121 269.98615,66.971774 L 247.12102,66.971774 z " id="path1478" style="fill:black;fill-rule:nonzero;stroke:none;fill-opacity:0.75;stroke-opacity:1;stroke-width:1pt;stroke-linejoin:miter;stroke-linecap:butt;"/>
  <path d="M 78.615783,936.35502 C 76.128650,945.75191 65.810447,946.70984 58.308094,951.24657 C 51.725772,955.70662 36.100371,966.69665 41.010134,976.38035 C 50.064966,990.17699 69.647057,995.40346 64.060925,1015.5250 C 51.299531,1037.6388 17.197138,1042.5251 -5.6718198,1046.8412 L -10.009709,1030.6864 C 6.0678428,1027.9538 32.153404,1024.6412 43.280936,1010.9247 C 47.469572,1004.4567 23.659455,987.52800 20.412604,981.71508 C 13.691163,962.61002 30.977184,947.29130 45.166379,937.22298 C 59.635148,927.87922 58.740671,924.61246 55.750648,936.35502 L 78.615783,936.35502 z " id="path1479" style="fill:black;fill-rule:nonzero;stroke:none;fill-opacity:0.75;stroke-opacity:1;stroke-width:1pt;stroke-linejoin:miter;stroke-linecap:butt;"/>
  <path d="M 69.255649,996.17857 C 75.244829,996.81584 86.974497,993.18716 94.088504,991.03969 C 103.21644,987.94432 119.32424,976.49223 119.81627,979.29373 C 104.24223,974.20004 86.330696,973.83303 71.041476,980.15541 C 48.579112,992.87854 75.236642,1020.5090 86.705773,1030.7696 C 106.60899,1046.4001 133.06064,1062.8092 159.35006,1062.5445 L 158.55199,1079.6270 C 126.81890,1077.8486 97.040801,1060.6055 72.546452,1041.4522 C 49.577031,1021.1858 24.128992,984.20406 61.919759,964.69659 C 84.016281,956.21402 114.46526,954.56965 135.52189,966.87948 C 156.26598,987.17090 116.19487,1002.0921 101.54941,1007.1673 C 91.016942,1010.5052 80.267803,1013.7247 69.255649,1014.8965 L 69.255649,996.17857 z " id="path1480" style="fill:black;fill-rule:nonzero;stroke:none;fill-opacity:0.75;stroke-opacity:1;stroke-width:1pt;stroke-linejoin:miter;stroke-linecap:butt;"/>
  <path d="M 162.77901,962.49220 C 161.23311,960.86613 165.05072,966.36196 166.17761,968.30206 C 174.76991,983.09504 183.87740,997.52703 193.57455,1011.6226 C 198.93310,1019.1361 204.44374,1026.4797 210.23069,1033.6686 L 193.39626,1042.4242 C 187.72008,1034.8475 182.14816,1027.2078 176.66855,1019.4876 C 165.45858,1003.4905 155.21035,986.49668 142.74556,971.43982 L 162.77901,962.49220 z " id="path1481" style="fill:black;fill-rule:nonzero;stroke:none;fill-opacity:0.75;stroke-opacity:1;stroke-width:1pt;stroke-linejoin:miter;stroke-linecap:butt;"/>
  <path d="M 206.77246,979.89708 C 208.25064,979.38496 187.27030,991.95973 169.52728,1006.2871 C 158.98570,1014.9607 148.98385,1024.1173 139.43096,1033.8677 L 123.05323,1022.7256 C 133.41156,1012.8628 144.07756,1003.4196 155.16397,994.38098 C 168.49271,983.59926 183.75250,968.16187 200.10591,962.03204 L 206.77246,979.89708 z " id="path1482" style="fill:black;fill-rule:nonzero;stroke:none;fill-opacity:0.75;stroke-opacity:1;stroke-width:1pt;stroke-linejoin:miter;stroke-linecap:butt;"/>
  <path d="M 211.76550,955.46147 C 222.65343,956.61999 229.70460,967.90607 237.30723,974.80717 C 244.82629,981.35268 272.44016,992.81751 262.73088,990.55699 C 265.74083,981.75325 261.37540,975.14354 266.89539,977.38719 C 245.81946,988.60391 230.27645,1009.0420 214.91267,1026.8104 C 204.12858,1039.3728 190.20828,1052.4415 183.36643,1067.7721 L 163.73264,1060.7545 C 173.15712,1044.8706 186.76905,1031.3538 198.83609,1017.4928 C 216.68872,996.86666 236.65246,967.19630 264.31909,959.68838 C 290.24647,958.92980 292.34210,988.40905 277.41993,1003.8369 C 257.28426,1017.0473 236.92532,999.42051 221.74685,986.54711 C 216.31430,981.82140 199.39516,968.48885 205.48870,972.32469 C 207.33503,973.48695 213.93495,973.94853 211.76550,974.17936 L 211.76550,955.46147 z " id="path1483" style="fill:black;fill-rule:nonzero;stroke:none;fill-opacity:0.75;stroke-opacity:1;stroke-width:1pt;stroke-linejoin:miter;stroke-linecap:butt;"/>
  <path d="M 345.31279,950.60601 C 343.81884,960.01238 347.25298,969.82970 345.43351,979.17856 C 336.80767,1010.5725 317.50296,1044.7202 291.06865,1064.3561 C 269.62359,1076.7302 214.53224,1067.0334 249.57712,1040.6393 C 284.68479,1021.2344 330.74421,1023.9901 369.55233,1025.4260 C 372.09430,1025.5359 412.33598,1026.0919 409.38155,1021.9359 L 430.55728,1025.9626 C 422.10820,1049.6476 387.72924,1042.7241 368.44792,1041.4658 C 335.63253,1039.6404 293.39711,1036.1506 263.75431,1053.3080 C 253.71815,1060.7534 269.61884,1055.7657 277.68981,1051.7440 C 301.51808,1035.8368 318.93768,1004.3267 325.18470,976.85821 C 326.60166,966.83843 323.92219,959.89013 322.44766,950.60601 L 345.31279,950.60601 z " id="path1484" style="fill:black;fill-rule:nonzero;stroke:none;fill-opacity:0.75;stroke-opacity:1;stroke-width:1pt;stroke-linejoin:miter;stroke-linecap:butt;"/>
  <path d="M 380.74147,1024.6805 C 364.79393,1028.5570 374.84562,1021.4208 379.03892,1005.2851 C 384.18613,984.77900 387.64179,959.43553 400.28620,941.97077 C 426.23611,917.51809 440.33009,969.35465 445.45980,985.61499 C 452.51086,1009.0409 458.47416,1032.7718 465.74524,1056.1332 C 466.86206,1059.8255 466.33858,1058.0149 467.32162,1061.5633 L 446.04528,1064.9869 C 445.43021,1061.8653 445.78166,1063.5019 444.97248,1060.0813 C 438.94649,1036.5795 433.41499,1012.9491 426.22268,989.76631 C 422.89825,979.66400 419.47625,969.40440 414.33829,960.04736 C 409.04041,950.39909 418.54781,951.92363 418.36662,951.81004 C 405.59439,963.62824 402.91144,992.48309 399.38365,1008.5568 C 396.33898,1022.3710 396.41655,1039.4891 380.74147,1043.3984 L 380.74147,1024.6805 z " id="path1488" style="fill:black;fill-rule:nonzero;stroke:none;fill-opacity:0.75;stroke-opacity:1;stroke-width:1pt;stroke-linejoin:miter;stroke-linecap:butt;"/>
  <path d="M 392.95660,990.07101 C 401.53024,990.98327 410.83447,989.14337 419.36905,988.43580 C 424.22432,988.03833 421.77841,988.22757 426.70683,987.86902 L 428.57062,1005.3632 C 423.99581,1005.6828 426.30685,1005.5026 421.63770,1005.9063 C 412.07108,1006.7784 402.50781,1007.7726 392.95660,1008.7889 L 392.95660,990.07101 z " id="path1489" style="fill:black;fill-rule:nonzero;stroke:none;fill-opacity:0.75;stroke-opacity:1;stroke-width:1pt;stroke-linejoin:miter;stroke-linecap:butt;"/>
  <path d="M 479.20849,997.35752 C 479.76036,993.88279 489.83667,1000.8452 487.69340,1003.6353 C 478.70148,1008.9890 470.89075,1020.8790 469.43672,1031.1658 C 469.53161,1034.4465 482.11020,1023.0144 490.81655,1015.3711 C 518.74355,988.19245 538.38651,953.80994 553.92229,918.33206 C 555.31742,914.84101 553.71940,906.03756 557.16948,907.53113 C 563.62359,910.32518 580.12360,908.87693 576.86112,915.10737 C 568.28258,931.49008 561.79754,948.50147 555.67653,965.97516 C 549.05819,985.70385 542.96051,1005.5583 538.07455,1025.7919 L 519.30676,1022.4738 C 525.11384,1002.1625 531.47820,982.02442 538.04288,961.94668 C 539.36402,957.96560 555.18156,902.81777 559.36087,903.50238 C 585.80139,907.83359 579.45457,910.63393 572.44562,924.25604 C 553.66453,960.63238 534.12227,996.49692 505.43362,1026.1246 C 492.94519,1037.8713 444.75235,1068.2364 448.13114,1028.4756 C 451.59213,1012.4037 462.79013,995.93981 477.12609,987.68106 C 487.05654,983.46484 500.11659,985.03539 502.07363,997.35752 L 479.20849,997.35752 z " id="path1490" style="fill:black;fill-rule:nonzero;stroke:none;fill-opacity:0.75;stroke-opacity:1;stroke-width:1pt;stroke-linejoin:miter;stroke-linecap:butt;"/>
  <path d="M 587.57954,987.25140 C 585.78093,996.96819 582.26378,1005.9392 581.65397,1016.1301 C 581.69231,1032.7536 590.11860,1021.8243 601.72685,1013.1113 C 615.86710,1001.4490 631.28322,973.40764 646.56804,965.72569 C 656.38752,960.79055 671.65432,967.66039 662.68684,979.26128 C 631.11855,1019.9856 599.85852,1060.9217 567.08092,1100.6949 L 553.06693,1092.8061 C 585.48317,1054.9719 619.32369,1014.8653 643.61437,971.11452 C 646.50895,964.76357 657.12412,979.78024 663.63154,977.25704 C 666.34283,976.20575 659.21065,981.05215 657.21254,983.16494 C 643.63497,997.52184 630.38646,1011.9442 615.45227,1024.9368 C 595.32248,1041.0620 559.94655,1052.9491 560.48802,1015.2475 C 560.89303,1008.9484 565.13051,984.82003 564.71440,987.25140 L 587.57954,987.25140 z " id="path1491" style="fill:black;fill-rule:nonzero;stroke:none;fill-opacity:0.75;stroke-opacity:1;stroke-width:1pt;stroke-linejoin:miter;stroke-linecap:butt;"/>
</svg>
