<?xml version="1.0" encoding="UTF-8" standalone="no"?>
<!-- Created with Inkscape (http://www.inkscape.org/) --><svg height="150.00000" id="svg1" version="1.0" width="150.00000" x="0.0000000" xmlns="http://www.w3.org/2000/svg" xmlns:svg="http://www.w3.org/2000/svg" xmlns:xlink="http://www.w3.org/1999/xlink" y="0.0000000">
  <metadata>
    <rdf:RDF xmlns:cc="http://web.resource.org/cc/" xmlns:dc="http://purl.org/dc/elements/1.1/" xmlns:rdf="http://www.w3.org/1999/02/22-rdf-syntax-ns#">
      <cc:Work rdf:about="">
        <dc:title>bananas</dc:title>
        <dc:description></dc:description>
        <dc:subject>
          <rdf:Bag>
            <rdf:li>food</rdf:li>
            <rdf:li>fruit</rdf:li>
          </rdf:Bag>
        </dc:subject>
        <dc:publisher>
          <cc:Agent rdf:about="http://www.openclipart.org/">
            <dc:title>Open Clip Art Library</dc:title>
          </cc:Agent>
        </dc:publisher>
        <dc:creator>
          <cc:Agent>
            <dc:title>Nicu Buculei</dc:title>
          </cc:Agent>
        </dc:creator>
        <dc:rights>
          <cc:Agent>
            <dc:title>Nicu Buculei</dc:title>
          </cc:Agent>
        </dc:rights>
        <dc:date></dc:date>
        <dc:format>image/svg+xml</dc:format>
        <dc:type rdf:resource="http://purl.org/dc/dcmitype/StillImage"/>
        <cc:license rdf:resource="http://web.resource.org/cc/PublicDomain"/>
        <dc:language>en</dc:language>
      </cc:Work>
      <cc:License rdf:about="http://web.resource.org/cc/PublicDomain">
        <cc:permits rdf:resource="http://web.resource.org/cc/Reproduction"/>
        <cc:permits rdf:resource="http://web.resource.org/cc/Distribution"/>
        <cc:permits rdf:resource="http://web.resource.org/cc/DerivativeWorks"/>
      </cc:License>
    </rdf:RDF>
  </metadata>
  <defs id="defs3">
    <linearGradient id="linearGradient855">
      <stop id="stop856" offset="0.0000000" style="stop-color:#ffffff;stop-opacity:0.0000000;"/>
      <stop id="stop857" offset="1.0000000" style="stop-color:#5f0e00;stop-opacity:0.41666666;"/>
    </linearGradient>
    <linearGradient id="linearGradient829">
      <stop id="stop830" offset="0.0000000" style="stop-color:#ffffff;stop-opacity:0.52499998;"/>
      <stop id="stop831" offset="1.0000000" style="stop-color:#ffffff;stop-opacity:0.0000000;"/>
    </linearGradient>
    <radialGradient id="radialGradient832" xlink:href="#linearGradient829"/>
    <linearGradient gradientTransform="scale(1.532982,0.652323)" gradientUnits="userSpaceOnUse" id="linearGradient850" x1="62.831093" x2="312.91138" xlink:href="#linearGradient829" y1="339.76996" y2="191.31802"/>
    <linearGradient gradientTransform="scale(1.221106,0.818930)" gradientUnits="userSpaceOnUse" id="linearGradient854" x1="109.53184" x2="370.90094" xlink:href="#linearGradient855" y1="332.16705" y2="332.16705"/>
    <linearGradient gradientTransform="matrix(0.355996,-4.394554e-2,2.947191e-2,0.238748,-12.35522,9.060914)" gradientUnits="userSpaceOnUse" id="linearGradient1374" x1="109.53184" x2="370.90094" xlink:href="#linearGradient855" y1="332.16705" y2="332.16705"/>
    <linearGradient gradientTransform="matrix(0.446919,-5.516943e-2,2.347600e-2,0.190176,-12.35522,9.060914)" gradientUnits="userSpaceOnUse" id="linearGradient1379" x1="62.831093" x2="312.91138" xlink:href="#linearGradient829" y1="339.76996" y2="191.31802"/>
    <linearGradient gradientTransform="matrix(0.446919,-5.516943e-2,2.347600e-2,0.190176,-12.35522,9.060914)" gradientUnits="userSpaceOnUse" id="linearGradient2164" x1="62.831093" x2="312.91138" xlink:href="#linearGradient829" y1="339.76996" y2="191.31802"/>
    <linearGradient gradientTransform="matrix(0.355996,-4.394554e-2,2.947191e-2,0.238748,-12.35522,9.060914)" gradientUnits="userSpaceOnUse" id="linearGradient2166" x1="109.53184" x2="370.90094" xlink:href="#linearGradient855" y1="332.16705" y2="332.16705"/>
    <linearGradient gradientTransform="matrix(0.446919,-5.516943e-2,2.347600e-2,0.190176,-12.35522,9.060914)" gradientUnits="userSpaceOnUse" id="linearGradient2180" x1="62.831093" x2="312.91138" xlink:href="#linearGradient829" y1="339.76996" y2="191.31802"/>
    <linearGradient gradientTransform="matrix(0.355996,-4.394554e-2,2.947191e-2,0.238748,-12.35522,9.060914)" gradientUnits="userSpaceOnUse" id="linearGradient2182" x1="109.53184" x2="370.90094" xlink:href="#linearGradient855" y1="332.16705" y2="332.16705"/>
  </defs>
  <image height="46.881878" id="sheet" style="display:none" width="67.732307" x="22.061697" xlink:href="euembl2.gif" y="1.7665182"/>
  <g id="layer1" transform="matrix(0.101093,0.000000,0.000000,0.101093,3.724900,-7.984000)"/>
  <g id="g2145">
    <path d="M 104.35330,22.401958 C 98.257209,17.974859 112.38415,12.531244 114.43118,14.128417 C 117.52648,15.226214 112.19514,16.994255 112.87446,19.500209 C 113.55377,22.006164 114.85381,35.534689 117.85914,35.903646 C 120.86448,36.272603 124.82357,38.373689 125.27343,42.017889 C 137.17302,63.487294 109.10738,129.84726 20.738179,109.30817 C 19.145543,108.39485 10.003668,100.27403 8.2760761,98.267454 C 7.2323384,95.806485 5.3743268,89.746301 9.4774545,87.019956 C 45.798109,72.547121 91.548315,86.508120 105.78376,39.984089 C 108.11885,31.926401 104.35330,22.401958 104.35330,22.401958 z " id="path847" style="fill:#ffe200;fill-rule:evenodd;stroke:none;stroke-width:2.9374888;stroke-linejoin:round"/>
    <path d="M 10.836090,92.031865 L 11.115076,88.297695 C 36.822565,74.765016 89.402243,90.102798 107.74082,40.852422 C 99.763644,75.134740 81.101480,97.786993 10.836090,92.031865 z " id="path849" style="fill:url(#linearGradient1379);fill-rule:evenodd;stroke-width:1.0000000pt"/>
    <path d="M 8.1063239,96.850314 C 7.1733125,91.528407 6.6833672,89.795735 9.5583265,87.647685 C 11.153513,89.500474 11.672566,95.783559 8.1063239,96.850314 z " id="path852" style="fill:#442400;fill-rule:evenodd;stroke-width:1.0000000pt"/>
    <path d="M 39.818439,111.02254 C 105.57130,119.18457 122.24427,76.245258 124.91770,66.110058 C 130.03773,53.638881 124.40963,41.014600 124.40963,41.014600 C 128.90363,80.416945 91.637902,117.20483 39.818439,111.02254 z " id="path853" style="fill:url(#linearGradient1374);fill-opacity:1;fill-rule:evenodd;stroke-width:1.0000000pt"/>
  </g>
  <g id="g2152" transform="matrix(0.986546,-0.163481,0.163481,0.986546,1.118890,19.35070)">
    <path d="M 104.35330,22.401958 C 98.257209,17.974859 112.38415,12.531244 114.43118,14.128417 C 117.52648,15.226214 112.19514,16.994255 112.87446,19.500209 C 113.55377,22.006164 114.85381,35.534689 117.85914,35.903646 C 120.86448,36.272603 124.82357,38.373689 125.27343,42.017889 C 137.17302,63.487294 109.10738,129.84726 20.738179,109.30817 C 19.145543,108.39485 10.003668,100.27403 8.2760761,98.267454 C 7.2323384,95.806485 5.3743268,89.746301 9.4774545,87.019956 C 45.798109,72.547121 91.548315,86.508120 105.78376,39.984089 C 108.11885,31.926401 104.35330,22.401958 104.35330,22.401958 z " id="path2154" style="fill:#ffe200;fill-rule:evenodd;stroke:none;stroke-width:2.9374888;stroke-linejoin:round"/>
    <path d="M 10.836090,92.031865 L 11.115076,88.297695 C 36.822565,74.765016 89.402243,90.102798 107.74082,40.852422 C 99.763644,75.134740 81.101480,97.786993 10.836090,92.031865 z " id="path2156" style="fill:url(#linearGradient2164);fill-rule:evenodd;stroke-width:1.0000000pt"/>
    <path d="M 8.1063239,96.850314 C 7.1733125,91.528407 6.6833672,89.795735 9.5583265,87.647685 C 11.153513,89.500474 11.672566,95.783559 8.1063239,96.850314 z " id="path2160" style="fill:#442400;fill-rule:evenodd;stroke-width:1.0000000pt"/>
    <path d="M 39.818439,111.02254 C 105.57130,119.18457 122.24427,76.245258 124.91770,66.110058 C 130.03773,53.638881 124.40963,41.014600 124.40963,41.014600 C 128.90363,80.416945 91.637902,117.20483 39.818439,111.02254 z " id="path2162" style="fill:url(#linearGradient2166);fill-opacity:1;fill-rule:evenodd;stroke-width:1.0000000pt"/>
  </g>
  <g id="g2168" transform="matrix(0.951501,-0.307645,0.307645,0.951501,6.323315,37.29399)">
    <path d="M 104.35330,22.401958 C 98.257209,17.974859 110.21145,12.383843 112.25848,13.981016 C 115.35378,15.078813 110.11123,17.430652 110.79055,19.936606 C 111.46986,22.442561 114.85381,35.534689 117.85914,35.903646 C 120.86448,36.272603 124.82357,38.373689 125.27343,42.017889 C 137.17302,63.487294 109.10738,129.84726 20.738179,109.30817 C 19.145543,108.39485 10.003668,100.27403 8.2760761,98.267454 C 7.2323384,95.806485 5.3743268,89.746301 9.4774545,87.019956 C 45.798109,72.547121 91.548315,86.508120 105.78376,39.984089 C 108.11885,31.926401 104.35330,22.401958 104.35330,22.401958 z " id="path2170" style="fill:#ffe200;fill-rule:evenodd;stroke:none;stroke-width:2.9374888;stroke-linejoin:round"/>
    <path d="M 10.836090,92.031865 L 11.115076,88.297695 C 36.822565,74.765016 89.402243,90.102798 107.74082,40.852422 C 99.763644,75.134740 81.101480,97.786993 10.836090,92.031865 z " id="path2172" style="fill:url(#linearGradient2180);fill-rule:evenodd;stroke-width:1.0000000pt"/>
    <path d="M 8.1063239,96.850314 C 7.1733125,91.528407 6.6833672,89.795735 9.5583265,87.647685 C 11.153513,89.500474 11.672566,95.783559 8.1063239,96.850314 z " id="path2176" style="fill:#442400;fill-rule:evenodd;stroke-width:1.0000000pt"/>
    <path d="M 39.818439,111.02254 C 105.57130,119.18457 122.24427,76.245258 124.91770,66.110058 C 130.03773,53.638881 124.40963,41.014600 124.40963,41.014600 C 128.90363,80.416945 91.637902,117.20483 39.818439,111.02254 z " id="path2178" style="fill:url(#linearGradient2182);fill-opacity:1;fill-rule:evenodd;stroke-width:1.0000000pt"/>
  </g>
  <path d="M 103.60252,18.558719 C 102.19750,13.510077 117.30264,11.457789 117.56290,17.183224 C 115.40321,19.019941 111.07850,23.229265 103.60252,18.558719 z " id="path3021" style="fill:#442400;fill-rule:evenodd;stroke-width:1.0000000pt"/>
  <path d="M 112.43750,11.000000 C 108.23694,11.314061 103.73174,13.088334 101.22460,16.600216 C 99.431583,20.024281 103.71655,22.521773 103.54203,26.045365 C 104.81240,31.261417 104.62081,36.841663 102.44645,41.794094 C 98.878993,52.000008 91.953695,61.248593 82.299862,66.378186 C 69.476928,73.300687 54.677084,74.584175 40.513827,76.701841 C 29.472269,78.306487 18.302915,80.123764 7.9375000,84.406250 C 3.8315142,87.147382 4.2950838,92.879362 5.9965621,96.894585 C 7.8699297,100.11353 11.282171,102.18318 13.891041,104.80663 C 16.019064,107.17578 19.282725,108.94744 21.507687,110.37553 C 22.251743,114.26229 25.631040,116.29651 28.735566,118.18508 C 31.987105,120.13775 35.101236,122.46139 38.625000,123.87500 C 41.614993,124.16257 42.030346,129.18715 45.712057,129.55755 C 50.102845,131.50274 54.447362,133.78693 59.093750,135.00000 C 80.856786,133.16963 102.99557,127.13323 120.36287,113.39720 C 135.39403,101.65436 145.94871,83.752106 147.08092,64.532522 C 147.58231,55.032143 146.12025,44.583364 139.56452,37.235916 C 137.53267,33.914996 133.84523,31.700089 129.85911,32.198873 C 126.34846,32.685271 125.13789,27.055135 123.23055,24.628444 C 122.14595,21.758357 116.58288,21.497540 119.28360,18.516487 C 120.12476,14.547787 117.66877,13.293005 115.84375,11.750000 C 114.61228,11.862588 113.73709,10.905141 112.43750,11.000000 z M 112.81250,13.906250 C 114.57124,14.701112 118.15890,15.982314 116.30988,18.833380 C 114.98742,22.173693 121.50640,26.464522 122.48584,29.425865 C 124.60830,32.739998 124.23261,34.145613 128.40930,35.293144 C 131.77621,34.529622 135.51426,35.655840 137.15597,38.833241 C 142.97691,45.273074 144.39001,54.422087 144.21875,62.812500 C 143.58672,82.278543 132.75199,100.50249 117.33178,112.04367 C 100.64054,124.71055 79.700068,130.25923 59.093750,132.03125 C 54.178640,130.27319 49.401464,128.11498 44.750000,125.75000 C 42.919950,123.62919 42.297951,120.03012 38.776142,120.79777 C 34.272064,118.32726 29.925028,115.55436 25.750000,112.56250 C 24.129568,110.05189 24.199073,106.13652 20.333642,106.34494 C 16.284210,103.15482 12.423712,99.710449 8.8125000,96.031250 C 7.4740773,92.986284 6.5302815,87.579145 10.753126,86.455336 C 30.760190,78.941097 52.685103,79.910165 72.968917,73.502931 C 83.913770,70.091733 94.022202,63.258763 100.05538,53.359697 C 103.32738,47.921240 106.10162,41.989970 107.13454,35.689861 C 107.69231,30.429044 106.81433,25.006642 104.79702,20.136050 C 101.51254,17.993329 106.70116,15.510335 108.64621,14.860631 C 109.92374,14.372597 111.71096,13.889079 112.81250,13.906250 z " id="path2186" style="fill:#000000;fill-opacity:1.0000000;fill-rule:evenodd;stroke:none;stroke-width:2.9374888;stroke-linejoin:round;stroke-opacity:1.0000000"/>
  <path d="M 113.05942,46.184419 C 112.21150,56.946501 106.78010,64.530040 99.593750,70.968750 C 92.407398,77.407460 82.925017,82.146832 73.000000,86.031250 C 63.074983,89.915668 52.708282,92.955587 43.750000,96.031250 C 34.791718,99.106913 25.932511,100.35223 21.585827,106.34375 L 25.442342,106.27025 C 28.754108,101.30227 35.432645,100.56122 44.357835,97.496919 C 53.283025,94.432618 63.922817,91.138910 73.903169,87.232835 C 83.883521,83.326760 92.919957,78.286202 100.25000,71.718750 C 107.58004,65.151298 112.66262,56.743640 113.53125,45.718750 L 113.05942,46.184419 z " id="path3023" style="fill:#000000;fill-opacity:1.0000000;fill-rule:evenodd;stroke:none;stroke-width:1.0000000px;stroke-linecap:butt;stroke-linejoin:miter;stroke-opacity:1.0000000"/>
  <path d="M 121.14525,49.464349 C 119.56582,49.092941 121.15963,47.900428 121.03494,48.863797 C 121.25358,57.122539 117.54584,63.976457 112.53842,70.502188 C 105.70097,79.508887 96.911612,86.698291 87.224854,92.279187 C 75.841232,98.836594 63.711465,103.99034 52.377157,110.63443 C 48.364628,113.08773 43.010545,116.80307 40.054577,120.52509 C 41.041333,121.93585 43.477968,119.55705 44.348361,119.01187 C 49.731156,113.85480 55.961431,109.69312 62.491724,106.24210 C 76.538855,99.023455 90.899730,93.569384 103.04395,82.308669 C 110.67950,76.170734 116.37254,69.354538 119.07055,59.761075 C 120.27101,55.570435 121.46098,53.807697 121.14525,49.464349 z " id="path3025" style="fill:#000000;fill-opacity:1.0000000;fill-rule:evenodd;stroke:none;stroke-width:1.0000000px;stroke-linecap:butt;stroke-linejoin:miter;stroke-opacity:1.0000000"/>
  <path d="M 113.19058,26.167254 L 112.84375,25.843750 C 112.84375,25.843750 114.56911,28.939434 116.34375,32.718750 C 118.11839,36.498066 119.93947,41.020638 120.18750,43.625000 L 120.65933,43.531250 C 120.37919,40.589837 119.04051,36.125613 117.25000,32.312500 C 115.45949,28.499387 113.19058,26.167254 113.19058,26.167254 z " id="path3034" style="fill:#000000;fill-opacity:1.0000000;fill-rule:evenodd;stroke:none;stroke-width:1.0000000px;stroke-linecap:butt;stroke-linejoin:miter;stroke-opacity:1.0000000"/>
  <path d="M 111.65625,27.843750 C 111.33333,27.937500 111.80267,27.503081 111.47975,27.596831 C 112.27510,30.320549 112.20398,33.597430 112.74328,36.384263 C 112.98336,37.694958 113.22854,39.022508 113.15857,40.360979 C 113.19773,40.505933 112.99053,40.494239 113.19671,40.523665 C 113.47489,40.625665 114.19338,39.542617 114.11169,38.774715 C 113.73412,35.693637 112.97484,32.676227 112.17207,29.682883 C 112.00490,29.068518 111.83426,28.455068 111.65625,27.843750 z " id="path3036" style="fill:#000000;fill-opacity:1.0000000;fill-rule:evenodd;stroke:none;stroke-width:1.0000000px;stroke-linecap:butt;stroke-linejoin:miter;stroke-opacity:1.0000000"/>
</svg>
