<?xml version="1.0" encoding="UTF-8" standalone="no"?>
<!-- Generator: Adobe Illustrator 12.0.0, SVG Export Plug-In . SVG Version: 6.00 Build 51448)  --><svg height="264.522" id="Layer_1" inkscape:version="0.40+cvs" sodipodi:docbase="F:\openclip\svg temporanei" sodipodi:docname="Pera.svg" sodipodi:version="0.32" style="overflow:visible;enable-background:new 0 0 178.543 264.522;" version="1.0" viewBox="0 0 178.543 264.522" width="178.543" xml:space="preserve" xmlns="http://www.w3.org/2000/svg" xmlns:cc="http://web.resource.org/cc/" xmlns:dc="http://purl.org/dc/elements/1.1/" xmlns:inkscape="http://www.inkscape.org/namespaces/inkscape" xmlns:rdf="http://www.w3.org/1999/02/22-rdf-syntax-ns#" xmlns:sodipodi="http://inkscape.sourceforge.net/DTD/sodipodi-0.dtd" xmlns:svg="http://www.w3.org/2000/svg" xmlns:xml="http://www.w3.org/XML/1998/namespace"><metadata><rdf:RDF xmlns:cc="http://web.resource.org/cc/" xmlns:dc="http://purl.org/dc/elements/1.1/" xmlns:rdf="http://www.w3.org/1999/02/22-rdf-syntax-ns#"><cc:Work rdf:about=""><dc:title>Pera</dc:title><dc:description></dc:description><dc:subject><rdf:Bag><rdf:li>food</rdf:li><rdf:li>fruit</rdf:li></rdf:Bag></dc:subject><dc:publisher><cc:Agent rdf:about="http://www.openclipart.org"><dc:title>Architetto Francesco Rollandin</dc:title></cc:Agent></dc:publisher><dc:creator><cc:Agent><dc:title>Architetto Francesco Rollandin</dc:title></cc:Agent></dc:creator><dc:rights><cc:Agent><dc:title>Architetto Francesco Rollandin</dc:title></cc:Agent></dc:rights><dc:date></dc:date><dc:format>image/svg+xml</dc:format><dc:type rdf:resource="http://purl.org/dc/dcmitype/StillImage"/><cc:license rdf:resource="http://web.resource.org/cc/PublicDomain"/><dc:language>en</dc:language></cc:Work><cc:License rdf:about="http://web.resource.org/cc/PublicDomain"><cc:permits rdf:resource="http://web.resource.org/cc/Reproduction"/><cc:permits rdf:resource="http://web.resource.org/cc/Distribution"/><cc:permits rdf:resource="http://web.resource.org/cc/DerivativeWorks"/></cc:License></rdf:RDF></metadata>
<defs id="defs404"></defs>
<sodipodi:namedview bordercolor="#666666" borderopacity="1.0" id="base" inkscape:current-layer="Layer_1" inkscape:cx="89.271497" inkscape:cy="132.26100" inkscape:pageopacity="0.0" inkscape:pageshadow="2" inkscape:window-height="540" inkscape:window-width="640" inkscape:window-x="22" inkscape:window-y="22" inkscape:zoom="1.4289927" pagecolor="#ffffff"></sodipodi:namedview>

<g id="g3">
	<path d="M104.201,2.058c2.782,0.106,3.186,3.537,5.69,5.148c4.036,2.596,5.67-0.011,9.6-0.586c3.647-0.534,6.31,3.696,8.014,6.537   c2.748,4.579,5.81,9.402,9.406,13.358c6.349,6.982,16.263,14.938,26.759,13.597c2.309-0.295,4.961-1.301,7.255-1.912   c1.538-0.41,5.333-3.058,6.517-2.954c3.199,0.281-1.52,3.503-2.129,4.648c-4.462,8.387-7.405,17.003-15.422,23.066   c-6.251,4.727-12.825,2.155-19.2,0.652c-0.105,2.012,1.463,3.159-0.435,4.301c-2.412,1.451-5.86-1.818-7.212-3.649   c-2.046-2.773-2.492-9.15-6.384-6.56c-3.638,2.422-5.589-7.032-7.169-8.905c-4.481-5.313-12.001-6.47-14.683-13.597   c-2.971-7.894,1.871-17.855-1.216-26.281c-0.574-1.568-1.183-4.527-3.649-4.257c-2.573,0.282-4.904,6.139-5.408,8.036   c-1.816,6.851-0.957,12.199-8.624,14.77c-3.039,1.019-4.941,1.285-5.473,4.3c-0.357,2.027,0.071,5.619,0.391,7.689   c0.609,3.947,1.866,8.96,5.626,11.468c0.825,0.55,4.618-1.719,5.907-1.977c2.488-0.497,5.528,0.016,7.797,1.152   c5.101,2.552,9.51,10.562,12.62,15.16c3.087,4.564,6.862,8.843,9.493,13.684c6.003,11.043,6.992,23.327,6.992,35.623   c0,7.167-0.252,14.552,2.977,21.144c2.279,4.653,4.707,9.081,7.362,13.476c4.855,8.036,10.085,17.653,12.467,26.804   c2.29,8.795,0.809,17.993,0.956,26.759c0.184,10.939-1.181,20.963-6.517,30.712c-4.461,8.15-7.242,16.317-13.51,23.326   c-12.007,13.426-34.661,5.814-49.478,3.344c-3.944-0.657-7.591-1.721-11.512-2.387c-5.998-1.019-12.225-0.893-18.475-1.207   c-7.587-0.382-14.139-1.298-20.578-5.657c-6.338-4.291-11.451-10.001-16.378-15.796C5.265,221.777-2.135,199.483,0.553,182.551   c2.787-17.554,9.112-34.498,20.308-48.631c6.653-8.398,12.755-16.572,16.051-27.042c3.032-9.632,0.478-19.687,6.494-28.475   c1.822-2.661,1.639-4.861,4.075-7.18c2.295-2.183,4.407-4.559,6.684-6.763c5.262-5.095,11.366-10.164,19.079-10.247   c5.448-0.059,2.491-5.381,1.852-8.977c-0.71-3.997-0.384-8.157-0.911-12.141c-0.853-6.432-1.179-12.738-0.698-19.698   c0.196-2.834-0.049-13.386,2.826-12.729c0.247,0.057,0.506,2.604,1.802,2.259c1.494-0.398,1.948,0.588,2.933,1.39   c3.589,2.919-0.185,4.807-0.382,8.671c-0.177,3.46-2.752,11.432,1.771,11.572c3.955,0.123,5.996-5.312,6.799-8.34   c1.08-4.071,1.774-8.612,3.78-11.186c1.212-1.556,1.126-2.956,2.932-4.105C98.333-0.59,102.491-0.267,104.201,2.058" id="path5"></path>

	<path d="M98.987,3.013c-0.573-0.254-1.106-0.641-1.649-0.956C99.079,1.546,98.445,2.428,98.987,3.013" id="path7" style="fill:#007300;"></path>

	<path d="M97.032,4.968c-1.307-0.714-1.676-1.585-0.347-2.606C96.853,3.201,97.044,4.164,97.032,4.968" id="path9" style="fill:#409F40;"></path>

	<path d="M96.381,5.967C94.757,10.593,92.638,3.104,96.381,5.967" id="path11" style="fill:#007300;"></path>

	<path d="M80.351,8.226c-1.784,0.675-4.828,0.813-4.17-1.955C77.308,7.387,78.899,8.217,80.351,8.226" id="path13" style="fill:#007300;"></path>

	<path d="M94.731,8.574C93.073,11.658,92.028,8.622,94.731,8.574" id="path15" style="fill:#409F40;"></path>

	<path d="M126.355,14.438c1.972,3.926,5.374,6.867,7.471,10.729c-3.079,0.92-6.673,0.167-9.86,0.348   c-1.796,0.102-2.623,0.411-3.996-0.478c-2.042-1.321-4.351-5-5.69-7.038c2.219-0.527,4.503-0.82,6.689-1.477   c5.174-1.552-1.503-1.523-3.563-1.26c-5.233,0.667-7.574-1.579-9.296-6.385c4.615,1.962,7.422,0.182,11.686,0   C122.471,8.764,125.733,11.088,126.355,14.438" id="path17" style="fill:#80FF00;"></path>

	<path d="M79.048,10.529c0.429,0.075,0.208-0.949,0.695,0c-1.362,0.475-2.854,0.477-4.213,0   c0.101-0.217,0.203-0.435,0.304-0.652C76.785,10.793,78.017,11.019,79.048,10.529" id="path19" style="fill:#007300;"></path>

	<path d="M110.065,16.045c0.754,2.534,2.404,5.065,2.954,7.428c1.182,5.081-0.154,11.228-2.954,16.029   c-8.594-7.126,1.007-20.338-3.605-28.322C107.891,12.662,108.501,14.68,110.065,16.045" id="path21" style="fill:#409F40;"></path>

	<path d="M93.123,13.135C90.327,13.416,92.798,10.09,93.123,13.135" id="path23" style="fill:#007300;"></path>

	<path d="M78.136,12.483c-1.17,0.295-1.793,0.73-2.606-0.348C76.381,12.249,77.312,12.25,78.136,12.483" id="path25" style="fill:#007300;"></path>

	<path d="M78.788,15.394c-1.29,0.17-2.57,0.425-3.606-0.304C76.589,14.627,78.227,14.378,78.788,15.394" id="path27" style="fill:#409F40;"></path>

	<path d="M92.471,15.09c-0.116,0.318-0.231,0.637-0.347,0.956c-0.39-0.135-0.85-0.168-1.304-0.304   c0.116-0.435,0.232-0.869,0.348-1.303C91.558,14.839,91.958,14.893,92.471,15.09" id="path29" style="fill:#409F40;"></path>

	<path d="M90.821,20.954c-4.184-0.596,3.031-0.777-0.65-2.954c0.485-0.383,1.354-0.806,1.954-0.956   C92.105,18.472,91.729,19.857,90.821,20.954" id="path31" style="fill:#007300;"></path>

	<path d="M75.14,17.696c0.929-0.441,2.185-0.554,3.3-0.348C77.34,17.469,76.241,17.601,75.14,17.696" id="path33" style="fill:#409F40;"></path>

	<path d="M78.397,19.651c0.134,1.874-1.627,0.957-3.215,1.303C74.777,18.847,77.023,18.979,78.397,19.651" id="path35" style="fill:#007300;"></path>

	<path d="M90.517,22.909c-1.58,0.645-3.339,0.24-1.651-1.651C89.38,21.772,90.156,22.284,90.517,22.909" id="path37" style="fill:#007300;"></path>

	<path d="M119.839,28.426c-0.444,1.345,0.301,2.95,1.542,4.191c2.131,2.134,2.496,4.706,3.735,7.472   c2.105,4.699,4.394,9.282,4.8,14.4c-1.062-2.616-4.065-1.807-3.562,1.303c-2.708-0.592-2.26-3.517-3.259-5.517   c-1.924-3.853-10.229-6.146-11.077-9.774c-0.392-1.676,2.417-5.497,2.91-7.167c1.156-3.915-0.431-7.482-0.304-11.425   C116.695,23.796,118.258,26.134,119.839,28.426" id="path39" style="fill:#9FFF40;"></path>

	<path d="M78.136,22.257c-0.042,0.581-0.549,0.465,0,0.956c-0.875,0.396-2.015,0.801-2.954,1   C75.037,22.583,76.625,22.077,78.136,22.257" id="path41" style="fill:#007300;"></path>

	<path d="M78.397,25.167c-0.389,1.138-1.528,1.336-2.867,1.304c0.739-1.017,1.849-1.499,2.606-2.606   C78.008,24.443,78.375,24.896,78.397,25.167" id="path43" style="fill:#409F40;"></path>

	<path d="M85.955,25.819c-0.819,0.024-0.966-0.248-1.65,0C85.416,24.665,85.455,25.658,85.955,25.819" id="path45" style="fill:#007300;"></path>

	<path d="M82.307,26.471c-0.284,0.044-0.539,0.603-1.259,0C81.52,26.304,82.025,26.515,82.307,26.471" id="path47" style="fill:#007300;"></path>

	<path d="M144.598,35.941c-9.283,3.424-17.188-0.652-22.5-8.167c3.152-0.458,10.444-1.653,13.379-0.651   C138.822,28.265,141.396,33.982,144.598,35.941" id="path49" style="fill:#409F40;"></path>

	<path d="M78.136,27.774c0.069,1.816-1.159,2.373-2.606,2.303c-0.161-0.575-0.16-1.727,0-2.303   C76.499,28.077,77.064,27.772,78.136,27.774" id="path51" style="fill:#007300;"></path>

	<path d="M78.136,31.032c-0.715,0.549-1.283,1.119-2.302,1.303C76.542,31.814,77.361,31.413,78.136,31.032" id="path53" style="fill:#007300;"></path>

	<path d="M78.788,33.986c-0.956,0.195-2.005,0.457-2.955,0.652C76.971,33.84,78.065,32.961,78.788,33.986" id="path55" style="fill:#409F40;"></path>

	<path d="M129.612,38.2c0.789,3.074,6.072,4.77,8.232,6.929c3.46,3.458,6.977,8.299,8.58,12.967   c0.514,1.495,0.677,2.783,0.803,4.409c0.106,1.367,1.832,1.032,2.02-0.044c0.224-1.283,0.027-2.653-0.434-3.866   c-0.899-2.365-1.983-4.314-3.129-6.277c-0.887-1.52-2.375-3.282-3.04-4.996c3.439,1.941,8.004,1.853,11.534,3.54   c3.71,1.773,7.082,3.549,10.925,4.931c-5.579,6.873-11.357,7.819-19.592,7.819c-1.77,0-3.432-2.466-5.082-2.129   c-2.573,0.525-0.323,7.497-4.257,4.127c-4.403-3.771-3.311-7.665-4.171-12.684c-1.126-6.569-4.619-13.35-7.602-19.288   C126.917,34.559,126.574,38.305,129.612,38.2" id="path57" style="fill:#80FF00;"></path>

	<path d="M79.048,35.941c-0.55,1.038-1.594,1.431-2.867,1.303C76.932,36.271,78.024,35.789,79.048,35.941" id="path59" style="fill:#409F40;"></path>

	<path d="M161.801,41.458c-0.379,2.133-2.332,1.59-3.67,2.779c-3.301,2.935-8.733,3.143-12.598,1.413   c-4.026-1.802-10.948-2.652-12.664-7.45c2.452,0.094,4.86,0.823,7.321,0.608c1.928-0.168,4.092-1.041,6.017-0.913   c2.129,0.142,3.256,1.169,5.539,1.955C154.951,40.954,158.657,40.731,161.801,41.458" id="path61" style="fill:#80FF00;"></path>

	<path d="M79.439,37.896C79.044,41.598,73.13,39.935,79.439,37.896" id="path63" style="fill:#007300;"></path>

	<path d="M160.5,47.019c-0.821,0.13-1.729,0-2.563,0c2.134-1.909,7.704-2.908,6.862-6.212   c3.521,0.642,6.631-0.91,9.773-2.259C172.13,44.081,165.468,44.883,160.5,47.019" id="path65" style="fill:#409F40;"></path>

	<path d="M80.091,40.806c-0.167,1.454-1.587,2.21-2.954,2.606C77.289,41.88,78.542,40.902,80.091,40.806" id="path67" style="fill:#409F40;"></path>

	<path d="M77.484,46.67c-0.279-1.969,2.12-3.367,3.258-1.955C79.656,45.367,78.57,46.019,77.484,46.67" id="path69" style="fill:#409F40;"></path>

	<path d="M170.924,45.063c-0.534,1.903-2.509,7.964-4.519,8.775c-2.796,1.127-10.285-3.637-12.379-4.561   C160.224,49.537,165.487,47.283,170.924,45.063" id="path71" style="fill:#80FF00;"></path>

	<path d="M81.004,47.019c-0.959,0.668-2.075,1.224-3.215,1.607C78.569,47.59,79.858,47.012,81.004,47.019" id="path73" style="fill:#007300;"></path>

	<path d="M82.698,49.277c-1.648,0.584-3.621,2.842-4.909,1.303C79.764,50.255,81.178,47.53,82.698,49.277" id="path75" style="fill:#409F40;"></path>

	<path d="M84,50.58c-0.719,2.31-3.245,2.941-5.211,3.91C78.568,53.447,82.357,50.683,84,50.58" id="path77" style="fill:#007300;"></path>

	<path d="M85.565,53.534c-0.525,1.413-5.827,5.248-6.474,3.648c-0.321-0.793,4.832-3.712,5.561-4.952   C84.759,52.606,85.534,53.458,85.565,53.534" id="path79" style="fill:#409F40;"></path>

	<path d="M86.868,59.398c-0.777,1.554-2.467,2.129-4.17,1.955c1.558-1.063,4.439-3.134,3.257-4.909   c-2.029,1.363-3.415,3.934-6.212,3.258c2.719-1.186,5.273-2.609,6.863-5.213C87.56,55.967,87.429,57.838,86.868,59.398" id="path81" style="fill:#007300;"></path>

	<path d="M107.111,62.657c3.146-0.777,11.41,13.104,12.933,15.872c2.229,4.051,3.978,8.493,5.442,12.885   c1.433,4.296,0.81,8.817,2.041,13.141c2.107,7.398-0.685,16.258,0.651,23.979c1.896,10.951,9.496,19.741,14.455,29.483   c3.385,6.649,6.764,14.018,8.39,21.32c1.483,6.66,0.817,14.009,0.788,20.807c-0.054,12.396-1.735,22.14-7.213,33.232   c-1.562-1.463-3.496,1.098-0.998,1.303c-2.501,8.353-6.877,15.313-12.814,21.547c-10.125,10.628-28.105,5.402-40.745,3.927   c-5.491-0.642-10.766-2.98-16.249-3.841c-7.083-1.111-14.335-0.855-21.476-1.275c-7.332-0.432-13.77-1.987-19.951-6.005   c-2.576-1.675-4.738-4.79-7.008-6.882C9.585,227.617-0.013,203.986,2.303,182.728c1.964-18.027,10.043-34.681,20.751-49.091   c7.095-9.549,13.227-16.433,15.891-28.626c1.25-5.723,0.215-12.992,2.571-18.418c0.226-0.52,1.165-1.525,1.13-1.434   c-0.03,0.079,0.61-1.53,0.651-1.607c1.042-1.953,1.062-2.791,2.91-4.605c-0.409-0.255-0.533-0.229-0.999-0.347   c1.074-1.129,2.539,1.08,4.257,0.651c1.886-0.47,4.372-3.954,6.517-4.865c0.275,2.364-2.291,6.286,1.042,7.646   c2.008,0.819,4.826-2.289,6.429-4.083c-2.4,3.985-7.096,10.403-4.887,15.269c0.908,1.999,3.205,1.907,4.974,1.195   c5.072-2.041,5.214-10.135,6.298-14.77c0.945-4.04,2.583-11.968,7.516-13.206c5.097-1.279,1.568,3.05,2.867,5.647   c2.71,5.42,7.434-6.371,9.297-7.472c2.799,4.411,3.487,8.903,5.474,13.619c2.627,6.235,5.813,1.984,6.624-2.325   c0.766-4.065-4.651-8.746-2.064-13.249c2.039-3.549,5.033,4.685,7.255-2.303C106.419,61.375,106.908,61.766,107.111,62.657" id="path83" style="fill:#FF8000;"></path>

	<path d="M100.941,63.612C100.242,66.157,99.249,63.752,100.941,63.612" id="path85"></path>

	<path d="M106.806,65.263C105.865,66.969,105.072,65.505,106.806,65.263" id="path87"></path>

	<path d="M88.562,69.477C86.719,69.386,87.294,68.317,88.562,69.477" id="path89"></path>

	<path d="M103.549,69.824C101.309,70.453,101.775,67.879,103.549,69.824" id="path91"></path>

	<path d="M78.136,69.172C77.403,70.958,77.014,70.274,78.136,69.172" id="path93"></path>

	<path d="M90.821,70.128C90.109,72.622,88.674,69.887,90.821,70.128" id="path95"></path>

	<path d="M106.806,70.476C105.637,72.214,104.491,69.538,106.806,70.476" id="path97"></path>

	<path d="M85.955,73.733C84.823,74.699,84.31,73.464,85.955,73.733" id="path99"></path>

	<path d="M74.877,74.689c-0.2-0.23-1.045,0.028-0.347-1.304C75.03,73.866,74.639,74.127,74.877,74.689" id="path101"></path>

	<path d="M103.549,73.386c0.184,0.71,0.193,1.063,0,1.651C101.956,74.469,101.831,73.747,103.549,73.386" id="path103"></path>

	<path d="M93.123,75.688C92.279,79.262,90.041,73.74,93.123,75.688" id="path105"></path>

	<path d="M54.982,76.34C54.863,78.38,52.82,77.108,54.982,76.34" id="path107"></path>

	<path d="M74.227,76.34c-0.678,0.925-0.791,1.831-1.304,0C73.357,76.34,73.792,76.34,74.227,76.34" id="path109"></path>

	<path d="M82.959,76.34C81.957,78.197,81.328,76.535,82.959,76.34" id="path111"></path>

	<path d="M74.487,81.205c-0.611-0.508-1.378-0.418-0.26-1.607C75.036,80.217,74.548,80.512,74.487,81.205" id="path113"></path>

	<path d="M51.073,80.25C50.307,83.376,47.769,80.023,51.073,80.25" id="path115"></path>

	<path d="M55.33,81.205c-0.333,0.116-0.666,0.232-0.999,0.348C54.087,79.69,54.527,80.577,55.33,81.205" id="path117"></path>

	<path d="M71.88,81.857C69.417,82.8,70.026,80.063,71.88,81.857" id="path119"></path>

	<path d="M46.859,84.159c-1.966-0.729-1.289-1.383,0.305-1.65C47.062,83.059,46.96,83.609,46.859,84.159" id="path121"></path>

	<path d="M57.937,83.508c-1.05,0.928-1.787,0.992-0.999-0.999C57.271,82.842,57.604,83.175,57.937,83.508" id="path123"></path>

	<path d="M70.968,84.159c-0.215,1.419-0.591,1.536-1.65,0.304C69.928,83.576,70.247,84,70.968,84.159" id="path125"></path>

	<path d="M56.634,86.766C56.226,89.067,54.219,87.232,56.634,86.766" id="path127"></path>

	<path d="M44.904,89.372c-1.272,0.479-1.539,0.202-0.999-1.303C44.382,88.434,44.592,88.913,44.904,89.372" id="path129"></path>

	<path d="M59.891,90.979c0.101-0.319,0.203-0.637,0.304-0.956C60.366,90.649,59.978,90.798,59.891,90.979" id="path131" style="fill:#FFFFFF;"></path>

	<path d="M54.027,91.979c-0.435,0-0.869,0-1.303,0C53.303,90.553,53.796,90.026,54.027,91.979" id="path133"></path>

	<path d="M39.692,134.332C38.724,136.382,37.235,134.633,39.692,134.332" id="path135"></path>

	<path d="M40.343,139.85C38.749,141.697,38.002,139.343,40.343,139.85" id="path137"></path>

	<path d="M36.043,140.848C33.739,141.357,34.692,139.053,36.043,140.848" id="path139"></path>

	<path d="M31.872,145.409C29.489,147.925,29.952,141.662,31.872,145.409" id="path141"></path>

	<path d="M36.434,144.758C35.485,147.956,33.694,142.709,36.434,144.758" id="path143"></path>

	<path d="M35.391,147.364c-0.203,0.318-0.405,0.638-0.608,0.956c-0.318-0.318-0.637-0.638-0.956-0.956   C34.547,146.772,34.837,147.259,35.391,147.364" id="path145"></path>

	<path d="M30.83,150.623C29.088,152.538,28.583,148.891,30.83,150.623" id="path147"></path>

	<path d="M34.74,149.971C35.241,152.358,31.789,150.587,34.74,149.971" id="path149"></path>

	<path d="M39.953,151.577c-0.395,0.169-0.657,0.472-1.26,0.349c0.116-0.551,0.231-1.101,0.347-1.651   C39.989,150.53,39.816,150.933,39.953,151.577" id="path151"></path>

	<path d="M35.391,153.881c-0.132,0.424-0.249,0.831-0.26,1.303c-1.427-0.13-1.178-0.025-1-1.651   C33.853,153.461,35.839,153.938,35.391,153.881" id="path153"></path>

	<path d="M30.179,155.184c-0.352,0.457-0.007,1.017-1.26,0.651C28.688,154.127,29.208,153.79,30.179,155.184" id="path155"></path>

	<path d="M38.388,154.185C38.63,159.115,34.53,153.89,38.388,154.185" id="path157"></path>

	<path d="M33.437,159.745C30.657,160.573,32.765,157.04,33.437,159.745" id="path159"></path>

	<path d="M28.875,159.396c-0.087,0.333-0.174,0.666-0.261,0.999C26.925,159.182,27.828,159.453,28.875,159.396" id="path161"></path>

	<path d="M36.434,161.699C35.987,164.229,34.16,161.455,36.434,161.699" id="path163"></path>

	<path d="M29.527,163.308C29.818,165.269,27.905,164.309,29.527,163.308" id="path165"></path>

	<path d="M19.753,165.913C17.919,167.025,18.004,165.113,19.753,165.913" id="path167"></path>

	<path d="M23.706,166.564C21.56,166.919,22.779,164.278,23.706,166.564" id="path169"></path>

	<path d="M32.785,166.261c-0.203,0.217-0.406,0.435-0.608,0.651C31.302,165.346,31.816,165.868,32.785,166.261" id="path171"></path>

	<path d="M15.843,166.564C15.509,169.127,13.245,166.546,15.843,166.564" id="path173"></path>

	<path d="M28.614,167.216C26.86,168.595,26.128,165.821,28.614,167.216" id="path175"></path>

	<path d="M27.311,169.519C27.151,171.666,24.169,169.876,27.311,169.519" id="path177"></path>

	<path d="M32.133,169.822c-0.202,0.483,0.071,0.917-0.608,1.304C30.883,169.508,31.596,170.018,32.133,169.822" id="path179"></path>

	<path d="M40.343,170.17c0.432,1.497-0.031,2.729-1.651,2.606C38.584,171.428,39.112,170.446,40.343,170.17" id="path181"></path>

	<path d="M21.056,172.125C18.507,173.256,19.704,170.019,21.056,172.125" id="path183"></path>

	<path d="M34.088,172.429c-1.019,0.271-1.506,0.807-1.564-0.955C33.564,171.308,33.669,171.8,34.088,172.429" id="path185"></path>

	<path d="M18.45,172.429C16.208,173.874,16.458,171.247,18.45,172.429" id="path187"></path>

	<path d="M140.69,171.777C140.15,174.068,138.338,172.224,140.69,171.777" id="path189"></path>

	<path d="M145.555,172.429c-0.461,0.777-0.371,1.288-1.608,0.652C144.358,171.491,144.682,172.067,145.555,172.429" id="path191"></path>

	<path d="M15.583,173.732C13.918,176.383,12.927,171.865,15.583,173.732" id="path193"></path>

	<path d="M31.872,173.429c-0.79,1.572-1.728,2.008-1.954-0.348C30.638,172.955,31.268,173.116,31.872,173.429" id="path195"></path>

	<path d="M26.008,175.384C23.819,176.084,24.453,173.5,26.008,175.384" id="path197"></path>

	<path d="M20.404,176.946C14.678,180.95,18.429,172.258,20.404,176.946" id="path199"></path>

	<path d="M38.388,178.642C35.666,179.555,37.436,175.776,38.388,178.642" id="path201"></path>

	<path d="M143.947,178.249C142.093,180.081,142.662,176.018,143.947,178.249" id="path203"></path>

	<path d="M26.964,179.293c0.128,1.144-0.041,1.847,0.999,2.606c-0.884,0.546-1.128,0.509-1.955,0.304   C26.189,180.944,25.266,179.418,26.964,179.293" id="path205"></path>

	<path d="M33.176,179.293c-0.153,0.861,0.443,1.69,0.39,1.998c-0.381,2.199-1.663-0.303-1.694-1.998   C32.307,179.293,32.742,179.293,33.176,179.293" id="path207"></path>

	<path d="M22.099,181.899c-1.598-0.337-3.447,0.138-2.955-1.651C20.526,181.284,22.46,179.517,22.099,181.899" id="path209"></path>

	<path d="M143.296,182.16C141.747,182.794,141.852,182.077,143.296,182.16" id="path211"></path>

	<path d="M148.813,183.202c-0.405-0.265-0.91-0.07-1.303-0.651c0.489-0.375,0.67-0.268,1.303-0.348   C148.813,182.536,148.813,182.869,148.813,183.202" id="path213"></path>

	<path d="M31.872,182.551c0.071,0.598-0.186,0.877,0.305,1.303C30.682,183.974,30.605,183.379,31.872,182.551" id="path215"></path>

	<path d="M25.009,185.418C21.834,185.498,23.884,183.55,25.009,185.418" id="path217"></path>

	<path d="M41.646,185.418c-0.333,0.015-0.666,0.029-0.999,0.044C40.991,183.651,41.353,183.856,41.646,185.418" id="path219"></path>

	<path d="M21.447,185.418C19.359,185.697,19.688,184.761,21.447,185.418" id="path221"></path>

	<path d="M35.131,186.721C32.737,185.874,35.549,184.476,35.131,186.721" id="path223"></path>

	<path d="M145.555,186.721C143.854,189.213,143.261,185.151,145.555,186.721" id="path225"></path>

	<path d="M35.782,188.023c-0.517,0.323,0.11,1.066-1.303,0.695C34.79,187.519,35.207,188.095,35.782,188.023" id="path227"></path>

	<path d="M145.555,188.676c0,0.348,0,0.694,0,1.042C144.071,189.073,145.012,189.072,145.555,188.676" id="path229"></path>

	<path d="M23.402,189.066c-0.091,0.689-0.041,1.141-0.651,1.607c-0.116-0.536-0.232-1.071-0.348-1.607   C22.736,189.066,23.069,189.066,23.402,189.066" id="path231"></path>

	<path d="M28.614,189.066c-0.018,1.321-0.207,2.021-1.303,0.955c-0.785,1.776-1.563,1.537-1.65-0.304   C26.875,189.867,27.618,189.688,28.614,189.066" id="path233"></path>

	<path d="M147.857,189.327C147.31,192.185,145.157,188.961,147.857,189.327" id="path235"></path>

	<path d="M38.388,191.021C37.08,190.013,37.789,189.083,38.388,191.021" id="path237"></path>

	<path d="M32.133,191.021c0.015,0.318,0.029,0.638,0.043,0.956C30.57,191.171,31.345,191.252,32.133,191.021" id="path239"></path>

	<path d="M34.088,194.932C31.217,195.173,32.913,190.876,34.088,194.932" id="path241"></path>

	<path d="M144.903,194.932C144.581,197.54,141.795,194.854,144.903,194.932" id="path243"></path>

	<path d="M36.695,197.538c-1.625,1.328-2.892,0.472-1.26-1C36.105,196.693,36.422,197.083,36.695,197.538" id="path245"></path>

	<path d="M28.614,198.84c-0.721,0.262-1.018,0.613-1.65-0.347c0.333-0.318,0.666-0.637,0.999-0.955   C28.518,197.92,28.464,198.311,28.614,198.84" id="path247"></path>

	<path d="M145.555,199.492C144.317,198.499,144.961,197.53,145.555,199.492" id="path249"></path>

	<path d="M149.811,199.145c-0.494,1.293-0.671,1.952-1.649,2.304C148.064,200.006,148.356,198.661,149.811,199.145" id="path251"></path>

	<path d="M32.133,201.448c-0.399,0.067-0.638,0.389-1.26,0c0.116-0.435,0.231-0.87,0.347-1.305   C31.887,200.404,31.918,200.878,32.133,201.448" id="path253"></path>

	<path d="M37.737,203.705c0,0.334,0,0.667,0,1.001C35.916,204.378,35.731,203.32,37.737,203.705" id="path255"></path>

	<path d="M33.437,206.964c-1.239-0.129-1.774-0.551-1.26-1.955C32.956,205.44,33.231,206.146,33.437,206.964" id="path257"></path>

	<path d="M142.297,207.615c-1.289,0.111-5.139,0.405-1.954,0C140.958,206.113,141.667,206.168,142.297,207.615" id="path259"></path>

	<path d="M40.604,208.268C40.142,211.412,37.886,208.16,40.604,208.268" id="path261"></path>

	<path d="M147.206,208.615C145.662,210.653,144.759,207.617,147.206,208.615" id="path263"></path>

	<path d="M37.998,212.525C34.697,212.24,37.964,209.283,37.998,212.525" id="path265"></path>

	<path d="M43.21,211.873C41.176,212.824,41.381,211.06,43.21,211.873" id="path267"></path>

	<path d="M142.644,213.176C141.694,215.161,140.969,213.299,142.644,213.176" id="path269"></path>

	<path d="M44.253,215.783C44.461,219.498,40.253,214.813,44.253,215.783" id="path271"></path>

	<path d="M50.769,216.086c-0.598,1.431-1.415,1.214-1.954-0.303C49.548,215.658,50.134,215.849,50.769,216.086" id="path273"></path>

	<path d="M140.69,215.783c-0.097,0.71-0.195,1.331-0.651,1.954C138.871,216.784,139.422,216.364,140.69,215.783" id="path275"></path>

	<path d="M48.814,220.345c-0.973-0.022-1.299-0.151-0.652-1.651C48.789,219.196,48.673,219.648,48.814,220.345" id="path277"></path>

	<path d="M138.083,220.345C136.204,222.493,135.378,219.432,138.083,220.345" id="path279"></path>

	<path d="M140.343,227.121C138.735,228.317,138.325,226.104,140.343,227.121" id="path281"></path>

	<path d="M132.523,228.814c-1.171-0.968-0.552-1.617,0.999-1.954C133.579,227.894,133.108,228.257,132.523,228.814" id="path283"></path>

	<path d="M138.735,230.377C136.873,231.512,136.673,230.24,138.735,230.377" id="path285"></path>

	<path d="M131.872,232.377C128.622,233.296,131.609,229.381,131.872,232.377" id="path287"></path>

	<path d="M130.263,235.635C129.656,238.012,128.062,235.758,130.263,235.635" id="path289"></path>

	<path d="M136.432,235.635c-0.415,0.829-1.105,1.208,0.348,1.304c-0.841,1.593-1.858,1.729-1.303,0   C134.451,235.996,134.881,235.553,136.432,235.635" id="path291"></path>

	<path d="M139.041,238.241c-0.517-0.402-1.077,0.105-1.305-0.957c0.387-0.231,0.902-0.24,1.305-0.346   C139.041,237.373,139.041,237.807,139.041,238.241" id="path293"></path>

	<path d="M135.78,240.847C133.473,240.408,135.357,238.504,135.78,240.847" id="path295"></path>

	<path d="M131.872,242.498C130.271,244.251,129.417,242.274,131.872,242.498" id="path297"></path>

	<path d="M79.701,245.408c30.796-4.532,44.102-40.903,46.915-68.288c1.499-14.587,1.073-29.95-0.099-44.544   c-1.165-14.504-2.928-31.803-14.715-41.988c-9.988-8.63-29.827-11.898-41.008-4.127c-12.682,8.815-16.99,26.086-20.503,40.136   c-3.509,14.034-3.999,29.344-3.673,43.737c0.329,14.517,0.725,30.101,5.096,44.075c2.485,7.947,5.273,14.795,9.98,21.691   C65.984,242.385,72.817,244.309,79.701,245.408" id="path299" style="fill:#FF8000;"></path>

	<path d="M80.004,243.235c29.668-4.291,44.674-40.994,46.082-67.934c0.824-15.785,0.869-31.499-0.414-47.264   c-1.046-12.839-3.771-30.851-15.721-38.382c-11.188-7.051-29.523-11.637-40.425-1.527c-10.984,10.187-16.481,25.689-18.89,40.242   c-4.86,29.371-5.331,61.184,3.585,89.854C58.357,231.526,66.076,241.113,80.004,243.235" id="path301" style="fill:#FF8200;"></path>

	<path d="M80.309,241.063c29.628-4.368,43.873-40.972,45.293-67.691c0.836-15.712,0.677-31.341-0.562-47.03   c-1.069-13.542-4.551-29.713-16.781-37.489c-7.102-4.515-14.176-5.481-22.434-6.158c-7.641-0.626-13.299,3.185-18.634,8.125   c-10.33,9.567-14.176,27.35-16.356,40.627c-4.534,27.606-5.262,61.116,4.973,87.638C60.437,231.081,67.363,239.129,80.309,241.063" id="path303" style="fill:#FF8400;"></path>

	<path d="M80.613,238.894c29.718-4.279,43.187-41.392,44.524-67.893c0.793-15.696,0.489-31.313-0.766-46.977   c-1.268-15.805-6.667-28.891-20.15-37.541c-4.923-3.157-15.579-4.509-21.183-3.594c-7.815,1.276-13.426,4.898-18.03,11.416   c-8.952,12.671-11.877,27.768-14.381,42.788c-2.441,14.646-1.8,30.216-0.788,44.956c0.959,13.981,2.607,31.694,10.733,43.619   C65.826,233.376,71.173,237.877,80.613,238.894" id="path305" style="fill:#FF8700;"></path>

	<path d="M80.917,236.721c30.557-4.484,42.415-42.611,43.784-69.345c0.753-14.717,0.825-29.852-0.908-44.512   c-1.564-13.229-6.168-32.112-20.839-36.683c-7.892-2.458-15.199-3.864-23.446-2.489c-7.439,1.24-12.412,8.44-16.42,14.106   c-7.627,10.782-10.617,27.608-11.82,40.47c-2.725,29.151-3.924,64.955,13.186,90.16C68.18,233.919,74.796,236.06,80.917,236.721" id="path307" style="fill:#FF8900;"></path>

	<path d="M81.177,234.549c31.393-4.669,41.736-43.982,43.14-70.966c0.754-14.468,0.762-29.796-1.573-44.117   c-2.607-15.997-8.058-29.43-24.554-34.591c-34.953-10.936-44.216,32.151-46.55,57.744c-1.307,14.338-1.427,29.31,0.483,43.606   c1.885,14.111,3.979,31.797,14.924,42.127C71.291,232.357,75.581,233.947,81.177,234.549" id="path309" style="fill:#FF8C00;"></path>

	<path d="M81.482,232.42c31.975-4.858,41.074-45.241,42.407-72.314c0.731-14.852,0.093-30.213-2.277-44.886   c-1.01-6.256-2.958-14.418-7.226-19.316c-5.634-6.466-10.813-9.203-18.945-11.758c-34.255-10.762-41.314,39.833-43.386,62.127   c-1.331,14.32-0.336,29.255,1.537,43.473c1.716,13.026,5.139,31.028,16.77,39.112C73.85,231.282,77.411,231.791,81.482,232.42" id="path311" style="fill:#FF8E00;"></path>

	<path d="M81.785,230.247c31.467-4.867,40.145-44.585,41.574-71.185c1.323-24.627,3.201-68.564-28.15-74.817   c-7.181-1.432-15.153-1.382-21.329,2.955c-5.972,4.193-9.986,11.567-12.771,18.114c-5.652,13.283-7.913,28.942-8.323,43.288   c-0.418,14.651-0.669,29.938,2.324,44.37c2.637,12.713,6.492,31.797,20.854,36.406C77.757,229.954,79.917,229.969,81.785,230.247" id="path313" style="fill:#FF9100;"></path>

	<path d="M82.09,228.075c31.885-4.812,39.473-45.707,40.824-72.212c1.237-24.301,2.104-68.981-30.656-71.735   C83.894,83.425,77.774,84.015,71.442,90c-5.486,5.185-8.69,12.417-11.138,19.441c-5.07,14.545-6.382,29.877-6.883,45.173   c-0.489,14.931,1.073,29.819,4.089,44.418C60.367,212.86,67.304,225.822,82.09,228.075" id="path315" style="fill:#FF9300;"></path>

	<path d="M82.35,225.904c30.46-4.669,40.102-45.401,40.008-71.421c-0.05-13.893,1.116-29.775-2.802-43.27   c-2.287-7.876-4.839-13.653-10.202-19.912c-4.853-5.664-13.985-6.74-20.848-7.359c-30.65-2.763-33.622,49.127-34.227,69.67   C53.616,176.133,53.788,221.235,82.35,225.904" id="path317" style="fill:#FF9600;"></path>

	<path d="M82.654,223.731c30.105-4.49,39.362-45.282,39.177-70.835c-0.115-16.005,0.05-32.117-4.438-47.606   c-3.933-13.576-18.196-23.734-32.671-21.246c-27.687,4.761-28.985,48.909-29.632,70.488   C54.463,175.485,55.343,220.458,82.654,223.731" id="path319" style="fill:#FF9800;"></path>

	<path d="M82.959,221.56c29.937-4.567,38.489-45.206,38.302-70.455c-0.118-15.904-0.127-31.7-4.65-47.062   c-4.606-15.64-20.663-21.678-35.596-19.169c-11.103,1.865-17.898,19.413-20.144,28.711c-3.236,13.394-4.926,26.845-4.976,40.643   C55.82,174.632,56,218.37,82.959,221.56" id="path321" style="fill:#FF9B00;"></path>

	<path d="M83.262,219.389c30.547-4.545,37.525-46.376,37.431-71.522c-0.055-14.598,0.662-31.117-4.808-44.941   c-2.335-5.9-7.112-13.552-13.585-15.632c-6.047-1.943-15.588-5.312-21.741-1.985c-21.594,11.674-24.304,46.182-23.791,68.097   C57.237,173.339,56.479,216.315,83.262,219.389" id="path323" style="fill:#FF9D00;"></path>

	<path d="M83.522,217.259c31.649-5.02,36.8-48.574,36.605-74.205c-0.104-13.65,0.435-29.775-5.71-42.323   c-6.419-13.108-22.951-21.008-36.661-13.586c-10.174,5.508-14.074,20.425-16.551,30.733c-2.8,11.654-3.777,24.007-3.539,35.977   C58.07,174.104,57.872,212.937,83.522,217.259" id="path325" style="fill:#FFA000;"></path>

	<path d="M83.827,215.087c31.542-4.871,35.923-48.906,35.726-74.088c-0.106-13.671,0.011-29-6.122-41.527   c-5.905-12.061-24.466-20.435-36.468-11.534c-9.835,7.293-12.994,21.141-15.667,32.335c-2.667,11.173-3.018,23.433-2.741,34.863   C59.025,174.463,59.436,211.117,83.827,215.087" id="path327" style="fill:#FFA300;"></path>

	<path d="M84.131,212.915c31.598-5.002,35.086-49.39,34.889-74.42c-0.114-14.455-1.007-28.766-7.393-41.907   c-2.896-5.958-10.999-10.649-17.429-11.219c-9.007-0.798-14.071-0.015-20.659,6.432c-7.155,7.002-10.291,20.443-11.79,29.953   c-1.832,11.631-2.531,23.135-2.289,34.905C59.841,175.02,61.098,209.212,84.131,212.915" id="path329" style="fill:#FFA500;"></path>

	<path d="M84.434,210.742c31.062-4.81,34.479-49.331,34.015-73.848c-0.273-14.486-0.115-31.816-9.765-43.566   c-5.228-6.365-12.783-7.63-20.531-8.376c-7.789-0.75-13.183,5.454-17.095,11.249c-11.596,17.178-11.079,42.626-10.662,62.43   C60.762,175.997,62.975,207.431,84.434,210.742" id="path331" style="fill:#FFA800;"></path>

	<path d="M84.696,208.571c30.476-4.813,34.054-49.199,33.201-73.317   c-0.544-15.369-0.735-31.141-10.874-43.532c-4.099-5.008-13.566-7.01-19.678-6.694c-7.505,0.388-12.879,5.943-16.377,12.163   c-9.977,17.738-10.586,41.158-9.687,60.947C62.062,175.293,63.754,205.067,84.696,208.571" id="path333" style="fill:#FFAA00;"></path>

	<path d="M85,206.399c30.239-4.636,33.05-49.227,32.307-72.828c-0.383-12.158,0.418-34.297-11.077-42.261   c-12.367-8.568-28.105-8.391-35.101,6.765c-8.442,18.29-9.943,38.925-9.021,58.846C62.854,173.082,64.584,203.837,85,206.399" id="path335" style="fill:#FFAD00;"></path>

	<path d="M85.304,204.228c15.617-2.46,22.596-17.347,27.37-30.903c4.925-13.986,4.42-29.563,3.951-44.153   c-0.438-13.617-1.082-31.154-13.333-39.682c-4.626-3.22-14.946-6.198-20.332-3.162c-6.905,3.893-10.148,9.486-13.434,16.512   c-7.521,16.083-7.568,37.507-6.418,54.845C64.129,173.085,65.705,201.786,85.304,204.228" id="path337" style="fill:#FFAF00;"></path>

	<path d="M85.608,202.056c15.184-2.317,22.941-17.783,26.976-31.277c4.398-14.708,3.917-30.181,3.419-45.345   c-0.414-12.624-2.064-30.599-14.757-37.147c-6.248-3.224-15.789-4.179-21.634,0.26c-5.551,4.216-8.536,11.444-10.665,17.833   c-5.559,16.683-6.09,35.178-4.821,52.584C65.193,173.583,67.256,199.702,85.608,202.056" id="path339" style="fill:#FFB200;"></path>

	<path d="M85.912,199.926c14.333-2.388,23.143-17.596,26.293-30.898c3.561-15.032,3.725-29.534,3.211-44.91   c-0.396-11.816-2.174-31.403-15.488-36.106c-6.708-2.37-15.161-4.053-20.792,1.578c-5.543,5.543-8.062,12.325-10.502,19.647   c-5.171,15.518-4.679,33.617-3.569,49.706C66.058,173.361,68.5,197.056,85.912,199.926" id="path341" style="fill:#FFB400;"></path>

	<path d="M86.172,197.755c14.086-2.254,22.496-17.36,25.566-30.338c3.447-14.568,4.326-29.491,3.127-44.44   c-1.122-13.992-2.938-32.77-19.569-36.428c-17.311-3.808-23.77,13.135-26.991,26.988c-3.537,15.216-3.711,31.577-2.201,47.077   C67.436,174.289,70.174,194.894,86.172,197.755" id="path343" style="fill:#FFB700;"></path>

	<path d="M86.477,195.584c14.627-2.42,22.127-18.255,25.246-31.459c3.358-14.225,3.622-28.995,2.431-43.539   c-1.129-13.783-3.918-32.443-20.96-34.113c-17.046-1.67-21.62,15.874-24.772,29.451c-3.164,13.623-3.234,29.74-1.458,43.566   C68.643,172.571,70.598,192.963,86.477,195.584" id="path345" style="fill:#FFB900;"></path>

	<path d="M86.781,193.411c14.771-2.359,21.745-18.916,24.766-32.025c3.298-14.316,3.09-29.28,1.875-43.862   c-0.628-7.538-2.135-14.394-5.309-21.263c-3.436-7.432-11.618-9.292-18.889-10.023c-14.68-1.477-19.22,24.02-20.721,34.018   c-2.012,13.409-1.939,27.298-0.326,40.748C69.641,173.194,72.394,190.984,86.781,193.411" id="path347" style="fill:#FFBC00;"></path>

	<path d="M87.085,191.238c14.963-2.466,21.279-19.425,24.297-32.556c3.333-14.501,2.438-29.875,1.266-44.592   c-1.149-14.444-8.993-30.364-26.042-27.266c-13.159,2.392-16.839,25.733-17.791,36.321c-1.201,13.356-1.02,26.467,0.605,39.783   C70.73,173.667,74.458,189.692,87.085,191.238" id="path349" style="fill:#FFBE00;"></path>

	<path d="M87.345,189.066c15.063-2.536,20.884-19.898,23.812-33.011c3.022-13.535,2.619-28.946,0.95-42.661   c-1.793-14.74-8.775-29.324-26.115-26.262c-12.234,2.16-15.598,26.647-16.415,36.095c-1.098,12.699-0.952,25.25,0.641,37.903   C71.559,171.78,75.017,187.369,87.345,189.066" id="path351" style="fill:#FFC000;"></path>

	<path d="M87.649,186.896c15.351-2.5,20.421-20.787,23.387-33.834c3.069-13.501,2.074-29.75,0.007-43.338   c-2.014-13.235-12.68-29.631-28.006-20.637c-5.622,3.299-8.436,12.657-9.982,18.487c-1.878,7.083-2.814,14.501-3.216,21.807   C69.025,144.198,67.28,184.209,87.649,186.896" id="path353" style="fill:#FFC300;"></path>

	<path d="M87.954,184.766c14.619-2.637,20.326-20.52,22.633-33.36c2.614-14.55,1.765-30.341-0.51-44.869   c-2.185-13.949-17.353-27.306-29.475-14.436c-9.12,9.684-9.73,28.733-10.064,41.165C70.152,147.653,69.186,181.401,87.954,184.766" id="path355" style="fill:#FFC500;"></path>

	<path d="M88.258,182.594c13.821-2.419,20.29-20.432,21.884-32.834c1.821-14.17,2.396-29.804-0.599-43.88   c-1.364-6.41-4.256-14.44-10.923-16.99c-7.398-2.829-14.216-2.241-18.647,4.958c-7.384,11.997-8.96,28.17-8.651,42.013   C71.6,148.313,70.708,180.838,88.258,182.594" id="path357" style="fill:#FFC800;"></path>

	<path d="M88.519,180.421c14.408-2.583,19.716-21.488,21.371-34.048c1.91-14.496,1.796-30.513-1.896-44.712   c-1.754-6.742-6.651-13.241-13.995-14.042c-8.387-0.916-12.83,3.577-15.993,11.072c-5.71,13.531-6.025,28.786-5.697,43.244   C72.558,152.905,73.848,179.157,88.519,180.421" id="path359" style="fill:#FFCA00;"></path>

	<path d="M88.822,178.249c14.368-1.286,19.305-23.02,20.722-34.49c1.735-14.049,1.393-29.538-2.286-43.23   c-1.886-7.021-7.182-12.049-14.394-12.872c-8.071-0.921-11.821,5.429-14.687,12.033c-5.407,12.458-5.581,27.947-4.992,41.289   C73.652,151.594,74.515,176.896,88.822,178.249" id="path361" style="fill:#FFCD00;"></path>

	<path d="M89.127,176.078c14.896-1.446,18.732-24.426,20.194-35.981c1.622-12.819,1.673-30.286-3.536-42.275   c-2.544-5.857-8.638-11.507-15.65-10.186c-7.43,1.4-10.588,9.095-12.563,15.681c-4.136,13.79-4.408,28.977-3.084,43.224   C75.334,155.657,77.076,175.079,89.127,176.078" id="path363" style="fill:#FFCF00;"></path>

	<path d="M89.431,173.906c14.322-1.256,18.019-24.013,19.375-35.01c1.667-13.517,1.182-30.201-4.16-42.831   c-2.456-5.808-10.538-10.186-16.692-7.78c-6.238,2.438-8.95,11.515-10.426,17.333c-3.527,13.905-3.473,29.082-1.768,43.244   C76.731,156.926,78.896,173.282,89.431,173.906" id="path365" style="fill:#FFD200;"></path>

	<path d="M89.735,171.734c14.102-1.341,17.312-24.06,18.604-34.819c0.817-6.812,0.4-14.04-0.012-20.871   c-0.391-6.469-0.647-15.257-4.492-20.799c-4.053-5.843-10.941-9.758-17.659-5.472c-5.526,3.525-7.404,13-8.594,18.897   c-2.746,13.613-3.008,28.776-0.49,42.448C78.324,157.806,80.707,171.706,89.735,171.734" id="path367" style="fill:#FFD400;"></path>

	<path d="M89.997,169.563c13.885-0.433,17.542-26.142,17.935-36.217c0.295-7.559,0.102-15.107-0.508-22.646   c-0.462-5.717-1.592-14.72-6.308-18.697c-16.239-13.695-22.227,11.446-23.858,23.131c-1.946,13.939-1.075,28.987,2.482,42.573   C81.017,162.582,84.345,169.445,89.997,169.563" id="path369" style="fill:#FFD700;"></path>

	<path d="M90.3,167.433c13.516-0.819,16.783-25.773,17.113-35.708c0.388-11.654,2.254-31.875-7.47-40.463   c-14.982-13.23-20.994,14.804-22.025,24.392c-1.494,13.896-1.331,29.793,3.579,43.034C82.939,162.574,85.651,167.237,90.3,167.433" id="path371" style="fill:#FFDA00;"></path>

	<path d="M90.604,165.262c13.023-0.672,15.874-25.263,16.263-34.668c0.458-11.101,2.534-35.422-9.942-41.047   c-23.298-10.506-21.126,61.355-11.729,72.719C86.599,163.962,88.336,165.115,90.604,165.262" id="path373" style="fill:#FFDC00;"></path>

	<path d="M90.908,163.09c13.641-1.075,15.41-27.527,15.552-37.315c0.15-10.36,1.523-35.218-12.814-37.011   c-14.023-1.753-14.427,27.501-14.614,36.318c-0.172,8.101-0.839,35.32,10.204,37.655C89.792,162.854,90.35,162.972,90.908,163.09" id="path375" style="fill:#FFDF00;"></path>

	<path d="M91.168,160.917c13.02-0.727,14.622-27.04,14.726-36.142c0.112-9.865,1.576-34.034-12.12-35.838   c-13.386-1.763-13.693,26.805-13.875,35.136c-0.175,7.993-0.751,36.105,11.313,36.843   C91.198,160.917,91.184,160.917,91.168,160.917" id="path377" style="fill:#FFE100;"></path>

	<path d="M91.473,158.746c12.449-0.889,13.561-26.027,13.889-34.652c0.356-9.402,1.385-33.169-11.479-34.983   c-12.641-1.782-12.981,26.222-13.158,33.962C80.548,130.79,80.079,158.105,91.473,158.746" id="path379" style="fill:#FFE400;"></path>

	<path d="M91.777,156.573c11.736-0.609,12.945-25.723,13.031-33.796c0.106-9.989,1.427-31.679-11.802-33.685   c-10.925-1.656-11.414,27.874-11.438,34.076C81.54,130.2,81.142,156.158,91.777,156.573" id="path381" style="fill:#FFE600;"></path>

	<path d="M92.082,154.401c11.066-0.756,12.141-24.922,12.205-32.623c0.061-7.223,1.012-33.944-11.511-32.581   c-10.515,1.145-10.339,25.558-10.339,32.928C82.437,129.122,81.9,153.565,92.082,154.401" id="path383" style="fill:#FFE900;"></path>

	<path d="M92.341,152.272c10.589-1.059,11.12-23.71,11.369-31.111c0.286-8.502,1.29-29.858-10.087-31.688   c-10.009-1.61-10.208,25.619-10.351,31.229C83.099,127.491,82.813,151.355,92.341,152.272" id="path385" style="fill:#FFEB00;"></path>

	<path d="M92.646,150.102c9.943-1.24,10.313-22.802,10.502-29.955c0.213-8.048,1.28-28.619-9.364-30.499   c-9.292-1.642-9.504,24.738-9.643,30.07C83.969,126.305,83.638,148.945,92.646,150.102" id="path387" style="fill:#FFEE00;"></path>

	<path d="M92.95,147.929c9.243-1.334,9.652-22.389,9.687-29.104c0.037-7.273,1.148-27.301-8.69-29.014   c-8.642-1.505-8.853,24.049-8.94,28.877C84.898,124.644,84.401,146.906,92.95,147.929" id="path389" style="fill:#FFF000;"></path>

	<path d="M93.253,145.758c8.559-1.288,8.628-21.304,8.805-27.458c0.182-6.333,1.154-26.539-7.523-28.232   c-8.505-1.66-8.558,22.62-8.696,27.458C85.675,123.256,85.191,144.552,93.253,145.758" id="path391" style="fill:#FFF300;"></path>

	<path d="M93.514,143.585c12.111-1.983,10.968-54.32,0.348-53.562   C83.378,90.772,83.315,141.698,93.514,143.585" id="path393" style="fill:#FFF500;"></path>

	<path d="M93.819,141.414c10.988-1.954,9.553-51.987,0.261-51.216   C84.58,90.986,84.435,139.971,93.819,141.414" id="path395" style="fill:#FFF800;"></path>

	<path d="M94.123,139.241c9.337-2.744,8.963-49.029,0.175-48.87C85.992,90.521,85.411,136.716,94.123,139.241   " id="path397" style="fill:#FFFA00;"></path>

	<path d="M94.426,137.069c8.307-2.618,7.459-46.76,0.088-46.524C87.003,90.785,86.607,134.694,94.426,137.069   " id="path399" style="fill:#FFFD00;"></path>

	<path d="M94.731,134.94c6.932-3.056,6.584-44.202,0-44.222C88.265,90.699,87.683,132.006,94.731,134.94" id="path401" style="fill:#FFFF00;"></path>

</g>


  
</svg>
