<?xml version="1.0" encoding="UTF-8" standalone="no"?>
<!DOCTYPE svg PUBLIC "-//W3C//DTD SVG 20010904//EN"
"http://www.w3.org/TR/2001/REC-SVG-20010904/DTD/svg10.dtd">
<!-- Created with Inkscape (http://www.inkscape.org/) --><svg height="60.0000000" id="svg1" inkscape:version="0.38.1" sodipodi:docbase="/home/danny/flat/scalable/actions" sodipodi:docname="contexthelp.svg" sodipodi:version="0.32" version="1.0" width="60.0000000" x="0" xmlns="http://www.w3.org/2000/svg" xmlns:inkscape="http://www.inkscape.org/namespaces/inkscape" xmlns:sodipodi="http://sodipodi.sourceforge.net/DTD/sodipodi-0.dtd" xmlns:xlink="http://www.w3.org/1999/xlink" y="0">
  <metadata>
    <rdf:RDF xmlns:cc="http://web.resource.org/cc/" xmlns:dc="http://purl.org/dc/elements/1.1/" xmlns:rdf="http://www.w3.org/1999/02/22-rdf-syntax-ns#">
      <cc:Work rdf:about="">
        <dc:title>Part of the Flat Icon Collection (Wed Aug 25 23:29:46 2004)</dc:title>
        <dc:description></dc:description>
        <dc:subject>
          <rdf:Bag>
            <rdf:li>hash</rdf:li>
            <rdf:li></rdf:li>
            <rdf:li>action</rdf:li>
            <rdf:li>computer</rdf:li>
            <rdf:li>icons</rdf:li>
            <rdf:li>theme</rdf:li>
          </rdf:Bag>
        </dc:subject>
        <dc:publisher>
          <cc:Agent rdf:about="http://www.openclipart.org">
            <dc:title>Danny Allen</dc:title>
          </cc:Agent>
        </dc:publisher>
        <dc:creator>
          <cc:Agent>
            <dc:title>Danny Allen</dc:title>
          </cc:Agent>
        </dc:creator>
        <dc:rights>
          <cc:Agent>
            <dc:title>Danny Allen</dc:title>
          </cc:Agent>
        </dc:rights>
        <dc:date></dc:date>
        <dc:format>image/svg+xml</dc:format>
        <dc:type rdf:resource="http://purl.org/dc/dcmitype/StillImage"/>
        <cc:license rdf:resource="http://web.resource.org/cc/PublicDomain"/>
        <dc:language>en</dc:language>
      </cc:Work>
      <cc:License rdf:about="http://web.resource.org/cc/PublicDomain">
        <cc:permits rdf:resource="http://web.resource.org/cc/Reproduction"/>
        <cc:permits rdf:resource="http://web.resource.org/cc/Distribution"/>
        <cc:permits rdf:resource="http://web.resource.org/cc/DerivativeWorks"/>
      </cc:License>
    </rdf:RDF>
  </metadata>
  <sodipodi:namedview bordercolor="#666666" borderopacity="1.0" id="base" inkscape:cx="42.359450" inkscape:cy="21.800884" inkscape:pageopacity="0.0" inkscape:pageshadow="2" inkscape:window-height="685" inkscape:window-width="1016" inkscape:window-x="0" inkscape:window-y="0" inkscape:zoom="9.8238822" pagecolor="#ffffff"/>
  <defs id="defs3"/>
  <path d="M 2.7187500 2.6875000 L 15.968750 27.593750 L 19.312500 24.343750 L 24.468750 29.562500 C 22.477823 32.493187 21.312500 36.006005 21.312500 39.812500 C 21.312500 49.921142 29.516355 58.156249 39.625000 58.156250 C 49.733642 58.156250 57.968757 49.921144 57.968750 39.812500 C 57.968750 29.703854 49.733643 21.500000 39.625000 21.500000 C 34.960363 21.500000 30.766668 23.311723 27.531250 26.187500 L 22.468750 21.000000 L 26.062500 17.281250 L 2.7187500 2.6875000 z M 39.312500 26.593750 C 40.479241 26.593750 41.582574 26.780533 42.593750 27.125000 C 43.604925 27.469467 44.503422 27.958290 45.281250 28.625000 C 46.059079 29.291709 46.660389 30.106883 47.093750 31.062500 C 47.538224 32.007004 47.750000 33.083258 47.750000 34.250000 C 47.750001 36.339023 47.211873 37.938121 46.156250 39.093750 C 45.111738 40.238268 43.677202 40.997198 41.843750 41.375000 L 41.843750 42.031250 C 41.843751 42.564617 41.733348 43.057613 41.500000 43.468750 C 41.277762 43.868777 40.942387 44.172902 40.531250 44.406250 C 40.131225 44.628487 39.698644 44.750000 39.187500 44.750000 C 38.676355 44.750001 38.192387 44.628486 37.781250 44.406250 C 37.381224 44.172902 37.077099 43.868776 36.843750 43.468750 C 36.621511 43.057613 36.531250 42.564618 36.531250 42.031250 L 36.531250 39.312500 C 36.531249 38.745797 36.610402 38.268769 36.843750 37.968750 C 37.077097 37.668731 37.385396 37.486118 37.718750 37.375000 C 38.052106 37.263881 38.552041 37.153480 39.218750 37.031250 C 40.952193 36.709007 41.812500 35.828563 41.812500 34.406250 C 41.812500 33.828434 41.560447 33.299334 41.093750 32.843750 C 40.638165 32.377051 40.056993 32.156250 39.312500 32.156250 C 38.623567 32.156250 38.056275 32.295816 37.656250 32.562500 C 37.267337 32.829182 36.920163 33.207606 36.531250 33.718750 C 36.153446 34.218782 35.761828 34.608316 35.406250 34.875000 C 35.061782 35.130571 34.600039 35.250000 34.000000 35.250000 C 33.322182 35.249998 32.738919 35.011143 32.250000 34.500000 C 31.772191 33.977745 31.531250 33.356295 31.531250 32.656250 C 31.531249 31.433950 31.918700 30.359782 32.718750 29.437500 C 33.518804 28.515219 34.518673 27.801421 35.718750 27.312500 C 36.918827 26.823580 38.123535 26.593750 39.312500 26.593750 z M 39.125000 47.718750 C 39.647254 47.718749 40.138166 47.847204 40.593750 48.125000 C 41.049334 48.402794 41.389566 48.783302 41.656250 49.250000 C 41.934045 49.705583 42.093750 50.185383 42.093750 50.718750 C 42.093750 51.263229 41.934045 51.783304 41.656250 52.250000 C 41.389566 52.705587 41.060447 53.045816 40.593750 53.312500 C 40.138166 53.579184 39.636143 53.718750 39.125000 53.718750 C 38.613854 53.718750 38.122947 53.579184 37.656250 53.312500 C 37.200667 53.045816 36.840296 52.705586 36.562500 52.250000 C 36.295814 51.783305 36.156250 51.263228 36.156250 50.718750 C 36.156251 50.185384 36.295817 49.705584 36.562500 49.250000 C 36.840293 48.783301 37.200666 48.402795 37.656250 48.125000 C 38.111837 47.847203 38.602744 47.718750 39.125000 47.718750 z " id="path833" style="font-size:12.000000;fill:#b3b3b3;fill-rule:evenodd;stroke:#333333;stroke-width:2.5000000;stroke-dasharray:none;fill-opacity:1.0000000;stroke-linejoin:round;stroke-linecap:round;"/>
</svg>
