<?xml version="1.0" encoding="UTF-8" standalone="no"?>
<!DOCTYPE svg PUBLIC "-//W3C//DTD SVG 20010904//EN"
"http://www.w3.org/TR/2001/REC-SVG-20010904/DTD/svg10.dtd">
<!-- Created with Inkscape (http://www.inkscape.org/) --><svg height="60.0000000" id="svg1" inkscape:version="0.38.1" sodipodi:docbase="/home/danny/flat/scalable/actions" sodipodi:docname="newtodo.svg" sodipodi:version="0.32" version="1.0" width="60.0000000" x="0" xmlns="http://www.w3.org/2000/svg" xmlns:inkscape="http://www.inkscape.org/namespaces/inkscape" xmlns:sodipodi="http://sodipodi.sourceforge.net/DTD/sodipodi-0.dtd" xmlns:xlink="http://www.w3.org/1999/xlink" y="0">
  <metadata>
    <rdf:RDF xmlns:cc="http://web.resource.org/cc/" xmlns:dc="http://purl.org/dc/elements/1.1/" xmlns:rdf="http://www.w3.org/1999/02/22-rdf-syntax-ns#">
      <cc:Work rdf:about="">
        <dc:title>Part of the Flat Icon Collection (Wed Aug 25 23:29:46 2004)</dc:title>
        <dc:description></dc:description>
        <dc:subject>
          <rdf:Bag>
            <rdf:li>hash</rdf:li>
            <rdf:li></rdf:li>
            <rdf:li>action</rdf:li>
            <rdf:li>computer</rdf:li>
            <rdf:li>icons</rdf:li>
            <rdf:li>theme</rdf:li>
          </rdf:Bag>
        </dc:subject>
        <dc:publisher>
          <cc:Agent rdf:about="http://www.openclipart.org">
            <dc:title>Danny Allen</dc:title>
          </cc:Agent>
        </dc:publisher>
        <dc:creator>
          <cc:Agent>
            <dc:title>Danny Allen</dc:title>
          </cc:Agent>
        </dc:creator>
        <dc:rights>
          <cc:Agent>
            <dc:title>Danny Allen</dc:title>
          </cc:Agent>
        </dc:rights>
        <dc:date></dc:date>
        <dc:format>image/svg+xml</dc:format>
        <dc:type rdf:resource="http://purl.org/dc/dcmitype/StillImage"/>
        <cc:license rdf:resource="http://web.resource.org/cc/PublicDomain"/>
        <dc:language>en</dc:language>
      </cc:Work>
      <cc:License rdf:about="http://web.resource.org/cc/PublicDomain">
        <cc:permits rdf:resource="http://web.resource.org/cc/Reproduction"/>
        <cc:permits rdf:resource="http://web.resource.org/cc/Distribution"/>
        <cc:permits rdf:resource="http://web.resource.org/cc/DerivativeWorks"/>
      </cc:License>
    </rdf:RDF>
  </metadata>
  <sodipodi:namedview bordercolor="#666666" borderopacity="1.0" id="base" inkscape:cx="53.481105" inkscape:cy="16.194441" inkscape:pageopacity="0.0" inkscape:pageshadow="2" inkscape:window-height="685" inkscape:window-width="1016" inkscape:window-x="0" inkscape:window-y="0" inkscape:zoom="0.61399265" pagecolor="#ffffff"/>
  <defs id="defs3">
    <linearGradient id="linearGradient1160">
      <stop id="stop1161" offset="0" style="stop-color:#000;stop-opacity:1;"/>
      <stop id="stop1162" offset="1" style="stop-color:#fff;stop-opacity:1;"/>
    </linearGradient>
    <linearGradient id="linearGradient1163" xlink:href="#linearGradient1160"/>
  </defs>
  <rect height="34.7295494" id="rect788" rx="2" style="font-size:12;fill:#b3b3b3;fill-opacity:1.0000000;fill-rule:evenodd;stroke:none;stroke-width:2.90531;stroke-dasharray:none;stroke-opacity:1;" transform="matrix(1.090460,0.000000,0.000000,1.261608,-0.401956,-4.492066)" width="41.5674934" x="7.37778044" y="12.8541842"/>
  <path d="M 9.5371306,25.011943 L 50.204895,25.011943" id="path839" sodipodi:stroke-cmyk="(0.0000000 0.0000000 0.0000000 0.50000000)" style="fill:none;fill-rule:evenodd;stroke:#7f7f7f;stroke-opacity:1.0000000;stroke-width:1pt;stroke-linejoin:miter;stroke-linecap:butt;fill-opacity:0.75;" transform="matrix(1.090460,0.000000,0.000000,1.090460,-1.971746,-3.216017)"/>
  <path d="M 8.8173471,44.230212 L 50.744733,44.230212" id="path840" sodipodi:stroke-cmyk="(0.0000000 0.0000000 0.0000000 0.50000000)" style="fill:none;fill-rule:evenodd;stroke:#7f7f7f;stroke-opacity:1.0000000;stroke-width:1pt;stroke-linejoin:miter;stroke-linecap:butt;fill-opacity:0.75;" transform="matrix(1.090460,0.000000,0.000000,1.090460,-1.971746,-3.216017)"/>
  <path d="M 9.5371306,34.621078 L 50.204895,34.621078" id="path843" sodipodi:stroke-cmyk="(0.0000000 0.0000000 0.0000000 0.50000000)" style="fill:none;fill-rule:evenodd;stroke:#7f7f7f;stroke-opacity:1.0000000;stroke-width:1pt;stroke-linejoin:miter;stroke-linecap:butt;fill-opacity:0.75;" transform="matrix(1.090460,0.000000,0.000000,1.090460,-1.971746,-3.216017)"/>
  <path d="M 19.042390,15.553373 L 19.042390,54.061787" id="path845" sodipodi:stroke-cmyk="(0.0000000 0.0000000 0.0000000 0.50000000)" style="fill:none;fill-rule:evenodd;stroke:#7f7f7f;stroke-opacity:1.0000000;stroke-width:1pt;stroke-linejoin:miter;stroke-linecap:butt;fill-opacity:0.75;" transform="matrix(1.090460,0.000000,0.000000,1.090460,-1.971746,-3.216017)"/>
  <path d="M 29.447379,15.553373 L 29.447379,54.061787" id="path846" sodipodi:stroke-cmyk="(0.0000000 0.0000000 0.0000000 0.50000000)" style="fill:none;fill-rule:evenodd;stroke:#7f7f7f;stroke-opacity:1.0000000;stroke-width:1pt;stroke-linejoin:miter;stroke-linecap:butt;fill-opacity:0.75;" transform="matrix(1.090460,0.000000,0.000000,1.090460,-1.971746,-3.216017)"/>
  <path d="M 39.852366,15.553373 L 39.852366,54.061787" id="path848" sodipodi:stroke-cmyk="(0.0000000 0.0000000 0.0000000 0.50000000)" style="fill:none;fill-rule:evenodd;stroke:#7f7f7f;stroke-opacity:1.0000000;stroke-width:1pt;stroke-linejoin:miter;stroke-linecap:butt;fill-opacity:0.75;" transform="matrix(1.090460,0.000000,0.000000,1.090460,-1.971746,-3.216017)"/>
  <rect height="43.815102" id="rect850" rx="2.1809199" sodipodi:stroke-cmyk="(0.0000000 0.0000000 0.0000000 0.50000000)" style="font-size:12.000000;fill:none;fill-rule:evenodd;stroke:#7f7f7f;stroke-width:1.8749999;" width="45.327690" x="7.6432153" y="11.724884"/>
  <rect height="11.5165348" id="rect804" rx="2" sodipodi:stroke-cmyk="(0 0 0 0.8)" style="font-size:12;fill:#4c4c4c;fill-opacity:1;fill-rule:evenodd;stroke:#333333;stroke-width:2.8278234;stroke-dasharray:none;stroke-linejoin:round;stroke-linecap:round;stroke-opacity:1;" transform="matrix(1.019374,0.000000,0.000000,0.766729,1.410097,0.381128)" width="51.4645157" x="2.51924205" y="5.65634966"/>
  <path d="M 16.264791,37.699821 C 22.874463,43.486256 24.480851,44.613335 28.896091,51.212976 C 37.998157,27.050615 46.420431,21.630999 48.645979,19.154286 C 39.962109,23.177226 28.883024,35.887286 28.037371,42.360051 C 26.133831,40.171182 16.264791,35.197099 16.264791,37.699821 z " id="path936" sodipodi:nodetypes="ccccc" sodipodi:stroke-cmyk="(0 0 0 0.8)" style="font-size:12.000000;fill:#333333;fill-rule:evenodd;stroke:#333333;stroke-width:1.8750001;stroke-linecap:round;stroke-linejoin:round;"/>
  <path d="M 18.697509,16.826525 C 19.138757,16.826525 19.543235,16.900067 19.910945,17.047147 C 20.293359,17.194232 20.594879,17.429565 20.815504,17.753146 C 21.036129,18.062023 21.146442,18.459144 21.146442,18.944520 C 21.146442,19.312227 21.087609,19.812308 20.969943,20.444765 C 20.852276,21.062515 20.771379,21.533181 20.727253,21.856762 C 21.197918,21.533181 21.617108,21.231658 21.984814,20.952203 C 22.367228,20.658037 22.734938,20.430058 23.087938,20.268266 C 23.440937,20.091766 23.786578,20.003518 24.124871,20.003518 C 24.816161,20.003518 25.397139,20.268266 25.867805,20.797764 C 26.338471,21.327263 26.573803,21.945013 26.573803,22.651011 C 26.573803,23.151092 26.382597,23.570277 26.000179,23.908570 C 25.617765,24.246861 25.000015,24.592507 24.146935,24.945506 C 23.293852,25.283794 22.837894,25.467648 22.779060,25.497066 C 22.837894,25.526480 23.293852,25.717691 24.146935,26.070691 C 25.014723,26.423690 25.632473,26.761978 26.000179,27.085562 C 26.382597,27.394435 26.573803,27.798915 26.573803,28.298999 C 26.573803,29.019703 26.338471,29.652162 25.867805,30.196368 C 25.397139,30.740574 24.816161,31.012678 24.124871,31.012678 C 23.654204,31.012678 23.117352,30.806760 22.514314,30.394928 C 21.911274,29.983096 21.315585,29.571263 20.727253,29.159431 C 20.800797,29.630097 20.889045,30.130181 20.992004,30.659680 C 21.094963,31.189178 21.146442,31.637779 21.146442,32.005489 C 21.146442,32.740902 20.911110,33.292462 20.440443,33.660173 C 19.984486,34.013171 19.403507,34.189671 18.697509,34.189671 C 18.006218,34.189671 17.425240,34.013171 16.954574,33.660173 C 16.498620,33.292462 16.270641,32.740902 16.270641,32.005489 C 16.270641,31.770156 16.329474,31.328906 16.447140,30.681740 C 16.564807,30.034575 16.638348,29.527137 16.667762,29.159431 C 15.888224,29.703637 15.373432,30.071347 15.123391,30.262554 C 14.873352,30.439054 14.571832,30.608200 14.218833,30.769992 C 13.880541,30.931780 13.556961,31.012678 13.248083,31.012678 C 12.542085,31.012678 11.968465,30.747927 11.527214,30.218429 C 11.100674,29.688929 10.887402,29.049119 10.887402,28.298999 C 10.887402,27.769499 11.071255,27.350310 11.438966,27.041437 C 11.806672,26.732563 12.402358,26.416336 13.226022,26.092752 C 14.049687,25.754460 14.520353,25.555900 14.638019,25.497066 C 14.520353,25.438232 14.049687,25.247026 13.226022,24.923441 C 12.417064,24.585149 11.821379,24.254216 11.438966,23.930631 C 11.071255,23.592343 10.887402,23.165799 10.887402,22.651011 C 10.887402,21.930302 11.100674,21.312556 11.527214,20.797764 C 11.968465,20.268266 12.542085,20.003518 13.248083,20.003518 C 13.689334,20.003518 14.093813,20.121184 14.461519,20.356517 C 14.843933,20.591850 15.579350,21.091930 16.667762,21.856762 C 16.638348,21.533181 16.564807,21.025743 16.447140,20.334452 C 16.329474,19.643162 16.270641,19.179854 16.270641,18.944520 C 16.270641,18.209103 16.498620,17.672252 16.954574,17.333959 C 17.425240,16.995667 18.006218,16.826525 18.697509,16.826525 z " id="path886" style="font-size:12.000000;font-weight:900;stroke-width:1.0000000pt;font-family:VAG Rounded Black SSi;fill:#333333;fill-opacity:1.0000000;"/>
</svg>
