<?xml version="1.0" encoding="UTF-8" standalone="no"?>
<!DOCTYPE svg PUBLIC "-//W3C//DTD SVG 20010904//EN"
"http://www.w3.org/TR/2001/REC-SVG-20010904/DTD/svg10.dtd">
<!-- Created with Inkscape (http://www.inkscape.org/) --><svg height="60.0000000" id="svg1" inkscape:version="0.38.1" sodipodi:docbase="/home/danny/flat/scalable/actions" sodipodi:docname="krec_record.svg" sodipodi:version="0.32" version="1.0" width="60.0000000" x="0" xmlns="http://www.w3.org/2000/svg" xmlns:inkscape="http://www.inkscape.org/namespaces/inkscape" xmlns:sodipodi="http://sodipodi.sourceforge.net/DTD/sodipodi-0.dtd" xmlns:xlink="http://www.w3.org/1999/xlink" xmlns:xml="http://www.w3.org/XML/1998/namespace" y="0">
  <metadata>
    <rdf:RDF xmlns:cc="http://web.resource.org/cc/" xmlns:dc="http://purl.org/dc/elements/1.1/" xmlns:rdf="http://www.w3.org/1999/02/22-rdf-syntax-ns#">
      <cc:Work rdf:about="">
        <dc:title>Part of the Flat Icon Collection (Wed Aug 25 23:29:46 2004)</dc:title>
        <dc:description></dc:description>
        <dc:subject>
          <rdf:Bag>
            <rdf:li>hash</rdf:li>
            <rdf:li></rdf:li>
            <rdf:li>action</rdf:li>
            <rdf:li>computer</rdf:li>
            <rdf:li>icons</rdf:li>
            <rdf:li>theme</rdf:li>
          </rdf:Bag>
        </dc:subject>
        <dc:publisher>
          <cc:Agent rdf:about="http://www.openclipart.org">
            <dc:title>Danny Allen</dc:title>
          </cc:Agent>
        </dc:publisher>
        <dc:creator>
          <cc:Agent>
            <dc:title>Danny Allen</dc:title>
          </cc:Agent>
        </dc:creator>
        <dc:rights>
          <cc:Agent>
            <dc:title>Danny Allen</dc:title>
          </cc:Agent>
        </dc:rights>
        <dc:date></dc:date>
        <dc:format>image/svg+xml</dc:format>
        <dc:type rdf:resource="http://purl.org/dc/dcmitype/StillImage"/>
        <cc:license rdf:resource="http://web.resource.org/cc/PublicDomain"/>
        <dc:language>en</dc:language>
      </cc:Work>
      <cc:License rdf:about="http://web.resource.org/cc/PublicDomain">
        <cc:permits rdf:resource="http://web.resource.org/cc/Reproduction"/>
        <cc:permits rdf:resource="http://web.resource.org/cc/Distribution"/>
        <cc:permits rdf:resource="http://web.resource.org/cc/DerivativeWorks"/>
      </cc:License>
    </rdf:RDF>
  </metadata>
  <sodipodi:namedview bordercolor="#666666" borderopacity="1.0" id="base" inkscape:cx="46.730748" inkscape:cy="25.599765" inkscape:pageopacity="0.0" inkscape:pageshadow="2" inkscape:window-height="693" inkscape:window-width="1016" inkscape:window-x="0" inkscape:window-y="0" inkscape:zoom="9.8238822" pagecolor="#ffffff"/>
  <defs id="defs3"/>
  <path d="M 57.640144 31.879753 A 24.048538 24.048538 0 1 0 9.5430679,31.879753 A 24.048538 24.048538 0 1 0 57.640144 31.879753 z" id="path826" sodipodi:cx="33.591606" sodipodi:cy="31.879753" sodipodi:rx="24.048538" sodipodi:ry="24.048538" sodipodi:stroke-cmyk="(0.0000000 0.0000000 0.0000000 0.80000001)" sodipodi:type="arc" style="fill:#b3b3b3;fill-opacity:1.0000000;fill-rule:evenodd;stroke:#333333;stroke-width:2.9428827;stroke-dasharray:none;stroke-opacity:1.0000000;" transform="matrix(1.061884,0.000000,0.000000,1.061884,-5.514281,-3.881453)"/>
  <path d="M 34.746893,29.923645 C 34.746893,29.302551 34.879705,28.730286 35.145330,28.206848 C 35.410955,27.679504 35.782049,27.265442 36.258612,26.964661 C 36.739080,26.663879 37.285955,26.513489 37.899237,26.513489 C 38.223455,26.513489 38.557440,26.552551 38.901190,26.630676 C 39.244940,26.704895 39.534002,26.833801 39.768377,27.017395 C 40.002752,27.200989 40.119940,27.449036 40.119940,27.761536 C 40.119940,28.011536 40.045721,28.220520 39.897284,28.388489 C 39.752752,28.556458 39.571112,28.640442 39.352362,28.640442 C 39.246893,28.640442 39.143377,28.622864 39.041815,28.587708 C 38.944159,28.552551 38.844549,28.515442 38.742987,28.476379 C 38.645330,28.433411 38.539862,28.398254 38.426580,28.370911 C 38.317205,28.343567 38.178534,28.329895 38.010565,28.329895 C 37.705877,28.329895 37.448065,28.402161 37.237127,28.546692 C 37.030096,28.687317 36.873846,28.878723 36.768377,29.120911 C 36.666815,29.359192 36.616034,29.626770 36.616034,29.923645 C 36.616034,30.212708 36.666815,30.482239 36.768377,30.732239 C 36.869940,30.978333 37.016424,31.173645 37.207830,31.318176 C 37.403143,31.462708 37.633612,31.534973 37.899237,31.534973 C 38.200018,31.534973 38.502752,31.478333 38.807440,31.365051 C 39.112127,31.251770 39.293768,31.195129 39.352362,31.195129 C 39.492987,31.195129 39.621893,31.236145 39.739080,31.318176 C 39.856268,31.400208 39.948065,31.507629 40.014471,31.640442 C 40.084784,31.769348 40.119940,31.902161 40.119940,32.038879 C 40.119940,32.327942 39.992987,32.572083 39.739080,32.771301 C 39.489080,32.970520 39.190252,33.115051 38.842596,33.204895 C 38.494940,33.298645 38.180487,33.345520 37.899237,33.345520 C 37.434393,33.345520 37.008612,33.259583 36.621893,33.087708 C 36.239080,32.915833 35.905096,32.671692 35.619940,32.355286 C 35.334784,32.034973 35.117987,31.667786 34.969549,31.253723 C 34.821112,30.835754 34.746893,30.392395 34.746893,29.923645 z M 33.469549,30.550598 L 30.088690,30.550598 C 30.088690,30.804504 30.205877,31.044739 30.440252,31.271301 C 30.674627,31.493958 31.057440,31.605286 31.588690,31.605286 C 31.862127,31.605286 32.088690,31.570129 32.268377,31.499817 C 32.448065,31.429504 32.668768,31.329895 32.930487,31.200989 C 33.196112,31.068176 33.387518,31.001770 33.504705,31.001770 C 33.723455,31.001770 33.909002,31.077942 34.061346,31.230286 C 34.213690,31.382629 34.289862,31.579895 34.289862,31.822083 C 34.289862,32.111145 34.145330,32.374817 33.856268,32.613098 C 33.571112,32.847473 33.201971,33.027161 32.748846,33.152161 C 32.295721,33.281067 31.828924,33.345520 31.348455,33.345520 C 30.852362,33.345520 30.403143,33.259583 30.000799,33.087708 C 29.602362,32.915833 29.256659,32.673645 28.963690,32.361145 C 28.674627,32.044739 28.453924,31.677551 28.301580,31.259583 C 28.149237,30.837708 28.073065,30.392395 28.073065,29.923645 C 28.073065,29.482239 28.153143,29.052551 28.313299,28.634583 C 28.473455,28.216614 28.700018,27.849426 28.992987,27.533020 C 29.285955,27.216614 29.635565,26.968567 30.041815,26.788879 C 30.448065,26.605286 30.883612,26.513489 31.348455,26.513489 C 31.946112,26.513489 32.475409,26.663879 32.936346,26.964661 C 33.397284,27.265442 33.752752,27.659973 34.002752,28.148254 C 34.256659,28.636536 34.383612,29.159973 34.383612,29.718567 C 34.383612,30.038879 34.311346,30.257629 34.166815,30.374817 C 34.022284,30.492004 33.789862,30.550598 33.469549,30.550598 z M 30.088690,29.249817 L 32.508612,29.249817 C 32.508612,29.101379 32.455877,28.937317 32.350409,28.757629 C 32.244940,28.574036 32.100409,28.421692 31.916815,28.300598 C 31.737127,28.175598 31.532049,28.113098 31.301580,28.113098 C 31.071112,28.113098 30.862127,28.175598 30.674627,28.300598 C 30.491034,28.425598 30.346502,28.577942 30.241034,28.757629 C 30.139471,28.933411 30.088690,29.097473 30.088690,29.249817 z M 24.100409,32.238098 L 24.100409,27.609192 C 24.100409,27.331848 24.186346,27.101379 24.358221,26.917786 C 24.534002,26.730286 24.758612,26.636536 25.032049,26.636536 C 25.258612,26.636536 25.453924,26.697083 25.617987,26.818176 C 25.785955,26.935364 25.903143,27.074036 25.969549,27.234192 C 26.371893,26.753723 26.803534,26.513489 27.264471,26.513489 C 27.518377,26.513489 27.741034,26.605286 27.932440,26.788879 C 28.127752,26.968567 28.225409,27.200989 28.225409,27.486145 C 28.225409,27.779114 28.133612,27.992004 27.950018,28.124817 C 27.770330,28.257629 27.471502,28.384583 27.053534,28.505676 C 26.627752,28.626770 26.340643,28.779114 26.192205,28.962708 C 26.043768,29.142395 25.969549,29.466614 25.969549,29.935364 L 25.969549,32.238098 C 25.969549,32.515442 25.881659,32.749817 25.705877,32.941223 C 25.534002,33.128723 25.309393,33.222473 25.032049,33.222473 C 24.758612,33.222473 24.534002,33.128723 24.358221,32.941223 C 24.186346,32.749817 24.100409,32.515442 24.100409,32.238098 z " id="path829" style="font-size:12.000000;font-weight:900;fill:#333333;stroke-width:1.0000000pt;font-family:VAG Rounded Black SSi;" transform="matrix(2.310572,0.000000,0.000000,2.310572,-44.05495,-38.69231)"/>
</svg>
