<?xml version="1.0" encoding="UTF-8" standalone="no"?>
<!DOCTYPE svg PUBLIC "-//W3C//DTD SVG 20010904//EN"
"http://www.w3.org/TR/2001/REC-SVG-20010904/DTD/svg10.dtd">
<!-- Created with Inkscape (http://www.inkscape.org/) --><svg height="300.00000pt" id="svg3981" inkscape:export-filename="/home/Krug/Desktop/openClipImg/svg/png/paket3.png" inkscape:export-xdpi="72.000000" inkscape:export-ydpi="72.000000" inkscape:version="0.39" sodipodi:docbase="/home/Krug/Desktop/openClipImg/svg/png/upload" sodipodi:docname="paket3.svg" sodipodi:version="0.32" width="300.00000pt" xmlns="http://www.w3.org/2000/svg" xmlns:cc="http://web.resource.org/cc/" xmlns:dc="http://purl.org/dc/elements/1.1/" xmlns:inkscape="http://www.inkscape.org/namespaces/inkscape" xmlns:rdf="http://www.w3.org/1999/02/22-rdf-syntax-ns#" xmlns:sodipodi="http://sodipodi.sourceforge.net/DTD/sodipodi-0.dtd" xmlns:xlink="http://www.w3.org/1999/xlink">
  <metadata>
    <rdf:RDF xmlns:cc="http://web.resource.org/cc/" xmlns:dc="http://purl.org/dc/elements/1.1/" xmlns:rdf="http://www.w3.org/1999/02/22-rdf-syntax-ns#">
      <cc:Work rdf:about="">
        <dc:title>Box</dc:title>
        <dc:description></dc:description>
        <dc:subject>
          <rdf:Bag>
            <rdf:li>container</rdf:li>
          </rdf:Bag>
        </dc:subject>
        <dc:publisher>
          <cc:Agent rdf:about="http://www.openclipart.org/">
            <dc:title>Open Clip Art Library</dc:title>
          </cc:Agent>
        </dc:publisher>
        <dc:creator>
          <cc:Agent>
            <dc:title>Juliane Krug</dc:title>
          </cc:Agent>
        </dc:creator>
        <dc:rights>
          <cc:Agent>
            <dc:title>Juliane Krug</dc:title>
          </cc:Agent>
        </dc:rights>
        <dc:date></dc:date>
        <dc:format>image/svg+xml</dc:format>
        <dc:type rdf:resource="http://purl.org/dc/dcmitype/StillImage"/>
        <cc:license rdf:resource="http://web.resource.org/cc/PublicDomain"/>
        <dc:language>en</dc:language>
      </cc:Work>
      <cc:License rdf:about="http://web.resource.org/cc/PublicDomain">
        <cc:permits rdf:resource="http://web.resource.org/cc/Reproduction"/>
        <cc:permits rdf:resource="http://web.resource.org/cc/Distribution"/>
        <cc:permits rdf:resource="http://web.resource.org/cc/DerivativeWorks"/>
      </cc:License>
    </rdf:RDF>
  </metadata>
  <defs id="defs3983">
    <linearGradient id="linearGradient6051">
      <stop id="stop6052" offset="0.0000000" style="stop-color:#000000;stop-opacity:0.37301588;"/>
      <stop id="stop6053" offset="1.0000000" style="stop-color:#000000;stop-opacity:0.0000000;"/>
    </linearGradient>
    <linearGradient id="linearGradient6048">
      <stop id="stop6049" offset="0.0000000" style="stop-color:#7c6146;stop-opacity:1.0000000;"/>
      <stop id="stop6050" offset="1.0000000" style="stop-color:#d6c7b4;stop-opacity:1.0000000;"/>
    </linearGradient>
    <linearGradient id="linearGradient6045">
      <stop id="stop6046" offset="0.0000000" style="stop-color:#7c6146;stop-opacity:1.0000000;"/>
      <stop id="stop6047" offset="1.0000000" style="stop-color:#d6c7b4;stop-opacity:1.0000000;"/>
    </linearGradient>
    <linearGradient id="linearGradient6042">
      <stop id="stop6043" offset="0.0000000" style="stop-color:#7c6146;stop-opacity:1.0000000;"/>
      <stop id="stop6044" offset="1.0000000" style="stop-color:#d6c7b4;stop-opacity:1.0000000;"/>
    </linearGradient>
    <linearGradient id="linearGradient5969">
      <stop id="stop5970" offset="0.0000000" style="stop-color:#7c6146;stop-opacity:1.0000000;"/>
      <stop id="stop5971" offset="1.0000000" style="stop-color:#d6c7b4;stop-opacity:1.0000000;"/>
    </linearGradient>
  </defs>
  <sodipodi:namedview bordercolor="#666666" borderopacity="1.0" id="base" inkscape:cx="291.21921" inkscape:cy="170.82063" inkscape:pageopacity="0.0" inkscape:pageshadow="2" inkscape:window-height="937" inkscape:window-width="1272" inkscape:window-x="0" inkscape:window-y="0" inkscape:zoom="1.7819091" pagecolor="#ffffff"/>
  <path d="M 82.074894,226.98459 L 39.283710,103.52150 L 55.418091,98.611040 L 37.880720,34.073516 L 105.22422,41.789959 L 101.71675,27.058568 L 168.35876,35.476506 L 180.98566,60.028825 L 192.91108,56.521350 L 194.31407,81.775164 L 200.62752,80.372174 L 185.19463,27.058568 L 213.95592,40.386970 L 213.25443,53.013876 L 217.46340,57.924340 L 219.56788,40.386970 L 245.52319,29.864547 L 249.03066,41.088464 L 256.74711,32.670526 L 267.26953,60.730319 L 279.19494,51.610887 L 316.37417,175.07398 L 280.59793,223.47712 L 82.074894,226.98459 z " id="path18897" style="fill:#c2af94;fill-opacity:1.0000000;fill-rule:evenodd;stroke:none;stroke-width:1.0000000pt;stroke-linecap:butt;stroke-linejoin:miter;stroke-opacity:1.0000000;"/>
  <path d="M 116.56746,64.484128 L 104.66270,41.666668 L 38.194444,34.722223 L 94.742062,230.15874 L 120.53572,231.15080 L 60.019832,72.420636 L 91.765862,75.396826 L 116.56746,64.484128 z " id="path5973" style="fill:#000000;fill-opacity:0.087499984;fill-rule:evenodd;stroke:none;stroke-width:2.5000000;stroke-linecap:round;stroke-linejoin:round;stroke-miterlimit:4.0000000;stroke-opacity:1.0000000;stroke-dasharray:none;"/>
  <path d="M 72.370781,228.00439 L 81.299352,219.07582 L 83.283480,228.99646 L 72.370781,228.00439 z " id="path5968" sodipodi:nodetypes="cccc" style="fill:#000000;fill-opacity:0.10625000;fill-rule:evenodd;stroke:none;stroke-width:2.5000000;stroke-linecap:round;stroke-linejoin:round;stroke-miterlimit:4.0000000;stroke-opacity:1.0000000;"/>
  <path d="M 274.80159,223.21429 L 228.17460,100.19841 L 278.76984,50.595238 L 316.46825,176.58730 L 283.73016,224.20635 L 274.80159,223.21429 z " id="path4714" style="fill:#c2af94;fill-opacity:1.0000000;fill-rule:evenodd;stroke:none;stroke-width:2.5000000;stroke-linecap:round;stroke-linejoin:round;stroke-opacity:1.0000000;stroke-miterlimit:4.0000000;stroke-dasharray:none;"/>
  <path d="M 183.53175,26.785714 L 241.07143,224.20635 L 271.82540,222.22222 L 226.19048,102.18254 L 267.85714,59.523810 L 256.94444,31.746032 L 249.00794,41.666667 L 245.03968,30.753968 L 219.24603,41.666667 L 217.26190,57.539683 L 213.29365,51.587302 L 214.28571,40.674603 L 183.53175,26.785714 z " id="path4715" style="fill:#000000;fill-opacity:0.093750000;fill-rule:evenodd;stroke:none;stroke-width:2.5000000;stroke-linecap:round;stroke-linejoin:round;stroke-opacity:1.0000000;stroke-miterlimit:4.0000000;stroke-dasharray:none;"/>
  <path d="M 224.20635,224.20635 L 185.51587,92.261905 L 200.39683,81.349206 L 242.06349,223.21429 L 224.20635,224.20635 z " id="path5337" style="fill:#c2af94;fill-opacity:1.0000000;fill-rule:evenodd;stroke:none;stroke-width:2.5000000;stroke-linecap:round;stroke-linejoin:round;stroke-opacity:1.0000000;stroke-miterlimit:4.0000000;stroke-dasharray:none;"/>
  <path d="M 193.45238,57.539683 L 154.76190,68.452381 L 212.30159,225.19841 L 225.19841,224.20635 L 185.51587,91.269841 L 196.42857,83.333333 L 193.45238,57.539683 z " id="path5338" style="fill:#000000;fill-opacity:0.19062500;fill-rule:evenodd;stroke:none;stroke-width:2.5000000;stroke-linecap:round;stroke-linejoin:round;stroke-opacity:1.0000000;stroke-miterlimit:4.0000000;stroke-dasharray:none;"/>
  <path d="M 197.42063,225.19841 L 149.80159,98.214286 L 163.69048,91.269841 L 213.29365,225.19841 L 197.42063,225.19841 z " id="path5960" style="fill:#000000;fill-opacity:0.11250000;fill-rule:evenodd;stroke:none;stroke-width:2.5000000;stroke-linecap:round;stroke-linejoin:round;stroke-opacity:1.0000000;stroke-miterlimit:4.0000000;stroke-dasharray:none;"/>
  <path d="M 184.52381,225.19841 L 123.01587,68.452381 L 156.74603,70.436508 L 162.69841,93.253968 L 150.79365,98.214286 L 202.38095,227.18254 L 184.52381,225.19841 z " id="path5961" style="fill:#000000;fill-opacity:0.32812497;fill-rule:evenodd;stroke:none;stroke-width:2.5000000;stroke-linecap:round;stroke-linejoin:round;stroke-opacity:1.0000000;stroke-miterlimit:4.0000000;stroke-dasharray:none;"/>
  <path d="M 179.56349,58.531746 L 167.65873,35.714286 L 101.19048,28.769841 L 157.73810,224.20635 L 183.53175,225.19841 L 123.01587,66.468254 L 154.76190,69.444444 L 179.56349,58.531746 z " id="path5962" style="fill:#000000;fill-opacity:0.16875000;fill-rule:evenodd;stroke:none;stroke-width:2.5000000;stroke-linecap:round;stroke-linejoin:round;stroke-opacity:1.0000000;stroke-miterlimit:4.0000000;stroke-dasharray:none;"/>
  <path d="M 138.88889,225.19841 L 88.293651,64.484127 L 111.11111,62.500000 L 158.73016,225.19841 L 138.88889,225.19841 z " id="path5963" style="fill:#000000;fill-opacity:0.053124968;fill-rule:evenodd;stroke:none;stroke-width:2.5000000;stroke-linecap:round;stroke-linejoin:round;stroke-opacity:1.0000000;stroke-miterlimit:4.0000000;stroke-dasharray:none;"/>
  <path d="M 123.01587,226.19048 L 86.309524,105.15873 L 95.238095,90.277778 L 139.88095,225.19841 L 123.01587,226.19048 z " id="path5964" style="fill:#000000;fill-opacity:0.10625000;fill-rule:evenodd;stroke:none;stroke-width:2.5000000;stroke-linecap:round;stroke-linejoin:round;stroke-opacity:1.0000000;stroke-miterlimit:4.0000000;stroke-dasharray:none;"/>
  <path d="M 109.12698,226.19048 L 59.523810,69.444444 L 89.285714,68.452381 L 94.246032,89.285714 L 86.309524,106.15079 L 122.02381,225.19841 L 109.12698,226.19048 z " id="path5965" style="fill:#000000;fill-opacity:0.20312496;fill-rule:evenodd;stroke:none;stroke-width:2.5000000;stroke-linecap:round;stroke-linejoin:round;stroke-opacity:1.0000000;stroke-miterlimit:4.0000000;stroke-dasharray:none;"/>
  <path d="M 84.325397,232.14286 L 39.682540,103.17460 L 56.547619,98.214286 L 97.222222,232.14286 L 84.325397,232.14286 z " id="path5966" style="fill:#000000;fill-opacity:0.065624997;fill-rule:evenodd;stroke:none;stroke-width:2.5000000;stroke-linecap:round;stroke-linejoin:round;stroke-miterlimit:4.0000000;stroke-opacity:1.0000000;stroke-dasharray:none;"/>
  <path d="M 72.781707,226.77161 L 70.797580,353.75574 L 289.05155,354.74780 L 287.06742,222.80336 L 72.781707,226.77161 z " id="path4089" style="fill:#c2af94;fill-opacity:1.0000000;fill-rule:evenodd;stroke:none;stroke-width:2.5000000;stroke-linecap:round;stroke-linejoin:round;stroke-miterlimit:4.0000000;stroke-opacity:1.0000000;"/>
  <path d="M 327.04052,290.79496 L 288.35005,356.27115 L 287.35798,227.30289 L 314.48412,271.17375 L 326.62959,251.55254 L 327.04052,290.79496 z " id="path4090" sodipodi:nodetypes="cccccc" style="fill:#c2af94;fill-opacity:1.0000000;fill-rule:evenodd;stroke:none;stroke-width:2.5000000;stroke-linecap:round;stroke-linejoin:round;stroke-miterlimit:4.0000000;stroke-opacity:1.0000000;"/>
  <path d="M 72.080213,227.59346 L 40.334181,306.95855 L 72.080213,277.19664 L 74.064340,229.57759 L 72.080213,227.59346 z " id="path4092" sodipodi:nodetypes="ccccc" style="fill:#c2af94;fill-opacity:1.0000000;fill-rule:evenodd;stroke:none;stroke-width:2.5000000;stroke-linecap:round;stroke-linejoin:round;stroke-miterlimit:4.0000000;stroke-opacity:1.0000000;"/>
  <path d="M 71.789643,228.29496 L 40.043611,307.66005 L 71.789643,277.89814 L 73.773770,230.27909 L 71.789643,228.29496 z " id="path18878" sodipodi:nodetypes="ccccc" style="fill:#000000;fill-opacity:0.64062500;fill-rule:evenodd;stroke:none;stroke-width:2.5000000;stroke-linecap:round;stroke-linejoin:round;stroke-miterlimit:4.0000000;stroke-opacity:1.0000000;"/>
  <path d="M 185.19463,28.461558 L 243.41870,224.17861 L 227.28432,222.77562 L 235.70226,219.26815 L 185.19463,28.461558 z " id="path18898" style="fill:#000000;fill-opacity:0.49375001;fill-rule:evenodd;stroke:none;stroke-width:1.0000000pt;stroke-linecap:butt;stroke-linejoin:miter;stroke-opacity:1.0000000;"/>
  <path d="M 195.71706,81.073669 L 180.28417,90.894597 L 218.86638,222.77562 L 213.95592,224.17861 L 225.17984,224.17861 L 185.19463,91.596092 L 195.71706,81.073669 z " id="path18901" style="fill:#000000;fill-opacity:0.47812501;fill-rule:evenodd;stroke:none;stroke-width:1.0000000pt;stroke-linecap:butt;stroke-linejoin:miter;stroke-opacity:1.0000000;"/>
  <path d="M 160.64231,92.297586 L 146.61242,95.805061 L 195.01556,223.47712 L 188.00061,223.47712 L 200.62752,223.47712 L 151.52288,98.611040 L 160.64231,92.297586 z " id="path18903" style="fill:#000000;fill-opacity:0.22812499;fill-rule:evenodd;stroke:none;stroke-width:1.0000000pt;stroke-linecap:butt;stroke-linejoin:miter;stroke-opacity:1.0000000;"/>
  <path d="M 155.73185,68.446763 L 124.86607,68.446762 L 183.09015,224.88011 L 165.55278,223.47712 L 175.37371,219.26815 L 119.25412,64.939288 L 155.73185,68.446763 z " id="path18904" sodipodi:nodetypes="ccccccc" style="fill:#000000;fill-opacity:0.43749997;fill-rule:evenodd;stroke:none;stroke-width:1.0000000pt;stroke-linecap:butt;stroke-linejoin:miter;stroke-opacity:1.0000000;"/>
  <path d="M 107.32871,48.103413 L 158.53783,224.17861 L 143.80644,224.17861 L 148.01541,218.56665 L 107.32871,48.103413 z " id="path18905" style="fill:#000000;fill-opacity:0.60000002;fill-rule:evenodd;stroke:none;stroke-width:1.0000000pt;stroke-linecap:butt;stroke-linejoin:miter;stroke-opacity:1.0000000;"/>
  <path d="M 89.089843,65.640783 L 141.00046,225.58161 L 130.47804,226.28310 L 126.97057,201.73078 L 89.089843,65.640783 z " id="path18906" sodipodi:nodetypes="ccccc" style="fill:#000000;fill-opacity:0.44687501;fill-rule:evenodd;stroke:none;stroke-width:1.0000000pt;stroke-linecap:butt;stroke-linejoin:miter;stroke-opacity:1.0000000;"/>
  <path d="M 93.298811,88.790112 L 81.373399,105.62599 L 115.04515,224.17861 L 122.06010,224.88011 L 86.283863,105.62599 L 93.298811,88.790112 z " id="path18907" style="fill:#000000;fill-opacity:0.43750000;fill-rule:evenodd;stroke:none;stroke-width:1.0000000pt;stroke-linecap:butt;stroke-linejoin:miter;stroke-opacity:1.0000000;"/>
  <path d="M 87.686853,58.625835 L 106.62722,62.133309 L 88.388348,62.834804 L 87.686853,58.625835 z " id="path18908" style="fill:#000000;fill-opacity:0.23749997;fill-rule:evenodd;stroke:none;stroke-width:1.0000000pt;stroke-linecap:butt;stroke-linejoin:miter;stroke-opacity:1.0000000;"/>
  <path d="M 81.373399,67.745268 L 59.627060,68.446762 L 108.73170,226.98459 L 101.01525,226.98459 L 54.015101,64.939288 L 81.373399,67.745268 z " id="path18909" style="fill:#000000;fill-opacity:0.56875002;fill-rule:evenodd;stroke:none;stroke-width:1.0000000pt;stroke-linecap:butt;stroke-linejoin:miter;stroke-opacity:1.0000000;"/>
  <path d="M 96.104791,227.68609 L 39.283710,34.775011 L 89.791337,225.58160 L 84.880874,227.68609 L 96.104791,227.68609 z " id="path18910" style="fill:#000000;fill-opacity:0.46562499;fill-rule:evenodd;stroke:none;stroke-width:1.0000000pt;stroke-linecap:butt;stroke-linejoin:miter;stroke-opacity:1.0000000;"/>
  <path d="M 314.97117,177.87995 L 279.19494,222.07413 L 243.41870,222.77562 L 266.56803,217.86516 L 222.37386,101.41702 L 274.28448,53.013876 L 227.28432,101.41702 L 272.17999,219.26815 L 314.97117,177.87995 z " id="path18911" style="fill:#000000;fill-opacity:0.48437497;fill-rule:evenodd;stroke:none;stroke-width:1.0000000pt;stroke-linecap:butt;stroke-linejoin:miter;stroke-opacity:1.0000000;"/>
  <path d="M 180.28417,59.327330 L 159.23932,71.252742 L 212.55293,224.17861 L 204.13499,224.17861 L 205.53798,217.16366 L 155.03036,68.446762 L 172.56773,64.237794 L 180.28417,59.327330 z " id="path18912" style="fill:#000000;fill-opacity:0.41874999;fill-rule:evenodd;stroke:none;stroke-width:1.0000000pt;stroke-linecap:butt;stroke-linejoin:miter;stroke-opacity:1.0000000;"/>
  <path d="M 220.26937,40.386970 L 217.46340,56.521350 L 220.97087,58.625835 L 220.26937,40.386970 z " id="path18913" style="fill:#000000;fill-opacity:0.23749997;fill-rule:evenodd;stroke:none;stroke-width:1.0000000pt;stroke-linecap:butt;stroke-linejoin:miter;stroke-opacity:1.0000000;"/>
  <path d="M 257.44860,33.372021 L 250.43365,41.088464 L 250.43365,45.998928 L 257.44860,33.372021 z " id="path18914" style="fill:#000000;fill-opacity:0.23749997;fill-rule:evenodd;stroke:none;stroke-width:1.0000000pt;stroke-linecap:butt;stroke-linejoin:miter;stroke-opacity:1.0000000;"/>
  <path d="M 72.409574,228.14686 L 81.338144,219.21829 L 83.322274,229.13893 L 72.409574,228.14686 z " id="path18915" sodipodi:nodetypes="cccc" style="fill:#000000;fill-opacity:0.10625000;fill-rule:evenodd;stroke:none;stroke-width:2.5000000;stroke-linecap:round;stroke-linejoin:round;stroke-miterlimit:4.0000000;stroke-opacity:1.0000000;"/>
  <path d="M 284.80690,227.68609 L 286.91138,353.25366 L 172.56773,353.95516 L 280.59793,349.04469 L 284.80690,227.68609 z " id="path18918" style="fill:#000000;fill-opacity:0.38437501;fill-rule:evenodd;stroke:none;stroke-width:1.0000000pt;stroke-linecap:butt;stroke-linejoin:miter;stroke-opacity:1.0000000;"/>
  <path d="M 281.74604,222.10187 L 313.49207,272.69711 L 355.15874,210.19711 L 321.42858,169.52250 L 281.74604,222.10187 z " id="path4091" style="fill:#c2af94;fill-opacity:1.0000000;fill-rule:evenodd;stroke:none;stroke-width:2.5000000;stroke-linecap:round;stroke-linejoin:round;stroke-miterlimit:4.0000000;stroke-opacity:1.0000000;"/>
  <path d="M 280.59793,224.85852 L 310.90944,274.68623 L 350.74741,217.86516 L 313.50756,264.19618 L 280.59793,224.85852 z " id="path18928" style="fill:#00000f;fill-opacity:0.23125000;fill-rule:evenodd;stroke:none;stroke-width:1.0000000pt;stroke-linecap:butt;stroke-linejoin:miter;stroke-opacity:1.0000000;"/>
  <path d="M 68.746493,228.38760 L 175.06415,231.89507 L 284.10539,226.98461 L 280.57609,219.96966 L 68.746493,228.38760 z " id="path18922" sodipodi:nodetypes="ccccc" style="fill:#000000;fill-opacity:0.65937501;fill-rule:evenodd;stroke:none;stroke-width:1.0000000pt;stroke-linecap:butt;stroke-linejoin:miter;stroke-opacity:1.0000000;"/>
  <path d="M 326.89659,289.41763 L 286.91138,354.65665 L 285.50839,280.29820 L 291.12035,343.43273 L 326.89659,289.41763 z " id="path18929" style="fill:#00000f;fill-opacity:0.37812501;fill-rule:evenodd;stroke:none;stroke-width:1.0000000pt;stroke-linecap:butt;stroke-linejoin:miter;stroke-opacity:1.0000000;"/>
  <path d="M 286.91138,235.40253 L 296.03082,266.26830 L 298.83679,274.68624 L 305.85174,264.86531 L 286.91138,235.40253 z " id="path18930" style="fill:#000000;fill-opacity:0.65312499;fill-rule:evenodd;stroke:none;stroke-width:1.0000000pt;stroke-linecap:butt;stroke-linejoin:miter;stroke-opacity:1.0000000;"/>
  <path d="M 42.791184,104.92450 L 84.880873,225.58161 L 81.373399,226.28310 L 42.791184,104.92450 z " id="path18931" style="fill:#000000;fill-opacity:0.58437502;fill-rule:evenodd;stroke:none;stroke-width:1.0000000pt;stroke-linecap:butt;stroke-linejoin:miter;stroke-opacity:1.0000000;"/>
</svg>
