<?xml version="1.0" encoding="UTF-8" standalone="no"?>
<!-- Generator: Adobe Illustrator 12.0.0, SVG Export Plug-In . SVG Version: 6.00 Build 51448)  --><svg height="128.186" id="Layer_1" inkscape:version="0.42" sodipodi:docbase="F:\openclip\svg da inviare" sodipodi:docname="cesto.svg" sodipodi:version="0.32" space="preserve" style="overflow:visible;enable-background:new 0 0 134.744 128.186;" version="1.1" viewBox="0 0 134.744 128.186" width="134.744" xmlns="http://www.w3.org/2000/svg" xmlns:cc="http://web.resource.org/cc/" xmlns:dc="http://purl.org/dc/elements/1.1/" xmlns:inkscape="http://www.inkscape.org/namespaces/inkscape" xmlns:rdf="http://www.w3.org/1999/02/22-rdf-syntax-ns#" xmlns:sodipodi="http://inkscape.sourceforge.net/DTD/sodipodi-0.dtd" xmlns:svg="http://www.w3.org/2000/svg" xmlns:xlink="http://www.w3.org/1999/xlink">
  <metadata>
    <rdf:RDF xmlns:cc="http://web.resource.org/cc/" xmlns:dc="http://purl.org/dc/elements/1.1/" xmlns:rdf="http://www.w3.org/1999/02/22-rdf-syntax-ns#">
      <cc:Work rdf:about="">
        <dc:title>Cesto</dc:title>
        <dc:description></dc:description>
        <dc:subject>
          <rdf:Bag>
            <rdf:li>container</rdf:li>
          </rdf:Bag>
        </dc:subject>
        <dc:publisher>
          <cc:Agent rdf:about="http://www.openclipart.org/">
            <dc:title>Open Clip Art Library</dc:title>
          </cc:Agent>
        </dc:publisher>
        <dc:creator>
          <cc:Agent>
            <dc:title>Architetto Francesco Rollandin</dc:title>
          </cc:Agent>
        </dc:creator>
        <dc:rights>
          <cc:Agent>
            <dc:title>Architetto Francesco Rollandin</dc:title>
          </cc:Agent>
        </dc:rights>
        <dc:date></dc:date>
        <dc:format>image/svg+xml</dc:format>
        <dc:type rdf:resource="http://purl.org/dc/dcmitype/StillImage"/>
        <cc:license rdf:resource="http://web.resource.org/cc/PublicDomain"/>
        <dc:language>en</dc:language>
      </cc:Work>
      <cc:License rdf:about="http://web.resource.org/cc/PublicDomain">
        <cc:permits rdf:resource="http://web.resource.org/cc/Reproduction"/>
        <cc:permits rdf:resource="http://web.resource.org/cc/Distribution"/>
        <cc:permits rdf:resource="http://web.resource.org/cc/DerivativeWorks"/>
      </cc:License>
    </rdf:RDF>
  </metadata>
  <defs id="defs80"/>
  <sodipodi:namedview bordercolor="#666666" borderopacity="1.0" id="base" inkscape:current-layer="Layer_1" inkscape:cx="67.372002" inkscape:cy="64.093002" inkscape:pageopacity="0.0" inkscape:pageshadow="2" inkscape:window-height="510" inkscape:window-width="787" inkscape:window-x="22" inkscape:window-y="29" inkscape:zoom="2.8084189" pagecolor="#ffffff"/>
  <g id="g3">
    <path d="M121.35,119.202c0,9.178-9.696,8.178-15.906,8.178c-9.371,0-18.743,0-28.114,0   c-18.185,0-36.371,0-54.556,0c-7.863,0-9.524-5.594-10.273-12.168c-1.126-9.869-2.252-19.74-3.376-29.611   c-0.523-4.59-1.048-9.18-1.571-13.77c-0.197-1.735,0.073-4.906-0.74-6.49c0-1.435-4.133-3.031-5.097-3.762   c-2.344-1.778-0.878-3.976,0.028-6.268c1.088-2.753,3.793-11.105,7.648-11.105c34.841,0,69.683,0,104.524,0   c3.077,0,8.637-1.143,11.564,0.18c4.584,2.072,7.552,10.749,8.81,15.181c0.792,2.732-5.934,3.79-6.317,6.833   c-2.163,17.248-4.327,34.495-6.49,51.743C121.439,118.496,121.395,118.849,121.35,119.202" id="path5" style="fill:#FFD500;"/>
    <path d="M9.202,43.4c-4.496,0-7.484,9.631-8.681,12.859c-2.546,6.868,5.038,5.123,5.579,9.869   c0.945,8.298,1.889,16.594,2.833,24.893c1.016,8.92,2.031,17.842,3.045,26.761c0.854,7.502,5.135,10.404,12.193,10.404   c19.043,0,38.085,0,57.129,0c8.796,0,17.591,0,26.386,0c6.889,0,13.431-0.574,14.476-8.927c2.115-16.848,4.229-33.696,6.344-50.543   c0.464-3.71,0.724-3.5,4.207-5.799c5.248-3.462-1.011-12.501-3.738-16.239c-3.163-4.335-7.129-3.278-11.931-3.278   c-35.608,0-71.217,0-106.826,0C9.878,43.4,9.541,43.4,9.202,43.4 M13.76,119.202c-1.891-16.65-3.782-33.303-5.673-49.952   c-0.243-2.147,0.025-4.518-1.958-5.849c-3.717-2.495-5.623-2.572-3.859-7.203c1.328-3.487,2.902-7.656,5.572-10.37   c2.098-2.131,8.756-0.802,11.355-0.802c35.067,0,70.134,0,105.202,0c3.146,0,5.587,6.275,6.66,8.523   c1.312,2.746,3.793,6.033,0.644,8.086c-1.5,0.979-4.179,1.825-4.438,3.88c-0.948,7.568-1.899,15.137-2.852,22.705   c-1.185,9.437-2.369,18.872-3.555,28.308c-0.763,6.071-3.094,10.03-9.747,10.03c-18.045,0-36.09,0-54.135,0   c-9.372,0-18.743,0-28.115,0C23.167,126.559,13.76,127.717,13.76,119.202" id="path7" style="fill:#FF9900;"/>
    <path d="M112.395,63.772c-26.782,0-53.565,0-80.349,0c-3.164,0-6.329,0-9.494,0   c-8.721,0-6.791,8.896-6.151,14.338c0.989,8.44,1.979,16.88,2.969,25.319c0.501,4.284,0.045,13.424,3.375,16.754   c-2.842-6.927-2.218-16.956-3.093-24.274c-0.585-4.896-1.17-9.793-1.756-14.689c-0.346-2.89-1.426-6.479,0.22-9.157   c2.931-4.769,11.832-3.204,16.526-3.204c10.037,0,20.073,0,30.109,0c10.528,0,21.058,0,31.585,0c4.732,0,9.918-0.607,14.624,0   c10.512,0,5.607,15.388,4.845,21.179c-1.188,8.994-2.374,17.987-3.563,26.979c-0.131,0.999-0.24,2.31-0.579,3.138   c2.344-2.373,2.258-7.075,2.666-10.25c0.784-6.073,1.567-12.148,2.352-18.223C117.48,85.487,124.152,63.772,112.395,63.772" id="path9" style="fill:#FFB907;"/>
    <path d="M111.589,110.657c0,10.254-21.849,6.697-27.879,6.697c-15.028,0-30.057,0-45.086,0   c-3.021,0-6.041,0-9.062,0c-6.956,0-6.827-7.551-7.395-12.533c-1.375-12.08-2.752-24.159-4.128-36.241   c-1.557,6.283,1.333,15.384,2.05,21.67c0.906,7.953,1.813,15.903,2.719,23.856c0.911,7.998,8.126,6.911,14.042,6.911   c9.891,0,19.781,0,29.671,0c9.754,0,19.509,0,29.262,0c6.146,0,14.766,1.601,15.812-6.75c0.948-7.557,1.895-15.114,2.842-22.672   c0.616-4.912,1.231-9.822,1.847-14.735c0.321-2.568,1.279-5.755,0.582-8.339C115.107,82.566,113.348,96.611,111.589,110.657" id="path11" style="fill:#FF9900;"/>
    <path d="M124.751,50.803c2.619,4.774-10.045,3.971-12.319,3.971c-8.659,0-17.318,0-25.977,0   c-20.492,0-40.98,0-61.471,0c-3.563,0-11.156,1.191-14.41-0.798c-4.066-2.484,2.239-6.016,4.441-6.016c1.413,0,2.824,0,4.238,0   c18.898,0,37.798,0,56.697,0c11.119,0,22.238,0,33.355,0C112.948,47.959,123.148,46.458,124.751,50.803" id="path13" style="fill:#FFB907;"/>
    <g id="g15">
      <defs id="defs17">
        <path d="M120.501,46.259c-33.425,0-66.851,0-100.276,0c-1.84,0-3.678,0-5.518,0c-1.471,0-1.871,1.7-0.202,1.7     c5.334,0,10.666,0,16,0c21.208,0,42.416,0,63.625,0c6.762,0,13.524,0,20.285,0c1.664,0,3.326,0,4.988,0     C120.591,47.959,122.392,46.259,120.501,46.259" id="XMLID_1_"/>
      </defs>
      <use id="use20" style="fill:#FF9900;" xlink:href="#XMLID_1_"/>
      <clipPath id="XMLID_5_">
        <use id="use23" xlink:href="#XMLID_1_"/>
      </clipPath>
      <path d="M13.291,47.959c33.559,0,67.116,0,100.675,0c2.103,0,4.204,0,6.308,0    c1.296,0,1.708-1.7,0.719-1.7c-5.255,0-10.511,0-15.767,0c-21.172,0-42.343,0-63.515,0c-7.011,0-14.023,0-21.034,0    C18.747,46.259,12.512,44.883,13.291,47.959" id="path25" style="clip-path:url(#XMLID_5_);fill:#FF9900;"/>
    </g>
    <path d="M123.842,54.773h-4.543c-34.769,0-69.539,0-104.307,0c-0.392,0-6.697-0.315-4.841,1.452   c0.439,0.418,1.462,0.248,1.986,0.248c3.528,0,7.055,0,10.582,0c13.498,0,26.997,0,40.495,0c14.32,0,28.643,0,42.964,0   c4.555,0,9.11,0,13.666,0c1.152,0,2.308,0,3.462,0C124.474,56.474,125.502,54.773,123.842,54.773" id="path27" style="fill:#FF9900;"/>
    <path d="M119.299,54.773H14.993l0,0C49.761,54.773,84.531,54.773,119.299,54.773" id="path29" style="fill:#FF9900;"/>
    <path d="M33.562,59.742c-4.426,0-8.853,0-13.279,0c-2.479,0-12.115-1.616-14.047,0.316   c-3.966,3.966,11.903,3.215,12.554,3.215c3.168,0,6.335,0,9.503,0C31.676,63.273,30.542,61.222,33.562,59.742 M97.081,59.742   c-19.796,0-39.593,0-59.389,0c2.068,1.011,1.902,3.532,4.076,3.532c1.85,0,3.7,0,5.55,0c6.464,0,12.928,0,19.391,0   c6.597,0,13.193,0,19.79,0c2.016,0,4.032,0,6.05,0C95.213,63.273,94.614,60.952,97.081,59.742 M128.312,59.742   c-9.033,0-18.066,0-27.101,0c2.94,1.439,1.888,3.532,5.163,3.532c3.519,0,7.033,0,10.552,0c3.07,0,6.142,0,9.212,0   C128.402,63.273,130.752,59.742,128.312,59.742" id="path31" style="fill:#FF9900;"/>
    <path d="M40.536,68.858c-3.273,0-6.544,0-9.817,0C32.678,73.517,38.576,73.517,40.536,68.858 M40.682,63.273   c-1.625,0-9.888-0.852-10.267,0.499C31.96,63.772,40.922,63.959,40.682,63.273 M35.628,59.258c-0.689,0.16-1.377,0.323-2.066,0.483   c1.377,0,2.753,0,4.13,0C37.004,59.581,36.317,59.418,35.628,59.258" id="path33" style="fill:#BF8A05;"/>
    <path d="M40.839,63.772c-4.12,0-11.744-2.271-10.555,3.664c0.498,2.481,3.88,1.422,6.009,1.422   C40.173,68.858,42.251,68.835,40.839,63.772" id="path35" style="fill:#988904;"/>
    <path d="M37.692,59.742c-3.324,0-5.771-0.256-7.118,3.532c3.37,0,6.738,0,10.107,0   C40.155,61.792,39.126,60.443,37.692,59.742" id="path37" style="fill:#8CB211;"/>
    <path d="M104.054,68.858c-3.273,0-6.544,0-9.816,0C96.195,73.514,102.099,73.519,104.054,68.858    M104.201,63.273c-1.616,0-9.901-0.844-10.265,0.499C95.482,63.772,104.441,63.959,104.201,63.273 M99.147,59.258   c-0.688,0.16-1.378,0.323-2.066,0.483c1.378,0,2.754,0,4.131,0C100.522,59.581,99.835,59.418,99.147,59.258" id="path39" style="fill:#BF8A05;"/>
    <path d="M104.358,63.772c-4.118,0-11.744-2.271-10.554,3.664c0.497,2.481,3.88,1.422,6.01,1.422   C103.693,68.858,105.77,68.835,104.358,63.772" id="path41" style="fill:#988904;"/>
    <path d="M101.211,59.742c-3.323,0-5.771-0.256-7.118,3.532c3.369,0,6.738,0,10.107,0   C103.674,61.792,102.646,60.443,101.211,59.742" id="path43" style="fill:#8CB211;"/>
    <path d="M101.116,64.059c-5.647,2.808-7.616-4.625-9.444-8.299c-3.476-6.985-6.948-13.968-10.423-20.952   C79.211,30.709,62.535,5.775,71.082,1.529c4.6-3.763,17.407,26.453,18.692,29.037c3.473,6.984,6.947,13.969,10.421,20.954   C102.023,55.195,106.764,61.252,101.116,64.059" id="path45" style="fill:#77AAE8;"/>
    <radialGradient cx="-246.1772" cy="466.8408" gradientTransform="matrix(84.8922 8.4807 8.4807 -84.8922 17008.8535 41684.7734)" gradientUnits="userSpaceOnUse" id="XMLID_6_" r="1.6287">
      <stop id="stop48" offset="0" style="stop-color:#8BBBFF"/>
      <stop id="stop50" offset="1" style="stop-color:#0D56AC"/>
    </radialGradient>
    <path d="M70.566,0.899c-9.161,4.47,7.166,28.665,9.354,33.063   c3.527,7.093,7.057,14.185,10.585,21.278c1.858,3.738,3.815,11.216,9.295,10.124c7.896-1.575,4.074-8.277,1.938-12.575   c-3.345-6.722-6.689-13.444-10.032-20.167c-3.412-6.86-6.824-13.72-10.236-20.581C79.763,8.614,75.442-3.097,70.566,0.899    M95.926,62.486c-4.649-9.348-9.3-18.695-13.949-28.042c-3.011-6.054-6.022-12.108-9.033-18.163   c-1.528-3.069-3.798-6.159-3.386-9.729c0.324-2.816,2.48-6.797,5.261-3.427c2.329,2.824,2.738,6.682,4.405,9.968   c3.613,7.124,7.292,14.214,10.971,21.305c3.498,6.738,7.004,13.471,10.516,20.201c0.752,1.44,1.504,2.882,2.258,4.322   C104.775,62.38,97.687,66.015,95.926,62.486 M101.478,64.788L101.478,64.788C101.48,64.788,101.48,64.788,101.478,64.788" id="path52" style="fill:url(#XMLID_6_);"/>
    <path d="M74.978,6.221c-0.187,1.857,2.01,4.949,2.77,6.521c2.034,4.219,4.154,8.396,6.267,12.576   c0.878,1.737,7.712,18.643,9.001,18.771c-1.44-0.145-4.151-6.232-4.789-7.29c-2.959-4.919-5.859-9.876-8.812-14.8   c-2.425-4.043-4.799-8.177-7.56-12.006C68.499,5.339,75.669-0.705,74.978,6.221" id="path54" style="fill:#7ED8FC;"/>
    <path d="M34.415,64.059c5.647,2.808,7.616-4.625,9.445-8.299c3.475-6.985,6.948-13.968,10.422-20.952   c2.037-4.098,18.713-29.033,10.167-33.278C59.85-2.233,47.042,27.982,45.757,30.566c-3.474,6.984-6.949,13.969-10.421,20.954   C33.506,55.195,28.766,61.252,34.415,64.059" id="path56" style="fill:#77AAE8;"/>
    <radialGradient cx="-231.9482" cy="468.2617" gradientTransform="matrix(-84.8933 8.4808 -8.4808 -84.8933 -15654 41685.1563)" gradientUnits="userSpaceOnUse" id="XMLID_7_" r="1.6294">
      <stop id="stop59" offset="0" style="stop-color:#8BBBFF"/>
      <stop id="stop61" offset="1" style="stop-color:#0D56AC"/>
    </radialGradient>
    <path d="M62.227,0.147C58.259,1,55.341,9.471,53.645,12.88c-3.474,6.984-6.948,13.968-10.421,20.952   c-3.268,6.569-6.536,13.141-9.804,19.71c-0.755,1.521-1.511,3.039-2.266,4.558c-2.238,4.5,3.785,8.589,7.75,7.027   c3.293-1.297,5.194-8.022,6.578-10.804c3.575-7.187,7.15-14.375,10.727-21.561c3.095-6.221,6.189-12.444,9.284-18.665   C67.338,10.385,69.76-1.451,62.227,0.147 M34.777,63.331c-6.542-3.18,6.922-22.669,9.414-27.566   c2.987-5.869,5.999-11.729,9.117-17.533c1.239-2.306,2.522-4.589,3.734-6.91c1.165-2.228,1.381-4.678,2.654-6.751   c2.689-4.373,5.75-2.578,6.275,1.981c0.412,3.571-1.858,6.661-3.386,9.729c-3.21,6.458-6.423,12.915-9.636,19.372   c-3.272,6.58-6.547,13.161-9.82,19.741C41.56,58.555,39.709,65.78,34.777,63.331 M34.051,64.788L34.051,64.788L34.051,64.788z" id="path63" style="fill:url(#XMLID_7_);"/>
    <path d="M60.553,6.221c0.186,1.857-2.01,4.949-2.769,6.521c-2.036,4.219-4.155,8.396-6.268,12.576   c-0.877,1.737-7.712,18.643-9,18.771c1.439-0.145,4.15-6.232,4.789-7.29c2.959-4.919,5.859-9.876,8.812-14.8   c2.425-4.043,4.799-8.177,7.56-12.006C67.031,5.339,59.861-0.705,60.553,6.221" id="path65" style="fill:#7ED8FC;"/>
    <path d="M39.297,59.671c0,3.416-5.292,3.416-5.292,0S39.297,56.255,39.297,59.671" id="path67" style="fill:#68A0F2;"/>
    <path d="M38.482,59.671c0,2.37-3.664,2.37-3.664,0C34.818,57.302,38.482,57.302,38.482,59.671" id="path69" style="fill:#C3C2C4;"/>
    <path d="M38.203,59.671c0-0.705-2.427-1.134-3.052,0.177C35.663,58.774,38.203,56.764,38.203,59.671" id="path71" style="fill:#E5E5E5;"/>
    <path d="M101.653,59.671c0,3.416-5.292,3.416-5.292,0S101.653,56.255,101.653,59.671" id="path73" style="fill:#68A0F2;"/>
    <path d="M100.838,59.671c0,2.37-3.664,2.37-3.664,0C97.174,57.302,100.838,57.302,100.838,59.671" id="path75" style="fill:#C3C2C4;"/>
    <path d="M100.559,59.671c0-0.705-2.427-1.134-3.051,0.177C98.017,58.774,100.559,56.764,100.559,59.671" id="path77" style="fill:#E5E5E5;"/>
  </g>
</svg>
