<?xml version="1.0" encoding="UTF-8" standalone="no"?>
<!DOCTYPE svg PUBLIC "-//W3C//DTD SVG 20010904//EN"
"http://www.w3.org/TR/2001/REC-SVG-20010904/DTD/svg10.dtd">
<!-- Created with Inkscape (http://www.inkscape.org/) --><svg height="120.00000pt" id="svg1" inkscape:version="0.38.1" sodipodi:docbase="/home/nicu/Desktop/new_smileys" sodipodi:docname="smiley120.svg" sodipodi:version="0.32" width="120.00000pt" xmlns="http://www.w3.org/2000/svg" xmlns:inkscape="http://www.inkscape.org/namespaces/inkscape" xmlns:sodipodi="http://sodipodi.sourceforge.net/DTD/sodipodi-0.dtd" xmlns:xlink="http://www.w3.org/1999/xlink">
  <metadata>
    <rdf:RDF xmlns:cc="http://web.resource.org/cc/" xmlns:dc="http://purl.org/dc/elements/1.1/" xmlns:rdf="http://www.w3.org/1999/02/22-rdf-syntax-ns#">
      <cc:Work rdf:about="">
        <dc:title>Clipart by Nicu Buculei - smiley111</dc:title>
        <dc:description></dc:description>
        <dc:subject>
          <rdf:Bag>
            <rdf:li></rdf:li>
            <rdf:li>people</rdf:li>
            <rdf:li>smiley</rdf:li>
          </rdf:Bag>
        </dc:subject>
        <dc:publisher>
          <cc:Agent rdf:about="http://www.openclipart.org">
            <dc:title>Nicu Buculei</dc:title>
          </cc:Agent>
        </dc:publisher>
        <dc:creator>
          <cc:Agent>
            <dc:title>Nicu Buculei</dc:title>
          </cc:Agent>
        </dc:creator>
        <dc:rights>
          <cc:Agent>
            <dc:title>Nicu Buculei</dc:title>
          </cc:Agent>
        </dc:rights>
        <dc:date></dc:date>
        <dc:format>image/svg+xml</dc:format>
        <dc:type rdf:resource="http://purl.org/dc/dcmitype/StillImage"/>
        <cc:license rdf:resource="http://web.resource.org/cc/PublicDomain"/>
        <dc:language>en</dc:language>
      </cc:Work>
      <cc:License rdf:about="http://web.resource.org/cc/PublicDomain">
        <cc:permits rdf:resource="http://web.resource.org/cc/Reproduction"/>
        <cc:permits rdf:resource="http://web.resource.org/cc/Distribution"/>
        <cc:permits rdf:resource="http://web.resource.org/cc/DerivativeWorks"/>
      </cc:License>
    </rdf:RDF>
  </metadata>
  <defs id="defs3">
    <linearGradient id="linearGradient838">
      <stop id="stop839" offset="0.0000000" style="stop-color:#ffffff;stop-opacity:0.50000000;"/>
      <stop id="stop840" offset="1.0000000" style="stop-color:#ffffff;stop-opacity:0.0000000;"/>
    </linearGradient>
    <linearGradient id="linearGradient827">
      <stop id="stop828" offset="0.0000000" style="stop-color:#ffffff;stop-opacity:1.0000000;"/>
      <stop id="stop829" offset="1.0000000" style="stop-color:#ffc613;stop-opacity:1.0000000;"/>
    </linearGradient>
    <radialGradient cx="0.43843809" cy="0.24228731" fx="0.44613335" fy="0.25009677" id="radialGradient830" r="0.39870128" xlink:href="#linearGradient827"/>
    <linearGradient id="linearGradient837" x1="0.13281250" x2="0.93750000" xlink:href="#linearGradient838" y1="0.11718750" y2="0.94531250"/>
    <linearGradient id="linearGradient929" x1="1.3980787e-16" x2="1.0000000" xlink:href="#linearGradient838" y1="0.50000000" y2="0.50000000"/>
    <linearGradient id="linearGradient931" x1="0.19172932" x2="0.54887217" xlink:href="#linearGradient838" y1="0.15625000" y2="0.56250000"/>
  </defs>
  <sodipodi:namedview bordercolor="#666666" borderopacity="1.0" id="base" inkscape:cx="66.155121" inkscape:cy="61.088745" inkscape:pageopacity="0.0" inkscape:pageshadow="2" inkscape:window-height="663" inkscape:window-width="684" inkscape:window-x="328" inkscape:window-y="48" inkscape:zoom="1.0000000" pagecolor="#ffffff"/>
  <path d="M 130.95732,72.296425 C 130.95732,98.179753 109.27534,119.18651 82.560051,119.18651 C 55.844758,119.18651 34.162781,98.179753 34.162781,72.296425 C 34.162781,46.413097 55.844758,25.406338 82.560051,25.406338 C 109.27534,25.406338 130.95732,46.413097 130.95732,72.296425 z " id="path826" style="fill:url(#radialGradient830);fill-opacity:1;fill-rule:evenodd;stroke:#000000;stroke-width:2.4132968;stroke-dasharray:none;stroke-linejoin:round;" transform="matrix(1.019945,0.000000,0.000000,1.052160,-6.697623,-9.933914)"/>
  <g id="g841" transform="translate(-74.48908,36.10290)">
    <path d="M 143.01477,21.387184 C 143.01477,27.488255 137.68806,32.439848 131.12479,32.439848 C 124.56151,32.439848 119.23480,27.488255 119.23480,21.387184 C 119.23480,15.286114 124.56151,10.334520 131.12479,10.334520 C 137.68806,10.334520 143.01477,15.286114 143.01477,21.387184 z " id="path832" style="fill:#ffffff;fill-opacity:1.0000000;fill-rule:evenodd;stroke:#000000;stroke-width:2.4177773;stroke-dasharray:none;stroke-linejoin:round;" transform="matrix(0.998802,0.000000,0.000000,1.070454,0.142038,-2.329516)"/>
    <path d="M 140.33534,24.903942 C 140.33534,29.618406 136.13399,33.444637 130.95732,33.444637 C 125.78066,33.444637 121.57930,29.618406 121.57930,24.903942 C 121.57930,20.189478 125.78066,16.363247 130.95732,16.363247 C 136.13399,16.363247 140.33534,20.189478 140.33534,24.903942 z " id="path834" style="fill:#0000ff;fill-rule:evenodd;stroke-width:1.0000000pt;" transform="matrix(0.666452,0.000000,0.000000,0.731790,43.86252,2.256431)"/>
    <path d="M 134.88675,20.537890 C 134.88675,22.607890 133.20675,24.287890 131.13675,24.287890 C 129.06675,24.287890 127.38675,22.607890 127.38675,20.537890 C 127.38675,18.467890 129.06675,16.787890 131.13675,16.787890 C 133.20675,16.787890 134.88675,18.467890 134.88675,20.537890 z " id="path835" style="fill:#000000;fill-rule:evenodd;stroke-width:1.0000000pt;fill-opacity:1.0000000;"/>
    <path d="M 135.37718,19.287889 C 135.37718,22.047889 133.13718,24.287889 130.37718,24.287889 C 127.61718,24.287889 125.37718,22.047889 125.37718,19.287889 C 125.37718,16.527888 127.61718,14.287889 130.37718,14.287889 C 133.13718,14.287889 135.37718,16.527888 135.37718,19.287889 z " id="path836" style="fill:url(#linearGradient837);fill-rule:evenodd;stroke-width:1.0000000pt;"/>
  </g>
  <g id="g846" transform="translate(-34.44999,34.91603)">
    <path d="M 143.01477,21.387184 C 143.01477,27.488255 137.68806,32.439848 131.12479,32.439848 C 124.56151,32.439848 119.23480,27.488255 119.23480,21.387184 C 119.23480,15.286114 124.56151,10.334520 131.12479,10.334520 C 137.68806,10.334520 143.01477,15.286114 143.01477,21.387184 z " id="path847" style="fill:#ffffff;fill-opacity:1.0000000;fill-rule:evenodd;stroke:#000000;stroke-width:2.4177773;stroke-dasharray:none;stroke-linejoin:round;" transform="matrix(0.998802,0.000000,0.000000,1.070454,0.142038,-2.329516)"/>
    <path d="M 140.33534,24.903942 C 140.33534,29.618406 136.13399,33.444637 130.95732,33.444637 C 125.78066,33.444637 121.57930,29.618406 121.57930,24.903942 C 121.57930,20.189478 125.78066,16.363247 130.95732,16.363247 C 136.13399,16.363247 140.33534,20.189478 140.33534,24.903942 z " id="path848" style="fill:#0000ff;fill-rule:evenodd;stroke-width:1.0000000pt;" transform="matrix(0.666452,0.000000,0.000000,0.731790,43.86252,2.256431)"/>
    <path d="M 134.88675,20.537890 C 134.88675,22.607890 133.20675,24.287890 131.13675,24.287890 C 129.06675,24.287890 127.38675,22.607890 127.38675,20.537890 C 127.38675,18.467890 129.06675,16.787890 131.13675,16.787890 C 133.20675,16.787890 134.88675,18.467890 134.88675,20.537890 z " id="path849" style="fill:#000000;fill-rule:evenodd;stroke-width:1.0000000pt;fill-opacity:1.0000000;"/>
    <path d="M 135.37718,19.287889 C 135.37718,22.047889 133.13718,24.287889 130.37718,24.287889 C 127.61718,24.287889 125.37718,22.047889 125.37718,19.287889 C 125.37718,16.527888 127.61718,14.287889 130.37718,14.287889 C 133.13718,14.287889 135.37718,16.527888 135.37718,19.287889 z " id="path850" style="fill:url(#linearGradient837);fill-rule:evenodd;stroke-width:1.0000000pt;"/>
  </g>
  <path d="M 35.896823,52.360640 C 35.896823,45.974996 71.434679,46.082915 71.434679,49.847863 C 73.588488,53.683752 74.665393,62.182081 71.434679,65.642465 C 61.024600,70.942231 42.666837,68.514211 40.563411,68.514211 C 36.512589,66.360402 35.081830,60.131625 35.896823,52.360640 z " id="path882" sodipodi:nodetypes="ccccc" style="fill:none;fill-rule:evenodd;stroke:black;stroke-opacity:1;stroke-width:2.5000000;stroke-linejoin:round;stroke-linecap:butt;fill-opacity:0.75;stroke-dasharray:none;"/>
  <path d="M 117.32098,48.759647 C 116.58552,42.416497 81.296583,46.616710 81.730205,50.356604 C 80.032520,54.415028 79.941562,62.980835 83.549321,66.046100 C 94.500517,70.111639 112.45648,65.585452 114.54590,65.343195 C 118.32171,62.737170 119.02555,56.385055 117.32098,48.759647 z " id="path883" sodipodi:nodetypes="ccccc" style="fill:none;fill-opacity:0.75000000;fill-rule:evenodd;stroke:#000000;stroke-width:2.5000000;stroke-linejoin:round;"/>
  <path d="M 72.763303,55.236108 C 74.677800,53.321611 78.494388,53.198232 80.767853,55.232385" id="path884" sodipodi:nodetypes="cc" style="fill:none;fill-rule:evenodd;stroke:black;stroke-opacity:1;stroke-width:2.5000000;stroke-linejoin:round;stroke-linecap:butt;fill-opacity:0.75;stroke-dasharray:none;"/>
  <path d="M 35.280310,52.906254 C 33.479198,52.906254 33.239301,54.018237 33.239301,57.279846 C 33.239301,58.752089 34.851288,59.749878 35.280310,59.320856" id="path888" sodipodi:nodetypes="ccc" style="fill:none;fill-rule:evenodd;stroke:black;stroke-opacity:1;stroke-width:2.5000000;stroke-linejoin:round;stroke-linecap:butt;fill-opacity:0.75;stroke-dasharray:none;"/>
  <path d="M 117.94120,49.357252 C 119.74231,49.357252 119.98221,50.469235 119.98221,53.730844 C 119.98221,55.203087 118.37022,56.200876 117.94120,55.771854" id="path889" sodipodi:nodetypes="ccc" style="fill:none;fill-rule:evenodd;stroke:black;stroke-opacity:1;stroke-width:2.5000000;stroke-linejoin:round;stroke-linecap:butt;fill-opacity:0.75;stroke-dasharray:none;"/>
  <path d="M 69.494381,86.230954 L 69.871353,94.665845 L 76.115155,94.338898 L 75.617410,85.733209 C 75.617410,85.733209 70.952245,85.939382 69.494381,86.230954 z " id="path890" sodipodi:nodetypes="ccccc" style="fill:#ffeaff;fill-rule:evenodd;stroke:black;stroke-opacity:1;stroke-width:2.5000000;stroke-linejoin:miter;stroke-linecap:butt;fill-opacity:1.0000000;stroke-dasharray:none;"/>
  <path d="M 85.252291,85.787844 L 85.537451,94.226334 L 79.287232,94.389681 L 79.109085,85.771447 C 79.109085,85.771447 83.776056,85.611412 85.252291,85.787844 z " id="path891" sodipodi:nodetypes="ccccc" style="fill:#ffeaff;fill-rule:evenodd;stroke:#000000;stroke-width:2.5000000;"/>
  <path d="M 60.015363,89.173905 C 67.672328,84.634210 87.409321,84.505829 94.578939,87.433212" id="path851" sodipodi:nodetypes="cc" style="fill:none;fill-rule:evenodd;stroke:black;stroke-opacity:1;stroke-width:2.5000000;stroke-linejoin:round;stroke-linecap:butt;fill-opacity:0.75;stroke-dasharray:none;"/>
</svg>
