<?xml version="1.0" encoding="UTF-8" standalone="no"?>
<!-- Created with Inkscape (http://www.inkscape.org/) --><svg height="1052.3622047" id="svg2" inkscape:version="0.40+cvs" sodipodi:docbase="C:\Documents and Settings\Lumen 2\Desktop" sodipodi:docname="svg_bottons.svg" sodipodi:version="0.32" width="744.09448819" xmlns="http://www.w3.org/2000/svg" xmlns:cc="http://web.resource.org/cc/" xmlns:dc="http://purl.org/dc/elements/1.1/" xmlns:inkscape="http://www.inkscape.org/namespaces/inkscape" xmlns:rdf="http://www.w3.org/1999/02/22-rdf-syntax-ns#" xmlns:sodipodi="http://inkscape.sourceforge.net/DTD/sodipodi-0.dtd" xmlns:svg="http://www.w3.org/2000/svg" xmlns:xlink="http://www.w3.org/1999/xlink">
  <metadata>
    <rdf:RDF xmlns:cc="http://web.resource.org/cc/" xmlns:dc="http://purl.org/dc/elements/1.1/" xmlns:rdf="http://www.w3.org/1999/02/22-rdf-syntax-ns#">
      <cc:Work rdf:about="">
        <dc:title>SVG buttons</dc:title>
        <dc:description>Add / remove buttons</dc:description>
        <dc:subject>
          <rdf:Bag>
            <rdf:li>icon</rdf:li>
            <rdf:li>remove</rdf:li>
            <rdf:li>add</rdf:li>
            <rdf:li>navigation</rdf:li>
            <rdf:li>green</rdf:li>
            <rdf:li>red</rdf:li>
            <rdf:li>computer</rdf:li>
            <rdf:li>button</rdf:li>
            <rdf:li>www.lumenstudio.net</rdf:li>
          </rdf:Bag>
        </dc:subject>
        <dc:publisher>
          <cc:Agent rdf:about="http://www.openclipart.org">
            <dc:title>Open Clip Art Library</dc:title>
          </cc:Agent>
        </dc:publisher>
        <dc:creator>
          <cc:Agent>
            <dc:title>Lumen Design Studio</dc:title>
          </cc:Agent>
        </dc:creator>
        <dc:rights>
          <cc:Agent>
            <dc:title>Lumen Design Studio</dc:title>
          </cc:Agent>
        </dc:rights>
        <dc:date></dc:date>
        <dc:format>image/svg+xml</dc:format>
        <dc:type rdf:resource="http://purl.org/dc/dcmitype/StillImage"/>
        <cc:license rdf:resource="http://web.resource.org/cc/PublicDomain"/>
        <dc:language>en</dc:language>
      </cc:Work>
      <cc:License rdf:about="http://web.resource.org/cc/PublicDomain">
        <cc:permits rdf:resource="http://web.resource.org/cc/Reproduction"/>
        <cc:permits rdf:resource="http://web.resource.org/cc/Distribution"/>
        <cc:permits rdf:resource="http://web.resource.org/cc/DerivativeWorks"/>
      </cc:License>
    </rdf:RDF>
  </metadata>
  <defs id="defs3">
    <marker id="Arrow2Lend" inkscape:stockid="Arrow2Lend" orient="auto" refX="0.0" refY="0.0" style="overflow:visible;">
      <path d="M 8.7185878,4.0337352 L -2.2072895,0.016013256 L 8.7185884,-4.0017078 C 6.9730900,-1.6296469 6.9831476,1.6157441 8.7185878,4.0337352 z " id="path2663" sodipodi:nodetypes="cccc" style="font-size:12.0;fill-rule:evenodd;stroke-width:0.62500000;stroke-linejoin:round;" transform="scale(1.1) rotate(180) translate(-5,0)"/>
    </marker>
    <marker id="Arrow1Lstart" inkscape:stockid="Arrow1Lstart" orient="auto" refX="0.0" refY="0.0" style="overflow:visible">
      <path d="M 0.0,0.0 L 5.0,-5.0 L -12.5,0.0 L 5.0,5.0 L 0.0,0.0 z " id="path2671" sodipodi:nodetypes="ccccc" style="fill-rule:evenodd;stroke:#000000;stroke-width:1.0pt;marker-start:none" transform="scale(0.8)"/>
    </marker>
    <linearGradient id="linearGradient2209" inkscape:collect="always">
      <stop id="stop2211" offset="0" style="stop-color:#ffe900;stop-opacity:1;"/>
      <stop id="stop2213" offset="1" style="stop-color:#ffe900;stop-opacity:0;"/>
    </linearGradient>
    <linearGradient gradientTransform="matrix(0.603819,0.000000,0.000000,0.619709,150.0752,-14.30925)" gradientUnits="userSpaceOnUse" id="linearGradient2520" inkscape:collect="always" x1="264.58200" x2="380.68460" xlink:href="#linearGradient2209" y1="296.37491" y2="553.74487"/>
    <linearGradient gradientTransform="matrix(-0.583245,0.156280,-0.160393,-0.598593,682.4170,557.5316)" gradientUnits="userSpaceOnUse" id="linearGradient2546" inkscape:collect="always" x1="249.48328" x2="272.02597" xlink:href="#linearGradient2209" y1="262.87494" y2="427.54285"/>
    <linearGradient gradientTransform="matrix(-0.583245,0.156280,-0.160393,-0.598593,681.2397,988.4160)" gradientUnits="userSpaceOnUse" id="linearGradient3069" inkscape:collect="always" x1="249.48328" x2="272.02597" xlink:href="#linearGradient2209" y1="262.87494" y2="427.54285"/>
    <linearGradient gradientTransform="matrix(0.603819,0.000000,0.000000,0.619709,148.8979,416.5751)" gradientUnits="userSpaceOnUse" id="linearGradient3073" inkscape:collect="always" x1="264.58200" x2="380.68460" xlink:href="#linearGradient2209" y1="296.37491" y2="553.74487"/>
  </defs>
  <sodipodi:namedview bordercolor="#666666" borderopacity="1.0" id="base" inkscape:current-layer="layer1" inkscape:cx="318.16008" inkscape:cy="629.17851" inkscape:document-units="px" inkscape:pageopacity="0.0" inkscape:pageshadow="2" inkscape:window-height="773" inkscape:window-width="862" inkscape:window-x="353" inkscape:window-y="68" inkscape:zoom="1.1211998" pagecolor="#ffffff"/>
  <g id="layer1" inkscape:groupmode="layer" inkscape:label="Layer 1">
    <path d="M 634.28571 559.50507 A 250.00000 250.00000 0 1 1  134.28571,559.50507 A 250.00000 250.00000 0 1 1  634.28571 559.50507 z" id="path2174" sodipodi:cx="384.28571" sodipodi:cy="559.50507" sodipodi:rx="250.00000" sodipodi:ry="250.00000" sodipodi:type="arc" style="stroke-opacity:1.0000000;stroke-dashoffset:0.00000000;stroke-dasharray:none;stroke-miterlimit:4.0000000;marker-end:none;marker-mid:none;marker-start:none;stroke-linejoin:miter;stroke-linecap:butt;stroke-width:19.959450;stroke:#5f8e00;fill-rule:evenodd;fill-opacity:1.0000000;fill:#7bb500;opacity:1.0000000" transform="matrix(0.593356,0.000000,0.000000,0.593356,150.2064,-24.71398)"/>
    <path d="M 414.28624,439.23147 C 451.11531,429.36316 480.36448,405.08710 497.87438,373.82859 C 526.31357,306.50342 420.20678,464.12877 332.56619,435.49317 C 358.04372,444.83685 386.34671,446.71785 414.28624,439.23147 z " id="path2540" sodipodi:nodetypes="cccc" style="opacity:1.0000000;fill:url(#linearGradient2546);fill-opacity:1.0000000;fill-rule:evenodd;stroke:none;stroke-width:0.00000000;stroke-miterlimit:4.0000000;stroke-dasharray:none;stroke-dashoffset:0.00000000;stroke-opacity:1.0000000"/>
    <path d="M 378.45096,169.35690 C 302.19445,169.35690 240.30843,232.87140 240.30843,311.13455 C 240.30843,321.71906 241.48301,332.02120 243.62944,341.94567 C 319.43747,196.01915 401.11478,287.87581 506.42289,257.74280 C 485.85794,205.92595 436.30123,169.35690 378.45096,169.35690 z " id="path2197" sodipodi:nodetypes="ccccc" style="opacity:1.0000000;fill:url(#linearGradient2520);fill-opacity:1.0000000;fill-rule:evenodd;stroke:none;stroke-width:0.00000000;stroke-miterlimit:4.0000000;stroke-dasharray:none;stroke-dashoffset:0.00000000;stroke-opacity:1.0000000"/>
    <path d="M 354.34126,390.99535 L 354.34126,331.71260 L 294.50092,331.71260 L 294.50092,282.83079 L 354.34126,282.83079 L 354.34126,223.54803 L 401.92203,223.54803 L 401.92203,282.83079 L 461.94824,282.83079 L 461.94824,331.71260 L 401.92203,331.71260 L 401.92203,390.99535 L 354.34126,390.99535" id="text2705" sodipodi:nodetypes="ccccccccccccc" style="font-size:660.22443;font-style:italic;font-variant:normal;font-weight:bold;font-stretch:normal;line-height:100.00000%;writing-mode:lr-tb;text-anchor:start;opacity:0.73529410;fill:#ffffff;fill-opacity:1.0000000;stroke:none;stroke-width:1.0000000px;stroke-linecap:butt;stroke-linejoin:miter;stroke-opacity:1.0000000;font-family:Arial"/>
    <path d="M 358.31472,386.67870 L 358.31472,327.64637 L 298.81756,327.64637 L 298.81756,286.89701 L 358.31472,286.89701 L 358.31472,227.86468 L 397.97949,227.86468 L 397.97949,286.89701 L 457.63159,286.89701 L 457.63159,327.64637 L 397.97949,327.64637 L 397.97949,386.67870 L 358.31472,386.67870" id="text2713" style="font-size:550.38306;font-style:italic;font-variant:normal;font-weight:bold;font-stretch:normal;line-height:100.00000%;writing-mode:lr-tb;text-anchor:start;opacity:1.0000000;fill:#ffffff;fill-opacity:1.0000000;stroke:none;stroke-width:1.0000000px;stroke-linecap:butt;stroke-linejoin:miter;stroke-opacity:1.0000000;font-family:Arial"/>
    <path d="M 634.28571 559.50507 A 250.00000 250.00000 0 1 1  134.28571,559.50507 A 250.00000 250.00000 0 1 1  634.28571 559.50507 z" id="path3059" sodipodi:cx="384.28571" sodipodi:cy="559.50507" sodipodi:rx="250.00000" sodipodi:ry="250.00000" sodipodi:type="arc" style="opacity:1.0000000;fill:#ff0000;fill-opacity:1.0000000;fill-rule:evenodd;stroke:#cb0000;stroke-width:19.959450;stroke-linecap:butt;stroke-linejoin:miter;marker-start:none;marker-mid:none;marker-end:none;stroke-miterlimit:4.0000000;stroke-dasharray:none;stroke-dashoffset:0.00000000;stroke-opacity:1.0000000" transform="matrix(0.593356,0.000000,0.000000,0.593356,149.0291,406.1704)"/>
    <path d="M 413.10891,870.11586 C 449.93798,860.24755 479.18715,835.97149 496.69705,804.71298 C 525.13624,737.38781 419.02945,895.01316 331.38886,866.37756 C 356.86639,875.72124 385.16938,877.60224 413.10891,870.11586 z " id="path3061" sodipodi:nodetypes="cccc" style="opacity:1.0000000;fill:url(#linearGradient3069);fill-opacity:1.0000000;fill-rule:evenodd;stroke:none;stroke-width:0.00000000;stroke-miterlimit:4.0000000;stroke-dasharray:none;stroke-dashoffset:0.00000000;stroke-opacity:1.0000000"/>
    <path d="M 377.27363,600.24129 C 301.01712,600.24129 239.13110,663.75579 239.13110,742.01894 C 239.13110,752.60345 240.30568,762.90559 242.45211,772.83006 C 318.26014,626.90354 399.93745,718.76020 505.24556,688.62719 C 484.68061,636.81034 435.12390,600.24129 377.27363,600.24129 z " id="path3063" sodipodi:nodetypes="ccccc" style="opacity:1.0000000;fill:url(#linearGradient3073);fill-opacity:1.0000000;fill-rule:evenodd;stroke:none;stroke-width:0.00000000;stroke-miterlimit:4.0000000;stroke-dasharray:none;stroke-dashoffset:0.00000000;stroke-opacity:1.0000000"/>
    <path d="M 293.32359,762.59699 L 293.32359,713.71518 L 460.77091,713.71518 L 460.77091,762.59699" id="path3065" sodipodi:nodetypes="cccc" style="font-size:660.22443;font-style:italic;font-variant:normal;font-weight:bold;font-stretch:normal;line-height:100.00000%;writing-mode:lr-tb;text-anchor:start;opacity:0.73529410;fill:#ffffff;fill-opacity:1.0000000;stroke:none;stroke-width:1.0000000px;stroke-linecap:butt;stroke-linejoin:miter;stroke-opacity:1.0000000;font-family:Arial"/>
    <path d="M 297.64023,758.53076 L 297.64023,717.78140 L 456.45426,717.78140 L 456.45426,758.53076" id="path3067" sodipodi:nodetypes="cccc" style="font-size:550.38306;font-style:italic;font-variant:normal;font-weight:bold;font-stretch:normal;line-height:100.00000%;writing-mode:lr-tb;text-anchor:start;opacity:1.0000000;fill:#ffffff;fill-opacity:1.0000000;stroke:none;stroke-width:1.0000000px;stroke-linecap:butt;stroke-linejoin:miter;stroke-opacity:1.0000000;font-family:Arial"/>
    <path d="M 93.458578,1013.7491 L 97.648031,1013.7491 L 97.648031,1014.5792 L 94.444906,1014.5792 L 94.444906,1016.7276 L 97.335531,1016.7276 L 97.335531,1017.5577 L 94.444906,1017.5577 L 94.444906,1021.0391 L 93.458578,1021.0391 L 93.458578,1013.7491 M 101.62752,1016.4102 C 101.52661,1016.3516 101.41593,1016.3093 101.29549,1016.2833 C 101.17830,1016.2540 101.04809,1016.2393 100.90487,1016.2393 C 100.39705,1016.2393 100.00643,1016.4053 99.732992,1016.7374 C 99.462808,1017.0661 99.327717,1017.5398 99.327719,1018.1583 L 99.327719,1021.0391 L 98.424398,1021.0391 L 98.424398,1015.5704 L 99.327719,1015.5704 L 99.327719,1016.4200 C 99.516519,1016.0880 99.762287,1015.8422 100.06502,1015.6827 C 100.36776,1015.5199 100.73559,1015.4385 101.16854,1015.4385 C 101.23038,1015.4385 101.29874,1015.4434 101.37362,1015.4532 C 101.44848,1015.4597 101.53149,1015.4711 101.62264,1015.4874 L 101.62752,1016.4102 M 107.02303,1018.0801 L 107.02303,1018.5196 L 102.89217,1018.5196 C 102.93123,1019.1381 103.11678,1019.6101 103.44881,1019.9356 C 103.78410,1020.2579 104.24959,1020.4190 104.84530,1020.4190 C 105.19034,1020.4190 105.52400,1020.3767 105.84627,1020.2921 C 106.17179,1020.2074 106.49406,1020.0805 106.81307,1019.9112 L 106.81307,1020.7608 C 106.49080,1020.8975 106.16040,1021.0017 105.82186,1021.0733 C 105.48331,1021.1449 105.13989,1021.1807 104.79159,1021.1807 C 103.91919,1021.1807 103.22746,1020.9268 102.71639,1020.4190 C 102.20858,1019.9112 101.95467,1019.2243 101.95467,1018.3585 C 101.95467,1017.4633 102.19556,1016.7536 102.67733,1016.2296 C 103.16235,1015.7022 103.81502,1015.4385 104.63534,1015.4385 C 105.37101,1015.4385 105.95206,1015.6762 106.37850,1016.1514 C 106.80818,1016.6234 107.02303,1017.2663 107.02303,1018.0801 M 106.12459,1017.8165 C 106.11808,1017.3249 105.97973,1016.9327 105.70955,1016.6397 C 105.44262,1016.3467 105.08781,1016.2003 104.64510,1016.2003 C 104.14380,1016.2003 103.74178,1016.3419 103.43905,1016.6251 C 103.13957,1016.9083 102.96704,1017.3070 102.92147,1017.8214 L 106.12459,1017.8165 M 113.15584,1018.0801 L 113.15584,1018.5196 L 109.02498,1018.5196 C 109.06404,1019.1381 109.24959,1019.6101 109.58163,1019.9356 C 109.91691,1020.2579 110.38240,1020.4190 110.97811,1020.4190 C 111.32316,1020.4190 111.65682,1020.3767 111.97909,1020.2921 C 112.30460,1020.2074 112.62687,1020.0805 112.94588,1019.9112 L 112.94588,1020.7608 C 112.62361,1020.8975 112.29321,1021.0017 111.95467,1021.0733 C 111.61613,1021.1449 111.27270,1021.1807 110.92440,1021.1807 C 110.05200,1021.1807 109.36027,1020.9268 108.84920,1020.4190 C 108.34139,1019.9112 108.08748,1019.2243 108.08748,1018.3585 C 108.08748,1017.4633 108.32837,1016.7536 108.81014,1016.2296 C 109.29517,1015.7022 109.94783,1015.4385 110.76815,1015.4385 C 111.50382,1015.4385 112.08488,1015.6762 112.51131,1016.1514 C 112.94100,1016.6234 113.15584,1017.2663 113.15584,1018.0801 M 112.25741,1017.8165 C 112.25089,1017.3249 112.11255,1016.9327 111.84237,1016.6397 C 111.57544,1016.3467 111.22062,1016.2003 110.77791,1016.2003 C 110.27661,1016.2003 109.87459,1016.3419 109.57186,1016.6251 C 109.27238,1016.9083 109.09985,1017.3070 109.05428,1017.8214 L 112.25741,1017.8165 M 121.39315,1018.2413 C 121.39314,1017.5902 121.25805,1017.0857 120.98788,1016.7276 C 120.72094,1016.3695 120.34497,1016.1905 119.85995,1016.1905 C 119.37817,1016.1905 119.00220,1016.3695 118.73202,1016.7276 C 118.46509,1017.0857 118.33162,1017.5902 118.33163,1018.2413 C 118.33162,1018.8891 118.46509,1019.3920 118.73202,1019.7501 C 119.00220,1020.1081 119.37817,1020.2872 119.85995,1020.2872 C 120.34497,1020.2872 120.72094,1020.1081 120.98788,1019.7501 C 121.25805,1019.3920 121.39314,1018.8891 121.39315,1018.2413 M 122.29159,1020.3604 C 122.29158,1021.2914 122.08488,1021.9831 121.67147,1022.4356 C 121.25805,1022.8913 120.62492,1023.1192 119.77205,1023.1192 C 119.45630,1023.1192 119.15845,1023.0948 118.87850,1023.0460 C 118.59855,1023.0004 118.32674,1022.9288 118.06307,1022.8311 L 118.06307,1021.9571 C 118.32674,1022.1003 118.58716,1022.2061 118.84432,1022.2745 C 119.10148,1022.3428 119.36352,1022.3770 119.63045,1022.3770 C 120.21964,1022.3770 120.66072,1022.2224 120.95370,1021.9131 C 121.24666,1021.6072 121.39314,1021.1433 121.39315,1020.5215 L 121.39315,1020.0772 C 121.20760,1020.3995 120.96997,1020.6404 120.68026,1020.7999 C 120.39054,1020.9594 120.04386,1021.0391 119.64022,1021.0391 C 118.96964,1021.0391 118.42928,1020.7836 118.01913,1020.2725 C 117.60897,1019.7615 117.40389,1019.0844 117.40389,1018.2413 C 117.40389,1017.3949 117.60897,1016.7162 118.01913,1016.2051 C 118.42928,1015.6941 118.96964,1015.4385 119.64022,1015.4385 C 120.04386,1015.4385 120.39054,1015.5183 120.68026,1015.6778 C 120.96997,1015.8373 121.20760,1016.0782 121.39315,1016.4005 L 121.39315,1015.5704 L 122.29159,1015.5704 L 122.29159,1020.3604 M 127.31112,1016.4102 C 127.21020,1016.3516 127.09953,1016.3093 126.97909,1016.2833 C 126.86190,1016.2540 126.73169,1016.2393 126.58846,1016.2393 C 126.08065,1016.2393 125.69002,1016.4053 125.41659,1016.7374 C 125.14640,1017.0661 125.01131,1017.5398 125.01131,1018.1583 L 125.01131,1021.0391 L 124.10799,1021.0391 L 124.10799,1015.5704 L 125.01131,1015.5704 L 125.01131,1016.4200 C 125.20011,1016.0880 125.44588,1015.8422 125.74862,1015.6827 C 126.05135,1015.5199 126.41919,1015.4385 126.85213,1015.4385 C 126.91398,1015.4385 126.98234,1015.4434 127.05721,1015.4532 C 127.13208,1015.4597 127.21509,1015.4711 127.30623,1015.4874 L 127.31112,1016.4102 M 130.72909,1018.2901 C 130.00317,1018.2901 129.50024,1018.3731 129.22030,1018.5391 C 128.94035,1018.7051 128.80037,1018.9883 128.80038,1019.3887 C 128.80037,1019.7077 128.90454,1019.9617 129.11288,1020.1505 C 129.32446,1020.3360 129.61092,1020.4288 129.97225,1020.4288 C 130.47029,1020.4288 130.86906,1020.2530 131.16854,1019.9014 C 131.47127,1019.5466 131.62264,1019.0762 131.62264,1018.4903 L 131.62264,1018.2901 L 130.72909,1018.2901 M 132.52108,1017.9190 L 132.52108,1021.0391 L 131.62264,1021.0391 L 131.62264,1020.2090 C 131.41756,1020.5411 131.16203,1020.7868 130.85604,1020.9464 C 130.55005,1021.1026 130.17570,1021.1807 129.73299,1021.1807 C 129.17309,1021.1807 128.72713,1021.0245 128.39510,1020.7120 C 128.06633,1020.3962 127.90194,1019.9747 127.90194,1019.4473 C 127.90194,1018.8321 128.10702,1018.3682 128.51717,1018.0557 C 128.93058,1017.7432 129.54582,1017.5870 130.36288,1017.5870 L 131.62264,1017.5870 L 131.62264,1017.4991 C 131.62264,1017.0857 131.48592,1016.7667 131.21248,1016.5421 C 130.94230,1016.3142 130.56144,1016.2003 130.06991,1016.2003 C 129.75740,1016.2003 129.45304,1016.2377 129.15682,1016.3126 C 128.86060,1016.3874 128.57576,1016.4997 128.30233,1016.6495 L 128.30233,1015.8194 C 128.63110,1015.6924 128.95011,1015.5980 129.25936,1015.5362 C 129.56860,1015.4711 129.86971,1015.4385 130.16268,1015.4385 C 130.95369,1015.4385 131.54451,1015.6436 131.93514,1016.0538 C 132.32576,1016.4639 132.52107,1017.0857 132.52108,1017.9190 M 135.26522,1020.2188 L 135.26522,1023.1192 L 134.36190,1023.1192 L 134.36190,1015.5704 L 135.26522,1015.5704 L 135.26522,1016.4005 C 135.45402,1016.0749 135.69165,1015.8341 135.97811,1015.6778 C 136.26782,1015.5183 136.61287,1015.4385 137.01327,1015.4385 C 137.67732,1015.4385 138.21606,1015.7022 138.62948,1016.2296 C 139.04614,1016.7569 139.25447,1017.4503 139.25448,1018.3096 C 139.25447,1019.1690 139.04614,1019.8624 138.62948,1020.3897 C 138.21606,1020.9171 137.67732,1021.1807 137.01327,1021.1807 C 136.61287,1021.1807 136.26782,1021.1026 135.97811,1020.9464 C 135.69165,1020.7868 135.45402,1020.5443 135.26522,1020.2188 M 138.32186,1018.3096 C 138.32185,1017.6488 138.18514,1017.1312 137.91170,1016.7569 C 137.64152,1016.3793 137.26880,1016.1905 136.79354,1016.1905 C 136.31828,1016.1905 135.94393,1016.3793 135.67049,1016.7569 C 135.40031,1017.1312 135.26522,1017.6488 135.26522,1018.3096 C 135.26522,1018.9704 135.40031,1019.4896 135.67049,1019.8672 C 135.94393,1020.2416 136.31828,1020.4288 136.79354,1020.4288 C 137.26880,1020.4288 137.64152,1020.2416 137.91170,1019.8672 C 138.18514,1019.4896 138.32185,1018.9704 138.32186,1018.3096 M 145.28963,1017.7383 L 145.28963,1021.0391 L 144.39120,1021.0391 L 144.39120,1017.7676 C 144.39119,1017.2501 144.29028,1016.8627 144.08846,1016.6055 C 143.88663,1016.3484 143.58390,1016.2198 143.18026,1016.2198 C 142.69523,1016.2198 142.31274,1016.3744 142.03280,1016.6837 C 141.75285,1016.9929 141.61287,1017.4145 141.61288,1017.9483 L 141.61288,1021.0391 L 140.70955,1021.0391 L 140.70955,1013.4415 L 141.61288,1013.4415 L 141.61288,1016.4200 C 141.82772,1016.0912 142.08000,1015.8454 142.36971,1015.6827 C 142.66268,1015.5199 142.99959,1015.4385 143.38045,1015.4385 C 144.00870,1015.4385 144.48396,1015.6339 144.80623,1016.0245 C 145.12850,1016.4118 145.28963,1016.9831 145.28963,1017.7383 M 147.09139,1015.5704 L 147.98983,1015.5704 L 147.98983,1021.0391 L 147.09139,1021.0391 L 147.09139,1015.5704 M 147.09139,1013.4415 L 147.98983,1013.4415 L 147.98983,1014.5792 L 147.09139,1014.5792 L 147.09139,1013.4415 M 153.80038,1015.7803 L 153.80038,1016.6202 C 153.54646,1016.4802 153.29093,1016.3760 153.03377,1016.3077 C 152.77986,1016.2361 152.52270,1016.2003 152.26229,1016.2003 C 151.67960,1016.2003 151.22713,1016.3858 150.90487,1016.7569 C 150.58260,1017.1247 150.42147,1017.6423 150.42147,1018.3096 C 150.42147,1018.9770 150.58260,1019.4962 150.90487,1019.8672 C 151.22713,1020.2351 151.67960,1020.4190 152.26229,1020.4190 C 152.52270,1020.4190 152.77986,1020.3848 153.03377,1020.3165 C 153.29093,1020.2449 153.54646,1020.1391 153.80038,1019.9991 L 153.80038,1020.8292 C 153.54972,1020.9464 153.28930,1021.0342 153.01913,1021.0928 C 152.75219,1021.1514 152.46736,1021.1807 152.16463,1021.1807 C 151.34106,1021.1807 150.68677,1020.9219 150.20174,1020.4044 C 149.71671,1019.8868 149.47420,1019.1885 149.47420,1018.3096 C 149.47420,1017.4177 149.71834,1016.7162 150.20663,1016.2051 C 150.69816,1015.6941 151.37036,1015.4385 152.22323,1015.4385 C 152.49992,1015.4385 152.77010,1015.4678 153.03377,1015.5264 C 153.29744,1015.5818 153.55298,1015.6664 153.80038,1015.7803 M 158.85897,1015.7315 L 158.85897,1016.5811 C 158.60506,1016.4509 158.34139,1016.3533 158.06795,1016.2881 C 157.79451,1016.2230 157.51131,1016.1905 157.21834,1016.1905 C 156.77238,1016.1905 156.43709,1016.2589 156.21248,1016.3956 C 155.99113,1016.5323 155.88045,1016.7374 155.88045,1017.0108 C 155.88045,1017.2191 155.96020,1017.3835 156.11971,1017.5040 C 156.27921,1017.6212 156.59985,1017.7335 157.08163,1017.8409 L 157.38924,1017.9092 C 158.02726,1018.0460 158.47973,1018.2396 158.74666,1018.4903 C 159.01684,1018.7377 159.15193,1019.0844 159.15194,1019.5303 C 159.15193,1020.0381 158.95011,1020.4402 158.54647,1020.7364 C 158.14607,1021.0326 157.59432,1021.1807 156.89120,1021.1807 C 156.59822,1021.1807 156.29224,1021.1514 155.97323,1021.0928 C 155.65747,1021.0375 155.32381,1020.9529 154.97225,1020.8389 L 154.97225,1019.9112 C 155.30428,1020.0837 155.63143,1020.2139 155.95370,1020.3018 C 156.27596,1020.3865 156.59497,1020.4288 156.91073,1020.4288 C 157.33390,1020.4288 157.65942,1020.3572 157.88729,1020.2139 C 158.11515,1020.0674 158.22908,1019.8624 158.22909,1019.5987 C 158.22908,1019.3546 158.14607,1019.1674 157.98006,1019.0372 C 157.81730,1018.9070 157.45760,1018.7816 156.90096,1018.6612 L 156.58846,1018.5880 C 156.03182,1018.4708 155.62980,1018.2917 155.38241,1018.0508 C 155.13501,1017.8067 155.01131,1017.4730 155.01131,1017.0499 C 155.01131,1016.5355 155.19360,1016.1384 155.55819,1015.8585 C 155.92277,1015.5785 156.44035,1015.4385 157.11092,1015.4385 C 157.44295,1015.4385 157.75545,1015.4630 158.04842,1015.5118 C 158.34139,1015.5606 158.61157,1015.6339 158.85897,1015.7315 M 167.67733,1018.3096 C 167.67732,1017.6488 167.54061,1017.1312 167.26717,1016.7569 C 166.99699,1016.3793 166.62426,1016.1905 166.14901,1016.1905 C 165.67375,1016.1905 165.29940,1016.3793 165.02596,1016.7569 C 164.75578,1017.1312 164.62069,1017.6488 164.62069,1018.3096 C 164.62069,1018.9704 164.75578,1019.4896 165.02596,1019.8672 C 165.29940,1020.2416 165.67375,1020.4288 166.14901,1020.4288 C 166.62426,1020.4288 166.99699,1020.2416 167.26717,1019.8672 C 167.54061,1019.4896 167.67732,1018.9704 167.67733,1018.3096 M 164.62069,1016.4005 C 164.80949,1016.0749 165.04712,1015.8341 165.33358,1015.6778 C 165.62329,1015.5183 165.96834,1015.4385 166.36873,1015.4385 C 167.03279,1015.4385 167.57153,1015.7022 167.98495,1016.2296 C 168.40161,1016.7569 168.60994,1017.4503 168.60995,1018.3096 C 168.60994,1019.1690 168.40161,1019.8624 167.98495,1020.3897 C 167.57153,1020.9171 167.03279,1021.1807 166.36873,1021.1807 C 165.96834,1021.1807 165.62329,1021.1026 165.33358,1020.9464 C 165.04712,1020.7868 164.80949,1020.5443 164.62069,1020.2188 L 164.62069,1021.0391 L 163.71737,1021.0391 L 163.71737,1013.4415 L 164.62069,1013.4415 L 164.62069,1016.4005 M 172.37459,1021.5469 C 172.12068,1022.1980 171.87329,1022.6228 171.63241,1022.8214 C 171.39152,1023.0199 171.06925,1023.1192 170.66561,1023.1192 L 169.94784,1023.1192 L 169.94784,1022.3672 L 170.47518,1022.3672 C 170.72257,1022.3672 170.91463,1022.3087 171.05135,1022.1915 C 171.18807,1022.0743 171.33943,1021.7976 171.50545,1021.3614 L 171.66659,1020.9512 L 169.45467,1015.5704 L 170.40682,1015.5704 L 172.11580,1019.8477 L 173.82479,1015.5704 L 174.77694,1015.5704 L 172.37459,1021.5469 M 93.458578,1023.7491 L 94.444906,1023.7491 L 94.444906,1030.2090 L 97.994711,1030.2090 L 97.994711,1031.0391 L 93.458578,1031.0391 L 93.458578,1023.7491 M 98.736898,1028.8809 L 98.736898,1025.5704 L 99.635336,1025.5704 L 99.635336,1028.8467 C 99.635334,1029.3643 99.736246,1029.7533 99.938070,1030.0137 C 100.13989,1030.2709 100.44263,1030.3995 100.84627,1030.3995 C 101.33130,1030.3995 101.71378,1030.2449 101.99373,1029.9356 C 102.27693,1029.6264 102.41854,1029.2048 102.41854,1028.6710 L 102.41854,1025.5704 L 103.31698,1025.5704 L 103.31698,1031.0391 L 102.41854,1031.0391 L 102.41854,1030.1993 C 102.20044,1030.5313 101.94653,1030.7787 101.65682,1030.9415 C 101.37036,1031.1010 101.03670,1031.1807 100.65584,1031.1807 C 100.02759,1031.1807 99.550699,1030.9854 99.225180,1030.5948 C 98.899658,1030.2042 98.736898,1029.6329 98.736898,1028.8809 M 109.43514,1026.6202 C 109.65975,1026.2165 109.92830,1025.9187 110.24080,1025.7266 C 110.55330,1025.5346 110.92114,1025.4385 111.34432,1025.4385 C 111.91397,1025.4385 112.35343,1025.6387 112.66268,1026.0391 C 112.97192,1026.4363 113.12654,1027.0027 113.12655,1027.7383 L 113.12655,1031.0391 L 112.22323,1031.0391 L 112.22323,1027.7676 C 112.22322,1027.2436 112.13044,1026.8546 111.94491,1026.6006 C 111.75935,1026.3467 111.47615,1026.2198 111.09530,1026.2198 C 110.62980,1026.2198 110.26196,1026.3744 109.99178,1026.6837 C 109.72159,1026.9929 109.58650,1027.4145 109.58651,1027.9483 L 109.58651,1031.0391 L 108.68319,1031.0391 L 108.68319,1027.7676 C 108.68318,1027.2403 108.59041,1026.8513 108.40487,1026.6006 C 108.21932,1026.3467 107.93286,1026.2198 107.54549,1026.2198 C 107.08651,1026.2198 106.72192,1026.3760 106.45174,1026.6885 C 106.18156,1026.9978 106.04647,1027.4177 106.04647,1027.9483 L 106.04647,1031.0391 L 105.14315,1031.0391 L 105.14315,1025.5704 L 106.04647,1025.5704 L 106.04647,1026.4200 C 106.25154,1026.0847 106.49731,1025.8373 106.78377,1025.6778 C 107.07023,1025.5183 107.41040,1025.4385 107.80428,1025.4385 C 108.20141,1025.4385 108.53833,1025.5395 108.81502,1025.7413 C 109.09497,1025.9431 109.30167,1026.2361 109.43514,1026.6202 M 119.58163,1028.0801 L 119.58163,1028.5196 L 115.45077,1028.5196 C 115.48983,1029.1381 115.67537,1029.6101 116.00741,1029.9356 C 116.34269,1030.2579 116.80818,1030.4190 117.40389,1030.4190 C 117.74894,1030.4190 118.08260,1030.3767 118.40487,1030.2921 C 118.73038,1030.2074 119.05265,1030.0805 119.37166,1029.9112 L 119.37166,1030.7608 C 119.04939,1030.8975 118.71899,1031.0017 118.38045,1031.0733 C 118.04191,1031.1449 117.69848,1031.1807 117.35018,1031.1807 C 116.47778,1031.1807 115.78605,1030.9268 115.27498,1030.4190 C 114.76717,1029.9112 114.51327,1029.2243 114.51327,1028.3585 C 114.51327,1027.4633 114.75415,1026.7536 115.23592,1026.2296 C 115.72095,1025.7022 116.37362,1025.4385 117.19393,1025.4385 C 117.92960,1025.4385 118.51066,1025.6762 118.93709,1026.1514 C 119.36678,1026.6234 119.58162,1027.2663 119.58163,1028.0801 M 118.68319,1027.8165 C 118.67667,1027.3249 118.53833,1026.9327 118.26815,1026.6397 C 118.00122,1026.3467 117.64640,1026.2003 117.20370,1026.2003 C 116.70239,1026.2003 116.30037,1026.3419 115.99764,1026.6251 C 115.69816,1026.9083 115.52563,1027.3070 115.48006,1027.8214 L 118.68319,1027.8165 M 125.58260,1027.7383 L 125.58260,1031.0391 L 124.68416,1031.0391 L 124.68416,1027.7676 C 124.68416,1027.2501 124.58325,1026.8627 124.38143,1026.6055 C 124.17960,1026.3484 123.87687,1026.2198 123.47323,1026.2198 C 122.98820,1026.2198 122.60571,1026.3744 122.32577,1026.6837 C 122.04582,1026.9929 121.90584,1027.4145 121.90584,1027.9483 L 121.90584,1031.0391 L 121.00252,1031.0391 L 121.00252,1025.5704 L 121.90584,1025.5704 L 121.90584,1026.4200 C 122.12068,1026.0912 122.37296,1025.8454 122.66268,1025.6827 C 122.95565,1025.5199 123.29256,1025.4385 123.67342,1025.4385 C 124.30167,1025.4385 124.77693,1025.6339 125.09920,1026.0245 C 125.42146,1026.4118 125.58260,1026.9831 125.58260,1027.7383 M 131.59334,1024.5596 L 131.59334,1030.2286 L 132.78475,1030.2286 C 133.79061,1030.2286 134.52628,1030.0007 134.99178,1029.5450 C 135.46053,1029.0893 135.69490,1028.3699 135.69491,1027.3868 C 135.69490,1026.4102 135.46053,1025.6957 134.99178,1025.2432 C 134.52628,1024.7875 133.79061,1024.5596 132.78475,1024.5596 L 131.59334,1024.5596 M 130.60702,1023.7491 L 132.63338,1023.7491 C 134.04614,1023.7491 135.08292,1024.0437 135.74373,1024.6329 C 136.40454,1025.2188 136.73494,1026.1368 136.73495,1027.3868 C 136.73494,1028.6433 136.40291,1029.5661 135.73885,1030.1553 C 135.07478,1030.7445 134.03963,1031.0391 132.63338,1031.0391 L 130.60702,1031.0391 L 130.60702,1023.7491 M 142.94100,1028.0801 L 142.94100,1028.5196 L 138.81014,1028.5196 C 138.84920,1029.1381 139.03475,1029.6101 139.36678,1029.9356 C 139.70207,1030.2579 140.16756,1030.4190 140.76327,1030.4190 C 141.10831,1030.4190 141.44197,1030.3767 141.76424,1030.2921 C 142.08976,1030.2074 142.41202,1030.0805 142.73104,1029.9112 L 142.73104,1030.7608 C 142.40877,1030.8975 142.07837,1031.0017 141.73983,1031.0733 C 141.40128,1031.1449 141.05786,1031.1807 140.70955,1031.1807 C 139.83716,1031.1807 139.14543,1030.9268 138.63436,1030.4190 C 138.12655,1029.9112 137.87264,1029.2243 137.87264,1028.3585 C 137.87264,1027.4633 138.11353,1026.7536 138.59530,1026.2296 C 139.08032,1025.7022 139.73299,1025.4385 140.55330,1025.4385 C 141.28898,1025.4385 141.87003,1025.6762 142.29647,1026.1514 C 142.72615,1026.6234 142.94099,1027.2663 142.94100,1028.0801 M 142.04256,1027.8165 C 142.03605,1027.3249 141.89770,1026.9327 141.62752,1026.6397 C 141.36059,1026.3467 141.00578,1026.2003 140.56307,1026.2003 C 140.06176,1026.2003 139.65975,1026.3419 139.35702,1026.6251 C 139.05754,1026.9083 138.88501,1027.3070 138.83944,1027.8214 L 142.04256,1027.8165 M 147.88241,1025.7315 L 147.88241,1026.5811 C 147.62850,1026.4509 147.36482,1026.3533 147.09139,1026.2881 C 146.81795,1026.2230 146.53475,1026.1905 146.24178,1026.1905 C 145.79582,1026.1905 145.46053,1026.2589 145.23592,1026.3956 C 145.01457,1026.5323 144.90389,1026.7374 144.90389,1027.0108 C 144.90389,1027.2191 144.98364,1027.3835 145.14315,1027.5040 C 145.30265,1027.6212 145.62329,1027.7335 146.10506,1027.8409 L 146.41268,1027.9092 C 147.05070,1028.0460 147.50317,1028.2396 147.77010,1028.4903 C 148.04028,1028.7377 148.17537,1029.0844 148.17538,1029.5303 C 148.17537,1030.0381 147.97355,1030.4402 147.56991,1030.7364 C 147.16951,1031.0326 146.61776,1031.1807 145.91463,1031.1807 C 145.62166,1031.1807 145.31567,1031.1514 144.99666,1031.0928 C 144.68091,1031.0375 144.34725,1030.9529 143.99569,1030.8389 L 143.99569,1029.9112 C 144.32772,1030.0837 144.65487,1030.2139 144.97713,1030.3018 C 145.29940,1030.3865 145.61841,1030.4288 145.93416,1030.4288 C 146.35734,1030.4288 146.68286,1030.3572 146.91073,1030.2139 C 147.13859,1030.0674 147.25252,1029.8624 147.25252,1029.5987 C 147.25252,1029.3546 147.16951,1029.1674 147.00350,1029.0372 C 146.84074,1028.9070 146.48104,1028.7816 145.92440,1028.6612 L 145.61190,1028.5880 C 145.05526,1028.4708 144.65324,1028.2917 144.40584,1028.0508 C 144.15845,1027.8067 144.03475,1027.4730 144.03475,1027.0499 C 144.03475,1026.5355 144.21704,1026.1384 144.58163,1025.8585 C 144.94621,1025.5785 145.46378,1025.4385 146.13436,1025.4385 C 146.46639,1025.4385 146.77889,1025.4630 147.07186,1025.5118 C 147.36482,1025.5606 147.63501,1025.6339 147.88241,1025.7315 M 149.59139,1025.5704 L 150.48983,1025.5704 L 150.48983,1031.0391 L 149.59139,1031.0391 L 149.59139,1025.5704 M 149.59139,1023.4415 L 150.48983,1023.4415 L 150.48983,1024.5792 L 149.59139,1024.5792 L 149.59139,1023.4415 M 155.96346,1028.2413 C 155.96346,1027.5902 155.82837,1027.0857 155.55819,1026.7276 C 155.29126,1026.3695 154.91528,1026.1905 154.43026,1026.1905 C 153.94848,1026.1905 153.57251,1026.3695 153.30233,1026.7276 C 153.03540,1027.0857 152.90194,1027.5902 152.90194,1028.2413 C 152.90194,1028.8891 153.03540,1029.3920 153.30233,1029.7501 C 153.57251,1030.1081 153.94848,1030.2872 154.43026,1030.2872 C 154.91528,1030.2872 155.29126,1030.1081 155.55819,1029.7501 C 155.82837,1029.3920 155.96346,1028.8891 155.96346,1028.2413 M 156.86190,1030.3604 C 156.86189,1031.2914 156.65519,1031.9831 156.24178,1032.4356 C 155.82837,1032.8913 155.19523,1033.1192 154.34237,1033.1192 C 154.02661,1033.1192 153.72876,1033.0948 153.44881,1033.0460 C 153.16886,1033.0004 152.89705,1032.9288 152.63338,1032.8311 L 152.63338,1031.9571 C 152.89705,1032.1003 153.15747,1032.2061 153.41463,1032.2745 C 153.67179,1032.3428 153.93384,1032.3770 154.20077,1032.3770 C 154.78996,1032.3770 155.23104,1032.2224 155.52401,1031.9131 C 155.81697,1031.6072 155.96346,1031.1433 155.96346,1030.5215 L 155.96346,1030.0772 C 155.77791,1030.3995 155.54028,1030.6404 155.25057,1030.7999 C 154.96085,1030.9594 154.61417,1031.0391 154.21053,1031.0391 C 153.53996,1031.0391 152.99959,1030.7836 152.58944,1030.2725 C 152.17928,1029.7615 151.97420,1029.0844 151.97420,1028.2413 C 151.97420,1027.3949 152.17928,1026.7162 152.58944,1026.2051 C 152.99959,1025.6941 153.53996,1025.4385 154.21053,1025.4385 C 154.61417,1025.4385 154.96085,1025.5183 155.25057,1025.6778 C 155.54028,1025.8373 155.77791,1026.0782 155.96346,1026.4005 L 155.96346,1025.5704 L 156.86190,1025.5704 L 156.86190,1030.3604 M 163.25838,1027.7383 L 163.25838,1031.0391 L 162.35995,1031.0391 L 162.35995,1027.7676 C 162.35994,1027.2501 162.25903,1026.8627 162.05721,1026.6055 C 161.85538,1026.3484 161.55265,1026.2198 161.14901,1026.2198 C 160.66398,1026.2198 160.28149,1026.3744 160.00155,1026.6837 C 159.72160,1026.9929 159.58162,1027.4145 159.58163,1027.9483 L 159.58163,1031.0391 L 158.67830,1031.0391 L 158.67830,1025.5704 L 159.58163,1025.5704 L 159.58163,1026.4200 C 159.79647,1026.0912 160.04875,1025.8454 160.33846,1025.6827 C 160.63143,1025.5199 160.96834,1025.4385 161.34920,1025.4385 C 161.97745,1025.4385 162.45271,1025.6339 162.77498,1026.0245 C 163.09725,1026.4118 163.25838,1026.9831 163.25838,1027.7383 M 172.65291,1023.9883 L 172.65291,1024.9503 C 172.27856,1024.7712 171.92537,1024.6378 171.59334,1024.5499 C 171.26131,1024.4620 170.94067,1024.4180 170.63143,1024.4180 C 170.09432,1024.4180 169.67928,1024.5222 169.38631,1024.7305 C 169.09660,1024.9389 168.95174,1025.2351 168.95174,1025.6192 C 168.95174,1025.9415 169.04777,1026.1856 169.23983,1026.3516 C 169.43514,1026.5144 169.80298,1026.6462 170.34334,1026.7471 L 170.93905,1026.8692 C 171.67472,1027.0092 172.21671,1027.2566 172.56502,1027.6114 C 172.91658,1027.9630 173.09236,1028.4350 173.09237,1029.0274 C 173.09236,1029.7338 172.85473,1030.2693 172.37948,1030.6339 C 171.90747,1030.9984 171.21411,1031.1807 170.29940,1031.1807 C 169.95434,1031.1807 169.58651,1031.1417 169.19588,1031.0635 C 168.80851,1030.9854 168.40649,1030.8699 167.98983,1030.7169 L 167.98983,1029.7012 C 168.39022,1029.9258 168.78247,1030.0951 169.16659,1030.2090 C 169.55070,1030.3230 169.92830,1030.3799 170.29940,1030.3799 C 170.86255,1030.3799 171.29712,1030.2693 171.60311,1030.0479 C 171.90909,1029.8266 172.06209,1029.5108 172.06209,1029.1006 C 172.06209,1028.7426 171.95141,1028.4626 171.73006,1028.2608 C 171.51196,1028.0590 171.15226,1027.9076 170.65096,1027.8067 L 170.05038,1027.6895 C 169.31470,1027.5430 168.78247,1027.3135 168.45370,1027.0010 C 168.12492,1026.6885 167.96053,1026.2540 167.96053,1025.6973 C 167.96053,1025.0528 168.18677,1024.5450 168.63924,1024.1739 C 169.09497,1023.8028 169.72160,1023.6173 170.51913,1023.6172 C 170.86092,1023.6173 171.20923,1023.6482 171.56405,1023.7100 C 171.91886,1023.7719 172.28181,1023.8647 172.65291,1023.9883 M 175.49959,1024.0176 L 175.49959,1025.5704 L 177.35018,1025.5704 L 177.35018,1026.2686 L 175.49959,1026.2686 L 175.49959,1029.2374 C 175.49959,1029.6833 175.55981,1029.9698 175.68026,1030.0967 C 175.80395,1030.2237 176.05298,1030.2872 176.42733,1030.2872 L 177.35018,1030.2872 L 177.35018,1031.0391 L 176.42733,1031.0391 C 175.73397,1031.0391 175.25545,1030.9105 174.99178,1030.6534 C 174.72811,1030.3930 174.59627,1029.9210 174.59627,1029.2374 L 174.59627,1026.2686 L 173.93709,1026.2686 L 173.93709,1025.5704 L 174.59627,1025.5704 L 174.59627,1024.0176 L 175.49959,1024.0176 M 178.44393,1028.8809 L 178.44393,1025.5704 L 179.34237,1025.5704 L 179.34237,1028.8467 C 179.34237,1029.3643 179.44328,1029.7533 179.64510,1030.0137 C 179.84692,1030.2709 180.14966,1030.3995 180.55330,1030.3995 C 181.03833,1030.3995 181.42081,1030.2449 181.70077,1029.9356 C 181.98396,1029.6264 182.12557,1029.2048 182.12557,1028.6710 L 182.12557,1025.5704 L 183.02401,1025.5704 L 183.02401,1031.0391 L 182.12557,1031.0391 L 182.12557,1030.1993 C 181.90747,1030.5313 181.65356,1030.7787 181.36385,1030.9415 C 181.07739,1031.1010 180.74373,1031.1807 180.36287,1031.1807 C 179.73462,1031.1807 179.25773,1030.9854 178.93221,1030.5948 C 178.60669,1030.2042 178.44393,1029.6329 178.44393,1028.8809 M 188.48299,1026.4005 L 188.48299,1023.4415 L 189.38143,1023.4415 L 189.38143,1031.0391 L 188.48299,1031.0391 L 188.48299,1030.2188 C 188.29419,1030.5443 188.05493,1030.7868 187.76522,1030.9464 C 187.47876,1031.1026 187.13371,1031.1807 186.73006,1031.1807 C 186.06925,1031.1807 185.53052,1030.9171 185.11385,1030.3897 C 184.70044,1029.8624 184.49373,1029.1690 184.49373,1028.3096 C 184.49373,1027.4503 184.70044,1026.7569 185.11385,1026.2296 C 185.53052,1025.7022 186.06925,1025.4385 186.73006,1025.4385 C 187.13371,1025.4385 187.47876,1025.5183 187.76522,1025.6778 C 188.05493,1025.8341 188.29419,1026.0749 188.48299,1026.4005 M 185.42147,1028.3096 C 185.42147,1028.9704 185.55656,1029.4896 185.82674,1029.8672 C 186.10018,1030.2416 186.47453,1030.4288 186.94979,1030.4288 C 187.42505,1030.4288 187.79939,1030.2416 188.07284,1029.8672 C 188.34627,1029.4896 188.48299,1028.9704 188.48299,1028.3096 C 188.48299,1027.6488 188.34627,1027.1312 188.07284,1026.7569 C 187.79939,1026.3793 187.42505,1026.1905 186.94979,1026.1905 C 186.47453,1026.1905 186.10018,1026.3793 185.82674,1026.7569 C 185.55656,1027.1312 185.42147,1027.6488 185.42147,1028.3096 M 191.23202,1025.5704 L 192.13045,1025.5704 L 192.13045,1031.0391 L 191.23202,1031.0391 L 191.23202,1025.5704 M 191.23202,1023.4415 L 192.13045,1023.4415 L 192.13045,1024.5792 L 191.23202,1024.5792 L 191.23202,1023.4415 M 196.12459,1026.2003 C 195.64282,1026.2003 195.26196,1026.3891 194.98202,1026.7667 C 194.70207,1027.1410 194.56209,1027.6553 194.56209,1028.3096 C 194.56209,1028.9639 194.70044,1029.4799 194.97713,1029.8575 C 195.25708,1030.2318 195.63957,1030.4190 196.12459,1030.4190 C 196.60311,1030.4190 196.98234,1030.2302 197.26229,1029.8526 C 197.54223,1029.4750 197.68221,1028.9607 197.68221,1028.3096 C 197.68221,1027.6618 197.54223,1027.1492 197.26229,1026.7715 C 196.98234,1026.3907 196.60311,1026.2003 196.12459,1026.2003 M 196.12459,1025.4385 C 196.90584,1025.4385 197.51945,1025.6924 197.96541,1026.2003 C 198.41137,1026.7081 198.63435,1027.4112 198.63436,1028.3096 C 198.63435,1029.2048 198.41137,1029.9079 197.96541,1030.4190 C 197.51945,1030.9268 196.90584,1031.1807 196.12459,1031.1807 C 195.34009,1031.1807 194.72485,1030.9268 194.27889,1030.4190 C 193.83618,1029.9079 193.61483,1029.2048 193.61483,1028.3096 C 193.61483,1027.4112 193.83618,1026.7081 194.27889,1026.2003 C 194.72485,1025.6924 195.34009,1025.4385 196.12459,1025.4385 M 92.897055,1035.5704 L 93.795492,1035.5704 L 94.918539,1039.8380 L 96.036703,1035.5704 L 97.096273,1035.5704 L 98.219320,1039.8380 L 99.337484,1035.5704 L 100.23592,1035.5704 L 98.805258,1041.0391 L 97.745687,1041.0391 L 96.568930,1036.5567 L 95.387289,1041.0391 L 94.327719,1041.0391 L 92.897055,1035.5704 M 101.08065,1035.5704 L 101.97909,1035.5704 L 103.10213,1039.8380 L 104.22030,1035.5704 L 105.27987,1035.5704 L 106.40291,1039.8380 L 107.52108,1035.5704 L 108.41952,1035.5704 L 106.98885,1041.0391 L 105.92928,1041.0391 L 104.75252,1036.5567 L 103.57088,1041.0391 L 102.51131,1041.0391 L 101.08065,1035.5704 M 109.26424,1035.5704 L 110.16268,1035.5704 L 111.28573,1039.8380 L 112.40389,1035.5704 L 113.46346,1035.5704 L 114.58651,1039.8380 L 115.70467,1035.5704 L 116.60311,1035.5704 L 115.17245,1041.0391 L 114.11288,1041.0391 L 112.93612,1036.5567 L 111.75448,1041.0391 L 110.69491,1041.0391 L 109.26424,1035.5704 M 117.17928,1039.7989 L 118.20955,1039.7989 L 118.20955,1041.0391 L 117.17928,1041.0391 L 117.17928,1039.7989 M 120.23592,1033.4415 L 121.13436,1033.4415 L 121.13436,1041.0391 L 120.23592,1041.0391 L 120.23592,1033.4415 M 122.91659,1038.8809 L 122.91659,1035.5704 L 123.81502,1035.5704 L 123.81502,1038.8467 C 123.81502,1039.3643 123.91593,1039.7533 124.11776,1040.0137 C 124.31958,1040.2709 124.62231,1040.3995 125.02596,1040.3995 C 125.51098,1040.3995 125.89347,1040.2449 126.17342,1039.9356 C 126.45662,1039.6264 126.59822,1039.2048 126.59823,1038.6710 L 126.59823,1035.5704 L 127.49666,1035.5704 L 127.49666,1041.0391 L 126.59823,1041.0391 L 126.59823,1040.1993 C 126.38012,1040.5313 126.12622,1040.7787 125.83651,1040.9415 C 125.55005,1041.1010 125.21639,1041.1807 124.83553,1041.1807 C 124.20727,1041.1807 123.73039,1040.9854 123.40487,1040.5948 C 123.07935,1040.2042 122.91659,1039.6329 122.91659,1038.8809 M 133.61483,1036.6202 C 133.83943,1036.2165 134.10799,1035.9187 134.42049,1035.7266 C 134.73299,1035.5346 135.10082,1035.4385 135.52401,1035.4385 C 136.09366,1035.4385 136.53311,1035.6387 136.84237,1036.0391 C 137.15160,1036.4363 137.30623,1037.0027 137.30623,1037.7383 L 137.30623,1041.0391 L 136.40291,1041.0391 L 136.40291,1037.7676 C 136.40291,1037.2436 136.31013,1036.8546 136.12459,1036.6006 C 135.93904,1036.3467 135.65584,1036.2198 135.27498,1036.2198 C 134.80948,1036.2198 134.44164,1036.3744 134.17147,1036.6837 C 133.90128,1036.9929 133.76619,1037.4145 133.76620,1037.9483 L 133.76620,1041.0391 L 132.86288,1041.0391 L 132.86288,1037.7676 C 132.86287,1037.2403 132.77010,1036.8513 132.58455,1036.6006 C 132.39900,1036.3467 132.11255,1036.2198 131.72518,1036.2198 C 131.26619,1036.2198 130.90161,1036.3760 130.63143,1036.6885 C 130.36125,1036.9978 130.22615,1037.4177 130.22616,1037.9483 L 130.22616,1041.0391 L 129.32284,1041.0391 L 129.32284,1035.5704 L 130.22616,1035.5704 L 130.22616,1036.4200 C 130.43123,1036.0847 130.67700,1035.8373 130.96346,1035.6778 C 131.24992,1035.5183 131.59009,1035.4385 131.98397,1035.4385 C 132.38110,1035.4385 132.71801,1035.5395 132.99471,1035.7413 C 133.27465,1035.9431 133.48136,1036.2361 133.61483,1036.6202 M 143.76131,1038.0801 L 143.76131,1038.5196 L 139.63045,1038.5196 C 139.66951,1039.1381 139.85506,1039.6101 140.18709,1039.9356 C 140.52238,1040.2579 140.98787,1040.4190 141.58358,1040.4190 C 141.92863,1040.4190 142.26229,1040.3767 142.58455,1040.2921 C 142.91007,1040.2074 143.23234,1040.0805 143.55135,1039.9112 L 143.55135,1040.7608 C 143.22908,1040.8975 142.89868,1041.0017 142.56014,1041.0733 C 142.22159,1041.1449 141.87817,1041.1807 141.52987,1041.1807 C 140.65747,1041.1807 139.96574,1040.9268 139.45467,1040.4190 C 138.94686,1039.9112 138.69295,1039.2243 138.69295,1038.3585 C 138.69295,1037.4633 138.93384,1036.7536 139.41561,1036.2296 C 139.90063,1035.7022 140.55330,1035.4385 141.37362,1035.4385 C 142.10929,1035.4385 142.69034,1035.6762 143.11678,1036.1514 C 143.54646,1036.6234 143.76131,1037.2663 143.76131,1038.0801 M 142.86288,1037.8165 C 142.85636,1037.3249 142.71801,1036.9327 142.44784,1036.6397 C 142.18091,1036.3467 141.82609,1036.2003 141.38338,1036.2003 C 140.88208,1036.2003 140.48006,1036.3419 140.17733,1036.6251 C 139.87785,1036.9083 139.70532,1037.3070 139.65975,1037.8214 L 142.86288,1037.8165 M 149.76229,1037.7383 L 149.76229,1041.0391 L 148.86385,1041.0391 L 148.86385,1037.7676 C 148.86385,1037.2501 148.76294,1036.8627 148.56112,1036.6055 C 148.35929,1036.3484 148.05656,1036.2198 147.65291,1036.2198 C 147.16789,1036.2198 146.78540,1036.3744 146.50545,1036.6837 C 146.22550,1036.9929 146.08553,1037.4145 146.08553,1037.9483 L 146.08553,1041.0391 L 145.18221,1041.0391 L 145.18221,1035.5704 L 146.08553,1035.5704 L 146.08553,1036.4200 C 146.30037,1036.0912 146.55265,1035.8454 146.84237,1035.6827 C 147.13533,1035.5199 147.47225,1035.4385 147.85311,1035.4385 C 148.48136,1035.4385 148.95662,1035.6339 149.27889,1036.0245 C 149.60115,1036.4118 149.76228,1036.9831 149.76229,1037.7383 M 155.05038,1035.7315 L 155.05038,1036.5811 C 154.79647,1036.4509 154.53279,1036.3533 154.25936,1036.2881 C 153.98592,1036.2230 153.70272,1036.1905 153.40975,1036.1905 C 152.96378,1036.1905 152.62850,1036.2589 152.40389,1036.3956 C 152.18254,1036.5323 152.07186,1036.7374 152.07186,1037.0108 C 152.07186,1037.2191 152.15161,1037.3835 152.31112,1037.5040 C 152.47062,1037.6212 152.79126,1037.7335 153.27303,1037.8409 L 153.58065,1037.9092 C 154.21867,1038.0460 154.67114,1038.2396 154.93807,1038.4903 C 155.20825,1038.7377 155.34334,1039.0844 155.34334,1039.5303 C 155.34334,1040.0381 155.14152,1040.4402 154.73788,1040.7364 C 154.33748,1041.0326 153.78572,1041.1807 153.08260,1041.1807 C 152.78963,1041.1807 152.48364,1041.1514 152.16463,1041.0928 C 151.84888,1041.0375 151.51522,1040.9529 151.16366,1040.8389 L 151.16366,1039.9112 C 151.49569,1040.0837 151.82284,1040.2139 152.14510,1040.3018 C 152.46737,1040.3865 152.78638,1040.4288 153.10213,1040.4288 C 153.52531,1040.4288 153.85083,1040.3572 154.07870,1040.2139 C 154.30656,1040.0674 154.42049,1039.8624 154.42049,1039.5987 C 154.42049,1039.3546 154.33748,1039.1674 154.17147,1039.0372 C 154.00871,1038.9070 153.64901,1038.7816 153.09237,1038.6612 L 152.77987,1038.5880 C 152.22323,1038.4708 151.82121,1038.2917 151.57381,1038.0508 C 151.32642,1037.8067 151.20272,1037.4730 151.20272,1037.0499 C 151.20272,1036.5355 151.38501,1036.1384 151.74959,1035.8585 C 152.11418,1035.5785 152.63175,1035.4385 153.30233,1035.4385 C 153.63436,1035.4385 153.94686,1035.4630 154.23983,1035.5118 C 154.53279,1035.5606 154.80298,1035.6339 155.05038,1035.7315 M 157.64803,1034.0176 L 157.64803,1035.5704 L 159.49862,1035.5704 L 159.49862,1036.2686 L 157.64803,1036.2686 L 157.64803,1039.2374 C 157.64803,1039.6833 157.70825,1039.9698 157.82870,1040.0967 C 157.95239,1040.2237 158.20141,1040.2872 158.57577,1040.2872 L 159.49862,1040.2872 L 159.49862,1041.0391 L 158.57577,1041.0391 C 157.88240,1041.0391 157.40389,1040.9105 157.14022,1040.6534 C 156.87655,1040.3930 156.74471,1039.9210 156.74471,1039.2374 L 156.74471,1036.2686 L 156.08553,1036.2686 L 156.08553,1035.5704 L 156.74471,1035.5704 L 156.74471,1034.0176 L 157.64803,1034.0176 M 160.59237,1038.8809 L 160.59237,1035.5704 L 161.49080,1035.5704 L 161.49080,1038.8467 C 161.49080,1039.3643 161.59171,1039.7533 161.79354,1040.0137 C 161.99536,1040.2709 162.29809,1040.3995 162.70174,1040.3995 C 163.18676,1040.3995 163.56925,1040.2449 163.84920,1039.9356 C 164.13240,1039.6264 164.27400,1039.2048 164.27401,1038.6710 L 164.27401,1035.5704 L 165.17245,1035.5704 L 165.17245,1041.0391 L 164.27401,1041.0391 L 164.27401,1040.1993 C 164.05591,1040.5313 163.80200,1040.7787 163.51229,1040.9415 C 163.22583,1041.1010 162.89217,1041.1807 162.51131,1041.1807 C 161.88306,1041.1807 161.40617,1040.9854 161.08065,1040.5948 C 160.75513,1040.2042 160.59237,1039.6329 160.59237,1038.8809 M 170.63143,1036.4005 L 170.63143,1033.4415 L 171.52987,1033.4415 L 171.52987,1041.0391 L 170.63143,1041.0391 L 170.63143,1040.2188 C 170.44262,1040.5443 170.20337,1040.7868 169.91366,1040.9464 C 169.62719,1041.1026 169.28214,1041.1807 168.87850,1041.1807 C 168.21769,1041.1807 167.67895,1040.9171 167.26229,1040.3897 C 166.84888,1039.8624 166.64217,1039.1690 166.64217,1038.3096 C 166.64217,1037.4503 166.84888,1036.7569 167.26229,1036.2296 C 167.67895,1035.7022 168.21769,1035.4385 168.87850,1035.4385 C 169.28214,1035.4385 169.62719,1035.5183 169.91366,1035.6778 C 170.20337,1035.8341 170.44262,1036.0749 170.63143,1036.4005 M 167.56991,1038.3096 C 167.56991,1038.9704 167.70500,1039.4896 167.97518,1039.8672 C 168.24862,1040.2416 168.62296,1040.4288 169.09823,1040.4288 C 169.57348,1040.4288 169.94783,1040.2416 170.22127,1039.8672 C 170.49471,1039.4896 170.63142,1038.9704 170.63143,1038.3096 C 170.63142,1037.6488 170.49471,1037.1312 170.22127,1036.7569 C 169.94783,1036.3793 169.57348,1036.1905 169.09823,1036.1905 C 168.62296,1036.1905 168.24862,1036.3793 167.97518,1036.7569 C 167.70500,1037.1312 167.56991,1037.6488 167.56991,1038.3096 M 173.38045,1035.5704 L 174.27889,1035.5704 L 174.27889,1041.0391 L 173.38045,1041.0391 L 173.38045,1035.5704 M 173.38045,1033.4415 L 174.27889,1033.4415 L 174.27889,1034.5792 L 173.38045,1034.5792 L 173.38045,1033.4415 M 178.27303,1036.2003 C 177.79126,1036.2003 177.41040,1036.3891 177.13045,1036.7667 C 176.85050,1037.1410 176.71053,1037.6553 176.71053,1038.3096 C 176.71053,1038.9639 176.84888,1039.4799 177.12557,1039.8575 C 177.40552,1040.2318 177.78800,1040.4190 178.27303,1040.4190 C 178.75154,1040.4190 179.13078,1040.2302 179.41073,1039.8526 C 179.69067,1039.4750 179.83064,1038.9607 179.83065,1038.3096 C 179.83064,1037.6618 179.69067,1037.1492 179.41073,1036.7715 C 179.13078,1036.3907 178.75154,1036.2003 178.27303,1036.2003 M 178.27303,1035.4385 C 179.05428,1035.4385 179.66788,1035.6924 180.11385,1036.2003 C 180.55981,1036.7081 180.78279,1037.4112 180.78280,1038.3096 C 180.78279,1039.2048 180.55981,1039.9079 180.11385,1040.4190 C 179.66788,1040.9268 179.05428,1041.1807 178.27303,1041.1807 C 177.48852,1041.1807 176.87329,1040.9268 176.42733,1040.4190 C 175.98462,1039.9079 175.76327,1039.2048 175.76327,1038.3096 C 175.76327,1037.4112 175.98462,1036.7081 176.42733,1036.2003 C 176.87329,1035.6924 177.48852,1035.4385 178.27303,1035.4385 M 182.21834,1039.7989 L 183.24862,1039.7989 L 183.24862,1041.0391 L 182.21834,1041.0391 L 182.21834,1039.7989 M 189.82088,1037.7383 L 189.82088,1041.0391 L 188.92245,1041.0391 L 188.92245,1037.7676 C 188.92244,1037.2501 188.82153,1036.8627 188.61971,1036.6055 C 188.41788,1036.3484 188.11515,1036.2198 187.71151,1036.2198 C 187.22648,1036.2198 186.84399,1036.3744 186.56405,1036.6837 C 186.28410,1036.9929 186.14412,1037.4145 186.14412,1037.9483 L 186.14412,1041.0391 L 185.24080,1041.0391 L 185.24080,1035.5704 L 186.14412,1035.5704 L 186.14412,1036.4200 C 186.35897,1036.0912 186.61125,1035.8454 186.90096,1035.6827 C 187.19393,1035.5199 187.53084,1035.4385 187.91170,1035.4385 C 188.53995,1035.4385 189.01521,1035.6339 189.33748,1036.0245 C 189.65974,1036.4118 189.82088,1036.9831 189.82088,1037.7383 M 196.30037,1038.0801 L 196.30037,1038.5196 L 192.16952,1038.5196 C 192.20858,1039.1381 192.39412,1039.6101 192.72616,1039.9356 C 193.06144,1040.2579 193.52693,1040.4190 194.12264,1040.4190 C 194.46769,1040.4190 194.80135,1040.3767 195.12362,1040.2921 C 195.44913,1040.2074 195.77140,1040.0805 196.09041,1039.9112 L 196.09041,1040.7608 C 195.76814,1040.8975 195.43774,1041.0017 195.09920,1041.0733 C 194.76066,1041.1449 194.41723,1041.1807 194.06893,1041.1807 C 193.19653,1041.1807 192.50480,1040.9268 191.99373,1040.4190 C 191.48592,1039.9112 191.23202,1039.2243 191.23202,1038.3585 C 191.23202,1037.4633 191.47290,1036.7536 191.95467,1036.2296 C 192.43970,1035.7022 193.09236,1035.4385 193.91268,1035.4385 C 194.64835,1035.4385 195.22941,1035.6762 195.65584,1036.1514 C 196.08553,1036.6234 196.30037,1037.2663 196.30037,1038.0801 M 195.40194,1037.8165 C 195.39542,1037.3249 195.25708,1036.9327 194.98690,1036.6397 C 194.71997,1036.3467 194.36515,1036.2003 193.92245,1036.2003 C 193.42114,1036.2003 193.01912,1036.3419 192.71639,1036.6251 C 192.41691,1036.9083 192.24438,1037.3070 192.19881,1037.8214 L 195.40194,1037.8165 M 198.64412,1034.0176 L 198.64412,1035.5704 L 200.49471,1035.5704 L 200.49471,1036.2686 L 198.64412,1036.2686 L 198.64412,1039.2374 C 198.64412,1039.6833 198.70434,1039.9698 198.82479,1040.0967 C 198.94848,1040.2237 199.19751,1040.2872 199.57186,1040.2872 L 200.49471,1040.2872 L 200.49471,1041.0391 L 199.57186,1041.0391 C 198.87850,1041.0391 198.39998,1040.9105 198.13631,1040.6534 C 197.87264,1040.3930 197.74080,1039.9210 197.74080,1039.2374 L 197.74080,1036.2686 L 197.08162,1036.2686 L 197.08162,1035.5704 L 197.74080,1035.5704 L 197.74080,1034.0176 L 198.64412,1034.0176" id="text3077" style="font-size:10.000000;font-style:normal;font-variant:normal;font-weight:normal;font-stretch:normal;line-height:100.00000%;writing-mode:lr-tb;text-anchor:start;fill:#000000;fill-opacity:1.0000000;stroke:none;stroke-width:1.0000000px;stroke-linecap:butt;stroke-linejoin:miter;stroke-opacity:1.0000000;font-family:Bitstream Vera Sans"/>
  </g>
</svg>
