<?xml version="1.0" encoding="UTF-8" standalone="no"?>
<!DOCTYPE svg PUBLIC "-//W3C//DTD SVG 20010904//EN"
"http://www.w3.org/TR/2001/REC-SVG-20010904/DTD/svg10.dtd">
<!-- Created with Inkscape (http://www.inkscape.org/) --><svg height="60.0000000" id="svg1" inkscape:version="0.38.1" sodipodi:docbase="/home/danny/flat/scalable/devices" sodipodi:docname="usb_unmount.svg" sodipodi:version="0.32" version="1.0" width="60.0000000" x="0" xmlns="http://www.w3.org/2000/svg" xmlns:inkscape="http://www.inkscape.org/namespaces/inkscape" xmlns:sodipodi="http://sodipodi.sourceforge.net/DTD/sodipodi-0.dtd" xmlns:xlink="http://www.w3.org/1999/xlink" y="0">
  <metadata>
    <rdf:RDF xmlns:cc="http://web.resource.org/cc/" xmlns:dc="http://purl.org/dc/elements/1.1/" xmlns:rdf="http://www.w3.org/1999/02/22-rdf-syntax-ns#">
      <cc:Work rdf:about="">
        <dc:title>Part of the Flat Icon Collection (Wed Aug 25 23:31:03 2004)</dc:title>
        <dc:description></dc:description>
        <dc:subject>
          <rdf:Bag>
            <rdf:li>hash</rdf:li>
            <rdf:li></rdf:li>
            <rdf:li>computer</rdf:li>
            <rdf:li>icons</rdf:li>
            <rdf:li>device</rdf:li>
            <rdf:li>theme</rdf:li>
          </rdf:Bag>
        </dc:subject>
        <dc:publisher>
          <cc:Agent rdf:about="http://www.openclipart.org">
            <dc:title>Danny Allen</dc:title>
          </cc:Agent>
        </dc:publisher>
        <dc:creator>
          <cc:Agent>
            <dc:title>Danny Allen</dc:title>
          </cc:Agent>
        </dc:creator>
        <dc:rights>
          <cc:Agent>
            <dc:title>Danny Allen</dc:title>
          </cc:Agent>
        </dc:rights>
        <dc:date></dc:date>
        <dc:format>image/svg+xml</dc:format>
        <dc:type rdf:resource="http://purl.org/dc/dcmitype/StillImage"/>
        <cc:license rdf:resource="http://web.resource.org/cc/PublicDomain"/>
        <dc:language>en</dc:language>
      </cc:Work>
      <cc:License rdf:about="http://web.resource.org/cc/PublicDomain">
        <cc:permits rdf:resource="http://web.resource.org/cc/Reproduction"/>
        <cc:permits rdf:resource="http://web.resource.org/cc/Distribution"/>
        <cc:permits rdf:resource="http://web.resource.org/cc/DerivativeWorks"/>
      </cc:License>
    </rdf:RDF>
  </metadata>
  <sodipodi:namedview bordercolor="#666666" borderopacity="1.0" id="base" inkscape:cx="45.681637" inkscape:cy="20.342353" inkscape:pageopacity="0.0" inkscape:pageshadow="2" inkscape:window-height="685" inkscape:window-width="1016" inkscape:window-x="0" inkscape:window-y="0" inkscape:zoom="9.8238822" pagecolor="#ffffff"/>
  <defs id="defs3">
    <linearGradient id="linearGradient772">
      <stop id="stop773" offset="0" style="stop-color:#000;stop-opacity:1;"/>
      <stop id="stop774" offset="1" style="stop-color:#fff;stop-opacity:1;"/>
    </linearGradient>
    <linearGradient id="linearGradient775" xlink:href="#linearGradient772"/>
  </defs>
  <path d="M 15.3125 2.96875 C 14.285401 2.96875 13.46875 3.785402 13.46875 4.8125 L 13.46875 27.125 L 21.125 27.9375 L 39.0625 33.65625 L 50.625 27.875 L 50.625 4.8125 C 50.624999 3.785402 49.808348 2.96875 48.78125 2.96875 L 15.3125 2.96875 z M 22.40625 33.65625 L 13.46875 34.65625 L 13.46875 48.875 C 13.46875 49.902098 14.285402 50.71875 15.3125 50.71875 L 48.78125 50.71875 C 49.808349 50.718748 50.625 49.902098 50.625 48.875 L 50.625 37.5 L 36.25 41.15625 L 22.40625 33.65625 z " id="path792" style="font-size:12;fill:#b3b3b3;fill-rule:evenodd;stroke:none;stroke-width:3.125;fill-opacity:1;"/>
  <path d="M 10.500000,7.6562500 C 9.4729020,7.6562500 8.6562500,8.4729020 8.6562500,9.5000000 L 8.6562500,26.593750 L 21.125000,27.937500 L 39.062500,33.656250 L 45.812500,30.281250 L 45.812500,9.5000000 C 45.812500,8.4729020 44.964598,7.6562500 43.937500,7.6562500 L 10.500000,7.6562500 z M 22.406250,33.656250 L 8.6562500,35.218750 L 8.6562500,53.562500 C 8.6562500,54.589597 9.4729020,55.406250 10.500000,55.406250 L 43.937500,55.406250 C 44.964600,55.406251 45.812500,54.589598 45.812500,53.562500 L 45.812500,38.718750 L 36.250000,41.156250 L 22.406250,33.656250 z " id="path794" style="font-size:12;fill:#b3b3b3;fill-opacity:1.0000000;fill-rule:evenodd;stroke:none;stroke-width:3.1250000;stroke-dasharray:none;stroke-opacity:1;stroke-linejoin:round;"/>
  <path d="M 16.281250,25.750000 C 15.227695,25.750000 14.375000,26.602695 14.375000,27.656250 C 14.375000,27.666674 14.502074,27.040910 14.502241,27.051295 L 18.187500,27.687500 C 18.187667,27.677115 18.187500,27.666674 18.187500,27.656250 C 18.187500,26.602696 17.334804,25.750000 16.281250,25.750000 z " id="path846" sodipodi:nodetypes="cccccc" style="font-size:12.000000;fill:#4c4c4c;fill-rule:evenodd;stroke:#333333;stroke-width:2.2500000;"/>
  <path d="M 27.356802 9.7398291 L 27.356802 26.365546 " id="path767" sodipodi:nodetypes="cc" sodipodi:stroke-cmyk="(0 0 0 0.8)" style="font-size:12;fill:none;fill-opacity:0.75;fill-rule:evenodd;stroke:#333333;stroke-width:2.18621;stroke-dasharray:none;" transform="matrix(0.833333,0.000000,0.000000,0.882675,4.304985,6.762526)"/>
  <path d="M 27.229561 37.439475 C 15.421603 35.53086 14.556363 26.903929 14.556363 26.903929 " id="path768" sodipodi:nodetypes="cc" sodipodi:stroke-cmyk="(0 0 0 0.8)" style="font-size:12;fill:none;fill-opacity:0.75;fill-rule:evenodd;stroke:#333333;stroke-width:2.25;stroke-dasharray:none;" transform="matrix(0.833333,0.000000,0.000000,0.833333,4.304985,10.74223)"/>
  <path d="M 32.955406 24.971273 C 42.727508 22.273765 39.953655 12.705249 39.953655 12.705249 " id="path769" sodipodi:nodetypes="cc" sodipodi:stroke-cmyk="(0 0 0 0.8)" style="font-size:12;fill:none;fill-opacity:0.75;fill-rule:evenodd;stroke:#333333;stroke-width:2.25;stroke-dasharray:none;" transform="matrix(0.833333,0.000000,0.000000,0.833333,4.304985,10.53016)"/>
  <path d="M 8.9068657 17.628767 L 15.650636 17.628767 L 12.342371 13.684298 L 8.9068657 17.628767 z " id="path770" sodipodi:nodetypes="cccc" sodipodi:stroke-cmyk="(0 0 0 0.8)" style="font-size:12;fill:#4c4c4c;fill-rule:evenodd;stroke:#333333;stroke-width:2.25;stroke-linecap:round;stroke-linejoin:round;stroke-dasharray:none;fill-opacity:1;" transform="matrix(0.833333,0.000000,0.000000,0.833333,16.92304,0.881065)"/>
  <path d="M 14.759949 7.322251 A 2.290337 2.290337 0 1 0 10.179275,7.322251 A 2.29034 2.29034 0 1 0 14.7599 7.32225 L 12.469612 7.322251 z" id="path771" sodipodi:cx="12.46961212" sodipodi:cy="7.32225132" sodipodi:rx="2.29033685" sodipodi:ry="2.29033685" sodipodi:stroke-cmyk="(0 0 0 0.8)" sodipodi:type="arc" style="font-size:12;fill:#4c4c4c;fill-rule:evenodd;stroke:#333333;stroke-width:2.25;stroke-dasharray:none;fill-opacity:1;" transform="matrix(0.833333,0.000000,0.000000,0.833333,16.81700,43.08262)"/>
  <rect height="3.60515857" id="rect773" rx="0.83333302" sodipodi:stroke-cmyk="(0 0 0 0.8)" style="font-size:12;fill:#4c4c4c;fill-rule:evenodd;stroke:#333333;stroke-width:1.875;" width="3.60515857" x="35.69106948" y="19.91909599"/>
  <path d="M 27.356802 32.948588 L 27.356802 46.258768 " id="path798" sodipodi:nodetypes="cc" sodipodi:stroke-cmyk="(0 0 0 0.8)" style="font-size:12;fill:none;fill-opacity:0.75;fill-rule:evenodd;stroke:#333333;stroke-width:2.18621;stroke-dasharray:none;" transform="matrix(0.833333,0.000000,0.000000,0.882675,4.304985,6.762526)"/>
  <path d="M 10.500000,7.6562500 C 9.4729020,7.6562500 8.6562500,8.4729020 8.6562500,9.5000000 L 8.6562500,26.593750 L 21.125000,27.937500 L 39.062500,33.656250 L 45.812500,30.281250 L 45.812500,9.5000000 C 45.812500,8.4729020 44.964598,7.6562500 43.937500,7.6562500 L 10.500000,7.6562500 z M 22.406250,33.656250 L 8.6562500,35.218750 L 8.6562500,53.562500 C 8.6562500,54.589597 9.4729020,55.406250 10.500000,55.406250 L 43.937500,55.406250 C 44.964600,55.406251 45.812500,54.589598 45.812500,53.562500 L 45.812500,38.718750 L 36.250000,41.156250 L 22.406250,33.656250 z " id="path840" style="font-size:12;fill:none;fill-opacity:1;fill-rule:evenodd;stroke:#333333;stroke-width:3.1250000;stroke-dasharray:none;stroke-opacity:1;stroke-linejoin:round;"/>
</svg>
