<?xml version="1.0" encoding="UTF-8"?>
<!DOCTYPE svg PUBLIC "-//W3C//DTD SVG 1.0//EN" "http://www.w3.org/TR/2001/REC-SVG-20010904/DTD/svg10.dtd">
<svg height="283mm" viewBox="0 0 20300 28300" width="203mm">
  <metadata>
    <rdf:RDF xmlns:cc="http://web.resource.org/cc/" xmlns:dc="http://purl.org/dc/elements/1.1/" xmlns:rdf="http://www.w3.org/1999/02/22-rdf-syntax-ns#">
      <cc:Work rdf:about="">
        <dc:title>BlueMan#302</dc:title>
        <dc:description></dc:description>
        <dc:subject>
          <rdf:Bag>
            <rdf:li></rdf:li>
            <rdf:li>people</rdf:li>
            <rdf:li>stickmen</rdf:li>
          </rdf:Bag>
        </dc:subject>
        <dc:publisher>
          <cc:Agent rdf:about="http://www.openclipart.org">
            <dc:title>Yutaka Kachi</dc:title>
          </cc:Agent>
        </dc:publisher>
        <dc:creator>
          <cc:Agent>
            <dc:title>Yutaka Kachi</dc:title>
          </cc:Agent>
        </dc:creator>
        <dc:rights>
          <cc:Agent>
            <dc:title>Yutaka Kachi</dc:title>
          </cc:Agent>
        </dc:rights>
        <dc:date></dc:date>
        <dc:format>image/svg+xml</dc:format>
        <dc:type rdf:resource="http://purl.org/dc/dcmitype/StillImage"/>
        <cc:license rdf:resource="http://web.resource.org/cc/PublicDomain"/>
        <dc:language>en</dc:language>
      </cc:Work>
      <cc:License rdf:about="http://web.resource.org/cc/PublicDomain">
        <cc:permits rdf:resource="http://web.resource.org/cc/Reproduction"/>
        <cc:permits rdf:resource="http://web.resource.org/cc/Distribution"/>
        <cc:permits rdf:resource="http://web.resource.org/cc/DerivativeWorks"/>
      </cc:License>
    </rdf:RDF>
  </metadata>
  <g style="stroke:none;fill:rgb(0,0,0)">
    <polygon points="12877,11807 13528,11753 13528,11753 13534,11753 13546,11754 13533,11803 13537,11852 12886,11906 12877,11807"/>
    <polygon points="13546,11754 14174,11932 14174,11932 14187,11938 14161,11981 14147,12029 13519,11851 13533,11803 13546,11754"/>
    <polygon points="14187,11938 14784,12311 14784,12311 14792,12317 14758,12354 14731,12396 14134,12023 14161,11981 14187,11938"/>
    <polygon points="14758,12354 14792,12317 15357,12856 15318,12887 15278,12917 14723,12390 14758,12354"/>
    <polygon points="15318,12887 15357,12856 15876,13514 15834,13541 15791,13567 15278,12917 15318,12887"/>
    <polygon points="15834,13541 15876,13514 16343,14259 16299,14282 16254,14304 15791,13567 15834,13541"/>
    <polygon points="16299,14282 16343,14259 16752,15053 16707,15073 16661,15092 16254,14304 16299,14282"/>
    <polygon points="16707,15073 16752,15053 17098,15860 17051,15877 17003,15893 16661,15092 16707,15073"/>
    <polygon points="17051,15877 17098,15860 17373,16643 17325,16657 17276,16670 17003,15893 17051,15877"/>
    <polygon points="17325,16657 17373,16643 17570,17370 17521,17379 17471,17387 17276,16670 17325,16657"/>
    <polygon points="17521,17379 17570,17370 17682,18001 17633,18004 17583,18006 17471,17387 17521,17379"/>
    <polygon points="17633,18004 17682,18001 17704,18495 17605,18500 17583,18006 17633,18004"/>
    <polygon points="11508,12521 10785,13007 10764,12962 10742,12916 11453,12438 11508,12521"/>
    <polygon points="10785,13007 10110,13323 10110,13323 10101,13326 10089,13278 10067,13232 10742,12916 10764,12962 10785,13007"/>
    <polygon points="10101,13326 9470,13494 9470,13494 9460,13495 9458,13446 9445,13397 10076,13229 10089,13278 10101,13326"/>
    <polygon points="9460,13495 8873,13530 8873,13530 8863,13530 8871,13481 8868,13431 9455,13396 9458,13446 9460,13495"/>
    <polygon points="8863,13530 8321,13451 8321,13451 8312,13449 8329,13402 8336,13352 8878,13431 8871,13481 8863,13530"/>
    <polygon points="8312,13449 7819,13271 7819,13271 7810,13267 7836,13224 7852,13176 8345,13354 8329,13402 8312,13449"/>
    <polygon points="7836,13224 7810,13267 7359,13003 7391,12965 7422,12926 7861,13180 7836,13224"/>
    <polygon points="7391,12965 7359,13003 6960,12674 6997,12641 7033,12607 7422,12926 7391,12965"/>
    <polygon points="6997,12641 6960,12674 6613,12299 6654,12270 6694,12240 7033,12607 6997,12641"/>
    <polygon points="6654,12270 6613,12299 6321,11893 6365,11869 6408,11844 6694,12240 6654,12270"/>
    <polygon points="6365,11869 6321,11893 6085,11472 6131,11453 6176,11433 6408,11844 6365,11869"/>
    <polygon points="6131,11453 6085,11472 5906,11054 5954,11040 6001,11025 6176,11433 6131,11453"/>
    <polygon points="5954,11040 5906,11054 5784,10656 5834,10648 5883,10639 6001,11025 5954,11040"/>
    <polygon points="5834,10648 5784,10656 5723,10291 5773,10292 5822,10292 5883,10639 5834,10648"/>
    <polygon points="5773,10292 5723,10291 5724,9989 5823,9990 5822,10292 5773,10292"/>
    <polygon points="13082,20051 12320,19940 12321,19891 12321,19841 13097,19952 13082,20051"/>
    <polygon points="12321,19891 12320,19940 11560,19932 11555,19883 11549,19833 12321,19841 12321,19891"/>
    <polygon points="11555,19883 11560,19932 10811,20011 10801,19963 10790,19914 11549,19833 11555,19883"/>
    <polygon points="10801,19963 10811,20011 10078,20165 10064,20118 10049,20070 10790,19914 10801,19963"/>
    <polygon points="10064,20118 10078,20165 9369,20378 9352,20332 9334,20285 10049,20070 10064,20118"/>
    <polygon points="9352,20332 9369,20378 8693,20638 8673,20593 8652,20547 9334,20285 9352,20332"/>
    <polygon points="8673,20593 8693,20638 8058,20929 8035,20885 8011,20840 8652,20547 8673,20593"/>
    <polygon points="8035,20885 8058,20929 7469,21239 7444,21196 7418,21152 8011,20840 8035,20885"/>
    <polygon points="7444,21196 7469,21239 6934,21553 6907,21511 6879,21468 7418,21152 7444,21196"/>
    <polygon points="6907,21511 6934,21553 6461,21857 6433,21816 6404,21774 6879,21468 6907,21511"/>
    <polygon points="6433,21816 6461,21857 6058,22136 6029,22096 5999,22055 6404,21774 6433,21816"/>
    <polygon points="6029,22096 6058,22136 5732,22378 5702,22339 5671,22299 5999,22055 6029,22096"/>
    <polygon points="5702,22339 5732,22378 5490,22568 5459,22530 5427,22491 5671,22299 5702,22339"/>
    <polygon points="5459,22530 5490,22568 5340,22692 5308,22655 5275,22617 5427,22491 5459,22530"/>
    <polygon points="5308,22655 5340,22692 5288,22737 5223,22662 5275,22617 5308,22655"/>
  </g>
  <g style="stroke:none;fill:rgb(0,102,204)">
    <polygon points="18484,18939 18483,18882 18478,18826 18471,18770 18461,18714 18448,18659 18432,18605 18413,18551 18391,18499 18367,18448 18341,18397 18311,18349 18279,18301 18245,18256 18209,18212 18170,18170 18129,18130 18086,18092 18041,18056 17994,18023 17946,17992 17896,17963 17845,17937 17792,17913 17739,17892 17684,17874 17628,17859 17572,17846 17515,17836 17458,17829 17400,17824 17342,17823 17342,17823 17284,17824 17226,17829 17169,17836 17112,17846 17056,17859 17000,17874 16945,17892 16892,17913 16839,17937 16788,17963 16738,17992 16690,18023 16643,18056 16598,18092 16555,18130 16514,18170 16475,18212 16439,18256 16405,18301 16373,18349 16343,18397 16317,18448 16293,18499 16271,18551 16252,18605 16236,18659 16223,18714 16213,18770 16206,18826 16201,18882 16200,18939 16200,18939 16201,18996 16206,19052 16213,19108 16223,19164 16236,19219 16252,19273 16271,19327 16293,19379 16317,19430 16343,19481 16373,19529 16405,19577 16439,19622 16475,19666 16514,19708 16555,19748 16598,19786 16643,19822 16690,19855 16738,19886 16788,19915 16839,19941 16892,19965 16945,19986 17000,20004 17056,20019 17112,20032 17169,20042 17226,20049 17284,20054 17342,20055 17342,20055 17400,20054 17458,20049 17515,20042 17572,20032 17628,20019 17684,20004 17739,19986 17792,19965 17845,19941 17896,19915 17946,19886 17994,19855 18041,19822 18086,19786 18129,19748 18170,19708 18209,19666 18245,19622 18279,19577 18311,19529 18341,19481 18367,19430 18391,19379 18413,19327 18432,19273 18448,19219 18461,19164 18471,19108 18478,19052 18483,18996 18484,18939"/>
    <polygon points="6813,9550 6812,9493 6807,9437 6800,9381 6790,9325 6777,9270 6761,9216 6742,9162 6720,9110 6696,9059 6670,9008 6640,8960 6608,8912 6574,8867 6538,8823 6499,8781 6458,8741 6415,8703 6370,8667 6323,8634 6275,8603 6225,8574 6174,8548 6121,8524 6068,8503 6013,8485 5957,8470 5901,8457 5844,8447 5787,8440 5729,8435 5671,8434 5671,8434 5613,8435 5555,8440 5498,8447 5441,8457 5385,8470 5329,8485 5274,8503 5221,8524 5168,8548 5117,8574 5067,8603 5019,8634 4972,8667 4927,8703 4884,8741 4843,8781 4804,8823 4768,8867 4734,8912 4702,8960 4672,9008 4646,9059 4622,9110 4600,9162 4581,9216 4565,9270 4552,9325 4542,9381 4535,9437 4530,9493 4529,9550 4529,9550 4530,9607 4535,9663 4542,9719 4552,9775 4565,9830 4581,9884 4600,9938 4622,9990 4646,10041 4672,10092 4702,10140 4734,10188 4768,10233 4804,10277 4843,10319 4884,10359 4927,10397 4972,10433 5019,10466 5067,10497 5117,10526 5168,10552 5221,10576 5274,10597 5329,10615 5385,10630 5441,10643 5498,10653 5555,10660 5613,10665 5671,10666 5671,10666 5729,10665 5787,10660 5844,10653 5901,10643 5957,10630 6013,10615 6068,10597 6121,10576 6174,10552 6225,10526 6275,10497 6323,10466 6370,10433 6415,10397 6458,10359 6499,10319 6538,10277 6574,10233 6608,10188 6640,10140 6670,10092 6696,10041 6720,9990 6742,9938 6761,9884 6777,9830 6790,9775 6800,9719 6807,9663 6812,9607 6813,9550"/>
    <polygon points="3831,22884 3492,22665 3212,22414 3000,22147 2867,21876 2820,21617 2869,21384 3013,21202 3233,21088 3514,21042 3840,21066 4193,21158 4559,21322 4897,21541 5177,21791 5389,22059 5522,22330 5569,22589 5521,22822 5376,23003 5156,23117 4875,23163 4549,23140 4196,23047 3831,22884"/>
    <polygon points="14029,20384 13695,20403 13357,20330 13020,20170 12689,19929 12368,19613 12063,19228 11778,18781 11518,18276 11287,17721 11091,17121 10934,16483 10824,15834 10765,15206 10756,14605 10794,14039 10878,13515 11005,13040 11173,12623 11381,12270 11626,11989 11907,11788 12221,11674 12554,11654 12892,11727 13229,11887 13560,12128 13880,12444 14185,12829 14471,13276 14731,13781 14962,14336 15158,14936 15316,15575 15425,16223 15484,16851 15493,17453 15455,18019 15371,18543 15244,19018 15076,19435 14868,19788 14623,20068 14342,20269 14029,20384"/>
    <polygon points="11221,11430 10664,11442 10132,11367 9632,11213 9176,10984 8771,10690 8428,10336 8156,9929 7965,9477 7865,8986 7863,8484 7957,8002 8140,7549 8404,7132 8739,6761 9140,6444 9597,6191 10103,6009 10651,5908 11207,5895 11739,5970 12239,6124 12695,6353 13100,6647 13443,7001 13715,7408 13906,7860 14007,8352 14008,8853 13914,9335 13731,9788 13467,10205 13132,10576 12731,10893 12274,11146 11768,11328 11221,11430"/>
  </g>
  <g style="stroke:none;fill:rgb(0,0,0)">
    <polygon points="14346,20155 13620,20331 13604,20284 13587,20236 14323,20058 14346,20155"/>
    <polygon points="13604,20284 13620,20331 12967,20564 12946,20519 12924,20473 13587,20236 13604,20284"/>
    <polygon points="12946,20519 12967,20564 12385,20844 12359,20802 12332,20759 12924,20473 12946,20519"/>
    <polygon points="12359,20802 12385,20844 11868,21164 11838,21125 11807,21085 12332,20759 12359,20802"/>
    <polygon points="11838,21125 11868,21164 11413,21514 11379,21478 11344,21441 11807,21085 11838,21125"/>
    <polygon points="11379,21478 11413,21514 11016,21886 10979,21853 10941,21819 11344,21441 11379,21478"/>
    <polygon points="10979,21853 11016,21886 10673,22271 10634,22241 10594,22210 10941,21819 10979,21853"/>
    <polygon points="10634,22241 10673,22271 10381,22660 10339,22634 10296,22607 10594,22210 10634,22241"/>
    <polygon points="10339,22634 10381,22660 10135,23046 10092,23023 10048,22999 10296,22607 10339,22634"/>
    <polygon points="10092,23023 10135,23046 9933,23420 9888,23399 9842,23377 10048,22999 10092,23023"/>
    <polygon points="9888,23399 9933,23420 9769,23771 9723,23753 9676,23734 9842,23377 9888,23399"/>
    <polygon points="9723,23753 9769,23771 9641,24092 9594,24076 9546,24059 9676,23734 9723,23753"/>
    <polygon points="9594,24076 9641,24092 9546,24373 9498,24360 9449,24346 9546,24059 9594,24076"/>
    <polygon points="9498,24360 9546,24373 9477,24609 9429,24597 9380,24584 9449,24346 9498,24360"/>
    <polygon points="9429,24597 9477,24609 9433,24785 9384,24776 9334,24766 9380,24584 9429,24597"/>
    <polygon points="9384,24776 9433,24785 9410,24898 9361,24890 9311,24881 9334,24766 9384,24776"/>
    <polygon points="9361,24890 9410,24898 9403,24939 9304,24922 9311,24881 9361,24890"/>
  </g>
  <g style="stroke:none;fill:rgb(0,102,204)">
    <polygon points="8085,25062 7746,24843 7466,24592 7254,24325 7121,24054 7074,23795 7123,23562 7267,23380 7487,23266 7768,23220 8094,23244 8447,23336 8813,23500 9151,23719 9431,23969 9643,24237 9776,24508 9823,24767 9775,25000 9630,25181 9410,25295 9129,25341 8803,25318 8450,25225 8085,25062"/>
  </g>
</svg>
