<?xml version="1.0" encoding="UTF-8" standalone="no"?>
<!-- Created with Inkscape (http://www.inkscape.org/) --><svg height="354.00000pt" id="svg1" inkscape:version="0.41" sodipodi:docbase="/home/root" sodipodi:docname="baby_tux_01.svg" sodipodi:version="0.32" width="220.00000pt" xmlns="http://www.w3.org/2000/svg" xmlns:cc="http://web.resource.org/cc/" xmlns:dc="http://purl.org/dc/elements/1.1/" xmlns:inkscape="http://www.inkscape.org/namespaces/inkscape" xmlns:rdf="http://www.w3.org/1999/02/22-rdf-syntax-ns#" xmlns:sodipodi="http://inkscape.sourceforge.net/DTD/sodipodi-0.dtd" xmlns:svg="http://www.w3.org/2000/svg" xmlns:xlink="http://www.w3.org/1999/xlink">
  <metadata>
    <rdf:RDF xmlns:cc="http://web.resource.org/cc/" xmlns:dc="http://purl.org/dc/elements/1.1/" xmlns:rdf="http://www.w3.org/1999/02/22-rdf-syntax-ns#">
      <cc:Work rdf:about="">
        <dc:title>Baby Tux</dc:title>
        <dc:description></dc:description>
        <dc:subject>
          <rdf:Bag>
            <rdf:li></rdf:li>
            <rdf:li>baby</rdf:li>
            <rdf:li>linux</rdf:li>
            <rdf:li>bird</rdf:li>
            <rdf:li>penguin</rdf:li>
            <rdf:li>mascot</rdf:li>
            <rdf:li>tux</rdf:li>
            <rdf:li>animal</rdf:li>
            <rdf:li>computer</rdf:li>
            <rdf:li>cute</rdf:li>
          </rdf:Bag>
        </dc:subject>
        <dc:publisher>
          <cc:Agent rdf:about="http://www.openclipart.org">
            <dc:title>Rory McCann</dc:title>
          </cc:Agent>
        </dc:publisher>
        <dc:creator>
          <cc:Agent>
            <dc:title>Rory McCann</dc:title>
          </cc:Agent>
        </dc:creator>
        <dc:rights>
          <cc:Agent>
            <dc:title>Rory McCann</dc:title>
          </cc:Agent>
        </dc:rights>
        <dc:date></dc:date>
        <dc:format>image/svg+xml</dc:format>
        <dc:type rdf:resource="http://purl.org/dc/dcmitype/StillImage"/>
        <cc:license rdf:resource="http://web.resource.org/cc/PublicDomain"/>
        <dc:language>en</dc:language>
      </cc:Work>
      <cc:License rdf:about="http://web.resource.org/cc/PublicDomain">
        <cc:permits rdf:resource="http://web.resource.org/cc/Reproduction"/>
        <cc:permits rdf:resource="http://web.resource.org/cc/Distribution"/>
        <cc:permits rdf:resource="http://web.resource.org/cc/DerivativeWorks"/>
      </cc:License>
    </rdf:RDF>
  </metadata>
  <defs id="defs3">
    <linearGradient id="linearGradient13775">
      <stop id="stop13777" offset="0" style="stop-color:#000000;stop-opacity:1;"/>
      <stop id="stop13779" offset="1.0000000" style="stop-color:#ffffff;stop-opacity:1.0000000;"/>
    </linearGradient>
    <linearGradient id="linearGradient2163">
      <stop id="stop2165" offset="0.0000000" style="stop-color:#ebefe7;stop-opacity:0.72641510;"/>
      <stop id="stop2167" offset="1" style="stop-color:#ebefeb;stop-opacity:0;"/>
    </linearGradient>
    <linearGradient id="linearGradient4055">
      <stop id="stop4056" offset="0.0000000" style="stop-color:#ffffff;stop-opacity:0.85098040;"/>
      <stop id="stop4059" offset="0.73618704" style="stop-color:#ffffff;stop-opacity:0.82999998;"/>
      <stop id="stop4058" offset="1.0000000" style="stop-color:#ffffff;stop-opacity:0.0000000;"/>
    </linearGradient>
    <linearGradient id="linearGradient4047">
      <stop id="stop4048" offset="0.0000000" style="stop-color:#ff9c00;stop-opacity:1.0000000;"/>
      <stop id="stop4050" offset="0.30611512" style="stop-color:#ff9c00;stop-opacity:1.0000000;"/>
      <stop id="stop4049" offset="1.0000000" style="stop-color:#ffff33;stop-opacity:1.0000000;"/>
    </linearGradient>
    <linearGradient id="linearGradient4041">
      <stop id="stop4042" offset="0.0000000" style="stop-color:#ffffff;stop-opacity:1.0000000;"/>
      <stop id="stop4044" offset="0.63748199" style="stop-color:#ffffff;stop-opacity:1.0000000;"/>
      <stop id="stop4043" offset="1.0000000" style="stop-color:#000000;stop-opacity:1.0000000;"/>
    </linearGradient>
    <linearGradient id="linearGradient851">
      <stop id="stop852" offset="0.0000000" style="stop-color:#000000;stop-opacity:1.0000000;"/>
      <stop id="stop855" offset="0.67273378" style="stop-color:#000000;stop-opacity:1.0000000;"/>
      <stop id="stop853" offset="1.0000000" style="stop-color:#ffffff;stop-opacity:1.0000000;"/>
    </linearGradient>
    <linearGradient id="linearGradient830">
      <stop id="stop831" offset="0.0000000" style="stop-color:#ff9c00;stop-opacity:1.0000000;"/>
      <stop id="stop832" offset="1.0000000" style="stop-color:#ffff33;stop-opacity:1.0000000;"/>
    </linearGradient>
    <linearGradient id="linearGradient833" xlink:href="#linearGradient851"/>
    <radialGradient cx="0.57777780" cy="0.66406250" fx="0.58333337" fy="0.65625000" gradientUnits="objectBoundingBox" id="radialGradient847" r="0.68893319" spreadMethod="pad" xlink:href="#linearGradient830"/>
    <radialGradient cx="136.86204" cy="341.63827" fx="135.62020" fy="344.89812" gradientTransform="scale(1.141319,0.876179)" gradientUnits="userSpaceOnUse" id="radialGradient850" r="144.09152" xlink:href="#linearGradient851"/>
    <radialGradient cx="0.51369864" cy="0.66406250" fx="0.50000012" fy="0.66406250" id="radialGradient859" r="0.68497604" xlink:href="#linearGradient851"/>
    <radialGradient cx="128.58356" cy="348.35702" fx="128.58356" fy="349.63017" gradientTransform="scale(1.219684,0.819884)" gradientUnits="userSpaceOnUse" id="radialGradient860" r="110.33977" xlink:href="#linearGradient4041"/>
    <radialGradient cx="0.51111114" cy="0.39843750" fx="0.50555563" fy="0.38281250" id="radialGradient4045" r="0.72777772" xlink:href="#linearGradient4041"/>
    <radialGradient cx="215.72803" cy="333.96130" fx="218.32560" fy="335.61184" gradientTransform="scale(0.966384,1.034785)" gradientUnits="userSpaceOnUse" id="radialGradient4046" r="102.18487" xlink:href="#linearGradient4047"/>
    <radialGradient cx="0.49312770" cy="0.49410877" fx="0.49312764" fy="0.49410871" id="radialGradient4051" r="0.50699449" xlink:href="#linearGradient4055"/>
    <linearGradient gradientTransform="scale(1.504484,0.664680)" gradientUnits="userSpaceOnUse" id="linearGradient18031" inkscape:collect="always" x1="90.837677" x2="38.737789" xlink:href="#linearGradient4047" y1="620.57825" y2="681.61877"/>
    <linearGradient gradientTransform="scale(1.504484,0.664680)" gradientUnits="userSpaceOnUse" id="linearGradient18033" inkscape:collect="always" x1="90.837677" x2="38.737789" xlink:href="#linearGradient4047" y1="620.57825" y2="681.61877"/>
    <radialGradient cx="136.86204" cy="341.63827" fx="135.62020" fy="344.89812" gradientTransform="matrix(1.141319,0.000000,0.000000,0.876179,-283.9522,63.16657)" gradientUnits="userSpaceOnUse" id="radialGradient18035" inkscape:collect="always" r="144.09152" xlink:href="#linearGradient851"/>
    <radialGradient cx="128.58356" cy="348.35702" fx="128.58356" fy="349.63017" gradientTransform="matrix(1.219684,0.000000,0.000000,0.819884,-283.9522,63.16657)" gradientUnits="userSpaceOnUse" id="radialGradient18037" inkscape:collect="always" r="110.33977" xlink:href="#linearGradient4041"/>
    <radialGradient cx="162.39387" cy="167.46686" fx="159.25149" fy="167.46686" gradientTransform="matrix(1.075520,0.000000,0.000000,0.929783,16.30668,2.547918)" gradientUnits="userSpaceOnUse" id="radialGradient18039" inkscape:collect="always" r="157.13044" xlink:href="#linearGradient851"/>
    <radialGradient cx="132.56874" cy="127.85237" fx="131.64751" fy="125.26140" gradientTransform="scale(1.184126,0.844505)" gradientUnits="userSpaceOnUse" id="radialGradient18041" inkscape:collect="always" r="120.68186" xlink:href="#linearGradient4041"/>
    <radialGradient cx="147.35271" cy="231.57469" fx="147.74461" fy="231.02358" gradientTransform="matrix(1.200784,0.000000,0.000000,0.832790,16.30668,2.547918)" gradientUnits="userSpaceOnUse" id="radialGradient18043" inkscape:collect="always" r="48.598507" spreadMethod="pad" xlink:href="#linearGradient830"/>
    <radialGradient cx="349.08316" cy="211.41577" fx="349.08316" fy="211.41577" gradientTransform="matrix(1.046003,-0.276468,0.148202,0.953004,-284.6877,114.4465)" gradientUnits="userSpaceOnUse" id="radialGradient18045" inkscape:collect="always" r="179.25710" xlink:href="#linearGradient13775"/>
    <radialGradient cx="90.469905" cy="219.67949" fx="90.469904" fy="219.67949" gradientTransform="scale(0.745356,1.341641)" gradientUnits="userSpaceOnUse" id="radialGradient18047" inkscape:collect="always" r="8.6655273" xlink:href="#linearGradient4055"/>
    <linearGradient gradientTransform="matrix(1.865245,0.000000,0.000000,0.544472,0.196765,-1.947155)" gradientUnits="userSpaceOnUse" id="linearGradient18049" inkscape:collect="always" spreadMethod="reflect" x1="-64.447044" x2="-45.147579" xlink:href="#linearGradient2163" y1="288.00275" y2="393.45505"/>
    <radialGradient cx="349.08316" cy="211.41577" fx="349.08316" fy="211.41577" gradientTransform="matrix(-0.932651,-0.276468,-0.132142,0.953004,580.5328,111.6260)" gradientUnits="userSpaceOnUse" id="radialGradient18051" inkscape:collect="always" r="179.25710" xlink:href="#linearGradient13775"/>
  </defs>
  <sodipodi:namedview bordercolor="#666666" borderopacity="1.0" id="base" inkscape:current-layer="svg1" inkscape:cx="137.12466" inkscape:cy="217.32961" inkscape:pageopacity="0.0" inkscape:pageshadow="2" inkscape:window-height="712" inkscape:window-width="1016" inkscape:window-x="0" inkscape:window-y="31" inkscape:zoom="0.85317613" pagecolor="#ffffff" showguides="true" snaptoguides="true"/>
  <g id="g17982" transform="translate(-44.15046,-14.47211)">
    <g id="g16883">
      <path d="M 154.12607,421.84644 C 151.17040,418.88613 146.26587,414.86196 141.86604,410.46213 C 138.14429,406.74038 130.02206,408.15792 125.22743,406.95926 C 120.14518,405.68870 114.20896,406.08355 108.58882,406.08355 C 103.08146,406.08355 98.450046,406.95926 92.825929,406.95926 C 85.123211,406.95926 78.269726,404.33212 70.933021,404.33212 C 66.145426,404.33212 63.707246,403.94927 58.672993,405.20783 C 54.241217,406.31578 46.412964,416.00087 46.412964,421.84644 C 46.412964,426.49799 47.577554,429.23734 49.915829,432.35504 C 52.613555,435.95200 57.216235,437.31881 61.300141,439.36077 C 64.489129,440.95526 72.454275,441.11220 76.187319,441.11220 C 80.272990,441.11220 82.562189,445.17535 86.695914,447.24221 C 91.465995,449.62726 94.934170,449.52071 99.831659,450.74508 C 104.88641,452.00877 109.54610,451.62080 114.71884,451.62080 C 120.40123,451.62080 127.85132,450.30804 133.10888,448.99365 C 138.38961,447.67346 142.40950,446.09477 147.12034,443.73935 C 151.72541,441.43682 153.94012,440.98028 155.00179,436.73362 C 156.78023,429.61985 156.82987,428.60594 154.12607,421.84644 z " id="path16077" sodipodi:nodetypes="cccccccccccccccccc" style="fill:url(#linearGradient18031);fill-opacity:1.0000000;fill-rule:evenodd;stroke:#000000;stroke-width:2.0250001;stroke-linecap:butt;stroke-linejoin:miter;stroke-miterlimit:4.0000000;stroke-opacity:1.0000000"/>
      <rect height="42.034428" id="rect16075" rx="7.3683753" ry="18.752703" style="fill:#605e5f;fill-opacity:1.0000000;stroke:#000000;stroke-width:4.3750043;stroke-miterlimit:4.0000000;stroke-opacity:1.0000000" transform="matrix(0.996293,8.602828e-2,-8.602828e-2,0.996293,0.000000,0.000000)" width="39.407280" x="143.73837" y="360.15924"/>
    </g>
    <g id="g16877" transform="matrix(-1.105197,0.000000,0.000000,1.000000,369.1643,4.230734)">
      <path d="M 154.12607,421.84644 C 151.17040,418.88613 146.26587,414.86196 141.86604,410.46213 C 138.14429,406.74038 130.02206,408.15792 125.22743,406.95926 C 120.14518,405.68870 114.20896,406.08355 108.58882,406.08355 C 103.08146,406.08355 98.450046,406.95926 92.825929,406.95926 C 85.123211,406.95926 78.269726,404.33212 70.933021,404.33212 C 66.145426,404.33212 63.707246,403.94927 58.672993,405.20783 C 54.241217,406.31578 46.412964,416.00087 46.412964,421.84644 C 46.412964,426.49799 47.577554,429.23734 49.915829,432.35504 C 52.613555,435.95200 57.216235,437.31881 61.300141,439.36077 C 64.489129,440.95526 72.454275,441.11220 76.187319,441.11220 C 80.272990,441.11220 82.562189,445.17535 86.695914,447.24221 C 91.465995,449.62726 94.934170,449.52071 99.831659,450.74508 C 104.88641,452.00877 109.54610,451.62080 114.71884,451.62080 C 120.40123,451.62080 127.85132,450.30804 133.10888,448.99365 C 138.38961,447.67346 142.40950,446.09477 147.12034,443.73935 C 151.72541,441.43682 153.94012,440.98028 155.00179,436.73362 C 156.78023,429.61985 156.82987,428.60594 154.12607,421.84644 z " id="path16873" sodipodi:nodetypes="cccccccccccccccccc" style="fill:url(#linearGradient18033);fill-opacity:1.0000000;fill-rule:evenodd;stroke:#000000;stroke-width:2.0250001;stroke-linecap:butt;stroke-linejoin:miter;stroke-miterlimit:4.0000000;stroke-opacity:1.0000000"/>
      <rect height="42.034428" id="rect16875" rx="6.6715045" ry="18.737354" style="fill:#605e5f;fill-opacity:1.0000000;stroke:#000000;stroke-width:4.3750043;stroke-miterlimit:4.0000000;stroke-opacity:1.0000000" transform="matrix(0.996293,8.602828e-2,-8.602828e-2,0.996293,0.000000,0.000000)" width="39.407280" x="143.73837" y="360.15924"/>
    </g>
    <g id="g9942" transform="translate(304.9160,-41.00594)">
      <path d="M -240.18127,324.59909 C -246.60663,344.44968 -250.37971,376.87400 -237.12749,397.88987 C -224.38423,418.90574 -211.15089,419.90462 -201.50002,424.35598 C -192.35813,428.80735 -151.54963,434.84954 -127.90317,432.70122 C -104.25671,430.55290 -58.663494,429.94345 -44.230234,421.30220 C -30.305944,412.15198 -28.156844,409.65102 -18.273074,397.38091 C -8.3893139,384.60183 -11.837154,338.05859 -20.817894,319.00049 C -29.798634,299.94238 -43.222474,278.02383 -57.463284,268.10412 C -72.213064,258.18441 -99.868854,253.85313 -132.28095,254.87105 C -165.20202,255.38002 -194.15179,258.43380 -209.64345,273.70271 C -225.13509,288.46266 -233.24695,304.74850 -240.18127,324.59909 z " id="path838" sodipodi:nodetypes="czzszzzzzzz" style="fill:url(#radialGradient18035);fill-opacity:1.0000000;fill-rule:evenodd;stroke:#000000;stroke-width:4.3750000;stroke-linecap:butt;stroke-linejoin:miter;stroke-opacity:1.0000000"/>
      <path d="M -129.48340,291.38532 C -191.30483,290.36237 -229.35051,334.82580 -229.60840,369.38532 C -229.54337,378.10035 -225.50476,385.95944 -218.92090,392.79157 C -212.33704,399.62370 -203.20425,405.46663 -192.79590,410.22907 C -171.97920,419.75395 -146.10596,424.97907 -125.42090,424.97907 C -104.76934,424.97907 -81.461384,421.42343 -63.139654,413.29157 C -44.828584,405.16444 -31.421644,392.35793 -30.889654,374.01032 C -29.343374,337.41307 -67.661334,291.89680 -129.48340,291.38532 z " id="path857" sodipodi:insensitive="true" sodipodi:nodetypes="cccccccc" style="fill:url(#radialGradient18037);fill-opacity:1.0000000;fill-rule:evenodd;stroke:none;stroke-width:1.0000000pt;stroke-opacity:1.0000000"/>
    </g>
    <path d="M 86.845456,52.251762 C 67.051411,72.405698 38.380034,151.34195 55.174986,181.81278 C 71.250156,212.28361 132.52409,225.75246 170.79258,225.15264 C 209.78085,224.55282 271.03921,210.95381 288.38483,181.09300 C 297.86198,165.49769 288.26486,129.62848 284.78591,114.15314 C 281.30695,98.677792 271.02005,67.607139 251.18102,47.303249 C 231.34199,26.999358 204.11019,16.022661 171.06012,16.262590 C 138.72985,16.502519 105.91972,32.097826 86.845456,52.251762 z " id="path826" sodipodi:nodetypes="czzscszz" style="fill:url(#radialGradient18039);fill-opacity:1.0000000;fill-rule:evenodd;stroke:#000000;stroke-width:4.3750000"/>
    <g id="g4062" transform="translate(16.30668,2.547918)">
      <path d="M 154.72498,94.492410 C 152.90356,92.258814 150.10049,81.849635 144.03674,72.098006 C 137.97298,61.837412 127.43963,50.680612 101.79275,53.775310 C 76.145863,57.378972 66.153275,88.938628 62.602541,101.10894 C 58.542843,113.27924 53.941930,147.48209 58.530831,159.13081 C 62.610767,171.28849 85.893292,186.74205 106.88239,188.65070 C 126.85356,190.55935 139.16868,192.21345 154.21601,192.21345 C 169.26335,192.21345 200.40437,187.02468 211.21996,185.59692 C 222.54451,184.16916 248.88327,168.58025 251.93705,155.56806 C 254.99083,143.06482 250.74793,108.60724 246.33845,95.001374 C 241.92898,81.904473 231.82276,53.396665 205.62136,52.248419 C 179.92892,51.100173 171.17733,63.816161 165.41136,70.569874 C 160.15497,77.323586 155.01952,88.073623 154.72498,94.492410 z " id="path837" sodipodi:nodetypes="czzzzzzzzzzzc" style="fill:url(#radialGradient18041);fill-opacity:1.0000000;fill-rule:evenodd;stroke:none;stroke-width:1.0000000pt;stroke-linecap:butt;stroke-linejoin:miter;stroke-opacity:1.0000000"/>
      <path d="M 123.50462,91.451283 C 117.20432,92.520161 114.53289,111.64390 114.53289,118.89038 C 114.02393,126.13686 115.37617,150.70836 123.80275,150.47353 C 132.22933,150.74766 134.70988,131.33687 134.59950,118.38142 C 134.48912,104.91701 129.80491,90.891368 123.50462,91.451283 z " id="path834" sodipodi:nodetypes="czzzz" style="fill:#000000;fill-opacity:1.0000000;fill-rule:evenodd;stroke:none;stroke-width:1.0000000pt;stroke-linecap:butt;stroke-linejoin:miter;stroke-opacity:1.0000000"/>
      <path d="M 183.73745,91.454051 C 177.43715,92.522929 174.76572,111.64667 174.76572,118.89315 C 174.25676,126.13963 175.60900,150.71113 184.03558,150.47630 C 192.46216,150.75043 194.94271,131.33964 194.83233,118.38419 C 194.72195,104.91978 190.03774,90.894136 183.73745,91.454051 z " id="path858" style="fill:#000000;fill-opacity:1.0000000;fill-rule:evenodd;stroke:none;stroke-width:1.0000000pt;stroke-opacity:1.0000000"/>
    </g>
    <path d="M 169.70973,211.23472 C 182.14355,211.09379 212.33489,204.18360 211.36799,182.53256 C 210.40109,163.76065 189.10471,155.23708 171.06012,155.18079 C 156.79995,154.56747 129.01978,164.57298 129.31268,184.69191 C 129.59594,204.84458 157.27591,211.88523 169.70973,211.23472 z " id="path829" sodipodi:nodetypes="czssz" style="fill:url(#radialGradient18043);fill-rule:evenodd;stroke:#000000;stroke-width:2.6250000;stroke-linejoin:bevel"/>
    <path d="M 140.25951,158.58039 C 152.53400,161.59961 173.52926,190.39684 152.73089,222.71395 C 149.91931,230.16382 144.06368,237.70982 140.38902,245.26319 C 138.20063,249.76157 122.88256,265.81400 112.59897,270.93089 C 95.069528,275.85933 90.070648,271.96592 81.195628,270.11900 C 73.368938,268.49027 68.675578,261.90599 65.229418,258.75876 C 60.584198,254.51645 59.169538,250.62708 56.408308,245.87130 C 53.366318,240.63191 53.068018,232.72669 53.668958,228.47240 C 54.316148,223.89076 61.335338,221.05307 64.973388,220.27549 C 72.718308,218.62008 75.922168,218.83564 82.972268,218.99755 C 89.577648,219.14928 96.823498,214.40873 100.69885,212.63946 C 106.42868,210.02354 110.60893,207.11853 115.50775,202.40887 C 119.80434,198.27818 121.55673,192.18255 122.89924,188.62531 C 124.85229,183.45031 139.92779,158.00901 140.25951,158.58039 z " id="path9960" sodipodi:nodetypes="cccccccccccccc" style="fill:url(#radialGradient18045);fill-opacity:1.0000000;fill-rule:evenodd;stroke:#000000;stroke-width:4.4569597;stroke-linecap:butt;stroke-linejoin:miter;stroke-miterlimit:4.0000000;stroke-opacity:1.0000000"/>
    <path d="M 73.889632 294.86606 A 6.3697958 11.465632 0 1 1  61.150041,294.86606 A 6.3697958 11.465632 0 1 1  73.889632 294.86606 z" id="path4061" sodipodi:cx="67.519836" sodipodi:cy="294.86606" sodipodi:rx="6.3697958" sodipodi:ry="11.465632" sodipodi:type="arc" style="fill:url(#radialGradient18047);fill-opacity:1.0000000;fill-rule:evenodd;stroke-width:1.0000000pt" transform="matrix(5.150332,0.244159,-2.184725,2.317575,424.3572,-646.7914)"/>
    <g id="g7487" transform="matrix(1.100218,0.000000,0.000000,1.020109,322.4363,-126.3661)">
      <rect height="61.150040" id="rect1400" rx="17.044512" ry="18.383024" style="fill:#cbcccd;fill-opacity:1.0000000;stroke:#000000;stroke-width:4.0073509;stroke-miterlimit:4.0000000;stroke-opacity:1.0000000" width="211.13000" x="-240.48938" y="153.04890"/>
      <rect height="57.995739" id="rect2171" rx="17.044512" ry="18.383024" style="fill:url(#linearGradient18049);fill-opacity:1.0000000;stroke:none;stroke-width:4.0000000;stroke-miterlimit:4.0000000;stroke-opacity:1.0000000" width="207.72755" x="-238.62996" y="154.86215"/>
    </g>
    <g id="g9771" transform="matrix(0.731304,0.000000,0.000000,0.552387,408.0397,-69.48723)">
      <path d="M -326.72225,230.89198 C -320.32246,225.82927 -310.99027,228.27915 -306.47046,234.61724 C -300.46855,243.03366 -303.71360,254.77125 -312.01096,260.31470 C -322.42758,267.27403 -336.59853,263.22158 -343.15410,252.95897 C -351.08067,240.55008 -346.21452,223.93126 -333.98313,216.37016 C -321.81717,208.84950 -305.74140,211.62180 -296.07220,221.91111" id="path7491" sodipodi:argument="-19.395210" sodipodi:cx="-321.18182" sodipodi:cy="241.97289" sodipodi:expansion="1.0000000" sodipodi:radius="32.139816" sodipodi:revolution="1.9795555" sodipodi:t0="0.38546637" sodipodi:type="spiral" style="fill:none;fill-opacity:0.75000000;fill-rule:evenodd;stroke:#000000;stroke-width:3.7500000;stroke-linecap:butt;stroke-linejoin:miter;stroke-miterlimit:4.0000000;stroke-opacity:1.0000000"/>
      <path d="M -296.64709,222.64250 L -269.88194,198.85126" id="path7493" style="fill:none;fill-opacity:0.75000000;fill-rule:evenodd;stroke:#000000;stroke-width:3.7500000;stroke-linecap:butt;stroke-linejoin:miter;stroke-miterlimit:4.0000000;stroke-opacity:1.0000000"/>
      <path d="M -337.53830,217.43816 L -370.25126,268.73804 L -316.72096,263.53370" id="path8253" style="fill:none;fill-opacity:0.75000000;fill-rule:evenodd;stroke:#000000;stroke-width:3.7500000;stroke-linecap:butt;stroke-linejoin:miter;stroke-miterlimit:4.0000000;stroke-opacity:1.0000000"/>
    </g>
    <path d="M 201.63589,155.75990 C 190.69155,158.77912 171.97148,187.57635 190.51599,219.89346 C 193.02289,227.34333 198.24396,234.88933 201.52041,242.44270 C 203.47165,246.94108 217.12975,262.99351 226.29894,268.11040 C 241.92876,273.03884 246.38593,269.14543 254.29919,267.29851 C 261.27773,265.66978 265.46248,259.08550 268.53519,255.93827 C 272.67702,251.69596 273.93838,247.80659 276.40038,243.05081 C 279.11272,237.81142 279.37870,229.90620 278.84288,225.65191 C 278.26582,221.07027 272.00728,218.23258 268.76348,217.45500 C 261.85785,215.79959 259.00118,216.01515 252.71508,216.17706 C 246.82551,216.32879 240.36487,211.58824 236.90948,209.81897 C 231.80057,207.20305 228.07332,204.29804 223.70537,199.58838 C 219.87439,195.45769 218.31190,189.36206 217.11488,185.80482 C 215.37347,180.62982 201.93166,155.18852 201.63589,155.75990 z " id="path16869" sodipodi:nodetypes="cccccccccccccc" style="fill:url(#radialGradient18051);fill-opacity:1.0000000;fill-rule:evenodd;stroke:#000000;stroke-width:4.2085433;stroke-linecap:butt;stroke-linejoin:miter;stroke-miterlimit:4.0000000;stroke-opacity:1.0000000"/>
    <g id="g17022" style="fill:#d30e2b;fill-rule:nonzero" transform="matrix(0.856354,0.000000,0.000000,0.700783,132.6152,269.3245)">
      <g id="g17024">
        <g id="g17026">
          <path d="M 60.968000,47.645000 C 59.474000,47.666000 61.251000,48.414000 63.201000,48.714000 C 63.741000,48.292000 64.229000,47.868000 64.664000,47.454000 C 63.449000,47.751000 62.213000,47.758000 60.967000,47.644000 L 60.968000,47.645000 z " id="path17028"/>
          <path d="M 68.988000,45.646000 C 69.879000,44.417000 70.527000,43.074000 70.756000,41.683000 C 70.555000,42.673000 70.020000,43.529000 69.512000,44.432000 C 66.719000,46.191000 69.248000,43.388000 69.510000,42.322000 C 66.508000,46.104000 69.097000,44.590000 68.989000,45.646000 L 68.988000,45.646000 z " id="path17030"/>
          <path d="M 71.949000,37.942000 C 72.131000,35.251000 71.420000,36.102000 71.181000,37.128000 C 71.458000,37.274000 71.679000,39.026000 71.949000,37.942000 z " id="path17032"/>
          <path d="M 55.301000,1.1630000 C 56.099000,1.3050000 57.025000,1.4150000 56.893000,1.6060000 C 57.767000,1.4130000 57.964000,1.2390000 55.301000,1.1630000 z " id="path17034"/>
          <path d="M 56.894000,1.6060000 L 56.332000,1.7220000 L 56.856000,1.6740000 L 56.894000,1.6060000 z " id="path17036"/>
          <path d="M 81.761000,38.962000 C 81.851000,41.378000 81.056000,42.552000 80.337000,44.628000 L 79.045000,45.271000 C 77.989000,47.326000 79.149000,46.576000 78.392000,48.209000 C 76.741000,49.676000 73.386000,52.798000 72.312000,53.084000 C 71.527000,53.066000 72.843000,52.158000 73.015000,51.803000 C 70.806000,53.320000 71.242000,54.079000 67.865000,55.002000 L 67.765000,54.781000 C 59.435000,58.701000 47.863000,50.933000 48.015000,40.338000 C 47.927000,41.010000 47.763000,40.842000 47.578000,41.112000 C 47.148000,35.661000 50.096000,30.185000 55.068000,27.947000 C 59.931000,25.541000 65.632000,26.527000 69.115000,29.775000 C 67.202000,27.269000 63.393000,24.613000 58.881000,24.859000 C 54.460000,24.930000 50.324000,27.740000 48.943000,30.791000 C 46.678000,32.216000 46.415000,36.287000 45.428000,37.033000 C 44.099000,46.793000 47.926000,51.008000 54.398000,55.969000 C 55.415000,56.656000 54.684000,56.760000 54.821000,57.282000 C 52.671000,56.275000 50.702000,54.756000 49.082000,52.894000 C 49.941000,54.152000 50.869000,55.373000 52.067000,56.333000 C 50.039000,55.647000 47.330000,51.420000 46.540000,51.248000 C 50.036000,57.506000 60.719000,62.223000 66.315000,59.882000 C 63.726000,59.978000 60.437000,59.935000 57.528000,58.861000 C 56.304000,58.232000 54.644000,56.930000 54.941000,56.687000 C 62.577000,59.539000 70.463000,58.845000 77.071000,53.550000 C 78.751000,52.240000 80.587000,50.013000 81.118000,49.984000 C 80.319000,51.185000 81.255000,50.561000 80.641000,51.623000 C 82.314000,48.922000 79.912000,50.522000 82.371000,46.959000 L 83.279000,48.209000 C 82.940000,45.965000 86.064000,43.243000 85.746000,39.697000 C 86.463000,38.613000 86.545000,40.865000 85.785000,43.358000 C 86.840000,40.591000 86.064000,40.146000 86.334000,37.863000 C 86.626000,38.631000 87.012000,39.446000 87.209000,40.257000 C 86.521000,37.582000 87.912000,35.754000 88.258000,34.199000 C 87.916000,34.049000 87.197000,35.381000 87.032000,32.222000 C 87.056000,30.850000 87.414000,31.503000 87.551000,31.165000 C 87.283000,31.010000 86.576000,29.958000 86.147000,27.940000 C 86.457000,27.465000 86.979000,29.169000 87.403000,29.239000 C 87.131000,27.635000 86.661000,26.413000 86.641000,25.181000 C 85.401000,22.591000 86.202000,25.528000 85.198000,24.070000 C 83.879000,19.956000 86.292000,23.115000 86.456000,21.247000 C 88.454000,24.142000 89.594000,28.632000 90.118000,30.491000 C 89.718000,28.223000 89.073000,26.027000 88.284000,23.902000 C 88.893000,24.159000 87.306000,19.239000 89.075000,22.497000 C 87.186000,15.552000 80.997000,9.0610000 75.302000,6.0180000 C 75.997000,6.6560000 76.877000,7.4560000 76.562000,7.5810000 C 73.729000,5.8950000 74.227000,5.7630000 73.821000,5.0510000 C 71.515000,4.1130000 71.363000,5.1280000 69.836000,5.0530000 C 65.487000,2.7450000 64.648000,2.9910000 60.646000,1.5460000 L 60.828000,2.3980000 C 57.947000,1.4380000 57.471000,2.7600000 54.357000,2.4000000 C 54.169000,2.2540000 55.355000,1.8650000 56.333000,1.7230000 C 53.548000,2.0910000 53.678000,1.1730000 50.952000,1.8250000 C 51.624000,1.3530000 52.335000,1.0410000 53.051000,0.64000000 C 50.779000,0.77900000 47.628000,1.9620000 48.600000,0.88400000 C 44.894000,2.5380000 38.312000,4.8590000 34.620000,8.3220000 L 34.503000,7.5460000 C 32.811000,9.5770000 27.124000,13.612000 26.671000,16.245000 L 26.219000,16.349000 C 25.340000,17.840000 24.768000,19.530000 24.071000,21.063000 C 22.920000,23.026000 22.383000,21.819000 22.547000,22.126000 C 20.282000,26.718000 19.156000,30.576000 18.185000,33.742000 C 18.877000,34.777000 18.201000,39.973000 18.463000,44.133000 C 17.327000,64.677000 32.880000,84.622000 49.883000,89.227000 C 52.375000,90.119000 56.080000,90.085000 59.233000,90.175000 C 55.514000,89.112000 55.033000,89.613000 51.411000,88.349000 C 48.798000,87.118000 48.224000,85.713000 46.374000,84.106000 L 47.106000,85.401000 C 43.476000,84.116000 44.996000,83.810000 42.042000,82.876000 L 42.825000,81.854000 C 41.648000,81.765000 39.708000,79.872000 39.178000,78.822000 L 37.890000,78.873000 C 36.344000,76.966000 35.519000,75.589000 35.580000,74.523000 L 35.164000,75.264000 C 34.693000,74.455000 29.473000,68.107000 32.181000,69.584000 C 31.679000,69.125000 31.009000,68.836000 30.284000,67.518000 L 30.835000,66.889000 C 29.533000,65.212000 28.437000,63.064000 28.521000,62.347000 C 29.216000,63.285000 29.698000,63.461000 30.175000,63.622000 C 26.884000,55.458000 26.700000,63.173000 24.208000,55.311000 L 24.734000,55.269000 C 24.331000,54.659000 24.084000,53.999000 23.759000,53.350000 L 23.989000,51.065000 C 21.621000,48.330000 23.327000,39.420000 23.670000,34.536000 C 23.906000,32.550000 25.648000,30.434000 26.970000,27.118000 L 26.164000,26.979000 C 27.706000,24.291000 34.966000,16.180000 38.330000,16.596000 C 39.959000,14.550000 38.006000,16.588000 37.687000,16.075000 C 41.266000,12.372000 42.391000,13.459000 44.805000,12.792000 C 47.409000,11.247000 42.570000,13.396000 43.805000,12.203000 C 48.307000,11.054000 46.995000,9.5890000 52.868000,9.0060000 C 53.488000,9.3590000 51.430000,9.5500000 50.914000,10.007000 C 54.664000,8.1710000 62.784000,8.5900000 68.058000,11.025000 C 74.176000,13.886000 81.052000,22.339000 81.324000,30.293000 L 81.633000,30.376000 C 81.477000,33.538000 82.117000,37.195000 81.007000,40.553000 L 81.762000,38.963000 L 81.761000,38.962000 z " id="path17038"/>
          <path d="M 44.658000,49.695000 L 44.448000,50.742000 C 45.431000,52.077000 46.211000,53.522000 47.464000,54.563000 C 46.562000,52.803000 45.893000,52.077000 44.659000,49.695000 L 44.658000,49.695000 z " id="path17040"/>
          <path d="M 46.979000,49.604000 C 46.460000,49.029000 46.153000,48.336000 45.807000,47.648000 C 46.138000,48.860000 46.812000,49.901000 47.440000,50.960000 L 46.979000,49.604000 L 46.979000,49.604000 z " id="path17042"/>
          <path d="M 88.062000,40.675000 L 87.843000,41.227000 C 87.441000,44.085000 86.572000,46.914000 85.239000,49.537000 C 86.711000,46.769000 87.661000,43.743000 88.062000,40.676000 L 88.062000,40.675000 z " id="path17044"/>
          <path d="M 55.598000,0.44600000 C 56.608000,0.077000000 58.081000,0.24300000 59.154000,0.0000000 C 57.756000,0.11700000 56.366000,0.18700000 54.992000,0.36200000 L 55.597000,0.44600000 L 55.598000,0.44600000 z " id="path17046"/>
          <path d="M 20.127000,19.308000 C 20.359000,21.462000 18.507000,22.299000 20.537000,20.877000 C 21.627000,18.423000 20.113000,20.200000 20.127000,19.308000 z " id="path17048"/>
          <path d="M 17.739000,29.282000 C 18.208000,27.844000 18.292000,26.983000 18.471000,26.150000 C 17.178000,27.803000 17.875000,28.157000 17.739000,29.282000 z " id="path17050"/>
        </g>
      </g>
      <path d="M 13.438000,125.50700 C 13.393000,125.55400 13.393000,133.01300 13.299000,134.96000 C 13.207000,136.53400 13.068000,139.91700 9.7320000,139.91700 C 6.3020000,139.91700 5.4690000,135.97800 5.1910000,134.26500 C 4.8670000,132.36500 4.8670000,130.78800 4.8670000,130.09500 C 4.8670000,127.87000 5.0060000,121.65900 10.242000,121.65900 C 11.818000,121.65900 12.698000,122.12400 13.393000,122.49300 L 13.438000,125.50700 L 13.438000,125.50700 z M 0.0000000,130.97600 C 0.0000000,144.04200 6.9510000,144.04200 7.9710000,144.04200 C 10.844000,144.04200 12.698000,142.46600 13.485000,139.73300 L 13.578000,143.85600 C 14.459000,143.80900 15.339000,143.71700 16.775000,143.71700 C 17.285000,143.71700 17.701000,143.71700 18.073000,143.76400 C 18.444000,143.76400 18.814000,143.80900 19.231000,143.85600 C 18.490000,142.37400 17.934000,139.03800 17.934000,131.80700 C 17.934000,124.76400 17.934000,112.85600 18.536000,109.24100 C 16.869000,110.03000 15.432000,110.54000 12.280000,110.81700 C 13.531000,112.16100 13.531000,112.85600 13.531000,118.97100 C 12.652000,118.69400 11.539000,118.36900 9.6390000,118.36900 C 1.3450000,118.37000 0.0000000,125.59900 0.0000000,130.97600 z " id="path17052" style="fill:#000000"/>
      <path d="M 25.130000,128.61000 C 25.177000,124.76400 25.965000,121.33500 29.254000,121.33500 C 32.869000,121.33500 33.146000,125.31900 33.054000,128.61000 L 25.130000,128.61000 z M 37.641000,129.07500 C 37.641000,123.65300 36.576000,118.32300 29.718000,118.32300 C 20.266000,118.32300 20.266000,128.79600 20.266000,131.02000 C 20.266000,140.42600 24.482000,144.13300 31.572000,144.13300 C 34.721000,144.13300 36.252000,143.67000 37.086000,143.43800 C 37.040000,141.77000 37.272000,140.70400 37.551000,139.26800 C 36.576000,139.87200 35.325000,140.65900 32.545000,140.65900 C 25.316000,140.65900 25.224000,134.07700 25.224000,131.80700 L 37.550000,131.80700 L 37.641000,129.07500 z " id="path17054" style="fill:#000000"/>
      <path d="M 52.716000,131.06700 C 52.716000,135.37600 51.929000,141.16900 46.553000,141.16900 C 45.812000,141.16900 44.885000,141.02800 44.283000,140.89000 C 44.190000,139.22200 44.190000,136.34900 44.190000,133.01300 C 44.190000,129.02700 44.606000,126.94500 44.932000,125.92300 C 45.904000,122.63400 48.081000,122.58700 48.498000,122.58700 C 52.019000,122.58700 52.715000,127.45400 52.715000,131.06700 L 52.716000,131.06700 z M 39.417000,136.11800 C 39.417000,139.54800 39.417000,141.49300 38.861000,142.97500 C 40.761000,143.71700 43.123000,144.13300 45.951000,144.13300 C 47.758000,144.13300 52.994000,144.13300 55.820000,138.34200 C 57.165000,135.65400 57.627000,132.03900 57.627000,129.30500 C 57.627000,127.63700 57.442000,123.97700 56.099000,121.65900 C 54.801000,119.48300 52.716000,118.37000 50.493000,118.37000 C 46.044000,118.37000 44.748000,122.07700 44.053000,123.97700 C 44.053000,121.61400 44.099000,113.36600 44.469000,109.14900 C 41.457000,110.54000 39.603000,110.77000 37.612000,110.95600 C 39.419000,111.69600 39.419000,114.75700 39.419000,124.72000 L 39.419000,136.11800 L 39.417000,136.11800 z " id="path17056" style="fill:#000000"/>
      <path d="M 66.535000,143.85600 C 65.608000,143.71700 64.958000,143.62400 63.615000,143.62400 C 62.134000,143.62400 61.113000,143.71800 60.048000,143.85600 C 60.512000,142.97500 60.697000,142.55700 60.836000,139.54700 C 61.022000,135.42200 61.067000,124.39300 60.743000,122.07600 C 60.512000,120.31400 60.095000,120.03700 59.446000,119.57400 C 63.245000,119.20300 64.311000,118.92600 66.071000,118.09200 C 65.700000,120.12900 65.654000,121.15100 65.654000,124.25400 C 65.562000,140.24200 65.515000,141.95500 66.535000,143.85600 z " id="path17058" style="fill:#000000"/>
      <path d="M 81.373000,130.74100 C 81.281000,133.66100 81.234000,135.70000 80.445000,137.32100 C 79.472000,139.40700 77.851000,140.00900 76.646000,140.00900 C 73.865000,140.00900 73.263000,137.69300 73.263000,135.42300 C 73.263000,131.06800 77.156000,130.74100 78.915000,130.74100 L 81.372000,130.74100 L 81.373000,130.74100 z M 68.628000,136.44200 C 68.628000,139.36200 69.509000,142.28000 72.105000,143.53200 C 73.263000,144.04200 74.421000,144.04200 74.793000,144.04200 C 79.057000,144.04200 80.492000,140.89000 81.373000,138.94400 C 81.326000,140.98300 81.373000,142.23300 81.512000,143.85600 C 82.346000,143.80900 83.180000,143.71700 84.571000,143.71700 C 85.358000,143.71700 86.100000,143.80900 86.887000,143.85600 C 86.377000,143.06900 86.100000,142.60400 85.959000,140.79700 C 85.867000,139.03700 85.867000,137.27600 85.867000,134.82000 L 85.914000,125.36700 C 85.914000,121.84400 84.986000,118.36900 78.035000,118.36900 C 73.449000,118.36900 70.762000,119.76000 69.418000,120.45500 C 69.975000,121.47500 70.438000,122.35300 70.854000,124.34800 C 72.663000,122.77200 75.026000,121.93800 77.434000,121.93800 C 81.282000,121.93800 81.282000,124.48700 81.282000,128.10000 C 80.401000,128.05500 79.659000,127.96300 78.407000,127.96300 C 72.522000,127.96300 68.630000,130.23100 68.630000,136.44200 L 68.628000,136.44200 z " id="path17060" style="fill:#000000"/>
      <path d="M 108.06200,139.26900 C 108.10900,140.84500 108.10900,142.51300 108.75700,143.85700 C 107.73700,143.76500 107.13400,143.62500 105.23600,143.62500 C 104.12300,143.62500 103.52100,143.71900 102.64000,143.85700 C 102.82400,143.25500 102.91900,143.02300 103.01100,142.23400 C 103.15000,141.17000 103.24300,137.60100 103.24300,136.34900 L 103.24300,131.34500 C 103.24300,129.16700 103.24300,126.01500 103.10200,124.90400 C 103.01000,124.11700 102.78000,121.98600 100.09000,121.98600 C 97.449000,121.98600 96.570000,123.93100 96.244000,125.50700 C 95.875000,127.12800 95.875000,128.89000 95.875000,135.74700 C 95.920000,141.67900 95.920000,142.23300 96.383000,143.85600 C 95.596000,143.76400 94.623000,143.67000 93.233000,143.67000 C 92.120000,143.67000 91.379000,143.71700 90.454000,143.85600 C 90.778000,143.11400 90.964000,142.74300 91.056000,140.14900 C 91.150000,137.60000 91.335000,125.08800 90.915000,122.12400 C 90.685000,120.31500 90.220000,119.89900 89.712000,119.43600 C 93.466000,119.25000 94.669000,118.64700 95.829000,118.04500 L 95.829000,122.95700 C 96.384000,121.51900 97.542000,118.32200 102.17700,118.32200 C 107.97000,118.32200 108.01500,122.53900 108.06200,125.31800 L 108.06200,139.26700 L 108.06200,139.26900 z " id="path17062" style="fill:#000000"/>
      <path d="M 66.925000,111.53400 L 63.089000,115.37000 L 59.253000,111.53400 L 63.089000,107.69800 L 66.925000,111.53400 z " id="path17064"/>
    </g>
  </g>
</svg>
