<?xml version="1.0" encoding="UTF-8" standalone="no"?>
<!DOCTYPE svg PUBLIC "-//W3C//DTD SVG 20010904//EN"
"http://www.w3.org/TR/2001/REC-SVG-20010904/DTD/svg10.dtd">
<!-- Created with Sodipodi ("http://www.sodipodi.com/") --><svg height="297mm" id="svg602" sodipodi:docbase="/home/alex/grafik/homepage/src/" sodipodi:docname="/home/alex/grafik/homepage/src/pinguin.svg" sodipodi:version="0.34" space="preserve" width="210mm" xmlns="http://www.w3.org/2000/svg" xmlns:sodipodi="http://sodipodi.sourceforge.net/DTD/sodipodi-0.dtd" xmlns:xlink="http://www.w3.org/1999/xlink">
  <metadata>
    <rdf:RDF xmlns:cc="http://web.resource.org/cc/" xmlns:dc="http://purl.org/dc/elements/1.1/" xmlns:rdf="http://www.w3.org/1999/02/22-rdf-syntax-ns#">
      <cc:Work rdf:about="">
        <dc:title>Baby-Tux</dc:title>
        <dc:description>Made with Sodipodi</dc:description>
        <dc:subject>
          <rdf:Bag>
            <rdf:li>penguin</rdf:li>
            <rdf:li>tux</rdf:li>
            <rdf:li>animal</rdf:li>
            <rdf:li>linux</rdf:li>
            <rdf:li>bird</rdf:li>
          </rdf:Bag>
        </dc:subject>
        <dc:publisher>
          <cc:Agent rdf:about="http://www.openclipart.org">
            <dc:title>Alex Kuehne</dc:title>
          </cc:Agent>
        </dc:publisher>
        <dc:creator>
          <cc:Agent>
            <dc:title>Alex Kuehne</dc:title>
          </cc:Agent>
        </dc:creator>
        <dc:rights>
          <cc:Agent>
            <dc:title>Alex Kuehne</dc:title>
          </cc:Agent>
        </dc:rights>
        <dc:date></dc:date>
        <dc:format>image/svg+xml</dc:format>
        <dc:type rdf:resource="http://purl.org/dc/dcmitype/StillImage"/>
        <cc:license rdf:resource="http://web.resource.org/cc/PublicDomain"/>
        <dc:language>en</dc:language>
      </cc:Work>
      <cc:License rdf:about="http://web.resource.org/cc/PublicDomain">
        <cc:permits rdf:resource="http://web.resource.org/cc/Reproduction"/>
        <cc:permits rdf:resource="http://web.resource.org/cc/Distribution"/>
        <cc:permits rdf:resource="http://web.resource.org/cc/DerivativeWorks"/>
      </cc:License>
    </rdf:RDF>
  </metadata>
  <defs id="defs604">
    <linearGradient id="linearGradient673">
      <stop id="stop674" offset="0" style="stop-color:#3f3f3f;stop-opacity:1;"/>
      <stop id="stop675" offset="1" style="stop-color:#ffffff;stop-opacity:1;"/>
    </linearGradient>
    <linearGradient id="linearGradient647">
      <stop id="stop648" offset="0" style="stop-color:#ffffff;stop-opacity:0.498;"/>
      <stop id="stop649" offset="1" style="stop-color:#ffffff;stop-opacity:0;"/>
    </linearGradient>
    <linearGradient id="linearGradient644">
      <stop id="stop645" offset="0" style="stop-color:#ffffff;stop-opacity:0.698;"/>
      <stop id="stop646" offset="1" style="stop-color:#ffffff;stop-opacity:1;"/>
    </linearGradient>
    <linearGradient id="linearGradient641">
      <stop id="stop642" offset="0" style="stop-color:#999999;stop-opacity:1;"/>
      <stop id="stop643" offset="1" style="stop-color:#ffffff;stop-opacity:1;"/>
    </linearGradient>
    <linearGradient id="linearGradient638">
      <stop id="stop639" offset="0" style="stop-color:#ffffff;stop-opacity:0.6235;"/>
      <stop id="stop640" offset="1" style="stop-color:#ec9500;stop-opacity:0.3647;"/>
    </linearGradient>
    <linearGradient id="linearGradient635">
      <stop id="stop636" offset="0" style="stop-color:#000;stop-opacity:1;"/>
      <stop id="stop637" offset="1" style="stop-color:#fff;stop-opacity:1;"/>
    </linearGradient>
    <linearGradient id="linearGradient632">
      <stop id="stop633" offset="0" style="stop-color:#000;stop-opacity:1;"/>
      <stop id="stop634" offset="1" style="stop-color:#fff;stop-opacity:1;"/>
    </linearGradient>
    <linearGradient id="linearGradient629">
      <stop id="stop630" offset="0" style="stop-color:#000;stop-opacity:1;"/>
      <stop id="stop631" offset="1" style="stop-color:#fff;stop-opacity:1;"/>
    </linearGradient>
    <linearGradient id="linearGradient626">
      <stop id="stop627" offset="0" style="stop-color:#000;stop-opacity:1;"/>
      <stop id="stop628" offset="1" style="stop-color:#fff;stop-opacity:1;"/>
    </linearGradient>
    <linearGradient id="linearGradient623">
      <stop id="stop624" offset="0" style="stop-color:#000;stop-opacity:1;"/>
      <stop id="stop625" offset="1" style="stop-color:#fff;stop-opacity:1;"/>
    </linearGradient>
    <linearGradient id="linearGradient619">
      <stop id="stop620" offset="0" style="stop-color:#000;stop-opacity:1;"/>
      <stop id="stop621" offset="1" style="stop-color:#fff;stop-opacity:1;"/>
    </linearGradient>
    <linearGradient gradientUnits="objectBoundingBox" id="linearGradient622" spreadMethod="pad" x1="0.52831548" x2="0.52830201" xlink:href="#linearGradient647" y1="4.68754247e-2" y2="1.0234375"/>
    <linearGradient id="linearGradient653" x1="0.47285166" x2="0.47286788" xlink:href="#linearGradient647" y1="0.22656243" y2="0.67968732"/>
    <linearGradient id="linearGradient654" x1="0.53490901" x2="0.52713203" xlink:href="#linearGradient644" y1="1.56285539e-2" y2="1.0234375"/>
    <linearGradient id="linearGradient658" x1="0.54646838" x2="0.54275095" xlink:href="#linearGradient641" y1="3.89859602e-2" y2="0.74218708"/>
    <linearGradient id="linearGradient660" x1="0.50298619" x2="0.502994" xlink:href="#linearGradient638" y1="9.37579274e-2" y2="1.09375"/>
    <linearGradient id="linearGradient663" x1="7.90592935e-7" x2="1.00000083" xlink:href="#linearGradient647" y1="3.72924978e-6" y2="3.72924978e-6"/>
    <linearGradient id="linearGradient664" x1="-1.17021191" x2="-0.17021191" xlink:href="#linearGradient647" y1="3.72924978e-6" y2="3.72924978e-6"/>
    <linearGradient id="linearGradient672" x1="0.22222412" x2="0.16339877" xlink:href="#linearGradient673" y1="0.70312744" y2="-0.20312494"/>
  </defs>
  <sodipodi:namedview id="base"/>
  <rect height="585.000042" id="rect678" style="font-size:12;fill:#3f3fff;fill-rule:evenodd;stroke-width:1;fill-opacity:1;" width="695.000002" x="11.25" y="33.6120664"/>
  <path d="M 54.36554 267.9373 C 59.34396 269.9963 132.2261 292.1697 137.8784 292.5185 C 136.2952 288.5212 130.2662 234.799 130.5107 231.0551 C 126.3822 233.412 60.3932 264.9943 54.36554 267.9373 z " id="path613" sodipodi:nodetypes="cccc" style="font-size:12;fill:#000000;fill-rule:evenodd;stroke:none;stroke-width:1.668656;fill-opacity:1;"/>
  <path d="M 316.25 535.4872 A 58.75 24.375 0 1 0 198.75 535.4872 A 58.75 24.375 0 1 0  316.25 535.4872 z" id="path616" sodipodi:cx="257.5" sodipodi:cy="535.487183" sodipodi:rx="58.75" sodipodi:ry="24.375" sodipodi:type="arc" style="fill-rule:evenodd;stroke:none;fill:#ec9500;fill-opacity:1;stroke-opacity:1;stroke-width:1pt;stroke-linejoin:miter;stroke-linecap:butt;" transform="matrix(0.965687,0,0,1.666667,82.10181,-520.7415)"/>
  <path d="M 316.25 535.4872 A 58.75 24.375 0 1 0 198.75 535.4872 A 58.75 24.375 0 1 0  316.25 535.4872 z" id="path665" sodipodi:cx="257.5" sodipodi:cy="535.487183" sodipodi:rx="58.75" sodipodi:ry="24.375" sodipodi:type="arc" style="fill-rule:evenodd;stroke:none;fill:url(#linearGradient663);fill-opacity:1;stroke-opacity:1;stroke-width:1pt;stroke-linejoin:miter;stroke-linecap:butt;" transform="matrix(-0.851377,0,0,1.395939,547.9982,-376.1193)"/>
  <path d="M 316.25 535.4872 A 58.75 24.375 0 1 0 198.75 535.4872 A 58.75 24.375 0 1 0  316.25 535.4872 z" id="path615" sodipodi:cx="257.5" sodipodi:cy="535.487183" sodipodi:rx="58.75" sodipodi:ry="24.375" sodipodi:type="arc" style="fill-rule:evenodd;stroke:none;fill:#ec9500;fill-opacity:1;stroke-opacity:1;stroke-width:1pt;stroke-linejoin:miter;stroke-linecap:butt;" transform="matrix(0.965687,0,0,1.666667,-50.68013,-520.7415)"/>
  <path d="M 316.25 535.4872 A 58.75 24.375 0 1 0 198.75 535.4872 A 58.75 24.375 0 1 0  316.25 535.4872 z" id="path661" sodipodi:cx="257.5" sodipodi:cy="535.487183" sodipodi:rx="58.75" sodipodi:ry="24.375" sodipodi:type="arc" style="fill-rule:evenodd;stroke:none;fill:url(#linearGradient664);fill-opacity:1;stroke-opacity:1;stroke-width:1pt;stroke-linejoin:miter;stroke-linecap:butt;" transform="matrix(1.415207,0,0,1.395939,-72.5589,-503.6193)"/>
  <path d="M 316.25 535.4872 A 58.75 24.375 0 1 0 198.75 535.4872 A 58.75 24.375 0 1 0  316.25 535.4872 z" id="path662" sodipodi:cx="257.5" sodipodi:cy="535.487183" sodipodi:rx="58.75" sodipodi:ry="24.375" sodipodi:type="arc" style="fill-rule:evenodd;stroke:none;fill:url(#linearGradient663);fill-opacity:1;stroke-opacity:1;stroke-width:1pt;stroke-linejoin:miter;stroke-linecap:butt;" transform="matrix(0.862016,0,0,1.395939,-22.57536,-376.1193)"/>
  <path d="M 413.75 344.8622 A 143.75 143.75 0 1 0 126.25 344.8622 A 143.75 143.75 0 1 0  413.75 344.8622 z" id="path607" sodipodi:cx="270" sodipodi:cy="344.862183" sodipodi:rx="143.75" sodipodi:ry="143.75" sodipodi:type="arc" style="fill-rule:evenodd;stroke:none;fill:#000000;fill-opacity:1;stroke-opacity:1;stroke-width:1pt;stroke-linejoin:miter;stroke-linecap:butt;" transform="matrix(1,0,0,0.978262,-15,-95.62801)"/>
  <path d="M 363.75 139.2372 A 112.5 66.875 0 1 0 138.75 139.2372 A 112.5 66.875 0 1 0  363.75 139.2372 z" id="path618" sodipodi:cx="251.25" sodipodi:cy="139.237183" sodipodi:rx="112.5" sodipodi:ry="66.875" sodipodi:type="arc" style="fill-rule:evenodd;stroke:none;fill:url(#linearGradient622);fill-opacity:1;stroke-opacity:1;stroke-width:1pt;stroke-linejoin:miter;stroke-linecap:butt;" transform="matrix(1.038888,0,0,1.392524,-5.395808,9.096191)"/>
  <path d="M 315 292.9872 A 66.875 66.875 0 1 0 181.25 292.9872 A 66.875 66.875 0 1 0  315 292.9872 z" id="path605" sodipodi:cx="248.125" sodipodi:cy="292.987183" sodipodi:rx="66.875" sodipodi:ry="66.875" sodipodi:type="arc" style="fill-rule:evenodd;stroke:none;fill:url(#linearGradient654);fill-opacity:1;stroke-opacity:1;stroke-width:1pt;stroke-linejoin:miter;stroke-linecap:butt;" transform="matrix(0.708902,0,0,0.708902,44.0113,-11.67941)"/>
  <path d="M 150 561.7372 A 10.625 10.625 0 1 0 128.75 561.7372 A 10.625 10.625 0 1 0  150 561.7372 z" id="path609" sodipodi:cx="139.375" sodipodi:cy="561.737183" sodipodi:rx="10.625" sodipodi:ry="10.625" sodipodi:type="arc" style="fill-rule:evenodd;stroke:none;fill:#000000;fill-opacity:1;stroke-opacity:1;stroke-width:1pt;stroke-linejoin:miter;stroke-linecap:butt;" transform="matrix(1.647059,0,0,1.647059,9.191181,-717.8521)"/>
  <path d="M 413.75 344.8622 A 143.75 143.75 0 1 0 126.25 344.8622 A 143.75 143.75 0 1 0  413.75 344.8622 z" id="path612" sodipodi:cx="270" sodipodi:cy="344.862183" sodipodi:rx="143.75" sodipodi:ry="143.75" sodipodi:type="arc" style="fill-rule:evenodd;stroke:none;fill:url(#linearGradient658);fill-opacity:1;stroke-opacity:1;stroke-width:1pt;stroke-linejoin:miter;stroke-linecap:butt;" transform="matrix(-0.537682,-6.584488e-17,3.141384e-17,-0.256522,402.0492,426.4521)"/>
  <path d="M 315 292.9872 A 66.875 66.875 0 1 0 181.25 292.9872 A 66.875 66.875 0 1 0  315 292.9872 z" id="path652" sodipodi:cx="248.125" sodipodi:cy="292.987183" sodipodi:rx="66.875" sodipodi:ry="66.875" sodipodi:type="arc" style="fill-rule:evenodd;stroke:none;fill:url(#linearGradient653);fill-opacity:1;stroke-opacity:1;stroke-width:1pt;stroke-linejoin:miter;stroke-linecap:butt;" transform="matrix(0.634137,0,0,0.634137,62.56281,11.47618)"/>
  <path d="M 315 292.9872 A 66.875 66.875 0 1 0 181.25 292.9872 A 66.875 66.875 0 1 0  315 292.9872 z" id="path655" sodipodi:cx="248.125" sodipodi:cy="292.987183" sodipodi:rx="66.875" sodipodi:ry="66.875" sodipodi:type="arc" style="fill-rule:evenodd;stroke:none;fill:url(#linearGradient654);fill-opacity:1;stroke-opacity:1;stroke-width:1pt;stroke-linejoin:miter;stroke-linecap:butt;" transform="matrix(-0.521986,0,0,0.521986,439.4255,48.08453)"/>
  <path d="M 150 561.7372 A 10.625 10.625 0 1 0 128.75 561.7372 A 10.625 10.625 0 1 0  150 561.7372 z" id="path656" sodipodi:cx="139.375" sodipodi:cy="561.737183" sodipodi:rx="10.625" sodipodi:ry="10.625" sodipodi:type="arc" style="fill-rule:evenodd;stroke:none;fill:#000000;fill-opacity:1;stroke-opacity:1;stroke-width:1pt;stroke-linejoin:miter;stroke-linecap:butt;" transform="matrix(-1.21278,0,0,1.21278,465.0646,-471.892)"/>
  <path d="M 315 292.9872 A 66.875 66.875 0 1 0 181.25 292.9872 A 66.875 66.875 0 1 0  315 292.9872 z" id="path657" sodipodi:cx="248.125" sodipodi:cy="292.987183" sodipodi:rx="66.875" sodipodi:ry="66.875" sodipodi:type="arc" style="fill-rule:evenodd;stroke:none;fill:url(#linearGradient653);fill-opacity:1;stroke-opacity:1;stroke-width:1pt;stroke-linejoin:miter;stroke-linecap:butt;" transform="matrix(-0.466934,0,0,0.466934,425.7654,65.1347)"/>
  <path d="M 450.8379 254.1522 C 446.5798 257.2554 383.3799 293.4203 378.3302 294.6311 C 379.3223 289.7577 378.9313 226.437 378.3059 222.1189 C 382.2772 224.2711 445.0939 251.5892 450.8379 254.1522 z " id="path614" sodipodi:nodetypes="cccc" style="font-size:12;fill:#000000;fill-rule:evenodd;stroke:none;stroke-width:1.668656;fill-opacity:1;"/>
  <path d="M 201.25 255.2605 C 208.8561 253.5946 314.0221 240.2653 321.114 241.1338 C 316.1011 246.3011 267.1328 319.3952 264.5225 324.6481 C 261.3691 320.3902 206.2406 260.7856 201.25 255.2605 z " id="path608" sodipodi:nodetypes="cccc" style="font-size:12;fill:#ec9500;fill-rule:evenodd;stroke:none;stroke-width:1.668656;fill-opacity:1;"/>
  <path d="M 213.75 259.3692 C 219.6905 258.1021 301.8254 247.9633 307.364 248.6241 C 303.4489 252.5543 265.2046 308.1522 263.1661 312.1479 C 260.7035 308.9092 217.6478 263.5717 213.75 259.3692 z " id="path659" sodipodi:nodetypes="cccc" style="font-size:12;fill:url(#linearGradient660);fill-rule:evenodd;stroke:none;stroke-width:1.668656;fill-opacity:1;"/>
  <path d="M 91.5813 447.8301 C 97.7325 444.811 112.1268 449.1138 119.4958 449.3029 C 133.3953 449.6596 159.3279 460.9578 173.3721 465.7546 C 188.0225 470.7584 201.6739 476.8171 215.6035 483.4863 C 221.4026 486.2628 227.2004 487.4232 231.9414 492.0242 C 235.2065 495.1927 234.0385 504.5209 233.947 509.2006 C 233.8514 514.0937 227.8639 530.3408 226.0075 535.7854 C 222.4744 546.1466 219.9813 560.0864 210.2855 566.6069 C 201.0764 572.8 205.8044 576.7108 191.5733 572.0752 C 186.63 570.465 177.1214 575.2087 170.342 574.3984 C 163.1756 573.5418 156.9074 576.7233 149.7519 575.5348 C 140.3377 573.9709 130.6531 575.8436 121.1757 574.1316 C 111.1091 572.3132 100.0199 573.2135 89.793 572.2585 C 81.1461 571.4512 72.4873 573.4211 64.1081 570.7311 C 56.504 568.29 53.6509 569.42 54.51 558.7772 C 55.1711 550.5881 59.2654 542.8866 59.8688 534.6738 C 60.2059 530.0864 60.5528 526.1125 62.1336 521.486 C 64.8851 513.4333 65.1388 505.3294 68.8716 497.4691 C 70.08 494.9244 68.6679 489.7735 70.2898 485.039 C 73.1805 476.6 75.1015 469.4061 79.0516 461.23 C 81.7884 455.5651 87.1208 452.8812 91.5813 447.8301 z " id="path677" style="fill:#0000ff;fill-rule:evenodd;stroke:none;stroke-opacity:1;stroke-width:1pt;stroke-linejoin:miter;stroke-linecap:butt;fill-opacity:0.5;"/>
  <path d="M 90.6907 452.5315 C 100.65 443.7767 223.7641 489.7403 228.0261 498.8511 C 231.3499 509.4613 208.8543 566.9566 201.1535 568.5651 C 193.1815 571.4337 76.1532 570.4612 63.5939 565.8473 C 52.14346 561.896 82.9594 457.8496 90.6907 452.5315 z M 83.4232 439.343 C 95.0264 428.8821 236.8467 481.9651 241.6776 492.6979 C 245.4081 505.2144 218.8044 573.4638 209.8864 575.4473 C 200.6419 578.9242 65.3847 578.9997 50.91633 573.6734 C 37.72265 569.119 74.4314 445.7151 83.4232 439.343 z " id="path670" style="font-size:12;fill:#000000;fill-rule:evenodd;stroke:none;fill-opacity:1;"/>
</svg>
